<svg xmlns="http://www.w3.org/2000/svg" width="400" height="483.951"><path d="M104.691 17.08c0 .198.508.572 1.128.831 2.536 1.059 12.071 6.894 20.93 12.808 31.434 20.983 60.326 47.802 81.473 75.626 2.822 3.713 2.837 3.744 2.084 4.156-9.686 5.293-30.033 16.828-30.114 17.071-.059.181.299.791.796 1.356 18.346 20.833 31.921 38.952 45.793 61.122 5.521 8.824 14.33 24.074 14.593 25.265.059.268.21.565.336.66.778.588 9.308 17.645 14.484 28.963 19.39 42.401 35.105 95.726 39.657 134.568.778 6.645.985 6.423 2.075-2.222 2.756-21.867 2.297-53.469-1.153-79.342-7.602-57.008-27.578-109.497-59.612-156.631-1.879-2.764-3.416-5.081-3.416-5.147 0-.067 6.459-3.721 14.354-8.12 7.895-4.4 14.427-8.189 14.516-8.42.3-.781-8.736-13.474-15.2-21.352C213.626 57.089 164.94 28.3 111.44 17.866c-5.626-1.098-6.749-1.228-6.749-.786m48.066 128.846c0 1.68 13.645 64.691 14.105 65.137.706.684 38.387 13.605 38.995 13.371.731-.28 4.843-5.721 4.843-6.407 0-2.027-13.748-22.948-22.91-34.866-12.133-15.781-35.033-40.121-35.033-37.235M97.613 284.781c-7.252.759-12.376 3.718-14.735 8.511l-1.067 2.168v62.908l1.067 2.167c5.696 11.572 29.699 11.572 35.396.001l1.068-2.167v-38.534l-10.629-.086-10.628-.087.093 3.682.094 3.682 1.731.894c6.284 3.244 6.334 3.377 6.334 16.591v10.749l-1.176.492c-2.462 1.028-8.559.864-9.935-.268-.323-.266-.411-6.396-.411-28.628v-28.289l1.234-.547c.883-.39 2.174-.546 4.527-.546s3.645.156 4.527.546l1.234.547v12.644l3.704-.221c2.037-.122 4.963-.478 6.502-.791l2.799-.569v-14.173l-1.068-2.167c-2.967-6.023-11.365-9.482-20.661-8.509m44.596.619c-3.763.284-3.792.299-4.048 2.081-.111.774-1.027 6.889-2.035 13.589-1.008 6.7-2.709 18.033-3.78 25.185a36404.34 36404.34 0 0 1-4.101 27.303 3419.689 3419.689 0 0 0-2.154 14.403c0 .364 13.205.06 13.336-.307.081-.226.738-4.633 1.46-9.794 2.033-14.523 6.265-45.096 6.472-46.749.223-1.773.47-2.733.657-2.547.115.115 5.062 34.818 5.068 35.551.001.136-1.834.247-4.078.247-2.996 0-4.122.111-4.24.419-.403 1.048-.97 6.551-.7 6.789.163.143 1.481.666 2.93 1.162 2.771.949 6.551 2.993 7.442 4.024.342.395.726 2.12 1.091 4.89.31 2.354.645 4.761.743 5.35l.18 1.07h6.393c5.718 0 6.417-.059 6.609-.561.182-.475-10.828-79.151-11.316-80.857-.335-1.175-8.473-1.812-15.929-1.248M20.412 326.907v41.159h15.783c10.705 0 15.852-.112 15.997-.347.268-.434 1.132-8.488 1.137-10.6l.004-1.563-9.465-.005c-5.205-.003-9.649-.123-9.875-.266-.322-.204-.428-7.672-.494-34.81l-.083-34.549-6.502-.089-6.502-.09v41.16m38.014-40.741c-.087.23-.121 18.715-.074 41.077l.084 40.658 6.504.09 6.503.089-.084-41.077-.083-41.077-6.345-.09c-4.897-.069-6.382.007-6.505.33m22.123 96.902c-7.601 1.698-11.863 5.626-12.749 11.75-.404 2.794-.377 56.693.03 59.831 1.876 14.458 30.087 17.32 36.47 3.7l.885-1.888v-63.539l-.908-1.848c-3.188-6.489-14.074-10.162-23.728-8.006m183.813-.023c-6.617 1.488-10.547 4.414-12.377 9.218-.921 2.418-.982 62.656-.065 64.939.308.769.495 1.399.414 1.399-.181 0 .607.989 2.259 2.835 7.892 8.82 28.436 6.96 33.335-3.018l.961-1.957.095-19.332.094-19.332-.753-.184c-.414-.101-5.197-.143-10.63-.092l-9.876.092v7.189l1.728.893c2.499 1.291 4.744 3.071 5.78 4.584.497.725.558 2.022.558 11.925v11.111l-1.875.545c-2.05.596-6.726.51-8.413-.154l-.906-.356V396.075l1.4-.414c1.846-.546 6.655-.493 8.312.091l1.317.464.165 6.419.164 6.418 2.305-.103c2.815-.126 8.797-.968 9.923-1.396l.823-.313-.105-6.995c-.125-8.26-.553-9.725-3.713-12.714-4.358-4.121-13.666-6.117-20.92-4.487m45.022.389c-.936.11-1.273.318-1.398.866-.175.765-2.266 14.56-5.248 34.63a15067.8 15067.8 0 0 1-4.291 28.611c-1.364 9.037-2.48 16.851-2.48 17.366v.937h6.584c3.622 0 6.585-.09 6.585-.199 0-.11.587-4.369 1.306-9.465.718-5.097 2.423-17.34 3.79-27.209 3.468-25.05 3.24-23.657 3.604-22.014.215.97 4.803 34.206 4.8 34.771-.002.307-1.04.412-4.088.412h-4.085l-.373 2.222c-.205 1.222-.404 2.872-.441 3.665l-.069 1.443 2.14.732c7.692 2.631 8.667 3.656 9.546 10.028.386 2.797.775 5.205.865 5.35.211.342 12.874.346 13.085.004.229-.371-11.424-81.606-11.754-81.936-.284-.284-15.907-.469-18.078-.214M20.412 424.67v41.188l6.502-.09 6.502-.089.083-34.65.084-34.65 3.867.006c2.127.003 4.608.198 5.513.433l1.646.427.086 15.916c.073 13.726.017 16.02-.411 16.673-.669 1.022-3.981 3.235-6.595 4.408l-2.133.957v7.364l4.362-.188c8.658-.371 14.247-3.142 16.898-8.378l.962-1.898v-37.874l-1.082-2.198c-3.241-6.583-8.019-8.211-24.68-8.408l-11.604-.138v41.189m95.39-40.939c-.135.136-.246 18.667-.246 41.18v40.933h13.165l.084-34.651.084-34.65h4.609c3.461 0 4.855.124 5.597.499l.987.498v28.546l-1.481 1.278c-.815.704-2.889 1.989-4.609 2.855l-3.128 1.577-.093 3.309-.093 3.309 2.408 4.918c2.557 5.221 4.831 11.486 6.616 18.232l1.089 4.115 6.806.089c6.539.085 6.806.064 6.806-.547 0-2.797-4.658-18.072-7.278-23.869-.91-2.011-1.726-3.823-1.816-4.026-.089-.203.625-.813 1.586-1.356 2.234-1.26 4.366-3.577 5.48-5.953l.876-1.869v-33.58l-1.016-2.14c-1.849-3.893-5.533-6.6-11-8.083-2.274-.616-24.885-1.163-25.433-.614m42.699.228c-.089.234-.122 3.087-.073 6.34l.091 5.915 6.255.165 6.255.164.164 34.568.165 34.568 6.501.089 6.5.09.084-34.658.084-34.657 6.255-.164 6.255-.165v-12.51l-19.186-.085c-15.437-.069-19.218-.002-19.35.34m45.108-.014c-.088.231-.122 16.645-.074 36.475l.086 36.055 1.082 2.198c5.474 11.118 28.999 11.251 34.992.198l1.128-2.081.088-36.632.088-36.633-6.508.089-6.507.09-.084 34.802-.084 34.803-1.704.506c-.938.278-2.688.506-3.89.506s-2.952-.228-3.889-.506l-1.704-.506-.084-34.803-.084-34.802-6.345-.09c-4.91-.069-6.382.006-6.507.331m143.284-.193c-.124.124-.226 18.646-.226 41.159v40.933h15.791c14.838 0 15.809-.036 16.106-.59.358-.668 1.022-7.171 1.023-10.023l.001-1.888-9.794-.087-9.794-.087-.165-34.733-.164-34.732-6.276-.089c-3.452-.05-6.377.012-6.502.137m-255.941 12.08 1.229.513v56.963l-1.706.506c-2.071.615-5.449.645-7.677.068l-1.646-.427-.084-28.69-.084-28.689 1.236-.318c.68-.174 1.533-.395 1.895-.489 1.212-.318 5.594.043 6.837.563" fill="#1c2c4c" fill-rule="evenodd"/></svg>