<svg id="svg" version="1.1" xmlns="http://www.w3.org/2000/svg" xmlns:xlink="http://www.w3.org/1999/xlink" width="400" height="400" viewBox="0, 0, 400,400"><g id="svgg"><path id="path0" d="M160.258 67.999 C 153.196 69.215,148.047 75.826,148.047 83.676 C 148.047 85.791,148.169 85.741,144.848 84.988 C 138.909 83.641,128.474 83.256,117.578 83.983 C 108.097 84.616,107.960 84.644,107.552 86.075 C 107.243 87.161,107.020 87.317,105.652 87.409 C 103.018 87.586,102.357 87.862,100.506 89.564 C 98.428 91.473,89.072 102.588,83.330 109.967 C 79.615 114.743,79.261 115.082,77.501 115.553 C 75.987 115.958,75.097 116.601,72.872 118.900 C 70.696 121.148,69.563 121.977,67.480 122.846 C 65.099 123.839,64.844 124.053,64.844 125.059 C 64.844 126.513,66.742 126.578,70.008 125.234 C 72.789 124.091,72.438 124.911,69.075 127.415 C 67.929 128.268,66.565 129.330,66.044 129.775 L 65.095 130.585 66.221 131.553 C 69.822 134.650,80.742 129.633,82.782 123.943 L 83.666 121.479 94.271 112.400 C 100.104 107.406,105.271 103.002,105.754 102.612 C 106.596 101.932,106.993 101.929,115.523 102.538 C 128.361 103.453,127.881 103.306,123.511 104.979 C 119.237 106.616,119.171 106.705,117.017 113.813 C 113.359 125.881,109.566 152.033,111.523 151.689 C 111.738 151.651,112.178 151.518,112.500 151.393 C 113.007 151.195,113.092 152.149,113.129 158.492 C 113.191 169.303,115.156 181.830,118.573 193.211 L 119.526 196.384 121.091 196.634 C 122.314 196.830,122.656 197.055,122.656 197.668 C 122.656 198.834,125.198 206.479,127.171 211.247 C 129.272 216.323,129.269 216.255,127.394 216.506 C 122.761 217.128,116.886 221.325,103.533 233.552 C 96.066 240.390,93.022 241.266,86.983 238.318 C 84.158 236.938,82.260 236.845,80.909 238.018 C 80.559 238.322,80.078 238.498,79.840 238.411 C 79.213 238.182,78.043 240.143,78.308 240.978 C 78.599 241.895,78.182 242.969,77.535 242.969 C 76.903 242.969,76.070 245.203,76.584 245.521 C 77.138 245.864,76.140 247.523,73.441 250.745 C 72.112 252.332,70.836 254.044,70.606 254.549 C 70.376 255.055,69.947 255.469,69.654 255.469 C 68.917 255.469,68.200 257.457,68.666 258.209 C 69.161 259.009,68.782 261.340,68.115 261.596 C 67.495 261.834,67.378 264.283,67.969 264.648 C 68.184 264.781,68.359 265.907,68.359 267.150 C 68.359 271.846,72.110 272.528,74.518 268.271 C 79.563 259.348,89.638 253.414,115.783 243.965 C 132.904 237.777,139.080 235.112,138.797 234.032 C 138.650 233.466,139.399 232.884,142.424 231.210 C 152.181 225.815,152.741 223.615,150.543 199.351 C 150.288 196.538,150.291 196.524,151.315 196.267 C 152.551 195.957,152.546 196.879,151.369 186.914 C 150.837 182.402,150.399 178.581,150.396 178.423 C 150.393 178.264,149.028 177.438,147.363 176.587 L 144.336 175.039 164.746 175.020 C 184.682 175.000,185.156 174.982,185.156 174.242 C 185.156 173.078,184.921 173.092,199.263 173.439 C 214.078 173.799,213.528 173.709,218.160 176.503 C 222.559 179.156,224.478 179.432,239.063 179.509 C 257.087 179.604,262.258 180.386,262.702 183.088 C 263.863 190.153,264.275 190.714,268.393 190.832 C 271.480 190.920,272.849 190.518,272.506 189.624 C 272.390 189.322,272.626 188.897,273.030 188.681 C 273.547 188.404,273.809 188.421,273.915 188.737 C 274.161 189.474,276.164 188.743,276.531 187.782 C 276.945 186.698,288.773 181.117,289.376 181.720 C 289.897 182.241,292.188 181.017,292.188 180.218 C 292.188 179.778,292.428 179.659,293.011 179.812 C 294.193 180.121,295.661 179.455,296.065 178.425 C 296.256 177.938,296.777 177.236,297.221 176.867 C 298.195 176.057,297.886 174.815,296.444 173.741 C 295.667 173.162,294.178 172.978,287.695 172.658 C 270.755 171.820,262.027 169.625,242.820 161.370 C 230.377 156.022,225.976 154.430,225.266 155.020 C 224.877 155.342,224.040 155.307,222.038 154.883 C 220.552 154.568,217.888 154.307,216.118 154.304 C 213.332 154.298,212.451 154.111,209.564 152.916 C 205.686 151.311,198.314 149.238,192.878 148.224 C 189.208 147.540,189.063 147.474,188.676 146.300 L 188.274 145.085 175.094 143.252 C 167.845 142.245,159.541 141.129,156.641 140.774 C 153.740 140.419,151.317 140.088,151.257 140.038 C 149.872 138.908,161.808 105.565,163.423 106.051 C 163.667 106.125,165.576 106.291,167.664 106.420 L 171.460 106.655 173.365 102.644 C 174.695 99.844,175.761 98.184,176.898 97.147 L 178.527 95.661 178.271 91.453 C 178.034 87.544,178.091 87.018,179.077 84.059 C 181.906 75.562,170.898 66.168,160.258 67.999 M312.695 134.923 C 298.261 139.500,296.411 159.190,309.774 166.021 C 320.091 171.296,332.069 165.158,334.054 153.579 C 336.067 141.842,324.030 131.328,312.695 134.923 " stroke="none" fill="#fbfbfb" fill-rule="evenodd"></path><path id="path1" d="M47.656 169.336 L 47.656 291.016 199.609 291.016 L 351.563 291.016 351.563 169.336 L 351.563 47.656 199.609 47.656 L 47.656 47.656 47.656 169.336 M167.214 68.201 C 176.307 70.872,181.679 77.941,179.266 84.062 C 178.441 86.155,178.220 88.771,178.488 93.272 L 178.633 95.724 176.910 97.375 C 175.685 98.549,174.682 100.141,173.436 102.887 L 171.685 106.749 167.338 106.501 L 162.992 106.252 160.815 111.232 C 155.179 124.122,150.558 138.982,151.923 139.825 C 152.164 139.974,154.247 140.312,156.551 140.576 C 162.030 141.203,188.365 144.861,188.446 145.006 C 188.480 145.067,188.677 145.633,188.883 146.263 C 189.234 147.334,189.460 147.442,192.383 147.933 C 197.128 148.731,203.722 150.543,208.448 152.349 C 212.260 153.805,213.196 154.003,217.578 154.281 C 220.264 154.452,222.931 154.779,223.505 155.009 C 224.313 155.332,224.650 155.304,224.998 154.885 C 225.624 154.130,230.404 155.838,244.130 161.721 C 262.133 169.437,271.975 171.845,288.086 172.477 C 295.075 172.751,296.534 173.054,297.429 174.420 C 298.286 175.729,298.204 176.382,297.070 177.274 C 296.533 177.696,296.094 178.318,296.094 178.656 C 296.094 179.499,294.659 180.195,293.512 179.907 C 292.758 179.718,292.493 179.860,292.210 180.606 C 291.852 181.547,290.161 182.273,289.409 181.809 C 288.727 181.387,276.656 187.098,276.710 187.817 C 276.778 188.715,274.740 189.657,274.020 189.060 C 273.386 188.534,272.656 188.856,272.656 189.662 C 272.656 190.494,270.836 191.548,270.023 191.188 C 269.645 191.021,268.531 190.928,267.548 190.981 C 264.945 191.122,263.535 189.448,262.916 185.482 C 262.670 183.906,262.327 182.354,262.153 182.031 C 261.441 180.709,254.901 180.040,239.453 179.706 C 222.756 179.346,222.712 179.339,217.128 176.116 L 213.502 174.023 204.505 173.766 C 199.557 173.625,193.270 173.493,190.535 173.473 L 185.562 173.438 185.301 174.476 L 185.041 175.514 164.884 175.288 L 144.727 175.062 147.656 176.550 L 150.586 178.037 151.582 187.091 L 152.579 196.144 151.476 196.365 C 150.495 196.561,150.395 196.719,150.560 197.804 C 151.318 202.788,152.007 219.526,151.553 221.952 C 150.852 225.707,148.133 228.405,141.522 231.908 C 139.187 233.145,138.742 233.534,138.907 234.195 C 139.164 235.225,132.715 238.017,116.364 243.954 C 89.485 253.713,80.923 258.639,75.109 267.690 C 73.001 270.970,72.875 271.080,71.174 271.088 C 69.102 271.097,67.969 269.663,67.969 267.033 C 67.969 265.854,67.793 264.781,67.578 264.648 C 66.953 264.262,67.127 262.433,67.866 261.617 C 68.348 261.084,68.547 260.189,68.555 258.523 C 68.563 256.735,68.730 256.059,69.261 255.671 C 69.644 255.391,70.608 254.279,71.404 253.199 C 72.200 252.119,73.680 250.156,74.693 248.837 C 76.202 246.870,76.493 246.235,76.309 245.315 C 76.133 244.433,76.316 243.961,77.162 243.115 C 77.891 242.386,78.229 241.655,78.206 240.854 C 78.110 237.482,82.960 236.113,87.347 238.273 C 93.410 241.258,95.849 240.340,105.727 231.360 C 116.349 221.703,121.213 218.200,126.191 216.621 L 128.850 215.778 128.077 214.053 C 126.755 211.100,123.580 202.275,122.857 199.546 C 122.203 197.077,122.100 196.931,120.832 196.693 C 119.334 196.412,119.251 196.259,117.739 191.051 C 114.801 180.923,112.788 166.703,112.968 157.349 L 113.086 151.276 112.205 151.678 C 110.916 152.267,110.784 151.907,110.866 148.047 C 111.090 137.545,115.314 116.345,118.815 108.150 C 119.560 106.407,119.716 106.290,122.978 105.025 L 126.367 103.711 123.242 103.412 C 121.523 103.247,117.041 102.876,113.281 102.587 L 106.445 102.061 103.516 104.666 C 101.904 106.098,96.895 110.413,92.383 114.255 C 83.063 122.189,83.805 121.412,82.924 124.163 C 81.203 129.531,70.318 134.563,66.226 131.882 C 64.709 130.888,64.995 130.286,68.066 128.011 C 71.958 125.128,72.585 124.333,70.139 125.381 C 67.452 126.533,65.506 126.774,64.890 126.033 C 63.922 124.866,64.583 124.056,67.801 122.461 C 70.125 121.309,71.614 120.213,73.465 118.292 C 75.346 116.339,76.390 115.576,77.623 115.253 C 79.124 114.859,79.738 114.232,84.624 108.094 C 99.270 89.697,101.178 87.768,105.316 87.179 C 106.875 86.957,107.249 86.751,107.348 86.060 C 107.414 85.594,107.678 85.041,107.934 84.831 C 109.662 83.409,137.815 83.262,144.172 84.641 L 147.523 85.368 148.110 81.640 C 149.761 71.159,157.868 65.456,167.214 68.201 M320.782 134.420 C 335.230 137.459,339.287 155.957,327.447 164.810 C 319.139 171.021,306.389 167.743,302.046 158.278 C 296.292 145.742,307.395 131.604,320.782 134.420 " stroke="none" fill="#d40414" fill-rule="evenodd"></path><path id="path2" d="M223.572 318.350 C 218.314 319.472,215.621 322.943,215.627 328.591 C 215.634 334.733,217.564 336.486,226.284 338.269 C 231.399 339.315,232.422 339.960,232.422 342.140 C 232.422 345.046,225.826 346.182,219.280 344.402 C 215.852 343.471,216.016 343.338,216.016 347.059 L 216.016 350.369 218.066 350.958 C 231.180 354.723,240.380 350.867,240.387 341.602 C 240.393 335.232,239.053 333.883,230.856 332.001 C 223.944 330.415,223.285 329.950,223.987 327.153 C 224.664 324.458,232.330 324.047,238.379 326.382 C 238.999 326.621,239.063 326.319,239.063 323.140 L 239.063 319.634 236.621 318.943 C 233.847 318.157,226.122 317.807,223.572 318.350 M298.047 318.474 C 290.655 320.172,287.545 324.483,287.198 333.512 C 286.804 343.795,289.536 349.024,296.447 351.212 C 300.546 352.510,310.354 352.266,314.296 350.767 L 315.234 350.410 315.234 341.416 L 315.234 332.422 308.789 332.422 L 302.344 332.422 302.344 335.352 L 302.344 338.281 305.273 338.281 L 308.203 338.281 308.203 341.747 L 308.203 345.212 306.250 345.471 C 297.911 346.577,293.940 340.683,296.133 330.457 C 297.331 324.871,305.476 323.030,314.160 326.382 C 314.971 326.695,315.222 320.202,314.418 319.705 C 312.225 318.350,301.953 317.578,298.047 318.474 M47.656 335.179 L 47.656 351.608 58.313 351.488 C 68.860 351.368,68.989 351.357,70.910 350.370 C 76.692 347.398,76.235 336.478,70.280 335.287 C 68.785 334.987,68.841 334.640,70.481 334.047 C 76.467 331.883,75.617 320.932,69.327 319.186 C 68.380 318.923,63.848 318.754,57.715 318.752 L 47.656 318.750 47.656 335.179 M79.790 331.348 C 79.978 344.911,80.096 345.771,82.100 348.202 C 85.801 352.693,98.882 353.630,104.575 349.813 C 108.302 347.314,108.594 345.949,108.594 330.993 L 108.594 318.750 104.297 318.750 L 100.000 318.750 100.000 330.577 C 100.000 344.846,99.801 345.356,94.251 345.290 C 88.487 345.222,88.283 344.706,88.282 330.176 L 88.281 318.750 83.948 318.750 L 79.615 318.750 79.790 331.348 M115.234 335.156 L 115.234 351.563 119.135 351.563 L 123.035 351.563 123.139 340.272 L 123.242 328.981 129.872 340.272 L 136.501 351.563 141.688 351.563 L 146.875 351.563 146.875 335.156 L 146.875 318.750 142.779 318.750 L 138.684 318.750 138.580 329.836 L 138.477 340.922 132.031 329.850 L 125.586 318.779 120.410 318.764 L 115.234 318.750 115.234 335.156 M153.125 335.167 L 153.125 351.630 163.184 351.469 C 179.337 351.210,181.880 349.245,182.329 336.669 C 182.876 321.340,180.437 319.020,163.574 318.824 L 153.125 318.703 153.125 335.167 M187.891 335.156 L 187.891 351.563 199.805 351.563 L 211.719 351.563 211.719 348.242 L 211.719 344.922 204.102 344.922 L 196.484 344.922 196.484 341.602 L 196.484 338.281 202.734 338.281 L 208.984 338.281 208.984 334.961 L 208.984 331.641 202.734 331.641 L 196.484 331.641 196.484 328.320 L 196.484 325.000 203.906 325.000 L 211.328 325.000 211.328 321.875 L 211.328 318.750 199.609 318.750 L 187.891 318.750 187.891 335.156 M245.703 335.156 L 245.703 351.563 257.031 351.563 L 268.359 351.563 268.359 348.242 L 268.359 344.922 261.328 344.922 L 254.297 344.922 254.297 331.836 L 254.297 318.750 250.000 318.750 L 245.703 318.750 245.703 335.156 M273.047 335.156 L 273.047 351.563 277.344 351.563 L 281.641 351.563 281.641 335.156 L 281.641 318.750 277.344 318.750 L 273.047 318.750 273.047 335.156 M324.219 334.633 C 321.104 343.361,318.498 350.741,318.428 351.032 C 318.328 351.454,319.179 351.563,322.603 351.563 L 326.905 351.563 327.986 348.242 L 329.067 344.922 335.352 344.922 L 341.636 344.922 342.717 348.242 L 343.798 351.563 348.071 351.563 C 350.421 351.563,352.344 351.443,352.344 351.297 C 352.344 351.151,349.759 343.769,346.601 334.891 L 340.858 318.750 335.370 318.757 L 329.883 318.764 324.219 334.633 M65.057 325.568 C 66.314 326.826,66.388 329.500,65.206 331.002 C 64.420 332.002,64.274 332.031,60.128 332.031 L 55.859 332.031 55.859 328.320 L 55.859 324.609 59.979 324.609 C 63.831 324.609,64.160 324.671,65.057 325.568 M171.045 326.060 C 173.113 327.569,173.633 329.364,173.627 334.961 C 173.617 343.507,172.455 344.922,165.442 344.922 L 161.719 344.922 161.719 334.905 L 161.719 324.888 165.869 325.100 C 169.108 325.265,170.245 325.476,171.045 326.060 M337.476 331.211 C 338.563 334.627,339.453 337.615,339.453 337.852 C 339.453 338.137,338.074 338.281,335.352 338.281 C 333.096 338.281,331.250 338.163,331.250 338.019 C 331.250 337.637,335.273 325.000,335.395 325.000 C 335.452 325.000,336.388 327.795,337.476 331.211 M64.634 338.055 C 66.943 339.019,67.374 343.323,65.324 344.935 C 64.490 345.592,63.731 345.703,60.104 345.703 L 55.859 345.703 55.859 341.602 L 55.859 337.500 59.583 337.500 C 61.916 337.500,63.802 337.707,64.634 338.055 " stroke="none" fill="#1c1c14" fill-rule="evenodd"></path><path id="path3" d="M316.895 134.254 C 317.271 134.352,317.886 134.352,318.262 134.254 C 318.638 134.155,318.330 134.075,317.578 134.075 C 316.826 134.075,316.519 134.155,316.895 134.254 M300.497 151.172 C 300.497 152.139,300.573 152.534,300.666 152.051 C 300.759 151.567,300.759 150.776,300.666 150.293 C 300.573 149.810,300.497 150.205,300.497 151.172 M187.793 173.323 C 188.276 173.416,189.067 173.416,189.551 173.323 C 190.034 173.229,189.639 173.153,188.672 173.153 C 187.705 173.153,187.310 173.229,187.793 173.323 M204.987 173.721 C 205.690 173.808,206.744 173.806,207.331 173.717 C 207.918 173.627,207.344 173.556,206.055 173.559 C 204.766 173.561,204.285 173.634,204.987 173.721 M177.458 175.290 C 178.917 175.365,181.202 175.365,182.536 175.289 C 183.870 175.213,182.676 175.151,179.883 175.152 C 177.090 175.152,175.999 175.215,177.458 175.290 M241.324 179.586 C 242.675 179.663,244.784 179.662,246.011 179.585 C 247.238 179.508,246.133 179.445,243.555 179.446 C 240.977 179.447,239.973 179.510,241.324 179.586 M151.263 210.938 C 151.263 211.689,151.343 211.997,151.441 211.621 C 151.539 211.245,151.539 210.630,151.441 210.254 C 151.343 209.878,151.263 210.186,151.263 210.938 M68.067 266.992 C 68.072 267.852,68.152 268.157,68.245 267.671 C 68.338 267.185,68.335 266.482,68.237 266.109 C 68.139 265.735,68.063 266.133,68.067 266.992 " stroke="none" fill="#ec848c" fill-rule="evenodd"></path><path id="path4" d="M147.747 84.375 C 147.747 85.127,147.827 85.435,147.926 85.059 C 148.024 84.683,148.024 84.067,147.926 83.691 C 147.827 83.315,147.747 83.623,147.747 84.375 M285.254 172.535 C 285.630 172.633,286.245 172.633,286.621 172.535 C 286.997 172.437,286.689 172.356,285.938 172.356 C 285.186 172.356,284.878 172.437,285.254 172.535 M199.522 173.724 C 200.441 173.807,201.847 173.805,202.647 173.721 C 203.447 173.638,202.695 173.570,200.977 173.571 C 199.258 173.573,198.603 173.642,199.522 173.724 M160.840 175.292 C 163.472 175.359,167.778 175.359,170.410 175.292 C 173.042 175.224,170.889 175.169,165.625 175.169 C 160.361 175.169,158.208 175.224,160.840 175.292 M151.680 218.750 C 151.680 219.932,151.753 220.415,151.842 219.824 C 151.932 219.233,151.932 218.267,151.842 217.676 C 151.753 217.085,151.680 217.568,151.680 218.750 " stroke="none" fill="#e4747c" fill-rule="evenodd"></path></g></svg>