<svg xmlns="http://www.w3.org/2000/svg" width="400" height="400"><path d="M189.063 97.276c-10.373 1.842-19.932 5.893-28.081 11.9l-2.496 1.839 5.224 5.235c6.109 6.12 5.028 5.736 8.817 3.134 44.331-30.439 98.535 24.359 68.537 69.288l-1.956 2.93 5.423 5.443 5.422 5.444.81-.952c11.368-13.346 16.709-34.971 13.09-52.996-6.886-34.299-40.518-57.352-74.79-51.265m-40.63 24.259c-37.004 46.779 6.347 115.082 65.171 102.683 9.437-1.989 27.412-10.654 27.412-13.215 0-.149-2.343-2.61-5.206-5.467l-5.206-5.195-3.095 2.125c-23.534 16.16-55.514 8.709-70.174-16.35-9.469-16.185-8.876-37.357 1.476-52.767a484.914 484.914 0 0 0 1.944-2.907c.077-.121-2.29-2.647-5.261-5.613l-5.402-5.391-1.659 2.097m46.88 1.905c-32.101 4.382-45.013 42.212-22.015 64.495 12.833 12.433 32.293 14.378 47.542 4.752l1.533-.968-5.181-5.191-5.18-5.191-2.427 1.135c-23.291 10.899-43.951-20.025-25.632-38.367 12.264-12.28 33.203-6.949 38.106 9.704l.259.879h-18.581c-10.219 0-18.579.131-18.577.292.003.162 2.706 2.974 6.008 6.25l6.003 5.958h40.657l.28-2.608c2.54-23.718-18.968-44.393-42.795-41.14m-23.959 120.57c-.143.144-.26 4.893-.26 10.555v10.295l-1.551-.791c-13.403-6.838-29.022 3.031-29.046 18.353-.025 16.175 14.661 25.295 29.913 18.577.53-.234.684-.116.684.522 0 .8.161.823 5.859.823h5.86V243.75h-5.599c-3.08 0-5.717.117-5.86.26m116.838 18.337c-7.729 1.659-11.627 5.84-11.617 12.458.011 7.457 3.17 10.22 14.091 12.324 8.462 1.631 10.562 2.764 9.344 5.04-2.188 4.088-11.969 2.722-13.831-1.933l-.626-1.564H274.9l.249 1.558c1.365 8.535 6.998 12.846 17.234 13.189 12.253.411 19.13-4.323 19.13-13.168 0-7.339-3.656-10.325-15.039-12.283-5.844-1.005-7.774-1.801-8.353-3.447-1.68-4.776 9.65-5.314 12.009-.57l.716 1.44h10.551l-.265-1.661c-1.42-8.914-11.393-13.863-22.94-11.383m-250.653.562c-22.894 5.996-17.122 40.793 6.734 40.593 8.865-.074 19.008-6.725 19.008-12.462 0-.905-11.888-.525-12.731.406-3.317 3.665-11.422 2.547-14.291-1.972-.607-.955-1.103-1.878-1.103-2.05 0-.173 6.416-.315 14.258-.315h14.258l-.006-4.004c-.022-15.357-11.303-24.078-26.127-20.196m51.68-.219c-2.327.506-4.929 1.671-7.481 3.349l-1.269.835v-3.983H68.75v39.453H80.469V291.66c0-15.253.85-16.762 10.101-17.93l3.571-.45v-11.171l-1.27.031c-.698.018-2.341.265-3.652.55m20.559.226c-16.624 4.352-19.889 28.258-5.09 37.27 10.215 6.22 24.888 3.071 29.651-6.364 1.7-3.369 1.949-3.197-4.612-3.197h-5.82l-1.997 1.344c-4.97 3.344-12.275 1.212-14.313-4.176-.243-.643.584-.684 14.041-.684h14.3l-.007-3.808c-.028-15.568-11.223-24.294-26.153-20.385m241.5-.245c-12.69 3.075-18.809 17.635-12.701 30.223 6.434 13.259 30.195 13.989 36.606 1.125 1.73-3.473 1.842-3.394-4.817-3.394h-5.805l-1.474 1.171c-3.909 3.107-10.481 2.122-13.481-2.019-2.039-2.815-2.747-2.668 12.852-2.668 16.015 0 14.497.423 14.492-4.035-.016-15.012-11.209-23.908-25.672-20.403m-159.481 19.946v19.727H203.516v-39.453H191.797v19.726m15.983-18.847c.32.83 2.292 5.412 12.355 28.71l4.26 9.864 5.283-.002 5.283-.002 8.363-19.432c4.599-10.687 8.433-19.563 8.519-19.724.086-.162-2.671-.293-6.126-.293h-6.283l-.395 1.039c-2.23 5.863-9.117 22.398-9.33 22.398-.151 0-1.477-2.944-2.946-6.543a6001.905 6001.905 0 0 0-4.8-11.719l-2.13-5.175h-12.392l.339.879m48.861 18.847v19.727h11.718v-39.453h-11.718v19.726m62.109 0v19.727h11.328v-39.453H318.75v19.726m-270.249-9.605c1.675 1.147 2.963 2.958 3.299 4.639l.251 1.255H34.713l.266-.879c1.607-5.306 9.063-8.071 13.522-5.015m71.714-.308c1.865.903 3.448 2.933 3.849 4.939l.252 1.263h-17.295l.58-1.39c2.059-4.927 7.83-7.128 12.614-4.812m46.34.153c.787.329 2.13 1.23 2.985 2.002l1.554 1.404v12.7l-1.728 1.593c-6.632 6.113-17.109 1.388-17.147-7.734-.033-7.827 7.283-12.912 14.336-9.965m193.901-.377c1.931.806 3.167 1.996 4.04 3.887 1.229 2.664 1.615 2.539-7.855 2.539-5.689 0-8.594-.137-8.594-.406 0-4.394 7.543-8.054 12.409-6.02" fill="#042c64" fill-rule="evenodd"/></svg>