<svg id="svg" version="1.1" xmlns="http://www.w3.org/2000/svg" xmlns:xlink="http://www.w3.org/1999/xlink" width="400" height="400" viewBox="0, 0, 400,400"><g id="svgg"><path id="path0" d="M189.063 97.276 C 178.690 99.118,169.131 103.169,160.982 109.176 L 158.486 111.015 163.710 116.250 C 169.819 122.370,168.738 121.986,172.527 119.384 C 216.858 88.945,271.062 143.743,241.064 188.672 L 239.108 191.602 244.531 197.045 L 249.953 202.489 250.763 201.537 C 262.131 188.191,267.472 166.566,263.853 148.541 C 256.967 114.242,223.335 91.189,189.063 97.276 M148.433 121.535 C 111.429 168.314,154.780 236.617,213.604 224.218 C 223.041 222.229,241.016 213.564,241.016 211.003 C 241.016 210.854,238.673 208.393,235.810 205.536 L 230.604 200.341 227.509 202.466 C 203.975 218.626,171.995 211.175,157.335 186.116 C 147.866 169.931,148.459 148.759,158.811 133.349 C 159.803 131.872,160.678 130.564,160.755 130.442 C 160.832 130.321,158.465 127.795,155.494 124.829 L 150.092 119.438 148.433 121.535 M195.313 123.440 C 163.212 127.822,150.300 165.652,173.298 187.935 C 186.131 200.368,205.591 202.313,220.840 192.687 L 222.373 191.719 217.192 186.528 L 212.012 181.337 209.585 182.472 C 186.294 193.371,165.634 162.447,183.953 144.105 C 196.217 131.825,217.156 137.156,222.059 153.809 L 222.318 154.688 203.737 154.688 C 193.518 154.688,185.158 154.819,185.160 154.980 C 185.163 155.142,187.866 157.954,191.168 161.230 L 197.171 167.188 217.500 167.188 L 237.828 167.188 238.108 164.580 C 240.648 140.862,219.140 120.187,195.313 123.440 M171.354 244.010 C 171.211 244.154,171.094 248.903,171.094 254.565 L 171.094 264.860 169.543 264.069 C 156.140 257.231,140.521 267.100,140.497 282.422 C 140.472 298.597,155.158 307.717,170.410 300.999 C 170.940 300.765,171.094 300.883,171.094 301.521 C 171.094 302.321,171.255 302.344,176.953 302.344 L 182.813 302.344 182.813 273.047 L 182.813 243.750 177.214 243.750 C 174.134 243.750,171.497 243.867,171.354 244.010 M288.192 262.347 C 280.463 264.006,276.565 268.187,276.575 274.805 C 276.586 282.262,279.745 285.025,290.666 287.129 C 299.128 288.760,301.228 289.893,300.010 292.169 C 297.822 296.257,288.041 294.891,286.179 290.236 L 285.553 288.672 280.227 288.672 L 274.900 288.672 275.149 290.230 C 276.514 298.765,282.147 303.076,292.383 303.419 C 304.636 303.830,311.513 299.096,311.513 290.251 C 311.513 282.912,307.857 279.926,296.474 277.968 C 290.630 276.963,288.700 276.167,288.121 274.521 C 286.441 269.745,297.771 269.207,300.130 273.951 L 300.846 275.391 306.121 275.391 L 311.397 275.391 311.132 273.730 C 309.712 264.816,299.739 259.867,288.192 262.347 M37.539 262.909 C 14.645 268.905,20.417 303.702,44.273 303.502 C 53.138 303.428,63.281 296.777,63.281 291.040 C 63.281 290.135,51.393 290.515,50.550 291.446 C 47.233 295.111,39.128 293.993,36.259 289.474 C 35.652 288.519,35.156 287.596,35.156 287.424 C 35.156 287.251,41.572 287.109,49.414 287.109 L 63.672 287.109 63.666 283.105 C 63.644 267.748,52.363 259.027,37.539 262.909 M89.219 262.690 C 86.892 263.196,84.290 264.361,81.738 266.039 L 80.469 266.874 80.469 264.882 L 80.469 262.891 74.609 262.891 L 68.750 262.891 68.750 282.617 L 68.750 302.344 74.609 302.344 L 80.469 302.344 80.469 291.660 C 80.469 276.407,81.319 274.898,90.570 273.730 L 94.141 273.280 94.141 267.695 L 94.141 262.109 92.871 262.140 C 92.173 262.158,90.530 262.405,89.219 262.690 M109.778 262.916 C 93.154 267.268,89.889 291.174,104.688 300.186 C 114.903 306.406,129.576 303.257,134.339 293.822 C 136.039 290.453,136.288 290.625,129.727 290.625 L 123.907 290.625 121.910 291.969 C 116.940 295.313,109.635 293.181,107.597 287.793 C 107.354 287.150,108.181 287.109,121.638 287.109 L 135.938 287.109 135.931 283.301 C 135.903 267.733,124.708 259.007,109.778 262.916 M351.278 262.671 C 338.588 265.746,332.469 280.306,338.577 292.894 C 345.011 306.153,368.772 306.883,375.183 294.019 C 376.913 290.546,377.025 290.625,370.366 290.625 L 364.561 290.625 363.087 291.796 C 359.178 294.903,352.606 293.918,349.606 289.777 C 347.567 286.962,346.859 287.109,362.458 287.109 C 378.473 287.109,376.955 287.532,376.950 283.074 C 376.934 268.062,365.741 259.166,351.278 262.671 M191.797 282.617 L 191.797 302.344 197.656 302.344 L 203.516 302.344 203.516 282.617 L 203.516 262.891 197.656 262.891 L 191.797 262.891 191.797 282.617 M207.780 263.770 C 208.100 264.600,210.072 269.182,220.135 292.480 L 224.395 302.344 229.678 302.342 L 234.961 302.340 243.324 282.908 C 247.923 272.221,251.757 263.345,251.843 263.184 C 251.929 263.022,249.172 262.891,245.717 262.891 L 239.434 262.891 239.039 263.930 C 236.809 269.793,229.922 286.328,229.709 286.328 C 229.558 286.328,228.232 283.384,226.763 279.785 C 225.294 276.187,223.134 270.913,221.963 268.066 L 219.833 262.891 213.637 262.891 L 207.441 262.891 207.780 263.770 M256.641 282.617 L 256.641 302.344 262.500 302.344 L 268.359 302.344 268.359 282.617 L 268.359 262.891 262.500 262.891 L 256.641 262.891 256.641 282.617 M318.750 282.617 L 318.750 302.344 324.414 302.344 L 330.078 302.344 330.078 282.617 L 330.078 262.891 324.414 262.891 L 318.750 262.891 318.750 282.617 M48.501 273.012 C 50.176 274.159,51.464 275.970,51.800 277.651 L 52.051 278.906 43.382 278.906 L 34.713 278.906 34.979 278.027 C 36.586 272.721,44.042 269.956,48.501 273.012 M120.215 272.704 C 122.080 273.607,123.663 275.637,124.064 277.643 L 124.316 278.906 115.669 278.906 L 107.021 278.906 107.601 277.516 C 109.660 272.589,115.431 270.388,120.215 272.704 M166.555 272.857 C 167.342 273.186,168.685 274.087,169.540 274.859 L 171.094 276.263 171.094 282.613 L 171.094 288.963 169.366 290.556 C 162.734 296.669,152.257 291.944,152.219 282.822 C 152.186 274.995,159.502 269.910,166.555 272.857 M360.456 272.480 C 362.387 273.286,363.623 274.476,364.496 276.367 C 365.725 279.031,366.111 278.906,356.641 278.906 C 350.952 278.906,348.047 278.769,348.047 278.500 C 348.047 274.106,355.590 270.446,360.456 272.480 " stroke="none" fill="#042c64" fill-rule="evenodd"></path><path id="path1" d="" stroke="none" fill="#082c64" fill-rule="evenodd"></path><path id="path2" d="" stroke="none" fill="#082c64" fill-rule="evenodd"></path><path id="path3" d="" stroke="none" fill="#082c64" fill-rule="evenodd"></path><path id="path4" d="" stroke="none" fill="#082c64" fill-rule="evenodd"></path></g></svg>