<svg xmlns="http://www.w3.org/2000/svg" xmlns:xlink="http://www.w3.org/1999/xlink" width="1080" zoomAndPan="magnify" viewBox="0 0 810 809.999993" height="1080" preserveAspectRatio="xMidYMid meet" version="1.0"><path fill="#ffffff" d="M 404.882812 806.914062 L 423.382812 793.300781 C 448.304688 775.121094 472.039062 755.503906 494.585938 734.449219 C 533.667969 730.296875 572.222656 723.257812 610.246094 713.328125 C 648.273438 703.402344 685.347656 690.695312 721.46875 675.210938 L 729.414062 671.773438 L 690.664062 584.101562 L 707.664062 584.632812 L 743.167969 549.710938 L 725.683594 530.820312 L 749.902344 495.023438 L 727.8125 482.382812 L 752.03125 434.523438 L 698.75 422.367188 L 685.671875 429.4375 C 690.648438 411.628906 694.429688 393.570312 697.027344 375.265625 C 699.621094 356.957031 701.003906 338.558594 701.171875 320.066406 L 701.171875 153.734375 L 581 121.570312 L 566.90625 99.09375 C 574.464844 93.625 581.40625 87.457031 587.726562 80.59375 C 594.046875 73.726562 599.617188 66.300781 604.445312 58.3125 L 614.132812 42.035156 L 598.195312 45.039062 C 603.816406 36.71875 608.660156 27.96875 612.726562 18.785156 L 619.363281 2.851562 L 602.507812 7.355469 L 575.234375 14.570312 C 560.648438 18.164062 545.84375 19.957031 530.820312 19.949219 C 521.816406 19.828125 512.953125 18.667969 504.226562 16.460938 C 486.691406 12.539062 462.570312 7.695312 404.882812 7.695312 C 347.191406 7.695312 323.070312 12.539062 305.4375 16.460938 C 296.710938 18.667969 287.847656 19.828125 278.847656 19.949219 C 263.851562 19.902344 249.078125 18.058594 234.527344 14.425781 L 207.257812 7.210938 L 190.398438 2.851562 L 197.132812 18.929688 C 201.199219 28.113281 206.042969 36.863281 211.664062 45.183594 L 195.726562 42.179688 L 205.414062 58.457031 C 210.242188 66.445312 215.8125 73.871094 222.132812 80.738281 C 228.453125 87.605469 235.394531 93.773438 242.953125 99.242188 L 228.859375 121.714844 L 108.492188 153.734375 L 108.492188 320.019531 C 108.65625 338.507812 110.03125 356.90625 112.617188 375.214844 C 115.203125 393.519531 118.976562 411.582031 123.945312 429.390625 L 110.867188 422.320312 L 57.585938 434.476562 L 81.804688 482.332031 L 59.910156 495.070312 L 84.128906 530.867188 L 66.640625 549.757812 L 102.148438 584.679688 L 119.101562 584.101562 L 80.351562 671.867188 L 88.292969 675.308594 C 124.414062 690.792969 161.488281 703.496094 199.515625 713.425781 C 237.542969 723.355469 276.09375 730.394531 315.175781 734.546875 C 337.722656 755.597656 361.457031 775.214844 386.378906 793.398438 Z M 404.882812 806.914062 " fill-opacity="1" fill-rule="nonzero"/><path fill="#000000" d="M 737.550781 497.882812 L 714.640625 531.789062 L 731.109375 549.5625 L 704.175781 576.058594 L 640.238281 574.21875 L 680.878906 583.617188 L 718.175781 667.605469 C 681.988281 683.109375 644.835938 695.800781 606.722656 705.671875 C 568.613281 715.546875 529.972656 722.492188 490.808594 726.507812 C 467.855469 748.074219 443.636719 768.109375 418.152344 786.617188 L 404.6875 796.304688 L 391.222656 786.617188 C 365.734375 768.09375 341.515625 748.042969 318.566406 726.457031 C 279.425781 722.460938 240.808594 715.527344 202.71875 705.660156 C 164.632812 695.796875 127.507812 683.113281 91.34375 667.605469 L 128.789062 583.519531 L 169.476562 574.121094 L 105.539062 575.960938 L 78.558594 549.46875 L 95.027344 531.691406 L 72.117188 497.785156 L 92.992188 485.578125 L 70.664062 440.386719 L 109.945312 431.375 L 138.183594 446.632812 C 131.546875 426.175781 126.480469 405.335938 122.980469 384.113281 C 119.480469 362.890625 117.589844 341.527344 117.308594 320.019531 L 117.308594 160.175781 L 234.140625 128.789062 L 254.726562 96.09375 C 230.507812 84.855469 212.488281 53.953125 212.488281 53.953125 L 235.253906 58.214844 C 217.960938 46.394531 204.980469 15.492188 204.980469 15.492188 L 232.203125 22.710938 C 247.546875 26.542969 263.128906 28.480469 278.945312 28.523438 C 288.550781 28.410156 298.011719 27.183594 307.328125 24.839844 C 324.570312 21.207031 348.210938 16.171875 404.976562 16.171875 C 461.746094 16.171875 485.382812 21.015625 502.628906 24.839844 C 511.945312 27.183594 521.40625 28.410156 531.011719 28.523438 C 546.761719 28.464844 562.28125 26.527344 577.5625 22.710938 L 604.78125 15.492188 C 604.78125 15.492188 591.703125 46.445312 574.414062 58.214844 L 597.179688 53.953125 C 597.179688 53.953125 578.964844 84.855469 554.941406 96.09375 L 575.625 128.789062 L 692.695312 160.125 L 692.695312 319.96875 C 692.414062 341.492188 690.519531 362.875 687.019531 384.109375 C 683.523438 405.347656 678.457031 426.207031 671.820312 446.683594 L 700.15625 431.328125 L 739.488281 440.335938 L 716.722656 485.625 Z M 737.550781 497.882812 " fill-opacity="1" fill-rule="nonzero"/><path fill="#ffffff" d="M 265.382812 572.28125 L 264.265625 577.125 C 264.582031 577.632812 264.769531 578.1875 264.828125 578.78125 C 264.890625 579.375 264.816406 579.953125 264.605469 580.515625 L 264.605469 580.804688 L 263.78125 584.246094 L 263.78125 584.921875 L 263.054688 584.921875 L 259.230469 584.003906 L 258.503906 584.003906 L 258.503906 583.277344 L 259.328125 579.886719 L 259.328125 579.257812 C 259.390625 578.65625 259.582031 578.097656 259.90625 577.585938 C 260.230469 577.078125 260.648438 576.664062 261.167969 576.351562 L 262.328125 571.507812 L 251.578125 568.9375 L 250.460938 573.78125 C 250.785156 574.289062 250.972656 574.84375 251.023438 575.441406 C 251.074219 576.042969 250.984375 576.617188 250.753906 577.171875 L 250.753906 577.464844 L 247.265625 591.996094 L 247.265625 592.285156 C 247.195312 592.886719 247 593.4375 246.675781 593.949219 C 246.351562 594.457031 245.9375 594.871094 245.425781 595.191406 L 244.3125 600.035156 L 255.015625 602.601562 L 256.179688 597.757812 C 255.851562 597.253906 255.660156 596.703125 255.597656 596.105469 C 255.539062 595.507812 255.617188 594.929688 255.839844 594.367188 L 255.839844 593.789062 L 257 588.945312 L 257 588.21875 L 257.726562 588.21875 L 261.554688 589.136719 L 262.28125 589.136719 L 262.28125 589.863281 L 261.167969 594.707031 L 261.167969 595 C 261.097656 595.597656 260.898438 596.152344 260.578125 596.660156 C 260.253906 597.171875 259.835938 597.585938 259.328125 597.90625 L 258.210938 602.75 L 268.964844 605.316406 L 270.078125 600.472656 C 269.765625 599.964844 269.578125 599.410156 269.515625 598.816406 C 269.457031 598.21875 269.53125 597.640625 269.742188 597.082031 L 269.742188 596.789062 L 273.179688 582.257812 L 273.179688 581.96875 C 273.242188 581.367188 273.4375 580.8125 273.757812 580.300781 C 274.082031 579.789062 274.503906 579.375 275.019531 579.0625 L 276.132812 574.21875 Z M 265.382812 572.28125 " fill-opacity="1" fill-rule="nonzero"/><path fill="#ffffff" d="M 306.648438 579.886719 C 305.027344 579.421875 303.378906 579.277344 301.699219 579.464844 C 300.023438 579.648438 298.445312 580.144531 296.960938 580.953125 C 295.992188 581.734375 295.21875 582.675781 294.636719 583.78125 C 294.054688 584.882812 293.71875 586.054688 293.621094 587.296875 L 291.34375 600.957031 C 290.230469 607.542969 293.085938 610.644531 301.03125 612.144531 C 302.652344 612.628906 304.300781 612.777344 305.984375 612.59375 C 307.664062 612.40625 309.242188 611.902344 310.71875 611.078125 C 311.683594 610.292969 312.457031 609.347656 313.035156 608.25 C 313.617188 607.144531 313.957031 605.976562 314.0625 604.734375 L 316.335938 591.074219 C 317.695312 584.488281 314.738281 581.242188 306.648438 579.886719 Z M 308.007812 588.945312 L 305.535156 603.476562 C 305.46875 604.453125 305.050781 605.246094 304.277344 605.847656 C 303.671875 606.261719 303.011719 606.40625 302.289062 606.285156 C 301.558594 606.175781 300.976562 605.820312 300.546875 605.21875 C 300.058594 604.382812 299.929688 603.496094 300.160156 602.554688 L 302.582031 588.023438 C 302.699219 587.085938 303.117188 586.308594 303.839844 585.699219 C 304.136719 585.515625 304.457031 585.390625 304.796875 585.320312 C 305.136719 585.253906 305.480469 585.25 305.824219 585.308594 C 306.167969 585.367188 306.488281 585.484375 306.789062 585.660156 C 307.089844 585.835938 307.351562 586.058594 307.570312 586.328125 C 308.085938 587.136719 308.230469 588.011719 308.007812 588.945312 Z M 308.007812 588.945312 " fill-opacity="1" fill-rule="nonzero"/><path fill="#ffffff" d="M 352.519531 586.667969 L 352.035156 591.074219 C 352.035156 592.625 351.695312 592.964844 349.710938 595.53125 L 346.902344 599.066406 L 345.304688 601.054688 L 345.59375 598.535156 L 346.03125 594.367188 L 346.03125 594.078125 C 346.027344 593.472656 346.15625 592.894531 346.410156 592.34375 C 346.664062 591.792969 347.019531 591.320312 347.484375 590.929688 L 348.015625 586.085938 L 337.070312 585.070312 L 336.585938 589.914062 C 336.964844 590.378906 337.21875 590.90625 337.355469 591.496094 C 337.492188 592.082031 337.492188 592.667969 337.359375 593.253906 L 337.359375 593.546875 L 335.808594 608.078125 L 335.808594 608.320312 C 335.828125 608.917969 335.710938 609.488281 335.464844 610.03125 C 335.21875 610.574219 334.867188 611.039062 334.40625 611.417969 L 333.871094 616.261719 L 344.867188 617.425781 L 345.351562 612.582031 C 344.980469 612.109375 344.726562 611.582031 344.589844 610.996094 C 344.453125 610.410156 344.449219 609.824219 344.578125 609.238281 L 344.578125 608.949219 L 345.109375 603.765625 L 345.109375 602.992188 L 346.367188 602.992188 L 346.367188 603.425781 L 348.453125 608.65625 L 348.453125 609.238281 C 349.238281 610.90625 349.496094 612.648438 349.226562 614.46875 L 348.886719 617.617188 L 359.15625 618.734375 L 359.640625 613.890625 C 358.683594 613.214844 358.054688 612.308594 357.75 611.175781 L 353.925781 601.101562 L 353.925781 600.421875 L 358.769531 593.835938 C 359.339844 593 360.097656 592.402344 361.046875 592.042969 L 361.53125 587.441406 Z M 352.519531 586.667969 " fill-opacity="1" fill-rule="nonzero"/><path fill="#ffffff" d="M 395.871094 593.109375 C 395.871094 594.660156 395.871094 595.046875 393.886719 597.953125 L 391.320312 601.683594 L 389.914062 603.765625 L 389.914062 596.742188 C 389.871094 596.140625 389.953125 595.554688 390.167969 594.988281 C 390.378906 594.421875 390.695312 593.925781 391.125 593.496094 L 391.125 588.652344 L 380.03125 588.3125 L 380.03125 593.15625 C 380.453125 593.59375 380.753906 594.105469 380.933594 594.683594 C 381.113281 595.265625 381.152344 595.851562 381.050781 596.453125 L 381.050781 596.742188 L 380.566406 611.273438 L 380.566406 611.5625 C 380.632812 612.164062 380.5625 612.746094 380.347656 613.308594 C 380.132812 613.875 379.804688 614.355469 379.355469 614.761719 L 379.355469 619.605469 L 390.398438 619.945312 L 390.398438 615.101562 C 389.988281 614.65625 389.691406 614.148438 389.515625 613.570312 C 389.335938 612.992188 389.292969 612.402344 389.382812 611.804688 L 389.382812 605.558594 L 390.640625 605.558594 L 390.640625 605.945312 L 393.109375 611.03125 L 393.109375 611.5625 C 394.023438 613.191406 394.394531 614.9375 394.226562 616.796875 L 394.226562 619.945312 L 404.542969 620.28125 L 404.542969 615.4375 C 403.539062 614.835938 402.84375 613.980469 402.460938 612.871094 L 397.90625 603.183594 L 397.90625 602.457031 L 402.75 595.53125 C 403.21875 594.644531 403.914062 593.996094 404.832031 593.59375 L 404.832031 588.75 L 395.144531 588.460938 Z M 395.871094 593.109375 " fill-opacity="1" fill-rule="nonzero"/><path fill="#ffffff" d="M 432.734375 612.582031 C 432.6875 612.195312 432.6875 611.804688 432.734375 611.417969 L 432.734375 610.835938 L 433.3125 610.835938 L 438.15625 610.546875 L 438.691406 610.546875 L 438.691406 611.078125 C 438.746094 611.449219 438.746094 611.824219 438.691406 612.195312 C 438.730469 612.648438 438.65625 613.082031 438.46875 613.5 C 438.277344 613.914062 437.996094 614.253906 437.625 614.519531 L 437.914062 619.363281 L 449.445312 618.636719 L 449.152344 613.792969 C 448.054688 612.902344 447.410156 611.753906 447.214844 610.351562 L 441.113281 587.441406 L 427.695312 588.265625 C 427.257812 591.851562 424.835938 611.226562 424.835938 611.226562 L 424.835938 612 C 424.777344 613.171875 424.390625 614.21875 423.675781 615.148438 L 423.964844 619.992188 L 433.652344 619.410156 L 433.652344 614.808594 C 433.316406 614.542969 433.066406 614.210938 432.902344 613.816406 C 432.738281 613.417969 432.683594 613.007812 432.734375 612.582031 Z M 433.070312 605.023438 L 434.089844 595.335938 L 434.089844 594.707031 L 435.398438 594.707031 L 435.398438 595.335938 L 437.671875 605.023438 L 437.671875 605.898438 L 432.539062 605.898438 Z M 433.070312 605.023438 " fill-opacity="1" fill-rule="nonzero"/><path fill="#ffffff" d="M 468.1875 593.496094 L 468.1875 593.789062 L 469.933594 608.320312 L 469.933594 608.609375 C 470.0625 609.199219 470.0625 609.792969 469.933594 610.382812 C 469.808594 610.972656 469.566406 611.511719 469.207031 612 L 469.738281 616.84375 L 480.734375 615.535156 L 480.152344 610.691406 C 479.679688 610.316406 479.3125 609.855469 479.050781 609.3125 C 478.785156 608.769531 478.652344 608.195312 478.652344 607.59375 L 478.652344 607.300781 L 476.90625 592.769531 L 476.90625 592.527344 C 476.753906 591.9375 476.742188 591.34375 476.871094 590.746094 C 477 590.152344 477.253906 589.613281 477.632812 589.136719 L 477.101562 584.292969 L 466.105469 585.601562 L 466.6875 590.445312 C 467.152344 590.816406 467.519531 591.269531 467.78125 591.800781 C 468.042969 592.335938 468.179688 592.902344 468.1875 593.496094 Z M 468.1875 593.496094 " fill-opacity="1" fill-rule="nonzero"/><path fill="#ffffff" d="M 522.390625 606.816406 C 523.175781 605.664062 523.660156 604.398438 523.847656 603.019531 C 524.035156 601.640625 523.90625 600.289062 523.457031 598.96875 L 521.375 586.859375 C 521.359375 586.152344 521.257812 585.460938 521.070312 584.777344 C 520.882812 584.09375 520.617188 583.445312 520.269531 582.828125 C 519.925781 582.210938 519.507812 581.648438 519.023438 581.132812 C 518.539062 580.617188 517.996094 580.171875 517.402344 579.789062 C 516.105469 579.292969 514.765625 579.019531 513.382812 578.972656 C 511.996094 578.921875 510.640625 579.097656 509.3125 579.5 L 495.992188 581.773438 L 496.765625 586.617188 C 497.285156 586.882812 497.710938 587.253906 498.035156 587.738281 C 498.363281 588.21875 498.554688 588.75 498.609375 589.332031 L 501.320312 605.121094 C 501.464844 605.679688 501.472656 606.234375 501.332031 606.792969 C 501.195312 607.355469 500.933594 607.84375 500.546875 608.269531 L 501.367188 613.113281 L 514.980469 610.742188 C 516.429688 610.617188 517.796875 610.214844 519.085938 609.535156 C 520.371094 608.855469 521.472656 607.949219 522.390625 606.816406 Z M 511.929688 605.316406 L 510.378906 605.316406 L 510.378906 604.589844 L 507.132812 586.085938 L 507.132812 585.359375 L 508.632812 585.359375 C 509.660156 585.066406 510.628906 585.199219 511.539062 585.746094 C 512.390625 586.511719 512.859375 587.464844 512.945312 588.605469 L 515.027344 600.8125 C 515.320312 603.476562 514.496094 604.878906 511.929688 605.316406 Z M 511.929688 605.316406 " fill-opacity="1" fill-rule="nonzero"/><path fill="#ffffff" d="M 565.695312 597.082031 C 566.230469 595.960938 566.542969 594.78125 566.625 593.542969 C 566.707031 592.304688 566.558594 591.09375 566.179688 589.914062 L 562.691406 576.496094 C 561.042969 570.054688 557.121094 568.210938 549.175781 570.246094 C 547.519531 570.484375 545.96875 571.019531 544.519531 571.859375 C 543.070312 572.695312 541.828125 573.773438 540.796875 575.089844 C 540.238281 576.195312 539.917969 577.367188 539.832031 578.601562 C 539.75 579.835938 539.910156 581.039062 540.3125 582.210938 L 543.75 595.628906 C 545.445312 602.117188 549.371094 603.910156 557.3125 601.875 C 558.972656 601.65625 560.523438 601.132812 561.976562 600.304688 C 563.425781 599.472656 564.664062 598.398438 565.695312 597.082031 Z M 557.554688 595.289062 C 557.199219 595.953125 556.652344 596.359375 555.910156 596.5 C 555.195312 596.707031 554.519531 596.628906 553.875 596.257812 C 553.066406 595.707031 552.582031 594.945312 552.421875 593.980469 L 548.742188 579.449219 C 548.339844 578.5625 548.339844 577.675781 548.742188 576.785156 C 548.9375 576.496094 549.179688 576.253906 549.46875 576.054688 C 549.753906 575.855469 550.066406 575.710938 550.40625 575.625 C 550.746094 575.542969 551.089844 575.519531 551.4375 575.5625 C 551.785156 575.601562 552.113281 575.703125 552.421875 575.867188 C 552.8125 576.113281 553.128906 576.429688 553.378906 576.820312 C 553.625 577.210938 553.773438 577.636719 553.828125 578.09375 L 557.554688 592.625 C 557.929688 593.511719 557.929688 594.402344 557.554688 595.289062 Z M 557.554688 595.289062 " fill-opacity="1" fill-rule="nonzero"/><path fill="#ffffff" d="M 160.273438 616.359375 L 154.023438 632.539062 L 144.335938 628.757812 L 146.757812 622.609375 C 146.757812 622.609375 148.550781 617.765625 145.304688 616.699219 C 142.058594 615.632812 140.171875 620.28125 140.171875 620.28125 L 128.449219 650.3125 C 128.449219 650.3125 126.074219 655.640625 129.273438 657.144531 C 132.46875 658.644531 135.085938 652.300781 135.085938 652.300781 L 138.328125 644.164062 L 148.015625 647.941406 L 140.265625 667.65625 C 139.070312 668.339844 137.808594 668.871094 136.480469 669.25 C 135.15625 669.632812 133.804688 669.847656 132.425781 669.902344 C 131.046875 669.957031 129.679688 669.847656 128.328125 669.574219 C 126.976562 669.300781 125.675781 668.871094 124.429688 668.285156 C 115.710938 664.214844 114.742188 656.5625 118.035156 647.359375 L 130.675781 615.101562 C 130.675781 615.101562 136.199219 600.085938 148.355469 604.296875 C 149.726562 604.8125 151.027344 605.464844 152.253906 606.261719 C 153.484375 607.058594 154.613281 607.976562 155.640625 609.019531 C 156.667969 610.058594 157.574219 611.199219 158.355469 612.4375 C 159.136719 613.675781 159.773438 614.984375 160.273438 616.359375 Z M 160.273438 616.359375 " fill-opacity="1" fill-rule="nonzero"/><path fill="#ffffff" d="M 162.695312 626.53125 C 164.054688 623.835938 165.671875 621.300781 167.539062 618.925781 C 167.96875 618.453125 168.433594 618.015625 168.933594 617.617188 C 169.4375 617.21875 169.964844 616.863281 170.523438 616.546875 C 171.082031 616.234375 171.660156 615.964844 172.261719 615.742188 C 172.863281 615.519531 173.476562 615.347656 174.105469 615.226562 C 174.734375 615.101562 175.367188 615.027344 176.007812 615.007812 C 176.648438 614.984375 177.285156 615.011719 177.921875 615.09375 C 178.554688 615.171875 179.179688 615.304688 179.796875 615.484375 C 180.410156 615.664062 181.007812 615.890625 181.585938 616.164062 C 190.011719 619.121094 190.738281 624.640625 190.738281 624.640625 C 191.398438 628.34375 191.238281 632.007812 190.253906 635.636719 L 179.40625 667.945312 C 178.128906 671.113281 176.511719 674.101562 174.5625 676.90625 C 172.476562 679.328125 168.941406 684.269531 159.109375 680.636719 C 149.277344 677.003906 150.003906 669.929688 150.003906 669.929688 C 150.105469 665.886719 150.753906 661.929688 151.941406 658.0625 Z M 161.726562 663.199219 C 161.726562 663.199219 160.367188 668.042969 163.226562 668.960938 C 167.296875 670.222656 168.652344 665.183594 168.652344 665.183594 L 179.210938 633.894531 C 179.210938 633.894531 180.664062 629.050781 177.417969 627.9375 C 174.171875 626.820312 172.574219 631.421875 172.574219 631.421875 Z M 161.726562 663.199219 " fill-opacity="1" fill-rule="nonzero"/><path fill="#ffffff" d="M 199.3125 623.527344 L 211.035156 626.726562 L 209.726562 658.210938 L 211.566406 658.742188 L 215.976562 643.242188 C 216.246094 642.550781 216.382812 641.832031 216.382812 641.085938 C 216.382812 640.34375 216.246094 639.625 215.976562 638.929688 L 218.882812 628.855469 L 229.585938 631.8125 L 226.679688 641.984375 C 225.511719 642.980469 224.691406 644.207031 224.210938 645.664062 L 210.453125 694.683594 L 200.136719 691.726562 L 200.910156 660.484375 L 198.972656 659.855469 L 194.757812 675.015625 C 194.253906 676.453125 194.253906 677.890625 194.757812 679.328125 L 191.851562 689.453125 L 181.535156 686.449219 L 184.34375 676.421875 C 184.34375 676.421875 185.703125 676.421875 186.71875 672.933594 L 196.40625 638.59375 C 197.011719 636.898438 197.011719 635.203125 196.40625 633.507812 Z M 199.3125 623.527344 " fill-opacity="1" fill-rule="nonzero"/><path fill="#ffffff" d="M 260.730469 643.824219 L 257.484375 657.820312 L 247.796875 655.691406 L 248.523438 652.15625 C 248.523438 652.15625 249.832031 647.3125 246.101562 646.585938 C 242.375 645.859375 241.5 650.554688 241.5 650.554688 C 241.207031 651.304688 241.039062 652.082031 241 652.882812 C 240.960938 653.6875 241.050781 654.476562 241.269531 655.25 C 241.488281 656.023438 241.824219 656.746094 242.277344 657.40625 C 242.734375 658.070312 243.28125 658.644531 243.921875 659.128906 C 248.429688 662.230469 255.453125 666.394531 254.191406 676.46875 C 254.050781 679.824219 253.5 683.113281 252.550781 686.332031 C 251.601562 689.554688 250.273438 692.613281 248.574219 695.507812 C 248.207031 696.160156 247.789062 696.777344 247.3125 697.355469 C 246.839844 697.9375 246.316406 698.472656 245.75 698.960938 C 245.179688 699.445312 244.574219 699.882812 243.925781 700.261719 C 243.28125 700.644531 242.609375 700.964844 241.90625 701.226562 C 241.203125 701.488281 240.484375 701.6875 239.746094 701.820312 C 239.011719 701.957031 238.265625 702.027344 237.519531 702.03125 C 236.769531 702.035156 236.023438 701.972656 235.285156 701.84375 C 234.546875 701.714844 233.828125 701.523438 233.121094 701.269531 C 231.847656 701.03125 230.625 700.644531 229.445312 700.105469 C 228.269531 699.566406 227.175781 698.894531 226.160156 698.085938 C 225.148438 697.28125 224.246094 696.363281 223.457031 695.339844 C 222.667969 694.3125 222.015625 693.207031 221.496094 692.019531 L 225.226562 675.695312 L 235.445312 678.019531 L 234.332031 683.15625 C 234.332031 683.15625 233.21875 688.53125 236.804688 689.257812 C 240.386719 689.984375 241.648438 685.285156 241.648438 685.285156 C 241.648438 685.285156 244.796875 677.246094 238.984375 673.710938 C 233.171875 670.171875 226.726562 665.8125 230.3125 651.332031 C 233.898438 636.847656 238.835938 631.957031 250.609375 635.25 C 252.785156 635.972656 254.75 637.074219 256.5 638.558594 C 258.25 640.039062 259.660156 641.796875 260.730469 643.824219 Z M 260.730469 643.824219 " fill-opacity="1" fill-rule="nonzero"/><path fill="#ffffff" d="M 476.8125 654.09375 L 477.875 668.625 L 468.1875 669.496094 L 467.800781 665.863281 C 467.800781 665.863281 467.800781 661.019531 463.878906 661.019531 C 459.953125 661.019531 460.632812 666.203125 460.632812 666.203125 C 460.578125 667 460.652344 667.789062 460.855469 668.566406 C 461.054688 669.34375 461.375 670.066406 461.8125 670.738281 C 462.25 671.410156 462.78125 671.996094 463.40625 672.496094 C 464.035156 672.996094 464.722656 673.386719 465.476562 673.660156 C 470.707031 675.257812 478.652344 677.195312 480.445312 687.175781 C 481.234375 690.398438 481.628906 693.667969 481.628906 696.984375 C 481.628906 700.300781 481.234375 703.570312 480.445312 706.792969 C 480.285156 707.523438 480.066406 708.238281 479.78125 708.933594 C 479.496094 709.625 479.15625 710.289062 478.753906 710.921875 C 478.355469 711.558594 477.902344 712.152344 477.398438 712.707031 C 476.890625 713.257812 476.34375 713.765625 475.75 714.222656 C 475.15625 714.679688 474.523438 715.082031 473.859375 715.429688 C 473.195312 715.777344 472.507812 716.0625 471.792969 716.289062 C 471.078125 716.511719 470.347656 716.675781 469.605469 716.773438 C 468.859375 716.871094 468.113281 716.902344 467.367188 716.867188 C 466.082031 717.015625 464.796875 717.003906 463.515625 716.835938 C 462.234375 716.667969 460.988281 716.347656 459.785156 715.875 C 458.582031 715.402344 457.453125 714.792969 456.402344 714.042969 C 455.347656 713.292969 454.402344 712.425781 453.5625 711.441406 L 452.253906 694.78125 L 462.714844 693.957031 L 463.199219 699.1875 C 463.199219 699.1875 463.734375 704.660156 467.367188 704.320312 C 471 703.984375 470.5625 699.140625 470.5625 699.140625 C 470.5625 699.140625 471.191406 690.566406 464.554688 688.871094 C 457.921875 687.175781 450.558594 684.996094 449.6875 670.078125 C 448.8125 655.15625 452.109375 649.101562 464.21875 648.667969 C 466.59375 648.691406 468.875 649.175781 471.058594 650.117188 C 473.242188 651.058594 475.160156 652.382812 476.8125 654.09375 Z M 476.8125 654.09375 " fill-opacity="1" fill-rule="nonzero"/><path fill="#ffffff" d="M 272.648438 641.351562 L 288.875 644.210938 L 286.355469 694.730469 C 286.355469 694.730469 286.355469 698.992188 287.371094 699.960938 L 285.628906 710.039062 L 271.53125 707.566406 L 273.277344 697.25 C 273.277344 697.25 276.132812 696.378906 275.746094 690.421875 L 267.804688 688.917969 C 267.804688 688.917969 265.527344 694.585938 267.804688 696.523438 L 266.011719 706.597656 L 253.949219 704.371094 L 255.695312 694.101562 C 255.695312 694.101562 256.953125 693.570312 258.164062 689.742188 Z M 270.175781 678.261719 L 276.8125 679.523438 L 278.363281 657.09375 L 276.328125 656.757812 Z M 270.175781 678.261719 " fill-opacity="1" fill-rule="nonzero"/><path fill="#ffffff" d="M 487.902344 647.988281 L 504.273438 645.90625 L 516.917969 694.925781 C 516.917969 694.925781 517.984375 699.042969 519.4375 699.769531 L 520.742188 710.039062 L 506.601562 711.878906 L 505.195312 701.5625 C 505.195312 701.5625 507.664062 699.867188 505.484375 694.296875 L 497.445312 695.214844 C 497.445312 695.214844 497.007812 701.320312 499.722656 702.480469 L 501.03125 712.605469 L 488.871094 714.105469 L 487.515625 703.789062 C 487.515625 703.789062 488.53125 702.867188 488.53125 698.945312 Z M 496.574219 684.027344 L 503.257812 683.203125 L 498.027344 661.601562 L 496.039062 661.890625 Z M 496.574219 684.027344 " fill-opacity="1" fill-rule="nonzero"/><path fill="#ffffff" d="M 299.820312 645.710938 L 318.90625 648.132812 C 318.90625 648.132812 329.949219 648.132812 327.816406 665.8125 L 323.75 697.878906 C 323.75 697.878906 322.246094 714.640625 310.523438 713.1875 L 291.683594 710.8125 L 292.992188 700.59375 C 292.992188 700.59375 294.589844 700.59375 295.265625 695.410156 L 299.578125 661.503906 C 299.578125 661.503906 300.304688 657.433594 298.5625 655.789062 Z M 305.585938 700.351562 L 307.957031 700.640625 C 312.800781 701.269531 313.238281 694.828125 313.238281 694.828125 L 316.726562 667.316406 C 317.597656 659.855469 312.945312 660.050781 312.945312 660.050781 L 310.765625 660.050781 Z M 305.585938 700.351562 " fill-opacity="1" fill-rule="nonzero"/><path fill="#ffffff" d="M 333 665.425781 C 333 665.425781 333.53125 648.039062 348.210938 648.859375 C 364.386719 649.734375 361.820312 666.296875 361.820312 666.296875 L 359.351562 699.960938 C 359.351562 699.960938 359.351562 718.273438 343.511719 717.253906 C 328.980469 716.285156 330.480469 698.75 330.480469 698.75 Z M 341.378906 699.332031 C 341.378906 699.332031 340.460938 704.175781 344.382812 704.660156 C 348.304688 705.144531 348.5 699.382812 348.5 699.382812 L 350.96875 666.394531 C 350.96875 666.394531 350.679688 661.550781 347.675781 661.261719 C 344.671875 660.96875 343.851562 665.8125 343.851562 665.8125 Z M 341.378906 699.332031 " fill-opacity="1" fill-rule="nonzero"/><path fill="#ffffff" d="M 586.183594 647.070312 C 586.183594 647.070312 580.710938 630.550781 594.804688 626.289062 C 610.351562 621.445312 613.550781 638.058594 613.550781 638.058594 L 622.753906 670.5625 C 622.753906 670.5625 628.90625 687.804688 613.792969 692.210938 C 599.695312 696.28125 595.191406 679.230469 595.191406 679.230469 Z M 605.558594 676.132812 C 605.558594 676.132812 606.429688 680.976562 610.402344 680.101562 C 614.375 679.230469 612.484375 673.757812 612.484375 673.757812 L 603.476562 641.835938 C 603.476562 641.835938 601.539062 637.285156 598.632812 638.109375 C 595.726562 638.929688 596.546875 643.679688 596.546875 643.679688 Z M 605.558594 676.132812 " fill-opacity="1" fill-rule="nonzero"/><path fill="#ffffff" d="M 653.753906 626.386719 C 653.753906 626.386719 646.535156 610.59375 660.097656 604.78125 C 674.96875 598.4375 680.007812 614.46875 680.007812 614.46875 L 692.648438 645.761719 C 692.648438 645.761719 700.640625 662.230469 686.0625 668.285156 C 672.546875 673.855469 666.203125 657.433594 666.203125 657.433594 Z M 676.226562 653.027344 C 676.226562 653.027344 677.632812 657.871094 681.070312 656.515625 C 684.511719 655.15625 682.429688 649.925781 682.429688 649.925781 L 670.078125 619.265625 C 670.078125 619.265625 667.65625 614.953125 664.84375 616.117188 C 662.035156 617.28125 663.390625 621.882812 663.390625 621.882812 Z M 676.226562 653.027344 " fill-opacity="1" fill-rule="nonzero"/><path fill="#ffffff" d="M 367.101562 651.914062 L 380.808594 652.25 L 380.808594 662.859375 C 380.808594 662.859375 379.355469 663.632812 379.210938 667.316406 L 378.144531 705.726562 L 380.46875 705.726562 C 380.46875 705.726562 384.632812 706.210938 384.925781 700.351562 L 385.410156 687.320312 L 394.5625 687.320312 L 393.742188 717.980469 L 365.5 717.207031 L 365.5 706.648438 C 365.5 706.648438 367.050781 706.648438 367.148438 701.804688 L 368.214844 666.78125 C 368.316406 665.921875 368.253906 665.070312 368.027344 664.234375 C 367.800781 663.398438 367.429688 662.632812 366.90625 661.9375 Z M 367.101562 651.914062 " fill-opacity="1" fill-rule="nonzero"/><path fill="#ffffff" d="M 399.554688 652.398438 L 428.617188 651.914062 L 428.617188 672.691406 L 418.929688 672.691406 L 418.929688 668.574219 C 418.929688 668.574219 418.929688 664.167969 415.003906 664.167969 L 412.148438 664.167969 L 412.148438 678.699219 L 420.332031 678.699219 L 420.332031 689.742188 L 412.195312 689.742188 L 412.195312 705.582031 L 414.570312 705.582031 C 415.167969 705.519531 415.738281 705.355469 416.273438 705.082031 C 416.8125 704.808594 417.28125 704.449219 417.683594 704.003906 C 418.085938 703.554688 418.394531 703.046875 418.609375 702.484375 C 418.824219 701.921875 418.929688 701.339844 418.929688 700.738281 L 418.929688 695.3125 L 428.617188 695.3125 L 428.953125 717.640625 L 399.890625 718.078125 L 399.890625 707.617188 C 399.890625 707.617188 401.296875 707.226562 401.296875 702.335938 L 400.8125 667.800781 C 400.871094 666.917969 400.761719 666.058594 400.484375 665.222656 C 400.210938 664.382812 399.785156 663.628906 399.214844 662.957031 Z M 399.554688 652.398438 " fill-opacity="1" fill-rule="nonzero"/><path fill="#ffffff" d="M 515.414062 644.210938 L 533.96875 640.773438 C 533.96875 640.773438 543.945312 638.785156 547.09375 651.914062 C 548.65625 657.554688 549.753906 663.289062 550.386719 669.109375 C 550.386719 669.109375 553.292969 683.976562 542.734375 686.109375 L 535.46875 687.5625 L 536.195312 691.390625 C 536.195312 691.390625 536.632812 694.972656 538.421875 696.234375 L 540.359375 706.5 L 526.945312 708.875 L 525.007812 698.558594 C 525.007812 698.558594 526.21875 697.636719 525.539062 693.277344 L 519.4375 659.371094 C 519.246094 657.503906 518.503906 655.886719 517.207031 654.527344 Z M 533.433594 675.550781 L 536.535156 674.921875 C 540.652344 674.046875 539.199219 667.992188 539.199219 667.992188 C 538.691406 664.191406 537.964844 660.425781 537.019531 656.707031 C 536.886719 656.179688 536.667969 655.695312 536.359375 655.246094 C 536.050781 654.796875 535.675781 654.417969 535.230469 654.105469 C 534.785156 653.796875 534.300781 653.570312 533.773438 653.4375 C 533.25 653.300781 532.714844 653.261719 532.175781 653.316406 L 529.414062 653.898438 Z M 533.433594 675.550781 " fill-opacity="1" fill-rule="nonzero"/><path fill="#ffffff" d="M 548.546875 638.542969 L 566.90625 634.234375 C 566.90625 634.234375 576.59375 631.761719 580.515625 644.695312 C 582.382812 650.257812 583.753906 655.941406 584.632812 661.746094 C 584.632812 661.746094 588.3125 676.277344 577.851562 679.085938 L 570.683594 680.878906 L 571.507812 684.65625 C 571.507812 684.65625 572.183594 688.191406 574.023438 689.5 L 576.445312 699.71875 L 563.125 702.722656 L 560.703125 692.503906 C 560.703125 692.503906 561.914062 691.535156 560.996094 687.175781 L 553.292969 653.65625 C 553.023438 651.746094 552.183594 650.132812 550.773438 648.8125 Z M 567.921875 668.960938 L 570.972656 668.1875 C 575.042969 667.121094 573.347656 661.164062 573.347656 661.164062 C 572.640625 657.382812 571.722656 653.652344 570.585938 649.976562 C 570.433594 649.46875 570.199219 649.003906 569.882812 648.578125 C 569.566406 648.15625 569.1875 647.796875 568.742188 647.507812 C 568.300781 647.222656 567.820312 647.019531 567.304688 646.902344 C 566.789062 646.785156 566.265625 646.757812 565.742188 646.828125 L 563.03125 647.503906 Z M 567.921875 668.960938 " fill-opacity="1" fill-rule="nonzero"/><path fill="#ffffff" d="M 613.984375 622.414062 L 633.359375 616.117188 C 633.914062 615.941406 634.480469 615.820312 635.058594 615.746094 C 635.636719 615.675781 636.214844 615.65625 636.796875 615.6875 C 637.375 615.71875 637.949219 615.804688 638.515625 615.9375 C 639.082031 616.074219 639.628906 616.257812 640.160156 616.492188 C 640.695312 616.726562 641.199219 617.007812 641.683594 617.332031 C 642.164062 617.65625 642.613281 618.023438 643.03125 618.429688 C 643.445312 618.835938 643.824219 619.277344 644.160156 619.75 C 644.496094 620.222656 644.789062 620.726562 645.035156 621.25 C 647.46875 625.203125 649.085938 629.464844 649.878906 634.039062 C 649.878906 634.039062 652.25 641.351562 647.40625 645.035156 L 647.941406 646.632812 C 648.371094 646.613281 648.800781 646.632812 649.226562 646.6875 C 649.65625 646.742188 650.074219 646.835938 650.484375 646.964844 C 650.898438 647.09375 651.292969 647.257812 651.675781 647.453125 C 652.058594 647.652344 652.421875 647.882812 652.765625 648.144531 C 653.105469 648.40625 653.425781 648.695312 653.714844 649.011719 C 654.007812 649.328125 654.269531 649.667969 654.503906 650.03125 C 654.738281 650.394531 654.9375 650.773438 655.105469 651.171875 C 655.269531 651.566406 655.402344 651.976562 655.496094 652.398438 C 657.675781 658.839844 658.304688 660.632812 658.304688 660.632812 C 658.304688 660.632812 659.46875 664.265625 661.453125 664.84375 L 664.75 674.53125 L 653.414062 678.3125 C 651.773438 674.757812 650.335938 671.125 649.101562 667.414062 L 646.292969 658.984375 C 646.292969 658.984375 644.113281 653.558594 640.191406 654.867188 L 638.253906 655.546875 L 641.835938 666.296875 C 641.835938 666.296875 642.855469 669.398438 644.597656 670.171875 L 647.941406 680.101562 L 635.054688 684.460938 L 631.617188 674.773438 C 631.617188 674.773438 632.78125 673.953125 631.617188 669.929688 L 620.523438 636.507812 C 620.359375 635.679688 620.03125 634.917969 619.539062 634.226562 C 619.050781 633.535156 618.441406 632.972656 617.714844 632.539062 Z M 634.378906 645.035156 L 637.1875 644.113281 C 640.289062 643 639.804688 639.269531 639.5625 638.398438 C 639.039062 635.882812 638.167969 633.492188 636.945312 631.230469 C 636.746094 630.777344 636.472656 630.375 636.132812 630.015625 C 635.789062 629.660156 635.398438 629.371094 634.957031 629.152344 C 634.515625 628.929688 634.050781 628.789062 633.558594 628.730469 C 633.070312 628.671875 632.582031 628.699219 632.101562 628.808594 L 629.195312 629.824219 Z M 634.378906 645.035156 " fill-opacity="1" fill-rule="nonzero"/><path fill="#ffffff" d="M 99.289062 492.070312 L 84.757812 500.640625 L 103.164062 527.863281 L 176.160156 538.664062 C 171.316406 529.609375 167.101562 520.550781 162.984375 511.394531 Z M 99.289062 492.070312 " fill-opacity="1" fill-rule="nonzero"/><path fill="#ffffff" d="M 108.492188 440.484375 L 83.015625 446.296875 L 101.757812 483.59375 L 158.09375 500.738281 C 152.039062 486.691406 146.613281 472.546875 141.816406 458.5 Z M 108.492188 440.484375 " fill-opacity="1" fill-rule="nonzero"/><path fill="#ffffff" d="M 180.859375 547.917969 L 102.390625 536.582031 L 90.714844 549.175781 L 109.121094 567.292969 L 190.351562 564.96875 C 189.285156 563.175781 188.269531 561.382812 187.25 559.589844 C 185.070312 555.714844 182.941406 551.839844 180.859375 547.917969 Z M 180.859375 547.917969 " fill-opacity="1" fill-rule="nonzero"/><path fill="#ffffff" d="M 710.570312 492.070312 L 725.101562 500.640625 L 706.695312 527.863281 L 633.699219 538.664062 C 638.542969 529.609375 642.757812 520.550781 646.875 511.394531 Z M 710.570312 492.070312 " fill-opacity="1" fill-rule="nonzero"/><path fill="#ffffff" d="M 701.367188 440.484375 L 726.84375 446.296875 L 708.101562 483.59375 L 651.914062 500.738281 C 658.015625 486.691406 663.390625 472.546875 668.1875 458.5 Z M 701.367188 440.484375 " fill-opacity="1" fill-rule="nonzero"/><path fill="#ffffff" d="M 629 547.917969 L 707.519531 536.582031 L 719.191406 549.175781 L 700.738281 567.292969 L 619.507812 564.96875 C 620.574219 563.175781 621.589844 561.382812 622.609375 559.589844 C 624.789062 555.714844 626.917969 551.839844 629 547.917969 Z M 629 547.917969 " fill-opacity="1" fill-rule="nonzero"/><path fill="#ffffff" d="M 198.390625 578.578125 C 198.054688 578.046875 197.714844 577.511719 197.421875 576.980469 L 143.320312 589.378906 C 164.210938 597.742188 185.539062 605.074219 207.304688 611.371094 L 193.695312 589.429688 Z M 198.390625 578.578125 " fill-opacity="1" fill-rule="nonzero"/><path fill="#ffffff" d="M 601.585938 611.710938 C 623.664062 605.367188 645.363281 597.925781 666.6875 589.378906 L 612.4375 576.980469 L 610.933594 579.402344 L 615.4375 589.429688 Z M 601.585938 611.710938 " fill-opacity="1" fill-rule="nonzero"/><path fill="#ffffff" d="M 247.75 607.542969 C 233.210938 603.597656 218.9375 598.851562 204.929688 593.304688 L 218.300781 614.324219 C 230.699219 617.617188 244.261719 620.863281 258.695312 624.011719 Z M 247.75 607.542969 " fill-opacity="1" fill-rule="nonzero"/><path fill="#ffffff" d="M 604.054688 593.304688 C 590.039062 598.863281 575.75 603.613281 561.1875 607.542969 L 550.144531 624.011719 C 564.675781 621.007812 578.09375 617.8125 590.542969 614.324219 Z M 604.054688 593.304688 " fill-opacity="1" fill-rule="nonzero"/><path fill="#ffffff" d="M 568.117188 139.105469 L 537.890625 91.007812 C 543.78125 88.773438 549.390625 85.984375 554.722656 82.632812 C 560.054688 79.28125 565.003906 75.4375 569.570312 71.097656 C 561.238281 73.328125 552.78125 74.847656 544.195312 75.660156 C 535.613281 76.472656 527.019531 76.566406 518.417969 75.941406 C 530.671875 72.550781 568.890625 54.339844 580.515625 34.140625 C 564.203125 38.234375 547.636719 40.285156 530.820312 40.292969 C 498.269531 40.292969 493.910156 27.890625 404.882812 27.890625 C 315.851562 27.890625 311.398438 40.292969 278.945312 40.292969 C 262.171875 40.242188 245.652344 38.160156 229.390625 34.042969 C 241.015625 54.242188 279.234375 72.453125 291.488281 75.84375 C 282.886719 76.46875 274.296875 76.375 265.710938 75.5625 C 257.125 74.75 248.667969 73.230469 240.339844 71 C 244.898438 75.335938 249.835938 79.179688 255.160156 82.53125 C 260.484375 85.882812 266.089844 88.675781 271.96875 90.910156 L 241.648438 139.105469 L 128.789062 169.328125 L 128.789062 320.019531 C 128.789062 392.335938 153.007812 475.40625 197.375 553.828125 C 199.601562 557.75 201.878906 561.578125 204.15625 565.453125 L 209.773438 552.90625 C 196.820312 530.472656 185.390625 507.285156 175.480469 483.351562 C 173.109375 477.539062 170.636719 471.726562 168.652344 465.960938 C 159.078125 440.480469 151.734375 414.371094 146.613281 387.636719 C 142.285156 365.242188 140.074219 342.636719 139.976562 319.824219 L 139.976562 177.902344 L 249.105469 148.839844 L 404.882812 238.59375 L 560.65625 148.695312 L 668.476562 177.757812 L 404.882812 329.65625 L 404.882812 351.019531 L 669.738281 198.199219 L 669.738281 289.261719 L 404.882812 442.082031 L 404.882812 463.441406 L 669.738281 310.621094 L 669.738281 320.019531 C 669.511719 349.75 665.863281 379.054688 658.789062 407.933594 L 404.882812 554.457031 L 404.882812 575.816406 L 651.914062 433.21875 C 639.246094 475.113281 621.902344 514.976562 599.890625 552.808594 L 604.734375 566.179688 C 607.15625 562.109375 609.578125 557.992188 611.953125 553.828125 C 656.757812 475.40625 680.976562 392.335938 680.976562 320.019531 L 680.976562 169.328125 Z M 568.117188 139.105469 " fill-opacity="1" fill-rule="nonzero"/><path fill="#ffffff" d="M 453.320312 729.414062 C 437.980469 742.75 421.835938 755.664062 404.882812 768.164062 C 387.929688 755.792969 371.78125 742.878906 356.445312 729.414062 C 356.445312 729.414062 348.644531 729.023438 338.039062 728.152344 C 357.265625 745.480469 377.335938 761.769531 398.246094 777.027344 L 404.785156 781.871094 L 411.324219 777.027344 C 432.246094 761.785156 452.3125 745.492188 471.53125 728.152344 C 461.070312 729.023438 453.320312 729.414062 453.320312 729.414062 Z M 453.320312 729.414062 " fill-opacity="1" fill-rule="nonzero"/><path fill="#ffffff" d="M 477.972656 623.285156 L 453.753906 637.332031 C 470.464844 636.171875 486.644531 634.425781 502.191406 632.488281 L 533.046875 614.710938 C 515.222656 618.007812 496.914062 621.15625 477.972656 623.285156 Z M 477.972656 623.285156 " fill-opacity="1" fill-rule="nonzero"/><path fill="#d20a11" d="M 389.625 125.976562 C 355.71875 134.550781 350.535156 134.308594 333.046875 128.253906 C 315.5625 122.199219 312.65625 106.265625 321.761719 88.195312 Z M 389.625 125.976562 " fill-opacity="1" fill-rule="nonzero"/><path fill="#d20a11" d="M 420.140625 125.976562 C 454.046875 134.550781 459.226562 134.308594 476.714844 128.253906 C 494.199219 122.199219 497.105469 106.265625 488 88.195312 Z M 420.140625 125.976562 " fill-opacity="1" fill-rule="nonzero"/><path fill="#d20a11" d="M 668.527344 177.5625 L 560.703125 148.5 L 404.882812 238.59375 L 146.710938 387.636719 C 151.828125 414.371094 159.175781 440.480469 168.75 465.960938 C 170.929688 471.726562 173.203125 477.539062 175.578125 483.351562 L 404.882812 351.019531 L 404.882812 329.65625 Z M 668.527344 177.5625 " fill-opacity="1" fill-rule="nonzero"/><path fill="#d20a11" d="M 453.320312 729.414062 C 437.171875 730.382812 421.027344 730.867188 404.882812 730.867188 C 388.734375 730.867188 372.589844 730.382812 356.445312 729.414062 C 371.75 742.75 387.894531 755.664062 404.882812 768.164062 C 421.867188 755.699219 438.011719 742.78125 453.320312 729.414062 Z M 453.320312 729.414062 " fill-opacity="1" fill-rule="nonzero"/><path fill="#d20a11" d="M 548.257812 610.933594 C 543.414062 612.195312 538.035156 613.355469 532.804688 614.46875 L 501.320312 632.632812 L 507.664062 631.8125 L 510.183594 631.421875 C 516.53125 630.503906 522.875 629.484375 529.171875 628.421875 L 529.945312 628.421875 C 532.515625 627.984375 535.03125 627.453125 537.550781 626.96875 Z M 548.257812 610.933594 " fill-opacity="1" fill-rule="nonzero"/><path fill="#d20a11" d="M 404.882812 575.816406 L 404.882812 554.457031 L 658.789062 407.933594 C 665.863281 379.054688 669.511719 349.75 669.738281 320.019531 L 669.738281 310.621094 L 242.617188 557.121094 C 267.644531 564.824219 293.109375 570.617188 319.003906 574.507812 C 344.902344 578.394531 370.945312 580.332031 397.132812 580.320312 Z M 404.882812 575.816406 " fill-opacity="1" fill-rule="nonzero"/><path fill="#d20a11" d="M 324.234375 622.414062 C 302.832031 619.792969 281.648438 615.96875 260.683594 610.933594 L 271.289062 626.628906 L 279.914062 628.273438 L 280.542969 628.273438 C 286.644531 629.339844 292.796875 630.308594 298.949219 631.230469 L 302.4375 631.714844 C 303.890625 631.957031 305.390625 632.101562 306.890625 632.296875 Z M 324.234375 622.414062 " fill-opacity="1" fill-rule="nonzero"/><path fill="#03506b" d="M 249.203125 148.695312 L 140.074219 177.757812 L 140.074219 319.875 C 140.167969 342.683594 142.382812 365.289062 146.710938 387.6875 L 404.882812 238.59375 Z M 249.203125 148.695312 " fill-opacity="1" fill-rule="nonzero"/><path fill="#03506b" d="M 404.882812 442.082031 L 669.738281 289.261719 L 669.738281 198.199219 L 175.675781 483.351562 C 185.585938 507.285156 197.015625 530.472656 209.96875 552.90625 L 213.117188 545.835938 C 222.417969 549.953125 232.492188 553.679688 242.710938 557.121094 L 404.882812 463.441406 Z M 404.882812 442.082031 " fill-opacity="1" fill-rule="nonzero"/><path fill="#03506b" d="M 397.132812 580.320312 L 404.589844 580.320312 C 474.824219 580.320312 540.214844 568.9375 590.15625 548.207031 C 592.09375 547.433594 595 545.929688 596.984375 545.058594 L 600.035156 552.710938 C 621.992188 514.90625 639.285156 475.074219 651.914062 433.21875 L 404.882812 575.816406 Z M 397.132812 580.320312 " fill-opacity="1" fill-rule="nonzero"/><path fill="#03506b" d="M 404.589844 627.304688 C 377.707031 627.335938 350.917969 625.722656 324.234375 622.460938 L 306.890625 632.539062 C 311.398438 633.167969 315.902344 633.796875 320.453125 634.328125 L 322.683594 634.328125 C 329.027344 635.054688 335.421875 635.6875 342.058594 636.265625 C 348.886719 636.847656 355.765625 637.332031 362.644531 637.71875 L 363.128906 637.71875 C 377.011719 638.496094 391.011719 638.882812 405.125 638.882812 C 419.234375 638.882812 433.234375 638.496094 447.117188 637.71875 L 447.507812 637.71875 C 449.589844 637.71875 451.625 637.429688 453.707031 637.285156 L 478.167969 623.140625 C 453.722656 625.929688 429.195312 627.316406 404.589844 627.304688 Z M 404.589844 627.304688 " fill-opacity="1" fill-rule="nonzero"/><path fill="#ffffff" d="M 356.445312 323.070312 C 355.183594 298.171875 339.054688 290.035156 315.03125 282.722656 C 294.296875 276.328125 284.078125 270.855469 283.253906 255.0625 C 283.164062 254.308594 283.109375 253.546875 283.097656 252.785156 C 283.085938 252.023438 283.113281 251.261719 283.183594 250.503906 C 283.253906 249.742188 283.359375 248.988281 283.507812 248.242188 C 283.65625 247.492188 283.84375 246.753906 284.074219 246.027344 C 284.300781 245.296875 284.5625 244.585938 284.867188 243.882812 C 285.167969 243.183594 285.507812 242.503906 285.882812 241.835938 C 286.253906 241.171875 286.664062 240.53125 287.105469 239.910156 C 287.550781 239.289062 288.023438 238.691406 288.527344 238.121094 C 289.035156 237.550781 289.570312 237.007812 290.132812 236.496094 C 290.695312 235.980469 291.285156 235.496094 291.898438 235.046875 C 292.511719 234.59375 293.148438 234.175781 293.808594 233.792969 C 294.464844 233.40625 295.144531 233.058594 295.839844 232.746094 C 296.535156 232.433594 297.246094 232.15625 297.96875 231.921875 C 298.695312 231.683594 299.429688 231.484375 300.175781 231.324219 C 300.921875 231.164062 301.671875 231.042969 302.429688 230.964844 C 303.191406 230.882812 303.949219 230.84375 304.710938 230.84375 C 325.203125 229.828125 335.46875 248.332031 341.136719 259.617188 L 346.417969 256.179688 L 331.304688 214.183594 C 330.191406 227.164062 324.136719 227.84375 322.730469 227.890625 C 319.941406 227.847656 317.226562 227.363281 314.59375 226.4375 C 310.671875 225.417969 306.683594 224.933594 302.628906 224.984375 C 286.453125 225.808594 271.144531 240.921875 272.308594 264.171875 C 273.761719 293.234375 297.980469 301.03125 309.894531 304.710938 C 329.269531 310.960938 342.929688 316.433594 343.800781 331.644531 C 344.429688 344.285156 335.664062 358.527344 320.601562 359.253906 C 312.207031 359.675781 303.859375 359.242188 295.554688 357.953125 C 287.25 356.664062 279.160156 354.546875 271.289062 351.601562 C 277.070312 347.15625 282.371094 342.199219 287.195312 336.730469 C 292.019531 331.265625 296.273438 325.386719 299.964844 319.097656 L 296.769531 316 C 292.042969 322.503906 286.613281 328.359375 280.476562 333.558594 C 274.34375 338.757812 267.679688 343.160156 260.488281 346.757812 C 253.183594 343.164062 246.402344 338.769531 240.140625 333.574219 C 233.875 328.375 228.308594 322.515625 223.433594 316 L 220.09375 319.4375 C 223.796875 325.71875 228.097656 331.566406 232.992188 336.972656 C 237.882812 342.378906 243.273438 347.238281 249.15625 351.550781 C 242.550781 353.292969 235.832031 354.277344 229.003906 354.507812 C 200.667969 356.054688 184.152344 321.570312 182.019531 290.230469 C 181.050781 276.132812 182.457031 258.890625 187.25 248.671875 C 187.707031 247.460938 188.242188 246.285156 188.859375 245.148438 C 189.472656 244.011719 190.164062 242.921875 190.929688 241.878906 C 191.695312 240.835938 192.527344 239.851562 193.429688 238.925781 C 194.328125 237.996094 195.289062 237.132812 196.304688 236.335938 C 197.324219 235.539062 198.390625 234.8125 199.507812 234.164062 C 200.625 233.511719 201.78125 232.941406 202.976562 232.449219 C 204.175781 231.957031 205.398438 231.546875 206.648438 231.222656 C 207.902344 230.894531 209.167969 230.65625 210.453125 230.507812 C 212.703125 230.519531 214.929688 230.75 217.132812 231.195312 C 219.335938 231.644531 221.476562 232.296875 223.554688 233.164062 C 225.628906 234.027344 227.601562 235.082031 229.472656 236.332031 C 231.34375 237.578125 233.078125 238.996094 234.671875 240.582031 C 240.738281 246.023438 245.660156 252.351562 249.445312 259.570312 L 254.820312 256.179688 L 238.742188 214.375 C 238.855469 216.519531 238.558594 218.609375 237.855469 220.636719 C 237.152344 222.664062 236.089844 224.484375 234.671875 226.097656 C 233.457031 227.152344 232.050781 227.78125 230.457031 227.988281 C 227.535156 228.167969 224.691406 227.761719 221.933594 226.777344 C 217.335938 225.371094 212.636719 224.820312 207.835938 225.128906 C 179.984375 227.066406 161.484375 265.234375 164.242188 304.375 C 167.246094 348.742188 195.050781 368.796875 220.238281 369.714844 C 227.21875 369.984375 234.101562 369.296875 240.890625 367.648438 C 247.679688 366.003906 254.117188 363.464844 260.199219 360.027344 C 265.445312 364.191406 270.886719 368.082031 276.523438 371.703125 C 276.964844 371.058594 277.449219 370.453125 277.976562 369.882812 C 278.503906 369.308594 279.070312 368.777344 279.671875 368.285156 C 280.277344 367.792969 280.910156 367.34375 281.578125 366.945312 C 282.246094 366.542969 282.9375 366.191406 283.65625 365.886719 C 284.371094 365.582031 285.109375 365.332031 285.859375 365.132812 C 286.613281 364.9375 287.375 364.792969 288.148438 364.703125 C 288.921875 364.613281 289.699219 364.578125 290.476562 364.597656 C 291.257812 364.617188 292.027344 364.691406 292.796875 364.824219 C 296.28125 365.015625 299.738281 365.453125 303.164062 366.132812 C 309.601562 367.027344 316.0625 367.191406 322.539062 366.617188 C 338.910156 365.839844 357.558594 349.03125 356.445312 323.070312 Z M 356.445312 323.070312 " fill-opacity="1" fill-rule="nonzero"/><path fill="#ffffff" d="M 242.859375 498.414062 L 223.820312 500.640625 L 220.914062 482.527344 L 218.058594 500.640625 L 198.972656 498.414062 L 216.265625 506.117188 L 207.351562 524.183594 L 220.914062 509.507812 L 234.527344 524.183594 L 225.613281 506.117188 Z M 242.859375 498.414062 " fill-opacity="1" fill-rule="nonzero"/><path fill="#ffffff" d="M 284.660156 474.292969 L 265.574219 476.519531 L 262.71875 458.453125 L 259.859375 476.519531 L 240.773438 474.292969 L 258.019531 481.992188 L 249.105469 500.0625 L 262.71875 485.382812 L 276.328125 500.0625 L 267.414062 481.992188 Z M 284.660156 474.292969 " fill-opacity="1" fill-rule="nonzero"/><path fill="#ffffff" d="M 326.460938 450.171875 L 307.375 452.398438 L 304.519531 434.332031 L 301.613281 452.398438 L 282.578125 450.171875 L 299.820312 457.871094 L 290.90625 475.9375 L 304.519531 461.261719 L 318.082031 475.9375 L 309.167969 457.871094 Z M 326.460938 450.171875 " fill-opacity="1" fill-rule="nonzero"/><path fill="#ffffff" d="M 368.214844 426.046875 L 349.179688 428.277344 L 346.273438 410.210938 L 343.414062 428.277344 L 324.328125 426.046875 L 341.621094 433.75 L 332.660156 451.816406 L 346.273438 437.140625 L 359.882812 451.816406 L 350.96875 433.75 Z M 368.214844 426.046875 " fill-opacity="1" fill-rule="nonzero"/><path fill="#ffffff" d="M 410.015625 401.925781 L 390.929688 404.15625 L 388.074219 386.085938 L 385.214844 404.15625 L 366.132812 401.925781 L 383.375 409.628906 L 374.460938 427.695312 L 388.074219 413.019531 L 401.683594 427.695312 L 392.773438 409.628906 Z M 410.015625 401.925781 " fill-opacity="1" fill-rule="nonzero"/><path fill="#ffffff" d="M 451.816406 377.804688 L 432.734375 380.03125 L 429.875 361.964844 L 426.96875 380.03125 L 407.933594 377.804688 L 425.175781 385.507812 L 416.265625 403.574219 L 429.875 388.898438 L 443.484375 403.574219 L 434.523438 385.507812 Z M 451.816406 377.804688 " fill-opacity="1" fill-rule="nonzero"/><path fill="#ffffff" d="M 493.570312 353.683594 L 474.535156 355.910156 L 471.628906 337.84375 L 468.769531 355.910156 L 449.6875 353.683594 L 466.976562 361.382812 L 458.015625 379.453125 L 471.628906 364.824219 L 485.238281 379.453125 L 476.328125 361.382812 Z M 493.570312 353.683594 " fill-opacity="1" fill-rule="nonzero"/><path fill="#ffffff" d="M 535.371094 329.5625 L 516.289062 331.789062 L 513.429688 313.722656 L 510.523438 331.789062 L 491.488281 329.5625 L 508.730469 337.3125 L 499.820312 355.328125 L 513.429688 340.703125 L 527.039062 355.328125 L 518.128906 337.3125 Z M 535.371094 329.5625 " fill-opacity="1" fill-rule="nonzero"/><path fill="#ffffff" d="M 577.125 305.488281 L 558.089844 307.667969 L 555.230469 289.601562 L 552.324219 307.667969 L 533.289062 305.488281 L 550.53125 313.1875 L 541.621094 331.257812 L 555.230469 316.578125 L 568.792969 331.257812 L 559.882812 313.1875 Z M 577.125 305.488281 " fill-opacity="1" fill-rule="nonzero"/><path fill="#ffffff" d="M 618.925781 281.367188 L 599.890625 283.546875 L 596.984375 265.476562 L 594.125 283.546875 L 575.042969 281.367188 L 592.335938 289.066406 L 583.375 307.132812 L 596.984375 292.457031 L 610.59375 307.132812 L 601.683594 289.066406 Z M 618.925781 281.367188 " fill-opacity="1" fill-rule="nonzero"/><path fill="#ffffff" d="M 660.726562 257.242188 L 641.644531 259.472656 L 638.785156 241.355469 L 635.878906 259.472656 L 616.84375 257.242188 L 634.085938 264.945312 L 625.175781 283.011719 L 638.785156 268.335938 L 652.398438 283.011719 L 643.4375 264.945312 Z M 660.726562 257.242188 " fill-opacity="1" fill-rule="nonzero"/></svg>