<svg xmlns="http://www.w3.org/2000/svg" xmlns:xlink="http://www.w3.org/1999/xlink" width="1080" zoomAndPan="magnify" viewBox="0 0 810 809.999993" height="1080" preserveAspectRatio="xMidYMid meet" version="1.0"><path fill="#ffffff" d="M 738.191406 180.742188 C 729.003906 89.339844 706.96875 31.238281 706.027344 28.816406 L 695.851562 2.335938 L 679.644531 25.558594 C 675.851562 30.460938 671.789062 35.136719 667.464844 39.582031 C 663.136719 44.027344 658.574219 48.214844 653.777344 52.144531 C 648.976562 56.074219 643.972656 59.71875 638.761719 63.082031 C 633.546875 66.445312 628.164062 69.503906 622.605469 72.257812 C 617.046875 75.011719 611.351562 77.441406 605.519531 79.550781 C 599.6875 81.660156 593.753906 83.433594 587.71875 84.871094 C 581.683594 86.304688 575.589844 87.398438 569.433594 88.148438 C 563.273438 88.894531 557.09375 89.292969 550.894531 89.339844 C 547.679688 89.339844 544.472656 89.25 541.265625 89.066406 C 538.058594 88.882812 534.859375 88.605469 531.671875 88.238281 C 528.480469 87.871094 525.300781 87.414062 522.136719 86.863281 C 518.972656 86.316406 515.828125 85.675781 512.699219 84.945312 C 509.574219 84.214844 506.46875 83.398438 503.386719 82.488281 C 500.308594 81.582031 497.253906 80.585938 494.230469 79.503906 C 491.207031 78.421875 488.21875 77.253906 485.261719 75.996094 C 482.304688 74.742188 479.386719 73.40625 476.507812 71.984375 C 473.625 70.5625 470.789062 69.058594 467.996094 67.472656 C 465.203125 65.890625 462.457031 64.226562 459.757812 62.484375 C 457.0625 60.742188 454.414062 58.925781 451.820312 57.03125 C 449.226562 55.136719 446.6875 53.171875 444.207031 51.132812 C 441.726562 49.09375 439.304688 46.984375 436.945312 44.804688 C 434.585938 42.625 432.289062 40.382812 430.058594 38.074219 C 427.828125 35.761719 425.664062 33.390625 423.566406 30.957031 C 421.472656 28.523438 419.449219 26.03125 417.496094 23.480469 L 405.144531 5.449219 C 405.144531 5.449219 392.742188 23.53125 392.742188 23.53125 C 390.789062 26.078125 388.765625 28.570312 386.671875 31.003906 C 384.574219 33.4375 382.410156 35.808594 380.179688 38.117188 C 377.945312 40.425781 375.648438 42.667969 373.289062 44.84375 C 370.929688 47.019531 368.507812 49.128906 366.027344 51.167969 C 363.546875 53.203125 361.007812 55.171875 358.414062 57.0625 C 355.820312 58.957031 353.171875 60.773438 350.472656 62.511719 C 347.777344 64.253906 345.03125 65.914062 342.238281 67.5 C 339.441406 69.082031 336.605469 70.585938 333.726562 72.003906 C 330.847656 73.425781 327.929688 74.761719 324.972656 76.015625 C 322.015625 77.269531 319.027344 78.4375 316.003906 79.519531 C 312.980469 80.601562 309.925781 81.59375 306.847656 82.503906 C 303.765625 83.410156 300.664062 84.226562 297.535156 84.957031 C 294.40625 85.683594 291.261719 86.324219 288.097656 86.871094 C 284.933594 87.421875 281.757812 87.878906 278.566406 88.242188 C 275.375 88.609375 272.179688 88.882812 268.972656 89.066406 C 265.765625 89.25 262.558594 89.339844 259.347656 89.339844 C 253.148438 89.289062 246.96875 88.886719 240.816406 88.136719 C 234.660156 87.386719 228.566406 86.292969 222.535156 84.851562 C 216.507812 83.414062 210.574219 81.640625 204.746094 79.53125 C 198.914062 77.421875 193.222656 74.988281 187.667969 72.234375 C 182.113281 69.484375 176.730469 66.425781 171.519531 63.0625 C 166.308594 59.703125 161.304688 56.058594 156.507812 52.128906 C 151.710938 48.203125 147.148438 44.015625 142.824219 39.574219 C 138.5 35.132812 134.441406 30.457031 130.644531 25.554688 L 114.390625 2.582031 C 114.390625 2.582031 104.507812 28.816406 104.507812 28.816406 C 103.570312 31.238281 81.535156 89.339844 72.34375 180.742188 C 70.828125 195.617188 69.753906 210.523438 69.121094 225.464844 C 68.492188 240.402344 68.304688 255.347656 68.558594 270.300781 C 68.816406 285.25 69.515625 300.179688 70.660156 315.089844 C 71.804688 330 73.390625 344.859375 75.417969 359.675781 C 77.441406 374.492188 79.90625 389.230469 82.808594 403.902344 C 85.714844 418.570312 89.046875 433.136719 92.816406 447.609375 C 96.585938 462.078125 100.777344 476.425781 105.398438 490.644531 C 110.019531 504.867188 115.058594 518.9375 120.515625 532.859375 C 124.828125 543.730469 129.53125 554.433594 134.625 564.964844 C 139.714844 575.492188 145.183594 585.824219 151.027344 595.957031 C 156.871094 606.089844 163.074219 615.996094 169.640625 625.675781 C 176.203125 635.355469 183.113281 644.785156 190.363281 653.964844 C 197.613281 663.140625 205.1875 672.046875 213.085938 680.671875 C 220.984375 689.300781 229.183594 697.628906 237.6875 705.660156 C 246.191406 713.691406 254.976562 721.402344 264.039062 728.792969 C 273.105469 736.183594 282.425781 743.238281 292.003906 749.949219 C 350.699219 791.15625 398.769531 805.976562 400.699219 806.621094 L 405.09375 807.953125 L 409.492188 806.621094 C 411.46875 805.976562 459.542969 791.15625 518.1875 749.949219 C 527.777344 743.242188 537.109375 736.191406 546.183594 728.804688 C 555.261719 721.417969 564.054688 713.707031 572.570312 705.679688 C 581.085938 697.652344 589.296875 689.324219 597.207031 680.695312 C 605.117188 672.070312 612.699219 663.167969 619.960938 653.988281 C 627.222656 644.8125 634.140625 635.378906 640.714844 625.699219 C 647.289062 616.015625 653.503906 606.109375 659.355469 595.972656 C 665.210938 585.839844 670.6875 575.507812 675.789062 564.972656 C 680.890625 554.441406 685.601562 543.734375 689.921875 532.859375 C 695.382812 518.9375 700.425781 504.867188 705.050781 490.648438 C 709.675781 476.429688 713.875 462.082031 717.644531 447.613281 C 721.417969 433.144531 724.757812 418.574219 727.664062 403.90625 C 730.570312 389.238281 733.039062 374.496094 735.070312 359.679688 C 737.101562 344.867188 738.691406 330.003906 739.839844 315.09375 C 740.988281 300.1875 741.691406 285.253906 741.953125 270.304688 C 742.214844 255.351562 742.03125 240.40625 741.402344 225.46875 C 740.777344 210.527344 739.707031 195.617188 738.191406 180.742188 Z M 738.191406 180.742188 " fill-opacity="1" fill-rule="nonzero"/><path fill="#ffffff" d="M 691.996094 34.203125 C 686.738281 40.957031 681.035156 47.3125 674.890625 53.269531 C 668.742188 59.230469 662.214844 64.730469 655.300781 69.777344 C 648.386719 74.824219 641.152344 79.367188 633.605469 83.40625 C 626.058594 87.441406 618.265625 90.9375 610.230469 93.886719 C 605.933594 86.425781 602.425781 81.335938 602.425781 81.335938 C 602.328125 86.574219 601.851562 91.78125 600.992188 96.949219 C 584.660156 101.898438 567.960938 104.351562 550.894531 104.308594 C 547.382812 104.296875 543.871094 104.1875 540.367188 103.972656 C 536.863281 103.761719 533.367188 103.449219 529.878906 103.035156 C 526.390625 102.621094 522.917969 102.109375 519.460938 101.5 C 516 100.890625 512.5625 100.179688 509.144531 99.371094 C 505.726562 98.5625 502.335938 97.660156 498.96875 96.660156 C 495.605469 95.65625 492.269531 94.558594 488.964844 93.367188 C 485.664062 92.175781 482.398438 90.890625 479.167969 89.511719 C 475.9375 88.132812 472.75 86.664062 469.605469 85.101562 C 466.457031 83.539062 463.359375 81.890625 460.308594 80.152344 C 457.257812 78.414062 454.257812 76.589844 451.3125 74.679688 C 448.363281 72.769531 445.472656 70.777344 442.640625 68.703125 C 439.808594 66.628906 437.035156 64.472656 434.324219 62.242188 C 431.613281 60.007812 428.972656 57.699219 426.394531 55.3125 C 423.816406 52.929688 421.308594 50.472656 418.871094 47.945312 C 416.429688 45.417969 414.066406 42.820312 411.777344 40.160156 C 409.488281 37.496094 407.277344 34.769531 405.144531 31.980469 C 403.011719 34.769531 400.800781 37.5 398.515625 40.164062 C 396.226562 42.832031 393.863281 45.429688 391.425781 47.957031 C 388.988281 50.488281 386.484375 52.949219 383.90625 55.335938 C 381.328125 57.722656 378.683594 60.03125 375.976562 62.269531 C 373.265625 64.503906 370.496094 66.660156 367.664062 68.738281 C 364.828125 70.816406 361.9375 72.808594 358.992188 74.722656 C 356.046875 76.632812 353.046875 78.460938 349.996094 80.199219 C 346.945312 81.941406 343.84375 83.59375 340.699219 85.15625 C 337.554688 86.71875 334.367188 88.191406 331.136719 89.570312 C 327.90625 90.953125 324.640625 92.242188 321.335938 93.433594 C 318.03125 94.628906 314.695312 95.726562 311.332031 96.730469 C 307.964844 97.734375 304.570312 98.640625 301.152344 99.449219 C 297.734375 100.261719 294.296875 100.972656 290.835938 101.585938 C 287.378906 102.195312 283.90625 102.710938 280.417969 103.125 C 276.929688 103.539062 273.429688 103.851562 269.925781 104.066406 C 266.417969 104.28125 262.910156 104.394531 259.394531 104.410156 C 167.351562 104.410156 118.292969 34.203125 118.292969 34.203125 C 118.292969 34.203125 29.65625 264.585938 134.25 527.328125 C 147.53125 560.835938 164.460938 592.390625 185.039062 621.988281 L 181.828125 630.78125 L 191.316406 630.78125 C 282.074219 754.792969 405.144531 792.195312 405.144531 792.195312 C 405.144531 792.195312 593.480469 734.980469 676.039062 527.328125 C 780.632812 264.585938 691.996094 34.203125 691.996094 34.203125 Z M 691.996094 34.203125 " fill-opacity="1" fill-rule="nonzero"/><path fill="#d39e46" d="M 541.359375 611.960938 C 542.84375 613.679688 543.949219 615.617188 544.667969 617.773438 C 545.386719 619.929688 545.667969 622.140625 545.507812 624.410156 C 545.597656 625.746094 545.558594 627.078125 545.390625 628.410156 C 545.222656 629.738281 544.925781 631.039062 544.5 632.308594 C 544.078125 633.578125 543.535156 634.796875 542.871094 635.960938 C 542.210938 637.128906 541.441406 638.21875 540.566406 639.230469 C 539.523438 640.320312 538.304688 641.15625 536.914062 641.742188 C 535.523438 642.324219 534.074219 642.609375 532.5625 642.589844 C 531.132812 642.679688 529.742188 642.480469 528.390625 641.992188 C 527.042969 641.5 525.847656 640.761719 524.808594 639.773438 C 523.460938 638.117188 522.476562 636.265625 521.855469 634.222656 C 521.230469 632.179688 521.011719 630.09375 521.199219 627.96875 C 521.050781 625.101562 521.433594 622.304688 522.347656 619.585938 C 523.261719 616.863281 524.640625 614.402344 526.488281 612.207031 C 526.96875 611.714844 527.496094 611.273438 528.066406 610.886719 C 528.636719 610.496094 529.242188 610.167969 529.878906 609.902344 C 530.515625 609.636719 531.171875 609.433594 531.847656 609.296875 C 532.523438 609.160156 533.207031 609.09375 533.898438 609.09375 C 534.585938 609.09375 535.269531 609.160156 535.949219 609.296875 C 536.625 609.433594 537.28125 609.636719 537.917969 609.902344 C 538.554688 610.167969 539.15625 610.496094 539.726562 610.886719 C 540.296875 611.273438 540.824219 611.714844 541.308594 612.207031 Z M 676.039062 527.328125 C 593.480469 734.832031 405.144531 792.195312 405.144531 792.195312 C 405.144531 792.195312 282.074219 754.792969 191.316406 630.78125 L 420.804688 630.78125 L 456.429688 531.96875 L 458.800781 525.351562 L 410.085938 525.351562 L 446.203125 425.746094 L 566.554688 425.746094 L 573.917969 405.292969 L 576.335938 398.671875 L 596.101562 343.335938 C 642.988281 319.671875 662.550781 285.136719 670.703125 260.285156 C 679.84375 232.371094 678.015625 220.761719 675.644531 209.25 C 673.273438 197.738281 669.714844 183.507812 669.714844 183.507812 C 671.429688 176.574219 672.5 169.542969 672.925781 162.410156 C 673.714844 147.972656 673.535156 133.546875 672.382812 119.132812 C 672.382812 119.132812 655.289062 147.835938 642.738281 160.140625 C 637.28125 165.472656 631.023438 169.589844 623.964844 172.492188 C 626.238281 155.101562 629.25 142.5 623.125 123.085938 C 620.785156 116.085938 617.902344 109.316406 614.480469 102.777344 C 612.898438 99.765625 611.316406 96.898438 609.882812 94.332031 C 617.921875 91.375 625.71875 87.871094 633.265625 83.828125 C 640.816406 79.78125 648.046875 75.230469 654.960938 70.175781 C 661.878906 65.121094 668.40625 59.609375 674.550781 53.644531 C 680.695312 47.675781 686.394531 41.3125 691.652344 34.546875 C 691.652344 34.546875 780.632812 264.585938 676.039062 527.328125 Z M 465.863281 717.539062 L 466.308594 715.019531 L 477.375 655.734375 L 451.289062 657.117188 L 450.992188 662.898438 L 461.222656 662.898438 L 460.726562 665.367188 L 451.339844 715.859375 L 451.042969 717.589844 L 439.382812 717.589844 L 438.296875 722.976562 L 475.351562 722.976562 L 476.339844 717.738281 L 465.863281 717.738281 Z M 557.464844 618.285156 C 556.933594 616.714844 556.21875 615.238281 555.316406 613.847656 C 554.414062 612.460938 553.355469 611.203125 552.136719 610.082031 C 550.921875 608.960938 549.582031 608.003906 548.125 607.21875 C 546.667969 606.433594 545.136719 605.839844 543.53125 605.4375 C 542.6875 605.207031 541.835938 605.015625 540.976562 604.859375 C 540.117188 604.707031 539.25 604.589844 538.378906 604.515625 C 537.507812 604.4375 536.636719 604.398438 535.761719 604.402344 C 534.886719 604.402344 534.015625 604.445312 533.144531 604.523438 C 532.273438 604.605469 531.40625 604.722656 530.546875 604.882812 C 529.6875 605.039062 528.835938 605.238281 527.992188 605.472656 C 527.152344 605.707031 526.320312 605.976562 525.503906 606.285156 C 524.6875 606.59375 523.882812 606.941406 523.097656 607.320312 C 522.308594 607.703125 521.539062 608.117188 520.792969 608.566406 C 520.042969 609.019531 519.3125 609.5 518.609375 610.015625 C 517.902344 610.53125 517.21875 611.078125 516.5625 611.65625 C 515.90625 612.230469 515.277344 612.835938 514.671875 613.46875 C 514.070312 614.101562 513.496094 614.761719 512.953125 615.445312 C 512.410156 616.132812 511.898438 616.839844 511.417969 617.570312 C 510.9375 618.300781 510.492188 619.050781 510.078125 619.824219 C 509.667969 620.59375 509.289062 621.382812 508.949219 622.1875 C 508.453125 623.089844 508.046875 624.03125 507.726562 625.011719 C 507.402344 625.988281 507.167969 626.988281 507.027344 628.007812 C 506.882812 629.027344 506.835938 630.050781 506.875 631.082031 C 506.917969 632.109375 507.050781 633.128906 507.277344 634.132812 C 507.503906 635.136719 507.816406 636.113281 508.21875 637.0625 C 508.617188 638.011719 509.101562 638.917969 509.664062 639.777344 C 510.230469 640.640625 510.867188 641.441406 511.578125 642.191406 C 512.285156 642.9375 513.054688 643.613281 513.886719 644.222656 C 514.855469 644.808594 515.859375 645.320312 516.902344 645.753906 C 517.945312 646.1875 519.015625 646.542969 520.109375 646.820312 C 521.207031 647.09375 522.316406 647.285156 523.441406 647.394531 C 524.570312 647.5 525.695312 647.523438 526.824219 647.460938 C 527.953125 647.402344 529.070312 647.253906 530.175781 647.027344 C 531.285156 646.796875 532.367188 646.488281 533.425781 646.09375 C 534.488281 645.703125 535.511719 645.234375 536.503906 644.6875 C 537.492188 644.140625 538.433594 643.527344 539.332031 642.839844 L 544.273438 639.429688 L 542.394531 645.257812 C 538.640625 656.671875 533.402344 664.082031 526.734375 667.246094 C 525.511719 667.800781 524.246094 668.21875 522.933594 668.503906 C 521.621094 668.785156 520.292969 668.929688 518.953125 668.929688 C 517.609375 668.929688 516.28125 668.785156 514.972656 668.503906 C 513.660156 668.21875 512.394531 667.800781 511.171875 667.246094 L 509.539062 666.601562 L 509.886719 664.921875 L 510.378906 662.105469 L 503.957031 662.105469 L 502.078125 671.988281 C 512.800781 675.59375 538.886719 675.050781 548.523438 661.265625 C 559.09375 646.742188 562.304688 630.585938 557.464844 618.285156 Z M 621.101562 534.292969 C 620.566406 532.730469 619.847656 531.253906 618.945312 529.871094 C 618.042969 528.488281 616.980469 527.238281 615.765625 526.121094 C 614.546875 525 613.210938 524.050781 611.753906 523.269531 C 610.300781 522.484375 608.769531 521.894531 607.167969 521.496094 C 606.324219 521.261719 605.472656 521.066406 604.613281 520.910156 C 603.753906 520.753906 602.886719 520.632812 602.015625 520.554688 C 601.144531 520.476562 600.273438 520.4375 599.398438 520.4375 C 598.523438 520.433594 597.652344 520.472656 596.78125 520.550781 C 595.910156 520.628906 595.042969 520.746094 594.183594 520.902344 C 593.324219 521.058594 592.472656 521.253906 591.628906 521.488281 C 590.785156 521.722656 589.957031 521.992188 589.136719 522.300781 C 588.320312 522.605469 587.515625 522.949219 586.730469 523.332031 C 585.941406 523.710938 585.171875 524.125 584.421875 524.574219 C 583.671875 525.023438 582.945312 525.507812 582.238281 526.023438 C 581.53125 526.539062 580.847656 527.082031 580.191406 527.660156 C 579.535156 528.238281 578.90625 528.839844 578.300781 529.476562 C 577.699219 530.109375 577.125 530.769531 576.582031 531.453125 C 576.039062 532.136719 575.527344 532.847656 575.046875 533.578125 C 574.570312 534.308594 574.125 535.058594 573.710938 535.832031 C 573.300781 536.601562 572.921875 537.390625 572.582031 538.195312 C 572.089844 539.101562 571.679688 540.046875 571.359375 541.027344 C 571.035156 542.003906 570.800781 543.007812 570.660156 544.027344 C 570.515625 545.050781 570.464844 546.078125 570.507812 547.109375 C 570.546875 548.140625 570.683594 549.160156 570.90625 550.164062 C 571.132812 551.171875 571.445312 552.152344 571.847656 553.101562 C 572.25 554.054688 572.730469 554.960938 573.296875 555.824219 C 573.863281 556.6875 574.5 557.492188 575.210938 558.242188 C 575.917969 558.992188 576.691406 559.671875 577.523438 560.28125 C 578.488281 560.867188 579.496094 561.378906 580.539062 561.8125 C 581.582031 562.246094 582.652344 562.601562 583.75 562.875 C 584.847656 563.148438 585.960938 563.335938 587.085938 563.445312 C 588.210938 563.550781 589.339844 563.570312 590.46875 563.507812 C 591.597656 563.445312 592.714844 563.296875 593.820312 563.0625 C 594.925781 562.832031 596.011719 562.519531 597.070312 562.125 C 598.128906 561.730469 599.152344 561.257812 600.140625 560.707031 C 601.128906 560.160156 602.074219 559.539062 602.96875 558.847656 L 607.90625 555.4375 L 606.03125 561.269531 C 602.277344 572.679688 597.039062 580.09375 590.417969 583.253906 C 589.195312 583.816406 587.921875 584.242188 586.605469 584.527344 C 585.289062 584.816406 583.960938 584.960938 582.613281 584.960938 C 581.265625 584.960938 579.933594 584.816406 578.617188 584.527344 C 577.300781 584.242188 576.03125 583.816406 574.804688 583.253906 L 573.175781 582.613281 L 573.519531 580.933594 L 574.015625 578.117188 L 568.183594 578.117188 L 566.308594 587.996094 C 577.027344 591.554688 603.117188 591.011719 612.75 577.277344 C 622.53125 562.847656 625.941406 546.742188 621.097656 534.390625 Z M 663.242188 441.707031 C 662.710938 440.140625 661.992188 438.667969 661.085938 437.285156 C 660.183594 435.902344 659.125 434.648438 657.90625 433.53125 C 656.691406 432.414062 655.355469 431.464844 653.898438 430.679688 C 652.445312 429.898438 650.914062 429.308594 649.308594 428.910156 C 648.46875 428.675781 647.617188 428.480469 646.757812 428.324219 C 645.894531 428.164062 645.03125 428.046875 644.160156 427.96875 C 643.289062 427.890625 642.417969 427.847656 641.542969 427.847656 C 640.667969 427.847656 639.796875 427.886719 638.925781 427.964844 C 638.054688 428.042969 637.1875 428.160156 636.328125 428.316406 C 635.46875 428.472656 634.617188 428.667969 633.773438 428.902344 C 632.929688 429.132812 632.101562 429.402344 631.28125 429.710938 C 630.460938 430.019531 629.660156 430.363281 628.871094 430.742188 C 628.085938 431.125 627.316406 431.539062 626.566406 431.988281 C 625.816406 432.4375 625.089844 432.921875 624.382812 433.433594 C 623.675781 433.949219 622.992188 434.496094 622.335938 435.074219 C 621.679688 435.648438 621.046875 436.253906 620.445312 436.886719 C 619.84375 437.519531 619.269531 438.179688 618.726562 438.867188 C 618.183594 439.550781 617.671875 440.257812 617.191406 440.988281 C 616.710938 441.722656 616.265625 442.472656 615.855469 443.242188 C 615.441406 444.015625 615.066406 444.804688 614.726562 445.609375 C 614.234375 446.515625 613.828125 447.460938 613.507812 448.4375 C 613.1875 449.417969 612.957031 450.421875 612.8125 451.441406 C 612.671875 452.464844 612.621094 453.488281 612.664062 454.519531 C 612.707031 455.550781 612.839844 456.570312 613.066406 457.574219 C 613.292969 458.582031 613.605469 459.558594 614.003906 460.511719 C 614.40625 461.460938 614.886719 462.367188 615.453125 463.230469 C 616.015625 464.09375 616.652344 464.902344 617.359375 465.652344 C 618.066406 466.402344 618.835938 467.082031 619.667969 467.691406 C 620.636719 468.277344 621.644531 468.789062 622.691406 469.222656 C 623.734375 469.65625 624.808594 470.011719 625.90625 470.285156 C 627.007812 470.558594 628.121094 470.746094 629.246094 470.851562 C 630.375 470.957031 631.503906 470.980469 632.636719 470.917969 C 633.765625 470.851562 634.886719 470.707031 635.992188 470.472656 C 637.101562 470.242188 638.1875 469.929688 639.25 469.535156 C 640.3125 469.140625 641.335938 468.667969 642.328125 468.117188 C 643.320312 467.570312 644.261719 466.949219 645.160156 466.261719 L 650.101562 462.851562 L 648.175781 468.679688 C 644.46875 480.09375 639.183594 487.503906 632.5625 490.667969 C 631.335938 491.230469 630.066406 491.652344 628.75 491.941406 C 627.433594 492.226562 626.101562 492.371094 624.753906 492.371094 C 623.410156 492.371094 622.078125 492.226562 620.761719 491.941406 C 619.445312 491.652344 618.175781 491.230469 616.949219 490.667969 L 615.367188 490.023438 L 615.664062 488.34375 L 616.207031 485.527344 L 609.734375 485.527344 L 607.90625 495.410156 C 618.578125 499.015625 644.714844 498.472656 654.300781 484.738281 C 664.875 470.261719 668.132812 454.15625 663.242188 441.804688 Z M 597.828125 525.003906 C 596.414062 524.992188 595.050781 525.257812 593.746094 525.808594 C 592.441406 526.359375 591.300781 527.144531 590.320312 528.167969 C 588.476562 530.367188 587.097656 532.828125 586.1875 535.546875 C 585.273438 538.269531 584.890625 541.0625 585.03125 543.925781 C 584.847656 546.0625 585.066406 548.15625 585.6875 550.203125 C 586.3125 552.253906 587.296875 554.113281 588.640625 555.785156 C 589.6875 556.761719 590.882812 557.496094 592.230469 557.984375 C 593.578125 558.472656 594.964844 558.679688 596.394531 558.601562 C 597.902344 558.605469 599.351562 558.316406 600.738281 557.734375 C 602.128906 557.152344 603.347656 556.320312 604.398438 555.242188 C 605.273438 554.226562 606.042969 553.136719 606.703125 551.96875 C 607.363281 550.804688 607.90625 549.585938 608.328125 548.316406 C 608.753906 547.046875 609.050781 545.746094 609.21875 544.417969 C 609.390625 543.089844 609.429688 541.753906 609.339844 540.417969 C 609.496094 538.15625 609.21875 535.949219 608.507812 533.792969 C 607.796875 531.636719 606.710938 529.695312 605.238281 527.96875 C 604.246094 527.007812 603.109375 526.273438 601.824219 525.761719 C 600.542969 525.246094 599.210938 524.996094 597.828125 525.003906 Z M 640.023438 432.417969 C 638.601562 432.378906 637.234375 432.636719 635.925781 433.1875 C 634.617188 433.738281 633.476562 434.535156 632.511719 435.578125 C 631.589844 436.664062 630.777344 437.828125 630.074219 439.066406 C 629.371094 440.304688 628.792969 441.597656 628.335938 442.949219 C 627.878906 444.296875 627.554688 445.679688 627.359375 447.089844 C 627.164062 448.5 627.101562 449.917969 627.175781 451.339844 C 626.984375 453.480469 627.203125 455.574219 627.835938 457.628906 C 628.46875 459.679688 629.46875 461.539062 630.832031 463.195312 C 631.867188 464.179688 633.054688 464.914062 634.394531 465.402344 C 635.734375 465.894531 637.117188 466.097656 638.539062 466.011719 C 640.050781 466.015625 641.507812 465.722656 642.902344 465.140625 C 644.300781 464.558594 645.53125 463.730469 646.59375 462.652344 C 647.46875 461.636719 648.234375 460.546875 648.894531 459.382812 C 649.558594 458.21875 650.097656 457 650.523438 455.730469 C 650.945312 454.457031 651.242188 453.160156 651.414062 451.828125 C 651.582031 450.5 651.625 449.167969 651.535156 447.832031 C 651.691406 445.5625 651.414062 443.351562 650.695312 441.195312 C 649.972656 439.039062 648.871094 437.101562 647.382812 435.382812 C 646.363281 434.398438 645.195312 433.648438 643.878906 433.136719 C 642.558594 432.621094 641.191406 432.382812 639.773438 432.417969 Z M 263.597656 525.101562 L 300.007812 425.5 L 181.433594 425.5 L 188.84375 405.046875 L 191.265625 398.425781 L 208.65625 350.796875 L 227.28125 299.613281 L 245.957031 248.28125 L 378.859375 248.28125 C 381.402344 241.878906 384.609375 235.832031 388.484375 230.140625 C 392.359375 224.445312 396.808594 219.246094 401.835938 214.535156 C 403.910156 212.609375 406.132812 210.78125 408.453125 209.003906 C 417.503906 202.191406 427.382812 196.957031 438.097656 193.289062 C 472.683594 181.382812 475.546875 175.703125 480.636719 159.101562 C 484.6875 145.710938 494.867188 117.304688 498.671875 106.683594 L 500.152344 102.582031 C 500.152344 102.582031 500.597656 104.410156 501.238281 107.523438 C 503.265625 116.265625 507.5625 134.84375 509.984375 144.824219 C 513.195312 158.210938 515.765625 165.671875 516.949219 173.082031 C 526.519531 167.523438 536.710938 163.585938 547.535156 161.277344 C 584.441406 153.863281 592.839844 122.640625 596 115.230469 C 597.074219 112.769531 597.980469 110.25 598.71875 107.667969 C 599.703125 104.207031 600.476562 100.699219 601.039062 97.144531 C 584.707031 102.09375 568.007812 104.550781 550.941406 104.507812 C 547.429688 104.492188 543.917969 104.378906 540.40625 104.164062 C 536.898438 103.949219 533.402344 103.632812 529.910156 103.21875 C 526.421875 102.804688 522.945312 102.289062 519.484375 101.675781 C 516.023438 101.0625 512.582031 100.347656 509.164062 99.539062 C 505.742188 98.726562 502.347656 97.820312 498.980469 96.8125 C 495.613281 95.808594 492.273438 94.707031 488.96875 93.511719 C 485.664062 92.316406 482.398438 91.027344 479.164062 89.644531 C 475.933594 88.261719 472.746094 86.785156 469.597656 85.222656 C 466.453125 83.65625 463.351562 82 460.300781 80.257812 C 457.246094 78.515625 454.246094 76.6875 451.300781 74.773438 C 448.351562 72.859375 445.460938 70.859375 442.628906 68.78125 C 439.792969 66.699219 437.023438 64.542969 434.3125 62.304688 C 431.601562 60.066406 428.957031 57.75 426.382812 55.359375 C 423.804688 52.972656 421.296875 50.511719 418.859375 47.976562 C 416.421875 45.445312 414.0625 42.84375 411.773438 40.175781 C 409.484375 37.503906 407.277344 34.773438 405.144531 31.980469 C 403.011719 34.769531 400.800781 37.5 398.515625 40.164062 C 396.226562 42.832031 393.863281 45.429688 391.425781 47.957031 C 388.988281 50.488281 386.484375 52.949219 383.90625 55.335938 C 381.328125 57.722656 378.683594 60.03125 375.976562 62.269531 C 373.265625 64.503906 370.496094 66.660156 367.664062 68.738281 C 364.828125 70.816406 361.9375 72.808594 358.992188 74.722656 C 356.046875 76.632812 353.046875 78.460938 349.996094 80.199219 C 346.945312 81.941406 343.84375 83.59375 340.699219 85.15625 C 337.554688 86.71875 334.367188 88.191406 331.136719 89.570312 C 327.90625 90.953125 324.640625 92.242188 321.335938 93.433594 C 318.03125 94.628906 314.695312 95.726562 311.332031 96.730469 C 307.964844 97.734375 304.570312 98.640625 301.152344 99.449219 C 297.734375 100.261719 294.296875 100.972656 290.835938 101.585938 C 287.378906 102.195312 283.90625 102.710938 280.417969 103.125 C 276.929688 103.539062 273.429688 103.851562 269.925781 104.066406 C 266.417969 104.28125 262.910156 104.394531 259.394531 104.410156 C 167.351562 104.410156 118.292969 34.203125 118.292969 34.203125 C 118.292969 34.203125 29.65625 264.585938 134.25 527.328125 C 147.53125 560.835938 164.460938 592.390625 185.039062 621.988281 L 189.042969 610.972656 L 220.117188 525.101562 Z M 303.121094 185.238281 L 305.738281 185.238281 L 305.738281 184.347656 L 310.382812 159.25 L 310.382812 157.914062 L 307.960938 157.914062 L 308.457031 155.347656 L 331.035156 155.347656 C 332.351562 155.390625 333.609375 155.675781 334.8125 156.207031 C 336.019531 156.734375 337.082031 157.46875 338 158.410156 C 338.898438 159.441406 339.554688 160.613281 339.96875 161.917969 C 340.378906 163.222656 340.515625 164.558594 340.375 165.917969 C 340.449219 167.460938 340.367188 168.996094 340.128906 170.519531 C 339.886719 172.042969 339.496094 173.53125 338.953125 174.972656 C 338.410156 176.417969 337.722656 177.792969 336.898438 179.097656 C 336.070312 180.402344 335.121094 181.609375 334.050781 182.71875 C 333.175781 183.582031 332.21875 184.347656 331.179688 185.007812 C 330.140625 185.667969 329.042969 186.210938 327.890625 186.636719 C 326.734375 187.066406 325.546875 187.363281 324.328125 187.535156 C 323.109375 187.707031 321.886719 187.75 320.660156 187.660156 L 302.773438 187.660156 Z M 256.480469 155.59375 L 288.644531 155.59375 L 287.605469 160.929688 L 285.136719 160.929688 L 285.136719 158.164062 L 275.253906 158.164062 L 275.253906 159.101562 L 270.613281 184.152344 L 270.363281 185.484375 L 272.984375 185.484375 L 272.488281 187.953125 L 260.136719 187.953125 L 260.484375 185.484375 L 263.300781 185.484375 L 263.300781 184.59375 L 267.84375 159.496094 L 267.84375 158.164062 L 258.851562 158.164062 L 258.851562 159.050781 L 258.457031 160.929688 L 255.839844 160.929688 Z M 209.792969 182.324219 L 211.867188 182.324219 L 211.570312 183.804688 L 211.570312 184.84375 L 212.609375 184.84375 C 214.113281 185.277344 215.644531 185.554688 217.203125 185.683594 L 217.402344 185.683594 C 218.980469 185.683594 222.339844 185.683594 223.429688 183.261719 L 223.726562 182.71875 C 225.007812 180.199219 225.601562 177.777344 220.316406 173.875 L 218.785156 172.933594 C 214.386719 169.574219 212.410156 167.996094 213.351562 163.054688 C 214.535156 156.679688 221.058594 154.40625 226.789062 154.40625 C 229.34375 154.371094 231.882812 154.585938 234.398438 155.050781 L 233.359375 160.683594 L 231.085938 160.683594 L 231.085938 158.609375 L 230.542969 158.113281 C 228.304688 157.242188 226.015625 157.078125 223.675781 157.621094 C 223.382812 157.65625 223.097656 157.71875 222.820312 157.8125 C 222.542969 157.902344 222.273438 158.019531 222.019531 158.164062 C 221.761719 158.304688 221.519531 158.472656 221.296875 158.660156 C 221.070312 158.847656 220.867188 159.058594 220.683594 159.285156 C 220.496094 159.515625 220.335938 159.757812 220.199219 160.015625 C 220.058594 160.273438 219.949219 160.546875 219.863281 160.824219 C 219.773438 161.105469 219.714844 161.390625 219.683594 161.683594 C 219.652344 161.976562 219.648438 162.269531 219.671875 162.558594 C 219.671875 164.636719 221.355469 165.773438 223.824219 167.5 C 224.8125 168.191406 225.898438 168.933594 227.132812 169.921875 C 231.53125 173.378906 232.074219 175.40625 232.074219 177.679688 C 232.082031 178.433594 231.996094 179.179688 231.816406 179.914062 C 231.640625 180.652344 231.375 181.351562 231.019531 182.019531 C 230.667969 182.691406 230.234375 183.304688 229.730469 183.867188 C 229.222656 184.425781 228.652344 184.917969 228.023438 185.335938 C 226.523438 186.460938 224.867188 187.269531 223.058594 187.761719 C 221.25 188.257812 219.414062 188.402344 217.550781 188.203125 L 216.3125 188.203125 C 213.765625 188.261719 211.230469 188.113281 208.707031 187.757812 Z M 161.769531 185.238281 L 164.339844 185.238281 L 164.339844 184.347656 L 169.03125 159.25 L 169.28125 157.914062 L 166.710938 157.914062 L 167.253906 155.347656 L 191.609375 155.347656 L 190.574219 160.683594 L 188.300781 160.683594 L 188.300781 157.917969 L 176.441406 157.917969 L 176.441406 158.855469 L 174.8125 168.242188 L 174.8125 169.574219 L 185.929688 169.574219 L 185.484375 172.195312 L 173.875 172.195312 L 173.875 173.082031 L 171.800781 183.902344 L 171.800781 185.238281 L 184.300781 185.238281 L 184.300781 183.015625 L 186.570312 183.015625 L 185.730469 187.707031 L 161.324219 187.707031 Z M 318.4375 185.238281 L 312.902344 185.238281 L 312.902344 183.902344 L 317.84375 158.855469 L 317.84375 157.914062 L 322.785156 157.914062 C 323.582031 157.808594 324.378906 157.8125 325.171875 157.925781 C 325.96875 158.039062 326.734375 158.253906 327.46875 158.578125 C 328.207031 158.898438 328.886719 159.316406 329.507812 159.824219 C 330.128906 160.332031 330.671875 160.914062 331.132812 161.570312 C 331.675781 162.75 332.0625 163.976562 332.292969 165.253906 C 332.527344 166.53125 332.601562 167.8125 332.515625 169.109375 C 332.429688 170.402344 332.1875 171.664062 331.785156 172.898438 C 331.382812 174.132812 330.835938 175.296875 330.144531 176.394531 C 329.949219 177.015625 329.703125 177.621094 329.414062 178.203125 C 329.121094 178.789062 328.789062 179.347656 328.410156 179.882812 C 328.03125 180.414062 327.617188 180.914062 327.160156 181.382812 C 326.707031 181.851562 326.21875 182.285156 325.699219 182.679688 C 325.175781 183.070312 324.628906 183.421875 324.054688 183.734375 C 323.476562 184.042969 322.882812 184.304688 322.265625 184.523438 C 321.648438 184.738281 321.019531 184.90625 320.378906 185.027344 C 319.738281 185.148438 319.089844 185.21875 318.4375 185.238281 Z M 318.4375 185.238281 " fill-opacity="1" fill-rule="nonzero"/><path fill="#27348b" d="M 203.222656 630.78125 L 401.835938 630.78125 L 401.835938 781.125 C 392.054688 777.269531 382.417969 773.085938 372.921875 768.570312 C 363.429688 764.058594 354.097656 759.226562 344.933594 754.078125 C 335.769531 748.929688 326.789062 743.476562 317.996094 737.714844 C 309.199219 731.957031 300.613281 725.902344 292.230469 719.558594 C 283.847656 713.214844 275.691406 706.589844 267.761719 699.691406 C 259.832031 692.789062 252.144531 685.628906 244.699219 678.203125 C 237.257812 670.78125 230.074219 663.113281 223.152344 655.199219 C 216.230469 647.289062 209.589844 639.148438 203.222656 630.78125 Z M 263.597656 525.101562 L 300.007812 425.5 L 181.433594 425.5 L 188.84375 405.046875 L 107.570312 405.046875 C 115.875 445.617188 127.683594 485.140625 142.996094 523.621094 C 155.160156 554.339844 170.511719 583.371094 189.042969 610.722656 L 220.117188 524.855469 Z M 438.050781 193.289062 C 427.335938 196.957031 417.453125 202.191406 408.40625 209.003906 L 408.40625 50.902344 C 414.464844 57.507812 420.945312 63.667969 427.847656 69.386719 C 434.753906 75.101562 442.015625 80.320312 449.636719 85.039062 C 457.257812 89.757812 465.164062 93.933594 473.359375 97.566406 C 481.554688 101.195312 489.957031 104.253906 498.570312 106.730469 C 494.769531 117.351562 484.589844 145.761719 480.539062 159.152344 C 475.5 175.703125 472.832031 181.382812 438.050781 193.289062 Z M 688.339844 53.175781 C 683.261719 58.628906 677.886719 63.777344 672.214844 68.617188 C 666.546875 73.457031 660.617188 77.953125 654.429688 82.113281 C 648.242188 86.269531 641.835938 90.0625 635.214844 93.484375 C 628.59375 96.90625 621.796875 99.9375 614.824219 102.582031 C 618.25 109.117188 621.128906 115.886719 623.472656 122.886719 C 629.597656 142.648438 626.582031 155 624.3125 172.292969 C 631.371094 169.394531 637.628906 165.277344 643.085938 159.941406 C 655.386719 147.640625 672.730469 118.933594 672.730469 118.933594 C 673.878906 133.347656 674.0625 147.777344 673.273438 162.214844 C 672.84375 169.34375 671.773438 176.375 670.0625 183.3125 C 670.0625 183.3125 673.816406 197.492188 675.988281 209.050781 C 678.164062 220.613281 679.992188 232.171875 671.050781 260.089844 C 662.898438 284.792969 643.332031 319.375 596.445312 343.140625 L 576.683594 398.476562 L 704.597656 398.476562 C 707.324219 384.191406 709.628906 369.839844 711.507812 355.417969 C 713.390625 341 714.84375 326.539062 715.871094 312.03125 C 716.902344 297.527344 717.503906 283.003906 717.675781 268.460938 C 717.847656 253.921875 717.59375 239.386719 716.910156 224.863281 C 716.226562 210.335938 715.113281 195.84375 713.574219 181.382812 C 712.039062 166.921875 710.074219 152.519531 707.6875 138.175781 C 705.300781 123.832031 702.496094 109.570312 699.265625 95.390625 C 696.039062 81.210938 692.398438 67.140625 688.339844 53.175781 Z M 516.902344 172.933594 C 526.46875 167.375 536.664062 163.4375 547.484375 161.128906 C 584.390625 153.714844 592.789062 122.492188 595.953125 115.082031 C 597.027344 112.621094 597.933594 110.101562 598.667969 107.523438 C 583.015625 111.683594 567.089844 113.726562 550.894531 113.648438 C 534.046875 113.683594 517.480469 111.558594 501.191406 107.273438 C 503.214844 116.019531 507.515625 134.597656 509.933594 144.578125 C 513.148438 158.113281 515.714844 165.574219 516.902344 172.933594 Z M 516.902344 172.933594 " fill-opacity="1" fill-rule="nonzero"/><path fill="#27348b" d="M 95.515625 196.996094 L 401.835938 196.996094 L 401.835938 214.535156 C 396.808594 219.246094 392.359375 224.445312 388.484375 230.140625 C 384.609375 235.832031 381.402344 241.878906 378.859375 248.28125 L 93.046875 248.28125 C 93.34375 230.34375 94.183594 213.203125 95.515625 196.996094 Z M 98.824219 350.796875 L 208.65625 350.796875 L 227.28125 299.613281 L 93.886719 299.613281 C 95.023438 316.214844 96.503906 333.308594 98.824219 350.796875 Z M 259.394531 113.648438 C 252.277344 113.671875 245.179688 113.28125 238.105469 112.472656 C 231.03125 111.664062 224.03125 110.441406 217.101562 108.8125 C 210.167969 107.179688 203.359375 105.152344 196.667969 102.71875 C 189.972656 100.289062 183.449219 97.476562 177.085938 94.28125 L 111.078125 94.28125 C 107.769531 109.101562 104.359375 126.195312 101.445312 145.5625 L 401.835938 145.5625 L 401.835938 94.429688 L 343.683594 94.429688 C 337.148438 97.625 330.449219 100.4375 323.585938 102.859375 C 316.726562 105.285156 309.75 107.304688 302.652344 108.921875 C 295.558594 110.539062 288.394531 111.746094 281.160156 112.535156 C 273.929688 113.324219 266.671875 113.695312 259.394531 113.648438 Z M 660.328125 429.847656 C 663.414062 432.703125 665.703125 436.097656 667.195312 440.027344 C 672.136719 452.722656 669.566406 468.78125 660.328125 483.699219 L 660.328125 540.222656 C 662.734375 534.785156 665.054688 529.253906 667.292969 523.621094 C 682.605469 485.140625 694.414062 445.617188 702.71875 405.046875 L 660.328125 405.046875 Z M 501.089844 675.839844 L 499.363281 675.25 L 497.632812 674.707031 L 497.980469 672.878906 L 498.277344 671.097656 L 500.152344 661.21875 L 500.449219 659.488281 L 500.796875 657.757812 L 507.414062 657.757812 L 507.414062 643.628906 C 506.78125 642.816406 506.203125 641.960938 505.6875 641.070312 C 505.171875 640.175781 504.722656 639.25 504.339844 638.289062 C 503.953125 637.332031 503.636719 636.351562 503.394531 635.351562 C 503.148438 634.347656 502.972656 633.332031 502.871094 632.304688 C 502.769531 631.277344 502.738281 630.25 502.78125 629.21875 C 502.824219 628.1875 502.941406 627.164062 503.128906 626.148438 C 503.316406 625.132812 503.574219 624.136719 503.90625 623.160156 C 504.234375 622.179688 504.628906 621.230469 505.09375 620.308594 C 505.777344 618.765625 506.550781 617.265625 507.414062 615.8125 L 507.414062 425.5 L 456.429688 425.5 L 456.429688 525.101562 L 458.800781 525.101562 L 456.429688 531.722656 L 456.429688 652.421875 L 477.179688 651.285156 L 482.515625 651.285156 L 482.019531 653.90625 L 481.527344 656.523438 L 470.90625 713.539062 L 481.378906 713.539062 L 480.882812 716.058594 L 480.441406 718.527344 L 479.5 723.765625 L 479.203125 725.496094 L 478.910156 727.222656 L 456.429688 727.222656 L 456.429688 759.386719 C 474.101562 749.867188 491.097656 739.261719 507.414062 727.570312 L 507.414062 677.570312 C 505.273438 677.230469 503.164062 676.738281 501.089844 676.089844 Z M 564.726562 591.851562 L 562.996094 591.308594 L 561.269531 590.714844 L 561.613281 588.886719 L 561.910156 587.109375 L 563.789062 577.226562 L 564.085938 575.496094 L 564.429688 573.769531 L 579.253906 573.769531 L 578.757812 576.238281 L 578.3125 578.757812 L 578.3125 579.796875 C 580.054688 580.390625 581.84375 580.636719 583.683594 580.535156 C 585.519531 580.429688 587.269531 579.988281 588.9375 579.203125 C 591.648438 577.597656 593.992188 575.566406 595.964844 573.105469 C 597.941406 570.648438 599.417969 567.921875 600.398438 564.925781 C 598.421875 565.882812 596.359375 566.574219 594.203125 567.003906 C 592.050781 567.433594 589.878906 567.585938 587.6875 567.460938 C 585.496094 567.335938 583.355469 566.9375 581.265625 566.265625 C 579.175781 565.589844 577.203125 564.667969 575.347656 563.492188 C 574.304688 562.757812 573.332031 561.933594 572.433594 561.023438 C 571.535156 560.117188 570.726562 559.132812 570.007812 558.078125 C 569.289062 557.019531 568.667969 555.910156 568.148438 554.742188 C 567.628906 553.574219 567.21875 552.367188 566.914062 551.125 C 566.613281 549.882812 566.425781 548.625 566.351562 547.351562 C 566.277344 546.074219 566.316406 544.800781 566.46875 543.53125 C 566.625 542.265625 566.890625 541.019531 567.273438 539.800781 C 567.652344 538.578125 568.136719 537.402344 568.730469 536.269531 C 569.117188 535.347656 569.542969 534.445312 570.011719 533.558594 C 570.480469 532.675781 570.988281 531.816406 571.535156 530.976562 C 572.082031 530.140625 572.667969 529.328125 573.285156 528.542969 C 573.90625 527.757812 574.558594 527.003906 575.246094 526.277344 C 575.9375 525.550781 576.65625 524.855469 577.40625 524.195312 C 578.15625 523.535156 578.933594 522.90625 579.742188 522.316406 C 580.550781 521.726562 581.382812 521.171875 582.238281 520.65625 C 583.097656 520.140625 583.976562 519.664062 584.875 519.226562 C 585.773438 518.792969 586.691406 518.394531 587.628906 518.042969 C 588.566406 517.6875 589.515625 517.378906 590.476562 517.109375 C 591.441406 516.84375 592.414062 516.617188 593.398438 516.4375 C 594.382812 516.257812 595.375 516.121094 596.371094 516.03125 C 597.367188 515.941406 598.363281 515.894531 599.363281 515.894531 C 600.367188 515.894531 601.363281 515.9375 602.359375 516.027344 C 603.355469 516.117188 604.347656 516.253906 605.332031 516.429688 C 606.316406 516.609375 607.289062 516.832031 608.253906 517.097656 L 609.539062 517.445312 L 609.539062 500.003906 C 608.699219 499.757812 607.859375 499.558594 607.117188 499.265625 L 605.339844 498.71875 L 603.609375 498.128906 L 603.957031 496.300781 L 604.300781 494.519531 L 606.128906 484.640625 L 606.476562 482.910156 L 606.773438 481.179688 L 609.539062 481.179688 L 609.539062 459.542969 C 608.585938 455.820312 608.585938 452.097656 609.539062 448.375 L 609.539062 405.144531 L 573.867188 405.144531 L 566.503906 425.597656 L 558.304688 425.597656 L 558.304688 611.121094 C 559.535156 612.894531 560.539062 614.789062 561.316406 616.800781 C 562.324219 619.792969 563.023438 622.859375 563.402344 625.992188 C 563.785156 629.128906 563.847656 632.269531 563.589844 635.417969 C 563.328125 638.566406 562.753906 641.652344 561.863281 644.683594 C 560.976562 647.714844 559.789062 650.625 558.304688 653.410156 L 558.304688 685.277344 C 576.9375 667.59375 593.933594 648.457031 609.292969 627.867188 L 609.292969 586.464844 C 596.25 595.851562 575.101562 595.703125 564.726562 592.195312 Z M 602.027344 530.734375 C 603.117188 532.054688 603.914062 533.53125 604.417969 535.167969 C 604.921875 536.800781 605.097656 538.46875 604.945312 540.171875 C 604.945312 548.472656 601.4375 554.007812 596.148438 554.007812 C 595.25 554.117188 594.367188 554.035156 593.503906 553.757812 C 592.640625 553.484375 591.875 553.039062 591.207031 552.425781 C 590.261719 551.15625 589.578125 549.757812 589.160156 548.230469 C 588.742188 546.707031 588.617188 545.15625 588.789062 543.582031 C 588.660156 541.269531 588.949219 539.007812 589.652344 536.804688 C 590.359375 534.597656 591.4375 532.59375 592.886719 530.785156 C 593.472656 530.164062 594.152344 529.6875 594.9375 529.351562 C 595.71875 529.019531 596.535156 528.851562 597.382812 528.859375 C 598.28125 528.875 599.136719 529.078125 599.949219 529.46875 C 600.757812 529.855469 601.453125 530.394531 602.027344 531.082031 Z M 602.027344 530.734375 " fill-opacity="1" fill-rule="nonzero"/><path fill="#e4032e" d="M 456.429688 425.5 L 456.429688 525.101562 L 410.085938 525.101562 L 446.203125 425.5 Z M 438.296875 726.878906 L 433.355469 726.878906 L 433.898438 724.359375 L 434.394531 721.839844 L 435.480469 716.453125 L 435.824219 714.773438 L 436.171875 713.042969 L 447.78125 713.042969 L 456.378906 666.800781 L 446.746094 666.800781 L 446.746094 662.355469 L 447.042969 656.574219 L 447.042969 652.820312 L 450.796875 652.820312 L 456.132812 652.523438 L 456.132812 531.722656 L 420.511719 630.535156 L 408.160156 630.535156 L 408.160156 781.125 C 424.644531 774.882812 440.636719 767.554688 456.132812 759.140625 L 456.132812 726.976562 Z M 507.464844 615.910156 L 507.464844 425.5 L 558.304688 425.5 L 558.304688 611.019531 C 557.519531 609.78125 556.625 608.632812 555.617188 607.570312 C 554.609375 606.507812 553.507812 605.550781 552.3125 604.707031 C 551.117188 603.859375 549.851562 603.132812 548.515625 602.535156 C 547.179688 601.933594 545.796875 601.46875 544.371094 601.140625 C 538.246094 600.003906 518.382812 597.484375 507.414062 616.011719 Z M 552.375 663.6875 C 542.890625 677.273438 521.300781 679.644531 507.464844 677.472656 L 507.464844 727.222656 C 525.386719 714.390625 542.335938 700.375 558.304688 685.179688 L 558.304688 653.3125 C 556.621094 656.980469 554.628906 660.472656 552.324219 663.785156 Z M 533.996094 612.996094 C 533.136719 612.984375 532.3125 613.148438 531.519531 613.480469 C 530.730469 613.816406 530.039062 614.296875 529.449219 614.921875 C 528.019531 616.738281 526.957031 618.75 526.257812 620.953125 C 525.5625 623.15625 525.273438 625.410156 525.398438 627.71875 C 525.238281 629.292969 525.367188 630.84375 525.785156 632.367188 C 526.203125 633.894531 526.878906 635.292969 527.820312 636.5625 C 528.488281 637.175781 529.253906 637.621094 530.117188 637.898438 C 530.980469 638.175781 531.863281 638.257812 532.761719 638.144531 C 538 638.144531 541.554688 632.5625 541.554688 624.3125 C 541.707031 622.601562 541.527344 620.925781 541.023438 619.285156 C 540.519531 617.640625 539.726562 616.15625 538.640625 614.824219 C 538.015625 614.214844 537.296875 613.761719 536.476562 613.460938 C 535.660156 613.15625 534.816406 613.035156 533.945312 613.097656 Z M 513.34375 657.90625 L 515.863281 657.90625 L 515.371094 660.378906 L 514.925781 662.847656 L 514.925781 663.886719 C 516.667969 664.472656 518.453125 664.71875 520.289062 664.625 C 522.121094 664.53125 523.875 664.101562 525.546875 663.34375 C 528.261719 661.734375 530.605469 659.703125 532.578125 657.246094 C 534.550781 654.785156 536.027344 652.058594 537.011719 649.0625 C 535.03125 650.011719 532.96875 650.699219 530.816406 651.125 C 528.664062 651.550781 526.492188 651.703125 524.300781 651.578125 C 522.109375 651.453125 519.96875 651.054688 517.878906 650.386719 C 515.789062 649.71875 513.816406 648.800781 511.960938 647.628906 C 510.339844 646.535156 508.910156 645.234375 507.664062 643.726562 L 507.664062 657.859375 L 513.542969 657.859375 Z M 644.222656 438.394531 C 645.308594 439.714844 646.105469 441.191406 646.609375 442.824219 C 647.117188 444.460938 647.289062 446.128906 647.136719 447.832031 C 647.136719 456.132812 643.628906 461.664062 638.34375 461.664062 C 637.445312 461.769531 636.5625 461.683594 635.699219 461.410156 C 634.839844 461.132812 634.074219 460.691406 633.402344 460.085938 C 632.453125 458.816406 631.773438 457.417969 631.355469 455.890625 C 630.9375 454.363281 630.8125 452.816406 630.980469 451.242188 C 630.851562 448.929688 631.140625 446.667969 631.847656 444.464844 C 632.554688 442.257812 633.632812 440.25 635.082031 438.445312 C 635.371094 438.144531 635.6875 437.878906 636.03125 437.640625 C 636.375 437.40625 636.742188 437.207031 637.125 437.042969 C 637.507812 436.882812 637.90625 436.757812 638.3125 436.675781 C 638.722656 436.59375 639.136719 436.550781 639.554688 436.550781 C 639.96875 436.550781 640.382812 436.59375 640.792969 436.675781 C 641.199219 436.757812 641.597656 436.882812 641.980469 437.042969 C 642.363281 437.207031 642.730469 437.40625 643.074219 437.640625 C 643.417969 437.878906 643.734375 438.144531 644.023438 438.445312 Z M 658.152344 487.257812 C 647.730469 502.078125 622.679688 503.5625 609.390625 500.253906 L 609.390625 517.691406 C 611.183594 518.234375 612.886719 518.972656 614.507812 519.914062 C 616.125 520.851562 617.617188 521.964844 618.976562 523.25 C 620.335938 524.539062 621.527344 525.960938 622.554688 527.527344 C 623.582031 529.09375 624.414062 530.753906 625.050781 532.515625 C 630.4375 546.148438 627.078125 563.738281 616.011719 579.597656 C 614.1875 582.160156 611.980469 584.335938 609.390625 586.121094 L 609.390625 627.421875 C 629.65625 600.234375 646.652344 571.132812 660.378906 540.121094 L 660.378906 484.195312 C 659.652344 485.183594 658.894531 486.238281 658.105469 487.355469 Z M 616.605469 481.429688 L 621.542969 481.429688 L 621.101562 483.898438 L 620.65625 486.417969 L 620.65625 487.457031 C 622.386719 488.050781 624.167969 488.296875 626 488.195312 C 627.828125 488.09375 629.570312 487.648438 631.226562 486.863281 C 633.941406 485.253906 636.292969 483.21875 638.273438 480.761719 C 640.253906 478.304688 641.742188 475.578125 642.738281 472.585938 C 640.757812 473.539062 638.691406 474.230469 636.53125 474.65625 C 634.375 475.085938 632.199219 475.238281 630.003906 475.113281 C 627.808594 474.988281 625.664062 474.589844 623.570312 473.917969 C 621.476562 473.246094 619.5 472.324219 617.640625 471.152344 C 615.628906 469.8125 613.921875 468.160156 612.519531 466.191406 C 611.113281 464.226562 610.105469 462.074219 609.488281 459.738281 L 609.488281 481.378906 L 616.703125 481.378906 Z M 610.972656 443.929688 C 611.359375 443.015625 611.789062 442.125 612.257812 441.25 C 612.726562 440.375 613.234375 439.527344 613.777344 438.699219 C 614.324219 437.871094 614.90625 437.066406 615.523438 436.292969 C 616.140625 435.515625 616.789062 434.769531 617.472656 434.050781 C 618.15625 433.332031 618.871094 432.644531 619.617188 431.992188 C 620.363281 431.339844 621.136719 430.71875 621.9375 430.136719 C 622.738281 429.550781 623.5625 429.003906 624.414062 428.492188 C 625.261719 427.980469 626.132812 427.511719 627.027344 427.078125 C 627.917969 426.644531 628.828125 426.253906 629.753906 425.902344 C 630.683594 425.550781 631.625 425.242188 632.578125 424.976562 C 633.535156 424.707031 634.5 424.484375 635.472656 424.304688 C 636.449219 424.125 637.429688 423.988281 638.417969 423.894531 C 639.402344 423.800781 640.394531 423.753906 641.382812 423.75 C 642.375 423.746094 643.367188 423.789062 644.355469 423.871094 C 645.339844 423.957031 646.324219 424.085938 647.300781 424.257812 C 648.277344 424.433594 649.242188 424.648438 650.199219 424.90625 C 654.039062 425.753906 657.417969 427.5 660.328125 430.144531 L 660.328125 405.144531 L 609.339844 405.144531 L 609.339844 448.769531 C 609.730469 447.144531 610.257812 445.5625 610.921875 444.027344 Z M 93.046875 248.28125 L 246.203125 248.28125 L 227.28125 299.613281 L 93.886719 299.613281 C 93.144531 281.875 92.847656 264.730469 93.046875 248.28125 Z M 106.285156 398.425781 L 191.414062 398.425781 L 208.65625 350.796875 L 98.824219 350.796875 C 100.652344 366.410156 103.125 382.269531 106.285156 398.425781 Z M 95.515625 196.996094 L 401.835938 196.996094 L 401.835938 145.710938 L 101.445312 145.710938 C 99.074219 161.472656 96.996094 178.617188 95.515625 196.996094 Z M 300.304688 188.695312 L 301.09375 183.753906 L 301.390625 182.816406 L 304.058594 182.816406 L 308.308594 159.992188 L 305.886719 159.992188 L 306.132812 158.65625 L 307.023438 153.714844 L 307.023438 152.828125 L 331.035156 152.828125 C 332.660156 152.867188 334.214844 153.214844 335.699219 153.863281 C 337.1875 154.515625 338.5 155.417969 339.632812 156.582031 C 340.765625 157.828125 341.597656 159.253906 342.121094 160.855469 C 342.648438 162.457031 342.824219 164.09375 342.644531 165.773438 C 342.710938 167.449219 342.605469 169.117188 342.332031 170.773438 C 342.058594 172.429688 341.621094 174.042969 341.015625 175.609375 C 340.414062 177.175781 339.660156 178.667969 338.75 180.082031 C 337.84375 181.496094 336.804688 182.800781 335.628906 184.003906 C 334.667969 184.976562 333.613281 185.839844 332.46875 186.585938 C 331.324219 187.335938 330.113281 187.957031 328.832031 188.445312 C 327.554688 188.933594 326.238281 189.285156 324.886719 189.492188 C 323.535156 189.703125 322.175781 189.765625 320.808594 189.683594 L 300.105469 189.683594 Z M 253.21875 161.621094 L 254.457031 154.0625 L 254.457031 153.125 L 291.511719 153.125 L 291.214844 154.457031 L 289.730469 162.015625 L 289.730469 162.90625 L 282.519531 162.90625 L 282.519531 160.1875 L 277.378906 160.1875 L 273.179688 182.816406 L 275.800781 182.816406 L 275.800781 184.152344 L 274.859375 189.089844 L 274.859375 189.980469 L 258.0625 189.980469 L 258.0625 188.695312 L 258.753906 183.753906 L 258.753906 182.816406 L 261.570312 182.816406 L 265.71875 159.992188 L 260.78125 159.992188 L 260.382812 161.820312 L 260.382812 162.707031 L 252.972656 162.707031 Z M 206.234375 188.5 L 207.765625 180.988281 L 207.765625 180.097656 L 214.386719 180.097656 L 214.140625 181.433594 L 213.792969 183.164062 C 214.78125 183.425781 215.789062 183.589844 216.808594 183.65625 L 217.402344 183.65625 C 218.636719 183.65625 220.761719 183.65625 221.355469 182.472656 L 221.648438 181.878906 C 222.539062 180.246094 223.082031 179.210938 218.882812 175.898438 L 217.402344 174.714844 C 212.90625 171.253906 209.941406 168.984375 211.125 162.609375 C 212.3125 156.234375 218.339844 152.136719 226.789062 152.136719 C 229.9375 152.003906 233.035156 152.347656 236.078125 153.171875 L 236.964844 153.46875 L 236.964844 154.457031 L 235.53125 162.015625 L 235.53125 162.90625 L 228.664062 162.90625 L 228.664062 160.089844 C 227.019531 159.652344 225.371094 159.652344 223.726562 160.089844 C 221.898438 160.535156 221.402344 161.175781 221.453125 162.90625 C 221.453125 163.796875 222.488281 164.535156 224.613281 166.019531 C 225.601562 166.710938 226.738281 167.5 228.074219 168.539062 C 232.570312 172.09375 234.148438 174.714844 234 178.417969 C 233.996094 179.339844 233.882812 180.246094 233.65625 181.136719 C 233.433594 182.027344 233.105469 182.882812 232.675781 183.695312 C 232.246094 184.507812 231.726562 185.257812 231.113281 185.945312 C 230.503906 186.632812 229.820312 187.234375 229.0625 187.757812 C 227.339844 189.007812 225.453125 189.917969 223.40625 190.484375 C 221.355469 191.054688 219.273438 191.25 217.152344 191.066406 L 216.019531 191.066406 C 212.855469 191.113281 209.726562 190.816406 206.628906 190.179688 L 205.59375 190.179688 Z M 158.855469 188.5 L 159.695312 183.558594 L 159.695312 182.667969 L 162.261719 182.667969 L 166.511719 159.84375 L 163.894531 159.84375 L 164.191406 158.460938 L 165.179688 153.519531 L 165.179688 152.628906 L 194.128906 152.628906 L 193.835938 153.964844 L 192.699219 162.015625 L 192.699219 163.054688 L 185.730469 163.054688 L 185.730469 160.335938 L 178.371094 160.335938 L 177.085938 167.453125 L 188.25 167.453125 L 188.25 168.785156 L 187.410156 173.726562 L 187.410156 174.664062 L 175.75 174.664062 L 174.121094 182.816406 L 181.976562 182.816406 L 181.976562 180.542969 L 188.894531 180.542969 L 188.894531 181.878906 L 187.757812 189.042969 L 187.757812 189.980469 L 158.609375 189.980469 Z M 328.21875 175.457031 C 328.839844 174.519531 329.335938 173.523438 329.707031 172.46875 C 330.078125 171.410156 330.316406 170.324219 330.421875 169.207031 C 330.523438 168.089844 330.488281 166.976562 330.316406 165.871094 C 330.144531 164.761719 329.839844 163.691406 329.40625 162.660156 C 328.21875 160.78125 326.339844 160.039062 322.933594 160.039062 L 319.871094 160.039062 L 315.621094 182.816406 L 318.4375 182.816406 C 319.523438 182.796875 320.585938 182.609375 321.613281 182.257812 C 322.644531 181.910156 323.597656 181.410156 324.476562 180.765625 C 325.351562 180.121094 326.109375 179.355469 326.746094 178.476562 C 327.386719 177.59375 327.878906 176.636719 328.21875 175.601562 Z M 121.949219 53.175781 C 118.984375 63.054688 115.082031 76.839844 111.078125 94.429688 L 177.085938 94.429688 C 166.757812 89.222656 156.960938 83.15625 147.703125 76.226562 C 138.441406 69.296875 129.855469 61.613281 121.949219 53.175781 Z M 401.835938 50.851562 L 401.835938 94.429688 L 343.683594 94.429688 C 354.636719 89.023438 365 82.65625 374.777344 75.332031 C 384.550781 68.007812 393.570312 59.847656 401.835938 50.851562 Z M 401.835938 50.851562 " fill-opacity="1" fill-rule="nonzero"/><path fill="#ffffff" d="M 401.835938 630.78125 L 420.804688 630.78125 L 456.429688 531.96875 L 458.800781 525.351562 L 410.085938 525.351562 L 446.203125 425.746094 L 566.554688 425.746094 L 573.917969 405.292969 L 576.335938 398.671875 L 596.101562 343.335938 C 642.988281 319.671875 662.550781 285.136719 670.703125 260.285156 C 679.84375 232.371094 678.015625 220.761719 675.644531 209.25 C 673.273438 197.738281 669.714844 183.507812 669.714844 183.507812 C 671.429688 176.574219 672.5 169.542969 672.925781 162.410156 C 673.714844 147.972656 673.535156 133.546875 672.382812 119.132812 C 672.382812 119.132812 655.289062 147.835938 642.738281 160.140625 C 637.28125 165.472656 631.023438 169.589844 623.964844 172.492188 C 626.238281 155.101562 629.25 142.5 623.125 123.085938 C 620.785156 116.085938 617.902344 109.316406 614.480469 102.777344 C 612.898438 99.765625 611.316406 96.898438 609.882812 94.332031 C 605.585938 86.871094 602.078125 81.78125 602.078125 81.78125 C 601.980469 87.019531 601.503906 92.222656 600.644531 97.394531 C 600.082031 100.949219 599.308594 104.457031 598.324219 107.917969 C 597.585938 110.496094 596.679688 113.015625 595.605469 115.476562 C 592.445312 122.886719 584.046875 154.113281 547.136719 161.523438 C 536.460938 163.742188 526.382812 167.546875 516.902344 172.933594 C 515.714844 165.523438 513.148438 158.113281 509.933594 144.675781 C 507.515625 134.792969 503.214844 116.117188 501.191406 107.375 C 500.546875 104.359375 500.105469 102.433594 500.105469 102.433594 L 498.621094 106.535156 C 494.816406 117.15625 484.640625 145.5625 480.589844 158.953125 C 475.648438 175.554688 472.832031 181.234375 438.050781 193.144531 C 427.335938 196.808594 417.453125 202.042969 408.40625 208.855469 C 406.082031 210.632812 403.859375 212.460938 401.785156 214.386719 C 396.761719 219.097656 392.308594 224.296875 388.433594 229.992188 C 384.558594 235.683594 381.351562 241.730469 378.8125 248.132812 L 245.957031 248.132812 L 227.28125 299.613281 L 208.65625 350.796875 L 191.414062 398.328125 L 188.992188 405.144531 L 181.582031 425.597656 L 300.15625 425.597656 L 263.742188 525.203125 L 220.265625 525.203125 L 189.191406 611.070312 L 185.1875 622.085938 L 181.976562 630.882812 L 401.984375 630.882812 Z M 401.835938 630.78125 " fill-opacity="1" fill-rule="nonzero"/><path fill="#28348a" d="M 582.710938 331.035156 L 554.699219 408.851562 L 467.542969 408.851562 L 493.632812 337.160156 L 460.332031 337.160156 L 386.222656 541.554688 L 435.28125 541.554688 L 409.148438 614.132812 L 205.445312 614.132812 L 231.730469 541.554688 L 275.207031 541.554688 L 349.910156 337.160156 L 316.214844 337.160156 L 290.324219 408.851562 L 205.199219 408.851562 L 257.519531 264.878906 L 390.621094 264.878906 C 391.414062 261.621094 392.417969 258.425781 393.628906 255.296875 C 394.835938 252.164062 396.242188 249.125 397.847656 246.179688 C 399.449219 243.230469 401.234375 240.398438 403.203125 237.679688 C 405.171875 234.964844 407.308594 232.382812 409.613281 229.945312 C 411.914062 227.503906 414.363281 225.222656 416.964844 223.097656 C 419.5625 220.972656 422.285156 219.027344 425.136719 217.253906 C 427.984375 215.484375 430.9375 213.902344 433.992188 212.511719 C 437.046875 211.125 440.175781 209.9375 443.386719 208.953125 C 479.054688 196.75 491.011719 188.003906 496.742188 162.757812 C 503.019531 172.640625 502.078125 204.554688 502.078125 204.554688 C 505.441406 201.261719 509.003906 198.203125 512.773438 195.386719 C 516.539062 192.570312 520.480469 190.015625 524.589844 187.722656 C 528.699219 185.433594 532.945312 183.425781 537.324219 181.703125 C 541.703125 179.980469 546.175781 178.554688 550.746094 177.429688 C 600.152344 167.550781 607.214844 125.949219 607.214844 125.949219 C 611.070312 145.464844 609.292969 177.183594 602.277344 193.4375 C 621.59375 192.351562 642.246094 186.078125 655.683594 170.859375 C 653.339844 183.523438 649.605469 195.765625 644.484375 207.585938 C 639.363281 219.402344 632.984375 230.496094 625.347656 240.867188 C 650.695312 235.929688 660.230469 209.988281 660.230469 209.988281 C 660.230469 209.988281 671.9375 290.078125 582.710938 331.035156 Z M 342.496094 584.09375 L 333.40625 576.4375 L 331.183594 582.5625 L 322.191406 574.953125 L 327.132812 561.070312 L 319.328125 554.5 L 314.386719 568.433594 L 306.332031 561.566406 L 309.394531 553.265625 L 314.335938 557.414062 L 318.683594 545.507812 L 304.554688 533.601562 L 289.386719 574.855469 L 298.425781 582.511719 L 301.144531 575.054688 L 326.195312 596.050781 L 324.316406 600.992188 L 333.40625 608.648438 Z M 348.476562 567.839844 L 339.386719 560.230469 L 335.582031 570.507812 L 344.671875 578.164062 Z M 363.296875 527.820312 L 347.390625 514.480469 L 342.992188 526.535156 L 349.761719 532.265625 L 346.746094 540.46875 L 321.746094 519.371094 L 324.761719 511.171875 L 329.703125 515.371094 L 333.949219 503.808594 L 320.019531 492 L 312.164062 513.445312 C 311.746094 514.304688 311.410156 515.199219 311.152344 516.125 C 310.898438 517.046875 310.726562 517.984375 310.640625 518.941406 C 310.554688 519.894531 310.554688 520.847656 310.640625 521.804688 C 310.726562 522.757812 310.894531 523.695312 311.148438 524.621094 C 311.402344 525.542969 311.738281 526.4375 312.15625 527.300781 C 312.570312 528.164062 313.058594 528.984375 313.621094 529.757812 C 314.1875 530.535156 314.8125 531.253906 315.507812 531.914062 C 316.199219 532.578125 316.945312 533.171875 317.746094 533.699219 L 342.449219 554.648438 C 342.855469 555.136719 343.324219 555.5625 343.851562 555.921875 C 344.378906 556.28125 344.941406 556.5625 345.546875 556.761719 C 346.152344 556.964844 346.773438 557.082031 347.410156 557.109375 C 348.046875 557.140625 348.675781 557.082031 349.296875 556.933594 C 349.917969 556.789062 350.507812 556.558594 351.0625 556.25 C 351.621094 555.9375 352.125 555.558594 352.574219 555.109375 C 353.027344 554.65625 353.40625 554.15625 353.71875 553.597656 C 354.027344 553.042969 354.257812 552.453125 354.40625 551.832031 Z M 369.226562 511.617188 L 359.988281 503.957031 L 356.183594 514.332031 L 365.273438 521.941406 Z M 436.46875 298.675781 C 430.488281 293.734375 410.679688 276.835938 410.679688 276.835938 C 404.304688 271.894531 400.203125 273.328125 397.535156 280.542969 L 392.59375 293.882812 C 392.085938 295.019531 391.738281 296.199219 391.542969 297.429688 C 391.347656 298.660156 391.320312 299.894531 391.453125 301.128906 C 391.589844 302.367188 391.882812 303.566406 392.335938 304.722656 C 392.789062 305.882812 393.386719 306.960938 394.128906 307.960938 L 389.1875 303.664062 L 382.320312 322.339844 C 382.320312 322.339844 389.335938 333.457031 392.59375 338.546875 C 393.078125 339.34375 393.65625 340.070312 394.324219 340.71875 C 393.1875 340.117188 392.019531 339.589844 390.816406 339.136719 C 385.875 337.308594 377.871094 334.199219 377.871094 334.199219 L 366.609375 364.976562 L 381.429688 390.472656 L 362.65625 375.5 L 344.722656 424.363281 C 344.175781 425.609375 343.804688 426.910156 343.609375 428.253906 C 343.410156 429.601562 343.394531 430.953125 343.558594 432.304688 C 343.726562 433.65625 344.066406 434.960938 344.582031 436.21875 C 345.097656 437.480469 345.769531 438.648438 346.597656 439.730469 L 340.917969 434.789062 L 323.328125 482.761719 L 337.160156 494.769531 L 340.667969 485.183594 L 335.730469 480.738281 L 339.089844 471.449219 L 364.136719 492.542969 L 362.410156 497.140625 L 371.546875 504.796875 L 379.847656 482.019531 L 370.855469 474.3125 L 369.175781 478.859375 L 344.175781 457.761719 L 349.660156 442.941406 L 350.253906 443.484375 L 375.699219 464.828125 C 376.105469 465.328125 376.574219 465.757812 377.105469 466.121094 C 377.636719 466.484375 378.207031 466.765625 378.820312 466.964844 C 379.433594 467.160156 380.0625 467.269531 380.703125 467.285156 C 381.347656 467.300781 381.980469 467.222656 382.601562 467.058594 C 383.222656 466.890625 383.808594 466.636719 384.359375 466.300781 C 384.90625 465.964844 385.398438 465.558594 385.828125 465.078125 C 386.257812 464.601562 386.613281 464.070312 386.890625 463.492188 C 387.167969 462.910156 387.355469 462.300781 387.457031 461.664062 L 392.941406 446.84375 C 393.226562 446.085938 393.449219 445.308594 393.613281 444.515625 C 393.773438 443.722656 393.871094 442.917969 393.90625 442.109375 C 393.9375 441.300781 393.90625 440.492188 393.8125 439.6875 C 393.71875 438.882812 393.5625 438.089844 393.339844 437.3125 C 393.117188 436.53125 392.835938 435.773438 392.496094 435.039062 C 392.15625 434.304688 391.757812 433.601562 391.304688 432.929688 C 390.851562 432.257812 390.347656 431.625 389.792969 431.035156 C 389.238281 430.445312 388.640625 429.898438 388 429.402344 C 381.429688 423.671875 362.554688 407.910156 362.554688 407.910156 L 366.609375 396.84375 L 391.609375 417.890625 L 390.074219 422.140625 L 399.167969 429.75 L 405.738281 411.863281 L 389.136719 397.929688 L 391.804688 390.71875 L 408.355469 404.652344 L 416.359375 382.910156 L 407.269531 375.304688 L 404.207031 383.652344 L 388.890625 370.558594 L 385.777344 379.15625 L 378.417969 364.335938 L 383.058594 351.738281 L 402.824219 356.675781 L 411.371094 363.839844 L 409.738281 368.238281 L 418.832031 375.894531 L 426.933594 353.859375 L 417.84375 346.203125 L 416.261719 350.550781 L 407.515625 343.1875 L 394.375 320.957031 L 397.683594 311.867188 L 422.734375 333.011719 C 427.230469 336.71875 432.613281 338.695312 435.679688 329.949219 C 438.097656 323.476562 441.015625 315.472656 441.015625 315.472656 C 441.269531 314.746094 441.46875 314 441.609375 313.242188 C 441.75 312.484375 441.832031 311.71875 441.855469 310.949219 C 441.882812 310.179688 441.847656 309.410156 441.753906 308.644531 C 441.660156 307.878906 441.507812 307.125 441.300781 306.382812 C 441.089844 305.640625 440.828125 304.917969 440.507812 304.214844 C 440.1875 303.515625 439.816406 302.839844 439.394531 302.195312 C 438.972656 301.550781 438.503906 300.941406 437.988281 300.367188 C 437.472656 299.792969 436.917969 299.261719 436.320312 298.773438 Z M 354.75 429.007812 L 379.75 450.054688 L 382.714844 442 L 357.714844 420.90625 Z M 402.722656 298.230469 L 427.722656 319.277344 L 430.6875 311.222656 L 405.640625 290.226562 Z M 402.722656 298.230469 " fill-opacity="1" fill-rule="nonzero"/></svg>