<svg xmlns="http://www.w3.org/2000/svg" xmlns:xlink="http://www.w3.org/1999/xlink" width="1080" zoomAndPan="magnify" viewBox="0 0 810 809.999993" height="1080" preserveAspectRatio="xMidYMid meet" version="1.0"><path fill="#ffffff" d="M 90.789062 3.0625 L 90.789062 453.527344 C 90.789062 611.582031 196.667969 732.78125 396.894531 804.023438 L 404.984375 806.90625 L 413.074219 804.023438 C 613.300781 732.78125 719.179688 611.582031 719.179688 453.527344 L 719.179688 3.0625 Z M 90.789062 3.0625 " fill-opacity="1" fill-rule="nonzero"/><path fill="#054582" d="M 404.984375 409.484375 L 404.984375 507.476562 L 566.078125 453.527344 C 566.078125 504.089844 546.710938 544.539062 505.046875 581.398438 C 490.03125 594.09375 474.132812 605.574219 457.359375 615.839844 C 440.582031 626.105469 423.125 635.035156 404.984375 642.628906 C 386.839844 635.019531 369.382812 626.074219 352.605469 615.789062 C 335.832031 605.507812 319.9375 594.011719 304.921875 581.296875 C 263.410156 544.640625 243.894531 503.988281 243.894531 453.527344 L 243.894531 340.113281 C 243.886719 339 243.792969 337.894531 243.613281 336.796875 C 243.433594 335.699219 243.167969 334.621094 242.820312 333.5625 C 242.472656 332.503906 242.046875 331.480469 241.542969 330.488281 C 241.035156 329.5 240.457031 328.554688 239.800781 327.652344 C 239.148438 326.75 238.429688 325.90625 237.644531 325.117188 C 236.859375 324.328125 236.019531 323.601562 235.121094 322.945312 C 234.226562 322.285156 233.28125 321.699219 232.296875 321.1875 C 231.308594 320.675781 230.285156 320.242188 229.230469 319.890625 L 114.957031 281.664062 L 114.957031 453.574219 C 114.957031 653.601562 297.285156 742.996094 404.984375 781.320312 C 512.683594 742.996094 695.011719 653.601562 695.011719 453.574219 L 695.011719 281.664062 L 434.3125 368.730469 C 432.191406 369.445312 430.136719 370.316406 428.152344 371.351562 C 426.164062 372.382812 424.273438 373.566406 422.46875 374.894531 C 420.667969 376.222656 418.980469 377.683594 417.410156 379.273438 C 415.835938 380.867188 414.394531 382.570312 413.089844 384.386719 C 411.78125 386.203125 410.621094 388.113281 409.613281 390.109375 C 408.601562 392.105469 407.753906 394.171875 407.066406 396.300781 C 406.378906 398.429688 405.859375 400.601562 405.511719 402.8125 C 405.164062 405.023438 404.988281 407.246094 404.984375 409.484375 Z M 404.984375 409.484375 " fill-opacity="1" fill-rule="nonzero"/><path fill="#161412" d="M 243.894531 156.117188 L 566.078125 156.117188 L 566.078125 273.523438 L 680.347656 235.296875 C 681.402344 234.945312 682.425781 234.511719 683.414062 234 C 684.402344 233.488281 685.34375 232.902344 686.242188 232.242188 C 687.136719 231.582031 687.980469 230.859375 688.765625 230.070312 C 689.546875 229.28125 690.269531 228.4375 690.921875 227.535156 C 691.574219 226.632812 692.152344 225.6875 692.660156 224.695312 C 693.167969 223.707031 693.59375 222.679688 693.941406 221.625 C 694.289062 220.566406 694.550781 219.488281 694.730469 218.390625 C 694.910156 217.292969 695.003906 216.1875 695.011719 215.074219 L 695.011719 27.234375 L 114.957031 27.234375 L 114.957031 215.125 C 114.964844 216.238281 115.058594 217.347656 115.238281 218.445312 C 115.417969 219.546875 115.683594 220.625 116.03125 221.683594 C 116.378906 222.746094 116.804688 223.769531 117.3125 224.761719 C 117.824219 225.753906 118.40625 226.703125 119.058594 227.605469 C 119.714844 228.503906 120.4375 229.351562 121.226562 230.140625 C 122.015625 230.929688 122.859375 231.652344 123.757812 232.308594 C 124.660156 232.964844 125.605469 233.550781 126.597656 234.058594 C 127.589844 234.570312 128.613281 235 129.671875 235.347656 L 243.894531 273.523438 Z M 243.894531 156.117188 " fill-opacity="1" fill-rule="nonzero"/></svg>