<svg xmlns="http://www.w3.org/2000/svg" xmlns:xlink="http://www.w3.org/1999/xlink" width="1080" zoomAndPan="magnify" viewBox="0 0 810 809.999993" height="1080" preserveAspectRatio="xMidYMid meet" version="1.0"><path fill="#ffffff" d="M 756.46875 495.457031 L 744.652344 490.730469 L 689.34375 468.457031 C 689.875 455.046875 689.296875 441.683594 687.609375 428.367188 C 685.921875 415.050781 683.144531 401.96875 679.285156 389.113281 C 676.621094 379.609375 669.632812 351.25 664.804688 331.542969 L 723.132812 331.542969 L 723.132812 207.144531 L 689.039062 207.144531 C 694.921875 193.769531 699.097656 184.519531 699.097656 184.367188 L 703.570312 174.914062 L 697.035156 166.769531 L 634.9375 89.085938 L 623.925781 75.308594 L 610.703125 87.074219 C 594.675781 100.207031 577.511719 111.636719 559.214844 121.367188 C 558.660156 119.253906 558.058594 117.152344 557.417969 115.066406 C 556.777344 112.980469 556.089844 110.90625 555.363281 108.847656 C 554.636719 106.789062 553.867188 104.742188 553.058594 102.714844 C 552.246094 100.6875 551.394531 98.679688 550.5 96.683594 C 549.605469 94.691406 548.671875 92.71875 547.699219 90.765625 C 546.722656 88.808594 545.710938 86.875 544.65625 84.964844 C 543.601562 83.050781 542.507812 81.160156 541.378906 79.292969 C 540.246094 77.425781 539.078125 75.582031 537.871094 73.761719 C 536.664062 71.941406 535.417969 70.148438 534.136719 68.378906 C 532.855469 66.609375 531.539062 64.867188 530.1875 63.152344 C 528.835938 61.4375 527.449219 59.75 526.027344 58.09375 C 524.605469 56.4375 523.152344 54.808594 521.664062 53.210938 C 520.175781 51.613281 518.652344 50.046875 517.101562 48.507812 C 515.546875 46.972656 513.964844 45.46875 512.351562 44 C 510.734375 42.527344 509.089844 41.09375 507.417969 39.6875 C 505.746094 38.285156 504.042969 36.917969 502.3125 35.585938 C 500.585938 34.25 498.828125 32.953125 497.042969 31.691406 C 495.261719 30.429688 493.453125 29.207031 491.621094 28.019531 C 489.789062 26.832031 487.929688 25.683594 486.050781 24.574219 C 484.171875 23.460938 482.269531 22.390625 480.34375 21.359375 C 478.417969 20.324219 476.476562 19.332031 474.511719 18.378906 C 472.546875 17.425781 470.5625 16.515625 468.558594 15.644531 C 466.554688 14.773438 464.535156 13.941406 462.5 13.152344 C 460.464844 12.363281 458.410156 11.617188 456.34375 10.914062 C 454.277344 10.210938 452.195312 9.546875 450.101562 8.929688 C 448.007812 8.308594 445.902344 7.734375 443.785156 7.203125 C 441.667969 6.671875 439.539062 6.179688 437.398438 5.734375 C 435.261719 5.292969 433.117188 4.890625 430.960938 4.535156 C 428.808594 4.175781 426.644531 3.863281 424.480469 3.59375 C 422.3125 3.328125 420.140625 3.105469 417.964844 2.925781 C 415.785156 2.746094 413.605469 2.609375 411.425781 2.519531 C 409.242188 2.433594 407.058594 2.386719 404.875 2.386719 C 402.691406 2.386719 400.507812 2.433594 398.328125 2.519531 C 396.144531 2.609375 393.964844 2.746094 391.789062 2.925781 C 389.613281 3.105469 387.441406 3.328125 385.273438 3.59375 C 383.105469 3.863281 380.945312 4.175781 378.792969 4.535156 C 376.636719 4.890625 374.492188 5.292969 372.351562 5.734375 C 370.214844 6.179688 368.085938 6.671875 365.96875 7.203125 C 363.851562 7.734375 361.746094 8.308594 359.648438 8.929688 C 357.554688 9.546875 355.476562 10.210938 353.40625 10.914062 C 351.339844 11.617188 349.289062 12.363281 347.253906 13.152344 C 345.214844 13.941406 343.195312 14.773438 341.195312 15.644531 C 339.191406 16.515625 337.207031 17.425781 335.242188 18.378906 C 333.277344 19.332031 331.332031 20.324219 329.410156 21.359375 C 327.484375 22.390625 325.582031 23.460938 323.703125 24.574219 C 321.820312 25.683594 319.964844 26.832031 318.132812 28.019531 C 316.296875 29.207031 314.492188 30.429688 312.707031 31.691406 C 310.925781 32.953125 309.167969 34.25 307.4375 35.585938 C 305.710938 36.917969 304.007812 38.285156 302.335938 39.6875 C 300.660156 41.09375 299.015625 42.527344 297.402344 44 C 295.789062 45.46875 294.203125 46.972656 292.652344 48.507812 C 291.097656 50.046875 289.578125 51.613281 288.089844 53.210938 C 286.601562 54.808594 285.148438 56.4375 283.726562 58.09375 C 282.304688 59.75 280.917969 61.4375 279.5625 63.152344 C 278.210938 64.867188 276.894531 66.609375 275.613281 68.378906 C 274.332031 70.148438 273.089844 71.941406 271.882812 73.761719 C 270.675781 75.582031 269.507812 77.425781 268.375 79.292969 C 267.242188 81.160156 266.148438 83.050781 265.097656 84.964844 C 264.042969 86.875 263.027344 88.808594 262.054688 90.765625 C 261.078125 92.71875 260.144531 94.691406 259.25 96.683594 C 258.359375 98.679688 257.507812 100.6875 256.695312 102.714844 C 255.882812 104.742188 255.113281 106.789062 254.386719 108.847656 C 253.660156 110.90625 252.976562 112.980469 252.335938 115.066406 C 251.691406 117.152344 251.09375 119.253906 250.539062 121.367188 C 232.273438 111.355469 215.027344 99.824219 198.796875 86.773438 L 185.625 75.660156 L 174.863281 89.085938 L 112.71875 166.769531 L 106.179688 174.914062 L 110.605469 184.367188 C 110.605469 184.367188 115.03125 193.769531 120.660156 207.144531 L 86.46875 207.144531 L 86.46875 331.441406 L 145.902344 331.441406 C 140.574219 353.765625 134.742188 374.582031 130.820312 388.507812 C 126.542969 401.324219 123.558594 414.433594 121.863281 427.835938 C 120.171875 441.238281 119.804688 454.679688 120.761719 468.15625 L 65.050781 490.429688 L 53.433594 495.054688 L 54.59375 507.527344 C 55.964844 518.550781 58.207031 529.398438 61.308594 540.066406 C 64.414062 550.734375 68.339844 561.089844 73.09375 571.132812 L 69.625 573.847656 L 59.269531 581.890625 L 64.597656 593.859375 C 81.742188 632.472656 103.96875 654.546875 121.867188 672.296875 L 122.722656 673.203125 C 162.949219 713.425781 210.664062 732.886719 251.84375 746.765625 C 253.855469 747.519531 255.917969 748.324219 257.929688 749.175781 L 257.929688 807.203125 L 551.523438 807.203125 L 551.523438 749.125 L 557.957031 746.613281 C 598.734375 732.886719 646.25 713.277344 686.628906 673.203125 L 691 668.878906 C 708.347656 651.832031 728.007812 632.523438 744.851562 593.457031 L 749.882812 581.539062 L 739.824219 573.59375 L 736.605469 571.082031 C 745.9375 550.910156 752.054688 529.808594 754.960938 507.777344 Z M 756.46875 495.457031 " fill-opacity="1" fill-rule="nonzero"/><path fill="#000000" d="M 534.980469 790.859375 L 534.980469 738.316406 C 540.660156 735.753906 546.441406 733.289062 552.425781 731.125 C 591.898438 717.851562 637.25 699.148438 675.164062 661.535156 C 692.914062 643.886719 713.679688 623.625 729.820312 587.222656 L 715.335938 575.90625 C 721.417969 565.160156 726.410156 553.925781 730.320312 542.210938 C 734.226562 530.496094 736.976562 518.515625 738.566406 506.269531 L 671.441406 479.265625 C 673.007812 466.492188 673.3125 453.683594 672.355469 440.847656 C 671.398438 428.011719 669.203125 415.394531 665.761719 402.992188 L 663.195312 393.839844 C 657.765625 374.378906 649.46875 344.816406 643.082031 314.796875 L 706.640625 314.796875 L 706.640625 223.9375 L 662.292969 223.9375 C 670.4375 204.230469 684.363281 177.226562 684.363281 177.226562 L 621.914062 99.59375 L 610.199219 108.59375 C 590.503906 123.566406 569.40625 136.1875 546.894531 146.457031 C 546.65625 144.296875 546.363281 142.144531 546.027344 139.996094 C 545.6875 137.847656 545.300781 135.710938 544.863281 133.582031 C 544.425781 131.453125 543.941406 129.335938 543.40625 127.230469 C 542.875 125.121094 542.292969 123.027344 541.664062 120.949219 C 541.035156 118.867188 540.359375 116.800781 539.636719 114.753906 C 538.914062 112.703125 538.144531 110.671875 537.328125 108.65625 C 536.511719 106.644531 535.652344 104.648438 534.746094 102.671875 C 533.839844 100.699219 532.886719 98.746094 531.890625 96.8125 C 530.894531 94.882812 529.855469 92.972656 528.773438 91.089844 C 527.691406 89.203125 526.566406 87.34375 525.398438 85.511719 C 524.230469 83.679688 523.023438 81.875 521.773438 80.097656 C 520.523438 78.320312 519.230469 76.570312 517.902344 74.851562 C 516.570312 73.132812 515.203125 71.445312 513.796875 69.789062 C 512.390625 68.132812 510.945312 66.507812 509.464844 64.917969 C 507.984375 63.328125 506.46875 61.769531 504.917969 60.25 C 503.363281 58.726562 501.777344 57.242188 500.160156 55.792969 C 498.539062 54.34375 496.886719 52.933594 495.203125 51.558594 C 493.519531 50.183594 491.804688 48.851562 490.058594 47.554688 C 488.316406 46.257812 486.542969 45.003906 484.738281 43.789062 C 482.9375 42.574219 481.109375 41.402344 479.253906 40.269531 C 477.398438 39.140625 475.515625 38.050781 473.609375 37.007812 C 471.707031 35.960938 469.777344 34.960938 467.824219 34.003906 C 465.875 33.046875 463.902344 32.132812 461.910156 31.265625 C 459.917969 30.398438 457.90625 29.578125 455.875 28.800781 C 453.847656 28.023438 451.800781 27.296875 449.734375 26.613281 C 447.671875 25.933594 445.59375 25.296875 443.503906 24.710938 C 441.410156 24.121094 439.304688 23.582031 437.1875 23.089844 C 435.070312 22.601562 432.945312 22.15625 430.808594 21.761719 C 428.667969 21.367188 426.523438 21.023438 424.371094 20.726562 C 422.21875 20.429688 420.058594 20.183594 417.894531 19.984375 C 415.730469 19.785156 413.5625 19.636719 411.394531 19.539062 C 409.222656 19.441406 407.050781 19.390625 404.875 19.390625 C 402.703125 19.390625 400.53125 19.441406 398.359375 19.539062 C 396.1875 19.636719 394.019531 19.785156 391.855469 19.984375 C 389.691406 20.183594 387.535156 20.429688 385.382812 20.726562 C 383.226562 21.023438 381.082031 21.367188 378.945312 21.761719 C 376.808594 22.15625 374.679688 22.601562 372.5625 23.089844 C 370.449219 23.582031 368.34375 24.121094 366.25 24.710938 C 364.15625 25.296875 362.082031 25.933594 360.015625 26.613281 C 357.953125 27.296875 355.90625 28.023438 353.875 28.800781 C 351.847656 29.578125 349.835938 30.398438 347.84375 31.265625 C 345.847656 32.132812 343.878906 33.046875 341.925781 34.003906 C 339.976562 34.960938 338.046875 35.960938 336.140625 37.007812 C 334.238281 38.050781 332.355469 39.140625 330.5 40.269531 C 328.644531 41.402344 326.816406 42.574219 325.011719 43.789062 C 323.210938 45.003906 321.4375 46.257812 319.691406 47.554688 C 317.949219 48.851562 316.234375 50.183594 314.550781 51.558594 C 312.863281 52.933594 311.214844 54.34375 309.59375 55.792969 C 307.972656 57.242188 306.386719 58.726562 304.835938 60.25 C 303.285156 61.769531 301.769531 63.328125 300.285156 64.917969 C 298.804688 66.507812 297.363281 68.132812 295.957031 69.789062 C 294.546875 71.445312 293.179688 73.132812 291.851562 74.851562 C 290.519531 76.570312 289.230469 78.320312 287.980469 80.097656 C 286.730469 81.875 285.523438 83.679688 284.355469 85.511719 C 283.1875 87.34375 282.0625 89.203125 280.980469 91.089844 C 279.894531 92.972656 278.855469 94.882812 277.859375 96.8125 C 276.863281 98.746094 275.914062 100.699219 275.007812 102.671875 C 274.101562 104.648438 273.238281 106.644531 272.421875 108.65625 C 271.609375 110.671875 270.839844 112.703125 270.117188 114.753906 C 269.390625 116.800781 268.714844 118.867188 268.085938 120.949219 C 267.460938 123.027344 266.878906 125.121094 266.34375 127.230469 C 265.8125 129.335938 265.328125 131.453125 264.890625 133.582031 C 264.453125 135.710938 264.066406 137.847656 263.726562 139.996094 C 263.386719 142.144531 263.097656 144.296875 262.855469 146.457031 C 240.335938 136.210938 219.234375 123.589844 199.554688 108.59375 L 187.785156 99.59375 L 125.691406 177.277344 C 125.691406 177.277344 139.617188 204.277344 147.761719 223.988281 L 103.265625 223.988281 L 103.265625 314.847656 L 166.871094 314.847656 C 160.433594 345.015625 152.136719 374.429688 146.757812 393.890625 L 144.191406 403.042969 C 140.746094 415.433594 138.542969 428.042969 137.578125 440.871094 C 136.613281 453.699219 136.90625 466.496094 138.460938 479.265625 L 71.183594 506.320312 C 72.792969 518.558594 75.558594 530.527344 79.472656 542.234375 C 83.390625 553.941406 88.386719 565.164062 94.464844 575.90625 L 79.933594 587.171875 C 96.125 623.574219 116.890625 643.839844 134.640625 661.488281 C 172.5 699.097656 217.90625 717.800781 257.324219 731.074219 C 263.359375 733.339844 269.140625 735.703125 274.773438 738.265625 L 274.773438 790.808594 Z M 534.980469 790.859375 " fill-opacity="1" fill-rule="nonzero"/><path fill="#6f9ed4" d="M 153.847656 239.023438 L 118.347656 239.023438 L 118.347656 299.359375 L 169.585938 299.359375 C 172.601562 291.417969 164.105469 265.269531 153.847656 239.023438 Z M 153.847656 239.023438 " fill-opacity="1" fill-rule="nonzero"/><path fill="#6f9ed4" d="M 655.90625 239.023438 L 691.101562 239.023438 L 691.101562 299.359375 L 640.21875 299.359375 C 637.152344 291.417969 645.699219 265.269531 655.90625 239.023438 Z M 655.90625 239.023438 " fill-opacity="1" fill-rule="nonzero"/><path fill="#6f9ed4" d="M 404.953125 192.867188 C 395.335938 192.882812 385.730469 192.503906 376.144531 191.734375 C 366.558594 190.964844 357.019531 189.804688 347.527344 188.253906 C 338.035156 186.703125 328.625 184.769531 319.292969 182.445312 C 309.957031 180.125 300.734375 177.429688 291.621094 174.351562 C 282.511719 171.277344 273.539062 167.835938 264.707031 164.027344 C 255.875 160.21875 247.214844 156.054688 238.726562 151.535156 C 230.234375 147.019531 221.945312 142.160156 213.851562 136.964844 C 205.757812 131.769531 197.890625 126.25 190.25 120.410156 L 147.410156 173.65625 C 151.824219 177.5 156.324219 181.238281 160.90625 184.878906 C 165.488281 188.519531 170.148438 192.054688 174.890625 195.484375 C 179.628906 198.917969 184.445312 202.238281 189.332031 205.457031 C 194.222656 208.671875 199.179688 211.777344 204.207031 214.769531 C 209.234375 217.761719 214.328125 220.640625 219.484375 223.410156 C 224.640625 226.175781 229.855469 228.824219 235.132812 231.355469 C 240.40625 233.886719 245.738281 236.300781 251.121094 238.59375 C 256.503906 240.886719 261.9375 243.058594 267.417969 245.109375 C 272.898438 247.160156 278.421875 249.089844 283.988281 250.890625 C 289.554688 252.695312 295.160156 254.371094 300.800781 255.925781 C 306.441406 257.476562 312.117188 258.902344 317.820312 260.203125 C 323.527344 261.5 329.257812 262.671875 335.019531 263.710938 C 340.777344 264.753906 346.554688 265.667969 352.351562 266.449219 C 358.152344 267.234375 363.964844 267.886719 369.792969 268.410156 C 375.621094 268.933594 381.460938 269.324219 387.304688 269.585938 C 393.152344 269.847656 399 269.980469 404.851562 269.980469 C 410.703125 269.980469 416.550781 269.847656 422.398438 269.585938 C 428.242188 269.324219 434.078125 268.933594 439.90625 268.410156 C 445.738281 267.886719 451.550781 267.234375 457.347656 266.449219 C 463.148438 265.667969 468.925781 264.753906 474.683594 263.710938 C 480.441406 262.671875 486.175781 261.5 491.878906 260.203125 C 497.585938 258.902344 503.257812 257.476562 508.902344 255.925781 C 514.542969 254.371094 520.148438 252.695312 525.714844 250.890625 C 531.28125 249.089844 536.804688 247.160156 542.285156 245.109375 C 547.765625 243.058594 553.199219 240.886719 558.582031 238.59375 C 563.964844 236.300781 569.292969 233.886719 574.570312 231.355469 C 579.84375 228.824219 585.0625 226.175781 590.21875 223.410156 C 595.375 220.640625 600.46875 217.761719 605.496094 214.769531 C 610.523438 211.777344 615.480469 208.671875 620.371094 205.457031 C 625.257812 202.238281 630.074219 198.917969 634.8125 195.484375 C 639.554688 192.054688 644.214844 188.519531 648.796875 184.878906 C 653.378906 181.238281 657.875 177.5 662.292969 173.65625 L 619.453125 120.210938 C 611.820312 126.054688 603.964844 131.582031 595.882812 136.785156 C 587.800781 141.988281 579.519531 146.851562 571.039062 151.378906 C 562.5625 155.902344 553.910156 160.074219 545.089844 163.894531 C 536.265625 167.710938 527.304688 171.160156 518.199219 174.246094 C 509.09375 177.328125 499.878906 180.035156 490.554688 182.363281 C 481.230469 184.695312 471.824219 186.636719 462.339844 188.199219 C 452.855469 189.757812 443.320312 190.925781 433.742188 191.707031 C 424.160156 192.484375 414.5625 192.871094 404.953125 192.867188 Z M 404.953125 192.867188 " fill-opacity="1" fill-rule="nonzero"/><path fill="#6f9ed4" d="M 507.828125 88.179688 C 508.507812 97.761719 508.625 107.347656 508.179688 116.941406 C 516.179688 123.796875 523.671875 131.171875 530.65625 139.066406 C 529.027344 129.765625 526.28125 120.808594 522.417969 112.199219 C 518.554688 103.585938 513.691406 95.578125 507.828125 88.179688 Z M 507.828125 88.179688 " fill-opacity="1" fill-rule="nonzero"/><path fill="#6f9ed4" d="M 301.925781 88.179688 C 301.242188 97.761719 301.125 107.347656 301.574219 116.941406 C 293.625 123.800781 286.179688 131.175781 279.25 139.066406 C 280.859375 129.773438 283.582031 120.824219 287.417969 112.210938 C 291.257812 103.597656 296.09375 95.589844 301.925781 88.179688 Z M 301.925781 88.179688 " fill-opacity="1" fill-rule="nonzero"/><path fill="#ffcc00" d="M 496.3125 74.152344 C 487.011719 62.886719 466.144531 50.570312 452.519531 44.886719 C 438.15625 48.933594 424.328125 54.347656 411.035156 61.128906 C 411.035156 63.691406 410.53125 78.574219 410.683594 87.023438 C 430.058594 98.257812 447.621094 111.835938 463.378906 127.75 C 475.65625 125.023438 487.289062 120.597656 498.273438 114.476562 C 499 100.96875 498.347656 87.527344 496.3125 74.152344 Z M 496.3125 74.152344 " fill-opacity="1" fill-rule="nonzero"/><path fill="#ffcc00" d="M 313.441406 74.152344 C 322.742188 62.886719 343.609375 50.570312 357.234375 44.886719 C 371.582031 48.933594 385.394531 54.347656 398.667969 61.128906 C 398.667969 63.691406 399.167969 78.574219 399.070312 87.023438 C 379.679688 98.257812 362.097656 111.832031 346.324219 127.75 C 334.0625 125.023438 322.445312 120.597656 311.480469 114.476562 C 310.75 100.96875 311.40625 87.527344 313.441406 74.152344 Z M 313.441406 74.152344 " fill-opacity="1" fill-rule="nonzero"/><path fill="#6f9ed4" d="M 404.953125 35.636719 C 394.886719 35.339844 385.097656 36.847656 375.585938 40.160156 C 385.597656 43.625 395.386719 47.628906 404.953125 52.179688 C 414.5 47.628906 424.273438 43.625 434.265625 40.160156 C 424.773438 36.847656 415 35.339844 404.953125 35.636719 Z M 404.953125 35.636719 " fill-opacity="1" fill-rule="nonzero"/><path fill="#ffcc00" d="M 503.503906 127.046875 C 501.242188 128.054688 473.785156 139.464844 464.636719 142.132812 C 463.023438 152.867188 460.476562 163.375 456.992188 173.65625 C 481.703125 169.902344 505.6875 163.449219 528.945312 154.300781 C 521.90625 143.871094 513.425781 134.785156 503.503906 127.046875 Z M 503.503906 127.046875 " fill-opacity="1" fill-rule="nonzero"/><path fill="#ffcc00" d="M 345.117188 142.03125 C 335.964844 139.464844 308.511719 128.054688 306.25 126.945312 C 296.328125 134.746094 287.847656 143.878906 280.808594 154.351562 C 304.070312 163.480469 328.050781 169.917969 352.761719 173.65625 C 349.292969 163.335938 346.746094 152.796875 345.117188 142.03125 Z M 345.117188 142.03125 " fill-opacity="1" fill-rule="nonzero"/><path fill="#6f9ed4" d="M 443.46875 175.617188 C 450.558594 161.488281 452.96875 143.289062 454.78125 135.898438 C 446.132812 124.582031 418.929688 105.023438 404.902344 96.675781 C 390.824219 105.023438 363.671875 124.582031 354.972656 135.898438 C 357.503906 149.378906 361.054688 162.585938 365.632812 175.519531 C 378.679688 177.035156 391.769531 177.789062 404.902344 177.78125 C 417.796875 177.769531 430.652344 177.050781 443.46875 175.617188 Z M 443.46875 175.617188 " fill-opacity="1" fill-rule="nonzero"/><path fill="#ffffff" d="M 404.953125 697.789062 C 395.445312 690.121094 385.589844 682.925781 375.386719 676.207031 C 365.183594 669.488281 354.683594 663.273438 343.882812 657.570312 C 333.078125 651.867188 322.027344 646.695312 310.726562 642.058594 C 299.425781 637.417969 287.925781 633.335938 276.230469 629.808594 C 192.011719 604.667969 131.574219 504.761719 158.722656 407.011719 C 169.9375 366.789062 197.289062 274.371094 190.453125 226.703125 C 298.910156 285.785156 385.191406 282.867188 404.953125 283.269531 C 424.613281 282.867188 510.945312 285.785156 619.351562 226.703125 C 612.5625 274.371094 639.914062 366.636719 651.128906 407.011719 C 678.230469 504.761719 617.792969 604.617188 533.621094 629.808594 C 521.929688 633.332031 510.433594 637.414062 499.132812 642.046875 C 487.835938 646.683594 476.789062 651.855469 465.988281 657.558594 C 455.191406 663.265625 444.695312 669.476562 434.496094 676.199219 C 424.300781 682.917969 414.453125 690.117188 404.953125 697.789062 Z M 404.953125 697.789062 " fill-opacity="1" fill-rule="nonzero"/><path fill="#000000" d="M 404.953125 465.742188 C 422.25 490.429688 482.6875 577.667969 512 624.480469 C 512.957031 623.277344 513.835938 622.019531 514.632812 620.703125 C 515.425781 619.386719 516.132812 618.027344 516.753906 616.621094 C 517.375 615.214844 517.902344 613.773438 518.335938 612.300781 C 518.769531 610.824219 519.109375 609.328125 519.351562 607.8125 C 519.589844 606.292969 519.734375 604.765625 519.777344 603.230469 C 519.824219 601.691406 519.769531 600.160156 519.613281 598.628906 C 519.460938 597.101562 519.210938 595.585938 518.863281 594.089844 C 518.511719 592.59375 518.070312 591.125 517.53125 589.683594 C 517.53125 588.78125 518.085938 588.328125 519.039062 589.183594 C 529.398438 597.832031 546.996094 604.921875 560.925781 599.238281 C 514.164062 548 469.011719 495.457031 423.707031 440.148438 C 427.125 435.925781 432.054688 430.09375 436.378906 424.761719 C 454.226562 428.332031 474.1875 430.496094 490.480469 420.335938 C 518.085938 403.140625 525.675781 380.363281 532.265625 356.480469 C 532.566406 355.324219 533.21875 353.3125 534.425781 353.464844 L 568.769531 362.414062 C 570.226562 362.867188 569.976562 362.414062 569.773438 361.457031 L 563.691406 334.003906 C 560.824219 320.832031 556.347656 308.511719 543.578125 301.574219 C 520.851562 289.304688 493.847656 290.261719 469.109375 291.515625 C 468.960938 291.527344 468.839844 291.597656 468.75 291.71875 C 468.65625 291.839844 468.628906 291.972656 468.65625 292.121094 C 469.519531 293.980469 470.554688 295.734375 471.765625 297.390625 C 472.976562 299.042969 474.335938 300.5625 475.84375 301.949219 C 477.355469 303.332031 478.984375 304.558594 480.738281 305.621094 C 482.492188 306.683594 484.328125 307.5625 486.257812 308.261719 C 473.585938 328.375 405.050781 416.71875 405.050781 416.71875 C 405.050781 416.71875 336.46875 328.273438 323.796875 308.261719 C 325.726562 307.5625 327.570312 306.683594 329.328125 305.625 C 331.085938 304.5625 332.71875 303.339844 334.234375 301.953125 C 335.75 300.570312 337.113281 299.046875 338.328125 297.394531 C 339.539062 295.738281 340.582031 293.980469 341.445312 292.121094 C 341.476562 291.972656 341.445312 291.839844 341.355469 291.71875 C 341.265625 291.597656 341.144531 291.527344 340.992188 291.515625 C 316.207031 290.261719 289.203125 289.304688 266.476562 301.574219 C 253.554688 308.511719 249.128906 320.832031 246.363281 334.003906 L 240.332031 361.457031 C 240.332031 362.210938 239.828125 362.867188 241.285156 362.414062 L 275.628906 353.464844 C 276.835938 353.464844 277.488281 355.324219 277.789062 356.480469 C 284.425781 380.363281 291.96875 403.140625 319.625 420.335938 C 335.914062 430.394531 355.828125 428.332031 373.726562 424.761719 C 378.050781 430.144531 382.980469 435.925781 386.398438 440.148438 C 341.144531 495.457031 295.890625 547.800781 249.179688 599.136719 C 263.109375 604.71875 280.707031 597.628906 291.066406 589.082031 C 292.070312 588.226562 292.824219 588.679688 292.625 589.585938 C 292.082031 591.023438 291.636719 592.492188 291.289062 593.988281 C 290.9375 595.484375 290.683594 596.996094 290.527344 598.523438 C 290.375 600.054688 290.316406 601.585938 290.359375 603.121094 C 290.402344 604.660156 290.542969 606.1875 290.78125 607.703125 C 291.019531 609.222656 291.355469 610.71875 291.789062 612.191406 C 292.21875 613.667969 292.746094 615.109375 293.363281 616.515625 C 293.980469 617.921875 294.6875 619.285156 295.480469 620.601562 C 296.273438 621.917969 297.148438 623.175781 298.105469 624.378906 C 327.167969 577.667969 387.554688 490.429688 404.953125 465.742188 Z M 404.953125 465.742188 " fill-opacity="1" fill-rule="nonzero"/><path fill="#6f9ed4" d="M 531.007812 313.1875 C 531.898438 313.1875 532.78125 313.273438 533.65625 313.449219 C 534.53125 313.625 535.378906 313.878906 536.203125 314.222656 C 537.027344 314.5625 537.808594 314.980469 538.550781 315.476562 C 539.289062 315.972656 539.976562 316.535156 540.605469 317.164062 C 541.238281 317.796875 541.800781 318.480469 542.292969 319.222656 C 542.789062 319.964844 543.207031 320.746094 543.550781 321.570312 C 543.890625 322.390625 544.148438 323.242188 544.320312 324.117188 C 544.496094 324.988281 544.582031 325.871094 544.582031 326.765625 C 544.59375 328.675781 544.207031 330.5 543.425781 332.246094 C 543.425781 332.847656 543.726562 333 544.480469 333.199219 L 556.199219 337.273438 L 558.8125 351.453125 L 541.316406 346.875 L 538.097656 339.6875 C 538.097656 339.132812 538.097656 338.730469 537.441406 338.78125 C 535.429688 339.847656 533.285156 340.382812 531.007812 340.390625 C 530.542969 340.417969 530.082031 340.421875 529.617188 340.402344 C 529.15625 340.386719 528.695312 340.34375 528.234375 340.277344 C 527.777344 340.210938 527.320312 340.121094 526.871094 340.007812 C 526.421875 339.894531 525.980469 339.761719 525.542969 339.601562 C 525.109375 339.445312 524.679688 339.265625 524.261719 339.0625 C 523.847656 338.863281 523.441406 338.640625 523.042969 338.398438 C 522.648438 338.15625 522.269531 337.894531 521.898438 337.613281 C 521.53125 337.332031 521.179688 337.03125 520.839844 336.710938 C 520.503906 336.394531 520.183594 336.0625 519.878906 335.710938 C 519.578125 335.359375 519.292969 334.996094 519.023438 334.617188 C 518.757812 334.238281 518.511719 333.84375 518.285156 333.441406 C 518.058594 333.035156 517.855469 332.621094 517.671875 332.195312 C 517.488281 331.769531 517.324219 331.335938 517.1875 330.894531 C 517.046875 330.449219 516.929688 330.003906 516.835938 329.550781 C 516.742188 329.09375 516.671875 328.636719 516.625 328.175781 C 516.578125 327.714844 516.554688 327.253906 516.554688 326.789062 C 516.554688 326.324219 516.578125 325.863281 516.625 325.402344 C 516.671875 324.941406 516.742188 324.484375 516.835938 324.03125 C 516.929688 323.574219 517.046875 323.128906 517.1875 322.6875 C 517.324219 322.242188 517.488281 321.808594 517.671875 321.382812 C 517.855469 320.957031 518.058594 320.542969 518.285156 320.140625 C 518.511719 319.734375 518.757812 319.34375 519.023438 318.964844 C 519.292969 318.582031 519.578125 318.21875 519.878906 317.867188 C 520.183594 317.519531 520.503906 317.183594 520.839844 316.867188 C 521.179688 316.546875 521.53125 316.25 521.898438 315.96875 C 522.269531 315.683594 522.648438 315.421875 523.042969 315.179688 C 523.441406 314.9375 523.847656 314.714844 524.261719 314.515625 C 524.679688 314.3125 525.109375 314.132812 525.542969 313.976562 C 525.980469 313.820312 526.421875 313.683594 526.871094 313.570312 C 527.320312 313.457031 527.777344 313.367188 528.234375 313.300781 C 528.695312 313.238281 529.15625 313.195312 529.617188 313.175781 C 530.082031 313.15625 530.542969 313.160156 531.007812 313.1875 Z M 531.007812 313.1875 " fill-opacity="1" fill-rule="nonzero"/><path fill="#6f9ed4" d="M 278.796875 313.1875 C 277.902344 313.183594 277.015625 313.269531 276.140625 313.441406 C 275.261719 313.613281 274.410156 313.867188 273.585938 314.207031 C 272.757812 314.546875 271.972656 314.964844 271.230469 315.457031 C 270.484375 315.953125 269.796875 316.515625 269.164062 317.148438 C 268.53125 317.777344 267.964844 318.464844 267.46875 319.207031 C 266.972656 319.949219 266.550781 320.730469 266.207031 321.558594 C 265.867188 322.382812 265.605469 323.234375 265.433594 324.109375 C 265.257812 324.984375 265.167969 325.871094 265.167969 326.765625 C 265.160156 328.675781 265.546875 330.5 266.328125 332.246094 C 266.328125 332.847656 266.074219 333 265.269531 333.199219 L 253.554688 337.273438 L 250.941406 351.453125 L 268.488281 346.875 L 271.707031 339.585938 C 271.707031 339.03125 271.707031 338.628906 272.308594 338.679688 C 274.339844 339.75 276.5 340.289062 278.796875 340.289062 C 279.65625 340.238281 280.5 340.105469 281.332031 339.894531 C 282.167969 339.679688 282.972656 339.390625 283.75 339.027344 C 284.53125 338.664062 285.265625 338.226562 285.964844 337.722656 C 286.660156 337.21875 287.304688 336.652344 287.890625 336.027344 C 288.480469 335.402344 289.007812 334.726562 289.46875 334 C 289.929688 333.273438 290.320312 332.511719 290.636719 331.710938 C 290.953125 330.914062 291.191406 330.089844 291.351562 329.246094 C 291.515625 328.402344 291.59375 327.546875 291.59375 326.6875 C 291.59375 325.828125 291.515625 324.976562 291.351562 324.132812 C 291.191406 323.289062 290.953125 322.464844 290.636719 321.667969 C 290.320312 320.867188 289.929688 320.105469 289.46875 319.378906 C 289.007812 318.652344 288.480469 317.976562 287.890625 317.351562 C 287.304688 316.722656 286.660156 316.160156 285.964844 315.65625 C 285.265625 315.148438 284.53125 314.714844 283.75 314.351562 C 282.972656 313.984375 282.167969 313.695312 281.332031 313.484375 C 280.5 313.273438 279.65625 313.140625 278.796875 313.085938 Z M 278.796875 313.1875 " fill-opacity="1" fill-rule="nonzero"/><path fill="#000000" d="M 385.644531 562.53125 C 388.660156 552.476562 391.125 547.800781 397.359375 543.476562 C 400.441406 541.089844 403.894531 539.511719 407.71875 538.75 C 412.089844 538.109375 416.347656 538.5625 420.488281 540.109375 C 419.734375 540.683594 419.027344 541.316406 418.375 542.007812 C 417.722656 542.695312 417.128906 543.433594 416.59375 544.21875 C 416.058594 545.003906 415.59375 545.828125 415.191406 546.691406 C 414.789062 547.550781 414.457031 548.4375 414.199219 549.351562 C 413.941406 550.265625 413.757812 551.195312 413.648438 552.140625 C 413.539062 553.082031 413.503906 554.027344 413.546875 554.976562 C 413.589844 555.925781 413.710938 556.867188 413.902344 557.796875 C 414.097656 558.726562 414.367188 559.636719 414.707031 560.523438 C 417.492188 558.609375 420.5 557.164062 423.738281 556.195312 C 426.976562 555.226562 430.285156 554.773438 433.664062 554.839844 C 434.792969 554.914062 435.914062 555.058594 437.027344 555.273438 C 438.140625 555.488281 439.234375 555.773438 440.3125 556.125 C 441.386719 556.480469 442.4375 556.902344 443.460938 557.390625 C 444.484375 557.878906 445.472656 558.429688 446.425781 559.042969 C 447.378906 559.65625 448.289062 560.328125 449.15625 561.054688 C 450.023438 561.785156 450.839844 562.566406 451.609375 563.398438 C 452.378906 564.230469 453.089844 565.109375 453.746094 566.035156 C 454.40625 566.957031 455 567.917969 455.535156 568.917969 C 447.589844 568.265625 438.890625 571.734375 436.980469 579.78125 C 439.027344 580.121094 441.019531 580.667969 442.949219 581.425781 C 444.882812 582.183594 446.714844 583.136719 448.449219 584.277344 C 450.179688 585.421875 451.773438 586.734375 453.230469 588.210938 C 454.6875 589.691406 455.976562 591.304688 457.09375 593.054688 C 458.050781 594.660156 458.835938 596.347656 459.441406 598.117188 C 460.050781 599.886719 460.46875 601.703125 460.695312 603.558594 C 460.925781 605.414062 460.960938 607.277344 460.804688 609.140625 C 460.644531 611.003906 460.296875 612.832031 459.757812 614.625 C 459.21875 613.8125 458.613281 613.054688 457.9375 612.347656 C 457.265625 611.644531 456.535156 611.003906 455.75 610.425781 C 454.964844 609.847656 454.136719 609.34375 453.261719 608.910156 C 452.390625 608.476562 451.484375 608.125 450.550781 607.851562 C 449.613281 607.578125 448.664062 607.386719 447.695312 607.28125 C 446.722656 607.171875 445.753906 607.152344 444.78125 607.214844 C 443.808594 607.277344 442.847656 607.425781 441.902344 607.65625 C 440.953125 607.886719 440.035156 608.199219 439.144531 608.589844 C 441.527344 611.691406 443.105469 615.160156 443.871094 619 C 444.671875 621.917969 444.964844 624.886719 444.75 627.90625 C 444.53125 630.925781 443.820312 633.824219 442.613281 636.597656 C 442.0625 638.03125 441.386719 639.402344 440.585938 640.707031 C 439.78125 642.015625 438.863281 643.238281 437.828125 644.371094 C 436.796875 645.507812 435.667969 646.539062 434.445312 647.460938 C 433.21875 648.386719 431.917969 649.191406 430.542969 649.871094 C 432.304688 642.832031 428.03125 632.273438 420.488281 630.464844 C 416.0625 651.78125 399.621094 656.710938 385.292969 654.347656 C 392.683594 647.257812 395.347656 639.964844 390.972656 632.828125 C 390.195312 633.445312 389.390625 634.019531 388.550781 634.550781 C 387.710938 635.078125 386.847656 635.5625 385.957031 636 C 385.0625 636.433594 384.152344 636.820312 383.21875 637.160156 C 382.285156 637.496094 381.335938 637.78125 380.371094 638.015625 C 379.40625 638.25 378.433594 638.433594 377.449219 638.558594 C 376.464844 638.6875 375.476562 638.761719 374.484375 638.785156 C 373.492188 638.804688 372.503906 638.773438 371.511719 638.683594 C 370.523438 638.597656 369.542969 638.457031 368.570312 638.265625 C 367.597656 638.070312 366.636719 637.828125 365.691406 637.527344 C 364.742188 637.230469 363.816406 636.882812 362.90625 636.484375 C 361.996094 636.085938 361.113281 635.640625 360.253906 635.144531 C 359.390625 634.652344 358.5625 634.113281 357.757812 633.527344 C 356.957031 632.941406 356.191406 632.316406 355.457031 631.648438 C 354.722656 630.980469 354.027344 630.273438 353.371094 629.53125 C 352.710938 628.785156 352.097656 628.007812 351.523438 627.199219 C 350.953125 626.386719 350.425781 625.546875 349.945312 624.679688 C 358.691406 625.585938 366.9375 620.660156 368.246094 614.121094 C 366.113281 613.726562 364.046875 613.105469 362.046875 612.265625 C 360.042969 611.421875 358.15625 610.375 356.382812 609.125 C 354.609375 607.878906 352.988281 606.453125 351.519531 604.851562 C 350.054688 603.253906 348.773438 601.515625 347.679688 599.640625 C 346.789062 598.078125 346.082031 596.4375 345.5625 594.71875 C 345.039062 592.996094 344.71875 591.238281 344.597656 589.445312 C 344.476562 587.652344 344.554688 585.867188 344.839844 584.089844 C 345.121094 582.3125 345.601562 580.59375 346.273438 578.925781 C 351.300781 587.171875 359.398438 587.019531 366.386719 584.65625 C 357.4375 570.527344 360.152344 552.074219 374.53125 544.433594 C 374.46875 545.375 374.480469 546.316406 374.566406 547.257812 C 374.652344 548.199219 374.804688 549.128906 375.035156 550.046875 C 375.261719 550.964844 375.558594 551.859375 375.921875 552.730469 C 376.289062 553.601562 376.71875 554.441406 377.210938 555.246094 C 377.707031 556.054688 378.261719 556.816406 378.871094 557.535156 C 379.484375 558.257812 380.148438 558.925781 380.863281 559.542969 C 381.578125 560.160156 382.335938 560.722656 383.136719 561.222656 C 383.941406 561.722656 384.773438 562.160156 385.644531 562.53125 Z M 385.644531 562.53125 " fill-opacity="1" fill-rule="nonzero"/><path fill="#ffcc00" d="M 403.84375 551.621094 C 400.804688 553.191406 398.390625 555.4375 396.605469 558.359375 C 395.464844 560.699219 394.710938 563.15625 394.351562 565.734375 C 393.992188 568.3125 394.039062 570.882812 394.492188 573.445312 C 392.386719 573.6875 390.285156 573.679688 388.179688 573.421875 C 386.078125 573.164062 384.035156 572.664062 382.050781 571.921875 C 380.066406 571.179688 378.195312 570.214844 376.441406 569.027344 C 374.683594 567.839844 373.09375 566.460938 371.664062 564.894531 C 371.425781 566.875 371.433594 568.855469 371.695312 570.832031 C 371.953125 572.808594 372.453125 574.722656 373.199219 576.570312 C 373.941406 578.421875 374.902344 580.148438 376.082031 581.757812 C 377.261719 583.363281 378.621094 584.800781 380.164062 586.066406 C 374.734375 592.652344 370.105469 595.667969 357.335938 596.371094 C 358.617188 598.035156 360.089844 599.511719 361.75 600.792969 C 363.414062 602.078125 365.210938 603.128906 367.144531 603.949219 C 369.078125 604.765625 371.082031 605.328125 373.160156 605.628906 C 375.238281 605.929688 377.320312 605.960938 379.410156 605.726562 C 379.511719 607.863281 379.382812 609.984375 379.023438 612.097656 C 378.667969 614.207031 378.085938 616.253906 377.28125 618.234375 C 376.480469 620.21875 375.472656 622.09375 374.261719 623.859375 C 373.054688 625.625 371.667969 627.238281 370.105469 628.703125 C 371.160156 628.875 372.21875 628.976562 373.285156 629 C 374.351562 629.023438 375.414062 628.972656 376.472656 628.847656 C 377.53125 628.722656 378.574219 628.527344 379.605469 628.253906 C 380.636719 627.980469 381.644531 627.636719 382.625 627.222656 C 383.609375 626.808594 384.558594 626.328125 385.472656 625.78125 C 386.386719 625.234375 387.261719 624.625 388.089844 623.957031 C 388.917969 623.285156 389.695312 622.5625 390.425781 621.78125 C 391.152344 621 391.820312 620.175781 392.433594 619.300781 C 395.921875 622.496094 398.835938 626.152344 401.179688 630.261719 C 402.472656 634.292969 402.941406 638.414062 402.589844 642.632812 C 403.484375 642.03125 404.332031 641.371094 405.128906 640.648438 C 405.925781 639.921875 406.664062 639.140625 407.34375 638.304688 C 408.023438 637.46875 408.636719 636.589844 409.183594 635.660156 C 409.734375 634.734375 410.207031 633.769531 410.613281 632.769531 C 411.015625 631.773438 411.34375 630.75 411.59375 629.703125 C 411.84375 628.652344 412.011719 627.59375 412.105469 626.519531 C 412.195312 625.445312 412.207031 624.371094 412.136719 623.296875 C 412.066406 622.222656 411.917969 621.15625 411.6875 620.105469 C 413.855469 619.953125 416.015625 620.039062 418.164062 620.359375 C 420.3125 620.679688 422.398438 621.226562 424.425781 622.003906 C 426.457031 622.78125 428.375 623.769531 430.1875 624.96875 C 432 626.164062 433.660156 627.542969 435.171875 629.105469 C 437.28125 619.050781 431.5 612.765625 425.917969 607.886719 C 429.941406 600.394531 439.445312 597.378906 448.644531 597.328125 C 443.617188 588.429688 436.074219 587.273438 426.320312 588.378906 C 426.097656 586.1875 426.128906 584 426.417969 581.8125 C 426.703125 579.628906 427.238281 577.507812 428.019531 575.449219 C 428.800781 573.386719 429.808594 571.445312 431.039062 569.621094 C 432.273438 567.796875 433.703125 566.136719 435.320312 564.644531 C 434.296875 564.519531 433.269531 564.460938 432.238281 564.476562 C 431.203125 564.488281 430.179688 564.570312 429.15625 564.722656 C 428.136719 564.871094 427.128906 565.09375 426.140625 565.378906 C 425.148438 565.667969 424.179688 566.023438 423.238281 566.441406 C 422.292969 566.859375 421.382812 567.339844 420.503906 567.882812 C 419.628906 568.425781 418.789062 569.023438 417.992188 569.679688 C 417.195312 570.332031 416.445312 571.039062 415.742188 571.796875 C 415.042969 572.554688 414.394531 573.355469 413.800781 574.199219 C 412.09375 572.882812 410.574219 571.378906 409.242188 569.683594 C 407.914062 567.988281 406.8125 566.152344 405.941406 564.179688 C 405.074219 562.207031 404.460938 560.160156 404.105469 558.03125 C 403.75 555.90625 403.664062 553.769531 403.84375 551.621094 Z M 403.84375 551.621094 " fill-opacity="1" fill-rule="nonzero"/><path fill="#000000" d="M 181.5 503.101562 C 183.425781 504.042969 185.398438 504.863281 187.425781 505.558594 C 189.453125 506.253906 191.515625 506.816406 193.613281 507.25 C 195.710938 507.683594 197.828125 507.980469 199.964844 508.148438 C 202.097656 508.3125 204.238281 508.34375 206.375 508.238281 C 208.515625 508.132812 210.640625 507.894531 212.75 507.519531 C 214.859375 507.144531 216.9375 506.640625 218.980469 506.003906 C 221.027344 505.367188 223.023438 504.601562 224.972656 503.714844 C 226.921875 502.824219 228.804688 501.816406 230.625 500.6875 C 231.585938 500.03125 232.515625 499.335938 233.414062 498.601562 C 234.3125 497.867188 235.179688 497.097656 236.015625 496.289062 C 236.851562 495.484375 237.648438 494.644531 238.414062 493.769531 C 239.175781 492.894531 239.902344 491.988281 240.589844 491.054688 C 241.277344 490.117188 241.925781 489.152344 242.53125 488.164062 C 243.136719 487.171875 243.699219 486.160156 244.222656 485.121094 C 244.742188 484.085938 245.21875 483.027344 245.652344 481.949219 C 246.082031 480.871094 246.46875 479.777344 246.808594 478.667969 C 247.148438 477.554688 247.441406 476.433594 247.683594 475.296875 C 247.929688 474.164062 248.125 473.019531 248.273438 471.867188 C 248.421875 470.714844 248.523438 469.5625 248.574219 468.402344 C 248.625 467.242188 248.628906 466.082031 248.582031 464.921875 C 248.535156 463.761719 248.4375 462.605469 248.296875 461.453125 C 248.152344 460.300781 247.960938 459.15625 247.71875 458.019531 C 247.476562 456.882812 247.191406 455.761719 246.855469 454.648438 C 246.519531 453.535156 246.136719 452.441406 245.710938 451.363281 C 239.375 433.160156 220.570312 423.605469 202.015625 422.398438 C 210.011719 414.355469 224.242188 410.785156 236.308594 410.933594 C 273.414062 411.488281 291.96875 432.65625 298.605469 459.859375 C 299.035156 461.773438 299.371094 463.703125 299.625 465.648438 C 299.875 467.59375 300.035156 469.546875 300.109375 471.507812 C 300.179688 473.46875 300.164062 475.429688 300.054688 477.386719 C 299.949219 479.347656 299.753906 481.296875 299.46875 483.238281 C 299.183594 485.175781 298.808594 487.101562 298.347656 489.007812 C 297.886719 490.914062 297.34375 492.796875 296.710938 494.652344 C 296.078125 496.511719 295.359375 498.335938 294.5625 500.125 C 293.761719 501.917969 292.882812 503.667969 291.921875 505.378906 C 290.964844 507.089844 289.929688 508.753906 288.816406 510.371094 C 287.703125 511.988281 286.523438 513.550781 285.269531 515.058594 C 284.015625 516.566406 282.695312 518.015625 281.308594 519.402344 C 279.921875 520.792969 278.472656 522.113281 276.964844 523.367188 C 275.460938 524.625 273.898438 525.808594 272.28125 526.921875 C 270.667969 528.035156 269.003906 529.070312 267.292969 530.03125 C 265.582031 530.992188 263.832031 531.875 262.042969 532.675781 C 260.25 533.476562 258.429688 534.195312 256.570312 534.828125 C 249.953125 536.519531 243.234375 537.292969 236.40625 537.15625 C 229.578125 537.019531 222.890625 535.976562 216.347656 534.023438 C 212.519531 532.816406 208.859375 531.222656 205.367188 529.242188 C 201.878906 527.261719 198.628906 524.941406 195.628906 522.277344 C 192.625 519.613281 189.933594 516.664062 187.554688 513.433594 C 185.175781 510.203125 183.15625 506.757812 181.5 503.101562 Z M 181.5 503.101562 " fill-opacity="1" fill-rule="nonzero"/><path fill="#ffcc00" d="M 210.765625 518.183594 C 222.984375 527.789062 238.871094 527.988281 252.902344 523.917969 C 255.34375 523.191406 257.722656 522.292969 260.03125 521.210938 C 262.339844 520.132812 264.554688 518.886719 266.675781 517.476562 C 268.800781 516.066406 270.804688 514.503906 272.695312 512.792969 C 274.582031 511.082031 276.335938 509.242188 277.949219 507.269531 C 279.5625 505.296875 281.019531 503.214844 282.324219 501.023438 C 283.625 498.832031 284.757812 496.558594 285.71875 494.195312 C 286.683594 491.835938 287.464844 489.417969 288.066406 486.941406 C 288.664062 484.464844 289.078125 481.957031 289.304688 479.417969 C 289.652344 476.832031 289.789062 474.234375 289.71875 471.621094 C 289.644531 469.011719 289.363281 466.425781 288.871094 463.863281 C 288.378906 461.296875 287.6875 458.789062 286.789062 456.339844 C 285.890625 453.886719 284.800781 451.523438 283.523438 449.25 C 282.417969 447.152344 281.171875 445.144531 279.78125 443.226562 C 278.390625 441.308594 276.871094 439.496094 275.222656 437.796875 C 273.574219 436.097656 271.8125 434.523438 269.9375 433.074219 C 268.0625 431.625 266.09375 430.316406 264.03125 429.152344 C 261.96875 427.984375 259.832031 426.972656 257.625 426.109375 C 255.417969 425.25 253.160156 424.550781 250.851562 424.011719 C 248.542969 423.476562 246.210938 423.105469 243.851562 422.902344 C 241.488281 422.699219 239.125 422.667969 236.761719 422.800781 C 237.9375 423.621094 239.078125 424.488281 240.1875 425.398438 C 241.292969 426.308594 242.363281 427.265625 243.394531 428.261719 C 244.425781 429.257812 245.417969 430.292969 246.363281 431.371094 C 247.3125 432.445312 248.21875 433.558594 249.078125 434.703125 C 249.9375 435.851562 250.75 437.03125 251.515625 438.246094 C 252.28125 439.457031 253 440.699219 253.667969 441.96875 C 254.332031 443.238281 254.949219 444.53125 255.511719 445.851562 C 256.074219 447.171875 256.585938 448.507812 257.042969 449.871094 C 257.5 451.230469 257.902344 452.605469 258.25 453.996094 C 258.597656 455.386719 258.886719 456.789062 259.121094 458.207031 C 259.359375 459.621094 259.535156 461.042969 259.660156 462.472656 C 259.78125 463.898438 259.84375 465.332031 259.851562 466.765625 C 259.859375 468.199219 259.8125 469.632812 259.707031 471.0625 C 259.597656 472.492188 259.433594 473.917969 259.214844 475.332031 C 258.996094 476.75 258.71875 478.15625 258.386719 479.550781 C 258.054688 480.949219 257.667969 482.328125 257.226562 483.691406 C 256.8125 484.90625 256.359375 486.105469 255.855469 487.285156 C 255.355469 488.46875 254.808594 489.628906 254.21875 490.769531 C 253.628906 491.90625 252.996094 493.023438 252.324219 494.117188 C 251.648438 495.207031 250.933594 496.273438 250.179688 497.308594 C 249.421875 498.347656 248.628906 499.355469 247.796875 500.332031 C 246.96875 501.308594 246.101562 502.253906 245.195312 503.164062 C 244.292969 504.078125 243.359375 504.953125 242.386719 505.792969 C 241.417969 506.636719 240.417969 507.4375 239.386719 508.203125 C 238.359375 508.96875 237.300781 509.691406 236.214844 510.378906 C 235.128906 511.0625 234.019531 511.703125 232.886719 512.304688 C 231.753906 512.90625 230.597656 513.460938 229.421875 513.976562 C 228.246094 514.488281 227.050781 514.957031 225.839844 515.378906 C 224.628906 515.800781 223.402344 516.179688 222.160156 516.507812 C 220.921875 516.835938 219.671875 517.121094 218.410156 517.355469 C 217.148438 517.589844 215.878906 517.777344 214.601562 517.914062 C 213.328125 518.054688 212.046875 518.144531 210.765625 518.183594 Z M 210.765625 518.183594 " fill-opacity="1" fill-rule="nonzero"/><path fill="#000000" d="M 569.875 510.039062 C 582.644531 515.066406 596.875 520.699219 609.695312 525.425781 C 608.089844 507.375 607.285156 496.867188 605.773438 481.882812 C 614.523438 471.824219 627.949219 455.433594 633.027344 448.949219 C 619.652344 446.988281 605.726562 443.917969 592.300781 441.605469 C 583.800781 428.886719 575.554688 418.828125 567.460938 405.355469 C 558.359375 421.796875 550.71875 432.105469 544.28125 442.460938 C 530.957031 445.378906 517.179688 448.847656 504.054688 451.3125 C 509.386719 457.597656 523.363281 473.433594 532.464844 483.1875 C 531.507812 498.273438 531.058594 508.730469 530.101562 526.882812 C 542.519531 521.703125 557.355469 515.570312 569.875 510.039062 Z M 569.875 510.039062 " fill-opacity="1" fill-rule="nonzero"/><path fill="#ffcc00" d="M 569.824219 498.171875 L 597.378906 509.285156 L 593.859375 479.621094 C 593.859375 479.621094 608.289062 462.171875 612.460938 456.339844 C 601.5 454.378906 593.054688 452.316406 583.703125 450.355469 C 577.667969 441.707031 572.941406 433.210938 568.0625 425.214844 C 563.539062 433.160156 558.914062 441.859375 552.980469 450.707031 C 543.726562 452.96875 535.382812 455.382812 524.46875 457.746094 C 528.84375 463.429688 543.878906 480.324219 543.878906 480.324219 L 541.414062 510.140625 Z M 569.824219 498.171875 " fill-opacity="1" fill-rule="nonzero"/><path fill="#6f9ed4" d="M 88.179688 515.570312 C 89.648438 524.421875 91.894531 533.070312 94.921875 541.519531 C 97.945312 549.96875 101.699219 558.078125 106.179688 565.851562 C 120.160156 555.796875 140.824219 541.617188 152.792969 532.816406 C 147.546875 520.304688 143.574219 507.398438 140.875 494.101562 Z M 88.179688 515.570312 " fill-opacity="1" fill-rule="nonzero"/><path fill="#6f9ed4" d="M 162.496094 552.929688 C 161.539062 551.167969 160.585938 549.410156 159.679688 547.648438 C 141.628906 560.523438 111.109375 582.09375 98.839844 591.644531 C 111.007812 616.785156 127.851562 633.480469 145.25 650.777344 C 177.429688 682.753906 215.339844 701.058594 262.40625 716.898438 C 285.464844 725.402344 307.019531 736.765625 327.066406 750.988281 C 327.066406 750.988281 356.632812 699.648438 364.171875 686.929688 C 349.859375 677.703125 334.96875 669.519531 319.507812 662.378906 C 304.046875 655.238281 288.164062 649.207031 271.855469 644.289062 C 226.957031 630.867188 187.082031 597.578125 162.496094 552.929688 Z M 162.496094 552.929688 " fill-opacity="1" fill-rule="nonzero"/><path fill="#6f9ed4" d="M 721.722656 515.570312 C 720.234375 524.421875 717.972656 533.070312 714.941406 541.515625 C 711.910156 549.964844 708.152344 558.074219 703.671875 565.851562 C 689.695312 555.796875 669.027344 541.617188 657.0625 532.816406 C 662.332031 520.3125 666.304688 507.40625 668.976562 494.101562 Z M 721.722656 515.570312 " fill-opacity="1" fill-rule="nonzero"/><path fill="#6f9ed4" d="M 647.308594 552.929688 L 650.121094 547.648438 C 668.175781 560.523438 698.695312 582.09375 710.914062 591.644531 C 698.746094 616.785156 681.949219 633.480469 664.503906 650.777344 C 632.324219 682.753906 594.410156 701.058594 547.347656 716.898438 C 524.289062 725.402344 502.734375 736.765625 482.6875 750.988281 C 482.6875 750.988281 453.121094 699.648438 445.578125 686.929688 C 459.894531 677.703125 474.78125 669.519531 490.246094 662.378906 C 505.707031 655.238281 521.589844 649.207031 537.894531 644.289062 C 582.796875 630.867188 622.667969 597.578125 647.308594 552.929688 Z M 647.308594 552.929688 " fill-opacity="1" fill-rule="nonzero"/><path fill="#6f9ed4" d="M 404.953125 717.300781 L 395.398438 709.503906 C 390.402344 705.484375 385.375 701.660156 380.3125 698.042969 L 378.855469 700.050781 C 365.230469 720.769531 354.570312 742.539062 342.300781 764.058594 C 334.15625 768.132812 324.652344 772.304688 320.378906 775.171875 C 320.378906 775.171875 319.070312 775.777344 320.933594 775.777344 L 488.621094 775.777344 C 490.53125 775.777344 489.171875 775.171875 489.171875 775.171875 C 484.949219 772.304688 475.394531 768.132812 467.25 764.058594 C 455.03125 742.539062 444.320312 720.769531 430.695312 700.050781 L 429.238281 698.042969 C 424.277344 701.660156 419.25 705.484375 414.152344 709.503906 Z M 404.953125 717.300781 " fill-opacity="1" fill-rule="nonzero"/><path fill="#ffffff" d="M 434.316406 256.875 L 430.34375 204.984375 L 430.34375 204.632812 L 430.746094 204.582031 L 441.605469 203.675781 L 442.007812 203.625 L 442.058594 204.027344 L 445.980469 255.96875 L 445.980469 256.320312 L 445.578125 256.371094 L 434.71875 257.277344 L 434.316406 257.324219 Z M 434.316406 256.875 " fill-opacity="1" fill-rule="nonzero"/><path fill="#ffffff" d="M 507.726562 244.253906 L 508.632812 189.898438 L 508.632812 189.394531 L 508.128906 189.496094 L 497.367188 191.910156 L 497.066406 191.960938 L 497.066406 192.261719 L 496.210938 218.8125 L 485.300781 194.875 L 485.148438 194.574219 L 484.847656 194.625 L 473.886719 197.039062 L 473.585938 197.140625 L 473.585938 197.441406 L 473.535156 223.839844 L 461.820312 200.054688 L 461.667969 199.753906 L 461.367188 199.804688 L 450.558594 202.167969 L 450.105469 202.316406 L 450.304688 202.769531 L 473.484375 251.796875 L 473.636719 252.097656 L 473.9375 251.996094 L 483.992188 249.785156 L 484.296875 249.734375 L 484.347656 249.382812 L 485.050781 222.332031 L 496.917969 246.667969 L 497.066406 246.917969 L 497.367188 246.867188 L 507.425781 244.65625 L 507.726562 244.605469 Z M 507.726562 244.253906 " fill-opacity="1" fill-rule="nonzero"/><path fill="#ffffff" d="M 564.542969 226.605469 L 563.992188 226.605469 L 552.125 230.929688 L 551.875 230.929688 L 547.148438 224.792969 L 532.714844 229.820312 L 533.070312 237.566406 L 533.070312 237.867188 L 532.816406 237.867188 L 520.898438 242.242188 L 520.398438 242.242188 L 520.398438 241.636719 L 519.792969 184.871094 L 519.792969 185.222656 L 520.097656 185.222656 L 528.191406 182.257812 L 528.441406 182.257812 L 564.191406 226.101562 Z M 531.660156 218.105469 L 539.957031 215.039062 L 531.058594 203.425781 Z M 531.660156 218.105469 " fill-opacity="1" fill-rule="nonzero"/><path fill="#ffffff" d="M 585.8125 215.644531 L 567.761719 179.1875 L 575.503906 175.265625 L 575.90625 175.117188 L 575.707031 174.765625 L 570.175781 163.652344 L 570.023438 163.300781 L 569.621094 163.5 L 543.527344 176.675781 L 543.175781 176.875 L 543.375 177.226562 L 548.855469 188.289062 L 549.007812 188.640625 L 549.359375 188.492188 L 557.152344 184.570312 L 575.253906 220.972656 L 575.40625 221.324219 L 575.808594 221.171875 L 585.664062 216.144531 L 586.015625 215.996094 Z M 585.8125 215.644531 " fill-opacity="1" fill-rule="nonzero"/><path fill="#ffffff" d="M 637.101562 183.3125 L 636.597656 183.664062 L 626.039062 190.703125 L 625.785156 190.703125 L 619.753906 185.675781 L 606.929688 194.222656 L 609.042969 201.664062 L 598.535156 208.703125 L 598.082031 209.003906 L 598.082031 208.453125 L 584.355469 153.445312 L 584.355469 153.144531 L 584.605469 153.144531 L 591.796875 148.113281 L 592.046875 148.113281 L 637 182.257812 Z M 603.109375 182.859375 L 610.453125 177.832031 L 599.136719 168.628906 Z M 603.109375 182.859375 " fill-opacity="1" fill-rule="nonzero"/><path fill="#ffffff" d="M 308.714844 192.0625 L 318.871094 194.726562 L 319.222656 194.828125 L 319.121094 195.230469 L 306.5 245.8125 L 306.402344 246.214844 L 306.046875 246.113281 L 295.890625 243.550781 L 295.539062 243.449219 L 295.640625 243.097656 L 308.210938 192.3125 L 308.3125 191.960938 Z M 308.714844 192.0625 " fill-opacity="1" fill-rule="nonzero"/><path fill="#ffffff" d="M 339.988281 199.753906 L 339.585938 199.652344 L 328.824219 197.238281 L 328.421875 197.140625 L 328.324219 197.59375 L 317.8125 248.425781 L 317.765625 248.828125 L 318.117188 248.878906 L 341.949219 253.804688 L 342.351562 253.90625 L 342.453125 253.503906 L 344.867188 241.789062 L 344.964844 241.4375 L 344.5625 241.335938 L 332.144531 238.46875 L 339.886719 200.15625 Z M 339.988281 199.753906 " fill-opacity="1" fill-rule="nonzero"/><path fill="#ffffff" d="M 295.941406 202.117188 C 292.574219 210.414062 289.054688 211.320312 286.691406 211.570312 C 287.441406 212.667969 288.035156 213.847656 288.464844 215.105469 C 288.898438 216.363281 289.152344 217.660156 289.234375 218.988281 C 289.3125 220.316406 289.214844 221.628906 288.933594 222.933594 C 288.65625 224.234375 288.210938 225.472656 287.59375 226.65625 C 283.574219 235.605469 274.824219 237.816406 263.007812 232.890625 L 252.953125 228.664062 L 252.597656 228.664062 L 252.597656 228.3125 L 272.710938 178.785156 L 272.710938 178.433594 L 273.113281 178.433594 L 283.171875 182.660156 C 295.035156 187.6875 299.359375 194.171875 295.941406 202.117188 Z M 276.179688 202.117188 C 281.210938 204.078125 282.71875 204.984375 284.175781 201.363281 C 285.632812 197.742188 282.464844 196.335938 279.148438 195.128906 Z M 277.640625 220.371094 C 279.5 215.84375 276.082031 214.386719 271.855469 212.675781 L 268.289062 221.425781 C 272.007812 223.035156 275.777344 225.144531 277.640625 220.46875 Z M 277.640625 220.371094 " fill-opacity="1" fill-rule="nonzero"/><path fill="#ffffff" d="M 377.246094 217 C 375.84375 216.726562 374.441406 216.746094 373.042969 217.050781 C 371.644531 217.355469 370.363281 217.925781 369.203125 218.761719 C 367.601562 219.902344 366.273438 221.304688 365.21875 222.96875 C 364.167969 224.628906 363.464844 226.429688 363.117188 228.363281 C 362.898438 229.179688 362.757812 230.011719 362.699219 230.855469 C 362.640625 231.699219 362.664062 232.542969 362.769531 233.382812 C 362.875 234.21875 363.0625 235.042969 363.324219 235.847656 C 363.589844 236.648438 363.929688 237.421875 364.34375 238.15625 C 364.757812 238.894531 365.238281 239.585938 365.789062 240.230469 C 366.335938 240.875 366.941406 241.460938 367.605469 241.988281 C 368.265625 242.515625 368.972656 242.972656 369.722656 243.363281 C 370.472656 243.75 371.253906 244.066406 372.066406 244.304688 C 373.480469 244.5625 374.886719 244.539062 376.292969 244.234375 C 377.695312 243.929688 378.984375 243.363281 380.164062 242.542969 C 381.761719 241.390625 383.082031 239.976562 384.125 238.308594 C 385.167969 236.636719 385.859375 234.832031 386.195312 232.890625 C 386.417969 232.074219 386.5625 231.246094 386.621094 230.402344 C 386.683594 229.558594 386.660156 228.71875 386.554688 227.878906 C 386.453125 227.039062 386.269531 226.21875 386.003906 225.414062 C 385.738281 224.613281 385.398438 223.84375 384.984375 223.105469 C 384.570312 222.371094 384.085938 221.679688 383.539062 221.039062 C 382.988281 220.398438 382.382812 219.8125 381.71875 219.289062 C 381.054688 218.765625 380.347656 218.3125 379.59375 217.925781 C 378.84375 217.542969 378.058594 217.234375 377.246094 217 Z M 397.8125 235.152344 C 397.476562 237.101562 396.957031 239 396.253906 240.84375 C 395.546875 242.691406 394.667969 244.449219 393.613281 246.125 C 392.5625 247.796875 391.355469 249.351562 389.996094 250.789062 C 388.640625 252.226562 387.15625 253.515625 385.542969 254.660156 C 384.386719 255.484375 383.160156 256.183594 381.863281 256.761719 C 380.5625 257.339844 379.222656 257.78125 377.835938 258.085938 C 376.449219 258.394531 375.046875 258.558594 373.625 258.582031 C 372.207031 258.609375 370.800781 258.488281 369.402344 258.230469 C 356.632812 255.765625 348.585938 241.335938 351.503906 226.101562 C 351.835938 224.152344 352.355469 222.253906 353.0625 220.410156 C 353.769531 218.5625 354.648438 216.800781 355.699219 215.128906 C 356.753906 213.457031 357.957031 211.902344 359.316406 210.464844 C 360.675781 209.027344 362.160156 207.738281 363.769531 206.59375 C 364.933594 205.78125 366.164062 205.089844 367.464844 204.519531 C 368.761719 203.953125 370.101562 203.515625 371.488281 203.207031 C 372.871094 202.902344 374.273438 202.734375 375.691406 202.703125 C 377.109375 202.671875 378.515625 202.777344 379.910156 203.023438 C 392.683594 205.535156 400.726562 219.917969 397.8125 235.152344 Z M 397.8125 235.152344 " fill-opacity="1" fill-rule="nonzero"/><path fill="#ffffff" d="M 192.363281 179.289062 C 192.144531 179.613281 192 179.96875 191.925781 180.355469 C 191.851562 180.738281 191.855469 181.121094 191.9375 181.503906 C 192.015625 181.886719 192.167969 182.242188 192.390625 182.5625 C 192.613281 182.886719 192.886719 183.152344 193.21875 183.363281 C 193.871094 183.828125 194.59375 183.976562 195.378906 183.816406 C 196.160156 183.628906 196.777344 183.210938 197.238281 182.558594 L 218.308594 150.175781 L 218.308594 149.824219 L 218.660156 149.824219 L 227.910156 155.910156 L 228.214844 155.910156 L 228.214844 156.210938 L 206.542969 189.496094 C 205.480469 191.140625 204.144531 192.515625 202.53125 193.621094 C 200.917969 194.730469 199.15625 195.484375 197.238281 195.882812 C 195.316406 196.289062 193.390625 196.308594 191.464844 195.933594 C 189.535156 195.558594 187.757812 194.820312 186.128906 193.71875 C 185.355469 193.179688 184.640625 192.570312 183.980469 191.898438 C 183.320312 191.222656 182.730469 190.492188 182.210938 189.707031 C 181.6875 188.921875 181.242188 188.09375 180.875 187.222656 C 180.507812 186.355469 180.226562 185.460938 180.027344 184.539062 C 179.828125 183.617188 179.71875 182.683594 179.695312 181.742188 C 179.671875 180.796875 179.734375 179.859375 179.886719 178.929688 C 180.039062 178 180.273438 177.089844 180.597656 176.203125 C 180.921875 175.316406 181.320312 174.46875 181.804688 173.65625 L 181.804688 174.210938 L 181.453125 174.210938 L 181.453125 173.859375 L 183.3125 170.992188 L 183.5625 170.640625 L 183.914062 170.640625 L 193.769531 176.777344 L 194.070312 176.777344 L 194.070312 177.078125 L 192.816406 179.039062 " fill-opacity="1" fill-rule="nonzero"/><path fill="#ffffff" d="M 238.421875 202.972656 L 250.136719 179.894531 L 250.136719 179.539062 L 250.488281 179.539062 L 260.191406 184.570312 L 260.542969 184.570312 L 260.542969 184.972656 L 248.074219 209.859375 L 248.074219 209.457031 C 247.042969 211.523438 245.65625 213.316406 243.914062 214.832031 C 242.171875 216.347656 240.207031 217.472656 238.019531 218.207031 C 235.871094 218.90625 233.675781 219.164062 231.425781 218.984375 C 229.175781 218.800781 227.050781 218.1875 225.046875 217.152344 C 224.542969 216.886719 224.054688 216.597656 223.578125 216.285156 C 223.105469 215.972656 222.644531 215.640625 222.203125 215.28125 C 221.761719 214.925781 221.335938 214.546875 220.933594 214.148438 C 220.527344 213.75 220.140625 213.332031 219.777344 212.898438 C 219.414062 212.460938 219.070312 212.007812 218.75 211.539062 C 218.429688 211.070312 218.132812 210.585938 217.859375 210.085938 C 217.589844 209.585938 217.339844 209.078125 217.117188 208.554688 C 216.894531 208.03125 216.695312 207.5 216.527344 206.957031 C 216.355469 206.414062 216.210938 205.867188 216.09375 205.308594 C 215.976562 204.753906 215.886719 204.195312 215.824219 203.628906 C 215.761719 203.0625 215.726562 202.496094 215.71875 201.929688 C 215.710938 201.359375 215.734375 200.792969 215.78125 200.226562 C 215.828125 199.660156 215.90625 199.097656 216.007812 198.539062 C 216.113281 197.980469 216.242188 197.429688 216.398438 196.882812 C 216.554688 196.335938 216.738281 195.796875 216.949219 195.269531 C 217.160156 194.742188 217.394531 194.226562 217.652344 193.71875 L 230.125 169.082031 L 230.125 168.730469 L 230.476562 168.730469 L 240.179688 173.757812 L 240.53125 173.757812 L 240.53125 174.109375 L 228.96875 197.945312 C 228.804688 198.265625 228.675781 198.601562 228.578125 198.949219 C 228.480469 199.296875 228.414062 199.652344 228.386719 200.011719 C 228.359375 200.371094 228.363281 200.730469 228.40625 201.089844 C 228.445312 201.449219 228.523438 201.800781 228.632812 202.148438 C 228.742188 202.492188 228.882812 202.820312 229.054688 203.140625 C 229.230469 203.457031 229.433594 203.753906 229.664062 204.03125 C 229.894531 204.308594 230.152344 204.5625 230.429688 204.789062 C 230.710938 205.015625 231.011719 205.214844 231.332031 205.386719 C 231.960938 205.738281 232.636719 205.945312 233.355469 206.003906 C 234.074219 206.066406 234.773438 205.976562 235.453125 205.738281 C 236.15625 205.515625 236.785156 205.160156 237.34375 204.683594 C 237.902344 204.203125 238.34375 203.632812 238.671875 202.972656 Z M 238.421875 202.972656 " fill-opacity="1" fill-rule="nonzero"/><path fill="#ffffff" d="M 264.464844 172.902344 L 245.410156 176.070312 L 244.65625 176.171875 L 245.007812 175.46875 L 250.238281 165.160156 L 250.4375 164.808594 L 250.789062 165.007812 L 264.617188 172.148438 L 265.671875 172.703125 Z M 264.464844 172.902344 " fill-opacity="1" fill-rule="nonzero"/><path fill="#ffffff" d="M 207.597656 685.019531 L 207.898438 685.167969 L 220.820312 692.359375 L 221.222656 692.609375 L 221.476562 692.160156 L 247.320312 645.246094 L 247.570312 644.84375 L 247.167969 644.59375 L 238.519531 639.816406 L 238.066406 639.613281 L 237.867188 640.015625 L 221.023438 670.4375 L 227.859375 633.984375 L 227.558594 633.78125 L 214.636719 626.589844 L 214.234375 626.339844 L 213.984375 626.792969 L 188.089844 673.703125 L 187.886719 674.105469 L 188.289062 674.359375 L 196.9375 679.1875 L 197.390625 679.386719 L 197.640625 678.984375 L 214.386719 648.515625 Z M 207.597656 685.019531 " fill-opacity="1" fill-rule="nonzero"/><path fill="#ffffff" d="M 284.878906 691.554688 L 273.414062 687.984375 L 273.113281 687.984375 L 273.113281 688.285156 C 272.433594 689.230469 271.628906 690.058594 270.703125 690.769531 C 269.777344 691.476562 268.769531 692.035156 267.675781 692.449219 C 266.585938 692.859375 265.457031 693.105469 264.296875 693.183594 C 263.132812 693.261719 261.980469 693.171875 260.84375 692.914062 C 259.527344 692.511719 258.332031 691.875 257.261719 691.003906 C 256.191406 690.132812 255.324219 689.09375 254.660156 687.882812 C 253.78125 686.179688 253.273438 684.371094 253.132812 682.460938 C 252.996094 680.546875 253.234375 678.6875 253.855469 676.871094 C 254.027344 676.054688 254.277344 675.261719 254.601562 674.492188 C 254.929688 673.722656 255.332031 672.992188 255.800781 672.300781 C 256.273438 671.609375 256.808594 670.972656 257.40625 670.390625 C 258.003906 669.804688 258.65625 669.285156 259.355469 668.828125 C 260.058594 668.371094 260.796875 667.988281 261.574219 667.679688 C 262.351562 667.371094 263.148438 667.140625 263.972656 666.988281 C 264.796875 666.839844 265.625 666.769531 266.460938 666.78125 C 267.296875 666.796875 268.125 666.890625 268.941406 667.066406 C 269.9375 667.394531 270.867188 667.851562 271.738281 668.4375 C 272.605469 669.027344 273.375 669.722656 274.042969 670.527344 C 274.714844 671.332031 275.261719 672.214844 275.6875 673.171875 C 276.109375 674.132812 276.390625 675.128906 276.535156 676.167969 L 276.535156 676.46875 L 276.785156 676.46875 L 288.601562 680.039062 L 289.152344 680.039062 L 289.152344 679.488281 C 289.332031 678.09375 289.390625 676.695312 289.332031 675.292969 C 289.277344 673.890625 289.101562 672.5 288.8125 671.128906 C 288.523438 669.753906 288.121094 668.414062 287.605469 667.105469 C 287.089844 665.800781 286.472656 664.546875 285.746094 663.34375 C 285.023438 662.140625 284.203125 661.007812 283.289062 659.941406 C 282.371094 658.875 281.375 657.894531 280.296875 656.996094 C 279.214844 656.097656 278.070312 655.292969 276.855469 654.589844 C 275.640625 653.882812 274.378906 653.28125 273.0625 652.789062 C 260.394531 649.117188 246.566406 658.066406 241.988281 672.902344 C 241.390625 674.777344 240.980469 676.691406 240.757812 678.648438 C 240.53125 680.601562 240.5 682.5625 240.660156 684.523438 C 240.820312 686.484375 241.167969 688.414062 241.703125 690.308594 C 242.242188 692.199219 242.957031 694.023438 243.851562 695.777344 C 244.476562 697.0625 245.222656 698.269531 246.09375 699.402344 C 246.964844 700.535156 247.941406 701.566406 249.019531 702.5 C 250.101562 703.433594 251.265625 704.25 252.511719 704.945312 C 253.757812 705.644531 255.058594 706.207031 256.421875 706.640625 C 257.84375 706.96875 259.289062 707.171875 260.75 707.25 C 262.207031 707.324219 263.664062 707.277344 265.117188 707.101562 C 266.566406 706.921875 267.992188 706.621094 269.390625 706.195312 C 270.792969 705.769531 272.144531 705.226562 273.445312 704.566406 C 274.75 703.90625 275.988281 703.136719 277.160156 702.257812 C 278.328125 701.382812 279.414062 700.410156 280.414062 699.34375 C 281.414062 698.277344 282.316406 697.132812 283.117188 695.910156 C 283.917969 694.683594 284.605469 693.402344 285.183594 692.058594 L 285.183594 691.554688 Z M 284.878906 691.554688 " fill-opacity="1" fill-rule="nonzero"/><path fill="#ffffff" d="M 166.167969 656.308594 L 174.816406 662.996094 L 175.117188 663.246094 L 175.367188 662.894531 L 207.445312 621.914062 L 207.699219 621.613281 L 207.398438 621.363281 L 198.75 614.675781 L 198.445312 614.421875 L 198.195312 614.726562 L 166.066406 655.753906 L 165.8125 656.054688 Z M 166.167969 656.308594 " fill-opacity="1" fill-rule="nonzero"/><path fill="#ffffff" d="M 298.910156 708.5 L 302.175781 701.761719 L 314.695312 707.796875 L 320.53125 695.777344 L 308.058594 689.695312 L 311.078125 683.558594 L 327.367188 691.503906 L 333.25 679.488281 L 306.148438 666.261719 L 282.265625 715.289062 L 309.316406 728.511719 L 315.199219 716.496094 Z M 298.910156 708.5 " fill-opacity="1" fill-rule="nonzero"/><path fill="#ffffff" d="M 170.289062 625.132812 C 170.53125 623.285156 170.511719 621.4375 170.238281 619.589844 C 169.964844 617.746094 169.445312 615.972656 168.679688 614.273438 C 168.484375 613.972656 168.320312 613.652344 168.1875 613.316406 C 168.058594 612.984375 167.960938 612.640625 167.898438 612.285156 C 167.835938 611.929688 167.8125 611.574219 167.824219 611.214844 C 167.832031 610.855469 167.878906 610.5 167.960938 610.152344 C 168.042969 609.800781 168.160156 609.464844 168.3125 609.136719 C 168.460938 608.808594 168.644531 608.503906 168.855469 608.210938 C 169.070312 607.921875 169.308594 607.65625 169.574219 607.417969 C 169.84375 607.175781 170.128906 606.964844 170.441406 606.78125 C 170.738281 606.589844 171.0625 606.460938 171.40625 606.386719 C 171.753906 606.3125 172.101562 606.300781 172.453125 606.351562 C 172.804688 606.402344 173.132812 606.511719 173.445312 606.679688 C 173.757812 606.847656 174.027344 607.066406 174.261719 607.332031 C 174.511719 607.636719 174.695312 607.976562 174.808594 608.351562 C 174.921875 608.730469 174.960938 609.113281 174.921875 609.503906 C 174.886719 609.894531 174.773438 610.265625 174.589844 610.609375 C 174.40625 610.957031 174.164062 611.257812 173.859375 611.507812 L 173.40625 611.910156 L 173.105469 611.910156 L 173.355469 612.210938 L 180.394531 620.757812 L 180.699219 621.058594 L 181 620.808594 L 182.304688 619.703125 L 182.609375 619.402344 C 183.308594 618.761719 183.945312 618.0625 184.511719 617.300781 C 185.082031 616.542969 185.574219 615.734375 185.992188 614.882812 C 186.410156 614.03125 186.742188 613.144531 186.992188 612.230469 C 187.242188 611.3125 187.402344 610.382812 187.476562 609.4375 C 187.550781 608.492188 187.535156 607.546875 187.433594 606.601562 C 187.328125 605.660156 187.136719 604.734375 186.855469 603.824219 C 186.578125 602.917969 186.214844 602.046875 185.773438 601.207031 C 185.328125 600.367188 184.808594 599.578125 184.21875 598.835938 C 183.636719 598.121094 182.996094 597.464844 182.289062 596.875 C 181.585938 596.28125 180.832031 595.757812 180.027344 595.308594 C 179.226562 594.859375 178.386719 594.488281 177.511719 594.199219 C 176.640625 593.910156 175.746094 593.703125 174.832031 593.582031 C 173.917969 593.460938 173.003906 593.429688 172.085938 593.484375 C 171.164062 593.535156 170.257812 593.675781 169.367188 593.902344 C 168.472656 594.128906 167.609375 594.4375 166.777344 594.824219 C 165.941406 595.214844 165.152344 595.679688 164.40625 596.222656 C 163.34375 596.863281 162.359375 597.605469 161.453125 598.453125 C 160.546875 599.300781 159.738281 600.234375 159.027344 601.253906 C 158.316406 602.269531 157.71875 603.351562 157.234375 604.496094 C 156.753906 605.636719 156.394531 606.820312 156.160156 608.039062 C 155.894531 609.886719 155.894531 611.738281 156.171875 613.585938 C 156.445312 615.433594 156.976562 617.207031 157.769531 618.898438 C 157.957031 619.203125 158.117188 619.519531 158.242188 619.855469 C 158.367188 620.191406 158.460938 620.535156 158.515625 620.886719 C 158.574219 621.238281 158.597656 621.59375 158.585938 621.953125 C 158.574219 622.308594 158.527344 622.660156 158.445312 623.011719 C 158.363281 623.359375 158.25 623.695312 158.101562 624.019531 C 157.953125 624.34375 157.773438 624.652344 157.566406 624.941406 C 157.355469 625.234375 157.121094 625.5 156.859375 625.742188 C 156.597656 625.988281 156.3125 626.203125 156.007812 626.390625 C 155.464844 626.769531 154.863281 626.9375 154.199219 626.894531 C 153.648438 626.800781 153.164062 626.574219 152.746094 626.210938 C 152.324219 625.847656 152.027344 625.402344 151.859375 624.871094 C 151.6875 624.339844 151.671875 623.804688 151.800781 623.265625 C 151.933594 622.722656 152.195312 622.257812 152.589844 621.863281 L 153.042969 621.511719 L 153.546875 621.160156 L 153.546875 620.859375 L 146.507812 612.3125 L 146.507812 612.011719 L 146.203125 612.261719 L 144.898438 613.367188 L 144.59375 613.617188 C 143.886719 614.261719 143.246094 614.960938 142.671875 615.722656 C 142.097656 616.488281 141.597656 617.296875 141.179688 618.152344 C 140.757812 619.011719 140.421875 619.902344 140.167969 620.820312 C 139.917969 621.742188 139.753906 622.679688 139.679688 623.632812 C 139.605469 624.582031 139.621094 625.535156 139.726562 626.484375 C 139.832031 627.433594 140.027344 628.363281 140.3125 629.273438 C 140.59375 630.1875 140.960938 631.0625 141.410156 631.90625 C 141.859375 632.75 142.386719 633.542969 142.988281 634.285156 C 143.570312 634.996094 144.214844 635.644531 144.921875 636.234375 C 145.628906 636.824219 146.382812 637.339844 147.1875 637.785156 C 147.992188 638.230469 148.832031 638.597656 149.707031 638.882812 C 150.578125 639.171875 151.472656 639.375 152.382812 639.492188 C 153.296875 639.609375 154.210938 639.640625 155.128906 639.585938 C 156.046875 639.53125 156.953125 639.390625 157.84375 639.164062 C 158.734375 638.9375 159.597656 638.628906 160.429688 638.242188 C 161.261719 637.851562 162.050781 637.386719 162.796875 636.847656 C 163.863281 636.203125 164.847656 635.457031 165.753906 634.605469 C 166.664062 633.753906 167.472656 632.816406 168.183594 631.792969 C 168.894531 630.769531 169.488281 629.6875 169.972656 628.539062 C 170.453125 627.390625 170.8125 626.207031 171.042969 624.984375 Z M 170.289062 625.132812 " fill-opacity="1" fill-rule="nonzero"/><path fill="#ffffff" d="M 482.585938 677.777344 C 482.980469 678.765625 483.148438 679.789062 483.097656 680.851562 C 483.042969 681.914062 482.773438 682.917969 482.285156 683.863281 C 480.957031 685.960938 479.148438 687.484375 476.855469 688.4375 L 474.84375 689.394531 L 479.167969 698.34375 L 487.714844 694.167969 L 503.855469 727.152344 L 514.96875 721.722656 L 490.882812 672.347656 L 482.234375 676.570312 Z M 482.585938 677.777344 " fill-opacity="1" fill-rule="nonzero"/><path fill="#ffffff" d="M 556.347656 663.398438 C 555.066406 660.796875 553.390625 658.484375 551.320312 656.457031 C 549.378906 654.589844 547.097656 653.332031 544.480469 652.6875 C 543.519531 652.5625 542.554688 652.511719 541.582031 652.539062 C 540.613281 652.570312 539.652344 652.675781 538.699219 652.855469 C 537.746094 653.039062 536.8125 653.296875 535.898438 653.628906 C 534.988281 653.960938 534.105469 654.359375 533.257812 654.832031 C 532.410156 655.304688 531.605469 655.84375 530.84375 656.445312 C 530.082031 657.042969 529.371094 657.703125 528.714844 658.417969 C 528.058594 659.132812 527.460938 659.894531 526.925781 660.703125 C 526.390625 661.515625 525.925781 662.363281 525.527344 663.246094 C 524.972656 665.777344 524.828125 668.335938 525.09375 670.914062 C 525.363281 673.492188 526.023438 675.964844 527.085938 678.332031 C 527.910156 680.484375 528.949219 682.527344 530.203125 684.464844 C 531.300781 686.207031 532.65625 687.714844 534.273438 688.992188 C 535.851562 690.152344 537.609375 690.859375 539.554688 691.101562 C 540.59375 691.179688 541.628906 691.144531 542.664062 690.992188 C 543.695312 690.839844 544.695312 690.578125 545.671875 690.203125 C 546.644531 689.828125 547.566406 689.351562 548.433594 688.773438 C 549.300781 688.199219 550.097656 687.53125 550.816406 686.777344 C 551.25 686.273438 551.632812 685.738281 551.972656 685.167969 C 552.476562 686.578125 552.929688 687.882812 553.28125 689.140625 C 553.671875 690.367188 553.890625 691.625 553.933594 692.914062 C 553.980469 693.777344 553.8125 694.597656 553.433594 695.375 C 552.996094 696.097656 552.378906 696.585938 551.570312 696.835938 C 549.960938 697.4375 549.308594 696.835938 549.109375 696.835938 C 548.132812 695.945312 547.445312 694.871094 547.046875 693.617188 L 535.785156 697.941406 C 536.636719 700.175781 537.875 702.171875 539.503906 703.925781 C 540.925781 705.367188 542.601562 706.386719 544.53125 706.992188 C 546.171875 707.53125 547.847656 707.699219 549.558594 707.492188 C 551.289062 707.230469 552.964844 706.78125 554.589844 706.136719 C 556.246094 705.601562 557.78125 704.828125 559.199219 703.816406 C 560.613281 702.800781 561.84375 701.597656 562.886719 700.203125 C 563.714844 698.960938 564.335938 697.625 564.757812 696.191406 C 565.175781 694.761719 565.375 693.296875 565.347656 691.804688 C 565.296875 688.484375 564.742188 685.25 563.691406 682.101562 C 562.683594 678.882812 561.476562 675.414062 560.121094 672.046875 C 559.035156 669.085938 557.78125 666.203125 556.347656 663.398438 Z M 547.046875 676.46875 C 546.980469 676.75 546.878906 677.019531 546.746094 677.277344 C 546.613281 677.53125 546.449219 677.769531 546.261719 677.984375 C 546.070312 678.203125 545.855469 678.394531 545.621094 678.558594 C 545.382812 678.726562 545.128906 678.859375 544.859375 678.964844 C 544.589844 679.066406 544.3125 679.136719 544.027344 679.171875 C 543.738281 679.210938 543.453125 679.210938 543.164062 679.179688 C 542.878906 679.144531 542.601562 679.078125 542.328125 678.976562 C 542.058594 678.875 541.804688 678.746094 541.566406 678.582031 C 540.011719 676.832031 538.886719 674.835938 538.195312 672.597656 C 537.695312 671.292969 537.292969 670.035156 536.941406 668.878906 C 536.65625 667.945312 536.503906 666.988281 536.488281 666.011719 C 536.460938 665.355469 536.628906 664.75 536.992188 664.203125 C 537.449219 663.640625 538.019531 663.238281 538.699219 662.996094 C 539.386719 662.777344 540.074219 662.777344 540.761719 662.996094 C 541.398438 663.171875 541.933594 663.503906 542.371094 664 C 543.03125 664.703125 543.566406 665.492188 543.980469 666.363281 C 544.53125 667.46875 545.085938 668.675781 545.589844 669.984375 C 546.53125 672.042969 547.019531 674.207031 547.046875 676.46875 Z M 547.046875 676.46875 " fill-opacity="1" fill-rule="nonzero"/><path fill="#ffffff" d="M 607.484375 637.554688 C 605.917969 635.140625 603.992188 633.0625 601.703125 631.316406 C 599.539062 629.683594 597.109375 628.730469 594.410156 628.453125 C 592.890625 628.339844 591.386719 628.457031 589.902344 628.808594 C 588.417969 629.160156 587.023438 629.730469 585.710938 630.511719 C 584.601562 630.992188 583.5625 631.59375 582.597656 632.324219 C 581.632812 633.050781 580.765625 633.882812 580 634.820312 C 579.234375 635.757812 578.589844 636.769531 578.070312 637.859375 C 577.546875 638.953125 577.160156 640.089844 576.914062 641.273438 C 576.617188 643.90625 576.757812 646.511719 577.335938 649.097656 C 577.914062 651.683594 578.894531 654.101562 580.28125 656.359375 C 581.363281 658.398438 582.636719 660.308594 584.105469 662.089844 C 585.433594 663.683594 586.992188 665.007812 588.78125 666.0625 C 590.457031 667.039062 592.269531 667.527344 594.210938 667.519531 C 595.253906 667.472656 596.28125 667.3125 597.289062 667.035156 C 598.296875 666.761719 599.261719 666.378906 600.183594 665.886719 C 601.105469 665.394531 601.960938 664.804688 602.753906 664.125 C 603.542969 663.441406 604.25 662.679688 604.871094 661.839844 C 605.257812 661.308594 605.574219 660.738281 605.824219 660.128906 C 606.527344 661.4375 607.132812 662.691406 607.636719 663.898438 C 608.179688 665.070312 608.546875 666.292969 608.742188 667.570312 C 608.957031 668.410156 608.957031 669.246094 608.742188 670.085938 C 608.382812 670.867188 607.8125 671.4375 607.03125 671.792969 C 605.523438 672.546875 604.820312 672.144531 604.566406 671.792969 C 603.515625 671.007812 602.710938 670.015625 602.15625 668.828125 L 591.546875 674.460938 C 592.636719 676.578125 594.09375 678.40625 595.917969 679.941406 C 597.410156 681.140625 599.085938 681.960938 600.949219 682.402344 C 602.625 682.792969 604.300781 682.792969 605.976562 682.402344 C 607.71875 681.945312 609.398438 681.308594 611.003906 680.492188 C 612.59375 679.773438 614.035156 678.828125 615.324219 677.648438 C 616.613281 676.472656 617.6875 675.125 618.546875 673.605469 C 619.210938 672.277344 619.664062 670.878906 619.902344 669.410156 C 620.144531 667.945312 620.160156 666.476562 619.953125 665.007812 C 619.511719 661.707031 618.570312 658.558594 617.136719 655.554688 C 615.730469 652.4375 614.070312 649.117188 612.109375 645.796875 C 610.714844 642.96875 609.171875 640.21875 607.484375 637.554688 Z M 599.890625 651.832031 C 599.886719 652.441406 599.710938 652.992188 599.359375 653.488281 C 599.011719 653.984375 598.550781 654.339844 597.980469 654.546875 C 597.746094 654.722656 597.484375 654.855469 597.207031 654.945312 C 596.925781 655.035156 596.640625 655.082031 596.347656 655.082031 C 596.054688 655.082031 595.765625 655.035156 595.488281 654.945312 C 595.207031 654.855469 594.949219 654.722656 594.714844 654.546875 C 592.925781 653.023438 591.566406 651.179688 590.640625 649.015625 C 589.988281 647.882812 589.417969 646.710938 588.929688 645.496094 C 588.527344 644.613281 588.261719 643.691406 588.125 642.730469 C 587.964844 642.128906 587.964844 641.523438 588.125 640.921875 C 588.503906 640.292969 589.023438 639.824219 589.683594 639.511719 C 590.308594 639.152344 590.976562 638.984375 591.695312 639.011719 C 592.339844 639.121094 592.910156 639.390625 593.40625 639.816406 C 594.148438 640.445312 594.785156 641.164062 595.316406 641.976562 C 596.0625 643.039062 596.730469 644.144531 597.328125 645.296875 C 598.6875 647.277344 599.542969 649.457031 599.890625 651.832031 Z M 599.890625 651.832031 " fill-opacity="1" fill-rule="nonzero"/><path fill="#ffffff" d="M 656.359375 628.550781 C 656.1875 628.164062 656.050781 627.761719 655.957031 627.34375 C 655.503906 625.699219 655.25 624.023438 655.203125 622.316406 L 654.847656 614.523438 C 654.785156 612.71875 654.601562 610.925781 654.296875 609.144531 C 654.015625 607.539062 653.527344 605.996094 652.839844 604.519531 C 652.242188 603.089844 651.472656 601.765625 650.523438 600.546875 C 649.5 599.261719 648.394531 598.058594 647.207031 596.925781 C 645.746094 595.375 644.046875 594.164062 642.101562 593.292969 C 640.160156 592.417969 638.121094 591.957031 635.992188 591.898438 C 634.929688 591.96875 633.886719 592.152344 632.859375 592.449219 C 631.835938 592.742188 630.851562 593.140625 629.914062 593.644531 C 628.972656 594.144531 628.09375 594.742188 627.28125 595.429688 C 626.46875 596.121094 625.734375 596.886719 625.082031 597.730469 C 624.273438 598.492188 623.550781 599.332031 622.914062 600.246094 C 622.277344 601.160156 621.742188 602.132812 621.308594 603.15625 C 620.878906 604.183594 620.554688 605.242188 620.34375 606.335938 C 620.132812 607.429688 620.035156 608.53125 620.054688 609.648438 C 620.296875 611.890625 620.949219 614.007812 622.007812 615.996094 C 623.070312 617.988281 624.460938 619.710938 626.1875 621.160156 L 628.753906 623.523438 L 636.847656 614.625 L 635.742188 613.617188 L 633.128906 611.003906 C 632.457031 610.335938 631.9375 609.5625 631.570312 608.691406 C 631.242188 608.113281 631.109375 607.492188 631.167969 606.832031 C 631.273438 606.097656 631.625 605.511719 632.222656 605.070312 C 633.328125 603.765625 634.886719 602.808594 638.105469 605.726562 C 639.0625 606.679688 639.765625 607.234375 640.417969 607.9375 C 640.992188 608.570312 641.460938 609.273438 641.828125 610.050781 C 642.160156 610.914062 642.410156 611.800781 642.582031 612.714844 C 642.847656 613.90625 642.964844 615.113281 642.933594 616.335938 L 643.234375 621.964844 C 643.320312 624.371094 643.605469 626.75 644.089844 629.105469 C 644.433594 631.3125 645.003906 633.457031 645.800781 635.542969 C 646.632812 637.546875 647.671875 639.441406 648.917969 641.222656 C 650.191406 643.089844 651.683594 644.765625 653.390625 646.25 L 654.449219 647.308594 L 676.269531 623.875 L 667.972656 616.132812 Z M 656.359375 628.550781 " fill-opacity="1" fill-rule="nonzero"/></svg>