<svg id="Layer_1" data-name="Layer 1" xmlns="http://www.w3.org/2000/svg" viewBox="0 0 240 240"><defs><style>.cls-1{fill:#fff;}.cls-2{fill:#6f9ed4;}.cls-3{fill:#fc0;}</style></defs><path class="cls-1" d="M189.91,138l-2.35-.94-11-4.43a48.23,48.23,0,0,0-2-15.78c-.53-1.89-1.92-7.53-2.88-11.45h11.6V80.66h-6.78c1.17-2.66,2-4.5,2-4.53l.89-1.88-1.3-1.62L165.74,57.18l-2.19-2.74-2.63,2.34a62.29,62.29,0,0,1-10.24,6.82,31.74,31.74,0,0,0-61.39,0A70.44,70.44,0,0,1,79,56.72l-2.62-2.21-2.14,2.67L61.88,72.63l-1.3,1.62.88,1.88s.88,1.87,2,4.53h-6.8v24.72H68.48c-1.06,4.44-2.22,8.58-3,11.35a40.89,40.89,0,0,0-2,15.84L52.4,137l-2.31.92.23,2.48A41.59,41.59,0,0,0,54,153.05l-.69.54-2.06,1.6,1.06,2.38c3.41,7.68,7.83,12.07,11.39,15.6l.17.18c8,8,17.49,11.87,25.68,14.63.4.15.81.31,1.21.48V200h58.39V188.45l1.28-.5c8.11-2.73,17.56-6.63,25.59-14.6l.87-.86c3.45-3.39,7.36-7.23,10.71-15l1-2.37-2-1.58-.64-.5a43.55,43.55,0,0,0,3.65-12.59Z"/><path d="M145.86,196.75V186.3c1.13-.51,2.28-1,3.47-1.43,7.85-2.64,16.87-6.36,24.41-13.84,3.53-3.51,7.66-7.54,10.87-14.78L181.73,154a38.1,38.1,0,0,0,4.62-13.85L173,134.78a39,39,0,0,0-1.13-15.17l-.51-1.82c-1.08-3.87-2.73-9.75-4-15.72H180V84h-8.82c1.62-3.92,4.39-9.29,4.39-9.29L163.15,59.27l-2.33,1.79a66.18,66.18,0,0,1-12.59,7.53h0a28.42,28.42,0,0,0-56.49,0h0a65.57,65.57,0,0,1-12.59-7.53l-2.34-1.79L64.46,74.72s2.77,5.37,4.39,9.29H60v18.07H72.65c-1.28,6-2.93,11.85-4,15.72l-.51,1.82A39,39,0,0,0,67,134.78l-13.38,5.38A38.23,38.23,0,0,0,58.25,154l-2.89,2.24c3.22,7.24,7.35,11.27,10.88,14.78,7.53,7.48,16.56,11.2,24.4,13.84,1.2.45,2.35.92,3.47,1.43v10.45Z"/><path class="cls-2" d="M70.06,87H63v12H73.19C73.79,97.42,72.1,92.22,70.06,87Z"/><path class="cls-2" d="M169.91,87h7v12H166.79C166.18,97.42,167.88,92.22,169.91,87Z"/><path class="cls-2" d="M120,77.82A70.13,70.13,0,0,1,77.3,63.41L68.78,74a78,78,0,0,0,102.4,0l-8.52-10.63A70.06,70.06,0,0,1,120,77.82Z"/><path class="cls-2" d="M140.46,57a48.63,48.63,0,0,1,.07,5.72A45.5,45.5,0,0,1,145,67.12,22.56,22.56,0,0,0,140.46,57Z"/><path class="cls-2" d="M99.51,57a48.63,48.63,0,0,0-.07,5.72A45.41,45.41,0,0,0,95,67.12,22.59,22.59,0,0,1,99.51,57Z"/><path class="cls-3" d="M138.17,54.21c-1.85-2.24-6-4.69-8.71-5.82a45,45,0,0,0-8.25,3.23c0,.51-.1,3.47-.07,5.15a50.13,50.13,0,0,1,10.48,8.1,25.71,25.71,0,0,0,6.94-2.64A39.26,39.26,0,0,0,138.17,54.21Z"/><path class="cls-3" d="M101.8,54.21c1.85-2.24,6-4.69,8.71-5.82a44.86,44.86,0,0,1,8.24,3.23c0,.51.1,3.47.08,5.15a50.18,50.18,0,0,0-10.49,8.1,25.64,25.64,0,0,1-6.93-2.64A39.26,39.26,0,0,1,101.8,54.21Z"/><path class="cls-2" d="M120,46.55a16.29,16.29,0,0,0-5.84.9A56.89,56.89,0,0,1,120,49.84a56.73,56.73,0,0,1,5.83-2.39A16.24,16.24,0,0,0,120,46.55Z"/><path class="cls-3" d="M139.6,64.73c-.45.2-5.91,2.47-7.73,3A36.32,36.32,0,0,1,130.35,74a66.35,66.35,0,0,0,14.31-3.85A23.66,23.66,0,0,0,139.6,64.73Z"/><path class="cls-3" d="M108.1,67.71c-1.82-.51-7.28-2.78-7.73-3a23.88,23.88,0,0,0-5.06,5.45A66.35,66.35,0,0,0,109.62,74,37.25,37.25,0,0,1,108.1,67.71Z"/><path class="cls-2" d="M127.66,74.39c1.41-2.81,1.89-6.43,2.25-7.9-1.72-2.25-7.13-6.14-9.92-7.8-2.8,1.66-8.2,5.55-9.93,7.8a52.82,52.82,0,0,0,2.12,7.88,67.39,67.39,0,0,0,7.81.45A69.72,69.72,0,0,0,127.66,74.39Z"/><path class="cls-1" d="M120,178.24A75.48,75.48,0,0,0,94.4,164.72c-16.75-5-28.77-24.87-23.37-44.31,2.23-8,7.67-26.38,6.31-35.86C98.91,96.3,116.07,95.72,120,95.8c3.91-.08,21.08.5,42.64-11.25-1.35,9.48,4.09,27.83,6.32,35.86,5.39,19.44-6.63,39.3-23.37,44.31A75.3,75.3,0,0,0,120,178.24Z"/><path d="M120,132.09c3.44,4.91,15.46,22.26,21.29,31.57a7.11,7.11,0,0,0,1.1-6.92c0-.18.11-.27.3-.1,2.06,1.72,5.56,3.13,8.33,2C141.72,148.45,132.74,138,123.73,127c.68-.84,1.66-2,2.52-3.06,3.55.71,7.52,1.14,10.76-.88,5.49-3.42,7-7.95,8.31-12.7.06-.23.19-.63.43-.6l6.83,1.78c.29.09.24,0,.2-.19l-1.21-5.46c-.57-2.62-1.46-5.07-4-6.45-4.52-2.44-9.89-2.25-14.81-2a.1.1,0,0,0-.09.12,6.18,6.18,0,0,0,3.5,3.21c-2.52,4-16.15,21.57-16.15,21.57s-13.64-17.59-16.16-21.57a6.19,6.19,0,0,0,3.51-3.21.1.1,0,0,0-.09-.12c-4.93-.25-10.3-.44-14.82,2-2.57,1.38-3.45,3.83-4,6.45l-1.2,5.46c0,.15-.1.28.19.19l6.83-1.78c.24,0,.37.37.43.6,1.32,4.75,2.82,9.28,8.32,12.7,3.24,2,7.2,1.59,10.76.88.86,1.07,1.84,2.22,2.52,3.06-9,11-18,21.41-27.29,31.62,2.77,1.11,6.27-.3,8.33-2,.2-.17.35-.08.31.1a7.11,7.11,0,0,0,1.09,6.92C104.53,154.35,116.54,137,120,132.09Z"/><path class="cls-2" d="M145.07,101.75a2.7,2.7,0,0,1,2.7,2.7,2.63,2.63,0,0,1-.23,1.09c0,.12.06.15.21.19l2.33.81.52,2.82-3.48-.91-.64-1.43c0-.11,0-.19-.13-.18a2.76,2.76,0,0,1-1.28.32,2.71,2.71,0,1,1,0-5.41Z"/><path class="cls-2" d="M94.91,101.75a2.7,2.7,0,0,0-2.71,2.7,2.63,2.63,0,0,0,.23,1.09c0,.12-.05.15-.21.19l-2.33.81-.52,2.82,3.49-.91L93.5,107c0-.11,0-.19.12-.18a2.77,2.77,0,0,0,1.29.32,2.71,2.71,0,0,0,0-5.41Z"/><path d="M116.16,151.34c.6-2,1.09-2.93,2.33-3.79a4.94,4.94,0,0,1,2.06-.94,5.13,5.13,0,0,1,2.54.27,3.52,3.52,0,0,0-1.15,4.06,6.43,6.43,0,0,1,3.77-1.13,5.32,5.32,0,0,1,4.35,2.8c-1.58-.13-3.31.56-3.69,2.16a5.89,5.89,0,0,1,4,2.64,5.36,5.36,0,0,1,.53,4.29,3.32,3.32,0,0,0-4.1-1.2,5,5,0,0,1,.94,2.07,5.27,5.27,0,0,1-.25,3.5,4.9,4.9,0,0,1-2.4,2.64c.35-1.4-.5-3.5-2-3.86-.88,4.24-4.15,5.22-7,4.75,1.47-1.41,2-2.86,1.13-4.28a5.45,5.45,0,0,1-8.16-1.62c1.74.18,3.38-.8,3.64-2.1a6,6,0,0,1-4.09-2.88,4.73,4.73,0,0,1-.28-4.12c1,1.64,2.61,1.61,4,1.14-1.78-2.81-1.24-6.48,1.62-8A3.66,3.66,0,0,0,116.16,151.34Z"/><path class="cls-3" d="M119.78,149.17a3.65,3.65,0,0,0-1.44,1.34,4.89,4.89,0,0,0-.42,3,5.32,5.32,0,0,1-4.54-1.7,4.71,4.71,0,0,0,1.69,4.21c-1.08,1.31-2,1.91-4.54,2.05a4.85,4.85,0,0,0,4.39,1.86,5.88,5.88,0,0,1-1.85,4.57,4.52,4.52,0,0,0,4.44-1.87,9,9,0,0,1,1.74,2.18,6.33,6.33,0,0,1,.28,2.46,4.29,4.29,0,0,0,1.81-4.48,5.92,5.92,0,0,1,4.67,1.79c.42-2-.73-3.25-1.84-4.22.8-1.49,2.69-2.09,4.52-2.1-1-1.77-2.5-2-4.44-1.78a5.64,5.64,0,0,1,1.79-4.72,4.55,4.55,0,0,0-4.28,1.9A5.12,5.12,0,0,1,119.78,149.17Z"/><path d="M75.56,139.52a10.1,10.1,0,0,0,9.77-.48,8.22,8.22,0,0,0,3-9.81c-1.26-3.62-5-5.52-8.69-5.76,1.59-1.6,4.42-2.31,6.82-2.28,7.38.11,11.07,4.32,12.39,9.73a12.81,12.81,0,0,1-8.36,14.91,15,15,0,0,1-8-.16A11.36,11.36,0,0,1,75.56,139.52Z"/><path class="cls-3" d="M81.38,142.52c2.43,1.91,5.59,1.95,8.38,1.14A10.17,10.17,0,0,0,97,134.81a9.62,9.62,0,0,0-1.15-6,9.87,9.87,0,0,0-9.3-5.26,10.73,10.73,0,0,1,4.07,12.11A10.1,10.1,0,0,1,81.38,142.52Z"/><path d="M152.8,140.9c2.54,1,5.37,2.12,7.92,3.06-.32-3.59-.48-5.68-.78-8.66,1.74-2,4.41-5.26,5.42-6.55-2.66-.39-5.43-1-8.1-1.46-1.69-2.53-3.33-4.53-4.94-7.21-1.81,3.27-3.33,5.32-4.61,7.38-2.65.58-5.39,1.27-8,1.76,1.06,1.25,3.84,4.4,5.65,6.34-.19,3-.28,5.08-.47,8.69C147.36,143.22,150.31,142,152.8,140.9Z"/><path class="cls-3" d="M152.79,138.54l5.48,2.21-.7-5.9s2.87-3.47,3.7-4.63c-2.18-.39-3.86-.8-5.72-1.19-1.2-1.72-2.14-3.41-3.11-5-.9,1.58-1.82,3.31-3,5.07-1.84.45-3.5.93-5.67,1.4.87,1.13,3.86,4.49,3.86,4.49l-.49,5.93Z"/><path class="cls-2" d="M57,142a29.78,29.78,0,0,0,3.58,10c2.78-2,6.89-4.82,9.27-6.57a41,41,0,0,1-2.37-7.7Z"/><path class="cls-2" d="M71.78,149.43c-.19-.35-.38-.7-.56-1.05-3.59,2.56-9.66,6.85-12.1,8.75,2.42,5,5.77,8.32,9.23,11.76,6.4,6.36,13.94,10,23.3,13.15a55.31,55.31,0,0,1,12.86,6.78s5.88-10.21,7.38-12.74a72.56,72.56,0,0,0-18.36-8.48C84.6,164.93,76.67,158.31,71.78,149.43Z"/><path class="cls-2" d="M183,142a30,30,0,0,1-3.59,10c-2.78-2-6.89-4.82-9.27-6.57a40.25,40.25,0,0,0,2.37-7.7Z"/><path class="cls-2" d="M168.2,149.43l.56-1.05c3.59,2.56,9.66,6.85,12.09,8.75-2.42,5-5.76,8.32-9.23,11.76-6.4,6.36-13.94,10-23.3,13.15a55.31,55.31,0,0,0-12.86,6.78s-5.88-10.21-7.38-12.74a72.56,72.56,0,0,1,18.36-8.48C155.37,164.93,163.3,158.31,168.2,149.43Z"/><path class="cls-2" d="M120,182.12l-1.9-1.55q-1.49-1.2-3-2.28l-.29.4c-2.71,4.12-4.83,8.45-7.27,12.73-1.62.81-3.51,1.64-4.36,2.21,0,0-.26.12.11.12h33.35c.38,0,.11-.12.11-.12-.84-.57-2.74-1.4-4.36-2.21-2.43-4.28-4.56-8.61-7.27-12.73l-.29-.4q-1.48,1.08-3,2.28Z"/><polygon class="cls-1" points="125.84 90.55 125.05 80.23 125.05 80.16 125.13 80.15 127.29 79.97 127.37 79.96 127.38 80.04 128.16 90.37 128.16 90.44 128.08 90.45 125.92 90.63 125.84 90.64 125.84 90.55"/><polygon class="cls-1" points="140.44 88.04 140.62 77.23 140.62 77.13 140.52 77.15 138.38 77.63 138.32 77.64 138.32 77.7 138.15 82.98 135.98 78.22 135.95 78.16 135.89 78.17 133.71 78.65 133.65 78.67 133.65 78.73 133.64 83.98 131.31 79.25 131.28 79.19 131.22 79.2 129.07 79.67 128.98 79.7 129.02 79.79 133.63 89.54 133.66 89.6 133.72 89.58 135.72 89.14 135.78 89.13 135.79 89.06 135.93 83.68 138.29 88.52 138.32 88.57 138.38 88.56 140.38 88.12 140.44 88.11 140.44 88.04"/><path class="cls-1" d="M151.74,84.53l-.11,0-2.36.86-.05,0,0,0-.94-1.22-2.87,1,.07,1.54v.06l-.05,0-2.37.87-.1,0v-.12l-.12-11.29V76.3l.06,0,1.61-.59.05,0,0,0,7.11,8.72Zm-6.54-1.69,1.65-.61-1.77-2.31Z"/><polygon class="cls-1" points="155.97 82.35 152.38 75.1 153.92 74.32 154 74.29 153.96 74.22 152.86 72.01 152.83 71.94 152.75 71.98 147.56 74.6 147.49 74.64 147.53 74.71 148.62 76.91 148.65 76.98 148.72 76.95 150.27 76.17 153.87 83.41 153.9 83.48 153.98 83.45 155.94 82.45 156.01 82.42 155.97 82.35"/><path class="cls-1" d="M166.17,75.92l-.1.07-2.1,1.4-.05,0,0,0-1.2-1-2.55,1.7.42,1.48,0,0,0,0-2.09,1.4-.09.06,0-.11-2.73-10.94,0-.06.05,0,1.43-1,.05,0,0,0,8.94,6.79Zm-6.76-.09,1.46-1L158.62,73Z"/><polygon class="cls-1" points="100.86 77.66 102.88 78.19 102.95 78.21 102.93 78.29 100.42 88.35 100.4 88.43 100.33 88.41 98.31 87.9 98.24 87.88 98.26 87.81 100.76 77.71 100.78 77.64 100.86 77.66"/><polygon class="cls-1" points="107.08 79.19 107 79.17 104.86 78.69 104.78 78.67 104.76 78.76 102.67 88.87 102.66 88.95 102.73 88.96 107.47 89.94 107.55 89.96 107.57 89.88 108.05 87.55 108.07 87.48 107.99 87.46 105.52 86.89 107.06 79.27 107.08 79.19"/><path class="cls-1" d="M98.32,79.66c-.67,1.65-1.37,1.83-1.84,1.88a2.92,2.92,0,0,1,.18,3c-.8,1.78-2.54,2.22-4.89,1.24l-2-.84-.07,0,0-.07,4-9.85,0-.07.08,0,2,.84C98.14,76.79,99,78.08,98.32,79.66Zm-3.93,0c1,.39,1.3.57,1.59-.15s-.34-1-1-1.24Zm.29,3.63c.37-.9-.31-1.19-1.15-1.53l-.71,1.74C93.56,83.82,94.31,84.24,94.68,83.31Z"/><path class="cls-1" d="M114.49,82.62a2.07,2.07,0,0,0-1.6.35,3,3,0,0,0-1.21,1.91,2.6,2.6,0,0,0,1.78,3.17,2.14,2.14,0,0,0,1.61-.35,3,3,0,0,0,1.2-1.92A2.58,2.58,0,0,0,114.49,82.62Zm4.09,3.61a6,6,0,0,1-2.44,3.88,4.21,4.21,0,0,1-3.21.71c-2.54-.49-4.14-3.36-3.56-6.39a6,6,0,0,1,2.44-3.88,4.31,4.31,0,0,1,3.21-.71C117.56,80.34,119.16,83.2,118.58,86.23Z"/><path class="cls-1" d="M77.72,75.12a.58.58,0,0,0,.17.81.55.55,0,0,0,.43.09.63.63,0,0,0,.37-.25v0h0l0,0,4.19-6.44,0-.07.07,0,1.84,1.21.06,0,0,.06-4.31,6.62a2.91,2.91,0,0,1-1.85,1.27,2.88,2.88,0,0,1-2.21-.43A3,3,0,0,1,75.62,74l0,.11-.07,0,0-.07.37-.57.05-.07.07,0L78,74.62l.06,0,0,.06-.25.39"/><path class="cls-1" d="M86.88,79.83l2.33-4.59,0-.07.07,0,1.93,1,.07,0,0,.08L88.8,81.2v-.08l0,0,0,0a3.47,3.47,0,0,1-2,1.74,3.35,3.35,0,0,1-2.58-.21,3.47,3.47,0,0,1-1.47-4.66l2.48-4.9,0-.07.07,0,1.93,1,.07,0,0,.07L85,78.83a1.11,1.11,0,0,0,.47,1.48,1,1,0,0,0,.82.07,1.08,1.08,0,0,0,.64-.55l0,0h0Z"/><polygon class="cls-1" points="92.06 73.85 88.27 74.48 88.12 74.5 88.19 74.36 89.23 72.31 89.27 72.24 89.34 72.28 92.09 73.7 92.3 73.81 92.06 73.85"/><polygon class="cls-1" points="80.75 175.7 80.81 175.73 83.38 177.16 83.46 177.21 83.51 177.12 88.65 167.79 88.7 167.71 88.62 167.66 86.9 166.71 86.81 166.67 86.77 166.75 83.42 172.8 84.78 165.55 84.72 165.51 82.15 164.08 82.07 164.03 82.02 164.12 76.87 173.45 76.83 173.53 76.91 173.58 78.63 174.54 78.72 174.58 78.77 174.5 82.1 168.44 80.75 175.7"/><path class="cls-1" d="M96.12,177l-2.28-.71-.06,0,0,.06a2.36,2.36,0,0,1-2.44.92,2.1,2.1,0,0,1-1.23-1,2.8,2.8,0,0,1-.16-2.19,2.52,2.52,0,0,1,3-1.95,2.22,2.22,0,0,1,1.51,1.81v.06l.05,0,2.35.71.11,0,0-.11a5,5,0,0,0-3.2-5.31c-2.52-.73-5.27,1.05-6.18,4a6,6,0,0,0,.37,4.55A4.19,4.19,0,0,0,90.46,180a5,5,0,0,0,5.72-2.9l0-.1Z"/><polygon class="cls-1" points="72.51 169.99 74.23 171.32 74.29 171.37 74.34 171.3 80.72 163.15 80.77 163.09 80.71 163.04 78.99 161.71 78.93 161.66 78.88 161.72 72.49 169.88 72.44 169.94 72.51 169.99"/><polygon class="cls-1" points="98.91 180.37 99.56 179.03 102.05 180.23 103.21 177.84 100.73 176.63 101.33 175.41 104.57 176.99 105.74 174.6 100.35 171.97 95.6 181.72 100.98 184.35 102.15 181.96 98.91 180.37"/><path class="cls-1" d="M73.33,163.79a4,4,0,0,0-.32-2.16,1.06,1.06,0,0,1,.35-1.49h0a.59.59,0,0,1,.76.11.59.59,0,0,1-.08.83l-.09.08-.06,0,.05.06,1.4,1.7.06.06.06-.05.26-.22.06-.06h0a3,3,0,0,0,.32-4.09,2.89,2.89,0,0,0-3.94-.52,3.52,3.52,0,0,0-1.64,2.35h0a3.81,3.81,0,0,0,.32,2.16,1.08,1.08,0,0,1-.35,1.49h0a.56.56,0,0,1-.36.1.59.59,0,0,1-.32-1l.09-.07L70,163l0-.06-1.4-1.7,0-.06-.06.05-.26.22-.06.05h0a3,3,0,0,0-.32,4.11,2.9,2.9,0,0,0,3.94.51,3.53,3.53,0,0,0,1.64-2.36Z"/><path class="cls-1" d="M135.44,174.26a1.46,1.46,0,0,1-.06,1.21,2.34,2.34,0,0,1-1.08.91l-.4.19.86,1.78,1.7-.83,3.21,6.56,2.21-1.08-4.79-9.82-1.72.84Z"/><path class="cls-1" d="M150.11,171.4a5.06,5.06,0,0,0-1-1.38,3,3,0,0,0-1.36-.75,3.62,3.62,0,0,0-3.77,2.1,4.82,4.82,0,0,0,.31,3,6.62,6.62,0,0,0,.62,1.22,3.56,3.56,0,0,0,.81.9,2.24,2.24,0,0,0,1.05.42,2.81,2.81,0,0,0,2.24-.86,2.35,2.35,0,0,0,.23-.32c.1.28.19.54.26.79a2.81,2.81,0,0,1,.13.75,1,1,0,0,1-.1.49.66.66,0,0,1-.37.29c-.32.12-.45,0-.49,0a1.47,1.47,0,0,1-.41-.64l-2.24.86a3.67,3.67,0,0,0,.74,1.19,2.41,2.41,0,0,0,1,.61,2.32,2.32,0,0,0,1,.1,4.58,4.58,0,0,0,1-.27,3.34,3.34,0,0,0,1.65-1.18,2.92,2.92,0,0,0,.49-1.67,6.41,6.41,0,0,0-.33-1.93c-.2-.64-.44-1.33-.71-2A15.58,15.58,0,0,0,150.11,171.4ZM148.26,174a.71.71,0,0,1-1.09.42,3.22,3.22,0,0,1-.67-1.19c-.1-.26-.18-.51-.25-.74a2.09,2.09,0,0,1-.09-.57.61.61,0,0,1,.1-.36.78.78,0,0,1,.34-.24.68.68,0,0,1,.41,0,.66.66,0,0,1,.32.2,1.83,1.83,0,0,1,.32.47c.11.22.22.46.32.72A3.19,3.19,0,0,1,148.26,174Z"/><path class="cls-1" d="M160.28,166.26a4.93,4.93,0,0,0-1.15-1.24,2.9,2.9,0,0,0-1.45-.57,2.94,2.94,0,0,0-1.73.41A3,3,0,0,0,154.2,167a4.72,4.72,0,0,0,.67,3,6.84,6.84,0,0,0,.76,1.14,3.56,3.56,0,0,0,.93.79,2.13,2.13,0,0,0,1.08.29,2.79,2.79,0,0,0,2.12-1.13,1.63,1.63,0,0,0,.19-.34q.21.39.36.75a2.7,2.7,0,0,1,.22.73,1,1,0,0,1,0,.5.69.69,0,0,1-.34.34c-.3.15-.44.07-.49,0a1.57,1.57,0,0,1-.48-.59l-2.11,1.12a3.54,3.54,0,0,0,.87,1.09,2.53,2.53,0,0,0,1,.49,2.2,2.2,0,0,0,1,0,5,5,0,0,0,1-.38,3.27,3.27,0,0,0,1.5-1.37,2.92,2.92,0,0,0,.28-1.71,6.33,6.33,0,0,0-.56-1.88c-.28-.62-.61-1.28-1-1.94A17.63,17.63,0,0,0,160.28,166.26Zm-1.51,2.84a.58.58,0,0,1-.38.54.55.55,0,0,1-.65,0,3,3,0,0,1-.81-1.1,5.57,5.57,0,0,1-.34-.7,2,2,0,0,1-.16-.55.7.7,0,0,1,0-.36.72.72,0,0,1,.31-.28.74.74,0,0,1,.4-.1.71.71,0,0,1,.34.16,2,2,0,0,1,.38.43,5.76,5.76,0,0,1,.4.66A3.09,3.09,0,0,1,158.77,169.1Z"/><path class="cls-1" d="M170,164.47a1.35,1.35,0,0,1-.08-.24,4.22,4.22,0,0,1-.15-1l-.07-1.55a8,8,0,0,0-.11-1.07,3.67,3.67,0,0,0-.29-.92,3.47,3.47,0,0,0-.46-.79,7.19,7.19,0,0,0-.66-.72,3.18,3.18,0,0,0-2.23-1,3,3,0,0,0-2.17,1.16,3.18,3.18,0,0,0-1,2.37A3.48,3.48,0,0,0,164,163l.51.47,1.61-1.77-.22-.2-.52-.52a1.44,1.44,0,0,1-.31-.46.64.64,0,0,1-.08-.37.53.53,0,0,1,.21-.35c.22-.26.53-.45,1.17.13.19.19.33.3.46.44a1.71,1.71,0,0,1,.28.42,3,3,0,0,1,.15.53,2.92,2.92,0,0,1,.07.72l.06,1.12a8.63,8.63,0,0,0,.17,1.42,6.32,6.32,0,0,0,.34,1.28,6,6,0,0,0,.62,1.13,5.27,5.27,0,0,0,.89,1l.21.21,4.34-4.66-1.65-1.54Z"/></svg>