<svg xmlns="http://www.w3.org/2000/svg" xmlns:xlink="http://www.w3.org/1999/xlink" width="1080" zoomAndPan="magnify" viewBox="0 0 810 809.999993" height="1080" preserveAspectRatio="xMidYMid meet" version="1.0"><path fill="#ffffff" d="M 772.140625 159.824219 C 753.457031 152.777344 734.929688 145.628906 715.878906 138.007812 C 715.464844 87.019531 683.316406 45.6875 628.414062 26.484375 L 555.351562 0.910156 L 617.976562 46.523438 C 644.4375 65.832031 660.613281 90.882812 663.484375 116.402344 L 603.417969 90.988281 C 517.726562 54.195312 466.164062 31.964844 405.105469 31.964844 C 344.042969 31.964844 292.484375 54.195312 206.792969 90.988281 L 146.460938 116.558594 C 149.28125 91.039062 165.460938 65.9375 191.917969 46.628906 L 254.542969 1.015625 L 181.480469 26.589844 C 126.683594 45.792969 94.589844 87.179688 94.171875 138.164062 C 75.121094 145.730469 56.699219 152.933594 38.070312 159.824219 L 30.660156 162.640625 L 30.660156 282.148438 C 30.660156 447.949219 89.734375 582.488281 206.269531 682.53125 L 150.636719 699.128906 L 138.164062 702.886719 L 143.382812 714.734375 C 143.917969 715.703125 144.523438 716.628906 145.203125 717.503906 C 145.882812 718.382812 146.625 719.199219 147.429688 719.960938 C 148.238281 720.722656 149.097656 721.417969 150.011719 722.046875 C 150.925781 722.671875 151.878906 723.226562 152.878906 723.707031 C 153.878906 724.183594 154.910156 724.582031 155.972656 724.902344 C 157.035156 725.21875 158.113281 725.457031 159.214844 725.605469 C 160.3125 725.757812 161.414062 725.824219 162.523438 725.800781 C 163.632812 725.78125 164.730469 725.675781 165.824219 725.484375 L 167.234375 725.484375 L 182.890625 721.359375 C 169.269531 732.789062 156.796875 743.539062 152.882812 747.035156 L 130.910156 767.910156 L 161.335938 766.503906 C 182.210938 765.5625 193.640625 756.742188 205.171875 746.097656 L 245.460938 713.53125 C 263.101562 726.214844 281.578125 738.21875 300.625 749.226562 C 311.792969 755.648438 325.414062 762.691406 338.617188 769.53125 C 361.839844 781.53125 385.585938 793.953125 397.640625 803.453125 L 404.84375 809.296875 L 412.046875 803.453125 C 423.839844 793.953125 447.84375 781.53125 471.070312 769.53125 C 484.273438 762.691406 497.894531 755.648438 509.0625 749.226562 C 531.492188 736.445312 553.007812 722.277344 573.613281 706.722656 C 594.214844 691.167969 613.734375 674.355469 632.171875 656.28125 L 713.011719 636.398438 L 717.183594 635.355469 L 719.636719 631.910156 L 724.4375 625.074219 L 741.453125 601.066406 L 712.695312 607.277344 L 680.183594 614.273438 C 681.460938 609.675781 681.773438 605.011719 681.125 600.285156 C 746.515625 512.664062 779.707031 405.679688 779.707031 281.941406 L 779.707031 162.746094 Z M 772.140625 159.824219 " fill-opacity="1" fill-rule="nonzero"/><path fill="#ffffff" d="M 659.046875 610.199219 C 738.320312 513.238281 768.121094 399.050781 768.121094 282.148438 L 768.121094 170.625 C 565.839844 94.535156 495.023438 43.390625 405.105469 43.390625 C 315.183594 43.390625 244.367188 94.535156 42.085938 170.625 L 42.085938 282.148438 C 42.085938 456.613281 108.523438 625.074219 306.625 739.207031 C 337.15625 756.796875 385.324219 778.453125 405.105469 794.476562 C 424.882812 778.453125 472.949219 756.796875 503.582031 739.207031 C 531.054688 723.785156 557.054688 706.1875 581.582031 686.410156 C 606.105469 666.632812 628.8125 644.953125 649.707031 621.367188 Z M 659.046875 610.199219 " fill-opacity="1" fill-rule="nonzero"/><path fill="#000000" d="M 661.1875 607.488281 C 738.84375 511.097656 768.121094 397.953125 768.121094 282.148438 L 768.121094 170.625 C 565.839844 94.535156 495.023438 43.390625 405.105469 43.390625 C 315.183594 43.390625 244.367188 94.535156 42.085938 170.625 L 42.085938 282.148438 C 42.085938 456.613281 108.523438 625.074219 306.625 739.207031 C 337.15625 756.796875 385.324219 778.453125 405.105469 794.476562 C 424.882812 778.453125 472.949219 756.796875 503.582031 739.207031 C 531.054688 723.785156 557.054688 706.1875 581.582031 686.410156 C 606.105469 666.632812 628.8125 644.953125 649.707031 621.367188 L 644.488281 621.367188 C 623.71875 644.660156 601.175781 666.085938 576.855469 685.640625 C 552.535156 705.199219 526.769531 722.617188 499.5625 737.902344 C 470.859375 754.445312 426.5 774.433594 405.050781 790.089844 C 383.394531 774.433594 339.242188 754.34375 310.539062 737.902344 C 112.226562 623.769531 46.054688 455.308594 46.054688 280.898438 L 46.054688 172.554688 C 246.820312 97.199219 316.386719 46.105469 405.105469 46.835938 C 493.824219 47.566406 563.390625 97.199219 764.101562 172.554688 L 764.101562 280.898438 C 764.101562 395.710938 735.449219 507.546875 659.726562 603.3125 Z M 661.1875 607.488281 " fill-opacity="1" fill-rule="nonzero"/><path fill="#bfb1ac" d="M 405.105469 779.027344 C 388.144531 764.257812 364.710938 753.925781 333.449219 737.277344 C 127.832031 629.769531 56.179688 453.847656 56.179688 288.933594 L 56.179688 178.140625 C 173.546875 142.863281 305.113281 57.011719 405.105469 57.011719 Z M 405.105469 779.027344 " fill-opacity="1" fill-rule="nonzero"/><path fill="#b71e3f" d="M 405.105469 779.027344 C 422.066406 764.257812 445.496094 753.925781 476.757812 737.277344 C 682.375 629.769531 754.03125 453.847656 754.03125 288.933594 L 754.03125 178.140625 C 636.660156 142.863281 505.09375 57.011719 405.105469 57.011719 Z M 405.105469 779.027344 " fill-opacity="1" fill-rule="nonzero"/><path fill="#000000" d="M 461.519531 402.234375 L 436.417969 347.699219 C 448.074219 328.90625 461.832031 311.804688 477.695312 296.398438 C 492.519531 282.828125 512.871094 255.324219 512.871094 209.296875 C 512.871094 186.4375 501.808594 148.757812 477.070312 127.152344 C 527.746094 146.878906 550.601562 207.15625 541.941406 255.640625 C 596.320312 227.824219 675.382812 210.550781 675.382812 124.648438 C 675.382812 90.675781 654.507812 59.152344 624.761719 37.546875 C 735.972656 76.480469 717.394531 194.476562 651.949219 240.816406 C 690.257812 246.976562 723.605469 264.300781 739.679688 301.980469 C 710.609375 278.496094 688.378906 265.449219 646.992188 265.449219 C 558.535156 265.347656 488.605469 327.136719 461.519531 402.234375 Z M 461.519531 402.234375 " fill-opacity="1" fill-rule="nonzero"/><path fill="#000000" d="M 348.480469 402.234375 L 373.792969 347.699219 C 362.136719 328.90625 348.375 311.804688 332.511719 296.398438 C 317.691406 282.828125 297.335938 255.324219 297.335938 209.296875 C 297.335938 186.4375 308.402344 148.757812 333.085938 127.152344 C 282.410156 146.722656 259.554688 206.792969 268.164062 255.484375 C 213.835938 227.667969 134.71875 210.390625 134.71875 124.492188 C 134.71875 90.519531 155.59375 58.996094 185.394531 37.390625 C 74.183594 76.324219 92.710938 194.320312 158.203125 240.660156 C 119.898438 246.820312 86.761719 264.199219 70.476562 301.824219 C 99.546875 278.339844 121.777344 265.292969 163.164062 265.292969 C 251.515625 265.347656 321.605469 327.136719 348.480469 402.234375 Z M 348.480469 402.234375 " fill-opacity="1" fill-rule="nonzero"/><path fill="#000000" d="M 192.023438 564.589844 L 197.917969 564.589844 L 193.066406 572.78125 L 197.816406 581.496094 L 191.867188 581.496094 L 187.898438 573.984375 L 187.898438 581.339844 L 182.628906 581.339844 L 182.628906 564.589844 L 187.898438 564.589844 L 187.898438 571.320312 Z M 192.023438 564.589844 " fill-opacity="1" fill-rule="nonzero"/><path fill="#000000" d="M 252.664062 565.425781 C 251.199219 564.554688 249.613281 564.191406 247.914062 564.328125 C 244.15625 564.328125 240.398438 565.945312 240.398438 570.015625 C 240.457031 570.875 240.734375 571.660156 241.230469 572.363281 C 241.730469 573.066406 242.375 573.589844 243.167969 573.929688 C 244.679688 574.558594 247.394531 575.234375 247.339844 576.019531 C 247.289062 576.800781 246.191406 577.0625 245.253906 577.0625 C 243.671875 576.945312 242.191406 576.496094 240.816406 575.703125 L 240.816406 580.453125 C 242.4375 581.363281 244.179688 581.78125 246.035156 581.707031 C 249.429688 581.707031 253.8125 579.722656 253.8125 576.121094 C 253.8125 573.617188 252.976562 572.9375 250.679688 571.789062 C 249.21875 571.058594 246.976562 570.957031 246.976562 569.914062 C 246.976562 568.867188 247.863281 568.710938 249.324219 568.710938 C 250.535156 568.796875 251.632812 569.195312 252.613281 569.914062 Z M 252.664062 565.425781 " fill-opacity="1" fill-rule="nonzero"/><path fill="#000000" d="M 216.65625 578.417969 L 215.871094 581.445312 L 210.183594 581.445312 L 214.304688 564.589844 L 223.179688 564.589844 L 227.300781 581.445312 L 221.664062 581.445312 L 220.882812 578.417969 Z M 217.386719 574.453125 L 220.152344 574.453125 L 218.742188 568.609375 Z M 217.386719 574.453125 " fill-opacity="1" fill-rule="nonzero"/><path fill="#000000" d="M 358.136719 578.417969 L 357.351562 581.445312 L 351.664062 581.445312 L 355.734375 564.589844 L 364.660156 564.589844 L 368.78125 581.445312 L 363.144531 581.445312 L 362.308594 578.417969 Z M 358.867188 574.453125 L 361.578125 574.453125 L 360.222656 568.609375 Z M 358.867188 574.453125 " fill-opacity="1" fill-rule="nonzero"/><path fill="#000000" d="M 277.140625 575.027344 L 277.140625 581.445312 L 282.882812 581.445312 L 282.882812 564.535156 L 277.140625 564.535156 L 277.140625 570.800781 L 273.75 570.800781 L 273.75 564.535156 L 268.007812 564.535156 L 268.007812 581.445312 L 273.75 581.445312 L 273.75 575.027344 Z M 277.140625 575.027344 " fill-opacity="1" fill-rule="nonzero"/><path fill="#000000" d="M 297.179688 564.589844 L 302.921875 564.589844 L 302.921875 581.496094 L 297.179688 581.496094 Z M 297.179688 564.589844 " fill-opacity="1" fill-rule="nonzero"/><path fill="#000000" d="M 329.222656 581.496094 L 332.300781 571.476562 L 332.300781 581.496094 L 337.625 581.496094 L 337.625 564.589844 L 329.535156 564.589844 L 327.5 573.410156 L 325.464844 564.589844 L 317.324219 564.589844 L 317.324219 581.496094 L 322.699219 581.496094 L 322.699219 571.476562 L 325.777344 581.496094 Z M 329.222656 581.496094 " fill-opacity="1" fill-rule="nonzero"/><path fill="#000000" d="M 420.761719 581.082031 C 420.761719 581.082031 421.386719 572.730469 421.699219 565.945312 C 421.902344 560.25 423.136719 554.789062 425.40625 549.558594 L 448.054688 493.824219 L 448.054688 469.136719 L 460.160156 457.394531 L 460.160156 429.578125 L 425.5625 354.222656 L 384.648438 354.222656 L 350.046875 429.578125 L 350.046875 457.292969 L 362.152344 469.035156 L 362.152344 493.824219 L 384.648438 549.453125 C 386.914062 554.683594 388.148438 560.144531 388.351562 565.839844 C 388.664062 572.625 389.292969 580.976562 389.292969 580.976562 Z M 420.761719 581.082031 " fill-opacity="1" fill-rule="nonzero"/><path fill="#000000" d="M 367.476562 688.953125 C 366.796875 693.023438 370.191406 692.8125 372.433594 692.1875 L 714.941406 618.445312 L 710.140625 625.28125 L 355.265625 712.59375 C 352.925781 713.242188 350.546875 713.476562 348.128906 713.300781 C 345.707031 713.121094 343.390625 712.535156 341.175781 711.550781 C 338.355469 709.515625 338.617188 706.644531 339.714844 701.632812 C 339.714844 701.632812 357.457031 632.539062 357.925781 630.085938 C 358.394531 627.632812 356.515625 627.003906 353.28125 627.527344 C 341.695312 629.40625 295.09375 660.71875 279.28125 672.773438 L 345.296875 653.828125 L 340.078125 669.484375 L 255.011719 691.039062 L 197.605469 737.328125 C 186.542969 747.765625 177.671875 754.289062 160.710938 755.019531 C 168.851562 747.246094 229.753906 696.988281 229.753906 696.988281 L 163.996094 714.160156 C 160.34375 714.679688 154.96875 713.425781 153.558594 710.140625 L 250.421875 681.175781 C 286.953125 652.941406 323.167969 626.847656 363.875 608.480469 C 369.617188 605.871094 379.011719 603.261719 384.019531 607.957031 C 384.664062 608.753906 385.191406 609.621094 385.605469 610.558594 C 386.019531 611.496094 386.308594 612.46875 386.46875 613.480469 C 386.628906 614.492188 386.65625 615.507812 386.550781 616.527344 C 386.445312 617.542969 386.210938 618.53125 385.847656 619.488281 Z M 367.476562 688.953125 " fill-opacity="1" fill-rule="nonzero"/><path fill="#000000" d="M 669.539062 600.546875 C 667.972656 591.414062 657.691406 582.855469 649.757812 579.671875 C 649.757812 579.671875 638.902344 601.589844 634.414062 608.636719 C 631.09375 613.855469 627.078125 618.464844 622.359375 622.464844 C 621.316406 623.089844 618.96875 624.550781 618.96875 622.464844 C 619.648438 612.339844 631.859375 604.980469 625.960938 595.171875 C 623.039062 590.316406 608.894531 589.953125 600.703125 588.019531 C 596.371094 604.667969 589.535156 620.324219 574.035156 631.234375 C 569.128906 634.625 561.980469 638.902344 558.378906 635.5625 C 565.632812 630.660156 588.4375 614.6875 587.03125 599.03125 C 586.917969 598.054688 586.667969 597.113281 586.28125 596.207031 C 585.894531 595.300781 585.386719 594.472656 584.753906 593.714844 C 584.125 592.960938 583.398438 592.308594 582.578125 591.765625 C 581.757812 591.222656 580.875 590.8125 579.933594 590.527344 C 578.664062 590.195312 577.375 589.996094 576.066406 589.925781 C 574.761719 589.855469 573.457031 589.917969 572.164062 590.109375 C 570.867188 590.304688 569.601562 590.625 568.371094 591.070312 C 567.140625 591.519531 565.964844 592.085938 564.851562 592.769531 C 563.03125 593.898438 561.300781 595.148438 559.65625 596.515625 C 558.011719 597.882812 556.46875 599.355469 555.03125 600.9375 C 553.589844 602.519531 552.265625 604.195312 551.054688 605.957031 C 549.847656 607.722656 548.765625 609.5625 547.8125 611.476562 C 546.859375 613.394531 546.039062 615.363281 545.359375 617.390625 C 544.679688 619.417969 544.140625 621.484375 543.746094 623.585938 C 543.351562 625.691406 543.101562 627.808594 543 629.945312 C 542.898438 632.082031 542.945312 634.214844 543.140625 636.347656 C 538.441406 639.375 520.4375 650.4375 515.636719 637.808594 C 530.71875 625.542969 551.074219 604.566406 557.386719 582.59375 C 557.667969 581.554688 557.804688 580.496094 557.792969 579.417969 C 557.785156 578.339844 557.628906 577.285156 557.332031 576.25 C 557.03125 575.214844 556.597656 574.238281 556.03125 573.320312 C 555.464844 572.40625 554.785156 571.582031 553.996094 570.851562 C 544.652344 564.015625 532.648438 569.808594 525.1875 577.375 C 523.140625 579.496094 521.199219 581.710938 519.363281 584.015625 C 517.527344 586.324219 515.808594 588.710938 514.199219 591.179688 C 512.589844 593.648438 511.101562 596.1875 509.730469 598.800781 C 508.363281 601.410156 507.121094 604.082031 506.007812 606.808594 C 504.894531 609.539062 503.910156 612.3125 503.058594 615.132812 C 502.207031 617.957031 501.492188 620.8125 500.914062 623.703125 C 500.332031 626.589844 499.890625 629.503906 499.585938 632.433594 C 499.28125 635.367188 499.117188 638.304688 499.09375 641.253906 C 496.613281 643.738281 493.855469 645.863281 490.820312 647.632812 C 487.789062 649.402344 484.578125 650.753906 481.195312 651.691406 C 478.84375 652.210938 477.4375 649.96875 477.539062 647.621094 C 477.78125 641.886719 478.726562 636.269531 480.378906 630.777344 C 482.03125 625.28125 484.339844 620.074219 487.300781 615.160156 L 501.179688 611.820312 C 502.605469 608.898438 503.859375 605.90625 504.9375 602.84375 L 491.890625 606.914062 C 495.449219 600.59375 499.605469 594.695312 504.363281 589.222656 C 488.449219 586.925781 475.871094 600.910156 470.285156 613.644531 C 463.761719 616.933594 454.054688 616.671875 450.613281 624.8125 L 466.527344 621.160156 L 462.195312 634.363281 C 456.976562 641.566406 440.957031 658.058594 438.035156 658.316406 C 435.113281 658.578125 438.035156 652.734375 438.921875 649.65625 C 441.949219 639.949219 448.054688 634.988281 448.785156 627.003906 C 448.785156 624.1875 445.550781 621.785156 440.226562 623.40625 C 424.570312 627.578125 406.566406 652.265625 404.007812 654.71875 C 407.230469 647.203125 411.195312 640.105469 415.90625 633.425781 C 390.386719 635.980469 384.960938 666.617188 379.375 683.210938 L 391.847656 680.96875 C 400.980469 668.597656 419.613281 645.585938 428.378906 638.695312 C 425.664062 643.425781 423.402344 648.367188 421.59375 653.515625 C 419.976562 658.371094 417.523438 668.234375 421.59375 672.355469 C 422.09375 672.757812 422.632812 673.089844 423.214844 673.359375 C 423.792969 673.625 424.398438 673.816406 425.027344 673.9375 C 425.65625 674.054688 426.289062 674.09375 426.925781 674.058594 C 427.5625 674.019531 428.1875 673.90625 428.796875 673.714844 C 439.757812 670.582031 450.402344 660.5625 459.691406 649.757812 C 459.691406 656.855469 462.25 662.542969 467.886719 663.640625 C 478.324219 665.675781 493.980469 655.5 502.171875 649.183594 C 511.933594 662.074219 534.425781 649.707031 546.898438 643.234375 C 548.367188 644.277344 549.964844 645.042969 551.699219 645.53125 C 574.558594 650.75 594.859375 622.933594 606.445312 603.78125 C 608.582031 603.878906 610.683594 604.191406 612.757812 604.722656 C 613.382812 604.722656 613.75 605.398438 613.4375 606.078125 C 610.304688 613.382812 603 622.046875 606.496094 629.613281 C 606.9375 630.382812 607.484375 631.070312 608.136719 631.671875 C 608.789062 632.273438 609.515625 632.761719 610.320312 633.140625 C 611.121094 633.519531 611.960938 633.765625 612.839844 633.886719 C 613.722656 634.007812 614.597656 633.992188 615.472656 633.839844 C 632.433594 631.492188 641.566406 611.660156 650.28125 598.457031 C 651.328125 598.925781 652.304688 599.515625 653.207031 600.226562 C 654.105469 600.9375 654.90625 601.746094 655.605469 602.660156 C 656.300781 603.570312 656.875 604.554688 657.324219 605.609375 C 657.777344 606.667969 658.089844 607.761719 658.265625 608.894531 C 658.351562 609.671875 658.320312 610.441406 658.167969 611.207031 C 658.015625 611.972656 657.75 612.699219 657.371094 613.382812 C 656.992188 614.0625 656.515625 614.671875 655.949219 615.207031 C 655.378906 615.742188 654.742188 616.179688 654.039062 616.515625 C 652.636719 617.207031 651.152344 617.582031 649.589844 617.644531 C 648.027344 617.710938 646.515625 617.453125 645.0625 616.878906 C 643.027344 619.59375 638.851562 625.542969 636.398438 628.464844 C 638.90625 628.546875 641.398438 628.402344 643.878906 628.027344 C 646.359375 627.652344 648.785156 627.058594 651.160156 626.242188 C 653.53125 625.425781 655.808594 624.402344 657.996094 623.171875 C 660.179688 621.941406 662.234375 620.523438 664.164062 618.917969 C 665.328125 617.722656 666.335938 616.40625 667.175781 614.964844 C 668.019531 613.523438 668.675781 612.003906 669.144531 610.402344 C 669.613281 608.800781 669.882812 607.167969 669.949219 605.5 C 670.015625 603.832031 669.878906 602.179688 669.539062 600.546875 Z M 518.195312 625.125 C 519.070312 621.394531 520.210938 617.742188 521.613281 614.175781 C 523.015625 610.605469 524.664062 607.15625 526.5625 603.824219 C 528.464844 600.496094 530.589844 597.320312 532.949219 594.292969 C 535.304688 591.269531 537.867188 588.433594 540.636719 585.777344 C 542.148438 584.265625 543.921875 582.59375 545.855469 583.429688 C 547.785156 584.265625 547.679688 586.039062 546.636719 588.28125 C 544.09375 593.59375 541.03125 598.585938 537.453125 603.261719 C 531.542969 611.066406 525.054688 618.355469 517.984375 625.125 Z M 577.324219 604.722656 C 575.148438 609.367188 572.355469 613.601562 568.945312 617.429688 C 565.535156 621.261719 561.648438 624.519531 557.28125 627.214844 C 557.65625 624.652344 558.308594 622.167969 559.246094 619.757812 C 560.179688 617.34375 561.371094 615.066406 562.824219 612.925781 C 564.273438 610.78125 565.945312 608.832031 567.835938 607.066406 C 569.730469 605.304688 571.796875 603.773438 574.035156 602.476562 C 576.695312 601.328125 577.742188 602.789062 577.324219 604.722656 Z M 577.324219 604.722656 " fill-opacity="1" fill-rule="nonzero"/></svg>