<svg xmlns="http://www.w3.org/2000/svg" xmlns:xlink="http://www.w3.org/1999/xlink" width="1080" zoomAndPan="magnify" viewBox="0 0 810 809.999993" height="1080" preserveAspectRatio="xMidYMid meet" version="1.0"><path fill="#ffffff" d="M 405.15625 2.472656 L 117.683594 55.214844 L 118.355469 100.429688 C 122.390625 327.226562 145.019531 565.988281 368.589844 773.558594 L 405.335938 807.664062 L 441.8125 773.246094 C 665.425781 562 687.699219 334.621094 691.957031 100.429688 L 692.761719 55.035156 Z M 405.15625 2.472656 " fill-opacity="1" fill-rule="nonzero"/><path fill="#000000" d="M 405.15625 20.261719 L 135.472656 69.554688 L 136.011719 100.429688 C 139.957031 323.417969 162.09375 558.101562 380.644531 760.96875 L 405.378906 783.957031 L 429.890625 760.742188 C 648.488281 554.15625 670.222656 330.542969 674.300781 100.429688 L 674.835938 69.871094 Z M 405.15625 20.261719 " fill-opacity="1" fill-rule="nonzero"/><path fill="#ffffff" d="M 405.15625 38.589844 L 153.757812 84.703125 L 154.207031 99.984375 C 158.058594 319.117188 179.703125 549.632812 393.101562 747.703125 L 405.15625 759.175781 L 417.433594 747.570312 C 630.921875 545.914062 652.207031 326.332031 656.195312 99.984375 L 656.464844 84.703125 Z M 405.15625 38.589844 " fill-opacity="1" fill-rule="nonzero"/><path fill="#c1ad76" d="M 405.15625 47.015625 L 162.183594 91.46875 L 162.183594 99.667969 C 164.15625 209.148438 170.695312 325.929688 205.15625 438.003906 C 241.007812 554.832031 304.328125 654.089844 398.433594 741.429688 L 405.066406 747.613281 L 411.699219 741.339844 C 507.148438 651.625 570.960938 551.425781 606.140625 435.851562 C 639.613281 326.554688 646.023438 209.773438 647.996094 99.757812 L 647.996094 91.558594 Z M 405.15625 734.484375 C 203.5 547.390625 176.207031 335.652344 172.132812 99.667969 L 405.15625 56.875 L 638.179688 99.667969 C 634.101562 335.472656 609.726562 541.117188 405.15625 734.484375 Z M 405.15625 734.484375 " fill-opacity="1" fill-rule="nonzero"/><path fill="#ffffff" d="M 405.15625 734.484375 L 405.15625 56.875 L 638.179688 99.667969 C 634.101562 335.472656 609.726562 541.117188 405.15625 734.484375 Z M 405.15625 734.484375 " fill-opacity="1" fill-rule="nonzero"/><path fill="#751265" d="M 405.15625 587.453125 L 405.15625 56.875 L 172.132812 99.667969 C 176.296875 335.472656 203.5 547.390625 405.15625 734.484375 L 405.15625 696.660156 C 406.910156 696.613281 408.660156 696.476562 410.402344 696.257812 C 412.144531 696.039062 413.875 695.738281 415.585938 695.351562 C 417.300781 694.964844 418.992188 694.496094 420.660156 693.949219 C 422.328125 693.398438 423.96875 692.773438 425.574219 692.066406 C 427.183594 691.359375 428.753906 690.574219 430.285156 689.71875 C 431.816406 688.859375 433.304688 687.929688 434.75 686.925781 C 436.191406 685.925781 437.582031 684.855469 438.921875 683.722656 C 440.261719 682.585938 441.542969 681.386719 442.765625 680.128906 C 443.992188 678.867188 445.152344 677.550781 446.25 676.179688 C 447.347656 674.808594 448.375 673.386719 449.335938 671.917969 C 450.296875 670.445312 451.183594 668.933594 451.996094 667.375 C 452.808594 665.820312 453.546875 664.226562 454.207031 662.601562 C 454.867188 660.972656 455.449219 659.316406 455.949219 657.632812 C 456.449219 655.949219 456.871094 654.246094 457.207031 652.523438 C 457.542969 650.800781 457.796875 649.0625 457.964844 647.316406 C 458.132812 645.566406 458.21875 643.8125 458.21875 642.058594 C 458.21875 640.300781 458.132812 638.550781 457.964844 636.800781 C 457.796875 635.050781 457.542969 633.316406 457.207031 631.59375 C 456.871094 629.867188 456.449219 628.164062 455.949219 626.480469 C 455.449219 624.796875 454.867188 623.140625 454.207031 621.515625 C 453.546875 619.886719 452.808594 618.296875 451.996094 616.738281 C 451.183594 615.183594 450.296875 613.667969 449.335938 612.199219 C 448.375 610.726562 447.347656 609.304688 446.25 607.933594 C 445.152344 606.5625 443.992188 605.246094 442.765625 603.988281 C 441.542969 602.730469 440.261719 601.53125 438.921875 600.394531 C 437.582031 599.257812 436.191406 598.191406 434.75 597.1875 C 433.304688 596.1875 431.816406 595.257812 430.285156 594.398438 C 428.753906 593.539062 427.183594 592.757812 425.574219 592.050781 C 423.96875 591.34375 422.328125 590.714844 420.660156 590.167969 C 418.992188 589.617188 417.300781 589.152344 415.585938 588.765625 C 413.875 588.378906 412.144531 588.078125 410.402344 587.859375 C 408.660156 587.640625 406.910156 587.503906 405.15625 587.453125 Z M 405.15625 587.453125 " fill-opacity="1" fill-rule="nonzero"/><path fill="#c1ad76" d="M 383.871094 663.726562 C 386.285156 666.128906 389.03125 668.070312 392.101562 669.546875 C 395.175781 671.023438 398.40625 671.949219 401.796875 672.328125 L 401.796875 611.785156 C 398.40625 612.167969 395.175781 613.09375 392.101562 614.570312 C 389.03125 616.042969 386.285156 617.984375 383.871094 620.390625 Z M 383.871094 663.726562 " fill-opacity="1" fill-rule="nonzero"/><path fill="#c1ad76" d="M 377.460938 620.257812 L 368.5 611.292969 C 365.242188 615.171875 362.664062 619.457031 360.757812 624.148438 C 358.851562 628.84375 357.710938 633.714844 357.339844 638.765625 L 377.640625 638.765625 Z M 377.460938 620.257812 " fill-opacity="1" fill-rule="nonzero"/><path fill="#c1ad76" d="M 432.804688 626.800781 L 432.804688 638.539062 L 453.238281 638.539062 C 453.046875 635.96875 452.652344 633.429688 452.050781 630.921875 C 451.449219 628.414062 450.652344 625.96875 449.660156 623.589844 C 448.664062 621.210938 447.488281 618.925781 446.125 616.734375 C 444.765625 614.542969 443.238281 612.476562 441.542969 610.53125 L 432.582031 619.269531 Z M 432.804688 626.800781 " fill-opacity="1" fill-rule="nonzero"/><path fill="#c1ad76" d="M 398.433594 605.738281 L 399.015625 605.738281 C 399.914062 605.558594 400.808594 605.421875 401.707031 605.332031 C 404.019531 605.09375 406.335938 605.09375 408.652344 605.332031 L 411.027344 605.648438 C 411.296875 605.667969 411.5625 605.667969 411.832031 605.648438 C 415.019531 606.226562 418.078125 607.210938 421.003906 608.601562 C 423.929688 609.992188 426.625 611.742188 429.085938 613.847656 L 437.015625 605.917969 C 435.921875 604.941406 434.78125 604.019531 433.601562 603.152344 C 432.417969 602.28125 431.199219 601.46875 429.941406 600.710938 C 428.6875 599.953125 427.398438 599.253906 426.078125 598.617188 C 424.757812 597.976562 423.410156 597.398438 422.039062 596.882812 C 420.664062 596.367188 419.269531 595.917969 417.855469 595.527344 C 416.441406 595.140625 415.011719 594.820312 413.566406 594.5625 C 412.121094 594.304688 410.667969 594.117188 409.207031 593.992188 C 407.746094 593.871094 406.28125 593.8125 404.816406 593.824219 C 403.347656 593.835938 401.882812 593.914062 400.425781 594.058594 C 398.964844 594.207031 397.515625 594.417969 396.074219 594.695312 C 394.632812 594.976562 393.210938 595.320312 391.800781 595.730469 C 390.394531 596.136719 389.007812 596.609375 387.640625 597.148438 C 386.277344 597.683594 384.9375 598.28125 383.628906 598.941406 C 382.316406 599.601562 381.039062 600.320312 379.796875 601.097656 C 378.550781 601.871094 377.34375 602.703125 376.175781 603.59375 C 375.007812 604.480469 373.882812 605.417969 372.800781 606.410156 L 380.734375 614.386719 C 383.234375 612.164062 385.984375 610.316406 388.992188 608.847656 C 391.996094 607.378906 395.144531 606.34375 398.433594 605.738281 Z M 398.433594 605.738281 " fill-opacity="1" fill-rule="nonzero"/><path fill="#c1ad76" d="M 408.382812 672.328125 C 411.761719 671.964844 414.984375 671.054688 418.058594 669.605469 C 421.128906 668.152344 423.878906 666.238281 426.308594 663.859375 L 426.308594 620.257812 C 423.878906 617.878906 421.128906 615.964844 418.058594 614.511719 C 414.984375 613.058594 411.761719 612.152344 408.382812 611.785156 Z M 408.382812 672.328125 " fill-opacity="1" fill-rule="nonzero"/><path fill="#c1ad76" d="M 377.460938 664.351562 L 377.460938 644.949219 L 357.117188 644.949219 C 357.289062 647.5 357.664062 650.019531 358.242188 652.507812 C 358.816406 655 359.585938 657.425781 360.550781 659.792969 C 361.511719 662.160156 362.65625 664.4375 363.984375 666.625 C 365.308594 668.808594 366.800781 670.875 368.453125 672.820312 L 376.164062 665.5625 Z M 377.460938 664.351562 " fill-opacity="1" fill-rule="nonzero"/><path fill="#c1ad76" d="M 432.804688 644.949219 L 432.804688 665.070312 C 434.597656 667.085938 438.585938 671.433594 440.871094 674.03125 C 442.667969 672.054688 444.28125 669.9375 445.71875 667.6875 C 447.15625 665.4375 448.394531 663.078125 449.429688 660.617188 C 450.46875 658.15625 451.292969 655.628906 451.902344 653.027344 C 452.511719 650.425781 452.898438 647.792969 453.058594 645.128906 Z M 432.804688 644.949219 " fill-opacity="1" fill-rule="nonzero"/><path fill="#c1ad76" d="M 411.789062 678.511719 L 411.027344 678.511719 L 408.652344 678.828125 C 407.5 678.894531 406.351562 678.894531 405.199219 678.828125 C 404.035156 678.894531 402.871094 678.894531 401.707031 678.828125 L 399.152344 678.46875 L 398.480469 678.46875 C 395.226562 677.859375 392.109375 676.832031 389.136719 675.378906 C 386.164062 673.925781 383.4375 672.101562 380.957031 669.910156 L 372.9375 677.480469 C 373.992188 678.480469 375.097656 679.429688 376.242188 680.324219 C 377.386719 681.222656 378.574219 682.0625 379.796875 682.851562 C 381.019531 683.636719 382.277344 684.367188 383.570312 685.039062 C 384.863281 685.707031 386.183594 686.316406 387.53125 686.867188 C 388.878906 687.414062 390.25 687.898438 391.640625 688.320312 C 393.035156 688.742188 394.441406 689.097656 395.867188 689.390625 C 397.292969 689.679688 398.730469 689.90625 400.175781 690.0625 C 401.625 690.21875 403.074219 690.3125 404.53125 690.335938 C 405.984375 690.359375 407.4375 690.316406 408.890625 690.203125 C 410.339844 690.09375 411.78125 689.914062 413.21875 689.671875 C 414.652344 689.425781 416.070312 689.117188 417.476562 688.738281 C 418.882812 688.363281 420.269531 687.921875 421.632812 687.417969 C 423 686.914062 424.339844 686.347656 425.652344 685.71875 C 426.964844 685.089844 428.242188 684.402344 429.492188 683.65625 C 430.742188 682.910156 431.953125 682.105469 433.128906 681.246094 C 434.300781 680.386719 435.433594 679.476562 436.523438 678.511719 L 429.085938 670.3125 C 426.617188 672.421875 423.917969 674.175781 420.984375 675.566406 C 418.050781 676.957031 414.984375 677.9375 411.789062 678.511719 Z M 411.789062 678.511719 " fill-opacity="1" fill-rule="nonzero"/><path fill="#ffffff" d="M 252.078125 143.40625 C 252.078125 143.40625 250.285156 133.324219 250.195312 132.875 C 250.105469 132.425781 263.054688 103.480469 263.054688 103.480469 L 261.578125 103.746094 L 249.613281 105.855469 L 249.613281 107.644531 C 250.589844 107.835938 251.339844 108.359375 251.851562 109.214844 C 251.871094 109.4375 251.871094 109.664062 251.851562 109.886719 C 251.941406 111.035156 251.730469 112.125 251.226562 113.160156 C 251.226562 113.160156 246.742188 122.882812 245.488281 126.199219 L 232.046875 111.230469 C 231.625 110.871094 231.167969 110.570312 230.671875 110.324219 C 230.175781 110.082031 229.660156 109.90625 229.117188 109.796875 C 228.574219 109.6875 228.027344 109.648438 227.476562 109.675781 C 226.925781 109.707031 226.386719 109.808594 225.859375 109.976562 L 217.390625 111.457031 L 216.449219 111.457031 L 205.425781 113.875 L 205.425781 115.667969 C 206.214844 115.761719 206.8125 116.148438 207.21875 116.832031 C 207.847656 118.222656 206.546875 120.777344 205.515625 122.835938 L 204.800781 124.316406 L 198.390625 136.910156 L 196.464844 126.109375 L 196.464844 125.214844 C 195.925781 122.390625 195.210938 118.492188 197.675781 117.101562 L 197.089844 115.355469 L 184.007812 117.683594 L 184.007812 119.476562 C 186.828125 120.015625 187.457031 123.957031 187.90625 126.738281 L 187.90625 127.632812 L 192.386719 153.398438 L 192.386719 154.296875 C 192.925781 157.121094 193.640625 161.0625 191.175781 162.496094 L 191.804688 164.199219 L 204.890625 161.914062 L 204.890625 160.078125 C 202.109375 159.585938 201.484375 155.597656 200.988281 152.773438 L 200.988281 151.875 L 199.019531 139.148438 L 216.945312 156.222656 C 218.238281 157.15625 219.667969 157.777344 221.230469 158.09375 C 222.792969 158.40625 224.351562 158.378906 225.90625 158.015625 L 232.3125 156.894531 L 232.3125 155.101562 C 228.925781 154.253906 225.9375 152.65625 223.351562 150.308594 L 206.816406 135.070312 L 218.914062 112.308594 L 219.945312 112.664062 C 222.933594 113.839844 225.351562 115.738281 227.207031 118.355469 L 241.636719 134.445312 C 241.636719 134.890625 243.382812 144.347656 243.382812 144.347656 C 243.382812 144.347656 243.742188 146.230469 243.785156 146.589844 C 244.277344 149.1875 244.457031 151.875 242.488281 153.398438 L 243.160156 155.058594 L 256.199219 152.683594 L 256.199219 150.933594 C 253.0625 149.144531 252.792969 147.484375 252.078125 143.40625 Z M 252.078125 143.40625 " fill-opacity="1" fill-rule="nonzero"/><path fill="#ffffff" d="M 341.96875 88.378906 L 340.3125 89.453125 C 339.480469 89.941406 338.582031 90.242188 337.625 90.347656 L 310.421875 95.144531 L 307.332031 95.144531 L 306.882812 95.90625 L 305.71875 106.121094 C 304.242188 104.589844 302.601562 103.265625 300.796875 102.148438 C 298.988281 101.035156 297.066406 100.160156 295.039062 99.53125 C 293.007812 98.898438 290.933594 98.53125 288.8125 98.425781 C 286.6875 98.320312 284.585938 98.480469 282.503906 98.90625 C 280.726562 99.160156 278.992188 99.585938 277.300781 100.1875 C 275.609375 100.785156 273.992188 101.546875 272.453125 102.472656 C 270.914062 103.394531 269.480469 104.460938 268.15625 105.671875 C 266.832031 106.882812 265.636719 108.214844 264.578125 109.664062 C 263.613281 110.949219 262.785156 112.320312 262.09375 113.777344 C 261.40625 115.230469 260.867188 116.738281 260.484375 118.304688 C 260.097656 119.867188 259.875 121.453125 259.808594 123.058594 C 259.742188 124.667969 259.839844 126.269531 260.097656 127.855469 C 260.246094 128.683594 260.4375 129.5 260.667969 130.308594 C 260.898438 131.113281 261.167969 131.910156 261.480469 132.6875 C 261.792969 133.46875 262.140625 134.230469 262.527344 134.976562 C 262.917969 135.71875 263.339844 136.441406 263.800781 137.144531 C 264.261719 137.847656 264.757812 138.523438 265.289062 139.175781 C 265.816406 139.828125 266.378906 140.449219 266.96875 141.046875 C 267.5625 141.640625 268.183594 142.207031 268.832031 142.738281 C 269.480469 143.269531 270.15625 143.769531 270.855469 144.234375 C 271.554688 144.699219 272.277344 145.125 273.019531 145.519531 C 273.761719 145.910156 274.519531 146.265625 275.300781 146.578125 C 276.078125 146.894531 276.871094 147.167969 277.675781 147.402344 C 278.484375 147.640625 279.296875 147.832031 280.125 147.984375 C 280.949219 148.136719 281.78125 148.25 282.617188 148.316406 C 283.453125 148.386719 284.292969 148.414062 285.132812 148.398438 C 285.972656 148.382812 286.808594 148.324219 287.640625 148.222656 C 288.476562 148.125 289.304688 147.980469 290.121094 147.796875 C 290.96875 147.6875 291.804688 147.535156 292.636719 147.339844 C 293.464844 147.144531 294.28125 146.90625 295.089844 146.628906 C 295.894531 146.351562 296.6875 146.035156 297.460938 145.675781 C 298.234375 145.320312 298.988281 144.925781 299.722656 144.492188 C 300.457031 144.0625 301.167969 143.59375 301.859375 143.089844 C 302.546875 142.585938 303.207031 142.046875 303.839844 141.476562 C 304.472656 140.90625 305.078125 140.308594 305.652344 139.675781 C 306.226562 139.046875 306.765625 138.386719 307.273438 137.703125 C 307.78125 137.019531 308.253906 136.308594 308.691406 135.578125 C 309.128906 134.84375 309.527344 134.09375 309.886719 133.320312 C 310.25 132.546875 310.570312 131.757812 310.851562 130.953125 C 311.132812 130.148438 311.375 129.332031 311.574219 128.503906 C 311.777344 127.675781 311.933594 126.839844 312.050781 125.996094 C 312.167969 125.148438 312.238281 124.300781 312.269531 123.449219 C 312.300781 122.597656 312.289062 121.746094 312.234375 120.894531 C 312.183594 120.042969 312.085938 119.199219 311.945312 118.355469 C 311.5625 116.167969 310.882812 114.078125 309.90625 112.082031 C 308.933594 110.085938 307.699219 108.261719 306.210938 106.617188 L 307.597656 104.957031 C 308.496094 103.882812 309.5625 103.015625 310.792969 102.347656 C 312.023438 101.683594 313.335938 101.269531 314.722656 101.105469 L 319.921875 100.164062 L 325.164062 129.828125 C 325.164062 129.828125 325.433594 131.398438 325.523438 131.753906 C 325.972656 134.445312 326.285156 137.625 324.179688 138.878906 L 324.761719 140.582031 L 338.207031 138.253906 L 338.207031 136.460938 C 335.203125 135.339844 334.53125 133.011719 333.726562 129.425781 C 333.726562 129.425781 328.570312 100.207031 328.300781 98.683594 L 333.636719 97.742188 C 336.636719 97.207031 338.117188 97.742188 339.148438 99.042969 L 340.445312 101.238281 L 340.894531 98.640625 Z M 289.585938 141.167969 C 279.324219 143.003906 271.210938 134.488281 269.644531 125.527344 C 269.503906 124.976562 269.390625 124.417969 269.308594 123.855469 C 269.226562 123.292969 269.175781 122.730469 269.152344 122.160156 C 269.128906 121.59375 269.136719 121.027344 269.171875 120.457031 C 269.210938 119.890625 269.277344 119.328125 269.371094 118.769531 C 269.46875 118.207031 269.59375 117.652344 269.746094 117.105469 C 269.902344 116.558594 270.085938 116.023438 270.296875 115.496094 C 270.507812 114.96875 270.746094 114.453125 271.007812 113.949219 C 271.273438 113.445312 271.566406 112.957031 271.882812 112.488281 C 272.199219 112.015625 272.539062 111.558594 272.902344 111.125 C 273.265625 110.6875 273.652344 110.269531 274.058594 109.875 C 274.46875 109.480469 274.894531 109.105469 275.339844 108.753906 C 275.789062 108.402344 276.253906 108.078125 276.734375 107.773438 C 277.214844 107.472656 277.710938 107.195312 278.222656 106.945312 C 278.730469 106.695312 279.253906 106.472656 279.789062 106.277344 C 280.320312 106.082031 280.863281 105.914062 281.414062 105.777344 C 281.96875 105.640625 282.523438 105.53125 283.085938 105.449219 C 293.707031 103.613281 301.011719 112.261719 302.757812 121.402344 C 302.898438 121.945312 303.011719 122.492188 303.09375 123.042969 C 303.179688 123.597656 303.234375 124.152344 303.257812 124.710938 C 303.28125 125.269531 303.277344 125.828125 303.242188 126.386719 C 303.207031 126.945312 303.144531 127.5 303.050781 128.050781 C 302.960938 128.601562 302.839844 129.148438 302.6875 129.6875 C 302.539062 130.226562 302.359375 130.753906 302.152344 131.273438 C 301.949219 131.792969 301.714844 132.300781 301.457031 132.796875 C 301.195312 133.292969 300.910156 133.773438 300.601562 134.238281 C 300.289062 134.703125 299.957031 135.152344 299.601562 135.582031 C 299.242188 136.011719 298.863281 136.421875 298.460938 136.8125 C 298.0625 137.199219 297.640625 137.570312 297.203125 137.914062 C 296.761719 138.261719 296.308594 138.582031 295.832031 138.878906 C 295.359375 139.175781 294.871094 139.449219 294.371094 139.695312 C 293.867188 139.941406 293.355469 140.160156 292.828125 140.351562 C 292.304688 140.546875 291.769531 140.710938 291.230469 140.84375 C 290.6875 140.980469 290.136719 141.089844 289.585938 141.167969 Z M 289.585938 141.167969 " fill-opacity="1" fill-rule="nonzero"/><path fill="#ffffff" d="M 365.136719 84.300781 C 363.359375 84.542969 361.621094 84.960938 359.925781 85.554688 C 358.230469 86.152344 356.613281 86.914062 355.070312 87.835938 C 353.53125 88.761719 352.097656 89.832031 350.777344 91.046875 C 349.453125 92.261719 348.265625 93.597656 347.214844 95.054688 C 346.242188 96.339844 345.410156 97.707031 344.71875 99.164062 C 344.027344 100.617188 343.488281 102.125 343.101562 103.691406 C 342.71875 105.253906 342.492188 106.839844 342.429688 108.449219 C 342.367188 110.058594 342.46875 111.660156 342.730469 113.246094 C 342.878906 114.074219 343.070312 114.890625 343.300781 115.699219 C 343.53125 116.507812 343.804688 117.300781 344.113281 118.078125 C 344.425781 118.859375 344.773438 119.621094 345.164062 120.367188 C 345.550781 121.109375 345.976562 121.835938 346.4375 122.535156 C 346.898438 123.238281 347.394531 123.914062 347.921875 124.566406 C 348.453125 125.21875 349.011719 125.84375 349.605469 126.4375 C 350.195312 127.03125 350.816406 127.597656 351.464844 128.128906 C 352.117188 128.660156 352.789062 129.160156 353.488281 129.625 C 354.1875 130.089844 354.910156 130.519531 355.652344 130.910156 C 356.394531 131.300781 357.15625 131.65625 357.933594 131.96875 C 358.710938 132.285156 359.503906 132.558594 360.3125 132.796875 C 361.117188 133.03125 361.933594 133.222656 362.757812 133.378906 C 363.585938 133.53125 364.414062 133.640625 365.253906 133.710938 C 366.089844 133.777344 366.925781 133.804688 367.765625 133.789062 C 368.605469 133.773438 369.441406 133.714844 370.277344 133.613281 C 371.109375 133.515625 371.9375 133.375 372.757812 133.191406 C 373.59375 133.070312 374.425781 132.910156 375.246094 132.707031 C 376.070312 132.503906 376.878906 132.261719 377.675781 131.976562 C 378.476562 131.695312 379.257812 131.375 380.023438 131.011719 C 380.789062 130.652344 381.535156 130.253906 382.261719 129.816406 C 382.988281 129.382812 383.691406 128.914062 384.371094 128.40625 C 385.050781 127.902344 385.703125 127.363281 386.328125 126.792969 C 386.953125 126.222656 387.550781 125.625 388.117188 124.992188 C 388.683594 124.363281 389.214844 123.707031 389.714844 123.023438 C 390.21875 122.339844 390.683594 121.636719 391.113281 120.90625 C 391.542969 120.175781 391.9375 119.429688 392.292969 118.660156 C 392.648438 117.890625 392.964844 117.105469 393.242188 116.308594 C 393.519531 115.507812 393.757812 114.695312 393.953125 113.871094 C 394.152344 113.046875 394.304688 112.21875 394.421875 111.378906 C 394.535156 110.539062 394.605469 109.695312 394.636719 108.851562 C 394.664062 108.003906 394.652344 107.160156 394.597656 106.3125 C 394.546875 105.46875 394.449219 104.628906 394.3125 103.792969 C 394.042969 102.234375 393.625 100.722656 393.050781 99.25 C 392.476562 97.777344 391.765625 96.378906 390.910156 95.050781 C 390.054688 93.722656 389.078125 92.492188 387.972656 91.363281 C 386.871094 90.230469 385.667969 89.222656 384.363281 88.332031 C 382.972656 87.378906 381.503906 86.566406 379.953125 85.90625 C 378.40625 85.242188 376.804688 84.734375 375.15625 84.390625 C 373.503906 84.042969 371.835938 83.863281 370.152344 83.847656 C 368.464844 83.832031 366.792969 83.984375 365.136719 84.300781 Z M 372.261719 126.601562 C 371.679688 126.675781 371.09375 126.71875 370.507812 126.730469 C 369.917969 126.746094 369.332031 126.730469 368.746094 126.6875 C 368.160156 126.644531 367.578125 126.570312 366.996094 126.472656 C 366.417969 126.371094 365.84375 126.242188 365.277344 126.082031 C 364.710938 125.925781 364.15625 125.742188 363.605469 125.53125 C 363.058594 125.316406 362.523438 125.078125 361.996094 124.8125 C 361.472656 124.550781 360.960938 124.257812 360.464844 123.945312 C 359.96875 123.628906 359.488281 123.289062 359.027344 122.929688 C 358.5625 122.566406 358.117188 122.183594 357.695312 121.777344 C 357.269531 121.371094 356.863281 120.945312 356.480469 120.5 C 356.097656 120.050781 355.738281 119.589844 355.398438 119.109375 C 355.0625 118.625 354.75 118.128906 354.460938 117.617188 C 354.171875 117.105469 353.90625 116.582031 353.671875 116.042969 C 353.433594 115.503906 353.222656 114.957031 353.039062 114.398438 C 352.855469 113.839844 352.703125 113.273438 352.574219 112.699219 C 352.445312 112.125 352.347656 111.546875 352.277344 110.960938 C 352.136719 110.410156 352.023438 109.855469 351.941406 109.292969 C 351.859375 108.730469 351.808594 108.164062 351.785156 107.597656 C 351.761719 107.03125 351.769531 106.460938 351.808594 105.894531 C 351.84375 105.328125 351.910156 104.765625 352.007812 104.203125 C 352.101562 103.644531 352.226562 103.089844 352.382812 102.542969 C 352.535156 101.996094 352.71875 101.457031 352.929688 100.929688 C 353.140625 100.402344 353.378906 99.886719 353.644531 99.386719 C 353.910156 98.882812 354.199219 98.394531 354.515625 97.921875 C 354.832031 97.449219 355.171875 96.996094 355.535156 96.558594 C 355.898438 96.121094 356.285156 95.707031 356.695312 95.308594 C 357.101562 94.914062 357.527344 94.542969 357.976562 94.191406 C 358.421875 93.839844 358.886719 93.511719 359.367188 93.210938 C 359.851562 92.90625 360.34375 92.632812 360.855469 92.382812 C 361.367188 92.132812 361.886719 91.910156 362.421875 91.714844 C 362.957031 91.519531 363.5 91.351562 364.050781 91.214844 C 364.601562 91.074219 365.15625 90.964844 365.722656 90.886719 C 376.339844 89.003906 383.644531 97.699219 385.347656 106.796875 C 385.492188 107.335938 385.605469 107.882812 385.691406 108.433594 C 385.777344 108.984375 385.832031 109.542969 385.859375 110.097656 C 385.886719 110.65625 385.882812 111.214844 385.851562 111.773438 C 385.820312 112.332031 385.757812 112.886719 385.667969 113.4375 C 385.578125 113.988281 385.457031 114.535156 385.308594 115.074219 C 385.160156 115.609375 384.984375 116.140625 384.78125 116.660156 C 384.578125 117.179688 384.347656 117.691406 384.089844 118.1875 C 383.832031 118.679688 383.550781 119.164062 383.242188 119.628906 C 382.933594 120.09375 382.601562 120.542969 382.246094 120.976562 C 381.890625 121.40625 381.515625 121.816406 381.117188 122.210938 C 380.71875 122.601562 380.300781 122.96875 379.863281 123.316406 C 379.425781 123.664062 378.96875 123.988281 378.496094 124.289062 C 378.027344 124.589844 377.539062 124.863281 377.039062 125.109375 C 376.539062 125.359375 376.027344 125.582031 375.503906 125.773438 C 374.980469 125.96875 374.445312 126.136719 373.90625 126.273438 C 373.363281 126.410156 372.816406 126.519531 372.261719 126.601562 Z M 372.261719 126.601562 " fill-opacity="1" fill-rule="nonzero"/><path fill="#000000" d="M 438.808594 104.015625 C 434.328125 100.878906 429.847656 97.921875 430.609375 94.246094 C 431.503906 89.273438 437.957031 90.125 439.304688 90.347656 C 441.09375 90.707031 442.761719 91.371094 444.304688 92.34375 C 445.851562 93.316406 447.171875 94.535156 448.265625 95.996094 L 449.339844 97.609375 L 451.089844 87.703125 L 450.550781 87.4375 C 447.464844 85.832031 444.210938 84.742188 440.78125 84.164062 C 432.804688 82.777344 422.855469 84.164062 421.289062 93.351562 C 419.855469 101.371094 426.261719 105.71875 431.953125 109.574219 C 436.433594 112.753906 440.917969 115.535156 440.019531 119.789062 C 439.125 124.046875 433.925781 124.988281 430.296875 124.273438 C 427.746094 123.773438 425.355469 122.855469 423.125 121.527344 C 420.890625 120.195312 418.949219 118.527344 417.300781 116.519531 L 415.730469 114.636719 L 416.359375 126.0625 L 416.71875 126.0625 C 420.390625 128.128906 424.300781 129.503906 428.457031 130.1875 C 438.632812 131.980469 448.042969 126.960938 449.429688 119.027344 C 450.820312 112.261719 444.457031 107.871094 438.808594 104.015625 Z M 438.808594 104.015625 " fill-opacity="1" fill-rule="nonzero"/><path fill="#000000" d="M 544.074219 103.433594 L 532.46875 101.371094 L 531.796875 102.941406 C 534.484375 105.136719 534.171875 107.421875 533.542969 110.695312 C 533.542969 110.695312 530.136719 130.1875 529.464844 133.90625 L 511.765625 101.148438 C 511.765625 101.148438 511.09375 99.714844 511.09375 99.714844 L 510.464844 98.101562 L 510.464844 97.699219 L 509.972656 97.382812 L 500.515625 95.679688 L 499.890625 97.429688 C 502.128906 99.445312 501.996094 101.910156 501.367188 105.40625 L 496.886719 131.753906 C 496.261719 135.429688 495.855469 137.625 492.40625 138.878906 C 491.109375 137.730469 490.074219 136.382812 489.300781 134.832031 C 488.523438 133.28125 488.066406 131.644531 487.925781 129.917969 L 487.925781 128.886719 L 480.039062 92.140625 L 479.5 92.140625 L 469.101562 90.304688 L 468.566406 91.960938 C 469.140625 92.1875 469.527344 92.589844 469.730469 93.171875 C 470 94.15625 469.148438 95.59375 468.339844 96.890625 L 452.296875 122.75 L 451.761719 123.601562 C 449.878906 126.824219 448.222656 129.558594 444.679688 130.636719 L 444.679688 132.339844 L 456.78125 134.488281 L 457.363281 132.832031 C 456.199219 132.160156 455.972656 131.621094 455.839844 131.261719 C 455.792969 130.992188 455.792969 130.726562 455.839844 130.457031 C 456.222656 129.175781 456.789062 127.980469 457.542969 126.871094 L 461.84375 118.355469 L 477.394531 121.089844 L 479.367188 131.351562 C 479.695312 132.507812 479.84375 133.691406 479.8125 134.890625 C 479.8125 135.699219 479.050781 135.832031 477.664062 136.191406 L 477.664062 137.941406 L 491.105469 140.316406 L 491.914062 140.316406 L 503.742188 142.421875 L 504.28125 140.761719 C 501.59375 138.523438 501.90625 136.28125 502.488281 132.964844 C 502.488281 132.964844 506.027344 112.980469 506.699219 109.257812 L 523.191406 139.910156 C 524.019531 142.015625 525.183594 143.910156 526.6875 145.597656 C 528.1875 147.285156 529.9375 148.660156 531.929688 149.726562 L 532.917969 150.261719 L 539.59375 112.171875 C 540.265625 108.496094 540.667969 106.300781 544.074219 105.09375 Z M 476.183594 114.367188 L 465.472656 112.441406 C 466.371094 110.917969 471.703125 102.222656 473.269531 99.714844 C 473.675781 102.628906 475.644531 112.621094 476.003906 114.367188 Z M 476.183594 114.367188 " fill-opacity="1" fill-rule="nonzero"/><path fill="#000000" d="M 580.597656 151.785156 L 583.332031 136.238281 L 584.316406 132.921875 L 583.597656 132.382812 L 573.472656 130.589844 L 572.890625 132.25 C 575.085938 133.59375 574.859375 136.058594 574.277344 139.417969 C 574.277344 139.417969 572.890625 147.082031 572.710938 148.382812 C 569.828125 148.632812 566.960938 148.527344 564.105469 148.066406 C 563.511719 147.976562 562.921875 147.859375 562.339844 147.707031 C 561.753906 147.558594 561.179688 147.378906 560.617188 147.171875 C 560.050781 146.964844 559.496094 146.730469 558.957031 146.46875 C 558.414062 146.207031 557.886719 145.914062 557.375 145.597656 C 556.863281 145.285156 556.367188 144.941406 555.890625 144.578125 C 555.410156 144.210938 554.953125 143.820312 554.515625 143.410156 C 554.074219 142.996094 553.660156 142.5625 553.265625 142.109375 C 552.867188 141.65625 552.496094 141.183594 552.148438 140.691406 C 551.800781 140.199219 551.480469 139.691406 551.183594 139.167969 C 550.886719 138.644531 550.617188 138.105469 550.375 137.554688 C 550.132812 137.003906 549.917969 136.441406 549.734375 135.871094 C 549.546875 135.296875 549.390625 134.71875 549.265625 134.128906 C 549.136719 133.539062 549.039062 132.945312 548.972656 132.347656 C 548.90625 131.75 548.871094 131.152344 548.863281 130.550781 C 548.855469 129.945312 548.878906 129.347656 548.933594 128.746094 C 548.984375 128.148438 549.070312 127.550781 549.183594 126.960938 C 549.269531 126.394531 549.382812 125.835938 549.527344 125.285156 C 549.671875 124.730469 549.84375 124.1875 550.042969 123.652344 C 550.242188 123.121094 550.472656 122.597656 550.726562 122.085938 C 550.980469 121.574219 551.261719 121.078125 551.570312 120.597656 C 551.875 120.117188 552.207031 119.652344 552.5625 119.203125 C 552.917969 118.757812 553.296875 118.332031 553.695312 117.921875 C 554.097656 117.515625 554.515625 117.128906 554.957031 116.765625 C 555.398438 116.402344 555.855469 116.0625 556.332031 115.746094 C 556.804688 115.433594 557.296875 115.140625 557.804688 114.878906 C 558.308594 114.613281 558.828125 114.375 559.359375 114.164062 C 559.890625 113.953125 560.429688 113.773438 560.980469 113.617188 C 561.527344 113.464844 562.085938 113.339844 562.648438 113.246094 C 563.210938 113.148438 563.777344 113.082031 564.347656 113.046875 C 564.917969 113.007812 565.488281 113.003906 566.058594 113.023438 C 566.628906 113.046875 567.195312 113.101562 567.761719 113.183594 C 568.324219 113.265625 568.886719 113.375 569.4375 113.515625 C 571.46875 113.730469 573.390625 114.308594 575.203125 115.25 C 577.011719 116.195312 578.585938 117.441406 579.925781 118.984375 L 581 120.730469 L 581.582031 118.761719 L 583.015625 110.515625 L 582.433594 110.515625 C 579.097656 109.171875 575.660156 108.171875 572.128906 107.511719 C 555.367188 104.554688 542.417969 111.992188 539.90625 126.378906 C 537.398438 140.761719 546.628906 151.5625 563.433594 154.519531 C 568.667969 155.285156 573.925781 155.554688 579.207031 155.328125 L 580.417969 155.328125 L 580.417969 154.207031 Z M 580.597656 151.785156 " fill-opacity="1" fill-rule="nonzero"/><path fill="#000000" d="M 623.976562 153.894531 L 623.75 152.863281 L 615.773438 116.117188 L 615.28125 116.117188 L 604.839844 114.277344 L 604.300781 115.9375 C 604.886719 116.128906 605.273438 116.519531 605.46875 117.101562 C 605.78125 118.132812 604.886719 119.566406 604.125 120.820312 L 588.035156 146.679688 L 587.542969 147.574219 C 585.617188 150.757812 583.957031 153.535156 580.460938 154.566406 L 580.460938 156.3125 L 592.605469 158.464844 L 593.1875 156.804688 C 591.933594 156.089844 591.484375 155.417969 591.664062 154.386719 C 592.023438 153.117188 592.578125 151.933594 593.324219 150.84375 L 598.117188 142.644531 L 613.667969 145.378906 L 615.773438 155.550781 C 616.109375 156.707031 616.273438 157.886719 616.269531 159.089844 C 616.269531 159.898438 615.503906 160.03125 614.070312 160.390625 L 614.070312 162.136719 L 627.515625 164.511719 L 628.1875 162.898438 C 626.9375 161.722656 625.945312 160.355469 625.21875 158.800781 C 624.492188 157.242188 624.074219 155.609375 623.976562 153.894531 Z M 612.414062 138.386719 L 601.703125 136.503906 C 602.644531 134.980469 607.976562 126.289062 609.5 123.734375 C 610.082031 126.648438 612.054688 136.683594 612.414062 138.386719 Z M 612.414062 138.386719 " fill-opacity="1" fill-rule="nonzero"/><path fill="#000000" d="M 392.339844 156.089844 L 386.738281 156.089844 L 386.738281 147.617188 L 391.21875 147.304688 C 392.25 147.160156 393.261719 147.25 394.253906 147.570312 C 395.246094 147.894531 396.117188 148.417969 396.867188 149.144531 L 397.894531 150.351562 L 397.894531 142.0625 L 378.132812 142.0625 L 378.132812 143.40625 C 380.152344 144.167969 380.105469 146.992188 380.105469 149.277344 L 380.105469 170.160156 C 380.105469 172.3125 380.105469 175.269531 378.179688 175.984375 L 378.179688 177.328125 L 387.949219 177.328125 L 387.949219 175.984375 C 386.378906 175.359375 386.15625 173.339844 386.15625 171.503906 L 386.15625 161.019531 L 389.652344 161.019531 C 391.128906 161.019531 392.789062 161.019531 393.414062 162.136719 L 394.582031 164.289062 L 394.582031 155.683594 L 393.550781 155.683594 Z M 392.339844 156.089844 " fill-opacity="1" fill-rule="nonzero"/><path fill="#000000" d="M 400.675781 170.652344 C 400.171875 170.632812 399.6875 170.710938 399.214844 170.886719 C 398.746094 171.058594 398.324219 171.316406 397.957031 171.65625 C 397.585938 171.996094 397.296875 172.394531 397.085938 172.847656 C 396.871094 173.304688 396.753906 173.78125 396.730469 174.28125 C 396.703125 174.550781 396.703125 174.820312 396.730469 175.089844 C 396.757812 175.359375 396.8125 175.621094 396.894531 175.878906 C 396.976562 176.136719 397.085938 176.382812 397.222656 176.617188 C 397.355469 176.851562 397.515625 177.070312 397.695312 177.273438 C 397.875 177.472656 398.074219 177.652344 398.292969 177.8125 C 398.511719 177.972656 398.746094 178.105469 398.992188 178.21875 C 399.238281 178.328125 399.496094 178.410156 399.761719 178.46875 C 400.023438 178.523438 400.292969 178.550781 400.5625 178.550781 C 400.832031 178.550781 401.101562 178.523438 401.367188 178.46875 C 401.628906 178.410156 401.886719 178.328125 402.132812 178.21875 C 402.378906 178.105469 402.613281 177.972656 402.832031 177.8125 C 403.050781 177.652344 403.25 177.472656 403.429688 177.273438 C 403.613281 177.070312 403.769531 176.851562 403.902344 176.617188 C 404.039062 176.382812 404.148438 176.136719 404.230469 175.878906 C 404.3125 175.621094 404.367188 175.359375 404.398438 175.089844 C 404.425781 174.820312 404.421875 174.550781 404.394531 174.28125 C 404.371094 173.800781 404.261719 173.339844 404.0625 172.898438 C 403.867188 172.460938 403.59375 172.070312 403.25 171.734375 C 402.90625 171.398438 402.507812 171.136719 402.066406 170.949219 C 401.621094 170.761719 401.15625 170.664062 400.675781 170.652344 Z M 400.675781 170.652344 " fill-opacity="1" fill-rule="nonzero"/><path fill="#000000" d="M 426.128906 172.9375 C 425.261719 172.914062 424.402344 172.800781 423.558594 172.601562 C 422.710938 172.40625 421.894531 172.125 421.105469 171.761719 C 420.316406 171.402344 419.570312 170.964844 418.867188 170.453125 C 418.167969 169.9375 417.523438 169.363281 416.9375 168.71875 C 416.351562 168.078125 415.835938 167.382812 415.390625 166.640625 C 414.945312 165.894531 414.578125 165.109375 414.289062 164.292969 C 414 163.472656 413.796875 162.632812 413.679688 161.773438 C 413.558594 160.910156 413.527344 160.046875 413.582031 159.179688 C 413.523438 158.398438 413.550781 157.613281 413.65625 156.835938 C 413.761719 156.058594 413.949219 155.296875 414.214844 154.558594 C 414.480469 153.816406 414.820312 153.113281 415.234375 152.445312 C 415.644531 151.773438 416.121094 151.15625 416.664062 150.585938 C 417.207031 150.015625 417.800781 149.507812 418.449219 149.0625 C 419.097656 148.617188 419.785156 148.246094 420.511719 147.941406 C 421.238281 147.640625 421.988281 147.417969 422.757812 147.273438 C 423.53125 147.128906 424.3125 147.0625 425.097656 147.082031 C 428.445312 147.136719 431.523438 148.078125 434.328125 149.90625 L 435.269531 150.53125 L 435.269531 142.957031 L 434.777344 142.957031 C 431.648438 142.148438 428.464844 141.714844 425.230469 141.660156 C 424.617188 141.628906 424.003906 141.632812 423.390625 141.664062 C 422.777344 141.699219 422.164062 141.765625 421.558594 141.859375 C 420.953125 141.957031 420.351562 142.085938 419.757812 142.242188 C 419.164062 142.402344 418.578125 142.589844 418.003906 142.808594 C 417.429688 143.027344 416.867188 143.273438 416.316406 143.550781 C 415.769531 143.828125 415.234375 144.132812 414.71875 144.460938 C 414.199219 144.792969 413.699219 145.148438 413.21875 145.53125 C 412.738281 145.914062 412.277344 146.320312 411.835938 146.75 C 411.398438 147.183594 410.980469 147.632812 410.589844 148.105469 C 410.195312 148.578125 409.828125 149.070312 409.484375 149.582031 C 409.144531 150.089844 408.828125 150.617188 408.539062 151.160156 C 408.253906 151.703125 407.992188 152.261719 407.761719 152.832031 C 407.53125 153.402344 407.328125 153.980469 407.160156 154.570312 C 406.988281 155.160156 406.847656 155.757812 406.738281 156.363281 C 406.628906 156.96875 406.550781 157.578125 406.503906 158.191406 C 406.453125 158.804688 406.4375 159.417969 406.457031 160.03125 C 406.457031 171.460938 414.296875 178.539062 426.84375 178.539062 C 429.65625 178.605469 432.34375 178.066406 434.910156 176.925781 L 438.363281 169.039062 L 436.613281 169.9375 C 433.375 171.828125 429.878906 172.828125 426.128906 172.9375 Z M 426.128906 172.9375 " fill-opacity="1" fill-rule="nonzero"/><path fill="#000000" d="M 444.410156 170.652344 C 443.914062 170.632812 443.429688 170.710938 442.960938 170.886719 C 442.492188 171.0625 442.074219 171.320312 441.710938 171.660156 C 441.34375 172 441.058594 172.398438 440.851562 172.851562 C 440.644531 173.304688 440.53125 173.785156 440.511719 174.28125 C 440.511719 174.789062 440.609375 175.273438 440.804688 175.738281 C 440.996094 176.207031 441.269531 176.617188 441.628906 176.976562 C 441.984375 177.332031 442.398438 177.609375 442.863281 177.800781 C 443.332031 177.996094 443.816406 178.089844 444.320312 178.089844 C 444.828125 178.089844 445.3125 177.996094 445.78125 177.800781 C 446.246094 177.609375 446.660156 177.332031 447.015625 176.976562 C 447.371094 176.617188 447.648438 176.207031 447.839844 175.738281 C 448.035156 175.273438 448.132812 174.789062 448.132812 174.28125 C 448.109375 173.800781 448 173.339844 447.800781 172.898438 C 447.601562 172.460938 447.332031 172.070312 446.988281 171.734375 C 446.640625 171.398438 446.246094 171.136719 445.800781 170.949219 C 445.355469 170.761719 444.894531 170.664062 444.410156 170.652344 Z M 444.410156 170.652344 " fill-opacity="1" fill-rule="nonzero"/><path fill="#000000" d="M 595.832031 269.285156 C 585.035156 252.347656 585.527344 217.570312 589.246094 196.867188 C 578.9375 201.347656 569.976562 214.523438 566.839844 221.558594 C 563.15625 214.351562 558.636719 207.710938 553.277344 201.640625 C 547.921875 195.570312 541.898438 190.261719 535.203125 185.710938 C 516.066406 172.265625 490.164062 163.304688 463.144531 172.984375 C 472.929688 175.324219 482.355469 178.675781 491.421875 183.042969 C 500.488281 187.410156 508.988281 192.691406 516.917969 198.882812 L 516.917969 199.242188 C 515.648438 203.191406 515.019531 207.238281 515.035156 211.386719 C 515.035156 219.855469 521.308594 236.617188 524.941406 246.699219 C 520.011719 234.691406 504.953125 213.136719 455.929688 211.476562 C 435.988281 210.804688 425.859375 201.171875 420.078125 184.589844 C 417.296875 191.804688 415.699219 199.273438 415.285156 206.996094 C 415.117188 211.332031 415.582031 215.601562 416.679688 219.796875 C 417.78125 223.996094 419.464844 227.945312 421.738281 231.640625 L 418.375 228.460938 C 413.253906 222.699219 407.59375 217.527344 401.394531 212.945312 C 395.199219 208.363281 388.59375 204.46875 381.585938 201.257812 C 379.101562 200.289062 376.578125 199.453125 374.011719 198.742188 C 371.441406 198.035156 368.84375 197.460938 366.21875 197.023438 C 363.589844 196.582031 360.945312 196.28125 358.289062 196.113281 C 355.628906 195.949219 352.96875 195.921875 350.304688 196.03125 C 347.644531 196.140625 344.996094 196.386719 342.359375 196.769531 C 339.722656 197.152344 337.113281 197.671875 334.53125 198.328125 C 331.949219 198.980469 329.40625 199.765625 326.90625 200.683594 C 324.40625 201.601562 321.957031 202.644531 319.5625 203.8125 C 315.140625 206.351562 311.050781 209.335938 307.285156 212.777344 C 308.242188 208.863281 309.765625 205.179688 311.851562 201.734375 C 313.941406 198.285156 316.496094 195.230469 319.519531 192.566406 C 317.878906 192.175781 316.226562 191.855469 314.558594 191.613281 C 312.890625 191.367188 311.214844 191.199219 309.535156 191.105469 C 307.851562 191.007812 306.167969 190.988281 304.484375 191.042969 C 302.796875 191.097656 301.121094 191.226562 299.445312 191.429688 C 297.773438 191.632812 296.113281 191.910156 294.464844 192.257812 C 292.816406 192.609375 291.1875 193.035156 289.574219 193.53125 C 287.964844 194.023438 286.378906 194.589844 284.816406 195.226562 C 283.257812 195.863281 281.726562 196.570312 280.230469 197.339844 C 278.734375 198.113281 277.273438 198.949219 275.847656 199.851562 C 274.425781 200.753906 273.042969 201.71875 271.707031 202.742188 C 270.367188 203.769531 269.078125 204.851562 267.835938 205.988281 C 266.59375 207.128906 265.40625 208.320312 264.269531 209.566406 C 263.132812 210.8125 262.054688 212.105469 261.035156 213.445312 C 260.011719 214.785156 259.054688 216.167969 258.15625 217.59375 C 257.257812 219.023438 256.425781 220.484375 255.65625 221.984375 C 254.886719 223.484375 254.1875 225.015625 253.554688 226.578125 C 251.761719 232.023438 250.882812 237.609375 250.910156 243.339844 C 250.898438 247.242188 251.359375 251.089844 252.289062 254.878906 C 253.222656 258.671875 254.601562 262.292969 256.421875 265.746094 C 250.511719 265.394531 244.746094 266.15625 239.125 268.03125 C 237.210938 268.65625 235.347656 269.410156 233.539062 270.292969 C 231.726562 271.175781 229.988281 272.175781 228.3125 273.296875 C 226.640625 274.417969 225.054688 275.648438 223.550781 276.988281 C 222.046875 278.328125 220.640625 279.761719 219.335938 281.296875 C 218.027344 282.828125 216.832031 284.445312 215.746094 286.140625 C 214.664062 287.835938 213.699219 289.601562 212.859375 291.429688 C 212.015625 293.257812 211.300781 295.136719 210.71875 297.066406 C 210.132812 298.992188 209.683594 300.949219 209.371094 302.9375 C 208.203125 309.734375 208.203125 316.53125 209.371094 323.328125 C 206.894531 327.042969 204.902344 331 203.386719 335.199219 C 201.871094 339.398438 200.875 343.714844 200.40625 348.15625 C 199.953125 355.222656 200.730469 362.15625 202.738281 368.949219 C 207.164062 364.226562 212.394531 360.683594 218.421875 358.328125 L 217.300781 363.839844 C 216.738281 368.652344 216.855469 373.445312 217.660156 378.222656 C 220.886719 375.378906 224.390625 372.9375 228.171875 370.894531 C 231.957031 368.851562 235.921875 367.261719 240.066406 366.125 C 240.316406 368.183594 240.703125 370.214844 241.226562 372.21875 C 241.75 374.222656 242.40625 376.1875 243.195312 378.101562 C 243.980469 380.019531 244.894531 381.875 245.929688 383.671875 C 246.96875 385.464844 248.121094 387.179688 249.386719 388.820312 C 250.65625 390.460938 252.027344 392.007812 253.503906 393.460938 C 254.980469 394.914062 256.550781 396.265625 258.207031 397.507812 C 259.863281 398.753906 261.597656 399.878906 263.410156 400.890625 C 265.21875 401.898438 267.085938 402.785156 269.015625 403.542969 C 267.246094 404.648438 265.542969 405.847656 263.90625 407.144531 C 262.269531 408.4375 260.714844 409.820312 259.234375 411.292969 C 257.753906 412.761719 256.359375 414.3125 255.054688 415.941406 C 253.746094 417.566406 252.535156 419.261719 251.421875 421.023438 C 250.304688 422.789062 249.292969 424.609375 248.378906 426.484375 C 247.46875 428.363281 246.667969 430.285156 245.972656 432.253906 C 245.277344 434.21875 244.695312 436.222656 244.222656 438.253906 C 243.753906 440.285156 243.398438 442.339844 243.160156 444.414062 L 242.664062 453.375 C 242.664062 478.917969 256.46875 496.664062 269.554688 508.179688 C 278.113281 517.816406 314.859375 540.445312 322.613281 549.945312 C 325.054688 553.109375 327.257812 556.4375 329.214844 559.921875 C 331.171875 563.410156 332.867188 567.019531 334.296875 570.753906 C 335.726562 574.488281 336.878906 578.304688 337.753906 582.207031 C 338.625 586.109375 339.210938 590.054688 339.503906 594.042969 C 342.796875 589.453125 345.351562 584.488281 347.175781 579.148438 C 349 573.804688 350.011719 568.3125 350.214844 562.671875 C 360.65625 572.398438 373.429688 582.210938 403.675781 582.792969 C 433.925781 583.375 452.972656 559.085938 460.859375 537.441406 C 455.703125 539.371094 439.214844 545.0625 439.214844 545.0625 C 433.046875 546.917969 426.753906 548.128906 420.339844 548.6875 C 413.921875 549.246094 407.519531 549.140625 401.121094 548.378906 C 388.890625 520.234375 361.734375 509.703125 332.648438 504.683594 C 319.207031 502.308594 296.800781 496.753906 281.203125 484.339844 C 280.578125 483.535156 279.949219 482.773438 279.367188 481.921875 C 277.039062 478.546875 275.285156 474.894531 274.109375 470.96875 C 272.929688 467.042969 272.382812 463.03125 272.464844 458.929688 C 272.46875 455.613281 272.796875 452.328125 273.453125 449.074219 C 274.152344 446.617188 275.035156 444.226562 276.097656 441.902344 C 276.097656 443.023438 276.097656 444.144531 276.097656 445.351562 C 276.097656 449.476562 275.691406 466.773438 286.089844 477.261719 C 288.332031 476.554688 290.5 475.671875 292.601562 474.613281 C 294.699219 473.558594 296.703125 472.339844 298.605469 470.964844 C 300.507812 469.585938 302.289062 468.0625 303.949219 466.398438 C 305.609375 464.734375 307.125 462.945312 308.496094 461.039062 C 311.363281 480.53125 326.824219 495.589844 357.519531 505.851562 C 355.394531 500.570312 353.902344 495.117188 353.039062 489.492188 C 355.125 492.066406 357.546875 494.273438 360.304688 496.105469 C 363.066406 497.941406 366.035156 499.320312 369.214844 500.25 C 386.648438 506.117188 408.382812 502.355469 418.511719 495.09375 C 414.390625 493.453125 410.460938 491.4375 406.722656 489.046875 C 409.890625 489.949219 413.109375 490.5625 416.386719 490.882812 C 419.664062 491.199219 422.941406 491.222656 426.222656 490.945312 C 429.503906 490.671875 432.730469 490.101562 435.90625 489.242188 C 439.085938 488.378906 442.160156 487.238281 445.128906 485.820312 C 450 483.796875 454.183594 480.808594 457.675781 476.855469 C 451.671875 494.78125 432.492188 505.3125 415.730469 506.296875 C 415.730469 506.296875 407.890625 507.015625 405.785156 507.148438 C 416.851562 526.867188 446.921875 538.519531 473.003906 532.691406 C 497.023438 527.269531 507.238281 505.804688 511.003906 495.320312 C 510.234375 502.789062 508.742188 510.109375 506.527344 517.28125 C 504.308594 524.453125 501.410156 531.339844 497.828125 537.9375 C 522.117188 534.394531 555.414062 512.660156 559.445312 479.992188 L 560.027344 470.671875 C 560.011719 466.890625 559.671875 463.136719 559.003906 459.414062 C 558.335938 455.691406 557.351562 452.054688 556.054688 448.503906 C 554.753906 444.949219 553.160156 441.535156 551.269531 438.261719 C 549.378906 434.984375 547.21875 431.898438 544.792969 428.996094 C 555.960938 434.328125 566.027344 441.261719 574.996094 449.789062 C 575.480469 445.523438 575.53125 441.25 575.152344 436.96875 C 574.773438 432.691406 573.96875 428.492188 572.742188 424.378906 C 571.511719 420.261719 569.886719 416.308594 567.859375 412.523438 C 565.832031 408.734375 563.445312 405.191406 560.699219 401.886719 C 585.078125 390.277344 606.8125 363.347656 610.21875 335.519531 C 611.074219 329.792969 611.410156 324.035156 611.222656 318.25 C 611.035156 312.464844 610.324219 306.742188 609.097656 301.082031 C 607.867188 295.425781 606.136719 289.925781 603.910156 284.582031 C 601.679688 279.238281 598.988281 274.140625 595.832031 269.285156 Z M 456.691406 295.949219 C 458.71875 300.890625 459.839844 306.027344 460.050781 311.363281 L 455.570312 310.558594 C 451.09375 309.910156 446.75 308.757812 442.539062 307.101562 C 438.332031 305.445312 434.371094 303.324219 430.652344 300.742188 C 425.429688 293.394531 421.171875 285.523438 417.882812 277.128906 C 424.4375 278.261719 430.796875 280.082031 436.960938 282.582031 C 443.125 285.082031 448.957031 288.207031 454.449219 291.960938 C 455.367188 293.195312 456.113281 294.523438 456.691406 295.949219 Z M 458.304688 349.722656 C 458.257812 354.085938 457.300781 358.238281 455.433594 362.179688 C 453.539062 360.988281 451.734375 359.671875 450.011719 358.238281 C 443.382812 350.351562 439.167969 341.792969 439.078125 337.667969 C 445.40625 338 451.382812 339.628906 457.003906 342.554688 C 457.796875 344.863281 458.230469 347.238281 458.304688 349.679688 Z M 349.320312 364.824219 C 348.992188 363.347656 348.84375 361.855469 348.871094 360.34375 C 348.859375 358.890625 349.046875 357.46875 349.4375 356.070312 C 349.828125 354.671875 350.402344 353.351562 351.164062 352.117188 C 351.925781 350.878906 352.84375 349.773438 353.914062 348.796875 C 354.988281 347.816406 356.175781 347.007812 357.476562 346.363281 L 365.722656 343.226562 C 369.082031 341.972656 371.996094 340.984375 374.683594 340.179688 C 373.242188 342.804688 371.613281 345.308594 369.796875 347.695312 C 367.980469 350.078125 365.996094 352.3125 363.847656 354.402344 C 361.699219 356.492188 359.40625 358.410156 356.972656 360.15625 C 354.539062 361.902344 351.988281 363.457031 349.320312 364.824219 Z M 382.75 298.277344 L 382.4375 298.59375 C 377.953125 303.074219 362.851562 309.125 355.816406 294.109375 C 355.160156 292.277344 354.714844 290.390625 354.480469 288.453125 C 354.246094 286.519531 354.230469 284.582031 354.433594 282.644531 C 354.636719 280.703125 355.050781 278.8125 355.675781 276.964844 C 356.304688 275.121094 357.125 273.367188 358.148438 271.703125 C 360.046875 268.980469 362.210938 266.492188 364.644531 264.234375 C 367.074219 261.976562 369.71875 260.003906 372.578125 258.3125 C 375.433594 256.625 378.4375 255.257812 381.589844 254.214844 C 384.738281 253.171875 387.964844 252.472656 391.265625 252.121094 C 382.675781 256.699219 375.207031 262.671875 368.859375 270.046875 C 371.1875 270.539062 381.496094 270.628906 398.121094 273.765625 C 392.472656 286.539062 387.230469 294.605469 382.75 298.277344 Z M 388.933594 375.3125 C 397.894531 362.675781 406.320312 339.863281 409.683594 312.976562 C 413.847656 337.445312 422.363281 357.789062 429.714844 367.917969 L 442.484375 384.855469 C 441.542969 388.261719 440.558594 390.054688 431.058594 393.191406 C 429.300781 393.679688 427.605469 394.328125 425.96875 395.132812 C 424.332031 395.9375 422.785156 396.886719 421.324219 397.976562 C 419.863281 399.070312 418.515625 400.285156 417.28125 401.628906 C 416.050781 402.972656 414.949219 404.417969 413.984375 405.964844 C 414.601562 402.261719 415.695312 398.707031 417.253906 395.296875 L 418.6875 392.5625 C 418.6875 392.5625 407.351562 374.773438 388.890625 375.3125 Z M 418.867188 437.332031 C 417.691406 436.425781 416.613281 435.410156 415.640625 434.285156 C 419.003906 433.703125 423.125 433.34375 423.125 433.34375 C 428.101562 432.851562 447.414062 434.597656 453.957031 442.304688 C 454.550781 443.011719 455.085938 443.761719 455.570312 444.546875 L 453.734375 444.769531 C 453.417969 444.949219 433.027344 447.054688 418.824219 437.332031 Z M 577.234375 325.300781 C 576.363281 330.3125 574.8125 335.105469 572.578125 339.675781 C 570.347656 344.246094 567.523438 348.417969 564.105469 352.1875 C 564.328125 347.582031 564.027344 343.007812 563.210938 338.46875 C 562.394531 333.929688 561.078125 329.542969 559.265625 325.300781 C 559.9375 320.820312 560.566406 312.351562 560.566406 312.351562 C 560.328125 304.984375 559.148438 297.777344 557.03125 290.71875 C 554.910156 283.664062 551.921875 276.996094 548.0625 270.71875 C 555.332031 275.429688 561.949219 280.929688 567.914062 287.210938 C 569.570312 289.179688 571.039062 291.285156 572.320312 293.515625 C 573.597656 295.75 574.671875 298.078125 575.535156 300.503906 C 576.402344 302.929688 577.042969 305.410156 577.464844 307.949219 C 577.886719 310.492188 578.078125 313.046875 578.042969 315.621094 C 578 318.867188 577.71875 322.09375 577.191406 325.300781 Z M 577.234375 325.300781 " fill-opacity="1" fill-rule="nonzero"/><path fill="#c1ad76" d="M 454.089844 448.085938 C 453.644531 448.085938 411.519531 452.566406 403.453125 420.394531 C 402.722656 417.53125 402.234375 414.625 401.988281 411.683594 C 401.746094 408.738281 401.746094 405.792969 401.996094 402.851562 C 402.242188 399.90625 402.734375 397.003906 403.464844 394.140625 C 404.199219 391.277344 405.167969 388.496094 406.367188 385.796875 L 406.8125 384.992188 L 406.230469 384.273438 C 405.433594 383.417969 404.566406 382.640625 403.632812 381.941406 C 402.695312 381.242188 401.703125 380.632812 400.65625 380.113281 C 399.609375 379.59375 398.523438 379.167969 397.398438 378.84375 C 396.277344 378.519531 395.132812 378.296875 393.972656 378.179688 C 392.808594 378.0625 391.644531 378.046875 390.476562 378.140625 C 389.3125 378.230469 388.164062 378.425781 387.035156 378.722656 C 385.902344 379.023438 384.808594 379.417969 383.75 379.914062 C 382.691406 380.410156 381.6875 380.996094 380.734375 381.675781 C 370.828125 387.546875 365.226562 386.648438 362.808594 385.753906 C 364.78125 383.332031 369.441406 377.460938 377.730469 366.035156 C 390.59375 348.425781 397.71875 324.582031 400.136719 286.894531 C 400.136719 286.894531 400.136719 280.890625 400.136719 275.515625 C 399.195312 278.203125 396.507812 283.625 394.984375 286.671875 C 392.441406 292.117188 388.902344 296.804688 384.363281 300.742188 L 384.003906 301.011719 C 381.109375 303.480469 377.96875 305.585938 374.585938 307.324219 C 371.203125 309.066406 367.664062 310.398438 363.972656 311.320312 L 355.011719 313.695312 C 360.65625 315.375 366.40625 316.507812 372.261719 317.101562 C 368.894531 318.816406 365.824219 320.964844 363.054688 323.539062 C 360.28125 326.109375 357.914062 329.015625 355.953125 332.246094 C 366.527344 328.257812 375.488281 325.882812 379.390625 326.554688 C 379.835938 326.554688 381.089844 326.867188 381.089844 329.511719 C 381.089844 339.863281 363.167969 365.363281 344.078125 369.84375 C 342.960938 368.699219 341.964844 367.453125 341.089844 366.113281 C 340.210938 364.777344 339.472656 363.363281 338.871094 361.882812 C 338.265625 360.398438 337.8125 358.875 337.503906 357.304688 C 337.195312 355.730469 337.042969 354.148438 337.039062 352.546875 C 337.089844 349.375 337.644531 346.292969 338.703125 343.300781 C 339.761719 340.3125 341.269531 337.566406 343.226562 335.070312 C 345.140625 332.765625 346.851562 330.316406 348.355469 327.726562 C 349.863281 325.132812 351.136719 322.433594 352.1875 319.625 C 353.238281 316.816406 354.042969 313.941406 354.605469 311 C 355.171875 308.054688 355.484375 305.085938 355.546875 302.085938 C 355.546875 301.550781 355.546875 301.011719 355.546875 300.472656 L 355.546875 299.535156 L 354.652344 299.21875 C 353.265625 298.585938 351.964844 297.8125 350.746094 296.890625 C 349.53125 295.972656 348.429688 294.933594 347.441406 293.769531 C 346.453125 292.609375 345.605469 291.351562 344.894531 290.003906 C 344.183594 288.65625 343.625 287.246094 343.226562 285.777344 C 342.4375 283.328125 342.046875 280.820312 342.058594 278.246094 C 342.097656 275.285156 342.582031 272.398438 343.503906 269.585938 C 344.429688 266.773438 345.757812 264.164062 347.480469 261.757812 C 361.820312 241.007812 387.542969 234.867188 423.933594 244.191406 L 427.832031 245.132812 L 425.410156 241.949219 C 422.523438 237.902344 419.390625 234.054688 416.011719 230.410156 C 412.632812 226.761719 409.03125 223.347656 405.214844 220.164062 C 401.394531 216.980469 397.390625 214.054688 393.195312 211.386719 C 389 208.71875 384.652344 206.328125 380.152344 204.21875 C 359.269531 194.71875 323.285156 198.078125 308.136719 216.71875 C 306.042969 219.3125 304.179688 222.066406 302.558594 224.976562 C 300.933594 227.886719 299.570312 230.917969 298.46875 234.0625 C 297.363281 237.207031 296.539062 240.425781 295.988281 243.714844 C 295.4375 247 295.167969 250.3125 295.1875 253.644531 C 295.1875 254.542969 295.1875 255.125 295.1875 255.886719 C 293.078125 252.332031 291.46875 248.5625 290.359375 244.578125 C 289.25 240.597656 288.675781 236.539062 288.644531 232.40625 C 288.65625 229.230469 288.921875 226.078125 289.449219 222.949219 C 289.957031 219.871094 290.792969 216.886719 291.953125 213.988281 C 293.113281 211.09375 294.570312 208.355469 296.328125 205.78125 C 298.085938 203.203125 300.097656 200.84375 302.371094 198.707031 C 304.640625 196.570312 307.117188 194.703125 309.796875 193.105469 C 308.390625 193.058594 306.984375 193.066406 305.578125 193.125 C 304.171875 193.183594 302.769531 193.296875 301.375 193.464844 C 299.976562 193.628906 298.589844 193.847656 297.207031 194.121094 C 295.828125 194.390625 294.460938 194.710938 293.105469 195.085938 C 291.746094 195.460938 290.40625 195.886719 289.082031 196.363281 C 287.761719 196.835938 286.457031 197.363281 285.171875 197.9375 C 283.886719 198.511719 282.625 199.132812 281.390625 199.800781 C 280.152344 200.472656 278.941406 201.1875 277.757812 201.949219 C 276.574219 202.710938 275.421875 203.511719 274.300781 204.363281 C 273.179688 205.210938 272.089844 206.097656 271.035156 207.03125 C 269.980469 207.960938 268.960938 208.929688 267.980469 209.9375 C 266.996094 210.941406 266.054688 211.984375 265.152344 213.066406 C 264.246094 214.144531 263.386719 215.253906 262.566406 216.398438 C 261.75 217.542969 260.972656 218.714844 260.242188 219.917969 C 259.511719 221.121094 258.828125 222.347656 258.191406 223.601562 C 257.554688 224.855469 256.964844 226.132812 256.421875 227.429688 C 254.734375 232.550781 253.898438 237.8125 253.914062 243.203125 C 253.871094 245.617188 254.035156 248.015625 254.402344 250.402344 C 254.765625 252.789062 255.332031 255.125 256.09375 257.414062 C 256.859375 259.703125 257.808594 261.914062 258.945312 264.042969 C 260.085938 266.167969 261.394531 268.1875 262.875 270.089844 C 259.066406 269 255.179688 268.527344 251.21875 268.679688 C 247.257812 268.835938 243.421875 269.601562 239.707031 270.988281 C 237.945312 271.578125 236.226562 272.285156 234.5625 273.113281 C 232.894531 273.9375 231.292969 274.875 229.753906 275.921875 C 228.214844 276.96875 226.757812 278.113281 225.375 279.363281 C 223.996094 280.609375 222.707031 281.945312 221.511719 283.371094 C 220.316406 284.792969 219.222656 286.292969 218.230469 287.867188 C 217.242188 289.445312 216.363281 291.078125 215.601562 292.773438 C 214.835938 294.472656 214.191406 296.210938 213.664062 297.996094 C 213.140625 299.78125 212.738281 301.59375 212.460938 303.433594 L 212.105469 306.253906 L 214.570312 304.820312 C 228.011719 297.113281 247.28125 295.1875 259.648438 300.339844 C 265.128906 302.605469 269.925781 305.878906 274.035156 310.152344 C 273.164062 309.675781 272.277344 309.222656 271.378906 308.800781 C 270.480469 308.375 269.566406 307.980469 268.644531 307.613281 C 267.71875 307.246094 266.785156 306.910156 265.839844 306.601562 C 264.894531 306.292969 263.941406 306.015625 262.976562 305.765625 C 262.015625 305.515625 261.046875 305.300781 260.070312 305.109375 C 259.09375 304.921875 258.113281 304.765625 257.125 304.640625 C 256.140625 304.511719 255.152344 304.417969 254.160156 304.351562 C 253.167969 304.289062 252.175781 304.253906 251.179688 304.25 C 250.1875 304.25 249.191406 304.277344 248.199219 304.335938 C 247.207031 304.394531 246.21875 304.484375 245.230469 304.609375 C 244.246094 304.730469 243.261719 304.882812 242.285156 305.0625 C 241.308594 305.246094 240.339844 305.460938 239.375 305.703125 C 238.410156 305.945312 237.453125 306.21875 236.507812 306.523438 C 235.5625 306.828125 234.625 307.160156 233.699219 307.519531 C 232.773438 307.882812 231.859375 308.273438 230.957031 308.691406 C 230.054688 309.113281 229.167969 309.558594 228.296875 310.03125 C 227.421875 310.507812 226.5625 311.007812 225.722656 311.539062 C 224.878906 312.066406 224.054688 312.621094 223.246094 313.199219 C 222.4375 313.777344 221.648438 314.382812 220.878906 315.011719 C 220.109375 315.640625 219.363281 316.292969 218.632812 316.96875 C 217.902344 317.644531 217.195312 318.34375 216.511719 319.066406 C 215.824219 319.785156 215.164062 320.527344 214.523438 321.289062 C 213.886719 322.050781 213.269531 322.832031 212.679688 323.628906 C 212.089844 324.429688 211.527344 325.25 210.988281 326.082031 C 210.449219 326.917969 209.9375 327.769531 209.449219 328.636719 C 208.964844 329.503906 208.507812 330.386719 208.078125 331.285156 C 207.644531 332.179688 207.242188 333.089844 206.871094 334.007812 C 206.496094 334.929688 206.152344 335.863281 205.835938 336.804688 C 205.519531 337.75 205.234375 338.699219 204.980469 339.660156 C 204.722656 340.621094 204.5 341.589844 204.304688 342.5625 C 204.109375 343.539062 203.941406 344.519531 203.808594 345.503906 C 203.675781 346.488281 203.570312 347.476562 203.5 348.46875 L 203.5 351.472656 L 205.917969 349.679688 C 205.917969 349.679688 220.214844 339.328125 231.058594 338.207031 C 228.855469 340.730469 226.996094 343.488281 225.476562 346.476562 C 223.960938 349.464844 222.832031 352.59375 222.097656 355.863281 L 221.558594 358.550781 L 224.023438 357.476562 C 241.636719 349.8125 259.875 355.773438 266.058594 366.4375 C 264.339844 366.988281 262.585938 367.351562 260.792969 367.523438 C 258.996094 367.695312 257.207031 367.675781 255.414062 367.464844 C 253.625 367.25 251.878906 366.851562 250.175781 366.261719 C 248.472656 365.675781 246.847656 364.910156 245.308594 363.972656 L 242.753906 362.585938 L 243.25 365.496094 C 244.996094 375.355469 252.613281 397.089844 285.238281 399.015625 C 272.644531 403.902344 249.835938 416.582031 246.429688 445.085938 C 246.09375 447.882812 245.929688 450.691406 245.9375 453.507812 C 245.9375 489.359375 274.527344 509.210938 287.253906 518.039062 L 295.097656 523.28125 C 310.644531 533.5 330.945312 546.585938 337.625 568.945312 C 338.707031 565.066406 339.210938 561.113281 339.144531 557.085938 C 339.074219 553.058594 338.433594 549.125 337.21875 545.285156 C 338.984375 547.40625 340.863281 549.417969 342.859375 551.324219 C 344.851562 553.230469 346.945312 555.015625 349.144531 556.683594 C 351.339844 558.355469 353.625 559.890625 355.996094 561.300781 C 358.367188 562.710938 360.808594 563.980469 363.324219 565.113281 C 365.839844 566.246094 368.410156 567.230469 371.039062 568.070312 C 373.664062 568.910156 376.332031 569.601562 379.035156 570.136719 C 381.742188 570.675781 384.46875 571.058594 387.21875 571.285156 C 389.964844 571.511719 392.71875 571.585938 395.476562 571.5 C 422.363281 571.5 440.738281 551.109375 441.5 550.257812 L 445.171875 546.179688 L 440.019531 547.972656 C 439.527344 547.972656 392.609375 564.0625 364.375 533.542969 C 374.011719 536.1875 382.972656 540.296875 391.265625 545.867188 C 388.261719 531.078125 369.441406 514.230469 331.84375 507.730469 C 314.367188 504.730469 282.90625 496.574219 268.476562 475.648438 C 265.976562 472.050781 264.085938 468.164062 262.800781 463.976562 C 261.515625 459.792969 260.898438 455.511719 260.949219 451.132812 C 260.96875 447.621094 261.3125 444.140625 261.980469 440.691406 C 269.464844 415.464844 286.984375 409.953125 295.230469 408.742188 C 292.65625 411.050781 290.355469 413.609375 288.328125 416.414062 C 286.300781 419.214844 284.59375 422.203125 283.203125 425.371094 C 281.816406 428.539062 280.78125 431.820312 280.097656 435.210938 C 279.410156 438.601562 279.09375 442.027344 279.144531 445.488281 C 279.164062 449.550781 279.597656 453.570312 280.441406 457.542969 L 281.25 461.753906 L 283.085938 457.902344 C 286.539062 449.816406 291.023438 442.347656 296.53125 435.496094 C 296.53125 437.464844 296.53125 439.484375 296.53125 439.484375 C 296.539062 448.574219 295.464844 457.539062 293.304688 466.371094 C 297.199219 463.371094 300.664062 459.933594 303.699219 456.066406 C 306.730469 452.195312 309.242188 448.015625 311.230469 443.515625 C 311.230469 446.113281 310.914062 448.667969 310.914062 451.042969 C 310.914062 470.449219 318.039062 483.355469 341.566406 491.957031 L 344.300781 492.945312 L 343.40625 490.210938 C 341.4375 483.847656 340.484375 477.332031 340.535156 470.671875 C 340.535156 468.519531 340.535156 466.640625 340.851562 464.710938 C 343.582031 476.542969 348.199219 484.921875 361.957031 489.582031 C 365.089844 490.664062 368.296875 491.460938 371.574219 491.976562 C 374.847656 492.488281 378.144531 492.707031 381.460938 492.636719 C 384.773438 492.5625 388.058594 492.199219 391.308594 491.542969 C 394.558594 490.886719 397.726562 489.949219 400.808594 488.730469 L 403.183594 487.476562 L 398.703125 485.148438 C 396.039062 484.050781 393.503906 482.707031 391.105469 481.113281 C 388.703125 479.519531 386.480469 477.710938 384.4375 475.679688 C 382.390625 473.652344 380.5625 471.441406 378.953125 469.054688 C 377.339844 466.664062 375.976562 464.140625 374.863281 461.484375 C 372.765625 455.695312 371.734375 449.71875 371.769531 443.5625 C 371.769531 442.484375 371.769531 441.589844 371.769531 440.648438 C 372.679688 445.445312 374.230469 450.027344 376.421875 454.390625 C 378.617188 458.753906 381.367188 462.734375 384.675781 466.324219 C 399.105469 481.5625 417.523438 484.832031 435.136719 475.289062 C 437.644531 474.03125 439.992188 472.523438 442.179688 470.769531 C 444.367188 469.015625 446.347656 467.050781 448.121094 464.875 C 449.894531 462.703125 451.417969 460.367188 452.695312 457.867188 C 453.976562 455.371094 454.976562 452.769531 455.703125 450.058594 L 456.0625 448.175781 Z M 454.089844 448.085938 " fill-opacity="1" fill-rule="nonzero"/><path fill="#c1ad76" d="M 587.320312 273.675781 C 583.800781 268.492188 581.410156 262.832031 580.148438 256.691406 C 578.480469 246.574219 577.617188 236.386719 577.550781 226.128906 C 577.589844 220.75 577.917969 215.386719 578.535156 210.042969 C 573.832031 213.582031 567.332031 225.234375 564.6875 238.855469 C 563.722656 233.878906 562.3125 229.03125 560.457031 224.3125 C 558.605469 219.589844 556.335938 215.078125 553.65625 210.773438 C 550.976562 206.472656 547.925781 202.445312 544.507812 198.699219 C 541.089844 194.953125 537.359375 191.550781 533.320312 188.488281 C 515.394531 175.804688 495.765625 169.398438 476.003906 173.164062 C 478.828125 173.835938 532.019531 184.992188 539.234375 231.957031 C 534.683594 227.660156 530.757812 222.851562 527.453125 217.535156 C 524.148438 212.21875 521.578125 206.570312 519.742188 200.585938 C 511.046875 227.476562 537.21875 258.53125 556.9375 272.289062 C 573.695312 284.074219 581.71875 297.964844 581.71875 315.351562 C 581.695312 318.855469 581.394531 322.335938 580.820312 325.792969 C 577.234375 347.664062 560.65625 365.722656 536.007812 375.625 C 548.824219 364.78125 554.203125 351.964844 554.652344 332.828125 C 549.066406 340.667969 542.375 347.40625 534.574219 353.039062 C 539.023438 345.953125 542.550781 338.429688 545.160156 330.480469 C 547.765625 322.527344 549.378906 314.378906 549.988281 306.03125 L 549.988281 304.375 C 549.808594 300.097656 549.3125 295.863281 548.5 291.660156 C 547.691406 287.460938 546.578125 283.34375 545.15625 279.308594 C 543.738281 275.273438 542.027344 271.363281 540.027344 267.582031 C 538.03125 263.800781 535.765625 260.183594 533.230469 256.738281 L 530.496094 253.242188 C 530.496094 253.242188 530.71875 258.261719 530.71875 259.15625 C 530.71875 265.476562 529.601562 291.0625 514.765625 306.210938 C 518.554688 295.050781 520.511719 283.578125 520.636719 271.792969 C 520.886719 266.503906 520.367188 261.292969 519.078125 256.15625 C 517.789062 251.019531 515.785156 246.179688 513.0625 241.636719 C 501.1875 224.160156 484.027344 216.136719 455.703125 214.75 C 430.070312 213.539062 422.589844 197.765625 422.273438 197.09375 L 420.707031 193.640625 L 419.628906 197.269531 C 418.832031 200.480469 418.460938 203.734375 418.511719 207.039062 C 418.507812 208.980469 418.636719 210.910156 418.894531 212.835938 C 419.148438 214.757812 419.53125 216.65625 420.039062 218.527344 C 420.546875 220.402344 421.175781 222.230469 421.925781 224.019531 C 422.675781 225.808594 423.542969 227.539062 424.523438 229.214844 C 425.5 230.890625 426.589844 232.492188 427.78125 234.019531 C 428.972656 235.550781 430.261719 236.996094 431.648438 238.355469 C 433.03125 239.714844 434.5 240.976562 436.050781 242.140625 C 437.601562 243.304688 439.222656 244.359375 440.917969 245.308594 C 448.261719 249.78125 455.132812 254.890625 461.53125 260.636719 C 447.054688 250.148438 415.820312 238.5 380.867188 265.117188 C 409.773438 260.636719 452.253906 275.109375 459.738281 294.875 C 461.949219 300.304688 463.140625 305.949219 463.324219 311.8125 C 463.386719 313.460938 463.261719 315.097656 462.957031 316.71875 C 462.652344 318.339844 462.167969 319.90625 461.507812 321.421875 C 460.851562 322.933594 460.03125 324.355469 459.050781 325.683594 C 458.070312 327.011719 456.957031 328.210938 455.703125 329.289062 L 454.671875 330.140625 L 455.480469 331.214844 C 457.597656 333.847656 459.21875 336.753906 460.347656 339.933594 C 461.476562 343.113281 462.050781 346.394531 462.066406 349.769531 C 462.023438 352.757812 461.601562 355.691406 460.796875 358.570312 C 459.992188 361.449219 458.832031 364.175781 457.316406 366.753906 C 440.78125 358.28125 428.457031 337.757812 428.457031 329.601562 C 428.433594 329.304688 428.433594 329.003906 428.457031 328.707031 C 428.457031 327.136719 429.445312 326.78125 430.117188 326.644531 C 434.042969 326.59375 437.910156 327.0625 441.710938 328.050781 C 445.515625 329.039062 449.117188 330.511719 452.523438 332.472656 C 450.863281 329.160156 448.722656 326.199219 446.101562 323.585938 C 443.480469 320.972656 440.511719 318.839844 437.195312 317.191406 C 443.199219 316.734375 449.070312 315.601562 454.808594 313.785156 C 449.457031 313.070312 444.304688 311.636719 439.355469 309.484375 C 434.40625 307.328125 429.847656 304.535156 425.679688 301.101562 L 425.320312 300.832031 C 421.710938 297.324219 418.582031 293.433594 415.929688 289.160156 C 413.273438 284.882812 411.175781 280.347656 409.636719 275.558594 C 409.359375 281.539062 409.460938 287.515625 409.949219 293.484375 C 413.132812 325.75 420.570312 350.082031 432.355469 365.945312 C 438.046875 373.832031 442.53125 379.703125 446.070312 383.871094 L 445.800781 384.722656 C 444.589844 389.203125 443.828125 392.027344 432.089844 395.925781 C 420.347656 399.824219 413.671875 407.890625 413.3125 420.4375 L 413.3125 422.050781 L 414.925781 422.050781 C 422.320312 421.246094 442.53125 424.023438 454.359375 437.375 C 462.5625 446.652344 464.890625 459.066406 461.351562 474.210938 C 456.285156 495.8125 434.464844 508.226562 415.550781 509.300781 L 412.191406 509.300781 L 414.65625 511.542969 C 424.289062 520.234375 443.292969 526.597656 463.949219 521.222656 C 487.609375 515.082031 497.246094 493.347656 500.292969 484.296875 C 502.648438 476.492188 503.765625 468.515625 503.652344 460.367188 C 503.714844 454.773438 503.085938 449.261719 501.773438 443.828125 C 508.582031 451.179688 512.617188 463.234375 514.003906 480.53125 C 514.003906 482.816406 514.003906 485.011719 514.003906 487.433594 C 514.144531 494.136719 513.585938 500.78125 512.324219 507.363281 C 511.0625 513.949219 509.128906 520.332031 506.523438 526.507812 C 519.160156 522.25 544.03125 501.996094 547.839844 471.210938 C 548.191406 468.234375 548.371094 465.246094 548.375 462.246094 C 548.375 444.324219 541.207031 428.90625 526.507812 414.296875 C 533.078125 415.703125 539.371094 417.910156 545.382812 420.914062 C 551.394531 423.921875 556.933594 427.628906 562 432.042969 L 565.179688 434.824219 L 564.285156 430.699219 C 560.519531 413.355469 543.761719 401.617188 532.917969 397 C 560.253906 392.519531 595.652344 367.871094 598.878906 327.40625 C 599.195312 323.507812 599.328125 319.832031 599.328125 316.472656 C 599.445312 312.707031 599.273438 308.949219 598.816406 305.210938 C 598.359375 301.46875 597.625 297.78125 596.605469 294.152344 C 595.585938 290.523438 594.300781 286.992188 592.742188 283.5625 C 591.1875 280.128906 589.378906 276.832031 587.320312 273.675781 Z M 587.320312 273.675781 " fill-opacity="1" fill-rule="nonzero"/><path fill="#e4032e" d="M 400.675781 421.066406 C 399.535156 416.488281 398.964844 411.84375 398.972656 407.128906 C 398.945312 399.585938 400.4375 392.355469 403.453125 385.4375 C 401.570312 383.511719 393.996094 377.148438 382.210938 384.140625 C 366.839844 393.101562 360.164062 387.410156 359.804688 387.1875 L 358.773438 386.246094 L 359.671875 385.214844 C 359.671875 385.214844 364.421875 379.703125 375.535156 364.378906 C 387.410156 348.15625 394.757812 322.476562 397.582031 288.195312 C 394.921875 293.859375 391.234375 298.742188 386.515625 302.851562 L 386.15625 303.117188 C 383.324219 305.632812 380.230469 307.761719 376.871094 309.507812 C 373.511719 311.25 369.988281 312.558594 366.304688 313.425781 L 381.449219 315.488281 C 375.328125 318.253906 369.757812 321.871094 364.734375 326.332031 C 369.78125 324.289062 375.027344 323.40625 380.464844 323.6875 C 380.777344 323.753906 381.082031 323.851562 381.375 323.972656 C 381.671875 324.097656 381.953125 324.246094 382.21875 324.421875 C 382.488281 324.597656 382.738281 324.800781 382.96875 325.019531 C 383.195312 325.242188 383.40625 325.484375 383.589844 325.746094 C 383.773438 326.007812 383.933594 326.285156 384.066406 326.574219 C 384.203125 326.867188 384.308594 327.167969 384.386719 327.476562 C 384.460938 327.789062 384.511719 328.101562 384.53125 328.421875 C 384.546875 328.742188 384.539062 329.0625 384.496094 329.378906 C 384.496094 340.894531 365.585938 368.722656 344.433594 372.578125 L 343.71875 372.578125 L 343.226562 372.085938 C 341.890625 370.785156 340.703125 369.367188 339.65625 367.828125 C 338.609375 366.289062 337.726562 364.664062 337.011719 362.945312 C 336.296875 361.226562 335.757812 359.457031 335.402344 357.628906 C 335.042969 355.804688 334.875 353.960938 334.890625 352.097656 C 334.929688 348.640625 335.519531 345.28125 336.652344 342.015625 C 337.785156 338.746094 339.410156 335.746094 341.523438 333.007812 C 343.277344 330.832031 344.84375 328.523438 346.214844 326.085938 C 347.585938 323.648438 348.75 321.113281 349.703125 318.484375 C 350.65625 315.851562 351.386719 313.160156 351.894531 310.410156 C 352.402344 307.660156 352.679688 304.886719 352.726562 302.085938 L 352.726562 301.324219 C 351.25 300.597656 349.867188 299.726562 348.578125 298.710938 C 347.285156 297.695312 346.113281 296.554688 345.058594 295.292969 C 344.003906 294.03125 343.09375 292.675781 342.324219 291.222656 C 341.554688 289.769531 340.945312 288.253906 340.492188 286.671875 C 339.613281 283.933594 339.179688 281.125 339.191406 278.246094 C 339.257812 275.027344 339.800781 271.890625 340.816406 268.835938 C 341.832031 265.777344 343.277344 262.941406 345.152344 260.324219 C 359.714844 239.304688 385.167969 232.898438 420.617188 240.828125 C 415.171875 233.566406 408.929688 227.074219 401.886719 221.347656 C 394.839844 215.625 387.207031 210.839844 378.984375 206.996094 C 359 198.035156 324.671875 200.992188 310.332031 218.691406 C 307.867188 221.910156 305.746094 225.339844 303.964844 228.980469 C 302.179688 232.617188 300.773438 236.398438 299.742188 240.316406 C 298.714844 244.238281 298.078125 248.21875 297.839844 252.265625 C 297.601562 256.3125 297.761719 260.34375 298.324219 264.355469 C 296.378906 262.183594 294.644531 259.855469 293.117188 257.371094 C 291.59375 254.890625 290.300781 252.289062 289.246094 249.570312 C 288.191406 246.855469 287.386719 244.066406 286.832031 241.203125 C 286.28125 238.34375 285.988281 235.453125 285.953125 232.539062 C 285.957031 229.183594 286.242188 225.851562 286.804688 222.546875 C 287.144531 219.902344 287.742188 217.320312 288.59375 214.796875 C 289.445312 212.273438 290.539062 209.859375 291.867188 207.550781 C 293.199219 205.242188 294.742188 203.089844 296.5 201.085938 C 298.257812 199.085938 300.195312 197.277344 302.3125 195.65625 C 280.488281 198.660156 263.546875 215.734375 259.246094 228.417969 C 257.65625 233.15625 256.878906 238.023438 256.917969 243.023438 C 256.871094 246.097656 257.148438 249.144531 257.746094 252.160156 C 258.34375 255.175781 259.25 258.097656 260.460938 260.921875 C 261.671875 263.75 263.167969 266.417969 264.941406 268.929688 C 266.714844 271.441406 268.730469 273.742188 270.988281 275.828125 C 260.769531 271.792969 254.585938 269.644531 240.875 273.902344 C 239.339844 274.402344 237.84375 275 236.386719 275.695312 C 234.933594 276.390625 233.523438 277.171875 232.167969 278.046875 C 230.8125 278.917969 229.515625 279.875 228.28125 280.914062 C 227.046875 281.953125 225.882812 283.066406 224.792969 284.253906 C 223.699219 285.441406 222.6875 286.695312 221.757812 288.011719 C 220.824219 289.328125 219.980469 290.699219 219.222656 292.125 C 218.46875 293.550781 217.804688 295.015625 217.234375 296.527344 C 216.667969 298.035156 216.195312 299.578125 215.824219 301.148438 C 229.714844 294.199219 248.445312 292.632812 260.636719 297.875 C 262.90625 298.765625 265.078125 299.859375 267.148438 301.15625 C 269.214844 302.453125 271.148438 303.929688 272.941406 305.582031 C 274.734375 307.238281 276.359375 309.046875 277.816406 311.003906 C 279.273438 312.964844 280.539062 315.039062 281.609375 317.234375 C 276.5 314.410156 251.089844 297.964844 224.472656 315.980469 C 222.113281 317.773438 219.945312 319.773438 217.960938 321.976562 C 215.980469 324.179688 214.222656 326.546875 212.6875 329.082031 C 211.15625 331.617188 209.871094 334.273438 208.839844 337.050781 C 207.804688 339.828125 207.042969 342.679688 206.546875 345.601562 C 211.96875 342.015625 224.472656 334.53125 233.925781 335.292969 L 236.839844 335.292969 L 234.824219 337.398438 C 232.613281 339.71875 230.710938 342.269531 229.121094 345.050781 C 227.527344 347.832031 226.292969 350.765625 225.414062 353.847656 C 244.414062 346.988281 263.996094 354.203125 269.417969 366.125 L 269.957031 367.335938 L 268.792969 367.960938 C 267.011719 368.738281 265.171875 369.3125 263.265625 369.671875 C 261.359375 370.035156 259.4375 370.183594 257.496094 370.113281 C 255.558594 370.042969 253.648438 369.757812 251.773438 369.261719 C 249.898438 368.761719 248.101562 368.058594 246.386719 367.15625 C 249.386719 379.613281 259.023438 396.328125 294.605469 397.046875 C 291.601562 399.332031 253.554688 407.53125 249.074219 445.039062 C 248.734375 447.777344 248.570312 450.527344 248.582031 453.285156 C 248.582031 487.523438 275.46875 506.074219 288.914062 515.304688 L 296.710938 520.503906 C 311.183594 530.003906 328.796875 541.746094 337.039062 559.9375 C 337.039062 559.265625 337.039062 558.59375 337.039062 557.96875 C 336.871094 554.160156 336.167969 550.453125 334.933594 546.847656 C 333.699219 543.242188 331.980469 539.882812 329.78125 536.769531 C 327.164062 533.054688 324.253906 529.589844 321.042969 526.375 C 326.160156 529.875 330.851562 533.878906 335.113281 538.382812 C 348.332031 552.542969 362 567.914062 395.65625 568.273438 C 399.332031 568.125 402.96875 567.660156 406.5625 566.871094 C 410.15625 566.085938 413.652344 564.988281 417.054688 563.585938 C 420.457031 562.183594 423.710938 560.496094 426.8125 558.519531 C 429.917969 556.546875 432.828125 554.316406 435.539062 551.828125 C 421.289062 555.277344 382.75 561.238281 359.359375 531.617188 L 357.117188 528.75 L 360.703125 529.332031 C 369.539062 530.84375 377.785156 533.9375 385.4375 538.609375 C 377.910156 527.675781 362.671875 515.484375 331.664062 510.109375 C 313.738281 507.015625 281.429688 498.589844 266.417969 476.855469 C 263.757812 473.03125 261.742188 468.894531 260.371094 464.441406 C 259.003906 459.988281 258.34375 455.433594 258.394531 450.777344 C 258.425781 447.023438 258.800781 443.300781 259.515625 439.617188 C 269.957031 404.441406 299.847656 405.203125 299.847656 405.246094 L 304.328125 405.246094 L 300.382812 407.667969 C 298.90625 408.703125 297.496094 409.824219 296.15625 411.03125 C 294.816406 412.238281 293.554688 413.527344 292.371094 414.890625 C 291.1875 416.253906 290.09375 417.683594 289.085938 419.179688 C 288.078125 420.679688 287.167969 422.234375 286.351562 423.84375 C 285.539062 425.453125 284.824219 427.109375 284.210938 428.804688 C 283.597656 430.503906 283.09375 432.230469 282.691406 433.992188 C 282.292969 435.753906 282 437.53125 281.820312 439.324219 C 281.640625 441.121094 281.566406 442.921875 281.609375 444.726562 C 281.640625 447.203125 281.816406 449.667969 282.144531 452.121094 C 286.625 443.15625 291.691406 434.195312 296.84375 430.609375 L 299.085938 429.132812 L 299.085938 438.898438 C 299.164062 445.015625 298.746094 451.09375 297.828125 457.140625 C 304.53125 449.613281 309.863281 441.21875 313.828125 431.953125 C 313.304688 438.085938 313.140625 444.222656 313.335938 450.371094 C 313.335938 467.984375 319.699219 479.457031 339.730469 487.523438 C 338.3125 481.828125 337.671875 476.046875 337.804688 470.179688 C 337.828125 464.492188 338.652344 458.917969 340.265625 453.464844 C 343.628906 470.894531 347.839844 481.160156 362.671875 486.132812 C 365.402344 487.054688 368.183594 487.757812 371.023438 488.242188 C 373.863281 488.730469 376.71875 488.992188 379.601562 489.03125 C 382.480469 489.066406 385.34375 488.882812 388.195312 488.46875 C 391.042969 488.058594 393.84375 487.429688 396.597656 486.582031 C 393.832031 485.410156 391.207031 483.980469 388.722656 482.296875 C 386.234375 480.613281 383.9375 478.707031 381.824219 476.574219 C 379.710938 474.441406 377.824219 472.125 376.160156 469.625 C 374.5 467.121094 373.097656 464.484375 371.949219 461.710938 C 370.011719 456 369.085938 450.128906 369.171875 444.097656 C 369.519531 438.367188 370.460938 432.738281 371.996094 427.203125 C 372.128906 430.554688 372.546875 433.867188 373.25 437.144531 C 373.953125 440.421875 374.925781 443.617188 376.175781 446.726562 C 377.421875 449.839844 378.925781 452.820312 380.683594 455.675781 C 382.441406 458.527344 384.429688 461.210938 386.648438 463.726562 C 400.09375 478.15625 417.03125 481.160156 433.703125 472.152344 C 435.863281 471.03125 437.898438 469.71875 439.808594 468.210938 C 441.722656 466.707031 443.476562 465.035156 445.070312 463.199219 C 446.667969 461.359375 448.078125 459.390625 449.300781 457.285156 C 450.523438 455.183594 451.535156 452.980469 452.34375 450.6875 C 443.46875 451.539062 408.335938 451.539062 400.675781 421.066406 Z M 400.675781 421.066406 " fill-opacity="1" fill-rule="nonzero"/><path fill="#e4032e" d="M 574.726562 226.128906 C 574.726562 223.53125 574.726562 221.648438 574.726562 219.632812 C 571.84375 224.53125 569.601562 229.703125 568.003906 235.15625 C 566.402344 240.609375 565.492188 246.175781 565.269531 251.851562 C 563.074219 240.203125 555.5 207.847656 531.527344 190.820312 C 528.460938 188.519531 525.246094 186.445312 521.886719 184.597656 C 518.527344 182.75 515.054688 181.148438 511.46875 179.792969 C 507.882812 178.4375 504.21875 177.335938 500.476562 176.496094 C 496.738281 175.65625 492.957031 175.082031 489.132812 174.777344 C 506.253906 180.691406 538.429688 196.734375 542.460938 234.867188 L 542.730469 237.46875 L 540.398438 236.257812 C 533.679688 232.71875 525.207031 221.15625 520.953125 212.460938 C 522.429688 232.316406 539.996094 256.960938 558.460938 270.003906 C 575.980469 282.414062 584.40625 296.890625 584.40625 315.261719 C 584.394531 318.964844 584.078125 322.636719 583.464844 326.285156 C 579.253906 351.964844 559.355469 373.070312 524.984375 381.003906 C 526.753906 379.964844 528.460938 378.832031 530.101562 377.597656 C 531.742188 376.363281 533.308594 375.039062 534.792969 373.628906 C 536.28125 372.214844 537.683594 370.71875 539 369.144531 C 540.316406 367.566406 541.535156 365.921875 542.660156 364.207031 C 543.785156 362.488281 544.808594 360.714844 545.730469 358.878906 C 546.648438 357.046875 547.460938 355.164062 548.167969 353.234375 C 548.871094 351.308594 549.460938 349.347656 549.9375 347.351562 C 550.414062 345.355469 550.777344 343.335938 551.019531 341.296875 C 548.332031 344.847656 545.277344 348.042969 541.847656 350.878906 C 538.417969 353.71875 534.710938 356.128906 530.71875 358.101562 L 526.238281 359.761719 L 528.929688 355.953125 C 528.929688 355.953125 546.046875 331.394531 546.851562 305.988281 L 546.851562 304.464844 C 546.574219 296.933594 545.292969 289.578125 543.011719 282.394531 C 540.730469 275.214844 537.527344 268.46875 533.410156 262.160156 C 533.09375 272.601562 530.496094 298.773438 512.167969 312.484375 L 507.957031 315.621094 L 510.015625 310.828125 C 512.527344 304.625 514.433594 298.238281 515.738281 291.675781 C 517.042969 285.113281 517.71875 278.484375 517.769531 271.792969 C 518.003906 266.789062 517.515625 261.859375 516.300781 257 C 515.089844 252.136719 513.203125 247.554688 510.644531 243.25 C 499.351562 226.625 482.816406 218.960938 455.480469 217.660156 C 435 216.675781 425.277344 206.816406 421.558594 201.574219 C 421.261719 203.519531 421.113281 205.476562 421.109375 207.445312 C 421.121094 209.25 421.25 211.050781 421.496094 212.839844 C 421.746094 214.628906 422.113281 216.394531 422.59375 218.136719 C 423.078125 219.875 423.671875 221.578125 424.382812 223.238281 C 425.089844 224.902344 425.90625 226.511719 426.824219 228.066406 C 427.746094 229.621094 428.765625 231.105469 429.886719 232.527344 C 431.003906 233.945312 432.210938 235.285156 433.507812 236.542969 C 434.800781 237.804688 436.175781 238.972656 437.625 240.050781 C 439.074219 241.125 440.589844 242.101562 442.171875 242.980469 C 454.359375 250.6875 471.613281 265.386719 472.152344 273.316406 C 470.941406 271.570312 437.957031 234.375 389.113281 262.113281 C 417.703125 260.90625 454.898438 274.035156 462.382812 293.796875 C 464.707031 299.546875 465.960938 305.523438 466.144531 311.722656 C 466.199219 313.460938 466.070312 315.183594 465.753906 316.890625 C 465.441406 318.597656 464.949219 320.253906 464.28125 321.859375 C 463.613281 323.464844 462.78125 324.976562 461.789062 326.40625 C 460.796875 327.832031 459.664062 329.136719 458.394531 330.320312 C 460.449219 333.082031 462.023438 336.09375 463.117188 339.355469 C 464.214844 342.617188 464.773438 345.96875 464.800781 349.410156 C 464.757812 352.933594 464.242188 356.386719 463.242188 359.765625 C 462.246094 363.144531 460.808594 366.324219 458.929688 369.304688 L 458.257812 370.292969 L 457.183594 369.800781 C 439.257812 361.285156 424.46875 337.625 425.816406 328.214844 C 425.835938 327.671875 425.949219 327.148438 426.152344 326.644531 C 426.355469 326.140625 426.636719 325.683594 426.996094 325.277344 C 427.351562 324.867188 427.769531 324.53125 428.242188 324.265625 C 428.71875 324.003906 429.222656 323.824219 429.757812 323.730469 C 435.195312 323.449219 440.441406 324.332031 445.488281 326.375 C 440.511719 322.074219 435.046875 318.535156 429.085938 315.753906 C 434.195312 315.21875 438.542969 314.230469 443.917969 313.46875 C 440.230469 312.597656 436.703125 311.289062 433.335938 309.542969 C 429.96875 307.800781 426.863281 305.671875 424.023438 303.164062 L 423.707031 302.894531 C 418.980469 298.785156 415.273438 293.902344 412.59375 288.242188 C 415.460938 322.433594 422.8125 348.109375 434.640625 364.421875 C 440.601562 372.578125 445.171875 378.628906 448.757812 383.019531 L 449.207031 383.601562 L 448.578125 385.796875 C 447.101562 391.265625 445.578125 394.761719 433.027344 398.972656 C 431.878906 399.238281 430.753906 399.597656 429.660156 400.050781 C 428.570312 400.5 427.519531 401.039062 426.515625 401.664062 C 425.511719 402.289062 424.566406 402.992188 423.679688 403.773438 C 422.792969 404.554688 421.972656 405.40625 421.226562 406.320312 C 420.480469 407.238281 419.8125 408.210938 419.226562 409.238281 C 418.640625 410.261719 418.140625 411.332031 417.730469 412.441406 C 417.320312 413.550781 417.003906 414.683594 416.78125 415.847656 C 416.558594 417.007812 416.433594 418.179688 416.402344 419.363281 C 425.367188 419.046875 444.679688 422.453125 456.421875 435.71875 C 457.964844 437.472656 459.335938 439.355469 460.527344 441.363281 C 461.71875 443.375 462.714844 445.476562 463.511719 447.675781 C 464.308594 449.871094 464.894531 452.125 465.269531 454.429688 C 465.644531 456.738281 465.804688 459.058594 465.742188 461.394531 C 465.707031 465.945312 465.140625 470.425781 464.039062 474.839844 C 459.019531 496.441406 438.316406 509.257812 419.226562 511.632812 C 420.816406 512.707031 422.457031 513.695312 424.15625 514.589844 C 425.851562 515.488281 427.59375 516.289062 429.375 516.996094 C 431.160156 517.707031 432.976562 518.3125 434.828125 518.824219 C 436.679688 519.332031 438.550781 519.738281 440.445312 520.042969 C 442.339844 520.347656 444.246094 520.550781 446.164062 520.644531 C 448.078125 520.742188 449.996094 520.734375 451.914062 520.625 C 453.828125 520.511719 455.730469 520.296875 457.625 519.976562 C 459.515625 519.65625 461.386719 519.234375 463.234375 518.710938 C 485.640625 512.886719 494.601562 492.226562 497.648438 483.625 C 501.546875 472.015625 502.535156 448.757812 496.707031 437.289062 C 509.390625 443.652344 515.082031 459.199219 516.785156 480.53125 C 516.785156 482.863281 517.050781 485.238281 517.050781 487.566406 C 516.992188 499.054688 515.320312 510.300781 512.035156 521.3125 C 521.757812 515.394531 542.191406 496.035156 545.238281 471.074219 C 545.59375 468.25 545.773438 465.410156 545.777344 462.5625 C 545.777344 444.054688 537.800781 428.101562 521.128906 413 L 517.1875 409.636719 L 522.296875 410.714844 C 529.082031 411.859375 535.644531 413.777344 541.984375 416.464844 C 548.320312 419.152344 554.261719 422.539062 559.804688 426.621094 C 553.304688 409.683594 530.632812 397.761719 524.3125 395.65625 C 543.492188 394.222656 592.070312 372.445312 596.011719 326.957031 C 596.324219 323.015625 596.503906 319.386719 596.503906 316.023438 C 596.601562 312.425781 596.421875 308.839844 595.972656 305.269531 C 595.519531 301.695312 594.800781 298.179688 593.8125 294.71875 C 592.824219 291.257812 591.582031 287.890625 590.078125 284.617188 C 588.578125 281.34375 586.835938 278.207031 584.855469 275.199219 C 581.179688 269.71875 578.683594 263.742188 577.371094 257.273438 C 575.660156 246.964844 574.78125 236.582031 574.726562 226.128906 Z M 574.726562 226.128906 " fill-opacity="1" fill-rule="nonzero"/></svg>