<svg xmlns="http://www.w3.org/2000/svg" xmlns:xlink="http://www.w3.org/1999/xlink" width="1080" zoomAndPan="magnify" viewBox="0 0 810 809.999993" height="1080" preserveAspectRatio="xMidYMid meet" version="1.0"><path fill="#ffffff" d="M 404.972656 5.03125 C 409.363281 5.03125 413.492188 25.492188 437.683594 54.734375 C 456.695312 77.742188 484.53125 83.449219 485.542969 94.25 C 493.09375 92.40625 501.566406 88.675781 516.277344 77.347656 C 538.933594 59.785156 546.660156 39.058594 551.050781 41.078125 C 555.441406 43.097656 558.644531 77.390625 575.726562 97.632812 C 584.632812 107.519531 594.878906 115.746094 606.460938 122.304688 C 613.527344 126.695312 619.632812 128.890625 617.566406 131.394531 C 614.144531 135.125 579.238281 138.464844 559.085938 159.625 C 547.890625 171.394531 544.507812 191.371094 544.507812 191.371094 C 552.058594 191.855469 591.355469 194.882812 610.367188 196.902344 C 623.539062 198.265625 664.722656 202.039062 666.480469 203.445312 C 668.234375 204.851562 667.3125 205.070312 667.445312 228.953125 C 667.445312 229.21875 679.914062 217.890625 702.570312 222.9375 C 748.234375 236.375 755.785156 282.695312 753.765625 286.078125 C 752.273438 288.578125 734.140625 283.574219 732.121094 292.136719 C 730.800781 297.710938 738.96875 304.824219 743.535156 325.371094 C 744.84375 331.273438 745.757812 337.238281 746.277344 343.261719 C 746.792969 349.285156 746.910156 355.316406 746.628906 361.355469 C 746.347656 367.394531 745.667969 373.390625 744.59375 379.339844 C 743.515625 385.289062 742.050781 391.140625 740.199219 396.894531 C 753.632812 393.910156 764.304688 410.902344 760.351562 412.789062 C 758.242188 413.75 756.242188 414.898438 754.351562 416.242188 C 752.464844 417.582031 750.722656 419.09375 749.121094 420.773438 C 747.523438 422.449219 746.097656 424.261719 744.847656 426.214844 C 743.597656 428.167969 742.546875 430.21875 741.691406 432.371094 C 735.148438 446.464844 739.628906 457.707031 733.128906 490.109375 C 731.109375 500.207031 725.3125 520.097656 713.984375 533.445312 C 719.035156 535.992188 722.242188 545.5625 722.765625 553.113281 C 723.25 565.1875 720.441406 575.8125 717.234375 577.789062 C 714.03125 579.765625 705.511719 574.890625 694.710938 587.011719 L 684.128906 598.863281 C 680.089844 603.253906 683.121094 604.921875 685.316406 604.484375 C 717.675781 598.292969 741.164062 588.195312 744.28125 590.304688 C 746.695312 591.925781 745.511719 594.035156 714.46875 660.070312 C 762.152344 701.914062 767.15625 705.292969 766.367188 708.367188 C 765.972656 710.035156 764.214844 711.175781 754.25 713.898438 C 688.082031 732.074219 563.914062 746.300781 543.894531 732.296875 C 538.84375 728.78125 539.503906 724.347656 536.515625 724.261719 C 533.53125 724.171875 524.398438 735.984375 480.757812 765.226562 C 456.667969 780.824219 431.378906 794.140625 404.886719 805.179688 C 378.394531 794.140625 353.105469 780.824219 329.015625 765.226562 C 285.375 735.984375 275.933594 724.171875 273.253906 724.261719 C 270.578125 724.347656 270.929688 728.652344 265.878906 732.296875 C 245.859375 746.300781 121.691406 732.074219 55.523438 713.898438 C 45.558594 711.175781 43.800781 710.035156 43.40625 708.367188 C 42.792969 705.46875 47.796875 702.089844 95.304688 660.070312 C 64.261719 594.210938 63.078125 591.925781 65.492188 590.304688 C 68.609375 588.195312 92.097656 598.292969 124.457031 604.484375 C 126.652344 604.921875 129.683594 603.386719 125.644531 598.863281 L 115.191406 586.921875 C 104.390625 574.804688 95.699219 579.546875 92.667969 577.703125 C 89.640625 575.859375 86.652344 565.101562 87.136719 553.027344 C 87.445312 545.476562 90.648438 535.902344 95.699219 533.355469 C 84.371094 520.183594 78.574219 500.121094 76.554688 490.019531 C 70.058594 457.617188 74.535156 446.378906 67.992188 432.285156 C 67.136719 430.128906 66.085938 428.078125 64.835938 426.128906 C 63.585938 424.175781 62.160156 422.363281 60.5625 420.683594 C 58.964844 419.007812 57.21875 417.496094 55.332031 416.152344 C 53.441406 414.8125 51.441406 413.660156 49.332031 412.703125 C 45.382812 410.8125 56.050781 393.824219 69.488281 396.808594 C 67.632812 391.054688 66.167969 385.199219 65.09375 379.25 C 64.015625 373.300781 63.335938 367.308594 63.054688 361.269531 C 62.773438 355.230469 62.890625 349.199219 63.410156 343.175781 C 63.925781 337.152344 64.839844 331.1875 66.148438 325.285156 C 70.539062 304.738281 78.882812 297.625 77.566406 292.046875 C 75.546875 283.265625 57.414062 288.492188 55.917969 285.988281 C 53.898438 282.609375 61.453125 236.285156 107.113281 222.851562 C 129.945312 217.800781 142.238281 229.128906 142.238281 228.867188 C 142.238281 204.980469 141.800781 204.542969 143.203125 203.355469 C 144.609375 202.171875 186.277344 198.175781 199.316406 196.816406 C 218.460938 194.796875 257.757812 191.765625 265.175781 191.28125 C 265.175781 191.28125 261.796875 171.304688 250.601562 159.539062 C 230.445312 138.375 195.542969 135.039062 192.117188 131.308594 C 189.878906 128.804688 196.15625 126.917969 203.226562 122.21875 C 214.804688 115.65625 225.050781 107.433594 233.960938 97.542969 C 251.257812 77.390625 254.289062 43.449219 258.632812 41.125 C 262.980469 38.796875 270.753906 59.914062 293.410156 77.390625 C 308.117188 88.71875 316.589844 92.449219 324.144531 94.292969 C 325.152344 83.449219 352.988281 77.742188 372 54.777344 C 396.457031 25.492188 400.582031 5.03125 404.972656 5.03125 Z M 404.972656 5.03125 " fill-opacity="1" fill-rule="nonzero"/><path fill="#59358c" d="M 404.972656 787.882812 C 427.886719 778.359375 449.804688 766.933594 470.738281 753.613281 C 491.667969 740.289062 511.296875 725.265625 529.625 708.542969 C 544.027344 695.132812 557.316406 680.703125 569.492188 665.242188 C 581.667969 649.785156 592.585938 633.484375 602.246094 616.339844 L 603.695312 616.339844 C 649.53125 622.882812 672.363281 589.996094 683.734375 576.824219 C 689.488281 570.019531 693.878906 565.363281 701.867188 564.882812 C 704.898438 564.882812 704.855469 564.882812 705.953125 564.308594 C 707.050781 563.738281 706.785156 557.988281 706.785156 555.96875 C 706.824219 550.816406 705.742188 545.914062 703.535156 541.257812 C 703.121094 540.363281 702.601562 539.527344 701.976562 538.761719 C 701.355469 537.992188 700.644531 537.3125 699.851562 536.722656 C 699.058594 536.132812 698.203125 535.648438 697.289062 535.273438 C 696.375 534.894531 695.425781 534.636719 694.449219 534.5 C 697.789062 530.773438 700.839844 526.824219 703.601562 522.648438 C 706.359375 518.476562 708.800781 514.121094 710.917969 509.589844 C 713.039062 505.054688 714.816406 500.390625 716.25 495.597656 C 717.683594 490.800781 718.757812 485.929688 719.472656 480.976562 C 721.207031 471.765625 722.40625 462.488281 723.074219 453.140625 C 723.0625 445.761719 724.042969 438.515625 726.015625 431.40625 C 727.175781 428.09375 728.773438 425.003906 730.800781 422.140625 C 732.867188 419.15625 738.792969 412.746094 738.792969 412.746094 C 740.945312 410.417969 738.179688 408.355469 729.75 408.355469 C 727.519531 408.4375 725.324219 408.761719 723.164062 409.320312 C 729.144531 392.027344 732.320312 374.230469 732.691406 355.929688 C 732.871094 347.125 732.023438 338.421875 730.15625 329.816406 C 728.285156 321.207031 725.441406 312.9375 721.625 305 C 719.386719 300.609375 715.347656 289.851562 718.375 283.707031 C 723.46875 273.300781 734.535156 276.109375 736.246094 273.828125 C 737.257812 272.421875 734.796875 267.066406 731.199219 261.402344 C 726.324219 253.71875 713.152344 235.453125 688.609375 235.363281 C 671.308594 235.363281 657.128906 249.855469 651.550781 270.796875 C 650.722656 273.972656 650.140625 277.191406 649.796875 280.457031 L 649.796875 215.125 L 639.917969 214.027344 C 639.125 214.027344 587.84375 208.320312 524.75 204.058594 C 528.921875 169.199219 545.386719 144.523438 571.554688 133.808594 C 577.480469 131.394531 582.136719 129.945312 582.136719 129.945312 C 586.527344 128.496094 588.457031 128.144531 588.238281 126.34375 C 588.238281 125.378906 586.65625 124.238281 582.664062 121.648438 C 579.101562 119.433594 575.722656 116.976562 572.519531 114.269531 C 568.632812 111.019531 565.148438 107.382812 562.066406 103.363281 C 558.984375 99.339844 556.382812 95.03125 554.253906 90.429688 C 551.390625 84.746094 549.238281 78.804688 547.800781 72.605469 C 547.054688 69.707031 546.617188 67.90625 545.472656 68.214844 C 544.332031 68.519531 540.117188 75.679688 529.710938 84.460938 C 520.480469 92.613281 510.105469 98.863281 498.582031 103.207031 L 498.144531 103.207031 L 493.3125 104.65625 C 490.285156 105.402344 488.617188 105.839844 488.617188 107.203125 C 488.617188 108.5625 489.363281 109.265625 490.636719 110.890625 C 492.640625 113.445312 494.410156 116.152344 495.949219 119.011719 C 497.769531 122.726562 499.085938 126.609375 499.894531 130.667969 C 500.707031 134.722656 500.984375 138.8125 500.734375 142.941406 C 490.285156 129.332031 471.578125 118.355469 448.265625 112.207031 C 450.855469 110.277344 453.402344 108.652344 455.640625 107.289062 C 463.105469 102.898438 469.910156 100.089844 470.4375 98.507812 C 470.5625 97.96875 470.445312 97.484375 470.085938 97.058594 C 468.789062 95.875 467.324219 94.953125 465.695312 94.292969 L 458.277344 89.902344 C 422.535156 66.5 409.980469 41.605469 409.714844 41.34375 C 406.90625 36.164062 405.984375 33.878906 404.84375 33.792969 C 403.699219 33.703125 402.777344 36.164062 399.96875 41.34375 C 399.96875 41.5625 387.148438 66.5 351.410156 89.902344 L 343.988281 94.292969 C 342.359375 94.953125 340.894531 95.875 339.597656 97.058594 C 339.238281 97.484375 339.121094 97.96875 339.246094 98.507812 C 339.773438 100.089844 346.578125 102.898438 354.042969 107.289062 C 356.28125 108.652344 358.828125 110.277344 361.417969 112.207031 C 338.105469 118.441406 319.402344 129.417969 308.730469 142.941406 C 308.480469 138.8125 308.757812 134.722656 309.570312 130.667969 C 310.378906 126.609375 311.695312 122.726562 313.515625 119.011719 C 315.054688 116.152344 316.824219 113.445312 318.828125 110.890625 C 320.101562 109.265625 320.894531 108.257812 320.847656 107.203125 C 320.804688 106.148438 319.179688 105.402344 316.152344 104.65625 L 311.320312 103.207031 L 310.882812 103.207031 C 299.535156 98.8125 289.316406 92.5625 280.238281 84.460938 C 269.832031 75.679688 265.835938 68.082031 264.429688 67.996094 C 263.023438 67.90625 262.847656 69.707031 262.101562 72.386719 C 260.695312 78.660156 258.558594 84.675781 255.691406 90.429688 C 253.570312 95.019531 250.972656 99.320312 247.898438 103.335938 C 244.824219 107.351562 241.347656 110.980469 237.472656 114.226562 C 234.269531 116.929688 230.886719 119.390625 227.328125 121.605469 C 223.332031 124.195312 221.839844 125.335938 221.753906 126.300781 C 221.535156 128.101562 223.554688 128.453125 227.855469 129.902344 C 227.855469 129.902344 232.511719 131.351562 238.4375 133.765625 C 264.78125 144.523438 281.070312 169.199219 285.242188 204.015625 C 222.148438 208.40625 171.085938 213.894531 170.074219 213.984375 L 160.195312 215.082031 L 160.195312 280.675781 C 159.851562 277.414062 159.269531 274.191406 158.441406 271.015625 C 152.863281 250.074219 138.683594 235.496094 121.382812 235.585938 C 96.839844 235.585938 83.667969 253.9375 78.792969 261.621094 C 75.195312 267.285156 72.734375 272.640625 73.746094 274.046875 C 75.457031 276.328125 86.523438 273.519531 91.613281 283.925781 C 94.644531 290.070312 90.605469 300.609375 88.367188 305.21875 C 84.550781 313.15625 81.707031 321.429688 79.835938 330.035156 C 77.96875 338.640625 77.121094 347.347656 77.300781 356.152344 C 77.675781 374.386719 80.835938 392.125 86.785156 409.367188 C 84.625 408.804688 82.429688 408.480469 80.199219 408.398438 C 71.769531 408.398438 69.003906 410.417969 71.15625 412.789062 C 71.15625 412.789062 77.082031 419.199219 79.144531 422.1875 C 81.175781 425.050781 82.769531 428.136719 83.929688 431.449219 C 85.902344 438.558594 86.882812 445.804688 86.875 453.183594 C 87.539062 462.53125 88.742188 471.808594 90.472656 481.019531 C 91.191406 485.972656 92.265625 490.847656 93.699219 495.640625 C 95.132812 500.433594 96.910156 505.097656 99.027344 509.632812 C 101.148438 514.164062 103.585938 518.519531 106.347656 522.691406 C 109.109375 526.867188 112.160156 530.816406 115.5 534.542969 C 114.515625 534.6875 113.5625 534.953125 112.640625 535.339844 C 111.722656 535.726562 110.867188 536.222656 110.070312 536.824219 C 109.277344 537.425781 108.570312 538.117188 107.949219 538.898438 C 107.332031 539.679688 106.816406 540.523438 106.410156 541.433594 C 104.203125 546.089844 103.121094 550.992188 103.164062 556.144531 C 103.164062 558.164062 103.164062 563.828125 103.996094 564.484375 C 104.832031 565.144531 105.050781 564.882812 108.078125 565.058594 C 116.070312 565.539062 120.460938 570.195312 126.214844 577 C 137.585938 590.433594 160.417969 623.1875 206.253906 616.515625 L 207.703125 616.515625 C 217.363281 633.660156 228.28125 649.960938 240.457031 665.417969 C 252.632812 680.875 265.921875 695.308594 280.324219 708.71875 C 298.65625 725.410156 318.289062 740.40625 339.222656 753.699219 C 360.152344 766.988281 382.070312 778.382812 404.972656 787.882812 Z M 160.152344 293.410156 L 160.152344 335.03125 C 158.710938 333.21875 157.011719 331.691406 155.054688 330.449219 C 153.097656 329.207031 150.992188 328.320312 148.738281 327.789062 L 148.386719 327.789062 C 151.539062 322.535156 154.105469 317.015625 156.089844 311.222656 C 158.070312 305.425781 159.425781 299.488281 160.152344 293.410156 Z M 143.90625 402.910156 C 145.398438 401.460938 147.816406 403.878906 148.914062 409.980469 C 149.441406 412.703125 151.195312 412.4375 153.304688 410.242188 C 155.835938 407.816406 158.046875 405.121094 159.933594 402.164062 L 159.933594 428.507812 C 159.933594 429.871094 159.933594 431.1875 159.933594 432.546875 C 150.539062 422.757812 141.535156 406.246094 143.90625 402.910156 Z M 661.5625 327.742188 L 661.210938 327.742188 C 658.957031 328.277344 656.847656 329.164062 654.894531 330.40625 C 652.9375 331.644531 651.238281 333.175781 649.796875 334.988281 L 649.796875 293.410156 C 650.523438 299.480469 651.882812 305.410156 653.863281 311.199219 C 655.847656 316.984375 658.414062 322.5 661.5625 327.742188 Z M 649.75 432.328125 C 649.75 430.96875 649.75 429.648438 649.75 428.289062 L 649.75 401.945312 C 651.636719 404.902344 653.847656 407.597656 656.382812 410.023438 C 658.707031 412.21875 660.464844 412.484375 660.773438 409.761719 C 661.871094 403.65625 664.285156 401.242188 665.777344 402.691406 C 668.410156 406.246094 659.628906 422.757812 649.75 432.328125 Z M 649.75 432.328125 " fill-opacity="1" fill-rule="nonzero"/><path fill="#c09949" d="M 404.972656 60.136719 C 410.351562 67.703125 416.441406 74.640625 423.246094 80.957031 C 430.046875 87.273438 437.421875 92.832031 445.367188 97.632812 C 433.996094 104.832031 420.472656 115.851562 417.75 129.023438 C 416.894531 133.046875 416.441406 137.117188 416.390625 141.230469 C 416.234375 143.328125 416.328125 145.417969 416.671875 147.492188 C 417.015625 149.570312 417.597656 151.578125 418.425781 153.511719 C 419.25 155.449219 420.292969 157.261719 421.550781 158.949219 C 422.808594 160.636719 424.25 162.148438 425.875 163.492188 C 427.25 164.507812 428.71875 165.363281 430.28125 166.058594 C 431.84375 166.753906 433.464844 167.269531 435.140625 167.605469 C 436.816406 167.945312 438.511719 168.09375 440.222656 168.058594 C 441.933594 168.023438 443.617188 167.804688 445.28125 167.398438 C 453.492188 165.378906 461.832031 157.429688 470.789062 142.984375 L 471.667969 141.40625 C 471.667969 142.109375 471.886719 142.679688 471.886719 142.722656 C 476.277344 168.757812 485.058594 174.203125 491.910156 174.160156 C 498.757812 174.117188 503.632812 170.207031 507.671875 162.832031 C 509.71875 158.746094 511.25 154.476562 512.269531 150.023438 C 513.285156 145.566406 513.757812 141.058594 513.6875 136.488281 C 513.792969 132.628906 513.414062 128.820312 512.550781 125.054688 C 511.6875 121.292969 510.371094 117.699219 508.59375 114.269531 C 520.339844 109.257812 530.921875 102.4375 540.335938 93.8125 C 542.613281 99.492188 545.613281 104.761719 549.34375 109.617188 C 553.070312 114.46875 557.386719 118.730469 562.289062 122.394531 C 543.894531 129.375 514.738281 156.15625 510.042969 203.007812 C 475.707031 200.898438 438.519531 199.316406 404.972656 199.316406 C 371.429688 199.316406 334.242188 200.898438 299.90625 203.007812 C 295.03125 156.027344 266.054688 129.242188 247.65625 122.570312 C 252.5625 118.90625 256.875 114.644531 260.605469 109.792969 C 264.332031 104.9375 267.335938 99.667969 269.609375 93.988281 C 279.027344 102.613281 289.609375 109.433594 301.355469 114.445312 C 299.578125 117.875 298.257812 121.46875 297.394531 125.230469 C 296.535156 128.992188 296.15625 132.804688 296.261719 136.664062 C 296.191406 141.230469 296.664062 145.742188 297.679688 150.199219 C 298.695312 154.652344 300.230469 158.921875 302.277344 163.007812 C 306.316406 170.382812 311.761719 174.335938 318.039062 174.335938 C 324.316406 174.335938 333.671875 168.933594 338.0625 142.898438 C 338.0625 142.898438 338.0625 142.285156 338.0625 141.582031 L 338.9375 143.160156 C 347.71875 157.605469 356.238281 165.554688 364.449219 167.574219 C 366.109375 167.980469 367.796875 168.199219 369.507812 168.234375 C 371.214844 168.269531 372.910156 168.121094 374.585938 167.78125 C 376.265625 167.445312 377.882812 166.929688 379.449219 166.234375 C 381.011719 165.539062 382.480469 164.683594 383.855469 163.664062 C 385.488281 162.316406 386.941406 160.789062 388.207031 159.089844 C 389.472656 157.390625 390.519531 155.5625 391.347656 153.609375 C 392.171875 151.65625 392.753906 149.632812 393.089844 147.539062 C 393.425781 145.445312 393.507812 143.34375 393.339844 141.230469 C 393.285156 137.117188 392.832031 133.046875 391.976562 129.023438 C 389.253906 115.851562 375.730469 104.832031 364.359375 97.632812 C 372.34375 92.84375 379.757812 87.292969 386.597656 80.976562 C 393.441406 74.660156 399.566406 67.714844 404.972656 60.136719 Z M 404.972656 60.136719 " fill-opacity="1" fill-rule="nonzero"/><path fill="#59358c" d="M 347.148438 188.164062 C 347.175781 188.746094 347.339844 189.289062 347.632812 189.789062 C 347.878906 190.117188 348.191406 190.359375 348.566406 190.523438 C 348.941406 190.6875 349.332031 190.75 349.738281 190.710938 C 350.027344 190.746094 350.308594 190.714844 350.585938 190.625 C 350.859375 190.53125 351.105469 190.386719 351.316406 190.1875 C 351.527344 189.988281 351.6875 189.757812 351.792969 189.488281 C 351.902344 189.21875 351.949219 188.9375 351.933594 188.648438 C 351.941406 188.34375 351.875 188.050781 351.738281 187.777344 C 351.597656 187.507812 351.398438 187.285156 351.144531 187.113281 C 350.257812 186.777344 349.351562 186.515625 348.421875 186.320312 C 347.359375 186.1875 346.394531 185.804688 345.523438 185.179688 C 344.898438 184.628906 344.425781 183.96875 344.105469 183.195312 C 343.789062 182.425781 343.664062 181.621094 343.726562 180.789062 C 343.699219 180.40625 343.714844 180.027344 343.769531 179.648438 C 343.824219 179.273438 343.917969 178.902344 344.050781 178.542969 C 344.183594 178.1875 344.351562 177.84375 344.554688 177.523438 C 344.761719 177.199219 344.996094 176.902344 345.265625 176.628906 C 345.53125 176.355469 345.824219 176.113281 346.140625 175.902344 C 346.460938 175.6875 346.796875 175.511719 347.152344 175.371094 C 347.507812 175.230469 347.875 175.128906 348.25 175.066406 C 348.628906 175 349.007812 174.976562 349.390625 174.992188 C 349.875 174.9375 350.363281 174.945312 350.847656 175.019531 C 351.332031 175.097656 351.796875 175.238281 352.242188 175.445312 C 352.6875 175.648438 353.097656 175.910156 353.46875 176.230469 C 353.84375 176.550781 354.164062 176.914062 354.4375 177.320312 C 354.917969 178.140625 355.222656 179.015625 355.359375 179.957031 L 351.585938 180.613281 C 351.320312 179.164062 350.660156 178.59375 349.300781 178.636719 C 349.054688 178.632812 348.816406 178.675781 348.589844 178.765625 C 348.359375 178.859375 348.15625 178.992188 347.984375 179.164062 C 347.808594 179.339844 347.675781 179.539062 347.585938 179.769531 C 347.492188 180 347.449219 180.234375 347.457031 180.480469 C 347.445312 180.773438 347.519531 181.039062 347.667969 181.289062 C 347.820312 181.535156 348.027344 181.71875 348.292969 181.84375 C 349.101562 182.152344 349.9375 182.371094 350.792969 182.5 C 351.855469 182.640625 352.820312 183.019531 353.691406 183.644531 C 354.375 184.160156 354.898438 184.804688 355.253906 185.582031 C 355.613281 186.363281 355.765625 187.179688 355.710938 188.035156 C 355.804688 189.550781 355.410156 190.925781 354.527344 192.160156 C 353.9375 192.839844 353.230469 193.359375 352.40625 193.71875 C 351.585938 194.082031 350.726562 194.25 349.828125 194.226562 C 348.398438 194.339844 347.066406 194.035156 345.832031 193.300781 C 344.832031 192.640625 344.175781 191.734375 343.855469 190.582031 C 343.636719 189.90625 343.492188 189.21875 343.417969 188.515625 Z M 347.148438 188.164062 " fill-opacity="1" fill-rule="nonzero"/><path fill="#59358c" d="M 361.289062 175.167969 C 361.289062 176.089844 361.289062 176.835938 361.289062 178.460938 L 361.289062 190.273438 C 361.296875 191.375 361.367188 192.472656 361.507812 193.566406 L 357.554688 193.566406 C 357.632812 192.484375 357.632812 191.398438 357.554688 190.316406 L 357.554688 178.460938 C 357.554688 176.835938 357.554688 176.179688 357.554688 175.214844 Z M 361.289062 175.167969 " fill-opacity="1" fill-rule="nonzero"/><path fill="#59358c" d="M 372.351562 183.820312 C 372.878906 184.742188 373.230469 185.445312 373.710938 186.367188 C 373.640625 185.28125 373.640625 184.199219 373.710938 183.117188 L 373.710938 178.109375 C 373.796875 177.011719 373.796875 175.914062 373.710938 174.816406 L 377.578125 174.816406 C 377.503906 175.929688 377.503906 177.042969 377.578125 178.15625 L 377.839844 189.789062 C 377.785156 190.886719 377.785156 191.984375 377.839844 193.082031 L 373.933594 193.082031 C 373.496094 192.152344 373.015625 191.242188 372.484375 190.359375 L 369.058594 184.433594 C 368.542969 183.589844 368.089844 182.710938 367.699219 181.800781 C 367.699219 182.765625 367.699219 183.996094 367.699219 185.046875 L 367.699219 189.964844 C 367.636719 191.105469 367.636719 192.25 367.699219 193.390625 L 363.878906 193.390625 C 363.878906 192.554688 363.878906 191.589844 363.878906 189.964844 L 363.613281 178.417969 C 363.6875 177.335938 363.6875 176.253906 363.613281 175.167969 L 367.523438 175.167969 C 367.886719 176.105469 368.339844 177 368.882812 177.847656 Z M 372.351562 183.820312 " fill-opacity="1" fill-rule="nonzero"/><path fill="#59358c" d="M 389.167969 180.261719 C 388.816406 178.199219 387.894531 177.1875 386.359375 177.1875 C 384.820312 177.1875 382.976562 179.339844 382.976562 183.074219 C 382.976562 186.804688 384.292969 188.910156 386.445312 188.910156 C 386.9375 188.921875 387.390625 188.800781 387.8125 188.546875 C 388.234375 188.292969 388.550781 187.945312 388.773438 187.507812 C 389.109375 186.90625 389.285156 186.261719 389.300781 185.574219 L 392.988281 186.277344 C 392.796875 187.765625 392.300781 189.140625 391.496094 190.40625 C 390.933594 191.199219 390.21875 191.8125 389.34375 192.242188 C 388.472656 192.667969 387.550781 192.863281 386.578125 192.820312 C 385.558594 192.855469 384.589844 192.65625 383.667969 192.222656 C 382.746094 191.789062 381.972656 191.167969 381.351562 190.359375 C 380.625 189.289062 380.082031 188.128906 379.730469 186.882812 C 379.375 185.636719 379.230469 184.367188 379.289062 183.074219 C 379.222656 181.75 379.375 180.453125 379.742188 179.183594 C 380.113281 177.910156 380.675781 176.734375 381.441406 175.652344 C 382.058594 174.898438 382.8125 174.316406 383.699219 173.910156 C 384.582031 173.5 385.515625 173.304688 386.488281 173.324219 C 387.019531 173.304688 387.539062 173.359375 388.054688 173.484375 C 388.566406 173.609375 389.054688 173.800781 389.515625 174.0625 C 389.976562 174.320312 390.394531 174.636719 390.765625 175.011719 C 391.140625 175.386719 391.457031 175.804688 391.714844 176.265625 C 392.28125 177.21875 392.648438 178.246094 392.8125 179.339844 Z M 389.167969 180.261719 " fill-opacity="1" fill-rule="nonzero"/><path fill="#59358c" d="M 405.5 192.601562 C 404.535156 192.507812 403.570312 192.507812 402.601562 192.601562 L 397.027344 192.601562 C 395.710938 192.601562 395.183594 192.601562 394.4375 192.601562 C 394.515625 191.503906 394.515625 190.40625 394.4375 189.308594 L 394.4375 176.96875 C 394.507812 175.886719 394.507812 174.804688 394.4375 173.71875 L 402.648438 173.71875 C 403.523438 173.773438 404.402344 173.773438 405.28125 173.71875 L 405.28125 178.109375 C 404.402344 178.058594 403.523438 178.058594 402.648438 178.109375 L 398.257812 178.109375 L 398.257812 181.054688 L 402.078125 181.054688 C 402.953125 181.121094 403.832031 181.121094 404.710938 181.054688 L 404.710938 185.445312 C 403.832031 185.367188 402.953125 185.367188 402.078125 185.445312 L 398.257812 185.445312 L 398.257812 189.21875 L 402.648438 189.21875 C 403.597656 189.304688 404.550781 189.304688 405.5 189.21875 Z M 405.5 192.601562 " fill-opacity="1" fill-rule="nonzero"/><path fill="#59358c" d="M 416.433594 173.632812 C 417.152344 173.710938 417.867188 173.710938 418.585938 173.632812 L 420.824219 173.632812 C 421.542969 173.6875 422.257812 173.6875 422.976562 173.632812 C 422.976562 174.816406 422.976562 175.785156 422.976562 177.234375 L 422.976562 189 C 422.90625 190.125 422.90625 191.253906 422.976562 192.378906 L 419.113281 192.378906 C 419.1875 191.253906 419.1875 190.125 419.113281 189 L 419.113281 177.585938 L 416.214844 177.585938 Z M 416.433594 173.632812 " fill-opacity="1" fill-rule="nonzero"/><path fill="#59358c" d="M 430.042969 187.726562 C 430.148438 188.066406 430.296875 188.390625 430.484375 188.691406 C 430.894531 189.261719 431.449219 189.539062 432.152344 189.527344 C 432.652344 189.515625 433.105469 189.367188 433.511719 189.078125 C 433.921875 188.789062 434.214844 188.414062 434.390625 187.945312 C 434.8125 186.964844 435.015625 185.941406 435.003906 184.871094 C 434.578125 185.402344 434.054688 185.808594 433.4375 186.09375 C 432.820312 186.378906 432.171875 186.511719 431.492188 186.496094 C 428.332031 186.496094 426.269531 184.082031 426.269531 180.304688 C 426.21875 179.886719 426.214844 179.46875 426.253906 179.050781 C 426.292969 178.632812 426.371094 178.222656 426.496094 177.820312 C 426.621094 177.417969 426.789062 177.03125 426.992188 176.664062 C 427.199219 176.296875 427.441406 175.957031 427.71875 175.640625 C 427.996094 175.324219 428.300781 175.039062 428.636719 174.785156 C 428.976562 174.535156 429.335938 174.320312 429.71875 174.144531 C 430.097656 173.96875 430.496094 173.832031 430.90625 173.738281 C 431.316406 173.644531 431.730469 173.59375 432.152344 173.589844 C 432.691406 173.585938 433.222656 173.664062 433.742188 173.816406 C 434.261719 173.972656 434.746094 174.195312 435.199219 174.492188 C 435.652344 174.789062 436.050781 175.144531 436.402344 175.558594 C 436.75 175.972656 437.03125 176.429688 437.246094 176.925781 C 438.046875 178.867188 438.414062 180.886719 438.34375 182.984375 C 438.382812 185.136719 438.046875 187.230469 437.332031 189.261719 C 437.078125 190.007812 436.691406 190.675781 436.175781 191.269531 C 435.660156 191.859375 435.050781 192.335938 434.347656 192.6875 C 433.582031 192.96875 432.792969 193.117188 431.976562 193.128906 C 431.203125 193.152344 430.460938 193.015625 429.746094 192.714844 C 429.035156 192.417969 428.417969 191.984375 427.894531 191.414062 C 427.25 190.617188 426.796875 189.726562 426.53125 188.738281 Z M 434.65625 180.085938 C 434.703125 179.730469 434.675781 179.378906 434.570312 179.03125 C 434.464844 178.6875 434.292969 178.378906 434.058594 178.109375 C 433.820312 177.835938 433.535156 177.625 433.207031 177.476562 C 432.878906 177.328125 432.535156 177.253906 432.175781 177.253906 C 431.8125 177.253906 431.46875 177.328125 431.140625 177.476562 C 430.8125 177.625 430.527344 177.835938 430.289062 178.109375 C 430.054688 178.378906 429.882812 178.6875 429.777344 179.03125 C 429.675781 179.378906 429.644531 179.730469 429.691406 180.085938 C 429.691406 181.800781 430.660156 182.941406 432.109375 182.941406 C 432.472656 182.9375 432.820312 182.859375 433.152344 182.707031 C 433.480469 182.558594 433.769531 182.347656 434.011719 182.074219 C 434.253906 181.804688 434.429688 181.496094 434.542969 181.148438 C 434.652344 180.804688 434.691406 180.449219 434.65625 180.085938 Z M 434.65625 180.085938 " fill-opacity="1" fill-rule="nonzero"/><path fill="#59358c" d="M 443.699219 188.515625 C 443.765625 188.878906 443.898438 189.214844 444.09375 189.527344 C 444.503906 190.09375 445.0625 190.371094 445.761719 190.359375 C 446.265625 190.367188 446.726562 190.230469 447.144531 189.949219 C 447.5625 189.667969 447.863281 189.292969 448.046875 188.824219 C 448.464844 187.859375 448.683594 186.847656 448.703125 185.792969 C 448.28125 186.335938 447.753906 186.746094 447.121094 187.015625 C 446.492188 187.289062 445.832031 187.394531 445.148438 187.332031 C 441.988281 187.332031 439.96875 184.828125 440.011719 181.054688 C 439.976562 180.636719 439.980469 180.21875 440.03125 179.800781 C 440.082031 179.386719 440.175781 178.980469 440.308594 178.582031 C 440.441406 178.183594 440.617188 177.804688 440.828125 177.445312 C 441.042969 177.085938 441.289062 176.75 441.574219 176.441406 C 441.855469 176.128906 442.167969 175.851562 442.507812 175.609375 C 442.847656 175.363281 443.210938 175.15625 443.59375 174.984375 C 443.976562 174.816406 444.371094 174.6875 444.78125 174.601562 C 445.191406 174.511719 445.605469 174.46875 446.027344 174.46875 C 446.570312 174.46875 447.101562 174.554688 447.617188 174.714844 C 448.136719 174.875 448.621094 175.109375 449.070312 175.414062 C 449.519531 175.71875 449.914062 176.082031 450.257812 176.503906 C 450.597656 176.925781 450.871094 177.386719 451.074219 177.890625 C 451.851562 179.839844 452.171875 181.859375 452.042969 183.949219 C 452.035156 186.105469 451.667969 188.199219 450.945312 190.230469 C 450.671875 190.96875 450.269531 191.625 449.738281 192.203125 C 449.207031 192.78125 448.582031 193.234375 447.871094 193.566406 C 447.105469 193.847656 446.316406 193.996094 445.5 194.003906 C 444.722656 194.011719 443.980469 193.851562 443.277344 193.53125 C 442.570312 193.207031 441.964844 192.75 441.460938 192.160156 C 440.832031 191.363281 440.394531 190.46875 440.144531 189.484375 Z M 448.441406 181.054688 C 448.488281 180.695312 448.460938 180.34375 448.355469 180 C 448.25 179.652344 448.082031 179.34375 447.84375 179.074219 C 447.605469 178.800781 447.324219 178.59375 446.996094 178.441406 C 446.664062 178.292969 446.320312 178.21875 445.960938 178.21875 C 445.601562 178.21875 445.253906 178.292969 444.925781 178.441406 C 444.597656 178.59375 444.316406 178.800781 444.078125 179.074219 C 443.839844 179.34375 443.667969 179.652344 443.566406 180 C 443.460938 180.34375 443.433594 180.695312 443.480469 181.054688 C 443.480469 182.765625 444.359375 183.90625 445.808594 183.949219 C 446.183594 183.960938 446.542969 183.890625 446.886719 183.742188 C 447.234375 183.59375 447.53125 183.382812 447.785156 183.101562 C 448.039062 182.824219 448.222656 182.507812 448.335938 182.148438 C 448.449219 181.792969 448.484375 181.425781 448.441406 181.054688 Z M 448.441406 181.054688 " fill-opacity="1" fill-rule="nonzero"/><path fill="#59358c" d="M 455.949219 193.742188 C 455.054688 193.695312 454.164062 193.695312 453.269531 193.742188 C 453.320312 192.851562 453.453125 191.972656 453.664062 191.105469 C 454.105469 189.257812 454.957031 187.617188 456.210938 186.191406 C 457.15625 185.121094 458.195312 184.15625 459.328125 183.292969 C 460.867188 182.0625 461.21875 181.492188 461.21875 180.4375 C 461.222656 180.1875 461.179688 179.945312 461.085938 179.714844 C 460.992188 179.484375 460.855469 179.277344 460.675781 179.105469 C 460.496094 178.929688 460.289062 178.796875 460.054688 178.707031 C 459.820312 178.621094 459.578125 178.582031 459.328125 178.59375 C 458.941406 178.558594 458.578125 178.636719 458.242188 178.828125 C 457.902344 179.023438 457.652344 179.296875 457.484375 179.648438 C 457.21875 180.25 457.074219 180.878906 457.046875 181.535156 L 453.269531 181.054688 C 453.34375 179.621094 453.765625 178.304688 454.542969 177.101562 C 455.074219 176.34375 455.757812 175.769531 456.601562 175.386719 C 457.441406 175 458.320312 174.855469 459.242188 174.949219 C 459.761719 174.933594 460.273438 174.988281 460.777344 175.113281 C 461.28125 175.242188 461.753906 175.441406 462.203125 175.703125 C 462.652344 175.96875 463.050781 176.292969 463.40625 176.671875 C 463.761719 177.050781 464.058594 177.472656 464.292969 177.933594 C 464.707031 178.765625 464.910156 179.644531 464.90625 180.570312 C 464.933594 181.339844 464.804688 182.085938 464.523438 182.800781 C 464.238281 183.519531 463.824219 184.152344 463.28125 184.695312 C 462.476562 185.523438 461.628906 186.296875 460.734375 187.023438 C 459.609375 187.820312 458.730469 188.828125 458.101562 190.054688 L 462.226562 190.054688 C 463.164062 190.125 464.101562 190.125 465.039062 190.054688 L 465.039062 194.445312 C 464.046875 194.304688 463.050781 194.214844 462.050781 194.179688 Z M 455.949219 193.742188 " fill-opacity="1" fill-rule="nonzero"/><path fill="#ffffff" d="M 89.375 355.800781 C 89.695312 366.195312 90.960938 376.472656 93.175781 386.636719 C 95.386719 396.796875 98.511719 406.671875 102.546875 416.257812 C 113.171875 422.539062 123.140625 431.714844 127.136719 440.449219 C 129.519531 445.660156 131.394531 451.042969 132.753906 456.609375 C 133.246094 455.832031 133.785156 455.09375 134.378906 454.394531 C 134.972656 453.695312 135.613281 453.039062 136.296875 452.429688 C 136.980469 451.820312 137.707031 451.261719 138.46875 450.75 C 139.230469 450.242188 140.027344 449.789062 140.855469 449.390625 C 141.679688 448.992188 142.53125 448.65625 143.40625 448.375 C 144.277344 448.097656 145.167969 447.878906 146.070312 447.726562 C 146.976562 447.570312 147.886719 447.480469 148.804688 447.453125 C 149.722656 447.425781 150.636719 447.464844 151.546875 447.5625 C 153.59375 447.84375 155.539062 448.441406 157.386719 449.363281 C 156.332031 447.914062 155.277344 446.554688 154.226562 445.324219 C 138.066406 426.355469 130.253906 405.105469 130.164062 392.285156 C 130.144531 390.8125 130.246094 389.351562 130.472656 387.894531 C 130.558594 386.929688 130.761719 385.988281 131.085938 385.070312 C 131.40625 384.15625 131.835938 383.292969 132.371094 382.484375 C 132.910156 381.675781 133.535156 380.945312 134.253906 380.292969 C 134.972656 379.640625 135.761719 379.085938 136.617188 378.632812 C 137.261719 378.351562 137.929688 378.160156 138.621094 378.054688 C 139.3125 377.945312 140.007812 377.929688 140.703125 378.003906 C 141.398438 378.078125 142.074219 378.238281 142.730469 378.484375 C 143.382812 378.730469 143.996094 379.058594 144.566406 379.464844 C 146.328125 380.925781 147.859375 382.601562 149.15625 384.488281 C 150.457031 386.375 151.472656 388.402344 152.207031 390.574219 C 154.078125 386.84375 155.476562 382.945312 156.40625 378.875 C 157.332031 374.804688 157.761719 370.683594 157.695312 366.511719 C 157.667969 363.5625 157.40625 360.636719 156.902344 357.730469 C 156.800781 356.726562 156.621094 355.734375 156.371094 354.757812 C 156.117188 353.777344 155.796875 352.824219 155.40625 351.894531 C 155.015625 350.960938 154.554688 350.066406 154.03125 349.203125 C 153.507812 348.339844 152.921875 347.515625 152.277344 346.742188 C 151.632812 345.964844 150.933594 345.238281 150.183594 344.5625 C 149.429688 343.890625 148.632812 343.273438 147.789062 342.71875 C 146.945312 342.160156 146.066406 341.667969 145.152344 341.242188 C 144.238281 340.816406 143.296875 340.457031 142.328125 340.167969 C 136.664062 338.457031 129.15625 339.554688 124.195312 349.609375 L 124.195312 348.90625 C 122.347656 331.738281 149 316.503906 148.519531 286.648438 C 148.460938 282.976562 147.976562 279.359375 147.070312 275.800781 C 143.03125 260.699219 133.238281 251.304688 120.726562 250.644531 C 109.703125 250.03125 98.773438 257.097656 91.878906 266.84375 C 93.09375 267.265625 94.25 267.804688 95.351562 268.46875 C 96.449219 269.132812 97.46875 269.902344 98.40625 270.78125 C 99.34375 271.65625 100.179688 272.621094 100.914062 273.675781 C 101.652344 274.730469 102.269531 275.847656 102.765625 277.03125 C 104.140625 280.441406 104.8125 283.980469 104.785156 287.65625 C 104.425781 296.605469 102.289062 305.109375 98.375 313.167969 C 95.230469 319.820312 92.894531 326.75 91.375 333.953125 C 89.851562 341.160156 89.1875 348.441406 89.375 355.800781 Z M 89.375 355.800781 " fill-opacity="1" fill-rule="nonzero"/><path fill="#ffffff" d="M 156.464844 501.917969 C 155.222656 496.871094 154.492188 491.746094 154.269531 486.550781 C 154.125 484.703125 154.296875 482.886719 154.785156 481.101562 C 155.277344 479.3125 156.054688 477.660156 157.125 476.148438 C 157.691406 475.382812 158.378906 474.746094 159.179688 474.230469 C 159.980469 473.71875 160.847656 473.359375 161.777344 473.160156 C 161.300781 471.890625 160.683594 470.6875 159.925781 469.558594 C 159.171875 468.433594 158.296875 467.40625 157.300781 466.480469 C 156.308594 465.554688 155.222656 464.753906 154.042969 464.082031 C 152.863281 463.40625 151.621094 462.878906 150.316406 462.492188 C 149.320312 462.402344 148.332031 462.457031 147.351562 462.65625 C 146.371094 462.851562 145.441406 463.183594 144.554688 463.652344 C 143.671875 464.121094 142.871094 464.703125 142.15625 465.402344 C 141.441406 466.101562 140.839844 466.886719 140.351562 467.761719 C 133.105469 477.902344 135.125 498.496094 145.398438 512.851562 C 128.933594 513.773438 126.34375 489.800781 124.105469 475.3125 C 123.066406 465.828125 120.679688 456.695312 116.949219 447.914062 C 115.894531 445.449219 114.613281 443.109375 113.105469 440.894531 C 111.59375 438.679688 109.886719 436.632812 107.976562 434.75 C 106.070312 432.867188 103.996094 431.1875 101.761719 429.707031 C 99.523438 428.230469 97.167969 426.980469 94.6875 425.960938 C 97.234375 434.398438 98.695312 443.019531 99.078125 451.824219 C 99.734375 460.308594 100.820312 468.738281 102.328125 477.113281 C 103.4375 485.078125 105.582031 492.75 108.765625 500.132812 C 111.945312 507.519531 116.050781 514.347656 121.078125 520.625 C 129.59375 531.074219 138.945312 534.324219 145.75 549.601562 C 136.3125 544.246094 124.148438 535.464844 119.847656 553.332031 C 125.335938 555.003906 130.121094 560.535156 134.730469 566.066406 C 145.179688 578.359375 157.34375 605.1875 201.425781 603.957031 C 192.75 587.125 185.433594 569.726562 179.472656 551.753906 C 169.328125 533.269531 158.703125 511.621094 156.464844 501.917969 Z M 156.464844 501.917969 " fill-opacity="1" fill-rule="nonzero"/><path fill="#ffffff" d="M 720.570312 355.800781 C 720.253906 366.195312 718.988281 376.472656 716.773438 386.636719 C 714.558594 396.796875 711.433594 406.671875 707.398438 416.257812 C 696.773438 422.539062 686.808594 431.714844 682.8125 440.449219 C 680.457031 445.660156 678.613281 451.046875 677.28125 456.609375 C 676.789062 455.832031 676.25 455.09375 675.65625 454.394531 C 675.0625 453.695312 674.421875 453.039062 673.738281 452.429688 C 673.054688 451.820312 672.328125 451.261719 671.566406 450.75 C 670.804688 450.242188 670.007812 449.789062 669.183594 449.390625 C 668.355469 448.992188 667.503906 448.65625 666.632812 448.375 C 665.757812 448.097656 664.867188 447.878906 663.964844 447.726562 C 663.058594 447.570312 662.148438 447.480469 661.230469 447.453125 C 660.316406 447.425781 659.402344 447.464844 658.488281 447.5625 C 656.441406 447.84375 654.496094 448.441406 652.648438 449.363281 C 653.703125 447.914062 654.757812 446.554688 655.808594 445.324219 C 671.96875 426.355469 679.785156 405.105469 679.871094 392.285156 C 679.890625 390.8125 679.789062 389.351562 679.5625 387.894531 C 679.480469 386.917969 679.28125 385.96875 678.957031 385.042969 C 678.636719 384.117188 678.207031 383.246094 677.664062 382.425781 C 677.125 381.609375 676.488281 380.871094 675.761719 380.214844 C 675.035156 379.558594 674.238281 379 673.371094 378.542969 C 672.730469 378.265625 672.0625 378.070312 671.371094 377.964844 C 670.679688 377.859375 669.984375 377.84375 669.289062 377.914062 C 668.59375 377.988281 667.917969 378.148438 667.261719 378.398438 C 666.609375 378.644531 665.996094 378.972656 665.425781 379.378906 C 663.664062 380.839844 662.132812 382.511719 660.835938 384.402344 C 659.535156 386.289062 658.519531 388.316406 657.785156 390.484375 C 655.914062 386.753906 654.515625 382.855469 653.585938 378.789062 C 652.660156 374.71875 652.230469 370.597656 652.296875 366.425781 C 652.324219 363.476562 652.585938 360.550781 653.089844 357.644531 C 653.191406 356.640625 653.371094 355.648438 653.621094 354.667969 C 653.871094 353.691406 654.195312 352.734375 654.585938 351.804688 C 654.976562 350.875 655.4375 349.976562 655.960938 349.113281 C 656.484375 348.25 657.070312 347.429688 657.714844 346.652344 C 658.359375 345.875 659.058594 345.148438 659.808594 344.476562 C 660.5625 343.800781 661.359375 343.1875 662.203125 342.628906 C 663.046875 342.074219 663.925781 341.582031 664.839844 341.152344 C 665.753906 340.726562 666.695312 340.371094 667.664062 340.082031 C 673.328125 338.367188 680.835938 339.464844 685.796875 349.519531 L 685.796875 348.820312 C 687.640625 331.652344 660.992188 316.414062 661.472656 286.558594 C 661.53125 282.886719 662.015625 279.273438 662.921875 275.714844 C 666.960938 260.609375 676.753906 251.214844 689.265625 250.554688 C 700.289062 249.941406 711.21875 257.011719 718.113281 266.757812 C 716.898438 267.175781 715.742188 267.71875 714.640625 268.382812 C 713.542969 269.042969 712.523438 269.816406 711.585938 270.691406 C 710.648438 271.570312 709.8125 272.535156 709.074219 273.589844 C 708.339844 274.640625 707.722656 275.761719 707.226562 276.945312 C 705.828125 280.347656 705.15625 283.890625 705.203125 287.570312 C 705.566406 296.519531 707.703125 305.023438 711.617188 313.078125 C 714.761719 319.75 717.09375 326.695312 718.605469 333.914062 C 720.121094 341.132812 720.773438 348.425781 720.570312 355.800781 Z M 720.570312 355.800781 " fill-opacity="1" fill-rule="nonzero"/><path fill="#ffffff" d="M 653.484375 501.917969 C 654.726562 496.871094 655.457031 491.746094 655.679688 486.550781 C 655.824219 484.703125 655.652344 482.886719 655.160156 481.101562 C 654.671875 479.3125 653.890625 477.660156 652.824219 476.148438 C 652.253906 475.382812 651.570312 474.746094 650.769531 474.230469 C 649.96875 473.71875 649.101562 473.359375 648.171875 473.160156 C 648.648438 471.890625 649.265625 470.6875 650.019531 469.558594 C 650.777344 468.433594 651.652344 467.40625 652.644531 466.480469 C 653.640625 465.554688 654.726562 464.753906 655.90625 464.082031 C 657.085938 463.40625 658.328125 462.878906 659.628906 462.492188 C 660.625 462.402344 661.613281 462.457031 662.59375 462.65625 C 663.574219 462.851562 664.507812 463.183594 665.394531 463.652344 C 666.277344 464.121094 667.078125 464.703125 667.792969 465.402344 C 668.507812 466.101562 669.109375 466.886719 669.597656 467.761719 C 676.839844 477.902344 674.820312 498.496094 664.546875 512.851562 C 681.011719 513.773438 683.601562 489.800781 685.84375 475.3125 C 686.882812 465.828125 689.265625 456.695312 693 447.914062 C 694.050781 445.449219 695.335938 443.109375 696.84375 440.894531 C 698.351562 438.679688 700.0625 436.632812 701.96875 434.75 C 703.878906 432.867188 705.949219 431.1875 708.1875 429.707031 C 710.421875 428.230469 712.78125 426.980469 715.257812 425.960938 C 712.789062 434.40625 711.398438 443.027344 711.089844 451.824219 C 710.429688 460.308594 709.347656 468.738281 707.839844 477.113281 C 706.730469 485.078125 704.585938 492.75 701.402344 500.132812 C 698.222656 507.519531 694.117188 514.347656 689.089844 520.625 C 680.574219 531.074219 671.222656 534.324219 664.417969 549.601562 C 673.855469 544.246094 686.019531 535.464844 690.320312 553.332031 C 684.832031 555.003906 680.046875 560.535156 675.4375 566.066406 C 664.988281 578.359375 652.824219 605.1875 608.742188 603.957031 C 617.417969 587.125 624.734375 569.726562 630.695312 551.753906 C 640.617188 533.269531 651.246094 511.621094 653.484375 501.917969 Z M 653.484375 501.917969 " fill-opacity="1" fill-rule="nonzero"/><path fill="#c09949" d="M 404.972656 221.621094 C 319.882812 221.621094 213.234375 231.765625 180.699219 235.058594 L 180.699219 428.246094 C 180.589844 434.40625 180.644531 440.5625 180.859375 446.71875 C 181.074219 452.875 181.457031 459.023438 182 465.160156 C 182.542969 471.296875 183.246094 477.414062 184.113281 483.511719 C 184.980469 489.613281 186.011719 495.683594 187.199219 501.726562 C 188.390625 507.773438 189.738281 513.78125 191.246094 519.753906 C 192.757812 525.726562 194.421875 531.65625 196.246094 537.539062 C 198.070312 543.421875 200.046875 549.253906 202.179688 555.035156 C 204.316406 560.8125 206.597656 566.53125 209.035156 572.191406 C 211.472656 577.847656 214.058594 583.4375 216.792969 588.960938 C 219.523438 594.480469 222.402344 599.925781 225.425781 605.292969 C 228.449219 610.660156 231.609375 615.945312 234.914062 621.144531 C 238.214844 626.34375 241.65625 631.453125 245.230469 636.472656 C 248.804688 641.488281 252.507812 646.410156 256.34375 651.230469 C 260.179688 656.050781 264.140625 660.765625 268.226562 665.375 C 272.3125 669.988281 276.515625 674.484375 280.839844 678.875 C 285.164062 683.261719 289.601562 687.53125 294.15625 691.683594 C 310.472656 706.878906 327.933594 720.628906 346.527344 732.933594 C 365.125 745.238281 384.605469 755.929688 404.972656 765.007812 C 425.335938 755.953125 444.8125 745.292969 463.410156 733.015625 C 482.007812 720.742188 499.46875 707.023438 515.792969 691.859375 C 531.882812 677.019531 546.480469 660.839844 559.585938 643.3125 C 572.691406 625.785156 584.089844 607.207031 593.769531 587.582031 C 599.714844 575.203125 604.933594 562.523438 609.425781 549.546875 C 613.917969 536.570312 617.652344 523.375 620.628906 509.972656 C 623.609375 496.566406 625.8125 483.03125 627.238281 469.375 C 628.664062 455.714844 629.304688 442.019531 629.160156 428.289062 L 629.160156 235.101562 C 596.710938 231.765625 490.0625 221.621094 404.972656 221.621094 Z M 404.972656 221.621094 " fill-opacity="1" fill-rule="nonzero"/><path fill="#59358c" d="M 602.945312 254.113281 C 601.847656 254.113281 490.371094 242.917969 404.972656 242.828125 C 319.578125 242.742188 208.097656 253.980469 207 254.113281 L 201.6875 254.726562 L 201.6875 433.515625 C 204.761719 546.792969 259.777344 624.417969 305.394531 669.597656 C 319.96875 684.132812 335.605469 697.410156 352.3125 709.4375 C 369.015625 721.464844 386.566406 732.085938 404.972656 741.296875 C 423.378906 732.085938 440.933594 721.464844 457.636719 709.4375 C 474.339844 697.410156 489.980469 684.132812 504.554688 669.597656 C 550.171875 624.417969 605.1875 546.660156 608.261719 433.515625 L 608.261719 254.726562 Z M 602.945312 254.113281 " fill-opacity="1" fill-rule="nonzero"/><path fill="#9d9d9c" d="M 568.570312 465.347656 L 593.769531 465.347656 C 595.042969 455.027344 595.878906 444.359375 596.1875 433.339844 L 596.1875 265.441406 C 590.609375 264.824219 580.949219 263.859375 568.4375 262.675781 Z M 568.570312 465.347656 " fill-opacity="1" fill-rule="nonzero"/><path fill="#9d9d9c" d="M 512.632812 258.109375 L 512.632812 465.347656 L 544.683594 465.347656 L 544.683594 260.566406 C 534.761719 259.734375 523.960938 258.898438 512.632812 258.109375 Z M 512.632812 258.109375 " fill-opacity="1" fill-rule="nonzero"/><path fill="#9d9d9c" d="M 216.835938 465.871094 C 218.671875 482.125 221.6875 498.160156 225.878906 513.96875 C 230.074219 529.78125 235.402344 545.199219 241.863281 560.226562 L 241.863281 465.828125 Z M 216.835938 465.871094 " fill-opacity="1" fill-rule="nonzero"/><path fill="#9d9d9c" d="M 349.914062 465.609375 L 319.707031 465.609375 L 319.707031 670.433594 C 329.304688 679.300781 339.375 687.601562 349.914062 695.328125 Z M 349.914062 465.609375 " fill-opacity="1" fill-rule="nonzero"/><path fill="#9d9d9c" d="M 457.660156 465.347656 L 488.964844 465.347656 L 488.964844 256.527344 C 478.691406 255.914062 468.15625 255.34375 457.660156 254.902344 Z M 457.660156 465.347656 " fill-opacity="1" fill-rule="nonzero"/><path fill="#9d9d9c" d="M 265.746094 605.890625 C 274.734375 620.03125 284.757812 633.394531 295.824219 645.976562 L 295.824219 465.695312 L 265.746094 465.695312 Z M 265.746094 605.890625 " fill-opacity="1" fill-rule="nonzero"/><path fill="#9d9d9c" d="M 404.972656 465.347656 L 433.46875 465.347656 L 433.46875 254.070312 C 423.941406 253.804688 414.105469 253.671875 404.972656 253.671875 Z M 404.972656 465.347656 " fill-opacity="1" fill-rule="nonzero"/><path fill="#9d9d9c" d="M 404.972656 465.519531 L 373.40625 465.519531 L 373.40625 711.394531 C 383.578125 717.628906 394.101562 723.207031 404.972656 728.125 Z M 404.972656 465.519531 " fill-opacity="1" fill-rule="nonzero"/><path fill="#ffffff" d="M 579.894531 557.503906 L 493.972656 495.246094 L 466.3125 499.8125 L 422.140625 464.644531 L 511.09375 393.910156 L 521.808594 427.9375 L 578.886719 326.292969 L 467.101562 359.179688 L 497.835938 377.226562 L 415.6875 442.601562 L 415.730469 339.421875 L 448.96875 352.242188 L 405.019531 244.320312 L 361.15625 352.242188 L 394.390625 339.421875 L 394.4375 442.601562 L 312.289062 377.226562 L 343.023438 359.179688 L 231.191406 326.382812 L 288.316406 427.9375 L 298.984375 393.910156 L 387.980469 464.644531 L 343.8125 499.8125 L 316.152344 495.246094 L 230.183594 557.503906 L 275.449219 567.734375 L 275.273438 614.144531 L 355.273438 544.421875 L 356.984375 516.453125 L 394.4375 486.683594 L 394.4375 536.296875 L 373.667969 555.089844 L 368.882812 661.078125 L 405.0625 632.058594 L 441.242188 661.078125 L 436.453125 555.089844 L 415.6875 536.296875 L 415.6875 486.683594 L 453.140625 516.453125 L 454.851562 544.421875 L 534.847656 614.144531 L 534.671875 567.734375 Z M 579.894531 557.503906 " fill-opacity="1" fill-rule="nonzero"/><path fill="#59358c" d="M 491.601562 501.570312 L 465.652344 506.308594 L 413.402344 464.773438 L 513.773438 384.953125 L 523.125 414.152344 L 565.847656 336.832031 L 480.933594 361.070312 L 507.277344 376.742188 L 410.242188 453.929688 L 410.242188 331.652344 L 438.957031 342.539062 L 404.972656 260.960938 L 371.121094 342.539062 L 399.835938 331.652344 L 399.835938 453.84375 L 302.804688 376.65625 L 329.148438 360.980469 L 244.1875 336.789062 L 286.910156 414.019531 L 296.304688 384.820312 L 396.675781 464.644531 L 344.425781 506.179688 L 318.523438 501.570312 L 245.550781 554.828125 L 281.773438 562.730469 C 281.773438 568.964844 281.335938 599.785156 281.335938 599.785156 L 349.738281 540.6875 L 350.96875 514.34375 L 399.835938 475.445312 L 399.835938 539.765625 L 379.992188 557.328125 L 376.304688 647.644531 L 405.0625 624.199219 L 433.777344 647.644531 L 430.132812 557.328125 L 410.285156 539.765625 L 410.285156 475.445312 L 459.15625 514.34375 L 460.382812 540.6875 L 528.789062 599.785156 C 528.789062 599.785156 528.394531 569.050781 528.351562 562.730469 L 564.574219 554.828125 Z M 491.601562 501.570312 " fill-opacity="1" fill-rule="nonzero"/><path fill="#c09949" d="M 404.972656 284.40625 C 400.054688 296.085938 391.054688 316.898438 386.578125 327.523438 C 394.085938 324.671875 404.492188 320.851562 404.972656 320.675781 Z M 404.972656 284.40625 " fill-opacity="1" fill-rule="nonzero"/><path fill="#c09949" d="M 388.332031 602.113281 C 387.980469 611.289062 387.632812 619.675781 387.410156 625.296875 L 399.835938 615.152344 L 399.835938 592.058594 Z M 388.332031 602.113281 " fill-opacity="1" fill-rule="nonzero"/><path fill="#c09949" d="M 388.816406 590.347656 L 399.835938 580.730469 L 399.835938 569.402344 L 389.300781 578.183594 C 389.167969 582.003906 388.992188 586.132812 388.816406 590.347656 Z M 388.816406 590.347656 " fill-opacity="1" fill-rule="nonzero"/><path fill="#c09949" d="M 410.109375 553.113281 L 410.109375 566.636719 L 420.957031 575.417969 C 420.605469 568.128906 420.386719 562.773438 420.296875 561.589844 Z M 410.109375 553.113281 " fill-opacity="1" fill-rule="nonzero"/><path fill="#c09949" d="M 410.109375 590.566406 L 422.097656 600.359375 C 421.878906 595.96875 421.660156 591.3125 421.484375 586.964844 L 410.109375 577.65625 Z M 410.109375 590.566406 " fill-opacity="1" fill-rule="nonzero"/><path fill="#c09949" d="M 410.066406 614.847656 L 423.238281 625.339844 C 423.238281 621.914062 422.84375 617.171875 422.625 611.816406 L 410.066406 601.585938 Z M 410.066406 614.847656 " fill-opacity="1" fill-rule="nonzero"/><path fill="#c09949" d="M 547.582031 351.363281 C 535.375 354.789062 513.464844 360.671875 502.359375 363.789062 L 519.175781 373.933594 Z M 547.582031 351.363281 " fill-opacity="1" fill-rule="nonzero"/><path fill="#c09949" d="M 297.972656 529.097656 L 312.375 531.730469 L 321.15625 524.664062 L 307.679688 521.941406 Z M 297.972656 529.097656 " fill-opacity="1" fill-rule="nonzero"/><path fill="#c09949" d="M 280.238281 543.191406 L 294.636719 545.824219 L 303.417969 538.757812 L 289.941406 536.035156 Z M 280.238281 543.191406 " fill-opacity="1" fill-rule="nonzero"/><path fill="#c09949" d="M 340.386719 522.554688 L 329.761719 530.984375 L 329.761719 544.992188 L 340.210938 535.859375 C 340.082031 533.796875 340.257812 527.914062 340.386719 522.554688 Z M 340.386719 522.554688 " fill-opacity="1" fill-rule="nonzero"/><path fill="#c09949" d="M 311.058594 545.871094 L 311.058594 561.324219 L 321.199219 552.542969 L 321.199219 537.878906 Z M 311.058594 545.871094 " fill-opacity="1" fill-rule="nonzero"/><path fill="#c09949" d="M 292.046875 560.972656 L 292.046875 577.789062 L 302.234375 569.007812 L 302.234375 552.851562 Z M 292.046875 560.972656 " fill-opacity="1" fill-rule="nonzero"/><path fill="#c09949" d="M 262.628906 351.277344 C 268.6875 362.386719 279.359375 382.40625 284.890625 392.503906 C 287.347656 384.910156 290.816406 374.328125 290.992188 373.84375 Z M 262.628906 351.277344 " fill-opacity="1" fill-rule="nonzero"/><path fill="#c09949" d="M 491.910156 554.476562 L 491.25 539.855469 L 482.46875 532.828125 L 482.820312 546.574219 Z M 491.910156 554.476562 " fill-opacity="1" fill-rule="nonzero"/><path fill="#c09949" d="M 509.953125 568.875 L 509.296875 554.257812 L 500.515625 547.230469 L 500.867188 560.972656 Z M 509.953125 568.875 " fill-opacity="1" fill-rule="nonzero"/><path fill="#c09949" d="M 476.015625 514.742188 L 486.59375 523.171875 L 500.292969 520.183594 L 489.097656 512.105469 Z M 476.015625 514.742188 " fill-opacity="1" fill-rule="nonzero"/><path fill="#c09949" d="M 505.34375 538.011719 L 520.449219 534.71875 L 509.558594 526.816406 L 495.246094 529.933594 Z M 505.34375 538.011719 " fill-opacity="1" fill-rule="nonzero"/><path fill="#c09949" d="M 524.3125 553.113281 L 540.730469 549.339844 C 537.921875 547.363281 534.101562 544.550781 529.753906 541.390625 L 513.949219 544.859375 Z M 524.3125 553.113281 " fill-opacity="1" fill-rule="nonzero"/><path fill="#59358c" d="M 735.015625 696.820312 C 726.851562 689.75 705.46875 670.082031 698.707031 663.847656 C 721.230469 615.109375 723.863281 611.160156 722.460938 610.28125 C 721.054688 609.402344 718.070312 610.28125 707.003906 613.046875 C 690.691406 617.101562 674.195312 620.207031 657.523438 622.355469 C 657.972656 619.726562 657.722656 617.164062 656.777344 614.671875 C 655.765625 612.605469 654.40625 609.578125 639.695312 608.171875 C 620.992188 606.371094 600.179688 603.210938 583.890625 602.246094 C 546.917969 599.769531 509.960938 600.046875 473.027344 603.078125 C 422.625 607.46875 408.136719 610.585938 405.589844 611.335938 C 403.085938 610.585938 388.597656 607.515625 338.191406 603.078125 C 301.257812 600.046875 264.304688 599.769531 227.328125 602.246094 C 211.214844 603.210938 190.226562 606.371094 171.523438 608.171875 C 156.773438 609.578125 155.453125 612.5625 154.445312 614.671875 C 153.496094 617.164062 153.25 619.726562 153.699219 622.355469 C 137.023438 620.207031 120.53125 617.105469 104.214844 613.046875 C 93.238281 610.410156 90.429688 609.007812 88.761719 610.28125 C 87.09375 611.554688 89.992188 615.109375 112.515625 663.847656 C 105.753906 670.082031 84.371094 689.75 76.203125 696.820312 C 70.933594 701.210938 68.914062 701.914062 78.265625 704.371094 C 89.332031 707.269531 100.21875 709.550781 111.152344 711.570312 C 147.59375 718.507812 209.765625 726.808594 240.105469 723.644531 L 242.390625 723.644531 C 257.757812 722.066406 259.6875 720.175781 259.03125 709.726562 C 258.722656 704.183594 258.882812 698.648438 259.511719 693.132812 C 263.375 693.132812 267.285156 693.132812 271.28125 693.132812 C 320.585938 692.734375 379.464844 704.371094 405.589844 709.199219 C 431.933594 704.371094 490.636719 692.734375 539.941406 693.132812 C 543.9375 693.132812 547.84375 693.132812 551.664062 693.132812 C 552.332031 698.648438 552.503906 704.179688 552.191406 709.726562 C 551.53125 720.175781 553.464844 722.066406 568.789062 723.644531 L 571.113281 723.644531 C 601.453125 726.808594 663.582031 718.507812 700.066406 711.570312 C 710.867188 709.550781 722.019531 707.179688 732.953125 704.371094 C 742.304688 701.914062 740.285156 701.386719 735.015625 696.820312 Z M 735.015625 696.820312 " fill-opacity="1" fill-rule="nonzero"/><path fill="#9d9d9c" d="M 244.585938 707.929688 C 244.46875 703.105469 244.601562 698.292969 244.980469 693.484375 C 218.242188 694.625 196.683594 696.953125 182.5 698.882812 C 203.003906 706.609375 232.203125 708.277344 244.585938 707.929688 Z M 244.585938 707.929688 " fill-opacity="1" fill-rule="nonzero"/><path fill="#9d9d9c" d="M 566.636719 707.929688 C 566.75 703.105469 566.621094 698.292969 566.242188 693.484375 C 592.980469 694.625 614.539062 696.953125 628.71875 698.882812 C 608.261719 706.609375 579.019531 708.277344 566.636719 707.929688 Z M 566.636719 707.929688 " fill-opacity="1" fill-rule="nonzero"/><path fill="#c09949" d="M 108.738281 627.050781 C 109.308594 628.238281 126.300781 663.582031 127.882812 667.578125 C 124.5 670.433594 96.445312 695.546875 96.445312 695.546875 C 120.019531 700.820312 143.828125 704.582031 167.878906 706.832031 L 165.027344 705.292969 C 163.691406 704.597656 162.535156 703.679688 161.546875 702.542969 C 160.5625 701.40625 159.820312 700.125 159.320312 698.707031 C 141.757812 696.777344 123.886719 693.527344 112.25 691.242188 C 133.414062 673.109375 122.085938 682.683594 137.191406 669.554688 C 137.191406 669.554688 125.292969 645.316406 121.558594 636.800781 C 128.933594 638.203125 142.105469 640.707031 156.289062 642.066406 C 156.027344 639.433594 155.71875 637.019531 155.367188 634.78125 C 132.183594 632.277344 108.738281 627.007812 108.738281 627.007812 Z M 108.738281 627.050781 " fill-opacity="1" fill-rule="nonzero"/><path fill="#c09949" d="M 522.6875 674.121094 C 483.316406 675.515625 444.285156 679.90625 405.589844 687.292969 C 366.90625 679.90625 327.890625 675.515625 288.535156 674.121094 C 249.078125 673.328125 209.769531 675.347656 170.601562 680.179688 L 170.910156 687.378906 C 209.910156 682.453125 249.058594 680.375 288.359375 681.144531 C 327.777344 682.492188 366.855469 686.882812 405.589844 694.316406 C 444.324219 686.890625 483.402344 682.5 522.816406 681.144531 C 562.132812 680.371094 601.296875 682.449219 640.3125 687.378906 L 640.617188 680.179688 C 601.453125 675.347656 562.140625 673.328125 522.6875 674.121094 Z M 522.6875 674.121094 " fill-opacity="1" fill-rule="nonzero"/><path fill="#c09949" d="M 522.6875 613.660156 C 483.433594 615.117188 444.402344 618.863281 405.589844 624.902344 C 366.789062 618.859375 327.773438 615.113281 288.535156 613.660156 C 248.246094 613.105469 208.101562 615.257812 168.101562 620.117188 L 169.023438 627.097656 C 208.667969 622.25 248.464844 620.066406 288.402344 620.554688 C 327.691406 622.027344 366.753906 625.832031 405.589844 631.96875 C 444.4375 625.835938 483.515625 622.03125 522.820312 620.554688 C 562.71875 620.117188 602.46875 622.339844 642.066406 627.226562 L 642.988281 620.246094 C 603.035156 615.351562 562.9375 613.15625 522.6875 613.660156 Z M 522.6875 613.660156 " fill-opacity="1" fill-rule="nonzero"/><path fill="#c09949" d="M 702.484375 627.050781 C 701.910156 628.238281 684.921875 663.582031 683.339844 667.578125 C 686.71875 670.433594 714.777344 695.546875 714.777344 695.546875 C 691.203125 700.820312 667.390625 704.582031 643.339844 706.832031 L 646.195312 705.292969 C 647.527344 704.597656 648.6875 703.679688 649.671875 702.542969 C 650.660156 701.40625 651.402344 700.125 651.902344 698.707031 C 669.464844 696.777344 687.335938 693.527344 698.96875 691.242188 C 677.808594 673.109375 689.136719 682.683594 674.03125 669.554688 C 674.03125 669.554688 685.929688 645.316406 689.664062 636.800781 C 682.285156 638.203125 669.113281 640.707031 654.933594 642.066406 C 655.195312 639.433594 655.503906 637.019531 655.808594 634.78125 C 679.035156 632.277344 702.484375 627.007812 702.484375 627.007812 Z M 702.484375 627.050781 " fill-opacity="1" fill-rule="nonzero"/><path fill="#ffffff" d="M 392.242188 672.804688 C 390.699219 672.394531 389.132812 672.113281 387.542969 671.96875 L 378.761719 670.871094 C 376.609375 670.609375 375.820312 670.5625 374.371094 670.476562 C 374.484375 668.617188 374.484375 666.757812 374.371094 664.898438 L 374.371094 644 C 374.46875 642.128906 374.46875 640.253906 374.371094 638.378906 C 375.558594 638.601562 376.347656 638.730469 378.761719 638.996094 L 387.851562 640.136719 C 389.308594 640.332031 390.773438 640.40625 392.242188 640.355469 L 392.242188 647.511719 C 390.796875 647.144531 389.332031 646.882812 387.851562 646.722656 L 380.429688 645.84375 L 380.429688 651.464844 L 386.578125 652.210938 C 388.035156 652.40625 389.496094 652.496094 390.96875 652.472656 L 390.96875 659.632812 C 389.523438 659.257812 388.058594 658.996094 386.578125 658.839844 L 380.386719 658.09375 L 380.386719 664.546875 L 387.761719 665.425781 C 389.304688 665.65625 390.855469 665.757812 392.417969 665.734375 Z M 392.242188 672.804688 " fill-opacity="1" fill-rule="nonzero"/><path fill="#ffffff" d="M 322.738281 665.382812 C 321.289062 665.070312 319.828125 664.882812 318.347656 664.8125 L 309.875 664.285156 C 307.851562 664.285156 307.105469 664.285156 305.921875 664.285156 C 306.050781 662.425781 306.050781 660.566406 305.921875 658.707031 L 305.921875 637.808594 C 305.933594 635.929688 305.84375 634.058594 305.65625 632.191406 C 306.800781 632.191406 307.546875 632.410156 309.609375 632.539062 L 318.390625 633.113281 C 319.722656 633.226562 321.054688 633.226562 322.386719 633.113281 L 322.386719 640.269531 C 321.070312 639.984375 319.738281 639.824219 318.390625 639.785156 L 311.367188 639.347656 L 311.367188 644.964844 L 317.160156 645.316406 C 318.507812 645.449219 319.855469 645.449219 321.199219 645.316406 L 321.199219 652.386719 C 319.867188 652.105469 318.523438 651.929688 317.160156 651.859375 L 311.367188 651.507812 L 311.367188 657.917969 L 318.304688 658.359375 C 319.765625 658.492188 321.230469 658.492188 322.695312 658.359375 Z M 322.738281 665.382812 " fill-opacity="1" fill-rule="nonzero"/><path fill="#ffffff" d="M 266.316406 656.910156 C 266.28125 659.125 266.382812 661.335938 266.625 663.539062 L 260.304688 663.539062 C 260.421875 661.359375 260.421875 659.175781 260.304688 656.996094 L 260.304688 637.152344 C 260.320312 635.289062 260.234375 633.429688 260.039062 631.574219 C 261.226562 631.574219 262.058594 631.574219 264.429688 631.574219 L 272.949219 631.574219 C 274.613281 631.644531 276.265625 631.542969 277.910156 631.265625 L 277.910156 638.554688 C 276.277344 638.34375 274.636719 638.269531 272.992188 638.335938 L 266.140625 638.335938 L 266.140625 644.613281 L 271.675781 644.613281 C 273.25 644.660156 274.816406 644.554688 276.371094 644.308594 L 276.371094 651.375 C 274.792969 651.265625 273.210938 651.265625 271.628906 651.375 L 266.097656 651.375 Z M 266.316406 656.910156 " fill-opacity="1" fill-rule="nonzero"/><path fill="#ffffff" d="M 296.832031 664.023438 C 296.449219 661.929688 295.910156 659.882812 295.207031 657.875 C 294.242188 654.492188 293.890625 653.484375 293.101562 652.78125 C 292.800781 652.425781 292.441406 652.152344 292.019531 651.957031 C 291.59375 651.765625 291.152344 651.675781 290.6875 651.683594 L 287.480469 651.683594 L 287.480469 657.960938 C 287.375 659.894531 287.375 661.828125 287.480469 663.757812 L 280.71875 663.757812 C 280.941406 661.847656 281.042969 659.929688 281.027344 658.007812 L 281.027344 637.414062 C 281.144531 635.542969 281.144531 633.667969 281.027344 631.792969 L 293.847656 631.792969 C 294.410156 631.777344 294.96875 631.820312 295.523438 631.925781 C 296.074219 632.027344 296.613281 632.191406 297.128906 632.410156 C 297.648438 632.628906 298.136719 632.902344 298.597656 633.230469 C 299.054688 633.558594 299.472656 633.929688 299.851562 634.347656 C 300.230469 634.765625 300.558594 635.21875 300.835938 635.707031 C 301.117188 636.195312 301.339844 636.710938 301.507812 637.246094 C 301.675781 637.785156 301.785156 638.335938 301.832031 638.894531 C 301.878906 639.457031 301.867188 640.015625 301.792969 640.574219 C 301.871094 641.695312 301.746094 642.792969 301.421875 643.867188 C 301.097656 644.941406 300.589844 645.921875 299.90625 646.808594 C 299.082031 647.710938 298.085938 648.339844 296.921875 648.699219 C 298.5 649.3125 299.203125 650.234375 300.214844 653.089844 C 300.652344 654.316406 301.089844 655.636719 302.453125 659.804688 C 302.804688 660.902344 303.15625 661.871094 303.945312 663.890625 Z M 292.441406 645.316406 C 294.285156 645.316406 295.429688 644 295.429688 641.804688 C 295.429688 639.609375 294.460938 638.511719 292.53125 638.46875 L 287.570312 638.46875 L 287.570312 645.273438 Z M 292.441406 645.316406 " fill-opacity="1" fill-rule="nonzero"/><path fill="#ffffff" d="M 191.984375 657.039062 C 192.035156 658.066406 192.328125 659.015625 192.863281 659.894531 C 193.230469 660.464844 193.714844 660.90625 194.320312 661.210938 C 194.925781 661.519531 195.566406 661.648438 196.242188 661.605469 C 196.480469 661.617188 196.714844 661.597656 196.949219 661.554688 C 197.179688 661.511719 197.40625 661.445312 197.625 661.351562 C 197.84375 661.261719 198.050781 661.144531 198.242188 661.007812 C 198.4375 660.871094 198.613281 660.714844 198.769531 660.539062 C 198.929688 660.363281 199.066406 660.171875 199.183594 659.96875 C 199.300781 659.761719 199.394531 659.546875 199.464844 659.320312 C 199.535156 659.09375 199.582031 658.859375 199.601562 658.625 C 199.617188 658.390625 199.613281 658.152344 199.582031 657.917969 C 199.597656 657.390625 199.492188 656.890625 199.257812 656.414062 C 199.023438 655.941406 198.691406 655.546875 198.261719 655.242188 C 196.859375 654.582031 195.394531 654.097656 193.871094 653.792969 C 192.128906 653.539062 190.578125 652.851562 189.21875 651.726562 C 188.21875 650.753906 187.453125 649.621094 186.917969 648.332031 C 186.386719 647.042969 186.128906 645.703125 186.144531 644.308594 C 186.042969 643.675781 186.007812 643.039062 186.046875 642.398438 C 186.082031 641.757812 186.1875 641.132812 186.363281 640.515625 C 186.535156 639.898438 186.777344 639.308594 187.078125 638.742188 C 187.382812 638.179688 187.742188 637.652344 188.164062 637.167969 C 188.582031 636.683594 189.046875 636.25 189.558594 635.863281 C 190.074219 635.480469 190.621094 635.160156 191.207031 634.894531 C 191.792969 634.632812 192.398438 634.433594 193.023438 634.304688 C 193.652344 634.175781 194.285156 634.113281 194.925781 634.121094 C 195.726562 634.03125 196.519531 634.058594 197.308594 634.203125 C 198.097656 634.351562 198.851562 634.605469 199.566406 634.972656 C 200.28125 635.339844 200.925781 635.800781 201.503906 636.359375 C 202.082031 636.917969 202.570312 637.546875 202.960938 638.25 C 203.816406 639.675781 204.359375 641.210938 204.585938 642.859375 L 198.613281 644.042969 C 198.175781 641.496094 197.121094 640.488281 194.96875 640.574219 C 194.5625 640.585938 194.171875 640.675781 193.800781 640.847656 C 193.429688 641.019531 193.109375 641.253906 192.835938 641.558594 C 192.5625 641.859375 192.359375 642.203125 192.226562 642.589844 C 192.09375 642.976562 192.042969 643.375 192.074219 643.78125 C 192.074219 644.292969 192.203125 644.765625 192.460938 645.207031 C 192.722656 645.648438 193.074219 645.992188 193.523438 646.238281 C 194.09375 646.589844 194.09375 646.589844 197.472656 647.382812 C 199.191406 647.699219 200.757812 648.371094 202.171875 649.402344 C 203.300781 650.390625 204.164062 651.570312 204.761719 652.945312 C 205.363281 654.324219 205.640625 655.761719 205.597656 657.261719 C 205.710938 658.539062 205.625 659.804688 205.339844 661.058594 C 205.054688 662.308594 204.585938 663.488281 203.925781 664.59375 C 203.511719 665.171875 203.03125 665.691406 202.484375 666.152344 C 201.941406 666.613281 201.351562 667.003906 200.710938 667.320312 C 200.074219 667.640625 199.40625 667.875 198.710938 668.03125 C 198.011719 668.183594 197.308594 668.253906 196.59375 668.238281 C 194.277344 668.378906 192.140625 667.820312 190.183594 666.566406 C 189.378906 665.964844 188.699219 665.246094 188.140625 664.410156 C 187.585938 663.574219 187.183594 662.667969 186.9375 661.695312 C 186.535156 660.507812 186.269531 659.292969 186.144531 658.050781 Z M 191.984375 657.039062 " fill-opacity="1" fill-rule="nonzero"/><path fill="#ffffff" d="M 225.527344 665.207031 C 225.132812 663.40625 224.871094 662.441406 224.476562 661.167969 L 223.421875 658.007812 L 214.949219 658.707031 L 214.421875 662 C 214.160156 663.453125 214.011719 664.917969 213.980469 666.390625 L 207.042969 666.964844 C 207.394531 665.777344 207.570312 664.855469 208.097656 662.175781 L 212.488281 638.820312 C 212.824219 637.375 213.027344 635.910156 213.105469 634.429688 L 220.875 633.769531 C 221.242188 635.144531 221.695312 636.492188 222.234375 637.808594 L 230.535156 660.113281 C 231.28125 662.089844 231.894531 663.625 232.335938 664.503906 Z M 217.671875 640.574219 L 215.824219 652.210938 L 221.445312 651.726562 Z M 217.671875 640.574219 " fill-opacity="1" fill-rule="nonzero"/><path fill="#ffffff" d="M 248.273438 647.777344 C 249.195312 649.402344 249.808594 650.585938 250.601562 652.167969 C 250.601562 650.410156 250.292969 648.65625 250.203125 646.503906 L 249.898438 637.722656 C 249.835938 635.765625 249.675781 633.820312 249.414062 631.882812 L 255.738281 631.664062 C 255.601562 633.667969 255.585938 635.671875 255.691406 637.679688 L 256.4375 657.960938 C 256.503906 659.875 256.664062 661.777344 256.921875 663.671875 L 250.425781 664.023438 C 249.722656 662.386719 248.917969 660.808594 248.007812 659.28125 L 242.125 648.785156 C 241.292969 647.292969 240.765625 646.152344 239.84375 644.175781 C 239.84375 645.886719 240.195312 647.996094 240.238281 649.839844 L 240.589844 658.621094 C 240.632812 660.605469 240.777344 662.582031 241.027344 664.546875 L 234.707031 664.8125 C 234.824219 662.808594 234.824219 660.800781 234.707031 658.796875 L 233.960938 638.644531 C 233.960938 636.449219 233.960938 634.734375 233.519531 632.980469 L 239.929688 632.714844 C 240.546875 634.351562 241.308594 635.917969 242.214844 637.414062 Z M 248.273438 647.777344 " fill-opacity="1" fill-rule="nonzero"/><path fill="#ffffff" d="M 340.609375 645.40625 C 340.035156 641.9375 338.414062 640.222656 335.820312 640.222656 C 332.089844 640.222656 329.9375 643.867188 329.9375 650.191406 C 329.9375 656.511719 332.175781 660.203125 335.953125 660.203125 C 336.367188 660.207031 336.773438 660.160156 337.171875 660.050781 C 337.570312 659.945312 337.945312 659.78125 338.296875 659.570312 C 338.652344 659.355469 338.96875 659.097656 339.25 658.792969 C 339.53125 658.492188 339.761719 658.15625 339.949219 657.785156 C 340.519531 656.761719 340.824219 655.664062 340.871094 654.492188 L 347.195312 655.679688 C 346.914062 658.214844 346.066406 660.542969 344.648438 662.660156 C 344.167969 663.335938 343.613281 663.945312 342.984375 664.480469 C 342.351562 665.019531 341.664062 665.46875 340.921875 665.835938 C 340.175781 666.199219 339.398438 666.464844 338.585938 666.636719 C 337.777344 666.804688 336.957031 666.867188 336.128906 666.832031 C 335.277344 666.828125 334.4375 666.730469 333.609375 666.535156 C 332.78125 666.335938 331.984375 666.050781 331.222656 665.667969 C 330.460938 665.289062 329.753906 664.824219 329.097656 664.277344 C 328.445312 663.734375 327.859375 663.121094 327.347656 662.441406 C 326.105469 660.613281 325.1875 658.636719 324.585938 656.511719 C 323.984375 654.386719 323.734375 652.222656 323.835938 650.015625 C 323.726562 647.777344 323.988281 645.585938 324.609375 643.433594 C 325.234375 641.28125 326.191406 639.289062 327.480469 637.457031 C 328.011719 636.816406 328.613281 636.238281 329.277344 635.734375 C 329.9375 635.226562 330.652344 634.800781 331.410156 634.453125 C 332.171875 634.105469 332.960938 633.851562 333.78125 633.683594 C 334.597656 633.515625 335.425781 633.441406 336.261719 633.460938 C 337.148438 633.449219 338.023438 633.550781 338.886719 633.773438 C 339.746094 633.992188 340.5625 634.324219 341.335938 634.761719 C 342.109375 635.203125 342.808594 635.738281 343.4375 636.367188 C 344.066406 636.996094 344.601562 637.695312 345.042969 638.46875 C 346.035156 640.078125 346.664062 641.820312 346.929688 643.691406 Z M 340.609375 645.40625 " fill-opacity="1" fill-rule="nonzero"/><path fill="#ffffff" d="M 365.808594 648.171875 C 365.238281 644.703125 363.613281 642.992188 360.980469 642.992188 C 357.292969 642.992188 355.140625 646.679688 355.140625 652.957031 C 355.140625 659.234375 357.378906 662.96875 361.15625 662.96875 C 361.570312 662.976562 361.972656 662.925781 362.371094 662.816406 C 362.773438 662.710938 363.148438 662.550781 363.5 662.335938 C 363.855469 662.121094 364.171875 661.863281 364.453125 661.5625 C 364.730469 661.257812 364.964844 660.921875 365.152344 660.554688 C 365.675781 659.515625 365.984375 658.417969 366.074219 657.261719 L 372.394531 658.445312 C 372.097656 660.972656 371.246094 663.300781 369.847656 665.425781 C 369.382812 666.125 368.839844 666.75 368.214844 667.308594 C 367.589844 667.867188 366.902344 668.339844 366.15625 668.722656 C 365.414062 669.109375 364.632812 669.394531 363.8125 669.578125 C 362.996094 669.761719 362.167969 669.84375 361.332031 669.816406 C 360.480469 669.8125 359.640625 669.714844 358.8125 669.515625 C 357.984375 669.320312 357.1875 669.03125 356.425781 668.648438 C 355.664062 668.269531 354.957031 667.804688 354.300781 667.261719 C 353.648438 666.71875 353.0625 666.105469 352.550781 665.425781 C 351.292969 663.597656 350.359375 661.617188 349.75 659.484375 C 349.140625 657.347656 348.890625 655.175781 348.992188 652.957031 C 348.882812 650.714844 349.144531 648.519531 349.773438 646.367188 C 350.40625 644.214844 351.375 642.226562 352.683594 640.398438 C 353.214844 639.757812 353.8125 639.183594 354.476562 638.675781 C 355.140625 638.167969 355.855469 637.742188 356.613281 637.394531 C 357.375 637.050781 358.164062 636.792969 358.980469 636.625 C 359.800781 636.457031 360.628906 636.382812 361.464844 636.40625 C 362.351562 636.390625 363.226562 636.492188 364.089844 636.714844 C 364.949219 636.933594 365.765625 637.265625 366.539062 637.707031 C 367.3125 638.144531 368.011719 638.679688 368.640625 639.308594 C 369.269531 639.9375 369.804688 640.636719 370.246094 641.410156 C 371.242188 643.035156 371.875 644.789062 372.132812 646.679688 Z M 365.808594 648.171875 " fill-opacity="1" fill-rule="nonzero"/><path fill="#ffffff" d="M 474.039062 665.820312 C 473.695312 663.855469 473.210938 661.921875 472.589844 660.027344 C 471.625 656.777344 471.273438 655.941406 470.527344 655.195312 C 470.242188 654.875 469.894531 654.640625 469.488281 654.5 C 469.082031 654.359375 468.667969 654.328125 468.242188 654.40625 L 465.214844 654.714844 L 465.214844 660.992188 C 465.179688 662.914062 465.253906 664.832031 465.433594 666.742188 L 459.066406 667.445312 C 459.269531 665.535156 459.355469 663.617188 459.328125 661.695312 L 459.328125 641.058594 C 459.34375 639.195312 459.257812 637.335938 459.066406 635.484375 C 460.382812 635.484375 461.480469 635.484375 463.457031 635.132812 L 471.140625 634.296875 C 475.925781 633.769531 478.738281 636.667969 478.738281 642.199219 C 478.847656 644.542969 478.261719 646.691406 476.980469 648.65625 C 476.226562 649.632812 475.289062 650.378906 474.171875 650.894531 C 475.664062 651.332031 476.367188 652.121094 477.289062 654.757812 C 477.726562 655.898438 478.164062 657.171875 479.484375 661.167969 C 479.835938 662.222656 480.183594 663.144531 480.933594 665.074219 Z M 469.648438 647.6875 C 470.085938 647.613281 470.496094 647.457031 470.875 647.222656 C 471.253906 646.988281 471.574219 646.6875 471.839844 646.328125 C 472.101562 645.964844 472.285156 645.570312 472.390625 645.136719 C 472.5 644.703125 472.523438 644.265625 472.457031 643.824219 C 472.457031 641.671875 471.535156 640.664062 469.691406 640.839844 L 465.039062 641.367188 L 465.039062 648.171875 Z M 469.648438 647.6875 " fill-opacity="1" fill-rule="nonzero"/><path fill="#ffffff" d="M 504.332031 647.46875 C 504.554688 657.566406 499.941406 664.503906 492.785156 665.03125 C 485.628906 665.558594 480.757812 659.105469 480.492188 648.960938 C 480.230469 638.820312 484.882812 632.144531 491.996094 631.792969 C 499.109375 631.441406 504.070312 637.414062 504.332031 647.46875 Z M 498.1875 647.863281 C 498.1875 641.628906 495.726562 638.027344 492.171875 638.203125 C 488.617188 638.378906 486.421875 642.289062 486.597656 648.433594 C 486.769531 654.582031 489.054688 658.445312 492.65625 658.226562 C 496.253906 658.007812 498.320312 654.144531 498.1875 647.863281 Z M 498.1875 647.863281 " fill-opacity="1" fill-rule="nonzero"/><path fill="#ffffff" d="M 511.710938 652.472656 C 511.710938 653.492188 511.960938 654.441406 512.457031 655.328125 C 512.835938 655.914062 513.335938 656.367188 513.953125 656.6875 C 514.570312 657.007812 515.230469 657.15625 515.925781 657.128906 C 516.164062 657.152344 516.402344 657.152344 516.640625 657.128906 C 516.878906 657.101562 517.109375 657.050781 517.335938 656.972656 C 517.5625 656.898438 517.78125 656.796875 517.984375 656.671875 C 518.191406 656.550781 518.378906 656.40625 518.550781 656.238281 C 518.726562 656.074219 518.878906 655.894531 519.011719 655.695312 C 519.148438 655.496094 519.257812 655.285156 519.34375 655.0625 C 519.433594 654.839844 519.496094 654.609375 519.535156 654.375 C 519.570312 654.136719 519.582031 653.898438 519.570312 653.660156 C 519.597656 653.140625 519.503906 652.640625 519.285156 652.167969 C 519.066406 651.695312 518.753906 651.300781 518.339844 650.980469 C 516.933594 650.308594 515.46875 649.792969 513.949219 649.445312 C 512.167969 649.125 510.585938 648.378906 509.207031 647.207031 C 508.234375 646.242188 507.496094 645.121094 507 643.84375 C 506.503906 642.566406 506.289062 641.242188 506.351562 639.875 C 506.289062 639.230469 506.296875 638.589844 506.375 637.949219 C 506.453125 637.3125 506.597656 636.6875 506.8125 636.078125 C 507.027344 635.472656 507.304688 634.894531 507.648438 634.347656 C 507.988281 633.800781 508.386719 633.300781 508.839844 632.839844 C 509.292969 632.382812 509.789062 631.976562 510.332031 631.628906 C 510.871094 631.277344 511.445312 630.992188 512.050781 630.769531 C 512.65625 630.546875 513.277344 630.390625 513.914062 630.304688 C 514.554688 630.21875 515.195312 630.203125 515.835938 630.257812 C 516.660156 630.203125 517.472656 630.261719 518.277344 630.433594 C 519.082031 630.605469 519.847656 630.886719 520.570312 631.273438 C 521.296875 631.664062 521.957031 632.144531 522.546875 632.71875 C 523.136719 633.289062 523.636719 633.933594 524.046875 634.648438 C 524.820312 636.019531 525.316406 637.480469 525.539062 639.039062 L 519.261719 639.917969 C 518.910156 637.414062 517.855469 636.40625 515.617188 636.40625 C 515.207031 636.375 514.804688 636.425781 514.414062 636.566406 C 514.023438 636.703125 513.679688 636.914062 513.378906 637.199219 C 513.078125 637.484375 512.847656 637.816406 512.6875 638.199219 C 512.527344 638.578125 512.449219 638.976562 512.457031 639.390625 C 512.433594 639.902344 512.546875 640.378906 512.800781 640.824219 C 513.054688 641.269531 513.410156 641.609375 513.863281 641.847656 C 514.433594 642.199219 514.433594 642.199219 517.945312 643.121094 C 519.699219 643.507812 521.292969 644.242188 522.730469 645.316406 C 523.851562 646.296875 524.691406 647.472656 525.257812 648.847656 C 525.820312 650.222656 526.046875 651.652344 525.9375 653.132812 C 525.992188 654.386719 525.84375 655.613281 525.492188 656.816406 C 525.136719 658.023438 524.597656 659.136719 523.871094 660.15625 C 522.898438 661.285156 521.722656 662.136719 520.347656 662.707031 C 518.972656 663.277344 517.542969 663.511719 516.058594 663.40625 C 513.65625 663.488281 511.460938 662.859375 509.472656 661.519531 C 508.675781 660.914062 508 660.191406 507.453125 659.355469 C 506.902344 658.519531 506.507812 657.617188 506.265625 656.644531 C 505.925781 655.480469 505.707031 654.296875 505.605469 653.089844 Z M 511.710938 652.472656 " fill-opacity="1" fill-rule="nonzero"/><path fill="#ffffff" d="M 444.488281 637.28125 C 444.261719 639.195312 444.175781 641.109375 444.226562 643.035156 L 444.226562 663.714844 C 444.191406 665.621094 444.277344 667.523438 444.488281 669.421875 L 438.035156 670.300781 C 438.144531 668.382812 438.144531 666.464844 438.035156 664.546875 L 438.035156 657.039062 L 427.980469 658.402344 L 427.980469 665.910156 C 427.875 667.8125 427.875 669.714844 427.980469 671.617188 L 421.527344 672.496094 C 421.75 670.585938 421.839844 668.667969 421.789062 666.742188 L 421.789062 646.019531 C 421.835938 644.109375 421.75 642.207031 421.527344 640.3125 L 427.980469 639.433594 C 427.882812 641.351562 427.882812 643.269531 427.980469 645.1875 L 427.980469 651.597656 L 438.035156 650.234375 L 438.035156 643.824219 C 438.148438 641.9375 438.148438 640.046875 438.035156 638.160156 Z M 444.488281 637.28125 " fill-opacity="1" fill-rule="nonzero"/><path fill="#ffffff" d="M 454.984375 636.007812 C 454.777344 637.90625 454.6875 639.808594 454.71875 641.71875 L 454.71875 662.398438 C 454.691406 664.289062 454.78125 666.179688 454.984375 668.0625 L 448.351562 668.808594 C 448.554688 666.894531 448.644531 664.976562 448.617188 663.054688 L 448.617188 642.417969 C 448.648438 640.527344 448.5625 638.636719 448.351562 636.753906 Z M 454.984375 636.007812 " fill-opacity="1" fill-rule="nonzero"/><path fill="#ffffff" d="M 550.523438 631.09375 C 550.339844 632.945312 550.265625 634.804688 550.304688 636.667969 L 550.304688 656.996094 C 550.277344 658.859375 550.347656 660.71875 550.523438 662.574219 L 544.070312 662.574219 C 544.292969 660.71875 544.378906 658.863281 544.332031 656.996094 L 544.332031 649.621094 L 534.234375 649.621094 L 534.234375 656.996094 C 534.214844 658.859375 534.304688 660.71875 534.496094 662.574219 L 527.910156 662.574219 C 528.097656 660.71875 528.167969 658.859375 528.132812 656.996094 L 528.132812 636.667969 C 528.167969 634.804688 528.09375 632.945312 527.910156 631.09375 L 534.367188 631.09375 C 534.175781 632.945312 534.089844 634.804688 534.101562 636.667969 L 534.101562 642.992188 L 544.199219 642.992188 L 544.199219 636.667969 C 544.25 634.804688 544.164062 632.945312 543.9375 631.09375 Z M 550.523438 631.09375 " fill-opacity="1" fill-rule="nonzero"/><path fill="#ffffff" d="M 561.808594 631.222656 C 561.558594 633.089844 561.457031 634.960938 561.5 636.84375 L 561.28125 657.128906 C 561.152344 659 561.152344 660.875 561.28125 662.75 L 554.605469 662.75 C 554.851562 660.882812 554.953125 659.007812 554.914062 657.128906 L 555.132812 636.800781 C 555.265625 634.925781 555.265625 633.054688 555.132812 631.179688 Z M 561.808594 631.222656 " fill-opacity="1" fill-rule="nonzero"/><path fill="#ffffff" d="M 576.472656 663.40625 C 576.261719 661.476562 575.910156 659.574219 575.417969 657.699219 L 573.046875 647.46875 C 573.046875 647.46875 572.257812 643.691406 572.167969 643.386719 C 571.90625 642.023438 571.90625 642.023438 571.773438 641.496094 C 571.773438 643.867188 571.773438 646.984375 571.773438 649.003906 L 571.421875 657.261719 C 571.289062 659.234375 571.289062 661.210938 571.421875 663.1875 L 565.453125 662.925781 C 565.738281 660.972656 565.898438 659.011719 565.933594 657.039062 L 566.769531 637.238281 C 566.769531 634.957031 566.769531 632.847656 566.769531 631.269531 L 574.757812 631.617188 C 574.945312 633.441406 575.253906 635.238281 575.679688 637.019531 L 579.546875 653.617188 L 584.769531 637.414062 C 585.375 635.683594 585.8125 633.914062 586.085938 632.101562 L 594.121094 632.453125 C 593.84375 634.417969 593.683594 636.394531 593.640625 638.378906 L 592.804688 658.183594 C 592.667969 660.144531 592.667969 662.105469 592.804688 664.066406 L 586.832031 664.066406 C 587.097656 662.113281 587.261719 660.152344 587.316406 658.183594 L 587.667969 649.882812 C 587.667969 648.960938 587.929688 646.109375 588.019531 644.921875 L 588.238281 642.375 C 587.449219 645.273438 587.097656 646.765625 586.660156 647.996094 L 583.277344 658.3125 C 582.636719 660.121094 582.125 661.964844 581.742188 663.847656 Z M 576.472656 663.40625 " fill-opacity="1" fill-rule="nonzero"/><path fill="#ffffff" d="M 613.308594 665.953125 C 613.308594 664.109375 613.308594 663.144531 612.957031 661.828125 L 612.429688 658.488281 L 604 657.832031 L 602.945312 660.992188 C 602.46875 662.308594 602.105469 663.65625 601.847656 665.03125 L 594.914062 664.460938 C 595.621094 663.035156 596.238281 661.574219 596.757812 660.070312 L 605.011719 637.679688 C 605.546875 636.363281 605.984375 635.015625 606.328125 633.636719 L 614.054688 634.296875 C 614.160156 635.777344 614.382812 637.242188 614.714844 638.6875 L 619.105469 662.089844 C 619.5 664.152344 619.851562 665.777344 620.160156 666.875 Z M 609.664062 640.355469 L 605.933594 651.550781 L 611.507812 651.992188 Z M 609.664062 640.355469 " fill-opacity="1" fill-rule="nonzero"/></svg>