<svg xmlns="http://www.w3.org/2000/svg" xmlns:xlink="http://www.w3.org/1999/xlink" width="1080" zoomAndPan="magnify" viewBox="0 0 810 809.999993" height="1080" preserveAspectRatio="xMidYMid meet" version="1.0"><path fill="#2a385f" d="M 395.539062 812.191406 L 396.5625 812.601562 L 397.484375 813.066406 L 402.769531 813.066406 C 403.230469 813.167969 403.691406 813.167969 404.152344 813.066406 L 409.691406 813.066406 L 410.613281 812.601562 L 411.640625 812.191406 C 421.703125 807.714844 431.609375 802.90625 441.355469 797.773438 C 451.101562 792.640625 460.667969 787.191406 470.054688 781.429688 C 479.445312 775.664062 488.628906 769.59375 497.617188 763.222656 C 506.601562 756.851562 515.367188 750.191406 523.914062 743.238281 C 532.460938 736.289062 540.769531 729.066406 548.839844 721.566406 C 556.90625 714.066406 564.71875 706.308594 572.277344 698.296875 C 579.835938 690.28125 587.121094 682.023438 594.132812 673.527344 C 601.144531 665.03125 607.867188 656.316406 614.304688 647.375 C 701.480469 526.453125 719.636719 382.867188 719.636719 283.6875 C 719.65625 247.679688 717.195312 211.84375 712.25 176.179688 C 707.304688 140.511719 699.917969 105.359375 690.097656 70.71875 L 686.097656 57.433594 L 685.070312 54.359375 L 684.609375 53.023438 L 684.199219 51.898438 L 684.199219 50.972656 L 683.789062 50.972656 C 683.417969 50.589844 682.972656 50.339844 682.453125 50.21875 C 681.929688 50.097656 681.421875 50.125 680.917969 50.308594 L 661.585938 56.667969 C 649.28125 61 636.710938 64.339844 623.882812 66.6875 C 611.050781 69.035156 598.113281 70.359375 585.074219 70.667969 C 538.917969 70.667969 504.203125 50.972656 487.945312 15.28125 L 482.511719 3.4375 C 482.277344 2.921875 481.925781 2.511719 481.453125 2.203125 C 480.976562 1.898438 480.460938 1.746094 479.894531 1.742188 L 328.308594 1.742188 C 327.738281 1.753906 327.214844 1.910156 326.734375 2.214844 C 326.257812 2.519531 325.890625 2.925781 325.640625 3.4375 L 320.257812 15.28125 C 304 51.179688 269.488281 70.667969 223.128906 70.667969 C 210.089844 70.359375 197.152344 69.035156 184.320312 66.6875 C 171.488281 64.339844 158.921875 61 146.617188 56.667969 L 127.285156 48.972656 C 126.78125 48.792969 126.269531 48.761719 125.75 48.882812 C 125.230469 49.003906 124.785156 49.257812 124.414062 49.640625 L 124.003906 49.640625 L 124.003906 50.5625 L 123.59375 51.691406 L 123.132812 53.023438 L 122.105469 56.101562 L 118.105469 69.382812 C 108.285156 104.027344 100.898438 139.179688 95.953125 174.84375 C 91.007812 210.511719 88.542969 246.347656 88.566406 282.355469 C 88.566406 381.53125 106.824219 525.121094 193.898438 646.042969 C 200.335938 654.984375 207.054688 663.703125 214.066406 672.199219 C 221.078125 680.695312 228.359375 688.953125 235.917969 696.96875 C 243.472656 704.984375 251.285156 712.742188 259.355469 720.242188 C 267.425781 727.742188 275.730469 734.96875 284.277344 741.917969 C 292.824219 748.867188 301.59375 755.53125 310.578125 761.902344 C 319.566406 768.273438 328.753906 774.339844 338.140625 780.101562 C 347.527344 785.867188 357.097656 791.316406 366.84375 796.445312 C 376.589844 801.578125 386.496094 806.382812 396.5625 810.859375 " fill-opacity="1" fill-rule="nonzero"/><path fill="#f08300" d="M 670.457031 77.078125 C 656.996094 81.84375 643.242188 85.519531 629.199219 88.101562 C 615.152344 90.679688 600.992188 92.132812 586.714844 92.460938 C 531.175781 92.460938 488.355469 66.820312 468.765625 23.539062 L 341.332031 23.539062 C 321.488281 67.078125 278.667969 92.460938 223.386719 92.460938 C 209.101562 92.132812 194.933594 90.675781 180.878906 88.097656 C 166.824219 85.515625 153.0625 81.84375 139.59375 77.078125 C 130.054688 110.683594 122.882812 144.785156 118.082031 179.386719 C 113.28125 213.988281 110.898438 248.753906 110.925781 283.6875 C 110.925781 405.019531 138.566406 531.992188 211.898438 633.835938 C 218.027344 642.359375 224.429688 650.671875 231.105469 658.769531 C 237.785156 666.871094 244.71875 674.742188 251.917969 682.382812 C 259.113281 690.027344 266.554688 697.421875 274.238281 704.574219 C 281.921875 711.722656 289.835938 718.613281 297.976562 725.242188 C 306.113281 731.867188 314.464844 738.222656 323.023438 744.296875 C 331.582031 750.375 340.332031 756.164062 349.273438 761.660156 C 358.214844 767.160156 367.328125 772.359375 376.613281 777.257812 C 385.898438 782.152344 395.335938 786.738281 404.921875 791.015625 C 414.519531 786.746094 423.96875 782.164062 433.265625 777.269531 C 442.5625 772.375 451.6875 767.179688 460.636719 761.683594 C 469.589844 756.1875 478.351562 750.398438 486.921875 744.324219 C 495.496094 738.25 503.855469 731.898438 512.003906 725.269531 C 520.15625 718.640625 528.078125 711.75 535.773438 704.597656 C 543.46875 697.445312 550.921875 690.046875 558.128906 682.402344 C 565.335938 674.757812 572.28125 666.886719 578.964844 658.78125 C 585.652344 650.679688 592.0625 642.363281 598.199219 633.835938 C 671.480469 531.992188 699.175781 405.019531 699.175781 283.6875 C 699.207031 248.753906 696.820312 213.984375 692.011719 179.382812 C 687.199219 144.78125 680.015625 110.679688 670.457031 77.078125 M 574.148438 484.558594 C 558.484375 497.6875 541.816406 509.398438 524.152344 519.683594 L 519.332031 514.554688 C 518.769531 513.972656 518.117188 513.511719 517.382812 513.171875 L 510.101562 509.890625 C 509.347656 509.578125 508.578125 509.324219 507.792969 509.121094 L 501.125 507.582031 C 500.363281 507.351562 499.714844 506.941406 499.175781 506.351562 L 488.511719 493.378906 C 487.984375 492.757812 487.316406 492.398438 486.511719 492.300781 L 483.996094 492.300781 C 483.648438 492.289062 483.332031 492.390625 483.054688 492.601562 C 482.777344 492.8125 482.59375 493.089844 482.511719 493.429688 L 480.765625 501.992188 C 480.5625 502.777344 480.5625 503.566406 480.765625 504.351562 L 483.484375 511.222656 C 483.761719 512.007812 483.96875 512.8125 484.101562 513.632812 L 486.460938 532.402344 C 486.519531 533.195312 486.3125 533.914062 485.84375 534.554688 L 482.460938 538.402344 C 481.917969 538.988281 481.25 539.328125 480.460938 539.429688 L 472.972656 540.25 C 472.152344 540.328125 471.332031 540.328125 470.511719 540.25 L 468.820312 539.941406 L 444.152344 472.148438 C 495.433594 452.96875 537.945312 427.890625 568.046875 399.996094 C 572.015625 413.71875 574.511719 427.707031 575.539062 441.953125 C 576.570312 456.203125 576.105469 470.40625 574.148438 484.558594 M 306.101562 483.429688 L 305.128906 483.429688 C 304.328125 483.460938 303.589844 483.703125 302.921875 484.148438 L 301.898438 484.914062 C 301.222656 485.359375 300.488281 485.648438 299.691406 485.789062 L 298.976562 485.789062 C 298.183594 485.808594 297.484375 485.570312 296.871094 485.070312 L 295.4375 483.632812 C 295.152344 483.394531 294.828125 483.234375 294.464844 483.164062 C 294.097656 483.089844 293.738281 483.109375 293.386719 483.222656 L 291.898438 483.789062 C 291.160156 484.085938 290.546875 484.546875 290.050781 485.171875 L 289.589844 485.839844 C 281.726562 465.652344 276.410156 444.8125 273.640625 423.328125 L 265.539062 424.402344 C 268.46875 446.910156 274.089844 468.722656 282.410156 489.839844 C 271.082031 488.542969 260.011719 486.09375 249.195312 482.492188 C 238.378906 478.890625 228.046875 474.210938 218.207031 468.453125 L 217.179688 466.761719 L 221.695312 455.277344 C 221.695312 454.609375 222.257812 453.582031 222.410156 452.917969 L 228.359375 429.632812 C 228.535156 428.820312 228.652344 428 228.71875 427.171875 L 229.746094 407.636719 C 229.804688 406.828125 230.046875 406.074219 230.464844 405.378906 L 235.589844 397.53125 C 236.003906 396.835938 236.207031 396.085938 236.207031 395.277344 L 235.695312 384.351562 C 235.695312 383.996094 235.695312 383.429688 235.695312 382.917969 C 242.855469 384.882812 250.105469 386.457031 257.4375 387.636719 L 256.566406 392.25 C 256.476562 393.046875 256.644531 393.78125 257.078125 394.457031 L 260.71875 399.585938 C 260.9375 399.886719 261.214844 400.117188 261.550781 400.273438 C 261.890625 400.425781 262.246094 400.488281 262.617188 400.457031 L 263.746094 400.457031 C 263.746094 405.582031 264.207031 410.40625 264.71875 415.480469 L 272.820312 414.710938 C 271.996094 406.320312 271.621094 397.910156 271.695312 389.480469 C 279.335938 390.148438 287.078125 390.558594 295.386719 390.558594 C 313.113281 390.382812 330.703125 388.742188 348.15625 385.636719 C 365.609375 382.527344 382.683594 378 399.382812 372.046875 L 399.949219 373.636719 L 395.433594 379.996094 C 394.96875 380.667969 394.421875 381.265625 393.792969 381.789062 L 387.28125 386.917969 C 386.636719 387.4375 386.175781 388.085938 385.898438 388.867188 L 384.972656 391.429688 C 384.84375 391.742188 384.628906 391.976562 384.328125 392.132812 C 384.027344 392.285156 383.714844 392.328125 383.382812 392.25 L 380.972656 391.53125 C 380.214844 391.269531 379.632812 390.792969 379.230469 390.097656 L 378.871094 389.429688 C 378.523438 388.710938 378.523438 387.996094 378.871094 387.277344 L 381.332031 383.328125 C 381.535156 383.082031 381.578125 382.808594 381.464844 382.511719 C 381.351562 382.214844 381.136719 382.042969 380.820312 381.996094 C 380.03125 381.839844 379.296875 381.976562 378.613281 382.40625 L 373.179688 386.300781 C 372.597656 386.824219 372.253906 387.476562 372.152344 388.25 C 372.183594 389.050781 372.386719 389.804688 372.769531 390.507812 L 373.640625 391.941406 C 374.035156 392.644531 374.226562 393.394531 374.203125 394.199219 L 374.203125 397.890625 C 374.117188 398.703125 373.980469 399.507812 373.792969 400.300781 L 372.257812 405.996094 C 372.078125 406.789062 371.976562 407.589844 371.949219 408.40625 L 371.949219 412.917969 C 371.917969 413.742188 371.730469 414.527344 371.382812 415.277344 L 370.667969 416.660156 C 370.277344 417.355469 369.714844 417.851562 368.972656 418.148438 L 358.152344 421.6875 C 357.378906 421.945312 356.644531 422.285156 355.949219 422.710938 L 344.308594 429.890625 L 342.152344 431.070312 L 329.488281 436.660156 C 328.71875 436.867188 327.949219 436.867188 327.179688 436.660156 L 324.207031 435.941406 C 323.417969 435.808594 322.71875 435.996094 322.101562 436.507812 L 317.742188 440.507812 C 317.144531 441.078125 316.648438 441.726562 316.257812 442.457031 L 312.976562 449.019531 C 312.667969 449.632812 312.15625 450.609375 311.796875 451.171875 L 308.921875 455.890625 C 308.472656 456.574219 307.976562 457.222656 307.4375 457.839844 L 304.617188 460.761719 C 304.058594 461.371094 303.613281 462.054688 303.28125 462.8125 L 302.101562 465.738281 C 301.75 466.464844 301.21875 467.03125 300.511719 467.429688 C 299.765625 467.769531 298.976562 467.957031 298.15625 467.992188 L 297.230469 467.992188 C 296.421875 468.023438 295.703125 468.296875 295.078125 468.8125 L 294 469.839844 C 293.757812 470.121094 293.597656 470.445312 293.515625 470.808594 C 293.433594 471.171875 293.441406 471.53125 293.539062 471.890625 L 294.511719 474.96875 C 294.640625 475.320312 294.851562 475.613281 295.148438 475.847656 C 295.445312 476.078125 295.78125 476.210938 296.15625 476.25 L 299.230469 476.609375 C 300.050781 476.660156 300.835938 476.523438 301.589844 476.199219 L 309.949219 472.453125 C 310.707031 472.164062 311.496094 472.027344 312.308594 472.042969 L 317.078125 472.453125 C 317.230469 472.472656 317.382812 472.453125 317.527344 472.402344 C 317.671875 472.351562 317.800781 472.269531 317.910156 472.160156 C 318.019531 472.050781 318.101562 471.921875 318.152344 471.777344 C 318.203125 471.628906 318.222656 471.480469 318.207031 471.328125 L 317.898438 467.53125 C 317.894531 466.722656 318.101562 465.972656 318.511719 465.273438 L 319.230469 464.25 C 319.441406 463.960938 319.714844 463.753906 320.050781 463.632812 C 320.386719 463.511719 320.730469 463.492188 321.078125 463.582031 L 323.847656 464.507812 C 324.621094 464.714844 325.335938 464.597656 326 464.148438 L 338.308594 455.378906 C 338.96875 454.910156 339.703125 454.65625 340.511719 454.609375 L 344.152344 454.609375 C 344.949219 454.527344 345.5625 454.148438 346 453.480469 L 349.4375 447.070312 C 349.871094 446.394531 350.453125 445.878906 351.179688 445.53125 L 355.179688 443.992188 C 355.929688 443.726562 356.683594 443.726562 357.4375 443.992188 L 362.5625 445.992188 C 363.351562 446.179688 364.136719 446.179688 364.921875 445.992188 L 366.972656 445.632812 C 367.792969 445.558594 368.613281 445.558594 369.433594 445.632812 C 369.59375 445.628906 369.746094 445.652344 369.894531 445.710938 C 370.042969 445.765625 370.171875 445.851562 370.285156 445.964844 C 370.398438 446.074219 370.484375 446.207031 370.539062 446.355469 C 370.597656 446.503906 370.621094 446.65625 370.613281 446.8125 L 370.613281 447.328125 C 370.585938 448.132812 370.742188 448.902344 371.078125 449.632812 L 373.078125 454.042969 C 373.429688 454.773438 373.960938 455.339844 374.667969 455.738281 L 380.308594 458.8125 C 381.007812 459.164062 381.707031 459.164062 382.410156 458.8125 L 386.511719 456.097656 C 387.160156 455.605469 387.605469 454.972656 387.84375 454.199219 L 391.433594 440.710938 C 391.671875 439.921875 391.960938 439.152344 392.308594 438.402344 L 396.253906 430.507812 C 396.65625 429.816406 397.257812 429.421875 398.050781 429.328125 L 405.949219 428.558594 C 406.777344 428.488281 407.597656 428.367188 408.410156 428.199219 L 414.359375 427.070312 C 414.707031 426.976562 415.011719 426.800781 415.265625 426.542969 C 415.523438 426.285156 415.699219 425.984375 415.792969 425.636719 L 417.128906 419.839844 L 434.050781 466.300781 C 404.851562 477.066406 374.835938 484.554688 344 488.761719 L 344.308594 483.992188 C 344.371094 483.140625 344.695312 482.40625 345.28125 481.789062 L 350.050781 477.378906 C 350.34375 477.117188 350.683594 476.945312 351.0625 476.851562 C 351.445312 476.761719 351.824219 476.765625 352.203125 476.863281 L 357.898438 478.558594 C 358.046875 478.617188 358.207031 478.636719 358.367188 478.621094 C 358.527344 478.601562 358.675781 478.546875 358.8125 478.453125 C 358.945312 478.359375 359.050781 478.242188 359.125 478.097656 C 359.199219 477.949219 359.234375 477.796875 359.230469 477.632812 L 359.847656 471.992188 C 359.960938 471.140625 360.25 470.355469 360.71875 469.632812 L 362.667969 466.863281 C 362.84375 466.527344 362.933594 466.167969 362.933594 465.789062 C 362.933594 465.40625 362.84375 465.046875 362.667969 464.710938 L 359.898438 459.582031 C 359.472656 458.890625 358.855469 458.5 358.050781 458.402344 L 352.617188 458.402344 C 351.792969 458.449219 351.039062 458.707031 350.359375 459.171875 L 344.71875 463.53125 C 344.078125 464.066406 343.738281 464.75 343.691406 465.582031 L 343.691406 468.453125 C 343.65625 468.847656 343.53125 469.207031 343.324219 469.542969 C 343.117188 469.875 342.847656 470.144531 342.511719 470.351562 L 338.972656 472.25 C 338.207031 472.542969 337.4375 472.542969 336.667969 472.25 L 335.691406 471.839844 C 335.332031 471.691406 334.960938 471.644531 334.574219 471.703125 C 334.1875 471.757812 333.84375 471.90625 333.539062 472.148438 L 332.460938 473.019531 C 331.875 473.597656 331.585938 474.296875 331.589844 475.121094 L 331.949219 478.761719 C 331.984375 479.597656 331.777344 480.363281 331.332031 481.070312 L 328.820312 484.558594 C 328.71875 484.691406 328.648438 484.84375 328.605469 485.007812 C 328.5625 485.171875 328.554688 485.339844 328.578125 485.507812 C 328.601562 485.675781 328.65625 485.832031 328.742188 485.980469 C 328.828125 486.125 328.941406 486.25 329.078125 486.351562 L 330.972656 487.789062 C 331.613281 488.34375 332.058594 489.027344 332.308594 489.839844 L 332.308594 490.148438 C 326.425781 490.660156 320.632812 490.96875 314.921875 491.070312 L 312.667969 488.660156 C 312.410156 488.402344 312.105469 488.242188 311.75 488.175781 C 311.390625 488.109375 311.050781 488.152344 310.71875 488.300781 L 309.589844 488.863281 C 309.269531 489.015625 308.933594 489.058594 308.582031 488.992188 C 308.234375 488.925781 307.9375 488.765625 307.691406 488.503906 C 307.183594 487.875 306.960938 487.160156 307.027344 486.351562 L 307.027344 484.609375 C 307.046875 484.457031 307.039062 484.308594 306.996094 484.160156 C 306.957031 484.015625 306.886719 483.882812 306.789062 483.765625 C 306.691406 483.648438 306.574219 483.554688 306.433594 483.488281 C 306.296875 483.417969 306.152344 483.382812 306 483.378906 M 373.023438 151.535156 C 375.742188 151.125 378.511719 150.820312 381.230469 150.511719 C 383.949219 150.203125 385.949219 150.511719 388.253906 150.511719 C 393.214844 150.5 398.15625 150.808594 403.074219 151.433594 C 421.589844 153.742188 434.714844 160.304688 440.820312 170.152344 C 424.589844 168.847656 408.394531 169.214844 392.242188 171.265625 C 376.085938 173.3125 360.316406 176.992188 344.921875 182.304688 C 353.226562 171.078125 362.59375 160.820312 373.023438 151.535156 M 452.5625 179.640625 C 472.46875 182.660156 491.5625 188.386719 509.84375 196.816406 L 513.226562 213.382812 C 513.382812 214.183594 513.640625 214.953125 513.996094 215.6875 L 528.046875 245.945312 C 528.371094 246.699219 528.542969 247.484375 528.5625 248.304688 L 528.5625 259.226562 C 528.511719 260.046875 528.511719 260.867188 528.5625 261.6875 L 530.355469 272.457031 C 526.625 278.644531 522.421875 284.492188 517.742188 289.996094 L 514.664062 286.714844 C 503.082031 274.066406 490.675781 262.285156 477.449219 251.371094 C 464.222656 240.453125 450.304688 230.507812 435.691406 221.535156 C 447.742188 207.691406 453.894531 193.074219 452.355469 179.792969 M 439.28125 334.609375 L 437.84375 325.996094 C 437.84375 325.328125 437.84375 324.199219 437.84375 323.535156 L 437.179688 314.507812 C 437.078125 313.707031 436.804688 312.972656 436.355469 312.304688 L 431.230469 305.484375 C 430.710938 304.855469 430.128906 304.289062 429.484375 303.789062 L 420.714844 297.636719 C 420.035156 297.171875 419.46875 296.589844 419.023438 295.894531 L 411.84375 284.253906 C 411.375 283.609375 410.742188 283.269531 409.949219 283.226562 L 405.539062 283.226562 C 405.375 283.226562 405.222656 283.257812 405.074219 283.320312 C 404.925781 283.382812 404.796875 283.472656 404.683594 283.589844 C 404.574219 283.707031 404.488281 283.839844 404.433594 283.992188 C 404.375 284.140625 404.351562 284.296875 404.359375 284.457031 L 404.359375 288.097656 C 404.351562 288.242188 404.382812 288.378906 404.449219 288.507812 C 404.515625 288.636719 404.609375 288.738281 404.730469 288.816406 C 404.851562 288.894531 404.984375 288.941406 405.125 288.949219 C 405.269531 288.957031 405.40625 288.929688 405.539062 288.867188 L 408.5625 287.585938 C 408.699219 287.519531 408.839844 287.484375 408.988281 287.484375 C 409.140625 287.484375 409.28125 287.515625 409.417969 287.582031 C 409.554688 287.644531 409.667969 287.738281 409.761719 287.855469 C 409.851562 287.972656 409.914062 288.105469 409.949219 288.253906 L 410.972656 292.457031 C 411.039062 292.804688 410.992188 293.140625 410.832031 293.453125 C 410.667969 293.769531 410.425781 294.003906 410.101562 294.148438 L 406.203125 295.84375 C 405.863281 295.988281 405.511719 296.027344 405.148438 295.960938 C 404.785156 295.898438 404.472656 295.738281 404.203125 295.484375 L 401.179688 292.457031 C 400.566406 291.957031 399.867188 291.71875 399.074219 291.738281 L 396.5625 291.996094 C 395.894531 291.996094 395.640625 292.558594 396 293.175781 L 397.382812 295.277344 C 397.753906 295.992188 397.859375 296.746094 397.691406 297.535156 L 396.203125 302.253906 C 395.96875 303.042969 395.675781 303.8125 395.332031 304.558594 L 395.332031 304.96875 C 395.007812 305.6875 395.007812 306.40625 395.332031 307.125 L 398.769531 313.789062 C 399.125 314.519531 399.347656 315.289062 399.433594 316.097656 L 399.792969 318.96875 C 399.886719 319.773438 400.058594 320.558594 400.304688 321.328125 L 401.539062 325.074219 C 401.855469 325.8125 402.386719 326.34375 403.128906 326.660156 L 406.101562 327.585938 C 406.4375 327.734375 406.722656 327.953125 406.949219 328.246094 C 407.175781 328.535156 407.320312 328.863281 407.382812 329.226562 L 408 336.917969 C 408.074219 337.738281 408.074219 338.558594 408 339.378906 L 407.074219 347.996094 C 407.074219 348.714844 407.074219 349.789062 407.074219 350.457031 L 407.074219 355.945312 C 407.03125 356.75 406.808594 357.5 406.410156 358.199219 L 404.304688 361.328125 L 369.023438 265.226562 C 374.460938 263.125 379.742188 260.867188 384.769531 258.457031 L 386.5625 260.304688 C 386.808594 260.585938 386.96875 260.910156 387.042969 261.273438 C 387.113281 261.640625 387.09375 262 386.972656 262.355469 L 384.769531 267.945312 C 384.492188 268.707031 384.375 269.492188 384.410156 270.304688 L 384.410156 273.636719 C 384.519531 274.4375 384.863281 275.121094 385.433594 275.6875 L 388.359375 278.253906 C 388.921875 278.820312 389.195312 279.503906 389.179688 280.304688 L 388.871094 285.84375 C 388.855469 286.003906 388.875 286.164062 388.929688 286.316406 C 388.984375 286.472656 389.066406 286.609375 389.179688 286.726562 C 389.292969 286.84375 389.425781 286.933594 389.578125 286.996094 C 389.730469 287.054688 389.886719 287.082031 390.050781 287.074219 L 392.871094 287.074219 C 393.234375 287.066406 393.5625 286.960938 393.863281 286.757812 C 394.160156 286.550781 394.378906 286.28125 394.511719 285.945312 L 396 281.789062 C 396 281.125 396.71875 280.148438 397.023438 279.535156 L 397.792969 278.253906 C 398.222656 277.5625 398.835938 277.152344 399.640625 277.023438 L 403.332031 276.558594 C 403.488281 276.550781 403.628906 276.503906 403.761719 276.421875 C 403.894531 276.34375 403.996094 276.234375 404.074219 276.101562 C 404.152344 275.964844 404.195312 275.820312 404.199219 275.667969 C 404.203125 275.511719 404.171875 275.367188 404.101562 275.226562 L 403.382812 273.378906 C 403.222656 273.042969 402.992188 272.761719 402.695312 272.535156 C 402.394531 272.308594 402.0625 272.164062 401.691406 272.097656 L 399.332031 272.097656 C 398.527344 272.046875 397.738281 272.148438 396.972656 272.40625 L 396.050781 272.765625 C 395.28125 273.03125 394.511719 273.03125 393.742188 272.765625 L 392.203125 272.203125 C 391.878906 272.046875 391.625 271.816406 391.4375 271.507812 C 391.25 271.203125 391.164062 270.867188 391.179688 270.507812 L 391.539062 267.023438 C 391.597656 266.679688 391.757812 266.394531 392.015625 266.164062 C 392.273438 265.933594 392.578125 265.808594 392.921875 265.792969 L 396.050781 265.792969 C 396.425781 265.785156 396.773438 265.6875 397.101562 265.507812 C 397.425781 265.324219 397.691406 265.078125 397.898438 264.765625 L 400.71875 259.636719 C 401.136719 258.949219 401.734375 258.507812 402.511719 258.304688 L 408.769531 257.175781 C 409.570312 256.996094 410.375 256.996094 411.179688 257.175781 L 426.972656 261.433594 C 427.640625 261.433594 428.050781 261.433594 427.949219 260.558594 L 426.972656 254.457031 C 426.84375 253.65625 426.84375 252.851562 426.972656 252.046875 L 428.359375 245.792969 C 428.582031 245.007812 428.957031 244.308594 429.484375 243.6875 L 434 239.226562 C 434.578125 238.640625 435.246094 238.179688 436 237.84375 L 442.101562 235.125 C 466.332031 251.550781 488.363281 270.523438 508.203125 292.046875 C 509.382812 293.226562 510.511719 294.457031 511.636719 295.738281 C 500.640625 306.554688 488.789062 316.335938 476.085938 325.085938 C 463.386719 333.832031 450.023438 341.417969 436 347.839844 L 434.714844 344.609375 C 434.390625 343.875 434.390625 343.140625 434.714844 342.40625 L 438.203125 336.660156 C 438.59375 335.957031 438.746094 335.207031 438.664062 334.40625 M 276.71875 231.792969 L 276.359375 227.175781 C 291.414062 215.558594 307.6875 206.019531 325.179688 198.5625 C 314.46875 212.875 305 227.96875 296.769531 243.84375 L 281.847656 246.097656 C 281.054688 246.160156 280.335938 245.953125 279.691406 245.484375 L 275.539062 241.742188 C 275.265625 241.484375 275.070312 241.179688 274.953125 240.824219 C 274.832031 240.46875 274.808594 240.109375 274.871094 239.742188 L 276.308594 234.203125 C 276.410156 233.398438 276.410156 232.59375 276.308594 231.792969 M 283.488281 346.816406 C 284 346.1875 284.308594 345.46875 284.410156 344.660156 L 285.28125 335.738281 C 285.28125 335.070312 285.28125 333.996094 285.589844 333.328125 L 288.15625 318.917969 C 288.324219 318.121094 288.445312 317.320312 288.511719 316.507812 L 291.691406 285.738281 C 291.839844 284.957031 292.164062 284.253906 292.667969 283.636719 L 297.796875 278.507812 L 301.589844 278.507812 C 311.816406 278.34375 321.960938 277.359375 332.027344 275.554688 C 342.089844 273.746094 351.945312 271.140625 361.589844 267.738281 L 396.71875 364.25 C 386.726562 367.828125 376.582031 370.875 366.273438 373.390625 C 355.96875 375.90625 345.558594 377.878906 335.042969 379.3125 C 324.53125 380.742188 313.972656 381.621094 303.367188 381.949219 C 292.765625 382.277344 282.171875 382.054688 271.589844 381.277344 L 271.589844 378.40625 C 272.050781 371.429688 272.617188 364.660156 273.28125 357.890625 Z M 428.253906 217.277344 C 404.15625 204.230469 378.753906 194.625 352.050781 188.460938 C 366.871094 183.65625 382.027344 180.433594 397.515625 178.792969 C 413.007812 177.152344 428.5 177.125 444 178.714844 C 446.203125 190.40625 440.203125 204.046875 428.253906 217.277344 M 418.664062 221.433594 L 417.074219 221.894531 C 416.289062 222.050781 415.503906 222.050781 414.714844 221.894531 L 403.742188 220.097656 C 402.933594 219.957031 402.148438 219.734375 401.382812 219.433594 L 387.074219 213.175781 C 386.925781 213.117188 386.769531 213.089844 386.609375 213.089844 C 386.449219 213.089844 386.292969 213.121094 386.144531 213.183594 C 385.996094 213.246094 385.867188 213.335938 385.75 213.449219 C 385.636719 213.5625 385.550781 213.695312 385.488281 213.84375 L 385.023438 214.921875 C 384.785156 215.691406 384.699219 216.476562 384.769531 217.277344 L 384.769531 217.742188 C 384.925781 218.539062 385.234375 219.273438 385.691406 219.945312 L 392.101562 228.457031 C 392.558594 229.125 392.832031 229.859375 392.921875 230.664062 L 392.921875 233.585938 C 393 234.402344 393.15625 235.207031 393.382812 235.996094 L 395.332031 241.125 C 395.542969 241.910156 395.542969 242.699219 395.332031 243.484375 C 386.027344 248.988281 376.335938 253.6875 366.257812 257.585938 L 343.382812 194.765625 C 369.667969 200.34375 394.777344 209.230469 418.714844 221.433594 M 358.769531 260.355469 C 340.914062 266.664062 322.519531 270.082031 303.589844 270.613281 L 308.050781 256.613281 C 308.316406 255.84375 308.316406 255.074219 308.050781 254.304688 L 304.511719 246.972656 C 313.480469 229.605469 323.925781 213.175781 335.847656 197.691406 Z M 275.386719 217.433594 L 274.667969 207.945312 C 274.574219 207.140625 274.40625 206.355469 274.15625 205.585938 L 270.820312 196.765625 C 276.882812 191.894531 283.191406 187.367188 289.746094 183.175781 C 302.875 183.582031 315.832031 185.292969 328.617188 188.304688 C 309.609375 195.746094 291.863281 205.488281 275.386719 217.535156 M 255.695312 377.175781 L 256.359375 379.277344 C 248.949219 378.039062 241.652344 376.332031 234.464844 374.148438 L 233.847656 369.378906 C 233.765625 368.578125 233.917969 367.828125 234.308594 367.121094 L 239.796875 358.25 C 239.894531 358.132812 240.011719 358.039062 240.152344 357.972656 C 240.289062 357.90625 240.4375 357.875 240.589844 357.875 C 240.746094 357.875 240.890625 357.90625 241.03125 357.972656 C 241.171875 358.039062 241.289062 358.132812 241.386719 358.25 L 244.925781 361.175781 C 245.550781 361.710938 246.214844 362.191406 246.925781 362.609375 L 255.746094 367.738281 C 256.058594 367.933594 256.289062 368.199219 256.441406 368.535156 C 256.589844 368.871094 256.632812 369.222656 256.566406 369.585938 L 255.539062 374.96875 C 255.382812 375.753906 255.382812 376.542969 255.539062 377.328125 M 314.460938 529.375 C 314.8125 529.289062 315.105469 529.109375 315.339844 528.839844 C 315.574219 528.566406 315.710938 528.25 315.742188 527.890625 L 315.742188 523.789062 C 315.777344 523.40625 315.890625 523.054688 316.089844 522.730469 C 316.289062 522.40625 316.546875 522.140625 316.871094 521.941406 L 318.050781 521.273438 C 318.375 521.09375 318.628906 520.84375 318.8125 520.519531 C 319 520.199219 319.085938 519.851562 319.078125 519.480469 L 319.078125 516.042969 C 319.027344 515.238281 318.875 514.449219 318.617188 513.683594 L 316.257812 506.96875 C 316.027344 506.179688 315.910156 505.375 315.898438 504.554688 L 316.207031 499.429688 C 352.101562 498.558594 392.203125 490.199219 436.5625 474.402344 L 459.640625 537.734375 L 453.074219 536.605469 L 450.664062 536.195312 L 435.023438 533.734375 C 434.683594 533.664062 434.402344 533.492188 434.183594 533.222656 C 433.960938 532.957031 433.847656 532.648438 433.84375 532.300781 L 433.84375 528.554688 C 433.882812 527.734375 434.105469 526.964844 434.511719 526.25 L 437.125 521.734375 C 437.464844 521.023438 437.621094 520.269531 437.589844 519.480469 L 437.589844 518.503906 C 437.523438 518.148438 437.367188 517.839844 437.113281 517.578125 C 436.863281 517.316406 436.558594 517.144531 436.203125 517.070312 L 429.125 515.992188 C 428.324219 515.863281 427.519531 515.863281 426.714844 515.992188 L 406.5625 520.351562 L 404.253906 521.121094 L 394 525.429688 C 393.234375 525.757812 392.515625 526.167969 391.84375 526.660156 L 383.691406 532.609375 C 383.039062 533.101562 382.648438 533.75 382.511719 534.554688 L 381.742188 539.683594 C 381.582031 540.488281 381.292969 541.238281 380.871094 541.941406 L 378.460938 545.273438 C 377.964844 545.902344 377.3125 546.226562 376.511719 546.25 L 362.257812 545.941406 C 361.441406 545.96875 360.640625 546.070312 359.847656 546.25 L 349.589844 549.121094 C 348.839844 549.402344 348.222656 549.863281 347.742188 550.503906 L 340.972656 560.144531 C 340.527344 560.738281 340.015625 561.269531 339.4375 561.734375 C 329.3125 552.007812 320.320312 541.324219 312.460938 529.683594 Z M 564.5625 364.816406 L 557.074219 367.945312 C 560.304688 375.636719 563.074219 383.328125 565.484375 391.070312 C 544.273438 410.738281 520.785156 427.148438 495.023438 440.300781 L 495.023438 439.429688 L 484.765625 443.019531 L 484.765625 445.582031 C 470.632812 452.5 456.191406 458.6875 441.433594 464.148438 L 426.664062 423.328125 L 427.332031 423.328125 C 428.085938 423.128906 428.804688 422.839844 429.484375 422.457031 C 430.082031 422.019531 430.441406 421.4375 430.5625 420.710938 L 431.125 416.402344 C 431.152344 415.597656 431 414.828125 430.664062 414.097656 L 429.535156 412.148438 C 429.246094 411.394531 429.246094 410.644531 429.535156 409.890625 L 429.894531 408.96875 C 430.171875 408.207031 430.652344 407.609375 431.332031 407.171875 L 433.792969 405.6875 C 434.460938 405.230469 434.992188 404.648438 435.382812 403.941406 L 438.152344 398.25 C 438.320312 397.929688 438.5625 397.6875 438.882812 397.519531 C 439.199219 397.351562 439.539062 397.285156 439.894531 397.328125 L 440.972656 397.328125 C 441.132812 397.351562 441.28125 397.40625 441.417969 397.492188 C 441.554688 397.574219 441.671875 397.679688 441.769531 397.8125 C 441.863281 397.941406 441.933594 398.082031 441.972656 398.238281 C 442.011719 398.394531 442.019531 398.550781 442 398.710938 L 441.589844 401.226562 C 441.457031 402.027344 441.457031 402.832031 441.589844 403.636719 L 441.945312 406.867188 C 441.945312 407.53125 442.511719 407.6875 443.023438 407.226562 L 448.152344 402.457031 C 448.71875 401.863281 449.078125 401.160156 449.230469 400.351562 L 449.945312 395.226562 C 450.09375 394.410156 450.417969 393.675781 450.921875 393.019531 L 453.023438 390.351562 C 453.242188 390.074219 453.351562 389.757812 453.351562 389.40625 C 453.351562 389.050781 453.242188 388.734375 453.023438 388.457031 L 449.179688 383.996094 C 448.664062 383.363281 448.355469 382.648438 448.253906 381.839844 L 447.433594 374.710938 C 447.355469 373.894531 447.152344 373.105469 446.820312 372.355469 L 439.945312 356.660156 L 439.535156 355.6875 C 454.019531 349.082031 467.828125 341.28125 480.960938 332.28125 C 494.09375 323.28125 506.351562 313.222656 517.742188 302.097656 C 519.84375 304.609375 521.945312 307.226562 523.945312 309.789062 L 530.40625 304.664062 C 528.117188 301.621094 525.757812 298.695312 523.332031 295.894531 C 526.765625 291.996094 529.894531 288.148438 532.765625 284.203125 L 532.765625 284.867188 C 532.816406 285.671875 532.816406 286.476562 532.765625 287.277344 L 532.765625 300.457031 C 532.800781 301.265625 533.019531 302.015625 533.433594 302.714844 L 542.5625 316.609375 C 543.039062 317.289062 543.585938 317.902344 544.203125 318.457031 L 556.152344 328.25 C 556.746094 328.804688 557.242188 329.4375 557.636719 330.148438 L 569.585938 354.867188 C 569.894531 355.429688 570.304688 355.429688 570.507812 354.867188 L 574.816406 341.175781 C 574.871094 341.023438 574.949219 340.886719 575.054688 340.765625 C 575.160156 340.644531 575.285156 340.546875 575.429688 340.476562 C 575.574219 340.40625 575.726562 340.363281 575.886719 340.351562 C 576.046875 340.339844 576.203125 340.355469 576.355469 340.40625 L 577.378906 340.714844 C 577.722656 340.828125 578.003906 341.035156 578.21875 341.324219 C 578.433594 341.613281 578.546875 341.941406 578.558594 342.304688 L 578.558594 351.378906 C 578.597656 352.199219 578.734375 353.003906 578.96875 353.789062 L 580.867188 358.917969 C 581.152344 359.683594 581.527344 360.402344 581.996094 361.070312 L 586.558594 367.535156 C 582.058594 373.492188 577.21875 379.167969 572.046875 384.558594 C 569.84375 377.996094 567.382812 371.378906 564.613281 364.816406 M 486.511719 165.484375 L 497.226562 182.871094 C 482.050781 177.257812 466.441406 173.363281 450.410156 171.175781 C 449.46875 168.933594 448.328125 166.792969 446.992188 164.757812 C 445.65625 162.722656 444.144531 160.828125 442.457031 159.074219 C 440.765625 157.320312 438.933594 155.738281 436.949219 154.324219 C 434.96875 152.910156 432.875 151.691406 430.664062 150.664062 C 449.945312 152.964844 468.5625 157.820312 486.511719 165.230469 M 358.308594 154.203125 C 350.765625 161.636719 343.925781 169.671875 337.792969 178.304688 L 331.847656 161.945312 C 340.570312 158.800781 349.460938 156.21875 358.511719 154.203125 M 324.257812 164.921875 L 329.382812 179.742188 C 320.347656 177.601562 311.203125 176.148438 301.949219 175.382812 C 309.101562 171.539062 316.453125 168.121094 324 165.125 M 226.566406 481.992188 C 235.332031 486.125 244.375 489.523438 253.691406 492.191406 C 263.007812 494.859375 272.480469 496.757812 282.101562 497.890625 L 281.28125 499.121094 C 280.964844 499.839844 280.964844 500.558594 281.28125 501.273438 L 282.820312 505.378906 C 283.132812 506.117188 283.628906 506.695312 284.308594 507.121094 L 287.386719 508.8125 C 288.125 509.152344 288.890625 509.394531 289.691406 509.53125 L 291.640625 509.53125 C 296.601562 519.527344 302.304688 529.078125 308.753906 538.183594 C 315.203125 547.289062 322.320312 555.839844 330.101562 563.835938 C 324.871094 561.871094 319.722656 559.707031 314.660156 557.339844 C 309.597656 554.972656 304.632812 552.410156 299.769531 549.65625 C 294.90625 546.902344 290.15625 543.964844 285.523438 540.839844 C 280.890625 537.714844 276.386719 534.414062 272.007812 530.9375 C 267.632812 527.460938 263.398438 523.816406 259.308594 520.011719 C 255.214844 516.203125 251.277344 512.242188 247.496094 508.128906 C 243.710938 504.015625 240.09375 499.757812 236.644531 495.363281 C 233.195312 490.964844 229.917969 486.441406 226.820312 481.789062 M 535.382812 533.070312 L 534.765625 532.351562 L 533.125 531.019531 L 530.046875 526.660156 C 529.898438 526.480469 529.761719 526.292969 529.636719 526.09375 C 544.316406 517.390625 558.351562 507.75 571.738281 497.171875 L 571.433594 498.453125 C 560.746094 511.621094 548.679688 523.363281 535.226562 533.683594 M 591.636719 468.710938 C 589.023438 471.378906 586.507812 473.839844 583.378906 476.660156 C 584.667969 462.621094 584.597656 448.585938 583.171875 434.558594 C 581.75 420.53125 579 406.773438 574.917969 393.277344 C 580.886719 387.347656 586.441406 381.058594 591.585938 374.40625 L 593.484375 377.070312 L 594.714844 379.175781 L 602.199219 394.917969 C 602.550781 395.667969 602.773438 396.453125 602.867188 397.277344 L 604.148438 407.226562 C 604.148438 407.890625 604.148438 408.96875 604.507812 409.636719 L 608.765625 429.789062 C 604.34375 443.332031 598.636719 456.304688 591.636719 468.710938 " fill-opacity="1" fill-rule="nonzero"/><path fill="#2a385f" d="M 362.359375 133.230469 L 362.359375 59.949219 L 447.484375 59.949219 L 447.484375 133.230469 C 433.414062 130.664062 419.226562 129.382812 404.921875 129.382812 C 390.617188 129.382812 376.429688 130.664062 362.359375 133.230469 M 610.664062 251.6875 L 613.6875 251.6875 L 613.6875 127.125 C 599.671875 129.800781 585.554688 130.570312 571.328125 129.433594 L 570.046875 129.433594 C 556.054688 128.582031 542.53125 125.589844 529.484375 120.460938 L 529.484375 165.332031 C 537.949219 170.664062 546.039062 176.515625 553.757812 182.878906 C 561.476562 189.242188 568.757812 196.074219 575.605469 203.367188 C 582.453125 210.660156 588.8125 218.359375 594.675781 226.460938 C 600.542969 234.566406 605.871094 243.007812 610.664062 251.792969 M 280.359375 165.230469 L 280.359375 120.359375 C 267.3125 125.488281 253.789062 128.480469 239.796875 129.332031 L 238.515625 129.332031 C 224.292969 130.46875 210.171875 129.699219 196.15625 127.023438 L 196.15625 251.6875 L 199.179688 251.6875 C 203.972656 242.90625 209.300781 234.460938 215.167969 226.359375 C 221.03125 218.253906 227.390625 210.558594 234.238281 203.261719 C 241.085938 195.96875 248.367188 189.140625 256.085938 182.777344 C 263.804688 176.410156 271.894531 170.5625 280.359375 165.230469 M 404.921875 597.683594 C 390.613281 597.695312 376.425781 596.394531 362.359375 593.785156 L 362.359375 726.707031 C 376.113281 735.445312 390.300781 743.410156 404.921875 750.605469 C 419.542969 743.410156 433.730469 735.445312 447.484375 726.707031 L 447.484375 593.734375 C 433.417969 596.34375 419.230469 597.640625 404.921875 597.632812 M 199.179688 475.328125 L 196.15625 475.328125 L 196.15625 540.09375 C 206.640625 562.234375 218.953125 583.304688 233.09375 603.308594 C 247.234375 623.3125 262.988281 641.949219 280.359375 659.222656 L 280.359375 561.785156 C 271.894531 556.457031 263.804688 550.613281 256.085938 544.253906 C 248.371094 537.894531 241.085938 531.066406 234.238281 523.777344 C 227.390625 516.488281 221.035156 508.796875 215.167969 500.695312 C 209.300781 492.597656 203.972656 484.15625 199.179688 475.378906 M 529.484375 561.785156 L 529.484375 659.222656 C 546.851562 641.964844 562.605469 623.34375 576.742188 603.359375 C 590.882812 583.371094 603.199219 562.316406 613.6875 540.195312 L 613.6875 475.328125 L 610.664062 475.328125 C 605.875 484.109375 600.546875 492.554688 594.679688 500.660156 C 588.816406 508.761719 582.457031 516.460938 575.609375 523.753906 C 568.761719 531.046875 561.480469 537.878906 553.761719 544.242188 C 546.042969 550.605469 537.949219 556.453125 529.484375 561.785156 " fill-opacity="1" fill-rule="nonzero"/><path fill="#ffffff" d="M 512.046875 276.203125 C 512.046875 302.816406 524.304688 316.664062 535.074219 328.867188 C 542.816406 337.6875 549.742188 345.535156 552.097656 358.148438 L 531.894531 358.148438 L 531.894531 343.125 L 512.046875 343.125 L 512.046875 377.996094 L 572.816406 377.996094 L 572.816406 368.046875 C 572.816406 341.738281 560.664062 327.945312 549.945312 315.789062 C 542.097656 306.867188 535.125 298.96875 532.765625 286.097656 L 552.972656 286.097656 L 552.972656 301.125 L 572.816406 301.125 L 572.816406 266.253906 L 512.046875 266.253906 Z M 512.046875 276.203125 " fill-opacity="1" fill-rule="nonzero"/><path fill="#ffffff" d="M 647.894531 286.097656 L 647.894531 266.253906 L 595.328125 266.253906 L 595.328125 377.996094 L 647.894531 377.996094 L 647.894531 358.148438 L 615.175781 358.148438 L 615.175781 327.175781 L 639.378906 327.175781 L 639.378906 307.328125 L 615.175781 307.328125 L 615.175781 286.097656 Z M 647.894531 286.097656 " fill-opacity="1" fill-rule="nonzero"/><path fill="#ffffff" d="M 161.953125 276.203125 C 161.953125 302.816406 174.15625 316.664062 184.925781 328.867188 C 192.667969 337.6875 199.59375 345.535156 201.949219 358.148438 L 181.796875 358.148438 L 181.796875 343.125 L 161.953125 343.125 L 161.953125 377.996094 L 222.667969 377.996094 L 222.667969 368.046875 C 222.667969 341.738281 210.515625 327.945312 199.796875 315.789062 C 192.003906 306.867188 185.027344 298.96875 182.617188 286.097656 L 202.824219 286.097656 L 202.824219 301.125 L 222.667969 301.125 L 222.667969 266.253906 L 161.953125 266.253906 Z M 161.953125 276.203125 " fill-opacity="1" fill-rule="nonzero"/><path fill="#ffffff" d="M 236.15625 312.199219 L 263.4375 312.199219 L 263.4375 332.046875 L 236.15625 332.046875 Z M 236.15625 312.199219 " fill-opacity="1" fill-rule="nonzero"/><path fill="#ffffff" d="M 463.742188 266.253906 L 443.945312 266.253906 L 443.945312 377.996094 L 496.460938 377.996094 L 496.460938 358.148438 L 463.742188 358.148438 Z M 463.742188 266.253906 " fill-opacity="1" fill-rule="nonzero"/><path fill="#ffffff" d="M 400.71875 358.148438 L 394.050781 358.148438 C 388.921875 358.148438 379.640625 358.148438 379.640625 337.636719 L 379.640625 266.253906 L 359.792969 266.253906 L 359.792969 337.738281 C 359.570312 342.339844 360.003906 346.878906 361.09375 351.355469 C 362.183594 355.832031 363.886719 360.0625 366.203125 364.046875 C 366.953125 365.183594 367.769531 366.265625 368.660156 367.296875 C 369.550781 368.328125 370.503906 369.292969 371.523438 370.199219 C 372.539062 371.101562 373.613281 371.9375 374.738281 372.699219 C 375.863281 373.464844 377.035156 374.152344 378.253906 374.761719 C 379.472656 375.371094 380.722656 375.898438 382.007812 376.34375 C 383.296875 376.789062 384.605469 377.148438 385.9375 377.417969 C 387.273438 377.691406 388.617188 377.878906 389.976562 377.972656 C 391.332031 378.070312 392.691406 378.078125 394.050781 377.996094 L 420.5625 377.996094 L 420.5625 266.253906 L 400.71875 266.253906 Z M 400.71875 358.148438 " fill-opacity="1" fill-rule="nonzero"/><path fill="#ffffff" d="M 281.847656 266.253906 L 281.847656 377.996094 L 301.691406 377.996094 L 301.691406 345.328125 C 301.691406 337.6875 304.207031 335.894531 312.871094 330.917969 C 324.71875 324.148438 342.5625 313.894531 342.5625 276.203125 L 342.5625 266.253906 Z M 303.027344 313.6875 L 301.691406 314.457031 L 301.691406 286.097656 L 322.207031 286.097656 C 320.152344 303.894531 311.949219 308.507812 303.027344 313.6875 " fill-opacity="1" fill-rule="nonzero"/><path fill="#ffffff" d="M 409.023438 413.789062 L 400.664062 413.789062 C 400.367188 415.914062 399.726562 417.933594 398.742188 419.839844 C 397.757812 421.75 396.484375 423.441406 394.921875 424.917969 C 392.96875 427.042969 391.242188 429.339844 389.75 431.808594 C 388.253906 434.28125 387.015625 436.871094 386.039062 439.589844 C 385.0625 442.304688 384.363281 445.09375 383.941406 447.949219 C 383.519531 450.804688 383.386719 453.675781 383.539062 456.558594 L 383.539062 460.710938 L 391.84375 460.710938 L 391.84375 456.558594 C 391.84375 455.53125 391.84375 454.558594 391.84375 453.582031 L 400.613281 453.582031 L 400.613281 460.710938 L 408.921875 460.710938 L 408.921875 413.789062 Z M 400.71875 445.277344 L 393.074219 445.277344 C 393.746094 442.625 394.730469 440.089844 396.023438 437.679688 C 397.316406 435.265625 398.878906 433.046875 400.71875 431.019531 Z M 400.71875 445.277344 " fill-opacity="1" fill-rule="nonzero"/><path fill="#ffffff" d="M 368.5625 413.789062 L 376.921875 413.789062 L 376.921875 418.199219 C 377.101562 419.972656 377.078125 421.742188 376.851562 423.511719 C 376.628906 425.28125 376.210938 427.003906 375.597656 428.675781 C 374.988281 430.351562 374.195312 431.933594 373.222656 433.429688 C 372.253906 434.925781 371.125 436.292969 369.84375 437.53125 C 371.117188 438.773438 372.238281 440.140625 373.203125 441.628906 C 374.171875 443.121094 374.960938 444.703125 375.570312 446.371094 C 376.183594 448.039062 376.605469 449.753906 376.832031 451.515625 C 377.058594 453.277344 377.089844 455.042969 376.921875 456.8125 L 376.921875 460.96875 L 368.5625 460.96875 L 368.5625 456.8125 C 368.5625 445.789062 364.71875 443.582031 360.308594 441.070312 L 359.742188 440.710938 L 359.742188 460.96875 L 351.382812 460.96875 L 351.382812 414.046875 L 359.742188 414.046875 L 359.742188 427.738281 C 359.683594 428.25 359.703125 428.765625 359.800781 429.273438 C 359.894531 429.78125 360.0625 430.265625 360.308594 430.722656 C 360.550781 431.179688 360.855469 431.59375 361.222656 431.957031 C 361.589844 432.324219 362.003906 432.625 362.460938 432.867188 C 365.742188 430.761719 368.5625 427.738281 368.5625 418.402344 Z M 368.5625 413.789062 " fill-opacity="1" fill-rule="nonzero"/><path fill="#ffffff" d="M 232.875 413.789062 L 241.230469 413.789062 L 241.230469 460.710938 L 232.875 460.710938 Z M 232.875 413.789062 " fill-opacity="1" fill-rule="nonzero"/><path fill="#ffffff" d="M 215.589844 413.789062 L 223.949219 413.789062 L 223.949219 460.710938 L 215.589844 460.710938 L 215.589844 440.457031 C 214.488281 440.917969 213.359375 441.308594 212.207031 441.632812 C 208.15625 442.917969 206.769531 443.328125 206.769531 447.839844 L 206.769531 460.710938 L 198.414062 460.710938 L 198.414062 413.789062 L 206.769531 413.789062 L 206.769531 434.710938 C 207.742188 434.308594 208.734375 433.96875 209.746094 433.6875 C 213.898438 432.402344 215.589844 431.839844 215.589844 426.660156 Z M 215.589844 413.789062 " fill-opacity="1" fill-rule="nonzero"/><path fill="#ffffff" d="M 163.898438 413.789062 L 189.539062 413.789062 L 189.539062 428.457031 L 181.183594 428.457031 L 181.183594 422.148438 L 172.667969 422.148438 C 173.253906 424.527344 174.160156 426.777344 175.390625 428.898438 C 176.621094 431.015625 178.125 432.921875 179.898438 434.609375 C 181.414062 436.011719 182.765625 437.550781 183.960938 439.230469 C 185.15625 440.910156 186.171875 442.695312 187 444.582031 C 187.828125 446.46875 188.457031 448.421875 188.886719 450.4375 C 189.3125 452.457031 189.53125 454.496094 189.539062 456.558594 L 189.539062 460.710938 L 163.898438 460.710938 L 163.898438 446.042969 L 172.207031 446.042969 L 172.207031 452.402344 L 180.824219 452.402344 C 180.253906 450.046875 179.355469 447.820312 178.132812 445.726562 C 176.910156 443.628906 175.414062 441.753906 173.644531 440.097656 C 172.140625 438.691406 170.792969 437.148438 169.597656 435.472656 C 168.402344 433.792969 167.390625 432.015625 166.550781 430.136719 C 165.714844 428.253906 165.074219 426.308594 164.628906 424.300781 C 164.179688 422.289062 163.9375 420.257812 163.898438 418.199219 Z M 163.898438 413.789062 " fill-opacity="1" fill-rule="nonzero"/><path fill="#ffffff" d="M 300.207031 413.789062 L 308.511719 413.789062 L 308.511719 460.710938 L 297.230469 460.710938 C 296.085938 460.78125 294.949219 460.703125 293.824219 460.472656 C 292.699219 460.246094 291.625 459.875 290.597656 459.359375 C 289.570312 458.847656 288.628906 458.210938 287.773438 457.449219 C 286.914062 456.683594 286.167969 455.824219 285.539062 454.863281 C 284.570312 453.1875 283.859375 451.40625 283.40625 449.519531 C 282.949219 447.636719 282.773438 445.722656 282.871094 443.789062 L 282.871094 413.789062 L 291.179688 413.789062 L 291.179688 443.839844 C 291.179688 452.453125 294.976562 452.453125 297.230469 452.453125 L 300.050781 452.453125 Z M 300.207031 413.789062 " fill-opacity="1" fill-rule="nonzero"/><path fill="#ffffff" d="M 340.257812 419.890625 C 339.722656 418.964844 339.082031 418.121094 338.324219 417.367188 C 337.570312 416.609375 336.730469 415.960938 335.804688 415.425781 C 334.882812 414.890625 333.902344 414.484375 332.871094 414.207031 C 331.835938 413.929688 330.785156 413.792969 329.71875 413.792969 C 328.648438 413.792969 327.597656 413.929688 326.566406 414.207031 C 325.535156 414.484375 324.554688 414.890625 323.628906 415.425781 C 322.703125 415.960938 321.863281 416.609375 321.109375 417.367188 C 320.355469 418.121094 319.710938 418.964844 319.179688 419.890625 C 317.539062 423.3125 316.804688 426.921875 316.976562 430.710938 L 316.976562 443.839844 C 316.875 445.777344 317.054688 447.6875 317.507812 449.570312 C 317.960938 451.457031 318.671875 453.238281 319.640625 454.917969 C 320.273438 455.875 321.015625 456.738281 321.875 457.5 C 322.730469 458.261719 323.675781 458.898438 324.699219 459.414062 C 325.726562 459.925781 326.804688 460.296875 327.929688 460.527344 C 329.050781 460.753906 330.1875 460.832031 331.332031 460.761719 L 342.460938 460.761719 L 342.460938 430.761719 C 342.632812 426.972656 341.898438 423.363281 340.257812 419.941406 M 334.152344 452.453125 L 331.332031 452.453125 C 329.078125 452.453125 325.28125 452.453125 325.28125 443.839844 L 325.28125 430.761719 C 325.28125 422.199219 328.257812 422.199219 329.691406 422.199219 C 331.128906 422.199219 334.152344 422.199219 334.152344 430.761719 Z M 334.152344 452.453125 " fill-opacity="1" fill-rule="nonzero"/><path fill="#ffffff" d="M 265.640625 440.042969 C 263.929688 441.734375 262.488281 443.628906 261.320312 445.730469 C 260.148438 447.832031 259.300781 450.058594 258.769531 452.402344 L 274.820312 452.402344 L 274.820312 460.710938 L 250.105469 460.710938 L 250.105469 456.558594 C 250.101562 454.519531 250.300781 452.503906 250.699219 450.507812 C 251.097656 448.511719 251.6875 446.574219 252.472656 444.695312 C 253.257812 442.8125 254.214844 441.03125 255.355469 439.339844 C 256.492188 437.652344 257.785156 436.09375 259.230469 434.660156 C 260.972656 432.957031 262.429688 431.042969 263.609375 428.910156 C 264.789062 426.78125 265.636719 424.527344 266.15625 422.148438 L 250.105469 422.148438 L 250.105469 413.789062 L 274.820312 413.789062 L 274.820312 418.199219 C 274.820312 420.253906 274.621094 422.285156 274.21875 424.300781 C 273.820312 426.3125 273.222656 428.269531 272.4375 430.164062 C 271.648438 432.0625 270.683594 433.863281 269.539062 435.570312 C 268.398438 437.273438 267.097656 438.851562 265.640625 440.300781 " fill-opacity="1" fill-rule="nonzero"/><path fill="#ffffff" d="M 512.457031 413.789062 L 520.816406 413.789062 L 520.816406 460.710938 L 512.457031 460.710938 Z M 512.457031 413.789062 " fill-opacity="1" fill-rule="nonzero"/><path fill="#ffffff" d="M 495.226562 413.789062 L 503.535156 413.789062 L 503.535156 460.710938 L 495.226562 460.710938 L 495.226562 440.457031 C 494.121094 440.90625 492.992188 441.300781 491.84375 441.632812 C 487.742188 442.917969 486.355469 443.328125 486.355469 447.839844 L 486.355469 460.710938 L 478.050781 460.710938 L 478.050781 413.789062 L 486.355469 413.789062 L 486.355469 434.710938 C 487.339844 434.300781 488.351562 433.957031 489.382812 433.6875 C 493.484375 432.402344 495.226562 431.839844 495.226562 426.660156 Z M 495.226562 413.789062 " fill-opacity="1" fill-rule="nonzero"/><path fill="#ffffff" d="M 443.589844 413.789062 L 469.230469 413.789062 L 469.230469 428.457031 L 460.871094 428.457031 L 460.871094 422.148438 L 452.410156 422.148438 C 452.96875 424.53125 453.859375 426.785156 455.082031 428.90625 C 456.304688 431.027344 457.804688 432.929688 459.585938 434.609375 C 461.097656 436.011719 462.453125 437.550781 463.648438 439.234375 C 464.84375 440.914062 465.855469 442.695312 466.683594 444.585938 C 467.511719 446.472656 468.140625 448.421875 468.570312 450.441406 C 469 452.457031 469.21875 454.496094 469.230469 456.558594 L 469.230469 460.710938 L 443.589844 460.710938 L 443.589844 446.042969 L 451.945312 446.042969 L 451.945312 452.402344 L 460.410156 452.402344 C 459.847656 450.046875 458.957031 447.824219 457.746094 445.726562 C 456.53125 443.632812 455.042969 441.753906 453.28125 440.097656 C 451.757812 438.679688 450.394531 437.125 449.1875 435.429688 C 447.984375 433.730469 446.96875 431.929688 446.132812 430.027344 C 445.300781 428.121094 444.667969 426.148438 444.238281 424.113281 C 443.8125 422.078125 443.59375 420.023438 443.589844 417.941406 Z M 443.589844 413.789062 " fill-opacity="1" fill-rule="nonzero"/><path fill="#ffffff" d="M 570.148438 413.789062 L 578.507812 413.789062 L 578.507812 460.710938 L 570.148438 460.710938 Z M 570.148438 413.789062 " fill-opacity="1" fill-rule="nonzero"/><path fill="#ffffff" d="M 637.535156 413.789062 L 645.945312 413.789062 L 645.945312 460.710938 L 634.816406 460.710938 C 633.667969 460.785156 632.535156 460.707031 631.410156 460.480469 C 630.28125 460.253906 629.207031 459.882812 628.179688 459.367188 C 627.152344 458.855469 626.210938 458.214844 625.351562 457.453125 C 624.496094 456.6875 623.753906 455.828125 623.125 454.863281 C 622.132812 453.203125 621.398438 451.433594 620.917969 449.554688 C 620.4375 447.679688 620.234375 445.773438 620.304688 443.839844 L 620.304688 413.839844 L 628.609375 413.839844 L 628.609375 443.839844 C 628.609375 452.453125 632.40625 452.453125 634.660156 452.453125 L 637.484375 452.453125 Z M 637.535156 413.789062 " fill-opacity="1" fill-rule="nonzero"/><path fill="#ffffff" d="M 602.96875 440.042969 C 601.257812 441.734375 599.816406 443.628906 598.648438 445.730469 C 597.476562 447.832031 596.628906 450.058594 596.097656 452.402344 L 612.148438 452.402344 L 612.148438 460.710938 L 587.433594 460.710938 L 587.433594 456.558594 C 587.429688 454.519531 587.628906 452.503906 588.027344 450.507812 C 588.425781 448.511719 589.015625 446.574219 589.800781 444.695312 C 590.585938 442.8125 591.542969 441.03125 592.683594 439.339844 C 593.820312 437.652344 595.113281 436.09375 596.558594 434.660156 C 598.292969 432.953125 599.746094 431.03125 600.925781 428.902344 C 602.101562 426.773438 602.957031 424.523438 603.484375 422.148438 L 587.433594 422.148438 L 587.433594 413.789062 L 612.148438 413.789062 L 612.148438 418.199219 C 612.148438 420.253906 611.949219 422.285156 611.546875 424.300781 C 611.148438 426.3125 610.550781 428.269531 609.765625 430.164062 C 608.976562 432.0625 608.011719 433.863281 606.867188 435.570312 C 605.726562 437.273438 604.425781 438.851562 602.96875 440.300781 " fill-opacity="1" fill-rule="nonzero"/><path fill="#ffffff" d="M 552.917969 413.789062 L 561.277344 413.789062 L 561.277344 460.710938 L 552.917969 460.710938 L 552.917969 432.148438 C 551.792969 433.277344 550.941406 434.589844 550.371094 436.082031 C 549.796875 437.574219 549.554688 439.117188 549.636719 440.710938 L 549.636719 442.042969 L 541.332031 442.042969 L 541.332031 440.710938 C 541.410156 439.101562 541.164062 437.542969 540.59375 436.035156 C 540.023438 434.527344 539.175781 433.199219 538.046875 432.046875 L 538.046875 460.710938 L 529.6875 460.710938 L 529.6875 413.789062 L 538.253906 413.789062 L 538.253906 414.402344 C 538.238281 415.382812 538.332031 416.347656 538.535156 417.304688 C 538.734375 418.257812 539.039062 419.179688 539.449219 420.066406 C 539.855469 420.957031 540.359375 421.785156 540.953125 422.5625 C 541.546875 423.335938 542.21875 424.035156 542.972656 424.660156 C 543.84375 425.636719 544.816406 426.609375 545.6875 427.789062 C 546.613281 426.660156 547.535156 425.6875 548.40625 424.761719 C 549.171875 424.148438 549.851562 423.457031 550.453125 422.683594 C 551.058594 421.910156 551.5625 421.078125 551.972656 420.191406 C 552.382812 419.300781 552.683594 418.375 552.878906 417.414062 C 553.074219 416.457031 553.15625 415.484375 553.125 414.507812 Z M 552.917969 413.789062 " fill-opacity="1" fill-rule="nonzero"/></svg>