<svg id="Layer_1" data-name="Layer 1" xmlns="http://www.w3.org/2000/svg" viewBox="0 0 240 240"><defs><style>.cls-1{fill:#2a385f;}.cls-2{fill:#f08300;}.cls-3{fill:#fff;}</style></defs><path class="cls-1" d="M118.17,201.83l.2.08.18.09.09,0,.08,0,.09,0,.07,0,.08,0,.07,0,.07,0,.06,0,.07,0,0,0,.06,0,0,0,0,0,0,0,.08,0,.07,0,.06,0,0,0h0l.08,0a.61.61,0,0,0,.27,0l.08,0h.05l0,0,.06,0,.07,0,.08,0,0,0,0,0,0,0,.06,0,0,0,.06,0,.07,0,.07,0,.07,0,.07,0,.08,0,.08,0,.09,0,.09,0,.18-.09.2-.08a97.59,97.59,0,0,0,39.52-32.14c17-23.58,20.54-51.58,20.54-70.92a151.89,151.89,0,0,0-5.76-41.53l-.78-2.59-.2-.6-.09-.26-.08-.22,0-.09,0-.09,0,0v0l0,0,0,0,0,0v0l0,0h-.08a.53.53,0,0,0-.56-.13l-3.77,1.24a48.33,48.33,0,0,1-14.92,2.73c-9,0-15.77-3.84-18.94-10.8l-1.06-2.31a.56.56,0,0,0-.51-.33H105.06a.59.59,0,0,0-.52.33l-1.05,2.31c-3.17,7-9.9,10.8-18.94,10.8a48.33,48.33,0,0,1-14.92-2.73L65.86,53a.53.53,0,0,0-.56.13h-.08l0,0v0l0,0,0,0,0,0v0l0,0,0,.09,0,.09-.08.22-.09.26-.2.6-.78,2.59a151.89,151.89,0,0,0-5.76,41.53c0,19.34,3.56,47.34,20.54,70.92a97.51,97.51,0,0,0,39.52,32.14"/><path class="cls-2" d="M171.78,58.48a52.5,52.5,0,0,1-16.33,3c-10.83,0-19.18-5-23-13.44H107.6c-3.87,8.49-12.22,13.44-23,13.44a52.62,52.62,0,0,1-16.34-3,147.09,147.09,0,0,0-5.59,40.29c0,23.66,5.39,48.42,19.69,68.28A93,93,0,0,0,120,197.7a93,93,0,0,0,37.69-30.65c14.29-19.86,19.69-44.62,19.69-68.28a146.72,146.72,0,0,0-5.6-40.29M153,137.94a70.07,70.07,0,0,1-9.75,6.85l-.94-1a1.26,1.26,0,0,0-.38-.27l-1.42-.64a3.39,3.39,0,0,0-.45-.15l-1.3-.3a.85.85,0,0,1-.38-.24l-2.08-2.53a.61.61,0,0,0-.39-.21l-.49,0a.29.29,0,0,0-.29.22l-.34,1.67a.91.91,0,0,0,0,.46l.53,1.34a2.7,2.7,0,0,1,.12.47l.46,3.66a.63.63,0,0,1-.12.42l-.66.75a.64.64,0,0,1-.39.2l-1.46.16a2.54,2.54,0,0,1-.48,0l-.33-.06-4.81-13.22c10-3.74,18.29-8.63,24.16-14.07A39.78,39.78,0,0,1,153,137.94m-52.27-.22h-.19a.84.84,0,0,0-.43.14l-.2.15a1.14,1.14,0,0,1-.43.17l-.14,0a.62.62,0,0,1-.41-.14l-.28-.28a.42.42,0,0,0-.4-.08l-.29.11a.88.88,0,0,0-.36.27l-.09.13A51.83,51.83,0,0,1,94.4,126l-1.58.21a53.7,53.7,0,0,0,3.29,12.76,32,32,0,0,1-12.52-4.17l-.2-.33.88-2.24c0-.13.11-.33.14-.46l1.16-4.54a3.7,3.7,0,0,0,.07-.48l.2-3.81a1,1,0,0,1,.14-.44l1-1.53a.86.86,0,0,0,.12-.44L87,118.4c0-.07,0-.18,0-.28a40,40,0,0,0,4.24.92l-.17.9a.66.66,0,0,0,.1.43l.71,1a.41.41,0,0,0,.37.17l.22,0c0,1,.09,1.94.19,2.93l1.58-.15a46.24,46.24,0,0,1-.22-4.92c1.49.13,3,.21,4.62.21A62.23,62.23,0,0,0,118.92,116l.11.31-.88,1.24a1.78,1.78,0,0,1-.32.35l-1.27,1a.86.86,0,0,0-.27.38l-.18.5a.27.27,0,0,1-.31.16l-.47-.14a.63.63,0,0,1-.34-.28l-.07-.13a.48.48,0,0,1,0-.42l.48-.77a.16.16,0,0,0-.1-.26h0a.59.59,0,0,0-.43.08l-1.06.76a.62.62,0,0,0-.2.38v0a1,1,0,0,0,.12.44l.17.28a.85.85,0,0,1,.11.44l0,.72a3.85,3.85,0,0,1-.08.47l-.3,1.11a2.52,2.52,0,0,0-.06.47v.88a1.2,1.2,0,0,1-.11.46l-.14.27a.66.66,0,0,1-.33.29l-2.11.69a2.11,2.11,0,0,0-.43.2l-2.27,1.4-.42.23-2.47,1.09a.86.86,0,0,1-.45,0l-.58-.14a.51.51,0,0,0-.41.11l-.85.78a1.53,1.53,0,0,0-.29.38l-.64,1.28c-.06.12-.16.31-.23.42l-.56.92a3.47,3.47,0,0,1-.29.38l-.55.57a1.45,1.45,0,0,0-.26.4l-.23.57a.76.76,0,0,1-.31.33h0a1.24,1.24,0,0,1-.46.11H99a.7.7,0,0,0-.42.16l-.21.2a.44.44,0,0,0-.09.4l.19.6a.38.38,0,0,0,.32.25l.6.07a1,1,0,0,0,.46-.08l1.63-.73a1.21,1.21,0,0,1,.46-.08l.93.08a.2.2,0,0,0,.22-.22l-.06-.74a.86.86,0,0,1,.12-.44l.14-.2a.34.34,0,0,1,.36-.13l.54.18a.51.51,0,0,0,.42-.07l2.4-1.71a.83.83,0,0,1,.43-.15l.71,0a.49.49,0,0,0,.36-.22l.67-1.25a.83.83,0,0,1,.34-.3l.78-.3a.66.66,0,0,1,.44,0l1,.39a1,1,0,0,0,.46,0l.4-.07a2.59,2.59,0,0,1,.48,0h0a.22.22,0,0,1,.23.23v.1a1,1,0,0,0,.09.45l.39.86a.76.76,0,0,0,.31.33l1.1.6a.46.46,0,0,0,.41,0l.8-.53a.74.74,0,0,0,.26-.37l.7-2.63a3.47,3.47,0,0,1,.17-.45l.77-1.54a.47.47,0,0,1,.35-.23l1.54-.15a4,4,0,0,0,.48-.07l1.16-.22a.4.4,0,0,0,.28-.28l.26-1.13,3.3,9.06a83.33,83.33,0,0,1-17.56,4.38l.06-.93a.7.7,0,0,1,.19-.43l.93-.86a.46.46,0,0,1,.42-.1l1.11.33a.19.19,0,0,0,.26-.18l.12-1.1a1.12,1.12,0,0,1,.17-.46l.38-.54a.45.45,0,0,0,0-.42l-.54-1a.49.49,0,0,0-.36-.23h-1.06a.86.86,0,0,0-.44.15l-1.1.85a.56.56,0,0,0-.2.4l0,.56a.49.49,0,0,1-.23.37l-.69.37a.63.63,0,0,1-.45,0l-.19-.08a.42.42,0,0,0-.42.06l-.21.17a.57.57,0,0,0-.17.41l.07.71a.78.78,0,0,1-.12.45l-.49.68a.25.25,0,0,0,.05.35l.37.28a.87.87,0,0,1,.26.4l0,.06q-1.72.15-3.39.18l-.44-.47a.34.34,0,0,0-.38-.07l-.22.11a.32.32,0,0,1-.37-.07l0,0a.59.59,0,0,1-.13-.42l0-.34a.21.21,0,0,0-.2-.24M113.78,73c.53-.08,1.07-.14,1.6-.2s.92,0,1.37,0a22.42,22.42,0,0,1,2.89.18c3.61.45,6.17,1.73,7.36,3.65A46,46,0,0,0,108.3,79a39.35,39.35,0,0,1,5.48-6m15.51,5.48a41.57,41.57,0,0,1,11.17,3.35l.66,3.23a1.83,1.83,0,0,0,.15.45l2.74,5.9a1.23,1.23,0,0,1,.1.46V94a3.88,3.88,0,0,0,0,.48l.35,2.1A26,26,0,0,1,142,100l-.6-.64A71.92,71.92,0,0,0,126,86.65c2.35-2.7,3.55-5.55,3.25-8.14M126.7,108.7l-.28-1.68c0-.13,0-.35,0-.48l-.13-1.76a1,1,0,0,0-.16-.43l-1-1.33a2.13,2.13,0,0,0-.34-.33l-1.71-1.2a1.19,1.19,0,0,1-.33-.34l-1.4-2.27a.49.49,0,0,0-.37-.2h-.86a.23.23,0,0,0-.23.24l0,.71a.16.16,0,0,0,.23.15l.59-.25a.19.19,0,0,1,.27.13l.2.82a.3.3,0,0,1-.17.33l-.76.33a.36.36,0,0,1-.39-.07l-.59-.59a.62.62,0,0,0-.41-.14l-.49.05c-.13,0-.18.11-.11.23l.27.41a.66.66,0,0,1,.06.44l-.29.92a3.47,3.47,0,0,1-.17.45l0,.08a.51.51,0,0,0,0,.42l.67,1.3a1.37,1.37,0,0,1,.13.45l.07.56a2.36,2.36,0,0,0,.1.46l.24.73a.59.59,0,0,0,.31.31l.58.18a.43.43,0,0,1,.25.32l.12,1.5a2.57,2.57,0,0,1,0,.48l-.18,1.68c0,.14,0,.35,0,.48v1.07a1,1,0,0,1-.13.44l-.41.61L113,95.17c1.06-.41,2.09-.85,3.07-1.32l.35.36a.41.41,0,0,1,.08.4l-.43,1.09a1.2,1.2,0,0,0-.07.46l0,.65a.7.7,0,0,0,.2.4l.57.5a.55.55,0,0,1,.16.4l-.06,1.08a.22.22,0,0,0,.23.24l.55,0a.35.35,0,0,0,.32-.22l.29-.81c0-.13.14-.32.2-.44l.15-.25a.52.52,0,0,1,.36-.24l.72-.09a.18.18,0,0,0,.15-.26l-.14-.36a.45.45,0,0,0-.33-.25l-.46,0a1.19,1.19,0,0,0-.46.06l-.18.07a.69.69,0,0,1-.45,0l-.3-.11a.35.35,0,0,1-.2-.33l.07-.68a.29.29,0,0,1,.27-.24h.61a.44.44,0,0,0,.36-.2l.55-1a.58.58,0,0,1,.35-.26l1.22-.22a1.07,1.07,0,0,1,.47,0l3.08.83c.13,0,.21,0,.19-.17l-.19-1.19a1.49,1.49,0,0,1,0-.47l.27-1.22a1.09,1.09,0,0,1,.22-.41l.88-.87a1.3,1.3,0,0,1,.39-.27l1.19-.53a74,74,0,0,1,12.89,11.1c.23.23.45.47.67.72a51.8,51.8,0,0,1-14.75,10.16l-.25-.63a.53.53,0,0,1,0-.43l.68-1.12a.75.75,0,0,0,.09-.44M95,88.65l-.07-.9a43.52,43.52,0,0,1,9.52-5.58A63.57,63.57,0,0,0,98.91,91L96,91.44a.63.63,0,0,1-.42-.12l-.81-.73a.43.43,0,0,1-.13-.39l.28-1.08a1.87,1.87,0,0,0,0-.47m1.4,22.43a.83.83,0,0,0,.18-.42l.17-1.74c0-.13,0-.34.06-.47l.5-2.81a3.81,3.81,0,0,0,.07-.47l.62-6a.91.91,0,0,1,.19-.41l1-1,.74,0a36.94,36.94,0,0,0,11.7-2.1l6.85,18.82A59.47,59.47,0,0,1,94,117.8l0-.56c.09-1.36.2-2.68.33-4Zm28.23-25.26a59.16,59.16,0,0,0-14.86-5.62,43.69,43.69,0,0,1,17.93-1.9c.43,2.28-.74,4.94-3.07,7.52m-1.87.81-.31.09a1.18,1.18,0,0,1-.46,0l-2.14-.35a2.42,2.42,0,0,1-.46-.13l-2.79-1.22a.24.24,0,0,0-.31.13l-.09.21a1.19,1.19,0,0,0-.05.46l0,.09a1.16,1.16,0,0,0,.18.43L117.5,88a.94.94,0,0,1,.16.43l0,.57a2.6,2.6,0,0,0,.09.47l.38,1a.89.89,0,0,1,0,.46v0a38.21,38.21,0,0,1-5.67,2.75L108,81.43a59.56,59.56,0,0,1,14.69,5.2M111,94.22a35.27,35.27,0,0,1-10.76,2l.87-2.73a.69.69,0,0,0,0-.45l-.69-1.43A63.55,63.55,0,0,1,106.53,82ZM94.74,85.85,94.6,84a2.36,2.36,0,0,0-.1-.46l-.65-1.72a42,42,0,0,1,3.69-2.65,38.2,38.2,0,0,1,7.58,1,46,46,0,0,0-10.38,5.7M90.9,117l.13.41a33.89,33.89,0,0,1-4.27-1l-.12-.93a.75.75,0,0,1,.09-.44l1.07-1.73a.2.2,0,0,1,.31,0l.69.57a2.76,2.76,0,0,0,.39.28l1.72,1a.35.35,0,0,1,.16.36l-.2,1.05a1.18,1.18,0,0,0,0,.46m11.49,29.65a.33.33,0,0,0,.25-.29l0-.8a.47.47,0,0,1,.22-.36l.23-.13a.39.39,0,0,0,.2-.35l0-.67a1.79,1.79,0,0,0-.09-.46l-.46-1.31a1.78,1.78,0,0,1-.07-.47l.06-1c7-.17,14.82-1.8,23.47-4.88l4.5,12.35-1.28-.22-.47-.08-3.05-.48a.29.29,0,0,1-.23-.28l0-.73a1,1,0,0,1,.13-.45l.51-.88a.94.94,0,0,0,.09-.44l0-.19a.35.35,0,0,0-.27-.28l-1.38-.21a1.49,1.49,0,0,0-.47,0l-3.93.85-.45.15-2,.84a2.18,2.18,0,0,0-.42.24l-1.59,1.16a.6.6,0,0,0-.23.38l-.15,1a1.39,1.39,0,0,1-.17.44l-.47.65a.5.5,0,0,1-.38.19l-2.78-.06a2.52,2.52,0,0,0-.47.06l-2,.56a.8.8,0,0,0-.36.27l-1.32,1.88a1.76,1.76,0,0,1-.3.31,38.7,38.7,0,0,1-5.26-6.25Zm48.77-32.09-1.46.61c.63,1.5,1.17,3,1.64,4.51a61,61,0,0,1-13.74,9.6v-.17l-2,.7v.5a91.32,91.32,0,0,1-8.45,3.62L124.24,126l.13,0a1.76,1.76,0,0,0,.42-.17.53.53,0,0,0,.21-.34l.11-.84a1,1,0,0,0-.09-.45l-.22-.38a.61.61,0,0,1,0-.44l.07-.18a.7.7,0,0,1,.28-.35l.48-.29a1,1,0,0,0,.31-.34l.54-1.11a.34.34,0,0,1,.34-.18l.21,0a.24.24,0,0,1,.2.27l-.08.49a1.48,1.48,0,0,0,0,.47l.07.63c0,.13.11.16.21.07l1-.93a.81.81,0,0,0,.21-.41l.14-1a1,1,0,0,1,.19-.43l.41-.52a.3.3,0,0,0,0-.37l-.75-.87a.83.83,0,0,1-.18-.42l-.16-1.39a1.49,1.49,0,0,0-.12-.46L126.83,113l-.08-.19A53.73,53.73,0,0,0,142,102.36c.41.49.82,1,1.21,1.5l1.26-1q-.67-.89-1.38-1.71c.67-.76,1.28-1.51,1.84-2.28V99a3.73,3.73,0,0,1,0,.47l0,2.57a.94.94,0,0,0,.13.44l1.78,2.71a2.17,2.17,0,0,0,.32.36l2.33,1.91a1.48,1.48,0,0,1,.29.37l2.33,4.82c.06.11.14.11.18,0l.84-2.67a.24.24,0,0,1,.3-.15l.2.06a.34.34,0,0,1,.23.31l0,1.77a1.93,1.93,0,0,0,.08.47l.37,1a1.88,1.88,0,0,0,.22.42l.89,1.26a37,37,0,0,1-2.83,3.32c-.43-1.28-.91-2.57-1.45-3.85M135.91,75.72,138,79.11a43.13,43.13,0,0,0-9.13-2.28,7.68,7.68,0,0,0-3.85-4,41.39,41.39,0,0,1,10.89,2.84m-25-2.15a35.28,35.28,0,0,0-4,4.7l-1.16-3.19a42.62,42.62,0,0,1,5.2-1.51m-6.68,2.09,1,2.89a36.25,36.25,0,0,0-5.35-.85,41.26,41.26,0,0,1,4.3-2m-19,61.79a35,35,0,0,0,10.83,3.1l-.16.24a.52.52,0,0,0,0,.42l.3.8a.74.74,0,0,0,.29.34l.6.33a1.81,1.81,0,0,0,.45.14l.38,0a41.87,41.87,0,0,0,7.5,10.59,41.89,41.89,0,0,1-20.14-16m60.17,10-.12-.14L145,147l-.6-.85a1,1,0,0,1-.08-.11,74.72,74.72,0,0,0,8.21-5.64l-.06.25a42.1,42.1,0,0,1-7.06,6.87m11-12.67c-.51.52-1,1-1.61,1.55a42.73,42.73,0,0,0-1.65-16.26,37.75,37.75,0,0,0,3.25-3.68l.37.52.24.41,1.46,3.07a1.51,1.51,0,0,1,.13.46l.25,1.94c0,.13,0,.34.07.47l.83,3.93a41.92,41.92,0,0,1-3.34,7.59"/><path class="cls-1" d="M111.7,69.43V55.14h16.6V69.43a46.3,46.3,0,0,0-16.6,0m48.42,23.1h.59V68.24a30.92,30.92,0,0,1-8.26.45l-.25,0a25.92,25.92,0,0,1-7.91-1.75v8.75a45.91,45.91,0,0,1,15.83,16.86M95.71,75.67V66.92a25.92,25.92,0,0,1-7.91,1.75l-.25,0a30.92,30.92,0,0,1-8.26-.45V92.53h.59A45.91,45.91,0,0,1,95.71,75.67M120,160h0a45.35,45.35,0,0,1-8.3-.76v25.92a87.65,87.65,0,0,0,8.3,4.66,87.65,87.65,0,0,0,8.3-4.66V159.23a45.35,45.35,0,0,1-8.3.76M79.88,136.14h-.59v12.63A82.63,82.63,0,0,0,95.71,172V153a45.88,45.88,0,0,1-15.83-16.85M144.29,153v19a82.63,82.63,0,0,0,16.42-23.21V136.14h-.59A45.88,45.88,0,0,1,144.29,153"/><path class="cls-3" d="M140.89,97.31c0,5.19,2.39,7.89,4.49,10.27,1.51,1.72,2.86,3.25,3.32,5.71h-3.94v-2.93h-3.87v6.8h11.85v-1.94c0-5.13-2.37-7.82-4.46-10.19-1.53-1.74-2.89-3.28-3.35-5.79h3.94v2.93h3.87v-6.8H140.89Z"/><polygon class="cls-3" points="167.38 99.24 167.38 95.37 157.13 95.37 157.13 117.16 167.38 117.16 167.38 113.29 161 113.29 161 107.25 165.72 107.25 165.72 103.38 161 103.38 161 99.24 167.38 99.24"/><path class="cls-3" d="M72.62,97.31c0,5.19,2.38,7.89,4.48,10.27,1.51,1.72,2.86,3.25,3.32,5.71H76.49v-2.93H72.62v6.8H84.46v-1.94c0-5.13-2.37-7.82-4.46-10.19-1.52-1.74-2.88-3.28-3.35-5.79h3.94v2.93h3.87v-6.8H72.62Z"/><rect class="cls-3" x="87.09" y="104.33" width="5.32" height="3.87"/><polygon class="cls-3" points="131.47 95.37 127.61 95.37 127.61 117.16 137.85 117.16 137.85 113.29 131.47 113.29 131.47 95.37"/><path class="cls-3" d="M119.18,113.29h-1.3c-1,0-2.81,0-2.81-4V95.37H111.2v13.94a9.3,9.3,0,0,0,1.25,5.13,6.06,6.06,0,0,0,5.43,2.72h5.17V95.37h-3.87Z"/><path class="cls-3" d="M96,95.37v21.79h3.87v-6.37c0-1.49.49-1.84,2.18-2.81,2.31-1.32,5.79-3.32,5.79-10.67V95.37Zm4.13,9.25-.26.15V99.24h4c-.4,3.47-2,4.37-3.74,5.38"/><path class="cls-3" d="M120.8,124.14h-1.63a3.69,3.69,0,0,1-1.12,2.17,8.46,8.46,0,0,0-2.22,6.17v.81h1.62v-.81c0-.2,0-.39,0-.58h1.71v1.39h1.62v-9.15Zm-1.62,6.14h-1.49a6.53,6.53,0,0,1,1.49-2.78Z"/><path class="cls-3" d="M112.91,124.14h1.63V125a4.61,4.61,0,0,1-1.38,3.77,4.64,4.64,0,0,1,1.38,3.76v.81h-1.63v-.81c0-2.15-.75-2.58-1.61-3.07l-.11-.07v3.95h-1.63v-9.15h1.63v2.67a1,1,0,0,0,.53,1c.64-.41,1.19-1,1.19-2.82Z"/><rect class="cls-3" x="86.45" y="124.14" width="1.63" height="9.15"/><path class="cls-3" d="M83.08,124.14h1.63v9.15H83.08v-3.95a5.83,5.83,0,0,1-.66.23c-.79.25-1.06.33-1.06,1.21v2.51H79.73v-9.15h1.63v4.08a5,5,0,0,1,.58-.2c.81-.25,1.14-.36,1.14-1.37v-2.51Z"/><path class="cls-3" d="M73,124.14h5V127H76.37v-1.23H74.71a5,5,0,0,0,1.41,2.43A5.87,5.87,0,0,1,78,132.48v.81H73v-2.86h1.62v1.24H76.3a4.85,4.85,0,0,0-1.4-2.4A6,6,0,0,1,73,125Z"/><path class="cls-3" d="M99.58,124.14h1.62v9.15H99a2.54,2.54,0,0,1-2.28-1.14,3.92,3.92,0,0,1-.52-2.16v-5.85h1.62V130c0,1.68.74,1.68,1.18,1.68h.55Z"/><path class="cls-3" d="M107.39,125.33a2.37,2.37,0,0,0-4.11,0,4.42,4.42,0,0,0-.43,2.11V130a3.92,3.92,0,0,0,.52,2.16,2.54,2.54,0,0,0,2.28,1.14h2.17v-5.85a4.42,4.42,0,0,0-.43-2.11m-1.19,6.34h-.55c-.44,0-1.18,0-1.18-1.68v-2.55c0-1.67.58-1.67.86-1.67s.87,0,.87,1.67Z"/><path class="cls-3" d="M92.84,129.26a4.9,4.9,0,0,0-1.34,2.41h3.13v1.62H89.81v-.81a6,6,0,0,1,1.78-4.27,4.86,4.86,0,0,0,1.35-2.44H89.81v-1.63h4.82V125a6.08,6.08,0,0,1-1.79,4.31"/><rect class="cls-3" x="140.97" y="124.14" width="1.63" height="9.15"/><path class="cls-3" d="M137.61,124.14h1.62v9.15h-1.62v-3.95a6.6,6.6,0,0,1-.66.23c-.8.25-1.07.33-1.07,1.21v2.51h-1.62v-9.15h1.62v4.08a4.57,4.57,0,0,1,.59-.2c.8-.25,1.14-.36,1.14-1.37v-2.51Z"/><path class="cls-3" d="M127.54,124.14h5V127h-1.63v-1.23h-1.65a4.87,4.87,0,0,0,1.4,2.43,5.88,5.88,0,0,1,1.88,4.28v.81h-5v-2.86h1.63v1.24h1.65a4.84,4.84,0,0,0-1.39-2.4,5.92,5.92,0,0,1-1.89-4.32Z"/><rect class="cls-3" x="152.22" y="124.14" width="1.63" height="9.15"/><path class="cls-3" d="M165.36,124.14H167v9.15h-2.17a2.53,2.53,0,0,1-2.28-1.14A3.92,3.92,0,0,1,162,130v-5.85h1.62V130c0,1.68.74,1.68,1.18,1.68h.55Z"/><path class="cls-3" d="M158.62,129.26a4.9,4.9,0,0,0-1.34,2.41h3.13v1.62h-4.82v-.81a6,6,0,0,1,1.78-4.27,4.93,4.93,0,0,0,1.35-2.44h-3.13v-1.63h4.82V125a6.08,6.08,0,0,1-1.79,4.31"/><path class="cls-3" d="M148.86,124.14h1.63v9.15h-1.63v-5.57a2.2,2.2,0,0,0-.64,1.67v.26H146.6v-.26a2.26,2.26,0,0,0-.64-1.69v5.59h-1.63v-9.15H146v.12a2.55,2.55,0,0,0,.92,2c.17.19.36.38.53.61.18-.22.36-.41.53-.59a2.47,2.47,0,0,0,.92-2Z"/></svg>