<svg xmlns="http://www.w3.org/2000/svg" xmlns:xlink="http://www.w3.org/1999/xlink" width="1080" zoomAndPan="magnify" viewBox="0 0 810 809.999993" height="1080" preserveAspectRatio="xMidYMid meet" version="1.0"><path fill="#ffffff" d="M 253.164062 51.277344 L 232.421875 61.578125 C 189.683594 82.175781 140.984375 105.5625 105.609375 118.074219 L 90.644531 123.320312 L 91.269531 139.203125 C 91.75 150.992188 102.820312 428.625 126.113281 515.925781 C 150.753906 608.132812 200.609375 683.59375 274.335938 740.234375 C 292.964844 754.550781 312.640625 767.242188 333.363281 778.3125 C 354.085938 789.386719 375.570312 798.6875 397.824219 806.214844 L 405.140625 808.621094 L 412.40625 806.214844 C 434.671875 798.691406 456.167969 789.394531 476.898438 778.320312 C 497.628906 767.25 517.308594 754.554688 535.945312 740.234375 C 609.671875 683.59375 659.53125 608.132812 684.265625 515.828125 C 707.558594 428.53125 718.628906 150.898438 719.109375 139.105469 L 719.734375 123.226562 L 704.765625 117.980469 C 669.15625 105.46875 620.644531 82.078125 577.910156 61.433594 L 557.214844 51.183594 C 513.039062 29.1875 458.078125 1.660156 405.140625 1.660156 C 352.203125 1.660156 297.246094 29.1875 253.164062 51.277344 Z M 253.164062 51.277344 " fill-opacity="1" fill-rule="nonzero"/><path fill="#000000" d="M 257.347656 59.699219 L 236.703125 70 C 193.390625 90.742188 144.832031 114.273438 108.738281 126.980469 L 100.316406 129.914062 L 100.652344 138.816406 C 101.136719 150.558594 112.15625 427.132812 135.207031 513.472656 C 159.269531 603.65625 208.019531 677.433594 280.0625 732.777344 C 298.273438 746.777344 317.511719 759.1875 337.773438 770.007812 C 358.035156 780.832031 379.046875 789.914062 400.808594 797.265625 L 405.042969 798.660156 L 409.375 797.214844 C 431.164062 789.882812 452.199219 780.808594 472.484375 769.996094 C 492.773438 759.179688 512.03125 746.777344 530.265625 732.777344 C 602.453125 677.433594 651.058594 603.65625 675.121094 513.472656 C 698.175781 427.132812 709.195312 150.558594 709.675781 138.816406 L 710.011719 129.914062 L 701.589844 126.980469 C 665.449219 114.273438 616.890625 90.742188 573.578125 70 L 552.835938 59.699219 C 509.523438 38.042969 455.863281 11.09375 405.042969 11.09375 C 354.226562 11.09375 300.566406 38.042969 257.347656 59.699219 Z M 247.097656 91.75 L 268.175781 81.308594 C 309.132812 60.808594 360.046875 35.253906 405.140625 35.253906 C 450.234375 35.253906 501.148438 60.808594 542.105469 81.308594 L 563.183594 91.75 C 605.535156 112.203125 649.132812 133.234375 685.085938 146.664062 C 682.964844 194.789062 671.851562 431.804688 651.734375 507.261719 C 649.148438 517.441406 646.140625 527.496094 642.710938 537.421875 C 639.28125 547.351562 635.445312 557.117188 631.199219 566.722656 C 626.953125 576.328125 622.3125 585.738281 617.277344 594.957031 C 612.242188 604.175781 606.832031 613.164062 601.042969 621.929688 C 595.253906 630.695312 589.113281 639.199219 582.613281 647.449219 C 576.113281 655.699219 569.277344 663.664062 562.113281 671.339844 C 554.945312 679.019531 547.46875 686.382812 539.6875 693.433594 C 531.902344 700.484375 523.835938 707.199219 515.492188 713.574219 C 498.8125 726.390625 481.21875 737.789062 462.710938 747.777344 C 444.199219 757.761719 425.007812 766.203125 405.140625 773.105469 C 385.273438 766.203125 366.082031 757.761719 347.574219 747.777344 C 329.0625 737.789062 311.46875 726.390625 294.789062 713.574219 C 286.445312 707.199219 278.378906 700.484375 270.597656 693.433594 C 262.8125 686.382812 255.335938 679.019531 248.171875 671.339844 C 241.003906 663.664062 234.171875 655.699219 227.671875 647.449219 C 221.171875 639.199219 215.027344 630.695312 209.238281 621.929688 C 203.453125 613.164062 198.039062 604.175781 193.003906 594.957031 C 187.972656 585.738281 183.332031 576.328125 179.085938 566.722656 C 174.835938 557.117188 171 547.351562 167.570312 537.421875 C 164.144531 527.496094 161.136719 517.441406 158.546875 507.261719 C 138.433594 431.804688 127.316406 195.027344 125.199219 146.664062 C 161.148438 133.234375 204.75 112.203125 247.097656 91.75 Z M 247.097656 91.75 " fill-opacity="1" fill-rule="nonzero"/><path fill="#a40931" d="M 343.683594 327.035156 L 321.789062 366.976562 L 312.453125 327.035156 L 293.585938 327.035156 L 312.546875 407.691406 L 318.515625 407.691406 L 362.984375 327.035156 Z M 343.683594 327.035156 " fill-opacity="1" fill-rule="nonzero"/><path fill="#a40931" d="M 366.640625 327.035156 L 366.640625 344.746094 L 378.480469 344.746094 L 371.453125 388.777344 L 358.75 388.777344 L 358.75 406.488281 L 401.242188 406.488281 L 401.242188 388.777344 L 389.261719 388.777344 L 396.191406 344.746094 L 408.992188 344.746094 L 408.992188 327.035156 Z M 366.640625 327.035156 " fill-opacity="1" fill-rule="nonzero"/><path fill="#a40931" d="M 439.503906 327.515625 C 436.136719 328.601562 433.042969 330.207031 430.214844 332.328125 C 428.785156 333.351562 427.472656 334.507812 426.273438 335.792969 C 425.070312 337.078125 424.007812 338.46875 423.085938 339.960938 C 422.160156 341.457031 421.390625 343.027344 420.773438 344.675781 C 420.160156 346.324219 419.714844 348.015625 419.433594 349.75 C 419.207031 351.105469 419.09375 352.46875 419.097656 353.839844 C 419.070312 355.910156 419.375 357.933594 420.011719 359.902344 C 421.015625 362.710938 422.617188 365.117188 424.824219 367.121094 C 429.011719 370.519531 433.664062 373.070312 438.78125 374.773438 C 445.855469 377.664062 449.222656 379.585938 449.222656 382.425781 C 449.246094 382.667969 449.246094 382.90625 449.222656 383.148438 C 448.550781 387.527344 442.148438 389.835938 437.769531 389.835938 C 434.917969 389.800781 432.15625 389.269531 429.492188 388.25 C 426.324219 386.902344 423.292969 385.296875 420.398438 383.4375 L 417.414062 381.65625 L 412.601562 397.632812 L 413.851562 398.742188 C 416.6875 401.433594 419.898438 403.566406 423.476562 405.140625 C 427.210938 406.652344 431.09375 407.375 435.121094 407.308594 C 438.789062 407.328125 442.371094 406.792969 445.871094 405.699219 C 449.371094 404.609375 452.621094 403.011719 455.625 400.90625 C 458.683594 398.730469 461.234375 396.070312 463.277344 392.917969 C 465.425781 389.515625 466.804688 385.828125 467.414062 381.847656 C 467.601562 380.652344 467.699219 379.449219 467.703125 378.238281 C 467.714844 376.175781 467.378906 374.171875 466.691406 372.222656 C 465.652344 369.546875 464.050781 367.269531 461.878906 365.390625 C 457.8125 362.183594 453.335938 359.714844 448.453125 357.980469 C 445.476562 356.855469 442.652344 355.425781 439.984375 353.695312 C 438.203125 352.347656 437.769531 351.242188 437.769531 350.230469 C 437.769531 350.230469 437.769531 349.796875 437.769531 349.605469 C 437.992188 348.746094 438.371094 347.960938 438.902344 347.253906 C 439.4375 346.542969 440.085938 345.964844 440.851562 345.515625 C 443.175781 344.054688 445.707031 343.347656 448.453125 343.398438 C 451.109375 343.449219 453.640625 344.027344 456.058594 345.128906 C 458.585938 346.261719 460.960938 347.65625 463.179688 349.316406 L 465.632812 351.144531 L 473.621094 336.707031 L 472.035156 335.3125 C 469 332.425781 465.617188 330.035156 461.878906 328.140625 C 458.097656 326.457031 454.132812 325.65625 449.992188 325.734375 C 446.402344 325.769531 442.90625 326.363281 439.503906 327.515625 Z M 419.578125 349.894531 Z M 467.703125 382.234375 Z M 467.703125 382.234375 " fill-opacity="1" fill-rule="nonzero"/><path fill="#a40931" d="M 502.402344 327.515625 C 499.046875 328.625 495.953125 330.226562 493.113281 332.328125 C 491.6875 333.355469 490.378906 334.515625 489.179688 335.800781 C 487.984375 337.085938 486.921875 338.476562 485.996094 339.96875 C 485.074219 341.464844 484.300781 343.035156 483.683594 344.679688 C 483.070312 346.324219 482.617188 348.015625 482.332031 349.75 C 482.128906 351.105469 482.015625 352.46875 481.996094 353.839844 C 481.984375 355.914062 482.304688 357.9375 482.960938 359.902344 C 483.960938 362.710938 485.566406 365.117188 487.773438 367.121094 C 491.949219 370.507812 496.585938 373.058594 501.679688 374.773438 C 508.800781 377.664062 512.171875 379.585938 512.171875 382.425781 C 512.195312 382.667969 512.195312 382.90625 512.171875 383.148438 C 511.546875 387.527344 505.144531 389.835938 500.765625 389.835938 C 497.910156 389.804688 495.152344 389.277344 492.488281 388.25 C 489.304688 386.902344 486.257812 385.296875 483.34375 383.4375 L 480.359375 381.65625 L 475.546875 397.632812 L 476.847656 398.742188 C 479.683594 401.433594 482.890625 403.566406 486.472656 405.140625 C 490.210938 406.644531 494.089844 407.363281 498.117188 407.308594 C 501.785156 407.328125 505.367188 406.792969 508.867188 405.699219 C 512.367188 404.609375 515.617188 403.011719 518.621094 400.90625 C 521.707031 398.746094 524.273438 396.082031 526.320312 392.917969 C 528.480469 389.523438 529.84375 385.832031 530.410156 381.847656 C 530.613281 380.65625 530.726562 379.453125 530.746094 378.238281 C 530.746094 376.171875 530.390625 374.167969 529.6875 372.222656 C 528.648438 369.546875 527.042969 367.269531 524.875 365.390625 C 520.726562 362.019531 516.136719 359.421875 511.113281 357.59375 C 508.125 356.457031 505.285156 355.03125 502.59375 353.3125 C 501.96875 352.949219 501.464844 352.460938 501.082031 351.847656 C 500.699219 351.234375 500.480469 350.566406 500.429688 349.847656 C 500.40625 349.636719 500.40625 349.429688 500.429688 349.21875 C 500.632812 348.359375 500.996094 347.574219 501.523438 346.863281 C 502.050781 346.152344 502.695312 345.574219 503.460938 345.128906 C 505.785156 343.667969 508.320312 342.960938 511.0625 343.011719 C 513.71875 343.066406 516.253906 343.644531 518.667969 344.746094 C 521.195312 345.875 523.570312 347.273438 525.789062 348.929688 L 528.246094 350.761719 L 536.234375 336.324219 L 534.644531 334.925781 C 531.617188 332.03125 528.234375 329.640625 524.492188 327.757812 C 520.722656 326.074219 516.777344 325.269531 512.652344 325.351562 C 509.121094 325.539062 505.707031 326.261719 502.402344 327.515625 Z M 482.140625 349.894531 Z M 530.265625 382.234375 Z M 530.265625 382.234375 " fill-opacity="1" fill-rule="nonzero"/><path fill="#a40931" d="M 551.105469 327.035156 L 551.105469 341.855469 L 540.902344 406.488281 L 585.371094 406.488281 L 585.371094 388.777344 L 561.308594 388.777344 L 563.953125 371.933594 L 589.507812 371.933594 L 589.507812 354.226562 L 566.792969 354.226562 L 568.238281 344.601562 L 593.40625 344.601562 L 593.40625 326.890625 Z M 551.105469 327.035156 " fill-opacity="1" fill-rule="nonzero"/><path fill="#a40931" d="M 612.078125 327.035156 L 612.078125 341.855469 L 601.875 406.488281 L 643.023438 406.488281 L 643.023438 388.777344 L 622.472656 388.777344 L 632.097656 327.035156 Z M 612.078125 327.035156 " fill-opacity="1" fill-rule="nonzero"/><path fill="#a40931" d="M 224.527344 379.347656 L 155.46875 280.691406 L 224.527344 439.597656 L 293.585938 280.691406 Z M 224.527344 379.347656 " fill-opacity="1" fill-rule="nonzero"/><path fill="#000000" d="M 193.632812 139.445312 C 177.269531 146.949219 161.097656 153.882812 145.988281 160.183594 C 147.046875 183.09375 148.972656 221.496094 151.714844 264.953125 L 193.632812 264.953125 Z M 193.632812 139.445312 " fill-opacity="1" fill-rule="nonzero"/><path fill="#000000" d="M 178.039062 502.066406 C 182.261719 517.9375 187.457031 533.480469 193.632812 548.699219 L 193.632812 455.335938 L 169.328125 455.335938 C 171.355469 471.074219 174.257812 486.652344 178.039062 502.066406 Z M 178.039062 502.066406 " fill-opacity="1" fill-rule="nonzero"/><path fill="#000000" d="M 288.871094 93.53125 L 277.128906 99.402344 L 255.953125 109.894531 L 235.644531 119.519531 L 235.644531 264.953125 L 288.871094 264.953125 Z M 288.871094 93.53125 " fill-opacity="1" fill-rule="nonzero"/><path fill="#000000" d="M 235.546875 624.496094 C 251.136719 645.863281 268.910156 665.226562 288.871094 682.582031 L 288.871094 455.335938 L 235.546875 455.335938 Z M 235.546875 624.496094 " fill-opacity="1" fill-rule="nonzero"/><path fill="#000000" d="M 330.738281 714.296875 C 347.734375 725.359375 365.507812 734.984375 384.0625 743.171875 L 384.0625 455.382812 L 330.738281 455.382812 Z M 330.738281 714.296875 " fill-opacity="1" fill-rule="nonzero"/><path fill="#000000" d="M 384.0625 57.390625 C 365.679688 60.992188 347.90625 66.542969 330.738281 74.042969 L 330.738281 264.953125 L 384.0625 264.953125 Z M 384.0625 57.390625 " fill-opacity="1" fill-rule="nonzero"/><path fill="#000000" d="M 479.253906 73.945312 C 462.09375 66.4375 444.320312 60.90625 425.929688 57.34375 L 425.929688 264.953125 L 479.253906 264.953125 Z M 479.253906 73.945312 " fill-opacity="1" fill-rule="nonzero"/><path fill="#000000" d="M 425.929688 743.21875 C 444.488281 735.042969 462.261719 725.417969 479.253906 714.34375 L 479.253906 455.335938 L 425.929688 455.335938 Z M 425.929688 743.21875 " fill-opacity="1" fill-rule="nonzero"/><path fill="#000000" d="M 574.445312 119.566406 L 554.230469 109.941406 L 533.105469 99.5 L 521.121094 93.53125 L 521.121094 264.953125 L 574.445312 264.953125 Z M 574.445312 119.566406 " fill-opacity="1" fill-rule="nonzero"/><path fill="#000000" d="M 521.121094 682.824219 C 541.054688 665.566406 558.832031 646.316406 574.445312 625.074219 L 574.445312 455.335938 L 521.121094 455.335938 Z M 521.121094 682.824219 " fill-opacity="1" fill-rule="nonzero"/><path fill="#000000" d="M 616.363281 549.515625 C 622.644531 534.078125 627.9375 518.3125 632.242188 502.210938 C 636.054688 486.796875 638.992188 471.222656 641.050781 455.480469 L 616.363281 455.480469 Z M 616.363281 549.515625 " fill-opacity="1" fill-rule="nonzero"/><path fill="#000000" d="M 664.292969 160.183594 C 649.085938 154.074219 632.820312 146.855469 616.167969 139.300781 L 616.167969 264.953125 L 658.375 264.953125 C 661.308594 221.496094 663.234375 183.09375 664.292969 160.183594 Z M 664.292969 160.183594 " fill-opacity="1" fill-rule="nonzero"/></svg>