<svg xmlns="http://www.w3.org/2000/svg" width="1080" viewBox="0 0 810 810" height="1080" version="1.0"><path fill="#fff" d="M232.078 159.262c4.277-4.489 13.8-13.758 31.39-13.164 11.005-5.082 23.587-3.078 28.27-.332 0 0 7.918-.188 13.032 2.273a314.488 314.488 0 0 1 199.328 0c5.101-2.46 13.023-2.273 13.023-2.273 4.68-2.746 17.266-4.75 28.27.332 17.558-.594 27.086 8.71 31.39 13.164 2.422-6.805 6.653-12.57 16.59-15.922 3.59-18.426 27.5-26.75 61.258-9.742 15.066-13.668 37.168.898 44.406 20.652 11.121-2.809 28.754 7.555 27.57 40.762 11.266.593 15.641 12.465 12.45 31.699 6.699-1.43 39.605-7.555 63.183 22.45 11.246 14.312 4.719 32.597-7.246 41.523-.8 2.226-5.804 22.207-20.906 30.351-.899 10.13 16.629 31.781 23.219 46.024 18.53 40.058 9.32 108.097-59.364 119.738 3.04 2.855 10.02 12.437 12.305 20.39 2.95 10.293.727 20.235-4.484 28.739-5.668 9.34-26.907 22.601-32.137 29.265 9.867 5.829 20.988 17.735 15.992 40.204l-19.515 87.886c-3.204 14.313-12.735 26.426-28.29 29.57-7.882 1.59-16.14-.081-21.085-1.39-34.133-9.055-58.832-2.031-96.672 10.246-19.73 6.39-41.203 13.469-66.692 19.008a450.923 450.923 0 0 1-185.886 0c-25.461-5.496-46.989-12.59-66.72-18.985-37.839-12.273-62.538-19.296-96.671-10.242-4.969 1.309-13.203 2.98-21.086 1.39-15.555-3.144-25.113-15.265-28.29-29.57l-19.507-87.886c-4.996-22.453 6.172-34.379 15.992-40.207-5.265-6.66-26.468-19.926-32.136-29.262-5.172-8.523-7.399-18.465-4.485-28.738 2.29-7.957 9.266-17.54 12.305-20.39-68.645-11.657-77.856-79.7-59.309-119.759 6.59-14.242 24.117-35.918 23.22-46.023-15.15-8.117-20.126-28.125-20.923-30.352-11.965-8.925-18.496-27.207-7.25-41.523 23.582-30 56.504-23.875 63.188-22.45-3.196-19.234 1.183-31.105 12.445-31.698-1.184-33.227 16.45-43.57 27.574-40.758 7.235-19.758 29.336-34.332 44.403-20.657 33.757-17.015 57.714-8.69 61.257 9.735 9.938 3.394 14.172 9.113 16.59 15.922Zm0 0"/><path fill="#ff0" d="M318.422 717.816c-24.297-5.261-44.758-12.07-63.555-18.168-36.77-11.933-69.058-21.89-111.355-11.898-8.649 2.148-11.66 2.094-13.563-6.688l-17.55-79.105c-1.606-7.363.554-8.898 7.648-10.5 52.289-11.23 95.402-3.5 138.773 7.57 22.727 5.801 45.282 12.438 68.914 17.63 24.047 5.28 49.184 9.07 76.668 9.07 27.48 0 52.618-3.79 76.664-9.07 23.633-5.192 46.192-11.829 68.918-17.63 43.371-11.07 86.485-18.8 138.77-7.57 7.094 1.602 9.254 3.137 7.648 10.5l-17.558 79.148c-1.93 8.79-4.926 8.836-13.598 6.68-42.316-9.976-74.531 0-111.32 11.906-18.836 6.098-39.258 12.907-63.551 18.168a418.151 418.151 0 0 1-171.965 0l.008-.047Zm-.961-453.484-2.29-1.383.575-2.625c1.527-6.93.586-13.11-10.078-13.469l-2.637-.09-8.074-25.41 2.227-1.582c7.316-5.199 5.62-11.738-4.309-15.265l-2.465-.899v-2.613c0-4.23 2.547-6.574 4.36-8.226l1.39-1.266c.43-.41.895-.899 1.336-1.356a17.648 17.648 0 0 0 2.547-3.59l.644-1.214 1.274-.5a281.086 281.086 0 0 1 204.902 0l1.274.5.644 1.215a17.648 17.648 0 0 0 2.547 3.59c.457.503.899.898 1.336 1.355l1.39 1.266c1.794 1.652 4.36 3.996 4.36 8.226v2.633l-2.469.898c-9.925 3.59-11.656 10.11-4.304 15.266l2.226 1.578-8.074 25.414-2.637.09c-10.664.34-11.605 6.52-10.078 13.469l.574 2.62-2.289 1.384c-3.203 1.941-6.008 9.644-4.152 15.265l2.77 8.364-7.954-3.782a179.564 179.564 0 0 0-155.25 0l-7.937 3.817 2.77-8.36c1.855-5.64-.958-13.347-4.153-15.285v-.035Zm0 0"/><path fill="red" d="M695.418 331.941a8.12 8.12 0 0 1-.773.942c-2.895 3.035-8.618 6.027-13.622 5.875l-4.214-.125.375 4.199c1.648 18.176 12.43 42.512 23.32 55.121 11.066 12.785 16.933 26.68 16.324 39.16l-.18 3.594 3.586.34c21.016 1.969 35.668-8.008 40.907-22.36 7.972-21.82-7.559-45.41-18.118-61.378-13.918-21.059-11.597-44.954-8.414-60.04l.524-2.468-2.09-1.41c-4.207-2.829-6.434-7.614-6.434-13.094 0-6.086 1.508-12.73 7.563-18.8 6.402-6.403 13.246-7.185 23.183-7.185 4.891 0 17.043 5.387 20.63 10.692a.527.527 0 0 1 .081.46c0 .145-.242.583-1.058 1.024-4.117 2.192-6.406 5.801-7.957 9.32-1.418 3.223-2.403 6.907-3.723 10.372-2.285 5.992-5.2 10.425-14.7 10.425h-2.831l-.762 2.696a64.87 64.87 0 0 0-2.308 15.265c-.582 15.598 3.293 26.196 9.023 35.641 1.957 3.215 4.996 7.785 8.188 12.93a153.28 153.28 0 0 1 8.843 15.922c13.606 29.39 4.485 65.554-28.699 76.086-5.309 1.69-17.238 3.359-29.867 1.195l-2.117-.367-1.371 1.644a37.97 37.97 0 0 1-2.387 2.594c-1.262 1.266-2.797 2.621-4.485 4.059l-.816.71-.312 1.024c-2.852 9.39-1.946 20.375 7.543 31.355 3.75 4.34 7.003 7.868 9.496 10.922 2.496 3.051 3.777 5.145 4.261 6.813.637 2.23.207 5.11-8.898 11.676-23.184 16.668-32.555 30.835-37.668 40.992-2.36 4.715-3.676 8.433-5.176 10.965-1.066 1.796-1.683 2.12-2.95 2.128-4.565-.16-11.237-.953-16.144-3.015l-3.004-1.278-1.632 2.774c-2.977 5.012-14.867 5.937-19.668 2.793l-1.578-1.031-1.793.664c-9.868 3.656-16.457 3.11-20.45 1.914-1.539-.438-3-1.11-4.332-1.996a8.102 8.102 0 0 1-.894-.7c-17.48-1.328-18.746-19.234-11.149-28.949 1.676-2.148 6.922-8.558 17.864-8.558 7.453 0 42.718-22.145 42.718-33.856 0-2.695-1.793-4.633-3.086-5.808a37.503 37.503 0 0 0-5.44-3.801c-4-2.395-9.329-5.18-14.657-8.656-10.582-6.887-19.793-15.653-19.793-28.5 0-10.32 2.894-28.063 31.765-28.063h3.743v-3.746c0-20.922-20.989-41.82-31.39-49.75a45.194 45.194 0 0 1-13.134-16.711l-.672-1.426-1.48-.523c-10.7-3.754-20.242-15.93-29.246-30.215-4.485-7.059-8.574-14.305-12.473-20.719-3.902-6.41-7.777-12.32-11.66-16.344l-1.133-1.175h-1.613c-4.719.054-10.719-1.793-15.813-3.743l-1.847-.73-1.64 1.133c-9.212 6.367-19.274 2.246-19.731-3.14l-.32-3.387h-3.403c-5.262 0-7.453-3.208-7.648-8.04-.215-5.386 2.296-10.46 4.718-11.933l2.285-1.383-.574-2.621c-1.426-6.484-4.043-26.106 51.356-1.84a96.921 96.921 0 0 1 4.707 2.234l7.035 3.54-1.715-7.696c-2.144-9.68-6.476-18.797-15.55-26.699l-1.903-1.652-2.223 1.195c-3.644 1.86-6.18 1.543-9.285 0a46.088 46.088 0 0 1-5.812-3.773c-2.286-1.66-4.778-3.59-7.641-5.497-7.82-5.332-6.055-11.968 3.938-15.57l2.464-.898v-2.684a8.972 8.972 0 0 0-1.601-5.234 13.014 13.014 0 0 0-1.473-1.797c-.457-.469-.96-.899-1.496-1.418-.539-.524-.898-.844-1.437-1.32-.54-.477-.895-.899-1.38-1.438a17.864 17.864 0 0 1-2.574-3.96c-2.789-5.747 3.586-12.446 11.657-8.774l5.25-2.973c.28-.164.582-.297.894-.387 1.66-.55 3.406-.789 5.149-.699 4.843.117 8.254 1.7 8.824 2.559l6.281-.125a1.155 1.155 0 0 0-.457.52c.227-.095.469-.153.715-.18a7.592 7.592 0 0 1 3.777.703c3.211 1.37 7.848 5.207 11.793 14.718l1.266 3.043 3.176-.898c2.71-.77 5.472-1.34 8.27-1.707 1.792-.207 8.179-.68 9.702-.899a9.731 9.731 0 0 0 4.485-1.964 22.254 22.254 0 0 0 2.832-2.696l1.14-1.203c.34-.34.7-.691 1.078-1.004a7.097 7.097 0 0 1 2.063-1.312 39.19 39.19 0 0 1 5.621-.988l4.242-.555-1.113-4.14c-.305-1.134-.688-2.696-.895-4.106a15.379 15.379 0 0 1-.214-1.793 1.882 1.882 0 0 1 0-.469c.18-.582.894-1.445 3.586-2.29 2.863-.898 6.027-1.312 8.019-2.003 1.191-.402 2.438-.824 3.586-1.285a16.402 16.402 0 0 0 3.75-1.957 6.892 6.892 0 0 0 2.387-8.79c.742.071 1.793.235 3.129.466a39.668 39.668 0 0 1 7.586 2.164c.93.36 1.828.789 2.69 1.285.13.074.25.156.368.242-.039.36-.117.715-.23 1.059-.317.988-4.145 7.984-4.145 7.984s7.676-.727 8.645-.734c1.246-.02 2.492.066 3.722.257 1.973.325 3.832.72 5.461.98a15.03 15.03 0 0 0 5.48.106 6.126 6.126 0 0 0 4.864-4.855 11.372 11.372 0 0 0-.11-4.492 23.198 23.198 0 0 1 5.383 1.843c6.278 3.008 8.63 6.715 7.696 9.293-.746 2.055-3.59 4.067-3.688 4.141l-4.394 2.945s4.484 3.332 4.582 3.43c.316.234.613.492.898.762a15.073 15.073 0 0 1 2.422 3.469c2.691 5 8.277 3.25 10.547 1.937a11.669 11.669 0 0 0 5.66-7.383c2.95 3.102 5.758 8.211 6.098 11.946.304 3.27-.52 6.984-2.028 8.144-.52.402-3.406.899-3.882.899l-5.383.609s2.828 5.504 3.094 6.457c.488 1.8.687 3.668.593 5.531-.242 6.285 5.75 7.39 8.969 6.863a13.392 13.392 0 0 0 7.3-3.87c.243.464.485 1.003.735 1.605 1.696 4.14 2.602 9.574 1.473 13.469-.664 2.273-3.922 5.39-4.98 5.605a5.373 5.373 0 0 1-1.325.063c-.691 0-1.375-.118-1.965-.188a13.703 13.703 0 0 0-2.332-.144c-3.418.195-4.379 2.234-4.09 4.613.114.812.168 1.629.16 2.445 0 .899-.09 1.848-.195 3.348-.898 11.574 8.907 11.566 15.246 8.136.32 1.965.438 3.958.352 5.946a23.66 23.66 0 0 1-1.707 8.547c-1.031 2.3-2.215 3.164-3.344 3.359-2.691.45-3.777-.055-4.117-.223-4.977-2.523-6.277-.793-6.898 2.118-.106.496-.18.968-.368 1.59-.265.843-.593 1.66-.984 2.453-2.766 5.855-.207 10.378 4.914 11.394 2.582.41 5.227.211 7.723-.586a23.25 23.25 0 0 1-.828 5.508c-1.63 6.016-4.805 9.633-9.02 9.273a2.025 2.025 0 0 1-.539-.195c-.457-.242-.898-.559-1.328-.844a16.97 16.97 0 0 0-2.07-1.293 7.325 7.325 0 0 0-3.383-.898c-1.254 0-3.371.726-4.297 3.59a17.55 17.55 0 0 0-.625 3.476 41.598 41.598 0 0 0 .27 8.98 27.25 27.25 0 0 0 2.824 9.446c1.558 2.813 4.277 5.613 8.5 5.613.394.036.718.055.988.082ZM183.445 154.297a6.876 6.876 0 0 0 2.438 8.676 16.817 16.817 0 0 0 3.75 1.984c1.156.457 2.402.898 3.59 1.281 1.988.692 5.156 1.106 8.015 2.004 2.692.844 3.453 1.707 3.59 2.29a2.35 2.35 0 0 1 0 .468c-.039.602-.11 1.2-.219 1.797-.242 1.445-.625 2.969-.894 4.101l-1.113 4.114 4.242.558c1.898.188 3.777.52 5.625.985a7.18 7.18 0 0 1 2.117 1.332c.375.312.734.664 1.074 1.004l1.14 1.203c.864.98 1.813 1.883 2.833 2.695a9.772 9.772 0 0 0 4.484 1.965c1.528.242 7.867.719 9.707.898a56.74 56.74 0 0 1 8.266 1.707l3.176.899 1.265-3.043c3.946-9.512 8.582-13.348 11.793-14.719a7.592 7.592 0 0 1 3.778-.703c.246.023.488.086.718.18a1.187 1.187 0 0 0-.46-.52l6.28.125c.575-.898 3.981-2.441 8.825-2.558 1.746-.09 3.492.148 5.148.699.328.117.633.293.895.523 13.328-.836 19.68 5.863 16.89 11.61a18.231 18.231 0 0 1-2.609 3.988c-.469.527-.898 1.004-1.383 1.437-.484.43-.988.895-1.433 1.317-.45.426-1.043.953-1.5 1.422a12.677 12.677 0 0 0-1.47 1.793 8.987 8.987 0 0 0-1.605 5.238v2.629l2.465.898c9.992 3.594 11.758 10.238 3.938 15.57-2.86 1.942-5.383 3.836-7.64 5.497a45.809 45.809 0 0 1-5.813 3.773c-3.102 1.578-5.641 1.895-9.282 0l-2.253-1.14-1.899 1.652c-9.078 7.902-13.41 17.062-15.555 26.695l-1.71 7.7 7.03-3.54a102.803 102.803 0 0 1 4.708-2.238c55.402-24.246 52.781-4.64 51.355 1.844l-.574 2.62 2.289 1.384c2.422 1.472 4.934 6.582 4.715 11.933-.188 4.832-2.383 8.04-7.649 8.04h-3.398l-.316 3.382c-.508 5.39-10.575 9.512-19.782 3.145l-1.644-1.133-1.848.726c-5.094 1.996-11.094 3.801-15.808 3.746h-1.618l-1.136 1.133c-3.848 4.024-7.723 9.93-11.66 16.344-3.938 6.41-8.07 13.656-12.477 20.715-8.969 14.285-18.547 26.465-29.246 30.219l-1.48.52-.673 1.425A45.196 45.196 0 0 1 200.31 381.3c-10.387 7.93-31.391 28.824-31.391 49.746v3.746h3.738c28.871 0 31.77 17.746 31.77 28.062 0 12.852-9.203 21.614-19.797 28.504-5.324 3.473-10.652 6.286-14.652 8.657a37.212 37.212 0 0 0-5.446 3.796c-1.3 1.176-3.086 3.133-3.086 5.81 0 11.675 35.266 33.855 42.72 33.855 10.94 0 16.144 6.41 17.866 8.558 7.598 9.715 6.332 27.621-8.27 27.621h-1.292l-1.489 1.328a8.636 8.636 0 0 1-.894.703 15.575 15.575 0 0 1-4.332 1.993c-3.992 1.195-10.629 1.742-20.45-1.914l-1.792-.664-1.578 1.035c-4.801 3.14-16.692 2.215-19.668-2.793l-1.672-2.805-3.055 1.305c-4.879 2.062-11.555 2.855-16.144 3.015-1.266 0-1.883-.312-2.954-2.129-1.496-2.53-2.816-6.285-5.171-10.964-5.086-10.157-14.458-24.325-37.672-40.993-9.102-6.546-9.532-9.43-8.895-11.671.484-1.672 1.793-3.774 4.258-6.817 2.469-3.047 5.75-6.582 9.5-10.922 9.488-10.98 10.394-21.965 7.543-31.355l-.317-1.024-.804-.71c-1.66-1.438-3.195-2.794-4.485-4.06a43.303 43.303 0 0 1-2.386-2.593l-1.371-1.644-2.118.367c-12.628 2.164-24.554.496-29.867-1.196-33.183-10.53-42.332-46.691-28.699-76.086a153.28 153.28 0 0 1 8.844-15.921c3.191-5.145 6.277-9.715 8.187-12.93 5.73-9.445 9.614-20.043 9.024-35.64a65.068 65.068 0 0 0-2.305-15.266l-.766-2.696h-2.734c-9.496 0-12.414-4.433-14.7-10.425-1.32-3.465-2.296-7.184-3.722-10.372-1.55-3.519-3.84-7.128-7.953-9.32-.816-.441-1.016-.898-1.059-1.023a.503.503 0 0 1 .079-.457c3.59-5.336 15.742-10.696 20.628-10.696 9.938 0 16.782.77 23.184 7.184 6.066 6.07 7.563 12.715 7.563 18.805 0 5.476-2.223 10.261-6.43 13.09l-2.09 1.41.52 2.468c3.136 15.07 5.507 39.008-8.457 60.024-10.56 15.965-26.09 39.555-18.118 61.375C52.891 433.043 67.543 443 88.56 441.035l3.586-.344-.18-3.59c-.61-12.484 5.258-26.374 16.332-39.163 10.918-12.57 21.695-36.942 23.32-55.118l.375-4.203-4.215.125c-5.004.153-10.761-2.836-13.62-5.87a9.9 9.9 0 0 1-.829-.981h1.024c4.226 0 6.941-2.801 8.503-5.614a27.25 27.25 0 0 0 2.825-9.445c.41-2.977.504-5.984.27-8.98-.09-1.176-.302-2.34-.63-3.477-.894-2.89-3.039-3.59-4.297-3.59a7.37 7.37 0 0 0-3.378.899 17.51 17.51 0 0 0-2.075 1.293c-.43.285-.894.601-1.324.843-.172.09-.351.157-.539.196-4.215.359-7.39-3.258-9.023-9.274a23.444 23.444 0 0 1-.825-5.504 16.74 16.74 0 0 0 7.723.582c5.121-1.015 7.676-5.539 4.914-11.394-.39-.793-.723-1.61-.988-2.453-.188-.618-.258-1.094-.367-1.59-.602-2.91-1.918-4.64-6.895-2.117-.344.168-1.453.671-4.117.222-1.133-.195-2.317-1.058-3.348-3.36a23.74 23.74 0 0 1-1.703-8.546c-.086-1.988.031-3.98.352-5.945 6.367 3.43 16.14 3.437 15.246-8.137-.11-1.5-.188-2.477-.2-3.348-.003-.816.051-1.632.165-2.441.285-2.383-.672-4.422-4.09-4.617-.781-.02-1.563.031-2.332.144-.594.07-1.274.16-1.957.188a5.468 5.468 0 0 1-1.336-.063c-1.059-.242-4.313-3.332-4.977-5.605-1.129-3.914-.226-9.348 1.469-13.469.254-.601.496-1.14.738-1.605a13.379 13.379 0 0 0 7.301 3.87c3.2.528 9.191-.53 8.969-6.863-.098-1.863.101-3.73.59-5.53.27-.954 3.093-6.458 3.093-6.458l-5.379-.61c-.476-.054-3.363-.511-3.886-.898-1.504-1.156-2.328-4.875-2.024-8.144.34-3.735 3.145-8.844 6.008-11.852a12.122 12.122 0 0 0 5.75 7.29c2.27 1.312 7.89 3.062 10.547-1.938a14.934 14.934 0 0 1 2.527-3.469c.27-.27.555-.523.852-.762.082-6.449-2.754-8.46-3.496-10.515-.899-2.578 1.418-6.285 7.695-9.293a23.03 23.03 0 0 1 5.399-1.895c-.336 1.473-.372 3-.106 4.488a6.126 6.126 0 0 0 4.86 4.86c1.816.297 3.675.262 5.48-.11 1.633-.261 3.488-.656 5.46-.98a22.395 22.395 0 0 1 3.724-.258c.968 0 8.644.735 8.644.735s-3.848-6.977-4.187-7.973a4.539 4.539 0 0 1-.262-1.203c.11-.09.074.097.398-.098.86-.5 1.762-.93 2.688-1.285a39.424 39.424 0 0 1 7.59-2.164c1.011-.18 2.03-.29 3.058-.332Zm0 0"/><path d="M46.61 284.973c2.69 6.863 4.374 8.98 16.976 8.504a83.97 83.97 0 0 1 3.84 20.941c.61 16.355-3.489 27.59-9.508 37.52-1.965 3.234-5.004 7.812-8.207 12.968a149.558 149.558 0 0 0-8.652 15.551c-13.024 28.137-3.985 61.73 26.691 71.473 4.535 1.437 14.555 2.882 25.46 1.5a36.548 36.548 0 0 1-3.522-9.14c-22.641 2.386-39.223-8.083-45.196-24.466-4.484-12.168-2.144-24.496 2.145-35.289 4.285-10.797 10.914-20.926 16.324-29.105 13.164-19.899 11.516-43.164 6.977-63.028 4.374-2.328 8.894-4.12 8.878-12.125 0-5.675-1.203-11.367-6.414-16.261-11.757-11.043-30.297-4.012-36.77.898a22.794 22.794 0 0 1 7.173 9.527c1.453 3.278 2.46 7.004 3.804 10.536Zm152.581 71.113c2.196 2.234 5.329 3.59 9.704 3.59 9.585 0 19.23-9.32 29.703-25.14 5.023-7.59 9.632-15.68 13.957-22.884 4.324-7.203 8.843-14.367 13.453-19.164l2.36-2.457c8.448 1.04 21.523-4.941 21.523-4.941l3.445 2.37a14.544 14.544 0 0 0 10.043 2.185 3.896 3.896 0 0 0 3.668-3.657c.531-3.968-2.977-6.949-5.121-8.082-4.485-2.156-1.274-8.906 3.23-6.754 0 0 5.192 2.121 8.63 9.055 3.73.36 4.077-1.652 4.312-3.98.457-4.489-2.235-12.391-14.188-12.473-4.969.36-5.508-7.102-.539-7.461 0 0 5.246-.297 8.672 1.238.613-3.547-.715-5.219-2.176-5.781-4.308-1.672-16.062-1.742-43.86 10.531-6.277 2.766-19.472 10.778-32.081 15.617 2.781 3.32 7.176 5.227 11.328 1.797 6.762-5.586 5.383 23.032-5.086 24.559a9.938 9.938 0 0 1-6.969-1.797 22.073 22.073 0 0 1-1.496 5.461c-2.34 4.488-1.371 9.957 5.945 9.555.098 8.828-7.773 21.172-20.527 16.496-8.969-3.297-5.293-16.965-15.383-15.32-.285.054-1.336 4.984-.836 11.199 1.5 18.605 8.891 14.367 9.301 16.441.926 4.535-4.437 8.649-11.012 9.797Zm7.98 11.422c-9.991-.52-15.39-5.602-18.108-12.25-5.29-1.985-9.72-6.75-10.602-15.653-.824-8.332 4.004-19.144-4.484-19.144-1.387 0-2.985 6.476-3.668 9.652-4.313 19.938 5.293 14.746 1.668 18.977-6.168 7.183-27.352 5.637-25.012-15.211.664-5.957 6.504-17.262.414-17.262-4.332 0-3.785 16.164-11.438 22.863-.511 21.133-14.015 48.922-24.554 61.063C93.449 421.289 91 442.75 105.402 457.18c2.125 2.129 5.032 4.492 7.993 7.132a78.524 78.524 0 0 1 9.703 9.805c6.054 7.625 10.636 19.188.27 30.434-2.493 2.691-4.653 5.27-6.638 7.433-4.664 5.11-1.488 6.95 2.582 9.809 17.043 11.906 27.079 22.539 33.77 32.047a100.252 100.252 0 0 1 7.711 13.012c1.848 3.691 3.34 7.078 4.918 10.191 1.039 2.059 10.027 5.262 16.383 0 .152-4.176-1.559-8.98-4.028-12.508-2.976-4.312 3.48-8.781 6.461-4.492 3.364 4.867 6.141 12.652 5.336 18.789 7.176 2.504 12.985 2.254 17.938-.64.726-7.364-1.274-12.68-3.742-15.93-3.164-4.168 3.086-8.926 6.277-4.758a30.011 30.011 0 0 1 5.578 17.726c4.281-.449 5.832-3.261 6.332-6.53.793-5.173-1.094-11.395-3.363-14.294-1.406-1.797-5.594-6.976-14.625-6.976-8.395 0-46.836-22.848-46.836-37.97 0-4.55 3.004-7.57 4.484-8.87a40.525 40.525 0 0 1 6.074-4.266c3.961-2.379 9.247-5.137 14.536-8.578 10.406-6.77 17.937-14.465 17.937-25.055 0-9.218-2.77-21.898-21.578-23.605-4.027-.371-17.75-1.707-26.484 2.754-4.664 2.383-8.809-3.395-4.54-6.418 0 0 4.872-3.594 17.106-4.742.133-23.016 22.625-44.899 32.988-52.813a39.604 39.604 0 0 0 9.227-10.36ZM113.2 474.484c.207 8.082-2.457 16.739-9.867 25.317-3.723 4.3-6.984 7.773-9.426 10.836-4.484 5.633-4.808 6.718 3.918 13.066 23.582 17.145 33.453 31.645 38.801 42.36 3.543 7.101 4.484 11.16 5.918 11.035a60.002 60.002 0 0 0 9.168-1.356 26.804 26.804 0 0 0 4.41-1.402c-5.543-11.672-13.351-26.668-40.844-46.012-15.093-10.66-7.746-17.574 2.801-28.996 8.195-8.89 2.61-17.484-4.879-24.848ZM238.684 242.48h-24.43v-19.003s19.273.09 25.113-.61c2.168-.234 4.36-.16 6.512.215.375.063 1.336-.117 1.363-.719.555-3.36.332-10.953.332-10.953a17.072 17.072 0 0 0 4.348-11.629c-6.54-2.453-13.254-4.492-18.492-5.148-1.86-.215-8.27-.7-9.82-.942a12.555 12.555 0 0 1-5.77-2.406c-1.113-.844-4.637-5.55-6.477-5.953-13.972-3.09-29.793-1.625-33.46-.8a8.406 8.406 0 0 0-6.055 5.558c-2.637 0-8.43 0-10.868.469-2.835.59-3.894.77-3.964 2.691-.125 3.379 8.297 8.703 8.297 8.703a132.756 132.756 0 0 1-4.872 18.59c-.671 1.875-.71 3.437.895 7.184 2.27 5.242 7.77 8.082 15.25 9.273 5.441.898 12.32 9.484 15.695 10.84 2.051.828 14.996.71 19.992.512 10-.395 20.27-1.168 23.704-1.938 1.046-.219 2.132-2.578 2.707-3.934Zm-20.797 12.364c-12.012.672-25.453.808-28.703-.961-6.735-3.656-10.575-9.598-13.91-10.246-7.758-1.5-16.41-4.68-20.098-13.211-4.395-10.184.133-12.196 2.746-25.645-9.555-7.375-9.133-14.37-4.324-18.562 2.043-1.797 8.52-2.813 14.636-2.813 1.688-6.832 18.977-7.254 31.84-6.285.278-1.004.617-2.207.895-3.14.539-1.797.539-2.301-2.27-2.876-6.015-1.238-9.426-2.199-13.594-4.625-3.59-2.101-5.707-5.855-5.003-7.742.796-2.097-5.543.047-6.157 1.215-1.039 1.977 4.38 10.04 4.38 10.04a116.18 116.18 0 0 0-12.063-.368c-6.532.348-10.477 2.047-15.094 1.543-5.516-.61-8.574-4.957-8.18-8.082.242-1.922-7.175 3.36-6.968 5.566.167 1.715 2.625 4.707 8.714 8.676-10.59 6.188-7.945 13.703-17.039 14.063-2.691.097-9.867-1.957-10.601-5.848-.457-2.332-5.446 6.387-2.477 10.777 1.555 2.297 3.211 2.067 10.766 2.559-3.051 6.027-3.543 8.883-3.543 13.945 0 4.867-1.57 6.684-5.274 8.98-2.691 1.66-8.746 2.696-12.613-1.148-1.066-1.07-2.086 6.852-1.144 9.23.941 2.38 2.23 3.594 6 3.477 5.695-.172 8.914-1.332 8.824-.254a108.91 108.91 0 0 0 .172 16.164c.625 8.98-9.07 13.024-15.696 9.512-1.695-.898-.129 10.48 3.004 10.774 5.848.586 11.29-4.774 11.532-3.215 1.453 9.215 3.48 10.176 4.039 14.605 1.316 10.399-8.793 13.102-12.36 11.547-2.469-1.07.742 10.149 5.938 8.082 1.793-.726 4.285-2.973 6.672-2.973 3.793 0 6.097 1.329 7.66 6.286.797 2.515 1.21 7.949.383 13.468a29.39 29.39 0 0 1-3.094 10.282c-1.086 1.949-3.121 4.113-4.996 4.59-3.496.898 5.668 5.054 10.191 2.406 3.64-2.137 6.348-16 7.11-17.895 2.218-5.543 6-7.183 9.167-7.183a9.427 9.427 0 0 1 9.47 7.183c.534 2.594.46 5.278-.204 7.84-.422 1.922-2.387 8.98-2.629 10.129-2.52 12.203 10.934 12.652 9.461 11.125-2.062-2.207-1.793-9.508-.105-17.223.382-1.797 1.875-8.082 3.3-10.472 2.196-3.75 5.29-4.786 7.309-4.786 10.555 0 12.172 8.442 12.117 13.274 0 2.055-.558 10.613-.558 12.273 0 14.434 18.289 10.73 15.175 9.325-3.586-1.61-5.793-7.286-6.843-17.829-.895-8.738 1.445-17.445 2.144-17.664 7.348-2.234 14.828-2.441 19.356 6.61 1.14 2.273 2.152 6.242 3.586 7.445 2.996 2.488 9.105-.082 10.511-4.078-6.644-2.496-6.933-12.106-3.8-18.5a47.853 47.853 0 0 0 3.542-11.395c1.047 1.16 7.31 5.875 10.458 4.832 2.347-.773 4.808-10.828 2.347-9.445-5.273 2.953-11.656-3.71-13.988-6.836a20.272 20.272 0 0 1-4.344-11.941c-.258-4.653-.68-10.453-5.773-14.586Zm31.73 6.96c1.75-12.304 6.028-24.452 17.84-34.726l3.805-3.312 4.484 2.289c2.43 1.238 3.703 1.078 5.89 0a44.088 44.088 0 0 0 5.31-3.47c2.316-1.687 4.933-3.589 7.84-5.593 5.66-3.808 3.382-6.687-2.747-8.781l-5.379-2.02v-4.34c0-6.769 3.11-9.671 5.828-12.085.504-.45 5.715-4.668 4.953-7.508-.898-3.473-8.074-2.317-8.074-2.317-3.219.899-5.773 5.696-6.754 8.082-2 4.84-9.254 1.797-7.254-3.007a31.417 31.417 0 0 1 4.797-7.688c-.16-1.652-6.629-1.121-8.629.36a21.289 21.289 0 0 0-3.586 7.707c-.941 5.16-8.664 3.75-7.722-1.403.36-1.629.886-3.219 1.57-4.742-3.586-.207-8.07 4.363-11.66 12.727 2.746.949 5.445 1.972 8 2.988 1.293 6.808 0 13.805-3.875 18.758 0 7.187.45 17.52-7.57 16.3a31.044 31.044 0 0 0-6.563-.476c-6.047.726-14.918.586-19.16.61v5.585h24.684c2.69 2.64-1.598 16.164-8.52 17.367-1.867.332-5.625.746-10.254 1.121 3.41 5.536 3.742 12.403 4.145 16.344a161.863 161.863 0 0 0 18.601-8.773Zm309.547 0a162.475 162.475 0 0 0 18.645 8.774c.406-3.945.738-10.777 4.144-16.344-4.629-.379-8.387-.793-10.25-1.125-6.926-1.218-11.195-14.726-8.52-17.363h24.602v-5.586c-4.242 0-13.113.117-19.16-.613-2.2-.074-4.398.086-6.563.476-8.019 1.223-7.57-9.07-7.57-16.296-3.91-4.97-5.16-11.954-3.91-18.758a193.612 193.612 0 0 1 8-2.992c-3.59-8.36-8.074-12.93-11.66-12.727a24.59 24.59 0 0 1 1.578 4.734c.898 5.153-6.781 6.563-7.723 1.403a21.289 21.289 0 0 0-3.586-7.707c-1.992-1.48-8.468-2.012-8.629-.36a31.43 31.43 0 0 1 4.825 7.653c2 4.84-5.254 7.847-7.254 3.007-.98-2.343-3.528-7.183-6.754-8.082 0 0-7.176-1.16-8.074 2.317-.762 2.836 4.484 7.058 4.953 7.508 2.691 2.414 5.828 5.316 5.828 12.086v4.347l-5.379 2.02c-6.129 2.094-8.406 4.976-2.746 8.781 2.906 1.957 5.523 3.906 7.84 5.598a44.058 44.058 0 0 0 5.308 3.465c2.188 1.113 3.461 1.273 5.891 0l4.484-2.29 3.805 3.313c11.848 10.309 16.125 22.457 17.875 34.762Zm31.777-6.96c-5.093 4.129-5.515 9.933-5.785 14.582a20.315 20.315 0 0 1-4.34 11.945c-2.37 3.125-8.718 9.79-13.992 6.832-2.457-1.383 0 8.676 2.348 9.45 3.148 1.038 9.41-3.676 10.46-4.833.7 3.93 1.891 7.758 3.544 11.395 3.129 6.394 2.84 16.004-3.805 18.5 1.406 3.996 7.516 6.562 10.512 4.078 1.445-1.203 2.457-5.176 3.586-7.445 4.531-9.051 12.011-8.848 19.355-6.61.7.215 3.024 8.926 2.145 17.664-1.051 10.543-3.274 16.22-6.844 17.825-3.148 1.41 15.105 5.109 15.105-9.32 0-1.66-.539-10.22-.558-12.274-.05-4.832 1.562-13.274 12.117-13.274 2.02 0 5.113 1.032 7.309 4.786 1.43 2.425 2.918 8.69 3.3 10.472 1.668 7.711 1.957 15.012-.105 17.223-1.438 1.527 12.008 1.078 9.46-11.172-.241-1.14-2.206-8.207-2.628-10.129a17.37 17.37 0 0 1-.203-7.84 9.43 9.43 0 0 1 9.469-7.183c3.168 0 6.953 1.66 9.168 7.183.761 1.895 3.468 15.762 7.109 17.899 4.484 2.648 13.687-1.512 10.2-2.41-1.884-.473-3.919-2.637-5.005-4.586a29.44 29.44 0 0 1-3.093-10.282c-.829-5.55-.415-10.984.382-13.472 1.563-4.938 3.868-6.286 7.66-6.286 2.387 0 4.864 2.247 6.672 2.973 5.196 2.059 8.407-9.16 5.938-8.082-3.586 1.555-13.676-1.148-12.356-11.547.555-4.43 2.582-5.386 4.036-14.601.242-1.563 5.683 3.797 11.53 3.215 3.134-.305 4.7-11.676 3.016-10.778-6.636 3.512-16.332-.539-15.703-9.508.453-5.379.512-10.78.168-16.164-.09-1.078 3.133.078 8.828.25 3.766.11 5.094-1.16 6-3.476.903-2.317-.046-10.309-1.097-9.239-3.864 3.844-9.946 2.81-12.61 1.149-3.703-2.309-5.273-4.121-5.273-8.98 0-5.063-.492-7.919-3.543-13.946 7.582-.492 9.238-.262 10.766-2.558 2.968-4.375-2.012-13.094-2.477-10.778-.762 3.89-7.918 5.946-10.602 5.848-9.12-.36-6.476-7.875-17.039-14.063 6.09-3.968 8.547-6.96 8.715-8.675.227-2.207-7.176-7.489-6.968-5.567.394 3.16-2.692 7.508-8.18 8.082-4.617.504-8.563-1.195-15.094-1.543-4.023-.086-8.05.035-12.062.367 0 0 5.382-8.082 4.378-10.039-.613-1.168-6.953-3.316-6.156-1.214.703 1.886-1.379 5.64-5.004 7.742-4.168 2.425-7.578 3.386-13.593 4.625-2.809.574-2.809 1.066-2.27 2.875.277.894.617 2.136.895 3.14 12.863-.96 30.152-.539 31.84 6.285 6.117 0 12.554 1.043 14.636 2.813 4.809 4.148 5.23 11.187-4.324 18.562 2.613 13.47 7.176 15.461 2.746 25.645-3.688 8.531-12.34 11.676-20.098 13.21-3.34.645-7.175 6.59-13.91 10.247-3.258 1.824-16.71 1.688-28.676 1.016Zm-20.8-12.364c.574 1.356 1.66 3.715 2.746 3.958 3.433.773 13.703 1.546 23.703 1.94 4.996.196 17.937.313 19.992-.51 3.328-1.391 10.234-9.977 15.613-10.84 7.438-1.169 12.934-4.032 15.25-9.278 1.63-3.77 1.606-5.332.895-7.184a132.28 132.28 0 0 1-4.895-18.558s8.422-5.328 8.293-8.703c-.07-1.95-1.129-2.13-3.96-2.696-2.442-.511-8.235-.464-10.872-.464a8.414 8.414 0 0 0-6.035-5.633c-3.672-.825-19.492-2.29-33.465.8-1.836.403-5.379 5.11-6.472 5.954a12.515 12.515 0 0 1-5.762 2.398c-1.55.242-7.961.727-9.863.941-5.239.614-11.957 2.696-18.496 5.149a17.09 17.09 0 0 0 4.359 11.672s-.223 7.597.332 10.957c0 .601.988.781 1.363.719a23.472 23.472 0 0 1 6.512-.22c5.812.704 25.113.614 25.113.614v19l-24.351-.02ZM695.59 474.484c-7.488 7.364-13.074 15.957-4.88 24.848 10.54 11.422 17.938 18.375 2.802 28.996-27.492 19.344-35.301 34.313-40.844 46.012a26.923 26.923 0 0 0 4.41 1.402 59.493 59.493 0 0 0 9.203 1.356c1.473.125 2.38-3.934 5.918-11.035 5.383-10.715 15.25-25.215 38.801-42.36 8.727-6.348 8.395-7.433 3.918-13.066-2.438-3.059-5.703-6.535-9.426-10.836-7.433-8.578-10.097-17.27-9.902-25.317Zm-93.973-106.976a39.584 39.584 0 0 0 9.328 10.433c10.36 7.895 32.852 29.797 32.989 52.813 12.23 1.183 17.101 4.742 17.101 4.742 4.27 3.024.125 8.8-4.539 6.418-8.734-4.488-22.422-3.125-26.484-2.754-18.832 1.703-21.578 14.367-21.578 23.606 0 10.59 7.507 18.285 17.937 25.054 5.293 3.442 10.574 6.2 14.54 8.578a40.69 40.69 0 0 1 6.07 4.266c1.453 1.3 4.484 4.316 4.484 8.871 0 15.121-38.442 37.965-46.836 37.965-9.02 0-13.219 5.176-14.625 6.98-2.262 2.899-4.152 9.122-3.363 14.293.5 3.27 2.054 6.082 6.332 6.532a30.011 30.011 0 0 1 5.578-17.727c3.164-4.168 9.418.59 6.277 4.758-2.465 3.25-4.484 8.566-3.738 15.93 4.95 2.89 10.762 3.144 17.937.636-.808-6.132 1.973-13.918 5.336-18.785 2.977-4.308 9.434.164 6.457 4.492-2.468 3.59-4.18 8.332-4.027 12.508 6.36 5.235 15.344 2.031 16.387 0 1.578-3.117 3.066-6.5 4.914-10.191a99.58 99.58 0 0 1 7.715-13.012c6.699-9.508 16.742-20.14 33.765-32.05 4.07-2.856 7.246-4.696 2.582-9.805-1.98-2.164-4.144-4.723-6.636-7.434-10.368-11.242-5.786-22.809.27-30.434a79.094 79.094 0 0 1 9.702-9.808c2.961-2.613 5.867-5 7.992-7.13 14.403-14.413 11.993-35.917-5.98-56.636-10.54-12.168-24.047-39.96-24.559-61.062-7.648-6.672-7.101-22.864-11.433-22.864-6.09 0-.25 11.309.41 17.262 2.344 20.848-18.832 22.402-25.012 15.211-3.59-4.23 5.98.961 1.668-18.976-.683-3.176-2.277-9.653-3.668-9.653-8.504 0-3.68 10.777-4.484 19.145-.899 8.902-5.309 13.668-10.602 15.652-2.816 6.574-8.25 11.656-18.207 12.18Zm7.98-11.422c-6.574-1.149-11.937-5.262-11.038-9.816.414-2.075 7.804 2.164 9.3-16.442.504-6.215-.547-11.144-.836-11.2-10.09-1.64-6.382 12.028-15.378 15.321-12.754 4.68-20.63-7.668-20.532-16.496 7.32.406 8.29-5.027 5.95-9.555a22.052 22.052 0 0 1-1.5-5.457 9.91 9.91 0 0 1-6.97 1.793c-10.484-1.523-11.847-30.144-5.085-24.558 4.152 3.43 8.547 1.527 11.328-1.797-12.61-4.84-25.82-12.848-32.082-15.613-27.8-12.278-39.55-12.207-43.856-10.536-1.46.567-2.789 2.235-2.18 5.786 3.427-1.54 8.673-1.243 8.673-1.243 4.968.36 4.43 7.825-.536 7.465-11.957.078-14.648 7.992-14.19 12.473.233 2.324.585 4.336 4.315 3.976 3.434-6.933 8.625-9.05 8.625-9.05 4.489-2.157 7.723 4.597 3.23 6.754-2.144 1.129-5.647 4.109-5.12 8.082a3.893 3.893 0 0 0 3.668 3.652c3.504.52 7.078-.254 10.055-2.18l3.433-2.37s13.098 5.98 21.527 4.937l2.356 2.46c4.621 4.821 9.14 11.981 13.453 19.165 4.316 7.183 8.969 15.265 13.957 22.879 10.477 15.832 20.117 25.144 29.703 25.144 4.406.035 7.535-1.336 9.735-3.574Zm152.583-71.113c1.347-3.528 2.351-7.254 3.797-10.532a22.794 22.794 0 0 1 7.171-9.527c-6.492-4.914-25.03-11.945-36.77-.898-5.202 4.91-6.421 10.586-6.421 16.261 0 8 4.484 9.797 8.879 12.121-4.54 19.864-6.188 43.106 6.976 63.032 5.383 8.18 12.047 18.347 16.325 29.101 4.277 10.758 6.593 23.125 2.152 35.293-5.98 16.352-22.566 26.848-45.203 24.461a36.434 36.434 0 0 1-3.48 9.14c10.906 1.387 20.925-.062 25.464-1.495 30.672-9.746 39.711-43.34 26.692-71.473a149.19 149.19 0 0 0-8.657-15.55c-3.19-5.157-6.277-9.735-8.207-12.97-6.02-9.933-10.117-21.167-9.507-37.519a84.11 84.11 0 0 1 3.812-20.941c12.602.492 14.352-1.645 16.98-8.504ZM404.395 723.02a396.124 396.124 0 0 0 85.203-8.856c24.16-5.234 44.492-12.004 63.191-18.066 36.774-11.938 69.957-22.246 113.367-11.98 7.758 1.921 7.785 1.894 9.047-3.852l17.543-79.078c1.024-4.688 1.024-4.723-4.797-6.036-51.445-11.054-93.867-3.484-137.054 7.543-22.774 5.813-45.368 12.457-69.063 17.657-24.305 5.332-49.703 9.16-77.473 9.16-27.765 0-53.164-3.828-77.468-9.16-23.672-5.2-46.262-11.848-69.063-17.657-43.191-11.027-85.613-18.597-137.055-7.543-5.82 1.313-5.82 1.348-4.8 6.035l17.554 79.114c1.262 5.746 1.29 5.773 9.047 3.851 43.446-10.265 76.559 0 113.367 11.98 18.762 6.024 39.094 12.813 63.246 18.032a395.848 395.848 0 0 0 85.204 8.852Zm-89.922-117.133c-54.422-30.727-89.45-87.106-92.914-149.57-3.47-62.462 25.105-122.38 75.793-158.95a21.718 21.718 0 0 1-8.457-3.422c-5.157 2.02-11.73 4.067-17.22 3.996-14.046 14.657-30.359 58.989-54.218 67.97a49.138 49.138 0 0 1-14.348 18.327c-10.394 7.922-29.902 27.836-29.902 46.778 31.867 0 35.508 20.48 35.508 31.796 0 29.813-42.98 38.981-42.98 46.778 0 8.601 32.378 30.098 38.98 30.098 12.672 0 18.894 7.535 20.816 9.996 6.59 8.441 9.149 29.246-5.965 33.062 32.27 5.531 62.852 15.258 94.907 23.133Zm273.035-159.758c.031 66.195-35.598 127.262-93.203 159.758 32.101-7.88 62.648-17.602 94.925-23.098-15.109-3.816-12.554-24.625-5.964-33.066 1.922-2.457 8.144-9.993 20.82-9.993 6.598 0 38.976-21.5 38.976-30.101 0-7.793-42.976-16.961-42.976-46.774 0-11.316 3.64-31.8 35.504-31.8 0-18.946-19.504-38.856-29.903-46.774a49.138 49.138 0 0 1-14.347-18.328c-23.856-8.98-40.172-53.351-54.215-68.004-5.492.07-12.066-1.976-17.223-3.996a21.663 21.663 0 0 1-8.457 3.418c47.797 34.438 76.11 89.805 76.067 148.762Zm-349.266 0c0 59.433 31.668 114.348 83.074 144.058 51.407 29.715 114.743 29.715 166.149 0 51.406-29.714 83.074-84.632 83.074-144.058 0-91.89-74.387-166.356-166.148-166.356-91.762 0-166.149 74.461-166.149 166.356Zm280.801-216.371-4.637 14.554c7.973 1.618 18.27 4.985 31.496 10.778 1.598.7 3.223 1.48 4.891 2.316-2.02-9.05-6-17.394-14.352-24.676-6.707 3.403-11.418 1.23-17.398-2.972Zm-224.66 14.554-4.637-14.554c-5.984 4.203-10.691 6.375-17.383 2.972-8.367 7.282-12.351 15.625-14.347 24.676 1.668-.836 3.289-1.617 4.886-2.316 13.239-5.793 23.508-9.16 31.48-10.778Zm211.094-55.988a277.38 277.38 0 0 0-202.157 0c-3.86 7.238-9.183 7.778-9.183 12.672 10.582 3.816 16.672 13.73 5.191 21.883l6.457 20.285c14.242.469 15.328 10.195 13.606 18.004 5.015 3.035 8.074 12.754 5.757 19.633a183.37 183.37 0 0 1 158.497 0c-2.278-6.887.746-16.606 5.757-19.64-1.722-7.813-.636-17.536 13.606-18.005l6.457-20.285c-11.48-8.152-5.383-18.066 5.191-21.883 0-4.886-5.324-5.425-9.183-12.664ZM302.78 176.496a288.639 288.639 0 0 1 203.196 0c3.644-3.887 10.808-5.027 15.617-2.855.754-6.364 18.258-5.27 21.676-.168 1.613-2.641 14.062-3.961 22.421 16.28a61.771 61.771 0 0 1 8.825-1.796c1.797-.207 8.074-.676 9.562-.898 4.195-.657 5.883-6.036 10.824-7.973a39.674 39.674 0 0 1 6.512-1.215c-.672-2.46-1.648-6.644-1.148-8.379 1.507-5.152 10.09-5.387 14.027-6.777 4.61-1.547 10.02-3.164 7.148-7.832-5.336-8.703 18.594-2.387 20.942 1.508 1.336 2.21-1.067 6.547-1.067 6.547a26.584 26.584 0 0 1 6.278.226c7.847 1.281 13.957 3.797 10.765-6.289-2.066-6.582 25.11 2.309 20.852 14.11-1.223 3.359-5.133 5.972-5.133 5.972a16.497 16.497 0 0 1 4.8 5.746c1.911 3.59 9.352-.574 9.352-5.488 0-10.04 12.477 3.738 13.375 13.398.325 3.38-.277 8.98-3.472 11.461-1.551 1.192-5.738 1.66-5.738 1.66s1.847 3.18 1.62 8.98c-.187 5.063 8.727 3.638 11.313-1.886 2.14-4.578 9.938 10.777 7.004 20.871-.898 3.23-5.031 7.606-7.75 8.207-2.914.656-6.95-.898-6.816.242.265 2.168.265 4.36 0 6.528-.528 7.183 6.62 8.18 12.09 2.918 4.171-4.004 6.816 24.55-4.626 26.484-6.773 1.14-7.707-2.336-7.976-1.035a17.04 17.04 0 0 1-1.633 4.875c-3.586 7.644 6.012 7.187 10.89 4.492 4.376-2.379 2.618 24.434-11.792 23.195-2.746-.234-4.703-3.207-7.008-3.207-2.305 0-2.457 23.797 6.738 23.797 13.453 0-1.375 15.106-14.039 14.313 1.563 17.367 12.028 40.996 22.422 52.984 11.453 13.219 17.938 27.996 17.238 41.746 19.832 2.04 32.926-7.183 37.543-19.863 7.176-19.691-6.816-41.531-17.722-58.027-14.778-22.344-12.196-47.512-8.97-62.86-5.378-3.644-8.07-9.699-8.07-16.164 0-6.797 1.497-14.726 8.665-21.445 17.937-16.809 45.203-2.461 49.562 4.086 1.434 2.148.805 5.183-2.332 6.851-12.242 6.54-4.906 30.532-28.137 30.532a62.087 62.087 0 0 0-2.172 14.37c-.554 14.782 3.086 24.657 8.485 33.555 3.894 6.43 12.137 18.23 17.23 29.223 14.262 30.793 4.961 69.82-30.988 81.234-5.945 1.883-18.691 3.59-32.062 1.239a40.312 40.312 0 0 1-2.692 2.91c-1.137 1.14-2.492 2.36-3.965 3.644-2.687 8.352-2.195 18.204 6.61 28.403 15.113 17.484 22.207 21.945 4.218 34.887-34.746 24.984-37.32 43.824-42.066 51.285 7.352 1.066 14.871 2.504 22.566 4.32 3.704.898 11.266 2.945 8.782 14.105l-19.543 88.004c-2.914 13.012-12.559 9.88-17.23 8.602-84.45-22.422-125.216 38.113-263.387 38.113-138.172 0-178.93-60.535-263.438-38.14-4.637 1.23-14.348 4.41-17.23-8.602l-19.543-88.004c-2.485-11.16 5.078-13.226 8.78-14.105 7.716-1.797 15.235-3.239 22.567-4.32-4.746-7.462-7.32-26.301-42.066-51.286-17.988-12.937-10.895-17.402 4.219-34.887 8.804-10.199 9.316-20.05 6.609-28.402-1.473-1.285-2.824-2.504-3.965-3.644a51.717 51.717 0 0 1-2.691-2.91c-13.371 2.378-26.117.644-32.063-1.239-35.922-11.414-45.222-50.441-30.96-81.234 5.093-10.992 13.335-22.79 17.23-29.219 5.379-8.902 9.039-18.777 8.484-33.559A61.945 61.945 0 0 0 58.2 300.36c-23.226 0-15.89-24.03-28.133-30.535-3.14-1.668-3.765-4.703-2.332-6.851 4.313-6.618 31.625-20.985 49.516-4.137 7.176 6.715 8.664 14.644 8.664 21.441 0 6.504-2.691 12.575-8.07 16.164 3.234 15.368 5.82 40.536-8.969 62.86-10.906 16.496-24.918 38.336-17.727 58.027 4.622 12.7 17.715 21.957 37.543 19.918-.652-13.746 5.786-28.527 17.239-41.746 10.422-12.035 20.89-35.66 22.422-52.98-12.66.789-27.454-14.317-14.036-14.317 9.196 0 8.97-23.644 6.672-23.644-2.293 0-4.258 2.972-7.004 3.207-14.414 1.238-16.144-25.575-11.793-23.196 4.88 2.649 14.493 3.118 10.887-4.488a17.242 17.242 0 0 1-1.633-4.875c-.265-1.305-1.199 2.172-7.972 1.031-11.442-1.93-8.797-30.531-4.625-26.48 5.468 5.262 12.617 4.262 12.09-2.922a26.833 26.833 0 0 1 0-6.527c.132-1.133-3.903.414-6.817-.243-2.691-.601-6.808-4.976-7.75-8.207-2.933-10.12 4.86-25.449 7.004-20.87 2.582 5.523 11.508 6.952 11.309 1.886-.223-5.844 1.632-8.98 1.632-8.98s-4.195-.465-5.75-1.66c-3.191-2.462-3.78-8.083-3.468-11.458.898-9.664 13.37-23.437 13.37-13.398 0 4.91 7.454 9.078 9.356 5.484a16.563 16.563 0 0 1 4.797-5.746s-3.91-2.613-5.129-5.972c-4.277-11.797 22.914-20.653 20.852-14.106-3.172 10.082 2.933 7.57 10.761 6.285a26.833 26.833 0 0 1 6.282-.222s-2.407-4.34-1.07-6.547c2.351-3.899 26.28-10.211 20.945-1.512-2.836 4.637 2.57 6.207 7.12 7.77 3.938 1.355 12.555 1.625 14.028 6.78.5 1.731-.476 5.919-1.148 8.376 2.199.222 4.379.629 6.511 1.215 4.942 1.937 6.625 7.316 10.825 7.972 1.507.235 7.75.7 9.562.899 2.98.382 5.93.984 8.824 1.797 8.403-20.243 20.852-18.922 22.465-16.282 3.418-5.101 20.926-6.195 21.68.172 4.86-2.273 12.027-1.133 15.668 2.754h-.02Zm150.438 49.668 12.87 3.45 3.31-12.356c.78-2.926 1.706-5.89 2.69-8.98l-.276-.098c-2.512 2.78-4.637 5.234-7.102 7.765l-11.418 10.086Zm17.855 26.602-10.41-2.793 3.266-12.215-23.32-6.285 1.882-7.04 28.278-25.062 13.625 3.652-7.868 29.383 6.36 1.707-2.172 8.082-6.356-1.707Zm-56.035-17.637c5.57.293 8.914-5.918 9.543-17.899.61-11.738-1.965-18.23-7.562-18.527-5.13-.27-8.887 5.774-9.497 17.629-.734 12.113 2.348 18.473 7.516 18.777Zm-.465 8.375c-13.125-.68-19.008-12.281-18.297-27.54.805-15.417 8.235-26.362 21.453-25.675 13.536.711 19.024 12.512 18.25 27.363-.824 15.668-7.828 26.555-21.406 25.836v.02Zm-47.535-42.277c-4.754.664-7.57 5.171-6.793 10.632.656 4.653 4.074 8.153 9.445 7.399 3.856-.547 6.278-2.64 7.364-4.992.308-.817.39-1.7.234-2.559-.781-5.828-3.93-11.387-10.27-10.496Zm-8.289 46.375-1.219-8.696a28.422 28.422 0 0 0 5.38-.761 21.177 21.177 0 0 0 10.46-5.067 16.412 16.412 0 0 0 5.317-11.055h-.196c-2.156 3.055-5.633 5.047-10.64 5.758-9.145 1.285-17.317-3.914-18.68-13.648-1.418-10.086 5.703-19.578 17.039-21.176 13.187-1.86 21.098 7.184 22.8 19.281 1.489 10.64-.898 18.856-5.777 24.684-4.347 5.121-10.851 8.488-18.77 9.879-1.886.41-3.804.672-5.73.781Zm-18.332 5-12.117-39.649h-.153l-7.992 7.375-4.285-7.527 11.031-9.957 8.887-2.696 15.031 49.227Zm-138.195-57.766c-.387 0-2.692 1.992-3.653 4.406 1.438-.332 4.946-1.418 8.075-2.46a7.41 7.41 0 0 0-4.422-1.946Zm11.597 3.789s-15.902 6.285-18.726 3.68c-3.39-3.098 3.746-11.504 6.68-11.504 7.203 0 12.046 7.824 12.046 7.824Zm381.172 0s4.844-7.824 12.043-7.824c2.934 0 10.074 8.441 6.684 11.539-2.824 2.543-18.727-3.715-18.727-3.715Zm11.598-3.79a7.4 7.4 0 0 0-4.485 1.946c3.157 1.043 6.66 2.13 8.07 2.461-.913-2.414-3.202-4.406-3.585-4.406Zm-4.074 471.114v-30.101c0-5.387-.153-9.875-.36-13.73h11.168l.602 6.538h.293a16.61 16.61 0 0 1 14.351-7.578c8.457 0 16.457 5.387 16.457 19.367v25.504h-12.816v-23.86c0-6.284-2.395-10.675-8.133-10.675a8.798 8.798 0 0 0-8.226 5.98 9.71 9.71 0 0 0-.473 3.313v25.242Zm-438.313.664-2.11-60.46 12.837-.45 1.73 49.711 26.117-.894.368 10.773Zm87.328-9.238-29.453-6.898c-1.043 6.285 4.25 10.777 11.059 12.304a37.267 37.267 0 0 0 12.968.895l-.187 8.855a42.963 42.963 0 0 1-16.656-.843c-14.754-3.415-21.39-14.028-18.344-27.22 2.46-10.667 12.164-21.308 27.43-17.78 14.797 3.421 16.976 16.28 14.77 25.863a25.006 25.006 0 0 1-1.587 4.824Zm-27.55-15.52 18.304 4.23c.727-3.019.653-9.608-6.547-11.269-6.504-1.492-10.422 3.395-11.758 7.04Zm41.19-6.851 13.106 4.797-.754 22.449c-.125 3.988-.457 7.48-.898 10.91l.27.11c1.93-3.012 3.894-5.793 6.277-8.98l13.605-17.774 12.809 4.668-31.39 35.21-12.118-4.39Zm84.2 50.656-29.668-5.863c-.824 6.328 4.617 10.578 11.469 11.906a37.65 37.65 0 0 0 12.996.477l.125 8.855c-5.523 1-11.191.906-16.68-.27-14.863-2.894-21.855-13.265-19.281-26.562 2.086-10.777 11.414-21.715 26.797-18.726 14.906 2.902 17.535 15.68 15.66 25.332a25.296 25.296 0 0 1-1.418 4.851Zm-28.082-14.539 18.441 3.594c.63-3.035.332-9.617-6.921-11.028-6.559-1.285-10.305 3.735-11.516 7.434Zm40.649 35.024 2.628-29.122c.575-6.558.844-10.777.895-14.566l10.996.961-.305 8.559h.325c2.859-6.422 8.644-8.875 13.3-8.461.961.05 1.914.222 2.832.511l-1.039 11.918a18.107 18.107 0 0 0-3.757-.726c-5.563-.485-9.372 2.316-10.672 6.812-.246.957-.41 1.93-.485 2.91l-1.949 22.297Zm53.363-62.942 1.355 38.91h.18c1.023-1.707 2.207-3.593 3.316-5.199l9.868-13.973 15.632-.546-16.324 18.3 20.422 25.403-15.98.566-13.032-18.191-3.715 4.632.493 14.125-12.825.45-2.234-64.02Zm80.324 9.45 5.742 29.523a248.155 248.155 0 0 0 2.969 13.469l-10.961 2.128-1.855-6.492-.29.055c-1.164 3.16-4.484 8.789-12.824 10.418-8.34 1.625-16.754-1.887-19.48-15.914l-4.86-25.063 12.555-2.453 4.484 22.883c1.329 6.832 4.485 10.55 9.98 9.48a8.8 8.8 0 0 0 6.927-7.093 7.787 7.787 0 0 0-.055-3.051l-4.934-25.477Zm19.895 35.64-.2-9.52c4.168.961 8.5.934 12.657-.082 4.484-1.293 5.918-3.464 5.246-5.828-.72-2.496-2.618-3.222-8.313-3.332-9.668-.105-14.656-3.777-16.082-8.976-2.215-7.742 2.742-15.575 13.328-18.617a28.876 28.876 0 0 1 12.922-.899l.172 9.125c-3.434-.7-6.98-.613-10.375.25-3.59 1.016-5.188 3.07-4.484 5.461.699 2.387 3.004 2.945 8.968 3.105 8.97.207 13.684 3.145 15.578 9.54 2.18 7.613-2.18 15.265-14.476 18.793a32.417 32.417 0 0 1-14.941.98Zm76.78-38.273-29.706 5.69c1.605 6.18 8.242 8.083 15.097 6.74a37.548 37.548 0 0 0 12.223-4.438l3.426 8.164a43.296 43.296 0 0 1-15.559 6.015c-14.863 2.891-25.238-4.105-27.804-17.402-2.09-10.777 2.449-24.418 17.84-27.406 14.894-2.903 22.117 7.953 23.992 17.61.336 1.655.5 3.343.492 5.034Zm-31.472-2.954 18.442-3.593c-.567-3.055-3.301-9.043-10.56-7.633-6.546 1.265-8.14 7.355-7.882 11.234Zm-167.457-329.64h21.293a4.262 4.262 0 0 0 4.258-4.266 4.262 4.262 0 0 0-4.258-4.265h-21.293Zm0 20.719h21.918a4.874 4.874 0 0 0 4.871-4.88 4.873 4.873 0 0 0-4.87-4.874H393.37Zm34.234-15.7a15.555 15.555 0 0 1 3.567 16.957 15.52 15.52 0 0 1-14.328 9.715H381.19v-51.183h35.024a14.899 14.899 0 0 1 13.492 8.628 14.946 14.946 0 0 1-2.102 15.895Zm8.188 87.645h-13.066l-4.11-8.531h-28.566l-4.117 8.53h-13.11l25.559-51.183h11.847Zm-31.48-38.082-8.97 18.597h17.938Zm17.363 49.055h14.648l-25.922 33.324v17.863h-12.18v-17.863l-25.917-33.325h14.644l17.363 23.348 17.368-23.348Zm68.164 0v10.972h-34.082v8.531h32.863v10.965h-32.879v9.754h34.078v10.965h-46.25v-51.188Zm38.332 31.69h-9.14v19.497h-12.169v-51.184h31.094c7.863.028 14.516 5.825 15.625 13.622 1.11 7.792-3.66 15.222-11.203 17.445l14.996 20.117h-14.602Zm8.547-20.714h-17.684v9.75h17.676a4.873 4.873 0 0 0 4.871-4.875 4.873 4.873 0 0 0-4.871-4.875Zm-158.75 40.211h-13.035l-4.118-8.54h-28.609l-4.117 8.54h-13.082l25.558-51.184h11.813Zm-31.473-38.086-8.969 18.59h17.938Zm-77.195 6.441h21.293a4.276 4.276 0 0 0 4.074-4.27 4.271 4.271 0 0 0-4.074-4.269H269.3Zm0 20.715h21.922a4.872 4.872 0 0 0 4.867-4.875 4.87 4.87 0 0 0-4.867-4.875H269.3Zm34.234-15.707a15.563 15.563 0 0 1 3.555 16.977 15.522 15.522 0 0 1-14.363 9.703H257.12v-51.184h34.977a14.901 14.901 0 0 1 13.492 8.63 14.937 14.937 0 0 1-2.102 15.894Zm123.906 37.602v10.973H393.36v8.53h32.864v10.966h-32.864v9.761h34.082v10.961h-46.25v-51.183Zm-8.546 79.226a4.872 4.872 0 0 0-4.825-4.882h-20.71v9.742h20.71a4.865 4.865 0 0 0 4.825-4.86Zm-37.668 35.329v-51.184h34.144c7.531.078 13.965 5.457 15.39 12.86 1.426 7.406-2.546 14.792-9.507 17.671l15.355 20.653h-14.648l-14.61-19.493H393.36v19.493Zm0 0"/></svg>