<svg xmlns="http://www.w3.org/2000/svg" xmlns:xlink="http://www.w3.org/1999/xlink" width="1080" zoomAndPan="magnify" viewBox="0 0 810 809.999993" height="1080" preserveAspectRatio="xMidYMid meet" version="1.0"><path fill="#ffffff" d="M 232.078125 159.261719 C 236.355469 154.773438 245.878906 145.503906 263.46875 146.097656 C 274.472656 141.015625 287.054688 143.019531 291.738281 145.765625 C 291.738281 145.765625 299.65625 145.578125 304.769531 148.039062 C 369.460938 126.425781 439.414062 126.425781 504.097656 148.039062 C 509.199219 145.578125 517.121094 145.765625 517.121094 145.765625 C 521.800781 143.019531 534.386719 141.015625 545.390625 146.097656 C 562.949219 145.503906 572.476562 154.808594 576.78125 159.261719 C 579.203125 152.457031 583.433594 146.691406 593.371094 143.339844 C 596.960938 124.914062 620.871094 116.589844 654.628906 133.597656 C 669.695312 119.929688 691.796875 134.496094 699.035156 154.25 C 710.15625 151.441406 727.789062 161.804688 726.605469 195.011719 C 737.871094 195.605469 742.246094 207.476562 739.054688 226.710938 C 745.753906 225.28125 778.660156 219.15625 802.238281 249.160156 C 813.484375 263.472656 806.957031 281.757812 794.992188 290.683594 C 794.191406 292.910156 789.1875 312.890625 774.085938 321.035156 C 773.1875 331.164062 790.714844 352.816406 797.304688 367.058594 C 815.835938 407.117188 806.625 475.15625 737.941406 486.796875 C 740.980469 489.652344 747.960938 499.234375 750.246094 507.1875 C 753.195312 517.480469 750.972656 527.421875 745.761719 535.925781 C 740.09375 545.265625 718.855469 558.527344 713.625 565.191406 C 723.492188 571.019531 734.613281 582.925781 729.617188 605.394531 L 710.101562 693.28125 C 706.898438 707.59375 697.367188 719.707031 681.8125 722.851562 C 673.929688 724.441406 665.671875 722.769531 660.726562 721.460938 C 626.59375 712.40625 601.894531 719.429688 564.054688 731.707031 C 544.324219 738.097656 522.851562 745.175781 497.363281 750.714844 C 436.070312 763.625 372.769531 763.625 311.476562 750.714844 C 286.015625 745.21875 264.488281 738.125 244.757812 731.730469 C 206.917969 719.457031 182.21875 712.433594 148.085938 721.488281 C 143.117188 722.796875 134.882812 724.46875 127 722.878906 C 111.445312 719.734375 101.886719 707.613281 98.710938 693.308594 L 79.203125 605.421875 C 74.207031 582.96875 85.375 571.042969 95.195312 565.214844 C 89.929688 558.554688 68.726562 545.289062 63.058594 535.953125 C 57.886719 527.429688 55.660156 517.488281 58.574219 507.214844 C 60.863281 499.257812 67.839844 489.675781 70.878906 486.824219 C 2.234375 475.167969 -6.976562 407.125 11.570312 367.066406 C 18.160156 352.824219 35.6875 331.148438 34.789062 321.042969 C 19.640625 312.925781 14.664062 292.917969 13.867188 290.691406 C 1.902344 281.765625 -4.628906 263.484375 6.617188 249.167969 C 30.199219 219.167969 63.121094 225.292969 69.804688 226.71875 C 66.609375 207.484375 70.988281 195.613281 82.25 195.019531 C 81.066406 161.792969 98.699219 151.449219 109.824219 154.261719 C 117.058594 134.503906 139.160156 119.929688 154.226562 133.605469 C 187.984375 116.589844 211.941406 124.914062 215.484375 143.339844 C 225.421875 146.734375 229.65625 152.453125 232.074219 159.261719 Z M 232.078125 159.261719 " fill-opacity="1" fill-rule="nonzero"/><path fill="#ffff00" d="M 318.421875 717.816406 C 294.125 712.554688 273.664062 705.746094 254.867188 699.648438 C 218.097656 687.714844 185.808594 677.757812 143.511719 687.75 C 134.863281 689.898438 131.851562 689.84375 129.949219 681.0625 L 112.398438 601.957031 C 110.792969 594.59375 112.953125 593.058594 120.046875 591.457031 C 172.335938 580.226562 215.449219 587.957031 258.820312 599.027344 C 281.546875 604.828125 304.101562 611.464844 327.734375 616.65625 C 351.78125 621.9375 376.917969 625.726562 404.402344 625.726562 C 431.882812 625.726562 457.019531 621.9375 481.066406 616.65625 C 504.699219 611.464844 527.257812 604.828125 549.984375 599.027344 C 593.355469 587.957031 636.46875 580.226562 688.753906 591.457031 C 695.847656 593.058594 698.007812 594.59375 696.402344 601.957031 L 678.84375 681.105469 C 676.914062 689.894531 673.917969 689.941406 665.246094 687.785156 C 622.929688 677.808594 590.714844 687.785156 553.925781 699.691406 C 535.089844 705.789062 514.667969 712.597656 490.375 717.859375 C 433.667969 729.773438 375.109375 729.773438 318.410156 717.859375 L 318.417969 717.8125 Z M 317.460938 264.332031 L 315.171875 262.949219 L 315.746094 260.324219 C 317.273438 253.394531 316.332031 247.214844 305.667969 246.855469 L 303.03125 246.765625 L 294.957031 221.355469 L 297.183594 219.773438 C 304.5 214.574219 302.804688 208.035156 292.875 204.507812 L 290.410156 203.609375 L 290.410156 200.996094 C 290.410156 196.765625 292.957031 194.421875 294.769531 192.769531 L 296.160156 191.503906 C 296.589844 191.09375 297.054688 190.605469 297.496094 190.148438 C 298.492188 189.0625 299.347656 187.855469 300.042969 186.558594 L 300.6875 185.34375 L 301.960938 184.84375 C 367.835938 159.0625 440.988281 159.0625 506.863281 184.84375 L 508.136719 185.34375 L 508.78125 186.558594 C 509.476562 187.855469 510.332031 189.0625 511.328125 190.148438 C 511.785156 190.652344 512.226562 191.046875 512.664062 191.503906 L 514.054688 192.769531 C 515.847656 194.421875 518.414062 196.765625 518.414062 200.996094 L 518.414062 203.628906 L 515.945312 204.527344 C 506.019531 208.117188 504.289062 214.636719 511.640625 219.792969 L 513.867188 221.371094 L 505.792969 246.785156 L 503.15625 246.875 C 492.492188 247.214844 491.550781 253.394531 493.078125 260.34375 L 493.652344 262.964844 L 491.363281 264.347656 C 488.160156 266.289062 485.355469 273.992188 487.210938 279.613281 L 489.980469 287.976562 L 482.027344 284.195312 C 432.945312 260.667969 375.859375 260.667969 326.777344 284.195312 L 318.839844 288.011719 L 321.609375 279.652344 C 323.464844 274.011719 320.652344 266.304688 317.457031 264.367188 L 317.457031 264.332031 Z M 317.460938 264.332031 " fill-opacity="1" fill-rule="nonzero"/><path fill="#ff0000" d="M 695.417969 331.941406 C 695.183594 332.273438 694.925781 332.589844 694.644531 332.882812 C 691.75 335.917969 686.027344 338.910156 681.023438 338.757812 L 676.808594 338.632812 L 677.183594 342.832031 C 678.832031 361.007812 689.613281 385.34375 700.503906 397.953125 C 711.570312 410.738281 717.4375 424.632812 716.828125 437.113281 L 716.648438 440.707031 L 720.234375 441.046875 C 741.25 443.015625 755.902344 433.039062 761.140625 418.6875 C 769.113281 396.867188 753.582031 373.277344 743.023438 357.308594 C 729.105469 336.25 731.425781 312.355469 734.609375 297.269531 L 735.132812 294.800781 L 733.042969 293.390625 C 728.835938 290.5625 726.609375 285.777344 726.609375 280.296875 C 726.609375 274.210938 728.117188 267.566406 734.171875 261.496094 C 740.574219 255.09375 747.417969 254.3125 757.355469 254.3125 C 762.246094 254.3125 774.398438 259.699219 777.984375 265.003906 C 778.082031 265.136719 778.113281 265.308594 778.066406 265.464844 C 778.066406 265.609375 777.824219 266.046875 777.007812 266.488281 C 772.890625 268.679688 770.601562 272.289062 769.050781 275.808594 C 767.632812 279.03125 766.648438 282.714844 765.328125 286.179688 C 763.042969 292.171875 760.128906 296.605469 750.628906 296.605469 L 747.796875 296.605469 L 747.035156 299.300781 C 745.660156 304.277344 744.886719 309.402344 744.726562 314.566406 C 744.144531 330.164062 748.019531 340.761719 753.75 350.207031 C 755.707031 353.421875 758.746094 357.992188 761.9375 363.136719 C 765.199219 368.265625 768.152344 373.582031 770.78125 379.058594 C 784.386719 408.449219 775.265625 444.613281 742.082031 455.144531 C 736.773438 456.835938 724.84375 458.503906 712.214844 456.339844 L 710.097656 455.972656 L 708.726562 457.617188 C 707.984375 458.511719 707.183594 459.367188 706.339844 460.210938 C 705.078125 461.476562 703.542969 462.832031 701.855469 464.269531 L 701.039062 464.980469 L 700.726562 466.003906 C 697.875 475.394531 698.78125 486.378906 708.269531 497.359375 C 712.019531 501.699219 715.273438 505.226562 717.765625 508.28125 C 720.261719 511.332031 721.542969 513.425781 722.027344 515.09375 C 722.664062 517.324219 722.234375 520.203125 713.128906 526.769531 C 689.945312 543.4375 680.574219 557.605469 675.460938 567.761719 C 673.101562 572.476562 671.785156 576.195312 670.285156 578.726562 C 669.21875 580.523438 668.601562 580.847656 667.335938 580.855469 C 662.769531 580.695312 656.097656 579.902344 651.191406 577.839844 L 648.1875 576.5625 L 646.554688 579.335938 C 643.578125 584.347656 631.6875 585.273438 626.886719 582.128906 L 625.308594 581.097656 L 623.515625 581.761719 C 613.648438 585.417969 607.058594 584.871094 603.066406 583.675781 C 601.527344 583.238281 600.066406 582.566406 598.734375 581.679688 C 598.421875 581.46875 598.121094 581.234375 597.839844 580.980469 C 580.359375 579.652344 579.09375 561.746094 586.691406 552.03125 C 588.367188 549.882812 593.613281 543.472656 604.554688 543.472656 C 612.007812 543.472656 647.273438 521.328125 647.273438 509.617188 C 647.273438 506.921875 645.480469 504.984375 644.1875 503.808594 C 642.492188 502.382812 640.667969 501.113281 638.746094 500.007812 C 634.746094 497.613281 629.417969 494.828125 624.089844 491.351562 C 613.507812 484.464844 604.296875 475.699219 604.296875 462.851562 C 604.296875 452.53125 607.191406 434.789062 636.0625 434.789062 L 639.804688 434.789062 L 639.804688 431.042969 C 639.804688 410.121094 618.816406 389.222656 608.414062 381.292969 C 602.773438 376.847656 598.269531 371.121094 595.28125 364.582031 L 594.609375 363.15625 L 593.128906 362.632812 C 582.429688 358.878906 572.886719 346.703125 563.882812 332.417969 C 559.398438 325.359375 555.308594 318.113281 551.410156 311.699219 C 547.507812 305.289062 543.632812 299.378906 539.75 295.355469 L 538.617188 294.179688 L 537.003906 294.179688 C 532.285156 294.234375 526.285156 292.386719 521.191406 290.4375 L 519.34375 289.707031 L 517.703125 290.839844 C 508.492188 297.207031 498.429688 293.085938 497.972656 287.699219 L 497.652344 284.3125 L 494.25 284.3125 C 488.988281 284.3125 486.796875 281.105469 486.601562 276.273438 C 486.386719 270.886719 488.898438 265.8125 491.320312 264.339844 L 493.605469 262.957031 L 493.03125 260.335938 C 491.605469 253.851562 488.988281 234.230469 544.386719 258.496094 C 545.921875 259.167969 547.488281 259.921875 549.09375 260.730469 L 556.128906 264.269531 L 554.414062 256.574219 C 552.269531 246.894531 547.9375 237.777344 538.863281 229.875 L 536.960938 228.222656 L 534.738281 229.417969 C 531.09375 231.277344 528.558594 230.960938 525.453125 229.417969 C 523.425781 228.308594 521.480469 227.046875 519.640625 225.644531 C 517.355469 223.984375 514.863281 222.054688 512 220.148438 C 504.179688 214.816406 505.945312 208.179688 515.9375 204.578125 L 518.402344 203.679688 L 518.402344 200.996094 C 518.425781 199.125 517.867188 197.296875 516.800781 195.761719 C 516.363281 195.117188 515.871094 194.519531 515.328125 193.964844 C 514.871094 193.496094 514.367188 193.066406 513.832031 192.546875 C 513.292969 192.023438 512.933594 191.703125 512.394531 191.226562 C 511.855469 190.75 511.5 190.328125 511.015625 189.789062 C 509.984375 188.585938 509.121094 187.257812 508.441406 185.828125 C 505.652344 180.082031 512.027344 173.382812 520.097656 177.054688 L 525.347656 174.082031 C 525.628906 173.917969 525.929688 173.785156 526.242188 173.695312 C 527.902344 173.144531 529.648438 172.90625 531.390625 172.996094 C 536.234375 173.113281 539.644531 174.695312 540.214844 175.554688 L 546.496094 175.429688 C 546.292969 175.554688 546.132812 175.734375 546.039062 175.949219 C 546.265625 175.855469 546.507812 175.796875 546.753906 175.769531 C 548.050781 175.675781 549.351562 175.917969 550.53125 176.472656 C 553.742188 177.84375 558.378906 181.679688 562.324219 191.191406 L 563.589844 194.234375 L 566.765625 193.335938 C 569.476562 192.566406 572.238281 191.996094 575.035156 191.628906 C 576.828125 191.421875 583.214844 190.949219 584.738281 190.730469 C 586.375 190.46875 587.917969 189.792969 589.222656 188.765625 C 590.242188 187.953125 591.191406 187.050781 592.054688 186.070312 L 593.195312 184.867188 C 593.535156 184.527344 593.894531 184.175781 594.273438 183.863281 C 594.878906 183.308594 595.578125 182.867188 596.335938 182.550781 C 598.183594 182.085938 600.0625 181.753906 601.957031 181.5625 L 606.199219 181.007812 L 605.085938 176.867188 C 604.78125 175.734375 604.398438 174.171875 604.191406 172.761719 C 604.085938 172.167969 604.011719 171.570312 603.976562 170.96875 C 603.957031 170.8125 603.957031 170.65625 603.976562 170.5 C 604.15625 169.917969 604.871094 169.054688 607.5625 168.210938 C 610.425781 167.3125 613.589844 166.898438 615.582031 166.207031 C 616.773438 165.804688 618.019531 165.382812 619.167969 164.921875 C 620.496094 164.433594 621.757812 163.777344 622.917969 162.964844 C 625.8125 161.054688 626.832031 157.289062 625.304688 154.175781 C 626.046875 154.246094 627.097656 154.410156 628.433594 154.640625 C 631.027344 155.109375 633.570312 155.832031 636.019531 156.804688 C 636.949219 157.164062 637.847656 157.59375 638.710938 158.089844 C 638.839844 158.164062 638.960938 158.246094 639.078125 158.332031 C 639.039062 158.691406 638.960938 159.046875 638.847656 159.390625 C 638.53125 160.378906 634.703125 167.375 634.703125 167.375 C 634.703125 167.375 642.378906 166.648438 643.347656 166.640625 C 644.59375 166.621094 645.839844 166.707031 647.070312 166.898438 C 649.042969 167.222656 650.902344 167.617188 652.53125 167.878906 C 654.335938 168.25 656.195312 168.285156 658.011719 167.984375 C 660.472656 167.515625 662.398438 165.589844 662.875 163.128906 C 663.136719 161.640625 663.101562 160.113281 662.765625 158.636719 C 664.628906 159.027344 666.4375 159.648438 668.148438 160.480469 C 674.425781 163.488281 676.777344 167.195312 675.84375 169.773438 C 675.097656 171.828125 672.253906 173.839844 672.15625 173.914062 L 667.761719 176.859375 C 667.761719 176.859375 672.246094 180.191406 672.34375 180.289062 C 672.660156 180.523438 672.957031 180.78125 673.242188 181.050781 C 674.207031 182.085938 675.023438 183.253906 675.664062 184.519531 C 678.355469 189.519531 683.941406 187.769531 686.210938 186.457031 C 689.039062 184.890625 691.085938 182.214844 691.871094 179.074219 C 694.820312 182.175781 697.628906 187.285156 697.96875 191.019531 C 698.273438 194.289062 697.449219 198.003906 695.941406 199.164062 C 695.421875 199.566406 692.535156 200.0625 692.058594 200.0625 L 686.675781 200.671875 C 686.675781 200.671875 689.503906 206.175781 689.769531 207.128906 C 690.257812 208.929688 690.457031 210.796875 690.363281 212.660156 C 690.121094 218.945312 696.113281 220.050781 699.332031 219.523438 C 702.113281 219.035156 704.667969 217.679688 706.632812 215.652344 C 706.875 216.117188 707.117188 216.65625 707.367188 217.257812 C 709.0625 221.398438 709.96875 226.832031 708.839844 230.726562 C 708.175781 233 704.917969 236.117188 703.859375 236.332031 C 703.421875 236.40625 702.976562 236.429688 702.535156 236.394531 C 701.84375 236.394531 701.160156 236.277344 700.570312 236.207031 C 699.796875 236.09375 699.019531 236.042969 698.238281 236.0625 C 694.820312 236.257812 693.859375 238.296875 694.148438 240.675781 C 694.261719 241.488281 694.316406 242.304688 694.308594 243.121094 C 694.308594 244.019531 694.21875 244.96875 694.113281 246.46875 C 693.214844 258.042969 703.019531 258.035156 709.359375 254.605469 C 709.679688 256.570312 709.796875 258.5625 709.710938 260.550781 C 709.675781 263.480469 709.097656 266.378906 708.003906 269.097656 C 706.972656 271.398438 705.789062 272.261719 704.660156 272.457031 C 701.96875 272.90625 700.882812 272.402344 700.542969 272.234375 C 695.566406 269.710938 694.265625 271.441406 693.644531 274.351562 C 693.539062 274.847656 693.464844 275.320312 693.277344 275.941406 C 693.011719 276.785156 692.683594 277.601562 692.292969 278.394531 C 689.527344 284.25 692.085938 288.773438 697.207031 289.789062 C 699.789062 290.199219 702.433594 290 704.929688 289.203125 C 704.875 291.066406 704.597656 292.914062 704.101562 294.710938 C 702.472656 300.726562 699.296875 304.34375 695.082031 303.984375 C 694.894531 303.945312 694.710938 303.878906 694.542969 303.789062 C 694.085938 303.546875 693.644531 303.230469 693.214844 302.945312 C 692.554688 302.464844 691.863281 302.03125 691.144531 301.652344 C 690.105469 301.082031 688.945312 300.777344 687.761719 300.753906 C 686.507812 300.753906 684.390625 301.480469 683.464844 304.34375 C 683.140625 305.480469 682.929688 306.644531 682.839844 307.820312 C 682.605469 310.816406 682.695312 313.824219 683.109375 316.800781 C 683.46875 320.09375 684.425781 323.296875 685.933594 326.246094 C 687.492188 329.058594 690.210938 331.859375 694.433594 331.859375 C 694.828125 331.894531 695.152344 331.914062 695.421875 331.941406 Z M 183.445312 154.296875 C 181.984375 157.394531 183.027344 161.09375 185.882812 162.972656 C 187.042969 163.789062 188.304688 164.457031 189.632812 164.957031 C 190.789062 165.414062 192.035156 165.855469 193.222656 166.238281 C 195.210938 166.929688 198.378906 167.34375 201.238281 168.242188 C 203.929688 169.085938 204.691406 169.949219 204.828125 170.53125 C 204.84375 170.6875 204.84375 170.84375 204.828125 171 C 204.789062 171.601562 204.71875 172.199219 204.609375 172.796875 C 204.367188 174.242188 203.984375 175.765625 203.714844 176.898438 L 202.601562 181.011719 L 206.84375 181.570312 C 208.742188 181.757812 210.621094 182.089844 212.46875 182.554688 C 213.246094 182.871094 213.960938 183.320312 214.585938 183.886719 C 214.960938 184.199219 215.320312 184.550781 215.660156 184.890625 L 216.800781 186.09375 C 217.664062 187.074219 218.613281 187.976562 219.632812 188.789062 C 220.9375 189.8125 222.480469 190.492188 224.117188 190.753906 C 225.644531 190.996094 231.984375 191.472656 233.824219 191.652344 C 236.617188 192.015625 239.382812 192.585938 242.089844 193.359375 L 245.265625 194.257812 L 246.53125 191.214844 C 250.476562 181.703125 255.113281 177.867188 258.324219 176.496094 C 259.503906 175.941406 260.804688 175.699219 262.101562 175.792969 C 262.347656 175.816406 262.589844 175.878906 262.820312 175.972656 C 262.722656 175.757812 262.5625 175.578125 262.359375 175.453125 L 268.640625 175.578125 C 269.214844 174.679688 272.621094 173.136719 277.464844 173.019531 C 279.210938 172.929688 280.957031 173.167969 282.613281 173.71875 C 282.941406 173.835938 283.246094 174.011719 283.507812 174.242188 C 296.835938 173.40625 303.1875 180.105469 300.398438 185.851562 C 299.707031 187.289062 298.828125 188.632812 297.789062 189.839844 C 297.320312 190.367188 296.890625 190.84375 296.40625 191.277344 C 295.921875 191.707031 295.417969 192.171875 294.972656 192.59375 C 294.523438 193.019531 293.929688 193.546875 293.472656 194.015625 C 292.929688 194.566406 292.4375 195.167969 292.003906 195.808594 C 290.9375 197.34375 290.375 199.175781 290.398438 201.046875 L 290.398438 203.675781 L 292.863281 204.574219 C 302.855469 208.167969 304.621094 214.8125 296.800781 220.144531 C 293.941406 222.085938 291.417969 223.980469 289.160156 225.640625 C 287.320312 227.042969 285.378906 228.304688 283.347656 229.414062 C 280.246094 230.992188 277.707031 231.308594 274.066406 229.414062 L 271.8125 228.273438 L 269.914062 229.925781 C 260.835938 237.828125 256.503906 246.988281 254.359375 256.621094 L 252.648438 264.320312 L 259.679688 260.78125 C 261.285156 259.972656 262.855469 259.21875 264.386719 258.542969 C 319.789062 234.296875 317.167969 253.902344 315.742188 260.386719 L 315.167969 263.007812 L 317.457031 264.390625 C 319.878906 265.863281 322.390625 270.972656 322.171875 276.324219 C 321.984375 281.15625 319.789062 284.363281 314.523438 284.363281 L 311.125 284.363281 L 310.808594 287.746094 C 310.300781 293.136719 300.234375 297.257812 291.027344 290.890625 L 289.382812 289.757812 L 287.535156 290.484375 C 282.441406 292.480469 276.441406 294.285156 271.726562 294.230469 L 270.109375 294.230469 L 268.972656 295.363281 C 265.125 299.386719 261.25 305.292969 257.3125 311.707031 C 253.375 318.117188 249.242188 325.363281 244.835938 332.421875 C 235.867188 346.707031 226.289062 358.886719 215.589844 362.640625 L 214.109375 363.160156 L 213.4375 364.585938 C 210.449219 371.125 205.949219 376.855469 200.308594 381.300781 C 189.921875 389.230469 168.917969 410.125 168.917969 431.046875 L 168.917969 434.792969 L 172.65625 434.792969 C 201.527344 434.792969 204.425781 452.539062 204.425781 462.855469 C 204.425781 475.707031 195.222656 484.46875 184.628906 491.359375 C 179.304688 494.832031 173.976562 497.644531 169.976562 500.015625 C 168.050781 501.117188 166.230469 502.386719 164.53125 503.8125 C 163.230469 504.988281 161.445312 506.945312 161.445312 509.621094 C 161.445312 521.296875 196.710938 543.476562 204.164062 543.476562 C 215.105469 543.476562 220.308594 549.886719 222.03125 552.035156 C 229.628906 561.75 228.363281 579.65625 213.761719 579.65625 L 212.46875 579.65625 L 210.980469 580.984375 C 210.699219 581.238281 210.398438 581.472656 210.085938 581.6875 C 208.753906 582.570312 207.289062 583.242188 205.753906 583.679688 C 201.761719 584.875 195.125 585.421875 185.304688 581.765625 L 183.511719 581.101562 L 181.933594 582.136719 C 177.132812 585.277344 165.242188 584.351562 162.265625 579.34375 L 160.59375 576.539062 L 157.539062 577.84375 C 152.660156 579.90625 145.984375 580.699219 141.394531 580.859375 C 140.128906 580.859375 139.511719 580.546875 138.441406 578.730469 C 136.945312 576.199219 135.625 572.445312 133.269531 567.765625 C 128.183594 557.609375 118.8125 543.441406 95.597656 526.773438 C 86.496094 520.226562 86.066406 517.34375 86.703125 515.101562 C 87.1875 513.429688 88.496094 511.328125 90.960938 508.285156 C 93.429688 505.238281 96.710938 501.703125 100.460938 497.363281 C 109.949219 486.382812 110.855469 475.398438 108.003906 466.007812 L 107.6875 464.984375 L 106.882812 464.273438 C 105.222656 462.835938 103.6875 461.480469 102.398438 460.214844 C 101.554688 459.371094 100.757812 458.5 100.011719 457.621094 L 98.640625 455.976562 L 96.523438 456.34375 C 83.894531 458.507812 71.96875 456.839844 66.65625 455.148438 C 33.472656 444.617188 24.324219 408.457031 37.957031 379.0625 C 40.585938 373.585938 43.539062 368.269531 46.800781 363.140625 C 49.992188 357.996094 53.078125 353.425781 54.988281 350.210938 C 60.71875 340.765625 64.601562 330.167969 64.011719 314.570312 C 63.851562 309.40625 63.078125 304.28125 61.707031 299.304688 L 60.941406 296.609375 L 58.207031 296.609375 C 48.710938 296.609375 45.792969 292.175781 43.507812 286.183594 C 42.1875 282.71875 41.210938 279 39.785156 275.8125 C 38.234375 272.292969 35.945312 268.683594 31.832031 266.492188 C 31.015625 266.050781 30.816406 265.59375 30.773438 265.46875 C 30.722656 265.3125 30.753906 265.140625 30.851562 265.011719 C 34.441406 259.675781 46.59375 254.316406 51.480469 254.316406 C 61.417969 254.316406 68.261719 255.085938 74.664062 261.5 C 80.730469 267.570312 82.226562 274.214844 82.226562 280.304688 C 82.226562 285.78125 80.003906 290.566406 75.796875 293.394531 L 73.707031 294.804688 L 74.226562 297.273438 C 77.363281 312.34375 79.734375 336.28125 65.769531 357.296875 C 55.210938 373.261719 39.679688 396.851562 47.652344 418.671875 C 52.890625 433.042969 67.542969 443 88.558594 441.035156 L 92.144531 440.691406 L 91.964844 437.101562 C 91.355469 424.617188 97.222656 410.726562 108.296875 397.9375 C 119.214844 385.367188 129.992188 360.996094 131.617188 342.820312 L 131.992188 338.617188 L 127.777344 338.742188 C 122.773438 338.894531 117.015625 335.90625 114.15625 332.871094 C 113.859375 332.5625 113.582031 332.234375 113.328125 331.890625 L 114.351562 331.890625 C 118.578125 331.890625 121.292969 329.089844 122.855469 326.277344 C 124.363281 323.328125 125.320312 320.125 125.679688 316.832031 C 126.089844 313.855469 126.183594 310.847656 125.949219 307.851562 C 125.859375 306.675781 125.648438 305.511719 125.320312 304.375 C 124.425781 301.484375 122.28125 300.785156 121.023438 300.785156 C 119.84375 300.808594 118.683594 301.117188 117.644531 301.683594 C 116.925781 302.066406 116.230469 302.496094 115.570312 302.976562 C 115.140625 303.261719 114.675781 303.578125 114.246094 303.820312 C 114.074219 303.910156 113.894531 303.976562 113.707031 304.015625 C 109.492188 304.375 106.316406 300.757812 104.683594 294.742188 C 104.191406 292.945312 103.914062 291.097656 103.859375 289.238281 C 106.351562 290.03125 108.996094 290.234375 111.582031 289.820312 C 116.703125 288.804688 119.257812 284.28125 116.496094 278.425781 C 116.105469 277.632812 115.773438 276.816406 115.507812 275.972656 C 115.320312 275.355469 115.25 274.878906 115.140625 274.382812 C 114.539062 271.472656 113.222656 269.742188 108.246094 272.265625 C 107.902344 272.433594 106.792969 272.9375 104.128906 272.488281 C 102.996094 272.292969 101.8125 271.429688 100.78125 269.128906 C 99.691406 266.410156 99.113281 263.511719 99.078125 260.582031 C 98.992188 258.59375 99.109375 256.601562 99.429688 254.636719 C 105.796875 258.066406 115.570312 258.074219 114.675781 246.5 C 114.566406 245 114.488281 244.023438 114.476562 243.152344 C 114.472656 242.335938 114.527344 241.519531 114.640625 240.710938 C 114.925781 238.328125 113.96875 236.289062 110.550781 236.09375 C 109.769531 236.074219 108.988281 236.125 108.21875 236.238281 C 107.625 236.308594 106.945312 236.398438 106.261719 236.425781 C 105.816406 236.460938 105.367188 236.4375 104.925781 236.363281 C 103.867188 236.121094 100.613281 233.03125 99.949219 230.757812 C 98.820312 226.84375 99.722656 221.410156 101.417969 217.289062 C 101.671875 216.6875 101.914062 216.148438 102.15625 215.683594 C 104.117188 217.710938 106.675781 219.066406 109.457031 219.554688 C 112.65625 220.082031 118.648438 219.023438 118.425781 212.691406 C 118.328125 210.828125 118.527344 208.960938 119.015625 207.160156 C 119.285156 206.207031 122.109375 200.703125 122.109375 200.703125 L 116.730469 200.09375 C 116.253906 200.039062 113.367188 199.582031 112.84375 199.195312 C 111.339844 198.039062 110.515625 194.320312 110.820312 191.050781 C 111.160156 187.316406 113.964844 182.207031 116.828125 179.199219 C 117.703125 182.296875 119.769531 184.917969 122.578125 186.488281 C 124.847656 187.800781 130.46875 189.550781 133.125 184.550781 C 133.796875 183.277344 134.648438 182.109375 135.652344 181.082031 C 135.921875 180.8125 136.207031 180.558594 136.503906 180.320312 C 136.585938 173.871094 133.75 171.859375 133.007812 169.804688 C 132.109375 167.226562 134.425781 163.519531 140.703125 160.511719 C 142.417969 159.65625 144.230469 159.023438 146.101562 158.617188 C 145.765625 160.089844 145.730469 161.617188 145.996094 163.105469 C 146.46875 165.566406 148.394531 167.492188 150.855469 167.964844 C 152.671875 168.261719 154.53125 168.226562 156.335938 167.855469 C 157.96875 167.59375 159.824219 167.199219 161.796875 166.875 C 163.027344 166.6875 164.273438 166.597656 165.519531 166.617188 C 166.488281 166.617188 174.164062 167.351562 174.164062 167.351562 C 174.164062 167.351562 170.316406 160.375 169.976562 159.378906 C 169.835938 158.992188 169.746094 158.585938 169.714844 158.175781 C 169.824219 158.085938 169.789062 158.273438 170.113281 158.078125 C 170.972656 157.578125 171.875 157.148438 172.800781 156.792969 C 175.253906 155.820312 177.792969 155.09375 180.390625 154.628906 C 181.402344 154.449219 182.421875 154.339844 183.449219 154.296875 Z M 183.445312 154.296875 " fill-opacity="1" fill-rule="nonzero"/><path fill="#000000" d="M 46.609375 284.972656 C 49.300781 291.835938 50.984375 293.953125 63.585938 293.476562 C 65.75 300.265625 67.039062 307.304688 67.425781 314.417969 C 68.035156 330.773438 63.9375 342.007812 57.917969 351.9375 C 55.953125 355.171875 52.914062 359.75 49.710938 364.90625 C 46.519531 369.914062 43.632812 375.105469 41.058594 380.457031 C 28.035156 408.59375 37.074219 442.1875 67.75 451.929688 C 72.285156 453.367188 82.304688 454.8125 93.210938 453.429688 C 91.632812 450.554688 90.445312 447.480469 89.6875 444.289062 C 67.046875 446.675781 50.464844 436.207031 44.492188 419.824219 C 40.007812 407.65625 42.347656 395.328125 46.636719 384.535156 C 50.921875 373.738281 57.550781 363.609375 62.960938 355.429688 C 76.125 335.53125 74.476562 312.265625 69.9375 292.402344 C 74.3125 290.074219 78.832031 288.28125 78.816406 280.277344 C 78.816406 274.601562 77.613281 268.910156 72.402344 264.015625 C 60.644531 252.972656 42.105469 260.003906 35.632812 264.914062 C 38.824219 267.394531 41.300781 270.683594 42.804688 274.441406 C 44.257812 277.71875 45.265625 281.445312 46.609375 284.976562 Z M 199.191406 356.085938 C 201.386719 358.320312 204.519531 359.675781 208.894531 359.675781 C 218.480469 359.675781 228.125 350.355469 238.597656 334.535156 C 243.621094 326.945312 248.230469 318.855469 252.554688 311.652344 C 256.878906 304.449219 261.398438 297.285156 266.007812 292.488281 L 268.367188 290.03125 C 276.816406 291.070312 289.890625 285.089844 289.890625 285.089844 L 293.335938 287.460938 C 296.308594 289.386719 299.878906 290.164062 303.378906 289.644531 C 305.351562 289.53125 306.929688 287.960938 307.046875 285.988281 C 307.578125 282.019531 304.070312 279.039062 301.925781 277.90625 C 297.441406 275.75 300.652344 269 305.15625 271.152344 C 305.15625 271.152344 310.347656 273.273438 313.785156 280.207031 C 317.515625 280.566406 317.863281 278.554688 318.097656 276.226562 C 318.554688 271.738281 315.863281 263.835938 303.910156 263.753906 C 298.941406 264.113281 298.402344 256.652344 303.371094 256.292969 C 303.371094 256.292969 308.617188 255.996094 312.042969 257.53125 C 312.65625 253.984375 311.328125 252.3125 309.867188 251.75 C 305.558594 250.078125 293.804688 250.007812 266.007812 262.28125 C 259.730469 265.046875 246.535156 273.058594 233.925781 277.898438 C 236.707031 281.21875 241.101562 283.125 245.253906 279.695312 C 252.015625 274.109375 250.636719 302.726562 240.167969 304.253906 C 237.703125 304.546875 235.21875 303.90625 233.199219 302.457031 C 232.9375 304.335938 232.433594 306.167969 231.703125 307.917969 C 229.363281 312.40625 230.332031 317.875 237.648438 317.472656 C 237.746094 326.300781 229.875 338.644531 217.121094 333.96875 C 208.152344 330.671875 211.828125 317.003906 201.738281 318.648438 C 201.453125 318.703125 200.402344 323.632812 200.902344 329.847656 C 202.402344 348.453125 209.792969 344.214844 210.203125 346.289062 C 211.128906 350.824219 205.765625 354.9375 199.191406 356.085938 Z M 207.171875 367.507812 C 197.179688 366.988281 191.78125 361.90625 189.0625 355.257812 C 183.773438 353.273438 179.34375 348.507812 178.460938 339.605469 C 177.636719 331.273438 182.464844 320.460938 173.976562 320.460938 C 172.589844 320.460938 170.992188 326.9375 170.308594 330.113281 C 165.996094 350.050781 175.601562 344.859375 171.976562 349.089844 C 165.808594 356.273438 144.625 354.726562 146.964844 333.878906 C 147.628906 327.921875 153.46875 316.617188 147.378906 316.617188 C 143.046875 316.617188 143.59375 332.78125 135.941406 339.480469 C 135.429688 360.613281 121.925781 388.402344 111.386719 400.542969 C 93.449219 421.289062 91 442.75 105.402344 457.179688 C 107.527344 459.308594 110.433594 461.671875 113.394531 464.3125 C 116.910156 467.289062 120.15625 470.570312 123.097656 474.117188 C 129.152344 481.742188 133.734375 493.304688 123.367188 504.550781 C 120.875 507.242188 118.714844 509.820312 116.730469 511.984375 C 112.066406 517.09375 115.242188 518.933594 119.3125 521.792969 C 136.355469 533.699219 146.390625 544.332031 153.082031 553.839844 C 155.976562 557.976562 158.554688 562.328125 160.792969 566.851562 C 162.640625 570.542969 164.132812 573.929688 165.710938 577.042969 C 166.75 579.101562 175.738281 582.304688 182.09375 577.042969 C 182.246094 572.867188 180.535156 568.0625 178.066406 564.535156 C 175.089844 560.222656 181.546875 555.753906 184.527344 560.042969 C 187.890625 564.910156 190.667969 572.695312 189.863281 578.832031 C 197.039062 581.335938 202.847656 581.085938 207.800781 578.191406 C 208.527344 570.828125 206.527344 565.511719 204.058594 562.261719 C 200.894531 558.09375 207.144531 553.335938 210.335938 557.503906 C 214.023438 562.671875 215.976562 568.878906 215.914062 575.230469 C 220.195312 574.78125 221.746094 571.96875 222.246094 568.699219 C 223.039062 563.527344 221.152344 557.304688 218.882812 554.40625 C 217.476562 552.609375 213.289062 547.429688 204.257812 547.429688 C 195.863281 547.429688 157.421875 524.582031 157.421875 509.460938 C 157.421875 504.910156 160.425781 501.890625 161.90625 500.589844 C 163.796875 498.984375 165.828125 497.558594 167.980469 496.324219 C 171.941406 493.945312 177.226562 491.1875 182.515625 487.746094 C 192.921875 480.976562 200.453125 473.28125 200.453125 462.691406 C 200.453125 453.472656 197.683594 440.792969 178.875 439.085938 C 174.847656 438.714844 161.125 437.378906 152.390625 441.839844 C 147.726562 444.222656 143.582031 438.445312 147.851562 435.421875 C 147.851562 435.421875 152.722656 431.828125 164.957031 430.679688 C 165.089844 407.664062 187.582031 385.78125 197.945312 377.867188 C 201.605469 374.984375 204.730469 371.476562 207.171875 367.507812 Z M 113.199219 474.484375 C 113.40625 482.566406 110.742188 491.222656 103.332031 499.800781 C 99.609375 504.101562 96.347656 507.574219 93.90625 510.636719 C 89.421875 516.269531 89.097656 517.355469 97.824219 523.703125 C 121.40625 540.847656 131.277344 555.347656 136.625 566.0625 C 140.167969 573.164062 141.109375 577.222656 142.542969 577.097656 C 145.628906 576.882812 148.695312 576.429688 151.710938 575.742188 C 153.21875 575.402344 154.695312 574.933594 156.121094 574.339844 C 150.578125 562.667969 142.769531 547.671875 115.277344 528.328125 C 100.183594 517.667969 107.53125 510.753906 118.078125 499.332031 C 126.273438 490.441406 120.6875 481.847656 113.199219 474.484375 Z M 238.683594 242.480469 L 214.253906 242.480469 L 214.253906 223.476562 C 214.253906 223.476562 233.527344 223.566406 239.367188 222.867188 C 241.535156 222.632812 243.726562 222.707031 245.878906 223.082031 C 246.253906 223.144531 247.214844 222.964844 247.242188 222.363281 C 247.796875 219.003906 247.574219 211.410156 247.574219 211.410156 C 250.429688 208.21875 251.984375 204.066406 251.921875 199.78125 C 245.382812 197.328125 238.667969 195.289062 233.429688 194.632812 C 231.570312 194.417969 225.160156 193.933594 223.609375 193.691406 C 221.511719 193.386719 219.53125 192.5625 217.839844 191.285156 C 216.726562 190.441406 213.203125 185.734375 211.363281 185.332031 C 197.390625 182.242188 181.570312 183.707031 177.902344 184.53125 C 175.054688 185.203125 172.761719 187.308594 171.847656 190.089844 C 169.210938 190.089844 163.417969 190.089844 160.980469 190.558594 C 158.144531 191.148438 157.085938 191.328125 157.015625 193.25 C 156.890625 196.628906 165.3125 201.953125 165.3125 201.953125 C 164.140625 208.257812 162.511719 214.472656 160.441406 220.542969 C 159.769531 222.417969 159.730469 223.980469 161.335938 227.726562 C 163.605469 232.96875 169.105469 235.808594 176.585938 237 C 182.027344 237.898438 188.90625 246.484375 192.28125 247.839844 C 194.332031 248.667969 207.277344 248.550781 212.273438 248.351562 C 222.273438 247.957031 232.542969 247.183594 235.976562 246.414062 C 237.023438 246.195312 238.109375 243.835938 238.683594 242.480469 Z M 217.886719 254.84375 C 205.875 255.515625 192.433594 255.652344 189.183594 253.882812 C 182.449219 250.226562 178.609375 244.285156 175.273438 243.636719 C 167.515625 242.136719 158.863281 238.957031 155.175781 230.425781 C 150.78125 220.242188 155.308594 218.230469 157.921875 204.78125 C 148.367188 197.40625 148.789062 190.410156 153.597656 186.21875 C 155.640625 184.421875 162.117188 183.40625 168.234375 183.40625 C 169.921875 176.574219 187.210938 176.152344 200.074219 177.121094 C 200.351562 176.117188 200.691406 174.914062 200.96875 173.980469 C 201.507812 172.183594 201.507812 171.679688 198.699219 171.105469 C 192.683594 169.867188 189.273438 168.90625 185.105469 166.480469 C 181.515625 164.378906 179.398438 160.625 180.101562 158.738281 C 180.898438 156.640625 174.558594 158.785156 173.945312 159.953125 C 172.90625 161.929688 178.324219 169.992188 178.324219 169.992188 C 174.3125 169.660156 170.285156 169.539062 166.261719 169.625 C 159.730469 169.972656 155.785156 171.671875 151.167969 171.167969 C 145.652344 170.558594 142.59375 166.210938 142.988281 163.085938 C 143.230469 161.164062 135.8125 166.445312 136.019531 168.652344 C 136.1875 170.367188 138.644531 173.359375 144.734375 177.328125 C 134.144531 183.515625 136.789062 191.03125 127.695312 191.390625 C 125.003906 191.488281 117.828125 189.433594 117.09375 185.542969 C 116.636719 183.210938 111.648438 191.929688 114.617188 196.320312 C 116.171875 198.617188 117.828125 198.386719 125.382812 198.878906 C 122.332031 204.90625 121.839844 207.761719 121.839844 212.824219 C 121.839844 217.691406 120.269531 219.507812 116.566406 221.804688 C 113.875 223.464844 107.820312 224.5 103.953125 220.65625 C 102.886719 219.585938 101.867188 227.507812 102.808594 229.886719 C 103.75 232.265625 105.039062 233.480469 108.808594 233.363281 C 114.503906 233.191406 117.722656 232.03125 117.632812 233.109375 C 117.289062 238.496094 117.347656 243.898438 117.804688 249.273438 C 118.429688 258.253906 108.734375 262.296875 102.109375 258.785156 C 100.414062 257.886719 101.980469 269.265625 105.113281 269.558594 C 110.960938 270.144531 116.402344 264.785156 116.644531 266.34375 C 118.097656 275.558594 120.125 276.519531 120.683594 280.949219 C 122 291.347656 111.890625 294.050781 108.324219 292.496094 C 105.855469 291.425781 109.066406 302.644531 114.261719 300.578125 C 116.054688 299.851562 118.546875 297.605469 120.933594 297.605469 C 124.726562 297.605469 127.03125 298.933594 128.59375 303.890625 C 129.390625 306.40625 129.804688 311.839844 128.976562 317.359375 C 128.585938 320.949219 127.535156 324.433594 125.882812 327.640625 C 124.796875 329.589844 122.761719 331.753906 120.886719 332.230469 C 117.390625 333.128906 126.554688 337.285156 131.078125 334.636719 C 134.71875 332.5 137.425781 318.636719 138.1875 316.742188 C 140.40625 311.199219 144.1875 309.558594 147.355469 309.558594 C 151.8125 309.410156 155.761719 312.40625 156.824219 316.742188 C 157.359375 319.335938 157.285156 322.019531 156.621094 324.582031 C 156.199219 326.503906 154.234375 333.5625 153.992188 334.710938 C 151.472656 346.914062 164.925781 347.363281 163.453125 345.835938 C 161.390625 343.628906 161.660156 336.328125 163.347656 328.613281 C 163.730469 326.816406 165.222656 320.53125 166.648438 318.140625 C 168.84375 314.390625 171.9375 313.355469 173.957031 313.355469 C 184.511719 313.355469 186.128906 321.796875 186.074219 326.628906 C 186.074219 328.683594 185.515625 337.242188 185.515625 338.902344 C 185.515625 353.335938 203.804688 349.632812 200.691406 348.226562 C 197.105469 346.617188 194.898438 340.941406 193.847656 330.398438 C 192.953125 321.660156 195.292969 312.953125 195.992188 312.734375 C 203.339844 310.5 210.820312 310.292969 215.347656 319.34375 C 216.488281 321.617188 217.5 325.585938 218.933594 326.789062 C 221.929688 329.277344 228.039062 326.707031 229.445312 322.710938 C 222.800781 320.214844 222.511719 310.605469 225.644531 304.210938 C 227.296875 300.578125 228.484375 296.75 229.1875 292.816406 C 230.234375 293.976562 236.496094 298.691406 239.644531 297.648438 C 241.992188 296.875 244.453125 286.820312 241.992188 288.203125 C 236.71875 291.15625 230.335938 284.492188 228.003906 281.367188 C 225.3125 277.957031 223.792969 273.769531 223.660156 269.425781 C 223.402344 264.773438 222.980469 258.972656 217.886719 254.839844 Z M 249.617188 261.804688 C 251.367188 249.5 255.644531 237.351562 267.457031 227.078125 L 271.261719 223.765625 L 275.746094 226.054688 C 278.175781 227.292969 279.449219 227.132812 281.636719 226.054688 C 283.488281 225.027344 285.261719 223.867188 286.945312 222.585938 C 289.261719 220.898438 291.878906 218.996094 294.785156 216.992188 C 300.445312 213.183594 298.167969 210.304688 292.039062 208.210938 L 286.660156 206.191406 L 286.660156 201.851562 C 286.660156 195.082031 289.769531 192.179688 292.488281 189.765625 C 292.992188 189.316406 298.203125 185.097656 297.441406 182.257812 C 296.542969 178.785156 289.367188 179.941406 289.367188 179.941406 C 286.148438 180.839844 283.59375 185.636719 282.613281 188.023438 C 280.613281 192.863281 273.359375 189.820312 275.359375 185.015625 C 276.578125 182.234375 278.195312 179.644531 280.15625 177.328125 C 279.996094 175.675781 273.527344 176.207031 271.527344 177.6875 C 269.828125 179.988281 268.605469 182.609375 267.941406 185.394531 C 267 190.554688 259.277344 189.144531 260.21875 183.992188 C 260.578125 182.363281 261.105469 180.773438 261.789062 179.25 C 258.203125 179.042969 253.71875 183.613281 250.128906 191.976562 C 252.875 192.925781 255.574219 193.949219 258.128906 194.964844 C 259.421875 201.773438 258.128906 208.769531 254.253906 213.722656 C 254.253906 220.910156 254.703125 231.242188 246.683594 230.023438 C 244.519531 229.632812 242.320312 229.472656 240.121094 229.546875 C 234.074219 230.273438 225.203125 230.132812 220.960938 230.15625 L 220.960938 235.742188 L 245.644531 235.742188 C 248.335938 238.382812 244.046875 251.90625 237.125 253.109375 C 235.257812 253.441406 231.5 253.855469 226.871094 254.230469 C 230.28125 259.765625 230.613281 266.632812 231.015625 270.574219 C 237.394531 268.046875 243.609375 265.117188 249.617188 261.800781 Z M 559.164062 261.804688 C 565.1875 265.121094 571.414062 268.050781 577.808594 270.578125 C 578.214844 266.632812 578.546875 259.800781 581.953125 254.234375 C 577.324219 253.855469 573.566406 253.441406 571.703125 253.109375 C 564.777344 251.890625 560.507812 238.382812 563.183594 235.746094 L 587.785156 235.746094 L 587.785156 230.160156 C 583.542969 230.160156 574.671875 230.277344 568.625 229.546875 C 566.425781 229.472656 564.226562 229.632812 562.0625 230.023438 C 554.042969 231.246094 554.492188 220.953125 554.492188 213.726562 C 550.582031 208.757812 549.332031 201.773438 550.582031 194.96875 C 553.136719 193.953125 555.835938 192.929688 558.582031 191.976562 C 554.992188 183.617188 550.507812 179.046875 546.921875 179.25 C 547.605469 180.769531 548.136719 182.355469 548.5 183.984375 C 549.398438 189.136719 541.71875 190.546875 540.777344 185.386719 C 540.113281 182.601562 538.890625 179.980469 537.191406 177.679688 C 535.199219 176.199219 528.722656 175.667969 528.5625 177.320312 C 530.53125 179.625 532.15625 182.203125 533.386719 184.972656 C 535.386719 189.8125 528.132812 192.820312 526.132812 187.980469 C 525.152344 185.636719 522.605469 180.796875 519.378906 179.898438 C 519.378906 179.898438 512.203125 178.738281 511.304688 182.214844 C 510.542969 185.050781 515.789062 189.273438 516.257812 189.722656 C 518.949219 192.136719 522.085938 195.039062 522.085938 201.808594 L 522.085938 206.15625 L 516.707031 208.175781 C 510.578125 210.269531 508.300781 213.152344 513.960938 216.957031 C 516.867188 218.914062 519.484375 220.863281 521.800781 222.554688 C 523.484375 223.835938 525.257812 224.992188 527.109375 226.019531 C 529.296875 227.132812 530.570312 227.292969 533 226.019531 L 537.484375 223.730469 L 541.289062 227.042969 C 553.136719 237.351562 557.414062 249.5 559.164062 261.804688 Z M 590.941406 254.84375 C 585.847656 258.972656 585.425781 264.777344 585.15625 269.425781 C 585.023438 273.769531 583.503906 277.957031 580.816406 281.371094 C 578.445312 284.496094 572.097656 291.160156 566.824219 288.203125 C 564.367188 286.820312 566.824219 296.878906 569.171875 297.652344 C 572.320312 298.691406 578.582031 293.976562 579.632812 292.820312 C 580.332031 296.75 581.523438 300.578125 583.175781 304.214844 C 586.304688 310.609375 586.015625 320.21875 579.371094 322.714844 C 580.777344 326.710938 586.886719 329.277344 589.882812 326.792969 C 591.328125 325.589844 592.339844 321.617188 593.46875 319.347656 C 598 310.296875 605.480469 310.5 612.824219 312.738281 C 613.523438 312.953125 615.847656 321.664062 614.96875 330.402344 C 613.917969 340.945312 611.695312 346.621094 608.125 348.226562 C 604.976562 349.636719 623.230469 353.335938 623.230469 338.90625 C 623.230469 337.246094 622.691406 328.6875 622.671875 326.632812 C 622.621094 321.800781 624.234375 313.359375 634.789062 313.359375 C 636.808594 313.359375 639.902344 314.390625 642.097656 318.144531 C 643.527344 320.570312 645.015625 326.835938 645.398438 328.617188 C 647.066406 336.328125 647.355469 343.628906 645.292969 345.839844 C 643.855469 347.367188 657.300781 346.917969 654.753906 334.667969 C 654.511719 333.527344 652.546875 326.460938 652.125 324.539062 C 651.460938 321.976562 651.390625 319.292969 651.921875 316.699219 C 652.984375 312.363281 656.9375 309.367188 661.390625 309.515625 C 664.558594 309.515625 668.34375 311.175781 670.558594 316.699219 C 671.320312 318.59375 674.027344 332.460938 677.667969 334.597656 C 682.152344 337.246094 691.355469 333.085938 687.867188 332.1875 C 685.984375 331.714844 683.949219 329.550781 682.863281 327.601562 C 681.210938 324.390625 680.160156 320.90625 679.769531 317.320312 C 678.941406 311.769531 679.355469 306.335938 680.152344 303.847656 C 681.714844 298.910156 684.019531 297.5625 687.8125 297.5625 C 690.199219 297.5625 692.675781 299.808594 694.484375 300.535156 C 699.679688 302.59375 702.890625 291.375 700.421875 292.453125 C 696.835938 294.007812 686.746094 291.304688 688.066406 280.90625 C 688.621094 276.476562 690.648438 275.519531 692.101562 266.304688 C 692.34375 264.742188 697.785156 270.101562 703.632812 269.519531 C 706.765625 269.214844 708.332031 257.84375 706.648438 258.742188 C 700.011719 262.253906 690.316406 258.203125 690.945312 249.234375 C 691.398438 243.855469 691.457031 238.453125 691.113281 233.070312 C 691.023438 231.992188 694.246094 233.148438 699.941406 233.320312 C 703.707031 233.429688 705.035156 232.160156 705.941406 229.84375 C 706.84375 227.527344 705.894531 219.535156 704.84375 220.605469 C 700.980469 224.449219 694.898438 223.414062 692.234375 221.753906 C 688.53125 219.445312 686.960938 217.632812 686.960938 212.773438 C 686.960938 207.710938 686.46875 204.855469 683.417969 198.828125 C 691 198.335938 692.65625 198.566406 694.183594 196.269531 C 697.152344 191.894531 692.171875 183.175781 691.707031 185.492188 C 690.945312 189.382812 683.789062 191.4375 681.105469 191.339844 C 671.984375 190.980469 674.628906 183.464844 664.066406 177.277344 C 670.15625 173.308594 672.613281 170.316406 672.78125 168.601562 C 673.007812 166.394531 665.605469 161.113281 665.8125 163.035156 C 666.207031 166.195312 663.121094 170.542969 657.632812 171.117188 C 653.015625 171.621094 649.070312 169.921875 642.539062 169.574219 C 638.515625 169.488281 634.488281 169.609375 630.476562 169.941406 C 630.476562 169.941406 635.859375 161.859375 634.855469 159.902344 C 634.242188 158.734375 627.902344 156.585938 628.699219 158.6875 C 629.402344 160.574219 627.320312 164.328125 623.695312 166.429688 C 619.527344 168.855469 616.117188 169.816406 610.101562 171.054688 C 607.292969 171.628906 607.292969 172.121094 607.832031 173.929688 C 608.109375 174.824219 608.449219 176.066406 608.726562 177.070312 C 621.589844 176.109375 638.878906 176.53125 640.566406 183.355469 C 646.683594 183.355469 653.121094 184.398438 655.203125 186.167969 C 660.011719 190.316406 660.433594 197.355469 650.878906 204.730469 C 653.492188 218.199219 658.054688 220.191406 653.625 230.375 C 649.9375 238.90625 641.285156 242.050781 633.527344 243.585938 C 630.1875 244.230469 626.351562 250.175781 619.617188 253.832031 C 616.359375 255.65625 602.90625 255.519531 590.941406 254.847656 Z M 570.140625 242.480469 C 570.714844 243.835938 571.800781 246.195312 572.886719 246.4375 C 576.320312 247.210938 586.589844 247.984375 596.589844 248.378906 C 601.585938 248.574219 614.527344 248.691406 616.582031 247.867188 C 619.910156 246.476562 626.816406 237.890625 632.195312 237.027344 C 639.632812 235.859375 645.128906 232.996094 647.445312 227.75 C 649.074219 223.980469 649.050781 222.417969 648.339844 220.566406 C 646.261719 214.507812 644.625 208.304688 643.445312 202.007812 C 643.445312 202.007812 651.867188 196.679688 651.738281 193.304688 C 651.667969 191.355469 650.609375 191.175781 647.777344 190.609375 C 645.335938 190.097656 639.542969 190.144531 636.90625 190.144531 C 636.015625 187.339844 633.726562 185.203125 630.871094 184.511719 C 627.199219 183.6875 611.378906 182.222656 597.40625 185.3125 C 595.570312 185.714844 592.027344 190.421875 590.933594 191.265625 C 589.246094 192.539062 587.265625 193.363281 585.171875 193.664062 C 583.621094 193.90625 577.210938 194.390625 575.308594 194.605469 C 570.070312 195.21875 563.351562 197.300781 556.8125 199.753906 C 556.746094 204.054688 558.300781 208.222656 561.171875 211.425781 C 561.171875 211.425781 560.949219 219.023438 561.503906 222.382812 C 561.503906 222.984375 562.492188 223.164062 562.867188 223.101562 C 565.015625 222.726562 567.210938 222.652344 569.378906 222.882812 C 575.191406 223.585938 594.492188 223.496094 594.492188 223.496094 L 594.492188 242.496094 L 570.140625 242.476562 Z M 695.589844 474.484375 C 688.101562 481.847656 682.515625 490.441406 690.710938 499.332031 C 701.25 510.753906 708.648438 517.707031 693.511719 528.328125 C 666.019531 547.671875 658.210938 562.640625 652.667969 574.339844 C 654.097656 574.933594 655.570312 575.402344 657.078125 575.742188 C 660.105469 576.433594 663.183594 576.886719 666.28125 577.097656 C 667.753906 577.222656 668.660156 573.164062 672.199219 566.0625 C 677.582031 555.347656 687.449219 540.847656 711 523.703125 C 719.726562 517.355469 719.394531 516.269531 714.917969 510.636719 C 712.480469 507.578125 709.214844 504.101562 705.492188 499.800781 C 698.058594 491.222656 695.394531 482.53125 695.589844 474.484375 Z M 601.617188 367.507812 C 604.082031 371.511719 607.242188 375.046875 610.945312 377.941406 C 621.304688 385.835938 643.796875 407.738281 643.933594 430.753906 C 656.164062 431.9375 661.035156 435.496094 661.035156 435.496094 C 665.304688 438.519531 661.160156 444.296875 656.496094 441.914062 C 647.761719 437.425781 634.074219 438.789062 630.011719 439.160156 C 611.179688 440.863281 608.433594 453.527344 608.433594 462.765625 C 608.433594 473.355469 615.941406 481.050781 626.371094 487.820312 C 631.664062 491.261719 636.945312 494.019531 640.910156 496.398438 C 643.058594 497.632812 645.089844 499.058594 646.980469 500.664062 C 648.433594 501.964844 651.464844 504.980469 651.464844 509.535156 C 651.464844 524.65625 613.023438 547.5 604.628906 547.5 C 595.609375 547.5 591.410156 552.675781 590.003906 554.480469 C 587.742188 557.378906 585.851562 563.601562 586.640625 568.773438 C 587.140625 572.042969 588.695312 574.855469 592.972656 575.304688 C 592.910156 568.953125 594.863281 562.746094 598.550781 557.578125 C 601.714844 553.410156 607.96875 558.167969 604.828125 562.335938 C 602.363281 565.585938 600.34375 570.902344 601.089844 578.265625 C 606.039062 581.15625 611.851562 581.410156 619.027344 578.902344 C 618.21875 572.769531 621 564.984375 624.363281 560.117188 C 627.339844 555.808594 633.796875 560.28125 630.820312 564.609375 C 628.351562 568.199219 626.640625 572.941406 626.792969 577.117188 C 633.152344 582.351562 642.136719 579.148438 643.179688 577.117188 C 644.757812 574 646.246094 570.617188 648.09375 566.925781 C 650.332031 562.398438 652.910156 558.050781 655.808594 553.914062 C 662.507812 544.40625 672.550781 533.773438 689.574219 521.863281 C 693.644531 519.007812 696.820312 517.167969 692.15625 512.058594 C 690.175781 509.894531 688.011719 507.335938 685.519531 504.625 C 675.152344 493.382812 679.734375 481.816406 685.789062 474.191406 C 688.730469 470.644531 691.980469 467.363281 695.492188 464.382812 C 698.453125 461.769531 701.359375 459.382812 703.484375 457.253906 C 717.886719 442.839844 715.476562 421.335938 697.503906 400.617188 C 686.964844 388.449219 673.457031 360.65625 672.945312 339.554688 C 665.296875 332.882812 665.84375 316.691406 661.511719 316.691406 C 655.421875 316.691406 661.261719 328 661.921875 333.953125 C 664.265625 354.800781 643.089844 356.355469 636.910156 349.164062 C 633.320312 344.933594 642.890625 350.125 638.578125 330.1875 C 637.894531 327.011719 636.300781 320.535156 634.910156 320.535156 C 626.40625 320.535156 631.230469 331.3125 630.425781 339.679688 C 629.527344 348.582031 625.117188 353.347656 619.824219 355.332031 C 617.007812 361.90625 611.574219 366.988281 601.617188 367.511719 Z M 609.597656 356.085938 C 603.023438 354.9375 597.660156 350.824219 598.558594 346.269531 C 598.972656 344.195312 606.363281 348.433594 607.859375 329.828125 C 608.363281 323.613281 607.3125 318.683594 607.023438 318.628906 C 596.933594 316.988281 600.640625 330.65625 591.644531 333.949219 C 578.890625 338.628906 571.015625 326.28125 571.113281 317.453125 C 578.433594 317.859375 579.402344 312.425781 577.0625 307.898438 C 576.328125 306.152344 575.828125 304.316406 575.5625 302.441406 C 573.546875 303.890625 571.058594 304.53125 568.59375 304.234375 C 558.109375 302.710938 556.746094 274.089844 563.507812 279.675781 C 567.660156 283.105469 572.054688 281.203125 574.835938 277.878906 C 562.226562 273.039062 549.015625 265.03125 542.753906 262.265625 C 514.953125 249.988281 503.203125 250.058594 498.898438 251.730469 C 497.4375 252.296875 496.109375 253.964844 496.71875 257.515625 C 500.144531 255.976562 505.390625 256.273438 505.390625 256.273438 C 510.359375 256.632812 509.820312 264.097656 504.855469 263.738281 C 492.898438 263.816406 490.207031 271.730469 490.664062 276.210938 C 490.898438 278.535156 491.25 280.546875 494.980469 280.1875 C 498.414062 273.253906 503.605469 271.136719 503.605469 271.136719 C 508.09375 268.980469 511.328125 275.734375 506.835938 277.890625 C 504.691406 279.019531 501.1875 282 501.714844 285.972656 C 501.835938 287.945312 503.410156 289.515625 505.382812 289.625 C 508.886719 290.144531 512.460938 289.371094 515.4375 287.445312 L 518.871094 285.074219 C 518.871094 285.074219 531.96875 291.054688 540.398438 290.011719 L 542.753906 292.472656 C 547.375 297.292969 551.894531 304.453125 556.207031 311.636719 C 560.523438 318.820312 565.175781 326.902344 570.164062 334.515625 C 580.640625 350.347656 590.28125 359.660156 599.867188 359.660156 C 604.273438 359.695312 607.402344 358.324219 609.601562 356.085938 Z M 762.179688 284.972656 C 763.527344 281.445312 764.53125 277.71875 765.976562 274.441406 C 767.480469 270.683594 769.957031 267.394531 773.148438 264.914062 C 766.65625 260 748.117188 252.96875 736.378906 264.015625 C 731.175781 268.925781 729.957031 274.601562 729.957031 280.277344 C 729.957031 288.277344 734.441406 290.074219 738.835938 292.398438 C 734.296875 312.261719 732.648438 335.503906 745.8125 355.429688 C 751.195312 363.609375 757.859375 373.777344 762.136719 384.53125 C 766.414062 395.289062 768.730469 407.65625 764.289062 419.824219 C 758.308594 436.175781 741.722656 446.671875 719.085938 444.285156 C 718.339844 447.476562 717.171875 450.550781 715.605469 453.425781 C 726.511719 454.8125 736.53125 453.363281 741.070312 451.929688 C 771.742188 442.183594 780.78125 408.589844 767.761719 380.457031 C 765.1875 375.105469 762.296875 369.910156 759.105469 364.90625 C 755.914062 359.75 752.828125 355.171875 750.898438 351.9375 C 744.878906 342.003906 740.78125 330.769531 741.390625 314.417969 C 741.769531 307.304688 743.050781 300.265625 745.203125 293.476562 C 757.804688 293.96875 759.554688 291.832031 762.183594 284.972656 Z M 404.394531 723.019531 C 433.03125 723.15625 461.597656 720.1875 489.597656 714.164062 C 513.757812 708.929688 534.089844 702.160156 552.789062 696.097656 C 589.5625 684.160156 622.746094 673.851562 666.15625 684.117188 C 673.914062 686.039062 673.941406 686.011719 675.203125 680.265625 L 692.746094 601.1875 C 693.769531 596.5 693.769531 596.464844 687.949219 595.152344 C 636.503906 584.097656 594.082031 591.667969 550.894531 602.695312 C 528.121094 608.507812 505.527344 615.152344 481.832031 620.351562 C 457.527344 625.683594 432.128906 629.511719 404.359375 629.511719 C 376.59375 629.511719 351.195312 625.683594 326.890625 620.351562 C 303.21875 615.152344 280.628906 608.503906 257.828125 602.695312 C 214.636719 591.667969 172.214844 584.097656 120.773438 595.152344 C 114.953125 596.464844 114.953125 596.5 115.972656 601.1875 L 133.527344 680.300781 C 134.789062 686.046875 134.816406 686.074219 142.574219 684.152344 C 186.019531 673.886719 219.132812 684.152344 255.941406 696.132812 C 274.703125 702.15625 295.035156 708.945312 319.1875 714.164062 C 347.183594 720.1875 375.753906 723.15625 404.390625 723.015625 Z M 314.472656 605.886719 C 260.050781 575.160156 225.023438 518.78125 221.558594 456.316406 C 218.089844 393.855469 246.664062 333.9375 297.351562 297.367188 C 294.324219 296.839844 291.441406 295.671875 288.894531 293.945312 C 283.738281 295.964844 277.164062 298.011719 271.675781 297.941406 C 257.628906 312.597656 241.316406 356.929688 217.457031 365.910156 C 214.210938 373.082031 209.289062 379.367188 203.109375 384.238281 C 192.714844 392.160156 173.207031 412.074219 173.207031 431.015625 C 205.074219 431.015625 208.714844 451.496094 208.714844 462.8125 C 208.714844 492.625 165.734375 501.792969 165.734375 509.589844 C 165.734375 518.191406 198.113281 539.6875 204.714844 539.6875 C 217.386719 539.6875 223.609375 547.222656 225.53125 549.683594 C 232.121094 558.125 234.679688 578.929688 219.566406 582.746094 C 251.835938 588.277344 282.417969 598.003906 314.472656 605.878906 Z M 587.507812 446.128906 C 587.539062 512.324219 551.910156 573.390625 494.304688 605.886719 C 526.40625 598.007812 556.953125 588.285156 589.230469 582.789062 C 574.121094 578.972656 576.675781 558.164062 583.265625 549.722656 C 585.1875 547.265625 591.410156 539.730469 604.085938 539.730469 C 610.683594 539.730469 643.0625 518.230469 643.0625 509.628906 C 643.0625 501.835938 600.085938 492.667969 600.085938 462.855469 C 600.085938 451.539062 603.726562 431.054688 635.589844 431.054688 C 635.589844 412.109375 616.085938 392.199219 605.6875 384.28125 C 599.507812 379.410156 594.585938 373.125 591.339844 365.953125 C 567.484375 356.972656 551.167969 312.601562 537.125 297.949219 C 531.632812 298.019531 525.058594 295.972656 519.902344 293.953125 C 517.359375 295.679688 514.476562 296.84375 511.445312 297.371094 C 559.242188 331.808594 587.554688 387.175781 587.511719 446.132812 Z M 238.242188 446.128906 C 238.242188 505.5625 269.910156 560.476562 321.316406 590.1875 C 372.722656 619.902344 436.058594 619.902344 487.464844 590.1875 C 538.871094 560.472656 570.539062 505.554688 570.539062 446.128906 C 570.539062 354.238281 496.152344 279.773438 404.390625 279.773438 C 312.628906 279.773438 238.242188 354.234375 238.242188 446.128906 Z M 519.042969 229.757812 L 514.40625 244.3125 C 522.378906 245.929688 532.675781 249.296875 545.902344 255.089844 C 547.5 255.789062 549.125 256.570312 550.792969 257.40625 C 548.773438 248.355469 544.792969 240.011719 536.441406 232.730469 C 529.734375 236.132812 525.023438 233.960938 519.042969 229.757812 Z M 294.382812 244.3125 L 289.746094 229.757812 C 283.761719 233.960938 279.054688 236.132812 272.363281 232.730469 C 263.996094 240.011719 260.011719 248.355469 258.015625 257.40625 C 259.683594 256.570312 261.304688 255.789062 262.902344 255.089844 C 276.140625 249.296875 286.410156 245.929688 294.382812 244.3125 Z M 505.476562 188.324219 C 440.484375 162.894531 368.308594 162.894531 303.320312 188.324219 C 299.460938 195.5625 294.136719 196.101562 294.136719 200.996094 C 304.71875 204.8125 310.808594 214.726562 299.328125 222.878906 L 305.785156 243.164062 C 320.027344 243.632812 321.113281 253.359375 319.390625 261.167969 C 324.40625 264.203125 327.464844 273.921875 325.148438 280.800781 C 375.257812 256.789062 433.535156 256.789062 483.644531 280.800781 C 481.367188 273.914062 484.390625 264.195312 489.402344 261.160156 C 487.679688 253.347656 488.765625 243.625 503.007812 243.15625 L 509.464844 222.871094 C 497.984375 214.71875 504.082031 204.804688 514.65625 200.988281 C 514.65625 196.101562 509.332031 195.5625 505.472656 188.324219 Z M 302.78125 176.496094 C 368.28125 151.867188 440.472656 151.867188 505.976562 176.496094 C 509.621094 172.609375 516.785156 171.46875 521.59375 173.640625 C 522.347656 167.277344 539.851562 168.371094 543.269531 173.472656 C 544.882812 170.832031 557.332031 169.511719 565.691406 189.753906 C 568.585938 188.941406 571.535156 188.339844 574.515625 187.957031 C 576.3125 187.75 582.589844 187.28125 584.078125 187.058594 C 588.273438 186.402344 589.960938 181.023438 594.902344 179.085938 C 597.035156 178.5 599.214844 178.09375 601.414062 177.871094 C 600.742188 175.410156 599.765625 171.226562 600.265625 169.492188 C 601.773438 164.339844 610.355469 164.105469 614.292969 162.714844 C 618.902344 161.167969 624.3125 159.550781 621.441406 154.882812 C 616.105469 146.179688 640.035156 152.496094 642.382812 156.390625 C 643.71875 158.601562 641.316406 162.9375 641.316406 162.9375 C 643.410156 162.765625 645.519531 162.839844 647.59375 163.164062 C 655.441406 164.445312 661.550781 166.960938 658.359375 156.875 C 656.292969 150.292969 683.46875 159.183594 679.210938 170.984375 C 677.988281 174.34375 674.078125 176.957031 674.078125 176.957031 C 676.097656 178.476562 677.738281 180.445312 678.878906 182.703125 C 680.789062 186.292969 688.230469 182.128906 688.230469 177.214844 C 688.230469 167.175781 700.707031 180.953125 701.605469 190.613281 C 701.929688 193.992188 701.328125 199.59375 698.132812 202.074219 C 696.582031 203.265625 692.394531 203.734375 692.394531 203.734375 C 692.394531 203.734375 694.242188 206.914062 694.015625 212.714844 C 693.828125 217.777344 702.742188 216.351562 705.328125 210.828125 C 707.46875 206.25 715.265625 221.605469 712.332031 231.699219 C 711.433594 234.929688 707.300781 239.304688 704.582031 239.90625 C 701.667969 240.5625 697.632812 239.007812 697.765625 240.148438 C 698.03125 242.316406 698.03125 244.507812 697.765625 246.675781 C 697.238281 253.859375 704.386719 254.855469 709.855469 249.59375 C 714.027344 245.589844 716.671875 274.144531 705.230469 276.078125 C 698.457031 277.21875 697.523438 273.742188 697.253906 275.042969 C 696.957031 276.742188 696.410156 278.386719 695.621094 279.917969 C 692.035156 287.5625 701.632812 287.105469 706.511719 284.410156 C 710.886719 282.03125 709.128906 308.84375 694.71875 307.605469 C 691.972656 307.371094 690.015625 304.398438 687.710938 304.398438 C 685.40625 304.398438 685.253906 328.195312 694.449219 328.195312 C 707.902344 328.195312 693.074219 343.300781 680.410156 342.507812 C 681.972656 359.875 692.4375 383.503906 702.832031 395.492188 C 714.285156 408.710938 720.769531 423.488281 720.070312 437.238281 C 739.902344 439.277344 752.996094 430.054688 757.613281 417.375 C 764.789062 397.683594 750.796875 375.84375 739.890625 359.347656 C 725.113281 337.003906 727.695312 311.835938 730.921875 296.488281 C 725.542969 292.84375 722.851562 286.789062 722.851562 280.324219 C 722.851562 273.527344 724.347656 265.597656 731.515625 258.878906 C 749.453125 242.070312 776.71875 256.417969 781.078125 262.964844 C 782.511719 265.113281 781.882812 268.148438 778.746094 269.816406 C 766.503906 276.355469 773.839844 300.347656 750.609375 300.347656 C 749.324219 305.035156 748.597656 309.859375 748.4375 314.71875 C 747.882812 329.5 751.523438 339.375 756.921875 348.273438 C 760.816406 354.703125 769.058594 366.503906 774.152344 377.496094 C 788.414062 408.289062 779.113281 447.316406 743.164062 458.730469 C 737.21875 460.613281 724.472656 462.320312 711.101562 459.96875 C 710.277344 460.957031 709.378906 461.925781 708.410156 462.878906 C 707.273438 464.019531 705.917969 465.238281 704.445312 466.523438 C 701.757812 474.875 702.25 484.726562 711.054688 494.925781 C 726.167969 512.410156 733.261719 516.871094 715.273438 529.8125 C 680.527344 554.796875 677.953125 573.636719 673.207031 581.097656 C 680.558594 582.164062 688.078125 583.601562 695.773438 585.417969 C 699.476562 586.316406 707.039062 588.363281 704.554688 599.523438 L 685.011719 687.527344 C 682.097656 700.539062 672.453125 697.40625 667.78125 696.128906 C 583.332031 673.707031 542.566406 734.242188 404.394531 734.242188 C 266.222656 734.242188 225.464844 673.707031 140.957031 696.101562 C 136.320312 697.332031 126.609375 700.511719 123.726562 687.5 L 104.183594 599.496094 C 101.699219 588.335938 109.261719 586.269531 112.964844 585.390625 C 120.679688 583.59375 128.199219 582.152344 135.53125 581.070312 C 130.785156 573.609375 128.210938 554.769531 93.464844 529.785156 C 75.476562 516.847656 82.570312 512.382812 97.683594 494.898438 C 106.488281 484.699219 107 474.847656 104.292969 466.496094 C 102.820312 465.210938 101.46875 463.992188 100.328125 462.851562 C 99.378906 461.898438 98.480469 460.929688 97.636719 459.941406 C 84.265625 462.320312 71.519531 460.585938 65.574219 458.703125 C 29.652344 447.289062 20.351562 408.261719 34.613281 377.46875 C 39.707031 366.476562 47.949219 354.679688 51.84375 348.25 C 57.222656 339.347656 60.882812 329.472656 60.328125 314.691406 C 60.179688 309.847656 59.46875 305.035156 58.199219 300.359375 C 34.972656 300.359375 42.308594 276.328125 30.066406 269.824219 C 26.925781 268.15625 26.300781 265.121094 27.734375 262.972656 C 32.046875 256.355469 59.359375 241.988281 77.25 258.835938 C 84.425781 265.550781 85.914062 273.480469 85.914062 280.277344 C 85.914062 286.78125 83.222656 292.851562 77.84375 296.441406 C 81.078125 311.808594 83.664062 336.976562 68.875 359.300781 C 57.96875 375.796875 43.957031 397.636719 51.148438 417.328125 C 55.769531 430.027344 68.863281 439.285156 88.691406 437.246094 C 88.039062 423.5 94.476562 408.71875 105.929688 395.5 C 116.351562 383.464844 126.820312 359.839844 128.351562 342.519531 C 115.691406 343.308594 100.898438 328.203125 114.316406 328.203125 C 123.511719 328.203125 123.285156 304.558594 120.988281 304.558594 C 118.695312 304.558594 116.730469 307.53125 113.984375 307.765625 C 99.570312 309.003906 97.839844 282.191406 102.191406 284.570312 C 107.070312 287.21875 116.683594 287.6875 113.078125 280.082031 C 112.292969 278.546875 111.742188 276.902344 111.445312 275.207031 C 111.179688 273.902344 110.246094 277.378906 103.472656 276.238281 C 92.03125 274.308594 94.675781 245.707031 98.847656 249.757812 C 104.316406 255.019531 111.464844 254.019531 110.9375 246.835938 C 110.671875 244.667969 110.671875 242.476562 110.9375 240.308594 C 111.070312 239.175781 107.035156 240.722656 104.121094 240.066406 C 101.429688 239.464844 97.3125 235.089844 96.371094 231.859375 C 93.4375 221.738281 101.230469 206.410156 103.375 210.988281 C 105.957031 216.511719 114.882812 217.941406 114.683594 212.875 C 114.460938 207.03125 116.316406 203.894531 116.316406 203.894531 C 116.316406 203.894531 112.121094 203.429688 110.566406 202.234375 C 107.375 199.773438 106.785156 194.152344 107.097656 190.777344 C 107.996094 181.113281 120.46875 167.339844 120.46875 177.378906 C 120.46875 182.289062 127.921875 186.457031 129.824219 182.863281 C 130.964844 180.605469 132.605469 178.640625 134.621094 177.117188 C 134.621094 177.117188 130.710938 174.503906 129.492188 171.144531 C 125.214844 159.347656 152.40625 150.492188 150.34375 157.039062 C 147.171875 167.121094 153.277344 164.609375 161.105469 163.324219 C 163.183594 163.003906 165.292969 162.929688 167.386719 163.101562 C 167.386719 163.101562 164.980469 158.761719 166.316406 156.554688 C 168.667969 152.65625 192.597656 146.34375 187.261719 155.042969 C 184.425781 159.679688 189.832031 161.25 194.382812 162.8125 C 198.320312 164.167969 206.9375 164.4375 208.410156 169.59375 C 208.910156 171.324219 207.933594 175.511719 207.261719 177.96875 C 209.460938 178.191406 211.640625 178.597656 213.773438 179.183594 C 218.714844 181.121094 220.398438 186.5 224.597656 187.15625 C 226.105469 187.390625 232.347656 187.855469 234.160156 188.054688 C 237.140625 188.4375 240.089844 189.039062 242.984375 189.851562 C 251.386719 169.609375 263.835938 170.929688 265.449219 173.570312 C 268.867188 168.46875 286.375 167.375 287.128906 173.742188 C 291.988281 171.46875 299.15625 172.609375 302.796875 176.496094 L 302.777344 176.496094 Z M 453.21875 226.164062 L 466.089844 229.613281 L 469.398438 217.257812 C 470.179688 214.332031 471.105469 211.367188 472.089844 208.277344 L 471.8125 208.179688 C 469.300781 210.960938 467.175781 213.414062 464.710938 215.945312 L 453.292969 226.03125 Z M 471.074219 252.765625 L 460.664062 249.972656 L 463.929688 237.757812 L 440.609375 231.472656 L 442.492188 224.433594 L 470.769531 199.371094 L 484.394531 203.023438 L 476.527344 232.40625 L 482.886719 234.113281 L 480.714844 242.195312 L 474.359375 240.488281 Z M 415.039062 235.128906 C 420.609375 235.421875 423.953125 229.210938 424.582031 217.230469 C 425.191406 205.492188 422.617188 199 417.019531 198.703125 C 411.890625 198.433594 408.132812 204.476562 407.523438 216.332031 C 406.789062 228.445312 409.871094 234.804688 415.039062 235.109375 Z M 414.574219 243.503906 C 401.449219 242.824219 395.566406 231.222656 396.277344 215.964844 C 397.082031 200.546875 404.511719 189.601562 417.730469 190.289062 C 431.265625 191 436.753906 202.800781 435.980469 217.652344 C 435.15625 233.320312 428.152344 244.207031 414.574219 243.488281 L 414.574219 243.507812 Z M 367.039062 201.226562 C 362.285156 201.890625 359.46875 206.398438 360.246094 211.859375 C 360.902344 216.511719 364.320312 220.011719 369.691406 219.257812 C 373.546875 218.710938 375.96875 216.617188 377.054688 214.265625 C 377.363281 213.449219 377.445312 212.566406 377.289062 211.707031 C 376.507812 205.878906 373.359375 200.320312 367.019531 201.210938 Z M 358.75 247.601562 L 357.53125 238.90625 C 359.34375 238.824219 361.144531 238.570312 362.910156 238.144531 C 366.800781 237.464844 370.421875 235.710938 373.371094 233.078125 C 376.503906 230.222656 378.410156 226.257812 378.6875 222.023438 L 378.492188 222.023438 C 376.335938 225.078125 372.859375 227.070312 367.851562 227.78125 C 358.707031 229.066406 350.535156 223.867188 349.171875 214.132812 C 347.753906 204.046875 354.875 194.554688 366.210938 192.957031 C 379.398438 191.097656 387.308594 200.140625 389.011719 212.238281 C 390.5 222.878906 388.113281 231.09375 383.234375 236.921875 C 378.886719 242.042969 372.382812 245.410156 364.464844 246.800781 C 362.578125 247.210938 360.660156 247.472656 358.734375 247.582031 Z M 340.417969 252.601562 L 328.300781 212.953125 L 328.148438 212.953125 L 320.15625 220.328125 L 315.871094 212.800781 L 326.902344 202.84375 L 335.789062 200.148438 L 350.820312 249.375 Z M 202.222656 194.835938 C 201.835938 194.835938 199.53125 196.828125 198.570312 199.242188 C 200.007812 198.910156 203.515625 197.824219 206.644531 196.78125 C 205.429688 195.65625 203.871094 194.972656 202.222656 194.835938 Z M 213.820312 198.625 C 213.820312 198.625 197.917969 204.910156 195.09375 202.304688 C 191.703125 199.207031 198.839844 190.800781 201.773438 190.800781 C 208.976562 190.800781 213.820312 198.625 213.820312 198.625 Z M 594.992188 198.625 C 594.992188 198.625 599.835938 190.800781 607.035156 190.800781 C 609.96875 190.800781 617.109375 199.242188 613.71875 202.339844 C 610.894531 204.882812 594.992188 198.625 594.992188 198.625 Z M 606.589844 194.835938 C 604.917969 194.957031 603.335938 195.644531 602.105469 196.78125 C 605.261719 197.824219 608.765625 198.910156 610.175781 199.242188 C 609.261719 196.828125 606.972656 194.835938 606.589844 194.835938 Z M 602.515625 665.949219 L 602.515625 635.847656 C 602.515625 630.460938 602.363281 625.972656 602.15625 622.117188 L 613.324219 622.117188 L 613.925781 628.65625 L 614.21875 628.65625 C 617.363281 623.804688 622.796875 620.933594 628.570312 621.078125 C 637.027344 621.078125 645.027344 626.464844 645.027344 640.445312 L 645.027344 665.949219 L 632.210938 665.949219 L 632.210938 642.089844 C 632.210938 635.804688 629.816406 631.414062 624.078125 631.414062 C 620.347656 631.457031 617.050781 633.855469 615.851562 637.394531 C 615.503906 638.460938 615.34375 639.582031 615.378906 640.707031 L 615.378906 665.949219 Z M 164.203125 666.613281 L 162.09375 606.152344 L 174.929688 605.703125 L 176.660156 655.414062 L 202.777344 654.519531 L 203.144531 665.292969 Z M 251.53125 657.375 L 222.078125 650.476562 C 221.035156 656.761719 226.328125 661.253906 233.136719 662.78125 C 237.375 663.835938 241.761719 664.140625 246.105469 663.675781 L 245.917969 672.53125 C 240.363281 673.339844 234.703125 673.054688 229.261719 671.6875 C 214.507812 668.273438 207.871094 657.660156 210.917969 644.46875 C 213.378906 633.800781 223.082031 623.160156 238.347656 626.6875 C 253.144531 630.109375 255.324219 642.96875 253.117188 652.550781 C 252.753906 654.207031 252.222656 655.824219 251.53125 657.375 Z M 223.980469 641.855469 L 242.285156 646.085938 C 243.011719 643.066406 242.9375 636.476562 235.738281 634.816406 C 229.234375 633.324219 225.316406 638.210938 223.980469 641.855469 Z M 265.171875 635.003906 L 278.277344 639.800781 L 277.523438 662.25 C 277.398438 666.238281 277.066406 669.730469 276.625 673.160156 L 276.894531 673.269531 C 278.824219 670.257812 280.789062 667.476562 283.171875 664.289062 L 296.777344 646.515625 L 309.585938 651.183594 L 278.195312 686.394531 L 266.078125 682.003906 Z M 349.371094 685.660156 L 319.703125 679.796875 C 318.878906 686.125 324.320312 690.375 331.171875 691.703125 C 335.445312 692.613281 339.84375 692.777344 344.167969 692.179688 L 344.292969 701.035156 C 338.769531 702.035156 333.101562 701.941406 327.613281 700.765625 C 312.75 697.871094 305.757812 687.5 308.332031 674.203125 C 310.417969 663.425781 319.746094 652.488281 335.128906 655.476562 C 350.035156 658.378906 352.664062 671.15625 350.789062 680.808594 C 350.480469 682.46875 350.003906 684.09375 349.371094 685.660156 Z M 321.289062 671.121094 L 339.730469 674.714844 C 340.359375 671.679688 340.0625 665.097656 332.808594 663.6875 C 326.25 662.402344 322.503906 667.421875 321.292969 671.121094 Z M 361.9375 706.144531 L 364.566406 677.023438 C 365.140625 670.464844 365.410156 666.246094 365.460938 662.457031 L 376.457031 663.417969 L 376.152344 671.976562 L 376.476562 671.976562 C 379.335938 665.554688 385.121094 663.101562 389.777344 663.515625 C 390.738281 663.566406 391.691406 663.738281 392.609375 664.027344 L 391.570312 675.945312 C 390.347656 675.570312 389.085938 675.328125 387.8125 675.21875 C 382.25 674.734375 378.441406 677.535156 377.140625 682.03125 C 376.894531 682.988281 376.730469 683.960938 376.65625 684.941406 L 374.707031 707.238281 Z M 415.300781 643.203125 L 416.65625 682.113281 L 416.835938 682.113281 C 417.859375 680.40625 419.042969 678.519531 420.152344 676.914062 L 430.019531 662.941406 L 445.652344 662.394531 L 429.328125 680.695312 L 449.75 706.097656 L 433.769531 706.664062 L 420.738281 688.472656 L 417.023438 693.105469 L 417.515625 707.230469 L 404.691406 707.679688 L 402.457031 643.660156 Z M 495.625 652.652344 L 501.367188 682.175781 C 502.433594 687.707031 503.464844 692.171875 504.335938 695.644531 L 493.375 697.773438 L 491.519531 691.28125 L 491.230469 691.335938 C 490.066406 694.496094 486.746094 700.125 478.40625 701.753906 C 470.066406 703.378906 461.652344 699.867188 458.925781 685.839844 L 454.066406 660.777344 L 466.621094 658.324219 L 471.105469 681.207031 C 472.433594 688.039062 475.589844 691.757812 481.085938 690.6875 C 484.632812 689.972656 487.378906 687.160156 488.011719 683.59375 C 488.195312 682.582031 488.175781 681.546875 487.957031 680.542969 L 483.023438 655.066406 Z M 515.519531 688.292969 L 515.320312 678.773438 C 519.488281 679.734375 523.820312 679.707031 527.976562 678.691406 C 532.460938 677.398438 533.894531 675.226562 533.222656 672.863281 C 532.503906 670.367188 530.605469 669.640625 524.910156 669.53125 C 515.242188 669.425781 510.253906 665.753906 508.828125 660.554688 C 506.613281 652.8125 511.570312 644.980469 522.15625 641.9375 C 526.339844 640.664062 530.757812 640.355469 535.078125 641.039062 L 535.25 650.164062 C 531.816406 649.464844 528.269531 649.550781 524.875 650.414062 C 521.285156 651.429688 519.6875 653.484375 520.390625 655.875 C 521.089844 658.261719 523.394531 658.820312 529.359375 658.980469 C 538.328125 659.1875 543.042969 662.125 544.9375 668.519531 C 547.117188 676.132812 542.757812 683.785156 530.460938 687.3125 C 525.625 688.800781 520.507812 689.136719 515.519531 688.292969 Z M 592.300781 650.019531 L 562.59375 655.710938 C 564.199219 661.890625 570.835938 663.792969 577.691406 662.449219 C 581.992188 661.691406 586.128906 660.191406 589.914062 658.011719 L 593.339844 666.175781 C 588.589844 669.171875 583.304688 671.214844 577.78125 672.191406 C 562.917969 675.082031 552.542969 668.085938 549.976562 654.789062 C 547.886719 644.011719 552.425781 630.371094 567.816406 627.382812 C 582.710938 624.480469 589.933594 635.335938 591.808594 644.992188 C 592.144531 646.648438 592.308594 648.335938 592.300781 650.027344 Z M 560.828125 647.066406 L 579.269531 643.472656 C 578.703125 640.417969 575.96875 634.429688 568.710938 635.839844 C 562.164062 637.105469 560.570312 643.195312 560.828125 647.074219 Z M 393.371094 317.425781 L 414.664062 317.425781 C 417.015625 317.425781 418.921875 315.515625 418.921875 313.160156 C 418.921875 310.804688 417.015625 308.894531 414.664062 308.894531 L 393.371094 308.894531 Z M 393.371094 338.144531 L 415.289062 338.144531 C 417.980469 338.144531 420.160156 335.960938 420.160156 333.265625 C 420.160156 330.574219 417.980469 328.390625 415.289062 328.390625 L 393.371094 328.390625 Z M 427.605469 322.445312 C 432.125 326.847656 433.53125 333.550781 431.171875 339.402344 C 428.808594 345.253906 423.144531 349.09375 416.84375 349.117188 L 381.191406 349.117188 L 381.191406 297.933594 L 416.214844 297.933594 C 422.003906 297.941406 427.265625 301.304688 429.707031 306.5625 C 432.148438 311.820312 431.328125 318.015625 427.605469 322.457031 Z M 435.792969 410.089844 L 422.726562 410.089844 L 418.617188 401.558594 L 390.050781 401.558594 L 385.933594 410.089844 L 372.824219 410.089844 L 398.382812 358.90625 L 410.230469 358.90625 Z M 404.3125 372.007812 L 395.34375 390.605469 L 413.28125 390.605469 Z M 421.675781 421.0625 L 436.324219 421.0625 L 410.402344 454.386719 L 410.402344 472.25 L 398.222656 472.25 L 398.222656 454.386719 L 372.304688 421.0625 L 386.949219 421.0625 L 404.3125 444.410156 L 421.679688 421.0625 Z M 489.839844 421.0625 L 489.839844 432.035156 L 455.757812 432.035156 L 455.757812 440.566406 L 488.621094 440.566406 L 488.621094 451.53125 L 455.742188 451.53125 L 455.742188 461.285156 L 489.820312 461.285156 L 489.820312 472.25 L 443.570312 472.25 L 443.570312 421.0625 Z M 528.171875 452.753906 L 519.03125 452.753906 L 519.03125 472.25 L 506.863281 472.25 L 506.863281 421.066406 L 537.957031 421.066406 C 545.820312 421.09375 552.472656 426.890625 553.582031 434.6875 C 554.691406 442.480469 549.921875 449.910156 542.378906 452.132812 L 557.375 472.25 L 542.773438 472.25 Z M 536.71875 432.039062 L 519.035156 432.039062 L 519.035156 441.789062 L 536.710938 441.789062 C 539.402344 441.789062 541.582031 439.605469 541.582031 436.914062 C 541.582031 434.222656 539.402344 432.039062 536.710938 432.039062 Z M 377.96875 472.25 L 364.933594 472.25 L 360.816406 463.710938 L 332.207031 463.710938 L 328.089844 472.25 L 315.007812 472.25 L 340.566406 421.066406 L 352.378906 421.066406 Z M 346.496094 434.164062 L 337.527344 452.753906 L 355.464844 452.753906 Z M 269.300781 440.605469 L 290.59375 440.605469 C 292.871094 440.5 294.667969 438.617188 294.667969 436.335938 C 294.667969 434.050781 292.871094 432.167969 290.59375 432.066406 L 269.300781 432.066406 Z M 269.300781 461.320312 L 291.222656 461.320312 C 293.910156 461.320312 296.089844 459.136719 296.089844 456.445312 C 296.089844 453.75 293.910156 451.570312 291.222656 451.570312 L 269.300781 451.570312 Z M 303.535156 445.613281 C 308.054688 450.023438 309.460938 456.734375 307.089844 462.589844 C 304.714844 468.449219 299.039062 472.285156 292.726562 472.292969 L 257.121094 472.292969 L 257.121094 421.109375 L 292.097656 421.109375 C 297.890625 421.117188 303.148438 424.484375 305.589844 429.738281 C 308.03125 434.996094 307.214844 441.195312 303.488281 445.632812 Z M 427.441406 483.214844 L 427.441406 494.1875 L 393.359375 494.1875 L 393.359375 502.71875 L 426.222656 502.71875 L 426.222656 513.683594 L 393.359375 513.683594 L 393.359375 523.445312 L 427.441406 523.445312 L 427.441406 534.40625 L 381.191406 534.40625 L 381.191406 483.222656 Z M 418.894531 562.441406 C 418.898438 559.765625 416.746094 557.582031 414.070312 557.558594 L 393.359375 557.558594 L 393.359375 567.300781 L 414.070312 567.300781 C 416.734375 567.28125 418.890625 565.113281 418.894531 562.441406 Z M 381.226562 597.769531 L 381.226562 546.585938 L 415.371094 546.585938 C 422.902344 546.664062 429.335938 552.042969 430.761719 559.445312 C 432.1875 566.851562 428.214844 574.238281 421.253906 577.117188 L 436.609375 597.769531 L 421.960938 597.769531 L 407.351562 578.277344 L 393.359375 578.277344 L 393.359375 597.769531 Z M 381.226562 597.769531 " fill-opacity="1" fill-rule="nonzero"/></svg>