<svg xmlns="http://www.w3.org/2000/svg" width="1080" viewBox="0 0 810 810" height="1080" version="1.0"><path fill="#f9d438" d="M1.004 405.008c0-223.125 180.875-404.004 404-404.004 223.133 0 404.012 180.879 404.012 404.004 0 223.133-180.88 404.008-404.012 404.008-223.125 0-404-180.875-404-404.008" fill-rule="evenodd"/><path fill="#000105" d="M20.418 405.008c0-212.403 172.184-384.59 384.586-384.59 212.406 0 384.594 172.187 384.594 384.59 0 212.41-172.188 384.594-384.594 384.594-212.402 0-384.586-172.184-384.586-384.594" fill-rule="evenodd"/><path fill="#f9d438" d="M41.773 405.008c0-200.61 162.625-363.23 363.23-363.23 200.618 0 363.24 162.62 363.24 363.23 0 200.613-162.622 363.234-363.24 363.234-200.605 0-363.23-162.62-363.23-363.234" fill-rule="evenodd"/><path fill="#000105" d="M464.441 714.508c-26.82 0-46.347-20.301-46.347-43.485 0-3.386-.246-4.89-.086-7.32h25.305c7.332 0 6.152 9.93 6.152 9.93 0 7.644 8.265 11.11 14.496 11.27 7.574.214 13.75-6.758 13.75-14.403l-.113-14.82c-4.84 2.629-14.438 2.578-14.438 2.578-22.926-.625-45.316-20.406-45.316-44.86v-10.894c0-24.461 20.86-43.707 45.316-43.707h1.004c24.457 0 43.45 19.808 43.45 44.27v66.804c0 25.168-17.825 44.375-43.173 44.637" fill-rule="evenodd"/><path fill="#f9d438" d="M463.438 590.395h.433c7.645 0 13.84 6.19 13.84 13.835V613c0 7.645-6.195 13.84-13.84 13.84h-.433c-7.645 0-13.836-6.195-13.836-13.84v-8.77c0-7.644 6.191-13.835 13.836-13.835" fill-rule="evenodd"/><path fill="#000105" d="M131.633 250.96v301.595l95.012.097c76.648 0 115.57-93.007 62.27-150.336 0 0-.161-.164-.161-.449 0-.281.383-.574.383-.574 44.289-50.031 25.738-137.91-56.637-150.332Zm55.66 123.735V307.07h46.672c30.27 0 36.484 58.332 1.82 67.625Zm0 124.817v-70.856h41.305c34.172 0 46.375 62.07 1.953 70.856ZM523.828 250.96v301.595l95.016.097c76.648 0 115.57-93.007 62.265-150.336 0 0-.156-.164-.156-.449 0-.281.379-.574.379-.574 44.29-50.031 25.742-137.91-56.633-150.332Zm55.942 123.735V307.07h46.394c30.27 0 36.48 58.332 1.82 67.625Zm0 124.817v-70.856h41.023c34.176 0 46.383 62.07 1.957 70.856ZM345.477 559h1.007c24.454 0 44.278 19.828 44.278 44.29v66.874c0 24.457-19.825 44.29-44.278 44.29h-1.007c-24.457 0-44.286-19.833-44.286-44.29V603.29c0-24.46 19.829-44.289 44.286-44.289" fill-rule="evenodd"/><path fill="#f9d438" d="M345.754 590.766h.45c7.648 0 13.839 6.199 13.839 13.843V671c0 7.645-6.191 13.84-13.84 13.84h-.45c-7.64 0-13.835-6.195-13.835-13.84v-66.39c0-7.645 6.195-13.844 13.836-13.844" fill-rule="evenodd"/><path fill="#000105" d="m284.605 100.32 98.829 305.75h42.75l97.644-305.75h-59.805l-59.32 204.075-58.918-204.075h-61.18" fill-rule="evenodd"/></svg>