<svg xmlns="http://www.w3.org/2000/svg" width="1080" viewBox="0 0 810 810" height="1080" version="1.0"><path fill="#fffffe" d="M806.543 405.008c0 221.75-179.766 401.535-401.535 401.535-221.766 0-401.531-179.785-401.531-401.535 0-221.746 179.765-401.531 401.53-401.531 221.77 0 401.536 179.785 401.536 401.53" fill-rule="evenodd"/><path fill="#d8252c" d="M535.3 350.723c-4.019-1.883-7.487-4.172-10.09-6.54-24.07 44.528-50.769 55.282-65.269 55.282v-8.895c15.137-1.578 38.883-9.632 61.098-48.164-3.375-.504-7.144-1.66-10.957-3.437-7.059-3.29-12.41-7.86-14.422-11.867 4.36-1.036 11.305.113 18.367 3.398 4.075 1.902 7.602 4.238 10.223 6.652-.664-4.93.465-11.41 3.477-17.863 3.648-7.828 9.105-13.578 14.12-15.535 1.72 5.094.817 12.973-2.824 20.8-3 6.442-7.238 11.477-11.437 14.15 3.535.464 7.582 1.651 11.66 3.55 7.067 3.289 12.418 7.867 14.43 11.879-4.36 1.027-11.317-.125-18.375-3.41ZM405.005 486.852c-31.164-34.88-37.133-101.516-37.133-124.407h74.266c0 22.89-5.957 89.528-37.133 124.407ZM377.66 219c10.317-5.379 22.27-2.09 22.27-2.09l-18.785 15.192Zm-27.594 180.465c-14.492 0-41.191-10.754-65.257-55.281-2.614 2.367-6.082 4.656-10.102 6.539-7.059 3.285-14.016 4.437-18.367 3.41 2.008-4.012 7.363-8.59 14.433-11.88 4.067-1.898 8.125-3.085 11.649-3.55-4.2-2.672-8.426-7.707-11.43-14.148-3.648-7.828-4.55-15.707-2.832-20.801 5.02 1.957 10.473 7.707 14.121 15.535 3.012 6.453 4.153 12.934 3.477 17.863 2.633-2.414 6.148-4.75 10.234-6.652 7.059-3.285 14.004-4.434 18.356-3.398-2.004 4.007-7.352 8.578-14.414 11.867-3.82 1.777-7.59 2.933-10.954 3.437 22.204 38.531 45.957 46.586 61.086 48.164Zm209.805 22.625c22.188 8.816 55.043 21.965 100.215 21.965 25.133 0 40.363-12.188 40.363-20.285 0-1.11-.39-3.922-3.894-4.95-17.578-5.132-84.168-23.812-104.465-29.91-7.512-2.262-15.723-7.11-1.668-7.402 11.848-.258 48.969.512 66.738-8.219 20.418-10.035 22.235-22.652 22.235-27.187 0-1.063-.82-1.68-1.758-1.633-47.805 2.406-87.067 1.433-89.742 1.285-4.336-.238-6.247-1.809-1.825-5.762 4.91-4.32 34.633-29.12 41.598-35.894 9.672-9.387 12.121-17.95 12.121-25.325 0-10.125-3.066-15.675-4.855-18.062a1.678 1.678 0 0 0-2.508-.2c-29.93 29.06-66.2 48.641-68.258 49.684-3.86 1.95-5.473-.578-1.273-8.113 2.382-4.285 5.546-8.16 10.925-17.719 8.086-14.347 9.367-29.863 8.95-42.035-.399-11.3-4.247-23.726-17.11-29.418a2.857 2.857 0 0 0-3.383.836c-1.285 1.645-3.25 4.723-5.191 9.984-3.816 10.36-4.16 24.184-22.469 34.758-10.101 5.836-24.183 16-24.183 25.18 0 3.812 1.027 7.289 1.027 11.953 0 4-1.871 5.52-5.824 5.227-4.75-.344-7.782-1.664-11.895 2.382-11.754 11.555-27.137 30.872-43.027 30.872-6.613 0-10.031-8.532-11.656-19.04-.922-5.855-1.282-12.304-1.32-18.234-.067-11.039 1.175-20.246 1.175-20.246s5 1.32 10.281.273c11.368-2.27 14.368-11.574 14.368-17.996 0-1.949-.512-3.43-.79-3.875 0 0-5.414 5.508-12.445 5.508-7.375 0-9.73-8.824-9.73-14.508 0-13.882 9.28-20.656 13.988-23.734 6.98-4.578 7.465-9.035 7.465-13.371 0-5.461-.918-9.149-.918-9.149-3.004 5.72-5.922 11.297-17.258 11.297-12.742 0-29.637-1.851-35.668-9.261-1.047-1.286-2.824-2.188-7.582-2.188-22.965 0-51.52 3.582-78.18 18.758-3.554 2.023-3.328 4.723-2.898 5.918.922 2.547 2.746 7.422 2.746 7.422s15.809-10.985 26.566-10.985c5.274 0 6.84 2.985 9.633 17.094-4.949 1.778-15.59 2.422-27.476 2.422-21.817 0-22.36-7.516-22.36-12.34 0-.289-.074-.543-.636-.543-1.899 0-7.383 1.711-7.383 9.844 0 5.785 4.57 13.805 28.695 13.805 14.586 0 26.738-4.895 30.625-6.336 1.996 8.656 2.422 11.543-13.988 11.543-9.223 0-14.11-1.766-14.11-1.766s-1.074 3.324-1.074 5.691c0 1.997 1.047 2.88 4.184 4.352 4.199 1.977 11.894 4.871 25.12 4.871 5.923 0 8.43-1.605 10.208-1.605 3.57 0 6.183 11.07 6.183 14.492 0 2.707-3.421 2.84-12.085 2.84-7.31 0-7.157.914-7.211 1.36-.286 2.054 9.586 10.194 11.37 10.194 2.634 0 8.571-6.84 8.801-7.058 0 0 .743 4.219.743 12.293 0 17.39-7.926 32.258-18.797 32.258-15.895 0-31.27-19.317-43.031-30.872-4.106-4.046-7.145-2.726-11.887-2.382-3.965.293-5.824-1.227-5.824-5.227 0-4.664 1.015-8.14 1.015-11.953 0-9.18-14.07-19.344-24.172-25.18-18.312-10.574-18.66-24.398-22.48-34.758-1.942-5.261-3.899-8.34-5.188-9.984-.8-1.02-2.195-1.351-3.382-.836-12.856 5.692-16.715 18.117-17.114 29.418-.418 12.172.875 27.688 8.961 42.035 5.367 9.559 8.531 13.434 10.926 17.719 4.2 7.535 2.586 10.063-1.273 8.113-2.063-1.043-38.329-20.625-68.262-49.683a1.687 1.687 0 0 0-2.516.199c-1.777 2.387-4.855 7.937-4.855 18.062 0 7.375 2.46 15.938 12.125 25.325 6.972 6.773 36.695 31.574 41.605 35.894 4.41 3.953 2.508 5.524-1.832 5.762-2.672.148-41.941 1.121-89.742-1.285-.941-.047-1.75.683-1.762 1.633-.047 4.535 1.828 17.152 22.235 27.187 17.78 8.73 54.902 7.961 66.742 8.219 14.062.293 5.89 5.273-1.672 7.402-20.297 6.11-86.883 24.777-104.465 29.918-3.496 1.027-3.894 3.84-3.894 4.942 0 8.105 15.242 20.285 40.363 20.285 45.172 0 78.027-13.137 100.215-21.965h.008c10.425-4.305 12.117-.324 1.949 6.867-18.48 13.086-74.492 51.035-103.16 69.742-2.403 1.57-2.993 4.875-1.215 7.13 20.77 26.23 64.304-1.532 79.386-9.962 14.11-7.855 43.641-29.426 57.97-37.652 10.136-5.836 9.585-.25 5.093 7.723-3.555 6.3-10.426 16.316-25.418 32.953l9.273 7.582s-8.609 10.89-17.511 20.668c-3.621 3.933-13.492 15.96-18.68 15.96-5.121 0-10.812-9.246-16.344-11.925-3.836-1.86-9.89 2.73-9.89 2.73s-3.84-2.367-10.13-2.367c-3.534 0-6.84.426-10.519 3.496-4.902 4.094-3.543 12.93-3.543 12.93 1.207-5.223 4.75-7.145 8.41-7.145 10.23 0 13.293 7.098 18.965 10.645 5.121 3.21 11.051 4.656 11.051 4.656-4.914 4.379-16.809 6.164-21.644 10.64-1.836 1.692-1.504 5.692-1.504 5.692-6.965 2.469-9.946 4.703-9.946 9.492 0 7.032 4.246 13.207 4.246 13.207.598-4.582 1.453-11.183 10.336-13.113 0 0 1.711 1.5 3.766 1.5 4.418 0 18.11-9.156 20.465-12.18 0 0 1.14 2.184-.91 6.215-3.907 7.696-5.418 12.961-5.418 16.61 0 2.714.285 4.265.808 4.988.977 1.34 3.496 1.062 3.496 1.062 5.293 16.27 16.684 21.22 16.684 21.22-3.031-5.845-4.637-14.946-4.664-19.602 0-.97.105-2.09.105-2.09 1.727.238 3.657.082 4.809-.63 1.707-1.073 3.172-3.554 3.172-9.1 0-5.333-2.973-9.055-2.973-12.485 0-4.477 2.184-7.375 2.184-7.375 2.851 4.875 10.625 18.672 15.547 18.672 1.5 0 3.011-.598 4.89-1.617 0 0 4.989 3.375 10.852 15.507 0 0 2.281-4.324 2.281-10.5 0-6.109-5.121-9.765-6.414-11.078 0 0 2.215-3.468 2.215-5.758 0-6.68-20.02-12.59-20.02-22.293 0-3.39 5.094-10.195 10.64-16.882 12.22-14.739 17.103-20.02 17.103-20.02l8.773 7.172c13.547-20.04 28.625-44.246 45.36-44.246 6.886 0 10.679 4.3 10.679 10.945 0 12.008-19.262 34.567-27.887 44.047-12.515 13.75-31.593 27.473-31.593 47.625 0 9.899 4.066 23.715 4.066 23.715 3.754-13.512 5.082-18.414 6.7-18.414 1.956 0 2.66 8.8 13.292 27.414 2.727 4.777 4.094 6.594 4.094 6.594-.606-24.992-.34-36.184 1.855-36.184 1.121 0 2.278 3.488 5.407 9.047 4.464 7.934 8.71 13.793 8.71 13.793 0-42.016 18.747-62.957 30.208-62.957 7.867 0 9.937 8.82 9.937 17.61 0 24.277-19.555 38.585-19.555 62.726 0 22.465 15.641 32.562 15.641 32.562.02-1.539 3.07-22.84 6.441-28.914 1.36-2.43 2.805-3.656 4.344-3.656 2.29 0 3.656 2.195 9.813 13.246 4.05 7.27 9.629 14.84 12.78 17.985 3.157-3.145 8.743-10.715 12.782-17.985 6.156-11.05 7.535-13.246 9.813-13.246 1.543 0 2.984 1.227 4.343 3.656 3.375 6.074 6.422 27.375 6.442 28.914 0 0 15.64-10.097 15.64-32.562 0-24.14-19.554-38.45-19.554-62.727 0-8.789 2.07-17.61 9.937-17.61 11.461 0 30.207 20.942 30.207 62.958 0 0 4.258-5.86 8.723-13.793 3.117-5.559 4.285-9.047 5.406-9.047 2.195 0 2.453 11.192 1.852 36.184 0 0 1.37-1.817 4.097-6.594 10.622-18.613 11.325-27.414 13.293-27.414 1.606 0 2.934 4.902 6.7 18.414 0 0 4.066-13.816 4.066-23.715 0-20.152-19.09-33.875-31.594-47.625-8.629-9.48-27.898-32.039-27.898-44.047 0-6.644 3.8-10.945 10.691-10.945 16.723 0 31.809 24.207 45.36 44.246l8.77-7.172s4.874 5.281 17.105 20.02c5.539 6.687 10.64 13.492 10.64 16.882 0 9.704-20.031 15.614-20.031 22.293 0 2.29 2.227 5.758 2.227 5.758-1.305 1.313-6.426 4.969-6.426 11.078 0 6.176 2.289 10.5 2.289 10.5 5.863-12.132 10.851-15.507 10.851-15.507 1.883 1.02 3.395 1.617 4.887 1.617 4.922 0 12.692-13.797 15.543-18.672 0 0 2.195 2.898 2.195 7.375 0 3.43-2.984 7.152-2.984 12.484 0 5.547 1.473 8.028 3.184 9.102 1.148.71 3.078.867 4.808.629 0 0 .094 1.12.094 2.09-.027 4.656-1.625 13.757-4.656 19.601 0 0 11.383-4.95 16.687-21.219 0 0 2.516.278 3.485-1.062.523-.723.816-2.274.816-4.988 0-3.649-1.52-8.914-5.422-16.61-2.055-4.031-.914-6.215-.914-6.215 2.356 3.024 16.059 12.18 20.469 12.18 2.05 0 3.77-1.5 3.77-1.5 8.886 1.93 9.73 8.531 10.34 13.113 0 0 4.234-6.175 4.234-13.207 0-4.789-2.98-7.023-9.946-9.492 0 0 .332-4-1.492-5.691-4.848-4.477-16.742-6.262-21.652-10.64 0 0 5.937-1.446 11.047-4.657 5.683-3.547 8.734-10.645 18.964-10.645 3.66 0 7.215 1.922 8.418 7.145 0 0 1.36-8.836-3.543-12.93-3.675-3.07-6.984-3.496-10.527-3.496-6.281 0-10.129 2.367-10.129 2.367s-6.043-4.59-9.89-2.73c-5.52 2.68-11.211 11.926-16.332 11.926-5.2 0-15.063-12.028-18.692-15.961-8.902-9.778-17.512-20.668-17.512-20.668l9.286-7.582c-15.004-16.637-21.875-26.653-25.426-32.954-4.489-7.972-5.047-13.558 5.09-7.722 14.328 8.226 43.87 29.797 57.98 37.652 15.078 8.43 58.606 36.192 79.375 9.961 1.79-2.254 1.2-5.558-1.215-7.129-28.668-18.707-84.68-56.656-103.148-69.742-10.18-7.191-8.535-11.039 1.945-6.867Zm-172.676 18.855v-63.507h35.618v9.757h-21.215v15.68h18.195v9.734h-18.195v18.582h21.214v9.754Zm67.977-299.98s-5.738 8.578-11.102 16.797a37.961 37.961 0 0 0-6.199 20.789v3.527h-72.668v-3.527c0-7.39-2.156-14.61-6.2-20.79-5.366-8.218-11.105-16.796-11.105-16.796l32.137 14.5 21.5-19.024 21.504 19.024Zm-50.168 574.21c-171.012 0-310.145-139.152-310.145-310.179 0-171.02 139.133-310.137 310.145-310.137 171.02 0 310.172 139.118 310.172 310.137 0 171.027-139.153 310.18-310.172 310.18Zm0-683.16c-205.652 0-372.988 167.344-372.988 372.981 0 205.664 167.336 372.996 372.988 372.996 205.683 0 372.988-167.332 372.988-372.996 0-205.637-167.304-372.98-372.988-372.98Zm-.008 763.708c-215.422 0-390.719-175.258-390.719-390.72 0-215.448 175.297-390.726 390.72-390.726 215.429 0 390.714 175.278 390.714 390.727 0 215.46-175.285 390.719-390.715 390.719Zm0-794.72c-222.77 0-403.992 181.255-403.992 404 0 222.759 181.223 404.013 403.992 404.013 222.785 0 404.02-181.254 404.02-404.012 0-222.746-181.235-404-404.02-404Zm0 0" fill-rule="evenodd"/></svg>