<svg xmlns="http://www.w3.org/2000/svg" xmlns:xlink="http://www.w3.org/1999/xlink" width="1080" zoomAndPan="magnify" viewBox="0 0 810 809.999993" height="1080" preserveAspectRatio="xMidYMid meet" version="1.0"><path fill="#fffffe" d="M 806.542969 405.007812 C 806.542969 626.757812 626.777344 806.542969 405.007812 806.542969 C 183.242188 806.542969 3.476562 626.757812 3.476562 405.007812 C 3.476562 183.261719 183.242188 3.476562 405.007812 3.476562 C 626.777344 3.476562 806.542969 183.261719 806.542969 405.007812 " fill-opacity="1" fill-rule="evenodd"/><path fill="#d8252c" d="M 535.300781 350.722656 C 531.28125 348.839844 527.8125 346.550781 525.210938 344.183594 C 501.140625 388.710938 474.441406 399.464844 459.941406 399.464844 L 459.941406 390.570312 C 475.078125 388.992188 498.824219 380.9375 521.039062 342.40625 C 517.664062 341.902344 513.894531 340.746094 510.082031 338.96875 C 503.023438 335.679688 497.671875 331.109375 495.660156 327.101562 C 500.019531 326.066406 506.964844 327.214844 514.027344 330.5 C 518.101562 332.402344 521.628906 334.738281 524.25 337.152344 C 523.585938 332.222656 524.714844 325.742188 527.726562 319.289062 C 531.375 311.460938 536.832031 305.710938 541.847656 303.753906 C 543.566406 308.847656 542.664062 316.726562 539.023438 324.554688 C 536.023438 330.996094 531.785156 336.03125 527.585938 338.703125 C 531.121094 339.167969 535.167969 340.355469 539.246094 342.253906 C 546.3125 345.542969 551.664062 350.121094 553.675781 354.132812 C 549.316406 355.160156 542.359375 354.007812 535.300781 350.722656 Z M 405.003906 486.851562 C 373.839844 451.972656 367.871094 385.335938 367.871094 362.445312 L 442.136719 362.445312 C 442.136719 385.335938 436.179688 451.972656 405.003906 486.851562 Z M 377.660156 219 C 387.976562 213.621094 399.929688 216.910156 399.929688 216.910156 L 381.144531 232.101562 Z M 350.066406 399.464844 C 335.574219 399.464844 308.875 388.710938 284.808594 344.183594 C 282.195312 346.550781 278.726562 348.839844 274.707031 350.722656 C 267.648438 354.007812 260.691406 355.160156 256.339844 354.132812 C 258.347656 350.121094 263.703125 345.542969 270.773438 342.253906 C 274.839844 340.355469 278.898438 339.167969 282.421875 338.703125 C 278.222656 336.03125 273.996094 330.996094 270.992188 324.554688 C 267.34375 316.726562 266.441406 308.847656 268.160156 303.753906 C 273.179688 305.710938 278.632812 311.460938 282.28125 319.289062 C 285.292969 325.742188 286.433594 332.222656 285.757812 337.152344 C 288.390625 334.738281 291.90625 332.402344 295.992188 330.5 C 303.050781 327.214844 309.996094 326.066406 314.347656 327.101562 C 312.34375 331.109375 306.996094 335.679688 299.933594 338.96875 C 296.113281 340.746094 292.34375 341.902344 288.980469 342.40625 C 311.183594 380.9375 334.9375 388.992188 350.066406 390.570312 Z M 559.871094 422.089844 C 582.058594 430.90625 614.914062 444.054688 660.085938 444.054688 C 685.21875 444.054688 700.449219 431.867188 700.449219 423.769531 C 700.449219 422.660156 700.058594 419.847656 696.554688 418.820312 C 678.976562 413.6875 612.386719 395.007812 592.089844 388.910156 C 584.578125 386.648438 576.367188 381.800781 590.421875 381.507812 C 602.269531 381.25 639.390625 382.019531 657.160156 373.289062 C 677.578125 363.253906 679.394531 350.636719 679.394531 346.101562 C 679.394531 345.039062 678.574219 344.421875 677.636719 344.46875 C 629.832031 346.875 590.570312 345.902344 587.894531 345.753906 C 583.558594 345.515625 581.648438 343.945312 586.070312 339.992188 C 590.980469 335.671875 620.703125 310.871094 627.667969 304.097656 C 637.339844 294.710938 639.789062 286.148438 639.789062 278.773438 C 639.789062 268.648438 636.722656 263.097656 634.933594 260.710938 C 634.328125 259.90625 633.160156 259.808594 632.425781 260.511719 C 602.496094 289.570312 566.226562 309.152344 564.167969 310.195312 C 560.308594 312.144531 558.695312 309.617188 562.894531 302.082031 C 565.277344 297.796875 568.441406 293.921875 573.820312 284.363281 C 581.90625 270.015625 583.1875 254.5 582.769531 242.328125 C 582.371094 231.027344 578.523438 218.601562 565.660156 212.910156 C 564.480469 212.394531 563.082031 212.726562 562.277344 213.746094 C 560.992188 215.390625 559.027344 218.46875 557.085938 223.730469 C 553.269531 234.089844 552.925781 247.914062 534.617188 258.488281 C 524.515625 264.324219 510.433594 274.488281 510.433594 283.667969 C 510.433594 287.480469 511.460938 290.957031 511.460938 295.621094 C 511.460938 299.621094 509.589844 301.140625 505.636719 300.847656 C 500.886719 300.503906 497.855469 299.183594 493.742188 303.230469 C 481.988281 314.785156 466.605469 334.101562 450.714844 334.101562 C 444.101562 334.101562 440.683594 325.570312 439.058594 315.0625 C 438.136719 309.207031 437.777344 302.757812 437.738281 296.828125 C 437.671875 285.789062 438.914062 276.582031 438.914062 276.582031 C 438.914062 276.582031 443.914062 277.902344 449.195312 276.855469 C 460.5625 274.585938 463.5625 265.28125 463.5625 258.859375 C 463.5625 256.910156 463.050781 255.429688 462.773438 254.984375 C 462.773438 254.984375 457.359375 260.492188 450.328125 260.492188 C 442.953125 260.492188 440.597656 251.667969 440.597656 245.984375 C 440.597656 232.101562 449.878906 225.328125 454.585938 222.25 C 461.566406 217.671875 462.050781 213.214844 462.050781 208.878906 C 462.050781 203.417969 461.132812 199.730469 461.132812 199.730469 C 458.128906 205.449219 455.210938 211.027344 443.875 211.027344 C 431.132812 211.027344 414.238281 209.175781 408.207031 201.765625 C 407.160156 200.480469 405.382812 199.578125 400.625 199.578125 C 377.660156 199.578125 349.105469 203.160156 322.445312 218.335938 C 318.890625 220.359375 319.117188 223.058594 319.546875 224.253906 C 320.46875 226.800781 322.292969 231.675781 322.292969 231.675781 C 322.292969 231.675781 338.101562 220.691406 348.859375 220.691406 C 354.132812 220.691406 355.699219 223.675781 358.492188 237.785156 C 353.542969 239.5625 342.902344 240.207031 331.015625 240.207031 C 309.199219 240.207031 308.65625 232.691406 308.65625 227.867188 C 308.65625 227.578125 308.582031 227.324219 308.019531 227.324219 C 306.121094 227.324219 300.636719 229.035156 300.636719 237.167969 C 300.636719 242.953125 305.207031 250.972656 329.332031 250.972656 C 343.917969 250.972656 356.070312 246.078125 359.957031 244.636719 C 361.953125 253.292969 362.378906 256.179688 345.96875 256.179688 C 336.746094 256.179688 331.859375 254.414062 331.859375 254.414062 C 331.859375 254.414062 330.785156 257.738281 330.785156 260.105469 C 330.785156 262.101562 331.832031 262.984375 334.96875 264.457031 C 339.167969 266.433594 346.863281 269.328125 360.089844 269.328125 C 366.011719 269.328125 368.519531 267.722656 370.296875 267.722656 C 373.867188 267.722656 376.480469 278.792969 376.480469 282.214844 C 376.480469 284.921875 373.058594 285.054688 364.394531 285.054688 C 357.085938 285.054688 357.238281 285.96875 357.183594 286.414062 C 356.898438 288.46875 366.769531 296.609375 368.554688 296.609375 C 371.1875 296.609375 377.125 289.769531 377.355469 289.550781 C 377.355469 289.550781 378.097656 293.769531 378.097656 301.84375 C 378.097656 319.234375 370.171875 334.101562 359.300781 334.101562 C 343.40625 334.101562 328.03125 314.785156 316.269531 303.230469 C 312.164062 299.183594 309.125 300.503906 304.382812 300.847656 C 300.417969 301.140625 298.558594 299.621094 298.558594 295.621094 C 298.558594 290.957031 299.574219 287.480469 299.574219 283.667969 C 299.574219 274.488281 285.503906 264.324219 275.402344 258.488281 C 257.089844 247.914062 256.742188 234.089844 252.921875 223.730469 C 250.980469 218.46875 249.023438 215.390625 247.734375 213.746094 C 246.933594 212.726562 245.539062 212.394531 244.351562 212.910156 C 231.496094 218.601562 227.636719 231.027344 227.238281 242.328125 C 226.820312 254.5 228.113281 270.015625 236.199219 284.363281 C 241.566406 293.921875 244.730469 297.796875 247.125 302.082031 C 251.324219 309.617188 249.710938 312.144531 245.851562 310.195312 C 243.789062 309.152344 207.523438 289.570312 177.589844 260.511719 C 176.859375 259.808594 175.683594 259.90625 175.074219 260.710938 C 173.296875 263.097656 170.21875 268.648438 170.21875 278.773438 C 170.21875 286.148438 172.679688 294.710938 182.34375 304.097656 C 189.316406 310.871094 219.039062 335.671875 223.949219 339.992188 C 228.359375 343.945312 226.457031 345.515625 222.117188 345.753906 C 219.445312 345.902344 180.175781 346.875 132.375 344.46875 C 131.433594 344.421875 130.625 345.152344 130.613281 346.101562 C 130.566406 350.636719 132.441406 363.253906 152.847656 373.289062 C 170.628906 382.019531 207.75 381.25 219.589844 381.507812 C 233.652344 381.800781 225.480469 386.78125 217.917969 388.910156 C 197.621094 395.019531 131.035156 413.6875 113.453125 418.828125 C 109.957031 419.855469 109.558594 422.667969 109.558594 423.769531 C 109.558594 431.875 124.800781 444.054688 149.921875 444.054688 C 195.09375 444.054688 227.949219 430.917969 250.136719 422.089844 C 250.144531 422.089844 250.144531 422.089844 250.144531 422.089844 C 260.570312 417.785156 262.261719 421.765625 252.09375 428.957031 C 233.613281 442.042969 177.601562 479.992188 148.933594 498.699219 C 146.53125 500.269531 145.941406 503.574219 147.71875 505.828125 C 168.488281 532.058594 212.023438 504.296875 227.105469 495.867188 C 241.214844 488.011719 270.746094 466.441406 285.074219 458.214844 C 295.210938 452.378906 294.660156 457.964844 290.167969 465.9375 C 286.613281 472.238281 279.742188 482.253906 264.75 498.890625 L 274.023438 506.472656 C 274.023438 506.472656 265.414062 517.363281 256.511719 527.140625 C 252.890625 531.074219 243.019531 543.101562 237.832031 543.101562 C 232.710938 543.101562 227.019531 533.855469 221.488281 531.175781 C 217.652344 529.316406 211.597656 533.90625 211.597656 533.90625 C 211.597656 533.90625 207.757812 531.539062 201.46875 531.539062 C 197.933594 531.539062 194.628906 531.964844 190.949219 535.035156 C 186.046875 539.128906 187.40625 547.964844 187.40625 547.964844 C 188.613281 542.742188 192.15625 540.820312 195.816406 540.820312 C 206.046875 540.820312 209.109375 547.917969 214.78125 551.464844 C 219.902344 554.675781 225.832031 556.121094 225.832031 556.121094 C 220.917969 560.5 209.023438 562.285156 204.1875 566.761719 C 202.351562 568.453125 202.683594 572.453125 202.683594 572.453125 C 195.71875 574.921875 192.738281 577.15625 192.738281 581.945312 C 192.738281 588.976562 196.984375 595.152344 196.984375 595.152344 C 197.582031 590.570312 198.4375 583.96875 207.320312 582.039062 C 207.320312 582.039062 209.03125 583.539062 211.085938 583.539062 C 215.503906 583.539062 229.195312 574.382812 231.550781 571.359375 C 231.550781 571.359375 232.691406 573.542969 230.640625 577.574219 C 226.734375 585.269531 225.222656 590.535156 225.222656 594.183594 C 225.222656 596.898438 225.507812 598.449219 226.03125 599.171875 C 227.007812 600.511719 229.527344 600.234375 229.527344 600.234375 C 234.820312 616.503906 246.210938 621.453125 246.210938 621.453125 C 243.179688 615.609375 241.574219 606.507812 241.546875 601.851562 C 241.546875 600.882812 241.652344 599.761719 241.652344 599.761719 C 243.378906 600 245.308594 599.84375 246.460938 599.132812 C 248.167969 598.058594 249.632812 595.578125 249.632812 590.03125 C 249.632812 584.699219 246.660156 580.976562 246.660156 577.546875 C 246.660156 573.070312 248.84375 570.171875 248.84375 570.171875 C 251.695312 575.046875 259.46875 588.84375 264.390625 588.84375 C 265.890625 588.84375 267.402344 588.246094 269.28125 587.226562 C 269.28125 587.226562 274.269531 590.601562 280.132812 602.734375 C 280.132812 602.734375 282.414062 598.410156 282.414062 592.234375 C 282.414062 586.125 277.292969 582.46875 276 581.15625 C 276 581.15625 278.214844 577.6875 278.214844 575.398438 C 278.214844 568.71875 258.195312 562.808594 258.195312 553.105469 C 258.195312 549.714844 263.289062 542.910156 268.835938 536.222656 C 281.054688 521.484375 285.9375 516.203125 285.9375 516.203125 L 294.710938 523.375 C 308.257812 503.335938 323.335938 479.128906 340.070312 479.128906 C 346.957031 479.128906 350.75 483.429688 350.75 490.074219 C 350.75 502.082031 331.488281 524.640625 322.863281 534.121094 C 310.347656 547.871094 291.269531 561.59375 291.269531 581.746094 C 291.269531 591.644531 295.335938 605.460938 295.335938 605.460938 C 299.089844 591.949219 300.417969 587.046875 302.035156 587.046875 C 303.992188 587.046875 304.695312 595.847656 315.328125 614.460938 C 318.054688 619.238281 319.421875 621.054688 319.421875 621.054688 C 318.816406 596.0625 319.082031 584.871094 321.277344 584.871094 C 322.398438 584.871094 323.554688 588.359375 326.683594 593.917969 C 331.148438 601.851562 335.394531 607.710938 335.394531 607.710938 C 335.394531 565.695312 354.140625 544.753906 365.601562 544.753906 C 373.46875 544.753906 375.539062 553.574219 375.539062 562.363281 C 375.539062 586.640625 355.984375 600.949219 355.984375 625.089844 C 355.984375 647.554688 371.625 657.652344 371.625 657.652344 C 371.644531 656.113281 374.695312 634.8125 378.066406 628.738281 C 379.425781 626.308594 380.871094 625.082031 382.410156 625.082031 C 384.699219 625.082031 386.066406 627.277344 392.222656 638.328125 C 396.273438 645.597656 401.851562 653.167969 405.003906 656.3125 C 408.160156 653.167969 413.746094 645.597656 417.785156 638.328125 C 423.941406 627.277344 425.320312 625.082031 427.597656 625.082031 C 429.140625 625.082031 430.582031 626.308594 431.941406 628.738281 C 435.316406 634.8125 438.363281 656.113281 438.382812 657.652344 C 438.382812 657.652344 454.023438 647.554688 454.023438 625.089844 C 454.023438 600.949219 434.46875 586.640625 434.46875 562.363281 C 434.46875 553.574219 436.539062 544.753906 444.40625 544.753906 C 455.867188 544.753906 474.613281 565.695312 474.613281 607.710938 C 474.613281 607.710938 478.871094 601.851562 483.335938 593.917969 C 486.453125 588.359375 487.621094 584.871094 488.742188 584.871094 C 490.9375 584.871094 491.195312 596.0625 490.59375 621.054688 C 490.59375 621.054688 491.964844 619.238281 494.691406 614.460938 C 505.3125 595.847656 506.015625 587.046875 507.984375 587.046875 C 509.589844 587.046875 510.917969 591.949219 514.683594 605.460938 C 514.683594 605.460938 518.75 591.644531 518.75 581.746094 C 518.75 561.59375 499.660156 547.871094 487.15625 534.121094 C 478.527344 524.640625 459.257812 502.082031 459.257812 490.074219 C 459.257812 483.429688 463.058594 479.128906 469.949219 479.128906 C 486.671875 479.128906 501.757812 503.335938 515.308594 523.375 L 524.078125 516.203125 C 524.078125 516.203125 528.953125 521.484375 541.183594 536.222656 C 546.722656 542.910156 551.824219 549.714844 551.824219 553.105469 C 551.824219 562.808594 531.792969 568.71875 531.792969 575.398438 C 531.792969 577.6875 534.019531 581.15625 534.019531 581.15625 C 532.714844 582.46875 527.59375 586.125 527.59375 592.234375 C 527.59375 598.410156 529.882812 602.734375 529.882812 602.734375 C 535.746094 590.601562 540.734375 587.226562 540.734375 587.226562 C 542.617188 588.246094 544.128906 588.84375 545.621094 588.84375 C 550.542969 588.84375 558.3125 575.046875 561.164062 570.171875 C 561.164062 570.171875 563.359375 573.070312 563.359375 577.546875 C 563.359375 580.976562 560.375 584.699219 560.375 590.03125 C 560.375 595.578125 561.847656 598.058594 563.558594 599.132812 C 564.707031 599.84375 566.636719 600 568.367188 599.761719 C 568.367188 599.761719 568.460938 600.882812 568.460938 601.851562 C 568.433594 606.507812 566.835938 615.609375 563.804688 621.453125 C 563.804688 621.453125 575.1875 616.503906 580.492188 600.234375 C 580.492188 600.234375 583.007812 600.511719 583.976562 599.171875 C 584.5 598.449219 584.792969 596.898438 584.792969 594.183594 C 584.792969 590.535156 583.273438 585.269531 579.371094 577.574219 C 577.316406 573.542969 578.457031 571.359375 578.457031 571.359375 C 580.8125 574.382812 594.515625 583.539062 598.925781 583.539062 C 600.976562 583.539062 602.695312 582.039062 602.695312 582.039062 C 611.582031 583.96875 612.425781 590.570312 613.035156 595.152344 C 613.035156 595.152344 617.269531 588.976562 617.269531 581.945312 C 617.269531 577.15625 614.289062 574.921875 607.324219 572.453125 C 607.324219 572.453125 607.65625 568.453125 605.832031 566.761719 C 600.984375 562.285156 589.089844 560.5 584.179688 556.121094 C 584.179688 556.121094 590.117188 554.675781 595.226562 551.464844 C 600.910156 547.917969 603.960938 540.820312 614.191406 540.820312 C 617.851562 540.820312 621.40625 542.742188 622.609375 547.964844 C 622.609375 547.964844 623.96875 539.128906 619.066406 535.035156 C 615.390625 531.964844 612.082031 531.539062 608.539062 531.539062 C 602.257812 531.539062 598.410156 533.90625 598.410156 533.90625 C 598.410156 533.90625 592.367188 529.316406 588.519531 531.175781 C 583 533.855469 577.308594 543.101562 572.1875 543.101562 C 566.988281 543.101562 557.125 531.074219 553.496094 527.140625 C 544.59375 517.363281 535.984375 506.472656 535.984375 506.472656 L 545.269531 498.890625 C 530.265625 482.253906 523.394531 472.238281 519.84375 465.9375 C 515.355469 457.964844 514.796875 452.378906 524.933594 458.214844 C 539.261719 466.441406 568.804688 488.011719 582.914062 495.867188 C 597.992188 504.296875 641.519531 532.058594 662.289062 505.828125 C 664.078125 503.574219 663.488281 500.269531 661.074219 498.699219 C 632.40625 479.992188 576.394531 442.042969 557.925781 428.957031 C 547.746094 421.765625 549.390625 417.917969 559.871094 422.089844 Z M 387.195312 440.945312 L 387.195312 377.4375 L 422.8125 377.4375 L 422.8125 387.195312 L 401.597656 387.195312 L 401.597656 402.875 L 419.792969 402.875 L 419.792969 412.609375 L 401.597656 412.609375 L 401.597656 431.191406 L 422.8125 431.191406 L 422.8125 440.945312 Z M 455.171875 140.964844 C 455.171875 140.964844 449.433594 149.542969 444.070312 157.761719 C 440.027344 163.941406 437.871094 171.160156 437.871094 178.550781 L 437.871094 182.078125 L 365.203125 182.078125 L 365.203125 178.550781 C 365.203125 171.160156 363.046875 163.941406 359.003906 157.761719 C 353.636719 149.542969 347.898438 140.964844 347.898438 140.964844 L 380.035156 155.464844 L 401.535156 136.441406 L 423.039062 155.464844 Z M 405.003906 715.175781 C 233.992188 715.175781 94.859375 576.023438 94.859375 404.996094 C 94.859375 233.976562 233.992188 94.859375 405.003906 94.859375 C 576.023438 94.859375 715.175781 233.976562 715.175781 404.996094 C 715.175781 576.023438 576.023438 715.175781 405.003906 715.175781 Z M 405.003906 32.015625 C 199.351562 32.015625 32.015625 199.359375 32.015625 404.996094 C 32.015625 610.660156 199.351562 777.992188 405.003906 777.992188 C 610.6875 777.992188 777.992188 610.660156 777.992188 404.996094 C 777.992188 199.359375 610.6875 32.015625 405.003906 32.015625 Z M 404.996094 795.722656 C 189.574219 795.722656 14.277344 620.464844 14.277344 405.003906 C 14.277344 189.554688 189.574219 14.277344 404.996094 14.277344 C 620.425781 14.277344 795.710938 189.554688 795.710938 405.003906 C 795.710938 620.464844 620.425781 795.722656 404.996094 795.722656 Z M 404.996094 1.003906 C 182.226562 1.003906 1.003906 182.257812 1.003906 405.003906 C 1.003906 627.761719 182.226562 809.015625 404.996094 809.015625 C 627.78125 809.015625 809.015625 627.761719 809.015625 405.003906 C 809.015625 182.257812 627.78125 1.003906 404.996094 1.003906 Z M 404.996094 1.003906 " fill-opacity="1" fill-rule="evenodd"/></svg>