<svg xmlns="http://www.w3.org/2000/svg" width="1080" viewBox="0 0 810 810" height="1080" version="1.0"><path fill="#fff" d="M405.047 777.207c223.574 0 404.824-167.68 404.824-374.531 0-206.852-181.25-374.516-404.824-374.516C181.477 28.16.227 195.84.227 402.676s181.25 374.531 404.82 374.531Zm0 0"/><path fill="#e30613" d="M337.934 405.594c-7.836-82.114-52.672-145.625-100.145-141.774-47.473 3.856-79.598 73.45-71.754 155.551a252.684 252.684 0 0 0 8.617 45.777c16.903 58.633 53.364 99.043 91.528 95.997 35.355-2.832 62.199-42.188 70.36-96.004a243.986 243.986 0 0 0 1.394-59.543Zm-79.356 73.52c-9.777.784-19.332-4.47-27.39-13.966-10.84-12.757-18.958-33.109-21.188-56.5-3.895-40.746 11.543-75.277 34.484-77.117 22.938-1.84 44.692 29.703 48.578 70.461 2.454 25.785-2.816 49.074-12.84 63.156-5.808 8.2-13.23 13.286-21.652 13.965Zm0 0"/><path fill="#e30613" d="M405.79 734.488h-1.458c-29.074-.133-60.48-4.465-87.398-10.718 46.41-79.497 53.921-157.797 53.921-157.797v-257.41l-152.77-133.438c-60.218 48.313-98.175 119.367-98.175 198.613 0 107.805 70.477 200.75 171.535 241.637l-32.043 89.402C132.906 652.824 44.734 536.371 44.734 401.02c0-160.153 123.551-293.73 287.871-325.407a27.968 27.968 0 0 1 4.606-.383c13.492 0 24.488 9.461 24.488 21.13 0 8.878-6.344 16.472-15.297 19.656a300.64 300.64 0 0 0-82.879 29.285l140.809 122.625 142.133-122.7a301.174 301.174 0 0 0-82.762-29.23c-8.996-3.137-15.297-10.723-15.297-19.656 0-11.668 10.969-21.13 24.489-21.13 1.543 0 3.085.13 4.605.384C641.844 107.266 765.371 240.875 765.371 401c0 135.324-88.16 251.773-214.652 303.758l-32.082-89.383C619.69 574.492 690.21 481.543 690.21 373.738c0-79.238-37.953-150.273-98.152-198.601L439.273 308.559v257.41s7.5 78.304 53.922 157.84c-26.918 6.171-58.32 10.55-87.406 10.718l-.008-.035Zm0 0"/><path fill="#e30613" d="M629.055 379.418c10.23 54.203-25.782 128.91-95.477 179.504-11.281 8.183-13.734 12.723-21.867 16.976l-15.922-45.93c9.625-4.538 13.23-6.663 25.871-15.84 32.797-23.808 50.45-55.812 45.375-82.73-3.453-18.312-17.785-36.421-41.695-19.062-18.11 13.14-28.977 23.484-44.145 39.8l.325-131.847 110.168-93.809-1.008 58.508-58.367 45.805.519 38.8a162.83 162.83 0 0 1 16.195-12.98c38.258-27.765 72.434-17.484 80.02 22.73l.008.079Zm0 0"/><path fill="#e30613" d="M405.047 758.945c-212.238 0-384.914-159.832-384.914-356.285 0-196.45 172.676-356.27 384.914-356.27s384.918 159.82 384.918 356.27c0 196.453-172.68 356.285-384.918 356.285Zm0-707.863c-209.613 0-380.211 157.727-380.211 351.594S195.434 754.27 405.046 754.27c209.618 0 380.216-157.727 380.216-351.594S614.703 51.082 405.047 51.082Zm0 0"/></svg>