<svg xmlns="http://www.w3.org/2000/svg" xmlns:xlink="http://www.w3.org/1999/xlink" width="1080" zoomAndPan="magnify" viewBox="0 0 810 809.999993" height="1080" preserveAspectRatio="xMidYMid meet" version="1.0"><path fill="#ffffff" d="M 405.046875 777.207031 C 628.621094 777.207031 809.871094 609.527344 809.871094 402.675781 C 809.871094 195.824219 628.621094 28.160156 405.046875 28.160156 C 181.476562 28.160156 0.226562 195.839844 0.226562 402.675781 C 0.226562 609.511719 181.476562 777.207031 405.046875 777.207031 Z M 405.046875 777.207031 " fill-opacity="1" fill-rule="nonzero"/><path fill="#e30613" d="M 337.933594 405.59375 C 330.097656 323.480469 285.261719 259.96875 237.789062 263.820312 C 190.316406 267.675781 158.191406 337.269531 166.035156 419.371094 C 167.492188 434.859375 170.375 450.183594 174.652344 465.148438 C 191.554688 523.78125 228.015625 564.191406 266.179688 561.144531 C 301.535156 558.3125 328.378906 518.957031 336.539062 465.140625 C 339.433594 445.421875 339.902344 425.425781 337.933594 405.597656 Z M 258.578125 479.113281 C 248.800781 479.898438 239.246094 474.644531 231.1875 465.148438 C 220.347656 452.390625 212.230469 432.039062 210 408.648438 C 206.105469 367.902344 221.542969 333.371094 244.484375 331.53125 C 267.421875 329.691406 289.175781 361.234375 293.0625 401.992188 C 295.515625 427.777344 290.246094 451.066406 280.222656 465.148438 C 274.414062 473.347656 266.992188 478.433594 258.570312 479.113281 Z M 258.578125 479.113281 " fill-opacity="1" fill-rule="nonzero"/><path fill="#e30613" d="M 405.789062 734.488281 L 404.332031 734.488281 C 375.257812 734.355469 343.851562 730.023438 316.933594 723.769531 C 363.34375 644.273438 370.855469 565.972656 370.855469 565.972656 L 370.855469 308.5625 L 218.085938 175.125 C 157.867188 223.4375 119.910156 294.492188 119.910156 373.738281 C 119.910156 481.542969 190.386719 574.488281 291.445312 615.375 L 259.402344 704.777344 C 132.90625 652.824219 44.734375 536.371094 44.734375 401.019531 C 44.734375 240.867188 168.285156 107.289062 332.605469 75.613281 C 334.125 75.359375 335.667969 75.230469 337.210938 75.230469 C 350.703125 75.230469 361.699219 84.691406 361.699219 96.359375 C 361.699219 105.238281 355.355469 112.832031 346.402344 116.015625 C 317.476562 121.667969 289.546875 131.539062 263.523438 145.300781 L 404.332031 267.925781 L 546.464844 145.226562 C 520.472656 131.5 492.585938 121.652344 463.703125 115.996094 C 454.707031 112.859375 448.40625 105.273438 448.40625 96.339844 C 448.40625 84.671875 459.375 75.210938 472.894531 75.210938 C 474.4375 75.210938 475.980469 75.339844 477.5 75.59375 C 641.84375 107.265625 765.371094 240.875 765.371094 401 C 765.371094 536.324219 677.210938 652.773438 550.71875 704.757812 L 518.636719 615.375 C 619.691406 574.492188 690.210938 481.542969 690.210938 373.738281 C 690.210938 294.5 652.257812 223.464844 592.058594 175.136719 L 439.273438 308.558594 L 439.273438 565.96875 C 439.273438 565.96875 446.773438 644.273438 493.195312 723.808594 C 466.277344 729.980469 434.875 734.359375 405.789062 734.527344 L 405.78125 734.492188 Z M 405.789062 734.488281 " fill-opacity="1" fill-rule="nonzero"/><path fill="#e30613" d="M 629.054688 379.417969 C 639.285156 433.621094 603.273438 508.328125 533.578125 558.921875 C 522.296875 567.105469 519.84375 571.644531 511.710938 575.898438 L 495.789062 529.96875 C 505.414062 525.429688 509.019531 523.304688 521.660156 514.128906 C 554.457031 490.320312 572.109375 458.316406 567.035156 431.398438 C 563.582031 413.085938 549.25 394.976562 525.339844 412.335938 C 507.230469 425.476562 496.363281 435.820312 481.195312 452.136719 L 481.519531 320.289062 L 591.6875 226.480469 L 590.679688 284.988281 L 532.3125 330.792969 L 532.832031 369.59375 C 537.945312 364.929688 543.355469 360.59375 549.027344 356.613281 C 587.285156 328.847656 621.460938 339.128906 629.046875 379.34375 L 629.054688 379.421875 Z M 629.054688 379.417969 " fill-opacity="1" fill-rule="nonzero"/><path fill="#e30613" d="M 405.046875 758.945312 C 192.808594 758.945312 20.132812 599.113281 20.132812 402.660156 C 20.132812 206.210938 192.808594 46.390625 405.046875 46.390625 C 617.285156 46.390625 789.964844 206.210938 789.964844 402.660156 C 789.964844 599.113281 617.285156 758.945312 405.046875 758.945312 Z M 405.046875 51.082031 C 195.433594 51.082031 24.835938 208.808594 24.835938 402.675781 C 24.835938 596.542969 195.433594 754.269531 405.046875 754.269531 C 614.664062 754.269531 785.261719 596.542969 785.261719 402.675781 C 785.261719 208.808594 614.703125 51.082031 405.046875 51.082031 Z M 405.046875 51.082031 " fill-opacity="1" fill-rule="nonzero"/></svg>