<svg xmlns="http://www.w3.org/2000/svg" width="1080" viewBox="0 0 810 810" height="1080" version="1.0"><path fill="#fff" d="M405.125 810.762c224.023 0 405.637-181.614 405.637-405.637S629.148-.512 405.125-.512-.512 181.102-.512 405.125s181.614 405.637 405.637 405.637Zm0 0"/><path fill="#004b9c" d="M405.125 795.836C189.34 795.836 14.41 620.91 14.41 405.125 14.41 189.34 189.34 14.41 405.125 14.41c215.785 0 390.71 174.93 390.71 390.715 0 215.785-174.925 390.71-390.71 390.71"/><path fill="#fff" d="M498.867 610.21h-19.18v-34.355h-30v34.38h-20.226s31.242-130.524 31.55-131.11h-33.355s-39.289 164.117-39.289 163.152h59.844v53.75h31.55v-53.75h19.11v-32.074Zm-210.93-89.241v133.535a45.136 45.136 0 0 0 22.38 39.621 45.138 45.138 0 0 0 45.5 0 45.136 45.136 0 0 0 22.378-39.621V520.96c-.347-24.676-20.449-44.496-45.129-44.496-24.68 0-44.78 19.82-45.128 44.496Zm30.711-.055a14.828 14.828 0 0 1 22.344-13.144 14.828 14.828 0 0 1 7.305 13.144v133.652c-.2 8.047-6.777 14.465-14.824 14.465s-14.625-6.418-14.825-14.465v-133.66Zm75.829-326.734c-1.805-4.504-7.329-29.114 21.976-39.465 9.176-2.54 16.64-1.988 25.39 1.363 22.466 8.113 26.692 38.399 28.333 57.555h24.691V108.96h-15.199s-7.535 11.203-9.672 14.422c-12.617-8.113-27.383-13.422-42.176-17.254-35.058-6.219-67.914 1.922-93.66 20.121-32.965 23.438-51.723 76.926-28.672 112.48 23.047 35.551 88.907 131.297 88.907 131.297s4.605 6.418 4.507 13.793c-.199 11.72-4.996 19.336-14.316 25.942-9.32 6.61-18.93 8.05-31.766 5.265-30.465-6.5-28.539-45.07-28.539-64.613h-36.344v110.332h23.258l7.39-14.223c9.106 4.102 25.942 12.575 40.185 14.973 38.34 7.66 79.425.945 107.351-23.96 30.133-24.915 45.43-73.446 14.926-114.821-32.2-48.676-80.649-113.832-86.606-128.578Zm308.214 91.8h27.133C681.281 153.715 554.223 59.34 405.117 59.34c-190.972 0-345.77 154.816-345.77 345.773 0 190.957 154.813 345.77 345.77 345.77s345.645-154.672 345.77-345.531H518.793v128.902h38.293v75.988c0 26.051 0 115.383-151.988 115.383a318.953 318.953 0 0 1-153.305-38.977V123.691a319.078 319.078 0 0 1 153.32-38.976c151.989 0 151.989 89.285 151.989 115.383v85.937l145.578-.043Zm0 0"/></svg>