<svg xmlns="http://www.w3.org/2000/svg" xmlns:xlink="http://www.w3.org/1999/xlink" width="1080" zoomAndPan="magnify" viewBox="0 0 810 809.999993" height="1080" preserveAspectRatio="xMidYMid meet" version="1.0"><path fill="#ffffff" d="M 405.125 810.761719 C 629.148438 810.761719 810.761719 629.148438 810.761719 405.125 C 810.761719 181.101562 629.148438 -0.511719 405.125 -0.511719 C 181.101562 -0.511719 -0.511719 181.101562 -0.511719 405.125 C -0.511719 629.148438 181.101562 810.761719 405.125 810.761719 Z M 405.125 810.761719 " fill-opacity="1" fill-rule="nonzero"/><path fill="#004b9c" d="M 405.125 795.835938 C 189.339844 795.835938 14.410156 620.910156 14.410156 405.125 C 14.410156 189.339844 189.339844 14.410156 405.125 14.410156 C 620.910156 14.410156 795.835938 189.339844 795.835938 405.125 C 795.835938 620.910156 620.910156 795.835938 405.125 795.835938 " fill-opacity="1" fill-rule="nonzero"/><path fill="#ffffff" d="M 498.867188 610.210938 L 479.6875 610.210938 L 479.6875 575.855469 L 449.6875 575.855469 L 449.6875 610.234375 L 429.460938 610.234375 C 429.460938 610.234375 460.703125 479.710938 461.011719 479.125 L 427.65625 479.125 C 427.65625 479.125 388.367188 643.242188 388.367188 642.277344 L 448.210938 642.277344 L 448.210938 696.027344 L 479.761719 696.027344 L 479.761719 642.277344 L 498.871094 642.277344 L 498.871094 610.203125 Z M 287.9375 520.96875 L 287.9375 654.503906 C 287.707031 670.78125 296.257812 685.917969 310.316406 694.125 C 324.371094 702.328125 341.757812 702.328125 355.816406 694.125 C 369.875 685.917969 378.425781 670.78125 378.195312 654.503906 L 378.195312 520.960938 C 377.847656 496.285156 357.746094 476.464844 333.066406 476.464844 C 308.386719 476.464844 288.285156 496.285156 287.9375 520.960938 Z M 318.648438 520.914062 C 318.515625 515.53125 321.3125 510.5 325.953125 507.769531 C 330.59375 505.039062 336.351562 505.039062 340.992188 507.769531 C 345.632812 510.5 348.429688 515.53125 348.296875 520.914062 L 348.296875 654.566406 C 348.097656 662.613281 341.519531 669.03125 333.472656 669.03125 C 325.425781 669.03125 318.847656 662.613281 318.648438 654.566406 L 318.648438 520.90625 Z M 394.476562 194.179688 C 392.671875 189.675781 387.148438 165.066406 416.453125 154.714844 C 425.628906 152.175781 433.09375 152.726562 441.84375 156.078125 C 464.308594 164.191406 468.535156 194.476562 470.175781 213.632812 L 494.867188 213.632812 L 494.867188 108.960938 L 479.667969 108.960938 C 479.667969 108.960938 472.132812 120.164062 469.996094 123.382812 C 457.378906 115.269531 442.613281 109.960938 427.820312 106.128906 C 392.761719 99.910156 359.90625 108.050781 334.160156 126.25 C 301.195312 149.6875 282.4375 203.175781 305.488281 238.730469 C 328.535156 274.28125 394.394531 370.027344 394.394531 370.027344 C 394.394531 370.027344 399 376.445312 398.902344 383.820312 C 398.703125 395.539062 393.90625 403.15625 384.585938 409.761719 C 375.265625 416.371094 365.65625 417.8125 352.820312 415.027344 C 322.355469 408.527344 324.28125 369.957031 324.28125 350.414062 L 287.9375 350.414062 L 287.9375 460.746094 L 311.195312 460.746094 L 318.585938 446.523438 C 327.691406 450.625 344.527344 459.097656 358.769531 461.496094 C 397.109375 469.15625 438.195312 462.441406 466.121094 437.535156 C 496.253906 412.621094 511.550781 364.089844 481.046875 322.714844 C 448.847656 274.039062 400.398438 208.882812 394.441406 194.136719 Z M 702.691406 285.980469 L 729.824219 285.980469 C 681.28125 153.714844 554.222656 59.339844 405.117188 59.339844 C 214.144531 59.339844 59.347656 214.15625 59.347656 405.113281 C 59.347656 596.070312 214.160156 750.882812 405.117188 750.882812 C 596.074219 750.882812 750.761719 596.210938 750.886719 405.351562 L 518.792969 405.351562 L 518.792969 534.253906 L 557.085938 534.253906 L 557.085938 610.242188 C 557.085938 636.292969 557.085938 725.625 405.097656 725.625 C 351.535156 725.710938 298.8125 712.308594 251.792969 686.648438 L 251.792969 123.691406 C 298.816406 98.035156 351.539062 84.632812 405.113281 84.714844 C 557.101562 84.714844 557.101562 174 557.101562 200.097656 L 557.101562 286.035156 L 702.679688 285.992188 Z M 702.691406 285.980469 " fill-opacity="1" fill-rule="nonzero"/></svg>