<svg xmlns="http://www.w3.org/2000/svg" width="1080" viewBox="0 0 810 810" height="1080" version="1.0"><path fill="#28844a" d="m404.918 1.305-269.09 403.64 269.09 403.637 269.094-403.637L404.918 1.305"/><path fill="#fff" d="M259.43 349.523c0-19.21 2.265-44.882 14.379-68.898 8.25-16.371 23.851-32.691 48.027-31.422 8.785.457 35.508 6.672 35.707 36.399.066 13.875-8.293 39.253-45.773 39.253 0 0-4.653 37.106-4.653 56.45 0 17.195.348 94.398 28.844 155.105l68.144-151.32 64.926 151.691s27.45-67.484 27.45-125.476c0-57.153-15.926-95.692-29.247-116.098-19.035-29.195-43.53-39.332-54.851-38.543 0 0-12.274 12-31.028 10.68-22.832-1.617-36.812-17.778-37.105-38.899-.281-17.55 11.578-37.129 29.563-48.629 16.917-10.816 47.007-9.789 66.363-3.765 31.191 9.703 57.914 43.664 71.726 68.355 13.067 23.34 26.75 70.121 26.844 131.2.11 50.812-18.39 128.105-41.922 186.898-23.02 57.496-36.582 81.016-36.582 81.016l-56.137-113.352-55.562 113.457s-53.297-112.547-67.422-164.008c-14.14-51.472-21.691-111.828-21.691-130.094"/><path fill="#fff" d="M170.293 404.945 404.918 756.88l234.625-351.934L404.918 53.008Zm234.625 380.457L151.281 404.945l253.637-380.46 253.64 380.46-253.64 380.457"/></svg>