<svg xmlns="http://www.w3.org/2000/svg" xmlns:xlink="http://www.w3.org/1999/xlink" width="1080" zoomAndPan="magnify" viewBox="0 0 810 809.999993" height="1080" preserveAspectRatio="xMidYMid meet" version="1.0"><path fill="#28844a" d="M 404.917969 1.304688 L 135.828125 404.945312 L 404.917969 808.582031 L 674.011719 404.945312 L 404.917969 1.304688 " fill-opacity="1" fill-rule="nonzero"/><path fill="#ffffff" d="M 259.429688 349.523438 C 259.429688 330.3125 261.695312 304.640625 273.808594 280.625 C 282.058594 264.253906 297.660156 247.933594 321.835938 249.203125 C 330.621094 249.660156 357.34375 255.875 357.542969 285.601562 C 357.609375 299.476562 349.25 324.855469 311.769531 324.855469 C 311.769531 324.855469 307.117188 361.960938 307.117188 381.304688 C 307.117188 398.5 307.464844 475.703125 335.960938 536.410156 L 404.105469 385.089844 L 469.03125 536.78125 C 469.03125 536.78125 496.480469 469.296875 496.480469 411.304688 C 496.480469 354.152344 480.554688 315.613281 467.234375 295.207031 C 448.199219 266.011719 423.703125 255.875 412.382812 256.664062 C 412.382812 256.664062 400.109375 268.664062 381.355469 267.34375 C 358.523438 265.726562 344.542969 249.566406 344.25 228.445312 C 343.96875 210.894531 355.828125 191.316406 373.8125 179.816406 C 390.730469 169 420.820312 170.027344 440.175781 176.050781 C 471.367188 185.753906 498.089844 219.714844 511.902344 244.40625 C 524.96875 267.746094 538.652344 314.527344 538.746094 375.605469 C 538.855469 426.417969 520.355469 503.710938 496.824219 562.503906 C 473.804688 620 460.242188 643.519531 460.242188 643.519531 L 404.105469 530.167969 L 348.542969 643.625 C 348.542969 643.625 295.246094 531.078125 281.121094 479.617188 C 266.980469 428.144531 259.429688 367.789062 259.429688 349.523438 " fill-opacity="1" fill-rule="nonzero"/><path fill="#ffffff" d="M 170.292969 404.945312 L 404.917969 756.878906 L 639.542969 404.945312 L 404.917969 53.007812 Z M 404.917969 785.402344 L 151.28125 404.945312 L 404.917969 24.484375 L 658.558594 404.945312 L 404.917969 785.402344 " fill-opacity="1" fill-rule="nonzero"/></svg>