<svg xmlns="http://www.w3.org/2000/svg" xmlns:xlink="http://www.w3.org/1999/xlink" width="1080" zoomAndPan="magnify" viewBox="0 0 810 809.999993" height="1080" preserveAspectRatio="xMidYMid meet" version="1.0"><path fill="#ffffff" d="M 809.558594 405.71875 C 809.558594 628.726562 628.390625 809.558594 405.007812 809.558594 C 181.625 809.558594 0.457031 628.722656 0.457031 405.71875 C 0.457031 182.714844 181.527344 0.457031 405.007812 0.457031 C 628.488281 0.457031 809.558594 161.945312 809.558594 405.71875 Z M 809.558594 405.71875 " fill-opacity="1" fill-rule="nonzero"/><path fill="#64b42d" d="M 7.648438 405.257812 C 15.585938 158.929688 185.191406 58.503906 296.554688 23.53125 C 347.453125 7.539062 392.035156 7.007812 391.847656 12.742188 C 391.675781 17.796875 353.496094 13.589844 299.441406 33.0625 C 205.207031 67.070312 71.789062 151.496094 63.671875 367.691406 C 63.671875 566.496094 225.226562 727.601562 424.542969 727.601562 C 623.863281 727.601562 785.429688 566.480469 785.429688 367.691406 C 785.933594 325.207031 778.238281 291.59375 768.609375 262.511719 C 751.707031 211.417969 729.890625 187.75 739.355469 187.523438 C 745.847656 187.40625 765.515625 227.53125 779.199219 264.957031 C 795.140625 308.519531 802.464844 348.113281 802.28125 405.195312 C 802.28125 624.097656 624.375 801.515625 404.914062 801.515625 C 185.453125 801.515625 7.632812 624.167969 7.632812 405.265625 Z M 7.648438 405.257812 " fill-opacity="1" fill-rule="nonzero"/><path fill="#64b42d" d="M 365.445312 280.503906 C 365.445312 210.03125 481.234375 216.675781 481.234375 216.675781 L 481.234375 468.039062 C 481.234375 485.597656 492.367188 496.171875 512.394531 496.171875 C 544.371094 496.171875 542.179688 468.039062 542.179688 468.039062 C 542.179688 485.597656 542.078125 285.394531 542.078125 209.492188 C 542.078125 146.371094 657.152344 146.371094 657.152344 146.371094 L 657.152344 480.894531 L 656.65625 501.667969 C 646.832031 564.816406 591.992188 613.117188 527.210938 613.117188 C 484.632812 613.117188 446.875 592.28125 423.175781 560.078125 C 399.480469 592.273438 361.683594 613.117188 319.171875 613.117188 C 254.378906 613.117188 200.65625 564.816406 190.839844 501.644531 L 189.285156 480.867188 C 189.285156 480.867188 189.148438 296.390625 189.148438 209.457031 C 189.148438 146.335938 304.347656 146.335938 304.347656 146.335938 L 304.347656 468.066406 C 304.347656 485.832031 316.988281 496.132812 334.160156 496.132812 C 351.121094 496.132812 365.625 485.347656 365.625 468.066406 C 365.625 468.066406 365.460938 339.664062 365.460938 280.46875 L 365.445312 280.492188 Z M 365.445312 280.503906 " fill-opacity="1" fill-rule="nonzero"/></svg>