<svg xmlns="http://www.w3.org/2000/svg" width="1080" viewBox="0 0 810 810" height="1080" version="1.0"><path fill="#fff" d="M809.559 405.719c0 223.008-181.168 403.84-404.551 403.84C181.625 809.559.457 628.723.457 405.719.457 182.715 181.527.457 405.007.457c223.481 0 404.552 161.488 404.552 405.262Zm0 0"/><path fill="#64b42d" d="M7.648 405.258C15.586 158.93 185.191 58.504 296.555 23.53c50.898-15.992 95.48-16.523 95.293-10.789-.172 5.055-38.352.848-92.407 20.32C205.207 67.07 71.79 151.496 63.671 367.692c0 198.804 161.556 359.91 360.872 359.91 199.32 0 360.887-161.122 360.887-359.91.504-42.485-7.192-76.098-16.82-105.18-16.903-51.094-38.72-74.762-29.255-74.989 6.493-.117 26.16 40.008 39.844 77.434 15.942 43.563 23.266 83.156 23.082 140.238 0 218.903-177.906 396.32-397.367 396.32-219.46 0-397.281-177.347-397.281-396.25Zm0 0"/><path fill="#64b42d" d="M365.445 280.504c0-70.473 115.79-63.828 115.79-63.828v251.363c0 17.559 11.132 28.133 31.16 28.133 31.976 0 29.785-28.133 29.785-28.133 0 17.559-.102-182.644-.102-258.547 0-63.12 115.074-63.12 115.074-63.12v334.523l-.496 20.773c-9.824 63.148-64.664 111.45-129.445 111.45-42.578 0-80.336-20.837-104.035-53.04-23.696 32.195-61.492 53.04-104.004 53.04-64.793 0-118.516-48.302-128.332-111.473l-1.555-20.778s-.137-184.476-.137-271.41c0-63.121 115.2-63.121 115.2-63.121v321.73c0 17.766 12.64 28.067 29.812 28.067 16.961 0 31.465-10.785 31.465-28.067 0 0-.164-128.402-.164-187.597l-.016.023Zm0 0"/></svg>