<svg xmlns="http://www.w3.org/2000/svg" xmlns:xlink="http://www.w3.org/1999/xlink" width="1080" zoomAndPan="magnify" viewBox="0 0 810 809.999993" height="1080" preserveAspectRatio="xMidYMid meet" version="1.0"><defs><clipPath id="01aeda7920"><path d="M 60.570312 0 L 749.070312 0 L 749.070312 810 L 60.570312 810 Z M 60.570312 0 " clip-rule="nonzero"/></clipPath></defs><path fill="#ffffff" d="M 404.753906 15.777344 C 298.292969 95.269531 168.632812 86.765625 79.941406 52.195312 C 66.015625 200.144531 38.917969 552.613281 404.835938 794.820312 C 771.210938 552.757812 743.492188 200.144531 729.726562 52.195312 C 641.042969 86.761719 511.199219 95.273438 404.753906 15.777344 Z M 404.753906 15.777344 " fill-opacity="1" fill-rule="nonzero"/><g clip-path="url(#01aeda7920)"><path stroke-linecap="butt" transform="matrix(0.903304, 0, 0, 0.903766, 47.949354, -127.34599)" fill="none" stroke-linejoin="miter" d="M 394.999254 158.363329 C 277.142039 246.319969 133.602208 236.910553 35.416692 198.65914 C 20.000203 362.362222 -9.998164 752.362394 395.090066 1020.360008 C 800.684251 752.522316 769.998304 362.362222 754.759116 198.65914 C 656.582249 236.906231 512.839171 246.324291 394.999254 158.363329 Z M 394.999254 158.363329 " stroke="#007f4e" stroke-width="28" stroke-opacity="1" stroke-miterlimit="4"/></g><path fill="#007f4e" d="M 385.675781 580.253906 C 363.5625 579.417969 321.238281 569.367188 295.136719 549.484375 L 295.136719 570.480469 C 295.136719 596.78125 261.605469 596.78125 261.605469 570.480469 L 261.605469 527.722656 C 154.109375 395.648438 217.566406 229.339844 385.675781 201.613281 L 385.675781 160.203125 L 290.976562 160.203125 C 264.792969 160.203125 264.792969 128.101562 290.976562 128.101562 L 521.175781 128.101562 C 547.359375 128.101562 547.359375 160.203125 521.175781 160.203125 L 422.660156 160.203125 L 422.660156 201.613281 C 467.089844 203.113281 531.21875 236.296875 564.640625 278.773438 C 580.898438 299.558594 553.800781 317.632812 540.183594 301.730469 C 495.085938 254.371094 463.828125 240.476562 422.660156 234.308594 L 422.660156 285.402344 L 482.546875 285.402344 C 496.804688 314.878906 505.847656 344.164062 515.109375 375.109375 L 534.734375 375.109375 C 561.722656 375.109375 561.183594 412.84375 534.648438 412.84375 L 523.6875 412.84375 C 528.511719 435.304688 532.308594 457.925781 535.890625 480.605469 C 538.84375 477.347656 546.574219 467.660156 549.285156 464.042969 C 562.832031 450.488281 588.125 468.5625 576.382812 485.734375 C 562.832031 502.90625 554.21875 513.769531 539.355469 529.980469 L 539.484375 570.480469 C 539.566406 596.132812 508.976562 596.730469 506.121094 570.480469 L 504.378906 554.453125 C 481.121094 569.160156 458.539062 578.621094 422.660156 583.417969 L 422.660156 661.121094 C 422.660156 688.128906 385.675781 688.128906 385.675781 661.121094 Z M 385.675781 486.984375 L 300.3125 486.984375 L 297.660156 515.335938 C 297.839844 528.3125 372.324219 549.46875 385.675781 547.847656 Z M 505.734375 512.625 L 502.296875 486.984375 L 422.660156 486.984375 L 422.660156 547.847656 C 422.660156 555.050781 483.976562 538.390625 505.734375 512.625 Z M 317.128906 285.402344 L 385.675781 285.402344 L 385.675781 234.308594 C 227.121094 270.148438 220.097656 400.632812 269.671875 486.984375 C 275.457031 416.632812 292.023438 349.480469 317.128906 285.402344 Z M 385.675781 317.238281 C 371.449219 316.738281 350.375 317.738281 336.148438 317.238281 C 320.347656 362.679688 311.84375 407.667969 304.253906 454.023438 C 331.503906 454.023438 358.429688 454.023438 385.675781 454.023438 Z M 489.488281 412.84375 L 422.660156 412.84375 L 422.660156 454.023438 C 446.125 454.023438 474.109375 454.023438 497.574219 454.023438 Z M 483.695312 375.109375 L 466.601562 317.238281 C 454.988281 316.730469 434.277344 317.746094 422.660156 317.238281 L 422.660156 375.109375 Z M 483.695312 375.109375 " fill-opacity="1" fill-rule="nonzero"/></svg>