<svg xmlns="http://www.w3.org/2000/svg" width="1080" viewBox="0 0 810 810" height="1080" version="1.0"><defs><clipPath id="a"><path d="M60.57 0h688.5v810H60.57Zm0 0"/></clipPath></defs><path fill="#fff" d="M404.754 15.777C298.293 95.27 168.633 86.766 79.94 52.195 66.016 200.145 38.918 552.613 404.836 794.82 771.21 552.758 743.492 200.145 729.726 52.195 641.044 86.762 511.2 95.273 404.755 15.777Zm0 0"/><g clip-path="url(#a)"><path transform="matrix(.9033 0 0 .90377 47.95 -127.346)" fill="none" d="M395 158.363C277.141 246.32 133.601 236.911 35.416 198.66 20 362.362-9.998 752.362 395.09 1020.36c405.594-267.838 374.908-657.998 359.67-821.7-98.178 38.246-241.92 47.664-359.76-40.297Zm0 0" stroke="#007f4e" stroke-width="28"/></g><path fill="#007f4e" d="M385.676 580.254c-22.113-.836-64.438-10.887-90.54-30.77v20.996c0 26.301-33.53 26.301-33.53 0v-42.757c-107.497-132.075-44.04-298.383 124.07-326.11v-41.41h-94.7c-26.183 0-26.183-32.101 0-32.101h230.2c26.183 0 26.183 32.101 0 32.101H422.66v41.41c44.43 1.5 108.559 34.684 141.98 77.16 16.258 20.786-10.84 38.86-24.456 22.957-45.098-47.359-76.356-61.253-117.524-67.421v51.093h59.887c14.258 29.477 23.3 58.762 32.562 89.707h19.625c26.989 0 26.45 37.735-.086 37.735h-10.96c4.824 22.46 8.62 45.082 12.203 67.761 2.953-3.257 10.683-12.945 13.394-16.562 13.547-13.555 38.84 4.52 27.098 21.691-13.551 17.172-22.164 28.036-37.028 44.246l.13 40.5c.081 25.653-30.508 26.25-33.364 0l-1.742-16.027c-23.258 14.707-45.84 24.168-81.719 28.965v77.703c0 27.008-36.984 27.008-36.984 0Zm0-93.27h-85.363l-2.653 28.352c.18 12.976 74.664 34.133 88.016 32.512Zm120.058 25.641-3.437-25.64H422.66v60.863c0 7.203 61.317-9.457 83.074-35.223ZM317.13 285.402h68.547V234.31c-158.555 35.84-165.578 166.324-116.004 252.675 5.785-70.351 22.351-137.504 47.457-201.582Zm68.547 31.836c-14.227-.5-35.301.5-49.528 0-15.8 45.442-24.304 90.43-31.894 136.785h81.422Zm103.812 95.606H422.66v41.18h74.914Zm-5.793-37.735-17.093-57.87c-11.614-.509-32.325.507-43.942 0v57.87Zm0 0"/></svg>