<svg version="1.1" id="Arsenal" xmlns="http://www.w3.org/2000/svg" x="0" y="0" viewBox="0 0 1695 2043.1" style="enable-background:new 0 0 1695 2043.1" xml:space="preserve"><style>.st1{fill:#fff}.st2{fill:#ca0538}.st3{fill:#e20613}.st4{fill:#003671}.st5{fill:#a1853e}.st6{fill:none}</style><path d="M1061.7 1995.1v29.4h-9v-65.2h23.3c10.9 0 22.2 3.4 22.2 16.4 0 7.9-4.7 13.9-12.3 15.7v.2c7.9 1.9 8.9 6.1 9.9 13.4 1 6.5 1.7 13.5 4.1 19.6h-9.7c-.8-3.9-1.9-8.1-2.3-12-.7-5.9-.7-11.2-3.7-14.5-2.6-3-6.2-2.7-9.8-3h-12.7zm-.2-7.8h14.9c10-.5 12.3-5 12.3-10.1 0-5.2-2.3-9.7-12.3-10.1h-14.9v20.2z"/><circle cx="1075.2" cy="1992.8" r="46.9" style="fill:none;stroke:#000;stroke-width:6.779"/><path class="st1" d="M847.5 8.8c263.2 0 518.1 54.1 757.6 160.9 49.8 202.6 81.2 414 81.9 552.4v7.5c0 136.5-19.6 269.8-58.4 396.5-38.1 124.4-94.7 242.3-168.4 350.5-72.4 106.3-161.8 203.9-265.5 290-110.1 91.4-239.6 173.6-347.2 220.5-107.5-46.9-237-129.1-347.2-220.5-103.8-86.1-193.1-183.7-265.5-290-73.7-108.1-130.3-226.1-168.4-350.5C27.7 999.4 8 866 8 729.5V722c.7-138.5 32.1-349.8 81.9-552.4C329.4 62.9 584.3 8.8 847.5 8.8z"/><path class="st2" d="M847.5 788.2c58.3 0 113.2 15 160.7 41.6h489.1c1-34.2.4-72.6-.3-108.9-2.9-149.8-46.4-402.6-89.1-578-173.5-56.2-359.6-89-560.3-89l-.1 734.3z"/><path class="st3" d="M847.6 54.5c-196.2 0-376.8 29.3-559.9 88.2-45 181.8-82.3 422.4-87.9 537.9-8.2 169.2 4.1 291.5 37.9 425.3 19 75.2 44.3 146 76.5 217.6 34.8-18.3 70.9-41.2 107.4-68.4 38.3-28.6 71.6-65.1 98.8-99.7-1.4-12.5-2.2-25.2-2.2-38 0-19.8 1.7-39.2 5.1-58.1-67.7 2.4-106.1 3.2-136.3 3.2-36.4 0-69.6-25.3-85.7-64.1h-17c-12.9 0-34.6-11-34.6-52.1 0-41.2 21.8-52.1 34.6-52.1h17c16.1-38.9 49.3-64.3 85.7-64.3h299.9c47.5-26.6 102.3-41.7 160.6-41.7l.1-733.7z"/><path class="st4" d="M549.8 1702.1c-92.5-92.1-168.8-193.8-229.2-302.5-61.3-110.3-104.9-233-130.6-355.8-26.4-126.3-34.8-253.8-25.9-389 8.4-127.3 42-320.1 83.4-498.4-39.7 14-79.1 29.3-118 46.1-43.7 175.3-74.3 397.6-74.9 519.1-.7 135.5 18.6 266.7 56.3 390.1 39.6 129.4 92.1 234.7 162.4 337.9 70 102.7 156.4 197.1 256.8 280.4 93.8 77.9 200.8 146.4 317.4 204.1-110.9-68-211.4-146-297.7-232z"/><path class="st4" d="M1145.1 1702.1c92.5-92.1 168.8-193.8 229.2-302.5 61.3-110.3 104.9-233 130.6-355.8 26.4-126.3 34.8-253.8 25.9-389-8.4-127.3-42.1-320.3-83.5-498.6 39.7 14 79.3 29.4 118.2 46.2 43.6 175.2 74.2 397.6 74.8 519.1.7 135.5-18.6 266.7-56.3 390.1-36.7 119.9-91.3 233.6-162.4 337.9-70 102.7-156.4 197.1-256.8 280.4-93.8 77.9-200.8 146.4-317.4 204.1 110.9-67.9 211.3-145.8 297.7-231.9z"/><path class="st5" d="M847.3 804.7c-172.8 0-312.9 140.1-312.9 312.9 0 172.8 140.1 312.9 312.9 312.9 172.8 0 312.9-140.1 312.9-312.9-.1-172.8-140.2-312.9-312.9-312.9z"/><path class="st3" d="M847.5 1446.8c-106.3 0-201-50.4-261.3-128.6-73.5 42-150.7 75.1-224.6 97.7 58.3 102.5 130.8 198.3 217.9 286.1 78.6 79.2 168.6 151.5 267.9 215.8v-471z"/><path class="st5" d="M386.8 1046.3c-33.8 0-62.8-26.7-74.3-64.1h-28.4c-7.3 0-18.3-8.9-18.3-35.8s10.9-35.8 18.3-35.8h28.4c11.5-37.5 40.4-64.3 74.3-64.3h273.6c-66.4 45.8-115.2 115.5-133.9 196.6-60.6 2.1-107.1 3.4-139.7 3.4z"/><path class="st5" d="M1611.9 163.1C1379.6 59 1123.8 0 847.5 0 571.2 0 315.4 59 83.1 163.1 29.5 380 .7 590.4 0 721.3c-.7 139.9 19 276.6 58.7 406.3 38.3 125.2 95.3 243.8 169.5 352.7 72.9 106.9 162.7 205.1 267 291.7 98.1 81.5 231.1 170.8 352.3 223.1 121.2-52.3 254.1-141.7 352.3-223.1 104.3-86.6 194.2-184.7 267-291.7 74.1-108.8 131.2-227.5 169.5-352.7 39.7-129.7 59.4-266.4 58.7-406.3-.7-130.9-29.5-341.3-83.1-558.2zm-190.2 1286.4c-70 102.7-156.4 197.1-256.8 280.4-93.8 77.9-200.9 146.4-317.5 204.2-116.6-57.8-223.5-126.3-317.3-204.2-100.4-83.3-186.8-177.7-256.8-280.4-5.5-8.1-11-16.4-16.3-24.6 102.2-17.3 215.2-60.7 319.6-120.1-26-37.5-44.5-80.6-53.1-127.3-26.1 32.1-57.3 64.7-92.9 91.3-57.7 43.1-127.3 85.8-202.7 109-49.3-84-88.6-173.2-117-266.1-37.7-123.4-57-254.7-56.3-390.1.6-121.5 31.3-343.8 74.9-519.1 227.2-98.1 468.6-147.9 718-147.9 249.4 0 490.8 49.9 718 147.9 43.6 175.2 74.3 397.5 74.9 519.1.2 42.1-1.5 83.7-5.1 124.8h-601.5c74.4 51.3 126.6 132.5 139.4 226.3l114.7-27.3c25.6-5.7 36.2-23 38.8-38.9l288.6-19.5c-8.4 42.3-18.8 84-31.3 124.7-36.6 119.9-91.2 233.5-162.3 337.8z"/><path class="st1" d="M868 1204.1v168.6c78.7-6.3 147.3-48.2 189.8-109.6l-146-84.3c-11.6 12.2-26.7 21.2-43.8 25.3zM826.6 862.4c-78.7 6.3-147.4 48.2-189.9 109.6l145.7 84.1c11.7-12.5 27-21.5 44.2-25.5V862.4zM847.2 1072c-25.1 0-45.5 20.4-45.5 45.5s20.4 45.5 45.5 45.5 45.5-20.4 45.5-45.5c0-25.2-20.4-45.5-45.5-45.5zM868 862.4v168.2c17.2 4.1 32.4 13.1 44.2 25.5l145.7-84.1c-42.5-61.3-111.1-103.2-189.9-109.6zM826.6 1204.1c-13.9-3.3-26.5-9.8-37-18.8-2.4-2-4.7-4.2-6.9-6.5l-146 84.3c3.3 4.8 6.9 9.5 10.5 14.1 42.9 53.6 106.8 89.7 179.3 95.5v-168.6zM932.7 1143l145.9 84.2c28.7-58.9 36.7-143.2 0-219.2l-145.8 84.1c4.7 15.2 5.2 33.5-.1 50.9z"/><path class="st5" d="m660.9 967.3 118.9 68.5c9.1-7.6 19.3-13.4 30.4-17.5l-.1-137.3c-58.7 8.9-111.9 39.6-149.2 86.3zM884.7 881.3l-.2 137.6c11.1 4.1 21 9.4 30.1 17l119.2-68.5c-37.4-46.7-90.3-77.3-149.1-86.1zM1085.7 1092.7c-2.2-21-7.2-41.5-14.9-61.1l-119.3 68.6c1 5.7 1.5 11.4 1.5 17.2 0 2.3-.1 4.6-.3 7 33.7-9.2 69.3-18 105.2-25.6 8.8-2 18.1-4 27.8-6.1z"/><path class="st2" d="M847.5 1917.8c99.4-64.4 189.5-136.9 268.1-216.1 92.1-92.8 168.1-195.1 228-304.3 60.8-110.8 103.8-234.1 128.9-357.2 1.9-9.5 3.8-18.6 5.5-28.1l-138.6 9.9c-7.3 19.5-23.9 33.9-47.2 39.1l.2-.1c-.9.2-51.7 12.8-117.2 27.9.8 9.4 1.2 18.9 1.2 28.6 0 181.9-147.2 329.3-328.9 329.3v471z"/><path class="st5" d="M876.5 1117.4c0-16.1-13.1-29.3-29.3-29.3-16.2 0-29.3 13.2-29.3 29.3 0 16.2 13.1 29.3 29.3 29.3 16.2.1 29.3-13.1 29.3-29.3z"/><path class="st2" d="M884.4 1353.9c58.8-8.8 112.2-39.4 149.4-86.1L914.1 1199c-9 7.5-18.8 13.3-29.7 17.3 0 0 .2 137.6 0 137.6z"/><path class="st3" d="m661 1267.9 119.2-69c9 7.5 19.1 13.2 30.1 17.2l-.3 137.8c-58.8-8.8-111.8-39.4-149-86z"/><path class="st2" d="M1086.9 1117.7c0-3.3-.1-6.5-.2-9.7-9 2-17.7 3.8-25.8 5.5-36.4 7.7-71.6 16.6-103 25.2l112.8 65.1c10.7-27.4 16.2-56.2 16.2-86.1z"/><path class="st1" d="M615.8 1008.2c-33.8 71.4-31.6 151.8.5 219.3l145.5-84.5c-4.9-16.4-5.2-34.1-.1-51.1l-145.9-83.7z"/><path class="st5" d="m624.2 1204.1 118.6-68.9c-2.1-11.6-2-23.4 0-35.1l-119-68.3c-21.6 55.4-21.5 116.8.4 172.3zM966.5 581.7c-.3 6.4-2 28-2.5 34.4h94.8c-5.6-25.4-7.8-60.5-8.8-86.7 0 .1-1.5-54.7-1.5-54.7-.2-5.2 1.3-9.5 4.3-12.7 2.7-2.9 6.5-4.5 10.3-4.6 4.4-.1 11.9-.2 12.4 15.3l2.1 58.2c1 26.2 1.3 62.9-2.1 85.2h92.4c-1.5-8-4.2-27-4.8-32.3 11.6 24.6 36.4 37.2 69.7 37.2 19.7 0 35.1-7.1 46.3-14.1.4.7 4.8 9.2 4.8 9.2h170.7c-7.6-25.7-12.3-61.3-15.3-87.8 0-.1-23.3-191.3-23.3-191.3l-88-14.2c7.1 23.9 12.4 60.5 15.4 86.8 0 .1 13.2 122.2 13.2 122.2 2.5 22.3 4.8 46.1 4.6 70.1v3l-3.5-8.6c-6.1-14.9-10-35.8-12.1-64 0-.2-3.7-39.2-3.7-39.2-4.6-62.1-38.8-90.4-113-90.4-12.6 0-44.1 3.2-63.2 8.6l5.1 70.7 19.8-12.1c16.2-9.9 29.2-14.2 43.6-14.2 11.8 0 19.4 4.4 23 12.4-14.6 2.4-30.3 6.2-47.5 14-26.2 11.7-43.3 28.6-50.2 48.9 0-.6 0-1.1-.1-1.7 0-.1-3-64.8-3-64.8-1.6-41.9-27.7-68-68.1-68-18.7 0-35.2 5.3-49.6 15.7-.8-2.6-1.7-5-2.6-7.1l-3.6-7.5-75.9-3.5c3.4 13.7 8.1 51.8 9.2 66.7-4-20.6-14.8-42.6-35.2-56.8-15.5-10.8-34.9-16.5-56.3-16.5-28.2 0-56.6 11.8-76.1 31.7-19.2 19.6-29.8 46.4-30.9 78-7.2-7.8-16.7-14.6-28.5-20.1l-34.9-16.6-1.7-.8c-8.4-3.9-8.7-5.3-8.5-7.5.3-3.6 8.3-7.4 19.8-7.4 14.3 0 35.1 7.2 51.9 18l1.4-62.4c-12.4-5.6-29.8-10.2-54.6-10.2-12.9 0-37.9 1.8-59.3 14-5.9 3.3-11.3 7.2-16 11.4l1-18.3c-20.2-2.3-41.9-2.9-68.3 21.6-.2-1.7-2-10.2-3.7-15.1l-82 5c6.1 22 6.8 55.3 5.2 85 0 .1-1.6 31.3-1.6 31.3 0-.1-.2 3.6-.2 3.6-.9 16.4-1.9 33.1-3.5 48.7-6.8-21.2-14.4-50.1-20-74.1L423.3 321l-115.6 16.5c1 2.3 2.6 8.2 3.4 14 1 7.6.7 23.4-10.3 55.5-18.6 54.1-45.3 133.9-70.8 189-3.6 7.7-9.7 20.4-9.7 20.4h90.1c1.1-14.1 7.1-37.4 12.9-54.3 12.4-.3 45.1-1.2 60.2-1.6 2.8 13.1 6.5 31.6 7.3 42.5l1 13.5h181.3c-4.3-28.5-2.6-67.8-1.4-90.1 1.4-25.3 6.7-41.5 17.2-52.4 8.1-8.5 17.8-10.5 24.6-10.7-.9 33.9 21.4 49.7 41.2 59.7l35.4 18c12.7 6.7 12.5 10.1 12.3 12.3-.5 6.8-10.8 9.4-20.2 9.2-18.5-.4-44-13.2-72.8-42.9l-1.5 80.7c22.8 12.8 50.5 17.4 75.6 17.4 41.1 0 85.2-17.9 97-56.2 20.2 38.7 60.7 56.5 100.6 56.5 35.4-.1 62.1-11.6 85.4-36.3zm-621.4-80.8c4.7-13.4 8.4-24.2 16.4-47.1 4.8 22.9 7.3 34.9 9.7 46.3-10 .2-14.5.4-26.1.8zm506.3-20.3v-.7c0-27.5 10.3-38.2 20-39.1 2.9-.3 10.7-1 14.2 11.9 1.4 5 2 8.8 2 11.6 0 7.5-4 8.9-8.7 10.6l-.3.1s-14 5.4-26.9 10.3c-.2-1.5-.3-3.1-.3-4.7zm94.2 56.1c-17.1 14.6-29.8 24.3-50.5 23.9-16.3-.3-26.3-11.3-32.5-23.6 17.9-6.7 84.5-31.7 103.6-38.9.2 14 .5 32.7.5 32.7v.2c.4 11.1.5 21.9.3 32.6v.4l-21.4-27.3zm308.6 25.9c-15.8.6-19.2-10.1-19.4-17.9.1-8.1 2.8-20.2 27.8-27 .6 8.6 1.3 17.2 1.3 17.2l.5 7.8c.4 5.5.7 10.6 1.3 16.1-3.3 2.2-7.1 3.6-11.5 3.8z"/><path class="st1" d="M752.6 410.1c-8-2.9-20.9-5.8-40.3-5.8-16 0-36.3 3-52.4 12.1-18.4 10.4-31.3 27-32.4 44.6-1.7 26.2 12.7 38.6 33.2 48.9 14 7 27.2 13.8 35.6 18.1 11.3 5.9 21 13.1 20 26.1-1 13.2-13.2 22.2-34.2 22.2-17.4 0-42.4-10.2-59.4-25.7l-.7 40.7c14.8 7.4 39.1 11.9 61.1 11.9 38.1 0 85.3-17.5 86.1-62 .6-31.7-22.7-44.9-36.4-51.3-13.8-6.4-28.3-13.4-35.1-16.7-6.3-3.1-19.5-8-18.3-22.4 1.1-13.8 16.8-20.3 33.8-20.3 14.3 0 28.1 4 38.7 9.7l.7-30.1zM412.2 336.7l-87.3 12.5c2.2 12.5-1.2 34.3-10.7 62-18.4 53.6-48 139.8-71.4 190.7h55.1c2.7-16.3 7.4-32.8 15.1-54.1l81.7-2.1c3.6 16.1 9.1 41.7 10.2 56.2h72.9c-9-20.9-20.6-65.4-27.9-96l-37.7-169.2zm-87.4 179 40-115 23.7 112.9-63.7 2.1zM622.9 410.4l-1.9 38.7c-12.8-1.7-29.7 1.2-42.6 14.6-11.9 12.4-19.4 30.5-21.1 61.4-1.4 25.5-2.3 53.3-.2 76.8h-62.5c4.1-23.1 5.5-50.8 6.9-76.2l1.6-31.2c1.4-25.4 1.5-49.5-2.4-72.7l54.5-3.4c2.5 9.1 3.8 21.4 3.2 35 23.8-35.7 47.1-43.8 64.5-43zM1403.2 349.4l-56.3-9.1c5.5 23.6 7.7 42.3 10.6 67.6l13.2 122.2c2.9 25.5 4.9 48.6 4.7 71.8h60.9c-5.4-23.1-8.2-46.3-11-71.8l-22.1-180.7zM1151.3 601.9c-3.7-23.1-5-46.3-6-71.8l-3-64.7c-1.3-34.3-21-54.7-54.1-54.7-18.1 0-39.7 5.8-58.1 29.1-.5-4.9-3.3-21.2-6.8-28.4l-49.6-2.3c4.3 24 5.6 48 6.6 73.4l.7 47.6c.9 25.5.3 48.6-1.6 71.8h62.4c-3.7-23.1-5-46.3-6-71.8l-1.5-54.9c-.7-19.5 13.8-31.9 28.9-32.1 17.4-.2 25.9 11.3 26.6 28.7l2 58.2c1 25.5 1.3 48.6-.6 71.8h60.1zM1344.5 601.9c-7.5-18.4-11.2-42.8-13.1-68.3l-3.6-39c-3.4-46.1-22.8-77.7-99.1-77.7-13.2 0-32.5 2.1-47.9 5.6l2.6 35.4c15.5-9.5 31.5-16.3 51.1-16.3 20.3 0 37.9 8.3 39.6 38.6-19.7 2.2-38.1 5.6-58.8 14.9-23.2 10.4-47.2 29.2-44.9 61.1 2.5 35.3 29.2 50.7 62.7 50.7 25.3 0 43-13.1 52.5-22.9 1.7 6.5 4.2 13.1 7.1 18h51.8zm-90.4-25.3c-17.6.8-32.9-8.5-33.5-31.1-.6-20.3 13.4-38.2 55-45.1l2.4 33.3c.8 11.5 1.1 19.5 2.6 30.5-5.9 7.2-15.8 11.9-26.5 12.4zM922.4 415.8c-13.8-9.6-30.5-13.9-48.2-13.9-40.4 0-94.3 28.7-92.9 103.6 1.4 75.2 59 98.2 99.6 98.2 35.6 0 57.2-12.6 74.8-31.2l-12.5-15.8c-9.5 7.5-24.2 18.6-48.4 18.2-25.6-.5-42.4-19.5-50.7-46l112.1-42.1c-3.4-37.2-16.1-58.7-33.8-71zm-38.9 72.5L839 505.4c-1.1-8-1.7-16.3-1.8-24.7-.3-46.3 24.7-53.2 32.8-54 13.8-1.3 24.8 6.3 29.2 22.3 5 18 3.7 32.3-15.7 39.3z"/><path class="st6" d="M938.2 1923h74.3v74.3h-74.3z"/><path class="st6" d="M864.5 1923h74.3v74.3h-74.3z"/></svg>