<?xml version="1.0" encoding="utf-8"?>
<!-- Generator: Adobe Illustrator 19.2.1, SVG Export Plug-In . SVG Version: 6.00 Build 0)  -->
<!DOCTYPE svg PUBLIC "-//W3C//DTD SVG 1.1//EN" "http://www.w3.org/Graphics/SVG/1.1/DTD/svg11.dtd">
<svg version="1.1" id="Layer_1" xmlns="http://www.w3.org/2000/svg" xmlns:xlink="http://www.w3.org/1999/xlink" x="0px" y="0px"
	 viewBox="0 0 140.3 140.4" style="enable-background:new 0 0 140.3 140.4;" xml:space="preserve">
<style type="text/css">
	.st0{fill:#CB582C;}
	.st1{fill:#FFFFFF;}
	.st2{clip-path:url(#SVGID_2_);fill:#F7941E;}
	.st3{fill:#C9252C;}
	.st4{fill:#CC612C;}
	.st5{fill:#FDC689;}
	.st6{fill:#8DB7BA;}
	.st7{clip-path:url(#SVGID_4_);}
	.st8{clip-path:url(#SVGID_6_);}
	.st9{clip-path:url(#SVGID_8_);fill:#FFFFFF;}
	.st10{fill:#A0C8EA;stroke:#000000;stroke-width:0.3448;}
	.st11{fill:#007F3E;}
	.st12{fill:#BCBEC0;}
</style>
<path class="st0" d="M70.3,120.2c3.8,0,6-1.1,8.2-2.6c2.2-1.5,3.9-2.5,6.5-4c2.6-1.4,5.8-1.1,6.1-0.1c0.3,0.9,0,0.7-0.7,1
	c-0.8,0.3-1,0.4-1.6,0.1c-0.5-0.2-1.2-0.2-1.9-0.1c-0.7,0.1-0.5,0.8-0.4,1.3c0.1,0.4,0,0.7-0.3,1.5c-0.3,0.7,0.4,1,0.4,1
	s-0.7-0.2-1.6-0.7c-0.9-0.4-0.7-0.8-1.4-1.4c-0.7-0.6-0.6,0.5-0.2,1c0.4,0.4,0.5,0.6,0.1,1.3c-0.4,0.8,0.2,2.2,1,2.6
	c0.7,0.4,1.4,0.1,2.3-0.4c0.9-0.4,1.3-0.1,2.2-0.7c0.9-0.6,0.7-1.2,0.2-2c-0.5-0.8,0.7-0.8,1.4-0.7c0.7,0.1,1.2,0.2,2.2-0.1
	c1-0.4,1.3-1.3,1.3-2.8c0-1.4,0.6-2.4,1.2-3.3c0.6-0.9,1.2-0.7,1.6-1c0.5-0.3-0.4-0.8-0.7-1.3c-0.4-0.6-1.2-1.4-1.9-1.3
	c-0.7,0.1-1.3,0.3-2.2,0c-0.8-0.3-3.1-0.5-5.8-0.4c-2.8,0.1-6.3,1.7-8.5,3.7c-2.2,1.9-3.6,3.7-7.5,3.7c-3.9,0-5.3-1.8-7.5-3.7
	c-2.2-1.9-5.7-3.5-8.5-3.7c-2.8-0.1-5,0.1-5.8,0.4c-0.8,0.3-1.4,0.1-2.2,0c-0.7-0.1-1.6,0.7-1.9,1.3c-0.4,0.6-1.2,1-0.8,1.3
	c0.5,0.3,1,0.1,1.6,1c0.6,0.9,1.2,1.9,1.2,3.3c0,1.4,0.4,2.4,1.3,2.8c1,0.4,1.5,0.3,2.2,0.1c0.7-0.1,1.9-0.1,1.4,0.7
	c-0.4,0.8-0.7,1.4,0.2,2c0.9,0.6,1.3,0.2,2.2,0.7c0.9,0.5,1.6,0.8,2.3,0.4c0.7-0.4,1.4-1.9,1-2.6c-0.4-0.7-0.3-0.9,0.1-1.3
	c0.4-0.5,0.5-1.6-0.2-1c-0.7,0.6-0.5,1-1.4,1.4c-0.9,0.4-1.6,0.7-1.6,0.7s0.7-0.2,0.4-1c-0.3-0.8-0.4-1-0.3-1.5
	c0.1-0.4,0.2-1.1-0.4-1.3c-0.7-0.1-1.3-0.1-1.9,0.1c-0.5,0.2-0.8,0.2-1.6-0.1c-0.7-0.3-1-0.1-0.7-1c0.3-1,3.5-1.3,6.1,0.1
	c2.6,1.4,4.3,2.5,6.5,4C64.3,119.1,66.5,120.2,70.3,120.2z"/>
<path class="st1" d="M43.9,109.8l0.6-0.6c0,0,1,0.4,1.6,1.3c0.6,0.9,1.5,2.5,1.5,2.5l-0.5,0.5l-0.4-0.4c0,0,0-0.8-0.5-1.6
	c-0.4-0.8-0.5-1.1-1.2-1.3C44.3,110,43.8,110.2,43.9,109.8z"/>
<path class="st1" d="M48.5,112.9c-0.6,0.5-1.4,1-1.3,1.9c0.1,0.9,0.8,1.9,0.8,1.9s-0.1-0.6,0.2-1.1c0.4-0.5,0.6-0.8,0.6-0.8
	s-0.5-0.1-0.4-0.6c0.1-0.5,0.4-1.2,0.4-1.2L48.5,112.9z"/>
<path class="st1" d="M49.8,115.2l0.2,1.6c0,0,0.2,0.5,0.6,0c0.4-0.5,0.4-1,0.4-1s0.2,0.2,0.8,0.1c0.6-0.1,0.9-1,0.9-1s0-0.1-0.6,0.1
	c-0.6,0.1-1,0.2-1.4,0C50.3,114.7,49.8,114.7,49.8,115.2z"/>
<path class="st1" d="M51.3,116.9c0.5-0.6,0.8-0.6,1.2-0.7c0.4-0.1,0.4-0.5,0.5-0.8c0.1-0.3,0.5-1,0.5-0.4c0.1,0.7,0.4,1,0.4,1.9
	c0,1-0.1,1.4-0.6,1.4c-0.5,0-0.1-0.1-0.5-0.5c-0.4-0.4-0.7-0.4-0.7-0.4l0.2-0.8l-0.5,0.8L51.3,116.9z"/>
<path class="st1" d="M51.7,118.7c0,0-0.1-0.3,0.2-0.5c0.4-0.2,0.8-0.1,0.9,0.2c0.1,0.4-0.1,0.3-0.4,0.5
	C52,119.2,51.7,118.7,51.7,118.7z"/>
<path class="st1" d="M52.2,119.8c0.4-0.4,0.9-0.5,1.2-0.7c0.3-0.2,0.7-0.2,1,0c0.3,0.2,0.5,0,0.5,0.7c0,0.8-0.2,0.6-0.8,0.6
	c-0.6,0-1.1-0.1-1.4-0.2S52.2,119.8,52.2,119.8z"/>
<path class="st1" d="M55.7,118c0.4-0.2,1.2-1,1-0.5c-0.2,0.6-0.2,1.2,0,1.6c0.1,0.4,0.1,1-0.4,1.4c-0.5,0.4-1,0.6-1.1,0.1
	c-0.1-0.4,0.4-0.6,0.4-1s0.1-0.5-0.2-0.9C55.1,118.4,55.3,118.1,55.7,118z"/>
<path class="st1" d="M70.3,119.9c1.8,0,3.2-0.1,5.9-1.4c2.9-1.4,4.3-2.6,7-4.4c2.7-1.7,4.5-2,6.1-1.9c1.6,0.1,2.2,0,2.8-0.2
	c0.7-0.2,0.5-1,0.9-1.8c0.4-0.8,1-1.5,1.1-1.9c0.1-0.4-0.8-0.2-0.8-0.2s-0.5,0.6-0.9,1.4c-0.4,0.8-0.6,1.9-0.6,1.9l-0.4-0.1
	c0,0,0.2-0.4,0.6-1.4c0.4-1,0.5-1.9,0.5-1.9l-0.8-0.3c0,0-0.4,1-0.5,1.7c-0.1,0.7-0.3,1-0.3,1l-0.4-0.1c0,0,0.4-1.1,0.6-1.7s0-1,0-1
	l-1.3-0.1c0,0-0.4,0.6-0.6,1.6c-0.2,1-0.2,1.7-0.2,1.7l-0.3,0.3c0,0-0.1-0.4-0.1-1.1c0-0.7,0.4-2.1,0.4-2.1s0-0.2-0.4-0.3
	c-0.4-0.1-2.8,0-4.6,0.4c-1.8,0.4-5.8,3.1-7.4,4.6c-1.6,1.5-3.9,2.5-6.3,2.5c-2.4,0-4.7-1-6.3-2.5c-1.6-1.5-5.6-4.2-7.4-4.6
	c-1.8-0.4-4.3-0.5-4.6-0.4c-0.4,0.1-0.4,0.3-0.4,0.3s0.4,1.3,0.4,2.1c0,0.8-0.1,1.1-0.1,1.1l-0.3-0.3c0,0,0-0.7-0.2-1.7
	c-0.2-1-0.6-1.6-0.6-1.6l-1.3,0.1c0,0-0.2,0.4,0,1c0.2,0.6,0.6,1.7,0.6,1.7l-0.4,0.1c0,0-0.1-0.4-0.3-1c-0.2-0.7-0.5-1.7-0.5-1.7
	l-0.8,0.3c0,0,0.1,0.8,0.5,1.9c0.4,1,0.6,1.4,0.6,1.4l-0.4,0.1c0,0-0.2-1-0.6-1.9c-0.4-0.8-0.9-1.4-0.9-1.4s-0.9-0.2-0.8,0.2
	c0.1,0.5,0.7,1.1,1.1,1.9s0.2,1.6,0.9,1.8c0.7,0.2,1.3,0.4,2.8,0.2c1.6-0.1,3.4,0.1,6.1,1.9c2.7,1.7,4.3,2.9,7,4.4
	C67.1,119.9,68.5,119.9,70.3,119.9z"/>
<path class="st1" d="M96.7,109.8l-0.6-0.6c0,0-1,0.4-1.6,1.3c-0.6,0.9-1.5,2.5-1.5,2.5l0.5,0.5l0.4-0.4c0,0,0-0.8,0.4-1.6
	c0.4-0.8,0.5-1.1,1.2-1.3C96.3,110,96.7,110.2,96.7,109.8z"/>
<path class="st1" d="M92.1,112.9c0.6,0.5,1.4,1,1.3,1.9c-0.2,0.9-0.8,1.9-0.8,1.9s0.1-0.6-0.2-1.1s-0.6-0.8-0.6-0.8s0.5-0.1,0.4-0.6
	c-0.1-0.5-0.4-1.2-0.4-1.2L92.1,112.9z"/>
<path class="st1" d="M90.8,115.2l-0.2,1.6c0,0-0.2,0.5-0.6,0c-0.4-0.5-0.4-1-0.4-1s-0.2,0.2-0.8,0.1c-0.6-0.1-0.9-1-0.9-1
	s0-0.1,0.6,0.1c0.6,0.1,1,0.2,1.4,0C90.3,114.7,90.8,114.7,90.8,115.2z"/>
<path class="st1" d="M89.3,116.9c-0.5-0.6-0.8-0.6-1.2-0.7c-0.4-0.1-0.4-0.5-0.5-0.8c-0.1-0.3-0.4-1-0.5-0.4c-0.1,0.7-0.5,1-0.5,1.9
	c0,1,0.1,1.4,0.6,1.4c0.5,0,0.1-0.1,0.5-0.5c0.5-0.4,0.7-0.4,0.7-0.4l-0.1-0.8l0.5,0.8L89.3,116.9z"/>
<path class="st1" d="M88.9,118.7c0,0,0.1-0.3-0.2-0.5c-0.4-0.2-0.8-0.1-0.9,0.2c-0.1,0.4,0.1,0.3,0.5,0.5
	C88.6,119.2,88.9,118.7,88.9,118.7z"/>
<path class="st1" d="M88.3,119.8c-0.4-0.4-0.9-0.5-1.2-0.7c-0.3-0.2-0.7-0.2-1,0c-0.3,0.2-0.5,0-0.5,0.7c0,0.8,0.2,0.6,0.8,0.6
	c0.6,0,1.1-0.1,1.4-0.2C88.2,120,88.3,119.8,88.3,119.8z"/>
<path class="st1" d="M84.9,118c-0.4-0.2-1.2-1-1-0.5c0.2,0.6,0.1,1.2,0,1.6c-0.1,0.4-0.1,1,0.4,1.4c0.5,0.4,1,0.6,1.1,0.1
	c0.1-0.4-0.4-0.6-0.4-1s-0.1-0.5,0.2-0.9C85.5,118.4,85.3,118.1,84.9,118z"/>
<g>
	<path d="M54.8,111.7c0.2,0.1,0.2,0.1,0.2,0.1c0.1,0,0.1,0,0.2-0.2l0.8-1.6c0.2-0.3,0-0.4-0.1-0.5l0-0.1l1.2,0.6
		c0.3,0.1,0.9,0.5,0.6,1.1c-0.1,0.1-0.2,0.4-0.6,0.4c-0.3,0-0.5-0.1-1-0.3l-0.3,0.7c-0.2,0.3-0.1,0.3,0.1,0.5l0,0.1L54.8,111.7
		L54.8,111.7z M56.2,111c0.4,0.2,0.6,0.2,0.9-0.2c0.2-0.4,0.2-0.6-0.1-0.8c-0.1-0.1-0.2,0-0.2,0L56.2,111z"/>
	<path d="M60.7,115.2l-0.7-0.4l-0.1-1.5l-0.1-0.1l-0.4,0.7c-0.2,0.3-0.1,0.3,0.1,0.5l-0.1,0.1l-1.2-0.7l0.1-0.1
		c0.3,0.1,0.3,0.1,0.5-0.1l0.9-1.5c0.2-0.3,0.1-0.4-0.1-0.5l0.1-0.1l1.1,0.7c0.2,0.1,1,0.6,0.6,1.2c-0.3,0.4-0.7,0.3-0.9,0.3
		l0.1,1.4C60.6,115,60.7,115,60.7,115.2L60.7,115.2z M59.9,113c0.5,0.3,0.7,0.3,1-0.1c0.2-0.3,0.2-0.6-0.1-0.8
		c-0.2-0.1-0.2-0.1-0.3,0L59.9,113z"/>
	<path d="M65.3,116.5c-0.5,0.7-1.3,0.9-2,0.5c-0.7-0.4-0.9-1.3-0.5-2c0.5-0.7,1.3-0.9,2-0.5C65.5,114.9,65.8,115.7,65.3,116.5z
		 M63.5,115.3c-0.2,0.3-0.7,1.1-0.1,1.5c0.6,0.4,1.1-0.4,1.3-0.7c0.3-0.5,0.6-1.2,0.1-1.5C64.3,114.3,63.8,114.8,63.5,115.3z"/>
	<path d="M70.1,118.1c-0.3,0-0.4,0-0.4,0.3l-0.1,0.5c-0.2,0.1-0.8,0.2-1.1,0.1c-1-0.1-1.4-0.9-1.3-1.6c0.1-0.8,0.7-1.4,1.6-1.3
		c0.4,0,0.6,0.3,0.8,0.3c0.1,0,0.2-0.1,0.2-0.2l0.1,0l-0.1,0.9l-0.1,0c-0.1-0.4-0.4-0.9-0.8-0.9c-0.6-0.1-0.8,0.5-0.9,1.2
		c0,0.3-0.1,1.3,0.6,1.4c0.4,0,0.4-0.1,0.5-0.2l0-0.4c0-0.3-0.1-0.3-0.4-0.3l0-0.1l1.4,0.2L70.1,118.1z"/>
	<path d="M75.1,117.8l-0.8,0.3l-1.2-1l-0.1,0l0.2,0.8c0.1,0.3,0.2,0.3,0.5,0.2l0,0.1l-1.3,0.4l0-0.1c0.3-0.1,0.3-0.2,0.2-0.5
		l-0.5-1.7c-0.1-0.3-0.2-0.3-0.5-0.2l0-0.1l1.2-0.4c0.3-0.1,1.1-0.3,1.3,0.3c0.2,0.5-0.2,0.7-0.4,0.9l1.1,0.9
		C75,117.8,75,117.8,75.1,117.8L75.1,117.8z M73,117c0.5-0.2,0.7-0.3,0.5-0.8c-0.1-0.4-0.3-0.5-0.6-0.4c-0.2,0.1-0.2,0.1-0.2,0.2
		L73,117z"/>
	<path d="M75.6,114.5l2-1.2L78,114l-0.1,0.1c-0.4-0.4-0.7-0.4-1.1-0.1c-0.2,0.1-0.2,0.2-0.2,0.3l0.5,0.8c0.3-0.2,0.5-0.4,0.2-0.9
		l0.1-0.1l0.7,1.2l-0.1,0.1c-0.3-0.4-0.5-0.4-0.9-0.2l0.5,0.8c0.1,0.2,0.2,0.2,0.4,0c0.3-0.2,0.6-0.5,0.5-1.2l0.1-0.1l0.3,0.8
		l-2,1.2l-0.1-0.1c0.2-0.1,0.3-0.2,0.2-0.4l-1-1.7C76,114.5,75.8,114.5,75.6,114.5L75.6,114.5z"/>
	<path d="M81.1,111.9c-0.2-0.2-0.7-0.5-1.1-0.2c-0.2,0.1-0.3,0.3-0.2,0.6c0.1,0.2,0.2,0.2,0.6,0.2l0.7-0.1c0.2,0,0.5,0,0.8,0.4
		c0.2,0.3,0.2,0.9-0.4,1.3c-0.3,0.2-0.6,0.2-0.7,0.3c-0.1,0,0,0.1,0,0.2l-0.1,0.1l-0.5-0.8l0.1-0.1c0.3,0.3,0.7,0.6,1.2,0.3
		c0.4-0.3,0.2-0.6,0.2-0.7c-0.1-0.2-0.4-0.2-0.6-0.2l-0.3,0c-0.8,0.1-1-0.2-1.1-0.3c-0.1-0.2-0.3-0.7,0.3-1.2
		c0.3-0.2,0.5-0.2,0.6-0.2c0.1-0.1,0.1-0.1,0-0.2l0.1-0.1L81.1,111.9L81.1,111.9z"/>
	<path d="M84.6,110c-0.2-0.2-0.6-0.5-1-0.3c-0.2,0.1-0.3,0.3-0.2,0.5c0.1,0.2,0.2,0.2,0.6,0.2l0.7,0c0.2,0,0.5,0.1,0.7,0.5
		c0.2,0.3,0.2,0.9-0.5,1.2c-0.3,0.2-0.6,0.1-0.7,0.2c-0.1,0-0.1,0.1,0,0.2l-0.1,0.1l-0.5-0.9l0.1-0.1c0.3,0.3,0.7,0.6,1.1,0.4
		c0.4-0.2,0.3-0.6,0.2-0.6c-0.1-0.2-0.3-0.2-0.6-0.2l-0.3,0c-0.8,0-0.9-0.3-1-0.5c-0.1-0.2-0.2-0.8,0.4-1.1c0.3-0.1,0.5-0.1,0.6-0.2
		c0.1,0,0.1-0.1,0.1-0.2l0.1-0.1l0.4,0.8L84.6,110z"/>
</g>
<path d="M69.8,108.3c0.8,0,1.6-0.6,2.6-1.3c1-0.7,13.1-7.9,14.1-8.7c1-0.8,1.3-2.5,1.3-4.3c0-1.8,0-30.1,0-30.6
	c0-0.4-0.4-1.1-1.3-1.1H53.1c-1,0-1.3,0.7-1.3,1.1c0,0.5,0,28.8,0,30.6c0,1.8,0.4,3.4,1.3,4.3c1,0.8,13.1,8,14.1,8.7
	C68.2,107.7,69,108.3,69.8,108.3z"/>
<path class="st1" d="M87.4,63.5c0-0.1-0.1-0.3-0.2-0.4c-0.2-0.2-0.4-0.2-0.7-0.2H53.1c-0.3,0-0.5,0.1-0.7,0.2
	c-0.1,0.1-0.2,0.3-0.2,0.4v12.4h35.2V63.5z"/>
<rect x="51.9" y="75.3" width="35.8" height="0.2"/>
<g>
	<defs>
		<path id="SVGID_1_" d="M52.2,75.9V94c0,1.9,0.4,3.3,1.2,3.9c0.6,0.5,5.7,3.6,9.4,5.8c2.4,1.5,4.3,2.6,4.7,2.9l0.2,0.1
			c0.8,0.6,1.5,1.1,2.1,1.1c0.6,0,1.3-0.5,2.1-1.1l0.2-0.1c0.4-0.3,2.3-1.4,4.7-2.9c3.7-2.2,8.8-5.3,9.4-5.8c0.8-0.6,1.2-2,1.2-3.9
			V75.9H52.2z"/>
	</defs>
	<clipPath id="SVGID_2_">
		<use xlink:href="#SVGID_1_"  style="overflow:visible;"/>
	</clipPath>
	<path class="st2" d="M88.7,84.2c0,0-1-0.6-2.4-1.3c-1.3-0.8-3.5-0.7-5.5,0.1c-2,0.8-3.2,0.8-5.8-0.2c-2.6-1-5.4-0.4-7.2,0.3
		c-1.8,0.7-5.8,0.9-9.1-0.3c-3.2-1.2-5.9,0.6-8.5,2.1v-3.9c2.5-1.5,5.2-3.3,8.5-2.1c3.2,1.2,7.3,1,9.1,0.3c1.8-0.7,4.6-1.3,7.2-0.3
		c2.6,1,3.8,1,5.8,0.2c2-0.8,4.2-0.8,5.5-0.1c1.3,0.7,2.4,1.3,2.4,1.3V84.2z"/>
	<path class="st2" d="M49.4,89.3c1.8-1.2,3.8-2.2,5.2-1.9c1.4,0.2,2.5,0.2,3.1-0.2c0.7-0.4,1.9-0.3,3.2,0.2c1.3,0.4,3.7,0.4,5.8,0.1
		c2-0.3,6.7-0.2,8.5,0.1c1.9,0.3,4.3,0.6,6.1,0.2c1.7-0.4,3.4-1.2,4.7-0.5c1.3,0.7,2.4,1.3,2.4,1.3l0.3,2.5c0,0-1.2-0.1-2.3-0.4
		c-1.1-0.4-2.2-0.4-3.6,0.1c-1.4,0.6-2.2,1-4.6,0.2c-2.5-0.7-4.6-1-6.7-0.4c-2.1,0.6-4.5,0.2-7,0.6c-2.5,0.4-3.6,0.1-5.7-0.5
		c-2.1-0.6-3.8-0.7-5.3,0.2C52,91.9,50,92.8,50,92.8L49.4,89.3z"/>
	<path class="st2" d="M51.4,96.8c2.1-1.5,3.5-3.1,6.4-2.2c2.8,0.9,6.2,1.5,8.9,0.5c2.7-1,4.9-1.7,8.2-0.7c3.3,1,5.5,1.2,7.2,0.6
		c1.7-0.6,3.7-0.9,4.5-0.3c0.8,0.6,2,1.3,2,1.3l-0.9,1.9c0,0-1.9,0.1-5,0.7c-3.1,0.7-4.6,0.9-6.5-0.1c-1.9-1-3.8-1.8-7.2-0.6
		c-3.4,1.2-5.7,1.3-8.9,0.4c-3.2-0.9-5.5-0.1-7.3,1C51,100.6,51.4,96.8,51.4,96.8z"/>
	<path class="st2" d="M60.5,104.7c2.1-0.9,5.4-2.5,9.4-2.5c4,0,7.4,1.3,9.6,2.5c2.2,1.2-6.1,3.8-6.1,3.8l-5.5,0.2L60.5,104.7z"/>
</g>
<path d="M57.6,85.4c1.2-1.2,2.3-1.7,4.3-1.6c1.9,0.1,2.5,0.1,4,1c1.5,1,2.6,1.7,3.5,1.9c0.9,0.2,1.6-0.2,2.2-0.9
	c0.5-0.7,2-2.1,3.3-2.3c1.3-0.2,3.4-0.8,4.6-0.1c1.2,0.7,1.7,1.2,1.9,1.5c0.1,0.3,0.5,0.1,1,0.2c0.4,0.1,1.5,0.1,2.5,0.5
	c1,0.4,1.3,0.4,1.2,1c-0.1,0.6-1.4,1-2,0.7c-0.6-0.4-1.4-0.1-2.2,0.1c-0.7,0.3-2,0.1-2.8,0.1c-0.8,0-2.2,0.1-2.2,0.1S77.5,88,78,88
	c0.5,0.1,1.1,0.6,1.1,0.6s0.1,0.4-0.8,0.5c-0.8,0.2-1.8,0.1-1.8,0.1s-0.7,0.6-1.3,0.6s-1.6,0.5-1.6,0.5s-0.4,0.5-1.9,0.8
	c-1.6,0.3-2.8,0.2-3.5-0.1s-1.6-0.3-1.8-0.2c-0.2,0.1-0.7-0.4-1-0.8c-0.3-0.4-0.7-0.8-1.3-0.7c-0.6,0.1-1-0.2-1.2-0.4
	c-0.2-0.2-0.7-0.7-1-1c-0.2-0.3-1-0.3-1-0.3s0.1-0.4-0.3-0.7c-0.4-0.3-1.9,0.1-3.1,0.6C56.4,87.9,55.7,88,56,87
	C56.3,86,57.2,85.8,57.6,85.4z"/>
<path class="st1" d="M81,85c0,0-1-1-2.5-1.2c-1.4-0.1-3.4,0-4.8,0.6c-1.3,0.6-2.2,1.9-3.1,2.8c-0.9,0.9-2.3,1.3-2.7,0.5
	c-0.4-0.8-1.3-1.9-1.8-2.2C65.7,85,65.3,85,65.3,85l0.1,0.7c0,0,1,0.1,1.3,0.5c0.3,0.4,0.9,1,0.8,1.3c-0.1,0.3-0.5,0.4-1.2,0.3
	c-0.7-0.1-1-0.1-1-0.1l-0.6-0.6c0,0-0.3,0-1,0.1c-0.7,0.1-0.4,0.5-0.4,0.5l-0.6,0.3c0,0-0.1,0.4,0.9,0.4c1,0.1,1.3-0.1,1.6,0.4
	c0.4,0.5,0.4,1.5,1.2,1.3c0.8-0.2,1.4-0.6,2.2-0.1c0.8,0.4,2.5,0.8,3.1,0.5c0.6-0.3,0.8-0.8,0.9-1c0.1-0.3,0.5-0.4,0.7-0.7
	c0.2-0.3,0-0.4,0.2-0.7c0.2-0.3,0.9-0.2,1.6-0.6c0.7-0.4,1.2-0.5,1.7-0.5c0.5,0,0.4-0.6,0.4-0.6s0.7-0.4,1,0
	c0.3,0.4,0.4,0.7,1.1,0.3c0.7-0.4,1.3-0.5,2.1-0.3c0.7,0.2,0.8,0.4,1.5,0.3c0.7-0.1,1.9-0.1,1.9-0.1l0.1-0.4c0,0-1.1-0.5-2.5-0.5
	c-1.4,0-2.8-0.1-3.4-0.1c-0.6,0-1.2-0.4-1.2-0.4s-0.4-0.4-1.6,0c-1.2,0.4-1.9,0.1-2.8,0.8c-0.9,0.7-2,1.2-2,1.2l0.3-0.7
	c0,0,0.4-0.3,1.4-0.8c1-0.5,1.7-1.2,3-1.2c1.3,0,2-0.5,2.9,0C80.3,85,81,85,81,85z"/>
<path class="st1" d="M73.1,90c0,0,0.2-0.4,0.7-0.8c0.5-0.4,0.9-0.7,1.4-0.8c0.5-0.1,1-0.4,1.4-0.4c0.5,0,1,0.1,1.3,0.3
	c0.2,0.2,0.5,0.4,0.5,0.4s-0.1-0.1-1-0.2c-0.9-0.1-1,0.1-1.6,0.6c-0.5,0.5-0.4,0.1-1.1,0.2c-0.7,0.1-0.7,0.5-1,0.7
	C73.5,90.1,73.1,90,73.1,90z"/>
<path class="st1" d="M56.4,87.1c0.1-0.4,0.5-0.8,1.3-1.3c0.8-0.4,1.5-1,2.2-1.3c0.7-0.2,1,0.1,1.6,0.1c0.6,0,1-0.2,1.3,0.1
	c0.3,0.4,0.8,1.1,0.8,1.1s-1,0-1.9,0.1C60.8,86,60,85.5,59.4,86c-0.7,0.5-1.3,0.7-1.9,0.9C56.9,87.1,56.4,87.1,56.4,87.1z"/>
<path class="st1" d="M63.1,84.3l1.3,1c0,0,0.4,0.1,0.4-0.2c-0.1-0.3-0.5-0.3-0.8-0.4C63.7,84.4,63.1,84.3,63.1,84.3z"/>
<path class="st1" d="M64.7,86.3c0-0.2,0.5,0,0.5,0.2c0.1,0.2,0,0.4-0.2,0.3C64.8,86.6,64.7,86.5,64.7,86.3z"/>
<polygon class="st1" points="62.6,86.9 63.6,86.1 64.1,86.9 63.5,87.1 "/>
<path d="M69.6,88.3c0,0,0.2,0.7,0.9,0.7c0.7,0,1.3-0.2,1.6-0.4c0.4-0.2,0.7-0.5,0.7-0.5S72.2,88,71.6,88c-0.6,0-0.8,0.6-1.1,0.4
	C70.2,88.3,69.6,88.3,69.6,88.3z"/>
<path d="M73.3,87.4c0,0,0.7,0.1,0.8-0.2c0.1-0.3,0.2-0.9,0.2-0.9s-0.5,0.1-0.7,0.3C73.4,86.8,73.3,87.4,73.3,87.4z"/>
<path d="M58.6,74.9c-0.7,0-1.2-0.8-1.2-0.8s-0.2,0.3-0.4,0.6c-0.2,0.3-0.7,0.1-1.3-0.1c-0.6-0.1-0.8-0.8-0.8-0.8s-0.1-0.2,0.6-0.4
	c0.7-0.2,0.8-0.1,1.1-0.7c0.4-0.8,0.9-1.5,0.6-1.9c-0.3-0.4-0.8,0-0.8,0s-0.8,0.7-1.5,0.4c-0.7-0.3-0.8-0.9-1.1-1.7
	c-0.3-0.8-0.3-1.9,0.5-2.4c0.8-0.5,1.3-0.9,1.7-0.4c0.4,0.4,0.8,0.7,0.8,0.7s0.5-0.4,0.2-0.8c-0.3-0.4-0.1-1,0.3-1.6
	c0.4-0.5,0.9-1.1,1.2-1.1c0.5,0,1.2,0.9,1.5,1.4c0.3,0.5,0.7,1.2,0.2,1.7s-0.4,0.8-0.4,0.8s0.6,0.2,1-0.3c0.4-0.5,1.1-1.2,1.7-0.7
	c0.6,0.4,1.5,0.6,1.4,1.1c-0.1,0.5-0.5,1.4-0.5,1.4s-0.1,0.1-0.7,0.1c-0.5,0.1-0.5,0.2-0.7,0.7C62,70.7,62.7,71,62.7,71
	s-0.1,0.7-1,0.6c-0.8-0.1-1.3-0.6-1.3-0.6L60,71.6c0,0,0.1,0.3,0.7,0.7c0.6,0.4,0.1,1,0.9,0.9c0.8-0.1,1.4-0.1,0.8,0.5
	c-0.6,0.6-1.2,1.3-1.9,0.9C59.7,74.3,59.4,74.9,58.6,74.9z"/>
<path class="st3" d="M54.3,68.2c0.4-0.8,0.8-1.2,1.3-0.7c0.6,0.4,0.8,0.3,1,0.7c0.1,0.4,0.1,0.4,0.1,1c-0.1,0.5,0.1,0.9,0.1,0.9
	s-0.1,0.4-0.7,0.5c-0.5,0.2-1,0.2-1.3,0c-0.2-0.2-0.6-0.5-0.7-1C54.1,69,54,68.6,54.3,68.2z"/>
<path class="st3" d="M56.9,67.7c0,0,0.4,0.4,0.5,1c0.1,0.5,0.1,0.9,0.1,0.9l0.5,1l0.3-0.6l-0.3-1.3c0,0,0.1-0.4,0.4-0.3
	c0.3,0.1,0.7,0.2,0.7,0.7c0,0.5,0.1,1.1,0.1,1.1s0.3-0.5,0.6-1c0.3-0.4,0.5-0.9,1.1-0.8c0.6,0.1,1.1,0.5,1.1,0.5s-0.3,0.1-0.9,0.4
	c-0.6,0.3-0.9,0.9-0.9,0.9s0.1,0.3,0.5,0.5C61.2,71,62,71,62,71s-0.4-0.5-0.2-1c0.1-0.5,0.4-0.8,0.9-1c0.5-0.1,0.9-0.5,1-0.9
	c0.1-0.4-0.1-0.8-1.2-0.9c-1-0.1-1.4,0.7-2.2,0.9c-0.7,0.2-1.3,0.3-1-0.3c0.3-0.6,0.8-0.8,0.8-1.6c-0.1-0.8-0.8-1.3-1.1-1.6
	c-0.3-0.3-0.5-0.2-1,0.3c-0.5,0.5-0.7,1.1-0.4,1.6C58.1,67.5,56.9,67.7,56.9,67.7z"/>
<path class="st3" d="M55.4,73.8c0,0,0.8-0.2,1.2-0.4c0.4-0.2,0.7,0.3,0.7,0.3s0.5-0.4,0.8-0.7c0.3-0.3,0.7-0.7,0.7-0.7l0.3,1.1
	l0.4-0.9l0.6,1v-1.2c0,0,0.5,0.8,0.7,1c0.2,0.2,1,0.4,1,0.4s-0.4,0.4-0.9,0.5c-0.5,0.1-1.6,0.1-1.6,0.1s-0.3,0.6-0.7,0.4
	c-0.5-0.1-1-0.8-1-0.8s-0.5,0.8-1.2,0.7C55.7,74.4,55.4,73.8,55.4,73.8z"/>
<polygon points="58.5,65.8 58.3,66.5 58.5,67.2 59,66.7 "/>
<path d="M66.5,71.6l-1.6-0.4c0,0,0.3,0.6,0,1.3c-0.3,0.7-0.8,1.4-0.8,1.4l0.9,0.1l2.4-0.3l-1-1.3L66.5,71.6z"/>
<path d="M72.6,73.4l2.1-1c0,0,0.7,1,0.7,1.6c0,0.7-0.2,1.1-0.8,0.7c-0.6-0.4-1.8-0.9-1.8-0.9L72.6,73.4z"/>
<path d="M68.7,71.2c0,0,0.7-0.6,0.9-1c0.2-0.4,0.5-1.1,0.5-1.1l-1.9-0.7c0,0,0.5-0.3,0.5-0.6c0-0.3-0.1-0.7-0.3-1
	c-0.2-0.4-0.4-0.1-0.4-0.1s0.4-0.1,0.4,0.5c-0.1,0.5-0.2,0.8-0.2,0.8s-0.4-0.3-0.9-0.7c-0.5-0.4-0.4-1.4-0.4-1.4s-0.7,0.1-1.5-0.6
	c-0.8-0.7-1.5-1.9-1.5-1.9s0.1,0.9,0.5,1.6c0.4,0.7,0.5,0.7,0.5,0.7l-0.2,0.6l-0.4-0.5l-0.5,0.5c0,0,0.1,0.1,0.7,0.4
	c0.6,0.4,0.6,0.8,1.1,1.3c0.5,0.5,1.2,0.7,1.2,0.7l0.4,0.2l-1.3,0.5l0.4,0.2h1.2l0.1,0.8h0.5l0.4,0.9C68.3,71.4,68.6,71.6,68.7,71.2
	z"/>
<path d="M71.1,70.1c0,0,0,1,0.4,1s0.8-1,0.8-1l1,0.2l0.7-0.4l0.8-0.2c0,0-1-0.1-0.5-0.8c0.4-0.7,1.4-1,1.4-1s-0.3-0.5,0.1-0.9
	c0.4-0.4,1.4-0.9,1.4-0.9L76.6,66l-2.1,0.9l1.6-1.2c0,0,1-0.7,1.1-1.1c0.1-0.4,0.1-0.9,0.1-0.9s-0.6,0.7-1.2,1.2
	c-0.6,0.4-0.6,0.5-1.6,0.8c-1,0.3-1.6,0.5-1.6,0.5s0.2,0.1,0.1,1.1c-0.1,1-0.2,1.9-1,1.6c-0.7-0.4-1.6-0.2-1.6-0.2L71.1,70.1z"/>
<path d="M81.2,64.5c0.8,0,1.2-0.6,1.7-0.9c0.5-0.3,0.6-0.4,1.1-0.1c0.5,0.3,1.5,0.6,2,1c0.5,0.5,0.7,1,0.1,1.7
	c-0.5,0.7-0.5,1.2-1.3,1.8c-0.7,0.6-1.2,0.3-1.3,1c-0.1,0.8,0.1,1,0.5,1.4C84.6,71,85,71,85,71s0.2-0.1-0.1-0.5
	c-0.4-0.4-0.9-0.6-0.6-1c0.3-0.4,0.4-0.8,0.7-0.9c0.3-0.1,0.5-0.8,0.9-0.7c0.4,0.1,0.9,0.1,0.9,0.1l0.5-0.7v1l-0.5,0.8
	c0,0,0.1,0.4-0.5,0.4c-0.7,0-0.7,0.2-0.7,0.2s0.1,0.2,0.5,0.4c0.5,0.2,0.8,0.6,0.4,1c-0.4,0.4-0.9,0.7-0.9,0.7s0.5,0.4,0.8,1
	c0.3,0.5,0.4,0.9,0,1.6c-0.5,0.7-1,1.5-1.9,0.5c-1-1-0.9-1.5-0.9-1.5s-0.4,0.1-0.9-0.1C82.2,73,82,72.8,82,72.8l-0.7,0.1
	c0,0,0.4,0.9-0.3,1.3c-0.7,0.4-1,0.1-1.9,0.2c-0.8,0.1-1-0.1-1.2-0.6c-0.2-0.4,0.2-0.6,0.2-1c0.1-0.5,0.1-1.3,0.6-0.8
	c0.5,0.5,1,0.5,1,0.1c0.1-0.4,0.8-1,0.8-1l-0.3-0.5c0,0-0.5,0.8-1.6,0.5c-1.2-0.2-1.5-0.4-1.9-0.6c-0.4-0.2-1.2-0.6-1.2-0.6l1-0.5
	l-0.3-0.5l0.7,0.2l0.5-0.7l1.3,0.8c0,0-0.4-1.1-0.7-1.7c-0.2-0.6-0.5-1.2-0.4-1.7c0.1-0.5,0.5-1.2,0.5-1.2s0.4-0.3,1-0.3
	C80,64.1,81.2,64.5,81.2,64.5z"/>
<path class="st3" d="M76.7,69.8l0.8-0.7c0,0,0.1,0.4,0.8,0.4c0.7,0,1.3-0.2,1.3-0.2s0.2-0.3-0.1-0.8c-0.3-0.5-1-1-1-1.6
	c-0.1-0.5-0.4-1.3-0.2-1.8c0.2-0.5,0.5-0.8,1-0.6c0.5,0.1,0.6,0.5,0.1,0.8c-0.4,0.3-0.5,0.4-0.1,1s1,0.7,1.3,0.4
	c0.3-0.3,0.7-0.4,0.6-0.9c-0.1-0.4,0.1-1,0.5-1.2c0.4-0.1,1.1-0.5,1.6-0.6c0.5-0.1,1.2,0.1,1.6,0.6c0.4,0.5,1.3,0.5,0.9,1.2
	c-0.4,0.7-0.5,1.2-1.3,1.9c-0.8,0.7-1.1,0.8-1.1,0.8l-0.8-0.1L82,68.6l0.7,0.5l0.5,0.4c0,0-0.3,0.3,0.2,1c0.5,0.7,1,0.9,1,0.9
	s0.8,0.2,1-0.2s-0.2-0.5-0.5-1c-0.2-0.4-0.4-0.8-0.1-1.1c0.4-0.4,0.5-0.8,1.1-0.8c0.6,0,0.7,0.3,0.7,0.3s-0.5,0-1,0.3
	c-0.4,0.3-0.8,0.6-0.4,0.9c0.4,0.3,0.7,0.6,0.7,1c-0.1,0.4-0.4,0.6-0.8,0.9c-0.4,0.3,0,0.6,0.3,0.9c0.3,0.3,1,1,0.5,1.5
	c-0.4,0.4-1.9,0.3-1.3-0.1c0.6-0.4,0.8-1,0.4-0.8c-0.4,0.3-1,0.1-1,0.1s-0.4-0.4-1-0.7c-0.7-0.3-1-0.8-1.4-0.5c-0.4,0.2-1,0.7-1,0.7
	l0.1,0.6c0,0-0.2,0.3-1,0.4C79,74,78.6,74,78.5,73.7c-0.1-0.4-0.2-0.9,0.3-1c0.5-0.1,1-0.1,1.4-0.7c0.4-0.5,1-0.7,0.8-1.3
	c-0.2-0.5-0.3-0.7-1-0.5c-0.7,0.2-1.9,0.2-2.3,0.1C77.1,70.2,76.7,69.8,76.7,69.8z"/>
<path d="M79.6,68.6c0,0,1-0.4,1.9-0.9c0.8-0.5,1.9-1.5,1.9-1.5l0.1,0.4c0,0-0.8,0.6-1.7,1.2c-0.9,0.6-1.9,0.9-1.9,0.9L79.6,68.6z"/>
<polygon points="81.5,67.7 81.4,68 82.4,68.6 82.6,68.3 "/>
<polygon points="82.3,64.5 83.1,64.9 82.9,65 82.3,65 "/>
<polygon points="80.9,66 81.9,66.4 81,66.8 80.2,66.3 "/>
<polygon class="st1" points="80.3,64.8 80,65.6 80.6,66 80.8,65.5 "/>
<path class="st3" d="M68,65.3l0.8,0.6l0.3-1.1h2L70.7,66l1.1,0.1c0,0,0.1-0.5,0.2-1c0.1-0.5,0.6-0.4,1-0.7s0.8-0.4,0.8-0.4l0.1,0.4
	l-0.4,1.1l-0.1,0.8c0,0-0.9,0.5-1,0.3c-0.1-0.2,0,0.6,0,0.6V69c0,0-1.7,0.4-1.6,1.4c0.1,1-0.1,0.5,0.7,0.7c0.7,0.1,1,0.3,1.6,0.4
	c0.5,0.1,1.1,0.1,1.1,0.1l0.4,0.6l-0.2,0.6l1,1.3l-0.4,0.6l-1-0.4l-1.1-0.9l-0.8,0.1l0.3-1.2l-0.7,0.2L71.3,73l-0.6-0.1l0.2-0.4
	l-1.2-0.1L68.6,73l-0.9-0.4l-1,0.6l0.5,0.5c0,0-1.3-0.1-1.9,0c-0.6,0.1-1,0.2-1,0.2s0.4-0.5,0.7-1.1c0.2-0.6,0.4-1.4,0.4-1.4
	s0.2,0.1,0.9,0.4c0.7,0.2,1.3-0.1,1.3-0.1l1.3-0.1l0.7-1.4L69,68.8l-0.1-1c0,0-0.1-0.4-0.6-0.8s-1-1-1-1l-1-0.2l0.3-1.6l0.8,0.4
	L68,65.3z"/>
<path class="st4" d="M66.9,54.5c-1.5,1.5-3.1,2.3-3.1,2.3l-0.2-1.3c0,0-0.7,0.1-0.7,0.7c0.1,0.6,0.2,1.4-0.7,2.1
	c-1,0.7-1.8,0.9-2.5,0.2c-0.8-0.7-1.2-1-0.5-1.4c0.7-0.4,0.5-1,0.5-1l-0.5-0.5c0,0,0.3,0.7-0.4,1c-0.7,0.2-1,0.4-1,0.4
	s0.7,0.2,0.6,1.4c-0.1,1.2-0.1,3.2-2.6,3.6c-2.5,0.4-4.3,0.1-5-0.4c-0.7-0.6-1-2-0.1-2.5c1-0.4,1-0.4,1.5,0.1c0.5,0.5,0.8,1,0.3,1
	c-0.5,0.1-0.8,0.4-0.8,0.4s0.3,0.5,0.8,0.2c0.4-0.3,0.8-0.6,0.6-1.3c-0.2-0.7-0.3-1.7-1.3-1.6c-1,0.1-1.9-0.4-1.9-0.4s0,0.6-0.4,1
	c-0.4,0.4-1.3,1-1.7,0.6c-0.4-0.4-0.7-1.4-0.5-1.6c0.1-0.2-0.5-0.1-0.9-0.3c-0.4-0.2-1-1-0.8-1.6c0.1-0.5,0.2-2.2-0.3-1.3
	c-0.5,0.9-0.9,1.3-1.6,1c-0.7-0.3-1-0.1-1.5-0.1c-0.5,0-1.4-0.3-0.9-0.6c0.5-0.3,1-0.4,0.7-0.8c-0.4-0.5-0.7-1.6-1.4-1.6
	c-0.7,0.1-1.4,0.6-0.7,0.8c0.8,0.2,1.2,0.6,1,0.9c-0.1,0.3-1.3,1.2-1.9,0.6c-0.7-0.6-1.4-1.5-1.4-1.5s-0.8,0.5-1,1.5
	c-0.1,1-0.4,2.2,0.6,3.1c1,0.8,1.4,0.7,1.9,0.3c0.5-0.4,0.4-1.5-0.1-1c-0.5,0.5-1.5,0.2-1.1-0.7c0.4-0.9,1.3-1.5,2.3-1
	c1,0.5,1,2.1,1.1,2.5c0.1,0.4-1.4,4.9-1.4,4.9L31,59.2l0.7-6.4c0,0-0.9-0.1-1.8,0.1c-0.9,0.1-1.8-0.2-2.2-1.3
	c-0.4-1-0.2-2.2,0.7-2.5c0.9-0.3,1.5-0.8,1.1-1c-0.4-0.2-0.8-1.1,0.3-1c1.1,0.1,2.2,0.5,2.2-0.4s-0.1-1.3-0.1-1.3l1.1,0.1l-0.5-0.7
	c0,0,0.5-0.1,1.3-0.1c0.8,0,1-0.1,1-0.1s0-0.4-0.1-0.9c-0.1-0.5,0.1-1.1,0.1-1.1s0.8,0.3,1.4,0.4c0.7,0.1,1.2,0.6,1.6,0.4
	c0.4-0.2,0.8-0.4,0.8,0.1c0,0.4,0.2,0.7,0.8,1.1c0.6,0.4,1.4,0.4,1.4,0.4s-0.7-0.9-1-1.5c-0.2-0.6-0.4-0.9-0.7-1.2
	c-0.3-0.3,0.4-2.1,0.4-2.1l4.8-4l0.4,2.6c0,0-1.4,0.3-1.8,1c-0.4,0.7,0.2,1,0.2,1l0.5-0.8c0,0,0.1,0,0.8,0.6c0.7,0.6,1,0.4,1.4,0.2
	c0.4-0.2,1-0.4,1.3,0.3c0.2,0.7,0.1,1.2,0.6,0.9c0.5-0.3,0.9-0.4,0.8,0.2c-0.1,0.6,0.2,0.8,0.7,0.5c0.5-0.4,0.8-0.8,1.9,0.1
	c1,0.8,0.9,1.6,0.9,1.6l0.9-0.7l0.2,0.9c0,0,0.3,0.5,0.6,0.9c0.3,0.4,0.7,0.8,0.7,0.8s0.3-1,1.4-1.2c1.1-0.1,2.6,0.2,1.9,1.3
	c-0.7,1-1.1,1.6-1.1,1.6s3.7-0.8,6.5-2.5c2.8-1.7,5.8-1.6,5.8,3.4C69.4,53.6,68.4,53,66.9,54.5z M31.2,50.8c0.4,0.1,1.5,0.2,1.5,0.2
	l1.1-1.3c0,0-1.3,0.1-1.8,0.2c-0.5,0.1-1.2,0.1-1.6,0.2c-0.4,0.2-0.7,1-0.7,1S30.8,50.6,31.2,50.8z"/>
<path class="st5" d="M33.3,52.1c0,0-0.6,2.6,0.1,4.3c0.7,1.6,1.8,2.8,3.2,2.8c1.4,0,2.7-0.5,3.1-0.8c0.4-0.3,0.8-0.2,0.5,0.1
	c-0.3,0.4-1.6,1.4-3.7,1.3c-2.2-0.1-3.5-1.9-3.7-3.9C32.6,54,33.3,52.1,33.3,52.1z"/>
<path d="M64.1,43.7c-1-0.2-1.3-0.4-1.9,0.1c-0.6,0.6-0.7,0.9-1.3,0.8c-0.6-0.1-0.7,0-1.2,0.8c-0.5,0.8-1.2,1.4-1.5,1.6
	c-0.3,0.1-0.1,0.5,0.4,0.5c0.5,0,0.7,0.3,0.3,0.6c-0.5,0.3-0.8,1.3,0,1.3c0.7,0,0.7-0.1,1.5-0.2c0.8-0.1,1.2-0.3,1.6-0.7
	c0.4-0.5,2.8-2.5,2.8-2.5l1-2.3L64.1,43.7z"/>
<path class="st4" d="M45.6,75.2c0,0.7-0.1,2.2-0.8,2.7c-0.7,0.4-1,1.7-0.6,2.5c0.4,0.7,0.8,1.1,1.4,0.8c0.6-0.3,1.1-0.6,1.1-0.6
	l-0.7,0.9l0.1,0.5c0,0-0.5,0.3-0.8,0.7c-0.3,0.4-0.7,1.5-0.7,1.5s-0.3,1.3-1,1.4c-0.7,0.1-2,0.2-2,0.2s0.1-0.6,0.3-1
	s0.3-0.8,0.3-0.8s-0.7,0.4-1.2,0c-0.5-0.4-0.7-0.9-0.7-1.2c0-0.3,0-0.7-0.5-0.5c-0.4,0.1-2.5,1-4.6-0.5c-2.1-1.4-2.2-3.4-1.8-4.5
	c0.4-1.1,0.7-1.1,1.3-1c0.7,0.1,1.4-0.1,1.4,0.2c0,0.4-0.5,1-0.8,0.8c-0.4-0.2-0.6,0.2-0.5,0.6c0.2,0.4,0.6,1.3,1.2,1.3
	c0.6,0.1,1.3-0.1,1.3-0.1s-0.7-0.4-0.8-1c-0.1-0.6-0.1-1.4,0.4-1.6c0.4-0.2,0.7-0.7,0.7-0.7s-0.8-0.8-0.4-1.4
	c0.3-0.6,0.9-1.2,1.6-1.3c0.8-0.1,1.5,0.2,1.5,0.2s-0.1,0.4-0.5,0.7c-0.4,0.4-0.4,0.8,0.3,1.2c0.7,0.4,1.4,0.2,1.8-0.3
	c0.4-0.5,0.6-1.6,0.6-1.6l1,0.5L45.6,75.2z"/>
<path d="M45.5,84.1c0.7,0.7,1,0.3,2-0.1c1-0.5,0.6-0.8,0.6-1.4c0-0.7-0.7,0.2-1.5,0.2c-0.8,0.1-1.1-0.3-0.8-1.2
	c0.5-1.5,2.3-1.2,3.2-0.4c0.8,0.7,0.7,1.6,0.1,2.8c-0.6,1.2-1.4,1.8-2.7,2.2c-1.3,0.4-2.2-0.4-2.9-1c-0.7-0.7,0.1-2,0.1-2
	C44.2,82.8,44.7,83.5,45.5,84.1z M46.9,81.8c0.4-0.1,0.7-0.1,0.7-0.1l0.1-0.7c0,0-0.3-0.4-0.7-0.2c-0.4,0.1-0.7,0.7-0.7,0.7
	S46.5,81.9,46.9,81.8z"/>
<path d="M34.8,49.1c0,0-2,1-3.3,3c-1.3,2-1.9,4.6-1.5,7c0.4,2.4,1.3,3.8,2.2,5c0.8,1.2,0.6,1.9,0.5,2.1c-0.1,0.2-0.1,0.4-0.1,0.4
	s-0.6-0.4-1.3,0c-0.8,0.4-1.2,2,0,2.4c1.2,0.4,1.4-0.2,1.7-0.7c0.3-0.4,0.7-0.8,0.7-0.8s0.4,1,1,1.2c0.7,0.1,2.1,0.4,2.5,0.7
	c0.4,0.3,0.7,1,0.7,1s-0.2,0.8-0.7,0.5c-0.5-0.4-0.5-0.8-0.5-0.8s-0.3-0.3-1,0c-0.7,0.3-0.4,1,0.5,1.4c1,0.5,1.8,0.5,2.5,0.1
	c0.7-0.4,1-0.9,1.8-0.4c0.7,0.4,1.3,1.2,1.5,2c0.1,0.8,1.3,1,2.2,1.5c0.9,0.5,1.1,0.7,1.6,1.4c0.4,0.7,0.7,1,0.1,1.3
	c-0.6,0.4-0.8,0.5-0.8,0.5s0.8,0.4,1.5,0c0.7-0.4,1.3-1,1.4-2.1c0.1-1.1-0.1-1.7-0.6-2.3c-0.4-0.6-0.5-1.3-0.2-2.2
	c0.3-0.8,0.5-1.3,1-1.6c0.5-0.2,1-0.5,1-0.5s-0.7-0.2-1.1-0.3c-0.4-0.1-1-0.3-0.4-0.5c0.5-0.2,2.5-0.4,2.8-2.5s-0.4-4.9-1.9-4.3
	c-1.7,0.7,0.3,1.7-0.8,2.7c-0.5,0.5-1.7,0.9-1.6,0c0.1-0.8,1.6-2.8,2.2-3.7c0.3-0.5-0.2-1.1-0.7-1.5c-0.5-0.4-1.4,0.1-1,0.5
	s0.5,0.4,0.4,0.8c-0.1,0.4-0.3,0.4-0.7,0.1c-0.4-0.4-0.7-0.9-0.4-1.3c0.3-0.4,0.2-1.1-0.1-1.3c-0.4-0.1-0.6-0.2-0.6-0.8
	c0-0.5,0.2-1-0.6-0.7c-0.8,0.3-1,0.4-1.3,0.6c-0.3,0.1-0.5,0.3-0.6-0.2c-0.1-0.5-0.3-0.5-0.6-0.7c-0.3-0.1-0.6-0.1-0.7,0.1
	c-0.1,0.2-1.1,0.1-0.8,0.7c0.3,0.6,0.7,0.7,0.4,1.3c-0.4,0.6-1,1-2.5,1.2c-1.6,0.1-4.1,1-5.4-2.4c-1.3-3.4,0.4-5.5,0.9-6.4
	C34.2,49.8,34.8,49.1,34.8,49.1z"/>
<polygon class="st6" points="31.3,54.6 30.8,55.3 30.8,55.8 31.3,56.1 31.8,55.2 31.3,55.1 "/>
<polygon class="st6" points="30.6,54.7 30.4,56.1 30.1,56.5 "/>
<path class="st6" d="M30.6,56.5l0.8,0.2l0.4,0.6l-0.5,0.5c0,0-0.2,1,0.1,1.6c0.4,0.6,0.5,2.2,1.1,2.5c0.6,0.4,1,0.2,1,1
	c0,0.8,0.4,1.6,0.4,2.8c0,1.2-0.5,1.8-1.3,2.3c-0.9,0.5-1.6,0.5-1.7,0.1c-0.1-0.4,0.1-0.8,0.1-0.8s0.2,0.6,0.8,0.5
	c0.6-0.1,1.3-0.3,1.5-1.1c0.1-0.8,0.2-1.9-0.4-2.5c-0.7-0.7-1.3-1.8-2-3.7c-0.7-1.9-0.6-2.9-0.5-3.3C30.4,56.9,30.6,56.5,30.6,56.5z
	"/>
<path class="st6" d="M33.8,61.6l0.2-0.4l0.4,0.4l0.4,0.5l-0.5,0.4l0.6,0.9v0.8c0,0,0.7,0.9,1,1c0.4,0.1,1,0.6,1,0.6l-0.1,0.7
	c0,0-0.2-0.1-0.8-0.4c-0.6-0.3-0.8-0.5-0.8-0.5v0.4c0,0,0.3,0.8,0.9,1c0.6,0.2,1.2,0.5,1.2,0.5l0.9,2.1c0,0-0.9-0.4-1.7-0.6
	c-0.8-0.2-1.8-0.3-2-0.7c-0.2-0.4-0.4-0.8-0.4-0.8s0.5-1,0.6-1.6s-0.3-1.8-0.3-1.8l-0.4-0.2l0.1-0.5l-0.1-0.6L33.7,62L33.8,61.6z"/>
<polygon class="st6" points="37.2,71.5 37.8,71.6 37.8,71.3 "/>
<polygon class="st6" points="38.3,70.5 38.7,71.1 39.1,70.8 39,70.1 38.7,70.1 "/>
<path class="st6" d="M38.1,67.9l0.6,1.3l0.7-0.4l0.3,1l-0.1,0.6c0,0,0.5,0.1,1,0.4c0.4,0.3,1.2,0.7,1.4,1.1c0.2,0.4,0.6,0.9,0.6,0.9
	s0.1-0.4,0.4-0.8c0.3-0.4,0.4-0.9,0.4-0.9l-0.9-0.6l-0.2,0.5h-0.5l0.1-0.5l0.1-0.3c0,0-0.3-0.6-0.5-1.2c-0.2-0.6-0.7-1.1-0.7-1.1
	s-0.6-0.1-1.3-0.1C38.8,67.9,38.1,67.9,38.1,67.9z"/>
<polygon class="st6" points="37.5,65.9 37.8,66.9 38.1,66.8 38,66 "/>
<polygon class="st6" points="36.7,63.6 37.3,64.1 37.7,64.7 37.3,64.9 36.8,64.2 "/>
<polygon class="st6" points="38.5,63.9 38.4,64.2 39,64.6 "/>
<polygon class="st6" points="38.6,66.3 38.6,67.1 40.2,66.8 39.9,66.2 39.2,65.9 39.3,66.4 39,66.5 "/>
<polygon class="st6" points="40.5,66 40.8,66.5 41.4,66.2 40.8,65.8 "/>
<polygon class="st6" points="41.7,66.3 41.4,65.5 41.7,65 42.2,65.7 "/>
<path class="st6" d="M38.5,63.3c0,0,0.1,0.4,0.8,0.4c0.7,0.1,1-0.4,1-0.4L39.9,63c0,0-0.1,0.4-0.4,0.3C39,63.2,38.5,63.3,38.5,63.3z
	"/>
<polygon class="st6" points="40.3,62.7 40.6,63.2 40.8,62.9 "/>
<polygon class="st6" points="40.5,61.9 41.4,62.6 41.7,61.7 "/>
<polygon class="st6" points="41.1,61.4 41.7,61.1 41.7,60.7 "/>
<path class="st6" d="M41,60.5l0.5-0.6c0,0,0.1-0.2-0.1-0.6c-0.3-0.4-0.7-0.3-0.8,0.1C40.4,59.9,40.3,60.4,41,60.5z"/>
<path class="st6" d="M31.8,57.9c0,0,0.4,0.7,0.7,1.4c0.3,0.7,0.7,0.9,0.7,0.9h-0.6c0,0-0.4-0.5-0.5-1C31.9,58.8,31.8,57.9,31.8,57.9
	z"/>
<path class="st6" d="M32.8,58.8c0,0,1.1,1.6,2.2,2.3c1.1,0.7,2.3,1.4,2.9,1.3c0.6-0.1,0.8-0.5,0.4-0.7c-0.4-0.2-1.9-0.7-1.9-0.7
	l0.5-0.1l1.8-0.2l-0.3,0.5l0.7,0.2c0,0,0.4-0.2,0.6-0.6c0.1-0.4,0-1,0-1l-3.2,0.6l-0.5-0.4l-1.6-0.2l1.2,0.7l-0.4,0.2l-0.8-0.4h-0.4
	L32.8,58.8z"/>
<path class="st6" d="M41.4,57.2c0,0,0.3,0.6,0.2,1.3c-0.1,0.7,0.3,0.8,0.6,1.2c0.3,0.4,0.8-0.1,0.8-0.1l1.2-0.9v0.5l-1.9,1.6l1,0.1
	l-0.1,0.4l-0.5,0.2l-0.2,0.8l0.3,0.3l-0.4,0.3l-0.1,0.7l0.3,0.7L42,64.4v0.5l1,0.4c0,0,0.4,0.1,0.8-0.4c0.4-0.6,0.3-1.7,0.8-1.7
	c0.5,0,0.9,0.1,1,0.5c0.1,0.4,0.4,0.1,0.4,0.1s-0.1-0.3-0.1-0.7c0.1-0.4,0.5-1.1,0.5-1.1l0.8-0.5l0.1-0.4c0,0-1,0.5-1.5,0.1
	c-0.5-0.4-0.4-0.6-1-0.6c-0.6,0-1-0.3-0.4-0.7c0.5-0.4,1.1-0.4,1-1c-0.1-0.5-0.7-0.4-0.8-1c-0.1-0.5-0.1-1.2-0.7-0.7
	c-0.6,0.4-1.1,1-1.3,0.6c-0.2-0.4-0.7-1-0.7-1L41.4,57.2z"/>
<polygon class="st6" points="41.8,67.8 42.9,70 42,70.3 42.1,68.9 41.7,68.1 "/>
<path class="st6" d="M42.3,67.7l0.1-0.6l1.2-0.8l1.9,0.4l0.2-0.2L44.4,66c0,0,0.4-0.5,0.4-0.9C45,64.7,45,64,45,64s0.7,1,1.3,1.3
	c0.7,0.2,1.4,0,2-0.6c0.6-0.6,0.7-1.2,0.3-1.5c-0.4-0.3-0.2-0.7-0.2-0.7s0.4-0.5,0.9,0.1c0.4,0.6,1,1.2,0.5,2.1
	c-0.4,0.9-1,1.4-1.6,1.7c-0.6,0.3-1,0.4-1,0.4l0.2,0.2c0,0,1-0.1,1.5-0.5c0.4-0.4,0.9-0.7,0.9-0.7l-0.1,1.5c0,0-0.5,0.7-1,0.8
	c-0.5,0.1-1,0.1-1,0.1l-1.1-0.8L46,67.7l0.7,0.4c0,0-0.6,0.1-0.9,0.4c-0.3,0.3,0.3,1,0.3,1l0.2,0.8l0.6-0.7l0.7,0.2l-0.2,0.4
	l-0.6,0.1l0.2,0.7c0,0,0.1,0.4-0.2,1c-0.4,0.5-0.8,0.4-0.8,0.4s0.1-0.2-0.3-1.1c-0.4-0.9-0.7-1.4-1-1.3c-0.4,0.1,0,0.5,0.1,1
	c0.1,0.4-0.1,1.3-0.1,1.3s-0.1,0-0.5-1.1c-0.5-1.1-1-1.7-1.2-2.3C42.6,68.3,42.3,67.7,42.3,67.7z"/>
<path class="st6" d="M43.8,72.3c0,0,0.1,0.7,0.9,1.3c0.8,0.5,1.1,0.5,1.1,0.5l0.8,1.8c0,0-0.8-0.2-1.2-0.9c-0.4-0.7-1.3-0.7-1.3-0.7
	l-0.9-1L43.8,72.3z"/>
<path class="st6" d="M45.1,73.2l1.9,1.2l0.1-0.4c0,0-0.5-0.2-1-0.7C45.8,72.9,45.1,73.2,45.1,73.2z"/>
<path class="st6" d="M44.7,84.5c-0.2,0.3,0,0.7,0.4,1c0.4,0.3,0.8,0.7,1.3,0.4c0.5-0.2,0.6-0.4,1-0.8c0.4-0.4,0.7-0.5,1.1-1.1
	c0.4-0.6,0.4-0.9,0.4-1.5c-0.1-0.6-0.5-1.3-0.5-0.7c0,0.6,0.4,1.5-0.4,2.2c-0.7,0.7-1.2,1.1-1.9,0.7C45.5,84.4,44.7,84.5,44.7,84.5z
	"/>
<path class="st4" d="M47.6,81.7c-0.3,1.2-1,2.9-0.8,4.3c0.2,1.4,0.5,2.8,0,4.3c-0.5,1.6-0.9,1.8-1.3,2.2c-0.4,0.4-0.4,0.4-0.1,1
	c0.4,0.6,0.4,1.9-0.4,2.2c-0.7,0.4-1.2,0.2-1.7,0.5c-0.5,0.3-0.4-0.6-0.9-0.2c-0.5,0.4-0.8,0.5-0.9-0.2c-0.1-0.8-0.3-1.3-0.8-0.8
	c-0.4,0.5-0.9,0.8-1.5,0.1c-0.6-0.7-0.9-1.6-0.1-1.9c0.7-0.3,0.5-1.3,1.1-1c0.6,0.4,1.2,1,1.2,0.1c0-1,0.1-2.1,0.1-2.9
	c0-0.8,0.8-1.4,1.4-1.1c0.7,0.3,1.4-0.4,1.9-0.4c0.5-0.1,0.8-0.4,0.5-0.9c-0.3-0.4-0.3-1.4-0.1-2.3c0.2-0.9,0.7-2.8,1-3
	C46.7,81.7,47.6,81.7,47.6,81.7z"/>
<g>
	<path class="st5" d="M43.8,89.6c0.7-0.2,1.2,0.5,0.5,0.8c-0.7,0.3-0.8,0.1-1.3,0.9c-0.5,0.7-0.8,0.5-0.5,1.6c0.2,1.1,0.4,2,0.4,2
		l-0.7-0.6c0,0-0.5-1-0.1-2.4C42.5,90.7,43.2,89.8,43.8,89.6z"/>
	<path class="st5" d="M44.8,90.7c-0.8,0.1-1.2,0.6-1.4,1.2c-0.2,0.6-0.2,1-0.2,1s0.6-0.5,1-0.8C44.7,91.8,45.6,90.7,44.8,90.7z"/>
	<path class="st5" d="M45.8,91c-0.5,0.1-1.5,1.2-1.4,2.1c0.1,0.9,0.1,1.6-0.2,1.9c-0.2,0.4,0.2,1,0.5,0.7c0.3-0.4,0.2-0.9,0.1-1.8
		C44.8,93,45,92.4,45.6,92C46.1,91.6,46.3,90.9,45.8,91z"/>
	<polygon class="st5" points="43.3,93.7 43.7,94.2 43.6,94.5 43.2,94.3 	"/>
	<polygon class="st5" points="41.5,93.8 42.1,95 41.5,94.9 	"/>
	<path class="st5" d="M40.5,93.7c0,0-1.3,0.2-1.1,0.7c0.2,0.4,0.8,0.6,0.8,0.6s-0.3-0.6,0-0.7C40.5,94.1,40.5,93.7,40.5,93.7z"/>
	<polygon class="st5" points="44.7,88.9 45.4,88.6 45.2,88.9 	"/>
	<polygon class="st5" points="45.6,89.2 46.2,89.5 46.2,88.9 	"/>
</g>
<path class="st5" d="M39,76.6c0.9,0.3,1.7,0.2,2.2-0.1c0.5-0.4,1-0.9,1-0.9s-1.6,0.6-2.3,0.2c-0.7-0.4-1.1-0.6-1-1
	c0.1-0.4,0.7-0.8,0.7-0.8s-0.4-0.5-1,0c-0.7,0.4-0.7,1-0.8,1.6C37.7,76.1,38.4,76.4,39,76.6z"/>
<path class="st5" d="M37.4,77.1c1,0,1,0.4,2,0.3c1-0.1,1.6,0,2.1-0.5c0.4-0.5,1-1.1,1-1.1s0.4,0.1-0.2,0.8c-0.6,0.6-1.2,1.2-1.6,1.4
	c-0.4,0.2-0.9,0.3-0.9,0.3s0.6,0.3,1.3-0.1c0.7-0.4,1.3-1,1.5-1.3c0.2-0.4,0.4-0.9,0.4-0.9s0.2,0.5-0.1,1.1
	c-0.3,0.6-0.7,1.6-1.6,2.2c-0.9,0.6-1.3,0.9-2,1c-0.7,0.1-1.2-0.1-1.2-0.1l1-0.8L38.4,79c0,0-0.5,0.2-1-0.4S37.4,77.1,37.4,77.1z"/>
<path class="st5" d="M42.7,77.5c0,0-0.6,1.6-1.8,2.2c-1.2,0.6-3,1.2-3.6,0.8c-0.6-0.4,0.1-0.8,0.1-0.8s-0.1-0.1-0.8-0.1
	c-0.7,0.1-1.4-0.4-1.7-1c-0.3-0.6-0.3-1.3-0.3-1.3s-0.7,1-0.1,1.5c0.5,0.5,1.5,0.8,1.9,1.2s0.6,0.9,1.6,0.8c1-0.1,2.2-0.1,3.2-0.9
	C42.2,79.2,42.7,77.5,42.7,77.5z"/>
<path class="st5" d="M34.2,79.9c-0.1-0.4,0.1-0.7,0.7-0.4c0.6,0.4,0.7,0.6,1.2,1c0.5,0.4,1.4,0.7,2.5,0.5c1.1-0.1,2.4-0.1,2.8-0.9
	c0.4-0.8,1.4-2.2,1.4-2.2s-0.3,1-0.7,2c-0.4,1-1.4,2.2-3,2.2s-3.2-0.1-4-0.7C34.5,80.8,34.5,80.6,34.2,79.9z"/>
<path class="st5" d="M43.8,75.3c-0.3,1-0.3,1.6-0.1,2.2c0.1,0.6,0.5,0.4,0.9-0.1c0.4-0.6,0.8-1,0.7-1.3
	C45.2,75.7,43.8,75.3,43.8,75.3z"/>
<path class="st5" d="M43.3,78.7c-0.2,0.8-0.2,1.2-0.4,2.1c-0.1,0.9-0.4,1.3,0.1,1.5c0.4,0.1,0.7,0,1.1,0.2c0.4,0.2,1-0.2,1-0.2
	s0.4-0.5,0-0.7c-0.4-0.1-0.9-0.4-1.2-1.1c-0.3-0.7-0.2-1.2-0.1-1.5C43.9,78.7,43.5,78.1,43.3,78.7z"/>
<path class="st5" d="M42,81.1c0,0-0.4,0.6-0.6,1.2c-0.2,0.6-0.1,1.3,0.2,1.3c0.3,0,1,0.1,1,0.1s0.4-0.7-0.1-0.8
	c-0.5-0.1-0.7-0.4-0.5-0.8C42.3,81.7,42,81.1,42,81.1z"/>
<polygon class="st6" points="59.7,47.2 60.3,46.7 60.4,47 59.9,47.5 "/>
<polygon class="st6" points="60.8,46 61.7,45.5 61.1,46.4 60.6,46.5 "/>
<path class="st6" d="M63.1,44.6l1-0.8h-1.5c0,0-0.3,0.9-0.9,1c-0.6,0.1-1.3,0.4-1.3,0.4L60,45.8c0,0,0.3-0.1,1.1-0.3
	c0.8-0.2,1.1-0.4,1.1-0.4L63.1,44.6z"/>
<polygon class="st6" points="59.4,49 59.7,48.4 60.3,48.6 "/>
<path class="st5" d="M50.7,54.7c0.8,0.7,1.7,0.7,2.2,0.8c0.5,0.1,1.3,0.8,1.8,1.2c0.4,0.4,0.7,1,0.1,1.5c-0.6,0.4-1,0.4-1.5-0.1
	c-0.5-0.4-0.6-0.6-1.3-0.5c-0.7,0.1-1.3,0.1-1.8-0.6c-0.5-0.7-0.7-1.3-1-1.3c-0.3,0-0.5,0.2-0.2,0.7c0.3,0.4,0.4,0.7-0.1,1.2
	c-0.4,0.4-0.9,0.6-1,0.2c-0.1-0.4,0.2-0.4,0.5-0.4c0.2,0,0.2-0.6-0.2-0.7c-0.4-0.1-0.7,0.4-1.2,0.1c-0.5-0.3-0.9-0.5-1-1.3
	c-0.1-0.7,0.1-1.8-0.2-2c-0.4-0.2-1,0.1-1.2,0.6c-0.2,0.5-0.4,0.5-0.7,0.5s-0.4-0.1-0.2-0.6c0.1-0.5-0.1-1.3-0.2-0.7
	c-0.1,0.5-0.4,1-0.8,1.1c-0.4,0.1-0.7,0.1-0.7,0.1s0.6-0.3,0.6-0.7c0-0.4-0.1-0.8-0.4-1c-0.3-0.3-0.5-0.5-0.1-0.8
	c0.4-0.3,0.9-0.7,0.7-0.9c-0.2-0.1-0.9,0-1.1,0.3c-0.2,0.3-0.5,0.6-1,0.4c-0.4-0.2-1-0.3-1.5,0c-0.5,0.3-0.3,0.9,0,1.2
	c0.3,0.3,0.8,0.9,0.4,1c-0.4,0.1-0.8-0.2-1.1-0.7c-0.3-0.4-0.6-0.7-0.3-1.1c0.3-0.4,1.1-1.2,0.8-1.3c-0.3-0.1-0.3-0.1-0.7,0.4
	c-0.5,0.6-1.3,1.4-1.3,1.4s-0.4,0.3-0.6,1.3c-0.2,1-0.4,1.6-0.2,2.3c0.2,0.7,0.5,1.1,0.5,1.1s-0.8-0.8-1-1.9c-0.1-1-0.7-2.3,0.5-3.6
	c1.1-1.3,2.5-2.4,4.7-2.3c2.2,0.1,3.4,0.3,4.7,0.9c1.3,0.6,2.6,1,2.6,1l-2.9,0.1l-1,0.5l6.4-0.1c0,0,1.3,0.1,1.9,0.2
	c0.6,0.1,0.3,0.4-0.5,0.6c-0.8,0.1-1.4,0.6-1.6,1C50.3,54.2,50.5,54.5,50.7,54.7z"/>
<path class="st5" d="M51.3,54c-0.1-0.4,0.4-0.6,1-0.7c0.6-0.1,1.4-0.5,1.4-0.5s-0.5,0.3-0.2,1c0.2,0.7,1,1.2,1,1.2s0.1-0.1-0.2-0.6
	c-0.4-0.4-0.4-1.2-0.4-1.2l1,0.1c0,0-0.1,1,0.4,1.7c0.6,0.7,1.4,1.6,1.6,2.5c0.1,1,0.3,1.9,0,2.3c-0.3,0.4-0.5,0.9-0.5,0.9
	s1-0.7,1.1-1.3c0.1-0.6,0.2-1.9,0.2-1.9s0.4,0.5,0.4,1c0,0.4-0.2,1.6-0.9,2.2c-0.7,0.6-1.4,1-2.4,1c-1,0-2.5-0.1-2.5-0.1l1.4-0.6
	l0.8-0.1h1c0,0,0.7-0.4,0.6-1.2c-0.1-0.7-0.3-1.5-0.3-1.5l-1.4,1.4L54,59.1l1.7-1.3c0,0,0.1-0.5-0.2-0.9c-0.4-0.4-0.1-1.1-1.3-1.4
	C53,55.1,51.5,55.4,51.3,54z"/>
<path class="st5" d="M51.3,59.6c0,0-1,0.1-0.6,0.4c0.4,0.4,0.6,0.6,0.7,0.2C51.6,59.9,51.6,59.6,51.3,59.6z"/>
<path class="st5" d="M35.8,51.5c-0.7,1.2-1.1,2.8-0.4,4.5c0.7,1.6,2.5,2.5,2.5,2.5s-0.7,0.6-2.1,0.2c-1.3-0.4-2.2-1.9-2.2-3.4
	c-0.1-1.5-0.4-3.1,0.8-4.4c1.1-1.3,1.8-1.9,3.4-2.2c1.6-0.3,2.8-0.4,3.8,0c1,0.4,1.9,0.6,1.9,0.6s-2.2-0.1-3.6,0.1
	C38.4,49.4,36.6,50.1,35.8,51.5z"/>
<path class="st5" d="M39.3,48c0,0-2-1.6-4-1.3c-1.9,0.3-3.3,0.6-4.3,1c-1,0.4-2.6,1.8-2.6,1.8s-0.7,0.3-0.2,0.9
	c0.5,0.6,0.7,0.3,1.1-0.2c0.4-0.5,0.7-0.5,1.5-0.5c0.7,0,1.5-0.1,1.7-0.7c0.2-0.6,1.1-1.6,1-1c-0.1,0.6,0.8,1.3,1.5,0.8
	c0.7-0.5,1.3-0.9,1.8-1C37.3,47.7,39.3,48,39.3,48z"/>
<path class="st5" d="M32.8,46.1c0.9,0.1,3.4-0.1,4.9,0.5c1.5,0.6,5.3,2,7.3,2.8c2,0.8,3.9,1.3,5.8,1.7c1.9,0.4,3,0.5,3,0.5l-0.7-0.5
	c0,0-3.1-0.7-4.5-1.6c-1.3-0.9-1.9-1.5-2.9-2.7c-1-1.2-1.7-2.2-1.7-2.2s-0.6,1-1.9,0.9c-1.3-0.1-2.5-0.7-3.1-1.3
	c-0.6-0.6-0.7-0.6-1.7-0.7c-1-0.1-1.7-0.4-1.7-0.4s0.1,1-0.1,1.3c-0.2,0.3-0.7,0.3-1.3,0.4c-0.6,0.1-0.4,0.6-0.4,0.6L32.8,46.1z"/>
<path class="st5" d="M53.7,50.9v-0.5c0,0-1-0.5-1.6-1c-0.5-0.5-0.8-1-0.8-1s0.1,0.6-0.2,0.8c-0.4,0.2-0.9,0-1.2-0.7
	c-0.3-0.8-1-1.4-0.9-2.5c0.1-1,0.2-1.4,0.2-1.4s-0.6-1.1-1.1-1.6c-0.5-0.4-1.3-1.4-1.3-1.4s-0.8-0.1-1.2-0.1s-0.9-0.5-1.2-0.6
	c-0.3-0.1-0.5,0.5-1,0.4c-0.5-0.1-0.9-1-0.9-1s-0.2,0.9,0.7,2.4c0.9,1.5,2.7,3.3,3.7,4.3c1,1,2.2,2.2,3.6,2.8
	C51.8,50.4,53.7,50.9,53.7,50.9z"/>
<path class="st5" d="M41.9,44.6c0.8,0.5,2.1-0.1,1.3-1c-0.7-0.9-1-1.5-1.1-2.2C42,40.5,42.2,40,42.2,40s-1,0.9-1.4,1.8
	C40.3,42.7,40.5,43.7,41.9,44.6z"/>
<path class="st5" d="M40.2,41.9c0,0,0.3-0.8,0.8-1.3c0.5-0.4,1-0.9,1-0.9s0-0.2-0.6-0.1c-0.6,0.1-1.1,0.7-1.1,0.7l-0.5,1.3
	L40.2,41.9z"/>
<path class="st5" d="M48.4,42.9c0,0,0.6,0.4,0.8,0.7c0.2,0.3,0.4,0.7,0.4,0.7s0.2-0.4,0.4-0.6c0.1-0.2,0.2-0.5,0.2-0.5
	s-0.3,0.2-0.8,0c-0.5-0.2-1-0.8-1-0.8V42.9z"/>
<path class="st5" d="M51.1,42.9c0.4,0.3,1,0.4,0.9,1.3c-0.1,0.9-0.1,2.4-0.1,2.4l0.4,0.6c0,0,0.1-0.8,0.1-1.5c0.1-0.7,0.6-1,0.6-1
	s0.4,0.3,0.7,0.9c0.3,0.6,0.5,0.6,0.5,1.3c0,0.7,0.2,1.1,0.2,1.1s0.3-0.1,0.3-0.8c0-0.6,0.1-1,0.6-1.3c0.5-0.3,1.2-0.3,1.2-0.3
	s-0.6,0.7-0.2,1.4s0.4,1.1,0.4,1.1l0.6,0.1l0.7-0.3v0.3c0,0-0.4,0.1-1,0.5c-0.6,0.4-0.9-0.1-0.9-0.1l-0.5-0.8l-0.4,0.4l0.1,0.5
	l1,0.6l0.7,0.4c0,0-1,0-1.9,0.1c-0.9,0.1-0.7-0.6-1.3-1c-0.5-0.4-0.9-1-0.9-1l-0.4,0.1l1.3,1.6c0,0-0.9,0.4-1.6-0.6
	c-0.7-1-0.9-1.4-1-2c-0.1-0.6-0.2-1.1-0.2-1.1s-0.4,0.7-0.3,1.6c0.1,0.9-0.1,1.3-0.1,1.3s-0.7-1.3-1-2.1c-0.3-0.8-0.1-1.5,0.2-2.2
	C50.2,43.9,51.1,42.9,51.1,42.9z"/>
<path class="st5" d="M61.5,49.2c-1,1-1.9,1.6-2.6,1.8c-0.7,0.2-1.1,0.2-1,0.7c0.1,0.4,0.4,0.5,1.3,0.3c1-0.2,2.1-1.1,2.4-1.5
	C62,50.1,61.5,49.2,61.5,49.2z"/>
<path class="st5" d="M57.3,52.8c1.4-0.1,2.3-0.7,2.7-0.5c0.4,0.1,0.8,0.1,0.8,0.7c0,0.6-0.1,1.4,0.3,1.2c0.5-0.2,1.2-0.6,1.5,0
	c0.3,0.6,0.9,0.7,0.3,1.3c-0.6,0.6-0.3,1-0.4,1.2c-0.1,0.2-0.3-0.2-0.7-0.8c-0.5-0.5-0.8-1.3-0.8-1.3s0,0.9,0.2,1.6
	c0.2,0.7,0.6,0.6,0.4,1.3c-0.2,0.7-0.7,1.2-1.2,1c-0.5-0.2-0.1-0.5,0.1-0.8c0.2-0.3,0.7-0.3,0.4-0.9c-0.3-0.6-0.5-0.6-0.9-0.9
	c-0.4-0.3-0.4,0-0.1-0.8c0.2-0.7,0.4-2.5,0.1-1.9c-0.3,0.5-0.1,1.3-0.7,1.6c-0.5,0.3-1,1.1-1,1.1s0.1-0.6-0.2-0.8
	c-0.3-0.2-1.3-0.4-1.6-0.4C56,54.6,56,53.9,56,53.9s0.6,0,0.7-0.3C56.9,53.3,57.3,52.8,57.3,52.8z"/>
<path class="st4" d="M47.4,53.5c0,0,1-0.7,1.3-1.2c0.4-0.5-0.3-1.1-0.7-1.6s-0.9-1-0.2-1.3c0.7-0.4,1.3-0.7,1-1.2
	c-0.4-0.5-0.7-1.1-1.6-1c-0.9,0.1-2.5,1.3-1.4,1.6c1.1,0.3,1.8,0.8,1,1.1c-0.8,0.3-1,0.6-0.8,0.9c0.3,0.3,1,0.4,0.8,0.9
	C46.5,52.1,46.8,53.4,47.4,53.5z"/>
<path d="M39.3,41.3c0.4-1.4,0.3-1.7,0.3-2.5c0-0.7,0.5-1.6,0.6-1.1c0.1,0.5,0.6,0.4,1,0c0.4-0.4,0.6-0.8,0.4-1.3
	c-0.2-0.5-1.1-1.4-0.4-1.5c0.7-0.1,1.8-0.1,1.3-0.5s-1.2-0.9-0.1-1.1c1-0.2,1.5-0.1,1.8-0.4c0.3-0.4,0.8-0.8,0.4-1.1
	c-0.4-0.4,0.6-1.3,1-0.7c0.4,0.7,0.1,1.3,1.3,1.1c1.2-0.2,2.4-0.7,1.4-1.1c-1-0.4-1.3-0.7-0.2-0.8c1-0.1,2.1,0.2,2,0.7
	c-0.1,0.4,1.3,0.2,0.8,0.7c-0.4,0.4-0.5,1-0.5,1.9c0,0.8-0.7,1.1-0.3,1.5c0.4,0.4,0.7,0.8,0.9,1.3c0.1,0.4,1.2-0.6,1.3,0
	c0.1,0.6-0.1,1.4-0.4,1.6c-0.3,0.2-0.6,0.3-0.6,1.1s0.1,2-0.6,2.4c-0.8,0.4-1.4-0.1-1.7-0.1c-0.3,0.1-0.5-0.8,0-0.7
	c0.5,0.1,1.1-0.9,0.5-1c-0.7-0.1-1.5-0.4-1.8,0.2c-0.3,0.7-0.8,1.3-1.1,1.1c-0.4-0.2-0.4-0.5-0.5-1c-0.1-0.4-0.4-0.5-0.7-0.1
	S44,40.5,44,39.8c0-0.7-0.1-1.6-1.4-0.9c-1.3,0.7-1.4,0.5-1.9,1.3C40.2,41,39.3,41.3,39.3,41.3z"/>
<path class="st6" d="M44.1,33.3l-0.2,1.3h-0.7c0,0,0.2,0.8-0.1,1.4C42.9,36.7,42,37,42,37s0.2-0.4,0-0.8c-0.2-0.4-0.4-0.9-0.4-0.9
	s0.6-0.1,0.8-0.2c0.2-0.1,0.9-0.5,0.5-0.8c-0.4-0.3-0.4-0.7-0.4-0.7L44.1,33.3z"/>
<path class="st6" d="M45,31.6c0.2,0.9-0.1,1.4-0.4,2c-0.3,0.6-0.3,1.9-0.3,1.9l0.6-0.5v-1l1.5,0.1l-0.6-0.7l0.4-0.2l1.4,0.3l1.5-1.6
	l0.3,0.2l-1.1,1.9c0,0,0.2,0.8,0.7,0.4c0.5-0.4,0.7-1,0.8-1.8c0.1-0.8-0.1-2.3-0.8-1.5c-0.7,0.8-1.6,1.9-2.3,1.7
	c-0.7-0.1-1.3,0.4-1.3,0.4s0.2-0.6,0.2-1.1c0-0.5-0.2-1-0.2-1S45,31.2,45,31.6z"/>
<path class="st6" d="M45,35.9c0.3,0.3,0.6,0.4,0.9,0s0-0.9-0.4-0.7C45.1,35.4,44.7,35.5,45,35.9z"/>
<path class="st6" d="M46.6,34.9c-0.1-0.2,0.2-0.9,0.7-0.4c0.5,0.5,1,1.2,0.9,2.1c-0.1,0.9-0.1,1.3-0.4,1.6c-0.3,0.2,0.1,0.7,0.1,0.7
	l-0.7,0.9l-0.4-0.7l-0.6-0.3l0.1-0.8c0,0,0.7-0.6,0.7-1.6C47,35.3,46.6,34.9,46.6,34.9z"/>
<path class="st6" d="M49.1,35.3c0,0,0.9-0.7,1,0.1c0.1,0.7,0.3,1.5,0.9,1.5c0.6,0,0.8,0.2,0.5,0.8c-0.3,0.5-1,0.7-1.5,0.1
	c-0.5-0.6-1-1-1-1.5C49.2,35.8,49.1,35.3,49.1,35.3z"/>
<path class="st6" d="M48.6,38.2c0.2-0.6,0.9-0.9,1.2-0.4s0.5,1.1,0.9,1.1c0.4,0,0.7,0.8,0.3,1.3c-0.4,0.5-1,0.5-1,0.5
	s0.1-0.2,0.1-0.7c0.1-0.5-0.3-1.3-0.9-1.1c-0.6,0.2-1,0.3-1-0.1C48.2,38.5,48.4,38.6,48.6,38.2z"/>
<path class="st6" d="M40.9,39.2c0.5-0.8,0.7-1.3,1.7-1.3c1,0.1,1.5,0.3,1.5,0.3l-0.7,0.7c0,0-0.4-0.3-1-0.4c-0.6-0.1-0.7,0.3-1,0.6
	C41.1,39.4,40.9,39.2,40.9,39.2z"/>
<path class="st6" d="M44.6,36.8c0.4-0.2,0.8-0.4,1.2,0c0.4,0.4,0.5,1,0.1,1c-0.4,0-0.6-0.1-0.7-0.5C45.1,36.9,44.6,36.8,44.6,36.8z"
	/>
<path class="st4" d="M71,49.3c0-5,3-5.1,5.8-3.4c2.8,1.7,6.5,2.5,6.5,2.5s-0.4-0.5-1.1-1.6c-0.7-1,0.8-1.4,1.9-1.3
	c1.1,0.1,1.4,1.2,1.4,1.2s0.4-0.5,0.7-0.8c0.3-0.4,0.6-0.9,0.6-0.9l0.2-0.9l0.9,0.7c0,0-0.1-0.8,0.9-1.6c1-0.8,1.3-0.5,1.9-0.1
	c0.5,0.4,0.9,0.1,0.8-0.4c-0.1-0.6,0.2-0.5,0.7-0.2c0.5,0.3,0.4-0.2,0.6-0.9c0.2-0.7,0.9-0.5,1.3-0.3c0.4,0.2,0.7,0.4,1.4-0.2
	c0.7-0.6,0.8-0.6,0.8-0.6l0.5,0.7c0,0,0.6-0.4,0.2-1c-0.4-0.7-1.8-1-1.8-1l0.4-2.6l4.8,4c0,0,0.7,1.8,0.4,2.1
	c-0.3,0.3-0.4,0.6-0.7,1.2c-0.2,0.6-1,1.5-1,1.5s0.8-0.1,1.4-0.4c0.6-0.4,0.8-0.7,0.8-1.1c0-0.4,0.4-0.3,0.8-0.1
	c0.4,0.2,0.9-0.2,1.6-0.4c0.7-0.1,1.4-0.4,1.4-0.4s0.2,0.6,0.1,1.1c-0.1,0.5-0.1,0.9-0.1,0.9s0.2,0.1,1,0.1s1.3,0.1,1.3,0.1
	l-0.4,0.8l1.1-0.1c0,0-0.1,0.5-0.1,1.3c0,0.8,1,0.5,2.2,0.4c1.1-0.2,0.7,0.7,0.3,1c-0.4,0.2,0.2,0.7,1.1,1c0.9,0.3,1,1.5,0.7,2.5
	c-0.4,1-1.3,1.4-2.2,1.3c-0.9-0.1-1.8-0.1-1.8-0.1l0.7,6.4l-8.8,3.3c0,0-1.5-4.6-1.4-4.9c0.1-0.4,0.1-1.9,1.1-2.5
	c1-0.5,1.9,0.1,2.3,1c0.4,0.9-0.6,1.2-1.1,0.7c-0.5-0.5-0.6,0.5-0.1,1c0.4,0.5,0.8,0.5,1.9-0.3c1-0.8,0.8-2.1,0.6-3.1
	c-0.1-1-1-1.5-1-1.5s-0.8,0.9-1.4,1.5c-0.7,0.6-1.8-0.3-1.9-0.6c-0.2-0.3,0.3-0.7,1-0.9c0.7-0.2,0.1-0.7-0.7-0.8
	c-0.7-0.1-1,1.1-1.4,1.6c-0.4,0.4,0.1,0.5,0.7,0.8c0.5,0.3-0.4,0.6-0.9,0.6c-0.5,0-0.8-0.1-1.5,0.1c-0.7,0.3-1-0.1-1.6-1
	c-0.5-0.9-0.5,0.8-0.3,1.3c0.1,0.5-0.4,1.3-0.8,1.6c-0.4,0.2-1,0.1-0.9,0.3c0.1,0.2-0.1,1.2-0.5,1.6c-0.4,0.5-1.3-0.2-1.7-0.6
	s-0.4-1-0.4-1s-0.9,0.5-1.9,0.4c-1-0.1-1,0.9-1.3,1.6c-0.2,0.8,0.1,1,0.6,1.3c0.4,0.3,0.7-0.2,0.7-0.2S88.5,61,88,60.9
	c-0.5-0.1-0.1-0.5,0.3-1c0.4-0.5,0.5-0.5,1.5-0.1c1,0.5,0.6,1.9-0.1,2.5c-0.7,0.6-2.5,0.8-5,0.4c-2.5-0.4-2.5-2.4-2.6-3.6
	c-0.1-1.2,0.6-1.4,0.6-1.4s-0.3-0.1-1-0.4c-0.7-0.2-0.4-1-0.4-1l-0.4,0.5c0,0-0.1,0.6,0.5,1c0.7,0.4,0.2,0.8-0.5,1.4
	c-0.7,0.7-1.6,0.4-2.5-0.2s-0.8-1.5-0.8-2.1c0.1-0.6-0.7-0.7-0.7-0.7l-0.2,1.3c0,0-1.6-0.8-3.1-2.3C72,53.7,71,54.3,71,49.3z
	 M110.7,51.8c0,0-0.2-0.8-0.7-1c-0.5-0.1-1.1-0.1-1.6-0.2s-1.8-0.2-1.8-0.2l1.1,1.3c0,0,1-0.1,1.5-0.2S110.7,51.8,110.7,51.8z"/>
<path d="M76.3,44.4c1-0.2,1.3-0.4,1.9,0.2c0.6,0.6,0.7,0.9,1.3,0.8c0.6-0.1,0.7,0,1.2,0.8c0.5,0.8,1.2,1.4,1.5,1.6
	c0.3,0.1,0.1,0.5-0.4,0.5s-0.7,0.3-0.3,0.6c0.4,0.3,0.7,1.3,0,1.3c-0.8,0-0.8-0.1-1.5-0.2c-0.7-0.1-1.2-0.3-1.6-0.7
	c-0.4-0.4-2.8-2.5-2.8-2.5l-4.9-3.2L76.3,44.4z"/>
<path class="st4" d="M94.8,75.9c0,0.7,0.1,2.2,0.7,2.7c0.7,0.4,1,1.7,0.6,2.5c-0.4,0.7-0.8,1.1-1.4,0.8c-0.6-0.3-1.1-0.6-1.1-0.6
	l0.7,0.9l-0.1,0.5c0,0,0.5,0.3,0.8,0.7c0.3,0.4,0.8,1.5,0.8,1.5s0.3,1.3,1,1.4c0.8,0.1,2,0.2,2,0.2s-0.1-0.6-0.3-1
	c-0.2-0.4-0.3-0.8-0.3-0.8s0.7,0.4,1.2,0c0.5-0.4,0.7-0.9,0.7-1.2s0-0.7,0.4-0.5c0.4,0.1,2.5,1,4.6-0.4c2.1-1.4,2.2-3.4,1.8-4.5
	c-0.4-1.1-0.7-1.1-1.3-1c-0.7,0.2-1.4-0.1-1.4,0.2c0,0.4,0.4,1,0.8,0.8c0.4-0.2,0.6,0.2,0.4,0.6c-0.1,0.4-0.6,1.3-1.2,1.3
	c-0.6,0.1-1.3-0.1-1.3-0.1s0.8-0.4,0.8-1c0.1-0.6,0.1-1.4-0.4-1.6c-0.4-0.2-0.7-0.7-0.7-0.7s0.7-0.8,0.4-1.4
	c-0.3-0.6-0.9-1.2-1.6-1.3c-0.7-0.1-1.5,0.2-1.5,0.2s0.1,0.4,0.5,0.8c0.4,0.4,0.4,0.8-0.3,1.2c-0.7,0.4-1.4,0.2-1.8-0.3
	c-0.4-0.5-0.6-1.6-0.6-1.6l-1,0.4L94.8,75.9z"/>
<path d="M96.8,83.8c0,0,0.8,1.3,0.1,2c-0.7,0.7-1.6,1.5-2.9,1c-1.3-0.5-2.1-1-2.7-2.2c-0.6-1.2-0.7-2,0.1-2.8
	c0.9-0.8,2.7-1.1,3.2,0.4c0.3,0.9-0.1,1.3-0.8,1.2c-0.8-0.1-1.5-0.9-1.5-0.2c0,0.7-0.4,1,0.6,1.4c1,0.4,1.3,0.8,2,0.1
	C95.7,84.1,96.2,83.4,96.8,83.8z M94.1,82.2c0,0-0.3-0.5-0.7-0.7c-0.4-0.1-0.7,0.2-0.7,0.2l0.1,0.7c0,0,0.2,0,0.7,0.1
	C94,82.5,94.1,82.2,94.1,82.2z"/>
<path d="M105.7,49.7c0,0,2,1,3.3,3c1.3,2,1.9,4.6,1.5,7c-0.4,2.4-1.3,3.8-2.2,5c-0.8,1.2-0.6,1.9-0.5,2.1c0.1,0.2,0.1,0.4,0.1,0.4
	s0.6-0.4,1.3,0c0.7,0.4,1.2,2,0,2.4c-1.2,0.4-1.4-0.2-1.7-0.7c-0.3-0.4-0.7-0.7-0.7-0.7s-0.4,1-1,1.2c-0.7,0.1-2.1,0.4-2.5,0.8
	c-0.4,0.3-0.7,1-0.7,1s0.2,0.8,0.7,0.4s0.5-0.8,0.5-0.8s0.3-0.3,1,0c0.7,0.3,0.4,1-0.5,1.4c-1,0.4-1.8,0.5-2.5,0.1
	c-0.8-0.4-1-0.9-1.8-0.4c-0.8,0.4-1.3,1.2-1.5,2c-0.1,0.8-1.3,1-2.2,1.5c-0.9,0.5-1.1,0.8-1.6,1.4c-0.5,0.7-0.7,1-0.1,1.3
	c0.6,0.4,0.8,0.5,0.8,0.5s-0.8,0.4-1.5,0c-0.7-0.4-1.3-1-1.4-2.1c-0.1-1.1,0.1-1.7,0.6-2.3c0.4-0.6,0.5-1.3,0.2-2.2
	c-0.3-0.8-0.5-1.3-1-1.6c-0.4-0.2-1-0.5-1-0.5s0.7-0.2,1.1-0.3c0.4-0.1,1-0.3,0.4-0.5c-0.5-0.2-2.5-0.4-2.8-2.5
	c-0.3-2.1,0.4-4.9,1.9-4.3c1.7,0.7-0.3,1.7,0.8,2.7c0.5,0.5,1.7,0.9,1.6,0c-0.1-0.8-1.6-2.8-2.2-3.7c-0.3-0.5,0.2-1.1,0.8-1.5
	c0.5-0.4,1.4,0.1,1,0.5c-0.4,0.4-0.5,0.4-0.4,0.8c0.1,0.4,0.3,0.4,0.8,0.1c0.4-0.4,0.7-0.9,0.4-1.3c-0.3-0.4-0.2-1.1,0.2-1.3
	c0.4-0.1,0.6-0.2,0.6-0.7c0-0.5-0.2-1,0.6-0.7c0.8,0.3,1,0.4,1.3,0.6c0.3,0.1,0.4,0.3,0.6-0.2c0.1-0.5,0.3-0.5,0.6-0.7
	c0.3-0.1,0.6-0.1,0.7,0.1c0.1,0.2,1.1,0.1,0.8,0.7c-0.3,0.6-0.8,0.7-0.4,1.3c0.4,0.6,1,1,2.5,1.2c1.6,0.1,4.1,1,5.4-2.4
	c1.3-3.4-0.4-5.5-0.9-6.4C106.3,50.5,105.7,49.7,105.7,49.7z"/>
<polygon class="st6" points="109.1,55.3 109.7,55.9 109.7,56.5 109.1,56.8 108.7,55.9 109.1,55.8 "/>
<polygon class="st6" points="109.8,55.3 110,56.8 110.3,57.1 "/>
<path class="st6" d="M109.8,57.1l-0.8,0.2l-0.4,0.6l0.5,0.5c0,0,0.2,1-0.1,1.6c-0.4,0.6-0.5,2.2-1.1,2.5c-0.6,0.4-1,0.2-1,1
	c0,0.8-0.4,1.6-0.4,2.8c0,1.2,0.4,1.8,1.3,2.3c0.9,0.5,1.6,0.5,1.7,0.1c0.1-0.4-0.1-0.8-0.1-0.8s-0.2,0.6-0.8,0.5
	c-0.6-0.1-1.3-0.3-1.5-1.1c-0.1-0.8-0.2-1.9,0.4-2.5c0.7-0.7,1.3-1.8,2-3.7c0.7-1.9,0.6-2.9,0.5-3.3C110,57.5,109.8,57.1,109.8,57.1
	z"/>
<path class="st6" d="M106.7,62.2l-0.1-0.4l-0.4,0.4l-0.4,0.5l0.5,0.4l-0.6,0.9v0.8c0,0-0.7,0.9-1,1c-0.4,0.1-1,0.6-1,0.6l0.1,0.7
	c0,0,0.2-0.1,0.8-0.4c0.6-0.3,0.8-0.4,0.8-0.4v0.4c0,0-0.3,0.8-0.9,1c-0.6,0.2-1.2,0.5-1.2,0.5l-0.9,2.1c0,0,0.9-0.4,1.7-0.6
	c0.8-0.2,1.8-0.3,2-0.7c0.2-0.4,0.4-0.8,0.4-0.8s-0.5-1-0.6-1.6c-0.1-0.7,0.3-1.8,0.3-1.8l0.4-0.2l-0.1-0.5l0.1-0.6l0.4-0.8
	L106.7,62.2z"/>
<polygon class="st6" points="103.3,72.1 102.6,72.3 102.6,71.9 "/>
<polygon class="st6" points="102.2,71.1 101.8,71.7 101.3,71.4 101.4,70.8 101.7,70.7 "/>
<path class="st6" d="M102.4,68.5l-0.6,1.3l-0.8-0.4l-0.3,1l0.1,0.6c0,0-0.5,0.1-1,0.4c-0.5,0.3-1.2,0.7-1.4,1.1
	c-0.2,0.4-0.6,0.9-0.6,0.9s-0.1-0.4-0.4-0.8c-0.3-0.4-0.4-0.9-0.4-0.9l0.9-0.6l0.2,0.5h0.4l-0.1-0.5l-0.2-0.3c0,0,0.3-0.6,0.5-1.2
	c0.2-0.6,0.8-1.1,0.8-1.1s0.6-0.1,1.3-0.1S102.4,68.5,102.4,68.5z"/>
<polygon class="st6" points="102.9,66.6 102.7,67.6 102.3,67.5 102.5,66.7 "/>
<polygon class="st6" points="103.7,64.3 103.1,64.8 102.8,65.4 103.1,65.5 103.7,64.9 "/>
<polygon class="st6" points="101.9,64.6 102.1,64.9 101.5,65.2 "/>
<polygon class="st6" points="101.9,67 101.9,67.8 100.2,67.5 100.5,66.9 101.3,66.5 101.1,67 101.5,67.2 "/>
<polygon class="st6" points="100,66.7 99.7,67.1 99.1,66.9 99.6,66.4 "/>
<polygon class="st6" points="98.7,67 99.1,66.1 98.8,65.7 98.3,66.4 "/>
<path class="st6" d="M101.9,64c0,0-0.1,0.4-0.8,0.4c-0.7,0.1-1-0.4-1-0.4l0.4-0.3c0,0,0.1,0.4,0.4,0.3C101.4,63.9,101.9,64,101.9,64
	z"/>
<polygon class="st6" points="100.1,63.4 99.8,63.9 99.6,63.5 "/>
<polygon class="st6" points="100,62.5 99.1,63.3 98.7,62.3 "/>
<polygon class="st6" points="99.4,62 98.8,61.8 98.8,61.3 "/>
<path class="st6" d="M99.5,61.2l-0.5-0.6c0,0-0.1-0.2,0.1-0.6c0.3-0.4,0.7-0.3,0.8,0.1C100.1,60.6,100.1,61,99.5,61.2z"/>
<path class="st6" d="M108.6,58.6c0,0-0.4,0.7-0.7,1.4c-0.3,0.7-0.7,0.9-0.7,0.9h0.6c0,0,0.4-0.5,0.5-1
	C108.5,59.5,108.6,58.6,108.6,58.6z"/>
<path class="st6" d="M107.6,59.5c0,0-1.1,1.6-2.2,2.3c-1.1,0.7-2.3,1.4-2.9,1.3c-0.6-0.1-0.8-0.5-0.5-0.8c0.4-0.2,1.9-0.7,1.9-0.7
	l-0.5-0.1l-1.8-0.2l0.3,0.5l-0.8,0.2c0,0-0.4-0.2-0.6-0.6c-0.1-0.4,0-1,0-1l3.2,0.6l0.5-0.4l1.6-0.2l-1.2,0.7l0.4,0.2l0.7-0.4h0.4
	L107.6,59.5z"/>
<path class="st6" d="M99,57.8c0,0-0.3,0.6-0.2,1.3c0.1,0.7-0.3,0.7-0.6,1.2c-0.3,0.4-0.8-0.1-0.8-0.1l-1.2-0.9v0.5l1.9,1.6l-1,0.1
	l0.1,0.4l0.5,0.2l0.2,0.7l-0.3,0.3l0.4,0.3l0.1,0.7l-0.3,0.7l0.5,0.1v0.5l-1,0.4c0,0-0.4,0.1-0.8-0.4c-0.5-0.6-0.3-1.7-0.8-1.7
	c-0.5,0-0.9,0.2-1,0.5c-0.1,0.4-0.4,0.1-0.4,0.1s0.2-0.3,0.1-0.7c-0.1-0.4-0.4-1.1-0.4-1.1l-0.8-0.4l-0.1-0.5c0,0,1,0.5,1.5,0.2
	c0.5-0.4,0.4-0.6,1-0.6c0.6,0,1-0.3,0.4-0.7c-0.5-0.4-1.1-0.4-1-1c0.1-0.5,0.7-0.4,0.8-1c0.1-0.5,0.1-1.2,0.8-0.7
	c0.6,0.4,1.1,1,1.3,0.6c0.2-0.4,0.8-1,0.8-1L99,57.8z"/>
<polygon class="st6" points="98.6,68.5 97.5,70.6 98.4,70.9 98.3,69.6 98.8,68.8 "/>
<path class="st6" d="M98.2,68.3l-0.1-0.6l-1.2-0.8L95,67.3L94.8,67l1.2-0.4c0,0-0.4-0.5-0.4-0.9c-0.1-0.4-0.1-1.1-0.1-1.1
	s-0.7,1-1.3,1.3c-0.7,0.2-1.4,0-2-0.6c-0.6-0.6-0.7-1.2-0.3-1.5c0.4-0.3,0.2-0.7,0.2-0.7s-0.4-0.5-0.9,0.1c-0.4,0.6-1,1.2-0.5,2.1
	c0.4,0.9,1,1.4,1.6,1.7c0.6,0.3,1,0.4,1,0.4l-0.1,0.2c0,0-1-0.1-1.5-0.5c-0.4-0.4-0.9-0.7-0.9-0.7l0.1,1.5c0,0,0.5,0.7,1,0.8
	c0.5,0.1,1,0.1,1,0.1L94,68l0.4,0.4l-0.7,0.4c0,0,0.6,0.1,0.9,0.5c0.3,0.3-0.3,1-0.3,1L94.1,71l-0.6-0.7l-0.7,0.2l0.2,0.4l0.6,0.1
	l-0.2,0.7c0,0-0.1,0.4,0.2,1c0.4,0.5,0.8,0.4,0.8,0.4s-0.1-0.2,0.3-1.1c0.4-0.9,0.7-1.4,1-1.3c0.4,0.1,0,0.5-0.1,1s0.1,1.3,0.1,1.3
	s0.1,0,0.5-1.1c0.4-1.1,1-1.7,1.2-2.3C97.8,68.9,98.2,68.3,98.2,68.3z"/>
<path class="st6" d="M96.7,72.9c0,0-0.1,0.7-0.9,1.3c-0.8,0.5-1.1,0.5-1.1,0.5l-0.8,1.8c0,0,0.7-0.2,1.2-0.9
	c0.5-0.7,1.3-0.7,1.3-0.7l0.9-1L96.7,72.9z"/>
<path class="st6" d="M95.3,73.8L93.4,75l-0.1-0.4c0,0,0.5-0.2,1-0.7C94.7,73.5,95.3,73.8,95.3,73.8z"/>
<path class="st6" d="M95.7,85.2c0.2,0.3,0,0.7-0.4,1c-0.4,0.3-0.8,0.7-1.3,0.5c-0.5-0.2-0.6-0.4-1-0.8c-0.4-0.4-0.7-0.5-1.1-1.1
	c-0.4-0.6-0.4-0.9-0.4-1.5c0.1-0.6,0.5-1.3,0.5-0.7c0,0.6-0.4,1.5,0.4,2.2c0.7,0.7,1.2,1.1,1.9,0.7C95,85,95.7,85.2,95.7,85.2z"/>
<path class="st4" d="M92.9,82.4c0.3,1.2,1,2.9,0.7,4.3c-0.2,1.4-0.5,2.8,0,4.3c0.5,1.6,0.9,1.8,1.3,2.2c0.4,0.4,0.4,0.4,0.1,1
	c-0.4,0.6-0.4,1.9,0.4,2.2c0.8,0.4,1.2,0.2,1.7,0.5c0.5,0.3,0.4-0.6,0.9-0.2c0.5,0.4,0.8,0.5,0.9-0.2c0.1-0.7,0.3-1.3,0.7-0.8
	c0.4,0.5,0.9,0.8,1.5,0.1c0.6-0.7,0.9-1.6,0.1-1.9c-0.7-0.3-0.5-1.3-1.1-1c-0.6,0.4-1.2,1-1.2,0.1c0-1-0.1-2.1-0.1-2.9
	c0-0.8-0.7-1.4-1.4-1.1c-0.7,0.3-1.4-0.4-1.9-0.4c-0.5-0.1-0.8-0.4-0.5-0.9c0.3-0.5,0.3-1.4,0.1-2.3c-0.2-0.9-0.7-2.8-1-3
	C93.8,82.3,92.9,82.4,92.9,82.4z"/>
<g>
	<path class="st5" d="M96.6,90.3c-0.7-0.2-1.2,0.5-0.5,0.8c0.7,0.3,0.8,0.1,1.3,0.9c0.4,0.8,0.7,0.5,0.5,1.6c-0.2,1.1-0.5,2-0.5,2
		l0.8-0.6c0,0,0.5-1,0.1-2.4C98,91.3,97.2,90.4,96.6,90.3z"/>
	<path class="st5" d="M95.6,91.4c0.8,0.1,1.2,0.6,1.4,1.2c0.2,0.6,0.1,1,0.1,1s-0.6-0.5-1-0.8C95.7,92.4,94.8,91.3,95.6,91.4z"/>
	<path class="st5" d="M94.7,91.6c0.5,0.1,1.5,1.2,1.4,2.1c-0.1,0.9-0.1,1.6,0.1,1.9c0.2,0.4-0.2,1-0.5,0.7c-0.3-0.4-0.2-0.9-0.1-1.8
		c0.1-0.9-0.1-1.5-0.7-1.9S94.1,91.5,94.7,91.6z"/>
	<polygon class="st5" points="97.1,94.4 96.8,94.8 96.8,95.1 97.2,95 	"/>
	<polygon class="st5" points="98.9,94.5 98.3,95.7 98.9,95.5 	"/>
	<path class="st5" d="M99.9,94.4c0,0,1.3,0.2,1.1,0.7c-0.2,0.4-0.7,0.6-0.7,0.6s0.3-0.6,0-0.8C100,94.8,99.9,94.4,99.9,94.4z"/>
	<polygon class="st5" points="95.7,89.5 95,89.2 95.3,89.6 	"/>
	<polygon class="st5" points="94.9,89.9 94.3,90.1 94.3,89.5 	"/>
</g>
<g>
	<path class="st5" d="M101.4,77.2c-0.9,0.3-1.7,0.2-2.2-0.2c-0.5-0.4-1-0.9-1-0.9s1.6,0.6,2.3,0.2c0.7-0.4,1.1-0.6,1-1
		c-0.2-0.4-0.7-0.8-0.7-0.8s0.4-0.5,1,0c0.7,0.4,0.8,1,0.8,1.6C102.8,76.7,102,77,101.4,77.2z"/>
	<path class="st5" d="M103.1,77.7c-1,0-1,0.4-2,0.3c-1-0.1-1.6,0-2.1-0.5c-0.4-0.5-1-1.1-1-1.1s-0.4,0.1,0.2,0.7s1.2,1.2,1.6,1.4
		c0.4,0.2,0.9,0.3,0.9,0.3s-0.6,0.3-1.3-0.1c-0.7-0.4-1.3-1-1.5-1.3c-0.2-0.4-0.4-0.9-0.4-0.9s-0.1,0.5,0.1,1.1
		c0.3,0.6,0.7,1.6,1.6,2.2c0.9,0.6,1.3,0.9,2,1c0.7,0.1,1.2-0.1,1.2-0.1l-1-0.8l0.5-0.3c0,0,0.5,0.2,1-0.4
		C103.4,78.6,103.1,77.7,103.1,77.7z"/>
	<path class="st5" d="M97.7,78.2c0,0,0.6,1.6,1.8,2.2c1.2,0.6,3,1.2,3.6,0.8c0.6-0.4-0.1-0.7-0.1-0.7s0.1-0.1,0.8-0.1
		c0.7,0.1,1.4-0.4,1.7-1c0.3-0.6,0.3-1.3,0.3-1.3s0.7,1,0.1,1.5c-0.5,0.4-1.5,0.8-1.9,1.2c-0.4,0.4-0.6,0.9-1.6,0.8
		c-1-0.1-2.2-0.1-3.2-0.9C98.3,79.8,97.7,78.2,97.7,78.2z"/>
	<path class="st5" d="M106.2,80.5c0.1-0.4-0.1-0.7-0.7-0.4c-0.6,0.4-0.7,0.6-1.2,1c-0.5,0.4-1.4,0.7-2.5,0.5
		c-1.1-0.1-2.4-0.1-2.8-0.9c-0.4-0.8-1.4-2.2-1.4-2.2s0.3,1,0.7,2c0.4,1,1.4,2.2,3,2.2c1.6,0.1,3.2-0.1,4-0.7
		C105.9,81.5,105.9,81.3,106.2,80.5z"/>
	<path class="st5" d="M96.6,75.9c0.3,1,0.3,1.6,0.1,2.2c-0.1,0.6-0.5,0.4-0.9-0.1c-0.4-0.6-0.7-1-0.7-1.3
		C95.3,76.3,96.6,75.9,96.6,75.9z"/>
	<path class="st5" d="M97.1,79.3c0.2,0.8,0.2,1.2,0.4,2.1c0.1,0.9,0.4,1.3-0.1,1.5c-0.4,0.1-0.7,0-1.1,0.2c-0.4,0.2-1-0.2-1-0.2
		s-0.4-0.5,0-0.7c0.4-0.2,0.9-0.5,1.2-1.1c0.3-0.7,0.2-1.2,0.2-1.5C96.5,79.3,97,78.7,97.1,79.3z"/>
	<path class="st5" d="M98.4,81.8c0,0,0.4,0.6,0.6,1.2c0.2,0.6,0.1,1.3-0.2,1.3c-0.3,0-1,0.1-1,0.1s-0.5-0.7,0.1-0.8
		c0.5-0.1,0.7-0.4,0.5-0.8C98.2,82.4,98.4,81.8,98.4,81.8z"/>
</g>
<polygon class="st6" points="80.8,47.8 80.2,47.3 80,47.6 80.6,48.1 "/>
<polygon class="st6" points="79.7,46.6 78.8,46.1 79.4,47.1 79.9,47.2 "/>
<path class="st6" d="M77.3,45.2l-1-0.8h1.5c0,0,0.3,0.9,0.9,1c0.6,0.1,1.3,0.4,1.3,0.4l0.5,0.7c0,0-0.3-0.1-1.1-0.3
	c-0.8-0.2-1.1-0.4-1.1-0.4L77.3,45.2z"/>
<polygon class="st6" points="81,49.6 80.7,49 80.2,49.3 "/>
<path d="M75.6,45.9c0.9,0.4,1.3,0.4,1.5,1.2c0.1,0.8,0.1,1.2,0.6,1.4c0.5,0.3,0.6,0.4,0.5,1.4c0,1,0.2,1.9,0.3,2.1
	c0.2,0.3-0.2,0.5-0.6,0.2c-0.4-0.3-0.8-0.2-0.6,0.3c0.2,0.5-0.1,1.5-0.7,1c-0.6-0.4-0.5-0.6-1.1-1c-0.6-0.5-0.8-0.9-0.9-1.5
	c-0.1-0.6-0.8-3.7-0.8-3.7l0.5-2.5L75.6,45.9z"/>
<polygon class="st6" points="77.3,51.3 77.1,50.6 76.8,50.7 77,51.4 "/>
<path class="st6" d="M75.8,47.3l-0.2-1.3l1.1,1.1c0,0-0.4,0.8-0.1,1.4c0.3,0.5,0.6,1.2,0.6,1.2l-0.1,0.8c0,0-0.2-0.3-0.6-1
	c-0.4-0.7-0.5-1.1-0.5-1.1L75.8,47.3z"/>
<polygon class="st6" points="76.5,52.9 76.6,52.3 76,52.2 "/>
<g>
	<path class="st5" d="M107.1,52.7c0,0,0.6,2.6-0.1,4.3c-0.7,1.6-1.8,2.8-3.2,2.8c-1.4,0-2.7-0.5-3.1-0.8s-0.7-0.2-0.4,0.1
		c0.3,0.4,1.6,1.4,3.7,1.3c2.2-0.1,3.5-1.9,3.7-3.9C107.9,54.7,107.1,52.7,107.1,52.7z"/>
	<path class="st5" d="M89.7,55.3c-0.7,0.7-1.7,0.7-2.2,0.8c-0.5,0.1-1.3,0.7-1.8,1.2s-0.7,1-0.1,1.5c0.6,0.4,1,0.4,1.5-0.1
		c0.4-0.5,0.6-0.6,1.3-0.5c0.7,0.1,1.3,0.1,1.8-0.6c0.4-0.7,0.7-1.3,1-1.3c0.3,0,0.5,0.2,0.2,0.7c-0.3,0.4-0.4,0.7,0.1,1.2
		c0.4,0.4,0.9,0.6,1,0.2c0.1-0.4-0.2-0.4-0.4-0.4c-0.2,0-0.2-0.6,0.2-0.7c0.5-0.1,0.7,0.4,1.2,0.1s0.9-0.5,1-1.3
		c0.1-0.8-0.1-1.8,0.2-2c0.4-0.2,1,0.1,1.2,0.6c0.2,0.5,0.4,0.5,0.7,0.5c0.4,0,0.4-0.1,0.2-0.6c-0.1-0.5,0.1-1.3,0.2-0.7
		c0.1,0.5,0.4,1,0.8,1.1c0.4,0.1,0.7,0.1,0.7,0.1s-0.6-0.3-0.6-0.7c0-0.4,0.1-0.7,0.4-1c0.3-0.3,0.5-0.5,0.1-0.8
		c-0.4-0.3-0.9-0.7-0.7-0.9c0.2-0.1,0.9,0,1.1,0.3c0.2,0.3,0.5,0.6,1,0.4c0.4-0.2,1-0.3,1.5,0c0.4,0.3,0.3,0.9,0,1.2
		c-0.3,0.3-0.8,0.9-0.4,1c0.4,0.1,0.8-0.2,1.1-0.7c0.3-0.4,0.6-0.7,0.3-1.1c-0.3-0.5-1.1-1.2-0.8-1.3c0.3-0.1,0.3-0.1,0.7,0.5
		c0.4,0.6,1.3,1.4,1.3,1.4s0.4,0.3,0.6,1.3c0.2,1,0.5,1.6,0.2,2.3c-0.2,0.7-0.5,1.1-0.5,1.1s0.8-0.8,1-1.9c0.1-1,0.7-2.3-0.4-3.6
		c-1.1-1.3-2.5-2.4-4.7-2.3c-2.2,0.1-3.4,0.3-4.7,0.9c-1.3,0.6-2.6,1-2.6,1l2.9,0.1l1,0.5l-6.4-0.2c0,0-1.3,0.1-1.9,0.2
		c-0.6,0.1-0.3,0.4,0.5,0.6s1.4,0.6,1.6,1C90.2,54.8,89.9,55.1,89.7,55.3z"/>
	<path class="st5" d="M89.2,54.7c0.1-0.4-0.4-0.6-1-0.7c-0.6-0.1-1.4-0.5-1.4-0.5s0.4,0.3,0.2,1c-0.2,0.7-1,1.2-1,1.2
		s-0.1-0.1,0.2-0.6c0.4-0.4,0.4-1.2,0.4-1.2l-1,0.1c0,0,0.1,1-0.4,1.7c-0.6,0.7-1.4,1.6-1.6,2.5c-0.1,1-0.3,1.9,0,2.3
		c0.3,0.5,0.5,0.9,0.5,0.9s-1-0.7-1.1-1.3c-0.1-0.6-0.2-1.9-0.2-1.9s-0.4,0.5-0.4,1c0,0.4,0.2,1.6,0.9,2.2c0.7,0.6,1.4,1,2.4,1
		c1,0,2.5-0.1,2.5-0.1l-1.4-0.6L86,61.6h-1c0,0-0.7-0.4-0.6-1.2c0.1-0.7,0.3-1.5,0.3-1.5l1.4,1.4l0.3-0.6l-1.7-1.3
		c0,0-0.1-0.4,0.2-0.9c0.4-0.4,0.1-1.1,1.3-1.4C87.5,55.8,89,56,89.2,54.7z"/>
	<path class="st5" d="M89.2,60.3c0,0,1,0.1,0.6,0.4c-0.4,0.4-0.6,0.6-0.8,0.2S88.9,60.2,89.2,60.3z"/>
	<path class="st5" d="M104.6,52.1c0.7,1.2,1.1,2.8,0.4,4.5c-0.8,1.6-2.5,2.5-2.5,2.5s0.7,0.6,2.1,0.2c1.3-0.4,2.2-1.9,2.2-3.4
		c0.1-1.5,0.4-3.1-0.7-4.4c-1.1-1.3-1.8-1.9-3.4-2.2c-1.6-0.3-2.8-0.4-3.8,0c-1,0.4-1.9,0.6-1.9,0.6s2.2-0.1,3.6,0.1
		C102,50.1,103.8,50.8,104.6,52.1z"/>
	<path class="st5" d="M101.2,48.7c0,0,2-1.6,4-1.3c1.9,0.3,3.3,0.6,4.3,1c1,0.5,2.6,1.8,2.6,1.8s0.8,0.3,0.2,0.9
		c-0.5,0.6-0.8,0.3-1.1-0.2c-0.4-0.5-0.8-0.5-1.5-0.5c-0.7,0-1.5-0.1-1.7-0.7c-0.2-0.6-1.1-1.6-1-1c0.1,0.6-0.8,1.3-1.5,0.8
		c-0.7-0.5-1.3-0.9-1.8-1C103.1,48.4,101.2,48.7,101.2,48.7z"/>
	<path class="st5" d="M107.6,46.8c-0.9,0.1-3.4-0.1-4.9,0.5c-1.5,0.6-5.3,2-7.3,2.8c-2,0.8-3.9,1.3-5.8,1.7c-1.9,0.4-3,0.5-3,0.5
		l0.8-0.5c0,0,3.1-0.7,4.5-1.6c1.3-0.9,1.9-1.5,2.9-2.7c1-1.2,1.7-2.2,1.7-2.2s0.6,1,1.9,0.9c1.3-0.1,2.5-0.7,3.1-1.3
		c0.6-0.6,0.7-0.6,1.7-0.7c1-0.1,1.7-0.4,1.7-0.4s-0.1,1,0.1,1.3c0.2,0.3,0.8,0.3,1.3,0.4c0.6,0.1,0.4,0.6,0.4,0.6L107.6,46.8z"/>
	<path class="st5" d="M86.8,51.5V51c0,0,1-0.5,1.6-1c0.5-0.5,0.8-1,0.8-1s-0.1,0.6,0.2,0.8c0.4,0.2,0.9,0,1.2-0.7
		c0.3-0.8,1-1.4,0.9-2.5c-0.1-1-0.2-1.4-0.2-1.4s0.6-1.1,1.1-1.6c0.5-0.5,1.3-1.4,1.3-1.4s0.7-0.1,1.2-0.1s0.9-0.4,1.2-0.6
		s0.5,0.5,1,0.4c0.5-0.1,0.9-1,0.9-1s0.2,0.9-0.7,2.4c-0.9,1.5-2.7,3.3-3.7,4.3c-1,1-2.2,2.2-3.6,2.8C88.7,51.1,86.8,51.5,86.8,51.5
		z"/>
	<path class="st5" d="M98.6,45.2c-0.8,0.5-2.1-0.1-1.3-1c0.7-0.9,1-1.5,1.1-2.2c0.1-0.8-0.1-1.3-0.1-1.3s1,0.9,1.4,1.8
		C100.1,43.3,99.9,44.3,98.6,45.2z"/>
	<path class="st5" d="M100.2,42.6c0,0-0.3-0.8-0.8-1.3c-0.5-0.5-1-0.9-1-0.9s0-0.2,0.6-0.1c0.6,0.1,1.1,0.7,1.1,0.7l0.5,1.3
		L100.2,42.6z"/>
	<path class="st5" d="M92,43.6c0,0-0.6,0.4-0.8,0.7C91,44.5,90.8,45,90.8,45s-0.2-0.4-0.4-0.6c-0.1-0.2-0.2-0.5-0.2-0.5
		s0.3,0.2,0.8,0c0.5-0.2,1-0.8,1-0.8V43.6z"/>
	<path class="st5" d="M89.3,43.6c-0.4,0.3-1,0.4-0.9,1.3c0.1,0.9,0.1,2.4,0.1,2.4l-0.4,0.6c0,0-0.1-0.8-0.1-1.5
		c-0.1-0.7-0.6-1-0.6-1s-0.5,0.3-0.8,0.9c-0.3,0.6-0.5,0.6-0.5,1.3s-0.2,1.1-0.2,1.1s-0.3-0.1-0.3-0.7c0-0.6-0.1-1-0.6-1.3
		c-0.5-0.3-1.2-0.3-1.2-0.3s0.6,0.7,0.2,1.4c-0.4,0.7-0.4,1.1-0.4,1.1L83,48.9l-0.7-0.3v0.3c0,0,0.4,0.1,1,0.4
		c0.6,0.4,0.9-0.1,0.9-0.1l0.5-0.8l0.5,0.4l-0.1,0.5l-1,0.6l-0.7,0.4c0,0,1,0,1.9,0.2c0.9,0.1,0.7-0.6,1.3-1c0.5-0.4,0.9-1,0.9-1
		l0.4,0.1l-1.3,1.6c0,0,0.9,0.4,1.6-0.6c0.8-1,0.9-1.4,1-2c0.1-0.6,0.2-1.1,0.2-1.1s0.4,0.7,0.3,1.6c-0.1,0.9,0.1,1.3,0.1,1.3
		s0.7-1.3,1-2.1c0.3-0.8,0.1-1.5-0.2-2.2C90.2,44.5,89.3,43.6,89.3,43.6z"/>
	<path class="st5" d="M78.9,49.9c1,1,1.9,1.6,2.6,1.8c0.7,0.2,1.1,0.2,1,0.7c-0.1,0.5-0.4,0.5-1.3,0.3c-1-0.2-2.1-1.1-2.4-1.5
		C78.5,50.8,78.9,49.9,78.9,49.9z"/>
	<path class="st5" d="M83.2,53.5c-1.4-0.1-2.3-0.7-2.7-0.5c-0.4,0.1-0.8,0.1-0.8,0.7c0,0.6,0.1,1.4-0.3,1.2c-0.4-0.2-1.2-0.6-1.5,0
		c-0.3,0.6-0.9,0.7-0.3,1.3c0.6,0.6,0.3,1,0.5,1.2c0.1,0.2,0.3-0.2,0.7-0.8c0.4-0.5,0.7-1.3,0.7-1.3s0,0.9-0.2,1.6
		c-0.2,0.7-0.6,0.6-0.4,1.3s0.7,1.2,1.2,1c0.5-0.1,0.1-0.5-0.1-0.8c-0.2-0.3-0.8-0.3-0.5-0.9c0.3-0.6,0.5-0.6,0.9-0.9
		c0.4-0.3,0.4,0,0.1-0.7c-0.2-0.8-0.4-2.5-0.1-1.9c0.3,0.5,0.1,1.3,0.7,1.6c0.5,0.3,1,1.1,1,1.1s-0.1-0.6,0.2-0.8
		c0.3-0.2,1.3-0.4,1.6-0.4c0.4-0.1,0.4-0.8,0.4-0.8s-0.6,0-0.8-0.3C83.6,53.9,83.2,53.5,83.2,53.5z"/>
</g>
<path class="st4" d="M93.1,54.1c0,0-1-0.7-1.3-1.2c-0.4-0.5,0.3-1.1,0.7-1.6c0.4-0.4,0.9-1,0.2-1.3c-0.7-0.4-1.3-0.7-1-1.2
	c0.4-0.5,0.7-1.1,1.6-1c0.9,0.1,2.5,1.3,1.4,1.6c-1.1,0.3-1.8,0.8-1,1.1c0.8,0.3,1,0.6,0.7,0.9c-0.3,0.3-1,0.4-0.7,0.9
	C93.9,52.8,93.7,54.1,93.1,54.1z"/>
<path d="M101.1,42c-0.4-1.4-0.3-1.7-0.3-2.5c0-0.8-0.5-1.6-0.6-1.1c-0.1,0.5-0.6,0.4-1,0c-0.4-0.4-0.6-0.8-0.4-1.3
	c0.2-0.5,1.1-1.4,0.4-1.5c-0.7-0.1-1.8-0.1-1.3-0.5c0.5-0.4,1.2-0.9,0.1-1.1c-1-0.2-1.5-0.1-1.8-0.4c-0.3-0.4-0.8-0.7-0.4-1.1
	c0.4-0.4-0.6-1.3-1-0.7c-0.5,0.7-0.2,1.3-1.3,1.1c-1.2-0.2-2.4-0.7-1.4-1.1c1-0.4,1.3-0.7,0.2-0.8c-1-0.1-2.1,0.2-2,0.7
	c0.1,0.4-1.3,0.2-0.8,0.7c0.4,0.4,0.5,1,0.5,1.9c0,0.8,0.7,1.1,0.3,1.5c-0.4,0.4-0.7,0.8-0.9,1.3c-0.2,0.4-1.2-0.6-1.3,0
	c-0.1,0.6,0.1,1.4,0.4,1.6c0.3,0.2,0.6,0.3,0.6,1.1c0,0.8-0.1,2,0.6,2.4c0.7,0.4,1.4-0.1,1.7-0.1c0.3,0.1,0.5-0.8,0-0.7
	c-0.5,0.1-1.1-0.9-0.4-1c0.7-0.1,1.5-0.4,1.8,0.2c0.3,0.7,0.7,1.3,1.1,1.1c0.4-0.2,0.4-0.5,0.4-1c0.1-0.4,0.4-0.5,0.7-0.1
	c0.4,0.4,1.4,0.7,1.4,0.1c0-0.7,0.2-1.6,1.4-0.9c1.3,0.8,1.4,0.5,1.9,1.3C100.2,41.6,101.1,42,101.1,42z"/>
<path class="st6" d="M96.4,34l0.1,1.3h0.7c0,0-0.2,0.8,0.1,1.4c0.3,0.6,1.1,0.9,1.1,0.9s-0.2-0.4,0-0.8c0.2-0.4,0.5-0.9,0.5-0.9
	s-0.6-0.1-0.8-0.2c-0.2-0.1-0.9-0.5-0.5-0.8c0.4-0.3,0.4-0.7,0.4-0.7L96.4,34z"/>
<path class="st6" d="M95.4,32.2c-0.2,0.9,0.1,1.4,0.4,2c0.3,0.6,0.3,1.9,0.3,1.9l-0.6-0.4v-1l-1.5,0.1l0.6-0.7l-0.4-0.2l-1.4,0.3
	l-1.5-1.6L91,32.8l1.1,1.9c0,0-0.2,0.8-0.7,0.5c-0.5-0.4-0.7-1-0.7-1.8c-0.1-0.8,0.1-2.3,0.8-1.5c0.7,0.8,1.6,1.9,2.3,1.7
	C94.5,33.4,95,34,95,34s-0.2-0.6-0.2-1.1c0-0.5,0.2-1,0.2-1S95.5,31.9,95.4,32.2z"/>
<path class="st6" d="M95.5,36.5c-0.3,0.3-0.6,0.4-0.9,0c-0.3-0.4,0-0.9,0.4-0.7C95.3,36.1,95.8,36.1,95.5,36.5z"/>
<path class="st6" d="M93.8,35.5c0.1-0.2-0.2-0.9-0.8-0.4c-0.5,0.5-1,1.2-0.9,2.1c0.1,0.9,0.1,1.3,0.4,1.6c0.3,0.2-0.1,0.7-0.1,0.7
	l0.7,0.9l0.4-0.7l0.6-0.3l-0.1-0.7c0,0-0.7-0.6-0.7-1.6C93.5,36,93.8,35.5,93.8,35.5z"/>
<path class="st6" d="M91.4,36c0,0-0.9-0.7-1,0.1c-0.1,0.7-0.3,1.5-0.9,1.5c-0.6,0-0.8,0.2-0.5,0.7c0.3,0.5,1,0.7,1.5,0.1
	c0.5-0.6,1-1,1-1.5C91.3,36.4,91.4,36,91.4,36z"/>
<path class="st6" d="M91.9,38.8c-0.2-0.6-0.9-0.9-1.2-0.4c-0.3,0.5-0.5,1.1-0.9,1.1s-0.7,0.8-0.3,1.3c0.4,0.5,1,0.5,1,0.5
	s-0.1-0.2-0.1-0.8c-0.1-0.5,0.3-1.3,0.9-1.1c0.6,0.2,1,0.3,1-0.1C92.3,39.1,92,39.2,91.9,38.8z"/>
<path class="st6" d="M99.5,39.8c-0.5-0.8-0.7-1.3-1.7-1.3c-1,0.1-1.5,0.3-1.5,0.3l0.7,0.7c0,0,0.4-0.3,1-0.4c0.6-0.1,0.8,0.3,1,0.6
	C99.3,40,99.5,39.8,99.5,39.8z"/>
<path class="st6" d="M95.9,37.5c-0.4-0.2-0.8-0.4-1.2,0c-0.4,0.4-0.5,1-0.1,1c0.4,0,0.6-0.1,0.7-0.5C95.3,37.6,95.9,37.5,95.9,37.5z
	"/>
<path d="M71.8,63.5c1.7-0.4,2.3-0.8,2.8-1.3c0.5-0.5,0.8-0.8,1.5-0.7c0.7,0.1,0.9,1.1,0.9,1.1h2.2c0,0,0.6-0.4,0.7-1.2
	c0.1-0.7-0.2-0.9-0.8-1.8c-0.5-0.9-0.7-2-2.2-3c-1.5-1-2.2-1.5-2.5-2.7c-0.3-1.2-0.1-2.5,0.1-4.2c0.2-1.7,0.2-3.7-1-4.8
	c-1.3-1-7.9-2.1-9-0.7c-1,1.4-3.2,3.1-3.6,5.3c-0.4,2.2-0.1,4.2,1.7,5.5c1.8,1.3,2.6,1.5,3.1,1.6s1.1,0.7,0.4,1
	c-0.7,0.4-2.2,0.8-2.8,2.2c-0.5,1.3-1.2,2.7-0.6,2.8c0.6,0.1,0.8,0.2,1.3,1c0.4,0.7,1,1.2,1.7,0.8c0.7-0.4,1.5-0.8,2.2-0.7
	C68.9,63.8,70.1,63.9,71.8,63.5z"/>
<path class="st6" d="M61.5,51.6l4-0.3l0.4,0.4l0.4-0.1c0,0,0-0.7-0.3-1c-0.3-0.3-0.9-0.3-1.4-0.4c-0.5-0.1-0.8-0.2-1.6-0.4
	c-0.8-0.1-1-0.4-1-0.4s0.4-0.9,0.9-1.1c0.5-0.2,0.5-0.7,0.8-1c0.2-0.4,0.4-0.7,0.4-0.7s0.6-0.2,1.3,0.1c0.7,0.4,1,0.7,1,0.7L66,47.9
	l0.4,0.3l0.7-0.1c0,0,0.2,0.2,0.4,1c0.2,0.8,0.5,1.1,0.5,1.1l0.7,0.2l0.4,0.7c0,0,0.9,0.3,1.3,0c0.4-0.3,0.7-0.5,0.3-0.9
	c-0.4-0.4-0.7-0.7-0.9-0.6c-0.2,0.1-0.6,0.2-0.6,0.2s0.3-0.9,0.8-0.8c0.5,0.1,1.4,0.5,1.4,1.3c0,0.8-0.7,1.1-1.5,1.1
	c-0.8,0-1.2-0.4-1.2-0.4l-3.2,4.6l-1.7-0.7l0.2-0.4l-0.9,0.1c0,0-0.8-0.2-1.3-1.3C61.5,52.3,61.5,51.6,61.5,51.6z"/>
<polygon class="st6" points="61.6,48.8 62,48.9 62.2,48.2 "/>
<polygon class="st6" points="62.3,47.6 62.6,47.9 63.8,46.4 63.3,46.4 "/>
<path class="st6" d="M66,45.8c0,0,1.1-1.6,1.6-1.7c0.4-0.1,3.6,0,4.6,0.5c1,0.4,2.4,2.5,2,4.6c-0.4,2.2-0.5,3.9-0.1,5.3
	c0.4,1.4,1.2,2.2,1.6,3.2c0.4,1,0.7,1.6,0.7,1.6h-0.7c0,0-0.2-0.7-0.7-1.6c-0.5-0.9-1.1-2-1.6-2.9c-0.4-0.9-0.4-2.6-0.1-3.9
	c0.3-1.3,0.1-2.6-0.2-3.4c-0.4-0.7-0.7-1.3-0.9-1c-0.2,0.3,0,0.7,0.2,1.1c0.2,0.4,0.5,2.9,0.1,4.3c-0.4,1.3,0,2.4,0.2,3
	c0.2,0.6,0.3,1.3,0.3,1.3s-0.4-0.8-1.1-1.6c-0.7-0.9-1.2-2.1-1.2-2.1s0.6-0.1,1-0.7c0.4-0.6,0.7-1.4,0.4-2.1
	c-0.3-0.7-0.8-1.5-1.9-1.6c-1-0.1-1.8,0.3-1.8,0.3s-0.4-0.7-1.1-1.3C66.8,46.4,66,45.8,66,45.8z"/>
<path class="st6" d="M68.9,52.8c0.3-0.5,0.8-0.6,1-0.1c0.1,0.5,0.7,1.5,1.1,2.2c0.4,0.7,0.8,1.1,1.3,2c0.5,0.9,1,1.2,0.8,1.9
	c-0.2,0.7,0.1,1,0.1,1l0.6-0.5l-0.2,0.8c0,0-0.7,0.5-0.9,0.8c-0.1,0.3-0.3,0.4-0.3,0.4L71.8,62c0,0-0.2-0.6-0.6-0.5
	c-0.4,0.2-0.4,0.6-0.4,0.6s-0.4,0.4-1,0.5c-0.7,0.1-1,0.1-1,0.1S69,62,68.6,62s-0.7,0.6-0.7,0.6s-0.6-0.1-1,0
	c-0.5,0.1-0.6,0.8-1.2,0.3c-0.6-0.5-0.8-1.1-0.8-1.1L64.7,61l-0.4,0.1L64,61.9l-0.5-0.7c0,0,0.2-1.1,1-1.9c0.7-0.8,0.8-1,1.6-1.2
	c0.8-0.2,0.9-0.4,0.8-0.9c-0.1-0.4-0.1-0.8-0.1-0.8s0.1-0.8,0.8-1.6C68.3,54,68.6,53.2,68.9,52.8z"/>
<g>
	<g>
		<defs>
			<path id="SVGID_3_" d="M68.9,52.8c0.3-0.5,0.8-0.6,1-0.1c0.1,0.5,0.7,1.5,1.1,2.2c0.4,0.7,0.8,1.1,1.3,2c0.5,0.9,1,1.2,0.8,1.9
				c-0.2,0.7,0.1,1,0.1,1l0.6-0.5l-0.2,0.8c0,0-0.7,0.5-0.9,0.8c-0.1,0.3-0.3,0.4-0.3,0.4L71.8,62c0,0-0.2-0.6-0.6-0.5
				c-0.4,0.2-0.4,0.6-0.4,0.6s-0.4,0.4-1,0.5c-0.7,0.1-1,0.1-1,0.1S69,62,68.6,62s-0.7,0.6-0.7,0.6s-0.6-0.1-1,0
				c-0.5,0.1-0.6,0.8-1.2,0.3c-0.6-0.5-0.8-1.1-0.8-1.1L64.7,61l-0.4,0.1L64,61.9l-0.5-0.7c0,0,0.2-1.1,1-1.9c0.7-0.8,0.8-1,1.6-1.2
				c0.8-0.2,0.9-0.4,0.8-0.9c-0.1-0.4-0.1-0.8-0.1-0.8s0.1-0.8,0.8-1.6C68.3,54,68.6,53.2,68.9,52.8z"/>
		</defs>
		<clipPath id="SVGID_4_">
			<use xlink:href="#SVGID_3_"  style="overflow:visible;"/>
		</clipPath>
		<g class="st7">
			<path class="st1" d="M63.3,58.5l4.3-1.6c0,0-0.4,2.3-0.9,3.7c-0.5,1.3-1.2,2.8-1.2,2.8L62,62.1L63.3,58.5z"/>
			<polygon class="st1" points="68.4,57.1 69.5,56.7 70,63 66.6,63.5 			"/>
			<polygon class="st1" points="70,56.8 70.6,62.9 71.6,62.6 70.4,56.3 			"/>
			<polygon class="st1" points="70.8,56.3 72.6,62 74.2,60.5 73.9,58.2 72,55.6 			"/>
		</g>
	</g>
</g>
<path d="M66.5,56.5c0,0,1.1,0.5,2.2,0.3c1.1-0.2,1.3-0.4,1.7-0.8c0.4-0.4,1-0.9,1-0.9l0.2,0.4c0,0-1.7,1.3-2.9,1.6
	c-1.2,0.3-2.2,0.1-2.2,0.1L66.5,56.5z"/>
<path d="M66.2,57.6c0,0,1.6,0.7,3.3,0.2c1.7-0.5,2.5-1,2.8-1.3c0.3-0.3,0.7,0.4,0.7,0.4s-2,1-3.7,1.3c-1.7,0.3-1.7,0.3-2.5,0.1
	C66.1,58.1,66.2,57.6,66.2,57.6z"/>
<path d="M64.7,58.7c0,0,1.6,1.4,4,1c2.4-0.4,3-0.7,3.5-1c0.5-0.4,1-0.9,1-0.9l0.1,0.6c0,0-0.7,1.3-3.7,1.6c-3.1,0.3-4.5,0-4.8-0.3
	c-0.3-0.3-0.6-0.5-0.6-0.5L64.7,58.7z"/>
<path d="M63.8,59.8l0.6,0.9c0,0,0.2-0.5,0.8-0.3c0.6,0.2,0.2,1,0.7,1.1c0.5,0.2,0.9,0.2,1.4-0.1c0.5-0.4,1-0.1,1.5-0.1
	s0.9-0.1,1.8-0.6c0.9-0.5,1.3-0.7,1.9-1c0.5-0.3,1-0.7,1-0.7l0.2,0.4c0,0-1.1,0.8-2.2,1.4c-1,0.6-1.3,0.7-2.4,0.7
	c-1,0-1.1-0.1-1.7,0.2c-0.6,0.4-1.5,0.8-1.9,0.2c-0.4-0.6-0.5-1-1-1c-0.4,0.1-0.4,0.1-0.7-0.1c-0.3-0.3-0.5-0.7-0.5-0.7L63.8,59.8z"
	/>
<path class="st6" d="M63.7,61.7L63.2,62c0,0,0.4,0.6,0.9,0.9c0.5,0.3,0.6,0.4,0.9,0.8c0.3,0.4,0.4,0.8,1,0.2
	c0.6-0.5,1.3-0.8,2.2-0.7s2,0.3,3.9-0.4c1.9-0.7,2.6-1.6,3.4-1.9c0.8-0.4,1.7-1,2.5-0.4c0.7,0.6,0.8,0.8,0.7,1.1
	c-0.1,0.3,0.7,0.6,0.8,0c0.1-0.6-0.1-1.4-1.5-1.6c-1.3-0.1-2.5-0.3-3.7,0.7c-1.2,1-2.9,1.6-4.3,1.9c-1.3,0.3-3.1,0-3.6,0.4
	c-0.5,0.5-0.9,0.6-1.2,0c-0.3-0.6-0.4-0.7-0.9-0.8C63.8,62.3,63.7,61.7,63.7,61.7z"/>
<g>
	<g>
		<defs>
			<path id="SVGID_5_" d="M61.5,51.6l4-0.3l0.4,0.4l0.4-0.1c0,0,0-0.7-0.3-1c-0.3-0.3-0.9-0.3-1.4-0.4c-0.5-0.1-0.8-0.2-1.6-0.4
				c-0.8-0.1-1-0.4-1-0.4s0.4-0.9,0.9-1.1c0.5-0.2,0.5-0.7,0.8-1c0.2-0.4,0.4-0.7,0.4-0.7s0.6-0.2,1.3,0.1c0.7,0.4,1,0.7,1,0.7
				L66,47.9l0.4,0.3l0.7-0.1c0,0,0.2,0.2,0.4,1c0.2,0.8,0.5,1.1,0.5,1.1l0.7,0.2l0.4,0.7c0,0,0.9,0.3,1.3,0c0.4-0.3,0.7-0.5,0.3-0.9
				c-0.4-0.4-0.7-0.7-0.9-0.6c-0.2,0.1-0.6,0.2-0.6,0.2s0.3-0.9,0.8-0.8c0.5,0.1,1.4,0.5,1.4,1.3c0,0.8-0.7,1.1-1.5,1.1
				c-0.8,0-1.2-0.4-1.2-0.4l-3.2,4.6l-1.7-0.7l0.2-0.4l-0.9,0.1c0,0-0.8-0.2-1.3-1.3C61.5,52.3,61.5,51.6,61.5,51.6z"/>
		</defs>
		<clipPath id="SVGID_6_">
			<use xlink:href="#SVGID_5_"  style="overflow:visible;"/>
		</clipPath>
		<g class="st8">
			<path class="st1" d="M62.2,51.2c0,0,0,1.3,0.8,2c0.7,0.7,1.6,1.2,1.6,1.2L63.3,55c0,0-1.2,0-1.8-1.3c-0.6-1.3-0.7-2.5-0.7-2.5
				H62.2z"/>
			<path class="st1" d="M62.7,51c0,0-0.1,1.2,0.4,1.8c0.6,0.6,1.9,1.3,1.9,1.3l0.6-0.4c0,0-1-0.6-1.5-1.5c-0.5-0.9-0.4-1.5-0.4-1.5
				L62.7,51z"/>
			<path class="st1" d="M64.4,50.8c0,0,0.2,1.2,0.7,1.6c0.4,0.5,0.8,0.7,0.8,0.7l0.2-1c0,0-0.4-0.2-0.5-0.7
				C65.4,50.8,64.4,50.8,64.4,50.8z"/>
			<path class="st1" d="M62.5,50c0,0,0.9-1.3,1.3-2.1c0.4-0.8,1.3-1.9,1.3-1.9l0.3,0.1c0,0-0.7,1.2-1.2,2.2c-0.4,1-0.9,1.7-0.9,1.7
				L62.5,50z"/>
			<polygon class="st1" points="64.1,50.3 66.1,46.5 66.6,46.8 64.9,50.3 			"/>
		</g>
	</g>
</g>
<circle cx="64.6" cy="54.7" r="0.5"/>
<circle cx="65.5" cy="53.7" r="0.5"/>
<circle cx="65.9" cy="52.6" r="0.5"/>
<circle cx="66.6" cy="49.3" r="0.5"/>
<g>
	<g>
		<defs>
			<path id="SVGID_7_" d="M66,45.8c0,0,1.1-1.6,1.6-1.7c0.4-0.1,3.6,0,4.6,0.5c1,0.4,2.4,2.5,2,4.6c-0.4,2.2-0.5,3.9-0.1,5.3
				c0.4,1.4,1.2,2.2,1.6,3.2c0.4,1,0.7,1.6,0.7,1.6h-0.7c0,0-0.2-0.7-0.7-1.6c-0.5-0.9-1.1-2-1.6-2.9c-0.4-0.9-0.4-2.6-0.1-3.9
				c0.3-1.3,0.1-2.6-0.2-3.4c-0.4-0.7-0.7-1.3-0.9-1c-0.2,0.3,0,0.7,0.2,1.1c0.2,0.4,0.5,2.9,0.1,4.3c-0.4,1.3,0,2.4,0.2,3
				c0.2,0.6,0.3,1.3,0.3,1.3s-0.4-0.8-1.1-1.6c-0.7-0.9-1.2-2.1-1.2-2.1s0.6-0.1,1-0.7c0.4-0.6,0.7-1.4,0.4-2.1
				c-0.3-0.7-0.8-1.5-1.9-1.6c-1-0.1-1.8,0.3-1.8,0.3s-0.4-0.7-1.1-1.3C66.8,46.4,66,45.8,66,45.8z"/>
		</defs>
		<clipPath id="SVGID_8_">
			<use xlink:href="#SVGID_7_"  style="overflow:visible;"/>
		</clipPath>
		<path class="st9" d="M66.3,46.4l1.5-2.6l0.7-0.1L66.9,47l0.4,0.2l1.3-2.4c0,0,0.6-0.5,0.8,0.1c0.1,0.6,0.5,1.1-0.1,1.6
			c-0.7,0.5-0.5,0.4-0.1,0.7c0.4,0.2,0.4,0.8,0.1,1.1c-0.3,0.3-1.3,0.1-1.3,0.1l-1.4-1l-1-1.3L66.3,46.4z"/>
	</g>
</g>
<rect x="71.7" y="32.2" transform="matrix(0.7071 -0.7071 0.7071 0.7071 -3.467 61.6578)" class="st10" width="1.9" height="5.6"/>
<rect x="69.8" y="27.5" transform="matrix(0.7071 -0.7071 0.7071 0.7071 1.1561 59.6809)" class="st10" width="5.6" height="1.9"/>
<rect x="64.7" y="26.2" transform="matrix(0.7072 -0.7071 0.7071 0.7072 -1.2892 54.9761)" class="st10" width="1.9" height="5.6"/>
<rect x="62.4" y="33.8" transform="matrix(0.7071 -0.7072 0.7072 0.7071 -5.4503 56.3214)" class="st10" width="5.6" height="1.9"/>
<path class="st4" d="M63.5,42c0.3-0.7,0-1.9-0.4-2.2c-0.4-0.2-0.9-0.5-0.8-1c0.2-0.5,0.1-1.3,0.8-1c0.7,0.2,1,0.1,1.6,0.4
	c0.5,0.3,0.8,1,1.3,0.5c0.6-0.4,1.2-1,2.1-0.8c0.9,0.3,1.6,1,2.1,0.5c0.4-0.5,1-0.6,1.7-0.5c0.7,0.1,1,0.1,1.4,0.4
	c0.4,0.2,0.8,0.4,1,0.1c0.2-0.4,0.1-0.8,0.6-0.7c0.5,0.1,1.9-0.1,1.7,0.7c-0.1,0.7-0.1,1.3-0.9,1.6c-0.7,0.3-0.4,0.5-0.2,1.4
	c0.2,0.9,0.3,1.5,0.6,1.9c0.3,0.4,0.3,0.7-0.3,1c-0.6,0.3-2.5,0.3-6,0.3c-3.5,0-4.6-0.1-5.8-0.5c-1.2-0.5-1.4-0.8-1.4-0.8
	S63.2,42.7,63.5,42z"/>
<g>
	<polygon class="st5" points="63,38.5 63.6,38.5 63.8,39.2 62.9,39.4 	"/>
	<polygon class="st5" points="64.2,39.3 65.1,39.3 64.9,38.9 64.1,38.4 	"/>
	<path class="st5" d="M66.3,39.3h1.2v-0.7c0,0-0.4-0.2-0.8,0.1C66.3,38.9,66.3,39.3,66.3,39.3z"/>
	<path class="st5" d="M63.4,42.7h1.2V42c0,0-0.4-0.2-0.8,0.1C63.4,42.3,63.4,42.7,63.4,42.7z"/>
	<path class="st5" d="M75.8,42.9h-1.2v-0.7c0,0,0.4-0.2,0.8,0.1C75.8,42.5,75.8,42.9,75.8,42.9z"/>
	<polygon class="st5" points="67.8,39.1 67.9,38.5 69,38.5 69.4,39.1 	"/>
	<polygon class="st5" points="70.1,39.3 71.6,39.3 71.5,38.5 70.6,38.7 	"/>
	<polygon class="st5" points="71.9,39.3 71.9,38.5 73.4,38.8 73.4,39.5 	"/>
	<polygon class="st5" points="73.8,39.3 73.8,38.9 75.1,38.7 75.2,39.5 	"/>
	<polygon class="st5" points="75.6,38.4 75.7,39.3 76.3,38.7 76.2,38.2 	"/>
	<polygon class="st5" points="63.9,39.8 65.3,39.6 65.3,40.3 64.3,40.2 	"/>
	<polygon class="st5" points="65.5,39.6 65.7,40.2 67.4,40.3 67.3,39.6 	"/>
	<polygon class="st5" points="67.9,40.2 67.8,39.5 69.6,39.5 69.7,40.3 	"/>
	<polygon class="st5" points="70.1,40.2 70,39.7 71.7,39.7 71.6,40.2 	"/>
	<polygon class="st5" points="71.9,40.1 72.1,39.6 73.6,39.8 73.4,40.3 	"/>
	<polygon class="st5" points="74,40.2 74,39.7 75.7,39.7 74.9,40.4 	"/>
	<polygon class="st5" points="64.3,40.8 66,40.7 66.2,41.3 64.5,41.5 	"/>
	<polygon class="st5" points="66.4,40.7 66.5,41.5 68.1,41.4 68.2,40.6 	"/>
	<polygon class="st5" points="68.7,41.3 68.7,40.6 70.2,40.6 70.4,41.4 	"/>
	<polygon class="st5" points="70.6,41.3 70.6,40.7 72.5,40.7 72.8,41.5 	"/>
	<polygon class="st5" points="73.1,41.5 72.9,40.9 74.5,40.9 74.9,41.8 	"/>
	<polygon class="st5" points="74,42.1 74.2,42.9 73.4,42.9 73.4,42.2 	"/>
	<polygon class="st5" points="73,42.2 73,42.8 71.6,42.6 71.5,42 	"/>
	<polygon class="st5" points="71.2,41.9 71.2,42.5 69.5,42.6 69.5,42 	"/>
	<polygon class="st5" points="68.9,42.5 69.1,41.9 67.5,42 67.3,42.7 	"/>
	<polygon class="st5" points="66.7,42.7 66.8,41.9 65.2,42 65,42.7 	"/>
	<polygon class="st5" points="64.2,43.1 66.2,43.3 66.2,43.9 64.4,43.9 	"/>
	<polygon class="st5" points="66.8,43.2 66.8,43.8 68.5,43.9 68.5,43.2 	"/>
	<polygon class="st5" points="68.9,43.1 69,44 70.2,43.9 70.6,43 	"/>
	<polygon class="st5" points="71,43 71,44.1 72.9,43.8 72.8,43 	"/>
	<polygon class="st5" points="73.3,43.2 73.5,44 75,43.8 74.7,43.2 	"/>
</g>
<path d="M66.2,33.5c0.6,0.5,0.4,1.1,1.3,1.2c1,0.1,2,0.2,2.7,0.1c0.7-0.1,0.7-0.1,1.3-0.5c0.6-0.4,0.9-0.7,0.8-1.3
	c-0.1-0.5-0.4-0.9-0.1-1.4c0.2-0.5,0.4-0.5,0.1-1c-0.2-0.5-0.3-0.9-1-0.7c-0.7,0.1-0.5,0.2-1-0.2c-0.4-0.4-0.9-0.2-0.9-0.2
	s-0.4-0.5-1.5-0.2c-0.7,0.2-1.6,0.8-1.6,1.1c0,0.4-1,0.4-0.9,0.6c0.1,0.2,0.8,0.4,0.9,1C66.5,32.4,65.6,33.1,66.2,33.5z"/>
<path class="st3" d="M67,31.1c0.6-0.2,0.6-0.2,0.8-0.6c0.2-0.4,0.5-1,0.5-1l0.4,0.7l0.8-0.8c0,0-0.2,0.2,0.1,0.7
	c0.3,0.4,0.2,1,0.2,1l0.7-0.1l0.6-0.7l0.5,0.7l-0.5,0.5l0.2,0.7c0,0,0.5,0.6-0.2,0.6c-0.8,0-0.7,0.4-0.5,0.6
	c0.2,0.1-0.3,0.4-0.4,0.6c-0.1,0.2-0.9,0.2-0.9,0.2s-0.7-0.1-1,0c-0.4,0.1-0.2-0.5-0.2-0.5S68,33.9,67.4,34
	c-0.5,0.1-0.8-0.4-0.8-0.4l0.5-0.4c0,0,0.3-0.3,0-0.7c-0.3-0.4,0.1-1,0.1-1L67,31.1z"/>
<polygon class="st11" points="69.1,27 69.4,27.5 69.9,27.6 69.5,28 69.6,28.5 69.1,28.3 68.6,28.5 68.7,28 68.3,27.6 68.8,27.5 "/>
<polygon class="st11" points="73.6,31.1 73.9,31.5 74.4,31.7 74,32.1 74.1,32.6 73.6,32.4 73.1,32.6 73.2,32.1 72.8,31.7 73.3,31.5 
	"/>
<polygon class="st11" points="64.6,31.4 64.9,31.8 65.4,32 65,32.4 65.1,32.9 64.6,32.7 64.1,32.9 64.2,32.4 63.8,32 64.3,31.8 "/>
<polygon class="st11" points="67.6,35.4 67.9,35.8 68.4,35.9 68,36.3 68.1,36.9 67.6,36.6 67.1,36.9 67.2,36.3 66.8,35.9 67.3,35.8 
	"/>
<polygon class="st11" points="70.5,35.4 70.8,35.8 71.3,35.9 71,36.3 71,36.9 70.5,36.6 70,36.9 70.1,36.3 69.7,35.9 70.3,35.8 "/>
<g>
	<path class="st1" d="M8.1,52.4c-2.5-1.1-4.3-1.8-6.3-2.5c0.3-0.5,0.6-1.1,0.9-1.8c0.5-1.3,1.1-2.8,1.6-4.1c1.1-2.7,3-4.1,5.4-3.1
		c2.5,1,2.5,3.7,2.2,5.2l0,0c0.6-1.3,2.8-3.6,5.5-2.5c3.2,1.4,3.4,4.5,2.3,7.1c-0.5,1.2-1,2.1-1.5,3.3c-0.3,0.8-0.7,1.8-0.8,2.3
		c-1.9-1-3.6-1.8-6.2-2.8L8.1,52.4z M5.1,45.8c-0.3,0.7-0.3,0.8-0.4,1.1C5.8,47.5,7,48,7.8,48.4c0.8,0.3,1.5,0.6,2.3,0.9l0.4-1
		c0.5-1.3,0.1-3-1.8-3.8C7.3,43.9,5.9,44,5.1,45.8z M11.8,48.9c-0.2,0.4-0.3,0.7-0.4,1c0.6,0.3,1.3,0.6,2.2,0.9
		c1.4,0.6,3.2,1.3,4,1.6c0.2-0.4,0.4-0.7,0.6-1.2c0.6-1.3-0.1-2.9-2-3.8C14,46.6,12.6,47.1,11.8,48.9z"/>
	<path class="st1" d="M15.4,37.4c-2.2-1.6-3.8-2.6-5.6-3.8c0.4-0.4,0.8-0.9,1.3-1.6c0.5-0.7,0.8-1.2,1.1-1.7
		c1.7,1.4,3.2,2.5,5.4,4.1l2.7,1.9c1.5,1.1,3,2.1,4,2.8c1.1-1.5,2.1-3.1,3-4.7c0.2,0.2,0.4,0.4,0.8,0.7c0.4,0.3,0.6,0.4,0.9,0.5
		c-0.5,0.7-1.3,1.6-2.6,3.4c-2.3,3.2-2.6,3.8-2.9,4.3c-1.7-1.4-3.2-2.5-5.4-4.1L15.4,37.4z"/>
	<path class="st1" d="M41.4,24.7c-0.6,0.5-1.2,0.9-1.7,1.3c-0.5,0.4-1,1-1.5,1.4c-1.5-0.9-3-1.9-4.5-2.7c-0.8,0.7-1.6,1.3-2.4,2
		c-0.7,0.6-1.3,1.1-1.9,1.7c0.6,1.7,1.2,3.3,2,4.9c-0.3,0.2-0.7,0.4-1,0.6c-0.3,0.3-0.5,0.5-0.9,0.9c-0.8-2.8-3.6-11.9-5.6-17.5
		c0.3-0.2,0.5-0.3,0.8-0.5c0.2-0.2,0.4-0.5,0.6-0.7C30.4,19,37.4,22.9,41.4,24.7z M32.3,24c-1.8-1.1-3.6-2.1-5.4-3
		c0.6,2,1.3,4,2,5.9L32.3,24z"/>
	<path class="st1" d="M52.7,16.5c0,0.7,0.2,1.5,0.4,2.1c-0.9,1.2-2.2,2.2-4.1,3.1c-5.1,2.4-9.7,0.6-11.6-3.6
		C34.6,12,37.6,7.7,42.3,5.5c1.5-0.7,3.7-1.2,5-1c0.1,0.9,0.3,1.7,0.5,2.5l-0.3,0.1c-1.7-0.9-3.2-0.9-4.7-0.2
		c-2.4,1.1-4.1,4.4-1.9,9.1c2.1,4.6,5.7,5.1,8.2,3.9c1.4-0.7,2.7-2.1,3.2-3.5L52.7,16.5z"/>
	<path class="st1" d="M59.9,10.3c0.4,3.5,0.8,6.1,1.2,7.6c-0.5,0-1.2,0-2,0.1c-0.8,0.1-1.4,0.3-2,0.4c-0.1-2.2-0.3-4-0.7-6.7L56,8.3
		c-0.3-2.7-0.6-4.6-1-6.7c0.5,0,1.2,0,2-0.1c0.8-0.1,1.4-0.3,2-0.4c0,1.3,0.4,4.6,0.8,7.8c1.9-2.8,4.5-7.2,5.2-8.5
		c0.5,0,0.9,0,1.4-0.1c0.4-0.1,0.9-0.2,1.4-0.3c-1,1.2-4.3,6-5.4,7.8c2.5,2.9,6.3,7.4,7.9,8.9c-1,0.1-1.7,0.1-2.4,0.2
		c-0.7,0.1-1.4,0.3-2.1,0.4C63.8,14.9,61.9,12.6,59.9,10.3L59.9,10.3z"/>
	<path class="st1" d="M74.9,7.2c0.5-2.7,0.7-4.6,0.9-6.7c0.5,0.1,1.2,0.3,2,0.5c1.1,0.2,2.4,0.3,3.5,0.5c2.3,0.4,3.4,1,4,1.7
		c0.9,1,1.2,2.1,0.9,3.5c-0.6,3.7-3.5,4.7-7.1,4.1L78,10.5c-0.4,2.4-0.8,4.8-1,7.3c-0.5-0.1-1.2-0.3-2-0.5c-0.8-0.1-1.5-0.2-2-0.2
		c0.5-2.1,0.9-3.9,1.3-6.6L74.9,7.2z M80.4,2.7c-0.4-0.1-0.7-0.1-1-0.1c-0.4,2.3-0.8,4.5-1.2,6.8c1.6,0.3,3.7,0.2,4.2-2.9
		C82.8,3.9,81.8,2.9,80.4,2.7z"/>
	<path class="st1" d="M103.6,9.2c4.5,2.6,6.6,7.1,3.7,12.2c-2.4,4.2-7.7,5.7-12.5,3c-4.5-2.6-6.8-6.9-3.7-12.2
		C93.5,8,98.7,6.4,103.6,9.2z M102.9,10.4c-2.9-1.7-6.3,0.3-8.4,3.9c-2.6,4.5-1.4,7.3,1,8.6c2.5,1.5,6,0.6,8.6-4
		C106.2,15.3,105.6,12,102.9,10.4z"/>
	<path class="st1" d="M123.9,26.5c3.3,4,3.6,9-0.9,12.7c-3.8,3.1-9.3,2.5-12.7-1.7c-3.3-4-3.8-8.9,0.9-12.7
		C114.9,21.7,120.3,22.1,123.9,26.5z M122.7,27.4c-2.1-2.6-6-2-9.2,0.7c-4,3.3-3.9,6.3-2.2,8.4c1.8,2.3,5.4,2.7,9.5-0.6
		C124.1,33.1,124.7,29.8,122.7,27.4z"/>
	<path class="st1" d="M126.9,44.2c2.5-1.1,4.2-1.8,6.2-2.8c0.2,0.5,0.3,1.2,0.7,1.9c0.3,0.7,0.6,1.3,0.9,1.8c-2,0.7-3.8,1.4-6.3,2.4
		l-3.1,1.3c-1.7,0.7-3.4,1.4-4.5,2c0.7,1.7,1.5,3.4,2.5,5c-0.3,0.1-0.6,0.1-1.1,0.3c-0.5,0.2-0.7,0.3-0.9,0.5
		c-0.3-0.8-0.7-1.9-1.5-4c-1.5-3.7-1.9-4.3-2.1-4.7c2-0.7,3.8-1.4,6.3-2.4L126.9,44.2z"/>
	<path class="st1" d="M12.2,98.3c1.7-0.8,2.8-1.4,4-2.2c0.4,0.9,0.8,1.8,1.2,2.7c0.7,1.4,1.4,2.7,1.6,3c-0.2,0.1-0.4,0.1-0.6,0.3
		c-0.3,0.2-0.4,0.3-0.6,0.4c-0.5-1.2-1.3-3-1.5-3.4c-1.1,0.5-2.2,1-3.3,1.5c0.7,1.3,1.2,2.2,1.8,3.3c-0.4,0.1-0.5,0.2-0.7,0.3
		c-0.2,0.1-0.3,0.2-0.6,0.4c-0.5-1.2-1-2.3-1.5-3.4l-0.8,0.4c-1.7,0.8-2.8,1.4-4,2.2c-0.1-0.3-0.3-0.8-0.5-1.2
		c-0.2-0.5-0.5-0.9-0.7-1.2c1.3-0.6,2.5-1.1,4.1-1.9L12.2,98.3z"/>
	<path class="st1" d="M23.7,107.8c2.2,2.7,2.5,6.1-0.6,8.6c-2.5,2.1-6.2,1.7-8.6-1.2c-2.2-2.7-2.6-6,0.6-8.6
		C17.6,104.6,21.3,104.9,23.7,107.8z M22.9,108.4c-1.4-1.8-4-1.3-6.2,0.4c-2.7,2.2-2.7,4.2-1.5,5.7c1.2,1.5,3.6,1.8,6.4-0.4
		C23.8,112.3,24.2,110,22.9,108.4z"/>
	<path class="st1" d="M33.6,117.3c2.8,2.1,3.9,5.2,1.6,8.4c-1.9,2.6-5.6,3.2-8.6,1c-2.8-2.1-4-5.2-1.6-8.5
		C27,115.7,30.6,115,33.6,117.3z M33,118c-1.8-1.3-4.2-0.3-5.9,2c-2.1,2.8-1.5,4.8,0,5.9c1.6,1.2,4,0.9,6.1-2
		C34.9,121.6,34.8,119.3,33,118z"/>
	<path class="st1" d="M41.6,125.4c0.3-0.6,0.5-1.1,0.6-1.3c-0.6-0.3-1.9-0.7-2.8-1.1c0.1-0.2,0.3-0.4,0.4-0.6
		c0.1-0.2,0.2-0.4,0.2-0.7c1.3,0.7,2,1,3.9,1.9c1.9,0.8,2.6,1.1,3.8,1.7c-0.1,0.2-0.3,0.4-0.4,0.6c-0.1,0.2-0.2,0.4-0.2,0.7
		c-0.8-0.5-2-1.1-2.6-1.4c-0.1,0.2-0.4,0.7-0.6,1.3l-1.7,3.8c-0.8,1.7-1.3,2.9-1.8,4.2c-0.3-0.2-0.7-0.4-1.2-0.6
		c-0.5-0.2-0.9-0.4-1.3-0.5c0.7-1.3,1.2-2.4,2-4.1L41.6,125.4z"/>
	<path class="st1" d="M48.3,130.2c0.5-1.8,0.8-3,1.1-4.4c0.3,0.1,0.8,0.3,1.3,0.4c0.9,0.2,2,0.4,2.9,0.7c1.9,0.5,3,1.6,2.6,3.3
		c-0.5,1.7-2.3,2-3.3,1.9l0,0c1,0.3,2.7,1.5,2.1,3.4c-0.6,2.3-2.7,2.7-4.6,2.2c-0.8-0.2-1.5-0.5-2.3-0.7c-0.6-0.2-1.3-0.3-1.6-0.4
		c0.5-1.4,0.8-2.6,1.3-4.4L48.3,130.2z M52.4,127.6c-0.5-0.1-0.6-0.1-0.8-0.2c-0.2,0.8-0.5,1.7-0.7,2.2c-0.2,0.6-0.3,1.1-0.4,1.6
		l0.7,0.2c0.9,0.2,2-0.2,2.4-1.5C53.9,128.9,53.7,127.9,52.4,127.6z M51,132.3c-0.3-0.1-0.5-0.1-0.7-0.2c-0.1,0.4-0.3,0.9-0.4,1.5
		c-0.3,1-0.6,2.2-0.7,2.8c0.3,0.1,0.5,0.2,0.9,0.3c0.9,0.3,2-0.3,2.3-1.7C52.7,133.6,52.2,132.7,51,132.3z"/>
	<path class="st1" d="M68,140.4c-0.5-0.1-1-0.2-1.4-0.2c-0.5,0-0.9,0-1.4,0c-0.2-1.1-0.5-2.3-0.8-3.5c-0.7-0.1-1.4-0.2-2.1-0.2
		c-0.6,0-1.1-0.1-1.7-0.1c-0.5,1.1-1,2.2-1.4,3.3c-0.3-0.1-0.5-0.1-0.8-0.1c-0.3,0-0.5,0-0.8,0c1-1.8,3.9-7.4,5.7-11
		c0.2,0.1,0.4,0.1,0.6,0.1c0.2,0,0.4,0,0.6,0C65.4,132.5,66.9,137.6,68,140.4z M64,135.7c-0.4-1.4-0.7-2.7-1.1-4
		c-0.7,1.2-1.3,2.5-1.9,3.8L64,135.7z"/>
	<path class="st1" d="M71.8,133.4c-0.1-1.8-0.3-3.1-0.5-4.5c0.4,0,0.8,0,1.4,0c0.5,0,1-0.1,1.3-0.2c0,1.5,0.1,2.7,0.2,4.6l0.2,2.2
		c0.1,1.2,0.2,2.5,0.3,3.3c1.2-0.1,2.5-0.3,3.7-0.5c0,0.2,0,0.4,0,0.7c0,0.3,0.1,0.5,0.1,0.7c-0.6,0-1.4,0-2.9,0.1
		c-2.7,0.2-3.1,0.3-3.5,0.4c0-1.5-0.1-2.7-0.2-4.6L71.8,133.4z"/>
	<path class="st1" d="M81.8,132.3c-0.4-1.8-0.7-3-1.2-4.4c0.4,0,0.8-0.1,1.3-0.2c0.5-0.1,1-0.3,1.3-0.4c0.2,1.4,0.5,2.7,0.9,4.5
		l0.5,2.2c0.3,1.2,0.6,2.4,0.8,3.2c1.2-0.3,2.4-0.6,3.6-1.1c0,0.2,0,0.4,0.1,0.7c0.1,0.3,0.1,0.5,0.2,0.7c-0.6,0.1-1.4,0.2-2.8,0.6
		c-2.6,0.6-3,0.8-3.4,0.9c-0.2-1.4-0.5-2.7-0.9-4.5L81.8,132.3z"/>
	<path class="st1" d="M107.7,127.2c0.1,0.5,0.2,1,0.4,1.4c-0.5,0.8-1.4,1.6-2.6,2.3c-3.3,1.9-6.5,0.9-8-1.8c-2.2-4-0.4-7,2.7-8.7
		c1-0.6,2.4-1,3.3-0.9c0.1,0.6,0.3,1.1,0.5,1.7l-0.2,0.1c-1.2-0.5-2.2-0.5-3.2,0.1c-1.5,0.9-2.5,3.2-0.8,6.2c1.7,3,4.1,3.2,5.7,2.2
		c0.9-0.5,1.7-1.5,2-2.5L107.7,127.2z"/>
	<path class="st1" d="M108.4,120.5c-1.2-1.4-2-2.4-3-3.4c0.3-0.2,0.7-0.5,1.1-0.8c0.4-0.3,0.7-0.7,1-0.9c0.9,1.2,1.6,2.2,2.8,3.6
		l1.4,1.7c0.8,0.9,1.6,1.9,2.2,2.5c0.9-0.8,1.9-1.7,2.8-2.6c0.1,0.2,0.2,0.3,0.4,0.6c0.2,0.3,0.4,0.4,0.5,0.5
		c-0.5,0.4-1.1,0.8-2.3,1.8c-2.1,1.7-2.4,2-2.6,2.3c-0.9-1.2-1.6-2.2-2.8-3.6L108.4,120.5z"/>
	<path class="st1" d="M116.8,116.9c-1.4-1.1-2-1.7-2.9-2.5c-1.3-1.1-2.2-1.8-2.7-2.1c0.3-0.3,0.6-0.6,0.9-1c0.3-0.3,0.6-0.7,0.8-1.1
		c1.5,1.5,2.8,2.6,4.3,3.9c3.1,2.6,4.3,2.1,5.7,0.5c1.7-2-0.4-4-2.7-6c-1.2-1-2.4-1.9-3.6-2.8c0.2-0.2,0.4-0.4,0.6-0.6
		c0.2-0.2,0.3-0.4,0.5-0.7c0.7,0.7,2.4,2.3,4.6,4.1c2.9,2.4,3.1,4.7,1,7.2C121.5,118,119.1,118.9,116.8,116.9z"/>
	<path class="st1" d="M122.9,104.5c-1.6-0.8-2.8-1.4-4.1-2c0.2-0.3,0.4-0.7,0.7-1.2c0.4-0.8,0.9-1.8,1.3-2.7
		c0.9-1.8,2.2-2.6,3.8-1.8c1.6,0.8,1.5,2.7,1.2,3.6l0,0c0.5-0.9,2-2.3,3.8-1.4c2.1,1.1,2.1,3.2,1.2,4.9c-0.4,0.8-0.8,1.4-1.2,2.1
		c-0.3,0.5-0.6,1.2-0.7,1.5c-1.2-0.8-2.4-1.4-4-2.2L122.9,104.5z M121.2,99.9c-0.2,0.4-0.3,0.5-0.3,0.7c0.7,0.4,1.5,0.9,2,1.1
		c0.5,0.3,1,0.5,1.5,0.8l0.3-0.7c0.4-0.8,0.2-2-1-2.6C122.7,98.8,121.8,98.8,121.2,99.9z M125.5,102.3c-0.1,0.3-0.2,0.5-0.3,0.6
		c0.4,0.2,0.8,0.4,1.4,0.7c0.9,0.5,2.1,1,2.6,1.3c0.2-0.3,0.3-0.5,0.4-0.8c0.4-0.9,0.1-2-1.2-2.6
		C127.1,100.9,126.1,101.2,125.5,102.3z"/>
</g>
<circle class="st12" cx="5.6" cy="75.8" r="5.6"/>
<circle class="st12" cx="134.7" cy="75.8" r="5.6"/>
</svg>
