<svg version="1.1" id="Layer_1" xmlns="http://www.w3.org/2000/svg" xmlns:xlink="http://www.w3.org/1999/xlink" x="0" y="0" viewBox="0 0 140.3 140.4" style="enable-background:new 0 0 140.3 140.4" xml:space="preserve"><style>.st1{fill:#fff}.st2{clip-path:url(#SVGID_2_);fill:#f7941e}.st3{fill:#c9252c}.st4{fill:#cc612c}.st5{fill:#fdc689}.st6{fill:#8db7ba}.st10{fill:#a0c8ea;stroke:#000;stroke-width:.3448}.st11{fill:#007f3e}.st12{fill:#bcbec0}</style><path d="M70.3 120.2c3.8 0 6-1.1 8.2-2.6 2.2-1.5 3.9-2.5 6.5-4 2.6-1.4 5.8-1.1 6.1-.1.3.9 0 .7-.7 1-.8.3-1 .4-1.6.1-.5-.2-1.2-.2-1.9-.1s-.5.8-.4 1.3c.1.4 0 .7-.3 1.5-.3.7.4 1 .4 1s-.7-.2-1.6-.7c-.9-.4-.7-.8-1.4-1.4-.7-.6-.6.5-.2 1 .4.4.5.6.1 1.3-.4.8.2 2.2 1 2.6.7.4 1.4.1 2.3-.4.9-.4 1.3-.1 2.2-.7.9-.6.7-1.2.2-2-.5-.8.7-.8 1.4-.7.7.1 1.2.2 2.2-.1 1-.4 1.3-1.3 1.3-2.8 0-1.4.6-2.4 1.2-3.3.6-.9 1.2-.7 1.6-1 .5-.3-.4-.8-.7-1.3-.4-.6-1.2-1.4-1.9-1.3-.7.1-1.3.3-2.2 0-.8-.3-3.1-.5-5.8-.4-2.8.1-6.3 1.7-8.5 3.7-2.2 1.9-3.6 3.7-7.5 3.7s-5.3-1.8-7.5-3.7c-2.2-1.9-5.7-3.5-8.5-3.7-2.8-.1-5 .1-5.8.4-.8.3-1.4.1-2.2 0-.7-.1-1.6.7-1.9 1.3-.4.6-1.2 1-.8 1.3.5.3 1 .1 1.6 1 .6.9 1.2 1.9 1.2 3.3s.4 2.4 1.3 2.8c1 .4 1.5.3 2.2.1.7-.1 1.9-.1 1.4.7-.4.8-.7 1.4.2 2 .9.6 1.3.2 2.2.7.9.5 1.6.8 2.3.4.7-.4 1.4-1.9 1-2.6-.4-.7-.3-.9.1-1.3.4-.5.5-1.6-.2-1-.7.6-.5 1-1.4 1.4-.9.4-1.6.7-1.6.7s.7-.2.4-1c-.3-.8-.4-1-.3-1.5.1-.4.2-1.1-.4-1.3-.7-.1-1.3-.1-1.9.1-.5.2-.8.2-1.6-.1-.7-.3-1-.1-.7-1 .3-1 3.5-1.3 6.1.1 2.6 1.4 4.3 2.5 6.5 4 2.3 1.5 4.5 2.6 8.3 2.6z" style="fill:#cb582c"/><path class="st1" d="m43.9 109.8.6-.6s1 .4 1.6 1.3c.6.9 1.5 2.5 1.5 2.5l-.5.5-.4-.4s0-.8-.5-1.6c-.4-.8-.5-1.1-1.2-1.3-.7-.2-1.2 0-1.1-.4zM48.5 112.9c-.6.5-1.4 1-1.3 1.9.1.9.8 1.9.8 1.9s-.1-.6.2-1.1c.4-.5.6-.8.6-.8s-.5-.1-.4-.6c.1-.5.4-1.2.4-1.2l-.3-.1zM49.8 115.2l.2 1.6s.2.5.6 0c.4-.5.4-1 .4-1s.2.2.8.1c.6-.1.9-1 .9-1s0-.1-.6.1c-.6.1-1 .2-1.4 0-.4-.3-.9-.3-.9.2zM51.3 116.9c.5-.6.8-.6 1.2-.7.4-.1.4-.5.5-.8.1-.3.5-1 .5-.4.1.7.4 1 .4 1.9 0 1-.1 1.4-.6 1.4s-.1-.1-.5-.5-.7-.4-.7-.4l.2-.8-.5.8-.5-.5zM51.7 118.7s-.1-.3.2-.5c.4-.2.8-.1.9.2.1.4-.1.3-.4.5-.4.3-.7-.2-.7-.2zM52.2 119.8c.4-.4.9-.5 1.2-.7.3-.2.7-.2 1 0 .3.2.5 0 .5.7 0 .8-.2.6-.8.6-.6 0-1.1-.1-1.4-.2s-.5-.4-.5-.4zM55.7 118c.4-.2 1.2-1 1-.5-.2.6-.2 1.2 0 1.6.1.4.1 1-.4 1.4-.5.4-1 .6-1.1.1-.1-.4.4-.6.4-1s.1-.5-.2-.9c-.3-.3-.1-.6.3-.7zM70.3 119.9c1.8 0 3.2-.1 5.9-1.4 2.9-1.4 4.3-2.6 7-4.4 2.7-1.7 4.5-2 6.1-1.9 1.6.1 2.2 0 2.8-.2.7-.2.5-1 .9-1.8s1-1.5 1.1-1.9c.1-.4-.8-.2-.8-.2s-.5.6-.9 1.4c-.4.8-.6 1.9-.6 1.9l-.4-.1s.2-.4.6-1.4c.4-1 .5-1.9.5-1.9l-.8-.3s-.4 1-.5 1.7c-.1.7-.3 1-.3 1l-.4-.1s.4-1.1.6-1.7 0-1 0-1l-1.3-.1s-.4.6-.6 1.6c-.2 1-.2 1.7-.2 1.7l-.3.3s-.1-.4-.1-1.1c0-.7.4-2.1.4-2.1s0-.2-.4-.3c-.4-.1-2.8 0-4.6.4-1.8.4-5.8 3.1-7.4 4.6-1.6 1.5-3.9 2.5-6.3 2.5s-4.7-1-6.3-2.5c-1.6-1.5-5.6-4.2-7.4-4.6-1.8-.4-4.3-.5-4.6-.4-.4.1-.4.3-.4.3s.4 1.3.4 2.1-.1 1.1-.1 1.1l-.3-.3s0-.7-.2-1.7-.6-1.6-.6-1.6l-1.3.1s-.2.4 0 1 .6 1.7.6 1.7l-.4.1s-.1-.4-.3-1c-.2-.7-.5-1.7-.5-1.7l-.8.3s.1.8.5 1.9c.4 1 .6 1.4.6 1.4l-.4.1s-.2-1-.6-1.9c-.4-.8-.9-1.4-.9-1.4s-.9-.2-.8.2c.1.5.7 1.1 1.1 1.9s.2 1.6.9 1.8c.7.2 1.3.4 2.8.2 1.6-.1 3.4.1 6.1 1.9 2.7 1.7 4.3 2.9 7 4.4 2.7 1.4 4.1 1.4 5.9 1.4zM96.7 109.8l-.6-.6s-1 .4-1.6 1.3c-.6.9-1.5 2.5-1.5 2.5l.5.5.4-.4s0-.8.4-1.6.5-1.1 1.2-1.3c.8-.2 1.2 0 1.2-.4zM92.1 112.9c.6.5 1.4 1 1.3 1.9-.2.9-.8 1.9-.8 1.9s.1-.6-.2-1.1-.6-.8-.6-.8.5-.1.4-.6c-.1-.5-.4-1.2-.4-1.2l.3-.1zM90.8 115.2l-.2 1.6s-.2.5-.6 0c-.4-.5-.4-1-.4-1s-.2.2-.8.1c-.6-.1-.9-1-.9-1s0-.1.6.1c.6.1 1 .2 1.4 0 .4-.3.9-.3.9.2zM89.3 116.9c-.5-.6-.8-.6-1.2-.7-.4-.1-.4-.5-.5-.8-.1-.3-.4-1-.5-.4-.1.7-.5 1-.5 1.9 0 1 .1 1.4.6 1.4s.1-.1.5-.5c.5-.4.7-.4.7-.4l-.1-.8.5.8.5-.5zM88.9 118.7s.1-.3-.2-.5c-.4-.2-.8-.1-.9.2-.1.4.1.3.5.5.3.3.6-.2.6-.2zM88.3 119.8c-.4-.4-.9-.5-1.2-.7-.3-.2-.7-.2-1 0-.3.2-.5 0-.5.7 0 .8.2.6.8.6.6 0 1.1-.1 1.4-.2.4-.2.5-.4.5-.4zM84.9 118c-.4-.2-1.2-1-1-.5.2.6.1 1.2 0 1.6-.1.4-.1 1 .4 1.4.5.4 1 .6 1.1.1.1-.4-.4-.6-.4-1s-.1-.5.2-.9c.3-.3.1-.6-.3-.7z"/><path d="m54.8 111.7.2.1c.1 0 .1 0 .2-.2l.8-1.6c.2-.3 0-.4-.1-.5v-.1l1.2.6c.3.1.9.5.6 1.1-.1.1-.2.4-.6.4-.3 0-.5-.1-1-.3l-.3.7c-.2.3-.1.3.1.5v.1l-1.1-.8zm1.4-.7c.4.2.6.2.9-.2.2-.4.2-.6-.1-.8-.1-.1-.2 0-.2 0l-.6 1zM60.7 115.2l-.7-.4-.1-1.5-.1-.1-.4.7c-.2.3-.1.3.1.5l-.1.1-1.2-.7.1-.1c.3.1.3.1.5-.1l.9-1.5c.2-.3.1-.4-.1-.5l.1-.1 1.1.7c.2.1 1 .6.6 1.2-.3.4-.7.3-.9.3l.1 1.4c0-.1.1-.1.1.1zm-.8-2.2c.5.3.7.3 1-.1.2-.3.2-.6-.1-.8-.2-.1-.2-.1-.3 0l-.6.9zM65.3 116.5c-.5.7-1.3.9-2 .5s-.9-1.3-.5-2c.5-.7 1.3-.9 2-.5s1 1.2.5 2zm-1.8-1.2c-.2.3-.7 1.1-.1 1.5.6.4 1.1-.4 1.3-.7.3-.5.6-1.2.1-1.5-.5-.3-1 .2-1.3.7zM70.1 118.1c-.3 0-.4 0-.4.3l-.1.5c-.2.1-.8.2-1.1.1-1-.1-1.4-.9-1.3-1.6.1-.8.7-1.4 1.6-1.3.4 0 .6.3.8.3.1 0 .2-.1.2-.2h.1l-.1.9h-.1c-.1-.4-.4-.9-.8-.9-.6-.1-.8.5-.9 1.2 0 .3-.1 1.3.6 1.4.4 0 .4-.1.5-.2v-.4c0-.3-.1-.3-.4-.3v-.1l1.4.2v.1zM75.1 117.8l-.8.3-1.2-1H73l.2.8c.1.3.2.3.5.2v.1l-1.3.4v-.1c.3-.1.3-.2.2-.5l-.5-1.7c-.1-.3-.2-.3-.5-.2v-.1l1.2-.4c.3-.1 1.1-.3 1.3.3.2.5-.2.7-.4.9l1.1.9c.2.1.2.1.3.1zM73 117c.5-.2.7-.3.5-.8-.1-.4-.3-.5-.6-.4-.2.1-.2.1-.2.2l.3 1zM75.6 114.5l2-1.2.4.7-.1.1c-.4-.4-.7-.4-1.1-.1-.2.1-.2.2-.2.3l.5.8c.3-.2.5-.4.2-.9l.1-.1.7 1.2-.1.1c-.3-.4-.5-.4-.9-.2l.5.8c.1.2.2.2.4 0 .3-.2.6-.5.5-1.2l.1-.1.3.8-2 1.2-.1-.1c.2-.1.3-.2.2-.4l-1-1.7h-.4zM81.1 111.9c-.2-.2-.7-.5-1.1-.2-.2.1-.3.3-.2.6.1.2.2.2.6.2l.7-.1c.2 0 .5 0 .8.4.2.3.2.9-.4 1.3-.3.2-.6.2-.7.3-.1 0 0 .1 0 .2l-.1.1-.5-.8.1-.1c.3.3.7.6 1.2.3.4-.3.2-.6.2-.7-.1-.2-.4-.2-.6-.2h-.3c-.8.1-1-.2-1.1-.3-.1-.2-.3-.7.3-1.2.3-.2.5-.2.6-.2.1-.1.1-.1 0-.2l.1-.1.4.7zM84.6 110c-.2-.2-.6-.5-1-.3-.2.1-.3.3-.2.5.1.2.2.2.6.2h.7c.2 0 .5.1.7.5.2.3.2.9-.5 1.2-.3.2-.6.1-.7.2-.1 0-.1.1 0 .2l-.1.1-.5-.9.1-.1c.3.3.7.6 1.1.4.4-.2.3-.6.2-.6-.1-.2-.3-.2-.6-.2h-.3c-.8 0-.9-.3-1-.5-.1-.2-.2-.8.4-1.1.3-.1.5-.1.6-.2.1 0 .1-.1.1-.2l.1-.1.4.8-.1.1zM69.8 108.3c.8 0 1.6-.6 2.6-1.3 1-.7 13.1-7.9 14.1-8.7 1-.8 1.3-2.5 1.3-4.3V63.4c0-.4-.4-1.1-1.3-1.1H53.1c-1 0-1.3.7-1.3 1.1V94c0 1.8.4 3.4 1.3 4.3 1 .8 13.1 8 14.1 8.7 1 .7 1.8 1.3 2.6 1.3z"/><path class="st1" d="M87.4 63.5c0-.1-.1-.3-.2-.4-.2-.2-.4-.2-.7-.2H53.1c-.3 0-.5.1-.7.2-.1.1-.2.3-.2.4v12.4h35.2V63.5z"/><path d="M51.9 75.3h35.8v.2H51.9z"/><defs><path id="SVGID_1_" d="M52.2 75.9V94c0 1.9.4 3.3 1.2 3.9.6.5 5.7 3.6 9.4 5.8 2.4 1.5 4.3 2.6 4.7 2.9l.2.1c.8.6 1.5 1.1 2.1 1.1.6 0 1.3-.5 2.1-1.1l.2-.1c.4-.3 2.3-1.4 4.7-2.9 3.7-2.2 8.8-5.3 9.4-5.8.8-.6 1.2-2 1.2-3.9V75.9H52.2z"/></defs><clipPath id="SVGID_2_"><use xlink:href="#SVGID_1_" style="overflow:visible"/></clipPath><path class="st2" d="M88.7 84.2s-1-.6-2.4-1.3c-1.3-.8-3.5-.7-5.5.1-2 .8-3.2.8-5.8-.2-2.6-1-5.4-.4-7.2.3-1.8.7-5.8.9-9.1-.3-3.2-1.2-5.9.6-8.5 2.1V81c2.5-1.5 5.2-3.3 8.5-2.1 3.2 1.2 7.3 1 9.1.3 1.8-.7 4.6-1.3 7.2-.3 2.6 1 3.8 1 5.8.2s4.2-.8 5.5-.1c1.3.7 2.4 1.3 2.4 1.3v3.9zM49.4 89.3c1.8-1.2 3.8-2.2 5.2-1.9 1.4.2 2.5.2 3.1-.2.7-.4 1.9-.3 3.2.2 1.3.4 3.7.4 5.8.1 2-.3 6.7-.2 8.5.1 1.9.3 4.3.6 6.1.2 1.7-.4 3.4-1.2 4.7-.5 1.3.7 2.4 1.3 2.4 1.3l.3 2.5s-1.2-.1-2.3-.4c-1.1-.4-2.2-.4-3.6.1-1.4.6-2.2 1-4.6.2-2.5-.7-4.6-1-6.7-.4-2.1.6-4.5.2-7 .6-2.5.4-3.6.1-5.7-.5s-3.8-.7-5.3.2c-1.5 1-3.5 1.9-3.5 1.9l-.6-3.5zM51.4 96.8c2.1-1.5 3.5-3.1 6.4-2.2 2.8.9 6.2 1.5 8.9.5s4.9-1.7 8.2-.7c3.3 1 5.5 1.2 7.2.6 1.7-.6 3.7-.9 4.5-.3.8.6 2 1.3 2 1.3l-.9 1.9s-1.9.1-5 .7c-3.1.7-4.6.9-6.5-.1-1.9-1-3.8-1.8-7.2-.6-3.4 1.2-5.7 1.3-8.9.4s-5.5-.1-7.3 1c-1.8 1.3-1.4-2.5-1.4-2.5zM60.5 104.7c2.1-.9 5.4-2.5 9.4-2.5s7.4 1.3 9.6 2.5c2.2 1.2-6.1 3.8-6.1 3.8l-5.5.2-7.4-4z"/><path d="M57.6 85.4c1.2-1.2 2.3-1.7 4.3-1.6 1.9.1 2.5.1 4 1 1.5 1 2.6 1.7 3.5 1.9.9.2 1.6-.2 2.2-.9.5-.7 2-2.1 3.3-2.3 1.3-.2 3.4-.8 4.6-.1 1.2.7 1.7 1.2 1.9 1.5.1.3.5.1 1 .2.4.1 1.5.1 2.5.5s1.3.4 1.2 1c-.1.6-1.4 1-2 .7-.6-.4-1.4-.1-2.2.1-.7.3-2 .1-2.8.1-.8 0-2.2.1-2.2.1s.6.4 1.1.4c.5.1 1.1.6 1.1.6s.1.4-.8.5c-.8.2-1.8.1-1.8.1s-.7.6-1.3.6-1.6.5-1.6.5-.4.5-1.9.8c-1.6.3-2.8.2-3.5-.1s-1.6-.3-1.8-.2c-.2.1-.7-.4-1-.8-.3-.4-.7-.8-1.3-.7-.6.1-1-.2-1.2-.4l-1-1c-.2-.3-1-.3-1-.3s.1-.4-.3-.7c-.4-.3-1.9.1-3.1.6-1.1.4-1.8.5-1.5-.5.3-1 1.2-1.2 1.6-1.6z"/><path class="st1" d="M81 85s-1-1-2.5-1.2c-1.4-.1-3.4 0-4.8.6-1.3.6-2.2 1.9-3.1 2.8-.9.9-2.3 1.3-2.7.5-.4-.8-1.3-1.9-1.8-2.2-.4-.5-.8-.5-.8-.5l.1.7s1 .1 1.3.5c.3.4.9 1 .8 1.3-.1.3-.5.4-1.2.3-.7-.1-1-.1-1-.1l-.6-.6s-.3 0-1 .1-.4.5-.4.5l-.6.3s-.1.4.9.4c1 .1 1.3-.1 1.6.4.4.5.4 1.5 1.2 1.3.8-.2 1.4-.6 2.2-.1.8.4 2.5.8 3.1.5.6-.3.8-.8.9-1 .1-.3.5-.4.7-.7.2-.3 0-.4.2-.7.2-.3.9-.2 1.6-.6.7-.4 1.2-.5 1.7-.5s.4-.6.4-.6.7-.4 1 0c.3.4.4.7 1.1.3.7-.4 1.3-.5 2.1-.3.7.2.8.4 1.5.3.7-.1 1.9-.1 1.9-.1l.1-.4s-1.1-.5-2.5-.5-2.8-.1-3.4-.1c-.6 0-1.2-.4-1.2-.4s-.4-.4-1.6 0c-1.2.4-1.9.1-2.8.8-.9.7-2 1.2-2 1.2l.3-.7s.4-.3 1.4-.8c1-.5 1.7-1.2 3-1.2s2-.5 2.9 0c1.3.5 2 .5 2 .5z"/><path class="st1" d="M73.1 90s.2-.4.7-.8c.5-.4.9-.7 1.4-.8.5-.1 1-.4 1.4-.4.5 0 1 .1 1.3.3.2.2.5.4.5.4s-.1-.1-1-.2-1 .1-1.6.6c-.5.5-.4.1-1.1.2-.7.1-.7.5-1 .7-.2.1-.6 0-.6 0zM56.4 87.1c.1-.4.5-.8 1.3-1.3.8-.4 1.5-1 2.2-1.3.7-.2 1 .1 1.6.1.6 0 1-.2 1.3.1.3.4.8 1.1.8 1.1s-1 0-1.9.1c-.9.1-1.7-.4-2.3.1-.7.5-1.3.7-1.9.9-.6.2-1.1.2-1.1.2zM63.1 84.3l1.3 1s.4.1.4-.2c-.1-.3-.5-.3-.8-.4-.3-.3-.9-.4-.9-.4zM64.7 86.3c0-.2.5 0 .5.2.1.2 0 .4-.2.3-.2-.2-.3-.3-.3-.5zM62.6 86.9l1-.8.5.8-.6.2z"/><path d="M69.6 88.3s.2.7.9.7 1.3-.2 1.6-.4c.4-.2.7-.5.7-.5s-.6-.1-1.2-.1-.8.6-1.1.4c-.3-.1-.9-.1-.9-.1zM73.3 87.4s.7.1.8-.2c.1-.3.2-.9.2-.9s-.5.1-.7.3c-.2.2-.3.8-.3.8zM58.6 74.9c-.7 0-1.2-.8-1.2-.8l-.4.6c-.2.3-.7.1-1.3-.1-.6-.1-.8-.8-.8-.8s-.1-.2.6-.4.8-.1 1.1-.7c.4-.8.9-1.5.6-1.9-.3-.4-.8 0-.8 0s-.8.7-1.5.4c-.7-.3-.8-.9-1.1-1.7-.3-.8-.3-1.9.5-2.4s1.3-.9 1.7-.4c.4.4.8.7.8.7s.5-.4.2-.8-.1-1 .3-1.6c.4-.5.9-1.1 1.2-1.1.5 0 1.2.9 1.5 1.4.3.5.7 1.2.2 1.7s-.4.8-.4.8.6.2 1-.3 1.1-1.2 1.7-.7c.6.4 1.5.6 1.4 1.1-.1.5-.5 1.4-.5 1.4s-.1.1-.7.1c-.5.1-.5.2-.7.7 0 .6.7.9.7.9s-.1.7-1 .6c-.8-.1-1.3-.6-1.3-.6l-.4.6s.1.3.7.7c.6.4.1 1 .9.9.8-.1 1.4-.1.8.5-.6.6-1.2 1.3-1.9.9-.8-.3-1.1.3-1.9.3z"/><path class="st3" d="M54.3 68.2c.4-.8.8-1.2 1.3-.7.6.4.8.3 1 .7.1.4.1.4.1 1-.1.5.1.9.1.9s-.1.4-.7.5c-.5.2-1 .2-1.3 0-.2-.2-.6-.5-.7-1 0-.6-.1-1 .2-1.4zM56.9 67.7s.4.4.5 1c.1.5.1.9.1.9l.5 1 .3-.6-.3-1.3s.1-.4.4-.3c.3.1.7.2.7.7 0 .5.1 1.1.1 1.1l.6-1c.3-.4.5-.9 1.1-.8.6.1 1.1.5 1.1.5s-.3.1-.9.4c-.6.3-.9.9-.9.9s.1.3.5.5c.5.3 1.3.3 1.3.3s-.4-.5-.2-1c.1-.5.4-.8.9-1 .5-.1.9-.5 1-.9.1-.4-.1-.8-1.2-.9-1-.1-1.4.7-2.2.9-.7.2-1.3.3-1-.3.3-.6.8-.8.8-1.6-.1-.8-.8-1.3-1.1-1.6-.3-.3-.5-.2-1 .3s-.7 1.1-.4 1.6c.5 1-.7 1.2-.7 1.2zM55.4 73.8s.8-.2 1.2-.4c.4-.2.7.3.7.3s.5-.4.8-.7l.7-.7.3 1.1.4-.9.6 1v-1.2s.5.8.7 1c.2.2 1 .4 1 .4s-.4.4-.9.5c-.5.1-1.6.1-1.6.1s-.3.6-.7.4c-.5-.1-1-.8-1-.8s-.5.8-1.2.7c-.7-.2-1-.8-1-.8z"/><path d="m58.5 65.8-.2.7.2.7.5-.5zM66.5 71.6l-1.6-.4s.3.6 0 1.3c-.3.7-.8 1.4-.8 1.4l.9.1 2.4-.3-1-1.3.1-.8zM72.6 73.4l2.1-1s.7 1 .7 1.6c0 .7-.2 1.1-.8.7-.6-.4-1.8-.9-1.8-.9l-.2-.4zM68.7 71.2s.7-.6.9-1c.2-.4.5-1.1.5-1.1l-1.9-.7s.5-.3.5-.6-.1-.7-.3-1c-.2-.4-.4-.1-.4-.1s.4-.1.4.5c-.1.5-.2.8-.2.8s-.4-.3-.9-.7c-.5-.4-.4-1.4-.4-1.4s-.7.1-1.5-.6-1.5-1.9-1.5-1.9.1.9.5 1.6c.4.7.5.7.5.7l-.2.6-.4-.5-.5.5s.1.1.7.4c.6.4.6.8 1.1 1.3.5.5 1.2.7 1.2.7l.4.2-1.3.5.4.2h1.2l.1.8h.5l.4.9c-.2.1.1.3.2-.1zM71.1 70.1s0 1 .4 1 .8-1 .8-1l1 .2.7-.4.8-.2s-1-.1-.5-.8c.4-.7 1.4-1 1.4-1s-.3-.5.1-.9 1.4-.9 1.4-.9l-.6-.1-2.1.9 1.6-1.2s1-.7 1.1-1.1c.1-.4.1-.9.1-.9s-.6.7-1.2 1.2c-.6.4-.6.5-1.6.8-1 .3-1.6.5-1.6.5s.2.1.1 1.1-.2 1.9-1 1.6c-.7-.4-1.6-.2-1.6-.2l.7 1.4zM81.2 64.5c.8 0 1.2-.6 1.7-.9.5-.3.6-.4 1.1-.1.5.3 1.5.6 2 1 .5.5.7 1 .1 1.7-.5.7-.5 1.2-1.3 1.8-.7.6-1.2.3-1.3 1-.1.8.1 1 .5 1.4.6.6 1 .6 1 .6s.2-.1-.1-.5c-.4-.4-.9-.6-.6-1 .3-.4.4-.8.7-.9.3-.1.5-.8.9-.7.4.1.9.1.9.1l.5-.7v1l-.5.8s.1.4-.5.4c-.7 0-.7.2-.7.2s.1.2.5.4c.5.2.8.6.4 1s-.9.7-.9.7.5.4.8 1c.3.5.4.9 0 1.6-.5.7-1 1.5-1.9.5-1-1-.9-1.5-.9-1.5s-.4.1-.9-.1c-.5-.3-.7-.5-.7-.5l-.7.1s.4.9-.3 1.3-1 .1-1.9.2c-.8.1-1-.1-1.2-.6-.2-.4.2-.6.2-1 .1-.5.1-1.3.6-.8s1 .5 1 .1c.1-.4.8-1 .8-1l-.3-.5s-.5.8-1.6.5c-1.2-.2-1.5-.4-1.9-.6l-1.2-.6 1-.5-.3-.5.7.2.5-.7 1.3.8s-.4-1.1-.7-1.7c-.2-.6-.5-1.2-.4-1.7.1-.5.5-1.2.5-1.2s.4-.3 1-.3c.9-.2 2.1.2 2.1.2z"/><path class="st3" d="m76.7 69.8.8-.7s.1.4.8.4c.7 0 1.3-.2 1.3-.2s.2-.3-.1-.8c-.3-.5-1-1-1-1.6-.1-.5-.4-1.3-.2-1.8s.5-.8 1-.6c.5.1.6.5.1.8-.4.3-.5.4-.1 1s1 .7 1.3.4c.3-.3.7-.4.6-.9-.1-.4.1-1 .5-1.2.4-.1 1.1-.5 1.6-.6.5-.1 1.2.1 1.6.6.4.5 1.3.5.9 1.2s-.5 1.2-1.3 1.9-1.1.8-1.1.8l-.8-.1-.6.2.7.5.5.4s-.3.3.2 1 1 .9 1 .9.8.2 1-.2-.2-.5-.5-1c-.2-.4-.4-.8-.1-1.1.4-.4.5-.8 1.1-.8.6 0 .7.3.7.3s-.5 0-1 .3c-.4.3-.8.6-.4.9.4.3.7.6.7 1-.1.4-.4.6-.8.9-.4.3 0 .6.3.9.3.3 1 1 .5 1.5-.4.4-1.9.3-1.3-.1.6-.4.8-1 .4-.8-.4.3-1 .1-1 .1s-.4-.4-1-.7c-.7-.3-1-.8-1.4-.5-.4.2-1 .7-1 .7l.1.6s-.2.3-1 .4c-.7.2-1.1.2-1.2-.1-.1-.4-.2-.9.3-1 .5-.1 1-.1 1.4-.7.4-.5 1-.7.8-1.3-.2-.5-.3-.7-1-.5-.7.2-1.9.2-2.3.1-.6-.1-1-.5-1-.5z"/><path d="M79.6 68.6s1-.4 1.9-.9c.8-.5 1.9-1.5 1.9-1.5l.1.4s-.8.6-1.7 1.2c-.9.6-1.9.9-1.9.9l-.3-.1z"/><path d="m81.5 67.7-.1.3 1 .6.2-.3zM82.3 64.5l.8.4-.2.1h-.6zM80.9 66l1 .4-.9.4-.8-.5z"/><path class="st1" d="m80.3 64.8-.3.8.6.4.2-.5z"/><path class="st3" d="m68 65.3.8.6.3-1.1h2l-.4 1.2 1.1.1.2-1c.1-.5.6-.4 1-.7s.8-.4.8-.4l.1.4-.4 1.1-.1.8s-.9.5-1 .3c-.1-.2 0 .6 0 .6V69s-1.7.4-1.6 1.4c.1 1-.1.5.7.7.7.1 1 .3 1.6.4.5.1 1.1.1 1.1.1l.4.6-.2.6 1 1.3-.4.6-1-.4-1.1-.9-.8.1.3-1.2-.7.2-.4.5-.6-.1.2-.4-1.2-.1-1.1.6-.9-.4-1 .6.5.5s-1.3-.1-1.9 0c-.6.1-1 .2-1 .2s.4-.5.7-1.1c.2-.6.4-1.4.4-1.4s.2.1.9.4c.7.2 1.3-.1 1.3-.1l1.3-.1.7-1.4-.6-1.4-.1-1s-.1-.4-.6-.8-1-1-1-1l-1-.2.3-1.6.8.4.6.7z"/><path class="st4" d="M66.9 54.5c-1.5 1.5-3.1 2.3-3.1 2.3l-.2-1.3s-.7.1-.7.7c.1.6.2 1.4-.7 2.1-1 .7-1.8.9-2.5.2-.8-.7-1.2-1-.5-1.4.7-.4.5-1 .5-1l-.5-.5s.3.7-.4 1c-.7.2-1 .4-1 .4s.7.2.6 1.4c-.1 1.2-.1 3.2-2.6 3.6-2.5.4-4.3.1-5-.4-.7-.6-1-2-.1-2.5 1-.4 1-.4 1.5.1s.8 1 .3 1c-.5.1-.8.4-.8.4s.3.5.8.2c.4-.3.8-.6.6-1.3-.2-.7-.3-1.7-1.3-1.6-1 .1-1.9-.4-1.9-.4s0 .6-.4 1-1.3 1-1.7.6c-.4-.4-.7-1.4-.5-1.6.1-.2-.5-.1-.9-.3-.4-.2-1-1-.8-1.6.1-.5.2-2.2-.3-1.3-.5.9-.9 1.3-1.6 1-.7-.3-1-.1-1.5-.1s-1.4-.3-.9-.6c.5-.3 1-.4.7-.8-.4-.5-.7-1.6-1.4-1.6-.7.1-1.4.6-.7.8.8.2 1.2.6 1 .9-.1.3-1.3 1.2-1.9.6-.7-.6-1.4-1.5-1.4-1.5s-.8.5-1 1.5c-.1 1-.4 2.2.6 3.1 1 .8 1.4.7 1.9.3.5-.4.4-1.5-.1-1s-1.5.2-1.1-.7c.4-.9 1.3-1.5 2.3-1 1 .5 1 2.1 1.1 2.5.1.4-1.4 4.9-1.4 4.9L31 59.2l.7-6.4s-.9-.1-1.8.1c-.9.1-1.8-.2-2.2-1.3-.4-1-.2-2.2.7-2.5.9-.3 1.5-.8 1.1-1-.4-.2-.8-1.1.3-1 1.1.1 2.2.5 2.2-.4s-.1-1.3-.1-1.3l1.1.1-.5-.7s.5-.1 1.3-.1 1-.1 1-.1 0-.4-.1-.9.1-1.1.1-1.1.8.3 1.4.4c.7.1 1.2.6 1.6.4.4-.2.8-.4.8.1 0 .4.2.7.8 1.1.6.4 1.4.4 1.4.4s-.7-.9-1-1.5c-.2-.6-.4-.9-.7-1.2-.3-.3.4-2.1.4-2.1l4.8-4 .4 2.6s-1.4.3-1.8 1c-.4.7.2 1 .2 1l.5-.8s.1 0 .8.6c.7.6 1 .4 1.4.2.4-.2 1-.4 1.3.3.2.7.1 1.2.6.9.5-.3.9-.4.8.2-.1.6.2.8.7.5.5-.4.8-.8 1.9.1 1 .8.9 1.6.9 1.6l.9-.7.2.9s.3.5.6.9.7.8.7.8.3-1 1.4-1.2c1.1-.1 2.6.2 1.9 1.3-.7 1-1.1 1.6-1.1 1.6s3.7-.8 6.5-2.5 5.8-1.6 5.8 3.4c.5 4.7-.5 4.1-2 5.6zm-35.7-3.7c.4.1 1.5.2 1.5.2l1.1-1.3s-1.3.1-1.8.2-1.2.1-1.6.2c-.4.2-.7 1-.7 1s1.1-.5 1.5-.3z"/><path class="st5" d="M33.3 52.1s-.6 2.6.1 4.3c.7 1.6 1.8 2.8 3.2 2.8 1.4 0 2.7-.5 3.1-.8.4-.3.8-.2.5.1-.3.4-1.6 1.4-3.7 1.3-2.2-.1-3.5-1.9-3.7-3.9-.2-1.9.5-3.8.5-3.8z"/><path d="M64.1 43.7c-1-.2-1.3-.4-1.9.1-.6.6-.7.9-1.3.8-.6-.1-.7 0-1.2.8s-1.2 1.4-1.5 1.6c-.3.1-.1.5.4.5s.7.3.3.6c-.5.3-.8 1.3 0 1.3.7 0 .7-.1 1.5-.2s1.2-.3 1.6-.7c.4-.5 2.8-2.5 2.8-2.5l1-2.3h-1.7z"/><path class="st4" d="M45.6 75.2c0 .7-.1 2.2-.8 2.7-.7.4-1 1.7-.6 2.5.4.7.8 1.1 1.4.8.6-.3 1.1-.6 1.1-.6l-.7.9.1.5s-.5.3-.8.7c-.3.4-.7 1.5-.7 1.5s-.3 1.3-1 1.4c-.7.1-2 .2-2 .2s.1-.6.3-1 .3-.8.3-.8-.7.4-1.2 0-.7-.9-.7-1.2c0-.3 0-.7-.5-.5-.4.1-2.5 1-4.6-.5-2.1-1.4-2.2-3.4-1.8-4.5.4-1.1.7-1.1 1.3-1 .7.1 1.4-.1 1.4.2 0 .4-.5 1-.8.8-.4-.2-.6.2-.5.6.2.4.6 1.3 1.2 1.3.6.1 1.3-.1 1.3-.1s-.7-.4-.8-1c-.1-.6-.1-1.4.4-1.6.4-.2.7-.7.7-.7s-.8-.8-.4-1.4c.3-.6.9-1.2 1.6-1.3.8-.1 1.5.2 1.5.2s-.1.4-.5.7c-.4.4-.4.8.3 1.2.7.4 1.4.2 1.8-.3.4-.5.6-1.6.6-1.6l1 .5 2.1 1.4z"/><path d="M45.5 84.1c.7.7 1 .3 2-.1 1-.5.6-.8.6-1.4 0-.7-.7.2-1.5.2-.8.1-1.1-.3-.8-1.2.5-1.5 2.3-1.2 3.2-.4.8.7.7 1.6.1 2.8-.6 1.2-1.4 1.8-2.7 2.2-1.3.4-2.2-.4-2.9-1-.7-.7.1-2 .1-2 .6-.4 1.1.3 1.9.9zm1.4-2.3c.4-.1.7-.1.7-.1l.1-.7s-.3-.4-.7-.2c-.4.1-.7.7-.7.7s.2.4.6.3zM34.8 49.1s-2 1-3.3 3c-1.3 2-1.9 4.6-1.5 7 .4 2.4 1.3 3.8 2.2 5 .8 1.2.6 1.9.5 2.1-.1.2-.1.4-.1.4s-.6-.4-1.3 0c-.8.4-1.2 2 0 2.4 1.2.4 1.4-.2 1.7-.7.3-.4.7-.8.7-.8s.4 1 1 1.2c.7.1 2.1.4 2.5.7.4.3.7 1 .7 1s-.2.8-.7.5c-.5-.4-.5-.8-.5-.8s-.3-.3-1 0-.4 1 .5 1.4c1 .5 1.8.5 2.5.1s1-.9 1.8-.4c.7.4 1.3 1.2 1.5 2 .1.8 1.3 1 2.2 1.5.9.5 1.1.7 1.6 1.4.4.7.7 1 .1 1.3-.6.4-.8.5-.8.5s.8.4 1.5 0 1.3-1 1.4-2.1c.1-1.1-.1-1.7-.6-2.3-.4-.6-.5-1.3-.2-2.2.3-.8.5-1.3 1-1.6.5-.2 1-.5 1-.5s-.7-.2-1.1-.3c-.4-.1-1-.3-.4-.5.5-.2 2.5-.4 2.8-2.5s-.4-4.9-1.9-4.3c-1.7.7.3 1.7-.8 2.7-.5.5-1.7.9-1.6 0 .1-.8 1.6-2.8 2.2-3.7.3-.5-.2-1.1-.7-1.5-.5-.4-1.4.1-1 .5s.5.4.4.8c-.1.4-.3.4-.7.1-.4-.4-.7-.9-.4-1.3.3-.4.2-1.1-.1-1.3-.4-.1-.6-.2-.6-.8 0-.5.2-1-.6-.7-.8.3-1 .4-1.3.6-.3.1-.5.3-.6-.2-.1-.5-.3-.5-.6-.7-.3-.1-.6-.1-.7.1-.1.2-1.1.1-.8.7.3.6.7.7.4 1.3-.4.6-1 1-2.5 1.2-1.6.1-4.1 1-5.4-2.4-1.3-3.4.4-5.5.9-6.4.1-.8.7-1.5.7-1.5z"/><path class="st6" d="m31.3 54.6-.5.7v.5l.5.3.5-.9-.5-.1zM30.6 54.7l-.2 1.4-.3.4zM30.6 56.5l.8.2.4.6-.5.5s-.2 1 .1 1.6c.4.6.5 2.2 1.1 2.5.6.4 1 .2 1 1s.4 1.6.4 2.8c0 1.2-.5 1.8-1.3 2.3-.9.5-1.6.5-1.7.1-.1-.4.1-.8.1-.8s.2.6.8.5c.6-.1 1.3-.3 1.5-1.1.1-.8.2-1.9-.4-2.5-.7-.7-1.3-1.8-2-3.7-.7-1.9-.6-2.9-.5-3.3 0-.3.2-.7.2-.7zM33.8 61.6l.2-.4.4.4.4.5-.5.4.6.9v.8s.7.9 1 1c.4.1 1 .6 1 .6l-.1.7-.8-.4c-.6-.3-.8-.5-.8-.5v.4s.3.8.9 1c.6.2 1.2.5 1.2.5l.9 2.1s-.9-.4-1.7-.6c-.8-.2-1.8-.3-2-.7l-.4-.8s.5-1 .6-1.6-.3-1.8-.3-1.8l-.4-.2.1-.5-.1-.6-.3-.8.1-.4zM37.2 71.5l.6.1v-.3zM38.3 70.5l.4.6.4-.3-.1-.7h-.3zM38.1 67.9l.6 1.3.7-.4.3 1-.1.6s.5.1 1 .4c.4.3 1.2.7 1.4 1.1.2.4.6.9.6.9s.1-.4.4-.8c.3-.4.4-.9.4-.9l-.9-.6-.2.5h-.5l.1-.5.1-.3s-.3-.6-.5-1.2-.7-1.1-.7-1.1-.6-.1-1.3-.1c-.7.1-1.4.1-1.4.1zM37.5 65.9l.3 1 .3-.1-.1-.8zM36.7 63.6l.6.5.4.6-.4.2-.5-.7zM38.5 63.9l-.1.3.6.4zM38.6 66.3v.8l1.6-.3-.3-.6-.7-.3.1.5-.3.1zM40.5 66l.3.5.6-.3-.6-.4zM41.7 66.3l-.3-.8.3-.5.5.7zM38.5 63.3s.1.4.8.4c.7.1 1-.4 1-.4l-.4-.3s-.1.4-.4.3c-.5-.1-1 0-1 0zM40.3 62.7l.3.5.2-.3zM40.5 61.9l.9.7.3-.9zM41.1 61.4l.6-.3v-.4zM41 60.5l.5-.6s.1-.2-.1-.6c-.3-.4-.7-.3-.8.1-.2.5-.3 1 .4 1.1z"/><path class="st6" d="M31.8 57.9s.4.7.7 1.4c.3.7.7.9.7.9h-.6s-.4-.5-.5-1c-.2-.4-.3-1.3-.3-1.3zM32.8 58.8s1.1 1.6 2.2 2.3c1.1.7 2.3 1.4 2.9 1.3.6-.1.8-.5.4-.7-.4-.2-1.9-.7-1.9-.7l.5-.1 1.8-.2-.3.5.7.2s.4-.2.6-.6c.1-.4 0-1 0-1l-3.2.6-.5-.4-1.6-.2 1.2.7-.4.2-.8-.4H34l-1.2-1.5zM41.4 57.2s.3.6.2 1.3c-.1.7.3.8.6 1.2.3.4.8-.1.8-.1l1.2-.9v.5l-1.9 1.6 1 .1-.1.4-.5.2-.2.8.3.3-.4.3-.1.7.3.7-.6.1v.5l1 .4s.4.1.8-.4c.4-.6.3-1.7.8-1.7s.9.1 1 .5c.1.4.4.1.4.1s-.1-.3-.1-.7c.1-.4.5-1.1.5-1.1l.8-.5.1-.4s-1 .5-1.5.1-.4-.6-1-.6-1-.3-.4-.7c.5-.4 1.1-.4 1-1-.1-.5-.7-.4-.8-1-.1-.5-.1-1.2-.7-.7-.6.4-1.1 1-1.3.6-.2-.4-.7-1-.7-1l-.5.4zM41.8 67.8l1.1 2.2-.9.3.1-1.4-.4-.8z"/><path class="st6" d="m42.3 67.7.1-.6 1.2-.8 1.9.4.2-.2-1.3-.5s.4-.5.4-.9c.2-.4.2-1.1.2-1.1s.7 1 1.3 1.3c.7.2 1.4 0 2-.6.6-.6.7-1.2.3-1.5-.4-.3-.2-.7-.2-.7s.4-.5.9.1c.4.6 1 1.2.5 2.1-.4.9-1 1.4-1.6 1.7-.6.3-1 .4-1 .4l.2.2s1-.1 1.5-.5c.4-.4.9-.7.9-.7l-.1 1.5s-.5.7-1 .8c-.5.1-1 .1-1 .1l-1.1-.8-.6.3.7.4s-.6.1-.9.4c-.3.3.3 1 .3 1l.2.8.6-.7.7.2-.2.4-.6.1.2.7s.1.4-.2 1c-.4.5-.8.4-.8.4s.1-.2-.3-1.1c-.4-.9-.7-1.4-1-1.3-.4.1 0 .5.1 1 .1.4-.1 1.3-.1 1.3s-.1 0-.5-1.1c-.5-1.1-1-1.7-1.2-2.3-.4-.6-.7-1.2-.7-1.2zM43.8 72.3s.1.7.9 1.3c.8.5 1.1.5 1.1.5l.8 1.8s-.8-.2-1.2-.9c-.4-.7-1.3-.7-1.3-.7l-.9-1 .6-1zM45.1 73.2l1.9 1.2.1-.4s-.5-.2-1-.7c-.3-.4-1-.1-1-.1zM44.7 84.5c-.2.3 0 .7.4 1 .4.3.8.7 1.3.4.5-.2.6-.4 1-.8s.7-.5 1.1-1.1c.4-.6.4-.9.4-1.5-.1-.6-.5-1.3-.5-.7 0 .6.4 1.5-.4 2.2-.7.7-1.2 1.1-1.9.7-.6-.3-1.4-.2-1.4-.2z"/><path class="st4" d="M47.6 81.7c-.3 1.2-1 2.9-.8 4.3.2 1.4.5 2.8 0 4.3-.5 1.6-.9 1.8-1.3 2.2-.4.4-.4.4-.1 1 .4.6.4 1.9-.4 2.2-.7.4-1.2.2-1.7.5s-.4-.6-.9-.2c-.5.4-.8.5-.9-.2-.1-.8-.3-1.3-.8-.8-.4.5-.9.8-1.5.1-.6-.7-.9-1.6-.1-1.9.7-.3.5-1.3 1.1-1 .6.4 1.2 1 1.2.1 0-1 .1-2.1.1-2.9 0-.8.8-1.4 1.4-1.1.7.3 1.4-.4 1.9-.4.5-.1.8-.4.5-.9-.3-.4-.3-1.4-.1-2.3.2-.9.7-2.8 1-3h1.4z"/><path class="st5" d="M43.8 89.6c.7-.2 1.2.5.5.8-.7.3-.8.1-1.3.9-.5.7-.8.5-.5 1.6.2 1.1.4 2 .4 2l-.7-.6s-.5-1-.1-2.4c.4-1.2 1.1-2.1 1.7-2.3z"/><path class="st5" d="M44.8 90.7c-.8.1-1.2.6-1.4 1.2-.2.6-.2 1-.2 1s.6-.5 1-.8c.5-.3 1.4-1.4.6-1.4zM45.8 91c-.5.1-1.5 1.2-1.4 2.1.1.9.1 1.6-.2 1.9-.2.4.2 1 .5.7.3-.4.2-.9.1-1.8 0-.9.2-1.5.8-1.9.5-.4.7-1.1.2-1zM43.3 93.7l.4.5-.1.3-.4-.2zM41.5 93.8l.6 1.2-.6-.1zM40.5 93.7s-1.3.2-1.1.7c.2.4.8.6.8.6s-.3-.6 0-.7c.3-.2.3-.6.3-.6zM44.7 88.9l.7-.3-.2.3zM45.6 89.2l.6.3v-.6zM39 76.6c.9.3 1.7.2 2.2-.1.5-.4 1-.9 1-.9s-1.6.6-2.3.2c-.7-.4-1.1-.6-1-1 .1-.4.7-.8.7-.8s-.4-.5-1 0c-.7.4-.7 1-.8 1.6-.1.5.6.8 1.2 1z"/><path class="st5" d="M37.4 77.1c1 0 1 .4 2 .3 1-.1 1.6 0 2.1-.5.4-.5 1-1.1 1-1.1s.4.1-.2.8c-.6.6-1.2 1.2-1.6 1.4-.4.2-.9.3-.9.3s.6.3 1.3-.1c.7-.4 1.3-1 1.5-1.3.2-.4.4-.9.4-.9s.2.5-.1 1.1c-.3.6-.7 1.6-1.6 2.2-.9.6-1.3.9-2 1-.7.1-1.2-.1-1.2-.1l1-.8-.7-.4s-.5.2-1-.4 0-1.5 0-1.5z"/><path class="st5" d="M42.7 77.5s-.6 1.6-1.8 2.2c-1.2.6-3 1.2-3.6.8-.6-.4.1-.8.1-.8s-.1-.1-.8-.1c-.7.1-1.4-.4-1.7-1-.3-.6-.3-1.3-.3-1.3s-.7 1-.1 1.5c.5.5 1.5.8 1.9 1.2s.6.9 1.6.8c1-.1 2.2-.1 3.2-.9 1-.7 1.5-2.4 1.5-2.4z"/><path class="st5" d="M34.2 79.9c-.1-.4.1-.7.7-.4.6.4.7.6 1.2 1s1.4.7 2.5.5c1.1-.1 2.4-.1 2.8-.9.4-.8 1.4-2.2 1.4-2.2s-.3 1-.7 2c-.4 1-1.4 2.2-3 2.2s-3.2-.1-4-.7c-.6-.6-.6-.8-.9-1.5zM43.8 75.3c-.3 1-.3 1.6-.1 2.2.1.6.5.4.9-.1.4-.6.8-1 .7-1.3-.1-.4-1.5-.8-1.5-.8zM43.3 78.7c-.2.8-.2 1.2-.4 2.1-.1.9-.4 1.3.1 1.5.4.1.7 0 1.1.2.4.2 1-.2 1-.2s.4-.5 0-.7c-.4-.1-.9-.4-1.2-1.1-.3-.7-.2-1.2-.1-1.5.1-.3-.3-.9-.5-.3zM42 81.1s-.4.6-.6 1.2c-.2.6-.1 1.3.2 1.3.3 0 1 .1 1 .1s.4-.7-.1-.8c-.5-.1-.7-.4-.5-.8.3-.4 0-1 0-1z"/><path class="st6" d="m59.7 47.2.6-.5.1.3-.5.5zM60.8 46l.9-.5-.6.9-.5.1zM63.1 44.6l1-.8h-1.5s-.3.9-.9 1c-.6.1-1.3.4-1.3.4l-.4.6s.3-.1 1.1-.3c.8-.2 1.1-.4 1.1-.4l.9-.5zM59.4 49l.3-.6.6.2z"/><path class="st5" d="M50.7 54.7c.8.7 1.7.7 2.2.8.5.1 1.3.8 1.8 1.2.4.4.7 1 .1 1.5-.6.4-1 .4-1.5-.1-.5-.4-.6-.6-1.3-.5-.7.1-1.3.1-1.8-.6s-.7-1.3-1-1.3c-.3 0-.5.2-.2.7.3.4.4.7-.1 1.2-.4.4-.9.6-1 .2-.1-.4.2-.4.5-.4.2 0 .2-.6-.2-.7-.4-.1-.7.4-1.2.1-.5-.3-.9-.5-1-1.3-.1-.7.1-1.8-.2-2-.4-.2-1 .1-1.2.6-.2.5-.4.5-.7.5s-.4-.1-.2-.6c.1-.5-.1-1.3-.2-.7-.1.5-.4 1-.8 1.1-.4.1-.7.1-.7.1s.6-.3.6-.7c0-.4-.1-.8-.4-1-.3-.3-.5-.5-.1-.8.4-.3.9-.7.7-.9-.2-.1-.9 0-1.1.3-.2.3-.5.6-1 .4-.4-.2-1-.3-1.5 0s-.3.9 0 1.2c.3.3.8.9.4 1-.4.1-.8-.2-1.1-.7-.3-.4-.6-.7-.3-1.1.3-.4 1.1-1.2.8-1.3-.3-.1-.3-.1-.7.4-.5.6-1.3 1.4-1.3 1.4s-.4.3-.6 1.3c-.2 1-.4 1.6-.2 2.3.2.7.5 1.1.5 1.1s-.8-.8-1-1.9c-.1-1-.7-2.3.5-3.6 1.1-1.3 2.5-2.4 4.7-2.3 2.2.1 3.4.3 4.7.9 1.3.6 2.6 1 2.6 1l-2.9.1-1 .5 6.4-.1s1.3.1 1.9.2c.6.1.3.4-.5.6-.8.1-1.4.6-1.6 1-.2.4 0 .7.2.9z"/><path class="st5" d="M51.3 54c-.1-.4.4-.6 1-.7.6-.1 1.4-.5 1.4-.5s-.5.3-.2 1c.2.7 1 1.2 1 1.2s.1-.1-.2-.6c-.4-.4-.4-1.2-.4-1.2l1 .1s-.1 1 .4 1.7c.6.7 1.4 1.6 1.6 2.5.1 1 .3 1.9 0 2.3-.3.4-.5.9-.5.9s1-.7 1.1-1.3c.1-.6.2-1.9.2-1.9s.4.5.4 1c0 .4-.2 1.6-.9 2.2-.7.6-1.4 1-2.4 1s-2.5-.1-2.5-.1l1.4-.6.8-.1h1s.7-.4.6-1.2c-.1-.7-.3-1.5-.3-1.5l-1.4 1.4-.4-.5 1.7-1.3s.1-.5-.2-.9c-.4-.4-.1-1.1-1.3-1.4-1.2-.4-2.7-.1-2.9-1.5zM51.3 59.6s-1 .1-.6.4c.4.4.6.6.7.2.2-.3.2-.6-.1-.6zM35.8 51.5c-.7 1.2-1.1 2.8-.4 4.5.7 1.6 2.5 2.5 2.5 2.5s-.7.6-2.1.2c-1.3-.4-2.2-1.9-2.2-3.4-.1-1.5-.4-3.1.8-4.4 1.1-1.3 1.8-1.9 3.4-2.2 1.6-.3 2.8-.4 3.8 0s1.9.6 1.9.6-2.2-.1-3.6.1c-1.5 0-3.3.7-4.1 2.1zM39.3 48s-2-1.6-4-1.3c-1.9.3-3.3.6-4.3 1s-2.6 1.8-2.6 1.8-.7.3-.2.9c.5.6.7.3 1.1-.2.4-.5.7-.5 1.5-.5.7 0 1.5-.1 1.7-.7.2-.6 1.1-1.6 1-1-.1.6.8 1.3 1.5.8s1.3-.9 1.8-1c.5-.1 2.5.2 2.5.2z"/><path class="st5" d="M32.8 46.1c.9.1 3.4-.1 4.9.5 1.5.6 5.3 2 7.3 2.8 2 .8 3.9 1.3 5.8 1.7 1.9.4 3 .5 3 .5l-.7-.5s-3.1-.7-4.5-1.6c-1.3-.9-1.9-1.5-2.9-2.7-1-1.2-1.7-2.2-1.7-2.2s-.6 1-1.9.9c-1.3-.1-2.5-.7-3.1-1.3-.6-.6-.7-.6-1.7-.7-1-.1-1.7-.4-1.7-.4s.1 1-.1 1.3c-.2.3-.7.3-1.3.4-.6.1-.4.6-.4.6l-1 .7z"/><path class="st5" d="M53.7 50.9v-.5s-1-.5-1.6-1c-.5-.5-.8-1-.8-1s.1.6-.2.8c-.4.2-.9 0-1.2-.7-.3-.8-1-1.4-.9-2.5.1-1 .2-1.4.2-1.4s-.6-1.1-1.1-1.6c-.5-.4-1.3-1.4-1.3-1.4s-.8-.1-1.2-.1-.9-.5-1.2-.6c-.3-.1-.5.5-1 .4-.5-.1-.9-1-.9-1s-.2.9.7 2.4c.9 1.5 2.7 3.3 3.7 4.3s2.2 2.2 3.6 2.8c1.3.6 3.2 1.1 3.2 1.1z"/><path class="st5" d="M41.9 44.6c.8.5 2.1-.1 1.3-1-.7-.9-1-1.5-1.1-2.2-.1-.9.1-1.4.1-1.4s-1 .9-1.4 1.8c-.5.9-.3 1.9 1.1 2.8zM40.2 41.9s.3-.8.8-1.3c.5-.4 1-.9 1-.9s0-.2-.6-.1-1.1.7-1.1.7l-.5 1.3.4.3zM48.4 42.9s.6.4.8.7c.2.3.4.7.4.7s.2-.4.4-.6c.1-.2.2-.5.2-.5s-.3.2-.8 0-1-.8-1-.8v.5zM51.1 42.9c.4.3 1 .4.9 1.3-.1.9-.1 2.4-.1 2.4l.4.6s.1-.8.1-1.5c.1-.7.6-1 .6-1s.4.3.7.9c.3.6.5.6.5 1.3 0 .7.2 1.1.2 1.1s.3-.1.3-.8c0-.6.1-1 .6-1.3.5-.3 1.2-.3 1.2-.3s-.6.7-.2 1.4.4 1.1.4 1.1l.6.1.7-.3v.3s-.4.1-1 .5-.9-.1-.9-.1l-.5-.8-.4.4.1.5 1 .6.7.4s-1 0-1.9.1c-.9.1-.7-.6-1.3-1-.5-.4-.9-1-.9-1l-.4.1 1.3 1.6s-.9.4-1.6-.6c-.7-1-.9-1.4-1-2-.1-.6-.2-1.1-.2-1.1s-.4.7-.3 1.6c.1.9-.1 1.3-.1 1.3s-.7-1.3-1-2.1c-.3-.8-.1-1.5.2-2.2.4-.5 1.3-1.5 1.3-1.5zM61.5 49.2c-1 1-1.9 1.6-2.6 1.8-.7.2-1.1.2-1 .7.1.4.4.5 1.3.3 1-.2 2.1-1.1 2.4-1.5.4-.4-.1-1.3-.1-1.3zM57.3 52.8c1.4-.1 2.3-.7 2.7-.5.4.1.8.1.8.7s-.1 1.4.3 1.2c.5-.2 1.2-.6 1.5 0 .3.6.9.7.3 1.3-.6.6-.3 1-.4 1.2-.1.2-.3-.2-.7-.8-.5-.5-.8-1.3-.8-1.3s0 .9.2 1.6c.2.7.6.6.4 1.3-.2.7-.7 1.2-1.2 1-.5-.2-.1-.5.1-.8.2-.3.7-.3.4-.9-.3-.6-.5-.6-.9-.9-.4-.3-.4 0-.1-.8.2-.7.4-2.5.1-1.9-.3.5-.1 1.3-.7 1.6-.5.3-1 1.1-1 1.1s.1-.6-.2-.8c-.3-.2-1.3-.4-1.6-.4-.5-.1-.5-.8-.5-.8s.6 0 .7-.3c.2-.3.6-.8.6-.8z"/><path class="st4" d="M47.4 53.5s1-.7 1.3-1.2c.4-.5-.3-1.1-.7-1.6s-.9-1-.2-1.3c.7-.4 1.3-.7 1-1.2-.4-.5-.7-1.1-1.6-1-.9.1-2.5 1.3-1.4 1.6 1.1.3 1.8.8 1 1.1-.8.3-1 .6-.8.9.3.3 1 .4.8.9-.3.4 0 1.7.6 1.8z"/><path d="M39.3 41.3c.4-1.4.3-1.7.3-2.5 0-.7.5-1.6.6-1.1.1.5.6.4 1 0s.6-.8.4-1.3c-.2-.5-1.1-1.4-.4-1.5.7-.1 1.8-.1 1.3-.5s-1.2-.9-.1-1.1c1-.2 1.5-.1 1.8-.4.3-.4.8-.8.4-1.1-.4-.4.6-1.3 1-.7.4.7.1 1.3 1.3 1.1 1.2-.2 2.4-.7 1.4-1.1-1-.4-1.3-.7-.2-.8 1-.1 2.1.2 2 .7-.1.4 1.3.2.8.7-.4.4-.5 1-.5 1.9 0 .8-.7 1.1-.3 1.5.4.4.7.8.9 1.3.1.4 1.2-.6 1.3 0 .1.6-.1 1.4-.4 1.6-.3.2-.6.3-.6 1.1s.1 2-.6 2.4c-.8.4-1.4-.1-1.7-.1-.3.1-.5-.8 0-.7.5.1 1.1-.9.5-1-.7-.1-1.5-.4-1.8.2-.3.7-.8 1.3-1.1 1.1-.4-.2-.4-.5-.5-1-.1-.4-.4-.5-.7-.1s-1.4.6-1.4-.1-.1-1.6-1.4-.9c-1.3.7-1.4.5-1.9 1.3s-1.4 1.1-1.4 1.1z"/><path class="st6" d="m44.1 33.3-.2 1.3h-.7s.2.8-.1 1.4c-.2.7-1.1 1-1.1 1s.2-.4 0-.8-.4-.9-.4-.9.6-.1.8-.2c.2-.1.9-.5.5-.8-.4-.3-.4-.7-.4-.7l1.6-.3zM45 31.6c.2.9-.1 1.4-.4 2-.3.6-.3 1.9-.3 1.9l.6-.5v-1l1.5.1-.6-.7.4-.2 1.4.3 1.5-1.6.3.2-1.1 1.9s.2.8.7.4c.5-.4.7-1 .8-1.8.1-.8-.1-2.3-.8-1.5-.7.8-1.6 1.9-2.3 1.7-.7-.1-1.3.4-1.3.4s.2-.6.2-1.1c0-.5-.2-1-.2-1s-.4.1-.4.5z"/><path class="st6" d="M45 35.9c.3.3.6.4.9 0s0-.9-.4-.7c-.4.2-.8.3-.5.7zM46.6 34.9c-.1-.2.2-.9.7-.4.5.5 1 1.2.9 2.1-.1.9-.1 1.3-.4 1.6-.3.2.1.7.1.7l-.7.9-.4-.7-.6-.3.1-.8s.7-.6.7-1.6c0-1.1-.4-1.5-.4-1.5zM49.1 35.3s.9-.7 1 .1c.1.7.3 1.5.9 1.5.6 0 .8.2.5.8-.3.5-1 .7-1.5.1s-1-1-1-1.5c.2-.5.1-1 .1-1zM48.6 38.2c.2-.6.9-.9 1.2-.4s.5 1.1.9 1.1.7.8.3 1.3c-.4.5-1 .5-1 .5s.1-.2.1-.7c.1-.5-.3-1.3-.9-1.1-.6.2-1 .3-1-.1 0-.3.2-.2.4-.6zM40.9 39.2c.5-.8.7-1.3 1.7-1.3 1 .1 1.5.3 1.5.3l-.7.7s-.4-.3-1-.4c-.6-.1-.7.3-1 .6-.3.3-.5.1-.5.1zM44.6 36.8c.4-.2.8-.4 1.2 0 .4.4.5 1 .1 1s-.6-.1-.7-.5c-.1-.4-.6-.5-.6-.5z"/><path class="st4" d="M71 49.3c0-5 3-5.1 5.8-3.4 2.8 1.7 6.5 2.5 6.5 2.5s-.4-.5-1.1-1.6c-.7-1 .8-1.4 1.9-1.3 1.1.1 1.4 1.2 1.4 1.2s.4-.5.7-.8c.3-.4.6-.9.6-.9l.2-.9.9.7s-.1-.8.9-1.6 1.3-.5 1.9-.1c.5.4.9.1.8-.4-.1-.6.2-.5.7-.2.5.3.4-.2.6-.9.2-.7.9-.5 1.3-.3s.7.4 1.4-.2c.7-.6.8-.6.8-.6l.5.7s.6-.4.2-1c-.4-.7-1.8-1-1.8-1l.4-2.6 4.8 4s.7 1.8.4 2.1c-.3.3-.4.6-.7 1.2-.2.6-1 1.5-1 1.5s.8-.1 1.4-.4c.6-.4.8-.7.8-1.1 0-.4.4-.3.8-.1.4.2.9-.2 1.6-.4.7-.1 1.4-.4 1.4-.4s.2.6.1 1.1c-.1.5-.1.9-.1.9s.2.1 1 .1 1.3.1 1.3.1l-.4.8 1.1-.1s-.1.5-.1 1.3 1 .5 2.2.4c1.1-.2.7.7.3 1-.4.2.2.7 1.1 1 .9.3 1 1.5.7 2.5-.4 1-1.3 1.4-2.2 1.3-.9-.1-1.8-.1-1.8-.1l.7 6.4-8.8 3.3s-1.5-4.6-1.4-4.9c.1-.4.1-1.9 1.1-2.5 1-.5 1.9.1 2.3 1 .4.9-.6 1.2-1.1.7-.5-.5-.6.5-.1 1 .4.5.8.5 1.9-.3 1-.8.8-2.1.6-3.1-.1-1-1-1.5-1-1.5s-.8.9-1.4 1.5c-.7.6-1.8-.3-1.9-.6-.2-.3.3-.7 1-.9.7-.2.1-.7-.7-.8-.7-.1-1 1.1-1.4 1.6-.4.4.1.5.7.8.5.3-.4.6-.9.6s-.8-.1-1.5.1c-.7.3-1-.1-1.6-1-.5-.9-.5.8-.3 1.3.1.5-.4 1.3-.8 1.6-.4.2-1 .1-.9.3.1.2-.1 1.2-.5 1.6-.4.5-1.3-.2-1.7-.6s-.4-1-.4-1-.9.5-1.9.4c-1-.1-1 .9-1.3 1.6-.2.8.1 1 .6 1.3.4.3.7-.2.7-.2s.2 0-.3-.1-.1-.5.3-1 .5-.5 1.5-.1c1 .5.6 1.9-.1 2.5-.7.6-2.5.8-5 .4s-2.5-2.4-2.6-3.6c-.1-1.2.6-1.4.6-1.4s-.3-.1-1-.4c-.7-.2-.4-1-.4-1l-.4.5s-.1.6.5 1c.7.4.2.8-.5 1.4-.7.7-1.6.4-2.5-.2s-.8-1.5-.8-2.1c.1-.6-.7-.7-.7-.7l-.2 1.3s-1.6-.8-3.1-2.3c-1.6-1.5-2.6-.9-2.6-5.9zm39.7 2.5s-.2-.8-.7-1c-.5-.1-1.1-.1-1.6-.2s-1.8-.2-1.8-.2l1.1 1.3s1-.1 1.5-.2 1.5.3 1.5.3z"/><path d="M76.3 44.4c1-.2 1.3-.4 1.9.2.6.6.7.9 1.3.8.6-.1.7 0 1.2.8s1.2 1.4 1.5 1.6c.3.1.1.5-.4.5s-.7.3-.3.6c.4.3.7 1.3 0 1.3-.8 0-.8-.1-1.5-.2s-1.2-.3-1.6-.7c-.4-.4-2.8-2.5-2.8-2.5l-4.9-3.2 5.6.8z"/><path class="st4" d="M94.8 75.9c0 .7.1 2.2.7 2.7.7.4 1 1.7.6 2.5-.4.7-.8 1.1-1.4.8-.6-.3-1.1-.6-1.1-.6l.7.9-.1.5s.5.3.8.7c.3.4.8 1.5.8 1.5s.3 1.3 1 1.4c.8.1 2 .2 2 .2s-.1-.6-.3-1c-.2-.4-.3-.8-.3-.8s.7.4 1.2 0 .7-.9.7-1.2 0-.7.4-.5c.4.1 2.5 1 4.6-.4 2.1-1.4 2.2-3.4 1.8-4.5-.4-1.1-.7-1.1-1.3-1-.7.2-1.4-.1-1.4.2 0 .4.4 1 .8.8.4-.2.6.2.4.6-.1.4-.6 1.3-1.2 1.3-.6.1-1.3-.1-1.3-.1s.8-.4.8-1c.1-.6.1-1.4-.4-1.6-.4-.2-.7-.7-.7-.7s.7-.8.4-1.4c-.3-.6-.9-1.2-1.6-1.3-.7-.1-1.5.2-1.5.2s.1.4.5.8.4.8-.3 1.2c-.7.4-1.4.2-1.8-.3-.4-.5-.6-1.6-.6-1.6l-1 .4-1.9 1.3z"/><path d="M96.8 83.8s.8 1.3.1 2c-.7.7-1.6 1.5-2.9 1-1.3-.5-2.1-1-2.7-2.2-.6-1.2-.7-2 .1-2.8.9-.8 2.7-1.1 3.2.4.3.9-.1 1.3-.8 1.2-.8-.1-1.5-.9-1.5-.2s-.4 1 .6 1.4c1 .4 1.3.8 2 .1.8-.6 1.3-1.3 1.9-.9zm-2.7-1.6s-.3-.5-.7-.7c-.4-.1-.7.2-.7.2l.1.7s.2 0 .7.1c.5 0 .6-.3.6-.3zM105.7 49.7s2 1 3.3 3c1.3 2 1.9 4.6 1.5 7-.4 2.4-1.3 3.8-2.2 5-.8 1.2-.6 1.9-.5 2.1.1.2.1.4.1.4s.6-.4 1.3 0c.7.4 1.2 2 0 2.4-1.2.4-1.4-.2-1.7-.7-.3-.4-.7-.7-.7-.7s-.4 1-1 1.2c-.7.1-2.1.4-2.5.8-.4.3-.7 1-.7 1s.2.8.7.4.5-.8.5-.8.3-.3 1 0 .4 1-.5 1.4c-1 .4-1.8.5-2.5.1-.8-.4-1-.9-1.8-.4-.8.4-1.3 1.2-1.5 2-.1.8-1.3 1-2.2 1.5-.9.5-1.1.8-1.6 1.4-.5.7-.7 1-.1 1.3.6.4.8.5.8.5s-.8.4-1.5 0-1.3-1-1.4-2.1c-.1-1.1.1-1.7.6-2.3.4-.6.5-1.3.2-2.2-.3-.8-.5-1.3-1-1.6l-1-.5s.7-.2 1.1-.3c.4-.1 1-.3.4-.5-.5-.2-2.5-.4-2.8-2.5-.3-2.1.4-4.9 1.9-4.3 1.7.7-.3 1.7.8 2.7.5.5 1.7.9 1.6 0-.1-.8-1.6-2.8-2.2-3.7-.3-.5.2-1.1.8-1.5.5-.4 1.4.1 1 .5-.4.4-.5.4-.4.8.1.4.3.4.8.1.4-.4.7-.9.4-1.3-.3-.4-.2-1.1.2-1.3.4-.1.6-.2.6-.7 0-.5-.2-1 .6-.7.8.3 1 .4 1.3.6.3.1.4.3.6-.2.1-.5.3-.5.6-.7.3-.1.6-.1.7.1.1.2 1.1.1.8.7-.3.6-.8.7-.4 1.3.4.6 1 1 2.5 1.2 1.6.1 4.1 1 5.4-2.4 1.3-3.4-.4-5.5-.9-6.4-.4-.9-1-1.7-1-1.7z"/><path class="st6" d="m109.1 55.3.6.6v.6l-.6.3-.4-.9.4-.1zM109.8 55.3l.2 1.5.3.3zM109.8 57.1l-.8.2-.4.6.5.5s.2 1-.1 1.6c-.4.6-.5 2.2-1.1 2.5-.6.4-1 .2-1 1s-.4 1.6-.4 2.8c0 1.2.4 1.8 1.3 2.3.9.5 1.6.5 1.7.1.1-.4-.1-.8-.1-.8s-.2.6-.8.5c-.6-.1-1.3-.3-1.5-1.1-.1-.8-.2-1.9.4-2.5.7-.7 1.3-1.8 2-3.7.7-1.9.6-2.9.5-3.3 0-.3-.2-.7-.2-.7z"/><path class="st6" d="m106.7 62.2-.1-.4-.4.4-.4.5.5.4-.6.9v.8s-.7.9-1 1c-.4.1-1 .6-1 .6l.1.7.8-.4.8-.4v.4s-.3.8-.9 1c-.6.2-1.2.5-1.2.5l-.9 2.1s.9-.4 1.7-.6c.8-.2 1.8-.3 2-.7l.4-.8s-.5-1-.6-1.6c-.1-.7.3-1.8.3-1.8l.4-.2-.1-.5.1-.6.4-.8-.3-.5zM103.3 72.1l-.7.2v-.4zM102.2 71.1l-.4.6-.5-.3.1-.6.3-.1zM102.4 68.5l-.6 1.3-.8-.4-.3 1 .1.6s-.5.1-1 .4c-.5.3-1.2.7-1.4 1.1-.2.4-.6.9-.6.9s-.1-.4-.4-.8c-.3-.4-.4-.9-.4-.9l.9-.6.2.5h.4l-.1-.5-.2-.3s.3-.6.5-1.2.8-1.1.8-1.1.6-.1 1.3-.1 1.6.1 1.6.1zM102.9 66.6l-.2 1-.4-.1.2-.8zM103.7 64.3l-.6.5-.3.6.3.1.6-.6zM101.9 64.6l.2.3-.6.3zM101.9 67v.8l-1.7-.3.3-.6.8-.4-.2.5.4.2zM100 66.7l-.3.4-.6-.2.5-.5zM98.7 67l.4-.9-.3-.4-.5.7zM101.9 64s-.1.4-.8.4c-.7.1-1-.4-1-.4l.4-.3s.1.4.4.3c.5-.1 1 0 1 0zM100.1 63.4l-.3.5-.2-.4zM100 62.5l-.9.8-.4-1zM99.4 62l-.6-.2v-.5zM99.5 61.2l-.5-.6s-.1-.2.1-.6c.3-.4.7-.3.8.1.2.5.2.9-.4 1.1zM108.6 58.6s-.4.7-.7 1.4c-.3.7-.7.9-.7.9h.6s.4-.5.5-1c.2-.4.3-1.3.3-1.3zM107.6 59.5s-1.1 1.6-2.2 2.3c-1.1.7-2.3 1.4-2.9 1.3-.6-.1-.8-.5-.5-.8.4-.2 1.9-.7 1.9-.7l-.5-.1-1.8-.2.3.5-.8.2s-.4-.2-.6-.6c-.1-.4 0-1 0-1l3.2.6.5-.4 1.6-.2-1.2.7.4.2.7-.4h.4l1.5-1.4zM99 57.8s-.3.6-.2 1.3c.1.7-.3.7-.6 1.2-.3.4-.8-.1-.8-.1l-1.2-.9v.5l1.9 1.6-1 .1.1.4.5.2.2.7-.3.3.4.3.1.7-.3.7.5.1v.5l-1 .4s-.4.1-.8-.4c-.5-.6-.3-1.7-.8-1.7s-.9.2-1 .5c-.1.4-.4.1-.4.1s.2-.3.1-.7c-.1-.4-.4-1.1-.4-1.1l-.8-.4-.1-.5s1 .5 1.5.2c.5-.4.4-.6 1-.6s1-.3.4-.7c-.5-.4-1.1-.4-1-1 .1-.5.7-.4.8-1 .1-.5.1-1.2.8-.7.6.4 1.1 1 1.3.6.2-.4.8-1 .8-1l.3.4z"/><path class="st6" d="m98.6 68.5-1.1 2.1.9.3-.1-1.3.5-.8zM98.2 68.3l-.1-.6-1.2-.8-1.9.4-.2-.3 1.2-.4s-.4-.5-.4-.9c-.1-.4-.1-1.1-.1-1.1s-.7 1-1.3 1.3c-.7.2-1.4 0-2-.6-.6-.6-.7-1.2-.3-1.5.4-.3.2-.7.2-.7s-.4-.5-.9.1c-.4.6-1 1.2-.5 2.1.4.9 1 1.4 1.6 1.7.6.3 1 .4 1 .4l-.1.2s-1-.1-1.5-.5c-.4-.4-.9-.7-.9-.7l.1 1.5s.5.7 1 .8c.5.1 1 .1 1 .1L94 68l.4.4-.7.4s.6.1.9.5c.3.3-.3 1-.3 1l-.2.7-.6-.7-.7.2.2.4.6.1-.2.7s-.1.4.2 1c.4.5.8.4.8.4s-.1-.2.3-1.1c.4-.9.7-1.4 1-1.3.4.1 0 .5-.1 1s.1 1.3.1 1.3.1 0 .5-1.1 1-1.7 1.2-2.3c.4-.7.8-1.3.8-1.3zM96.7 72.9s-.1.7-.9 1.3c-.8.5-1.1.5-1.1.5l-.8 1.8s.7-.2 1.2-.9 1.3-.7 1.3-.7l.9-1-.6-1zM95.3 73.8 93.4 75l-.1-.4s.5-.2 1-.7c.4-.4 1-.1 1-.1zM95.7 85.2c.2.3 0 .7-.4 1-.4.3-.8.7-1.3.5-.5-.2-.6-.4-1-.8s-.7-.5-1.1-1.1c-.4-.6-.4-.9-.4-1.5.1-.6.5-1.3.5-.7 0 .6-.4 1.5.4 2.2.7.7 1.2 1.1 1.9.7.7-.5 1.4-.3 1.4-.3z"/><path class="st4" d="M92.9 82.4c.3 1.2 1 2.9.7 4.3-.2 1.4-.5 2.8 0 4.3.5 1.6.9 1.8 1.3 2.2.4.4.4.4.1 1-.4.6-.4 1.9.4 2.2.8.4 1.2.2 1.7.5s.4-.6.9-.2c.5.4.8.5.9-.2.1-.7.3-1.3.7-.8.4.5.9.8 1.5.1.6-.7.9-1.6.1-1.9-.7-.3-.5-1.3-1.1-1-.6.4-1.2 1-1.2.1 0-1-.1-2.1-.1-2.9 0-.8-.7-1.4-1.4-1.1-.7.3-1.4-.4-1.9-.4-.5-.1-.8-.4-.5-.9.3-.5.3-1.4.1-2.3-.2-.9-.7-2.8-1-3-.3-.1-1.2 0-1.2 0z"/><path class="st5" d="M96.6 90.3c-.7-.2-1.2.5-.5.8.7.3.8.1 1.3.9.4.8.7.5.5 1.6-.2 1.1-.5 2-.5 2l.8-.6s.5-1 .1-2.4c-.3-1.3-1.1-2.2-1.7-2.3z"/><path class="st5" d="M95.6 91.4c.8.1 1.2.6 1.4 1.2.2.6.1 1 .1 1s-.6-.5-1-.8c-.4-.4-1.3-1.5-.5-1.4z"/><path class="st5" d="M94.7 91.6c.5.1 1.5 1.2 1.4 2.1-.1.9-.1 1.6.1 1.9.2.4-.2 1-.5.7-.3-.4-.2-.9-.1-1.8s-.1-1.5-.7-1.9-.8-1.1-.2-1zM97.1 94.4l-.3.4v.3l.4-.1zM98.9 94.5l-.6 1.2.6-.2zM99.9 94.4s1.3.2 1.1.7c-.2.4-.7.6-.7.6s.3-.6 0-.8c-.3-.1-.4-.5-.4-.5zM95.7 89.5l-.7-.3.3.4zM94.9 89.9l-.6.2v-.6zM101.4 77.2c-.9.3-1.7.2-2.2-.2-.5-.4-1-.9-1-.9s1.6.6 2.3.2c.7-.4 1.1-.6 1-1-.2-.4-.7-.8-.7-.8s.4-.5 1 0c.7.4.8 1 .8 1.6.2.6-.6.9-1.2 1.1z"/><path class="st5" d="M103.1 77.7c-1 0-1 .4-2 .3-1-.1-1.6 0-2.1-.5-.4-.5-1-1.1-1-1.1s-.4.1.2.7 1.2 1.2 1.6 1.4c.4.2.9.3.9.3s-.6.3-1.3-.1c-.7-.4-1.3-1-1.5-1.3-.2-.4-.4-.9-.4-.9s-.1.5.1 1.1c.3.6.7 1.6 1.6 2.2.9.6 1.3.9 2 1 .7.1 1.2-.1 1.2-.1l-1-.8.5-.3s.5.2 1-.4c.5-.6.2-1.5.2-1.5z"/><path class="st5" d="M97.7 78.2s.6 1.6 1.8 2.2c1.2.6 3 1.2 3.6.8.6-.4-.1-.7-.1-.7s.1-.1.8-.1c.7.1 1.4-.4 1.7-1 .3-.6.3-1.3.3-1.3s.7 1 .1 1.5c-.5.4-1.5.8-1.9 1.2-.4.4-.6.9-1.6.8-1-.1-2.2-.1-3.2-.9-.9-.9-1.5-2.5-1.5-2.5z"/><path class="st5" d="M106.2 80.5c.1-.4-.1-.7-.7-.4-.6.4-.7.6-1.2 1s-1.4.7-2.5.5c-1.1-.1-2.4-.1-2.8-.9-.4-.8-1.4-2.2-1.4-2.2s.3 1 .7 2c.4 1 1.4 2.2 3 2.2 1.6.1 3.2-.1 4-.7.6-.5.6-.7.9-1.5zM96.6 75.9c.3 1 .3 1.6.1 2.2-.1.6-.5.4-.9-.1-.4-.6-.7-1-.7-1.3.2-.4 1.5-.8 1.5-.8zM97.1 79.3c.2.8.2 1.2.4 2.1.1.9.4 1.3-.1 1.5-.4.1-.7 0-1.1.2-.4.2-1-.2-1-.2s-.4-.5 0-.7c.4-.2.9-.5 1.2-1.1.3-.7.2-1.2.2-1.5-.2-.3.3-.9.4-.3zM98.4 81.8s.4.6.6 1.2c.2.6.1 1.3-.2 1.3-.3 0-1 .1-1 .1s-.5-.7.1-.8c.5-.1.7-.4.5-.8-.2-.4 0-1 0-1z"/><path class="st6" d="m80.8 47.8-.6-.5-.2.3.6.5zM79.7 46.6l-.9-.5.6 1 .5.1zM77.3 45.2l-1-.8h1.5s.3.9.9 1c.6.1 1.3.4 1.3.4l.5.7s-.3-.1-1.1-.3c-.8-.2-1.1-.4-1.1-.4l-1-.6zM81 49.6l-.3-.6-.5.3z"/><path d="M75.6 45.9c.9.4 1.3.4 1.5 1.2.1.8.1 1.2.6 1.4.5.3.6.4.5 1.4 0 1 .2 1.9.3 2.1.2.3-.2.5-.6.2-.4-.3-.8-.2-.6.3.2.5-.1 1.5-.7 1-.6-.4-.5-.6-1.1-1-.6-.5-.8-.9-.9-1.5-.1-.6-.8-3.7-.8-3.7l.5-2.5 1.3 1.1z"/><path class="st6" d="m77.3 51.3-.2-.7-.3.1.2.7zM75.8 47.3l-.2-1.3 1.1 1.1s-.4.8-.1 1.4c.3.5.6 1.2.6 1.2l-.1.8s-.2-.3-.6-1c-.4-.7-.5-1.1-.5-1.1l-.2-1.1zM76.5 52.9l.1-.6-.6-.1z"/><path class="st5" d="M107.1 52.7s.6 2.6-.1 4.3c-.7 1.6-1.8 2.8-3.2 2.8-1.4 0-2.7-.5-3.1-.8s-.7-.2-.4.1c.3.4 1.6 1.4 3.7 1.3 2.2-.1 3.5-1.9 3.7-3.9.2-1.8-.6-3.8-.6-3.8z"/><path class="st5" d="M89.7 55.3c-.7.7-1.7.7-2.2.8-.5.1-1.3.7-1.8 1.2s-.7 1-.1 1.5c.6.4 1 .4 1.5-.1.4-.5.6-.6 1.3-.5.7.1 1.3.1 1.8-.6.4-.7.7-1.3 1-1.3.3 0 .5.2.2.7-.3.4-.4.7.1 1.2.4.4.9.6 1 .2.1-.4-.2-.4-.4-.4s-.2-.6.2-.7c.5-.1.7.4 1.2.1s.9-.5 1-1.3c.1-.8-.1-1.8.2-2 .4-.2 1 .1 1.2.6.2.5.4.5.7.5.4 0 .4-.1.2-.6-.1-.5.1-1.3.2-.7.1.5.4 1 .8 1.1.4.1.7.1.7.1s-.6-.3-.6-.7c0-.4.1-.7.4-1 .3-.3.5-.5.1-.8-.4-.3-.9-.7-.7-.9.2-.1.9 0 1.1.3.2.3.5.6 1 .4.4-.2 1-.3 1.5 0 .4.3.3.9 0 1.2-.3.3-.8.9-.4 1 .4.1.8-.2 1.1-.7.3-.4.6-.7.3-1.1-.3-.5-1.1-1.2-.8-1.3.3-.1.3-.1.7.5.4.6 1.3 1.4 1.3 1.4s.4.3.6 1.3c.2 1 .5 1.6.2 2.3-.2.7-.5 1.1-.5 1.1s.8-.8 1-1.9c.1-1 .7-2.3-.4-3.6-1.1-1.3-2.5-2.4-4.7-2.3-2.2.1-3.4.3-4.7.9-1.3.6-2.6 1-2.6 1l2.9.1 1 .5-6.4-.2s-1.3.1-1.9.2c-.6.1-.3.4.5.6s1.4.6 1.6 1c.1.4-.2.7-.4.9z"/><path class="st5" d="M89.2 54.7c.1-.4-.4-.6-1-.7-.6-.1-1.4-.5-1.4-.5s.4.3.2 1-1 1.2-1 1.2-.1-.1.2-.6c.4-.4.4-1.2.4-1.2l-1 .1s.1 1-.4 1.7c-.6.7-1.4 1.6-1.6 2.5-.1 1-.3 1.9 0 2.3.3.5.5.9.5.9s-1-.7-1.1-1.3c-.1-.6-.2-1.9-.2-1.9s-.4.5-.4 1c0 .4.2 1.6.9 2.2.7.6 1.4 1 2.4 1s2.5-.1 2.5-.1l-1.4-.6-.8-.1h-1s-.7-.4-.6-1.2c.1-.7.3-1.5.3-1.5l1.4 1.4.3-.6-1.7-1.3s-.1-.4.2-.9c.4-.4.1-1.1 1.3-1.4 1.3-.3 2.8-.1 3-1.4zM89.2 60.3s1 .1.6.4c-.4.4-.6.6-.8.2s-.1-.7.2-.6zM104.6 52.1c.7 1.2 1.1 2.8.4 4.5-.8 1.6-2.5 2.5-2.5 2.5s.7.6 2.1.2c1.3-.4 2.2-1.9 2.2-3.4.1-1.5.4-3.1-.7-4.4-1.1-1.3-1.8-1.9-3.4-2.2-1.6-.3-2.8-.4-3.8 0s-1.9.6-1.9.6 2.2-.1 3.6.1c1.4.1 3.2.8 4 2.1zM101.2 48.7s2-1.6 4-1.3c1.9.3 3.3.6 4.3 1 1 .5 2.6 1.8 2.6 1.8s.8.3.2.9c-.5.6-.8.3-1.1-.2-.4-.5-.8-.5-1.5-.5s-1.5-.1-1.7-.7c-.2-.6-1.1-1.6-1-1 .1.6-.8 1.3-1.5.8s-1.3-.9-1.8-1c-.6-.1-2.5.2-2.5.2z"/><path class="st5" d="M107.6 46.8c-.9.1-3.4-.1-4.9.5-1.5.6-5.3 2-7.3 2.8-2 .8-3.9 1.3-5.8 1.7-1.9.4-3 .5-3 .5l.8-.5s3.1-.7 4.5-1.6c1.3-.9 1.9-1.5 2.9-2.7 1-1.2 1.7-2.2 1.7-2.2s.6 1 1.9.9c1.3-.1 2.5-.7 3.1-1.3.6-.6.7-.6 1.7-.7 1-.1 1.7-.4 1.7-.4s-.1 1 .1 1.3c.2.3.8.3 1.3.4.6.1.4.6.4.6l.9.7z"/><path class="st5" d="M86.8 51.5V51s1-.5 1.6-1c.5-.5.8-1 .8-1s-.1.6.2.8c.4.2.9 0 1.2-.7.3-.8 1-1.4.9-2.5-.1-1-.2-1.4-.2-1.4s.6-1.1 1.1-1.6c.5-.5 1.3-1.4 1.3-1.4s.7-.1 1.2-.1.9-.4 1.2-.6.5.5 1 .4c.5-.1.9-1 .9-1s.2.9-.7 2.4c-.9 1.5-2.7 3.3-3.7 4.3s-2.2 2.2-3.6 2.8c-1.3.7-3.2 1.1-3.2 1.1z"/><path class="st5" d="M98.6 45.2c-.8.5-2.1-.1-1.3-1 .7-.9 1-1.5 1.1-2.2.1-.8-.1-1.3-.1-1.3s1 .9 1.4 1.8c.4.8.2 1.8-1.1 2.7zM100.2 42.6s-.3-.8-.8-1.3-1-.9-1-.9 0-.2.6-.1 1.1.7 1.1.7l.5 1.3-.4.3zM92 43.6s-.6.4-.8.7c-.2.2-.4.7-.4.7s-.2-.4-.4-.6c-.1-.2-.2-.5-.2-.5s.3.2.8 0 1-.8 1-.8v.5zM89.3 43.6c-.4.3-1 .4-.9 1.3.1.9.1 2.4.1 2.4l-.4.6s-.1-.8-.1-1.5c-.1-.7-.6-1-.6-1s-.5.3-.8.9c-.3.6-.5.6-.5 1.3s-.2 1.1-.2 1.1-.3-.1-.3-.7-.1-1-.6-1.3c-.5-.3-1.2-.3-1.2-.3s.6.7.2 1.4c-.4.7-.4 1.1-.4 1.1H83l-.7-.3v.3s.4.1 1 .4c.6.4.9-.1.9-.1l.5-.8.5.4-.1.5-1 .6-.7.4s1 0 1.9.2c.9.1.7-.6 1.3-1 .5-.4.9-1 .9-1l.4.1-1.3 1.6s.9.4 1.6-.6c.8-1 .9-1.4 1-2 .1-.6.2-1.1.2-1.1s.4.7.3 1.6c-.1.9.1 1.3.1 1.3s.7-1.3 1-2.1c.3-.8.1-1.5-.2-2.2-.4-.6-1.3-1.5-1.3-1.5zM78.9 49.9c1 1 1.9 1.6 2.6 1.8.7.2 1.1.2 1 .7-.1.5-.4.5-1.3.3-1-.2-2.1-1.1-2.4-1.5-.3-.4.1-1.3.1-1.3zM83.2 53.5c-1.4-.1-2.3-.7-2.7-.5-.4.1-.8.1-.8.7s.1 1.4-.3 1.2c-.4-.2-1.2-.6-1.5 0-.3.6-.9.7-.3 1.3.6.6.3 1 .5 1.2.1.2.3-.2.7-.8.4-.5.7-1.3.7-1.3s0 .9-.2 1.6c-.2.7-.6.6-.4 1.3s.7 1.2 1.2 1c.5-.1.1-.5-.1-.8-.2-.3-.8-.3-.5-.9.3-.6.5-.6.9-.9.4-.3.4 0 .1-.7-.2-.8-.4-2.5-.1-1.9.3.5.1 1.3.7 1.6.5.3 1 1.1 1 1.1s-.1-.6.2-.8c.3-.2 1.3-.4 1.6-.4.4-.1.4-.8.4-.8s-.6 0-.8-.3c.1-.5-.3-.9-.3-.9z"/><path class="st4" d="M93.1 54.1s-1-.7-1.3-1.2c-.4-.5.3-1.1.7-1.6.4-.4.9-1 .2-1.3-.7-.4-1.3-.7-1-1.2.4-.5.7-1.1 1.6-1 .9.1 2.5 1.3 1.4 1.6-1.1.3-1.8.8-1 1.1.8.3 1 .6.7.9-.3.3-1 .4-.7.9.2.5 0 1.8-.6 1.8z"/><path d="M101.1 42c-.4-1.4-.3-1.7-.3-2.5s-.5-1.6-.6-1.1c-.1.5-.6.4-1 0s-.6-.8-.4-1.3c.2-.5 1.1-1.4.4-1.5-.7-.1-1.8-.1-1.3-.5s1.2-.9.1-1.1c-1-.2-1.5-.1-1.8-.4-.3-.4-.8-.7-.4-1.1.4-.4-.6-1.3-1-.7-.5.7-.2 1.3-1.3 1.1-1.2-.2-2.4-.7-1.4-1.1 1-.4 1.3-.7.2-.8-1-.1-2.1.2-2 .7.1.4-1.3.2-.8.7.4.4.5 1 .5 1.9 0 .8.7 1.1.3 1.5-.4.4-.7.8-.9 1.3-.2.4-1.2-.6-1.3 0-.1.6.1 1.4.4 1.6.3.2.6.3.6 1.1s-.1 2 .6 2.4c.7.4 1.4-.1 1.7-.1.3.1.5-.8 0-.7-.5.1-1.1-.9-.4-1 .7-.1 1.5-.4 1.8.2.3.7.7 1.3 1.1 1.1.4-.2.4-.5.4-1 .1-.4.4-.5.7-.1.4.4 1.4.7 1.4.1 0-.7.2-1.6 1.4-.9 1.3.8 1.4.5 1.9 1.3.5.5 1.4.9 1.4.9z"/><path class="st6" d="m96.4 34 .1 1.3h.7s-.2.8.1 1.4c.3.6 1.1.9 1.1.9s-.2-.4 0-.8.5-.9.5-.9-.6-.1-.8-.2c-.2-.1-.9-.5-.5-.8.4-.3.4-.7.4-.7l-1.6-.2zM95.4 32.2c-.2.9.1 1.4.4 2 .3.6.3 1.9.3 1.9l-.6-.4v-1l-1.5.1.6-.7-.4-.2-1.4.3-1.5-1.6-.3.2 1.1 1.9s-.2.8-.7.5c-.5-.4-.7-1-.7-1.8-.1-.8.1-2.3.8-1.5.7.8 1.6 1.9 2.3 1.7.7-.2 1.2.4 1.2.4s-.2-.6-.2-1.1c0-.5.2-1 .2-1s.5 0 .4.3z"/><path class="st6" d="M95.5 36.5c-.3.3-.6.4-.9 0-.3-.4 0-.9.4-.7.3.3.8.3.5.7zM93.8 35.5c.1-.2-.2-.9-.8-.4-.5.5-1 1.2-.9 2.1.1.9.1 1.3.4 1.6.3.2-.1.7-.1.7l.7.9.4-.7.6-.3-.1-.7s-.7-.6-.7-1.6c.2-1.1.5-1.6.5-1.6zM91.4 36s-.9-.7-1 .1c-.1.7-.3 1.5-.9 1.5-.6 0-.8.2-.5.7.3.5 1 .7 1.5.1s1-1 1-1.5c-.2-.5-.1-.9-.1-.9zM91.9 38.8c-.2-.6-.9-.9-1.2-.4-.3.5-.5 1.1-.9 1.1s-.7.8-.3 1.3c.4.5 1 .5 1 .5s-.1-.2-.1-.8c-.1-.5.3-1.3.9-1.1.6.2 1 .3 1-.1 0-.2-.3-.1-.4-.5zM99.5 39.8c-.5-.8-.7-1.3-1.7-1.3-1 .1-1.5.3-1.5.3l.7.7s.4-.3 1-.4c.6-.1.8.3 1 .6.3.3.5.1.5.1zM95.9 37.5c-.4-.2-.8-.4-1.2 0-.4.4-.5 1-.1 1s.6-.1.7-.5c0-.4.6-.5.6-.5z"/><path d="M71.8 63.5c1.7-.4 2.3-.8 2.8-1.3s.8-.8 1.5-.7c.7.1.9 1.1.9 1.1h2.2s.6-.4.7-1.2c.1-.7-.2-.9-.8-1.8-.5-.9-.7-2-2.2-3-1.5-1-2.2-1.5-2.5-2.7-.3-1.2-.1-2.5.1-4.2.2-1.7.2-3.7-1-4.8-1.3-1-7.9-2.1-9-.7-1 1.4-3.2 3.1-3.6 5.3-.4 2.2-.1 4.2 1.7 5.5 1.8 1.3 2.6 1.5 3.1 1.6s1.1.7.4 1c-.7.4-2.2.8-2.8 2.2-.5 1.3-1.2 2.7-.6 2.8.6.1.8.2 1.3 1 .4.7 1 1.2 1.7.8.7-.4 1.5-.8 2.2-.7 1 .1 2.2.2 3.9-.2z"/><path class="st6" d="m61.5 51.6 4-.3.4.4.4-.1s0-.7-.3-1c-.3-.3-.9-.3-1.4-.4-.5-.1-.8-.2-1.6-.4-.8-.1-1-.4-1-.4s.4-.9.9-1.1c.5-.2.5-.7.8-1 .2-.4.4-.7.4-.7s.6-.2 1.3.1c.7.4 1 .7 1 .7l-.4.5.4.3.7-.1s.2.2.4 1 .5 1.1.5 1.1l.7.2.4.7s.9.3 1.3 0 .7-.5.3-.9c-.4-.4-.7-.7-.9-.6-.2.1-.6.2-.6.2s.3-.9.8-.8c.5.1 1.4.5 1.4 1.3s-.7 1.1-1.5 1.1-1.2-.4-1.2-.4l-3.2 4.6-1.7-.7.2-.4-.9.1s-.8-.2-1.3-1.3c-.3-1-.3-1.7-.3-1.7zM61.6 48.8l.4.1.2-.7zM62.3 47.6l.3.3 1.2-1.5h-.5z"/><path class="st6" d="M66 45.8s1.1-1.6 1.6-1.7c.4-.1 3.6 0 4.6.5 1 .4 2.4 2.5 2 4.6-.4 2.2-.5 3.9-.1 5.3s1.2 2.2 1.6 3.2c.4 1 .7 1.6.7 1.6h-.7s-.2-.7-.7-1.6c-.5-.9-1.1-2-1.6-2.9-.4-.9-.4-2.6-.1-3.9.3-1.3.1-2.6-.2-3.4-.4-.7-.7-1.3-.9-1-.2.3 0 .7.2 1.1.2.4.5 2.9.1 4.3-.4 1.3 0 2.4.2 3 .2.6.3 1.3.3 1.3s-.4-.8-1.1-1.6c-.7-.9-1.2-2.1-1.2-2.1s.6-.1 1-.7.7-1.4.4-2.1c-.3-.7-.8-1.5-1.9-1.6-1-.1-1.8.3-1.8.3s-.4-.7-1.1-1.3c-.5-.7-1.3-1.3-1.3-1.3zM68.9 52.8c.3-.5.8-.6 1-.1.1.5.7 1.5 1.1 2.2.4.7.8 1.1 1.3 2 .5.9 1 1.2.8 1.9-.2.7.1 1 .1 1l.6-.5-.2.8s-.7.5-.9.8c-.1.3-.3.4-.3.4l-.6.7s-.2-.6-.6-.5c-.4.2-.4.6-.4.6s-.4.4-1 .5c-.7.1-1 .1-1 .1s.2-.7-.2-.7-.7.6-.7.6-.6-.1-1 0c-.5.1-.6.8-1.2.3s-.8-1.1-.8-1.1l-.2-.8-.4.1-.3.8-.5-.7s.2-1.1 1-1.9c.7-.8.8-1 1.6-1.2.8-.2.9-.4.8-.9-.1-.4-.1-.8-.1-.8s.1-.8.8-1.6c.7-.8 1-1.6 1.3-2z"/><defs><path id="SVGID_3_" d="M68.9 52.8c.3-.5.8-.6 1-.1.1.5.7 1.5 1.1 2.2.4.7.8 1.1 1.3 2 .5.9 1 1.2.8 1.9-.2.7.1 1 .1 1l.6-.5-.2.8s-.7.5-.9.8c-.1.3-.3.4-.3.4l-.6.7s-.2-.6-.6-.5c-.4.2-.4.6-.4.6s-.4.4-1 .5c-.7.1-1 .1-1 .1s.2-.7-.2-.7-.7.6-.7.6-.6-.1-1 0c-.5.1-.6.8-1.2.3s-.8-1.1-.8-1.1l-.2-.8-.4.1-.3.8-.5-.7s.2-1.1 1-1.9c.7-.8.8-1 1.6-1.2.8-.2.9-.4.8-.9-.1-.4-.1-.8-.1-.8s.1-.8.8-1.6c.7-.8 1-1.6 1.3-2z"/></defs><clipPath id="SVGID_4_"><use xlink:href="#SVGID_3_" style="overflow:visible"/></clipPath><g style="clip-path:url(#SVGID_4_)"><path class="st1" d="m63.3 58.5 4.3-1.6s-.4 2.3-.9 3.7c-.5 1.3-1.2 2.8-1.2 2.8L62 62.1l1.3-3.6zM68.4 57.1l1.1-.4.5 6.3-3.4.5zM70 56.8l.6 6.1 1-.3-1.2-6.3zM70.8 56.3l1.8 5.7 1.6-1.5-.3-2.3-1.9-2.6z"/></g><path d="M66.5 56.5s1.1.5 2.2.3 1.3-.4 1.7-.8c.4-.4 1-.9 1-.9l.2.4s-1.7 1.3-2.9 1.6c-1.2.3-2.2.1-2.2.1v-.7z"/><path d="M66.2 57.6s1.6.7 3.3.2c1.7-.5 2.5-1 2.8-1.3.3-.3.7.4.7.4s-2 1-3.7 1.3c-1.7.3-1.7.3-2.5.1-.7-.2-.6-.7-.6-.7z"/><path d="M64.7 58.7s1.6 1.4 4 1c2.4-.4 3-.7 3.5-1 .5-.4 1-.9 1-.9l.1.6s-.7 1.3-3.7 1.6c-3.1.3-4.5 0-4.8-.3-.3-.3-.6-.5-.6-.5l.5-.5z"/><path d="m63.8 59.8.6.9s.2-.5.8-.3c.6.2.2 1 .7 1.1.5.2.9.2 1.4-.1.5-.4 1-.1 1.5-.1s.9-.1 1.8-.6 1.3-.7 1.9-1c.5-.3 1-.7 1-.7l.2.4s-1.1.8-2.2 1.4c-1 .6-1.3.7-2.4.7-1 0-1.1-.1-1.7.2-.6.4-1.5.8-1.9.2-.4-.6-.5-1-1-1-.4.1-.4.1-.7-.1-.3-.3-.5-.7-.5-.7l.5-.3z"/><path class="st6" d="m63.7 61.7-.5.3s.4.6.9.9c.5.3.6.4.9.8.3.4.4.8 1 .2.6-.5 1.3-.8 2.2-.7s2 .3 3.9-.4 2.6-1.6 3.4-1.9c.8-.4 1.7-1 2.5-.4.7.6.8.8.7 1.1-.1.3.7.6.8 0 .1-.6-.1-1.4-1.5-1.6-1.3-.1-2.5-.3-3.7.7-1.2 1-2.9 1.6-4.3 1.9-1.3.3-3.1 0-3.6.4-.5.5-.9.6-1.2 0-.3-.6-.4-.7-.9-.8-.5.1-.6-.5-.6-.5z"/><defs><path id="SVGID_5_" d="m61.5 51.6 4-.3.4.4.4-.1s0-.7-.3-1c-.3-.3-.9-.3-1.4-.4-.5-.1-.8-.2-1.6-.4-.8-.1-1-.4-1-.4s.4-.9.9-1.1c.5-.2.5-.7.8-1 .2-.4.4-.7.4-.7s.6-.2 1.3.1c.7.4 1 .7 1 .7l-.4.5.4.3.7-.1s.2.2.4 1 .5 1.1.5 1.1l.7.2.4.7s.9.3 1.3 0 .7-.5.3-.9c-.4-.4-.7-.7-.9-.6-.2.1-.6.2-.6.2s.3-.9.8-.8c.5.1 1.4.5 1.4 1.3s-.7 1.1-1.5 1.1-1.2-.4-1.2-.4l-3.2 4.6-1.7-.7.2-.4-.9.1s-.8-.2-1.3-1.3c-.3-1-.3-1.7-.3-1.7z"/></defs><clipPath id="SVGID_6_"><use xlink:href="#SVGID_5_" style="overflow:visible"/></clipPath><g style="clip-path:url(#SVGID_6_)"><path class="st1" d="M62.2 51.2s0 1.3.8 2c.7.7 1.6 1.2 1.6 1.2l-1.3.6s-1.2 0-1.8-1.3c-.6-1.3-.7-2.5-.7-2.5h1.4z"/><path class="st1" d="M62.7 51s-.1 1.2.4 1.8c.6.6 1.9 1.3 1.9 1.3l.6-.4s-1-.6-1.5-1.5-.4-1.5-.4-1.5l-1 .3zM64.4 50.8s.2 1.2.7 1.6c.4.5.8.7.8.7l.2-1s-.4-.2-.5-.7c-.2-.6-1.2-.6-1.2-.6zM62.5 50s.9-1.3 1.3-2.1 1.3-1.9 1.3-1.9l.3.1s-.7 1.2-1.2 2.2c-.4 1-.9 1.7-.9 1.7h-.8zM64.1 50.3l2-3.8.5.3-1.7 3.5z"/></g><circle cx="64.6" cy="54.7" r=".5"/><circle cx="65.5" cy="53.7" r=".5"/><circle cx="65.9" cy="52.6" r=".5"/><circle cx="66.6" cy="49.3" r=".5"/><defs><path id="SVGID_7_" d="M66 45.8s1.1-1.6 1.6-1.7c.4-.1 3.6 0 4.6.5 1 .4 2.4 2.5 2 4.6-.4 2.2-.5 3.9-.1 5.3s1.2 2.2 1.6 3.2c.4 1 .7 1.6.7 1.6h-.7s-.2-.7-.7-1.6c-.5-.9-1.1-2-1.6-2.9-.4-.9-.4-2.6-.1-3.9.3-1.3.1-2.6-.2-3.4-.4-.7-.7-1.3-.9-1-.2.3 0 .7.2 1.1.2.4.5 2.9.1 4.3-.4 1.3 0 2.4.2 3 .2.6.3 1.3.3 1.3s-.4-.8-1.1-1.6c-.7-.9-1.2-2.1-1.2-2.1s.6-.1 1-.7.7-1.4.4-2.1c-.3-.7-.8-1.5-1.9-1.6-1-.1-1.8.3-1.8.3s-.4-.7-1.1-1.3c-.5-.7-1.3-1.3-1.3-1.3z"/></defs><clipPath id="SVGID_8_"><use xlink:href="#SVGID_7_" style="overflow:visible"/></clipPath><path d="m66.3 46.4 1.5-2.6.7-.1-1.6 3.3.4.2 1.3-2.4s.6-.5.8.1c.1.6.5 1.1-.1 1.6-.7.5-.5.4-.1.7.4.2.4.8.1 1.1-.3.3-1.3.1-1.3.1l-1.4-1-1-1.3.7.3z" style="clip-path:url(#SVGID_8_);fill:#fff"/><path transform="rotate(-45.001 72.694 35.015)" class="st10" d="M71.7 32.2h1.9v5.6h-1.9z"/><path transform="rotate(-45.001 72.62 28.446)" class="st10" d="M69.8 27.5h5.6v1.9h-5.6z"/><path transform="rotate(-44.996 65.72 29.043)" class="st10" d="M64.7 26.2h1.9v5.6h-1.9z"/><path transform="rotate(-45.004 65.25 34.737)" class="st10" d="M62.4 33.8H68v1.9h-5.6z"/><path class="st4" d="M63.5 42c.3-.7 0-1.9-.4-2.2-.4-.2-.9-.5-.8-1 .2-.5.1-1.3.8-1 .7.2 1 .1 1.6.4.5.3.8 1 1.3.5.6-.4 1.2-1 2.1-.8.9.3 1.6 1 2.1.5.4-.5 1-.6 1.7-.5.7.1 1 .1 1.4.4.4.2.8.4 1 .1.2-.4.1-.8.6-.7.5.1 1.9-.1 1.7.7-.1.7-.1 1.3-.9 1.6-.7.3-.4.5-.2 1.4.2.9.3 1.5.6 1.9.3.4.3.7-.3 1-.6.3-2.5.3-6 .3s-4.6-.1-5.8-.5c-1.2-.5-1.4-.8-1.4-.8s.6-.6.9-1.3z"/><path class="st5" d="M63 38.5h.6l.2.7-.9.2zM64.2 39.3h.9l-.2-.4-.8-.5zM66.3 39.3h1.2v-.7s-.4-.2-.8.1c-.4.2-.4.6-.4.6zM63.4 42.7h1.2V42s-.4-.2-.8.1c-.4.2-.4.6-.4.6zM75.8 42.9h-1.2v-.7s.4-.2.8.1c.4.2.4.6.4.6zM67.8 39.1l.1-.6H69l.4.6zM70.1 39.3h1.5l-.1-.8-.9.2zM71.9 39.3v-.8l1.5.3v.7zM73.8 39.3v-.4l1.3-.2.1.8zM75.6 38.4l.1.9.6-.6-.1-.5zM63.9 39.8l1.4-.2v.7l-1-.1zM65.5 39.6l.2.6 1.7.1-.1-.7zM67.9 40.2l-.1-.7h1.8l.1.8zM70.1 40.2l-.1-.5h1.7l-.1.5zM71.9 40.1l.2-.5 1.5.2-.2.5zM74 40.2v-.5h1.7l-.8.7zM64.3 40.8l1.7-.1.2.6-1.7.2zM66.4 40.7l.1.8 1.6-.1.1-.8zM68.7 41.3v-.7h1.5l.2.8zM70.6 41.3v-.6h1.9l.3.8zM73.1 41.5l-.2-.6h1.6l.4.9zM74 42.1l.2.8h-.8v-.7zM73 42.2v.6l-1.4-.2-.1-.6zM71.2 41.9v.6l-1.7.1V42zM68.9 42.5l.2-.6-1.6.1-.2.7zM66.7 42.7l.1-.8-1.6.1-.2.7zM64.2 43.1l2 .2v.6h-1.8zM66.8 43.2v.6l1.7.1v-.7zM68.9 43.1l.1.9 1.2-.1.4-.9zM71 43v1.1l1.9-.3-.1-.8zM73.3 43.2l.2.8 1.5-.2-.3-.6z"/><path d="M66.2 33.5c.6.5.4 1.1 1.3 1.2 1 .1 2 .2 2.7.1.7-.1.7-.1 1.3-.5.6-.4.9-.7.8-1.3-.1-.5-.4-.9-.1-1.4.2-.5.4-.5.1-1-.2-.5-.3-.9-1-.7-.7.1-.5.2-1-.2-.4-.4-.9-.2-.9-.2s-.4-.5-1.5-.2c-.7.2-1.6.8-1.6 1.1 0 .4-1 .4-.9.6.1.2.8.4.9 1 .2.4-.7 1.1-.1 1.5z"/><path class="st3" d="M67 31.1c.6-.2.6-.2.8-.6l.5-1 .4.7.8-.8s-.2.2.1.7c.3.4.2 1 .2 1l.7-.1.6-.7.5.7-.5.5.2.7s.5.6-.2.6c-.8 0-.7.4-.5.6.2.1-.3.4-.4.6-.1.2-.9.2-.9.2s-.7-.1-1 0c-.4.1-.2-.5-.2-.5s-.1.2-.7.3c-.5.1-.8-.4-.8-.4l.5-.4s.3-.3 0-.7c-.3-.4.1-1 .1-1l-.2-.4z"/><path class="st11" d="m69.1 27 .3.5.5.1-.4.4.1.5-.5-.2-.5.2.1-.5-.4-.4.5-.1zM73.6 31.1l.3.4.5.2-.4.4.1.5-.5-.2-.5.2.1-.5-.4-.4.5-.2zM64.6 31.4l.3.4.5.2-.4.4.1.5-.5-.2-.5.2.1-.5-.4-.4.5-.2zM67.6 35.4l.3.4.5.1-.4.4.1.6-.5-.3-.5.3.1-.6-.4-.4.5-.1zM70.5 35.4l.3.4.5.1-.3.4v.6l-.5-.3-.5.3.1-.6-.4-.4.6-.1z"/><path class="st1" d="M8.1 52.4c-2.5-1.1-4.3-1.8-6.3-2.5.3-.5.6-1.1.9-1.8.5-1.3 1.1-2.8 1.6-4.1 1.1-2.7 3-4.1 5.4-3.1 2.5 1 2.5 3.7 2.2 5.2.6-1.3 2.8-3.6 5.5-2.5 3.2 1.4 3.4 4.5 2.3 7.1-.5 1.2-1 2.1-1.5 3.3-.3.8-.7 1.8-.8 2.3-1.9-1-3.6-1.8-6.2-2.8l-3.1-1.1zm-3-6.6c-.3.7-.3.8-.4 1.1 1.1.6 2.3 1.1 3.1 1.5.8.3 1.5.6 2.3.9l.4-1c.5-1.3.1-3-1.8-3.8-1.4-.6-2.8-.5-3.6 1.3zm6.7 3.1c-.2.4-.3.7-.4 1 .6.3 1.3.6 2.2.9 1.4.6 3.2 1.3 4 1.6.2-.4.4-.7.6-1.2.6-1.3-.1-2.9-2-3.8-2.2-.8-3.6-.3-4.4 1.5zM15.4 37.4c-2.2-1.6-3.8-2.6-5.6-3.8.4-.4.8-.9 1.3-1.6.5-.7.8-1.2 1.1-1.7 1.7 1.4 3.2 2.5 5.4 4.1l2.7 1.9c1.5 1.1 3 2.1 4 2.8 1.1-1.5 2.1-3.1 3-4.7.2.2.4.4.8.7.4.3.6.4.9.5-.5.7-1.3 1.6-2.6 3.4-2.3 3.2-2.6 3.8-2.9 4.3-1.7-1.4-3.2-2.5-5.4-4.1l-2.7-1.8zM41.4 24.7c-.6.5-1.2.9-1.7 1.3s-1 1-1.5 1.4c-1.5-.9-3-1.9-4.5-2.7-.8.7-1.6 1.3-2.4 2-.7.6-1.3 1.1-1.9 1.7.6 1.7 1.2 3.3 2 4.9-.3.2-.7.4-1 .6l-.9.9c-.8-2.8-3.6-11.9-5.6-17.5.3-.2.5-.3.8-.5.2-.2.4-.5.6-.7 5.1 2.9 12.1 6.8 16.1 8.6zm-9.1-.7c-1.8-1.1-3.6-2.1-5.4-3 .6 2 1.3 4 2 5.9l3.4-2.9zM52.7 16.5c0 .7.2 1.5.4 2.1-.9 1.2-2.2 2.2-4.1 3.1-5.1 2.4-9.7.6-11.6-3.6-2.8-6.1.2-10.4 4.9-12.6 1.5-.7 3.7-1.2 5-1 .1.9.3 1.7.5 2.5l-.3.1c-1.7-.9-3.2-.9-4.7-.2-2.4 1.1-4.1 4.4-1.9 9.1 2.1 4.6 5.7 5.1 8.2 3.9 1.4-.7 2.7-2.1 3.2-3.5l.4.1zM59.9 10.3c.4 3.5.8 6.1 1.2 7.6-.5 0-1.2 0-2 .1s-1.4.3-2 .4c-.1-2.2-.3-4-.7-6.7L56 8.3c-.3-2.7-.6-4.6-1-6.7.5 0 1.2 0 2-.1s1.4-.3 2-.4c0 1.3.4 4.6.8 7.8 1.9-2.8 4.5-7.2 5.2-8.5.5 0 .9 0 1.4-.1.4-.1.9-.2 1.4-.3-1 1.2-4.3 6-5.4 7.8 2.5 2.9 6.3 7.4 7.9 8.9-1 .1-1.7.1-2.4.2s-1.4.3-2.1.4c-2-2.4-3.9-4.7-5.9-7zM74.9 7.2c.5-2.7.7-4.6.9-6.7.5.1 1.2.3 2 .5 1.1.2 2.4.3 3.5.5 2.3.4 3.4 1 4 1.7.9 1 1.2 2.1.9 3.5-.6 3.7-3.5 4.7-7.1 4.1l-1.1-.3c-.4 2.4-.8 4.8-1 7.3-.5-.1-1.2-.3-2-.5-.8-.1-1.5-.2-2-.2.5-2.1.9-3.9 1.3-6.6l.6-3.3zm5.5-4.5c-.4-.1-.7-.1-1-.1-.4 2.3-.8 4.5-1.2 6.8 1.6.3 3.7.2 4.2-2.9.4-2.6-.6-3.6-2-3.8zM103.6 9.2c4.5 2.6 6.6 7.1 3.7 12.2-2.4 4.2-7.7 5.7-12.5 3-4.5-2.6-6.8-6.9-3.7-12.2 2.4-4.2 7.6-5.8 12.5-3zm-.7 1.2c-2.9-1.7-6.3.3-8.4 3.9-2.6 4.5-1.4 7.3 1 8.6 2.5 1.5 6 .6 8.6-4 2.1-3.6 1.5-6.9-1.2-8.5zM123.9 26.5c3.3 4 3.6 9-.9 12.7-3.8 3.1-9.3 2.5-12.7-1.7-3.3-4-3.8-8.9.9-12.7 3.7-3.1 9.1-2.7 12.7 1.7zm-1.2.9c-2.1-2.6-6-2-9.2.7-4 3.3-3.9 6.3-2.2 8.4 1.8 2.3 5.4 2.7 9.5-.6 3.3-2.8 3.9-6.1 1.9-8.5zM126.9 44.2c2.5-1.1 4.2-1.8 6.2-2.8.2.5.3 1.2.7 1.9.3.7.6 1.3.9 1.8-2 .7-3.8 1.4-6.3 2.4l-3.1 1.3c-1.7.7-3.4 1.4-4.5 2 .7 1.7 1.5 3.4 2.5 5-.3.1-.6.1-1.1.3-.5.2-.7.3-.9.5-.3-.8-.7-1.9-1.5-4-1.5-3.7-1.9-4.3-2.1-4.7 2-.7 3.8-1.4 6.3-2.4l2.9-1.3zM12.2 98.3c1.7-.8 2.8-1.4 4-2.2l1.2 2.7c.7 1.4 1.4 2.7 1.6 3-.2.1-.4.1-.6.3-.3.2-.4.3-.6.4-.5-1.2-1.3-3-1.5-3.4l-3.3 1.5c.7 1.3 1.2 2.2 1.8 3.3-.4.1-.5.2-.7.3-.2.1-.3.2-.6.4-.5-1.2-1-2.3-1.5-3.4l-.8.4c-1.7.8-2.8 1.4-4 2.2-.1-.3-.3-.8-.5-1.2-.2-.5-.5-.9-.7-1.2 1.3-.6 2.5-1.1 4.1-1.9l2.1-1.2zM23.7 107.8c2.2 2.7 2.5 6.1-.6 8.6-2.5 2.1-6.2 1.7-8.6-1.2-2.2-2.7-2.6-6 .6-8.6 2.5-2 6.2-1.7 8.6 1.2zm-.8.6c-1.4-1.8-4-1.3-6.2.4-2.7 2.2-2.7 4.2-1.5 5.7 1.2 1.5 3.6 1.8 6.4-.4 2.2-1.8 2.6-4.1 1.3-5.7zM33.6 117.3c2.8 2.1 3.9 5.2 1.6 8.4-1.9 2.6-5.6 3.2-8.6 1-2.8-2.1-4-5.2-1.6-8.5 2-2.5 5.6-3.2 8.6-.9zm-.6.7c-1.8-1.3-4.2-.3-5.9 2-2.1 2.8-1.5 4.8 0 5.9 1.6 1.2 4 .9 6.1-2 1.7-2.3 1.6-4.6-.2-5.9zM41.6 125.4c.3-.6.5-1.1.6-1.3-.6-.3-1.9-.7-2.8-1.1.1-.2.3-.4.4-.6.1-.2.2-.4.2-.7 1.3.7 2 1 3.9 1.9 1.9.8 2.6 1.1 3.8 1.7-.1.2-.3.4-.4.6-.1.2-.2.4-.2.7-.8-.5-2-1.1-2.6-1.4-.1.2-.4.7-.6 1.3l-1.7 3.8c-.8 1.7-1.3 2.9-1.8 4.2-.3-.2-.7-.4-1.2-.6-.5-.2-.9-.4-1.3-.5.7-1.3 1.2-2.4 2-4.1l1.7-3.9zM48.3 130.2c.5-1.8.8-3 1.1-4.4.3.1.8.3 1.3.4.9.2 2 .4 2.9.7 1.9.5 3 1.6 2.6 3.3-.5 1.7-2.3 2-3.3 1.9 1 .3 2.7 1.5 2.1 3.4-.6 2.3-2.7 2.7-4.6 2.2-.8-.2-1.5-.5-2.3-.7-.6-.2-1.3-.3-1.6-.4.5-1.4.8-2.6 1.3-4.4l.5-2zm4.1-2.6c-.5-.1-.6-.1-.8-.2-.2.8-.5 1.7-.7 2.2-.2.6-.3 1.1-.4 1.6l.7.2c.9.2 2-.2 2.4-1.5.3-1 .1-2-1.2-2.3zm-1.4 4.7c-.3-.1-.5-.1-.7-.2-.1.4-.3.9-.4 1.5-.3 1-.6 2.2-.7 2.8.3.1.5.2.9.3.9.3 2-.3 2.3-1.7.3-1.4-.2-2.3-1.4-2.7zM68 140.4c-.5-.1-1-.2-1.4-.2h-1.4c-.2-1.1-.5-2.3-.8-3.5-.7-.1-1.4-.2-2.1-.2-.6 0-1.1-.1-1.7-.1-.5 1.1-1 2.2-1.4 3.3-.3-.1-.5-.1-.8-.1h-.8c1-1.8 3.9-7.4 5.7-11 .2.1.4.1.6.1h.6c.9 3.8 2.4 8.9 3.5 11.7zm-4-4.7c-.4-1.4-.7-2.7-1.1-4-.7 1.2-1.3 2.5-1.9 3.8l3 .2zM71.8 133.4c-.1-1.8-.3-3.1-.5-4.5h1.4c.5 0 1-.1 1.3-.2 0 1.5.1 2.7.2 4.6l.2 2.2c.1 1.2.2 2.5.3 3.3 1.2-.1 2.5-.3 3.7-.5v.7c0 .3.1.5.1.7-.6 0-1.4 0-2.9.1-2.7.2-3.1.3-3.5.4 0-1.5-.1-2.7-.2-4.6l-.1-2.2zM81.8 132.3c-.4-1.8-.7-3-1.2-4.4.4 0 .8-.1 1.3-.2s1-.3 1.3-.4c.2 1.4.5 2.7.9 4.5l.5 2.2.8 3.2c1.2-.3 2.4-.6 3.6-1.1 0 .2 0 .4.1.7.1.3.1.5.2.7-.6.1-1.4.2-2.8.6-2.6.6-3 .8-3.4.9-.2-1.4-.5-2.7-.9-4.5l-.4-2.2zM107.7 127.2c.1.5.2 1 .4 1.4-.5.8-1.4 1.6-2.6 2.3-3.3 1.9-6.5.9-8-1.8-2.2-4-.4-7 2.7-8.7 1-.6 2.4-1 3.3-.9.1.6.3 1.1.5 1.7l-.2.1c-1.2-.5-2.2-.5-3.2.1-1.5.9-2.5 3.2-.8 6.2s4.1 3.2 5.7 2.2c.9-.5 1.7-1.5 2-2.5l.2-.1zM108.4 120.5c-1.2-1.4-2-2.4-3-3.4.3-.2.7-.5 1.1-.8.4-.3.7-.7 1-.9.9 1.2 1.6 2.2 2.8 3.6l1.4 1.7c.8.9 1.6 1.9 2.2 2.5.9-.8 1.9-1.7 2.8-2.6.1.2.2.3.4.6s.4.4.5.5c-.5.4-1.1.8-2.3 1.8-2.1 1.7-2.4 2-2.6 2.3-.9-1.2-1.6-2.2-2.8-3.6l-1.5-1.7zM116.8 116.9c-1.4-1.1-2-1.7-2.9-2.5-1.3-1.1-2.2-1.8-2.7-2.1.3-.3.6-.6.9-1 .3-.3.6-.7.8-1.1 1.5 1.5 2.8 2.6 4.3 3.9 3.1 2.6 4.3 2.1 5.7.5 1.7-2-.4-4-2.7-6-1.2-1-2.4-1.9-3.6-2.8l.6-.6c.2-.2.3-.4.5-.7.7.7 2.4 2.3 4.6 4.1 2.9 2.4 3.1 4.7 1 7.2-1.8 2.2-4.2 3.1-6.5 1.1zM122.9 104.5c-1.6-.8-2.8-1.4-4.1-2 .2-.3.4-.7.7-1.2.4-.8.9-1.8 1.3-2.7.9-1.8 2.2-2.6 3.8-1.8 1.6.8 1.5 2.7 1.2 3.6.5-.9 2-2.3 3.8-1.4 2.1 1.1 2.1 3.2 1.2 4.9-.4.8-.8 1.4-1.2 2.1-.3.5-.6 1.2-.7 1.5-1.2-.8-2.4-1.4-4-2.2l-2-.8zm-1.7-4.6c-.2.4-.3.5-.3.7.7.4 1.5.9 2 1.1.5.3 1 .5 1.5.8l.3-.7c.4-.8.2-2-1-2.6-1-.4-1.9-.4-2.5.7zm4.3 2.4c-.1.3-.2.5-.3.6l1.4.7c.9.5 2.1 1 2.6 1.3.2-.3.3-.5.4-.8.4-.9.1-2-1.2-2.6-1.3-.6-2.3-.3-2.9.8z"/><circle class="st12" cx="5.6" cy="75.8" r="5.6"/><circle class="st12" cx="134.7" cy="75.8" r="5.6"/></svg>