<?xml version="1.0" encoding="utf-8"?>
<!-- Generator: Adobe Illustrator 19.2.1, SVG Export Plug-In . SVG Version: 6.00 Build 0)  -->
<!DOCTYPE svg PUBLIC "-//W3C//DTD SVG 1.1//EN" "http://www.w3.org/Graphics/SVG/1.1/DTD/svg11.dtd">
<svg version="1.1" id="Layer_1" xmlns="http://www.w3.org/2000/svg" xmlns:xlink="http://www.w3.org/1999/xlink" x="0px" y="0px"
	 viewBox="0 0 84.5 87.7" style="enable-background:new 0 0 84.5 87.7;" xml:space="preserve">
<style type="text/css">
	.st0{fill:#FFF200;stroke:#000000;stroke-width:0.8147;stroke-linecap:round;stroke-miterlimit:3.8637;}
	.st1{fill:#ED1C24;stroke:#000000;stroke-width:0.4073;stroke-linecap:round;stroke-miterlimit:3.8637;}
	.st2{fill:#FFF200;stroke:#000000;stroke-width:0.8147;stroke-linecap:round;stroke-linejoin:round;stroke-miterlimit:3.8637;}
	.st3{fill:#00AEEF;stroke:#000000;stroke-width:0.2716;stroke-linecap:round;stroke-linejoin:round;stroke-miterlimit:3.8637;}
	.st4{fill:#FFF200;stroke:#000000;stroke-width:0.2716;stroke-linecap:round;stroke-linejoin:round;stroke-miterlimit:3.8637;}
	.st5{fill:#FFFFFF;stroke:#000000;stroke-width:1.0863;stroke-linecap:round;stroke-linejoin:round;stroke-miterlimit:3.8637;}
	.st6{fill:#FFF200;}
	.st7{fill:#FFFFFF;stroke:#000000;stroke-width:0.4073;stroke-linecap:round;stroke-linejoin:round;stroke-miterlimit:3.8637;}
	.st8{fill:#00A651;stroke:#000000;stroke-width:0.4073;stroke-linecap:round;stroke-linejoin:round;stroke-miterlimit:3.8637;}
	.st9{fill:#00A651;stroke:#000000;stroke-width:0.4073;stroke-miterlimit:3.8637;}
	.st10{fill:#ED1C24;stroke:#000000;stroke-width:0.4073;stroke-miterlimit:3.8637;}
	.st11{fill:none;stroke:#000000;stroke-width:0.5431;stroke-miterlimit:3.8637;}
	.st12{fill:none;stroke:#FFF200;stroke-width:0.8147;stroke-linecap:round;stroke-miterlimit:3.8637;}
	.st13{fill:#FFF200;stroke:#000000;stroke-width:0.1358;stroke-linecap:round;stroke-linejoin:round;stroke-miterlimit:3.8637;}
	.st14{stroke:#000000;stroke-width:0.1358;stroke-linecap:round;stroke-linejoin:round;stroke-miterlimit:3.8637;}
</style>
<g>
	<polygon class="st0" points="84.1,73.6 84.1,85.5 0.4,85.5 0.4,73.6 40.7,45.7 	"/>
	<polygon class="st1" points="2.9,73.8 16,73.8 10.7,68.6 	"/>
	<polygon class="st1" points="81.6,73.8 68.5,73.8 73.7,68.6 	"/>
	<path class="st2" d="M1,41.6C1,18.8,19.5,0.4,42.2,0.4c22.8,0,41.2,18.5,41.2,41.2c0,22.8-18.5,41.2-41.2,41.2
		C19.5,82.9,1,64.4,1,41.6L1,41.6z"/>
	<path class="st3" d="M2.5,41.6c0-22,17.8-39.8,39.8-39.8s39.8,17.8,39.8,39.8S64.3,81.4,42.3,81.4C20.3,81.4,2.5,63.6,2.5,41.6
		L2.5,41.6z"/>
	<path class="st4" d="M11.9,41.6c0-16.7,13.6-30.3,30.3-30.3c16.7,0,30.3,13.6,30.3,30.3c0,16.7-13.6,30.3-30.3,30.3
		C25.5,72,11.9,58.4,11.9,41.6L11.9,41.6z"/>
	<path class="st5" d="M13.4,41.6c0-15.9,12.9-28.8,28.8-28.8S71,25.7,71,41.6S58.1,70.4,42.2,70.4C26.3,70.5,13.4,57.6,13.4,41.6
		L13.4,41.6z"/>
	<path class="st6" d="M8.9,58l1.4-0.6l-0.7-1.6c-0.1-0.3-0.3-0.5-0.5-0.6s-0.4-0.1-0.7,0C8.1,55.3,8,55.5,8,55.8
		c0,0.2,0.1,0.5,0.2,0.8L8.9,58L8.9,58z M11.3,56.9l1.7-0.8l-0.7-1.6c-0.1-0.3-0.3-0.5-0.4-0.6c-0.3-0.2-0.6-0.2-1-0.1
		c-0.3,0.1-0.5,0.4-0.5,0.7c0,0.2,0.1,0.4,0.2,0.7L11.3,56.9L11.3,56.9z M6.9,54.7c0.2-0.3,0.5-0.6,0.8-0.7c0.4-0.2,0.8-0.2,1.1-0.1
		C9,54,9.2,54.1,9.4,54.2c0-0.4,0.1-0.7,0.2-1c0.2-0.3,0.5-0.5,0.8-0.7c0.4-0.2,0.8-0.2,1.2-0.2c0.3,0,0.5,0.1,0.7,0.2
		s0.5,0.3,0.6,0.6c0.2,0.3,0.3,0.5,0.5,0.9l1.3,2.9l-6.4,2.9l-1.4-3.1C6.6,55.9,6.6,55.2,6.9,54.7L6.9,54.7z"/>
	<polygon class="st6" points="5.2,51.8 4.9,50.4 10.5,49.1 9.7,45.7 10.9,45.4 12,50.3 	"/>
	<path class="st6" d="M8.2,41.9l0.1-1.8l-2.8,0.7L8.2,41.9L8.2,41.9z M3.8,41.6l0.1-1.7l7.2-2.1L11,39.4l-1.5,0.4l-0.1,2.6l1.4,0.6
		l-0.1,1.5L3.8,41.6L3.8,41.6z"/>
	<path class="st6" d="M5.2,34.5c-0.4-0.7-0.5-1.5-0.3-2.3c0.3-1.1,0.9-1.9,1.8-2.2c0.5-0.2,1-0.2,1.4-0.2l-0.4,1.4
		c-0.4,0-0.6,0.1-0.8,0.2c-0.4,0.2-0.6,0.5-0.7,1c-0.1,0.5,0,1,0.3,1.4s0.9,0.7,1.7,0.9c0.8,0.2,1.4,0.2,1.8,0
		c0.5-0.2,0.7-0.6,0.9-1.1c0.1-0.5,0.1-0.9-0.2-1.3c-0.1-0.2-0.4-0.4-0.7-0.6l0.4-1.4c0.7,0.3,1.2,0.8,1.6,1.4
		c0.3,0.6,0.4,1.3,0.2,2.1c-0.2,1-0.8,1.7-1.5,2.1c-0.8,0.4-1.7,0.5-2.8,0.2C6.5,35.9,5.7,35.3,5.2,34.5L5.2,34.5z"/>
	<polygon class="st6" points="6.9,26.6 7.5,25.3 10.1,26.6 8.7,22.9 9.5,21.2 10.9,25.1 15.9,24.1 15.1,25.8 11.4,26.5 11.7,27.4 
		13.8,28.4 13.2,29.7 	"/>
	<path class="st6" d="M13.3,18.3l1.2,1l1.1-1.3c0.2-0.2,0.3-0.5,0.4-0.7c0-0.2-0.1-0.4-0.3-0.6c-0.2-0.2-0.5-0.3-0.7-0.1
		c-0.2,0.1-0.4,0.3-0.6,0.6L13.3,18.3L13.3,18.3z M15.3,20.1l1.4,1.2l1.1-1.3c0.2-0.2,0.3-0.4,0.4-0.6c0.1-0.3,0-0.6-0.4-0.9
		c-0.3-0.2-0.6-0.3-0.9-0.2c-0.2,0.1-0.4,0.2-0.6,0.5L15.3,20.1L15.3,20.1z M15.5,15.1c0.4,0,0.7,0.2,1,0.5s0.5,0.6,0.6,0.9
		c0,0.2,0,0.4,0,0.7c0.3-0.2,0.7-0.3,1-0.2c0.3,0,0.7,0.2,1,0.5s0.5,0.6,0.6,1c0.1,0.2,0.1,0.5,0.1,0.7c0,0.3-0.1,0.6-0.3,0.8
		c-0.2,0.3-0.3,0.5-0.6,0.8l-2.1,2.4l-5.3-4.6l2.2-2.6C14.3,15.3,14.9,15,15.5,15.1L15.5,15.1z"/>
	<path class="st6" d="M17.5,12.3l1.2-0.9l2.6,3.5c0.3,0.4,0.5,0.6,0.8,0.7c0.4,0.2,0.8,0.1,1.3-0.2c0.5-0.4,0.7-0.7,0.6-1.2
		c0-0.2-0.2-0.6-0.5-0.9l-2.6-3.5l1.2-0.9l2.6,3.5c0.5,0.6,0.7,1.1,0.8,1.6c0.1,0.9-0.3,1.7-1.3,2.4c-1,0.7-1.9,0.9-2.7,0.6
		c-0.4-0.2-0.9-0.6-1.3-1.2L17.5,12.3L17.5,12.3z"/>
	<path class="st6" d="M27.3,7.6l0.6,1.8l1.6-0.6c0.3-0.1,0.5-0.2,0.7-0.4c0.2-0.2,0.3-0.5,0.1-0.9c-0.1-0.4-0.4-0.6-0.7-0.7
		c-0.2,0-0.4,0-0.7,0.1L27.3,7.6L27.3,7.6z M29.9,5.5c0.3,0,0.6,0.1,0.8,0.2c0.2,0.1,0.4,0.3,0.5,0.4c0.2,0.2,0.3,0.4,0.4,0.6
		c0.1,0.3,0.1,0.7,0.1,1c0,0.4-0.2,0.7-0.6,0.9c0.3,0,0.6,0.1,0.8,0.3c0.2,0.2,0.4,0.5,0.6,1l0.2,0.4c0.1,0.3,0.2,0.5,0.3,0.6
		c0.1,0.2,0.2,0.3,0.4,0.3l0.1,0.2L32,12c-0.1-0.1-0.2-0.2-0.2-0.3c-0.1-0.2-0.2-0.4-0.3-0.5l-0.2-0.6c-0.2-0.4-0.3-0.7-0.5-0.8
		c-0.2-0.1-0.5-0.1-0.9,0.1l-1.4,0.5l0.9,2.6L28,13.5l-2.4-6.6l3.2-1.2C29.3,5.6,29.6,5.5,29.9,5.5L29.9,5.5z"/>
	<polygon class="st6" points="34,4 35.5,3.8 38.9,8.4 38.3,3.5 39.6,3.3 40.5,10.3 39,10.5 35.6,5.9 36.2,10.8 34.8,11 	"/>
	<path class="st6" d="M46.9,4.8l-0.3,1.9L48.2,7c0.3,0.1,0.6,0.1,0.8,0c0.3-0.1,0.5-0.3,0.6-0.7c0.1-0.4,0-0.7-0.3-0.9
		c-0.1-0.1-0.4-0.2-0.7-0.2L46.9,4.8L46.9,4.8z M50.2,4.3c0.2,0.2,0.4,0.3,0.6,0.6c0.1,0.2,0.2,0.4,0.3,0.6c0.1,0.2,0.1,0.5,0,0.8
		s-0.2,0.6-0.4,0.9c-0.2,0.3-0.5,0.5-0.9,0.5c0.3,0.2,0.5,0.4,0.6,0.7c0.1,0.3,0.1,0.6,0,1.1L50.3,10c0,0.3-0.1,0.5-0.1,0.7
		s0.1,0.3,0.2,0.4v0.2L48.8,11c0-0.2,0-0.3,0-0.4c0-0.2,0-0.4,0-0.6l0.1-0.6c0.1-0.4,0-0.8-0.1-0.9c-0.1-0.2-0.4-0.3-0.8-0.4
		l-1.5-0.2l-0.4,2.7l-1.4-0.2l1.1-6.9L49.2,4C49.6,4,49.9,4.1,50.2,4.3L50.2,4.3z"/>
	<path class="st6" d="M56.8,12.1c0.5-0.2,0.9-0.7,1.3-1.4c0.3-0.7,0.5-1.3,0.3-1.9c-0.1-0.5-0.4-0.9-1-1.2c-0.5-0.3-1-0.3-1.5,0
		C55.4,7.8,55,8.3,54.6,9c-0.3,0.7-0.5,1.3-0.3,1.9c0.1,0.5,0.4,0.9,1,1.2C55.8,12.3,56.3,12.3,56.8,12.1L56.8,12.1z M57.2,13.4
		c-0.7,0.3-1.5,0.2-2.4-0.3c-0.9-0.4-1.5-1-1.7-1.7c-0.3-0.9-0.2-1.9,0.3-3.1c0.6-1.2,1.3-1.9,2.2-2.1C56.3,5.9,57.1,6,58,6.5
		c0.9,0.4,1.5,1,1.7,1.7c0.4,0.9,0.2,1.9-0.3,3.1C58.8,12.4,58.1,13.1,57.2,13.4L57.2,13.4z"/>
	<polygon class="st6" points="66.7,12 67.9,13 61.6,17 60.5,16.2 63,9.2 64.2,10.1 62.2,15.3 	"/>
	<polygon class="st6" points="72,19.2 69.5,16.5 68.4,17.5 70.6,20 69.7,20.8 67.5,18.3 66.1,19.5 68.7,22.4 67.8,23.2 64.2,19.3 
		69.4,14.6 72.9,18.4 	"/>
	<path class="st6" d="M74.6,23.3l-1.7,0.8l0.7,1.5c0.1,0.3,0.3,0.5,0.4,0.6c0.2,0.2,0.6,0.2,0.9,0c0.4-0.2,0.6-0.4,0.6-0.8
		c0-0.2-0.1-0.4-0.2-0.7L74.6,23.3L74.6,23.3z M76.9,25.7c0,0.3,0,0.6-0.1,0.8c-0.1,0.2-0.2,0.4-0.4,0.6c-0.2,0.2-0.4,0.3-0.6,0.4
		c-0.3,0.1-0.6,0.2-1,0.2s-0.7-0.2-1-0.5c0,0.3,0,0.6-0.2,0.9c-0.2,0.2-0.5,0.4-0.9,0.7L72.3,29c-0.3,0.1-0.5,0.2-0.6,0.3
		c-0.1,0.1-0.2,0.3-0.2,0.4l-0.2,0.1l-0.7-1.5c0.1-0.1,0.2-0.2,0.3-0.3c0.2-0.1,0.3-0.2,0.5-0.3l0.6-0.3c0.4-0.2,0.6-0.4,0.7-0.6
		s0-0.5-0.2-0.9l-0.7-1.4l-2.5,1.2l-0.6-1.3l6.3-3.1l1.5,3.1C76.8,25,76.9,25.4,76.9,25.7L76.9,25.7z"/>
	<path class="st6" d="M74.2,31.6c-0.3,0.1-0.5,0.3-0.6,0.4c-0.2,0.3-0.3,0.7-0.1,1.3c0.1,0.3,0.2,0.6,0.3,0.8
		c0.2,0.4,0.6,0.5,0.9,0.4c0.2-0.1,0.4-0.2,0.4-0.4c0.1-0.2,0.1-0.6,0.1-1v-0.8c0-0.8,0-1.3,0.2-1.6c0.2-0.5,0.6-0.9,1.3-1.1
		c0.6-0.2,1.2-0.1,1.7,0.3c0.5,0.3,0.9,0.9,1.1,1.8c0.2,0.7,0.1,1.4-0.1,2c-0.3,0.6-0.7,1-1.5,1.2l-0.3-1.4c0.4-0.1,0.7-0.4,0.7-0.8
		c0.1-0.3,0-0.5,0-0.9c-0.1-0.4-0.2-0.6-0.4-0.8c-0.2-0.2-0.4-0.2-0.7-0.2c-0.2,0.1-0.4,0.2-0.5,0.5c0,0.2-0.1,0.5-0.1,1v1.2
		c0,0.5-0.1,1-0.2,1.3c-0.2,0.5-0.6,0.8-1.2,1s-1.2,0-1.7-0.3c-0.5-0.4-0.9-1-1.1-1.9s-0.2-1.6,0.1-2.2c0.3-0.6,0.8-1,1.5-1.2
		L74.2,31.6L74.2,31.6z"/>
	<polygon class="st6" points="80.6,43 80.3,47.9 79,47.9 79.3,44.3 77.7,44.2 77.4,47.3 76.2,47.2 76.4,44.1 73.5,43.9 73.6,42.5 	
		"/>
	<polygon class="st6" points="74.5,47.3 74.3,48.7 72.9,48.5 73.1,47.1 	"/>
	<path class="st6" d="M78.2,53.1c0.3,0.7,0.3,1.5,0,2.4c-0.4,1.1-1.1,1.8-2.1,2c-0.5,0.1-1,0.1-1.4,0l0.6-1.4c0.3,0,0.6,0,0.8-0.1
		c0.4-0.1,0.7-0.4,0.9-0.9c0.2-0.5,0.2-1-0.1-1.4c-0.3-0.4-0.8-0.8-1.5-1.1c-0.7-0.3-1.3-0.4-1.8-0.2c-0.5,0.2-0.8,0.5-1,0.9
		c-0.2,0.5-0.2,0.9,0,1.3c0.1,0.2,0.3,0.4,0.6,0.7l-0.5,1.3c-0.7-0.4-1.1-0.9-1.4-1.6c-0.2-0.7-0.2-1.4,0.1-2.1
		c0.4-0.9,1-1.6,1.8-1.8c0.8-0.3,1.8-0.2,2.8,0.2C77,51.6,77.8,52.2,78.2,53.1L78.2,53.1z"/>
	<polygon class="st6" points="71.1,57.2 70.3,58.5 69.1,57.7 69.9,56.5 	"/>
	<path class="st6" d="M16.1,70.3h1v-5.9h-0.7c-0.1,0.7-0.6,1-1.6,1.1v0.7h1.3L16.1,70.3L16.1,70.3z"/>
	<path class="st6" d="M19.5,67.1c-0.6,0.1-0.9,0.6-0.9,1.5c0,1.2,0.5,1.7,1.6,1.7s1.6-0.6,1.6-1.8c0-0.9-0.2-1.3-0.9-1.4
		c0.5-0.2,0.8-0.6,0.8-1.2c0-1-0.5-1.5-1.5-1.5s-1.5,0.5-1.5,1.4C18.8,66.5,19,67,19.5,67.1L19.5,67.1z M20.3,67.5
		c0.4,0,0.5,0.3,0.5,1s-0.1,1-0.5,1s-0.5-0.3-0.5-0.9C19.7,67.8,19.8,67.5,20.3,67.5L20.3,67.5z M19.8,66c0-0.5,0.1-0.8,0.5-0.8
		s0.5,0.2,0.5,0.8c0,0.5-0.1,0.8-0.5,0.8C19.9,66.7,19.8,66.5,19.8,66L19.8,66z"/>
	<path class="st6" d="M63.1,70.3h1.1c0.1-1.8,0.6-3.5,1.4-4.9v-0.8h-3.2v1h2.2C63.7,67.3,63.3,68.9,63.1,70.3L63.1,70.3z"/>
	<path class="st6" d="M66.3,68.4v0.1c0,1.2,0.5,1.8,1.6,1.8c1.2,0,1.7-0.7,1.7-2.2c0-1.3-0.5-1.9-1.5-1.9c-0.3,0-0.6,0.1-0.8,0.3
		l0.1-1.2h2v-0.9h-2.8l-0.2,3.1h0.9c0-0.3,0.2-0.5,0.5-0.5c0.5,0,0.6,0.4,0.6,1.2c0,0.9-0.2,1.3-0.6,1.3s-0.6-0.3-0.6-1
		c0-0.1,0-0.1,0-0.2h-0.9V68.4z"/>
	<polygon class="st0" points="0.4,75.4 84.1,75.4 84.1,87.3 0.4,87.3 	"/>
	<polygon class="st7" points="1.9,77 82.5,77 82.5,85.7 1.9,85.7 	"/>
	<path d="M4.3,83.7h0.9l0.7-1.5h2.6l0.7,1.5h1l-2.5-5.1h-1L4.3,83.7L4.3,83.7z M6.2,81.6l1-2.2l1,2.2H6.2L6.2,81.6z"/>
	<path d="M10.9,78.6v5.1h0.9v-2.2h1.5c1.1,0,1.4,0.1,1.5,0.8l0.1,0.7c0,0.3,0,0.5,0.2,0.7h1v-0.1c-0.2-0.1-0.3-0.3-0.3-0.6l-0.1-0.8
		c0-0.5-0.2-0.8-0.8-0.9c0.6-0.2,0.9-0.6,0.9-1.2s-0.3-1-0.9-1.2c-0.4-0.2-0.9-0.2-1.4-0.2L10.9,78.6L10.9,78.6z M11.8,79.2h1.5
		c1,0,1.5,0.1,1.5,0.8c0,0.7-0.5,0.9-1.5,0.9h-1.5V79.2L11.8,79.2z"/>
	<polygon points="18.5,83.7 19.4,83.7 19.4,79.2 21.5,79.2 21.5,78.6 16.4,78.6 16.4,79.2 18.5,79.2 	"/>
	<polygon points="22.3,83.7 27.1,83.7 27.1,83 23.2,83 23.2,81.4 26.7,81.4 26.7,80.8 23.2,80.8 23.2,79.2 27,79.2 27,78.6 
		22.3,78.6 	"/>
	<polygon points="30.7,83.7 35.5,83.7 35.5,83 31.6,83 31.6,81.4 35.2,81.4 35.2,80.8 31.6,80.8 31.6,79.2 35.5,79.2 35.5,78.6 
		30.7,78.6 	"/>
	<polygon points="38.1,83.7 39,83.7 39,79.2 41.1,79.2 41.1,78.6 36,78.6 36,79.2 38.1,79.2 	"/>
	<polygon points="44.4,83.7 48.6,83.7 48.6,83 45.3,83 45.3,78.6 44.4,78.6 	"/>
	<path d="M48.6,83.7h0.9l0.7-1.5h2.6l0.7,1.5h1L52,78.6h-1L48.6,83.7L48.6,83.7z M50.5,81.6l1-2.2l1,2.2H50.5L50.5,81.6z"/>
	<path d="M56.1,83.1v-1.8h1.7c1,0,1.5,0.3,1.5,0.9s-0.5,0.9-1.4,0.9H56.1L56.1,83.1z M56.1,80.7v-1.5h1.7c0.9,0,1.3,0.2,1.3,0.8
		c0,0.6-0.4,0.8-1.4,0.8L56.1,80.7L56.1,80.7z M55.2,83.7H58c1.4,0,2.2-0.6,2.2-1.5c0-0.7-0.5-1.1-1.3-1.2c0.6-0.2,1-0.6,1-1.1
		c0-0.8-0.7-1.2-2.1-1.2h-2.7v5H55.2z"/>
	<path d="M61.2,81.2c0,1.7,1.2,2.7,3.1,2.7s3.1-1,3.1-2.7s-1.2-2.7-3.1-2.7S61.2,79.5,61.2,81.2L61.2,81.2z M62.1,81.2
		c0-1.3,0.8-2.1,2.2-2.1c1.4,0,2.2,0.8,2.2,2.1c0,1.3-0.8,2.1-2.2,2.1C63,83.2,62.1,82.5,62.1,81.2L62.1,81.2z"/>
	<path d="M68.6,78.6v5.1h0.9v-2.2H71c1.1,0,1.4,0.1,1.5,0.8l0.1,0.7c0,0.3,0,0.5,0.2,0.7h1v-0.1c-0.2-0.1-0.3-0.3-0.3-0.6l-0.1-0.8
		c0-0.5-0.2-0.8-0.8-0.9c0.6-0.2,0.9-0.6,0.9-1.2s-0.3-1-0.9-1.2c-0.4-0.2-0.9-0.2-1.4-0.2L68.6,78.6L68.6,78.6z M69.5,79.2H71
		c1,0,1.5,0.1,1.5,0.8c0,0.7-0.5,0.9-1.5,0.9h-1.5V79.2L69.5,79.2z"/>
	<polygon points="74.7,83.7 79.5,83.7 79.5,83 75.6,83 75.6,81.4 79.2,81.4 79.2,80.8 75.6,80.8 75.6,79.2 79.5,79.2 79.5,78.6 
		74.7,78.6 	"/>
	<path class="st8" d="M45.4,47.6c1.4,3.2,2.4,6.7,4.3,9.6c0.4-2.5-0.8-4.9-1-7.3c-0.4-7.6,5.8-6.9,8.4-12.3c2.8,2.3,5.3-0.6,7.1-0.6
		c0.7,0,1.2,0.6,1.9,0.6c0,2.6-0.4,3.7-1.4,6.1h1.1c3.7,2.2-1.5,5-3.3,6.2c0.3,0.8,2,0.3,2,1.2c0,0.9-0.8,1.5-1.4,2
		c-6.7,6.3-9.7,0.1-11.7,3.1c-0.4,0.7-0.3,1.5-0.7,2.2c0.3,3,0.5,6.1,0.4,9.1c-1.5,0-3.1,1.2-4.6,1.6c0.4-0.8,0-4.7-0.1-5.7
		c0.6,0,1.3,0,2-0.1c0.4-1.8,0.1-3.3-0.5-5.1c-0.9,0.7-1.2,1.6-2.2,2.3c0.3,1.3-0.2,3.5-1.2,4.5c-0.1-1-1-1.6-1-2.6
		c-0.4,2.7-1.2,4.2-3.9,5.6c-0.6-0.4-1.2-1-1.6-1.6v-0.3c-0.8,0-3.2,1.3-3.8,1.8c-1.5-2.3-1.3-3.7-1.6-6.3c-0.1-0.6-1.9-0.4-2.3-0.5
		c1.4-1.2,1.3-1.8,3.4-2.7c-0.8-0.5-1.2-1.4-1.7-2.1c7.3,0,5.9-4.9,13.7-2.5c-0.8-1.2-1.9-1.6-3.1-2.2c0.8-0.8,2-0.7,1.2-2.2
		L45.4,47.6L45.4,47.6z"/>
	<path class="st8" d="M41.7,49.6c-0.3-0.8-2-1.5-2.7-1.2C37.2,49,30.6,43,30.2,43c-2.5,3.9-6.5,2.7-8.3,3.9c1.2,1.5,2.6,3.5,1.2,5
		c1.1,0.6,3.6,0.7,3.3,3.9c2.3,0,11-1.1,12.3-3.3C39.4,51.3,41.7,51.3,41.7,49.6L41.7,49.6z"/>
	<path class="st9" d="M47.2,39.1c0.9,1.3,8.1,4.1,10,4.1c-4.9,2.1-10.2,1.3-10.7,1.3c-0.2,0,0.1,4.5-5.8,7.1c0,0,0.6-3.9-0.7-5.7
		c-2.9,4.7-10.5,4.8-10.5,4.8c5.7-3.3,5.5-5.7,5.7-6.5C41.4,40.5,47.2,39.1,47.2,39.1L47.2,39.1z"/>
	<path class="st10" d="M51.5,28.6c0.5,0.1,0.5,1.1,0.5,1.7c0,2-0.9,2.9-1.7,4.8c-0.3,0.9-0.7,1.4-1.2,2.2c-0.5,0.9-1,1.6-2.1,1.8
		c-3.5,0.7-5.2,2.2-8.2,3.7c-0.8,0.4-1.3,0.8-2.1,1.2h-3.9c-1,0-1.6-0.1-2.5-0.3c-0.7-0.1-1.2-0.5-1.2-1.2c0-0.8,0-1.3,0.3-2
		c-1.5,0-5.7-1.3-6.4-2.6c-1.8-2.8-2.5-6.7-2.4-10c0.7-0.1,3.2,0.9,4,1c-0.1-0.6-0.1-1.2-0.1-2c0-0.7-0.3-1.8,0.4-1.8
		c1,0,1.7,0.3,2.6,0.7c-0.1-0.4-0.3-0.7-0.5-1.1c0,0,0-0.1-0.1-0.1c-0.3-0.7-1-0.8-1-1.5c0-0.6,0.3-1.1,0.7-1.4L26.5,19
		c1-0.3,3,2.4,4.4,2.4c0.1,0,3.2-3,3.8-3.5c0.6-0.5,1.6,2.6,2.6,3.8c0.2-0.2-0.3-2-0.4-2.3c0,0,2.1,1.3,2.9,2.2c1.3-1.3,1-3.2,3-4.5
		c0.8-0.5,1.1-1.5,2.2-0.7c0,2.1,0.2,4.2,0.7,6.2c0.5-0.1,0.5-0.4,1.2-0.3c0,2.2,0.1,5,2.2,6.3L51.5,28.6L51.5,28.6z"/>
	<path class="st11" d="M40.9,29.5c-0.1-1.5-0.5-2.3-1.1-3.7c-0.3-0.6-0.7-0.8-1-1.4c-0.4-1.1-0.7-1.7-1.3-2.6"/>
	<path class="st11" d="M31.3,39.2C38.1,40,41.6,36,42,33.5c0,0,0.4-1.9-0.2-3"/>
	<path class="st11" d="M30.9,39.2c7.5,0.9,11.3-2.9,11.9-4.5c0.2-0.7,0.8-1.4,1.2-2.1c0.3-0.7,0.9-1.1,1.4-1.6
		c2.2-2.4,2.8-2.6,6.1-2.3"/>
	<path class="st11" d="M30.8,39.2c-0.7,0-1,0.7-1.2,1.3c-0.3,0.7-0.5,1.2-0.5,2c0,0.7,0.5,1.2,1.2,1.2c1,0.1,1.6,0.3,2.5,0.3h3.9
		c0.8-0.3,1.3-0.7,2.1-1.2c3.1-1.5,4.8-3.1,8.2-3.7c1.1-0.2,1.6-1,2.1-1.8c0.5-0.7,0.8-1.3,1.2-2.2c0.8-1.9,1.7-2.8,1.7-4.8
		c0-0.5,0-1.6-0.5-1.7"/>
	<path class="st11" d="M30.7,36c0.5-0.6,0.5-1.1,0.5-1.8c0-1.7-0.6-2.6-0.6-4.3c0-0.7-0.1-1.4,0.3-1.8s1-0.4,1.6-0.4
		c2,0,3.1,0.2,5,0.7c1,0.3,1.5,0.8,2.4,1.2c0.7,0.3,2-0.2,2,0.6c0,0.3-0.5,0.5-0.7,0.5c-0.5,0.1-0.9,0.3-1.5,0.3
		c-2.4,0-3.5-1.6-5.9-1.6c-0.7,0-0.7,1.2-0.7,1.9l0.2,2.6c0,1.5-0.1,2.5-0.9,3.7c-0.5,0.7-0.7,1.4-1.6,1.6l-0.3-0.1v-0.2"/>
	<path class="st11" d="M30.6,39.2c0.3-0.7,0.2-1.1,0.2-1.8c0-1.4-0.3-2.3-1-3.5c-0.3-0.7-1-0.9-1.2-1.6c-0.3-1-0.3-1.6-0.5-2.6
		c-0.3-1.4,0-2.2-0.5-3.7c-0.1-0.5-0.3-0.9-0.5-1.4c0,0,0-0.1-0.1-0.1c-0.3-0.7-1-0.8-1-1.5c0-0.8,0.6-1.6,1.4-1.6
		c1,0,1.5,0.5,2.4,0.9c0.7,0.3,1.2,0.5,2,0.6c1.2,0.3,1.8,0.8,2.8,1.2c0.5,0.2,1,0.3,1.4,0.7c1,1,0.7,2,1.4,3.4"/>
	<path class="st11" d="M26.8,21.7L26.7,19c1-0.3,3,2.4,4.4,2.4c0.1,0,3.2-3,3.8-3.5c0.6-0.5,1.6,2.6,2.6,3.8c0.2-0.2-0.3-2-0.4-2.3
		c0,0,2.1,1.3,2.9,2.2c0.8,1.6,1.5,2.1,2.3,3.5c0.2,0.4,0.7,0.6,0.9,1c0.8,1.5,0.3,2.6,1,4.3V32"/>
	<path class="st11" d="M35.6,27.8c-0.5-1.6-1.7-1.9-3.1-2.6c-0.5-0.3-1-0.6-1.7-0.6s-1,0.9-1.1,1.6v1.2c0.3,0.9,0.2,1.6,0.8,2.2"/>
	<path class="st11" d="M27.6,26c-1.1-0.3-1.6-0.9-2.6-0.9c-0.7,0-0.4,1.1-0.4,1.8c0,1.7,0.1,2.6,0.7,4.3c0.3,1.2,0.9,1.6,1.4,2.6"/>
	<path class="st11" d="M24.7,29c-0.6,0.1-3.3-1.2-4.1-1.1c-0.1,3.2,0.6,7.2,2.4,10c0.8,1.2,4.9,2.6,6.4,2.6"/>
	<path class="st11" d="M49.4,28.6c-2.2-1.2-2.3-4.2-2.3-6.4c-0.7-0.1-0.7,0.2-1.2,0.3c-0.5-2-0.7-4.1-0.7-6.2
		C44,15.5,43.8,16.5,43,17c-2.1,1.4-1.8,3.2-3.1,4.5"/>
	<path class="st6" d="M39.1,32.1c-1-0.4-1.8-0.6-2.9-0.6c-1.2,0-1.8,1.2-2,2.4v1.4c1-1.3,1-3.2,2.6-3.2C37.7,32,38.3,32.3,39.1,32.1
		L39.1,32.1z"/>
	<line class="st12" x1="44.8" y1="36.2" x2="46.6" y2="38.1"/>
	<line class="st12" x1="43.6" y1="37.1" x2="45" y2="38.7"/>
	<line class="st12" x1="42.3" y1="38.1" x2="42.9" y2="39"/>
	<line class="st12" x1="48.7" y1="30.4" x2="51.2" y2="30.5"/>
	<line class="st12" x1="48.5" y1="31.4" x2="50.5" y2="31.7"/>
	<line class="st12" x1="43.3" y1="45.1" x2="42.3" y2="49.2"/>
	<path class="st13" d="M47,56.5c-0.1-0.1-0.1-0.5-0.4-0.5c-1.6,0-2.3,1-3.9,1c-1.5,0-2.2-1.1-3.7-1.3c0.7,0.3,1.2,0.6,1.8,1
		c0.4,0.2,1,0.3,1,0.8c0,0.9-1,1.3-1.9,1.3c-1.5,0-2.4-0.1-3.9-0.5c0.7,0.4,1.2,0.6,2,0.6c0.7,0,1.8-0.2,1.8,0.5
		c0,0.6-0.6,0.9-1,1.4c-1.1,1.6-2,2.4-2.9,4.1c0.4-0.7,0.8-1,1.4-1.5c1.4-1.2,1.8-2.3,3.2-3.5c0,0.3-0.1,0.5-0.1,0.9
		c0,0.6,0.2,0.9,0.2,1.5c0,0.5-0.1,0.7-0.1,1.2c0.1-0.2,0.3-0.5,0.4-0.7v-2.5c0.2-1.2,1-1.6,2.2-2.3l-0.2,3.5
		c0.4-1.4,0.1-2.4,0.8-3.5C44.4,56.9,45.9,57.2,47,56.5L47,56.5z"/>
	<path class="st13" d="M52.8,49.2c0-1.4,0.1-2-0.2-3.4l0.5,1.9v2.4c0.1,0,0.2,0.1,0.3,0.1c0.8,0,0.8-1,1.3-1.6
		c0.7-0.9,1.3-1.4,1.8-2.3c0.5-0.8,0.1-1.6,0.3-2.5v1.6c1.1-0.3,1.3-1.3,2.2-1.9c1.5-1,2.4-1.6,3.6-3.1c-0.7,0.9-1,1.6-1.8,2.5
		c-1.1,1.2-2.2,1.6-3.1,3.1c0.5,0.1,0.9,0,1.4,0c1.8,0,2.9-0.7,4.7-0.7c-0.3,0-0.5,0-0.8,0c-0.5,0-0.7,0.3-1.2,0.5
		c-1.4,0.7-2.3,1.1-3.9,0.8c-0.8-0.1-1.4,0.9-1.7,1.6c-0.4,1-0.7,1.5-1.6,2.1c0.3,0.1,0.3,0.1,0.6,0.1c1.3,0,2-0.2,3.3-0.7h2.7
		c-2.1,0.7-3.2,0.5-5.3,1.1c-1.6,0.4-3.1,0.7-3.4,2.4c-0.1,0.8-0.3,1.3-0.8,1.9c-0.2,0.3-0.7,0.6-1,0.4s0.1-0.9,0.3-1.3
		C52.1,52.4,52.8,51.3,52.8,49.2L52.8,49.2z"/>
	<path class="st14" d="M30.2,52.1c0.2,0.1,0.5,0.2,0.7,0.2c1.5,0,2.4-0.3,3.9-0.4c1.8-0.1,3.3-0.5,4.1-2.1c0.1-0.3,0.4-0.6,0.3-0.9
		c-0.3-0.5-0.9,0.3-1.4,0.5c-1,0.5-1.5,0.7-2.4,1.2C33.6,51.7,32.3,52.1,30.2,52.1L30.2,52.1z"/>
</g>
</svg>
