<svg version="1.1" id="Layer_1" xmlns="http://www.w3.org/2000/svg" x="0" y="0" viewBox="0 0 84.5 87.7" style="enable-background:new 0 0 84.5 87.7" xml:space="preserve"><style>.st0,.st1{fill:#fff200;stroke:#000;stroke-width:.8147;stroke-linecap:round;stroke-miterlimit:3.8637}.st1{fill:#ed1c24;stroke-width:.4073}.st6{fill:#fff200}.st11,.st12,.st13,.st8{stroke:#000;stroke-miterlimit:3.8637}.st8{fill:#00a651;stroke-width:.4073;stroke-linecap:round;stroke-linejoin:round}.st11,.st12,.st13{fill:none;stroke-width:.5431}.st12,.st13{stroke:#fff200;stroke-width:.8147;stroke-linecap:round}.st13{fill:#fff200;stroke:#000;stroke-width:.1358;stroke-linejoin:round}</style><path class="st0" d="M84.1 73.6v11.9H.4V73.6l40.3-27.9z"/><path class="st1" d="M2.9 73.8H16l-5.3-5.2zM81.6 73.8H68.5l5.2-5.2z"/><path d="M1 41.6C1 18.8 19.5.4 42.2.4 65 .4 83.4 18.9 83.4 41.6c0 22.8-18.5 41.2-41.2 41.2C19.5 82.9 1 64.4 1 41.6h0z" style="fill:#fff200;stroke:#000;stroke-width:.8147;stroke-linecap:round;stroke-linejoin:round;stroke-miterlimit:3.8637"/><path d="M2.5 41.6c0-22 17.8-39.8 39.8-39.8s39.8 17.8 39.8 39.8-17.8 39.8-39.8 39.8c-22 0-39.8-17.8-39.8-39.8h0z" style="fill:#00aeef;stroke:#000;stroke-width:.2716;stroke-linecap:round;stroke-linejoin:round;stroke-miterlimit:3.8637"/><path d="M11.9 41.6c0-16.7 13.6-30.3 30.3-30.3 16.7 0 30.3 13.6 30.3 30.3 0 16.7-13.6 30.3-30.3 30.3-16.7.1-30.3-13.5-30.3-30.3h0z" style="fill:#fff200;stroke:#000;stroke-width:.2716;stroke-linecap:round;stroke-linejoin:round;stroke-miterlimit:3.8637"/><path d="M13.4 41.6c0-15.9 12.9-28.8 28.8-28.8S71 25.7 71 41.6 58.1 70.4 42.2 70.4c-15.9.1-28.8-12.8-28.8-28.8h0z" style="fill:#fff;stroke:#000;stroke-width:1.0863;stroke-linecap:round;stroke-linejoin:round;stroke-miterlimit:3.8637"/><path class="st6" d="m8.9 58 1.4-.6-.7-1.6c-.1-.3-.3-.5-.5-.6s-.4-.1-.7 0c-.3.1-.4.3-.4.6 0 .2.1.5.2.8l.7 1.4zm2.4-1.1 1.7-.8-.7-1.6c-.1-.3-.3-.5-.4-.6-.3-.2-.6-.2-1-.1-.3.1-.5.4-.5.7 0 .2.1.4.2.7l.7 1.7zm-4.4-2.2c.2-.3.5-.6.8-.7.4-.2.8-.2 1.1-.1l.6.3c0-.4.1-.7.2-1 .2-.3.5-.5.8-.7.4-.2.8-.2 1.2-.2.3 0 .5.1.7.2s.5.3.6.6c.2.3.3.5.5.9l1.3 2.9-6.4 2.9-1.4-3.1c-.3-.8-.3-1.5 0-2zM5.2 51.8l-.3-1.4 5.6-1.3-.8-3.4 1.2-.3 1.1 4.9zM8.2 41.9l.1-1.8-2.8.7 2.7 1.1zm-4.4-.3.1-1.7 7.2-2.1-.1 1.6-1.5.4-.1 2.6 1.4.6-.1 1.5-6.9-2.9zM5.2 34.5c-.4-.7-.5-1.5-.3-2.3.3-1.1.9-1.9 1.8-2.2.5-.2 1-.2 1.4-.2l-.4 1.4c-.4 0-.6.1-.8.2-.4.2-.6.5-.7 1-.1.5 0 1 .3 1.4s.9.7 1.7.9c.8.2 1.4.2 1.8 0 .5-.2.7-.6.9-1.1.1-.5.1-.9-.2-1.3-.1-.2-.4-.4-.7-.6l.4-1.4c.7.3 1.2.8 1.6 1.4.3.6.4 1.3.2 2.1-.2 1-.8 1.7-1.5 2.1-.8.4-1.7.5-2.8.2-1.4-.2-2.2-.8-2.7-1.6zM6.9 26.6l.6-1.3 2.6 1.3-1.4-3.7.8-1.7 1.4 3.9 5-1-.8 1.7-3.7.7.3.9 2.1 1-.6 1.3zM13.3 18.3l1.2 1 1.1-1.3c.2-.2.3-.5.4-.7 0-.2-.1-.4-.3-.6-.2-.2-.5-.3-.7-.1-.2.1-.4.3-.6.6l-1.1 1.1zm2 1.8 1.4 1.2 1.1-1.3c.2-.2.3-.4.4-.6.1-.3 0-.6-.4-.9-.3-.2-.6-.3-.9-.2-.2.1-.4.2-.6.5l-1 1.3zm.2-5c.4 0 .7.2 1 .5s.5.6.6.9v.7c.3-.2.7-.3 1-.2.3 0 .7.2 1 .5s.5.6.6 1c.1.2.1.5.1.7 0 .3-.1.6-.3.8-.2.3-.3.5-.6.8l-2.1 2.4-5.3-4.6 2.2-2.6c.6-.7 1.2-1 1.8-.9zM17.5 12.3l1.2-.9 2.6 3.5c.3.4.5.6.8.7.4.2.8.1 1.3-.2.5-.4.7-.7.6-1.2 0-.2-.2-.6-.5-.9l-2.6-3.5 1.2-.9 2.6 3.5c.5.6.7 1.1.8 1.6.1.9-.3 1.7-1.3 2.4s-1.9.9-2.7.6c-.4-.2-.9-.6-1.3-1.2l-2.7-3.5zM27.3 7.6l.6 1.8 1.6-.6c.3-.1.5-.2.7-.4.2-.2.3-.5.1-.9-.1-.4-.4-.6-.7-.7-.2 0-.4 0-.7.1l-1.6.7zm2.6-2.1c.3 0 .6.1.8.2.2.1.4.3.5.4.2.2.3.4.4.6.1.3.1.7.1 1 0 .4-.2.7-.6.9.3 0 .6.1.8.3.2.2.4.5.6 1l.2.4c.1.3.2.5.3.6.1.2.2.3.4.3l.1.2-1.5.6c-.1-.1-.2-.2-.2-.3-.1-.2-.2-.4-.3-.5l-.2-.6c-.2-.4-.3-.7-.5-.8-.2-.1-.5-.1-.9.1l-1.4.5.9 2.6-1.4.5-2.4-6.6 3.2-1.2c.5-.1.8-.2 1.1-.2zM34 4l1.5-.2 3.4 4.6-.6-4.9 1.3-.2.9 7-1.5.2-3.4-4.6.6 4.9-1.4.2zM46.9 4.8l-.3 1.9 1.6.3c.3.1.6.1.8 0 .3-.1.5-.3.6-.7.1-.4 0-.7-.3-.9-.1-.1-.4-.2-.7-.2l-1.7-.4zm3.3-.5c.2.2.4.3.6.6l.3.6c.1.2.1.5 0 .8s-.2.6-.4.9c-.2.3-.5.5-.9.5.3.2.5.4.6.7.1.3.1.6 0 1.1l-.1.5c0 .3-.1.5-.1.7s.1.3.2.4v.2l-1.6-.3v-1l.1-.6c.1-.4 0-.8-.1-.9-.1-.2-.4-.3-.8-.4l-1.5-.2-.4 2.7-1.4-.2 1.1-6.9 3.4.5c.4 0 .7.1 1 .3zM56.8 12.1c.5-.2.9-.7 1.3-1.4.3-.7.5-1.3.3-1.9-.1-.5-.4-.9-1-1.2-.5-.3-1-.3-1.5 0-.5.2-.9.7-1.3 1.4-.3.7-.5 1.3-.3 1.9.1.5.4.9 1 1.2.5.2 1 .2 1.5 0zm.4 1.3c-.7.3-1.5.2-2.4-.3-.9-.4-1.5-1-1.7-1.7-.3-.9-.2-1.9.3-3.1.6-1.2 1.3-1.9 2.2-2.1.7-.3 1.5-.2 2.4.3.9.4 1.5 1 1.7 1.7.4.9.2 1.9-.3 3.1-.6 1.1-1.3 1.8-2.2 2.1zM66.7 12l1.2 1-6.3 4-1.1-.8 2.5-7 1.2.9-2 5.2zM72 19.2l-2.5-2.7-1.1 1 2.2 2.5-.9.8-2.2-2.5-1.4 1.2 2.6 2.9-.9.8-3.6-3.9 5.2-4.7 3.5 3.8zM74.6 23.3l-1.7.8.7 1.5c.1.3.3.5.4.6.2.2.6.2.9 0 .4-.2.6-.4.6-.8 0-.2-.1-.4-.2-.7l-.7-1.4zm2.3 2.4c0 .3 0 .6-.1.8-.1.2-.2.4-.4.6-.2.2-.4.3-.6.4-.3.1-.6.2-1 .2s-.7-.2-1-.5c0 .3 0 .6-.2.9-.2.2-.5.4-.9.7l-.4.2c-.3.1-.5.2-.6.3-.1.1-.2.3-.2.4l-.2.1-.7-1.5.3-.3c.2-.1.3-.2.5-.3l.6-.3c.4-.2.6-.4.7-.6s0-.5-.2-.9l-.7-1.4-2.5 1.2-.6-1.3 6.3-3.1 1.5 3.1c.3.6.4 1 .4 1.3zM74.2 31.6c-.3.1-.5.3-.6.4-.2.3-.3.7-.1 1.3.1.3.2.6.3.8.2.4.6.5.9.4.2-.1.4-.2.4-.4.1-.2.1-.6.1-1v-.8c0-.8 0-1.3.2-1.6.2-.5.6-.9 1.3-1.1.6-.2 1.2-.1 1.7.3.5.3.9.9 1.1 1.8.2.7.1 1.4-.1 2-.3.6-.7 1-1.5 1.2l-.3-1.4c.4-.1.7-.4.7-.8.1-.3 0-.5 0-.9-.1-.4-.2-.6-.4-.8-.2-.2-.4-.2-.7-.2-.2.1-.4.2-.5.5 0 .2-.1.5-.1 1v1.2c0 .5-.1 1-.2 1.3-.2.5-.6.8-1.2 1s-1.2 0-1.7-.3c-.5-.4-.9-1-1.1-1.9s-.2-1.6.1-2.2c.3-.6.8-1 1.5-1.2l.2 1.4zM80.6 43l-.3 4.9H79l.3-3.6-1.6-.1-.3 3.1-1.2-.1.2-3.1-2.9-.2.1-1.4zM74.5 47.3l-.2 1.4-1.4-.2.2-1.4zM78.2 53.1c.3.7.3 1.5 0 2.4-.4 1.1-1.1 1.8-2.1 2-.5.1-1 .1-1.4 0l.6-1.4c.3 0 .6 0 .8-.1.4-.1.7-.4.9-.9.2-.5.2-1-.1-1.4-.3-.4-.8-.8-1.5-1.1-.7-.3-1.3-.4-1.8-.2s-.8.5-1 .9c-.2.5-.2.9 0 1.3.1.2.3.4.6.7l-.5 1.3c-.7-.4-1.1-.9-1.4-1.6-.2-.7-.2-1.4.1-2.1.4-.9 1-1.6 1.8-1.8.8-.3 1.8-.2 2.8.2 1 .3 1.8.9 2.2 1.8zM71.1 57.2l-.8 1.3-1.2-.8.8-1.2zM16.1 70.3h1v-5.9h-.7c-.1.7-.6 1-1.6 1.1v.7h1.3v4.1zM19.5 67.1c-.6.1-.9.6-.9 1.5 0 1.2.5 1.7 1.6 1.7s1.6-.6 1.6-1.8c0-.9-.2-1.3-.9-1.4.5-.2.8-.6.8-1.2 0-1-.5-1.5-1.5-1.5s-1.5.5-1.5 1.4c.1.7.3 1.2.8 1.3zm.8.4c.4 0 .5.3.5 1s-.1 1-.5 1-.5-.3-.5-.9c-.1-.8 0-1.1.5-1.1zm-.5-1.5c0-.5.1-.8.5-.8s.5.2.5.8c0 .5-.1.8-.5.8-.4-.1-.5-.3-.5-.8zM63.1 70.3h1.1c.1-1.8.6-3.5 1.4-4.9v-.8h-3.2v1h2.2c-.9 1.7-1.3 3.3-1.5 4.7zM66.3 68.4v.1c0 1.2.5 1.8 1.6 1.8 1.2 0 1.7-.7 1.7-2.2 0-1.3-.5-1.9-1.5-1.9-.3 0-.6.1-.8.3l.1-1.2h2v-.9h-2.8l-.2 3.1h.9c0-.3.2-.5.5-.5.5 0 .6.4.6 1.2 0 .9-.2 1.3-.6 1.3s-.6-.3-.6-1v-.2h-.9v.1z"/><path class="st0" d="M.4 75.4h83.7v11.9H.4z"/><path style="fill:#fff;stroke:#000;stroke-width:.4073;stroke-linecap:round;stroke-linejoin:round;stroke-miterlimit:3.8637" d="M1.9 77h80.6v8.7H1.9z"/><path d="M4.3 83.7h.9l.7-1.5h2.6l.7 1.5h1l-2.5-5.1h-1l-2.4 5.1zm1.9-2.1 1-2.2 1 2.2h-2zM10.9 78.6v5.1h.9v-2.2h1.5c1.1 0 1.4.1 1.5.8l.1.7c0 .3 0 .5.2.7h1v-.1c-.2-.1-.3-.3-.3-.6l-.1-.8c0-.5-.2-.8-.8-.9.6-.2.9-.6.9-1.2s-.3-1-.9-1.2c-.4-.2-.9-.2-1.4-.2l-2.6-.1zm.9.6h1.5c1 0 1.5.1 1.5.8 0 .7-.5.9-1.5.9h-1.5v-1.7zM18.5 83.7h.9v-4.5h2.1v-.6h-5.1v.6h2.1zM22.3 83.7h4.8V83h-3.9v-1.6h3.5v-.6h-3.5v-1.6H27v-.6h-4.7zM30.7 83.7h4.8V83h-3.9v-1.6h3.6v-.6h-3.6v-1.6h3.9v-.6h-4.8zM38.1 83.7h.9v-4.5h2.1v-.6H36v.6h2.1zM44.4 83.7h4.2V83h-3.3v-4.4h-.9zM48.6 83.7h.9l.7-1.5h2.6l.7 1.5h1L52 78.6h-1l-2.4 5.1zm1.9-2.1 1-2.2 1 2.2h-2zM56.1 83.1v-1.8h1.7c1 0 1.5.3 1.5.9s-.5.9-1.4.9h-1.8zm0-2.4v-1.5h1.7c.9 0 1.3.2 1.3.8 0 .6-.4.8-1.4.8l-1.6-.1zm-.9 3H58c1.4 0 2.2-.6 2.2-1.5 0-.7-.5-1.1-1.3-1.2.6-.2 1-.6 1-1.1 0-.8-.7-1.2-2.1-1.2h-2.7v5h.1zM61.2 81.2c0 1.7 1.2 2.7 3.1 2.7s3.1-1 3.1-2.7-1.2-2.7-3.1-2.7-3.1 1-3.1 2.7zm.9 0c0-1.3.8-2.1 2.2-2.1 1.4 0 2.2.8 2.2 2.1s-.8 2.1-2.2 2.1c-1.3-.1-2.2-.8-2.2-2.1zM68.6 78.6v5.1h.9v-2.2H71c1.1 0 1.4.1 1.5.8l.1.7c0 .3 0 .5.2.7h1v-.1c-.2-.1-.3-.3-.3-.6l-.1-.8c0-.5-.2-.8-.8-.9.6-.2.9-.6.9-1.2s-.3-1-.9-1.2c-.4-.2-.9-.2-1.4-.2l-2.6-.1zm.9.6H71c1 0 1.5.1 1.5.8 0 .7-.5.9-1.5.9h-1.5v-1.7zM74.7 83.7h4.8V83h-3.9v-1.6h3.6v-.6h-3.6v-1.6h3.9v-.6h-4.8z"/><path class="st8" d="M45.4 47.6c1.4 3.2 2.4 6.7 4.3 9.6.4-2.5-.8-4.9-1-7.3-.4-7.6 5.8-6.9 8.4-12.3 2.8 2.3 5.3-.6 7.1-.6.7 0 1.2.6 1.9.6 0 2.6-.4 3.7-1.4 6.1h1.1c3.7 2.2-1.5 5-3.3 6.2.3.8 2 .3 2 1.2 0 .9-.8 1.5-1.4 2-6.7 6.3-9.7.1-11.7 3.1-.4.7-.3 1.5-.7 2.2.3 3 .5 6.1.4 9.1-1.5 0-3.1 1.2-4.6 1.6.4-.8 0-4.7-.1-5.7.6 0 1.3 0 2-.1.4-1.8.1-3.3-.5-5.1-.9.7-1.2 1.6-2.2 2.3.3 1.3-.2 3.5-1.2 4.5-.1-1-1-1.6-1-2.6-.4 2.7-1.2 4.2-3.9 5.6-.6-.4-1.2-1-1.6-1.6v-.3c-.8 0-3.2 1.3-3.8 1.8-1.5-2.3-1.3-3.7-1.6-6.3-.1-.6-1.9-.4-2.3-.5 1.4-1.2 1.3-1.8 3.4-2.7-.8-.5-1.2-1.4-1.7-2.1 7.3 0 5.9-4.9 13.7-2.5-.8-1.2-1.9-1.6-3.1-2.2.8-.8 2-.7 1.2-2.2l1.6-1.8h0z"/><path class="st8" d="M41.7 49.6c-.3-.8-2-1.5-2.7-1.2-1.8.6-8.4-5.4-8.8-5.4-2.5 3.9-6.5 2.7-8.3 3.9 1.2 1.5 2.6 3.5 1.2 5 1.1.6 3.6.7 3.3 3.9 2.3 0 11-1.1 12.3-3.3.7-1.2 3-1.2 3-2.9h0z"/><path d="M47.2 39.1c.9 1.3 8.1 4.1 10 4.1-4.9 2.1-10.2 1.3-10.7 1.3-.2 0 .1 4.5-5.8 7.1 0 0 .6-3.9-.7-5.7-2.9 4.7-10.5 4.8-10.5 4.8 5.7-3.3 5.5-5.7 5.7-6.5 6.2-3.7 12-5.1 12-5.1z" style="fill:#00a651;stroke:#000;stroke-width:.4073;stroke-miterlimit:3.8637"/><path d="M51.5 28.6c.5.1.5 1.1.5 1.7 0 2-.9 2.9-1.7 4.8-.3.9-.7 1.4-1.2 2.2-.5.9-1 1.6-2.1 1.8-3.5.7-5.2 2.2-8.2 3.7-.8.4-1.3.8-2.1 1.2h-3.9c-1 0-1.6-.1-2.5-.3-.7-.1-1.2-.5-1.2-1.2 0-.8 0-1.3.3-2-1.5 0-5.7-1.3-6.4-2.6-1.8-2.8-2.5-6.7-2.4-10 .7-.1 3.2.9 4 1-.1-.6-.1-1.2-.1-2 0-.7-.3-1.8.4-1.8 1 0 1.7.3 2.6.7-.1-.4-.3-.7-.5-1.1 0 0 0-.1-.1-.1-.3-.7-1-.8-1-1.5 0-.6.3-1.1.7-1.4l-.1-2.7c1-.3 3 2.4 4.4 2.4.1 0 3.2-3 3.8-3.5.6-.5 1.6 2.6 2.6 3.8.2-.2-.3-2-.4-2.3 0 0 2.1 1.3 2.9 2.2 1.3-1.3 1-3.2 3-4.5.8-.5 1.1-1.5 2.2-.7 0 2.1.2 4.2.7 6.2.5-.1.5-.4 1.2-.3 0 2.2.1 5 2.2 6.3h2.4z" style="fill:#ed1c24;stroke:#000;stroke-width:.4073;stroke-miterlimit:3.8637"/><path class="st11" d="M40.9 29.5c-.1-1.5-.5-2.3-1.1-3.7-.3-.6-.7-.8-1-1.4-.4-1.1-.7-1.7-1.3-2.6M31.3 39.2c6.8.8 10.3-3.2 10.7-5.7 0 0 .4-1.9-.2-3"/><path class="st11" d="M30.9 39.2c7.5.9 11.3-2.9 11.9-4.5.2-.7.8-1.4 1.2-2.1.3-.7.9-1.1 1.4-1.6 2.2-2.4 2.8-2.6 6.1-2.3"/><path class="st11" d="M30.8 39.2c-.7 0-1 .7-1.2 1.3-.3.7-.5 1.2-.5 2 0 .7.5 1.2 1.2 1.2 1 .1 1.6.3 2.5.3h3.9c.8-.3 1.3-.7 2.1-1.2 3.1-1.5 4.8-3.1 8.2-3.7 1.1-.2 1.6-1 2.1-1.8.5-.7.8-1.3 1.2-2.2.8-1.9 1.7-2.8 1.7-4.8 0-.5 0-1.6-.5-1.7"/><path class="st11" d="M30.7 36c.5-.6.5-1.1.5-1.8 0-1.7-.6-2.6-.6-4.3 0-.7-.1-1.4.3-1.8s1-.4 1.6-.4c2 0 3.1.2 5 .7 1 .3 1.5.8 2.4 1.2.7.3 2-.2 2 .6 0 .3-.5.5-.7.5-.5.1-.9.3-1.5.3-2.4 0-3.5-1.6-5.9-1.6-.7 0-.7 1.2-.7 1.9l.2 2.6c0 1.5-.1 2.5-.9 3.7-.5.7-.7 1.4-1.6 1.6l-.3-.1v-.2"/><path class="st11" d="M30.6 39.2c.3-.7.2-1.1.2-1.8 0-1.4-.3-2.3-1-3.5-.3-.7-1-.9-1.2-1.6-.3-1-.3-1.6-.5-2.6-.3-1.4 0-2.2-.5-3.7-.1-.5-.3-.9-.5-1.4 0 0 0-.1-.1-.1-.3-.7-1-.8-1-1.5 0-.8.6-1.6 1.4-1.6 1 0 1.5.5 2.4.9.7.3 1.2.5 2 .6 1.2.3 1.8.8 2.8 1.2.5.2 1 .3 1.4.7 1 1 .7 2 1.4 3.4"/><path class="st11" d="m26.8 21.7-.1-2.7c1-.3 3 2.4 4.4 2.4.1 0 3.2-3 3.8-3.5.6-.5 1.6 2.6 2.6 3.8.2-.2-.3-2-.4-2.3 0 0 2.1 1.3 2.9 2.2.8 1.6 1.5 2.1 2.3 3.5.2.4.7.6.9 1 .8 1.5.3 2.6 1 4.3V32"/><path class="st11" d="M35.6 27.8c-.5-1.6-1.7-1.9-3.1-2.6-.5-.3-1-.6-1.7-.6s-1 .9-1.1 1.6v1.2c.3.9.2 1.6.8 2.2M27.6 26c-1.1-.3-1.6-.9-2.6-.9-.7 0-.4 1.1-.4 1.8 0 1.7.1 2.6.7 4.3.3 1.2.9 1.6 1.4 2.6"/><path class="st11" d="M24.7 29c-.6.1-3.3-1.2-4.1-1.1-.1 3.2.6 7.2 2.4 10 .8 1.2 4.9 2.6 6.4 2.6M49.4 28.6c-2.2-1.2-2.3-4.2-2.3-6.4-.7-.1-.7.2-1.2.3-.5-2-.7-4.1-.7-6.2-1.2-.8-1.4.2-2.2.7-2.1 1.4-1.8 3.2-3.1 4.5"/><path class="st6" d="M39.1 32.1c-1-.4-1.8-.6-2.9-.6-1.2 0-1.8 1.2-2 2.4v1.4c1-1.3 1-3.2 2.6-3.2.9-.1 1.5.2 2.3 0z"/><path class="st12" d="m44.8 36.2 1.8 1.9M43.6 37.1l1.4 1.6M42.3 38.1l.6.9M48.7 30.4l2.5.1M48.5 31.4l2 .3M43.3 45.1l-1 4.1"/><path class="st13" d="M47 56.5c-.1-.1-.1-.5-.4-.5-1.6 0-2.3 1-3.9 1-1.5 0-2.2-1.1-3.7-1.3.7.3 1.2.6 1.8 1 .4.2 1 .3 1 .8 0 .9-1 1.3-1.9 1.3-1.5 0-2.4-.1-3.9-.5.7.4 1.2.6 2 .6.7 0 1.8-.2 1.8.5 0 .6-.6.9-1 1.4-1.1 1.6-2 2.4-2.9 4.1.4-.7.8-1 1.4-1.5 1.4-1.2 1.8-2.3 3.2-3.5 0 .3-.1.5-.1.9 0 .6.2.9.2 1.5 0 .5-.1.7-.1 1.2.1-.2.3-.5.4-.7v-2.5c.2-1.2 1-1.6 2.2-2.3l-.2 3.5c.4-1.4.1-2.4.8-3.5.7-1.1 2.2-.8 3.3-1.5h0zM52.8 49.2c0-1.4.1-2-.2-3.4l.5 1.9v2.4c.1 0 .2.1.3.1.8 0 .8-1 1.3-1.6.7-.9 1.3-1.4 1.8-2.3.5-.8.1-1.6.3-2.5v1.6c1.1-.3 1.3-1.3 2.2-1.9 1.5-1 2.4-1.6 3.6-3.1-.7.9-1 1.6-1.8 2.5-1.1 1.2-2.2 1.6-3.1 3.1.5.1.9 0 1.4 0 1.8 0 2.9-.7 4.7-.7H63c-.5 0-.7.3-1.2.5-1.4.7-2.3 1.1-3.9.8-.8-.1-1.4.9-1.7 1.6-.4 1-.7 1.5-1.6 2.1.3.1.3.1.6.1 1.3 0 2-.2 3.3-.7h2.7c-2.1.7-3.2.5-5.3 1.1-1.6.4-3.1.7-3.4 2.4-.1.8-.3 1.3-.8 1.9-.2.3-.7.6-1 .4s.1-.9.3-1.3c1.1-1.8 1.8-2.9 1.8-5h0z"/><path d="M30.2 52.1c.2.1.5.2.7.2 1.5 0 2.4-.3 3.9-.4 1.8-.1 3.3-.5 4.1-2.1.1-.3.4-.6.3-.9-.3-.5-.9.3-1.4.5-1 .5-1.5.7-2.4 1.2-1.8 1.1-3.1 1.5-5.2 1.5h0z" style="stroke:#000;stroke-width:.1358;stroke-linecap:round;stroke-linejoin:round;stroke-miterlimit:3.8637"/></svg>