<svg version="1.1" id="Layer_1" xmlns="http://www.w3.org/2000/svg" xmlns:xlink="http://www.w3.org/1999/xlink" x="0" y="0" viewBox="0 0 182.3 196.7" style="enable-background:new 0 0 182.3 196.7" xml:space="preserve"><style>.st0{fill:#ef3e33}.st3{fill:#003976}.st4{fill:#8f2e29}.st6{fill:#fff}</style><path class="st0" d="M178.8 124c-.6 1.4-2.9 16.4-2.9 16.6l6.4 11.4c-19.6 1.1-45 25-77.1 42.1 0 0-1.8-17.8-1.7-19 0-.4 7.1-1.1 7.1-1.5 26.6-17.3 36.2-36.7 68.2-49.6z"/><defs><path id="SVGID_1_" d="M178.8 124c-.6 1.4-2.9 16.4-2.9 16.6l6.4 11.4c-19.6 1.1-45 25-77.1 42.1 0 0-1.8-17.8-1.7-19 0-.4 7.1-1.1 7.1-1.5 26.6-17.3 36.2-36.7 68.2-49.6z"/></defs><clipPath id="SVGID_2_"><use xlink:href="#SVGID_1_" style="overflow:visible"/></clipPath><path d="m155.6 129.2 5.3 29c-15.5 7.2-30 21.1-47.5 26.2.4-.4-1.8-3.5-1.4-4.1 1-1.5 1.2-2.8 1.2-4 0-.5.1-1.1.1-1.7.1-.5.1-1.1.3-1.7.2-.6.5-1.1.7-1.6.3-.5.6-1 .9-1.4.6-1 1.3-2.2 1.3-4 0-1.3-.2-2.4-.6-3.2.4-.3.7-.5 1-.8.9-.7 2-2 1.6-3.5-.5-1.5-2.1-1.9-3.3-1.9h-1.3c-.1-.3-.1-.6-.2-1 18.3-4.8 32.4-15.9 41.9-26.3z" style="clip-path:url(#SVGID_2_);fill:#ce3931"/><path class="st0" d="M3.5 124c.6 1.4 2.9 16.4 2.9 16.6L0 152c19.6 1.1 45 25 77.1 42.1 0 0 1.8-17.8 1.7-19 0-.4-7.1-1.1-7.1-1.5-26.6-17.3-36.2-36.7-68.2-49.6z"/><defs><path id="SVGID_3_" d="M3.5 124c.6 1.4 2.9 16.4 2.9 16.6L0 152c19.6 1.1 45 25 77.1 42.1 0 0 1.8-17.8 1.7-19 0-.4-7.1-1.1-7.1-1.5-26.6-17.3-36.2-36.7-68.2-49.6z"/></defs><clipPath id="SVGID_4_"><use xlink:href="#SVGID_3_" style="overflow:visible"/></clipPath><path d="m26.7 129.2-5.3 29c15.5 7.2 30 21.1 47.5 26.2-.4-.4 1.8-3.5 1.4-4.1-1-1.5-1.2-2.8-1.2-4 0-.5-.1-1.1-.1-1.7-.1-.5-.1-1.1-.3-1.7-.2-.6-.5-1.1-.7-1.6-.3-.5-.6-1-.9-1.4-.6-1-1.3-2.2-1.3-4 0-1.3.2-2.4.6-3.2-.4-.3-.7-.5-1-.8-.9-.7-2-2-1.6-3.5.5-1.5 2.1-1.9 3.3-1.9h1.3c.1-.3.1-.6.2-1-18.3-4.8-32.4-15.9-41.9-26.3z" style="clip-path:url(#SVGID_4_);fill:#ce3931"/><path class="st3" d="M165.9 96.1c-.8 3.4-1.9 6.6-3.2 9.8h-58.2v36.6c11.4-2.3 21.7-7.5 30.1-14.8h14.8c-13.4 15.5-32.9 25.6-54.8 26.6V99.7c0-1.9 1.6-3.5 3.5-3.5h67.8v-.1zm-128 21h49.7v9.8H46.9c10.9 9.7 25.1 15.9 40.7 16.7v10.5c-34.5-1.5-63.1-25.8-71.3-58.2H84c1.9 0 3.5 1.6 3.5 3.5v6.3H31.1c1.9 4.1 4.2 7.9 6.8 11.4zM108 72.2c0 1.9 1.6 3.5 3.5 3.5h13V7.5c4.7 2.3 9.2 5 13.3 8.1v56.7c.1 1.9 1.6 3.4 3.5 3.4h12.6c-.1-6.3-1.2-12.4-3.1-18.2V28.1c10.9 13.3 17.5 30.4 17.5 49 0 4.1-.3 8-.9 11.9H98.2c-1.9 0-3.5-1.6-3.5-3.5V0c4.6.2 9 .8 13.3 1.8v70.4zM70.8 43.4c1.9 0 3.5-1.6 3.5-3.5V16.2c-15.4 4.2-28.5 14-36.9 27.2h33.4zm0 32.3c1.9 0 3.5-1.6 3.5-3.5V60.3c0-1.9-1.6-3.5-3.5-3.5H31c-2 6-3.2 12.3-3.4 18.9h43.2zm16.8 9.8c0 1.9-1.6 3.5-3.5 3.5H15c-.6-3.9-.9-7.9-.9-11.9C14.1 36.8 44.9 3.8 84.2.2h.1c1.9.1 3.4 1.6 3.4 3.5l-.1 81.8z"/><path class="st4" d="m73.9 173.7 4.8 3.3c0 .1-.8 14.5-1.5 17.1-9.5-5.8-53-37.5-53-37.6-.1-.1 41.9 11.7 49.7 17.2zM103.7 177c0 .1.8 14.5 1.5 17.1 9.5-5.8 52.9-37.5 53-37.6 0-.1-54.5 20.5-54.5 20.5z"/><path class="st0" d="m152.8 127.5 5.3 29c-20.5 9.6-43.9 26.1-67 26.1s-46.5-16.6-67-26.1l5.4-29c12.6 14 33.7 29.1 61.7 29.1s49-15.1 61.6-29.1z"/><defs><path id="SVGID_5_" d="m152.8 127.5 5.3 29c-20.5 9.6-43.9 26.1-67 26.1s-46.5-16.6-67-26.1l5.4-29c12.6 14 33.7 29.1 61.7 29.1s49-15.1 61.6-29.1z"/></defs><clipPath id="SVGID_6_"><use xlink:href="#SVGID_5_" style="overflow:visible"/></clipPath><path d="M71.6 151.3c1.3-1.6 2.7-2.3 3.9-2.7l1.5-.6c.4-.2.9-.4 1.3-.7.4-.3.7-.6 1.1-1 .4-.4.7-.9 1-1.2.8-1 1.9-2.1 3.8-2.8 1-.4 2-.5 2.9-.5l.2-.4c.4-1.1 1.5-3.3 3.9-3.2 2.3 0 3.4 2.2 3.8 3.2l.2.4c.9 0 1.9.1 2.9.5 1.9.7 3 1.8 3.8 2.8.3.4.7.8 1 1.2s.7.7 1.1 1c.4.3.9.5 1.3.7l1.5.6c1.2.5 2.6 1.1 3.9 2.7.7.9 1.1 1.7 1.4 2.6h.5c1.1.1 3.6.4 4.3 2.7.7 2.2-1 3.9-1.9 4.6l-.4.3c.3.9.4 1.8.4 2.9-.1 2-.8 3.4-1.5 4.5-.3.4-.6.9-.9 1.4-.2.4-.5.8-.6 1.4-.2.5-.2 1-.3 1.4-.1.6-.1 1.1-.1 1.6-.1 1.3-.3 2.8-1.4 4.5-.6.9-1.3 1.6-2.1 2.1l.1.4c.3 1.1.7 3.5-1.2 4.9s-4 .2-5-.4l-.4-.2c-.7.6-1.6 1-2.7 1.3-2 .6-3.5.3-4.7 0-.5-.1-1-.3-1.6-.4-.5-.1-.9-.2-1.5-.2-.5 0-1 .1-1.4.2-.6.1-1.1.3-1.6.4-1.2.3-2.8.6-4.7 0-1-.3-1.9-.7-2.7-1.3l-.4.2c-1 .6-3.1 1.8-5 .3-1.9-1.4-1.5-3.8-1.2-4.8l.1-.4c-.8-.5-1.4-1.2-2.1-2.1-1.1-1.7-1.3-3.3-1.4-4.5 0-.5-.1-1-.1-1.6 0-.5-.1-1-.3-1.5s-.4-.9-.6-1.3c-.3-.5-.6-.9-.9-1.4-.7-1.1-1.4-2.5-1.5-4.5 0-1.1.1-2.1.4-2.9l-.4-.3c-.9-.7-2.6-2.4-1.9-4.7.7-2.2 3.1-2.5 4.2-2.6h.5c.4-.9.9-1.8 1.5-2.6z" style="clip-path:url(#SVGID_6_);fill:#ce3931"/><path class="st6" d="M71.1 154.9c.2-1 .6-2 1.4-3 1.1-1.4 2.3-2 3.4-2.4.5-.2 1-.4 1.6-.6.5-.2 1-.5 1.5-.9s.9-.8 1.2-1.1c.4-.4.7-.9 1.1-1.3.8-.9 1.7-1.9 3.3-2.5 1.2-.4 2.3-.5 3.3-.4.1-.4.3-.8.4-1.2.4-1.1 1.3-2.6 2.8-2.5 1.6 0 2.4 1.5 2.8 2.5.1.3.3.7.4 1.2 1-.1 2.1-.1 3.3.4 1.6.6 2.6 1.6 3.3 2.5.3.4.7.8 1.1 1.3.4.4.8.8 1.3 1.2s1 .6 1.5.8c.5.2 1.1.4 1.6.6 1.1.4 2.3 1 3.4 2.4.8 1 1.2 2 1.4 3h1.3c1.2.1 2.8.4 3.3 1.9s-.7 2.7-1.6 3.5c-.3.2-.6.5-1 .8.4.9.7 2 .6 3.2-.1 1.7-.7 2.9-1.3 4-.3.4-.6.9-.9 1.4-.3.5-.5 1-.7 1.6s-.3 1.2-.3 1.7c-.1.6-.1 1.1-.1 1.7-.1 1.2-.3 2.5-1.2 4-.7 1.1-1.6 1.8-2.4 2.2.1.4.3.9.4 1.2.3 1.1.5 2.8-.8 3.7s-2.8.2-3.8-.4c-.3-.2-.7-.4-1-.7-.7.7-1.7 1.3-2.9 1.6-1.7.5-3 .2-4.2-.1-.5-.1-1-.3-1.6-.4-.5-.1-1.1-.2-1.7-.2-.6 0-1.2.1-1.7.2-.6.1-1.1.3-1.6.4-1.2.3-2.5.5-4.2.1-1.2-.4-2.2-.9-2.9-1.6-.4.3-.7.5-1 .7-1 .6-2.5 1.3-3.8.4s-1.1-2.6-.8-3.7c.1-.3.2-.8.4-1.2-.9-.5-1.7-1.2-2.4-2.2-1-1.5-1.2-2.8-1.2-4 0-.5-.1-1.1-.1-1.7-.1-.5-.2-1.1-.3-1.7-.2-.6-.5-1.1-.7-1.5-.3-.5-.6-1-.9-1.4-.6-1-1.3-2.2-1.3-4 0-1.3.2-2.4.6-3.2-.4-.3-.7-.5-1-.8-.9-.7-2.1-2-1.5-3.5.5-1.5 2.1-1.8 3.3-1.9 0 0 .4-.1.9-.1z"/><path class="st0" d="M75.3 160.4c-.9-.3-1.5-.1-2.3.3-1.3.6-2.9-.8-3.8-1.5-.9-.7-1.2-1.3-1-1.7.1-.4.7-.7 1.9-.8s3.3-.2 4 1c.4.7.9 1.3 1.7 1.6l-.5 1.1zM107 160.4c.9-.3 1.5-.1 2.3.3 1.3.6 2.9-.8 3.8-1.5.9-.7 1.2-1.3 1-1.7-.1-.4-.7-.7-1.9-.8s-3.3-.2-4 1c-.4.7-.9 1.3-1.7 1.6l.5 1.1zM82 178.6c-.5.7-.6 1.4-.5 2.3.2 1.4-1.6 2.5-2.6 3.2-1 .6-1.6.7-2 .4-.3-.2-.5-.9-.2-2s.9-3.2 2.2-3.5c.8-.2 1.5-.4 2-1.1l1.1.7zM100.3 178.6c.5.7.6 1.4.5 2.3-.2 1.4 1.6 2.5 2.6 3.2 1 .6 1.6.7 2 .4.3-.2.5-.9.2-2s-.9-3.2-2.2-3.5c-.8-.2-1.5-.4-2-1.1l-1.1.7zM90.5 148.4c0-.9-.4-1.5-1-2.1-.9-1-.2-3 .3-4.1.4-1.1.9-1.5 1.3-1.5s.9.4 1.3 1.5 1.2 3.1.3 4.1c-.6.6-.9 1.2-1 2.1h-1.2z"/><path class="st0" d="M74.1 159.3s-4.2.6-4 5c.1 2.7 1.9 3.6 2.9 6.5.9 2.9 0 4.7 1.5 6.9 2.5 3.7 6.2 1.7 6.2 1.7s-.7 4.2 3.5 5.4c2.6.7 4-.7 7.1-.7 3.1 0 4.5 1.5 7.1.7 4.2-1.2 3.5-5.4 3.5-5.4s3.7 2 6.2-1.7c1.5-2.2.6-4 1.5-6.9 1-2.9 2.8-3.8 2.9-6.5.2-4.4-4-5-4-5s3-2.9.3-6.4c-1.6-2.1-3.6-1.8-6.1-3.6-2.4-1.8-2.8-3.8-5.3-4.7-4.1-1.5-6 2.3-6 2.3s-1.8-3.8-6-2.3c-2.5.9-2.8 2.9-5.3 4.7-2.5 1.8-4.5 1.5-6.1 3.6-3 3.5.1 6.4.1 6.4z"/><path class="st6" d="M81.8 161.8s.2-.6-.6-1.5c-.6-.7-.8-1.3-.7-1.9.1-.9 1.1-1.7 2.3-1.9.7-.1 1.2-.3 1.8-.8.6-.4 1-.9 1.3-1.5.5-1 1.6-1.7 2.5-1.6.5.1 1.1.5 1.5 1.3.6 1 1.2 1 1.2 1s.7 0 1.2-1c.4-.8 1-1.2 1.5-1.3.9-.2 2 .5 2.5 1.6.3.6.7 1.1 1.3 1.5.6.4 1.1.6 1.8.8 1.1.2 2.2 1 2.3 1.9.1.5-.2 1.2-.7 1.9-.8.9-.6 1.5-.6 1.5s.2.6 1.4.9c.9.2 1.4.6 1.7 1.1.4.8.1 2-.7 2.9-.5.5-.8 1-1 1.7-.2.7-.3 1.3-.2 2 .2 1.2-.3 2.4-1.1 2.7-.5.2-1.2.2-2-.1-1.1-.5-1.6-.1-1.6-.1s-.5.4-.4 1.6c.1.9-.1 1.6-.5 1.9-.6.7-1.9.7-2.9.2-.6-.3-1.2-.4-1.9-.5-.7 0-1.3.2-1.9.5-1 .5-2.3.5-2.9-.2-.4-.4-.6-1.1-.5-1.9.1-1.2-.4-1.6-.4-1.6s-.5-.4-1.6.1c-.8.3-1.5.4-2 .1-.8-.4-1.3-1.6-1.1-2.7.1-.7.1-1.3-.2-2-.2-.7-.6-1.2-1-1.7-.8-.8-1.1-2.1-.7-2.9.3-.5.8-.9 1.7-1.1 1-.3 1.2-.9 1.2-.9zm-1.5-.4s-2.7-.1-3.5 1.5c-.5 1.1-.4 2.9.9 3.8.8.6 1.2 1.2 1.5 2.1.3.9.3 1.6 0 2.6-.4 1.5.5 3.1 1.6 3.6 1.6.8 3.7-.8 3.7-.8s-.9 2.5.4 3.8c.8.8 2.7 1.2 3.9.4.8-.6 1.5-.8 2.4-.8 1 0 1.6.2 2.4.8 1.2.9 3.1.5 3.9-.4 1.3-1.3.4-3.8.4-3.8s2.1 1.7 3.7.8c1.1-.5 2-2.1 1.6-3.6-.3-.9-.3-1.6 0-2.6.3-.9.7-1.5 1.5-2.1 1.2-.9 1.4-2.8.9-3.8-.8-1.6-3.5-1.5-3.5-1.5s2.2-1.5 1.9-3.3c-.2-1.2-1.4-2.6-2.9-2.6-1 0-1.6-.2-2.4-.8-.8-.6-1.2-1.2-1.5-2.1-.5-1.4-2.2-2.2-3.4-2-1.8.3-2.5 2.9-2.5 2.9s-.7-2.6-2.5-2.9c-1.2-.2-2.9.6-3.4 2-.3.9-.7 1.5-1.5 2.1-.8.6-1.5.8-2.4.8-1.5 0-2.7 1.4-2.9 2.6-.5 1.7 1.7 3.2 1.7 3.3z"/><path class="st6" d="M93.7 164.9c0 1.4-1.1 2.5-2.5 2.5s-2.5-1.1-2.5-2.5 1.1-2.5 2.5-2.5c1.4-.1 2.5 1.1 2.5 2.5zm-7.3-1.6c-.2.6-1.2.7-1.2 1.3 0 1.1.8 1 1.1 1.8.2.7-.4 1.2.2 2.1.4.5 1.1 0 1.7.4.5.4.3 1.3.9 1.5 1 .3 1.2-.5 2-.5s1 .8 2 .5c.6-.2.4-1.1.9-1.5.6-.4 1.3.1 1.7-.4.6-.9-.1-1.3.2-2.1.2-.7 1.1-.7 1.1-1.8 0-.7-.9-.7-1.2-1.3-.2-.7.6-1.2.2-1.7-.6-.8-1.3-.3-1.9-.8-.6-.4-.3-1.2-1.3-1.6-.6-.2-.9.7-1.6.7-.7 0-1-.9-1.6-.7-1 .3-.7 1.1-1.3 1.6-.6.4-1.3-.1-1.9.8-.5.5.2 1.1 0 1.7z"/><path class="st3" d="M84 189.3c-.2.2-.5.4-1 .6s-.8.2-1.2.3v.5h1v4.5c0 .8-.3.9-1.1.9v.4h3.5v-.4c-.3 0-.7 0-.9-.4-.1-.2-.1-.4-.1-.6v-5.9l-.2.1zM89.2 192.7c.3-.2 1.1-.6 1.1-1.6s-.8-1.8-2-1.8c-1.1 0-2.1.7-2.1 1.8 0 1 .8 1.5 1.2 1.8-.4.2-.9.3-1.2.9-.2.2-.2.6-.2.9 0 1 .9 1.9 2.3 1.9 1.3 0 2.3-.8 2.3-1.9 0-1-.8-1.5-1.4-2zm-.6-.3c-.4-.2-1.3-.8-1.3-1.6 0-.5.3-1 .9-1 .6 0 1 .6 1 1.2 0 .7-.4 1.2-.6 1.4zm-.7 1c.6.3 1.4.8 1.4 1.7 0 .5-.3 1.1-1.1 1.1-.7 0-1.1-.6-1.1-1.2 0-.3.1-.6.2-.8.3-.5.4-.7.6-.8zM91 191.6h.5c.2-.7.4-1 1.2-1h1.9l-2.2 4.1c-.5.9-.6 1.2-.6 1.5 0 .4.3.5.6.5.4 0 .6-.3.7-.8.1-.2.4-1 .5-1.2.3-.8.8-2 1.1-2.8l1-2.4h-3.6s-.1-.1-.1-.2h-.4l-.6 2.3zM96 191.6h.5c.2-.7.4-1 1.2-1h1.9l-2.2 4.1c-.5.9-.6 1.2-.6 1.5 0 .4.3.5.6.5.4 0 .6-.3.7-.8.1-.2.4-1 .5-1.2.3-.8.8-2 1.1-2.8l1-2.4h-3.6s-.1-.1-.1-.2h-.4l-.6 2.3z"/></svg>