<?xml version="1.0" encoding="utf-8"?>
<!-- Generator: Adobe Illustrator 19.2.1, SVG Export Plug-In . SVG Version: 6.00 Build 0)  -->
<!DOCTYPE svg PUBLIC "-//W3C//DTD SVG 1.1//EN" "http://www.w3.org/Graphics/SVG/1.1/DTD/svg11.dtd">
<svg version="1.1" id="Layer_1" xmlns="http://www.w3.org/2000/svg" xmlns:xlink="http://www.w3.org/1999/xlink" x="0px" y="0px"
	 viewBox="0 0 182.3 196.7" style="enable-background:new 0 0 182.3 196.7;" xml:space="preserve">
<style type="text/css">
	.st0{fill:#EF3E33;}
	.st1{clip-path:url(#SVGID_2_);fill:#CE3931;}
	.st2{clip-path:url(#SVGID_4_);fill:#CE3931;}
	.st3{fill:#003976;}
	.st4{fill:#8F2E29;}
	.st5{clip-path:url(#SVGID_6_);fill:#CE3931;}
	.st6{fill:#FFFFFF;}
</style>
<g>
	<path class="st0" d="M178.8,124c-0.6,1.4-2.9,16.4-2.9,16.6l6.4,11.4c-19.6,1.1-45,25-77.1,42.1c0,0-1.8-17.8-1.7-19
		c0-0.4,7.1-1.1,7.1-1.5C137.2,156.3,146.8,136.9,178.8,124L178.8,124z"/>
	<g>
		<g>
			<defs>
				<path id="SVGID_1_" d="M178.8,124c-0.6,1.4-2.9,16.4-2.9,16.6l6.4,11.4c-19.6,1.1-45,25-77.1,42.1c0,0-1.8-17.8-1.7-19
					c0-0.4,7.1-1.1,7.1-1.5C137.2,156.3,146.8,136.9,178.8,124L178.8,124z"/>
			</defs>
			<clipPath id="SVGID_2_">
				<use xlink:href="#SVGID_1_"  style="overflow:visible;"/>
			</clipPath>
			<path class="st1" d="M155.6,129.2l5.3,29c-15.5,7.2-30,21.1-47.5,26.2c0.4-0.4-1.8-3.5-1.4-4.1c1-1.5,1.2-2.8,1.2-4
				c0-0.5,0.1-1.1,0.1-1.7c0.1-0.5,0.1-1.1,0.3-1.7c0.2-0.6,0.5-1.1,0.7-1.6c0.3-0.5,0.6-1,0.9-1.4c0.6-1,1.3-2.2,1.3-4
				c0-1.3-0.2-2.4-0.6-3.2c0.4-0.3,0.7-0.5,1-0.8c0.9-0.7,2-2,1.6-3.5c-0.5-1.5-2.1-1.9-3.3-1.9c-0.4,0-0.8,0-1.3,0
				c-0.1-0.3-0.1-0.6-0.2-1C132,150.7,146.1,139.6,155.6,129.2L155.6,129.2z"/>
		</g>
	</g>
	<path class="st0" d="M3.5,124c0.6,1.4,2.9,16.4,2.9,16.6L0,152c19.6,1.1,45,25,77.1,42.1c0,0,1.8-17.8,1.7-19
		c0-0.4-7.1-1.1-7.1-1.5C45.1,156.3,35.5,136.9,3.5,124L3.5,124z"/>
	<g>
		<g>
			<defs>
				<path id="SVGID_3_" d="M3.5,124c0.6,1.4,2.9,16.4,2.9,16.6L0,152c19.6,1.1,45,25,77.1,42.1c0,0,1.8-17.8,1.7-19
					c0-0.4-7.1-1.1-7.1-1.5C45.1,156.3,35.5,136.9,3.5,124L3.5,124z"/>
			</defs>
			<clipPath id="SVGID_4_">
				<use xlink:href="#SVGID_3_"  style="overflow:visible;"/>
			</clipPath>
			<path class="st2" d="M26.7,129.2l-5.3,29c15.5,7.2,30,21.1,47.5,26.2c-0.4-0.4,1.8-3.5,1.4-4.1c-1-1.5-1.2-2.8-1.2-4
				c0-0.5-0.1-1.1-0.1-1.7c-0.1-0.5-0.1-1.1-0.3-1.7c-0.2-0.6-0.5-1.1-0.7-1.6c-0.3-0.5-0.6-1-0.9-1.4c-0.6-1-1.3-2.2-1.3-4
				c0-1.3,0.2-2.4,0.6-3.2c-0.4-0.3-0.7-0.5-1-0.8c-0.9-0.7-2-2-1.6-3.5c0.5-1.5,2.1-1.9,3.3-1.9c0.4,0,0.8,0,1.3,0
				c0.1-0.3,0.1-0.6,0.2-1C50.3,150.7,36.2,139.6,26.7,129.2L26.7,129.2z"/>
		</g>
	</g>
	<path class="st3" d="M165.9,96.1c-0.8,3.4-1.9,6.6-3.2,9.8h-58.2v36.6c11.4-2.3,21.7-7.5,30.1-14.8h14.8
		c-13.4,15.5-32.9,25.6-54.8,26.6V99.7c0-1.9,1.6-3.5,3.5-3.5h67.8V96.1z M37.9,117.1h49.7v9.8H46.9c10.9,9.7,25.1,15.9,40.7,16.7
		v10.5c-34.5-1.5-63.1-25.8-71.3-58.2H84c1.9,0,3.5,1.6,3.5,3.5v6.3H31.1C33,109.8,35.3,113.6,37.9,117.1L37.9,117.1z M108,72.2
		c0,1.9,1.6,3.5,3.5,3.5h13V7.5c4.7,2.3,9.2,5,13.3,8.1v56.7c0.1,1.9,1.6,3.4,3.5,3.4h12.6c-0.1-6.3-1.2-12.4-3.1-18.2V28.1
		c10.9,13.3,17.5,30.4,17.5,49c0,4.1-0.3,8-0.9,11.9H98.2c-1.9,0-3.5-1.6-3.5-3.5V0c4.6,0.2,9,0.8,13.3,1.8L108,72.2L108,72.2z
		 M70.8,43.4c1.9,0,3.5-1.6,3.5-3.5V16.2c-15.4,4.2-28.5,14-36.9,27.2L70.8,43.4L70.8,43.4z M70.8,75.7c1.9,0,3.5-1.6,3.5-3.5V60.3
		c0-1.9-1.6-3.5-3.5-3.5H31c-2,6-3.2,12.3-3.4,18.9H70.8L70.8,75.7z M87.6,85.5c0,1.9-1.6,3.5-3.5,3.5h-5.7h-4.1H28.8H16.9H15
		c-0.6-3.9-0.9-7.9-0.9-11.9c0-40.3,30.8-73.3,70.1-76.9h0.1c1.9,0.1,3.4,1.6,3.4,3.5L87.6,85.5L87.6,85.5z"/>
	<path class="st4" d="M73.9,173.7l4.8,3.3c0,0.1-0.8,14.5-1.5,17.1c-9.5-5.8-53-37.5-53-37.6C24.1,156.4,66.1,168.2,73.9,173.7
		L73.9,173.7z"/>
	<path class="st4" d="M103.7,177c0,0.1,0.8,14.5,1.5,17.1c9.5-5.8,52.9-37.5,53-37.6C158.2,156.4,103.7,177,103.7,177L103.7,177z"/>
	<path class="st0" d="M152.8,127.5l5.3,29c-20.5,9.6-43.9,26.1-67,26.1s-46.5-16.6-67-26.1l5.4-29c12.6,14,33.7,29.1,61.7,29.1
		S140.2,141.5,152.8,127.5L152.8,127.5z"/>
	<g>
		<g>
			<defs>
				<path id="SVGID_5_" d="M152.8,127.5l5.3,29c-20.5,9.6-43.9,26.1-67,26.1s-46.5-16.6-67-26.1l5.4-29c12.6,14,33.7,29.1,61.7,29.1
					S140.2,141.5,152.8,127.5L152.8,127.5z"/>
			</defs>
			<clipPath id="SVGID_6_">
				<use xlink:href="#SVGID_5_"  style="overflow:visible;"/>
			</clipPath>
			<path class="st5" d="M71.6,151.3c1.3-1.6,2.7-2.3,3.9-2.7c0.5-0.2,1-0.4,1.5-0.6c0.4-0.2,0.9-0.4,1.3-0.7c0.4-0.3,0.7-0.6,1.1-1
				c0.4-0.4,0.7-0.9,1-1.2c0.8-1,1.9-2.1,3.8-2.8c1-0.4,2-0.5,2.9-0.5l0.2-0.4c0.4-1.1,1.5-3.3,3.9-3.2c2.3,0,3.4,2.2,3.8,3.2
				l0.2,0.4c0.9,0,1.9,0.1,2.9,0.5c1.9,0.7,3,1.8,3.8,2.8c0.3,0.4,0.7,0.8,1,1.2s0.7,0.7,1.1,1c0.4,0.3,0.9,0.5,1.3,0.7
				c0.5,0.2,1,0.4,1.5,0.6c1.2,0.5,2.6,1.1,3.9,2.7c0.7,0.9,1.1,1.7,1.4,2.6h0.5c1.1,0.1,3.6,0.4,4.3,2.7c0.7,2.2-1,3.9-1.9,4.6
				l-0.4,0.3c0.3,0.9,0.4,1.8,0.4,2.9c-0.1,2-0.8,3.4-1.5,4.5c-0.3,0.4-0.6,0.9-0.9,1.4c-0.2,0.4-0.5,0.8-0.6,1.4
				c-0.2,0.5-0.2,1-0.3,1.4c-0.1,0.6-0.1,1.1-0.1,1.6c-0.1,1.3-0.3,2.8-1.4,4.5c-0.6,0.9-1.3,1.6-2.1,2.1l0.1,0.4
				c0.3,1.1,0.7,3.5-1.2,4.9s-4,0.2-5-0.4l-0.4-0.2c-0.7,0.6-1.6,1-2.7,1.3c-2,0.6-3.5,0.3-4.7,0c-0.5-0.1-1-0.3-1.6-0.4
				c-0.5-0.1-0.9-0.2-1.5-0.2c-0.5,0-1,0.1-1.4,0.2c-0.6,0.1-1.1,0.3-1.6,0.4c-1.2,0.3-2.8,0.6-4.7,0c-1-0.3-1.9-0.7-2.7-1.3
				l-0.4,0.2c-1,0.6-3.1,1.8-5,0.3c-1.9-1.4-1.5-3.8-1.2-4.8l0.1-0.4c-0.8-0.5-1.4-1.2-2.1-2.1c-1.1-1.7-1.3-3.3-1.4-4.5
				c0-0.5-0.1-1-0.1-1.6c0-0.5-0.1-1-0.3-1.5s-0.4-0.9-0.6-1.3c-0.3-0.5-0.6-0.9-0.9-1.4c-0.7-1.1-1.4-2.5-1.5-4.5
				c0-1.1,0.1-2.1,0.4-2.9l-0.4-0.3c-0.9-0.7-2.6-2.4-1.9-4.7c0.7-2.2,3.1-2.5,4.2-2.6h0.5C70.5,153,71,152.1,71.6,151.3L71.6,151.3
				z"/>
		</g>
	</g>
	<path class="st6" d="M71.1,154.9c0.2-1,0.6-2,1.4-3c1.1-1.4,2.3-2,3.4-2.4c0.5-0.2,1-0.4,1.6-0.6c0.5-0.2,1-0.5,1.5-0.9
		s0.9-0.8,1.2-1.1c0.4-0.4,0.7-0.9,1.1-1.3c0.8-0.9,1.7-1.9,3.3-2.5c1.2-0.4,2.3-0.5,3.3-0.4c0.1-0.4,0.3-0.8,0.4-1.2
		c0.4-1.1,1.3-2.6,2.8-2.5c1.6,0,2.4,1.5,2.8,2.5c0.1,0.3,0.3,0.7,0.4,1.2c1-0.1,2.1-0.1,3.3,0.4c1.6,0.6,2.6,1.6,3.3,2.5
		c0.3,0.4,0.7,0.8,1.1,1.3c0.4,0.4,0.8,0.8,1.3,1.2s1,0.6,1.5,0.8c0.5,0.2,1.1,0.4,1.6,0.6c1.1,0.4,2.3,1,3.4,2.4c0.8,1,1.2,2,1.4,3
		c0.5,0,0.9,0,1.3,0c1.2,0.1,2.8,0.4,3.3,1.9s-0.7,2.7-1.6,3.5c-0.3,0.2-0.6,0.5-1,0.8c0.4,0.9,0.7,2,0.6,3.2
		c-0.1,1.7-0.7,2.9-1.3,4c-0.3,0.4-0.6,0.9-0.9,1.4c-0.3,0.5-0.5,1-0.7,1.6s-0.3,1.2-0.3,1.7c-0.1,0.6-0.1,1.1-0.1,1.7
		c-0.1,1.2-0.3,2.5-1.2,4c-0.7,1.1-1.6,1.8-2.4,2.2c0.1,0.4,0.3,0.9,0.4,1.2c0.3,1.1,0.5,2.8-0.8,3.7s-2.8,0.2-3.8-0.4
		c-0.3-0.2-0.7-0.4-1-0.7c-0.7,0.7-1.7,1.3-2.9,1.6c-1.7,0.5-3,0.2-4.2-0.1c-0.5-0.1-1-0.3-1.6-0.4c-0.5-0.1-1.1-0.2-1.7-0.2
		c-0.6,0-1.2,0.1-1.7,0.2c-0.6,0.1-1.1,0.3-1.6,0.4c-1.2,0.3-2.5,0.5-4.2,0.1c-1.2-0.4-2.2-0.9-2.9-1.6c-0.4,0.3-0.7,0.5-1,0.7
		c-1,0.6-2.5,1.3-3.8,0.4s-1.1-2.6-0.8-3.7c0.1-0.3,0.2-0.8,0.4-1.2c-0.9-0.5-1.7-1.2-2.4-2.2c-1-1.5-1.2-2.8-1.2-4
		c0-0.5-0.1-1.1-0.1-1.7c-0.1-0.5-0.2-1.1-0.3-1.7c-0.2-0.6-0.5-1.1-0.7-1.5c-0.3-0.5-0.6-1-0.9-1.4c-0.6-1-1.3-2.2-1.3-4
		c0-1.3,0.2-2.4,0.6-3.2c-0.4-0.3-0.7-0.5-1-0.8c-0.9-0.7-2.1-2-1.5-3.5c0.5-1.5,2.1-1.8,3.3-1.9C70.2,155,70.6,154.9,71.1,154.9
		L71.1,154.9z"/>
	<path class="st0" d="M75.3,160.4c-0.9-0.3-1.5-0.1-2.3,0.3c-1.3,0.6-2.9-0.8-3.8-1.5c-0.9-0.7-1.2-1.3-1-1.7l0,0
		c0.1-0.4,0.7-0.7,1.9-0.8s3.3-0.2,4,1c0.4,0.7,0.9,1.3,1.7,1.6L75.3,160.4L75.3,160.4z"/>
	<path class="st0" d="M107,160.4c0.9-0.3,1.5-0.1,2.3,0.3c1.3,0.6,2.9-0.8,3.8-1.5c0.9-0.7,1.2-1.3,1-1.7l0,0
		c-0.1-0.4-0.7-0.7-1.9-0.8s-3.3-0.2-4,1c-0.4,0.7-0.9,1.3-1.7,1.6L107,160.4L107,160.4z"/>
	<path class="st0" d="M82,178.6c-0.5,0.7-0.6,1.4-0.5,2.3c0.2,1.4-1.6,2.5-2.6,3.2c-1,0.6-1.6,0.7-2,0.4l0,0c-0.3-0.2-0.5-0.9-0.2-2
		s0.9-3.2,2.2-3.5c0.8-0.2,1.5-0.4,2-1.1L82,178.6L82,178.6z"/>
	<path class="st0" d="M100.3,178.6c0.5,0.7,0.6,1.4,0.5,2.3c-0.2,1.4,1.6,2.5,2.6,3.2c1,0.6,1.6,0.7,2,0.4l0,0
		c0.3-0.2,0.5-0.9,0.2-2s-0.9-3.2-2.2-3.5c-0.8-0.2-1.5-0.4-2-1.1L100.3,178.6L100.3,178.6z"/>
	<path class="st0" d="M90.5,148.4c0-0.9-0.4-1.5-1-2.1c-0.9-1-0.2-3,0.3-4.1c0.4-1.1,0.9-1.5,1.3-1.5l0,0c0.4,0,0.9,0.4,1.3,1.5
		c0.4,1.1,1.2,3.1,0.3,4.1c-0.6,0.6-0.9,1.2-1,2.1H90.5L90.5,148.4z"/>
	<path class="st0" d="M74.1,159.3c0,0-4.2,0.6-4,5c0.1,2.7,1.9,3.6,2.9,6.5l0,0c0.9,2.9,0,4.7,1.5,6.9c2.5,3.7,6.2,1.7,6.2,1.7l0,0
		c0,0-0.7,4.2,3.5,5.4c2.6,0.7,4-0.7,7.1-0.7l0,0c3.1,0,4.5,1.5,7.1,0.7c4.2-1.2,3.5-5.4,3.5-5.4l0,0c0,0,3.7,2,6.2-1.7
		c1.5-2.2,0.6-4,1.5-6.9l0,0c1-2.9,2.8-3.8,2.9-6.5c0.2-4.4-4-5-4-5l0,0c0,0,3-2.9,0.3-6.4c-1.6-2.1-3.6-1.8-6.1-3.6l0,0
		c-2.4-1.8-2.8-3.8-5.3-4.7c-4.1-1.5-6,2.3-6,2.3l0,0c0,0-1.8-3.8-6-2.3c-2.5,0.9-2.8,2.9-5.3,4.7l0,0c-2.5,1.8-4.5,1.5-6.1,3.6
		C71,156.4,74.1,159.3,74.1,159.3L74.1,159.3L74.1,159.3z"/>
	<path class="st6" d="M81.8,161.8c0,0,0.2-0.6-0.6-1.5c-0.6-0.7-0.8-1.3-0.7-1.9c0.1-0.9,1.1-1.7,2.3-1.9c0.7-0.1,1.2-0.3,1.8-0.8
		l0,0c0.6-0.4,1-0.9,1.3-1.5c0.5-1,1.6-1.7,2.5-1.6c0.5,0.1,1.1,0.5,1.5,1.3c0.6,1,1.2,1,1.2,1l0,0c0,0,0.7,0,1.2-1
		c0.4-0.8,1-1.2,1.5-1.3c0.9-0.2,2,0.5,2.5,1.6c0.3,0.6,0.7,1.1,1.3,1.5l0,0c0.6,0.4,1.1,0.6,1.8,0.8c1.1,0.2,2.2,1,2.3,1.9
		c0.1,0.5-0.2,1.2-0.7,1.9c-0.8,0.9-0.6,1.5-0.6,1.5l0,0c0,0,0.2,0.6,1.4,0.9c0.9,0.2,1.4,0.6,1.7,1.1c0.4,0.8,0.1,2-0.7,2.9
		c-0.5,0.5-0.8,1-1,1.7l0,0c-0.2,0.7-0.3,1.3-0.2,2c0.2,1.2-0.3,2.4-1.1,2.7c-0.5,0.2-1.2,0.2-2-0.1c-1.1-0.5-1.6-0.1-1.6-0.1l0,0
		c0,0-0.5,0.4-0.4,1.6c0.1,0.9-0.1,1.6-0.5,1.9c-0.6,0.7-1.9,0.7-2.9,0.2c-0.6-0.3-1.2-0.4-1.9-0.5l0,0c-0.7,0-1.3,0.2-1.9,0.5
		c-1,0.5-2.3,0.5-2.9-0.2c-0.4-0.4-0.6-1.1-0.5-1.9c0.1-1.2-0.4-1.6-0.4-1.6l0,0c0,0-0.5-0.4-1.6,0.1c-0.8,0.3-1.5,0.4-2,0.1
		c-0.8-0.4-1.3-1.6-1.1-2.7c0.1-0.7,0.1-1.3-0.2-2l0,0c-0.2-0.7-0.6-1.2-1-1.7c-0.8-0.8-1.1-2.1-0.7-2.9c0.3-0.5,0.8-0.9,1.7-1.1
		C81.6,162.4,81.8,161.8,81.8,161.8L81.8,161.8L81.8,161.8z M80.3,161.4c0,0-2.7-0.1-3.5,1.5c-0.5,1.1-0.4,2.9,0.9,3.8
		c0.8,0.6,1.2,1.2,1.5,2.1l0,0c0.3,0.9,0.3,1.6,0,2.6c-0.4,1.5,0.5,3.1,1.6,3.6c1.6,0.8,3.7-0.8,3.7-0.8l0,0c0,0-0.9,2.5,0.4,3.8
		c0.8,0.8,2.7,1.2,3.9,0.4c0.8-0.6,1.5-0.8,2.4-0.8l0,0c1,0,1.6,0.2,2.4,0.8c1.2,0.9,3.1,0.5,3.9-0.4c1.3-1.3,0.4-3.8,0.4-3.8l0,0
		c0,0,2.1,1.7,3.7,0.8c1.1-0.5,2-2.1,1.6-3.6c-0.3-0.9-0.3-1.6,0-2.6l0,0c0.3-0.9,0.7-1.5,1.5-2.1c1.2-0.9,1.4-2.8,0.9-3.8
		c-0.8-1.6-3.5-1.5-3.5-1.5l0,0c0,0,2.2-1.5,1.9-3.3c-0.2-1.2-1.4-2.6-2.9-2.6c-1,0-1.6-0.2-2.4-0.8l0,0c-0.8-0.6-1.2-1.2-1.5-2.1
		c-0.5-1.4-2.2-2.2-3.4-2c-1.8,0.3-2.5,2.9-2.5,2.9l0,0c0,0-0.7-2.6-2.5-2.9c-1.2-0.2-2.9,0.6-3.4,2c-0.3,0.9-0.7,1.5-1.5,2.1l0,0
		c-0.8,0.6-1.5,0.8-2.4,0.8c-1.5,0-2.7,1.4-2.9,2.6C78.1,159.8,80.3,161.3,80.3,161.4L80.3,161.4L80.3,161.4z"/>
	<path class="st6" d="M93.7,164.9c0,1.4-1.1,2.5-2.5,2.5s-2.5-1.1-2.5-2.5s1.1-2.5,2.5-2.5C92.6,162.3,93.7,163.5,93.7,164.9
		L93.7,164.9z M86.4,163.3c-0.2,0.6-1.2,0.7-1.2,1.3c0,1.1,0.8,1,1.1,1.8l0,0c0.2,0.7-0.4,1.2,0.2,2.1c0.4,0.5,1.1,0,1.7,0.4l0,0
		c0.5,0.4,0.3,1.3,0.9,1.5c1,0.3,1.2-0.5,2-0.5l0,0c0.8,0,1,0.8,2,0.5c0.6-0.2,0.4-1.1,0.9-1.5l0,0c0.6-0.4,1.3,0.1,1.7-0.4
		c0.6-0.9-0.1-1.3,0.2-2.1l0,0c0.2-0.7,1.1-0.7,1.1-1.8c0-0.7-0.9-0.7-1.2-1.3l0,0c-0.2-0.7,0.6-1.2,0.2-1.7
		c-0.6-0.8-1.3-0.3-1.9-0.8l0,0c-0.6-0.4-0.3-1.2-1.3-1.6c-0.6-0.2-0.9,0.7-1.6,0.7l0,0c-0.7,0-1-0.9-1.6-0.7
		c-1,0.3-0.7,1.1-1.3,1.6l0,0c-0.6,0.4-1.3-0.1-1.9,0.8C85.9,162.1,86.6,162.7,86.4,163.3L86.4,163.3L86.4,163.3z"/>
	<path class="st3" d="M84,189.3c-0.2,0.2-0.5,0.4-1,0.6s-0.8,0.2-1.2,0.3v0.5h1v4.5c0,0.8-0.3,0.9-1.1,0.9v0.4h3.5v-0.4
		c-0.3,0-0.7,0-0.9-0.4c-0.1-0.2-0.1-0.4-0.1-0.6v-5.9L84,189.3L84,189.3z"/>
	<path class="st3" d="M89.2,192.7c0.3-0.2,1.1-0.6,1.1-1.6s-0.8-1.8-2-1.8c-1.1,0-2.1,0.7-2.1,1.8c0,1,0.8,1.5,1.2,1.8
		c-0.4,0.2-0.9,0.3-1.2,0.9c-0.2,0.2-0.2,0.6-0.2,0.9c0,1,0.9,1.9,2.3,1.9c1.3,0,2.3-0.8,2.3-1.9C90.6,193.7,89.8,193.2,89.2,192.7
		L89.2,192.7z M88.6,192.4c-0.4-0.2-1.3-0.8-1.3-1.6c0-0.5,0.3-1,0.9-1c0.6,0,1,0.6,1,1.2C89.2,191.7,88.8,192.2,88.6,192.4
		L88.6,192.4z M87.9,193.4c0.6,0.3,1.4,0.8,1.4,1.7c0,0.5-0.3,1.1-1.1,1.1c-0.7,0-1.1-0.6-1.1-1.2c0-0.3,0.1-0.6,0.2-0.8
		C87.6,193.7,87.7,193.5,87.9,193.4L87.9,193.4z"/>
	<path class="st3" d="M91,191.6h0.5c0.2-0.7,0.4-1,1.2-1c0.2,0,0.4,0,0.7,0h1.2l-2.2,4.1c-0.5,0.9-0.6,1.2-0.6,1.5
		c0,0.4,0.3,0.5,0.6,0.5c0.4,0,0.6-0.3,0.7-0.8c0.1-0.2,0.4-1,0.5-1.2c0.3-0.8,0.8-2,1.1-2.8l1-2.4h-3.5h-0.1c0,0-0.1-0.1-0.1-0.2
		h-0.4L91,191.6L91,191.6z"/>
	<path class="st3" d="M96,191.6h0.5c0.2-0.7,0.4-1,1.2-1c0.2,0,0.4,0,0.7,0h1.2l-2.2,4.1c-0.5,0.9-0.6,1.2-0.6,1.5
		c0,0.4,0.3,0.5,0.6,0.5c0.4,0,0.6-0.3,0.7-0.8c0.1-0.2,0.4-1,0.5-1.2c0.3-0.8,0.8-2,1.1-2.8l1-2.4h-3.5h-0.1c0,0-0.1-0.1-0.1-0.2
		h-0.4L96,191.6L96,191.6z"/>
</g>
</svg>
