<svg version="1.1" id="Bournemouth" xmlns="http://www.w3.org/2000/svg" x="0" y="0" viewBox="0 0 1640 2156.1" style="enable-background:new 0 0 1640 2156.1" xml:space="preserve"><style>.st3{fill:#fff}</style><linearGradient id="SVGID_1_" gradientUnits="userSpaceOnUse" x1="1014.58" y1="1866.872" x2="1729.42" y2="10.773"><stop offset="0" style="stop-color:#881002"/><stop offset="1" style="stop-color:#e20613"/></linearGradient><path d="M1148.7 1477.8c10 .1 19.8 1.3 30.9 1.2-11.1 0-20.9-1.1-30.9-1.2z" style="fill:url(#SVGID_1_)"/><linearGradient id="SVGID_2_" gradientUnits="userSpaceOnUse" x1="1087.658" y1="1895.017" x2="1802.498" y2="38.918"><stop offset="0" style="stop-color:#881002"/><stop offset="1" style="stop-color:#e20613"/></linearGradient><path d="M1233.7 1502.2c4.2-1.2 8.2-2.5 12-4.1-3.8 1.6-7.8 3-12 4.1z" style="fill:url(#SVGID_2_)"/><linearGradient id="SVGID_3_" gradientUnits="userSpaceOnUse" x1="820" y1="2123.446" x2="820" y2="63.538"><stop offset="0" style="stop-color:#881002"/><stop offset="1" style="stop-color:#e20613"/></linearGradient><path d="m1495.6 1377.3 1.3-3.1.2-.4.2-.4c6.5-15.1 13-31.1 20-48.9 7.2-18.7 13.4-35.5 19-51.2 85.7-242 103.7-457.1 103.8-594.9V116.7C1373.7 39.3 1098 .1 820.7.1h-1.3C542 .1 266.3 39.3 0 116.7v561.6c.1 137.8 18.1 352.9 103.8 594.8 5.6 15.8 11.8 32.6 19.1 51.5 6.9 17.7 13.5 33.7 19.9 48.7l.2.4.2.4 1.3 3.1c116.5 272.3 297.9 503.1 539.1 685.7 30.6 23 62.7 45.8 95.4 67.5l.5.3 40.6 25.4 40.6-25.4.5-.3c32.7-21.7 64.8-44.4 95.5-67.5 241-182.6 422.4-413.3 538.9-685.6z" style="fill:url(#SVGID_3_)"/><path class="st3" d="m1002.5 1114.7-68.5-78.4c-96-6.6-181.7-50.9-242.5-118.2-21.5 15.2-36.1 34.9-36.1 34.9l-167.3-4.4-3 66.4s-24.6-1.4-50.5 0c-26 1.6-27.4 37.6-27.4 37.6s-20.2-1.4-41.8 4.3c-21.6 5.8-18.7 39-18.7 39s-56.3 1.5-75.1 23.1c-18.8 21.7-21.6 66.4-2.8 92.4 18.7 26 125.5 178.9 152.9 239.6 26.3 58.2 31.4 251.3 31.8 267.4 81.9 100.7 176.5 192.2 283.9 273.5 26.5 20 54.3 39.7 82.7 58.8 28.4-19.1 56.2-38.9 82.9-58.9 20.6-15.6 40.5-31.7 60.2-48l-274-316.2.2-.2 17.1-14.8 5.5-.3c1.6-.1 3.5-.2 5.4-.2 4.6 0 9 .3 13.7.6 5.3.3 10.8.6 16.6.6h.6c15.8 0 37.6-1.9 65.8-16.8 10.4-5.6 18-13.6 23.2-24.4 4.7-9.7 7.1-21.5 7-33.4.1-12.6-2.9-24.3-6-30.3-4.7-9.7-15.4-18.3-30-24.2-14.7-6-29.2-7.8-30.8-8-1.3-.2-1.8-.3-1.8-.3h-.9l-15.9-2.8-.1-.1-52.3-58.3.2-.2 23.7-20.5.2.2.2.3.1-.1 42.4 47.8c14.2 1.7 26.8 4.1 41.6 9.8l-65.8-74.2 20.5-17.8.2.2.2.3.1-.1 367.8 415.3c5.5-6.2 10.8-12.4 16.2-18.7l-365.7-413.2.2-.2 20.3-17.6.2.2.2.3.1-.1 27.7 31.2 335.1 378.4c5.4-6.4 10.5-12.9 15.8-19.4l-360.3-406.9 7.8-6.7h.2c.1 0 9.6 2.7 24.6 3.8h.1l.1.1.2.2h.1l344.1 388.5c5.2-6.6 10.2-13.3 15.2-20l-326.7-369 .6-.1c10.1-.8 20.4-2.6 30.8-5.3h.2l.1.1.2.2h.1l17.7 20 293.8 331.7c5-6.8 9.8-13.8 14.7-20.7l-301.3-340.3.4-.2c8-4.3 14.8-10.1 20-17.2l.2-.3.3.3.2.3.1-.1 25 28.2 271.2 306.2c4.8-7 9.4-14.2 14.1-21.3L982.4 1250v-.2c3.8-14.7 3.8-28.8 3.1-38.2l-.1-.9.6.7.3.3v-.1l311.5 351.7c4.6-7.3 9.1-14.6 13.5-22l-342.5-386.8v-41.1l.6.6.3.3v-.1l66.9 75.5 272.3 307.4 17.2 19.4c4.4-7.5 8.7-15.1 12.9-22.7l-336.5-379.1z"/><path class="st3" d="M773.3 1644.4c-1.9.3-3.8.6-5.7.8l-1.2.1c-.6.1-1.2.1-1.8.2-1 .1-2.1.3-3.1.3-1.6.1-3.3.2-4.9.2h-.6c-.4 0-.7 0-1 .1-.7 0-1.4 0-2.1.1h-1.1c-3.1 0-6.4-.2-10-.5l245 278c6.2-5.4 12.3-10.9 18.4-16.3l-231.9-263zM864.5 1591c-3.7 7-8.7 13.8-15 20.2l213.7 242.5c5.9-5.8 11.6-11.7 17.4-17.5L864.5 1591zM874.5 1519.4c.7 5 1.2 10.1 1.3 15.4.1 7.5-.4 14.7-1.5 21.6l228.2 257.7c5.7-6 11.3-12.1 16.9-18.2l-244.9-276.5zM827.1 1626.9c-1 .6-2.1 1.1-3.1 1.6l-1.6.8c-1.3.6-2.6 1.2-3.8 1.8h-.1c-.2.1-.5.2-.8.3-.5.2-1 .5-1.6.7h-.1c-.1.1-.3.1-.4.2-.1 0-.3.1-.4.2-.2.1-.3.1-.5.2-.1 0-.3.1-.4.1-4 1.6-7.7 2.8-11.5 3.9l222.6 252.6c6.1-5.6 11.9-11.3 17.9-16.9l-216.2-245.5z"/><path d="M1640 116.6C1373.7 39.2 1098 0 820.7 0h-1.3C542 0 266.3 39.2 0 116.6v561.6C.1 816 18.1 1031.1 103.8 1273c5.6 15.8 11.8 32.6 19.1 51.5 6.9 17.7 13.5 33.7 19.9 48.7l.2.4.2.4 1.3 3.1c116.5 272.3 297.9 503.1 539.1 685.7 30.6 23 62.7 45.8 95.4 67.5l.5.3 40.6 25.4 40.6-25.4.5-.3c32.7-21.7 64.8-44.4 95.5-67.5 241.2-182.6 422.5-413.3 539-685.6l1.3-3.1.2-.4.2-.4c6.5-15.1 13-31.1 20-48.9 7.2-18.7 13.4-35.5 19-51.2 85.7-242 103.7-457.1 103.8-594.9l-.2-561.7zM986.7 1923.9l-245-278c3.7.3 7 .5 10.1.5h1.1c.7-.1 1.4-.1 2.1-.1.3 0 .7 0 1-.1h.6c1.6-.1 3.3-.1 4.9-.2 1-.1 2.1-.2 3.1-.3.6-.1 1.2-.1 1.8-.2l1.2-.1c1.9-.2 3.9-.5 5.7-.8l231.8 263.1c-6.1 5.3-12.1 10.8-18.4 16.2zm38.8-34.5-222.6-252.6c3.8-1.1 7.6-2.4 11.6-3.9.1 0 .3-.1.4-.1.2 0 .3-.1.5-.2.1-.1.3-.1.4-.2.1-.1.3-.1.4-.2h.1c.5-.2 1-.5 1.6-.7.2-.1.5-.2.8-.3h.1c1.3-.6 2.6-1.2 3.8-1.8l1.6-.8c1-.5 2.1-1.1 3.1-1.6l216.4 245.5c-6.2 5.6-12.1 11.3-18.2 16.9zm37.6-35.6-213.8-242.5c6.3-6.5 11.3-13.3 15-20.4l216.2 245.3c-5.7 5.9-11.4 11.8-17.4 17.6zm39.3-39.7L874 1556.3c1.1-7.2 1.6-14.5 1.5-21.5-.1-5.2-.5-10.4-1.3-15.6l245 276.7c-5.5 6.1-11.1 12.2-16.8 18.2zm223.3-297-356.6-402.7-.6-.6v41.1l342.5 386.8c-4.5 7.4-9 14.7-13.6 22.1l-311.7-352-.6-.7.1.9c.7 9.3.8 23.5-3.1 38.2v.2l299.4 338.1c-4.7 7.2-9.3 14.3-14.1 21.4L996 1303.3l-25-28.2-.3-.3-.2.3c-5.2 7.1-12 12.9-20 17.2l-.4.2 301.3 340.3c-4.9 6.9-9.7 13.9-14.7 20.7l-311.7-352-.1-.1h-.2c-10.4 2.7-20.7 4.5-30.8 5.3l-.6.1 326.7 369c-5.1 6.7-10.1 13.5-15.3 20.1L860.4 1307l-.1-.1h-.1c-15.1-1.2-24.5-3.8-24.6-3.8h-.2l-7.8 6.7 360.3 406.9c-5.3 6.5-10.5 13-15.8 19.5l-363-409.9-.2-.2-20.3 17.6-.2.2 365.7 413.2c-5.4 6.3-10.8 12.6-16.3 18.7l-368-415.6-.2-.2-20.5 17.8 65.8 74.2c-14.8-5.7-27.4-8-41.7-9.8l-42.6-48-.2-.2-23.7 20.5-.2.2 52.3 58.3.1.1 15.9 2.8h.9s.5 0 1.8.3c1.6.2 16.2 1.9 30.8 8 14.6 5.9 25.2 14.4 30 24.2 3.1 6 6.1 17.8 6 30.3.1 11.9-2.4 23.7-7 33.4-5.2 10.8-12.8 18.8-23.2 24.4-28.2 14.9-50 16.8-65.8 16.8h-.6c-5.8 0-11.3-.3-16.6-.6-4.7-.3-9.1-.5-13.7-.6-2 0-3.8.1-5.4.2l-5.5.3-17.1 14.8-.2.2 274 316.2c-19.7 16.3-39.6 32.4-60.2 48-26.6 20.1-54.5 39.9-82.9 58.9-28.4-19.1-56.2-38.8-82.7-58.8-228.4-173-400.2-391.2-510.6-648.8l-.9-2.2-.2-.4-.4-.9-.4-.9-.2-.4c-6.1-14.1-12.2-29.1-18.8-45.9-6.9-18-12.8-33.9-18.1-49-81.4-230-98.6-434.3-98.7-565.1V375.6c238.2-63.2 483.5-95.2 730.2-95.2h1.3c109.2 0 218.1 6.3 326.2 18.8V366c-54.7-33.5-119-52.8-187.8-52.8-199.4 0-361 162.1-361 362.1 0 191.5 148.3 348.2 335.9 361.1l68.5 78.4 336.1 379.6c-4.1 7.6-8.5 15.1-12.8 22.7zm-178.8-532.6v251.9L970.7 1037c64.4-2 124.5-20.9 176.2-52.5zm205.5 484.5-99.2-112.2V885.1c42.1-59.2 66.9-131.6 66.9-209.8 0-78.2-24.8-150.6-66.9-209.8v-152c33.2 5.1 66.2 10.8 99.2 17.1V1469zm198.4-790.9c-.1 130.8-17.2 335.1-98.7 565.4-.1.4-.3.8-.4 1.2V351.2c33.2 7.5 66.3 15.6 99.2 24.4v302.5z" style="fill:#1d1d1b"/><path class="st3" d="m961.5 417.2-110.2-44.1c-53 19.1-99.4 51.7-135.3 93.5l5.6 121.2L639 693.9l-2.2 2.8c4.5 50.8 20.1 98.7 44.5 140.8l.5.1 129.1 39 72.6 112.5c28.3 7 58 10.3 88.6 9.2 22.3-.8 44-3.8 64.8-8.9l68.2-104.5 126.2-33.9c26.9-41.6 44.5-89.7 49.8-141.2L1198 601.2l5.2-137.2c-34.2-39-77.5-69.7-126.5-88.6l-115.2 41.8zm84 376.9-163.9.9-51.2-157.2 129.4-96.7 132.6 98.4-46.9 154.6z"/><linearGradient id="SVGID_4_" gradientUnits="userSpaceOnUse" x1="168.362" y1="258.315" x2="984.088" y2="868.203"><stop offset="0" style="stop-color:#b3a06e"/><stop offset=".442" style="stop-color:#ffe9cf"/><stop offset="1" style="stop-color:#b3a06e"/></linearGradient><path d="M181.6 265.9c-7.1 1.5-14.1 2.9-21.1 4.4-1.6.3-2.7-.6-3.1-2.1-1.8-7.9-3.6-15.9-5.4-23.8-10.3 2.2-20.6 4.5-30.9 6.9-1.8 8.7-3.6 17.5-5.4 26.3-.3 1.6-1.5 3.1-3 3.5-7 1.6-14 3.3-21.1 5-1.5.4-2.6-.3-2.6-1.8 0-.1.2-.5.2-.8 7.5-33.3 15-66.6 22.4-99.9 3.5-15.4 14.6-20.3 25-22.6 10.4-2.3 21.5-2.4 25 11.5 7.4 29.9 14.9 59.8 22.5 89.8 0 .3.2.6.1.7 0 1.4-1.1 2.5-2.6 2.9zm-43-81.5c-.3-1.5-.6-2.2-2-1.9-1.3.3-1.8 1.2-2.1 2.8-3.1 14.8-6.1 29.5-9.2 44.2 7.5-1.6 15-3.4 22.5-5-3.1-13.4-6.2-26.8-9.2-40.1z" style="fill:url(#SVGID_4_)"/><linearGradient id="SVGID_5_" gradientUnits="userSpaceOnUse" x1="219.212" y1="190.325" x2="1034.83" y2="800.132"><stop offset="0" style="stop-color:#b3a06e"/><stop offset=".442" style="stop-color:#ffe9cf"/><stop offset="1" style="stop-color:#b3a06e"/></linearGradient><path d="M263.3 157.7c-10.3 1.9-20.5 3.8-30.8 5.7-7.1 1.3-9.7 4.3-9.7 12.3v13.7c13-2.5 26.1-5 39.2-7.4 1.7-.3 3 .8 3 2.5V199c0 1.7-1.4 3.3-3 3.6-13.1 2.4-26.2 4.8-39.2 7.4v44.6c0 1.7-1.4 3.3-3 3.6-6.6 1.3-13.1 2.6-19.7 3.9-1.7.3-3.1-.7-3.1-2.5v-78.9c0-27.7 17.4-36.2 36.9-39.9 16.4-3.1 24-3.2 29.3-3.4 2.1-.1 3.1.5 3 2.5v14.2c.2 1.6-1.2 3.3-2.9 3.6z" style="fill:url(#SVGID_5_)"/><linearGradient id="SVGID_6_" gradientUnits="userSpaceOnUse" x1="262.358" y1="132.628" x2="1077.796" y2="742.3"><stop offset="0" style="stop-color:#b3a06e"/><stop offset=".442" style="stop-color:#ffe9cf"/><stop offset="1" style="stop-color:#b3a06e"/></linearGradient><path d="M350.7 234.2c-3.2 1.6-12 4.4-22.7 6.1-23.1 3.7-45-4.7-45-41v-19.2c0-36.3 21.9-52.2 45-55.9 10.6-1.7 19.5-1.5 22.7-.9 2.2.3 3.3.7 3.4 2.8v14.8c0 1.8-.9 3.2-2.9 3.4-.1 0-.3.1-.5.1-5.8.4-14.1 1-22.5 2.3-10.5 1.7-18.9 8.5-18.9 28.9v19.2c0 20.3 8.4 24.4 18.9 22.7 8.4-1.3 16.7-3.4 22.5-4.8.1 0 .3 0 .5-.1 2-.3 2.9.9 2.9 2.7v14.8c0 2.3-1.3 3.2-3.4 4.1z" style="fill:url(#SVGID_6_)"/><linearGradient id="SVGID_7_" gradientUnits="userSpaceOnUse" x1="311.986" y1="66.108" x2="1127.714" y2="675.998"><stop offset="0" style="stop-color:#b3a06e"/><stop offset=".442" style="stop-color:#ffe9cf"/><stop offset="1" style="stop-color:#b3a06e"/></linearGradient><path d="M446.8 223.8c-10 1.2-22 2-27.9 1.7-6.1-.3-8.4-2-8.4-8.8v-92.8c0-6.8 2.1-9.2 8.1-10.9 5.2-1.4 17.6-3.9 27.3-5.1 28.9-3.5 48.3 2.2 48.3 26.4v2.8c0 10-4.8 19-12.8 23.8 8.1 3 13.6 10.6 13.6 21.1v2.3c0 26.8-21.8 36.3-48.2 39.5zm22.2-85.2c0-8.4-5.4-11.6-21.1-9.8-2.4.3-9.5 1.2-11.6 1.6v26.4l17.1-2.1c12-1.4 15.6-7.3 15.6-13.9v-2.2zm.6 46.1c0-7.3-4-13.2-16.2-11.7l-17.1 2.1v28.5c2.4-.3 10.4-1.1 12.5-1.4 15.7-1.8 20.8-7.3 20.8-15.8v-1.7z" style="fill:url(#SVGID_7_)"/><linearGradient id="SVGID_8_" gradientUnits="userSpaceOnUse" x1="356.756" y1="6.276" x2="1172.279" y2="616.012"><stop offset="0" style="stop-color:#b3a06e"/><stop offset=".442" style="stop-color:#ffe9cf"/><stop offset="1" style="stop-color:#b3a06e"/></linearGradient><path d="M555.4 212.6c-25.3 2.2-45.3-9.3-45.3-44.8v-18.2c0-35.4 20.1-51 45.3-53.1 25.3-2.1 45.4 10.1 45.4 45.5v18.2c-.1 35.4-20.2 50.3-45.4 52.4zm18.9-68.6c0-18.3-6.1-25.6-19-24.6-12.9 1.1-18.9 9.5-18.9 27.7v18.2c0 18.3 6 25.5 18.9 24.4 12.9-1.1 19-9.3 19-27.6V144z" style="fill:url(#SVGID_8_)"/><linearGradient id="SVGID_9_" gradientUnits="userSpaceOnUse" x1="402.92" y1="-55.244" x2="1218.12" y2="554.25"><stop offset="0" style="stop-color:#b3a06e"/><stop offset=".442" style="stop-color:#ffe9cf"/><stop offset="1" style="stop-color:#b3a06e"/></linearGradient><path d="M663.2 205.4c-24.4 1.2-44.2-6.6-44.2-41.4V96.1c0-1.6 1.4-3 3.1-3 6.7-.5 13.4-.9 20.1-1.2 1.7-.1 3.1 1.1 3.1 2.7v67.9c0 15.6 4.2 21.9 17.9 21.2 13.8-.7 18.1-7.4 18.1-23V92.8c0-1.6 1.4-3 3.1-3 6.7-.3 13.3-.6 20-.8 1.7 0 3.2 1.1 3.2 2.8v67.9c0 34.7-20 44.5-44.4 45.7z" style="fill:url(#SVGID_9_)"/><linearGradient id="SVGID_10_" gradientUnits="userSpaceOnUse" x1="435.646" y1="-99.043" x2="1250.982" y2="510.553"><stop offset="0" style="stop-color:#b3a06e"/><stop offset=".442" style="stop-color:#ffe9cf"/><stop offset="1" style="stop-color:#b3a06e"/></linearGradient><path d="M814.4 200.1c-7.9 0-15.7 0-23.6.1-1.7 0-2.2-1.5-3-3-6.9-12.8-13.8-25.6-20.6-38.3-.5 0-1.1.1-1.7.2-3.2 0-8-.2-10.9-.1v38.7c0 1.7-1.4 3.1-3.1 3.1-6.6.2-13.3.3-19.9.5-1.6 0-3.1-1.3-3.1-2.9V96c0-5.2 2.2-6.6 6.9-7.5 7.1-1.3 20.1-2.5 31.2-2.7 26.1-.4 46.3 8.3 46.2 35.3v2c0 16.2-8.6 26.1-19.8 30.6 7.7 14.3 15.4 28.6 23.2 42.9.3.6.5 1.2.5 1.7 0 1.1-.6 1.8-2.3 1.8zm-27.7-78.8c0-9.3-7.2-13.5-20.1-13.3-2.2.1-10.2.5-12 .7V138c1.7.1 9.2.1 10.9.1 16.2-.3 21.2-4.5 21.2-14.8v-2z" style="fill:url(#SVGID_10_)"/><linearGradient id="SVGID_11_" gradientUnits="userSpaceOnUse" x1="477.511" y1="-155.294" x2="1293.133" y2="454.517"><stop offset="0" style="stop-color:#b3a06e"/><stop offset=".442" style="stop-color:#ffe9cf"/><stop offset="1" style="stop-color:#b3a06e"/></linearGradient><path d="M917.4 201.6c-5-.2-10-.3-15-.4-3.2-.1-5.5-.8-8-4.9-11.7-20.3-23.3-40.6-35-60.8-.6-1-.9-1.2-1.4-1.2-.4 0-.7.3-.7 1.2v61.8c0 1.7-1.4 3-3.1 3-6 0-12.1-.1-18.1-.1-1.7 0-3.1-1.4-3.1-3.1V92.6c0-3.2 2.6-5.8 5.8-5.8 5.2 0 10.4.1 15.5.2 3.1 0 4.6 1.5 6.5 4.8 12.1 21.1 24.3 42.3 36.4 63.5.5 1 .8 1.2 1.2 1.2.3 0 .8-.2.8-1.3V90.7c0-1.7 1.4-2.9 3.1-2.8 6 .1 12.1.3 18.1.5 1.7 0 3.1 1.3 3.1 3V196c-.1 3.3-2.9 5.8-6.1 5.6z" style="fill:url(#SVGID_11_)"/><linearGradient id="SVGID_12_" gradientUnits="userSpaceOnUse" x1="514.798" y1="-204.934" x2="1330.206" y2="404.716"><stop offset="0" style="stop-color:#b3a06e"/><stop offset=".442" style="stop-color:#ffe9cf"/><stop offset="1" style="stop-color:#b3a06e"/></linearGradient><path d="M1011.4 205.3c-5.4.5-13.2 1.1-29.8.3-19.8-1-37.3-6.7-37.3-34.5v-50.6c0-27.8 17.7-32 37.5-30.9 16.6.8 24.3 2.5 29.6 3.6 2.2.5 3 1.3 3 3.2v14.3c0 1.7-1.4 2.9-3 2.8l-31.2-1.8c-7.2-.4-9.8 2-9.8 9.9v13.9c13.2.6 26.5 1.3 39.7 2.1 1.7.1 3.1 1.6 3.1 3.3v14.5c0 1.7-1.4 3-3.1 2.8-13.2-.8-26.5-1.5-39.7-2.1v16.1c0 8 2.5 10.5 9.8 10.9 10.4.5 20.7 1.2 31.2 1.8 1.7.1 3 1.6 3 3.2v14.2c0 2.1-.8 2.9-3 3z" style="fill:url(#SVGID_12_)"/><linearGradient id="SVGID_13_" gradientUnits="userSpaceOnUse" x1="546.191" y1="-247.395" x2="1361.944" y2="362.513"><stop offset="0" style="stop-color:#b3a06e"/><stop offset=".442" style="stop-color:#ffe9cf"/><stop offset="1" style="stop-color:#b3a06e"/></linearGradient><path d="M1134.7 216c-6.7-.7-13.4-1.4-20.2-2-1.4-.2-2.4-1.6-2.4-3.3v-63.6c0-1-.5-1.3-.8-1.3-.4 0-.8.3-1.2 1-4.6 8-9.2 15.9-13.7 23.9-1.1 1.7-2.6 2.4-4.6 2.1-4.1-.4-8.2-.7-12.3-1-2-.2-3.5-1.1-4.6-3-4.6-8.7-9.2-17.5-13.8-26.3-.4-.8-.8-1.1-1.2-1.2-.3 0-.8.1-.8 1.2v63.6c0 1.7-1.1 3-2.5 2.9-6.8-.5-13.5-1-20.2-1.5-1.2-.1-2.6-.7-2.6-2.3v-106c0-3.2 2.3-5.1 5.5-4.8 4.8.3 9.6.7 14.4 1.1 3.2.2 5.4 1.9 6.8 4.6 7.8 15.1 15.6 30.2 23.5 45.4.6 1.2 1.1 2.1 1.7 2.1.6.1 1.1-.7 1.6-1.8 7.8-13.8 15.6-27.6 23.4-41.3 1.4-2.5 3.5-3.8 6.8-3.5 4.8.5 9.6.9 14.4 1.4 3.2.3 5.5 2.7 5.5 5.9v105.9c-.1 1.6-1.5 1.9-2.7 1.8z" style="fill:url(#SVGID_13_)"/><linearGradient id="SVGID_14_" gradientUnits="userSpaceOnUse" x1="582.475" y1="-295.766" x2="1398.078" y2="314.03"><stop offset="0" style="stop-color:#b3a06e"/><stop offset=".442" style="stop-color:#ffe9cf"/><stop offset="1" style="stop-color:#b3a06e"/></linearGradient><path d="M1201.2 224.8c-25.2-3.1-45.3-18.8-45.3-54.2v-18.2c0-35.4 20-46.8 45.3-43.7 25.2 3.1 45.2 19.5 45.2 54.9v18.2c0 35.3-20 46.1-45.2 43zm19-64.8c0-18.3-6.1-26.9-18.9-28.4-12.8-1.6-18.8 5.5-18.8 23.8v18.2c0 18.3 6 26.7 18.8 28.3 12.8 1.6 18.9-5.4 18.9-23.7V160z" style="fill:url(#SVGID_14_)"/><linearGradient id="SVGID_15_" gradientUnits="userSpaceOnUse" x1="616.986" y1="-341.713" x2="1432.459" y2="267.986"><stop offset="0" style="stop-color:#b3a06e"/><stop offset=".442" style="stop-color:#ffe9cf"/><stop offset="1" style="stop-color:#b3a06e"/></linearGradient><path d="M1308.5 239.8c-24.2-3.8-43.8-15.7-43.9-50.5v-67.9c0-1.7 1.4-2.7 3.1-2.5 6.7 1 13.3 2 20 2.9 1.7.3 3.1 1.7 3.1 3.4v67.9c0 15.6 4.1 22.7 17.8 24.9 13.7 2.2 18-3.6 18-19.2v-67.9c0-1.7 1.4-2.7 3.1-2.4 6.6 1.1 13.2 2.2 19.7 3.3 1.7.3 3.2 1.7 3.2 3.4v67.9c-.1 34.9-19.9 40.6-44.1 36.7z" style="fill:url(#SVGID_15_)"/><linearGradient id="SVGID_16_" gradientUnits="userSpaceOnUse" x1="644.41" y1="-378.796" x2="1460.085" y2="231.053"><stop offset="0" style="stop-color:#b3a06e"/><stop offset=".442" style="stop-color:#ffe9cf"/><stop offset="1" style="stop-color:#b3a06e"/></linearGradient><path d="M1444.5 171.2c-8.2-1.6-16.4-3.3-24.5-4.9v88.8c0 1.7-1.3 2.8-3 2.5-6.6-1.3-13.2-2.5-19.8-3.8-1.7-.3-3-1.9-3-3.6v-88.7c-8.2-1.6-16.5-3-24.7-4.6-1.7-.3-3-1.8-3.1-3.5v-15.7c0-1.7 1.4-2.7 3.1-2.3 25.1 4.5 50.2 9.2 75.2 14.3 1.7.3 3.2 1.9 3.2 3.5V169c-.2 1.7-1.7 2.6-3.4 2.2z" style="fill:url(#SVGID_16_)"/><linearGradient id="SVGID_17_" gradientUnits="userSpaceOnUse" x1="666.639" y1="-407.941" x2="1482.028" y2="201.695"><stop offset="0" style="stop-color:#b3a06e"/><stop offset=".442" style="stop-color:#ffe9cf"/><stop offset="1" style="stop-color:#b3a06e"/></linearGradient><path d="M1547.8 285.9c-6.6-1.5-13.2-3.1-19.7-4.6-1.6-.4-3-2.1-3-3.8v-44.1c-12.4-2.9-24.8-5.6-37.3-8.3v44.1c0 1.7-1.4 2.7-3 2.4-6.6-1.4-13.2-2.9-19.8-4.3-1.7-.4-3-2-3-3.7V156.2c0-1.7 1.3-2.6 3-2.2 6.6 1.3 13.2 2.8 19.8 4.2 1.7.4 3 1.9 3 3.6v40.6c12.4 2.7 24.8 5.5 37.3 8.3v-40.6c0-1.6 1.3-2.6 3-2.2 6.6 1.5 13.2 3.1 19.7 4.6 1.6.4 3 2 3 3.6v107.4c0 1.7-1.4 2.8-3 2.4z" style="fill:url(#SVGID_17_)"/></svg>