<svg version="1.1" id="Layer_1" xmlns="http://www.w3.org/2000/svg" xmlns:xlink="http://www.w3.org/1999/xlink" x="0" y="0" viewBox="0 0 259 382.5" style="enable-background:new 0 0 259 382.5" xml:space="preserve"><style>.st0{fill:none}.st2{fill:#fff}.st5{fill-rule:evenodd;clip-rule:evenodd}.st11,.st7{stroke-width:4.556200e-02}.st7{fill-rule:evenodd;clip-rule:evenodd;stroke:#000}.st11{fill:#fff;stroke:#fff}.st12{fill-rule:evenodd;clip-rule:evenodd}.st12,.st13{fill:#f99b26}.st14{fill:none}.st14,.st15{stroke:#000;stroke-width:.4556}</style><pattern x="174" y="1016.6" width="69" height="69" patternUnits="userSpaceOnUse" id="Polka_Dot_Pattern" viewBox="2.1 -70.9 69 69" style="overflow:visible"><path class="st0" d="M2.1-70.9h69v69h-69z"/><path style="fill:#f7bc60" d="M2.1-70.9h69v69h-69z"/><path class="st2" d="M61.8-71.7v.2c-.1.1-.1.1-.2.1-.1.1-.1.3-.1.4-.2.1 0 .2 0 .3v.2c0 .1 0 .3.1.4.1.2.3.4.4.5.2.1.4.6.6.6.2 0 .4-.1.5-.1.2 0 .4 0 .6-.1.2-.1.1-.3.3-.5.1-.1.3 0 .4-.1.2-.1.3-.3.4-.5v-.2c0-.1.1-.2.1-.3 0-.1-.1-.1-.1-.2v-.3c0-.2 0-.4-.1-.5-.4-.7-1.2-.9-2-.8-.2 0-.3.1-.4.2-.2.1-.1.2-.3.2-.1 0-.2.1-.2.2v.3c0 .1 0 .1 0 0M54.1-71.7v.2c-.1.1-.1.1-.2.1-.1.1-.1.3-.1.4-.2.1 0 .2 0 .3v.2c0 .1 0 .3.1.4.1.2.3.4.4.5.2.1.4.6.6.6.2 0 .4-.1.5-.1.2 0 .4 0 .6-.1.2-.1.1-.3.3-.5.1-.1.3 0 .4-.1.2-.1.3-.3.4-.5v-.2c0-.1.1-.2.1-.3 0-.1-.1-.1-.1-.2v-.3c0-.2 0-.4-.1-.5-.4-.7-1.2-.9-2-.8-.2 0-.3.1-.4.2-.2.1-.1.2-.3.2-.1 0-.2.1-.2.2v.3c0 .1 0 .1 0 0M46.4-71.7v.2c-.1.1-.1.1-.2.1-.1.1-.1.3-.1.4-.2.1 0 .2 0 .3v.2c0 .1 0 .3.1.4.1.2.3.4.4.5.2.1.4.6.6.6.2 0 .4-.1.5-.1.2 0 .4 0 .6-.1.2-.1.1-.3.3-.5.1-.1.3 0 .4-.1.2-.1.3-.3.4-.5v-.2c0-.1.1-.2.1-.3 0-.1-.1-.1-.1-.2v-.3c0-.2 0-.4-.1-.5-.4-.7-1.2-.9-2-.8-.2 0-.3.1-.4.2-.2.1-.1.2-.3.2-.1 0-.2.1-.2.2v.3c0 .1 0 .1 0 0M38.8-71.7v.2c-.1.1-.1.1-.2.1-.1.1-.1.3-.1.4-.2.1 0 .2 0 .3v.2c0 .1 0 .3.1.4.1.2.3.4.4.5.2.1.4.6.6.6.2 0 .4-.1.5-.1.2 0 .4 0 .6-.1.2-.1.1-.3.3-.5.1-.1.3 0 .4-.1.2-.1.3-.3.4-.5v-.2c0-.1.1-.2.1-.3 0-.1-.1-.1-.1-.2v-.3c0-.2 0-.4-.1-.5-.4-.7-1.2-.9-2-.8-.2 0-.3.1-.4.2-.2.1-.1.2-.3.2-.1 0-.2.1-.2.2v.3c0 .1 0 .1 0 0M31.1-71.7v.2c-.1.1-.1.1-.2.1-.1.1-.1.3-.1.4-.2.1 0 .2 0 .3v.2c0 .1 0 .3.1.4.1.2.3.4.4.5.2.1.4.6.6.6.2 0 .4-.1.5-.1.2 0 .4 0 .6-.1.2-.1.1-.3.3-.5.1-.1.3 0 .4-.1.2-.1.3-.3.4-.5v-.2c0-.1.1-.2.1-.3 0-.1-.1-.1-.1-.2v-.3c0-.2 0-.4-.1-.5-.4-.7-1.2-.9-2-.8-.2 0-.3.1-.4.2-.2.1-.1.2-.3.2-.1 0-.2.1-.2.2v.3c0 .1 0 .1 0 0M23.4-71.7v.2c-.1.1-.1.1-.2.1-.1.1-.1.3-.1.4-.2.1 0 .2 0 .3v.2c0 .1 0 .3.1.4.1.2.3.4.4.5.2.1.4.6.6.6.2 0 .4-.1.5-.1.2 0 .4 0 .6-.1.2-.1.1-.3.3-.5.1-.1.3 0 .4-.1.2-.1.3-.3.4-.5v-.2c0-.1.1-.2.1-.3 0-.1-.1-.1-.1-.2v-.3c0-.2 0-.4-.1-.5-.4-.7-1.2-.9-2-.8-.2 0-.3.1-.4.2-.2.1-.1.2-.3.2-.1 0-.2.1-.2.2v.3c0 .1 0 .1 0 0M15.8-71.7v.2c-.1.1-.1.1-.2.1-.1.1-.1.3-.1.4-.2.1 0 .2 0 .3v.2c0 .1 0 .3.1.4.1.2.3.4.4.5.2.1.4.6.6.6.2 0 .4-.1.5-.1.2 0 .4 0 .6-.1.2-.1.1-.3.3-.5.1-.1.3 0 .4-.1.2-.1.3-.3.4-.5v-.2c0-.1.1-.2.1-.3 0-.1-.1-.1-.1-.2v-.3c0-.2 0-.4-.1-.5-.4-.7-1.2-.9-2-.8-.2 0-.3.1-.4.2-.2.1-.1.2-.3.2-.1 0-.2.1-.2.2v.3c0 .1 0 .1 0 0M8.1-71.7v.2l-.2.2c-.1.1-.1.3-.1.4-.2.1 0 .2 0 .3v.2c0 .1 0 .3.1.4.1.2.3.4.4.5.2.1.4.6.6.6.2 0 .4-.1.5-.1.2 0 .4 0 .6-.1.2-.1.1-.3.3-.5.1-.1.3 0 .4-.1.2-.1.3-.3.4-.5v-.2c0-.1.1-.2.1-.3 0-.1-.1-.1-.1-.2v-.3c0-.2 0-.4-.1-.5-.4-.7-1.2-.9-2-.8-.2 0-.3.1-.4.2-.2.1-.1.2-.3.2-.1 0-.2.1-.2.2v.2c0 .1 0 .1 0 0M.4-71.7v.2c-.1.1-.1.1-.2.1-.1.1-.1.3-.1.4-.2.1 0 .2 0 .3v.2c0 .1 0 .3.1.4.1.2.3.4.4.5.2.2.4.6.6.7.2 0 .4-.1.5-.1.2 0 .4 0 .6-.1.2-.1.1-.3.3-.5.1-.1.3 0 .4-.1.2-.1.3-.3.4-.5v-.2c0-.1.1-.2.1-.3 0-.1-.1-.1-.1-.2v-.3c0-.2 0-.4-.1-.5-.4-.7-1.2-.9-2-.8-.2 0-.3.1-.4.2-.2.1-.1.2-.3.2-.1 0-.2.1-.2.2v.2c0 .1 0 .1 0 0M69.4-71.7v.2c-.1.1-.1.1-.2.1-.1.1-.1.3-.1.4-.2.1 0 .2 0 .3v.2c0 .1 0 .3.1.4.1.2.3.4.4.5.2.1.4.6.6.6.2 0 .4-.1.5-.1.2 0 .4 0 .6-.1.2-.1.1-.3.3-.5.1-.1.3 0 .4-.1.2-.1.3-.3.4-.5v-.2c0-.1.1-.2.1-.3 0-.1-.1-.1-.1-.2v-.3c0-.2 0-.4-.1-.5-.4-.7-1.2-.9-2-.8-.2 0-.3.1-.4.2-.2.1-.1.2-.3.2-.1 0-.2.1-.2.2v.3c0 .1 0 .1 0 0"/><path class="st2" d="M.5-71.7v.2c-.1.1-.1.1-.2.1-.1.1-.1.3-.1.4-.2.1 0 .2 0 .3v.2c0 .1 0 .3.1.4.1.2.3.4.4.5.2.2.3.6.6.7.2 0 .4-.1.5-.1.2 0 .4 0 .6-.1.2-.1.1-.3.3-.5.1-.1.3 0 .4-.1.2-.1.3-.3.4-.5v-.2c0-.1.1-.2.1-.3 0-.1-.1-.1-.1-.2v-.3c0-.2 0-.4-.1-.5-.4-.7-1.2-.9-2-.8-.2 0-.3.1-.4.2-.2.1-.1.2-.3.2-.1 0-.2.1-.2.2v.2c0 .1 0 .1 0 0M69.4-64v.2c-.1.1-.1.1-.2.1-.1.1-.1.3-.1.4-.2.1 0 .2 0 .3v.2c0 .1 0 .3.1.4.1.2.3.4.4.5.2.1.4.6.6.6.2 0 .4-.1.5-.1.2 0 .4 0 .6-.1.2-.1.1-.3.3-.5.1-.1.3 0 .4-.1.2-.1.3-.3.4-.5v-.2c0-.1.1-.2.1-.3 0-.1-.1-.1-.1-.2v-.3c0-.2 0-.4-.1-.5-.4-.7-1.2-.9-2-.8-.2 0-.3.1-.4.2-.2.1-.1.2-.3.2-.1 0-.2.1-.2.2v.3M61.8-64v.2c-.1.1-.1.1-.2.1-.1.1-.1.3-.1.4-.2.1 0 .2 0 .3v.2c0 .1 0 .3.1.4.1.2.3.4.4.5.2.1.4.6.6.6.2 0 .4-.1.5-.1.2 0 .4 0 .6-.1.2-.1.1-.3.3-.5.1-.1.3 0 .4-.1.2-.1.3-.3.4-.5v-.2c0-.1.1-.2.1-.3 0-.1-.1-.1-.1-.2v-.3c0-.2 0-.4-.1-.5-.4-.7-1.2-.9-2-.8-.2 0-.3.1-.4.2-.2.1-.1.2-.3.2-.1 0-.2.1-.2.2v.3M54.1-64v.2c-.1.1-.1.1-.2.1-.1.1-.1.3-.1.4-.2.1 0 .2 0 .3v.2c0 .1 0 .3.1.4.1.2.3.4.4.5.2.1.4.6.6.6.2 0 .4-.1.5-.1.2 0 .4 0 .6-.1.2-.1.1-.3.3-.5.1-.1.3 0 .4-.1.2-.1.3-.3.4-.5v-.2c0-.1.1-.2.1-.3 0-.1-.1-.1-.1-.2v-.3c0-.2 0-.4-.1-.5-.4-.7-1.2-.9-2-.8-.2 0-.3.1-.4.2-.2.1-.1.2-.3.2-.1 0-.2.1-.2.2v.3M46.5-64v.2c-.1.1-.1.1-.2.1-.1.1-.1.3-.1.4-.2.1 0 .2 0 .3v.2c0 .1 0 .3.1.4.1.2.3.4.4.5.2.1.4.6.6.6.2 0 .4-.1.5-.1.2 0 .4 0 .6-.1.2-.1.1-.3.3-.5.1-.1.3 0 .4-.1.2-.1.3-.3.4-.5v-.2c0-.1.1-.2.1-.3 0-.1-.1-.1-.1-.2v-.3c0-.2 0-.4-.1-.5-.4-.7-1.2-.9-2-.8-.2 0-.3.1-.4.2-.2.1-.1.2-.3.2-.1 0-.2.1-.2.2v.3M38.8-64v.2c-.1.1-.1.1-.2.1-.1.1-.1.3-.1.4-.2.1 0 .2 0 .3v.2c0 .1 0 .3.1.4.1.2.3.4.4.5.2.1.4.6.6.6.2 0 .4-.1.5-.1.2 0 .4 0 .6-.1.2-.1.1-.3.3-.5.1-.1.3 0 .4-.1.2-.1.3-.3.4-.5v-.2c0-.1.1-.2.1-.3 0-.1-.1-.1-.1-.2v-.3c0-.2 0-.4-.1-.5-.4-.7-1.2-.9-2-.8-.2 0-.3.1-.4.2-.2.1-.1.2-.3.2-.1 0-.2.1-.2.2v.3M31.1-64v.2c-.1.1-.1.1-.2.1-.1.1-.1.3-.1.4-.2.1 0 .2 0 .3v.2c0 .1 0 .3.1.4.1.2.3.4.4.5.2.1.4.6.6.6.2 0 .4-.1.5-.1.2 0 .4 0 .6-.1.2-.1.1-.3.3-.5.1-.1.3 0 .4-.1.2-.1.3-.3.4-.5v-.2c0-.1.1-.2.1-.3 0-.1-.1-.1-.1-.2v-.3c0-.2 0-.4-.1-.5-.4-.7-1.2-.9-2-.8-.2 0-.3.1-.4.2-.2.1-.1.2-.3.2-.1 0-.2.1-.2.2v.3M23.5-64v.2c-.1.1-.1.1-.2.1-.1.1-.1.3-.1.4-.2.1 0 .2 0 .3v.2c0 .1 0 .3.1.4.1.2.3.4.4.5.2.1.4.6.6.6.2 0 .4-.1.5-.1.2 0 .4 0 .6-.1.2-.1.1-.3.3-.5.1-.1.3 0 .4-.1.2-.1.3-.3.4-.5v-.2c0-.1.1-.2.1-.3 0-.1-.1-.1-.1-.2v-.3c0-.2 0-.4-.1-.5-.4-.7-1.2-.9-2-.8-.2 0-.3.1-.4.2-.2.1-.1.2-.3.2-.1 0-.2.1-.2.2v.3M15.8-64v.2c-.1.1-.1.1-.2.1-.1.1-.1.3-.1.4-.2.1 0 .2 0 .3v.2c0 .1 0 .3.1.4.1.2.3.4.4.5.2.1.4.6.6.6.2 0 .4-.1.5-.1.2 0 .4 0 .6-.1.2-.1.1-.3.3-.5.1-.1.3 0 .4-.1.2-.1.3-.3.4-.5v-.2c0-.1.1-.2.1-.3 0-.1-.1-.1-.1-.2v-.3c0-.2 0-.4-.1-.5-.4-.7-1.2-.9-2-.8-.2 0-.3.1-.4.2-.2.1-.1.2-.3.2-.1 0-.2.1-.2.2v.3M8.2-64v.2c-.1.1-.2.1-.2.1-.1.1-.1.3-.1.4-.2.1 0 .2 0 .3v.2c0 .1 0 .3.1.4 0 .2.2.4.3.5.2.1.4.6.6.6.2 0 .4-.1.5-.1.2 0 .4 0 .6-.1.2-.1.1-.3.3-.5.1-.1.3 0 .4-.1.2-.1.3-.3.4-.5v-.2c0-.1.1-.2.1-.3 0-.1-.1-.1-.1-.2v-.3c0-.2 0-.4-.1-.5-.4-.7-1.2-.9-2-.8-.2 0-.3.1-.4.2-.2.1-.1.2-.3.2-.1 0-.2.1-.2.2.1.3.1.2.1.3-.1 0-.1 0 0 0M.5-64v.2c-.1.1-.1.1-.2.1-.1.1-.1.3-.1.4-.2.1 0 .2 0 .3v.2c0 .1 0 .3.1.4.1.2.3.4.4.5.2.1.4.6.6.6.2 0 .4-.1.5-.1.2 0 .4 0 .6-.1.2-.1.1-.3.3-.5.1 0 .3.1.4 0 .2-.1.3-.3.4-.5v-.2c0-.1.1-.2.1-.3 0-.1-.1-.1-.1-.2v-.3c0-.2 0-.4-.1-.5-.4-.7-1.2-.9-2-.8-.2 0-.3.1-.4.2-.2.1-.1.2-.3.2-.1 0-.2.1-.2.2v.2M69.4-56.3v.2c-.1.1-.1.1-.2.1-.1.1-.1.3-.1.4-.2.1 0 .2 0 .3v.2c0 .1 0 .3.1.4.1.2.3.4.4.5.2.1.4.6.6.6.2 0 .4-.1.5-.1.2 0 .4 0 .6-.1.2-.1.1-.3.3-.5.1-.1.3 0 .4-.1.2-.1.3-.3.4-.5v-.2c0-.1.1-.2.1-.3 0-.1-.1-.1-.1-.2v-.3c0-.2 0-.4-.1-.5-.4-.7-1.2-.9-2-.8-.2 0-.3.1-.4.2-.2.1-.1.2-.3.2-.1 0-.2.1-.2.2v.3M61.8-56.3v.2c-.1.1-.1.1-.2.1-.1.1-.1.3-.1.4-.2.1 0 .2 0 .3v.2c0 .1 0 .3.1.4.1.2.3.4.4.5.2.1.4.6.6.6.2 0 .4-.1.5-.1.2 0 .4 0 .6-.1.2-.1.1-.3.3-.5.1-.1.3 0 .4-.1.2-.1.3-.3.4-.5v-.2c0-.1.1-.2.1-.3 0-.1-.1-.1-.1-.2v-.3c0-.2 0-.4-.1-.5-.4-.7-1.2-.9-2-.8-.2 0-.3.1-.4.2-.2.1-.1.2-.3.2-.1 0-.2.1-.2.2v.3M54.1-56.3v.2c-.1 0-.1 0-.2.1s-.1.3-.1.4c-.2.1 0 .2 0 .3v.2c0 .1 0 .3.1.4.1.2.3.4.4.5.2.1.4.6.6.6.2 0 .4-.1.5-.1.2 0 .4 0 .6-.1.2-.1.1-.3.3-.5.1-.1.3 0 .4-.1.2-.1.3-.3.4-.5v-.2c0-.1.1-.2.1-.3 0-.1-.1-.1-.1-.2v-.3c0-.2 0-.4-.1-.5-.4-.7-1.2-.9-2-.8-.2 0-.3.1-.4.2-.2.1-.1.2-.3.2-.1 0-.2.1-.2.2v.3M46.5-56.3v.2c-.1.1-.1.1-.2.1-.1.1-.1.3-.1.4-.2.1 0 .2 0 .3v.2c0 .1 0 .3.1.4.1.2.3.4.4.5.2.1.4.6.6.6.2 0 .4-.1.5-.1.2 0 .4 0 .6-.1.2-.1.1-.3.3-.5.1-.1.3 0 .4-.1.2-.1.3-.3.4-.5v-.2c0-.1.1-.2.1-.3 0-.1-.1-.1-.1-.2v-.3c0-.2 0-.4-.1-.5-.4-.7-1.2-.9-2-.8-.2 0-.3.1-.4.2-.2.1-.1.2-.3.2-.1 0-.2.1-.2.2v.3M38.8-56.3v.2c-.1.1-.1.1-.2.1-.1.1-.1.3-.1.4-.2.1 0 .2 0 .3v.2c0 .1 0 .3.1.4.1.2.3.4.4.5.2.1.4.6.6.6.2 0 .4-.1.5-.1.2 0 .4 0 .6-.1.2-.1.1-.3.3-.5.1-.1.3 0 .4-.1.2-.1.3-.3.4-.5v-.2c0-.1.1-.2.1-.3 0-.1-.1-.1-.1-.2v-.3c0-.2 0-.4-.1-.5-.4-.7-1.2-.9-2-.8-.2 0-.3.1-.4.2-.2.1-.1.2-.3.2-.1 0-.2.1-.2.2v.3M31.1-56.3v.2c-.1.1-.1.1-.2.1-.1.1-.1.3-.1.4-.2.1 0 .2 0 .3v.2c0 .1 0 .3.1.4.1.2.3.4.4.5.2.1.4.6.6.6.2 0 .4-.1.5-.1.2 0 .4 0 .6-.1.2-.1.1-.3.3-.5.1-.1.3 0 .4-.1.2-.1.3-.3.4-.5v-.2c0-.1.1-.2.1-.3 0-.1-.1-.1-.1-.2v-.3c0-.2 0-.4-.1-.5-.4-.7-1.2-.9-2-.8-.2 0-.3.1-.4.2-.2.1-.1.2-.3.2-.1 0-.2.1-.2.2v.3M23.5-56.3v.2c-.1.1-.1.1-.2.1-.1.1-.1.3-.1.4-.2.1 0 .2 0 .3v.2c0 .1 0 .3.1.4.1.2.3.4.4.5.2.1.4.6.6.6.2 0 .4-.1.5-.1.2 0 .4 0 .6-.1.2-.1.1-.3.3-.5.1-.1.3 0 .4-.1.2-.1.3-.3.4-.5v-.2c0-.1.1-.2.1-.3 0-.1-.1-.1-.1-.2v-.3c0-.2 0-.4-.1-.5-.4-.7-1.2-.9-2-.8-.2 0-.3.1-.4.2-.2.1-.1.2-.3.2-.1 0-.2.1-.2.2v.3M15.8-56.3v.2c-.1.1-.1.1-.2.1-.1.1-.1.3-.1.4-.2.1 0 .2 0 .3v.2c0 .1 0 .3.1.4.1.2.3.4.4.5.2.1.4.6.6.6.2 0 .4-.1.5-.1.2 0 .4 0 .6-.1.2-.1.1-.3.3-.5.1-.1.3 0 .4-.1.2-.1.3-.3.4-.5v-.2c0-.1.1-.2.1-.3 0-.1-.1-.1-.1-.2v-.3c0-.2 0-.4-.1-.5-.4-.7-1.2-.9-2-.8-.2 0-.3.1-.4.2-.2.1-.1.2-.3.2-.1 0-.2.1-.2.2v.3M8.2-56.3v.2c-.1 0-.2 0-.2.1-.1.1-.1.3-.1.4-.2.1 0 .2 0 .3v.2c0 .1 0 .3.1.4.1.2.3.4.4.5.2.1.4.6.6.6.2 0 .4-.1.5-.1.2 0 .4 0 .6-.1.2-.1.1-.3.3-.5.1-.1.3 0 .4-.1.2-.1.3-.3.4-.5v-.2c0-.1.1-.2.1-.3 0-.1-.1-.1-.1-.2v-.3c0-.2 0-.4-.1-.5-.4-.7-1.2-.9-2-.8-.2 0-.3.1-.4.2-.2.1-.1.2-.3.2-.1 0-.2.1-.2.2v.3c-.1 0-.1 0 0 0M.5-56.3v.2c-.1.1-.1.1-.2.1-.1.1-.1.3-.1.4-.2.1 0 .2 0 .3v.2c0 .1 0 .3.1.4.1.2.3.4.4.5.2.1.4.6.6.6.2 0 .4-.1.5-.1.2 0 .4 0 .6-.1.2-.1.1-.3.3-.5.1-.1.3 0 .4-.1.2-.1.3-.3.4-.5v-.2c0-.1.1-.2.1-.3 0-.1-.1-.1-.1-.2v-.3c0-.2 0-.4-.1-.5-.4-.7-1.2-.9-2-.8-.2 0-.3.1-.4.2-.2.1-.1.2-.3.2-.1 0-.2.1-.2.2v.3M69.4-48.7v.2c-.1.1-.1.1-.2.1-.1.1-.1.3-.1.4-.2.1 0 .2 0 .3v.2c0 .1 0 .3.1.4.1.2.3.4.4.5.2.1.4.6.6.6.2 0 .4-.1.5-.1.2 0 .4 0 .6-.1.2-.1.1-.3.3-.5.1-.1.3 0 .4-.1.2-.1.3-.3.4-.5v-.2c0-.1.1-.2.1-.3 0-.1-.1-.1-.1-.2v-.3c0-.2 0-.4-.1-.5-.4-.7-1.2-.9-2-.8-.2 0-.3.1-.4.2-.2.1-.1.2-.3.2-.1 0-.2.1-.2.2v.3M61.8-48.7v.2c-.1.1-.1.1-.2.1-.1.1-.1.3-.1.4-.2.1 0 .2 0 .3v.2c0 .1 0 .3.1.4.1.2.3.4.4.5.2.1.4.6.6.6.2 0 .4-.1.5-.1.2 0 .4 0 .6-.1.2-.1.1-.3.3-.5.1-.1.3 0 .4-.1.2-.1.3-.3.4-.5v-.2c0-.1.1-.2.1-.3 0-.1-.1-.1-.1-.2v-.3c0-.2 0-.4-.1-.5-.4-.7-1.2-.9-2-.8-.2 0-.3.1-.4.2-.2.1-.1.2-.3.2-.1 0-.2.1-.2.2v.3M54.1-48.7v.2c-.1.1-.1.1-.2.1-.1.1-.1.3-.1.4-.2.1 0 .2 0 .3v.2c0 .1 0 .3.1.4.1.2.3.4.4.5.2.1.4.6.6.6.2 0 .4-.1.5-.1.2 0 .4 0 .6-.1.2-.1.1-.3.3-.5.1-.1.3 0 .4-.1.2-.1.3-.3.4-.5v-.2c0-.1.1-.2.1-.3 0-.1-.1-.1-.1-.2v-.3c0-.2 0-.4-.1-.5-.4-.7-1.2-.9-2-.8-.2 0-.3.1-.4.2-.2.1-.1.2-.3.2-.1 0-.2.1-.2.2v.3M46.5-48.7v.2c-.1.1-.1.1-.2.1-.1.1-.1.3-.1.4-.2.1 0 .2 0 .3v.2c0 .1 0 .3.1.4.1.2.3.4.4.5.2.1.4.6.6.6.2 0 .4-.1.5-.1.2 0 .4 0 .6-.1.2-.1.1-.3.3-.5.1-.1.3 0 .4-.1.2-.1.3-.3.4-.5v-.2c0-.1.1-.2.1-.3 0-.1-.1-.1-.1-.2v-.3c0-.2 0-.4-.1-.5-.4-.7-1.2-.9-2-.8-.2 0-.3.1-.4.2-.2.1-.1.2-.3.2-.1 0-.2.1-.2.2v.3M38.8-48.7v.2c-.1.1-.1.1-.2.1-.1.1-.1.3-.1.4-.2.1 0 .2 0 .3v.2c0 .1 0 .3.1.4.1.2.3.4.4.5.2.1.4.6.6.6.2 0 .4-.1.5-.1.2 0 .4 0 .6-.1.2-.1.1-.3.3-.5.1-.1.3 0 .4-.1.2-.1.3-.3.4-.5v-.2c0-.1.1-.2.1-.3 0-.1-.1-.1-.1-.2v-.3c0-.2 0-.4-.1-.5-.4-.7-1.2-.9-2-.8-.2 0-.3.1-.4.2-.2.1-.1.2-.3.2-.1 0-.2.1-.2.2v.3M31.1-48.7v.2c-.1.1-.1.1-.2.1-.1.1-.1.3-.1.4-.2.1 0 .2 0 .3v.2c0 .1 0 .3.1.4.1.2.3.4.4.5.2.1.4.6.6.6.2 0 .4-.1.5-.1.2 0 .4 0 .6-.1.2-.1.1-.3.3-.5.1-.1.3 0 .4-.1.2-.1.3-.3.4-.5v-.2c0-.1.1-.2.1-.3 0-.1-.1-.1-.1-.2v-.3c0-.2 0-.4-.1-.5-.4-.7-1.2-.9-2-.8-.2 0-.3.1-.4.2-.2.1-.1.2-.3.2-.1 0-.2.1-.2.2v.3M23.5-48.7v.2c-.1.1-.1.1-.2.1-.1.1-.1.3-.1.4-.2.1 0 .2 0 .3v.2c0 .1 0 .3.1.4.1.2.3.4.4.5.2.1.4.6.6.6.2 0 .4-.1.5-.1.2 0 .4 0 .6-.1.2-.1.1-.3.3-.5.1-.1.3 0 .4-.1.2-.1.3-.3.4-.5v-.2c0-.1.1-.2.1-.3 0-.1-.1-.1-.1-.2v-.3c0-.2 0-.4-.1-.5-.4-.7-1.2-.9-2-.8-.2 0-.3.1-.4.2-.2.1-.1.2-.3.2-.1 0-.2.1-.2.2v.3M15.8-48.7v.2c-.1.1-.1.1-.2.1-.1.1-.1.3-.1.4-.2.1 0 .2 0 .3v.2c0 .1 0 .3.1.4.1.2.3.4.4.5.2.1.4.6.6.6.2 0 .4-.1.5-.1.2 0 .4 0 .6-.1.2-.1.1-.3.3-.5.1-.1.3 0 .4-.1.2-.1.3-.3.4-.5v-.2c0-.1.1-.2.1-.3 0-.1-.1-.1-.1-.2v-.3c0-.2 0-.4-.1-.5-.4-.7-1.2-.9-2-.8-.2 0-.3.1-.4.2-.2.1-.1.2-.3.2-.1 0-.2.1-.2.2v.3M8.2-48.7v.2c-.1.1-.2.1-.2.1-.1.1-.1.3-.1.4-.2.1 0 .2 0 .3v.2c0 .1 0 .3.1.4.1.2.3.4.4.5.1.2.3.6.5.6s.4-.1.5-.1c.2 0 .4 0 .6-.1.2-.1.1-.3.3-.5.1-.1.3 0 .4-.1.2-.1.3-.3.4-.5v-.2c0-.1.1-.2.1-.3 0-.1-.1-.1-.1-.2v-.3c0-.2 0-.4-.1-.5-.4-.7-1.2-.9-2-.8-.2 0-.3.1-.4.2-.2.1-.1.2-.3.2-.1 0-.2.1-.2.2.1.3.1.2.1.3-.1 0-.1 0 0 0M.5-48.7v.2c-.1.1-.1.1-.2.1-.1.1-.1.3-.1.4-.2.1 0 .2 0 .3v.2c0 .1 0 .3.1.4.1.2.3.4.4.5.2.2.3.6.6.6.2 0 .4-.1.5-.1.2 0 .4 0 .6-.1.2-.1.1-.3.3-.5.1-.1.3 0 .4-.1.2-.1.3-.3.4-.5v-.2c0-.1.1-.2.1-.3 0-.1-.1-.1-.1-.2v-.3c0-.2 0-.4-.1-.5-.4-.7-1.2-.9-2-.8-.2 0-.3.1-.4.2-.2.1-.1.2-.3.2-.1 0-.2.1-.2.2v.3M69.4-41v.2c-.1.1-.1.1-.2.1-.1.1-.1.3-.1.4-.2.1 0 .2 0 .3v.2c0 .1 0 .3.1.4.1.2.3.4.4.5.2.1.4.6.6.6.2 0 .4-.1.5-.1.2 0 .4 0 .6-.1.2-.1.1-.3.3-.5.1-.1.3 0 .4-.1.2-.1.3-.3.4-.5v-.2c0-.1.1-.2.1-.3 0-.1-.1-.1-.1-.2v-.3c0-.2 0-.4-.1-.5-.4-.7-1.2-.9-2-.8-.2 0-.3.1-.4.2-.2.1-.1.2-.3.2-.1 0-.2.1-.2.2v.3M61.8-41v.2c-.1.1-.1.1-.2.1-.1.1-.1.3-.1.4-.2.1 0 .2 0 .3v.2c0 .1 0 .3.1.4.1.2.3.4.4.5.2.1.4.6.6.6.2 0 .4-.1.5-.1.2 0 .4 0 .6-.1.2-.1.1-.3.3-.5.1-.1.3 0 .4-.1.2-.1.3-.3.4-.5v-.2c0-.1.1-.2.1-.3 0-.1-.1-.1-.1-.2v-.3c0-.2 0-.4-.1-.5-.4-.7-1.2-.9-2-.8-.2 0-.3.1-.4.2-.2.1-.1.2-.3.2-.1 0-.2.1-.2.2v.3M54.1-41v.2c-.1.1-.1.1-.2.1-.1.1-.1.3-.1.4-.2.1 0 .2 0 .3v.2c0 .1 0 .3.1.4.1.2.3.4.4.5.2.1.4.6.6.6.2 0 .4-.1.5-.1.2 0 .4 0 .6-.1.2-.1.1-.3.3-.5.1-.1.3 0 .4-.1.2-.1.3-.3.4-.5v-.2c0-.1.1-.2.1-.3 0-.1-.1-.1-.1-.2v-.3c0-.2 0-.4-.1-.5-.4-.7-1.2-.9-2-.8-.2 0-.3.1-.4.2-.2.1-.1.2-.3.2-.1 0-.2.1-.2.2v.3M46.5-41v.2c-.1.1-.1.1-.2.1-.1.1-.1.3-.1.4-.2.1 0 .2 0 .3v.2c0 .1 0 .3.1.4.1.2.3.4.4.5.2.1.4.6.6.6.2 0 .4-.1.5-.1.2 0 .4 0 .6-.1.2-.1.1-.3.3-.5.1-.1.3 0 .4-.1.2-.1.3-.3.4-.5v-.2c0-.1.1-.2.1-.3 0-.1-.1-.1-.1-.2v-.3c0-.2 0-.4-.1-.5-.4-.7-1.2-.9-2-.8-.2 0-.3.1-.4.2-.2.1-.1.2-.3.2-.1 0-.2.1-.2.2v.3M38.8-41v.2c-.1.1-.1.1-.2.1-.1.1-.1.3-.1.4-.2.1 0 .2 0 .3v.2c0 .1 0 .3.1.4.1.2.3.4.4.5.2.1.4.6.6.6.2 0 .4-.1.5-.1.2 0 .4 0 .6-.1.2-.1.1-.3.3-.5.1-.1.3 0 .4-.1.2-.1.3-.3.4-.5v-.2c0-.1.1-.2.1-.3 0-.1-.1-.1-.1-.2v-.3c0-.2 0-.4-.1-.5-.4-.7-1.2-.9-2-.8-.2 0-.3.1-.4.2-.2.1-.1.2-.3.2-.1 0-.2.1-.2.2v.3M31.1-41v.2c-.1.1-.1.1-.2.1-.1.1-.1.3-.1.4-.2.1 0 .2 0 .3v.2c0 .1 0 .3.1.4.1.2.3.4.4.5.2.1.4.6.6.6.2 0 .4-.1.5-.1.2 0 .4 0 .6-.1.2-.1.1-.3.3-.5.1-.1.3 0 .4-.1.2-.1.3-.3.4-.5v-.2c0-.1.1-.2.1-.3 0-.1-.1-.1-.1-.2v-.3c0-.2 0-.4-.1-.5-.4-.7-1.2-.9-2-.8-.2 0-.3.1-.4.2-.2.1-.1.2-.3.2-.1 0-.2.1-.2.2v.3M23.5-41v.2c-.1.1-.1.1-.2.1-.1.1-.1.3-.1.4-.2.1 0 .2 0 .3v.2c0 .1 0 .3.1.4.1.2.3.4.4.5.2.1.4.6.6.6.2 0 .4-.1.5-.1.2 0 .4 0 .6-.1.2-.1.1-.3.3-.5.1-.1.3 0 .4-.1.2-.1.3-.3.4-.5v-.2c0-.1.1-.2.1-.3 0-.1-.1-.1-.1-.2v-.3c0-.2 0-.4-.1-.5-.4-.7-1.2-.9-2-.8-.2 0-.3.1-.4.2-.2.1-.1.2-.3.2-.1 0-.2.1-.2.2v.3M15.8-41v.2c-.1.1-.1.1-.2.1-.1.1-.1.3-.1.4-.2.1 0 .2 0 .3v.2c0 .1 0 .3.1.4.1.2.3.4.4.5.2.1.4.6.6.6.2 0 .4-.1.5-.1.2 0 .4 0 .6-.1.2-.1.1-.3.3-.5.1-.1.3 0 .4-.1.2-.1.3-.3.4-.5v-.2c0-.1.1-.2.1-.3 0-.1-.1-.1-.1-.2v-.3c0-.2 0-.4-.1-.5-.4-.7-1.2-.9-2-.8-.2 0-.3.1-.4.2-.2.1-.1.2-.3.2-.1 0-.2.1-.2.2v.3M8.2-41v.2c-.1 0-.2 0-.2.1-.1.1-.1.3-.1.4-.2.1 0 .2 0 .3v.2c0 .1 0 .3.1.4.1.2.3.4.4.5.2.1.4.6.6.6.2 0 .4-.1.5-.1.2 0 .4 0 .6-.1.2-.1.1-.3.3-.5.1-.1.3 0 .4-.1.2-.1.3-.3.4-.5v-.2c0-.1.1-.2.1-.3 0-.1-.1-.1-.1-.2v-.3c0-.2 0-.4-.1-.5-.4-.7-1.2-.9-2-.8-.2 0-.3.1-.4.2-.2.1-.1.2-.3.2-.1 0-.2.1-.2.2v.3c-.1 0-.1 0 0 0M.5-41v.2c-.1.1-.1.1-.2.1-.1.1-.1.3-.1.4-.2.1 0 .2 0 .3v.2c0 .1 0 .3.1.4.1.2.3.4.4.5.2.1.4.6.6.6.2 0 .4-.1.5-.1.2 0 .4 0 .6-.1.2-.1.1-.3.3-.5h.4c.2-.1.3-.3.4-.5v-.2c0-.1.1-.2.1-.3 0-.1-.1-.1-.1-.2v-.3c0-.2 0-.4-.1-.5-.4-.7-1.2-.9-2-.8-.2 0-.3.1-.4.2-.2.1-.1.2-.3.2-.1 0-.2.1-.2.2v.2M69.4-33.4v.2c-.1.1-.1.1-.2.1-.1.1-.1.3-.1.4-.2.1 0 .2 0 .3v.2c0 .1 0 .3.1.4.1.2.3.4.4.5.2.1.4.6.6.6.2 0 .4-.1.5-.1.2 0 .4 0 .6-.1.2-.1.1-.3.3-.5.1-.1.3 0 .4-.1.2-.1.3-.3.4-.5v-.2c0-.1.1-.2.1-.3 0-.1-.1-.1-.1-.2v-.3c0-.2 0-.4-.1-.5-.4-.7-1.2-.9-2-.8-.2 0-.3.1-.4.2-.2.1-.1.2-.3.2-.1 0-.2.1-.2.2v.3M61.8-33.4v.2c-.1.1-.1.1-.2.1-.1.1-.1.3-.1.4-.2.1 0 .2 0 .3v.2c0 .1 0 .3.1.4.1.2.3.4.4.5.2.1.4.6.6.6.2 0 .4-.1.5-.1.2 0 .4 0 .6-.1.2-.1.1-.3.3-.5.1-.1.3 0 .4-.1.2-.1.3-.3.4-.5v-.2c0-.1.1-.2.1-.3 0-.1-.1-.1-.1-.2v-.3c0-.2 0-.4-.1-.5-.4-.7-1.2-.9-2-.8-.2 0-.3.1-.4.2-.2.1-.1.2-.3.2-.1 0-.2.1-.2.2v.3M54.1-33.4v.2c-.1.1-.1.1-.2.1-.1.1-.1.3-.1.4-.2.1 0 .2 0 .3v.2c0 .1 0 .3.1.4.1.2.3.4.4.5.2.1.4.6.6.6.2 0 .4-.1.5-.1.2 0 .4 0 .6-.1.2-.1.1-.3.3-.5.1-.1.3 0 .4-.1.2-.1.3-.3.4-.5v-.2c0-.1.1-.2.1-.3 0-.1-.1-.1-.1-.2v-.3c0-.2 0-.4-.1-.5-.4-.7-1.2-.9-2-.8-.2 0-.3.1-.4.2-.2.1-.1.2-.3.2-.1 0-.2.1-.2.2v.3M46.5-33.4v.2c-.1.1-.1.1-.2.1-.1.1-.1.3-.1.4-.2.1 0 .2 0 .3v.2c0 .1 0 .3.1.4.1.2.3.4.4.5.2.1.4.6.6.6.2 0 .4-.1.5-.1.2 0 .4 0 .6-.1.2-.1.1-.3.3-.5.1-.1.3 0 .4-.1.2-.1.3-.3.4-.5v-.2c0-.1.1-.2.1-.3 0-.1-.1-.1-.1-.2v-.3c0-.2 0-.4-.1-.5-.4-.7-1.2-.9-2-.8-.2 0-.3.1-.4.2-.2.1-.1.2-.3.2-.1 0-.2.1-.2.2v.3M38.8-33.4v.2c-.1.1-.1.1-.2.1-.1.1-.1.3-.1.4-.2.1 0 .2 0 .3v.2c0 .1 0 .3.1.4.1.2.3.4.4.5.2.1.4.6.6.6.2 0 .4-.1.5-.1.2 0 .4 0 .6-.1.2-.1.1-.3.3-.5.1-.1.3 0 .4-.1.2-.1.3-.3.4-.5v-.2c0-.1.1-.2.1-.3 0-.1-.1-.1-.1-.2v-.3c0-.2 0-.4-.1-.5-.4-.7-1.2-.9-2-.8-.2 0-.3.1-.4.2-.2.1-.1.2-.3.2-.1 0-.2.1-.2.2v.3M31.1-33.4v.2c-.1.1-.1.1-.2.1-.1.1-.1.3-.1.4-.2.1 0 .2 0 .3v.2c0 .1 0 .3.1.4.1.2.3.4.4.5.2.1.4.6.6.6.2 0 .4-.1.5-.1.2 0 .4 0 .6-.1.2-.1.1-.3.3-.5.1-.1.3 0 .4-.1.2-.1.3-.3.4-.5v-.2c0-.1.1-.2.1-.3 0-.1-.1-.1-.1-.2v-.3c0-.2 0-.4-.1-.5-.4-.7-1.2-.9-2-.8-.2 0-.3.1-.4.2-.2.1-.1.2-.3.2-.1 0-.2.1-.2.2v.3M23.5-33.4v.2c-.1.1-.1.1-.2.1-.1.1-.1.3-.1.4-.2.1 0 .2 0 .3v.2c0 .1 0 .3.1.4.1.2.3.4.4.5.2.1.4.6.6.6.2 0 .4-.1.5-.1.2 0 .4 0 .6-.1.2-.1.1-.3.3-.5.1-.1.3 0 .4-.1.2-.1.3-.3.4-.5v-.2c0-.1.1-.2.1-.3 0-.1-.1-.1-.1-.2v-.3c0-.2 0-.4-.1-.5-.4-.7-1.2-.9-2-.8-.2 0-.3.1-.4.2-.2.1-.1.2-.3.2-.1 0-.2.1-.2.2v.3M15.8-33.4v.2c-.1.1-.1.1-.2.1-.1.1-.1.3-.1.4-.2.1 0 .2 0 .3v.2c0 .1 0 .3.1.4.1.2.3.4.4.5.2.1.4.6.6.6.2 0 .4-.1.5-.1.2 0 .4 0 .6-.1.2-.1.1-.3.3-.5.1-.1.3 0 .4-.1.2-.1.3-.3.4-.5v-.2c0-.1.1-.2.1-.3 0-.1-.1-.1-.1-.2v-.3c0-.2 0-.4-.1-.5-.4-.7-1.2-.9-2-.8-.2 0-.3.1-.4.2-.2.1-.1.2-.3.2-.1 0-.2.1-.2.2v.3M8.2-33.4v.2c-.1.1-.2.1-.2.1-.1.1-.1.3-.1.4-.2.1 0 .2 0 .3v.2c0 .1 0 .3.1.4.1.2.3.4.4.5.2.1.4.6.6.6.2 0 .4-.1.5-.1.2 0 .4 0 .6-.1.2-.1.1-.3.3-.5.1-.1.3 0 .4-.1.2-.1.3-.3.4-.5v-.2c0-.1.1-.2.1-.3 0-.1-.1-.1-.1-.2v-.3c0-.2 0-.4-.1-.5-.4-.7-1.2-.9-2-.8-.2 0-.3.1-.4.2-.2.1-.1.2-.3.2-.1 0-.2.1-.2.2v.3c-.1 0-.1 0 0 0M.5-33.4v.2c-.1.1-.1.1-.2.1-.1.1-.1.3-.1.4-.2.1 0 .2 0 .3v.2c0 .1 0 .3.1.4.1.2.3.4.4.5.2.1.4.6.6.6.2 0 .4-.1.5-.1.2 0 .4 0 .6-.1.2-.1.1-.3.3-.5.1-.1.3 0 .4-.1.2-.1.3-.3.4-.5v-.2c0-.1.1-.2.1-.3 0-.1-.1-.1-.1-.2v-.3c0-.2 0-.4-.1-.5-.4-.7-1.2-.9-2-.8-.2 0-.3.1-.4.2-.2.1-.1.2-.3.2-.1 0-.2.1-.2.2v.3M69.4-25.7v.2c-.1.1-.1.1-.2.1-.1.1-.1.3-.1.4-.2.1 0 .2 0 .3v.2c0 .1 0 .3.1.4.1.2.3.4.4.5.2.1.4.6.6.6.2 0 .4-.1.5-.1.2 0 .4 0 .6-.1.2-.1.1-.3.3-.5.1-.1.3 0 .4-.1.2-.1.3-.3.4-.5v-.2c0-.1.1-.2.1-.3 0-.1-.1-.1-.1-.2v-.3c0-.2 0-.4-.1-.5-.4-.7-1.2-.9-2-.8-.2 0-.3.1-.4.2-.2.1-.1.2-.3.2-.1 0-.2.1-.2.2v.3M61.8-25.7v.2c-.1.1-.1.1-.2.1-.1.1-.1.3-.1.4-.2.1 0 .2 0 .3v.2c0 .1 0 .3.1.4.1.2.3.4.4.5.2.1.4.6.6.6.2 0 .4-.1.5-.1.2 0 .4 0 .6-.1.2-.1.1-.3.3-.5.1-.1.3 0 .4-.1.2-.1.3-.3.4-.5v-.2c0-.1.1-.2.1-.3 0-.1-.1-.1-.1-.2v-.3c0-.2 0-.4-.1-.5-.4-.7-1.2-.9-2-.8-.2 0-.3.1-.4.2-.2.1-.1.2-.3.2-.1 0-.2.1-.2.2v.3M54.1-25.7v.2c-.1.1-.1.1-.2.1-.1.1-.1.3-.1.4-.2.1 0 .2 0 .3v.2c0 .1 0 .3.1.4.1.2.3.4.4.5.2.1.4.6.6.6.2 0 .4-.1.5-.1.2 0 .4 0 .6-.1.2-.1.1-.3.3-.5.1-.1.3 0 .4-.1.2-.1.3-.3.4-.5v-.2c0-.1.1-.2.1-.3 0-.1-.1-.1-.1-.2v-.3c0-.2 0-.4-.1-.5-.4-.7-1.2-.9-2-.8-.2 0-.3.1-.4.2-.2.1-.1.2-.3.2-.1 0-.2.1-.2.2v.3M46.5-25.7v.2c-.1.1-.1.1-.2.1-.1.1-.1.3-.1.4-.2.1 0 .2 0 .3v.2c0 .1 0 .3.1.4.1.2.3.4.4.5.2.1.4.6.6.6.2 0 .4-.1.5-.1.2 0 .4 0 .6-.1.2-.1.1-.3.3-.5.1-.1.3 0 .4-.1.2-.1.3-.3.4-.5v-.2c0-.1.1-.2.1-.3 0-.1-.1-.1-.1-.2v-.3c0-.2 0-.4-.1-.5-.4-.7-1.2-.9-2-.8-.2 0-.3.1-.4.2-.2.1-.1.2-.3.2-.1 0-.2.1-.2.2v.3M38.8-25.7v.2c-.1.1-.1.1-.2.1-.1.1-.1.3-.1.4-.2.1 0 .2 0 .3v.2c0 .1 0 .3.1.4.1.2.3.4.4.5.2.1.4.6.6.6.2 0 .4-.1.5-.1.2 0 .4 0 .6-.1.2-.1.1-.3.3-.5.1-.1.3 0 .4-.1.2-.1.3-.3.4-.5v-.2c0-.1.1-.2.1-.3 0-.1-.1-.1-.1-.2v-.3c0-.2 0-.4-.1-.5-.4-.7-1.2-.9-2-.8-.2 0-.3.1-.4.2-.2.1-.1.2-.3.2-.1 0-.2.1-.2.2v.3M31.1-25.7v.2c-.1.1-.1.1-.2.1-.1.1-.1.3-.1.4-.2.1 0 .2 0 .3v.2c0 .1 0 .3.1.4.1.2.3.4.4.5.2.1.4.6.6.6.2 0 .4-.1.5-.1.2 0 .4 0 .6-.1.2-.1.1-.3.3-.5.1-.1.3 0 .4-.1.2-.1.3-.3.4-.5v-.2c0-.1.1-.2.1-.3 0-.1-.1-.1-.1-.2v-.3c0-.2 0-.4-.1-.5-.4-.7-1.2-.9-2-.8-.2 0-.3.1-.4.2-.2.1-.1.2-.3.2-.1 0-.2.1-.2.2v.3M23.5-25.7v.2c-.1.1-.1.1-.2.1-.1.1-.1.3-.1.4-.2.1 0 .2 0 .3v.2c0 .1 0 .3.1.4.1.2.3.4.4.5.2.1.4.6.6.6.2 0 .4-.1.5-.1.2 0 .4 0 .6-.1.2-.1.1-.3.3-.5.1-.1.3 0 .4-.1.2-.1.3-.3.4-.5v-.2c0-.1.1-.2.1-.3 0-.1-.1-.1-.1-.2v-.3c0-.2 0-.4-.1-.5-.4-.7-1.2-.9-2-.8-.2 0-.3.1-.4.2-.2.1-.1.2-.3.2-.1 0-.2.1-.2.2v.3M15.8-25.7v.2c-.1.1-.1.1-.2.1-.1.1-.1.3-.1.4-.2.1 0 .2 0 .3v.2c0 .1 0 .3.1.4.1.2.3.4.4.5.2.1.4.6.6.6.2 0 .4-.1.5-.1.2 0 .4 0 .6-.1.2-.1.1-.3.3-.5.1-.1.3 0 .4-.1.2-.1.3-.3.4-.5v-.2c0-.1.1-.2.1-.3 0-.1-.1-.1-.1-.2v-.3c0-.2 0-.4-.1-.5-.4-.7-1.2-.9-2-.8-.2 0-.3.1-.4.2-.2.1-.1.2-.3.2-.1 0-.2.1-.2.2v.3M8.2-25.7v.2c-.1.1-.2 0-.2.1-.1.1-.1.3-.1.4-.2.1 0 .2 0 .3v.2c0 .1 0 .3.1.4 0 .1.2.3.3.5.2.1.4.6.6.6.2 0 .4-.1.5-.1.2 0 .4 0 .6-.1.2-.1.1-.3.3-.5.1-.1.3 0 .4-.1.2-.1.3-.3.4-.5v-.2c0-.1.1-.2.1-.3 0-.1-.1-.1-.1-.2v-.3c0-.2 0-.4-.1-.5-.4-.7-1.2-.9-2-.8-.2 0-.3.1-.4.2-.2.1-.1.2-.3.2-.1 0-.2.1-.2.2.1.2.1.2.1.3-.1 0-.1 0 0 0M.5-25.7v.2c-.1.1-.1.1-.2.1-.1.1-.1.3-.1.4-.2.1 0 .2 0 .3v.2c0 .1 0 .3.1.4.1.2.3.4.4.5.2.1.3.5.6.6.2 0 .4-.1.5-.1.2 0 .4 0 .6-.1.2-.1.1-.3.3-.5.1-.1.3 0 .4-.1.2-.1.3-.3.4-.5v-.2c0-.1.1-.2.1-.3 0-.1-.1-.1-.1-.2v-.3c0-.2 0-.4-.1-.5-.4-.7-1.2-.9-2-.8-.2 0-.3.1-.4.2-.2.1-.1.2-.3.2-.1 0-.2.1-.2.2v.3M69.4-18.1v.2c-.1.1-.1.1-.2.1-.1.1-.1.3-.1.4-.2.1 0 .2 0 .3v.2c0 .1 0 .3.1.4.1.2.3.4.4.5.2.1.4.6.6.6.2 0 .4-.1.5-.1.2 0 .4 0 .6-.1.2-.1.1-.3.3-.5.1-.1.3 0 .4-.1.2-.1.3-.3.4-.5v-.2c0-.1.1-.2.1-.3 0-.1-.1-.1-.1-.2v-.3c0-.2 0-.4-.1-.5-.4-.7-1.2-.9-2-.8-.2 0-.3.1-.4.2-.2.1-.1.2-.3.2-.1 0-.2.1-.2.2v.3c0 .1 0 0 0 0M61.8-18.1v.2c-.1.1-.1.1-.2.1-.1.1-.1.3-.1.4-.2.1 0 .2 0 .3v.2c0 .1 0 .3.1.4.1.2.3.4.4.5.2.1.4.6.6.6.2 0 .4-.1.5-.1.2 0 .4 0 .6-.1.2-.1.1-.3.3-.5.1-.1.3 0 .4-.1.2-.1.3-.3.4-.5v-.2c0-.1.1-.2.1-.3 0-.1-.1-.1-.1-.2v-.3c0-.2 0-.4-.1-.5-.4-.7-1.2-.9-2-.8-.2 0-.3.1-.4.2-.2.1-.1.2-.3.2-.1 0-.2.1-.2.2v.3c0 .1 0 0 0 0M54.1-18.1v.2c-.1.1-.1.1-.2.1-.1.1-.1.3-.1.4-.2.1 0 .2 0 .3v.2c0 .1 0 .3.1.4.1.2.3.4.4.5.2.1.4.6.6.6.2 0 .4-.1.5-.1.2 0 .4 0 .6-.1.2-.1.1-.3.3-.5.1-.1.3 0 .4-.1.2-.1.3-.3.4-.5v-.2c0-.1.1-.2.1-.3 0-.1-.1-.1-.1-.2v-.3c0-.2 0-.4-.1-.5-.4-.7-1.2-.9-2-.8-.2 0-.3.1-.4.2-.2.1-.1.2-.3.2-.1 0-.2.1-.2.2v.3c0 .1 0 0 0 0M46.5-18.1v.2c-.1.1-.1.1-.2.1-.1.1-.1.3-.1.4-.2.1 0 .2 0 .3v.2c0 .1 0 .3.1.4.1.2.3.4.4.5.2.1.4.6.6.6.2 0 .4-.1.5-.1.2 0 .4 0 .6-.1.2-.1.1-.3.3-.5.1-.1.3 0 .4-.1.2-.1.3-.3.4-.5v-.2c0-.1.1-.2.1-.3 0-.1-.1-.1-.1-.2v-.3c0-.2 0-.4-.1-.5-.4-.7-1.2-.9-2-.8-.2 0-.3.1-.4.2-.2.1-.1.2-.3.2-.1 0-.2.1-.2.2v.3c0 .1 0 0 0 0M38.8-18.1v.2c-.1.1-.1.1-.2.1-.1.1-.1.3-.1.4-.2.1 0 .2 0 .3v.2c0 .1 0 .3.1.4.1.2.3.4.4.5.2.1.4.6.6.6.2 0 .4-.1.5-.1.2 0 .4 0 .6-.1.2-.1.1-.3.3-.5.1-.1.3 0 .4-.1.2-.1.3-.3.4-.5v-.2c0-.1.1-.2.1-.3 0-.1-.1-.1-.1-.2v-.3c0-.2 0-.4-.1-.5-.4-.7-1.2-.9-2-.8-.2 0-.3.1-.4.2-.2.1-.1.2-.3.2-.1 0-.2.1-.2.2v.3c0 .1 0 0 0 0M31.1-18.1v.2c-.1.1-.1.1-.2.1-.1.1-.1.3-.1.4-.2.1 0 .2 0 .3v.2c0 .1 0 .3.1.4.1.2.3.4.4.5.2.1.4.6.6.6.2 0 .4-.1.5-.1.2 0 .4 0 .6-.1.2-.1.1-.3.3-.5.1-.1.3 0 .4-.1.2-.1.3-.3.4-.5v-.2c0-.1.1-.2.1-.3 0-.1-.1-.1-.1-.2v-.3c0-.2 0-.4-.1-.5-.4-.7-1.2-.9-2-.8-.2 0-.3.1-.4.2-.2.1-.1.2-.3.2-.1 0-.2.1-.2.2v.3c0 .1 0 0 0 0M23.5-18.1v.2c-.1.1-.1.1-.2.1-.1.1-.1.3-.1.4-.2.1 0 .2 0 .3v.2c0 .1 0 .3.1.4.1.2.3.4.4.5.2.1.4.6.6.6.2 0 .4-.1.5-.1.2 0 .4 0 .6-.1.2-.1.1-.3.3-.5.1-.1.3 0 .4-.1.2-.1.3-.3.4-.5v-.2c0-.1.1-.2.1-.3 0-.1-.1-.1-.1-.2v-.3c0-.2 0-.4-.1-.5-.4-.7-1.2-.9-2-.8-.2 0-.3.1-.4.2-.2.1-.1.2-.3.2-.1 0-.2.1-.2.2v.3c0 .1 0 0 0 0M15.8-18.1v.2c-.1.1-.1.1-.2.1-.1.1-.1.3-.1.4-.2.1 0 .2 0 .3v.2c0 .1 0 .3.1.4.1.2.3.4.4.5.2.1.4.6.6.6.2 0 .4-.1.5-.1.2 0 .4 0 .6-.1.2-.1.1-.3.3-.5.1-.1.3 0 .4-.1.2-.1.3-.3.4-.5v-.2c0-.1.1-.2.1-.3 0-.1-.1-.1-.1-.2v-.3c0-.2 0-.4-.1-.5-.4-.7-1.2-.9-2-.8-.2 0-.3.1-.4.2-.2.1-.1.2-.3.2-.1 0-.2.1-.2.2v.3c0 .1 0 0 0 0M8.2-18.1v.2c-.1.1-.2.1-.2.1-.1.1-.1.3-.1.4-.2.1 0 .2 0 .3v.2c0 .1 0 .3.1.4 0 .2.2.4.3.5.2.1.4.6.6.6.2 0 .4-.1.5-.1.2 0 .4 0 .6-.1.2-.1.1-.3.3-.5.1-.1.3 0 .4-.1.2-.1.3-.3.4-.5v-.2c0-.1.1-.2.1-.3 0-.1-.1-.1-.1-.2v-.3c0-.2 0-.4-.1-.5-.4-.7-1.2-.9-2-.8-.2 0-.3.1-.4.2-.2.1-.1.2-.3.2-.1 0-.2.1-.2.2.1.3.1.2.1.3-.1.1-.1 0 0 0M.5-18.1v.2c-.1.1-.1.1-.2.1-.1.1-.1.3-.1.4-.2.1 0 .2 0 .3v.2c0 .1 0 .3.1.4.1.2.3.4.4.5.2.1.4.6.6.6.2 0 .4-.1.5-.1.2 0 .4 0 .6-.1.2-.1.1-.3.3-.5.1 0 .3.1.4.1.2-.1.3-.3.4-.5v-.2c0-.1.1-.2.1-.3 0-.1-.1-.1-.1-.2v-.3c0-.2 0-.4-.1-.5-.4-.7-1.2-.9-2-.8-.2 0-.3.1-.4.2-.2.1-.1.2-.3.2-.1 0-.2.1-.2.2v.1c0 .1 0 0 0 0M69.4-10.4v.2c-.1.1-.1.1-.2.1-.1.1-.1.3-.1.4-.2.1 0 .2 0 .3v.2c0 .1 0 .3.1.4.1.2.3.4.4.5.2.1.4.6.6.6.2 0 .4-.1.5-.1.2 0 .4 0 .6-.1.2-.1.1-.3.3-.5.1-.1.3 0 .4-.1.2-.1.3-.3.4-.5v-.2c0-.1.1-.2.1-.3 0-.1-.1-.1-.1-.2v-.3c0-.2 0-.4-.1-.5-.4-.7-1.2-.9-2-.8-.2 0-.3.1-.4.2-.2.1-.1.2-.3.2-.1 0-.2.1-.2.2v.3M61.8-10.4v.2c-.1.1-.1.1-.2.1-.1.1-.1.3-.1.4-.2.1 0 .2 0 .3v.2c0 .1 0 .3.1.4.1.2.3.4.4.5.2.1.4.6.6.6.2 0 .4-.1.5-.1.2 0 .4 0 .6-.1.2-.1.1-.3.3-.4.1-.1.3 0 .4-.1.2-.1.3-.3.4-.5v-.2c0-.1.1-.2.1-.3 0-.1-.1-.1-.1-.2v-.3c0-.2 0-.4-.1-.5-.4-.7-1.2-.9-2-.8-.2 0-.3.1-.4.2-.2.1-.1.2-.3.2-.1 0-.2.1-.2.2v.2M54.1-10.4v.2c-.1.1-.1.1-.2.1-.1.1-.1.3-.1.4-.2.1 0 .2 0 .3v.2c0 .1 0 .3.1.4.1.2.3.4.4.5.2.1.4.6.6.6.2 0 .4-.1.5-.1.2 0 .4 0 .6-.1.2-.1.1-.3.3-.5.1-.1.3 0 .4-.1.2-.1.3-.3.4-.5v-.2c0-.1.1-.2.1-.3 0-.1-.1-.1-.1-.2v-.3c0-.2 0-.4-.1-.5-.4-.7-1.2-.9-2-.8-.2 0-.3.1-.4.2-.2.1-.1.2-.3.2-.1 0-.2.1-.2.2v.3M46.5-10.4v.2c-.1.1-.1.1-.2.1-.1.1-.1.3-.1.4-.2.1 0 .2 0 .3v.2c0 .1 0 .3.1.4.1.2.3.4.4.5.2.1.4.6.6.6.2 0 .4-.1.5-.1.2 0 .4 0 .6-.1.2-.1.1-.3.3-.5.1-.1.3 0 .4-.1.2-.1.3-.3.4-.5v-.2c0-.1.1-.2.1-.3 0-.1-.1-.1-.1-.2v-.3c0-.2 0-.4-.1-.5-.4-.7-1.2-.9-2-.8-.2 0-.3.1-.4.2-.2.1-.1.2-.3.2-.1 0-.2.1-.2.2v.3M38.8-10.4v.2c-.1.1-.1.1-.2.1-.1.1-.1.3-.1.4-.2.1 0 .2 0 .3v.2c0 .1 0 .3.1.4.1.2.3.4.4.5.2.1.4.6.6.6.2 0 .4-.1.5-.1.2 0 .4 0 .6-.1.2-.1.1-.3.3-.4.1-.1.3 0 .4-.1.2-.1.3-.3.4-.5v-.2c0-.1.1-.2.1-.3 0-.1-.1-.1-.1-.2v-.3c0-.2 0-.4-.1-.5-.4-.7-1.2-.9-2-.8-.2 0-.3.1-.4.2-.2.1-.1.2-.3.2-.1 0-.2.1-.2.2v.2M31.1-10.4v.2c-.1.1-.1.1-.2.1-.1.1-.1.3-.1.4-.2.1 0 .2 0 .3v.2c0 .1 0 .3.1.4.1.2.3.4.4.5.2.1.4.6.6.6.2 0 .4-.1.5-.1.2 0 .4 0 .6-.1.2-.1.1-.3.3-.5.1-.1.3 0 .4-.1.2-.1.3-.3.4-.5v-.2c0-.1.1-.2.1-.3 0-.1-.1-.1-.1-.2v-.3c0-.2 0-.4-.1-.5-.4-.7-1.2-.9-2-.8-.2 0-.3.1-.4.2-.2.1-.1.2-.3.2-.1 0-.2.1-.2.2v.3M23.5-10.4v.2c-.1.1-.1.1-.2.1-.1.1-.1.3-.1.4-.2.1 0 .2 0 .3v.2c0 .1 0 .3.1.4.1.2.3.4.4.5.2.1.4.6.6.6.2 0 .4-.1.5-.1.2 0 .4 0 .6-.1.2-.1.1-.3.3-.5.1-.1.3 0 .4-.1.2-.1.3-.3.4-.5v-.2c0-.1.1-.2.1-.3 0-.1-.1-.1-.1-.2v-.3c0-.2 0-.4-.1-.5-.4-.7-1.2-.9-2-.8-.2 0-.3.1-.4.2-.2.1-.1.2-.3.2-.1 0-.2.1-.2.2v.3M15.8-10.4v.2c-.1.1-.1.1-.2.1-.1.1-.1.3-.1.4-.2.1 0 .2 0 .3v.2c0 .1 0 .3.1.4.1.2.3.4.4.5.2.1.4.6.6.6.2 0 .4-.1.5-.1.2 0 .4 0 .6-.1.2-.1.1-.3.3-.4.1-.1.3 0 .4-.1.2-.1.3-.3.4-.5v-.2c0-.1.1-.2.1-.3 0-.1-.1-.1-.1-.2v-.3c0-.2 0-.4-.1-.5-.4-.7-1.2-.9-2-.8-.2 0-.3.1-.4.2-.2.1-.1.2-.3.2-.1 0-.2.1-.2.2v.2M8.2-10.4v.2c-.1.1-.2 0-.2.1-.1.1-.1.3-.1.3-.2.1 0 .2 0 .3v.2c0 .1 0 .3.1.4 0 .2.2.4.3.6.2.1.4.6.6.6.2 0 .4-.1.5-.1.2 0 .4 0 .6-.1.2-.1.1-.3.3-.5.1-.1.3 0 .4-.1.2-.1.3-.3.4-.5v-.2c0-.1.1-.2.1-.3 0-.1-.1-.1-.1-.2v-.3c0-.2 0-.4-.1-.5-.4-.7-1.2-.9-2-.8-.2 0-.3.1-.4.2-.2.1-.1.2-.3.2-.1 0-.2.1-.2.2.1.2.1.2.1.3-.1 0-.1 0 0 0M.5-10.4v.2c-.1.1-.1.1-.2.1 0 .1-.1.3-.1.3-.2.1 0 .2 0 .3v.2c0 .1 0 .3.1.4.1.2.3.4.4.5.2.2.3.6.6.7.2 0 .4-.1.5-.1.2 0 .4 0 .6-.1.2-.1.1-.3.3-.4.1-.1.3 0 .4-.1.2-.1.3-.3.4-.5v-.2c0-.1.1-.2.1-.3 0-.1-.1-.1-.1-.2v-.3c0-.2 0-.4-.1-.5-.4-.7-1.2-.9-2-.8-.2 0-.3.1-.4.2-.2.1-.1.2-.3.2-.1 0-.2.1-.2.2v.2M69.4-2.8v.2c-.1.1-.1.1-.2.1-.1.1-.1.3-.1.4-.2.1 0 .2 0 .3v.2c0 .1 0 .3.1.4.1.2.3.4.4.5.2.2.4.6.6.7.2 0 .4-.1.5-.1.2 0 .4 0 .6-.1.2-.1.1-.3.3-.5.1-.1.3 0 .4-.1.2-.1.3-.3.4-.5v-.2c0-.1.1-.2.1-.3 0-.1-.1-.1-.1-.2v-.3c0-.2 0-.4-.1-.5-.4-.7-1.2-.9-2-.8-.2 0-.3.1-.4.2-.2.1-.1.2-.3.2-.1 0-.2.1-.2.2v.2c0 .1 0 0 0 0M61.8-2.8v.2c-.1.1-.1.1-.2.1-.1.1-.1.3-.1.4-.2.1 0 .2 0 .3v.2c0 .1 0 .3.1.4 0 .2.2.4.4.5.2.1.4.6.6.6.2 0 .4-.1.5-.1.2 0 .4 0 .6-.1.2-.1.1-.3.3-.5.1-.1.3 0 .4-.1.2-.1.3-.3.4-.5v-.2c0-.1.1-.2.1-.3 0-.1-.1-.1-.1-.2v-.3c0-.2 0-.4-.1-.5-.4-.7-1.2-.9-2-.8-.2 0-.3.1-.4.2-.2.1-.1.2-.3.2-.1 0-.2.1-.2.2v.3c0 .1 0 0 0 0M54.1-2.8v.2c-.1.1-.1.1-.2.1-.1.1-.1.3-.1.4-.2.1 0 .2 0 .3v.2c0 .1 0 .3.1.4.1.2.2.4.4.5.2.1.4.6.6.6.2 0 .4-.1.5-.1.2 0 .4 0 .6-.1.2-.1.1-.3.3-.5.1-.1.3 0 .4-.1.2.1.3-.1.4-.3v-.2c0-.1.1-.2.1-.3 0-.1-.1-.1-.1-.2v-.3c0-.2 0-.4-.1-.5-.4-.7-1.2-.9-2-.8-.2 0-.3.1-.4.2-.2.1-.1.2-.3.2-.1 0-.2.1-.2.2v.1c0 .1 0 0 0 0M46.5-2.8v.2c-.1.1-.1.1-.2.1-.1.1-.1.3-.1.4-.2.1 0 .2 0 .3v.2c0 .1 0 .3.1.4.1.2.3.4.4.5.1.2.3.6.5.7.2 0 .4-.1.5-.1.2 0 .4 0 .6-.1.2-.1.1-.3.3-.5.1-.1.3 0 .4-.1.2-.1.3-.3.4-.5v-.2c0-.1.1-.2.1-.3 0-.1-.1-.1-.1-.2v-.3c0-.2 0-.4-.1-.5-.4-.7-1.2-.9-2-.8-.2 0-.3.1-.4.2-.2.1-.1.2-.3.2-.1 0-.2.1-.2.2.1.2.1.1.1.2M38.8-2.8v.2c-.1.1-.1.1-.2.1-.1.1-.1.3-.1.4-.2.1 0 .2 0 .3v.2c0 .1 0 .3.1.4 0 .2.2.4.4.5.2.1.4.6.6.6.2 0 .4-.1.5-.1.2 0 .4 0 .6-.1.2-.1.1-.3.3-.5.1-.1.3 0 .4-.1.2-.1.3-.3.4-.5v-.2c0-.1.1-.2.1-.3 0-.1-.1-.1-.1-.2v-.3c0-.2 0-.4-.1-.5-.4-.7-1.2-.9-2-.8-.2 0-.3.1-.4.2-.2.1-.1.2-.3.2-.1 0-.2.1-.2.2v.3c0 .1 0 0 0 0M31.1-2.8v.2c-.1.1-.1.1-.2.1-.1.1-.1.3-.1.4-.2.1 0 .2 0 .3v.2c0 .1 0 .3.1.4.1.2.2.4.4.5.2.1.4.6.6.6.2 0 .4-.1.5-.1.2 0 .4 0 .6-.1.2-.1.1-.3.3-.5.1-.1.3 0 .4-.1.2-.1.3-.3.4-.5v-.2c0-.1.1-.2.1-.3 0-.1-.1-.1-.1-.2v-.3c0-.2 0-.4-.1-.5-.4-.7-1.2-.9-2-.8-.2 0-.3.1-.4.2-.2.1-.1.2-.3.2-.1 0-.2.1-.2.2v.3c0 .1 0 0 0 0M23.5-2.8v.2c-.1.1-.1.1-.2.1-.1.1-.1.3-.1.4-.2.1 0 .2 0 .3v.2c0 .1 0 .3.1.4.1.2.3.4.4.5.1.2.3.6.6.7.2 0 .4-.1.5-.1.2 0 .4 0 .6-.1.2-.1.1-.3.3-.5.1-.1.3 0 .4-.1.2-.1.3-.3.4-.5v-.2c0-.1.1-.2.1-.3 0-.1-.1-.1-.1-.2v-.3c0-.2 0-.4-.1-.5-.4-.7-1.2-.9-2-.8-.2 0-.3.1-.4.2-.2.1-.1.2-.3.2-.1 0-.2.1-.2.2v.2c0 .1 0 0 0 0M15.8-2.8v.2c-.1.1-.1.1-.2.1-.1.1-.1.3-.1.4-.2.1 0 .2 0 .3v.2c0 .1 0 .3.1.4.1.2.2.4.4.5.2.1.4.6.6.6.2 0 .4-.1.5-.1.2 0 .4 0 .6-.1.2-.1.1-.3.3-.5.1-.1.3 0 .4-.1.2-.1.3-.3.4-.5v-.2c0-.1.1-.2.1-.3 0-.1-.1-.1-.1-.2v-.3c0-.2 0-.4-.1-.5-.4-.7-1.2-.9-2-.8-.2 0-.3.1-.4.2-.2.1-.1.2-.3.2-.1 0-.2.1-.2.2v.3c0 .1 0 0 0 0M8.2-2.8v.2c-.1.1-.2.1-.2.1-.1.1-.1.3-.1.4-.2.1 0 .2 0 .3v.2c0 .1 0 .3.1.4 0 .2.2.4.3.5.2.2.4.6.6.7.2 0 .4-.1.5-.1.2 0 .4 0 .6-.1.2-.1.1-.3.3-.5.1-.1.3 0 .4-.1.2-.1.3-.3.4-.5v-.2c0-.1.1-.2.1-.3 0-.1-.1-.1-.1-.2v-.3c0-.2 0-.4-.1-.5-.4-.7-1.2-.9-2-.8 0 .1-.2.2-.3.2-.2.1-.1.2-.3.3-.1 0-.2.1-.2.2v.1c-.1.1-.1 0 0 0M.5-2.8v.2c-.1.1-.1.1-.2.1 0 .1-.1.3-.1.4-.2.1 0 .2 0 .3v.2c0 .1 0 .3.1.4 0 .2.2.4.4.5.2.2.3.6.6.7.2 0 .4-.1.5-.1.2 0 .4 0 .6-.1.2-.1.1-.3.3-.5.1-.1.3 0 .4-.1.2 0 .3-.2.4-.4v-.2c0-.1.1-.2.1-.3 0-.1-.1-.1-.1-.2v-.3c0-.2 0-.4-.1-.5-.4-.7-1.2-.9-2-.8-.1 0-.2.1-.4.1-.1.1-.1.2-.3.3-.1 0-.2.1-.2.2v.1c0 .1 0 0 0 0"/></pattern><path class="st0" d="M105 342.9c-8.2-5.8-16.7-11.1-26.2-14.2-5.4-1.8-10.9-2.4-16.5-3.2-2.6-.4-5.2-.5-7.8-.7-3.1-.2-3-1.5-4.7-3.7 0 5.7 1.5 13.2-2.4 17.5 11 2.5 22 5.1 33.2 6.8 11.4 1.8 22.8 4.7 34.5 4.8-1.5-2.6-7.6-5.5-10.1-7.3"/><path class="st2" d="m252.3 315.7-4.5-4.5c3.3-2.1 6.1-5.3 8.4-8.4 3.1-4.1 4.3-11.5-2.9-10.4-4.9.8-9.9 2.7-14.8 3.8-5.4 1.1-11.1.2-16.3 1.9 1.9-3.5 4.5-6.4 3.2-10.5-1.2-3.5-3.2-6.7-5.1-9.9-5.3-9-9.1-19.4-12.2-29.4-1.4-4.6-3.4-9.4-3.3-14.2.1-5.4 1.9-11.3 3.4-16.5 3.2-10.8 8.4-20.6 13.9-30.4 1.4-2.1 2.9-3.6 2.9-6.1 0-3.1-2.5-4.4-4.8-6.1-4.8-3.5-9.3-7.5-13.9-11.2-5-4.1-10-8.2-14.9-12.2-3.7-3.1-10.3-10.8-15.1-10.9-2.4 0-4.9-.1-7.3-.1-.7-2.8-.6-5.7-.5-8.5.1-2.4.3-4.8.2-7.2-1.9-2-4.5-3.2-6.7-.8-2.4 2.5-2.9-.5-5.6-.5-.9-.1-1.8.1-2.7.5-1.5-1.6-1.5-2-3.8-2-2.7 0-3.4 1.5-6.4 1-1.1-.2-2.3-.3-3.4-.3-2 2-2.4.8-4.5 1.8 1.7-1.9 4.7-5 2.2-7.6-1.1-1.2-2.6-1.4-4.2-1.5-3-.1-2.3-3.9-2.7-6.5 2.3 0 4.9-.3 6.8-1.7 1-.7 1.7-1.7 2.1-2.9 1.2 0 2.5 0 3.7-.4 4.3-1.4 7.2-4.9 11.9-4.2 4.2.6 7.6-4.1 9.6-7.3.7-1.1 3.1.5 4.6.4 2.8-.1 4.7-2.8 5.7-5.1.7-1.5 1.2-3.2 1.4-4.9.4-3 .4-1.1 2.5-2 .6-.3.9-.8 1.6-1.1 1.5 0 3.5.4 4.8-.5 2.5-1.7 2.2-5.7 5.1-5.8 2.9-.1 4-2.2 4.6-4.9 1.9-8.2-.6-26.4-11.9-26.2 0-2.2-.3-6.9 2-6.9 3.2 0 2.5-2.8 5.4-2.6 2.2.1 3.6-.8 5.2-2.1.1-1.1 0-2.3-.1-3.4-.3-1.8.5-2.2.5-4-.1-4.3-6.3-7.2-9.5-8.6-5.4-2.4-11.6-3.5-17.5-2.2-11 2.4-18.9 11.5-24.3 20.7-4.7 8.1-9.1 23-21.8 20.8-2.6-.4-5.2-1-7.8-1.3-1.2-.1-2.4-.2-3.6-.2-.3-1.5-.9-3-1.6-4.4-2.8-5.2-4.7-9.2-5.6-15.1-.5-3-.8-6.1-1.4-9.1-.7-3.5-.2-3.2 1.1-6.1 1.4-3-.9-4.8-.9-7.6 0-2.5-.5-2.7-2.1-4.5-2.9 0-1.4-.8-2.2-3.1C98-.2 95.8 0 93.3 0c-2.1 0-2.5 1.7-4.5 1.5-2.7-.4-4 1.4-6.5 1.3-2.7-.1-4.5-.2-6.5 1.7-3.5 3.3 3.9 10.4-1.1 11.6-2.2.5-3.6 2.1-5.3 3.4 0 3.5.1 6.5 4.5 6.4-2 4.1-2 13.1 4.4 13-1.2 2.9-2.5 5.8-2.7 9-.1 1.7.1 3.5.8 5 .2.2 1.9 1.7 1.9 2-8.2 0-6.2 13-6.2 18.6.3 8.8 2 15.8 9 21.8 2.8 2.3 6.1 4.1 9.7 4.7 2.6.4 1.3 2.6 1.6 5 .2 1.7.6 3.4 1.8 4.6 1.2 1.1 2.6.8 4.1.8 1.2 1.3 1.9 2.3 3.8 2.5 5.9.6 5.7-3.5 5.8-8.3 2.1 1.8 3.3 4.4 5.5 6 1.5 1.1 3.3 1.5 5.1 1.5 0 2.2.7 4.2 1.1 6.3-.1 1.7-.2 3.5-.2 5.2-2.1 0-4.1.7-6.2.5-1.9-.2-4.1-.7-5.9.1-1.7.7-2.1 3.4-3.8 1.9-1.7-.7-4.2.5-6.1.3-1.4-.1-2.3-.6-3.2.6-1.2 1.6-1.9 3-3.2 1-2.1-3.3-6.5-2.4-7.7 1-1.2 3.6-.7 7.6-.6 11.3-2.6 0-7 5.1-9 6.7-3.3 2.7-6.7 5.4-10 8.1-7.2 5.8-14.3 11.6-21.5 17.4-2.7 2.2-7.3 4.7-7.3 8.3 0 3.9 4.3 8.7 6.2 12.2 3.8 6.8 7.1 13.8 9.6 21.2 2.2 6.7 5.2 15.3 4.1 22.4-1.1 7-3.8 14.1-6.3 20.8-3 8-6.6 15.7-10.8 23.2-1.6 2.9-4.5 6.2-3.8 9.7.5 2.4 3.7 5.4 3.7 7.6-9.1-1.6-17.9-1.7-26.7-4.7-4.1-1.4-10.4-3.2-10.4 3 0 3.7 2.4 6.2 4.8 8.9 1.6 1.9 3.5 4.5 5.8 5.5.4 1.5-5 5.6-6 6.8-2.4 3.1-4.4 6.3-4.7 10.3-.6 6.8 7.8 3.1 10.9 1.7-1 5.2-.8 10.7-.5 15.9.2 4.1-.3 11.4 2.7 14.4 3.9 4 11.4 5.5 16.5 7.3 6.8 2.4 13.8 4.2 20.8 5.9 24.7 6.2 50 9 75.4 9.2 25.4.2 51.1-1.7 75.9-7.5 13.2-3.1 26.2-6.9 38.8-11.8 6.7-2.6 6.6-6.5 7.3-12.9.8-6.8.4-13.7-.2-20.5 3.7 1.2 11.8 5 11.3-2.4-.6-4.5-5.1-7.3-7-11.3M92.8 347.6c-15.2-3-30.4-5.5-45.5-8.9 3.9-4.3 2.3-11.8 2.4-17.5 1.7 2.2 1.6 3.5 4.7 3.7 3.3.2 6.5.5 9.7 1 6.9 1 13.4 2.2 19.9 4.9 5.4 2.2 10.4 5.1 15.3 8.3 2.5 1.6 4.9 3.4 7.3 5.1 2.1 1.5 7.2 3.9 8.4 6.2-7.5-.2-14.9-1.4-22.2-2.8m101.1-5c-16.5 3.1-32.9 6.5-49.7 7.7 0-1 5.9-4.2 6.8-4.9 2.8-2 5.7-4 8.5-6 4.5-3.2 9.1-5.9 14.2-8.1 5.2-2.3 10.6-4 16.1-5.1 3-.6 6.1-1 9.1-1.3 3-.2 8.5 1 9.8-2.5.2 5.4-1.5 12.2 2.5 16.2-5.7 1.4-11.5 2.7-17.3 4"/><path class="st0" d="M208.9 326c0-1.2-.1-2.4-.1-3.6-1.4 4-13.3 2.8-17.2 3.5-5.6 1-11.1 2.6-16.4 4.8-4.9 2-9.6 4.5-14 7.5-2.8 2-5.7 4-8.5 6-1.2.8-8.5 4.9-8.5 6.1 22.6-1.7 45-6.7 67-11.7-3.4-3.4-2.3-7.9-2.3-12.6"/><path d="M196.5 238.5c-3.6-23.1 18.1-57 18.1-57l-40.7-33h-45.5 2.3-45.4l-40.7 33s21.7 33.9 18.1 57c-3.6 23.1-19.9 50.6-19.9 50.6l14.5 26.7s23.5.9 38.4 9.9c14.9 9 33.9 24 33.9 24s19-14.9 33.9-24c14.9-9 38.4-9.9 38.4-9.9l14.5-26.7s-16.3-27.5-19.9-50.6z" style="fill:none;stroke:#000;stroke-width:5.0119"/><path class="st2" d="M196.5 238.5c-3.6-23.1 18.1-57 18.1-57l-40.7-33h-45.5 2.3-45.4l-40.7 33s21.7 33.9 18.1 57c-3.6 23.1-19.9 50.6-19.9 50.6l14.5 26.7s23.5.9 38.4 9.9c14.9 9 33.9 24 33.9 24s19-14.9 33.9-24c14.9-9 38.4-9.9 38.4-9.9l14.5-26.7s-16.3-27.5-19.9-50.6z"/><path d="M196.5 238.5c-3.6-23.1 18.1-57 18.1-57l-40.7-33h-45.5 2.3-45.4l-40.7 33s21.7 33.9 18.1 57c-3.6 23.1-19.9 50.6-19.9 50.6l14.5 26.7s23.5.9 38.4 9.9c14.9 9 33.9 24 33.9 24s19-14.9 33.9-24c14.9-9 38.4-9.9 38.4-9.9l14.5-26.7s-16.3-27.5-19.9-50.6z" style="fill:none;stroke:#000;stroke-width:2"/><path class="st5" d="M107.9 55c-1.5.7-3.7-5.1-5-5.6-1.7-.7.5 9.4-.1 10-2.3.4-2.4-6.8-3.9-7.2-.7.4 1.1 5.1.2 6.2-1-.1-1.9-2.6-2.7-3.2-1-.9-1.5 1.4-2 1.8-1.2.9-1.8-1.5-3-.6-2.3 1.7-1.2-.1-3.2-1-.5.3.2 5.1-1.5 3.7-.7-.6-1.2-3-1.6-3.8-1.3-3.3-6.5-3.2-6-7.2.4-3.6 2-6.4 3.7-9.6 1-1.8 5.7-6.4 4.8-8.4-.5.2-1.1.4-1.6.5-2.6-3 5.2-7.7 4.2-10.8-1-2.9-10.4-5.3-10.4-5.4C80 13 85.1 12 86 12c3.1-.3 5.8 1.2 8 3.4 3.5 3.5 5.1 6.2 6 11.3.4 2.3-.1 4 .5 6.2.7 2.7 1.3 5.4 1.7 8.2.4 2.9 6.9 11.7 5.7 13.9M192.2 22.9c-1.6.6-8.9-4.4-10.5-5-5-1.8-9.8-1.4-14.5 1.1-5.9 3.1-10.9 8-14.1 13.8-3.1 5.7-5.2 13.2-9.6 18.2-6 6.9-15.4 8.2-24 7.9-1.7-.1-4.4-.5-5.8-1.4-1.7-1.1-1.4-2.5.7-1.9 4.7 1.2 10.4 2.1 15.1.6 7-2.2 13.1-7.8 15.5-14.7 5.2-14.3 19-30.4 35.8-25.7 1.5.5 12.2 5.2 11.4 7.1"/><path class="st5" d="M83.8 18c1.4-.1 1.9 1.3.7 2.2-1.3 1-3.2-2-.7-2.2M80.6 20.7c-1.4.1-2.7.6-3.8 1.1-.9.3-5.7.3-3.3-1.4 1.2-.9 7.6-3 7.1.3M81.2 23.6c2.1-.3 1.9 4.3 1.7 5.3-.5 2.5-2.3 3.2-3.6 5-2.3 3.1-3-2-2.8-4 .2-2 2.6-6 4.7-6.3M185.1 31c-.7.6-8.2-1.3-6.9 1.6.5 1 3.1 4.6 1.4 5.3-2.4 1.1.8 3-.3 4.5-.8.2-4.2-2.4-5.3-2.6-4.3-.7-8.5-.8-12.3 1.3-3.4 1.8-6.6 3.3-4.5-1.6 1.1-2.6 2.6-4.4 5-6.4 5.8-4.7 11-8.2 18.7-8.5 3.4-.2 8.3.6 10.9 2.9 2 1.8-4.5.4-4.5.4-3.5-.3-1.7 1.3-2.2 3.1M184.2 45.3c2.7-.1 5.2 6.2 6.1 8 1 2 2.7 16-.5 16-.2 0-1.1-11.5-1.4-12.6-.4-1.6-4.4-11.3-4.2-11.4M174.5 74.3c-1.5.8-1.8 9.1-3.2 11.2-1.2 1.8-2.4 4.5-4.5 1.8s-3.1-1.8-4.7 1.1c-.8 1.4-4.5 6.2-6.1 6.9-2.5 1.2-1.7-4.2-3.5-2.1-1.1 1.2-2.4 2-3.7 2.9-1.6 1.1-3.3.5-4.6 1.8-.4.4-.9 1-1.6 1.4-2.7 1.7-2.5.1-4.8.3-1.4.1-1.8 2.8-2.8 3.6-4 3-10.9 1.5-8.3-4.1 1.5-3.2-5.4-7.2-7.2-9.3-3.8-.8-6.7-3.9-9.8-5.9-1.4-.9-2.9-1.4-4.6-1.7-2.1-.4-2.5-2.4-3.4-4.3-1.7-3.5 7 1.7 8 2.3 4.3 2.8 9.9 3.9 14.7 5 3.5.8 11.1 3.5 14.2.6 1.7-1.6-1.3-5.8-2.2-7.1-1.2-1.8-5.7-4.2-5.6-6.5.1-2.2 4.2-.1 5.2.4 2.8 1.7 5.3 4.8 7.7 6.8.9.8 3.4 5.2 4.7 5.1 2-.9-2.3-7.6-2.9-8.4-.6-.8-3.8-3.7-3.4-4.9.5-1.6 3.4.2 4 .7 2.1 1.6 7.2 8.8 9.6 8.9 1.3-.9-.9-6.3-1.5-7.4-1-2-2.7-4-4.7-5.1-.8-.5-2.1-1.1-.7-2.1 1.4-1 4.3 2.2 5.2 3.1 1 1 4.7 7.2 6.3 7.4 1.9-1-3.1-8.4-3.9-9.3-.3-.4-4.8-5.6-.7-4.3 1.4.4 3.4 3.3 4.6 2.6 1.4-.8-2.1-2.4-1.6-3.7.6-1.7 4.5 1.7 5.4 1.5 9-2-14.4-4.9-8.3-7.3 3.8-1.6 8.3-2.8 12.7-1.9 2.1.4 6.7 5.2 8 5 1.2-1.4-5.6-5.8-6.5-6.3-1.2-.7-8.9-3.3-8.1-4 4.1-3.9 14.5 1.9 18.3 4.3 5.8 3.7 7.2 12 5 18-1 2.8-2.2 5.8-4.4 2.6-.9-1.3-1.6.6-2 1.3-2 3.4-2.2 0-4.3-.9"/><path d="M172.5 65.1c-.9-.3-2.4-1.5-2.2-2.8 1.1-.4 3 1.7 2.2 2.8" style="fill-rule:evenodd;clip-rule:evenodd;fill:#fff;stroke:#000;stroke-width:5.363400e-02;stroke-linecap:round"/><path class="st5" d="M77.3 58.2c1-.3 0 9.8 0 11.1 0 4.3.8 8.5 2.5 12.4 2.2 5.2 7.7 9.1 12.5 11.5 5.2 2.6 11.6 1.4 16.9 3.5 2.5 1 3.7 2.2 5.2 4.7.8 1.3 4.7 5.6 4.4 6.6-3.8 1.9-8.8-9.4-12.5-10-7.8-1.3-15.7-1-22.2-5.7-3.8-2.8-6.1-6.7-7.7-11.1-1.5-4.2-.6-9.1-.8-13.5 0-2.3-.1-7.7 1.7-9.5"/><path class="st5" d="M104.1 108.7c-2.6 1-3.2-2.7-4.9-3.3.1-.4-1.5-7.8 1.1-6.4 1 .6.3 5 1 6.3.5 1.2 2.7 1.9 2.8 3.4M96.9 99.9c.4.1 1.4 5.9 1 6.5-2.3.6-2.8-5.7-1-6.5"/><path class="st5" d="M103.2 100.5c.2.9 1.2 3.6.7 4.5-1.7 1-3.5-4.8-.7-4.5M149.4 125c1.6.5.4 4.3-1.4 4.3-.8-1.1 1.4-4.3 1.4-4.3M141.6 125.7c.9-.1 1.6 3.3.2 3.2-.8 0-.8-3-.2-3.2M164.7 126c.1.8.6 3-.9 2.7-.5-.9.2-2 .5-2.7h.4zM146 126.5c.3.5.8 3.6-.4 3.5-1.1 0-1-4.4.4-3.5M155.8 126.6c.8 0-.1 6.2-3.3 4.9-1.3-.5-1.2-3.9 0-4.4 1.4-.4.7 2.5 1.4 3 1.9-.2.3-2.9 1.9-3.5M138.8 127.3c.2 1 .2 1.9 0 2.9-.6 0-1-.2-1.4-.6-.9.2.1 1.3-1.2 1.3-1-1.7.9-4.5 2.6-3.6"/><path class="st7" d="M126.8 108.2c.2 1.4 0 2.8.4 4.3.6 2 .8 4.4 1 6.5.3 3.2 1.8 8.1-1.4 10.2-3.1 2.1-7.8 1.4-11.3 2.4-1.7.5-3.2.5-4.6 1.7-.4.4-2.2 3.3-2.4 1.9-.2-1.3.6-2.7 1.5-3.6.4-.4 1.6-.8 1.9-1.3.2-.1 2.1-.5.7-.9-1.3-.3-3.7.4-4.7 1.2-.6.5-1.2 1.2-2 .8-.2-.7.7-2.2 1.2-2.6 1.1-.9 1.4-1.3 2.9-1.5 2.2-.2 4.4.4 6.6.2.9-.1 1.8-.5 2.7-.5 1.2-.1 2.3.1 3.5 0 .7-.1 1.2.3.6.9-.6.5-1.8.2-2.2.8.5.6 2.1.2 2.8.2 1 0 2.2-.9 2.4-1.9.3-1 0-2.1.1-3.1.1-1.5 0-3.1 0-4.6 0-2.3-.3-5.2-1.2-7.2-.4-.9-.6-2.4-.7-3.4 0-.9 1.7-1.1 2.2-.5"/><path class="st7" d="M122.2 110.1c1.6.3 2.1 5.5 2 6.9-.1 1.6 1.3 5.6-.5 6.6-.8.5-1-1.3-.9-1.7.3-1.2.3-2.2.3-3.4 0-1.5-.2-2.8-.6-4.2-.2-1.1-.7-3.1-.3-4.2M134.6 119c-.3 1.3-2.1 1.1-2.6 2.2-.2.6-1.1 3-1.8 3.3-1.7.7-.1-3.3.3-3.9.7-.8 3-3.2 4.1-1.6M131.3 130.3c-.8-.2-2.5-1.2-1.7-2.3 1.2-.3 2.1 1.4 1.7 2.3"/><path class="st5" d="M159 128.1c0-.2-.2 2.4-.7 2.6-1.2-.5-.3-2.5.7-2.6M86.2 135.2c-.8-.2.2-5.4.5-5.7 1.9-.3.7 5.3-.5 5.7M100 134.6c-1-1.3.4-4 1.2-5.1 1.9.1-.8 5.3-1.2 5.1M95.6 133.5c-.5-1.2.4-2.8.6-3.9 2.8.4 1.4 3.5-.6 3.9M164.6 130.4c.2.2.1.7 0 1-.3.2-.6.1-.9-.1.1-.5.4-.9.9-.9zM104.1 131.1c.4.5.5 3 0 3.4-.7.5-1.6-3.4 0-3.4"/><path d="M204 282.7c-3.2-6.3-7.1-14.8-10.3-24-2.1-6.1-4-12.6-5-19-.3-2.2-.5-4.5-.5-6.7 0-6.7 1.3-13.4 3.2-19.8 1.9-6.4 4.3-12.4 6.8-17.7 2.2-4.8 4.4-9 6.2-12.2l-33.3-27H88l-33.3 27c1.8 3.1 4 7.3 6.2 12.2 2.4 5.3 4.9 11.3 6.8 17.7 1.9 6.4 3.2 13.1 3.2 19.8 0 2.2-.2 4.5-.5 6.7-1 6.4-2.8 12.9-5 19-3.2 9.2-7.2 17.7-10.3 24-1.3 2.6-2.5 4.8-3.4 6.5L62 308.3c2.6.2 6.1.7 10.1 1.4 4.1.7 8.8 1.7 13.5 3.2 4.7 1.5 9.5 3.4 14 6.1 3.9 2.4 8 5.1 12 7.8 11.9 8.2 17.8 13.5 17.9 13.5.1-.1 6-5.4 17.9-13.5 4-2.7 8.1-5.4 12-7.8 4.5-2.7 9.3-4.6 14-6.1 4.7-1.5 9.4-2.5 13.5-3.2 4-.7 7.5-1.1 10.1-1.4l10.4-19.1c-.9-1.7-2.1-3.9-3.4-6.5z" style="fill:#6c0633"/><defs><path id="SVGID_1_" d="M204 282.7c-3.2-6.3-7.1-14.8-10.3-24-2.1-6.1-4-12.6-5-19-.3-2.2-.5-4.5-.5-6.7 0-6.7 1.3-13.4 3.2-19.8 1.9-6.4 4.3-12.4 6.8-17.7 2.2-4.8 4.4-9 6.2-12.2l-33.3-27H87.9l-33.3 27c1.8 3.1 4 7.3 6.2 12.2 2.4 5.3 4.9 11.3 6.8 17.7 1.9 6.4 3.2 13.1 3.2 19.8 0 2.2-.2 4.5-.5 6.7-1 6.4-2.8 12.9-5 19-3.2 9.2-7.2 17.7-10.3 24-1.3 2.6-2.5 4.8-3.4 6.5L62 308.3c2.6.2 6.1.7 10.1 1.4 4.1.7 8.8 1.8 13.5 3.2 4.7 1.5 9.5 3.4 14 6.1 3.9 2.4 8 5.1 12 7.8 11.9 8.2 17.9 13.5 17.9 13.5V252v88.2c.1-.1 6-5.3 17.9-13.5 4-2.7 8.1-5.4 12-7.8 4.5-2.7 9.3-4.6 14-6.1 4.7-1.5 9.4-2.5 13.5-3.2 4-.7 7.5-1.1 10.1-1.4l10.4-19.1c-.9-1.6-2.1-3.8-3.4-6.4z"/></defs><clipPath id="SVGID_2_"><use xlink:href="#SVGID_1_" style="overflow:visible"/></clipPath><path style="clip-path:url(#SVGID_2_);fill:#f99b26;stroke:#000;stroke-width:4.556200e-02" d="M69.9 153.5h36.6v185.8H69.9z"/><path style="clip-path:url(#SVGID_2_);fill:#f99b26" d="M152.4 153.5H189v185.8h-36.6z"/><path class="st11" d="M79.9 277.8V175.4h-6c-.7-.3-1-.6-1-.9 0-.2.3-.5 1-.8h26.5c8.2 0 14.8 2.2 20 6.6 5.2 4.4 7.8 10.6 7.8 18.6 0 4.9-.9 9.1-2.6 12.6-1.8 3.5-4.5 6.5-8.2 8.9-2.3 1.5-5.9 2.9-10.6 4.3 4.9 1.4 8.5 2.8 10.8 4.3 3.7 2.4 6.5 5.3 8.4 8.7 1.9 3.4 2.9 7.6 2.9 12.6 0 6.4-1.4 12.1-4.2 17.1-1.9 3.5-5.1 6.4-9.4 8.7-4.4 2.3-9.6 3.5-15.7 3.5H74c-.7-.3-1-.6-1-.9 0-.3.3-.6 1-.9h5.9zm18.5-102.3v48.2h4.8c2.2 0 3.8-.4 4.8-1.3 1-.8 1.6-2.2 1.6-4.2v-36.6c0-2.4-.5-4-1.6-4.9-1.1-.9-3.2-1.3-6.3-1.3h-3.3zm0 50.1v52h2.9c2.5 0 4.5-.6 6-1.7s2.2-2.6 2.2-4.6v-40.9c0-1.7-.4-3-1.3-3.7-.9-.7-2.2-1.1-4.1-1.1h-5.7zM178.8 173v41.7c0 .3-.1.6-.4.8-.2.2-.5.3-.9.3s-.7-.1-.9-.3c-.2-.2-.4-.5-.4-.8V211c0-5.9-.9-11.8-2.6-17.8-2.2-7.8-5.3-13.3-9.2-16.6-1.5-1.3-3.4-1.9-5.8-1.9-1.6 0-2.9.5-3.9 1.5-1.3 1.2-1.9 3.1-1.9 5.6V272c0 2.3.6 3.9 1.7 4.9 1.1 1 2.6 1.5 4.4 1.5 2.4 0 4.8-.8 7.3-2.5s4.4-3.9 5.7-6.7c2.8-5.7 4.1-12.1 4.1-19.2v-11.6c0-.5.1-.8.4-1.1.2-.2.5-.4.9-.4.3 0 .5.1.7.3.4.3.5.7.5 1.1V250c0 10.9-2.6 19.2-7.7 24.7-3.7 3.9-8.3 5.9-13.8 5.9-4.1 0-7.7-1-10.8-3.1-3.1-2-5.5-5.5-7.5-10.5-3.5-9.2-5.3-20.4-5.3-33.4v-12.1c0-9.4 1-18.3 3.1-26.7 2.1-8.4 5.4-14.6 10.1-18.4 3.2-2.6 6.8-3.9 10.8-3.9 4.8 0 9.1 2.6 12.9 7.7l7.2-7.3h1.3z"/><path d="M74.2 282.2h110.3v28H74.2z"/><path class="st2" d="M110.4 304.7h-3.8l-1.5-4h-7l-1.4 4H93l6.8-17.5h3.7l6.9 17.5zm-6.5-6.9-2.4-6.5-2.4 6.5h4.8zM124 304.7v-17.5h12v3h-8.4v4.1h7.3v3h-7.3v7.4H124zM161.8 298.3l3.4 1.1c-.5 1.9-1.4 3.3-2.6 4.2-1.2.9-2.8 1.4-4.6 1.4-2.3 0-4.2-.8-5.7-2.4-1.5-1.6-2.2-3.7-2.2-6.5 0-2.9.7-5.2 2.3-6.8 1.5-1.6 3.5-2.4 5.9-2.4 2.1 0 3.9.6 5.2 1.9.8.7 1.4 1.8 1.8 3.2l-3.5.8c-.2-.9-.6-1.6-1.3-2.1-.7-.5-1.5-.8-2.4-.8-1.3 0-2.3.5-3.2 1.4-.8.9-1.2 2.4-1.2 4.5 0 2.2.4 3.8 1.2 4.7.8.9 1.8 1.4 3.1 1.4.9 0 1.7-.3 2.4-.9.6-.5 1.1-1.4 1.4-2.7z"/><path class="st12" d="M149.9 54.8c0 1.3-1.3 1.1-2.7 1.7-1.9.9-1.1 3.5-1.1 3.5-.4 2-3.7-.3-3.9 1.3-.2 1.3-.1 1.7-.2 2.9-1.2.4-5.5-.1-6.2 2-.6 2.1-2.1-.4-2.9-.7-1.7-.5-4.8-1.1-6.2.5-.8.9-.1 7.1-1.1 7.4-2.8 1-6-4.8-7.2-7.5-.5-1.3-1.6-3.9-2.9-4.1-.4-.1-3.5-1.4-3.6-1.9.2-.3 10.2.2 10.4 1.3-.3.1-.6.2-.9.4-1.4 1.6 5.6 1 6.1.8 1.6-.6 2.7-1.2 5.3-1.5 2.5-.3 4-2.3 6.6-2.9 3.2-.7 7.2-4.8 10.5-3.2M88.1 80.7c1.8 4 6.4 3.9 10.3 5.2.9.3 3.1.8 3.3 2 .1.8 3.4 4.1 1.2 4.6-1.2.3-2.7-1.4-4.1-1.4-1.1 0-2-.8-3.1-.9-1.2-.2-2.5-.1-3.6-.8-.9-.5-2-.7-2.7-1.5-.7-.8-1.5-1.3-2.5-1.9-1.9-1.1-3.8-3.3-4.9-5.3-1-1.9-1.4-3.9-1.8-6-.5-2.9-.3-6.4-.4-9.3 0-2.3.1-5.4.9-7.6.9-2.6 2.2 1.2 2.2 2.1 0 2.3.8 1.7 2.4 2.4 1.7.7 1 3.6.8 4.9-.9 4.9 1 8.8 2 13.5M169.2 21.6c.7.3 1.1 1.4.9 2.1-1.4 4-8.7 5.1-10.6 8.4-.6 1-4.8 6.7-5.4 7.3-.7.6-3.5 6-4 5.9 0-2.1 2-3.9 2.6-6.2.6-2.2 2.5-5.4 3.8-7.1 1.4-1.8 3.4-3.5 5.2-5.3 2.1-2.3 5.1-3.8 7.5-5.1M96.4 14c.2.1.2.5.4.7.2.2.7.2 1 .4.6.5 1.1 1.8 2.7 1.2.9-2-1.7-2.7-1.6-4.4 0-1.1 1.3-1.9.3-3.1-1.3-.2-1.4.5-2.3.4-2.2-.2-.7-4-1.6-5.7 0-.1-.3-.7-1.2-.6-.9.1-.9.6-.9.6 0 1-.9 1.1-1.6 1.4-.6.3-.9 1.1-1.5 1.2-1.2.1-1.3-1.6-3-1.3-1 .2-1.7 1.7-2.7 1.8-.6 0-1-.4-1.6-.5-1.5-.4-3.1-.4-4.5.4-.4 1.5.5 2.4 1.2 3.2 2.9-.1 6.9-.6 9.9.2.6.1 1 .8 1.6 1.1.4.2 1 .1 1.4.3l4 2.7z"/><path class="st13" d="M44.3 305.8c-1.3-1.6-3.6-2.3-5.5-3-2.1-.8-4.3-1.4-6.6-1.8-2.1-.4-4.3-.5-6.5-.6-7.3-.6-14.7-2-21.4-4.9-1-.4.2 1.6.4 1.8 1 1.7 2.2 3.2 3.5 4.7 2.7 3.3 6 6.1 9.9 7.9 0 0 .1 0 .1.1-2.2 1.8-4.4 3.7-6.5 5.7-2.4 2.3-4.2 5.3-6 8.1-.6.9-1.7 2.3-1.8 3.4 0 .3.5 0 .6-.1.8-.4 1.7-.8 2.5-1.2 3.6-1.7 7.7-3.4 11.7-3.5 2.2-.1 4.3.3 6.4.8 4.8.9 9.8-.1 14.3-2.1 1.5-.7 2.9-1.5 4.2-2.3.3-.2 1.3-.7 1.3-1.1.3-2.2.4-4.5.4-6.7.1-1.7.2-3.7-1-5.2z"/><path class="st14" d="M44.3 305.8c-1.3-1.6-3.6-2.3-5.5-3-2.1-.8-4.3-1.4-6.6-1.8-2.1-.4-4.3-.5-6.5-.6-7.3-.6-14.7-2-21.4-4.9-1-.4.2 1.6.4 1.8 1 1.7 2.2 3.2 3.5 4.7 2.7 3.3 6 6.1 9.9 7.9 0 0 .1 0 .1.1-2.2 1.8-4.4 3.7-6.5 5.7-2.4 2.3-4.2 5.3-6 8.1-.6.9-1.7 2.3-1.8 3.4 0 .3.5 0 .6-.1.8-.4 1.7-.8 2.5-1.2 3.6-1.7 7.7-3.4 11.7-3.5 2.2-.1 4.3.3 6.4.8 4.8.9 9.8-.1 14.3-2.1 1.5-.7 2.9-1.5 4.2-2.3.3-.2 1.3-.7 1.3-1.1.3-2.2.4-4.5.4-6.7.1-1.7.2-3.7-1-5.2z"/><path class="st15" d="M45.3 308.5s.3 19 .3 22.6c0 2.8-.1 2.6-.3 2.9-.2.3-.9 1.5-12.5 6.1-9.2 3.7-11.1-3.8-13.6-5.7-2.6-2-3.7-3.4-4.2-4.7-.4-1.3 1.8-2.9 3.4-3.7 1.7-.9 3.9-1.4 6.5-2.1 2.7-.7 5.1-1.3 8.3-3.2 4.6-2.7 6.2-4.8 8.8-7 3.4-2.8 3.2-4.3 3.3-5.2z"/><path class="st13" d="M252.8 323.9c-1.8-2.8-3.6-5.8-6-8.1-2.1-2-4.3-3.9-6.5-5.7 0 0 .1 0 .1-.1 3.9-1.8 7.1-4.7 9.9-7.9 1.2-1.5 2.5-3 3.5-4.7.1-.2 1.3-2.2.4-1.8-6.8 2.9-14.2 4.3-21.5 4.9-2.2 0-4.4.2-6.5.6-2.2.4-4.4 1-6.5 1.8-1.9.7-4.2 1.4-5.5 3-1.2 1.5-1.1 3.5-1.1 5.3 0 2.2.1 4.5.4 6.7 0 .4 1 .9 1.3 1.1 1.3.9 2.8 1.7 4.2 2.3 4.4 2 9.4 3 14.3 2.1 2.1-.5 4.3-.8 6.4-.8 4.1.1 8.1 1.8 11.8 3.5.8.4 1.7.8 2.5 1.2.1.1.6.4.6.1 0-1.2-1.2-2.6-1.8-3.5z"/><path class="st14" d="M252.8 323.9c-1.8-2.8-3.6-5.8-6-8.1-2.1-2-4.3-3.9-6.5-5.7 0 0 .1 0 .1-.1 3.9-1.8 7.1-4.7 9.9-7.9 1.2-1.5 2.5-3 3.5-4.7.1-.2 1.3-2.2.4-1.8-6.8 2.9-14.2 4.3-21.5 4.9-2.2 0-4.4.2-6.5.6-2.2.4-4.4 1-6.5 1.8-1.9.7-4.2 1.4-5.5 3-1.2 1.5-1.1 3.5-1.1 5.3 0 2.2.1 4.5.4 6.7 0 .4 1 .9 1.3 1.1 1.3.9 2.8 1.7 4.2 2.3 4.4 2 9.4 3 14.3 2.1 2.1-.5 4.3-.8 6.4-.8 4.1.1 8.1 1.8 11.8 3.5.8.4 1.7.8 2.5 1.2.1.1.6.4.6.1 0-1.2-1.2-2.6-1.8-3.5z"/><path class="st15" d="M213.2 308.5s-.3 19-.3 22.6c0 2.8.1 2.6.3 2.9.2.3.9 1.5 12.5 6.1 9.2 3.7 11.1-3.8 13.6-5.7 2.6-2 3.6-3.4 4-4.6.4-1.3-1.7-2.9-3.2-3.8-1.7-.9-3.9-1.4-6.5-2.1-2.7-.7-5.1-1.3-8.3-3.2-4.6-2.7-6.2-4.8-8.8-7-3.4-2.8-3.2-4.3-3.3-5.2z"/><path class="st13" d="M243.4 329.8c-.5-3.4-.4 1.6-9.5 5.8-2 .9-6.1 2.5-11.7 4.3-1 .3-2.1.5-3.1.8h.1c-1.2.5-47.3 12.2-81 13.8-3 .1-5.9.2-9 .2-3 0-6-.1-9-.2-33.7-1.7-79.7-13.3-81-13.8h.1c-1-.2-2-.5-3.1-.8-5.7-1.8-9.7-3.3-11.7-4.3-9.2-4.2-9.2-9.3-9.7-5.9-1 6.8-.5 19.6.6 25.8.5 2.5 6 3.8 10.4 5.5.1 0 .2.1.3.1 1.9.8 4.1 1.6 6.7 2.3 17.3 5.7 48.6 13.9 90.3 14.7 1.7 0 3.5.1 5.2.1h1.6c1.7 0 3.4 0 5.1-.1 41.7-.8 73-8.9 90.3-14.7 2.6-.7 4.8-1.5 6.7-2.3.1 0 .2-.1.3-.1 4.4-1.6 9.9-2.9 10.4-5.5 1.3-6.2 1.7-19 .7-25.7z"/><path class="st14" d="M243.4 329.8c-.5-3.4-.4 1.6-9.5 5.8-2 .9-6.1 2.5-11.7 4.3-1 .3-2.1.5-3.1.8h.1c-1.2.5-47.3 12.2-81 13.8-3 .1-5.9.2-9 .2-3 0-6-.1-9-.2-33.7-1.7-79.7-13.3-81-13.8h.1c-1-.2-2-.5-3.1-.8-5.7-1.8-9.7-3.3-11.7-4.3-9.2-4.2-9.2-9.3-9.7-5.9-1 6.8-.5 19.6.6 25.8.5 2.5 6 3.8 10.4 5.5.1 0 .2.1.3.1 1.9.8 4.1 1.6 6.7 2.3 17.3 5.7 48.6 13.9 90.3 14.7 1.7 0 3.5.1 5.2.1h1.6c1.7 0 3.4 0 5.1-.1 41.7-.8 73-8.9 90.3-14.7 2.6-.7 4.8-1.5 6.7-2.3.1 0 .2-.1.3-.1 4.4-1.6 9.9-2.9 10.4-5.5 1.3-6.2 1.7-19 .7-25.7z"/><path d="m41 361.4 3.6-12.4-4.6-1.3.7-2.5 12.3 3.6-.7 2.5-4.6-1.3-3.6 12.4-3.1-1zM53.7 364.8l3.3-15.2 3.2.7-1.3 6 6.2 1.4 1.3-6 3.2.7-3.3 15.2-3.2-.7 1.4-6.6-6.2-1.4-1.4 6.6-3.2-.7zM72.5 368.7l2.3-15.4 11.8 1.8-.4 2.6-8.6-1.3-.5 3.4 8 1.2-.4 2.6-8-1.2-.6 4.2L85 368l-.4 2.6-12.1-1.9zM100.5 356.7l6.4.4c1.3.1 2.2.2 2.8.4.6.1 1.2.4 1.6.8.5.4.9.8 1.1 1.4.3.6.4 1.2.4 1.8-.1.7-.3 1.4-.7 2-.4.6-1 1-1.7 1.2 1 .3 1.7.9 2.2 1.6.5.7.7 1.5.6 2.4-.1.7-.3 1.4-.7 2-.4.6-.9 1.1-1.5 1.5-.6.4-1.4.6-2.2.6-.5 0-1.9 0-3.9-.2l-5.5-.4 1.1-15.5zm2.6 8.9-.3 4.1 3 .2c1.2.1 1.9.1 2.2.1.5-.1.9-.2 1.2-.5.3-.3.5-.7.5-1.3 0-.5-.1-.9-.3-1.2-.2-.3-.5-.6-1-.8-.4-.2-1.4-.3-2.9-.4l-2.4-.2zm.5-6.1-.3 3.6 2.1.1c1.3.1 2.1.1 2.4.1.6 0 1-.2 1.4-.5.3-.3.5-.7.6-1.2 0-.5-.1-.9-.3-1.2-.3-.3-.6-.5-1.2-.6-.3-.1-1.2-.1-2.8-.2l-1.9-.1zM133.1 373.6l-3.5-.1-1.3-3.6-6.4-.1-1.4 3.5-3.5-.1 6.6-15.4 3.4.1 6.1 15.7zm-5.9-6.3-2.1-5.8-2.3 5.7 4.4.1zM137.8 373.5l-.6-15.5 3.2-.1 7 10.1-.4-10.4 3-.1.6 15.5-3.3.1-6.9-9.9.4 10.1-3 .2zM160.6 372.2l-1.2-12.8-4.8.5-.3-2.6 12.8-1.2.3 2.6-4.8.5 1.2 12.8-3.2.2zM186.3 368.9l-3.5.5-1.9-3.3-6.4 1-.8 3.7-3.4.5 3.9-16.3 3.4-.5 8.7 14.4zm-6.8-5.2-3.1-5.4-1.3 6 4.4-.6zM190.9 368l-3.4-15.2 4.8-1.1 5.2 9.7.5-11 4.8-1.1 3.4 15.2-3 .7-2.7-11.9-.5 12.7-3.1.7-5.8-11.2 2.7 11.9-2.9.6zM209.8 358.4l2.9-1.2c.5.9 1.1 1.5 1.8 1.8.7.3 1.5.3 2.5 0s1.7-.7 2.1-1.3.5-1.1.3-1.7c-.1-.4-.3-.6-.6-.8-.3-.2-.7-.3-1.3-.3-.4 0-1.3 0-2.7.1-1.8.1-3.1 0-4-.4-1.2-.5-2-1.4-2.3-2.6-.2-.8-.2-1.5 0-2.3.2-.8.7-1.5 1.5-2.1.7-.6 1.7-1.1 2.9-1.4 1.9-.6 3.5-.6 4.7-.1 1.2.5 2.1 1.5 2.5 2.8L217 350c-.4-.7-.8-1.2-1.4-1.4-.5-.2-1.2-.2-2.1.1-.9.3-1.6.7-2 1.2-.3.3-.3.7-.2 1.1.1.4.3.6.7.8.5.2 1.5.2 3.2.1 1.6-.1 2.8-.1 3.7.1.8.2 1.6.5 2.2 1 .6.5 1 1.2 1.3 2.2.3.9.2 1.7 0 2.6-.3.9-.8 1.7-1.6 2.3-.8.6-1.9 1.1-3.2 1.5-2 .6-3.6.6-4.9 0-1.2-.5-2.2-1.6-2.9-3.2z"/><path d="M87.9 156.4s-.4.3-.5.4l-1.5 1.2c-1.8 1.5-3.6 2.9-5.4 4.4L55 183.1c-.1.1-.3.2-.4.3 2.2 4 4.3 8 6.2 12.2 2.6 5.7 5 11.6 6.8 17.7 1.9 6.4 3.2 13.1 3.2 19.8 0 2.2-.2 4.5-.5 6.7-1 6.5-2.8 12.8-5 19-2.9 8.2-6.4 16.2-10.3 24l-1.8 3.6c-.3.6-.6 1.1-.9 1.7-.1.1-.7 1.2-.7 1.2s.4.8.6 1.1c1.2 2.2 2.3 4.3 3.5 6.5 2.1 3.8 4.2 7.7 6.2 11.5 3.4.3 6.8.8 10.1 1.4 4.6.8 9.1 1.8 13.5 3.2 4.9 1.5 9.6 3.5 14 6.1 4.1 2.5 8.1 5.1 12 7.8 5.2 3.6 12.2 8.9 12.2 8.9 5.2 4.2 5.7 4.7 5.7 4.7l6.4-5.2c.1-.1.2-.2.4-.3 3.6-2.8 7.4-5.5 11.2-8.1 3.9-2.7 7.9-5.3 12-7.8 4.4-2.6 9.1-4.6 14-6.1 4.4-1.4 8.9-2.4 13.5-3.2 3.4-.6 6.7-1 10.1-1.4 1.8-3.3 3.6-6.6 5.4-10 1.3-2.3 2.5-4.7 3.8-7 .4-.7 1.2-2.2 1.2-2.2s-1.2-2.3-1.4-2.6c-.7-1.3-1.3-2.6-2-3.9-3.9-7.8-7.4-15.8-10.3-24-2.2-6.2-4-12.5-5-19-.3-2.2-.5-4.5-.5-6.7 0-6.7 1.3-13.4 3.2-19.8 1.8-6.1 4.1-12 6.8-17.7 1.3-2.8 2.7-5.6 4.1-8.4.6-1.2 2-3.8 2-3.8s-3.8-3.1-5.6-4.6l-11.1-9c-4-3.2-7.9-6.4-11.9-9.6l-4.8-3.9-83 .2z" style="fill:none;stroke:#000;stroke-width:1.25"/></svg>