<svg version="1.1" id="Layer_1" xmlns="http://www.w3.org/2000/svg" x="0" y="0" viewBox="0 0 296.1 300" style="enable-background:new 0 0 296.1 300" xml:space="preserve"><style>.st4{fill:#d20000}</style><circle cx="148.2" cy="150.1" r="143.2" style="fill:#fff"/><path d="m173.1 123.7 51.6-20.9-8.9 14.3-42.6 9.9-.1-3.3zm0 5.6v2.3h62.2l-20.1-11-42.1 8.7zm68.2-21.5c-.3-.4-.9-.7-3-1.3l-10.7-2.8c0-.1-9.3 15.2-9.3 15.2l17.5 9.3 4.9-17.2c.8-2.2 1-2.7.6-3.2zM55.2 111l4.9 17.2 17.5-9.3s-9.3-15.3-9.3-15.2l-10.7 2.8c-2.1.6-2.7.9-3 1.3-.2.5 0 1 .6 3.2zm25.7 9.5-20.1 10.9H123v-2.2l-42.1-8.7zm92.2 13.4-.1 2.2 25.9 4.2 16.2-6.5h-42zm0 4.3v2.3c0 .1 19.5 10.6 19.5 10.6s2.9 1.6 3.9 1.9c1.5.3 3.8.2 3.8.2l7.7-.4s-10.6-9.7-10.4-9.6c.2 0-24.5-5-24.5-5zm49.5-1.3-3.4-1.7-17.6 7.4 9.4 9 11.6-11.5c.8-.9 1.4-1.4 1.3-1.9-.1-.4-.4-.8-1.3-1.3zm-150.2 1.2c0 .5.5 1 1.3 1.9l11.6 11.5 9.4-9-17.6-7.4-3.4 1.7c-.9.6-1.3 1-1.3 1.3zm50.8-14.4-51.6-20.9 8.9 14.3 42.6 9.9.1-3.3zm-42 10.2 16.2 6.5 25.9-4.2-.1-2.2h-42zm17.6 9.2c.3-.1-10.4 9.6-10.4 9.6l7.7.4s2.3.2 3.8-.2c.9-.2 3.9-1.9 3.9-1.9s19.5-10.5 19.5-10.6v-2.3c-.1.1-24.8 5.1-24.5 5zm73.7-23 16.5-17.8 10.6-12.9.6-3.5-1.1-1-1.3 4-27.7 25.1c.1.2 2.4 6.1 2.4 6.1m21.2 59.3c-.3-.4-9.3-24.2-9.3-24.2-1.5-3.8-2.8-4.5-5.5-6l-6.2-3.9-.3.4 7.1 9.6v14l23 29.2c3.1 3.9 3.3 5.2 7.8 5.2l2.8-1.3-5.3-.9c.1.1-13.7-21.7-14.1-22.1m-91 0c-.3.4-14.1 22.2-14.1 22.2l-5.3.9 2.8 1.3c4.6 0 4.7-1.3 7.8-5.2l23-29.2.1-14 7.1-9.6-.3-.4-6.2 3.9c-2.7 1.5-4 2.2-5.5 6-.1-.1-9 23.7-9.4 24.1m4.7-77.2 16.5 17.8s2.3-5.9 2.4-6.1l-27.6-25-1.3-4-1.1 1 .6 3.5 10.5 12.8zm68.6 54.4v29.1l-9.6 16.3-13.1 10-5 6.4-5.1-6.4-13.2-10-9.6-16.3v-29.1l8.6-12.1-2.9-1.9v-19.1l4.1-12 3.4-2s.2-5.6 1.4-7.1c.9-1.2 5.3-2.6 5.3-2.6l2.2-3-7.8-11.2-7.7-4.2-2.5-2.9 3.8 1.2 8.1 4.6 7.8 11.1 4-1 3.9 1 7.9-11.1 8.1-4.6 3.8-1.2-2.5 2.9-7.7 4.2-7.7 11.3 2.1 2.9s4.4 1.5 5.3 2.6c1.1 1.5 1.4 7.1 1.4 7.1l3.4 2 4.1 12v19.1l-2.7 1.8 8.4 12.2zm-17.2-24.7v9.3l5.3-11.9-16-7-15.2 5.3.1.5 15.1-1.7 10.7 5.5zm-3.9-25.7 5.2 2.1-4.1-7.5-1.1 5.4zm-18.7 2.2 5.3-2-1.2-5.5-4.1 7.5zm-7.3 14.7 10.9-5.8h16.8l10.9 5.8-1.2-3.4-7.8-6.5 7 2.4-.8-2.4s-7.5-3.7-7.6-4h-17.7c-.1.3-7.6 4-7.6 4l-.8 2.4 7-2.4-7.8 6.5-1.3 3.4zm41.3 66.8-13 4.6h-18.1l-12.8-4.6 4.5 7.9 10.7 3.9-7.5-.2 10.2 7.8h7.9l10.2-7.8-7.5.2 10.7-3.9 4.7-7.9zm-32-6h19.9l9.3-7.1-.1-.3-10.2 3.7h-17.8l-10.2-3.7-.1.3 9.2 7.1zm34.6-26.5-15.3 1.8 11.6-6.4-4.6-6.4-6.6 4.4h-19.4l-6.4-4.3-4.6 6.3 11.4 6.4-15.3-1.9v8.2l9.9 3.7h29.4l9.9-3.7v-8.1zm119.3-7.4C292.1 70.6 227.5 5.9 148 5.9S4 70.6 4 150c0 79.4 64.6 144.1 144.1 144.1s144-64.7 144-144.1zm-3.4 0c0 77.5-63.1 140.6-140.6 140.6S7.4 227.5 7.4 150 70.5 9.4 148.1 9.4 288.7 72.5 288.7 150zM76.8 101.8c15.5-22.8 41.6-37.7 71.1-37.7 29.7 0 56 15.2 71.4 38.2l3.3-1.4c-16-24.1-43.7-40.3-74.7-40.3s-58.3 15.8-74.4 39.9l3.3 1.3zM60 133.9c-1 5.2-1.4 10.7-1.4 16.1 0 49.3 40.1 89.4 89.4 89.4 49.3 0 89.4-40.1 89.4-89.4 0-5.5-.5-11-1.5-16.2h-3.5c1 5.2 1.5 10.7 1.5 16.2 0 47.4-38.6 85.9-85.9 85.9S61.9 197.4 61.9 150c0-5.5.5-10.9 1.5-16.1H60z" style="fill:#0f0f0f"/><path d="m130.1 119.8 7.8-6.5-7 2.4.8-2.4s7.5-3.7 7.6-4H157c.1.3 7.6 4 7.6 4l.8 2.4-7-2.4 7.8 6.5 1.2 3.4-10.9-5.8h-16.8l-10.9 5.8 1.3-3.4zm40.1 70.1-13 4.6h-18.1l-12.8-4.6 4.5 7.9 10.7 3.9-7.5-.2 10.2 7.8h7.9l10.2-7.8-7.5.2 10.7-3.9 4.7-7.9zm2.6-32.5-15.3 1.8 11.6-6.4-4.6-6.4-6.6 4.4h-19.4l-6.4-4.3-4.6 6.3 11.4 6.4-15.3-1.9v8.2l9.9 3.7h29.4l9.9-3.7v-8.1z" style="fill:#ffb400"/><path d="M185.8 96.9V74.7l1.6.9v19.8l-1.6 1.5zm0 84.1v43.4l1.6-.9v-39.9l-1.6-2.6zm1.6-65.7v-8l-1.6 1.9v6.8l1.6-.7zm0 40.9v-5.5l-1.6-1v3.3l1.6 3.2zm-25.3-75.6V67.7l-1.6-.3v14.1l1.6-.9zm-1.6 129.6v22.4l1.6-.3v-23.5l-1.6 1.4zm0-119.2v8.1l1.6.8V88.6l-1.6 2.4zm52.4 14v-8.4l-1.6-1.4v10.5l1.6-.7zm-1.7 49.4v45l1.6.3v-45.4l-1.6.1zM111.1 96.9V74.7l-1.6.9v19.8l1.6 1.5zm-1.6 86.7v39.9l1.6.9V181l-1.6 2.6zm1.6-67.6v-6.8l-1.6-1.9v8l1.6.7zm0 37v-3.3l-1.6 1v5.5l1.6-3.2zm25.3-71.5V67.4l-1.6.3v12.9l1.6.9zm-1.5 127.4v23.5l1.6.3v-22.4l-1.6-1.4zm0-120.3v11.3l1.6-.8V91l-1.6-2.4zm-49.3 17V95.1L84 96.5v8.4l1.6.7zm-1.4 48.7v45.4l1.6-.3v-45l-1.6-.1z" style="fill:#e5e5e5"/><path class="st4" d="M66.1 77.1c-1.4-1.2-3-.6-4.2.8l-2.1 2.5 4.3 3.6 2-2.4c1.2-1.5 1.4-3.3 0-4.5zM135.4 266.8l3.7.4-1.3-5.2zM121 257.7l-2.3-.6-1 3.5 2.2.6c1.1.3 2.2-.2 2.5-1.3.3-1.3-.5-2-1.4-2.2zM55.3 72.6l-2 2.4 3.7 3.1 1.9-2.3c1-1.2 1-2.7-.2-3.7-1.2-1.1-2.6-.4-3.4.5zM36.8 147.9c1.1 0 1.8-.8 1.8-1.8s-.7-1.8-1.8-1.8c-1 0-1.7.8-1.7 1.8s.7 1.8 1.7 1.8zM86.6 242c-2.3-1.5-5.4-.9-7.1 1.9-1.8 2.8-1 5.7 1.3 7.2s5.4.9 7.1-1.8c1.8-2.8 1.1-5.8-1.3-7.3zM119.4 263.8l-2.4-.7-1.1 4 2.3.6c1.4.4 2.7-.1 3.1-1.4.3-1.2-.6-2.1-1.9-2.5zM36.8 150c-1.7 0-2.8 1.2-2.8 2.7 0 1.5 1.1 2.7 2.8 2.7 1.7 0 2.8-1.2 2.8-2.7 0-1.4-1.1-2.7-2.8-2.7zM78.1 54.8c-1-1.2-2.6-1.4-4-.3l-2.4 2 3.5 4.3 2.3-1.8c1.4-1.2 1.6-2.9.6-4.2zM239 80.5c2.7-2.6 3.5-6.5.4-9.5l-2.3-2.3-10 9.8 2.2 2.2c3.1 3.1 7 2.4 9.7-.2zM256.1 147.8c1.1 0 1.8-.8 1.8-1.8s-.7-1.8-1.8-1.8c-1 0-1.7.8-1.7 1.8 0 1.1.7 1.8 1.7 1.8zM256.1 150c-1.7 0-2.8 1.2-2.8 2.7 0 1.5 1.1 2.7 2.8 2.7 1.7 0 2.8-1.2 2.8-2.7 0-1.5-1.1-2.7-2.8-2.7zM270 144.3c-1.7 0-2.7 1.3-2.7 2.8 0 1.5 1.1 2.8 2.7 2.8 1.7 0 2.7-1.3 2.7-2.8 0-1.6-1.1-2.8-2.7-2.8zM220.5 57.3c.9-1.2.8-2.8-.7-3.9l-2.5-1.9L214 56l2.4 1.8c1.4 1.1 3.1.8 4.1-.5zM190 52.4c3.4 1.4 7.2 0 8.9-4 1.7-4 0-7.8-3.4-9.2-3.4-1.4-7.2 0-8.9 4.1-1.7 3.9 0 7.7 3.4 9.1z"/><path class="st4" d="M148.2 12.9c-75.6 0-137 61.5-137 137 0 75.6 61.5 137 137 137 75.6 0 137-61.5 137-137s-61.5-137-137-137zM242 68.4c4.9 5 3.9 11.3.1 15-3.7 3.7-10.3 5-15.7-.4l-5-5 15.2-15 5.4 5.4zm-19.6-17.6c3.4 2.6 3.7 6.3 1.7 9-1.3 1.8-3.8 3-6.6 2.2l-1.3 10.8-4.1-3.1 1.4-9.5-1.6-1.2-5.1 6.7-3.4-2.6 12.8-17 6.2 4.7zm-39.7-9.2c2.5-5.9 8.7-8.5 14.4-6.1 5.7 2.4 8.3 8.6 5.8 14.5-2.5 5.9-8.7 8.4-14.4 6-5.7-2.3-8.3-8.5-5.8-14.4zm-15.8-14.7 12.7 2.4-.7 3.6-8.5-1.6-1 5.1 6.8 1.3-.7 3.6-6.8-1.3-1.7 8.6-4.2-.8 4.1-20.9zm-27.5-1.3 17.6.1v3.7h-6.7l-.1 17.6h-4.3l.1-17.6h-6.7l.1-3.8zm-23 4.2 12.8 10.9-3-13.2 4.2-1 4.8 20.8-3.9.9-12.7-10.8 3 13.1-4.2 1-4.8-20.8 3.8-.9zm-15.9 5.1 1.6 3.3-7.8 3.7 2.2 4.7 6.2-3 1.6 3.3-6.2 3 2.2 4.6 8-3.8 1.6 3.3L98 59.7l-9.2-19.2 11.7-5.6zM72.2 51.4c3.3-2.7 7-2.1 9.1.6 1.4 1.7 2 4.4.5 7l10.1 3.9-4 3.3-8.9-3.7-1.5 1.2 5.3 6.6-3.3 2.7L66 56.3l6.2-4.9zM52.8 70c2.8-3.3 6-3.6 8.2-1.8 1.6 1.4 2.2 3.6 1.4 5.6 1.9-1.5 4.4-1.7 6.5 0 2.4 2 3.5 6.1.4 9.7l-5.1 6.1-16.4-13.7 5-5.9zm-26.2 87.5h-2.4v-13.9l2.4-1.5v15.4zm10.2.2c-2.9 0-5.2-2.1-5.2-4.9 0-1.8.9-3.2 2.3-4-.7-.6-1.1-1.6-1.1-2.7 0-2.2 1.7-4 4-4s4 1.8 4 4c0 1.1-.4 2-1.1 2.7 1.4.8 2.3 2.3 2.3 4 0 2.8-2.2 4.9-5.2 4.9zM58.7 222l-2.2 1.6-3.1-4.2-5.3 3.9-1.9-2.6 12.9-9.5 5.8 7.8-2.2 1.6-3.9-5.2-3.1 2.3 3 4.3zm2.5 17.3c-3.2-3.3-3.2-8.4.3-11.8 3.5-3.4 8.5-3.3 11.8.1 3.2 3.3 3.2 8.4-.3 11.8-3.5 3.4-8.6 3.3-11.8-.1zM90.7 251c-2.6 4-7.5 5.1-11.5 2.6-3.9-2.5-5-7.5-2.5-11.5 2.6-4.1 7.6-5.2 11.5-2.7 3.9 2.6 5.1 7.6 2.5 11.6zm18.5 3.2-4.6-2.1-5.5 12.1-2.9-1.3 5.5-12.1-4.6-2.1 1.1-2.5 12.1 5.5-1.1 2.5zm16.5 5.9c-.4 1.5-1.8 2.6-3.4 2.7 1.6.9 2.6 2.5 2 4.4-.6 2.3-3.1 4.3-6.5 3.3l-5.8-1.6 4.3-15.4 5.6 1.6c3.2.9 4.4 3 3.8 5zm15.2 13.9-1-3.7-5.9-.6-1.7 3.5-3.5-.4 7.8-15.3 3.1.3 4.6 16.6-3.4-.4zm7.1-31.1c-51.2 0-92.9-41.7-92.9-92.9 0-5.6.6-11.6 1.5-16.4.3-1.5.8-3.2.8-3.2L52 112c-1.1-3.9-1.6-5-1-6 .2-.4.7-1.1 2.5-1.5l15.9-4 .3-.6c16.5-25.7 45.4-42.8 78.2-42.8 32.6 0 61.4 16.9 77.9 42.4l.5.9 15.9 4c1.8.5 2.3 1.1 2.5 1.5.6 1 .2 2.1-1 6l-5.3 18.4s.5 1.8.8 3.4c1 5.3 1.4 10.7 1.4 16.3.3 51.2-41.4 92.9-92.6 92.9zm3.8 31.3-.9-16 3.2-.2.8 13.3 6.4-.4.2 2.7-9.7.6zm17-1.8-3.1-15.7 3.2-.6 2.6 13 6.3-1.3.5 2.7-9.5 1.9zm31.2-9.8c-3.9 1.7-8.5.4-10.6-4.4-2.3-5.1.4-9.5 4.2-11.2 2-.9 4.6-1.1 7 .2l-1.2 2.9c-1.6-1-3.3-.9-4.6-.3-2.5 1.1-3.9 3.6-2.4 6.9 1.4 3.1 4.1 4.1 6.6 3 1.9-.8 3-2.6 2.9-5l3 .2c-.1 3.7-2 6.5-4.9 7.7zm13.6-7.4-8.9-13.3 2.7-1.8 7.4 11 5.3-3.6 1.5 2.3-8 5.4zm18.7-13.5c-2.4 2.1-6.2 2.7-8.9-.3l-6.8-7.8 2.4-2.1 6.6 7.5c1.6 1.8 3.3 1.6 4.7.4 1.3-1.2 1.8-2.9.2-4.7l-6.6-7.5 2.4-2.1 6.8 7.8c2.8 3 1.7 6.7-.8 8.8zm14.7-16-4.1 4.4-11.7-11 4-4.2c2.2-2.4 4.7-2.4 6.2-1 1.2 1.1 1.5 2.8.8 4.3 1.5-1 3.4-1.1 4.9.3 1.7 1.5 2.3 4.6-.1 7.2zm9.1-68c-2.9 0-5.2-2.1-5.2-4.9 0-1.8.9-3.2 2.3-4-.7-.6-1.1-1.6-1.1-2.7 0-2.2 1.7-4 4-4s4 1.8 4 4c0 1.1-.4 2-1.1 2.7 1.4.8 2.3 2.3 2.3 4 0 2.7-2.2 4.9-5.2 4.9zm13.7-.2h-2.6l3.2-5.5c-.2 0-.4.1-.6.1-2.5 0-4.9-2-4.9-5 0-2.8 2.2-5 5.1-5 2.9 0 5.1 2.2 5.1 5 0 1.1-.4 2-.9 2.9l-4.4 7.5z"/><path class="st4" d="M239.6 216.7c-.9-.9-2-.4-2.6.3l-1.6 1.7 2.7 2.5 1.5-1.7c.7-.9.8-2 0-2.8zM63.7 229.9c-2.3 2.3-2.3 5.4-.4 7.4s5 2.1 7.4-.1c2.4-2.3 2.3-5.4.4-7.4-1.9-2.1-5-2.2-7.4.1zM241.7 221.2 240 223l3.1 2.9 1.6-1.7c1-1 1.2-2.5.2-3.4-1.1-1-2.3-.6-3.2.4z"/></svg>