<svg id="Layer_1" data-name="Layer 1" xmlns="http://www.w3.org/2000/svg" xmlns:xlink="http://www.w3.org/1999/xlink" viewBox="0 0 200.88 235.02"><defs><style>.cls-1{fill:url(#linear-gradient);}.cls-15,.cls-2{fill:#8cd2f4;}.cls-10,.cls-11,.cls-13,.cls-16,.cls-2,.cls-3,.cls-4,.cls-6{fill-rule:evenodd;}.cls-10,.cls-3,.cls-8{fill:#fff203;}.cls-14,.cls-4{fill:#6a003a;}.cls-5,.cls-6{fill:#000426;}.cls-7{fill:#fdbb30;}.cls-11,.cls-9{fill:#fff200;}.cls-10,.cls-11{stroke:#002b5c;}.cls-10{stroke-width:0.3px;}.cls-11{stroke-width:0.3px;}.cls-12,.cls-13{fill:#002b5c;}.cls-16{fill:#fdb927;}.cls-17{fill:url(#linear-gradient-2);}.cls-18{fill:url(#linear-gradient-3);}</style><linearGradient id="linear-gradient" x1="32.7" y1="-49.17" x2="157.8" y2="180.08" gradientUnits="userSpaceOnUse"><stop offset="0" stop-color="#261c02"/><stop offset="1" stop-color="#fff203"/></linearGradient><linearGradient id="linear-gradient-2" x1="184.95" y1="240.44" x2="81.46" y2="97.65" xlink:href="#linear-gradient"/><linearGradient id="linear-gradient-3" x1="221.25" y1="214.13" x2="117.76" y2="71.34" xlink:href="#linear-gradient"/></defs><title>t90</title><path class="cls-1" d="M4.48,6.16V120c0,24.94,10.09,48.86,29.17,69.17a142.79,142.79,0,0,0,65.71,39.14l1.89.43,2.1-.21h.1c7.4-1.05,17-5.19,19.74-6.43a139.23,139.23,0,0,0,28.67-17.33c25.52-20,40.9-46.89,44.47-77.82l.05-120.78Z"/><path class="cls-2" d="M12.59,14.15h175.7V126c-7.95,68.77-75.46,92.94-86.88,94.57C54.22,207.72,12.59,168,12.59,120Z"/><path class="cls-3" d="M56,91.95v39.69s3.26,14.88,5.89,17.52,13.69,15.41,17.9,17.31,22,9.65,22,9.65L125,165.21l12.42-11.4,6.95-10.35,1.9-7.6.21-15,.42-30.19-91-.09Z"/><path class="cls-4" d="M56.88,135.23H61v-5.75h4.47v-5.4h6.31v-6.32H78v-5.63h6.31v-5.86h7.34v-6.21H98.5l3.23-5,3.82,5H112l.07,6.55h6.19v5.06h5.85v5.86h5.39v6.55h6v5.63h6.31v6.78h3.67a23.81,23.81,0,0,1-1.15,5.17,7.28,7.28,0,0,1-2.29,3h-5.5v-7.13h-7.68V131.1H122.7v-6H116.5V119h-6v-6.21h-5.62v-6.09h-7v5.86H91.63v6.32H85.09V125H78.9v6.33H72.25v6.32H66.4v6.21H60.9a22.76,22.76,0,0,1-3-4.83A29,29,0,0,1,56.88,135.23Z"/><rect class="cls-5" x="56.23" y="65.66" width="90.23" height="27.14"/><path class="cls-6" d="M109.5,123.59c-.71,2,1.84,2.88.78,4.65a5.6,5.6,0,0,0-.78,2.31,3.83,3.83,0,0,0-.32,2.56c.1.1,0,.28.07.42-.39.25-1-.5-1.17.28.21.46.14,1.06.39,1.52l-.88.18c0,.64.32,1.1-.07,1.67-1.21,0-1.14-1.28-1.92-1.85-.46,0-.63.68-1,.82a1.47,1.47,0,0,1-1,.53c-.11-.6.21-1.35-.53-1.6-.6.25-1.1.75-1.77.82-.07.18-.25.14-.39.14-.14-.64.57-1.14.39-1.81-.21-.18-.35-.39-.64-.32a1.76,1.76,0,0,1-.89.25c-.14.36-.46.14-.71.21-.07-1,.85-1.67,1.45-2.45a10,10,0,0,1,3.12-1c.71-.25,1.49-.64,1.59-1.45A.65.65,0,0,0,105,129c-.39.11-.53.5-.64.82-.43.43-1,.85-1.52.57l-.78-.35v-.07c.42-.07,1-.1,1.27-.64s-.07-1.1-.11-1.74a.68.68,0,0,0-.28-.64c-1,0-1.7.67-2.65.14-.25-.39-.07-.78-.14-1.28A4.43,4.43,0,0,1,102,125c.67.18,1.13,1.14,1.88.78a4.4,4.4,0,0,1,1.52-.78c0-.39-.54-.6-.78-.75-.6.14-1.06.46-1.66.25,0-.39.43-.5.64-.71a5.86,5.86,0,0,0,2.23.14c.49-.11,1-.17,1.56-.28.25-.18.64-.11.89-.32A2,2,0,0,1,109.5,123.59Z"/><path class="cls-6" d="M113.42,148a5.05,5.05,0,0,1,.4,4.08,3.85,3.85,0,0,1-1.91,2.59c-.67.78-2.41,0-2.66,1.24a5.5,5.5,0,0,0-.39,2.56c.11.64.82.67,1.28.89a.82.82,0,0,1,.78.43c-.07.85.35,1.64.11,2.38-.64.39-1-.78-1.52,0a5.8,5.8,0,0,0,.57,2.8c-.53.29-.92-.28-1.34.25a9.72,9.72,0,0,0,.39,2.7c-.67.32-1.31-.75-1.66.25.07.46-.11,1,.14,1.42s-.32.57-.71.5c-.39-.25-.81-.07-1.2-.1-.46.14-.6.71-1.1.75-.21.43-.81.28-1.13.57l-1.41-.11c-.14-.85.78-1,1.17-1.53-.18-.35-.6-.14-.88-.21-.53.21-1,1-1.59.57-.35-.11-.6-.39-.39-.75.5-1,1.52-.89,2.41-1-.18-.49-.78-.21-1.06-.57a4.8,4.8,0,0,1-1.88.32c-.11,0-.28-.18-.25-.32.21-.75,1-.85,1.52-1.24,1.66-.32,2.51,1.07,4,.64l1.2-1.06c.21-2.27.92-5.08-1.1-6.61-1.24-1.14-3.61-2-3.61-4.16-.07-1.6,1.6-3.05.64-4.72,0-.46-.39-.78-.53-1.21a2.2,2.2,0,0,0-.82-.89c-.32.18-.18.64-.14.89v-.07c-.54-.46-1.1-.87-1.61-1.31h6.56a16,16,0,0,0,2,2.66c.78.85,1,2.24,1.95,2.88.46-.17,1.31.11,1.66-.25a2.3,2.3,0,0,0,1.49-1c.67-1,.31-2.59-.21-3.59s-1.81-.25-2.62-.64l-.45-.11Z"/><path class="cls-6" d="M99.14,148a5,5,0,0,1-1.58-2.13c0-.25.28-.39.39-.5.42,0,.63-.36,1-.39a5.82,5.82,0,0,0,.71-2.31c-.14-.11-.25-.36-.46-.32-.28.64-.25,1.63-.88,2.17-.5.11-1.06.57-1.59.53-.85.18-.57,2.38-1.84,1.31-.39.14-1-.57-1,.21-.07.36.21.92-.25,1.06-.85.07-.92-1.35-1.8-1.14-.5.32-.25,1.53-1.06,1.1-.35-.29-.64-.82-1.24-.78-.78.32-1.35.74-2.16.39a3,3,0,0,1,.57-1.35c.07-.32-.29-.39-.5-.25a1.85,1.85,0,0,1-1.27.64c-.25-.71.64-1.24.71-2-.11-.25-.39-.21-.57-.14-.46.32-.46,1.28-1.27,1-.18-.21,0-.57,0-.89.5-.35.78-1.1,1.49-1.07.14-.32.56-.07.74-.32.28.25.74,0,1,.18,1,.5,2.3,1.24,3.33.57.64-.11,1.1-.78,1.59-1.14,1-.92,2.3-1.88,3.43-2.77.17-.39-.28-.25-.46-.35-1.49.53-2.94-.14-4.25-.64,0-.78.88-.57,1.06-1.28-.14-.78-1.06-.6-1.59-.92.14-.64,1.35-1.21.53-1.85a1.93,1.93,0,0,1-1.1-.39V134a2.68,2.68,0,0,0,.71-.71,3.65,3.65,0,0,0,.49-2.56c-.81-1.1-2.87-1.63-2.87-3.19.71-.39,1.52.28,2.19.32,0-.92-1.95-.92-.92-1.77a2.84,2.84,0,0,1,1.81-.07l.18-.18c-.25-.64-1.42-.36-1.06-1.17,1-.85,2.41-.35,3.36.39.18.39.63.92.39,1.42.35.53-.14,1.28-.07,1.85-1,1.77-.14,3.8.71,5.36.53,1-.64,1.78-.78,2.74-.07.39-.42.78-.17,1.1l.39.25a6.14,6.14,0,0,1,1.63,0l.14-.11c.25.32-.25,1,.39,1.06a3.72,3.72,0,0,0,1.52-.39c.18.11.49.18.49.46a3.7,3.7,0,0,0,.53,1.67c.07.21.39.14.49.07.46-.25.89-1.38,1.52-1s1.06,1.74,2.05,1.85c.28-.46.25-1.1.5-1.49.42,0,.6.35,1,.39.32.89-.28,1.71-.35,2.56.15.85-.39,1.7,0,2.56a4.1,4.1,0,0,0,.52,2.52Z"/><path class="cls-6" d="M109.55,148a2.48,2.48,0,0,1-1.46-1,1.82,1.82,0,0,1,1,.18c.32-.25.71.28,1.1,0,.18-.07.39-.07.49-.25-.88-1-2.73-1.39-2.9-3a3,3,0,0,0,2.48.78c.21-.25-.11-.43-.14-.64a7.21,7.21,0,0,1-1.34-1.6,3.35,3.35,0,0,1-.32-1.28c.35.28.81.71,1.28.56.39-.78.11-1.6.46-2.38-.35-1.1.71-1.92.64-3.05.74-1.07.92-2.34,1.77-3.34s2.16-2,3.58-1.92c.21.14.42-.21.64,0,1.2.5,1.31,1.71,1.52,2.73a4.33,4.33,0,0,1,.07,1.92c-.25,2.06-1.2,3.8-1.84,5.68-.25.53-.35,1.07-.56,1.6-.53-.18-.32-1-.46-1.67-.21-.32-.67-.18-1-.1-.14-1.46.89-2.45,1.6-3.59.07-.11-.07-.36-.25-.39a1.91,1.91,0,0,0-1.35.53l-.18-.14c.5-1.35,2-1.74,2.66-2.88.07-.46.39-1.06.07-1.53-.11-.71-.89-.89-1.38-1.17-2.16.39-3.58,2.49-4.21,4.44-.18,1.07-.74,2-.71,3.13a12.27,12.27,0,0,0,.39,4.26A23.31,23.31,0,0,0,113,147.1c.14.28.29.56.41.85Z"/><path class="cls-6" d="M98.1,133.85c0,.5-.5.89-.32,1.35.46.78,1-.14,1.67.07.14-.18.53-.21.64-.07a3.31,3.31,0,0,0-.6,1.42c1,.53,1.91.11,2.94-.21.21.39-.46,1,.32,1.28a4.76,4.76,0,0,0,2.48-1c.67-.21,1,.82,1.6,1,0,.18.28.39,0,.53-.35-.07-1-.18-1.06.39a2.84,2.84,0,0,1,.07.82c-.57-.14-1-.78-1.67-.78-.6.39-.25,1.45-1,1.49-.71-.46-.39-1.6-1.35-1.67-.53.28-1,.92-1.52,1.1-.39-.64,0-1.56-.57-2.13-.56,0-1,.57-1.56.25-.18-.53.46-1.21-.32-1.45a8.77,8.77,0,0,1-1.91.64l-.11-.32a5.11,5.11,0,0,1,2-2.73Z"/><path class="cls-6" d="M98.49,150.29a4.73,4.73,0,0,0,1.91.18c.64.68-.31,2.2,1.2,2.06a17.16,17.16,0,0,0-1,3.37c-1.27.18-2.76-1.2-3.72.22-.11.46.14.67.22,1.06a5.7,5.7,0,0,1,.74,2.45c0,.14,0,.43-.25.32-.53-.21-1-.71-1.59-.46-.43.82.57,1.67.14,2.56-.18.39-.53.07-.71-.07s-.46-.18-.71-.32c-.67.32-.25,1.06-.42,1.56-.5.28-1-.46-1.35,0a3,3,0,0,1-3.12,1.21c-.18-.53.35-1.17.81-1.53.07,0,.07-.14.07-.21a.44.44,0,0,0-.46-.18c-.64.25-1.1.89-1.77.71-.21-.53.32-.92.57-1.28.21-.18.64-.14.64-.53-.67-.42-1.21.25-1.77.39-.18-.82.88-.92,1.38-1.28a2,2,0,0,1,1.21.25,3.12,3.12,0,0,0,3.15-1.45c.82-2.24.29-4.16.43-6.61.5-.82.74-2,1.73-2.42Z"/><path class="cls-3" d="M102.42,72.16l-.11.23c-.27,1.61.23,3.15-.16,4.57-.15.34-.69.38-1,.27-.5-.88.16-1.73-.34-2.65.23-1.34-.5-3.11.61-4.34C102.54,70.24,102.2,71.51,102.42,72.16Z"/><path class="cls-3" d="M100.09,71.28c.38,1.65.15,3.8.23,5.72,0,.23-.27.42-.42.5a.56.56,0,0,0-.57.15c-.88-1.46-.31-3.26-.46-5a2.38,2.38,0,0,1,.77-1.57A.44.44,0,0,1,100.09,71.28Z"/><path class="cls-3" d="M104,71.35c.31,1.65-.08,3.22.08,5.18-.27.23-.08.69-.42.81A.53.53,0,0,1,103,77a32.87,32.87,0,0,1,0-5.14C103.19,71.47,103.5,70.93,104,71.35Z"/><path class="cls-3" d="M98.37,73.54a25.81,25.81,0,0,1-.19,4.22c-.15.38-.65.11-.84.58.08.35.42.54.69.69.73.11,1.23-.27,1.87-.23.58-.23,1.3.15,1.8-.27.84.11,2-.31,2.53.34-.23.88-1.45.61-2.14,1-.5.19-1.07.19-1.49.61,0,1.19-.34,2.38.27,3.38.19-.12.5-.42.19-.69l.15-1.84c.5-.73,1.38-.77,2.14-1.11.46-.19,1.38-.11,1.72-.61.08-1.27-.53-2.49.46-3.45.65,0,.35,1.34,1.34,1.15a2.08,2.08,0,0,1-.15,1.34c0,1.3,0,2.84.08,4.14-.42,1.23-1.3,2.73-2.83,2.8a1.11,1.11,0,0,0-.54.58c.12.38.69.15.69.69a2.64,2.64,0,0,1-.31,2,7.55,7.55,0,0,0-2.11.42c-.57-.35-1.34-.19-1.95-.42-.35,0-.62.27-1,.08a11.87,11.87,0,0,0-.19-2.57,5.27,5.27,0,0,0-1.26-1,28.69,28.69,0,0,1-.12-10.21,4.24,4.24,0,0,1,.53-2.49C98.48,72.43,98.06,73.31,98.37,73.54Z"/><polygon class="cls-6" points="68.86 96.83 64.28 104.46 68.94 113.11 73.44 104.39 68.86 96.83"/><polygon class="cls-6" points="135.51 96.37 130.93 104 135.59 112.64 140.08 103.92 135.51 96.37"/><path class="cls-6" d="M27.72,134.13s-.84-5.2,0-7.44,3.78-5.48,6.44-5.48,6,3.51,6.58,5.62-.42,5.06-.56,7.44.14,6.32.14,6.32l-11.76-2.95Z"/><path class="cls-7" d="M27,134.24s-.87-5.38,0-7.8h0a7.9,7.9,0,0,1,.52-1.09,11.16,11.16,0,0,1,.73-1.11c1.43-1.93,3.7-3.74,5.87-3.74h0a4.56,4.56,0,0,1,1.37.23,6.92,6.92,0,0,1,1.31.58,10.7,10.7,0,0,1,4.6,5.34h0a12.73,12.73,0,0,1-.2,5.1c-.15.89-.29,1.77-.34,2.56-.14,2.33.14,6.21.14,6.23l.07,1-1-.24-11.76-2.95-.42-.11-.1-.43L27,134.3v-.06Zm1.39-7.3c-.74,2,0,6.68,0,7.06l.73,3,10.38,2.6c-.07-1.34-.18-3.74-.08-5.42a26,26,0,0,1,.36-2.71A11.92,11.92,0,0,0,40,127h0a9.06,9.06,0,0,0-3.91-4.45,5.55,5.55,0,0,0-1-.46,3.1,3.1,0,0,0-.93-.16h0c-1.66,0-3.51,1.53-4.71,3.15a9.58,9.58,0,0,0-.63,1,6.69,6.69,0,0,0-.42.89Z"/><path class="cls-6" d="M40.46,131.32s-4.76-.14-6.44,1.54-2.66,2.67-2.38,3.79,3.22,1.41,4.48,1.69a36.49,36.49,0,0,0,4.2.42s-.14-3.51-.14-5.06A8.29,8.29,0,0,1,40.46,131.32Z"/><path class="cls-7" d="M39.57,132.05c-1.37,0-4,.27-5,1.33h0a18.13,18.13,0,0,0-1.85,2,1.35,1.35,0,0,0-.35,1.09h0c.12.46,1.84.77,3.06,1l.88.17a27.86,27.86,0,0,0,3.29.36c0-1.14-.11-3.22-.11-4.28a11.31,11.31,0,0,1,.12-1.66Zm-6.06.3c1.9-1.9,7-1.75,7-1.75l1,0-.31.92a7.56,7.56,0,0,0-.24,2.16c0,1.59.13,5,.14,5l0,.79-.79,0A36.84,36.84,0,0,1,36,139l-.81-.15c-1.6-.29-3.86-.69-4.21-2.06h0a2.66,2.66,0,0,1,.57-2.28,19.1,19.1,0,0,1,2-2.2Z"/><path class="cls-6" d="M29.82,150.41s-2.8-5.48-3.08-9.55a27.86,27.86,0,0,1,.7-7.86s3.36,3.23,5.6,4.21,11.48,2.25,13,2.81,5.18,2.67,5.46,4.77-.42,8.43-1.12,9.55a6.48,6.48,0,0,1-1.82,1.83L30.1,152.52Z"/><path class="cls-7" d="M29.12,150.63c-.41-.82-2.84-5.85-3.1-9.71a28.58,28.58,0,0,1,.72-8.09l.3-1.21.9.87s3.25,3.13,5.38,4.07h0a57.2,57.2,0,0,0,8.06,1.77,48.35,48.35,0,0,1,4.92,1h0c.25.09.53.21.82.35s.61.31,1,.5c1.79,1,3.91,2.71,4.15,4.51h0a10.36,10.36,0,0,1,.07,1.2c0,.46,0,1,0,1.49-.14,2.77-.69,6.43-1.25,7.33A7.3,7.3,0,0,1,49,156.79l-.24.15-.28-.06L30,153.23l-.51-.1-.07-.52-.26-2Zm-1.66-9.81c.27,3.93,3,9.25,3,9.27l.07.23.21,1.59,17.68,3.49A5.53,5.53,0,0,0,49.79,154c.45-.71.9-4,1-6.64,0-.52,0-1,0-1.41a8.9,8.9,0,0,0-.06-1h0c-.16-1.23-1.93-2.57-3.43-3.43-.29-.17-.58-.32-.87-.45s-.51-.23-.69-.3h0c-.58-.21-2.5-.56-4.68-1a57,57,0,0,1-8.37-1.87h0a22.91,22.91,0,0,1-4.87-3.49A26.51,26.51,0,0,0,27.46,140.82Z"/><path class="cls-6" d="M174.37,134.5s.84-5.2,0-7.44-3.78-5.48-6.44-5.48-6,3.51-6.58,5.62.42,5.05.56,7.44-.14,6.32-.14,6.32L173.53,138Z"/><path class="cls-7" d="M173.66,134.35c.06-.41.77-5.07,0-7h0a5.87,5.87,0,0,0-.42-.89,8.94,8.94,0,0,0-.63-1c-1.2-1.62-3-3.15-4.71-3.15h0a3.11,3.11,0,0,0-.93.16,5.54,5.54,0,0,0-1,.46,9,9,0,0,0-3.91,4.45v0a12,12,0,0,0,.23,4.47,26.72,26.72,0,0,1,.36,2.71c.1,1.68,0,4.08-.08,5.41l10.38-2.6.73-3.05Zm1.39-7.56c.91,2.43,0,7.79,0,7.81v.06l-.83,3.45a.73.73,0,0,1-.54.59l-11.76,2.95h0a.8.8,0,0,1-.23,0,.72.72,0,0,1-.67-.77s.28-3.89.14-6.22a24.38,24.38,0,0,0-.34-2.56,12.77,12.77,0,0,1-.2-5.08v0a10.66,10.66,0,0,1,4.6-5.34,6.82,6.82,0,0,1,1.31-.59,4.57,4.57,0,0,1,1.37-.23h0c2.17,0,4.44,1.82,5.87,3.74a10.81,10.81,0,0,1,.73,1.11,8,8,0,0,1,.52,1.09h0Z"/><path class="cls-6" d="M161.63,131.68s4.76-.14,6.44,1.54,2.66,2.67,2.38,3.79-3.22,1.4-4.48,1.68a36.52,36.52,0,0,1-4.2.42s.14-3.51.14-5.06A8.3,8.3,0,0,0,161.63,131.68Z"/><path class="cls-7" d="M161.61,131s5.07-.15,7,1.75a19.19,19.19,0,0,1,2,2.2,2.66,2.66,0,0,1,.57,2.28h0c-.35,1.37-2.61,1.77-4.21,2.06l-.82.15a37.13,37.13,0,0,1-4.32.44.73.73,0,0,1-.76-.69v-.08c0-.29.14-3.49.14-5a7.5,7.5,0,0,0-.24-2.16.72.72,0,0,1,.46-.91.68.68,0,0,1,.21,0Zm5.95,2.78c-1.06-1.06-3.67-1.28-5-1.33a11.76,11.76,0,0,1,.11,1.66c0,1.06-.07,3.14-.11,4.28a27.36,27.36,0,0,0,3.29-.36l.88-.17c1.22-.22,2.94-.52,3.06-1h0a1.37,1.37,0,0,0-.34-1.09,18.63,18.63,0,0,0-1.85-2h0Z"/><path class="cls-6" d="M172.27,150.78s2.8-5.48,3.08-9.55a27.89,27.89,0,0,0-.7-7.86s-3.36,3.23-5.6,4.21-11.48,2.25-13,2.81-5.18,2.67-5.46,4.77.42,8.43,1.12,9.55a6.52,6.52,0,0,0,1.82,1.83L172,152.89Z"/><path class="cls-7" d="M171.65,150.42c.21-.42,2.72-5.47,3-9.24a26.56,26.56,0,0,0-.42-6.42,22.89,22.89,0,0,1-4.87,3.49h0a58.13,58.13,0,0,1-8.35,1.86c-2.18.39-4.1.74-4.68.95h0c-.19.07-.42.17-.69.3s-.58.29-.87.45c-1.5.85-3.26,2.19-3.42,3.43h0a8.33,8.33,0,0,0-.05,1c0,.41,0,.89,0,1.41.13,2.59.59,5.92,1,6.64a5.51,5.51,0,0,0,1.37,1.44l17.67-3.49.21-1.59a.75.75,0,0,1,.09-.26Zm4.43-9.14c-.27,3.87-2.7,8.9-3.1,9.71l-.26,1.93a.72.72,0,0,1-.59.67l-18.48,3.65h0a.73.73,0,0,1-.52-.1,7.3,7.3,0,0,1-2.05-2.06c-.56-.9-1.11-4.56-1.25-7.33,0-.53,0-1,0-1.49a9.77,9.77,0,0,1,.07-1.2h0c.24-1.79,2.35-3.48,4.14-4.51.35-.2.67-.37,1-.5a8.74,8.74,0,0,1,.82-.35h0a48,48,0,0,1,4.92-1,58.61,58.61,0,0,0,8-1.76l0,0h0a26.27,26.27,0,0,0,5.35-4,.75.75,0,0,1,.35-.21.73.73,0,0,1,.88.53A28.64,28.64,0,0,1,176.08,141.28Z"/><path class="cls-6" d="M29.36,149.33s20.44,1.38,33.53,12.21,28.85,21.7,39.5,21.42c8.72-.23,23.88-8.75,31.92-15.43s17-13.59,24.12-15.43a41,41,0,0,1,13.31-1.15,10.8,10.8,0,0,1,1.38,7.37c-.69,4.37-2.3,8.29-3.67,9.67s-7.35.69-12.4,3.68a159.19,159.19,0,0,0-20.9,15.66c-5.74,5.29-16.41,12.18-34.4,12.31-19.56.13-36.91-13.45-42.53-18.06-7.58-6.22-16.54-11.05-20.9-12.66s-6.2-1.15-7.58-3.23-3.21-10.36-2.3-13.36Z"/><path class="cls-7" d="M29.41,148.6c.06,0,20.67,1.4,33.94,12.37a162.27,162.27,0,0,0,20.57,14.8c6.8,4,13.28,6.59,18.46,6.45h0a20.05,20.05,0,0,0,3.87-.55,38.65,38.65,0,0,0,4.46-1.35A86.89,86.89,0,0,0,133.84,167c4-3.35,8.3-6.76,12.46-9.57s8.29-5.06,11.94-6a41.72,41.72,0,0,1,13.57-1.17.73.73,0,0,1,.53.33,11.64,11.64,0,0,1,1.48,7.88h0c-.1.66-.22,1.28-.35,1.85s-.28,1.17-.44,1.76c-.83,3-2,5.38-3.09,6.46h0l-.05,0c-.76.71-2.23.94-4.12,1.23a22.79,22.79,0,0,0-8.37,2.52h0c-.71.42-1.51.92-2.37,1.48s-1.82,1.2-2.82,1.89a159.66,159.66,0,0,0-15.59,12.19,44.49,44.49,0,0,1-12.81,8.23,56.72,56.72,0,0,1-22.08,4.27c-9.92.07-19.27-3.34-26.83-7.33a97.65,97.65,0,0,1-16.16-10.89h0c-1.06-.87-2.14-1.71-3.22-2.5s-2.2-1.58-3.29-2.31a76.63,76.63,0,0,0-14.18-7.73,34.94,34.94,0,0,0-3.67-1.11c-2-.51-3.21-.82-4.26-2.4h0a7.81,7.81,0,0,1-.66-1.33c-.21-.53-.42-1.14-.62-1.81-1-3.45-1.8-8.53-1.1-10.82l.92-3a.73.73,0,0,1,.74-.51Zm33,13.49c-11.65-9.63-29.19-11.68-32.55-12l-.74,2.43c-.62,2,.14,6.73,1.1,10,.19.64.38,1.21.58,1.68a6.12,6.12,0,0,0,.52,1.06v0c.74,1.11,1.73,1.36,3.41,1.79a35.87,35.87,0,0,1,3.81,1.15A78.21,78.21,0,0,1,53,176.11c1.12.75,2.24,1.54,3.34,2.35s2.22,1.68,3.28,2.54h0a96.25,96.25,0,0,0,15.91,10.73c7.4,3.91,16.51,7.23,26.15,7.17a55.29,55.29,0,0,0,21.52-4.15,43,43,0,0,0,12.39-8,161.78,161.78,0,0,1,15.75-12.32c1-.7,2-1.34,2.85-1.92s1.72-1.1,2.42-1.52h0a24.06,24.06,0,0,1,8.89-2.71c1.63-.25,2.9-.45,3.34-.84l0,0h0a15,15,0,0,0,2.72-5.83c.15-.53.29-1.09.42-1.68s.24-1.19.33-1.76h0a10.29,10.29,0,0,0-1.09-6.57,40.79,40.79,0,0,0-12.72,1.16c-3.46.9-7.41,3.05-11.49,5.8s-8.34,6.16-12.34,9.49a88.65,88.65,0,0,1-23.56,13.62,39.79,39.79,0,0,1-4.62,1.4,21.38,21.38,0,0,1-4.15.58h0c-5.47.15-12.2-2.54-19.21-6.64A163.84,163.84,0,0,1,62.42,162.09Z"/><path class="cls-8" d="M70.57,71a.48.48,0,1,1,.84-.48l9.32,16.38a.48.48,0,0,1-.84.48Z"/><path class="cls-8" d="M70.87,87.7a.48.48,0,1,1-.84-.48l9.32-16.38a.48.48,0,1,1,.84.48Z"/><ellipse class="cls-9" cx="75.28" cy="79.79" rx="3.21" ry="9.1"/><path class="cls-6" d="M72.11,80.91a21.92,21.92,0,0,0,3.16.37,22.65,22.65,0,0,0,3.16-.51,3.15,3.15,0,0,1,0,.81c0,.44-.14,1.14-.14,1.14s-2.6.49-3.12.49-2.95-.28-2.95-.28Z"/><path class="cls-6" d="M72.41,84.08a13.68,13.68,0,0,0,2.88.42,24,24,0,0,0,2.81-.42,13.31,13.31,0,0,1-.44,1.82c-.16.3-2,.4-2.35.37A14.8,14.8,0,0,1,72.92,86,19.11,19.11,0,0,1,72.41,84.08Z"/><path class="cls-6" d="M73.34,87a9.46,9.46,0,0,0,2.16.35A7.54,7.54,0,0,0,77.27,87a10.44,10.44,0,0,1-.7,1.14c-.16.16-1.25.09-1.53.09A2.37,2.37,0,0,1,73.88,88a4.08,4.08,0,0,1-.6-1Z"/><path class="cls-6" d="M73.47,73.86s.42-1.42,1-1.76,1.07-.61,1.64,0a2.26,2.26,0,0,1,.76,1.3c.11.46.15.73.15.73H73.43Z"/><path class="cls-3" d="M86.41,81.63c-.41,1.48-5.74,1.28-11.88-.45s-10.8-4.34-10.38-5.82,5.74-1.28,11.88.45S86.82,80.15,86.41,81.63Z"/><path class="cls-3" d="M87,75.36c-.21-1.47-5.57-1.13-12,.76s-11.43,4.63-11.23,6.1,5.57,1.13,12-.76S87.2,76.84,87,75.36Z"/><path class="cls-8" d="M71.82,79.77h0a20.29,20.29,0,0,1,1-6.51c.62-1.74,1.5-2.82,2.5-2.83h0c1,0,1.88,1.08,2.5,2.83a20.32,20.32,0,0,1,1,6.51h0a20.33,20.33,0,0,1-1,6.51c-.62,1.75-1.5,2.82-2.5,2.83h0a1.62,1.62,0,0,1-1-.38,3.34,3.34,0,0,1-.68-.76c-1.05-1.56-1.77-4.65-1.77-8.2Zm.48,0h0c0,3.46.68,6.45,1.69,7.93a2.83,2.83,0,0,0,.58.65,1.16,1.16,0,0,0,.71.28h0c.77,0,1.5-1,2-2.5a19.88,19.88,0,0,0,.93-6.35h0a19.87,19.87,0,0,0-.93-6.35c-.55-1.55-1.27-2.5-2-2.5h0c-.77,0-1.5,1-2,2.5A19.87,19.87,0,0,0,72.3,79.77Z"/><path class="cls-8" d="M123.3,71a.48.48,0,1,1,.84-.48l9.32,16.38a.48.48,0,0,1-.84.48Z"/><path class="cls-8" d="M123.6,87.7a.48.48,0,1,1-.84-.48l9.32-16.38a.48.48,0,1,1,.84.48Z"/><ellipse class="cls-8" cx="128.01" cy="79.79" rx="3.22" ry="9.1"/><path class="cls-6" d="M124.85,80.91a21.82,21.82,0,0,0,3.16.37,22.73,22.73,0,0,0,3.16-.51,3.18,3.18,0,0,1,0,.81c0,.44-.14,1.14-.14,1.14s-2.6.49-3.11.49-3-.28-3-.28Z"/><path class="cls-6" d="M130.84,84.08a13.16,13.16,0,0,1-.44,1.82c-.16.3-2,.4-2.35.37a14.74,14.74,0,0,1-2.39-.28,18.1,18.1,0,0,1-.52-1.91,13.71,13.71,0,0,0,2.88.42"/><path class="cls-6" d="M126.08,87a9.42,9.42,0,0,0,2.16.35A7.59,7.59,0,0,0,130,87a11.07,11.07,0,0,1-.7,1.14c-.17.16-1.26.09-1.54.09a2.36,2.36,0,0,1-1.16-.23,4,4,0,0,1-.6-1Z"/><path class="cls-6" d="M126.2,73.86s.42-1.42,1-1.76,1.07-.61,1.64,0a2.26,2.26,0,0,1,.77,1.3c.11.46.15.73.15.73h-3.59Z"/><path class="cls-3" d="M139.14,81.63c-.41,1.48-5.73,1.28-11.88-.45s-10.8-4.34-10.38-5.82,5.74-1.28,11.89.45S139.56,80.15,139.14,81.63Z"/><path class="cls-3" d="M139.73,75.36c-.21-1.47-5.56-1.13-12,.76s-11.44,4.63-11.23,6.1,5.56,1.13,12-.76S139.94,76.84,139.73,75.36Z"/><path class="cls-9" d="M124.56,79.77h0a20.32,20.32,0,0,1,1-6.51c.61-1.74,1.5-2.82,2.5-2.83h0c1,0,1.88,1.08,2.5,2.83a20.43,20.43,0,0,1,1,6.51h0a20.35,20.35,0,0,1-1,6.51c-.62,1.75-1.5,2.82-2.5,2.83h0a1.61,1.61,0,0,1-1-.38,3.34,3.34,0,0,1-.69-.76c-1-1.56-1.77-4.65-1.77-8.2Zm.48,0h0c0,3.46.68,6.45,1.69,7.93a2.83,2.83,0,0,0,.58.65,1.16,1.16,0,0,0,.7.28h0c.78,0,1.5-1,2-2.5a19.8,19.8,0,0,0,.93-6.35h0a19.79,19.79,0,0,0-.93-6.35c-.55-1.55-1.27-2.5-2-2.5h0c-.77,0-1.5,1-2,2.5A19.84,19.84,0,0,0,125,79.77Z"/><path class="cls-10" d="M99,16.81a7.93,7.93,0,0,1,0,2.26,4.65,4.65,0,0,1-.39,1.3,17,17,0,0,1,2.13-.91c.71-.19,1.81-.39,2.2-.52s-2.26,1.1-3.16,1.62a7.38,7.38,0,0,0-2.26,1.68c-.39.58-1.81,2.46-1.81,3.11s.78,1.36.65,2.33a3,3,0,0,1-.65,1.68c-.2.19-.26-.13-.32-1a4.65,4.65,0,0,0-.2-1.17,2.36,2.36,0,0,0-.58.78,4.81,4.81,0,0,1-.84,1.62,7.18,7.18,0,0,1-1.1,1.1s.19-3,.84-3.82a12.45,12.45,0,0,0,1-1.42,8.55,8.55,0,0,0,.65-2.72,6.94,6.94,0,0,1,1-3.82A9.38,9.38,0,0,1,99,16.81Z"/><path class="cls-11" d="M111.83,43.7l.84-.13-.45-.65s1.48.78,1.68.84.39-.19.39-.19a1.59,1.59,0,0,0,.58.26c.33.06.65-.39,1-.78s.71-.78.06-.91a8,8,0,0,1-1.49-.52,1.16,1.16,0,0,1-.65-.46l.77-.13A13.22,13.22,0,0,1,112,38.78a14.06,14.06,0,0,0-3.1-3.3,12.32,12.32,0,0,0-3.87-2.4c-1.17-.26-1.87-.45-1.87-.45a23.29,23.29,0,0,1,.32-3.5,38,38,0,0,0,1.23-3.95,3,3,0,0,0-.77-2.53,3.49,3.49,0,0,0-2.65-1.23,7.59,7.59,0,0,0-2.81,1c-.71.32-1.13.75-1.91,1.14a6.39,6.39,0,0,0-1.29.69c-.19.2-.1.27-.1.27l.28.08A14.43,14.43,0,0,1,97,24.21c.71-.13,1.32.35,2.16.87A1.94,1.94,0,0,1,100.34,27a10.42,10.42,0,0,1-1.49,3.82c-.58,1-1.55,1.94-1.74,3A10.47,10.47,0,0,0,96.72,37a7.91,7.91,0,0,0,1.68,3.69,6.76,6.76,0,0,0,1.54,1.82,7,7,0,0,0,2.66.24c.42,0,.66.48,1.81,1.09,1.32.9,3.88,1.62,4.23,1.21a10.68,10.68,0,0,1,1.51-.79Z"/><path class="cls-4" d="M98.09,22.46c-.78.37-1,.56-1.86,1a7.38,7.38,0,0,0-1.62,1.22.76.76,0,0,0-.3.45l.27-.12s1.36-.31,2.14-.46a3,3,0,0,1,2.34.63,9.48,9.48,0,0,1-.86-1.94A4.66,4.66,0,0,1,98.09,22.46Z"/><path class="cls-12" d="M101.27,34.36a9.88,9.88,0,0,0,.76,3.59h0a4.65,4.65,0,0,0,.35.54,6.37,6.37,0,0,0,.45.55A7.29,7.29,0,0,0,105.39,41l.51.15-.16-.19.35-.33a3,3,0,0,0,1.21.66l.11,0-.29-.44h0l.41-.26h0v0l0,.07c.16.23.59.82.81.68a1.42,1.42,0,0,0,.52-.46l.42.25a1.88,1.88,0,0,1-.68.63.54.54,0,0,1-.29.08l.07.11-.56-.1-.66-.12-.22-.06.05.06h-.52a5.68,5.68,0,0,1-1.28-.31,7.77,7.77,0,0,1-2.78-2.09,7.1,7.1,0,0,1-.47-.58,5.69,5.69,0,0,1-.38-.59h0a10.48,10.48,0,0,1-.81-3.81Z"/><path class="cls-13" d="M100.18,22.55a1.19,1.19,0,0,1,.67-.24,2.93,2.93,0,0,1,.91.24,1.43,1.43,0,0,1-.67.36C100.73,23,100.18,22.55,100.18,22.55Z"/><path class="cls-4" d="M100,42.39a5.73,5.73,0,0,1,1.09,1.24c.29.55.85,1.44.91,1.66s.1.33-.1.33-.88-.07-1.79-.2a6.91,6.91,0,0,1-2.5-1.21,4,4,0,0,0-1.79-.78c-.68-.07-1.14-.07-1.14-.07s1.69,1.83,2.11,2.18a12,12,0,0,0,2.44,1.73c.94.42,1.92,1.34,3.12,1.5s1.33.26,1.79-.23a9.27,9.27,0,0,0,.91-1.24s.16.16.13,1a10.22,10.22,0,0,1-.72,2.51c-.13.36-1,2.25-1.14,2.64a2.2,2.2,0,0,1-.42.65s.13.23.62.23h1.17a2,2,0,0,0,1-.16,3.12,3.12,0,0,1,.2-1.53,12.78,12.78,0,0,1,2.41-3.36,6.32,6.32,0,0,0,1.33-1.14c0-.13-.19-.65-.29-1.17s-.36-1.79-.36-1.79.18-.15-.89-.22a6.66,6.66,0,0,1-2.74-.82c-2.24-1.54-2.66-1.55-2.66-1.55s-.9.05-1.25,0S100,42.39,100,42.39Z"/><path class="cls-10" d="M97.24,45.18c.5,1.57-1,3.44-3.33,4.19s-4.63.08-5.13-1.49,1-3.44,3.33-4.19S96.75,43.61,97.24,45.18Z"/><path class="cls-14" d="M80.4,58.73s-.69-.71.92-1.43,2.75-.76,3.07-1.08a13.38,13.38,0,0,0,.69-2.52,29.56,29.56,0,0,0,3.39,2.21L91.59,53l4.2,2.23a3.91,3.91,0,0,0,1-.51,17.12,17.12,0,0,0,.57-3s2.48,3,2.8,2.67,1.91-2.52,1.91-2.52.18,2.15.35,2,1.12-.92,1.12-.92l.57.92,1.92-1.69,1,1.86,4.66-1.49s1.12,1.83,2.19,2.23a3.69,3.69,0,0,0,2.4-.17l.74-.68a10.92,10.92,0,0,0,2.2,2.75,7.73,7.73,0,0,1,1.82,1.86Z"/><path class="cls-4" d="M125.09,56.35v0H77.55a3.92,3.92,0,0,0,0,7.84v0h47.54a3.92,3.92,0,0,0,0-7.84Z"/><path class="cls-2" d="M101.22,63.08v1c-2,.11-3.07-2.27-4.81-.87l.54.65c-2.54.54-3.62-2-5.35-2.93-.4-1.3-2.81-1.73-2.81-3.36,1.21-1.3,3.61-1,5.22-.76A18.2,18.2,0,0,1,101.22,63.08Z"/><path class="cls-2" d="M118.62,62.87v1.19c-3.49-.76-4.6-2.49-7.45-3.58-2.38,1.73,1.74,2.06,1.74,3.58-2.69.65-3-1.41-4.92-2-.47-1.63-2.85-2.17-4-3.58-.48-1.41,1.75-1,2.85-1.3C113.07,56.58,114.34,61,118.62,62.87Z"/><path class="cls-2" d="M84.7,60.91C85,62,88,62.76,86.51,63.84c-3.79.33-3.13-3.9-6.6-2.17-.5,1,.83,1,1.49,1.41v.54c-2,.87-2.48-1-3.8-1.41-.49-1.73-.49-3,1.16-4.44C82.55,57,82.39,60.15,84.7,60.91Z"/><path class="cls-2" d="M125.17,59.18v1c-1.09.54-1.74-.76-2.17-1.63C123.21,56.8,124.84,58.42,125.17,59.18Z"/><path class="cls-15" d="M40.38,156.8l3.81,1.52c1.83.73,1.81,1.92,1.53,2.63a1.54,1.54,0,0,1-1.4,1,1.84,1.84,0,0,1,.52,2.22,2.39,2.39,0,0,1-3.28,1.15l-3.95-1.57Zm0,6.17,1.26.5c.45.18.89.21,1.1-.33s0-.73-.5-.93l-1.35-.53Zm1-2.6,1.13.45c.45.18.78.16,1-.29s-.1-.6-.54-.77l-1.13-.45Z"/><path class="cls-15" d="M51.67,166.68c-.88,1.89-2.32,2.32-4.4,1.35s-2.68-2.35-1.8-4.24l1.95-4.18,2.09,1-1.73,3.71c-.32.7-.73,1.56.29,2s1.39-.41,1.72-1.1l1.73-3.71,2.09,1Z"/><path class="cls-15" d="M54.66,163l3.81,2.2a2.19,2.19,0,0,1,1,3.08,1.93,1.93,0,0,1-1.91,1.07,2.05,2.05,0,0,1,0,2.17,4.94,4.94,0,0,0-.59,1.52l-2-1.15a5.36,5.36,0,0,1,.41-1.1c.3-.65.62-1.33-.17-1.79l-1.06-.61-1.31,2.27-2-1.15Zm.36,4,1,.6c.37.21.92.44,1.25-.14.24-.41.15-.78-.62-1.22l-.93-.54Z"/><path class="cls-15" d="M61.91,167.29l1.83,1.49-.84,4.5h0l2.54-3.12,1.69,1.38-4.74,5.84L60.66,176l.81-4.64h0l-2.59,3.19-1.69-1.38Z"/><path class="cls-15" d="M67.73,172.09l1.83,1.41-3.42,4.42,2.63,2-1.18,1.52L63.13,178Z"/><path class="cls-15" d="M72.41,175.71l5.13,3.47-1.08,1.6-3.22-2.18-.52.78,2.93,2-1,1.48-2.93-2-.52.78,3.32,2.25-1.08,1.6-5.23-3.54Z"/><path class="cls-15" d="M77.11,184.4V179l2.23,1.24-.25,3,2.48-1.79,2.21,1.23-4.65,2.85-1.34,2.42-2-1.12Z"/><path class="cls-15" d="M85.9,183.56l5.46,1.95-.65,1.82-3.28-1.17-.32.88,2.82,1-.6,1.69-2.82-1-1,2.7-2.18-.78Z"/><path class="cls-15" d="M94.8,186a3.94,3.94,0,1,1-4.49,3.13A3.7,3.7,0,0,1,94.8,186Zm-1.16,5.89c.58.11,1.54-.09,1.86-1.74s-.49-2.2-1.06-2.31-1.54.09-1.86,1.74S93.06,191.82,93.64,191.93Z"/><path class="cls-15" d="M102,186.82a3.94,3.94,0,1,1-3.87,3.87A3.69,3.69,0,0,1,102,186.82Zm-.11,6c.59,0,1.5-.36,1.53-2s-.86-2.08-1.45-2.09-1.5.36-1.53,2S101.33,192.81,101.92,192.82Z"/><path class="cls-15" d="M107.83,188.62l-2.07.34-.32-1.9,6.42-1.06.32,1.9-2.07.34.92,5.51-2.28.38Z"/><path class="cls-15" d="M112.09,185.92l3.86-1.38c1.86-.67,2.63.24,2.89,1a1.54,1.54,0,0,1-.37,1.7,1.84,1.84,0,0,1,1.86,1.32,2.39,2.39,0,0,1-1.7,3l-4,1.43Zm3.16,2,1.15-.41c.45-.16.69-.39.53-.85s-.47-.38-.91-.22l-1.15.41Zm.94,2.63,1.28-.46c.45-.16.8-.43.61-1s-.48-.56-1-.37l-1.36.49Z"/><path class="cls-15" d="M120,182.74l2-1.05,5.92,5.38-2.12,1.12-.78-.8-2.11,1.11.2,1.11-2.05,1.08Zm3.86,3.43-1.67-1.74h0l.44,2.39Z"/><path class="cls-15" d="M124.16,180.49l1.93-1.28,3.09,4.66,2.76-1.83,1.06,1.61-4.69,3.11Z"/><path class="cls-15" d="M129.07,177.21l1.85-1.39,3.35,4.47,2.65-2,1.16,1.54-4.5,3.38Z"/><path class="cls-15" d="M141.58,171a1.2,1.2,0,0,0-1.63-.11c-.85.67-.46,1.71.16,2.5s1.55,1.4,2.4.73c.61-.48.51-1.1.17-1.74l1.78-1.41a3.22,3.22,0,0,1-.73,4.57,3.94,3.94,0,0,1-4.9-6.16,3.07,3.07,0,0,1,4.51.22Z"/><path class="cls-15" d="M142.07,167l1.83-1.4,3.39,4.44,2.64-2,1.17,1.53L146.62,173Z"/><path class="cls-15" d="M155.62,163.39c1.07,1.79.62,3.22-1.35,4.4s-3.45.89-4.52-.89l-2.36-4,2-1.18,2.1,3.52c.39.66.89,1.48,1.85.91s.45-1.38.05-2l-2.1-3.52,2-1.18Z"/><path class="cls-15" d="M154.88,158.71l3.86-1.39c1.86-.67,2.63.24,2.89,1a1.55,1.55,0,0,1-.37,1.7,1.83,1.83,0,0,1,1.86,1.32,2.39,2.39,0,0,1-1.7,3l-4,1.44Zm3.16,2,1.15-.41c.45-.16.69-.4.53-.85s-.47-.38-.92-.22l-1.14.41Zm.95,2.63,1.27-.46c.46-.16.8-.43.61-1s-.48-.56-1-.37l-1.36.49Z"/><path class="cls-16" d="M80.45,164c-14-8.69-21.56-19.75-22.38-32.87-.14-2.26-.19-10.23-.19-19.87,0-16.68,0-38.27,0-44H145l0,64.07c-.69,13.15-8.56,24.06-22.63,32.74a84.72,84.72,0,0,1-21,9.13A84.68,84.68,0,0,1,80.45,164ZM55.11,65.62c0,2.4-.43,58.79,0,65.67.88,14,9.12,26.14,23.84,35.25a85.61,85.61,0,0,0,22,9.58l.35.09.35-.09a85.5,85.5,0,0,0,22.15-9.53c14.79-9.09,23-21.3,23.72-35.31.56-10.8.76-64.92.76-65.46V64.33l-93.18-.18Z"/><path class="cls-17" d="M194.73,126.89c-8.47,72.36-78.61,99.3-93,101.84C54.11,215.49,6.15,174.15,6.15,120.39V96.67C4.07,96.09,2,95.5,0,94.89v25.5c0,26,10.52,51,30.43,72.45,18.34,19.73,43.3,34.64,70.27,42l.61.17.63-.09c7.37-1.05,29.53-8.58,51-25.11,19.21-14.77,43.1-41.05,47.88-82.39V95.13q-3,.9-6.14,1.75Z"/><path class="cls-18" d="M0,0V94.89c2,.61,4.07,1.21,6.15,1.78V6.15H194.73V96.88q3.11-.85,6.14-1.75V0Z"/></svg>