<?xml version="1.0" encoding="utf-8"?>
<!-- Generator: Adobe Illustrator 19.2.1, SVG Export Plug-In . SVG Version: 6.00 Build 0)  -->
<!DOCTYPE svg PUBLIC "-//W3C//DTD SVG 1.1//EN" "http://www.w3.org/Graphics/SVG/1.1/DTD/svg11.dtd">
<svg version="1.1" xmlns="http://www.w3.org/2000/svg" xmlns:xlink="http://www.w3.org/1999/xlink" x="0px" y="0px"
	 viewBox="0 0 761.2 792.2" style="enable-background:new 0 0 761.2 792.2;" xml:space="preserve">
<style type="text/css">
	.st0{display:none;fill:#005CA9;}
	.st1{fill:#005CA9;stroke:#FFFFFF;stroke-width:6.5409;}
	.st2{fill:#FFFFFF;stroke:#B32027;stroke-width:11.9917;stroke-miterlimit:10;}
	.st3{fill-rule:evenodd;clip-rule:evenodd;fill:#005CA9;}
	.st4{fill:#FFFFFF;}
	.st5{fill-rule:evenodd;clip-rule:evenodd;fill:#FFFFFF;}
	.st6{fill:#005CA9;}
	.st7{fill:#E7E7E7;}
	.st8{fill:#01497F;}
	.st9{fill:#811619;}
	.st10{fill:#B32025;}
	.st11{fill:#81171A;}
</style>
<g id="Layer_1">
	<rect y="3.6" class="st0" width="890" height="1234"/>
	<g>
		<path class="st1" d="M380.8,788.2l-16.3-11.9c-13-9.5-61-42.3-133-66.6c-25.4-8.6-63.2-29.3-93.1-61.6
			c-41.8-45.2-37.2-86.8-34.2-114.3l0-0.2c0.4-3.3,1.8-14.9,3-21.4l0.1-0.4c39.6-214.1,39.2-261,37.9-270.6
			c-1.1-4.3-6.6-18.1-30.6-62.5c-1.6-3-2.8-5.2-3.3-6.3c-15.8-30.6-25.6-52.2-19.2-71.8c6.1-18.6,23.9-34,73.1-63.3
			c23.7-14.1,47-24.9,56.1-28.7l12.2-5l12.2,6.5C295.5,36.6,342,52.1,380.2,55l1.5,0c37.7-2.8,85.7-18.6,135.2-44.8l12.5-6.6
			L541.9,9c8.8,3.8,31.7,14.8,55.2,28.9c46.7,28,65.4,44.5,71.7,63.2c7,21-5.4,45-18.4,70.3c-0.5,1-1.6,2.9-3,5.6
			c-25.3,46.9-30.3,60.4-31.2,64.1c-1.2,9.7-1.5,56.9,39.2,272c1.3,6.8,2.9,18.8,3.4,22.7c3.6,25.7,9.6,68.6-31.5,113.1
			c-29.4,31.8-69.3,54.2-95.9,62.2c-66.3,20.2-115.8,52.4-134,65.3L380.8,788.2z M161.1,530.1c-0.3,3.3-0.6,6.5-1,9.7l0,0.2
			c-2.6,23.4-4.8,43.6,19.6,70c21.3,23,50.4,39.9,69.8,46.5c61,20.7,107,47.2,131.7,63.2c27-17.4,74.4-44.1,133.8-62.2
			c15.6-4.7,47.4-21.1,71-46.6c23.1-25,20.3-44.5,17.2-67.2c-0.6-4-1.1-8.2-1.6-12.5c-0.3-1.5-0.8-4.3-1.4-7.6
			c-46.3-244.7-41.2-279.5-39.5-291c1.6-10.8,8.4-28.4,37.3-82.1c1.2-2.3,2.1-4,2.6-4.8c3.9-7.6,10.6-20.6,13.2-28.2
			c-4.5-4.5-16-13.8-45.4-31.4c-13.8-8.3-27.5-15.4-37-20.1c-52.5,26.2-104.1,42.1-146.4,45l-1.2,0.1l-5.5,0l-1.2-0.1
			C334,108,283.8,92.4,231.2,65.9c-9.6,4.6-23.4,11.5-37.2,19.7c-29.7,17.7-41.7,27-46.6,31.6c2.8,8.2,10,22.2,13.8,29.6
			c0.5,0.9,1.5,2.8,2.9,5.3c24.8,46,34.7,67.8,36.6,80.4c1.7,11.4,6.9,46.1-38.2,289.5l-0.1,0.4C162,525.3,161.4,528.4,161.1,530.1z
			"/>
		<path class="st2" d="M241.8,680.3c-20.9-7.1-54.6-25.3-80.6-53.5c-32.8-35.5-29.4-66.4-26.6-91.3c0.4-3.6,0.8-7,1-10.3
			c0.1-0.9,0.8-4.7,1.7-9.4C166,361.1,179,265.1,175,238.3c-2.2-14.5-32.8-69.5-36.3-76.3c-9.1-17.8-20.5-39.9-17.3-49.6
			c3.4-10.2,20.8-24,60.2-47.5c22.9-13.7,45.2-23.8,51.9-26.5c0.2,0.1,0.4,0.2,0.6,0.3C287,66.7,337.1,83.1,379,86.2l0.2,0l3.5,0
			l0.2,0c41.2-2.8,93-19.7,145.7-47.5c0.2-0.1,0.4-0.2,0.6-0.3c6.6,2.9,28.5,13.3,51.5,27c37.7,22.6,55.3,36.8,58.9,47.5
			c3.2,9.7-7.3,30.1-16.6,48.1c-3.4,6.5-34.5,62.8-36.7,77.3c-3.9,27,9.5,123.4,38.9,278.9c0.9,4.5,1.5,8.2,1.7,8.9
			c0.3,3.9,0.9,7.9,1.5,12.2c3.4,24.4,7.6,54.8-24.1,89.2c-25.4,27.5-60.6,47.2-82.6,53.9c-68.8,20.9-119.9,53.8-140.6,68.5
			C381,750.1,316.6,705.6,241.8,680.3z"/>
	</g>
	<g>
		<path class="st3" d="M521.2,292.6L543,254c-12.3-5.7-75.4-33.1-162.4-33.2c-87,0.1-150.1,27.5-162.4,33.2l21.8,38.6L68,380
			l-5.4-59.5L4.5,284.1l75.9-43.1l-26.6-50.4l1.9-1.1c54.4-32.3,111.6-56.4,169.9-71.8c50.8-13.4,102.9-20.2,154.8-20.3l0.1,0
			l0.1,2.3l0.1-2.3c51.9,0.1,104,7,154.8,20.3c58.3,15.4,115.5,39.5,169.9,71.8l1.9,1.1l-26.6,50.4l75.9,43.1l-58.1,36.4l-5.4,59.5
			L521.2,292.6z"/>
		<path class="st4" d="M380.8,99.6L380.8,99.6c95.5,0.2,208,23.2,323.6,91.8l-26.6,50.4l74.5,42.3l-55.8,34.9l-5.2,57.3l-166.8-84.7
			l21.8-38.7c0,0-67.2-34.4-165.6-34.5C282.3,218.6,215,253,215,253l21.8,38.7L70,376.4l-5.2-57.3L9,284.2l74.5-42.3l-26.6-50.4
			C172.5,122.8,285,99.8,380.5,99.6v0c0.1,0,0.1,0,0.2,0C380.7,99.6,380.7,99.6,380.8,99.6 M380.8,95h-0.1h-0.1h-0.1h-0.1h-4.6v0
			c-50.6,0.5-101.3,7.3-150.8,20.4c-58.6,15.4-115.9,39.7-170.5,72l-3.8,2.2l2,3.9L77.4,240L6.7,280.2L0,284l6.5,4.1l53.9,33.7l5,55
			l0.6,6.8l6-3.1l166.8-84.7l4.3-2.2l-2.4-4.2l-19.4-34.3c6.7-3,21-9,41-14.9c26.2-7.7,68-17,118.1-17.1
			c82.2,0.1,142.8,24.7,159.1,32l-19.4,34.3l-2.4,4.2l4.3,2.2l166.8,84.7l6,3.1l0.6-6.8l5-55l53.9-33.7l6.5-4.1l-6.7-3.8L683.9,240
			l24.5-46.5l2-3.9l-3.8-2.2c-54.6-32.4-112-56.6-170.5-72C486.7,102.4,436,95.5,385.4,95v0L380.8,95z"/>
		<polygon class="st5" points="90.9,255.4 37.3,285 79.5,309.6 84.2,354.8 202.4,295.5 119.9,304.4 		"/>
		<path class="st5" d="M202.1,259.3c0,0-38.5,16.6-71.1,32l84.6-8.7L202.1,259.3z"/>
		<polygon class="st5" points="670.3,255.4 723.9,285 681.8,309.6 677.1,354.8 558.8,295.5 641.4,304.4 		"/>
		<path class="st5" d="M559.2,259.3c0,0,38.5,16.6,71.1,32l-84.6-8.7L559.2,259.3z"/>
		<path class="st5" d="M639.3,278.5c-201.4-105-329.5-96.5-515.1-0.8c-15.7-29.8-27-50.2-43.3-79.3c188-106.7,416.1-108.8,599.9-0.8
			C662.6,229.1,654.9,250.9,639.3,278.5"/>
		<path class="st6" d="M151.2,220.2l7.5-3.7c0.2,0.3,0.3,0.6,0.5,0.9c0.2,0.3,0.3,0.5,0.4,0.8c0.1,0.3,0.3,0.6,0.4,0.8
			c0.2,0.3,0.3,0.5,0.4,0.8c2.4,4.7,2.5,8.4,0.5,11.1c-2,2.7-5.1,5.1-9.2,7.2l-5.3,2.7c-5.6,2.8-10,3.3-13.2,1.4
			c-3.2-1.9-6-5.4-8.6-10.5c-0.2-0.5-0.5-1-0.8-1.4c-0.3-0.5-0.5-1-0.8-1.4c-0.1-0.2-0.2-0.5-0.4-0.7c-0.1-0.2-0.3-0.5-0.4-0.7
			c-0.4-0.7-0.7-1.4-1.1-2.2c-0.4-0.7-0.8-1.4-1.1-2.2c-3.4-6.7-4-11.7-1.9-15c2.1-3.3,6.1-6.5,12.1-9.5l2.5-1.3
			c0.3-0.1,0.6-0.2,0.8-0.3c0.3-0.1,0.5-0.3,0.8-0.4c1.8-0.8,3.7-1.4,5.6-1.8c1.9-0.4,3.7,0,5.6,1.1c1.2,0.7,2.3,1.6,3.1,2.7
			c0.8,1.1,1.6,2.2,2.2,3.4c0.1,0.2,0.2,0.4,0.3,0.6c0.1,0.2,0.2,0.4,0.3,0.6c0.1,0.2,0.2,0.5,0.4,0.7c0.1,0.2,0.3,0.5,0.4,0.7
			l-7.6,3.7c-0.2-0.2-0.4-0.5-0.6-0.8c-0.2-0.3-0.4-0.6-0.6-0.9c0-0.1-0.1-0.1-0.1-0.2c0-0.1-0.1-0.1-0.1-0.2
			c-0.6-1.1-1.3-2-2.2-2.8c-0.8-0.7-2.3-0.7-4.5,0.3c-0.6,0.2-1.2,0.4-1.8,0.7c-0.6,0.3-1.1,0.6-1.7,0.9l-1.3,0.7
			c-0.3,0.2-0.7,0.4-1.1,0.6c-0.4,0.2-0.8,0.4-1.2,0.7c-0.8,0.5-1.6,1.1-2.3,1.7c-0.7,0.6-1.2,1.3-1.4,2c-0.2,0.8-0.3,1.5-0.2,2.3
			c0.1,0.8,0.3,1.5,0.6,2.2c0.1,0.3,0.2,0.6,0.3,0.9c0.1,0.3,0.2,0.6,0.4,0.8c0.3,0.7,0.6,1.3,0.9,1.9c0.3,0.6,0.6,1.3,0.9,1.9
			c0.6,1.3,1.3,2.5,2,3.8c0.7,1.3,1.3,2.5,2,3.8c2,4,3.9,6.1,5.7,6.3c1.8,0.3,4.6-0.5,8.3-2.4c2.2-1.1,4-2.3,5.5-3.6
			c1.4-1.3,1.4-3.3,0.1-6c-0.1-0.2-0.2-0.4-0.3-0.6c-0.1-0.2-0.2-0.4-0.3-0.6c-0.1-0.2-0.3-0.4-0.4-0.6
			C151.5,220.7,151.4,220.5,151.2,220.2L151.2,220.2z"/>
		<path class="st6" d="M176.7,217l0.6,8.9l-8.2,3.3l-2.8-46.8l11.6-4.7l30.5,35.7l-8,3.2l-5.8-6.9L176.7,217z M174.7,186.1l1.5,24.2
			l14.2-5.7L174.7,186.1z"/>
		<path class="st6" d="M201.2,169l20.7-6.4c4.9-1.5,8.7-1.6,11.5-0.4c2.7,1.2,4.9,4.3,6.4,9.4c0.2,0.5,0.3,1,0.5,1.6
			c0.2,0.6,0.3,1.1,0.4,1.7c0.3,1.2,0.4,2.5,0.4,3.7c0,1.3-0.3,2.4-1,3.4c-0.4,0.6-0.8,1.1-1.4,1.5c-0.5,0.4-1.1,0.9-1.7,1.2
			c-0.2,0.1-0.5,0.2-0.7,0.4c-0.2,0.1-0.4,0.3-0.7,0.4l0.1,0.2c2.6-0.6,4.6-0.3,6.2,0.7c1.6,1,2.8,2.8,3.5,5.3l2.8,9.2l-8.2,2.5
			l-2.4-7.7l-0.2-1c-0.7-2.1-1.7-3.4-3.2-3.8c-1.4-0.4-3.1-0.3-5,0.3l-11.5,3.5l4.4,14.2l-7.9,2.4L201.2,169z M227.2,184.5
			c2.5-0.7,4.1-1.7,4.8-3.1c0.7-1.3,0.7-3.1-0.1-5.5c-0.8-2.6-1.7-4.5-2.7-5.6c-1-1.1-3-1.2-6-0.3l-12,3.7l4.4,14.3L227.2,184.5z"/>
		<path class="st6" d="M248.3,155.1l21.4-4.6c5.6-1.2,10-0.8,13.2,1.1c3.2,1.9,5.4,5.8,6.7,11.5c0.1,0.6,0.3,1.2,0.4,1.9
			c0.1,0.6,0.3,1.2,0.5,1.8c0.1,0.6,0.3,1.2,0.4,1.8c0.1,0.6,0.3,1.2,0.4,1.8c1.2,5.4,1.3,10.2,0.5,14.6c-0.8,4.3-4.6,7.2-11.2,8.6
			l-22.8,4.9L248.3,155.1z M276.2,187.2c4.4-0.9,6.7-2.6,7.1-5c0.4-2.4,0.2-5.5-0.6-9.1l-0.5-2.4c-0.3-1.4-0.6-2.8-0.9-4.2
			c-0.3-1.4-0.7-2.8-1.2-4.2c-0.9-2.5-2.1-4-3.8-4.4c-1.7-0.5-3.6-0.4-5.9,0l-12.3,2.7l6.3,29.2L276.2,187.2z"/>
		
			<rect x="300.6" y="144.5" transform="matrix(0.9889 -0.1487 0.1487 0.9889 -21.4133 47.2105)" class="st6" width="8.5" height="44.5"/>
		<polygon class="st6" points="329.1,160.6 348.8,158.7 349.4,165.7 329.7,167.5 331.4,185.8 322.9,186.6 318.7,142.3 348,139.5 
			348.7,146.6 327.9,148.6 		"/>
		<polygon class="st6" points="367.9,158 387.7,157.6 387.9,164.6 368,165 368.4,183.3 359.9,183.5 359,139 388.4,138.4 
			388.5,145.5 367.7,146 		"/>
		<path class="st6" d="M440.7,170.3l8.3,0.8c0,0.4-0.1,0.7-0.1,1c0,0.3,0,0.6,0,0.9c0,0.3,0,0.6-0.1,0.9c0,0.3,0,0.6-0.1,0.9
			c-0.5,5.2-2.3,8.5-5.4,9.7c-3.1,1.2-7,1.7-11.6,1.2l-5.9-0.5c-6.2-0.6-10.2-2.5-11.9-5.8c-1.7-3.3-2.3-7.7-1.8-13.5
			c0-0.5,0.1-1.1,0.1-1.6c0-0.6,0.1-1.1,0.1-1.6c0-0.3,0-0.5,0-0.8c0-0.3,0-0.5,0-0.8c0.1-0.8,0.1-1.6,0.2-2.4
			c0.1-0.8,0.1-1.6,0.2-2.4c0.7-7.4,2.8-12,6.3-13.8c3.5-1.7,8.6-2.3,15.3-1.7l2.9,0.2c0.3,0.1,0.6,0.1,0.9,0.1
			c0.3,0,0.6,0.1,0.9,0.1c2,0.3,3.9,0.8,5.7,1.5c1.8,0.7,3.2,2,4.2,3.9c0.7,1.2,1.1,2.5,1.2,3.9c0.1,1.4,0.1,2.7,0.1,4.1
			c0,0.2,0,0.5,0,0.7c0,0.2,0,0.5,0,0.7c0,0.3,0,0.5,0,0.8c0,0.3,0,0.5,0,0.8l-8.4-0.8c-0.1-0.3-0.1-0.6-0.1-0.9c0-0.4,0-0.7,0-1.1
			c0-0.1,0-0.2,0-0.2c0-0.1,0-0.1,0-0.2c0.1-1.2-0.1-2.4-0.4-3.5c-0.3-1.1-1.6-1.8-3.9-2.1c-0.6-0.1-1.2-0.2-1.9-0.3
			c-0.6-0.1-1.3-0.1-1.9-0.2L432,148c-0.4,0-0.8,0-1.3-0.1c-0.4,0-0.9-0.1-1.3-0.1c-1,0-1.9,0.1-2.9,0.2c-0.9,0.2-1.7,0.5-2.3,1
			c-0.6,0.5-1,1.1-1.3,1.8c-0.3,0.7-0.5,1.4-0.6,2.2c-0.1,0.3-0.1,0.6-0.2,0.9c-0.1,0.3-0.1,0.6-0.1,0.9c-0.1,0.7-0.2,1.4-0.3,2.1
			c-0.1,0.7-0.2,1.4-0.2,2.1c-0.1,1.4-0.3,2.8-0.4,4.3c-0.1,1.4-0.2,2.9-0.3,4.3c-0.4,4.4,0.1,7.2,1.5,8.4c1.4,1.2,4.2,2,8.4,2.3
			c2.5,0.2,4.7,0.2,6.6-0.2c1.9-0.4,3-2,3.2-5.1c0-0.2,0-0.5,0.1-0.7c0-0.2,0-0.5,0.1-0.7c0-0.2,0-0.5,0-0.7
			C440.6,170.8,440.7,170.6,440.7,170.3L440.7,170.3z"/>
		
			<rect x="440.7" y="162.8" transform="matrix(0.156 -0.9878 0.9878 0.156 225.704 598.3309)" class="st6" width="44.5" height="8.5"/>
		<polygon class="st6" points="491.4,195.2 483,193.4 490.9,157.2 478.3,154.5 479.9,147.1 513.7,154.5 512.1,161.9 499.3,159.1 		
			"/>
		<polygon class="st6" points="534.6,189.1 529.6,205.4 521.4,203 526.4,186.6 519,155.7 528.3,158.5 533,179.9 548.8,164.8 
			558.3,167.6 		"/>
		<polygon class="st6" points="582.4,197.6 600.6,205.3 598,211.7 579.7,204 572.6,220.9 564.7,217.6 582,176.6 609.1,188 
			606.3,194.6 587.1,186.5 		"/>
		<path class="st6" d="M630.6,230.6l7.4,3.8c-0.2,0.3-0.3,0.6-0.4,0.9c-0.1,0.3-0.2,0.5-0.4,0.8c-0.1,0.3-0.3,0.6-0.4,0.8
			c-0.1,0.3-0.3,0.6-0.4,0.8c-2.4,4.7-5.3,7-8.6,7c-3.4,0-7.1-1.1-11.2-3.2l-5.3-2.7c-5.6-2.9-8.6-6.1-8.9-9.8
			c-0.4-3.7,0.7-8,3.4-13.2c0.2-0.5,0.5-1,0.7-1.5c0.2-0.5,0.5-1,0.7-1.5c0.1-0.2,0.2-0.5,0.3-0.7c0.1-0.2,0.2-0.5,0.3-0.7
			c0.4-0.7,0.7-1.4,1.1-2.2c0.4-0.7,0.7-1.5,1.1-2.2c3.4-6.7,7-10.1,11-10.4c3.9-0.3,8.8,1.1,14.8,4.1l2.6,1.2
			c0.3,0.2,0.5,0.3,0.8,0.5c0.3,0.1,0.5,0.3,0.8,0.4c1.7,1,3.3,2.1,4.7,3.5c1.4,1.3,2.2,3,2.4,5.1c0.2,1.4,0.1,2.8-0.3,4.1
			c-0.4,1.3-0.9,2.6-1.4,3.8c-0.1,0.2-0.2,0.4-0.3,0.6c-0.1,0.2-0.2,0.4-0.3,0.6c-0.1,0.2-0.2,0.5-0.3,0.7c-0.1,0.2-0.2,0.5-0.3,0.7
			l-7.5-3.9c0-0.3,0.1-0.6,0.3-0.9c0.1-0.3,0.3-0.7,0.4-1c0-0.1,0.1-0.1,0.1-0.2c0-0.1,0.1-0.1,0.1-0.2c0.5-1.1,0.8-2.3,0.9-3.4
			c0.1-1.1-0.9-2.3-2.8-3.4c-0.5-0.4-1.1-0.7-1.6-1c-0.6-0.3-1.1-0.6-1.7-0.9l-1.3-0.7c-0.4-0.1-0.8-0.3-1.2-0.5
			c-0.4-0.2-0.8-0.4-1.2-0.5c-0.9-0.4-1.8-0.6-2.7-0.8c-0.9-0.2-1.7-0.2-2.5,0c-0.7,0.3-1.4,0.7-1.9,1.2c-0.5,0.5-1,1.1-1.4,1.8
			c-0.2,0.3-0.3,0.5-0.5,0.8c-0.2,0.3-0.3,0.5-0.4,0.8c-0.4,0.6-0.7,1.2-1,1.8c-0.3,0.6-0.7,1.2-1,1.9c-0.6,1.3-1.3,2.5-1.9,3.8
			c-0.6,1.3-1.3,2.6-1.9,3.9c-2,4-2.6,6.8-1.7,8.4c0.8,1.6,3.1,3.4,6.9,5.3c2.2,1.1,4.3,1.9,6.2,2.2c1.9,0.4,3.5-0.8,4.9-3.5
			c0.1-0.2,0.2-0.4,0.3-0.6c0.1-0.2,0.2-0.4,0.3-0.6c0.1-0.2,0.1-0.4,0.3-0.7C630.4,231.1,630.5,230.9,630.6,230.6L630.6,230.6z"/>
	</g>
	<g>
		<path class="st6" d="M381.4,245.4c100.5,0,182,81.5,182,182c0,100.5-81.5,182-182,182s-182-81.5-182-182
			C199.4,326.9,280.9,245.4,381.4,245.4 M381.4,237.7c-25.6,0-50.4,5-73.8,14.9c-22.6,9.6-42.9,23.2-60.3,40.6s-31.1,37.7-40.6,60.3
			c-9.9,23.4-14.9,48.2-14.9,73.8c0,25.6,5,50.4,14.9,73.8c9.6,22.6,23.2,42.9,40.6,60.3s37.7,31.1,60.3,40.6
			c23.4,9.9,48.2,14.9,73.8,14.9c25.6,0,50.4-5,73.8-14.9c22.6-9.6,42.9-23.2,60.3-40.6c17.4-17.4,31.1-37.7,40.6-60.3
			c9.9-23.4,14.9-48.2,14.9-73.8c0-25.6-5-50.4-14.9-73.8c-9.6-22.6-23.2-42.9-40.6-60.3c-17.4-17.4-37.7-31.1-60.3-40.6
			C431.8,242.8,407,237.7,381.4,237.7"/>
		<path class="st6" d="M382.1,252.2c96.8,0,175.2,78.4,175.2,175.2c0,96.8-78.4,175.2-175.2,175.2c-96.8,0-175.2-78.4-175.2-175.2
			C206.9,330.7,285.4,252.2,382.1,252.2 M382.1,250.3c-23.9,0-47.1,4.7-68.9,13.9c-21.1,8.9-40,21.7-56.3,38s-29,35.2-38,56.3
			c-9.2,21.8-13.9,45-13.9,68.9s4.7,47.1,13.9,68.9c8.9,21.1,21.7,40,38,56.3s35.2,29,56.3,38c21.8,9.2,45,13.9,68.9,13.9
			c23.9,0,47.1-4.7,68.9-13.9c21.1-8.9,40-21.7,56.3-38c16.3-16.3,29-35.2,38-56.3c9.2-21.8,13.9-45,13.9-68.9s-4.7-47.1-13.9-68.9
			c-8.9-21.1-21.7-40-38-56.3c-16.3-16.3-35.2-29-56.3-38C429.2,255,406,250.3,382.1,250.3"/>
	</g>
	<g>
		<path class="st7" d="M408.5,311.1c-21.5,8-40.9,28.2-44.6,52.8c-3,19.3,6.6,38.6,24.1,48.5c12.2,6.8,23.4,11.5,37,13.1
			c17.5,2.1,37.4,3.3,55.1,3.3c13.6,0.1,43.7,0.1,52.8-0.3c1.3-0.1-0.9,1.2-1.6,1.3c-49.3,9.2-56.5,8.2-93.6,20.4l0.3,0.6
			c24.5,7.2,84.3,51.5,91,61c-36.7-21.8-99.7-49.7-143.7-38c-9.2,2.4-20.3,8.8-21.8,20.4c-1.7,13.5,8,28.2,15.4,38.4
			c13,17.8,30,35.5,48.9,46.9c2.4,1.4,4.8,2.7,7.2,4c-3.3,0.3-6,0-8.3-0.9c-0.2,0-0.3-0.1-0.5-0.2c-29.5-13.3-88.2-54.3-88.2-54.3
			c-3.7-2.8-7.2-5.5-10.5-8.3l-0.1-0.1c-0.1-0.1-0.3-0.2-0.4-0.3l0,0c-1.3-1.1-2.6-2.3-3.8-3.4c0,0,0,0,0,0c0,0-0.1,0-0.1-0.1
			c-14.6-13.5-23.9-27.5-28-42.2l0,0c0,0,0-0.1,0-0.2c-1.7-6.1-2.5-12.3-2.3-18.8l-0.1,0c-9.4-8.6-18.1-18.6-26.1-30.2
			c-0.3-0.4-0.6-0.9-0.8-1.3c-0.1-0.1-0.2-0.2-0.2-0.4c-6-9.8-9.3-19.1-9.9-28.1c-0.1-1.1-0.4-2.2-0.7-3.2c-0.9-3.3-2.7-6.6-5.3-10
			l6,0.7l-5.7-8.1l10.8,1.8c10.6-11.3,31.1,1.9,39.9,9.2c0.2-1.4,0.5-2.9,0.7-4.3c2.5-17.9,15.5-35.4,30.3-46.9
			c17.4-13.4,30.2-19.6,50-25.5c6-1.8,12.1-3.2,18.2-4.4c7.4-1.4,15.1-2.9,22.6-3.1c3-0.1,7.4-0.2,10.4,0.8c0,0,3.7,0.8,2.5,1
			C433,303.1,420.2,306.7,408.5,311.1"/>
		<path class="st6" d="M398.6,294.7c-22.4,8.8-42,30.3-44.9,55.7c-2.3,20,8.5,39.5,27.4,49.1c13.1,6.7,25.2,11.1,39.6,12.4
			c18.6,1.6,39.6,2.2,58.2,1.8c14.4-0.3,46.1-1.2,55.7-1.9c1.4-0.1-1,1.2-1.6,1.4c-51.6,11-59.3,10.1-97.9,23.8l0.3,0.6
			c26.1,6.6,91,50.4,98.5,60c-39.6-21.4-107.2-48.1-153.1-34.8c-9.6,2.8-21,9.6-22.1,21.6c-1.3,13.9,9.6,28.8,17.8,39.1
			c14.4,18,33.1,35.6,53.4,46.8c2.6,1.4,5.1,2.7,7.8,3.9c-3.4,0.4-6.3,0.2-8.8-0.6c-0.2,0-0.4-0.1-0.6-0.2
			c-31.7-12.8-95.3-53.2-95.3-53.2c-4.1-2.7-7.9-5.5-11.4-8.3l-0.1-0.1c-0.1-0.1-0.3-0.2-0.4-0.3l0,0c-1.5-1.1-2.8-2.3-4.2-3.4
			c0,0,0,0,0,0c0,0-0.1,0-0.1-0.1c-15.9-13.5-26.3-27.6-31.3-42.6l0,0c0,0,0-0.1,0-0.2c-2.1-6.2-3.2-12.5-3.2-19.1l-0.1-0.1
			c-10.3-8.5-21.9-24.1-27.3-31c-1-1.3-13-20.5-14.3-29.6c-0.1-1.1-0.8-3-1.2-4.2c-0.9-3.4-4.9-6.7-7.8-10.1l8.5,1.3l-8.8-9.2
			l11.7,2.2c12.4-8.7,35.2,1.4,44.8,8.6c0.2-1.5,0.4-3,0.5-4.4c2-18.5,14.9-36.9,30.1-49.1c17.8-14.3,31-21.1,51.8-27.7
			c6.3-2,12.6-3.7,19.1-5.1c7.8-1.7,15.8-3.4,23.7-3.9c3.2-0.2,7.8-0.4,11,0.5c0,0,3.9,0.7,2.6,1
			C424.1,285.8,410.8,289.9,398.6,294.7"/>
		<path class="st4" d="M256.8,403c-6.6-8.4-6.9-11.3-10.1-21.4c-1.2-3.7-2-7.6-2.5-11.5c1.3-0.1,2.6-0.1,3.9-0.2l0.2,0
			c11.3-0.1,20.3,3.4,26.9,10.6c5.1,5.6,8.9,13.2,11.1,23L256.8,403z"/>
		<path class="st4" d="M308.8,456.5c0,0-3,21.5,35.3,61.2c0,0-51.1-31.7-47.5-66.6c0,0,4.7,10.4,7.8,10.5L308.8,456.5z"/>
		<path class="st4" d="M329.4,325.6c0,0-31.7,11.2-30.3,55.1c0,0,7.6,6.5,8,6.6l5.8-0.9C312.9,386.3,303.5,350,329.4,325.6"/>
		<path class="st8" d="M283,435c0,0-0.8,5.4-1,11.2c0,0-39.1-35.6-42.8-64.8c0,0-7.5-10-7.9-10.1c0,0,7.2,1.1,8.7,1.3
			C240,372.5,239.3,403.8,283,435"/>
		<path class="st8" d="M533.8,497.6c0,0-46-36.9-138-45.9c-84.9-8.3-23.3,66.9-23.3,66.9s-25.3-28.7-7.9-46.7c17.4-18,0,0,0,0
			S404.7,430.8,533.8,497.6"/>
		<path class="st6" d="M266.6,383.4c0.8-1.4,0.9-2.6,0.1-3.4c-1.2-1.5-4.6-2.3-10.1-2.3C261.1,385.2,264.5,387.2,266.6,383.4"/>
	</g>
	<g>
		<path class="st9" d="M331.6,639.4c0,0-3.1,4.8-6.1,4.3c0,0-0.3,1.8,2.4,1.1c0,0,6.7-3.3,6.7-5.4c0,0,0.4-1.9-1.1-1.6L331.6,639.4z
			"/>
		<path class="st10" d="M323.6,639.8c0,0,0-0.1,0-0.4c0-0.2,0.1-0.6,0-1c0-0.8-0.1-2.1-0.4-3.5c-0.3-1.4-1-3.1-2.1-4.6
			c-0.5-0.7-1.2-1.4-2-1.9c-0.8-0.5-1.8-0.9-2.7-1.3c-0.9-0.4-1.9-0.8-2.8-1.4c-0.9-0.6-1.5-1.5-1.7-2.5c-0.2-1,0-2,0.4-2.8
			c0.4-0.8,0.9-1.5,1.5-2c0.6-0.5,1.2-0.9,1.6-1.3c0.5-0.4,0.8-0.8,1.1-1.2c0.3-0.4,0.4-0.7,0.5-0.9c0.1-0.2,0.1-0.3,0.1-0.3
			s0,0.1-0.1,0.3c-0.1,0.2-0.2,0.5-0.5,0.9c-0.2,0.4-0.6,0.8-1.1,1.2c-0.5,0.4-1,0.8-1.6,1.4c-0.6,0.5-1.1,1.2-1.4,2
			c-0.3,0.8-0.5,1.7-0.3,2.6c0.2,0.9,0.8,1.7,1.6,2.2c0.8,0.5,1.8,0.9,2.7,1.3c1,0.4,1.9,0.7,2.8,1.2c0.9,0.5,1.7,1.3,2.3,2.1
			c1.2,1.6,2,3.3,2.4,4.8c0.4,1.5,0.6,2.8,0.6,3.8c0,0.5,0,0.8,0,1.1c0,0.2,0,0.4,0,0.4L323.6,639.8z"/>
		<path class="st10" d="M323.5,638.2c0,0,0-0.1,0.1-0.2c0.1-0.2,0.2-0.4,0.3-0.7c0.2-0.6,0.5-1.5,0.6-2.5c0.1-1.1,0-2.4-0.5-3.7
			c-0.2-0.6-0.6-1.3-1-1.8c-0.4-0.6-1-1.1-1.6-1.6c-0.6-0.5-1.1-1.1-1.6-1.7c-0.5-0.6-0.8-1.5-0.6-2.2c0.1-0.8,0.5-1.4,1-1.9
			c0.5-0.5,1.1-0.7,1.7-0.9c0.6-0.1,1.1-0.2,1.6-0.3c0.5-0.1,0.8-0.2,1.1-0.4c0.3-0.2,0.5-0.3,0.6-0.4c0.1-0.1,0.2-0.2,0.2-0.2
			s-0.1,0.1-0.2,0.2c-0.1,0.1-0.3,0.3-0.6,0.5c-0.3,0.2-0.7,0.3-1.1,0.5c-0.5,0.1-1,0.2-1.5,0.4c-0.5,0.2-1.1,0.4-1.6,0.9
			c-0.4,0.4-0.8,1.1-0.9,1.7c-0.1,0.7,0.2,1.4,0.7,1.9c0.5,0.6,1.1,1.1,1.6,1.6c0.6,0.5,1.2,1,1.7,1.6c0.5,0.6,0.9,1.3,1.2,2
			c0.6,1.4,0.8,2.9,0.7,4.1c0,0.6-0.1,1.2-0.2,1.7c-0.1,0.5-0.2,0.9-0.4,1.3c-0.1,0.4-0.2,0.6-0.3,0.8c-0.1,0.2-0.1,0.3-0.1,0.3
			L323.5,638.2z"/>
		<path class="st9" d="M317.9,660.3c0,0-1-0.6-2.9-0.9l-0.8-1c0,0-2.3-0.1-3.3,0.4c0,0,7,5,7.3,7.9L317.9,660.3z"/>
		<path class="st10" d="M335.8,673.6c0,0-2.3,0-2.5,0c-1.5-0.1-3.3-0.2-4.7-0.6c-0.5-0.2-1.1-0.5-1.5-0.8c-1.5-1.1-2.2-3-2.6-4.7
			c-0.1-0.6-0.3-1.3-0.3-1.9c0,0-0.2-7.6-3.6-11l0.1-0.8c0,0-1.7-1.1-3-0.8c0,0,1.8,3.4,1.9,5.6c0.1,2.2-2.1-1.8-2.6-2.4
			c-0.5-0.6-1.3-1.4-1.3-1.4l-0.1-0.7c0,0-2.4-1-3.8-0.9c0,0,1,0.9,2.6,3.4c2.8,4.2,3.7,10.1,2.5,13.2c0,0-2.7,2.7-4.7,3.6
			c-1.9,0.9,4.2,0.3,5.9-0.4c1.8-0.7,3,1,5.4,6c2.4,4.9,3.5,8.9,10.7,11.3c1.5,0.3-1-1.6-1.5-3.1c-0.9-2.7,1.2-3.6,2.3-3.2
			c1.2,0.4,3.7,4.1,5.1,5C340.2,688.9,336.2,674.8,335.8,673.6"/>
		<path class="st10" d="M315.5,673.4l-0.9,1c0,0-1.4,0.3-3.9-0.6c0,0,3.8-1.1,4.6-1.8L315.5,673.4z"/>
		<path class="st10" d="M343.6,620.2c0,0-11.5,2.9-13.9,9.3c0,0-0.1-0.1-0.5,0c0,0-0.1-1.3,0.1-1.7c0.1-0.4-2.3,1.1-2.7,4.1
			c0,0,0.5,1.2,0.9,1.5c0,0-3.4,3.2-4.3,5c0,0-0.5-0.5-0.7-1.6c-0.2-1.1-1.7,1.9-1.7,2.3c0,0-0.2,0.5,0.3,1c0,0,0.1,0.5,0.8,1.8
			c0.7,1.3,0.5-0.9,0.7-1.1c0,0,2.2,1,2.9,0.9s2.9-1.2,3.2-1.2s0.4,1.1,0.9,1c0.4-0.1,1.2-1.4,1.2-1.6c0-0.5,1.2,0.1,2.6-0.6
			c0,0-1.5,2.8-3.8,4.1c0,0-1.3-1.9-1.5-1.3c0,0,0.1,1.4,0.1,1.6c0,0,0.1,0.7-1.6,0.7c0,0-1.2-1-1.2-1.3c0-0.3-0.5,0.1-0.3,0.9
			l0.3,0.9c0,0-0.6,1,0.6,2.1c0,0,0.1,1.1,0.3,1.5c0,0,0.5-0.1,0.8-1.5c0,0,0.4,1.5,0.6,1.6c0.2,0.1,0.7-0.8,0.8-1.5
			c0-0.2,1.3-0.4,1.4-0.4c0.7-0.1,1.4-0.1,1.9,0.6c0.5,0.7,0.5,1.9-0.4,2.3c-0.5,0.2-1.1,0-1.4-0.3c0,0-1.2-0.5,0.1,1
			c1.6,1.8,4.3,0.1,3.6-2.6c-0.5-1.7-1.2-2.1-1.2-2.1s0.9-0.3,1.1-0.5c0.2-0.2,1.7,0.4,1.8,0.3c0.1-0.2-0.5-0.9-0.7-1.2
			c-0.2-0.3,1.7,0.6,1.8,0.4c0.1-0.2-0.2-0.9-0.4-1.3c-0.2-0.3,10.8,0.5,1.6,17.3c-5.1,9.3-4.6,20.1,3.6,27.4
			c10.7,9.4,25,4.8,33.1-5.5c2.3-3,3.5-6.8,6.3-9.4c1.8-1.7,4.3-2.9,6.8-2.5c6.1,0.8,9.3,7.3,13,11.4c4.9,5.4,11.5,10.1,18.4,12.5
			c13.5,4.8,29.6,0,33.2-15.1c1.8-7.5-0.9-17.1-8.6-20.2c-4.6-1.8-10.3-0.1-15-1.5c-1.8-0.5-3.2-1.8-3.2-3.7c0-1,0-2,0.6-2.9
			c2.2-3.5,6.2-6.5,9.4-8.2c3.2-1.7,3.6-1.9,4-2.8c-0.5-0.5-2.9,0.1-8.4,3.2c-11.8,6.7-12.9,16-3.7,18.9c3.8,1.2,9,0.3,11.2,4.4
			c1.1,2.1,1.3,5.2-0.6,6.9c-11,9.8-27-7.2-27-7.2s1.4,0.1,3.6,0.9c2.2,0.9-4.2-5.2-9.1-7c0,0,2.7,0.5,4.1,1
			c1.4,0.5-0.4-1.2-2.9-2.7c0,0-4.2-2.8-8.5-3.9c0,0,1.5-0.4,3.6,0.2c2.1,0.6-0.1-1-2.3-1.6c-2.2-0.7-8.4-1.9-9.8-2
			c-1.4-0.2,1.2-0.7,2.2-0.5c1,0.2,0-0.5-2.1-1c-2.5-0.6-5.8-0.4-8.2,0.1c-5,1.1-9.1,3.3-12.6,7.1c-2.6,2.9-5.2,5.6-8,8.3
			c-1.6,1.5-3.3,3-5.1,4.3c-1,0.7-2.4,1.8-3.7,1.7c-4.2-0.3-4.1-4.4-3.2-6.9c0,0,6.1-14.1,6.2-16.5c0,0,1.5,1.4,1.8,2.3
			c0.3,0.9,0.4-0.9,0.3-1.9c0-1-1.2-3.8-1.4-4.5c-0.2-0.6,1.5,0.8,1.7,1.2c0.2,0.4,0.9-0.6,0-2.4c0,0-2.1-2.9-3-3.6
			c0,0,1.3-0.2,2.2-0.1c1,0.1-0.5-1.1-0.9-1.3c-0.4-0.2-1.5-0.7-3.1-1c0,0,1.5-1.4,2.5-1.5c1-0.1-0.9-0.7-0.9-0.7s-2-0.4-4-0.1
			c0,0,0.8-1.7,1.5-2c0.7-0.3-0.4-0.7-1.9-0.3c0,0-2.1,0.7-2.3,0.8c-0.2,0.1-0.4,0.2-0.4,0.2s1.2-2.5,2.7-3.1c0,0,0-0.9-2.4-0.3
			l-0.7,0.3c0,0,1.9-4.1,5-5.5c2.1-1.1-3.3-0.3-4-0.1c-0.6,0.2-4.7,1.3-7.1,3c0,0,0.1-1,0.5-1.6c0.4-0.5-1.1-0.1-1.1-0.1l-1,0.2
			c0,0,3.4-3.5,4.9-4.3C345,620,343.6,620.2,343.6,620.2"/>
		<path class="st4" d="M335,634.4c0.1,0,0.2-0.1,0.3-0.1c0.6-0.3,1.1-0.7,1.5-1.1c0.2-0.2,1-1,0.9-1.3c-0.1-0.4-1-0.1-1.3,0
			c-0.9,0.2-1.8,0.6-2.7,0.9c-0.1,0.1-0.3,0.1-0.3,0.3c-0.1,0.1,0,0.3,0.1,0.4C333.7,633.9,334.4,634.5,335,634.4"/>
		<path class="st10" d="M398.6,678c0,0-1.2,2.1-3.4,3.6c-1.9,1.2-3.1,3.2-0.3,5.7c3.5,3.2,6.9,4.1,8.4,5.4c0,0,0.1,1.6-2.3,1.4
			l-5.3-1c0,0-3.9-1.6-4.2-1.7c-0.6,0-2.6-1-4.4,0c-1.1,0.6-2.3,0.4,0.6,0.9c0,0,0.6,0,3.2,1.1c-3.9-0.3-3.8,0.7-5.3,0.4
			c-1.1-0.2-2.5,0.6-2.6,1.8c0,0,3.2-0.2,5.4,0.2c3.3,0.5,3.5,0.4,3.5,0.4s-4.5,0.6-6,3.4c0,0,3.9-0.4,9-1.1
			c5.2-0.7,12.9-0.6,15.2-0.2c2.3,0.4-0.9-4-0.9-4s-2.2-4.7,0.1-5.1l1.5-0.6C410.6,688.7,407.8,684.3,398.6,678"/>
		<path class="st10" d="M389.3,691.9l0.5-1.6c0,0-4.7,1-5.1,2l5.7,0L389.3,691.9z"/>
		<path class="st10" d="M385.9,694.2l-0.9-0.8c0,0-2.8,0.8-4.1,2.9c0,0,4.2-0.7,7.5-0.3L385.9,694.2z"/>
		<path class="st10" d="M388.1,697.9l-1-0.9c0,0-3.6,1.4-4.5,3.2c0,0,7.3-1.3,10.5-1.4L388.1,697.9z"/>
		<path class="st10" d="M399.4,704.4l-1.4-0.7c0,0-2.8,1.7-3.9,3.9l8.1-1.6L399.4,704.4z"/>
		<path class="st10" d="M401.4,708.3l-1-0.8c0,0-2.4,2.5-2.5,4.5c0,0,8.1-4,9.6-4.6L401.4,708.3z"/>
		<path class="st9" d="M328.8,630.1c0,0,1.4-0.6,2-0.1c0,0,1.2-2.3,2.2-2.6c1-0.3,0.1,0.4-0.3,1.8c0,0-0.9,2.5,2.6-0.5l2.4-2.1
			c0,0,1.7,0.7,2.8,4.7c0,0,1.9-5.6,11.6-8c0.5-0.1-0.3-0.4-0.4-0.4c-1-0.1-2,0.1-3,0.3c-1.1,0.2-2.3,0.6-3.4,1
			c-0.6,0.2-1.1,0.4-1.6,0.7c-0.5,0.2-1,0.5-1.5,0.6c-0.2,0.1-0.4,0.1-0.6,0.2c-0.1,0-0.6,0.1-0.7,0.2c0.2-0.2,0.3-0.5,0.5-0.7
			c0,0,0.3-0.5,0.2-0.5c-0.5-0.2-2.4,0.3-2.4,0.3s-5.1,2.1-7.3,1.4C331.8,626.3,330.2,627.9,328.8,630.1"/>
		<path class="st9" d="M325.4,638.9c0,0,1.3-3.6,4.1-2.2c0,0,0.7,0.4,0,0.6C329.5,637.4,327.1,638.4,325.4,638.9"/>
		<path class="st9" d="M336.2,642.8c2-1.2,5-0.6,6.5,1.1c1.3,1.5,1.6,3.8,1.3,5.8c-0.6,4.5-2.3,8.7-4.3,12.8c-1,2-1.9,4.3-3.1,6.2
			c-1,1.6-2.5,3.4-1.9,5.3c-0.6-2.2-0.4-4.7,0.1-7.1c0.5-2.4,1.7-4.7,2.8-6.9c1.8-3.8,4.7-8.1,3.6-12.5
			C340.6,645.2,338.5,643,336.2,642.8"/>
		<path class="st9" d="M341.2,658.8c0,0-6.3,18,4.1,28.5l3.4,4.8c0,0-13.7-5.3-14.3-18.9C334.5,673.2,337,662.1,341.2,658.8"/>
		<path class="st9" d="M358.5,683.6c0-0.4-0.7-2.5-0.4-2.7c2.2-0.9,2-7.8,12-15.1c16.7-12.2,30,2.4,31.1,6.5c0,0,9.4,16.4,18.5,20.3
			c1.8,0.8,0.7,0.7,0.5,1.1c-0.2,0.5,1.3,1.2-1.2,0.5c-3.5-1-15.1-7.1-21.1-15.6c0,0,0-0.1-0.1-0.1c-0.5-0.9-9-16.1-19.4-3.5
			c-0.1,0.1-0.1,0.1-0.1,0.2c-0.5,1.3-5.6,13-19,16.7c-0.6,0.2-1.1-0.3-1.1-0.9L358.5,683.6z"/>
		<path class="st10" d="M334.4,697.9l-1.3-0.6c0,0-1.1,1-1.4,2.5c0,0,3.3-1.3,6.4-1.4L334.4,697.9z"/>
		<path class="st10" d="M333.1,702.2l-1.6-0.3c0,0-1.2,1.7-0.9,3.2l4.3-2.4L333.1,702.2z"/>
		<path class="st10" d="M338.6,704.6l-2.2,0.9c0,0-0.7,0.8-0.3,3.2c0,0,4.8-3.9,9.4-6.3L338.6,704.6z"/>
		<path class="st10" d="M357.9,697.9l1-0.8c0,0,2,0.3,2.8,1.9c0,0-3.4-0.5-5.7,0.3L357.9,697.9z"/>
		<path class="st10" d="M368.2,658c-0.6,0.6-1.5,0.3-2,0.9c0,0,1.2-2.8,0.4-9.1c-0.3-2.4-0.6,2-0.6,2s-0.3,3.3-3,6.4
			c-2.7,3.1-4.9,3.5-5.9,6.5c0,0-1.1-0.5,0.7-3c1.5-2.1-1.1-0.5-2.2,1.1c-1.1,1.6-2.4,4-3.1,8.2c-0.7,4.3-9.6,8.1-6.9,12.3
			c0.7,1.1,2.3,5.9,2.3,6.7c0,1.2-1.5,2.5-2.2,3.5c-0.1,0.2-1.3,2.2-1.5,2.2c0,0-8.4,0.5-10.7,2.5c-1,0.8-0.1,0.8-0.1,0.8
			s5.2-1,6.2-0.3c0.7,0.4-1,0.7-1.2,0.7c-0.5,0.1-1,0.4-1.4,0.6c-1.7,0.7-3.5,1.5-4.8,2.7c-1.8,1.6-0.7,1.5-0.7,1.5s4.9-2.4,8.5-1.9
			c0,0-3.1,3.7-3,5.6c0,0,0.9-0.3,2.8-2.3c1.8-2,12-5.4,14-5.9c0.3-0.1,4.3-0.8,5.8-0.8c2.7-0.1-1.8-1.2-1.8-1.2s-2.2-0.5-3.6-0.5
			c-1.4,0,1.1-2,1.8-2.3c0,0,3.2-1.2,6.5-0.2c2.1,0.6-1.3-2.9-2.7-3.5c0.6-1.2,1.3-2.5,1.5-3.8c0.4-2.1,0.7-3.8,2.3-5.3
			c-1.1-0.1-2.2,0.2-3.1,1c-0.7-1.8-0.4-3.8,0.7-5.3c0.9-1.3,2.3-2,3.5-3c1.9-1.5,3.7-3.2,5.1-5.2c2.2-3.1-0.4,0-2.2,0.2
			c0,0-0.7-0.6,2.3-3.5c3-3,0.5-0.7-1.8-0.4c-2.3,0.3,0.5-1.1,1.9-2.7c5.4-6,8.1-3.6,4.9-13.6C375,649.1,372.7,653.2,368.2,658"/>
		<path class="st9" d="M400,693.9c0,0,3.2,1.8,2.5,4.2c0,0,3.3-0.1,7.7,0.4c2.4,0-1.7-5.9-1.7-5.9s-1.1-3.1,1.2-3.5l-11-10.8
			c0,0-1.6,2-4.1,3.6c-3,2-0.9,5.2,3.9,7.9l4.8,2.7C403.2,692.7,403.3,694.6,400,693.9"/>
		<path class="st9" d="M430.7,688.1c2.9-7.5,24.6,2.9,20.4-21.6c0,0,8.8,16.7-11.7,27.5c0,0-4.9,2.1-10.8,1.8
			C428.7,695.7,429.6,691,430.7,688.1"/>
		<path class="st10" d="M427.8,694.7l-1-6.3c-1.7-1-6,3.4-6,3.4s-0.3,3.4-2.7,5.5c-2.3,2-8.1,3-9.8,2.9c-1.7-0.1-2.3-0.2-6.8-0.2
			c-4.5,0-4.8,2.3-4.8,2.3l1.2-0.1c1.2-0.1,3.4-0.1,5.5,0.7c2.1,0.7-3.6,1.1-3.6,1.1c-3.4,0.2-4.5,2.4-4.5,2.4c0,1,1.7,0.4,1.7,0.4
			c1.3-0.1,5.2-0.8,5.2-0.8s6.4-1.8,3,0.1c-3.4,1.8-4.9,1.8-4.5,2.9c0.3,0.8,0.1,1.6,2.3,0.7c1.2-0.5,4.5-2.3,4.5-2.3
			c13.9-6.1,18.8-4.5,21.8-5.6c3.1-1.1-0.6-6.1-0.6-6.1L427.8,694.7z"/>
		<path class="st9" d="M345.8,637.2c0,0,0.9-1.6,3.4-2.6c0,0-0.6,3.2-1.9,4C346,639.5,344.7,639.5,345.8,637.2"/>
		<path class="st9" d="M342.4,634.7c0,0,0.9-1.7,3.6-2.7c0,0-0.7,3.4-2,4.3C342.6,637.2,341.2,637.1,342.4,634.7"/>
		<path class="st9" d="M349.5,639.4c0,0,0.4-0.8,1.7-1.3c0,0-0.3,1.6-0.9,2C349.6,640.6,349,640.6,349.5,639.4"/>
		<path class="st9" d="M351.9,641.5c0,0,0.4-0.7,1.5-1.2c0,0-0.3,1.4-0.8,1.8C352,642.5,351.4,642.5,351.9,641.5"/>
		<path class="st9" d="M320.1,673.3c0.5-0.3,7.9,10.8,14.4,10.5c0,0-3.1,0.9-1.3,4.2c0,0,1.6,2,1.6,2.3
			C334.9,690.3,327.3,691.3,320.1,673.3"/>
		<path class="st10" d="M400.8,700.4l-0.9-1c0,0-3.5,1.5-4.4,3.1c0,0,5.4-0.4,8.6,0.1L400.8,700.4z"/>
		<path class="st10" d="M435.8,640.4c0-0.2,0-0.8,0-1c0.1-0.5,0.3-1.1,0.7-1.5c0,0,0,0,0-0.1c0-0.1-0.1-0.1-0.1-0.1
			c-1.5,0.3-2.5,2.4-3,3.7C433,642.7,435.7,641.1,435.8,640.4"/>
		<path class="st10" d="M438,639.4c0-0.1,0-0.5,0-0.6c0.1-0.3,0.2-0.7,0.5-0.9c0,0,0,0,0,0c0,0-0.1,0-0.1,0c-1,0.2-1.6,1.5-1.9,2.3
			C436.2,640.9,438,639.8,438,639.4"/>
		<path class="st10" d="M433,641.3c0,0.1-0.1-0.4,0-0.9c0.1-0.7,0.4-1.6,0.9-2.2c0,0,0.1-0.1,0.1-0.1c0-0.1-0.1-0.1-0.2-0.1
			c-2.1,0.5-3.3,3.4-3.9,5.3C429.2,645.3,433,642.3,433,641.3"/>
		<path class="st10" d="M428.8,644.1c0-0.1-0.1-0.8-0.1-1.4c0.1-1.1,0.4-2.3,1.1-3.1c0,0,0.1-0.1,0.1-0.2c0-0.1-0.2-0.1-0.3-0.1
			c-3,0.9-4.4,5.5-5.1,8.2C423.9,650.3,428.9,645.5,428.8,644.1"/>
		<path class="st10" d="M424.6,648.1c0-0.1-0.3-0.9-0.4-1.6c-0.2-1.2,0.2-2.7,0.5-3.8c0-0.1,0.1-0.1,0-0.2c0-0.1-0.2-0.1-0.4,0
			c-4.8,3.2-3.2,6.8-3.2,10.1C421.2,652.9,425,649.7,424.6,648.1"/>
		<path class="st11" d="M331.1,646.2c0,0,0.3-0.1,0.3-0.1c0.3,0,0.5,0,0.8,0c0.5,0.2,0.8,0.6,0.9,1.1c0.3,1.3-0.9,2.1-2,1.9
			c0,0,1.1,0.2,1.3-1.4C332.3,647.7,332.4,646.8,331.1,646.2"/>
	</g>
</g>
<g id="Layer_2">
</g>
</svg>
