<svg xmlns="http://www.w3.org/2000/svg" viewBox="0 0 761.2 792.2" style="enable-background:new 0 0 761.2 792.2" xml:space="preserve"><style>.st4,.st5{fill:#fff}.st5{fill-rule:evenodd;clip-rule:evenodd}.st6{fill:#005ca9}.st8{fill:#01497f}.st9{fill:#811619}.st10{fill:#b32025}</style><g id="Layer_1"><path d="m380.8 788.2-16.3-11.9c-13-9.5-61-42.3-133-66.6-25.4-8.6-63.2-29.3-93.1-61.6-41.8-45.2-37.2-86.8-34.2-114.3v-.2c.4-3.3 1.8-14.9 3-21.4l.1-.4c39.6-214.1 39.2-261 37.9-270.6-1.1-4.3-6.6-18.1-30.6-62.5-1.6-3-2.8-5.2-3.3-6.3-15.8-30.6-25.6-52.2-19.2-71.8 6.1-18.6 23.9-34 73.1-63.3 23.7-14.1 47-24.9 56.1-28.7l12.2-5 12.2 6.5c49.8 26.5 96.3 42 134.5 44.9h1.5c37.7-2.8 85.7-18.6 135.2-44.8l12.5-6.6L541.9 9c8.8 3.8 31.7 14.8 55.2 28.9 46.7 28 65.4 44.5 71.7 63.2 7 21-5.4 45-18.4 70.3-.5 1-1.6 2.9-3 5.6-25.3 46.9-30.3 60.4-31.2 64.1-1.2 9.7-1.5 56.9 39.2 272 1.3 6.8 2.9 18.8 3.4 22.7 3.6 25.7 9.6 68.6-31.5 113.1-29.4 31.8-69.3 54.2-95.9 62.2-66.3 20.2-115.8 52.4-134 65.3l-16.6 11.8zM161.1 530.1c-.3 3.3-.6 6.5-1 9.7v.2c-2.6 23.4-4.8 43.6 19.6 70 21.3 23 50.4 39.9 69.8 46.5 61 20.7 107 47.2 131.7 63.2 27-17.4 74.4-44.1 133.8-62.2 15.6-4.7 47.4-21.1 71-46.6 23.1-25 20.3-44.5 17.2-67.2-.6-4-1.1-8.2-1.6-12.5-.3-1.5-.8-4.3-1.4-7.6-46.3-244.7-41.2-279.5-39.5-291 1.6-10.8 8.4-28.4 37.3-82.1 1.2-2.3 2.1-4 2.6-4.8 3.9-7.6 10.6-20.6 13.2-28.2-4.5-4.5-16-13.8-45.4-31.4-13.8-8.3-27.5-15.4-37-20.1-52.5 26.2-104.1 42.1-146.4 45l-1.2.1h-5.5l-1.2-.1c-43.1-3-93.3-18.6-145.9-45.1-9.6 4.6-23.4 11.5-37.2 19.7-29.7 17.7-41.7 27-46.6 31.6 2.8 8.2 10 22.2 13.8 29.6.5.9 1.5 2.8 2.9 5.3 24.8 46 34.7 67.8 36.6 80.4 1.7 11.4 6.9 46.1-38.2 289.5l-.1.4c-.4 2.9-1 6-1.3 7.7z" style="fill:#005ca9;stroke:#fff;stroke-width:6.5409"/><path d="M241.8 680.3c-20.9-7.1-54.6-25.3-80.6-53.5-32.8-35.5-29.4-66.4-26.6-91.3.4-3.6.8-7 1-10.3.1-.9.8-4.7 1.7-9.4C166 361.1 179 265.1 175 238.3c-2.2-14.5-32.8-69.5-36.3-76.3-9.1-17.8-20.5-39.9-17.3-49.6 3.4-10.2 20.8-24 60.2-47.5 22.9-13.7 45.2-23.8 51.9-26.5l.6.3c52.9 28 103 44.4 144.9 47.5H382.9c41.2-2.8 93-19.7 145.7-47.5l.6-.3c6.6 2.9 28.5 13.3 51.5 27 37.7 22.6 55.3 36.8 58.9 47.5 3.2 9.7-7.3 30.1-16.6 48.1-3.4 6.5-34.5 62.8-36.7 77.3-3.9 27 9.5 123.4 38.9 278.9.9 4.5 1.5 8.2 1.7 8.9.3 3.9.9 7.9 1.5 12.2 3.4 24.4 7.6 54.8-24.1 89.2-25.4 27.5-60.6 47.2-82.6 53.9-68.8 20.9-119.9 53.8-140.6 68.5-.1.2-64.5-44.3-139.3-69.6z" style="fill:#fff;stroke:#b32027;stroke-width:11.9917;stroke-miterlimit:10"/><path d="M521.2 292.6 543 254c-12.3-5.7-75.4-33.1-162.4-33.2-87 .1-150.1 27.5-162.4 33.2l21.8 38.6L68 380l-5.4-59.5-58.1-36.4L80.4 241l-26.6-50.4 1.9-1.1c54.4-32.3 111.6-56.4 169.9-71.8 50.8-13.4 102.9-20.2 154.8-20.3h.1l.1 2.3.1-2.3c51.9.1 104 7 154.8 20.3 58.3 15.4 115.5 39.5 169.9 71.8l1.9 1.1-26.6 50.4 75.9 43.1-58.1 36.4-5.4 59.5-171.9-87.4z" style="fill-rule:evenodd;clip-rule:evenodd;fill:#005ca9"/><path class="st4" d="M380.8 99.6c95.5.2 208 23.2 323.6 91.8l-26.6 50.4 74.5 42.3-55.8 34.9-5.2 57.3-166.8-84.7 21.8-38.7s-67.2-34.4-165.6-34.5C282.3 218.6 215 253 215 253l21.8 38.7L70 376.4l-5.2-57.3L9 284.2l74.5-42.3-26.6-50.4C172.5 122.8 285 99.8 380.5 99.6H380.8m0-4.6h-5c-50.6.5-101.3 7.3-150.8 20.4-58.6 15.4-115.9 39.7-170.5 72l-3.8 2.2 2 3.9L77.4 240 6.7 280.2 0 284l6.5 4.1 53.9 33.7 5 55 .6 6.8 6-3.1 166.8-84.7 4.3-2.2-2.4-4.2-19.4-34.3c6.7-3 21-9 41-14.9 26.2-7.7 68-17 118.1-17.1 82.2.1 142.8 24.7 159.1 32l-19.4 34.3-2.4 4.2 4.3 2.2 166.8 84.7 6 3.1.6-6.8 5-55 53.9-33.7 6.5-4.1-6.7-3.8-70.2-40.2 24.5-46.5 2-3.9-3.8-2.2c-54.6-32.4-112-56.6-170.5-72-49.4-13-100.1-19.9-150.7-20.4h-4.6z"/><path class="st5" d="M90.9 255.4 37.3 285l42.2 24.6 4.7 45.2 118.2-59.3-82.5 8.9z"/><path class="st5" d="M202.1 259.3s-38.5 16.6-71.1 32l84.6-8.7-13.5-23.3zM670.3 255.4l53.6 29.6-42.1 24.6-4.7 45.2-118.3-59.3 82.6 8.9z"/><path class="st5" d="M559.2 259.3s38.5 16.6 71.1 32l-84.6-8.7 13.5-23.3z"/><path class="st5" d="M639.3 278.5c-201.4-105-329.5-96.5-515.1-.8-15.7-29.8-27-50.2-43.3-79.3 188-106.7 416.1-108.8 599.9-.8-18.2 31.5-25.9 53.3-41.5 80.9"/><path class="st6" d="m151.2 220.2 7.5-3.7c.2.3.3.6.5.9.2.3.3.5.4.8.1.3.3.6.4.8.2.3.3.5.4.8 2.4 4.7 2.5 8.4.5 11.1-2 2.7-5.1 5.1-9.2 7.2l-5.3 2.7c-5.6 2.8-10 3.3-13.2 1.4-3.2-1.9-6-5.4-8.6-10.5-.2-.5-.5-1-.8-1.4-.3-.5-.5-1-.8-1.4-.1-.2-.2-.5-.4-.7-.1-.2-.3-.5-.4-.7-.4-.7-.7-1.4-1.1-2.2-.4-.7-.8-1.4-1.1-2.2-3.4-6.7-4-11.7-1.9-15 2.1-3.3 6.1-6.5 12.1-9.5l2.5-1.3c.3-.1.6-.2.8-.3.3-.1.5-.3.8-.4 1.8-.8 3.7-1.4 5.6-1.8 1.9-.4 3.7 0 5.6 1.1 1.2.7 2.3 1.6 3.1 2.7.8 1.1 1.6 2.2 2.2 3.4l.3.6.3.6c.1.2.2.5.4.7.1.2.3.5.4.7l-7.6 3.7c-.2-.2-.4-.5-.6-.8l-.6-.9c0-.1-.1-.1-.1-.2s-.1-.1-.1-.2c-.6-1.1-1.3-2-2.2-2.8-.8-.7-2.3-.7-4.5.3-.6.2-1.2.4-1.8.7-.6.3-1.1.6-1.7.9l-1.3.7c-.3.2-.7.4-1.1.6-.4.2-.8.4-1.2.7-.8.5-1.6 1.1-2.3 1.7-.7.6-1.2 1.3-1.4 2-.2.8-.3 1.5-.2 2.3.1.8.3 1.5.6 2.2l.3.9c.1.3.2.6.4.8.3.7.6 1.3.9 1.9.3.6.6 1.3.9 1.9.6 1.3 1.3 2.5 2 3.8.7 1.3 1.3 2.5 2 3.8 2 4 3.9 6.1 5.7 6.3 1.8.3 4.6-.5 8.3-2.4 2.2-1.1 4-2.3 5.5-3.6 1.4-1.3 1.4-3.3.1-6l-.3-.6-.3-.6c-.1-.2-.3-.4-.4-.6.3-.4.2-.6 0-.9zM176.7 217l.6 8.9-8.2 3.3-2.8-46.8 11.6-4.7 30.5 35.7-8 3.2-5.8-6.9-17.9 7.3zm-2-30.9 1.5 24.2 14.2-5.7-15.7-18.5zM201.2 169l20.7-6.4c4.9-1.5 8.7-1.6 11.5-.4 2.7 1.2 4.9 4.3 6.4 9.4.2.5.3 1 .5 1.6.2.6.3 1.1.4 1.7.3 1.2.4 2.5.4 3.7 0 1.3-.3 2.4-1 3.4-.4.6-.8 1.1-1.4 1.5-.5.4-1.1.9-1.7 1.2-.2.1-.5.2-.7.4-.2.1-.4.3-.7.4l.1.2c2.6-.6 4.6-.3 6.2.7 1.6 1 2.8 2.8 3.5 5.3l2.8 9.2-8.2 2.5-2.4-7.7-.2-1c-.7-2.1-1.7-3.4-3.2-3.8-1.4-.4-3.1-.3-5 .3l-11.5 3.5 4.4 14.2-7.9 2.4-13-42.3zm26 15.5c2.5-.7 4.1-1.7 4.8-3.1.7-1.3.7-3.1-.1-5.5-.8-2.6-1.7-4.5-2.7-5.6-1-1.1-3-1.2-6-.3l-12 3.7 4.4 14.3 11.6-3.5zM248.3 155.1l21.4-4.6c5.6-1.2 10-.8 13.2 1.1 3.2 1.9 5.4 5.8 6.7 11.5.1.6.3 1.2.4 1.9.1.6.3 1.2.5 1.8.1.6.3 1.2.4 1.8.1.6.3 1.2.4 1.8 1.2 5.4 1.3 10.2.5 14.6-.8 4.3-4.6 7.2-11.2 8.6l-22.8 4.9-9.5-43.4zm27.9 32.1c4.4-.9 6.7-2.6 7.1-5 .4-2.4.2-5.5-.6-9.1l-.5-2.4-.9-4.2c-.3-1.4-.7-2.8-1.2-4.2-.9-2.5-2.1-4-3.8-4.4-1.7-.5-3.6-.4-5.9 0l-12.3 2.7 6.3 29.2 11.8-2.6z"/><path transform="rotate(-8.545 305.04 166.774)" class="st6" d="M300.6 144.5h8.5V189h-8.5z"/><path class="st6" d="m329.1 160.6 19.7-1.9.6 7-19.7 1.8 1.7 18.3-8.5.8-4.2-44.3 29.3-2.8.7 7.1-20.8 2zM367.9 158l19.8-.4.2 7-19.9.4.4 18.3-8.5.2-.9-44.5 29.4-.6.1 7.1-20.8.5zM440.7 170.3l8.3.8c0 .4-.1.7-.1 1v.9c0 .3 0 .6-.1.9 0 .3 0 .6-.1.9-.5 5.2-2.3 8.5-5.4 9.7-3.1 1.2-7 1.7-11.6 1.2l-5.9-.5c-6.2-.6-10.2-2.5-11.9-5.8-1.7-3.3-2.3-7.7-1.8-13.5 0-.5.1-1.1.1-1.6 0-.6.1-1.1.1-1.6v-1.6c.1-.8.1-1.6.2-2.4.1-.8.1-1.6.2-2.4.7-7.4 2.8-12 6.3-13.8 3.5-1.7 8.6-2.3 15.3-1.7l2.9.2c.3.1.6.1.9.1.3 0 .6.1.9.1 2 .3 3.9.8 5.7 1.5 1.8.7 3.2 2 4.2 3.9.7 1.2 1.1 2.5 1.2 3.9.1 1.4.1 2.7.1 4.1v3l-8.4-.8c-.1-.3-.1-.6-.1-.9v-1.5c.1-1.2-.1-2.4-.4-3.5-.3-1.1-1.6-1.8-3.9-2.1-.6-.1-1.2-.2-1.9-.3-.6-.1-1.3-.1-1.9-.2l-1.6-.3c-.4 0-.8 0-1.3-.1-.4 0-.9-.1-1.3-.1-1 0-1.9.1-2.9.2-.9.2-1.7.5-2.3 1-.6.5-1 1.1-1.3 1.8-.3.7-.5 1.4-.6 2.2-.1.3-.1.6-.2.9-.1.3-.1.6-.1.9l-.3 2.1c-.1.7-.2 1.4-.2 2.1-.1 1.4-.3 2.8-.4 4.3-.1 1.4-.2 2.9-.3 4.3-.4 4.4.1 7.2 1.5 8.4 1.4 1.2 4.2 2 8.4 2.3 2.5.2 4.7.2 6.6-.2 1.9-.4 3-2 3.2-5.1 0-.2 0-.5.1-.7 0-.2 0-.5.1-.7v-.7c-.1-.1 0-.3 0-.6z"/><path transform="rotate(-81.026 462.952 167.085)" class="st6" d="M440.7 162.8h44.5v8.5h-44.5z"/><path class="st6" d="m491.4 195.2-8.4-1.8 7.9-36.2-12.6-2.7 1.6-7.4 33.8 7.4-1.6 7.4-12.8-2.8zM534.6 189.1l-5 16.3-8.2-2.4 5-16.4-7.4-30.9 9.3 2.8 4.7 21.4 15.8-15.1 9.5 2.8zM582.4 197.6l18.2 7.7-2.6 6.4-18.3-7.7-7.1 16.9-7.9-3.3 17.3-41 27.1 11.4-2.8 6.6-19.2-8.1zM630.6 230.6l7.4 3.8c-.2.3-.3.6-.4.9-.1.3-.2.5-.4.8-.1.3-.3.6-.4.8-.1.3-.3.6-.4.8-2.4 4.7-5.3 7-8.6 7-3.4 0-7.1-1.1-11.2-3.2l-5.3-2.7c-5.6-2.9-8.6-6.1-8.9-9.8-.4-3.7.7-8 3.4-13.2.2-.5.5-1 .7-1.5.2-.5.5-1 .7-1.5.1-.2.2-.5.3-.7.1-.2.2-.5.3-.7.4-.7.7-1.4 1.1-2.2.4-.7.7-1.5 1.1-2.2 3.4-6.7 7-10.1 11-10.4 3.9-.3 8.8 1.1 14.8 4.1l2.6 1.2c.3.2.5.3.8.5.3.1.5.3.8.4 1.7 1 3.3 2.1 4.7 3.5 1.4 1.3 2.2 3 2.4 5.1.2 1.4.1 2.8-.3 4.1-.4 1.3-.9 2.6-1.4 3.8l-.3.6-.3.6c-.1.2-.2.5-.3.7-.1.2-.2.5-.3.7l-7.5-3.9c0-.3.1-.6.3-.9.1-.3.3-.7.4-1 0-.1.1-.1.1-.2s.1-.1.1-.2c.5-1.1.8-2.3.9-3.4.1-1.1-.9-2.3-2.8-3.4-.5-.4-1.1-.7-1.6-1-.6-.3-1.1-.6-1.7-.9l-1.3-.7c-.4-.1-.8-.3-1.2-.5-.4-.2-.8-.4-1.2-.5-.9-.4-1.8-.6-2.7-.8-.9-.2-1.7-.2-2.5 0-.7.3-1.4.7-1.9 1.2s-1 1.1-1.4 1.8c-.2.3-.3.5-.5.8-.2.3-.3.5-.4.8-.4.6-.7 1.2-1 1.8-.3.6-.7 1.2-1 1.9-.6 1.3-1.3 2.5-1.9 3.8-.6 1.3-1.3 2.6-1.9 3.9-2 4-2.6 6.8-1.7 8.4.8 1.6 3.1 3.4 6.9 5.3 2.2 1.1 4.3 1.9 6.2 2.2 1.9.4 3.5-.8 4.9-3.5l.3-.6.3-.6c.1-.2.1-.4.3-.7-.3.1-.2-.1-.1-.4zM381.4 245.4c100.5 0 182 81.5 182 182s-81.5 182-182 182-182-81.5-182-182 81.5-182 182-182m0-7.7c-25.6 0-50.4 5-73.8 14.9-22.6 9.6-42.9 23.2-60.3 40.6s-31.1 37.7-40.6 60.3c-9.9 23.4-14.9 48.2-14.9 73.8 0 25.6 5 50.4 14.9 73.8 9.6 22.6 23.2 42.9 40.6 60.3s37.7 31.1 60.3 40.6c23.4 9.9 48.2 14.9 73.8 14.9 25.6 0 50.4-5 73.8-14.9 22.6-9.6 42.9-23.2 60.3-40.6 17.4-17.4 31.1-37.7 40.6-60.3 9.9-23.4 14.9-48.2 14.9-73.8 0-25.6-5-50.4-14.9-73.8-9.6-22.6-23.2-42.9-40.6-60.3-17.4-17.4-37.7-31.1-60.3-40.6-23.4-9.8-48.2-14.9-73.8-14.9"/><path class="st6" d="M382.1 252.2c96.8 0 175.2 78.4 175.2 175.2 0 96.8-78.4 175.2-175.2 175.2-96.8 0-175.2-78.4-175.2-175.2 0-96.7 78.5-175.2 175.2-175.2m0-1.9c-23.9 0-47.1 4.7-68.9 13.9-21.1 8.9-40 21.7-56.3 38s-29 35.2-38 56.3c-9.2 21.8-13.9 45-13.9 68.9s4.7 47.1 13.9 68.9c8.9 21.1 21.7 40 38 56.3s35.2 29 56.3 38c21.8 9.2 45 13.9 68.9 13.9 23.9 0 47.1-4.7 68.9-13.9 21.1-8.9 40-21.7 56.3-38 16.3-16.3 29-35.2 38-56.3 9.2-21.8 13.9-45 13.9-68.9s-4.7-47.1-13.9-68.9c-8.9-21.1-21.7-40-38-56.3-16.3-16.3-35.2-29-56.3-38-21.8-9.2-45-13.9-68.9-13.9"/><path d="M408.5 311.1c-21.5 8-40.9 28.2-44.6 52.8-3 19.3 6.6 38.6 24.1 48.5 12.2 6.8 23.4 11.5 37 13.1 17.5 2.1 37.4 3.3 55.1 3.3 13.6.1 43.7.1 52.8-.3 1.3-.1-.9 1.2-1.6 1.3-49.3 9.2-56.5 8.2-93.6 20.4l.3.6c24.5 7.2 84.3 51.5 91 61-36.7-21.8-99.7-49.7-143.7-38-9.2 2.4-20.3 8.8-21.8 20.4-1.7 13.5 8 28.2 15.4 38.4 13 17.8 30 35.5 48.9 46.9 2.4 1.4 4.8 2.7 7.2 4-3.3.3-6 0-8.3-.9-.2 0-.3-.1-.5-.2-29.5-13.3-88.2-54.3-88.2-54.3-3.7-2.8-7.2-5.5-10.5-8.3l-.1-.1c-.1-.1-.3-.2-.4-.3-1.3-1.1-2.6-2.3-3.8-3.4 0 0-.1 0-.1-.1-14.6-13.5-23.9-27.5-28-42.2v-.2c-1.7-6.1-2.5-12.3-2.3-18.8h-.1c-9.4-8.6-18.1-18.6-26.1-30.2-.3-.4-.6-.9-.8-1.3-.1-.1-.2-.2-.2-.4-6-9.8-9.3-19.1-9.9-28.1-.1-1.1-.4-2.2-.7-3.2-.9-3.3-2.7-6.6-5.3-10l6 .7-5.7-8.1 10.8 1.8c10.6-11.3 31.1 1.9 39.9 9.2.2-1.4.5-2.9.7-4.3 2.5-17.9 15.5-35.4 30.3-46.9 17.4-13.4 30.2-19.6 50-25.5 6-1.8 12.1-3.2 18.2-4.4 7.4-1.4 15.1-2.9 22.6-3.1 3-.1 7.4-.2 10.4.8 0 0 3.7.8 2.5 1-2.4.4-15.2 4-26.9 8.4" style="fill:#e7e7e7"/><path class="st6" d="M398.6 294.7c-22.4 8.8-42 30.3-44.9 55.7-2.3 20 8.5 39.5 27.4 49.1 13.1 6.7 25.2 11.1 39.6 12.4 18.6 1.6 39.6 2.2 58.2 1.8 14.4-.3 46.1-1.2 55.7-1.9 1.4-.1-1 1.2-1.6 1.4-51.6 11-59.3 10.1-97.9 23.8l.3.6c26.1 6.6 91 50.4 98.5 60-39.6-21.4-107.2-48.1-153.1-34.8-9.6 2.8-21 9.6-22.1 21.6-1.3 13.9 9.6 28.8 17.8 39.1 14.4 18 33.1 35.6 53.4 46.8 2.6 1.4 5.1 2.7 7.8 3.9-3.4.4-6.3.2-8.8-.6-.2 0-.4-.1-.6-.2-31.7-12.8-95.3-53.2-95.3-53.2-4.1-2.7-7.9-5.5-11.4-8.3l-.1-.1c-.1-.1-.3-.2-.4-.3-1.5-1.1-2.8-2.3-4.2-3.4 0 0-.1 0-.1-.1-15.9-13.5-26.3-27.6-31.3-42.6v-.2c-2.1-6.2-3.2-12.5-3.2-19.1l-.1-.1c-10.3-8.5-21.9-24.1-27.3-31-1-1.3-13-20.5-14.3-29.6-.1-1.1-.8-3-1.2-4.2-.9-3.4-4.9-6.7-7.8-10.1l8.5 1.3-8.8-9.2 11.7 2.2c12.4-8.7 35.2 1.4 44.8 8.6.2-1.5.4-3 .5-4.4 2-18.5 14.9-36.9 30.1-49.1 17.8-14.3 31-21.1 51.8-27.7 6.3-2 12.6-3.7 19.1-5.1 7.8-1.7 15.8-3.4 23.7-3.9 3.2-.2 7.8-.4 11 .5 0 0 3.9.7 2.6 1-2.5.5-15.8 4.6-28 9.4"/><path class="st4" d="M256.8 403c-6.6-8.4-6.9-11.3-10.1-21.4-1.2-3.7-2-7.6-2.5-11.5 1.3-.1 2.6-.1 3.9-.2h.2c11.3-.1 20.3 3.4 26.9 10.6 5.1 5.6 8.9 13.2 11.1 23l-29.5-.5zM308.8 456.5s-3 21.5 35.3 61.2c0 0-51.1-31.7-47.5-66.6 0 0 4.7 10.4 7.8 10.5l4.4-5.1zM329.4 325.6s-31.7 11.2-30.3 55.1c0 0 7.6 6.5 8 6.6l5.8-.9c0-.1-9.4-36.4 16.5-60.8"/><path class="st8" d="M283 435s-.8 5.4-1 11.2c0 0-39.1-35.6-42.8-64.8 0 0-7.5-10-7.9-10.1 0 0 7.2 1.1 8.7 1.3 0-.1-.7 31.2 43 62.4M533.8 497.6s-46-36.9-138-45.9c-84.9-8.3-23.3 66.9-23.3 66.9s-25.3-28.7-7.9-46.7c17.4-18 0 0 0 0s40.1-41.1 169.2 25.7"/><path class="st6" d="M266.6 383.4c.8-1.4.9-2.6.1-3.4-1.2-1.5-4.6-2.3-10.1-2.3 4.5 7.5 7.9 9.5 10 5.7"/><path class="st9" d="M331.6 639.4s-3.1 4.8-6.1 4.3c0 0-.3 1.8 2.4 1.1 0 0 6.7-3.3 6.7-5.4 0 0 .4-1.9-1.1-1.6l-1.9 1.6z"/><path class="st10" d="M323.6 639.8v-.4c0-.2.1-.6 0-1 0-.8-.1-2.1-.4-3.5-.3-1.4-1-3.1-2.1-4.6-.5-.7-1.2-1.4-2-1.9s-1.8-.9-2.7-1.3c-.9-.4-1.9-.8-2.8-1.4-.9-.6-1.5-1.5-1.7-2.5-.2-1 0-2 .4-2.8.4-.8.9-1.5 1.5-2s1.2-.9 1.6-1.3c.5-.4.8-.8 1.1-1.2.3-.4.4-.7.5-.9.1-.2.1-.3.1-.3s0 .1-.1.3c-.1.2-.2.5-.5.9-.2.4-.6.8-1.1 1.2-.5.4-1 .8-1.6 1.4-.6.5-1.1 1.2-1.4 2-.3.8-.5 1.7-.3 2.6.2.9.8 1.7 1.6 2.2.8.5 1.8.9 2.7 1.3 1 .4 1.9.7 2.8 1.2.9.5 1.7 1.3 2.3 2.1 1.2 1.6 2 3.3 2.4 4.8.4 1.5.6 2.8.6 3.8v1.5l-.9-.2z"/><path class="st10" d="M323.5 638.2s0-.1.1-.2c.1-.2.2-.4.3-.7.2-.6.5-1.5.6-2.5.1-1.1 0-2.4-.5-3.7-.2-.6-.6-1.3-1-1.8-.4-.6-1-1.1-1.6-1.6-.6-.5-1.1-1.1-1.6-1.7-.5-.6-.8-1.5-.6-2.2.1-.8.5-1.4 1-1.9s1.1-.7 1.7-.9c.6-.1 1.1-.2 1.6-.3.5-.1.8-.2 1.1-.4.3-.2.5-.3.6-.4l.2-.2-.2.2c-.1.1-.3.3-.6.5s-.7.3-1.1.5c-.5.1-1 .2-1.5.4s-1.1.4-1.6.9c-.4.4-.8 1.1-.9 1.7-.1.7.2 1.4.7 1.9.5.6 1.1 1.1 1.6 1.6.6.5 1.2 1 1.7 1.6.5.6.9 1.3 1.2 2 .6 1.4.8 2.9.7 4.1 0 .6-.1 1.2-.2 1.7s-.2.9-.4 1.3c-.1.4-.2.6-.3.8-.1.2-.1.3-.1.3l-.9-1z"/><path class="st9" d="M317.9 660.3s-1-.6-2.9-.9l-.8-1s-2.3-.1-3.3.4c0 0 7 5 7.3 7.9l-.3-6.4z"/><path class="st10" d="M335.8 673.6h-2.5c-1.5-.1-3.3-.2-4.7-.6-.5-.2-1.1-.5-1.5-.8-1.5-1.1-2.2-3-2.6-4.7-.1-.6-.3-1.3-.3-1.9 0 0-.2-7.6-3.6-11l.1-.8s-1.7-1.1-3-.8c0 0 1.8 3.4 1.9 5.6.1 2.2-2.1-1.8-2.6-2.4-.5-.6-1.3-1.4-1.3-1.4l-.1-.7s-2.4-1-3.8-.9c0 0 1 .9 2.6 3.4 2.8 4.2 3.7 10.1 2.5 13.2 0 0-2.7 2.7-4.7 3.6-1.9.9 4.2.3 5.9-.4 1.8-.7 3 1 5.4 6 2.4 4.9 3.5 8.9 10.7 11.3 1.5.3-1-1.6-1.5-3.1-.9-2.7 1.2-3.6 2.3-3.2 1.2.4 3.7 4.1 5.1 5 .1-.1-3.9-14.2-4.3-15.4"/><path class="st10" d="m315.5 673.4-.9 1s-1.4.3-3.9-.6c0 0 3.8-1.1 4.6-1.8l.2 1.4zM343.6 620.2s-11.5 2.9-13.9 9.3c0 0-.1-.1-.5 0 0 0-.1-1.3.1-1.7.1-.4-2.3 1.1-2.7 4.1 0 0 .5 1.2.9 1.5 0 0-3.4 3.2-4.3 5 0 0-.5-.5-.7-1.6-.2-1.1-1.7 1.9-1.7 2.3 0 0-.2.5.3 1 0 0 .1.5.8 1.8.7 1.3.5-.9.7-1.1 0 0 2.2 1 2.9.9s2.9-1.2 3.2-1.2.4 1.1.9 1c.4-.1 1.2-1.4 1.2-1.6 0-.5 1.2.1 2.6-.6 0 0-1.5 2.8-3.8 4.1 0 0-1.3-1.9-1.5-1.3 0 0 .1 1.4.1 1.6 0 0 .1.7-1.6.7 0 0-1.2-1-1.2-1.3 0-.3-.5.1-.3.9l.3.9s-.6 1 .6 2.1c0 0 .1 1.1.3 1.5 0 0 .5-.1.8-1.5 0 0 .4 1.5.6 1.6.2.1.7-.8.8-1.5 0-.2 1.3-.4 1.4-.4.7-.1 1.4-.1 1.9.6s.5 1.9-.4 2.3c-.5.2-1.1 0-1.4-.3 0 0-1.2-.5.1 1 1.6 1.8 4.3.1 3.6-2.6-.5-1.7-1.2-2.1-1.2-2.1s.9-.3 1.1-.5c.2-.2 1.7.4 1.8.3.1-.2-.5-.9-.7-1.2-.2-.3 1.7.6 1.8.4.1-.2-.2-.9-.4-1.3-.2-.3 10.8.5 1.6 17.3-5.1 9.3-4.6 20.1 3.6 27.4 10.7 9.4 25 4.8 33.1-5.5 2.3-3 3.5-6.8 6.3-9.4 1.8-1.7 4.3-2.9 6.8-2.5 6.1.8 9.3 7.3 13 11.4 4.9 5.4 11.5 10.1 18.4 12.5 13.5 4.8 29.6 0 33.2-15.1 1.8-7.5-.9-17.1-8.6-20.2-4.6-1.8-10.3-.1-15-1.5-1.8-.5-3.2-1.8-3.2-3.7 0-1 0-2 .6-2.9 2.2-3.5 6.2-6.5 9.4-8.2 3.2-1.7 3.6-1.9 4-2.8-.5-.5-2.9.1-8.4 3.2-11.8 6.7-12.9 16-3.7 18.9 3.8 1.2 9 .3 11.2 4.4 1.1 2.1 1.3 5.2-.6 6.9-11 9.8-27-7.2-27-7.2s1.4.1 3.6.9c2.2.9-4.2-5.2-9.1-7 0 0 2.7.5 4.1 1 1.4.5-.4-1.2-2.9-2.7 0 0-4.2-2.8-8.5-3.9 0 0 1.5-.4 3.6.2 2.1.6-.1-1-2.3-1.6-2.2-.7-8.4-1.9-9.8-2-1.4-.2 1.2-.7 2.2-.5 1 .2 0-.5-2.1-1-2.5-.6-5.8-.4-8.2.1-5 1.1-9.1 3.3-12.6 7.1-2.6 2.9-5.2 5.6-8 8.3-1.6 1.5-3.3 3-5.1 4.3-1 .7-2.4 1.8-3.7 1.7-4.2-.3-4.1-4.4-3.2-6.9 0 0 6.1-14.1 6.2-16.5 0 0 1.5 1.4 1.8 2.3.3.9.4-.9.3-1.9 0-1-1.2-3.8-1.4-4.5-.2-.6 1.5.8 1.7 1.2.2.4.9-.6 0-2.4 0 0-2.1-2.9-3-3.6 0 0 1.3-.2 2.2-.1 1 .1-.5-1.1-.9-1.3-.4-.2-1.5-.7-3.1-1 0 0 1.5-1.4 2.5-1.5 1-.1-.9-.7-.9-.7s-2-.4-4-.1c0 0 .8-1.7 1.5-2 .7-.3-.4-.7-1.9-.3 0 0-2.1.7-2.3.8l-.4.2s1.2-2.5 2.7-3.1c0 0 0-.9-2.4-.3l-.7.3s1.9-4.1 5-5.5c2.1-1.1-3.3-.3-4-.1-.6.2-4.7 1.3-7.1 3 0 0 .1-1 .5-1.6.4-.5-1.1-.1-1.1-.1l-1 .2s3.4-3.5 4.9-4.3c1.1-1.4-.3-1.2-.3-1.2"/><path class="st4" d="M335 634.4c.1 0 .2-.1.3-.1.6-.3 1.1-.7 1.5-1.1.2-.2 1-1 .9-1.3-.1-.4-1-.1-1.3 0-.9.2-1.8.6-2.7.9-.1.1-.3.1-.3.3-.1.1 0 .3.1.4.2.4.9 1 1.5.9"/><path class="st10" d="M398.6 678s-1.2 2.1-3.4 3.6c-1.9 1.2-3.1 3.2-.3 5.7 3.5 3.2 6.9 4.1 8.4 5.4 0 0 .1 1.6-2.3 1.4l-5.3-1s-3.9-1.6-4.2-1.7c-.6 0-2.6-1-4.4 0-1.1.6-2.3.4.6.9 0 0 .6 0 3.2 1.1-3.9-.3-3.8.7-5.3.4-1.1-.2-2.5.6-2.6 1.8 0 0 3.2-.2 5.4.2 3.3.5 3.5.4 3.5.4s-4.5.6-6 3.4c0 0 3.9-.4 9-1.1 5.2-.7 12.9-.6 15.2-.2 2.3.4-.9-4-.9-4s-2.2-4.7.1-5.1l1.5-.6c-.2.1-3-4.3-12.2-10.6"/><path class="st10" d="m389.3 691.9.5-1.6s-4.7 1-5.1 2h5.7l-1.1-.4zM385.9 694.2l-.9-.8s-2.8.8-4.1 2.9c0 0 4.2-.7 7.5-.3l-2.5-1.8zM388.1 697.9l-1-.9s-3.6 1.4-4.5 3.2c0 0 7.3-1.3 10.5-1.4l-5-.9zM399.4 704.4l-1.4-.7s-2.8 1.7-3.9 3.9l8.1-1.6-2.8-1.6zM401.4 708.3l-1-.8s-2.4 2.5-2.5 4.5c0 0 8.1-4 9.6-4.6l-6.1.9z"/><path class="st9" d="M328.8 630.1s1.4-.6 2-.1c0 0 1.2-2.3 2.2-2.6 1-.3.1.4-.3 1.8 0 0-.9 2.5 2.6-.5l2.4-2.1s1.7.7 2.8 4.7c0 0 1.9-5.6 11.6-8 .5-.1-.3-.4-.4-.4-1-.1-2 .1-3 .3-1.1.2-2.3.6-3.4 1-.6.2-1.1.4-1.6.7-.5.2-1 .5-1.5.6-.2.1-.4.1-.6.2-.1 0-.6.1-.7.2.2-.2.3-.5.5-.7 0 0 .3-.5.2-.5-.5-.2-2.4.3-2.4.3s-5.1 2.1-7.3 1.4c-.1-.1-1.7 1.5-3.1 3.7M325.4 638.9s1.3-3.6 4.1-2.2c0 0 .7.4 0 .6 0 .1-2.4 1.1-4.1 1.6M336.2 642.8c2-1.2 5-.6 6.5 1.1 1.3 1.5 1.6 3.8 1.3 5.8-.6 4.5-2.3 8.7-4.3 12.8-1 2-1.9 4.3-3.1 6.2-1 1.6-2.5 3.4-1.9 5.3-.6-2.2-.4-4.7.1-7.1.5-2.4 1.7-4.7 2.8-6.9 1.8-3.8 4.7-8.1 3.6-12.5-.6-2.3-2.7-4.5-5-4.7"/><path class="st9" d="M341.2 658.8s-6.3 18 4.1 28.5l3.4 4.8s-13.7-5.3-14.3-18.9c.1 0 2.6-11.1 6.8-14.4M358.5 683.6c0-.4-.7-2.5-.4-2.7 2.2-.9 2-7.8 12-15.1 16.7-12.2 30 2.4 31.1 6.5 0 0 9.4 16.4 18.5 20.3 1.8.8.7.7.5 1.1-.2.5 1.3 1.2-1.2.5-3.5-1-15.1-7.1-21.1-15.6 0 0 0-.1-.1-.1-.5-.9-9-16.1-19.4-3.5-.1.1-.1.1-.1.2-.5 1.3-5.6 13-19 16.7-.6.2-1.1-.3-1.1-.9l.3-7.4z"/><path class="st10" d="m334.4 697.9-1.3-.6s-1.1 1-1.4 2.5c0 0 3.3-1.3 6.4-1.4l-3.7-.5zM333.1 702.2l-1.6-.3s-1.2 1.7-.9 3.2l4.3-2.4-1.8-.5zM338.6 704.6l-2.2.9s-.7.8-.3 3.2c0 0 4.8-3.9 9.4-6.3l-6.9 2.2zM357.9 697.9l1-.8s2 .3 2.8 1.9c0 0-3.4-.5-5.7.3l1.9-1.4z"/><path class="st10" d="M368.2 658c-.6.6-1.5.3-2 .9 0 0 1.2-2.8.4-9.1-.3-2.4-.6 2-.6 2s-.3 3.3-3 6.4c-2.7 3.1-4.9 3.5-5.9 6.5 0 0-1.1-.5.7-3 1.5-2.1-1.1-.5-2.2 1.1s-2.4 4-3.1 8.2c-.7 4.3-9.6 8.1-6.9 12.3.7 1.1 2.3 5.9 2.3 6.7 0 1.2-1.5 2.5-2.2 3.5-.1.2-1.3 2.2-1.5 2.2 0 0-8.4.5-10.7 2.5-1 .8-.1.8-.1.8s5.2-1 6.2-.3c.7.4-1 .7-1.2.7-.5.1-1 .4-1.4.6-1.7.7-3.5 1.5-4.8 2.7-1.8 1.6-.7 1.5-.7 1.5s4.9-2.4 8.5-1.9c0 0-3.1 3.7-3 5.6 0 0 .9-.3 2.8-2.3 1.8-2 12-5.4 14-5.9.3-.1 4.3-.8 5.8-.8 2.7-.1-1.8-1.2-1.8-1.2s-2.2-.5-3.6-.5 1.1-2 1.8-2.3c0 0 3.2-1.2 6.5-.2 2.1.6-1.3-2.9-2.7-3.5.6-1.2 1.3-2.5 1.5-3.8.4-2.1.7-3.8 2.3-5.3-1.1-.1-2.2.2-3.1 1-.7-1.8-.4-3.8.7-5.3.9-1.3 2.3-2 3.5-3 1.9-1.5 3.7-3.2 5.1-5.2 2.2-3.1-.4 0-2.2.2 0 0-.7-.6 2.3-3.5 3-3 .5-.7-1.8-.4-2.3.3.5-1.1 1.9-2.7 5.4-6 8.1-3.6 4.9-13.6.1-.5-2.2 3.6-6.7 8.4"/><path class="st9" d="M400 693.9s3.2 1.8 2.5 4.2c0 0 3.3-.1 7.7.4 2.4 0-1.7-5.9-1.7-5.9s-1.1-3.1 1.2-3.5l-11-10.8s-1.6 2-4.1 3.6c-3 2-.9 5.2 3.9 7.9l4.8 2.7c-.1.2 0 2.1-3.3 1.4M430.7 688.1c2.9-7.5 24.6 2.9 20.4-21.6 0 0 8.8 16.7-11.7 27.5 0 0-4.9 2.1-10.8 1.8.1-.1 1-4.8 2.1-7.7"/><path class="st10" d="m427.8 694.7-1-6.3c-1.7-1-6 3.4-6 3.4s-.3 3.4-2.7 5.5c-2.3 2-8.1 3-9.8 2.9-1.7-.1-2.3-.2-6.8-.2s-4.8 2.3-4.8 2.3l1.2-.1c1.2-.1 3.4-.1 5.5.7 2.1.7-3.6 1.1-3.6 1.1-3.4.2-4.5 2.4-4.5 2.4 0 1 1.7.4 1.7.4 1.3-.1 5.2-.8 5.2-.8s6.4-1.8 3 .1c-3.4 1.8-4.9 1.8-4.5 2.9.3.8.1 1.6 2.3.7 1.2-.5 4.5-2.3 4.5-2.3 13.9-6.1 18.8-4.5 21.8-5.6 3.1-1.1-.6-6.1-.6-6.1l-.9-1z"/><path class="st9" d="M345.8 637.2s.9-1.6 3.4-2.6c0 0-.6 3.2-1.9 4-1.3.9-2.6.9-1.5-1.4M342.4 634.7s.9-1.7 3.6-2.7c0 0-.7 3.4-2 4.3-1.4.9-2.8.8-1.6-1.6M349.5 639.4s.4-.8 1.7-1.3c0 0-.3 1.6-.9 2-.7.5-1.3.5-.8-.7M351.9 641.5s.4-.7 1.5-1.2c0 0-.3 1.4-.8 1.8-.6.4-1.2.4-.7-.6M320.1 673.3c.5-.3 7.9 10.8 14.4 10.5 0 0-3.1.9-1.3 4.2 0 0 1.6 2 1.6 2.3.1 0-7.5 1-14.7-17"/><path class="st10" d="m400.8 700.4-.9-1s-3.5 1.5-4.4 3.1c0 0 5.4-.4 8.6.1l-3.3-2.2zM435.8 640.4v-1c.1-.5.3-1.1.7-1.5v-.1c0-.1-.1-.1-.1-.1-1.5.3-2.5 2.4-3 3.7-.4 1.3 2.3-.3 2.4-1M438 639.4v-.6c.1-.3.2-.7.5-.9h-.1c-1 .2-1.6 1.5-1.9 2.3-.3.7 1.5-.4 1.5-.8M433 641.3c0 .1-.1-.4 0-.9.1-.7.4-1.6.9-2.2l.1-.1c0-.1-.1-.1-.2-.1-2.1.5-3.3 3.4-3.9 5.3-.7 2 3.1-1 3.1-2M428.8 644.1c0-.1-.1-.8-.1-1.4.1-1.1.4-2.3 1.1-3.1 0 0 .1-.1.1-.2s-.2-.1-.3-.1c-3 .9-4.4 5.5-5.1 8.2-.6 2.8 4.4-2 4.3-3.4"/><path class="st10" d="M424.6 648.1c0-.1-.3-.9-.4-1.6-.2-1.2.2-2.7.5-3.8 0-.1.1-.1 0-.2 0-.1-.2-.1-.4 0-4.8 3.2-3.2 6.8-3.2 10.1.1.3 3.9-2.9 3.5-4.5"/><path d="m331.1 646.2.3-.1h.8c.5.2.8.6.9 1.1.3 1.3-.9 2.1-2 1.9 0 0 1.1.2 1.3-1.4-.1 0 0-.9-1.3-1.5" style="fill:#81171a"/></g></svg>