<?xml version="1.0" encoding="utf-8"?>
<!-- Generator: Adobe Illustrator 19.2.1, SVG Export Plug-In . SVG Version: 6.00 Build 0)  -->
<!DOCTYPE svg PUBLIC "-//W3C//DTD SVG 1.1//EN" "http://www.w3.org/Graphics/SVG/1.1/DTD/svg11.dtd">
<svg version="1.1" id="Layer_1" xmlns="http://www.w3.org/2000/svg" xmlns:xlink="http://www.w3.org/1999/xlink" x="0px" y="0px"
	 viewBox="0 0 231.8 231.8" style="enable-background:new 0 0 231.8 231.8;" xml:space="preserve">
<style type="text/css">
	.st0{fill:#FFFFFF;}
	.st1{fill:#231F20;}
	.st2{opacity:0.57;fill:url(#SVGID_1_);}
	.st3{opacity:0.66;fill:url(#SVGID_2_);}
	.st4{fill:#BE1E2D;}
	.st5{fill:#EC1C24;}
	.st6{fill:url(#SVGID_3_);}
	.st7{opacity:0.41;fill:url(#SVGID_4_);}
	.st8{opacity:0.45;fill:#932923;}
	.st9{opacity:0.5;fill:url(#SVGID_5_);}
	.st10{opacity:0.38;fill:url(#SVGID_6_);}
</style>
<g>
	<g>
		<path class="st0" d="M0,115.9C0,51.9,51.9,0,115.9,0c64,0,115.9,51.9,115.9,115.9c0,64-51.9,115.9-115.9,115.9
			C51.9,231.8,0,179.9,0,115.9L0,115.9z"/>
		<path class="st1" d="M4.4,115.9C4.4,54.3,54.3,4.4,115.9,4.4c61.6,0,111.5,49.9,111.5,111.5c0,61.6-49.9,111.5-111.5,111.5
			C54.3,227.4,4.4,177.5,4.4,115.9L4.4,115.9z"/>
		
			<linearGradient id="SVGID_1_" gradientUnits="userSpaceOnUse" x1="693.9265" y1="339.7901" x2="763.214" y2="571.3569" gradientTransform="matrix(-0.9989 -4.620000e-02 4.620000e-02 -0.9989 824.9332 613.9081)">
			<stop  offset="5.376000e-03" style="stop-color:#CECFD1"/>
			<stop  offset="0.2366" style="stop-color:#231F20"/>
		</linearGradient>
		<path class="st2" d="M224.5,120.9c-2.8,60-53.7,106.4-113.7,103.6c-60-2.8-106.4-53.7-103.6-113.7C10,50.9,60.9,4.5,120.9,7.3
			C180.9,10,227.3,60.9,224.5,120.9L224.5,120.9z"/>
		<linearGradient id="SVGID_2_" gradientUnits="userSpaceOnUse" x1="81.7894" y1="-4.3446" x2="133.6447" y2="168.9617">
			<stop  offset="0" style="stop-color:#FFFFFF"/>
			<stop  offset="0.2688" style="stop-color:#231F20"/>
		</linearGradient>
		<path class="st3" d="M7.1,115.9C7.1,55.8,55.8,7.1,115.9,7.1c60.1,0,108.8,48.7,108.8,108.8C224.7,176,7.1,176,7.1,115.9
			L7.1,115.9z"/>
		<path class="st0" d="M38.4,115.9c0-42.8,34.7-77.5,77.5-77.5c42.8,0,77.5,34.7,77.5,77.5c0,42.8-34.7,77.5-77.5,77.5
			C73.1,193.4,38.4,158.7,38.4,115.9L38.4,115.9z"/>
		<path class="st4" d="M43,115.9C43,75.6,75.6,43,115.9,43c40.3,0,72.9,32.6,72.9,72.9c0,40.3-32.6,72.9-72.9,72.9
			C75.6,188.8,43,156.2,43,115.9L43,115.9z"/>
		<path class="st5" d="M45.4,115.9c0-38.9,31.6-70.5,70.5-70.5c38.9,0,70.5,31.6,70.5,70.5c0,38.9-31.6,70.5-70.5,70.5
			C77,186.4,45.4,154.8,45.4,115.9L45.4,115.9z"/>
		<linearGradient id="SVGID_3_" gradientUnits="userSpaceOnUse" x1="110.9507" y1="79.7746" x2="123.5009" y2="178.2471">
			<stop  offset="0" style="stop-color:#EC1C24"/>
			<stop  offset="0.5538" style="stop-color:#CE2E2C"/>
			<stop  offset="1" style="stop-color:#A82B27"/>
		</linearGradient>
		<path class="st6" d="M173.2,75.6c8.1,11.5,12.9,25.5,12.9,40.6c0,38.9-31.5,70.5-70.5,70.5c-38.9,0-70.5-31.6-70.5-70.5l0,0
			c0-11.5,2.7-22.3,7.6-31.9"/>
		<linearGradient id="SVGID_4_" gradientUnits="userSpaceOnUse" x1="109.9128" y1="53.532" x2="117.5222" y2="120.4976">
			<stop  offset="0" style="stop-color:#F1B8A4"/>
			<stop  offset="0.5753" style="stop-color:#DA2128"/>
			<stop  offset="0.9892" style="stop-color:#EC1C24"/>
		</linearGradient>
		<path class="st7" d="M46.5,105c0,0,29.1-21,63.7-6.2c34.6,14.8,74.2,1.2,74.2,1.2s-14-55.5-68.6-54C115.9,46,61.1,42.9,46.5,105z"
			/>
		<path class="st8" d="M106.6,162.3c0.5,0.4,0.6,1,0.6,1.3c0.2,1.5-0.8,2.8-1.1,4.4c-0.4,1.8,0.3,3.3,1,4.9c0.5,1.2,1.4,2,2.4,2.8
			c2.5,2,5.7,2.5,8.8,1.3c3-1.2,4.7-3.9,5.4-7c0.5-2.1-0.9-3.7-1.2-5.7c0-0.1,0.3-0.5,0.4-0.4c7.5,3.2,13.9,8,20.4,13.3
			c0.5,0.4,0.9,1.3,1.7,0.8c10-5.3,18-12.1,24.6-21.8c0.3-0.4-0.1-0.8-0.5-1c-8.8-3.3-17.5-5.4-27-7.2c-6.2-1.2-12-1-18.1-2.5
			c-0.6-0.1-1-1-1.3-1.1c-6.2-0.4-12.5-0.6-18.7,0.1c-0.8,1.8-1.2,3.7,0.1,5.5c0.4,0.6,0.1,1.5-0.3,2.3c-0.4,0.9-0.2,1.9,0.5,2.8
			c0.7,0.9,2,1.4,1.4,2.6c-0.5,1-0.9,1.8-0.7,2.9C105.2,161.6,105.9,161.9,106.6,162.3L106.6,162.3z"/>
		<path class="st0" d="M108.4,160.5c0.5,0.4,0.6,1,0.6,1.3c0.2,1.5-0.8,2.8-1.1,4.4c-0.4,1.8,0.3,3.3,1,4.9c0.5,1.2,1.4,2,2.4,2.8
			c2.5,2,5.7,2.5,8.8,1.3c3-1.2,4.7-3.9,5.4-7c0.5-2.1-0.9-3.7-1.2-5.7c0-0.1,0.3-0.5,0.4-0.4c7.5,3.2,13.9,8,20.4,13.3
			c0.5,0.4,0.9,1.3,1.7,0.8c10-5.3,18-12.1,24.6-21.8c0.3-0.4-0.1-0.8-0.5-1c-8.8-3.3-17.5-5.4-27-7.2c-6.2-1.2-12-1-18.1-2.5
			c-0.6-0.1-1-1-1.3-1.1c-6.2-0.4-12.5-0.6-18.7,0.1c-0.8,1.8-1.2,3.7,0.1,5.5c0.4,0.6,0.1,1.5-0.3,2.3c-0.4,0.9-0.2,1.9,0.5,2.8
			c0.7,0.9,2,1.4,1.4,2.6c-0.5,1-0.9,1.8-0.7,2.9C107,159.8,107.7,160.1,108.4,160.5L108.4,160.5z"/>
		<path class="st8" d="M103.9,136.8c-4.1,0.2-9,1-11.8-2.7c-1.1-1.5-0.9-4.1-3-4.8c-2-0.6-3.9,0.2-4.8,2c-0.9,1.7-0.9,3.6-0.2,5.4
			c0.8,2.2,2.9,3.9,5.1,4.2c16.9,1.9,33.3-1.2,50.3,1.4c3.1,0.5,7.1,6,10.2,2.5c0.7-5.3-5.4-7.3-9.6-8c-5.9-1-11.6,0.2-17.4-0.6
			c-1.2-21-0.1-42-1-63.1c-0.3-7.6-3.1-15.2-8.1-21.3c-3.9,5.5-6.4,11.9-6.9,18.5c-1.8,22,0.1,43.8-1.6,65.9
			C105.1,136.4,104.4,136.7,103.9,136.8L103.9,136.8z"/>
		<path class="st0" d="M105.8,135.9c-4.1,0.2-9,1-11.8-2.7c-1.1-1.5-0.9-4.1-3-4.8c-2-0.6-3.9,0.2-4.8,2c-0.9,1.7-0.9,3.6-0.2,5.4
			c0.8,2.2,2.9,3.9,5.1,4.2c16.9,1.9,33.3-1.2,50.3,1.4c3.1,0.5,7.1,6,10.2,2.5c0.7-5.3-5.4-7.3-9.6-8c-5.9-1-11.6,0.2-17.4-0.6
			c-1.2-21-0.1-42-1-63.1c-0.3-7.6-3.1-15.2-8.1-21.3c-3.9,5.5-6.4,11.9-6.9,18.5c-1.8,22,0.1,43.8-1.6,65.9
			C106.9,135.5,106.2,135.8,105.8,135.9L105.8,135.9z"/>
		<linearGradient id="SVGID_5_" gradientUnits="userSpaceOnUse" x1="117.9476" y1="158.1206" x2="104.1585" y2="161.2545">
			<stop  offset="3.225800e-02" style="stop-color:#FFFFFF"/>
			<stop  offset="0.9892" style="stop-color:#6D6E70"/>
		</linearGradient>
		<path class="st9" d="M123.8,143.6c0,0-14.2-1.1-17.6,0.2c0,0-0.7,1.4-0.4,2.9c0,0,1.1,1.4,0.9,2.2c-0.2,0.8-1.3,3.1-0.1,4.2
			c1.1,1.1,1.9,1.8,1.4,3.2c-0.5,1.4-1.6,2.4,0.5,3.8c2.1,1.4,1.1,2.8,1,3.5c-0.2,0.7-1.4,2.3-1.1,4.8c0.3,2.5,3.5,6,6.3,6.7
			c2.8,0.7,7-0.9,8-2.5c1-1.7,2.3-3,2.3-5.4"/>
		<linearGradient id="SVGID_6_" gradientUnits="userSpaceOnUse" x1="109.2846" y1="94.2589" x2="118.409" y2="94.1339">
			<stop  offset="3.225800e-02" style="stop-color:#FFFFFF"/>
			<stop  offset="0.9892" style="stop-color:#6D6E70"/>
		</linearGradient>
		<path class="st10" d="M107.7,135.5l7.8-0.2V53c0,0-5.5,5.8-6.1,15.8"/>
	</g>
	<g>
		<path class="st0" d="M53.4,41.7c-1.7-0.3-3.5,0.4-4.7,1.7c-2.2,2.2-2,5.5,0.2,7.6c2.2,2.2,5.3,2.3,7.6,0c1.2-1.2,1.8-3,1.6-4.6
			l4.4,4.4c-0.8,1.6-1.4,2.7-2.6,3.9c-1.9,2-4.6,3.1-7.3,3.2c-2.9,0.2-5.5-1-7.6-3c-1.9-1.9-3-4.5-3.1-7.2c0-2.8,1.1-5.6,3-7.6
			c1.2-1.2,2.5-2,4-2.6L53.4,41.7L53.4,41.7z"/>
		<polygon class="st0" points="68.4,32.4 64.3,26 68.6,23.2 79.3,39.9 74.9,42.7 70.6,35.8 64.3,39.8 68.7,46.7 64.3,49.5 
			53.6,32.8 58,30 62.1,36.4 68.4,32.4 		"/>
		<path class="st0" d="M85,34.1l-0.2,3.7l-5.2,1.8l0.8-21.2l5.3-1.8l13.5,16.4L94,34.6l-2.3-2.8L85,34.1L85,34.1z M85.1,23.2
			L85.1,23.2l0,6.7l4.1-1.4L85.1,23.2L85.1,23.2z"/>
		<path class="st0" d="M116.3,31.3l-6.4,0.7l-5.7-7.1l-0.1,0l0.8,7.6l-5.1,0.6l-2.1-19.7l7.7-0.8c3.9-0.4,7.1,1.1,7.5,5.3
			c0.3,2.7-1,5.2-3.7,6L116.3,31.3L116.3,31.3z M103.8,21.6l0.5-0.1c1.7-0.2,3.5-0.7,3.3-2.8c-0.2-2.1-2.2-2.3-3.8-2.1l-0.5,0.1
			L103.8,21.6L103.8,21.6z"/>
		<polygon class="st0" points="122.4,27.6 128.5,28.1 128.2,32.4 116.9,31.7 118.3,11.9 123.4,12.2 122.4,27.6 		"/>
		<polygon class="st0" points="137,34.4 132,33.3 135.5,18.2 131.3,17.3 132.3,13 145.6,16.1 144.6,20.3 140.5,19.4 137,34.4 		"/>
		<path class="st0" d="M165.5,35c-2.7,5.8-8.8,7.9-14.6,5.2c-5.8-2.7-8-8.8-5.3-14.6c2.6-5.4,9.1-7,14.3-4.6
			C165.1,23.5,168.1,29.6,165.5,35L165.5,35z M150.5,28c-1.5,3.1-0.2,6.4,2.5,7.7c2.8,1.3,6.1,0.1,7.6-3c1.2-2.5-0.1-5.8-2.8-7.1
			C155,24.3,151.7,25.5,150.5,28L150.5,28z"/>
		<polygon class="st0" points="174.9,30 178.8,33.3 178.1,48.7 178.2,48.7 186,39.5 190,42.8 177.1,57.9 173.2,54.6 173.9,39.2 
			173.8,39.2 165.9,48.4 162,45.1 174.9,30 		"/>
		<path class="st0" d="M61,198.1l-3,2.2l-4.7-2.8l16.8-13l4.8,2.9L71,208.3l-4.7-2.9l0.7-3.6L61,198.1L61,198.1z M69.4,191.2
			L69.4,191.2l-5.1,4.3l3.7,2.2L69.4,191.2L69.4,191.2z"/>
		<polygon class="st0" points="79.4,211.3 74.6,209.4 80.5,195 76.5,193.4 78.2,189.4 90.8,194.5 89.2,198.6 85.2,197 79.4,211.3 		
			"/>
		<polygon class="st0" points="102.2,204.8 103.6,197.3 108.7,198.3 104.9,217.7 99.8,216.8 101.4,208.8 94.1,207.3 92.5,215.3 
			87.5,214.3 91.3,194.9 96.3,195.9 94.9,203.4 102.2,204.8 		"/>
		<polygon class="st0" points="115.7,213.6 121.9,213.6 121.9,218 110.5,217.9 110.7,198.1 115.8,198.1 115.7,213.6 		"/>
		<polygon class="st0" points="128.3,201.6 128.8,204.9 134.6,204.1 135.2,208.4 129.4,209.2 129.9,212.6 136,211.8 136.6,216.1 
			125.4,217.7 122.6,198 133.8,196.4 134.4,200.8 128.3,201.6 		"/>
		<polygon class="st0" points="149.2,212.6 144.2,214.1 139.7,199.3 135.6,200.6 134.3,196.4 147.4,192.4 148.7,196.6 144.6,197.8 
			149.2,212.6 		"/>
		<polygon class="st0" points="161,207.8 156.3,209.9 148.2,191.8 152.9,189.7 161,207.8 		"/>
		<path class="st0" d="M170.6,186.9c-1.7-0.6-3.5-0.4-5,0.6c-2.7,1.7-3.2,4.9-1.5,7.5c1.7,2.6,4.7,3.4,7.4,1.7
			c1.4-0.9,2.4-2.5,2.6-4.2l3.3,5.2c-1.2,1.4-2,2.4-3.3,3.2c-2.3,1.5-5.1,2-7.9,1.5c-2.9-0.5-5.1-2.1-6.7-4.6c-1.5-2.3-2-5-1.4-7.7
			c0.6-2.7,2.3-5.3,4.7-6.8c1.4-0.9,2.9-1.4,4.5-1.7L170.6,186.9L170.6,186.9z"/>
	</g>
</g>
</svg>
