<svg version="1.1" id="Layer_1" xmlns="http://www.w3.org/2000/svg" x="0" y="0" viewBox="0 0 231.8 231.8" style="enable-background:new 0 0 231.8 231.8" xml:space="preserve"><style>.st0{fill:#fff}.st8{opacity:.45;fill:#932923}</style><path class="st0" d="M0 115.9C0 51.9 51.9 0 115.9 0s115.9 51.9 115.9 115.9-51.9 115.9-115.9 115.9S0 179.9 0 115.9z"/><path d="M4.4 115.9C4.4 54.3 54.3 4.4 115.9 4.4s111.5 49.9 111.5 111.5-49.9 111.5-111.5 111.5S4.4 177.5 4.4 115.9z" style="fill:#231f20"/><linearGradient id="SVGID_1_" gradientUnits="userSpaceOnUse" x1="693.927" y1="339.79" x2="763.214" y2="571.357" gradientTransform="scale(-1) rotate(2.648 12868.48 -18153.127)"><stop offset=".005" style="stop-color:#cecfd1"/><stop offset=".237" style="stop-color:#231f20"/></linearGradient><path d="M224.5 120.9c-2.8 60-53.7 106.4-113.7 103.6-60-2.8-106.4-53.7-103.6-113.7C10 50.9 60.9 4.5 120.9 7.3c60 2.7 106.4 53.6 103.6 113.6z" style="opacity:.57;fill:url(#SVGID_1_)"/><linearGradient id="SVGID_2_" gradientUnits="userSpaceOnUse" x1="81.789" y1="-4.345" x2="133.645" y2="168.962"><stop offset="0" style="stop-color:#fff"/><stop offset=".269" style="stop-color:#231f20"/></linearGradient><path d="M7.1 115.9C7.1 55.8 55.8 7.1 115.9 7.1c60.1 0 108.8 48.7 108.8 108.8 0 60.1-217.6 60.1-217.6 0z" style="opacity:.66;fill:url(#SVGID_2_)"/><path class="st0" d="M38.4 115.9c0-42.8 34.7-77.5 77.5-77.5s77.5 34.7 77.5 77.5-34.7 77.5-77.5 77.5-77.5-34.7-77.5-77.5z"/><path d="M43 115.9C43 75.6 75.6 43 115.9 43c40.3 0 72.9 32.6 72.9 72.9 0 40.3-32.6 72.9-72.9 72.9-40.3 0-72.9-32.6-72.9-72.9z" style="fill:#be1e2d"/><path d="M45.4 115.9c0-38.9 31.6-70.5 70.5-70.5s70.5 31.6 70.5 70.5-31.6 70.5-70.5 70.5-70.5-31.6-70.5-70.5z" style="fill:#ec1c24"/><linearGradient id="SVGID_3_" gradientUnits="userSpaceOnUse" x1="110.951" y1="79.775" x2="123.501" y2="178.247"><stop offset="0" style="stop-color:#ec1c24"/><stop offset=".554" style="stop-color:#ce2e2c"/><stop offset="1" style="stop-color:#a82b27"/></linearGradient><path d="M173.2 75.6c8.1 11.5 12.9 25.5 12.9 40.6 0 38.9-31.5 70.5-70.5 70.5-38.9 0-70.5-31.6-70.5-70.5 0-11.5 2.7-22.3 7.6-31.9" style="fill:url(#SVGID_3_)"/><linearGradient id="SVGID_4_" gradientUnits="userSpaceOnUse" x1="109.913" y1="53.532" x2="117.522" y2="120.498"><stop offset="0" style="stop-color:#f1b8a4"/><stop offset=".575" style="stop-color:#da2128"/><stop offset=".989" style="stop-color:#ec1c24"/></linearGradient><path d="M46.5 105s29.1-21 63.7-6.2 74.2 1.2 74.2 1.2-14-55.5-68.6-54c.1 0-54.7-3.1-69.3 59z" style="opacity:.41;fill:url(#SVGID_4_)"/><path class="st8" d="M106.6 162.3c.5.4.6 1 .6 1.3.2 1.5-.8 2.8-1.1 4.4-.4 1.8.3 3.3 1 4.9.5 1.2 1.4 2 2.4 2.8 2.5 2 5.7 2.5 8.8 1.3 3-1.2 4.7-3.9 5.4-7 .5-2.1-.9-3.7-1.2-5.7 0-.1.3-.5.4-.4 7.5 3.2 13.9 8 20.4 13.3.5.4.9 1.3 1.7.8 10-5.3 18-12.1 24.6-21.8.3-.4-.1-.8-.5-1-8.8-3.3-17.5-5.4-27-7.2-6.2-1.2-12-1-18.1-2.5-.6-.1-1-1-1.3-1.1-6.2-.4-12.5-.6-18.7.1-.8 1.8-1.2 3.7.1 5.5.4.6.1 1.5-.3 2.3-.4.9-.2 1.9.5 2.8.7.9 2 1.4 1.4 2.6-.5 1-.9 1.8-.7 2.9.2 1 .9 1.3 1.6 1.7z"/><path class="st0" d="M108.4 160.5c.5.4.6 1 .6 1.3.2 1.5-.8 2.8-1.1 4.4-.4 1.8.3 3.3 1 4.9.5 1.2 1.4 2 2.4 2.8 2.5 2 5.7 2.5 8.8 1.3 3-1.2 4.7-3.9 5.4-7 .5-2.1-.9-3.7-1.2-5.7 0-.1.3-.5.4-.4 7.5 3.2 13.9 8 20.4 13.3.5.4.9 1.3 1.7.8 10-5.3 18-12.1 24.6-21.8.3-.4-.1-.8-.5-1-8.8-3.3-17.5-5.4-27-7.2-6.2-1.2-12-1-18.1-2.5-.6-.1-1-1-1.3-1.1-6.2-.4-12.5-.6-18.7.1-.8 1.8-1.2 3.7.1 5.5.4.6.1 1.5-.3 2.3-.4.9-.2 1.9.5 2.8.7.9 2 1.4 1.4 2.6-.5 1-.9 1.8-.7 2.9.2 1 .9 1.3 1.6 1.7z"/><path class="st8" d="M103.9 136.8c-4.1.2-9 1-11.8-2.7-1.1-1.5-.9-4.1-3-4.8-2-.6-3.9.2-4.8 2-.9 1.7-.9 3.6-.2 5.4.8 2.2 2.9 3.9 5.1 4.2 16.9 1.9 33.3-1.2 50.3 1.4 3.1.5 7.1 6 10.2 2.5.7-5.3-5.4-7.3-9.6-8-5.9-1-11.6.2-17.4-.6-1.2-21-.1-42-1-63.1-.3-7.6-3.1-15.2-8.1-21.3-3.9 5.5-6.4 11.9-6.9 18.5-1.8 22 .1 43.8-1.6 65.9 0 .2-.7.5-1.2.6z"/><path class="st0" d="M105.8 135.9c-4.1.2-9 1-11.8-2.7-1.1-1.5-.9-4.1-3-4.8-2-.6-3.9.2-4.8 2-.9 1.7-.9 3.6-.2 5.4.8 2.2 2.9 3.9 5.1 4.2 16.9 1.9 33.3-1.2 50.3 1.4 3.1.5 7.1 6 10.2 2.5.7-5.3-5.4-7.3-9.6-8-5.9-1-11.6.2-17.4-.6-1.2-21-.1-42-1-63.1-.3-7.6-3.1-15.2-8.1-21.3-3.9 5.5-6.4 11.9-6.9 18.5-1.8 22 .1 43.8-1.6 65.9-.1.2-.8.5-1.2.6z"/><linearGradient id="SVGID_5_" gradientUnits="userSpaceOnUse" x1="117.948" y1="158.121" x2="104.159" y2="161.255"><stop offset=".032" style="stop-color:#fff"/><stop offset=".989" style="stop-color:#6d6e70"/></linearGradient><path d="M123.8 143.6s-14.2-1.1-17.6.2c0 0-.7 1.4-.4 2.9 0 0 1.1 1.4.9 2.2-.2.8-1.3 3.1-.1 4.2 1.1 1.1 1.9 1.8 1.4 3.2-.5 1.4-1.6 2.4.5 3.8s1.1 2.8 1 3.5c-.2.7-1.4 2.3-1.1 4.8.3 2.5 3.5 6 6.3 6.7 2.8.7 7-.9 8-2.5 1-1.7 2.3-3 2.3-5.4" style="opacity:.5;fill:url(#SVGID_5_)"/><linearGradient id="SVGID_6_" gradientUnits="userSpaceOnUse" x1="109.285" y1="94.259" x2="118.409" y2="94.134"><stop offset=".032" style="stop-color:#fff"/><stop offset=".989" style="stop-color:#6d6e70"/></linearGradient><path d="m107.7 135.5 7.8-.2V53s-5.5 5.8-6.1 15.8" style="opacity:.38;fill:url(#SVGID_6_)"/><path class="st0" d="M53.4 41.7c-1.7-.3-3.5.4-4.7 1.7-2.2 2.2-2 5.5.2 7.6 2.2 2.2 5.3 2.3 7.6 0 1.2-1.2 1.8-3 1.6-4.6l4.4 4.4c-.8 1.6-1.4 2.7-2.6 3.9-1.9 2-4.6 3.1-7.3 3.2-2.9.2-5.5-1-7.6-3-1.9-1.9-3-4.5-3.1-7.2 0-2.8 1.1-5.6 3-7.6 1.2-1.2 2.5-2 4-2.6l4.5 4.2zM68.4 32.4 64.3 26l4.3-2.8 10.7 16.7-4.4 2.8-4.3-6.9-6.3 4 4.4 6.9-4.4 2.8-10.7-16.7L58 30l4.1 6.4 6.3-4zM85 34.1l-.2 3.7-5.2 1.8.8-21.2 5.3-1.8L99.2 33 94 34.6l-2.3-2.8-6.7 2.3zm.1-10.9v6.7l4.1-1.4-4.1-5.3zM116.3 31.3l-6.4.7-5.7-7.1h-.1l.8 7.6-5.1.6-2.1-19.7 7.7-.8c3.9-.4 7.1 1.1 7.5 5.3.3 2.7-1 5.2-3.7 6l7.1 7.4zm-12.5-9.7.5-.1c1.7-.2 3.5-.7 3.3-2.8-.2-2.1-2.2-2.3-3.8-2.1l-.5.1.5 4.9zM122.4 27.6l6.1.5-.3 4.3-11.3-.7 1.4-19.8 5.1.3-1 15.4zM137 34.4l-5-1.1 3.5-15.1-4.2-.9 1-4.3 13.3 3.1-1 4.2-4.1-.9-3.5 15zM165.5 35c-2.7 5.8-8.8 7.9-14.6 5.2-5.8-2.7-8-8.8-5.3-14.6 2.6-5.4 9.1-7 14.3-4.6 5.2 2.5 8.2 8.6 5.6 14zm-15-7c-1.5 3.1-.2 6.4 2.5 7.7 2.8 1.3 6.1.1 7.6-3 1.2-2.5-.1-5.8-2.8-7.1-2.8-1.3-6.1-.1-7.3 2.4zM174.9 30l3.9 3.3-.7 15.4h.1l7.8-9.2 4 3.3-12.9 15.1-3.9-3.3.7-15.4h-.1l-7.9 9.2-3.9-3.3L174.9 30zM61 198.1l-3 2.2-4.7-2.8 16.8-13 4.8 2.9-3.9 20.9-4.7-2.9.7-3.6-6-3.7zm8.4-6.9-5.1 4.3 3.7 2.2 1.4-6.5zM79.4 211.3l-4.8-1.9 5.9-14.4-4-1.6 1.7-4 12.6 5.1-1.6 4.1-4-1.6-5.8 14.3zM102.2 204.8l1.4-7.5 5.1 1-3.8 19.4-5.1-.9 1.6-8-7.3-1.5-1.6 8-5-1 3.8-19.4 5 1-1.4 7.5 7.3 1.4zM115.7 213.6h6.2v4.4l-11.4-.1.2-19.8h5.1l-.1 15.5zM128.3 201.6l.5 3.3 5.8-.8.6 4.3-5.8.8.5 3.4 6.1-.8.6 4.3-11.2 1.6-2.8-19.7 11.2-1.6.6 4.4-6.1.8zM149.2 212.6l-5 1.5-4.5-14.8-4.1 1.3-1.3-4.2 13.1-4 1.3 4.2-4.1 1.2 4.6 14.8zM161 207.8l-4.7 2.1-8.1-18.1 4.7-2.1 8.1 18.1zM170.6 186.9c-1.7-.6-3.5-.4-5 .6-2.7 1.7-3.2 4.9-1.5 7.5 1.7 2.6 4.7 3.4 7.4 1.7 1.4-.9 2.4-2.5 2.6-4.2l3.3 5.2c-1.2 1.4-2 2.4-3.3 3.2-2.3 1.5-5.1 2-7.9 1.5-2.9-.5-5.1-2.1-6.7-4.6-1.5-2.3-2-5-1.4-7.7.6-2.7 2.3-5.3 4.7-6.8 1.4-.9 2.9-1.4 4.5-1.7l3.3 5.3z"/></svg>