<svg version="1.1" id="Chelsea" xmlns="http://www.w3.org/2000/svg" x="0" y="0" viewBox="0 0 1860 1860" style="enable-background:new 0 0 1860 1860" xml:space="preserve"><style>.st0{fill:#dea600}.st1{fill:#153d8a}.st2{fill:#fff}.st4{fill:#e30613}</style><path class="st0" d="M1860 930c0 513.6-416.4 930-930 930S0 1443.6 0 930 416.4 0 930 0s930 416.4 930 930z"/><path class="st1" d="M1829 930c0 496.5-402.5 899-899 899S31 1426.5 31 930 433.5 31 930 31s899 402.5 899 899z"/><path class="st0" d="M1570.7 930c0 353.8-286.8 640.6-640.7 640.6-353.8 0-640.7-286.8-640.7-640.6 0-353.9 286.8-640.7 640.7-640.7 353.9 0 640.7 286.9 640.7 640.7z"/><path class="st2" d="M1551.3 930c0 343.1-278.1 621.3-621.3 621.3-343.1 0-621.3-278.1-621.3-621.3 0-343.1 278.1-621.3 621.3-621.3 343.1.1 621.3 278.2 621.3 621.3z"/><path class="st0" d="M397.7 1466c6.9 6.6 23.8 22.6 23.8 22.6l16.2-17.1-48.4-46.1-6.2 6.5-64.9 68.1 24.6 23.5s20.9-21.9 28.5-29.8c6.4 6.1 21.6 20.6 21.6 20.6l16.2-17s-15.3-14.6-21.6-20.6l10.2-10.7zM514.3 1543.7c-2.2-13.1-9.5-24.6-20.6-32.5-11-7.8-24.3-11-37.3-8.8-14.1 2.4-26.7 10.6-35.6 23-8.9 12.5-12.5 27.1-10.1 41.2 2.2 13 9.5 24.5 20.5 32.4 11.1 7.9 24.4 11 37.5 8.8 14.1-2.4 26.7-10.6 35.6-23 7.1-10 10.8-21.3 10.8-32.6-.1-2.8-.3-5.7-.8-8.5zm-69.4 36.2c-11.3-8-2-24.7 4.6-34 6.6-9.2 19.3-23.6 30.6-15.5 11.8 8.4.8 26.6-4.5 34.1-5.4 7.4-18.9 23.8-30.7 15.4zM590.3 1569.5c-26-13.2-56.1-2.4-70 25-6.9 13.7-8.3 28.7-3.8 42.3 4.1 12.5 13.1 22.8 25.2 28.9 12.1 6.2 25.8 7.3 38.3 3.1 13.5-4.4 24.8-14.4 31.7-28.1 13.9-27.4 4.7-58-21.4-71.2zm-28.8 76.2c-3 1-6 .7-9.2-.9-5.2-2.6-7-7.3-7-12.6 0-7.3 3.5-15.8 6.5-21.7 5.1-10.1 15.5-26.2 27.9-19.9 3.3 1.7 5.2 3.8 6.2 6.9 2 6.2 0 16.5-5.6 27.5-5.5 10.9-12.5 18.6-18.8 20.7zM644 1607.2l-4.8 13.7s12.3 4.3 16 5.6c-4.7 13.4-26.3 75.1-26.3 75.1l32.1 11.3s21.6-61.7 26.3-75c3.7 1.3 16 5.6 16 5.6l7.8-22.2-64.1-22.5-3 8.4zM777.3 1637l-43.4-9.1-1.8 8.8-19.4 92.1 44.1 9.3c14.1 3 23.4-.5 28.7-4 6.7-4.4 11.4-11.5 13.2-20.1.5-2.3.7-4.6.7-6.9 0-6.2-2-11.8-5.5-16.6 5-3.9 8.5-9.5 10-16.5.4-1.8.6-3.8.6-5.9 0-11.9-6.7-26.8-27.2-31.1zm-12 70.2c-.4 2.1-1.3 4.9-2.9 5.9-1.5 1-4.3 1.1-8 .3 0 0-1.7-.4-3.6-.8 1.4-6.6 2.3-11.1 3.7-17.7 1.9.4 4.3.9 4.3.9 5.7 1.2 6.8 5.4 6.8 8.5 0 1.3-.1 2.3-.3 2.9zm-3-49.2c3.8.9 6.6 2.3 7.7 3.9.5.8.7 1.8.7 3 0 .8-.1 1.7-.3 2.7-.6 2.7-1.4 6.5-8.9 4.9 0 0-.9-.2-2.2-.5 1.3-5.6 1.8-8.4 3-14zM857.3 1652l-47.1 96.4 26.9 2s7.3-15.3 10.2-21.5c5.7.4 11.4.9 17 1.3 2.1 6.4 7.3 22.8 7.3 22.8l35.8 2.8-40-124-10.1 20.2zM963.5 1729c-.6-14.1-3.3-78.3-3.3-78.3l-9 .4-25 1.1 4.3 103 68.1-2.9-1-24.7c0-.1-24.4 1-34.1 1.4zM1056.7 1719.1c-2.2-13.9-12.1-77.4-12.1-77.4l-8.9 1.4-24.7 3.9 16 101.9 67.3-10.6-3.8-24.4c-.1-.1-24.2 3.7-33.8 5.2zM1251.7 1650.5c-.3 8.9-5.5 16.5-13.6 19.7-4.5 1.8-8.8 1.8-13 0-6.6-2.8-12.8-10-16.4-19.2-4.3-10.9-5.2-20-2.4-26.5 2-4.6 5.8-7.9 11.6-10.3 6.3-2.5 12.4-.2 20.6 4.7l7.5 4.4 12.5-19.8-7.4-4.9c-13.7-9-30.6-10.8-45.3-5-13.6 5.4-24.2 15.5-29.7 28.5-5.6 13.2-5.6 28.3.1 42.5 10.8 27.1 41.4 40.4 68.2 29.7 19.3-7.7 30.3-22.4 31.6-42.4l.6-9-24.6-1.8-.3 9.4zM1331 1622.4c-6.9-12.3-38.2-68.4-38.2-68.4l-7.9 4.4-21.8 12.2 50.3 90 59.5-33.2-12.1-21.6s-21.3 11.8-29.8 16.6zM1397.1 1483.7l-7.3 5.3-12.8 9.4 41.7 56.9c1.9 2.6 1.9 4.3 1.8 5.3-.4 3-3.5 6.1-6.2 8.1-1.3.9-4.2 2.1-7.3 1.7-2.1-.3-3.9-1.5-5.4-3.5l-41.3-56.3-27.4 20.1 41 56c6.1 8.3 13.7 13.2 22.5 14.5 9.9 1.5 21.2-1.8 31.6-9.5 21.5-15.7 21.2-36.7 11.8-49.5l-42.7-58.5zM1522.4 1463c-6.3-6.6-14.1-9.5-22.3-9.1-.5-6.4-2.9-12.5-7.9-17.6-8.6-8.9-27.8-15.8-45.5 1.4l-31.8 30.8 71.7 74 32.4-31.4c10.3-10 12.6-19.7 12.7-26 .1-7.9-3.2-15.8-9.3-22.1zm-54.2-2.5c1.1 1.1 2.3 2.4 2.3 4.3 0 1.5-.8 3.4-3.3 5.7l-1.6 1.6c-4-4.1-5.9-6.1-10-10.3 7.3-6.5 10.3-3.7 12.6-1.3zm17 25.5c5.8-5.6 11.4-.7 13 1 1.5 1.5 3.3 3.8 3.3 5.7 0 1.8-1.5 4.2-4.2 6.8 0 0-1.2 1.2-2.7 2.6-4.7-4.9-7.9-8.1-12.6-13 1.4-1.4 3.2-3.1 3.2-3.1z"/><path class="st2" d="M397.5 1456.4c2.8 2.7 23.7 22.6 23.7 22.6l6.9-7.2-38.6-36.8-1.6 1.6-60.2 63.2 14.8 14.2s25.7-26.9 28.4-29.8c2.8 2.6 21.7 20.7 21.7 20.7l6.9-7.3s-18.9-18-21.7-20.6c2.6-2.7 17.2-18 19.7-20.6zM489.8 1516.8c-9.6-6.8-21-9.5-32.3-7.6-12.3 2.1-23.4 9.3-31.2 20.3-7.8 11-11 23.9-8.9 36.1 1.9 11.3 8.2 21.2 17.8 28 9.6 6.8 21.1 9.5 32.4 7.7 12.3-2.1 23.3-9.3 31.2-20.3 6.2-8.8 9.5-18.8 9.5-28.7 0-2.5-.2-5-.6-7.4-2-11.3-8.3-21.3-17.9-28.1zm-8.8 51.6c-6.5 9.1-23.3 28.9-40.1 17-16.7-11.9-3.4-34.3 3-43.4 6.5-9.1 23.3-28.9 40-17.1 16.8 12 3.6 34.4-2.9 43.5zM587.3 1575.6c-22.6-11.4-48.8-1.9-60.9 22.1-6.1 12.1-7.3 25.2-3.4 37.1 3.6 10.8 11.3 19.7 21.8 25 10.5 5.3 22.3 6.3 33.2 2.7 11.8-3.9 21.7-12.7 27.8-24.7 12-24.1 4.1-50.8-18.5-62.2zm-38.1 75.1c-18.3-9.2-8.5-33.4-3.5-43.3 5-10 18.7-32.1 37-22.9 4.8 2.4 8.1 6.1 9.6 10.8 3.6 11-2.2 25.1-6 32.6s-11.8 20.6-22.7 24.2c-4.7 1.6-9.5 1.1-14.4-1.4zM650.4 1609.4l-2.6 7.3s12.8 4.5 16 5.6l-26.3 75.1 19.4 6.8s24.9-71 26.3-75c3.2 1.1 16 5.6 16 5.6l3.3-9.4-51.3-18-.8 2zM775.9 1643.6l-36.7-7.8-.5 2.2-18 85.4 37.5 7.9c9.5 2 17.4 1 23.6-3 5.3-3.5 8.9-9 10.3-15.9.4-1.8.6-3.6.6-5.4 0-7.5-3.7-13.8-10.3-18.3 7.7-2.2 13.2-7.9 14.9-16.2.3-1.3.5-2.9.5-4.6 0-8.5-4.5-20.6-21.9-24.3zm-12.9 7.5c6.2 1.3 10.5 3.7 12.7 7.1 1.2 1.9 1.8 4.1 1.8 6.7 0 1.3-.1 2.6-.5 4.1-2.4 11.4-11.6 11.2-16.8 10.1 0 0-5.6-1.2-8.8-1.8.7-3.6 5-23.8 5.8-27.3 2.3.4 5.8 1.1 5.8 1.1zm-2.8 38.2c10.4 2.2 12.1 10.4 12.1 15.4 0 2.2-.3 3.7-.4 3.9-1.1 5-3 8.3-5.8 10.2-3.1 2-7.5 2.4-13 1.3 0 0-6.7-1.4-10.3-2.1.8-3.6 5.8-27.3 6.5-30.9 3.1.5 10.9 2.2 10.9 2.2zM863.4 1655l-42.7 87.5 12.3.9s9.1-19 10.2-21.5c2.6.2 23.6 1.8 26.1 2l7.3 22.8 21.2 1.6-31.8-98.4-2.6 5.1zm-4.7 35.1c2.1 6.6 6 19.3 7.3 23.5-4.2-.3-13.9-1.1-18.1-1.4 1.9-3.9 7.8-15.9 10.8-22.1zM957 1736c-.2-4.3-3.3-78.3-3.3-78.3l-2.2.1-18.3.8 3.7 89.5 54.6-2.3-.5-11.2c.1 0-30.1 1.3-34 1.4zM1051.1 1726.8c-.7-4.2-12.1-77.4-12.1-77.4l-2.2.3-18 2.9 13.9 88.4 54-8.5-1.7-11.1c-.2.1-30.1 4.8-33.9 5.4zM1258.4 1650.7c-.3 11.6-7.2 21.5-17.9 25.8-6.2 2.5-12.3 2.4-18.2-.1-8.4-3.6-15.7-11.9-20-22.9-5-12.6-5.8-23.5-2.3-31.7 2.7-6.2 7.8-10.9 15.3-13.9 9.8-3.9 18.9.6 26.5 5.1l1.9 1.1 5.5-8.6-1.8-1.2c-11.9-7.8-26.5-9.4-39.1-4.4-11.9 4.8-21.2 13.6-26 24.9-4.9 11.5-4.9 24.8.1 37.3 9.4 23.6 36.1 35.2 59.4 25.9 16.9-6.8 26.2-19.1 27.4-36.6l.2-2.2-10.9-.8-.1 2.3zM1328.4 1631.6c-2.1-3.7-38.2-68.4-38.2-68.4l-2 1.1-15.9 8.9 43.7 78.2 47.7-26.6-5.5-9.8s-26.4 14.7-29.8 16.6zM1395.7 1493.1l-1.8 1.3-7.3 5.3 37.7 51.4c2.5 3.4 3.5 6.9 3 10.3-.9 6.1-6.5 10.8-8.9 12.5-2.7 2-7.5 3.7-12.3 2.9-4-.6-7.2-2.7-9.8-6.2L1359 1520l-16.6 12.1 37.1 50.5c5 6.8 11.1 10.8 18 11.8 11 1.7 21.4-4.5 26.6-8.3 17.9-13.1 18.1-29.6 10.4-40l-38.8-53zM1517.5 1467.7c-6.9-7.2-15.8-8.8-25-5.2.7-2.2 1.2-4.4 1.2-6.5 0-5.4-2.1-10.5-6.4-14.9-5.8-6-20.7-13.3-36 1.5l-27 26.2 62.3 64.3 27.5-26.7c7-6.7 10.6-13.9 10.7-21.2.2-6.4-2.3-12.4-7.3-17.5zm-40.2-2.8c0 4.5-2.9 8.2-5.3 10.5 0 0-4.1 4-6.5 6.3-2.5-2.6-16.9-17.4-19.4-20.1 1.7-1.6 4.3-4.2 4.3-4.2 8.4-8.2 15.8-8.7 22.6-1.7 3.2 3.3 4.3 6.4 4.3 9.2zm17.2 46.7c-2.6-2.6-19.4-20-22-22.7 2.2-2.2 8-7.8 8-7.8 11-10.6 22.1.6 22.6 1.1 3.5 3.6 5.2 7 5.2 10.4v.1c-.1 3.7-2.2 7.5-6.2 11.5-.1.1-5.4 5.3-7.6 7.4z"/><path class="st0" d="m516.8 317.3-37.6 10.2 4.3 13.5c5.2 16.3.5 33.4-12.2 44.6-7.1 6.2-15.3 9-24.3 8.4-13.7-.9-29.1-9.8-41.3-23.7-14.4-16.4-21.5-32.3-20.6-45.7.6-9.8 5.4-18.4 14.5-26.4 10.1-8.8 22.9-8.5 40.2-5l12.8 2.5 8.3-36-12.9-3.2c-27.8-6.9-56.9-.1-77.6 18-40.6 35.5-43.9 93.5-7.7 134.9 33.6 38.5 92 42.7 130 9.4 27.4-23.9 36.9-54.5 27.6-88.4l-3.5-13.1zM618.9 128.8l-38.4 18.1 28.8 61.1c-11 5.2-21.6 10.2-32.5 15.3-7.4-15.6-28.8-61.1-28.8-61.1l-50.6 23.9 77 163.3 50.6-23.9s-23.8-50.5-31.5-66.9c11-5.2 21.6-10.2 32.5-15.3 7.7 16.3 31.5 66.9 31.5 66.9l50.6-23.9-77-163.3-12.2 5.8zM790.1 230c-2.5-12.2-4.9-24.5-7.4-36.7 15.6-3.2 57.1-11.5 57.1-11.5l-7.3-36.3s-41.5 8.4-57.1 11.5c-2.3-11.1-4.1-20.4-6.4-31.5 16.2-3.3 60.6-12.3 60.6-12.3L822.3 77 809 79.6l-102.2 20.7 35.7 177L859 253.8l-7.3-36.3c-.1 0-45.3 9.1-61.6 12.5zM955.2 72.8l-55.9-1.2-.3 13.5-3.5 167 117.5 2.4.8-39.1s-45.1-1-61.6-1.3c.5-22 3-141.3 3-141.3zM1136.6 163.8c-14.5-10.7-18.8-14.9-17.3-20.8.7-3 4-12.7 14.4-10.1 6.3 1.6 12.5 4.9 15.3 18.4l3.1 15 37-12.5-2.3-11.7c-4.5-22.9-23.9-42.3-48.1-48.4-17.4-4.3-34.8-2-49.1 6.6-13.1 7.9-22.4 20.3-26 35-9.3 37 15.7 54.8 32.2 66.6 16.9 12.1 21.2 16.8 18.6 26.9-.8 3.2-2.7 5.7-5.6 7.4-3.4 2-7.6 2.7-11.1 1.8-8.8-2.2-12.7-6.4-16.5-17.9l-4.5-13.8-37.1 15.2 3.6 11.8c6.9 22.9 23.5 37.3 50.7 44.1 30.5 7.6 67.6-6.4 76.7-43.1 9.7-38.4-16.6-57.7-34-70.5zM1270.2 260.2c14.2 7.2 52 26.3 52 26.3l16.7-33s-37.8-19.1-52-26.3c5.1-10.1 9.4-18.6 14.5-28.7 14.7 7.5 55.2 27.9 55.2 27.9l16.7-33-105.1-53.1-6.1 12.1-75.4 149.1 106 53.5 16.7-33s-41.2-20.8-56-28.3c5.5-11.2 11.2-22.5 16.8-33.5zM1479.5 277 1311 364.2l32.2 28s27.8-14.8 37.9-20.1c7.5 6.5 18.6 16.2 26 22.6-3.6 10.7-13.9 41-13.9 41l44.4 38.6 72-212.4-30.1 15.1z"/><path class="st2" d="m510.5 328.3-19.8 5.4 1.4 4.5c6.3 19.8.6 40.6-14.9 54.1-8.9 7.8-19.3 11.4-30.8 10.6-16.3-1.1-33.6-10.9-47.5-26.8-16-18.3-23.9-36.3-22.8-52.3.8-12.1 6.7-23 17.6-32.5 14.3-12.5 32.2-10.2 47.9-7.1l4.3.8 4.4-18.8-4.3-1.1c-25-6.2-51-.1-69.5 16.1-36.7 32.1-39.6 84.6-6.8 122.1 30.4 34.7 83 38.5 117.3 8.5 24.9-21.8 33.3-48.5 24.8-79.2l-1.3-4.3zM622.7 136.9l-30.2 14.3s25.4 54 28.8 61.1c-6.5 3.1-42.4 20-48.9 23-3.3-7.1-28.8-61.1-28.8-61.1l-34.3 16.2 69.3 147 34.3-16.2s-28.1-59.7-31.5-66.9c6.5-3.1 42.4-20 48.9-23 3.4 7.2 31.5 66.9 31.5 66.9l34.3-16.2-69.3-147-4.1 1.9zM783 240.6c-1.4-7.1-9.5-47.3-11-54.4 7.5-1.5 57.1-11.5 57.1-11.5l-3.7-18.6s-49.6 10-57.1 11.5c-1.4-6.9-8.5-42.3-9.9-49.2 7.6-1.5 60.6-12.2 60.6-12.2l-3.8-18.6-4.4.9-93.4 18.8 32.2 159.3 98.7-19.9-3.7-18.6s-54 10.9-61.6 12.5zM946 81.6l-37.9-.8-.1 4.5-3.3 158 99.5 2.1.5-21.1s-53.9-1.1-61.6-1.3c.1-8.4 2.9-141.4 2.9-141.4zM1135.9 124.3c12.1 3 19 11.1 21.9 25.3l1 5 19.8-6.7-.8-3.9c-3.9-19.5-20.5-36.1-41.5-41.4-15-3.8-30.1-1.8-42.3 5.6-11 6.6-18.8 17.1-21.9 29.4-7.8 31 12.5 45.5 28.7 57.1 16.5 11.8 26.3 19.8 22.2 36.5-1.7 6.9-6.2 10.9-9.7 13-5.4 3.2-12.1 4.3-17.9 2.8-11.9-3-18.1-9.4-22.8-23.8l-1.5-4.6-20.5 8.4 1.2 3.9c6 19.6 20.5 32 44.3 38 26.2 6.6 58-5.3 65.8-36.5 8.2-32.7-13.4-48.5-30.7-61.3-14.8-10.9-23.7-18.2-20.7-30.2 2.7-10.8 11.6-20.1 25.4-16.6zM1297.4 186.3c6.9 3.5 55.2 27.9 55.2 27.9l8.6-16.9-89-45-2 4-71.3 141.1 89.9 45.4 8.6-16.9s-49.1-24.8-56-28.3c3.2-6.4 21.7-43 25-49.5 6.8 3.5 52 26.3 52 26.3l8.6-16.9s-45.2-22.8-52-26.3c2.9-6.4 19.2-38.6 22.4-44.9zM1483.6 285 1327 366.1l17.5 15.2s33.2-17.6 37.9-20.1c3.9 3.4 31.4 27.4 35.3 30.7-1.7 5-14 40.9-14 40.9l29.7 25.8 60.5-178.5-10.3 4.9zm-83 66.9c7.4-3.8 26.3-13.7 37.9-19.6-4.3 12.3-11.3 32.5-14.1 40.3-6.1-5.3-17.8-15.5-23.8-20.7z"/><path d="M1374.3 905.6c-12.8-34-57.1-48.8-98.9-33-17.5 6.6-31.7 17.5-41.5 30.5 27.6-78.8 140.1-95.5 140.1-168.8 0-122.9-174.5-88.4-149.1 0 0-40.1 63.9-47.5 63.9 0s-111.4 78.6-111.4 158.9c0 88.5 88.5 96.6 79.5 177.5-1.5 14-16.5 32.3-38.2 32.3-135.5 0-87.2-166.8-134.5-217.6l2.4-34.3c27.4 16.8 100.1-22.5 52.3-82.5 0 29.5-61.4 27.9-61.4-27.8 0-75.4 70.5-36 73.9-19.4-3.4-27.4-4.7-44.9-.1-60.7-38 12.2-41.5-9.7-36.7-18.2 5.5-9.8 12.9-21.3 27.7-21.3 8 0 12.8 1.1 15.7 3.1 4.7 3.3 8.2-4.2 7.5 2.7 4.1-6.2 2.4 1.5 6.4-4.7s9.3-13.1 18.8-22.4l-.4-13.9 11.1 4.1 10.6-17.2c-11.5-23.7-27-12.3-38.5-41.8-9.6-2.5-158.9 13.7-154.5-45.8-12.2 0-41 6.7-23.1 30.9-13.9 1.7-23.9-14.1-44.8 28.5 26.2-4.9 12.6 24.4 12.6 32.7 0 54-71.8 53.1-71.8 27.8-17.3 16.8-7.5 53.6 18.7 62.7 0 0-10 39.4-34.6 64.3-36.5-1.4-95.1-7.8-128.8-39.6-14.5-13.7-26.1-21.2-35.9-25v-17.9c14.4-7 30.2-19.5 46.6-40.3 12.8-15.6 19.7-35.7 17.8-56.9-.2-2.5-.6-5-1.1-7.5-.1-.8-.3-1.5-.5-2.3-.4-1.7-.8-3.4-1.3-5.1-.2-.8-.5-1.7-.7-2.5-.5-1.7-1.2-3.3-1.8-4.9-.3-.7-.5-1.4-.8-2-.9-2.1-1.9-4.2-3-6.3-.4-.8-.9-1.6-1.4-2.4-.7-1.2-1.5-2.5-2.3-3.7-.6-1-1.3-1.9-2-2.9-.7-.9-1.4-1.9-2.1-2.8l-2.4-3c-.6-.6-1.2-1.2-1.8-1.9-2.1-2.3-4.4-4.5-6.8-6.6-.2-.2-.4-.4-.7-.6l-4.2-3.3c-.4-.3-.7-.5-1.1-.8-1.5-1.1-3.1-2.1-4.7-3.1-.1-.1-.2-.1-.3-.2-15.3-9.4-33.9-14.3-53.5-12.8-47.1 3.7-82.2 43.2-78.2 88 3.1 34.9 28.8 62.8 62.3 71.7-11.8 6.6-21.7 10.3-23.9 10.3.4.2.9.5 1.4.9.1.1.3.2.4.3.5.3 1 .6 1.6.9.1.1.3.2.4.2.7.4 1.5.8 2.4 1.2.1.1.3.1.4.2.8.4 1.6.7 2.4 1.1.2.1.5.2.7.3 2.1.8 4.4 1.6 6.9 2.3.3.1.7.2 1 .3 1 .3 2.1.5 3.1.7.4.1.7.1 1.1.2 1.4.3 2.8.5 4.2.7h.3v10.2l-1.5.3c-15.3 2.5-25.3 7.2-29.8 20.9s.1 18.7 7.3 28.3c-6.1 10.8-22 14.9-1.2 38.9-1.5 9 .4 23.4 13.6 27.8 4.3 1.4 7.9 2.2 11.7 2.9V966c-13.1 7-19.6 15.6-23.2 23.7 0 0-10.5-23.4-9.8 22.9 12-9.3 7.2 10.8 7.2 10.8-16.3 21.1 4.4 20 4.4 20 14-14 11.2 6.3 11.2 6.3 0 24.9 10.1 34.6 10.2 34.7v136.8h-11.9l.1 37.8 20.9-.1c-11.7 4.9-19.4 16.4-18.3 29.2 1.4 16.1 16.3 28.1 33.2 26.8 16.9-1.4 29.5-15.5 28.1-31.6-1-11.1-8.3-20.2-18.4-24.4h19.2l-.1-37.7h-11.5v-121.4c2.4 1.2 5 2.2 7.7 2.8 1.1.2 2.2.4 3.4.5.5.1 1 .1 1.5.1-3.1-16 6.4-26.5 6.4-26.5 4.9-7.4 12-13.1 20-17.1 24.1-12.1 57-9 66.8 10.6 62.2-16.4 115.8-79 115.8-79l30.7 52.2c-65 21.7-206.5 144.8-108.3 187.4-.1 12.4-1.7 104.4-60.7 97.1-85-10.5-106.2 24.7-89.9 64.2-7.7 33.4 18 44.9 18 44.9-3.9-19.3 5.4-35.2 40.6-35-.2 35.1 22.5 41.4 22.5 41.4.2-30.1 21.1-41.2 39.6-41.1-.1 24.8 28.7 34.2 28.7 34.2s-7.3-28.5 25.3-34.2c82.4-14.4 5-99.2 130.3-122.5 0 0-62.4-9.4-62.4-43.6 0-31 56.5-52.3 75.9-52.3 39.9 76.2 83.3 76.8 94.6 77.4 17.7 19.7 11.7 86.2-13.7 84.9-93.4-5-89.9 51.8-79.5 63.4-1.2 22.1 15.9 34.8 15.9 34.8 0-23.6 22.5-30.2 51.3-28.7-1.5 28.8 16.9 33.2 16.9 33.2.5-29 22-34 37.3-33.2-1.1 20.4 19.1 26.4 19.1 26.4s-2-25.9 25.2-25.9c51.6 0-23.3-110.6 77.4-220-88.5 40.9-135.6-61.4-135.6-81.1 45.5 53.2 192.9 63.9 192.9-27 0-86.8-95.5-119.2-50.8-152.4 26-19.3 77.1 19.7 47.8 60 42-15.5 65.4-56.1 52.5-90.1zm-565.5 2.7c-33.3 19.6-55.7 44.4-86.1 55.3-4.6 1.6-8.3 2.1-11.5 1.9V796c8.1.8 29 3.6 53.4 13.7 24.2 13.2 24.2 40.5-6.4 47 19.3 37 86.2 18.9 100.8-11.2 7.1-.6 13.5 12.1 19.4 24.2-9.3 4.8-28.6 14.5-69.6 38.6zm373.4-280.9c-3.6 5-7.3 9.9-10.4 14.2 8.4 14.1 24.3 22.9 41.8 21.2 24.1-2.3 41.9-23.7 39.6-47.8-.1-.9-.3-1.7-.4-2.5-2.5 12.5-17.3 23.1-36 24.8-14.3 1.3-27.1-2.8-34.6-9.9z" style="fill:#dadada"/><path id="body" class="st1" d="M643.2 525.4v.1l1.2-2.7c-.4.9-.8 1.7-1.2 2.6zm1.6 710.9s.1 0 .1-.1l-.1.1c0-.1 0-.1 0 0zM643.7 453zM631 1232.1l20.9-.1c-2.5 1.1-4.8 2.5-6.9 4.1 2.1-.8 4.3-1.2 6.6-1.2 10.5 0 18.9 8.5 18.9 18.9 0 10.5-8.5 18.9-18.9 18.9-8.5 0-15.5-5.6-18-13.2v1.7c1.4 16.1 16.3 28.1 33.2 26.7 16.9-1.3 29.5-15.5 28.1-31.6-1-11.1-8.3-20.2-18.4-24.4l19.2-.1-.1-37.7h-11.5v-121.4c-11.2-5.8-17.7-18.5-15.2-31.5 7.2 0 13.6 1.8 17.9 4.8-6.6 14.6 9.9 30.1 9.9 30.1-3.1-16 6.4-26.5 6.4-26.5 4.9-7.4 12-13.1 20-17.2 24.1-12.1 57-9 66.8 10.6 62.3-16.4 115.8-79 115.8-79l30.7 52.1c71.8 0 46.9-53.8 42.2-58.6 16.5 0 39.8 12.2 39.8 39.2 0 66.2-192.4 75.6-192.4 156 0 33.7 33.4 46.6 33.4 46.6 0 73.2-50.3 116.8-84.7 116.8-55 0-97.1-11.1-97.1 48.8h19.2c-18.2 18.2-1.2 44.9-1.2 44.9-3.9-19.2 5.4-35.2 40.5-35H758c-13.9 13.9-5.8 35.1.6 41.4.2-30.1 21-41.2 39.6-41.1h15.9c-4.3 4.3 2.6 24.1 12.8 34.2 0 0-7.3-28.5 25.2-34.2 82.4-14.4 5-99.1 130.3-122.5 0 0-62.4-9.4-62.4-43.6 0-31 56.5-52.3 75.9-52.3 15.3-2.2 29.8-1.6 42.4 1 5 49.2 61.6 46.8 73.9 46.8 47.9 47.9-12.1 124.9-12.1 124.9-73.6 0-102.7 10.2-102.7 53h13.9c-7.8 7.8-3.3 29.4 2 34.8 0-23.6 22.5-30.2 51.3-28.7h15.2c-7.4 7.4-6.1 25.3 1.7 33.2.5-29 22-34 37.3-33.2h12.6c-4.7 4.7 0 19.9 6.5 26.4 0 0-2-25.9 25.2-25.9 51.6 0-23.3-110.6 77.4-220-88.5 40.9-135.6-61.4-135.6-81.1 45.5 53.2 192.9 63.9 192.9-27 0-73.3-68-107.8-62.4-136.7 2-22.1 20.6-39.5 43.3-39.5 24 0 43.4 19.4 43.4 43.4 0 18.3-11.3 33.9-27.2 40.3h.1c-.1 0-.1.1-.1.1 41.9-15.5 65.3-56.1 52.4-90.1-12.8-34-57.1-48.8-98.9-33.1-17.5 6.6-31.7 17.5-41.5 30.5C1234.5 797 1347 780.3 1347 707c0-122.9-174.5-88.5-149.1 0 0-1.3.1-2.6.2-3.9 4.5-50 93.8-60.2 93.8 4.9 0 55.7-114.4 86.6-114.4 161.5 0 77 84.6 96.2 84.6 177.2 0 9.6-5.1 51.2-61.3 51.2-54.2 0-80.3-30.3-95.1-69.9-27.6-53.3-17.5-136.6-48.6-169.9l2.5-34.3c27.4 16.8 100-22.5 52.3-82.5 0 29.5-61.4 27.8-61.4-27.8 0-75.4 70.4-36 73.9-19.4-3.4-27.4-4.7-44.9-.1-60.7-38 12.2-41.5-9.7-36.8-18.2 5.5-9.8 12.9-21.3 27.7-21.3 21.3 0 20 7.8 18.9 18.9 8.2-12.3 10.5-21.6 29.5-40.2l-.4-14 11.1 4.1 10.7-17.2c-11.5-23.8-27-12.3-38.5-41.8-9.6-2.5-135-14.1-130.7-73.6-11.1 0-41.3 38.3-20.9 58.7h-26.1c-13.9 1.7-46.4-8.1-67.3 34.5 51.4-51.4 84.8 71.2-9.9 71.2-14 .1-25.9-5.8-26.8-15.6-9.4 41.4 50.2 54.3 50.2 54.3 0 12.3-29.9 78.8-44.4 93.3 9.8 9.8 12.8 68.9-32.4 68.9 16.3-44.1-31.7-81.5-78.2-106.2-8.4-3.2-16.5-7.1-23.9-11.8-28.6-13.1-51.9-20.4-51.9-20.4V622.4c14.4-7.1 30.2-19.5 46.5-40.4 12.8-15.6 19.7-35.6 17.8-56.9-.2-2.5-.6-5-1.1-7.5-.1-.8-.3-1.5-.5-2.3-.4-1.7-.8-3.4-1.3-5.1-.2-.8-.5-1.6-.8-2.5-.5-1.7-1.2-3.3-1.8-4.9-.3-.7-.5-1.3-.8-2-.9-2.1-2-4.2-3-6.2-.4-.8-.9-1.6-1.4-2.4-.7-1.2-1.5-2.4-2.3-3.6-.6-1-1.3-1.9-2-2.9-.7-.9-1.4-1.9-2.1-2.8l-2.4-3c-.6-.6-1.2-1.3-1.7-1.9-2.2-2.3-4.4-4.5-6.9-6.6-.2-.2-.4-.4-.7-.6l-4.2-3.3c-.4-.3-.8-.6-1.1-.8-1.5-1.1-3.1-2.1-4.7-3.1-.1 0-.2-.1-.3-.2-15.3-9.4-33.9-14.3-53.4-12.8-4.2.3-8.3 1.1-12.4 2-27.1 10.4-46.9 42.2-46.9 79.8 0 35.4 17.5 65.6 42.3 77.7.4.1.7.2 1 .3-11.8 6.6-21.7 10.3-24 10.3.4.2.9.5 1.4.9.1.1.3.1.4.2.5.3 1 .6 1.6.9.1.1.3.2.4.2.7.4 1.5.8 2.4 1.2.1.1.3.1.4.2.7.4 1.5.7 2.4 1 .2.1.5.2.7.3 2.1.8 4.4 1.6 6.9 2.3.3.1.7.2 1 .3 1 .3 2 .5 3.1.7.4.1.7.2 1.1.2 1.4.3 2.8.5 4.2.7.1 0 .2 0 .3.1 9 .8 19.6-1.5 19.6-1.5V649c-1.6 0-15.7-4.6-19.6-8.4l-1.5.3c-15.3 2.5-25.3 7.2-29.8 20.9s.1 18.7 7.3 28.3c-6.1 10.8-22 14.9-1.2 38.9-1.5 9 .4 23.5 13.6 27.8 4.3 1.4 7.9 2.2 11.7 2.9 7.8 0 19.6 6.5 19.6 22.7v154.4c7.1.4 14.8 1.4 21.8 2V769c8.1.8 29 3.6 53.4 13.7.3.1.5.3.7.5v-.1c2.2.3 4.5.7 6.7 1.4 16.3 5 26.4 19.1 22.6 31.6-3.8 12.5-20.1 18.5-36.3 13.6 19.3 37 86.2 18.9 100.8-11.2 7.1-.7 13.4 12.1 19.4 24.1 0 0 16.8 6.4 58.3 6.4 0 0-168.1 107.3-216.7 107.3-20.8 0-66.8 0-66.8 15.7-12.7 0-30.9 21.5-30.9 33.8 12-9.3 21.7-9.3 21.7-9.3 10.2 0 15.9 3 15.9 3-3.7 3.7-20.5 22.6-20.5 37.3 14.1-14 20.2-14 20.2-14s14.7-1.9 19.9 3.4c-3.5 3.5-9.7 16.3-9.7 31.3 0 0 8.7-16.8 19.6-16.8V1202c0 5-22.3 9.7-31.4 9.7m7.1-467.7c-4.1.2-6.1-5.2-6.1-7.2-.1-2 1.5-7.5 5.6-7.6 9.8-.4 29.5 4.4 29.6 6.3 0 2-19.2 8.1-29.1 8.5zm-6.3-26.6c-5.7-.4-7.6-8.1-7.4-10.8.2-2.7 3.2-10.1 8.9-9.6 13.6 1 40 10.5 39.8 13.2-.2 2.7-27.7 8.2-41.3 7.2zm-2.4-34.1c-6.1-1.6-6.5-10.2-5.8-13.1.8-2.9 5.4-10.2 11.5-8.6 14.4 3.8 40.9 19.3 40.2 22.1-.8 2.8-31.4 3.3-45.9-.4zm44.6-96.2c2.5-6 2-14.1.4-21.8h-.8c-17.3 0-31.4-14-31.4-31.4-.3-3 .2-5.8 1.2-8.5v-.1c3.7-13.1 15.8-22.8 30.2-22.8 17.3 0 31.4 14 31.4 31.4.1 20.1-14 38.5-31 53.2z"/><path id="tongue" class="st4" d="M1144.7 614.5c8.4 14.1 24.3 22.9 41.8 21.2 24.1-2.3 41.9-23.7 39.6-47.8-.1-.8-.2-1.7-.4-2.5-2.5 12.5-17.3 23.1-36 24.8-14.2 1.3-27-2.8-34.5-9.9-3.7 5-7.4 10-10.5 14.2z"/><path id="eye" class="st2" d="m1086.1 533.2 15.2.8-7.6 10.4s-10.1 3.2-7.6-11.2zm-36.2 0h21.9s-.8 17.6 15.1 19.2l-3.4 5.6c.1-.1-42.8-11.2-33.6-24.8z"/><path id="highlights" d="M675 683.7c.7-2.8-25.8-18.3-40.2-22.1-6.1-1.6-10.7 5.7-11.5 8.6-.7 2.9-.3 11.5 5.8 13.1 14.5 3.7 45.1 3.2 45.9.4zm-2.2 26.4c.2-2.7-26.2-12.2-39.8-13.2-5.7-.4-8.7 6.9-8.9 9.6-.2 2.7 1.7 10.4 7.4 10.8 13.6 1.1 41.1-4.4 41.3-7.2zm-30-79.7v10.1c3.9 3.9 18 8.4 19.6 8.4v-20.1c0 .1-10.6 2.4-19.6 1.6zm-5.5 98.8c-4.1.1-5.7 5.7-5.6 7.6 0 2 2 7.3 6.1 7.2 9.8-.4 29.1-6.5 29.1-8.5-.1-1.9-19.8-6.6-29.6-6.3zM617 996.5c-16.3 21.1-4.6 40.3-4.6 40.3 0-14.7 16.8-33.6 20.5-37.3 0 .1-5.7-3-15.9-3zm52 44.8c-2.5 13 4 25.7 15.2 31.5 2.4 1.2 5 2.2 7.7 2.8 1.1.2 2.2.4 3.4.5.5 0 1 0 1.5.1 0 0-16.5-15.4-9.9-30.1-4.3-2.9-10.7-4.8-17.9-4.8zm-29.8-430.8c-24.7-12.1-42.3-42.3-42.3-77.7 0-37.6 19.7-69.4 46.9-79.8-40.7 9-69.5 45.2-65.9 86 3 34.6 28.3 62.3 61.3 71.5zm262.2-86.7c26.2-4.9 35.1 18.4 35.1 26.7 0 31.6-24.6 44.4-45 44.5 94.7-.1 61.3-122.6 9.9-71.2zm-63.2 271.9c45.2 0 42.2-59.1 32.4-68.9 14.5-14.5 44.4-81 44.4-93.3 0 0-59.7-12.9-50.2-54.3v-.1l-.8-.1c-16.3 17.2-6.4 53 19.4 61.9 0 0-10 39.4-34.6 64.3-24.5-1-58.8-4.2-88.9-15.7 46.6 24.7 94.6 62.1 78.3 106.2zM661.5 512.1c11.7-.9 22 7.4 23 18.5s-7.7 21-19.4 21.9c-11.7.9-22-7.4-23-18.5 0 17.3 14 31.4 31.4 31.4h.8c1.6 7.7 2.1 15.8-.4 21.8 16.9-14.7 31-33.1 31-53.2 0-17.4-14.1-31.4-31.4-31.4-14.4 0-26.5 9.7-30.2 22.9 2.6-7.3 9.5-12.7 18.2-13.4zm333.3-22.9c-20.4-20.5 9.8-58.7 20.9-58.7-12.2 0-64.8 34.5-47 58.7h26.1zM731.3 829.7c16.3 5 32.5-1.1 36.3-13.6 3.8-12.5-6.3-26.6-22.6-31.6-2.3-.7-4.5-1.1-6.7-1.4 23.5 13.4 23.2 40.2-7 46.6zm-47.1-172.4s23.3 7.4 51.9 20.4c-5.7-3.6-11.1-7.6-16-12.1-14.5-13.7-26.1-21.2-35.9-25v16.7zm8.8 299.1c48.6 0 216.7-107.3 216.7-107.3-41.5 0-58.3-6.4-58.3-6.4-9.4 4.9-28.6 14.5-69.6 38.7-33.3 19.7-55.7 44.5-86.1 55.3-4.6 1.7-8.3 2.1-11.5 1.9-7-.6-14.7-1.6-21.8-2V782.2c0-16.2-11.8-22.7-19.6-22.7v179.6c-13.2 7-19.6 15.6-23.2 23.7 0 0-25-3.3-24.3 43 0-12.3 18.2-33.8 30.9-33.8 0-15.6 46.1-15.6 66.8-15.6zm419.2 248.4c-12.2 0-68.8 2.4-73.9-46.8-12.5-2.7-27.1-3.3-42.4-1 39.9 76.2 83.3 76.8 94.6 77.4 17.7 19.7 11.7 86.2-13.7 84.9-93.4-5-90 51.8-79.5 63.4 0-42.9 29.1-53 102.7-53 .1 0 60.2-77 12.2-124.9zm19.3 184h-12.6c-1.1 20.4 19.1 26.4 19.1 26.4-6.5-6.5-11.3-21.7-6.5-26.4zm-118.2 28.6c-5.4-5.4-9.8-26.9-2-34.8h-13.9c-1.2 22.2 15.9 34.8 15.9 34.8zM1292 708.3c0-65.2-89.4-54.9-93.8-4.9 3.9-36.7 63.7-42.1 63.7 3.9 0 47.5-111.4 78.6-111.4 158.9 0 88.5 88.5 96.7 79.5 177.5-1.5 14-16.5 32.3-38.2 32.3-46.6 0-71.5-19.7-85.9-47.7 14.8 39.6 40.8 69.9 95.1 69.9 56.2 0 61.3-41.6 61.3-51.2 0-81-84.6-100.2-84.6-177.2-.1-74.9 114.3-105.8 114.3-161.5zm-659.4 314.6c0 25 10.2 34.7 10.2 34.7 0-15 6.2-27.8 9.7-31.3-5.2-5.3-19.9-3.4-19.9-3.4zm646.2-138c-22.7 0-41.3 17.4-43.3 39.5 1-5.3 4.6-10.5 11.5-15.7 26-19.3 76.9 19.6 47.9 59.8 16-6.4 27.2-22 27.2-40.3.1-23.9-19.4-43.3-43.3-43.3zm-199 503.9h-15.2c-1.5 28.8 16.9 33.2 16.9 33.2-7.8-7.9-9-25.9-1.7-33.2zm-428.3-153.9c-2.3 0-4.5.5-6.6 1.2-7.2 5.6-11.6 14-11.3 23.4 2.4 7.7 9.5 13.2 18 13.2 10.5 0 18.9-8.5 18.9-18.9-.1-10.4-8.5-18.9-19-18.9zM758 1375h-21.9c-.2 35.2 22.5 41.5 22.5 41.5-6.4-6.5-14.5-27.6-.6-41.5zm68-222.2c0-80.3 192.4-89.8 192.4-156 0-27-23.3-39.2-39.8-39.2 4.7 4.7 29.7 58.6-42.2 58.6-65 21.7-206.5 144.8-108.3 187.4-.1 12.4-1.7 104.4-60.7 97.2-85-10.5-106.2 24.7-89.9 64.2 0-60 42.1-48.8 97.1-48.8 34.4 0 84.7-43.5 84.7-116.8.1 0-33.3-12.8-33.3-46.6zm-163.6 49.3v-161.3c-10.9 0-19.6 16.8-19.6 16.8v137.6-.9h-11.9l.1 17.4c9.1 0 31.4-4.7 31.4-9.6zm33.1 207.9s-17-26.7 1.2-44.9h-19.2c-7.6 33.3 18 44.9 18 44.9zm118.6-34.7h-15.9c-.1 24.8 28.7 34.2 28.7 34.2-10.1-10.1-17.1-29.9-12.8-34.2z" style="fill:#728ab9"/><path class="st2" d="M1596.1 745.6zM279.1 1107.5l-1.1-3.3-.5-3.4c-1.5-11.6-4.3-33.2-21-37.1-4.5-1-9.1-.5-14 1.5 1.3-5.1 1.2-9.8-.5-14-6.1-16-27.9-15.8-39.6-15.7H199l-3.4-.6c-11.5-2.1-32.9-6.1-41.7 8.6-2.3 3.9-3.3 8.5-2.9 13.7-4.5-2.8-8.9-4.1-13.5-3.9-17.1.9-23.6 21.7-27.2 32.8l-1.1 3.3-1.6 3c-5.6 10.3-16 29.4-4.8 42.3 3 3.4 7 5.8 12.2 7-4.1 3.4-6.7 7.2-7.9 11.6-4.5 16.5 13.3 29.2 22.8 35.9l2.8 2.1 2.4 2.4c8 8.5 23 24.3 38.8 17.6 4.2-1.8 7.6-4.9 10.4-9.4 2 4.9 4.8 8.6 8.6 11.1 14.4 9.3 31.8-3.6 41.3-10.6l2.8-2 3.1-1.5c10.6-5 30.2-14.4 28.8-31.5-.4-4.5-2.3-8.8-5.7-12.8 5.3-.3 9.6-1.9 13.2-4.8 13.3-10.6 6.4-31.2 2.7-42.3z"/><path class="st4" d="M204.1 1121.3c95.8 56.6 66.3-5.7 64.2-14.8-2.2-9.2-3-78.1-64.2 14.8zM198 1135.5c-24.2 108.6 25.9 61.3 33.9 56.5 8.2-4.9 73.4-27-33.9-56.5zM182.7 1134.1c-110.8 10.5-50.3 43.6-43.2 49.7 7.1 6.2 48.2 61.5 43.2-49.7zM179.2 1119.1c-44.2-102.1-57-34.4-60.7-25.7-3.6 8.6-43.5 64.8 60.7 25.7z"/><path class="st2" d="m1761.6 1092.5-1.6-3-1.1-3.3c-3.5-11.2-10-32-27.1-32.8-4.6-.2-9 1.1-13.5 3.9.4-5.3-.5-9.8-2.9-13.7-8.8-14.7-30.2-10.7-41.7-8.6l-3.4.6h-3.4c-11.7-.1-33.5-.3-39.6 15.7-1.6 4.3-1.8 8.9-.5 14-4.9-2-9.5-2.5-13.9-1.5-16.7 3.8-19.5 25.5-21 37l-.5 3.4-1 3.3c-3.7 11.1-10.6 31.8 2.7 42.5 3.5 2.9 7.9 4.4 13.2 4.8-3.4 4-5.3 8.3-5.7 12.8-1.5 17.1 18.2 26.4 28.7 31.5l3.1 1.5 2.8 2c9.4 7 26.9 19.9 41.3 10.6 3.8-2.5 6.7-6.2 8.6-11.1 2.8 4.5 6.2 7.6 10.4 9.4 15.8 6.7 30.7-9.1 38.8-17.6l2.4-2.4 2.8-2.1c9.5-6.8 27.3-19.4 22.8-35.9-1.2-4.4-3.8-8.3-7.9-11.6 5.2-1.2 9.2-3.6 12.2-7 11-13 .6-32.1-5-42.4z"/><path class="st4" d="M1676.9 1111.2c-83.5-73.6-15.1-64.8-5.7-65.6 9.3-.9 75.1-21.4 5.7 65.6zM1665.2 1121.3c-95.8 56.6-66.3-5.7-64.2-14.8 2.2-9.2 3-78.1 64.2 14.8zM1671.3 1135.5c24.3 108.6-25.9 61.3-33.9 56.5-8.1-4.9-73.4-27 33.9-56.5zM1686.6 1134.1c110.8 10.5 50.3 43.6 43.2 49.7-7 6.2-48.2 61.5-43.2-49.7zM1690.1 1119.1c44.2-102.1 57-34.4 60.7-25.7 3.6 8.6 43.5 64.8-60.7 25.7z"/><path class="st2" d="M1711.6 1122.3c-.1-.9-.3-1.7-.5-2.6 8.9-6.5 18.5-13.5 18.5-13.5l-.9-2.1s-11.3 2-22 3.8c-5.4-8.8-14.6-14.8-25.2-15.8-3.3-10.1-6.6-20.3-6.6-20.3l-2.3.2s-1.5 10.7-3 21.1c-6.5 1.8-12.3 5.4-16.7 10.7-2.4 2.8-4.1 6-5.4 9.3h-22.3l-.5 2.2s10.6 5.2 20.5 10.1c0 .9-.1 1.8 0 2.7.8 8.7 4.8 16.5 11.4 22.2-3.5 10.8-7.4 22.9-7.4 22.9l2 1.2s9-9.3 16.9-17.5c4.2 1.4 8.6 1.9 13.2 1.5 4.5-.4 8.8-1.7 12.7-3.8 9.3 6.7 19.7 14.3 19.7 14.3l1.7-1.5s-5.9-11.2-11.2-21.2c5.5-6.8 8.1-15.2 7.4-23.9z"/><path class="st4" d="M1676.7 1105.6c-5.2.5-10 2.9-13.3 6.9-3.4 4-5 9.1-4.5 14.4.9 10.8 10.5 18.8 21.3 17.9 5.3-.5 10-2.9 13.4-6.9 3.4-4 5-9.1 4.5-14.3-1-10.9-10.6-19-21.4-18zM192.4 1111.2c83.5-73.6 15.1-64.8 5.7-65.6-9.3-.9-75.1-21.4-5.7 65.6z"/><path class="st2" d="M224 1125.4c9.9-4.9 20.5-10.1 20.5-10.1l-.5-2.2h-22.3c-1.3-3.3-3-6.5-5.4-9.3-4.4-5.3-10.2-8.9-16.7-10.7-1.5-10.5-3-21.1-3-21.1l-2.3-.2s-3.4 10.3-6.6 20.3c-10.6 1-19.8 7-25.2 15.8-10.7-1.9-22-3.8-22-3.8l-.9 2.1s9.6 7 18.5 13.5c-.1.9-.4 1.7-.5 2.6-.8 8.7 1.9 17.1 7.4 23.9-5.3 10-11.2 21.2-11.2 21.2l1.7 1.5s10.5-7.6 19.7-14.3c3.9 2.1 8.2 3.4 12.7 3.8 4.5.4 9-.1 13.2-1.5 8 8.2 16.9 17.5 16.9 17.5l2-1.2s-3.9-12.1-7.4-22.9c6.6-5.7 10.6-13.5 11.4-22.2.1-.9 0-1.8 0-2.7z"/><path class="st4" d="M206 1112.5c-3.4-4-8.1-6.5-13.4-6.9-10.8-.9-20.4 7.1-21.3 17.9-.5 5.2 1.2 10.3 4.5 14.3 3.4 4 8.1 6.5 13.4 6.9 10.8 1 20.4-7.1 21.3-17.9.5-5.1-1.2-10.2-4.5-14.3z"/><path class="st2" d="M204.6 648.2c-46.7-8.2-91.3 23.1-99.6 69.7-8.2 46.7 23 91.3 69.7 99.5 46.7 8.2 91.3-23 99.6-69.7 8.3-46.6-23-91.2-69.7-99.5z"/><path class="st4" d="M224.1 713.2c-.7-.5-2.1-1.3-3.7-2.4-7-4.6-20.8-13.8-21.2-14.1-1.9-1.3-3.8-2.6-5.6-3.8-6.1-4.1-11.6-7.7-16.8-10.7-2-1.1-3.9-2.2-5.8-3.1-8.2-4.2-16.1-6.7-25.4-7.5-7.2 5.2-13.4 11.6-18.4 19 21.4 7.7 42.2 20.1 85.7 47.1 2.4-5.7 10.7-23.4 11.2-24.5zM204.1 759.3c.9-2.2 4.7-11.9 6.2-15.6-44.5-27.6-65.2-39.9-86.6-47.4-3.3 6-5.8 12.5-7.4 19.4 12.2 16.8 44.9 33.2 87.8 43.6zM199.2 689c16.7-9.9 35.6-7.2 50.2-2.2-5.4-7.1-12.1-13.2-19.7-18-13.8-2.7-32.9-3.2-48.1 8.9 5.6 3.3 11.3 7.1 17.6 11.3zM132.7 768.6c2.2 1.6 4.5 3 6.9 4.3 4.9 2.7 10.2 5.1 15.7 7.1 2.3.9 4.7 1.7 7.1 2.5 8.3 2.7 27.5 7.7 28.9 8.1.3-.8 7.5-18.5 10.2-25.3-33.2-8.2-69.5-22.6-86.8-41.4-1 8.7-.6 17.2 1.2 25.3 3.7 8 9.6 14.4 16.8 19.4zM192.5 797.5l-6.9-1.8c-6.4-1.6-13.4-3.5-20.5-5.6 3.4 7.4 8.9 13.1 14.7 17.6 7.8 1 15.4.8 22.8-.4-5.3-4.2-10.1-9.8-10.1-9.8z"/><path class="st4" d="M261.9 710.9c-1.6-5.2-3.6-10.1-6.3-14.8-13.1-5.8-33-11.5-50.4-3l24 15.9c5-.5 9.6-.6 13.9-.5 2.3 0 4.4.2 6.5.4 4.7.3 8.7 1.1 12.3 2zM249.6 715.3c-.7 39.4-19.3 69.9-35.3 88.9 25.1-8.7 44.9-30.3 49.8-58.3 1.7-9.5 1.4-18.9-.4-27.9-3.9-1.1-8.5-2.1-14.1-2.7zM175.7 674.4c11.2-9.9 24.5-13.3 36.7-13.5-3.1-1-6.3-1.8-9.6-2.4-17.4-3.1-34.5.2-49 8 7.7 1.5 14.7 4.2 21.9 7.9z"/><path class="st4" d="M230.2 715.4c-5.7 11.9-9.1 19.2-11.9 25.8-.9 2-1.7 4-2.5 6-1.3 3.3-5.4 13.6-5.4 13.6l-2.4 6.1-10.6 26.3c2.9 3.9 6.5 7 9.9 9.5 15.8-18 35.4-48.2 35.9-87.7-3.9-.2-8.3 0-13 .4zM157.2 787.5c-5.3-1.9-10.5-3.9-15.5-6.3 1.9 5.8 4.5 10.9 7.3 15.2 5.6 3.6 11.9 6.5 18.5 8.5-4.4-4.8-8.1-10.5-10.3-17.4zM133.8 776.9c-3.6-2.1-6.9-4.5-10-7.1 3.5 6.2 7.9 12 13 17-1.1-3.2-2.2-6.4-3-9.9z"/><path class="st2" d="M1585.7 747.8c8.2 46.7 52.9 77.9 99.6 69.7 46.7-8.2 78-52.9 69.7-99.5-8.2-46.7-52.9-78-99.6-69.7-46.7 8.2-78 52.8-69.7 99.5z"/><path class="st4" d="M1635.9 713.2c.7-.5 2-1.3 3.7-2.4 7-4.6 20.8-13.8 21.2-14.1 1.9-1.3 3.8-2.6 5.6-3.8 6.1-4.1 11.6-7.7 16.8-10.7 2-1.1 3.9-2.2 5.8-3.1 8.2-4.2 16.1-6.7 25.4-7.5 7.2 5.2 13.4 11.6 18.4 19-21.4 7.7-42.2 20.1-85.7 47.1-2.4-5.7-10.7-23.4-11.2-24.5zM1656 759.3c-.9-2.2-4.7-11.9-6.2-15.6 44.5-27.6 65.2-39.9 86.6-47.4 3.3 6 5.8 12.5 7.4 19.4-12.3 16.8-45 33.2-87.8 43.6zM1660.8 689c-16.7-9.9-35.6-7.2-50.2-2.2 5.4-7.1 12.1-13.2 19.7-18 13.8-2.7 32.9-3.2 48 8.9-5.5 3.3-11.2 7.1-17.5 11.3z"/><path class="st4" d="M1727.3 768.6c-2.2 1.6-4.5 3-6.9 4.3-4.9 2.7-10.2 5.1-15.7 7.1-2.3.9-4.7 1.7-7.1 2.5-8.3 2.7-27.5 7.7-28.9 8.1-.3-.8-7.5-18.5-10.2-25.3 33.2-8.2 69.5-22.6 86.8-41.4 1 8.7.6 17.2-1.2 25.3-3.7 8-9.6 14.4-16.8 19.4zM1667.5 797.5l6.9-1.8c6.4-1.6 13.4-3.5 20.5-5.6-3.5 7.4-8.9 13.1-14.7 17.6-7.8 1-15.4.8-22.8-.4 5.3-4.2 10.1-9.8 10.1-9.8zM1598.1 710.9c1.6-5.2 3.6-10.1 6.2-14.8 13.1-5.8 33-11.5 50.4-3l-24 15.9c-5-.5-9.6-.6-13.8-.5-2.3 0-4.4.2-6.4.4-4.8.3-8.8 1.1-12.4 2zM1610.4 715.3c.7 39.4 19.3 69.9 35.3 88.9-25.1-8.7-44.9-30.3-49.8-58.3-1.7-9.5-1.4-18.9.4-27.9 3.9-1.1 8.5-2.1 14.1-2.7zM1684.3 674.4c-11.2-9.9-24.5-13.3-36.7-13.5 3.1-1 6.3-1.8 9.6-2.4 17.4-3.1 34.5.2 49 8-7.7 1.5-14.7 4.2-21.9 7.9z"/><path class="st4" d="M1629.8 715.4c5.7 11.9 9.1 19.2 11.9 25.8.9 2 1.7 4 2.5 6 1.3 3.3 5.4 13.6 5.4 13.6l2.4 6.1 10.6 26.3c-2.9 3.9-6.5 7-9.9 9.5-15.8-18-35.4-48.2-35.9-87.7 4-.2 8.3 0 13 .4zM1702.8 787.5c5.3-1.9 10.6-3.9 15.5-6.3-1.9 5.8-4.5 10.9-7.3 15.2-5.7 3.6-11.9 6.5-18.5 8.5 4.4-4.8 8.1-10.5 10.3-17.4zM1726.2 776.9c3.6-2.1 6.9-4.5 10-7.1-3.5 6.2-7.9 12-13 17 1.2-3.2 2.2-6.4 3-9.9z"/></svg>