<svg version="1.1" id="Layer_1" xmlns="http://www.w3.org/2000/svg" x="0" y="0" viewBox="0 0 200 200" style="enable-background:new 0 0 200 200" xml:space="preserve"><style>.st0{fill:#fff}.st1{fill:#0055a5}.st2{fill:#ee2e24}.st4{fill:#e4e4e4}.st5{fill:#b7b7b7}.st6,.st7{fill:#b9b8b8}.st7{stroke:#b17f4a;stroke-width:8.498800e-02}</style><g id="Building_x2F_Tower_Key-line"><path class="st0" d="M75 149.8s-19.7-9.9-29.3-25c.1 13-.6 29.3-.6 29.3l30.2 5.9-.3-10.2zM127.1 150s19.7-9.1 29.3-24.3c-.1 13 .6 28.2.6 28.2l-30.2 5.9.3-9.8z"/><path class="st0" d="M74.9 145.2h52.3v23.9H74.9z"/><path class="st0" d="M116.7 146.9c0 8.5-6.9 15.3-15.5 15.3s-15.5-6.8-15.5-15.3 6.9-15.3 15.5-15.3 15.5 6.8 15.5 15.3zM38.5 154.9v-22.4l-1.3-.5v-3l1.3-.6v-2.1l-1.3-.5V122l4.4-4.2v-1s.2-.9 1.3-.9h1.3s1 .2 1 .9v1l4.5 4.2v3.6l-1.3.4v2.1l1.4.6V152.5l-11.3 2.4zM164.1 154.9v-22.4l1.3-.5v-3l-1.3-.6v-2.1l1.3-.5V122l-4.4-4.2v-1s-.2-.9-1.3-.9h-1.3s-1 .2-1 .9v1l-4.5 4.2v3.6l1.3.4v2.1l-1.4.6V152.5l11.3 2.4z"/></g><g id="Banner_Key-line"><path class="st0" d="M99.8 186.4c-10.9 0-17.8-3.7-25.2-7.6-3.9-2.1-7.9-4.2-12.7-5.8-13.3-4.5-22.2 1-22.5 1.2l-1.8-2.8c.4-.3 10.4-6.6 25.3-1.6 4.9 1.6 9.1 3.9 13.1 6.1 7.5 4.1 14.7 7.9 26.5 7.2 11-.7 18.5-4.4 25.9-8 3.1-1.6 6.1-3 9.2-4.2.2-.1.4-.2.7-.3 3.9-1.6 15.9-6.2 26.1 1.6l-2 2.6c-8.8-6.8-19.1-2.7-23-1.1-.3.1-.5.2-.8.3-2.9 1.1-5.8 2.5-8.9 4.1-7.3 3.6-15.4 7.6-27.1 8.3-.8-.1-1.8 0-2.8 0"/><path class="st0" d="m158.1 180.5-2.3-1.5c-.5-.3-1.9-.5-3.3-.3-.3 0-.5.1-.8.2-1.1.3-2.6.6-3.7-.3-.4-.3-1-1.1-1-2.4 0-1 .4-1.9 1.2-2.5 2.5-2 8.8-.6 10.7-.1 1.2.3 2.6.3 2.9.1.6-7 3.5-12.1 5.1-14.6-11.6-7-29.3-3.2-36 1-9.9 6.3-18.2 10.2-28.8 10.3-9 0-16.6-3.7-24.7-7.6-4.5-2.2-9.2-4.5-14.3-6.2-10.7-3.6-23 .4-27.7 2.3 1.7 2.3 4.3 7 4.7 13.8.3.3 1.6.4 2.9.1 1.9-.4 8.2-1.5 10.7.6.8.6 1.1 1.6 1.1 2.5-.1 1.3-.6 2-1.1 2.3-1.1.9-2.6.4-3.7.2-.3-.1-.5-.2-.8-.2-1.4-.3-2.8-.2-3.3.2l-2.3 1.4-.1-3.8c-1 .2-3.6.5-5.2-.7-.8-.6-1.2-1.5-1.3-2.5-.3-8.6-5.1-13.3-5.2-13.3l-1.6-1.6 2.1-1c.7-.3 17.2-8.3 32.1-3.3 5.3 1.8 10.1 4.2 14.7 6.4 7.7 3.7 14.9 7.3 23.1 7.3h.1c9.8 0 17.6-3.8 26.9-9.8 7.8-4.9 28.2-9.3 41 0l1.5 1-1.2 1.4c-.1.1-4.7 5.5-5.5 14.1-.1 1-.6 1.9-1.4 2.4-1.6 1.1-4.3.7-5.3.4l-.2 3.7z"/><path class="st0" d="M53.5 173.3s-1.6-1.6-2.3-2.9c-1.3-2.3-11.8 2.3-11.8 2.3l2.9.6M147.9 173.9s1.6-1.6 2.3-2.8c1.4-2.3 11.8 2.6 11.8 2.6l-2.9.5"/><path class="st0" d="M38.2 173.4s-.3-6.4-1.6-9.3c-1.5-2.9-2-5.7-2-5.7s8.8-4.4 14.5-4.5c5.7-.1 19.9 2.3 24.4 4.9 4.4 2.4 16.4 9 22.6 10.3 6.2 1.3 16.5-.3 22.9-2.9 6.4-2.6 10.7-7.2 13.3-8.3 2.6-1.1 11-4.2 16.6-4.7 5.6-.5 12.4 1.8 16.2 2.5 3.8.7 3.3 2.2 3.3 2.2l-4.6 14.6s-7.4-2.5-12.3-2.6c-4.9-.2-13.3 3.6-15.9 4.5-2.6 1-14 5.7-17.7 7.2-3.6 1.5-16.1 4.8-23.1 3.2-7.1-1.6-20.8-8.6-24.4-10.3-3.6-1.8-16.6-6.1-18.3-5.3-2 .7-13.9 4.2-13.9 4.2z"/></g><path class="st0" d="M160.8 33.8c-.3-.8-1.6-1.4-7.1-1.4-2.2 0-4.2.1-4.2.1h-.3c-3.4.3-6.7 1-9.5 2.3 3.9-4.7 10-7.6 13.6-9 .2-.1.7-.3.9-.5.2-.3.5-.5.3-1-.4-.8-2.1-1-3.2-1-1.2 0-2.9.2-5 .5-1 .1-2 .3-2.9.5h-.1c-4.2 1-8.2 2.9-11.5 5.5-.4.3-1 .8-1.4 1.1l2.7-4.6c1.5-2.3 3-4.6 4.7-6.5.1-.1.2-.3.3-.4.1-.3.4-.9.3-1.1-.2-.2-.4-.4-1-.4s-2.1.2-8.2 4.9c-5.8 4.1-10.7 9.3-14.4 15.2-1.5 2.6-4 7.5-4.9 10.8-.1-.3-.1-.7-.2-1-.2-1.4-.3-2.8-.3-4.4 0-2 .1-3.8.2-4.9 0-.5-.1-1.6-.5-1.7-.4-.1-1.2.9-1.4 1.3-3 6.8-3.8 12.6-4 16l-1.2 9.8c-.1.7-.7 4.1-.7 4.1-.9-1.5-1.4-2.5-2.1-4.1 0-.1-.1-.1-.1-.2l-1-1.5-.1-.1c-1.5-1.7-2.9-2.6-4.6-3.6-2.3-1.4-5.3-3.2-9.6-8.2-2.4-2.8-5.2-8.4-6.1-12.2-1.8-7.6-1.6-16.8.4-25 .2-.5.3-1.6.1-1.9-.2-.3-.5-.4-.9-.4-.6 0-1.2.6-5.2 6.9v.1c-2.6 4.2-4.5 9-5.4 13.9-.2 1-.3 2.2-.4 3.2-1-2.3-1.7-4.7-2.3-7.2-1.3-5.2-1.7-10.6-1.2-15.3 0-.3.1-1.1-.1-1.3-.2-.2-.5-.3-.8-.3-.9 0-2.3 1.1-5.1 8.7-2.6 7.2-3.5 13.8-2.6 21-3-4-4.4-9.5-5.6-14.6-.3-1.2-.6-2.5-1-3.6-.2-.6-.6-2-1.1-1.7 0 0-.1 0-.1.1h-.1s-.1 0-.1.1c-.1.1-.5 1.4-.5 1.5-.2.3-.3.8-.3 1.5v1.6c-.3 3.8-.7 13.5 4.3 23.7l.1.3c.1.2.2.3.2.4.5 1.1 1.1 2.2 1.7 3.2.2.3.3.7.6 1 .7 1.2 1.3 2 1.9 2.7-2.9-.6-7-1.4-9-1.7-.4-.1-1 .2-1 .6-.2.4 0 1 .3 1.2 1.6 1.1 4.8 3.9 8 6.8h-.1l5.7 5.3.5.5c1.9 1.7 3.8 3.6 5.6 5.3l-3.9-.4c-.4-.1-.9.2-1 .6s-.1.9.3 1.1l9.1 7.4 4 3.2.1.1 6.8 5.5c.2.2.3.2.6.3l1.7.1c-3.7 1.6-7.1 1.6-11.1.3-3-1-6-2.6-8.5-4.7-.3-.3-1.3-.8-1.6-.5-.3.3-.1 1.3.1 1.7.8 1.9 2.2 3.6 3.6 5.1-4.8-.6-9-1.9-14-4.2-.4-.2-1.1-.7-1.5-.3-.3.3-.1 1.4.2 1.7 2.3 3.5 4 5.8 5.8 7.6 1.8 1.9 4.3 3.9 5.5 4.7.3.2.9.5 3.8.5 1.1 0 2.3-.1 3.4-.2h.3c-2.9 1-5.6 1.4-8 1.1-.5-.1-1.6 0-1.7.4-.1.5.9 1.3 1.3 1.5 3.5 1.2 6.9 2.1 10.2 2.5 1 .3 4.2 1.1 7.5 1.4h.6c.3 0 .5.1.8.1 1.3.1 2.5.3 3.7.3 1 0 2.1-.1 3.2-.3 0 .1.1.3.1.3l.6 1.1c-.2 0-.4.2-.6.3-.3.3-.3.8-.2 1.1l1.2 2.3c0 .1.1.1.1.2 0 0 0 .1.1.1-.1 0-.1.1-.2.1-.3.3-.5.7-.4 1 .6 2.6 1.9 3.5 2.8 4.2.6.4 1 .7 1.2 1.5.2.4.3 1 .6 1.6.4 1.2 1.2 2.9.8 3.6-.6 1-1 1.2-1.7 1.6-.4.3-1 .6-1.6 1.2-1.6 1.4-1.6 3.3-.3 5.5l.1.2c.2.3.6.5 1 .5.4-.1.7-.3.8-.8.3-1.6 2.9-2.9 3.5-2.9.9-.1 1.7-.1 2.3-.7 1-1 6.2-1 6.2-1s.6 0 1.6.2c.2.1.3.2.5.3.2.1.3.2.5.2.1 0 1.8.7 2 .9.3.3 3.2 1.9 3.6 2.1.2.1 1.9 2.4 2.2 2.4.4.6.5.4.5-.2 1.1-.7 2.1-2.2 2.5-3.7.3-1.6.2-3-.7-4.2-.1-.1-.1-.2-.2-.2-.2-.2-.6-.5-1.1-1-.7-.6-1.9-1.6-2.2-1.8-.7-.9-1.1-1.7-1.5-2.8.3 0 .5-.2.7-.3.2-.3.3-.5.2-.9l-.2-.6c-.2-.9-.4-1.9-.6-2.9v-.1h.1c.5 0 1-.4 1-1 0-.2-.1-.3-.2-.5l-1.1-2.9c.1.1.2.2.2.3.3.3 1 .8 1.3.6.3-.2.3-.9.4-1.2.2-2 1.6-4 3.3-5.2.1.3.2.4.2.5.2.3.2 1 .5 1s.7-.5 1.2-1.1c.7-.7 1.3-1.3 2-1.6l3.5 1.4c.2.6.6 1.6 1.4 2.3.6.5 1.3 1 2.4 1.6.1.1.3.2.3.3-.1.1-.3.1-.3.2-.4.2-1.6.5-1.6 1s1.1.8 1.5 1c.8.3 1.6.4 2.4.4 1.7 0 3.2-.6 4.1-1.6.7-.9 1-2 .8-3.2-.2-.9-.5-3.1-.6-3.9l1-3c0-.1.1-.2.1-.3 0-1.5-.4-3-1.2-4.8v-.1c0-.1-.1-.3-.2-.3s-.1-.2-.1-.3c-.2-.4-.5-1-.8-1.5-2.4-4.1-6-7.4-6.2-7.5-.3-.3-.9-.8-1.2-.6s-.4 1-.4 1.4v.2c-.3-.6-1.1-1.6-1.4-1.8-.4-.7-.8-1.4-.9-1.8 2.9-13.7 12-22.8 12.1-22.9.2-.2.3-.3.3-.6 2-19.6 24.3-28.2 24.6-28.3.1 0 .7-.2.7-.3 1.4-1.1 1.5-1.6 1.4-1.8m-50.9 85.4c.1.1.1.1 0 0l-.3.1.3-.1z" id="Eagle_Key-line"/><g id="Banner"><path class="st1" d="M98.3 174.3H98l-.1 2.3h.3c.9 0 1.3-.3 1.4-1.1 0-.8-.4-1.1-1.3-1.2zM105.3 177.4l1.7-.3-1.2-2.6zM82 173.2l.6-2.7-2 2.1zM53.6 159.1h-.5l-.2 2.3h.5c.9.1 1.3-.3 1.4-1.1.1-.7-.3-1.1-1.2-1.2zM120.8 173.1l1.4-.7-1.9-2.2z"/><path class="st1" d="M130 158.7c-9.8 6.2-17.8 10-27.9 10.1-13.6.1-24.1-8.9-38.5-13.8s-30.8 3.2-30.8 3.2 5.3 5.1 5.6 14.5c0 0 9.5-6.2 23.9-1.4 14.3 4.9 21.7 14.4 40.2 13.3 16-1 25.2-8.4 35.5-12.3 3.2-1.2 15-6.7 25.2 1 1-9.1 5.8-14.7 5.8-14.7-11.9-8.8-31.8-4.5-39 .1zm-83.3 7.7c-2.6.5-4.5-.9-5-3.6-.5-2.6.8-4.7 3.5-5.2.9-.2 1.6-.1 2.3.1l.1 2.3c-.5-.3-1.1-.4-1.7-.3-1.2.3-1.7 1.2-1.5 2.7.3 1.5 1.3 2.2 2.4 2 .6-.1 1.1-.4 1.6-.9l.7 2c-.7.4-1.4.7-2.4.9zm8-.3-1.4-2.9H53l-.2 2.7-2.5-.2.5-8.7 3.3.2c2.3.2 3.5 1.2 3.4 3-.1 1.1-.6 2-1.6 2.4l1.7 3.1-2.9.4zm7.1 1.3-2.5-.7.8-2.9-1.5-6 2.8.4.7 3.6 2.4-2.7 2.6.7-4.4 4.6-.9 3zm7.8-2.8c1.6 1.4 2 2.3 1.5 3.6-.8 1.9-2.5 2-4.1 1.3-1.1-.5-2-1.1-2.8-1.9l1.2-1.8c.8.9 1.6 1.6 2.4 1.9.4.2.9.2 1-.2.2-.3 0-.6-.9-1.4-1.4-1.3-1.9-2.1-1.3-3.6.7-1.6 2.3-1.9 3.9-1.2 1.1.5 1.7 1 2.4 1.7l-1.1 1.7c-.6-.8-1.4-1.4-2-1.6-.4-.2-.8-.2-.9.2-.2.3-.1.6.7 1.3zm2.6 7.3 3-5.8-2.1-1 1-1.9 6.2 3.2-.7 2.1-2.2-1.1-3 5.8-2.2-1.3zm11.7 5.8-2.5-.8.3-1.6-2.4-1.2-1 1.1L76 174l6.6-6.4 2.6 1.3-1.3 8.8zm6.5 2.5-5.1-1.6 2.7-8.2 2.4.8-2 6.2 2.3.8-.3 2zm7.9-1.7h-.4l-.1 2.6-2.6-.1.3-8.7 3 .1c2.3.1 3.6 1.1 3.5 3.1 0 2.1-1.5 3.1-3.7 3zm10.2 2-.7-1.5-2.7.3-.3 1.5-2.5.3 1.8-9 2.9-.4 4 8-2.5.8zm4.3-1-2.6-8.3 2.4-.8 1.9 6.2 2.3-.7 1 2-5 1.6zm11.8-4.3-1.1-1.2-2.5 1.1.2 1.5-2.3 1-.9-9.2 2.6-1.2 6.1 6.5-2.1 1.5zm6.6-3.3c-2.4 1.1-4.6.3-5.7-2.2-1.2-2.4-.4-4.8 2-6 .8-.3 1.5-.5 2.2-.5l.7 2.2c-.6-.1-1.2-.2-1.8.2-1 .5-1.4 1.6-.7 3s1.8 1.7 2.9 1.2c.5-.3 1-.7 1.3-1.3l1.2 1.7c-.7.8-1.2 1.3-2.1 1.7zm3.1-1.6-3.3-8.1 5.3-2.2.8 1.9-2.9 1.2.4 1.1 2.3-1 1 1.7-2.5 1 .5 1.3 3-1.2.8 1.9-5.4 2.4zm11.2-3.9-2.5.5-1.8-8.5 5.4-1.1.4 2.1-2.9.6.3 1.4 2.1-.4.8 2-2.4.5.6 2.9zm3.5-.6c-.7.1-1.3-.4-1.3-1.1-.1-.7.4-1.3 1.1-1.3.7-.1 1.3.4 1.3 1.1.1.7-.4 1.3-1.1 1.3zm8.1-5.6c-.4-.4-1-.8-1.6-.8-1.2-.1-2.1.7-2.3 2.2-.2 1.5.6 2.4 1.8 2.6.6.1 1.1-.1 1.8-.3l.1 2.1c-.8.3-1.5.4-2.5.3-2.6-.3-4-2.2-3.7-4.9.3-2.7 2.2-4.2 4.9-4 .9.1 1.6.3 2.2.7l-.7 2.1zm1.9 6.9c-.7.1-1.3-.4-1.3-1.1-.1-.7.4-1.3 1.1-1.3.7-.1 1.3.4 1.3 1.1.1.6-.4 1.2-1.1 1.3z"/><path class="st2" d="m157.2 178.8-1-.6c-.8-.5-2.4-.7-3.9-.4-.3 0-.5.1-.8.2-1 .3-2.2.4-2.9-.2-.4-.3-.7-.9-.7-1.6 0-.7.3-1.3.9-1.7 2.3-1.8 9.1-.2 9.9.1.7.2 2.8.6 3.6-.1.3-.2.3-.4.4-.8.7-7.8 4.2-13.1 5.5-14.8-11.8-7.9-30.5-4-37.9.5-8.4 5.1-17.5 10.1-28.2 10.1h-.1c-8.8 0-16.2-3.6-24.2-7.5-4.5-2.3-9.2-4.5-14.4-6.2-12.1-4.1-26 1.3-29.5 2.9 1.5 1.7 4.9 6.6 5.2 14.2 0 .3.2.6.3.8.9.7 2.9.3 3.6.3.8-.2 7.6-1.5 9.9.4.5.4.8 1 .8 1.8s-.3 1.3-.7 1.6c-.8.6-1.9.3-2.9 0-.3-.1-.5-.2-.8-.2-1.5-.3-3.1-.2-4 .3l-1 .6-.1-3.3c-.3.1-.6.1-.9.2-.3.1-3.2.7-4.7-.4-.5-.4-.9-1-.9-1.8-.3-8.9-5.4-14-5.5-14l-.7-.7.9-.4c.7-.3 16.9-8.1 31.4-3.3 5.3 1.7 10 4.1 14.6 6.3 7.8 3.8 15.1 7.4 23.6 7.4h.1c9.4 0 17.5-3.8 27.5-10 7.7-4.8 27.7-8.8 39.9-.1l.6.4-.5.5c-.1.1-4.9 5.7-5.6 14.6-.1.8-.4 1.4-1 1.7-1.6 1.1-4.4.3-4.8.3-.3-.1-.5-.2-.9-.2l-.1 3.1zm-4.9-3.9c-1.1 0-2.2.2-2.7.5-.3.2-.3.3-.3.7 0 .3.1.5.2.6.3.2 1.1 0 1.8-.1.3-.1.6-.2.9-.2 1.1-.2 2.7-.2 3.9.2l.1-1.4c-1.3-.1-2.7-.3-3.9-.3m-104.7.9c.7 0 1.4.1 2 .2l.9.3c.6.2 1.5.4 1.8.2.1-.1.2-.3.2-.6s-.1-.5-.3-.7c-1-.9-4-.8-6.5-.5v1.4c.6-.3 1.3-.3 1.9-.3"/><path class="st2" d="M99.8 185.5c-10.7 0-17.5-3.6-24.8-7.5-3.9-2.1-8-4.2-12.7-5.9-13.9-4.7-23.2 1.3-23.3 1.4l-.8-1.1c.4-.3 10.1-6.3 24.5-1.5 4.9 1.6 9 3.8 13 6 7.7 4.2 15 8.1 26.9 7.3 11.2-.7 18.8-4.4 26.3-8.1 3.1-1.6 6-2.9 9.1-4.2.2-.1.4-.2.7-.3 4.2-1.6 15.3-6.1 25.1 1.5l-.8 1c-9.3-7-19.8-2.9-23.8-1.3-.3.1-.5.2-.8.3-3 1.1-5.9 2.6-9 4.1-7.2 3.6-15.3 7.5-26.8 8.2-.9 0-1.8.1-2.8.1"/><path class="st2" d="M52.5 175.3c-3.2-2.7-4.5-5.2-4.6-5.4l1.2-.6s1.2 2.4 4.2 4.9l-.8 1.1zM149.5 175.6l-.8-1.1c3.5-2.5 3.9-5.2 3.9-5.3l1.3.2c.1.1-.5 3.3-4.4 6.2"/></g><g id="Eagle"><path class="st0" d="M109.2 51.4c-.2-1-.4-2.3-.6-3.6 0 1.1.2 2.3.6 3.6"/><path d="M118.9 88.2c0-.3 0 0 0 0" style="fill:#f6f6f6"/><path class="st1" d="M132.6 99.9c0-.1-.1-.2-.1-.2l.1.2c-.1-.3-.2-.4-.3-.6-.3-.5-.5-1-.8-1.4-2.4-4-6-7.3-6-7.3l.1 1 .1 1.6s-11.4-6.6-16.2-12.7c-3.7-4.8-8.1-9.9-10.7-16.2l-1-1.5c-3.2-4.1-6.7-3.3-14.1-12-2.6-2.9-5.4-8.8-6.3-12.7-1.9-8.1-1.6-17.4.4-25.6 0 0 1-2.8-4.2 5.5-2.6 4.2-4.4 8.8-5.3 13.6-.4 2.4-.6 4.9-.5 7.4-1.7-3.5-3.2-7.3-4.2-11.3-1.3-5.2-1.7-10.6-1.2-15.7 0 0-.9-.9-4.1 7.5-3.1 8.4-3.6 15.6-2.2 23.7-5.8-4.9-7.1-13.9-9-21 0 0 0 .1-.1.1-.1.2-.2.4-.3 1.1 0 .5-.1 1-.1 1.6-.3 3.6-.7 13.3 4.2 23.3.1.3.2.5.3.7.7 1.5 1.6 2.9 2.3 4.2 1.2 2.3 2.3 2.8 3.6 4.7-.2 0-8.7-1.8-11.8-2.3 1.9 1.2 5.3 4.3 9.3 8.1 0 0 11.7 1 21 7.8 0 0-8-3.9-17.6-4.6.6.5 1.1 1 1.7 1.6 2.8 2.6 5.5 5.1 7.9 7.3l-6.9-.7 10 8.1 1.8.1s3.4-.1 6.7.6c3.6.8 5.4 1.9 5.4 1.9-2-.7-5.3-.8-7.2-.6-1.3 0-2.3.4-3.3.5l.6.4 6.2 5 5.6.2c-4.7 2.9-9.4 4.1-15.3 2.1-3.1-1-6.2-2.7-8.8-4.8 1 2.6 3.5 4.8 5.4 6.8-6.2-.5-11.3-1.9-17-4.5 2.2 3.4 3.9 5.7 5.6 7.5 1.7 1.8 4.2 3.7 5.3 4.5.8.4 4.2.4 6.6.2.4 0 .9-.1 1.1-.2.5-.1 1.2-.3 1.9-.4 2.3-.5 5.2-1.4 5.1-1.2-1 .7-2.2 1.3-3.4 1.9-.7.3-1.4.7-2.2 1-3.3 1.4-6.9 2.3-10.2 1.9 3.7 1.3 7.5 2.3 11.4 2.7 1.4.1 1.8.1 3-.4 1.7-.8 3.2-1.5 4.6-2.2.7-.3 1.4-.7 2.1-1 1-.5 2-1 3.1-1.6-.6.6-1.3 1.2-2 1.7-.3.3-.8.6-1.1 1-1.4 1.1-2.8 2.3-4.4 3.7 4.4.3 7 1 12.8-.8 0 0-1.2.9-2.9 1.9l1.7 3.4-1.9-.9 1.2 2.3s.9 1.1 2.2 2l.4 1.4c-1-.3-2.3-1.3-2.9-1.7 1 4 3.3 3.2 4 5.5.4 1.6 2.2 4.5 1.2 6.1-1.1 1.8-1.9 1.6-3.5 3.1-1.8 1.6-.4 3.7 0 4.4.3-1.9 1.8-3.2 2.7-3.5 1.3-.3 2.9-.1 3.4-.7 2.1-2.1 6.4-2.5 9.4-.7-1.4-2.3-2.2-2.2-4.9-3 4.9.3 5.3 1.4 7.7 4.2.2-1.6-1.1-3.6-2.3-4.6-.3-.3-4.2-.9-8.1-1.2-1.4-.1-1.9-1.8-2.1-2.8.3.2 1.3.7 2.3.7-.3-1.4-.6-2.9-.9-3.8.3.2.8.4 1.6.4l-.5-2.3c-.3-1.8-.9-3.1.9-5.9 1 .7 1.4 1 1.8 1.5 0 0 .3 1.7.8 2.7.1.2 1.8 1.6 1.8 1.8l-2.9-.9s1 2.3 2.9 3.6c1.1.4 2.2.9 2.5 1.3s1 1.7.7 2.4c-.3.5-1.8-1.7-5 1 2.3 0 4.9.6 5.5 1.3.8.9 1.3 1.7 1.8 2 2.3 1.4 2.5 2.2 2.3 4.9 1.5-1.1 1-4.1.9-4.9 2 2.3 1.6 5.5 1 6.8 1.5-.8 3.2-4.1 1.6-6.6-.4-.4-2.9-2.3-3.4-2.8-1.2-1.4-1.6-3-2.2-4.6.4 0 1 .2 1.4.2-.3-1-.5-2.2-.8-3.6 0-.1-.1-.3-.1-.3v-.2c0-.2-.1-.4-.1-.6v-.2c0-.2-.1-.4-.1-.6.8.5 1.4.7 1.4.7l-1.4-3.7c0-.3.1-.6.1-.9v-.1c0-.3.1-.5.2-.8v-.1c.1-.3.1-.4.2-.7 0-.1 0-.1.1-.2.1-.3.2-.5.3-.8-.6 1.3 1.2 3.3 1.2 3.3.3-2.9 2.9-5.7 5.1-6.8-.1.9.3 1.6.3 1.6.7-1.4 2-1.9 2.9-2.2l1.8.7 1.9.8.5.2s.3 1.5 1.2 2.2c.8.7 1.6 1.1 3.6 2.4-.2.5-.6 1-1.6 1.3 2.9 1 6.5-.2 6-3.3-.2-1.1-.7-4.1-.7-4.1l.7-2.3.2-.7v-.1l.1-.3c.5-1 0-2.5-.6-3.9m-10.3 4.5-1.6-2.8-3.9-2 3.2 3.7c-1.6-1-4.5-2.5-7.6-3 0 0 2.6 2.4 3.9 3.7.3.2.3.3.3.3l-.3-.3c-.3-.3-1.2-.5-3.1-.7-1.8-.2-3.9-.6-5.8-1.7 0 0 .3.5 1.1 1.2.8.6 1.8 1.4 3.3 1.8.1 0 1.6.6 1.7.7-1 .4-1.9 1-2.7 1.5-1.4 1.1-2.3 2.4-2.9 3.7-1 2.3-1.7 6.5-1.1 8.9-2-2.7-3.8-6.2-2.8-10.1-3 1.7-5 1.1-7.2.9-1 1.3-2.3 4.5-2.4 7.3-.2-.3-.3-.6-.5-1-.8-1.7-1.2-3.6-1.3-5.5-.1-.8 0-1.5 0-2.1l7-5-10.2-.9c.2-.1.3-.3.5-.3 3.9-2.8 8.8-4.7 13.7-4.4.3 0 .8 0 1.1.1-3.1-1.7-8.7-1.6-12-.7-4.4 1.4-6.2 1.5-10.9.6 4.9-1 4.8-1.1 7.8-2.5 2.4-1.4 7-3.9 12.8-2.8-1.4-.6-2.6-1.2-4.3-1.6-1.7-.3-4.4-.8-7.4-.2 0 0 2-2.2 5.7-2.7-5.1-4.6-20.3-11.9-20.3-11.9 21.5 5.1 30.6 15.2 32 16.8.1.1.2.2.3.2-.8-1.8-5.5-12.9-18.6-21.1-1.8-1.1-3.8-1.9-5.6-3-2.9-1.7-5.6-3.6-8.1-5.7C51.9 44.5 60.9 18 60.9 18c-.8 6.2.3 12.2 2.1 17.6 1.1 3.4 2.6 6.5 4 9.3 1.6 3 3.3 5.6 4.6 7.5 3 3.7 6.6 6.8 10.7 9.1 0 0-18.3-12.5-7.9-39.1-.4 1.1-7.6 22.4 19.5 41 .5.3.9.3 1 .7 3.6 8.7 17.5 22.4 20 29.1-.1-1.4-.3-2.7-.3-4.1 1.6 1.6 2.8 3.7 3.4 5.9.1-1.3.3-3.4.3-4.7 2.3 1.2 5.5 3.8 8.3 6.8l-.1-.1-.3-.3c0 .1.1.1.1.1s0 .1.1.1l.1.1.1.1-.1-2-.1-1s4.2 5.1 5.5 9c.1.3.2.4.2.7 0 1.1-.2 1.8-.3 2.3-.2.4-.8 1.1-1 1.2-.1.1-.2.1-.2.1.2-.2.3-.5.3-.9s-.1-.9-.3-1.4c-.2-.4-.3-1-.4-1.2-.2-.3-.3-.6-.3-.6.1 1 0 1.6-.1 2.1v.1c-.2 1-.6 1.1-.8 1.2 0-.2-.1-.3-.1-.4-.1-.3-.3-.7-.3-1-.4-1.2-2.2-4.4-2.8-5.5-.5.7.2 2.3.2 2.3.3.4.7 1.5.7 1.5-.4 1 .3 2.3 1.2 2.8-.3.1-1.1 0-1.8-.3.3.4 1 1.6 1.5 1.9-1-.2-3.7-2.3-5.3-3.6m6.3 8.1-1.2-1-.9-.7-.2-.7-.1-.2-.3-.9c1 .6 1.7 1.6 2.3 2.4l.6 1.2-.2-.1zm3.7.8c-.3.4-1 .9-1.6 1.1-.7.3-1.4.4-2 .3.1 0 .1-.1.2-.1 0 0 .1 0 .1-.1 1.4-.9.6-2.5-.8-4.2l-3.3-2.9-.2-.2-.1-.1h.2l.5.3 1.6 1 .1.1.8.4.8.4c.8-.2 1.6-.4 1.7-.4.6-.2.9-.3 1-.4.4.1 1.8 3.7 1 4.8"/><path class="st1" d="M149.6 33.5h.2c-4.6.3-9.2 1.6-13 4.1 3.1-6.2 10.1-10.2 16.2-12.7 0 0 .8-1.2-6.7-.1-1 .1-1.9.3-2.9.4-4.1.9-8 2.7-11.2 5.3-1.8 1.5-3.5 3.1-4.9 5-6.2 8.3-8.3 15.6-8.3 15.6s-.9-10.7 12.8-24.9c1.5-2.5 3.2-4.9 5.1-7.1 0 0 .3-1.6-7.5 4.2-5.6 3.9-10.5 9.1-14 14.8-1.3 2.3-4 7.4-4.8 10.7v.3s.1 2 .4 4.7c.4 3.3 1.8 7.7 1.8 7.7-.9-1.8-2.5-6-3-7.8-.3-1-.4-1.8-.7-2.6l-.3-1.5c-.1-.3-.1-.5-.1-.8-.1-.4-.2-.9-.2-1.3-.2-1.6-.3-3-.3-4.6 0-2 .1-3.7.2-5-3.6 8.1-3.9 14.5-3.9 17-.2 1.6-.3 2.8-.3 3.8 1 2.6 2.6 6.2 5.5 10.6 0 0-2.6-1.5-5.7-6.9-.1 1.2-.3 2.6-.8 4.7 3.6 6 7 10.6 10.2 14.1v-7.1c1.1 1.1 1.9 2 2.5 2.7.5-2.3 1.2-5.1 2.3-8.1 6.2-18.5 13.6-24.1 13.6-24.1-6.8 10.6-13 32-12.7 42 1.3 1.1 2.5 2 3.5 2.7-.5-.8-1-1.7-1-2.4 3-14.3 12.4-23.6 12.4-23.6 2.1-20.4 25.2-29.1 25.2-29.1 1.6-1.2-9.6-.7-9.6-.7"/></g><g id="Building_Towers"><path class="st4" d="M153.1 151.4v-11.6c-1.2 1-2.3 1.7-3.5 2.5v3.5h-1.7v-2.3c-7.5 4.9-11.3 5.5-11.3 5.5 5.1-2.6 8.7-5.1 11.3-7.3v-4.5c-9.3 8-17.6 12-20.6 13.4v1.8H143.2c3.2-.5 6.6-.8 10-.6"/><path class="st5" d="M138.8 153.5c-2.5.6-4.8 1.5-6.6 2.3v-2.3h6.6zM118.9 163.2c-.6.3-1.7.8-2.2 1V157h2.2v6.2zM116.7 150.6h2.2v5.5h-2.2zM126.4 158.7V157h-1.9v3.3c.6-.3 1.3-.8 2-1.1l-.1-.5zM124.5 150.6h1.9v5.5h-1.9zM121.2 160.6V157h-1.5V162.8c.5-.3 1-.5 1.5-.8v-1.4zM119.7 150.6h1.5v5.5h-1.5zM122.1 150.6h1.5v5.5h-1.5zM123.5 160.2V157H122V161.7c.5-.3 1-.5 1.5-.8v-.7zM116.7 146h9.7v3.8h-9.7zM78 159.3c-.7-.3-1.4-.7-2.2-1V157H78v2.3zM75.8 150.6H78v5.5h-2.2zM83.5 162c.7.3 1.3.6 2 .9V157h-2v5zM83.6 150.6h1.9v5.5h-1.9zM78.7 150.6h1.5v5.5h-1.5zM81.2 150.6h1.5v5.5h-1.5zM75.8 146h9.7v3.8h-9.7zM81.2 160.9c.4.3 1 .5 1.5.8V157h-1.5v3.9zM73.5 157.1c.5.3 1 .4 1.5.7v-4.4h-1.5v3.7zM78.7 159.7c.1 0 .2.1.3.1.4.2.9.4 1.2.6V157h-1.5V159.7z"/><path class="st4" d="M49.5 147.3v-7.5c1.2 1 2.3 1.7 3.5 2.5v3.4h1.7v-2.3C62.3 148.5 66 149 66 149c-5.1-2.6-8.7-5.1-11.3-7.3v-4.4c8.8 7.6 16.8 11.7 20.2 13.2v2s-13.5.1-13.8 0c-3.9-.9-7.9-.9-11.6-.5"/><path class="st5" d="M70.2 155.7c-1.9-.8-4.4-1.8-5.8-2.3h5.8v2.3zM71 155.6v-2.1h1.5v3.2c-.2-.1-.7-.3-1.5-.6v-.5zM128.9 157v-3.5h-1.6v5.1c.5-.3 1.1-.7 1.6-1v-.6zM131.3 155.7v-2.3h-1.5v3.5c.4-.3 1-.5 1.5-.8v-.4zM115.8 149.8v-2.7c0-8.1-6.6-14.7-14.7-14.7s-14.7 6.6-14.7 14.7v2.7h2.5c-.2-.8-.3-1.6-.3-2.4 0-6.8 5.5-12.4 12.4-12.4 6.8 0 12.4 5.5 12.4 12.4 0 .9-.1 1.6-.3 2.4h2.7z"/><path class="st4" d="M52.9 139v-3.3l-3.5-3.5v3.9c.4.7 1.5 2.2 3.5 4V139z" id="Layer_27"/><path class="st4" d="M153.1 136.2c-.4.7-1.5 2.2-3.5 4v-4.4l3.5-3.5V136.2z"/><path class="st5" d="M98.6 161.5c-.4 0-.7.3-.7.7s.2.7.7.7c.3 0 .5-.1.8-.3 0-.7-.3-1.1-.8-1.1zM102.3 161.5c-.5 0-.8.5-.8 1.4s.3 1.4.8 1.4.8-.5.8-1.4c.1-.9-.3-1.4-.8-1.4zM46.2 130.7c.5.1 1 .3 1.5.3v6.6c-.4-.2-1-.3-1.5-.3v-6.6zM45.3 137.1c-.5-.1-1-.1-1.5-.1v-6.6h.7c.3 0 .5.1.8.1v6.6zM41.5 137.1c.5-.1 1-.1 1.5-.1v-6.6c-.5 0-1 .1-1.5.1v6.6zM39.1 137.6c.4-.2 1-.3 1.5-.3v-6.6c-.5.1-1 .3-1.5.3v6.6zM37.8 125.3c.3-.2.7-.3 1-.4v.8l-1-.4zM43 127.6c-.5 0-1 .1-1.5.1v-3.5c.5-.1 1-.1 1.5-.1v3.5zM45.3 124.3c-.5-.1-1-.1-1.5-.1v3.5c.5 0 1 .1 1.5.1v-3.5zM46.2 124.4c.5.1 1 .3 1.5.3v3.5c-.4-.2-1-.3-1.5-.3v-3.5zM40.6 127.8c-.5.1-1 .3-1.5.3v-3.5c.4-.2 1-.3 1.5-.3v3.5zM48 124.9c.3.1.7.3 1 .4l-1 .4v-.8zM37.8 131.6c.3-.2.7-.3 1-.4v.8l-1-.4zM48 131.1c.3.1.7.3 1 .4l-1 .4v-.8z"/><path class="st5" d="M49 123.1c-1.6-.7-3.5-1.1-5.5-1.1-2.1 0-4.1.4-5.5 1.1v1.5c1.6-.7 3.5-1.1 5.5-1.1 2.1 0 4.1.4 5.5 1.1v-1.5zM49 129.4c-1.6-.7-3.5-1.1-5.5-1.1-2.1 0-4.1.4-5.5 1.1v1.5c1.6-.7 3.5-1.1 5.5-1.1 2.1 0 4.1.4 5.5 1.1v-1.5z"/><path class="st5" d="M49 122.5c-1.6-.7-3.5-1.1-5.5-1.1-2.1 0-4.1.4-5.5 1.1l4.4-4.2h2.2l4.4 4.2zM42.3 117v.7h2.2v-.7c0-.3-.6-.3-.7-.3H43c-.2 0-.7 0-.7.3zM47.6 144.8c-.4-.2-1-.3-1.5-.3v-6.4c.5.1 1 .3 1.5.3v6.4zM45.3 144.3c-.5-.1-1-.1-1.5-.1v-6.4c.5 0 1 .1 1.5.1v6.4zM43 144.2c-.5 0-1 .1-1.5.1v-6.4c.5-.1 1-.1 1.5-.1v6.4zM40.6 144.5c-.5.1-1 .3-1.5.3v-6.4c.4-.2 1-.3 1.5-.3v6.4zM162 130.7c.5.1 1 .3 1.5.3v6.6c-.4-.2-1-.3-1.5-.3v-6.6zM161.1 137.1c-.5-.1-1-.1-1.5-.1v-6.6h.7c.3 0 .5.1.8.1v6.6zM157.3 137.1c.5-.1 1-.1 1.5-.1v-6.6c-.5 0-1 .1-1.5.1v6.6zM155 137.6c.4-.2 1-.3 1.5-.3v-6.6c-.5.1-1 .3-1.5.3v6.6zM153.6 125.3c.3-.2.7-.3 1-.4v.8l-1-.4zM158.8 127.6c-.5 0-1 .1-1.5.1v-3.5c.5-.1 1-.1 1.5-.1v3.5zM161.1 124.3c-.5-.1-1-.1-1.5-.1v3.5c.5 0 1 .1 1.5.1v-3.5zM162 124.4c.5.1 1 .3 1.5.3v3.5c-.4-.2-1-.3-1.5-.3v-3.5zM156.5 127.8c-.5.1-1 .3-1.5.3v-3.5c.4-.2 1-.3 1.5-.3v3.5zM163.7 124.9c.3.1.7.3 1 .4l-1 .4v-.8zM153.6 131.6c.3-.2.7-.3 1-.4v.8l-1-.4zM163.7 131.1c.3.1.7.3 1 .4l-1 .4v-.8z"/><path class="st5" d="M164.8 123.1c-1.6-.7-3.5-1.1-5.5-1.1-2.1 0-4.1.4-5.5 1.1v1.5c1.6-.7 3.5-1.1 5.5-1.1 2.1 0 4.1.4 5.5 1.1v-1.5zM164.8 129.4c-1.6-.7-3.5-1.1-5.5-1.1-2.1 0-4.1.4-5.5 1.1v1.5c1.6-.7 3.5-1.1 5.5-1.1 2.1 0 4.1.4 5.5 1.1v-1.5z"/><path class="st5" d="M164.8 122.5c-1.6-.7-3.5-1.1-5.5-1.1-2.1 0-4.1.4-5.5 1.1l4.4-4.2h2.2l4.4 4.2zM158 117v.7h2.2v-.7c0-.3-.6-.3-.7-.3h-.8c-.1 0-.7 0-.7.3zM163.5 144.8c-.4-.2-1-.3-1.5-.3v-6.4c.5.1 1 .3 1.5.3v6.4zM161.1 144.3c-.5-.1-1-.1-1.5-.1v-6.4c.5 0 1 .1 1.5.1v6.4zM158.8 144.2c-.5 0-1 .1-1.5.1v-6.4c.5-.1 1-.1 1.5-.1v6.4zM156.5 144.5c-.5.1-1 .3-1.5.3v-6.4c.4-.2 1-.3 1.5-.3v6.4zM163.5 153.8c-.5-.2-1-.3-1.5-.5V145.2s1 .3 1.5.3v8.3zm-2.4-.7c-.5-.2-1-.3-1.5-.3V145s1 .1 1.5.1v8zm-2.3-2.6V145c-.5 0-1.5.1-1.5.1V152.4c.5.1 1 .2 1.6.3m-2.4-2v-5.5l-1.5.3v6.5c.5 0 1 .1 1.5.2m-108.9-2.4v-4.2c-.4-.2-1.5-.3-1.5-.3v7.1l1.5-.3v-2.3zm-2.3-4.7c-.5-.1-1.5-.1-1.5-.1V152.9l1.5-.3v-7.5zm-2.3 8c-.5.1-1 .3-1.5.3v-8.3s1-.1 1.5-.1v8.1zm-2.4.6c-.5.2-1 .3-1.5.4v-8.4s1-.3 1.5-.3v8.3zM113 150.6c-1.5 5.2-6.2 9-12 9-5.7 0-10.5-3.8-12-9h-2.7v12.5c5.1 2.3 10.2 3.8 15.8 3.8h.1c4.9 0 9.2-1 13.5-2.6v-13.9l-2.7.2z"/></g><g id="New_Ball"><path class="st2" d="M96.2 151.6c2 1.1 3.9 1.6 5.1 1.8h.1c.1 0 .2 0 .3-.1.1-.1.2-.2.2-.3.1-2.1-.3-4-.6-4.7 0-.1-.1-.2-.2-.3-2.5-1.2-4.6-2.6-6.1-4-1.1-1-1.9-2.1-2.3-3.2-.1-.1-.2-.3-.3-.3-.2 0-.3.1-.3.2-.9 1.2-1.5 2.6-1.7 4.1v.3c1 2.8 3.1 4.9 5.8 6.5"/><path class="st2" d="M95.5 143.4c.1.1.2.1.3.1.1 0 .2-.1.3-.2 2.9-4 6.2-5.5 8.4-6 .2 0 .3-.2.3-.3s-.1-.3-.3-.3c-1.1-.3-2.3-.5-3.5-.5-1.5 0-2.9.3-4.3.9-1.3.6-2.5 1.4-3.6 2.4-.1.1-.2.3-.1.3.2.6.7 1.9 2.5 3.6"/><path class="st2" d="M96.7 144c-.1.2-.1.4.1.5 1.2 1 2.7 1.9 4.4 2.7h.2c.1 0 .3-.1.3-.2 1-1.2 4-4.1 8.8-4.8.1 0 .3-.1.3-.2.1-.1.1-.3 0-.3-.9-1.6-2.1-2.9-3.6-3.8-.1 0-.2-.1-.2-.1-.4 0-2.1 0-4.2 1-2.3 1-4.4 2.7-6.1 5.2M111.5 143.3c-.1-.2-.3-.3-.4-.3-.9.1-1.7.3-2.5.5-.1 0-.2.1-.3.2-.1.1-.1.2 0 .3.3.9.8 2.7.9 4.9.1 1.4-.1 2.6-.3 3.8-.2.8-.4 1.6-.8 2.3-.1.2 0 .3.1.5.1.1.2.1.3.1.1 0 .2 0 .3-.1 1.2-1.1 2.2-2.5 2.8-4 .8-2.7.9-5.6-.1-8.2M101.6 154.4c-.1-.1-.2-.2-.3-.2-1.2-.3-3.1-.7-5.1-1.7-2.3-1.2-4.2-2.9-5.6-4.9-.1-.2-.3-.2-.4-.2-.2.1-.3.2-.3.3.1 1.3.3 2.7.9 3.9.8 1.8 2.1 3.5 3.6 4.6 1.6 1.1 3.4 1.8 5.3 2.1h.1c.1 0 .3-.1.3-.2.9-1 1.4-2.2 1.6-3.6 0 0 0-.1-.1-.1"/><path class="st2" d="M107.6 144.4c0-.1-.1-.2-.2-.3s-.3-.1-.3 0c-2.7 1.2-4.3 2.9-4.9 3.6-.1.1-.1.3-.1.3.3.8.6 2.3.6 4.1 0 1.1-.1 2.2-.3 3.1-.3 1-.6 1.7-1 2.5-.1.1-.1.3 0 .4.1.1.2.2.3.2 1.1-.1 2.3-.3 3.4-.7.1 0 .1-.1.2-.1 1.1-1.1 2-2.4 2.6-3.9.4-1.2.7-2.6.7-4.1-.2-2.2-.7-4.2-1-5.1"/></g><g id="_x31_861"><path class="st0" d="M96.6 165v-3.3l-.9.3-.1-.6 1-.4h.7v4.1l-.7-.1zM98.2 161.9c0-.7.6-1 1.4-1 .9 0 1.4.4 1.4 1 0 .4-.3.8-.7 1 .5.3.8.5.8 1 0 .7-.6 1.1-1.5 1.1-1 0-1.5-.5-1.5-1.1 0-.4.3-.9.8-1-.4-.2-.7-.6-.7-1zm.6 2c0 .3.3.6.8.6s.8-.3.8-.6-.3-.5-1-.8c-.3.2-.6.4-.6.8zm1.4-2c0-.3-.3-.5-.7-.5s-.6.3-.6.5c0 .3.2.4.8.7.4-.2.5-.4.5-.7zM103.3 162.4c.7 0 1.2.4 1.2 1.2s-.6 1.4-1.5 1.4-1.5-.6-1.5-1.7c0-1.5 1-2.3 2.3-2.5l.1.6c-.8.2-1.5.5-1.6 1.3.4-.1.7-.3 1-.3zm-.1 2.1c.4 0 .7-.3.7-.7 0-.4-.3-.7-.7-.7-.3 0-.5.1-.8.3-.1.7.3 1.1.8 1.1zM105.7 165v-3.3l-.9.3-.1-.6 1-.4h.7v4.1l-.7-.1z"/></g></svg>