<?xml version="1.0" encoding="utf-8"?>
<!-- Generator: Adobe Illustrator 19.2.1, SVG Export Plug-In . SVG Version: 6.00 Build 0)  -->
<!DOCTYPE svg PUBLIC "-//W3C//DTD SVG 1.1//EN" "http://www.w3.org/Graphics/SVG/1.1/DTD/svg11.dtd">
<svg version="1.1" id="Layer_1" xmlns="http://www.w3.org/2000/svg" xmlns:xlink="http://www.w3.org/1999/xlink" x="0px" y="0px"
	 viewBox="0 0 226.8 153.2" style="enable-background:new 0 0 226.8 153.2;" xml:space="preserve">
<style type="text/css">
	.st0{display:none;}
</style>
<rect x="-14.4" y="-46.2" class="st0" width="283.5" height="283.5"/>
<g>
	<path d="M4.8,65.8c0,0,9.1-0.4,9.1-8.9C13.9,45.8,0,45.2,0,30.2C0,19,12.2,16,12.2,16c0.1,0,0.3,0,0.3,0.2c0,0.1,0,0.3-0.2,0.3
		c0,0-8.3,2.6-8.3,12.7c0,11.2,13,13.8,13.3,24.9c0.3,11.3-8,12.5-9.8,12.5c-1.9,0-2.8-0.4-2.8-0.4c-0.2-0.1-0.2-0.2-0.2-0.3
		C4.6,65.8,4.7,65.8,4.8,65.8z"/>
	<path d="M197.3,140.9c2.4-2.5,3.7-4.3,4.3-5.2l0,0c0-0.1,0.1-0.1,0.1-0.2l0,0c0,0,0-0.1,0-0.1l0,0c-1.4-3.7-3.1-7.1-4.7-10l0,0
		c-3.4-2.5-6.9-4.7-10.5-6.6l0,0c0,0-0.1,0-0.1,0l0,0c-0.2,0-0.3,0.1-0.3,0.3l0,0c0,0.1,0,0.1,0,0.2l0,0l0,0l0,0
		c0.2,0.3,0.4,0.6,0.7,1l0,0c0.8,1.2,2,3,3.4,5.2l0,0c2.3,3.9,4.7,9.5,6.6,15.4l0,0c0,0.1,0.2,0.2,0.3,0.2l0,0
		C197.2,141,197.2,140.9,197.3,140.9L197.3,140.9z"/>
	<path d="M225.1,91.6c0,0-0.1-0.1-0.3-0.4c-0.2-0.3-0.6-0.7-1-1.2c-0.8-1-1.9-2.5-3.2-4.2c-2.6-3.4-5.8-8-8.2-12.2
		c-3.8-6.5-7.8-15.1-9.5-18.8c3.8-3.8,5.7-6.8,5.9-7.2c0.1-0.1,0.1-0.2,0.1-0.3c0-0.1,0-0.2-0.1-0.3l-1-1.4
		c-4.6-6.2-7.8-11.8-9.2-14.5l-0.7-1.3c-0.1-0.2-0.2-0.3-0.5-0.3H196c-7.6,0-28.6-0.4-54.3-3.2c-28.7-3.1-51.6-9.1-56.3-10.3
		c-0.5-0.8-1-1.5-1.5-2.2c-2.7-0.2-5.2-0.9-6.9-1.9c7.7,8.1,12.1,20.4,11.9,32.5c-0.1,4.8-0.8,9.6-2.2,14.4
		c-2.1,7.3-6,13.2-11.4,17.7c-2.8,2.4-6,4.2-9.3,5.4c-3.7-7.5-7.3-13.5-9.8-17.6c1.5-0.2,3.5-0.5,5.6-1.1c4.2-1.2,9.4-3.5,13.8-8
		c2.9-3,5.4-7,7-12.1c0.9-2.9,1.3-5.7,1.3-8.5c0-8.2-3.6-15.5-8.8-21.2C70.1,7.8,63.2,3.6,55.9,1.5C52.3,0.5,48.6,0,44.8,0
		c-7.1,0-14.5,1.7-20.7,5.4c-6.2,3.7-11.3,9.7-12.8,17.8c-0.5,2.7-0.7,5.1-0.8,7.3c0,3.3,0.5,6.1,1.6,8.6c1.1,2.5,2.7,4.5,5,5.8
		c1.3,0.7,2.8,1.2,4.2,1.3c0,0.1,0,0.3,0.1,0.4c0.1,0.4,0.3,1.5,0.5,2.2c0.3,1.4,0.5,3.2,0.5,4.7c0,1.4-0.1,2.9-0.3,4.1
		c-0.1,0.7-0.2,1.3-0.3,1.6c-0.6-0.1-1.3-0.1-1.9,0c-1.7,0.3-4,1.1-4,1.1s6.3,3.9,13.5,10.9c6.3,6.1,8.7,10.8,9.2,11.9
		c0,0.1,0.2,0.2,0.3,0.2c0,0,0,0,0,0c0.7,0,3-0.2,5.8,0.1c2.7,0.3,4.9,0.9,5.6,1.1c0,0,0.1,0,0.1,0c0.1,0,0.2-0.1,0.2-0.2
		c0.1-0.7,0.2-2.8-0.6-4.8c-1.5-3.7-4-4.3-4.7-4.4h0c-0.1,0-0.2,0.1-0.2,0.2l-0.3,2.5c0,0,0,0,0,0c0,0.1,0.1,0.2,0.2,0.2h0
		c0.4,0,1.4,0,2.4,0.6c1.7,1,1.7,2.6,1.7,2.6s-1.8-0.7-4.6-1.1c-2.7-0.4-5.1-0.3-5.1-0.3s-2.1-4.3-6.4-10.2c-3.6-5-7.2-8.8-8.1-9.7
		c0.1-0.3,0.2-1,0.4-1.9c0-0.1,0-0.3,0.1-0.5c1.7-0.9,2.8-2.4,2.8-4.1c0-1.6-1.1-3.1-2.7-4c-0.1-0.5-0.1-1-0.2-1.4
		c-0.2-1.1-0.3-2-0.5-2.4c1-0.3,1.9-0.8,2.7-1.3c1.6-1.2,2.7-2.6,3.6-4.1c1.7-2.9,3-6.1,4.7-10.2c1.3-3.4,3.2-5.9,5.1-7.3
		c2.1-1.5,5-2.4,7.6-2.4h0c2.2,0,4.5,0.5,6.8,1.6c3.1,1.5,4.5,3.1,5.6,5.1c1,1.8,1.4,4,1.4,6v0.1v0c0,1.3-0.2,2.5-0.5,3.5
		c-0.2,0.5-0.3,0.9-0.5,1.4c-2.1-4.8-6.6-8.2-12.5-8.2c-8.5,0-14.7,5.7-14.7,15c0,8.3,6.7,13.9,8,14.9c0.1,0.1,0.2,0.1,0.3,0.1
		c0.1,0,0.1,0,0.1,0c0.3-0.1,0.6-0.2,0.9-0.3c1.2-0.4,2.4-1,3.5-1.6c0.1-0.1,0.1-0.1,0.1-0.2c0-0.1,0-0.1-0.1-0.2
		c-1.3-1.2-6.9-6.8-6.9-12.8c0-7.5,5.5-9.7,9-9.7c3.5,0,8.7,2.5,8.7,9.5c0,6.9-6.6,13.7-13.7,16.1c-7.1,2.4-14.6,1.3-14.6,1.3
		c-0.2,0-0.3,0.1-0.3,0.2c0,0.1,0,0.3,0.2,0.3c0,0,6.1,3.2,16.5,0.4c0.6-0.2,1.2-0.4,1.7-0.5c-0.1,1.5-0.2,4.9,0.6,9.6
		c0.9,5.3,3,9.5,3.3,10.1c0,0.1,0.1,0.1,0.2,0.1c0.1,0,0.1,0,0.2-0.1l1.7-2.7c0.1-0.1,0.1-0.2,0.1-0.2c0-0.1,0-0.1,0-0.2
		c-0.4-1.1-1.6-5.2-1.8-10c0.5,0.8,1,1.6,1.5,2.4c1.9,3.3,4.1,7.3,6.5,11.8c-0.7,0.1-1.4,0.2-2.1,0.2c0.8,1.6,1.6,3.2,2.4,4.9
		c0.7-0.1,1.3-0.2,2-0.3c1.1,2.4,2.2,4.8,3.3,7.4c6.8,16.1,10.2,29,10.6,30.5c0,0.1,0,0.1,0,0.1l0.7,2.7c0.1,0.2,0.3,0.4,0.5,0.4
		c0.1,0,0.1,0,0.2,0l2.5-0.9c2.1-0.7,4.2-1.1,6.3-1.1c2.8,0,5.5,0.6,8.2,1.9c3.3,1.6,5.6,4,7.2,7.1c1.6,3.2,2.5,7.1,2.5,11.4v0
		c0,0,0,0,0,0c0,1.2-0.1,2.5-0.2,3.7c0,0,0,0,0,0c0,0.2,0.1,0.3,0.3,0.3l0,0c0.1,0,0.1,0,0.2,0c3.3-1.7,4.9-3,5.5-3.5
		c0.1-0.1,0.2-0.2,0.2-0.4c0,0,0-0.1,0-0.1c0-5.1-1-10-3.1-14.1c-2.1-4.2-5.5-7.7-10-9.8c-3.4-1.6-7.1-2.5-10.7-2.5l0,0
		c-1.7,0-3.5,0.2-5.2,0.5c-1.4-5-4.7-15.7-10.1-28.5c-1-2.3-2-4.6-3-6.7c3.8-1.5,7.3-3.6,10.3-6.3c6-5.3,10.6-12.6,12.8-20.7
		c1.4-5.3,2.1-10.6,2.1-15.8c0-7-1.6-14.1-4.3-20.5c8.4,2.1,27.6,6.5,51.9,9.1c24.2,2.6,44.3,3.1,53.1,3.2c1.6,2.9,4.1,7.1,7.5,11.9
		c-0.9,1.1-2.3,2.6-4.4,4.7l-1.2,1.2c-0.1,0.1-0.1,0.2-0.1,0.3c0,0.1,0,0.1,0,0.2l0.7,1.6c0,0,5.4,12.2,10.6,21.2
		c3.9,6.7,9.2,13.7,11.8,16.9c-0.8,1.1-1.9,2.7-2.9,4.6c-2.2,4-4.5,9.8-4.5,16.5c0,5.4,0.6,10.5,1.5,15.2c-2.8-3.1-6.1-6.2-10.1-9.3
		C185.7,107,165,101,143.8,101h0c-8,0-14.8,1.1-20.2,2.7c-5.5,1.7-9.7,4-12.5,6.6c-1.9,1.8-3.3,3.7-3.9,5.9
		c-0.3,1.2-0.4,2.3-0.4,3.5l0,0l0,0c0,3.2,1,6.1,2.1,9c1.1,2.9,2.4,5.9,3.4,9.3c2,7,3,13.2,3.3,14.9c0,0.1,0.2,0.2,0.3,0.2l0,0
		c0.1,0,0.1,0,0.2-0.1c2.6-1.6,4-2.8,4.7-3.5c0.1-0.1,0.2-0.2,0.2-0.3c0,0,0-0.1,0-0.1c-0.6-2.9-1.5-7.6-3-12.8
		c-1.1-3.9-2.5-7.1-3.6-9.8c-1.1-2.7-1.8-5-1.8-6.8c0,0,0,0,0-0.1c0-0.7,0.1-1.3,0.3-2c0.2-0.7,0.8-1.8,2.1-3
		c1.3-1.2,3.3-2.5,5.9-3.7c5.2-2.3,12.9-4.1,22.8-4.1h0c20,0,39.4,5.7,55.6,18.2c10.4,8,15.9,16.8,18.6,22.1
		c1.3,2.4,1.8,3.8,2.2,4.5c0,0.1,0.2,0.2,0.3,0.2c0.1,0,0.2,0,0.2-0.1c2.5-2.6,3.3-3.9,3.8-4.7c0-0.1,0.1-0.2,0.1-0.3v0
		c0-0.1,0-0.2-0.1-0.2c-0.3-0.6-0.5-1-0.8-1.8c-0.6-1.5-1.4-3.3-2.1-5.4c-2.1-6.3-4.1-15.1-4.1-24.8v0c0-5.2,1.7-9.8,3.6-13.3
		c1.8-3.4,3.8-5.6,3.9-5.8l0,0l1.7-1.9L225.1,91.6z M27.4,53.9c-0.2,2.8-3.2,2.9-3.7,2.9c0.1-0.4,0.1-0.9,0.1-1.4
		c0.6,0,2-0.3,2.1-1.8c0.1-1.6-1.5-2.3-2.2-2.5c-0.1-0.5-0.1-1-0.2-1.5C24.1,49.8,27.6,50.8,27.4,53.9z M63,44.8c0,0,0-0.1,0-0.1
		c0.2-0.3,0.5-0.5,0.8-0.9c1-1.2,2.1-3.1,2.9-5.7c0.4-1.4,0.7-3.1,0.7-5v0c0-2.6-0.4-5.6-2.1-8.5c-1.5-2.6-3.8-5.2-7.8-7
		c-2.9-1.3-5.9-2-8.8-2h0c-3.6,0-7.4,1.1-10.4,3.2c-3.1,2.1-5.3,5.5-6.9,9.5c-1.6,4.1-2.9,7.1-4.3,9.6c-0.7,1.2-1.4,2-2.3,2.7
		c-0.8,0.6-1.8,0.9-2.9,0.9h0c0,0,0,0,0,0l0,0c-0.8,0-1.7-0.2-2.5-0.7c-1.2-0.7-2.2-1.8-2.9-3.5c-0.7-1.7-1.2-3.9-1.2-6.7
		c0-1.9,0.2-4,0.7-6.4c1.2-6.5,5.3-11.4,10.5-14.5c5.3-3.2,11.9-4.7,18.2-4.7c3.4,0,6.7,0.4,9.8,1.3C61,8,67.2,11.7,71.8,16.7
		c4.5,5,7.5,11.2,7.5,18c0,2.3-0.3,4.7-1.1,7.1c-1.3,4.3-3.4,7.6-5.8,10.1c-3.6,3.7-8,5.7-11.7,6.7c-3,0.8-5.6,1-6.9,1.1
		C59.3,56,63,50.5,63,44.8z"/>
</g>
</svg>
