<svg version="1.1" id="Everton" xmlns="http://www.w3.org/2000/svg" x="0" y="0" viewBox="0 0 1922 1966.8" style="enable-background:new 0 0 1922 1966.8" xml:space="preserve"><style>.st0{fill:#014593}.st1{fill:#fff}</style><path class="st0" d="M1921.7 1239.4c-.4-.9-1.2-1.7-2.2-2.1l-119.7-46.1c2.2-8.2 6.6-19.9 14.8-31.8l61.7 27.3c2 .9 4.1 1.3 6.3 1.3 5.6 0 10.8-3 13.6-7.9 1.7-2.6 6.4-10.3 10.4-20.4 6.2-16 7.6-30.3 4-42.4-3.7-12.6-12.7-22.3-26.1-28.2l-164.8-75.6c-.3-.1-.7-.3-1.1-.5l-.2-.1c-6.2-2.7-18.1-6.2-32.7-1.3.1-5.1.1-10.1.1-15.3 0-13-.5-26.4-1.2-39.8-.8-13.9-2-28-3.6-42.2-9.3-83.7-28.8-144.7-36.8-167.1l-2.7-7.5c-32.3-90.2-57.7-161.5-57.1-246.8.5-64.2 80.8-154.5 111.8-183.9l28.9-27.4-305-277.8-24 15.8c-55.8 36.7-128.1 56.9-203.4 56.9-79 0-153.8-21.9-210.6-61.7L960.9 0l-21.3 14.9C882.9 54.7 808.1 76.6 729 76.6c-75.4 0-147.6-20.2-203.4-56.9l-24-15.8-275.5 251-29.4 26.8 28.9 27.4c30.9 29.4 111.3 119.7 111.8 183.9.6 85.3-24.9 156.6-57.1 246.8l-2.7 7.4c-8 22.3-27.5 83.3-36.8 167.1-1.6 14.2-2.8 28.4-3.6 42.2-.8 13.4-1.2 26.7-1.2 39.8 0 5.1 0 10.2.1 15.2-14.5-4.8-26.3-1.3-32.5 1.4l-.3.1c-.4.2-.8.3-1.1.5l-164.8 75.6c-13.4 5.9-22.4 15.6-26.1 28.2-3.6 12.2-2.2 26.4 4 42.4 4 10.1 8.7 17.8 10.4 20.4 2.7 4.8 7.9 7.9 13.6 7.9 2.2 0 4.3-.4 6.3-1.3l61.7-27.3c8.2 11.9 12.5 23.6 14.8 31.8L2.5 1237.3c-1 .4-1.7 1.1-2.2 2.1-.4.9-.4 2-.1 3l7.2 18c74.8 187.1 202 347.1 367.7 462.6 153.9 107.4 334.2 170.2 521.5 181.6l61.6 61.1c.8.8 1.7 1.1 2.7 1.1 1 0 2-.4 2.7-1.1l61.6-61.1c187.3-11.5 367.6-74.2 521.5-181.6 165.7-115.5 292.8-275.5 367.7-462.6l7.2-18c.5-1 .5-2.1.1-3zM509.3 1533.7c-104.7-73-189.6-169-248.8-280.6l29.5-10.6c.9 1.8 1.8 3.6 2.8 5.3 6.6 12 13.8 23.7 21.6 34.8.8 1.2 1.9 2.7 3.2 4.7l.6.8C450.7 1487 645.8 1611 867.8 1637.5l35.5 35.5c-142-10.4-277.2-58-394-139.3zm903.4 0c-116.8 81.4-252.1 129-394.1 139.3l35.5-35.5c222-26.5 417.1-150.5 549.6-349.3l.5-.8c1.3-2 2.4-3.6 3.2-4.7 7.7-11.1 15-22.8 21.6-34.8 1-1.8 1.9-3.6 2.9-5.4l29.6 10.6c-59.3 111.6-144.1 207.6-248.8 280.6z"/><path class="st1" d="M1685.5 1019.9c5.4-2.2 10.4-3.1 14.8-3.1 6.4 0 11.6 1.7 14.9 3.1.5.2.8.4 1.1.5l164.9 75.6c11.3 4.9 18.8 13 21.8 23.3 3.9 13.1.1 27.6-3.8 37.5-3.8 9.7-8.5 17.2-9.8 19.2-2.1 3.6-6.4 5-10.1 3.5l-67.5-29.8-1.8 2.5c-9.8 13.3-14.9 26.6-17.6 36.1l-11-4.2c2.8-9.6 7.8-22.3 16.8-35.4l2.6-3.8-78.3-34.5c-3.8-1.6-5.6-6-4.2-9.7l1.3-3.1c6.5-14.6 8.8-30 6.5-43.1-2-11.3-7.4-19.9-14.8-23.6l-1-.5c-3.2-1.4-6.5-2.1-9.8-2.1-5.2 0-10.4 1.6-15.6 4.8.4-4.3.5-8.7.6-13.2zM248.9 957.2c.8-13.6 2-27.6 3.5-41.6 9.1-82.5 28.4-142.5 36.2-164.4l2.7-7.4c32.6-91.3 58.4-163.5 57.8-250.8-.5-68.3-83.5-162-115.4-192.3l-19.8-18.8 20.1-18.4L502.8 18.7l16.5 10.8C577 67.4 651.5 88.3 729.1 88.3c81.4 0 158.6-22.7 217.3-63.8L961 14.3l14.6 10.2c58.7 41.1 135.9 63.8 217.3 63.8 77.6 0 152.1-20.9 209.9-58.8l16.4-10.8L1708 281.9l-19.8 18.8c-31.9 30.3-114.9 124-115.4 192.3-.6 87.3 25.1 159.5 57.8 250.8l2.7 7.4c7.8 22 27.1 81.9 36.2 164.4 1.5 13.9 2.7 27.9 3.5 41.5.7 13.1 1.2 26.3 1.2 39.1.4 95.3-18.3 178-55.4 245.8-6.4 11.6-13.4 23-20.9 33.8-.9 1.2-2 2.9-3.3 4.9l-.6.8c-131 196.5-323.9 318.8-543.3 344.4l-2 .2-87.8 87.7-87.7-87.7-2-.2c-219.4-25.6-412.3-147.9-543.3-344.4l-.6-.8c-1.4-2.1-2.5-3.7-3.3-4.9-7.5-10.8-14.5-22.1-20.9-33.8-37.1-67.8-55.8-150.5-55.4-245.8.1-12.7.5-25.8 1.2-39zM111.9 1152.3l-1.9-2.5-67.5 29.8c-3.6 1.6-8 .2-10.1-3.5-1.3-2-6-9.5-9.8-19.2-3.9-9.9-7.7-24.4-3.8-37.5 3-10.3 10.6-18.4 21.8-23.3l164.9-75.6c.3-.2.6-.3 1.1-.5 3.3-1.4 8.5-3.1 14.9-3.1 4.4 0 9.3.8 14.7 3 .1 4.5.3 8.9.5 13.3-5.2-3.1-10.4-4.7-15.5-4.7-3.3 0-6.6.7-9.8 2.1l-1 .5c-7.4 3.7-12.8 12.3-14.8 23.6-2.3 13.1 0 28.5 6.5 43.1l1.3 3.1c1.5 3.7-.4 8.1-4.2 9.7l-78.3 34.5 2.6 3.8c9 13.1 14 25.8 16.8 35.4l-11 4.2c-2.5-9.5-7.6-22.9-17.4-36.2z"/><path class="st1" d="M1907.3 1257.5c-74.3 185.7-200.4 344.5-364.9 459.2-153.1 106.8-332.6 169.2-519 180.3-.9.1-1.8.5-2.5 1.1l-59.9 59.4-59.9-59.4c-.7-.7-1.6-1.1-2.5-1.1-186.4-11.1-365.8-73.5-519-180.3C215.2 1602.1 89 1443.3 14.7 1257.5l-5.8-14.4 227-87.3c6-2.3 12.2-.3 15.7 4.9l.2.4c1.4 2.3 4.6 6.7 8.7 10.7 1.9 6 3.9 11.9 6 17.7-11.8-4.5-20.3-15.7-23.6-20.7l-.8-1.2c-.4-.6-1-.9-1.8-.9-.3 0-.6.1-.8.2l-16.1 6.2-7.2 2.8 1.3 3.3c.5 1.3 1 2.5 1.5 3.7 6.7 16.5 14 32.6 21.7 48.5 1.1 2.3 2.3 4.7 3.4 7l7.4-2.6 29.7-10.7 5.1 10.5-29.5 10.6-7.4 2.7 3.6 6.9c59.8 113.1 145.6 210.4 251.7 284.3 120.3 83.8 260 132.1 406.7 141.2l12.5 12.5c-153.6-7.1-300.2-56.5-426-144.1-131.2-91.4-231.9-218-291.4-366.1l-1.3-3.3-180.9 69.6 1.4 3.4c73.4 183.6 198.1 340.6 360.7 453.9 153.1 106.8 332.5 168.5 518.8 178.5l53.1 52.7 2.6 2.5 55.8-55.3c186.3-10 365.7-71.7 518.8-178.5 162.6-113.3 287.3-270.3 360.7-453.9l1.4-3.4-180.9-69.6-1.3 3.3c-59.4 148.1-160.2 274.7-291.4 366.1-125.8 87.6-272.5 137.1-426.2 144.1l12.5-12.5c146.7-9.1 286.4-57.4 406.8-141.2 106-73.9 191.9-171.2 251.7-284.3l3.6-6.9-7.4-2.7-29.6-10.6c1.7-3.5 3.4-6.9 5.1-10.5l29.8 10.7 7.4 2.6c1.1-2.3 2.3-4.6 3.4-7 7.7-15.9 15-32.1 21.7-48.5.5-1.2 1-2.5 1.5-3.7l1.3-3.3-7.2-2.8-16.1-6.2c-.3-.1-.5-.2-.8-.2-.7 0-1.4.4-1.7.9l-.8 1.2c-3.3 5-11.9 16.4-23.8 20.8 2.1-5.8 4.1-11.6 6-17.6 4.2-4 7.5-8.5 8.9-10.9l.2-.4c3.5-5.2 9.7-7.2 15.7-4.9l227 87.3-5.7 14.5z"/><path class="st1" d="M965.6 1824.8c2.2 0 3.3 1.7 3.2 3.6l-.1 7.2c0 1.6-1.1 3.1-3.1 3.1l-35.2-.5c-2.1 0-3.4-1.5-3.4-3l.1-7.3c0-2.4 1.4-3.5 3.5-3.5l6.3.1 1-66.6-7.3-.1c-2.2 0-3.3-1.7-3.2-3.6l.1-7.2c0-1.6 1.1-3.1 3.1-3.1l36.7.5c2.1 0 3.4 1.5 3.4 3l-.1 7.3c0 2.4-1.4 3.5-3.5 3.5l-7.4-.1-1 66.6 6.9.1zM897.2 1747l-10.7 85.3c-.4 3.5-2 4-4.5 3.7l-11.6-1.4c-2.5-.3-4.4-1.5-5.6-3.7l-33.9-58.6h-.3l-6.6 52.5c-.4 3-1.9 3.9-4.6 3.5l-12.7-1.6c-3.1-.4-4.4-1.2-4-4.5l10.7-85.6c.4-3.5 2.2-4 5-3.6l11.4 1.4c2.7.3 4 1.3 5.2 3.5l33.8 59h.3l6.6-52.9c.4-3 2-3.7 4.7-3.4l13.2 1.6c3.9.6 3.9 2.5 3.6 4.8zM704.1 1740.1l13 11.3c8.9 7.8 13.5 16.8 9.9 28.7-5.7 18.8-24.1 25.2-42.1 19.8-8.5-2.6-18.4-7.3-26-12.9-1.9-1.3-2.3-2.4-1.9-3.6.2-.6.7-1.4 1.2-2.1l6.7-9.5c.8-1.2 1.8-2.2 3.5-1.6.7.2 1.3.5 2.1 1.2 5.7 4.4 12.6 8.2 19.3 10.2 5.5 1.6 13.3.9 15.3-5.5 1.5-4.9-1.7-8.6-5.2-11.6l-15.1-13.3c-8.4-7.3-12.4-17.3-9-28.3 5.1-16.7 24.7-21 40.1-16.4 9.5 2.8 17.1 6.9 24.3 12.9 1.8 1.5 2.3 2.7 2 3.9-.2.5-.6 1.1-1.1 1.8l-7.2 8.9c-1.2 1.5-2.2 1.9-3.3 1.6-.7-.2-1.4-.7-2.2-1.4-4.7-3.9-11.2-7.9-16.6-9.5-5.3-1.6-11.8-1.4-13.6 4.7-1.4 4.1 3 8.3 5.9 10.7zM626.8 1763.7c2 .8 2.4 2.7 1.7 4.5l-2.7 6.7c-.6 1.5-2.2 2.5-4 1.8l-32.7-13.1c-1.9-.8-2.6-2.7-2.1-4l2.8-6.8c.9-2.3 2.6-2.8 4.5-2l5.8 2.3 25.1-61.8-6.7-2.7c-2-.8-2.4-2.7-1.7-4.5l2.7-6.7c.6-1.5 2.2-2.5 4-1.8l34.1 13.6c1.9.8 2.6 2.7 2.1 4l-2.8 6.8c-.9 2.3-2.6 2.8-4.5 2l-6.9-2.7-25.1 61.8 6.4 2.6zM525.1 1646.9c-2.4-1.3-2.8-3-1.5-5.4l4.7-8.9c1.1-2 2.7-2.4 4.9-1.3l59.2 30.7 6.2 3.2c2.2 1.1 2.5 2.5 1.7 4.1-.1.1-.1.2-.3.5l-6 9c-1.5 2.3-3.4 2.1-6 .7l-21.4-11.1-34.2 65c-1.4 2.7-2 2.9-4.4 1.7l-13.7-7.1c-2.6-1.3-2.6-1.8-1.3-4.3l34.4-65.2-22.3-11.6zM500.1 1610.5l-11.8-7.6c-2.2-1.4-4-.9-5.8.3l-75.3 55.4c-.5.3-.8.8-1.1 1.2-.7 1-.6 2.2.6 3l13.1 8.5c2.1 1.3 3.8.7 5.2-.5l13.6-10.7 4 2.6 20.2 13.1 4.1 2.7-4.1 16.2c-.6 2.4-.4 4.3 2.4 6.1l12.9 8.3c1.6 1 3 .6 3.9-.7.3-.5.6-1.1.8-1.9l19.7-90.6c.5-2.1-.1-3.9-2.4-5.4zm-21.6 23.9-7.5 27.1-18.8-12.2 21.9-17.7c2.4-1.9 4.6-3.7 6.5-5.4l.2.1c-.7 2.5-1.4 5.1-2.3 8.1zM387.9 1601.8l-8.9-18c-5-9.9-4.8-20.7 2.4-29.6 11-13.5 30.9-10.2 43.4-.2 7.7 6.2 13.2 12.8 17.6 21.1 1.1 2.1 1.1 3.4.4 4.3-.3.4-1 .8-1.7 1.2l-10 5.6c-1.7 1-2.7 1-3.7.2-.5-.4-1-1.2-1.5-2.1-2.8-5.4-7.4-11.5-11.7-15-4.3-3.4-10.4-5.7-14.4-.7-2.8 3.4-.2 8.9 1.5 12.2l7.8 15.3c5.3 10.6 6.1 20.6-1.7 30.3-12.4 15.2-31.9 14.3-46.5 2.6-6.9-5.6-14.2-13.7-19.2-21.7-1.3-1.9-1.2-3.1-.4-4 .4-.5 1.2-1 1.9-1.5l9.9-6.3c1.2-.8 2.5-1.3 3.9-.2.5.4 1 1 1.5 1.9 3.6 6.2 8.5 12.3 14 16.6 4.5 3.6 12 5.8 16.2.6 2.9-3.8 1.3-8.4-.8-12.6zM294 1542.6c1.8 1.9 1.5 3.8-.3 5.5l-7.7 7c-2.2 2-4.1 1.4-5.7-.3l-35.3-38c-1.9-2.1-2.5-3.7.3-6.1l63.9-58.4c1.8-1.7 3.7-1.7 5.4.2l9.4 10.1c2 2.2 2.1 3.6-.2 5.8l-53.4 48.8 23.6 25.4zM226 1472.6c1.3 1.7.7 3.6-.8 4.7l-5.8 4.4c-1.3 1-3.2 1-4.3-.5l-21.5-27.7c-1.3-1.6-.9-3.6.3-4.5l5.9-4.5c2-1.5 3.7-1.1 4.9.5l3.8 5 53.3-40.6-4.4-5.7c-1.3-1.7-.7-3.6.8-4.7l5.8-4.4c1.3-1 3.2-1 4.3.5l22.4 28.9c1.3 1.6.9 3.6-.3 4.5l-5.9 4.5c-2 1.5-3.7 1.1-4.9-.5l-4.5-5.8-53.3 40.6 4.2 5.3zM186 1338.7l-45.4 27.7c-2.6 1.6-4.2 1-5.7-1.3l-6.7-10.8c-1.7-2.7-1.8-4.2 1-5.9l74-45.2c3-1.9 4.5-.8 6 1.6l6 9.7c1.4 2.3 1.5 3.9.5 6.2l-25.3 63 .1.2 45.8-27.9c2.6-1.6 4.2-.8 5.6 1.5l7 11.2c1.9 3 .4 4.2-1.6 5.5l-73.8 45c-3 1.9-4.4.9-5.7-1.2l-6.1-9.8c-1.3-2.1-1.6-4.3-.6-6.7l25-62.8h-.1zM1021.5 1767.2c.3 4.3 6 6.6 9.6 7.8l16.3 5.8c11.2 4 18.7 10.8 19.7 23.1 1.6 19.5-13.2 32.1-32 33.6-8.9.7-19.8-.2-29-2.6-2.2-.5-3-1.4-3.1-2.6-.1-.7.2-1.5.4-2.3l2.8-11.3c.3-1.4.9-2.7 2.7-2.8.7-.1 1.4 0 2.4.4 6.9 2 14.7 3.1 21.7 2.5 5.7-.5 12.7-4 12.2-10.6-.4-5.1-4.7-7.4-9.1-9l-19-7c-10.5-3.8-17.9-11.7-18.8-23.1-1.4-17.3 15.3-28.5 31.3-29.8 9.8-.8 18.5.3 27.4 3.3 2.3.8 3.2 1.7 3.3 2.9 0 .5-.2 1.2-.4 2.1l-3.4 10.9c-.5 1.8-1.3 2.6-2.5 2.7-.7.1-1.5-.2-2.5-.5-5.8-2-13.3-3.3-18.9-2.9-5.7.5-11.7 3-11.1 9.4zM1132.1 1809.1l6.8-1.2c2.2-.4 3.5 1 3.9 2.9l1.2 7.1c.3 1.6-.5 3.3-2.4 3.6l-34.7 6c-2 .3-3.6-.9-3.9-2.4l-1.3-7.2c-.4-2.4.7-3.7 2.8-4.1l6.2-1.1-11.5-65.6-7.2 1.2c-2.2.4-3.5-1.1-3.9-2.9l-1.2-7.1c-.3-1.6.5-3.3 2.4-3.6l36.2-6.2c2-.3 3.6.9 3.9 2.4l1.3 7.2c.4 2.4-.7 3.7-2.8 4.1l-7.3 1.3 11.5 65.6zM1290.7 1730.1c-8.9-26.2-29.3-41.6-56.5-32.5-25.9 8.6-35 33.2-25.6 60.8 9.4 27.7 30.4 41.2 56.5 32.5 24.4-8.2 35.4-31.8 25.6-60.8zm-30.9 43.2c-12.3 4.1-22.4-2.4-29.3-22.8-6.5-19.1-2.2-31.6 9.1-35.3 12.3-4.1 22.1 2 29.1 22.7 6.8 20 2.5 31.6-8.9 35.4zM1456 1696.6c1.5 2.6 1.5 3.2-.9 4.6l-13.3 7.9c-2.5 1.5-2.9 1.3-4.4-1.2l-38-63.2-21.5 12.8c-2.4 1.4-4 .8-5.4-1.6l-5.2-8.6c-1.2-2-.7-3.5 1.4-4.8l57.3-34 6-3.6c2.1-1.3 3.5-.8 4.4.7.1.1.1.2.3.5l4.6 9.8c1.2 2.5 0 4-2.5 5.4l-20.7 12.3 37.9 63zM1525.8 1636.8l5.5-4c1.8-1.3 3.6-.6 4.8.9l4.3 5.8c1 1.3 1 3.2-.6 4.3l-28.3 20.8c-1.7 1.2-3.7.8-4.6-.4l-4.4-5.9c-1.5-2-1-3.7.6-4.9l5.1-3.7-39.9-53.6-5.9 4.3c-1.8 1.3-3.6.6-4.8-.9l-4.3-5.8c-1-1.3-1-3.2.6-4.3l29.6-21.7c1.7-1.2 3.7-.8 4.5.4l4.4 5.9c1.5 2 1 3.7-.6 4.9l-6 4.4 40 53.5zM1566.4 1501.2c-.8-2.4-.6-4.5 1.6-6.5l7-6.5c2-1.8 3.4-1.8 5.1-.1l62.7 60.7.3.3c1.8 1.9 1.7 3.6-.1 5.3l-10.1 9.2c-2.6 2.4-4.4 1.7-7.1-1.1l-33-33.3-.2.2 18.5 50.1c1.1 2.7-.1 4.1-1.4 5.3l-3.7 3.4c-1.9 1.8-3.3 2.5-6.2 1.4l-51-20.1-.2.2 32.2 35.8c2.6 2.8 1.6 4.3-.5 6.2l-8.3 7.6c-2.3 2.1-4.2 2.3-6.1.2l-.3-.3-55.9-65.4c-2.1-2.5-1.8-4.3.1-6.1l7.3-6.6c2.3-2.1 4-2.2 6.6-1.1l64.3 24.8.2-.2-21.8-63.4zM1673.3 1452.9l-36.5-30.1c-2.1-1.7-1.7-3.5-.1-5.4l8.7-10.4c1.7-2 3.1-2.6 5.3-.8l37.5 30.9c23.7 19.5 24.2 40.3 7.4 60.3-18 21.5-38 21.5-60.4 3.1l-37.6-31c-2.1-1.7-1.6-3.6 0-5.5l8.7-10.4c1.7-2 3.1-2.6 5.3-.8l36.4 30c16.6 13.6 26 11.9 34.2 2.2 7.6-9 7.4-18.7-8.9-32.1zM1708.2 1319.6c-1.4-2.1-1.8-4.1-.2-6.7l5.1-8.1c1.5-2.3 2.8-2.6 4.9-1.4l76.6 42.2c.1.1.2.1.3.2 2.2 1.4 2.6 3.1 1.3 5.1l-7.3 11.5c-1.9 3-3.8 2.7-7.2.8l-40.7-23.5-.1.2 31.1 43.5c1.7 2.4 1 4 .1 5.5l-2.7 4.3c-1.4 2.2-2.5 3.2-5.6 2.9l-54.5-6.1-.1.2 40.6 26.2c3.3 2 2.7 3.7 1.1 6.2l-6 9.5c-1.7 2.6-3.4 3.3-5.8 1.8-.1-.1-.2-.1-.3-.2l-71.3-48.5c-2.7-1.8-2.8-3.7-1.5-5.9l5.2-8.3c1.7-2.6 3.3-3.1 6.1-2.8l68.6 7.1.1-.2-37.8-55.5zM1366.9 1677.9c-3.1-6.5-8.5-12.3-15.3-15.2-9.6-4-20.7-1.9-35.1 4.8l-19.4 8.9c-2.9 1.3-3.4 2.5-1.9 5.5l36.5 77.9c1.4 3 3.2 3.2 5.4 2.2l12.4-5.7c2.9-1.3 3.1-3 2.2-5.1l-11.9-25.4c1.4-.5 5.4-2 7-2.8 19.2-8.7 29.4-25.3 20.1-45.1zm-27.3 30.1c-1 .5-5.1 2.3-6.8 3l-12.5-26.8 6.1-2.8c9.3-4.3 16.6-2.9 21 6.5 4.2 8.9 1.5 15.8-7.8 20.1z"/><path class="st0" d="M189.8 1098.1c-6-15.6-8-31.7-5.5-45.5l.6-3 1.7-7.6-141 64.7c-8.3 3.6-13.3 8.9-15.4 16-4.4 14.9 4.9 34.3 9 41.9l1.7 3.1 150.3-66.2-1.4-3.4zM1732.2 1098.1c6-15.6 8-31.7 5.5-45.5l-.6-3-1.7-7.6 141 64.7c8.3 3.6 13.3 8.9 15.4 16 4.4 14.9-4.9 34.3-9 41.9l-1.7 3.1-150.3-66.2 1.4-3.4zM1670.8 282.3 1416.6 50.7c-59.7 39.2-138 63-223.8 63-89.7 0-171.2-25.9-231.8-68.4-60.6 42.5-142.1 68.4-231.8 68.4-85.8 0-164.1-23.8-223.8-63L251.1 282.3s122.6 116.2 123.3 210.5c.7 94.3-27.5 170.7-61.9 267-12.9 36.2-27.6 93.1-34.9 158.7-1.5 13.1-2.6 26.5-3.4 40.2-.7 12.4-1.1 25-1.2 37.8-.3 78.3 12.9 161.6 52.3 233.5 5.9 10.8 12.4 21.3 19.5 31.4 20.6 29.5 186.8 304.8 540 340.6l1.3 1.2 74.9 74.9 74.9-74.9 1.2-1.2c353.2-35.9 519.4-311.1 540-340.6 7.1-10.2 13.6-20.7 19.5-31.4 39.4-71.9 52.6-155.2 52.3-233.5 0-12.8-.5-25.4-1.2-37.8-.8-13.7-1.9-27.1-3.4-40.2-7.2-65.5-21.9-122.4-34.9-158.7-34.4-96.3-62.6-172.7-61.9-267 .6-94.3 123.3-210.5 123.3-210.5z"/><path class="st1" d="m791.1 508.4 152.5-323.9c-5.7-12.1 3.8-27.6 15.7-27.6s23 15.4 17.4 27.4l153.6 322.4c25.9 12.7 37.3 28.7 36.1 39.2-1.3 11.4-9.6 18.8-19.1 22.4.6 58.4-2 265.7-1 384 12.9 2.9 12.8 16.5 12 61.5-.8 42.8 2.7 57.1-25.5 57.1-3.8 0-11.2-.3-11.2-.3v-14.7c-.3-7.2-.5-9.5-4.5-11-11.9-4.7-24.5-9.1-38.3-14.3-9.6-3.7-300.7-107.4-300.7-107.4s-13.2-4.1-13.2-16.9c0-1.2-.1-12.4-.1-16.3 0-15.7-.1-25.3-.1-41.5 0-10.6 7-14.7 13.2-13.8.4.1.3-1.1.3-1.7-.2-38.6-.4-239.1-.6-260.1-13.5-4-17.1-13.7-17.1-13.7-6.4-13.8.2-34.5 30.6-50.8z"/><path class="st0" d="M904.1 876.9c-65.1-22.6-94.5-34.4-95.2-53.3-.4-11.7-2-60.3-.8-72.6l-1.2-181.1c-.1-5.4 8.7-8.5 16.7-10.5 7.7-1.9 55.6-12.5 135.8-12.5 80.2 0 136.3 9.6 150.7 15.4 3.2 1.3 7 2.8 9.3 4.7l.2 15.6c-13.6-1.9-65.4-9-87.5-10.5-10.2-.7-23.5-1.2-36.5-1.5-.1-1.4-.6-2.7-1.5-3.7-1.1-1.2-2.5-1.9-4.1-1.9-28.3-1.2-38.3-1.2-67.1 0-1.6.1-3.1.8-4.1 1.9-1.1 1.2-1.6 2.7-1.5 4.3l3.8 69.1c-1.2.1-2.2.1-3.1.2-14.1 1.1-70.6 9.1-74.4 10.1-5.2 1.3-6.4 2.8-6 4.7.7 3.1 4.8 2 8.9 1.5 28.1-3.2 53.4-4.9 75.1-5.7l.6 11c.2 3.1 2.8 5.6 5.9 5.6h.2c24-1 32.2-1 56.2 0 3.2.1 5.9-2.3 6.1-5.6l.6-10.9c9 .4 13.9.9 13.9.9 40.3 3.5 93 11.2 115.7 24.9l.2 16.3c-13.2-2.9-47.2-9.9-59.7-10.8-15.6-1.2-23-.4-25.6 0-2.6.4-4.8 1.9-4.5 3.9.4 1.9 2.6 3.1 5.9 3.5 3.2.4 53.3 2.2 84.1 23.1l.2 16.5c-17.7-3.5-76.3-14.8-117-16.8-53.2-2.5-119.5 3.9-124.7 4.7-5.2.7-7.8 2.3-7.4 5 .4 2.8 1.3 4.1 8.6 3.5 5.3-.4 101.9-3.9 152.6 3.5 41.3 6 69.7 12.8 88.2 21.7l.2 20.8c-16.4-3.4-52.3-10.3-70.6-11.8-38-3.2-62.1-2.6-66.2-2.6-3.8 0-5.3 1.7-5.1 4.1.2 2.9 2.9 2.9 5.5 2.9 5 .2 33 .9 64 5.7 20.3 3.1 51.8 8.1 72.7 18.9l.3 21.1c-10.9-1.3-32.3-3.6-41.4-3.9-12.3-.4-22.5-.1-26.4.8-2.5.6-3.9 2.3-3.6 3.8.4 1.6 1.7 2.8 4.3 2.8 2.6 0 20.9 1.2 34.6 3.5 10.9 1.8 23.8 5.7 32.6 10 0 0 .1 20.6.1 27.4 0 .8-23.4-7.3-46.6-8.8-21-1.3-40.9-1-56.7.3-1.4.1-5.9.9-5.8 4.7.1 4.2 4.9 3.4 7.2 3.5 12 .4 21.8 0 42.8 2.1 30.5 3 59.3 12.8 59.3 13.4 0 8.4.1 16 .1 26 0 .4-13.1-3.7-33.6-6.5-8.4-1.1-23.1-2.7-28.6-2.2-3.8.3-7.3 1-7.4 4.4-.2 4.9 8.4 5 11.4 5.3 3.2.4 12.3 1 28 3.6 12.8 2.1 30.2 7 30.2 7.4 0 21.6-.1 39.1-.1 39.1-64.9-18.2-150.7-44.7-218.8-70zM961.4 220c5.1 11 10.9 23.2 16.9 36.1-5.3.3-15.8 1.2-22.5 2.7-3.9.9-4.6 2.3-4.6 3.7 0 1.2 1.6 3.2 5.7 3.3 8.4.2 20.4.7 26.5 1.1 1.9 3.8 3.6 7.8 5.5 11.7-4.4 1.3-10.7 3.2-12.5 3.9-2.8 1.1-5.7 2.1-5.4 4.2.2 1.8 3.2 2.1 5.6 2.4 5.3.7 13.1 1.2 17.7 1 3.1 6.6 5.3 11.3 8.4 18 1.9 4.2-3.9 5-8.9 5.3-5.9.4-20.9.4-28 1.3-2.8.3-3.9 1.9-3.9 3.5 0 1.5 2.1 2.8 4.8 3 10.2.6 22.8 1.6 29.5 2.9 5.5 1.1 11.8 2.5 15.8 4 2 4.1 3.8 8.2 5.7 12.3 1.1 2.3-2.1 3.5-4.4 3.7-3.8.3-20.9-.7-30.1.1-4 .4-4.9 1.4-4.9 3.4 0 1.5.8 2.4 4.7 3 7.3 1.2 21.9 1.8 26.6 2.5 4.9.8 11.3 2.5 16.4 4.7 3.1 6.8 5.1 11 8.2 17.6 1.3 2.7-.5 3.6-2.2 3.8-2.7.2-33.6.6-36.3.7-3.2.2-6.7 1.1-7.2 3.7-.4 2 2.3 4.9 9.5 5.3 7.2.4 34.2 2 48.2 12 3.8 8.1 7.5 16 11 23.5-10.6-1-47.3-4.1-64.1-3.6-14.4.4-20.4 0-20.9 2.9s2.5 4.2 11.6 5.1c8.7.9 56.5 3.7 81.8 13.5 5 10.6 9.4 20 13.2 28.1-13.3-2.7-44.2-7.3-63-7.7-7.2-.2-10 1.4-10 4.4 0 3.1 6.5 3.4 10.9 3.9 23.4 2.3 56.5 10.3 69.4 15.2 1.4 2.9 2.4 5.2 3.3 7-42.5-8.8-103.2-13.1-130-13.1-26.5 0-83.6 3.8-126.3 13.9 12.1-25.6 87.5-186.8 128.3-274zM1065.8 945.1c-13.1-3.9-19.7-5.9-32.9-9.9-1.3-.4-2.4.4-2.4 1.7-.1 23-.1 34.8-.2 56.7 0 1.3 1 2.7 2.3 3.1 13.2 4.6 19.7 6.8 32.9 11.4 1.3.5 2.4-.2 2.4-1.5.1-22 .1-34.2.2-58.2 0-1.4-1-2.9-2.3-3.3zM1010.8 928.4c-13.2-4.1-19.8-6.2-33-10.4-1.3-.4-2.4.3-2.4 1.5-.1 21.8-.1 33.2-.2 54.9 0 1.3 1 2.7 2.3 3.1 13.2 4.6 19.8 6.9 32.9 11.5 1.3.5 2.4-.2 2.4-1.5.1-21.9.1-33.5.2-56 .2-1.3-.9-2.7-2.2-3.1zM900.5 892.1c-13.2-4.6-19.8-7-33.1-11.8-1.3-.5-2.4.1-2.4 1.4v53.7c0 1.3 1.1 2.7 2.4 3.1 13.2 4.7 19.8 7 33 11.7 1.3.5 2.4-.2 2.4-1.5 0-21.6 0-32.5.1-53.7 0-1.1-1.1-2.5-2.4-2.9zM845.3 872.2c-13.2-4.9-19.8-7.3-33-12.3-1.3-.5-2.4.1-2.4 1.4v54.9c0 1.3 1.1 2.7 2.4 3.1 13.2 4.5 19.8 6.8 33 11.4 1.3.5 2.3-.2 2.3-1.5v-54c0-1.1-1-2.5-2.3-3zM955.7 910.8c-13.2-4.3-19.8-6.6-33-11.1-1.3-.4-2.4.2-2.4 1.4 0 21.2-.1 32.2-.1 53.8 0 1.3 1 2.7 2.3 3.1 13.2 4.7 19.8 7 33 11.7 1.3.5 2.3-.2 2.4-1.4.1-21.7.1-32.9.2-54.5 0-1.2-1.1-2.6-2.4-3z"/><path class="st0" d="M1045.5 606.9c3-.4 16.4-.4 33.9 1.9 13 1.7 31.8 5.8 40.5 7.8l-.2-15.1c-17.8-7.3-58.6-14.7-80.5-17.5-13.6-1.8-29.2-3.2-44.2-4.3l-3.2 58.6c7.9.1 13 .3 13 .3 9.9.4 20.1 1 30.3 2 38.4 3.8 71.1 11 85.2 14.4l-.3-21c-22.1-18.5-72.5-19.8-75.3-19.8-3 0-5.9-.8-5.9-3.5.1-3.3 3.7-3.5 6.7-3.8zM807.8 546.2c6.8-1.6 57.9-19.9 151.6-19.9 93.7 0 149.5 20.2 156.2 23.2 7.2 3.3 14.1 5.4 17.2 0 3.1-5.5-.6-12.5-5.8-15.8-20.3-13.1-92.3-29.4-167.7-28.6-75.3.7-151 17.2-161.5 21.6-10.4 4.3-14.9 10.4-11.5 16.8 5.3 9.8 14.7 4.4 21.5 2.7zM1120.7 961.5c-13.1-3.9-19.7-5.9-32.8-9.8-1.3-.4-2.3.5-2.3 1.9-.1 24.6-.1 36.9-.1 59 0 1.3 1 2.7 2.3 3.1 13.2 4.6 19.8 6.8 32.9 11.4 1.3.5 2.4-.2 2.4-1.5v-60.8c-.1-1.4-1.2-2.9-2.4-3.3zM940.4 655.6c17.1-.4 38.7 0 38.7 0l4-75.6c-17.9-1.1-47.1.4-47.1.4l4.4 75.2z"/><path class="st1" d="M717 400c-7.3-1.7-17.4.5-26.9 6.7-9.6 6.1-16.3 14.7-18.6 22.6 7.3 1.7 17.4-.5 26.9-6.7 9.5-6.1 16.3-14.7 18.6-22.6zM677.6 262.8c.9-8.2-1.9-19.2-8.2-29.3-6.3-10.1-14.5-16.9-21.8-18.8-.9 8.2 1.9 19.2 8.2 29.3 6.3 10.1 14.6 16.8 21.8 18.8zM678.1 298.6c-1.2 7.4.9 17.3 6.1 26.7 5.2 9.4 12.3 15.9 18.7 18 1.2-7.3-.9-17.3-6.1-26.7-5.2-9.3-12.2-15.8-18.7-18zM692.5 275.2c4.6-6.5 7.4-17.5 6.7-29.7-.6-12.3-4.5-22.8-9.8-28.7-4.6 6.5-7.4 17.5-6.7 29.7.7 12.3 4.5 22.9 9.8 28.7zM706.6 332.8c7-2.8 14.5-10.6 19.7-21.4 5.2-10.8 6.9-22 5.1-30.1-7 2.9-14.5 10.6-19.7 21.4-5.2 10.8-6.8 22-5.1 30.1zM670.3 285.7c7.7 6.9 16.4 10.4 23.1 10.1-1.1-7.4-6-16-13.7-22.9-7.7-6.9-16.3-10.4-23-10.1 1 7.4 5.9 16 13.6 22.9zM701.5 310c5.9-5.2 10.8-15.1 12.7-27.2 1.9-12.1.3-23.3-3.7-30.4-5.9 5.2-10.8 15.2-12.6 27.2-2 12.1-.4 23.4 3.6 30.4zM735.9 364.9c-7.3-1.7-17.4.5-26.9 6.7-9.5 6.1-16.3 14.7-18.6 22.6 7.3 1.7 17.4-.5 26.9-6.7s16.2-14.8 18.6-22.6zM721.4 355c7.1-9.4 10.7-20.1 10.5-28.4-7.4 1.2-16.1 7.2-23.2 16.6-7.1 9.4-10.7 20.1-10.5 28.4 7.4-1.2 16.2-7.2 23.2-16.6zM678.3 400.5c5.8-5.2 10.7-15.2 12.5-27.3 1.8-12.1.2-23.3-3.8-30.4-5.8 5.2-10.7 15.2-12.5 27.3-1.8 12.1-.2 23.3 3.8 30.4zM676.9 435.2c-10.9 2.2-19.8 7.7-24.5 14.2 6.4 4.3 16.5 6 27.4 3.9 10.9-2.2 19.8-7.7 24.4-14.2-6.3-4.4-16.4-6.1-27.3-3.9zM478.3 394.1c-2.3-7.9-9.1-16.4-18.6-22.6-9.5-6.1-19.6-8.4-26.9-6.7 2.3 7.9 9.1 16.4 18.7 22.6 9.4 6.2 19.5 8.4 26.8 6.7zM497.2 429.3c-2.3-7.9-9.1-16.4-18.7-22.6-9.6-6.1-19.6-8.4-26.9-6.7 2.3 7.9 9.1 16.4 18.6 22.6 9.6 6.1 19.6 8.4 27 6.7zM516.1 449.4c-4.6-6.5-13.6-12-24.4-14.2-10.8-2.2-21-.5-27.3 3.9 4.6 6.5 13.6 12 24.4 14.2 10.8 2.1 20.9.4 27.3-3.9zM667.2 422.4c5-10.9 6.6-22.2 4.7-30.2-7 3-14.3 10.9-19.4 21.8-5 10.9-6.5 22.2-4.6 30.2 6.9-3 14.2-10.9 19.3-21.8zM492.2 469.7c6.1 4.8 16.1 7.2 27.1 5.8 11-1.4 20.2-6.3 25.2-12.5-6.1-4.8-16.1-7.2-27.1-5.8-11 1.5-20.3 6.3-25.2 12.5zM544.9 458.3c9.2 6.8 19.1 9.7 26.5 8.5-1.9-8-8.2-17-17.3-23.8-9.2-6.8-19.1-9.7-26.5-8.5 1.8 8 8.1 17 17.3 23.8zM496.8 392.2c-1.9 8-.4 19.3 4.7 30.2 5 10.9 12.4 18.8 19.4 21.8 1.9-8 .4-19.3-4.7-30.2-5.1-10.9-12.5-18.8-19.4-21.8zM512.7 244c6.3-10.1 9.1-21 8.2-29.3-7.3 1.9-15.5 8.7-21.8 18.8-6.3 10.1-9.1 21-8.2 29.3 7.3-2 15.6-8.7 21.8-18.8zM498.3 285.7c7.7-6.9 12.6-15.6 13.7-22.9-6.7-.4-15.3 3.2-23 10.1-7.7 6.9-12.7 15.6-13.7 22.9 6.6.4 15.2-3.2 23-10.1zM649.4 475.5c11 1.4 21-1 27.1-5.8-5-6.2-14.2-11.1-25.2-12.5-11-1.4-21 1-27.1 5.8 4.9 6.3 14.2 11.1 25.2 12.5zM550.9 471.4c-10.8 2.7-19.5 8.6-23.9 15.4 6.5 4 16.7 5.2 27.5 2.5 10.4-2.6 18.9-8.2 23.4-14.7 1.3 1.2 2.6 2.5 3.9 3.7-12 7-22.4 16.2-31.5 28 3.6 5.6 5.3 8.4 8.9 14.1 6.9-15.5 15.3-28.5 25.4-39.1 9.7 10.6 17 23.3 23.9 39 3.6-5.6 5.3-8.4 8.9-14.1-9.1-11.9-18.4-20.9-30-27.7 1.3-1.3 2.6-2.5 3.9-3.7 4.5 6.4 13 12 23.3 14.6 10.8 2.7 21 1.5 27.5-2.5-4.3-6.7-13.1-12.7-23.9-15.4-9-2.2-17.5-1.7-23.9.8-6.1 2.4-9.8 4.6-9.8 4.6-2.7-1.5-5.6-2.9-8.6-4.2-.2-.1-.3-.1-.5-.2-.1 0-.1-.1-.2-.1-6.4-2.7-15.1-3.3-24.3-1zM462 332.8c1.8-8.1.1-19.3-5.1-30.1-5.2-10.8-12.7-18.6-19.7-21.4-1.8 8.1-.1 19.3 5.1 30.1 5.2 10.7 12.6 18.5 19.7 21.4zM623.7 458.3c9.2-6.8 15.5-15.8 17.4-23.8-7.4-1.2-17.3 1.7-26.5 8.5s-15.5 15.8-17.3 23.8c7.3 1.2 17.2-1.7 26.4-8.5zM490.3 400.5c4-7 5.7-18.3 3.8-30.4-1.8-12.1-6.7-22.1-12.5-27.3-4 7-5.7 18.3-3.9 30.4 1.9 12 6.8 22 12.6 27.3zM436.7 326.6c-.3 8.3 3.4 18.9 10.4 28.4 7.1 9.4 15.8 15.4 23.2 16.6.3-8.3-3.4-18.9-10.5-28.4-7-9.4-15.7-15.3-23.1-16.6zM484.4 325.3c5.2-9.4 7.2-19.3 6.1-26.7-6.4 2.2-13.5 8.7-18.7 18-5.2 9.4-7.2 19.3-6.1 26.7 6.4-2.1 13.5-8.6 18.7-18zM485.9 246.6c.6-12.3-2.1-23.2-6.7-29.7-5.3 5.9-9.2 16.4-9.8 28.7-.7 12.2 2.1 23.2 6.7 29.7 5.3-5.9 9.1-16.5 9.8-28.7zM467.1 310c4-7 5.5-18.3 3.7-30.4-1.9-12.1-6.8-22.1-12.7-27.2-3.9 7.1-5.5 18.3-3.7 30.4 2 12.1 6.9 22.1 12.7 27.2z"/><path class="st1" d="M698.4 422.6c-9.5 6.1-19.6 8.4-26.9 6.7 2.3-7.9 9.1-16.4 18.6-22.6 9.6-6.1 19.6-8.4 26.9-6.7-2.3 7.9-9.1 16.5-18.6 22.6zM704.3 439c-4.6 6.5-13.6 12-24.4 14.2-10.9 2.2-21 .5-27.4-3.9 4.6-6.5 13.6-12 24.5-14.2 10.8-2.1 20.9-.4 27.3 3.9zM702.9 343.3c-6.4-2.1-13.5-8.7-18.7-18-5.2-9.4-7.2-19.3-6.1-26.7 6.4 2.2 13.5 8.7 18.7 18 5.2 9.4 7.3 19.4 6.1 26.7zM708.7 343.2c7-9.4 15.8-15.4 23.2-16.6.3 8.3-3.4 18.9-10.5 28.4-7 9.4-15.8 15.4-23.2 16.6-.2-8.3 3.4-18.9 10.5-28.4zM687 342.8c4 7 5.7 18.3 3.8 30.4-1.8 12.1-6.6 22.1-12.5 27.3-4-7-5.6-18.3-3.8-30.4 1.8-12.1 6.6-22.1 12.5-27.3zM690.3 394.1c2.3-7.9 9.1-16.4 18.6-22.6 9.5-6.1 19.6-8.4 26.9-6.7-2.3 7.9-9.1 16.4-18.6 22.6-9.5 6.2-19.6 8.4-26.9 6.7zM731.5 281.2c1.8 8.1.1 19.3-5.1 30.1-5.2 10.8-12.7 18.6-19.7 21.4-1.8-8.1-.1-19.3 5.1-30.1 5.2-10.8 12.7-18.5 19.7-21.4zM710.5 252.4c4 7.1 5.5 18.3 3.7 30.4-1.9 12.1-6.8 22.1-12.7 27.2-4-7-5.5-18.3-3.7-30.4 1.9-12 6.8-22 12.7-27.2zM689.5 216.8c5.3 5.9 9.2 16.4 9.8 28.7.7 12.2-2.1 23.2-6.7 29.7-5.3-5.9-9.1-16.4-9.8-28.6-.7-12.3 2-23.2 6.7-29.8zM693.4 295.8c-6.7.4-15.3-3.2-23.1-10.1-7.7-6.9-12.6-15.6-13.7-22.9 6.7-.4 15.3 3.2 23 10.1 7.8 6.9 12.7 15.5 13.8 22.9zM647.7 214.7c7.2 1.9 15.5 8.7 21.8 18.8 6.3 10.1 9.1 21 8.2 29.3-7.3-1.9-15.5-8.7-21.8-18.8-6.3-10.1-9.1-21.1-8.2-29.3zM652.5 414c5-10.9 12.4-18.8 19.4-21.8 1.9 8 .4 19.3-4.7 30.2-5 10.9-12.4 18.8-19.4 21.8-1.9-8-.4-19.3 4.7-30.2zM651.2 457.3c11 1.4 20.2 6.3 25.2 12.5-6.1 4.8-16.1 7.2-27.1 5.8-11-1.4-20.2-6.3-25.2-12.5 6.2-4.8 16.2-7.2 27.1-5.8zM614.5 443c9.2-6.8 19.1-9.7 26.5-8.5-1.9 8-8.2 17.1-17.4 23.8-9.2 6.8-19.1 9.7-26.5 8.5 2-8 8.3-17 17.4-23.8zM575.5 472.4c.2.1.3.1.5.2 3 1.3 5.9 2.7 8.6 4.2 0 0 3.7-2.2 9.8-4.6 6.4-2.6 15-3.1 23.9-.8 10.8 2.7 19.5 8.6 23.9 15.4-6.5 4-16.7 5.2-27.5 2.5-10.3-2.6-18.8-8.2-23.3-14.6-1.3 1.2-2.6 2.4-3.9 3.7 11.5 6.8 20.9 15.9 30 27.7-3.6 5.6-5.3 8.4-8.9 14.1-6.9-15.6-14.2-28.4-23.9-39-10.1 10.7-18.5 23.6-25.4 39.1-3.6-5.6-5.3-8.4-8.9-14.1 9-11.8 19.5-21.1 31.5-28-1.3-1.3-2.6-2.5-3.9-3.7-4.5 6.5-13 12.1-23.4 14.7-10.8 2.7-21 1.5-27.5-2.5 4.3-6.7 13.1-12.7 23.9-15.4 9.2-2.3 17.9-1.7 24.4 1-.1.1 0 .1.1.1zM554.1 443c9.2 6.8 15.5 15.8 17.3 23.8-7.4 1.2-17.3-1.7-26.5-8.5s-15.5-15.8-17.4-23.8c7.5-1.2 17.3 1.7 26.6 8.5zM544.4 463c-5 6.2-14.2 11.1-25.2 12.5-11 1.4-21-1-27.1-5.8 5-6.2 14.2-11.1 25.2-12.5 11-1.3 21 1.1 27.1 5.8zM520.8 444.2c-7-3-14.3-10.9-19.4-21.8-5-10.9-6.5-22.2-4.7-30.2 7 3 14.3 10.9 19.4 21.8 5.1 10.9 6.6 22.2 4.7 30.2zM499.1 233.5c6.3-10.1 14.5-16.9 21.8-18.8.9 8.2-1.9 19.2-8.2 29.3-6.3 10.1-14.5 16.9-21.8 18.8-.8-8.3 1.9-19.2 8.2-29.3zM488.9 272.9c7.7-6.9 16.3-10.4 23-10.1-1.1 7.4-6 16-13.7 22.9-7.7 6.9-16.3 10.4-23 10.1 1.1-7.4 6-16 13.7-22.9zM465.7 343.3c-1.2-7.3.9-17.3 6.1-26.7 5.2-9.4 12.3-15.9 18.7-18 1.2 7.4-.9 17.3-6.1 26.7-5.2 9.4-12.3 15.9-18.7 18zM470.4 371.6c-7.4-1.2-16.1-7.2-23.2-16.6-7-9.4-10.7-20.1-10.4-28.4 7.4 1.2 16.1 7.2 23.2 16.6 7 9.5 10.6 20.1 10.4 28.4zM481.6 342.8c5.8 5.2 10.7 15.2 12.5 27.3 1.8 12.1.1 23.3-3.8 30.4-5.8-5.2-10.7-15.2-12.5-27.3-1.8-12.2-.1-23.4 3.8-30.4zM469.3 245.5c.6-12.3 4.5-22.8 9.8-28.7 4.6 6.5 7.4 17.5 6.7 29.7-.6 12.2-4.5 22.8-9.8 28.6-4.6-6.4-7.3-17.4-6.7-29.6zM458.1 252.4c5.9 5.2 10.8 15.2 12.7 27.2 1.9 12.1.3 23.3-3.7 30.4-5.9-5.2-10.8-15.1-12.6-27.2-1.9-12.1-.3-23.3 3.6-30.4zM437.1 281.2c7 2.9 14.5 10.6 19.7 21.4 5.2 10.8 6.9 22 5.1 30.1-7-2.8-14.5-10.6-19.7-21.4-5.2-10.8-6.8-22-5.1-30.1zM432.7 364.9c7.3-1.7 17.4.5 26.9 6.7 9.6 6.1 16.3 14.7 18.6 22.6-7.3 1.7-17.4-.5-26.9-6.7s-16.3-14.8-18.6-22.6zM451.6 400c7.3-1.7 17.3.5 26.9 6.7 9.6 6.1 16.3 14.7 18.7 22.6-7.3 1.7-17.4-.5-26.9-6.7-9.6-6.1-16.4-14.7-18.7-22.6zM464.3 439c6.4-4.3 16.5-6 27.3-3.9 10.9 2.2 19.8 7.7 24.4 14.2-6.4 4.3-16.5 6-27.4 3.9-10.7-2.1-19.7-7.6-24.3-14.2zM1204.8 387.4c9.6 6.1 19.6 8.4 26.9 6.7-2.3-7.9-9.1-16.4-18.6-22.6-9.5-6.1-19.6-8.4-26.9-6.7 2.3 7.9 9 16.5 18.6 22.6zM1250.2 392.2c-1.9 8-.4 19.3 4.7 30.2 5 10.9 12.4 18.8 19.4 21.8 1.9-8 .4-19.3-4.6-30.2-5.2-10.9-12.5-18.8-19.5-21.8zM1215.4 332.8c1.8-8.1.1-19.3-5.1-30.1-5.2-10.8-12.7-18.6-19.7-21.4-1.8 8.1-.1 19.3 5.1 30.1 5.2 10.7 12.7 18.5 19.7 21.4zM1266.1 244c6.3-10.1 9.1-21 8.2-29.3-7.3 1.9-15.5 8.7-21.8 18.8-6.3 10.1-9.1 21-8.2 29.3 7.3-2 15.6-8.7 21.8-18.8zM1251.7 285.7c7.7-6.9 12.6-15.6 13.7-22.9-6.7-.4-15.3 3.2-23.1 10.1-7.7 6.9-12.6 15.6-13.7 22.9 6.7.4 15.3-3.2 23.1-10.1zM1220.5 310c4-7 5.5-18.3 3.7-30.4-1.9-12.1-6.8-22.1-12.6-27.2-4 7.1-5.5 18.3-3.7 30.4 1.9 12.1 6.8 22.1 12.6 27.2zM1239.3 246.6c.6-12.3-2.1-23.2-6.7-29.7-5.3 5.9-9.2 16.4-9.8 28.7-.6 12.2 2.1 23.2 6.7 29.7 5.3-5.9 9.1-16.5 9.8-28.7zM1423.8 285.7c7.7 6.9 16.3 10.4 23 10.1-1.1-7.4-6-16-13.7-22.9-7.7-6.9-16.3-10.4-23-10.1 1 7.4 6 16 13.7 22.9zM1402.8 475.5c11 1.4 21-1 27.1-5.8-5-6.2-14.2-11.1-25.2-12.5-11-1.4-21 1-27.1 5.8 4.9 6.3 14.2 11.1 25.2 12.5zM1431 262.8c.9-8.2-1.9-19.2-8.2-29.3-6.3-10.1-14.5-16.9-21.8-18.8-.9 8.2 1.9 19.2 8.2 29.3 6.4 10.1 14.6 16.8 21.8 18.8zM1420.6 422.4c5-10.9 6.5-22.2 4.7-30.2-7 3-14.3 10.9-19.4 21.8-5 10.9-6.5 22.2-4.7 30.2 7-3 14.4-10.9 19.4-21.8zM1445.9 275.2c4.6-6.5 7.4-17.5 6.7-29.7-.6-12.3-4.5-22.8-9.8-28.7-4.6 6.5-7.4 17.5-6.7 29.7.7 12.3 4.5 22.9 9.8 28.7zM1454.9 310c5.9-5.2 10.8-15.1 12.6-27.2 1.9-12.1.3-23.3-3.7-30.4-5.9 5.2-10.8 15.2-12.6 27.2-1.9 12.1-.3 23.4 3.7 30.4zM1456.3 343.3c1.2-7.3-.9-17.3-6.1-26.7-5.2-9.4-12.3-15.9-18.7-18-1.2 7.4.9 17.3 6.1 26.7 5.2 9.4 12.3 15.9 18.7 18zM1460 332.8c7-2.8 14.5-10.6 19.7-21.4 5.2-10.8 6.9-22 5.1-30.1-7 2.9-14.5 10.6-19.7 21.4-5.1 10.8-6.8 22-5.1 30.1zM1427.9 370.1c-1.8 12.1-.1 23.3 3.8 30.4 5.8-5.2 10.7-15.2 12.5-27.3 1.8-12.1.1-23.3-3.8-30.4-5.8 5.2-10.7 15.2-12.5 27.3zM1190.1 326.6c-.3 8.3 3.4 18.9 10.5 28.4 7 9.4 15.8 15.4 23.2 16.6.3-8.3-3.4-18.9-10.5-28.4-7-9.4-15.8-15.3-23.2-16.6zM1242.2 453.2c10.9 2.2 21 .5 27.4-3.9-4.6-6.5-13.6-12-24.5-14.2-10.8-2.2-21-.5-27.3 3.9 4.5 6.6 13.5 12.1 24.4 14.2zM1377.1 458.3c9.2-6.8 15.5-15.8 17.4-23.8-7.4-1.2-17.3 1.7-26.5 8.5s-15.5 15.8-17.3 23.8c7.3 1.2 17.2-1.7 26.4-8.5zM1205 400c2.3 7.9 9.1 16.4 18.6 22.6 9.5 6.1 19.6 8.4 26.9 6.7-2.3-7.9-9.1-16.4-18.7-22.6-9.4-6.1-19.5-8.4-26.8-6.7zM1237.8 325.3c5.2-9.4 7.2-19.3 6.1-26.7-6.4 2.2-13.5 8.7-18.7 18-5.2 9.4-7.2 19.3-6.1 26.7 6.4-2.1 13.5-8.6 18.7-18zM1243.7 400.5c4-7 5.7-18.3 3.8-30.4-1.8-12.1-6.6-22.1-12.5-27.3-4 7-5.7 18.3-3.8 30.4 1.8 12 6.7 22 12.5 27.3zM1245.6 469.7c6.1 4.8 16.1 7.2 27.1 5.8 11-1.4 20.2-6.3 25.2-12.5-6.1-4.8-16.1-7.2-27.1-5.8-11 1.5-20.3 6.3-25.2 12.5zM1303.7 471.4c-10.8 2.7-19.5 8.6-23.9 15.4 6.5 4 16.7 5.2 27.5 2.5 10.3-2.6 18.8-8.2 23.3-14.6 1.3 1.2 2.6 2.4 3.9 3.7-11.5 6.8-20.9 15.9-30 27.7 3.6 5.6 5.3 8.4 8.9 14.1 6.9-15.6 14.2-28.4 23.9-39 10.1 10.7 18.5 23.6 25.4 39.1 3.6-5.6 5.3-8.4 8.9-14.1-9-11.8-19.5-21.1-31.5-28 1.3-1.3 2.6-2.5 3.9-3.7 4.5 6.5 13 12.1 23.4 14.7 10.8 2.7 21 1.5 27.5-2.5-4.3-6.7-13.1-12.7-23.9-15.4-9.2-2.3-17.9-1.7-24.4 1-.1 0-.1.1-.2.1-.2.1-.3.1-.5.2-3 1.3-5.9 2.7-8.6 4.2 0 0-3.7-2.2-9.8-4.6-6.3-2.6-14.8-3.1-23.8-.8zM1298.3 458.3c9.2 6.8 19.1 9.7 26.5 8.5-1.9-8-8.2-17-17.3-23.8-9.2-6.8-19.1-9.7-26.5-8.5 1.9 8 8.1 17 17.3 23.8zM1474.8 355c7-9.4 10.7-20.1 10.5-28.4-7.4 1.2-16.1 7.2-23.2 16.6-7.1 9.4-10.7 20.1-10.5 28.4 7.4-1.2 16.2-7.2 23.2-16.6zM1443.5 406.7c-9.6 6.1-16.3 14.7-18.6 22.6 7.3 1.7 17.4-.5 26.9-6.7 9.6-6.1 16.3-14.7 18.6-22.6-7.3-1.7-17.4.6-26.9 6.7zM1462.4 371.5c-9.6 6.1-16.3 14.7-18.7 22.6 7.3 1.7 17.4-.5 26.9-6.7 9.5-6.1 16.3-14.7 18.6-22.6-7.2-1.6-17.3.6-26.8 6.7zM1430.3 435.2c-10.9 2.2-19.8 7.7-24.4 14.2 6.4 4.3 16.5 6 27.4 3.9 10.9-2.2 19.8-7.7 24.4-14.2-6.4-4.4-16.5-6.1-27.4-3.9z"/><path class="st1" d="M1484.9 281.2c1.7 8.1.1 19.3-5.1 30.1-5.2 10.8-12.7 18.6-19.7 21.4-1.8-8.1-.1-19.3 5.1-30.1 5.2-10.8 12.7-18.5 19.7-21.4zM1437.6 325.3c-5.2-9.4-7.2-19.3-6.1-26.7 6.4 2.2 13.5 8.7 18.7 18 5.2 9.4 7.2 19.3 6.1 26.7-6.4-2.1-13.5-8.6-18.7-18zM1444.2 373.1c-1.8 12.1-6.7 22.1-12.5 27.3-4-7-5.6-18.3-3.8-30.4 1.8-12.1 6.7-22.1 12.5-27.3 4 7.1 5.6 18.3 3.8 30.4zM1462.1 343.2c7.1-9.4 15.8-15.4 23.2-16.6.3 8.3-3.4 18.9-10.5 28.4-7.1 9.4-15.8 15.4-23.2 16.6-.2-8.3 3.4-18.9 10.5-28.4zM1463.9 252.4c4 7.1 5.5 18.3 3.7 30.4-1.9 12.1-6.8 22.1-12.6 27.2-3.9-7-5.5-18.3-3.7-30.4 1.8-12 6.7-22 12.6-27.2zM1442.9 216.8c5.3 5.9 9.1 16.4 9.8 28.7.6 12.2-2.1 23.2-6.7 29.7-5.3-5.9-9.2-16.4-9.8-28.6-.7-12.3 2-23.2 6.7-29.8zM1446.8 295.8c-6.7.4-15.3-3.2-23-10.1-7.7-6.9-12.6-15.6-13.7-22.9 6.7-.4 15.3 3.2 23 10.1 7.7 6.9 12.6 15.5 13.7 22.9zM1401.1 214.7c7.3 1.9 15.5 8.7 21.8 18.8 6.3 10.1 9.1 21 8.2 29.3-7.3-1.9-15.5-8.7-21.8-18.8-6.3-10.1-9.1-21.1-8.2-29.3zM1405.9 414c5-10.9 12.4-18.8 19.4-21.8 1.9 8 .4 19.3-4.7 30.2-5 10.9-12.4 18.8-19.4 21.8-1.9-8-.4-19.3 4.7-30.2zM1404.7 457.3c11 1.4 20.2 6.3 25.2 12.5-6.1 4.8-16.1 7.2-27.1 5.8-11-1.4-20.2-6.3-25.2-12.5 6.1-4.8 16.1-7.2 27.1-5.8zM1368 443c9.2-6.8 19.1-9.7 26.5-8.5-1.9 8-8.2 17.1-17.4 23.8-9.2 6.8-19.1 9.7-26.5 8.5 1.9-8 8.2-17 17.4-23.8zM1337.4 476.8c2.7-1.5 5.6-2.9 8.6-4.2.2-.1.3-.1.5-.2.1 0 .1-.1.2-.1 6.4-2.7 15.2-3.3 24.4-1 10.8 2.7 19.5 8.6 23.9 15.4-6.5 4-16.7 5.2-27.5 2.5-10.4-2.6-18.9-8.2-23.4-14.7-1.4 1.2-2.7 2.5-3.9 3.7 12 7 22.4 16.2 31.5 28-3.6 5.6-5.3 8.4-8.9 14.1-6.9-15.5-15.3-28.5-25.4-39.1-9.7 10.6-17 23.3-23.9 39-3.6-5.6-5.3-8.4-8.9-14.1 9.1-11.9 18.4-20.9 30-27.7-1.3-1.3-2.6-2.5-3.9-3.7-4.5 6.4-13 12-23.3 14.6-10.8 2.7-21 1.5-27.5-2.5 4.3-6.7 13.1-12.7 23.9-15.4 9-2.2 17.5-1.7 23.9.8 6 2.4 9.7 4.6 9.7 4.6zM1307.5 443c9.2 6.8 15.5 15.8 17.3 23.8-7.4 1.2-17.3-1.7-26.5-8.5s-15.5-15.8-17.4-23.8c7.4-1.2 17.4 1.7 26.6 8.5zM1297.8 463c-5 6.2-14.2 11.1-25.2 12.5-11 1.4-21-1-27.1-5.8 5-6.2 14.2-11.1 25.2-12.5 11-1.3 21 1.1 27.1 5.8zM1219.1 343.3c-1.2-7.3.9-17.3 6.1-26.7 5.2-9.4 12.3-15.9 18.7-18 1.2 7.4-.9 17.3-6.1 26.7-5.2 9.4-12.3 15.9-18.7 18zM1223.8 371.6c-7.4-1.2-16.1-7.2-23.2-16.6-7.1-9.4-10.7-20.1-10.5-28.4 7.4 1.2 16.1 7.2 23.2 16.6 7.1 9.5 10.7 20.1 10.5 28.4zM1235.1 342.8c5.8 5.2 10.7 15.2 12.5 27.3 1.8 12.1.2 23.3-3.8 30.4-5.8-5.2-10.7-15.2-12.5-27.3-1.9-12.2-.2-23.4 3.8-30.4zM1250.6 429.3c-7.3 1.7-17.4-.5-26.9-6.7-9.6-6.1-16.3-14.7-18.6-22.6 7.3-1.7 17.4.5 26.9 6.7 9.5 6.1 16.2 14.7 18.6 22.6zM1245.1 435.2c10.9 2.2 19.9 7.7 24.5 14.2-6.4 4.3-16.5 6-27.4 3.9-10.8-2.2-19.8-7.7-24.4-14.2 6.3-4.4 16.4-6.1 27.3-3.9zM1274.2 444.2c-7-3-14.3-10.9-19.4-21.8-5-10.9-6.6-22.2-4.7-30.2 7 3 14.3 10.9 19.4 21.8 5.1 10.9 6.6 22.2 4.7 30.2zM1252.6 233.5c6.3-10.1 14.5-16.9 21.8-18.8.9 8.2-1.9 19.2-8.2 29.3-6.3 10.1-14.5 16.9-21.8 18.8-.9-8.3 1.9-19.2 8.2-29.3zM1242.3 272.9c7.7-6.9 16.4-10.4 23.1-10.1-1.1 7.4-6 16-13.7 22.9-7.7 6.9-16.3 10.4-23.1 10.1 1.1-7.4 6-16 13.7-22.9zM1222.8 245.5c.6-12.3 4.5-22.8 9.8-28.7 4.6 6.5 7.4 17.5 6.7 29.7-.6 12.2-4.5 22.8-9.8 28.6-4.7-6.4-7.4-17.4-6.7-29.6zM1211.6 252.4c5.8 5.2 10.8 15.2 12.6 27.2 1.9 12.1.3 23.3-3.7 30.4-5.8-5.2-10.8-15.1-12.6-27.2-1.9-12.1-.3-23.3 3.7-30.4zM1190.5 281.2c7 2.9 14.5 10.6 19.7 21.4 5.2 10.8 6.9 22 5.1 30.1-7-2.8-14.5-10.6-19.7-21.4-5.1-10.8-6.8-22-5.1-30.1zM1213 371.5c9.6 6.1 16.3 14.7 18.6 22.6-7.3 1.7-17.4-.5-26.9-6.7-9.6-6.1-16.3-14.7-18.6-22.6 7.3-1.6 17.4.6 26.9 6.7zM1433.3 453.2c-10.9 2.2-21 .5-27.4-3.9 4.6-6.5 13.6-12 24.4-14.2 10.9-2.2 21-.5 27.4 3.9-4.6 6.6-13.6 12.1-24.4 14.2zM1451.8 422.6c-9.6 6.1-19.6 8.4-26.9 6.7 2.3-7.9 9.1-16.4 18.6-22.6 9.6-6.1 19.6-8.4 26.9-6.7-2.3 7.9-9.1 16.5-18.6 22.6zM1470.7 387.4c-9.6 6.1-19.6 8.4-26.9 6.7 2.3-7.9 9.1-16.4 18.7-22.6 9.5-6.1 19.6-8.4 26.9-6.7-2.4 7.9-9.2 16.5-18.7 22.6zM854 1501.5c-1.8-.1-5.4-.3-9.2-.3-2.8 0-6 .1-9.7.3l-1.2.1.2-1.2c1.4-8.9 2-18.3 2-28.6v-53.2c0-14.7-1.2-16.3-6.1-16.3-1.4 0-3.4.3-5.9.9l-8.3 1.9c-2.5.6-4.1 1.2-5.8 1.8l-.5.2-2.3-1.8.4-.7c1.1-2.2 2.7-6 3.5-9.4l.2-.7.7-.1c4.3-.5 7.1-.8 12.1-1.9l17.6-3.8c3.2-.6 6.8-1.6 9.8-2.5l.5-.1 2 2-.1.5c-1.4 9.8-2 20.8-2 27.5v57.3c0 11.6 1.1 20.8 3.1 26.7l.5 1.4H854zM978.2 1502.6l-.1.9h-.9c-.1 0-13.3.2-21 .8l-.6.1-1.5-2.9 57.5-97.7h-36c-5.6 0-12.8.6-18.9 5l-.4.3-2.9-1.2.3-.9c1.9-5.2 3.5-14 4-17.6l.1-.9.9.1c4.2.3 8.6.3 13.3.3h41.3c5.4 0 7.8 0 12.6-.5l1-.1.1 1c.1 1.6 1.2 8.8 1.8 10.4l.2.5-.4.4c-8.8 10-19.4 28.4-28.6 45-14.8 27-20.5 41.9-21.8 57zM919.4 1438.5c10.7-6 20.7-13.4 20.7-27.9 0-15.7-13.1-27.2-31.1-27.2-18.6 0-33.1 13.3-33.1 30.3 0 14 9.5 22 19.2 27.9-15.4 9-24.8 17.8-24.8 32.8 0 17.8 14.3 30.1 34.7 30.1 22.6 0 38.9-14.3 38.9-33.9-.1-15.9-11.6-24.9-24.5-32.1zm-29-28c0-10.6 8-18.5 18.8-18.5 10.9 0 19 8 19 19 0 12.2-8.8 18.4-17.9 23.4-10.1-5.9-19.9-12.2-19.9-23.9zm16 85.8c-13.1 0-22.6-9.5-22.6-22.3 0-13.8 10.6-22.1 21.7-27.5 15 8.2 24.5 15 24.5 27.7-.1 12.4-10.4 22.1-23.6 22.1zM1077.4 1440.8c10.7-6 20.6-13.3 20.6-27.9 0-15.8-13.1-27.2-31.1-27.2-18.6 0-33.1 13.3-33.1 30.3 0 14 9.4 22 19.1 27.9-15.3 9-24.8 17.8-24.8 32.8 0 17.8 14.3 30.1 34.7 30.1 22.6 0 38.9-14.3 38.9-33.9.2-15.9-11.4-24.9-24.3-32.1zm-27.7-28c0-10.6 8.1-18.5 18.8-18.5 10.9 0 19 8 19 19 0 12.2-8.9 18.3-17.9 23.4-10.2-5.9-19.9-12.2-19.9-23.9zm15.9 85.9c-13.1 0-22.6-9.5-22.6-22.3 0-13.8 10.6-22.1 21.6-27.5 15 8.2 24.5 15 24.5 27.7.1 12.4-10.2 22.1-23.5 22.1zM615.8 1265.2c-2.1 7.4-8.6 30.9-9.1 32.9-34.2-1.1-57-1.4-77.1-1.4-25.3 0-41.8 0-55.5.3 2.4-16.1 4.3-34.7 4.3-57.9v-95.6c0-15.5-.6-45.1-6.1-58.8 10.4.6 17.4.6 25 .6h57.3c20.4 0 28.7-.6 50.9-.9-4.1 14.6-8.3 30-10 35.9-1.6 5.9-4.7 1.5-5.3.6-9.5-13.7-27.8-15.2-45.1-15.2-5.5 0-11.9.3-19.5.6-.3 5.2-1.2 19.8-1.2 32.9v31.1h25.3c18.6 0 37.3-1.4 44.5-2.5 3.1-.5 2.4 2.1 2.4 2.1-2.3 8.2-5.3 19.3-7.3 26.4-19.5-1.8-30.2-2.3-43.6-2.3H524v43.2c0 28 3.1 37.2 36.3 37.2 18.9 0 29 .1 49.4-15.4 3.8-2.8 8.2-1.2 6.1 6.2z"/><path class="st1" d="M707.5 1265.5c-4.6 11-6.7 18.9-9.5 31.1-3.1-.3-10.1-.3-17.1-.3-6.1 0-13.8.3-19.6.6-2.1-13.4-4.6-22-9.2-35.4l-20.2-61.7c-6.1-18.3-13.5-38.5-26.9-54 20.2.6 36.1-.3 55.4-1.8 1.2 15 4.6 29.3 8.9 43.6l11.3 38.8c2.8 9.1 8.6 29.6 8.6 29.6 2.1-6.7 4.6-13.1 6.7-18.9l17.7-45.8c3-7.9 7-20.1 8.2-32.6 0-4.3.3-8.3 0-13.4 4.3.3 12.2.3 18.7.3 6.1 0 16.1-.8 20.7-1.4 4.2-.5 3.6 2.1 2.2 3.8-10.5 13.4-19 31.4-26.9 50.1l-29 67.4zM952.8 1296.9c-4.9-.3-14.8-.6-24.4-.6-9.6 0-19.2.3-25 .6 2.8-17.9 3.7-32.7 3.7-54.9v-37c0-14.8-1.2-41.3-6.5-57.7 11.8 0 30-.6 42.3-1.2l-.6 35.2 11.1-14.5c13.9-18.2 23.5-24.1 38-24.1 5.3 0 7.7.4 13.3 2.9-4.4 15.7-8.9 32.1-11.6 41.7-.6 2.1-2.5 4.9-5.3 1.7-5.9-6.6-7-9-14.1-9-8.6 0-15.8 4.6-21 13.3-4.3 7.1-6.2 13-6.2 27.8v25c.1 26.4 2 37.5 6.3 50.8zM1123.6 1148.4c-1.2 4.3-4.7 17-6.2 22.3-12-1.4-19.3-1.5-27.4-1.5h-13.7c-.6 10.2-.9 22.7-.9 31.4v35.1c0 23.6 2.5 41 23 41 6.5 0 11.8-1.5 19.9-5.6 1.3-.7 4.5-.5 3.4 3.6-1.9 6.8-3.6 13.1-5.8 20.9-18.5 4.9-26.2 6.2-36.1 6.2-26.5 0-43.6-11.5-43.6-49.4v-47.2c0-15.2 0-26.1-.6-36.3-8.1 0-16.8 1-21 1.7-.9.2-3-.2-2.1-3.6.3-.9 4.1-14.9 5.5-19.9 3.9.4 11.3.6 18.8.6 0-12.1-.6-18.6-1.3-28 10.9-3.1 30.6-12 39.1-17.4 3.1-2 4.7.9 4.5 4.2-.3 3.6-2.4 13.9-2.9 41.2h21.5c7.5 0 15.8-.3 23.6-2.2 1.2-.1 3 .5 2.3 2.9zM1424.7 1296.3c-10 0-20 .3-25.3.6 2.8-16.8 3.8-36.5 3.8-59v-27.1c0-18.1-1.3-39-26.9-39-9.1 0-18.1 3.7-25 10.3-7.8 7.8-10 14.4-10 33.7v22.1c0 28.4 1.9 45.5 6.2 59-4.7-.3-15-.6-24.7-.6-10.3 0-20 .3-25.3.6 2.8-16.8 3.8-36.5 3.8-59v-38c0-15-1.3-37.7-6.6-54.3 13.8 0 32.8 0 45.9-1.3l-.9 26.8 12.5-10.6c15.3-12.8 27.8-18.1 43.4-18.1 35.6 0 47.8 20 47.8 55.2v40.2c0 28.4 1.9 45.5 6.3 59-5-.1-15.3-.5-25-.5zM882.9 1218.2c5.3 0 5.3-13.1 5.3-16.1 0-36.5-23.5-59.1-61-59.1-43.6 0-73.8 32.9-73.8 80.4 0 46.9 29.9 78.9 76.9 78.9 16.2 0 33.7-4.5 47.7-9.1 2.5-9 3.3-11.7 6.2-22.4 1.4-4.9-1.4-6.5-3.9-4.8-10.8 7.5-18.6 10-31.7 10-32.6 0-52.1-20.7-52.8-56.9 10.1-.6 32.3-.9 48.2-.9h38.9zm-87.4-18c1.5-25 9.8-39.6 29.3-39.6 13.7 0 24.1 10.4 24.1 24.7 0 9.7-5.2 13.7-18.3 14l-35.1.9zM1210.3 1142.6c-54.5 0-83.6 34.8-83.6 82.8 0 48.3 28.2 76.4 76.2 76.4 50.5 0 82.9-32.7 82.9-84.1.1-47.6-27.1-75.1-75.5-75.1zm-4 142.1c-23.3 0-36.1-22.6-36.1-65.4 0-36.4 9.8-59.3 35.2-59.3 23.9 0 37.1 22.9 37.1 65.4 0 39.1-12.6 59.3-36.2 59.3z"/></svg>