<svg id="Layer_1" data-name="Layer 1" xmlns="http://www.w3.org/2000/svg" xmlns:xlink="http://www.w3.org/1999/xlink" viewBox="0 0 680.37 875.51"><defs><linearGradient id="linear-gradient-30" x1="118.56" y1="934.74" x2="135.49" y2="934.74" gradientTransform="matrix(14.18 0 0 -14.18 -1481.96 13854.39)" xlink:href="#linear-gradient-20"/><linearGradient id="linear-gradient-63" x1="127.88" y1="959.72" x2="145.51" y2="959.72" gradientTransform="matrix(6.42 6.88 6.88 -6.42 -6992.96 5596.16)" xlink:href="#linear-gradient-13"/><linearGradient id="linear-gradient-2" x1="316.34" y1="875.51" x2="316.34" y2="1.78" gradientUnits="userSpaceOnUse"><stop offset="0" stop-color="#fff"/><stop offset=".26" stop-color="#1d71b8"/><stop offset=".63" stop-color="#180d33"/><stop offset=".92" stop-color="#2c4280"/><stop offset="1" stop-color="#2c4280"/></linearGradient><linearGradient id="linear-gradient-3" x1="316.34" y1="22.97" x2="316.34" y2="863.34" gradientUnits="userSpaceOnUse"><stop offset="0" stop-color="#fff"/><stop offset=".46" stop-color="#1d71b8"/><stop offset=".46" stop-color="#180d33"/><stop offset=".92" stop-color="#2c4280"/><stop offset="1" stop-color="#2c4280"/></linearGradient><linearGradient id="linear-gradient-62" x1="357.32" y1="829.28" x2="362.81" y2="829.28" gradientTransform="rotate(180 339.345 616.335)" xlink:href="#linear-gradient-20"/><linearGradient id="linear-gradient-4" x1="283.53" y1="347.62" x2="283.55" y2="347.62" gradientTransform="matrix(0 0 0 0 347.26 400.52)" gradientUnits="userSpaceOnUse"><stop offset="0" stop-color="#1d71b8"/><stop offset=".5" stop-color="#180d33"/><stop offset=".92" stop-color="#2c4280"/><stop offset="1" stop-color="#2c4280"/></linearGradient><linearGradient id="linear-gradient-61" x1="116.86" y1="963.7" x2="133.79" y2="963.7" gradientTransform="matrix(6.3 0 0 -6.3 -463.2 6369.17)" xlink:href="#linear-gradient-57"/><linearGradient id="linear-gradient-5" x1="120.55" y1="950.22" x2="138.16" y2="950.22" gradientTransform="matrix(0 41.65 41.65 0 -39116.42 -4977.81)" xlink:href="#linear-gradient-4"/><linearGradient id="linear-gradient-60" x1="72.98" y1="986.14" x2="89.91" y2="986.14" gradientTransform="matrix(1.57 0 0 -1.57 144.61 1890.2)" xlink:href="#linear-gradient-57"/><linearGradient id="linear-gradient-6" x1="120.54" y1="951.61" x2="138.15" y2="951.61" gradientTransform="matrix(0 41.91 41.91 0 -39363.3 -5011.98)" xlink:href="#linear-gradient-4"/><linearGradient id="linear-gradient-59" x1="117.94" y1="959.27" x2="134.88" y2="959.27" gradientTransform="matrix(5.83 0 0 -5.83 -402.18 5927.37)" xlink:href="#linear-gradient-57"/><linearGradient id="linear-gradient-7" x1="518.29" y1="201.75" x2="518.31" y2="201.75" gradientTransform="matrix(0 0 0 0 362.28 392.39)" xlink:href="#linear-gradient-4"/><linearGradient id="linear-gradient-58" x1="111.07" y1="968.92" x2="128.01" y2="968.92" gradientTransform="matrix(5.64 0 0 -5.64 -380.09 5744.56)" xlink:href="#linear-gradient-27"/><linearGradient id="linear-gradient-57" x1="113.79" y1="970.54" x2="130.72" y2="970.54" gradientTransform="matrix(6.73 0 0 -6.73 -519.58 6769.25)" gradientUnits="userSpaceOnUse"><stop offset="0" stop-color="#fff"/><stop offset="1" stop-color="#1d1d1b"/></linearGradient><linearGradient id="linear-gradient-8" x1="313.99" y1="66.18" x2="314.01" y2="66.18" gradientTransform="matrix(0 0 0 0 350.07 384.67)" xlink:href="#linear-gradient-4"/><linearGradient id="linear-gradient-56" x1="94.09" y1="695.04" x2="533.68" y2="695.04" xlink:href="#linear-gradient-51"/><linearGradient id="linear-gradient-9" x1="351.48" y1="249.91" x2="351.5" y2="249.91" gradientTransform="matrix(0 0 0 0 350.4 394.85)" xlink:href="#linear-gradient-4"/><linearGradient id="linear-gradient-55" x1="431.03" y1="621.47" x2="552.91" y2="621.47" xlink:href="#linear-gradient-51"/><linearGradient id="linear-gradient-10" x1="360.59" y1="303.47" x2="360.69" y2="303.47" gradientTransform="matrix(0 0 0 0 351.81 398.01)" xlink:href="#linear-gradient-4"/><linearGradient id="linear-gradient-54" x1="516.74" y1="588.33" x2="549.57" y2="588.33" xlink:href="#linear-gradient-49"/><linearGradient id="linear-gradient-11" x1="358.95" y1="306.52" x2="358.97" y2="306.52" gradientTransform="matrix(0 0 0 0 351.57 398.17)" xlink:href="#linear-gradient-4"/><linearGradient id="linear-gradient-53" x1="431.15" y1="640.64" x2="522.26" y2="640.64" xlink:href="#linear-gradient-49"/><linearGradient id="linear-gradient-12" x1="121.47" y1="901.8" x2="139.07" y2="901.8" gradientTransform="scale(-5.91 5.91) rotate(44 1126.517 276.527)" xlink:href="#linear-gradient"/><linearGradient id="linear-gradient-52" x1="516.71" y1="570.53" x2="545.64" y2="570.53" xlink:href="#linear-gradient-48"/><linearGradient id="linear-gradient-13" x1="180.66" y1="962.76" x2="198.37" y2="962.76" gradientTransform="matrix(-2.37 -3.28 -3.28 2.37 3752.44 -1429.03)" gradientUnits="userSpaceOnUse"><stop offset="0" stop-color="#0069b4"/><stop offset="1" stop-color="#003964"/></linearGradient><linearGradient id="linear-gradient-51" x1="74.86" y1="621.47" x2="196.74" y2="621.47" gradientUnits="userSpaceOnUse"><stop offset="0" stop-color="#003d6b"/><stop offset=".25" stop-color="#0069b4"/><stop offset=".51" stop-color="#0069b4"/><stop offset=".75" stop-color="#0067b0"/><stop offset="1" stop-color="#003964"/></linearGradient><linearGradient id="linear-gradient-14" x1="148.09" y1="983.49" x2="165.66" y2="983.49" gradientTransform="scale(-4.7 4.7) rotate(-42 -1092.961 779.423)" xlink:href="#linear-gradient-13"/><linearGradient id="linear-gradient-50" x1="78.2" y1="588.33" x2="111.02" y2="588.33" xlink:href="#linear-gradient-49"/><linearGradient id="linear-gradient-15" x1="151.87" y1="935.42" x2="169.58" y2="935.42" gradientTransform="matrix(-3.42 5.23 5.23 3.42 -4173.74 -3503)" xlink:href="#linear-gradient-13"/><linearGradient id="linear-gradient-49" x1="105.51" y1="640.64" x2="196.62" y2="640.64" gradientUnits="userSpaceOnUse"><stop offset="0" stop-color="#9d9d9c"/><stop offset=".41" stop-color="#fff"/><stop offset="1" stop-color="#dadada"/></linearGradient><linearGradient id="linear-gradient-17" x1="173.68" y1="941.77" x2="191.41" y2="941.77" gradientTransform="matrix(2.09 -3.21 -3.21 -2.09 3130 2791.11)" xlink:href="#linear-gradient"/><linearGradient id="linear-gradient-48" x1="82.13" y1="570.53" x2="111.06" y2="570.53" gradientUnits="userSpaceOnUse"><stop offset="0" stop-color="#29235c"/><stop offset=".41" stop-color="#1d71b8"/><stop offset=".64" stop-color="#1d71b8"/><stop offset="1" stop-color="#29235c"/></linearGradient><linearGradient id="linear-gradient-18" x1="151.46" y1="930.79" x2="168.44" y2="930.79" gradientTransform="matrix(4.32 -.21 -.21 -4.32 .69 4531.74)" xlink:href="#linear-gradient"/><linearGradient id="linear-gradient-47" x1="477.39" y1="164.35" x2="509.87" y2="164.35" xlink:href="#linear-gradient-13"/><linearGradient id="linear-gradient-19" x1="178.4" y1="952.92" x2="196.09" y2="952.92" gradientTransform="matrix(1.81 2.65 2.65 -1.81 -2385.35 1788.25)" xlink:href="#linear-gradient-13"/><linearGradient id="New_Gradient_Swatch_6-15" x1="410.96" y1="538.45" x2="357.46" y2="484.95" xlink:href="#New_Gradient_Swatch_6"/><linearGradient id="linear-gradient-20" x1="-76.03" y1="2295.62" x2="-59.1" y2="2295.62" gradientTransform="matrix(.23 0 0 -.23 320.22 601.3)" gradientUnits="userSpaceOnUse"><stop offset="0" stop-color="#f0bc3f"/><stop offset=".01" stop-color="#f0bc3f"/><stop offset=".52" stop-color="#ffed00"/><stop offset=".96" stop-color="#f0bc3f"/><stop offset="1" stop-color="#f0bc3f"/></linearGradient><linearGradient id="linear-gradient-21" x1="264.63" y1="130.55" x2="353.57" y2="219.49" xlink:href="#linear-gradient-20"/><linearGradient id="linear-gradient-22" x1="349.16" y1="117.69" x2="265.49" y2="201.35" xlink:href="#linear-gradient-20"/><linearGradient id="linear-gradient-23" x1="249.76" y1="89.24" x2="379.89" y2="219.36" xlink:href="#linear-gradient-20"/><linearGradient id="linear-gradient-24" x1="256.82" y1="82.82" x2="388.68" y2="214.68" xlink:href="#linear-gradient-20"/><linearGradient id="linear-gradient-25" x1="249.66" y1="146.31" x2="336.48" y2="233.13" xlink:href="#linear-gradient-20"/><linearGradient id="linear-gradient-26" x1="263.92" y1="128.67" x2="352.68" y2="217.43" xlink:href="#linear-gradient-20"/><linearGradient id="New_Gradient_Swatch_6-14" x1="404.86" y1="545.49" x2="350.48" y2="491.1" xlink:href="#New_Gradient_Swatch_6"/><linearGradient id="linear-gradient-46" x1="365.53" y1="487.58" x2="448.78" y2="570.82" xlink:href="#linear-gradient-20"/><linearGradient id="New_Gradient_Swatch_6-13" x1="420.86" y1="526.2" x2="369.59" y2="474.93" xlink:href="#New_Gradient_Swatch_6"/><linearGradient id="linear-gradient-45" x1="374.14" y1="479.51" x2="455.56" y2="560.94" xlink:href="#linear-gradient-20"/><linearGradient id="linear-gradient-44" x1="355.77" y1="496.56" x2="441.72" y2="582.52" xlink:href="#linear-gradient-20"/><linearGradient id="New_Gradient_Swatch_6-12" x1="409.2" y1="539.47" x2="356.41" y2="486.67" xlink:href="#New_Gradient_Swatch_6"/><linearGradient id="linear-gradient-43" x1="362.36" y1="491.28" x2="444.53" y2="573.45" xlink:href="#linear-gradient-20"/><linearGradient id="linear-gradient-27" x1="80.49" y1="973.12" x2="97.43" y2="973.12" gradientTransform="matrix(2.55 0 0 -2.55 16.02 2820.36)" gradientUnits="userSpaceOnUse"><stop offset="0" stop-color="#ea7224"/><stop offset=".41" stop-color="#b62122"/><stop offset=".75" stop-color="#78231b"/><stop offset="1" stop-color="#200"/></linearGradient><linearGradient id="New_Gradient_Swatch_6-11" x1="420.95" y1="529.39" x2="366.57" y2="475.01" xlink:href="#New_Gradient_Swatch_6"/><linearGradient id="linear-gradient-28" x1="125.05" y1="960.09" x2="141.98" y2="960.09" gradientTransform="matrix(5.56 0 0 -5.56 -364.44 5668.97)" xlink:href="#linear-gradient-27"/><linearGradient id="linear-gradient-42" x1="372.03" y1="480.43" x2="456.66" y2="565.05" xlink:href="#linear-gradient-20"/><linearGradient id="linear-gradient-29" x1="144.78" y1="921.17" x2="162.37" y2="921.17" gradientTransform="matrix(-4.04 3.83 3.83 4.04 -2772.74 -3926.04)" xlink:href="#linear-gradient"/><linearGradient id="New_Gradient_Swatch_6-10" x1="279.42" y1="538.45" x2="225.91" y2="484.95" xlink:href="#New_Gradient_Swatch_6"/><linearGradient id="linear-gradient" x1="466.49" y1="248.94" x2="518.23" y2="248.94" gradientUnits="userSpaceOnUse"><stop offset="0" stop-color="#fff"/><stop offset=".57" stop-color="#e3e3e3"/><stop offset="1" stop-color="#8c8c8b"/></linearGradient><linearGradient id="New_Gradient_Swatch_6-9" x1="273.32" y1="545.49" x2="218.94" y2="491.1" xlink:href="#New_Gradient_Swatch_6"/><linearGradient id="linear-gradient-31" x1="118.56" y1="946.22" x2="135.49" y2="946.22" gradientTransform="matrix(14.18 0 0 -14.18 -1481.8 13842.82)" gradientUnits="userSpaceOnUse"><stop offset="0" stop-color="#003964"/><stop offset=".01" stop-color="#003964"/><stop offset=".5" stop-color="#0069b4"/><stop offset="1" stop-color="#003964"/></linearGradient><linearGradient id="linear-gradient-32" x1="306.25" y1="457.87" x2="390.87" y2="542.5" xlink:href="#linear-gradient-20"/><linearGradient id="New_Gradient_Swatch_6" x1="355.16" y1="506.83" x2="300.79" y2="452.46" gradientUnits="userSpaceOnUse"><stop offset=".02" stop-color="#c18c23"/><stop offset=".07" stop-color="#c8a83f"/><stop offset=".42" stop-color="#7d4e24"/><stop offset=".68" stop-color="#c8a83f"/><stop offset=".86" stop-color="#c8a83f"/><stop offset="1" stop-color="#683c11"/></linearGradient><linearGradient id="linear-gradient-33" x1="296.57" y1="468.72" x2="378.74" y2="550.89" xlink:href="#linear-gradient-20"/><linearGradient id="New_Gradient_Swatch_6-2" x1="343.42" y1="516.91" x2="290.62" y2="464.12" xlink:href="#New_Gradient_Swatch_6"/><linearGradient id="linear-gradient-34" x1="289.98" y1="474.01" x2="375.94" y2="559.96" xlink:href="#linear-gradient-20"/><linearGradient id="linear-gradient-35" x1="308.35" y1="456.96" x2="389.78" y2="538.38" xlink:href="#linear-gradient-20"/><linearGradient id="New_Gradient_Swatch_6-3" x1="355.08" y1="503.65" x2="303.8" y2="452.37" xlink:href="#New_Gradient_Swatch_6"/><linearGradient id="linear-gradient-36" x1="299.75" y1="465.02" x2="382.99" y2="548.27" xlink:href="#linear-gradient-20"/><linearGradient id="New_Gradient_Swatch_6-4" x1="339.08" y1="522.93" x2="284.69" y2="468.55" xlink:href="#New_Gradient_Swatch_6"/><linearGradient id="New_Gradient_Swatch_6-5" x1="345.17" y1="515.9" x2="291.67" y2="462.4" xlink:href="#New_Gradient_Swatch_6"/><linearGradient id="linear-gradient-37" x1="240.49" y1="480.43" x2="325.11" y2="565.05" xlink:href="#linear-gradient-20"/><linearGradient id="New_Gradient_Swatch_6-6" x1="289.41" y1="529.39" x2="235.03" y2="475.01" xlink:href="#New_Gradient_Swatch_6"/><linearGradient id="linear-gradient-38" x1="230.81" y1="491.28" x2="312.98" y2="573.45" xlink:href="#linear-gradient-20"/><linearGradient id="New_Gradient_Swatch_6-7" x1="277.66" y1="539.47" x2="224.86" y2="486.67" xlink:href="#New_Gradient_Swatch_6"/><linearGradient id="linear-gradient-39" x1="224.22" y1="496.56" x2="310.18" y2="582.52" xlink:href="#linear-gradient-20"/><linearGradient id="linear-gradient-40" x1="242.59" y1="479.51" x2="324.02" y2="560.94" xlink:href="#linear-gradient-20"/><linearGradient id="New_Gradient_Swatch_6-8" x1="289.32" y1="526.2" x2="238.04" y2="474.93" xlink:href="#New_Gradient_Swatch_6"/><linearGradient id="linear-gradient-41" x1="233.99" y1="487.58" x2="317.23" y2="570.82" xlink:href="#linear-gradient-20"/><clipPath id="clip-path-12" transform="translate(2.91)"><path class="cls-2" d="M129.54 206.27c-14.27 10.62-11.66 27.44-10.7 33.37a.39.39 0 0 1-.12 0l.81 1s-5 1.74-14.73.51S91.49 234 91.49 234s-.49 12.31 11.91 29.11 28.51 21 28.51 21-.49 1.74-4.76 6.69-15 4.68-15 4.68.73 4.46 18.08 9.16 21.41 1 38.51-1 23.79 2.22 23.79 2.22h.46c12.85-11 28.19-28.82 36-36.52-2-3.5-11.92-20.28-21.47-30-10.6-10.8-8.11-17.17-8.08-17.3 0 .08-1.23 3.09-6.43 14.85a53.82 53.82 0 0 1-12.82 18.28s-4.76-7.65-2.61-19.78-4.77-29.91-4.77-29.91-4.73 1.47-9.27 7.92-5.47 24.23-5.47 24.23-10-11.64-10.95-21.52c-.49-5.51 2.35-14 5-20.37-7.12 1.34-14.12 4.26-22.58 10.53"/></clipPath><clipPath id="clip-path-23" transform="translate(2.91)"><path class="cls-1" d="M196.28 351.58v142.56l25.91-11.78V351.58Zm53.66 0v118.13l25.42-11.62V351.58Zm53.17 0v93.88l12.31-5.61 13.09 5.84v-94.11Zm53.12 0v106.51l26.19 11.73V351.58Zm53.93 0v130.69L436.37 494V351.58Z"/></clipPath><clipPath id="clip-path-21" transform="translate(2.91)"><path class="cls-2" d="M231.78 266.85c-7.85 6.41-33.05 37.31-48.27 46s-20.22 8.89-41.37 5.92-29.48-9.9-36.63-4.93-20 15.56-20 15.56a51.4 51.4 0 0 1 12.34 10.88c6 7.17 15 7.17 15 7.17S85.55 369 88.63 399.6s24.5 43.77 24.5 43.77a32.64 32.64 0 0 1-1.67-29.91c7.38-16.31 27.58-30.68 27.58-30.68s-1.66 8.66 3.57 15.6 15.67 16.06 13.3 21 11.66-20 12.61-30.14 3.1-16.31 7.86-24 5.94-7.38 5.94-7.38-3.81 6.9-.25 11.6c2.05 2.68 8.18 8.17 13.12 12.49V349h23.45a69.79 69.79 0 0 0 1.73-9c2.35-21 8.08-18.54 8.08-18.54s-1.66 5.95 1.88 9.89 11.43 13.1 12.14 16.08c.59 2.45 6.75-12.1 15.61-20.64a54.1 54.1 0 0 1 .46-8.41 110.66 110.66 0 0 1 3.6-17.31c-2.91-3.52-6.87-8.53-12-15.45-5.37-7.27-6.69-16.86-6.39-25.55a38.14 38.14 0 0 0-12 6.77"/></clipPath><clipPath id="clip-path-20" transform="translate(2.91)"><path class="cls-1" d="M393.27 321s-17.46-.18-31.9 4.75c-10.36 3.54-25.74 16.36-33.54 23.3H422l-11.18-34-18.4-.93Z"/></clipPath><clipPath id="clip-path-19" transform="translate(2.91)"><path class="cls-1" d="M220.37 339.76a70.64 70.64 0 0 1-1.71 9h43.25a85.2 85.2 0 0 1-3.83-22.24c-8.86 8.58-15 23.12-15.61 20.67-.71-2.95-8.55-12.13-12.14-16.07s-1.88-9.9-1.88-9.9a1.41 1.41 0 0 0-.56-.1c-1.49 0-5.61 1.62-7.52 18.64"/></clipPath><clipPath id="clip-path-29" transform="translate(2.91)"><path class="cls-2" d="M353 219.78s3.18 8.94.32 22.89-9.25 21.55-8.62 36.8 16.92 25.2 16.92 25.2.64-5.62 1-11.94 7.64-21.87 11.45-17.91 3.2 27.54 7 45.45 20.41 30.16 18.49 26.2 6.07-14.93 6.07-14.93l21.7 24.55s10.52-12.29 17.85-11.63 3.85 20.24 12.75 43.78 24.57 25.55 24.57 25.55 2.54-7.62 3.83-12.29 6.7-10.92 6.7-10.92a53.33 53.33 0 0 1 30.62 16.91c13.39 14.91-4.47 51.41-4.47 51.41s27.41-38.15 27.41-67.67-24.24-41.78-24.24-41.78 5.75-1.32 13.71-2.31 12.77-7.64 14.38-17.26a15.73 15.73 0 0 1 10.17-12.25h-9.55c-4.47 0-4.81-1.34-10.21-4.65s-10.51-6-31.56-3-46.89 4.63-64.73-5.64-44.34-56.04-50.41-64.34-15-20.9-28-23.21a34.18 34.18 0 0 0-5.89-.6c-7.21 0-7.21 3.58-7.21 3.58"/></clipPath><clipPath id="clip-path" transform="translate(2.91)"><path class="cls-1" d="M283.53 347.62"/></clipPath><clipPath id="clip-path-2" transform="translate(2.91)"><path class="cls-1" d="M455.59 498.29h.25l-.08-.31Z"/></clipPath><clipPath id="clip-path-28" transform="translate(2.91)"><path class="cls-4" d="M270.09 305.9s0 0 0 0 0 0 0 0m92.5-13.17c-.27 5.21-.76 9.95-.93 11.43a22.13 22.13 0 0 1 4.88.51l2.6-.34 7.49-16.62s0 .34.05.92c.07-1.22.07-2.5.08-3.91-.61-4.91-1.39-8.52-2.72-9.9a1.78 1.78 0 0 0-1.36-.63c-4 0-9.82 12.94-10.09 18.54m-23.33-34.23c-7.2 6.32-22.56 18.21-39.93 25.36-16.22 6.67-25 16.34-28.67 21.25 1 2 3.61 7.76 6.16 14.77a56 56 0 0 1 3.59 11.06 63.68 63.68 0 0 1 2.21 12.94c.06 1.32.11 2.68.11 4a15 15 0 0 0 1.39-.83c9.86-7.31 38.95-28.56 51.28-34.09 9.36-4.24 20.23-6.55 27.05-7.71a11.36 11.36 0 0 0-1.55-1.08c-3.19-2.16-15.65-11.41-16.19-24.72-.53-12.89 3.94-20.35 7.08-30.8-.58-.33-1.07-.65-1.53-1a53.9 53.9 0 0 1-11 10.79"/></clipPath><clipPath id="clip-path-3" transform="translate(2.91)"><path class="cls-1" d="M518.31 201.76a.25.25 0 0 0 0 .09v.13l-.05-.23Z"/></clipPath><clipPath id="clip-path-27" transform="translate(2.91)"><path class="cls-2" d="M257.34 339.46C262.7 369 283 379 283 379s.19-19.36-.4-35.12c-.55-14.08-10-34.56-12-38.77a34.45 34.45 0 0 0-2.12 3.2s-2-1.95-6.4-7.23c0 0-8.45 18.42-4.8 38.38"/></clipPath><clipPath id="clip-path-18" transform="translate(2.91)"><path class="cls-1" d="M303.85 83.08a1.42 1.42 0 0 0-.1-.26Z"/></clipPath><clipPath id="clip-path-17" transform="translate(2.91)"><path class="cls-2" d="M454.69 498.17c2.37 1.16 18.93 9.9 11.55 24.39-8 15.62-16.6 14.28-21.39 16.94-2.84 1.58-6.81 5.39-9.57 8.2v19c3.86-1.48 10.1-4 12.94-5.82 4.28-2.81 6.08-20.09 8-20.44s1.76 5.74 1.95 11-7.31 12.63-9.47 23.78 18.78 18.55 18.78 18.55-.56-3.32-2-9.82 1.09-10.41 3.74-19.3 1.63-11.9-.52-16-7.15-12.6-7.15-12.6a98.88 98.88 0 0 1 10.89 8.71c3.95 3.89-1.42 16.71 2.52 25.45s25.35-1.85 25.35-1.85a53.14 53.14 0 0 0-6.41-6.13c-4.86-4.1-5.39-10.41-6.25-16.16s-5.57-8.72-13.23-10-7.31-6.52-2-6.34 9.3 3 13.4 6.88 6.43-4.1 6.43-7.6-1.07-6.34 3.93-11.91a12.28 12.28 0 0 0 3.05-11.5c-3.58 5-4.83 3.33-10.37 3.33s-10.19 5.58-14.12 9.84-3.74-2.78-4.08-6.86 0-5.95-9.67-11.7c-2.91-1.74-4.57-2.34-5.5-2.34a1 1 0 0 0-.88.39"/></clipPath><clipPath id="clip-path-16" transform="translate(2.91)"><path class="cls-2" d="M508 414.44c-6.89 5.13-16.25 4.91-28.94 4.7-3.77-.05-7.83-.1-12.2-.05-12.69.23-24.84 7-31.57 11.55v5.14c9.38 3.24 23.59 12.49 23.59 12.49a67.68 67.68 0 0 0-11.46 5.33c-2.61 1.48-7.39 6.39-12.13 11.71v82.39c2.76-2.81 6.73-6.62 9.57-8.2 4.79-2.66 13.38-1.32 21.39-16.94s-11.82-24.51-11.82-24.51a29.82 29.82 0 0 1-1.27 8.31c-1.27 3.63-4.78 7.94-8 1.95s19.78-20.88 27.45-22.87 16.88-10.93 16.88-10.93-2.89 6.95-2.89 12.58 11.17 16.26 11.17 16.26 7.67-21.55 15.63-34.83c2.56-4.25 6.13-11.47 9.77-19.34 4.34-11.86 9.45-31.66.46-41.69a48.76 48.76 0 0 0-4-4A75.39 75.39 0 0 1 508 414.44"/></clipPath><clipPath id="clip-path-15" transform="translate(2.91)"><path d="M486.83 194.51a21.38 21.38 0 0 1 5.74 11.62c2 12.08-4.63 25.75-4.63 25.75s-5-12.31-12.47-14.13-7.66-2.27-9.64-5-2.17-1.58-2.17-1.58a23.8 23.8 0 0 0-7 21.62c2.43 13.68 2.84 19.14-.87 26s-7.87 8.43-7.87 8.43 3.49-7.73 0-13.64-10.31-11-10.31-15.06-.44-8.87-.44-8.87a25.58 25.58 0 0 0-17.33 20 209.86 209.86 0 0 1-5.09 21.52c9.63 13.84 20.81 28 29.82 33.19.4.25.86.46 1.28.72 3.86-2.83 10.15-5.28 20.24-4.68 21.67 1.39 30.43 6.62 40.94 1.39s15.12-9.1 15.12-9.1-6.14 2-10.95-2a57.08 57.08 0 0 0-10.32-6.82s18.21-.72 24.34-11 9.19-19.58 12.92-21.41a62.39 62.39 0 0 0 6.77-3.86s-16.41-12.29-29.53-2.27c0 0 7-14.58 4.38-26.64-1.3-5.94-1.72-12.4-3.62-17.72a16 16 0 0 1 .75 3.83s-2.78-12-18.6-12a44 44 0 0 0-11.44 1.71" style="fill:url(#linear-gradient);stroke-linejoin:round;stroke-linecap:round;stroke-width:.91px;stroke:#002d5d"/></clipPath><clipPath id="clip-path-14" transform="translate(2.91)"><path class="cls-2" d="M162.36 508.91c-3.66 7.61-3.63 9-3.34 9.14a16.1 16.1 0 0 1-11.65-4c-5-4.68-8.09-6.18-16.17-4.19s-9.51 2-9.51 2 9.73 2.22 13.56 9.4 6.89 11.36 11.87 7.66 11.16-6.92 12.88-6.66 2.39 2.22 1 3-14.53 6.65-20.95 16.55-2.15 19-5.71 20.28-6.4 2.47-5 4.19 16.88 7.68 20.2-1.72 2.15-27.44 7.36-30.68 6.42-4.68 6.42-4.68.25 8.17-4.49 13.35-3.59 17.09-1.18 21.74 4.74 13.12 4 17.33-1.41 9.65 3.34 6.43 9.73-18.32 9.73-23.76-7.36-24.21-2.11-26.69 5.19 1.76 4.74 5.21-4 23.47 3.79 25.69 11.19-.24 11.19-.24-6-8.16-4-14.32 1.4-15.34 1.4-15.34 6.45-8.66 2.41-8.41-23.84 4.45-27.14-11.91c-2.61-12.77 9.41-15.55 16-15.88a24.57 24.57 0 0 0-2-4.86c-5.27 1.41-13.35 4.59-16.58 11.37"/></clipPath><clipPath id="clip-path-13" transform="translate(2.91)"><path class="cls-2" d="M160.83 410.29c-3.26 6.7-6.09 11.53-4.92 9.08.93-1.9-.09-4.43-1.95-7.25-8.42 2.5-17.1 5.67-25.13 6.28-9 .69-13.71-3.13-16.17-7.37-.42.81-.85 1.62-1.2 2.43a32.64 32.64 0 0 0 1.67 29.91s-.71-.44-1.84-1.32c3 10.3 1.86 21.68 2.79 31.26 1.43 14.84 16.17 26.45 16.17 26.45a16 16 0 0 1-.71-4.2c-.23-3 5-9.4 8.55-13.34s4.76-10.9 4.76-10.9 0 1 6 5.93S160.68 485 173 491.6s8.84 28.67 8.84 28.67 7.11-4.93 12.8-33.12-15.19-42.81-15.19-42.81l14.55-7.41s4.77-9.37-9-22.74c-4-3.87-8.74-5.26-14-5.26a44.45 44.45 0 0 0-10.13 1.36"/></clipPath><clipPath id="clip-path-22" transform="translate(2.91)"><path class="cls-1" d="M196.28 568.14v28.25c0 17.61 12.78 24 12.78 24l106.36 65.67s91.83-57 104.76-64.87c17.43-10.57 16.19-21.64 16.19-21.64V568l-120.95-54.16Z"/></clipPath><clipPath id="clip-path-11" transform="translate(2.91)"><path class="cls-2" d="M148.54 123.42c-5.69 7.68-4 17.31-10.89 35.85s-16.91 15.83-24.06 38.07 5.25 42.3 5.25 42.3c-1-5.93-3.57-22.75 10.7-33.37s24.46-11.62 38.27-11.37 32.6 0 37.56-5 13.56-8.13 13.56-8.13-17.85-5.69-18.79-5.69 9.78-4.44 20.23-17.27S232 120 232 120s-4.74 5.67-14.47 9.88-16.67 3.7-26.4 5.42-19.29 12.87-19.29 12.87a114.09 114.09 0 0 0 .27-11.86c-.27-5.45-5-11.63-7.62-15.57a18.22 18.22 0 0 1-2.62-8.93 43.94 43.94 0 0 0-13.33 11.62"/></clipPath><clipPath id="clip-path-10" transform="translate(2.91)"><path class="cls-1" d="M359 306.5Z"/></clipPath><clipPath id="clip-path-9" transform="translate(2.91)"><path class="cls-1" d="M360.59 303.49h.1Z"/></clipPath><clipPath id="clip-path-8" transform="translate(2.91)"><path class="cls-1" d="M351.48 249.92Z"/></clipPath><clipPath id="clip-path-24" transform="translate(2.91)"><path class="cls-2" d="M294.18 207.38c-32.92 9.77-42.75 16.89-42.75 16.89s-12 11.57-7.68 22.22 6 16 9.39 19.16 7.28 9.33 7.28 13.31a133 133 0 0 1 26.5-11.11c11.83-3.35 33.54-12 42.53-20.74.78-1.11 3.66-5.55 3.66-8.61 0-3.56 5.57-12.89 11.95-8.44 5.56 3.86 8.25 9.74 6.86 14.42l.95.23c.15-.69.29-1.35.46-2 2.86-13.95-.32-22.89-.32-22.89s0-2.29 3.69-3.21c-7.66-4-24.89-11.78-44.2-11.78a64.23 64.23 0 0 0-18.32 2.59"/></clipPath><clipPath id="clip-path-7" transform="translate(2.91)"><path class="cls-1" d="M313.99 66.18h.02-.02z"/></clipPath><clipPath id="clip-path-25" transform="translate(2.91)"><path class="cls-2" d="M286.92 267.85a133 133 0 0 0-26.5 11.15c0-4-3.86-10.21-7.28-13.31-3.1-2.87-4.81-7.54-8.3-16.38-1.76 10.51-2.44 25.89 5.3 36.36 12.85 17.35 18.4 22.68 18.4 22.68s8.13-15.12 30.79-24.45c17.37-7.15 32.73-19 39.93-25.36a8.68 8.68 0 0 1-4 1.78c-3.41 0-11.09-2.24-6-12.89l.25-.32c-9 8.75-30.75 17.43-42.58 20.78"/></clipPath><clipPath id="clip-path-6" transform="translate(2.91)"><path class="cls-1" d="M314 66.18Z"/></clipPath><clipPath id="clip-path-26" transform="translate(2.91)"><path class="cls-2" d="M369.14 304.33s-18.83 1.89-33.74 8.65c-13 5.81-44.47 29-52.67 35.08.41 13.31.33 27.66.29 30.42 1.54-.49 11.72-4.08 25.69-13.55 15.14-10.32 9.09-8.86 30.29-24.64s42.49-18.7 42.49-18.7-1.43-7.78-2.49-12.59-2.4-21.24-2.4-21.24Z"/></clipPath><clipPath id="clip-path-4" transform="translate(2.91)"><path class="cls-1" d="M518.29 201.75Z"/></clipPath><radialGradient id="radial-gradient" cx="376.27" cy="494.21" r="26.98" gradientTransform="matrix(1.82 0 0 1.9 -418.12 -781.95)" gradientUnits="userSpaceOnUse"><stop offset="0" stop-color="#fff"/><stop offset=".81" stop-color="#dadada"/><stop offset="1" stop-color="#9d9d9c"/></radialGradient><radialGradient id="radial-gradient-2" cx="376.63" cy="494.74" r="26.7" xlink:href="#radial-gradient"/><radialGradient id="radial-gradient-3" cx="376.01" cy="494.55" r="26.82" xlink:href="#radial-gradient"/><radialGradient id="radial-gradient-4" cx="376.1" cy="493.97" r="27.04" xlink:href="#radial-gradient"/><radialGradient id="radial-gradient-5" cx="375.99" cy="494.78" r="26.82" xlink:href="#radial-gradient"/><radialGradient id="radial-gradient-6" cx="361.04" cy="503.87" r="5.77" xlink:href="#radial-gradient"/><style>.cls-1,.cls-2{fill:none}.cls-121,.cls-2,.cls-4{stroke:#002d5d;stroke-linecap:round;stroke-width:.91px}.cls-2{stroke-linejoin:round}.cls-122,.cls-4,.cls-7{fill:#fff}.cls-121,.cls-4{stroke-miterlimit:10}.cls-8{fill:#29235c}.cls-15{clip-path:url(#clip-path-4)}.cls-44{fill:#002d5d}.cls-66{fill:#1d1d1b}.cls-74{fill:#ffed00}.cls-121{fill:#0069b4}.cls-122{fill-rule:evenodd}</style></defs><path d="M632.68 37.93S500.37 0 316.34 0C135.8 0 0 37.93 0 37.93v535.45c0 151.5 136.7 277.32 316.34 302.13C496 850.7 632.68 724.88 632.68 573.38V37.93Z" transform="translate(2.91)" style="fill:url(#linear-gradient-2)"/><path d="M618.85 56.64s-96.59-37.93-302.51-37.93c-180.54 0-302.52 37.93-302.52 37.93v511.23c0 144.88 130.73 265.2 302.52 288.93 171.79-23.73 302.51-144 302.51-288.93V56.64Z" transform="translate(2.91)" style="fill:url(#linear-gradient-3)"/><path class="cls-7" d="M603.39 77s-97.71-37.95-287.63-37.95C133.1 39.05 28.14 77 28.14 77v485.11c0 137.75 124.29 252.14 287.62 274.71 163.34-22.57 287.63-137 287.63-274.71V77Z" transform="translate(2.91)"/><path class="cls-8" d="M551 603.46c1-4.63 1.94-9.43 1.51-14.59a10.23 10.23 0 0 0-.08-1.09 8.06 8.06 0 0 0-.14-.92 11.75 11.75 0 0 0-3.69-6.12v-23.1a2.56 2.56 0 0 0-2.11-2.55c-2.09-.33-20.6-3-28.32 3.88a10.16 10.16 0 0 0-3.43 7.7 20.6 20.6 0 0 0 0 2.45v32.56a224.41 224.41 0 0 1-29-1.75c-28-3.32-45.87-1.09-53.11 6.63a13.38 13.38 0 0 0-3.53 11.12v51a2.62 2.62 0 0 0 .4 1.4c.73 1.18 4.48 5.28 20.25 3.35-44.19 15.57-96.35 19.26-135.44 19.26s-91.25-3.69-135.43-19.26c15.77 1.94 19.52-2.17 20.25-3.35a2.62 2.62 0 0 0 .4-1.4v-51a13.38 13.38 0 0 0-3.53-11.12c-7.24-7.72-25.11-9.95-53.11-6.63a220.88 220.88 0 0 1-29 1.75v-32.43a25.41 25.41 0 0 0 0-2.58 10.16 10.16 0 0 0-3.43-7.7c-7.72-6.9-26.23-4.21-28.32-3.88a2.56 2.56 0 0 0-2.11 2.55v23.1a11.68 11.68 0 0 0-3.68 6.08 5.26 5.26 0 0 0-.13.84 9.71 9.71 0 0 0-.1 1.21c-.43 5.17.55 10 1.51 14.59 1.43 6.95 2.78 13.52-.63 21.06a52.46 52.46 0 0 0-4.23 16.66 2.73 2.73 0 0 0 .08.85c2.7 9.97 10.15 15.74 21.58 16.81a53.69 53.69 0 0 0 14.77-.9 34.07 34.07 0 0 1-7.07 8.59c-6.77 6-10.16 12.1-10.09 18a14.31 14.31 0 0 0 4.29 10.05c24.09 28.24 68.12 48 130.88 58.7a555 555 0 0 0 87.08 7.66h.71a556.19 556.19 0 0 0 86.41-7.66c62.75-10.71 106.79-30.46 130.87-58.7a14.31 14.31 0 0 0 4.29-10.05c.07-5.89-3.32-11.95-10.09-18a34.07 34.07 0 0 1-7.07-8.59 53.69 53.69 0 0 0 14.77.9c11.43-1.07 18.88-6.88 21.54-16.81a2.73 2.73 0 0 0 .08-.85 52.46 52.46 0 0 0-4.23-16.66c-3.4-7.52-2.05-14.11-.57-21.06Z" transform="translate(2.91)"/><path class="cls-8" d="M561 315.52h-9.55c-2.54 0-3.1-.38-5.44-2-.92-.63-2-1.4-3.51-2.3-6.2-3.82-12.2-6.29-33.16-3.33-16.54 2.35-39.85 4.48-57.43-2.59a33.24 33.24 0 0 1 14.4-1.87 185.38 185.38 0 0 1 18.69 2.28c9.32 1.5 16.06 2.59 23.53-1.13 10.67-5.3 15.42-9.26 15.61-9.42a2.65 2.65 0 0 0 .62-3.22 2.44 2.44 0 0 0-2.92-1.25c-.05 0-5 1.52-8.65-1.58a50.44 50.44 0 0 0-4.28-3.25c6.25-1.32 14.75-4.34 18.84-11.17 2.32-3.87 4.19-7.57 5.83-10.84 2.29-4.54 4.45-8.82 6-9.6a63.63 63.63 0 0 0 7.07-4 2.6 2.6 0 0 0 1.14-2.1 2.64 2.64 0 0 0-1-2.16c-.63-.47-13.48-9.91-26.22-5.6 1.82-5.66 3.69-14.11 2-21.79-.46-2.11-.82-4.35-1.17-6.51-.4-2.48-.82-5-1.38-7.4a2.61 2.61 0 0 0 1.16-2.8l-.05-.22a2.48 2.48 0 0 0-2.56-2c-2-6-6.34-13.3-9.89-19.31-.71-1.19-1.37-2.31-2-3.35-2.5-4.25-2.39-7.07-2.21-11.74a70.63 70.63 0 0 0-.1-9.44c-.69-8.82-6.84-11.38-12.78-13.85a42.1 42.1 0 0 1-8-4c-7.83-5.42-12-14.56-12.06-14.65a2.44 2.44 0 0 0-2.67-1.45 2.54 2.54 0 0 0-2 2.3c0 .07-.64 7-1.26 10.95a22.48 22.48 0 0 0 .27 6.72 60.91 60.91 0 0 0-9.16-5c-5.63-2.46-8.31-2.26-13.66-1.84-2.86.22-6.42.49-11.82.49-13.35 0-16.11-9.13-16.22-9.5a2.45 2.45 0 0 0-4.77 0c-1.34 4.78-3.24 18 8.15 37.58 6.84 11.73 17.85 18.27 24.16 21.24-.52.25-1.1.51-1.74.79-4.48 1.9-14.43 3.47-14.53 3.48a2.5 2.5 0 0 0-1.94 1.59 2.68 2.68 0 0 0 .34 2.55c.17.22 4.24 5.58 15 10.35.95.42 1.8.83 2.6 1.2 8.93 4.19 12.1 4.79 40.15-5.47 1.37-.5 2.72-.95 4.06-1.35a19 19 0 0 1 4.07 9.14c1.12 6.85-.8 14.41-2.45 19.22-2.4-4.08-6.39-9.27-11.63-10.54-6.46-1.61-6.56-1.74-8.21-4-.76-1.07-2.34-3.29-4.47-2.81a2.74 2.74 0 0 0-1.62 1.07 26.39 26.39 0 0 0-7.55 23.78c2.45 13.71 2.65 18.27-.58 24.2a24.48 24.48 0 0 1-1.69 2.7 14.89 14.89 0 0 0-1.91-8 50.42 50.42 0 0 0-5.49-7.15c-2.09-2.4-4.46-5.11-4.46-6.56 0-4.16-.43-8.91-.45-9.11a2.6 2.6 0 0 0-1-1.87 2.4 2.4 0 0 0-2.05-.39 28 28 0 0 0-19.14 22.1c-.84 4.83-2 10.14-3.62 16.12-4.42-6.51-8.44-12.77-11.52-17.58-2.7-4.2-4.83-7.52-6.12-9.28l-.48-.66c-2-2.69-4.29-5.84-6.94-8.94a7.87 7.87 0 0 0 1.14-.53c3.94-2.2 6.12-8.76 5-14.92a13.4 13.4 0 0 0-4.9-8.43 2.63 2.63 0 0 0 1.11-2.06c.05-1.58 1.05-38.78-28.18-52.52-20.28-9.53-33.51-29.81-37.1-35.82l-.2-.34-.55-1a2.42 2.42 0 0 0-3.21-.93c-.83-1.69-1.71-3.4-2.66-5.14a2.43 2.43 0 0 0-2.79-1.17 60.5 60.5 0 0 0-10.92-21c-4.15-5.39-13.38-12.48-19.89-15.71a2.42 2.42 0 0 0-3.05.78 2.67 2.67 0 0 0 .13 3.27 33.34 33.34 0 0 1 5 7.38c-7.66.74-18.4 6.08-18.64 15.86-.15-.06 3.31 5.43-1.71 6.19-.5.07-4.95-.82-7 2.27s-.08 7 1 8.92a24.27 24.27 0 0 0 2.74 10.25 2.56 2.56 0 0 0-1.55 2 21.13 21.13 0 0 0-.05 7c-.07 2.6 2.12 5.23 4.4 6.41 3.36 1.84 6 1.7 11.06 1.17 0 0 5.95 12.39-7 6-1-.38-4.72-2.5-13-6.39-6.36-2.33-11.23-2.25-14.5.23s-4.65 7.21-4 14a2.56 2.56 0 0 0 1.53 2.13 2.39 2.39 0 0 0 2.53-.41c.21-.18.42-.33.63-.5a9.08 9.08 0 0 0-.59 1.46 2.42 2.42 0 0 0-2.88.58c-7.11 8-9.33 17.54-6.6 28.27.5 2 1.11 3 2.16 3.57a2.62 2.62 0 0 0 .12 2.14 27.19 27.19 0 0 0 6.82 8.51 3.44 3.44 0 0 0 2.25.74 4.94 4.94 0 0 0 .79-.07 2.56 2.56 0 0 0 1.25 2.38 26.35 26.35 0 0 0 6.33 2.65c-3.05 1.66-5.62 3.61-6.88 5.84a6.65 6.65 0 0 0-.7 5.07 26.66 26.66 0 0 0 2.48 6.47c-3.06 3.37-11.32 13.77-7.21 24l.81 2.06a84.36 84.36 0 0 0-.94 8.69 41.19 41.19 0 0 0-11.08 6.59l-.69.58c-3.64-6.09-12-19.46-20.31-27.86-9.12-9.29-7.49-14.53-7.48-14.58a1 1 0 0 0 .05-.16 2.61 2.61 0 0 0-1.48-3.12 2.44 2.44 0 0 0-3.12 1.25l-.12.27c-.64 1.56-2.32 5.53-6.36 14.66a54.85 54.85 0 0 1-9.75 15 30 30 0 0 1-1-15c2.22-12.7-4.62-30.59-4.92-31.34a2.44 2.44 0 0 0-3-1.51c-.23.07-5.58 1.81-10.55 8.87-3.11 4.41-4.64 13-5.36 19-2.75-4-6.1-9.9-6.59-15-.34-3.76 1.17-10 4.26-17.78a83.06 83.06 0 0 1 13.94-.62c23.2.38 35-1.32 39.3-5.69 4.55-4.49 12.62-7.55 12.7-7.58a2.62 2.62 0 0 0-.12-4.9c-6.28-2-10.5-3.31-13.35-4.17a73.57 73.57 0 0 0 16-14.66c10.85-13.38 12.17-39.27 12.22-40.36a2.57 2.57 0 0 0-1.55-2.51 2.42 2.42 0 0 0-2.8.68c0 .06-4.55 5.3-13.56 9.2-6.48 2.79-11.59 3.4-17.51 4.1-2.62.31-5.34.63-8.35 1.16-6.2 1.1-12.16 5.5-16.08 9v-5.61c-.28-5.51-4.16-11.19-7-15.34l-1.1-1.58a15.6 15.6 0 0 1-2.18-7.46 2.61 2.61 0 0 0-1.18-2.2 2.41 2.41 0 0 0-2.42-.11A46.26 46.26 0 0 0 147 122.32c-3.39 4.57-4.41 9.66-5.7 16.09a125.5 125.5 0 0 1-5.53 20.4c-3.05 8.16-6.69 11.91-10.55 15.89-4.7 4.85-9.56 9.86-13.56 22.31-6.07 19 1.17 36.18 4.26 42.23a44.27 44.27 0 0 1-10.39-.21c-8.32-1.05-11.39-5.79-11.5-6a2.47 2.47 0 0 0-2.75-1.13 2.56 2.56 0 0 0-1.84 2.39c0 .55-.36 13.5 12.41 30.83a61.35 61.35 0 0 0 26.72 20.9c-.64.88-1.55 2-2.83 3.53-2.87 3.3-10.42 3.88-13.09 3.83a2.34 2.34 0 0 0-1.93.89 2.61 2.61 0 0 0-.57 2.12c.3 1.83 2.84 6.6 19.9 11.22 13.1 3.55 19 2.49 27.86.87 3.24-.59 6.92-1.25 11.55-1.79 9.3-1.09 15.33-.26 18.73.61a47.65 47.65 0 0 1-5.45 3.72c-14.78 8.38-19.17 8.53-39.84 5.62a137.47 137.47 0 0 1-19.52-4.34c-8.17-2.3-13.57-3.83-18.82-.18-7.11 4.94-19.6 15.26-20.13 15.7a2.63 2.63 0 0 0 .34 4.27 49.9 49.9 0 0 1 11.68 10.32 22.49 22.49 0 0 0 11.21 7.15c-7.8 7.61-23.54 26.23-21.07 50.75 2.51 24.88 16.4 38.59 23 43.77 1.7 6.27 1.85 13 2 19.57.08 3.62.16 7 .48 10.36 1.51 15.78 16.5 27.75 17.14 28.25a2.4 2.4 0 0 0 3 0 2.67 2.67 0 0 0 .84-3 15.33 15.33 0 0 1-.55-3.45c0-1 2.08-4.94 7.89-11.38a22.43 22.43 0 0 0 4.13-7.51c.86.79 1.91 1.71 3.21 2.79 5 4.18 10 6.82 18.23 11.21 1.93 1 4 2.15 6.41 3.42a11.87 11.87 0 0 1 2.91 2.23c-5.61 2-11.74 5.51-14.66 11.63a63.17 63.17 0 0 0-3.29 7.69 13.08 13.08 0 0 1-7.81-3.27c-5.44-5.11-9.4-7-18.4-4.79a77.61 77.61 0 0 1-9 1.9 2.53 2.53 0 0 0-2.47 2.31 2.59 2.59 0 0 0 1.94 2.8c2.4.54 9.23 3.07 11.92 8.12 2.57 4.85 5.2 9.27 9.12 10.2a6.57 6.57 0 0 0 2.34.11 37.25 37.25 0 0 0-6.6 7.52c-4 6.22-4.25 12.19-4.4 16.15a19.57 19.57 0 0 1-.28 3.21c-3.29 1.13-6 2.29-6.68 4.7a3.84 3.84 0 0 0 .84 3.52c1.7 2.1 10.2 5.26 16.42 4.11a9.86 9.86 0 0 0 8-6.61 40.25 40.25 0 0 0 1.61-6.63 23 23 0 0 0 2 6.67c2.23 4.45 4.36 12.27 3.77 15.7-.7 4.18-1.11 8.08 1.39 9.79 1.53 1 3.46.79 5.75-.77 4.66-3.15 8.94-14.42 10.36-21.7a7.36 7.36 0 0 0 3.78 2.48c6.54 1.87 10.48.77 12.24 0v15.31c0 18.33 12.66 25.55 14.08 26.3l106.28 65.61a2.36 2.36 0 0 0 2.54 0c.92-.57 92-57.12 104.74-64.86 17.56-10.65 17.53-22.25 17.42-24V569a74.59 74.59 0 0 0 11.77-5.47 7.2 7.2 0 0 0 2-2 48.06 48.06 0 0 0-5.19 13.6c-2.49 13 18.06 20.67 20.41 21.5a2.42 2.42 0 0 0 2.41-.48 2.59 2.59 0 0 0 .83-2.4c0-.14-.58-3.47-2-10-.93-4.17 0-7 1.79-12.11.49-1.44 1-3 1.6-4.85a19 19 0 0 0 1.42 4.88 7.92 7.92 0 0 0 4.56 4.21c7.94 3 22.47-4 24.11-4.82a2.53 2.53 0 0 0 1.35-1.77 2.62 2.62 0 0 0-.51-2.2 54.19 54.19 0 0 0-6.76-6.49c-3.72-3.13-4.41-8-5.15-13.11l-.22-1.46a12.59 12.59 0 0 0-2.13-5.43 4.63 4.63 0 0 0 1.87-.41c3.68-1.7 4.92-8.15 4.92-10.83 0-.58 0-1.14-.05-1.69-.13-2.63-.22-4.53 3.31-8.45a14.92 14.92 0 0 0 3.58-14.11 2.55 2.55 0 0 0-1.18-1.43c1.61-4.38 8.28-22.06 15-33.35 1.4-2.32 3-5.38 4.64-8.62a2.4 2.4 0 0 0 1-.82c1.14-1.58 27.91-39.19 27.91-69.21a49.83 49.83 0 0 0-20-40.46c2.07-.35 4.56-.73 7.31-1.07 8.74-1.1 14.61-8 16.52-19.38a13.14 13.14 0 0 1 8.43-10.22 2.59 2.59 0 0 0 1.76-2.85 2.52 2.52 0 0 0-2.54-2.18Zm-412.38 96.15c-6.58 2-13.39 4.16-19.54 4.63-5.94.45-10.33-1.2-13.06-4.9 5.61-9.7 15.31-18.4 20.79-22.86a22.38 22.38 0 0 0 4.28 11.91c1.42 1.88 3.14 3.83 5 5.9 1.41 1.61 2.85 3.25 4.13 4.83Zm8.81 129.55a13 13 0 0 0-1.35 1.78c.59-3.14 1.37-5.75 2.48-6.44.7-.43 1.33-.83 1.9-1.2a14.15 14.15 0 0 1-3.03 5.86Zm17.87 1.68-.13.85c-.26 1.77-.51 3.63-.71 5.53-.78-3.93-1.36-8.1-.42-8.88a6 6 0 0 1 1.35-.48 10.17 10.17 0 0 1-.09 2.98Zm-7.48-24.68c-.67-3.26-.27-5.8 1.19-7.79 2.43-3.28 7.4-4.41 10.46-4.8a46.57 46.57 0 0 1 .37 14.69 2.62 2.62 0 0 0 1.11 2.59 2.39 2.39 0 0 0 2.72 0c.61-.42 4.92-3.81 9.46-17.64v22.83a4.82 4.82 0 0 0-.77 0c-.45 0-1.09.1-1.86.19-9.38 1.05-20.44.9-22.68-10.07Zm25.31 46.37c-1.45-2.71-2.95-6.57-2.07-9.42 1.64-5.4 1.62-12.68 1.55-15.29.18-.25.36-.5.52-.74v25.45Zm0-108a45.94 45.94 0 0 0-8.66-11.27l8.66-4.43Zm0-36.69a44.77 44.77 0 0 0-6.08-7.15c-4.12-4-9.24-6-15.66-6a38.71 38.71 0 0 0-5.76.46c2.9-6.71 5.46-13.81 5.79-17.33.89-9.4 2.74-15.14 7.29-22.57a10 10 0 0 0 1.84 4.15c1.67 2.18 5.68 6 12.58 12.08Zm245.53 38.92V440.2a144.15 144.15 0 0 1 15 8 76.12 76.12 0 0 0-7 3.58c-1.82 1.06-4.45 3.38-8 7.07ZM451.24 506c-.7 2-1.81 3.16-2.16 3.23 0 0-.53-.18-1.3-1.6-.18-1.07 1.59-3.26 4.36-5.8a21 21 0 0 1-.9 4.17Zm2.1 53a60.24 60.24 0 0 0 2.76-8.73l.06 1.75c.06 1.54-1.3 4.13-2.82 6.92Zm18-11.12c-.21-.41-.45-.86-.71-1.34l.57.56a3.12 3.12 0 0 1 .65 1.78c-.14-.39-.31-.72-.49-1.06Zm3.95-13.92a8.39 8.39 0 0 1-3.32-1.16 4.21 4.21 0 0 1 .85 0 13.49 13.49 0 0 1 6.92 2.26 35.55 35.55 0 0 0-4.43-1.16Zm17.45-27c-.91-.07-2-.17-3.39-.17-6.19 0-11.1 5.37-15 9.68l-.33.37c-.12-1-.19-2.19-.24-3q-.06-.91-.12-1.74l-.06-.63c-.41-4.95-1.51-7.51-10.84-13.06a29.64 29.64 0 0 0-3.86-2c5-3.61 10.72-6.89 14.77-7.94s8.13-3.64 11.49-6.12a26.93 26.93 0 0 0-.59 5.27c0 6.46 10 16.26 12 18.16l.13.12c-1.14 1.23-1.79 1.18-3.94 1ZM507 412.81c-6.16 4.57-14.93 4.43-27.07 4.22h-.4c-3.43-.05-7.71-.11-12.28-.06-10.7.2-20.94 4.71-28.57 9.25v-76.13c2.72-1.83 5-2.74 6.72-2.58 2 .18 2.85 6.3 3.79 12.78 1.1 7.65 2.62 18.13 6.87 29.37 9.36 24.69 25.88 27.08 26.57 27.17a2.47 2.47 0 0 0 2.65-1.72c.11-.31 2.58-7.75 3.87-12.44.75-2.76 3.57-6.68 5.3-8.84a52.35 52.35 0 0 1 22 10.4 70.32 70.32 0 0 1-9.45 8.58Z" transform="translate(2.91)"/><g style="clip-path:url(#clip-path)"><path style="fill:url(#linear-gradient-4)" d="M286.44 347.6h.02v.04h-.02z"/></g><g style="clip-path:url(#clip-path-2)"><path style="fill:url(#linear-gradient-5)" d="M458.49 497.98h.25v.31h-.25z"/></g><g style="clip-path:url(#clip-path-3)"><path style="fill:url(#linear-gradient-6)" d="M521.21 201.75h.05v.23h-.05z"/></g><g class="cls-15"><path style="fill:url(#linear-gradient-7)" d="M521.21 201.75h-.01.01z" class="cls-15"/></g><g style="clip-path:url(#clip-path-6)"><g style="clip-path:url(#clip-path-7)"><path style="fill:url(#linear-gradient-8)" d="M316.92 66.18h-.02.02z"/></g></g><g style="clip-path:url(#clip-path-8)"><path style="fill:url(#linear-gradient-9)" d="M354.39 249.89h.02v.04h-.02z"/></g><g style="clip-path:url(#clip-path-9)"><path style="fill:url(#linear-gradient-10)" d="M363.5 303.45h.1v.04h-.1z"/></g><g style="clip-path:url(#clip-path-10)"><path style="fill:url(#linear-gradient-11)" d="M361.86 306.5h.02v.04h-.02z"/></g><g style="clip-path:url(#clip-path-11)"><path style="fill:url(#linear-gradient-12);stroke-linejoin:round;stroke-linecap:round;stroke-width:.91px;stroke:#002d5d" d="M296.34 177.85 170.06 304.87 47.95 173.59 174.24 46.57l122.1 131.28z"/></g><path class="cls-2" d="M148.54 123.42c-5.69 7.68-4 17.31-10.89 35.85s-16.91 15.83-24.06 38.07 5.25 42.3 5.25 42.3c-1-5.93-3.57-22.75 10.7-33.37s24.46-11.62 38.27-11.37 32.6 0 37.56-5 13.56-8.13 13.56-8.13-17.85-5.69-18.79-5.69 9.78-4.44 20.23-17.27S232 120 232 120s-4.74 5.67-14.47 9.88-16.67 3.7-26.4 5.42-19.29 12.87-19.29 12.87a114.09 114.09 0 0 0 .27-11.86c-.27-5.45-5-11.63-7.62-15.57a18.22 18.22 0 0 1-2.62-8.93 43.94 43.94 0 0 0-13.33 11.62" transform="translate(2.91)"/><g style="clip-path:url(#clip-path-12)"><path style="fill:url(#linear-gradient-13);stroke-linejoin:round;stroke-linecap:round;stroke-width:.91px;stroke:#002d5d" d="M141.32 377.5 42.05 234.8 184.5 127.64l99.27 142.71L141.32 377.5z"/></g><path class="cls-2" d="M129.54 206.27c-14.27 10.62-11.66 27.44-10.7 33.37a.39.39 0 0 1-.12 0l.81 1s-5 1.74-14.73.51S91.49 234 91.49 234s-.49 12.31 11.91 29.11 28.51 21 28.51 21-.49 1.74-4.76 6.69-15 4.68-15 4.68.73 4.46 18.08 9.16 21.41 1 38.51-1 23.79 2.22 23.79 2.22h.46c12.85-11 28.19-28.82 36-36.52-2-3.5-11.92-20.28-21.47-30-10.6-10.8-8.11-17.17-8.08-17.3 0 .08-1.23 3.09-6.43 14.85a53.82 53.82 0 0 1-12.82 18.28s-4.76-7.65-2.61-19.78-4.77-29.91-4.77-29.91-4.73 1.47-9.27 7.92-5.47 24.23-5.47 24.23-10-11.64-10.95-21.52c-.49-5.51 2.35-14 5-20.37-7.12 1.34-14.12 4.26-22.58 10.53" transform="translate(2.91)"/><g style="clip-path:url(#clip-path-13)"><path style="fill:url(#linear-gradient-14);stroke-linejoin:round;stroke-linecap:round;stroke-width:.91px;stroke:#002d5d" d="M160.22 570.06 53.78 470.44l96.33-111.3 106.44 99.62-96.33 111.3z"/></g><path class="cls-2" d="M160.83 410.29c-3.26 6.7-6.09 11.53-4.92 9.08.93-1.9-.09-4.43-1.95-7.25-8.42 2.5-17.1 5.67-25.13 6.28-9 .69-13.71-3.13-16.17-7.37-.42.81-.85 1.62-1.2 2.43a32.64 32.64 0 0 0 1.67 29.91s-.71-.44-1.84-1.32c3 10.3 1.86 21.68 2.79 31.26 1.43 14.84 16.17 26.45 16.17 26.45a16 16 0 0 1-.71-4.2c-.23-3 5-9.4 8.55-13.34s4.76-10.9 4.76-10.9 0 1 6 5.93S160.68 485 173 491.6s8.84 28.67 8.84 28.67 7.11-4.93 12.8-33.12-15.19-42.81-15.19-42.81l14.55-7.41s4.77-9.37-9-22.74c-4-3.87-8.74-5.26-14-5.26a44.45 44.45 0 0 0-10.13 1.36" transform="translate(2.91)"/><g style="clip-path:url(#clip-path-14)"><path style="fill:url(#linear-gradient-15);stroke-linejoin:round;stroke-linecap:round;stroke-width:.91px;stroke:#002d5d" d="M240.29 525.57 176.76 626.7l-93.43-63.48 63.53-101.13 93.43 63.48z"/></g><path class="cls-2" d="M162.36 508.91c-3.66 7.61-3.63 9-3.34 9.14a16.1 16.1 0 0 1-11.65-4c-5-4.68-8.09-6.18-16.17-4.19s-9.51 2-9.51 2 9.73 2.22 13.56 9.4 6.89 11.36 11.87 7.66 11.16-6.92 12.88-6.66 2.39 2.22 1 3-14.53 6.65-20.95 16.55-2.15 19-5.71 20.28-6.4 2.47-5 4.19 16.88 7.68 20.2-1.72 2.15-27.44 7.36-30.68 6.42-4.68 6.42-4.68.25 8.17-4.49 13.35-3.59 17.09-1.18 21.74 4.74 13.12 4 17.33-1.41 9.65 3.34 6.43 9.73-18.32 9.73-23.76-7.36-24.21-2.11-26.69 5.19 1.76 4.74 5.21-4 23.47 3.79 25.69 11.19-.24 11.19-.24-6-8.16-4-14.32 1.4-15.34 1.4-15.34 6.45-8.66 2.41-8.41-23.84 4.45-27.14-11.91c-2.61-12.77 9.41-15.55 16-15.88a24.57 24.57 0 0 0-2-4.86c-5.27 1.41-13.35 4.59-16.58 11.37" transform="translate(2.91)"/><path d="M486.83 194.51a21.38 21.38 0 0 1 5.74 11.62c2 12.08-4.63 25.75-4.63 25.75s-5-12.31-12.47-14.13-7.66-2.27-9.64-5-2.17-1.58-2.17-1.58a23.8 23.8 0 0 0-7 21.62c2.43 13.68 2.84 19.14-.87 26s-7.87 8.43-7.87 8.43 3.49-7.73 0-13.64-10.31-11-10.31-15.06-.44-8.87-.44-8.87a25.58 25.58 0 0 0-17.33 20 209.86 209.86 0 0 1-5.09 21.52c9.63 13.84 20.81 28 29.82 33.19.4.25.86.46 1.28.72 3.86-2.83 10.15-5.28 20.24-4.68 21.67 1.39 30.43 6.62 40.94 1.39s15.12-9.1 15.12-9.1-6.14 2-10.95-2a57.08 57.08 0 0 0-10.32-6.82s18.21-.72 24.34-11 9.19-19.58 12.92-21.41a62.39 62.39 0 0 0 6.77-3.86s-16.41-12.29-29.53-2.27c0 0 7-14.58 4.38-26.64-1.3-5.94-1.72-12.4-3.62-17.72a16 16 0 0 1 .75 3.83s-2.78-12-18.6-12a44 44 0 0 0-11.44 1.71" transform="translate(2.91)" style="fill:url(#linear-gradient)"/><g style="clip-path:url(#clip-path-15)"><path style="fill:url(#linear-gradient-17);stroke-linejoin:round;stroke-linecap:round;stroke-width:.91px;stroke:#002d5d" d="m367.38 272.93 89.1-142.06 141.57 96.01-89.1 142.07-141.57-96.02z"/></g><path class="cls-2" d="M486.83 194.51a21.38 21.38 0 0 1 5.74 11.62c2 12.08-4.63 25.75-4.63 25.75s-5-12.31-12.47-14.13-7.66-2.27-9.64-5-2.17-1.58-2.17-1.58a23.8 23.8 0 0 0-7 21.62c2.43 13.68 2.84 19.14-.87 26s-7.87 8.43-7.87 8.43 3.49-7.73 0-13.64-10.31-11-10.31-15.06-.44-8.87-.44-8.87a25.58 25.58 0 0 0-17.33 20 209.86 209.86 0 0 1-5.09 21.52c9.63 13.84 20.81 28 29.82 33.19.4.25.86.46 1.28.72 3.86-2.83 10.15-5.28 20.24-4.68 21.67 1.39 30.43 6.62 40.94 1.39s15.12-9.1 15.12-9.1-6.14 2-10.95-2a57.08 57.08 0 0 0-10.32-6.82s18.21-.72 24.34-11 9.19-19.58 12.92-21.41a62.39 62.39 0 0 0 6.77-3.86s-16.41-12.29-29.53-2.27c0 0 7-14.58 4.38-26.64-1.3-5.94-1.72-12.4-3.62-17.72a16 16 0 0 1 .75 3.83s-2.78-12-18.6-12a44 44 0 0 0-11.44 1.71" transform="translate(2.91)"/><g style="clip-path:url(#clip-path-16)"><path style="fill:url(#linear-gradient-18);stroke-linejoin:round;stroke-linecap:round;stroke-width:.91px;stroke:#002d5d" d="m431.5 403.82 103.81-5.22 6.92 148.77-103.81 5.22-6.92-148.77z"/></g><path class="cls-2" d="M508 414.44c-6.89 5.13-16.25 4.91-28.94 4.7-3.77-.05-7.83-.1-12.2-.05-12.69.23-24.84 7-31.57 11.55v5.14c9.38 3.24 23.59 12.49 23.59 12.49a67.68 67.68 0 0 0-11.46 5.33c-2.61 1.48-7.39 6.39-12.13 11.71v82.39c2.76-2.81 6.73-6.62 9.57-8.2 4.79-2.66 13.38-1.32 21.39-16.94s-11.82-24.51-11.82-24.51a29.82 29.82 0 0 1-1.27 8.31c-1.27 3.63-4.78 7.94-8 1.95s19.78-20.88 27.45-22.87 16.88-10.93 16.88-10.93-2.89 6.95-2.89 12.58 11.17 16.26 11.17 16.26 7.67-21.55 15.63-34.83c2.56-4.25 6.13-11.47 9.77-19.34 4.34-11.86 9.45-31.66.46-41.69a48.76 48.76 0 0 0-4-4A75.39 75.39 0 0 1 508 414.44" transform="translate(2.91)"/><g style="clip-path:url(#clip-path-17)"><path style="fill:url(#linear-gradient-19);stroke-linejoin:round;stroke-linecap:round;stroke-width:.91px;stroke:#002d5d" d="m483.14 465.8 64.03 97.33-87.94 62.57-64.03-97.33 87.94-62.57z"/></g><path class="cls-2" d="M454.69 498.17c2.37 1.16 18.93 9.9 11.55 24.39-8 15.62-16.6 14.28-21.39 16.94-2.84 1.58-6.81 5.39-9.57 8.2v19c3.86-1.48 10.1-4 12.94-5.82 4.28-2.81 6.08-20.09 8-20.44s1.76 5.74 1.95 11-7.31 12.63-9.47 23.78 18.78 18.55 18.78 18.55-.56-3.32-2-9.82 1.09-10.41 3.74-19.3 1.63-11.9-.52-16-7.15-12.6-7.15-12.6a98.88 98.88 0 0 1 10.89 8.71c3.95 3.89-1.42 16.71 2.52 25.45s25.35-1.85 25.35-1.85a53.14 53.14 0 0 0-6.41-6.13c-4.86-4.1-5.39-10.41-6.25-16.16s-5.57-8.72-13.23-10-7.31-6.52-2-6.34 9.3 3 13.4 6.88 6.43-4.1 6.43-7.6-1.07-6.34 3.93-11.91a12.28 12.28 0 0 0 3.05-11.5c-3.58 5-4.83 3.33-10.37 3.33s-10.19 5.58-14.12 9.84-3.74-2.78-4.08-6.86 0-5.95-9.67-11.7c-2.91-1.74-4.57-2.34-5.5-2.34a1 1 0 0 0-.88.39" transform="translate(2.91)"/><g style="clip-path:url(#clip-path-18)"><path style="fill:url(#linear-gradient-20)" d="M302.49 73.75h4.27v9.33h-4.27z"/></g><path d="M271.86 139.06a7.24 7.24 0 0 1-5.77-2.32c-1.79-2.08-2.35-5.49-1.66-10.12a.45.45 0 0 1 .39-.38h.06a.46.46 0 0 1 .42.28c0 .08 3.5 8 10.67 11.06a.43.43 0 0 1 .28.43.44.44 0 0 1-.3.41 13.61 13.61 0 0 1-4.09.65Z" transform="translate(2.91)" style="fill:url(#linear-gradient-21)"/><path class="cls-44" d="M264.88 126.69s3.48 8.17 10.92 11.29a13.42 13.42 0 0 1-3.94.62c-3.71 0-8.48-1.84-7-11.91m0-.91h-.12a.9.9 0 0 0-.78.76c-.71 4.77-.12 8.3 1.76 10.48a7.76 7.76 0 0 0 6.12 2.48 14.2 14.2 0 0 0 4.24-.67.9.9 0 0 0 .6-.83.88.88 0 0 0-.55-.86c-7-2.94-10.4-10.74-10.44-10.82a.89.89 0 0 0-.83-.55Z" transform="translate(2.91)"/><path d="M280.83 203.26a.47.47 0 0 1-.33-.14.45.45 0 0 1-.12-.33c.3-6.84 15.09-18.75 15.72-19.25 36.79-30.58 20.61-74.45 20.44-74.89a.46.46 0 0 1 .24-.57.41.41 0 0 1 .19 0 .43.43 0 0 1 .39.23C327 125.85 336 152.36 324 178.83a66.15 66.15 0 0 1-18.86 24.35.5.5 0 0 1-.27.08Z" transform="translate(2.91)" style="fill:url(#linear-gradient-22)"/><path class="cls-44" d="M317 108.49c33.74 61.32-12.12 94.32-12.12 94.32h-24c.29-6.71 15.55-18.92 15.55-18.92 37.49-31.15 20.59-75.4 20.59-75.4m0-.91a.85.85 0 0 0-.38.09.9.9 0 0 0-.47 1.14 73.51 73.51 0 0 1 3.7 25.74c-.42 13.44-4.94 32.79-24 48.65-.62.5-15.57 12.53-15.88 19.57a.91.91 0 0 0 .91.95h24a.9.9 0 0 0 .53-.17 66.45 66.45 0 0 0 24.83-54.49c-.49-13.1-4.68-26.9-12.45-41a.89.89 0 0 0-.79-.47Z" transform="translate(2.91)"/><path d="M311.38 203.26a.44.44 0 0 1-.37-.2.43.43 0 0 1 .07-.58c11.3-10.3 35.51-45.89 12.15-86.35a.45.45 0 0 1 .16-.61.43.43 0 0 1 .23-.07.44.44 0 0 1 .39.22c3.66 6.13 17.19 26.87 38 36.66 28 13.16 27 50.13 27 50.5a.44.44 0 0 1-.45.43H331a.45.45 0 0 1-.44-.34c-.07-.27-1.66-6.78 1.79-11.2 2-2.57 5.27-3.87 9.73-3.87a36.89 36.89 0 0 1 9.28 1.4 36.54 36.54 0 0 0 9.24 1.41c4.15 0 7.15-1.17 8.93-3.46a11 11 0 0 0 1.88-7.22c-1 3.29-3.78 8.33-11.62 8.33a27 27 0 0 1-7.51-1.23c-4.62-1.38-7.76-4-9.33-7.71-2.31-5.5-.79-12.26.79-16.78-2.89 5.12-6.62 13.78-4.39 21.52a.46.46 0 0 1-.34.57c-.47.1-11.34 2.46-11.65 14.27a.43.43 0 0 1-.25.39.35.35 0 0 1-.2 0 .46.46 0 0 1-.27-.09 4.5 4.5 0 0 0-2.68-.74c-3.44 0-8 2.39-10.76 3.82-.67.35-1.24.64-1.67.84a.41.41 0 0 1-.15.09Z" transform="translate(2.91)" style="fill:url(#linear-gradient-23)"/><path class="cls-44" d="M323.62 115.91c3.23 5.41 17 26.87 38.2 36.83 28.05 13.18 26.72 50.07 26.72 50.07H331s-3.65-14.51 11.08-14.51a36.2 36.2 0 0 1 9.16 1.39 36.81 36.81 0 0 0 9.36 1.42c14.5 0 10.88-13.93 10.88-13.93s-.41 10.67-11.69 10.67a26.19 26.19 0 0 1-7.38-1.21c-18.48-5.49-6.16-28.83-6.16-28.83S335.44 172 339 184.24c0 0-11.68 2.38-12 14.7a5 5 0 0 0-2.95-.84c-4.38 0-10.39 3.68-12.62 4.71 13.6-12.39 34.74-47.95 12.24-86.9m0-.91a.9.9 0 0 0-.78 1.36c9.64 16.7 12.17 34.93 7.32 52.72-4.11 15.09-12.71 27-19.39 33.06a.91.91 0 0 0 .61 1.58.92.92 0 0 0 .39-.09c.44-.2 1-.5 1.68-.85 2.7-1.41 7.23-3.77 10.55-3.77a4.05 4.05 0 0 1 2.42.66.86.86 0 0 0 .53.17.9.9 0 0 0 .91-.88c.3-11.43 10.83-13.74 11.28-13.83a1 1 0 0 0 .59-.42.91.91 0 0 0 .1-.72c-1.66-5.76.06-12.06 2.23-17-1.09 4.93-.92 9.13.51 12.53 1.63 3.88 4.87 6.56 9.63 8a27.09 27.09 0 0 0 7.63 1.25c6.35 0 9.51-3.2 11.07-6.23a9 9 0 0 1-1.69 4.4c-1.69 2.17-4.57 3.28-8.57 3.28a36.22 36.22 0 0 1-9.13-1.4 37.21 37.21 0 0 0-9.39-1.41c-4.6 0-8 1.36-10.09 4-3.58 4.6-1.95 11.31-1.87 11.59a.9.9 0 0 0 .88.69h57.5a.91.91 0 0 0 .91-.88 71 71 0 0 0-2.88-20.38c-4.23-14.48-12.65-25-24.36-30.54-20.71-9.73-34.17-30.38-37.81-36.48a.91.91 0 0 0-.78-.44Z" transform="translate(2.91)"/><path d="M323.62 116.36a.47.47 0 0 1-.39-.22c-.48-.82-.74-1.28-.74-1.28a.46.46 0 0 1 .4-.67.44.44 0 0 1 .39.22l.53.91.21.36a.46.46 0 0 1-.17.62.46.46 0 0 1-.23.06Z" transform="translate(2.91)" style="fill:#faba5c"/><path class="cls-44" d="M322.89 114.64c.26.43.49.85.73 1.27-.48-.81-.73-1.27-.73-1.27m0-.91a.92.92 0 0 0-.45.12.91.91 0 0 0-.34 1.23s.25.47.75 1.29a.88.88 0 0 0 .78.44.92.92 0 0 0 .45-.12.91.91 0 0 0 .33-1.24l-.22-.38-.52-.89a.9.9 0 0 0-.78-.45Z" transform="translate(2.91)"/><path d="M302.48 172.12a.44.44 0 0 1-.24-.07.43.43 0 0 1-.19-.52c6.82-21.5 1-34.11-3.14-39.71-3.73-5.11-8.53-7.87-11.14-7.87a2.21 2.21 0 0 0-.83.14c-.75.3-1.17.65-1.29 1.08-.28.92.74 2.41 2 4.3a31.44 31.44 0 0 1 4.24 7.84c1.52 4.54 1.41 8.25-.32 11a10.21 10.21 0 0 1-6.85 4.34h-.06a.44.44 0 0 1-.37-.19.47.47 0 0 1 0-.47 8.54 8.54 0 0 0 .33-5c-.56-2.87-2.61-7.34-9.15-12.36-12.35-9.48-12.27-19.76-12.19-21.17-1.82-3.15-2.31-5.5-1.46-7s2.45-1.64 3.71-1.64a7.29 7.29 0 0 1 1.35.11 22.91 22.91 0 0 0 7.65 1.16 32.26 32.26 0 0 0 7.54-.92c2.05-.5 3.27-1.29 3.6-2.36.48-1.49-.79-3.35-1.93-4.66a.43.43 0 0 1-.1-.35.46.46 0 0 1 .18-.32 11.46 11.46 0 0 1 6.54-2.48 8.8 8.8 0 0 1 6.82 3.67c-2-3.64-4.63-5.47-7.77-5.47-3.85 0-7.17 2.85-7.2 2.88-.23.18-5.3 4.2-8.51 4.2a2.53 2.53 0 0 1-1.9-.72 3.86 3.86 0 0 1-.83-2.87c.12-5.18 3.71-8.47 6.7-10.32a24.78 24.78 0 0 1 10.8-3.53c1 0 1.19-.49 1.26-.63.77-1.81-3-7.24-5.62-10.24a.45.45 0 0 1 0-.57.44.44 0 0 1 .36-.18.49.49 0 0 1 .2.05c30.09 14.92 35.92 46.85 31.34 71.77-3.49 19-13.1 28.83-13.2 28.93a.48.48 0 0 1-.33.15Z" transform="translate(2.91)" style="fill:url(#linear-gradient-24)"/><path class="cls-44" d="M284.46 71.69c31.4 15.57 35.2 48.93 31.1 71.29-3.51 19.11-13.08 28.68-13.08 28.68 10.65-33.55-8.49-48.16-14.71-48.16a2.68 2.68 0 0 0-1 .17c-4.71 1.92 2.09 5.94 4.72 13.78 4.45 13.3-6.8 14.77-6.8 14.77s4-8-8.95-18-12-20.91-12-20.91c-4.18-7.17-.38-8.07 1.79-8.07a7.72 7.72 0 0 1 1.27.1 22.31 22.31 0 0 0 7.73 1.18 32.36 32.36 0 0 0 7.65-.94c6.13-1.49 4-5.33 1.91-7.76a10.88 10.88 0 0 1 6.28-2.39c7.15 0 10 10.59 10 10.59-2.65-10.58-7.12-13.29-11-13.29-4.07 0-7.5 3-7.5 3s-5.12 4.09-8.21 4.09c-1.37 0-2.34-.81-2.28-3.13.22-9 11.38-13.08 17.07-13.4s-4-11.63-4-11.63m0-.9a.91.91 0 0 0-.69 1.5c3.12 3.62 6.12 8.39 5.54 9.76q-.13.32-.87.36c-5.51.31-17.68 4.34-17.93 14.29a4.29 4.29 0 0 0 1 3.2 3 3 0 0 0 2.22.85c3.31 0 8.23-3.85 8.78-4.28.06-.06 3.26-2.8 6.93-2.8a7 7 0 0 1 4.74 1.85 8 8 0 0 0-3.79-1 11.88 11.88 0 0 0-6.81 2.57.88.88 0 0 0-.38.63.94.94 0 0 0 .22.7c1.51 1.72 2.16 3.22 1.84 4.22s-2 1.74-3.27 2a31.56 31.56 0 0 1-7.44.92 22 22 0 0 1-7.39-1.11l-.17-.05a8 8 0 0 0-1.44-.12c-2 0-3.4.65-4.1 1.87-.94 1.64-.49 4 1.39 7.33-.06 1.89.21 12.07 12.38 21.41s8.83 16.54 8.68 16.84a.94.94 0 0 0 .08.93.91.91 0 0 0 .74.38h.11a10.7 10.7 0 0 0 7.19-4.55c1.8-2.89 1.93-6.73.36-11.4a32.19 32.19 0 0 0-4.29-8c-1.13-1.64-2.19-3.2-2-3.91.1-.35.62-.62 1-.79a1.68 1.68 0 0 1 .66-.1c2 0 6.68 2.08 10.78 7.68 9.43 12.89 6 30.15 3.06 39.3a.92.92 0 0 0 .4 1.05.88.88 0 0 0 .47.13.92.92 0 0 0 .64-.26c.4-.4 9.81-10 13.33-29.17 4.61-25.08-1.27-57.23-31.59-72.26a1 1 0 0 0-.4-.09Z" transform="translate(2.91)"/><path d="M241.78 154.81a.45.45 0 0 1-.16 0 .46.46 0 0 1-.29-.38c-.5-5.22.26-9 2.27-11.2a7.8 7.8 0 0 1 6.05-2.36c5.6 0 12.76 3.64 17.78 6.69a.46.46 0 0 1 .19.56.46.46 0 0 1-.42.28h-.1a28.25 28.25 0 0 0-25 6.34.46.46 0 0 1-.32.07Z" transform="translate(2.91)" style="fill:url(#linear-gradient-25)"/><path class="cls-44" d="M249.65 141.3c5.6 0 12.88 3.78 17.55 6.62a28.42 28.42 0 0 0-6.43-.74 28.79 28.79 0 0 0-19 7.18c-.95-9.91 2.76-13.06 7.87-13.06m0-.91a8.23 8.23 0 0 0-6.39 2.5c-2.09 2.31-2.9 6.2-2.38 11.56a.89.89 0 0 0 .57.75 1 1 0 0 0 .33.07.9.9 0 0 0 .6-.23A27.78 27.78 0 0 1 267 148.8a.64.64 0 0 0 .2 0 .91.91 0 0 0 .47-1.69c-5.07-3.08-12.31-6.75-18-6.75Z" transform="translate(2.91)"/><path d="M290.19 181.65a.39.39 0 0 1-.18 0 .46.46 0 0 1-.27-.46 31.45 31.45 0 0 0 .16-3.2A30.86 30.86 0 0 0 279.84 155a.46.46 0 0 1-.09-.57.47.47 0 0 1 .39-.22.45.45 0 0 1 .16 0 17.89 17.89 0 0 0 6 1.2 7.91 7.91 0 0 0 6.27-2.63c2.87-3.32 3.62-9.72 2.25-19a.44.44 0 0 1 .31-.49.32.32 0 0 1 .14 0 .46.46 0 0 1 .4.24c.14.26 13.77 26.4-5.15 47.93a.46.46 0 0 1-.33.19Z" transform="translate(2.91)" style="fill:url(#linear-gradient-26)"/><path class="cls-44" d="M295.28 133.78s13.84 25.87-5.09 47.41a31.49 31.49 0 0 0-10.05-26.49 18.49 18.49 0 0 0 6.17 1.23c5.83 0 11.64-4.1 9-22.15m0-.91a.9.9 0 0 0-.28 0 .92.92 0 0 0-.62 1c1.36 9.15.63 15.42-2.14 18.64a7.45 7.45 0 0 1-5.93 2.47 17.25 17.25 0 0 1-5.86-1.17.84.84 0 0 0-.31 0 .91.91 0 0 0-.61 1.58 30.39 30.39 0 0 1 9.89 22.61c0 1-.06 2.1-.16 3.15a.89.89 0 0 0 .9 1 .89.89 0 0 0 .68-.31 40.74 40.74 0 0 0 9.86-32.49 49.12 49.12 0 0 0-4.65-16 .91.91 0 0 0-.8-.48Z" transform="translate(2.91)"/><path d="M245.27 199a1.72 1.72 0 0 1-1-.27 25.47 25.47 0 0 1-6.31-7.87.44.44 0 0 1 0-.43.43.43 0 0 1 .35-.23 11.17 11.17 0 0 0 8.69-4.93.45.45 0 0 1 .38-.21h.13l1.38.44a19.92 19.92 0 0 0 3.69 1 3.43 3.43 0 0 0 .56 0 5.94 5.94 0 0 0 4.36-2.26 28.64 28.64 0 0 0 3.49-4.91 4.1 4.1 0 0 1 2.21-2 6.54 6.54 0 0 1 2.28-.45 5.2 5.2 0 0 1 4.42 2.65c2.43 3.65 2.38 5.28-.26 8.73-3.16 4.12-7.51 6.85-13.68 8.58-2.59.72-5.3 1.22-7.91 1.7l-2.37.44a2.09 2.09 0 0 1-.43 0Z" transform="translate(2.91)" style="fill:url(#radial-gradient)"/><path class="cls-44" d="M265.5 177.28a4.79 4.79 0 0 1 4.05 2.45c2.3 3.47 2.26 4.93-.26 8.2-3.09 4-7.36 6.72-13.43 8.42-2.58.72-5.27 1.22-7.87 1.69l-2.38.44a1.87 1.87 0 0 1-.34 0 1.26 1.26 0 0 1-.69-.15 24.86 24.86 0 0 1-6.2-7.74 11.56 11.56 0 0 0 9-5.13c.47.14.93.29 1.37.44a19.93 19.93 0 0 0 3.77 1 4.3 4.3 0 0 0 .62 0 6.33 6.33 0 0 0 4.7-2.41 29.2 29.2 0 0 0 3.55-5 3.62 3.62 0 0 1 2-1.83 6.11 6.11 0 0 1 2.12-.43m0-.9a7 7 0 0 0-2.44.48 4.53 4.53 0 0 0-2.45 2.24 28.24 28.24 0 0 1-3.43 4.83 5.48 5.48 0 0 1-4 2.1 4.36 4.36 0 0 1-.51 0 18.89 18.89 0 0 1-3.59-.94l-1.39-.44a.84.84 0 0 0-.27 0 .91.91 0 0 0-.76.41 10.7 10.7 0 0 1-8.36 4.73.88.88 0 0 0-.7.47.88.88 0 0 0 0 .85 25.7 25.7 0 0 0 6.42 8 2.11 2.11 0 0 0 1.28.37 2.78 2.78 0 0 0 .51 0l2.37-.45c2.63-.48 5.34-1 8-1.7 6.27-1.76 10.69-4.54 13.92-8.74 2.73-3.58 2.79-5.48.28-9.26a5.64 5.64 0 0 0-4.8-2.85Z" transform="translate(2.91)"/><path d="M252.49 184.42a5.25 5.25 0 0 1-2.68-.81 12.24 12.24 0 0 1-6.06-9.32c-.68-4.51.12-8.76 1-13.26v-.17c.12-.62.23-1.23.34-1.86a6.53 6.53 0 0 1 4.08-5.21 31.3 31.3 0 0 1 7.33-2.39h.09a.42.42 0 0 1 .35.18.45.45 0 0 1 .06.47c-1.43 3-1.09 6 1 9.2a1 1 0 0 1 0 1.36 27.17 27.17 0 0 0-2.45 4.49 7.91 7.91 0 0 0 1.53 8.55c.23.28.48.54.75.83 1.63 1.71 1.65 2 .3 3.85a15.7 15.7 0 0 1-2.71 3 4.55 4.55 0 0 1-2.92 1.13Z" transform="translate(2.91)" style="fill:url(#radial-gradient-2)"/><path class="cls-44" d="M256.58 151.84c-1.5 3.14-1.15 6.31 1.05 9.65.23.34.26.42 0 .86a27.72 27.72 0 0 0-2.49 4.57 8.34 8.34 0 0 0 1.6 9c.24.29.49.56.77.85 1.49 1.56 1.49 1.56.26 3.27a14.87 14.87 0 0 1-2.63 2.89 4.06 4.06 0 0 1-2.63 1 4.79 4.79 0 0 1-2.45-.75 11.83 11.83 0 0 1-5.84-9c-.67-4.43.12-8.65 1-13.12.12-.67.25-1.34.37-2a6.06 6.06 0 0 1 3.82-4.88 30.94 30.94 0 0 1 7.23-2.36m0-.9h-.15a32.36 32.36 0 0 0-7.42 2.41 7 7 0 0 0-4.33 5.56c-.12.67-.25 1.33-.38 2-.85 4.55-1.65 8.84-1 13.42a12.69 12.69 0 0 0 6.28 9.65 5.73 5.73 0 0 0 2.91.88 5 5 0 0 0 3.21-1.24 16 16 0 0 0 2.79-3.06c1.48-2.06 1.44-2.56-.34-4.43a10 10 0 0 1-.73-.8c-2.15-2.58-2.63-5.23-1.46-8.09a27.13 27.13 0 0 1 2.41-4.42 1.44 1.44 0 0 0 0-1.85c-2-3-2.34-5.89-1-8.71a.93.93 0 0 0 .12-.44.9.9 0 0 0-.91-.9Zm0 1.81Z" transform="translate(2.91)"/><path d="M284.69 186.94a.52.52 0 0 1-.29-.09l-.33-.28c-.8-.64-1.69-1.36-2.59-2a9 9 0 0 0-5.41-2 7.27 7.27 0 0 0-1.6.18 2.09 2.09 0 0 1-.34 0c-.53 0-.68-.46-.77-.72a17.27 17.27 0 0 0-1.26-2.86c-1.6-2.93-3.85-4.47-6.48-4.47a9 9 0 0 0-4 1 2 2 0 0 1-.9.27 1.7 1.7 0 0 1-1.2-.64c-3-3.08-3.38-5.78-1.2-9.62 1.43-2.52 2.35-3.41 4.67-3.41.48 0 1.05 0 1.8.11 5.09.52 9.55 2.91 14 7.51a56.72 56.72 0 0 1 4.28 5.15c.7.91 1.38 1.8 2.08 2.66a4.77 4.77 0 0 1 1 4.54c-.38 1.44-.72 2.9-1 4.08l-.05.23a.47.47 0 0 1-.29.32.39.39 0 0 1-.12.04Z" transform="translate(2.91)" style="fill:url(#radial-gradient-3)"/><path class="cls-44" d="M263 162.77a17.53 17.53 0 0 1 1.75.12c5 .5 9.36 2.85 13.76 7.37a56.61 56.61 0 0 1 4.24 5.11c.69.89 1.38 1.79 2.09 2.67a4.31 4.31 0 0 1 .88 4.13c-.39 1.43-.73 2.88-1 4.09l-.05.23-.34-.27c-.86-.7-1.72-1.39-2.6-2a9.48 9.48 0 0 0-5.68-2.11 8.26 8.26 0 0 0-1.7.18h-.24c-.16 0-.23-.09-.34-.41a18.61 18.61 0 0 0-1.29-2.94c-1.7-3.1-4.11-4.71-6.88-4.71a9.26 9.26 0 0 0-4.16 1.09 1.72 1.72 0 0 1-.7.22c-.29 0-.53-.16-.87-.51-2.91-2.94-3.22-5.4-1.13-9.08 1.38-2.44 2.17-3.18 4.27-3.18m0-.9c-2.58 0-3.61 1.07-5.06 3.63-2.28 4-1.91 6.95 1.27 10.17a2.14 2.14 0 0 0 1.52.78 2.52 2.52 0 0 0 1.11-.32 8.31 8.31 0 0 1 3.75-1c2.46 0 4.56 1.47 6.08 4.24a16.44 16.44 0 0 1 1.23 2.79 1.31 1.31 0 0 0 1.2 1 2 2 0 0 0 .44-.06 7 7 0 0 1 1.5-.17 8.65 8.65 0 0 1 5.14 1.94c.88.65 1.74 1.34 2.57 2l.34.27a.9.9 0 0 0 .57.2.93.93 0 0 0 .29-.05.9.9 0 0 0 .59-.65l.06-.23c.27-1.17.6-2.63 1-4.07a5.19 5.19 0 0 0-1-4.93 100.9 100.9 0 0 1-2.08-2.66 59 59 0 0 0-4.31-5.19c-4.56-4.68-9.11-7.11-14.31-7.64a17.88 17.88 0 0 0-1.85-.11Z" transform="translate(2.91)"/><path d="M260.39 204.83a24 24 0 0 1-12.11-3.29.46.46 0 0 1 .14-.84l.57-.11c1.62-.29 3.11-.57 4.58-.91 4.37-1 9.95-2.74 14.39-6.77a32.76 32.76 0 0 0 4.89-6c1-1.44 1.63-2.32 3-2.32a6.09 6.09 0 0 1 1.49.23 8.5 8.5 0 0 1 5.88 5.17 1.5 1.5 0 0 1-.06 1.12c-4.11 7.35-10.16 11.81-18 13.25a26.08 26.08 0 0 1-4.77.45Z" transform="translate(2.91)" style="fill:url(#radial-gradient-4)"/><path class="cls-44" d="M275.85 185.07a5.79 5.79 0 0 1 1.38.21 8.06 8.06 0 0 1 5.57 4.92 1.08 1.08 0 0 1 0 .71c-4 7.23-10 11.61-17.69 13a26.06 26.06 0 0 1-4.69.43 23.58 23.58 0 0 1-11.89-3.22l.58-.11c1.59-.29 3.1-.57 4.59-.92 4.42-1.05 10.07-2.77 14.59-6.88a32.19 32.19 0 0 0 5-6.06c1-1.51 1.55-2.11 2.62-2.11m0-.91c-1.57 0-2.35 1-3.38 2.52a32 32 0 0 1-4.82 5.89c-4.36 4-9.87 5.65-14.18 6.66-1.47.35-3 .63-4.54.92h-.29l-.3.05a.9.9 0 0 0-.73.74.89.89 0 0 0 .44.94 24.45 24.45 0 0 0 12.34 3.35 26.86 26.86 0 0 0 4.85-.45c8-1.47 14.14-6 18.32-13.48a2 2 0 0 0 .08-1.52 9 9 0 0 0-6.19-5.43 6.51 6.51 0 0 0-1.6-.24Z" transform="translate(2.91)"/><path d="M285.81 174.6a.44.44 0 0 1-.36-.19 42.86 42.86 0 0 0-8-8.58c-4.77-3.82-9.22-5.59-14-5.59h-.52a7.26 7.26 0 0 0-1 .08 8.79 8.79 0 0 1-1.21.14c-1 0-1.22-.54-1.79-1.73a6.25 6.25 0 0 1-.7-4.26c.58-2.42 1.72-3.4 3.95-3.4a11.38 11.38 0 0 1 1.71.14c11.21 1.65 19.7 9.84 22.16 21.35q.15.75.24 1.53a.46.46 0 0 1-.28.48.47.47 0 0 1-.2.03Z" transform="translate(2.91)" style="fill:url(#radial-gradient-5)"/><path class="cls-44" d="M262.15 151.52a11.46 11.46 0 0 1 1.64.14c11 1.63 19.37 9.67 21.78 21a14.72 14.72 0 0 1 .24 1.48 43.72 43.72 0 0 0-8.07-8.67c-4.85-3.87-9.39-5.69-14.29-5.69h-.53a8.11 8.11 0 0 0-1.09.08 8.55 8.55 0 0 1-1.14.14c-.67 0-.83-.34-1.38-1.48a5.72 5.72 0 0 1-.66-3.95c.51-2.18 1.43-3.06 3.5-3.06m0-.91c-2.45 0-3.76 1.13-4.39 3.76a6.65 6.65 0 0 0 .73 4.55c.58 1.2 1 2 2.2 2a9.72 9.72 0 0 0 1.29-.14 7.61 7.61 0 0 1 1-.07h.51c4.67 0 9 1.75 13.72 5.49a42.78 42.78 0 0 1 7.91 8.49.88.88 0 0 0 .73.38 1 1 0 0 0 .34-.06.91.91 0 0 0 .56-1c-.08-.62-.15-1.1-.25-1.56-2.5-11.71-11.13-20-22.53-21.71a12.41 12.41 0 0 0-1.78-.15Z" transform="translate(2.91)"/><path d="M237.77 188c-1.28 0-1.47-.75-1.89-2.39-2.55-10-.48-18.82 6.12-26.27a.45.45 0 0 1 .34-.15.43.43 0 0 1 .19 0 .44.44 0 0 1 .26.47l-.24 1.78c-.37 2.78-.76 5.65-1 8.51-.4 5.28 1 9.64 4 13a.47.47 0 0 1 0 .56 8.8 8.8 0 0 1-6.62 4.37 12.66 12.66 0 0 1-1.28.1Z" transform="translate(2.91)" style="fill:url(#radial-gradient-6)"/><path class="cls-44" d="m242.34 159.62-.24 1.78c-.37 2.79-.76 5.68-1 8.54-.41 5.4 1 9.88 4.15 13.32a8.36 8.36 0 0 1-6.28 4.17 11.88 11.88 0 0 1-1.23.1c-.93 0-1-.41-1.45-2.06-2.51-9.82-.48-18.52 6-25.85m0-.91h-.05a.94.94 0 0 0-.49.18.52.52 0 0 0-.11.1c-6.71 7.57-8.8 16.55-6.22 26.67.42 1.66.7 2.75 2.33 2.75.36 0 .76-.05 1.32-.11a9.19 9.19 0 0 0 7-4.58.9.9 0 0 0-.1-1.1c-3-3.25-4.3-7.5-3.92-12.64.21-2.84.6-5.71 1-8.49.08-.57.16-1.14.23-1.72a1.1 1.1 0 0 0 0-.18.9.9 0 0 0-.9-.91Zm0 1.82Z" transform="translate(2.91)"/><g style="clip-path:url(#clip-path-19)"><path style="fill:url(#linear-gradient-27)" d="M221.57 321.12h43.25v28.53h-43.25z"/></g><g style="clip-path:url(#clip-path-20)"><path style="fill:url(#linear-gradient-28)" d="M330.73 314.11h94.13v34.9h-94.13z"/></g><g style="clip-path:url(#clip-path-21)"><path style="fill:url(#linear-gradient-29);stroke-linejoin:round;stroke-linecap:round;stroke-width:.91px;stroke:#002d5d" d="M353.05 356.59 172.07 535.06.45 346.87l180.99-178.48 171.61 188.2z"/></g><path class="cls-2" d="M231.78 266.85c-7.85 6.41-33.05 37.31-48.27 46s-20.22 8.89-41.37 5.92-29.48-9.9-36.63-4.93-20 15.56-20 15.56a51.4 51.4 0 0 1 12.34 10.88c6 7.17 15 7.17 15 7.17S85.55 369 88.63 399.6s24.5 43.77 24.5 43.77a32.64 32.64 0 0 1-1.67-29.91c7.38-16.31 27.58-30.68 27.58-30.68s-1.66 8.66 3.57 15.6 15.67 16.06 13.3 21 11.66-20 12.61-30.14 3.1-16.31 7.86-24 5.94-7.38 5.94-7.38-3.81 6.9-.25 11.6c2.05 2.68 8.18 8.17 13.12 12.49V349h23.45a69.79 69.79 0 0 0 1.73-9c2.35-21 8.08-18.54 8.08-18.54s-1.66 5.95 1.88 9.89 11.43 13.1 12.14 16.08c.59 2.45 6.75-12.1 15.61-20.64a54.1 54.1 0 0 1 .46-8.41 110.66 110.66 0 0 1 3.6-17.31c-2.91-3.52-6.87-8.53-12-15.45-5.37-7.27-6.69-16.86-6.39-25.55a38.14 38.14 0 0 0-12 6.77" transform="translate(2.91)"/><path d="M436.84 351.72h-.47v-.14H196.28v244.81c0 17.61 12.78 24 12.78 24l106.36 65.67s91.82-57 104.76-64.87c17.42-10.57 16.19-21.64 16.19-21.64Z" transform="translate(2.91)" style="stroke-width:2.72px;fill:#29235c;stroke-miterlimit:10;stroke:#002d5d"/><g style="clip-path:url(#clip-path-22)"><path style="fill:url(#linear-gradient-30)" d="M199.19 513.84h241.33v172.25H199.19z"/></g><path class="cls-7" d="M439.27 499.48V351.72H199.69v147.92l118.87-54.2 120.71 54.04z"/><path class="cls-66" d="M439.27 567.98V499.6l-120.93-54.15-119.16 54.31v68.37l119.16-54.3 120.93 54.15z"/><g style="clip-path:url(#clip-path-23)"><path style="fill:url(#linear-gradient-31)" d="M199.19 351.58h240.09v150.2H199.19z"/></g><path class="cls-7" d="M294.69 647.32h48.34l-2.64-75.74h-34.12l-11.58 75.74z"/><path class="cls-66" d="M291.77 647.91h-.69l11.8-76.91H338l2.67 76.93Zm47.74-1.21-2.58-74.5h-33.05l-11.43 74.5Z" transform="translate(2.91)"/><path class="cls-7" d="M338.64 544.91v-18.49h-15.48v20.86l-10.36.2-5.28-6.23h-7.03v33.28h43.94v-29.62h-5.79z"/><path class="cls-66" d="M297 575.13v-34.5h7.88l5.28 6.22 9.53-.16v-20.88h16.63v18.49h5.81v30.83Zm1.17-1.22H341v-28.4h-5.22v-.6.6h-.59V527h-14.32v20.85l-11.25.19-5.28-6.23h-6.18Z" transform="translate(2.91)"/><path class="cls-66" d="M311.03 555.87h4.57v9.68h-4.57zM320.88 555.87h4.57v9.68h-4.57zM330.55 555.87h4.61v9.68h-4.61zM326 579.84h4.55v9.68H326zM326 609.84h4.55v9.68H326zM316.5 612.92h4.57v9.68h-4.57zM308.93 612.92h4.57v9.68h-4.57zM312.98 624.65h4.57v9.67h-4.57z"/><path class="cls-66" d="m305.45 574.39.19 8.21s4.3.82 5.63 1.09c.05 1.16.12 2.83.14 3.22-.2.49-2.88 7.26-2.88 7.26l.1.4c.8 3.47 1.53 4.14 2.49 4.14h6.1v2.83c-.7.66-3.78 3.44-3.78 3.44l1.71 2 4.64-4.25v-6.69h-8a16.46 16.46 0 0 1-.51-1.67c.31-.74 2.76-7 2.76-7l-.24-5.94-5.62-1.09c0-1.55-.13-6.06-.13-6.06Z" transform="translate(2.91)"/><path style="fill:url(#linear-gradient-32)" d="m319.7 484.84.09-26.85-.09-.27-6.14 18.41 6.1 8.76.04-.05z"/><path style="fill:url(#New_Gradient_Swatch_6)" d="m325.81 476-6.02-18.01-.09 26.85 6.11-8.84z"/><path style="fill:url(#linear-gradient-33)" d="M294.81 476.53v.01l24.84 8.37.01-.02-6.1-8.76-.01.01-18.74.39z"/><path style="fill:url(#New_Gradient_Swatch_6-2)" d="m319.65 484.91-24.84-8.37 14.93 11.77v.02l9.85-3.34.06-.08z"/><path style="fill:url(#linear-gradient-34)" d="m304.44 506.89 15.15-21.9-9.85 3.34-5.42 18.64.12-.08z"/><path class="cls-74" d="M319.7 484.93v-.09l-.04.05.02.03.02.01z"/><path class="cls-74" d="m319.68 484.92.02.03v-.02l-.02-.01z"/><path style="fill:url(#linear-gradient-35)" d="m319.73 484.94 24.83-8.41-18.7-.39-.05-.14-6.11 8.84v.09l.03.01z"/><path class="cls-74" d="m319.73 484.94-.03-.01v.02l.03-.01zM319.66 484.89l-.01.02.03.01-.02-.03zM319.7 484.95l-.02-.03-.03-.01-.06.08.11-.04zM319.7 484.95z"/><path style="fill:url(#New_Gradient_Swatch_6-3)" d="m329.67 488.3 14.94-11.77h-.05l-24.83 8.41 9.94 3.36z"/><path style="fill:url(#linear-gradient-36)" d="m319.7 484.95 15.25 21.92.14.1-5.43-18.66.01-.01-9.94-3.36-.03.01z"/><path style="fill:url(#New_Gradient_Swatch_6-4)" d="m319.59 484.99-15.15 21.9 15.22-11.03.04-10.91-.11.04z"/><path style="fill:url(#New_Gradient_Swatch_6-5)" d="m319.7 484.95-.04 10.91.04-.03 15.25 11.04-15.25-21.92z"/><path style="fill:url(#linear-gradient-37)" d="m253.94 507.39.09-26.84-.09-.28-6.14 18.41 6.1 8.77.04-.06z"/><path style="fill:url(#New_Gradient_Swatch_6-6)" d="m260.06 498.56-6.03-18.01-.09 26.84 6.12-8.83z"/><path style="fill:url(#linear-gradient-38)" d="M229.05 499.09v.01l24.84 8.37.01-.02-6.1-8.77-.01.01-18.74.4z"/><path style="fill:url(#New_Gradient_Swatch_6-7)" d="m253.89 507.47-24.84-8.37 14.94 11.76v.03l9.84-3.34.06-.08z"/><path style="fill:url(#linear-gradient-39)" d="m238.68 529.45 15.15-21.9-9.84 3.34-5.43 18.63.12-.07z"/><path class="cls-74" d="M253.94 507.49v-.1l-.04.06.02.03.02.01zM253.92 507.48l.02.02v-.01l-.02-.01z"/><path style="fill:url(#linear-gradient-40)" d="m253.97 507.5 24.83-8.41-18.7-.4-.04-.13-6.12 8.83v.1l.03.01z"/><path class="cls-74" d="m253.97 507.5-.03-.01v.01h.03zM253.9 507.45l-.01.02.03.01-.02-.03zM253.94 507.5l-.02-.02-.03-.01-.06.08.11-.05zM253.94 507.5z"/><path style="fill:url(#New_Gradient_Swatch_6-8)" d="m263.91 510.85 14.94-11.76h-.05l-24.83 8.41 9.94 3.35z"/><path style="fill:url(#linear-gradient-41)" d="m253.94 507.5 15.25 21.92.14.1-5.43-18.66.01-.01-9.94-3.35h-.03z"/><path style="fill:url(#New_Gradient_Swatch_6-9)" d="m253.83 507.55-15.15 21.9 15.22-11.04.04-10.91-.11.05z"/><path style="fill:url(#New_Gradient_Swatch_6-10)" d="m253.94 507.5-.04 10.91.04-.03 15.25 11.04-15.25-21.92z"/><path style="fill:url(#linear-gradient-42)" d="m385.48 507.39.1-26.84-.1-.28-6.14 18.41 6.1 8.77.04-.06z"/><path style="fill:url(#New_Gradient_Swatch_6-11)" d="m391.6 498.56-6.02-18.01-.1 26.84 6.12-8.83z"/><path style="fill:url(#linear-gradient-43)" d="M360.6 499.09v.01l24.84 8.37v-.02l-6.1-8.77v.01l-18.74.4z"/><path style="fill:url(#New_Gradient_Swatch_6-12)" d="m385.44 507.47-24.84-8.37 14.93 11.76v.03l9.84-3.34.07-.08z"/><path style="fill:url(#linear-gradient-44)" d="m370.22 529.45 15.15-21.9-9.84 3.34-5.42 18.63.11-.07z"/><path class="cls-74" d="M385.48 507.49v-.1l-.04.06.02.03.02.01zM385.46 507.48l.02.02v-.01l-.02-.01z"/><path style="fill:url(#linear-gradient-45)" d="m385.51 507.5 24.83-8.41-18.7-.4-.04-.13-6.12 8.83v.1l.03.01z"/><path class="cls-74" d="m385.51 507.5-.03-.01v.01h.03zM385.44 507.45v.02l.02.01-.02-.03z"/><path class="cls-74" d="m385.48 507.5-.02-.02-.02-.01-.07.08.11-.05zM385.48 507.5z"/><path style="fill:url(#New_Gradient_Swatch_6-13)" d="m395.45 510.85 14.94-11.76h-.05l-24.83 8.41 9.94 3.35z"/><path style="fill:url(#linear-gradient-46)" d="m385.48 507.5 15.25 21.92.14.1-5.42-18.66v-.01l-9.94-3.35h-.03z"/><path style="fill:url(#New_Gradient_Swatch_6-14)" d="m385.37 507.55-15.15 21.9 15.23-11.04.03-10.91-.11.05z"/><path style="fill:url(#New_Gradient_Swatch_6-15)" d="m385.48 507.5-.03 10.91.03-.03 15.25 11.04-15.25-21.92z"/><path class="cls-66" d="m249.47 583.48-3.82 4-2.78-3 7.22-7.55h4.27v23.87h-4.89ZM263.56 594.93a6.08 6.08 0 0 0 4.58 1.82c3.68 0 5.75-3.25 5.75-6.87v-.5a7.52 7.52 0 0 1-5.92 3.08c-4.13 0-7.85-2.65-7.85-7.73 0-4.65 3.58-8.2 8.81-8.2 6.95 0 9.88 5.59 9.88 12.35 0 7.19-3.89 12.31-10.67 12.31a9.82 9.82 0 0 1-6.75-2.47Zm5.58-14a3.76 3.76 0 0 0-4 3.58c0 2.54 2 3.65 4.23 3.65a5.81 5.81 0 0 0 4.51-2.21c-.24-2.29-1.47-5.02-4.74-5.02ZM361.7 576.57c6.54 0 9.5 6.15 9.5 12.31s-3 12.35-9.5 12.35-9.5-6.19-9.5-12.35 2.93-12.31 9.5-12.31Zm0 4.51c-3.3 0-4.54 3.4-4.54 7.8s1.24 7.84 4.54 7.84 4.51-3.44 4.51-7.84-1.21-7.8-4.51-7.8ZM379.94 588.49c-2.54-.93-4.54-2.65-4.54-5.62 0-4.48 4.58-6.3 8.85-6.3s8.84 1.82 8.84 6.3c0 3-2 4.69-4.58 5.62 2.76 1 5 3.22 5 6.12 0 4.43-4.4 6.62-9.22 6.62s-9.23-2.15-9.23-6.62c-.06-2.9 2.13-5.12 4.88-6.12Zm4.31 2.25c-1.45.18-4.27 1.18-4.27 3.26 0 1.75 1.86 2.86 4.27 2.86s4.26-1.11 4.26-2.86c0-2.08-2.85-3.08-4.26-3.26Zm0-9.81c-2.28 0-3.89 1-3.89 2.73 0 1.86 2.48 2.68 3.89 2.89 1.41-.21 3.85-1 3.85-2.89 0-1.66-1.62-2.73-3.85-2.73Z" transform="translate(2.91)"/><path d="M467.61 135.06c-.68 4.12 1.74 12.31 1.74 12.31a62.6 62.6 0 0 0-14-8.64c-7.85-3.44-8.95-1.15-24.51-1.15s-18.61-11.39-18.61-11.39c-2 7.06-1.53 19.35 7.89 35.51s27.6 22.1 27.6 22.1-1.56 1.61-6.37 3.67-15.1 3.64-15.1 3.64 3.72 5 14 9.56 9.86 7.05 41-4.33 35.7 8.44 35.7 8.44c-.19-6.63-8.33-19.37-12.69-26.89s-1.77-11.61-2.66-22.31-11.15-10-19.69-16-12.93-15.7-12.93-15.7-.65 7-1.29 11.14" transform="translate(2.91)" style="fill:url(#linear-gradient-47)"/><path class="cls-2" d="M467.61 135.06c-.68 4.12 1.74 12.31 1.74 12.31a62.6 62.6 0 0 0-14-8.64c-7.85-3.44-8.95-1.15-24.51-1.15s-18.61-11.39-18.61-11.39c-2 7.06-1.53 19.35 7.89 35.51s27.6 22.1 27.6 22.1-1.56 1.61-6.37 3.67-15.1 3.64-15.1 3.64 3.72 5 14 9.56 9.86 7.05 41-4.33 35.7 8.44 35.7 8.44c-.19-6.63-8.33-19.37-12.69-26.89s-1.77-11.61-2.66-22.31-11.15-10-19.69-16-12.93-15.7-12.93-15.7-.65 7-1.29 11.14" transform="translate(2.91)"/><path d="M82.13 581.5v-24.33S111 552.6 111 566.29c0 0 2.2 27.37-28.87 15.21Z" transform="translate(2.91)" style="fill:url(#linear-gradient-48);stroke-miterlimit:10;stroke-linecap:round;stroke-width:.91px;stroke:#002d5d"/><path d="M196.62 617v51.2s-5.31 8.51-46.19-4.61-44.77-38.48-44.77-38.48-3.41-15.72 22.43-14.71 68.53 6.6 68.53 6.6Z" transform="translate(2.91)" style="fill:url(#linear-gradient-49);stroke-miterlimit:10;stroke-linecap:round;stroke-width:.91px;stroke:#002d5d"/><path d="M100.3 610.36S75.92 597.73 78.37 587s23.79-10.56 23.79-10.56 8.86 0 8.86-10.14v37.45Z" transform="translate(2.91)" style="fill:url(#linear-gradient-50);stroke-miterlimit:10;stroke-linecap:round;stroke-width:.91px;stroke:#002d5d"/><path d="M78.37 587s-5.83 23.34 64.37 15 51.84 21 51.84 21-21.66 18.29-57.08 0-23.5 16.35-23.5 16.35v14.19s-32.9 10.64-39.14-12.68a50.17 50.17 0 0 1 4-15.72C85.28 611 76.42 600 78.37 587Z" transform="translate(2.91)" style="fill:url(#linear-gradient-51);stroke-miterlimit:10;stroke-linecap:round;stroke-width:.91px;stroke:#002d5d"/><path d="M545.64 581.5v-24.33s-28.9-4.57-28.9 9.12c0 0-2.17 27.37 28.9 15.21Z" transform="translate(2.91)" style="fill:url(#linear-gradient-52);stroke-miterlimit:10;stroke-linecap:round;stroke-width:.91px;stroke:#002d5d"/><path d="M431.15 617v51.2s5.31 8.51 46.18-4.61 44.78-38.48 44.78-38.48 3.41-15.72-22.43-14.71-68.53 6.6-68.53 6.6Z" transform="translate(2.91)" style="fill:url(#linear-gradient-53);stroke-miterlimit:10;stroke-linecap:round;stroke-width:.91px;stroke:#002d5d"/><path d="M527.47 610.36s24.38-12.63 21.93-23.36-23.79-10.56-23.79-10.56-8.87 0-8.87-10.14v37.45Z" transform="translate(2.91)" style="fill:url(#linear-gradient-54);stroke-miterlimit:10;stroke-linecap:round;stroke-width:.91px;stroke:#002d5d"/><path d="M549.4 587s5.82 23.34-64.37 15-51.84 21-51.84 21 21.66 18.29 57.08 0 23.52 16.39 23.52 16.39v14.19s32.88 10.64 39.12-12.68a50.17 50.17 0 0 0-4-15.72c-6.42-14.18 2.44-25.18.49-38.18Z" transform="translate(2.91)" style="fill:url(#linear-gradient-55);stroke-miterlimit:10;stroke-linecap:round;stroke-width:.91px;stroke:#002d5d"/><path d="M524.45 668c-18.56-16.57-8.92-35.81-8.92-35.81s-34.21 62.61-201.65 62.61-201.64-62.59-201.64-62.59 9.64 19.24-8.92 35.81c-16.67 14.89-5.66 24.24-5.66 24.24 57.09 67.16 216.22 65.61 216.22 65.61s159.12 1.55 216.23-65.61c0 0 11.01-9.35-5.66-24.26Z" transform="translate(2.91)" style="fill:url(#linear-gradient-56);stroke-miterlimit:10;stroke-linecap:round;stroke-width:.91px;stroke:#002d5d"/><path class="cls-7" d="m127.11 700.09 6-10.75-5.07-3-6 10.76-6.24-3.79 14.15-25.6 6.3 3.76-5.25 9.44 5.12 3 5.17-9.41 6.35 3.79-14.17 25.61ZM164.77 708c-1 2.3-1.47 3.39-2.46 4.18-2 1.83-5.79 2.72-11 .45-4.16-1.74-6.51-4.11-7.23-7-.42-1.93-.42-2.77.95-6.36l7.31-18.6 6.79 2.89-7 17.82c-1 2.5-.86 4.51 1.49 5.53s3.64-.11 4.69-2.74l7.11-18 6.72 2.93ZM187.82 721.27c-2.4 1.61-4.92 2.13-8.58 1l-9.88-3.11 8.23-28.26 9.61 3a11.23 11.23 0 0 1 6 3.79c2.42 3.2 2.67 7.49 1 13.26-1.34 4.43-3.03 8.05-6.38 10.32ZM185 699.74l-2.14-.65-4.78 16.24 2.37.76c2 .61 3.81 0 6.08-7.72 1.87-6.64.53-7.89-1.53-8.63ZM214.11 727.69c-2.24 1.84-4.71 2.63-8.5 1.75l-10-2.35 6.22-28.84 9.74 2.33a10.88 10.88 0 0 1 6.22 3.26c2.65 3 3.23 7.26 2 13.16-1.03 4.46-2.5 8.2-5.68 10.69Zm-4.32-21.16-2.18-.54L204 722.6l2.4.51c2 .47 3.76-.19 5.49-8.17 1.47-6.69.03-7.94-2.1-8.41ZM222.27 732.92l4.39-29.13 16.34 2.74-1.4 6-8.6-1.43-.75 4.93 7 1.13-.91 6-7-1.2-.91 5.94 9.63 1.62-1 6.24ZM258.45 738l-2.09-8.57c-.81-3.14-1.39-3.57-3-3.74l-1.25 11.61-7.18-.78 3-29.39 9.74 1.08c8.26.94 10.66 4.71 10.1 9.58-.52 5.09-3.37 7.37-6.72 7.59.94.35 2 1.85 2.54 3.46.72 2.07 2.52 7.73 3.24 10Zm-3.88-23.91-.6 6 2.08.23c2.44.33 3.41-.86 3.61-2.77.2-2.15-.82-2.94-3.09-3.15ZM279.5 740.23a21 21 0 0 1-10.24-3.23l2.85-5.76a17.59 17.59 0 0 0 7.83 2.86c2.83.12 4.05-.9 4.12-2.51.08-1.29-.79-1.9-2.7-2.52l-3.26-1.17c-4.12-1.35-6.78-3.83-6.49-8.9.33-5.85 5.2-9.46 11.53-9.09a17.1 17.1 0 0 1 9.93 3.5l-3.72 5.13A12.33 12.33 0 0 0 283 716c-1.85-.09-3 .8-3 2-.07 1 .52 2 2.59 2.69l2.85.88c3 1 7.32 2.7 7 8.62-.31 7.03-5.53 10.47-12.94 10.04ZM312.86 717.52l-7.89-.14-.08 5 6.41.13-.06 6-6.35-.12-.2 12.31-7.3-.11.47-29.49 15.61.29ZM317.17 740.77l-.25-29.49 7.48-.13.23 29.51ZM331.62 740.55l-1.13-29.49 16.53-.68-.28 6.25-8.74.37.17 4.91 7.09-.29.25 6.07-7.1.23.23 6 9.7-.34.24 6.31ZM369.61 738.28l-15.56 1.22-2.05-29.42 7.33-.59 1.67 23.18 9.6-.72ZM392.38 732.09c-1.49 2.44-3.59 4-7.39 4.47l-10.25 1.25-3.3-29.26 9.89-1.25a11 11 0 0 1 6.93 1c3.48 1.87 5.37 5.77 6 11.72.56 4.58.39 8.56-1.88 12.07Zm-10.8-18.55-2.22.25 1.91 16.88 2.42-.31c2.07-.24 3.53-1.48 2.62-9.55-.78-6.81-2.56-7.52-4.73-7.27ZM424 706.39l-6.49 1.31 4.22 22.85-7.21 1.4-4.25-22.8-6.5 1.32-1.09-6.15 21-4.23ZM427.76 715.08c-2.52-10.15 1.45-16.94 8.73-18.91 9.27-2.55 13.88 4.16 15.49 10.4 2 8.22 1.46 16.54-8.33 19.2-7.99 2.15-13.75-2.12-15.89-10.69Zm16.6-5.47c-1.86-7.15-3.62-8.42-6.66-7.65s-3.62 4.74-2.27 10.18c1.82 7.29 4 8.67 6.87 7.82s3.87-3.04 2.06-10.35ZM485.55 710.85l-7.27 2.87-4.23-7.48c-1.8-3.12-3.72-6.42-4.45-8.17.4 1.45 1.14 5.34 1.81 9.23l1.47 8.55-7.4 2.93L449 693.69l7.2-2.87 4.14 6.91a69.83 69.83 0 0 1 5.16 9.32h.07a98.72 98.72 0 0 1-2.27-10.26l-1.3-8.24 7.62-2.92 5 8.51a53.21 53.21 0 0 1 4 7.74h.08a112.35 112.35 0 0 1-2.34-11.06l-1.16-7.45 7.3-2.83ZM509.87 697.94l-9.29-6.27a46.17 46.17 0 0 1-4.51-3.64 51.39 51.39 0 0 1 3.91 6.25l4 7.25-6 3.55-14.15-25.61 6.11-3.57 9.29 6a39.94 39.94 0 0 1 4.78 3.69 64.52 64.52 0 0 1-3.41-5.63l-4.38-7.91 6-3.58 14.14 25.58Z" transform="translate(2.91)"/><g style="clip-path:url(#clip-path-24)"><path style="fill:url(#linear-gradient-57);stroke-linejoin:round;stroke-linecap:round;stroke-width:.91px;stroke:#002d5d" d="M242.38 204.79h117.23v74.17H242.38z"/></g><path class="cls-2" d="M294.18 207.38c-32.92 9.77-42.75 16.89-42.75 16.89s-12 11.57-7.68 22.22 6 16 9.39 19.16 7.28 9.33 7.28 13.31a133 133 0 0 1 26.5-11.11c11.83-3.35 33.54-12 42.53-20.74.78-1.11 3.66-5.55 3.66-8.61 0-3.56 5.57-12.89 11.95-8.44 5.56 3.86 8.25 9.74 6.86 14.42l.95.23c.15-.69.29-1.35.46-2 2.86-13.95-.32-22.89-.32-22.89s0-2.29 3.69-3.21c-7.66-4-24.89-11.78-44.2-11.78a64.23 64.23 0 0 0-18.32 2.59" transform="translate(2.91)"/><g style="clip-path:url(#clip-path-25)"><path style="fill:url(#linear-gradient-58);stroke-linejoin:round;stroke-linecap:round;stroke-width:.91px;stroke:#002d5d" d="M245.31 247.07h96.86v61.24h-96.86z"/></g><path class="cls-2" d="M286.92 267.85a133 133 0 0 0-26.5 11.15c0-4-3.86-10.21-7.28-13.31-3.1-2.87-4.81-7.54-8.3-16.38-1.76 10.51-2.44 25.89 5.3 36.36 12.85 17.35 18.4 22.68 18.4 22.68s8.13-15.12 30.79-24.45c17.37-7.15 32.73-19 39.93-25.36a8.68 8.68 0 0 1-4 1.78c-3.41 0-11.09-2.24-6-12.89l.25-.32c-9 8.75-30.75 17.43-42.58 20.78" transform="translate(2.91)"/><g style="clip-path:url(#clip-path-26)"><path style="fill:url(#linear-gradient-59);stroke-linejoin:round;stroke-linecap:round;stroke-width:.91px;stroke:#002d5d" d="M285.64 287.71h98.75v90.77h-98.75z"/></g><path class="cls-2" d="M369.14 304.33s-18.83 1.89-33.74 8.65c-13 5.81-44.47 29-52.67 35.08.41 13.31.33 27.66.29 30.42 1.54-.49 11.72-4.08 25.69-13.55 15.14-10.32 9.09-8.86 30.29-24.64s42.49-18.7 42.49-18.7-1.43-7.78-2.49-12.59-2.4-21.24-2.4-21.24Z" transform="translate(2.91)"/><g style="clip-path:url(#clip-path-27)"><path style="fill:url(#linear-gradient-60);stroke-linejoin:round;stroke-linecap:round;stroke-width:.91px;stroke:#002d5d" d="M256.6 301.08h29.51V379H256.6z"/></g><path class="cls-2" d="M257.34 339.46C262.7 369 283 379 283 379s.19-19.36-.4-35.12c-.55-14.08-10-34.56-12-38.77a34.45 34.45 0 0 0-2.12 3.2s-2-1.95-6.4-7.23c0 0-8.45 18.42-4.8 38.38" transform="translate(2.91)"/><path class="cls-7" d="M362.59 292.73c-.27 5.21-.76 9.95-.93 11.43a22.13 22.13 0 0 1 4.88.51l2.6-.34 7.49-16.62s0 .34.05.92c.07-1.22.07-2.5.08-3.91-.61-4.91-1.39-8.52-2.72-9.9a1.78 1.78 0 0 0-1.36-.63c-4 0-9.82 12.94-10.09 18.54m-23.33-34.23c-7.2 6.32-22.56 18.21-39.93 25.36-16.22 6.67-25 16.34-28.67 21.25 1 2 3.61 7.76 6.16 14.77a56 56 0 0 1 3.59 11.06 63.68 63.68 0 0 1 2.21 12.94c.06 1.32.11 2.68.11 4a15 15 0 0 0 1.39-.83c9.86-7.31 38.95-28.56 51.28-34.09 9.36-4.24 20.23-6.55 27.05-7.71a11.36 11.36 0 0 0-1.55-1.08c-3.19-2.16-15.65-11.41-16.19-24.72-.53-12.89 3.94-20.35 7.08-30.8-.58-.33-1.07-.65-1.53-1a53.9 53.9 0 0 1-11 10.79" transform="translate(2.91)"/><g style="clip-path:url(#clip-path-28)"><path style="fill:url(#linear-gradient-61);stroke-linejoin:round;stroke-linecap:round;stroke-width:.91px;stroke:#002d5d" d="M272.99 247.71h106.68V347.9H272.99z"/></g><path d="M270.09 305.9s0 0 0 0 0 0 0 0m92.5-13.17c-.27 5.21-.76 9.95-.93 11.43a22.13 22.13 0 0 1 4.88.51l2.6-.34 7.49-16.62s0 .34.05.92c.07-1.22.07-2.5.08-3.91-.61-4.91-1.39-8.52-2.72-9.9a1.78 1.78 0 0 0-1.36-.63c-4 0-9.82 12.94-10.09 18.54m-23.33-34.23c-7.2 6.32-22.56 18.21-39.93 25.36-16.22 6.67-25 16.34-28.67 21.25 1 2 3.61 7.76 6.16 14.77a56 56 0 0 1 3.59 11.06 63.68 63.68 0 0 1 2.21 12.94c.06 1.32.11 2.68.11 4a15 15 0 0 0 1.39-.83c9.86-7.31 38.95-28.56 51.28-34.09 9.36-4.24 20.23-6.55 27.05-7.71a11.36 11.36 0 0 0-1.55-1.08c-3.19-2.16-15.65-11.41-16.19-24.72-.53-12.89 3.94-20.35 7.08-30.8-.58-.33-1.07-.65-1.53-1a53.9 53.9 0 0 1-11 10.79" transform="translate(2.91)" style="stroke-miterlimit:10;stroke-linecap:round;stroke-width:.91px;stroke:#002d5d;fill:none"/><path class="cls-4" d="M318.14 195.37s-9.42-2.66-18 0a47.9 47.9 0 0 0-9.94 4.08c3.86 4 9.72 9.65 14.65 12.34a36.5 36.5 0 0 1 4.79 3.19 23.64 23.64 0 0 0 11 .83 75.55 75.55 0 0 0 9.41-2.36c-3.72-5-8.78-13-11.95-18.08ZM270.05 202.75c-4.69 1.2-23.49 6.52-21.61 13.52 2.14 8 7.27 14.67 16.26 9.34s13.24-9.8 13.24-9.8a2.15 2.15 0 0 1 .32.09c-.85-1.93-1.91-4.35-2.89-6.76a17.39 17.39 0 0 0-5.32-6.39" transform="translate(2.91)"/><path class="cls-121" d="M290.23 199.45a8.8 8.8 0 0 0-1.15.81s-5.58-3.12-10.28-1.78a21.17 21.17 0 0 0-7.71 4l-1 .26a17.61 17.61 0 0 1 5.34 6.39c1 2.43 2 4.85 2.88 6.78 1.69.35 9.92 2.08 16.78 1.68 7.7-.43 12-3.53 12-3.53a23.64 23.64 0 0 0 2.65.92 34.14 34.14 0 0 0-4.8-3.17c-4.92-2.69-10.78-8.33-14.64-12.36M344.62 198.47s-7.68-5.31-12.81-5.31-13.26 2.09-13.65 2.2c3.16 5.1 8.23 13 11.95 18.1a5.75 5.75 0 0 0 .85-.32s6.84 4.9 12.39 5.34 8.13.44 8.13.44l.75.26c-.9-6.07-4.68-15-7.37-20.72h-.24M383.54 205.14a116.59 116.59 0 0 0-14.12-.95c2.18 5.57 5.15 13.61 5.82 18.53 2.88 2 9.25 5.68 13.43 3.32 5.57-3.11 6.44-19.56-5.13-20.9" transform="translate(2.91)"/><path class="cls-4" d="M367.3 204.27s-6-6.69-10.69-6.69a117.15 117.15 0 0 0-11.75.88c2.7 5.75 6.47 14.65 7.37 20.72a69.73 69.73 0 0 0 11.21 2.43c6.86.86 10.26 0 10.26 0s.59.44 1.56 1.11c-.7-4.91-3.64-13-5.84-18.52-1.46 0-2.12.07-2.12.07M329.5 247.07s-4.12 7.83-.14 11.07 11.11-1.6 11.11-1.6 11.89-10.22 10.44-17.21-5.37-9.23-8.42-10.37-9.05 4.35-7.92 10.8-5.07 7.31-5.07 7.31Z" transform="translate(2.91)"/><path class="cls-1" d="M193.13 456.62v-15.7l-8.66 4.43a45.94 45.94 0 0 1 8.66 11.27ZM193.13 539.14c-.16.24-.34.49-.52.74.07 2.61.09 9.89-1.55 15.29-.88 2.85.62 6.71 2.07 9.42v-25.45ZM438.66 440.2v18.65c3.55-3.69 6.18-6 8-7a76.12 76.12 0 0 1 7-3.58 144.15 144.15 0 0 0-15-8.07ZM180.55 371.53a10 10 0 0 1-1.84-4.15c-4.55 7.43-6.4 13.17-7.29 22.57-.33 3.52-2.89 10.62-5.79 17.33a38.71 38.71 0 0 1 5.76-.46c6.42 0 11.54 1.95 15.66 6a44.77 44.77 0 0 1 6.08 7.15v-36.36c-6.9-6.05-10.91-9.9-12.58-12.08ZM156.08 543a13 13 0 0 1 1.35-1.78 14.15 14.15 0 0 0 3-5.86c-.57.37-1.2.77-1.9 1.2-1.08.69-1.86 3.3-2.45 6.44ZM141.09 400.45a22.38 22.38 0 0 1-4.28-11.91C131.33 393 121.63 401.7 116 411.4c2.73 3.7 7.12 5.35 13.06 4.9 6.15-.47 13-2.59 19.54-4.63l1.56-.49c-1.28-1.58-2.72-3.22-4.13-4.83-1.8-2.07-3.52-4.02-4.94-5.9ZM193.13 528.08v-22.83c-4.54 13.83-8.85 17.22-9.46 17.64a2.39 2.39 0 0 1-2.72 0 2.62 2.62 0 0 1-1.11-2.59 46.57 46.57 0 0 0-.37-14.69c-3.06.39-8 1.52-10.46 4.8-1.46 2-1.86 4.53-1.19 7.79 2.24 11 13.3 11.12 22.68 10 .77-.09 1.41-.16 1.86-.19a4.82 4.82 0 0 1 .77.07ZM174 540.4c-.94.78-.36 5 .42 8.88.2-1.9.45-3.76.71-5.53l.13-.85a10.17 10.17 0 0 0 .09-3 6 6 0 0 0-1.35.5ZM453.34 558.94c1.52-2.79 2.88-5.38 2.82-7l-.06-1.75a60.24 60.24 0 0 1-2.76 8.75ZM489.13 402.67c-1.29 4.69-3.76 12.13-3.87 12.44a2.47 2.47 0 0 1-2.65 1.72c-.69-.09-17.21-2.48-26.57-27.17-4.25-11.24-5.77-21.72-6.87-29.37-.94-6.48-1.82-12.6-3.79-12.78-1.67-.16-4 .75-6.72 2.58v76.14c7.63-4.54 17.87-9.05 28.57-9.25 4.57-.05 8.85 0 12.28.06h.4c12.14.21 20.91.35 27.07-4.22a70.32 70.32 0 0 0 9.44-8.58 52.35 52.35 0 0 0-22-10.4c-1.72 2.16-4.54 6.07-5.29 8.83ZM484.55 487.57a26.93 26.93 0 0 1 .59-5.27c-3.36 2.48-7.57 5.1-11.49 6.12s-9.75 4.33-14.77 7.94a29.64 29.64 0 0 1 3.86 2c9.33 5.55 10.43 8.11 10.84 13.06l.06.63q.06.83.12 1.74c.05.8.12 2 .24 3l.33-.37c3.94-4.31 8.85-9.68 15-9.68 1.36 0 2.48.1 3.39.17 2.15.18 2.8.23 3.91-1l-.13-.12c-1.97-1.96-11.95-11.79-11.95-18.22ZM447.78 507.58c.77 1.42 1.29 1.6 1.3 1.6.35-.07 1.46-1.23 2.16-3.23a21 21 0 0 0 .9-4.17c-2.77 2.54-4.54 4.73-4.36 5.8ZM472 532.74a8.39 8.39 0 0 0 3.32 1.16 35.55 35.55 0 0 1 4.45 1.05 13.49 13.49 0 0 0-6.92-2.26 4.21 4.21 0 0 0-.85.05ZM470.65 546.48c.26.48.5.93.71 1.34s.35.67.51 1a3.12 3.12 0 0 0-.65-1.78Z" transform="translate(2.91)"/><path class="cls-8" d="M286.44 415.13c1.16.32 2.25.68 3.53 1.16a2.55 2.55 0 0 0 2 .12 6.53 6.53 0 0 0 4.32 5.18c.31.11.62.2.95.3a10.66 10.66 0 0 1 3.84 1.86 11.43 11.43 0 0 1 2.69 3 9.23 9.23 0 0 0 3.63 3.44 7.07 7.07 0 0 0 3.9.49 2.64 2.64 0 0 0 .64 2.2c.57.79 1.33 1.86 2.14 3.19l1.82 3 1.81-3c.79-1.32 1.52-2.35 2.12-3.18a2.73 2.73 0 0 0 .66-2.16 7.35 7.35 0 0 0 3.52-.58 9.17 9.17 0 0 0 3.55-3.4 11.3 11.3 0 0 1 2.7-3 10.63 10.63 0 0 1 3.83-1.86l.95-.29a6.58 6.58 0 0 0 4.33-5.27 2.46 2.46 0 0 0 2.12 0c1.25-.45 2.38-.8 3.57-1.11l3.3-.86-2.17-2.73c-.79-1-1.51-2-2.25-3.08a2.53 2.53 0 0 0-1.66-1.31 6.85 6.85 0 0 0-.51-6.9c-.19-.27-.39-.54-.6-.82a11.26 11.26 0 0 1-2-3.86 11.86 11.86 0 0 1-.49-4 9.82 9.82 0 0 0-1-5 7.53 7.53 0 0 0-2.6-2.63 3 3 0 0 0 .37-1.73c0-1.05 0-2.34.06-3.88l.21-3.55-3.17 1.34c-1.33.57-2.53 1-3.48 1.29a2.71 2.71 0 0 0-1.52 1 6.43 6.43 0 0 0-4.55-2 6.31 6.31 0 0 0-2 .34c-.31.1-.62.22-.94.34a10.41 10.41 0 0 1-4.16.85 10.27 10.27 0 0 1-3.85-.74 8.92 8.92 0 0 0-4.88-.56 7.2 7.2 0 0 0-3.25 1.84 2.56 2.56 0 0 0-1.66-1.11c-1-.3-2.16-.68-3.55-1.23l-3.19-1.28.28 3.55c.1 1.26.15 2.46.15 3.85a2.88 2.88 0 0 0 .4 1.76 7.81 7.81 0 0 0-2.59 2.67 9.74 9.74 0 0 0-.92 4.93 12.16 12.16 0 0 1-.5 4 11.56 11.56 0 0 1-2 3.86c-.22.28-.42.55-.61.82a6.89 6.89 0 0 0-.5 6.9 2.53 2.53 0 0 0-1.51 1.24c-.78 1.12-1.52 2.09-2.3 3l-2.22 2.69Zm29.16-9.38-.28-.16-.67-.16h-.24a3.72 3.72 0 0 1-.61-.79l-.18-.28-.25-.21-.08-.05a3.51 3.51 0 0 0 .11-1.14.88.88 0 0 1 .37-.94l.31-.31.15-.37a2.29 2.29 0 0 0 1-.27 1 1 0 0 1 1 .06l.28.14h.3a2.08 2.08 0 0 0 .53 0 2.67 2.67 0 0 0 .25.51c.56.77.53.9.5 1.11l-.08.42.08.42c0 .09.05.2.08.32a3.22 3.22 0 0 0-.78.92 1.85 1.85 0 0 1-.27.38l-.29.06a2.39 2.39 0 0 0-1.07.39 1.27 1.27 0 0 1-.16-.05Z" transform="translate(2.91)"/><path class="cls-122" d="M317.12 421.55a3.36 3.36 0 0 0 4.82.32 7.27 7.27 0 0 0 .79-.72c1.64-1.66 2-3.18 3.8-4.1 2.49-1.22 7-1.27 5.49-6.18-.5-1.44-.54-1.22.82-.95 2.32.6 4.35 1.94 4.52 4.52s-1 4.33-3 5a14.54 14.54 0 0 0-5.33 2.44c-3.08 2.22-3.55 5.05-5.91 6.16a4.86 4.86 0 0 1-4.1 0c-2.25-1.07-2.67-3.51-2.48-6.41 0-.77.39-.37.62-.1" transform="translate(2.91)"/><path class="cls-122" d="M316.54 408.31v8.44c-.12 1.85.61 3.29 2.25 3.72a2.6 2.6 0 0 0 2-.24 10.92 10.92 0 0 0 2.28-2.49 7.68 7.68 0 0 1 2.71-2.34c.88-.38 2-.61 2.82-1.09a3.13 3.13 0 0 0 .74-5.11 6.12 6.12 0 0 0-2.31-1.07l-6.93-2.33c-.54-.16-.74-.05-1 .38a2.54 2.54 0 0 1-2.13 1.49c-.35 0-.46.37-.45.64M314.13 421.55a3.36 3.36 0 0 1-4.82.32 7.27 7.27 0 0 1-.79-.72c-1.64-1.66-2-3.18-3.8-4.1-2.49-1.22-7-1.27-5.49-6.18.5-1.44.54-1.22-.82-.95-2.33.6-4.35 1.94-4.52 4.52s1 4.33 3 5a14.61 14.61 0 0 1 5.33 2.44c3.08 2.22 3.54 5.05 5.91 6.16a4.86 4.86 0 0 0 4.1 0c2.25-1.07 2.67-3.51 2.47-6.41 0-.77-.38-.37-.61-.1" transform="translate(2.91)"/><path class="cls-122" d="M314.7 408.31v8.44c.12 1.85-.61 3.29-2.25 3.72a2.6 2.6 0 0 1-2-.24 10.92 10.92 0 0 1-2.28-2.49 7.71 7.71 0 0 0-2.72-2.34c-.87-.38-1.95-.61-2.81-1.09a3.13 3.13 0 0 1-.74-5.11 6 6 0 0 1 2.31-1.07l6.93-2.33a1.12 1.12 0 0 1 .55-.08.58.58 0 0 1 .26.13c1.1 1.69 1.51 1.6 2.5 1.83a.61.61 0 0 1 .24.63M304.08 389.38a3.43 3.43 0 0 0-4.07 2.7 7.23 7.23 0 0 0-.24 1.08c-.37 2.34.22 3.77-.74 5.63-1.3 2.52-4.89 5.3-.9 8.36 1.21.86 1.12.66-.13 1.27-2.22.95-4.61 1.11-6.22-.87a4.9 4.9 0 0 1-.41-5.93 15.56 15.56 0 0 0 2.91-5.24c1.23-3.69 0-6.25 1.27-8.61a5.05 5.05 0 0 1 3.33-2.5c2.42-.52 4.15 1.19 5.63 3.66.42.63-.1.53-.43.45" transform="translate(2.91)"/><path class="cls-122" d="m312.06 399.71-4.78-6.82c-.95-1.57-2.35-2.28-3.93-1.61a2.66 2.66 0 0 0-1.49 1.42 11.37 11.37 0 0 0-.42 3.41 8.3 8.3 0 0 1-.86 3.56 28.9 28.9 0 0 0-1.66 2.61 3.08 3.08 0 0 0 .24 3.4 2.83 2.83 0 0 0 2.07 1.18 6.17 6.17 0 0 0 2.47-.56l6.92-2.38a.69.69 0 0 0 .58-.8 3 3 0 0 1 1-2.75.65.65 0 0 0-.16-.66M327.26 389.38a3.44 3.44 0 0 1 4.08 2.7 7.37 7.37 0 0 1 .24 1.07c.38 2.35-.22 3.78.73 5.64 1.31 2.52 4.89 5.3.92 8.36-1.22.86-1.13.66.11 1.27 2.22.95 4.62 1.11 6.22-.87a4.88 4.88 0 0 0 .41-5.93 15.56 15.56 0 0 1-2.91-5.24c-1.22-3.69 0-6.25-1.26-8.61a5 5 0 0 0-3.34-2.5c-2.41-.52-4.14 1.19-5.63 3.66-.41.63.11.53.43.45" transform="translate(2.91)"/><path class="cls-122" d="m319.29 399.71 4.78-6.82c.95-1.57 2.35-2.28 3.92-1.61a2.68 2.68 0 0 1 1.5 1.42 11.39 11.39 0 0 1 .41 3.41 8.45 8.45 0 0 0 .86 3.56 26.85 26.85 0 0 1 1.66 2.61 3.08 3.08 0 0 1-.23 3.4 2.83 2.83 0 0 1-2.08 1.18 6.16 6.16 0 0 1-2.46-.56l-6.92-2.38c-.33-.11-.58-.28-.64-.57a3.49 3.49 0 0 0-.9-2.87.59.59 0 0 1 .1-.77M306.49 387.74a3.49 3.49 0 0 1 3.71-3.22 5.63 5.63 0 0 1 1.05.1c2.27.33 3.4 1.36 5.4 1 2.69-.53 6.34-3.23 7.93 1.63.41 1.47.26 1.32 1.2.27 1.54-1.91 2.42-4.23 1.09-6.42-1.34-2-3.26-2.89-5.31-2.22a14.39 14.39 0 0 1-5.69 1.3c-3.75.09-5.72-1.9-8.26-1.36a5.05 5.05 0 0 0-3.31 2.54c-1.21 2.23-.17 4.47 1.64 6.69.45.61.52.06.55-.29" transform="translate(2.91)"/><path class="cls-122" d="m313.52 398.78-4.79-6.78c-1.14-1.41-1.38-3-.29-4.38a2.6 2.6 0 0 1 1.77-1 10.29 10.29 0 0 1 3.25.62 7.58 7.58 0 0 0 3.52.23 25.34 25.34 0 0 1 2.89-.86 2.85 2.85 0 0 1 3.05 1.27 3 3 0 0 1 .44 2.41 6.57 6.57 0 0 1-1.26 2.28l-4.28 6.14c-.21.3-.45.5-.75.45a3.08 3.08 0 0 0-2.89 0c-.27.18-.53-.05-.66-.26M318.14 430.78c.32.28.22.36-.06.72-.73 1-1.46 2.06-2.23 3.34-.78-1.28-1.51-2.34-2.24-3.34-.27-.36-.37-.44-.06-.72a6.57 6.57 0 0 0 2.3-3.51 6.51 6.51 0 0 0 2.29 3.51M291.34 414.05c-.16.4-.27.33-.68.15-1.13-.42-2.33-.84-3.73-1.23.95-1.14 1.71-2.19 2.41-3.2.25-.38.29-.51.64-.28a6.13 6.13 0 0 0 3.91 1.25 6.45 6.45 0 0 0-2.55 3.31M341.49 409.51c.35-.22.4-.1.64.29.68 1 1.43 2.08 2.36 3.24-1.41.37-2.61.76-3.75 1.17-.41.17-.52.24-.67-.16a6.53 6.53 0 0 0-2.51-3.36 6.08 6.08 0 0 0 3.93-1.18M298.37 382.9c-.41 0-.38-.16-.36-.62 0-1.25 0-2.55-.15-4.07 1.36.55 2.56.94 3.71 1.29.44.11.56.11.47.53a6.84 6.84 0 0 0 .19 4.25 6.06 6.06 0 0 0-3.86-1.38M329.17 380.12c-.1-.41 0-.42.45-.54 1.15-.37 2.34-.79 3.69-1.36-.09 1.51-.09 2.82-.06 4.07 0 .46.06.59-.35.62a6.11 6.11 0 0 0-3.84 1.46 6.76 6.76 0 0 0 .11-4.25" transform="translate(2.91)"/><ellipse cx="318.62" cy="403.39" rx="2.74" ry="2.85" style="fill:url(#linear-gradient-62)"/><g style="clip-path:url(#clip-path-29)"><path style="fill:url(#linear-gradient-63);stroke-linejoin:round;stroke-linecap:round;stroke-width:.91px;stroke:#002d5d" d="m462.81 103.9 217.11 242.12-232.23 225.19-217.11-242.13L462.81 103.9z"/></g><path class="cls-2" d="M353 219.78s3.18 8.94.32 22.89-9.25 21.55-8.62 36.8 16.92 25.2 16.92 25.2.64-5.62 1-11.94 7.64-21.87 11.45-17.91 3.2 27.54 7 45.45 20.41 30.16 18.49 26.2 6.07-14.93 6.07-14.93l21.7 24.55s10.52-12.29 17.85-11.63 3.85 20.24 12.75 43.78 24.57 25.55 24.57 25.55 2.54-7.62 3.83-12.29 6.7-10.92 6.7-10.92a53.33 53.33 0 0 1 30.62 16.91c13.39 14.91-4.47 51.41-4.47 51.41s27.41-38.15 27.41-67.67-24.24-41.78-24.24-41.78 5.75-1.32 13.71-2.31 12.77-7.64 14.38-17.26a15.73 15.73 0 0 1 10.17-12.25h-9.55c-4.47 0-4.81-1.34-10.21-4.65s-10.51-6-31.56-3-46.89 4.63-64.73-5.64-44.34-56.04-50.41-64.34-15-20.9-28-23.21a34.18 34.18 0 0 0-5.89-.6c-7.21 0-7.21 3.58-7.21 3.58" transform="translate(2.91)"/></svg>