<?xml version="1.0" encoding="utf-8"?>
<!-- Generator: Adobe Illustrator 19.2.1, SVG Export Plug-In . SVG Version: 6.00 Build 0)  -->
<!DOCTYPE svg PUBLIC "-//W3C//DTD SVG 1.1//EN" "http://www.w3.org/Graphics/SVG/1.1/DTD/svg11.dtd">
<svg version="1.1" id="Hull" xmlns="http://www.w3.org/2000/svg" xmlns:xlink="http://www.w3.org/1999/xlink" x="0px" y="0px"
	 viewBox="0 0 1713.7 2010.2" style="enable-background:new 0 0 1713.7 2010.2;" xml:space="preserve">
<style type="text/css">
	.st0{fill:#F4A319;}
	.st1{fill:#1D1D1B;}
	.st2{fill:#F6A22E;}
	.st3{fill:#CFCFD0;}
	.st4{fill:#FFFFFF;}
	.st5{fill:none;}
</style>
<g>
	<path class="st0" d="M0,0v1183.5h0c0.9,297.3,145.1,448.3,316.2,547.8c79.6,54.6,173.6,94.3,268.5,134.1
		c99.5,41.8,194.8,82.2,266.1,139.8l6.1,5l6.1-5c71.3-57.6,166.6-97.9,266-139.8c95.5-40,190.2-80,270.1-135.2
		c14.8-8.7,29.4-17.7,43.7-27.2c150.4-99.7,269.9-249.1,270.7-519.6h0.1V0.2L0,0z"/>
	<path class="st1" d="M0,0v1183.5h0c0.9,297.3,145.1,448.3,316.2,547.8c79.6,54.6,173.6,94.3,268.5,134.1
		c99.5,41.8,194.8,82.2,266.1,139.8l6.1,5l6.1-5c71.3-57.6,166.6-97.9,266-139.8c95.5-40,190.2-80,270.1-135.2
		c14.8-8.7,29.4-17.7,43.7-27.2c150.4-99.7,269.9-249.1,270.7-519.6h0.1V0.2L0,0z"/>
	<path class="st2" d="M850.8,1887.7l6.1,4.9l6.1-4.9c71.3-57.6,166.6-97.9,266.1-139.8c244.9-102.6,483.9-204.7,484.6-564.3V95.6
		H100.1l0,1087.6c0.6,360,239.7,462,484.6,564.7C684.2,1789.8,779.5,1830.1,850.8,1887.7"/>
	<path class="st3" d="M828.8,903.1c-0.1,0.2-0.3,0.4-0.5,0.6c1.3-3.2,2.5-6,3.5-8.5l-1.9,9.1C829.6,903.9,829.2,903.5,828.8,903.1"
		/>
	<path class="st0" d="M368.8,705.5c-0.2,0.2-0.3,0.3-0.5,0.5l-0.5-0.9C368.2,705.2,368.6,705.3,368.8,705.5"/>
	<path class="st4" d="M1329,557.1c-3.6,5.6-5.3,9.6-6,12.4c2.3,0.2,5.4,0.9,7.9,0.9c36.4,0,73.3-49.4,79.5-81.3
		c4.7-23.5,9.5-66.4,9.5-71.8c0-29.2-9.9-73.2-49.2-73.2c-8.8,0-16.5,0.8-25.3,8.1c0.1,1.7,4.2,3.1,8.9,8.1
		c-9.7,19.5-32.7,19.9-48.6,30c-6,3.8-10.2,11.1-15.1,16c-3.5,3.5-9.7,3.4-13.3,5.8c-3.5,2.4-3,12-8.7,16.1
		c-9.8,6.8-24.3,5.3-34.5,8.9c10.1,10.2,4.7,24.9,19.7,24.9c31.7,0,46.4-34.9,79.8-34.9c5.5,0,13.7,0.2,20.7,5.2
		c-5.1,9.5-15.4,4.2-24.7,8.3c-9.3,4.1-14.4,13.2-21.5,20.2c-3.5,3.5-9.1,2.9-12.5,7.3c-7.6,10.4-2.7,20.1-14.5,20.1
		c-3.8,0-7.6-1.4-11.8-2.6l8.8,9.4c0,0-1.6,12.6,17.5,15.8c19.1,3.3,25.3,13,25.3,13l-20.4,2.9l42.7,23.1c1,0.4,1.6,0.9,1.6,0.9
		l-1.6-0.9C1340.6,548.7,1334.9,547.9,1329,557.1 M1321.6,489.4c-2.5,2.8-6.8,9.7-12.3,9.6h-11.5c-0.3-7.5,4.1-11.9,4.4-14.9h14.4
		L1321.6,489.4z"/>
	<path class="st5" d="M1207.1,1153.5l20.1-19.8c-0.5,0.2-0.9,0.5-1.4,0.7c1.8-7.7,4-17.2,4-22.7c0-5.5-6.5-28.2-8.6-41
		c-2-1.9-5.6-1.6-8.3-1.7c-6.9-9.6,5.7-25.1-3.8-37c-3.5,6.1-8.4,13-16.3,15.1v-20.8c-0.2-5.5,17.6-15.8,27-24.8
		c12.2,6.7,7,14.3,6.1,21c-0.5,2.2-0.5,3.1-0.5,8.5c0,15.3-0.5,5.3,14.2,15.1c3.2,8.5,3.1,17.1,6.7,25.3l11.8-11.9
		c-6.1-3.5-15.3-12.1-15.3-17.5c0-5.5,6.8-11.7,13.3-17.9v-31.3c-5.7,0.1-12.2,0.1-19.3-0.1c0,0-2.7,0.2-2.7-5.3
		c0-8.2,15.7-19.1,19-24.6c7.1-12,7.3-28.1,12.2-41.9c5.3,2.2,10.2,4.8,12.3,9.5v45.1c5.7,0,12.5-2.2,19.5,0.2
		c2.4,4.7,0.4,11.8,0.3,52.8c2,1.8,5.5-0.7,12.5-0.6l5,5.3c0,0.1-0.1,0.2-0.1,0.2l6.8-2.2v-43.2c-17.7-5.6-10.5-21.9-15-36.9
		c-1.5,0.2-2.3-2.3-3.5-4.2c-1.4,3.8-8.3,10.7-15.6,15.3c-2.9-2.5-5.4-4.3-5.4-9.8c0-5.5,6.6-31.4,6.7-36.9V881
		c-1.3,0.3-2-2.2-3.4-4c-11.8,15.2-9.9,12.8-10.3,25.4v9.5c-10.1-6.7-14.8-15.8-18.4-23.9c-1.7,2.4-16.2,42.1-16.2,49.2
		c0,5.5,4.4,5.5,4.4,10.9c0,5.5-4.5,13.6-7.7,19.6c0,0-1.7,1.1-9.1,3.2c-2.7-7.2-4.9-13.8-6.1-19.5c-1.1,5.8,1.8,14.8,0.2,21
		c-2.4,8.8-11,18.6-17.6,28.7c-2.2,3.3-10.3,4.5-14.3,8.1c1.8,1.4,2.1,6.8,1.3,11.4c-7.5,10.1-9.9,22.2-13.3,27.8
		c-3.7,3.1-8.2,3.3-11.7,5.2c-2.5,8.4-4.7,17.2-8.1,25.6c-17.3,0.7-6.7,24.9-19,37.8h-12.3c0,0,4.5-2.3,2.7-4.7
		c-0.6-4.6-0.7-11.3-0.6-17.6c0,0,0.3-1.6-0.8-3.5c-1.4,10.1-3.6,25.2-3.6,30.6c0,5.4,0.8,7.6,2.2,44.7c0.6,15.3,2.9,31.5,9.2,45.5
		c4.6,10.6,10.3,17.5,13.7,25.5c14.3-30.2,28.3-66.3,49.9-85.1C1201.9,1152.1,1205.5,1151.5,1207.1,1153.5 M1186.1,1120.4
		c0,6-0.9,4-6.1,9.2c-0.4,10.5,1.7,23.8-1.5,36.5c-1.7,1.1-6.1,1.1-9.6,3c-2.5,12.7-4.8,28.2-12.2,44.1c-11.1-11.2-10-14.7-10-24
		c0-5.5,15.3-63.3,15.3-68.8c0-5.4-4.3-8.7-4.3-14.2c0-5.7,7.5-19.6,19.1-23.9C1179.6,1094,1186.1,1115,1186.1,1120.4
		 M1209.4,1147.6c-14.2-12.5-21.1-37.1-21.1-48c0-5.5,4.4-31.9,9.3-47.9c7.7,2.1,11.8,21.5,12.4,26.6c2,1.9,5.6-0.6,8.5-0.2
		c0.3,5.1,2.5,7.3,2.5,12.7C1221.1,1096.4,1214.5,1129.4,1209.4,1147.6"/>
	<path class="st5" d="M1164,339.3c16.3,4.8,41.8,13.5,47.2,13.5c1.1,0,7.9-0.7,14.1-10.1c-1.3-0.6-2.6-1.2-3.9-1.8l1,0
		c0,0,23,14.7,62.8,11c-34.2,10.5-66.1,20.6-78.4,20.6C1189.1,372.5,1172,352,1164,339.3"/>
	<path class="st0" d="M467.8,553c-0.3,0-0.6,0.1-0.9,0.1c1-0.7,2-1.5,3-2.4C469.3,551.6,468.6,552.4,467.8,553"/>
	<path class="st5" d="M996.7,279.5c-0.7-6.1-2.8-12.2-4.7-19.5l-20.6-7.5c4.7,4.6,9.2,9.2,11.4,14.5c-22.1,5.2-17.1,6-64.4,5
		c-19.9-0.3-8.5,12.2-18.6,21c2.7,7.3,19.1,5.1,27.9,10.2c7.4,4.4,16,15.2,19.3,21.8c3,6.3,3.1,13.5,3.6,19.7
		c1.5,1.9,3.7,4.2,5.2,6.6c0.9,4.5,0.9,9,1.3,12.9c3.5,1.9,8.9,7.2,9.7,11.3c0.8,4.1,0.8,9.3-0.8,13.1c1.4,1.7,5.9,4,10.3,13.8
		c-3.1,0.5-2,2.7-7.5,2.7c-5.5,0-13.3-4.9-19.8-6.1c-9.8-1.6-25.4,1.1-38-9.9c-0.1-4.8,4.9-10.2,8.7-11.5
		c-10.5-7.8-23.6-12.1-34.9-21.5c2.3-5.1,9.5-10,15.3-11.3c-14.8-9.9-32.4-18.6-48-32.2c1.6-10.9,11.1-12.7,35-11.8
		c-6.5-7.6-17.5-12-23.7-22c-27.7-3.1-65.5-22.5-93.3-20c-24.1,0-26.2-2.2-29.5-2.8c3.2-3.9,7.2-6.9,11.7-9.3l-41.1,9.9
		c6.5,0,8.7,2.2,11.8,2.7c-4.3,9.8-8.6,25.8-17.8,31.2c-19.1,11.2-44.2,6.7-65.9,12.4c-2.4,0.5-4.4,6.6-8.8,7.4
		c-6.5,1.1-15.6,2.1-23.8,5.7c-3,1.1-37.3,25.7-46.6,25.7h-11.1c-2.3-2.3-2.5-4.4-4.6-7.1L486.8,364h10.7c0.3,3,2.4,0.8,2.4,6.3
		c0,5.4-13.4,22.5-14.8,34c-0.8,6.5,1.6,15.3,0.8,24.3c-3.7,4.7-7.8,5.1-13.3,5.1c-10.1,0-10.2-4.3-30.1-17.4l-39.3,50.5h7
		c-1.3,4.2-2.7,8.7-4.2,13.2c4.4-6.3,9.9-7.4,11.3-7.5c0.2-0.3,0.3-0.5,0.4-0.7c10.8-3,29.7-9.5,35.2-9.5c22.9,0,8.2,24,29.5,24
		c5.4,0,4.7-1.9,6.6-3.6c-2.2-8.2-6.6-13.9-6.6-19.4c0-7.1,25.9-57.4,44.4-70.9c2.5,0,4.7,2.1,7.8,2.5v9.2
		c0.2,5.5-9.3,11.8-12.6,16.2c-2.7,3.8,0.7,10.9-1.2,17.1c-2.2,6.9-10.1,15.4-14.5,23.4c0,0-2.1,1.4,3.3,1.4c5.5,0,5.8-1.9,8.6-4.3
		c0,0,2.4,2.2,5.4,2.6c-2,9.7-1.9,13.8-2.4,19.4c4.4-2,20.2-21.5,20.2-27.5c0-5.5-6.6-4.3-6.6-9.8c0-5.5,9.9-10.1,14.8-15
		c5.7-5.7,5.7-12.7,7.6-19.2c3.8-12.5,25.5-21.2,33.6-22.5c2.6,2.4,2.9,2.1,2.9,7.6c0,5.5-4.6,15.9-8.7,21.9c0,0-0.3,1.4,1.3,3.3
		c3.7-2.1,5.6-6.2,10.3-10.9h7.5c2.4,2.4,4.9,2.1,4.9,7.6c0,5.5-5.7,17-9.7,22.5c-2.5,3.3-11.3,4.7-17.1,7.4
		c-16.1,7.9-17.5,28.7-24.4,42.7c-4.4,9.3-16.4,18.8-20.4,28.3c-2.5,6-2.7,12.7-3,20.6c1.5-0.3,5.5-4.2,8.5-8.6
		c7.6-10.6,9.2-22.8,14.4-32.6c7.9-14.5,21.4-28.6,33.3-42.1c0,0,3.2,0,3.2,5.5c0,5.4-5,15.9-8.3,24.4c-0.5,1.9,1.7,5.1,1.7,10.5
		c0,5.5-9,20.4-17.5,30.5c1.9,1.5,8.5,1.5,10.9,4.3c-2.3,5-6.5,9-8.1,14.6c6.5-4.4,17.1-11.1,22.6-11.1h38.6
		c1.8-1.9,5.9-5.5,5.9-7.3c-1.9-1.9-5.5-1.5-10.5-1.7c0,0-2.7,0.2-2.7-5.3c0-5.5,9.2-11.9,12.5-16c3.3-4.1,0.8-18.4,17.6-22
		c2.7,9.4,9.3,24.9,9.3,30.4c0,5.5-10.7,20.2-17.8,27.3c-3.6,3.5-12.1,3.2-17.8,6c-7.6,3.8-13.6,10.4-19.1,10.4
		c-5.4,0-12-6.5-17.5-6.5c-5.5,0-27.3,17.5-32.8,17.5c-11.2,0-9.7-9.3-14.4-17.5c-10,10.6-18.6,23.6-27.3,36.4v5.7
		c5.9,1.7,14.3-0.5,26-0.2c0.3,2.9,2.5,2.9,2.5,8.4c0,18.5-32.2,14.5-39.8,20c-8.2,6-2.9,18.9-15.5,24.9c-3.8,1.7-10.9,0.8-14.8,2.6
		c0.2,1.6,4.6,2.7,4.6,8.2c0,13.6-16.5,7.8-22.4,10.2c-12.5,10.6-10.1,22.6-26.6,34.5c-2.1,1.4-4.3,2.9-7.1,4.4
		c-0.8-1.4-1.3-2.9-1.8-4.4c-1.2-4-1.4-8.2-2.5-10.9c-3.4,2.8-4.9,6.6-5.4,10.9c-0.8,5.9,0,12.7-0.7,18.7c-0.8,6.6-7.9,16.5-7.9,22
		v10.3c1.9,1.7,1.1,1.4,6.6,1.4c21.9,0,21.7-21,39.4-36.2c0,0,2.2-5.3-3.3-5.3c-5.5,0-12.2,17-19.2,26h-9.9c0,0-0.1-2.3-2.6-5.2
		c5.6-10.9,12.9-21.2,20.7-31.9c4-5.4,8.2-11,12.4-16.6c7.6-3.7,13.5-2,22.5-7.4c7.1,4.6,7.5,11.4,11,17.5c8.4-9,17.5-9.8,22.8-20.6
		c-1.8-1.6-5.4-1.2-10.3-1.3c-2.5-2.4-2.8-2.1-2.8-7.6c0-5.5,15.5-24.7,25.1-36c3,2.5,0,13.1,5.5,13.1c4.1,0,14.8-6,15.5-17
		c7.1-2.6,18.3-4.8,23.8-4.8c5.5,0,22.1,6.6,27.6,6.6h34.3c1.8-1.9,4-6.2,5.9-7.6c-22-14.5-50.5-13.3-76.5-26
		c4.2-7.5,27.2-12.4,32.7-12.4c5.5,0,32.8,13.1,38.2,13.1c6,0,22-1,26.5-9.9c-1.3-3.9-1.2-11.5,1.9-15.6c30.7-5.6,35-64.1,66.7-64.1
		c5.5,0,4.4,4.4,9.9,4.4c5.5,0,23.6-8.6,35.2-13.1c0,0,10.6,0.3,16.1,6.9c0,0.1-0.6,0-1.7-0.2c5.1,2,10.9,7.1,21,18.5
		c13.7,5.6,35.8,16.1,39.8,16.1c16.1,0,41.5-20.4,41.5-38.2c0-5.5-10.9-13.1-10.9-18.5c0-7.2,22.4-11,25.1-11
		c9.3,0,16.7,8.6,28.2,24.1c1.3-8,1.6-17,4.1-25.5c3-10.6,19.6-30.6,17.5-41.5c8.5-7,21.3-11.7,26.7-11.7c14.2,0,7.5,5.4,22.5,16.9
		c3.3,2.5,10.8,3,16.6,7.2c0,0,1.4,2.2,1.4-3.3c0-5.5-8.7-15.2-9.4-23.5c-9.9-8.4-20.8-10.5-29.9-18c7.1-5.3,15.9-5.3,24.2-9.3
		c-0.1-6-2.4-14.7-2-22c8.5,0.2,27.4,11.1,34.2,16.6c6.3,4.9,15.2,7.2,23.7,9.9c4.4,1.4,6.2,6,11.7,6c5.5,0,20.1-10.7,28.5-16.7
		c-4.3-11.4-24-10.1-32.3-9.7c-2.6-4.8-0.5-10.8-0.5-16.2c0-5.5-24.1-38.2-24.1-43.7c0-5.5,4.8-5.1,6.6-6.4
		C1031.5,291.5,1014.2,287.2,996.7,279.5 M786.4,464.7c9-6.9,22.8-13.6,28.3-13.6c5.5,0,21.8,2.2,27.3,2.2
		c17.5,0,18.6,21.6,18.6,27.3c0,8.8-0.8,20.8-14.2,20.8c-5.5,0-39.9-17.6-60-28.9V464.7z M718.6,458.5c-0.1-0.9,16-40,18.9-44.1
		c3-4.1,4.2-12.1,7.5-15.4c5.2-5.2,19.3-6.8,24.8-6.9c11.7,0,31.7,1.9,31.7,20.8c0,5.5-2.3,13.6-7.3,15.5
		c-12.6,4.6-27.1,5.4-39.2,12.2c-9.8,5.4-11.4,26.2-26.5,34.3h-10V458.5z M613.3,484v13.8c0.3,5.4-9.5,12.2-14.9,12l0-9.8
		C598.3,494.5,605.3,488.4,613.3,484 M633.3,422.7c0-5.5-4.1-4.7-6.4-7.2v-9.9c3-0.3,4.1-2.5,9.6-2.5c5.4,0,17.7,11,25.9,13.1
		c3.9-4.1,5.9-10.5,8.8-14.4c4-2.9,11-3,15-3.8c6.3-5.6,8.6-12.2,15.7-16.8c5,2.3,7.7,5.5,7.7,11c0,7.6-40,72.3-46.3,77.5
		c-1.6,1.4-7.2,0.9-11,3.5c-4.4,3.3-8.8,10.5-20.4,17.2c-2.9-2.5-5.3-1.1-5.3-6.6c0-5.5,6.6-16.7,8.9-22.4c-8-1.6-16.8,0.5-25.9-1.8
		c0,0-0.1-2.3-2.6-5.2C616,442.8,633.3,428.2,633.3,422.7 M604.8,392.2c0-4.1,13.4-26.2,21.1-26.1h13.6
		c-0.6,15.5-18.3,25.9-24.4,32.5h-7.5C605.1,396.2,604.8,397.6,604.8,392.2 M598.3,351.7c-2.3,5-2.2,7.7-2.2,13.2
		c0,9.6-8.7,14.2-13.1,14.2c-5.4,0-4.4-6.6-9.9-6.6c-5.5,0-12.7,4.3-20.4,6.3c3-15.8,26.8-30.3,40.4-32.4L598.3,351.7z M805.8,288.1
		c-8.9,15.9-32.9,15-44.4,19.4c-6.8,2.5-13.3,8.5-19.8,9.6c-6.6,1.1-15.6-3.1-21.7-0.9c-5.2,1.9-10.4,7.7-17.5,9.6
		c-8.2,2.2-20.2,2.2-30.5,5.7c-3.3,1.1-51.4,30.1-62.6,30.1c-5.4,0-8.7-4.3-8.7-9.8c0-13.9,17.5-11.3,15.5-31.2
		c14-3.7,4.7-2.7,50.7-2.6c1.8-1.9,6-6.1,8.5-10.2c2.6-0.7,4.6-0.7,6.6-1.4c10.8-10.5,23.5-6.3,32.9-11c6.6-3.3,13.6-14.5,19-14.5
		c5.5,0,5.5,4.3,11,4.3c5.4,0,10.9-8.7,16.4-8.7c5.4,0,8.7,10.9,14.2,10.9c5.4,0,12-4.4,17.5-4.4C798.3,283,800.9,285.3,805.8,288.1
		 M871.3,413.5c-4.8,2.5-10.8,7-16.3,7c-23.5,0-39.1-41.5-71-41.5c-5.4,0-24.7,6.5-36.1,10.9c0,0-2.1-2.2-5.2-2.7
		c2.1-5.4,6.7-10,12.9-15.8c-10-8.7-23.7,7.2-30.5-11.1c11.7-14.7,72.6-29.3,73.4-29h11.6c-2.1,7.7-4.2,11.7-4.3,13.5
		c2,1.8,5.5-0.7,27.4-0.7c16.1,0,13.2,16.2,12.4,26.7c11.2,4.2,12.1,16.9,8.4,24.4c4.1,3.8,10.5,3.6,17.4,8.4V413.5z M910.7,397.2
		c0.1,2.6-2.4,7.7-5,10.2l-32-2.9c7-5.5,21.8-12.3,27.3-12.3C906.4,392.2,908.3,394.7,910.7,397.2 M982.9,291.7
		c0,5.5,16,7.6,21.4,11.7c18.3,13.9,21.2,42.7,46.2,50c-0.7,8.6-6.4,14.8-14,14.8c-5.5,0-17.8-9.9-26.6-12.6
		c-4.1-1.4-8.1-0.5-12.8,0.9c-16.9-19.2-22.1-41-46.4-54.7c-1.9-1.1-4.8-6.2-7.1-10.9l2.6-9.8h34.1
		C983.9,289.4,982.9,290.1,982.9,291.7"/>
	<path class="st5" d="M497.8,1123.7c0-5.1,9.6-22.9,10.8-29.5c-4.7,5.4-9,13.7-10.6,26.4c-4.2,34.1-1.7,60.7,0.5,75.2h9.6
		c2.5,2.4,2.8,4.2,2.8,9.7c0,5.4-2.4,11.5-6.6,17.2c3.8,1.5,11,0.3,11,5.8c0,5.4-2.2,9.8-2.2,14.6c-1.2,1.2-3.1,1.9-5.3,2l0.7,13.5
		c0.3-0.5,0.6-1.1,0.9-1.6l14.5,2.6c-1.3,4.7-2.7,9.1-4.1,13.4l4.8,2c1.4-7.3,5.7-11.6,16.9-11.6c5.4,0,8.1,2.3,13,4.9v6.8
		c0,4.5-1.1,8.9-2.8,12.6l6.6,5c3.1-6.3,7.6-12.4,10.5-14.1c0,0,2.2,2.2,5.3,2.5v21.1l19,6.8c2.5-4.4,7.7-8.6,11.8-8.6
		c8.2,0,13.2,8.7,13.2,13.1c0,0.9-0.1,1.6-0.2,2.4l9.2,1.4c3.2-6.8,9.1-14.7,15-14.7c4.5,0,9,9.4,12.9,16.8l15.4-3.3v-1.4
		c0-2.8,1.4-20.7,10.9-20.7c5.5,0,8.5,2.5,10.9,5.2c-0.6,2.4-1.1,4.8-1.7,7.2l4.2-2.9l2,2.3v-11.1c2.3-2.5,7-4.9,11.8-7.2
		c4.8,2.3,7.1,6.7,10.5,8.8c1.5-5.9,1.6-14.8,6.4-23.8h10.1c0.2,7.9,0.2,16.4,0.2,24.5l7.8-16.9c-0.6-0.7-1.2-2-1.2-4.6
		c0-10.4,21.7-24.2,29.5-31.7c0.2,0.2,0.3,0.2,0.5,0.4l0.9-2.8c0,0-0.1,0-0.1,0v-14.2c-0.2-9.5,16.2-28,23-31.3c0,0,1.7,0,2.5,2.5
		l6.4-13.7h-5.7c-0.3-3-2.4-1.9-2.4-7.4c0-8.7,36.6-77.5,44.8-77.5c7.1,0,14.7,11,11.8,17.9c1.3-0.4,0.3,1.7,5.7,1.7
		c5.4,0,16.3-19.7,16.3-25.1c0-5.5-2.2-15.2-2.9-21.3c-5.5-4.1-16.8-9.3-16.8-14.8c0-5.5,15.3-31.7,15.3-37.1c0-5.5-6.5-4.4-6.5-9.9
		c0-9.2,17.5-14.2,17.5-38.2c0-5.5-2.1-15.9-5.7-24l-8.2,8.5l-9.9,0c-2.5-18.2-0.3-51.1-0.3-56.6c0-5.4-3.8-11.4-5.9-18.3
		c-1.9-6.3-0.6-13.4-0.5-19.6c-1.9-1.8-0.1-1.5-5.5-1.5c-5.5,0-3.5-0.4-5,1.7c-0.5,1.1-0.8,2.2-1.1,3.2l-1.5,7.5
		c-0.3,2.7-0.6,5.4-1,8.1c-0.3,0.3-0.6,0.5-1,0.7c-0.7,2-2.3,6.1-4.8,12.4l-1.9,9.1c7.3,7,19.6,6.3,19.6,17.4
		c0,5.5-4.4,8.8-4.4,14.2c0,5.4,11,17.5,11,22.9c0,5.4-8.8,24.3-11.9,36.9c-3.8,3.2-8.1,3.2-12.1,6.7c1.8,1.4,5.4,1.1,10.7,1.4v7.1
		c0.2,5.4-8.9,10.3-10.3,15.7c-1.1,4.4,1,12.4-1.5,15.7c-4.1,5.5-12.4,11-18.7,17.2c0.1,4,6,7.4,10.9,10c-1.3,9.1-21.8,28.1-21.8,42
		c0,5.5,4.4,13.1,4.4,18.6c0,5.4-2.4,14.8-7.4,21.7c-5.1-2.2-12.2-7.3-13.4-13c-3.3,10.2-5.5,21.2-11.2,33.1c4.3-2.5,9-4.7,13.7-4.6
		c0,0,1.9,2.1,5.1,2.4v7.1c0.2,5.5-12.3,22.7-22.2,28.8c-7.6,4.6-25.7,5.3-31.2,5.3c-4.6,0-24.1-10.8-26.8-14.9
		c-37.8-5.8-5.1-15.7-35.5-15.7c-5.4,0-7.7,6.6-13.1,6.6c-5.8,0-37-7.3-43-17.6c-19.2,5.6-0.1,32.8-18.2,32.8
		c-5.5,0-5.5-2.2-8.6-2.5v-14.2c-0.2-5.4,4.3-6.8,6.4-10.3c-3.9-1.6-11-3.2-17-6.8c-4.6-2.7-7-8.7-7.7-12.5
		c-5.3-1.8-17.2-4-22.7-4.1h-6.9c-2.5-4.9-6.4-10.9-10.5-13c-2,0.1-5.6,4.1-8.1,6.5h-7.5c-2.5-2.4-2.8-2-2.8-7.5
		c0-5.5,6.6-6.6,6.6-12c0-5.5-6.4-11.5-7.7-15.3c-3.9,6.2,0.6,17.7-15.5,21.8C498.1,1129.9,497.8,1129.2,497.8,1123.7 M679.1,1216.5
		c0-7.4,1.3-13.1,14.6-14.1l4.9,5v20.8c-3.1,0.3-4.1,2.5-9.6,2.5C681.1,1230.7,679.1,1222.5,679.1,1216.5 M567.7,1177
		c-2.3,5.1-7.7,12.2-13.1,12.2c-5.5,0-8.4-2.6-10.9-5.3c2.2-5,7.1-12,11.7-14.3h7.3C565.2,1172,565.2,1174.2,567.7,1177
		 M633.3,1236.1c0-12.3,3.5,2.3,2.6-38c9.7,2,20.1,2,29.5-0.1c2.7,4.9,2.8,9.7,2.8,15.2s-3.9,16.4-6.1,23.3c-1.9,6.3,2,13,0.9,19.5
		c-0.8,4.4-6.3,9.5-11.4,11.8C644.4,1258.6,633.3,1241.6,633.3,1236.1 M607,1256.9c0-5.4,6.9-17.1,11.6-21.7c2.6-0.1,5.2,2.2,7,3
		c1,4.3,3.3,7.8,3.3,13.2c0,5.4-2.2,6.6-2.5,14h-16.5C607.4,1263.1,607,1262.3,607,1256.9 M574.3,1262.3c0-5.5,15.4-37.5,22.3-55.5
		h9.8c2.5,2.4,2.8,1,2.8,6.4c0,5.5-7.9,36.5-11.8,53.8c-0.3,2.2-4.7,5.2-10.1,5.2C581.9,1272.2,574.3,1267.8,574.3,1262.3
		 M554.6,1224.2c0-3.9,14.5-34.8,18.7-37.1c2.8,2.5,4.3,2.2,6.8,2.2c2.5,2.5,2.9,2.1,2.9,7.6c0,8.7-12.8,38.2-18.6,38.2
		C554.3,1235,554.6,1225.8,554.6,1224.2 M532.8,1215.4c0-5.5,4.5-12.6,9.3-19.6c2.7-0.1,7.1,2.1,10,2.4c0.3,3,2.5,0.8,2.5,6.3
		c0,5.4-4.5,14.8-9.5,21.8C539.9,1224,532.8,1220.9,532.8,1215.4 M513.1,1168.8c2.2-7,5.9-12.3,10.9-12.3c5.5,0,12.1,2.2,18.1,2.2
		l3.4-2.1v12.3l-15.9,15.9C522.6,1182.6,520.1,1173.7,513.1,1168.8"/>
	<path class="st5" d="M1345.6,926c0,2.2-0.2,4.4-0.4,6.6c4.7-22.4,16.4-48.6,20.5-63.9c-1.2-4.8-2.8-10.2-4.4-15.2h-0.1
		c-0.5-1.8-1.1-3.4-1.7-5l-4.4,4.3c-2.9-5-5.2-10.9-5.2-16.4c0-5.4,4.5-20,8.8-30.3l-3.8-3.6c-7.5,0.3-13.7,6.4-13.7,12.1
		c0,5.5,2.2,10.9,2.1,18.5l-3.6,2.2c-11-23.2-4.2-51.9-31.2-68.1v-7.4c-0.1-5.5,2.8-26.8,7.1-38.8c1.9-5.5,13.6-14.4,19-14.4
		c5.5,0,6.3,4.7,7.7,6.6c1.4-1.8,1.1-1.1,1.1-6.6c0-1.8-1-4.9-2.4-8.7v0c-2.8-7.7-7.6-18.5-10.5-27.9c3.1-0.4,7-0.3,12.1-2.6
		c5,7,7.3,16.1,9.1,26.4c1.5-0.2,2.2,2.2,3.5,4v0c0,0,0,0,0.1,0l0,0c4.4-6.3,5.5-26.5,5.5-32.7c0-5.4,0-11.8-0.8-18.4
		c-1.4-11.5-1.4-31.7-1.4-37.3c0-5.4-4.2-14.7-7.7-20.7c-9.2,11.3-25.4,14.7-16.4,32c0,0,0,3-5.4,3c-5.5,0-15.9-13.3-24.4-18.7
		c-0.7-1.7-3-4.3-3-9.7c0-9.8,9.9-22,18.2-25.5c0.5-0.2,1.3-0.3,2.2-0.2l-2.2-2.6l-6.6-28.6l-43.4-19.1l-21.9-34.3
		c-6,0.7-11.9,1.4-17.6,0.3c-9-2-17.6-11.2-26.3-14c-4.1-1.4-9.8,0.7-13.4-1.5c-24.6-15.3-14.7-16.5-32.2-16.5
		c-8.8,0-16.3-2.1-25.7,10c-9.2,0.9-20-1.3-30.1,0.2c4.1,3.3,13.3,4,16.6,10.1c9.8,18,29.3,54,29.3,59.5c0,5.4-4.4,2.2-4.4,7.6
		c0,5.4,6.6,7.6,6.5,12.4c-2.4,2.5-6.8,4.7-12,9.4c-9.5-11.3-18.3-26.7-28.4-41.4c-3.5,4-10.5,6.5-16.4,8.2l1.9,7.4
		c3.7-0.3,5.9-6.8,11.4-6.8c5.4,0,5.4,2.2,8.5,2.6c-2,11.8-4.1,13.8-4.1,19.3c0,7.9,15.1,19.9,28.4,29.4c-4.7,5.2-11.5,5.4-15.3,6.8
		c4.1,3.4,10.3,4.5,16.6,5.9c2.4,0.5,8.4,4.1,10.8,8.7c8.2,14.7,18.3,32.7,29.3,48.2v7.5c0,0,0.1,2.6-5.4,2.6
		c-10.4,0-24.3-22.3-30.5-30.6c0,0-1.2-2.2-1.2,3.3c0,31.4,31.6,22.7,45.9,52.6c-2.5,2.7-2.2,3.1-7.6,3.1
		c-5.4,0-38.2-17.5-43.7-17.5c-8.4,0-27.3,19.4-27.3,25.1c0,0.3,0,0.7,0.1,1c1,5.6,9.2,14.7,10,22.9c1.1,13.1-3.3,26.3-0.9,39.2
		c1.7,9,6,19.6,7.1,27.5c1.2-12.2,3.3-36.1,3.3-41.5c0-5.5-6.5-24-6.6-29.5c0-4.7,8.1-11.2,12.1-18.6c0.6-1.3,1.2-2.5,1.7-3.7
		c1.7-2.3,2.6-2.8,8-2.8c3.6,0,9.6,3.8,15.8,6.5h0.1c3.2,1.5,6.6,2.7,9.7,2.9c4.7,4,9.3,10.8,11.6,15.9c-2.5,2.8-3.3,3.1-8.8,3.1
		c-5.4,0-8.1-2.3-11.8-4.4c-11.5,10.9-6.7,27.1-8.7,42.7c-1.1,10.9-10.1,30.4-10.1,35.9c0,5.5,6.6,24,6.6,29.5
		c0,5.5-2.5,7.3-7.2,11.8h-7.8c-0.3-3-2.1-4.4-3.6-6.3c-1.4,1.9-1.1,2.2-1.1,7.6c0,5.3,4.1,11.6,4.4,17v0v0.5
		c0,8.4-5.1,19.9-15.4,20c1.9,1.1,2.3,6.2,2.1,10.1l3.9,3.8h16.4c3.7-7.7,3.9-25.6,10.9-34.4c2.9-3.7,7.1-5.9,13.3-4.9
		c9.9-14.6,8.1-22.2,8.1-33.9c0-5.5-2.2-19.4-4.3-28.7c2.5-2.7,1.1-5.2,6.6-5.2c5.4,0,12,2.2,17.1,2.5c0.4,9.5-1.8,20.4-1.8,25.9
		c0,6-1.7,17.6,5.8,21.9c1.8,0,5.2-2.2,5.2-7.7c0-5.5-6.6-46.9-6.6-52.4c0-5.5,6.6-15.3,6.6-20.8c0-5.5-8.7-22.9-8.7-28.4
		c0-9.3,1.9-15.8,6.9-24.1c2.3-3.8,5.2-8,8.9-12.9c2.7-0.1,7.7,4.4,9.6,5.7c4.2,0.8,10.5-1.4,15.6-1.2c1,2.9,1.9,5.7,2.7,8.5
		c3.1,10.6,5.4,20.7,9.9,30.6c1.2-1.8,3.1-5.5,3.1-7.7c0-11.2,0.2-18.3,1.1-23c1-5.4,3.1-7.4,7.1-8.6c1.1,2.5,2.4,5.5,3.9,8.6h0
		c5.3,11,12,24.2,12,28.5c0,12.5-17.9,15.2-21.4,23.3c-4.3,10.1-2.6,29.1-2.6,34.5l2.2,61.1c0,2.3,0.6,5.2,2,8.3
		c1.2,2.6,3.2,5.4,6,8.2h14.2c0.6-2.7,1-5.5,1.3-8.3c1.3-12.2,1.1-24.9,10.1-37.7c6.3,3.7,10.1,9.2,10.1,10.8
		c0,5.5-6.6,6.9-6.6,12.3v21.2c1.9,1.8,0,1.5,5.5,1.5c2.8,0,6.8-0.5,7.5-8.1l0.1-1.8c1.1-24-2.4-28.8-1.6-32.9c1.1-4.3,6-8.5,6-14
		c0-5.4-6.5-6.5-6.5-12c0-5.4,2.2-10.9,2.5-18.2c3-0.3,8.3,2.4,9.7,4.6c8.7,23,16.7,48.6,22.5,74.3v0
		C1342.2,878.6,1345.6,903.7,1345.6,926 M1244.2,650.5c0.8,2.2,0.9,3.7,0.9,9.2c0,5.4-2.2,15.3-2.2,22.3c-2.4,2.5-1,2.8-6.5,2.8
		c-27.4,0-12.7-23.8-38.2-34.9c0,0-1.4-0.3-3.3,1.1c4,3.6,10.8,8.3,12.9,12.9v9.8c-3.1,0.3-2,2.5-7.5,2.5
		c-8.1,0-15.2-10.9-15.8-18.5c-1.3-19.7-4.3-42.1-10-60.9c-3-9.9-12.4-20-12.4-25.5c0-5.5,2.4-6,3.7-8.1c0.8-2.1-1.5-2.8-1.5-8.2
		c0-14.5,19.6-6.3,19.6-24c0-12.2-20.4-7.9-23.5-8.7c-6.9-10.4-13.3-21.2-22.4-30.6c6.8-9.5,11.1-18.1,16.1-25.2
		c4.6,1.7,17.1,10.8,25.3,23.4c-5.3,0.6-9.7,2.8-13.5,2.6c0,0-1.6-2-1.6,3.4c0,5.4,3.9,5.7,8.1,9.1c9.3,2.7,16.3-6.5,23.4,5
		c1.3-3.7,1.2-7.6,1.3-12.4l5-5c2.6-0.1,7.7,2.4,12.3,7.2v26.3c0.1,5.5-13.2,29.3-21.8,41.5c3.8,1.5,9.5,1.5,17.2-0.6
		c-1.9,14.1-1.9,20.5-2,27.7c-4.8,2.6-11.9,2.7-17.5,2.1c7.9,11.7-5.2,21.9,14.1,29c1.6-1.9,3.5-5.5,3.8-8.6l7.1,0
		C1221.9,617.1,1240.6,643.1,1244.2,650.5 M1267,606.2c0,5.5-2.2,7.6-2.5,10.7h-10c-6.9-9-15.9-22.7-15.9-28.1
		c0-5.5,2.5-8.4,5.1-10.9C1260.1,580.5,1267,598.8,1267,606.2 M1298.7,551.1c-3.3,4.4-11,9.2-16.5,9.2c-5.4,0-10.8-7.1-12.9-11.8
		v-9.8c3.1-0.3,4.2-4.7,9.6-4.7c5.5,0,15.3,4.4,25,5.1C1301.6,542.5,1301.8,547,1298.7,551.1 M1304.1,651.2l2.9-21
		c7.7,6.8,14.2,17.7,23.2,26.8v7.5c-2.4,2.5-1,2.8-6.4,2.8C1318.3,667.3,1308.7,658.1,1304.1,651.2 M1293.4,694.9v-14.2
		c14.1,0.8,18.1,22.5,19,34.5C1307,712.1,1293.2,700.9,1293.4,694.9"/>
	<path class="st5" d="M1078.2,1247c-0.8-21.5,0.2-53.4-10.3-75.1h-10.4c-6.4,9.1-13.4,43-13.4,49c0,5.4,4.4,18.6,4.4,24
		c0,6,2.2,21.4-7.2,27.4c-1.6-34.1,0.6-44.9,0.3-54.4c-27.5-2.2-9-30.3-27.4-35.2c-7.1,11.4-11.5,22.3-17.2,32.7
		c-1.3-1.9-2.1-4.4-3.5-4c1.9-17.2,6.7-35.9-5.1-44c-5,2.3-7.4,6.8-8.8,8.7c-1.4-1.9-2.2-4.4-3.6-4.1c0.3-15-8.4-20.5-8.4-30.9
		c0-5.5-0.3-2.5,1.3-4.4c3.7,2.1,8.5,4.4,14,4.4c13.4,0,21-33.4,23-39.3c9.4,15.3,4.7,50.2,29.8,45.6c-0.3,10.1-2.6,21.2,0,32.8
		h10.1c2.6-7.1,4.8-13.8,5.1-17.6c7.6-1.8,17.2-10.5,22.7-10.5c5.5,0,3.5,1.7,3.5,1.7c2,12.6-3.4,26.7,0.4,36.8
		c4.4,12,12.5,11.9,12.5,20.4c0,5.5-4.4,36.1-4.4,41.5c0,5.5,6.5,17.5,6.5,22.9c0,4.7-1.6,12.5-3.2,35.4l-7.7,4.1
		c0.6-6.1,2.1-11.7,2.1-16.5C1083.4,1292.9,1079.1,1264.5,1078.2,1247"/>
	<polygon class="st0" points="970,252 971.1,252.4 968.1,252.4 	"/>
	<path class="st3" d="M395.2,481.7l5.4-11.4c-1.2,3.4-1.7,6.8-3.9,9.6C396.2,480.5,395.7,481.1,395.2,481.7"/>
	<path class="st0" d="M1343.2,549.7c1,0.4,1.6,0.9,1.6,0.9L1343.2,549.7z"/>
	<path class="st5" d="M1263.6,484.4c2,0.3,3.9,0.7,5.8,1.2l8.8,9.3c0,0-1.6,12.6,17.5,15.8c19.1,3.3,25.3,13,25.3,13l-20.4,2.9
		l42.7,23.1c-2.7-1.1-8.3-1.8-14.3,7.3c-3.6,5.6-5.3,9.6-6,12.4c-0.2,0-0.5-0.1-0.7-0.1l-2.2-2.5l-6.6-28.6l-43.4-19.1l-21.9-34.3
		C1253.4,484.3,1258.5,483.7,1263.6,484.4"/>
	<path class="st4" d="M510.9,1035.5c0-0.8,0.3-1.7,0.8-2.6c-1-1.6-2.3-4-3.5-7.1c-4.5,1-10-0.4-13.3-0.5c-1.8,2-1.5,1.2-1.5,6.7
		c0,53.8,116.4,86.5,121.3,86.5c8.7-0.2,17.5,3,27,3.4c0.3,5.1-6.5,8.1-10.6,11.6c6.1,3.5,17.5,7.7,23,7.7
		c54.1,0,89.7-45.4,114-106.3c6-14.7,7.9-33.6,14.5-50.2c9.8-24.4,27.4-57,45.9-80.9c1.4-3.2,2.5-6,3.5-8.5l2.3-10.5
		c-5.7,3.5-13,5.3-17.7,10c-7.4,7.4-12.5,15.4-19,23.4c-4.4,5.5-0.6,15.6-3.4,21.6c-8.2,18-18.7,37.6-30.7,54.8
		c-3,4.3-10.2,6.6-16.1,12.9c-0.5,1.9,1.8,3.9,1.8,9.4c0,28.6-41.2,32.2-52.9,32.5c-1.8,6,0.4,12.2,0.3,19.2c-2.4,2.5-6.5,5-12,5
		c-8.4,0-27.3-10.2-35.4-19.8c-1.7,0.1-5,2.3-5,7.8c0,4.1,7.7,31,15.3,41.7c0,0,0,3-5.4,3c-5.5,0-11.7-6.9-15.7-11h-47.4
		c-5.5,0-11-10.5-18.3-14.9c-3.6-2.2-8.9-0.6-13-4.1C561.9,1050.2,520.6,1055.4,510.9,1035.5 M661.8,1111.1
		c8.7-4.5,26.9,1.8,35.1-7.5c6.5-7.7,13.1-16.7,20.8-23.6l2.9,18.5c-0.6,20-32,29.5-42.6,29.5c-5.5,0-11.4-0.2-16.2-2.8
		C661.7,1120.4,661.7,1116.1,661.8,1111.1"/>
	<path class="st4" d="M831.9,895.2l2.3-10.5c0.9-0.6,1.7-1.2,2.5-1.8C836,884.8,834.4,889,831.9,895.2"/>
	<path class="st4" d="M838.7,874c0.3-2.5,0.7-5,1.5-7.5L838.7,874z"/>
	<path class="st4" d="M384.1,884.5c0-20.4-11.6-1-23.6-24.5c-1-2-1.6-4.2-1.7-6.5v0c-0.8-8.8,2.8-19.6,0.3-28.5
		c-6-4.6-12.1-7.1-12.1-12.5c0-5.5,4.4-7.6,4.4-13.1c0-5.5-10.7-12.8-12.6-20c-2.2-8.2-4.9-23.7-4.9-29.2c0-5.5,0.5-16.6,2.7-24.8
		c1.9-7.1,10.4-11.2,10.4-16.7c0-1.5-2.1-5.3-1.6-11c0.3-2.5,1-5.5,2.8-8.7c1.3,1.9,2.6,3.9,2.6,3.9c1.1,1.6,2.1,3.2,3.1,4.8
		c1.7,2.6,3.2,4.8,4.7,5.7c4,0.8,7.2,0.7,9.3,1.6l0.5,0.9c-5.9,5.7-9.4,12.3-9.9,16.8c-1.6,13.1-4.9,37.3-4.9,42.7
		c0,5.5,8.6,11.2,10.2,14.7c8.2,16.1,3.4,35.7,16.9,51.9c1.8,1,4.5,5.4,10,5.4c9.3,0,2.4-16.9,22-15.7v9.8
		c-6.4,6.2-10.4,3.2-15.5,13.7c0.5,0.6,3.7,3.8,7.8,8.1c7.7,8.3,18.4,20.8,18.4,28.8c0,13.9-27.5,16.5-32.8,19.5
		c0.4,0.5,0.9,0.9,1.3,1.4l-0.3,0.1c0,0-7.6-7.3-10.5-12.9C383.1,888.5,384.1,886.9,384.1,884.5"/>
	<path class="st4" d="M803.2,517.9c-5-2.1-9-3.5-10.4-3.5c-5.5,0-8.4,0.3-10.8,2.8c-0.6,8.3,3.1,18.5-9.9,23.4
		c-12.4-6.4-12.1-12-12.1-18.6c0-11.2,3.9-12.1,13.2-24c0,0,6.1,0.9,9.1,1.3C787.4,501.5,793.2,506.5,803.2,517.9"/>
	<path class="st4" d="M406,479.9c-5.5,17.3-11,34.6-11,38.9c0,12.3,15.3,49.7,34.8,50.6v7c0.2,5.4-8.6,13.8-11.5,20.6v2.7
		c11.2-12.1,14.4-21.5,28.5-30.3c0.6-1.9,0.6-6.1,1.3-8.6c6-4.4,12.7-6.8,18.7-7.6c0.9-0.7,2-1.6,3-2.4c2.7-3.5,3.9-8.3,4.5-14
		c17.1-9.1,20.4-21.9,25.5-36.5c0,0,0.3-1.5-1-3.3c-3.6,6.1-7.3,13.1-10.9,19.1c-2.7,4.6-10.7,6.4-14,11c-4.6,6.6-11,17.9-21.1,17.9
		c-5.5,0-10.1,1.2-18.7-7.5c-12.8-17.8-8.6-25.2-8.6-30.7c0-8.4,8.7-16.4,13.1-16.4c5.4,0,12.8,11.2,18.8,17.4c3.7-2,7.8-4,11.9-8
		c-0.3-8.9-22.5-20.4-29.5-20.4c-5.5,0-12,10.9-17.5,10.9c-5.5,0-4.4-2.2-7.3-2.5c-0.3-2.9-2.5-1.8-2.5-7.4c0-4.8,3.4-6.5,4.8-8.2
		C415.9,472.5,410.4,473.6,406,479.9 M416.9,544.1c0,0,1.1-27.5,3.9-27.3c4.8,11.4,7,24.7,8.8,38.9
		C424.1,553.6,419.2,548.7,416.9,544.1"/>
	<path class="st1" d="M1343.2,949.2c0-5.1,0.8-10.7,2-16.5c-0.3,3.4-0.9,7-1.2,11c-1.4,15.2-0.6,59.9-0.6,65.4
		c0,5.5-4.4,29.5-4.4,35c0,5.4,2.1,28,6.2,42.3c-17-7.2-14.6-28.4-17.9-41.9c-1.3-2-5.8-1.2-5.7-6.7v-6.7l7.3-2.3
		C1329,1028.8,1343.2,978,1343.2,949.2"/>
	<path class="st1" d="M1374.9,785.8l6.5-130.4l-22.4-76.4l-36.5-4.5c0,0-0.4-1.3,0.3-4.4l2.4,2.7l36,0.7l37.4-25.7l25.7-75.5
		l0.7-85.9l-29.3-47.6l-54.4,4.4l-18.6,12c2.6-6.3-1.2-10-19.3-6.1c-6.4,1.4-12.4,2.3-18.1,2.8c36.9-11.3,76.5-23.1,97.5-23.1
		c35.8,0,53.2,29.4,54.6,66.6l-2.2,71.8c6.8,12.8,67.8,68.2,67.6,87.9v13.6c-3.1,0.3-6.7,0-8.6,1.4c8.4,8,17.3,14.6,24.1,24.1
		l-6.6,6.4c10.5,7.9,21.6,19,30.5,30.6c-2.4,2.9-4.9,5.3-8.7,6.8c6.4,7.8,17,16.3,28.4,23.6c-2.5,3.1-2.2,3.4-7.6,3.4
		c-19.7,0-39.9-21.5-58.9-34.9l-3.4,3.5c4.2,5.7,8.7,12.5,10.8,20.4h-9.4c-9,0.2-35.6-40.9-36.2-42.1v-7.6
		c7.1-2.5,13.3-6.6,19.5-12.3c-8.3-5.7-21.5-14.6-32.6-25.9v-7.6c4.8-2.5,9.2-2.5,13-3.8c-14.8-7.8-29.8-12-44.5-16.4
		c-3.8,6.2-12.6,14.9-16.8,20.6c10.5,5.9,23.5,10.2,34,17c1.3,4.1-0.7,17.4,9.4,21.7c0,0,2.5,2.9,2.2,5.9c-3,0.3-0.8,2.6-6.3,2.6
		c-5.5,0-7.6-2.2-13.2-2.7c2.2,3.3,6.4,9.6,11.1,14.7c-2.5,3-3.3,3.3-8.7,3.3c-5.5,0-14.2-4.3-22-5c8.6,9.8,21.5,18.2,34.9,27.4
		c0.1,2.7-2.6,8.1-6.5,9.6c2.1,3.5,6.6,8,8.6,15.6c-5.3,0.5-9.6,0.5-13.1-0.1c2.3,3.4,6.4,5.2,11.1,10.2c-3.4,6.2-7.9,6.4-13.1,11.1
		c2.3,2.2,4.8,4.7,7.3,7.6c6.8,7.6,14,16.9,18.8,25.4c-5,2.9-13.1,3-18.6,3c-5.4,0-8.7,6.5-14.2,6.5c-5.5,0-10.6-9-14.6-13.1
		c-1.7,0.1-5.3,1.9-7.2,3.4c6.3,8,15.3,20.7,20.7,20.7c5.5,0,1.1-4.4,6.5-4.4c7.1,0,21.3,20,22.7,30.3h-12.2l-8.8-8.6
		c-1.7,0.1-3.1,4.1-7.2,7.7c1.9,1.4,5.2,6.5,5.7,10.8c1.4,10.9-3.3,24.2-0.9,34.8c2.9,12,6.1,24.7,8.8,39.1l0.1,2
		c0.9,4.6,1.6,7.4,2.2,12.4c-11.1-2.6-16.2-7.9-18.8-14.4c-4.7-11.6-1.4-26.9-9.6-37.8c-5.9,2.2-13.6,10.4-19,4.3
		c-1.4,10.1-1.4,25.2-1.4,30.6c0,0.8,0,1.7-0.1,2.8c-0.2,11.2-1.2,35,7.5,38.7c1.6-1.9,6-4.1,8.5-6.4h8v20.2
		c0.1,12-15.2,18.8-17.4,18.8c-5.5,0-16.4-8-21.1-13.5c-7.9-9.2-3-23.4-3-32.4c0-2.2-0.7-6-1.8-10.4c0.9-3.4,1.5-6.4,1.5-8.5
		C1367.2,845.6,1374.9,785.8,1374.9,785.8"/>
	<path class="st1" d="M1100.1,1220.9l15.8-11.3l27.2,55.6l34.9-50.8l26.9-58.9l2.1-2.1c0.5,0.7,0.9,1.6,0.9,2.9
		c0,26.5-57.2,120.4-60.8,126.1c-1.1,1.9-0.6,6.6-3.7,11.2c-3.8,2.3-8.1,4.5-11.7,6.4c-2.5,6.3-2.5,14.8-5.3,24.3
		c-5.6-2.8-12.4-9.7-12.4-14.1c0-5.4,4.9-8.7,4.9-13.1c0-6.6,3.8-18.6,3.8-24c0-5.5-4.4-9.9-4.4-15.3c0-5.5,6.6-9.8,6.6-15.3
		c0-5.5-10.8-12.6-14.4-20.7c-3.4,4.1-5.3,8.7-5.3,14.2c0,5.5,8.8,28.4,8.8,33.9c0,5.4-5,12.3-6.1,16.6c-3,10.7-4.9,23.7-4.9,35.1
		c-2.5,2.5-4.7,2.5-7.2,5c-2.6,0.1-4.7-2.1-7.8-2.5c0.3-5,0.6-9.4,0.9-13.4l1.8-1L1100.1,1220.9z"/>
	<path class="st1" d="M818.7,1146.2l22.4-17.5l7.8,43l30.4,6.1l28.5,30.1l27.2,51.2l11-51.2l20.7-10.9l15.9,25.5l23.6,15.8
		l27.2,66.6l42.7,12.6l5.1-2.7c-0.1,0.9-0.2,1.8-0.2,2.7c-7.1,2.6-13.3,6.8-20.1,12.6c-4.7,0.9-9.1-1.3-12.9-0.8
		c-4.4,3.6-4,7.4-5,12.3c-19.6,8.2-38.3,9.9-38.3,9.1c0-27.8,15.3-11.4,15.3-39.3c0-10.9-3.8-17.8-15-17.8
		c-0.3-13.9-4.6-28.8-10.4-43.4c-1.2,1.9-0.9,4.4-0.9,9.8c0,5.5,6.6,31.7,6.6,37.2c0,8.7-4.1,12-8.8,12c-5.5,0-12.6-4.5-18.3-8.8
		c-1.5,3.8-1.4,9.8-1.5,14.7c-2.4,2.6-1,2.8-6.5,2.8c-9.3,0-10.9-14.2-10.9-14.2c0-5.8,4.9-15.9,13.3-18c-2.3-7.9-2.3-62.6-4.4-71
		l-3.9-3.9c-1.7,0.1-3.1,2-5.1,3.8c0.1,41.1,2.2,48-0.3,55.1c-2.8,0.2-2.8,0.2-8.3,0.2c-10.4,0-2,11.5-7.5,19.7
		c-12.9-11.8-13.4-29.8-20.4-43.8c-1.6,0.2-5.5,4.4-10.1,6.6h-9.6c-2.6-4.9-4.8-9.7-4.8-15.2c0-5.4,8.7-14.2,8.7-19.6
		c0-5.5-6.2-15.6-11.8-21.9c-4.4,14-16.1,38.2-12.5,54.2h-12.4c1.7-7.5,1.2-13.7-0.5-42.1c-0.3-6.9-4.2-14.9-7.8-23
		c-3.4,4-5.4,10.3-8,15.1c-2.8,0.1-9.3-5-9.9-9.5c-1.6-13.2,1.7-28.4-0.2-43c-1.5,0.3-1.5-1.9-6.9-1.9c-13.4,0-22.3,35.5-24.6,39
		h-2.2l0.9-1.8L818.7,1146.2z"/>
	<polygon class="st1" points="1223.9,446.6 1226.7,451.1 1214.7,442.6 1244.1,422.1 1240.7,425.3 	"/>
	<path class="st1" d="M760.3,680.1c-4.7-2.9-10.2-10.7-14.7-15.1c-0.5-0.5-0.9-0.9-1.3-1.3c-4-3.5-10.2-8-15.8-11.4
		c-1.4-0.8-2.8-1.6-4.1-2.3c0,0-0.1,0-0.1-0.1c-2.3-1.2-4.4-2-6-2.3c-0.4-0.1-0.8-0.1-1.1-0.1h-26.5c-0.5,0.9-1.2,1.7-1.8,2.6
		c-9.3,13-24,25.7-33.8,25.7c-0.7,0-3.1,0.4-5.2-0.5l2.1-1l12.6-14.2l9.4-35c0,0,82.9,26.8,86.1,50.8c0.2,1.7,0.7,3.7,1.2,5.8
		c-0.1,0-0.1-0.1-0.1-0.1C760.9,681.3,760.7,680.7,760.3,680.1"/>
	<path class="st1" d="M400.6,470.3c0.4-1.2,0.9-2.4,1.6-3.6h1l-2.4,3L400.6,470.3z"/>
	<path class="st1" d="M1154.1,325.1l-66.7-33.4l-90.7-30l-4.7-1.7c0-0.2-0.1-0.4-0.2-0.7c37.6,4.8,85.3,21,121.4,35.1
		c11.2,4.4,23.4,14.2,34.9,18.3c6,2.2,13.8,0.9,19.7,3.6c17.1,7.7,34.7,15.8,53.5,24.5l-21.3-1.5L1154.1,325.1z"/>
	<path class="st1" d="M1395.7,338.8l29.4,47.6l-0.7,85.9l-25.7,75.5l-37.4,25.7l-36-0.7l-2.4-2.7c0-0.2,0.1-0.4,0.1-0.6
		c2.3,0.2,5.4,0.9,7.9,0.9c36.4,0,73.3-49.4,79.5-81.3c4.7-23.5,9.5-66.4,9.5-71.8c0-29.2-9.9-73.2-49.1-73.2
		c-8.8,0-16.5,0.8-25.3,8.1c0.1,1.7,4.2,3.1,8.9,8.1c-9.7,19.5-32.7,19.9-48.6,30c-6,3.8-10.2,11.1-15.1,16
		c-3.5,3.5-9.7,3.4-13.3,5.8c-3.5,2.4-3,12-8.7,16.1c-9.8,6.8-24.3,5.3-34.5,8.9c10.1,10.2,4.7,24.9,19.7,24.9
		c31.7,0,46.4-34.9,79.8-34.9c5.5,0,13.7,0.2,20.7,5.2c-5.1,9.5-15.3,4.2-24.7,8.3c-9.3,4.1-14.4,13.2-21.5,20.2
		c-3.5,3.5-9.1,2.9-12.4,7.3c-7.6,10.4-2.8,20.1-14.5,20.1c-3.8,0-7.6-1.4-11.8-2.6l-11.9-12.6l-30.7-21.9l-2.9-4.5l16.9-21.3
		l3.3-3.2l6.8-4.8l41.5-30.4c0,0,25.6-20.3,30.3-31.8l18.6-12L1395.7,338.8z"/>
	<path class="st1" d="M799.6,1184.6h5.7l0.9-1.8l12.6-36.5l22.4-17.5l7.8,43l30.4,6.1l28.4,30.1l27.2,51.2L946,1208l20.7-10.9
		l15.9,25.5l23.6,15.8l27.2,66.6l42.7,12.6l5.1-2.7c0.6-6.1,2.1-11.7,2.1-16.5c0-5.5-4.3-33.9-5.2-51.4
		c-0.8-21.5,0.2-53.4-10.3-75.1h-10.4c-6.4,9.1-13.4,43-13.4,49c0,5.4,4.4,18.5,4.4,24c0,6,2.2,21.4-7.2,27.4
		c-1.6-34.1,0.6-44.9,0.3-54.4c-27.5-2.2-8.9-30.3-27.4-35.2c-7.1,11.3-11.5,22.3-17.2,32.7c-1.3-1.9-2.1-4.4-3.5-4
		c1.9-17.2,6.7-35.9-5.1-44c-5,2.3-7.4,6.8-8.8,8.7c-1.4-1.9-2.2-4.4-3.6-4.1c0.3-15-8.4-20.5-8.4-30.9c0-5.5-0.3-2.5,1.3-4.4
		c3.7,2.1,8.5,4.4,14,4.4c13.4,0,21-33.4,23-39.3c9.4,15.3,4.7,50.2,29.8,45.6c-0.4,10.1-2.6,21.2,0,32.8h10.1
		c2.6-7.1,4.8-13.8,5.1-17.6c7.6-1.8,17.2-10.5,22.7-10.5c5.5,0,3.5,1.7,3.5,1.7c2,12.6-3.4,26.7,0.4,36.8
		c4.4,12,12.5,11.9,12.5,20.4c0,5.5-4.4,36-4.4,41.5c0,5.4,6.5,17.5,6.5,22.9c0,4.7-1.6,12.5-3.2,35.4l1.8-0.9l9.4-89l15.8-11.3
		l27.2,55.6l34.9-50.8l26.9-58.9l2.1-2.1c-1.6-2-5.2-1.4-7.1-1.4c-21.6,18.8-35.6,54.9-49.9,85.1c-3.4-8.1-9.1-14.9-13.7-25.6
		c-6.3-13.9-8.6-30.2-9.2-45.5c-1.4-37.1-2.2-39.2-2.2-44.7c0-5.5,2.2-20.5,3.6-30.6c1.1,1.9,0.8,3.5,0.8,3.5c0,6.3,0,13,0.6,17.6
		c1.8,2.4-2.7,4.7-2.7,4.7h12.3c12.4-12.9,1.8-37.1,19-37.8c3.4-8.4,5.6-17.2,8.1-25.6c3.5-1.9,8.1-2,11.7-5.2
		c3.4-5.6,5.8-17.8,13.3-27.8c0.9-4.6,0.6-10-1.3-11.4c4-3.6,12.1-4.8,14.3-8.1c6.6-10.1,15.2-20,17.6-28.7c1.6-6.3-1.3-15.3-0.2-21
		c1.2,5.8,3.4,12.4,6.1,19.5c7.4-2.1,9.1-3.2,9.1-3.2c3.2-6,7.7-14.2,7.7-19.6c0-5.5-4.4-5.5-4.4-10.9c0-7.1,14.4-46.8,16.2-49.2
		c3.6,8.2,8.3,17.2,18.4,23.9v-9.5c0.4-12.5-1.5-10.2,10.3-25.4c1.4,1.9,2.1,4.4,3.4,4v34.4c-0.2,5.5-6.7,31.4-6.7,36.9
		c0,5.5,2.5,7.3,5.4,9.8c7.2-4.6,14.2-11.5,15.6-15.3c1.3,1.9,2,4.4,3.5,4.2c4.5,15-2.7,31.3,15,36.9v43.2l7.3-2.3
		c0,0,14.2-50.8,14.2-79.6c0-5.1,0.8-10.7,2-16.5c0.2-2.3,0.4-4.5,0.4-6.6c0-22.4-3.5-47.4-9.1-72.5v0
		c-5.7-25.6-13.7-51.3-22.5-74.3c-1.4-2.2-6.7-4.9-9.6-4.6c-0.3,7.4-2.5,12.8-2.5,18.3c0,5.4,6.5,6.5,6.5,12c0,5.5-4.9,9.6-6,14
		c-0.8,4.1,2.7,8.9,1.7,32.9l-0.1,1.8c-0.7,7.6-4.7,8.1-7.5,8.1c-5.5,0-3.6,0.3-5.5-1.4V839c0-5.5,6.6-6.8,6.6-12.3
		c0-1.6-3.8-7.2-10.1-10.8c-9,12.8-8.8,25.5-10.1,37.7c-0.3,2.8-0.7,5.6-1.3,8.3h-14.2c-2.8-2.9-4.7-5.7-6-8.2c-1.5-3.1-2-5.9-2-8.3
		l-2.2-61.1c0-5.5-1.7-24.4,2.6-34.6c3.6-8.1,21.4-10.8,21.4-23.3c0-4.3-6.7-17.4-12-28.5h-0.1c-1.5-3.1-2.8-6.1-3.9-8.6
		c-3.9,1.2-6,3.2-7.1,8.6c-0.9,4.7-1.1,11.8-1.1,23c0,2.2-1.9,5.8-3.1,7.7c-4.6-9.9-6.8-20-9.9-30.6c-0.9-2.8-1.7-5.6-2.7-8.5
		c-5-0.2-11.4,2-15.6,1.2c-2-1.3-6.9-5.8-9.6-5.7c-3.7,5-6.7,9.2-9,12.9c-5,8.2-6.9,14.7-6.9,24.1c0,5.5,8.7,22.9,8.7,28.4
		c0,5.4-6.6,15.3-6.6,20.8c0,5.4,6.6,46.9,6.6,52.4c0,5.5-3.3,7.7-5.2,7.7c-7.4-4.3-5.7-15.9-5.7-21.9c0-5.5,2.2-16.3,1.8-25.9
		c-5.1-0.3-11.7-2.5-17.1-2.5c-5.5,0-4.1,2.5-6.6,5.2c2.2,9.3,4.3,23.2,4.3,28.7c0,11.8,1.8,19.3-8.1,33.9c-6.2-1-10.4,1.2-13.3,4.9
		c-6.9,8.9-7.1,26.7-10.9,34.4h-16.4l-3.9-3.8c0.1-3.9-0.2-9.1-2.2-10.1c10.3-0.1,15.4-11.6,15.4-20v-0.5v0
		c-0.2-5.4-4.4-11.7-4.4-17c0-5.4-0.3-5.8,1.1-7.6c1.4,1.9,3.3,3.3,3.5,6.3h7.8c4.7-4.4,7.2-6.3,7.2-11.8c0-5.5-6.6-24-6.6-29.5
		c0-5.5,9-25,10.1-35.9c2-15.6-2.8-31.8,8.7-42.7c3.7,2.1,6.4,4.4,11.8,4.4c5.5,0,6.2-0.3,8.8-3.1c-2.3-5.1-6.9-11.9-11.6-15.9
		c-3.1-0.2-6.5-1.4-9.7-2.9h-0.1c-6.2-2.7-12.2-6.5-15.8-6.5c-5.4,0-6.3,0.4-8,2.8c-0.4,1.3-1,2.5-1.6,3.7
		c-4.1,7.4-12.2,13.9-12.2,18.6c0,5.5,6.6,24,6.6,29.5c0,5.4-2.1,29.3-3.3,41.5c-1.1-7.9-5.5-18.5-7.1-27.5
		c-2.4-12.9,2-26.1,0.9-39.2c-0.8-8.2-9-17.3-10-22.9c-0.1-0.4-0.1-0.7-0.1-1c0-5.7,18.8-25.1,27.3-25.1c5.5,0,38.3,17.5,43.7,17.5
		c5.5,0,5.2-0.3,7.6-3.1c-14.3-29.9-45.9-21.2-45.9-52.6c0-5.5,1.2-3.3,1.2-3.3c6.1,8.3,20.1,30.6,30.5,30.6c5.5,0,5.4-2.6,5.4-2.6
		v-7.5c-11-15.6-21.1-33.5-29.3-48.2c-2.4-4.6-8.4-8.2-10.8-8.7c-6.3-1.4-12.5-2.4-16.6-5.9c3.8-1.4,10.6-1.6,15.3-6.8
		c-13.3-9.6-28.4-21.5-28.4-29.4c0-5.4,2.1-7.4,4.1-19.3c-3-0.4-3-2.6-8.5-2.6c-5.5,0-7.7,6.5-11.3,6.8l-1.9-7.4
		c5.9-1.7,12.9-4.1,16.4-8.1c10.1,14.8,18.9,30.1,28.4,41.4c5.2-4.7,9.5-6.8,12-9.4c0.1-4.8-6.5-7-6.5-12.4c0-5.5,4.4-2.2,4.4-7.6
		c0-5.5-19.5-41.5-29.3-59.5c-3.3-6-12.5-6.8-16.6-10.1c10.1-1.5,20.9,0.8,30-0.2c9.4-12.1,16.9-10,25.7-10
		c17.5,0,7.6,1.2,32.2,16.5c3.5,2.2,9.3,0.1,13.4,1.5c8.7,2.7,17.3,12,26.3,13.9c5.7,1.2,11.7,0.5,17.6-0.2l-21.5-33.8l-12-8.6
		l29.4-20.4l50.3-48.8l28.3-18.2c2.6-6.3-1.2-10-19.3-6.1c-6.4,1.4-12.4,2.3-18.1,2.8c-34.2,10.5-66.1,20.6-78.4,20.6
		c-17.7,0-34.8-20.4-42.8-33.2c16.3,4.8,41.8,13.5,47.2,13.5c1.1,0,7.9-0.7,14.1-10.1c-1.3-0.6-2.6-1.2-3.9-1.8l-21.3-1.5l-46-14.2
		l-66.7-33.3l-90.7-30.1l-4.7-1.7c1.9,7.3,3.9,13.4,4.7,19.5c17.4,7.7,34.8,12,49.5,20c-1.8,1.3-6.6,0.9-6.6,6.4
		c0,5.5,24.1,38.2,24.1,43.7c0,5.4-2.1,11.4,0.5,16.2c8.3-0.4,28-1.7,32.3,9.7c-8.4,6-23,16.7-28.5,16.7c-5.5,0-7.3-4.6-11.7-6
		c-8.5-2.7-17.4-5-23.7-9.9c-6.9-5.5-25.7-16.3-34.2-16.6c-0.3,7.3,1.9,16,2,22c-8.3,4-17.1,4-24.2,9.3c9.2,7.4,20,9.6,29.9,18
		c0.7,8.4,9.4,18.1,9.4,23.5c0,5.5-1.4,3.3-1.4,3.3c-5.7-4.2-13.3-4.7-16.6-7.2c-15-11.4-8.3-16.9-22.5-16.9
		c-5.4,0-18.2,4.6-26.7,11.7c2.1,10.9-14.5,30.9-17.5,41.5c-2.5,8.5-2.8,17.5-4.1,25.5c-11.5-15.5-18.9-24.1-28.2-24.1
		c-2.7,0-25.1,3.8-25.1,11c0,5.5,10.9,13.1,10.9,18.5c0,17.7-25.4,38.2-41.5,38.2c-4,0-26.1-10.5-39.8-16.1c0.4,0.5,0.9,1,1.3,1.6
		c15.8,18.3-10.4,27.3-10.4,27.3l-39.9,6l-0.6-39.3c0,0,7.1-14.7,17.5-15.3c4.2-0.2,7.5-0.2,11.1,1.2c1,0.1,1.7,0.2,1.7,0.2
		c-5.5-6.7-16.1-7-16.1-7c-11.5,4.4-29.7,13.1-35.2,13.1c-5.5,0-4.4-4.4-9.8-4.4c-31.7,0-36,58.4-66.7,64.1
		c-3,4.1-3.2,11.6-1.9,15.6c-4.5,8.9-20.5,9.9-26.5,9.9c-5.4,0-32.7-13.1-38.2-13.1c-5.5,0-28.5,4.9-32.7,12.4
		c26,12.7,54.5,11.5,76.5,26c-1.9,1.3-4.1,5.7-5.9,7.5h-34.3c-5.4,0-22.1-6.6-27.6-6.6c-5.5,0-16.7,2.2-23.8,4.8
		c-0.8,11-11.4,17-15.5,17c-5.4,0-2.5-10.6-5.5-13.1c-9.6,11.3-25.1,30.5-25.1,36c0,5.5,0.3,5.2,2.8,7.6c4.8,0.1,8.4-0.2,10.3,1.4
		c-5.3,10.8-14.4,11.6-22.8,20.6c-3.6-6.1-3.9-13-11-17.5c-9.1,5.4-15,3.7-22.5,7.4c-4.2,5.6-8.4,11.2-12.4,16.6
		c-7.8,10.6-15.1,21-20.8,31.9c2.5,2.8,2.6,5.2,2.6,5.2h9.9c7-9,13.7-26,19.2-26c5.5,0,3.3,5.3,3.3,5.3
		c-17.7,15.2-17.5,36.2-39.4,36.2c-5.5,0-4.7,0.3-6.6-1.4v-10.3c0-5.5,7.1-15.4,7.9-22c0.7-6-0.2-12.8,0.7-18.7
		c0.5-4.3,1.9-8.2,5.4-10.9c1,2.8,1.3,6.9,2.4,10.9c0.5,1.5,1,3,1.8,4.4c2.7-1.5,5-2.9,7.1-4.4c16.5-11.9,14.1-23.9,26.6-34.5
		c5.8-2.4,22.4,3.4,22.4-10.2c0-5.5-4.3-6.6-4.6-8.2c3.9-1.8,11-0.9,14.9-2.6c12.5-6,7.3-19,15.5-24.9c7.6-5.5,39.8-1.4,39.8-20
		c0-5.5-2.2-5.5-2.5-8.4c-11.7-0.3-20.1,1.9-26,0.2v-5.7c8.6-12.8,17.3-25.7,27.3-36.4c4.7,8.2,3.1,17.5,14.4,17.5
		c5.4,0,27.3-17.4,32.8-17.4c5.5,0,12,6.5,17.4,6.5c5.5,0,11.5-6.6,19.1-10.4c5.7-2.8,14.2-2.4,17.8-6c7.1-7.1,17.8-21.8,17.8-27.3
		c0-5.4-6.6-21-9.3-30.4c-16.7,3.7-14.3,18-17.6,22c-3.3,4.1-12.5,10.6-12.5,16c0,5.5,2.7,5.3,2.7,5.3c4.9,0.2,8.5-0.2,10.5,1.7
		c-0.1,1.8-4.1,5.3-6,7.3h-38.7c-5.5-0.1-16.1,6.6-22.6,11c1.6-5.5,5.8-9.5,8.1-14.6c-2.5-2.8-9.1-2.8-10.9-4.3
		c8.5-10.2,17.5-25,17.5-30.5c0-5.4-2.2-8.6-1.7-10.5c3.3-8.5,8.3-18.9,8.3-24.4c0-5.5-3.2-5.5-3.2-5.5
		c-11.9,13.5-25.4,27.6-33.3,42.1c-5.2,9.8-6.8,22-14.4,32.6c-3,4.4-7,8.2-8.5,8.6c0.3-7.9,0.5-14.6,3-20.6
		c4.1-9.6,16.1-19.1,20.4-28.3c6.9-13.9,8.2-34.7,24.3-42.7c5.8-2.7,14.6-4.1,17.1-7.4c4.1-5.4,9.7-17,9.7-22.5c0-5.5-2.5-5.2-5-7.6
		h-7.5c-4.7,4.6-6.6,8.7-10.3,10.9c-1.6-1.9-1.3-3.3-1.3-3.3c4.2-6,8.7-16.4,8.7-21.9c0-5.5-0.3-5.1-2.9-7.6
		c-8.2,1.3-29.8,10-33.6,22.5c-1.9,6.6-1.9,13.5-7.6,19.2c-4.9,4.9-14.8,9.5-14.8,15c0,5.5,6.6,4.4,6.6,9.8c0,6-15.7,25.5-20.2,27.5
		c0.5-5.7,0.5-9.8,2.4-19.4c-3-0.4-5.4-2.6-5.4-2.6c-2.8,2.4-3.1,4.3-8.5,4.3c-5.4,0-3.3-1.4-3.3-1.4c4.3-7.9,12.3-16.5,14.5-23.4
		c1.9-6.3-1.5-13.3,1.2-17.1c3.3-4.4,12.7-10.8,12.6-16.2v-9.2c-3.1-0.3-5.3-2.5-7.8-2.5c-18.6,13.5-44.4,63.8-44.4,70.9
		c0,5.5,4.4,11.2,6.6,19.4c-1.9,1.7-1.1,3.6-6.6,3.6c-21.3,0-6.6-24-29.5-24c-5.5,0-24.4,6.6-35.2,9.5c-0.1,0.3-0.3,0.5-0.4,0.7
		c0.2,0,0.4,0,0.4,0l35.5,0.7l30.1,20.3l24-6.1l3.3,26.8c0,0-25.3,24.2-40.6,36.7c-0.6,0.8-1.3,1.6-2.1,2.3c-0.3,0-0.6,0.1-0.9,0.1
		c-2.2,1.7-4.1,3.1-5.6,3.9c-11,6.5-35.2,60.2-48,53.2c-2.5-1.4-10.2-36.9-11.8-45c-1.6-8.1-15.3-37.1-15.3-37.1
		s14.1-39.6,19.2-47.6c0.2-0.3,0.4-0.5,0.5-0.8c1.4-4.4,2.8-8.9,4.2-13.2h-7l-2.3,3l-0.3,0.5c-1.2,3.4-1.7,6.8-3.9,9.6
		c-0.5,0.6-1,1.1-1.5,1.7l-8.6,18.2l-3.3,76.4l2.2,50.8c0.7-1.2,1.5-2.3,2.1-3.3c0.2,6.8-0.5,11.9-1.5,15.8l1.2,27.1
		c2.1-1.5,4.6-2.7,7.6-3.2c-2.5,4.1-5,8-7.2,11.8l0.5,12l-4.9,31.7l17.5,44.7l47.6-8.1l22.3-23.6l4.1,2.6c0.1-0.1,0.2-0.1,0.3-0.2
		c4.6-3.1,7.9-9.5,12.3-13.8c6.6-0.2,11.9-4.8,16.3-10.6c5.7-7.5,10.1-17.1,14.4-21.9c1.1-1.2,3-2.2,5-3.1c3.3-1.6,7.1-3.1,8.8-6
		c2.3-3.7,4.7-15.6,10.6-22.2c1-1.1,2.1-2,3.2-2.8c1.2-0.7,2.4-1.3,3.9-1.5c0,0,0.4,5.2,0.3,9.1c1.9,1.9,0.1,1.5,5.6,1.5
		c5.5,0,12.5-8.6,21.6-13.9c0.8,0.1,1.7,0.1,2.6,0.1c13.4-0.1,31.9-5.8,37-5.8c5.5,0,13.1,4.3,18.6,4.3c5.5,0,11.5-2,17.2-4.2V655
		c0.3,5.4-6.3,7.9-6.3,13.4c0,4.4,1.6,6.3,3.5,7.1l2.2-1l12.6-14.2l9.4-35c0,0,82.9,26.8,86.1,50.8c0.2,1.7,0.7,3.7,1.2,5.8
		c0.7,0.4,1.5,0.6,2.1,0.6h73.8c5.4,0,9-6.5,14.5-6.5c5.4,0,25.2,13.1,30.6,13.1c5.5,0,10.9-1.1,10.9-6.6c0-8.7-6.3-17.5-15.1-20.1
		c-0.3-5.6,1.5-8.5-4.5-14.2c7.9,1.6,15.2,3.7,20.7,3.7c5.5,0,5.8-1.9,9.9-5.7c-2.2-6-10.9-12.4-15.3-22c6.4-2.5,21.8,1.5,21.8-10.5
		c0-5.5-1.8-3.6-4.4-6.6l6.6-6.8c-2.1-3.6-6.3-7.7-10.9-13c8.6-7.3,26.7-7.6,34.9-19.6c-3.7-7.1-9.8-9.4-15.1-12.5
		c-0.2-2.8,2.4-5.7,4.2-7.3c-4.8-8.1-10.1-7.5-13.1-7.5c-5.4,0-16.2,2.2-30.6,3.6c18.2-7.9,52.4-16.7,57.9-16.7
		c5.5,0,18.2,6.8,26.4,13.7c0.9,6.9,3.1,14.7,3.1,20.2c0,5.5-6.6,6.6-6.6,12c0,5.4,4.3,1.1,4.3,6.5c0,5.5-15.2,15.3-15.2,20.7
		c0,5.5,4.3,4.4,4.3,9.9c0,5.4-4.6,6.1-6.1,8c-0.5,4.1,0.3,10,1.7,16.8c0.8,4.4-4.4,7.9-4.4,13.3c0,5.5,4.1,5.8,6.6,8.9
		c-4.9,3-9.3,5.2-13.2,6.7c2.1,3.5,6.3,7.6,8.8,10.7c-5,3-11.2,4.9-16.7,10.9c-6.1,0.9-15,0.9-23,0.6c0.3,1.4-1.9,0.3-1.9,5.8
		c0,6.6,22.5,17.5,26.2,19.8c-5.4,0.9-11.5-1.4-15.7,0.7c-2.1,2.1-1.7,0.2-1.7,5.7c0,13.1,23.2,16.4,30.6,16.4
		c5.5,0,35.7-10.8,52.6-17v-5.6c-4.2-3.9-11.1-5.8-11.1-11.3c0-5.5,2.5-5.1,4.3-6.5c-1.8-1.4-3.7-5.6-8.7-8.7
		c9.1-5.6,18.5,0.2,25.6-11.5c1.3-2.5,3.2-9,7.2-12.7c-3.7-6.7-14.4-10.8-17.4-12.3v-7.4c-0.1-5.5,8.6-7.4,8.6-12.8
		c0-5.4-4.1-7.9-8.7-13.1c4.7-5.1,15.3-8.7,15.3-14.2c0-5.5-4.4-5.5-4.3-8.1c2.4-2.5,7.2-8.3,11.8-8.8c8.7-1.4,22-5,27.4-5
		s12,4.4,19.2,4.6c2.6,7.1,4.8,16.2,4.8,21.7c0,8.2-12.6,22.2-6.6,29.6c-9.5,6.5-17.5,4.5-17.5,14.1c0,5.5,6.4,34.7,13.5,48.6
		c5.5,10.9,23.8,15.6,36.6,21.7c0.2,9.3-1.5,26.3,6.8,35.5c-2.5,2.9-2.2,4.3-2.5,7.3c-3,0.3-3,2.5-8.4,2.5
		c-5.5,0-12.9-11.4-16.7-17.5c-7.4,4.5-7.4,8.7-7.4,10.9c0,5.5,4.4,11,4.4,16.4c0,5.4-2.2,6.6-3.1,11.9c-3.4-7.2-7.3-13.2-12.8-17.5
		c-1.5,10.1-10.3,29.6-10.3,35c0,5.5,4.4,9.8,4.4,15.3c0,16.1-32.8-1.1-32.9,23.2v9.2c-3.3,1.2-14.6,4.8-16.1,17.8
		c-5.6-11.6-5.1-25-6.5-35.9c-0.5-4.4-5.8-7.8-5.8-13.3c0-5.5,6.6-3.3,6.6-8.7c0-5.5-17.2-25.7-30.3-38c-8.2-7.3-26.1-3.8-34.7-4.7
		c-2.5-2.4-5-2.1-5-7.5c0-5.4,6.5-6.6,6.5-12c0-22.9-33.9-15.6-42.4-13.9c-16.1-6.9-22.9-10.1-31.9-10.1c-5.5,0-31.7,4.3-59.5,2
		c0,0-1.7-2-1.7,3.5c0,16.4,29.1,24.9,38.7,28.8c22.1,8.7,52.1,26.6,69.6,53.6c3.8,5.7,7.1,15.8,13.7,20.8
		c3.8,2.7,63.8,34.4,63.8,56.3c0,5.4-2.2,21.6-0.7,33.6l-11.3-6.4c-4.3,2.6-7.6,5.4-7.6,8.7c0,5.4,2.2,20.6,4.2,54.2
		c-9.4,2.3-12.9,29.1-12.9,34.5c0,5.5,0,47.8-1,70.7c-17-92.6-33.9-45.3-33.9-109.1c0-10.9-1.2-26.6,7.2-38.8
		c3.3-4.6,10.2-9.8,11.6-15c3-10.4,11.7-31.4,11.7-36.8c0-5.7-3.5-12-8.7-12c-19.9,0-16.7,39.3-44.8,39.3c-5.4,0-12.4-2.4-15.6-7.1
		c-13.9-19.3-10.7-56.9-43.7-68.9c-5.7-2.2-40-2.4-40-19c0-10.1,9.3-26.7,27.2-21.6c1.8-1.2,3.8-3.2,5.6-4.8
		c-6.4-10.2-17.9-20.3-28-29.1c-1.2-1.1-2.7-1.8-4.4-2.3c-0.2-0.1-0.4-0.2-0.6-0.2c-1.3-0.4-2.7-0.6-4.1-0.8c0.5,1,0.8,1.5,0.8,1.5
		l19.1,26.8l-41.1,52.5l45.2,25.3l21-10.8l-2.1,10.9c0.3-1.1,0.7-2.1,1.1-3.2c1.6-2-0.4-1.7,5-1.7c5.5,0,3.6-0.3,5.5,1.5
		c-0.1,6.1-1.4,13.3,0.5,19.5c2.2,6.9,5.9,12.8,5.9,18.3c0,5.5-2.2,38.4,0.3,56.6l9.9,0l8.1-8.5c3.6,8.1,5.7,18.5,5.7,24
		c0,24-17.5,28.9-17.5,38.2c0,5.5,6.5,4.4,6.5,9.9c0,5.4-15.3,31.6-15.3,37.1s11.3,10.7,16.8,14.8c0.7,6.1,2.9,15.8,2.9,21.3
		c0,5.5-10.9,25.1-16.3,25.1c-5.5,0-4.4-2.2-5.7-1.8c2.9-6.9-4.7-17.9-11.8-17.9c-8.2,0-44.8,68.8-44.8,77.5
		C797.2,1182.7,799.3,1181.6,799.6,1184.6 M495.6,570.1c0-5.5,11.2-16.1,19.1-22.8c-0.5,6.6-12.6,25.8-16,28.2
		C498.6,575.6,495.6,575.6,495.6,570.1 M454.6,645.3c7.5-20.5-0.5-43.1,27.5-58.5c-2,5.7-6.2,7.4-6.2,12.8c0,5.5,1.9,4.7,4.4,7.6
		C469.1,621.1,464.8,634.1,454.6,645.3 M428.1,656c1.9-9.8,4.3-18.9,12-28C441.8,634.4,440.1,654.2,428.1,656 M406.4,682.4
		c1.8-5.8,4.2-12.5,9.4-17.3C418.8,667.6,414.4,675.7,406.4,682.4 M847.4,565.5c-12.1,34.8-52.8,43.4-76.5,47.2l-96.2-17.5
		c-6.6,1.1-17.1,10.6-26.1,8.1c2.5-6.1,33.2-19,37-19c5.5,0,27.3,6.6,32.8,6.6c5.4,0,13.8-2.1,19.7-3.5
		c-13.3-11-39.4-17.6-39.4-33.7c0-5.4,6.7-17,11.6-23.8h7.8c6.3,27.9,28.2,34.7,47.3,34.7c5.5,0,17.2-4.3,27.2-5.9
		c-9.1,7.9-20.2,14.6-28.3,18.3c2.1,3.5,3.3,5.2,8.8,5.2c20.2,0,43.7-28.5,55.7-28.5C834.3,553.7,840.5,558.4,847.4,565.5
		 M945.7,511.2l-2.4,5.1c-2.2,2.2-7.4,0.4-10.1,0.2c-2.6-4.8-0.5-11.9,0.2-19.4C936.7,499.5,943.4,506.3,945.7,511.2 M991.1,525.2
		c-40.6-4.8-24.7-1.3-32.2-5.4c11.8-3.1,24.7-3.1,36.6-7.3C996,515.5,993.7,520.4,991.1,525.2 M1129.3,371.1
		c-11.2-35.1-53.6-40-56.4-72.7c9.8,4.3,21.6,7.6,29.5,11.4c5.2,2.4,5.8,9.5,9.1,12.8c5.2,5.2,15.1,7.5,19,13.3
		c30.1,44.7,64.4,65.1,97.2,65.1c5.5,0,26.9-4.4,39.4-7.4c-14,5.7-37.8,24.8-54.7,24.8c-5.5,0-24.1-8.8-29.5-8.8
		c-2.7,0-11.5-1.1-8,12.9c-5.6-2.1-7.3-4.1-12.8-4.1c-5.4,0-8.7,15.2-14.2,15.2c-5.4,0-26.4-4.4-42.3-6.9c-0.3-2.9-2.5-7.3-2-12.5
		c7.5,2,17,4.2,22.5,4.2c8.7,0,18.5-4.1,18.5-13.1c0-5.4-4.1-4.8-5.9-7.2c-0.6-4.7-0.6-9-1.3-12.9c-3.2-1.8-9.6-6.1-16.8-9.5
		C1123.8,374.7,1127.5,372.8,1129.3,371.1 M1037.6,542.1c5.3-8.9,7.9-18.9,16.3-18.9c5.5,0,18.6,13.1,18.6,18.6
		c0,6.5-18.5,19.3-23.7,20.4C1050.7,552.1,1043.7,544.9,1037.6,542.1 M1085.6,430.5c-3.3,1-4.4,5.3-9.8,5.3c-5.5,0-6.6-4.4-12-4.4
		c-5.5,0-13.1,4.4-13.1,9.8c0,5.5,1.9,3.6,4.4,6.6c-4.7,5.1-13.1,12-13.1,17.5c0,5.4,4.1,5.8,8.7,10.5v27.1
		c-2.4,2.5-6.8,4.7-9.4,7.1l-21.1-2.9c6-6.8,13.1-12.1,13.1-17.8c0-5.5-4.1-10.1-8.7-15.1c2.3-5.1,7.8-8.9,10.2-13.8
		c2-3.8-0.8-9.6,1.5-13.2c4.3-7.4,10.3-15.2,13.3-21.6c2-0.7,5.6-3,11.1-3C1065.9,422.7,1076,427.1,1085.6,430.5 M1089.9,499.8
		c-2.4,3.4-4.6,3.4-7.3,5.8l-10.1-3.4C1075.8,501.3,1077.9,499.2,1089.9,499.8 M1310.7,904.3c2.3-4.9,8.7-9.6,9.2-15v-36.3
		c3.9,22.8,3.9,47,0.7,72C1317.3,917.7,1315.3,911.4,1310.7,904.3 M1226.7,866c1,3.3,3.1,7.6,3,56.1c-2.4,2.5-5.4,7.2-8.3,6.9
		C1221.1,902.1,1223.3,875.6,1226.7,866 M1169.4,981.8c3.3,2.5,5.8,2.2,5.8,7.6c0,5.5-4.4,15.3-5.3,25.1
		C1166.5,1005,1166.4,993.5,1169.4,981.8 M1132.2,1043.5c1.7-2.4,6.1-6.7,7.3-8.7c0.7-4.1,2.9-8.3,2.9-13.8l-8.4-113.2h7.1
		c3.5,103.3,5.7,121.9,5.7,127.4c0,11.2-17.2,29.1-16.4,42.6C1129.3,1068,1129.3,1054.6,1132.2,1043.5 M1105.3,1190.3
		c0,0,1.1-7.7,4-7.3c0.3,3,2.5,5.1,2.2,16.8C1108.6,1200.1,1107.6,1195.2,1105.3,1190.3 M989.8,1030.1c23.2-0.3,28.3-29.2,28.9-43.9
		c4,6.6,3.1,22.3,11.1,28.3c20.4-21.5-3.3-50.5,10.5-76.3c4.9-0.2,11.5,2,15.4,2.1c8.9-10.1-1.2-23.7,11.7-30.6
		c2.8,7.2,7.2,15.9,8.7,21.8c8.9-5.4,9.5-17,9.5-23c0-2.2,3.2-1.1,4.9-0.9c1.8-3.9,1.8-27.9,5-32.9c3.1,7.3,7.4,15.7,11.4,22
		c1.7-0.2,2.7-2.4,8.2-2.4c5.5,0,7.1,6.7,12,9.6c-11.7,16.2-6.2,30.7-4.9,47.1c-7.7-4.4-16.8-9.1-20.3-15.1
		c-3.5,4.1-7.5,12-7.5,17.5c0,5.5,4.4,9.8,4.4,15.3c0,19.3-35.8,37.8-41.2,41.1c-2.6,6.2-4.7,14.6-5,21.9
		c-18.3,0.3-37.9,4.7-62.7,6.6V1030.1z M981,999.9c11.8-11.5,12.8-12.4,12.8-23.6c0-5.5-2.1-15-3.7-25c4.8,4.4,10.3,27.2,10.3,40.3
		c0,10.6-1.2,12.2-19.4,20.6V999.9z M918.9,1066.8c-5.8-6.9-16.9-17.3-16.9-22.8c0-5.4,2.2-2.2,2.6-5.2
		C917.3,1040.7,917.3,1059.7,918.9,1066.8 M896.1,1122.9c-2.5-8.1,2.4-19.8,0.8-28.5c-0.3-2.4-3.6-5.4-3.2-10.8v-14.4
		c10.4,13.6,21.5,34.9,21.5,40.3c0,5.5-6.6,9.8-6.6,15.3c0,8.7,13.1,49.1,26.2,49.1c5.4,0,10.9-6.6,10.9-12c0-5.4-6.6-16.4-6.6-21.8
		c0-5.5,2.2-4.4,3.2-7.6c5.5,16.1,7.8,33.5,11.9,49.8c-5.3,0.4-8.9,0.1-13,4.2l-3,53C921.8,1201.6,908.7,1162.8,896.1,1122.9
		 M887.8,1143.4c3.3,11.8,5.5,24.7,9.3,39.2C887.8,1173,885.4,1156.6,887.8,1143.4 M862.4,1141.5c0.3,7.3,6.1,14.6-1.2,21.4
		C860.5,1159.7,859.5,1141.2,862.4,1141.5"/>
	<path class="st1" d="M1361.3,853.5c-0.5-1.8-1.1-3.4-1.7-5l-4.4,4.4c-2.9-5-5.2-10.9-5.2-16.4c0-5.4,4.5-20,8.8-30.3l-3.8-3.6
		c-7.5,0.3-13.8,6.4-13.8,12.1c0,5.5,2.2,10.9,2.1,18.5l-3.6,2.1c-11-23.2-4.2-51.9-31.2-68.1v-7.4c-0.1-5.5,2.8-26.8,7.1-38.8
		c1.9-5.5,13.6-14.4,19-14.4c5.5,0,6.3,4.7,7.7,6.6c1.4-1.8,1.1-1.1,1.1-6.6c0-1.8-1-4.9-2.4-8.7v0c-2.9-7.7-7.6-18.5-10.5-27.9
		c3.1-0.4,7-0.3,12.1-2.6c5,7,7.3,16.1,9.1,26.4c1.5-0.2,2.2,2.2,3.5,4v0c0,0,0,0,0.1,0l0,0c4.4-6.3,5.5-26.5,5.5-32.7
		c0-5.4,0-11.8-0.8-18.4c-1.4-11.5-1.4-31.7-1.4-37.3c0-5.5-4.2-14.7-7.7-20.7c-9.2,11.3-25.4,14.7-16.3,32c0,0,0,3-5.4,3
		c-5.5,0-15.9-13.3-24.4-18.7c-0.7-1.7-3-4.3-3-9.7c0-9.8,9.9-22,18.1-25.6c0.5-0.2,1.3-0.3,2.1-0.2l0.6,0.7
		c-0.7,3.1-0.3,4.4-0.3,4.4l36.5,4.5l22.4,76.4l-6.5,130.4c0,0-7.7,59.8-7.7,74.4c0,2.2-0.6,5.1-1.5,8.5
		C1364.5,864,1362.9,858.5,1361.3,853.5L1361.3,853.5z"/>
	<path class="st1" d="M483.9,732.8c7.2,1.5,11.3,2,15,2.8c1.6,0.4,3.2,0.8,4.9,1.5c1.4-35.3,49.3-47.7,78.5-60.5
		c2.3-0.9,4.6-1.2,7.1-1.2c2.4,0,4.9,0.2,7.4,0.2c1.7,0,3.3,0,4.9-0.3c4.4-0.8,5.3-3.5,10.8-3.5c5.5,0,3.6-0.3,5.7,1.7
		c1.2,2.3,1,4.7,1.1,7.1c0.1,2,0.3,4,1.6,5.9c0.5,0.6,1.2,1.2,1.9,1.8l-1.2,0.6l-28.5-6.2l-52.5,31.7l-19.1,25.3l-25.3,8.1
		l-13.6-8.5c-0.9-1-1.7-1.9-2.5-2.9L483.9,732.8z"/>
	<path class="st1" d="M838.7,874c-0.3,2.7-0.6,5.4-1,8.1c-0.3,0.3-0.6,0.5-1,0.7c0.3-0.8,0.5-1.3,0.5-1.3L838.7,874z"/>
	<path class="st1" d="M1292.4,386.9l-41.5,30.4l-6.8,4.8l50.3-48.8l28.3-18.2C1318,366.7,1292.4,386.9,1292.4,386.9"/>
	<path class="st1" d="M1269.3,485.6c-1.9-0.5-3.8-1-5.8-1.2c-5.1-0.6-10.2-0.1-15.3,0.6l-21.5-33.8l30.7,21.8L1269.3,485.6z"/>
	<path class="st1" d="M1322.8,570.1l-0.6-0.7c0.2,0,0.5,0,0.7,0.1C1322.9,569.7,1322.9,569.9,1322.8,570.1"/>
	<path class="st1" d="M152.6,708.1c25.1-1.6,35.7-1.5,45.9-0.2c-6.1,3.2-12.1,5.2-16.5,6.4c15.3,1.1,39.4-3.3,44.8-3.3
		c18.6,0,80.1,23.7,88.9,32.2c5.1,28,13.8,81.4,13.8,86.8c0,7.8-4.6,15.7-11.3,23.6c-13,15.2-33.7,29.9-42.5,41.8
		c-10.1,13.6-16,32.4-22.1,49.1c5.5-4.8,54.4-87.2,81.4-87.2c5.5,0,9.9,3.3,9.9,8.7c0,5.4-37.1,39-37,44.5v7.7h7.9
		c13.4-13.2,26.5-26.3,36.7-34.8c1.5,1.9,3.7,6.2,5.5,7.8c-8.6,11.9-32.8,51.7-32.8,67.6c0,5.4,2.2,6.6,2.5,9.6h10.1
		c9.4-18.4,12.4-50.3,30.8-67.2c5.9-5.5,10.2-8.3,12.7-10.8c-0.5-0.9-0.8-1.7-1-2.5c-2.1-8.4-42.3-41.7-42.3-41.7L324,768l8.1-50.7
		l5.3-23.9l9.6-12.7l16.6,15.9l4.4,8.5c0.3,0.1,0.7,0.3,0.9,0.4c-0.2,0.1-0.3,0.3-0.5,0.5l3.6,7.1l17.6,112.4l32.1-13.7v26
		l13.8,52.2L392,903.2c6.6,6.9,14.7,13,19.8,16.9c0.7,8.3,3.3,18.8,8,26.2c12.3,19.7,39.2,31.1,56.1,31.1c5.5,0,6.2-0.3,8.7-3
		c-4.4-15.8-15.3-40.6-15.3-46.1c0-17.8,5.4-10.2,21.2-13c4.7-3.7,6.6-10.1,9.9-12.3c-0.5,5.6-2.6,11.7-4.9,16.8
		c9.2,7.2,19.1,12.6,21,19.7c4.4,16.6,9.5,45.6,9.5,51c0,5.5-1.6,20.6-3,29.3c-0.5,4.3-5.2,8-7.3,9.3c-1.4,0.5-3.1,2.1-4.1,3.8
		c-0.5,0.9-0.8,1.8-0.8,2.6c9.6,19.9,51,14.7,48.7,40.9c4.2,3.5,9.5,1.9,13,4.1c7.3,4.4,12.8,14.9,18.3,14.9h47.4
		c4,4.1,10.2,11,15.7,11c5.5,0,5.4-3,5.4-3c-7.5-10.7-15.3-37.6-15.3-41.7c0-5.4,3.3-7.6,5-7.8c8.1,9.6,27,19.8,35.4,19.8
		c5.5,0,9.5-2.5,12-5c0.1-7-2.2-13.2-0.3-19.2c11.7-0.3,52.9-3.9,52.9-32.5c0-5.5-2.2-7.4-1.8-9.4c5.8-6.3,13-8.6,16-12.9
		c12-17.2,22.5-36.8,30.7-54.8c2.8-6.1-1-16.2,3.4-21.6c6.6-7.9,11.7-16,19-23.4c4.7-4.7,11.9-6.5,17.7-10l2.1-9.9l-15-8.4
		l-45.2-25.3l41.1-52.5L798,761.9c0,0-0.3-0.5-0.8-1.5c-0.5-0.1-1-0.1-1.5-0.2c-0.7-0.1-1.5-0.2-2.2-0.2c-0.3,0-0.7-0.1-1-0.1
		c-0.8-0.1-1.5-0.2-2.2-0.3c-0.2,0-0.5-0.1-0.8-0.1c-0.6-0.1-1.3-0.2-1.9-0.4c-0.2-0.1-0.5-0.1-0.7-0.2c-0.8-0.2-1.5-0.4-2.2-0.8
		c-1.9-1-3.6-2.2-5.3-3.5c-4.9-4-8.7-8.7-12.8-8.7c-4.1,0-4.7,1-5.5,2.3c-0.3,0.5-0.6,0.9-1.1,1.4v6.1c0.2,0.6,0.4,1.1,0.7,1.6
		c4.1,7.4,18.7,7.5,27.1,11.1c6.6,2.7,15.5,10.5,22.5,16.2c-12.2-1.5-30.5-10.3-36-10.3c-14.5,0-15.2,14.2-24.3,30.5
		c-1.4-11.9-24-23.3-30.2-26.2l-3.5,3.5c7,10.1,0.3,30.3,21.6,31.8v7.8v0c-3.8,2.9-7.4,6.4-11,9.9c-5,4.9-9.9,9.9-15.5,13.6
		c-1.5,1.1-3.1,2.1-4.8,3c-11.5,6.9-25.1,12.1-36.4,21.4v7.7c1.5,0.4,3.1,0.6,4.9,0.6c5.3,0.1,11.7-1.2,18.6-1.1
		c2.5,2.4,2.9,1,2.9,6.5c0,18.1-30.2,22.6-45.5,23.7c-0.9,0.1-1.7,0.1-2.5,0.2h0c-2.6,0.1-4.6,0.2-5.5,0.2
		c-31,0-116-17.8-164.6-28.9c-19-4.4-32.5-7.7-35.1-8.6v-7.9c3.4-1.4,6.8-3,10.1-4.9c32-18.2,58.5-58.9,52.2-88.1
		c-0.7-3.5-0.4-7.2,0.1-11.1c0.4-3.2,1-6.5,1.3-9.8v0v0c3.8,2.2,8.1,5,12.1,7.1c3.9,2.1,7.5,3.7,10.3,3.7c5.4,0,5.6-1.6,6.8-3.5
		c-2.2-13.6,5.4-34.6,18.9-46.5c4.5-4,9.7-7,15.5-8.3c16.9-3.9,37.2-4.9,56.2-8.9c-0.1-1-2-2-3.7-3.2c-0.1-0.1-0.3-0.2-0.5-0.3
		l-1.2,0.5l-28.5-6.2l-52.5,31.7l-19.1,25.3l-25.3,8.1l-13.6-8.5c0.4,0.5,0.9,1,1.4,1.4c3.9,4,8.5,8.1,9.2,11.9
		c0.1,0.3,0.1,0.7,0.1,1c0,13-25.8,23.1-46.7,28.8c-1.4,0.4-2.7,0.7-4,1c-1.1,0.3-2.1,0.5-3.1,0.8c-8.9,2.1-16.1,3.3-18.3,3.3
		c-8.4,0-14.6-1.9-21.7-15H433c15.6-0.3,41.9-19.5,34.9-36.5c1.1,0.2,2.2,0.1,3.2-0.1c1-0.2,1.9-0.5,2.8-1c0.3-0.2,0.6-0.4,1-0.6
		l-4.1-2.6l-22.3,23.6l-47.6,8.1l-17.5-44.7l4.9-31.7l-0.5-12c-5.5,9.6-8.8,18.6-3.7,28.7h-15c6.4-14,8.9-30.3,18.4-37.3l-1.2-27.1
		C382,654.3,371,651.4,371,652c0-4.8,8.7-16,14.5-25l-2.2-50.8l3.2-76.4l8.6-18.2c-5.2,5.9-12.5,11.7-14.8,16.5
		c-6,12-13.8,33.8-13.8,39.2c0,5.4-2.2,19.6-2.2,25.1c0,5.5,4.4,32.8,4.4,38.2c0,15.6-5.1,47.1-22.9,55.7
		c-11.8-8.6-44.4-35-57.2-34.6h-7.3c14.6,12.3,61.1,35.1,61.1,49.9c0,5.5-10.9,15.3-16.4,15.3c-5.4,0-27.7-21.6-41.6-32.8
		c-2.9,2.5-3.2,5.2-3.2,5.2c0,2.4,4.4,3.5,4.4,9c0,5.4-1.9,3.6-1.9,3.6c-4.1,2-8,1.8-13.5,1.8c-5.5,0-60.1-6.5-65.5-6.5
		c-5.5,0-40.6,6.5-61.2,12.2c23-1.3,50.2-3.4,55.7-3.4c28.9,0,73.5,7,95,16.4c-7.3,4.4-15.1-2.6-22.9,5.3h0
		c-1.1,1.1-2.1,2.5-3.2,4.1h37.8c6.3,0.3,12.3,6.1,12.3,14.5c0,5.5-1.6,12.1-5.5,14.2c-19.2-8.7-38.8-15.2-57.8-23
		c3.7-1.2,6.5-4.3,6.4-6.9c-2.4-2.5-4.3-2.9-9.7-2.9c-5.4,0-20.8,4.4-26.2,4.4c-5.5,0-35-4.4-40.4-4.4
		C176.5,697.9,163.5,696.8,152.6,708.1 M624.3,925.5c-13.4,26.5-14,38.2-13.4,58.3c-17.4-5.9-30.7-38.7-33.1-57.3
		c-8.6-12-23.2-0.5-29.6-16.4C570.8,916.3,601.8,925.5,624.3,925.5 M436.6,827.8c0-5.5,2.3-9.2,5.5-14.2
		c3.1,7.3,11.6,15.6,18.4,23.6h-16.8C441.3,835.1,436.6,833.2,436.6,827.8 M441.8,916.4c5.5-0.2,7.2,4.3,9,5.1
		c3.2,10.9,5.3,23.8,11.7,38.1c-6.4-1.6-36.9-21.2-36.7-31v-12.1H441.8z"/>
	<path class="st1" d="M840.1,866.5c-0.7,2.5-1.2,5-1.5,7.5l-1.5,7.5c0,0-0.2,0.5-0.5,1.3c-0.8,0.6-1.7,1.2-2.6,1.8l2.1-9.9l-15-8.4
		l21-10.8L840.1,866.5z"/>
	<path class="st1" d="M337.9,846.2L324,768l8.1-50.7l5.3-23.9l9.6-12.7l16.5,15.9l4.4,8.5c-2.1-0.9-5.3-0.8-9.3-1.6
		c-1.5-0.9-3.1-3.1-4.7-5.7c-1-1.5-2-3.2-3.1-4.8c0,0-1.3-2-2.6-3.9c-1.8,3.2-2.6,6.2-2.8,8.7c-0.5,5.6,1.6,9.4,1.6,11
		c0,5.5-8.5,9.6-10.4,16.7c-2.2,8.2-2.7,19.3-2.7,24.8c0,5.4,2.7,21,4.9,29.2c1.9,7.1,12.6,14.5,12.6,20c0,5.4-4.4,7.6-4.4,13.1
		c0,5.4,6.1,7.9,12.1,12.5c2.5,8.9-1.2,19.7-0.3,28.5v0c0.2,2.3,0.7,4.5,1.8,6.5c12,23.5,23.6,4.1,23.6,24.5c0,2.4-1,4-2.9,5.9
		c-0.5-0.9-0.8-1.7-1-2.5C378.1,879.6,337.9,846.2,337.9,846.2"/>
	<path class="st1" d="M423.4,882.4c0-8-10.7-20.6-18.4-28.8c-4.1-4.3-7.3-7.5-7.8-8.2c5.1-10.5,9.1-7.5,15.5-13.7v-9.8
		c-19.7-1.2-12.7,15.7-22,15.7c-5.5,0-8.1-4.5-10-5.4c-13.5-16.2-8.7-35.8-17-51.9c-1.6-3.5-10.2-9.2-10.2-14.7
		c0-5.5,3.3-29.6,4.9-42.7c0.5-4.5,4-11.1,9.9-16.8l3.6,7.1l17.6,112.4l32.1-13.7v26l13.8,52.2L392,903.2c-0.4-0.4-0.9-0.9-1.3-1.4
		C396,898.9,423.4,896.3,423.4,882.4"/>
	<path class="st1" d="M760,522.1c0,6.5-0.3,12.1,12.1,18.6c12.9-4.9,9.2-15.1,9.9-23.4c2.4-2.5,5.4-2.8,10.8-2.8
		c1.5,0,5.4,1.4,10.4,3.5c0.4,0.5,0.9,1,1.3,1.6c15.8,18.3-10.4,27.3-10.4,27.3l-39.9,6l-0.6-39.3c0,0,7.1-14.7,17.5-15.3
		c4.2-0.2,7.4-0.2,11,1.3c-3-0.4-9.1-1.3-9.1-1.3C763.8,509.9,760,510.9,760,522.1"/>
	<path class="st1" d="M500,500.3c0,0,0.3-1.5-1-3.3c-3.6,6.1-7.3,13.1-10.9,19.1c-2.7,4.6-10.7,6.4-14,11
		c-4.6,6.6-11,17.9-21.1,17.9c-5.5,0-10.1,1.2-18.7-7.5c-12.8-17.8-8.6-25.2-8.6-30.7c0-8.4,8.7-16.4,13.2-16.4
		c5.4,0,12.8,11.2,18.7,17.4c3.7-2,7.8-4.1,11.9-8c-0.3-8.9-22.4-20.4-29.6-20.4c-5.5,0-12,10.9-17.5,10.9c-5.5,0-4.4-2.2-7.3-2.5
		c-0.3-2.9-2.5-1.8-2.5-7.4c0-4.8,3.4-6.5,4.8-8.2c0.2,0,0.4,0,0.4,0l35.5,0.7l30.1,20.3l24-6.1l3.2,26.8c0,0-25.3,24.2-40.6,36.7
		c2.6-3.4,3.9-8.3,4.5-14C491.6,527.7,494.8,514.9,500,500.3"/>
	<path class="st1" d="M429.8,569.4v7c0.2,5.4-8.6,13.8-11.5,20.6v2.7c11.1-12.1,14.4-21.5,28.6-30.3c0.6-1.9,0.6-6.1,1.3-8.6
		c6-4.4,12.7-6.8,18.7-7.6c-2.2,1.7-4.1,3.1-5.6,3.9c-11,6.5-35.2,60.2-48,53.2c-2.5-1.4-10.2-36.9-11.8-45
		c-1.6-8.1-15.3-37.1-15.3-37.1s14.1-39.6,19.2-47.6c0.2-0.3,0.4-0.5,0.6-0.7c-5.5,17.3-11,34.6-11,38.9
		C395.1,531.1,410.4,568.5,429.8,569.4"/>
	<path class="st4" d="M770.9,612.7l-96.2-17.5c-6.7,1.1-17.1,10.6-26.1,8.1c2.5-6.1,33.2-19,37-19c5.5,0,27.3,6.6,32.8,6.6
		c5.4,0,13.8-2.1,19.7-3.5c-13.3-11-39.4-17.6-39.4-33.7c0-5.4,6.7-17,11.6-23.8h7.8c6.3,27.9,28.2,34.7,47.3,34.7
		c5.5,0,17.2-4.3,27.2-5.9c-9.1,7.9-20.2,14.6-28.3,18.3c2.1,3.5,3.3,5.2,8.8,5.2c20.2,0,43.7-28.5,55.7-28.5
		c5.5,0,11.7,4.7,18.6,11.8C835.3,600.3,794.6,608.9,770.9,612.7"/>
	<path class="st4" d="M436.6,827.8c0-5.5,2.3-9.2,5.6-14.2c3.1,7.3,11.6,15.6,18.4,23.6h-16.7C441.3,835.1,436.6,833.2,436.6,827.8"
		/>
	<path class="st4" d="M610.9,983.7c-17.4-5.9-30.7-38.7-33.1-57.3c-8.6-12-23.2-0.5-29.6-16.4c22.5,6.2,53.5,15.5,76,15.4
		C611,952,610.3,963.7,610.9,983.7"/>
	<path class="st4" d="M450.8,921.5c3.2,10.9,5.3,23.7,11.7,38.1c-6.4-1.6-36.9-21.2-36.7-31v-12.1h16
		C447.2,916.2,449,920.7,450.8,921.5"/>
	<path class="st5" d="M1073,298.4c9.8,4.3,21.6,7.6,29.5,11.4c5.2,2.5,5.8,9.5,9.1,12.8c5.2,5.2,15.1,7.5,19,13.3
		c30.1,44.7,64.4,65.1,97.2,65.1c5.5,0,26.9-4.4,39.4-7.4c-14,5.7-37.7,24.8-54.7,24.8c-5.5,0-24.1-8.8-29.5-8.8
		c-2.7,0-11.5-1.1-8,12.9c-5.6-2.1-7.3-4.1-12.8-4.1c-5.4,0-8.7,15.2-14.2,15.2c-5.4,0-26.4-4.4-42.3-6.9c-0.3-2.9-2.5-7.3-2-12.5
		c7.5,2,17,4.2,22.5,4.2c8.7,0,18.5-4.1,18.5-13.1c0-5.4-4.1-4.8-5.9-7.2c-0.6-4.7-0.6-9-1.3-12.9c-3.2-1.8-9.6-6.1-16.8-9.5
		c3.3-0.9,6.9-2.8,8.8-4.5C1118.2,336,1075.8,331.1,1073,298.4"/>
	<path class="st5" d="M1063.8,431.5c-5.5,0-13.1,4.4-13.1,9.8c0,5.5,1.9,3.6,4.4,6.6c-4.7,5.1-13.1,12-13.1,17.5
		c0,5.4,4.1,5.8,8.7,10.5v27.1c-2.4,2.5-6.8,4.7-9.4,7.1l-21.1-2.9c6-6.8,13-12.1,13-17.8c0-5.5-4.1-10.1-8.7-15.1
		c2.3-5.1,7.8-8.9,10.2-13.8c1.9-3.8-0.8-9.6,1.5-13.2c4.3-7.4,10.3-15.2,13.3-21.6c2-0.7,5.7-3,11.1-3c5.5,0,15.6,4.4,25.1,7.8
		c-3.3,1-4.3,5.3-9.8,5.3C1070.3,435.8,1069.2,431.5,1063.8,431.5"/>
	<path class="st5" d="M933.1,516.5c-2.6-4.8-0.5-11.9,0.2-19.4c3.4,2.4,10.1,9.3,12.4,14.1l-2.4,5.1
		C941.1,518.5,935.9,516.6,933.1,516.5"/>
	<path class="st5" d="M1082.6,505.6l-10.1-3.4c3.3-0.9,5.5-3,17.4-2.4C1087.5,503.2,1085.3,503.2,1082.6,505.6"/>
	<path class="st5" d="M958.9,519.8c11.8-3.1,24.7-3.1,36.7-7.3c0.5,3.1-1.8,7.9-4.4,12.8C950.5,520.4,966.3,523.9,958.9,519.8"/>
	<path class="st5" d="M1053.9,523.2c5.5,0,18.6,13.1,18.6,18.6c0,6.5-18.5,19.3-23.7,20.4c1.9-10.1-5.1-17.2-11.2-20.1
		C1042.9,533.2,1045.5,523.2,1053.9,523.2"/>
	<path class="st0" d="M745.6,665c-0.4-0.5-0.9-0.9-1.4-1.3c-4-3.5-10.2-8-15.8-11.3c5.6,3.4,11.8,7.9,15.8,11.3
		C744.7,664.1,745.2,664.6,745.6,665"/>
	<path class="st0" d="M626.9,691.7c-0.2-1-2-2-3.7-3.2C625,689.8,626.8,690.8,626.9,691.7"/>
	<path class="st0" d="M724.2,650.1c0,0,0.1,0,0.1,0.1C724.3,650.1,724.2,650.1,724.2,650.1"/>
	<path class="st0" d="M473.9,734.9c-0.9,0.4-1.8,0.8-2.8,1C472.1,735.7,473,735.4,473.9,734.9"/>
	<path class="st0" d="M760.6,757.3c4.1,7.4,18.7,7.5,27.1,11.1C779.3,764.8,764.7,764.7,760.6,757.3"/>
	<path class="st0" d="M439.6,784.1c1-0.3,2-0.5,3.1-0.8C441.6,783.6,440.6,783.9,439.6,784.1"/>
	<path class="st0" d="M670.3,869.8c11.2-9.2,24.9-14.5,36.4-21.4C695.2,855.2,681.5,860.5,670.3,869.8"/>
	<path class="st0" d="M675.2,878.1c5.3,0.1,11.7-1.2,18.6-1.1C686.9,876.9,680.5,878.2,675.2,878.1"/>
	<path class="st0" d="M766.5,745.9L766.5,745.9c-4.1,0-4.7,1-5.5,2.3C761.9,747,762.4,745.9,766.5,745.9"/>
	<path class="st0" d="M761.3,681.9c0,0,0.1,0,0.1,0.1c0,0.1,0,0.2,0.1,0.3C761.4,682.1,761.3,682,761.3,681.9"/>
	<path class="st0" d="M505.7,769.1c-0.8-3.5-0.4-7.2,0.1-11.1C505.3,761.9,504.9,765.6,505.7,769.1"/>
	<path class="st0" d="M688.8,650.3c-9.3,13-24,25.7-33.8,25.7C664.8,676,679.5,663.3,688.8,650.3"/>
	<path class="st0" d="M493.3,752.5c-0.7-3.8-5.3-7.9-9.2-11.9C488,744.6,492.5,748.7,493.3,752.5"/>
	<path class="st0" d="M711.4,845.4c5.5-3.8,10.5-8.8,15.5-13.6C721.9,836.6,717,841.6,711.4,845.4"/>
	<path class="st0" d="M786.8,758.9c0.2,0.1,0.5,0.1,0.7,0.2C787.3,759,787.1,758.9,786.8,758.9"/>
	<path class="st0" d="M797.2,760.4c-0.5-0.1-1-0.1-1.5-0.2C796.2,760.2,796.7,760.3,797.2,760.4
		C797.2,760.4,797.2,760.4,797.2,760.4"/>
	<path class="st0" d="M493.4,753.5c0,13-25.8,23.1-46.6,28.8C467.6,776.6,493.4,766.5,493.4,753.5"/>
	<path class="st0" d="M648.6,907.3c0.8,0,1.6-0.1,2.5-0.2C650.2,907.2,649.4,907.3,648.6,907.3"/>
	<path class="st0" d="M507.1,748.2c3.9,2.2,8.1,5,12.1,7.1C515.2,753.2,511,750.4,507.1,748.2L507.1,748.2z"/>
	<path class="st0" d="M643.1,907.5L643.1,907.5c0.9,0,2.9,0,5.5-0.2C646,907.5,644,907.5,643.1,907.5"/>
	<path class="st0" d="M792.5,759.8c0.3,0,0.7,0.1,1,0.1C793.2,759.9,792.8,759.8,792.5,759.8"/>
	<path class="st0" d="M789.4,759.4c0.3,0,0.5,0.1,0.8,0.1C790,759.5,789.7,759.4,789.4,759.4"/>
	<path class="st0" d="M801.3,761.2c-1.3-0.4-2.6-0.6-4.1-0.8c0,0,0,0,0,0C798.6,760.5,800,760.8,801.3,761.2"/>
	<path class="st5" d="M803.1,761.7c-0.4-0.1-0.8-0.3-1.2-0.4c1.7,0.5,3.2,1.2,4.4,2.3c10.1,8.7,21.7,18.8,28,29.1
		c-1.8,1.5-3.8,3.6-5.6,4.8c-17.8-5.1-27.2,11.5-27.2,21.6c0,16.7,34.3,16.8,40,19c33.1,12,29.8,49.6,43.7,68.9
		c3.3,4.7,10.2,7.1,15.6,7.1c28.1,0,24.9-39.3,44.8-39.3c5.2,0,8.7,6.3,8.7,12c0,5.5-8.7,26.4-11.7,36.8c-1.4,5.2-8.3,10.3-11.6,15
		c-8.4,12.3-7.2,27.9-7.2,38.8c0,63.9,16.9,16.6,33.9,109.1c1-22.9,1.1-65.2,1-70.7c0-5.4,3.5-32.2,12.9-34.5
		c-2-33.5-4.2-48.7-4.2-54.2c0-3.3,3.3-6.2,7.6-8.7l11.3,6.4c-1.5-12,0.7-28.2,0.7-33.6c0-21.8-60-53.6-63.8-56.3
		c-6.6-4.9-9.9-15-13.7-20.8c-17.5-27-47.5-44.9-69.6-53.6c-9.6-3.8-38.7-12.4-38.7-28.8c0-5.4,1.6-3.5,1.6-3.5
		c27.8,2.3,54.1-2,59.5-2c9,0,15.8,3.1,31.9,10.1c8.5-1.7,42.4-9,42.4,13.9c0,5.4-6.5,6.6-6.5,12c0,5.5,2.5,5.2,5,7.5
		c8.5,1,26.5-2.6,34.7,4.7c13.1,12.3,30.3,32.5,30.3,38c0,5.4-6.6,3.3-6.6,8.7c0,5.4,5.2,8.8,5.8,13.2c1.4,10.9,0.9,24.3,6.5,35.9
		c1.5-13,12.8-16.7,16.1-17.8v-9.2c0.1-24.3,32.9-7.1,32.9-23.2c0-5.5-4.4-9.8-4.4-15.3c0-5.4,8.7-24.9,10.3-35
		c5.5,4.3,9.4,10.3,12.8,17.5c0.9-5.4,3.1-6.5,3.1-11.9c0-5.5-4.4-10.9-4.4-16.4c0-2.2,0-6.4,7.4-10.9c3.7,6.1,11.2,17.5,16.7,17.5
		c5.4,0,5.4-2.2,8.4-2.5c0.3-2.9,0-4.3,2.5-7.3c-8.3-9.2-6.6-26.2-6.8-35.5c-12.8-6.1-31.1-10.8-36.6-21.7
		c-7.1-14-13.5-43.2-13.5-48.6c0-9.6,8-7.5,17.5-14.1c-6-7.4,6.6-21.4,6.6-29.6c0-5.5-2.3-14.6-4.8-21.7c-7.2-0.2-13.8-4.6-19.2-4.6
		s-18.7,3.6-27.4,5c-4.7,0.5-9.4,6.3-11.8,8.8c0,2.6,4.3,2.6,4.3,8.1c0,5.4-10.6,9-15.3,14.2c4.7,5.2,8.7,7.7,8.7,13.1
		c0,5.4-8.7,7.3-8.6,12.8v7.4c3,1.5,13.7,5.6,17.4,12.3c-4.1,3.8-5.9,10.2-7.2,12.7c-7.1,11.8-16.5,5.9-25.6,11.5
		c5,3.1,6.9,7.3,8.7,8.7c-1.8,1.4-4.3,1.1-4.3,6.5c0,5.5,6.9,7.3,11.1,11.3v5.6c-16.9,6.1-47.1,17-52.6,17
		c-7.3,0-30.6-3.2-30.6-16.4c0-5.5-0.3-3.6,1.7-5.7c4.2-2.1,10.3,0.2,15.7-0.7c-3.7-2.3-26.2-13.3-26.2-19.8c0-5.5,2.2-4.4,1.9-5.8
		c8,0.3,16.9,0.3,23-0.6c5.4-6,11.7-7.9,16.7-10.9c-2.4-3.1-6.7-7.2-8.8-10.7c3.8-1.5,8.2-3.7,13.2-6.7c-2.5-3.1-6.6-3.4-6.6-8.9
		c0-5.4,5.2-8.9,4.4-13.3c-1.4-6.8-2.2-12.8-1.7-16.8c1.5-1.9,6.1-2.6,6.1-8c0-5.5-4.3-4.4-4.3-9.9c0-5.4,15.2-15.3,15.2-20.7
		c0-5.4-4.4-1.1-4.4-6.5c0-5.5,6.6-6.6,6.6-12c0-5.4-2.2-13.2-3.1-20.2c-8.2-6.9-20.9-13.7-26.4-13.7c-5.4,0-39.7,8.8-57.9,16.7
		c14.4-1.4,25.1-3.6,30.6-3.6c3,0,8.3-0.6,13.1,7.5c-1.9,1.5-4.4,4.5-4.2,7.3c5.4,3.1,11.5,5.4,15.1,12.5
		c-8.3,12-26.4,12.3-34.9,19.6c4.7,5.2,8.9,9.3,10.9,13l-6.6,6.8c2.6,3,4.4,1.1,4.4,6.6c0,12-15.3,8-21.8,10.5
		c4.4,9.6,13.1,16,15.3,22c-4.1,3.8-4.4,5.7-9.9,5.7c-5.5,0-12.8-2.1-20.7-3.7c6,5.7,4.2,8.7,4.5,14.2c8.8,2.6,15.1,11.3,15.1,20.1
		c0,5.4-5.5,6.6-10.9,6.6c-5.4,0-25.2-13.1-30.6-13.1c-5.5,0-9,6.5-14.5,6.5h-73.8c-0.7,0-1.4-0.2-2.1-0.6c0,0.1,0,0.2,0.1,0.3
		C773.5,704.7,778.9,735.8,803.1,761.7 M1052.8,674.9c0,5.5-4.3,6.6-4.7,11.8l-12.6-2.6c2.2-5.3,9-12.1,14.1-16.8
		C1052.5,669.8,1052.8,669.5,1052.8,674.9 M1049.5,745.9c-5.5,0-9.7-7.2-11.9-12.6c9.6-0.5,11.9,1.6,14.8,2c0.3,3,2.5,5.2,2.3,7.9
		C1054.8,743.2,1055,745.9,1049.5,745.9 M1024.6,752.9c9.8,1.8,19.1,8.6,25.9,15.6c0.1,2.6-2.5,7.8-5,10.2
		C1036.9,777.9,1026.9,759.7,1024.6,752.9 M1009.2,711.5c9.7-0.5,16.9,4,23.9,9c0,0,0,7.9-5.4,7.9
		C1022.2,728.4,1013.7,719.2,1009.2,711.5 M782.6,704.4l-5.1-5.5c2.5-2.9,4.8-7.3,7.2-9.1c4.6-0.6,10.2-2.8,15.7-2.8
		c5.5,0,9.1-0.5,35.1,2.2c19.4,2.2,49,2.2,68.7,20.9c-5,3-7.6,3.1-13.1,3.1c-5.4,0-15.6-4.3-21-4.3h-41c-5.5,0-21.1-8.7-26.5-8.7
		C797.2,700.1,791.9,702.2,782.6,704.4 M873.6,804.9l2.7-6.5h9.1c7.1-0.1,19.8,23.8,20.9,28.1H899
		C890,826.7,873.6,809.5,873.6,804.9 M838.8,801.1c3.2-0.6,2.1-2.8,7.5-2.8c5.5,0,24.8,22.1,38.3,35.9c0,0,0,7.7-5.5,7.7
		C873.6,842,852,817.6,838.8,801.1"/>
	<path class="st0" d="M589.4,675.3c2.4,0,4.9,0.2,7.4,0.2C594.3,675.5,591.8,675.3,589.4,675.3"/>
	<path class="st0" d="M619.3,680.5c-0.1-2.4,0-4.8-1.1-7.1C619.3,675.7,619.2,678.1,619.3,680.5"/>
	<path class="st0" d="M498.9,735.5c-3.7-0.8-7.8-1.3-15-2.8C491,734.3,495.2,734.7,498.9,735.5"/>
	<path class="st0" d="M635.4,647.6c5.5,0,11.5-2,17.2-4.2C647,645.6,640.9,647.6,635.4,647.6"/>
	<path class="st0" d="M577.2,649c-9,5.3-16.1,13.9-21.6,13.9C561.1,662.9,568.2,654.4,577.2,649"/>
	<path class="st0" d="M545.9,653.8c-1.2,0.7-2.3,1.7-3.2,2.8C543.7,655.4,544.7,654.5,545.9,653.8"/>
	<path class="st0" d="M523.2,684.8c3.3-1.6,7.1-3.1,8.8-6c2.3-3.7,4.8-15.6,10.6-22.2c-5.9,6.6-8.4,18.5-10.6,22.2
		C530.4,681.7,526.6,683.2,523.2,684.8"/>
	<path class="st0" d="M487.5,720.3c-4.4,4.3-7.7,10.7-12.3,13.8C479.8,731,483.1,724.6,487.5,720.3c6.6-0.2,11.9-4.8,16.3-10.6
		C499.4,715.6,494.1,720.2,487.5,720.3"/>
	<path class="st5" d="M514.7,547.3c-0.5,6.6-12.6,25.8-16,28.2c0,0-3,0-3-5.4C495.6,564.7,506.8,554,514.7,547.3"/>
	<path class="st5" d="M482.1,586.8c-2,5.7-6.2,7.4-6.2,12.8c0,5.5,1.9,4.7,4.4,7.6c-11.2,13.9-15.6,26.9-25.7,38.1
		C462.1,624.8,454.1,602.2,482.1,586.8"/>
	<path class="st5" d="M371,652c0-4.8,8.7-16,14.5-25l0.5,12.5C382,654.3,371,651.4,371,652"/>
	<path class="st5" d="M386.1,639.5l-0.5-12.5c0.7-1.1,1.5-2.3,2.1-3.3C387.8,630.4,387.2,635.5,386.1,639.5"/>
	<path class="st5" d="M428.1,656c1.9-9.8,4.3-18.9,12-28C441.7,634.4,440.1,654.2,428.1,656"/>
	<path class="st5" d="M384,703.9h-15c6.5-14,8.9-30.3,18.4-37.3l0.4,8.6C382.2,684.7,378.9,693.7,384,703.9"/>
	<path class="st5" d="M387.7,675.2l-0.4-8.6c2.1-1.6,4.6-2.7,7.5-3.2C392.4,667.5,389.9,671.4,387.7,675.2"/>
	<path class="st5" d="M415.8,665.1c3,2.5-1.4,10.6-9.4,17.3C408.3,676.6,410.6,669.8,415.8,665.1"/>
	<path class="st5" d="M1319.9,852.9c3.9,22.8,3.9,47,0.7,72c-3.3-7.3-5.4-13.6-9.9-20.7c2.3-4.9,8.7-9.6,9.2-15V852.9z"/>
	<path class="st5" d="M1229.7,922.1c-2.4,2.5-5.4,7.2-8.3,6.9c-0.3-27,1.9-53.5,5.3-63C1227.6,869.3,1229.8,873.7,1229.7,922.1"/>
	<path class="st5" d="M1018.7,986.2c4,6.6,3.1,22.3,11,28.3c20.4-21.5-3.3-50.5,10.5-76.3c4.9-0.2,11.5,2,15.4,2.1
		c8.9-10.1-1.2-23.7,11.7-30.6c2.8,7.2,7.2,16,8.7,21.8c8.9-5.4,9.4-17,9.4-23c0-2.2,3.2-1.1,4.9-0.9c1.8-3.9,1.8-27.9,5-32.9
		c3.1,7.3,7.4,15.7,11.4,22c1.7-0.2,2.8-2.4,8.2-2.4c5.5,0,7.1,6.7,12,9.6c-11.7,16.2-6.2,30.7-4.9,47.1
		c-7.7-4.4-16.8-9.1-20.3-15.1c-3.5,4.1-7.5,12-7.5,17.5c0,5.5,4.4,9.8,4.4,15.3c0,19.3-35.8,37.7-41.2,41.1
		c-2.6,6.2-4.7,14.6-5,21.9c-18.3,0.3-37.9,4.7-62.7,6.6v-8.2C1013,1029.8,1018.1,1000.9,1018.7,986.2"/>
	<path class="st5" d="M1139.5,1034.8c0.7-4.1,2.9-8.3,2.9-13.8l-8.4-113.2h7.1c3.5,103.3,5.7,121.9,5.7,127.4
		c0,11.2-17.2,29.1-16.4,42.6c-1.1-9.8-1-23.2,1.8-34.3C1133.9,1041.1,1138.2,1036.8,1139.5,1034.8"/>
	<path class="st5" d="M993.8,976.3c0-5.5-2.1-15-3.7-25c4.8,4.4,10.3,27.2,10.3,40.3c0,10.7-1.2,12.2-19.4,20.6v-12.3
		C992.8,988.3,993.8,987.5,993.8,976.3"/>
	<path class="st5" d="M1175.2,989.4c0,5.4-4.4,15.3-5.3,25.1c-3.4-9.6-3.4-21-0.4-32.8C1172.7,984.2,1175.2,983.9,1175.2,989.4"/>
	<path class="st5" d="M904.6,1038.8c12.6,2,12.6,20.9,14.3,28c-5.8-6.9-16.9-17.3-16.9-22.8C902,1038.5,904.2,1041.8,904.6,1038.8"
		/>
	<path class="st5" d="M896.9,1094.4c-0.3-2.4-3.5-5.4-3.2-10.8v-14.4c10.4,13.5,21.5,34.9,21.5,40.3c0,5.5-6.6,9.8-6.6,15.3
		c0,8.7,13.1,49.1,26.2,49.1c5.4,0,10.9-6.6,10.9-12c0-5.4-6.6-16.4-6.6-21.8c0-5.5,2.2-4.4,3.2-7.6c5.5,16.1,7.8,33.5,11.9,49.8
		c-5.2,0.4-8.9,0.1-13,4.2l-3,53c-16.5-37.8-29.6-76.6-42.2-116.5C893.6,1114.8,898.5,1103.2,896.9,1094.4"/>
	<path class="st5" d="M862.4,1141.5c0.3,7.3,6.1,14.6-1.2,21.4C860.5,1159.7,859.5,1141.2,862.4,1141.5"/>
	<path class="st5" d="M897.1,1182.5c-9.3-9.6-11.7-25.9-9.3-39.2C891.1,1155.1,893.3,1168.1,897.1,1182.5"/>
	<path class="st5" d="M1109.3,1183c0.3,3,2.5,5.1,2.2,16.8c-3,0.3-3.9-4.7-6.3-9.5C1105.3,1190.3,1106.3,1182.7,1109.3,1183"/>
	<path class="st4" d="M696.6,883.5c0,18.1-30.2,22.6-45.5,23.7C666.4,906.1,696.6,901.5,696.6,883.5"/>
	<path class="st4" d="M648.6,907.3L648.6,907.3L648.6,907.3z"/>
	<path class="st4" d="M507.1,748.2L507.1,748.2c-0.3,3.4-0.9,6.7-1.3,9.8C506.2,754.9,506.8,751.6,507.1,748.2"/>
	<path class="st4" d="M453.4,857.2c32-18.2,58.5-58.9,52.3-88.1C511.9,798.3,485.4,839,453.4,857.2"/>
	<path class="st4" d="M790.2,759.5c0.8,0.1,1.5,0.2,2.2,0.3C791.7,759.7,791,759.6,790.2,759.5"/>
	<path class="st4" d="M643.1,907.5c-31,0-116-17.8-164.6-28.9C527.1,889.7,612,907.5,643.1,907.5"/>
	<path class="st4" d="M787.6,759c0.6,0.1,1.2,0.3,1.9,0.4C788.8,759.3,788.2,759.2,787.6,759"/>
	<path class="st4" d="M810.2,784.6c-7-5.7-15.9-13.5-22.5-16.2C794.3,771.1,803.2,778.9,810.2,784.6"/>
	<path class="st4" d="M737.9,821.8c-3.8,2.9-7.4,6.4-11,9.9C730.5,828.2,734.1,824.7,737.9,821.8L737.9,821.8z"/>
	<path class="st4" d="M784.6,758.1c0.7,0.3,1.4,0.6,2.2,0.8C786.1,758.7,785.3,758.4,784.6,758.1"/>
	<path class="st4" d="M749.9,804.8c-1.4-11.9-24-23.3-30.2-26.2l-3.5,3.5l3.5-3.5C726,781.6,748.5,792.9,749.9,804.8"/>
	<path class="st4" d="M760.3,680.1c0.3,0.6,0.6,1.2,0.9,1.8c-4.8-2.6-11-12.1-15.6-16.9C750.1,669.4,755.6,677.2,760.3,680.1"/>
	<path class="st4" d="M536.3,755.5c-1.2,1.9-1.4,3.5-6.8,3.5c-2.7,0-6.3-1.6-10.3-3.7c3.9,2.1,7.5,3.7,10.3,3.7
		C534.9,759,535.1,757.4,536.3,755.5c-2.2-13.6,5.4-34.6,18.9-46.5C541.6,720.9,534.1,741.9,536.3,755.5"/>
	<path class="st4" d="M779.3,754.6c-4.9-4-8.7-8.7-12.8-8.7C770.6,745.9,774.5,750.6,779.3,754.6"/>
	<path class="st4" d="M623.2,688.5c-0.1-0.1-0.3-0.2-0.5-0.3h0C622.9,688.3,623.1,688.4,623.2,688.5"/>
	<path class="st4" d="M718.2,647.8c1.6,0.3,3.7,1.1,6,2.3C721.9,648.9,719.8,648.1,718.2,647.8"/>
	<path class="st4" d="M774.2,774.3c-14.5,0-15.2,14.2-24.3,30.5C759,788.5,759.7,774.3,774.2,774.3"/>
	<path class="st4" d="M670.3,877.5c1.5,0.4,3.1,0.6,4.9,0.6C673.4,878.1,671.8,877.9,670.3,877.5"/>
	<path class="st4" d="M482.7,739.2c0.4,0.5,0.9,1,1.4,1.4C483.6,740.2,483.1,739.7,482.7,739.2"/>
	<path class="st4" d="M724.3,650.1c1.3,0.7,2.7,1.5,4.1,2.3C727,651.6,725.7,650.8,724.3,650.1"/>
	<path class="st4" d="M793.5,759.9c0.7,0.1,1.5,0.1,2.2,0.2C795,760.1,794.2,760,793.5,759.9"/>
	<path class="st4" d="M421.3,787.4c2.2,0,9.4-1.2,18.3-3.3C430.7,786.3,423.5,787.4,421.3,787.4"/>
	<path class="st4" d="M442.7,783.3c1.3-0.3,2.6-0.7,4-1C445.3,782.7,444,783,442.7,783.3"/>
	<path class="st4" d="M620.9,686.5c-1.2-2-1.5-3.9-1.6-5.9C619.4,682.5,619.6,684.5,620.9,686.5c0.5,0.6,1.2,1.2,1.9,1.8h0
		C622,687.7,621.4,687.1,620.9,686.5"/>
	<path class="st4" d="M616.8,643.3c-5.1,0-23.6,5.8-37,5.8C593.2,649,611.7,643.3,616.8,643.3c5.5,0,13.1,4.3,18.6,4.3h0
		C630,647.6,622.3,643.3,616.8,643.3"/>
	<path class="st4" d="M480.2,736.3l3.6-3.5L480.2,736.3c0.7,1,1.6,1.9,2.5,2.9C481.8,738.2,480.9,737.3,480.2,736.3"/>
	<path class="st4" d="M596.8,675.5c1.7,0,3.3,0,4.9-0.3C600.1,675.5,598.4,675.5,596.8,675.5"/>
	<path class="st4" d="M589.4,675.3c-2.4,0-4.8,0.3-7,1.2C584.6,675.6,587,675.3,589.4,675.3"/>
	<path class="st4" d="M503.8,709.7c5.7-7.5,10.1-17.1,14.4-21.9c1.1-1.2,3-2.2,5-3.1c-2,0.9-3.8,1.9-5,3.1
		C513.9,692.6,509.6,702.2,503.8,709.7"/>
	<path class="st4" d="M801.3,761.2c0.2,0,0.4,0.1,0.6,0.2C801.7,761.3,801.5,761.2,801.3,761.2"/>
	<path class="st4" d="M503.8,737c-1.7-0.7-3.3-1.1-4.9-1.5C500.5,735.9,502.1,736.4,503.8,737"/>
	<path class="st4" d="M622.8,688.2c0.2,0.1,0.3,0.2,0.4,0.3c1.7,1.2,3.6,2.2,3.7,3.2c-19,4-39.3,5.1-56.2,8.9
		c-5.7,1.3-10.9,4.3-15.5,8.3c-13.6,11.9-21.2,32.9-18.9,46.5c-1.2,1.9-1.4,3.5-6.8,3.5c-2.7,0-6.3-1.6-10.3-3.7
		c-4-2.1-8.2-4.9-12.1-7.1c-0.3,3.4-0.9,6.7-1.3,9.8c-0.5,3.9-0.9,7.6-0.1,11.1c6.2,29.2-20.3,69.9-52.2,88.1
		c-3.3,1.9-6.7,3.5-10.1,4.9v7.9c2.5,0.9,16,4.2,35.1,8.6c48.7,11.2,133.6,28.9,164.6,28.9c0.9,0,2.9-0.1,5.5-0.2h0
		c0.8,0,1.6-0.1,2.5-0.2c15.3-1.1,45.5-5.6,45.5-23.7c0-5.4-0.3-4.1-2.9-6.5c-6.9-0.1-13.3,1.2-18.6,1.1c-1.7,0-3.4-0.2-4.9-0.6
		v-7.7c11.2-9.2,24.9-14.5,36.4-21.4c1.6-1,3.2-2,4.8-3c5.5-3.8,10.5-8.8,15.5-13.6c3.6-3.5,7.2-7,11-9.9V814
		c-21.3-1.4-14.7-21.7-21.6-31.8l3.5-3.5c6.2,2.9,28.8,14.3,30.2,26.2c9.1-16.4,9.8-30.5,24.3-30.5c5.4,0,23.8,8.7,36,10.3
		c-7-5.7-15.9-13.4-22.5-16.2c-8.4-3.6-23-3.7-27.1-11.1c-0.3-0.5-0.5-1-0.7-1.6v-6.1c0.5-0.5,0.8-0.9,1.1-1.4
		c0.8-1.3,1.4-2.3,5.5-2.3h0c4.1,0,7.9,4.7,12.8,8.6c1.6,1.3,3.4,2.6,5.3,3.5c0.7,0.3,1.4,0.6,2.2,0.8c0.2,0.1,0.5,0.1,0.7,0.2
		c0.6,0.1,1.2,0.3,1.9,0.4c0.3,0,0.5,0.1,0.8,0.1c0.8,0.1,1.5,0.2,2.2,0.3c0.3,0,0.7,0.1,1,0.1c0.7,0.1,1.5,0.1,2.2,0.2
		c0.5,0.1,1,0.1,1.5,0.2c-4.9-8.8-29.4-53.9-35.7-78.1c-0.1-0.1-0.1-0.3-0.2-0.4c-4.8-2.6-11-12.1-15.6-16.9
		c-0.5-0.5-0.9-0.9-1.4-1.3c-4-3.5-10.2-8-15.8-11.3c-1.4-0.8-2.8-1.6-4.1-2.3c0,0-0.1,0-0.1-0.1c-2.3-1.2-4.4-2-6-2.3
		c-0.4-0.1-0.8-0.1-1.1-0.1h-26.5c-0.5,0.9-1.2,1.7-1.8,2.6c-9.3,13-24,25.7-33.8,25.7c-0.7,0-3.1,0.4-5.2-0.5L622.8,688.2z
		 M681.5,820.8c2.3-2.5,4.8-7.1,9.4-9.2h14.2c0.3,3.1,2.5,4.2,2.5,9.6c0,5.4-4.7,7.4-7.2,9.6h-18.8V820.8z M681.3,767.7
		c0-7.6,13.8-16.4,17.5-18.5c-3.7-1.3-8.7-3.4-14.2-3.4c-5.4,0-8.7,4.3-13.5,4.3c-2.5-2.4-5-2.1-5-7.6c0-5.5,17.6-26.7,24.5-40.1h8
		c-1.7,13.8,10.3,10.6,13.3,10.6c5.5,0,17.5-4.4,23-4.4c5.5,0,7.1,0.1,11.7,2.5c0,0,0,2.2,2.4,4.7c0.1,2.6-4.6,5.5-7.2,8h-30.7
		c-5.4,0-10.7,6.5-14.5,8c2.1,3.5,3.3,5.1,8.8,5.1c5.4,0,15.3-4.4,20.8-4.4c5.4,0,6.5,2.2,9.6,2.5v7.8c-9.9,11.5-12.4,11.8-22.1,9.2
		c0.4,3.5-4,11.1-4,16.6c0,5.5,1.9,3.6,4.4,6.6c-2.5,2.9-2.2,3.3-7.6,3.3c-5.5,0-15.3-4.4-22.6-4.7
		C683.5,771,681.3,773.2,681.3,767.7 M663.9,796.1c-5.5,0-8.4-2.5-10.9-5.2c3.4-8.8,12.3-14.5,15.3-14.5c5.4,0,5.4,2.2,8.5,2.5v7.8
		C672.2,791.4,669.3,796.1,663.9,796.1 M635.6,884.1c2.3-2.5,6.7-4.7,9.2-7.1c2.6-0.1,5.6,0.2,7.9,2.8v10c-3.1,0.3-5.3,2.5-17.1,2.1
		V884.1z M635.6,848.3c2.5-12.3,5.1-16.1,13.8-19.4c13.3,0,13.3,2.2,16.3,2.5c0.4,5.1-8.7,17.2-14.1,16.9L635.6,848.3z M625.6,818
		c-5.5,0-9.2-2.3-14.1-4.9v-9.7c2.4-2.5,4.5-7.2,10-7.1H637c2.5,2.4,2.8,3.2,2.8,8.7C639.8,813.1,631.3,818,625.6,818 M593.9,857.3
		c0-5.4,2.5-6.3,5-8.7h16.2l5,5.3c-1.7,3.6-12.3,12.1-15.3,12.1c-5.4,0-8.2-2.4-8.2-2.4C594.2,861.3,593.9,862.7,593.9,857.3
		 M577.3,833.2c0,0-1.9-2.1-5-2.5c2-7.5,10.7-17,16.2-17c5.5,0,9.9,2.2,9.9,7.6C598.3,831.6,582.7,833.2,577.3,833.2 M554.6,855.8
		c2.4-2.5,5.4-5.1,10.9-5.1c5.5,0,10.8,5,13.1,9.8c-2.3,4.8-5.5,7.6-10.9,7.6c-5.5,0-7.6-2.2-10.6-2.5
		C556.8,862.7,554.6,858.4,554.6,855.8 M541.5,834.6l2.6-7.8h9.9c2.5,2.3,5,5.3,4.9,7.9c-2.4,2.6-7.5,5-10.2,5
		C546.1,837.3,544,837.3,541.5,834.6 M556.8,795c0,5.5-4.9,7.5-12.2,12c-2.8-2.5-3.1-2.2-3.1-7.6c0-5.5,5-11.9,10-14.2
		C554.3,787.8,556.8,789.6,556.8,795 M574.3,774.3c0,5.4-2.5,8.4-7.2,12.9h-7.8c-0.3-3-2.4-0.8-2.4-6.3c0-5.4,4.7-10.6,9.8-15.3
		C569.5,768.1,574.3,768.8,574.3,774.3 M640.9,702.3c0,0,2.1,2.2,5.3,2.5v7.1c0.2,5.4-12.7,19.3-19.8,26.4
		c-3.5,3.6-11.9,4.3-17.6,8.1c-7.1,4.7-8.6,12.5-15.3,18.3c-2.3,0.9-2.8,3.1-8.2,3.1c-5.5,0-8.6-5-10.9-9.8
		c16.8-27.3,15.3-15.3,15.3-26.2C589.6,719.2,630.9,706.1,640.9,702.3"/>
	<path class="st4" d="M484.1,740.6c3.9,4,8.5,8.1,9.2,11.9c0.1,0.3,0.1,0.7,0.1,1c0,13-25.8,23.1-46.6,28.8c-1.4,0.4-2.7,0.7-4,1
		c-1.1,0.3-2.1,0.5-3.1,0.8c-8.9,2.1-16.1,3.3-18.3,3.3c-8.4,0-14.6-1.9-21.7-15H433c15.6-0.3,41.9-19.5,34.9-36.4
		c1.1,0.1,2.2,0.1,3.2-0.1c1-0.2,1.9-0.5,2.8-1c0.3-0.2,0.6-0.4,1-0.6l7.8,4.8C483.1,739.7,483.6,740.2,484.1,740.6"/>
	<path class="st4" d="M487.5,720.3c6.6-0.2,11.9-4.8,16.3-10.6c5.7-7.5,10.1-17.1,14.4-21.9c1.1-1.2,3-2.2,4.9-3.1
		c3.3-1.6,7.1-3.1,8.8-6c2.3-3.7,4.8-15.6,10.6-22.2c1-1.1,2-2,3.2-2.8c1.2-0.8,2.4-1.3,3.9-1.5c0,0,0.4,5.2,0.3,9.1
		c1.9,1.9,0.1,1.5,5.6,1.5c5.5,0,12.5-8.6,21.6-13.9c0.8,0,1.7,0.1,2.6,0.1c13.4,0,31.9-5.8,37-5.8c5.5,0,13.1,4.3,18.6,4.3h0
		c5.5,0,11.5-2,17.2-4.2V655c0.3,5.4-6.3,7.9-6.3,13.4c0,4.4,1.6,6.3,3.5,7.2l-27.1,12.7c-0.7-0.5-1.4-1.1-1.9-1.8
		c-1.2-2-1.5-3.9-1.6-5.9c-0.1-2.4,0-4.8-1.1-7.1c-2.1-2.1-0.2-1.7-5.7-1.7c-5.5,0-6.4,2.7-10.8,3.5c-1.6,0.3-3.3,0.3-4.9,0.3
		c-2.5,0-5-0.2-7.4-0.2c-2.4,0-4.8,0.3-7,1.2c-29.3,12.8-77.2,25.2-78.5,60.5c-1.7-0.7-3.3-1.1-5-1.5c-3.7-0.8-7.8-1.3-15-2.8
		l-3.6,3.5c0.7,1,1.5,1.9,2.5,2.9l-7.8-4.8c0.1-0.1,0.2-0.1,0.3-0.2C479.8,731,483.1,724.6,487.5,720.3"/>
	<path class="st4" d="M761.5,682.3c12.1,22.4,17.4,53.5,41.6,79.5c-0.4-0.1-0.8-0.3-1.2-0.4c-0.2-0.1-0.4-0.2-0.6-0.2
		c-1.3-0.4-2.7-0.6-4.1-0.8C792.3,751.5,767.8,706.5,761.5,682.3"/>
	<path class="st1" d="M971.3,252.4c0,0,0.1,0.1,0.1,0.1l-0.4-0.1H971.3z"/>
	<path class="st1" d="M833,250.4l-63.5-7.7l-17.5,4.2c16.9-8.8,40.7-7.5,53.8-7.5c5.4,0,116.1,13,121.5,13.1h40.6l-28.6,6.1
		L833,250.4z"/>
	<path class="st1" d="M982.8,267.1c-22.1,5.2-17.1,6-64.4,5c-19.9-0.3-8.5,12.2-18.6,21c2.7,7.3,19.1,5.1,27.9,10.2
		c7.4,4.4,16,15.2,19.3,21.8c3,6.3,3.1,13.5,3.6,19.7c1.5,1.9,3.7,4.2,5.2,6.6c0.9,4.5,0.9,9,1.2,12.9c3.5,1.9,8.9,7.2,9.7,11.3
		c0.8,4.1,0.8,9.3-0.8,13.2c1.4,1.7,5.9,4,10.2,13.8c-3.1,0.5-2,2.7-7.5,2.7c-5.5,0-13.3-4.9-19.9-6.1c-9.8-1.6-25.4,1.1-38-9.9
		c-0.1-4.8,4.9-10.2,8.7-11.5c-10.5-7.8-23.6-12.1-34.9-21.5c2.3-5.1,9.5-10,15.3-11.3c-14.8-9.9-32.4-18.7-48-32.2
		c1.6-10.9,11.1-12.7,35-11.8c-6.5-7.6-17.5-12-23.7-22c-27.7-3.1-65.5-22.5-93.4-20.1c-24.1,0-26.2-2.2-29.5-2.8
		c3.2-3.9,7.2-6.9,11.7-9.3l17.5-4.2l63.5,7.7l106.5,8.1l28.6-6.1h3l0.4,0.1C976.1,257.1,980.6,261.8,982.8,267.1"/>
	<path class="st1" d="M645.6,287l-98.4,46.3l-3.1,1.6c-0.1-0.2-0.3-0.4-0.5-0.6c49.1-36.3,111.5-65.1,167.1-77.4c0,0,0.1,0,0.2,0
		l-0.3,0.1L645.6,287z"/>
	<path class="st1" d="M704.8,290.7c-19.1,11.2-44.2,6.7-65.9,12.4c-2.4,0.5-4.4,6.6-8.8,7.4c-6.5,1.1-15.6,2.1-23.8,5.7
		c-3,1.1-37.3,25.8-46.6,25.7h-11.1c-2.3-2.3-2.5-4.4-4.5-7.1l3.1-1.6l98.4-46.3l65-30.1l0.3-0.1c6.5,0,8.7,2.2,11.8,2.7
		C718.4,269.3,714.1,285.3,704.8,290.7"/>
	<path class="st1" d="M761.4,307.4c-6.8,2.5-13.3,8.5-19.8,9.6c-6.6,1.1-15.6-3.1-21.7-0.9c-5.2,1.9-10.4,7.7-17.5,9.6
		c-8.2,2.2-20.2,2.2-30.5,5.7c-3.3,1.1-51.4,30.1-62.6,30.1c-5.4,0-8.7-4.3-8.7-9.8c0-13.9,17.5-11.3,15.5-31.2
		c14-3.7,4.7-2.7,50.7-2.6c1.8-1.9,6-6.1,8.5-10.2c2.6-0.8,4.6-0.7,6.6-1.4c10.8-10.5,23.5-6.3,32.8-11c6.6-3.3,13.6-14.5,19.1-14.5
		c5.5,0,5.5,4.3,11,4.3c5.5,0,10.9-8.7,16.4-8.7c5.4,0,8.7,10.9,14.2,10.9c5.4,0,12-4.3,17.5-4.3c5.5,0,8.2,2.3,13.1,5.1
		C797,304,772.9,303.1,761.4,307.4"/>
	<path class="st1" d="M1004.3,303.4c18.3,13.9,21.2,42.7,46.2,50c-0.7,8.6-6.4,14.8-14,14.8c-5.4,0-17.8-9.9-26.5-12.7
		c-4.1-1.4-8.1-0.5-12.8,0.9c-16.9-19.2-22.1-41.1-46.4-54.7c-1.9-1.1-4.8-6.2-7.1-10.9l2.6-9.8h34.1c3.7,8.4,2.6,9.1,2.6,10.7
		C982.9,297.2,998.8,299.3,1004.3,303.4"/>
	<path class="st1" d="M784,379.1c-5.4,0-24.7,6.5-36.1,10.9c0,0-2.1-2.2-5.2-2.7c2.1-5.4,6.7-10,13-15.8c-10-8.8-23.7,7.2-30.6-11.1
		c11.7-14.7,72.6-29.3,73.4-29h11.6c-2.1,7.7-4.2,11.7-4.3,13.5c2,1.8,5.5-0.7,27.4-0.7c16.1,0,13.1,16.2,12.4,26.7
		c11.2,4.2,12.1,16.9,8.4,24.4c4.1,3.8,10.5,3.6,17.3,8.4v9.9c-4.8,2.6-10.8,7-16.2,7C831.6,420.6,816,379.1,784,379.1"/>
	<path class="st1" d="M596.1,364.8c0,9.6-8.7,14.2-13.1,14.2c-5.4,0-4.4-6.6-9.9-6.6c-5.5,0-12.7,4.3-20.4,6.3
		c3-15.8,26.8-30.3,40.4-32.4l5.1,5.3C596,356.6,596.1,359.4,596.1,364.8"/>
	<path class="st1" d="M445.5,412.5l-2.9,3.8c-0.5-0.3-1-0.7-1.6-1c13.4-14,26.6-33.7,44.4-51.2h1.5l-1.9,1L445.5,412.5z"/>
	<path class="st1" d="M500,370.3c0,5.4-13.4,22.5-14.8,34c-0.8,6.5,1.6,15.3,0.8,24.3c-3.7,4.7-7.8,5.1-13.3,5.1
		c-10.1,0-10.2-4.3-30.1-17.4l3-3.8l39.5-47.5l1.9-0.9h10.7C497.8,367,500,364.8,500,370.3"/>
	<path class="st1" d="M625.9,366.1h13.6c-0.6,15.5-18.3,25.9-24.4,32.5h-7.5c-2.5-2.4-2.8-1-2.8-6.4
		C604.8,388.1,618.2,366,625.9,366.1"/>
	<path class="st1" d="M626.9,415.5v-9.9c3.1-0.3,4.1-2.5,9.6-2.5c5.5,0,17.7,11,25.9,13.1c3.9-4.1,5.9-10.5,8.8-14.4
		c4-2.9,11-3,15-3.8c6.3-5.6,8.6-12.3,15.7-16.8c5,2.3,7.7,5.5,7.7,11c0,7.6-40,72.3-46.3,77.5c-1.6,1.4-7.2,0.9-11,3.5
		c-4.3,3.3-8.8,10.4-20.4,17.2c-2.9-2.5-5.3-1.1-5.3-6.6c0-5.5,6.6-16.7,8.9-22.4c-8-1.6-16.8,0.5-26-1.8c0,0-0.1-2.3-2.6-5.2
		c9-11.7,26.2-26.3,26.2-31.7C633.3,417.3,629.2,418,626.9,415.5"/>
	<path class="st1" d="M745,399c5.2-5.2,19.3-6.8,24.8-6.9c11.7,0,31.7,1.9,31.7,20.8c0,5.5-2.3,13.6-7.3,15.5
		c-12.5,4.6-27.1,5.4-39.2,12.2c-9.8,5.4-11.4,26.2-26.5,34.3h-10v-16.4c-0.1-0.9,15.9-40,18.9-44.1
		C740.5,410.3,741.8,402.3,745,399"/>
	<path class="st1" d="M873.6,404.4c7-5.5,21.8-12.3,27.3-12.3c5.4,0,7.3,2.5,9.8,5.1c0.1,2.6-2.4,7.7-5,10.2L873.6,404.4z"/>
	<path class="st1" d="M841.9,453.3c17.5,0,18.6,21.6,18.6,27.3c0,8.8-0.8,20.8-14.2,20.8c-5.5,0-39.9-17.6-60-28.9v-7.7
		c9-6.9,22.8-13.6,28.3-13.6C820.1,451.1,836.5,453.3,841.9,453.3"/>
	<path class="st1" d="M1245.1,659.6c0,5.4-2.2,15.3-2.2,22.3c-2.4,2.5-1,2.9-6.5,2.9c-27.4,0-12.7-23.8-38.2-34.9
		c0,0-1.4-0.3-3.3,1.1c4,3.6,10.8,8.2,12.9,12.9v9.8c-3.1,0.2-2,2.5-7.5,2.5c-8.1,0-15.2-10.9-15.8-18.5c-1.4-19.7-4.3-42.1-10-60.9
		c-3-9.8-12.4-20-12.4-25.5c0-5.5,2.4-6,3.7-8.1c0.8-2.1-1.5-2.8-1.5-8.2c0-14.5,19.6-6.3,19.6-24c0-12.3-20.4-7.9-23.5-8.7
		c-6.9-10.4-13.3-21.2-22.4-30.6c6.8-9.5,11.1-18.1,16.1-25.2c4.6,1.7,17.1,10.8,25.3,23.4c-5.3,0.6-9.7,2.8-13.5,2.6
		c0,0-1.6-2-1.6,3.5c0,5.4,3.9,5.7,8.1,9.1c9.4,2.6,16.3-6.5,23.5,5c1.3-3.7,1.2-7.6,1.3-12.4l5-5c2.6-0.1,7.7,2.4,12.3,7.2v26.3
		c0.1,5.5-13.2,29.3-21.8,41.5c3.8,1.5,9.5,1.4,17.2-0.5c-1.9,14.1-1.9,20.5-2,27.6c-4.8,2.6-11.9,2.7-17.5,2.1
		c7.9,11.7-5.2,21.9,14.1,29c1.6-1.9,3.5-5.5,3.8-8.6l7.1,0c6.6-0.1,25.3,25.8,28.9,33.3C1245,652.7,1245.1,654.2,1245.1,659.6"/>
	<path class="st1" d="M613.3,497.8c0.3,5.4-9.5,12.2-14.8,12V500c-0.1-5.4,6.9-11.6,14.8-16V497.8z"/>
	<path class="st1" d="M1309.3,499h-11.5c-0.3-7.5,4.1-11.9,4.4-14.9h14.4l5,5.4C1319.1,492.3,1314.8,499.2,1309.3,499"/>
	<path class="st1" d="M420.8,516.8c4.8,11.4,7,24.7,8.8,38.9c-5.5-2.1-10.4-7-12.7-11.6C416.9,544.1,418,516.6,420.8,516.8"/>
	<path class="st1" d="M1282.3,560.3c-5.4,0-10.8-7.1-12.9-11.8v-9.8c3.1-0.3,4.2-4.7,9.6-4.7c5.5,0,15.3,4.4,25,5.1
		c-2.4,3.4-2.3,7.9-5.3,12C1295.4,555.5,1287.7,560.3,1282.3,560.3"/>
	<path class="st1" d="M1254.4,616.8c-6.9-9-15.9-22.7-15.9-28.1c0-5.5,2.5-8.4,5.1-10.9c16.4,2.7,23.3,21,23.3,28.4
		c0,5.5-2.2,7.6-2.5,10.7H1254.4z"/>
	<path class="st1" d="M146,602.1h20.4c1.1-0.3,9.2,3.5,12.1,10.1C166.6,611,153,611.3,146,602.1"/>
	<path class="st1" d="M1304.1,651.2l2.9-21c7.7,6.8,14.2,17.7,23.2,26.8v7.5c-2.4,2.5-1,2.8-6.4,2.8
		C1318.3,667.3,1308.7,658.1,1304.1,651.2"/>
	<path class="st1" d="M1446.4,643.5h8c15,20.1,41.3,28.6,55.2,37.8c-4.7,5.3-11,7.8-16.4,7.8c-15.3,0-31.2-12.4-46.8-31.3
		L1446.4,643.5z"/>
	<path class="st1" d="M1035.5,684.1c2.2-5.3,9-12.1,14.1-16.8c3,2.5,3.3,2.2,3.3,7.6c0,5.5-4.3,6.6-4.7,11.8L1035.5,684.1z"/>
	<path class="st1" d="M1293.4,694.9v-14.2c14.1,0.8,18.1,22.5,19,34.5C1307,712.1,1293.2,700.9,1293.4,694.9"/>
	<path class="st1" d="M777.5,698.9c2.5-2.9,4.8-7.3,7.2-9.1c4.6-0.6,10.2-2.8,15.7-2.8c5.5,0,9.1-0.5,35.1,2.2
		c19.4,2.2,49,2.2,68.7,20.9c-4.9,3-7.6,3.1-13.1,3.1c-5.4,0-15.6-4.4-21-4.4h-41c-5.5,0-21-8.7-26.5-8.7c-5.5,0-10.7,2.1-20,4.3
		L777.5,698.9z"/>
	<path class="st1" d="M1507.3,716.8c-3.2,0.8-3.2,2.9-8.7,2.9c-9.5,0-30.2-7.5-34.7-18.3v-7.8h9.4
		C1478.7,693.5,1498.2,709,1507.3,716.8"/>
	<path class="st1" d="M646.2,704.8v7.1c0.2,5.4-12.7,19.3-19.8,26.4c-3.5,3.6-11.9,4.3-17.6,8.1c-7.1,4.7-8.6,12.5-15.3,18.3
		c-2.3,0.9-2.8,3.1-8.2,3.1c-5.5,0-8.6-4.9-10.9-9.8c16.8-27.3,15.3-15.3,15.3-26.2c0-12.5,41.4-25.6,51.4-29.5
		C640.9,702.2,643.1,704.4,646.2,704.8"/>
	<path class="st1" d="M698.8,749.3c-3.7-1.3-8.7-3.4-14.2-3.4c-5.4,0-8.7,4.3-13.5,4.3c-2.5-2.4-5-2.1-5-7.6
		c0-5.5,17.6-26.7,24.5-40.1h8c-1.7,13.8,10.3,10.6,13.3,10.6c5.5,0,17.5-4.3,23-4.3c5.5,0,7.1,0.1,11.7,2.5c0,0,0,2.2,2.4,4.7
		c0.1,2.6-4.6,5.6-7.2,8h-30.7c-5.4,0-10.7,6.5-14.5,8c2.1,3.5,3.3,5.1,8.8,5.1c5.4,0,15.3-4.4,20.8-4.4c5.4,0,6.5,2.2,9.6,2.5v7.8
		c-9.9,11.5-12.4,11.8-22.1,9.2c0.4,3.5-4,11.1-4,16.6c0,5.5,1.9,3.6,4.4,6.6c-2.5,2.9-2.2,3.3-7.6,3.3c-5.5,0-15.3-4.4-22.6-4.7
		c-0.3-2.9-2.5-0.7-2.5-6.2C681.3,760.1,695.1,751.3,698.8,749.3"/>
	<path class="st1" d="M1027.7,728.5c-5.5,0-14-9.2-18.5-16.9c9.7-0.5,16.9,4,23.9,9C1033.1,720.6,1033.1,728.5,1027.7,728.5"/>
	<path class="st1" d="M161.9,722.2h7.9c-3.2,9.1-10.8,13-21.6,12.1C152.8,728.8,157.2,726.6,161.9,722.2"/>
	<path class="st1" d="M1037.7,733.3c9.6-0.6,11.9,1.6,14.8,2c0.3,3,2.5,5.2,2.3,7.9c0,0,0.2,2.7-5.3,2.7
		C1044.1,745.9,1039.8,738.7,1037.7,733.3"/>
	<path class="st1" d="M1045.5,778.6c-8.7-0.7-18.6-18.8-20.9-25.7c9.8,1.8,19.1,8.7,25.9,15.6C1050.6,771,1048.1,776.2,1045.5,778.6
		"/>
	<path class="st1" d="M567,787.2h-7.8c-0.3-3-2.4-0.8-2.4-6.3c0-5.4,4.7-10.6,9.8-15.3c2.9,2.5,7.7,3.3,7.7,8.7
		C574.3,779.7,571.7,782.7,567,787.2"/>
	<path class="st1" d="M652.9,790.9c3.4-8.8,12.3-14.5,15.3-14.5c5.4,0,5.4,2.2,8.5,2.5v7.8c-4.5,4.7-7.5,9.4-12.9,9.4
		C658.4,796.2,655.4,793.6,652.9,790.9"/>
	<path class="st1" d="M544.6,807.1c-2.8-2.5-3.1-2.2-3.1-7.6c0-5.5,4.9-11.9,10-14.2c2.8,2.5,5.3,4.4,5.3,9.8
		C556.8,800.5,551.9,802.5,544.6,807.1"/>
	<path class="st1" d="M611.5,803.3c2.4-2.5,4.5-7.2,10-7.1H637c2.5,2.5,2.8,3.2,2.8,8.7c0,8.2-8.4,13.1-14.2,13.1
		c-5.5,0-9.2-2.3-14.1-4.9V803.3z"/>
	<path class="st1" d="M884.6,834.3c0,0,0,7.7-5.5,7.7c-5.4,0-27-24.4-40.3-40.8c3.2-0.6,2.1-2.8,7.5-2.8
		C851.8,798.3,871.1,820.5,884.6,834.3"/>
	<path class="st1" d="M873.6,804.9l2.7-6.5h9c7.1-0.1,19.9,23.8,20.9,28.1H899C890,826.7,873.6,809.5,873.6,804.9"/>
	<path class="st1" d="M690.9,811.6h14.2c0.3,3.1,2.5,4.2,2.5,9.6c0,5.4-4.7,7.4-7.2,9.6h-18.8v-10.1
		C683.8,818.3,686.3,813.7,690.9,811.6"/>
	<path class="st1" d="M577.3,833.2c0,0-1.9-2.1-5-2.6c2-7.5,10.7-17,16.2-17c5.5,0,9.9,2.2,9.9,7.6
		C598.3,831.6,582.7,833.2,577.3,833.2"/>
	<path class="st1" d="M553.9,826.9c2.5,2.3,5,5.3,4.9,7.9c-2.4,2.6-7.6,5-10.2,5c-2.6-2.4-4.7-2.4-7.2-5.1l2.6-7.8H553.9z"/>
	<path class="st1" d="M649.4,828.9c13.3,0,13.3,2.2,16.3,2.5c0.3,5.1-8.7,17.2-14.1,16.9l-15.9,0C638.2,836,640.8,832.2,649.4,828.9
		"/>
	<path class="st1" d="M261.3,848.7c0.5,7.2-5.4,16.4-14.7,12.2C248.8,855.7,255.8,850.9,261.3,848.7"/>
	<path class="st1" d="M599,848.6h16.1l5,5.3c-1.7,3.6-12.3,12.1-15.3,12.1c-5.4,0-8.2-2.4-8.2-2.4c-2.4-2.3-2.7-0.9-2.7-6.4
		C593.9,851.8,596.4,851,599,848.6"/>
	<path class="st1" d="M565.5,850.7c5.5,0,10.8,5,13.1,9.8c-2.3,4.8-5.5,7.6-10.9,7.6c-5.5,0-7.7-2.2-10.6-2.5
		c-0.3-2.9-2.5-7.3-2.4-9.9C557.1,853.2,560,850.7,565.5,850.7"/>
	<path class="st1" d="M228.2,878.3l5.1,1.5c-6.7,9.8-15.4,20.6-22.4,29.6h-8v-7.7C202.8,896.3,218.6,883.6,228.2,878.3"/>
	<path class="st1" d="M652.7,879.8v10c-3.1,0.3-5.3,2.5-17.1,2.1v-7.8c2.3-2.5,6.7-4.7,9.2-7.1C647.4,876.9,650.4,877.3,652.7,879.8
		"/>
	<path class="st1" d="M241.9,975.4v7.2c0.2,5.5-6.4,13.9-9.4,20.5c-1.3,2.1-6.9-3.9-7.7-0.4C225.6,997,233.2,978.4,241.9,975.4"/>
	<path class="st1" d="M696.9,1103.6c6.5-7.7,13.1-16.7,20.8-23.6l2.9,18.5c-0.6,20-32,29.5-42.6,29.5c-5.5,0-11.4-0.2-16.2-2.8
		c-0.2-4.9-0.2-9.3,0-14.2C670.5,1106.6,688.7,1112.9,696.9,1103.6"/>
	<path class="st1" d="M524,1156.5c5.5,0,12,2.2,18.1,2.2l3.4-2.1v12.3l-15.9,15.9c-7.1-2.3-9.5-11.1-16.5-16
		C515.3,1161.8,519,1156.5,524,1156.5"/>
	<path class="st1" d="M554.6,1189.2c-5.5,0-8.4-2.5-10.9-5.3c2.2-5,7.1-12.1,11.7-14.3h7.3c2.5,2.4,2.5,4.6,5,7.4
		C565.4,1182.1,560,1189.2,554.6,1189.2"/>
	<path class="st1" d="M573.3,1187c2.8,2.5,4.3,2.2,6.8,2.2c2.5,2.5,2.9,2.1,2.9,7.6c0,8.7-12.8,38.2-18.6,38.2
		c-10.1,0-9.9-9.3-9.9-10.9C554.6,1220.3,569.1,1189.4,573.3,1187"/>
	<path class="st1" d="M507.3,1238.4l0.3,6.7c-2.4,0.1-5.1-0.5-7.6-1.9c-0.2-4.9,2.1-8.8,0.9-12.6c-1.2,3.8-6.5,8.8-11.2,8.7
		c-4.6-2.3-7.4-5.4-7.4-10.9c0-12.6,13.2-30,15.9-32.6h0.1c1.2,7.8,2.4,12.1,2.4,12.1L507.3,1238.4z"/>
	<path class="st1" d="M510.9,1205.6c0,5.4-2.3,11.5-6.6,17.2c3.8,1.5,11,0.3,11,5.8c0,5.5-2.2,9.8-2.2,14.6c-1.2,1.2-3.1,1.9-5.3,2
		l-0.3-6.7l-6.5-30.5c0,0-1.1-4.3-2.4-12.1h9.6C510.6,1198.2,510.9,1200.1,510.9,1205.6"/>
	<path class="st1" d="M552.1,1198.2c0.3,3,2.5,0.8,2.5,6.3c0,5.4-4.5,14.8-9.5,21.8c-5.2-2.3-12.3-5.4-12.3-10.9
		c0-5.5,4.5-12.6,9.3-19.6C544.8,1195.7,549.1,1198,552.1,1198.2"/>
	<path class="st1" d="M783.8,1222.6l14.2-22.4l0.9-1.9c0.2,0.7,0.4,1.7,0.4,2.9c0,3.3-17.2,36.8-25.9,40.2l1-2.9L783.8,1222.6z"/>
	<path class="st1" d="M773.3,1227.1c-0.2-9.5,16.2-28,23-31.3c0,0,1.7,0,2.5,2.5l-0.9,1.9l-14.2,22.4l-9.4,15.8l-1,3
		c0,0-0.1,0-0.1,0V1227.1z"/>
	<path class="st1" d="M635.9,1198.2c9.7,2,20.1,2,29.5-0.1c2.7,4.9,2.8,9.7,2.8,15.2c0,5.5-3.9,16.4-6.1,23.3
		c-1.9,6.3,2,13,0.9,19.5c-0.8,4.4-6.3,9.5-11.4,11.8c-7.2-9.2-18.3-26.2-18.3-31.7C633.3,1223.9,636.8,1238.4,635.9,1198.2"/>
	<path class="st1" d="M693.7,1202.4l4.9,5v20.8c-3.1,0.3-4.1,2.5-9.6,2.5c-7.9,0-9.8-8.1-9.8-14.2
		C679.1,1209.1,680.4,1203.4,693.7,1202.4"/>
	<path class="st1" d="M606.4,1206.8c2.5,2.4,2.8,0.9,2.8,6.4c0,5.5-7.9,36.5-11.8,53.8c-0.3,2.2-4.6,5.2-10.1,5.2
		c-5.5,0-13.1-4.4-13.1-9.8c0-5.5,15.3-37.5,22.3-55.5H606.4z"/>
	<path class="st1" d="M625.6,1238.2c1,4.3,3.3,7.8,3.3,13.3c0,5.4-2.2,6.6-2.5,14.1h-16.5c-2.5-2.4-2.8-3.1-2.8-8.6
		c0-5.4,6.9-17.1,11.6-21.7C621.3,1235,623.8,1237.3,625.6,1238.2"/>
	<path class="st1" d="M767.9,1257.5l4.5-13.3c2.5,2,2.8,1.1,2.8,6.2c0,10.4-8.8,30.6-18.8,30.5h-11.3c0,0-0.7,0-1.4-0.8l0.3-0.6
		L767.9,1257.5z"/>
	<path class="st1" d="M772,1243.8c0.2,0.2,0.3,0.2,0.5,0.4l-4.5,13.3l-24,22l-0.3,0.6c-0.6-0.7-1.2-2-1.2-4.6
		C742.5,1265.1,764.2,1251.2,772,1243.8"/>
	<path class="st1" d="M519.7,1273c-0.8,2.5-1.6,4.9-2.4,7.4c-2.4,2.4-8,2.6-12.8,0c-0.1-2.7-2.3-1.7-2.3-7.1
		c0-4.9,3.6-10.1,6.3-14.7l0.5,9.9L519.7,1273z"/>
	<path class="st1" d="M523.8,1259.6c-1.3,4.7-2.7,9.1-4.1,13.4l-10.8-4.5l-0.5-9.9c0.3-0.5,0.6-1.1,0.9-1.6L523.8,1259.6z"/>
	<path class="st1" d="M551.7,1287.8c-3,6.2-7.8,10.6-12.4,10.6c-11.5,0-15.3-7.7-15.3-16.4c0-2.6,0.2-4.9,0.6-7l22.6,9.4
		L551.7,1287.8z"/>
	<path class="st1" d="M541.5,1263.4c5.4,0,8.1,2.3,13,4.9v6.9c0,4.5-1.1,8.9-2.8,12.6l-4.5-3.4l-22.6-9.4
		C525.9,1267.7,530.2,1263.4,541.5,1263.4"/>
	<path class="st1" d="M733,1303.4l2.9-6.5c0,4,0,7.9,0,11.7c-2.4,2.5-7.3,2.8-9.3,3.3c-10.5,7.8-8.1,14.9-19,14.9
		c-5.4,0-7.6-2.2-10.7-2.5v-18.6l7.7,8.7L733,1303.4z"/>
	<path class="st1" d="M708.6,1287.5c4.8,2.3,7.1,6.7,10.5,8.8c1.5-5.9,1.6-14.8,6.4-23.8h10.1c0.2,7.9,0.2,16.4,0.2,24.5l-2.9,6.5
		l-28.5,11l-7.7-8.7v-11.1C699.2,1292.1,703.8,1289.8,708.6,1287.5"/>
	<path class="st1" d="M574,1302.4v6.3c-2.3,2.5-2.3,4.7-4.8,7.1h-7.5c-2.5-2.4-7.2-5.4-7.2-10.8c0-3.3,1.5-7.8,3.7-12.1l9.7,7.4
		L574,1302.4z"/>
	<path class="st1" d="M568.7,1278.7c0,0,2.2,2.2,5.3,2.5v21.1l-6.1-2.2l-9.7-7.4C561.4,1286.5,565.8,1280.5,568.7,1278.7"/>
	<path class="st1" d="M690.5,1306.4c-1.5,6.6-2.8,13.1-3,20.1c-3,0.3-1.9,2.5-7.3,2.5c-9.4,0-9.8-7-9.9-12.7l8.5-1.8L690.5,1306.4z"
		/>
	<path class="st1" d="M670.4,1314.8c0-2.8,1.4-20.8,10.9-20.8c5.5,0,8.5,2.5,10.9,5.2c-0.6,2.4-1.1,4.8-1.7,7.1l-11.7,8.1l-8.5,1.8
		V1314.8z"/>
	<path class="st1" d="M617.8,1316c-1.3,8.5-9.3,8.5-10.8,8.5c-5.5,0-15.3-5.4-15.3-10.9c0-1.4,0.5-2.9,1.3-4.4l14.3,5.2L617.8,1316z
		"/>
	<path class="st1" d="M604.8,1300.6c8.2,0,13.2,8.7,13.2,13.1c0,0.9-0.1,1.6-0.2,2.4l-10.4-1.6l-14.3-5.2
		C595.5,1304.8,600.8,1300.6,604.8,1300.6"/>
	<path class="st1" d="M655,1319.6c0.8,1.5,1.6,2.9,2.3,4.1c-4.7,5-14.2,11.9-19.7,11.9c-5.5,0-13.1-4.4-13.1-9.8
		c0-1.9,0.9-4.9,2.5-8.2l21.8,3.4L655,1319.6z"/>
	<path class="st1" d="M642,1302.8c4.5,0,9,9.5,12.9,16.8l-6.1,1.3l-21.8-3.4C630.2,1310.6,636.1,1302.8,642,1302.8"/>
	<path class="st1" d="M830,904.3l-1.4,6.7l-43.1,147.9l-21.2,34.9c12.2-37.5,54.3-167.3,61.2-183.4c1-2.4,2-4.6,2.9-6.7
		c0.2-0.2,0.3-0.4,0.5-0.6C829.2,903.5,829.6,903.9,830,904.3"/>
	<polygon class="st1" points="692.4,1169.4 754.2,1110.4 712.3,1179.6 	"/>
	<path class="st1" d="M489.6,1013.5l-6.6,13.7l28.4,49.8c0,0,3.6,3.4,9.2,8.6c-3.2,1.2-7.8,3.7-12,8.6c0.1-0.4,0.1-0.8,0.1-1.1
		c0-13.6-30.5-34.7-30.5-66.6c0-8.5,3.8-20.7,15.2-20.7c5.5,0,12.8,6.8,17.4,11.6v7.6c-0.8,0.4-1.6,0.7-2.5,0.9
		c-1-2.6-1.9-5.7-2.4-9.2C497.3,1005.9,489.6,1013.5,489.6,1013.5"/>
	<path class="st1" d="M508.6,1094.2c-1.1,6.6-10.8,24.4-10.8,29.5c0,5.5,0.3,6.2,3,8.7c16.1-4.1,11.5-15.7,15.5-21.8
		c1.3,3.8,7.7,9.9,7.7,15.3c0,5.4-6.5,6.6-6.5,12c0,5.5,0.3,5.2,2.8,7.5h7.5c2.5-2.4,6.1-6.4,8.1-6.5c4.1,2.1,8,8.2,10.5,13h6.9
		c5.5,0.1,17.4,2.2,22.7,4.1c0.6,3.9,3,9.8,7.7,12.5c6,3.5,13.1,5.2,17,6.8c-2.2,3.5-6.6,4.9-6.4,10.3v14.2c3.1,0.3,3.1,2.5,8.6,2.5
		c18,0-1.1-27.3,18.2-32.8c6,10.2,37.3,17.6,43,17.6c5.5,0,7.7-6.6,13.1-6.6c30.4,0-2.4,9.8,35.5,15.7c2.7,4.1,22.2,14.9,26.8,14.9
		c5.5,0,23.5-0.7,31.2-5.3c9.9-6,22.4-23.3,22.2-28.8v-7.1c-3.1-0.3-5.1-2.4-5.1-2.4c-4.6,0-9.4,2.2-13.7,4.6
		c5.7-11.9,7.9-22.9,11.2-33.1c1.2,5.8,8.3,10.8,13.4,13c5-7,7.4-16.3,7.4-21.7c0-5.5-4.4-13.1-4.4-18.6c0-13.9,20.5-32.8,21.7-42
		c-4.9-2.7-10.8-6.1-10.9-10c6.4-6.1,14.6-11.7,18.7-17.2c2.5-3.3,0.4-11.3,1.5-15.7c1.4-5.4,10.4-10.3,10.3-15.7v-7.1
		c-5.3-0.3-8.9,0-10.7-1.4c4-3.5,8.3-3.5,12.1-6.7c3.2-12.6,12-31.5,12-36.9c0-5.5-11-17.5-11-22.9c0-5.4,4.4-8.7,4.4-14.2
		c0-11.1-12.3-10.4-19.6-17.4l-1.5,6.7l-43.1,147.9l-21.2,34.9c-2.1,6.4-3.3,10.1-3.3,10.1l-6.8,6.5l-41.9,69.1l-19.9-10.1
		c0,0-114.3-23.9-116.4-29c-1.5-3.9-38-38.5-55.4-54.9C517.4,1086.9,512.8,1089.4,508.6,1094.2 M751.5,1182.5
		c-0.3-3.1,1.9-5.3,2.3-8.3c5.1-0.3,11.2-0.2,16.9-2c-2.3,3.6-7,8.1-11.6,10.3H751.5z"/>
	<path class="st1" d="M494.9,1025.3c-1.8,2-1.5,1.2-1.5,6.7c0,53.8,116.4,86.5,121.3,86.5c8.7-0.2,17.5,3,27,3.4
		c0.3,5.1-6.5,8.1-10.6,11.6c6.1,3.6,17.5,7.7,23,7.7c54.1,0,89.7-45.4,114-106.3c6-14.7,7.9-33.6,14.5-50.2
		c9.8-24.4,27.5-57,45.9-80.9c-0.9,2.1-1.8,4.3-2.8,6.7c-6.9,16.1-49.1,145.9-61.2,183.4l-10.1,16.6l-61.8,59l-167.5-85
		c0,0-1.7,0.2-4.2,1.2c-5.5-5.2-9.2-8.6-9.2-8.6l-28.4-49.8l6.6-13.7c0,0,7.6-7.7,16.2,3c0.5,3.6,1.4,6.6,2.4,9.2
		C503.7,1026.9,498.2,1025.4,494.9,1025.3"/>
	<path class="st1" d="M576,1140.5c-1.5-3.9-38-38.5-55.4-54.9c2.5-1,4.2-1.2,4.2-1.2l167.5,85C692.3,1169.4,578,1145.6,576,1140.5"
		/>
	<path class="st1" d="M754.2,1110.4l10.1-16.6c-2.1,6.4-3.3,10.1-3.3,10.1L754.2,1110.4z"/>
	<path class="st1" d="M1267.2,1081.2l47.6-47.9l0.1-0.1c-4.5,9.2-16.1,16.3-21.3,26.5c-7.9,16.1-17.9,48.6-17.9,54.1
		c0,5.5,2.1,15,4.3,22.1c-2.5,2.7-1.1,3-6.5,3c-12.3,0-15-11.2-23.2-19.7c-5.7,2-13.8,10-23.1,14.4l1.7-1.7L1267.2,1081.2z"/>
	<path class="st1" d="M1229.8,1111.7c0-5.5-6.5-28.2-8.6-41c-2-1.9-5.6-1.6-8.3-1.7c-6.9-9.6,5.7-25.1-3.8-37
		c-3.5,6.1-8.4,13-16.2,15.1v-20.8c-0.2-5.5,17.6-15.8,27-24.9c12.2,6.7,7,14.3,6.1,21c-0.5,2.2-0.5,3.1-0.5,8.5
		c0,15.3-0.5,5.3,14.2,15.1c3.2,8.5,3.1,17.1,6.7,25.3l11.8-11.9c-6.1-3.5-15.3-12.1-15.3-17.5c0-5.5,6.8-11.7,13.3-17.9v-31.3
		c-5.7,0.1-12.2,0.1-19.3-0.1c0,0-2.7,0.2-2.7-5.3c0-8.2,15.7-19.1,19-24.6c7.1-12,7.3-28.1,12.2-41.9c5.3,2.2,10.2,4.8,12.3,9.5
		v45.1c5.7,0,12.5-2.2,19.5,0.2c2.4,4.7,0.4,11.8,0.3,52.8c2,1.8,5.5-0.7,12.5-0.6l5.1,5.3c0,0.1-0.1,0.2-0.1,0.2l-0.1,0.1
		l-47.6,47.9L1229,1132l-1.7,1.7c-0.5,0.2-0.9,0.5-1.4,0.7C1227.7,1126.6,1229.8,1117.1,1229.8,1111.7"/>
	<path class="st1" d="M1188.3,1099.7c0-5.5,4.4-31.9,9.3-47.9c7.7,2.1,11.8,21.5,12.5,26.6c2,1.9,5.6-0.6,8.5-0.2
		c0.3,5.1,2.5,7.3,2.5,12.7c0,5.4-6.6,38.5-11.7,56.7C1195.2,1135.1,1188.3,1110.6,1188.3,1099.7"/>
	<path class="st1" d="M1180,1129.6c-0.4,10.5,1.7,23.8-1.5,36.5c-1.7,1.1-6.1,1.1-9.5,3c-2.5,12.7-4.8,28.2-12.2,44.1
		c-11.1-11.2-10-14.7-10-24c0-5.5,15.3-63.3,15.3-68.8c0-5.4-4.3-8.7-4.3-14.2c0-5.7,7.5-19.6,19.1-23.9c2.8,11.7,9.3,32.6,9.3,38.1
		C1186.1,1126.4,1185.2,1124.5,1180,1129.6"/>
	<path class="st1" d="M196.4,613.1c29.2,4,63.7,22.1,80.4,42.8c-18.8-8.4-38.7-19.6-55.9-27.5C216.3,626.3,199.6,620.8,196.4,613.1"
		/>
	<path class="st1" d="M188,793.2c29.8-15.3,63.2-26.6,91.1-29.2c-2.4,3.5-2.9,5.9-5.1,6.4c-38.5,10.4-72.2,29.2-110.1,47.4
		C163.4,807.1,180.1,797.3,188,793.2"/>
	<path class="st5" d="M770.7,1172.2c-2.3,3.6-7,8.1-11.6,10.3h-7.6c-0.3-3.1,1.9-5.3,2.3-8.3C758.9,1173.9,765,1174.1,770.7,1172.2"
		/>
	<path class="st1" d="M641.9,1493c0-6.4-0.3-14.3-0.7-23.4c-9.6,3.9-19.2,8.9-28.8,14.5l-10.6-16.3c25.6-8.6,50.5-20,75.6-33.5
		l4.9,2.7c-0.7,52-1.2,86.5-1.2,103.2c0,21.4,0.5,42.9,2,64c-8.6-0.7-16-1.2-21.9-1.2c-5.4,0-12.8,0.5-21.7,1.2
		C641.1,1588.1,641.9,1550.9,641.9,1493"/>
	<path class="st1" d="M778.1,1542.3c-27.8,0-45.3-17-45.3-45.8c0-35.2,21.9-56.4,59.4-56.4c40.2,0,62.6,24.9,62.6,70.9
		c0,60.3-34.5,97.1-83.3,97.1c-10.4,0-20.2-1.7-30.3-5.4c1.7-8.4,2.7-16.3,3.2-23.6l1.5-0.5c7.4,9.6,15.8,14.3,26.4,14.3
		c22.4,0,39.7-22.9,39.7-62.3v-0.7C805.4,1537.3,793.1,1542.3,778.1,1542.3 M792.9,1524.8c12.6,0,18.5-10.8,18.5-33.5
		c0-25.6-6.4-38.4-19.2-38.4c-12.3,0-18.5,12.3-18.5,37.2C773.7,1513.7,779.1,1524.8,792.9,1524.8"/>
	<path class="st1" d="M929.8,1608c-45.1,0-60.6-25.6-60.6-83.7c0-56.7,18.7-84,60.4-84c46.6,0,61.1,25.1,61.1,84
		C990.7,1581.2,972,1608,929.8,1608 M909.6,1524.3c0,47.5,2,70,20.2,70c18,0,20.4-22.2,20.4-70c0-47.8-2.5-70-20.4-70
		C911.8,1454.3,909.6,1476.2,909.6,1524.3"/>
	<path class="st1" d="M1125.7,1535.4c-0.7,6.9-1.2,12.1-1.2,15.5c0,3.4,0.5,8.6,1.2,15.5c-6.7-1.2-13.8-1.7-20.9-1.7v7.6
		c0,6.7,0,17.2,2.2,32c-8.6-0.7-15.5-1.2-20.9-1.2c-3.9,0-9.8,0.5-18.5,1.2c1.2-12.1,2-22.9,2-32.8v-6.9
		c-10.8-0.2-19.7-0.2-26.1-0.2c-5.7,0-18.2,0.7-37.9,2c0.3-5.9,0.3-11.8,0.3-17.7c0-1.2,0-5.2-0.3-12.6c22.4-32,43.6-64,63.6-95.8
		c7.6,0.7,14,1.2,19.2,1.2c4.7,0,11.1-0.5,19-1.2c-1.7,23.9-2.2,46.6-2.2,67.7v29.3C1111.9,1537.3,1118.8,1536.6,1125.7,1535.4
		 M1069.3,1537.3v-68.5l-45.8,68.5H1069.3z"/>
</g>
</svg>
