<svg version="1.1" id="Hull" xmlns="http://www.w3.org/2000/svg" x="0" y="0" viewBox="0 0 1713.7 2010.2" style="enable-background:new 0 0 1713.7 2010.2" xml:space="preserve"><style>.st0{fill:#f4a319}.st1{fill:#1d1d1b}.st3{fill:#cfcfd0}.st4{fill:#fff}.st5{fill:none}</style><path class="st0" d="M0 0v1183.5c.9 297.3 145.1 448.3 316.2 547.8 79.6 54.6 173.6 94.3 268.5 134.1 99.5 41.8 194.8 82.2 266.1 139.8l6.1 5 6.1-5c71.3-57.6 166.6-97.9 266-139.8 95.5-40 190.2-80 270.1-135.2 14.8-8.7 29.4-17.7 43.7-27.2 150.4-99.7 269.9-249.1 270.7-519.6h.1V.2L0 0z"/><path class="st1" d="M0 0v1183.5c.9 297.3 145.1 448.3 316.2 547.8 79.6 54.6 173.6 94.3 268.5 134.1 99.5 41.8 194.8 82.2 266.1 139.8l6.1 5 6.1-5c71.3-57.6 166.6-97.9 266-139.8 95.5-40 190.2-80 270.1-135.2 14.8-8.7 29.4-17.7 43.7-27.2 150.4-99.7 269.9-249.1 270.7-519.6h.1V.2L0 0z"/><path d="m850.8 1887.7 6.1 4.9 6.1-4.9c71.3-57.6 166.6-97.9 266.1-139.8 244.9-102.6 483.9-204.7 484.6-564.3V95.6H100.1v1087.6c.6 360 239.7 462 484.6 564.7 99.5 41.9 194.8 82.2 266.1 139.8" style="fill:#f6a22e"/><path class="st3" d="M828.8 903.1c-.1.2-.3.4-.5.6 1.3-3.2 2.5-6 3.5-8.5l-1.9 9.1c-.3-.4-.7-.8-1.1-1.2"/><path class="st0" d="m368.8 705.5-.5.5-.5-.9c.4.1.8.2 1 .4"/><path class="st4" d="M1329 557.1c-3.6 5.6-5.3 9.6-6 12.4 2.3.2 5.4.9 7.9.9 36.4 0 73.3-49.4 79.5-81.3 4.7-23.5 9.5-66.4 9.5-71.8 0-29.2-9.9-73.2-49.2-73.2-8.8 0-16.5.8-25.3 8.1.1 1.7 4.2 3.1 8.9 8.1-9.7 19.5-32.7 19.9-48.6 30-6 3.8-10.2 11.1-15.1 16-3.5 3.5-9.7 3.4-13.3 5.8-3.5 2.4-3 12-8.7 16.1-9.8 6.8-24.3 5.3-34.5 8.9 10.1 10.2 4.7 24.9 19.7 24.9 31.7 0 46.4-34.9 79.8-34.9 5.5 0 13.7.2 20.7 5.2-5.1 9.5-15.4 4.2-24.7 8.3-9.3 4.1-14.4 13.2-21.5 20.2-3.5 3.5-9.1 2.9-12.5 7.3-7.6 10.4-2.7 20.1-14.5 20.1-3.8 0-7.6-1.4-11.8-2.6l8.8 9.4s-1.6 12.6 17.5 15.8c19.1 3.3 25.3 13 25.3 13l-20.4 2.9 42.7 23.1c1 .4 1.6.9 1.6.9l-1.6-.9c-2.6-1.1-8.3-1.9-14.2 7.3m-7.4-67.7c-2.5 2.8-6.8 9.7-12.3 9.6h-11.5c-.3-7.5 4.1-11.9 4.4-14.9h14.4l5 5.3z"/><path class="st5" d="m1207.1 1153.5 20.1-19.8c-.5.2-.9.5-1.4.7 1.8-7.7 4-17.2 4-22.7s-6.5-28.2-8.6-41c-2-1.9-5.6-1.6-8.3-1.7-6.9-9.6 5.7-25.1-3.8-37-3.5 6.1-8.4 13-16.3 15.1v-20.8c-.2-5.5 17.6-15.8 27-24.8 12.2 6.7 7 14.3 6.1 21-.5 2.2-.5 3.1-.5 8.5 0 15.3-.5 5.3 14.2 15.1 3.2 8.5 3.1 17.1 6.7 25.3l11.8-11.9c-6.1-3.5-15.3-12.1-15.3-17.5 0-5.5 6.8-11.7 13.3-17.9v-31.3c-5.7.1-12.2.1-19.3-.1 0 0-2.7.2-2.7-5.3 0-8.2 15.7-19.1 19-24.6 7.1-12 7.3-28.1 12.2-41.9 5.3 2.2 10.2 4.8 12.3 9.5v45.1c5.7 0 12.5-2.2 19.5.2 2.4 4.7.4 11.8.3 52.8 2 1.8 5.5-.7 12.5-.6l5 5.3c0 .1-.1.2-.1.2l6.8-2.2V988c-17.7-5.6-10.5-21.9-15-36.9-1.5.2-2.3-2.3-3.5-4.2-1.4 3.8-8.3 10.7-15.6 15.3-2.9-2.5-5.4-4.3-5.4-9.8 0-5.5 6.6-31.4 6.7-36.9V881c-1.3.3-2-2.2-3.4-4-11.8 15.2-9.9 12.8-10.3 25.4v9.5c-10.1-6.7-14.8-15.8-18.4-23.9-1.7 2.4-16.2 42.1-16.2 49.2 0 5.5 4.4 5.5 4.4 10.9 0 5.5-4.5 13.6-7.7 19.6 0 0-1.7 1.1-9.1 3.2-2.7-7.2-4.9-13.8-6.1-19.5-1.1 5.8 1.8 14.8.2 21-2.4 8.8-11 18.6-17.6 28.7-2.2 3.3-10.3 4.5-14.3 8.1 1.8 1.4 2.1 6.8 1.3 11.4-7.5 10.1-9.9 22.2-13.3 27.8-3.7 3.1-8.2 3.3-11.7 5.2-2.5 8.4-4.7 17.2-8.1 25.6-17.3.7-6.7 24.9-19 37.8h-12.3s4.5-2.3 2.7-4.7c-.6-4.6-.7-11.3-.6-17.6 0 0 .3-1.6-.8-3.5-1.4 10.1-3.6 25.2-3.6 30.6 0 5.4.8 7.6 2.2 44.7.6 15.3 2.9 31.5 9.2 45.5 4.6 10.6 10.3 17.5 13.7 25.5 14.3-30.2 28.3-66.3 49.9-85.1 2-.3 5.6-.9 7.2 1.1m-21-33.1c0 6-.9 4-6.1 9.2-.4 10.5 1.7 23.8-1.5 36.5-1.7 1.1-6.1 1.1-9.6 3-2.5 12.7-4.8 28.2-12.2 44.1-11.1-11.2-10-14.7-10-24 0-5.5 15.3-63.3 15.3-68.8 0-5.4-4.3-8.7-4.3-14.2 0-5.7 7.5-19.6 19.1-23.9 2.8 11.7 9.3 32.7 9.3 38.1m23.3 27.2c-14.2-12.5-21.1-37.1-21.1-48 0-5.5 4.4-31.9 9.3-47.9 7.7 2.1 11.8 21.5 12.4 26.6 2 1.9 5.6-.6 8.5-.2.3 5.1 2.5 7.3 2.5 12.7.1 5.6-6.5 38.6-11.6 56.8M1164 339.3c16.3 4.8 41.8 13.5 47.2 13.5 1.1 0 7.9-.7 14.1-10.1l-3.9-1.8h1s23 14.7 62.8 11c-34.2 10.5-66.1 20.6-78.4 20.6-17.7 0-34.8-20.5-42.8-33.2"/><path class="st0" d="M467.8 553c-.3 0-.6.1-.9.1 1-.7 2-1.5 3-2.4-.6.9-1.3 1.7-2.1 2.3"/><path class="st5" d="M996.7 279.5c-.7-6.1-2.8-12.2-4.7-19.5l-20.6-7.5c4.7 4.6 9.2 9.2 11.4 14.5-22.1 5.2-17.1 6-64.4 5-19.9-.3-8.5 12.2-18.6 21 2.7 7.3 19.1 5.1 27.9 10.2 7.4 4.4 16 15.2 19.3 21.8 3 6.3 3.1 13.5 3.6 19.7 1.5 1.9 3.7 4.2 5.2 6.6.9 4.5.9 9 1.3 12.9 3.5 1.9 8.9 7.2 9.7 11.3.8 4.1.8 9.3-.8 13.1 1.4 1.7 5.9 4 10.3 13.8-3.1.5-2 2.7-7.5 2.7s-13.3-4.9-19.8-6.1c-9.8-1.6-25.4 1.1-38-9.9-.1-4.8 4.9-10.2 8.7-11.5-10.5-7.8-23.6-12.1-34.9-21.5 2.3-5.1 9.5-10 15.3-11.3-14.8-9.9-32.4-18.6-48-32.2 1.6-10.9 11.1-12.7 35-11.8-6.5-7.6-17.5-12-23.7-22-27.7-3.1-65.5-22.5-93.3-20-24.1 0-26.2-2.2-29.5-2.8 3.2-3.9 7.2-6.9 11.7-9.3l-41.1 9.9c6.5 0 8.7 2.2 11.8 2.7-4.3 9.8-8.6 25.8-17.8 31.2-19.1 11.2-44.2 6.7-65.9 12.4-2.4.5-4.4 6.6-8.8 7.4-6.5 1.1-15.6 2.1-23.8 5.7-3 1.1-37.3 25.7-46.6 25.7H549c-2.3-2.3-2.5-4.4-4.6-7.1L486.8 364h10.7c.3 3 2.4.8 2.4 6.3 0 5.4-13.4 22.5-14.8 34-.8 6.5 1.6 15.3.8 24.3-3.7 4.7-7.8 5.1-13.3 5.1-10.1 0-10.2-4.3-30.1-17.4l-39.3 50.5h7c-1.3 4.2-2.7 8.7-4.2 13.2 4.4-6.3 9.9-7.4 11.3-7.5.2-.3.3-.5.4-.7 10.8-3 29.7-9.5 35.2-9.5 22.9 0 8.2 24 29.5 24 5.4 0 4.7-1.9 6.6-3.6-2.2-8.2-6.6-13.9-6.6-19.4 0-7.1 25.9-57.4 44.4-70.9 2.5 0 4.7 2.1 7.8 2.5v9.2c.2 5.5-9.3 11.8-12.6 16.2-2.7 3.8.7 10.9-1.2 17.1-2.2 6.9-10.1 15.4-14.5 23.4 0 0-2.1 1.4 3.3 1.4 5.5 0 5.8-1.9 8.6-4.3 0 0 2.4 2.2 5.4 2.6-2 9.7-1.9 13.8-2.4 19.4 4.4-2 20.2-21.5 20.2-27.5 0-5.5-6.6-4.3-6.6-9.8 0-5.5 9.9-10.1 14.8-15 5.7-5.7 5.7-12.7 7.6-19.2 3.8-12.5 25.5-21.2 33.6-22.5 2.6 2.4 2.9 2.1 2.9 7.6s-4.6 15.9-8.7 21.9c0 0-.3 1.4 1.3 3.3 3.7-2.1 5.6-6.2 10.3-10.9h7.5c2.4 2.4 4.9 2.1 4.9 7.6s-5.7 17-9.7 22.5c-2.5 3.3-11.3 4.7-17.1 7.4-16.1 7.9-17.5 28.7-24.4 42.7-4.4 9.3-16.4 18.8-20.4 28.3-2.5 6-2.7 12.7-3 20.6 1.5-.3 5.5-4.2 8.5-8.6 7.6-10.6 9.2-22.8 14.4-32.6 7.9-14.5 21.4-28.6 33.3-42.1 0 0 3.2 0 3.2 5.5 0 5.4-5 15.9-8.3 24.4-.5 1.9 1.7 5.1 1.7 10.5 0 5.5-9 20.4-17.5 30.5 1.9 1.5 8.5 1.5 10.9 4.3-2.3 5-6.5 9-8.1 14.6 6.5-4.4 17.1-11.1 22.6-11.1h38.6c1.8-1.9 5.9-5.5 5.9-7.3-1.9-1.9-5.5-1.5-10.5-1.7 0 0-2.7.2-2.7-5.3s9.2-11.9 12.5-16c3.3-4.1.8-18.4 17.6-22 2.7 9.4 9.3 24.9 9.3 30.4s-10.7 20.2-17.8 27.3c-3.6 3.5-12.1 3.2-17.8 6-7.6 3.8-13.6 10.4-19.1 10.4-5.4 0-12-6.5-17.5-6.5s-27.3 17.5-32.8 17.5c-11.2 0-9.7-9.3-14.4-17.5-10 10.6-18.6 23.6-27.3 36.4v5.7c5.9 1.7 14.3-.5 26-.2.3 2.9 2.5 2.9 2.5 8.4 0 18.5-32.2 14.5-39.8 20-8.2 6-2.9 18.9-15.5 24.9-3.8 1.7-10.9.8-14.8 2.6.2 1.6 4.6 2.7 4.6 8.2 0 13.6-16.5 7.8-22.4 10.2-12.5 10.6-10.1 22.6-26.6 34.5-2.1 1.4-4.3 2.9-7.1 4.4-.8-1.4-1.3-2.9-1.8-4.4-1.2-4-1.4-8.2-2.5-10.9-3.4 2.8-4.9 6.6-5.4 10.9-.8 5.9 0 12.7-.7 18.7-.8 6.6-7.9 16.5-7.9 22v10.3c1.9 1.7 1.1 1.4 6.6 1.4 21.9 0 21.7-21 39.4-36.2 0 0 2.2-5.3-3.3-5.3s-12.2 17-19.2 26h-9.9s-.1-2.3-2.6-5.2c5.6-10.9 12.9-21.2 20.7-31.9 4-5.4 8.2-11 12.4-16.6 7.6-3.7 13.5-2 22.5-7.4 7.1 4.6 7.5 11.4 11 17.5 8.4-9 17.5-9.8 22.8-20.6-1.8-1.6-5.4-1.2-10.3-1.3-2.5-2.4-2.8-2.1-2.8-7.6s15.5-24.7 25.1-36c3 2.5 0 13.1 5.5 13.1 4.1 0 14.8-6 15.5-17 7.1-2.6 18.3-4.8 23.8-4.8s22.1 6.6 27.6 6.6h34.3c1.8-1.9 4-6.2 5.9-7.6-22-14.5-50.5-13.3-76.5-26 4.2-7.5 27.2-12.4 32.7-12.4 5.5 0 32.8 13.1 38.2 13.1 6 0 22-1 26.5-9.9-1.3-3.9-1.2-11.5 1.9-15.6 30.7-5.6 35-64.1 66.7-64.1 5.5 0 4.4 4.4 9.9 4.4s23.6-8.6 35.2-13.1c0 0 10.6.3 16.1 6.9 0 .1-.6 0-1.7-.2 5.1 2 10.9 7.1 21 18.5 13.7 5.6 35.8 16.1 39.8 16.1 16.1 0 41.5-20.4 41.5-38.2 0-5.5-10.9-13.1-10.9-18.5 0-7.2 22.4-11 25.1-11 9.3 0 16.7 8.6 28.2 24.1 1.3-8 1.6-17 4.1-25.5 3-10.6 19.6-30.6 17.5-41.5 8.5-7 21.3-11.7 26.7-11.7 14.2 0 7.5 5.4 22.5 16.9 3.3 2.5 10.8 3 16.6 7.2 0 0 1.4 2.2 1.4-3.3s-8.7-15.2-9.4-23.5c-9.9-8.4-20.8-10.5-29.9-18 7.1-5.3 15.9-5.3 24.2-9.3-.1-6-2.4-14.7-2-22 8.5.2 27.4 11.1 34.2 16.6 6.3 4.9 15.2 7.2 23.7 9.9 4.4 1.4 6.2 6 11.7 6 5.5 0 20.1-10.7 28.5-16.7-4.3-11.4-24-10.1-32.3-9.7-2.6-4.8-.5-10.8-.5-16.2 0-5.5-24.1-38.2-24.1-43.7s4.8-5.1 6.6-6.4c-14.4-8.1-31.7-12.4-49.2-20.1M786.4 464.7c9-6.9 22.8-13.6 28.3-13.6s21.8 2.2 27.3 2.2c17.5 0 18.6 21.6 18.6 27.3 0 8.8-.8 20.8-14.2 20.8-5.5 0-39.9-17.6-60-28.9v-7.8zm-67.8-6.2c-.1-.9 16-40 18.9-44.1 3-4.1 4.2-12.1 7.5-15.4 5.2-5.2 19.3-6.8 24.8-6.9 11.7 0 31.7 1.9 31.7 20.8 0 5.5-2.3 13.6-7.3 15.5-12.6 4.6-27.1 5.4-39.2 12.2-9.8 5.4-11.4 26.2-26.5 34.3h-10v-16.4zM613.3 484v13.8c.3 5.4-9.5 12.2-14.9 12V500c-.1-5.5 6.9-11.6 14.9-16m20-61.3c0-5.5-4.1-4.7-6.4-7.2v-9.9c3-.3 4.1-2.5 9.6-2.5 5.4 0 17.7 11 25.9 13.1 3.9-4.1 5.9-10.5 8.8-14.4 4-2.9 11-3 15-3.8 6.3-5.6 8.6-12.2 15.7-16.8 5 2.3 7.7 5.5 7.7 11 0 7.6-40 72.3-46.3 77.5-1.6 1.4-7.2.9-11 3.5-4.4 3.3-8.8 10.5-20.4 17.2-2.9-2.5-5.3-1.1-5.3-6.6s6.6-16.7 8.9-22.4c-8-1.6-16.8.5-25.9-1.8 0 0-.1-2.3-2.6-5.2 9-11.6 26.3-26.2 26.3-31.7m-28.5-30.5c0-4.1 13.4-26.2 21.1-26.1h13.6c-.6 15.5-18.3 25.9-24.4 32.5h-7.5c-2.5-2.4-2.8-1-2.8-6.4m-6.5-40.5c-2.3 5-2.2 7.7-2.2 13.2 0 9.6-8.7 14.2-13.1 14.2-5.4 0-4.4-6.6-9.9-6.6s-12.7 4.3-20.4 6.3c3-15.8 26.8-30.3 40.4-32.4l5.2 5.3zm207.5-63.6c-8.9 15.9-32.9 15-44.4 19.4-6.8 2.5-13.3 8.5-19.8 9.6-6.6 1.1-15.6-3.1-21.7-.9-5.2 1.9-10.4 7.7-17.5 9.6-8.2 2.2-20.2 2.2-30.5 5.7-3.3 1.1-51.4 30.1-62.6 30.1-5.4 0-8.7-4.3-8.7-9.8 0-13.9 17.5-11.3 15.5-31.2 14-3.7 4.7-2.7 50.7-2.6 1.8-1.9 6-6.1 8.5-10.2 2.6-.7 4.6-.7 6.6-1.4 10.8-10.5 23.5-6.3 32.9-11 6.6-3.3 13.6-14.5 19-14.5 5.5 0 5.5 4.3 11 4.3 5.4 0 10.9-8.7 16.4-8.7 5.4 0 8.7 10.9 14.2 10.9 5.4 0 12-4.4 17.5-4.4 5.4 0 8 2.3 12.9 5.1m65.5 125.4c-4.8 2.5-10.8 7-16.3 7-23.5 0-39.1-41.5-71-41.5-5.4 0-24.7 6.5-36.1 10.9 0 0-2.1-2.2-5.2-2.7 2.1-5.4 6.7-10 12.9-15.8-10-8.7-23.7 7.2-30.5-11.1 11.7-14.7 72.6-29.3 73.4-29h11.6c-2.1 7.7-4.2 11.7-4.3 13.5 2 1.8 5.5-.7 27.4-.7 16.1 0 13.2 16.2 12.4 26.7 11.2 4.2 12.1 16.9 8.4 24.4 4.1 3.8 10.5 3.6 17.4 8.4v9.9zm39.4-16.3c.1 2.6-2.4 7.7-5 10.2l-32-2.9c7-5.5 21.8-12.3 27.3-12.3 5.4 0 7.3 2.5 9.7 5m72.2-105.5c0 5.5 16 7.6 21.4 11.7 18.3 13.9 21.2 42.7 46.2 50-.7 8.6-6.4 14.8-14 14.8-5.5 0-17.8-9.9-26.6-12.6-4.1-1.4-8.1-.5-12.8.9-16.9-19.2-22.1-41-46.4-54.7-1.9-1.1-4.8-6.2-7.1-10.9l2.6-9.8h34.1c3.6 8.3 2.6 9 2.6 10.6M497.8 1123.7c0-5.1 9.6-22.9 10.8-29.5-4.7 5.4-9 13.7-10.6 26.4-4.2 34.1-1.7 60.7.5 75.2h9.6c2.5 2.4 2.8 4.2 2.8 9.7 0 5.4-2.4 11.5-6.6 17.2 3.8 1.5 11 .3 11 5.8 0 5.4-2.2 9.8-2.2 14.6-1.2 1.2-3.1 1.9-5.3 2l.7 13.5c.3-.5.6-1.1.9-1.6l14.5 2.6c-1.3 4.7-2.7 9.1-4.1 13.4l4.8 2c1.4-7.3 5.7-11.6 16.9-11.6 5.4 0 8.1 2.3 13 4.9v6.8c0 4.5-1.1 8.9-2.8 12.6l6.6 5c3.1-6.3 7.6-12.4 10.5-14.1 0 0 2.2 2.2 5.3 2.5v21.1l19 6.8c2.5-4.4 7.7-8.6 11.8-8.6 8.2 0 13.2 8.7 13.2 13.1 0 .9-.1 1.6-.2 2.4l9.2 1.4c3.2-6.8 9.1-14.7 15-14.7 4.5 0 9 9.4 12.9 16.8l15.4-3.3v-1.4c0-2.8 1.4-20.7 10.9-20.7 5.5 0 8.5 2.5 10.9 5.2-.6 2.4-1.1 4.8-1.7 7.2l4.2-2.9 2 2.3v-11.1c2.3-2.5 7-4.9 11.8-7.2 4.8 2.3 7.1 6.7 10.5 8.8 1.5-5.9 1.6-14.8 6.4-23.8h10.1c.2 7.9.2 16.4.2 24.5l7.8-16.9c-.6-.7-1.2-2-1.2-4.6 0-10.4 21.7-24.2 29.5-31.7.2.2.3.2.5.4l.9-2.8h-.1v-14.2c-.2-9.5 16.2-28 23-31.3 0 0 1.7 0 2.5 2.5l6.4-13.7h-5.7c-.3-3-2.4-1.9-2.4-7.4 0-8.7 36.6-77.5 44.8-77.5 7.1 0 14.7 11 11.8 17.9 1.3-.4.3 1.7 5.7 1.7s16.3-19.7 16.3-25.1c0-5.5-2.2-15.2-2.9-21.3-5.5-4.1-16.8-9.3-16.8-14.8s15.3-31.7 15.3-37.1c0-5.5-6.5-4.4-6.5-9.9 0-9.2 17.5-14.2 17.5-38.2 0-5.5-2.1-15.9-5.7-24l-8.2 8.5h-9.9c-2.5-18.2-.3-51.1-.3-56.6 0-5.4-3.8-11.4-5.9-18.3-1.9-6.3-.6-13.4-.5-19.6-1.9-1.8-.1-1.5-5.5-1.5-5.5 0-3.5-.4-5 1.7-.5 1.1-.8 2.2-1.1 3.2l-1.5 7.5c-.3 2.7-.6 5.4-1 8.1-.3.3-.6.5-1 .7-.7 2-2.3 6.1-4.8 12.4l-1.9 9.1c7.3 7 19.6 6.3 19.6 17.4 0 5.5-4.4 8.8-4.4 14.2 0 5.4 11 17.5 11 22.9 0 5.4-8.8 24.3-11.9 36.9-3.8 3.2-8.1 3.2-12.1 6.7 1.8 1.4 5.4 1.1 10.7 1.4v7.1c.2 5.4-8.9 10.3-10.3 15.7-1.1 4.4 1 12.4-1.5 15.7-4.1 5.5-12.4 11-18.7 17.2.1 4 6 7.4 10.9 10-1.3 9.1-21.8 28.1-21.8 42 0 5.5 4.4 13.1 4.4 18.6 0 5.4-2.4 14.8-7.4 21.7-5.1-2.2-12.2-7.3-13.4-13-3.3 10.2-5.5 21.2-11.2 33.1 4.3-2.5 9-4.7 13.7-4.6 0 0 1.9 2.1 5.1 2.4v7.1c.2 5.5-12.3 22.7-22.2 28.8-7.6 4.6-25.7 5.3-31.2 5.3-4.6 0-24.1-10.8-26.8-14.9-37.8-5.8-5.1-15.7-35.5-15.7-5.4 0-7.7 6.6-13.1 6.6-5.8 0-37-7.3-43-17.6-19.2 5.6-.1 32.8-18.2 32.8-5.5 0-5.5-2.2-8.6-2.5v-14.2c-.2-5.4 4.3-6.8 6.4-10.3-3.9-1.6-11-3.2-17-6.8-4.6-2.7-7-8.7-7.7-12.5-5.3-1.8-17.2-4-22.7-4.1H546c-2.5-4.9-6.4-10.9-10.5-13-2 .1-5.6 4.1-8.1 6.5h-7.5c-2.5-2.4-2.8-2-2.8-7.5s6.6-6.6 6.6-12c0-5.5-6.4-11.5-7.7-15.3-3.9 6.2.6 17.7-15.5 21.8-2.4-2.2-2.7-2.9-2.7-8.4m181.3 92.8c0-7.4 1.3-13.1 14.6-14.1l4.9 5v20.8c-3.1.3-4.1 2.5-9.6 2.5-7.9 0-9.9-8.2-9.9-14.2M567.7 1177c-2.3 5.1-7.7 12.2-13.1 12.2-5.5 0-8.4-2.6-10.9-5.3 2.2-5 7.1-12 11.7-14.3h7.3c2.5 2.4 2.5 4.6 5 7.4m65.6 59.1c0-12.3 3.5 2.3 2.6-38 9.7 2 20.1 2 29.5-.1 2.7 4.9 2.8 9.7 2.8 15.2s-3.9 16.4-6.1 23.3c-1.9 6.3 2 13 .9 19.5-.8 4.4-6.3 9.5-11.4 11.8-7.2-9.2-18.3-26.2-18.3-31.7m-26.3 20.8c0-5.4 6.9-17.1 11.6-21.7 2.6-.1 5.2 2.2 7 3 1 4.3 3.3 7.8 3.3 13.2 0 5.4-2.2 6.6-2.5 14h-16.5c-2.5-2.3-2.9-3.1-2.9-8.5m-32.7 5.4c0-5.5 15.4-37.5 22.3-55.5h9.8c2.5 2.4 2.8 1 2.8 6.4 0 5.5-7.9 36.5-11.8 53.8-.3 2.2-4.7 5.2-10.1 5.2-5.4 0-13-4.4-13-9.9m-19.7-38.1c0-3.9 14.5-34.8 18.7-37.1 2.8 2.5 4.3 2.2 6.8 2.2 2.5 2.5 2.9 2.1 2.9 7.6 0 8.7-12.8 38.2-18.6 38.2-10.1-.1-9.8-9.3-9.8-10.9m-21.8-8.8c0-5.5 4.5-12.6 9.3-19.6 2.7-.1 7.1 2.1 10 2.4.3 3 2.5.8 2.5 6.3 0 5.4-4.5 14.8-9.5 21.8-5.2-2.3-12.3-5.4-12.3-10.9m-19.7-46.6c2.2-7 5.9-12.3 10.9-12.3 5.5 0 12.1 2.2 18.1 2.2l3.4-2.1v12.3l-15.9 15.9c-7-2.2-9.5-11.1-16.5-16M1345.6 926c0 2.2-.2 4.4-.4 6.6 4.7-22.4 16.4-48.6 20.5-63.9-1.2-4.8-2.8-10.2-4.4-15.2h-.1c-.5-1.8-1.1-3.4-1.7-5l-4.4 4.3c-2.9-5-5.2-10.9-5.2-16.4 0-5.4 4.5-20 8.8-30.3l-3.8-3.6c-7.5.3-13.7 6.4-13.7 12.1 0 5.5 2.2 10.9 2.1 18.5l-3.6 2.2c-11-23.2-4.2-51.9-31.2-68.1v-7.4c-.1-5.5 2.8-26.8 7.1-38.8 1.9-5.5 13.6-14.4 19-14.4 5.5 0 6.3 4.7 7.7 6.6 1.4-1.8 1.1-1.1 1.1-6.6 0-1.8-1-4.9-2.4-8.7-2.8-7.7-7.6-18.5-10.5-27.9 3.1-.4 7-.3 12.1-2.6 5 7 7.3 16.1 9.1 26.4 1.5-.2 2.2 2.2 3.5 4h.1c4.4-6.3 5.5-26.5 5.5-32.7 0-5.4 0-11.8-.8-18.4-1.4-11.5-1.4-31.7-1.4-37.3 0-5.4-4.2-14.7-7.7-20.7-9.2 11.3-25.4 14.7-16.4 32 0 0 0 3-5.4 3-5.5 0-15.9-13.3-24.4-18.7-.7-1.7-3-4.3-3-9.7 0-9.8 9.9-22 18.2-25.5.5-.2 1.3-.3 2.2-.2l-2.2-2.6-6.6-28.6-43.4-19.1L1248 485c-6 .7-11.9 1.4-17.6.3-9-2-17.6-11.2-26.3-14-4.1-1.4-9.8.7-13.4-1.5-24.6-15.3-14.7-16.5-32.2-16.5-8.8 0-16.3-2.1-25.7 10-9.2.9-20-1.3-30.1.2 4.1 3.3 13.3 4 16.6 10.1 9.8 18 29.3 54 29.3 59.5 0 5.4-4.4 2.2-4.4 7.6 0 5.4 6.6 7.6 6.5 12.4-2.4 2.5-6.8 4.7-12 9.4-9.5-11.3-18.3-26.7-28.4-41.4-3.5 4-10.5 6.5-16.4 8.2l1.9 7.4c3.7-.3 5.9-6.8 11.4-6.8 5.4 0 5.4 2.2 8.5 2.6-2 11.8-4.1 13.8-4.1 19.3 0 7.9 15.1 19.9 28.4 29.4-4.7 5.2-11.5 5.4-15.3 6.8 4.1 3.4 10.3 4.5 16.6 5.9 2.4.5 8.4 4.1 10.8 8.7 8.2 14.7 18.3 32.7 29.3 48.2v7.5s.1 2.6-5.4 2.6c-10.4 0-24.3-22.3-30.5-30.6 0 0-1.2-2.2-1.2 3.3 0 31.4 31.6 22.7 45.9 52.6-2.5 2.7-2.2 3.1-7.6 3.1-5.4 0-38.2-17.5-43.7-17.5-8.4 0-27.3 19.4-27.3 25.1 0 .3 0 .7.1 1 1 5.6 9.2 14.7 10 22.9 1.1 13.1-3.3 26.3-.9 39.2 1.7 9 6 19.6 7.1 27.5 1.2-12.2 3.3-36.1 3.3-41.5 0-5.5-6.5-24-6.6-29.5 0-4.7 8.1-11.2 12.1-18.6.6-1.3 1.2-2.5 1.7-3.7 1.7-2.3 2.6-2.8 8-2.8 3.6 0 9.6 3.8 15.8 6.5h.1c3.2 1.5 6.6 2.7 9.7 2.9 4.7 4 9.3 10.8 11.6 15.9-2.5 2.8-3.3 3.1-8.8 3.1-5.4 0-8.1-2.3-11.8-4.4-11.5 10.9-6.7 27.1-8.7 42.7-1.1 10.9-10.1 30.4-10.1 35.9s6.6 24 6.6 29.5-2.5 7.3-7.2 11.8h-7.8c-.3-3-2.1-4.4-3.6-6.3-1.4 1.9-1.1 2.2-1.1 7.6 0 5.3 4.1 11.6 4.4 17v.5c0 8.4-5.1 19.9-15.4 20 1.9 1.1 2.3 6.2 2.1 10.1l3.9 3.8h16.4c3.7-7.7 3.9-25.6 10.9-34.4 2.9-3.7 7.1-5.9 13.3-4.9 9.9-14.6 8.1-22.2 8.1-33.9 0-5.5-2.2-19.4-4.3-28.7 2.5-2.7 1.1-5.2 6.6-5.2 5.4 0 12 2.2 17.1 2.5.4 9.5-1.8 20.4-1.8 25.9 0 6-1.7 17.6 5.8 21.9 1.8 0 5.2-2.2 5.2-7.7s-6.6-46.9-6.6-52.4 6.6-15.3 6.6-20.8-8.7-22.9-8.7-28.4c0-9.3 1.9-15.8 6.9-24.1 2.3-3.8 5.2-8 8.9-12.9 2.7-.1 7.7 4.4 9.6 5.7 4.2.8 10.5-1.4 15.6-1.2 1 2.9 1.9 5.7 2.7 8.5 3.1 10.6 5.4 20.7 9.9 30.6 1.2-1.8 3.1-5.5 3.1-7.7 0-11.2.2-18.3 1.1-23 1-5.4 3.1-7.4 7.1-8.6 1.1 2.5 2.4 5.5 3.9 8.6 5.3 11 12 24.2 12 28.5 0 12.5-17.9 15.2-21.4 23.3-4.3 10.1-2.6 29.1-2.6 34.5l2.2 61.1c0 2.3.6 5.2 2 8.3 1.2 2.6 3.2 5.4 6 8.2h14.2c.6-2.7 1-5.5 1.3-8.3 1.3-12.2 1.1-24.9 10.1-37.7 6.3 3.7 10.1 9.2 10.1 10.8 0 5.5-6.6 6.9-6.6 12.3V860c1.9 1.8 0 1.5 5.5 1.5 2.8 0 6.8-.5 7.5-8.1l.1-1.8c1.1-24-2.4-28.8-1.6-32.9 1.1-4.3 6-8.5 6-14 0-5.4-6.5-6.5-6.5-12 0-5.4 2.2-10.9 2.5-18.2 3-.3 8.3 2.4 9.7 4.6 8.7 23 16.7 48.6 22.5 74.3 5.7 25.2 9.1 50.3 9.1 72.6m-101.4-275.5c.8 2.2.9 3.7.9 9.2 0 5.4-2.2 15.3-2.2 22.3-2.4 2.5-1 2.8-6.5 2.8-27.4 0-12.7-23.8-38.2-34.9 0 0-1.4-.3-3.3 1.1 4 3.6 10.8 8.3 12.9 12.9v9.8c-3.1.3-2 2.5-7.5 2.5-8.1 0-15.2-10.9-15.8-18.5-1.3-19.7-4.3-42.1-10-60.9-3-9.9-12.4-20-12.4-25.5s2.4-6 3.7-8.1c.8-2.1-1.5-2.8-1.5-8.2 0-14.5 19.6-6.3 19.6-24 0-12.2-20.4-7.9-23.5-8.7-6.9-10.4-13.3-21.2-22.4-30.6 6.8-9.5 11.1-18.1 16.1-25.2 4.6 1.7 17.1 10.8 25.3 23.4-5.3.6-9.7 2.8-13.5 2.6 0 0-1.6-2-1.6 3.4s3.9 5.7 8.1 9.1c9.3 2.7 16.3-6.5 23.4 5 1.3-3.7 1.2-7.6 1.3-12.4l5-5c2.6-.1 7.7 2.4 12.3 7.2v26.3c.1 5.5-13.2 29.3-21.8 41.5 3.8 1.5 9.5 1.5 17.2-.6-1.9 14.1-1.9 20.5-2 27.7-4.8 2.6-11.9 2.7-17.5 2.1 7.9 11.7-5.2 21.9 14.1 29 1.6-1.9 3.5-5.5 3.8-8.6h7.1c6.6-.1 25.3 25.9 28.9 33.3m22.8-44.3c0 5.5-2.2 7.6-2.5 10.7h-10c-6.9-9-15.9-22.7-15.9-28.1 0-5.5 2.5-8.4 5.1-10.9 16.4 2.6 23.3 20.9 23.3 28.3m31.7-55.1c-3.3 4.4-11 9.2-16.5 9.2-5.4 0-10.8-7.1-12.9-11.8v-9.8c3.1-.3 4.2-4.7 9.6-4.7 5.5 0 15.3 4.4 25 5.1-2.3 3.4-2.1 7.9-5.2 12m5.4 100.1 2.9-21c7.7 6.8 14.2 17.7 23.2 26.8v7.5c-2.4 2.5-1 2.8-6.4 2.8-5.5 0-15.1-9.2-19.7-16.1m-10.7 43.7v-14.2c14.1.8 18.1 22.5 19 34.5-5.4-3.1-19.2-14.3-19-20.3M1078.2 1247c-.8-21.5.2-53.4-10.3-75.1h-10.4c-6.4 9.1-13.4 43-13.4 49 0 5.4 4.4 18.6 4.4 24 0 6 2.2 21.4-7.2 27.4-1.6-34.1.6-44.9.3-54.4-27.5-2.2-9-30.3-27.4-35.2-7.1 11.4-11.5 22.3-17.2 32.7-1.3-1.9-2.1-4.4-3.5-4 1.9-17.2 6.7-35.9-5.1-44-5 2.3-7.4 6.8-8.8 8.7-1.4-1.9-2.2-4.4-3.6-4.1.3-15-8.4-20.5-8.4-30.9 0-5.5-.3-2.5 1.3-4.4 3.7 2.1 8.5 4.4 14 4.4 13.4 0 21-33.4 23-39.3 9.4 15.3 4.7 50.2 29.8 45.6-.3 10.1-2.6 21.2 0 32.8h10.1c2.6-7.1 4.8-13.8 5.1-17.6 7.6-1.8 17.2-10.5 22.7-10.5s3.5 1.7 3.5 1.7c2 12.6-3.4 26.7.4 36.8 4.4 12 12.5 11.9 12.5 20.4 0 5.5-4.4 36.1-4.4 41.5 0 5.5 6.5 17.5 6.5 22.9 0 4.7-1.6 12.5-3.2 35.4l-7.7 4.1c.6-6.1 2.1-11.7 2.1-16.5.1-5.5-4.2-33.9-5.1-51.4"/><path class="st0" d="m970 252 1.1.4h-3z"/><path class="st3" d="m395.2 481.7 5.4-11.4c-1.2 3.4-1.7 6.8-3.9 9.6l-1.5 1.8"/><path class="st0" d="M1343.2 549.7c1 .4 1.6.9 1.6.9l-1.6-.9z"/><path class="st5" d="M1263.6 484.4c2 .3 3.9.7 5.8 1.2l8.8 9.3s-1.6 12.6 17.5 15.8c19.1 3.3 25.3 13 25.3 13l-20.4 2.9 42.7 23.1c-2.7-1.1-8.3-1.8-14.3 7.3-3.6 5.6-5.3 9.6-6 12.4-.2 0-.5-.1-.7-.1l-2.2-2.5-6.6-28.6-43.4-19.1-21.9-34.3c5.2-.5 10.3-1.1 15.4-.4"/><path class="st4" d="M510.9 1035.5c0-.8.3-1.7.8-2.6-1-1.6-2.3-4-3.5-7.1-4.5 1-10-.4-13.3-.5-1.8 2-1.5 1.2-1.5 6.7 0 53.8 116.4 86.5 121.3 86.5 8.7-.2 17.5 3 27 3.4.3 5.1-6.5 8.1-10.6 11.6 6.1 3.5 17.5 7.7 23 7.7 54.1 0 89.7-45.4 114-106.3 6-14.7 7.9-33.6 14.5-50.2 9.8-24.4 27.4-57 45.9-80.9 1.4-3.2 2.5-6 3.5-8.5l2.3-10.5c-5.7 3.5-13 5.3-17.7 10-7.4 7.4-12.5 15.4-19 23.4-4.4 5.5-.6 15.6-3.4 21.6-8.2 18-18.7 37.6-30.7 54.8-3 4.3-10.2 6.6-16.1 12.9-.5 1.9 1.8 3.9 1.8 9.4 0 28.6-41.2 32.2-52.9 32.5-1.8 6 .4 12.2.3 19.2-2.4 2.5-6.5 5-12 5-8.4 0-27.3-10.2-35.4-19.8-1.7.1-5 2.3-5 7.8 0 4.1 7.7 31 15.3 41.7 0 0 0 3-5.4 3-5.5 0-11.7-6.9-15.7-11H591c-5.5 0-11-10.5-18.3-14.9-3.6-2.2-8.9-.6-13-4.1 2.2-26.1-39.1-20.9-48.8-40.8m150.9 75.6c8.7-4.5 26.9 1.8 35.1-7.5 6.5-7.7 13.1-16.7 20.8-23.6l2.9 18.5c-.6 20-32 29.5-42.6 29.5-5.5 0-11.4-.2-16.2-2.8-.1-4.8-.1-9.1 0-14.1"/><path class="st4" d="m831.9 895.2 2.3-10.5c.9-.6 1.7-1.2 2.5-1.8-.7 1.9-2.3 6.1-4.8 12.3M838.7 874c.3-2.5.7-5 1.5-7.5l-1.5 7.5zM384.1 884.5c0-20.4-11.6-1-23.6-24.5-1-2-1.6-4.2-1.7-6.5-.8-8.8 2.8-19.6.3-28.5-6-4.6-12.1-7.1-12.1-12.5 0-5.5 4.4-7.6 4.4-13.1s-10.7-12.8-12.6-20c-2.2-8.2-4.9-23.7-4.9-29.2s.5-16.6 2.7-24.8c1.9-7.1 10.4-11.2 10.4-16.7 0-1.5-2.1-5.3-1.6-11 .3-2.5 1-5.5 2.8-8.7 1.3 1.9 2.6 3.9 2.6 3.9 1.1 1.6 2.1 3.2 3.1 4.8 1.7 2.6 3.2 4.8 4.7 5.7 4 .8 7.2.7 9.3 1.6l.5.9c-5.9 5.7-9.4 12.3-9.9 16.8-1.6 13.1-4.9 37.3-4.9 42.7 0 5.5 8.6 11.2 10.2 14.7 8.2 16.1 3.4 35.7 16.9 51.9 1.8 1 4.5 5.4 10 5.4 9.3 0 2.4-16.9 22-15.7v9.8c-6.4 6.2-10.4 3.2-15.5 13.7.5.6 3.7 3.8 7.8 8.1 7.7 8.3 18.4 20.8 18.4 28.8 0 13.9-27.5 16.5-32.8 19.5.4.5.9.9 1.3 1.4l-.3.1s-7.6-7.3-10.5-12.9c2-1.7 3-3.3 3-5.7M803.2 517.9c-5-2.1-9-3.5-10.4-3.5-5.5 0-8.4.3-10.8 2.8-.6 8.3 3.1 18.5-9.9 23.4-12.4-6.4-12.1-12-12.1-18.6 0-11.2 3.9-12.1 13.2-24 0 0 6.1.9 9.1 1.3 5.1 2.2 10.9 7.2 20.9 18.6M406 479.9c-5.5 17.3-11 34.6-11 38.9 0 12.3 15.3 49.7 34.8 50.6v7c.2 5.4-8.6 13.8-11.5 20.6v2.7c11.2-12.1 14.4-21.5 28.5-30.3.6-1.9.6-6.1 1.3-8.6 6-4.4 12.7-6.8 18.7-7.6.9-.7 2-1.6 3-2.4 2.7-3.5 3.9-8.3 4.5-14 17.1-9.1 20.4-21.9 25.5-36.5 0 0 .3-1.5-1-3.3-3.6 6.1-7.3 13.1-10.9 19.1-2.7 4.6-10.7 6.4-14 11-4.6 6.6-11 17.9-21.1 17.9-5.5 0-10.1 1.2-18.7-7.5-12.8-17.8-8.6-25.2-8.6-30.7 0-8.4 8.7-16.4 13.1-16.4 5.4 0 12.8 11.2 18.8 17.4 3.7-2 7.8-4 11.9-8-.3-8.9-22.5-20.4-29.5-20.4-5.5 0-12 10.9-17.5 10.9s-4.4-2.2-7.3-2.5c-.3-2.9-2.5-1.8-2.5-7.4 0-4.8 3.4-6.5 4.8-8.2-1.4.3-6.9 1.4-11.3 7.7m10.9 64.2s1.1-27.5 3.9-27.3c4.8 11.4 7 24.7 8.8 38.9-5.5-2.1-10.4-7-12.7-11.6"/><path class="st1" d="M1343.2 949.2c0-5.1.8-10.7 2-16.5-.3 3.4-.9 7-1.2 11-1.4 15.2-.6 59.9-.6 65.4 0 5.5-4.4 29.5-4.4 35 0 5.4 2.1 28 6.2 42.3-17-7.2-14.6-28.4-17.9-41.9-1.3-2-5.8-1.2-5.7-6.7v-6.7l7.3-2.3c.1 0 14.3-50.8 14.3-79.6M1374.9 785.8l6.5-130.4L1359 579l-36.5-4.5s-.4-1.3.3-4.4l2.4 2.7 36 .7 37.4-25.7 25.7-75.5.7-85.9-29.3-47.6-54.4 4.4-18.6 12c2.6-6.3-1.2-10-19.3-6.1-6.4 1.4-12.4 2.3-18.1 2.8 36.9-11.3 76.5-23.1 97.5-23.1 35.8 0 53.2 29.4 54.6 66.6l-2.2 71.8c6.8 12.8 67.8 68.2 67.6 87.9v13.6c-3.1.3-6.7 0-8.6 1.4 8.4 8 17.3 14.6 24.1 24.1l-6.6 6.4c10.5 7.9 21.6 19 30.5 30.6-2.4 2.9-4.9 5.3-8.7 6.8 6.4 7.8 17 16.3 28.4 23.6-2.5 3.1-2.2 3.4-7.6 3.4-19.7 0-39.9-21.5-58.9-34.9l-3.4 3.5c4.2 5.7 8.7 12.5 10.8 20.4h-9.4c-9 .2-35.6-40.9-36.2-42.1v-7.6c7.1-2.5 13.3-6.6 19.5-12.3-8.3-5.7-21.5-14.6-32.6-25.9v-7.6c4.8-2.5 9.2-2.5 13-3.8-14.8-7.8-29.8-12-44.5-16.4-3.8 6.2-12.6 14.9-16.8 20.6 10.5 5.9 23.5 10.2 34 17 1.3 4.1-.7 17.4 9.4 21.7 0 0 2.5 2.9 2.2 5.9-3 .3-.8 2.6-6.3 2.6s-7.6-2.2-13.2-2.7c2.2 3.3 6.4 9.6 11.1 14.7-2.5 3-3.3 3.3-8.7 3.3-5.5 0-14.2-4.3-22-5 8.6 9.8 21.5 18.2 34.9 27.4.1 2.7-2.6 8.1-6.5 9.6 2.1 3.5 6.6 8 8.6 15.6-5.3.5-9.6.5-13.1-.1 2.3 3.4 6.4 5.2 11.1 10.2-3.4 6.2-7.9 6.4-13.1 11.1 2.3 2.2 4.8 4.7 7.3 7.6 6.8 7.6 14 16.9 18.8 25.4-5 2.9-13.1 3-18.6 3-5.4 0-8.7 6.5-14.2 6.5s-10.6-9-14.6-13.1c-1.7.1-5.3 1.9-7.2 3.4 6.3 8 15.3 20.7 20.7 20.7 5.5 0 1.1-4.4 6.5-4.4 7.1 0 21.3 20 22.7 30.3h-12.2l-8.8-8.6c-1.7.1-3.1 4.1-7.2 7.7 1.9 1.4 5.2 6.5 5.7 10.8 1.4 10.9-3.3 24.2-.9 34.8 2.9 12 6.1 24.7 8.8 39.1l.1 2c.9 4.6 1.6 7.4 2.2 12.4-11.1-2.6-16.2-7.9-18.8-14.4-4.7-11.6-1.4-26.9-9.6-37.8-5.9 2.2-13.6 10.4-19 4.3-1.4 10.1-1.4 25.2-1.4 30.6 0 .8 0 1.7-.1 2.8-.2 11.2-1.2 35 7.5 38.7 1.6-1.9 6-4.1 8.5-6.4h8v20.2c.1 12-15.2 18.8-17.4 18.8-5.5 0-16.4-8-21.1-13.5-7.9-9.2-3-23.4-3-32.4 0-2.2-.7-6-1.8-10.4.9-3.4 1.5-6.4 1.5-8.5.6-14.2 8.3-74 8.3-74M1100.1 1220.9l15.8-11.3 27.2 55.6 34.9-50.8 26.9-58.9 2.1-2.1c.5.7.9 1.6.9 2.9 0 26.5-57.2 120.4-60.8 126.1-1.1 1.9-.6 6.6-3.7 11.2-3.8 2.3-8.1 4.5-11.7 6.4-2.5 6.3-2.5 14.8-5.3 24.3-5.6-2.8-12.4-9.7-12.4-14.1 0-5.4 4.9-8.7 4.9-13.1 0-6.6 3.8-18.6 3.8-24 0-5.5-4.4-9.9-4.4-15.3 0-5.5 6.6-9.8 6.6-15.3s-10.8-12.6-14.4-20.7c-3.4 4.1-5.3 8.7-5.3 14.2s8.8 28.4 8.8 33.9c0 5.4-5 12.3-6.1 16.6-3 10.7-4.9 23.7-4.9 35.1-2.5 2.5-4.7 2.5-7.2 5-2.6.1-4.7-2.1-7.8-2.5.3-5 .6-9.4.9-13.4l1.8-1 9.4-88.8zM818.7 1146.2l22.4-17.5 7.8 43 30.4 6.1 28.5 30.1 27.2 51.2 11-51.2 20.7-10.9 15.9 25.5 23.6 15.8 27.2 66.6 42.7 12.6 5.1-2.7c-.1.9-.2 1.8-.2 2.7-7.1 2.6-13.3 6.8-20.1 12.6-4.7.9-9.1-1.3-12.9-.8-4.4 3.6-4 7.4-5 12.3-19.6 8.2-38.3 9.9-38.3 9.1 0-27.8 15.3-11.4 15.3-39.3 0-10.9-3.8-17.8-15-17.8-.3-13.9-4.6-28.8-10.4-43.4-1.2 1.9-.9 4.4-.9 9.8 0 5.5 6.6 31.7 6.6 37.2 0 8.7-4.1 12-8.8 12-5.5 0-12.6-4.5-18.3-8.8-1.5 3.8-1.4 9.8-1.5 14.7-2.4 2.6-1 2.8-6.5 2.8-9.3 0-10.9-14.2-10.9-14.2 0-5.8 4.9-15.9 13.3-18-2.3-7.9-2.3-62.6-4.4-71l-3.9-3.9c-1.7.1-3.1 2-5.1 3.8.1 41.1 2.2 48-.3 55.1-2.8.2-2.8.2-8.3.2-10.4 0-2 11.5-7.5 19.7-12.9-11.8-13.4-29.8-20.4-43.8-1.6.2-5.5 4.4-10.1 6.6H898c-2.6-4.9-4.8-9.7-4.8-15.2 0-5.4 8.7-14.2 8.7-19.6 0-5.5-6.2-15.6-11.8-21.9-4.4 14-16.1 38.2-12.5 54.2h-12.4c1.7-7.5 1.2-13.7-.5-42.1-.3-6.9-4.2-14.9-7.8-23-3.4 4-5.4 10.3-8 15.1-2.8.1-9.3-5-9.9-9.5-1.6-13.2 1.7-28.4-.2-43-1.5.3-1.5-1.9-6.9-1.9-13.4 0-22.3 35.5-24.6 39h-2.2l.9-1.8 12.7-36.5zM1223.9 446.6l2.8 4.5-12-8.5 29.4-20.5-3.4 3.2zM760.3 680.1c-4.7-2.9-10.2-10.7-14.7-15.1l-1.3-1.3c-4-3.5-10.2-8-15.8-11.4-1.4-.8-2.8-1.6-4.1-2.3 0 0-.1 0-.1-.1-2.3-1.2-4.4-2-6-2.3-.4-.1-.8-.1-1.1-.1h-26.5c-.5.9-1.2 1.7-1.8 2.6-9.3 13-24 25.7-33.8 25.7-.7 0-3.1.4-5.2-.5l2.1-1 12.6-14.2 9.4-35s82.9 26.8 86.1 50.8c.2 1.7.7 3.7 1.2 5.8-.1 0-.1-.1-.1-.1-.3-.3-.5-.9-.9-1.5M400.6 470.3c.4-1.2.9-2.4 1.6-3.6h1l-2.4 3-.2.6zM1154.1 325.1l-66.7-33.4-90.7-30-4.7-1.7c0-.2-.1-.4-.2-.7 37.6 4.8 85.3 21 121.4 35.1 11.2 4.4 23.4 14.2 34.9 18.3 6 2.2 13.8.9 19.7 3.6 17.1 7.7 34.7 15.8 53.5 24.5l-21.3-1.5-45.9-14.2z"/><path class="st1" d="m1395.7 338.8 29.4 47.6-.7 85.9-25.7 75.5-37.4 25.7-36-.7-2.4-2.7c0-.2.1-.4.1-.6 2.3.2 5.4.9 7.9.9 36.4 0 73.3-49.4 79.5-81.3 4.7-23.5 9.5-66.4 9.5-71.8 0-29.2-9.9-73.2-49.1-73.2-8.8 0-16.5.8-25.3 8.1.1 1.7 4.2 3.1 8.9 8.1-9.7 19.5-32.7 19.9-48.6 30-6 3.8-10.2 11.1-15.1 16-3.5 3.5-9.7 3.4-13.3 5.8-3.5 2.4-3 12-8.7 16.1-9.8 6.8-24.3 5.3-34.5 8.9 10.1 10.2 4.7 24.9 19.7 24.9 31.7 0 46.4-34.9 79.8-34.9 5.5 0 13.7.2 20.7 5.2-5.1 9.5-15.3 4.2-24.7 8.3-9.3 4.1-14.4 13.2-21.5 20.2-3.5 3.5-9.1 2.9-12.4 7.3-7.6 10.4-2.8 20.1-14.5 20.1-3.8 0-7.6-1.4-11.8-2.6l-11.9-12.6-30.7-21.9-2.9-4.5 16.9-21.3 3.3-3.2 6.8-4.8 41.5-30.4s25.6-20.3 30.3-31.8l18.6-12 54.3-4.3z"/><path class="st1" d="M799.6 1184.6h5.7l.9-1.8 12.6-36.5 22.4-17.5 7.8 43 30.4 6.1 28.4 30.1 27.2 51.2 11-51.2 20.7-10.9 15.9 25.5 23.6 15.8 27.2 66.6 42.7 12.6 5.1-2.7c.6-6.1 2.1-11.7 2.1-16.5 0-5.5-4.3-33.9-5.2-51.4-.8-21.5.2-53.4-10.3-75.1h-10.4c-6.4 9.1-13.4 43-13.4 49 0 5.4 4.4 18.5 4.4 24 0 6 2.2 21.4-7.2 27.4-1.6-34.1.6-44.9.3-54.4-27.5-2.2-8.9-30.3-27.4-35.2-7.1 11.3-11.5 22.3-17.2 32.7-1.3-1.9-2.1-4.4-3.5-4 1.9-17.2 6.7-35.9-5.1-44-5 2.3-7.4 6.8-8.8 8.7-1.4-1.9-2.2-4.4-3.6-4.1.3-15-8.4-20.5-8.4-30.9 0-5.5-.3-2.5 1.3-4.4 3.7 2.1 8.5 4.4 14 4.4 13.4 0 21-33.4 23-39.3 9.4 15.3 4.7 50.2 29.8 45.6-.4 10.1-2.6 21.2 0 32.8h10.1c2.6-7.1 4.8-13.8 5.1-17.6 7.6-1.8 17.2-10.5 22.7-10.5s3.5 1.7 3.5 1.7c2 12.6-3.4 26.7.4 36.8 4.4 12 12.5 11.9 12.5 20.4 0 5.5-4.4 36-4.4 41.5 0 5.4 6.5 17.5 6.5 22.9 0 4.7-1.6 12.5-3.2 35.4l1.8-.9 9.4-89 15.8-11.3 27.2 55.6 34.9-50.8 26.9-58.9 2.1-2.1c-1.6-2-5.2-1.4-7.1-1.4-21.6 18.8-35.6 54.9-49.9 85.1-3.4-8.1-9.1-14.9-13.7-25.6-6.3-13.9-8.6-30.2-9.2-45.5-1.4-37.1-2.2-39.2-2.2-44.7s2.2-20.5 3.6-30.6c1.1 1.9.8 3.5.8 3.5 0 6.3 0 13 .6 17.6 1.8 2.4-2.7 4.7-2.7 4.7h12.3c12.4-12.9 1.8-37.1 19-37.8 3.4-8.4 5.6-17.2 8.1-25.6 3.5-1.9 8.1-2 11.7-5.2 3.4-5.6 5.8-17.8 13.3-27.8.9-4.6.6-10-1.3-11.4 4-3.6 12.1-4.8 14.3-8.1 6.6-10.1 15.2-20 17.6-28.7 1.6-6.3-1.3-15.3-.2-21 1.2 5.8 3.4 12.4 6.1 19.5 7.4-2.1 9.1-3.2 9.1-3.2 3.2-6 7.7-14.2 7.7-19.6 0-5.5-4.4-5.5-4.4-10.9 0-7.1 14.4-46.8 16.2-49.2 3.6 8.2 8.3 17.2 18.4 23.9v-9.5c.4-12.5-1.5-10.2 10.3-25.4 1.4 1.9 2.1 4.4 3.4 4v34.4c-.2 5.5-6.7 31.4-6.7 36.9s2.5 7.3 5.4 9.8c7.2-4.6 14.2-11.5 15.6-15.3 1.3 1.9 2 4.4 3.5 4.2 4.5 15-2.7 31.3 15 36.9v43.2l7.3-2.3s14.2-50.8 14.2-79.6c0-5.1.8-10.7 2-16.5.2-2.3.4-4.5.4-6.6 0-22.4-3.5-47.4-9.1-72.5-5.7-25.6-13.7-51.3-22.5-74.3-1.4-2.2-6.7-4.9-9.6-4.6-.3 7.4-2.5 12.8-2.5 18.3 0 5.4 6.5 6.5 6.5 12s-4.9 9.6-6 14c-.8 4.1 2.7 8.9 1.7 32.9l-.1 1.8c-.7 7.6-4.7 8.1-7.5 8.1-5.5 0-3.6.3-5.5-1.4V839c0-5.5 6.6-6.8 6.6-12.3 0-1.6-3.8-7.2-10.1-10.8-9 12.8-8.8 25.5-10.1 37.7-.3 2.8-.7 5.6-1.3 8.3h-14.2c-2.8-2.9-4.7-5.7-6-8.2-1.5-3.1-2-5.9-2-8.3l-2.2-61.1c0-5.5-1.7-24.4 2.6-34.6 3.6-8.1 21.4-10.8 21.4-23.3 0-4.3-6.7-17.4-12-28.5h-.1c-1.5-3.1-2.8-6.1-3.9-8.6-3.9 1.2-6 3.2-7.1 8.6-.9 4.7-1.1 11.8-1.1 23 0 2.2-1.9 5.8-3.1 7.7-4.6-9.9-6.8-20-9.9-30.6-.9-2.8-1.7-5.6-2.7-8.5-5-.2-11.4 2-15.6 1.2-2-1.3-6.9-5.8-9.6-5.7-3.7 5-6.7 9.2-9 12.9-5 8.2-6.9 14.7-6.9 24.1 0 5.5 8.7 22.9 8.7 28.4 0 5.4-6.6 15.3-6.6 20.8 0 5.4 6.6 46.9 6.6 52.4s-3.3 7.7-5.2 7.7c-7.4-4.3-5.7-15.9-5.7-21.9 0-5.5 2.2-16.3 1.8-25.9-5.1-.3-11.7-2.5-17.1-2.5-5.5 0-4.1 2.5-6.6 5.2 2.2 9.3 4.3 23.2 4.3 28.7 0 11.8 1.8 19.3-8.1 33.9-6.2-1-10.4 1.2-13.3 4.9-6.9 8.9-7.1 26.7-10.9 34.4H1126l-3.9-3.8c.1-3.9-.2-9.1-2.2-10.1 10.3-.1 15.4-11.6 15.4-20v-.5c-.2-5.4-4.4-11.7-4.4-17 0-5.4-.3-5.8 1.1-7.6 1.4 1.9 3.3 3.3 3.5 6.3h7.8c4.7-4.4 7.2-6.3 7.2-11.8 0-5.5-6.6-24-6.6-29.5s9-25 10.1-35.9c2-15.6-2.8-31.8 8.7-42.7 3.7 2.1 6.4 4.4 11.8 4.4 5.5 0 6.2-.3 8.8-3.1-2.3-5.1-6.9-11.9-11.6-15.9-3.1-.2-6.5-1.4-9.7-2.9h-.1c-6.2-2.7-12.2-6.5-15.8-6.5-5.4 0-6.3.4-8 2.8-.4 1.3-1 2.5-1.6 3.7-4.1 7.4-12.2 13.9-12.2 18.6 0 5.5 6.6 24 6.6 29.5 0 5.4-2.1 29.3-3.3 41.5-1.1-7.9-5.5-18.5-7.1-27.5-2.4-12.9 2-26.1.9-39.2-.8-8.2-9-17.3-10-22.9-.1-.4-.1-.7-.1-1 0-5.7 18.8-25.1 27.3-25.1 5.5 0 38.3 17.5 43.7 17.5 5.5 0 5.2-.3 7.6-3.1-14.3-29.9-45.9-21.2-45.9-52.6 0-5.5 1.2-3.3 1.2-3.3 6.1 8.3 20.1 30.6 30.5 30.6 5.5 0 5.4-2.6 5.4-2.6v-7.5c-11-15.6-21.1-33.5-29.3-48.2-2.4-4.6-8.4-8.2-10.8-8.7-6.3-1.4-12.5-2.4-16.6-5.9 3.8-1.4 10.6-1.6 15.3-6.8-13.3-9.6-28.4-21.5-28.4-29.4 0-5.4 2.1-7.4 4.1-19.3-3-.4-3-2.6-8.5-2.6s-7.7 6.5-11.3 6.8l-1.9-7.4c5.9-1.7 12.9-4.1 16.4-8.1 10.1 14.8 18.9 30.1 28.4 41.4 5.2-4.7 9.5-6.8 12-9.4.1-4.8-6.5-7-6.5-12.4 0-5.5 4.4-2.2 4.4-7.6 0-5.5-19.5-41.5-29.3-59.5-3.3-6-12.5-6.8-16.6-10.1 10.1-1.5 20.9.8 30-.2 9.4-12.1 16.9-10 25.7-10 17.5 0 7.6 1.2 32.2 16.5 3.5 2.2 9.3.1 13.4 1.5 8.7 2.7 17.3 12 26.3 13.9 5.7 1.2 11.7.5 17.6-.2l-21.5-33.8-12-8.6 29.4-20.4 50.3-48.8 28.3-18.2c2.6-6.3-1.2-10-19.3-6.1-6.4 1.4-12.4 2.3-18.1 2.8-34.2 10.5-66.1 20.6-78.4 20.6-17.7 0-34.8-20.4-42.8-33.2 16.3 4.8 41.8 13.5 47.2 13.5 1.1 0 7.9-.7 14.1-10.1l-3.9-1.8-21.3-1.5-46-14.2-66.7-33.3-90.7-30.1-4.7-1.7c1.9 7.3 3.9 13.4 4.7 19.5 17.4 7.7 34.8 12 49.5 20-1.8 1.3-6.6.9-6.6 6.4s24.1 38.2 24.1 43.7c0 5.4-2.1 11.4.5 16.2 8.3-.4 28-1.7 32.3 9.7-8.4 6-23 16.7-28.5 16.7s-7.3-4.6-11.7-6c-8.5-2.7-17.4-5-23.7-9.9-6.9-5.5-25.7-16.3-34.2-16.6-.3 7.3 1.9 16 2 22-8.3 4-17.1 4-24.2 9.3 9.2 7.4 20 9.6 29.9 18 .7 8.4 9.4 18.1 9.4 23.5 0 5.5-1.4 3.3-1.4 3.3-5.7-4.2-13.3-4.7-16.6-7.2-15-11.4-8.3-16.9-22.5-16.9-5.4 0-18.2 4.6-26.7 11.7 2.1 10.9-14.5 30.9-17.5 41.5-2.5 8.5-2.8 17.5-4.1 25.5-11.5-15.5-18.9-24.1-28.2-24.1-2.7 0-25.1 3.8-25.1 11 0 5.5 10.9 13.1 10.9 18.5 0 17.7-25.4 38.2-41.5 38.2-4 0-26.1-10.5-39.8-16.1.4.5.9 1 1.3 1.6 15.8 18.3-10.4 27.3-10.4 27.3l-39.9 6-.6-39.3s7.1-14.7 17.5-15.3c4.2-.2 7.5-.2 11.1 1.2 1 .1 1.7.2 1.7.2-5.5-6.7-16.1-7-16.1-7-11.5 4.4-29.7 13.1-35.2 13.1-5.5 0-4.4-4.4-9.8-4.4-31.7 0-36 58.4-66.7 64.1-3 4.1-3.2 11.6-1.9 15.6-4.5 8.9-20.5 9.9-26.5 9.9-5.4 0-32.7-13.1-38.2-13.1s-28.5 4.9-32.7 12.4c26 12.7 54.5 11.5 76.5 26-1.9 1.3-4.1 5.7-5.9 7.5h-34.3c-5.4 0-22.1-6.6-27.6-6.6s-16.7 2.2-23.8 4.8c-.8 11-11.4 17-15.5 17-5.4 0-2.5-10.6-5.5-13.1-9.6 11.3-25.1 30.5-25.1 36s.3 5.2 2.8 7.6c4.8.1 8.4-.2 10.3 1.4-5.3 10.8-14.4 11.6-22.8 20.6-3.6-6.1-3.9-13-11-17.5-9.1 5.4-15 3.7-22.5 7.4-4.2 5.6-8.4 11.2-12.4 16.6-7.8 10.6-15.1 21-20.8 31.9 2.5 2.8 2.6 5.2 2.6 5.2h9.9c7-9 13.7-26 19.2-26s3.3 5.3 3.3 5.3c-17.7 15.2-17.5 36.2-39.4 36.2-5.5 0-4.7.3-6.6-1.4v-10.3c0-5.5 7.1-15.4 7.9-22 .7-6-.2-12.8.7-18.7.5-4.3 1.9-8.2 5.4-10.9 1 2.8 1.3 6.9 2.4 10.9.5 1.5 1 3 1.8 4.4 2.7-1.5 5-2.9 7.1-4.4 16.5-11.9 14.1-23.9 26.6-34.5 5.8-2.4 22.4 3.4 22.4-10.2 0-5.5-4.3-6.6-4.6-8.2 3.9-1.8 11-.9 14.9-2.6 12.5-6 7.3-19 15.5-24.9 7.6-5.5 39.8-1.4 39.8-20 0-5.5-2.2-5.5-2.5-8.4-11.7-.3-20.1 1.9-26 .2v-5.7c8.6-12.8 17.3-25.7 27.3-36.4 4.7 8.2 3.1 17.5 14.4 17.5 5.4 0 27.3-17.4 32.8-17.4 5.5 0 12 6.5 17.4 6.5 5.5 0 11.5-6.6 19.1-10.4 5.7-2.8 14.2-2.4 17.8-6 7.1-7.1 17.8-21.8 17.8-27.3 0-5.4-6.6-21-9.3-30.4-16.7 3.7-14.3 18-17.6 22-3.3 4.1-12.5 10.6-12.5 16 0 5.5 2.7 5.3 2.7 5.3 4.9.2 8.5-.2 10.5 1.7-.1 1.8-4.1 5.3-6 7.3h-38.7c-5.5-.1-16.1 6.6-22.6 11 1.6-5.5 5.8-9.5 8.1-14.6-2.5-2.8-9.1-2.8-10.9-4.3 8.5-10.2 17.5-25 17.5-30.5 0-5.4-2.2-8.6-1.7-10.5 3.3-8.5 8.3-18.9 8.3-24.4s-3.2-5.5-3.2-5.5c-11.9 13.5-25.4 27.6-33.3 42.1-5.2 9.8-6.8 22-14.4 32.6-3 4.4-7 8.2-8.5 8.6.3-7.9.5-14.6 3-20.6 4.1-9.6 16.1-19.1 20.4-28.3 6.9-13.9 8.2-34.7 24.3-42.7 5.8-2.7 14.6-4.1 17.1-7.4 4.1-5.4 9.7-17 9.7-22.5s-2.5-5.2-5-7.6H596c-4.7 4.6-6.6 8.7-10.3 10.9-1.6-1.9-1.3-3.3-1.3-3.3 4.2-6 8.7-16.4 8.7-21.9s-.3-5.1-2.9-7.6c-8.2 1.3-29.8 10-33.6 22.5-1.9 6.6-1.9 13.5-7.6 19.2-4.9 4.9-14.8 9.5-14.8 15s6.6 4.4 6.6 9.8c0 6-15.7 25.5-20.2 27.5.5-5.7.5-9.8 2.4-19.4-3-.4-5.4-2.6-5.4-2.6-2.8 2.4-3.1 4.3-8.5 4.3s-3.3-1.4-3.3-1.4c4.3-7.9 12.3-16.5 14.5-23.4 1.9-6.3-1.5-13.3 1.2-17.1 3.3-4.4 12.7-10.8 12.6-16.2V395c-3.1-.3-5.3-2.5-7.8-2.5-18.6 13.5-44.4 63.8-44.4 70.9 0 5.5 4.4 11.2 6.6 19.4-1.9 1.7-1.1 3.6-6.6 3.6-21.3 0-6.6-24-29.5-24-5.5 0-24.4 6.6-35.2 9.5-.1.3-.3.5-.4.7h.4l35.5.7 30.1 20.3 24-6.1 3.3 26.8s-25.3 24.2-40.6 36.7c-.6.8-1.3 1.6-2.1 2.3-.3 0-.6.1-.9.1-2.2 1.7-4.1 3.1-5.6 3.9-11 6.5-35.2 60.2-48 53.2-2.5-1.4-10.2-36.9-11.8-45-1.6-8.1-15.3-37.1-15.3-37.1s14.1-39.6 19.2-47.6c.2-.3.4-.5.5-.8 1.4-4.4 2.8-8.9 4.2-13.2h-7l-2.3 3-.3.5c-1.2 3.4-1.7 6.8-3.9 9.6-.5.6-1 1.1-1.5 1.7l-8.6 18.2-3.3 76.4L385 627c.7-1.2 1.5-2.3 2.1-3.3.2 6.8-.5 11.9-1.5 15.8l1.2 27.1c2.1-1.5 4.6-2.7 7.6-3.2-2.5 4.1-5 8-7.2 11.8l.5 12-4.9 31.7 17.5 44.7 47.6-8.1 22.3-23.6 4.1 2.6c.1-.1.2-.1.3-.2 4.6-3.1 7.9-9.5 12.3-13.8 6.6-.2 11.9-4.8 16.3-10.6 5.7-7.5 10.1-17.1 14.4-21.9 1.1-1.2 3-2.2 5-3.1 3.3-1.6 7.1-3.1 8.8-6 2.3-3.7 4.7-15.6 10.6-22.2 1-1.1 2.1-2 3.2-2.8 1.2-.7 2.4-1.3 3.9-1.5 0 0 .4 5.2.3 9.1 1.9 1.9.1 1.5 5.6 1.5s12.5-8.6 21.6-13.9c.8.1 1.7.1 2.6.1 13.4-.1 31.9-5.8 37-5.8 5.5 0 13.1 4.3 18.6 4.3 5.5 0 11.5-2 17.2-4.2V655c.3 5.4-6.3 7.9-6.3 13.4 0 4.4 1.6 6.3 3.5 7.1l2.2-1 12.6-14.2 9.4-35s82.9 26.8 86.1 50.8c.2 1.7.7 3.7 1.2 5.8.7.4 1.5.6 2.1.6h73.8c5.4 0 9-6.5 14.5-6.5 5.4 0 25.2 13.1 30.6 13.1 5.5 0 10.9-1.1 10.9-6.6 0-8.7-6.3-17.5-15.1-20.1-.3-5.6 1.5-8.5-4.5-14.2 7.9 1.6 15.2 3.7 20.7 3.7s5.8-1.9 9.9-5.7c-2.2-6-10.9-12.4-15.3-22 6.4-2.5 21.8 1.5 21.8-10.5 0-5.5-1.8-3.6-4.4-6.6l6.6-6.8c-2.1-3.6-6.3-7.7-10.9-13 8.6-7.3 26.7-7.6 34.9-19.6-3.7-7.1-9.8-9.4-15.1-12.5-.2-2.8 2.4-5.7 4.2-7.3-4.8-8.1-10.1-7.5-13.1-7.5-5.4 0-16.2 2.2-30.6 3.6 18.2-7.9 52.4-16.7 57.9-16.7s18.2 6.8 26.4 13.7c.9 6.9 3.1 14.7 3.1 20.2s-6.6 6.6-6.6 12 4.3 1.1 4.3 6.5c0 5.5-15.2 15.3-15.2 20.7 0 5.5 4.3 4.4 4.3 9.9 0 5.4-4.6 6.1-6.1 8-.5 4.1.3 10 1.7 16.8.8 4.4-4.4 7.9-4.4 13.3 0 5.5 4.1 5.8 6.6 8.9-4.9 3-9.3 5.2-13.2 6.7 2.1 3.5 6.3 7.6 8.8 10.7-5 3-11.2 4.9-16.7 10.9-6.1.9-15 .9-23 .6.3 1.4-1.9.3-1.9 5.8 0 6.6 22.5 17.5 26.2 19.8-5.4.9-11.5-1.4-15.7.7-2.1 2.1-1.7.2-1.7 5.7 0 13.1 23.2 16.4 30.6 16.4 5.5 0 35.7-10.8 52.6-17V712c-4.2-3.9-11.1-5.8-11.1-11.3 0-5.5 2.5-5.1 4.3-6.5-1.8-1.4-3.7-5.6-8.7-8.7 9.1-5.6 18.5.2 25.6-11.5 1.3-2.5 3.2-9 7.2-12.7-3.7-6.7-14.4-10.8-17.4-12.3v-7.4c-.1-5.5 8.6-7.4 8.6-12.8s-4.1-7.9-8.7-13.1c4.7-5.1 15.3-8.7 15.3-14.2s-4.4-5.5-4.3-8.1c2.4-2.5 7.2-8.3 11.8-8.8 8.7-1.4 22-5 27.4-5s12 4.4 19.2 4.6c2.6 7.1 4.8 16.2 4.8 21.7 0 8.2-12.6 22.2-6.6 29.6-9.5 6.5-17.5 4.5-17.5 14.1 0 5.5 6.4 34.7 13.5 48.6 5.5 10.9 23.8 15.6 36.6 21.7.2 9.3-1.5 26.3 6.8 35.5-2.5 2.9-2.2 4.3-2.5 7.3-3 .3-3 2.5-8.4 2.5-5.5 0-12.9-11.4-16.7-17.5-7.4 4.5-7.4 8.7-7.4 10.9 0 5.5 4.4 11 4.4 16.4 0 5.4-2.2 6.6-3.1 11.9-3.4-7.2-7.3-13.2-12.8-17.5-1.5 10.1-10.3 29.6-10.3 35 0 5.5 4.4 9.8 4.4 15.3 0 16.1-32.8-1.1-32.9 23.2v9.2c-3.3 1.2-14.6 4.8-16.1 17.8-5.6-11.6-5.1-25-6.5-35.9-.5-4.4-5.8-7.8-5.8-13.3 0-5.5 6.6-3.3 6.6-8.7 0-5.5-17.2-25.7-30.3-38-8.2-7.3-26.1-3.8-34.7-4.7-2.5-2.4-5-2.1-5-7.5s6.5-6.6 6.5-12c0-22.9-33.9-15.6-42.4-13.9-16.1-6.9-22.9-10.1-31.9-10.1-5.5 0-31.7 4.3-59.5 2 0 0-1.7-2-1.7 3.5 0 16.4 29.1 24.9 38.7 28.8 22.1 8.7 52.1 26.6 69.6 53.6 3.8 5.7 7.1 15.8 13.7 20.8 3.8 2.7 63.8 34.4 63.8 56.3 0 5.4-2.2 21.6-.7 33.6l-11.3-6.4c-4.3 2.6-7.6 5.4-7.6 8.7 0 5.4 2.2 20.6 4.2 54.2-9.4 2.3-12.9 29.1-12.9 34.5 0 5.5 0 47.8-1 70.7-17-92.6-33.9-45.3-33.9-109.1 0-10.9-1.2-26.6 7.2-38.8 3.3-4.6 10.2-9.8 11.6-15 3-10.4 11.7-31.4 11.7-36.8 0-5.7-3.5-12-8.7-12-19.9 0-16.7 39.3-44.8 39.3-5.4 0-12.4-2.4-15.6-7.1-13.9-19.3-10.7-56.9-43.7-68.9-5.7-2.2-40-2.4-40-19 0-10.1 9.3-26.7 27.2-21.6 1.8-1.2 3.8-3.2 5.6-4.8-6.4-10.2-17.9-20.3-28-29.1-1.2-1.1-2.7-1.8-4.4-2.3-.2-.1-.4-.2-.6-.2-1.3-.4-2.7-.6-4.1-.8.5 1 .8 1.5.8 1.5l19.1 26.8-41.1 52.5 45.2 25.3 21-10.8-2.1 10.9c.3-1.1.7-2.1 1.1-3.2 1.6-2-.4-1.7 5-1.7 5.5 0 3.6-.3 5.5 1.5-.1 6.1-1.4 13.3.5 19.5 2.2 6.9 5.9 12.8 5.9 18.3s-2.2 38.4.3 56.6h9.9l8.1-8.5c3.6 8.1 5.7 18.5 5.7 24 0 24-17.5 28.9-17.5 38.2 0 5.5 6.5 4.4 6.5 9.9 0 5.4-15.3 31.6-15.3 37.1s11.3 10.7 16.8 14.8c.7 6.1 2.9 15.8 2.9 21.3s-10.9 25.1-16.3 25.1c-5.5 0-4.4-2.2-5.7-1.8 2.9-6.9-4.7-17.9-11.8-17.9-8.2 0-44.8 68.8-44.8 77.5 1.1 5.9 3.2 4.8 3.5 7.8m-304-614.5c0-5.5 11.2-16.1 19.1-22.8-.5 6.6-12.6 25.8-16 28.2-.1.1-3.1.1-3.1-5.4m-41 75.2c7.5-20.5-.5-43.1 27.5-58.5-2 5.7-6.2 7.4-6.2 12.8 0 5.5 1.9 4.7 4.4 7.6-11.2 13.9-15.5 26.9-25.7 38.1M428.1 656c1.9-9.8 4.3-18.9 12-28 1.7 6.4 0 26.2-12 28m-21.7 26.4c1.8-5.8 4.2-12.5 9.4-17.3 3 2.5-1.4 10.6-9.4 17.3m441-116.9c-12.1 34.8-52.8 43.4-76.5 47.2l-96.2-17.5c-6.6 1.1-17.1 10.6-26.1 8.1 2.5-6.1 33.2-19 37-19 5.5 0 27.3 6.6 32.8 6.6 5.4 0 13.8-2.1 19.7-3.5-13.3-11-39.4-17.6-39.4-33.7 0-5.4 6.7-17 11.6-23.8h7.8c6.3 27.9 28.2 34.7 47.3 34.7 5.5 0 17.2-4.3 27.2-5.9-9.1 7.9-20.2 14.6-28.3 18.3 2.1 3.5 3.3 5.2 8.8 5.2 20.2 0 43.7-28.5 55.7-28.5 5.5 0 11.7 4.7 18.6 11.8m98.3-54.3-2.4 5.1c-2.2 2.2-7.4.4-10.1.2-2.6-4.8-.5-11.9.2-19.4 3.3 2.4 10 9.2 12.3 14.1m45.4 14c-40.6-4.8-24.7-1.3-32.2-5.4 11.8-3.1 24.7-3.1 36.6-7.3.5 3-1.8 7.9-4.4 12.7m138.2-154.1c-11.2-35.1-53.6-40-56.4-72.7 9.8 4.3 21.6 7.6 29.5 11.4 5.2 2.4 5.8 9.5 9.1 12.8 5.2 5.2 15.1 7.5 19 13.3 30.1 44.7 64.4 65.1 97.2 65.1 5.5 0 26.9-4.4 39.4-7.4-14 5.7-37.8 24.8-54.7 24.8-5.5 0-24.1-8.8-29.5-8.8-2.7 0-11.5-1.1-8 12.9-5.6-2.1-7.3-4.1-12.8-4.1-5.4 0-8.7 15.2-14.2 15.2-5.4 0-26.4-4.4-42.3-6.9-.3-2.9-2.5-7.3-2-12.5 7.5 2 17 4.2 22.5 4.2 8.7 0 18.5-4.1 18.5-13.1 0-5.4-4.1-4.8-5.9-7.2-.6-4.7-.6-9-1.3-12.9-3.2-1.8-9.6-6.1-16.8-9.5 3.2-1 6.9-2.9 8.7-4.6m-91.7 171c5.3-8.9 7.9-18.9 16.3-18.9 5.5 0 18.6 13.1 18.6 18.6 0 6.5-18.5 19.3-23.7 20.4 1.9-10.1-5.1-17.3-11.2-20.1m48-111.6c-3.3 1-4.4 5.3-9.8 5.3-5.5 0-6.6-4.4-12-4.4-5.5 0-13.1 4.4-13.1 9.8 0 5.5 1.9 3.6 4.4 6.6-4.7 5.1-13.1 12-13.1 17.5 0 5.4 4.1 5.8 8.7 10.5v27.1c-2.4 2.5-6.8 4.7-9.4 7.1l-21.1-2.9c6-6.8 13.1-12.1 13.1-17.8 0-5.5-4.1-10.1-8.7-15.1 2.3-5.1 7.8-8.9 10.2-13.8 2-3.8-.8-9.6 1.5-13.2 4.3-7.4 10.3-15.2 13.3-21.6 2-.7 5.6-3 11.1-3 5.2.1 15.3 4.5 24.9 7.9m4.3 69.3c-2.4 3.4-4.6 3.4-7.3 5.8l-10.1-3.4c3.3-.9 5.4-3 17.4-2.4m220.8 404.5c2.3-4.9 8.7-9.6 9.2-15V853c3.9 22.8 3.9 47 .7 72-3.3-7.3-5.3-13.6-9.9-20.7m-84-38.3c1 3.3 3.1 7.6 3 56.1-2.4 2.5-5.4 7.2-8.3 6.9-.3-26.9 1.9-53.4 5.3-63m-57.3 115.8c3.3 2.5 5.8 2.2 5.8 7.6 0 5.5-4.4 15.3-5.3 25.1-3.4-9.5-3.5-21-.5-32.7m-37.2 61.7c1.7-2.4 6.1-6.7 7.3-8.7.7-4.1 2.9-8.3 2.9-13.8l-8.4-113.2h7.1c3.5 103.3 5.7 121.9 5.7 127.4 0 11.2-17.2 29.1-16.4 42.6-1.1-9.8-1.1-23.2 1.8-34.3m-26.9 146.8s1.1-7.7 4-7.3c.3 3 2.5 5.1 2.2 16.8-2.9.3-3.9-4.6-6.2-9.5m-115.5-160.2c23.2-.3 28.3-29.2 28.9-43.9 4 6.6 3.1 22.3 11.1 28.3 20.4-21.5-3.3-50.5 10.5-76.3 4.9-.2 11.5 2 15.4 2.1 8.9-10.1-1.2-23.7 11.7-30.6 2.8 7.2 7.2 15.9 8.7 21.8 8.9-5.4 9.5-17 9.5-23 0-2.2 3.2-1.1 4.9-.9 1.8-3.9 1.8-27.9 5-32.9 3.1 7.3 7.4 15.7 11.4 22 1.7-.2 2.7-2.4 8.2-2.4 5.5 0 7.1 6.7 12 9.6-11.7 16.2-6.2 30.7-4.9 47.1-7.7-4.4-16.8-9.1-20.3-15.1-3.5 4.1-7.5 12-7.5 17.5s4.4 9.8 4.4 15.3c0 19.3-35.8 37.8-41.2 41.1-2.6 6.2-4.7 14.6-5 21.9-18.3.3-37.9 4.7-62.7 6.6v-8.2zm-8.8-30.2c11.8-11.5 12.8-12.4 12.8-23.6 0-5.5-2.1-15-3.7-25 4.8 4.4 10.3 27.2 10.3 40.3 0 10.6-1.2 12.2-19.4 20.6v-12.3zm-62.1 66.9c-5.8-6.9-16.9-17.3-16.9-22.8 0-5.4 2.2-2.2 2.6-5.2 12.7 1.9 12.7 20.9 14.3 28m-22.8 56.1c-2.5-8.1 2.4-19.8.8-28.5-.3-2.4-3.6-5.4-3.2-10.8v-14.4c10.4 13.6 21.5 34.9 21.5 40.3 0 5.5-6.6 9.8-6.6 15.3 0 8.7 13.1 49.1 26.2 49.1 5.4 0 10.9-6.6 10.9-12s-6.6-16.4-6.6-21.8c0-5.5 2.2-4.4 3.2-7.6 5.5 16.1 7.8 33.5 11.9 49.8-5.3.4-8.9.1-13 4.2l-3 53c-16.4-37.9-29.5-76.7-42.1-116.6m-8.3 20.5c3.3 11.8 5.5 24.7 9.3 39.2-9.3-9.6-11.7-26-9.3-39.2m-25.4-1.9c.3 7.3 6.1 14.6-1.2 21.4-.7-3.2-1.7-21.7 1.2-21.4"/><path class="st1" d="M1361.3 853.5c-.5-1.8-1.1-3.4-1.7-5l-4.4 4.4c-2.9-5-5.2-10.9-5.2-16.4 0-5.4 4.5-20 8.8-30.3l-3.8-3.6c-7.5.3-13.8 6.4-13.8 12.1 0 5.5 2.2 10.9 2.1 18.5l-3.6 2.1c-11-23.2-4.2-51.9-31.2-68.1v-7.4c-.1-5.5 2.8-26.8 7.1-38.8 1.9-5.5 13.6-14.4 19-14.4 5.5 0 6.3 4.7 7.7 6.6 1.4-1.8 1.1-1.1 1.1-6.6 0-1.8-1-4.9-2.4-8.7-2.9-7.7-7.6-18.5-10.5-27.9 3.1-.4 7-.3 12.1-2.6 5 7 7.3 16.1 9.1 26.4 1.5-.2 2.2 2.2 3.5 4h.1c4.4-6.3 5.5-26.5 5.5-32.7 0-5.4 0-11.8-.8-18.4-1.4-11.5-1.4-31.7-1.4-37.3 0-5.5-4.2-14.7-7.7-20.7-9.2 11.3-25.4 14.7-16.3 32 0 0 0 3-5.4 3-5.5 0-15.9-13.3-24.4-18.7-.7-1.7-3-4.3-3-9.7 0-9.8 9.9-22 18.1-25.6.5-.2 1.3-.3 2.1-.2l.6.7c-.7 3.1-.3 4.4-.3 4.4l36.5 4.5 22.4 76.4-6.5 130.4s-7.7 59.8-7.7 74.4c0 2.2-.6 5.1-1.5 8.5-1-4.8-2.6-10.3-4.2-15.3zM483.9 732.8c7.2 1.5 11.3 2 15 2.8 1.6.4 3.2.8 4.9 1.5 1.4-35.3 49.3-47.7 78.5-60.5 2.3-.9 4.6-1.2 7.1-1.2 2.4 0 4.9.2 7.4.2 1.7 0 3.3 0 4.9-.3 4.4-.8 5.3-3.5 10.8-3.5 5.5 0 3.6-.3 5.7 1.7 1.2 2.3 1 4.7 1.1 7.1.1 2 .3 4 1.6 5.9.5.6 1.2 1.2 1.9 1.8l-1.2.6-28.5-6.2-52.5 31.7-19.1 25.3-25.3 8.1-13.6-8.5c-.9-1-1.7-1.9-2.5-2.9l3.8-3.6zM838.7 874c-.3 2.7-.6 5.4-1 8.1-.3.3-.6.5-1 .7.3-.8.5-1.3.5-1.3l1.5-7.5zM1292.4 386.9l-41.5 30.4-6.8 4.8 50.3-48.8 28.3-18.2c-4.7 11.6-30.3 31.8-30.3 31.8M1269.3 485.6c-1.9-.5-3.8-1-5.8-1.2-5.1-.6-10.2-.1-15.3.6l-21.5-33.8 30.7 21.8 11.9 12.6z"/><path class="st1" d="m1322.8 570.1-.6-.7c.2 0 .5 0 .7.1 0 .2 0 .4-.1.6M152.6 708.1c25.1-1.6 35.7-1.5 45.9-.2-6.1 3.2-12.1 5.2-16.5 6.4 15.3 1.1 39.4-3.3 44.8-3.3 18.6 0 80.1 23.7 88.9 32.2 5.1 28 13.8 81.4 13.8 86.8 0 7.8-4.6 15.7-11.3 23.6-13 15.2-33.7 29.9-42.5 41.8-10.1 13.6-16 32.4-22.1 49.1 5.5-4.8 54.4-87.2 81.4-87.2 5.5 0 9.9 3.3 9.9 8.7 0 5.4-37.1 39-37 44.5v7.7h7.9c13.4-13.2 26.5-26.3 36.7-34.8 1.5 1.9 3.7 6.2 5.5 7.8-8.6 11.9-32.8 51.7-32.8 67.6 0 5.4 2.2 6.6 2.5 9.6h10.1c9.4-18.4 12.4-50.3 30.8-67.2 5.9-5.5 10.2-8.3 12.7-10.8-.5-.9-.8-1.7-1-2.5-2.1-8.4-42.3-41.7-42.3-41.7L324 768l8.1-50.7 5.3-23.9 9.6-12.7 16.6 15.9 4.4 8.5c.3.1.7.3.9.4-.2.1-.3.3-.5.5l3.6 7.1 17.6 112.4 32.1-13.7v26l13.8 52.2-43.5 13.2c6.6 6.9 14.7 13 19.8 16.9.7 8.3 3.3 18.8 8 26.2 12.3 19.7 39.2 31.1 56.1 31.1 5.5 0 6.2-.3 8.7-3-4.4-15.8-15.3-40.6-15.3-46.1 0-17.8 5.4-10.2 21.2-13 4.7-3.7 6.6-10.1 9.9-12.3-.5 5.6-2.6 11.7-4.9 16.8 9.2 7.2 19.1 12.6 21 19.7 4.4 16.6 9.5 45.6 9.5 51 0 5.5-1.6 20.6-3 29.3-.5 4.3-5.2 8-7.3 9.3-1.4.5-3.1 2.1-4.1 3.8-.5.9-.8 1.8-.8 2.6 9.6 19.9 51 14.7 48.7 40.9 4.2 3.5 9.5 1.9 13 4.1 7.3 4.4 12.8 14.9 18.3 14.9h47.4c4 4.1 10.2 11 15.7 11s5.4-3 5.4-3c-7.5-10.7-15.3-37.6-15.3-41.7 0-5.4 3.3-7.6 5-7.8 8.1 9.6 27 19.8 35.4 19.8 5.5 0 9.5-2.5 12-5 .1-7-2.2-13.2-.3-19.2 11.7-.3 52.9-3.9 52.9-32.5 0-5.5-2.2-7.4-1.8-9.4 5.8-6.3 13-8.6 16-12.9 12-17.2 22.5-36.8 30.7-54.8 2.8-6.1-1-16.2 3.4-21.6 6.6-7.9 11.7-16 19-23.4 4.7-4.7 11.9-6.5 17.7-10l2.1-9.9-15-8.4-45.2-25.3 41.1-52.5-19-26.9s-.3-.5-.8-1.5c-.5-.1-1-.1-1.5-.2-.7-.1-1.5-.2-2.2-.2-.3 0-.7-.1-1-.1-.8-.1-1.5-.2-2.2-.3-.2 0-.5-.1-.8-.1-.6-.1-1.3-.2-1.9-.4-.2-.1-.5-.1-.7-.2-.8-.2-1.5-.4-2.2-.8-1.9-1-3.6-2.2-5.3-3.5-4.9-4-8.7-8.7-12.8-8.7-4.1 0-4.7 1-5.5 2.3-.3.5-.6.9-1.1 1.4v6.1c.2.6.4 1.1.7 1.6 4.1 7.4 18.7 7.5 27.1 11.1 6.6 2.7 15.5 10.5 22.5 16.2-12.2-1.5-30.5-10.3-36-10.3-14.5 0-15.2 14.2-24.3 30.5-1.4-11.9-24-23.3-30.2-26.2l-3.5 3.5c7 10.1.3 30.3 21.6 31.8v7.8c-3.8 2.9-7.4 6.4-11 9.9-5 4.9-9.9 9.9-15.5 13.6a38.8 38.8 0 0 1-4.8 3c-11.5 6.9-25.1 12.1-36.4 21.4v7.7c1.5.4 3.1.6 4.9.6 5.3.1 11.7-1.2 18.6-1.1 2.5 2.4 2.9 1 2.9 6.5 0 18.1-30.2 22.6-45.5 23.7-.9.1-1.7.1-2.5.2-2.6.1-4.6.2-5.5.2-31 0-116-17.8-164.6-28.9-19-4.4-32.5-7.7-35.1-8.6V862c3.4-1.4 6.8-3 10.1-4.9 32-18.2 58.5-58.9 52.2-88.1-.7-3.5-.4-7.2.1-11.1.4-3.2 1-6.5 1.3-9.8 3.8 2.2 8.1 5 12.1 7.1 3.9 2.1 7.5 3.7 10.3 3.7 5.4 0 5.6-1.6 6.8-3.5-2.2-13.6 5.4-34.6 18.9-46.5 4.5-4 9.7-7 15.5-8.3 16.9-3.9 37.2-4.9 56.2-8.9-.1-1-2-2-3.7-3.2-.1-.1-.3-.2-.5-.3l-1.2.5-28.5-6.2-52.5 31.7-19.1 25.3-25.3 8.1-13.6-8.5c.4.5.9 1 1.4 1.4 3.9 4 8.5 8.1 9.2 11.9.1.3.1.7.1 1 0 13-25.8 23.1-46.7 28.8-1.4.4-2.7.7-4 1-1.1.3-2.1.5-3.1.8-8.9 2.1-16.1 3.3-18.3 3.3-8.4 0-14.6-1.9-21.7-15H433c15.6-.3 41.9-19.5 34.9-36.5 1.1.2 2.2.1 3.2-.1s1.9-.5 2.8-1c.3-.2.6-.4 1-.6l-4.1-2.6-22.3 23.6-47.6 8.1-17.5-44.7 4.9-31.7-.5-12c-5.5 9.6-8.8 18.6-3.7 28.7h-15c6.4-14 8.9-30.3 18.4-37.3l-1.2-27.1C382 654.3 371 651.4 371 652c0-4.8 8.7-16 14.5-25l-2.2-50.8 3.2-76.4 8.6-18.2c-5.2 5.9-12.5 11.7-14.8 16.5-6 12-13.8 33.8-13.8 39.2 0 5.4-2.2 19.6-2.2 25.1s4.4 32.8 4.4 38.2c0 15.6-5.1 47.1-22.9 55.7-11.8-8.6-44.4-35-57.2-34.6h-7.3c14.6 12.3 61.1 35.1 61.1 49.9 0 5.5-10.9 15.3-16.4 15.3-5.4 0-27.7-21.6-41.6-32.8-2.9 2.5-3.2 5.2-3.2 5.2 0 2.4 4.4 3.5 4.4 9 0 5.4-1.9 3.6-1.9 3.6-4.1 2-8 1.8-13.5 1.8s-60.1-6.5-65.5-6.5c-5.5 0-40.6 6.5-61.2 12.2 23-1.3 50.2-3.4 55.7-3.4 28.9 0 73.5 7 95 16.4-7.3 4.4-15.1-2.6-22.9 5.3-1.1 1.1-2.1 2.5-3.2 4.1h37.8c6.3.3 12.3 6.1 12.3 14.5 0 5.5-1.6 12.1-5.5 14.2-19.2-8.7-38.8-15.2-57.8-23 3.7-1.2 6.5-4.3 6.4-6.9-2.4-2.5-4.3-2.9-9.7-2.9-5.4 0-20.8 4.4-26.2 4.4-5.5 0-35-4.4-40.4-4.4-8.5.2-21.5-.9-32.4 10.4m471.7 217.4c-13.4 26.5-14 38.2-13.4 58.3-17.4-5.9-30.7-38.7-33.1-57.3-8.6-12-23.2-.5-29.6-16.4 22.6 6.2 53.6 15.4 76.1 15.4m-187.7-97.7c0-5.5 2.3-9.2 5.5-14.2 3.1 7.3 11.6 15.6 18.4 23.6h-16.8c-2.4-2.1-7.1-4-7.1-9.4m5.2 88.6c5.5-.2 7.2 4.3 9 5.1 3.2 10.9 5.3 23.8 11.7 38.1-6.4-1.6-36.9-21.2-36.7-31v-12.1h16z"/><path class="st1" d="M840.1 866.5c-.7 2.5-1.2 5-1.5 7.5l-1.5 7.5s-.2.5-.5 1.3c-.8.6-1.7 1.2-2.6 1.8l2.1-9.9-15-8.4 21-10.8-2 11zM337.9 846.2 324 768l8.1-50.7 5.3-23.9 9.6-12.7 16.5 15.9 4.4 8.5c-2.1-.9-5.3-.8-9.3-1.6-1.5-.9-3.1-3.1-4.7-5.7-1-1.5-2-3.2-3.1-4.8 0 0-1.3-2-2.6-3.9-1.8 3.2-2.6 6.2-2.8 8.7-.5 5.6 1.6 9.4 1.6 11 0 5.5-8.5 9.6-10.4 16.7-2.2 8.2-2.7 19.3-2.7 24.8 0 5.4 2.7 21 4.9 29.2 1.9 7.1 12.6 14.5 12.6 20 0 5.4-4.4 7.6-4.4 13.1 0 5.4 6.1 7.9 12.1 12.5 2.5 8.9-1.2 19.7-.3 28.5.2 2.3.7 4.5 1.8 6.5 12 23.5 23.6 4.1 23.6 24.5 0 2.4-1 4-2.9 5.9-.5-.9-.8-1.7-1-2.5-2.2-8.4-42.4-41.8-42.4-41.8"/><path class="st1" d="M423.4 882.4c0-8-10.7-20.6-18.4-28.8-4.1-4.3-7.3-7.5-7.8-8.2 5.1-10.5 9.1-7.5 15.5-13.7v-9.8c-19.7-1.2-12.7 15.7-22 15.7-5.5 0-8.1-4.5-10-5.4-13.5-16.2-8.7-35.8-17-51.9-1.6-3.5-10.2-9.2-10.2-14.7s3.3-29.6 4.9-42.7c.5-4.5 4-11.1 9.9-16.8l3.6 7.1 17.6 112.4 32.1-13.7v26l13.8 52.2-43.4 13.1c-.4-.4-.9-.9-1.3-1.4 5.3-2.9 32.7-5.5 32.7-19.4M760 522.1c0 6.5-.3 12.1 12.1 18.6 12.9-4.9 9.2-15.1 9.9-23.4 2.4-2.5 5.4-2.8 10.8-2.8 1.5 0 5.4 1.4 10.4 3.5.4.5.9 1 1.3 1.6 15.8 18.3-10.4 27.3-10.4 27.3l-39.9 6-.6-39.3s7.1-14.7 17.5-15.3c4.2-.2 7.4-.2 11 1.3-3-.4-9.1-1.3-9.1-1.3-9.2 11.6-13 12.6-13 23.8M500 500.3s.3-1.5-1-3.3c-3.6 6.1-7.3 13.1-10.9 19.1-2.7 4.6-10.7 6.4-14 11-4.6 6.6-11 17.9-21.1 17.9-5.5 0-10.1 1.2-18.7-7.5-12.8-17.8-8.6-25.2-8.6-30.7 0-8.4 8.7-16.4 13.2-16.4 5.4 0 12.8 11.2 18.7 17.4 3.7-2 7.8-4.1 11.9-8-.3-8.9-22.4-20.4-29.6-20.4-5.5 0-12 10.9-17.5 10.9s-4.4-2.2-7.3-2.5c-.3-2.9-2.5-1.8-2.5-7.4 0-4.8 3.4-6.5 4.8-8.2h.4l35.5.7 30.1 20.3 24-6.1 3.2 26.8s-25.3 24.2-40.6 36.7c2.6-3.4 3.9-8.3 4.5-14 17.1-8.9 20.3-21.7 25.5-36.3"/><path class="st1" d="M429.8 569.4v7c.2 5.4-8.6 13.8-11.5 20.6v2.7c11.1-12.1 14.4-21.5 28.6-30.3.6-1.9.6-6.1 1.3-8.6 6-4.4 12.7-6.8 18.7-7.6-2.2 1.7-4.1 3.1-5.6 3.9-11 6.5-35.2 60.2-48 53.2-2.5-1.4-10.2-36.9-11.8-45-1.6-8.1-15.3-37.1-15.3-37.1s14.1-39.6 19.2-47.6c.2-.3.4-.5.6-.7-5.5 17.3-11 34.6-11 38.9.1 12.3 15.4 49.7 34.8 50.6"/><path class="st4" d="m770.9 612.7-96.2-17.5c-6.7 1.1-17.1 10.6-26.1 8.1 2.5-6.1 33.2-19 37-19 5.5 0 27.3 6.6 32.8 6.6 5.4 0 13.8-2.1 19.7-3.5-13.3-11-39.4-17.6-39.4-33.7 0-5.4 6.7-17 11.6-23.8h7.8c6.3 27.9 28.2 34.7 47.3 34.7 5.5 0 17.2-4.3 27.2-5.9-9.1 7.9-20.2 14.6-28.3 18.3 2.1 3.5 3.3 5.2 8.8 5.2 20.2 0 43.7-28.5 55.7-28.5 5.5 0 11.7 4.7 18.6 11.8-12.1 34.8-52.8 43.4-76.5 47.2M436.6 827.8c0-5.5 2.3-9.2 5.6-14.2 3.1 7.3 11.6 15.6 18.4 23.6h-16.7c-2.6-2.1-7.3-4-7.3-9.4M610.9 983.7c-17.4-5.9-30.7-38.7-33.1-57.3-8.6-12-23.2-.5-29.6-16.4 22.5 6.2 53.5 15.5 76 15.4-13.2 26.6-13.9 38.3-13.3 58.3M450.8 921.5c3.2 10.9 5.3 23.7 11.7 38.1-6.4-1.6-36.9-21.2-36.7-31v-12.1h16c5.4-.3 7.2 4.2 9 5"/><path class="st5" d="M1073 298.4c9.8 4.3 21.6 7.6 29.5 11.4 5.2 2.5 5.8 9.5 9.1 12.8 5.2 5.2 15.1 7.5 19 13.3 30.1 44.7 64.4 65.1 97.2 65.1 5.5 0 26.9-4.4 39.4-7.4-14 5.7-37.7 24.8-54.7 24.8-5.5 0-24.1-8.8-29.5-8.8-2.7 0-11.5-1.1-8 12.9-5.6-2.1-7.3-4.1-12.8-4.1-5.4 0-8.7 15.2-14.2 15.2-5.4 0-26.4-4.4-42.3-6.9-.3-2.9-2.5-7.3-2-12.5 7.5 2 17 4.2 22.5 4.2 8.7 0 18.5-4.1 18.5-13.1 0-5.4-4.1-4.8-5.9-7.2-.6-4.7-.6-9-1.3-12.9-3.2-1.8-9.6-6.1-16.8-9.5 3.3-.9 6.9-2.8 8.8-4.5-11.3-35.2-53.7-40.1-56.5-72.8M1063.8 431.5c-5.5 0-13.1 4.4-13.1 9.8 0 5.5 1.9 3.6 4.4 6.6-4.7 5.1-13.1 12-13.1 17.5 0 5.4 4.1 5.8 8.7 10.5V503c-2.4 2.5-6.8 4.7-9.4 7.1l-21.1-2.9c6-6.8 13-12.1 13-17.8 0-5.5-4.1-10.1-8.7-15.1 2.3-5.1 7.8-8.9 10.2-13.8 1.9-3.8-.8-9.6 1.5-13.2 4.3-7.4 10.3-15.2 13.3-21.6 2-.7 5.7-3 11.1-3 5.5 0 15.6 4.4 25.1 7.8-3.3 1-4.3 5.3-9.8 5.3-5.6 0-6.7-4.3-12.1-4.3M933.1 516.5c-2.6-4.8-.5-11.9.2-19.4 3.4 2.4 10.1 9.3 12.4 14.1l-2.4 5.1c-2.2 2.2-7.4.3-10.2.2M1082.6 505.6l-10.1-3.4c3.3-.9 5.5-3 17.4-2.4-2.4 3.4-4.6 3.4-7.3 5.8M958.9 519.8c11.8-3.1 24.7-3.1 36.7-7.3.5 3.1-1.8 7.9-4.4 12.8-40.7-4.9-24.9-1.4-32.3-5.5M1053.9 523.2c5.5 0 18.6 13.1 18.6 18.6 0 6.5-18.5 19.3-23.7 20.4 1.9-10.1-5.1-17.2-11.2-20.1 5.3-8.9 7.9-18.9 16.3-18.9"/><path class="st0" d="M745.6 665c-.4-.5-.9-.9-1.4-1.3-4-3.5-10.2-8-15.8-11.3 5.6 3.4 11.8 7.9 15.8 11.3.5.4 1 .9 1.4 1.3M626.9 691.7c-.2-1-2-2-3.7-3.2 1.8 1.3 3.6 2.3 3.7 3.2M724.2 650.1s.1 0 .1.1c0-.1-.1-.1-.1-.1M473.9 734.9c-.9.4-1.8.8-2.8 1 1-.2 1.9-.5 2.8-1M760.6 757.3c4.1 7.4 18.7 7.5 27.1 11.1-8.4-3.6-23-3.7-27.1-11.1M439.6 784.1c1-.3 2-.5 3.1-.8-1.1.3-2.1.6-3.1.8M670.3 869.8c11.2-9.2 24.9-14.5 36.4-21.4-11.5 6.8-25.2 12.1-36.4 21.4M675.2 878.1c5.3.1 11.7-1.2 18.6-1.1-6.9-.1-13.3 1.2-18.6 1.1M766.5 745.9c-4.1 0-4.7 1-5.5 2.3.9-1.2 1.4-2.3 5.5-2.3M761.3 681.9s.1 0 .1.1 0 .2.1.3c-.1-.2-.2-.3-.2-.4M505.7 769.1c-.8-3.5-.4-7.2.1-11.1-.5 3.9-.9 7.6-.1 11.1M688.8 650.3c-9.3 13-24 25.7-33.8 25.7 9.8 0 24.5-12.7 33.8-25.7M493.3 752.5c-.7-3.8-5.3-7.9-9.2-11.9 3.9 4 8.4 8.1 9.2 11.9M711.4 845.4c5.5-3.8 10.5-8.8 15.5-13.6-5 4.8-9.9 9.8-15.5 13.6M786.8 758.9c.2.1.5.1.7.2-.2-.1-.4-.2-.7-.2M797.2 760.4c-.5-.1-1-.1-1.5-.2.5 0 1 .1 1.5.2M493.4 753.5c0 13-25.8 23.1-46.6 28.8 20.8-5.7 46.6-15.8 46.6-28.8M648.6 907.3c.8 0 1.6-.1 2.5-.2-.9.1-1.7.2-2.5.2M507.1 748.2c3.9 2.2 8.1 5 12.1 7.1-4-2.1-8.2-4.9-12.1-7.1zM643.1 907.5c.9 0 2.9 0 5.5-.2-2.6.2-4.6.2-5.5.2M792.5 759.8c.3 0 .7.1 1 .1-.3 0-.7-.1-1-.1M789.4 759.4c.3 0 .5.1.8.1-.2 0-.5-.1-.8-.1M801.3 761.2c-1.3-.4-2.6-.6-4.1-.8 1.4.1 2.8.4 4.1.8"/><path class="st5" d="M803.1 761.7c-.4-.1-.8-.3-1.2-.4 1.7.5 3.2 1.2 4.4 2.3 10.1 8.7 21.7 18.8 28 29.1-1.8 1.5-3.8 3.6-5.6 4.8-17.8-5.1-27.2 11.5-27.2 21.6 0 16.7 34.3 16.8 40 19 33.1 12 29.8 49.6 43.7 68.9 3.3 4.7 10.2 7.1 15.6 7.1 28.1 0 24.9-39.3 44.8-39.3 5.2 0 8.7 6.3 8.7 12 0 5.5-8.7 26.4-11.7 36.8-1.4 5.2-8.3 10.3-11.6 15-8.4 12.3-7.2 27.9-7.2 38.8 0 63.9 16.9 16.6 33.9 109.1 1-22.9 1.1-65.2 1-70.7 0-5.4 3.5-32.2 12.9-34.5-2-33.5-4.2-48.7-4.2-54.2 0-3.3 3.3-6.2 7.6-8.7l11.3 6.4c-1.5-12 .7-28.2.7-33.6 0-21.8-60-53.6-63.8-56.3-6.6-4.9-9.9-15-13.7-20.8-17.5-27-47.5-44.9-69.6-53.6-9.6-3.8-38.7-12.4-38.7-28.8 0-5.4 1.6-3.5 1.6-3.5 27.8 2.3 54.1-2 59.5-2 9 0 15.8 3.1 31.9 10.1 8.5-1.7 42.4-9 42.4 13.9 0 5.4-6.5 6.6-6.5 12 0 5.5 2.5 5.2 5 7.5 8.5 1 26.5-2.6 34.7 4.7 13.1 12.3 30.3 32.5 30.3 38 0 5.4-6.6 3.3-6.6 8.7 0 5.4 5.2 8.8 5.8 13.2 1.4 10.9.9 24.3 6.5 35.9 1.5-13 12.8-16.7 16.1-17.8v-9.2c.1-24.3 32.9-7.1 32.9-23.2 0-5.5-4.4-9.8-4.4-15.3 0-5.4 8.7-24.9 10.3-35 5.5 4.3 9.4 10.3 12.8 17.5.9-5.4 3.1-6.5 3.1-11.9 0-5.5-4.4-10.9-4.4-16.4 0-2.2 0-6.4 7.4-10.9 3.7 6.1 11.2 17.5 16.7 17.5 5.4 0 5.4-2.2 8.4-2.5.3-2.9 0-4.3 2.5-7.3-8.3-9.2-6.6-26.2-6.8-35.5-12.8-6.1-31.1-10.8-36.6-21.7-7.1-14-13.5-43.2-13.5-48.6 0-9.6 8-7.5 17.5-14.1-6-7.4 6.6-21.4 6.6-29.6 0-5.5-2.3-14.6-4.8-21.7-7.2-.2-13.8-4.6-19.2-4.6s-18.7 3.6-27.4 5c-4.7.5-9.4 6.3-11.8 8.8 0 2.6 4.3 2.6 4.3 8.1 0 5.4-10.6 9-15.3 14.2 4.7 5.2 8.7 7.7 8.7 13.1 0 5.4-8.7 7.3-8.6 12.8v7.4c3 1.5 13.7 5.6 17.4 12.3-4.1 3.8-5.9 10.2-7.2 12.7-7.1 11.8-16.5 5.9-25.6 11.5 5 3.1 6.9 7.3 8.7 8.7-1.8 1.4-4.3 1.1-4.3 6.5 0 5.5 6.9 7.3 11.1 11.3v5.6c-16.9 6.1-47.1 17-52.6 17-7.3 0-30.6-3.2-30.6-16.4 0-5.5-.3-3.6 1.7-5.7 4.2-2.1 10.3.2 15.7-.7-3.7-2.3-26.2-13.3-26.2-19.8 0-5.5 2.2-4.4 1.9-5.8 8 .3 16.9.3 23-.6 5.4-6 11.7-7.9 16.7-10.9-2.4-3.1-6.7-7.2-8.8-10.7 3.8-1.5 8.2-3.7 13.2-6.7-2.5-3.1-6.6-3.4-6.6-8.9 0-5.4 5.2-8.9 4.4-13.3-1.4-6.8-2.2-12.8-1.7-16.8 1.5-1.9 6.1-2.6 6.1-8 0-5.5-4.3-4.4-4.3-9.9 0-5.4 15.2-15.3 15.2-20.7 0-5.4-4.4-1.1-4.4-6.5 0-5.5 6.6-6.6 6.6-12s-2.2-13.2-3.1-20.2c-8.2-6.9-20.9-13.7-26.4-13.7-5.4 0-39.7 8.8-57.9 16.7 14.4-1.4 25.1-3.6 30.6-3.6 3 0 8.3-.6 13.1 7.5-1.9 1.5-4.4 4.5-4.2 7.3 5.4 3.1 11.5 5.4 15.1 12.5-8.3 12-26.4 12.3-34.9 19.6 4.7 5.2 8.9 9.3 10.9 13l-6.6 6.8c2.6 3 4.4 1.1 4.4 6.6 0 12-15.3 8-21.8 10.5 4.4 9.6 13.1 16 15.3 22-4.1 3.8-4.4 5.7-9.9 5.7s-12.8-2.1-20.7-3.7c6 5.7 4.2 8.7 4.5 14.2 8.8 2.6 15.1 11.3 15.1 20.1 0 5.4-5.5 6.6-10.9 6.6s-25.2-13.1-30.6-13.1c-5.5 0-9 6.5-14.5 6.5h-73.8c-.7 0-1.4-.2-2.1-.6 0 .1 0 .2.1.3 12.1 22.2 17.5 53.3 41.7 79.2m249.7-86.8c0 5.5-4.3 6.6-4.7 11.8l-12.6-2.6c2.2-5.3 9-12.1 14.1-16.8 2.9 2.5 3.2 2.2 3.2 7.6m-3.3 71c-5.5 0-9.7-7.2-11.9-12.6 9.6-.5 11.9 1.6 14.8 2 .3 3 2.5 5.2 2.3 7.9.1 0 .3 2.7-5.2 2.7m-24.9 7c9.8 1.8 19.1 8.6 25.9 15.6.1 2.6-2.5 7.8-5 10.2-8.6-.8-18.6-19-20.9-25.8m-15.4-41.4c9.7-.5 16.9 4 23.9 9 0 0 0 7.9-5.4 7.9-5.5 0-14-9.2-18.5-16.9m-226.6-7.1-5.1-5.5c2.5-2.9 4.8-7.3 7.2-9.1 4.6-.6 10.2-2.8 15.7-2.8s9.1-.5 35.1 2.2c19.4 2.2 49 2.2 68.7 20.9-5 3-7.6 3.1-13.1 3.1-5.4 0-15.6-4.3-21-4.3h-41c-5.5 0-21.1-8.7-26.5-8.7-5.4-.1-10.7 2-20 4.2m91 100.5 2.7-6.5h9.1c7.1-.1 19.8 23.8 20.9 28.1H899c-9 .2-25.4-17-25.4-21.6m-34.8-3.8c3.2-.6 2.1-2.8 7.5-2.8 5.5 0 24.8 22.1 38.3 35.9 0 0 0 7.7-5.5 7.7-5.5.1-27.1-24.3-40.3-40.8"/><path class="st0" d="M589.4 675.3c2.4 0 4.9.2 7.4.2-2.5 0-5-.2-7.4-.2M619.3 680.5c-.1-2.4 0-4.8-1.1-7.1 1.1 2.3 1 4.7 1.1 7.1M498.9 735.5c-3.7-.8-7.8-1.3-15-2.8 7.1 1.6 11.3 2 15 2.8M635.4 647.6c5.5 0 11.5-2 17.2-4.2-5.6 2.2-11.7 4.2-17.2 4.2M577.2 649c-9 5.3-16.1 13.9-21.6 13.9 5.5 0 12.6-8.5 21.6-13.9M545.9 653.8c-1.2.7-2.3 1.7-3.2 2.8 1-1.2 2-2.1 3.2-2.8M523.2 684.8c3.3-1.6 7.1-3.1 8.8-6 2.3-3.7 4.8-15.6 10.6-22.2-5.9 6.6-8.4 18.5-10.6 22.2-1.6 2.9-5.4 4.4-8.8 6M487.5 720.3c-4.4 4.3-7.7 10.7-12.3 13.8 4.6-3.1 7.9-9.5 12.3-13.8 6.6-.2 11.9-4.8 16.3-10.6-4.4 5.9-9.7 10.5-16.3 10.6"/><path class="st5" d="M514.7 547.3c-.5 6.6-12.6 25.8-16 28.2 0 0-3 0-3-5.4-.1-5.4 11.1-16.1 19-22.8M482.1 586.8c-2 5.7-6.2 7.4-6.2 12.8 0 5.5 1.9 4.7 4.4 7.6-11.2 13.9-15.6 26.9-25.7 38.1 7.5-20.5-.5-43.1 27.5-58.5M371 652c0-4.8 8.7-16 14.5-25l.5 12.5c-4 14.8-15 11.9-15 12.5M386.1 639.5l-.5-12.5c.7-1.1 1.5-2.3 2.1-3.3.1 6.7-.5 11.8-1.6 15.8M428.1 656c1.9-9.8 4.3-18.9 12-28 1.6 6.4 0 26.2-12 28M384 703.9h-15c6.5-14 8.9-30.3 18.4-37.3l.4 8.6c-5.6 9.5-8.9 18.5-3.8 28.7"/><path class="st5" d="m387.7 675.2-.4-8.6c2.1-1.6 4.6-2.7 7.5-3.2-2.4 4.1-4.9 8-7.1 11.8M415.8 665.1c3 2.5-1.4 10.6-9.4 17.3 1.9-5.8 4.2-12.6 9.4-17.3M1319.9 852.9c3.9 22.8 3.9 47 .7 72-3.3-7.3-5.4-13.6-9.9-20.7 2.3-4.9 8.7-9.6 9.2-15v-36.3zM1229.7 922.1c-2.4 2.5-5.4 7.2-8.3 6.9-.3-27 1.9-53.5 5.3-63 .9 3.3 3.1 7.7 3 56.1M1018.7 986.2c4 6.6 3.1 22.3 11 28.3 20.4-21.5-3.3-50.5 10.5-76.3 4.9-.2 11.5 2 15.4 2.1 8.9-10.1-1.2-23.7 11.7-30.6 2.8 7.2 7.2 16 8.7 21.8 8.9-5.4 9.4-17 9.4-23 0-2.2 3.2-1.1 4.9-.9 1.8-3.9 1.8-27.9 5-32.9 3.1 7.3 7.4 15.7 11.4 22 1.7-.2 2.8-2.4 8.2-2.4 5.5 0 7.1 6.7 12 9.6-11.7 16.2-6.2 30.7-4.9 47.1-7.7-4.4-16.8-9.1-20.3-15.1-3.5 4.1-7.5 12-7.5 17.5s4.4 9.8 4.4 15.3c0 19.3-35.8 37.7-41.2 41.1-2.6 6.2-4.7 14.6-5 21.9-18.3.3-37.9 4.7-62.7 6.6v-8.2c23.3-.3 28.4-29.2 29-43.9M1139.5 1034.8c.7-4.1 2.9-8.3 2.9-13.8l-8.4-113.2h7.1c3.5 103.3 5.7 121.9 5.7 127.4 0 11.2-17.2 29.1-16.4 42.6-1.1-9.8-1-23.2 1.8-34.3 1.7-2.4 6-6.7 7.3-8.7M993.8 976.3c0-5.5-2.1-15-3.7-25 4.8 4.4 10.3 27.2 10.3 40.3 0 10.7-1.2 12.2-19.4 20.6v-12.3c11.8-11.6 12.8-12.4 12.8-23.6M1175.2 989.4c0 5.4-4.4 15.3-5.3 25.1-3.4-9.6-3.4-21-.4-32.8 3.2 2.5 5.7 2.2 5.7 7.7M904.6 1038.8c12.6 2 12.6 20.9 14.3 28-5.8-6.9-16.9-17.3-16.9-22.8s2.2-2.2 2.6-5.2M896.9 1094.4c-.3-2.4-3.5-5.4-3.2-10.8v-14.4c10.4 13.5 21.5 34.9 21.5 40.3 0 5.5-6.6 9.8-6.6 15.3 0 8.7 13.1 49.1 26.2 49.1 5.4 0 10.9-6.6 10.9-12s-6.6-16.4-6.6-21.8c0-5.5 2.2-4.4 3.2-7.6 5.5 16.1 7.8 33.5 11.9 49.8-5.2.4-8.9.1-13 4.2l-3 53c-16.5-37.8-29.6-76.6-42.2-116.5-2.4-8.2 2.5-19.8.9-28.6M862.4 1141.5c.3 7.3 6.1 14.6-1.2 21.4-.7-3.2-1.7-21.7 1.2-21.4M897.1 1182.5c-9.3-9.6-11.7-25.9-9.3-39.2 3.3 11.8 5.5 24.8 9.3 39.2M1109.3 1183c.3 3 2.5 5.1 2.2 16.8-3 .3-3.9-4.7-6.3-9.5.1 0 1.1-7.6 4.1-7.3"/><path class="st4" d="M696.6 883.5c0 18.1-30.2 22.6-45.5 23.7 15.3-1.1 45.5-5.7 45.5-23.7M648.6 907.3zM507.1 748.2c-.3 3.4-.9 6.7-1.3 9.8.4-3.1 1-6.4 1.3-9.8M453.4 857.2c32-18.2 58.5-58.9 52.3-88.1 6.2 29.2-20.3 69.9-52.3 88.1M790.2 759.5c.8.1 1.5.2 2.2.3-.7-.1-1.4-.2-2.2-.3M643.1 907.5c-31 0-116-17.8-164.6-28.9 48.6 11.1 133.5 28.9 164.6 28.9M787.6 759c.6.1 1.2.3 1.9.4-.7-.1-1.3-.2-1.9-.4M810.2 784.6c-7-5.7-15.9-13.5-22.5-16.2 6.6 2.7 15.5 10.5 22.5 16.2M737.9 821.8c-3.8 2.9-7.4 6.4-11 9.9 3.6-3.5 7.2-7 11-9.9zM784.6 758.1c.7.3 1.4.6 2.2.8-.7-.2-1.5-.5-2.2-.8M749.9 804.8c-1.4-11.9-24-23.3-30.2-26.2l-3.5 3.5 3.5-3.5c6.3 3 28.8 14.3 30.2 26.2M760.3 680.1l.9 1.8c-4.8-2.6-11-12.1-15.6-16.9 4.5 4.4 10 12.2 14.7 15.1M536.3 755.5c-1.2 1.9-1.4 3.5-6.8 3.5-2.7 0-6.3-1.6-10.3-3.7 3.9 2.1 7.5 3.7 10.3 3.7 5.4 0 5.6-1.6 6.8-3.5-2.2-13.6 5.4-34.6 18.9-46.5-13.6 11.9-21.1 32.9-18.9 46.5M779.3 754.6c-4.9-4-8.7-8.7-12.8-8.7 4.1 0 8 4.7 12.8 8.7M623.2 688.5c-.1-.1-.3-.2-.5-.3.2.1.4.2.5.3M718.2 647.8c1.6.3 3.7 1.1 6 2.3-2.3-1.2-4.4-2-6-2.3M774.2 774.3c-14.5 0-15.2 14.2-24.3 30.5 9.1-16.3 9.8-30.5 24.3-30.5M670.3 877.5c1.5.4 3.1.6 4.9.6-1.8 0-3.4-.2-4.9-.6M724.3 650.1c1.3.7 2.7 1.5 4.1 2.3-1.4-.8-2.7-1.6-4.1-2.3M793.5 759.9c.7.1 1.5.1 2.2.2-.7 0-1.5-.1-2.2-.2M421.3 787.4c2.2 0 9.4-1.2 18.3-3.3-8.9 2.2-16.1 3.3-18.3 3.3M442.7 783.3c1.3-.3 2.6-.7 4-1-1.4.4-2.7.7-4 1"/><path class="st4" d="M620.9 686.5c-1.2-2-1.5-3.9-1.6-5.9.1 1.9.3 3.9 1.6 5.9.5.6 1.2 1.2 1.9 1.8-.8-.6-1.4-1.2-1.9-1.8M616.8 643.3c-5.1 0-23.6 5.8-37 5.8 13.4-.1 31.9-5.8 37-5.8 5.5 0 13.1 4.3 18.6 4.3-5.4 0-13.1-4.3-18.6-4.3M480.2 736.3l3.6-3.5-3.6 3.5c.7 1 1.6 1.9 2.5 2.9-.9-1-1.8-1.9-2.5-2.9M596.8 675.5c1.7 0 3.3 0 4.9-.3-1.6.3-3.3.3-4.9.3M589.4 675.3c-2.4 0-4.8.3-7 1.2 2.2-.9 4.6-1.2 7-1.2M503.8 709.7c5.7-7.5 10.1-17.1 14.4-21.9 1.1-1.2 3-2.2 5-3.1-2 .9-3.8 1.9-5 3.1-4.3 4.8-8.6 14.4-14.4 21.9M801.3 761.2c.2 0 .4.1.6.2-.2-.1-.4-.2-.6-.2M503.8 737c-1.7-.7-3.3-1.1-4.9-1.5 1.6.4 3.2.9 4.9 1.5"/><path class="st4" d="M622.8 688.2c.2.1.3.2.4.3 1.7 1.2 3.6 2.2 3.7 3.2-19 4-39.3 5.1-56.2 8.9-5.7 1.3-10.9 4.3-15.5 8.3-13.6 11.9-21.2 32.9-18.9 46.5-1.2 1.9-1.4 3.5-6.8 3.5-2.7 0-6.3-1.6-10.3-3.7-4-2.1-8.2-4.9-12.1-7.1-.3 3.4-.9 6.7-1.3 9.8-.5 3.9-.9 7.6-.1 11.1 6.2 29.2-20.3 69.9-52.2 88.1-3.3 1.9-6.7 3.5-10.1 4.9v7.9c2.5.9 16 4.2 35.1 8.6 48.7 11.2 133.6 28.9 164.6 28.9.9 0 2.9-.1 5.5-.2.8 0 1.6-.1 2.5-.2 15.3-1.1 45.5-5.6 45.5-23.7 0-5.4-.3-4.1-2.9-6.5-6.9-.1-13.3 1.2-18.6 1.1-1.7 0-3.4-.2-4.9-.6v-7.7c11.2-9.2 24.9-14.5 36.4-21.4l4.8-3c5.5-3.8 10.5-8.8 15.5-13.6 3.6-3.5 7.2-7 11-9.9V814c-21.3-1.4-14.7-21.7-21.6-31.8l3.5-3.5c6.2 2.9 28.8 14.3 30.2 26.2 9.1-16.4 9.8-30.5 24.3-30.5 5.4 0 23.8 8.7 36 10.3-7-5.7-15.9-13.4-22.5-16.2-8.4-3.6-23-3.7-27.1-11.1-.3-.5-.5-1-.7-1.6v-6.1c.5-.5.8-.9 1.1-1.4.8-1.3 1.4-2.3 5.5-2.3s7.9 4.7 12.8 8.6c1.6 1.3 3.4 2.6 5.3 3.5.7.3 1.4.6 2.2.8.2.1.5.1.7.2.6.1 1.2.3 1.9.4.3 0 .5.1.8.1.8.1 1.5.2 2.2.3.3 0 .7.1 1 .1.7.1 1.5.1 2.2.2.5.1 1 .1 1.5.2-4.9-8.8-29.4-53.9-35.7-78.1-.1-.1-.1-.3-.2-.4-4.8-2.6-11-12.1-15.6-16.9-.5-.5-.9-.9-1.4-1.3-4-3.5-10.2-8-15.8-11.3-1.4-.8-2.8-1.6-4.1-2.3 0 0-.1 0-.1-.1-2.3-1.2-4.4-2-6-2.3-.4-.1-.8-.1-1.1-.1h-26.5c-.5.9-1.2 1.7-1.8 2.6-9.3 13-24 25.7-33.8 25.7-.7 0-3.1.4-5.2-.5l-27.1 12.8zm58.7 132.6c2.3-2.5 4.8-7.1 9.4-9.2h14.2c.3 3.1 2.5 4.2 2.5 9.6 0 5.4-4.7 7.4-7.2 9.6h-18.8v-10zm-.2-53.1c0-7.6 13.8-16.4 17.5-18.5-3.7-1.3-8.7-3.4-14.2-3.4-5.4 0-8.7 4.3-13.5 4.3-2.5-2.4-5-2.1-5-7.6s17.6-26.7 24.5-40.1h8c-1.7 13.8 10.3 10.6 13.3 10.6 5.5 0 17.5-4.4 23-4.4s7.1.1 11.7 2.5c0 0 0 2.2 2.4 4.7.1 2.6-4.6 5.5-7.2 8h-30.7c-5.4 0-10.7 6.5-14.5 8 2.1 3.5 3.3 5.1 8.8 5.1 5.4 0 15.3-4.4 20.8-4.4 5.4 0 6.5 2.2 9.6 2.5v7.8c-9.9 11.5-12.4 11.8-22.1 9.2.4 3.5-4 11.1-4 16.6 0 5.5 1.9 3.6 4.4 6.6-2.5 2.9-2.2 3.3-7.6 3.3-5.5 0-15.3-4.4-22.6-4.7-.4-2.8-2.6-.6-2.6-6.1m-17.4 28.4c-5.5 0-8.4-2.5-10.9-5.2 3.4-8.8 12.3-14.5 15.3-14.5 5.4 0 5.4 2.2 8.5 2.5v7.8c-4.6 4.7-7.5 9.4-12.9 9.4m-28.3 88c2.3-2.5 6.7-4.7 9.2-7.1 2.6-.1 5.6.2 7.9 2.8v10c-3.1.3-5.3 2.5-17.1 2.1v-7.8zm0-35.8c2.5-12.3 5.1-16.1 13.8-19.4 13.3 0 13.3 2.2 16.3 2.5.4 5.1-8.7 17.2-14.1 16.9h-16zm-10-30.3c-5.5 0-9.2-2.3-14.1-4.9v-9.7c2.4-2.5 4.5-7.2 10-7.1H637c2.5 2.4 2.8 3.2 2.8 8.7 0 8.1-8.5 13-14.2 13m-31.7 39.3c0-5.4 2.5-6.3 5-8.7h16.2l5 5.3c-1.7 3.6-12.3 12.1-15.3 12.1-5.4 0-8.2-2.4-8.2-2.4-2.4-2.3-2.7-.9-2.7-6.3m-16.6-24.1s-1.9-2.1-5-2.5c2-7.5 10.7-17 16.2-17s9.9 2.2 9.9 7.6c-.1 10.3-15.7 11.9-21.1 11.9m-22.7 22.6c2.4-2.5 5.4-5.1 10.9-5.1s10.8 5 13.1 9.8c-2.3 4.8-5.5 7.6-10.9 7.6-5.5 0-7.6-2.2-10.6-2.5-.3-2.9-2.5-7.2-2.5-9.8m-13.1-21.2 2.6-7.8h9.9c2.5 2.3 5 5.3 4.9 7.9-2.4 2.6-7.5 5-10.2 5-2.6-2.4-4.7-2.4-7.2-5.1m15.3-39.6c0 5.5-4.9 7.5-12.2 12-2.8-2.5-3.1-2.2-3.1-7.6 0-5.5 5-11.9 10-14.2 2.8 2.6 5.3 4.4 5.3 9.8m17.5-20.7c0 5.4-2.5 8.4-7.2 12.9h-7.8c-.3-3-2.4-.8-2.4-6.3 0-5.4 4.7-10.6 9.8-15.3 2.8 2.5 7.6 3.2 7.6 8.7m66.6-72s2.1 2.2 5.3 2.5v7.1c.2 5.4-12.7 19.3-19.8 26.4-3.5 3.6-11.9 4.3-17.6 8.1-7.1 4.7-8.6 12.5-15.3 18.3-2.3.9-2.8 3.1-8.2 3.1-5.5 0-8.6-5-10.9-9.8 16.8-27.3 15.3-15.3 15.3-26.2-.1-12.6 41.2-25.7 51.2-29.5M484.1 740.6c3.9 4 8.5 8.1 9.2 11.9.1.3.1.7.1 1 0 13-25.8 23.1-46.6 28.8-1.4.4-2.7.7-4 1-1.1.3-2.1.5-3.1.8-8.9 2.1-16.1 3.3-18.3 3.3-8.4 0-14.6-1.9-21.7-15H433c15.6-.3 41.9-19.5 34.9-36.4 1.1.1 2.2.1 3.2-.1s1.9-.5 2.8-1c.3-.2.6-.4 1-.6l7.8 4.8c.4.6.9 1.1 1.4 1.5"/><path class="st4" d="M487.5 720.3c6.6-.2 11.9-4.8 16.3-10.6 5.7-7.5 10.1-17.1 14.4-21.9 1.1-1.2 3-2.2 4.9-3.1 3.3-1.6 7.1-3.1 8.8-6 2.3-3.7 4.8-15.6 10.6-22.2 1-1.1 2-2 3.2-2.8 1.2-.8 2.4-1.3 3.9-1.5 0 0 .4 5.2.3 9.1 1.9 1.9.1 1.5 5.6 1.5s12.5-8.6 21.6-13.9c.8 0 1.7.1 2.6.1 13.4 0 31.9-5.8 37-5.8 5.5 0 13.1 4.3 18.6 4.3 5.5 0 11.5-2 17.2-4.2V655c.3 5.4-6.3 7.9-6.3 13.4 0 4.4 1.6 6.3 3.5 7.2l-27.1 12.7c-.7-.5-1.4-1.1-1.9-1.8-1.2-2-1.5-3.9-1.6-5.9-.1-2.4 0-4.8-1.1-7.1-2.1-2.1-.2-1.7-5.7-1.7s-6.4 2.7-10.8 3.5c-1.6.3-3.3.3-4.9.3-2.5 0-5-.2-7.4-.2-2.4 0-4.8.3-7 1.2-29.3 12.8-77.2 25.2-78.5 60.5-1.7-.7-3.3-1.1-5-1.5-3.7-.8-7.8-1.3-15-2.8l-3.6 3.5c.7 1 1.5 1.9 2.5 2.9l-7.8-4.8c.1-.1.2-.1.3-.2 4.7-3.2 8-9.6 12.4-13.9M761.5 682.3c12.1 22.4 17.4 53.5 41.6 79.5-.4-.1-.8-.3-1.2-.4-.2-.1-.4-.2-.6-.2-1.3-.4-2.7-.6-4.1-.8-4.9-8.9-29.4-53.9-35.7-78.1"/><path class="st1" d="m971.3 252.4.1.1-.4-.1h.3zM833 250.4l-63.5-7.7-17.5 4.2c16.9-8.8 40.7-7.5 53.8-7.5 5.4 0 116.1 13 121.5 13.1h40.6l-28.6 6.1-106.3-8.2z"/><path class="st1" d="M982.8 267.1c-22.1 5.2-17.1 6-64.4 5-19.9-.3-8.5 12.2-18.6 21 2.7 7.3 19.1 5.1 27.9 10.2 7.4 4.4 16 15.2 19.3 21.8 3 6.3 3.1 13.5 3.6 19.7 1.5 1.9 3.7 4.2 5.2 6.6.9 4.5.9 9 1.2 12.9 3.5 1.9 8.9 7.2 9.7 11.3.8 4.1.8 9.3-.8 13.2 1.4 1.7 5.9 4 10.2 13.8-3.1.5-2 2.7-7.5 2.7s-13.3-4.9-19.9-6.1c-9.8-1.6-25.4 1.1-38-9.9-.1-4.8 4.9-10.2 8.7-11.5-10.5-7.8-23.6-12.1-34.9-21.5 2.3-5.1 9.5-10 15.3-11.3-14.8-9.9-32.4-18.7-48-32.2 1.6-10.9 11.1-12.7 35-11.8-6.5-7.6-17.5-12-23.7-22-27.7-3.1-65.5-22.5-93.4-20.1-24.1 0-26.2-2.2-29.5-2.8 3.2-3.9 7.2-6.9 11.7-9.3l17.5-4.2 63.5 7.7 106.5 8.1 28.6-6.1h3l.4.1c4.7 4.7 9.2 9.4 11.4 14.7M645.6 287l-98.4 46.3-3.1 1.6c-.1-.2-.3-.4-.5-.6 49.1-36.3 111.5-65.1 167.1-77.4h.2l-.3.1-65 30z"/><path class="st1" d="M704.8 290.7c-19.1 11.2-44.2 6.7-65.9 12.4-2.4.5-4.4 6.6-8.8 7.4-6.5 1.1-15.6 2.1-23.8 5.7-3 1.1-37.3 25.8-46.6 25.7h-11.1c-2.3-2.3-2.5-4.4-4.5-7.1l3.1-1.6 98.4-46.3 65-30.1.3-.1c6.5 0 8.7 2.2 11.8 2.7-4.3 9.9-8.6 25.9-17.9 31.3"/><path class="st1" d="M761.4 307.4c-6.8 2.5-13.3 8.5-19.8 9.6-6.6 1.1-15.6-3.1-21.7-.9-5.2 1.9-10.4 7.7-17.5 9.6-8.2 2.2-20.2 2.2-30.5 5.7-3.3 1.1-51.4 30.1-62.6 30.1-5.4 0-8.7-4.3-8.7-9.8 0-13.9 17.5-11.3 15.5-31.2 14-3.7 4.7-2.7 50.7-2.6 1.8-1.9 6-6.1 8.5-10.2 2.6-.8 4.6-.7 6.6-1.4 10.8-10.5 23.5-6.3 32.8-11 6.6-3.3 13.6-14.5 19.1-14.5 5.5 0 5.5 4.3 11 4.3s10.9-8.7 16.4-8.7c5.4 0 8.7 10.9 14.2 10.9 5.4 0 12-4.3 17.5-4.3s8.2 2.3 13.1 5.1c-9 15.9-33.1 15-44.6 19.3M1004.3 303.4c18.3 13.9 21.2 42.7 46.2 50-.7 8.6-6.4 14.8-14 14.8-5.4 0-17.8-9.9-26.5-12.7-4.1-1.4-8.1-.5-12.8.9-16.9-19.2-22.1-41.1-46.4-54.7-1.9-1.1-4.8-6.2-7.1-10.9l2.6-9.8h34.1c3.7 8.4 2.6 9.1 2.6 10.7-.1 5.5 15.8 7.6 21.3 11.7M784 379.1c-5.4 0-24.7 6.5-36.1 10.9 0 0-2.1-2.2-5.2-2.7 2.1-5.4 6.7-10 13-15.8-10-8.8-23.7 7.2-30.6-11.1 11.7-14.7 72.6-29.3 73.4-29h11.6c-2.1 7.7-4.2 11.7-4.3 13.5 2 1.8 5.5-.7 27.4-.7 16.1 0 13.1 16.2 12.4 26.7 11.2 4.2 12.1 16.9 8.4 24.4 4.1 3.8 10.5 3.6 17.3 8.4v9.9c-4.8 2.6-10.8 7-16.2 7-23.5 0-39.1-41.5-71.1-41.5M596.1 364.8c0 9.6-8.7 14.2-13.1 14.2-5.4 0-4.4-6.6-9.9-6.6s-12.7 4.3-20.4 6.3c3-15.8 26.8-30.3 40.4-32.4l5.1 5.3c-2.2 5-2.1 7.8-2.1 13.2M445.5 412.5l-2.9 3.8c-.5-.3-1-.7-1.6-1 13.4-14 26.6-33.7 44.4-51.2h1.5l-1.9 1-39.5 47.4z"/><path class="st1" d="M500 370.3c0 5.4-13.4 22.5-14.8 34-.8 6.5 1.6 15.3.8 24.3-3.7 4.7-7.8 5.1-13.3 5.1-10.1 0-10.2-4.3-30.1-17.4l3-3.8 39.5-47.5 1.9-.9h10.7c.1 2.9 2.3.7 2.3 6.2M625.9 366.1h13.6c-.6 15.5-18.3 25.9-24.4 32.5h-7.5c-2.5-2.4-2.8-1-2.8-6.4 0-4.1 13.4-26.2 21.1-26.1M626.9 415.5v-9.9c3.1-.3 4.1-2.5 9.6-2.5s17.7 11 25.9 13.1c3.9-4.1 5.9-10.5 8.8-14.4 4-2.9 11-3 15-3.8 6.3-5.6 8.6-12.3 15.7-16.8 5 2.3 7.7 5.5 7.7 11 0 7.6-40 72.3-46.3 77.5-1.6 1.4-7.2.9-11 3.5-4.3 3.3-8.8 10.4-20.4 17.2-2.9-2.5-5.3-1.1-5.3-6.6s6.6-16.7 8.9-22.4c-8-1.6-16.8.5-26-1.8 0 0-.1-2.3-2.6-5.2 9-11.7 26.2-26.3 26.2-31.7.2-5.4-3.9-4.7-6.2-7.2M745 399c5.2-5.2 19.3-6.8 24.8-6.9 11.7 0 31.7 1.9 31.7 20.8 0 5.5-2.3 13.6-7.3 15.5-12.5 4.6-27.1 5.4-39.2 12.2-9.8 5.4-11.4 26.2-26.5 34.3h-10v-16.4c-.1-.9 15.9-40 18.9-44.1 3.1-4.1 4.4-12.1 7.6-15.4M873.6 404.4c7-5.5 21.8-12.3 27.3-12.3 5.4 0 7.3 2.5 9.8 5.1.1 2.6-2.4 7.7-5 10.2l-32.1-3zM841.9 453.3c17.5 0 18.6 21.6 18.6 27.3 0 8.8-.8 20.8-14.2 20.8-5.5 0-39.9-17.6-60-28.9v-7.7c9-6.9 22.8-13.6 28.3-13.6 5.5-.1 21.9 2.1 27.3 2.1M1245.1 659.6c0 5.4-2.2 15.3-2.2 22.3-2.4 2.5-1 2.9-6.5 2.9-27.4 0-12.7-23.8-38.2-34.9 0 0-1.4-.3-3.3 1.1 4 3.6 10.8 8.2 12.9 12.9v9.8c-3.1.2-2 2.5-7.5 2.5-8.1 0-15.2-10.9-15.8-18.5-1.4-19.7-4.3-42.1-10-60.9-3-9.8-12.4-20-12.4-25.5s2.4-6 3.7-8.1c.8-2.1-1.5-2.8-1.5-8.2 0-14.5 19.6-6.3 19.6-24 0-12.3-20.4-7.9-23.5-8.7-6.9-10.4-13.3-21.2-22.4-30.6 6.8-9.5 11.1-18.1 16.1-25.2 4.6 1.7 17.1 10.8 25.3 23.4-5.3.6-9.7 2.8-13.5 2.6 0 0-1.6-2-1.6 3.5 0 5.4 3.9 5.7 8.1 9.1 9.4 2.6 16.3-6.5 23.5 5 1.3-3.7 1.2-7.6 1.3-12.4l5-5c2.6-.1 7.7 2.4 12.3 7.2v26.3c.1 5.5-13.2 29.3-21.8 41.5 3.8 1.5 9.5 1.4 17.2-.5-1.9 14.1-1.9 20.5-2 27.6-4.8 2.6-11.9 2.7-17.5 2.1 7.9 11.7-5.2 21.9 14.1 29 1.6-1.9 3.5-5.5 3.8-8.6h7.1c6.6-.1 25.3 25.8 28.9 33.3.7 2.1.8 3.6.8 9M613.3 497.8c.3 5.4-9.5 12.2-14.8 12V500c-.1-5.4 6.9-11.6 14.8-16v13.8zM1309.3 499h-11.5c-.3-7.5 4.1-11.9 4.4-14.9h14.4l5 5.4c-2.5 2.8-6.8 9.7-12.3 9.5M420.8 516.8c4.8 11.4 7 24.7 8.8 38.9-5.5-2.1-10.4-7-12.7-11.6 0 0 1.1-27.5 3.9-27.3M1282.3 560.3c-5.4 0-10.8-7.1-12.9-11.8v-9.8c3.1-.3 4.2-4.7 9.6-4.7 5.5 0 15.3 4.4 25 5.1-2.4 3.4-2.3 7.9-5.3 12-3.3 4.4-11 9.2-16.4 9.2M1254.4 616.8c-6.9-9-15.9-22.7-15.9-28.1 0-5.5 2.5-8.4 5.1-10.9 16.4 2.7 23.3 21 23.3 28.4 0 5.5-2.2 7.6-2.5 10.7h-10zM146 602.1h20.4c1.1-.3 9.2 3.5 12.1 10.1-11.9-1.2-25.5-.9-32.5-10.1M1304.1 651.2l2.9-21c7.7 6.8 14.2 17.7 23.2 26.8v7.5c-2.4 2.5-1 2.8-6.4 2.8-5.5 0-15.1-9.2-19.7-16.1M1446.4 643.5h8c15 20.1 41.3 28.6 55.2 37.8-4.7 5.3-11 7.8-16.4 7.8-15.3 0-31.2-12.4-46.8-31.3v-14.3zM1035.5 684.1c2.2-5.3 9-12.1 14.1-16.8 3 2.5 3.3 2.2 3.3 7.6 0 5.5-4.3 6.6-4.7 11.8l-12.7-2.6zM1293.4 694.9v-14.2c14.1.8 18.1 22.5 19 34.5-5.4-3.1-19.2-14.3-19-20.3M777.5 698.9c2.5-2.9 4.8-7.3 7.2-9.1 4.6-.6 10.2-2.8 15.7-2.8s9.1-.5 35.1 2.2c19.4 2.2 49 2.2 68.7 20.9-4.9 3-7.6 3.1-13.1 3.1-5.4 0-15.6-4.4-21-4.4h-41c-5.5 0-21-8.7-26.5-8.7s-10.7 2.1-20 4.3l-5.1-5.5zM1507.3 716.8c-3.2.8-3.2 2.9-8.7 2.9-9.5 0-30.2-7.5-34.7-18.3v-7.8h9.4c5.4-.1 24.9 15.4 34 23.2M646.2 704.8v7.1c.2 5.4-12.7 19.3-19.8 26.4-3.5 3.6-11.9 4.3-17.6 8.1-7.1 4.7-8.6 12.5-15.3 18.3-2.3.9-2.8 3.1-8.2 3.1-5.5 0-8.6-4.9-10.9-9.8 16.8-27.3 15.3-15.3 15.3-26.2 0-12.5 41.4-25.6 51.4-29.5-.2-.1 2 2.1 5.1 2.5M698.8 749.3c-3.7-1.3-8.7-3.4-14.2-3.4-5.4 0-8.7 4.3-13.5 4.3-2.5-2.4-5-2.1-5-7.6s17.6-26.7 24.5-40.1h8c-1.7 13.8 10.3 10.6 13.3 10.6 5.5 0 17.5-4.3 23-4.3s7.1.1 11.7 2.5c0 0 0 2.2 2.4 4.7.1 2.6-4.6 5.6-7.2 8h-30.7c-5.4 0-10.7 6.5-14.5 8 2.1 3.5 3.3 5.1 8.8 5.1 5.4 0 15.3-4.4 20.8-4.4 5.4 0 6.5 2.2 9.6 2.5v7.8c-9.9 11.5-12.4 11.8-22.1 9.2.4 3.5-4 11.1-4 16.6 0 5.5 1.9 3.6 4.4 6.6-2.5 2.9-2.2 3.3-7.6 3.3-5.5 0-15.3-4.4-22.6-4.7-.3-2.9-2.5-.7-2.5-6.2-.1-7.7 13.7-16.5 17.4-18.5M1027.7 728.5c-5.5 0-14-9.2-18.5-16.9 9.7-.5 16.9 4 23.9 9 0 0 0 7.9-5.4 7.9M161.9 722.2h7.9c-3.2 9.1-10.8 13-21.6 12.1 4.6-5.5 9-7.7 13.7-12.1M1037.7 733.3c9.6-.6 11.9 1.6 14.8 2 .3 3 2.5 5.2 2.3 7.9 0 0 .2 2.7-5.3 2.7-5.4 0-9.7-7.2-11.8-12.6M1045.5 778.6c-8.7-.7-18.6-18.8-20.9-25.7 9.8 1.8 19.1 8.7 25.9 15.6.1 2.5-2.4 7.7-5 10.1M567 787.2h-7.8c-.3-3-2.4-.8-2.4-6.3 0-5.4 4.7-10.6 9.8-15.3 2.9 2.5 7.7 3.3 7.7 8.7 0 5.4-2.6 8.4-7.3 12.9M652.9 790.9c3.4-8.8 12.3-14.5 15.3-14.5 5.4 0 5.4 2.2 8.5 2.5v7.8c-4.5 4.7-7.5 9.4-12.9 9.4-5.4.1-8.4-2.5-10.9-5.2M544.6 807.1c-2.8-2.5-3.1-2.2-3.1-7.6 0-5.5 4.9-11.9 10-14.2 2.8 2.5 5.3 4.4 5.3 9.8s-4.9 7.4-12.2 12M611.5 803.3c2.4-2.5 4.5-7.2 10-7.1H637c2.5 2.5 2.8 3.2 2.8 8.7 0 8.2-8.4 13.1-14.2 13.1-5.5 0-9.2-2.3-14.1-4.9v-9.8zM884.6 834.3s0 7.7-5.5 7.7c-5.4 0-27-24.4-40.3-40.8 3.2-.6 2.1-2.8 7.5-2.8 5.5-.1 24.8 22.1 38.3 35.9M873.6 804.9l2.7-6.5h9c7.1-.1 19.9 23.8 20.9 28.1H899c-9 .2-25.4-17-25.4-21.6M690.9 811.6h14.2c.3 3.1 2.5 4.2 2.5 9.6 0 5.4-4.7 7.4-7.2 9.6h-18.8v-10.1c2.2-2.4 4.7-7 9.3-9.1M577.3 833.2s-1.9-2.1-5-2.6c2-7.5 10.7-17 16.2-17s9.9 2.2 9.9 7.6c-.1 10.4-15.7 12-21.1 12M553.9 826.9c2.5 2.3 5 5.3 4.9 7.9-2.4 2.6-7.6 5-10.2 5-2.6-2.4-4.7-2.4-7.2-5.1l2.6-7.8h9.9zM649.4 828.9c13.3 0 13.3 2.2 16.3 2.5.3 5.1-8.7 17.2-14.1 16.9h-15.9c2.5-12.3 5.1-16.1 13.7-19.4M261.3 848.7c.5 7.2-5.4 16.4-14.7 12.2 2.2-5.2 9.2-10 14.7-12.2M599 848.6h16.1l5 5.3c-1.7 3.6-12.3 12.1-15.3 12.1-5.4 0-8.2-2.4-8.2-2.4-2.4-2.3-2.7-.9-2.7-6.4 0-5.4 2.5-6.2 5.1-8.6M565.5 850.7c5.5 0 10.8 5 13.1 9.8-2.3 4.8-5.5 7.6-10.9 7.6-5.5 0-7.7-2.2-10.6-2.5-.3-2.9-2.5-7.3-2.4-9.9 2.4-2.5 5.3-5 10.8-5M228.2 878.3l5.1 1.5c-6.7 9.8-15.4 20.6-22.4 29.6h-8v-7.7c-.1-5.4 15.7-18.1 25.3-23.4M652.7 879.8v10c-3.1.3-5.3 2.5-17.1 2.1v-7.8c2.3-2.5 6.7-4.7 9.2-7.1 2.6-.1 5.6.3 7.9 2.8M241.9 975.4v7.2c.2 5.5-6.4 13.9-9.4 20.5-1.3 2.1-6.9-3.9-7.7-.4.8-5.7 8.4-24.3 17.1-27.3M696.9 1103.6c6.5-7.7 13.1-16.7 20.8-23.6l2.9 18.5c-.6 20-32 29.5-42.6 29.5-5.5 0-11.4-.2-16.2-2.8-.2-4.9-.2-9.3 0-14.2 8.7-4.4 26.9 1.9 35.1-7.4M524 1156.5c5.5 0 12 2.2 18.1 2.2l3.4-2.1v12.3l-15.9 15.9c-7.1-2.3-9.5-11.1-16.5-16 2.2-7 5.9-12.3 10.9-12.3M554.6 1189.2c-5.5 0-8.4-2.5-10.9-5.3 2.2-5 7.1-12.1 11.7-14.3h7.3c2.5 2.4 2.5 4.6 5 7.4-2.3 5.1-7.7 12.2-13.1 12.2M573.3 1187c2.8 2.5 4.3 2.2 6.8 2.2 2.5 2.5 2.9 2.1 2.9 7.6 0 8.7-12.8 38.2-18.6 38.2-10.1 0-9.9-9.3-9.9-10.9.1-3.8 14.6-34.7 18.8-37.1M507.3 1238.4l.3 6.7c-2.4.1-5.1-.5-7.6-1.9-.2-4.9 2.1-8.8.9-12.6-1.2 3.8-6.5 8.8-11.2 8.7-4.6-2.3-7.4-5.4-7.4-10.9 0-12.6 13.2-30 15.9-32.6h.1c1.2 7.8 2.4 12.1 2.4 12.1l6.6 30.5z"/><path class="st1" d="M510.9 1205.6c0 5.4-2.3 11.5-6.6 17.2 3.8 1.5 11 .3 11 5.8s-2.2 9.8-2.2 14.6c-1.2 1.2-3.1 1.9-5.3 2l-.3-6.7-6.5-30.5s-1.1-4.3-2.4-12.1h9.6c2.4 2.3 2.7 4.2 2.7 9.7M552.1 1198.2c.3 3 2.5.8 2.5 6.3 0 5.4-4.5 14.8-9.5 21.8-5.2-2.3-12.3-5.4-12.3-10.9s4.5-12.6 9.3-19.6c2.7-.1 7 2.2 10 2.4M783.8 1222.6l14.2-22.4.9-1.9c.2.7.4 1.7.4 2.9 0 3.3-17.2 36.8-25.9 40.2l1-2.9 9.4-15.9z"/><path class="st1" d="M773.3 1227.1c-.2-9.5 16.2-28 23-31.3 0 0 1.7 0 2.5 2.5l-.9 1.9-14.2 22.4-9.4 15.8-1 3h-.1v-14.3zM635.9 1198.2c9.7 2 20.1 2 29.5-.1 2.7 4.9 2.8 9.7 2.8 15.2s-3.9 16.4-6.1 23.3c-1.9 6.3 2 13 .9 19.5-.8 4.4-6.3 9.5-11.4 11.8-7.2-9.2-18.3-26.2-18.3-31.7 0-12.3 3.5 2.2 2.6-38M693.7 1202.4l4.9 5v20.8c-3.1.3-4.1 2.5-9.6 2.5-7.9 0-9.8-8.1-9.8-14.2-.1-7.4 1.2-13.1 14.5-14.1M606.4 1206.8c2.5 2.4 2.8.9 2.8 6.4s-7.9 36.5-11.8 53.8c-.3 2.2-4.6 5.2-10.1 5.2s-13.1-4.4-13.1-9.8c0-5.5 15.3-37.5 22.3-55.5h9.9zM625.6 1238.2c1 4.3 3.3 7.8 3.3 13.3 0 5.4-2.2 6.6-2.5 14.1h-16.5c-2.5-2.4-2.8-3.1-2.8-8.6 0-5.4 6.9-17.1 11.6-21.7 2.6-.3 5.1 2 6.9 2.9M767.9 1257.5l4.5-13.3c2.5 2 2.8 1.1 2.8 6.2 0 10.4-8.8 30.6-18.8 30.5h-11.3s-.7 0-1.4-.8l.3-.6 23.9-22z"/><path class="st1" d="M772 1243.8c.2.2.3.2.5.4l-4.5 13.3-24 22-.3.6c-.6-.7-1.2-2-1.2-4.6 0-10.4 21.7-24.3 29.5-31.7M519.7 1273c-.8 2.5-1.6 4.9-2.4 7.4-2.4 2.4-8 2.6-12.8 0-.1-2.7-2.3-1.7-2.3-7.1 0-4.9 3.6-10.1 6.3-14.7l.5 9.9 10.7 4.5z"/><path class="st1" d="M523.8 1259.6c-1.3 4.7-2.7 9.1-4.1 13.4l-10.8-4.5-.5-9.9c.3-.5.6-1.1.9-1.6l14.5 2.6zM551.7 1287.8c-3 6.2-7.8 10.6-12.4 10.6-11.5 0-15.3-7.7-15.3-16.4 0-2.6.2-4.9.6-7l22.6 9.4 4.5 3.4z"/><path class="st1" d="M541.5 1263.4c5.4 0 8.1 2.3 13 4.9v6.9c0 4.5-1.1 8.9-2.8 12.6l-4.5-3.4-22.6-9.4c1.3-7.3 5.6-11.6 16.9-11.6M733 1303.4l2.9-6.5v11.7c-2.4 2.5-7.3 2.8-9.3 3.3-10.5 7.8-8.1 14.9-19 14.9-5.4 0-7.6-2.2-10.7-2.5v-18.6l7.7 8.7 28.4-11z"/><path class="st1" d="M708.6 1287.5c4.8 2.3 7.1 6.7 10.5 8.8 1.5-5.9 1.6-14.8 6.4-23.8h10.1c.2 7.9.2 16.4.2 24.5l-2.9 6.5-28.5 11-7.7-8.7v-11.1c2.5-2.6 7.1-4.9 11.9-7.2M574 1302.4v6.3c-2.3 2.5-2.3 4.7-4.8 7.1h-7.5c-2.5-2.4-7.2-5.4-7.2-10.8 0-3.3 1.5-7.8 3.7-12.1l9.7 7.4 6.1 2.1z"/><path class="st1" d="M568.7 1278.7s2.2 2.2 5.3 2.5v21.1l-6.1-2.2-9.7-7.4c3.2-6.2 7.6-12.2 10.5-14M690.5 1306.4c-1.5 6.6-2.8 13.1-3 20.1-3 .3-1.9 2.5-7.3 2.5-9.4 0-9.8-7-9.9-12.7l8.5-1.8 11.7-8.1z"/><path class="st1" d="M670.4 1314.8c0-2.8 1.4-20.8 10.9-20.8 5.5 0 8.5 2.5 10.9 5.2-.6 2.4-1.1 4.8-1.7 7.1l-11.7 8.1-8.5 1.8v-1.4zM617.8 1316c-1.3 8.5-9.3 8.5-10.8 8.5-5.5 0-15.3-5.4-15.3-10.9 0-1.4.5-2.9 1.3-4.4l14.3 5.2 10.5 1.6z"/><path class="st1" d="M604.8 1300.6c8.2 0 13.2 8.7 13.2 13.1 0 .9-.1 1.6-.2 2.4l-10.4-1.6-14.3-5.2c2.4-4.5 7.7-8.7 11.7-8.7M655 1319.6c.8 1.5 1.6 2.9 2.3 4.1-4.7 5-14.2 11.9-19.7 11.9s-13.1-4.4-13.1-9.8c0-1.9.9-4.9 2.5-8.2l21.8 3.4 6.2-1.4z"/><path class="st1" d="M642 1302.8c4.5 0 9 9.5 12.9 16.8l-6.1 1.3-21.8-3.4c3.2-6.9 9.1-14.7 15-14.7M830 904.3l-1.4 6.7-43.1 147.9-21.2 34.9c12.2-37.5 54.3-167.3 61.2-183.4 1-2.4 2-4.6 2.9-6.7.2-.2.3-.4.5-.6.3.4.7.8 1.1 1.2M692.4 1169.4l61.8-59-41.9 69.2zM489.6 1013.5l-6.6 13.7 28.4 49.8s3.6 3.4 9.2 8.6c-3.2 1.2-7.8 3.7-12 8.6.1-.4.1-.8.1-1.1 0-13.6-30.5-34.7-30.5-66.6 0-8.5 3.8-20.7 15.2-20.7 5.5 0 12.8 6.8 17.4 11.6v7.6c-.8.4-1.6.7-2.5.9-1-2.6-1.9-5.7-2.4-9.2-8.6-10.8-16.3-3.2-16.3-3.2"/><path class="st1" d="M508.6 1094.2c-1.1 6.6-10.8 24.4-10.8 29.5 0 5.5.3 6.2 3 8.7 16.1-4.1 11.5-15.7 15.5-21.8 1.3 3.8 7.7 9.9 7.7 15.3s-6.5 6.6-6.5 12c0 5.5.3 5.2 2.8 7.5h7.5c2.5-2.4 6.1-6.4 8.1-6.5 4.1 2.1 8 8.2 10.5 13h6.9c5.5.1 17.4 2.2 22.7 4.1.6 3.9 3 9.8 7.7 12.5 6 3.5 13.1 5.2 17 6.8-2.2 3.5-6.6 4.9-6.4 10.3v14.2c3.1.3 3.1 2.5 8.6 2.5 18 0-1.1-27.3 18.2-32.8 6 10.2 37.3 17.6 43 17.6 5.5 0 7.7-6.6 13.1-6.6 30.4 0-2.4 9.8 35.5 15.7 2.7 4.1 22.2 14.9 26.8 14.9 5.5 0 23.5-.7 31.2-5.3 9.9-6 22.4-23.3 22.2-28.8v-7.1c-3.1-.3-5.1-2.4-5.1-2.4-4.6 0-9.4 2.2-13.7 4.6 5.7-11.9 7.9-22.9 11.2-33.1 1.2 5.8 8.3 10.8 13.4 13 5-7 7.4-16.3 7.4-21.7 0-5.5-4.4-13.1-4.4-18.6 0-13.9 20.5-32.8 21.7-42-4.9-2.7-10.8-6.1-10.9-10 6.4-6.1 14.6-11.7 18.7-17.2 2.5-3.3.4-11.3 1.5-15.7 1.4-5.4 10.4-10.3 10.3-15.7v-7.1c-5.3-.3-8.9 0-10.7-1.4 4-3.5 8.3-3.5 12.1-6.7 3.2-12.6 12-31.5 12-36.9 0-5.5-11-17.5-11-22.9 0-5.4 4.4-8.7 4.4-14.2 0-11.1-12.3-10.4-19.6-17.4l-1.5 6.7-43.1 147.9-21.2 34.9c-2.1 6.4-3.3 10.1-3.3 10.1l-6.8 6.5-41.9 69.1-19.9-10.1s-114.3-23.9-116.4-29c-1.5-3.9-38-38.5-55.4-54.9-3.3 1.2-7.9 3.7-12.1 8.5m242.9 88.3c-.3-3.1 1.9-5.3 2.3-8.3 5.1-.3 11.2-.2 16.9-2-2.3 3.6-7 8.1-11.6 10.3h-7.6z"/><path class="st1" d="M494.9 1025.3c-1.8 2-1.5 1.2-1.5 6.7 0 53.8 116.4 86.5 121.3 86.5 8.7-.2 17.5 3 27 3.4.3 5.1-6.5 8.1-10.6 11.6 6.1 3.6 17.5 7.7 23 7.7 54.1 0 89.7-45.4 114-106.3 6-14.7 7.9-33.6 14.5-50.2 9.8-24.4 27.5-57 45.9-80.9-.9 2.1-1.8 4.3-2.8 6.7-6.9 16.1-49.1 145.9-61.2 183.4l-10.1 16.6-61.8 59-167.5-85s-1.7.2-4.2 1.2c-5.5-5.2-9.2-8.6-9.2-8.6l-28.4-49.8 6.6-13.7s7.6-7.7 16.2 3c.5 3.6 1.4 6.6 2.4 9.2-4.8 1.1-10.3-.4-13.6-.5"/><path class="st1" d="M576 1140.5c-1.5-3.9-38-38.5-55.4-54.9 2.5-1 4.2-1.2 4.2-1.2l167.5 85S578 1145.6 576 1140.5M754.2 1110.4l10.1-16.6c-2.1 6.4-3.3 10.1-3.3 10.1l-6.8 6.5zM1267.2 1081.2l47.6-47.9.1-.1c-4.5 9.2-16.1 16.3-21.3 26.5-7.9 16.1-17.9 48.6-17.9 54.1s2.1 15 4.3 22.1c-2.5 2.7-1.1 3-6.5 3-12.3 0-15-11.2-23.2-19.7-5.7 2-13.8 10-23.1 14.4l1.7-1.7 38.3-50.7z"/><path class="st1" d="M1229.8 1111.7c0-5.5-6.5-28.2-8.6-41-2-1.9-5.6-1.6-8.3-1.7-6.9-9.6 5.7-25.1-3.8-37-3.5 6.1-8.4 13-16.2 15.1v-20.8c-.2-5.5 17.6-15.8 27-24.9 12.2 6.7 7 14.3 6.1 21-.5 2.2-.5 3.1-.5 8.5 0 15.3-.5 5.3 14.2 15.1 3.2 8.5 3.1 17.1 6.7 25.3l11.8-11.9c-6.1-3.5-15.3-12.1-15.3-17.5 0-5.5 6.8-11.7 13.3-17.9v-31.3c-5.7.1-12.2.1-19.3-.1 0 0-2.7.2-2.7-5.3 0-8.2 15.7-19.1 19-24.6 7.1-12 7.3-28.1 12.2-41.9 5.3 2.2 10.2 4.8 12.3 9.5v45.1c5.7 0 12.5-2.2 19.5.2 2.4 4.7.4 11.8.3 52.8 2 1.8 5.5-.7 12.5-.6l5.1 5.3c0 .1-.1.2-.1.2l-.1.1-47.6 47.9-38.3 50.7-1.7 1.7c-.5.2-.9.5-1.4.7 1.8-7.8 3.9-17.3 3.9-22.7"/><path class="st1" d="M1188.3 1099.7c0-5.5 4.4-31.9 9.3-47.9 7.7 2.1 11.8 21.5 12.5 26.6 2 1.9 5.6-.6 8.5-.2.3 5.1 2.5 7.3 2.5 12.7 0 5.4-6.6 38.5-11.7 56.7-14.2-12.5-21.1-37-21.1-47.9M1180 1129.6c-.4 10.5 1.7 23.8-1.5 36.5-1.7 1.1-6.1 1.1-9.5 3-2.5 12.7-4.8 28.2-12.2 44.1-11.1-11.2-10-14.7-10-24 0-5.5 15.3-63.3 15.3-68.8 0-5.4-4.3-8.7-4.3-14.2 0-5.7 7.5-19.6 19.1-23.9 2.8 11.7 9.3 32.6 9.3 38.1-.1 6-1 4.1-6.2 9.2M196.4 613.1c29.2 4 63.7 22.1 80.4 42.8-18.8-8.4-38.7-19.6-55.9-27.5-4.6-2.1-21.3-7.6-24.5-15.3M188 793.2c29.8-15.3 63.2-26.6 91.1-29.2-2.4 3.5-2.9 5.9-5.1 6.4-38.5 10.4-72.2 29.2-110.1 47.4-.5-10.7 16.2-20.5 24.1-24.6"/><path class="st5" d="M770.7 1172.2c-2.3 3.6-7 8.1-11.6 10.3h-7.6c-.3-3.1 1.9-5.3 2.3-8.3 5.1-.3 11.2-.1 16.9-2"/><path class="st1" d="M641.9 1493c0-6.4-.3-14.3-.7-23.4-9.6 3.9-19.2 8.9-28.8 14.5l-10.6-16.3c25.6-8.6 50.5-20 75.6-33.5l4.9 2.7c-.7 52-1.2 86.5-1.2 103.2 0 21.4.5 42.9 2 64-8.6-.7-16-1.2-21.9-1.2-5.4 0-12.8.5-21.7 1.2 1.6-16.1 2.4-53.3 2.4-111.2M778.1 1542.3c-27.8 0-45.3-17-45.3-45.8 0-35.2 21.9-56.4 59.4-56.4 40.2 0 62.6 24.9 62.6 70.9 0 60.3-34.5 97.1-83.3 97.1-10.4 0-20.2-1.7-30.3-5.4 1.7-8.4 2.7-16.3 3.2-23.6l1.5-.5c7.4 9.6 15.8 14.3 26.4 14.3 22.4 0 39.7-22.9 39.7-62.3v-.7c-6.6 7.4-18.9 12.4-33.9 12.4m14.8-17.5c12.6 0 18.5-10.8 18.5-33.5 0-25.6-6.4-38.4-19.2-38.4-12.3 0-18.5 12.3-18.5 37.2 0 23.6 5.4 34.7 19.2 34.7M929.8 1608c-45.1 0-60.6-25.6-60.6-83.7 0-56.7 18.7-84 60.4-84 46.6 0 61.1 25.1 61.1 84 0 56.9-18.7 83.7-60.9 83.7m-20.2-83.7c0 47.5 2 70 20.2 70 18 0 20.4-22.2 20.4-70s-2.5-70-20.4-70c-18 0-20.2 21.9-20.2 70M1125.7 1535.4c-.7 6.9-1.2 12.1-1.2 15.5 0 3.4.5 8.6 1.2 15.5-6.7-1.2-13.8-1.7-20.9-1.7v7.6c0 6.7 0 17.2 2.2 32-8.6-.7-15.5-1.2-20.9-1.2-3.9 0-9.8.5-18.5 1.2 1.2-12.1 2-22.9 2-32.8v-6.9c-10.8-.2-19.7-.2-26.1-.2-5.7 0-18.2.7-37.9 2 .3-5.9.3-11.8.3-17.7 0-1.2 0-5.2-.3-12.6 22.4-32 43.6-64 63.6-95.8 7.6.7 14 1.2 19.2 1.2 4.7 0 11.1-.5 19-1.2-1.7 23.9-2.2 46.6-2.2 67.7v29.3c6.7 0 13.6-.7 20.5-1.9m-56.4 1.9v-68.5l-45.8 68.5h45.8z"/></svg>