<svg xmlns="http://www.w3.org/2000/svg" viewBox="0 0 114.8 143.3" style="enable-background:new 0 0 114.8 143.3" xml:space="preserve"><style>.st1{fill:#fe000c}.st2{fill:#0b3d91}.st3,.st4{fill:#fff}.st4{stroke:#0b3d91;stroke-width:.1275}</style><path d="M96 2v5.3h-6.5V2H72.2v5.3H66V2H48.5v5.3h-6.1V2H25.1v5.3H19V2H2v29.1c2.5 0 4.6-.2 6.4 1.2 1.5.9 2.7 3.2 2.4 5.1l.1 83.5 46.3 20.2 46.6-20.2V36.3c.1-.8.4-1.6.7-2.2 1.8-2.8 4.3-3 8.2-3V2H96z" style="fill:#fff;stroke:#fff;stroke-width:4"/><path class="st1" d="M96 2v5.3h-6.5V2H72.2v5.3H66V2H48.5v5.3h-6.1V2H25.1v5.3H19V2H2v29.1c2.5 0 4.6-.2 6.4 1.2 1.5.9 2.7 3.2 2.4 5.1l.1 83.5 46.3 20.2 46.6-20.2V36.3c.1-.8.4-1.6.7-2.2 1.8-2.8 4.3-3 8.2-3V2H96zm14.6 27.1c-3.3-.1-6.3 1.4-7.9 4-.6 1-1 2-1 3.2v83.2l-44.5 19.2-44.1-19.1V36.1c-.3-2.8-2.9-5.6-5.4-6.4-1.1-.3-2.3-.6-3.5-.6V4h12.6v5.4h10.6V4h13v5.4h10.5V4h13v5.4h10.6V4h13v5.4H98V4h12.6v25.1z"/><path class="st1" d="M99.3 5.3v5.3H86V5.3H75.7v5.3H62.4V5.3H52v5.3H38.8V5.3H28.5v5.3H15.3V5.3H5.4v22.5L7 28c3.5.8 7.1 3.6 7.7 7.3v83.4l42.6 18.6 43-18.7V36.9c0-1.2.3-2.4.8-3.6 1.4-3.2 4.7-5.2 8.2-5.5V5.3h-10zM96 118.2H18.5v-11.6H96v11.6zM96 90H18.5V29.7H96V90zm5.7-63.1H13.1V13.6h88.6v13.3z"/><path class="st2" d="M14.6 15.1h85.6v10.5H14.6V15.1M20.3 108h74v8.8h-74zM26.9 121H88l-30.8 12.8z"/><path class="st3" d="M18.5 91.8H96v12H18.5z"/><path class="st2" d="M20.3 31.3h74v57.1h-74z"/><path class="st3" d="M23.7 114.6H25v-1.8h2.3v-.9H25v-.9h2.3v-.9h-3.6zM31.1 110c-1.7 0-3 1-3 2.3 0 1.3 1.3 2.3 3 2.3s3-1 3-2.3c-.1-1.2-1.4-2.3-3-2.3zm0 3.8c-1 0-1.6-.6-1.6-1.4 0-.8.6-1.4 1.6-1.4s1.7.5 1.6 1.4c0 .8-.7 1.4-1.6 1.4zM37.7 110c-1.7 0-3 1-3 2.3 0 1.3 1.3 2.3 3 2.3s3-1 3-2.3c0-1.2-1.3-2.3-3-2.3zm0 3.8c-1 0-1.6-.6-1.6-1.4 0-.8.6-1.4 1.6-1.4s1.7.5 1.6 1.4c.1.8-.6 1.4-1.6 1.4zM41 111h1.8v3.6h1.4V111H46v-.9h-5zM50.1 112.1c.4-.2.7-.5.7-.9 0-.5-.4-.9-1-1-.3-.1-.5-.1-1-.1h-2v4.5h2.4c.5 0 .7 0 1-.1.6-.2 1-.6 1-1.2s-.4-1-1.1-1.2zm-2-1.2h.5c.6 0 .9.1.9.5s-.2.5-.9.5h-.5v-1zm.7 2.9h-.6v-1.1h.6c.9 0 1.2.1 1.2.5-.1.5-.4.6-1.2.6zM53.7 110.1l-2.1 4.5H53l.4-.9h2.3l.4.9h1.4l-2.3-4.5h-1.5zm0 2.8.8-1.8.8 1.8h-1.6zM59.4 110.1h-1.3v4.5h4v-.8h-2.7zM64.1 110.1h-1.3v4.5h3.9v-.8h-2.6zM74.1 113.4c-.5.2-1.1.4-1.6.4-1.1 0-1.8-.6-1.8-1.4 0-.8.8-1.4 1.9-1.4.6 0 1.3.2 1.8.5v-1l-.4-.2c-.5-.2-.9-.2-1.4-.2-.6 0-1.2.1-1.7.3-.9.4-1.5 1.2-1.5 2 0 1.4 1.2 2.3 3 2.3.8 0 1.4-.1 2-.5v-1h-.1l-.2.2zM76.8 110.1h-1.3v4.5h3.9v-.8h-2.6zM84 112.3v.6c-.1.5-.6.8-1.3.8-.5 0-.9-.2-1.1-.6-.1-.2-.2-.4-.2-.9V110h-1.3v2.5c0 .6.1 1 .4 1.3.2.2.4.3.6.5.4.2.9.3 1.6.3.3 0 .6 0 .9-.1.5-.1 1-.4 1.3-.7.2-.2.4-.6.4-.9v-3H84v2.4zM89.7 112.1c.4-.2.7-.5.7-.9 0-.5-.4-.9-1-1-.3-.1-.5-.1-1-.1h-2v4.5h2.4c.5 0 .7 0 1-.1.6-.2 1-.6 1-1.2s-.3-1-1.1-1.2zm-1.9-1.2h.5c.6 0 .9.1.9.5s-.2.5-.9.5h-.5v-1zm.6 2.9h-.6v-1.1h.6c.9 0 1.2.1 1.2.5-.1.5-.4.6-1.2.6zM18.7 17.7h1.6v5.9h-1.6zM25.6 17.9c-.4-.2-.7-.2-1.4-.2h-2.6v5.9h1.6v-2.4h.9c.8 0 1.1-.1 1.5-.3.6-.3.9-.9.9-1.5.1-.6-.3-1.2-.9-1.5zm-1.8 2.2h-.5v-1.4h.6c.8 0 1.1.2 1.1.7 0 .5-.3.7-1.2.7zM30.5 20l-.5-.1c-.7-.2-1-.5-1-.7 0-.3.4-.5.9-.5.6 0 1.2.2 1.9.5l.1.1V18c-.8-.3-1.4-.5-2.1-.5-1.4 0-2.4.7-2.4 1.7 0 .4.2.8.4 1.1.2.2.4.3.6.4.3.2.6.3 1 .4l.3.1c.6.2.8.4.8.7 0 .4-.3.5-1 .5-.4 0-.8-.1-1.2-.2-.3-.1-.6-.2-1-.5V23l.6.3c.6.2 1.1.3 1.7.3 1.5 0 2.5-.7 2.5-1.8.1-.8-.4-1.4-1.6-1.8zM40.2 20.9l-1.6-3.2h-1.2l-1.7 3.2-1.4-3.2h-1.7l2.8 6h.6l2-3.9 1.9 3.9h.7l2.8-6h-1.7zM44.1 17.7h1.6v5.9h-1.6zM52.6 21.9c-.6.3-1.3.5-1.9.5-1.3 0-2.2-.7-2.2-1.8s.9-1.8 2.3-1.8c.8 0 1.6.3 2.2.6V18c-.2-.1-.3-.1-.5-.2-.6-.2-1.1-.3-1.7-.3-.8 0-1.5.1-2 .4-1.1.5-1.8 1.5-1.8 2.6 0 1.8 1.5 3 3.7 3 .9 0 1.6-.2 2.5-.6v-1.4h-.1l-.5.4zM59 20h-3.1v-2.3h-1.6v5.9h1.6v-2.4H59v2.4h1.6v-5.9H59zM64.1 18.8h2.2v4.8h1.6v-4.8h2.3v-1.1h-6.1zM74.3 17.6c-2 0-3.6 1.3-3.6 3s1.6 3 3.6 3c2.1 0 3.6-1.3 3.6-3s-1.5-3-3.6-3zm0 4.9c-1.2 0-2-.7-2-1.8s.8-1.8 2-1.8 2 .7 2 1.8c0 1-.8 1.8-2 1.8zM85.8 20.9l-1.6-3.2h-1.3l-1.6 3.2-1.5-3.2h-1.6l2.7 6h.7l2-3.9 1.9 3.9h.7l2.7-6h-1.6zM94.5 17.7v3.5l-3.4-3.5h-1.4v5.9h1.5v-3.7l3.5 3.7H96v-5.9zM22.3 37.2c0 .8 1.1 1.5.3 2.2-.8-.7-1.4-1.6-1.7-2.6.5.1 1 .2 1.4.4z"/><path class="st4" d="M92.2 46.8c-2-1.9-5.6-1.5-7.9-.5-1.3.5-2.1-.9-3.2-1.1-5.3-3.1-11.7-.4-16.8 1-3.8.9-8.7 1.5-11.8-1.1-.9-1.8-2.7-3.1-4-4.2-.2-.4.2-.6.4-.9 1.1 0 1.3-1.1 1.8-1.7-.5-.2-.8-.6-1.2-.8-.4.7-1.5 1.4-.9 2.3-.2.2-.4.5-.7.6l-2-1.4c0-.3.3-.5.3-.8 1.2 0 1.1-1.2 1.7-1.9-.4-.4-.9-.4-1.3-.7l-.7 1.4c-.6.6.7 1.4-.5 1.8-.9-.5-1.7-.9-2.5-1.4l.4-.9c1-.1 1.1-1.3 1.4-2l-1.3-.5c-.3.8-1.4 1.7-.5 2.4-.2.4-.4.7-.7.8l-2.8-1c0-.3 0-.6.1-.8 1.1-.2 1-1.5 1.2-2.2l-1.4-.2c0 .8-1.1 1.8-.1 2.3 0 .4-.2.6-.4.9-1-.2-1.9-.4-2.8-.6.1-.4-.2-.7.1-1 .9-.3.4-1.5.6-2.2l-1.5-.1c.1.9-.5 2 .5 2.4.1.4-.1.6-.2.9-1-.1-2 .1-2.9-.1-.1-.3-.3-.7-.2-1 .8-.5.1-1.5.2-2.2-.5.1-1 .1-1.4.2l.2 1.6c.1.4.5.5.8.7.1.3.1.5-.1.8l-2.9.4c-.3-.2-.3-.6-.4-.8.9-.7-.1-1.5-.1-2.3l-1.5.3c.1.7.3 1.3.6 1.9.6.1.8.6.7 1.2l-2.4 1.1c-.8-1.5-2.6-1.7-4-2.1-.2.7.6.9.5 1.6.1 1.1 1.6 2.1.4 3.1-.9 2.9 0 5.8.3 8.6.3 2.7.4 5.6 1.2 8.1 1 .9 2.1 1.3 3.5 1.5 1.5-.1-.2-2.1 1.1-2.6.9.3.5 1.4.9 2.1.6.1 1.2-.4 1.5-1 .5-.8-.5-1.1-.6-1.8.1-.7.8-.8 1.1-1.2.9-1.6 1.4-3.6 2.9-4.6.4 1.4.9 2.8 1.5 4.2 1.5 2.6-.5 5.3-.1 8.1.3 2.9 2.8 4.7 5 6l.6.1c.6 2.8 3.3 4.6 3.7 7.4.4 2.2 2.5 3.1 3.1 5.2 1.1 2.5.2 5.4-1.2 7.2-.1.2-.2.5.1.5 1.8-.2 4.2.6 5.4-.9.1-1.2.9-1.7 1.5-2.4.3-2.3-1.6-3.8-2.6-5.8-1.1-.9-.3-2.5-.9-3.6-1.4-1.6-.5-4-.5-5.8 0-.7-.3-1.2-.3-1.8h.4c-.1.8.9.2 1.3.5 6.5 2.6 12.2-1.8 18-3.5-.6-.5-1.3-1-2.1-1.2-.3-.1-.3-.4-.2-.6 1 .3 1.9.7 2.7 1.3 2.2 2.1 4.8 4 7.9 4.9l2.9 2.2c1.2.6 2.7 1 2.8 2.5.2.5-.1 1 .1 1.4-.7 1.9-1.1 4.2-1.7 6.2-.4 1.7-2.2 2.5-3.1 3.9-.1.3-.1.4.1.6 1.5.7 3.5.4 5.2.2.7-.1.4-.9.7-1.4.4-.8 1.2-1 2-1.4.3-1.2-.4-2.6-.4-3.9.6-3.5 2.1-6.7 2.9-10.1-2.3-1.2-5.8-2.7-5.6-6.1-2.6-.1-5.3-.5-6.7-2.6-.6-1.1-.6-2.8.2-3.8 2.4-2.9 6.4-3.9 9.6-5.8l-.1-.2c-.6-1-1.5-1.6-2-2.5.8-.5 1.9-.8 2.8-.3.5.3 1 .7 1 1.3-.1.7-.5 1.3-1.1 1.7-3.1 2-7.3 2.9-9.7 5.7-.7.9-1 2.5-.4 3.5 1.6 2.2 4.5 2.3 7.1 2.3v-.1c-.3-.4-.5-.9-.7-1.4-.3-1.1.1-2 .6-2.9 2.3-3.2 6.7-4.3 8.3-8.2.3-1.1 0-2.3-.8-2.9zm-67.9-2.9c.3-.5 1-.4 1.2.1.3.9-.5 1.4-.9 2-.3-.6-.8-1.5-.3-2.1zm.9 12.3c-.2-.3-.3-.7-.2-1 .6.2.9.7 1.4 1.1.1.1.1.3.1.5-.5-.1-.9-.5-1.3-.6z"/><path class="st3" d="M87.8 55.6c-.4 2.1-1.7 4-3 5.5-.4-.8-.5-2 .1-2.8.8-1.1 1.8-2 2.9-2.7z"/><path class="st4" d="M36 61.8c.7 2.8 3.5 4.8 5.8 6-3.8 1.3-7.7-.3-10.9-1.8-.6 0-1.2-.6-1.6 0 .4 2.1.6 4.3 2.3 5.9.4.7-.5 1-.7 1.6l-.2 1.4c-1.4.7-2.5 1.6-4.1 2-1.1-1.9.9-3.7-.1-5.7-.8-2.7-2.4-4.8-3-7.5-.3-.6.2-1.2.6-1.5.9-.8 2.2-.8 3.5-.9 2.9 0 5.6.1 8.4.5zM76.6 68.7c.3 1.2.7 2.3 1.5 3.3l-.1.5c-2.5 2.3-5.7 5.2-5.9 9-.5.5-1.3.2-1.9.7-.7.6-.8 1.9-2 1.6l-4.2-.2c.7-1.8 3.2-2.5 4.1-4.4 1.3-1.7 2.6-3.2 3.9-4.9.4-.6.3-1.5-.1-2.1-1.2-2.2-2.5-4.2-3.1-6.7.5-.3 1.2-.5 1.9-.7 1.7 1.5 3.6 2.9 5.9 3.9z"/><path class="st3" d="M34.8 75.3c-1.8.5-3.7 1.4-4.9 2.9-.2.1-.6.1-.8 0-.4-.7.5-1 .9-1.3 1.4-.8 2.9-2.4 4.8-1.6zM30.8 75.5c-.7.5-1.4.8-2 1.5h-.2c.4-.7 1.4-1 2.2-1.5zM37.2 76.5c-2.2.5-4 1.7-6.1 2.6-.2-.2-.8-.3-.7-.6 1.4-1.6 3.4-2.3 5.5-2.8.5.2 1 .5 1.3.8zM38.9 78.6c-.8-.6-1.4.4-2.2.6l-1.1-.1-1.7 1.5c-.8-.2-2 0-2.3-.9v-.2c1.8-1 3.7-1.8 5.7-2.4.9-.2 1.2 1 1.6 1.5z"/><path class="st3" d="M29.3 78.9c.7.1 1.2.6 1.7.9 0 1.6 1.9.9 2.8 1.5.1.8 1.4 2 .2 2.5-2.7-.9-5.3-2.4-6.5-5l.6-1.2c.5.3.2 1.5 1.2 1.3zM38.2 79.2c.2 1.8.5 3.7-.1 5.4-.4.2-.8.2-1.1.2.4-1.6.5-3.5.2-5.2.4-.1.7-.5 1-.4zM39.4 80.2c.3 1.3.1 2.7-.5 3.7.2-1.4-.1-3.1-.1-4.6.5.2.6.6.6.9zM27.9 82.8c-.5-.4-.9-1-1.1-1.6.1-.5-.1-1.1.3-1.5l1.3 1.6-.5 1.5z"/><path class="st3" d="M36.6 79.8c.5 2.7-.1 5.6-1.8 7.6-.6.4-1.4.3-2.2.3-.3-.1-.1-.3-.1-.5.5-.3 1-.5 1.5-.8-.3-.9.3-1.5.5-2.2 1.6-.7-.2-2.1-.1-3.1.6-.5 1.2-1.9 2.2-1.3z"/><path class="st3" d="M30.2 82.7c1.1.6 2.2 1.2 3.4 1.5.1.3-.1.7-.2.9-1.9 0-3.7-.6-4.9-1.8.1-.5.3-1 .5-1.5.4.2.8.7 1.2.9z"/><path class="st3" d="M33.3 85.7c.1.7-.9.7-1.3 1-1.1-.4-1.9-1.3-3.1-1.3l-1.2-.7c-.4-.7-.7-1.3-.8-2 1.5 1.9 3.9 3 6.4 3zM38 85.2c-.3 1-1.4 1.5-2.2 1.9.5-.5.6-1.3 1-1.9H38zM31.8 87.3l.1.2c-.9-.2-1.7-.5-2.4-1l-.1-.4c.9.4 1.6.8 2.4 1.2z"/><path class="st2" d="M92.5 95.6c-1.7 0-2.8 1.2-4.3 1.6-2.3 1-4.7.1-6.7-.8-3.8-1.9-8.6-.6-12.2.8-3.6 1-6.7-.9-9.9-1.6-3.3-.9-6.3.8-9.2 1.6-3.4.9-6.5-.8-9.5-1.5-3.3-1.1-6.6.4-9.5 1.4-1.7.9-4 .4-5.6-.3-2-1.2-4.5-1.6-7.2-1.5v2.4l3.7.1c2.2 0 3.7 1.5 5.7 1.9 2.3.5 4.3-.9 6.3-1.5 4.3-1.4 8.5.3 12.3 1.5 3.5.5 6.3-1.5 9.6-1.9 3.4-.4 6.3 1.1 9.4 1.9 3.7.7 6.5-1.8 10-1.9 3.8-.5 6.8 1.4 10.1 2.1.8-.1 1.7-.3 2.5-.6 2.1-1.4 4.9-1.7 7.8-1.6v-2.3c-1 0-2.2 0-3.3.2z"/><path class="st2" d="M26.9 94.7c2.1 1.2 4.4-.2 6.2-.8 4.1-1.8 9.2-.5 13 1 3.7.9 6.6-1.5 10-1.8 4.8-.8 8.2 3 12.9 1.7 2.2-.9 4.6-1.5 7-1.8 3.6-.4 6.3 1.5 9.6 2.2 1.1-.1 2.3-.3 3.1-.9 2.2-1.1 4.6-1.5 7.3-1.4v-1.2H18.5v1.1c3.2 0 6.1.3 8.4 1.9zM88.7 101.9c-2.6 1.4-5.5.1-8-.9-4.1-1.9-8.4.3-12.2 1.3-4.8.8-8.3-2.9-13.1-1.8-3.3.9-6.8 2.7-10.4 1.5-3.5-1.5-8.4-2.7-12-.6-2.4 1.1-5.8 1.4-8.1-.1-1.8-1.1-4.1-1.1-6.5-1.1v3.6H96v-3.5c-2.7-.2-5.3.3-7.3 1.6z"/></svg>