<?xml version="1.0" encoding="utf-8"?>
<!-- Generator: Adobe Illustrator 19.2.1, SVG Export Plug-In . SVG Version: 6.00 Build 0)  -->
<!DOCTYPE svg PUBLIC "-//W3C//DTD SVG 1.1//EN" "http://www.w3.org/Graphics/SVG/1.1/DTD/svg11.dtd">
<svg version="1.1" xmlns="http://www.w3.org/2000/svg" xmlns:xlink="http://www.w3.org/1999/xlink" x="0px" y="0px"
	 viewBox="0 0 114.8 143.3" style="enable-background:new 0 0 114.8 143.3;" xml:space="preserve">
<style type="text/css">
	.st0{fill:#FFFFFF;stroke:#FFFFFF;stroke-width:4;}
	.st1{fill:#FE000C;}
	.st2{fill:#0B3D91;}
	.st3{fill:#FFFFFF;}
	.st4{fill:#FFFFFF;stroke:#0B3D91;stroke-width:0.1275;}
</style>
<g>
	<path class="st0" d="M96,2v5.3h-6.5V2H72.2v5.3H66V2H48.5v5.3h-6.1V2H25.1v5.3H19V2H2v29.1c2.5,0,4.6-0.2,6.4,1.2
		c1.5,0.9,2.7,3.2,2.4,5.1l0.1,83.5l46.3,20.2l46.6-20.2V36.3c0.1-0.8,0.4-1.6,0.7-2.2c1.8-2.8,4.3-3,8.2-3V2H96z"/>
	<path class="st1" d="M96,2v5.3h-6.5V2H72.2v5.3H66V2H48.5v5.3h-6.1V2H25.1v5.3H19V2H2v29.1c2.5,0,4.6-0.2,6.4,1.2
		c1.5,0.9,2.7,3.2,2.4,5.1l0.1,83.5l46.3,20.2l46.6-20.2V36.3c0.1-0.8,0.4-1.6,0.7-2.2c1.8-2.8,4.3-3,8.2-3V2H96z M110.6,29.1
		c-3.3-0.1-6.3,1.4-7.9,4c-0.6,1-1,2-1,3.2v83.2l-44.5,19.2l-44.1-19.1l0-83.5c-0.3-2.8-2.9-5.6-5.4-6.4c-1.1-0.3-2.3-0.6-3.5-0.6V4
		h12.6v5.4h10.6V4h13v5.4h10.5V4h13v5.4h10.6V4h13v5.4H98V4h12.6V29.1z"/>
	<path class="st1" d="M99.3,5.3v5.3H86V5.3H75.7v5.3H62.4V5.3H52v5.3H38.8V5.3H28.5v5.3H15.3V5.3H5.4v22.5l0,0L7,28
		c3.5,0.8,7.1,3.6,7.7,7.3v83.4l42.6,18.6l43-18.7V36.9c0-1.2,0.3-2.4,0.8-3.6c1.4-3.2,4.7-5.2,8.2-5.5V5.3H99.3z M96,118.2H18.5
		v-11.6H96V118.2z M96,90H18.5V29.7H96V90z M101.7,26.9H13.1V13.6h88.6V26.9z"/>
	<polyline class="st2" points="14.6,15.1 100.2,15.1 100.2,25.6 14.6,25.6 14.6,15.1 	"/>
	<rect x="20.3" y="108" class="st2" width="74" height="8.8"/>
	<polygon class="st2" points="26.9,121 88,121 57.2,133.8 	"/>
	<rect x="18.5" y="91.8" class="st3" width="77.5" height="12"/>
	<rect x="20.3" y="31.3" class="st2" width="74" height="57.1"/>
	<g>
		<polygon class="st3" points="23.7,114.6 25,114.6 25,112.8 27.3,112.8 27.3,111.9 25,111.9 25,111 27.3,111 27.3,110.1 
			23.7,110.1 		"/>
		<path class="st3" d="M31.1,110c-1.7,0-3,1-3,2.3c0,1.3,1.3,2.3,3,2.3c1.7,0,3-1,3-2.3C34,111.1,32.7,110,31.1,110z M31.1,113.8
			c-1,0-1.6-0.6-1.6-1.4c0-0.8,0.6-1.4,1.6-1.4c1,0,1.7,0.5,1.6,1.4C32.7,113.2,32,113.8,31.1,113.8z"/>
		<path class="st3" d="M37.7,110c-1.7,0-3,1-3,2.3c0,1.3,1.3,2.3,3,2.3c1.7,0,3-1,3-2.3C40.7,111.1,39.4,110,37.7,110z M37.7,113.8
			c-1,0-1.6-0.6-1.6-1.4c0-0.8,0.6-1.4,1.6-1.4c1,0,1.7,0.5,1.6,1.4C39.4,113.2,38.7,113.8,37.7,113.8z"/>
		<polygon class="st3" points="41,111 42.8,111 42.8,114.6 44.2,114.6 44.2,111 46,111 46,110.1 41,110.1 		"/>
		<path class="st3" d="M50.1,112.1c0.4-0.2,0.7-0.5,0.7-0.9c0-0.5-0.4-0.9-1-1c-0.3-0.1-0.5-0.1-1-0.1h-2v4.5l2.4,0
			c0.5,0,0.7,0,1-0.1c0.6-0.2,1-0.6,1-1.2C51.2,112.7,50.8,112.3,50.1,112.1z M48.1,110.9h0.5c0.6,0,0.9,0.1,0.9,0.5
			c0,0.4-0.2,0.5-0.9,0.5h-0.5V110.9z M48.8,113.8h-0.6v-1.1h0.6c0.9,0,1.2,0.1,1.2,0.5C49.9,113.7,49.6,113.8,48.8,113.8z"/>
		<path class="st3" d="M53.7,110.1l-2.1,4.5H53l0.4-0.9h2.3l0.4,0.9h1.4l-2.3-4.5H53.7z M53.7,112.9l0.8-1.8l0.8,1.8H53.7z"/>
		<polygon class="st3" points="59.4,110.1 58.1,110.1 58.1,114.6 62.1,114.6 62.1,113.8 59.4,113.8 		"/>
		<polygon class="st3" points="64.1,110.1 62.8,110.1 62.8,114.6 66.7,114.6 66.7,113.8 64.1,113.8 		"/>
		<path class="st3" d="M74.1,113.4c-0.5,0.2-1.1,0.4-1.6,0.4c-1.1,0-1.8-0.6-1.8-1.4c0-0.8,0.8-1.4,1.9-1.4c0.6,0,1.3,0.2,1.8,0.5
			v-1c-0.2-0.1-0.2-0.1-0.4-0.2c-0.5-0.2-0.9-0.2-1.4-0.2c-0.6,0-1.2,0.1-1.7,0.3c-0.9,0.4-1.5,1.2-1.5,2c0,1.4,1.2,2.3,3,2.3
			c0.8,0,1.4-0.1,2-0.5v-1l-0.1,0L74.1,113.4z"/>
		<polygon class="st3" points="76.8,110.1 75.5,110.1 75.5,114.6 79.4,114.6 79.4,113.8 76.8,113.8 		"/>
		<path class="st3" d="M84,112.3v0.3c0,0.1,0,0.2,0,0.3c-0.1,0.5-0.6,0.8-1.3,0.8c-0.5,0-0.9-0.2-1.1-0.6c-0.1-0.2-0.2-0.4-0.2-0.9
			v-2.2h-1.3v2.5c0,0.6,0.1,1,0.4,1.3c0.2,0.2,0.4,0.3,0.6,0.5c0.4,0.2,0.9,0.3,1.6,0.3c0.3,0,0.6,0,0.9-0.1c0.5-0.1,1-0.4,1.3-0.7
			c0.2-0.2,0.4-0.6,0.4-0.9c0-0.1,0-0.3,0-0.5v-2.5H84V112.3z"/>
		<path class="st3" d="M89.7,112.1c0.4-0.2,0.7-0.5,0.7-0.9c0-0.5-0.4-0.9-1-1c-0.3-0.1-0.5-0.1-1-0.1h-2v4.5l2.4,0
			c0.5,0,0.7,0,1-0.1c0.6-0.2,1-0.6,1-1.2C90.8,112.7,90.5,112.3,89.7,112.1z M87.8,110.9h0.5c0.6,0,0.9,0.1,0.9,0.5
			c0,0.4-0.2,0.5-0.9,0.5h-0.5V110.9z M88.4,113.8h-0.6v-1.1h0.6c0.9,0,1.2,0.1,1.2,0.5C89.5,113.7,89.2,113.8,88.4,113.8z"/>
	</g>
	<g>
		<rect x="18.7" y="17.7" class="st3" width="1.6" height="5.9"/>
		<path class="st3" d="M25.6,17.9c-0.4-0.2-0.7-0.2-1.4-0.2h-2.6v5.9h1.6v-2.4h0.9c0.8,0,1.1-0.1,1.5-0.3c0.6-0.3,0.9-0.9,0.9-1.5
			C26.6,18.8,26.2,18.2,25.6,17.9z M23.8,20.1h-0.5v-1.4h0.6c0.8,0,1.1,0.2,1.1,0.7C25,19.9,24.7,20.1,23.8,20.1z"/>
		<path class="st3" d="M30.5,20L30,19.9c-0.7-0.2-1-0.5-1-0.7c0-0.3,0.4-0.5,0.9-0.5c0.6,0,1.2,0.2,1.9,0.5l0.1,0.1V18
			c-0.8-0.3-1.4-0.5-2.1-0.5c-1.4,0-2.4,0.7-2.4,1.7c0,0.4,0.2,0.8,0.4,1.1c0.2,0.2,0.4,0.3,0.6,0.4c0.3,0.2,0.6,0.3,1,0.4l0.3,0.1
			c0.6,0.2,0.8,0.4,0.8,0.7c0,0.4-0.3,0.5-1,0.5c-0.4,0-0.8-0.1-1.2-0.2c-0.3-0.1-0.6-0.2-1-0.5v1.3c0.2,0.1,0.2,0.1,0.6,0.3
			c0.6,0.2,1.1,0.3,1.7,0.3c1.5,0,2.5-0.7,2.5-1.8C32.2,21,31.7,20.4,30.5,20z"/>
		<polygon class="st3" points="40.2,20.9 38.6,17.7 37.4,17.7 35.7,20.9 34.3,17.7 32.6,17.7 35.4,23.7 36,23.7 38,19.8 39.9,23.7 
			40.6,23.7 43.4,17.7 41.7,17.7 		"/>
		<rect x="44.1" y="17.7" class="st3" width="1.6" height="5.9"/>
		<path class="st3" d="M52.6,21.9c-0.6,0.3-1.3,0.5-1.9,0.5c-1.3,0-2.2-0.7-2.2-1.8c0-1.1,0.9-1.8,2.3-1.8c0.8,0,1.6,0.3,2.2,0.6
			v-1.4c-0.2-0.1-0.3-0.1-0.5-0.2c-0.6-0.2-1.1-0.3-1.7-0.3c-0.8,0-1.5,0.1-2,0.4c-1.1,0.5-1.8,1.5-1.8,2.6c0,1.8,1.5,3,3.7,3
			c0.9,0,1.6-0.2,2.5-0.6v-1.4l-0.1,0L52.6,21.9z"/>
		<polygon class="st3" points="59,20 55.9,20 55.9,17.7 54.3,17.7 54.3,23.6 55.9,23.6 55.9,21.2 59,21.2 59,23.6 60.6,23.6 
			60.6,17.7 59,17.7 		"/>
		<polygon class="st3" points="64.1,18.8 66.3,18.8 66.3,23.6 67.9,23.6 67.9,18.8 70.2,18.8 70.2,17.7 64.1,17.7 		"/>
		<path class="st3" d="M74.3,17.6c-2,0-3.6,1.3-3.6,3c0,1.7,1.6,3,3.6,3c2.1,0,3.6-1.3,3.6-3C77.9,18.9,76.4,17.6,74.3,17.6z
			 M74.3,22.5c-1.2,0-2-0.7-2-1.8c0-1.1,0.8-1.8,2-1.8c1.2,0,2,0.7,2,1.8C76.3,21.7,75.5,22.5,74.3,22.5z"/>
		<polygon class="st3" points="85.8,20.9 84.2,17.7 82.9,17.7 81.3,20.9 79.8,17.7 78.2,17.7 80.9,23.7 81.6,23.7 83.6,19.8 
			85.5,23.7 86.2,23.7 88.9,17.7 87.3,17.7 		"/>
		<polygon class="st3" points="94.5,17.7 94.5,21.2 91.1,17.7 89.7,17.7 89.7,23.6 91.2,23.6 91.2,19.9 94.7,23.6 96,23.6 96,17.7 
					"/>
	</g>
	<path class="st3" d="M22.3,37.2c0,0.8,1.1,1.5,0.3,2.2c-0.8-0.7-1.4-1.6-1.7-2.6C21.4,36.9,21.9,37,22.3,37.2z"/>
	<path class="st4" d="M92.2,46.8c-2-1.9-5.6-1.5-7.9-0.5c-1.3,0.5-2.1-0.9-3.2-1.1c-5.3-3.1-11.7-0.4-16.8,1
		c-3.8,0.9-8.7,1.5-11.8-1.1c-0.9-1.8-2.7-3.1-4-4.2c-0.2-0.4,0.2-0.6,0.4-0.9c1.1,0,1.3-1.1,1.8-1.7c-0.5-0.2-0.8-0.6-1.2-0.8
		c-0.4,0.7-1.5,1.4-0.9,2.3c-0.2,0.2-0.4,0.5-0.7,0.6l-2-1.4c0-0.3,0.3-0.5,0.3-0.8c1.2,0,1.1-1.2,1.7-1.9c-0.4-0.4-0.9-0.4-1.3-0.7
		L45.9,37c-0.6,0.6,0.7,1.4-0.5,1.8c-0.9-0.5-1.7-0.9-2.5-1.4l0.4-0.9c1-0.1,1.1-1.3,1.4-2l-1.3-0.5c-0.3,0.8-1.4,1.7-0.5,2.4
		c-0.2,0.4-0.4,0.7-0.7,0.8l-2.8-1c0-0.3,0-0.6,0.1-0.8c1.1-0.2,1-1.5,1.2-2.2l-1.4-0.2c0,0.8-1.1,1.8-0.1,2.3
		c0,0.4-0.2,0.6-0.4,0.9c-1-0.2-1.9-0.4-2.8-0.6c0.1-0.4-0.2-0.7,0.1-1c0.9-0.3,0.4-1.5,0.6-2.2l-1.5-0.1c0.1,0.9-0.5,2,0.5,2.4
		c0.1,0.4-0.1,0.6-0.2,0.9c-1-0.1-2,0.1-2.9-0.1c-0.1-0.3-0.3-0.7-0.2-1c0.8-0.5,0.1-1.5,0.2-2.2c-0.5,0.1-1,0.1-1.4,0.2l0.2,1.6
		c0.1,0.4,0.5,0.5,0.8,0.7c0.1,0.3,0.1,0.5-0.1,0.8L29.2,36c-0.3-0.2-0.3-0.6-0.4-0.8c0.9-0.7-0.1-1.5-0.1-2.3l-1.5,0.3
		c0.1,0.7,0.3,1.3,0.6,1.9c0.6,0.1,0.8,0.6,0.7,1.2l-2.4,1.1c-0.8-1.5-2.6-1.7-4-2.1c-0.2,0.7,0.6,0.9,0.5,1.6
		c0.1,1.1,1.6,2.1,0.4,3.1c-0.9,2.9,0,5.8,0.3,8.6c0.3,2.7,0.4,5.6,1.2,8.1c1,0.9,2.1,1.3,3.5,1.5c1.5-0.1-0.2-2.1,1.1-2.6
		c0.9,0.3,0.5,1.4,0.9,2.1c0.6,0.1,1.2-0.4,1.5-1c0.5-0.8-0.5-1.1-0.6-1.8c0.1-0.7,0.8-0.8,1.1-1.2c0.9-1.6,1.4-3.6,2.9-4.6
		c0.4,1.4,0.9,2.8,1.5,4.2c1.5,2.6-0.5,5.3-0.1,8.1c0.3,2.9,2.8,4.7,5,6l0.6,0.1c0.6,2.8,3.3,4.6,3.7,7.4c0.4,2.2,2.5,3.1,3.1,5.2
		c1.1,2.5,0.2,5.4-1.2,7.2c-0.1,0.2-0.2,0.5,0.1,0.5c1.8-0.2,4.2,0.6,5.4-0.9c0.1-1.2,0.9-1.7,1.5-2.4c0.3-2.3-1.6-3.8-2.6-5.8
		c-1.1-0.9-0.3-2.5-0.9-3.6c-1.4-1.6-0.5-4-0.5-5.8c0-0.7-0.3-1.2-0.3-1.8h0.4c-0.1,0.8,0.9,0.2,1.3,0.5c6.5,2.6,12.2-1.8,18-3.5
		c-0.6-0.5-1.3-1-2.1-1.2c-0.3-0.1-0.3-0.4-0.2-0.6c1,0.3,1.9,0.7,2.7,1.3c2.2,2.1,4.8,4,7.9,4.9l2.9,2.2c1.2,0.6,2.7,1,2.8,2.5
		c0.2,0.5-0.1,1,0.1,1.4c-0.7,1.9-1.1,4.2-1.7,6.2c-0.4,1.7-2.2,2.5-3.1,3.9c-0.1,0.3-0.1,0.4,0.1,0.6c1.5,0.7,3.5,0.4,5.2,0.2
		c0.7-0.1,0.4-0.9,0.7-1.4c0.4-0.8,1.2-1,2-1.4c0.3-1.2-0.4-2.6-0.4-3.9c0.6-3.5,2.1-6.7,2.9-10.1c-2.3-1.2-5.8-2.7-5.6-6.1
		c-2.6-0.1-5.3-0.5-6.7-2.6c-0.6-1.1-0.6-2.8,0.2-3.8c2.4-2.9,6.4-3.9,9.6-5.8l-0.1-0.2c-0.6-1-1.5-1.6-2-2.5
		c0.8-0.5,1.9-0.8,2.8-0.3c0.5,0.3,1,0.7,1,1.3c-0.1,0.7-0.5,1.3-1.1,1.7c-3.1,2-7.3,2.9-9.7,5.7c-0.7,0.9-1,2.5-0.4,3.5
		c1.6,2.2,4.5,2.3,7.1,2.3v-0.1c-0.3-0.4-0.5-0.9-0.7-1.4c-0.3-1.1,0.1-2,0.6-2.9c2.3-3.2,6.7-4.3,8.3-8.2
		C93.3,48.6,93,47.4,92.2,46.8z M24.3,43.9c0.3-0.5,1-0.4,1.2,0.1c0.3,0.9-0.5,1.4-0.9,2C24.3,45.4,23.8,44.5,24.3,43.9z M25.2,56.2
		c-0.2-0.3-0.3-0.7-0.2-1c0.6,0.2,0.9,0.7,1.4,1.1c0.1,0.1,0.1,0.3,0.1,0.5C26,56.7,25.6,56.3,25.2,56.2z"/>
	<path class="st3" d="M87.8,55.6c-0.4,2.1-1.7,4-3,5.5c-0.4-0.8-0.5-2,0.1-2.8C85.7,57.2,86.7,56.3,87.8,55.6z"/>
	<path class="st4" d="M36,61.8c0.7,2.8,3.5,4.8,5.8,6c-3.8,1.3-7.7-0.3-10.9-1.8c-0.6,0-1.2-0.6-1.6,0c0.4,2.1,0.6,4.3,2.3,5.9
		c0.4,0.7-0.5,1-0.7,1.6l-0.2,1.4c-1.4,0.7-2.5,1.6-4.1,2c-1.1-1.9,0.9-3.7-0.1-5.7c-0.8-2.7-2.4-4.8-3-7.5
		c-0.3-0.6,0.2-1.2,0.6-1.5c0.9-0.8,2.2-0.8,3.5-0.9C30.5,61.3,33.2,61.4,36,61.8z"/>
	<path class="st4" d="M76.6,68.7c0.3,1.2,0.7,2.3,1.5,3.3l-0.1,0.5c-2.5,2.3-5.7,5.2-5.9,9c-0.5,0.5-1.3,0.2-1.9,0.7
		c-0.7,0.6-0.8,1.9-2,1.6l-4.2-0.2c0.7-1.8,3.2-2.5,4.1-4.4c1.3-1.7,2.6-3.2,3.9-4.9c0.4-0.6,0.3-1.5-0.1-2.1
		c-1.2-2.2-2.5-4.2-3.1-6.7c0.5-0.3,1.2-0.5,1.9-0.7C72.4,66.3,74.3,67.7,76.6,68.7z"/>
	<path class="st3" d="M34.8,75.3c-1.8,0.5-3.7,1.4-4.9,2.9c-0.2,0.1-0.6,0.1-0.8,0c-0.4-0.7,0.5-1,0.9-1.3
		C31.4,76.1,32.9,74.5,34.8,75.3z"/>
	<path class="st3" d="M30.8,75.5c-0.7,0.5-1.4,0.8-2,1.5h-0.2C29,76.3,30,76,30.8,75.5z"/>
	<path class="st3" d="M37.2,76.5c-2.2,0.5-4,1.7-6.1,2.6c-0.2-0.2-0.8-0.3-0.7-0.6c1.4-1.6,3.4-2.3,5.5-2.8
		C36.4,75.9,36.9,76.2,37.2,76.5z"/>
	<path class="st3" d="M38.9,78.6c-0.8-0.6-1.4,0.4-2.2,0.6l-1.1-0.1l-1.7,1.5c-0.8-0.2-2,0-2.3-0.9v-0.2c1.8-1,3.7-1.8,5.7-2.4
		C38.2,76.9,38.5,78.1,38.9,78.6z"/>
	<path class="st3" d="M29.3,78.9c0.7,0.1,1.2,0.6,1.7,0.9c0,1.6,1.9,0.9,2.8,1.5c0.1,0.8,1.4,2,0.2,2.5c-2.7-0.9-5.3-2.4-6.5-5
		l0.6-1.2C28.6,77.9,28.3,79.1,29.3,78.9z"/>
	<path class="st3" d="M38.2,79.2c0.2,1.8,0.5,3.7-0.1,5.4c-0.4,0.2-0.8,0.2-1.1,0.2c0.4-1.6,0.5-3.5,0.2-5.2
		C37.6,79.5,37.9,79.1,38.2,79.2z"/>
	<path class="st3" d="M39.4,80.2c0.3,1.3,0.1,2.7-0.5,3.7c0.2-1.4-0.1-3.1-0.1-4.6C39.3,79.5,39.4,79.9,39.4,80.2z"/>
	<path class="st3" d="M27.9,82.8c-0.5-0.4-0.9-1-1.1-1.6c0.1-0.5-0.1-1.1,0.3-1.5l1.3,1.6L27.9,82.8z"/>
	<path class="st3" d="M36.6,79.8c0.5,2.7-0.1,5.6-1.8,7.6c-0.6,0.4-1.4,0.3-2.2,0.3c-0.3-0.1-0.1-0.3-0.1-0.5c0.5-0.3,1-0.5,1.5-0.8
		c-0.3-0.9,0.3-1.5,0.5-2.2c1.6-0.7-0.2-2.1-0.1-3.1C35,80.6,35.6,79.2,36.6,79.8z"/>
	<path class="st3" d="M30.2,82.7c1.1,0.6,2.2,1.2,3.4,1.5c0.1,0.3-0.1,0.7-0.2,0.9c-1.9,0-3.7-0.6-4.9-1.8c0.1-0.5,0.3-1,0.5-1.5
		C29.4,82,29.8,82.5,30.2,82.7z"/>
	<path class="st3" d="M33.3,85.7c0.1,0.7-0.9,0.7-1.3,1c-1.1-0.4-1.9-1.3-3.1-1.3l-1.2-0.7c-0.4-0.7-0.7-1.3-0.8-2
		C28.4,84.6,30.8,85.7,33.3,85.7z"/>
	<path class="st3" d="M38,85.2c-0.3,1-1.4,1.5-2.2,1.9c0.5-0.5,0.6-1.3,1-1.9H38z"/>
	<path class="st3" d="M31.8,87.3l0.1,0.2c-0.9-0.2-1.7-0.5-2.4-1l-0.1-0.4C30.3,86.5,31,86.9,31.8,87.3z"/>
	<g>
		<path class="st2" d="M92.5,95.6c-1.7,0-2.8,1.2-4.3,1.6c-2.3,1-4.7,0.1-6.7-0.8c-3.8-1.9-8.6-0.6-12.2,0.8c-3.6,1-6.7-0.9-9.9-1.6
			c-3.3-0.9-6.3,0.8-9.2,1.6c-3.4,0.9-6.5-0.8-9.5-1.5c-3.3-1.1-6.6,0.4-9.5,1.4c-1.7,0.9-4,0.4-5.6-0.3c-2-1.2-4.5-1.6-7.2-1.5v2.4
			l3.7,0.1c2.2,0,3.7,1.5,5.7,1.9c2.3,0.5,4.3-0.9,6.3-1.5c4.3-1.4,8.5,0.3,12.3,1.5c3.5,0.5,6.3-1.5,9.6-1.9
			c3.4-0.4,6.3,1.1,9.4,1.9c3.7,0.7,6.5-1.8,10-1.9c3.8-0.5,6.8,1.4,10.1,2.1c0.8-0.1,1.7-0.3,2.5-0.6c2.1-1.4,4.9-1.7,7.8-1.6v-2.3
			C94.8,95.4,93.6,95.4,92.5,95.6z"/>
		<path class="st2" d="M26.9,94.7c2.1,1.2,4.4-0.2,6.2-0.8c4.1-1.8,9.2-0.5,13,1c3.7,0.9,6.6-1.5,10-1.8c4.8-0.8,8.2,3,12.9,1.7
			c2.2-0.9,4.6-1.5,7-1.8c3.6-0.4,6.3,1.5,9.6,2.2c1.1-0.1,2.3-0.3,3.1-0.9c2.2-1.1,4.6-1.5,7.3-1.4v-1.2H18.5v1.1
			C21.7,92.8,24.6,93.1,26.9,94.7z"/>
		<path class="st2" d="M88.7,101.9c-2.6,1.4-5.5,0.1-8-0.9c-4.1-1.9-8.4,0.3-12.2,1.3c-4.8,0.8-8.3-2.9-13.1-1.8
			c-3.3,0.9-6.8,2.7-10.4,1.5c-3.5-1.5-8.4-2.7-12-0.6c-2.4,1.1-5.8,1.4-8.1-0.1c-1.8-1.1-4.1-1.1-6.5-1.1v3.6H96v-3.5
			C93.3,100.1,90.7,100.6,88.7,101.9z"/>
	</g>
</g>
</svg>
