<svg version="1.1" id="Leicester" xmlns="http://www.w3.org/2000/svg" x="0" y="0" viewBox="0 0 1860 1860" style="enable-background:new 0 0 1860 1860" xml:space="preserve"><style>.st0{fill:#fff}.st1{fill:#003090}</style><path class="st0" d="M930 1860c513.6 0 930-416.4 930-930S1443.6 0 930 0 0 416.4 0 930s416.4 930 930 930"/><path class="st1" d="M930 1826.8c495.2 0 896.8-401.5 896.8-896.8 0-495.2-401.5-896.7-896.8-896.7C434.7 33.3 33.2 434.8 33.2 930c0 495.3 401.5 896.8 896.8 896.8M930 1838.4z"/><path class="st0" d="M930 1769c463.4 0 839-375.7 839-839 0-463.4-375.6-839-839-839S91 466.6 91 930s375.6 839 839 839"/><path class="st1" d="M930 1749.4zM110.6 930c0-452.5 366.8-819.4 819.4-819.4 452.5 0 819.3 366.9 819.3 819.4s-366.8 819.4-819.3 819.4v-9.8c223.6 0 425.9-90.6 572.4-237.1s237.1-348.9 237.1-572.5c0-223.6-90.6-425.9-237.1-572.4C1355.9 211 1153.6 120.4 930 120.4c-223.6 0-425.9 90.6-572.4 237.1C211 504.1 120.5 706.4 120.5 930c0 223.6 90.6 425.9 237.1 572.5C504.1 1649 706.4 1739.6 930 1739.6v9.8c-452.5 0-819.4-366.9-819.4-819.4z"/><path class="st0" d="M930 1512c321.4 0 581.9-260.5 581.9-582 0-321.4-260.5-581.9-581.9-581.9S348.1 608.6 348.1 930s260.5 582 581.9 582"/><path class="st1" d="M914.7 390.8c-12.2 66-91.2 65.8-135.2 100.8-25.2 20.4-38.2 44.8-44.7 72.5-41.6-21.2-81.9-52.4-125.1-69.4 85.5-66 193-104.3 305-103.9M1240.3 486.9l-104.9 69c-12.2-74.9-95.3-96.9-152.3-120.5-11.4-12.2-28.6-27.5-22-44.6 103.5 5.7 196 37.3 279.2 96.1"/><path class="st1" d="M967.7 452.5c53.7 28.5 138.4 39.1 149.8 115.7-2.5 8.1-12.2 11.4-17.1 15.4-4.8-101-123.8-81.5-162.1-158C898.4 503 770.5 488.4 772.2 595c-9-4.1-25.3-13.8-16.3-29.3 22-85.6 123.8-79.9 172.7-138.5l7.4-31c4 19.6 13 40.8 31.7 56.3"/><path class="st1" d="M940 485.9c-.8 2.5 1.6 6.5-1.6 8.2-3.3.8-4.1-3.2-6.6-4.1 0-5.8 6.6-12.3 8.2-4.1M961.1 505.4c1.7 3.2-1.6 5.7-3.2 8.2h-2.5v-12.2c3.3-.8 4.1 2.4 5.7 4M920.4 505.4c-.8 2.5 1.7 6.6-1.6 8.2h-4.1v-9.8c1.6 0 4.9-.8 5.7 1.6M553.1 636.6c-51.4 29.3-65.6 110.4-130.7 103.8 27.7-78.2 77.3-150.7 144.1-209.3-18.7 29.3-15.9 69.6-13.4 105.5M945.7 593.4h-23.6l16.3-58.7c-3.3 22.1 4.8 39.2 7.3 58.7M1430.3 728.6c-56.2-4.1-74.9-72.5-124.6-97.8 7.2-25.2 11.8-55.4 7.7-82.3 54.6 53.9 94.1 113.3 116.9 180.1"/><path class="st1" d="m1438.5 745.7 1.6 2.4c-78.2 53 3.2 171.9-81.5 220.8-23.6 16.3-53.8 16.3-84.8 15.5 4.9-18.8 35.1-11.4 51.4-21.2 96.1-29.3 46.4-145.7 95.3-207.7-47.3-13-84.8-54.6-123-85.5l2.4-13.8c44.9 31.7 78.3 95.3 138.6 89.5M568.6 667.5c-36.7 41.5-74.1 87.1-127 97.8 5.7 15.5 19.5 27.7 25.2 43.2 17.1 66 18.7 157.2 103.4 176 12.2 4.9 28.6-2.5 37.5 9.8-41.6 8.2-80.6-1.6-109.2-29.3-58.6-57-1.6-166.1-86.4-206.9 70.9 15.5 98.6-69.2 148.3-100.2l8.2 9.6z"/><path class="st1" d="M1321.2 749.8c-.8 2.4 1.6 6.5-1.7 8.1h-2.4v-12.2c2.4-.8 4.9 1.7 4.1 4.1M558.8 757.9c.8 1.7-.9 2.4-1.7 3.3-4.1 1.6-5.7-1.6-8.1-3.3-2.4-8.9 12.2-8.9 9.8 0M1303.3 775.1c-1.6 1.6-2.4 4.9-5.7 4.1-4.9-2.4-4.9-9.8 0-11.4 4.8-.9 4 4.8 5.7 7.3M1342.4 767.8c0 3.2 1.6 7.3-1.7 9.7-2.5.8-4.1-3.2-5.7-4.1 1.7-4.1 1.7-7.3 7.4-5.6M579.9 777.5c-1.6.9-2.4 4.1-5.7 3.3l-4.1-3.3 6.6-8.1c2.4 2.4 2.4 4.8 3.2 8.1M1313.4 1311.6l-37 34.4c-10.6-79.8 82.3-130.3 60.3-216.6-11.4-45.6-61.1-82.3-101.8-97.7-.9-56.2 61-15.5 90.4-27.7 35-6.5 73.3-28.5 88-64.3 31-53-12.6-124 33-171.2 61 192.1 8.8 403.8-132.9 543.1M539.2 777.5c1.6 3.3-1.6 5-4.1 7.4h-1.6v-11.4c2.4-.9 4.1 2.4 5.7 4M465.1 955c19.5 35.9 55.4 54.6 92.1 62.7 25.2 1.6 50.5-2.4 71.7-4l6.5 15.4c-42.3 15.4-87.9 50.5-100.2 96.1-20.3 84.7 56.2 139.3 70.8 215.1l-6.1 19.1C431.1 1225.2 357.8 1029.7 399.3 814l10.8-35c70 29.4 20 123.1 55 176M1335 872.8c-11.4-4.1-13.8 9.8-17.9 15.5-2.4-4.9-2.4-11.4-7.3-15.5l-12.2 2.5 23.6-75c-.8 26.9 8.9 48.8 13.8 72.5M576.7 876.8c-10.6-2.4-14.6 6.6-17.9 13.9v4c-2.5-8.1-9-25.2-21.2-16.3 6.5-24.4 17-48.1 21.2-74.1-.8 26.9 8.1 49.7 17.9 72.5"/><path class="st1" d="M645.1 1061v7.3c-32.5 15.5-70.9 43.9-70.9 84-4.9 74 66 115.6 58.7 189.7 11.4 9 22-7.3 35-5.7 42.8-3.3 165.4 9.8 193.8-25.3 7.3-1.6 12.2 2.5 18 5.7-10.6 23.6-38.3 40.7-65.2 43.1-66.8 6.6-143.4-49.7-197.2 11.5 40.7-95.4-99.3-157.2-53-258.2 13.1-30.2 45.7-55.4 76.5-64.3l4.3 12.2zM1315.4 1140.7c9.8 84-87.9 129.5-61 213.4-82.3-47.2-189.8 66-259.9-31.7 0-6.5 7.4-11.5 12.2-13.8 14.7 4 19.6 17.9 32.6 26 63.5 45.6 131.1-13.8 199.5 3.3 4.1-8.2 0-24.4 4.1-35.1 26.1-59.4 90.4-135.2 29.3-199.6-16.3-13.8-35-24.4-54.6-31-5.7-8.9 3.3-15.4 5.7-23.6 37.6 14 88.1 47.4 92.1 92.1"/><path class="st1" d="M1160.7 1156.2c-4.9 2.5-4.9-3.2-7.3-5.7 2.4-2.4 2.4-8.1 7.3-5.7v11.4zM724.9 1150.5c-.8 2.5 1.6 6.6-1.7 8.1-3.2.8-4-3.2-6.5-4-4-7.3 8.2-11.4 8.2-4.1M1182.7 1174.1c-2.4-.8-3.2.8-4.1 1.7-2.4-2.5-4.9-11.4 1.7-11.4 4 1.6 1.6 6.5 2.4 9.7M746.1 1171.7c.8 2.4-.8 3.3-1.6 4.1h-4.1v-9.8c5.7-2.4 4.1 4.1 5.7 5.7M705.4 1171.7c-.8 3.3 1.6 6.5-1.6 8.2-3.2.8-4.1-2.4-6.6-4.1-1.6-4.1 8.2-12.2 8.2-4.1M1135.4 1168.4h5.7v9.8h-5.7zM738.8 1271.9c-8.1-5.7-17.1 8.2-18 13.9 0-10.6-13-16.3-19.5-13.9 12.1-22 16.3-48 22-72.4 2.4 25.2 8.9 48.8 15.5 72.4M1176.2 1273.5c-.8-3.2-4.9-.8-7.4-1.6l-9.7 15.5c-1.6-5.8-2.5-11.4-8.1-15.5l-9.8 1.6 19.5-74.1c2.5 26.1 10.6 49.7 15.5 74.1M1085 1385.1c53.8 3.2 101.8-34.9 154-10.4-150.1 109.2-379.1 127.1-541.3 46.5l-62.7-37.1c10.6-15.5 34.6-21.8 55-22.5 66.8 10.5 164.5 44.7 211-29.4 22 10.6 52.1 6.5 72.5-4 24.3 37.4 65.8 57.8 111.5 56.9"/><path class="st0" d="M1397.7 1070.7c-34.2 0-73.3-4.1-97.7-27.7-1.7-10.6 8.9-14.7 17.1-15.5 30.1 5.7 61.1 18.8 80.6 43.2M554.7 1047.1c1.7 20.3-22 22.8-35 29.3-16.3 4.9-36.6 6.5-52.9 5.7 22.8-22.8 51.3-44.8 83.9-40.7l4 5.7zM955.4 1354.1c-.8 25.3-4.9 49.7-13.9 71.7-6.5-24.4-28.4-62.7-3.2-85.4 8.2 0 14.7 5.6 17.1 13.7"/><path class="st1" d="M277.7 1119c1.6 6.7 4.2 12.4 8.5 18.1l-22.9-7.5c-6-1.9-10.3-6.4-11.8-12.6l-12.8-54.9-33.4 7.8c-12.2 2.9-20.1 9.7-21.4 18.4l-13.9-59.4c5.5 7.5 14.2 9.3 27.1 6.2l93.3-21.8c12.9-3 19.7-8.4 21.6-17.6l31.8 135.8c-2.5-1.2-4.6-1.4-6.3-1-2.9.7-11.8 6.8-28.7 16 6-18.3 4.5-35.6 0-54.9l-10.2-43.4-35.6 8.3 14.7 62.5zM246 1273.5c-24.8-48.7-12.8-89.5 27.9-110.2 41.3-21 84.4-6.6 108.5 40.8 24.8 48.7 13.5 89.4-29.3 111.1-39.3 20.1-83 5.7-107.1-41.7zm91.8 7c27.1-13.8 34.7-36.6 21.6-62.4-14.4-28.4-39.4-35.8-69.1-20.7-26.7 13.6-34.3 36.4-21.2 62.2 14.4 28.1 39.5 35.8 68.7 20.9zM361.6 1441.3c-36.7-40.5-35.8-83-2-113.6 34.3-31.1 79.7-28.5 115.4 10.9 36.7 40.5 36.5 82.7.9 114.9-32.7 29.7-78.6 27.2-114.3-12.2zm90.4-17.4c22.5-20.4 23.9-44.5 4.5-65.9-21.4-23.6-47.4-24.2-72.1-1.9-22.2 20.1-23.5 44.1-4.1 65.6 21.2 23.5 47.3 24.3 71.7 2.2zM502.1 1537.8c.4-.6 2-3.1 4.5-6.7l52.9-79.3-5.9-3.9c-16.7-11.2-32.2-18.5-51.4-19.3 14.3-12.6 23.3-18.6 25.1-21.3 1-1.4 1.2-3.6 1.2-6.3l119.9 80c-2.7.9-4.4 2.1-5.3 3.5-1.6 2.4-4 13-10 31.3-8.1-17.5-20.8-28.9-37.5-40.1l-6.3-4.2-52.9 79.3c-6.7 10-8.2 21.6-3.1 28.6l-50.6-33.7c7.8 1.5 15.7-2.4 19.4-7.9zM625.5 1602.8 656 1513c4.3-12.5 3.9-21.5-3.4-28.1l77.1 26.2c43.4 14.7 64.3 29.6 55 56.7-4.7 13.9-17.3 22.1-34.1 21.1 23.1 11.2 30.9 25.5 24.3 45-10 29.5-37.4 33.9-84.8 17.8l-84.5-28.7c9.8-.8 15.6-7.4 19.9-20.2zm78 27.5c19.3 6.5 31.1 3.6 35.3-8.7 4.1-12.1-4.1-20.8-23.8-27.5l-43.6-14.8-12.2 36 44.3 15zm10-62.3c18.8 6.4 29.4 4.3 33.5-7.8 4.4-13-3.1-18.4-19.6-24l-37.1-12.6-11.1 32.7 34.3 11.7zM957.7 1692.8l-54.5-1.4c4-3.6 5-7.3 5.4-11.7.3-3.7-.3-7.2-.9-8.9l-3.3-9.9-83.8-7.5-3.8 6.8c-1.2 2.1-2.2 5.7-2.6 9.4-.5 5.9 1.9 12.3 5.3 15.8l-56.4-12.7c8-6.7 13.2-9.2 19-18.8l61.1-102.6c1.7-2.8 2.7-5.2 2.8-6.6.1-1-.3-2.5-1.2-5.3l60.3 5.4c-1.2 2.4-2.3 4-2.4 5.2-.1 1.2.4 3.5 1.6 6.8l38.3 111.5c3.8 10.6 8.9 16.8 15.1 24.5zm-61.9-59.3-25.4-70.7-35.4 65.3 60.8 5.4zM948.9 1548.3l60.5-8.5c-8 4.8-11.2 14-9.4 26.6l13.4 94.9 41-5.8c23.1-3.2 40.4-10.4 54.1-25.2-5.1 21.8-9.3 34-8.8 37.6.3 1.9 1.8 3.7 3.8 5.9l-134.3 18.9c8-5.1 10.5-13.6 8.7-26.5l-13.4-94.9c-1.8-13.1-6.6-20.3-15.6-23zM1073.5 1532.3l57.5-20.6c-6.8 6.4-8.1 15.9-3.8 27.9l32.3 90.3 39-14c21.9-7.8 37.4-18.3 47.9-35.6-.6 22.3-2.3 35.2-1 38.6.7 1.8 2.5 3.3 4.9 5l-127.7 45.7c6.8-6.6 7.5-15.4 3.1-27.7l-32.3-90.3c-4.4-12.3-10.5-18.5-19.9-19.3zM1422.1 1513.1c-8.8 6.3-20.3 20.5-38.8 33.8-42.3 30.2-82.5 25.5-109.8-12.8-27.6-38.7-17.9-83.7 26.6-115.4 20.4-14.5 37.9-19.9 45.7-25.4 2-1.4 3.6-3.4 5.7-5.9l10.5 37.1c-17.1.5-31.7 5.4-45.2 15.1-26.1 18.7-30.2 47.2-13.2 70.9 18.7 26.1 42.6 30.1 69.1 11.2 15-10.7 26-25.5 36.5-45.1l22.9 32.1c-4.2 1.2-7.4 2.6-10 4.4zM1350.5 1386.2l40.2-45.9c-2.9 8.9.7 17.9 10.2 26.3l72.1 63.2 27.3-31.2c15.3-17.5 23.8-34.2 24.6-54.4 10.3 19.8 15.1 31.8 17.9 34.3 1.5 1.3 3.8 1.7 6.7 2l-89.3 102c2.7-9-1-17.1-10.7-25.7l-72.1-63.2c-9.9-8.8-18.3-11.2-26.9-7.4zM1603.7 1297.1c-23.5 42.5-51.6 53.8-85.7 35l-57.5-31.8c-11.8-6.5-21-7.1-28.4-1.4l29.3-53c-.7 10 4.4 16.4 16.4 23.1l56.4 31.2c18.4 10.2 34.6 4.8 46.1-16s7.6-37-11.1-47.3l-56.4-31.2c-11.2-6.2-19-8.2-28.2-1.6l29.4-53.2c-1 9 4.6 17.1 16.1 23.5l57.5 31.8c34.2 18.8 39.6 48.4 16.1 90.9zM1635.4 1162.4l-92.5-21.2c-12.9-3-21.7-1.7-27.6 6.2l18.2-79.3c10.3-44.7 22.9-66.9 50.9-60.5 14.3 3.3 23.7 15 24.4 31.8 8.8-24.1 22.3-33.4 42.3-28.8 30.3 7 37.5 33.8 26.3 82.5l-20 87c-1.8-9.5-8.9-14.7-22-17.7zm-43.6-84c4.4-19.4 1.3-29.6-11.2-32.5-13.4-3.1-18 4.9-21.9 21.9l-8.8 38.2 33.7 7.7 8.2-35.3zm63 3.7c4.6-19.8.4-31.4-12.3-34.3-12.4-2.9-20.3 6.2-24.9 26.5l-10.3 44.9 37 8.5 10.5-45.6zM177.8 830.3l13.2-59.6c1.7 9.2 9.2 15.3 21.6 18.1l93.6 20.7 8.9-40.5c5-22.7 4.4-41.5-4.7-59.5 18.6 12.4 28.6 20.6 32.2 21.4 1.9.4 4.1-.3 6.9-1.5l-29.2 132.4c-2-9.2-9.1-14.6-21.8-17.4l-93.6-20.7c-12.9-2.9-21.4-1-27.1 6.6zM334.3 696.8 249 653.1c-11.8-6-20.4-6.3-27.8-.5L291 516.5c1.2 2.5 2.6 4.1 4.1 4.9 2.6 1.3 13.4 2.4 32.3 6.4-16.4 10-26.4 24.2-35.5 41.9l-26.5 51.7 30.3 15.5 29.3-57.2c3.9-7.6 5-14 5.5-19.2l12.7 20.3c3.3 5.3 3.5 11.4.5 17.3L318 648.3l32.7 16.8 28-54.5c11.1-21.6 14.5-41.6 10.5-58.6 14.9 16.7 22.5 27 25.8 28.7 1.7.9 3.9.9 6.9.5l-70.8 138.1c.5-9.5-5-16.5-16.8-22.5zM366.9 460.4l74.7 58.5c10.6 8.3 19.3 10.4 27.8 5.9l-37.3 47.7c2.4-9.4-1.9-17.1-12.5-25.4l-74.7-58.5c-10.6-8.3-19.1-10.6-27.6-6.1l37.3-47.7c-2.4 9.4 1.7 17.3 12.3 25.6zM563.3 432.3c-8 7.3-17.7 22.8-34.5 38.2-38.4 35-78.8 35.1-110.6.3-32.1-35.1-27.7-80.9 12.7-117.8 18.5-16.9 35.3-24.2 42.4-30.7 1.8-1.7 3.1-3.9 5-6.5l14.9 35.6c-16.9 2.5-30.8 9.2-43.1 20.4-23.7 21.6-24.3 50.4-4.7 72 21.6 23.7 45.9 24.8 70 2.9 13.6-12.4 22.8-28.5 30.9-49.1l26.6 29.2c-4.2 1.6-7.3 3.4-9.6 5.5zM574 394.5l-44.9-84.7c-6.2-11.7-13.1-16.9-22.5-16.4l135.2-71.6c-.5 2.8-.2 4.8.6 6.3 1.4 2.6 9.6 9.6 22.8 23.7-19.2-1.2-35.5 4.7-53.1 14L560.7 293l16 30.1 56.8-30.1c7.6-4 12.1-8.6 15.5-12.6l-1.2 23.9c-.3 6.3-3.7 11.4-9.5 14.5l-49.8 26.4 17.2 32.5 54.2-28.7c21.4-11.4 35.7-25.9 42.1-42 2.6 22.2 3 35 4.7 38.3.9 1.7 2.7 3 5.4 4.4L575 422.4c5.8-7.4 5.2-16.2-1-27.9zM776.8 309.3c23.8-5.8 34.2-14.9 31.2-27.3-3.7-15-20.6-11.9-49.6-8.9-35.9 3.7-56.2-4.7-61.6-26.9-6.2-25.5 13-50.4 53.5-60.2 26-6.3 46.4-6.5 57.3-9.2 1.9-.5 3.8-1.2 5.7-2.6l-.1 38.1c-16-5.4-35.8-5.9-57.9-.5-17.4 4.2-25.2 11.4-23 20.7 3.4 13.8 19.5 8.4 50.8 6.6 35.3-2 55.1 5.5 61.1 30 7.4 30.5-13.7 54.6-60.9 66.1-21.4 5.2-38.2 5.8-47 7.9-2.4.6-4.6 1.6-6.8 3.2L711 308.4c24.1 5.5 45.6 5.8 65.8.9zM889.2 296.9c0-.7-.2-3.7-.3-8.1l-4-95.3-7.1.3c-20.1.8-36.9 4-52.9 14.7 4.1-18.6 7.9-28.8 7.7-32-.1-1.7-1.1-3.6-2.7-5.8l144-6c-1.6 2.3-2.3 4.3-2.2 6 .1 2.9 4.5 12.8 10.4 31.2-16.8-9.4-33.8-11.1-53.9-10.3l-7.6.3 4 95.3c.5 12 6.1 22.3 14.3 24.9l-60.7 2.5c7.2-3.3 11.3-11.1 11-17.7zM981.2 286l17.3-94.3c2.4-13 .2-21.4-7.5-26.8l150.5 27.6c-2.1 1.9-3.2 3.7-3.5 5.3-.5 2.9 1.5 13.5 3.2 32.7-14.3-12.8-30.8-18.4-50.3-21.9l-57.2-10.5-6.1 33.5 63.2 11.6c8.4 1.5 14.8.7 20-.3l-15.8 18c-4.1 4.7-9.9 6.7-16.5 5.5l-55.5-10.2-6.6 36.2 60.3 11.1c23.9 4.4 44 1.8 59.1-6.9-11.7 19-19.3 29.4-20 33-.4 1.9.3 4 1.5 6.8l-152.7-28c9.2-2.1 14.3-9.4 16.6-22.4zM1180.4 364.1l-54.5-26.4c9.7.3 16.3-5.5 22.2-17.6l41.6-85.8c5.8-11.9 5.9-20.6-.1-27.9l77.5 37.5c17 8.2 30.5 14.8 38.7 22.5 12.9 12.2 16.1 30.4 7.6 47.8-9 18.5-28.3 26.3-53.6 19.5 8.8 10.5 10.9 20.8 12.4 33 2.1 16.5 1.8 32.2 10.1 46.6L1226 386c3.9-1.4 6.3-2.9 7.7-5.8 3.2-6.6 3.4-17.7-.3-33.1-3.5-14.8-11.5-24.6-24.7-31.1l-15.2-7.4-13 26.9c-6.1 12.3-6.3 21.5-.1 28.6zm58.9-60.8c21 10.2 31.8 10.2 38.7-3.9 6.8-14.1-.1-22.4-21-32.5l-35.1-17-17.6 36.4 35 17zM1406.5 529.1c-7.7-7.6-23.7-16.5-39.9-32.5-37-36.5-39.2-76.8-6.2-110.4 33.4-33.9 79.3-32 118.3 6.4 17.8 17.5 26.1 34 32.9 40.7 1.7 1.7 4 2.9 6.8 4.6l-34.7 16.7c-3.4-16.8-10.8-30.3-22.7-42-22.9-22.5-51.7-21.6-72.1-.8-22.5 22.9-22.3 47.2.9 70 13.1 12.9 29.6 21.3 50.7 28.2l-27.7 28.1c-2.1-3.8-4-6.8-6.3-9zM1545.6 520.9l-77.7 54.4c-11.1 7.7-15.6 15.4-13.7 24.9l-34.7-49.6c8.3 5 16.9 3.2 27.9-4.6l77.7-54.4c11.1-7.7 15.7-15.2 13.9-24.7l34.7 49.6c-8.3-4.9-17.1-3.3-28.1 4.4zM1495.4 638.5c.7-.3 3.3-1.6 7.3-3.5l86.1-41-3.1-6.4c-8.6-18.2-18.1-32.4-34.3-42.9 18.7-3.5 29.6-4 32.5-5.4 1.6-.7 2.9-2.5 4.3-4.7l62 130.2c-2.7-.6-4.8-.4-6.4.3-2.7 1.3-10 9.1-24.7 21.8 2-19.2-3-35.5-11.7-53.6l-3.3-6.9-86.1 41c-10.8 5.2-18.2 14.4-17.3 22.9l-26.1-54.9c6 5.2 14.8 5.9 20.8 3.1zM1676 811.5c3.8-.8 5.9-2.7 7.8-6.9l11.8 56.9c-13.6-8.9-25.4-13.7-33.7-17.5l-77.2-36.3-22.3 4.6c-13.2 2.7-20.7 8.8-22.4 17.7l-12.4-59.5c6.3 8.5 14.5 9.5 27.5 6.8l21.6-4.5 62.1-66c9.4-10 16.3-17.9 18.7-28.2l13.1 62.9c-3-3.6-5.7-4.6-9.5-3.8-5.5 1.1-8.4 4.2-12.3 8.3l-39.1 40.7 53.8 22.9c4.7 2.1 8.9 2.7 12.5 1.9z"/><path d="m1256 690.7 1.9-1.9.1-3.5c.5-12.9 4-49.8 14.5-66.2 14.3-22.3 7.2-45.3 3.5-57.6-.6-1.9-1.1-3.5-1.4-4.9-2.9-11.6-8.5-22-8.8-22.4l-3.5-6.4-7 2.2c-4.6 1.5-112 36.9-167.2 117.1-6.9 5.4-14.1 11-20.7 16-.1-1.2-.3-2.4-.6-3.7-1.4-5.4-5.4-12.7-16.6-17.1-13.6-5.3-61.9-19.1-122.1-19.1-48.3 0-92.3 8.8-130.8 26l-8.8 3.9 2.6 4.8c-53-45.4-152.9-127.5-181.6-127.5h-1.1l-4 .2-2.5 3.1c-.8 1-4.7 6.2-8.6 17.7-.2.7-.8 1.3-2.1 2.7-9.4 9.6-12.1 20.6-.5 53.4 16.2 46 17.3 63.6 18.1 75.3.9 14.7 12.6 48.7 17.2 58.2 2.3 9.4 18.1 74.2 25.8 92.2 6.8 15.8-.7 24.9-8.1 29.7l-1.9 1.2c-9.4 5.9-29 18.2-31.6 38.8-1.7 13.3 4 27.3 16.9 41.5 3.2 5.9 6 12.8 6.5 15.6 0 0 0 .1-.1.1-4.6 7.5.3 12.3 5 17l2.9 2.8c4.9 4.9 10.1 8.4 14.7 11.4 5.4 3.6 10.1 6.7 13.6 11.4 1.8 2.5 3.2 4.8 4.5 7 3.1 5.4 6.3 11 14.8 15.9l-1.6 10.1c-2.2 14.2 2.3 45.1 35 60.6 9.6 4.6 16.8 7.7 22.1 10 13.8 6 13.8 6 18.2 13.7 8.7 15.5 25.7 33.3 43.3 45.3 14.2 9.7 27.4 28.6 29 33.2l14.1 4.2 1.4-.2c.1-.2 1-1.2 2.2-2.9.4.3.9.6 1.3.9-4.4 11.1-8.5 23.8-8.5 32.5 0 13.1 5.4 43.1 53 50.9l.3.4 12.8 8.9 15.9 13.7 2.1 1.3H941l1-.2 11.5-2.7 3-.7 1.9-2.4 7.1-8.8 6.1-7.6c17.9-1.4 28.9-9.6 35-14.2l.6-.4c9.3-7 20.3-33.3 20.3-38.9 0-2.9-1.7-15.3-2.7-22.4l-.1-.9-.3-.9-5.1-13.9c3.3 5.6 4.1 7.9 4.1 7.9l5.1 15.6 10.2-12.5 23.6-28.8c2.1-2.1 14.5-14.4 22.3-21.4 7.4-6.7 11.5-15.4 14.5-21.8 1.1-2.3 2.1-4.4 2.7-5.4 3.1-4.2 30.4-26.7 53.3-38.6 29-15 35-44.5 32-60.7l-.7-3.9-2.8-1.7c2.7-6.1 4.9-12.4 6.6-18.9 15.8-9.8 33.3-22.9 47.1-38.6l3.5-4.3-2.1-5.1c-.2-.6-6-15.3 11.1-35.9 14.8-17.8 18.3-25.3 15.2-31.8-1.3-2.7-3.7-4.7-6.6-5.4-17.9-12.8-34-28.2-35-33.6-.3-1.6-.7-3.3-1-5.1-2.7-12.8-5.7-27.4 4.5-46.5 9.9-18.5 10.6-27.6 10.4-36-.1-2-.1-3.2.2-4.2 3.1-14 14.7-59.5 18.5-66.8z" style="fill:#f7a800"/><path class="st0" d="m982.4 1130.2 7.8 24.3 3.6 33-21.5 16.2-77.6-2.3-29.7-26.5 13.1-11.2 7.5-33.6c-97.1-72.8-140-80.3-140-80.3-19.3-8.9-39.8-13.4-57.5-15.6l-.3 1.7c-2.2 14.2 2.3 45.1 35 60.6 9.6 4.6 16.8 7.7 22.1 10 13.8 6 13.8 6 18.2 13.7 8.7 15.5 25.7 33.3 43.3 45.3 14.2 9.7 27.4 28.6 29 33.2l14.1 4.2 1.4-.2c.1-.2 1-1.2 2.2-2.9.4.3.9.6 1.3.9-4.4 11.1-8.5 23.8-8.5 32.5 0 13.1 5.4 43.1 53 50.9l.3.4 12.8 8.9 15.9 13.7 2.1 1.3h11.4l1-.2 11.5-2.7 3-.7 1.9-2.4 7-8.8 6.1-7.6c17.9-1.4 28.9-9.6 35-14.2l.6-.4c9.3-7 20.3-33.3 20.3-38.9 0-2.9-1.7-15.3-2.7-22.4l-.1-.9-.3-.9-5.1-13.9c3.3 5.6 4.1 7.9 4.1 7.9l5.2 15.6 10.2-12.5 23.6-28.8c2.1-2.1 14.5-14.4 22.3-21.4 7.4-6.7 11.5-15.4 14.5-21.8 1.1-2.3 2.1-4.4 2.8-5.4 3.1-4.2 30.4-26.7 53.3-38.6 29-15 35-44.5 32-60.7l-3-11.5.5-2.4-26.9 14.8c-176.7 67.6-175.8 100.6-175.8 100.6z"/><path class="st1" d="M752.4 935.5s5.3-7.1 18.5 3.5 43.2 34.5 73.2 30.9c0 0 6.2 9.7-15 8.8-21.2-.9-20.3-1.8-27.4-2.6-7.1-.9-37-29.2-39.7-33.6-2.6-4.4-9.6-7-9.6-7zM949.9 730.9l-9.7-7.9s-5.3-15.9-2.7-23c2.7-7.1 39.7-30 46.8-33.6 0 0-10.6 19.4-20.3 25.6-9.7 6.2-15 15.9-15 15.9s-2.7 14.1.9 23zM919 728.2s11.5-19.4 5.3-24.7c-6.2-5.3-44.2-34.4-44.2-34.4s.9 18.5 9.7 24.7c8.8 6.2 16.8 6.2 17.7 10.6l.9 4.4s-1.8 4.4 1.8 8.8c3.5 4.4 8.8 10.6 8.8 10.6zM1016.1 838.4s45.7-24.1 61.3-27.7c15.6-3.6 0-7.2-3.6-8.4-3.6-1.2-14.4-1.2-14.4-1.2l-14.4 6-7.2 3.6-10.8 8.4-8.4 3.6-4.8 2.4c-.2.1-5 16.9 2.3 13.3zM786.3 805.9c-1.3-6 6 2.4 10.8 4.8 4.8 2.4 27.7 9.6 27.7 9.6l7.2 4.8 12 9.6-2.4 6s-7.2 0-10.8-3.6c-3.6-3.6-15.3-11.5-16.1-9.4-.8 2.2-8-.2-14-3.8-6-3.5-12-7.2-14.4-18z"/><path class="st0" d="M739.2 712c-1.7-3.6-4-8.8-4.6-11.1-.3-1.2-.6-2.3-1-3.6-1.2-3.7-2.8-8.8-4.5-24.5-2-18.5-12.5-29.5-18-35.4-.9-.9-2.1-2.2-2.5-2.8-2.7-5.1-6.9-6.1-9.2-6.6-2.2-.5-6.8-1.5-17.8-12-19.9-19-43.5-34.5-44.4-35.1l-20.4-13.4 7.8 23.4c3.2 9.7 6.8 21.9 7 24.4 0 2.5.5 7.6 1.5 16.4.9 7.9 1.9 17.6 1.9 21 0 7.3 4.9 39.4 5.9 45.8l.2 1.3.6 1.2c1.6 3.2 9.8 19.6 13.5 24.7l.9 1.2c2.5 3.4 3.1 4.1 4.7 8.9-.1.4-.3.9-.4 1.3-2.2 6.4-4 14.8 1.6 32.9 4.7 14.9 12.9 18.1 19 18.1 10.6 0 19.1-10.4 21.1-13 1.6-2 6-7.2 8.6-9.8.7-.7 1.7-1.7 2.9-3 4.5-4.8 12.9-13.7 21.8-20.9 7.3-5.9 8.9-12.1 9-16.2-.1-6.4-3.3-11-5.2-13.2z"/><path class="st1" d="M1101.1 923.1s-5 .9-5 7.9-28.4 30.6-37.6 35c-9.2 4.4-20.1 2.7-30.1 2.7s-13.4 13.1-13.4 13.1h.2c-3.3 5.7-7 15.9-7 15.9s-3.4 25.1-11.4 50.2 4.5 57.3 5.7 62.1c1.1 4.8 10.2 20.3 13.7 25.1 3.4 4.8 3.9 24.4 3.9 24.4l6.4-23.2s-1.1-8.4-2.3-13.1c-1.2-4.8-8-10.8-10.3-19.1-2.3-8.4-8-31.1-8-37 0-6 5.7-39.4 6.8-45.4 1.1-6 6.8-17.9 7.4-34.8.1-1.9.1-3.4 0-4.7 52.5 2.8 77-30.3 81.1-35.4 4.2-5.3 9.2-23.7 9.2-23.7h-9.3z"/><path class="st0" d="M1224.4 578c-9.3 10-22 17.5-35.5 25.4-24.7 14.6-52.6 31-54.9 66l-.2 3 1.7 2.5c5.7 8.2 2.5 14.3-4 25.3-3.3 5.6-6.8 11.4-8.4 18l-1.3 5.4 4.5 3.4c6.6 5 12.4 11.5 18 17.8 11.6 13 23.6 26.5 43.4 28.8l5.1.6 3-4.1c10.3-14 13.1-30 15.9-45.6 2.5-14.2 4.8-27.6 12.8-38.3l2.2-2.9-.6-3.6c-2.6-15.7 2-35.5 6.4-54.7 3.2-13.7 6.4-27.9 7.1-40.7l1.3-23.9-16.5 17.6z"/><path class="st1" d="M850.1 994.3c3.2 37.8 37.1 66.4 14.7 103.7 2.8 21.2-17.5 31.8-23.1 49.3-9.1 0-4.9-14.5-3.5-20.5 19.5-34.1 25.8-81.8 4.9-118.1-.7-6.1.7-12.9 7-14.4M1239 554.7c-32.2 27.7-72.6 37.7-102.5 71.6-29.8 26.2 4.8 70.1-36.3 90.8 29 27 54.8 56.2 90.4 75.4 25-15.4 25.8-43.9 27.4-70 25.8-45.4 12.9-99.3 33.1-147.8-4-6.9.8-23-12.1-20zm-20.9 123.9c-18.6 25.4-10.5 60.8-29.1 86.2-25.8-3.1-37.1-30-58.1-46.2 4-16.9 25-31.5 11.3-51.6 3.2-48.5 60.6-57 89.6-88.5-1.6 30.9-18.6 70.1-13.7 100.1zM744.2 705.2c-2.4-6-8.4-1.2-6.1-17.8 5.4-38.7 1.3-20.8-19.1-54.3 0 0-13.2-15.6-14-19.9-.7-4.2-4.1-1.8-10.1-5.4-6-3.6-9.6-4.8-18-9.6s-10.8-8.4-21.7-19.2c-10.8-10.8-27.7-16.8-33.7-20.4-6-3.6-9.6 0-9.6 0-6 0 2.4 25.3 2.4 30.1 0 4.8 2.4 28.9 8.4 61.3 6 32.5 13.2 61.4 18.1 72.2 4.8 10.8 6 19.2 9.6 46.9 3.6 27.7 22.4 36.3 22.4 36.3s33-31.5 46.2-38.7c13.2-7.2 16.8-15.6 24.1-25.3 7.2-9.6 7.2-9.6 13.2-19.2 5.9-9.8-9.7-10.9-12.1-17zM731 736.5c-12 9.6-22.8 21.7-26.4 25.3-3.6 3.6-9.6 10.8-9.6 10.8s-18 24.1-26.5-2.4c-8.4-26.5 1.2-27.7-1.2-34.9-2.4-7.2-3.6-8.4-7.2-13.2-3.6-4.8-13.2-24.1-13.2-24.1s-6-38.5-6-45.7c0-7.2-3.6-33.7-3.6-38.5 0-4.8-7.8-27.9-7.8-27.9s24.6 15.9 45.1 35.1c20.5 19.2 24.1 12 26.5 16.8 2.4 4.8 18 14.4 20.4 36.1 2.4 21.7 4.8 25.3 6 30.1 1.2 4.8 6 14.4 6 14.4s9.5 8.5-2.5 18.1z"/><circle class="st1" cx="821.9" cy="942.7" r="20.3"/><path class="st0" d="M817.6 935.2c0 2.4-1.9 4.3-4.3 4.3s-4.3-1.9-4.3-4.3 1.9-4.3 4.3-4.3 4.3 1.9 4.3 4.3z"/><circle class="st1" cx="1046.6" cy="942.7" r="20.3"/><path class="st1" d="M777.3 907.6c-19.3.7-41.9 4-60.4 1.9 9.8 4.6 29.3 9.4 59.6 10.4 12.3-2.7 23.2-4.5 36.9-2.7 32.7 4 47.8 38.3 73.4 51l4-12.8c-20.1-39.8-69.6-64.5-113.5-47.8z"/><path class="st1" d="M1253.6 860.7c-38-28.2-15-51.2-7.1-67.1 7.9-15.9 11.5-45.9 11.5-53.9 0-7.9 1.8-38.8 11.5-47.7 9.7-8.8 11.5-56.5 15.9-68s6.2-30 6.2-34.4c0-4.4.9-13.2 1.8-21.2.9-7.9-29.1-65.3-29.1-65.3-42.4 4.4-150.1 97.1-160.7 108.6-10.6 11.5-22.1 18.5-22.1 18.5-60-17.7-92.7-13.3-151.9-16.8-49.7-3-121.8 15.2-143.6 21.2C726.8 557.9 604.6 511 604.6 511c-45 45-13.2 152.8-8.8 162.5 4.4 9.7 15 27.4 14.1 46.8-.9 19.4 13.2 64.5 15.9 81.2 2.7 16.8 17.7 41.5 17.7 41.5s-9.7 10.6-26.5 27.4c-16.8 16.8-10.6 8.8-20.3 13.2-9.7 4.4-11.5 16.8-11.5 16.8s13.2 23.8 24.7 36.2c11.5 12.4-3.5 23-3.5 23s20.3 16.8 32.7 26.5c12.4 9.7 5.3 8.8 14.1 16.8s2.7 14.1 2.7 14.1l7.1 6.2c5.3 62.7 60 85.6 80.4 97.1 20.3 11.5 34.4 30 34.4 30l16.8 13.2c42.4 30 42.4 57.4 42.4 57.4-7.9 47.7 25.6 56.5 25.6 56.5 45 15 42.4 18.5 42.4 18.5 34.4 27.4 44.2 13.2 56.5 9.7 12.4-3.5 27.4-14.1 27.4-14.1 64.4-26.5 53.9-81.2 53.9-81.2s10.6-15 18.5-23c7.9-7.9 15-23.8 15-23.8s45-40.6 72.4-55.6c27.4-15 51.2-34.4 63.6-87.4 12.4-53 53-63.6 53-63.6-3.5-6.2-8-20.3 1.8-34.4 9.7-14.1 25.5-36.1 25.6-36.2-.4.1-2.7 1.5-39.1-25.6zm-302 436.2-11.5 2.7h-7.9l-17.7-10.6s6.2-1.8 18.5-1.8c12.4 0 22.1.9 24.7.9h.9l-7 8.8zM1243 914.5c-21.2 25.6-12.4 45-12.4 45-30 34.4-79.5 55.6-83 56.5-3.5.9-9.7 8-13.3 11.5-3.5 3.5-22.1 24.7-22.1 24.7l8.8.9-3.2 11.3s13-14.8 17.4-21c4.4-6.2 15.9-2.7 15.9-2.7l12.4-6.2s5.3-3.5 8-5.3c2.6-1.8 7.1.9 7.1.9 2.7 14.1-3.5 38.9-27.4 51.2-23.8 12.4-53 36.2-56.5 41.5-3.5 5.3-7.1 17.7-15.9 25.6-8.8 7.9-23 22.1-23 22.1l-23.8 29.1s-.9-3.5-7.1-13.3c-6.2-9.7-2.7-8.8-3.5-14.1-.9-5.3-2.7-9.7-7.1-17.7-4.4-7.9-9.7-3.5-13.2-6.2-3.5-2.6-6.2-10.6-6.2-19.4 0-8.8-21.2-109.5-23-118.3l-1.8-8.8s10.6-24.7 37.1-55.6c5.9-6.9 11.9-12 17.7-15.8 0 .1-.1.2-.1.3 9.8-6.5 26.6-14 46.4-7.8-.1-.1-.1-.2-.2-.3 11.1 3.1 20.9 4.6 29.6 4.9 32.4-3.1 45.8-15.4 50.9-23-13.6 3-40.3 5.9-40.3 5.9-128.9-11.5-97.1 5.7-97.1 5.7-28.2 9.7-41.5 47.7-41.5 47.7s-8.8 11.5-12.3 16.8c-3.5 5.3-3.5 26.5-2.7 31.8.9 5.3 2.7 19.4 2.7 19.4-9.7 43.3 17.6 110.4 18.5 113 .9 2.7 9.4 41.4 9.4 41.4l4.8 1.2 7-7.3h4.4l1.8 4.4 9.7 26.5s2.6 18.5 2.6 21.2c0 2.6-9.7 26.5-16.8 31.8-7.1 5.3-20.3 15.9-45 12.3l-2.1-.3c-4.8-1.1-9.7-2.1-9.7-2.1l-4.8-1.2-3.6-3.6-1.2-4.8v-8.6c8.8-1.5 15.3-5.9 15.3-5.9 23-10.5 26.6-31 26.6-44.5 0-6.6-10.7-12-10.7-12-29.2-8.8-54.8-4.4-69.8-.9-15 3.5-9.7 24.7-9.7 24.7-.3 12.6 24.7 32.7 24.7 32.7 5.8 4.6 11.9 6.2 17.5 6.3v4.6s-1.2 4.8-3.6 9.6c-1.6 3.2-8.7 4.8-13.4 5.5-2.6.3-4.1.5-4.1.5-45-4.4-53.9-27.4-53.9-43.3 0-15.9 17.7-51.2 17.7-51.2l5.3 4.4s9.7 0 12.4-1.8c2.7-1.8 1.8-6.2 0-8.8-1.8-2.6-4.4-8-4.4-8 20.3-21.2 32.7-161.6 33.5-165.1.9-3.5-.9-9.7-.9-9.7l-2.7-6.2-5.3-5.3s-11.5-8.8-16.8-6.2c-5.3 2.7 5.3 16.8 5.3 16.8l6.2 7.9c-6.2 8.8-11.5 57.4-11.5 57.4l-9.7 60.9s-7.9 17.7-11.5 34.4c-3.5 16.8-19.4 4.4-19.4 4.4 5.3 23-8.8 39.7-8.8 39.7-.9-5.3-15.9-27.4-32.7-38.8-16.8-11.5-32.7-28.3-40.6-42.4-7.9-14.1-8.8-10.6-44.2-27.4-35.3-16.8-30-51.2-30-51.2s24.7 9.7 28.3 10.6c3.5.9 20.3 6.2 26.5 8.8 6.2 2.7 32.7 19.4 6.2-9.7-26.5-29.1-39.7-19.4-56.5-25.6-16.8-6.2-15.9-13.2-23.8-23.8-7.9-10.6-19.4-14.1-29.1-23.8-9.7-9.7-7.1-6.2-5.3-11.5 1.8-5.3-8-23-8-23-37.1-39.7 1.8-60.9 14.1-68.9 12.4-8 19.4-22.1 11.5-40.6-7.9-18.5-25.6-91.8-25.6-91.8-3.5-6.2-15.9-41.5-16.8-55.6-.9-14.1-2.6-32.7-18.5-77.7s-.9-39.7 2.7-50.3c3.5-10.6 7.1-15 7.1-15C641.6 537.1 813.7 689 813.7 689c-2.8-11.1-7.2-21.8-12.9-32.1 104.1-46.7 222.2-16.1 246-6.8 24.7 9.7 2.7 36.2 2.7 36.2 3.5-.9 45-33.5 45-33.5 53.9-79.5 163.3-114.8 163.3-114.8s5.3 9.7 8 20.3c2.7 10.6 13.2 33.6-.9 55.6-14.1 22.1-15.9 70.6-15.9 70.6-4.4 4.4-18.5 62.7-20.3 70.6-1.8 7.9 3.5 13.2-9.7 38-13.2 24.7-7.1 43.3-4.4 57.4 2.6 14.1 40.6 40.6 40.6 40.6s9-2.2-12.2 23.4z"/><path class="st0" d="M1042.2 935.2c0 2.4-1.9 4.3-4.3 4.3s-4.3-1.9-4.3-4.3 1.9-4.3 4.3-4.3 4.3 1.9 4.3 4.3z"/></svg>