<svg version="1.1" id="Layer_1" xmlns="http://www.w3.org/2000/svg" xmlns:xlink="http://www.w3.org/1999/xlink" x="0" y="0" viewBox="0 0 296.1 300" style="enable-background:new 0 0 296.1 300" xml:space="preserve"><style>.st2{fill:#ffe500;stroke:#000;stroke-width:2.1;stroke-miterlimit:3.9}.st3{fill:#da020e}.st4{fill:#ffe500}.st23{fill:#1d1d1b}</style><filter id="h"><feGaussianBlur stdDeviation="3.1"/></filter><path d="M162.6 285c-1 3.3-5 11.8-14 11.8-10.2 0-13.8-11-14-11.6l-.3-1s9 .7 13.8.7c5 0 13.3-.6 14.6-1v1l-.1.1z"/><path d="m189.6 279.4 2 .3c-2.4 6.5-7 14-15.8 14-8.6 0-13-5-14.7-8.4l-1.4-1s15-.4 30-5m-81.7.1-2 .3c2.4 6.5 7 14 16 14 8.5 0 13-5.4 15-8.4l1-1s-14.8-.4-30-5"/><radialGradient id="SVGID_1_" cx="541.541" cy="-469.668" r="11.7" gradientTransform="matrix(.85 0 0 -.63 -311.78 -7.29)" gradientUnits="userSpaceOnUse"><stop offset="0" style="stop-color:#ffe500"/><stop offset=".5" style="stop-color:#ffe500"/><stop offset="1" style="stop-color:#e15007"/></radialGradient><path d="M155.8 285.6c-1.4 2-2.3 2-4 2-.8 0-2 .6-2 2 0 1 .8 1.7 2.2 1.7 3 0 5.4-4.3 6-6 0 0 1.8 0 2.3-.2 0 0-3.2 9.7-11.6 9.7-8.3 0-11.7-9.5-11.7-9.5s7 .5 11 .5h7.8" style="fill:url(#SVGID_1_)"/><radialGradient id="SVGID_2_" cx="509.539" cy="-365.647" r="12.2" gradientTransform="matrix(.86 0 0 -.77 -315.3 4.63)" gradientUnits="userSpaceOnUse"><stop offset="0" style="stop-color:#ffe500"/><stop offset=".5" style="stop-color:#ffe500"/><stop offset="1" style="stop-color:#e15007"/></radialGradient><path d="M109 281.4c5.6 1.4 9.5 2.6 18.6 3.7 0 0-.3 1-2.3 1-.7 0-.8-.3-1-.3-.7 0-1.5.5-1.5 1.5 0 .7.7 1.6 2.7 1.6s4.4-1.7 5.6-3.3l2.6.4s-4 5.4-11.6 5.4c-8.4 0-11.6-7.6-13-10" style="fill:url(#SVGID_2_)"/><path class="st2" d="M148 236.4c29 0 61.4-18 84-43.7 2.5-2.8 6.7-8 16.5-8 10 0 23 9 21.4 25.3-1.2 12-18.2 38.8-47.4 55.3-29 16.6-56 20.2-74.6 20.2-18.7 0-45.5-3.6-74.7-20.2C44.3 248.8 27 222 26 210c-1.5-16.4 11.6-25.4 21.4-25.4 10 0 14 5.3 16.5 8 22.5 26 54.8 43.8 84 43.8h.1z"/><path class="st3" d="M147.7 240.4c-29.3 0-62.7-17.3-87.2-45.3-2.5-2.8-5.7-6.4-13.3-6.4-4.4 0-9.4 2.3-12.8 6-2.5 2.7-5.3 7.5-4.6 15 1 10 17 36 45.3 52 23 13 47.4 19.7 72.7 19.7 25.4 0 49.8-6.6 72.7-19.6 28.4-16 44.3-42.2 45.3-52.2.7-7.4-2.2-12.2-4.6-15-3.3-3.6-8.3-6-12.7-6-7.6 0-10.8 3.7-13.3 6.6-24.5 28-58 45.4-87.3 45.4l-.2-.2z"/><path d="M274 94.4v-6.8c2 1.6 6 1.6 8.3-.8 1-1 1.6-3 1.6-4.7-.2-2-1-4-2.7-5.4-8.5-8.4-16-16.7-16-16.7-.8-1.3-2-2.2-2.7-2.5-1-.5-4.8-2.2-7.6 2-2.5 4-2.2 9.5-1.7 11.5l8 10.8c2.7 3.5 10.4 11 12.6 12.6M103.4 24c10-3.4 19.2-6.2 31.6-7.3l1.8-1c-7-5.5-13.7-9.3-20.6-9.3-4.2 0-13 3-15 18.4l2.2-1v.2zm89.2 0c-10-3.4-19.2-6.2-31.6-7.3l-2-1c7-5.5 14-9.3 20.7-9.3 4.3 0 13 3 15 18.4l-2-1-.1.2z"/><path d="M136.6 16.2C141.6 6.4 146.3 3 149 3c3 0 6.8 5 9.8 11.6l.6 1.5h-2.6c-1.7-.5-6.5-.5-8.4-.5-2 0-6 0-8.5.2l-3.3.4z"/><path class="st4" d="m96.8 235-7.3 13.3c-2.2 4-4.5 6.5-8.2 4.3-3.7-2-3-5-.6-9.2l7.3-13.2-6-3.3-7.6 14c-4.3 7.6 1 12.4 5.3 14.7 4.5 2.5 11 4.3 15.2-3.3l7.7-14-6-3.4.2.1zm94 27.3-2.4-7.6 7.3-2.4-1-3-7.3 2.2-2-6.4 7.4-2.4-1-3L178 244l7.7 23.4 15-5-1-3-8.8 3-.1-.1zm15.8-30.4-8.4 4.7 12.4 21.5 8.3-4.8c8.5-5 9.4-12.5 6-18.6-4-7-11-7.3-18.4-3m12.6 6.6c3.2 5.5 2.5 9.5-2.3 12.3l-2.4 1.3-9-15.7 2.4-1.4c5.8-3.5 9-.5 11.2 3.4m-67 10 .5 3.3 7-1 3 21.3 6.3-1-3-21.2 7-1-.6-3.2-20.2 3v-.2zm-5.8.3-6.5-.4-1.4 24.7 6.5.4 1.4-24.7zm-19.7-3-4.5 16.8-8.4-20.3-5.3-1.4-6.4 24 5.8 1.4 4.6-17 8.5 20.5 5 1.4 6.5-23.8-5.8-1.6zM92.6 89.8v115.8l55.4 35.6 55.3-35.6V90c-1.7-1.6-5.3-5-8.2-6.8h-94.4c-2.4 1.7-7.2 5.7-8 6.6h-.1z"/><defs><path id="SVGID_3_" d="M92.6 89.8v115.8l55.3 35.6 55.3-35.6V90c-1.7-1.6-5.4-5-8.3-6.8h-94.4c-2.3 1.7-7.1 5.7-7.9 6.6z"/></defs><clipPath id="SVGID_4_"><use xlink:href="#SVGID_3_" style="overflow:visible"/></clipPath><g style="clip-path:url(#SVGID_4_);filter:url(#h)"><path style="fill:none;stroke:#b54005;stroke-width:10;stroke-miterlimit:3.9" d="M92.6 42.8v162.8l55.3 35.6 55.3-35.6V43"/></g><linearGradient id="SVGID_5_" gradientUnits="userSpaceOnUse" x1="476.248" y1="-101.8" x2="476.248" y2="-156.9" gradientTransform="matrix(1 0 0 -1 -330.95 24.99)"><stop offset="0" style="stop-color:#8f0904"/><stop offset=".2" style="stop-color:#b40509"/><stop offset="1" style="stop-color:#da020e"/></linearGradient><path d="M170 173v-4.4s-1-1.8-4-1.8c-2.8 0-4.4 1-4.4 1.6 0 1.2 2.5 4.5 8.4 4.6m-22.2-38.3 4.3-7.5 3.4 7.5h5.5c-3.4 3-4.8 8-4.8 11v3.5c0 1.5-.7 4-.7 4l5.5 4.2c.3.2.7.4.5 1-.4 1-3.7 2.6-4 3-.8.5-1 1-.8 1.6.3.7 1 .8 2 .4 1.4-.5 4-1.8 6.2-2.8 2-1 5-.7 5-.7v-4.3h-8.2v-13.4l-1.5-2.4 3.6-6.6 3.6 6.6-1.4 2.3v7h4.2v-7L169 140l3.6-6.5 3.7 6.5-1.5 2.3v7h4.3v-7l-1.4-2.3 3.7-6.5 3.6 6.5-1.5 2.3v13.4h-8.3v6.2c2 1.6 3.7 5.7 3.7 8 0 2.5-1.7 3.5-1.7 3.5.5 2 .4 2.7.2 4.4-.2 1.7-2.4 4.4-2.4 4.4v32c0 2.2-5 2-5 0V183c-2.8-3.2-10.5-5.6-10.5-5.6-3 2.8-4.6 7.8-4.6 7.8 1 .8 3 0 3.7-1 .8-.7 2.2-1 3-.4 1 .5 1 .7.8 2-.3 1.3-.8 3.3-.8 4.8s1.6 1.2 3 1.3c2.4.3 2.8 3 2.6 4.7-.2 1.6-1 5-1 7s.2 4.2.4 5.4c.2 1.2.6 2.5.5 4 0 2-1.3 2.2-2.6 1l-18.8-20c-1 3.8 3.7 10.3 5.3 12.3 1.6 2 1.5 3.5.2 5-1.4 1.2-4 2-4.5 3.2-.6 1.2 1.2 5 5 9.8 3.6 4.7-4.3 7.8-9 8.8s-4.7-2.2-4.4-4c.3-1.8.3-3 .2-4.4 0-1.6-1.6-3.8-3.6-6.4s-2-5-1.2-11c.8-6.2.6-10 .6-10h-5c-3.2-.2-5.7-2-6-9.3 0-7.4-.3-25-.8-26.8s-2.4-2-3.3-2.4c-.8-.2-1-1.4 0-2 2.2-1 4.8-3.6 3.8-5.3-1-1.7-4.7-1.3-7.3 0-2.6 1.2-5.3 4-6 4.7s-1.3.7-1.2 0c0-1-.5-5-.8-6.3-.4-1.5-1.6-4.2-2-5-.5-.6 0-.8.6-.6.7.3 2.3 1 3.7 1.4 1.5.4 3-.3 3.6-1.7l2.7-5.6c.7-1.4 1.8-1 2.8-1 1 .3 1.8 1 2.6 1.2 1 .4 1.6.3 2 0 0-.5.5-.7 1-1.7s1-.7 1.2-.2c2.5 15 9 15.7 9 15.7-1 2.5-3.3 6.5-3.8 7.5-.6 1-.8 2.3-1 3.3 0 1 .4 11 1 14.6.8 3.6 3 2.2 3.7 1 .7-1 3-5.7 3-5.7s.4-1.2.4-2.3c0-1-1.7-3.3-2-4-.5-.8-2-2-2-5.6 0-3.5 3-6 4.2-7 1-.8 1-2 1-2.8-.5-2.7-3.4-8.4-4.8-10.6-1.4-2-4-6.3-4-6.3h5.6l3.6-7.5 4 7.6h4v.1zm-1 23c2-3 2.7-6.3 2.7-6.3H144s1 3.3 2.8 6.3m-5.6-15.5c.3 1.6 1.4 2.2 2.3 1.8 1-.4.7-1.7 0-2.7-.5-1-1.8-2-2.2-2-.4.2-.2 2-.1 2.9m10.6-2.9c-.3 0-1.7 1-2.4 2-.6 1-.8 2.3 0 2.8 1 .5 2 0 2.4-1.7.2-1 .5-2.8 0-3.1" style="fill:url(#SVGID_5_)"/><path class="st3" d="M97 118.7v7h102v-7h-7.4v1h-87v-1H97zm0-31.3h102V115H97V87.4z"/><path class="st4" d="m114.5 107 7.8 2 4.3-11.8v-3L114.5 107zm64.5 7v-3.6h-7.4v-3h6V93.8H172l-1.8-3.8-2 3.7h-5.5V107h6v3h-14.4v-3h6V94h-5.6l-1.7-4-2 3.7h-5.6V107h6v3h-14.7v-3h6V94H137l-1.7-3.8-2 3.7H128v13.3h6v3h-11.6l-11.7-2.6 2.3 6.3 66 .1z"/><radialGradient id="SVGID_6_" cx="534.15" cy="-88.036" r="14.7" gradientTransform="matrix(.8 0 0 -.78 -317.35 -51)" gradientUnits="userSpaceOnUse"><stop offset="0" style="stop-color:#ffe500"/><stop offset=".5" style="stop-color:#ffe500"/><stop offset="1" style="stop-color:#e15007"/></radialGradient><path d="M104 22.8c9.8-3.3 17.2-5.8 29.4-7-5.6-3.8-10.6-7-16.3-7-3 0-5.5 1-6 3.2-.6 2 1 2.7 1.4 2.6.6-.2 1-.3.8-.8 0-.6.3-2 2.2-2 2 0 2.7 1.8 2.7 3 0 1.3-2 3.3-5.5 3.3s-5.3-2.2-5.2-4.4c-1.7 2.5-2.7 5-3.4 9.2" style="fill:url(#SVGID_6_)"/><path d="m35.3 81.8 8-10.8c.4-2 .8-7.5-1.8-11.4-2.8-4.3-6.4-2.6-7.5-2-.7.2-2 1-2.7 2.4 0 0-7.7 8.4-16.2 16.8-1 1.2-2.4 3.3-2.5 5.3 0 2 .6 3.7 1.7 4.8 2.3 2.5 6.3 2.4 8.4.8v6.8c2.3-1.7 10-9 12.7-12.6"/><path class="st2" d="M148 66c45.6 0 71.5 42.8 77 50.3 10.2 13.4 22.5 24.3 36.8 20.7 21-5.3 19.8-36.4 19.8-36.4-5-3.6-13.6-8.2-29.3-30.5C237 48.4 202 16 148 16S59 48.3 43.7 70C28 92.5 19.4 97 14.4 100.7c0 0-1.2 31 19.8 36.4 14.2 3.6 26.5-7.3 36.6-20.7C76.5 108.8 102.4 66 148 66z"/><path class="st3" d="M148 62c44 0 70 37.2 79.5 50.7 12.5 16.7 23 23 33.3 20.4 14.7-3.7 16.5-24 16.7-30v-.3h-.2c-5-3.7-13.8-9.6-28.4-30.2C240.2 60.2 207.3 20 148 20S55.7 60.2 47 72.5c-14.4 20.4-23.5 26.7-28.3 30l-.2.2v.2c.2 6 2 26.4 16.7 30 10.2 2.7 20.8-3.6 33.3-20.3C78 99.2 104 62 148 62"/><path class="st4" d="M124 30.8c-8 1.7-13.3 7.7-11.5 15.7 1 4.4 5 12.4 17 9.8 3.6-.7 5.4-2 7.2-3.7l-2.3-2.6c-.8 1-2 2.3-5 3-5.8 1-9.4-3.7-10.2-7.8-1.3-6.2 2.2-10.4 6.3-11.3 3-.7 4.6 0 5.7.5l.8-3.2c-2-.7-4.3-1.3-8-.4m67.5 35.4c4.6 2.8 9.7 2.3 12-1.6 1.7-2.7 1.8-5-.3-9-.5-1.2-1.2-2-1.7-3-1-1.8-1.7-3.2-1-4.5 1-1.4 3-1.5 4.7-.4 2 1.2 2.7 3 3 4.3l3-1c-.8-2.6-2.2-4.8-5.3-6.6-5.4-3.2-9.7-2.4-11.5.6s-1.3 5.5 0 8c0 0 1 1.5 1.4 2.5 1 2 2.5 4.6 1.6 6-1.2 2-3.3 2.5-5.3 1.3-2.5-1.6-3-3.5-3.6-5.3l-3.3 1.4c.7 2.4 2.4 5 6 7.3m-35-36.8-.3 10h-9.5V29.3H140l-.3 24.6h6.5l.2-11.3 9.7.2V54h6.4l.4-24.6h-6.7zm93 78.5s3.7 2 8-1.8c3.4-3.2 2.2-7.5-1.4-11.5l-6.7-7.5-18.4 16.5 4.2 4.8 7.3-6.5 2.2 2.4-4.7 10.4 5.6 4.4 3.7-11.2h.2zm3.2-12.2c1.7 2 1.8 4.2-.2 6-2 1.7-4.5 1.3-6.4-.7l-1-1.2 6.2-5.6 1.4 1.6v-.1zM224 89.5l6-5 5 5.8 2.6-2.2-5-5.8 5.2-4.3 5 6 2.6-2.2-9.2-11-19 15.8 10.3 12.2 2.5-2-6-7.3zm-7-37-2.3 2.3 5 4.7-14.2 16 4.8 4.3 14.4-16 5 4.6L232 66l-15-13.5zm-42.4 1.4 2.6-7.6 7.3 2.5 1-3.2-7.3-2.5 2.3-6.5 7.5 2.6 1-3-13.6-4.8-8 23.4 15 5 1-3-8.8-2.9zM96.3 41.7l9.3 14.8L85 49l-4.7 2.8 13 21 5-3-9.2-15 21 7.7 4.5-3-13-21-5.2 3.3-.1-.1zm-29 22.4-4 4.5L75 92.3l3-3-3.3-6.4 5.7-6.2 6.5 2.7 4.7-5-24.3-10.3zm10 11.2L73.2 80l-4.3-8.5 8.7 4-.3-.2zM53.6 79 49 84.7l8.5 17.8-18.5-6-4 4.6 19 16 3-3.5-13.5-11.2 18 5.8 1.8-2-8.5-17.3L68.2 100l4.2-5-19-16h.2z"/><radialGradient id="SVGID_7_" cx="-52.601" cy="56.536" r="8.5" gradientTransform="matrix(1.1 -1.9 -1.68 -.96 187.79 34.58)" gradientUnits="userSpaceOnUse"><stop offset="0" style="stop-color:#ffe500"/><stop offset=".5" style="stop-color:#ffe500"/><stop offset="1" style="stop-color:#e15007"/></radialGradient><path d="M24.5 91.7v-5.4c9.3-8.6 13.7-17 13.7-17s-3.5-1.4-5-3.4c-.8-1.2-1-2.6-1-3.6.4-2 1.8-2.8 2.3-3 1-.5 3-1.5 5.3 1.5 2.3 3.2 1.7 9.4 1.4 11 0 0-4.3 7.4-16.7 19.7" style="fill:url(#SVGID_7_)"/><linearGradient id="SVGID_8_" gradientUnits="userSpaceOnUse" x1="353.276" y1="-48.87" x2="357.877" y2="-53.87" gradientTransform="matrix(1 0 0 -1 -330.95 24.99)"><stop offset="0" style="stop-color:#ffe500"/><stop offset=".5" style="stop-color:#ffe500"/><stop offset="1" style="stop-color:#e15007"/></linearGradient><path d="M34.8 70.2c-1.3 2-4.4 7.4-12.4 15-1.4 1.2-4.7 2.2-6.6 0-.7-.7-1-1.8-1-3.2 0-1.5 1-3.3 2-4 1.5-1.5 8.4-8.4 13.3-14 .2 1 1 2.8 1 2.8.7 1 1.5 2.3 3.7 3.4" style="fill:url(#SVGID_8_)"/><linearGradient id="SVGID_9_" gradientUnits="userSpaceOnUse" x1="379.654" y1="-158.85" x2="411.054" y2="-194.95" gradientTransform="matrix(1 0 0 -1 -330.95 24.99)"><stop offset="0" style="stop-color:#740703"/><stop offset="1" style="stop-color:#da020e;stop-opacity:0"/></linearGradient><path d="M147.8 240.4c-29.3 0-62.7-17.3-87.3-45.3-2.5-2.8-5.7-6.4-13.2-6.4-4.5 0-9.5 2.3-12.8 6-2.5 2.7-5.3 7.5-4.7 15 1 10 17 36 45.3 52 23 13 47.4 19.7 72.7 19.7" style="fill:url(#SVGID_9_)"/><linearGradient id="SVGID_10_" gradientUnits="userSpaceOnUse" x1="-322.312" y1="-158.82" x2="-290.912" y2="-194.92" gradientTransform="rotate(180 -37.795 12.495)"><stop offset="0" style="stop-color:#740703"/><stop offset="1" style="stop-color:#da020e;stop-opacity:0"/></linearGradient><path d="M147.8 240.4c29.3 0 62.7-17.3 87.2-45.3 2.4-2.8 5.6-6.4 13.2-6.4 4.4 0 9.4 2.3 12.8 6 2.5 2.7 5.3 7.5 4.6 15-1 10-17 36-45.3 52-23 13-47.3 19.7-72.6 19.7" style="fill:url(#SVGID_10_)"/><linearGradient id="SVGID_11_" gradientUnits="userSpaceOnUse" x1="603.018" y1="-100.443" x2="585.918" y2="-84.443" gradientTransform="matrix(1 0 0 -1 -330.95 24.99)"><stop offset="0" style="stop-color:#740703"/><stop offset="1" style="stop-color:#da020e;stop-opacity:0"/></linearGradient><path d="M227.5 112.7c12.5 16.7 23 23 33.2 20.4 14.7-3.6 16.6-24 16.7-30v-.4c-5.3-3.6-14-9.5-28.5-30" style="fill:url(#SVGID_11_)"/><linearGradient id="SVGID_12_" gradientUnits="userSpaceOnUse" x1="-100.535" y1="-102.157" x2="-118.635" y2="-83.157" gradientTransform="rotate(180 -37.53 12.495)"><stop offset="0" style="stop-color:#740703"/><stop offset="1" style="stop-color:#da020e;stop-opacity:0"/></linearGradient><path d="M68.4 112.7c-12.5 16.7-23 23-33.2 20.4-14.7-3.6-16.6-24-16.8-30v-.2l.2-.2c5.2-3.6 14-9.5 28.4-30" style="fill:url(#SVGID_12_)"/><radialGradient id="SVGID_13_" cx="-343.35" cy="-88.036" r="14.7" gradientTransform="matrix(-.8 0 0 -.78 -88.66 -51)" gradientUnits="userSpaceOnUse"><stop offset="0" style="stop-color:#ffe500"/><stop offset=".5" style="stop-color:#ffe500"/><stop offset="1" style="stop-color:#e15007"/></radialGradient><path d="M192 22.8c-10-3.3-17.3-5.8-29.5-7 5.6-3.8 10.6-7 16.3-7 3 0 5.6 1 6.2 3.2.5 2-1 2.7-1.5 2.6-.6-.2-1-.3-.8-.8 0-.6-.3-2-2.2-2-2 0-2.7 1.8-2.7 3 0 1.3 2 3.3 5.6 3.3 3.5 0 5.3-2.2 5.2-4.4 1.7 2.5 2.7 5 3.4 9.2" style="fill:url(#SVGID_13_)"/><radialGradient id="SVGID_14_" cx="446.991" cy="30.119" r="8.3" gradientTransform="matrix(1.1 0 0 -1.05 -341.77 43.14)" gradientUnits="userSpaceOnUse"><stop offset="0" style="stop-color:#ffe500"/><stop offset=".5" style="stop-color:#ffe500"/><stop offset="1" style="stop-color:#e15007"/></radialGradient><path d="M148.4 10c-.3 1.8-2.5 3.6-4.7 3.6s-2.8-.4-2.8-.4c-.5.6-.8 1-1 1.5l8.4-.2 8 .4c-1.8-4.3-5.2-10-7.6-10h-.3c-.5 0-2.5 1.6-3.5 3-1.3 2 3.4 2 3.4 2l.1.1z" style="fill:url(#SVGID_14_)"/><radialGradient id="SVGID_15_" cx="-211.245" cy="370.52" r="8.5" gradientTransform="matrix(-1.1 -1.9 1.68 -.96 -593.8 34.58)" gradientUnits="userSpaceOnUse"><stop offset="0" style="stop-color:#ffe500"/><stop offset=".5" style="stop-color:#ffe500"/><stop offset="1" style="stop-color:#e15007"/></radialGradient><path d="M271.5 91.7v-5.4c-9.3-8.6-13.7-17-13.7-17s3.5-1.4 5-3.4c.7-1.2 1-2.6 1-3.6-.4-2-1.8-2.8-2.3-3-1-.5-3-1.5-5.3 1.5-2.3 3.2-1.6 9.4-1.3 11 0 0 4.3 7.4 16.7 19.7" style="fill:url(#SVGID_15_)"/><linearGradient id="SVGID_16_" gradientUnits="userSpaceOnUse" x1="-348.762" y1="-48.905" x2="-344.162" y2="-53.905" gradientTransform="rotate(180 -37.53 12.495)"><stop offset="0" style="stop-color:#ffe500"/><stop offset=".5" style="stop-color:#ffe500"/><stop offset="1" style="stop-color:#e15007"/></linearGradient><path d="M261 70.2c1.4 2 4.5 7.4 12.5 15 1.4 1.2 4.7 2.2 6.6 0 .8-.7 1.2-1.8 1.2-3.2 0-1.5-1-3.3-2-4-1.6-1.5-8.5-8.4-13.4-14 0 1-1 2.8-1 2.8-.6 1-1.5 2.3-3.7 3.4" style="fill:url(#SVGID_16_)"/><path d="M92.6 89.8v115.8l55.4 35.6 55.3-35.6V90c-1.7-1.6-5.3-5-8.2-6.8h-94.4c-2.4 1.7-7.2 5.7-8 6.6h-.1z" style="fill:none;stroke:#000;stroke-width:2.1;stroke-miterlimit:3.9"/><radialGradient id="SVGID_17_" cx="-306.74" cy="-365.647" r="12.2" gradientTransform="matrix(-.86 0 0 -.77 -88.95 4.63)" gradientUnits="userSpaceOnUse"><stop offset="0" style="stop-color:#ffe500"/><stop offset=".5" style="stop-color:#ffe500"/><stop offset="1" style="stop-color:#e15007"/></radialGradient><path d="M188.5 281.4c-5.4 1.4-9.3 2.6-18.5 3.7 0 0 .3 1 2.3 1 .8 0 1-.3 1-.3.7 0 1.6.5 1.5 1.5 0 .7-.7 1.6-2.7 1.6s-4.3-1.7-5.5-3.3c0 0-1.2.3-2.5.4 0 0 4 5.4 11.6 5.4 8.5 0 11.6-7.6 13-10" style="fill:url(#SVGID_17_)"/><path class="st2" d="M4.2 162.5c0-14 11.4-25.3 25.4-25.3s25.3 11.4 25.3 25.3c0 14-11.5 25.3-25.4 25.3-14 0-25.4-11.3-25.4-25.3h.1z"/><radialGradient id="SVGID_18_" cx="347" cy="-129.757" r="18.8" gradientTransform="matrix(1.04 0 0 -1.02 -331.56 27.62)" gradientUnits="userSpaceOnUse"><stop offset="0" style="stop-color:#da030e;stop-opacity:0"/><stop offset=".9" style="stop-color:#da020e;stop-opacity:0"/><stop offset="1" style="stop-color:#da020e"/></radialGradient><path d="M10 161.6c0-10.6 8.7-19.2 19.5-19.2S49 151 49 161.6s-8.7 19.2-19.5 19.2S10 172.2 10 161.6z" style="fill:url(#SVGID_18_)"/><path class="st3" d="M35 180c-1.2.3-1.7-.5-2.2-1-2-2.3-2.4-8.4-2.4-9.2s.3-1.6.8-1.7c4.8 0 8.2-1.3 11.3-4 3-2.5 4.4-5.4 4.7-6 .3-.5 1-.4 1 .4.2.7.4 2 .4 3.2 0 8.7-5.8 15.8-13.6 18.3m-5.1.7h-.5c-3.5 0-7.3-1.3-9.6-2.6-2.5-1.2-3.4-7.3-3.4-10.3 0-10 4-16 4.8-17 .6-1.3 2-1.5 3.2-1.2l2.8 1c.6 0 2 .4 3 .6 1 .3 2 .6 1.4 2.5-.6 2-2.8 6.4-3 11.8-.3 5 .4 9.8 1.5 12.8.7 2 .7 2.8-.4 2.7m-14.3-23c-1-.6-2-3-2.5-3.7-.2-.5-.2-2 0-2.6 1.7-2.7 4-5.2 6.8-6.6.3 0 .8 0 .8.8 0 .4.3 1 .3 1.6 0 .4 0 1.4-.5 2-.6.8-3.2 5.3-3.8 8 0 .4-.3 1-1.1.5m-.7 16c-2.7-2.7-4.6-7.4-4.6-12.4 0-2 .3-3.8.8-5.6 0 0 .5-.7 1 0l1 1.6c.4.6 2.4 2.2 2.3 3.5-.8 4.7 0 11 0 12 .3 1 0 1.5-.6 1m8.3-30.5c2-.6 4-1 6.2-1 3.3 0 6.5.6 9 2.3.8.4 1 1 1 1.7 0 2.5-4 3.4-6.5 3.4-2.6 0-5.8-1.2-8-2-2.4-.6-2.8-2-2.8-2.5 0-.6.4-1.8 1-2m17.8 2.8 1.3 1c1.8 1.7 3.4 3.6 4.4 6 1.2 2.7-2.5 7-3.6 8-4.8 4.7-8 4.6-9.7 5-1.7 0-2.8-1-2.8-2.3 0-3.8 2.8-10.4 3.6-11.7.6-.8 1.5-1.3 1.5-1.3 1.8-.5 3.6-1.3 4.5-2.3 1-1 1-2.4 1-2.4m-11.3-5c-11.8 0-21.3 9.5-21.3 21.2 0 11.8 9.5 21.3 21.3 21.3 11.7 0 21.3-9.5 21.3-21.3 0-11.7-9.6-21.3-21.3-21.3"/><path class="st2" d="M241.6 162.5c0-14 11.3-25.3 25.3-25.3s25.2 11.3 25.2 25.3-11.3 25.3-25.3 25.3-25.4-11.3-25.4-25.3h.2z"/><path class="st3" d="M281.8 174c-.6.4-1 0-.7-1s1-7.3.2-12c0-1.3 2-2.8 2.3-3.5l1-1.6c.5-.8 1 0 1 0 .5 1.7.8 3.6.8 5.5 0 5-2 9.7-4.5 12.4M280 157c-.6-2.5-3.2-7-3.8-7.8-.6-.7-.4-1.6-.4-2l.3-1.7c0-.8.6-.8 1-.6 2.8 1.4 5 4 6.6 6.7.3.6.3 2 0 2.5-.3.7-1.4 3-2.4 3.6s-1 0-1.2-.6m-3.2 20.8c-2.2 1.3-6 2.7-9.6 2.7h-.4c-1 0-1-.8-.4-2.7 1-3 1.8-7.8 1.5-12.7-.3-5.5-2.5-10-3.2-12-.6-1.8.5-2 1.5-2.2 1 0 2.4-.4 3-.7l2.8-.8c1.2-.3 2.7-.2 3.3 1 .7 1.2 4.8 7 4.8 17 0 3.2-.8 9.2-3.2 10.5m-15 2c-8-2.7-13.7-9.8-13.7-18.5 0-1.3.3-2.4.4-3 .2-1 .8-1 1-.5.3.6 1.7 3.5 4.8 6 3 2.6 6.5 4 11.3 4 .6 0 .8 1 .8 1.8s-.5 6.8-2.4 9c-.6.6-1 1.4-2.2 1m-12-26.6c1-2.2 2.6-4 4.4-5.7l1.3-1s0 1.3 1 2.3c1 1 2.6 1.8 4.5 2.3 0 0 .8.4 1.3 1.3 1 1.2 3.6 7.8 3.7 11.6 0 1.3-1 2.4-2.8 2-1.8 0-5 0-9.8-4.7-1-1-4.8-5.3-3.6-8.1m8-8.4c2.8-1.7 6-2.3 9.2-2.3 2.2 0 4.2.4 6.2 1 .7.3 1.2 1.4 1.2 2s-.5 2-2.8 2.6c-2.3.7-5.5 1.8-8 1.8-2.7 0-6.6-1-6.6-3.4 0-.7.2-1.3 1-1.7m8.8-3.5c-11.8 0-21.3 9.5-21.3 21.2 0 11.8 9.5 21.3 21.3 21.3 11.7 0 21.3-9.5 21.3-21.3 0-11.7-9.6-21.2-21.3-21.2"/><radialGradient id="SVGID_19_" cx="347" cy="-129.757" r="18.8" gradientTransform="matrix(1.04 0 0 -1.02 -93.91 27.53)" gradientUnits="userSpaceOnUse"><stop offset="0" style="stop-color:#da030e;stop-opacity:0"/><stop offset=".9" style="stop-color:#da020e;stop-opacity:0"/><stop offset="1" style="stop-color:#da020e"/></radialGradient><path d="M247.6 161.5c0-10.6 8.8-19.2 19.6-19.2 10.7 0 19.5 8.6 19.5 19.2s-8.8 19.2-19.5 19.2c-10.8 0-19.6-8.6-19.6-19.2z" style="fill:url(#SVGID_19_)"/><path class="st23" d="M229.6 283.4v5.3H228V277h4.2c2 0 4 .6 4 2.9 0 1.4-.8 2.5-2.2 2.8 1.4.3 1.6 1.1 1.8 2.4.2 1.2.3 2.4.7 3.5h-1.7c-.1-.7-.3-1.5-.4-2.1-.1-1-.1-2-.7-2.6-.5-.5-1.1-.5-1.8-.5h-2.3zm0-1.4h2.7c1.8-.1 2.2-.9 2.2-1.8s-.4-1.7-2.2-1.8h-2.7v3.6z"/><path class="st23" d="M223 282.9c0 4.9 4 9 9 9 4.9 0 9-4 9-9s-4-9-9-9c-5 .1-9 4.1-9 9zm1.2 0c0-4.3 3.5-7.8 7.8-7.8s7.8 3.5 7.8 7.8-3.5 7.8-7.8 7.8-7.8-3.5-7.8-7.8z"/></svg>