<svg version="1.1" id="Manchester_City" xmlns="http://www.w3.org/2000/svg" x="0" y="0" viewBox="0 0 1860 1860" style="enable-background:new 0 0 1860 1860" xml:space="preserve"><style>.st0{fill:#002a5a}.st1{fill:#fff}.st2{fill:#7ab2e1}.st6{fill:#fdca50}.st8{fill:#daa500}</style><path class="st0" d="M930 0C417.2 0 0 417.2 0 930s417.2 930 930 930c512.9 0 930-417.3 930-930 0-512.8-417.2-930-930-930"/><path class="st1" d="M1763.2 930c0-460.1-373-833.2-833.3-833.2-460.1 0-833.2 373-833.2 833.2 0 460.3 373.1 833.2 833.2 833.2 460.3 0 833.3-373 833.3-833.2"/><path class="st2" d="M1460.4 930c0-292.9-237.5-530.4-530.5-530.4-292.9 0-530.3 237.5-530.3 530.4 0 293 237.4 530.4 530.3 530.4 293 0 530.5-237.4 530.5-530.4"/><path class="st0" d="M929.9 1502.5c-315.6 0-572.4-256.9-572.4-572.5s256.8-572.4 572.4-572.4c315.7 0 572.5 256.8 572.5 572.4 0 315.6-256.8 572.5-572.5 572.5zm0-1112.9c-298 0-540.4 242.4-540.4 540.4s242.4 540.5 540.4 540.5c298.1 0 540.6-242.5 540.6-540.5S1228 389.6 929.9 389.6z"/><path class="st2" d="M929.9 1822c-491.7 0-891.8-400.2-891.8-892S438.2 38 929.9 38c491.9 0 891.9 400.2 891.9 891.9.1 491.9-400 892.1-891.9 892.1m0-1764.6c-481 0-872.4 391.5-872.4 872.6s391.4 872.6 872.4 872.6c481.2 0 872.6-391.4 872.6-872.6 0-481.1-391.4-872.6-872.6-872.6"/><path class="st2" d="m185.6 909.7-15.1 3.7-3.9-15.5 24.8-7.4h12.9v87h-18.7v-67.8zM226.2 953.8v-.3c0-10.4 4.8-16.6 14-20.8-6.7-4.1-11-9.6-11-18.9v-.2c0-13.3 12.1-23.7 30.4-23.7 18.3 0 30.4 10.4 30.4 23.7v.2c0 9.2-4.3 14.8-11 18.9 8.8 4.6 13.9 10.1 13.9 20.4v.2c0 16-14.2 25.4-33.3 25.4-19.2 0-33.4-9.9-33.4-24.9zm48.3-1.5v-.3c0-6.7-6.3-10.6-15-10.6-8.6 0-14.9 4-14.9 10.6v.2c0 6 5.6 10.8 14.9 10.8 9.4 0 15-4.7 15-10.7zm-2.6-36.4v-.2c0-5.3-4.6-10.1-12.4-10.1-7.8 0-12.3 4.7-12.3 10v.3c0 6 4.8 10.6 12.3 10.6 7.5-.2 12.4-4.6 12.4-10.6zM1597.2 942c-4.4 3.7-10.1 5.9-17.5 5.9-18.8 0-30.9-10.4-30.9-27.9v-.2c0-17.4 13.4-30.3 33-30.3 11.6 0 18.4 2.8 25 9.4 6.1 6.2 10.2 15.6 10.2 32.6v.2c0 28-13.2 47.2-37.7 47.2-12.6 0-21.1-4.2-28.4-10.3l10-14.4c6.3 5.1 11.6 7.4 18.9 7.4 13 0 16.7-12.2 17.4-19.6zm.4-22.7v-.2c0-7.7-5.7-13.2-15.2-13.2-9.4 0-14.7 5.4-14.7 13.1v.2c0 7.7 5.7 13 15.1 13 9.4-.1 14.8-5.5 14.8-12.9zM1677.7 958.8h-42.2l-3.1-13.4 47.4-55h16v53h11.6v15.4h-11.6v18.6h-18.1v-18.6zm0-15.4v-26.9l-23 26.9h23z"/><path class="st1" d="M930 1470.6c-298 0-540.5-242.5-540.5-540.6 0-298 242.5-540.5 540.5-540.5 298.1 0 540.6 242.5 540.6 540.5-.1 298-242.5 540.6-540.6 540.6m0-1061.1c-287 0-520.6 233.5-520.6 520.4 0 287 233.6 520.6 520.5 520.6 287.1 0 520.6-233.5 520.6-520.6.1-286.9-233.5-520.4-520.5-520.4"/><path d="M920 464.8c-266.8 0-420.7 35-420.7 35s-61.5 233.7-26.5 533.3c14.7 125.7 116.9 396.2 455.6 488.5 338.7-92.3 440.9-362.9 455.5-488.5 35-299.6-26.5-533.3-26.5-533.3s-153.9-35-420.7-35H920z" style="fill-rule:evenodd;clip-rule:evenodd;fill:#002a5a"/><path d="M1337.5 963.2c-3.1 90.9-17 362.6-409.1 511.9-388.9-145.1-409.2-426.2-409.2-511.9h818.3z" style="fill-rule:evenodd;clip-rule:evenodd;fill:#a6c8ea"/><path d="M1325.8 948.1c10.6-225-27.7-407.6-27.7-407.6s-146.2-27.9-369.3-27.9c-223.4 0-371.9 30.9-371.9 30.9S516.4 727 527.4 948.1h798.4z" style="fill-rule:evenodd;clip-rule:evenodd;fill:#fff"/><path class="st2" d="M940.6 1467.1 527 967.1c-15.1 103 68.6 406.8 413.6 500zM650.3 963.7l382.7 461.8c38.8-18.4 67-36.6 94.3-58.6L793.1 963.7H650.3zM916.1 964.1l282.7 341c27.8-31.5 51.3-59.7 67.9-89.9l-207.9-251.1H916.1zM1330.8 964.2l-141.3-.3 118.7 143.2c20.1-44.5 22.6-118.5 22.6-142.9z"/><path class="st0" d="M1095.6 1151.4c-1.1-3.3-3.7-5.9-7-7.1l-23.5-8.2c-2.1-.7-4.2-.6-6.3-.1-1.9-8.2-6.5-15.6-13.4-20.6-.8-.6-1.7-1.2-2.6-1.7-1.6-1.1-3.3-2-5.1-2.7-3.1-1.3-6.1-2.3-9.1-3.2-7-2.3-13.7-4.4-22.4-10.6-8-5.8-11.8-11.2-15.3-16.3-.9-1.3-1.7-2.5-2.6-3.6-2.4-3.6-5.3-6.8-8.8-9.4-6-4.3-13-6.5-20.4-6.5-1.6 0-3.2.3-4.8.6 0-.1.1-.2.1-.3.5-2.9-.2-5.9-2-8.4l-14.6-19.6c-2.1-2.8-5.4-4.5-8.9-4.5s-6.8 1.6-8.8 4.3l-15.2 19.7c-1.9 2.5-2.6 5.6-2.1 8.7-1.3-.1-2.4-.4-3.7-.4-7.4 0-14.4 2.2-20.4 6.5-.8.6-1.6 1.3-2.4 2-1.5 1.2-2.9 2.4-4.2 4-2.2 2.5-4.1 5.1-5.9 7.6-4.4 5.9-8.4 11.5-17.2 17.8-8.1 5.8-14.3 7.7-20.3 9.5-1.5.4-2.8.8-4.2 1.3-4.2 1-8.2 2.8-11.7 5.5-7.1 5-11.8 12.7-13.5 21.1-2.4-.9-5-1.1-7.5-.3l-23.3 7.8c-3.3 1.1-5.9 3.6-7.1 7v.1c-1 3.3-.5 6.9 1.4 9.7l14.2 20.4c1.6 2.3 4 3.8 6.7 4.3-3.8 7.9-4.5 17.1-1.7 25.4.3.9.7 1.9 1.1 2.9.6 1.8 1.4 3.5 2.6 5.3 1.7 2.8 3.6 5.4 5.4 7.8 4.4 5.9 8.5 11.5 11.8 21.7 3.1 9.4 2.9 15.9 2.7 22.1v4.4c-.3 4.4.2 8.6 1.6 12.7 2.7 8.3 8.4 15 15.6 19.1-.9 1.6-1.6 3.4-1.5 5.3l.1 24.4c.1 3.5 1.7 6.7 4.6 8.8l.1.1c2.8 2 6.4 2.6 9.7 1.6l23.9-7c2.1-.6 3.8-2.1 5.2-3.7 7.1 6.7 17.1 10.2 26.8 9.3 1.9 0 3.8-.3 5.8-.7 3.3-.8 6.3-1.7 9.3-2.7 7-2.2 13.7-4.4 24.4-4.4 10 0 16.1 2.2 22.1 4.2 1.4.5 2.8 1 4.1 1.4 4.1 1.6 8.4 2.4 12.8 2.4 8.8 0 17.3-3.5 23.7-9.5 1.4 1.6 2.9 2.9 5 3.6l23.5 7.3c3.3 1.1 7 .5 9.8-1.5v-.1c2.9-2 4.5-5.2 4.6-8.7l.6-24.7c.1-1.9-.6-3.8-1.5-5.4 7.2-4.1 13-10.7 15.6-19.1.4-1 .6-2 .9-3 .5-1.8.8-3.7 1-5.7.3-3.3.3-6.5.3-9.5 0-7.4 0-14.3 3.4-24.5 3-9.4 7-14.5 10.8-19.5.9-1.2 1.8-2.3 2.7-3.5 2.8-3.3 4.9-7.1 6.3-11.2 2.9-8.6 2-18.1-2.1-26.2 2.1-.8 4-1.9 5.3-3.7l14.3-19.9c1.7-3.1 2.3-6.7 1.2-10z"/><path class="st6" d="M915.7 1204.2c0-7.6 6.3-13.8 13.9-13.8 7.7 0 13.9 6.2 13.9 13.8 0 7.6-6.2 13.8-13.9 13.8s-13.9-6.2-13.9-13.8z"/><path d="M929.2 1087.1c-2.4-8.5-7.6-15.7-14.3-19.9l14.3-18.5 13.8 18.5c-6.8 4.8-11.5 11.5-13.8 19.9M818 1168.3c-7.3-4.8-12.4-11.3-14.8-19.2l-22 7.3 13.3 19.2c6.1-5 14.7-7.6 23.5-7.3m43.1 128.5c-6.9 5.4-14.7 8.2-23 8.1l.2 23 22.6-6.6c-3.1-7.3-2.9-16.2.2-24.5m136.4.3c3.1 8.2 3.3 16.4.6 24.1l22.1 6.9.6-23.3c-7.9.6-16.4-2.3-23.3-7.7m42-128.7c8.9-.4 16.8 1.9 23.4 6.8l13.5-18.7-22.2-7.8c-1.9 7.7-7.3 14.8-14.7 19.7m-138.4 129.2c-10.3 0-18.7-8.4-18.7-18.5 0-1.4-1.3-2-2.1-1-6.6 8.3-12 15.4-12.2 24.3-.2 12.9 10.6 23.3 23.6 23.3.8 0 1.6 0 2.4-.1 1.2 0 2.4-.1 3.9-.5 9.3-2.2 17.2-6.8 32.9-6.8 13 0 20.1 3.5 26.9 5.6 2.8 1.1 5.8 1.8 9 1.8 13 0 23.8-10.4 23.6-23.3-.2-8.9-5.6-16.1-12.2-24.3-.7-.8-1.7-.2-1.7 1 0 10.2-8.4 18.5-18.8 18.5-7.8 0-17.8-6.6-27.6-6.6-9 0-21.2 6.6-29 6.6zm-12.3-25.6c0 8.6 7 15.6 15.7 15.6.9.1 1.9 0 3.1-.3l1.2-.3c.2-.1.4-.1.6-.2 5.3-1.7 10.5-4.2 19.8-4.2 9.7 0 14.3 2.7 19.5 4 1.8.6 3.6 1 5.5 1 8.7 0 15.7-7 15.7-15.6 0-2.2-.5-4.4-1.3-6.3-.4-.8-.8-1.6-1.3-2.2 0 0-26.4-35.8-27.3-36.9-1.3-1.7-3-.9-4.2-.6-1.2.4-4.5 1.2-6.6 1.2-2.2 0-4.8-.4-6.5-1.2-1.7-.7-3.1-1.2-4.2.6-.9 1.5-19.9 27-25.9 35.3-2.4 2.8-3.8 6.3-3.8 10.1zm121.4-11.9c-3.2 9.8-13.7 15.1-23.5 12-1.4-.5-2.3.5-1.6 1.7 5.8 8.8 11 16.1 19.5 19 12.3 4.2 25.7-2.7 29.7-15 .2-.8.4-1.6.6-2.3.4-1.1.6-2.3.8-3.8.7-9.5-1.2-18.3 3.7-33.2 4-12.2 9.5-17.8 13.7-23.6 1.9-2.3 3.5-4.9 4.5-7.9 3.9-12.3-2.7-25.7-15.1-29.4-8.6-2.6-17.2.2-27.1 4-1 .4-.8 1.5.4 1.9 9.9 3.2 15.3 13.7 12.1 23.4-2.5 7.4-11.9 14.7-14.9 24-3 8.4-.4 21.9-2.8 29.2zm-28.3 3.8c8.2 2.6 17.1-1.9 19.8-9.9.4-.9.6-1.8.7-3.1v-1.9c.1-5.6-.8-11.2 2-20 3-9.2 7-12.7 9.9-17.1 1.1-1.4 2-3 2.6-4.8 2.7-8.2-1.9-16.9-10-19.6-2.2-.6-4.4-.8-6.5-.6-.9.1-1.7.2-2.5.4 0 0-42.5 13.8-43.8 14.3-2 .8-1.8 2.6-1.9 3.8 0 1.2-.2 4.6-.9 6.6s-1.9 4.4-3.2 5.8c-1.2 1.4-2.1 2.6-.7 4.1 1.2 1.4 19.7 27.2 25.9 35.3 1.9 3 4.9 5.5 8.6 6.7zm25.6-118.8c8.4 6 10.3 17.6 4.2 25.9-.8 1.1-.1 2.3 1.2 2 10.3-2.7 18.8-5.4 24.2-12.5 7.8-10.3 5.3-25-5.2-32.6-.7-.5-1.4-.9-2.1-1.3-.9-.7-2-1.3-3.5-1.9-8.8-3.6-17.9-4.5-30.7-13.7-10.6-7.5-14.1-14.5-18.5-20.3-1.5-2.5-3.6-4.7-6.2-6.6-10.5-7.5-25.5-5.4-32.9 5.2-5.1 7.3-5.1 16.3-4.5 26.7.1 1.1 1.3 1.2 1.9.2 6.1-8.3 17.8-10.1 26.2-4.1 6.3 4.5 10.5 15.7 18.4 21.5 7.4 5.2 21.2 6.9 27.5 11.5zm-5.2 27.8c5.1-6.9 3.6-16.6-3.5-21.6-.6-.6-1.5-1.2-2.7-1.6-.4-.2-.8-.3-1.2-.4-.2-.1-.4-.2-.6-.2-5.3-1.8-11.1-2.7-18.5-8.1-7.8-5.6-10-10.5-13.4-14.6-1-1.5-2.3-2.9-3.9-4-7-5-16.8-3.5-21.8 3.4-1.4 1.9-2.2 3.8-2.7 5.9-.2.8-.3 1.7-.4 2.6 0 0 .2 44.3.2 45.7.1 2.1 1.8 2.5 3 2.9 1.2.5 4.4 1.7 6.1 2.9 1.8 1.3 3.6 3.2 4.6 4.8.9 1.5 1.8 2.8 3.8 2 1.7-.7 32.2-10.3 41.9-13.5 3.6-1 6.9-3.1 9.1-6.2zm-105.7-60.5c8.4-6 20.1-4.2 26.2 4.1.8 1.1 2.1.8 2.2-.5.5-10.5.5-19.4-4.5-26.7-7.5-10.6-22.4-12.7-32.9-5.1-.7.5-1.4 1-2 1.5-.9.7-1.9 1.5-2.9 2.7-6.2 7.2-9.8 15.5-22.6 24.7-10.5 7.6-18.3 8.9-25.1 11.1-2.9.7-5.7 2-8.3 3.8-10.5 7.6-13 22.3-5.2 32.6 5.4 7.1 14 9.8 24.2 12.6 1 .2 1.5-.8.8-1.8-6.1-8.3-4.2-19.9 4.1-25.9 6.3-4.6 18.3-5 26.3-10.8 7.5-5.4 13.4-17.8 19.7-22.3zm25.2 13.4c-5.1-6.9-14.9-8.5-21.9-3.4-.8.5-1.6 1.1-2.3 2-.3.3-.5.7-.8 1-.2.2-.3.3-.4.5-3.4 4.5-6 9.5-13.5 15-7.8 5.6-13.1 6.1-18.1 8.1-1.8.5-3.5 1.3-5 2.4-7 5-8.6 14.8-3.5 21.7 1.3 1.8 3 3.2 4.9 4.3.7.5 1.5.8 2.3 1.1 0 0 42.6 13.6 43.9 14 2.1.6 3-1 3.8-2 .8-1 2.9-3.5 4.6-4.8 1.8-1.2 4.2-2.4 6-2.8 1.8-.5 3.2-.9 3-2.9-.2-1.8.1-33.5-.1-43.6.3-3.7-.7-7.4-2.9-10.6zm-90.7 81.3c-3.2-9.8 2.2-20.3 12-23.4 1.4-.4 1.5-1.8.2-2.3-9.9-3.7-18.5-6.6-27-4-12.5 3.7-19.2 17.1-15.1 29.4.2.7.5 1.5.9 2.2.4 1.1.9 2.3 1.6 3.5 5 8.1 11.8 14.2 16.7 29 4.1 12.3 2.8 20 2.9 27.1-.3 2.9.1 6 1 9 4.1 12.3 17.4 19.2 29.7 15 8.5-2.9 13.7-10.2 19.5-19 .6-.9-.3-1.6-1.4-1.3-9.8 3.2-20.4-2.1-23.6-11.9-2.4-7.4.9-18.8-2.1-28.1-2.8-8.5-12.9-17.9-15.3-25.2zm20.6-19.6c-8.2 2.7-12.7 11.4-10 19.6.2.9.6 1.8 1.2 2.8.2.3.5.7.8 1.1.1.2.2.3.3.5 3.3 4.5 7.3 8.6 10.2 17.4 3 9.1 1.8 14.3 2.1 19.6-.1 1.8.1 3.6.8 5.4 2.6 8.1 11.5 12.6 19.7 10 2.1-.7 4.1-1.9 5.6-3.3.7-.5 1.3-1.2 1.8-1.8 0 0 26.2-35.9 27-37.1 1.2-1.8 0-3.1-.7-4.2-.7-1-2.6-3.8-3.2-5.9-.7-2-1-4.7-.9-6.5.2-1.8.2-3.2-1.9-3.8-1.8-.4-32.1-10.4-41.9-13.4-3.3-1.3-7.1-1.5-10.9-.4z" style="fill:#e42313"/><path class="st6" d="m1060.2 724 95.7-33s-8.1 39.9-5.9 70.8c2.9 39.8 25.9 70.4 25.9 70.4L1058 873l2.2-149z"/><path class="st8" d="M1176 832.2s-21-30-24.6-65c-2.7-26.1-.1-48.9 4.5-76.3-4.2 18.2-19.6 69.7-62.7 117.2-17.4 19.2-25 36-28.3 47.5l-2-225.8-.1.1v-.1s-22.7 8-25 8.7c-2.8.7-3.9 2.6-4 3.4-.1 1.4-1.1 2.1-2.8 2.6-1.9.6-14.9 5.2-24.2 8.3-1.7.6-1 2.2.2 2.2 10.7-.5 26.3-1.7 27.9-1.8 2.1-.3 3.1-1.5 3.4-2.9 0-.2-.1.1 0-.2.3-1.7 1.9-3 3.7-3.1 1.2-.1 9.5-1 14.8-1.6l-2.3 242.9 10.9.1-.2-17.4 110.8-38.8z"/><path class="st6" d="M751.1 879.2s-17.8-13.3-22.5-38c-4.8-25.3 7.7-40.2 7.7-40.2l116.1-39.9s-7.2 23-.4 49.3c8.6 33.3 26.5 55.6 26.5 55.6s-42.6-8-83.8-2.8c-39.4 5-43.6 16-43.6 16zM617.4 850.1s14.4-39.4 57-82.7c32.1-32.6 53.3-42.3 53.3-42.3s-18.7 26.6-26.5 70.7c-4.9 27.3.5 61.7.5 61.7s-21.7-4.6-46.8-7.2c-21.1-2.1-37.5-.2-37.5-.2z"/><path class="st8" d="M727.6 725.2s-18.3 26.7-26 70.9c-4.8 27.3.5 61.6.5 61.6s-5.7-1.1-18-3.9c-52.1-11.9 43.5-128.6 43.5-128.6zM795.6 757.2l-1-104.5v-.1l-.2.1c-2.5.9-22.7 7.9-24.8 8.5-2.8.8-3.9 2.7-4 3.5-.1 1.4-1.1 2.1-2.8 2.6-1.8.6-14.9 5.2-24.2 8.4-1.7.6-1 2.3.2 2.2 10.7-.6 26.2-1.7 27.8-1.8 2.2-.2 3.2-1.5 3.5-2.9 0-.2-.1.1 0-.2.4-1.8 1.9-3 3.6-3.1 1.2-.1 9.1-1 14.4-1.6l-.7 89.2h8.2zM931.2 662.8h8l-.2-100.4s-22.8 8-25.1 8.6c-2.8.8-4 2.7-4 3.4-.1 1.4-1.1 2.1-2.8 2.7-1.9.5-14.9 5.2-24.3 8.3-1.7.6-1 2.3.2 2.2 10.7-.5 26.2-1.7 27.8-1.8 2.2-.2 3.2-1.5 3.4-2.9 0-.2-.1.1 0-.2.4-1.8 1.9-3 3.7-3.1 1.2-.1 8.8-1 14.1-1.5l-.8 84.7z"/><path class="st6" d="M910.6 585.7h.6c2.1-.2 3.1-1.5 3.4-2.9 0-.2-.1.1 0-.2.2-1.2 1.1-2.2 2.1-2.7l-2.9-8.8c-2.6.8-3.7 2.6-3.7 3.3-.1 1.2-.8 1.9-2.1 2.4l2.6 8.9zM766.1 675.9c.2-.1.4-.1.5-.1 2.2-.2 3.1-1.5 3.4-2.9.1-.1 0 .1 0-.2.3-1.2 1.1-2.2 2.1-2.7l-2.9-8.8c-2.6.7-3.6 2.6-3.7 3.3-.1 1.1-.8 1.8-2.1 2.4l2.7 9zM1034.1 653.3h.5c2.1-.2 3.1-1.5 3.4-2.9.1-.2 0 .1 0-.2.3-1.2 1.1-2.2 2.2-2.7l-2.9-8.8c-2.6.8-3.7 2.7-3.7 3.3 0 1.2-.8 1.9-2.1 2.4l2.6 8.9z"/><path class="st8" d="M878.2 866s-18.7-27.2-25.9-56.1c-6.2-24.8 0-48.6 0-48.6s-12.5 42.6-42 65.8c-20.7 16.2-70.7 31.3-59.2 52.2 1.6-2.8 6.8-8.4 27.5-13.1 2.5-.6 5-1.1 7.6-1.5l-.1 34.5H797l-.1-35.9c38.2-4.1 81.3 2.7 81.3 2.7z"/><path class="st6" d="M739 794s-13.5-8.1-12-34.7c1.6-27.3 15.3-39 15.5-39.8l90.3-31s-6.6 13.4-2 33.9c5.6 24.8 21.5 38.7 21.5 38.7s-45.3.6-86.2 14.7c-20 6.9-27.1 18.2-27.1 18.2z"/><path class="st8" d="M792.6 737c26.1-21.5 40.2-48.6 40.2-48.6s-3.7 17.4-.8 32.6c5 26.3 20.3 40.1 20.3 40.1s-36.6.6-76.5 11.7c-26.2 7.3-34.5 17.8-36.8 21.3-8.6-19.8 27.1-35.2 53.6-57.1z"/><path class="st6" d="M895.8 886.3s-24.8-18.8-30.9-53.5c-4.8-27.5 13.7-47.5 13.7-47.5l141.2-48.7s-7.7 31.4-.6 61.1c8.1 33.7 39 75.6 39 75.6s-58.8-16.9-109.5-10.6c-48.3 6.1-52.9 23.6-52.9 23.6zM866.8 662c-1-21.4 13.9-38.5 14.7-39.4L983 587.3s-6.6 16-5 29.6c3.1 26 17.8 39.7 17.8 39.7s-39.9-2.2-86.5 14.1c-26 9.1-28.5 21.4-28.5 21.4s-12.7-3.5-14-30.1z"/><path class="st8" d="M947.1 634.7c18.1-15.9 35.9-47.4 35.9-47.4s-6.6 16-5 29.6c3.1 26 17.8 39.7 17.8 39.7s-43-.5-84.5 14c-17.8 6.2-29 16.1-30.5 21.6-6.3-20.1 41.2-35.4 66.3-57.5z"/><path class="st6" d="M881.4 779.1s-14.7-16.9-17.4-42.9c-2.9-27.2 13.3-38.2 14.5-38.9l117.3-40.6s-3.2 8.5-.3 32.2c2.5 19.8 22.1 47 22.1 47s-62.4 1.6-101.3 16.6c-24.4 9.5-34.9 26.6-34.9 26.6z"/><path class="st8" d="M959.1 711.1c25.4-21.8 36.8-54.5 36.8-54.5s-3.2 18.6.2 33c6 25.5 23.9 46.9 23.9 46.9s-54.5.8-94.2 14.1c-25.8 8.6-41.8 23.9-44.2 28.4-5.4-21.7 52.1-46.1 77.5-67.9zM1060.6 875.1s-32-41.2-41.2-77.7c-6-24-1.6-51.4.4-60.8-3.4 12.8-16.5 54.3-47.6 82.9-29.8 27.5-88.9 41-76.3 66.9 2.2-4.3 9-14 33-20l-.5 33.3 11.3.1.1-35.6c52.2-8.2 120.8 10.9 120.8 10.9z"/><path d="M1115 952.8c7.4-1.4 14.8-3 25.7-5.8-.7-.4-1.2-.8-1.7-1.4-12-13.2-9.8-27.3-2.6-34.1 26.4-24.7 26-42.7 26-42.7s-64.2 13.2-148.5 17.6c-5.5.3-25.1 8.9-30.8 9.1-11.6.4-23.5.8-35.8.9-159.3 1.1-203.8-9.8-256.1-19.6-52.9-9.9-76.2-20.7-76.2-20.7l-2 5.7s41.8 16.1 71.9 30.9c6.3 3.1 31.2 40.5 39.5 53H534.9c-10.6-217 31.5-394.6 31.5-394.6s144.9-31 362.8-31l.1-23.2c-231.3.2-385.3 33-385.3 33s-67.3 237.1-31.6 519.4c14.9 117.7 112.3 337.9 416 439.9l13.3-18.6-13.3-18.4c-286-96-369.5-289.6-384.1-400.3-3.2-24.5-5.7-48.9-7.4-72.8h392.6v-33.2H728.1c4.3-14.6 18.7-18.1 36.1-13.9 18.3 4.3 36.2 9 53.4 8.1 43.1-2.1 36.8-13.8 40.7-13.5 44.3 2.7 61.1 13.6 99.9 12.9 35.3-.6 47.5-9.8 50.9-9.9 43.1-.4 59.4 19.3 102.7 23 1 0 2.1.1 3.2.2z" style="fill-rule:evenodd;clip-rule:evenodd;fill:#fdca50"/><path d="M1313 529.9S1159.7 497 928.3 497l.1 23.2c217.9 0 362.2 31 362.2 31s42 177.6 31.5 394.6h-189.9c-15.2-14.5-6.4-33.8-1.5-38.2 22.5-20 22.5-33.7 22.5-33.7s-51.3 12.8-135.7 16.5c-5.5.2-29.2 10.9-34.8 11-11.6.3-28.2.8-40.4.8-110-.1-163.8-2.1-259.3-22.5 1.8 2.3 2.6 3.2 4.4 5.7.5.7 41.8 11.4 42.4 12.1 6.2 8.5 14.5 14.5 24.5 19.8 15.3 8.1 38 15.1 57 16.3 43 2.6 35-13.5 38.9-13.6 44.2-.8 72.5 15.1 111.3 14.5 35.3-.6 36.5-11.6 39.8-11.8 34.8-2 70.4 13.3 100.8 23H928.4v33.2H1320c-1.7 23.9-4.2 48.3-7.4 72.8-14.6 110.8-98.3 304.3-384.3 400.3v37c303.7-102 401.3-322.2 416.2-439.9 35.8-282-31.5-519.2-31.5-519.2z" style="fill-rule:evenodd;clip-rule:evenodd;fill:#daa500"/><path class="st0" d="m218.9 632.1 16-30.2 71.6-5.2-36.3-62 15.9-30.3 127.7 67.2-14.7 27.9-83.3-43.8 35.6 64.6-.4.7-72.7 7.2 82.8 43.6-14.5 27.5zM364.9 405.3 385 384l148.1 54.6-22.8 24.1-32.6-12.5-41.8 44.4 14.5 31.8-22.2 23.6-63.3-144.7zm84.7 34-47.2-18.1 20.9 46 26.3-27.9zM479.3 300.3l25-15.2L608.2 326l-46.1-75.9 26.8-16.3 74.8 123.4-23.1 14L533.3 329l47.6 78.4-26.8 16.2zM672.9 275.3l-.2-.4c-11.4-39.4 9-80.3 51.6-92.6 26.1-7.5 44.3-3.4 60.8 5.6l-13 28c-13.5-6.6-26-9.4-39.9-5.4-23.4 6.7-34.6 31-27.8 54.8l.1.4c6.9 23.8 29 38.8 52.8 32 15.8-4.6 23.7-13.7 31.7-26.8l25.1 14c-9.8 19.3-22.9 33.4-49.7 41.2-40.6 11.7-80-11-91.5-50.8zM845.9 159.5l31.8-.8 1.4 57.1 58.5-1.5-1.4-57.1 31.7-.8 3.7 144.2-31.8.8-1.5-57.8-58.5 1.4 1.5 57.9-31.7.8zM1154.6 320.3l26.5-12.5c7.3 15.2 16.8 27.1 31.7 34 11.8 5.5 21.1 4.1 24.6-3.6l.1-.4c3.4-7.3.7-13.1-18.7-28.8-23.2-18.9-36.9-34.1-24.9-60.1l.1-.4c11-23.8 37.4-30.7 64.1-18.3 19.1 8.8 32.6 22.3 41 39.1l-25 14.8c-7.9-13.4-17.1-23.6-28.1-28.7-11-5.1-19.2-2.7-22.1 3.7l-.2.4c-3.9 8.6.3 14 20.3 30.3 23.4 19.2 33.9 35.7 23.4 58.5l-.2.4c-12 26-38.6 31.4-66.8 18.4-19.6-9.3-36.5-25.5-45.8-46.8zM1365.1 328.6l-34.9-26.6 17.7-23.3 95.1 72.5-17.8 23.3-34.9-26.6-69.7 91.5-25.3-19.3zM1593.2 533.5l29.6 58.9c8.2 16.4 10 31.4 5.8 44.2-3.6 10.8-11.8 19.7-23.9 25.9l-.4.2c-20.8 10.5-39.6 5.8-53.9-7.5l-30.2 54.6-16.7-33.2 27.4-48.4-11.2-22.3-41.2 20.7-14.3-28.4 129-64.7zm-33.9 88.5c7 13.8 18.3 18 29.2 12.5l.4-.2c12.1-6.1 14.2-17.7 7.2-31.5l-14.1-28.2-37 18.6 14.3 28.8zM1058.3 256.2l53.2 11.5 14.7-25.7-61.8-13.4 6.2-28.6 75.5 16.4 6-27.6-106.4-23.1-30.6 141 107.4 23.3 6-27.6-76.5-16.6zM1486.4 394l-110.6 92.7 70.6 84.2 21.6-18.1-50.3-60.1 23.3-19.4 35.4 42.2 28.7-9.8-42.5-50.6 22.5-18.8 49.6 59.3 21.6-18.2zM685.3 1623.9v-.4c0-41.8 31.4-76 76.6-76 27.7 0 44.3 9.2 57.9 22.7l-20.6 23.7c-11.3-10.3-22.9-16.6-37.6-16.6-24.8 0-42.6 20.6-42.6 45.8v.4c0 25.1 17.4 46.1 42.6 46.1 16.8 0 27.1-6.7 38.6-17.2l20.6 20.8c-15.1 16.1-31.9 26.2-60.2 26.2-43.2 0-75.3-33.3-75.3-75.5zM852.2 1550.1h32.3V1697h-32.3v-146.9zM959.7 1579.8H915V1550h121.7v29.8H992v117.1h-32.3v-117.1zM1106.9 1639l-56.4-88.9h37.7l35.1 58.9 35.6-58.9h36.8l-56.5 88.3v58.5h-32.3V1639z"/></svg>