<svg xmlns="http://www.w3.org/2000/svg" xmlns:xlink="http://www.w3.org/1999/xlink" width="193.1" height="201.4" style="enable-background:new 0 0 193.1 201.4" xml:space="preserve"><style>.st7,.st9{stroke:#000}.st7{fill-rule:evenodd;clip-rule:evenodd;fill:#fff}.st9{fill:none;stroke-width:0;stroke-miterlimit:3.8637}.st10,.st11,.st15,.st16,.st9{fill-rule:evenodd;clip-rule:evenodd}.st10{fill:none;stroke:#000;stroke-miterlimit:3.8637}.st11,.st15,.st16{fill:#fff}.st15,.st16{fill:#bcbec0}.st16{fill:#e11b22;stroke:#942923;stroke-width:.5;stroke-miterlimit:3.8637}</style><path d="M32.1 39.4 30.9 21c3.1-1.5 8.3-3.7 15.2-5.9 12.2-3.9 29.6-7.9 50.5-7.9s38.3 3.9 50.5 7.9c6.9 2.2 12.1 4.4 15.2 5.9l-1.4 21.2-3.5 54.7c-2.4 27.1-8.6 44.7-18.8 55.9-9.3 9-20.4 16.4-29.3 21.5-5.5 3.2-10 5.4-12.7 6.7-2.7-1.3-7.2-3.5-12.7-6.7-8.9-5.1-20-12.5-29.3-21.5-10.2-11.2-16.4-28.8-18.8-55.9l-3.7-57.5z" style="fill:#fff"/><path d="M32.1 39.4 30.9 21c3.1-1.5 8.3-3.7 15.2-5.9 12.2-3.9 29.6-7.9 50.5-7.9s38.3 3.9 50.5 7.9c6.9 2.2 12.1 4.4 15.2 5.9l-1.4 21.2-3.5 54.7c-2.4 27.1-8.6 44.7-18.8 55.9-9.3 9-20.4 16.4-29.3 21.5-5.5 3.2-10 5.4-12.7 6.7-2.7-1.3-7.2-3.5-12.7-6.7-8.9-5.1-20-12.5-29.3-21.5-10.2-11.2-16.4-28.8-18.8-55.9l-3.7-57.5z" style="fill:none;stroke:#bcbec0;stroke-width:2;stroke-miterlimit:3.8637"/><defs><path id="SVGID_1_" d="m32.4 44 3.4 53c2.4 27.1 8.6 44.7 18.8 55.9 9.3 9 20.4 16.4 29.3 21.5 5.5 3.2 10 5.4 12.7 6.7 2.7-1.3 7.2-3.5 12.7-6.7 8.9-5.1 20-12.5 29.3-21.5 10.2-11.2 16.4-28.8 18.8-55.9l3.4-53c-3.2-1.4-7.8-3.3-13.7-5.2-12.2-3.9-29.6-7.9-50.5-7.9s-38.3 3.9-50.5 7.9c-5.9 1.8-10.5 3.7-13.7 5.2zM147 15.1c-12.2-3.9-29.6-7.9-50.5-7.9S58.2 11.1 46 15.1c-6.8 2.2-12 4.4-15.1 5.9l1.4 21.2c3.2-1.4 7.9-3.4 13.8-5.3C58.3 33 75.7 29 96.6 29s38.3 3.9 50.5 7.9c6 1.9 10.7 3.8 13.8 5.3l1.4-21.2c-3.2-1.5-8.4-3.7-15.3-5.9zM96.6.9c43.4 0 72.3 16.3 72.3 16.3l-5.2 80.2c-2.4 27.7-8.9 47.1-20.6 59.8-19.7 19.2-46.5 30.8-46.5 30.8s-26.8-11.6-46.5-30.8c-11.7-12.7-18.2-32.1-20.6-59.8l-5.2-80.2S53.2.9 96.6.9z"/></defs><clipPath id="SVGID_2_"><use xlink:href="#SVGID_1_" style="overflow:visible"/></clipPath><g style="clip-path:url(#SVGID_2_)"><path style="fill:#942923" d="M9.7-12h173.2v211.4H9.7z"/><radialGradient id="SVGID_3_" cx="213.896" cy="214.203" r="187.63" gradientTransform="translate(.276 .47) scale(.4485)" gradientUnits="userSpaceOnUse"><stop offset="0" style="stop-color:#e11b22"/><stop offset=".73" style="stop-color:#e11b22"/><stop offset="1" style="stop-color:#942923"/></radialGradient><circle cx="96.2" cy="96.5" r="84.1" style="fill:url(#SVGID_3_)"/></g><linearGradient id="SVGID_4_" gradientUnits="userSpaceOnUse" x1="45.8" y1="90.705" x2="139.706" y2="90.705"><stop offset="0" style="stop-color:#942923"/><stop offset=".505" style="stop-color:#e11b22"/><stop offset="1" style="stop-color:#942923"/></linearGradient><path d="M63.6 77.4c-.3-.1-.5-.2-.2-1.7.2-.5 0-.9-.8-.9 0 0-.7.1-1.7.1-3.4 0-4.2-1.6-4.2-1.6s-.9-1.6.6-1.3c1.1.2 4.6-1.2 4.6-1.6 0-.6-1-.3-1.8-.3-.7-.1-1.8-.5-3.4-1.2-1.2-.4-2.1-.3-3.4.2 0 0-1.1 1.3-.6-.6.5-1.8 2.9-3.3 4.3-3.7.4-.1-.2-1.5-.7-1.4-.7.1-1.4.8-2.5.8 0 0-1.5-.1-2.1-.9-.2-.3-.2-.5-.3-.7-.3-.5-.5-.9-.4-1.3.1-.4.3-.6.5-.9.2-.3.5-.8.7-1 .6-.4 1.8 0 1.9-.3.3-1-2.5-.7-3.3-1-.4-.2-.6-.6-.9-.9-.2-.3-.5-.8-.6-1 0-.5 0-.9.3-1.7.5-1.9 1.8-3.1 2.4-3.1.7 0 1.5 0 2.3-.1.8-.1-.4-2.4.5-3 1.1-.7 2 .2 2.4.3.3.1.8.2 1.8.2.6 0 1.4.2 1.2 1 0 0-.2 2 .1 2.3.3.1 1-1 1.3-1.4.2-.4 1-.9 1.5-.1 0 0 .5.9 1.2 1.5 1 .7.3 1.6.3 1.6s-.9 1.3-2.6 1.2c-.3 0-.7.2-1 .7-.3.6-.3 5.3.8 6 1.3.8 3.9 1.6 6 2.7 2.3 1.3 3.1 2.4 4.2 3.9.9 1.1 4.2 1.3 4.7 1.7.2.2 0 2-4.7 4.7-4.8 2.3-6.4 1.7-6.8 1.9-.2.3-.8 1.2-1.6.9zm24.5-16.9c.9.3 1.9-1.3 1.9-1.3s-.4-.7-1.5-.7c-1.4.1-1.7.5-1.7.5s.1 1.1 1.3 1.5zM86 55.7c1.4-.6 2.3-.8 2.3-.8s-.3-.4-.9-.2c-1.1.4-1.4 1-1.4 1zm10.5-9.3s-1.1-.4-2.5 0c-1.4.5-1.8 1.1-1.7 1.2.1.3 1.1.2 1.9.2 1.4-.1 2.3-1.4 2.3-1.4zm-8.1 20.8c-2 .4-4.5 1-6.5 1.7-1.9.8-3.3 1.5-5.1 3.5-1.4 1.3-2.9 3.2-5.9 4.4-2.1.8-3.4 2.1-3.4 2.5 0 0-.3.7.2.4 0 0 .8-.6 2.3-.8 1.5-.1 2.8-.1 2.8-.1l.3.3s-1.8 1.2-2.9 2.9c-.9 1.4-1.5 2.8-1.5 4.6 0 .4.4 1.1.8.5 0 0 2-2.7 3-2.7.9 0 2.1.7 3.7.7 2.7 0 3.6-.2 3.6-.2l.1.4s-1 1-2 2.7c-.6 1.1-1.1 2.4-1.3 4 0 .7.3 1 .9.5 0 0 1.5-1.8 2.2-2.2.8-.4 2.2-.6 3.7-1.2 1.9-.6 3-1.4 3-1.4l.4.4s-.4 1.9-.2 3.2c.3 1.1.9 1.9.9 3.3 0 1.8-1.7 4.5-1.7 4.5v.6s2-.9 4.3-1.7c1.6-.6 3.3-2 4-3.3 1.1-2 1.6-2 1.6-2s.4.7.1 2c-.6 1.8-1.2 3.2-1.2 4.1 0 0 .2.1.5.3 1.9-2.6 3.9-2.6 6.2-5.6 3-4.3 2.4-9 2.4-9l.2-.2s.8.3 1.4.4c.8.1 1.6 0 2.5.2.9.3 1.2.9 1.3 1.5.1.6.2 1.9.6 3.4.1.6.5.7.9.3.4-.4 2.2-2.5 3.1-6.8.4-2 .1-3.3-1.1-4.9-.7-.9-2.4-2.4-3.7-4-.9-1.1-1.4-2.4-1.1-3.9.1-.7.6-.6 1.1-.4.3.2.6.2.6.2s1.6.3 3.1-.6c2.4-1.6 2.8-3.7 2.8-3.7s-.4-.3-1.3.2c-.3.2-.7.5-1.4.3-.5-.1-2.1-.9-2.1-2.4 0 0-.1-1.5-.5-3.7-.4-2.3-.7-3.3-.7-3.3s-.2-.7.3-.7c.7.1 1.9.1 2.6-.2 0 0 2.1-.8 3.1-3 .3-.6.8-1.7.4-2.3-.2-.3-1.3.5-2.4.7-.8.1-1.6 0-2.1-.7-.2-.4-.8-1-1.2-1.9-.4-1.1-.1-1.8-.1-1.8s1.9-.2 3.3-1.5c.7-.7 3.8-5.4 3.8-7 0-.2-.3-.6-1-.3 0 0-3.4 3.3-5.9 4.4-2.1.7-3.5-.8-3.5-.8s1.6-.9 3.4-2.2c1.2-.9 2.1-2 2.1-3.4 0-.5-.1-.9-.8-.4 0 0-2.5 1.5-4.3 2.1-3.2 1-5.4.9-5.4.9s.1-1 2.1-2c1.3-.6 2-.5 1.9-1.2-.1-.3-.4-.7-.9-.9 0 0-2.4-.9-5.1 1.6-2.3 2.4-3.1 4.2-3.1 4.2s-2.2.2-4.5 1c-3.5 1.3-4.5 2.3-4.9 2.6 0 0-1.3 1.2-2 1.5-1.2.4-2.1.3-3.4.3-1 0-2.4.1-2.9.4-.4.2-1 .5-1.7 1.7-.2.5-.2.8-.1.9.4.3 1 .6 1.3 1 .3.5.4 1.4 1.1 2.6.6.9 1.5 2.2 2.4 2.7.7.3 1.6.3 1.9.7 0 0-1.6 1.1-3.2.8-.9-.2-2.2-1-3.1-3.4-.5-1.3-1.3-2.2-2.3-2.5-.8-.1-2.1-.1-3.5.9-1 .8-1.4 1.2-1.8 1.7-.4.5-1 1.5-.8 2.1.2.4.7.9 1.6.9.6 0 1.3-.3 2.2-1 .5-.4 1.3-.7 1.8-.7.8.1 1.3 3.3 3.8 4.7 1.7.9 4 .7 4 .7s.6.3.6 1.2c0 .5.2 1.2.4 1.5-.1.7-.6 1.3-1.5 1.9-.4.3-.6.7-.6.7s.7.9 3 .4c1.3-.3 2.8-1.4 2.8-1.4s.3.2.1.7c-.1.2-.1.3.1.5.3.2.6.3 1.2.3.7 0 2.2-.8 3-1.5.3-.2.5.1.1.5.3.2-1.1 1.6-3.3 2.1zM56.7 47.4c.5.2.5.3.9.4.5.1.7.1.8 0 .2-.6.4-1.8 0-2.3-.8-.8-2.5-1-2.8-.6-.1.3 0 .6.3.9 1.1.6.8 1.6.8 1.6zM48 56.2c.8 0 .9-.4.9-.6.1-.3.1-.7.3-1.5 0-.2.3-.9-.6-.6-1.5.5-2.8 2.9-2.8 2.9s-.4.6.2.6c1.3-.3 1.7-.9 2-.8zm3.2 7.8c.3 0 .4-.2.3-.5-.1-.2-.4-.5-1-.6-.6 0-.8.4-.8.4-.1.2-.1.4-.1.7 0 .4-.2.6-.2 1.3 0 .4.4.6.7.2.4-.5.4-1.2.5-1.4.1-.1.3-.1.6-.1zm12.7-14.3c-.1.1 0 .3.2.7.2.3.9.8.9.8.4-.1.9-.5.8-1.1-.1-1.2-.3-1.7-.4-2-.1-.3-.5-.9-.9-.8-.1.1-.1.8-.1.8s.1.5 0 .9c-.2.3-.5.7-.5.7zm40.9 35.8s.6 2.6-1.3 6.6c-1.6 3.1-4.3 4.8-4.3 4.8s.4 1.7 1.8 2.3c2.2.8 4.3 4.9 4.3 6.5-.1 3.4-.4 4.2-1.4 6.9-1.1 2.6-1.7 5.7-1.7 6.9 0 2 1.9 4.3 1.9 6 0 2.6-.8 3.7-1.8 6.7-1.6 4.3-.3 6.6-.3 6.6.3.6.5.4.7 0 1.7-4.5 4.2-6.1 4.2-6.1.8-.6.8.1.6.8-.9 2.9-1.2 5.4-1.2 5.4l.5-.1c3.2-3.6 3.8-4.9 4.2-6.1.6-2.3.6-4.5.6-4.5s.3-1.3 2-1.1c1.7.3 2.8-.2 4.2-.9 1.7-1.2 2.9-2.5 2.9-2.5s.8-.7 1.8 0c1.7 1.6 1.7 3.9.8 5.7-1.3 2.4-2.4 2.8-3 2.8-.8 0-1.6-1.2-2.8-1.2-1.6 0-2.3 1-2.3 1.4 0 .9.7.9.8 1.6.3 1.6 1.1 2.9 1.1 2.9-.2.4-1.6 1.1-2 1.6-.3.4-.4 1.2-.4 1.2s-.3.5 1.1 1.2c1.1.5 1.2 1.6 2.4 2.5.9.6 1.7-.3 1.7-.3.9-1.2 1.1-2.1 1.1-2.1.2-.5.8-.3.8 0 .1.8.7 1.1 1 1.1 1.2.1 2-.6 2-.6s1 .1 1.7-.4c1.3-.8 1.8-1.7 1.8-1.7s.3-.6-.2-1.6c-.3-.4-.8-.7-.8-.7s.3-1 1.1-1c.9 0 1.8-.9 2.2-1.8.4-1.1.5-2.1.5-2.1.1-.3-.3-1.4.7-1.6 1.2-.3 1.7-.6 2.2-1.4.6-1.1.5-1.8.5-1.8-.1-.2-.5-.3-.5-.3-.3-.1-.2-.3-.1-.4 1-.9 2.6-2.4 2.8-3.4.1-.6 0-1-.5-1.5-2 1.1-3.2.9-3.3.6 0-.3 1.3-.9 1.3-.9 1.6-1 2.3-2.5 2.6-3.7.5-2.3.2-3.5.2-3.5h-.4c-1.8 3.2-4.6 4.3-4.6 4.3-.5.2-.6-.4-.4-.7 1.3-1.6 1.8-2.6 2-4.2.2-1.6.1-2.4-.4-3.7-.1-.3-.3-.2-.4 0-.8 1.8-1.2 2-2 3.3-1.1 1.5-2.4 2.1-2.9 1.8-.8-.7-.7-2.3-1.3-3-1-.9-2.5-.7-3.7-.1-.9.5-2.6 2.1-2.6 2.1l-.2-.2c.4-2.7-.5-4.9-.5-4.9l.3-.4c1.2-.1 2 .3 2 .3 2 .8 3.2.9 5.8.9 3.4 0 7.8-2.3 10-5.7 3.1-5.2 1.8-9.9 1.1-11.7-.9-2.1-1.5-2.8-1.8-3.1-.4-.3-.6-.1-.5.3.4 1.4.6 3.5.1 6.9-.1.7-.5.6-.8.2-.6-1.1-1.7-2.8-2.5-3.6-1.3-1.3-2.5-2.1-2.5-2.1-.6-.5-.4-1.2-.3-2 .6-2.6.3-4-.2-6.1-.6-2.2-2.9-4.7-3.9-5.3-.4-.3-.7 0-.4.4.6.7 1.1 2 1.2 4.4 0 1.6-.4 3-.4 3-1.2-.8-2.9-3.6-4-6.2-.9-1.9-1.3-4.5-.7-6.5.6-1.7 1.9-2.9 3-3.6 1.9-1.3 3.7-3.8 4.2-5.8.7-3.8-.9-4.3-.9-4.3-1.3 3.9-4.3 5.7-4.6 5.9-.4.2-.5.1-.4-.3.5-2 2-4.5 2-6.9 0-1.7-1.2-3-2.3-4.4-1.2-1.8-1.2-3.8.8-6.2 1.5-1.6 2.9-2.3 3.8-2.5.7-.2 1.2-.4 1-.8-.2-.5-.5-.5-1.2-.2-2.5.9-4.4 1.8-6.2 2.8-1.7.9-2 1-2.7 1.6-1.4 1.6-1.5 2.7-1.4 5.3.2 2.3 1.1 5.5 1.1 5.5l-.2.4s-1.7-1.3-3.4-1.6c-2.5-.3-2.5.5-2.5.5s3.8 3.8 4.4 6.6c.4 2.7.4 4.4.4 8.2 0 6.2.8 8.9 3.1 11.4 2 1.9 4.7 4.7 5 6.5.1.4 0 .5-.3.5-.8.2-1.1.3-1.9.5-.9.3-1.3.6-2.5.1-1.8-.8-2.7-2.6-3-3.5-.1-.6-.2-.9-.2-.9-.1-.8-.9-.8-.9-.1-.1 1.5-.1 2 .3 3.6.9 2.8 4.7 4.4 6.6 5 2.3.6 5.6.9 6.9 1.6 1.8 1.3 2.4 3.1 1.8 5.1-.9 1.8-2.3 2.3-4.1 2.6-2.6.3-3.6-.2-5.8-1.6-3.8-2.4-7.2-5.6-9.1-8.5-2.1-3.6-4.9-6.6-4.9-6.6l-2.7-3.4-.5.3zm26.6 49.9c-.7.4-.9 1.7-.6 2 .6.4 1.3.2 2.2-.2 1.6-.8 1.9-2.3 1.9-2.3.1-.9-.8-.3-1.2.1-.7.5-1.3.7-1.7.7-.4-.1-.6-.3-.6-.3zm-5.3 7c-1.3.3-1.8.5-1.6 1 .4 1.5 1.8 1.6 2.2 1.6 1.2 0 2.4-1.2 2.4-1.2.9-1.2-.2-.9-.5-.8-1.1.4-1.1.3-1.4.3-.4 0-1.1-.9-1.1-.9zm-9.2.8c-.4-.7-.6-.9-.9-1.1-.8-.6-1.1 0-1.3.2-.6 1.3-.6 1.9-.6 2.5 0 1.2 1 1.6 1 1.6.3.1 1 .1 1.2-.2.1-.3-.3-.5-.4-.9-.2-.7.4-1.2.4-1.2.6-.5.6-.9.6-.9zm-1.7-8.1c.3 0 .6-.3.2-.9-.3-.3-.8-.4-1.3-.2-.9.2-1.3.8-1.7 1.5-.7 1.2-.3 1.5 0 1.8.7.5 1.1.4 1.1.4s-.3-.8.2-1.3c.9-.7 1.1-1.1 1.1-1.1.1-.2.4-.2.4-.2zm-12.9-23.7c.1-.1 2.3-2 1.9-5.8-.7-4-2.4-4.9-2.4-4.9s-3.5 3.1-5.9 2.6c-3.1-.8-4.9-1.1-7.9-1.1-1.9 0-3.6 1.3-4.6 2.4-1.5 2-1.8 5.6-1.8 5.6s0 1.4-1.9 1.4c-1.5-.1-2.2.1-3 .3-1.6.5-2.3 1.7-2.5 2.3-.8 2.5.1 3.6.1 3.6.7-.7 1-1.6 1.9-2.5.9-.8 2-.6 2.5 0 .8 1 1.6 1.6 2.3 1.7 1.1.1 2.2-.4 3 .2.2 2.1.9 3.8.9 3.8s0 3-2.6 5.6c-1.6 1.5-2.6 1.9-3.9 1.9-1.2 0-1.7-1.5-2-2.3-.3-1-.9-1.9-1.9-1.7-1.2.3-2.1 1.1-2.2 2.3-1.8.5-2.6.9-2.9 1.6-.4.9.1 1.4.1 1.4s-2.2 1.5-2.2 2.6c0 1.8.9 3.4 2.2 3.4 1.4 0 2.2-1.5 3.4-1.4-.9.8-1.3 1.7-1.3 2.4 0 .6.6 1.2 2.2 2.2 1.3.6 3.1.8 3.8.1.6-.7.7-1.6 1.2-1.7.3.6 1.1 1.3 1.5 1.3 1.5 0 1.5-.3 3.3-.5 1.4-.2 2.8-.8 2.8-1.6s-1.6-1.4-1.6-2.3c0-.3.6-1.2 1.1-1.7.5-.7 1-.2 1-.2s.7 3.2 2.1 4.4c1.7 1.3 3.1 1.1 4.5-.5-3.3-.3-2-2.3-2-2.3s1.6 1.2 5.1 1.2c1.5 0 2.7-1.6 2.7-1.6v-.6s-1.7.3-2.5-1.1c-1-1.5-1.1-2.2-1.1-2.2-.2-.3.1-.4.3-.4 1-.1 1 .6 2.7-.5 1.5-1 1.7-2.5 1.7-2.5.1-.5-.2-.7-.3-.6-.9 1.2-1.7.9-2.4.5-1.1-.9-1.4-2-1.4-2s-.2-.8.6-1.1c2.3-.9 4.1-3.6 4.3-6.2 0-.1-.3-.2-.3-.2-.4.5-1.9 1.4-3 1.5-1.1 0-1.7-.6-1.9-1.2-.4-1.4 0-2 .5-2.7 1.7-2.2 3.6-2.7 5.8-2.9zM82.1 141s1.5 1 2.4 1.3c.8.3 1.1.1.8-.5 0 0-.5-.8-.7-1.7-.1-.4-.2-.5-.4-.6 0 0-.5-.3-1.2 0 0 0-.4.1-.9.5-.4.1-.4.6 0 1zm-10.4-.4c0 .3.4.7.6 1.3.2.5 1 .7 1.2.5.1-.2.5-1.3.4-2.4 0 0-.6-.2-.9-.5-.3-.3-.5-.3-.9-.4.1-.1-.4.1-.4 1.5zm-7-6.1c-.3 1 .7 1.9.7 1.9s.1-.5.8-.9c.6-.4.7-1 .7-1s-.1-.1-.1-.3c-.1-.5.2-1.1 0-1.5-.2-.3-.6-.2-.6-.2s-1.1.8-1.5 2zm4.8-10.1c-1 .4-2 1-2 1.2 0 .3.3.4.3.4s.4-.3 1.4 0c1 .3 1.4.1 1.4.1s.1-.4.8-.7c.7-.3.3-1.1.3-1.1s-1.1-.3-2.2.1zM60.4 90c-.2-1-.3-1.6-1.3-1.6-1.5 0-.8 1.1-3.1 2.1-3.2.9-2.2 2.8-2.2 2.8s-.9-.2-2 .4c-1 .6-2 3.3-.1 5.6.2.2 0 .4 1 .5.2 0 .3.2.1.5 0 0-1.5 1.8-.6 3.4.4.6 1.4 1.5 5.9 1.8 1.4.1 1.4-1.2 1.8-1.2.7 0 .5.7 2 .7 1 0 1.5-1.8 2.4-2.4 1-.6 2.2-.4 2.9-1.4.7-1.1-.6-2.1-.6-2.1s.5-.4 1.5-.1c0 0 2.7 3.2 4.8 3.2 2.9 0 4.7-1.3 4.7-1.3s1.4-.8.1-1c0 0-2.3-.2-3.2-1.3 0 0-.7-.9-.2-1.4.7-.6 1.1-.1 1.3.1.9 1.4 1.7 1.8 2.3 2.1.6.2 1.1.3 2.3.3.9 0 1.3-.5 1.3-.6-.9-.8-1.9-3.3-.6-5.3 1-1.4 2.7-.4 3 0 .4.4.8 1.2 1.9 1 .9-.2.4-3.5-.6-4.8 0 0-1.5-.4-4.1.6-1.7.7-3.8 2.9-4.5 2.8-.8-.3-1.5-2.4-.8-4 .6-1.2 2.2-2.9.4-3.6-2.6-1-5.7 1.5-6.8 2.5-1.3 1.1-2.5 2.8-6 4.5 0 0-3 1.3-3 .3.2-.8.1-1.8 0-3.1zm-6.8-1.6c-2.7.9-2 1.9-2 1.9s1.8-.4 2.6.3c0 0 2.5-.6 3.2-1.9.1 0-1-1.1-3.8-.3zm-5.8 8.9c-.8 1-.5 3-.4 3.4.1.4.3.9.7.2 0 0 1-1.9 2.5-2.4 0 0-.3-.7-.4-2.1 0-.1-1.2-.5-2.4.9zm7.6 10.5c1.4 2.1 3.1 1.3 3.1 1.3s-.8-1.3-.6-2.4c.1-.4.4-.3.4-.7 0 0-1.9 0-3.4-.4 0-.1-.5.4.5 2.2zm10.1-4.5c-1 .1-1.8 1.5-1.8 1.5 1.5 2.4 4 1 4 1s.2-.5-.1-.5c-.9-.2-1.1-.3-1.2-.4-.5-1.2-.9-1.6-.9-1.6z" style="fill-rule:evenodd;clip-rule:evenodd;fill:url(#SVGID_4_)"/><path d="M96.6.9c43.4 0 72.3 16.3 72.3 16.3l-5.2 80.2c-2.4 27.7-8.9 47.1-20.6 59.8-19.7 19.2-46.5 30.8-46.5 30.8s-26.8-11.6-46.5-30.8c-11.7-12.7-18.2-32.1-20.6-59.8l-5.2-80.2S53.2.9 96.6.9z" style="fill:none;stroke:#000;stroke-width:1.701;stroke-miterlimit:3.8637"/><path class="st7" d="m11.7 175-5.3-6.5s1.8-.6 3.7-2.1c2.3-1.8 3.9-4.1 3.1-5.8.7 1.5.9 2.9.9 4.6.4 5.1 2 8.7 2 8.7-1.7.5-3.2.9-4.4 1.1z"/><path d="m11.7 175-5.3-6.5s1.8-.6 3.7-2.1c2.3-1.8 3.9-4.1 3.1-5.8.7 1.5.9 2.9.9 4.6.4 5.1 2 8.7 2 8.7-1.7.5-3.2.9-4.4 1.1z" style="fill-rule:evenodd;clip-rule:evenodd;fill:#fff;stroke:#000;stroke-miterlimit:3.8637"/><path class="st9" d="M180 160.6c-.7 1.5-.9 2.9-.9 4.6-.4 5.1-2 8.7-2 8.7"/><path class="st11" d="M177.1 173.9c1.7.5 3.1.8 4.3 1l5.3-6.5s-1.8-.6-3.7-2.1c-2.1-1.6-3.7-3.6-3.4-5.2-.5 1.3-.7 2.5-.6 4-.2 5.2-1.9 8.8-1.9 8.8z"/><path class="st10" d="M177.1 173.9c1.7.5 3.1.8 4.3 1l5.3-6.5s-1.8-.6-3.7-2.1c-2.1-1.6-3.7-3.6-3.4-5.2-.5 1.3-.7 2.5-.6 4-.2 5.2-1.9 8.8-1.9 8.8z"/><path class="st11" d="m69.9 180.3 12.3-18.1s-.4-.7-4-.7c-11.9 0-23.6 6.1-32.6 11.9-19.8 13.3-26.6 15.2-31 15.3-2-.2-4.4-.2-6.4-4.4-.7-1.4-5.3-10.3-6.7-13.1h.1c.8 1.5 2 3.7 6.6 4.1 4.4-.1 12.9-1.1 32.7-14.4 9-5.7 20.6-11.9 32.6-11.9 3.6 0 4.7 1.9 4.7 1.9l5.9 10.5L71 180.6l-1.1-.3z"/><path class="st10" d="m70.8 180.7 13.1-19.2L78 151s-1.1-1.9-4.7-1.9c-11.9 0-23.6 6.1-32.6 11.9-19.8 13.2-28.3 14.2-32.7 14.3-4.6-.4-5.7-2.5-6.6-4.1"/><path class="st7" d="M129.5 164.2s-1.1.7-.7 1.2l4.9 6.1s1.2 1.3.9 3.3l-3.4 15.6s-.6 2.1-2.8 2.9c-5.2 2.4-18.2 7.5-31.8 7.5-13.8 0-26.9-5.3-32-7.6-2.2-1.2-2.6-3-2.6-3l-3.4-15.4c-.3-2 .9-3.3.9-3.3l4.9-6.1c.4-.5-.8-1.2-.8-1.2l1.5-.5s1.4.9.7 2.1l-4.2 5.7s-1.5 1.8-.1 3c0 0 14.2 13 35.1 13 20.9 0 35.1-13 35.1-13 1.4-1.2-.1-3-.1-3l-4.2-5.7c-.7-1.2.7-2.1.7-2.1l1.4.5z"/><path class="st9" d="M129.5 164.2s-1.1.7-.7 1.2l4.9 6.1s1.2 1.3.9 3.3l-3.4 15.6s-.6 2.1-2.8 2.9c-5.2 2.4-18.2 7.5-31.8 7.5-13.8 0-26.9-5.3-32-7.6-2.2-1.2-2.6-3-2.6-3l-3.4-15.4c-.3-2 .9-3.3.9-3.3l4.9-6.1c.4-.5-.8-1.2-.8-1.2l1.5-.5s1.4.9.7 2.1l-4.2 5.7s-1.5 1.8-.1 3c0 0 14.2 13 35.1 13 20.9 0 35.1-13 35.1-13 1.4-1.2-.1-3-.1-3l-4.2-5.7c-.7-1.2.7-2.1.7-2.1l1.4.5z"/><defs><path id="SVGID_5_" d="M65.1 163.7s1.4.9.7 2.1l-4.2 5.7s-1.5 1.8-.1 3c0 0 3 2.8 8.4 5.8l12.3-18.1s-.4-.7-4-.7c-4.5 0-8.9.9-13.1 2.2z"/></defs><defs><path id="SVGID_6_" d="M65.1 163.7s1.4.9.7 2.1l-4.2 5.7s-1.5 1.8-.1 3c0 0 3 2.8 8.4 5.8l12.3-18.1s-.4-.7-4-.7c-4.5 0-8.9.9-13.1 2.2z"/></defs><clipPath id="SVGID_7_"><use xlink:href="#SVGID_5_" style="overflow:visible"/></clipPath><clipPath id="SVGID_8_" style="clip-path:url(#SVGID_7_)"><use xlink:href="#SVGID_6_" style="overflow:visible"/></clipPath><linearGradient id="SVGID_9_" gradientUnits="userSpaceOnUse" x1="-6163.363" y1="-7468.604" x2="-6145.252" y2="-7468.604" gradientTransform="matrix(.4166 -1.1456 -1.2937 -.4705 -7027.51 -10394.757)"><stop offset="0" style="stop-color:#942923"/><stop offset=".505" style="stop-color:#e11b22"/><stop offset="1" style="stop-color:#942923"/></linearGradient><path style="clip-path:url(#SVGID_8_);fill:url(#SVGID_9_);stroke:#000" d="M66.6 156.3 59 177.1l15.9 5.7 7.5-20.7z"/><use xlink:href="#SVGID_5_" style="overflow:visible;fill-rule:evenodd;clip-rule:evenodd;fill:none;stroke:#000"/><use xlink:href="#SVGID_6_" style="overflow:visible;fill-rule:evenodd;clip-rule:evenodd;fill:none;stroke:#000"/><path class="st11" d="m122.4 180.7-13.1-19.2 5.9-10.5s1.1-1.9 4.7-1.9c11.9 0 23.6 6.1 32.6 11.9 19.8 13.3 28.3 14.2 32.7 14.4 4.6-.4 5.7-2.5 6.6-4.1-1.4 2.7-5.9 11.6-6.7 13.1-2 4.1-4.3 4.2-6.4 4.4-4.4-.1-11.2-2.1-31-15.3-9-5.7-20.6-11.9-32.6-11.9-3.6 0-4 .7-4 .7l12.3 18.1-1 .3z"/><path class="st10" d="m122.4 180.7-13.1-19.2 5.9-10.5s1.1-1.9 4.7-1.9c11.9 0 23.6 6.1 32.6 11.9 19.8 13.3 28.3 14.2 32.7 14.4 4.6-.4 5.7-2.5 6.6-4.1M69.9 180.3l12.3-18.1s-.4-.7-4-.7c-11.9 0-23.6 6.1-32.6 11.9-19.8 13.3-26.6 15.2-31 15.3-2-.2-4.4-.2-6.4-4.4-1-1.6-7.2-13.8-7.2-13.8-.5-1.2-1.1-2.9 1.3-5.9 4-4.3 9.9-5.7 11-3.8.8 1.7-.9 3.9-3.2 5.7-1.9 1.5-3.7 2.1-3.7 2.1l5.4 6.5"/><path class="st10" d="M123.3 180.3 111 162.2s.4-.7 4-.7c11.9 0 23.6 6.1 32.6 11.9 19.8 13.3 26.6 15.2 31 15.3 2-.2 4.4-.2 6.4-4.4.9-1.7 7.2-13.9 7.2-13.9.5-1.2 1.1-2.9-1.3-5.9-4-4.3-9.9-5.7-11-3.8-.8 1.7.9 3.9 3.2 5.7 1.9 1.5 3.7 2.1 3.7 2.1l-5.3 6.5"/><defs><path id="SVGID_10_" d="m1.4 171.2-.4-.7c-.5-1.2-1.1-2.9 1.3-5.9 4-4.3 9.9-5.7 11-3.8.8 1.7-.9 3.9-3.2 5.7-1.9 1.5-3.7 2.1-3.7 2.1l5.3 6.5c-1.5.3-2.7.3-3.7.4-4.6-.6-5.8-2.7-6.6-4.3z"/></defs><clipPath id="SVGID_11_"><use xlink:href="#SVGID_10_" style="overflow:visible"/></clipPath><linearGradient id="SVGID_12_" gradientUnits="userSpaceOnUse" x1="-2645.567" y1="-7749.362" x2="-2630.65" y2="-7749.362" gradientTransform="matrix(.935 -.5344 -.646 -1.1303 -2530.893 -10000.542)"><stop offset="0" style="stop-color:#942923"/><stop offset=".505" style="stop-color:#e11b22"/><stop offset="1" style="stop-color:#942923"/></linearGradient><path style="clip-path:url(#SVGID_11_);fill:url(#SVGID_12_);stroke:#000" d="M11.9 158-2 166l7.2 12.7 14-8z"/><use xlink:href="#SVGID_10_" style="overflow:visible;fill-rule:evenodd;clip-rule:evenodd;fill:none;stroke:#000"/><path class="st15" d="M96.5 198.9c-12.5 0-24.6-4.5-30.1-7 0 0-.2-.1-.2.4 0 .2.2.3.2.3 5.7 2.5 17.6 6.9 30.1 6.9s24.5-4.4 30.2-6.9c0 0 .2-.1.2-.3 0-.5-.2-.4-.2-.4-5.5 2.5-17.6 7-30.2 7zM78.4 160.3h-.2c-12.3 0-24.3 6.3-33.3 12.1-19.7 13.2-26.3 15-30.3 15.1h-.4s-.8-.1-.3-.7c.2 0 .5.1.8.1 3.8-.2 10.3-1.9 29.9-15 9-5.7 21-12.1 33.5-12.2.6-.1.7.6.3.6zM114.8 160.3h.2c12.3 0 24.3 6.3 33.3 12.1 19.7 13.2 26.3 15 30.3 15.1h.4s.8-.1.3-.7c-.2 0-.5.1-.8.1-3.8-.2-10.3-1.9-29.9-15-9-5.7-21-12.1-33.5-12.2-.7-.1-.7.6-.3.6z"/><path class="st16" d="M37 24.2c.2.3.6.6 1.1 1.2.5.5 1 1.1 1.6 1.6l1.7 1.7c.5.5.8.7.9.8.2-3 .3-5.4.3-7.2 1-.4 2-.7 2.9-1.1.1 0 .1-.1.2-.1.2-.1.3 0 .3.1s0 .2-.1.3c-.5.2-.8.5-.8.9s.2 1.3.7 2.7l1.2 3.5c.2.7.5 1.2.8 1.4.3.2.6.3 1 .2.2-.1.3 0 .4.1 0 .1 0 .1-.1.2l-1.8.6c-.6.2-1.3.5-2.3.9-.1 0-.2-.1-.2-.2s.1-.2.3-.3c.2-.1.4-.2.4-.4.1-.1.1-.3.1-.5s-.1-.6-.2-1l-1.1-3.2c-.6-1.6-.9-2.5-1-2.8-.2 3.4-.2 5.5-.3 6.4v2.1c0 .2 0 .4-.1.4s-.2-.1-.4-.3c-.6-.6-2.5-2.6-5.9-6 .4 1.2.9 2.7 1.6 4.7.4 1 .6 1.7.8 1.9.2.2.6.3 1.1.2.2 0 .3 0 .3.1s0 .2-.1.3h-.2c-.5.1-.9.3-1.1.3-.6.2-1.1.4-1.4.6-.1 0-.1.1-.1.1-.2.1-.3 0-.3-.1v-.2s.1-.1.3-.2c.4-.2.6-.5.7-.8 0-.3 0-.7-.2-1.2l-1.4-4c-.3-.9-.5-1.5-.7-1.8-.1-.3-.3-.5-.6-.6-.2-.1-.5-.1-1-.1-.2 0-.3 0-.3-.2 0-.1 0-.2.2-.3h.1c.4.1 1.4-.2 2.7-.7zM47.4 20.7c.2 0 .5-.1 1-.2.4-.1.7-.2.9-.2l2-.6c.2 0 .3 0 .3.1s0 .2-.2.3c-.3.1-.6.3-.6.4-.1.1-.1.4-.1.8s.3 1.2.6 2.6c.4 1.5.8 2.7 1.1 3.5.3.8.5 1.3.7 1.4.2.2.4.2.8.1.2-.1.3 0 .4.1 0 .2 0 .3-.3.4-.1 0-.2 0-.3.1-.9.2-1.4.3-1.7.4-.7.2-1.2.4-1.5.5-.2.1-.3.1-.4.1-.2 0-.3 0-.3-.1s0-.2.2-.3c.4-.2.6-.3.7-.6.1-.2 0-.7-.1-1.3-.2-.7-.4-1.7-.8-3.1-.4-1.5-.7-2.5-.9-2.9-.2-.5-.4-.8-.5-.9-.1-.1-.4-.1-.7 0-.2 0-.3 0-.3-.1-.2-.3-.1-.4 0-.5zM60 27.8c-.2 0-1 .2-2.4.5l-1.5.3-.9.2c-.2 0-.3.1-.4 0-.1 0-.1-.1-.1-.2s0-.2.2-.3c.4-.1.6-.2.8-.4.1-.2.2-.4.2-.8s-.2-1.1-.4-2.2-.4-2.1-.6-3c-.3-1.3-.5-2.1-.7-2.3-.2-.3-.5-.4-1-.3-.2 0-.3 0-.3-.2 0-.1 0-.2.2-.2.1 0 .4-.1.9-.1.6-.1.9-.1 1.2-.2l2.5-.6c.9-.2 1.7-.2 2.6 0 .9.2 1.6.6 2.3 1.3.7.7 1.1 1.5 1.3 2.5.2.7.2 1.5.1 2.2-.1.7-.4 1.3-.8 1.9-.4.6-.9 1-1.3 1.2-.6.4-1.2.6-1.9.7zm-.6-.4c.9-.2 1.6-.7 2-1.6.4-.8.4-1.9.1-3.2-.3-1.3-.9-2.4-1.7-3.1-.8-.7-1.7-1-2.8-.7-.4.1-.6.2-.7.2-.1.1-.1.1-.1.2s.1.6.3 1.6l.5 2.5c.1.6.3 1.4.5 2.3.2.7.3 1.1.4 1.4.1.2.3.4.5.5.3 0 .6 0 1-.1z"/><path class="st16" d="M69.9 25.9c-.2 0-1 .1-2.5.3l-1.5.2-.9.1h-.4c-.1 0-.1-.1-.1-.2s.1-.2.3-.3c.4-.1.6-.2.8-.3.2-.2.2-.4.2-.8s-.1-1.1-.2-2.2-.3-2.1-.4-3c-.2-1.3-.4-2.1-.6-2.4-.2-.3-.5-.4-.9-.3-.2 0-.3 0-.3-.2 0-.1 0-.2.2-.2.1 0 .4 0 .9-.1.6 0 1-.1 1.2-.1l2.6-.5c.9-.1 1.7-.1 2.6.1.9.2 1.6.7 2.2 1.4.6.7 1 1.6 1.1 2.6.1.8.1 1.5-.1 2.2-.2.7-.5 1.3-.9 1.8-.5.5-.9.9-1.4 1.1-.6.5-1.2.7-1.9.8zm-.5-.4c1-.2 1.7-.6 2.1-1.4.4-.8.6-1.9.3-3.2-.2-1.4-.7-2.4-1.4-3.2-.7-.8-1.7-1.1-2.8-.9-.4.1-.6.1-.7.2-.1.1-.1.1-.1.2s0 .6.2 1.7l.3 2.5c.1.6.2 1.4.3 2.3.1.7.2 1.1.3 1.4.1.2.2.4.5.5.2-.1.6-.1 1-.1z"/><path class="st16" d="M82.6 24.3c-1.2.1-2.9.2-5.4.5-.8.1-1.5.2-2.1.3h-.3c-.2 0-.3 0-.3-.2 0-.1 0-.1.1-.1 0 0 .2-.1.3-.1.3-.1.5-.2.6-.3l.3-.6c0-.3 0-1-.1-2.1s-.2-2.4-.4-3.9c-.1-.6-.2-1-.3-1.3-.1-.3-.3-.5-.4-.6-.2-.1-.4-.2-.7-.1-.2 0-.3-.1-.3-.2s.1-.2.3-.3l2.3-.2c.4 0 .8-.1 1.5-.2.2 0 .4-.1.5-.1.2 0 .3 0 .3.2 0 .1 0 .1-.1.2-.1 0-.2.1-.5.2s-.5.2-.6.3c-.1.1-.2.4-.2.7 0 .3 0 1 .2 2.1l.5 4.5c.1.7.2 1.1.3 1.2.1.1.3.2.6.1.8-.1 1.3-.2 1.7-.4.4-.2.7-.4 1-.8.3-.4.6-1 .9-1.8.1-.2.1-.3.2-.3s.2.1.2.2c.1.2.1 1.3-.1 3.1zM90.5 13.9c.2.8.4 1.5.6 2.3 0 .1-.1.2-.2.2s-.2-.1-.3-.2c-.5-.7-1-1.2-1.4-1.4-.4-.2-1-.3-1.7-.3-.4 0-.8.1-1.2.2v2.9c0 .2 0 .5.1.9h.5c.3 0 .6-.1.8-.2.2-.1.4-.3.6-.6.1-.3.2-.5.3-.6 0-.2.1-.2.2-.2s.2 0 .2.2v.1c0 .3 0 1.2.1 2.8 0 .2 0 .4.1.6v.1c0 .1-.1.2-.2.2s-.2-.1-.3-.4c-.1-.5-.3-.8-.7-1-.3-.2-.9-.3-1.6-.3 0 .8 0 1.4.1 1.6.1 1.1.1 1.8.2 2 0 .2.2.4.4.5.2.1.6.2 1 .1 1.8-.1 2.9-.8 3.4-2 .1-.2.2-.3.2-.3.1 0 .2 0 .2.2v.3l-.3 2.2-2.6.1c-.7 0-1.4 0-2 .1h-1.4c-.4 0-1 .1-1.7.2h-.2c-.2 0-.3-.1-.3-.2s.1-.2.3-.2c.4 0 .7-.2.9-.4.1-.3.2-.8.2-1.6l-.2-3.8c-.1-1.3-.1-2.1-.2-2.4 0-.3-.1-.5-.3-.6-.1-.1-.4-.2-.7-.2-.1 0-.2-.1-.2-.2s.1-.2.2-.2h1.7l5.4-.5zM97.7 14.1c.1-.1.1-.2.2-.3.1-.2.1-.2.2-.2s.2.1.2.3l.2 2v.2c0 .1-.1.2-.2.2s-.2 0-.2-.1c0 0-.1-.2-.2-.5-.2-.4-.5-.8-1-1.2-.5-.4-.9-.5-1.4-.5-.4 0-.8.1-1.1.4-.3.3-.4.6-.4 1 0 .3.1.6.4.9.3.3.8.5 1.6.8 1.2.4 2.1.8 2.5 1.4.4.6.7 1.2.7 1.9s-.2 1.3-.5 1.7c-.3.5-.7.8-1.1 1.1-.4.3-1 .4-1.7.4-.4 0-.8-.1-1.2-.2-.4-.1-.9-.3-1.3-.6-.1.1-.2.3-.2.4-.1.2-.2.3-.3.3-.1 0-.2-.1-.2-.4l-.2-2.7v-.2c0-.1.1-.2.2-.2s.2.1.3.4c.3.7.7 1.4 1.1 1.9.5.5 1 .7 1.7.7.5 0 1-.2 1.3-.5.3-.3.5-.7.5-1.2 0-.4-.2-.8-.5-1.1-.3-.3-.9-.6-1.7-.9-.8-.3-1.4-.5-1.7-.8-.4-.2-.7-.6-.9-1-.2-.4-.3-.9-.3-1.3 0-.8.3-1.4.8-2 .6-.5 1.3-.8 2.3-.8l2.1.7zM105.1 18.5c.9.3 1.7.6 2.1 1.1.5.5.7 1 .7 1.7 0 .6-.2 1.1-.6 1.5-.4.4-.8.7-1.3.9-.5.1-1.2.2-2.2.2-.2 0-.6 0-1.1-.1-.4 0-.7-.1-1-.1h-1.8c-.2 0-.3-.1-.3-.2s.1-.2.2-.2c.3 0 .5-.1.6-.1l.3-.3c.1-.2.1-.4.2-.8l.2-3.5c0-1.1.1-1.9.1-2.6 0-.7 0-1.1-.1-1.3 0-.2-.1-.3-.2-.4-.1-.1-.3-.1-.5-.2-.2 0-.3 0-.4-.1 0 0-.1-.1-.1-.2s.1-.2.2-.2h4.6c.8 0 1.5.3 2 .7.5.4.7 1 .7 1.6.2 1.3-.7 2.1-2.3 2.6zm-1.9-.2c1.6.1 2.4-.7 2.5-2.1 0-.6-.1-1.1-.4-1.5-.3-.3-.6-.5-1-.5-.3 0-.6 0-1 .2-.1.5-.1 1-.1 1.6v2.3zm0 .5c-.1 1-.1 1.9-.1 2.6V23c.1.1.3.2.7.2.7 0 1.2-.2 1.5-.5.3-.4.5-.9.6-1.6 0-.7-.1-1.2-.5-1.7-.3-.4-.8-.7-1.5-.7-.3.1-.5.1-.7.1zM114.1 19.5c.6.2 1.1.4 1.5.8.4.3.6 1 .7 1.9.1.9.2 1.5.4 1.8.2.3.5.5.9.5.2 0 .3.1.3.3 0 .1-.2.2-.5.2l-2.6-.3c-.2-.3-.4-.9-.4-1.6 0-1-.1-1.7-.2-2.1-.1-.4-.3-.7-.5-.9-.3-.2-.6-.3-.9-.4h-.4c-.2 1.7-.3 2.8-.3 3.2 0 .4 0 .7.1.9.1.2.4.3.8.4.2 0 .3.1.3.3 0 .1-.1.2-.3.2l-2.1-.3c-.3 0-.7-.1-1.1-.1h-.8c-.2 0-.3-.1-.3-.2s.1-.2.3-.2c.3 0 .5 0 .7-.1.2-.1.4-.7.5-1.7l.1-1.4.3-2.7c.1-1.4.2-2.2.1-2.5-.1-.3-.4-.5-.9-.6-.2 0-.3-.1-.3-.2s.2-.2.4-.2c1.3.1 2.4.2 3.3.3.4 0 .8 0 1.1.1 1 .1 1.8.4 2.4.9.5.5.8 1.1.7 1.8-.1.5-.2.9-.6 1.3-.3.4-.7.6-1.1.7-.6-.1-1.1-.1-1.6-.1zm-1.9-.5h.3c.4 0 .8 0 1.2-.1.4-.1.7-.3.9-.7.2-.3.3-.7.4-1.1.1-.6-.1-1.1-.4-1.5-.3-.4-.7-.6-1.3-.7-.2 0-.5 0-.8.1l-.3 4zM123.9 15.8c.9.1 1.7.5 2.3 1 .6.5 1.1 1.2 1.4 2 .3.8.4 1.7.2 2.6-.2 1.4-.9 2.5-2 3.4-1.1.9-2.4 1.3-3.8 1-1.3-.2-2.3-.8-3.1-1.8-.8-1-1-2.3-.8-3.8.2-1.4.9-2.5 2-3.4 1.2-.9 2.4-1.3 3.8-1zm1.6 5.3c.2-1.5.2-2.6-.2-3.5-.4-.8-.9-1.3-1.6-1.4-.7-.1-1.4.2-2 .9-.6.7-1 1.8-1.2 3.2-.2 1.4-.2 2.6.1 3.4.3.9.9 1.3 1.6 1.5.7.1 1.3-.2 1.9-.8.7-.6 1.2-1.7 1.4-3.3zM129.2 16.7l2.2.5c.2 0 .4.1.7.1.4.1.8.1 1 .2.2 0 .3.1.3.3 0 .1-.1.2-.3.2-.3 0-.6 0-.8.2-.2.2-.4.6-.6 1.4-.2.7-.4 1.5-.6 2.3-.3 1.4-.4 2.3-.4 2.8s.2.9.5 1.3.8.6 1.5.8c.7.1 1.2.1 1.6-.1.4-.2.7-.7 1-1.3.3-.6.6-1.8 1-3.6.2-1.1.3-1.8.2-2.2-.1-.4-.3-.7-.6-.8-.3-.1-.4-.2-.3-.3 0-.1.2-.2.4-.1.1 0 .3.1.5.2s.5.1.8.2c.3.1.5.1.9.1.2 0 .4.1.5.1.2 0 .3.1.3.3 0 .1-.1.2-.3.1-.2 0-.5 0-.7.2-.2.2-.4.5-.6.9-.1.5-.4 1.6-.8 3.6-.3 1.3-.6 2.2-.9 2.7-.4.5-.9.9-1.5 1.1-.6.2-1.4.2-2.3 0-.7-.1-1.2-.3-1.7-.6-.5-.2-.8-.5-1.1-.8-.2-.3-.4-.7-.4-1.1-.1-.4 0-.9.1-1.6l.9-3.9c.1-.5.2-1 .2-1.4 0-.4 0-.6-.1-.7-.1-.1-.3-.3-.5-.3-.2-.1-.2-.1-.3-.1v-.2c-.1-.5 0-.6.2-.5zM148 22.2l-.4 2.1c0 .1 0 .2-.1.2 0 .1-.1.2-.2.2s-.2-.1-.2-.3c-.1-.9-.4-1.6-.8-2.3-.4-.6-1-1.1-1.7-1.3-.9-.3-1.8-.1-2.6.6s-1.3 1.6-1.7 2.8c-.4 1.3-.4 2.4 0 3.4s.9 1.6 1.7 1.8c.3.1.7.1 1.1 0 .4-.1.7-.2.8-.3.2-.2.3-.4.4-.8.2-.8.3-1.3.3-1.5 0-.2-.1-.4-.2-.5-.1-.1-.4-.3-.8-.4-.2-.1-.2-.2-.2-.3 0-.1.1-.2.3-.1l1 .3 3.1.8c.1 0 .2.1.2.2s-.1.1-.1.1h-.6c-.3 0-.4 0-.5.1-.1.1-.4.8-.8 2.1-.1.3-.2.5-.2.5l-.9.3c-.6.1-1.2.2-1.8.2-.6 0-1.1-.1-1.7-.3-.9-.3-1.7-.7-2.3-1.3-.6-.6-1-1.3-1.3-2.1-.2-.8-.2-1.7.1-2.7.4-1.4 1.2-2.4 2.3-3.2 1.2-.7 2.5-.9 4.1-.5.5.2 1 .4 1.4.6.4.3.8.6 1.3 1 .1.1.2.1.3.2.1 0 .2 0 .3-.1.1-.2.2-.2.3-.2.1.2.1.4.1.7zM155 28.6l.8-2.1c.2-.6.3-1 .3-1.3 0-.3-.2-.5-.6-.7-.3-.1-.4-.2-.4-.4.1-.1.2-.2.3-.1.2.1.5.2.9.4.5.2.8.3.9.4.7.3 1.4.5 2 .6.1 0 .2.1.2.1.2.1.2.2.2.3-.1.1-.2.2-.4.1-.3-.1-.5-.1-.7-.1-.2 0-.3.1-.4.3-.1.2-.4.8-.8 1.8s-.7 1.8-.8 2.2c-.6 1.6-1 2.7-1.1 3-.1.4-.1.7 0 .9.1.2.3.4.6.5.2.1.3.2.2.3 0 .1-.1.2-.3.1-.1 0-.2-.1-.3-.1l-1.8-.7c-.1 0-.3-.1-.6-.2-.6-.2-1-.3-1.2-.4-.2-.1-.2-.2-.2-.3 0-.1.1-.2.3-.1.3.1.6.1.7.1.2-.1.4-.3.6-.7.2-.4.6-1.2 1-2.5 0-.1.1-.3.2-.6-.8-.3-1.4-.6-2-.8-.7-.2-1.2-.4-1.6-.5-.4.9-.7 1.8-1 2.5-.2.5-.3.9-.2 1.2 0 .3.2.4.6.6.2.1.2.2.2.3 0 .1-.2.2-.3.1-.1 0-.2-.1-.3-.1-.5-.2-1-.5-1.6-.7-.3-.1-.6-.2-1.1-.3-.3-.1-.5-.2-.6-.2-.2-.1-.3-.2-.3-.3 0-.1.2-.1.3-.1.3.1.6.1.8 0 .2-.1.3-.3.5-.6s.6-1.2 1.1-2.7c.6-1.5.9-2.4.9-2.5.3-.7.4-1.2.5-1.5.1-.3.1-.6 0-.7-.1-.1-.2-.3-.4-.4-.2-.1-.3-.2-.3-.2v-.2c.1-.1.2-.2.3-.1.2.1.5.2.9.4.2.1.5.2.8.3l1.9.6c.2.1.3.2.2.3-.1.1-.2.2-.3.1-.3-.1-.5-.1-.6-.1-.1 0-.3.2-.4.4-.1.2-.3.6-.5 1.2l-.7 2c.5.3 1.1.5 1.7.7.7.2 1.3.4 1.9.5zM84.2 188v6.2c0 .9.1 1.4.2 1.7.1.3.4.4.8.5.3.1.5.1.5.2.1 0 .1.1.1.2s-.1.2-.3.2h-.2c-.9-.2-1.6-.4-2-.5-.5-.1-1.1-.2-2-.3-.3 0-.5-.1-.6-.1-.2 0-.3-.1-.3-.3 0-.1 0-.1.1-.2h.5c.4 0 .6 0 .8-.1.2-.1.3-.2.3-.4 0-.1.1-.5.1-1v-3.7c0-.6 0-1.1-.1-1.3-.1-.3-.2-.5-.4-.6-.2-.1-.4-.3-.8-.4-.3-.1-.5-.2-.5-.2-.1 0-.1-.1-.1-.2s0-.2.1-.2h.5c1.1.1 2 .1 2.9-.1h.2c.1.1.2.2.2.6zM93.9 193c.6.3 1.1.7 1.5 1.1.3.4.5.9.5 1.4 0 .8-.4 1.4-1.1 1.8-.7.5-1.6.7-2.7.6-1-.1-1.8-.4-2.4-.8-.6-.5-1-1-1-1.5 0-.4.2-.7.5-1.1.3-.4.8-.7 1.5-.9-.6-.3-1-.6-1.3-1-.3-.4-.4-.8-.4-1.2 0-.8.3-1.4 1-1.8.7-.4 1.5-.6 2.5-.5.9.1 1.7.3 2.2.7.6.4.8.9.8 1.4 0 .3-.1.7-.4.9-.2.2-.6.5-1.2.9zm-.7-.4c.3-.2.5-.4.7-.6.2-.3.3-.6.3-.9 0-.3-.2-.7-.5-1-.3-.4-.8-.6-1.4-.6-.6 0-1 .1-1.3.3-.3.3-.5.6-.5.9 0 .2.1.5.3.7.2.3.8.6 1.6.9.5.2.7.3.8.3zm-1.9 1.2c-.4.2-.7.5-.9.8-.2.3-.3.6-.3 1 0 .5.2.9.6 1.2.4.3.9.5 1.4.6.7.1 1.1-.1 1.5-.4.3-.3.5-.6.5-1.1 0-.3-.1-.6-.4-.9-.2-.2-1-.6-2.4-1.2zM104.3 190.1l-3.1.4c-.8.1-1.3.2-1.6.3-.2.1-.5.4-.8.7-.2.3-.4.5-.5.5-.2 0-.2 0-.2-.2s.1-.7.3-1.5c.2-.8.4-1.4.5-1.5.1-.2.2-.3.3-.3.1 0 .2 0 .3.2.1.1.2.2.3.2.1 0 .6 0 1.3-.1.7-.1 1.1-.1 1.2-.2l3.5-.5c-.1.2-.2.5-.4.9-.8 1.4-1.3 2.5-1.5 3.4-.3.9-.4 1.9-.5 3 0 .7-.1 1.3-.3 1.6-.2.3-.5.5-1 .6-.3 0-.6 0-.8-.2-.2-.2-.3-.4-.3-.7 0-.3.1-.7.3-1.2.2-.5.6-1.3 1.2-2.3l1.8-3.1zM109.9 191.1c.3-.3.7-.5 1-.6.4-.2.7-.3 1.1-.4.9-.2 1.7-.1 2.4.3s1 1 1 1.8c0 .9-.4 1.7-1.1 2.4-.7.7-1.7 1.2-2.8 1.4-1.3.3-2.3.1-3-.5-.7-.6-1.1-1.5-1.1-2.6 0-1.4.5-2.8 1.5-4 1-1.2 2.3-2 3.9-2.3.9-.2 1.6-.2 2 0 .5.2.7.5.7 1 0 .3-.1.6-.4.8-.2.3-.5.4-.8.5-.3.1-.6 0-.8-.1-.2-.2-.3-.4-.3-.7v-.5c0-.3-.2-.5-.7-.4-.6.1-1.2.5-1.7 1.2-.4.6-.7 1.5-.9 2.7zm3.2 1.7c0-.8-.1-1.3-.4-1.7-.3-.3-.7-.4-1.2-.3-.6.1-1 .4-1.3.9-.3.5-.5 1-.5 1.7 0 .8.2 1.3.5 1.7.3.4.7.5 1.2.4.5-.1.9-.4 1.2-.9.3-.5.5-1.1.5-1.8zM20.9 175.4l.9 1.5V177.2s-.1 0-.2-.1c-.4-.3-.9-.5-1.3-.6-.4-.1-1 0-1.8.3-.5.2-.8.4-.8.5 0 .1.3 1 1 2.6.4-.2.7-.3.9-.4.2-.1.3-.3.4-.5.1-.2.1-.5 0-.9 0-.1 0-.2.1-.2s.2 0 .2.1l.6 1.7c.2.6.3.9.3 1 0 .1 0 .1-.1.1s-.2 0-.2-.1c-.2-.3-.4-.5-.6-.6-.3-.1-.7 0-1.4.2l.8 2 .4.8c.1.1.2.2.4.2.1 0 .3 0 .6-.1.2-.1.3-.1.3-.1.1 0 .1 0 .1.1s0 .2-.2.3c-.1.1-.4.2-.8.3-.4.1-.6.2-.8.3l-1.6.7c-.2.1-.3.1-.3-.1 0-.1 0-.2.2-.3.4-.2.5-.4.5-.7-.1-.3-.5-1.5-1.2-3.4-.5-1.2-.8-2-1-2.2-.2-.2-.5-.2-.8-.1l-.1.1c-.1.1-.2 0-.3-.1 0-.1 0-.2.2-.3l5.6-2.3zM24.5 173.2c.7-.4 1.3-.6 2-.6s1.3.2 1.9.5c.6.3 1 .8 1.4 1.4.5.9.6 1.9.3 3.1-.3 1.1-1 1.9-2 2.5-.9.5-1.9.7-2.9.4-1-.2-1.8-.8-2.3-1.9-.5-1-.6-2-.3-3 .2-1 .8-1.8 1.9-2.4zm3.6 2.5c-.6-1-1.1-1.7-1.8-2-.6-.3-1.2-.3-1.7 0s-.8.8-.9 1.5c-.1.7.2 1.5.7 2.5.5 1 1.1 1.6 1.7 2 .6.3 1.2.4 1.8.1.5-.3.8-.7.9-1.4.1-.8-.1-1.7-.7-2.7zM31.7 169c.7-.4 1.3-.6 1.9-.7.7 0 1.3.1 1.9.4.6.3 1.1.8 1.5 1.3.6.9.7 1.9.5 3-.2 1.1-.9 2-1.8 2.6-.9.6-1.9.8-2.9.6-1-.2-1.8-.8-2.4-1.7-.6-.9-.7-1.9-.5-3 .2-1 .8-1.9 1.8-2.5zm3.7 2.2c-.6-1-1.2-1.6-1.9-1.9-.6-.3-1.2-.3-1.7 0s-.8.8-.8 1.5.3 1.5.9 2.5c.6.9 1.2 1.6 1.8 1.9.6.3 1.2.3 1.8 0 .5-.3.7-.8.8-1.5 0-.6-.3-1.4-.9-2.5zM35.4 166.6c1.7-1 2.9-1.8 3.7-2.3.6-.4 1.3-.8 2-1.3.3-.2.5-.3.6-.4.1 0 .2-.1.3-.2.1.1.3.4.6.8l.6.7c.1.1.1.2 0 .3-.1.1-.2 0-.4-.1-.3-.2-.6-.3-.9-.4-.3-.1-.6 0-.9.1-.3.1-.7.3-1.3.7.3.5.6 1.2 1.1 1.9.5.8 1 1.5 1.4 2.2.5.7.8 1.1.9 1.2.1.1.3.2.4.2.1 0 .4-.1.8-.3.1-.1.2-.1.3 0 .1.1 0 .2-.1.2l-.1.1-1 .6c-.8.5-1.2.8-1.4.9l-.6.4s-.1.1-.3.2h-.2c-.1-.1 0-.2.1-.3.3-.2.5-.4.5-.6.1-.2 0-.5-.1-.7-.1-.3-.5-.9-1-1.7-.9-1.4-1.6-2.4-2.2-3.2-.5.3-.9.6-1.1.8-.2.2-.4.5-.5.8-.1.3-.1.7-.1 1.1 0 .2 0 .3-.1.3-.1.1-.2.1-.3 0 0 0-.1-.3-.3-.7-.1-.7-.3-1-.4-1.3zM48.3 162.8c.8-.2 1.4-.3 1.9-.2.5.1.9.4 1.1.9.2.4.3.8.2 1.2-.1.4-.3.8-.6 1.1-.3.3-.8.6-1.5 1l-.8.4c-.3.1-.5.3-.7.4-.2.1-.5.3-.9.6-.1.1-.3.2-.3.2-.1.1-.2.1-.3 0 0-.1 0-.1.1-.2.2-.1.3-.3.4-.4.1-.1.1-.2.1-.4 0-.1-.1-.3-.2-.6l-1.2-2.3c-.4-.7-.7-1.3-1-1.7-.3-.4-.4-.7-.6-.8-.1-.1-.2-.2-.3-.2-.1 0-.2 0-.4.1-.1.1-.2.1-.3.1 0 0-.1 0-.1-.1v-.2c.1-.1.3-.2.6-.4.7-.4 1.3-.7 1.8-1.1.3-.2.6-.4.8-.5.6-.3 1.2-.5 1.7-.4.5.1.9.3 1.1.8.7.9.4 1.7-.6 2.7zm-1.4.7c1.1-.6 1.4-1.4.9-2.4-.2-.4-.5-.7-.8-.8-.3-.1-.6-.1-.9.1-.2.1-.4.3-.6.5.2.3.3.7.5 1.1.2.3.5.8.9 1.5zm.2.4c.4.7.7 1.3.9 1.8.3.6.6 1 .7 1 .1.1.3 0 .5-.1.5-.3.8-.6.9-1 .1-.4 0-.8-.2-1.3-.2-.4-.6-.7-1-.9-.4-.2-.9-.1-1.4.2 0 .1-.2.2-.4.3zM52.4 156.6l.4-.2c.9.8 2.3 2 4.1 3.7.8.8 1.4 1.3 1.6 1.4.2.1.5.2.9.1.1 0 .2 0 .2.1s0 .2-.1.3c-.1 0-.3.1-.6.2-.4.1-.7.3-.9.4-.2.1-.5.3-.9.5-.3.2-.5.3-.5.3-.2.1-.3.1-.3 0s0-.1.1-.2c.4-.2.5-.5.4-.8-.1-.1-.2-.4-.5-.7-.3-.3-.6-.6-.9-.8-.2.1-.4.2-.5.2-.7.3-1.2.6-1.6.8.1 1 .2 1.6.3 1.8.1.2.2.3.4.3h.6c.1 0 .2 0 .3.1 0 .1 0 .2-.1.2s-.2.1-.4.2c-.3.1-.5.2-.7.3-.3.1-.5.3-.8.4-.1 0-.1.1-.1.1-.1.1-.2 0-.3-.1 0-.1 0-.1.1-.2l.4-.4c.1-.1.1-.4.1-.7 0-.3 0-.8-.1-1.4-.3-1.5-.5-3.5-.6-5.9zm.5 2 .2 2.7 1.8-.9c-.2-.2-.5-.5-1-.9-.4-.4-.8-.7-1-.9zM66.2 159.6c-.9.2-2.3.7-4.2 1.3-.7.2-1.2.4-1.6.6-.1 0-.2.1-.2.1-.1 0-.2 0-.3-.1v-.1l.2-.2c.2-.1.4-.2.5-.4.1-.1.1-.3.1-.5s-.1-.7-.4-1.5c-.3-.8-.6-1.8-.9-2.9-.1-.4-.3-.8-.4-.9-.1-.2-.3-.3-.4-.3-.1-.1-.3-.1-.6 0-.2 0-.3 0-.3-.1s0-.2.2-.2l1.8-.5c.3-.1.7-.2 1.2-.4.2-.1.3-.1.4-.1.2 0 .2 0 .3.1v.1s-.2.1-.3.2c-.2.1-.4.2-.5.4-.1.1-.1.3 0 .5 0 .2.2.7.4 1.5l1.1 3.3c.2.5.3.8.4.9.1.1.3.1.5 0 .6-.2 1-.4 1.3-.6.3-.2.5-.4.7-.8.2-.3.3-.8.4-1.5 0-.1.1-.2.1-.2.1 0 .2 0 .2.1 0 0 .1.8.3 2.2zM73.2 158.2c-.9.1-2.4.4-4.4.8-.7.1-1.2.3-1.7.4-.1 0-.2 0-.2.1-.1 0-.2 0-.2-.1v-.1s.1-.1.3-.1c.2-.1.4-.2.5-.3.1-.1.2-.3.2-.5s-.1-.7-.2-1.6c-.2-.8-.3-1.8-.6-3-.1-.5-.2-.8-.3-1-.1-.2-.2-.3-.4-.4-.1-.1-.3-.1-.6-.1-.2 0-.3 0-.3-.1s.1-.2.2-.2l1.9-.3c.3-.1.7-.1 1.2-.3.2 0 .3-.1.4-.1.2 0 .2 0 .3.1 0 .1 0 .1-.1.1l-.4.2c-.2.1-.4.2-.5.3-.1.1-.1.3-.1.5s.1.8.3 1.6l.7 3.4c.1.5.2.8.3.9.1.1.3.1.5 0 .6-.1 1.1-.3 1.3-.4.3-.2.5-.4.7-.7.2-.3.4-.8.6-1.4 0-.1.1-.2.2-.2s.2 0 .2.1c.2.2.2 1 .2 2.4zM144.1 159.3c.1-.1.2-.1.4-.2s.3-.1.3-.1c.1 0 .1.1.1.1s0 .2-.1.3l-.7 1.6-.1.2c-.1.1-.2.2-.3.1-.1 0-.1-.1-.1-.3 0-.4 0-1-.2-1.6-.1-.6-.5-1.1-1-1.3-.4-.2-.8-.2-1.2-.1-.4.1-.8.3-1.1.7-.4.3-.7.8-1 1.4-.5 1-.6 1.9-.5 2.7.2.8.5 1.3 1.2 1.7.7.3 1.5.2 2.5-.3.1-.1.2-.1.3-.1.1.1.1.1.1.2-.1.2-.6.5-1.3.7-.8.2-1.6.1-2.4-.2-1.1-.5-1.8-1.3-2.1-2.2-.3-1-.2-1.9.3-2.9s1.2-1.6 2.2-2c1-.4 1.9-.4 2.9.1.7.2 1.3.7 1.8 1.5zM147.8 169.5c-.8-.5-2.1-1.3-3.8-2.3-.6-.3-1.1-.6-1.5-.8-.1 0-.2-.1-.2-.1-.1-.1-.2-.2-.1-.3l.1-.1s.1 0 .3.1c.2.1.4.1.6.1.2 0 .3-.1.5-.3.2-.2.4-.6.9-1.3.4-.7.9-1.6 1.5-2.6.2-.4.4-.7.4-.9v-.5c-.1-.1-.2-.3-.4-.4-.1-.1-.2-.2-.1-.3.1-.1.2-.1.3 0l1.6 1c.3.1.6.3 1.1.6.2.1.3.1.3.2.1.1.2.2.1.3 0 .1-.1.1-.1.1-.1 0-.2 0-.4-.1s-.4-.1-.6-.1c-.1 0-.3.1-.4.3-.1.2-.4.6-.8 1.3l-1.7 3c-.3.5-.4.8-.4.9 0 .1.2.3.4.4.5.3 1 .5 1.3.6.3.1.7.1 1 0 .4-.1.8-.3 1.4-.7.1-.1.2-.1.3-.1.1.1.1.1.1.2-.3.1-.8.7-1.7 1.8zM152 163.3l1.5 1c.1.1.3.2.5.3.3.2.6.3.7.4.2.1.2.2.2.3-.1.1-.1.1-.3 0-.2-.1-.5-.2-.7-.1-.2.1-.5.3-.8.8-.3.5-.7 1-1 1.5-.6.9-.9 1.6-1 1.9-.1.4-.1.7.1 1.1.2.4.5.7 1 1 .5.3.9.4 1.3.4.4-.1.7-.3 1.1-.7.4-.4.9-1.2 1.7-2.3.4-.7.7-1.2.7-1.6.1-.3 0-.6-.3-.8-.2-.1-.2-.3-.2-.3.1-.1.2-.1.3 0 .1 0 .2.1.4.3.2.1.4.3.5.4l.6.3c.2.1.3.2.4.2.2.1.2.2.2.3 0 .1-.1.1-.3 0-.2-.1-.4-.1-.6 0-.2.1-.4.2-.7.5-.2.3-.7 1.1-1.5 2.3-.5.8-1 1.4-1.4 1.7-.4.3-.9.4-1.4.3-.5-.1-1.1-.3-1.7-.7-.5-.3-.9-.6-1.2-.9-.3-.3-.5-.6-.6-.9-.1-.3-.1-.6-.1-.9.1-.3.2-.7.5-1.1l1.6-2.6c.2-.4.4-.7.5-.9.1-.3.1-.4.1-.6 0-.1-.1-.3-.3-.4-.1-.1-.2-.1-.2-.2v-.1c.2 0 .3 0 .4.1zM161.4 173.4c.6.6.9 1.1 1.1 1.6.2.5.1 1-.2 1.4-.2.4-.6.6-1 .8-.4.1-.8.2-1.3 0-.4-.1-1-.4-1.6-.8-.2-.1-.4-.3-.8-.5-.3-.2-.5-.3-.7-.4-.2-.1-.5-.3-.9-.5-.2-.1-.3-.1-.3-.2-.1-.1-.2-.2-.1-.3 0-.1.1-.1.2 0 .2.1.4.2.5.2.1 0 .2 0 .4-.1.1-.1.3-.2.4-.4l1.4-2.2c.4-.7.8-1.3 1-1.7.2-.4.4-.7.4-.9v-.4c0-.1-.1-.2-.3-.3l-.2-.2v-.1c0-.1.1-.1.2-.1s.3.2.7.4c.6.4 1.3.8 1.8 1.1.3.2.6.3.8.5.6.4 1 .8 1.2 1.3.2.5.1.9-.1 1.4-.3.6-1.2.8-2.6.4zm-1.2-.9c1.1.7 2 .6 2.6-.4.3-.4.4-.8.3-1.1-.1-.3-.2-.6-.5-.7-.2-.1-.4-.2-.8-.3-.2.3-.5.6-.7 1-.2.2-.5.8-.9 1.5zm-.3.4c-.5.7-.8 1.2-1.1 1.7-.4.6-.6 1-.6 1.1 0 .1.1.3.4.4.5.3.9.4 1.3.3.4-.1.7-.4 1-.8.3-.4.4-.9.3-1.3-.1-.4-.3-.8-.8-1.1-.1-.1-.3-.2-.5-.3z"/><defs><path id="SVGID_13_" d="M180 164.7s2.2 2.2 4.6 3.8c.4.3.2.6.2.6l-3.8 4.4c.5-.6 2.3-4 2.3-4s.2-.5-.1-.9c-.7-.9-2.8-3.4-3.2-3.9z"/></defs><clipPath id="SVGID_14_"><use xlink:href="#SVGID_13_" style="overflow:visible"/></clipPath><g style="clip-path:url(#SVGID_14_)"><linearGradient id="SVGID_15_" gradientUnits="userSpaceOnUse" x1="179.954" y1="169.16" x2="184.891" y2="169.16"><stop offset="0" style="stop-color:#fff"/><stop offset="1" style="stop-color:#6d6e71"/></linearGradient><path style="fill:url(#SVGID_15_)" d="M180 164.7h4.9v8.9H180z"/></g><defs><path id="SVGID_16_" d="M13.2 164.7s-2.2 2.2-4.6 3.8c-.4.3-.2.6-.2.6l3.8 4.4c-.5-.6-2.3-4-2.3-4s-.2-.5.1-.9c.7-.9 2.8-3.4 3.2-3.9z"/></defs><clipPath id="SVGID_17_"><use xlink:href="#SVGID_16_" style="overflow:visible"/></clipPath><g style="clip-path:url(#SVGID_17_)"><linearGradient id="SVGID_18_" gradientUnits="userSpaceOnUse" x1="-7176.973" y1="169.16" x2="-7172.036" y2="169.16" gradientTransform="matrix(-1 0 0 1 -7163.698 0)"><stop offset="0" style="stop-color:#fff"/><stop offset="1" style="stop-color:#6d6e71"/></linearGradient><path style="fill:url(#SVGID_18_)" d="M8.3 164.7h4.9v8.9H8.3z"/></g><defs><path id="SVGID_19_" d="M182.3 176.3c1.5.4 2.2.3 3.5.2.8-.1 2.3-.9 1.9.1-1.1 2.9-2.9 5.8-4.2 8.6-.4.8.3-1.1 1-3.2.3-.9.7-1.9 1-2.8.1-.5.3-1.2-.2-1.4-.5-.2-2.6-1.2-3-1.5z"/></defs><clipPath id="SVGID_20_"><use xlink:href="#SVGID_19_" style="overflow:visible"/></clipPath><linearGradient id="SVGID_21_" gradientUnits="userSpaceOnUse" x1="182.232" y1="180.667" x2="187.777" y2="180.667"><stop offset="0" style="stop-color:#fff"/><stop offset="1" style="stop-color:#6d6e71"/></linearGradient><path style="clip-path:url(#SVGID_20_);fill:url(#SVGID_21_)" d="M182.2 176h5.5v9.2h-5.5z"/><defs><path id="SVGID_22_" d="m191.8 171.2.4-.8c.5-1.2 1.1-2.9-1.3-5.9-4-4.3-9.9-5.7-11-3.8-.8 1.7.9 3.9 3.2 5.7 1.9 1.5 3.7 2.1 3.7 2.1l-5.3 6.5c1.5.3 2.7.3 3.7.4 4.5-.5 5.8-2.6 6.6-4.2z"/></defs><clipPath id="SVGID_23_"><use xlink:href="#SVGID_22_" style="overflow:visible"/></clipPath><linearGradient id="SVGID_24_" gradientUnits="userSpaceOnUse" x1="986.667" y1="-2764.664" x2="1001.585" y2="-2764.664" gradientTransform="matrix(.935 .5344 -.646 1.1303 -2530.893 2762.007)"><stop offset="0" style="stop-color:#942923"/><stop offset=".505" style="stop-color:#e11b22"/><stop offset="1" style="stop-color:#942923"/></linearGradient><path style="clip-path:url(#SVGID_23_);fill:url(#SVGID_24_);stroke:#000" d="m187.9 178.7-13.9-8 7.2-12.7 14 8z"/><use xlink:href="#SVGID_22_" style="overflow:visible;fill-rule:evenodd;clip-rule:evenodd;fill:none;stroke:#000"/><defs><path id="SVGID_25_" d="M128 163.7s-1.4.9-.7 2.1l4.2 5.7s1.5 1.8.1 3c0 0-3 2.8-8.4 5.8L111 162.2s.4-.7 4-.7c4.4 0 8.8.9 13 2.2z"/></defs><defs><path id="SVGID_26_" d="M128 163.7s-1.4.9-.7 2.1l4.2 5.7s1.5 1.8.1 3c0 0-3 2.8-8.4 5.8L111 162.2s.4-.7 4-.7c4.4 0 8.8.9 13 2.2z"/></defs><clipPath id="SVGID_27_"><use xlink:href="#SVGID_25_" style="overflow:visible"/></clipPath><clipPath id="SVGID_28_" style="clip-path:url(#SVGID_27_)"><use xlink:href="#SVGID_26_" style="overflow:visible"/></clipPath><linearGradient id="SVGID_29_" gradientUnits="userSpaceOnUse" x1="-311.087" y1="-5624.005" x2="-292.976" y2="-5624.005" gradientTransform="matrix(.4166 1.1456 -1.2937 .4705 -7027.51 3161.697)"><stop offset="0" style="stop-color:#942923"/><stop offset=".505" style="stop-color:#e11b22"/><stop offset="1" style="stop-color:#942923"/></linearGradient><path style="clip-path:url(#SVGID_28_);fill:url(#SVGID_29_);stroke:#000" d="m118.3 182.8-7.5-20.7 15.8-5.8 7.5 20.8z"/><use xlink:href="#SVGID_25_" style="overflow:visible;fill-rule:evenodd;clip-rule:evenodd;fill:none;stroke:#000"/><use xlink:href="#SVGID_26_" style="overflow:visible;fill-rule:evenodd;clip-rule:evenodd;fill:none;stroke:#000"/><defs><path id="SVGID_30_" d="M121.2 150.5c-.3 0-2 .6-2.4.7-.8.2-1.3.7-1.8 1.3-.6.7-1 1.5-1.5 2.2-.7 1-3.5 4.8-4 5.8.5-.9 2.9-5.1 3.5-6.3.5-1.1 1-2.1 1.8-2.9 1.1-1.1 3-.9 4.4-.8z"/></defs><clipPath id="SVGID_31_"><use xlink:href="#SVGID_30_" style="overflow:visible"/></clipPath><linearGradient id="SVGID_32_" gradientUnits="userSpaceOnUse" x1="-124.69" y1="-12.606" x2="-124.69" y2="-25.107" gradientTransform="matrix(1.0633 .0034 .0034 1.0448 248.833 175.68)"><stop offset="0" style="stop-color:#fff"/><stop offset="1" style="stop-color:#6d6e71"/></linearGradient><path style="clip-path:url(#SVGID_31_);fill:url(#SVGID_32_)" d="m119.1 162.1-7.9-1.4 2-11.7 8 1.4z"/><defs><path id="SVGID_33_" d="M72.1 150.5c.3 0 2 .6 2.4.7.8.2 1.3.7 1.8 1.3.6.7 1 1.5 1.5 2.2.7 1 3.5 4.8 4 5.8-.5-.9-2.9-5.1-3.5-6.3-.5-1.1-1-2.1-1.8-2.9-1.2-1.1-3-.9-4.4-.8z"/></defs><clipPath id="SVGID_34_"><use xlink:href="#SVGID_33_" style="overflow:visible"/></clipPath><linearGradient id="SVGID_35_" gradientUnits="userSpaceOnUse" x1="-7321.527" y1="10.814" x2="-7321.527" y2="-1.687" gradientTransform="matrix(-1.0633 .0034 -.0034 1.0448 -7707.909 175.68)"><stop offset="0" style="stop-color:#fff"/><stop offset="1" style="stop-color:#6d6e71"/></linearGradient><path style="clip-path:url(#SVGID_34_);fill:url(#SVGID_35_)" d="m74.1 162.1 8-1.4L80 149l-8 1.4z"/><defs><path id="SVGID_36_" d="m129.9 190.4 2.7-12.1c.5-1.9-1.1-.8-1.1-.8l-5.2 2.6 2.8-.3c1.6 0 1.4 1.7 1.4 1.7l-.6 8.9z"/></defs><clipPath id="SVGID_37_"><use xlink:href="#SVGID_36_" style="overflow:visible"/></clipPath><linearGradient id="SVGID_38_" gradientUnits="userSpaceOnUse" x1="126.126" y1="183.865" x2="132.685" y2="183.865"><stop offset="0" style="stop-color:#fff"/><stop offset="1" style="stop-color:#6d6e71"/></linearGradient><path style="clip-path:url(#SVGID_37_);fill:url(#SVGID_38_)" d="M126.1 177.1h6.6v13.5h-6.6z"/><defs><path id="SVGID_39_" d="m63.3 190.4-2.7-12.1c-.5-1.9 1.1-.8 1.1-.8l5.2 2.6-2.8-.3c-1.6 0-1.4 1.7-1.4 1.7l.6 8.9z"/></defs><clipPath id="SVGID_40_"><use xlink:href="#SVGID_39_" style="overflow:visible"/></clipPath><linearGradient id="SVGID_41_" gradientUnits="userSpaceOnUse" x1="-7467.219" y1="183.865" x2="-7460.66" y2="183.865" gradientTransform="matrix(-1 0 0 1 -7400.125 0)"><stop offset="0" style="stop-color:#fff"/><stop offset="1" style="stop-color:#6d6e71"/></linearGradient><path style="clip-path:url(#SVGID_40_);fill:url(#SVGID_41_)" d="M60.5 177.1h6.6v13.5h-6.6z"/><defs><path id="SVGID_42_" d="M10.8 176.3c-1.5.4-2.2.3-3.5.2-.8-.1-2.3-.9-1.9.1 1.1 2.9 2.9 5.8 4.2 8.6.4.8-.3-1.1-1-3.2-.3-.9-.7-1.9-1-2.8-.1-.5-.3-1.2.2-1.4.5-.2 2.6-1.2 3-1.5z"/></defs><clipPath id="SVGID_43_"><use xlink:href="#SVGID_42_" style="overflow:visible"/></clipPath><linearGradient id="SVGID_44_" gradientUnits="userSpaceOnUse" x1="-7163.068" y1="180.667" x2="-7157.522" y2="180.667" gradientTransform="matrix(-1 0 0 1 -7152.185 0)"><stop offset="0" style="stop-color:#fff"/><stop offset="1" style="stop-color:#6d6e71"/></linearGradient><path style="clip-path:url(#SVGID_43_);fill:url(#SVGID_44_)" d="M5.3 176h5.5v9.2H5.3z"/></svg>