<svg version="1.1" id="Logo" xmlns="http://www.w3.org/2000/svg" x="0" y="0" viewBox="0 0 200 200" style="enable-background:new 0 0 200 200" xml:space="preserve"><style>.st0{fill:#dc0d15}</style><path class="st0" d="m83 1.3-3.2 9.1h-9.4l7.7 5.5-3 9.5 7.9-5.5 7.9 5.5-3-9.5 7.7-5.5h-9.5zM112.6 1.3l-3.2 9.1H100l7.7 5.5-3 9.5 7.9-5.5 8 5.5-3-9.5 7.6-5.5h-9.4zM115.3 134.6c-15.4 9.8-27.3 3.9-33.4 0-11.5-7.3-20.7-3.2-23.8-.1v8.3c2.8-2.9 6.7-4.4 11.2-4.4 0 0 4.5-.4 12 3.4 5.1 2.5 16.5 10.7 34.6 0 6.3-3.7 12-3.4 12-3.4 4.6 0 8.6 1.6 11.4 4.7v-8.4c-3-3-12.3-7.6-24-.1z"/><path class="st0" d="M115.3 145.3c-15.4 9.8-27.3 3.9-33.4 0-11.5-7.3-20.7-2.3-23.8.8v9.2c2.8-3 6.7-6.2 11.2-6.2 0 0 4.5-.4 12 3.4 5.1 2.5 16.5 10.7 34.6 0 6.3-3.7 12-3.4 12-3.4 4.6 0 8.5 3.2 11.4 6.3v-9.2c-3-3.1-12.3-8.4-24-.9zM138.6 81.2c1.4-7.2-1.7-10.3-4.9-11.6.7-2.5-.4-6.1-3.2-8.9-1.6-1.6-3.3-2.6-5-3.1 1.8-6.8-.5-13.5-8.2-15.5-1.9-.5-4-.5-5.8 0-2.9-4.8-8.1-8-14.1-8-5.9 0-11 3.1-13.9 7.8-3.2-.6-6.7.2-9.5 2.3-4.2 3.3-5.6 9-3.8 13.8-3.2.3-6 2-7.4 4.8-1.1 2.3-1 4.9 0 7.2-3.3 1.6-5.5 4.7-5.5 8.2 0 .8.1 1.6.4 2.4-3.6 2.4-6 6.4-6 11 0 7.3 6 13.2 13.3 13.2 1.8 0 3.5-.4 5.1-1 2.2 4.2 6.6 7.1 11.7 7.1 2.8 0 5.3-1 7.5-2.4v17.8c-12.9-7.2-18.8-7-20.9-7-3-.2-8.2 1.2-10.5 3.7v8.3c2.3-2.4 8.1-4.1 12.5-4 2.3.1 7.3 1.1 12.4 4.1 7.6 4.3 13.4 5.2 13.4 5.2V97.1c-2.2 2.8-6.3 4.6-11 4.6-6.1 0-11.2-3.1-12.3-7.2-.7.9-1.8 1.6-2.9 2-3.4 1.2-7-.2-8.2-3.3s.7-6.6 4.1-7.9c.4-.2.8-.3 1.2-.3-2.2-2.1-3.2-4.8-2.2-7s3.8-3.3 6.9-2.7c-1.1-1.2-1.7-2.7-1.7-4.3 0-4 3.8-7.3 8.4-7.3.3 0 .7 0 1 .1-1.4-1.5-2.3-3.6-2.3-5.9 0-4.7 3.8-8.5 8.4-8.5 1.3 0 2.5.3 3.5.8.6-3.9 4.1-6.9 8.4-6.9 4.3 0 7.9 3.1 8.4 7.1 1.2-.7 2.6-1 4.2-1 4.6 0 8.4 3.9 8.4 8.8 0 2.2-.7 4.2-2 5.7.3 0 .6-.1.9-.1 4.6 0 8.3 3.2 8.3 7.2 0 1.3-.4 2.5-1.1 3.6 2.6 0 5 1.4 5.9 3.9.7 2 .3 4.1-1 5.7.1 0 .2 0 .3.1 3.4.6 5.7 3.8 5.1 7.2-.6 3.4-3.8 5.6-7.2 5-1.8-.3-3.3-1.4-4.2-2.8-.8 4.4-5.9 7.8-12.1 7.8-4.4 0-8.7-1.7-10.8-4.2v39.4s5.8-.8 13.4-5.2c5.2-3 10.1-4 12.4-4.1 4.5-.2 10.3 1.4 12.5 4v-8.3c-2.2-2.6-7.4-3.8-10.5-3.7-2 0-8-.2-20.9 7v-17.8c1.3.8 3.4 1.6 5 1.7 5.5.5 11.4-2.1 14.1-6.6 8.9 2.3 15.6-3.5 17-9.8.2-.9.3-1.9.3-2.7.4-4.2-1.7-7.5-5.3-10zM92.1 168.7v1.6c0 1.5-.4 2-1.5 2h-.8v-5.5h.8c1.2-.1 1.5.4 1.5 1.9zm12.7 22.8c-7.8-.1-7.6-6.3-7.6-6.3v-5.7c0-3.2-1-4.5-4.2-4.7v-.2c2.8-.2 4.2-1.7 4.2-4.7v-3c0-3.5-1.9-5-6.4-5h-6.4v27h5.3v-12.3h.1c1.2 0 2 .8 2 2.4v6.1s-.2 2.6.6 4.7c1.7 4.5 6.7 7.1 11.7 7.1.8 0 1.6-.1 2.3-.2v-5.4c-.4.2-1.1.2-1.6.2M58.1 188.9h5.3v-12.1h4.3v-4.6h-4.3v-5.5h4.8v-4.5H58.1zM77.3 182.2c0 1.1 0 1.4-.3 1.8-.2.3-.5.5-1 .5-.4 0-.8-.2-1-.5-.2-.4-.3-.7-.3-1.8v-13.4c0-1.1 0-1.4.3-1.8.2-.3.5-.5 1-.5.4 0 .8.2 1 .5.2.4.3.7.3 1.8v13.4zM76 161.8c-2.4 0-4.1.7-5.2 2.1-1.1 1.3-1.4 3.2-1.4 6.1v11c0 2.9.3 4.8 1.4 6.1 1.1 1.3 2.8 2.1 5.2 2.1 2.4 0 4.1-.7 5.2-2.1 1.1-1.3 1.4-3.2 1.4-6.1v-11.1c0-2.9-.3-4.8-1.4-6.1-1.1-1.3-2.8-2-5.2-2M127.2 162.2v4.5h3.4v22.2h5.3v-22.2h3.3v-4.5z"/><path class="st0" d="M106.6 172.2h-2.2v-3.7c0-.8 0-1.2.2-1.4.2-.3.5-.4.9-.4s.7.1.9.4c.2.3.2.6.2 1.4v3.7zm-1.1-10.4c-2.2 0-3.7.5-4.8 1.6-1.2 1.2-1.5 2.8-1.5 5.1v14c0 2.3.3 3.9 1.5 5.1 1.1 1.1 2.6 1.6 4.8 1.6s3.7-.5 4.8-1.6c1.1-1.1 1.4-2.4 1.5-4.3v-3.8h-5.2v3.1c0 .8 0 1.1-.2 1.4-.2.3-.5.4-.9.4s-.7-.1-.9-.4c-.2-.3-.2-.6-.2-1.4v-5.8h7.4v-8.3c0-2.3-.3-3.9-1.5-5.1-1-1.1-2.7-1.6-4.8-1.6M122.2 173.4l-.7-.4c-2.1-1.3-2.4-1.8-2.4-3v-2c0-.9.4-1.3 1.1-1.3.4 0 .7.2.9.5.2.3.2.6.2 2.9v1h5.3v-1.3c0-3.3-.2-4.6-1.6-6.1-1.1-1.1-2.7-1.7-4.8-1.7-4.1 0-6.4 2.3-6.4 6.1v2.5c0 3.6 1.3 4.6 4.6 6.7l.7.4c2.1 1.3 2.4 1.8 2.4 3v2.6c0 .9-.5 1.3-1.1 1.3-.4 0-.7-.2-.9-.5-.2-.4-.2-.2-.2-2.5v-1.9H114v1.9c0 3.3.2 4.6 1.6 6.1 1.1 1.1 2.7 1.7 4.8 1.7 4.1 0 6.4-2.3 6.4-6.1V180c-.1-3.5-1.4-4.6-4.6-6.6"/></svg>