<svg xmlns="http://www.w3.org/2000/svg" viewBox="0 0 351.5 385.2" style="enable-background:new 0 0 351.5 385.2" xml:space="preserve"><style>.st0{fill:#e1e4f3}.st1{fill:#fbfdff}</style><g id="text_for_logo"><path class="st0" d="M314.5 14.8c-.2.2-29.2 27.7-64.5 27.7-25 0-51-13.5-74.2-42.5-23.2 29.1-49.3 42.5-74.2 42.5-35.3 0-64.3-27.4-64.5-27.7C13.9 48.6 0 102.5 0 143.7c0 51.1 16.3 98.2 48.4 140.1 26.5 34.5 74.9 72.6 127.4 101.4 52.5-28.8 100.9-66.9 127.4-101.4 32.1-41.8 48.4-89 48.4-140.1-.1-41.2-14-95.1-37.1-128.9z"/><path class="st1" d="M313 25s-70.1 63-137.2-15C108.6 88 38.5 25 38.5 25c-21 35.3-32 81.5-32 118.8 0 49.6 15.8 95.4 47 136.1 27.1 35.3 72.4 70.6 122.2 98 49.8-27.4 95.1-62.6 122.2-98 31.2-40.7 47-86.5 47-136.1C345 106.4 334 60.3 313 25z"/><path d="M308.2 44.5s-67.4 49.2-132.6-16.1C110.4 93.6 43 44.5 43 44.5c-15.3 30-23.6 63.3-23.6 99.3 0 99.1 66.2 169.8 156.2 219.3 90.1-49.5 156.2-120.2 156.2-219.3.1-36-8.2-69.4-23.6-99.3z" style="fill:#001489"/><path class="st1" d="m187.9 105.5 33.5-15.7-15.9 33.2 34.9 12.7-34.9 12.1 15.8 33.6-33.3-16-12.3 35-12.5-34.9-33.4 15.9 15.3-33.5-34.5-12.2 34.9-12.5-16-33.6 33.5 16 12.7-35 12.2 34.9"/><path class="st0" d="m175.7 135.7-30.2-12.5-34.9 12.5h65.1M175.7 135.7l-45.9 45.7 15.3-33.5 30.6-12.2M175.7 200.4v-64.7l-12.5 29.8zM221.3 181.4l-45.6-45.7 12.3 29.7z"/><path class="st0" d="M240.4 135.7h-64.7l29.8 12.1zM221.4 89.8l-45.7 45.9 29.8-12.7zM175.7 70.6v65.1l12.2-30.2zM129.5 89.6l46.2 46.1-12.7-30.1z"/><path class="st1" d="M46.1 121.1c.1 1.2.3 2.5.5 3.8-.2-1.3-.3-2.5-.5-3.8zM304.9 121.1c-.1 1.2-.3 2.5-.5 3.8.2-1.3.4-2.5.5-3.8zM175.9 295.3s0-.1 0 0h-.2.2z"/><path class="st1" d="M305 121.2c.5 4.8.7 9.6.7 14.5 0 70.4-57.6 129.4-130.1 130-72.5-.5-130.1-59.5-130.1-130 0-4.9.1-9.7.7-14.5-.2 1.2-2.6 18.4-2.6 35.3 0 71.2 60.4 137.5 132.3 138.8 71.9-1.3 131.8-67.6 131.8-138.8-.1-17-2.6-34.1-2.7-35.3z"/><path class="st0" d="M175.5 236.7c-67 0-122.1-50.6-129.4-115.6-.5 4.8-.8 9.7-.8 14.6 0 71.9 58.3 130.2 130.2 130.2 71.9 0 130.8-58.2 130.2-130.2 0-4.9-.3-9.8-.8-14.6-7.2 65-62.4 115.6-129.4 115.6z"/></g></svg>