<?xml version="1.0" encoding="utf-8"?>
<!-- Generator: Adobe Illustrator 19.2.1, SVG Export Plug-In . SVG Version: 6.00 Build 0)  -->
<!DOCTYPE svg PUBLIC "-//W3C//DTD SVG 1.1//EN" "http://www.w3.org/Graphics/SVG/1.1/DTD/svg11.dtd">
<svg version="1.1" xmlns="http://www.w3.org/2000/svg" xmlns:xlink="http://www.w3.org/1999/xlink" x="0px" y="0px"
	 viewBox="0 0 351.5 385.2" style="enable-background:new 0 0 351.5 385.2;" xml:space="preserve">
<style type="text/css">
	.st0{fill:#E1E4F3;}
	.st1{fill:#FBFDFF;}
	.st2{fill:#001489;}
</style>
<g id="Layer_2">
</g>
<g id="Layer_4">
</g>
<g id="Layer_3">
</g>
<g id="text_for_logo">
	<path class="st0" d="M314.5,14.8c-0.2,0.2-29.2,27.7-64.5,27.7c-25,0-51-13.5-74.2-42.5c-23.2,29.1-49.3,42.5-74.2,42.5
		c-35.3,0-64.3-27.4-64.5-27.7C13.9,48.6,0,102.5,0,143.7c0,51.1,16.3,98.2,48.4,140.1c26.5,34.5,74.9,72.6,127.4,101.4
		c52.5-28.8,100.9-66.9,127.4-101.4c32.1-41.8,48.4-89,48.4-140.1C351.5,102.5,337.6,48.6,314.5,14.8z"/>
	<path class="st1" d="M313,25c0,0-70.1,63-137.2-15C108.6,88,38.5,25,38.5,25c-21,35.3-32,81.5-32,118.8c0,49.6,15.8,95.4,47,136.1
		c27.1,35.3,72.4,70.6,122.2,98c49.8-27.4,95.1-62.6,122.2-98c31.2-40.7,47-86.5,47-136.1C345,106.4,334,60.3,313,25z"/>
	<path class="st2" d="M308.2,44.5c0,0-67.4,49.2-132.6-16.1C110.4,93.6,43,44.5,43,44.5c-15.3,30-23.6,63.3-23.6,99.3
		c0,99.1,66.2,169.8,156.2,219.3c90.1-49.5,156.2-120.2,156.2-219.3C331.9,107.8,323.6,74.4,308.2,44.5z"/>
	<g>
		<g>
			<polyline class="st1" points="187.9,105.5 221.4,89.8 205.5,123 240.4,135.7 205.5,147.8 221.3,181.4 188,165.4 175.7,200.4 
				163.2,165.5 129.8,181.4 145.1,147.9 110.6,135.7 145.5,123.2 129.5,89.6 163,105.6 175.7,70.6 187.9,105.5 			"/>
		</g>
		<g>
			<polyline class="st0" points="175.7,135.7 145.5,123.2 110.6,135.7 175.7,135.7 			"/>
		</g>
		<g>
			<polyline class="st0" points="175.7,135.7 129.8,181.4 145.1,147.9 175.7,135.7 			"/>
		</g>
		<g>
			<polygon class="st0" points="175.7,200.4 175.7,135.7 163.2,165.5 			"/>
		</g>
		<g>
			<polygon class="st0" points="221.3,181.4 175.7,135.7 188,165.4 			"/>
		</g>
		<g>
			<polygon class="st0" points="240.4,135.7 175.7,135.7 205.5,147.8 			"/>
		</g>
		<g>
			<polygon class="st0" points="221.4,89.8 175.7,135.7 205.5,123 			"/>
		</g>
		<g>
			<polygon class="st0" points="175.7,70.6 175.7,135.7 187.9,105.5 			"/>
		</g>
		<g>
			<polygon class="st0" points="129.5,89.6 175.7,135.7 163,105.6 			"/>
		</g>
	</g>
	<path class="st1" d="M46.1,121.1C46.1,121.1,46.1,121.1,46.1,121.1c0.1,1.2,0.3,2.5,0.5,3.8C46.4,123.6,46.3,122.4,46.1,121.1z"/>
	<g>
		<path class="st1" d="M304.9,121.1C304.9,121.1,304.9,121.1,304.9,121.1c-0.1,1.2-0.3,2.5-0.5,3.8
			C304.6,123.6,304.8,122.4,304.9,121.1z"/>
		<g>
			<path class="st1" d="M175.9,295.3C175.9,295.3,175.9,295.2,175.9,295.3c-0.1,0-0.1,0-0.2,0H175.9z"/>
			<path class="st1" d="M305,121.2c0.5,4.8,0.7,9.6,0.7,14.5c0,70.4-57.6,129.4-130.1,130c-72.5-0.5-130.1-59.5-130.1-130
				c0-4.9,0.1-9.7,0.7-14.5c-0.2,1.2-2.6,18.4-2.6,35.3c0,71.2,60.4,137.5,132.3,138.8c71.9-1.3,131.8-67.6,131.8-138.8
				C307.6,139.5,305.1,122.4,305,121.2z"/>
		</g>
	</g>
	<path class="st0" d="M175.5,236.7c-67,0-122.1-50.6-129.4-115.6c-0.5,4.8-0.8,9.7-0.8,14.6c0,71.9,58.3,130.2,130.2,130.2
		c71.9,0,130.8-58.2,130.2-130.2c0-4.9-0.3-9.8-0.8-14.6C297.7,186.1,242.5,236.7,175.5,236.7z"/>
</g>
</svg>
