<?xml version="1.0" encoding="utf-8"?>
<!-- Generator: Adobe Illustrator 19.0.0, SVG Export Plug-In . SVG Version: 6.00 Build 0)  -->
<svg version="1.1" id="layer" xmlns="http://www.w3.org/2000/svg" xmlns:xlink="http://www.w3.org/1999/xlink" x="0px" y="0px"
	 viewBox="-153 -46 652 652" style="enable-background:new -153 -46 652 652;" xml:space="preserve">
<style type="text/css">
	.st0{fill:#0E4E8B;}
</style>
<path class="st0" d="M202.8,89.6c0.8,0.2,1.6,0.3,2.2,0.4c0.7,0.1,1.3,0.3,1.8,0.5c0.1-1.6,0.4-3.6,0.8-6.2c0.5-2.5,1-5.6,1.7-9.2
	h0.1c1.2,2.8,2.3,5.8,3.4,8.6c1.1,2.8,2.2,5.7,3.4,8.5c0.7,0.1,1.5,0.2,2.1,0.3c0.7,0.1,1.4,0.3,2.1,0.4c0.7,0.1,1.5,0.3,2.2,0.4
	c0.8,0.1,1.6,0.3,2.5,0.6c-0.5-0.9-1.2-2.2-2-4s-1.7-3.7-2.5-5.8c-0.9-2.1-1.9-4.2-2.7-6.3c-0.9-2.1-1.8-4.2-2.4-6
	c0.8-0.7,2-1.6,3.3-2.7c1.5-1.2,2.9-2.3,4.5-3.5c1.6-1.2,3-2.3,4.4-3.3c1.4-1,2.4-1.8,3-2.2c-0.6,0-1.1-0.1-1.6-0.1s-1-0.1-1.4-0.2
	c-0.5-0.1-0.9-0.2-1.4-0.3s-0.9-0.3-1.4-0.4c-0.6,0.6-1.4,1.4-2.5,2.3c-1.2,1.1-2.5,2.1-3.9,3.4c-1.5,1.3-2.9,2.5-4.5,3.8
	c-1.6,1.3-3,2.5-4.4,3.6l0.9-4.7c0.5-2.3,0.9-4.6,1.3-6.5c0.4-2,0.8-3.4,1.2-4.4c-0.6,0-1.2-0.1-1.9-0.2c-0.7-0.1-1.4-0.2-2.2-0.4
	c-0.8-0.2-1.6-0.3-2.1-0.5c-0.7-0.2-1.3-0.4-1.8-0.5c-0.3,2.1-0.6,4.3-0.9,6.4s-0.8,4.5-1.3,7.2l-1.3,6.6c-0.5,2.7-1,5.1-1.5,7.2
	c-0.5,2.1-1,4.1-1.5,6.2c0.6,0,1.2,0.1,1.9,0.3C201.2,89.3,202,89.4,202.8,89.6z M250.9,103.2c0.8,0.4,1.5,0.7,2.1,1
	c0.6,0.3,1.2,0.6,1.7,0.9c0.8-2,1.6-3.8,2.4-5.9c0.9-2,1.9-4.2,3.1-6.6l0.9-1.9l0.4,0.2l1.3,18.1c0.7,0.3,1.4,0.6,2.1,0.9
	c0.7,0.3,1.4,0.7,2.1,1c0.7,0.3,1.4,0.7,2.1,1c0.7,0.3,1.4,0.7,2,1.1c-0.5-3.3-0.9-6.5-1.4-9.9c-0.4-3.3-0.8-6.6-1-9.9
	c2.5,0.5,4.7,0.4,6.5-0.5c1.9-0.8,3.3-2.3,4.4-4.5c0.7-1.4,1-2.6,0.9-3.9c-0.1-1.3-0.4-2.3-1-3.5c-0.3-0.5-0.6-0.9-0.9-1.3
	c-0.4-0.4-0.8-0.8-1.3-1.2s-1.2-0.8-2-1.3c-0.8-0.5-1.8-1-2.9-1.5c-1.6-0.8-2.8-1.3-3.9-1.8c-1.1-0.4-2.1-0.8-2.8-1.2
	c-0.8-0.4-1.4-0.7-2-1.1c-0.6-0.3-1.1-0.7-1.6-1c-0.8,2.1-1.7,4-2.5,6s-1.9,4.2-3.1,6.6l-2.9,6.2c-1.2,2.4-2.2,4.7-3.3,6.5
	c-1,2-2,3.7-3,5.6c0.6,0.2,1.1,0.4,1.7,0.7C249.5,102.6,250.2,102.9,250.9,103.2z M267.9,76.7c1.3,0.6,2.2,1.2,3.1,1.7
	c0.8,0.6,1.5,1.2,1.8,1.9c0.4,0.7,0.5,1.5,0.4,2.3c-0.1,0.9-0.5,2.1-1.1,3.3c-1.1,2.1-2.3,3.5-3.9,4.1c-1.6,0.6-3.3,0.4-5.3-0.6
	c-0.2-0.1-0.3-0.2-0.5-0.3c-0.2-0.1-0.3-0.2-0.5-0.3C263.8,84.8,265.9,80.8,267.9,76.7z M373,252.5c2.4-2.3,4.9-4.5,7.4-6.5
	c1.1,2.3,2.4,4,4.2,5.1c1.8,1.1,3.8,1.4,6.2,0.9c1.5-0.3,2.6-0.8,3.6-1.6c1-0.8,1.7-1.8,2.2-2.8c0.2-0.5,0.4-1,0.5-1.5
	s0.2-1.1,0.2-1.8c0-0.7,0-1.5-0.1-2.3s-0.3-2-0.5-3.2c-0.3-1.7-0.6-3-0.9-4.2c-0.3-1.1-0.5-2.1-0.7-3c-0.2-0.8-0.3-1.6-0.3-2.2
	c-0.1-0.7-0.1-1.3-0.2-1.9c-2.1,0.5-4.2,1-6.3,1.5c-2.1,0.5-4.5,1-7.2,1.5l-6.6,1.3c-2.7,0.5-5.2,0.9-7.2,1.3
	c-2.1,0.3-4.2,0.6-6.3,0.9c0.2,0.6,0.3,1.2,0.4,1.8c0.1,0.7,0.3,1.4,0.4,2.2c0.2,0.8,0.3,1.6,0.4,2.2c0.1,0.7,0.2,1.3,0.2,1.9
	c2-0.5,4-1,6.2-1.5c2.1-0.5,4.5-1,7.2-1.5l2.1-0.4l0.1,0.5L364,250.6c0.2,0.8,0.4,1.5,0.5,2.2s0.3,1.5,0.4,2.2s0.3,1.5,0.4,2.2
	c0.1,0.7,0.2,1.5,0.3,2.2C368.1,257.1,370.6,254.8,373,252.5z M393.4,235.8c0.3,1.4,0.4,2.5,0.5,3.5c0,1-0.1,1.9-0.4,2.5
	c-0.3,0.7-0.9,1.3-1.7,1.7c-0.8,0.5-2,0.8-3.3,1.1c-2.3,0.4-4.2,0.2-5.6-0.8c-1.4-1-2.2-2.4-2.6-4.6c0-0.2-0.1-0.3-0.1-0.5
	s0-0.4,0-0.6C384.4,237.2,388.9,236.4,393.4,235.8z M164,67.1v6.7c0,2.7,0,5.2-0.1,7.3c-0.1,2.1-0.2,4.3-0.3,6.3
	c0.6-0.1,1.2-0.1,1.9-0.1s1.4,0,2.2,0s1.6,0,2.2,0c0.7,0,1.3,0,1.9,0.1c-0.1-2.1-0.2-4.2-0.3-6.3s-0.1-4.6-0.1-7.3v-2.1h0.5l9,15.7
	c0.8-0.1,1.6-0.1,2.2-0.1c0.8,0,1.5,0,2.2,0s1.6,0,2.2,0c0.7,0,1.5,0,2.2,0.1c-1.9-2.7-3.7-5.6-5.5-8.3c-1.9-2.8-3.5-5.7-5.2-8.5
	c2.5-0.6,4.4-1.8,5.8-3.2c1.4-1.6,2-3.5,2-6c0-1.5-0.3-2.8-0.9-3.9c-0.6-1.1-1.4-2-2.3-2.7c-0.4-0.3-0.9-0.6-1.4-0.8
	s-1.1-0.4-1.7-0.5c-0.7-0.1-1.5-0.2-2.3-0.3s-2-0.1-3.2-0.1c-1.7,0-3.1,0-4.3,0.1s-2.1,0.1-3,0.1s-1.6,0-2.2-0.1
	c-0.7-0.1-1.3-0.1-1.9-0.2c0.1,2.1,0.2,4.3,0.3,6.4C164,61.9,164,64.4,164,67.1z M171.6,56.2c1.4,0,2.5,0.1,3.5,0.2s1.8,0.4,2.4,0.9
	c0.6,0.5,1.1,1.1,1.4,2s0.5,2.1,0.5,3.5c0,2.4-0.6,4.2-1.8,5.4c-1.2,1.2-2.8,1.8-5.1,1.8c-0.2,0-0.4,0-0.5,0c-0.2,0-0.4,0-0.6-0.1
	C171.5,65.2,171.6,60.7,171.6,56.2z M159.4,473.8c-0.8-0.8-1.9-1.5-3.1-2.1c-1.3-0.6-2.8-1-4.6-1.2c-1.6-0.2-2.9-0.2-4.3,0
	c-1.3,0.2-2.4,0.6-3.5,1.2c-1,0.6-1.9,1.4-2.5,2.2c-0.7,1-1.1,2.1-1.2,3.3c-0.1,0.9,0,1.8,0.2,2.5c0.2,0.8,0.6,1.6,1,2.2
	c0.5,0.7,1,1.3,1.7,1.8s1.4,0.9,2.1,1.1v0.4c-0.9,0.1-1.9,0.3-2.7,0.7c-0.9,0.4-1.7,0.9-2.3,1.6c-0.7,0.7-1.3,1.5-1.8,2.4
	s-0.8,2.1-1,3.4c-0.2,1.7-0.1,3,0.4,4.4c0.4,1.3,1.1,2.4,2.1,3.3c1,1,2.1,1.7,3.4,2.1c1.4,0.5,2.8,0.9,4.5,1.1
	c1.7,0.2,3.3,0.2,4.8,0c1.5-0.2,2.8-0.7,4-1.5c1.2-0.8,2.1-1.8,2.8-3c0.8-1.3,1.3-2.7,1.5-4.4c0.2-1.3,0.1-2.4-0.2-3.4
	s-0.7-2-1.3-2.7c-0.6-0.8-1.3-1.4-2-2c-0.8-0.5-1.5-0.9-2.2-1.1V486c0.8-0.1,1.6-0.3,2.2-0.6c0.8-0.3,1.4-0.8,2-1.3
	c0.6-0.6,1.1-1.3,1.5-2.1c0.4-0.8,0.7-1.8,0.8-2.7c0.1-1,0-2.1-0.3-3C160.8,475.6,160.2,474.7,159.4,473.8z M153.2,495.3
	c-0.3,2.7-1,4.7-2.1,5.9c-1,1.2-2.1,1.7-3.2,1.6c-1.3-0.2-2.2-0.9-2.9-2.3c-0.7-1.4-0.8-3.4-0.5-6.1c0.3-2.8,1-4.8,1.9-5.9
	c0.9-1.1,2.1-1.6,3.2-1.5c1.3,0.2,2.2,0.9,2.9,2.2C153.3,490.6,153.5,492.6,153.2,495.3z M154.7,479.2c-0.2,2-0.8,3.5-1.7,4.5
	s-2,1.5-3.1,1.4c-1-0.1-1.8-0.7-2.4-1.8s-0.9-2.5-0.7-4.5c0.3-2.1,0.8-3.6,1.5-4.8c0.8-1.1,1.9-1.6,3.3-1.4c1.3,0.2,2.1,0.8,2.6,2.1
	C154.8,475.9,155,477.5,154.7,479.2z M400.5,274.8c-0.5-1.4-1.2-2.5-2.1-3.5c-0.9-1-2.1-1.9-3.4-2.4c-1.4-0.6-2.8-0.9-4.6-0.9
	c-1.9,0-3.4,0.4-4.7,1.2c-1.2,0.8-2.2,1.7-3,2.7c-0.8,1.1-1.5,2.3-2.1,3.6s-1.2,2.5-1.8,3.6c-0.6,1.1-1.3,2.1-2.1,2.7
	c-0.8,0.8-1.9,1.1-3.1,1.2c-1.4,0-2.6-0.5-3.6-1.4c-1-1-1.6-2.4-1.6-4.4c0-1,0.1-1.9,0.4-2.7c0.3-0.8,0.7-1.5,1.2-2.1
	s1.1-1.1,1.7-1.4c0.7-0.4,1.4-0.6,2.1-0.8v-1c-1.2-0.2-2.1-0.4-3.1-0.6s-2.1-0.5-3.2-0.8c-0.6,0.8-1,1.9-1.4,3.2
	c-0.4,1.5-0.6,3-0.5,4.8c0,2,0.3,3.8,0.9,5.4c0.5,1.6,1.3,3,2.2,4.1c1,1.2,2.1,2.1,3.6,2.6c1.4,0.6,2.9,0.9,4.6,0.9
	c1.9,0,3.4-0.4,4.7-1.2c1.2-0.8,2.2-1.8,3-2.8c0.9-1.2,1.6-2.3,2.1-3.7c0.6-1.3,1.2-2.5,1.8-3.7c0.6-1.2,1.3-2.1,2.1-2.8
	c0.8-0.8,1.8-1.2,3-1.2c1.2,0,2.2,0.5,3.1,1.4c0.9,1,1.4,2.1,1.4,3.7c0,2.9-1.4,5-4.2,6.1v0.8c1.1,0.3,2.1,0.6,2.7,0.8
	c0.7,0.2,1.5,0.5,2.2,0.8c0.8-1,1.4-2.1,1.8-3.5s0.6-2.9,0.6-4.7C401.1,277.7,401,276.2,400.5,274.8z M338.6,162.8
	c-1.3,1.9-2.1,4-2.3,6.3c-0.3,2.2-0.2,4.6,0.4,7s1.7,4.9,3.1,7.3c1.2,1.9,2.4,3.7,3.9,5.5s3,3.4,4.7,5c0.2-0.2,0.7-0.5,1.3-0.9
	c0.6-0.4,1.3-0.8,2-1.2l1.4-0.9c0.7-0.4,1.4-0.9,2.1-1.3c0.8-0.5,1.5-0.9,2.1-1.3c0.7-0.4,1.3-0.7,1.9-1s1-0.4,1.2-0.5
	c-0.2-0.3-0.5-0.6-0.9-1.1s-0.8-1.3-1.5-2.2c-0.5-0.9-0.9-1.6-1.2-2.1c-0.2-0.5-0.4-0.9-0.5-1.3c-0.4,0.3-1.1,0.8-2.1,1.6
	s-2.7,1.9-5.1,3.2c-0.6,0.4-1.2,0.7-1.8,1c-0.5,0.3-1,0.5-1.4,0.7c-0.2-0.1-0.5-0.3-0.8-0.6c-0.3-0.3-0.7-0.7-1-1.1
	c-0.3-0.4-0.7-0.9-1-1.3c-0.3-0.5-0.6-0.9-0.8-1.3c-1-1.7-1.6-3.3-1.8-5c-0.2-1.7,0-3.2,0.6-4.8c0.5-1.6,1.4-2.9,2.5-4.3
	c1.2-1.4,2.6-2.5,4.3-3.5c2.2-1.4,4.4-2.2,6.4-2.6s3.9-0.4,5.7-0.1c1.8,0.4,3.2,1,4.6,2c1.4,1,2.4,2.1,3.2,3.4
	c1.2,2,1.8,3.9,1.9,5.7c0,1.9-0.3,3.6-1.1,5.3l0.4,0.6c0.8-0.3,1.7-0.6,2.5-0.8c0.9-0.2,1.7-0.4,2.5-0.7c-0.1-2.1-0.4-4-0.9-5.9
	c-0.5-1.9-1.4-3.8-2.7-6.1c-1.5-2.5-3.2-4.7-5.3-6.3c-2-1.8-4.1-3-6.4-3.8s-4.8-1-7.3-0.7c-2.5,0.3-5.2,1.3-7.9,2.9
	C341.6,159.3,339.8,160.9,338.6,162.8z M239.5,493.1c-0.1-0.6-0.3-1.1-0.3-1.6c-0.1-0.5-0.2-1.1-0.3-1.6c-2.2,0.8-4.5,1.5-6.7,2.1
	c-2.2,0.6-4.5,1.3-6.8,1.9l-0.1-0.1c2.1-3.1,3.9-5.8,5.3-8c1.4-2.2,2.3-4.2,2.9-6c0.7-1.7,1-3.1,1.1-4.4c0.1-1.3,0-2.4-0.3-3.4
	c-0.2-1-0.7-1.9-1.3-2.7c-0.6-0.9-1.5-1.7-2.4-2.2c-1.1-0.6-2.4-1-4-1.1c-1.6-0.1-3.5,0.1-5.8,0.7c-2.8,0.7-4.9,1.9-6.3,3.5
	c-1.4,1.7-2.1,3.3-2.2,5.3c0.8,0.4,1.6,0.7,2.2,1.1c0.8,0.4,1.5,0.8,2.3,1.2l0.5-0.3c-0.2-0.7-0.3-1.4-0.4-2.2
	c-0.1-0.9,0-1.7,0.1-2.4c0.2-0.8,0.5-1.6,1-2.2c0.5-0.7,1.2-1.1,2.1-1.4c0.6-0.2,1.3-0.2,1.9-0.1c0.7,0.1,1.3,0.4,1.9,0.8
	c0.6,0.4,1.2,1.1,1.7,1.9c0.5,0.8,0.9,1.9,1.3,3.2c0.4,1.6,0.6,3.2,0.5,4.9s-0.5,3.5-1.1,5.6c-0.7,2-1.7,4.2-2.8,6.5
	c-1.3,2.3-2.8,5-4.7,7.9l0.5,2.1c1.8-0.5,3.4-1,5.2-1.5s3.5-0.9,5.2-1.4c1.9-0.5,3.6-1,5.4-1.4c1.8-0.5,3.6-0.9,5.5-1.3
	c-0.2-0.5-0.3-0.9-0.5-1.5C239.8,494.2,239.6,493.6,239.5,493.1z M273.7,114.6c0.4,0.2,0.8,0.5,1.1,0.7c0.3,0.2,0.7,0.5,1,0.7
	c0.3,0.2,0.7,0.5,1,0.7c0.3,0.2,0.6,0.5,0.9,0.8c1.4-1.1,2.7-2.1,4.2-3.1c1.5-1.1,2.9-2.1,4.5-3c0.7,0.5,1.5,1,2.1,1.5
	c0.7,0.5,1.4,1,2.1,1.5c0.9,0.6,1.8,1.3,2.5,1.9c0.9,0.7,1.7,1.3,2.5,2c-0.5,1.8-1,3.5-1.6,5.2s-1.1,3.4-1.6,5
	c0.6,0.4,1.2,0.8,1.8,1.2c0.6,0.4,1.2,0.9,1.8,1.3c0.6,0.4,1.2,0.8,1.8,1.3c0.6,0.4,1.2,0.9,1.8,1.4c0.4-2.1,0.9-4.7,1.6-7.6
	c0.7-2.9,1.5-6.1,2.2-9.3c0.8-3.2,1.7-6.5,2.6-9.9c0.9-3.3,1.8-6.4,2.5-9.4c-0.3-0.1-0.6-0.3-0.9-0.4c-0.3-0.1-0.6-0.3-0.8-0.5
	c-0.3-0.2-0.5-0.4-0.7-0.6c-0.2-0.2-0.4-0.5-0.7-0.7c-1.7,1.1-3.5,2.2-5.6,3.5s-4,2.5-6.1,3.8c-2.1,1.3-4.1,2.5-6.2,3.8
	c-2.1,1.3-3.9,2.4-5.8,3.5c-1.8,1.1-3.4,2.1-4.8,2.9C275.7,113.4,274.5,114.1,273.7,114.6z M294.3,106.1c1.8-1.2,3.6-2.2,5.5-3.3
	c-0.5,2.1-1.1,4.1-1.7,6.2c-0.6,2-1.2,4-1.8,6.1l-7.4-5.4C290.8,108.4,292.6,107.2,294.3,106.1z M350.8,103.2
	C303.6,56,240.8,30,174,30S44.4,56-2.8,103.2S-76,213.2-76,280s26,129.6,73.2,176.8C44.5,504,107.2,530,174,530s129.6-26,176.8-73.2
	C398,409.5,424,346.8,424,280S398,150.4,350.8,103.2z M174,519.5C42,519.5-65.5,412-65.5,280S42,40.5,174,40.5S413.5,148,413.5,280
	S306,519.5,174,519.5z M304.4,137.6c0.6,0.5,1.1,1.1,1.7,1.7c0.3,0.3,0.5,0.6,0.8,0.9s0.5,0.6,0.8,1c0.3-0.3,0.6-0.6,1-1.1
	c0.4-0.5,1-1,1.7-1.7s1.6-1.5,2.5-2.4s2.2-2.1,3.7-3.5l4.2-3.9c0.7-0.7,1.5-1.4,2.1-2c0.7-0.7,1.5-1.3,2.1-2
	c-0.7,11.1-1.7,21.9-2.8,32.3c0.4,0.4,0.9,0.8,1.4,1.4c0.5,0.5,0.9,1.1,1.4,1.6l4.4-4.1c1.8-1.7,3.4-3.1,5-4.6s3.1-2.8,4.8-4.3
	c1.7-1.5,3.4-2.9,5.3-4.5s3.9-3.3,6.3-5.3c-0.8-0.6-1.4-1.1-1.8-1.5s-0.9-1-1.4-1.9c-0.2,0.3-0.6,0.8-1.3,1.5
	c-0.7,0.7-1.5,1.5-2.4,2.4c-1,0.9-2.1,2-3.1,3c-1.2,1.1-2.3,2.1-3.5,3.3l-3.5,3.3l-3.2,2.9c0.4-5.5,0.9-10.8,1.3-16.1
	s0.9-10.5,1.4-15.9c-0.8-0.6-1.4-1.1-1.8-1.5s-0.9-1-1.4-1.9c-0.9,0.9-1.9,1.9-2.9,2.9s-2.4,2.4-4.2,4c-1.9,1.8-3.8,3.5-5.9,5.3
	c-2.1,1.8-4,3.4-5.8,5c-1.8,1.5-3.3,2.8-4.6,3.8C305.3,136.8,304.6,137.4,304.4,137.6z M364.1,200c-2.5,1-4.9,1.8-6.9,2.4
	c-2.1,0.7-4,1.4-6.1,2c0.1,0.2,0.3,0.5,0.4,0.9c0.2,0.4,0.4,0.9,0.6,1.6c0.3,0.7,0.6,1.7,1.1,2.7c0.4,1.2,1,2.7,1.8,4.6
	c0.8,2.1,1.5,3.8,1.9,5.1c0.5,1.3,0.8,2.2,1.1,3.1c0.2-0.1,0.4-0.3,0.7-0.4c0.3-0.1,0.7-0.3,1.2-0.5c0.5-0.2,0.9-0.3,1.2-0.4
	c0.3-0.1,0.6-0.1,1-0.2c-0.9-1.8-1.8-3.4-2.4-5.2c-0.8-1.8-1.5-3.5-2.1-5.3c1.9-0.8,3.8-1.6,5.8-2.3c1-0.4,2-0.7,3-1.1
	c1-0.4,2.1-0.7,3-1.1c1.3,3.5,2.4,7.1,3.5,10.7c0.5-0.3,0.9-0.5,1.1-0.6c0.3-0.1,0.5-0.3,0.8-0.4c0.3-0.1,0.6-0.2,0.9-0.3
	c0.3-0.1,0.7-0.2,1.3-0.3c-0.8-1.8-1.5-3.4-2.1-5.1c-0.7-1.7-1.4-3.4-2.1-5.5c1.8-0.7,3.4-1.3,5.1-1.9c1.7-0.6,3.4-1.2,5.2-1.7
	c0.1,0.4,0.3,0.9,0.6,1.8c0.3,0.8,0.6,1.8,0.9,2.8c0.3,1.1,0.7,2.1,1,3.2c0.3,1.1,0.7,2.1,0.9,3c0.3-0.2,0.6-0.4,0.9-0.5
	c0.3-0.1,0.7-0.3,1.2-0.5c0.8-0.3,1.5-0.5,2.1-0.6c-0.3-0.6-0.8-1.8-1.5-3.5c-0.7-1.8-1.5-3.8-2.3-6.2c-0.5-1.4-1-2.8-1.5-4.2
	c-0.5-1.4-0.9-2.8-1.4-4.2c-2,0.9-4,1.7-6,2.5c-2,0.8-4.3,1.7-6.8,2.6L364.1,200z M354.7,373.4c-1.1-0.4-2.1-0.7-3.3-0.7
	c-1.4,0-2.5,0.3-2.5,0.3s0.6,0.5,0.8,0.6c1.8,1.3,7.1,6.2,4.3,18.1c-1.9,7.7-11.8,22.2-36.8,22.3l0,0c-1.6,0-3.1-0.1-4.8-0.2
	c-4.9-0.4-9.8-1.5-14.6-3c1.2-1.1,2.3-2.2,3.5-3.4c3.4-3.4,6.7-7,9.9-10.7c-3.2-0.2-6.5-1-9.7-2.1c-4,4.4-8.2,8.7-12.6,12.7
	c-8.9-4-18.7-10-28.1-16.1c-3.8-2.4-10.3-6.7-13.7-8.9c-12-7.5-24-14.6-39-19.8v-24.9c23.9,5.6,46.9,22.3,57.7,30
	c1.4,1,2.7,2.1,4.3,3.2c10.2,7.5,29,21.1,47.9,21.1c24.4,0,25.5-15.8,25.3-16.8c0,0-0.5,0.5-0.9,1c-1.4,1.4-4.9,4.5-13.4,4.2
	c-1.6-0.1-3.2-0.3-4.9-0.8c19.3-29.2,29.8-63.4,29.8-99.2c0-99.2-80.8-180-180-180C74.8,100-6,180.8-6,280s80.8,180,180,180
	c37.8,0,73.8-11.6,104-33c-3.3-1.1-6.5-2.3-9.7-3.8c-27.1,18-59.6,28.4-94.3,28.4c-94.5,0-171.5-77-171.5-171.5
	s77-171.5,171.5-171.5s171.5,77,171.5,171.5c0,35.5-10.9,68.7-29.5,96.1c-6.7-3.1-15.2-8.3-24.3-13.9c-1.5-1-3.1-2-4.7-2.9
	c-13.3-8.6-23.1-13.9-31-16.6c-0.8-0.3-2.8-0.9-3.8-1v-0.6c41.6-0.7,74.4-32.3,74.4-74.8c0-42.9-33.3-72.4-75.6-72.4c-1,0-2,0-2.9,0
	c-11.8-24.4-37.3-39.6-68-39.6c-15.9,0-30.2,4-41.9,10V157h-24.5c0,0,6.1,5.6,6.1,18.7v18.5c-6.3-1.5-12.8-2.3-19.2-2.3
	c-19.4,0-39,7-53.5,19.3c-11.9,10.1-26.2,28.5-26.2,59c0,30.3,14.7,48.6,27.1,58.8c10.1,8.3,22.7,14.2,35.7,17.1
	c1.8-3.3,3.4-6.9,4.1-9.9c-2.1-0.4-3.7-1-5.6-1.7c-6.9-2.7-11-7.9-11-14.1c0-9.1,6.5-12.3,11-12.3c6.2,0,12.7,4.2,13,16.3l0,0
	c0.7,32.1-34.6,54.1-37.8,56.1c3.1,3.6,6.4,7.1,10,10.4c0.9-0.5,2.1-1.1,2.9-1.6c12-6.5,39.8-22.3,80-22l0,0
	c12.6,0.1,23.9,1.9,34.1,4.7v-15.6c-7.2-1.1-15.1-1.8-23.8-1.8c-33.7-0.2-61.3,10-78.3,18.7L82,373c4.4-4,13.2-13.5,19.1-25.1
	c2.1,0,4.4-0.1,6.4-0.3c0.8-0.7,1.6-1.7,2.2-2.5c1-1.3,3.1-4.6,3.8-8.9c-2.7,0.6-5.5,1.1-8.3,1.3c1.1-3.7,1.8-7.4,2-11.2
	c0.3-10-2.2-18.4-7.3-23.6c-4.4-4.5-10.4-6.8-17.5-6.8c-9.3,0-20.9,6.3-21.7,20c-0.1,1.3,0.2,4,0.6,5.2l-0.5,0.2
	c-12.4-12.2-20-30.5-20-51.5c0-38.2,25.9-67,60.2-67c34.6,0,59.6,28.2,59.6,67c0,4.4-0.3,8.7-1,12.9c-8.3-2.7-15.3-7-21.3-12.1
	v-45.9c-5.3-5.6-11.4-9.8-18.6-12.5v117.6c0,11.9-6.1,18.9-6.1,18.9h29.8c0,0-2.7-3.4-4.2-10.2c5.2-2.6,10.1-5.9,14.6-9.5
	c6.9-5.7,14.6-14,19.9-25.5c-6.4-0.4-12.9-1.4-19.1-2.8c-3.9,9.1-9.5,16.9-16.3,23v-34.9c11.9,5.4,25.9,9,41.9,9
	c13.2,0,21.4-2.4,28-4.8c26.9-9.6,47-34.9,47-67.3c0-4.6-0.4-8.9-1.1-13.2c-6.4-0.4-16.1,1-20.4,2.2c0.6,3.5,0.9,7.2,0.9,11
	c0,23.6-10.5,42.5-26.3,52.3v-56.3c12.1-9.5,23.6-15.6,43.5-15.6c30.1,0,54,24.5,54,60.2c0,35.7-24.4,62.2-56.5,62.2
	c-16.2,0-28.8-4.4-41-11.7v-18.2c-5.9,2-12.1,3.3-18.5,4v69c0,11.9-6.2,18.9-6.2,18.9h30.5c0,0-3.5-3.6-4.8-9.5
	c8,3.5,18.3,9.9,25.2,14.4c3.1,2.1,6,4,8.6,5.8c20.7,13.4,39.6,25.2,67.4,25.2c18.3,0,29.9-5.8,37.2-11.1
	c8.5-6.2,13.4-14.8,14.6-22.5C364.6,378,356.3,374,354.7,373.4z M208.1,204.7v-7.8h-24.5c0,0,6.2,6.9,6.2,20v68.4
	c-2.7,0.5-5.6,0.7-8.4,0.7c-0.7,0-1.4,0-2.1,0c1-4.9,1.5-10.2,1.5-15.9c0-30.5-14.5-48.9-26.7-59c-4.8-4-10.1-7.4-15.7-10.3v-18
	c6.7-6.5,20.2-16.3,41.6-16.3c20.4,0,39,11.5,48,30.3C220.7,198.7,214.1,201.5,208.1,204.7z M-22.2,211.1c-2.1-0.6-4.1-1.1-6-1.7
	c-1.9-0.6-3.6-1.1-5.1-1.6c-1.6-0.5-2.9-0.9-4.1-1.3c-1.2-0.4-2.1-0.7-2.8-1c0,0.4-0.1,0.9-0.2,1.3c-0.1,0.4-0.1,0.8-0.3,1.3
	c-0.1,0.4-0.2,0.8-0.4,1.2c-0.2,0.4-0.3,0.8-0.5,1.3c2.2,0.5,4.5,1,6.7,1.5c2.2,0.5,4.4,1.1,6.6,1.7c2.2,0.6,4.4,1.3,6.4,2
	c2.1,0.7,3.8,1.6,5.3,2.5s2.5,2.1,3.2,3.5c0.7,1.4,0.8,3,0.2,4.9c-0.4,1.6-1,2.9-1.6,4c-0.7,1.1-1.6,2-2.7,2.4
	c-1.2,0.6-2.7,0.8-4.7,0.7c-2-0.1-4.3-0.5-7.2-1.3c-2.7-0.8-5.5-1.5-8.1-2.3c-2.6-0.8-5.5-1.8-8.5-2.9c-0.1,0.7-0.2,1.4-0.4,2.1
	c-0.1,0.7-0.3,1.4-0.5,2c-0.2,0.7-0.4,1.3-0.6,2c-0.2,0.7-0.5,1.3-0.7,2c0.8,0.2,2.1,0.4,3.6,0.8c1.7,0.4,3.7,1,6.3,1.7
	c0.9,0.2,1.7,0.5,2.5,0.7c0.8,0.2,1.7,0.5,2.5,0.7c0.9,0.2,1.8,0.5,2.8,0.8c1,0.3,2.1,0.6,3.4,1c2.2,0.6,4.3,0.8,6.2,0.4
	c1.8-0.3,3.4-1,4.8-2.1s2.5-2.4,3.4-4.1c0.9-1.7,1.7-3.5,2.2-5.6c1.3-4.7,1-8.5-0.8-11.6C-12.9,214.8-16.6,212.5-22.2,211.1z
	 M-13.2,253.6c-0.2,0.5-0.7,2.2-0.9,3c-0.4,1.3-0.9,2.7-1.5,4.4c-0.5,1.4-1,2.6-1.6,4c-0.6-2.1-1.5-3.8-2.4-5.5
	c-1.1-1.6-2.2-3-3.7-4.2c-1.4-1.2-3-2.1-4.7-2.7c-1.8-0.7-3.6-1.1-5.6-1.1c-3-0.1-5.7,0.2-7.9,1.1c-2.2,0.9-4.2,2.1-5.8,3.8
	c-1.6,1.7-2.7,3.6-3.5,5.9c-0.9,2.2-1.3,4.7-1.5,7.4c-0.1,2.9,0.2,5.6,1.1,7.9c0.8,2.4,2.1,4.5,3.6,6.3s3.4,3.1,5.5,4.1
	c2.1,1,4.4,1.6,6.8,1.7c3.1,0.1,5.8-0.2,8.1-1.2c2.2-0.9,4.2-2.1,5.7-3.8c1.6-1.7,2.6-3.5,3.4-5.8c0.8-2.1,1.2-4.5,1.3-6.9
	c1-1.8,2-3.8,2.6-5c0.7-1.2,1.3-2.4,2-3.6c0.5-0.9,1.1-1.9,1.7-2.7c-0.6-1-1.1-2.1-1.6-3.3C-12.5,256-13.1,253.9-13.2,253.6z
	 M-20.5,275.6c-0.6,1.3-1.4,2.3-2.5,3.2c-1.2,0.9-2.6,1.7-4.5,2.1c-1.9,0.5-4.1,0.7-6.7,0.6c-2.1-0.1-4.1-0.4-6-1
	c-1.9-0.6-3.4-1.4-4.8-2.3s-2.4-2.1-3.1-3.5c-0.8-1.4-1.1-2.9-1-4.6c0.1-1.6,0.5-3,1.2-4.4c0.7-1.3,1.7-2.4,2.9-3.3s2.7-1.6,4.5-2.1
	s3.7-0.6,5.9-0.6c2.7,0.1,5.1,0.5,7,1.3c2,0.7,3.6,1.6,4.8,2.6c1.3,1.1,2.1,2.3,2.7,3.7c0.6,1.4,0.8,2.8,0.8,4.3
	C-19.7,273.1-19.9,274.3-20.5,275.6z M116.4,466.3c-2.5,0.3-5.2,0.6-7.9,0.8c0.2,0.3,0.5,0.8,0.8,1.5c0.3,0.7,0.6,1.3,0.8,1.9
	c0.5-0.1,1.1-0.2,1.7-0.3c0.6-0.1,1.3-0.2,1.9-0.4c0.6-0.1,1.2-0.2,1.7-0.3c0.5-0.1,0.9-0.2,1.2-0.2l-3.9,13.5
	c-0.4,1.4-0.8,2.6-1.3,4c-0.4,1.3-0.9,2.5-1.3,3.7c-0.4,1.2-0.8,2.2-1.1,3.1c-0.4,1-0.6,1.7-0.8,2.1c0.7,0.1,1.3,0.3,2,0.5
	c0.6,0.2,1.3,0.4,1.9,0.6c0.7,0.2,1.3,0.4,1.9,0.6c0.6,0.2,1.3,0.4,1.9,0.7c0.6-2.3,1.1-4.4,1.6-6.3c0.5-1.8,1-3.5,1.5-5.3l1.1-3.6
	l0.9-2.9c0.4-1.2,0.7-2.4,1.2-3.7c0.4-1.3,0.8-2.5,1.2-3.7c0.4-1.3,0.8-2.4,1.2-3.6c0.4-1.2,0.8-2.2,1.1-3.1l-0.8-0.7
	C121.6,465.6,118.8,466,116.4,466.3z M-2.2,203.3c0.2-0.4,0.4-0.9,0.7-1.6c0.3-0.7,0.8-1.6,1.3-2.6c0.6-1.2,1.3-2.6,2.1-4.5
	c1-2.1,1.8-3.7,2.3-4.9c0.6-1.2,1.1-2.1,1.5-2.9c-0.2,0-0.5-0.1-0.8-0.2c-0.3-0.1-0.7-0.3-1.2-0.5c-0.5-0.2-0.9-0.4-1.1-0.6
	c-0.3-0.2-0.5-0.4-0.9-0.6c-0.6,1.9-1.3,3.6-2.1,5.4c-0.8,1.8-1.6,3.5-2.3,5.2c-1.9-0.8-3.7-1.7-5.7-2.5c-1-0.5-2-1-2.8-1.4
	c-1-0.5-2-1-2.8-1.4c1.7-3.4,3.4-6.7,5.4-10c-0.5-0.2-0.9-0.3-1.2-0.4c-0.3-0.1-0.5-0.2-0.8-0.3c-0.3-0.1-0.6-0.3-0.9-0.5
	s-0.6-0.4-1.1-0.8c-0.8,1.8-1.5,3.4-2.1,5s-1.5,3.4-2.4,5.4c-1.7-0.8-3.3-1.6-4.9-2.3s-3.2-1.7-4.8-2.5c0.2-0.3,0.5-0.9,0.9-1.7
	s0.9-1.7,1.4-2.5c0.5-1,1.1-2,1.7-2.9c0.6-1,1.1-2,1.6-2.7c-0.4-0.1-0.7-0.2-1-0.3c-0.3-0.1-0.7-0.3-1.2-0.5
	c-0.8-0.4-1.4-0.8-1.8-1.1c-0.2,0.6-0.8,1.9-1.6,3.5c-0.8,1.8-1.8,3.7-2.8,6c-0.7,1.4-1.4,2.6-2.1,3.9c-0.7,1.3-1.4,2.6-2.1,3.9
	c2,0.9,4,1.7,6,2.5s4.2,2,6.6,3.1l6.2,2.9c2.4,1.2,4.7,2.2,6.5,3.3c1.9,1,3.8,2,5.6,3C-2.5,203.9-2.4,203.6-2.2,203.3z M200.3,491.1
	c-0.5-1-1.1-1.8-1.8-2.4c-0.7-0.7-1.5-1.2-2.3-1.6c-0.9-0.4-1.7-0.6-2.4-0.7v-0.4c0.8-0.2,1.5-0.6,2.1-1c0.7-0.5,1.3-1,1.8-1.7
	c0.5-0.7,0.8-1.4,1.1-2.2c0.2-0.9,0.3-1.8,0.3-2.8c-0.1-1.1-0.4-2-0.9-2.9c-0.5-0.9-1.2-1.7-2.1-2.3c-0.9-0.7-2.1-1.1-3.4-1.5
	c-1.4-0.3-2.9-0.4-4.8-0.3c-1.6,0.1-2.9,0.4-4.2,0.8c-1.3,0.4-2.3,1.1-3.2,1.8c-0.9,0.8-1.6,1.7-2.1,2.7s-0.7,2.2-0.6,3.5
	c0.1,0.9,0.3,1.8,0.7,2.4c0.4,0.8,0.8,1.5,1.4,2c0.6,0.6,1.2,1.1,2,1.4c0.7,0.4,1.5,0.6,2.2,0.7v0.4c-0.9,0.3-1.8,0.7-2.5,1.2
	c-0.8,0.6-1.5,1.2-2.1,2c-0.6,0.8-1,1.8-1.3,2.7c-0.3,1.1-0.4,2.2-0.3,3.6c0.1,1.7,0.5,3,1.2,4.2c0.7,1.2,1.6,2.1,2.6,2.9
	c1.1,0.8,2.3,1.3,3.8,1.6c1.5,0.3,3,0.4,4.7,0.2c1.7-0.1,3.2-0.4,4.7-0.9s2.6-1.3,3.6-2.1c1-1,1.8-2.1,2.2-3.4s0.7-2.9,0.6-4.6
	C201,493.3,200.7,492.1,200.3,491.1z M185,475.5c0.5-1.2,1.6-1.9,3-2c1.3-0.1,2.2,0.4,2.9,1.5c0.7,1.1,1.1,2.5,1.3,4.4
	c0.1,2-0.1,3.6-0.8,4.7c-0.7,1.2-1.6,1.8-2.8,1.9c-1,0.1-1.9-0.4-2.7-1.3c-0.9-0.9-1.4-2.3-1.5-4.3
	C184.3,478.4,184.4,476.8,185,475.5z M192.8,501.7c-0.8,1.4-1.8,2.1-2.9,2.1c-1.3,0.1-2.3-0.5-3.2-1.8c-0.9-1.3-1.4-3.2-1.6-5.9
	c-0.2-2.8,0.1-4.9,0.8-6.1c0.7-1.3,1.7-2,2.9-2c1.3-0.1,2.4,0.5,3.3,1.7c0.9,1.2,1.5,3.1,1.7,5.8
	C193.9,498.3,193.6,500.3,192.8,501.7z M-4.9,165.2l5.6,3.9c2.2,1.6,4.3,3,6,4.3c1.8,1.3,3.4,2.5,5,3.8c0.1-0.2,0.3-0.5,0.5-0.9
	c0.2-0.3,0.5-0.8,1-1.4c0.4-0.6,1-1.5,1.7-2.4c0.7-1.1,1.7-2.3,2.8-4c1.3-1.9,2.3-3.3,3.1-4.4c0.8-1.1,1.5-2,2-2.6
	c-0.2-0.1-0.4-0.2-0.7-0.3c-0.3-0.1-0.6-0.4-1.1-0.7c-0.4-0.3-0.8-0.6-1-0.8c-0.2-0.2-0.5-0.4-0.8-0.7c-0.9,1.8-1.9,3.4-2.8,5
	c-1,1.6-2.1,3.2-3.1,4.8c-1.7-1.1-3.4-2.2-5.2-3.4c-0.9-0.6-1.8-1.3-2.6-1.9c-0.9-0.6-1.8-1.3-2.6-1.9c2.1-3.1,4.4-6.1,6.8-9
	c-0.5-0.3-0.9-0.4-1.1-0.6c-0.3-0.1-0.5-0.3-0.7-0.4c-0.3-0.2-0.5-0.4-0.8-0.6c-0.2-0.2-0.6-0.5-1-0.9c-1,1.7-2,3.1-2.9,4.6
	s-2.1,3.1-3.2,4.9c-1.5-1.1-3-2.1-4.5-3.1s-2.9-2.1-4.3-3.3c0.2-0.3,0.6-0.8,1.1-1.5s1.1-1.5,1.8-2.3c0.7-0.9,1.4-1.8,2.1-2.6
	s1.4-1.8,2-2.4c-0.3-0.2-0.7-0.3-0.9-0.5c-0.3-0.1-0.6-0.4-1.1-0.7c-0.7-0.5-1.3-1-1.6-1.4c-0.3,0.6-1,1.7-2.1,3.2
	c-1.1,1.6-2.2,3.4-3.7,5.5c-0.9,1.3-1.8,2.4-2.6,3.6c-0.9,1.2-1.8,2.3-2.6,3.5c1.9,1.2,3.6,2.3,5.5,3.5
	C-9.2,162.2-7.2,163.6-4.9,165.2z M98.1,81.1l2.1,6.4c0.9,2.6,1.6,5,2.2,7c0.6,2.1,1.2,4.1,1.7,6.1c0.5-0.2,1.1-0.5,1.8-0.7
	c0.6-0.2,1.4-0.5,2.1-0.7c0.8-0.3,1.5-0.5,2.1-0.7c0.6-0.2,1.3-0.4,1.8-0.5c-0.9-2.2-1.8-4.6-2.6-6.8c-0.8-2.3-1.7-4.7-2.4-7
	l2.4-0.8c1.8-0.6,3.3-1.3,4.7-2.1c1.4-0.9,2.4-1.9,3.2-3c0.8-1.2,1.4-2.5,1.5-4c0.2-1.5,0-3.1-0.7-5c-0.5-1.5-1.1-2.5-2-3.4
	c-0.8-0.9-1.9-1.6-3.1-2.1c-1-0.4-2.1-0.6-3.4-0.5c-1.4,0.1-3.2,0.5-5.5,1.3c-1.2,0.4-2.2,0.8-3.4,1.3c-1.2,0.5-2.2,0.9-3.4,1.3
	c-0.8,0.3-1.5,0.5-2.1,0.6c-0.7,0.2-1.3,0.3-1.9,0.4c0.8,2.1,1.6,4,2.3,6.1C96.5,76.1,97.2,78.4,98.1,81.1z M102.2,68.1
	c0.2-0.1,0.3-0.1,0.5-0.2l1.1-0.4c0.7-0.2,1.4-0.3,2.1-0.3c0.7,0,1.4,0.2,2,0.5c0.6,0.3,1.2,0.9,1.8,1.6c0.6,0.8,1,1.7,1.4,2.9
	c0.5,1.6,0.7,2.8,0.6,3.9c-0.1,1.1-0.5,2-1,2.6s-1.2,1.3-2,1.8c-0.8,0.4-1.6,0.8-2.3,1.1c-0.8-2.2-1.5-4.4-2.1-6.6
	c-0.7-2.2-1.5-4.4-2.1-6.7C101.9,68.3,102,68.2,102.2,68.1z M128.3,92.6c0.4-0.1,0.8-0.1,1.2-0.2c0.4-0.1,0.8-0.1,1.2-0.1
	c0.2-1.7,0.4-3.4,0.7-5.2s0.6-3.5,1-5.4c0.9-0.2,1.7-0.4,2.5-0.5c0.9-0.2,1.7-0.3,2.5-0.5c1.1-0.2,2.1-0.4,3.1-0.5
	c1.1-0.2,2.1-0.3,3.1-0.5c0.9,1.6,1.8,3.1,2.6,4.7c0.9,1.6,1.7,3.1,2.4,4.6c0.7-0.2,1.4-0.3,2.1-0.5c0.7-0.1,1.4-0.2,2.1-0.4
	c0.7-0.1,1.4-0.2,2.1-0.4c0.7-0.1,1.5-0.2,2.2-0.3c-1.3-1.8-2.7-3.9-4.3-6.4c-1.7-2.5-3.3-5.3-5.1-8.1c-1.8-2.8-3.5-5.8-5.2-8.8
	c-1.8-2.9-3.4-5.8-4.9-8.4c-0.3,0.1-0.6,0.2-0.9,0.3c-0.3,0.1-0.6,0.2-0.9,0.2c-0.3,0.1-0.7,0.1-1,0.1s-0.6,0-1,0
	c-0.4,2-0.9,4.1-1.4,6.4s-1,4.7-1.6,7c-0.5,2.3-1.1,4.8-1.6,7c-0.5,2.3-1,4.5-1.5,6.5c-0.5,2.1-0.9,3.9-1.3,5.5
	c-0.4,1.7-0.7,2.9-1,3.8c0.5-0.1,0.9-0.3,1.3-0.3C127.5,92.7,127.9,92.7,128.3,92.6z M134.3,72.4c0.4-2.1,0.9-4.1,1.4-6.3
	c1.1,1.9,2.2,3.6,3.2,5.5c1.1,1.8,2.1,3.6,3.1,5.5l-9,1.6C133.5,76.6,133.9,74.4,134.3,72.4z M13.6,134.2c1.8,1.9,3.5,3.7,5.4,5.8
	c1.9,2.1,3.5,3.9,5.1,5.7s2.8,3.2,3.9,4.5s1.7,2,1.8,2.2c0.5-0.6,1.1-1.2,1.6-1.7c0.3-0.3,0.6-0.5,0.8-0.8c0.3-0.3,0.6-0.5,1-0.8
	c-0.3-0.2-0.7-0.6-1.1-1c-0.5-0.4-1.1-1-1.8-1.7c-0.7-0.7-1.6-1.5-2.5-2.5c-1-1-2.1-2.2-3.5-3.6l-4-4.2c-0.7-0.7-1.4-1.5-2.1-2.1
	c-0.7-0.7-1.3-1.5-2-2.1c11.1,0.5,22,1.2,32.4,2.1c0.4-0.5,0.8-0.9,1.4-1.5c0.5-0.5,1-1,1.6-1.4l-4.2-4.3c-1.7-1.8-3.2-3.3-4.7-4.9
	c-1.5-1.6-2.9-3.1-4.4-4.7c-1.5-1.6-3-3.3-4.6-5.2c-1.7-1.9-3.4-3.9-5.4-6.2c-0.6,0.8-1.1,1.4-1.5,1.8c-0.4,0.4-1,0.9-1.8,1.4
	c0.3,0.2,0.8,0.6,1.5,1.3c0.7,0.7,1.6,1.5,2.4,2.4c1,1,2,2,3,3.1c1.1,1.2,2.2,2.2,3.3,3.4l3.3,3.5l3,3.1c-5.5-0.3-10.8-0.6-16.1-1
	c-5.3-0.3-10.5-0.7-16-1.1c-0.6,0.8-1.1,1.4-1.5,1.8c-0.4,0.4-1,0.9-1.8,1.4c0.9,0.9,1.9,1.8,3,2.8C10.6,131.2,12,132.5,13.6,134.2z
	 M48.1,103.7c1.1,1.6,2.1,2.7,3.4,3.3c1.3,0.6,2.6,1,4,1.1c1.4,0.1,2.7,0,4.2-0.2c1.4-0.2,2.7-0.4,4-0.5c1.3-0.1,2.4,0,3.4,0.3
	c1.1,0.3,2,1,2.6,2c0.8,1.2,1,2.4,0.8,3.8c-0.3,1.4-1.2,2.5-2.9,3.6c-0.9,0.6-1.7,0.9-2.5,1.1c-0.8,0.2-1.6,0.2-2.3,0.1
	c-0.8-0.1-1.5-0.3-2.1-0.7c-0.7-0.4-1.3-0.8-1.8-1.4l-0.8,0.5c0.5,1.1,0.9,2.1,1.2,2.9c0.3,1,0.7,2,1,3.1c0.9,0.1,2.1-0.1,3.5-0.6
	c1.4-0.5,2.8-1.2,4.4-2.1c1.7-1.1,3-2.2,4.1-3.6c1.1-1.3,1.9-2.7,2.2-4.1c0.5-1.5,0.6-2.9,0.3-4.4c-0.2-1.5-0.8-2.9-1.7-4.3
	c-1.1-1.6-2.1-2.7-3.5-3.3c-1.3-0.6-2.6-1-4-1.1c-1.4-0.1-2.8,0-4.2,0.2c-1.4,0.2-2.7,0.4-4,0.5c-1.3,0.1-2.4,0-3.5-0.3
	c-1.1-0.3-2-0.9-2.5-2c-0.7-1-0.8-2.1-0.5-3.4c0.3-1.3,1.1-2.3,2.4-3.1c2.4-1.6,5-1.5,7.4,0.3l0.6-0.4C61,90,60.7,89,60.5,88.3
	s-0.4-1.5-0.6-2.2c-1.3-0.1-2.5,0-3.9,0.4c-1.4,0.4-2.8,1.1-4.3,2.1c-1.3,0.8-2.3,1.8-3.2,2.9c-0.9,1.2-1.5,2.3-1.9,3.6
	c-0.4,1.3-0.5,2.7-0.3,4.1C46.6,100.8,47.1,102.3,48.1,103.7z"/>
</svg>
