<svg version="1.1" id="Layer_1" xmlns="http://www.w3.org/2000/svg" x="0" y="0" viewBox="0 0 141 141" style="enable-background:new 0 0 141 141" xml:space="preserve"><style>.st0{fill:#e03a3e}.st1{fill:#fff}.st4{fill:#0060a9}.st5{fill:#e9ae11;stroke:#000;stroke-width:.9217}</style><circle class="st0" cx="70.5" cy="70.5" r="70.5"/><circle cx="70.5" cy="70.5" r="68.5"/><circle class="st1" cx="70.5" cy="70.5" r="66.5"/><circle cx="70.5" cy="70.5" r="47.3"/><circle cx="70.5" cy="70.5" r="45.6" style="fill:#e9ae11"/><path class="st0" d="M59.6 70.5v41.9c3.5.9 7.2 1.4 10.7 1.4V70.5H59.6zM59.6 70.5H48.7V108c3.4 2 7 3.5 10.9 4.5v-42zM37.7 70.5V99c3.1 3.5 6.8 6.6 10.9 9V70.5H37.7zM37.7 70.5H26.8C26.9 81.3 31 91.3 37.7 99V70.5z"/><circle cx="70.5" cy="70.5" r="43.7" style="fill:none"/><path class="st0" d="m81.2 70.5.1-42.3c-3.5-.9-7.2-1.4-10.9-1.4v43.7h10.8z"/><path class="st0" d="M81.2 70.5H92V32.7c-3.4-2-8.1-4-10.7-4.5l-.1 42.3zM102.9 70.5V41.6c-3.1-3.5-6.8-6.6-10.9-9v37.9h10.9zM102.9 70.5h10.9c-.1-11.2-4.2-21.3-10.9-28.9v28.9z"/><path class="st4" d="M70.3 81.1h42.1c.9-3.5 1.4-7.2 1.4-10.6H70.3v10.6z"/><path class="st1" d="M70.3 81.1V92h37.6c2-3.4 3.5-7.1 4.5-10.9H70.3zM70.3 103v10.9c11 0 21-4.1 28.7-10.9H70.3z"/><path class="st4" d="M70.3 59.6H28.2c-.9 3.5-1.4 7.2-1.4 10.9h43.5V59.6z"/><path class="st1" d="M70.3 59.6V48.7H32.7c-2 3.4-3.5 7-4.5 10.9h42.1z"/><path class="st4" d="M70.3 37.7H41.6c-3.5 3.1-6.6 6.8-9 10.9h37.6V37.7z"/><path class="st1" d="M70.3 37.7V26.8c-11 0-21 4.2-28.7 10.9h28.7z"/><path class="st4" d="M70.3 103H99c3.5-3.1 6.6-6.8 9-10.9H70.4l-.1 10.9z"/><circle class="st1" cx="70.3" cy="70.5" r="17.2"/><path class="st5" d="M54.9 70.5c0 8.5 6.9 15.3 15.3 15.3 8.5 0 15.3-6.9 15.3-15.3"/><path class="st5" d="M82.7 72.4c.1.1.4 1.7.3 2.2-.1.4-2.9 4.6-3.3 4.6-.3.1-3.7-1.2-4.6-1.2-.9 0-2.2 1.1-2.6 1.1-.2 0-1.3.1-2.3.1-.9 0-2.1-.1-2.3-.1-.4 0-1.8-1.1-2.6-1.1s-4.3 1.3-4.6 1.2c-.4-.1-3.2-4.2-3.3-4.6-.1-.4.2-2 .3-2.2"/><path class="st5" d="M72.5 79.1s.9 4.3 1.2 6.3M79.7 79.2c.1.5-1.2 3.8-1.1 4M60.7 79.2c-.1.5 1.2 3.8 1.1 4M68 79.1s-.9 4.3-1.3 6.3M82.7 72.4c-.3.4-3.7 1.6-12.5 1.6M57.7 72.4c.3.4 3.7 1.6 12.5 1.6"/><path class="st5" d="M70.2 73.9c8.8 0 12.2-1.2 12.5-1.6M54.9 70.5c0-8.5 6.9-15.3 15.3-15.3 8.5 0 15.3 6.9 15.3 15.3"/><path class="st5" d="M82.7 68.6c.1-.1.4-1.7.3-2.2-.1-.4-2.9-4.6-3.3-4.6-.3-.1-3.7 1.2-4.6 1.2-.9 0-2.2-1.1-2.6-1.1-.2 0-1.3-.1-2.3-.1-.9 0-2.1.1-2.3.1-.4 0-1.8 1.1-2.6 1.1s-4.3-1.3-4.6-1.2c-.4.1-3.2 4.2-3.3 4.6-.1.4.2 2 .3 2.2"/><path class="st5" d="M72.5 61.9s.9-4.4 1.2-6.3M79.7 61.8c.1-.5-1.2-3.9-1.1-4.1M60.7 61.8c-.1-.5 1.2-3.8 1.1-4M68 61.9s-.9-4.3-1.3-6.3M82.7 68.6c-.3-.4-3.7-1.6-12.5-1.6M57.7 68.6c.3-.4 3.7-1.6 12.5-1.6"/><path class="st5" d="M70.2 67.1c8.8 0 12.2 1.2 12.5 1.6M70.2 67.1c-8.8 0-12.2 1.2-12.5 1.6 0 0 .1.9.1 1.9 0 1-.1 1.9-.1 1.9.3.4 3.7 1.6 12.5 1.6"/><path class="st5" d="M82.7 68.6s-.1.9-.1 1.9c0 1 .1 1.9.1 1.9"/><path d="M98 41.7c-.1-.3-.3-.7-.3-.7s.3-.1.5-.1c.3 0 .5.1.5.1l-.2.6c-.1.4-.1.9-.1.9h-.2l-.2-.8zm-.3 1c.2-.1.4-.1.4-.1s0-.3-.2-.7c-.1-.3-.4-.8-.4-.8l-.4.2-.4.4s.4 0 .6.2c.3.3.4.8.4.8zm1-.1h.1s.2-.3.4-.5c.3-.3.6-.3.6-.3s-.1-.2-.2-.3c-.1-.1-.3-.2-.3-.2s-.2.1-.3.4c-.1.4-.3.9-.3.9zm-.2.8h-.4c-.2 0-.2.1-.2.1l.2.2c.1.1.2.3.2.3s.1-.2.2-.3c.2-.2.2-.1.2-.2s-.1-.1-.2-.1zm.2.9s-.3-.1-.5-.1c-.3 0-.4.1-.4.1v.3s-.1-.1-.1-.2l-.1-.2c-.1 0 0 .3 0 .5.1.3.2.5.2.5v-.4.1c0 .1.1.2.1.2h.6l.1-.1v-.2s0 .1.1.1c.1.1.1.3.1.3s.2-.2.2-.4c.1-.3.1-.7 0-.6-.1.1 0 .1-.1.3l-.2.2s.1-.3 0-.4zm-.2-1.7h.2s.1-.4.3-.8c.1-.2.3-.5.3-.5s-.1-.1-.2-.1-.1-.1-.1-.1-.2.2-.3.6c-.2.4-.2.9-.2.9zm1.7 1.1s.5 1.2.4 2c-.1 1.4-.8 2.1-.8 2.1s.2-.4.2-.7c0-.4-.1-.9-.1-.9s0 .7-.1 1.3c-.2.7-.8 1-.8 1l-.3.2s.1-.4.1-.6c0-.5-.1-.6-.1-.6s.1.3 0 .7c0 .2-.1.5-.1.4-.1.3-.3.6-.3.6s-.2-.3-.3-.5c-.1-.3-.1-.8-.1-.8s-.1.3-.1.6.3.7.3.7-.8-.2-1.5-1.1c-.7-.9-.8-2.2-.8-2.2s-.1.4 0 .9.4 1 .4 1-.7-.3-1-1.1c-.2-.5-.3-1.4-.3-1.4v.6c0 .3.1.6.1.6s-.4 0-.5-.4c-.1-.3-.2-.8-.2-.8v.7s-.2 0-.5-.2c-.2-.1-.4-.3-.4-.3s.3-.4.8-.7c.4-.3.9-.3.9-.3l-.4-.1s.3-.7.7-1.2c.3-.4.8-.6.8-.6H96c-.1 0-.2.1-.2.1s.3-1.1 1-1.2c.9-.1 1.1.8 1.1.8v.1c-.1 0-.2.1-.3.1-.2.1-.3.2-.4.4.1 0 .3-.2.5-.2s.5-.1.4 0l-.2.2c-.1.1-.1.2-.2.2s-.2-.1-.4-.1c-.1 0-.2 0-.2.1v.1s0 .2.1.4c.2.2.4.3.4.3v.6c.1.3.3.7.3.7s.2-.2.5-.2c.2 0 .5.2.5.2s.2-.1.3-.5c.2-.5.1-.8.1-.8s.3-.1.4-.3c.1-.2.1-.3.1-.3v-.2h-.2c-.2 0-.3.1-.4.1L99 43h-.4.4c.2 0 .3.1.4.2 0-.1-.1-.1-.2-.2-.2-.1-.4-.3-.4-.3s.5-1 1.3-.6c.9.5.6 2.8.6 2.8s-.1-.5-.2-.8c-.1-.3-.3-.4-.3-.4zm-1.9 1.8c-.6 0-.6 1.1-.6 1.1s.1-.3.2-.5.3-.3.3-.3h.1s-.2.2-.3.4c-.1.2-.1.5-.1.5s.2 0 .4.1c.2 0 .4-.1.4-.1s0-.3-.1-.5-.2-.3-.2-.3.2.1.2.2c.1.2.2.5.2.5s.2-1.1-.5-1.1zm-12.4 4.2c-.5-1-.4-1.9-.4-1.9s-.7.9-.9 2.1c-.2 1.1-.3 1.2-.3 1.2s.2 0 .4-.1c.2 0 .3-.1.3-.1s0 .1-.2.2-.5.2-.5.3c0 0-.3.5-.4.6-.2.2-.5.3-.6.5-.1.1-.1.2-.3.7-.1.5-.2.7-.2.7l.2.2v.3s.6.1 1.1.1c.4 0 .8-.1.8-.1s-.1-.4-.4-.5c-.4-.1-.8 0-.8 0s.2-.3.5-.8c.3-.4.7-.6.8-.6.1 0 .7-.3 1.2-.6s1-.7 1-.7-.8-.6-1.3-1.5zm8.6 2.1s-.2-.3-.3-.7c-.1-.4-.1-.8-.1-.8l-.4.4c-.3.2-.7.3-.7.3s.1.6-.1 1.4c-.2.8-.7 1.4-.7 1.4s.2.1.3.3c0 .2-.1.5-.1.5s.3.1 1 .1c.6 0 1-.2 1-.2s0-.2-.3-.4c-.2-.1-.7-.2-.7-.2s0-.6.2-1.3c.3-.5.9-.8.9-.8zm4.4-2.3c.1-.3.1-.7.1-.7s-.1.2-.3.4c-.1.2-.3.4-.3.4s-.2 0-.5-.1-.5-.2-.5-.2 0 .4.1.8c.1.5.3 1 .3 1s.2-.2.4-.6c.1-.3.3-.6.3-.6v.4s.3-.4.4-.8zM81.8 49c.5-.6 1.3-1.1 1.3-1.1s.4-.2 1-.4c.6-.1 1.4-.2 1.4-.2l.3-.6s-1.2 0-2.5.6c-1.2.5-1.9 1.5-1.9 1.5s-.4.8-.4 1.8c0 .4.4 1.4.5 1.6 0 .1.2.4-.3.7-.2.1-.5.1-.5.1-.1-.1-.2-.4-.6-.8-.3-.3-.8-.5-.8-.5s.3.2.4.4c.1.2.2.3.2.3s-.5-.2-1-.2c-.7 0-1.2.3-1.2.3s.3-.1.8 0c.2.3.5.5.5.5l-.2.2c-.1.1-.2.3-.2.3s.3-.1.5-.2h.5s.8.4 1.3.2c1-.2.9-.9.9-1.1 0-.2-.3-.7-.4-1.4-.1-.6 0-.7 0-.7s0-.7.4-1.3zm18.7 5c-.4-.2-1-.3-1-.3s-1-1.2-1.6-2.4c-.6-1.2-.6-2.2-.6-2.2l-.4-.4-.4-.4s-.6-.2-.9-.5c-.6-.5-.6-1-.6-1h-.3c-.2-.1-.3-.3-.3-.3s-.2 0-.4-.1c-.8-.4-.7-.6-1.2-.6-.7-.1-1.2-.1-1.7 0-.6.1-1.1.3-1.9.3-.6 0-.7-.1-1.4-.2-.4 0-1.5-.1-1.9 1.5-.3 1.5.6 2.8.8 3 .8.9.9 1 1 1.5.1.6-.4.6-.4.6s.2.4.6.8c.3.3.7.5.9.7.2.2.2.4.2.4s.6.3 1.2.2c.2 0 .4 0 .6-.1v-.3l-.1-.3s.3.2.3.5c.2-.1.3-.1.3-.1s-.1-.3-.4-.5c-.3-.2-.9-.2-.9-.2s-.4-.3-.7-.7c-.3-.5-.5-1-.5-1.2.1-.3.7-.8.7-2 .1-1-.4-2.2-.4-2.2s.3.5.5 1.2.1 1.3.1 1.2c.1 0 .5 0 .8.2.3.2.9.3.9.3h.7c.5 0 .9 0 1.4-.3.6-.4.2-1.2.2-1.2s.4.3.4.7c0 .4 0 .7.1.9.2.6.5 1.1.5 1.1s-.1-.5-.1-.8c0-.3.1-.7.1-.7s-.1.4.1.8c.2.5.6.9.6.9s-.2-.3-.2-.8v-.5s.2.5.4.8c.2.4.5.7.5.7s-.1-.2-.2-.5v-.3s.9.6 1.5 1.5c.5.7.2 1.1.2 1.1s.4-.2.8-.1c.3.1.3.6.3.6s.6.2 1.1.2c.2 0 .4 0 .5-.1V54l-.1-.3s.3.2.3.6c.3-.1.4-.1.4-.1l-.4-.2z"/><circle cx="41.5" cy="94.9" r=".7"/><circle cx="44.9" cy="93.7" r=".7"/><circle cx="45.9" cy="86.4" r=".6"/><circle cx="43.1" cy="85.3" r=".6"/><circle cx="41.5" cy="85.1" r=".6"/><circle cx="40" cy="85.5" r=".6"/><circle cx="38.8" cy="86.6" r=".6"/><circle cx="38.5" cy="88.2" r=".6"/><circle cx="44.4" cy="85.9" r=".6"/><circle cx="38.8" cy="89.8" r=".6"/><circle cx="39.5" cy="91.3" r=".6"/><path d="M48.2 92.4c3.1 0 5.9.8 8 2.1l1-2.1s-1.8.7-3 .2c-1.2-.5-1.7-2.1-1.7-2.1s-1 1.3-2.5 1.1c-1.5-.2-1.9-2.3-1.9-2.3s-.4 2.1-1.9 2.3c-1.5.2-2.5-1.1-2.5-1.1s-.5 1.6-1.7 2.1-3-.2-3-.2l1 2.1c2.3-1.2 5.1-2.1 8.2-2.1z"/><path d="M48.2 95.3c2.8 0 4.9.7 6.7 1.9l.5-.9c-1.8-1.2-4.5-2.1-7.2-2.1s-5.4.8-7.2 2.1l.5.9c1.7-1.2 3.9-1.9 6.7-1.9z"/><circle cx="54.9" cy="94.9" r=".7"/><circle cx="51.4" cy="93.7" r=".7"/><circle cx="48.2" cy="93.3" r=".7"/><path d="M48.2 88.3s.3 2.9 1.9 3.1c1.5.2 2.5-1.3 2.5-1.3s.7 2.3 2.2 2.5c0 0 2.5-3.5.3-5-1.9-1.2-5 .2-6.9.2-1.9 0-5-1.4-6.9-.2-2.2 1.5.3 5 .3 5 1.6-.1 2.2-2.5 2.2-2.5s1 1.5 2.5 1.3c1.6-.2 1.9-3.1 1.9-3.1z"/><circle cx="50.4" cy="86.4" r=".6"/><circle cx="53.3" cy="85.3" r=".6"/><circle cx="54.9" cy="85.1" r=".6"/><circle cx="56.3" cy="85.5" r=".6"/><circle cx="57.6" cy="86.6" r=".6"/><circle cx="57.9" cy="88.2" r=".6"/><circle cx="51.9" cy="85.9" r=".6"/><circle cx="57.5" cy="89.8" r=".6"/><circle cx="56.9" cy="91.3" r=".6"/><path d="M46.9 86.1c0-.7.6-1.3 1.3-1.3.7 0 1.3.6 1.3 1.3 0 .7-.6 1.3-1.3 1.3-.7 0-1.3-.6-1.3-1.3zm1.3 1c.2 0 .4-.2.4-.4s-.2-.4-.4-.4-.4.2-.4.4.2.4.4.4z"/><path d="M48.2 85.3h.4v-1l1.2.7v-2.5l-1.2.8.9-1.4h-2.7l.9 1.4-1.1-.8V85l1.1-.7v1z"/><path class="st4" d="m108.9 35.3-5.3-4.9.2-.2c.6.5 1.1.4 2-.5l4.2-4.6c.8-.8.7-1.3.1-1.8l.2-.2 2.6 2.4-.2.2c-.6-.6-1.2-.4-1.9.4l-4.5 4.9c-.5.6-.4.9.2 1.5l1.5 1.3c.9.8 1.3.8 2.6.1l.2.2-1.9 1.2zM130.3 76.9c1.3.2 1.6 0 1.7-.9h.3l-.6 3.7c-.4 2.4-1.7 3.2-3 3-1.1-.2-1.7-.9-1.9-2.3-.6 1.5-1.9 2.3-3.2 2.1-1.5-.2-2.2-1.7-1.9-3.6l.7-4.5h.3c-.1.8.2 1.2 1.4 1.4l6.2 1.1zm-3.1 1.9c-.2 1.4.4 2.5 1.7 2.7 1.2.2 2.2-.4 2.5-2l.2-1-4.2-.7-.2 1zm-3.1-1.6c-1.3-.2-1.7 0-1.8.7l-.1.8c-.2 1 .4 2.1 1.8 2.3 1.4.2 2.6-.7 2.9-2.4l.2-.9-3-.5zM17.2 79.3c1.2-.2 1.5-.5 1.4-1.3h.3l.5 3.6h-.3c-.1-.8-.4-1.1-1.7-.9l-6.2.8c-1.3.2-1.5.5-1.4 1.3h-.3l-.5-4c-.3-2.2.9-3.5 2.2-3.6 1.1-.1 2.1.3 2.7 1.7 1-2 4.1-3 4.1-4.7h.3l.3 2c-2 2.1-4.3 3-4 4.8l.1.8 2.5-.5zm-3.1.4-.1-1.2c-.2-1.7-1.4-2.2-2.6-2-1.3.2-2.1 1.3-1.9 2.8l.1 1 4.5-.6zM15 64.4v.3c-.9.2-1 .3-1.1 1.3l-.2 2.5 3.6.2c.5 0 .7-.1.7-.7l.1-1.7c.1-1.5.1-1.8-1.2-2.5v-.3l1.8.6-.5 7.2h-.3c.1-.8-.2-1.1-1.5-1.2l-6.2-.4c-1.2-.1-1.6.2-1.7 1h-.3l.5-7.2 1.7.1v.2c-1.1.2-1.2.5-1.3 1.6L9 68.1l4.3.3.2-2.8c0-.7-.1-.9-.9-1.1v-.3l2.4.2zM16.4 55.9l-.8 3.1 1.8 1.1c.9.6 1.6.9 1.8-.1l.3.1-.6 2.5-.3-.1c.1-.9-.3-1.3-1.2-1.8L10.1 56l.3-1 9-.7c1-.1 1.3-.2 1.5-1.1l.3.1-.9 3.4H20c.2-.7 0-1.1-.8-1l-2.8.2zm-5.1.4 3.8 2.4.7-2.7-4.5.3zM14.7 47.8c-1.1-.5-1.6-.4-1.9.3l-.3-.1 2-4.1c1.7-3.4 4.8-3.9 7.1-2.8s3.6 3.6 1.9 7.1l-2.1 4.3-.3-.1c.4-.7.2-1.2-.9-1.7l-5.5-2.9zm5.9 1.4c1.4.7 1.8.5 2.2-.3l.5-.9c1.1-2.2.2-4.3-2.2-5.5-2.1-1.1-4.8-1-6.2 1.8l-1 1.7 6.7 3.2zM26.6 39.4c1 .7 1.5.7 1.9 0l.2.2-2.1 2.9-.2-.2c.5-.7.4-1.1-.6-1.8l-5.1-3.6c-1-.7-1.5-.7-1.9 0l-.2-.2 2.1-2.9.2.2c-.5.7-.3 1.1.6 1.8l5.1 3.6zM35.8 31.7l-.2.3-11.1-.8 5.1 4.8c.7.7 1.3.6 1.9 0l.2.2-2.1 2.2-.2-.2c.6-.6.7-1.1-.4-2.1l-4.3-4c-.8-.8-1.5-1-2.4-.2l-.2-.2 1.8-1.9 9.9.8-4.3-4c-1-.9-1.4-.9-2-.2l-.2-.2 2.1-2.2.2.2c-.7.7-.6 1.2.3 2l5.9 5.5zM43.9 25.8c-.4.4-1.8 1.5-2.2 1.8-3.6 2.5-6.3 1.1-7.6-.8-2-2.9-.9-6.1 1.1-7.5 1.2-.8 1.9-.7 2.5-1.1.3-.2.3-.4.3-.6l.3-.2 1.7 2.4-.3.2c-1.3-1.4-3.1-1.1-4.3-.4-1.7 1.2-2 3.5-.4 5.8 1.7 2.4 4.3 3.2 6.3 1.9.6-.4 1.3-1.1.8-1.8l-.6-.9c-.7-1-1.2-1.2-1.8-.7l-.4.1-.2-.2 3.3-2.3.2.2c-.8.6-.8 1.1-.3 1.8l1.6 2.3zM50.8 20.4c.4 1.1.8 1.4 1.6 1.1l.1.3-3.3 1.2-.1-.3c.8-.3.9-.7.5-1.9L47.5 15c-.4-1.2-.8-1.4-1.6-1.1l-.1-.3 6.4-2.3.6 1.7-.2.1c-.6-1.1-.9-1-2-.7l-2.4.9 1.4 3.9 2.4-.9c.7-.3.8-.7.6-1.5l.3-.1 1 2.6-.3.1c-.3-.7-.7-.9-1.4-.7l-2.5.9 1.1 2.8zM60.1 9.2c2.9-.3 5.5 1.6 5.9 4.5.3 2.9-1.7 5.5-4.7 5.9-3 .3-5.5-1.7-5.9-4.6-.3-2.9 1.7-5.4 4.7-5.8zm1.2 10.1c2.5-.3 3.5-2.8 3.2-5.2-.4-3.1-2.2-4.7-4.3-4.4-2.3.3-3.6 2.4-3.3 5.2.4 2.9 2.1 4.6 4.4 4.4zM73.5 8.3c3 .1 5.2 2.5 5.1 5.4-.1 3-2.5 5.2-5.5 5.1-3-.1-5.2-2.5-5.1-5.5 0-2.9 2.4-5.1 5.5-5zM73 18.4c2.5.1 3.9-2.2 4-4.7.1-3.1-1.5-5-3.6-5-2.4-.1-3.9 1.8-4 4.7 0 2.9 1.4 4.9 3.6 5zM83.4 18.4c-.3 1.2-.1 1.5.7 1.7l-.1.3-3.4-.8.1-.3c.7.2 1.2.1 1.5-1.3l1.7-7.4-1.4-.3c-1.3-.3-2-.1-2.3.9l-.3-.1.5-2.2.3.1c.1.2.2.3.5.4.2.1.5.2.9.3l5.1 1.2c.8.2 1.3.2 1.6 0l.3.1-.5 2.2h-.2c0-.9-.2-1.5-1.7-1.9l-1.5-.3-1.8 7.4zM91.4 14.2c.5-1.2.3-1.6-.4-1.9l.1-.3 3.5 1.5c2.2.9 2.7 2.4 2.2 3.6-.4 1-1.3 1.4-2.7 1.3 1.3.9 1.8 2.4 1.3 3.6-.6 1.4-2.2 1.7-3.9 1l-4.2-1.8.1-.3c.8.3 1.2.1 1.7-1l2.3-5.7zm1.1 3.4c1.3.6 2.5.1 3-1 .5-1.2.1-2.3-1.4-2.9l-.9-.4-1.6 3.9.9.4zm-2.2 2.7c-.5 1.2-.4 1.6.3 1.9l.8.3c.9.4 2.1.1 2.6-1.2.6-1.3-.1-2.7-1.7-3.4l-.9-.4-1.1 2.8zM102.2 24.4l-2.7-1.8-1.7 1.3c-.8.6-1.4 1.1-.5 1.7l-.2.2-2.1-1.4.2-.2c.9.4 1.3.1 2.1-.5l6.9-5.2.8.5-2.5 8.7c-.3.9-.2 1.3.5 1.8l-.2.2-2.9-2 .2-.2c.6.4 1 .3 1.2-.4l.9-2.7zm1.4-4.9-3.6 2.7 2.3 1.6 1.3-4.3z"/><path class="st4" d="m108.9 35.3-5.3-4.9.2-.2c.6.5 1.1.4 2-.5l4.2-4.6c.8-.8.7-1.3.1-1.8l.2-.2 2.6 2.4-.2.2c-.6-.6-1.2-.4-1.9.4l-4.5 4.9c-.5.6-.4.9.2 1.5l1.5 1.3c.9.8 1.3.8 2.6.1l.2.2-1.9 1.2zM113.9 41.8l-4.3-5.8.2-.2c.5.6 1 .6 2-.1l5-3.7c.9-.7 1-1.1.5-1.8l.2-.2 2.1 2.9-.2.2c-.5-.7-1.1-.6-1.9 0l-5.4 4c-.6.5-.6.8-.1 1.5l1.2 1.6c.7 1 1.1 1.1 2.5.6l.3.2-2.1.8zM126.5 51.6c1.6-1.1 2-2.4 1.4-4-.8-2.3-3.1-2.8-5.5-1.9-2.8 1.1-4.1 3.2-3.3 5.3.6 1.5 1.6 2.3 3.3 2.5l-.1.3c-1.7-.1-3.2-1.2-3.9-3-.8-2.3-.2-5.2 2.9-6.3 3-1.1 5.9.1 7 2.9.4 1.2.4 2.2.6 2.8.1.2.3.4.5.4l.1.3-2.8 1-.2-.3zM122.1 62.8l-1.6-7.1.3-.1c.2.8.7 1 1.9.7l6.1-1.4c1.1-.2 1.3-.6 1.2-1.4l.3-.1.7 3.6-.3.1c-.2-.8-.7-1-1.8-.7l-6.5 1.5c-.8.2-.9.5-.7 1.3l.4 1.9c.3 1.2.6 1.4 2.1 1.6l.1.3-2.2-.2zM123.8 70.9c-1.2-.9-1.7-1.9-1.8-3.2-.1-2.4 1.5-3.5 3.3-3.6l4.9-.2c1.3-.1 1.6-.4 1.5-1.2h.3l.2 3.6h-.3c0-.8-.4-1.1-1.6-1.1l-5 .2c-1.5.1-2.6 1-2.5 2.7.1 1.1.7 2.1 1.8 2.8l6-.3c1.1-.1 1.5-.3 1.5-1.1h.3l.2 3.5h-.3c0-.8-.4-1.1-1.6-1.1l-6.2.3c-1.3.1-1.6.4-1.5 1.2h-.3l-.1-2.5h1.2zM45 123l-.3-.1c.2-.9.1-1-.8-1.5l-2.2-1.2-1.7 3.1c-.2.4-.2.7.3.9l1.5.8c1.3.7 1.6.8 2.8 0l.3.1-1.3 1.4-6.3-3.5.1-.3c.7.4 1.1.3 1.7-.8l3-5.5c.6-1.1.5-1.5-.2-1.9l.1-.3 6.3 3.5-.8 1.5-.2-.1c.3-1.1.1-1.3-.9-1.8l-2.5-1.4-2 3.7 2.4 1.3c.6.3.9.3 1.4-.3l.3.1-1 2.3zM54.3 122.4l-.3-.1c.3-1.5-.5-2.3-1.4-2.7-1-.3-1.9 0-2.2.8-.6 1.7 1.6 3 2.5 4.9.4.9.4 1.5.2 2.2-.5 1.5-2.1 2.3-3.6 1.8-1-.3-1.7-1.1-2-1.2-.2-.1-.3 0-.5.2l-.3-.1.9-2.6.3.1c-.6 1.8.6 2.8 1.5 3.1 1.1.4 2.1 0 2.5-1 .6-1.6-1.7-3.3-2.4-4.7-.4-.8-.4-1.5-.1-2.3.5-1.4 1.9-2.1 3.4-1.5 1 .3 1.4.9 1.7 1 .1.1.2 0 .3-.2l.3.1-.8 2.2zM60.1 129.9c-.2 1.2-.1 1.5.8 1.7l-.1.3-3.5-.6.1-.3c.7.1 1.2 0 1.4-1.4l1.4-7.5-1.4-.3c-1.3-.2-2 0-2.3 1l-.3-.1.4-2.2.3.1c.1.1.3.3.5.4.2.1.5.2.9.3l5.1.9c.9.2 1.3.1 1.6-.1l.3.1-.4 2.2h-.2c0-.9-.3-1.5-1.8-1.8l-1.5-.3-1.3 7.6zM66.1 132.4c0 .5-.4.8-.8.8-.5 0-.8-.4-.8-.8 0-.5.4-.8.8-.8.5-.1.8.3.8.8zM76.2 131.2c.1.9.3 1.1 1.1 1v.3l-3.2.3v-.3c.8-.1 1-.2.9-1.2l-.5-6.9c0-.3-.1-.3-.2-.3s-.6.4-1.3.5v-.3c1.1-.7 1.9-1.3 2.2-1.9h.3l.7 8.8zM82.1 121c1.5-.3 2.7.5 3 1.7.2.8 0 1.7-1.2 2.7 1.5.7 2.3 1.5 2.5 2.6.3 1.5-.8 2.9-2.4 3.2-1.6.3-3-.4-3.3-1.8-.2-1.1.3-2 1.6-3.1-1.3-.4-2.2-1.2-2.4-2.3-.2-1.5.6-2.7 2.2-3zm1.4 4.3c.8-.6.9-1.4.7-2.2-.2-1.2-1.1-1.9-2.2-1.7-.9.2-1.5 1-1.3 1.8.2.9 1 1.5 2.8 2.1zm.5 5.5c1-.2 1.6-1.1 1.4-2-.2-1-1.2-1.7-2.8-2.2-.9.7-1.3 1.5-1.1 2.5.4 1.1 1.4 1.9 2.5 1.7zM86.3 119.9l.3-.1c.1.1.2.2.3.2.1 0 .2 0 .4-.1l5.1-2 .1.3.3 10.4-1.2.4.3-9.9-4.1 1.6c-.6.2-.7.5-.9 1.7l-.3.1-.3-2.6zM100.4 123.5c.4.8.7.9 1.4.5l.1.2-2.8 1.5-.1-.2c.7-.4.8-.6.4-1.5l-3.3-6c-.1-.3-.2-.3-.3-.2-.1.1-.4.6-1 1l-.1-.3c.7-1 1.2-2 1.3-2.6l.3-.1 4.1 7.7z"/></svg>