<?xml version="1.0" encoding="utf-8"?>
<!-- Generator: Adobe Illustrator 19.2.1, SVG Export Plug-In . SVG Version: 6.00 Build 0)  -->
<!DOCTYPE svg PUBLIC "-//W3C//DTD SVG 1.1//EN" "http://www.w3.org/Graphics/SVG/1.1/DTD/svg11.dtd">
<svg version="1.1" id="Layer_1" xmlns="http://www.w3.org/2000/svg" xmlns:xlink="http://www.w3.org/1999/xlink" x="0px" y="0px"
	 viewBox="0 0 141 141" style="enable-background:new 0 0 141 141;" xml:space="preserve">
<style type="text/css">
	.st0{fill:#E03A3E;}
	.st1{fill:#FFFFFF;}
	.st2{fill:#E9AE11;}
	.st3{fill:none;}
	.st4{fill:#0060A9;}
	.st5{fill:#E9AE11;stroke:#000000;stroke-width:0.9217;}
</style>
<g>
	<circle class="st0" cx="70.5" cy="70.5" r="70.5"/>
	<circle cx="70.5" cy="70.5" r="68.5"/>
	<circle class="st1" cx="70.5" cy="70.5" r="66.5"/>
	<circle cx="70.5" cy="70.5" r="47.3"/>
	<circle class="st2" cx="70.5" cy="70.5" r="45.6"/>
	<path class="st0" d="M59.6,70.5v41.9c3.5,0.9,7.2,1.4,10.7,1.4V70.5H59.6z"/>
	<path class="st0" d="M59.6,70.5H48.7V108c3.4,2,7,3.5,10.9,4.5V70.5z"/>
	<path class="st0" d="M37.7,70.5V99c3.1,3.5,6.8,6.6,10.9,9V70.5H37.7z"/>
	<path class="st0" d="M37.7,70.5H26.8C26.9,81.3,31,91.3,37.7,99V70.5z"/>
	<circle class="st3" cx="70.5" cy="70.5" r="43.7"/>
	<g>
		<path class="st0" d="M81.2,70.5l0.1-42.3c-3.5-0.9-7.2-1.4-10.9-1.4v43.7H81.2z"/>
		<path class="st0" d="M81.2,70.5l10.8,0V32.7c-3.4-2-8.1-4-10.7-4.5L81.2,70.5z"/>
		<path class="st0" d="M102.9,70.5V41.6c-3.1-3.5-6.8-6.6-10.9-9v37.9H102.9z"/>
	</g>
	<path class="st0" d="M102.9,70.5h10.9c-0.1-11.2-4.2-21.3-10.9-28.9V70.5z"/>
	<path class="st4" d="M70.3,81.1l42.1,0c0.9-3.5,1.4-7.2,1.4-10.6H70.3L70.3,81.1z"/>
	<path class="st1" d="M70.3,81.1l0,10.9h37.6c2-3.4,3.5-7.1,4.5-10.9L70.3,81.1z"/>
	<path class="st1" d="M70.3,103v10.9c11,0,21-4.1,28.7-10.9H70.3z"/>
	<path class="st4" d="M70.3,59.6H28.2c-0.9,3.5-1.4,7.2-1.4,10.9h43.5V59.6z"/>
	<path class="st1" d="M70.3,59.6V48.7H32.7c-2,3.4-3.5,7-4.5,10.9H70.3z"/>
	<path class="st4" d="M70.3,37.7H41.6c-3.5,3.1-6.6,6.8-9,10.9h37.6V37.7z"/>
	<path class="st1" d="M70.3,37.7V26.8c-11,0-21,4.2-28.7,10.9H70.3z"/>
	<path class="st4" d="M70.3,103H99c3.5-3.1,6.6-6.8,9-10.9l-37.6,0L70.3,103z"/>
	<circle class="st1" cx="70.3" cy="70.5" r="17.2"/>
	<path class="st5" d="M54.9,70.5c0,8.5,6.9,15.3,15.3,15.3c8.5,0,15.3-6.9,15.3-15.3"/>
	<path class="st5" d="M82.7,72.4c0.1,0.1,0.4,1.7,0.3,2.2c-0.1,0.4-2.9,4.6-3.3,4.6C79.4,79.3,76,78,75.1,78c-0.9,0-2.2,1.1-2.6,1.1
		c-0.2,0-1.3,0.1-2.3,0.1l0,0c-0.9,0-2.1-0.1-2.3-0.1c-0.4,0-1.8-1.1-2.6-1.1s-4.3,1.3-4.6,1.2c-0.4-0.1-3.2-4.2-3.3-4.6
		c-0.1-0.4,0.2-2,0.3-2.2"/>
	<path class="st5" d="M72.5,79.1c0,0,0.9,4.3,1.2,6.3"/>
	<path class="st5" d="M79.7,79.2c0.1,0.5-1.2,3.8-1.1,4"/>
	<path class="st5" d="M60.7,79.2c-0.1,0.5,1.2,3.8,1.1,4"/>
	<path class="st5" d="M68,79.1c0,0-0.9,4.3-1.3,6.3"/>
	<path class="st5" d="M82.7,72.4c-0.3,0.4-3.7,1.6-12.5,1.6"/>
	<path class="st5" d="M57.7,72.4c0.3,0.4,3.7,1.6,12.5,1.6"/>
	<path class="st5" d="M70.2,73.9c8.8,0,12.2-1.2,12.5-1.6"/>
	<path class="st5" d="M54.9,70.5c0-8.5,6.9-15.3,15.3-15.3c8.5,0,15.3,6.9,15.3,15.3"/>
	<path class="st5" d="M82.7,68.6c0.1-0.1,0.4-1.7,0.3-2.2c-0.1-0.4-2.9-4.6-3.3-4.6C79.4,61.7,76,63,75.1,63c-0.9,0-2.2-1.1-2.6-1.1
		c-0.2,0-1.3-0.1-2.3-0.1l0,0c-0.9,0-2.1,0.1-2.3,0.1c-0.4,0-1.8,1.1-2.6,1.1s-4.3-1.3-4.6-1.2c-0.4,0.1-3.2,4.2-3.3,4.6
		c-0.1,0.4,0.2,2,0.3,2.2"/>
	<path class="st5" d="M72.5,61.9c0,0,0.9-4.4,1.2-6.3"/>
	<path class="st5" d="M79.7,61.8c0.1-0.5-1.2-3.9-1.1-4.1"/>
	<path class="st5" d="M60.7,61.8c-0.1-0.5,1.2-3.8,1.1-4"/>
	<path class="st5" d="M68,61.9c0,0-0.9-4.3-1.3-6.3"/>
	<path class="st5" d="M82.7,68.6c-0.3-0.4-3.7-1.6-12.5-1.6"/>
	<path class="st5" d="M57.7,68.6c0.3-0.4,3.7-1.6,12.5-1.6"/>
	<path class="st5" d="M70.2,67.1c8.8,0,12.2,1.2,12.5,1.6"/>
	<path class="st5" d="M70.2,67.1c-8.8,0-12.2,1.2-12.5,1.6c0,0,0.1,0.9,0.1,1.9c0,1-0.1,1.9-0.1,1.9c0.3,0.4,3.7,1.6,12.5,1.6"/>
	<path class="st5" d="M82.7,68.6c0,0-0.1,0.9-0.1,1.9c0,1,0.1,1.9,0.1,1.9"/>
	<path d="M98,41.7c-0.1-0.3-0.3-0.7-0.3-0.7s0.3-0.1,0.5-0.1c0.3,0,0.5,0.1,0.5,0.1s-0.1,0.3-0.2,0.6c-0.1,0.4-0.1,0.9-0.1,0.9
		s-0.1,0-0.1,0c-0.1,0-0.1,0-0.1,0S98.1,42.1,98,41.7z M97.7,42.7c0.2-0.1,0.4-0.1,0.4-0.1s0-0.3-0.2-0.7c-0.1-0.3-0.4-0.8-0.4-0.8
		s-0.2,0.1-0.4,0.2c-0.2,0.2-0.4,0.4-0.4,0.4s0.4,0,0.6,0.2C97.6,42.2,97.7,42.7,97.7,42.7z M98.7,42.6
		C98.7,42.6,98.7,42.6,98.7,42.6c0.1,0,0.1,0,0.1,0s0.2-0.3,0.4-0.5c0.3-0.3,0.6-0.3,0.6-0.3s-0.1-0.2-0.2-0.3
		c-0.1-0.1-0.3-0.2-0.3-0.2s-0.2,0.1-0.3,0.4C98.9,42.1,98.7,42.6,98.7,42.6z M98.5,43.4c-0.1,0-0.1,0-0.2,0c-0.1,0-0.1,0-0.2,0
		c-0.2,0-0.2,0.1-0.2,0.1c0,0,0.1,0.1,0.2,0.2c0.1,0.1,0.2,0.3,0.2,0.3s0.1-0.2,0.2-0.3c0.2-0.2,0.2-0.1,0.2-0.2
		C98.7,43.4,98.6,43.4,98.5,43.4z M98.7,44.3c0,0-0.3-0.1-0.5-0.1c-0.3,0-0.4,0.1-0.4,0.1c0,0,0,0.3,0,0.3s-0.1-0.1-0.1-0.2
		c-0.1-0.2-0.1-0.2-0.1-0.2c-0.1,0,0,0.3,0,0.5c0.1,0.3,0.2,0.5,0.2,0.5s0-0.2,0-0.3c0-0.1,0-0.1,0-0.1s0,0.1,0,0.1
		c0,0.1,0.1,0.2,0.1,0.2s0,0,0.1,0c0.1,0,0.3,0,0.4,0c0.1,0,0.1,0,0.1,0s0,0,0.1-0.1c0-0.1,0-0.2,0-0.2s0,0.1,0.1,0.1
		c0.1,0.1,0.1,0.3,0.1,0.3S99,45,99,44.8c0.1-0.3,0.1-0.7,0-0.6c-0.1,0.1,0,0.1-0.1,0.3c-0.1,0.1-0.2,0.2-0.2,0.2
		S98.8,44.4,98.7,44.3z M98.5,42.6C98.5,42.6,98.5,42.6,98.5,42.6c0.1,0,0.2,0,0.2,0s0.1-0.4,0.3-0.8c0.1-0.2,0.3-0.5,0.3-0.5
		s-0.1-0.1-0.2-0.1c-0.1,0-0.1-0.1-0.1-0.1s-0.2,0.2-0.3,0.6C98.5,42.1,98.5,42.6,98.5,42.6z M100.2,43.7c0,0,0.5,1.2,0.4,2
		c-0.1,1.4-0.8,2.1-0.8,2.1s0.2-0.4,0.2-0.7c0-0.4-0.1-0.9-0.1-0.9s0,0.7-0.1,1.3c-0.2,0.7-0.8,1-0.8,1l-0.3,0.2
		c0,0,0.1-0.4,0.1-0.6c0-0.5-0.1-0.6-0.1-0.6s0.1,0.3,0,0.7c0,0.2-0.1,0.5-0.1,0.4c-0.1,0.3-0.3,0.6-0.3,0.6s-0.2-0.3-0.3-0.5
		c-0.1-0.3-0.1-0.8-0.1-0.8s-0.1,0.3-0.1,0.6c0,0.3,0.3,0.7,0.3,0.7s-0.8-0.2-1.5-1.1c-0.7-0.9-0.8-2.2-0.8-2.2s-0.1,0.4,0,0.9
		c0.1,0.5,0.4,1,0.4,1s-0.7-0.3-1-1.1c-0.2-0.5-0.3-1.4-0.3-1.4s0,0.3,0,0.6c0,0.3,0.1,0.6,0.1,0.6s-0.4,0-0.5-0.4
		c-0.1-0.3-0.2-0.8-0.2-0.8s0,0.3,0,0.3c0,0.1,0,0.4,0,0.4s-0.2,0-0.5-0.2c-0.2-0.1-0.4-0.3-0.4-0.3s0.3-0.4,0.8-0.7
		c0.4-0.3,0.9-0.3,0.9-0.3l-0.4-0.1c0,0,0.3-0.7,0.7-1.2c0.3-0.4,0.8-0.6,0.8-0.6s-0.1,0-0.2,0c-0.1,0-0.2,0.1-0.2,0.1
		s0.3-1.1,1-1.2c0.9-0.1,1.1,0.8,1.1,0.8l0,0.1c-0.1,0-0.2,0.1-0.3,0.1c-0.2,0.1-0.3,0.2-0.4,0.4c0.1,0,0.3-0.2,0.5-0.2
		c0.2,0,0.5-0.1,0.4,0c0,0-0.1,0.1-0.2,0.2c-0.1,0.1-0.1,0.2-0.2,0.2c-0.1,0-0.2-0.1-0.4-0.1c-0.1,0-0.2,0-0.2,0.1
		c0,0.1,0,0.1,0,0.1s0,0.2,0.1,0.4c0.2,0.2,0.4,0.3,0.4,0.3s0,0.3,0,0.6c0.1,0.3,0.3,0.7,0.3,0.7s0.2-0.2,0.5-0.2
		c0.2,0,0.5,0.2,0.5,0.2s0.2-0.1,0.3-0.5c0.2-0.5,0.1-0.8,0.1-0.8s0.3-0.1,0.4-0.3c0.1-0.2,0.1-0.3,0.1-0.3l0-0.1c0,0,0,0,0-0.1
		c0,0-0.1,0-0.2,0c-0.2,0-0.3,0.1-0.4,0.1c0,0-0.1-0.1-0.2-0.2C98.8,43,98.7,43,98.6,43c0,0,0.2,0,0.4,0c0.2,0,0.3,0.1,0.4,0.2
		c0-0.1-0.1-0.1-0.2-0.2c-0.2-0.1-0.4-0.3-0.4-0.3s0.5-1,1.3-0.6c0.9,0.5,0.6,2.8,0.6,2.8s-0.1-0.5-0.2-0.8
		C100.4,43.8,100.2,43.7,100.2,43.7z M98.3,45.5c-0.6,0-0.6,1.1-0.6,1.1s0.1-0.3,0.2-0.5c0.1-0.2,0.3-0.3,0.3-0.3s0,0,0.1,0
		c0,0,0,0,0,0S98.1,46,98,46.2c-0.1,0.2-0.1,0.5-0.1,0.5s0.2,0,0.4,0.1c0.2,0,0.4-0.1,0.4-0.1s0-0.3-0.1-0.5
		c-0.1-0.2-0.2-0.3-0.2-0.3s0,0,0,0c0,0,0,0,0,0s0.2,0.1,0.2,0.2c0.1,0.2,0.2,0.5,0.2,0.5S99,45.5,98.3,45.5z M85.9,49.7
		c-0.5-1-0.4-1.9-0.4-1.9s-0.7,0.9-0.9,2.1c-0.2,1.1-0.3,1.2-0.3,1.2s0.2,0,0.4-0.1c0.2,0,0.3-0.1,0.3-0.1S85,51,84.8,51.1
		c-0.2,0.1-0.5,0.2-0.5,0.3c0,0-0.3,0.5-0.4,0.6c-0.2,0.2-0.5,0.3-0.6,0.5c-0.1,0.1-0.1,0.2-0.3,0.7c-0.1,0.5-0.2,0.7-0.2,0.7
		s0.1,0.1,0.2,0.2c0,0.1,0,0.3,0,0.3s0.6,0.1,1.1,0.1c0.4,0,0.8-0.1,0.8-0.1s-0.1-0.4-0.4-0.5c-0.4-0.1-0.8,0-0.8,0s0.2-0.3,0.5-0.8
		c0.3-0.4,0.7-0.6,0.8-0.6c0.1,0,0.7-0.3,1.2-0.6c0.5-0.3,1-0.7,1-0.7S86.4,50.6,85.9,49.7z M94.5,51.8c0,0-0.2-0.3-0.3-0.7
		c-0.1-0.4-0.1-0.8-0.1-0.8s-0.2,0.2-0.4,0.4c-0.3,0.2-0.7,0.3-0.7,0.3s0.1,0.6-0.1,1.4c-0.2,0.8-0.7,1.4-0.7,1.4s0.2,0.1,0.3,0.3
		c0,0.2-0.1,0.5-0.1,0.5s0.3,0.1,1,0.1c0.6,0,1-0.2,1-0.2s0-0.2-0.3-0.4c-0.2-0.1-0.7-0.2-0.7-0.2s0-0.6,0.2-1.3
		C93.9,52.1,94.5,51.8,94.5,51.8z M98.9,49.5c0.1-0.3,0.1-0.7,0.1-0.7s-0.1,0.2-0.3,0.4c-0.1,0.2-0.3,0.4-0.3,0.4s-0.2,0-0.5-0.1
		c-0.3-0.1-0.5-0.2-0.5-0.2s0,0.4,0.1,0.8c0.1,0.5,0.3,1,0.3,1s0.2-0.2,0.4-0.6c0.1-0.3,0.3-0.6,0.3-0.6s0,0,0,0.1
		c0,0.1,0,0.3,0,0.3S98.8,49.9,98.9,49.5z M81.8,49c0.5-0.6,1.3-1.1,1.3-1.1s0.4-0.2,1-0.4c0.6-0.1,1.4-0.2,1.4-0.2l0.3-0.6
		c0,0-1.2,0-2.5,0.6c-1.2,0.5-1.9,1.5-1.9,1.5S81,49.6,81,50.6c0,0.4,0.4,1.4,0.5,1.6c0,0.1,0.2,0.4-0.3,0.7
		c-0.2,0.1-0.5,0.1-0.5,0.1c-0.1-0.1-0.2-0.4-0.6-0.8c-0.3-0.3-0.8-0.5-0.8-0.5s0.3,0.2,0.4,0.4c0.1,0.2,0.2,0.3,0.2,0.3
		s-0.5-0.2-1-0.2c-0.7,0-1.2,0.3-1.2,0.3s0.3-0.1,0.8,0C78.7,52.8,79,53,79,53s-0.1,0.1-0.2,0.2c-0.1,0.1-0.2,0.3-0.2,0.3
		s0.3-0.1,0.5-0.2c0.4,0,0.5,0,0.5,0s0.8,0.4,1.3,0.2c1-0.2,0.9-0.9,0.9-1.1c0-0.2-0.3-0.7-0.4-1.4c-0.1-0.6,0-0.7,0-0.7
		S81.4,49.6,81.8,49z M100.5,54c-0.4-0.2-1-0.3-1-0.3s-1-1.2-1.6-2.4c-0.6-1.2-0.6-2.2-0.6-2.2s-0.2-0.2-0.4-0.4
		c-0.2-0.2-0.4-0.4-0.4-0.4s-0.6-0.2-0.9-0.5C95,47.3,95,46.8,95,46.8s-0.2,0-0.3,0c-0.2-0.1-0.3-0.3-0.3-0.3s-0.2,0-0.4-0.1
		c-0.8-0.4-0.7-0.6-1.2-0.6c-0.7-0.1-1.2-0.1-1.7,0c-0.6,0.1-1.1,0.3-1.9,0.3c-0.6,0-0.7-0.1-1.4-0.2c-0.4,0-1.5-0.1-1.9,1.5
		c-0.3,1.5,0.6,2.8,0.8,3c0.8,0.9,0.9,1,1,1.5c0.1,0.6-0.4,0.6-0.4,0.6s0.2,0.4,0.6,0.8c0.3,0.3,0.7,0.5,0.9,0.7
		c0.2,0.2,0.2,0.4,0.2,0.4s0.6,0.3,1.2,0.2c0.2,0,0.4,0,0.6-0.1c0-0.1,0-0.2,0-0.3c0,0-0.1-0.3-0.1-0.3s0.3,0.2,0.3,0.5
		c0.2-0.1,0.3-0.1,0.3-0.1s-0.1-0.3-0.4-0.5c-0.3-0.2-0.9-0.2-0.9-0.2s-0.4-0.3-0.7-0.7c-0.3-0.5-0.5-1-0.5-1.2
		c0.1-0.3,0.7-0.8,0.7-2c0.1-1-0.4-2.2-0.4-2.2s0.3,0.5,0.5,1.2c0.2,0.7,0.1,1.3,0.1,1.2c0.1,0,0.5,0,0.8,0.2
		c0.3,0.2,0.9,0.3,0.9,0.3s0.3,0,0.7,0c0.5,0,0.9,0,1.4-0.3c0.6-0.4,0.2-1.2,0.2-1.2s0.4,0.3,0.4,0.7c0,0.4,0,0.7,0.1,0.9
		c0.2,0.6,0.5,1.1,0.5,1.1s-0.1-0.5-0.1-0.8c0-0.3,0.1-0.7,0.1-0.7s-0.1,0.4,0.1,0.8c0.2,0.5,0.6,0.9,0.6,0.9s-0.2-0.3-0.2-0.8
		c0-0.5,0-0.5,0-0.5s0.2,0.5,0.4,0.8c0.2,0.4,0.5,0.7,0.5,0.7s-0.1-0.2-0.2-0.5c0-0.2,0-0.3,0-0.3s0.9,0.6,1.5,1.5
		c0.5,0.7,0.2,1.1,0.2,1.1s0.4-0.2,0.8-0.1c0.3,0.1,0.3,0.6,0.3,0.6s0.6,0.2,1.1,0.2c0.2,0,0.4,0,0.5-0.1c0,0,0,0,0,0
		c0-0.1,0-0.3,0-0.4c0,0-0.1-0.3-0.1-0.3s0.3,0.2,0.3,0.6c0,0,0,0,0,0c0.3-0.1,0.4-0.1,0.4-0.1S100.9,54.2,100.5,54z"/>
	<circle cx="41.5" cy="94.9" r="0.7"/>
	<circle cx="44.9" cy="93.7" r="0.7"/>
	<g>
		<circle cx="45.9" cy="86.4" r="0.6"/>
		<circle cx="43.1" cy="85.3" r="0.6"/>
		<circle cx="41.5" cy="85.1" r="0.6"/>
		<circle cx="40" cy="85.5" r="0.6"/>
		<circle cx="38.8" cy="86.6" r="0.6"/>
		<circle cx="38.5" cy="88.2" r="0.6"/>
		<circle cx="44.4" cy="85.9" r="0.6"/>
		<circle cx="38.8" cy="89.8" r="0.6"/>
		<circle cx="39.5" cy="91.3" r="0.6"/>
	</g>
	<path d="M48.2,92.4c3.1,0,5.9,0.8,8,2.1l1-2.1c0,0-1.8,0.7-3,0.2c-1.2-0.5-1.7-2.1-1.7-2.1s-1,1.3-2.5,1.1
		c-1.5-0.2-1.9-2.3-1.9-2.3s-0.4,2.1-1.9,2.3c-1.5,0.2-2.5-1.1-2.5-1.1s-0.5,1.6-1.7,2.1c-1.2,0.5-3-0.2-3-0.2l1,2.1
		C42.3,93.3,45.1,92.4,48.2,92.4z"/>
	<path d="M48.2,95.3c2.8,0,4.9,0.7,6.7,1.9l0.5-0.9c-1.8-1.2-4.5-2.1-7.2-2.1c-2.7,0-5.4,0.8-7.2,2.1l0.5,0.9
		C43.2,96,45.4,95.3,48.2,95.3z"/>
	<circle cx="54.9" cy="94.9" r="0.7"/>
	<circle cx="51.4" cy="93.7" r="0.7"/>
	<circle cx="48.2" cy="93.3" r="0.7"/>
	<path d="M48.2,88.3c0,0,0.3,2.9,1.9,3.1c1.5,0.2,2.5-1.3,2.5-1.3s0.7,2.3,2.2,2.5c0,0,2.5-3.5,0.3-5c-1.9-1.2-5,0.2-6.9,0.2
		c-1.9,0-5-1.4-6.9-0.2c-2.2,1.5,0.3,5,0.3,5c1.6-0.1,2.2-2.5,2.2-2.5s1,1.5,2.5,1.3C47.9,91.2,48.2,88.3,48.2,88.3z"/>
	<g>
		<circle cx="50.4" cy="86.4" r="0.6"/>
		<circle cx="53.3" cy="85.3" r="0.6"/>
		<circle cx="54.9" cy="85.1" r="0.6"/>
		<circle cx="56.3" cy="85.5" r="0.6"/>
		<circle cx="57.6" cy="86.6" r="0.6"/>
		<circle cx="57.9" cy="88.2" r="0.6"/>
		<circle cx="51.9" cy="85.9" r="0.6"/>
		<circle cx="57.5" cy="89.8" r="0.6"/>
		<circle cx="56.9" cy="91.3" r="0.6"/>
	</g>
	<path d="M46.9,86.1c0-0.7,0.6-1.3,1.3-1.3c0.7,0,1.3,0.6,1.3,1.3c0,0.7-0.6,1.3-1.3,1.3C47.5,87.4,46.9,86.8,46.9,86.1z M48.2,87.1
		c0.2,0,0.4-0.2,0.4-0.4c0-0.2-0.2-0.4-0.4-0.4c-0.2,0-0.4,0.2-0.4,0.4C47.8,86.9,48,87.1,48.2,87.1z"/>
	<polygon points="48.2,85.3 48.6,85.3 48.6,84.3 49.8,85 49.8,82.5 48.6,83.3 49.5,81.9 48.2,81.9 46.8,81.9 47.7,83.3 46.6,82.5 
		46.6,85 47.7,84.3 47.7,85.3 	"/>
	<path class="st4" d="M108.9,35.3l-5.3-4.9l0.2-0.2c0.6,0.5,1.1,0.4,2-0.5l4.2-4.6c0.8-0.8,0.7-1.3,0.1-1.8l0.2-0.2l2.6,2.4
		l-0.2,0.2c-0.6-0.6-1.2-0.4-1.9,0.4l-4.5,4.9c-0.5,0.6-0.4,0.9,0.2,1.5l1.5,1.3c0.9,0.8,1.3,0.8,2.6,0.1l0.2,0.2L108.9,35.3z"/>
	<path class="st4" d="M130.3,76.9c1.3,0.2,1.6,0,1.7-0.9l0.3,0l-0.6,3.7c-0.4,2.4-1.7,3.2-3,3c-1.1-0.2-1.7-0.9-1.9-2.3l0,0
		c-0.6,1.5-1.9,2.3-3.2,2.1c-1.5-0.2-2.2-1.7-1.9-3.6l0.7-4.5l0.3,0c-0.1,0.8,0.2,1.2,1.4,1.4L130.3,76.9z M127.2,78.8
		c-0.2,1.4,0.4,2.5,1.7,2.7c1.2,0.2,2.2-0.4,2.5-2l0.2-1l-4.2-0.7L127.2,78.8z M124.1,77.2c-1.3-0.2-1.7,0-1.8,0.7l-0.1,0.8
		c-0.2,1,0.4,2.1,1.8,2.3c1.4,0.2,2.6-0.7,2.9-2.4l0.2-0.9L124.1,77.2z"/>
	<path class="st4" d="M17.2,79.3c1.2-0.2,1.5-0.5,1.4-1.3l0.3,0l0.5,3.6l-0.3,0c-0.1-0.8-0.4-1.1-1.7-0.9l-6.2,0.8
		c-1.3,0.2-1.5,0.5-1.4,1.3l-0.3,0L9,78.8c-0.3-2.2,0.9-3.5,2.2-3.6c1.1-0.1,2.1,0.3,2.7,1.7c1-2,4.1-3,4.1-4.7l0.3,0l0.3,2
		c-2,2.1-4.3,3-4,4.8l0.1,0.8L17.2,79.3z M14.1,79.7L14,78.5c-0.2-1.7-1.4-2.2-2.6-2c-1.3,0.2-2.1,1.3-1.9,2.8l0.1,1L14.1,79.7z"/>
	<path class="st4" d="M15,64.4l0,0.3c-0.9,0.2-1,0.3-1.1,1.3l-0.2,2.5l3.6,0.2c0.5,0,0.7-0.1,0.7-0.7l0.1-1.7
		c0.1-1.5,0.1-1.8-1.2-2.5l0-0.3l1.8,0.6l-0.5,7.2l-0.3,0c0.1-0.8-0.2-1.1-1.5-1.2l-6.2-0.4c-1.2-0.1-1.6,0.2-1.7,1l-0.3,0l0.5-7.2
		l1.7,0.1l0,0.2c-1.1,0.2-1.2,0.5-1.3,1.6L9,68.1l4.3,0.3l0.2-2.8c0-0.7-0.1-0.9-0.9-1.1l0-0.3L15,64.4z"/>
	<path class="st4" d="M16.4,55.9L15.6,59l1.8,1.1c0.9,0.6,1.6,0.9,1.8-0.1l0.3,0.1l-0.6,2.5l-0.3-0.1c0.1-0.9-0.3-1.3-1.2-1.8
		l-7.3-4.7l0.3-1l9-0.7c1-0.1,1.3-0.2,1.5-1.1l0.3,0.1l-0.9,3.4L20,56.7c0.2-0.7,0-1.1-0.8-1L16.4,55.9z M11.3,56.3L11.3,56.3
		l3.8,2.4l0.7-2.7L11.3,56.3z"/>
	<path class="st4" d="M14.7,47.8c-1.1-0.5-1.6-0.4-1.9,0.3L12.5,48l2-4.1c1.7-3.4,4.8-3.9,7.1-2.8c2.3,1.1,3.6,3.6,1.9,7.1l-2.1,4.3
		l-0.3-0.1c0.4-0.7,0.2-1.2-0.9-1.7L14.7,47.8z M20.6,49.2c1.4,0.7,1.8,0.5,2.2-0.3l0.5-0.9c1.1-2.2,0.2-4.3-2.2-5.5
		c-2.1-1.1-4.8-1-6.2,1.8L13.9,46L20.6,49.2z"/>
	<path class="st4" d="M26.6,39.4c1,0.7,1.5,0.7,1.9,0l0.2,0.2l-2.1,2.9l-0.2-0.2c0.5-0.7,0.4-1.1-0.6-1.8l-5.1-3.6
		c-1-0.7-1.5-0.7-1.9,0l-0.2-0.2l2.1-2.9l0.2,0.2c-0.5,0.7-0.3,1.1,0.6,1.8L26.6,39.4z"/>
	<path class="st4" d="M35.8,31.7L35.6,32l-11.1-0.8l0,0l5.1,4.8c0.7,0.7,1.3,0.6,1.9,0l0.2,0.2l-2.1,2.2l-0.2-0.2
		c0.6-0.6,0.7-1.1-0.4-2.1l-4.3-4c-0.8-0.8-1.5-1-2.4-0.2l-0.2-0.2l1.8-1.9l9.9,0.8l0,0l-4.3-4c-1-0.9-1.4-0.9-2-0.2l-0.2-0.2
		l2.1-2.2l0.2,0.2c-0.7,0.7-0.6,1.2,0.3,2L35.8,31.7z"/>
	<path class="st4" d="M43.9,25.8c-0.4,0.4-1.8,1.5-2.2,1.8c-3.6,2.5-6.3,1.1-7.6-0.8c-2-2.9-0.9-6.1,1.1-7.5
		c1.2-0.8,1.9-0.7,2.5-1.1C38,18,38,17.8,38,17.6l0.3-0.2l1.7,2.4L39.7,20c-1.3-1.4-3.1-1.1-4.3-0.4c-1.7,1.2-2,3.5-0.4,5.8
		c1.7,2.4,4.3,3.2,6.3,1.9c0.6-0.4,1.3-1.1,0.8-1.8l-0.6-0.9c-0.7-1-1.2-1.2-1.8-0.7L39.3,24l-0.2-0.2l3.3-2.3l0.2,0.2
		c-0.8,0.6-0.8,1.1-0.3,1.8L43.9,25.8z"/>
	<path class="st4" d="M50.8,20.4c0.4,1.1,0.8,1.4,1.6,1.1l0.1,0.3L49.2,23l-0.1-0.3c0.8-0.3,0.9-0.7,0.5-1.9L47.5,15
		c-0.4-1.2-0.8-1.4-1.6-1.1l-0.1-0.3l6.4-2.3l0.6,1.7l-0.2,0.1c-0.6-1.1-0.9-1-2-0.7l-2.4,0.9l1.4,3.9l2.4-0.9
		c0.7-0.3,0.8-0.7,0.6-1.5l0.3-0.1l1,2.6l-0.3,0.1c-0.3-0.7-0.7-0.9-1.4-0.7l-2.5,0.9L50.8,20.4z"/>
	<path class="st4" d="M60.1,9.2c2.9-0.3,5.5,1.6,5.9,4.5c0.3,2.9-1.7,5.5-4.7,5.9c-3,0.3-5.5-1.7-5.9-4.6
		C55.1,12.1,57.1,9.6,60.1,9.2z M61.3,19.3c2.5-0.3,3.5-2.8,3.2-5.2c-0.4-3.1-2.2-4.7-4.3-4.4c-2.3,0.3-3.6,2.4-3.3,5.2
		C57.3,17.8,59,19.5,61.3,19.3z"/>
	<path class="st4" d="M73.5,8.3c3,0.1,5.2,2.5,5.1,5.4c-0.1,3-2.5,5.2-5.5,5.1c-3-0.1-5.2-2.5-5.1-5.5C68,10.4,70.4,8.2,73.5,8.3z
		 M73,18.4c2.5,0.1,3.9-2.2,4-4.7c0.1-3.1-1.5-5-3.6-5c-2.4-0.1-3.9,1.8-4,4.7C69.4,16.3,70.8,18.3,73,18.4z"/>
	<path class="st4" d="M83.4,18.4c-0.3,1.2-0.1,1.5,0.7,1.7L84,20.4l-3.4-0.8l0.1-0.3c0.7,0.2,1.2,0.1,1.5-1.3l1.7-7.4l-1.4-0.3
		c-1.3-0.3-2-0.1-2.3,0.9l-0.3-0.1l0.5-2.2L80.7,9c0.1,0.2,0.2,0.3,0.5,0.4c0.2,0.1,0.5,0.2,0.9,0.3l5.1,1.2c0.8,0.2,1.3,0.2,1.6,0
		l0.3,0.1l-0.5,2.2l-0.2,0c0-0.9-0.2-1.5-1.7-1.9l-1.5-0.3L83.4,18.4z"/>
	<path class="st4" d="M91.4,14.2c0.5-1.2,0.3-1.6-0.4-1.9l0.1-0.3l3.5,1.5c2.2,0.9,2.7,2.4,2.2,3.6c-0.4,1-1.3,1.4-2.7,1.3l0,0
		c1.3,0.9,1.8,2.4,1.3,3.6c-0.6,1.4-2.2,1.7-3.9,1l-4.2-1.8l0.1-0.3c0.8,0.3,1.2,0.1,1.7-1L91.4,14.2z M92.5,17.6
		c1.3,0.6,2.5,0.1,3-1c0.5-1.2,0.1-2.3-1.4-2.9l-0.9-0.4l-1.6,3.9L92.5,17.6z M90.3,20.3c-0.5,1.2-0.4,1.6,0.3,1.9l0.8,0.3
		c0.9,0.4,2.1,0.1,2.6-1.2c0.6-1.3-0.1-2.7-1.7-3.4l-0.9-0.4L90.3,20.3z"/>
	<path class="st4" d="M102.2,24.4l-2.7-1.8l-1.7,1.3c-0.8,0.6-1.4,1.1-0.5,1.7l-0.2,0.2L95,24.4l0.2-0.2c0.9,0.4,1.3,0.1,2.1-0.5
		l6.9-5.2L105,19l-2.5,8.7c-0.3,0.9-0.2,1.3,0.5,1.8l-0.2,0.2l-2.9-2l0.2-0.2c0.6,0.4,1,0.3,1.2-0.4L102.2,24.4z M103.6,19.5
		L103.6,19.5l-3.6,2.7l2.3,1.6L103.6,19.5z"/>
	<path class="st4" d="M108.9,35.3l-5.3-4.9l0.2-0.2c0.6,0.5,1.1,0.4,2-0.5l4.2-4.6c0.8-0.8,0.7-1.3,0.1-1.8l0.2-0.2l2.6,2.4
		l-0.2,0.2c-0.6-0.6-1.2-0.4-1.9,0.4l-4.5,4.9c-0.5,0.6-0.4,0.9,0.2,1.5l1.5,1.3c0.9,0.8,1.3,0.8,2.6,0.1l0.2,0.2L108.9,35.3z"/>
	<path class="st4" d="M113.9,41.8l-4.3-5.8l0.2-0.2c0.5,0.6,1,0.6,2-0.1l5-3.7c0.9-0.7,1-1.1,0.5-1.8l0.2-0.2l2.1,2.9l-0.2,0.2
		c-0.5-0.7-1.1-0.6-1.9,0l-5.4,4c-0.6,0.5-0.6,0.8-0.1,1.5l1.2,1.6c0.7,1,1.1,1.1,2.5,0.6L116,41L113.9,41.8z"/>
	<path class="st4" d="M126.5,51.6c1.6-1.1,2-2.4,1.4-4c-0.8-2.3-3.1-2.8-5.5-1.9c-2.8,1.1-4.1,3.2-3.3,5.3c0.6,1.5,1.6,2.3,3.3,2.5
		l-0.1,0.3c-1.7-0.1-3.2-1.2-3.9-3c-0.8-2.3-0.2-5.2,2.9-6.3c3-1.1,5.9,0.1,7,2.9c0.4,1.2,0.4,2.2,0.6,2.8c0.1,0.2,0.3,0.4,0.5,0.4
		l0.1,0.3l-2.8,1L126.5,51.6z"/>
	<path class="st4" d="M122.1,62.8l-1.6-7.1l0.3-0.1c0.2,0.8,0.7,1,1.9,0.7l6.1-1.4c1.1-0.2,1.3-0.6,1.2-1.4l0.3-0.1L131,57l-0.3,0.1
		c-0.2-0.8-0.7-1-1.8-0.7l-6.5,1.5c-0.8,0.2-0.9,0.5-0.7,1.3l0.4,1.9c0.3,1.2,0.6,1.4,2.1,1.6l0.1,0.3L122.1,62.8z"/>
	<path class="st4" d="M123.8,70.9c-1.2-0.9-1.7-1.9-1.8-3.2c-0.1-2.4,1.5-3.5,3.3-3.6l4.9-0.2c1.3-0.1,1.6-0.4,1.5-1.2l0.3,0
		l0.2,3.6l-0.3,0c0-0.8-0.4-1.1-1.6-1.1l-5,0.2c-1.5,0.1-2.6,1-2.5,2.7c0.1,1.1,0.7,2.1,1.8,2.8l6-0.3c1.1-0.1,1.5-0.3,1.5-1.1
		l0.3,0l0.2,3.5l-0.3,0c0-0.8-0.4-1.1-1.6-1.1l-6.2,0.3c-1.3,0.1-1.6,0.4-1.5,1.2l-0.3,0l-0.1-2.5L123.8,70.9z"/>
	<path class="st4" d="M45,123l-0.3-0.1c0.2-0.9,0.1-1-0.8-1.5l-2.2-1.2l-1.7,3.1c-0.2,0.4-0.2,0.7,0.3,0.9l1.5,0.8
		c1.3,0.7,1.6,0.8,2.8,0l0.3,0.1l-1.3,1.4l-6.3-3.5l0.1-0.3c0.7,0.4,1.1,0.3,1.7-0.8l3-5.5c0.6-1.1,0.5-1.5-0.2-1.9l0.1-0.3l6.3,3.5
		l-0.8,1.5l-0.2-0.1c0.3-1.1,0.1-1.3-0.9-1.8l-2.5-1.4l-2,3.7l2.4,1.3c0.6,0.3,0.9,0.3,1.4-0.3l0.3,0.1L45,123z"/>
	<path class="st4" d="M54.3,122.4l-0.3-0.1c0.3-1.5-0.5-2.3-1.4-2.7c-1-0.3-1.9,0-2.2,0.8c-0.6,1.7,1.6,3,2.5,4.9
		c0.4,0.9,0.4,1.5,0.2,2.2c-0.5,1.5-2.1,2.3-3.6,1.8c-1-0.3-1.7-1.1-2-1.2c-0.2-0.1-0.3,0-0.5,0.2l-0.3-0.1l0.9-2.6l0.3,0.1
		c-0.6,1.8,0.6,2.8,1.5,3.1c1.1,0.4,2.1,0,2.5-1c0.6-1.6-1.7-3.3-2.4-4.7c-0.4-0.8-0.4-1.5-0.1-2.3c0.5-1.4,1.9-2.1,3.4-1.5
		c1,0.3,1.4,0.9,1.7,1c0.1,0.1,0.2,0,0.3-0.2l0.3,0.1L54.3,122.4z"/>
	<path class="st4" d="M60.1,129.9c-0.2,1.2-0.1,1.5,0.8,1.7l-0.1,0.3l-3.5-0.6l0.1-0.3c0.7,0.1,1.2,0,1.4-1.4l1.4-7.5l-1.4-0.3
		c-1.3-0.2-2,0-2.3,1l-0.3-0.1l0.4-2.2l0.3,0.1c0.1,0.1,0.3,0.3,0.5,0.4c0.2,0.1,0.5,0.2,0.9,0.3l5.1,0.9c0.9,0.2,1.3,0.1,1.6-0.1
		l0.3,0.1l-0.4,2.2l-0.2,0c0-0.9-0.3-1.5-1.8-1.8l-1.5-0.3L60.1,129.9z"/>
	<path class="st4" d="M66.1,132.4c0,0.5-0.4,0.8-0.8,0.8c-0.5,0-0.8-0.4-0.8-0.8c0-0.5,0.4-0.8,0.8-0.8
		C65.8,131.5,66.1,131.9,66.1,132.4z"/>
	<path class="st4" d="M76.2,131.2c0.1,0.9,0.3,1.1,1.1,1l0,0.3l-3.2,0.3l0-0.3c0.8-0.1,1-0.2,0.9-1.2l-0.5-6.9
		c0-0.3-0.1-0.3-0.2-0.3c-0.1,0-0.6,0.4-1.3,0.5l0-0.3c1.1-0.7,1.9-1.3,2.2-1.9l0.3,0L76.2,131.2z"/>
	<path class="st4" d="M82.1,121c1.5-0.3,2.7,0.5,3,1.7c0.2,0.8,0,1.7-1.2,2.7c1.5,0.7,2.3,1.5,2.5,2.6c0.3,1.5-0.8,2.9-2.4,3.2
		c-1.6,0.3-3-0.4-3.3-1.8c-0.2-1.1,0.3-2,1.6-3.1c-1.3-0.4-2.2-1.2-2.4-2.3C79.7,122.5,80.5,121.3,82.1,121z M83.5,125.3
		c0.8-0.6,0.9-1.4,0.7-2.2c-0.2-1.2-1.1-1.9-2.2-1.7c-0.9,0.2-1.5,1-1.3,1.8C80.9,124.1,81.7,124.7,83.5,125.3z M84,130.8
		c1-0.2,1.6-1.1,1.4-2c-0.2-1-1.2-1.7-2.8-2.2c-0.9,0.7-1.3,1.5-1.1,2.5C81.9,130.2,82.9,131,84,130.8z"/>
	<path class="st4" d="M86.3,119.9l0.3-0.1c0.1,0.1,0.2,0.2,0.3,0.2c0.1,0,0.2,0,0.4-0.1l5.1-2l0.1,0.3l0.3,10.4l-1.2,0.4l0.3-9.9
		l-4.1,1.6c-0.6,0.2-0.7,0.5-0.9,1.7l-0.3,0.1L86.3,119.9z"/>
	<path class="st4" d="M100.4,123.5c0.4,0.8,0.7,0.9,1.4,0.5l0.1,0.2l-2.8,1.5l-0.1-0.2c0.7-0.4,0.8-0.6,0.4-1.5l-3.3-6
		c-0.1-0.3-0.2-0.3-0.3-0.2c-0.1,0.1-0.4,0.6-1,1l-0.1-0.3c0.7-1,1.2-2,1.3-2.6l0.3-0.1L100.4,123.5z"/>
</g>
</svg>
