<svg version="1.1" id="Layer_1" xmlns="http://www.w3.org/2000/svg" x="0" y="0" viewBox="0 0 407.2 590.1" style="enable-background:new 0 0 407.2 590.1" xml:space="preserve"><style>.st0{fill:#4681cf}.st1{fill:#e9b008}.st2{fill:#373534}.st3{fill:#fff}.st4{fill:#4ca950}</style><path class="st0" d="M322.4 37.9c-3.6-2-7 .2-9.7 2.5-8.2 6.9-12.9 15.9-13.7 26.4-.4 5.6 1.2 11.2 6.7 14.6 3.5 2.2 7.2 2.4 10.9.3 5.5-3.2 7.2-8.5 7.5-14.2.3-6.9.1-13.7.1-20.6.4-3.1 1.5-7.1-1.8-9M344.5 37.5c-4.1 1.2-5.9 4.7-6.3 8.8-.3 3.4-.6 6.9-.8 10.3-.2 3.4-.5 6.9-.7 10.3-.1 4.4.6 8 2 10.9.5 1 1 1.8 1.6 2.6s1.3 1.5 2.1 2c2.3 1.8 5.3 2.6 8.9 2.6 8.1-.2 13.4-7.4 12.9-18.4-.4-9.2-3.7-17.4-9.1-24.8-2.6-3.7-6.2-5.5-10.6-4.3M83 45c-2-6.3-7.9-7-12.6-8.2-5.8-.3-10.1.9-10.4 6.9-.4 7.1 5.5 8.3 10.6 9.8 2.4.7 13-6.6 12.4-8.5M64.5 89c1.7.4 3.5.4 4.1.4 2 0 2.7.1 3.5 0 5.1-.5 9.8-2 11.3-7.3 1.4-4.7-2.2-7.4-5.5-10-4.7-3.6-7.9-.4-11.3 2.3-1.6 1.3-3.4 2.3-4.8 3.7-2 2.1-6.4 3.2-5.5 6.4.8 3.4 5 3.7 8.2 4.5M120.8 381c4.2-.1 6.5-2.4 9.4-3.9 5.4-2.8 10.9-5.2 18.2-5.1-3.6-4-6-9.2-7.4-12.6-9.2 4.6-15.9 10.7-20.4 18.1-.7 1.2-1.1 2.3.2 3.5"/><path class="st1" d="M177.4 555.7h-.3c-.8 0-1.3.3-1.6 1-.4.8-.9 2.7-1.3 7.4-.3 3.5-.3 5.9.1 7.2.3.9.8 1.3 1.9 1.4 1 .1 1.6-.2 2-1 .4-.7.9-2.4 1.1-6.3.3-5.1.1-7.3-.1-8.2-.3-1-.8-1.4-1.8-1.5M69.6 522.6c-.4-.2-.8-.4-1.1-.4-.2 0-.6 0-1 .4-.6.6-1.7 2.1-3.6 6.3-1.4 3.1-2.2 5.4-2.3 6.7 0 1 .4 1.7 1.4 2.2.4.2.8.4 1.2.4s.7-.1 1-.4c.6-.5 1.6-1.8 3.1-5.4 2-4.6 2.5-6.8 2.6-7.7 0-.9-.4-1.5-1.3-2.1M59.9 446.1c3.2-11.4 1.1-15.2-8.5-15.4 4.8 4 6.2 9.2 8.5 15.4M30.8 446.2h17.1c-8.2-7.6-14.7-7.2-17.1 0M54.4 444c-3.3-12.7-8.4-14.8-18.6-6.5 8.1-.9 12.7 4.1 18.6 6.5M264.1 558c0 .9-.1 1.9-.1 2.9 0 .6-.1 1.2-.1 1.7.7-.2 1.4-.3 2.1-.5-.4-.8-.7-1.6-1.1-2.3-.3-.6-.6-1.2-.8-1.8M28.2 459.8c4.9-5.2 10.6-5.7 16-8.3-10.1-3.1-15.4-.7-16 8.3M40.2 457.4c-4.5.6-8.2 2.6-10.1 6.9-.6 1.3-.3 3 1.7 3.9 3.4-3 7-6 10.2-9.2.7-.8-.6-1.8-1.8-1.6M39 478.7c1.6-4 2.1-8.1 1.7-12.7-7.7 5.9-7.9 7.2-1.7 12.7"/><path class="st1" d="M369.1 525.6c-.8 2.1-2.2 4-4.4 5.4-1.8 1.2-3.6 1.8-5.4 1.9-.4 0-.8-.2-1.1-.6l-1.5-2.9c-.2-.4-.2-.8 0-1.1s.6-.6.9-.6c1.5-.1 2.8-.5 3.8-1.1.8-.5 1.3-1.1 1.6-1.8.2-.6.1-1.2-.2-1.8-.3-.5-.7-.9-1.2-1.1-.3-.1-.7-.2-1.3-.3-.6-.1-1.3-.2-2.1-.3-1.3-.1-2.5-.2-3.5-.4s-1.8-.4-2.4-.7c-1.2-.6-2.2-1.6-3-3.1-1-2-1.2-4-.5-6 .7-1.9 2.1-3.6 4.1-5 1.4-.9 2.9-1.6 4.4-1.9.5-.1 1 .1 1.3.6l1.5 2.8c.2.3.2.8 0 1.1-.2.4-.5.6-.9.6-1.2.1-2.2.4-2.9.9-.7.5-1.2 1.1-1.4 1.8-.2.6-.2 1.2.1 1.7.3.5.6.8 1 .9.2.1.7.2 1.5.3.7.1 1.7.2 2.8.3 2.4.2 4 .5 5.2 1.1s2.3 1.6 3.1 3c1.1 1.9 1.3 4.1.5 6.3m-17.5 13.1c-1.3.8-2.7 1.5-4 2.3-.2.1-.4.2-.6.2-.1 0-.2 0-.4-.1-.3-.1-.6-.3-.7-.6l-10.2-22.2c-.3-.6 0-1.2.5-1.5 1.2-.7 2.5-1.4 3.7-2.1.3-.2.6-.2.9-.1.3.1.6.3.7.6l10.4 22c.4.6.2 1.2-.3 1.5m-11 5.7c-.1.3-.3.6-.6.7-1.3.7-2.6 1.4-3.9 2-.6.3-1.3.1-1.6-.5-1.3-2.4-2.6-4.9-3.8-7.3l-.1-.2 1.2 9.3c.1.5-.2 1-.7 1.2-.9.4-1.8.9-2.8 1.3-.5.2-1.1.1-1.4-.4-1.9-2.5-3.8-5-5.6-7.5.8 2.9 1.7 5.9 2.5 8.8.2.6-.1 1.2-.7 1.4-1.3.6-2.6 1.2-3.9 1.7-.1.1-.3.1-.5.1s-.4 0-.5-.1c-.3-.2-.5-.4-.6-.8-1.9-8-3.8-16.2-5.8-24.2-.1-.6.1-1.1.7-1.4l3.3-1.5c.5-.2 1.1-.1 1.4.4 2 2.7 4 5.5 6.1 8.2.4.6.9 1.2 1.3 1.8 0-.2-.1-.5-.1-.7l-.2-1.9c-.4-3.4-.9-6.8-1.4-10.2-.1-.5.2-1 .6-1.2 1.1-.5 2.2-1.1 3.3-1.6.6-.3 1.3-.1 1.6.5 4 7 8.1 14.2 12.2 21.1 0 .4.1.7 0 1m-29.6 14c-1.4.6-2.8 1.1-4.2 1.6-.1.1-.3.1-.4.1-.2 0-.4 0-.5-.1-.3-.1-.5-.4-.6-.7l-7.3-23.5c-.2-.6.1-1.2.7-1.5l3.9-1.5c.3-.1.6-.1.9 0s.5.4.6.7l7.6 23.4c.2.7-.1 1.3-.7 1.5m-13.6 5c-1.3.5-2.7.9-4 1.3-.5.2-1 0-1.3-.4-2.4-2.9-4.8-5.9-7.2-8.8l2.6 9.8c.2.6-.2 1.3-.8 1.4-1.4.4-2.9.8-4.3 1.2h-.3c-.2 0-.4-.1-.6-.2-.3-.2-.5-.4-.5-.7l-5.6-24.1c-.1-.6.2-1.2.8-1.4 1.2-.3 2.5-.7 3.7-1.1.5-.1 1 0 1.3.4 2.1 2.8 4.2 5.6 6.4 8.3 0-.1-.1-.2-.1-.3l-2.4-8.9c-.2-.6.2-1.2.8-1.4 1.3-.4 2.6-.9 3.9-1.3.3-.1.6-.1.9.1.3.2.5.4.6.7l6.6 23.7c.5.9.1 1.5-.5 1.7m-21.2 5.9c-.1.3-.4.6-.8.7-1.4.4-2.9.7-4.3 1.1-.5.1-1.1-.1-1.3-.6-.6-1.2-1.2-2.4-1.7-3.6-1.5.3-3 .7-4.6 1-.1 1.4-.2 2.8-.3 4.1 0 .5-.4.9-.9 1.1-1.4.3-2.8.6-4.2.8h-.2c-.3 0-.6-.1-.8-.3-.3-.3-.4-.6-.4-1 1.1-8.5 2-17.2 2.7-25.8 0-.5.4-.9.9-1.1 1-.2 2.1-.5 3.1-.7.5-.1 1.1.1 1.3.6 3.7 7.6 7.5 15.2 11.5 22.6.2.3.2.7 0 1.1m-38.8-14.4c-1.2.1-2.3.3-3.5.4l1.9 20.7c.1.6-.4 1.2-1 1.3-1.5.2-2.9.3-4.4.4h-.1c-.3 0-.5-.1-.8-.3-.2-.2-.4-.5-.4-.8l-1.6-20.6-3.6.3c-.3 0-.6-.1-.9-.3-.2-.2-.4-.5-.4-.8l-.2-2.9c0-.6.4-1.2 1.1-1.2 4.4-.3 8.9-.8 13.3-1.3.3 0 .6 0 .9.2.2.2.4.5.4.8l.3 2.9c.1.6-.3 1.1-1 1.2m-18.3 23.6c-3.9.2-7.9.4-11.9.4-.3 0-.6-.1-.8-.3-.2-.2-.4-.5-.4-.8l-.3-24.8c0-.7.5-1.2 1.2-1.2 3.6-.1 7.3-.2 10.9-.4.3 0 .6.1.9.3.2.2.4.5.4.8l.1 2.8c0 .6-.5 1.2-1.1 1.2-1.9.1-3.8.2-5.8.3l.1 5.5c1.7-.1 3.4-.1 5.1-.2.3 0 .6.1.9.3.2.2.4.5.4.8l.1 2.8c0 .6-.5 1.2-1.1 1.2-1.7.1-3.5.2-5.2.2l.2 6.1c2-.1 4.1-.2 6.1-.3.3 0 .6.1.9.3.2.2.4.5.4.8l.1 2.8c-.1.9-.6 1.4-1.2 1.4m-32.9-13c-.2 4.7-1.1 7.9-2.7 9.9-1.4 1.8-3.6 2.7-6.4 2.7-.4 0-.8 0-1.3-.1-3.6-.3-6.1-1.8-7.4-4.3-1.2-2.3-1.5-5.9-1-11.2.5-4.6 1.5-7.8 3-9.7 1.6-2 4.1-2.9 7.4-2.6 2.9.3 5 1.3 6.4 3.1.9 1.2 1.5 2.8 1.8 4.7.3 1.8.4 4.3.2 7.5m-26.8 9.1c0 .3-.2.6-.5.8-.2.2-.5.2-.7.2h-.2c-1.5-.2-2.9-.5-4.4-.7-.6-.1-1.1-.7-1-1.3L156 549c0-.3.2-.6.5-.8s.6-.3.9-.2c1.4.2 2.7.4 4.1.7.6.1 1.1.7 1 1.3l-3.1 24.6zm-11.7-2c-.1.3-.2.6-.5.8-.2.1-.4.2-.7.2h-.2c-3.8-.7-7.7-1.6-11.5-2.5-.6-.1-1-.8-.9-1.4l4.8-24.3c.1-.3.2-.6.5-.8s.6-.2.9-.2c1.3.3 2.7.6 4 .9.6.1 1 .7.9 1.4l-3.8 20.5c2 .4 4 .8 5.9 1.2.6.1 1 .7.9 1.3l-.3 2.9zm-15.6-29-5.4 24.1c-.1.3-.3.6-.5.8-.2.1-.4.2-.6.2h-.3c-1.4-.4-2.9-.8-4.3-1.2-.6-.2-1-.8-.8-1.4l5.8-24c.1-.3.3-.6.6-.7.3-.2.6-.2.9-.1 1.3.4 2.7.8 4 1.1.3 0 .7.6.6 1.2m-13.2-3.3-.8 3.1c-.1.4-.4.7-.9.8-.4.1-.9 0-1.1-.3-.9-1-1.7-1.6-2.5-1.8-.8-.3-1.4-.3-2 0-.5.2-.8.6-1 1.1-.2.6-.2 1.1.1 1.6.1.3.3.7.8 1.5.4.7 1 1.5 1.7 2.5 1.4 2 2.3 3.6 2.7 4.9.4 1.3.4 2.8 0 4.4-.6 2.2-1.9 3.8-3.9 4.7-1 .4-2 .6-3.1.6s-2.3-.2-3.5-.6c-2-.7-3.6-1.8-4.8-3.1-.3-.3-.4-.7-.2-1.1l1-3.1c.1-.4.5-.7.9-.8s.8 0 1.1.4c1.1 1.2 2.2 2 3.2 2.4.8.3 1.5.3 2.1.1.3-.1.7-.4 1-1.3.2-.6.2-1.2-.1-1.9-.1-.3-.3-.8-.6-1.3s-.7-1.2-1.2-1.9c-.8-1.1-1.5-2.2-2-3.1-.5-.9-.9-1.7-1.1-2.4-.4-1.4-.4-2.8.1-4.4.7-2.2 1.9-3.7 3.8-4.5 1.8-.8 3.9-.7 6.2 0 1.5.5 2.9 1.3 4.2 2.4-.1.2.1.6-.1 1.1m-26.7 16.8c-.2.1-.3.1-.5.1s-.3 0-.4-.1c-1.3-.5-2.6-1.1-3.9-1.6-.4-.2-.7-.6-.7-1-.3-3.9-.6-7.9-.8-11.8-1.1 3.1-2.2 6.2-3.2 9.3-.1.3-.3.6-.6.7-.3.1-.6.1-1 0-1.4-.6-2.7-1.3-4.1-1.9-.6-.3-.8-.9-.6-1.5l8.8-22.9c.1-.3.4-.5.7-.7.3-.1.6-.1.9 0 1.2.6 2.4 1.1 3.6 1.6.4.2.7.6.7 1 .1 3.6.3 7.3.5 10.9v.1-.1l3-8.6c.1-.3.3-.6.6-.7.3-.1.6-.1.9 0 1.3.5 2.6 1.1 3.9 1.6.6.2.9.9.7 1.5l-7.8 23.3c-.2.4-.4.7-.7.8m-23.4-13.6c-1 .5-2 .8-3.2.8-1.5 0-3.2-.5-5-1.5-3.2-1.8-5.1-4.1-5.4-7-.4-2.6.5-6.2 2.8-10.8 2-4.2 4-6.7 6.1-7.9 2.2-1.2 4.8-1 7.8.7 2.6 1.4 4.2 3.2 4.9 5.4.4 1.4.5 3.2.1 5.1-.3 1.7-1.1 4.1-2.3 7-1.8 4.3-3.7 7-5.8 8.2m-15.2-30.2c-.7-.4-1.4-.7-2-.8-.6 0-1.1.1-1.7.4-.6.4-1.3 1-2 1.8-.7.9-1.5 2-2.2 3.4-3.8 7-.4 9.2.7 9.9.5.3 1.3.6 2.2.8.3.1.6.3.8.7.2.3.1.7 0 1l-1.4 2.7c-.2.4-.6.6-1.1.6h-.2c-1.3-.2-2.6-.8-3.9-1.6-4.4-2.9-8.6-8.3-3.2-17.9 2.2-4 4.7-6.5 7.3-7.6 2.7-1.1 5.6-.6 8.7 1.3 1.1.7 2.1 1.7 3 2.8.3.4.3.8.1 1.2l-1.3 2.6c-.2.4-.5.6-.9.6s-.8-.1-1-.4c-.7-.6-1.3-1.2-1.9-1.5m327.3-44.4c-2.9 4.1-5.2 7.8-7.9 11.1-2.8 3.3-5.9 6.5-9.2 9.1-44.8 34.9-96.5 50.4-152.4 52.2-52.3 1.8-101.3-10.7-146.6-37.1-15.1-8.8-29.2-18.8-38.5-36-2.3 9.4-4.8 17.6-9.4 24.6-6 9.2-3.6 16.7 2.2 24.5 13 17.4 29.8 30.1 49.5 38.9 59.9 26.8 122.2 37.5 187.4 25.5 35.3-6.5 69.7-16 100.5-35.4 14-8.8 26.1-19.6 34.7-34 2.7-4.5 4.4-9 1.5-14.4-5-9-9-18.5-11.8-29M371.5 437.2c-4.8-3.5-7.6-6.9-11.7-4.8-4.3 2.2-7.1 6-7 12.8 5.3-5 10.6-7.8 18.7-8M358.4 446.5h18.2c-.4-3.5-1.4-5.7-5.1-5.7-4.8 0-9.3.6-13.1 5.7M354.8 430.8c-9.3.1-11.8 4.9-7.6 14.4 1.8-5.3 3.7-10.3 7.6-14.4M376.5 467.3c1.5-1.7.5-3.9-1.1-5.4-2.2-2.2-4.7-3.9-8.5-4.5-.4-.1-1.5-.1-1.9 1-.4 1 .1 1.9 1 2.6 2.1 1.5 4 3.1 6.1 4.5 1.3.9 1.9 4.4 4.4 1.8M345.3 447.4c-3.3-6.1-2.6-12.8-2.6-12.8s-4.7 1.4-5.4 5.6c-.7 4.2 8 7.2 8 7.2"/><path class="st1" d="M368.1 479.1c5.8-6.1 5.3-8.3-2-12.5 0 4.1-.2 8.1 2 12.5M347.1 497c4.5-3.3 9-6.6 13.5-10 2-1.6 3.7-3.2 3.2-6.3-.9-4.9-.8-10-2.8-15.3-4.6 3.2-9.5 5.4-15 6.1-.2.1-.4.1-.6.2-.4.1-4 .8-6.2.8h-.4c2.5 7.5 3.2 14.3 2.8 21.2-.5 5.1.9 6.7 5.5 3.3M346.4 467.1h.8c1.6 0 4.2-.3 4.4-1.5.3-1.3.5-4.7-.8-5.8s-5.1-1.5-5.1-1.5-.7 8.7.7 8.8M66.3 435.6c-1.2 3.8-.8 7.9-1.8 11.9 3.4-3.5 4.9-7.5 1.8-11.9M44.3 484.3c4.9 6.7 12.7 11.3 21.2 15.6.2-10.1-.2-19.1 3.2-28.4-8.8 1.3-16-1.5-23.4-6.4-.5 7.1-4.7 14.2-1 19.2M58.9 458.6c-4.9 0-4.4 6.2-4.4 6.2 1.9 2.2 8.7 3.4 8.7 3.4s1.8-9.1-3.7-9.6h-.6M332.9 447.7c.6 3.2 2.2 4.9 4 5.9 1.5.4 3.4.6 5.2.6.3 0 .5 0 .8.1l.5-2.4c-3-2-8.7-10.8-8.7-10.8-2 2-2 4.8-2 4.8v.3c0 .6 0 1 .2 1.5M72.2 441.3c-1.2 4.9-3.5 8.7-5.8 12.6 3.6-3.1 11.5-4.3 5.8-12.6M65.8 459.2c.4.7.6 1.5.8 2.2 1.8-.3 3.7-.5 5.3-1.2.7-.3 1.3-.7 1.9-1.3.4-.4.7-.8 1-1.4.6-1.1 1-2.5 1.1-4.3-1 .6-1.9 1.1-2.8 1.7-2.7 1.6-5 3-7.3 4.3M339.1 468.9c1.1 0 2.7-.2 3.9-.4-.6-1.1-.8-2.5-.9-3.8-.5.1-.9.2-1.1.3h-.8c-3.5 0-6.1-1.1-6.4-1.2-.1 0-.1-.1-.2-.1 1.6 3.3 3.7 4.7 4.5 5.1.2.1.5.1 1 .1M340.1 461.5h.2s.9-.2 1.7-.5c.1-1.5.2-2.7.2-2.8v-.2l-.1-.1s-10.6-.1-10.9-4.5c0 0-1.1 4.5 3.9 7.3.1-.1 2.1.8 5 .8M67 464.5c.1 1.6-.1 3-.2 3.8h.9c1.8 0 4.8-.4 5.7-5.6 0 0-3.2 1.8-6.2 1.8H67M378.8 460c-.5-9.1-7.1-12.1-15.8-8.2 5.4 2.1 10.9 3 15.8 8.2M377 328.3c-12.8 37-31.6 69.9-55.7 97.9-30.1 35-68.9 62.4-115.2 81.5l-.4.2c-.3.1-1.2.4-2 .4s-1.7-.3-1.9-.4c-.1 0-.2-.1-.3-.1-.1 0-.1 0-.2-.1-46.5-19.2-85.4-46.7-115.5-81.9-24.1-28.1-42.9-61.2-55.6-98.3-21.9-63.6-18.6-116.7-18.6-117.2V11.4h384.1V210.2c.2.6 3.3 54.7-18.7 118.1M403.2 4.1H4.3v205.6c0 .7-3.3 55.6 19 120.4 13.1 38 32.3 71.8 57 100.7 30.9 36 70.7 64.2 118.2 83.8.1 0 2.5 1.1 5.2 1.1s5.1-1.1 5.1-1.1c47.7-19.7 87.5-47.9 118.4-84 24.8-28.8 43.9-62.7 57-100.7 22.3-64.7 19-119.6 19-120.1V4.1z"/><path class="st2" d="M391.1 512.3c-8.5 14.4-20.7 25.2-34.7 34-30.8 19.4-65.2 28.9-100.5 35.4-65.2 11.9-127.5 1.3-187.4-25.5-19.6-8.8-36.4-21.5-49.5-38.9-5.8-7.8-8.2-15.3-2.2-24.5 4.6-7 7.1-15.2 9.4-24.6 9.3 17.2 23.4 27.2 38.5 36 45.4 26.4 94.4 38.9 146.6 37.1 55.9-1.9 107.6-17.4 152.4-52.2 3.4-2.6 6.5-5.8 9.2-9.1 2.8-3.3 5-7 7.9-11.1 2.8 10.5 6.8 20 11.7 29 3 5.3 1.3 9.9-1.4 14.4M39 478.7c-6.2-5.5-6.1-6.8 1.7-12.7.5 4.6 0 8.6-1.7 12.7m-7.2-10.6c-2-.9-2.3-2.6-1.7-3.9 1.9-4.2 5.6-6.3 10.1-6.9 1.1-.2 2.5.9 1.8 1.5-3.2 3.3-6.7 6.3-10.2 9.3m12.5-16.6c-5.4 2.6-11.1 3.1-16 8.3.5-9 5.8-11.4 16-8.3m3.6-5.3H30.8c2.4-7.2 8.9-7.6 17.1 0m6.5-2.2c-6-2.5-10.5-7.4-18.6-6.5 10.2-8.3 15.4-6.2 18.6 6.5m5.5 2.1c-2.3-6.2-3.7-11.4-8.5-15.4 9.6.2 11.7 4 8.5 15.4m.9 9.1c-.3-.1-.7-.1-1.1-.2h-.9c-2.2 0-4.2.8-5.6 2.3-1.7 1.8-2.2 4.2-2.3 5.9-4.7-3.2-5-7.3-3-11.4 2-4 6-4.3 10-3.1 2.1.6 3.5 2.1 3.5 4.4 0 .9-.2 1.6-.6 2.1m2.4 13s-6.8-1.2-8.7-3.4c0 0-.5-6.2 4.4-6.2h.6c5.4.5 3.7 9.6 3.7 9.6m5.5 3.3c-3.4 9.3-3 18.2-3.2 28.4-8.6-4.3-16.3-8.8-21.2-15.6-3.6-5 .5-12.1 1.1-19.2 7.3 4.9 14.5 7.7 23.3 6.4m-2.4-35.9c3.1 4.4 1.6 8.3-1.8 11.9 1-4 .6-8 1.8-11.9m5.9 5.7c5.8 8.3-2.2 9.5-5.8 12.6 2.2-3.9 4.6-7.7 5.8-12.6m2.5 16.3c-.3.5-.6 1-1 1.4-.6.6-1.2 1-1.9 1.3-1.6.7-3.4.9-5.3 1.2-.2-.8-.4-1.5-.8-2.2 2.3-1.4 4.6-2.7 7.2-4.2.9-.5 1.9-1.1 2.8-1.7 0 1.8-.4 3.2-1 4.2m-7.1 10.7h-.9c.1-.8.3-2.2.2-3.8h.2c3 0 6.2-1.8 6.2-1.8-.9 5.3-3.8 5.6-5.7 5.6m265.9-4.6c.1 0 .1.1.2.1.3.1 2.9 1.2 6.4 1.2h.8c.3 0 .6-.1 1.1-.3.1 1.3.3 2.7.9 3.8-1.2.2-2.8.4-3.9.4-.5 0-.8 0-1-.1-.8-.4-2.9-1.8-4.5-5.1m-2.3-10.4c.2 4.4 10.9 4.5 10.9 4.5l.1.1v.2c0 .1-.1 1.3-.2 2.8-.8.4-1.7.5-1.7.5h-.2c-2.9 0-5-.9-5-.9-5-2.8-3.9-7.2-3.9-7.2m3.5-12.2s5.7 8.8 8.7 10.8l-.5 2.4c-.3-.1-.5-.1-.8-.1-1.8 0-3.7-.3-5.2-.6-1.8-.9-3.5-2.7-4-5.9-.1-.4-.2-.9-.2-1.4v-.3s0-2.9 2-4.9m2.6-.9c.7-4.2 5.4-5.6 5.4-5.6s-.7 6.7 2.6 12.8c0 0-8.7-3-8-7.2m17.5-9.4c-4 4.1-5.8 9.1-7.6 14.4-4.2-9.4-1.6-14.3 7.6-14.4m5 1.5c4.1-2.1 7 1.3 11.7 4.8-8.1.2-13.3 3.1-18.7 7.9-.2-6.7 2.7-10.5 7-12.7m16.7 14.2h-18.2c3.8-5.1 8.3-5.7 13.1-5.7 3.8 0 4.8 2.3 5.1 5.7m-30.4 5.2c1.6-3.8 5.3-4.5 9-3.1 3.5 1.3 5.2 3.9 5 7.6 0 2.7-.7 5.5-3.2 6.5-.8.3-1.3.4-1.7.3-.1-1.9-.5-4.2-2.2-5.7-1.9-1.7-5.6-2.2-7.1-2.3h-.1c-.3-.9-.3-1.9.3-3.3m-.4 6.7s3.8.3 5.1 1.5c1.3 1.1 1.1 4.5.8 5.8-.2 1.1-2.7 1.5-4.4 1.5h-.8c-1.4-.2-.7-8.8-.7-8.8m-7.1 14.1h.4c2.2 0 5.8-.7 6.2-.7.2 0 .4-.1.6-.2 5.6-.7 10.4-3 15-6.1 2 5.2 1.9 10.4 2.8 15.3.6 3.1-1.1 4.8-3.2 6.3-4.4 3.4-9 6.6-13.5 10-4.6 3.4-6 1.8-5.6-3.4.5-6.9-.1-13.8-2.7-21.2m24.4-20.7c8.6-3.9 15.3-1 15.8 8.2-4.9-5.2-10.4-6.1-15.8-8.2m5.1 27.3c-2.1-4.4-2-8.4-2-12.5 7.3 4.2 7.7 6.4 2 12.5m-2.1-18.2c-1-.7-1.4-1.6-1-2.6.4-1.1 1.5-1.1 1.9-1 3.8.6 6.3 2.3 8.5 4.5 1.6 1.6 2.6 3.8 1.1 5.4-2.4 2.6-3-.9-4.4-1.9-2.1-1.3-4-2.9-6.1-4.4m17-6.5c-.2-4-1.6-8.1-3.2-11.7-6.3-13.9-23.4-20-36.8-13.5-10.7 5.2-16.4 14.9-15.3 25.5 0 .6.1 1.3.3 2.1 0 .1.1.2.1.3.3 1.4.7 2.8 1.2 4.2 0 .4 0 .9.1 1.3.9 3 2.3 5.1 3.6 6.6 3.9 8.7 5 17.6 4.8 27.1-.1 4.5-1.4 7.1-5.7 9.5-50.9 27.7-105.3 36.1-162.3 29.8-33.4-3.7-64.8-13.6-94.2-29.8-2.7-1.5-6.2-2.2-6.1-6.8.1-11.3.1-22.2 6.2-32.6 6.5-11.1 5.2-22.1-2.6-30.5-8.1-8.7-17.9-11.2-29.3-7.6-13.1 4.1-18.5 14.2-19.6 26.6-1.1 13-3.9 25.5-10.7 36.4-6.8 10.9-3.9 19.7 2.8 28.7 12.1 16.4 27.8 28.6 45.9 37.4 44.5 21.5 91.7 32.4 152.1 32.7 13 .4 36.6-2.5 59.8-8.1 31.3-7.5 62.1-16.7 89-35.4 12.2-8.5 23.2-18.4 31-31.4 4.2-7 5.4-13.7.8-21.4-7.1-12.2-11.3-25.3-11.9-39.4"/><path class="st2" d="M56.5 515.5c.4 0 .8-.3.9-.6l1.3-2.6c.2-.4.2-.9-.1-1.2-.9-1.2-1.9-2.1-3-2.8-3.1-2-6-2.4-8.7-1.3-2.6 1.1-5 3.6-7.3 7.6-5.4 9.6-1.2 15 3.2 17.9 1.3.8 2.6 1.4 3.9 1.6h.2c.4 0 .8-.2 1.1-.6l1.4-2.7c.2-.3.2-.7 0-1s-.4-.6-.8-.7c-.9-.2-1.6-.5-2.2-.8-1.1-.7-4.5-2.9-.7-9.9.8-1.4 1.5-2.5 2.2-3.4.7-.8 1.3-1.4 2-1.8.6-.3 1.1-.4 1.7-.4.6.1 1.3.3 2 .8.5.3 1.1.9 1.8 1.8.3 0 .7.1 1.1.1M68.2 532.6c-1.5 3.5-2.5 4.9-3.1 5.4-.3.3-.6.4-1 .4-.3 0-.7-.1-1.2-.4-1-.5-1.4-1.2-1.4-2.2.1-1.4.9-3.6 2.3-6.7 1.9-4.2 3-5.7 3.6-6.3.4-.4.8-.4 1-.4.3 0 .7.1 1.1.4.9.5 1.3 1.2 1.2 2.2 0 .8-.5 2.9-2.5 7.6m8.5-9.4c-.7-2.2-2.3-4-4.9-5.4-3-1.6-5.6-1.9-7.8-.7-2.1 1.1-4.1 3.7-6.1 7.9-2.2 4.7-3.1 8.2-2.8 10.8.4 2.8 2.2 5.2 5.4 7 1.8 1 3.4 1.5 5 1.5 1.1 0 2.2-.3 3.2-.8 2.1-1.2 4-3.9 5.8-8.2 1.2-2.9 2-5.3 2.3-7 .4-1.9.4-3.6-.1-5.1M100 531.6c-1.3-.5-2.6-1.1-3.9-1.6-.3-.1-.6-.1-.9 0-.3.1-.5.4-.6.7l-3 8.6v.1-.1c-.2-3.6-.4-7.3-.5-10.9 0-.4-.3-.8-.7-1-1.2-.5-2.4-1.1-3.6-1.7-.3-.1-.6-.2-.9 0-.3.1-.5.4-.7.7l-8.8 22.9c-.2.6 0 1.2.6 1.5 1.4.6 2.7 1.3 4.1 1.9.3.1.6.1 1 0 .3-.1.5-.4.6-.7 1.1-3.1 2.2-6.2 3.2-9.3.2 3.9.5 7.9.8 11.8 0 .4.3.8.7 1 1.3.6 2.6 1.1 3.9 1.6.1.1.3.1.4.1.2 0 .3 0 .5-.1.3-.1.5-.4.6-.7l7.8-23.3c.3-.6 0-1.2-.6-1.5M114.4 536.7c-2.3-.8-4.4-.8-6.2 0s-3.1 2.3-3.8 4.5c-.5 1.6-.5 3.1-.1 4.4.2.7.6 1.5 1.1 2.4s1.2 2 2 3.1c.5.7.9 1.4 1.2 1.9s.5 1 .6 1.3c.2.6.2 1.2.1 1.9-.2.9-.7 1.1-1 1.3-.5.2-1.2.2-2.1-.1-1-.4-2.1-1.2-3.2-2.4-.3-.3-.7-.5-1.1-.4-.4.1-.7.4-.9.8l-1 3.1c-.1.4 0 .8.2 1.1 1.2 1.4 2.8 2.4 4.8 3.1 1.2.4 2.4.6 3.5.6s2.1-.2 3.1-.6c2-.9 3.4-2.5 3.9-4.7.4-1.6.4-3.1 0-4.4-.4-1.3-1.2-2.9-2.7-4.9-.7-1-1.2-1.8-1.7-2.5-.5-.8-.7-1.2-.8-1.5-.2-.5-.2-1-.1-1.6.2-.6.5-.9 1-1.1.6-.2 1.2-.2 2 0 .8.3 1.6.9 2.5 1.8.3.3.7.4 1.1.3.4-.1.7-.4.9-.8l.8-3.1c.1-.4 0-.9-.4-1.2-.8-1-2.2-1.8-3.7-2.3M131.2 542.2c-1.3-.4-2.7-.7-4-1.1-.3-.1-.6 0-.9.1-.3.2-.5.4-.6.7l-5.8 24c-.1.6.2 1.2.8 1.4 1.4.4 2.9.8 4.3 1.2h.3c.2 0 .4-.1.6-.2.3-.2.5-.4.5-.8l5.4-24.1c.4-.4 0-1-.6-1.2M147.2 568.4c-2-.4-3.9-.8-5.9-1.2l3.8-20.5c.1-.6-.3-1.2-.9-1.4-1.3-.3-2.7-.6-4-.9-.3-.1-.6 0-.9.2s-.5.4-.5.8l-4.8 24.3c-.1.6.3 1.2.9 1.4 3.8.9 7.7 1.7 11.5 2.5h.2c.2 0 .5-.1.7-.2.3-.2.4-.5.5-.8l.5-2.8c-.1-.7-.5-1.2-1.1-1.4M161.6 548.7c-1.4-.2-2.7-.4-4.1-.7-.3-.1-.6 0-.9.2-.3.2-.4.5-.5.8l-3.4 24.6c-.1.6.3 1.2 1 1.3 1.5.2 2.9.5 4.4.7h.2c.3 0 .5-.1.7-.2.3-.2.4-.5.5-.8l3.1-24.6c0-.7-.4-1.2-1-1.3M179.3 565.4c-.3 3.9-.8 5.6-1.1 6.3-.4.8-1 1.1-2 1s-1.6-.5-1.9-1.4c-.4-1.3-.4-3.7-.1-7.2.4-4.7.9-6.6 1.3-7.4.3-.7.8-1 1.6-1h.3c1 .1 1.5.5 1.8 1.5.3.9.5 3.1.1 8.2m4.9-12c-1.4-1.8-3.5-2.8-6.4-3.1-3.3-.3-5.7.6-7.4 2.6-1.5 1.9-2.5 5.1-3 9.7-.5 5.2-.2 8.9 1 11.2 1.3 2.5 3.8 4 7.4 4.3.4 0 .9.1 1.3.1 2.8 0 5-.9 6.4-2.7 1.6-2 2.4-5.2 2.7-9.9.2-3.2.1-5.7-.2-7.4-.3-2.1-.9-3.6-1.8-4.8M219.7 573.7c-.2-.2-.5-.3-.9-.3-2 .1-4.1.2-6.1.3l-.2-6.1c1.7-.1 3.5-.1 5.2-.2.6 0 1.1-.6 1.1-1.2l-.1-2.8c0-.3-.2-.6-.4-.8-.2-.2-.5-.3-.9-.3-1.7.1-3.4.2-5.1.2l-.1-5.5c1.9-.1 3.9-.2 5.8-.3.6 0 1.1-.6 1.1-1.2l-.1-2.8c0-.3-.2-.6-.4-.8-.2-.2-.6-.3-.9-.3-3.6.2-7.3.3-10.9.4-.7 0-1.2.5-1.2 1.2l.3 24.8c0 .3.1.6.4.8.2.2.5.3.8.3 3.9-.1 7.9-.2 11.9-.4.6 0 1.1-.6 1.1-1.2l-.1-2.8c.1-.5-.1-.8-.3-1M237.7 549.9c-.2-.2-.6-.3-.9-.2-4.4.6-8.9 1-13.3 1.3-.6 0-1.1.6-1.1 1.2l.2 2.9c0 .3.2.6.4.8.2.2.5.3.9.3l3.6-.3 1.6 20.6c0 .3.2.6.4.8.2.2.5.3.8.3h.1c1.5-.1 2.9-.3 4.4-.4.6-.1 1.1-.6 1-1.3l-1.9-20.7c1.2-.1 2.3-.3 3.5-.4.6-.1 1.1-.7 1-1.3l-.3-2.9c0-.2-.2-.5-.4-.7M263.8 562.6c0-.6.1-1.2.1-1.7.1-1 .1-1.9.1-2.9.3.6.5 1.2.8 1.8.4.8.7 1.6 1.1 2.3-.7.2-1.4.4-2.1.5m.9-17c-.2-.5-.8-.8-1.3-.6-1 .2-2.1.5-3.1.7-.5.1-.9.5-.9 1.1-.7 8.6-1.6 17.2-2.7 25.8 0 .4.1.7.4 1 .2.2.5.3.8.3h.2c1.4-.3 2.8-.5 4.2-.8.5-.1.9-.5.9-1.1.1-1.4.2-2.8.3-4.1 1.5-.3 3-.7 4.6-1 .6 1.2 1.1 2.4 1.7 3.6.2.5.8.8 1.3.6 1.4-.3 2.9-.7 4.3-1.1.4-.1.6-.3.8-.7.1-.3.1-.7 0-1-4-7.5-7.8-15.1-11.5-22.7M291.6 538.2c-.1-.3-.3-.6-.6-.7-.3-.1-.6-.2-.9-.1-1.3.4-2.6.9-3.9 1.3-.6.2-.9.8-.8 1.4l2.4 8.9c0 .1.1.2.1.3-2.2-2.7-4.3-5.5-6.4-8.3-.3-.4-.8-.6-1.3-.4-1.2.4-2.5.7-3.7 1.1-.6.2-1 .8-.8 1.4l5.6 24.1c.1.3.3.6.5.7.2.1.4.2.6.2h.3c1.4-.4 2.9-.8 4.3-1.2.6-.2 1-.8.8-1.4l-2.6-9.8c2.3 3 4.7 5.9 7.2 8.8.3.4.8.5 1.3.4 1.3-.4 2.7-.9 4-1.3.6-.2.9-.8.8-1.4l-6.9-24zM304.1 533.6c-.1-.3-.3-.6-.6-.7-.3-.1-.6-.1-.9 0l-3.9 1.5c-.6.2-.9.9-.7 1.5l7.3 23.5c.1.3.3.6.6.7.2.1.3.1.5.1.1 0 .3 0 .4-.1 1.4-.5 2.8-1.1 4.2-1.6.6-.2.9-.9.7-1.5l-7.6-23.4zM328.3 522.4c-.3-.5-1-.8-1.6-.5-1.1.6-2.2 1.1-3.3 1.6-.5.2-.7.7-.6 1.2.5 3.4 1 6.8 1.4 10.2l.2 1.9c0 .2.1.5.1.7-.4-.6-.9-1.2-1.3-1.8-2-2.7-4.1-5.4-6.1-8.2-.3-.5-.9-.6-1.4-.4l-3.3 1.5c-.5.2-.8.8-.7 1.4 2 8 3.9 16.1 5.8 24.2.1.3.3.6.6.8.2.1.3.1.5.1s.3 0 .5-.1c1.3-.6 2.6-1.1 3.9-1.7.5-.2.8-.8.7-1.4-.8-2.9-1.7-5.9-2.5-8.8 1.9 2.5 3.7 5 5.6 7.5.3.4.9.6 1.4.4.9-.4 1.9-.9 2.8-1.3.5-.2.7-.7.7-1.2l-1.2-9.3.1.2c1.3 2.4 2.6 4.9 3.8 7.3.3.6 1 .8 1.6.5 1.3-.7 2.6-1.3 3.9-2 .3-.1.5-.4.6-.7s0-.6-.1-.9c-4.1-7-8.2-14.1-12.1-21.2M341.6 515.2c-.1-.3-.4-.5-.7-.6-.3-.1-.7-.1-.9.1-1.2.7-2.5 1.4-3.7 2.1-.5.3-.7 1-.5 1.5l10.2 22.2c.1.3.4.5.7.6.1 0 .2.1.4.1s.4-.1.6-.2c1.3-.8 2.7-1.5 4-2.3.5-.3.7-1 .5-1.5l-10.6-22zM365.6 516.3c-1.1-.5-2.8-.9-5.2-1.1-1.1-.1-2-.2-2.8-.3s-1.2-.2-1.5-.3c-.4-.2-.8-.5-1-.9-.3-.6-.3-1.1-.1-1.7.2-.7.7-1.3 1.4-1.8s1.7-.8 2.9-.9c.4 0 .7-.3.9-.6.2-.4.2-.8 0-1.1l-1.5-2.8c-.3-.5-.8-.7-1.3-.6-1.6.3-3.1 1-4.4 1.9-2 1.4-3.4 3-4.1 5-.7 2-.5 4 .5 6 .8 1.5 1.8 2.5 3 3.1.6.3 1.4.5 2.4.7s2.2.3 3.5.4c.9.1 1.5.2 2.1.3s1 .2 1.3.3c.5.2.9.6 1.2 1.1.3.6.4 1.2.2 1.8-.2.7-.7 1.3-1.6 1.8-.9.6-2.2 1-3.8 1.1-.4 0-.8.2-1 .6-.2.3-.2.8 0 1.1l1.5 2.9c.2.4.6.6 1.1.6 1.7-.1 3.5-.7 5.4-1.9 2.2-1.4 3.7-3.2 4.4-5.4.8-2.2.6-4.3-.5-6.3-.8-1.4-1.8-2.4-3-3M373.2 327c-12.7 36.5-31.1 69-54.9 96.6-29.7 34.5-67.9 61.5-113.7 80.4l-.3.1c-.2.1-.5.1-.6.1s-.3 0-.4-.1l-.2-.1c-.2-.1-.4-.2-.5-.2-45.7-18.9-84-46.1-113.6-80.7-23.8-27.7-42.3-60.4-54.9-97C12.6 263.5 15.7 211 15.7 210.4V15.5h376.1v195.1c.1.5 3.1 53.9-18.6 116.4m22.6-117V11.4H11.7v198.9c0 .5-3.3 53.7 18.6 117.2 12.8 37.1 31.5 70.2 55.6 98.3 30.2 35.2 69 62.7 115.5 81.9.1 0 .1 0 .2.1.1 0 .2.1.3.1.2.1 1.1.4 1.9.4s1.6-.3 2-.4l.4-.2c46.3-19.1 85.1-46.5 115.2-81.5 24.1-28 42.9-61 55.7-97.9 22-63.4 18.9-117.5 18.9-118l-.2-.3z"/><path class="st3" d="m196.5 325.4.7.7c-.2-.2-.4-.5-.7-.7M196.5 325.4c-.2-.2-.4-.4-.5-.4l-.3.3.3-.3c.1-.1.3.1.5.4"/><path class="st2" d="m88.7 234.1-.2.2c.1 0 .2-.1.2-.2"/><path class="st4" d="M171.2 447.6s-.3 3.9-3.5 7c0 0 6 .5 8.2 2.8 0 0 .1-5 2.5-6.2 0 0-6.3-.7-7.2-3.6M179.3 422.6s4.1-1 8 2.2h.1c-.2-.9-1.4-7.4 0-8.8 0 0-7.9-1.1-8.2-1.7.2.4 1.2 4.2.1 8.3"/><path d="M179.3 414.2c0-.1 0-.1 0 0" style="fill:#0e62aa"/><path class="st4" d="M201.9 467.8s-1.7 5.3-4.4 6.1c0 0 4.3 2.4 4.5 4.7 0 0 2-4.9 4.6-5 0 .1-4.3-.9-4.7-5.8M218.4 423.7c2.2-1.6 6.5 0 6.5 0-1.2-2.9.5-7.3.5-7.3-2.7 1.3-7.3.4-7.3.4 2.2 2.1.3 6.9.3 6.9"/><path d="M203.3 439.9c-.3-.1-.6-.1-.9-.1-2.7-.2-4.7 1.1-4.8 3.9-.1 2.7 1.8 4.4 4.4 4.4.4 0 .7 0 1.1-.1s.7-.2 1-.4c1.1-.7 1.7-1.9 1.8-3.5 0-2.2-.7-3.7-2.6-4.2" style="fill:#f1e19f"/><path class="st4" d="M231 449c-.8 2.4-6 2.3-6 2.3 3.9 1.5 3.5 5.6 3.5 5.6 2.1-1.9 4.9-1.9 4.9-1.9-2.7-2.2-2.4-6-2.4-6"/><path class="st3" d="M220.1 461.8c-1.3 1.9-3.7 5.5-8.7 5.4-3.4-.1-2.1-1.9.6-2.2s6.4-3.9 7.2-4.7c1.7-2.1 1.7.2.9 1.5m-18.7-10.6c-4.3-.3-7-3.2-7-7.5.1-4.8 3.2-7.3 7.9-7.2 4.4.1 6.5 3.2 7.1 7.3-1 4.5-3.1 7.8-8 7.4m-3.8-33.1c2-1.1 5.9-3 10.3-.5 2.9 1.7.9 2.7-1.6 1.7s-7.5.3-8.6.7c-2.5.8-1.4-1.2-.1-1.9m-6.3 50.1c-2.3-.4-6.5-1.1-8.5-5.7-1.3-3.1.9-2.7 2.2-.4 1.4 2.3 6.2 4.2 7.3 4.6 2.5.7.4 1.7-1 1.5M180 432.9c-1.8 1.9-2.4 7.1-2.4 8.3-.1 2.7-1.6.9-1.8-.5-.3-2.3-.7-6.6 3.2-9.8 2.6-2.2 2.8.1 1 2m46.8-.8c1.3 1.9 3.5 5.6 1.5 10.2-1.4 3.1-2.6 1.2-1.8-1.4.8-2.6-1-7.4-1.5-8.5-1.1-2.4 1-1.5 1.8-.3m-9.4 17.7-5.7-1.7c-.6-.2-.9-.8-.7-1.3.2-.6.8-.9 1.3-.7l7.2 2.1c.1 0 .1.1.2.1 4.5 1 8.2.9 10.9-3.5 3-5 1.9-10.2-2.4-14.5l.1.1c-2.1-5.9-7-4-11.5-4.4 0 .1-.1.3-.2.4l-4.5 6c-.2.3-.5.4-.9.4-.2 0-.5-.1-.6-.2-.5-.4-.6-1-.2-1.5l4.5-6 .1-.1c2.1-2.8 2.2-5.5-.7-8.1-4.1-3.8-14.7-4.5-20.9-1.7-5.8 2.6-4.1 7.2-3.5 11.7l3.5 3.9c.4.4.4 1.1-.1 1.5-.2.2-.5.3-.7.3-.3 0-.6-.1-.8-.4l-4.7-5.3c-4.4-1.8-8.5-2.6-11.6 3-.6 1.3-1.2 2.6-1.8 4-3.4 11.7-2.2 13.9 10 15.3l5.9-1.3c.6-.1 1.2.2 1.3.8.1.6-.2 1.2-.8 1.3l-7.3 1.6h-.2c-6 6.1-5.7 8.9-.1 14.4l3.2 2.5c8.8 5.6 11.9 4.7 15.2-6.4l.5-6.4c0-.6.6-1.1 1.2-1 .6 0 1 .6 1 1.2l-.5 6.3c2.9 10.7 6.6 12 15.4 6.5.4-.5.8-1.1 1.2-1.6.6-.3 1.2-.7 1.9-1 2.8-1.4 4-3.9 3.9-6.9-.5-4.9-4.1-6.9-8.1-9.4"/><path class="st2" d="M228.5 456.8s.4-4.1-3.5-5.6c0 0 5.2.1 6-2.3 0 0-.3 3.8 2.4 6 0 0-2.8 0-4.9 1.9m-7.1 9.2c-.6.3-1.3.7-1.9 1-.4.5-.8 1.1-1.2 1.6-8.7 5.5-12.5 4.3-15.4-6.5l.5-6.3c0-.6-.4-1.1-1-1.2-.6 0-1.1.4-1.2 1l-.5 6.4c-3.3 11.1-6.4 12-15.2 6.4l-3.2-2.5c-5.6-5.6-5.9-8.3.1-14.4h.2l7.3-1.6c.6-.1 1-.7.8-1.3-.1-.6-.7-1-1.3-.8l-5.9 1.3c-12.2-1.4-13.4-3.6-10-15.3.6-1.3 1.2-2.6 1.8-4 3.1-5.7 7.2-4.8 11.6-3l4.7 5.3c.2.2.5.4.8.4s.5-.1.7-.3c.4-.4.5-1.1.1-1.5l-3.5-3.9c-.7-4.5-2.3-9 3.5-11.7 6.2-2.8 16.7-2.1 20.9 1.7 2.9 2.6 2.7 5.3.7 8.1l-.1.1-4.5 6c-.4.5-.3 1.2.2 1.5.2.1.4.2.6.2.3 0 .7-.2.9-.4l4.5-6c.1-.1.1-.2.2-.4 4.5.3 9.4-1.5 11.5 4.4l-.1-.1c4.3 4.2 5.4 9.4 2.4 14.5-2.6 4.4-6.4 4.5-10.9 3.5-.1 0-.1-.1-.2-.1l-7.2-2.1c-.6-.2-1.2.2-1.3.7-.2.6.2 1.2.7 1.3l5.7 1.7c4 2.6 7.6 4.5 7.9 9.4.3 3-.8 5.5-3.7 6.9M202 478.7c-.1-2.3-4.5-4.7-4.5-4.7 2.7-.8 4.4-6.1 4.4-6.1.4 4.9 4.7 5.9 4.7 5.9-2.6 0-4.6 4.9-4.6 4.9m-26.1-21.3c-2.3-2.4-8.2-2.8-8.2-2.8 3.3-3.1 3.5-7 3.5-7 .9 2.9 7.2 3.6 7.2 3.6-2.4 1.2-2.5 6.2-2.5 6.2m3.4-43.2c.2.6 8.2 1.7 8.2 1.7-1.4 1.4-.2 7.9 0 8.8h-.1c-3.9-3.1-8-2.2-8-2.2 1-4 0-7.8-.1-8.3 0-.1 0-.1 0 0m46.1 2.2s-1.6 4.4-.5 7.3c0 0-4.3-1.6-6.5 0 0 0 1.9-4.8-.4-7 .1 0 4.7 1 7.4-.3m9.3 24.3c1.4-2.9 0-6.8-2-9.4-4.1-5.3-7-10.6-4-18.4-7 2.4-12 2.5-17.7-.9-5.2-3.1-11.6-2.8-17.3-.3-.5.2-1.1.4-1.7.8-.2.1-.3.1-.4.2-4.7 2.1-15.8-2.4-15.8-2.4 3.8 7.7-2.7 17.1-2.7 17.1-3.3 4-4.7 9.1-4 14.3.2 1.7.5 8.5-6.4 14.5 0 0 11 1.1 13.1 5.7 0 .1.1.2.1.3 1.7 6.2 7.2 10.3 12.6 11.2 6.8 1.1 10.3 4.7 13.7 10.6 3.4-6.1 7.1-9.9 14.1-10.6 4.1-.4 8.9-3.9 10.1-8.1 1.8-6.1 5.9-7.7 12.4-8.9-4.7-5.1-7-9.7-4.1-15.7"/><path class="st2" d="M204.1 447.6c-.3.2-.6.3-1 .4-.3.1-.7.1-1.1.1-2.7-.1-4.5-1.8-4.4-4.4.1-2.8 2.1-4.1 4.8-3.9.3 0 .6.1.9.1 1.9.5 2.7 2 2.6 4.1-.2 1.7-.7 3-1.8 3.6m-1.8-11.1c-4.6-.1-7.8 2.4-7.9 7.2-.1 4.3 2.6 7.2 7 7.5 4.9.4 7.1-2.9 8.1-7.4-.7-4.1-2.8-7.1-7.2-7.3M197.7 420c1.1-.4 6.1-1.7 8.6-.7s4.5 0 1.6-1.7c-4.3-2.5-8.2-.6-10.3.5-1.3.7-2.4 2.7.1 1.9M226.5 440.9c-.8 2.6.4 4.5 1.8 1.4 2.1-4.5-.2-8.2-1.5-10.2-.8-1.2-3-2.1-1.8.3.5 1.1 2.3 5.9 1.5 8.5M219.1 460.2c-.8.9-4.5 4.5-7.2 4.7-2.7.3-3.9 2.1-.6 2.2 5 .1 7.5-3.5 8.7-5.4.9-1.2.9-3.5-.9-1.5M192.3 466.6c-1.1-.3-5.9-2.3-7.3-4.6s-3.6-2.7-2.2.4c2 4.6 6.2 5.4 8.5 5.7 1.4.3 3.5-.7 1-1.5M179 430.9c-3.9 3.2-3.4 7.5-3.2 9.8.2 1.5 1.7 3.2 1.8.5 0-1.1.5-6.3 2.4-8.3 1.8-1.9 1.6-4.2-1-2"/><path class="st3" d="M226.3 465.4c-1.2 4.2-6 7.7-10.1 8.1-7 .7-10.7 4.6-14.1 10.6-3.4-6-6.9-9.6-13.7-10.6-5.4-.9-10.9-4.9-12.6-11.2 0-.1-.1-.2-.1-.3-2.1-4.6-13.1-5.7-13.1-5.7 7-6 6.6-12.8 6.4-14.5-.7-5.2.7-10.3 4-14.3 0 0 6.5-9.4 2.7-17.2 0 0 11.2 4.5 15.8 2.4.1-.1.3-.1.4-.2.7-.4 1.2-.7 1.7-.8 5.6-2.5 12-2.7 17.3.3 5.7 3.3 10.8 3.3 17.7.9-3.1 7.7-.1 13.1 4 18.4 2 2.5 3.3 6.5 2 9.4-2.9 6.1-.6 10.6 3.9 15.8-6.3 1.2-10.5 2.8-12.2 8.9m14.4-25.3c1.1-4.4-.4-9.3-3.1-12.7-4.1-5-4.2-10-2.8-15.7 1.3-5.1-.8-6.4-5.5-4.7-5.7 2-11 2.2-16.8-.8-5.5-2.9-12.4-2.9-17.9-.7-6.7 2.6-12.5 2.7-18.8-.1-2.2-1-4.6-.8-4.1 2.5 1.1 7.8-1.2 14.5-5.8 20.8-1.7 2.3-2.7 5.8-2.5 8.7.6 7.3-1.4 13.3-6.5 18.4-1.4 1.5-2.5 3.5.6 4.1 7.9 1.7 13.9 5.8 18.4 12.6 1.6 2.4 4.6 4.6 7.3 5.3 9 2.2 14.3 8.2 19.2 17.8 4.2-10 10-15.5 18.8-17.9 3.9-1.1 7.6-4.3 9.5-8.1 2.6-5.3 6.9-7.3 12.1-8.3 4.2-.8 5-2.9 2.1-6-3.9-4.4-5.7-9.1-4.2-15.2M367 74.3c-1.5 9.3-9.5 15-18 14-9.6-1.1-15.4-7.7-15.5-17.5v-4.5c.6-7.5 1-14.1 1.5-20.7.4-5.3 3.1-9.3 8.1-11 4.6-1.6 9.2-.7 12.6 3.1 9.3 10.4 13.5 22.7 11.3 36.6M327.1 69c-1.1 11.4-8.9 18.7-18 17.4-8.7-1.3-15.1-11.5-13.4-21.8 1.7-10.7 6.6-19.8 14.9-26.7 3.8-3.2 8.5-5.6 13.4-3.1 4.7 2.4 4.3 7.6 4.4 12.1-.4 7.3-.6 14.7-1.3 22.1m50.5-35.1c1.7-.7 3.9-1 3.1-3.3-.7-2.2-3-1.3-4.6-1.3-28.9-.1-57.7-.1-86.6 0-1.6 0-4-.9-4.6 1.3-.6 2.6 2.2 2.3 3.6 2.8 9.6 3.6 10.6 6.3 5.4 15.2-3.6 6.1-7.8 11.9-10.1 18.8-4.5 13.8 1.1 26.3 14.3 31 9.8 3.5 18.8 1.1 26.6-4.9 4.7-3.6 8-4.7 12.8.1 4.5 4.5 10.6 7.1 16.3 6.7 19.1-.2 29.7-13.3 26.1-31-1.5-7.4-6-13.5-8.5-20.4-2.9-8.4-1.7-11.6 6.2-15"/><path class="st2" d="M371.5 48.8c2.5 6.9 7 12.9 8.5 20.4 3.5 17.7-7 30.9-26.1 31-5.8.4-11.8-2.2-16.4-6.7-4.8-4.8-8-3.7-12.8-.1-7.9 6-16.9 8.4-26.6 4.9-13.1-4.7-18.8-17.2-14.3-31 2.2-6.9 6.5-12.7 10.1-18.8 5.2-8.9 4.2-11.6-5.4-15.2-1.5-.5-4.2-.3-3.6-2.8.5-2.2 3-1.3 4.6-1.3 28.9-.1 57.7-.1 86.6 0 1.6 0 3.9-.9 4.6 1.3.8 2.4-1.4 2.6-3.1 3.3-7.9 3.5-9.1 6.7-6.1 15m6.5-11.6c3.7-1.1 7.1-2.7 6.1-7.3-1-5-5.3-4.8-9.2-4.8h-84.3c-3.9 0-8.3-.3-9.1 4.8-.8 5.2 3.4 6.2 7.3 7 5.6 1.2 5.5 4.3 3.2 8.4-2.7 4.6-5.8 9.1-8.2 13.8-5 9.9-7.7 20.1-1.2 30.5 9.1 14.7 26.9 17.8 42.8 7.4 3.7-2.4 6.1-3.8 10.5-.4 12.3 9.3 28.1 9 38.9.2 9.5-7.8 11.8-21.5 5.8-35.9-2-4.9-4.7-9.6-6.7-14.6-1.4-4-.6-7.6 4.1-9.1"/><path class="st2" d="M351.3 85c-3.6.1-6.6-.8-8.9-2.6-.8-.6-1.5-1.3-2.1-2-.6-.8-1.2-1.6-1.6-2.6-1.4-2.9-2.1-6.5-2-10.9.2-3.4.5-6.9.7-10.3s.5-6.9.8-10.3c.4-4.1 2.1-7.6 6.3-8.8 4.4-1.2 8 .6 10.6 4.3 5.4 7.4 8.8 15.6 9.1 24.8.5 10.9-4.8 18.2-12.9 18.4M343 34.5c-5 1.7-7.7 5.7-8.1 11-.5 6.6-1 13.2-1.5 20.7v4.5c.1 9.8 5.9 16.4 15.5 17.5 8.5 1 16.5-4.7 18-14 2.3-13.9-2-26.2-11.3-36.6-3.3-3.8-7.9-4.7-12.6-3.1M324 67.5c-.3 5.8-2.1 11.1-7.5 14.2-3.7 2.1-7.3 1.9-10.9-.3-5.4-3.4-7.1-9-6.7-14.6.8-10.6 5.5-19.6 13.7-26.4 2.8-2.3 6.1-4.5 9.7-2.5 3.3 1.9 2.2 5.9 1.7 9 .1 6.9.3 13.8 0 20.6m0-32.8c-4.9-2.5-9.5-.1-13.3 3.1-8.3 7-13.2 16-14.9 26.7-1.7 10.3 4.7 20.4 13.4 21.8 9.1 1.4 17-6 18-17.4.7-7.3.9-14.7 1.2-22.1-.1-4.5.3-9.7-4.4-12.1"/><path class="st3" d="M53.7 80.1c4.6-3.1 8.9-6.8 13.3-10.2 6.2-4.8 12.3-3.2 18 4.6 4.1 5.6 2.7 10.9-3.9 15.3-3 2-6.4 3-9.9 3.5-6.1-1-12.2-1.5-17.4-5.4-3.4-2.6-4.6-4.8-.1-7.8M56.1 45c-.1-.8-.1-1.6 0-2.3 0-.3.1-.7.2-1 1.2-4.9 6.5-8.7 12.6-8.4 1.8.3 3.5.3 5.3.8 6.3 1.6 14.1 8.7 13.3 12-.4 1.6-13.9 11.2-15.8 11.2-6.3 0-14.9-6.7-15.6-12.3m1.3 52c9.2 3.1 18.5 5.8 28.4 2.8 7.4-2.3 12.7-6.6 14.1-14.5 1.5-8.3-2.1-15.6-9.7-20-3-1.8-6.3-3.2-10.5-5.2 10.2-7.7 19.5-14.8 28.8-21.9 2.1-1.6 5.6-3.2 3-6.6-2.2-2.8-4.5-.5-6.5 1.1-5.3 4-10.9 3.7-16.5.7-3.8-2-7.5-4.4-11.4-6.2-10.2-4.6-20.1-3.1-28.8 3.5-11.3 8.5-9.8 23.1 2.9 29 3.8 1.8 7.8 2.9 12.4 4.6-1.8 1.5-3 2.7-4.4 3.8L27.7 92.4c-1.6 1.3-3.5 2.8-2 5 1.1 1.6 3.3 1.7 4.9.5 8.8-7 17.7-4 26.8-.9"/><path class="st2" d="M25.7 97.4c-1.6-2.2.4-3.8 2-5l31.5-24.3c1.4-1 2.6-2.2 4.4-3.8-4.6-1.7-8.6-2.8-12.4-4.6-12.7-6-14.3-20.5-2.9-29 8.8-6.6 18.6-8.1 28.8-3.5 3.9 1.8 7.6 4.1 11.4 6.2 5.6 3 11.2 3.3 16.5-.7 2.1-1.5 4.4-3.9 6.5-1.1 2.6 3.3-1 5-3 6.6-9.3 7.2-18.6 14.2-28.8 21.9 4.2 2.1 7.5 3.5 10.5 5.2 7.6 4.4 11.1 11.7 9.7 20-1.4 7.9-6.7 12.2-14.1 14.5-9.9 3-19.2.4-28.4-2.8-9.1-3.1-18-6.1-26.8.9-1.5 1.2-3.8 1.1-4.9-.5M53 99c8.6 3.3 17.5 6.1 26.9 5.2 9.5-.9 18.1-4.2 21.9-14.1 3.3-8.4 1.6-16-4.1-22.9-2.8-3.4-6.8-5.3-11.2-8.1 8.9-6.8 17.3-13.1 25.5-19.6 3.3-2.6 5.3-5.9 2.3-9.9-3-3.8-6.7-3.4-10-.4-5.1 4.5-10.2 3.6-15.5.5-3.3-1.9-6.6-3.9-10.1-5.4-11.2-4.8-22-3.7-31.9 3.5-13.6 9.9-12.1 27.5 2.8 34.9 2 1 4.4 1.1 6.3 3.9-10 7.8-20.1 15.5-30.1 23.3-3.4 2.6-5.4 5.9-2.5 9.8 2.6 3.6 6.3 3.1 9.5.8 6.4-4.8 13.1-4.2 20.2-1.5"/><path class="st2" d="M61.8 78.1c1.4-1.4 3.2-2.5 4.8-3.7 3.4-2.7 6.7-5.9 11.3-2.3 3.3 2.5 6.8 5.3 5.5 10-1.6 5.3-6.3 6.9-11.3 7.3-.8.1-1.5 0-3.5 0-.6 0-2.4 0-4.1-.4-3.2-.8-7.4-1.1-8.3-4.4-.8-3.3 3.6-4.4 5.6-6.5M53.9 88c5.1 3.9 11.3 4.3 17.4 5.4 3.5-.5 6.8-1.5 9.9-3.5 6.7-4.4 8-9.7 3.9-15.3-5.7-7.8-11.9-9.4-18-4.6-4.4 3.4-8.7 7.1-13.3 10.2-4.6 2.9-3.4 5.1.1 7.8M70.5 53.5c-5-1.5-10.9-2.7-10.6-9.8.3-6 4.6-7.2 10.4-6.9C75 38 80.9 38.7 82.9 45c.7 1.9-9.9 9.2-12.4 8.5m17-7.5c.8-3.4-7-10.5-13.3-12-1.7-.4-3.5-.5-5.3-.8-6.1-.3-11.4 3.5-12.6 8.4-.1.3-.1.7-.2 1-.1.8-.1 1.5 0 2.3.7 5.7 9.2 12.4 15.6 12.3 1.9 0 15.5-9.6 15.8-11.2"/><path class="st2" d="M403.2 209.8c0 .5 3.3 55.4-19 120.1-13.1 38-32.2 71.9-57 100.7-30.9 36.1-70.7 64.3-118.4 84 0 0-2.4 1.1-5.1 1.1s-5.1-1.1-5.2-1.1C151 495 111.2 466.8 80.3 430.8c-24.8-28.8-43.9-62.7-57-100.7-22.3-64.7-19-119.7-19-120.4V4.1h398.9v205.7zm4-209.8H.2v209.5c0 .6-3.3 56.2 19.2 121.7 13.2 38.5 32.7 72.8 57.7 102 31.4 36.5 71.7 65.1 119.7 85 .1.1 3.2 1.5 6.8 1.5 3.7 0 6.7-1.4 6.7-1.4 48.2-19.9 88.5-48.5 119.8-85 25.1-29.2 44.5-63.6 57.7-102 22.5-65.5 19.2-121.1 19.2-121.5V0h.2z"/><path class="st3" d="M147.8 382.6c-.8 0-4.8.1-9 2.7-5.1 3.1-11.2 3.6-16.6 3.6-1.7 0-3.4-.3-5.3-.6l-1.7-.3.2 1c.4 2.4 1.3 6 3.1 8.8 2.3 3.7 4.9 6 7.3 8.1.8.7 1.7 1.5 2.5 2.2.6.6.6 1.5.1 2.1s-1.5.6-2.1.1l-2.4-2.1c-2.5-2.2-5.4-4.7-7.9-8.8-2.4-3.9-3.3-8.7-3.7-11.2l-.1-.6H111c-.9 0-1.6 0-2.4.1-5.4.7-12 8.9-12.1 9-.5.6-1.5.7-2.1.2s-.7-1.5-.2-2.1c.7-.9 7.5-9.3 14-10.1 3.9-.5 6.7.1 9.3.6 1.6.3 3 .6 4.6.6 5-.1 10.7-.5 15.2-3.2 5.5-3.3 10.6-3.1 10.6-3.1.8 0 1.4.7 1.4 1.6 0 .8-.7 1.4-1.5 1.4M86.6 270.1c-9.1-4.8-11-11.7-11-13.9 0-.8.7-1.5 1.5-1.5s1.5.7 1.5 1.6c0 .1.6 6.5 9.5 11.2 4.8 2.6 8 3.9 10.9 4.6l.3.1.3-.2c1.4-1.1 2.1-2.9 3.3-6.1.9-2.4 2-5.4 3.9-8.8 3-5.4 12.4-11.8 12.8-12 .3-.2.7-.3 1.1-.2.4.1.7.3.9.6.5.7.3 1.6-.4 2.1-2.5 1.7-9.6 7-11.8 11-1.8 3.2-2.8 6-3.7 8.4-.7 1.9-1.3 3.4-2 4.7l-.6 1h1.2c1 0 2 0 3.2-.1 5.2-.3 10.5.1 10.6.1.8.1 1.4.8 1.3 1.6-.1.8-.7 1.4-1.6 1.4 0 0-2.8-.2-6.1-.2-1.3 0-2.7 0-4 .1-3.1.2-5.6.1-8-.3h-.1c-.1 0-.3 0-.6-.1-3.5-.8-7.1-2.3-12.4-5.1m50.9 107.6c-15.1 6.2-17.8 5.1-19.2 3.5-.7-.8-1.3-2.2-.1-4.4.1-.2 9.6-15.6 22.1-20.7-1.4-1.9-2.1-3.7-2.2-4-7.7-16.2 2.4-24.2 4.3-25.5 3.1-3.2 6.4-7.2 7.4-8.9-1.7-.9-6.7-1.9-8.3-1.2-.5.2-1.4 1.1-2.3 2-2.7 2.6-6.7 6.6-14.2 9.1-10.5 3.4-16.3-.6-17.4-1.4-21.3-13.8-13.5-35.9-10.6-42.3l.1-.2c.7-2.4 3-4.7 6.5-3.9 2.2.5 8.2.9 10.6 1 9-1.2 12.6-5.6 13.8-7.6-5.2-6.1-14.9-4.6-15-4.6-1.1.2-2.2-.6-2.5-1.7-.2-1.1.4-2.3 1.5-2.6.1 0 8.1-2.5 12.8-10.3 3.2-5.3 1.9-11.9.8-15.4-2.7 1.6-7 3.4-11 3.8-3.3.3-9.5 1.8-14 7.6-2.8 3.6-2.1 8.9-1.8 11.4.1 1 .2 1.6.1 2.1-.2 1.1-1 2.1-2 2.4-1.2.4-2.5.1-3.5-.7-.7-.6-3.2-3.7-4.6-5.4-5.9-8.2-13.1-11.1-16.7-12.1-.4 1.4-1.1 3.5-2.4 6.4-1.7 3.7-1.7 4.8.7 10.7 2 4.8 11.6 8.8 16.4 10.2 1.3.4 2.3 1.3 2.8 2.5 1 2.5-.5 5.8-1 6.8-4.7 15.9 4 32 4.1 32.2.4.7.4 1.7-.1 2.4s-1.3 1-2.1.9c-3.7-.7-10.3-3.9-11.1-4.3-20.9-9.7-26.7-31-28.1-38.7-4.6 2-11.9 6.1-13.6 10.6-2 5.5 1.7 10.7 4.4 14.5.4.6.9 1.2 1.2 1.8 3 4.4 13.9 17 27.2 25.7 3.8 2.5 6.5 4.2 8.3 5.3 3.7 2.4 4.4 2.8 4.7 4.1.2 1.1-.3 1.9-.5 2.2 0 .1-.1.1-.1.3-.3.8-.9 1.6-1.5 2.5-1.3 2-3.1 4.7-2.9 7.5.3 3.7 2.4 7.4 5.6 10.2 1.4-4.8 4.8-13.3 11.8-15.9 9.7-3.6 19.6-2.7 25.3 2.4 6.4 5.8 2.8 17.5-.6 22.4l-.7 1.1c-3 4.5-5.6 8.3-9.6 8.6-4.1.3-15.3 2.2-18.4 7.6-2.8 4.8-4.1 13.6-4.6 17.7 4.1 0 13.3-.9 21.1-9.7.6-.7 1.6-.9 2.4-.6.8.4 1.4 1.2 1.3 2.1 0 .7-.4 16.3 20.7 20.2 1.7-1.7 5.6-6.2 2.9-9.7-4.4-5.8-14.4-11.9-14.5-12-.9-.5-1.3-1.6-.9-2.6.3-1 1.3-1.6 2.4-1.4 5.2.8 19.9 1.6 25.7-4.3 4.9-5 9.2-7.8 11.9-9.2-3.1-2.5-9.8-5.8-22.8-.5"/><path class="st0" d="M135.9 373.6c5.1-2.1 9.4-3 13.1-3.1-3.8-3.9-5.1-8.4-5.5-10.8-10 3.1-18.6 15-20.8 18.3 1.7-.3 5.5-1.2 13.2-4.4"/><path class="st3" d="M274.8 380.8c.5-.3 1-.6 1.5-.8 3.7-2 11.6-2.4 18.7-2.6l1.6-.1c5.3-.2 12.7.6 12.8.6.8.1 1.4.8 1.3 1.7 0 .4-.2.8-.5 1s-.7.4-1.1.3c-.3 0-7.5-.7-12.4-.5l-1.6.1c-4.5.1-14 .4-17.4 2.3-.4.2-.8.4-1.3.8-1 .6-2.5 1.5-4.1 2.1l-.6.3.3.6c.9 2.1 1.1 4.7.6 7.7-.5 2.9-.9 4.5-1.2 5.8-.3 1.3-.5 1.9-.4 2.9 0 1.1.3 2 .6 3.1.5 1.7 1 3.6.6 6.2-.1.8-.8 1.4-1.7 1.2-.8-.1-1.4-.9-1.2-1.7.3-1.9-.1-3.4-.5-4.9-.3-1.1-.7-2.4-.7-3.9 0-1.4.2-2.4.5-3.8.3-1.1.7-2.7 1.1-5.5.6-3.7-.2-5.8-.7-6.7l-.2-.4h-.4c-2.1.2-4-.1-6-1-3.9-1.6-12.8.3-15.9 1.2-.7.2-1.6-.3-1.8-1-.2-.8.2-1.6 1-1.9 1.2-.4 12.3-3.4 17.9-1.1 4.4 2.1 8.3-.3 11.2-2m34.3-102.2c-.7-.3-1.5-.6-2.3-.9-7.3-2.7-13.1-12.2-13.3-12.6-.4-.7-.2-1.6.5-2.1.3-.2.7-.3 1.1-.2.4.1.7.3.9.7.1.1 5.5 8.9 11.8 11.3.7.2 1.3.5 1.9.7l.4.1c2.8 1.1 5.5 2.1 8.4 2.7l.8.1v-.8c.1-1.6 0-3.6-.3-5.9-.5-4.4 1.6-7.3 3.3-9.6 1.2-1.7 2.3-3.2 2.4-4.9.2-2.9.2-4 .2-4.6 0-.1-.1-.3-.1-.4 0-.8.7-1.5 1.5-1.5.4 0 .8.2 1.1.5.4.5.7.7.2 6.2-.2 2.6-1.7 4.7-3 6.5-1.6 2.2-3.1 4.3-2.7 7.4.3 2.6.4 4.8.3 6.6v.7h.7c1.4 0 2.7-.1 4.1-.3 4.6-.7 9-2.2 12.5-3.5 3-1.1 5-1.8 6.4-1.7.8.1 1.4.8 1.3 1.6-.1.8-.8 1.4-1.5 1.4-.6-.1-1.8.3-4.3 1.2l-1 .3c-3.4 1.2-8.1 2.8-13 3.6-2.5.4-4.8.5-6.9.3h-.1c-4.1-.1-7.6-1.5-11.3-2.9m30 37.1c-13.9-.4-22.1-4.4-26.4-13-2.2-4.4-1.4-7.8-.3-9.9 2.1-3.9 6.7-6 10.1-6.4.4 0 1-.1 1.7-.1 6.1-.4 24.1-1.6 36.5-15.5-4.6-1.6-15.4-3.8-30 2-.1 0-.2.1-.3.1-1.4.4-3.2.6-4.2-.7-.6-.8-.6-1.8-.2-2.7.4-.6.9-1 1.8-1.5 4.1-2.5 8.7-6.2 7.2-12.8-1.5-7-6.3-10-8.6-11-2.1 2.7-7.2 8.9-12.6 13.5-2 1.7-2.5 4-1.6 6.9 2.1 3.1 2.9 5.3 3 5.6.3 1-.1 2.1-1 2.6s-2.1.3-2.7-.5c-.1-.1-2.1-2.5-3.2-5.7-3-4-8.7-9.5-19-12.6.1 3.2.1 8.4-1 12.9-.6 2.4.3 4.5 1.2 5.8 2.1 3.2 6.3 5.7 11.2 6.6 6.9 1.2 8.8 2 9.5 3.9.6 1.6-.4 3-1 3.8l-.5.6c-3 3.8-5.9 9-2 14.7 2.8 4.2 5.9 6.4 8.1 8.1 2.2 1.6 4.5 3.3 3.3 6-1.2 2.8-5 4.2-11.8 4.4-1.5 0-3.8-.2-6.7-.4-6.2-.5-14.7-1.2-19.9-.2-5.3 1-8.7 2.5-10.2 3.3-1 10-6.8 20.5-18.7 23.8-13 3.6-26.6.1-41.7-10.7-5.9-4.2-10-8.6-12.7-12.1 0 0-1.2-1.7-2.5-3.9-1.6 9.9 9 22.1 9.1 22.2.6.7.7 1.7.3 2.5-.4.8-1.4 1.3-2.3 1.1-.4-.1-8.5-1.2-13.9 8.3 2.3 1.3 5.7 3.8 7.5 8.5 1.5 3.8 1.3 6 1.1 7.2 2.3 1.1 10.1 2.3 13.5-.8.8-.7 1.7-1.6 2.6-2.6 4.4-4.5 10.9-11.2 22.3-14.7 12-3.7 27.6-7.6 33.5-4.9 6.8 3.2 4.9 10.2 3.8 14.4-.7 2.5-.7 5.3-.7 7.5 0 2.5 0 4.3-.8 5.6-2 3.3-5.5 3.4-10.4 2.4-.6-.1-1.2-.3-1.9-.4-4.7-1-8.4-1.9-15.7 3.8-4.5 3.5-8.3 5.1-11.1 5.9 2.9 2.3 7.5 4.9 13.2 4.9 5.3-.1 9-.8 11.6-1.4 3.1-.6 5.4-1.1 7.1.8 2.2 2.5 2.2 5 .1 7.7-.5.6-2.8 3.7-2.3 8.2.5 4.1 3.1 8.3 8 12.3 2.6-1.2 9-4.5 11.2-9.6 1-2.4 1-4.9-.2-7.6-3.3-7.7-4-11.5-2.8-13.9 1-2 2.9-2.5 4.5-2.9.3-.1.6-.1.8-.2 2.1-.6 4.7 0 7.9.9 4 1 9 2.3 14.4 1.3 8.6-1.6 14.5-5.4 15.8-7-1.7-2.5-11.3-9.4-24.3-7.5-8.3 1.2-12.5 2.5-14.8 3.2-2.4.7-4.1 1.2-5.6-.5-2.4-2.5-3.1-13.8 1.6-21.5 4.4-7.2 13.8-14.9 26.7-14.9 2.7 0 5.7.2 8.8.4 9.6.7 20.5 1.4 24.7-4.1 3.2-4.2 3.7-7.3 4.2-9.6.3-1.9.8-4.6 3.9-4.9.3 0 .7 0 1.3-.1 11-.4 17.7-2.6 19.9-6.8 1.4-2.7 1-6.5-1.4-11.2-4.4 4.2-15.7 13.4-26 13.1"/><path class="st0" d="M374.1 46.3c2 5 4.6 9.6 6.7 14.6 6 14.3 3.6 28.1-5.8 35.9-10.8 8.8-26.6 9.2-38.9-.2-4.4-3.4-6.9-1.9-10.5.4-16 10.4-33.7 7.3-42.8-7.4-6.5-10.4-3.8-20.6 1.2-30.5 2.4-4.8 5.5-9.2 8.2-13.8 2.4-4.1 2.5-7.2-3.2-8.4-3.8-.8-8.1-1.8-7.3-7 .8-5.1 5.2-4.8 9.1-4.8h84.3c3.9 0 8.2-.2 9.2 4.8 1 4.6-2.4 6.1-6.1 7.3-4.9 1.5-5.7 5.1-4.1 9.1m-3.6 269.5c-4.5 8.5-18.9 8.9-23.6 9.1h-.8c-.1.3-.2.8-.3 1.3-.4 2.4-1.2 6.5-5 11.5-5.6 7.3-17.7 6.5-28.4 5.8-3.1-.2-5.9-.4-8.5-.4-11.1 0-19.2 6.6-23 12.8-3.6 5.7-3 13.5-2.3 15.8.4-.1.9-.2 1.4-.4 2.4-.7 6.9-2 15.4-3.3 13-1.9 23 3.8 26.9 7.5 1.8 1.7 2.6 3.2 2.5 4.6-.4 4.5-10.6 9.4-19.5 11.1-6.3 1.2-12.1-.3-16.3-1.4-2.4-.6-4.6-1.2-5.6-.9-.3.1-.7.2-1 .3-.6.1-1.5.4-1.6.6-.1.2-.7 1.7 2.9 10.3 1.6 3.8 1.7 7.5.2 11.1-3.5 8.2-14.3 12.3-14.8 12.5-.2.1-.5.1-.7.1-.5 0-.9-.2-1.3-.5-6.4-5-10-10.4-10.6-16.1-.7-6.1 2.3-10.3 3.3-11.5.8-.9.8-1.1.2-1.8-.5 0-1.9.2-3.1.5-2.7.5-6.7 1.4-12.4 1.4-11.9.1-19.6-9.2-19.9-9.6-.6-.7-.6-1.7-.2-2.5.5-.8 1.4-1.2 2.3-1.1 0 0 5 .6 13-5.6 8.9-6.8 14.1-5.7 19.2-4.6.6.1 1.2.3 1.8.4 5.1 1 5.5.2 5.9-.4.2-.4.2-2.1.2-3.4 0-2.5 0-5.6.8-8.6 1.6-6 1.3-8-1.4-9.2-2.7-1.3-12.2-.6-30.4 5.1-10.3 3.2-16.2 9.2-20.5 13.6-1 1-1.9 2-2.8 2.8-5.2 4.8-15.6 3-18.7 1.3-2.3-1.3-2.2-2.9-2-4.2.1-.9.3-2.2-.8-5.1-1.3-3.4-3.8-5.3-5.5-6.2-2.9 6.9-3.3 14.9-3.4 15.1 0 .7-.4 1.3-1 1.7-.4.2-.8.4-1.2.4-.2 0-.5 0-.7-.1-10.8-4-13.6-12.4-14.3-17.8-4.1 4.6-5.5 11.6-5.8 14.3 4.6 2.1 6.5 5.2 6.7 5.5.3.6.4 1.3.2 1.9-.2.6-.7 1.1-1.3 1.3-.1 0-5.9 2.1-13.1 9.5-5.1 5.2-14.3 6.1-21.1 6.1 3.1 2.4 6.6 5.4 8.9 8.4 4.8 6.2-.7 13.5-4.2 16.5-.4.3-.9.5-1.4.5h-.3c-18.1-2.9-23.3-13.8-24.8-20.1-11.1 9.7-23.3 7.9-23.9 7.8-1.1-.2-1.9-1.2-1.8-2.4.1-.6 1.3-14.6 5.4-21.8 4.9-8.4 20.2-9.6 21.9-9.8 1.9-.1 4-3.3 6.3-6.7l.7-1.1c2.6-3.8 5.3-12.9 1.2-16.6-4.5-4-12.7-4.7-20.9-1.6-7.4 2.8-9.8 15.8-9.8 15.9-.1.7-.6 1.3-1.3 1.6-.7.3-1.4.2-2-.1-5.7-3.5-9.5-9.4-10.1-15.4-.4-4.3 2-8 3.6-10.4.4-.5.7-1.1.9-1.5-.6-.4-1.3-.9-2.2-1.4-1.8-1.2-4.5-2.8-8.3-5.4-14-9.2-25.2-22.1-28.4-26.9-.3-.5-.7-1.1-1.2-1.6-3.1-4.3-7.8-10.9-5-18.7 3.1-8.4 17.1-13.6 18.7-14.2.6-.2 1.3-.1 1.9.2.6.4.9 1 1 1.6 0 .3 3 27.3 26 38 1.1.5 3.3 1.6 5.6 2.5-2.6-6.5-6-18.7-2.3-31.2 0-.2.1-.3.2-.4.6-1.1 1.1-2.8.9-3.2-2.6-.7-15.9-5.1-19.1-12.7-2.7-6.4-3.1-9-.7-14.3 2.4-5.3 2.3-6.8 2.3-6.8-.2-.7 0-1.4.5-2s1.2-.8 1.9-.7c.5.1 12.5 1.5 21.8 14.3.6.8 1.4 1.7 2 2.5-.3-3.4-.1-8.3 2.9-12.3 5.5-7.1 13-8.9 17-9.3 4.8-.5 10.2-3.7 11-4.4.5-.5 1.2-.7 1.9-.5.7.1 1.3.6 1.6 1.2.2.5 5.6 12.3-.1 22-2.2 3.7-5 6.4-7.6 8.2 3.9.8 8.3 2.8 11.3 7.2.4.6.5 1.3.3 2-.1.4-3.6 9.8-18.1 11.6h-.4c-.3 0-8.4-.5-11.5-1.2-.4-.1-1.1-.2-1.4 1 0 .1-.1.3-.3.6-3.2 7.2-8.9 25.3 9.1 36.8.1.1.2.1.3.2.2.1 4.4 3.6 13.4.7 6.5-2.1 10-5.5 12.5-8 1.4-1.4 2.5-2.4 3.7-3 3.5-1.4 12.4.4 14.1 3.5.3.6.8 1.4-.1 3.3 8.4-3.6 17.7-5.1 23.1-5.7-6.9-8-24.4-29.6-37.7-57.7-22.3-47.2-22.9-91.5-1.9-128.2-1.6-5.3-8.9-30.3-4.1-47.3 4.2-14.7 6.3-18.4 7.5-20.5.2-.4.4-.7.6-1.1.3-.7.3-1.4 0-1.9-.2-.3-.4-.6-.7-.7-4.5-1.5-16.7-8.9-14.1-22.4 1.1-5.9 4.6-7.9 7.4-8.5 6.7-1.6 15.5 3.4 17.8 6.6 2.2 3 4.5 4 5.6 3.4.2-.1 1-.7 1.6-1.1 5.5-4.1 20.1-14.8 37.9-14 21.2 1 31.8 6 38.7 10.3 6.6 4.1 7 3.8 8 3.1 8.9-5.8 15.6-4.4 19.7-2.2 3.9 2.1 6.1 4.7 6.3 7.8.3 3.4-1.8 6.9-6 10.2-4.7 3.6-5.9 8.3-3.6 14.6 2.4 6.7 9.3 30.5-.2 57.6 3.2 2.9 11.2 11.4 11.7 24.9.2 5.3-.2 9.2-.6 12.4-.7 6.1-1 8.9 4.1 15.2 8.6 10.6 6.2 18.1 4.8 22.5l-.3 1.1c-.3 1.1-.8 2.2-1.2 3.2-1.3 3.4-2.5 6.3-.8 9.7.5.9 1 1.9 1.5 2.8 2.6 4.6 5.8 10.4 3.3 19.2-1.2 4.1-2.6 6.8-3.8 9-1.6 2.9-2.4 4.4-1.6 7.6.2.7.5 1.7.8 2.8 2.7 8.7 8.9 29.1-11.5 45.8-.3.3-.7.5-1 .8 2.7 5.9 3.8 10.9 4.5 19.9v.4c2.1-.9 5.2-1.9 9.3-2.7 5.8-1.1 14.6-.4 21 .1 2.7.2 5 .4 6.3.4 4.8-.1 6.7-.8 7.4-1.3-.4-.3-1-.7-1.4-1.1-2.3-1.7-5.8-4.3-9.1-9.1-4.1-6.1-3.4-12.8 2.1-20v-.1c-.9-.3-2.6-.7-5.4-1.2-6.2-1.1-11.3-4.2-14.1-8.5-1.9-2.9-2.5-6.1-1.8-9.2 1.4-6.3.7-14.5.7-14.6-.1-.7.2-1.4.7-1.9s1.2-.7 1.9-.5c9.6 2.2 16.1 6.4 20.4 10.5.5-1.9 1.6-3.7 3.3-5.1 6.5-5.6 12.9-14 13-14.1.5-.7 1.4-1 2.3-.8.4.1 10.5 2.9 13.1 14.8 1.1 5.2-.4 9.1-2.6 11.9 17.4-4.4 28.1 1.5 28.6 1.8.6.3.9.9 1.1 1.5.1.6 0 1.3-.4 1.8-13.5 17.5-34.6 18.9-41.5 19.4-.6 0-1.1.1-1.5.1-2.3.2-5.5 1.8-6.7 4.1-.9 1.6-.8 3.5.4 5.7 3.5 7 10.3 10.2 22.7 10.6 11.2.2 25-13.7 25.1-13.8.5-.5 1.1-.7 1.8-.6.7.1 1.3.5 1.6 1 3.8 7.7 4.8 13.7 2.3 18.3M242.8 461.3c-5.2 1-9.5 3-12.1 8.3-1.8 3.8-5.6 7-9.5 8.1-8.8 2.4-14.6 7.8-18.8 17.9-4.9-9.6-10.3-15.6-19.2-17.8-2.7-.7-5.8-2.9-7.3-5.3-4.5-6.8-10.5-10.9-18.4-12.6-3.1-.7-2-2.7-.6-4.1 5.1-5.2 7-11.2 6.5-18.4-.2-2.8.8-6.3 2.5-8.7 4.6-6.3 6.9-13 5.8-20.8-.5-3.3 1.9-3.4 4.1-2.5 6.3 2.7 12.2 2.7 18.8.1 5.5-2.2 12.4-2.2 17.9.7 5.8 3.1 11.1 2.8 16.8.8 4.7-1.7 6.8-.3 5.5 4.7-1.4 5.7-1.3 10.7 2.8 15.7 2.7 3.4 4.3 8.2 3.1 12.7-1.5 6.1.3 10.8 4.3 15.2 2.8 3.1 2 5.1-2.2 6M88.7 234.1l-.2.2.2-.2zM23.2 99.6c-2.8-4-.9-7.2 2.5-9.8 10-7.8 20.1-15.5 30.1-23.3-1.8-2.8-4.3-2.9-6.3-3.9-14.9-7.4-16.4-25-2.8-34.9 9.9-7.2 20.7-8.3 31.9-3.5 3.5 1.5 6.8 3.5 10.1 5.4 5.3 3.1 10.4 4 15.5-.5 3.4-2.9 7.1-3.3 10 .4 3.1 3.9 1 7.3-2.3 9.9-8.2 6.5-16.6 12.8-25.5 19.6 4.4 2.8 8.4 4.7 11.2 8.1 5.7 6.9 7.4 14.5 4.1 22.9-3.9 9.9-12.4 13.2-21.9 14.1-9.3.9-18.2-1.9-26.9-5.2-7.1-2.7-13.8-3.3-20.4 1.4-3.1 2.5-6.7 3-9.3-.7m368.6 110.9V15.4H15.7v195.1c0 .5-3.2 53.1 18.4 115.7 12.6 36.6 31.1 69.3 54.9 97 29.7 34.6 67.9 61.7 113.6 80.7.2 0 .4.1.5.2l.2.1c.2.1.4.1.4.1.1 0 .4-.1.6-.1l.3-.1c45.7-18.9 84-45.9 113.7-80.4 23.8-27.6 42.3-60.1 54.9-96.6 21.7-62.6 18.7-116 18.6-116.6"/><path class="st3" d="M197.3 41.8c2-4.1 5.6-9.8 11.7-12.3 2.5-1.1 5-1.9 7.3-2.4-5.2-1.3-11.6-2.2-19.6-2.6-5.6-.3-10.8.8-15.5 2.4 1.9.5 3.8 1.4 5.7 2.9 5.2 4 8.5 8.6 10.4 12M173.1 161.2c1.2-.3 2.3.5 2.6 1.7 0 .1 1.5 6.8 5.6 11 1.2-2.8 3.3-8.4 3.5-10.4.1-1.2 1.2-2.1 2.4-2 1.2.1 2.1 1.2 2 2.4-.3 3.4-3.6 11.5-4.5 13.2-.8 1.6-2 2-2.7 2h-.3c-1 0-1.9-.5-2.4-1.1-5.8-5-7.7-13.8-7.8-14.1-.3-1.2.5-2.4 1.6-2.7m23.4 55.6c.7-2.9 1.7-8.9 1.5-10.9-.1-1.2.8-2.3 2-2.4s2.3.8 2.4 2c.3 3.4-1.5 12-2 13.8s-1.6 2.3-2.2 2.5c-.3.1-.6.1-.8.1-.8 0-1.5-.3-2-.7-6.6-3.9-10.1-12-10.3-12.4-.5-1.1 0-2.4 1.1-2.9s2.4 0 2.9 1.1c-.1.2 2.6 6.5 7.4 9.8m5.2-54.3c1.1-.5 2.4 0 2.9 1.2 0 .1 2.8 6.4 7.5 9.7.7-2.9 1.7-8.9 1.5-10.9-.1-1.2.8-2.3 2-2.4s2.3.8 2.4 2c.3 3.4-1.5 12-2 13.8s-1.6 2.3-2.2 2.5c-.3.1-.6.1-.8.1-.8 0-1.5-.3-2-.7-6.6-3.9-10.1-12-10.3-12.4-.6-1.1-.1-2.4 1-2.9m20.3 50.8c.7-2.9 1.7-8.9 1.5-10.9-.1-1.2.8-2.3 2-2.4s2.3.8 2.4 2c.3 3.4-1.5 12-2 13.8s-1.6 2.3-2.2 2.5c-.3.1-.6.1-.8.1-.8 0-1.5-.3-2-.7-6.6-3.9-10.1-12-10.3-12.4-.5-1.1 0-2.4 1.1-2.9s2.4 0 2.9 1.2c-.1 0 2.6 6.3 7.4 9.7m10 42c.5-3 1.3-8.9 1-11-.2-1.2.6-2.3 1.8-2.5 1.2-.2 2.3.7 2.5 1.9.5 3.4-.8 12.1-1.3 13.9-.4 1.8-1.5 2.4-2.1 2.6-.3.1-.7.2-1 .2-.7 0-1.4-.3-1.9-.6-6.8-3.5-10.7-11.5-10.9-11.8-.5-1.1-.1-2.4 1-3 1.1-.5 2.4-.1 2.9 1 0 0 3.1 6.2 8 9.3m3.5-97.8c1.1-.5 2.4 0 2.9 1.2 0 .1 2.8 6.4 7.5 9.7.7-2.9 1.7-8.9 1.5-10.9-.1-1.2.8-2.3 2-2.4s2.3.8 2.4 2c.3 3.4-1.5 12-2 13.8s-1.6 2.3-2.2 2.5c-.3.1-.6.1-.8.1-.8 0-1.5-.3-2-.7-6.6-3.9-10.1-12-10.3-12.4-.6-1.1-.1-2.4 1-2.9m18.3 35.6c.3 3.4-1.5 12-2 13.8s-1.6 2.3-2.2 2.5c-.3.1-.6.1-.8.1-.8 0-1.5-.3-2-.7-6.6-3.9-10.1-12-10.3-12.4-.5-1.1 0-2.4 1.1-2.9s2.4 0 2.9 1.1c0 .1 2.8 6.4 7.5 9.7.7-2.9 1.7-8.9 1.5-10.9-.1-1.2.8-2.3 2-2.4 1.1 0 2.2.9 2.3 2.1m3.3 45.7c.5 3.4-.8 12.1-1.3 13.9-.4 1.8-1.5 2.4-2.1 2.6-.3.1-.7.2-1 .2-.7 0-1.4-.3-1.9-.6-6.8-3.5-10.7-11.5-10.9-11.8-.5-1.1-.1-2.4 1-3 1.1-.5 2.4-.1 2.9 1 0 .1 3.1 6.2 8 9.3.5-3 1.3-8.9 1-11-.2-1.2.6-2.3 1.8-2.5 1.2-.1 2.3.7 2.5 1.9m-47.5 23.6c-.4 1.8-1.5 2.4-2.1 2.6-.3.1-.7.2-1 .2-.7 0-1.4-.3-1.9-.6-6.8-3.5-10.7-11.5-10.9-11.8-.5-1.1-.1-2.4 1-3 1.1-.5 2.4-.1 2.9 1 0 .1 3.1 6.2 8 9.3.5-3 1.3-8.9 1-11-.2-1.2.6-2.3 1.8-2.5 1.2-.2 2.3.7 2.5 1.9.5 3.4-.8 12-1.3 13.9m-18 52.1c.4-.7 1.1-1 1.8-1.1h.1c1-.2 2 .5 2.4 1.5 0 .1 3.4 9.3 15.8 18.1 14 10 26.5 13.2 38.1 10 13.5-3.7 16.1-17.2 15.6-24.5-.6-8.2-1.5-12.7-3.8-17.9-12.1 6.4-26.7 2.5-37.4-2.3-14.6-6.6-27.4-17.1-33.5-24.7-13.3-16.4-28.9-48.1-31.9-72.8-.1-1.2.7-2.3 1.9-2.5s2.3.7 2.4 1.9c3.2 26.3 20 57 31 70.5 5.6 6.9 18 17.2 31.9 23.5 11 5 26.5 8.9 37.6-.2 18.1-14.9 12.7-32.6 10.1-41.1-.4-1.2-.7-2.2-.9-3-1.2-4.9.3-7.6 2-10.8 1.1-2.1 2.4-4.4 3.4-8 2-7-.4-11.3-2.9-15.8-.6-1-1.1-2-1.6-3-2.5-5.2-.8-9.7.7-13.3.4-1 .8-1.9 1-2.9.1-.4.2-.7.4-1.1 1.4-4.3 3.1-9.6-4-18.3-6.3-7.8-5.8-12-5.1-18.5.4-3.1.8-6.7.6-11.7-.5-14.1-10.8-22.2-11.2-22.6-.6-.4-11.9-7.6-27.3-6.9-15.3.8-24.4 16.5-24.5 16.7-.4.7-1.1 1.1-1.9 1.1h-.4c-.9-.2-1.6-.9-1.7-1.8 0 0-2-5.2-19.7-14.1-17.5-8.8-36.7 8.3-38.9 10.3-50 86.1 40.7 183.6 41.7 184.6.6.6.8 1.6.4 2.4-.3.8-1.1 1.3-1.9 1.4-.3 0-25.3 1.1-36.3 12.3-.1.1-.2.1-.2.2l-.2.2c-.4.2-9.6 6-2.8 20.2.3.7.8 1.9 1.7 3 1.3-6.4 5.7-17.9 20.7-20 1.2-.2 2.3.7 2.5 1.9.2 1.2-.7 2.3-1.8 2.5-17 2.4-17.5 18.9-17.5 19.9 0 .6.6 7.5 7.3 11.9.9-4.9 3.6-14.1 10.8-18.3.7-.4 1.6-.4 2.3.1.7.5 1 1.3.9 2.1-.1.5-1.4 11.3 8.9 16.7.5-3.8 1.7-10.3 4.6-15.9 4.2-8.8 10.5-11.5 14.8-12.2-4.6-5.9-11.6-18-6-27.7"/><path class="st1" d="M177.7 91.6c-.7 1.2-1.6 1.5-2.2 1.6h-.2c-.8 0-1.5-.4-1.9-.8-4.7-3.8-6.3-10.4-6.3-10.7-.2-.9.4-1.8 1.3-2s1.9.4 2.1 1.3c0 .1 1.2 5.1 4.5 8.3 1-2.1 2.7-6.4 2.8-7.9.1-.9 1-1.6 1.9-1.5 1 .1 1.7.9 1.6 1.8-.2 2.5-2.9 8.6-3.6 9.9m7.2-7.8c-.5-7.7-2.3-14.9-5-20.1-2.3-4.5-5-7-7.4-7h-.2c-2.5.2-4.9 3.1-6.6 8-1.9 5.6-2.7 12.9-2.2 20.6 1.1 16.4 7.5 27.4 12.6 27.1 5-.4 9.9-12.2 8.8-28.6"/><path class="st3" d="M164 112.5c-.1 0-.1-.1-.3-.2-1.6-.9-3.8-.6-5.6-.4-1.9.2-3.8.5-4.1-1.3-.1-.5 0-1 .3-1.4.8-1.1 2.7-1.5 4.9-1.9.6-.1 2.6-.5 2.5-1.2-.2-1.9-3.2-1.3-4.4-1.4-.9-.1-1.7-.1-2.4-.2-1.3-.2-1.8-.8-2-1.3-.2-.6-.1-1.3.3-1.8.6-.7 1.5-.8 2.5-.9 4.8-.7 3.9-2.8 3.8-3.5-.1-1.2-1-1.5-1.4-1.5s-1.3.1-2 .3c-2.1.4-4.5.8-5.1-1-.2-.5-.1-1 .1-1.4.6-.9 1.8-1.1 3.4-1.3 1-.1 2.1-.3 2.7-.6 1.1-.6 1.1-1.1 1.2-2.1V89c0-.5-1.2-1.6-2-1.7-.3 0-.9-.1-1.5-.1-3.5-.2-4.4-.3-4.7-1.2-.2-.4-.1-.9.1-1.2.4-.7 1.3-.8 3.6-1 .9-.1 5.1-.4 5.1-2.3-.1-1.9-3.3-2.4-3.6-2.4-2.7-.2-4.8-.5-5.2-1.9-.1-.4 0-.8.2-1.2.6-.8 1.8-.8 3.6-.9.9 0 5.2-.5 5.1-1.6.1-.7-1.6-.7-2.4-.9-1-.3-2-.6-2.7-1l-.3-.2c-1.3-.8-2.2-1.3-1.9-2.4.3-1.1 1.5-1.1 2.3-1.1s1.8.1 2.7.2c.8.1 2.5.5 2.6-.4.2-1.1-2-2.2-2-2.2-1.6-.8-3.5-1.7-3.5-3.5 0-.6.2-1.1.7-1.4 1-.7 2.5-.2 3.6.2 0 0 2.8 1.3 3.3.5.7-1.5.3-1.7-.1-2.4-.4-.5-1.7-1.3-2.6-1.9-1.6-1-2.4-1.5-2.4-2.4 0-.4.4-.9.8-1.1 1-.4 1.9.1 2.8.6.6.3 4.5 2.4 5.8.5.6-.8-2.1-2.6-2.9-3.3-.9-.7-1.6-1.3-1.8-2.1-.1-.3-.2-1.1.3-1.6.6-.7 1.5-.5 3.3-.1 5.8 1.1 10.6 3.7 14.5 7.8 1.3 1.2 2.5 2.8 3.7 4.7.1.2.2.4.4.7.2.3.3.6.5.9v.1c.3.5.6 1 .8 1.5.1.2.1.3.1.5 2.4 5.5 4 12.4 4.5 19.7 1 14.4-2.2 26.3-7.8 31 .3.1.6.3.9.4 12 6 17.5 10.7 20 13.7 2.7-3.7 8.1-10 16-13.5-5.4-4.9-8.5-16.6-7.6-30.8.6-8.3 2.5-16.1 5.5-21.8 1-2 2.2-3.7 3.4-5.1l.3-.3c.1-.2.3-.3.4-.4 4-4.8 9.1-7.9 15.3-9.1 1.8-.4 2.7-.5 3.3.1.5.6.4 1.3.3 1.6-.2.8-.9 1.4-1.7 2.1-.8.7-3.3 2.6-2.9 3.3.5 1.1 5.1-.2 5.7-.5.9-.5 1.8-1 2.8-.6.4.2.8.7.8 1.1.1.9-.7 1.4-2.3 2.4-.9.5-4.2 2.4-3 4.1.4.8 3.5-.4 3.5-.4 1.1-.4 2.6-.9 3.5-.2.4.3.7.8.7 1.4 0 1.8-1.9 2.7-3.5 3.5 0 0-2.7.6-1.8 2.8.2.7 4.4-.4 5.1-.4.8 0 2 0 2.3 1s-.6 1.6-1.9 2.4l-.3.2c-.7.5-5.4.7-5.1 2 .4 1.4 4.1 1.5 5 1.5 1.8 0 3 .1 3.6.9.2.3.3.8.2 1.2-.4 1.4-2.4 1.7-5.1 1.9-.3 0-.5 0-.7.1-.6.1-2 .8-2.1 1.6-.1 1.2.8 2.2 1.4 2.6.3.2 1.9.4 2.8.5 2.2.2 3.1.4 3.5 1 .2.3.3.9.1 1.2-.4.8-1.2 1-4.7 1.2-.6 0-3.5 0-3.5 2 0 2.1 3 2.9 3.9 3 1.5.2 2.8.4 3.3 1.3.3.4.3.9.1 1.4-.6 1.9-3 1.4-5.1 1-.8-.1-1.6-.3-2-.3s-.7.3-1 .7c-.4.6-.6 1.5-.4 2.4.4 1.6 2.7 2.1 3.8 2 1-.2 1.9.2 2.5.9.4.5.5 1.2.3 1.8-.2.4-.6 1.1-2 1.3-.7.1-2 0-2.9-.1-1.4-.1-3.9-1-4.2 1-.1.9.9 1.4 1.1 1.5h.1c.5.1 1 .2 1.6.3 2.6.5 5.6 1 5.2 3.3-.3 1.7-2.2 1.5-4 1.3s-3.9-.5-5.5.4c-.3.2-.2.5 0 .6 9 1 16 4.1 19.4 5.9 8.5-25.3 2.1-47.3-.1-53.6-2.9-8.2-1.2-14.8 5.1-19.6 2.9-2.2 4.5-4.5 4.3-6.3-.2-1.9-2.3-3.4-4-4.3-4.4-2.3-9.7-1.6-15.4 2-3.2 2.1-5.4 1.3-12-2.7-7.9-4.5-14.2-4.8-23.2-.9-8.1 3.4-11 14.2-11.1 14.3-.2.9-1.1 1.6-2 1.6h-.1c-.9 0-1.7-.6-2.1-1.5 0-.1-3-8.3-11.2-14.8-6.6-5.1-14.3-1.1-16.6.2-2.6 1.6-4.6 3.2-6.1 4.2-1 .8-1.6 1.2-2.1 1.5-3.3 1.8-7.6.1-11.1-4.6-1.5-2-8.7-6.1-13.4-5-1.4.3-3.3 1.2-4.1 5.1-2.4 12.2 11.1 17.3 11.2 17.3 1.5.5 2.6 1.6 3.3 3 .7 1.7.7 3.6 0 5.4-.2.5-.5 1-.8 1.6-1.1 1.9-3 5.3-7.1 19.5-3.9 13.8 1.1 34.6 3.4 42.4 4.5-3.1 13.2-9.3 23.4-11.1"/><path class="st1" d="M229.3 91.6c-.7 1.2-1.6 1.5-2.2 1.6h-.2c-.8 0-1.5-.4-1.9-.9-4.7-3.8-6.3-10.4-6.3-10.7-.2-.9.4-1.8 1.3-2s1.9.4 2.1 1.3c0 .1 1.2 5.1 4.5 8.3 1-2.1 2.7-6.4 2.8-7.9.1-.9 1-1.6 1.9-1.5 1 .1 1.7.9 1.6 1.8-.2 2.6-2.9 8.7-3.6 10m-1.6-34h-.2c-2.4 0-5.1 2.5-7.4 7-2.7 5.2-4.4 12.4-5 20.1-1.1 16.4 3.7 28.2 8.8 28.6 2.5.1 5.3-2.4 7.6-7 2.7-5.2 4.4-12.4 5-20.1 1.1-16.5-3.8-28.3-8.8-28.6"/><path class="st2" d="M186.1 206c-1.1.5-1.6 1.8-1.1 2.9.1.3 3.7 8.5 10.3 12.4.5.4 1.2.7 2 .7.3 0 .5 0 .8-.1.6-.2 1.7-.8 2.2-2.5.5-1.8 2.3-10.4 2-13.8-.1-1.2-1.1-2.1-2.4-2-1.2.1-2.1 1.2-2 2.4.2 2.1-.9 8-1.5 10.9-4.8-3.3-7.5-9.6-7.5-9.7-.4-1.2-1.7-1.7-2.8-1.2M208.5 246.6c-1.2.2-2 1.3-1.8 2.5.3 2.1-.5 8-1 11-4.9-3.1-8-9.2-8-9.3-.5-1.1-1.8-1.5-2.9-1s-1.5 1.9-1 3c.2.3 4.1 8.3 10.9 11.8.5.3 1.2.6 1.9.6.3 0 .7-.1 1-.2.6-.2 1.7-.8 2.1-2.6.4-1.8 1.8-10.5 1.3-13.9-.3-1.2-1.4-2.1-2.5-1.9M221.1 245c-1.1.5-1.5 1.9-1 3 .2.3 4.1 8.3 10.9 11.8.5.3 1.2.6 1.9.6.3 0 .7-.1 1-.2.6-.2 1.7-.8 2.1-2.6.4-1.8 1.8-10.5 1.3-13.9-.2-1.2-1.3-2-2.5-1.9-1.2.2-2 1.3-1.8 2.5.3 2.1-.5 8-1 11-4.9-3.1-8-9.2-8-9.3-.5-1.1-1.9-1.6-2.9-1M252.8 239.4c.3 2.1-.4 8-1 11-4.9-3.1-8-9.2-8-9.3-.5-1.1-1.8-1.5-2.9-1s-1.5 1.9-1 3c.2.3 4.1 8.3 10.9 11.8.5.3 1.2.6 1.9.6.3 0 .7-.1 1-.2.6-.2 1.7-.8 2.1-2.6.4-1.8 1.8-10.5 1.3-13.9-.2-1.2-1.3-2-2.5-1.9-1.1.2-2 1.3-1.8 2.5M211.6 202.4c-1.1.5-1.6 1.8-1.1 2.9.1.3 3.7 8.5 10.3 12.4.5.4 1.2.7 2 .7.3 0 .5 0 .8-.1.6-.2 1.7-.8 2.2-2.5.5-1.8 2.3-10.4 2-13.8-.1-1.2-1.1-2.1-2.4-2-1.2.1-2.1 1.2-2 2.4.2 2.1-.9 8-1.5 10.9-4.8-3.3-7.5-9.6-7.5-9.7-.4-1.2-1.7-1.7-2.8-1.2M249.5 193.5c.2 2.1-.9 8-1.5 10.9-4.8-3.3-7.5-9.6-7.5-9.7-.5-1.1-1.8-1.6-2.9-1.1s-1.6 1.8-1.1 2.9c.1.3 3.7 8.5 10.3 12.4.5.4 1.2.7 2 .7.3 0 .5 0 .8-.1.6-.2 1.7-.8 2.2-2.5.5-1.8 2.3-10.4 2-13.8-.1-1.2-1.2-2.1-2.4-2-1.2 0-2 1.1-1.9 2.3M244.7 172.8c.5.4 1.2.7 2 .7.3 0 .6 0 .8-.1.6-.2 1.7-.8 2.2-2.5.5-1.8 2.3-10.4 2-13.8-.1-1.2-1.1-2.1-2.4-2-1.2.1-2.1 1.2-2 2.4.2 2.1-.9 8-1.5 10.9-4.8-3.3-7.5-9.6-7.5-9.7-.5-1.1-1.7-1.6-2.9-1.2-1.1.5-1.6 1.8-1.1 2.9.3.3 3.8 8.5 10.4 12.4M210.8 177.8c.5.4 1.2.7 2 .7.3 0 .6 0 .8-.1.6-.2 1.7-.8 2.2-2.5.5-1.8 2.3-10.4 2-13.8-.1-1.2-1.1-2.1-2.4-2-1.2.1-2.1 1.2-2 2.4.2 2.1-.9 8-1.5 10.9-4.8-3.3-7.5-9.6-7.5-9.7-.5-1.1-1.8-1.6-2.9-1.2-1.1.5-1.6 1.8-1.1 2.9.3.4 3.8 8.6 10.4 12.4M179.3 178c.5.6 1.4 1.1 2.4 1.1h.3c.6-.1 1.8-.4 2.7-2 .9-1.7 4.2-9.7 4.5-13.2.1-1.2-.8-2.3-2-2.4s-2.3.8-2.4 2c-.2 2.1-2.3 7.7-3.5 10.4-4.1-4.2-5.6-10.9-5.6-11-.3-1.2-1.4-1.9-2.6-1.7-1.2.3-1.9 1.4-1.6 2.6.1.4 2 9.1 7.8 14.2M231.4 79.7c-.9-.1-1.8.6-1.9 1.5-.2 1.6-1.9 5.8-2.8 7.9-3.3-3.2-4.5-8.3-4.5-8.3-.2-.9-1.1-1.5-2.1-1.3-.9.2-1.5 1.1-1.3 2 .1.3 1.6 6.9 6.3 10.7.4.4 1.1.8 1.9.8h.2c.5 0 1.5-.3 2.2-1.5.7-1.3 3.4-7.4 3.6-10 0-.9-.7-1.7-1.6-1.8M179.7 79.7c-.9-.1-1.8.6-1.9 1.5-.2 1.6-1.9 5.8-2.8 7.9-3.3-3.2-4.5-8.3-4.5-8.3-.2-.9-1.1-1.5-2.1-1.3-.9.2-1.5 1.1-1.3 2 .1.3 1.6 6.9 6.3 10.7.4.4 1.1.8 1.9.8h.2c.5 0 1.5-.3 2.2-1.5.7-1.3 3.4-7.4 3.6-10 .1-.9-.6-1.7-1.6-1.8M320.5 281.7c2.2.2 4.5.1 7-.3 4.9-.8 9.6-2.4 13-3.6l1-.3c2.5-.9 3.7-1.3 4.3-1.2.7 0 1.5-.5 1.5-1.4.1-.8-.5-1.6-1.3-1.6-1.4-.1-3.4.6-6.4 1.7-3.5 1.2-7.9 2.8-12.5 3.5-1.3.2-2.7.3-4.1.3h-.7v-.7c.1-1.8 0-4-.3-6.6-.4-3.1 1.1-5.2 2.7-7.4 1.3-1.8 2.8-3.9 3-6.5.4-5.5.2-5.8-.2-6.2-.3-.3-.7-.5-1.1-.5-.8 0-1.5.7-1.5 1.5 0 .1 0 .3.1.4 0 .5 0 1.6-.2 4.6-.1 1.8-1.2 3.2-2.4 4.9-1.7 2.3-3.8 5.2-3.3 9.6.3 2.3.4 4.3.3 5.9v.8l-.8-.1c-2.9-.5-5.6-1.6-8.4-2.7l-.4-.1c-.6-.2-1.3-.5-1.9-.7-6.3-2.4-11.8-11.2-11.8-11.3-.2-.3-.5-.6-.9-.7s-.8 0-1.1.2c-.7.4-.9 1.4-.5 2.1.2.4 6 9.8 13.3 12.6.8.3 1.5.6 2.3.9 3.6 1.2 7.1 2.6 11.3 2.9zM263.2 382.8c-5.6-2.3-16.6.8-17.9 1.1-.8.2-1.2 1.1-1 1.9s1.1 1.3 1.8 1c3.1-.9 12-2.9 15.9-1.2 2 .8 4 1.1 6 1h.4l.2.4c.5.9 1.3 3 .7 6.7-.4 2.8-.9 4.4-1.1 5.5-.3 1.4-.6 2.3-.5 3.8 0 1.5.4 2.7.7 3.9.4 1.5.8 2.9.5 4.9-.1.8.4 1.6 1.2 1.7.9.1 1.6-.4 1.7-1.2.4-2.6-.1-4.5-.6-6.2-.3-1.1-.6-2-.6-3.1 0-1 .1-1.7.4-2.9s.7-2.9 1.2-5.8c.5-3 .3-5.5-.6-7.7l-.3-.6.6-.3c1.6-.7 3-1.5 4.1-2.1.6-.3 1-.6 1.3-.8 3.4-1.8 12.9-2.1 17.4-2.3l1.6-.1c4.9-.2 12.1.5 12.4.5.4 0 .8-.1 1.1-.3.3-.3.5-.6.5-1 .1-.8-.5-1.6-1.3-1.7-.1 0-7.6-.8-12.8-.6l-1.6.1c-7.1.2-15 .6-18.7 2.6-.5.2-.9.5-1.5.8-2.5 1.7-6.4 4.1-11.2 2M99.5 275.2c2.5.4 4.9.5 8 .3 1.4-.1 2.7-.1 4-.1 3.4 0 6.1.2 6.1.2.9 0 1.5-.6 1.6-1.4s-.5-1.6-1.3-1.6c-.1 0-5.4-.5-10.6-.1-1.1.1-2.2.1-3.2.1h-1.2l.6-1c.7-1.3 1.3-2.7 2-4.7.9-2.4 1.9-5.2 3.7-8.4 2.2-4 9.3-9.3 11.8-11 .7-.5.9-1.4.4-2.1-.2-.3-.6-.6-.9-.6-.4-.1-.8 0-1.1.2-.4.3-9.8 6.6-12.8 12-1.9 3.4-3 6.4-3.9 8.8-1.2 3.2-1.9 5-3.3 6.1l-.3.2-.3-.1c-2.9-.7-6.1-2-10.9-4.6-8.8-4.7-9.4-11.1-9.5-11.2 0-.9-.7-1.6-1.5-1.6s-1.5.7-1.5 1.5c0 2.2 2 9 11 13.9 5.3 2.8 8.9 4.3 12.3 5 .5.1.6.2.8.2M147.9 379.6c-.1 0-5.2-.2-10.6 3.1-4.5 2.7-10.2 3.1-15.2 3.2-1.6 0-3-.2-4.6-.6-2.6-.5-5.4-1.1-9.3-.6-6.5.8-13.3 9.2-14 10.1-.5.7-.4 1.6.2 2.1.6.5 1.6.4 2.1-.2.1-.1 6.6-8.3 12.1-9 .8-.1 1.6-.1 2.4-.1h1.2l.1.6c.3 2.5 1.3 7.3 3.7 11.2 2.6 4.1 5.4 6.6 7.9 8.8l2.4 2.1c.6.5 1.5.5 2.1-.1s.5-1.6-.1-2.1c-.8-.8-1.6-1.5-2.5-2.2-2.5-2.2-5-4.4-7.3-8.1-1.8-2.9-2.6-6.4-3.1-8.8l-.2-1 1.7.3c1.8.4 3.6.6 5.3.6 5.4-.1 11.6-.6 16.6-3.6 4.2-2.5 8.2-2.7 8.9-2.7h.1c.8 0 1.5-.7 1.5-1.4.1-.9-.6-1.6-1.4-1.6"/><path class="st2" d="M366.7 313.7c-2.2 4.1-8.9 6.4-19.9 6.8-.6 0-1 0-1.3.1-3.1.3-3.5 2.9-3.9 4.9-.4 2.3-1 5.4-4.2 9.6-4.2 5.4-15.1 4.7-24.7 4.1-3.1-.2-6.1-.4-8.8-.4-12.9 0-22.3 7.7-26.7 14.9-4.8 7.7-4 19-1.6 21.5 1.6 1.7 3.3 1.2 5.6.5s6.6-2 14.8-3.2c13-2 22.6 4.9 24.3 7.5-1.3 1.7-7.2 5.4-15.8 7-5.4 1-10.4-.3-14.4-1.3-3.2-.8-5.7-1.5-7.9-.9-.3.1-.6.2-.8.2-1.6.4-3.5.9-4.5 2.9-1.2 2.4-.4 6.2 2.8 13.9 1.1 2.7 1.2 5.1.2 7.6-2.2 5.2-8.6 8.5-11.2 9.6-4.8-4-7.5-8.2-8-12.3-.5-4.5 1.8-7.6 2.3-8.2 2.1-2.6 2.1-5.2-.1-7.7-1.6-1.9-3.9-1.4-7.1-.8-2.7.5-6.3 1.3-11.6 1.4-5.8.1-10.4-2.6-13.2-4.9 2.8-.8 6.5-2.4 11.1-5.9 7.3-5.6 11-4.8 15.7-3.8.6.1 1.2.3 1.9.4 5 1 8.4.9 10.4-2.4.8-1.3.8-3.1.8-5.6 0-2.2 0-5 .7-7.5 1.1-4.2 3-11.2-3.8-14.4-5.9-2.7-21.5 1.1-33.5 4.9-11.4 3.5-17.9 10.3-22.3 14.7-1 1-1.8 1.9-2.6 2.6-3.4 3.1-11.2 1.9-13.5.8.2-1.2.4-3.4-1.1-7.2-1.8-4.6-5.2-7.2-7.5-8.5 5.5-9.5 13.6-8.3 13.9-8.3.9.2 1.8-.3 2.3-1.1.4-.8.3-1.8-.3-2.5-.1-.1-10.7-12.3-9.1-22.2 1.3 2.2 2.5 3.9 2.5 3.9 2.7 3.6 6.7 7.9 12.7 12.1 15.1 10.8 28.8 14.3 41.7 10.7 11.9-3.3 17.7-13.8 18.7-23.8 1.5-.8 4.9-2.2 10.2-3.3 5.2-1 13.7-.3 19.9.2 3 .2 5.3.4 6.7.4 6.8-.1 10.6-1.5 11.8-4.4 1.2-2.7-1.1-4.4-3.3-6-2.2-1.6-5.3-3.9-8.1-8.1-3.9-5.8-1-10.9 2-14.7l.5-.6c.7-.9 1.7-2.2 1-3.8-.7-1.8-2.7-2.6-9.5-3.9-4.9-.9-9.1-3.3-11.2-6.6-.9-1.3-1.8-3.4-1.2-5.8 1-4.5 1.1-9.7 1-12.9 10.4 3.1 16.1 8.6 19 12.6 1.2 3.2 3.1 5.6 3.2 5.7.7.8 1.8 1 2.7.5.9-.5 1.3-1.6 1-2.6-.1-.2-.9-2.5-3-5.6-.9-2.9-.4-5.2 1.6-6.9 5.4-4.6 10.5-10.9 12.6-13.5 2.3 1 7.1 4 8.6 11 1.4 6.6-3.1 10.3-7.2 12.8-.9.6-1.4.9-1.8 1.5-.5.9-.4 1.9.2 2.7 1 1.3 2.7 1.1 4.2.7.1 0 .2-.1.3-.1 14.6-5.8 25.4-3.6 30-2-12.4 13.8-30.4 15-36.5 15.5-.7 0-1.3.1-1.7.1-3.4.4-8 2.5-10.1 6.4-1.1 2-1.9 5.4.3 9.9 4.3 8.6 12.4 12.6 26.4 13 10.3.3 21.6-8.9 26.2-13.1 2.2 4.8 2.6 8.5 1.2 11.2m-184.3 40.8c-2.9 5.6-4.1 12.1-4.6 15.9-10.3-5.4-9-16.2-8.9-16.7.1-.8-.2-1.7-.9-2.1-.7-.5-1.6-.5-2.3-.1-7.3 4.2-9.9 13.4-10.8 18.3-6.6-4.5-7.2-11.3-7.3-11.9 0-1.1.5-17.5 17.5-19.9 1.2-.2 2-1.3 1.9-2.5-.2-1.2-1.3-2.1-2.5-1.9-15.1 2.1-19.4 13.6-20.7 20-.8-1.1-1.4-2.4-1.7-3-6.8-14.1 2.5-20 2.8-20.2l.2-.2c.1-.1.2-.1.2-.2 10.9-11.2 36-12.3 36.3-12.3.9 0 1.6-.6 1.9-1.4s.1-1.7-.4-2.4c-.9-1-91.7-98.5-41.7-184.6 2.2-2 21.4-19.1 38.9-10.3 17.8 8.9 19.7 14.1 19.7 14.1.1.9.8 1.7 1.7 1.8h.4c.8 0 1.5-.4 1.9-1.1.1-.2 9.2-15.9 24.5-16.7 15.4-.8 26.7 6.5 27.3 6.9.4.3 10.7 8.5 11.2 22.6.2 5-.2 8.5-.6 11.7-.7 6.5-1.2 10.8 5.1 18.5 7.1 8.7 5.4 14.1 4 18.3-.1.4-.2.8-.4 1.1-.3.9-.7 1.9-1 2.9-1.4 3.6-3.2 8.1-.7 13.3.5 1 1.1 2 1.6 3 2.5 4.5 4.9 8.8 2.9 15.8-1 3.7-2.3 6-3.4 8-1.7 3.2-3.2 5.9-2 10.8.2.8.5 1.8.9 3 2.6 8.5 8 26.2-10.1 41.1-11.1 9.2-26.6 5.2-37.6.2-13.9-6.2-26.3-16.5-31.9-23.5-10.9-13.4-27.8-44.2-31-70.5-.1-1.2-1.2-2.1-2.4-1.9-1.2.1-2 1.3-1.9 2.5 3 24.7 18.6 56.4 31.9 72.8 6.1 7.6 18.9 18.1 33.5 24.7 10.7 4.8 25.3 8.7 37.4 2.3 2.3 5.2 3.2 9.6 3.8 17.9.5 7.4-2.1 20.8-15.6 24.5-11.6 3.2-24.1-.1-38.1-10-12.4-8.8-15.7-18.1-15.8-18.1-.3-1-1.4-1.6-2.4-1.5h-.1c-.7 0-1.4.4-1.8 1-5.6 9.7 1.4 21.8 5.6 27.7-4 .8-10.3 3.5-14.5 12.3m-38.9 5.2c.4 2.4 1.7 6.9 5.5 10.8-3.6.2-7.9 1-13.1 3.1-7.7 3.2-11.5 4.1-13.3 4.3 2.2-3.2 10.8-15.1 20.9-18.2m16.5 18.4c-2.7 1.4-7 4.2-11.9 9.2-5.7 5.8-20.5 5-25.7 4.3-1.1-.2-2 .4-2.4 1.4s0 2.1.9 2.6c.1.1 10.1 6.2 14.5 12 2.7 3.5-1.2 8-2.9 9.7-21.1-3.9-20.7-19.5-20.7-20.2 0-.9-.5-1.8-1.3-2.1-.8-.4-1.8-.1-2.4.6-7.8 8.8-17.1 9.8-21.1 9.7.5-4.1 1.9-12.9 4.6-17.7 3.1-5.4 14.4-7.3 18.4-7.6 4-.3 6.6-4.1 9.6-8.6l.7-1.1c3.4-4.9 7-16.6.6-22.4-5.7-5.1-15.6-6.1-25.3-2.4-7 2.6-10.4 11.1-11.8 15.9-3.2-2.8-5.2-6.5-5.6-10.2-.3-2.7 1.6-5.5 2.9-7.5.6-.9 1.2-1.8 1.5-2.5 0-.1.1-.2.1-.3.2-.3.7-1.1.5-2.2-.3-1.3-1-1.7-4.7-4.1-1.8-1.1-4.5-2.8-8.3-5.3C56.9 320.6 46 308 43 303.6c-.4-.5-.8-1.1-1.2-1.8-2.7-3.8-6.4-9-4.4-14.5 1.7-4.5 9-8.5 13.6-10.6 1.4 7.7 7.2 29 28.1 38.7.7.4 7.4 3.6 11.1 4.3.8.1 1.7-.2 2.1-.9.5-.7.5-1.6.1-2.4-.1-.2-8.8-16.3-4.1-32.2.6-1.1 2-4.3 1-6.8-.5-1.2-1.5-2.1-2.8-2.5-4.8-1.4-14.3-5.4-16.4-10.2-2.5-5.9-2.4-7.1-.7-10.7 1.3-2.9 2-5 2.4-6.4 3.5 1 10.8 4 16.7 12.1 1.4 1.8 3.9 4.8 4.6 5.4 1 .8 2.3 1.1 3.5.7 1.1-.4 1.8-1.3 2-2.4.1-.6 0-1.1-.1-2.1-.3-2.5-1-7.8 1.8-11.4 4.5-5.8 10.7-7.3 14-7.6 3.9-.4 8.2-2.3 11-3.8 1.1 3.5 2.4 10-.8 15.4-4.7 7.8-12.7 10.3-12.8 10.3-1.1.3-1.8 1.5-1.5 2.6.2 1.1 1.3 1.9 2.5 1.7.1 0 9.8-1.5 15 4.6-1.2 2-4.8 6.5-13.8 7.7-2.4-.1-8.4-.6-10.6-1-3.5-.8-5.8 1.5-6.5 3.9l-.1.2c-2.9 6.5-10.7 28.6 10.6 42.3 1 .8 6.9 4.8 17.4 1.4 7.5-2.4 11.6-6.4 14.2-9.1.9-.9 1.9-1.8 2.3-2 1.6-.7 6.6.3 8.3 1.2-.9 1.8-4.3 5.8-7.4 8.9-1.9 1.3-12.1 9.3-4.3 25.5.1.3.8 2.1 2.2 4-12.5 5.1-22 20.4-22.1 20.7-1.2 2.2-.6 3.6.1 4.4 1.4 1.6 4.1 2.7 19.2-3.5 13.3-5.3 20-2 22.8.4m16.1-265.7c-5.1.3-11.5-10.7-12.6-27.1-.5-7.7.2-15 2.2-20.6 1.7-4.9 4.1-7.8 6.6-8h.2c2.4 0 5.1 2.5 7.4 7 2.7 5.2 4.5 12.4 5 20.1 1.1 16.4-3.8 28.2-8.8 28.6m55.4-6.2c-2.4 4.6-5.1 7.1-7.6 7-5.1-.4-9.9-12.2-8.8-28.6.5-7.7 2.3-14.9 5-20.1 2.3-4.5 5-7 7.4-7h.2c5.1.4 9.9 12.2 8.8 28.6-.6 7.7-2.3 14.9-5 20.1m-94-24.7c4-14.2 6-17.6 7.1-19.5.3-.6.6-1.1.8-1.6.7-1.8.7-3.8 0-5.4-.7-1.5-1.8-2.5-3.3-3-.1 0-13.6-5.2-11.2-17.3.8-3.9 2.7-4.8 4.1-5.1 4.7-1.1 11.9 3 13.4 5 3.5 4.7 7.7 6.4 11.1 4.6.5-.3 1.1-.7 2.1-1.5 1.4-1 3.5-2.6 6.1-4.2 2.3-1.3 10-5.3 16.6-.2 8.3 6.5 11.2 14.7 11.2 14.8.3.9 1.1 1.5 2.1 1.5h.1c1 0 1.8-.7 2-1.6 0-.1 3-10.9 11.1-14.3 9-3.9 15.3-3.6 23.2.9 6.6 4 8.7 4.8 12 2.7 5.7-3.7 11-4.4 15.4-2 1.7.9 3.8 2.4 4 4.3.1 1.8-1.4 4.1-4.3 6.3-6.3 4.8-8 11.4-5.1 19.6 2.2 6.3 8.6 28.3.1 53.6-3.4-1.9-10.4-5-19.4-5.9-.2-.1-.3-.5 0-.6 1.6-.9 3.7-.6 5.5-.4 1.8.2 3.7.5 4-1.3.4-2.3-2.5-2.9-5.2-3.3-.5-.1-1.1-.2-1.6-.3h-.1c-.2 0-1.3-.5-1.1-1.5.3-2 2.9-1.1 4.2-1 .9.1 2.2.2 2.9.1 1.4-.2 1.9-.9 2-1.3.2-.6.1-1.3-.3-1.8-.6-.7-1.5-1.1-2.5-.9-1.1.2-3.4-.3-3.8-2-.2-.9-.1-1.8.4-2.4.3-.4.6-.6 1-.7.4 0 1.3.1 2 .3 2.1.4 4.5.8 5.1-1 .2-.5.1-1-.1-1.4-.6-.9-1.8-1.1-3.3-1.3-1-.1-3.9-.9-3.9-3 0-1.9 2.9-1.9 3.5-2 3.5-.2 4.3-.3 4.7-1.2.2-.4.1-.9-.1-1.2-.4-.7-1.3-.8-3.5-1-.9-.1-2.5-.3-2.8-.5-.6-.4-1.5-1.4-1.4-2.6.1-.9 1.5-1.6 2.1-1.6.2 0 .4 0 .7-.1 2.7-.2 4.7-.5 5.1-1.9.1-.4 0-.8-.2-1.2-.6-.8-1.8-.8-3.6-.9-.9 0-4.6-.1-5-1.5-.4-1.3 4.3-1.6 5.1-2l.3-.2c1.2-.8 2.2-1.3 1.9-2.4-.3-1-1.5-1-2.3-1s-4.9 1.1-5.1.4c-.9-2.2 1.8-2.8 1.8-2.8 1.5-.8 3.5-1.7 3.5-3.5 0-.6-.2-1.1-.7-1.4-1-.7-2.5-.2-3.5.2 0 0-3.1 1.2-3.5.4-1.2-1.8 2.1-3.6 3-4.1 1.6-1 2.4-1.5 2.3-2.4 0-.4-.4-.9-.8-1.1-.9-.4-1.9.1-2.8.6-.6.3-5.2 1.7-5.7.5-.4-.7 2.1-2.6 2.9-3.3.9-.7 1.6-1.3 1.7-2.1.1-.3.2-1.1-.3-1.6-.6-.6-1.5-.5-3.3-.1-6.2 1.2-11.4 4.3-15.3 9.1-.1.2-.3.3-.4.4l-.3.3c-1.2 1.4-2.3 3.1-3.4 5.1-3 5.8-4.9 13.5-5.5 21.8-1 14.2 2.1 26 7.6 30.8-7.8 3.5-13.3 9.8-16 13.5-2.5-3-8-7.6-20-13.7-.3-.1-.6-.3-.9-.4 5.6-4.8 8.7-16.6 7.8-31-.5-7.4-2.1-14.3-4.5-19.7 0-.2 0-.3-.1-.5-.3-.5-.6-1-.8-1.5v-.1c-.2-.3-.3-.6-.5-.9-.1-.2-.2-.5-.4-.7-1.1-1.9-2.4-3.5-3.7-4.7-3.9-4.1-8.7-6.7-14.5-7.8-1.8-.3-2.7-.5-3.3.1-.5.6-.4 1.3-.3 1.6.2.8.9 1.4 1.8 2.1.8.7 3.5 2.5 2.9 3.3-1.2 1.9-5.1-.2-5.8-.5-.9-.5-1.8-1-2.8-.6-.4.2-.8.7-.8 1.1-.1 1 .7 1.4 2.4 2.4.9.5 2.2 1.4 2.6 1.9.5.7.9.9.1 2.4-.4.8-3.3-.5-3.3-.5-1.1-.4-2.6-.9-3.6-.2-.4.3-.7.8-.7 1.4 0 1.8 2 2.7 3.5 3.5 0 0 2.2 1 2 2.2-.2 1-1.8.5-2.6.4-1-.1-2-.2-2.7-.2-.8 0-2.1 0-2.4 1.1-.3 1 .6 1.6 1.9 2.4l.3.2c.7.5 1.7.8 2.7 1 .8.2 2.5.2 2.4.9.1 1-4.2 1.6-5.1 1.6-1.8 0-3 .1-3.6.9-.2.3-.3.8-.2 1.2.4 1.4 2.5 1.7 5.2 1.9.3 0 3.6.5 3.6 2.4.1 1.9-4.1 2.2-5.1 2.3-2.3.3-3.1.4-3.6 1-.2.3-.3.9-.1 1.2.4.8 1.3 1 4.7 1.2.6 0 1.2.1 1.5.1.8.1 2 1.2 2 1.7v.4c-.1 1-.1 1.4-1.2 2.1-.6.3-1.7.5-2.7.6-1.6.2-2.8.4-3.4 1.3-.3.4-.3.9-.1 1.4.6 1.8 3 1.4 5.1 1 .8-.1 1.6-.3 2-.3s1.3.3 1.4 1.5c0 .8 1 2.8-3.8 3.5-1 .1-2 .2-2.5.9-.4.5-.5 1.2-.3 1.8.2.5.7 1.1 2 1.3.7.1 1.6.1 2.4.2 1.2.1 4.2-.5 4.4 1.4.1.6-1.9 1-2.5 1.2-2.2.4-4.1.8-4.9 1.9-.3.4-.4.9-.3 1.4.3 1.7 2.2 1.5 4.1 1.3 1.8-.2 4-.5 5.6.4.2.1.3.2.3.2-10.2 1.8-18.9 8-23.1 11.5-2.4-8.2-7.5-28.9-3.6-42.8m59.2-57c8 .4 14.4 1.3 19.6 2.6-2.3.5-4.7 1.3-7.3 2.4-6.1 2.6-9.7 8.2-11.7 12.3-1.9-3.4-5.2-8-10.5-12.1-1.9-1.5-3.8-2.4-5.7-2.9 4.8-1.6 10-2.6 15.6-2.3m169.4 272.4c-.7-.1-1.3.2-1.8.6-.1.1-13.9 14-25.1 13.8-12.3-.4-19.1-3.5-22.7-10.6-1.1-2.2-1.2-4.1-.4-5.7 1.3-2.3 4.4-3.9 6.7-4.1.4 0 .9-.1 1.5-.1 6.9-.5 28-1.9 41.5-19.4.4-.5.5-1.2.4-1.8s-.5-1.2-1.1-1.5c-.5-.3-11.2-6.2-28.6-1.8 2.2-2.8 3.7-6.8 2.6-11.9-2.6-11.9-12.6-14.7-13.1-14.8-.8-.2-1.7.1-2.3.8-.1.1-6.4 8.5-13 14.1-1.7 1.4-2.8 3.2-3.3 5.1-4.3-4.1-10.7-8.2-20.4-10.5-.7-.2-1.4 0-1.9.5s-.8 1.2-.7 1.9c0 .1.8 8.3-.7 14.6-.7 3.1-.1 6.3 1.8 9.2 2.8 4.3 7.9 7.4 14.1 8.5 2.8.5 4.5.9 5.4 1.2-5.6 7.2-6.3 13.9-2.1 20 3.3 4.8 6.8 7.4 9.1 9.1.5.4 1 .8 1.4 1.1-.8.5-2.7 1.2-7.4 1.3-1.3 0-3.6-.2-6.3-.4-6.4-.5-15.3-1.3-21-.1-4.1.8-7.2 1.9-9.3 2.7v-.4c-.7-9-1.8-14-4.5-19.9.3-.3.7-.5 1-.8 20.4-16.8 14.2-37.1 11.5-45.9-.3-1.1-.6-2-.8-2.8-.8-3.2 0-4.7 1.6-7.6 1.2-2.1 2.6-4.8 3.8-9 2.5-8.8-.7-14.6-3.3-19.2-.5-.9-1-1.9-1.5-2.8-1.7-3.4-.5-6.3.8-9.7.4-1 .8-2.1 1.2-3.2l.3-1.1c1.4-4.5 3.8-11.9-4.8-22.5-5.1-6.3-4.8-9.1-4.1-15.2.4-3.1.8-7 .6-12.4-.5-13.5-8.5-22-11.7-24.9 9.5-27.1 2.6-50.9.2-57.6-2.2-6.3-1.1-11 3.6-14.6 4.2-3.2 6.3-6.8 6-10.2-.3-3.1-2.4-5.7-6.3-7.8-4.1-2.2-10.8-3.5-19.7 2.2-1 .7-1.4.9-8-3.1-6.9-4.3-17.5-9.3-38.7-10.3-17.8-.8-32.4 10-37.9 14-.7.5-1.4 1-1.6 1.1-1.1.6-3.3-.4-5.6-3.4-2.4-3.1-11.1-8.2-17.8-6.6-2.7.6-6.2 2.6-7.4 8.5-2.6 13.5 9.6 20.9 14.1 22.4.3.1.6.3.7.7.2.5.2 1.2 0 1.9-.2.4-.3.7-.6 1.1-1.1 2-3.3 5.8-7.5 20.5-4.8 16.9 2.4 42 4.1 47.3-21 36.7-20.4 81 1.9 128.2 13.3 28.1 30.8 49.7 37.7 57.7-5.4.6-14.7 2-23.1 5.7.9-2 .4-2.8.1-3.3-1.7-3.1-10.6-4.9-14.1-3.5-1.3.5-2.4 1.6-3.7 3-2.5 2.5-6 5.9-12.5 8-9 2.9-13.2-.5-13.4-.7-.1-.1-.2-.1-.3-.2-18-11.5-12.3-29.6-9.1-36.8.2-.4.2-.6.3-.6.4-1.3 1-1.1 1.4-1 3 .7 11.1 1.1 11.5 1.2h.4c14.5-1.8 17.9-11.2 18.1-11.6.2-.7.1-1.4-.3-2-3-4.5-7.4-6.4-11.3-7.2 2.6-1.9 5.4-4.6 7.6-8.2 5.8-9.6.3-21.5.1-22-.3-.6-.9-1.1-1.6-1.2-.7-.1-1.4.1-1.9.5-.8.7-6.2 3.9-11 4.4-4 .4-11.5 2.2-17 9.3-3 4-3.2 8.9-2.9 12.3-.7-.8-1.4-1.7-2-2.5-9.2-12.8-21.3-14.3-21.8-14.3-.7-.1-1.4.1-1.9.7s-.6 1.3-.5 2c0 0 .1 1.5-2.3 6.8s-2 7.9.7 14.3c3.2 7.6 16.5 12 19.1 12.7.2.5-.3 2.1-.9 3.2-.1.1-.1.3-.2.4-3.8 12.5-.3 24.7 2.3 31.2-2.2-.9-4.5-1.9-5.6-2.5-23-10.7-26-37.8-26-38-.1-.7-.4-1.3-1-1.6-.6-.4-1.3-.4-1.9-.2-1.6.6-15.6 5.8-18.7 14.2-2.9 7.8 1.9 14.3 5 18.7.4.6.8 1.1 1.2 1.6 3.2 4.8 14.4 17.8 28.4 26.9 3.8 2.5 6.5 4.2 8.3 5.4.9.5 1.6 1 2.2 1.4-.2.4-.6.9-.9 1.5-1.6 2.4-4 6-3.6 10.4.6 5.9 4.4 11.8 10.1 15.4.6.4 1.4.4 2 .1.7-.3 1.1-.9 1.3-1.6 0-.1 2.4-13.1 9.8-15.9 8.2-3.1 16.4-2.4 20.9 1.6 4.1 3.7 1.4 12.8-1.2 16.6l-.7 1.1c-2.3 3.4-4.4 6.6-6.3 6.7-1.7.1-17.1 1.4-21.9 9.8-4.2 7.2-5.4 21.2-5.4 21.8-.1 1.2.7 2.2 1.8 2.4.6.1 12.8 1.9 23.9-7.8 1.5 6.4 6.6 17.2 24.8 20.1h.3c.5 0 1-.2 1.4-.5 3.5-3 9-10.3 4.2-16.5-2.3-3-5.8-6-8.9-8.4 6.8 0 16.1-.9 21.2-6.1 7.3-7.4 13.1-9.5 13.1-9.5.6-.2 1.1-.7 1.3-1.3.2-.6.2-1.3-.2-1.9-.2-.3-2.1-3.4-6.7-5.5.4-2.8 1.7-9.8 5.8-14.3.6 5.4 3.4 13.8 14.3 17.8.2.1.5.1.7.1.4 0 .8-.1 1.2-.4.6-.4.9-1 1-1.7 0-.1.5-8.1 3.4-15.1 1.7.9 4.2 2.8 5.5 6.2 1.1 2.9.9 4.2.8 5.1-.2 1.4-.2 3 2 4.2 3.1 1.8 13.5 3.5 18.7-1.3.9-.8 1.8-1.7 2.8-2.8 4.3-4.4 10.2-10.4 20.5-13.6 18.2-5.7 27.7-6.3 30.4-5.1 2.7 1.3 3 3.2 1.4 9.2-.8 3-.8 6.1-.8 8.6 0 1.3 0 3-.2 3.4-.3.5-.8 1.4-5.9.4-.6-.1-1.2-.2-1.8-.4-5.1-1.1-10.4-2.3-19.2 4.6-8 6.2-13 5.6-13 5.6-.9-.2-1.8.3-2.3 1.1-.5.8-.4 1.8.2 2.5.3.4 8 9.7 19.9 9.6 5.7-.1 9.8-.9 12.4-1.4 1.2-.2 2.6-.5 3.1-.5.6.7.6.8-.2 1.8-.9 1.2-4 5.4-3.3 11.5.6 5.6 4.2 11 10.6 16.1.4.3.9.5 1.3.5.3 0 .5 0 .7-.1.5-.2 11.3-4.3 14.8-12.5 1.5-3.5 1.4-7.2-.2-11.1-3.6-8.5-3.1-10-2.9-10.3.2-.2 1.1-.4 1.6-.6.3-.1.6-.2 1-.3 1-.3 3.2.3 5.6.9 4.2 1.1 9.9 2.5 16.3 1.4 8.9-1.6 19.1-6.6 19.5-11.1.1-1.4-.7-2.9-2.5-4.6-3.9-3.7-13.9-9.5-26.9-7.5-8.5 1.3-13 2.6-15.4 3.3-.5.2-1 .3-1.4.4-.8-2.2-1.3-10 2.3-15.8 3.8-6.2 11.9-12.8 23-12.8 2.6 0 5.5.2 8.5.4 10.7.7 22.8 1.5 28.4-5.8 3.8-5 4.6-9.1 5-11.5.1-.4.2-1 .3-1.3h.8c4.7-.2 19.1-.6 23.6-9.1 2.5-4.6 1.5-10.7-2.8-17.9 0-.8-.5-1.2-1.2-1.2"/></svg>