<?xml version="1.0" encoding="utf-8"?>
<!-- Generator: Adobe Illustrator 19.2.1, SVG Export Plug-In . SVG Version: 6.00 Build 0)  -->
<!DOCTYPE svg PUBLIC "-//W3C//DTD SVG 1.1//EN" "http://www.w3.org/Graphics/SVG/1.1/DTD/svg11.dtd">
<svg version="1.1" id="Layer_1" xmlns="http://www.w3.org/2000/svg" xmlns:xlink="http://www.w3.org/1999/xlink" x="0px" y="0px"
	 viewBox="0 0 683.3 683.3" style="enable-background:new 0 0 683.3 683.3;" xml:space="preserve">
<style type="text/css">
	.st0{fill:#FFFFFF;}
	.st1{fill:#ED1C24;}
	.st2{fill:#FFF200;}
</style>
<g>
	<ellipse class="st0" cx="341.6" cy="341.6" rx="341.6" ry="341.6"/>
	<path class="st1" d="M666.2,341.6c0,179.2-145.3,324.5-324.5,324.5S17.1,520.8,17.1,341.6c0-179.2,145.3-324.5,324.5-324.5
		S666.2,162.4,666.2,341.6z"/>
	<circle class="st0" cx="341.6" cy="341.6" r="232"/>
	<circle cx="341.6" cy="341.6" r="215.4"/>
	<g>
		<path class="st0" d="M331.9,248.7c-3.5,5-13.1,20.8-19.4,29.3c3.4,13.4,13.8,3.8,28.4,3.2c13.8-0.6,19.9,10.8,28.7-3.7
			c-5.7-9.5-15.8-24.9-19.2-29.3c-2.7,1.9-5.9,3-9.4,3.1C337.6,251.2,334.5,250.3,331.9,248.7"/>
		<path class="st0" d="M339.5,217.9L339.5,217.9c0,0-0.9-25.2-0.9-37.9c-10.8-8.7-14.5,6.1-25.8,15.3c-10.7,8.7-23.6,4.2-21.9,21
			c10.6,4.3,29.9,9.9,34.6,11.3C328,222.2,333.2,218.4,339.5,217.9"/>
		<path class="st0" d="M324.6,230.3c-3.7-1.2-23.9-7.4-35.5-9.7c-10.6,13.1,2.7,16.4,6.8,29.5c4.4,13.8-0.6,28.2,13.2,26.9
			c6-9.1,17.5-25.5,20.7-30c-3.5-3-5.7-7.4-5.8-12.4C324,233.2,324.2,231.7,324.6,230.3"/>
		<path class="st0" d="M341.9,217.9c6.2,0.4,11.5,4.3,13.9,9.6c4.7-1.3,24-6.9,34.6-11.3c1.7-16.8-11.2-12.3-21.9-21
			c-11.2-9.2-15-23.9-25.8-15.3C342.8,192.7,341.9,217.9,341.9,217.9L341.9,217.9"/>
		<path class="st0" d="M356.8,230.3c0.4,1.4,0.6,2.9,0.6,4.4c-0.1,5-2,9.1-5.5,12.1c3.1,4.5,14.4,19.7,20.4,28.8
			c13.8,1.4,8.8-11.6,13.2-25.4c4.1-13.2,17.4-16.4,6.8-29.5C380.7,222.9,360.5,229.1,356.8,230.3"/>
		<path class="st0" d="M282.6,220.7c-0.2,0.1-2.5,7.1-1.1,14.2c0.8,4,7.8,6.8,10.5,14c4,11-1.6,31.3,13.3,30.8
			C276.4,299.9,252.2,229.2,282.6,220.7"/>
		<path class="st0" d="M397.2,219.3c31.2,4.6,10,61-3,63.9c-5.1,1.7-11.7-0.1-15.6-1.8c12.4-4.1,7.6-14.9,11.2-31.1
			c2.1-9.3,11.1-11.5,11.3-19.4C401.6,225.2,397.5,224.3,397.2,219.3"/>
		<path class="st0" d="M309.2,283.5c6.9,13.2,16.2,2.9,34.8,3.4c12.5,0.4,24.3,6.6,29.6-2.9C382.7,314.6,302.5,319.6,309.2,283.5"/>
		<path class="st0" d="M336.9,175.3c-13.5-6.3-14.6,7.5-29.8,18.3c-10.2,7.2-23.4,9.4-21.8,20.2C259.5,195,320.4,142.5,336.9,175.3"
			/>
		<path class="st0" d="M344.2,175.3c13.5-6.3,14.6,7.5,29.8,18.3c10.2,7.2,23.4,9.4,21.8,20.2C421.7,195,360.8,142.5,344.2,175.3"/>
		<path class="st0" d="M347.7,162.8c0,0-7.2,5.1-7,10.7c-0.3-5.9-7.3-10.6-7.3-10.6s7.3-5.1,7-10.7
			C340.9,159.8,347.7,162.8,347.7,162.8"/>
		<path class="st0" d="M411.5,219.9c0,0-7.4-4.5-12.5-4.1c6.3-1.8,9.2-9.4,9.2-9.4s4.7,4.9,12.6,4.1
			C415.9,211.6,411.5,219.9,411.5,219.9"/>
		<path class="st0" d="M378.6,298.2c0,0,2.2-7.6-0.6-13.3c3.6,4.7,12.7,4,12.7,4s-3,8.7,0.6,13.3
			C387.6,297.7,378.6,298.2,378.6,298.2"/>
		<path class="st0" d="M293.1,287.5c0,0,7.6,2.7,12.7-3.3c-3.3,5.4-0.5,13.1-0.5,13.1s-7.8-1-12.7,3.3
			C296.5,294.2,293.1,287.5,293.1,287.5"/>
		<path class="st0" d="M273.6,207.5c-0.1,5.4,7.5,9.5,7.5,9.5s-5.9-1.4-11.1,4.9c-1.5-6.6-7.6-9.5-7.6-9.5S271.4,212.3,273.6,207.5"
			/>
		<path class="st0" d="M355,234.4c0.1,7.9-6.2,14.3-14.1,14.4c-7.9,0.1-14.4-6.2-14.5-14.1c-0.1-7.8,6.2-14.3,14.1-14.4
			C348.4,220.2,354.9,226.5,355,234.4"/>
		<path d="M340.7,242.7c-0.8,1.1-2,1.8-3.4,1.8c-3.2,0-6.4-3.1-6.5-6.4c0-1.4,0.6-2.6,1.7-3.4c-1.1-0.8-1.8-2-1.8-3.3
			c0-3.2,3.1-6.4,6.4-6.5c1.4,0,2.6,0.6,3.4,1.7c0.8-1.1,2-1.8,3.4-1.8c3.2,0,6.4,3.1,6.5,6.4c0,1.4-0.6,2.6-1.7,3.4
			c1.1,0.8,1.8,2,1.8,3.4c0,3.2-3.1,6.4-6.4,6.5h0C342.8,244.5,341.5,243.8,340.7,242.7"/>
		<path class="st0" d="M337.2,227.7c-1.7,0.1-3.6,2-3.6,3.7c0,0.5,0.3,0.8,0.6,1l3.3,2.2l-3.2,2.4c-0.3,0.2-0.6,0.6-0.6,1.1
			c0.1,1.7,2,3.6,3.7,3.6c0.5,0,0.8-0.3,1-0.6l2.3-3.3l2.4,3.2c0.3,0.4,0.6,0.6,1,0.6c1.7-0.1,3.6-2,3.6-3.7c0-0.4-0.2-0.8-0.6-1
			l-3.3-2.3l3.2-2.3c0.4-0.3,0.6-0.6,0.6-1c-0.1-1.7-2-3.6-3.7-3.6c-0.4,0-0.7,0.2-1,0.6l-2.3,3.2l-2.3-3.2
			C338.1,228,337.7,227.7,337.2,227.7L337.2,227.7z"/>
		<path d="M345.8,230.7c-0.3-0.1-0.7-0.2-1.1-0.2c0-1-0.6-1.7-0.9-2.1c-0.9-0.8-2.1-1.1-3.2-1.1c-1.2,0-2.4,0.4-3.2,1.2
			c-0.4,0.3-0.8,1.1-0.9,2.1c-0.4,0-0.8,0.1-1.1,0.2c-1.4,0.6-2.1,2.2-2.1,3.9c0,1.7,0.8,3.3,2.2,3.9c0.3,0.1,0.7,0.2,1.1,0.2
			c0,1,0.6,1.7,0.9,2.1c0.9,0.8,2.1,1.1,3.2,1.1c1.2,0,2.4-0.4,3.2-1.2c0.3-0.4,0.9-1.1,0.9-2.1c0.4,0,0.8-0.1,1.1-0.2
			c1.4-0.6,2.1-2.2,2.1-3.9C348,232.8,347.2,231.3,345.8,230.7"/>
		<path class="st0" d="M344.8,235.9l-0.1,0c-0.2,0-0.7-0.2-1.2-0.6c0.1-0.3,0.1-0.5,0.1-0.8c0-0.3-0.1-0.5-0.1-0.7
			c0.5-0.4,1-0.6,1.2-0.6l0.1,0c0.1,0,0.5,0.5,0.5,1.3C345.3,235.4,344.9,235.9,344.8,235.9"/>
		<path class="st0" d="M341.9,238.9c-0.1,0.2-0.7,0.4-1.2,0.4c-0.6,0-1.1-0.2-1.2-0.4l-0.1-0.2c-0.1-0.2,0.3-0.8,0.6-1.3
			c0.2,0.1,0.5,0.1,0.8,0.1c0.2,0,0.4,0,0.7-0.1c0.3,0.5,0.7,1,0.6,1.2L341.9,238.9z"/>
		<path class="st0" d="M336.6,236L336.6,236c-0.2,0-0.6-0.5-0.6-1.3c0-0.8,0.4-1.3,0.4-1.3l0.1,0l0.1,0c0.2,0,0.7,0.2,1.2,0.6
			c-0.1,0.2-0.1,0.4-0.1,0.7c0,0.3,0.1,0.5,0.1,0.7C337.3,235.9,336.8,236,336.6,236"/>
		<path class="st0" d="M339.3,230.4c0.2-0.2,0.7-0.4,1.3-0.4c0.6,0,1.1,0.2,1.3,0.4l0.1,0.2c0,0.2-0.2,0.7-0.6,1.2
			c-0.2,0-0.5-0.1-0.7-0.1c-0.3,0-0.5,0.1-0.8,0.1c-0.4-0.4-0.6-0.9-0.6-1.2L339.3,230.4z"/>
		<circle class="st0" cx="340.6" cy="234.6" r="0.9"/>
	</g>
	<g>
		<path class="st0" d="M293.4,490.5c2.8,5.2,2.4,10.8-2.5,12.8c-4.9,2.1-13-0.2-16.4-5.4c-13.8-20.9-6.1-45.8-17.9-66.7
			c-2.8-5.2-2.4-10.8,2.6-12.8c4.9-2,13,0.2,16.4,5.4C289.3,444.7,281.7,469.6,293.4,490.5"/>
		<path class="st0" d="M426.2,431.2c2.8-5.2,2.3-10.8-2.6-12.9c-4.9-2-13,0.2-16.4,5.4c-13.8,20.9-6.1,45.8-17.8,66.7
			c-2.8,5.2-2.4,10.8,2.6,12.8c4.9,2.1,13-0.2,16.4-5.4C422.1,477,414.5,452.1,426.2,431.2"/>
		<path class="st2" d="M214.3,458.3c2.8,0.9,4.4,3.9,3.6,6.7l-4.5,15c-0.8,2.8-3.8,4.4-6.7,3.6c-2.8-0.9-4.4-3.8-3.6-6.7l4.5-15
			C208.5,459,211.5,457.4,214.3,458.3"/>
		<path class="st2" d="M228.6,457.8c2.9,0.9,4.5,3.8,3.6,6.7l-4.5,15c-0.9,2.8-3.8,4.5-6.7,3.6c-2.8-0.9-4.5-3.8-3.6-6.7l4.5-15
			C222.8,458.6,225.8,457,228.6,457.8"/>
		<path class="st2" d="M243.6,456.3c2.8,0.9,4.4,3.8,3.6,6.7l-4.5,15c-0.9,2.8-3.9,4.5-6.7,3.6c-2.8-0.8-4.4-3.8-3.6-6.7l4.5-15
			C237.8,457,240.8,455.4,243.6,456.3"/>
		<path class="st2" d="M258.1,455.1c2.8,0.9,4.4,3.9,3.6,6.7l-4.5,15c-0.9,2.8-3.8,4.4-6.7,3.6c-2.8-0.9-4.4-3.9-3.6-6.7l4.5-15
			C252.3,455.9,255.3,454.3,258.1,455.1"/>
		<path class="st2" d="M468.9,458.3c-2.8,0.9-4.4,3.9-3.6,6.7l4.5,15c0.8,2.8,3.9,4.4,6.7,3.6c2.8-0.9,4.5-3.9,3.6-6.7l-4.5-15
			C474.7,459,471.7,457.4,468.9,458.3"/>
		<path class="st2" d="M454.5,457.8c-2.8,0.9-4.4,3.8-3.6,6.7l4.5,15c0.8,2.9,3.9,4.5,6.7,3.6c2.8-0.9,4.4-3.9,3.6-6.7l-4.5-15
			C460.4,458.6,457.4,457,454.5,457.8"/>
		<path class="st2" d="M439.6,456.3c-2.8,0.8-4.5,3.8-3.6,6.7l4.5,15c0.9,2.8,3.8,4.5,6.7,3.6c2.8-0.8,4.4-3.8,3.6-6.7l-4.5-15
			C445.4,457,442.4,455.4,439.6,456.3"/>
		<path class="st2" d="M425.1,455.1c-2.8,0.9-4.5,3.9-3.6,6.7l4.5,15c0.8,2.8,3.8,4.4,6.7,3.6c2.8-0.8,4.4-3.8,3.6-6.7l-4.5-15
			C430.9,455.9,427.9,454.3,425.1,455.1"/>
		<path class="st0" d="M435,267.6c-8.4,72.2-45.7,114.4-90,150.7c7.3,5,14.7,9.6,22.2,13.9c68-38.7,122.8-90.5,127-192.9
			C473.9,248.2,455,258.5,435,267.6z"/>
		<path class="st0" d="M287.3,450.7c1.3,4.8,1,9.8,2.3,12.9c15.7-6.1,34.5-10.7,48.8-18.3c-7.6-3.2-15.3-6.7-22.9-10.5
			c-8,6.1-17.6,11-28.4,14.3C287.2,449.6,287.2,450.2,287.3,450.7z"/>
		<path class="st0" d="M394.5,458.5c0.3-2.8,0.6-5.6,1-8.4c-74.6-35.6-134.1-85.4-147.2-182.5c-20-9.2-38.9-19.4-59.2-28.3
			c7.3,134.5,98.4,191.5,205.1,222.4C394.2,460.6,394.4,459.6,394.5,458.5z"/>
	</g>
	<g>
		<path class="st0" d="M72,326.2c6.6,0.6,9.7-4.3,10.2-10.1c0.4-3.8-0.2-9.8-5.3-10.3c-5.4-0.5-7,6.9-9.6,14
			c-2.7,7.2-6.2,14.4-15.6,13.5c-10.2-1-14.1-11-13.3-20c1-10.4,6.4-19.5,17.9-18.4l-1,10.6c-6-0.2-8,3.9-8.5,9.1
			c-0.3,3.5,0.8,7.7,4.9,8.1c3.8,0.4,4.5-2,8.9-14.1c1.2-3.5,4.6-14.5,15.9-13.4c9.1,0.9,15.3,8.7,14,22.2c-1,11-7.5,20.8-19.7,19.5
			L72,326.2z"/>
		<path class="st0" d="M44.3,278l3-10.6l18.4,5.3l5.6-19.4L52.9,248l3-10.6l48,13.8l-3,10.6l-20.7-5.9l-5.6,19.4l20.7,5.9l-3,10.6
			L44.3,278z"/>
		<path class="st0" d="M62.4,222l16.7-33.4l8.3,4.1l-11.8,23.6l9.6,4.8L96,199.4l7.6,3.8l-10.8,21.7l11,5.5l12.1-24.1l8.3,4.1
			l-17,33.9L62.4,222z"/>
		<path class="st0" d="M88.1,174.5l20.9-28.3l7.4,5.5L102,171.1l9.3,6.9l12.4-16.8l6.9,5.1l-12.4,16.8l16.6,12.3l-6.5,8.8
			L88.1,174.5z"/>
		<path class="st0" d="M116.2,138.2l24.9-24.8l6.5,6.5L130.5,137l8.2,8.2l14.8-14.8l6,6l-14.8,14.8l14.6,14.6l-7.8,7.8L116.2,138.2z
			"/>
		<path class="st0" d="M149.4,107.1l8.6-6.8l31,39.2l-8.6,6.8L149.4,107.1z"/>
		<path class="st0" d="M169.7,91.2l32-19.3l4.8,7.9l-22.6,13.7l5.5,9.2L210.1,90l4.4,7.3l-20.7,12.5l6.3,10.5l23.1-13.9l4.8,7.9
			L195.5,134L169.7,91.2z"/>
		<path class="st0" d="M217.1,64.6l10.2-4l14.7,38l22.7-8.8l3.3,8.6l-33,12.8L217.1,64.6z"/>
		<path class="st0" d="M266,47.1l21.2-3.9C300,40.9,311,47.2,314,63.5c2.6,14.3-2.7,26.2-17.8,28.9L275,96.3L266,47.1z M284.2,85.2
			l9.6-1.8c6.3-1.1,11.5-6.1,9.6-17c-1.8-9.9-6.4-15.6-17.2-13.7l-7.7,1.4L284.2,85.2z"/>
		<path class="st0" d="M393.5,73.6C392,87,383.4,92.6,370.1,91.1c-13.4-1.5-20.4-8.8-18.9-22.3l3.5-30.9l10.9,1.2L362.1,70
			c-0.6,5.4,0.2,10.9,9,11.9c7.8,0.9,10.7-2.3,11.5-9.6l3.5-30.9l10.9,1.2L393.5,73.6z"/>
		<path class="st0" d="M411.7,45.8l10.4,3.2l9.9,38.2l0.1,0l10-32l9.8,3.1l-14.9,47.7l-10.5-3.3l-9.9-38.1l-0.1,0l-9.9,31.9
			l-9.8-3.1L411.7,45.8z"/>
		<path class="st0" d="M465.9,64.9l9.9,4.7l-21.3,45.2l-9.9-4.7L465.9,64.9z"/>
		<path class="st0" d="M492.1,88.9L479.4,81l4.9-7.8L519,94.8l-4.9,7.8l-12.7-7.9l-21.5,34.6l-9.3-5.8L492.1,88.9z"/>
		<path class="st0" d="M526.7,100.7l28.2,24.5l-6.1,7l-19.9-17.3l-7,8.1l18.3,15.9l-5.6,6.5l-18.3-15.9l-8,9.3l20.4,17.6l-6.1,7
			L494,138.5L526.7,100.7z"/>
		<path class="st0" d="M567.4,138l13.3,17c8,10.2,7.6,22.9-5.5,33.1c-11.4,8.9-24.5,9.8-33.9-2.3l-13.3-17L567.4,138z M542.1,171.8
			l6,7.7c3.9,5,10.8,7.4,19.5,0.6c7.9-6.2,10.8-12.9,4.1-21.5l-4.8-6.2L542.1,171.8z"/>
		<path class="st0" d="M616.3,211.9l13.3,32.5l-8.5,3.5l-9.2-22.3l-10.7,4.4l7.9,19.4l-7.9,3.2l-7.9-19.4l-19.1,7.8l-4.2-10.2
			L616.3,211.9z"/>
		<path class="st0" d="M592.8,259.7l3.2,10.5l-10.3,3.1l-3.2-10.5L592.8,259.7z"/>
		<path class="st0" d="M626.2,306.5c4.8-1.5,7.7-6.8,6.8-12.2c-1.6-9.7-10.5-12-19.1-10.6c-8.2,1.4-15.9,6.4-14.3,16.1
			c1.1,6.6,6.3,9.6,12.9,9.4l1.7,10.5c-12.5,0.9-21.8-6.3-23.8-18.3c-2.5-15.3,7.4-26.1,21.6-28.5c14.6-2.4,27.5,4.7,30.1,19.9
			c1.8,10.8-3,21-14.2,24.2L626.2,306.5z"/>
		<path class="st0" d="M605.4,327.5l0.3,11l-10.8,0.3l-0.4-11L605.4,327.5z"/>
	</g>
	<g>
		<path class="st0" d="M285.6,639.5l-9.7-2.1l6.7-31.1l-12-2.6l1.6-7.3c6.7,1.6,13.5,0.6,16.1-6.5l7.7,1.7L285.6,639.5z"/>
		<path class="st0" d="M319,593.6c12.1,1.1,15.6,9.8,15.2,14.6c-0.4,4.8-3.3,8.5-8,9.8l0-0.1l0,0.1l0,0.1c5.7,1.8,8.6,6.6,8.1,12.7
			c-0.9,10.3-10.6,14.5-19.6,13.7c-9.4-0.8-18.1-6.4-17.2-16.9c0.6-6.2,4.4-10.3,10.3-11.2l0-0.1c-4.6-1.7-6.7-5.9-6.3-10.7
			C302.2,596.7,311.1,592.9,319,593.6z M315.3,636.9c4.7,0.4,8.7-2.6,9.1-7.5c0.4-4.7-3.1-8.1-7.7-8.6c-4.8-0.4-8.9,2-9.3,7
			C306.9,632.9,310.5,636.5,315.3,636.9z M317.2,614.2c4,0.4,7.5-1.6,7.9-5.8c0.2-2.5-0.6-6.9-6.7-7.4c-4-0.4-7.7,1.8-8.1,6.1
			C309.9,611.4,313.2,613.9,317.2,614.2z"/>
		<path class="st0" d="M357.3,594.1c12.2-0.7,16.9,7.4,17.2,12.1c0.3,4.8-2,8.9-6.5,10.8l0-0.1l0,0.1l0,0.1c5.9,1,9.5,5.2,9.9,11.4
			c0.6,10.3-8.3,15.9-17.4,16.5c-9.4,0.6-18.9-3.6-19.5-14.2c-0.4-6.2,2.8-10.8,8.5-12.6l0-0.1c-4.8-1-7.5-4.8-7.8-9.6
			C341.1,599.7,349.4,594.6,357.3,594.1z M358.6,614.8c4.1-0.2,7.2-2.7,6.9-6.9c-0.2-2.5-1.6-6.7-7.8-6.3c-4,0.2-7.3,2.9-7.1,7.2
			C351,613.1,354.6,615,358.6,614.8z M360.1,637.5c4.8-0.3,8.2-3.9,7.9-8.8c-0.3-4.7-4.3-7.6-8.9-7.3c-4.8,0.3-8.5,3.3-8.2,8.3
			C351.2,634.7,355.3,637.8,360.1,637.5z"/>
		<path class="st0" d="M395.2,627.1c1.3,3.1,4.4,5.3,7.7,4.6c7.1-1.5,6.9-11.2,6-16.5l-0.2-0.1c-1.9,4.3-5,6.7-9.7,7.7
			c-4.1,0.9-8.7-0.1-12.1-2.6c-3.2-2.4-5.2-6.1-6-9.9c-2.1-9.8,3-19,13-21.1c14.5-3.1,21.1,8.7,23.7,20.8
			c2.5,11.7,0.2,26.2-13.5,29.1c-8.3,1.8-15.5-1.8-18.4-9.9L395.2,627.1z M405.7,604.3c-1-4.4-4.8-8.3-9.6-7.2
			c-4.7,1-6.4,6-5.4,10.3c1,4.5,4.3,8.5,9.3,7.5C405,613.8,406.7,609.1,405.7,604.3z"/>
	</g>
</g>
</svg>
