<svg version="1.1" id="Layer_1" xmlns="http://www.w3.org/2000/svg" x="0" y="0" viewBox="0 0 683.3 683.3" style="enable-background:new 0 0 683.3 683.3" xml:space="preserve"><style>.st0{fill:#fff}.st2{fill:#fff200}</style><circle class="st0" cx="341.6" cy="341.6" r="341.6"/><path d="M666.2 341.6c0 179.2-145.3 324.5-324.5 324.5S17.1 520.8 17.1 341.6 162.4 17.1 341.6 17.1s324.6 145.3 324.6 324.5z" style="fill:#ed1c24"/><circle class="st0" cx="341.6" cy="341.6" r="232"/><circle cx="341.6" cy="341.6" r="215.4"/><path class="st0" d="M331.9 248.7c-3.5 5-13.1 20.8-19.4 29.3 3.4 13.4 13.8 3.8 28.4 3.2 13.8-.6 19.9 10.8 28.7-3.7-5.7-9.5-15.8-24.9-19.2-29.3-2.7 1.9-5.9 3-9.4 3.1-3.4-.1-6.5-1-9.1-2.6M339.5 217.9s-.9-25.2-.9-37.9c-10.8-8.7-14.5 6.1-25.8 15.3-10.7 8.7-23.6 4.2-21.9 21 10.6 4.3 29.9 9.9 34.6 11.3 2.5-5.4 7.7-9.2 14-9.7M324.6 230.3c-3.7-1.2-23.9-7.4-35.5-9.7-10.6 13.1 2.7 16.4 6.8 29.5 4.4 13.8-.6 28.2 13.2 26.9 6-9.1 17.5-25.5 20.7-30-3.5-3-5.7-7.4-5.8-12.4 0-1.4.2-2.9.6-4.3M341.9 217.9c6.2.4 11.5 4.3 13.9 9.6 4.7-1.3 24-6.9 34.6-11.3 1.7-16.8-11.2-12.3-21.9-21-11.2-9.2-15-23.9-25.8-15.3.1 12.8-.8 38-.8 38M356.8 230.3c.4 1.4.6 2.9.6 4.4-.1 5-2 9.1-5.5 12.1 3.1 4.5 14.4 19.7 20.4 28.8 13.8 1.4 8.8-11.6 13.2-25.4 4.1-13.2 17.4-16.4 6.8-29.5-11.6 2.2-31.8 8.4-35.5 9.6"/><path class="st0" d="M282.6 220.7c-.2.1-2.5 7.1-1.1 14.2.8 4 7.8 6.8 10.5 14 4 11-1.6 31.3 13.3 30.8-28.9 20.2-53.1-50.5-22.7-59M397.2 219.3c31.2 4.6 10 61-3 63.9-5.1 1.7-11.7-.1-15.6-1.8 12.4-4.1 7.6-14.9 11.2-31.1 2.1-9.3 11.1-11.5 11.3-19.4.5-5.7-3.6-6.6-3.9-11.6M309.2 283.5c6.9 13.2 16.2 2.9 34.8 3.4 12.5.4 24.3 6.6 29.6-2.9 9.1 30.6-71.1 35.6-64.4-.5M336.9 175.3c-13.5-6.3-14.6 7.5-29.8 18.3-10.2 7.2-23.4 9.4-21.8 20.2-25.8-18.8 35.1-71.3 51.6-38.5M344.2 175.3c13.5-6.3 14.6 7.5 29.8 18.3 10.2 7.2 23.4 9.4 21.8 20.2 25.9-18.8-35-71.3-51.6-38.5M347.7 162.8s-7.2 5.1-7 10.7c-.3-5.9-7.3-10.6-7.3-10.6s7.3-5.1 7-10.7c.5 7.6 7.3 10.6 7.3 10.6M411.5 219.9s-7.4-4.5-12.5-4.1c6.3-1.8 9.2-9.4 9.2-9.4s4.7 4.9 12.6 4.1c-4.9 1.1-9.3 9.4-9.3 9.4M378.6 298.2s2.2-7.6-.6-13.3c3.6 4.7 12.7 4 12.7 4s-3 8.7.6 13.3c-3.7-4.5-12.7-4-12.7-4"/><path class="st0" d="M293.1 287.5s7.6 2.7 12.7-3.3c-3.3 5.4-.5 13.1-.5 13.1s-7.8-1-12.7 3.3c3.9-6.4.5-13.1.5-13.1M273.6 207.5c-.1 5.4 7.5 9.5 7.5 9.5s-5.9-1.4-11.1 4.9c-1.5-6.6-7.6-9.5-7.6-9.5s9-.1 11.2-4.9M355 234.4c.1 7.9-6.2 14.3-14.1 14.4-7.9.1-14.4-6.2-14.5-14.1-.1-7.8 6.2-14.3 14.1-14.4 7.9-.1 14.4 6.2 14.5 14.1"/><path d="M340.7 242.7c-.8 1.1-2 1.8-3.4 1.8-3.2 0-6.4-3.1-6.5-6.4 0-1.4.6-2.6 1.7-3.4-1.1-.8-1.8-2-1.8-3.3 0-3.2 3.1-6.4 6.4-6.5 1.4 0 2.6.6 3.4 1.7.8-1.1 2-1.8 3.4-1.8 3.2 0 6.4 3.1 6.5 6.4 0 1.4-.6 2.6-1.7 3.4 1.1.8 1.8 2 1.8 3.4 0 3.2-3.1 6.4-6.4 6.5-1.3 0-2.6-.7-3.4-1.8"/><path class="st0" d="M337.2 227.7c-1.7.1-3.6 2-3.6 3.7 0 .5.3.8.6 1l3.3 2.2-3.2 2.4c-.3.2-.6.6-.6 1.1.1 1.7 2 3.6 3.7 3.6.5 0 .8-.3 1-.6l2.3-3.3 2.4 3.2c.3.4.6.6 1 .6 1.7-.1 3.6-2 3.6-3.7 0-.4-.2-.8-.6-1l-3.3-2.3 3.2-2.3c.4-.3.6-.6.6-1-.1-1.7-2-3.6-3.7-3.6-.4 0-.7.2-1 .6l-2.3 3.2-2.3-3.2c-.2-.3-.6-.6-1.1-.6z"/><path d="M345.8 230.7c-.3-.1-.7-.2-1.1-.2 0-1-.6-1.7-.9-2.1-.9-.8-2.1-1.1-3.2-1.1-1.2 0-2.4.4-3.2 1.2-.4.3-.8 1.1-.9 2.1-.4 0-.8.1-1.1.2-1.4.6-2.1 2.2-2.1 3.9 0 1.7.8 3.3 2.2 3.9.3.1.7.2 1.1.2 0 1 .6 1.7.9 2.1.9.8 2.1 1.1 3.2 1.1 1.2 0 2.4-.4 3.2-1.2.3-.4.9-1.1.9-2.1.4 0 .8-.1 1.1-.2 1.4-.6 2.1-2.2 2.1-3.9 0-1.8-.8-3.3-2.2-3.9"/><path class="st0" d="M344.8 235.9h-.1c-.2 0-.7-.2-1.2-.6.1-.3.1-.5.1-.8 0-.3-.1-.5-.1-.7.5-.4 1-.6 1.2-.6h.1c.1 0 .5.5.5 1.3 0 .9-.4 1.4-.5 1.4M341.9 238.9c-.1.2-.7.4-1.2.4-.6 0-1.1-.2-1.2-.4l-.1-.2c-.1-.2.3-.8.6-1.3.2.1.5.1.8.1.2 0 .4 0 .7-.1.3.5.7 1 .6 1.2l-.2.3zM336.6 236c-.2 0-.6-.5-.6-1.3s.4-1.3.4-1.3h.2c.2 0 .7.2 1.2.6-.1.2-.1.4-.1.7 0 .3.1.5.1.7-.5.5-1 .6-1.2.6M339.3 230.4c.2-.2.7-.4 1.3-.4.6 0 1.1.2 1.3.4l.1.2c0 .2-.2.7-.6 1.2-.2 0-.5-.1-.7-.1-.3 0-.5.1-.8.1-.4-.4-.6-.9-.6-1.2v-.2z"/><circle class="st0" cx="340.6" cy="234.6" r=".9"/><path class="st0" d="M293.4 490.5c2.8 5.2 2.4 10.8-2.5 12.8-4.9 2.1-13-.2-16.4-5.4-13.8-20.9-6.1-45.8-17.9-66.7-2.8-5.2-2.4-10.8 2.6-12.8 4.9-2 13 .2 16.4 5.4 13.7 20.9 6.1 45.8 17.8 66.7M426.2 431.2c2.8-5.2 2.3-10.8-2.6-12.9-4.9-2-13 .2-16.4 5.4-13.8 20.9-6.1 45.8-17.8 66.7-2.8 5.2-2.4 10.8 2.6 12.8 4.9 2.1 13-.2 16.4-5.4 13.7-20.8 6.1-45.7 17.8-66.6"/><path class="st2" d="M214.3 458.3c2.8.9 4.4 3.9 3.6 6.7l-4.5 15c-.8 2.8-3.8 4.4-6.7 3.6-2.8-.9-4.4-3.8-3.6-6.7l4.5-15c.9-2.9 3.9-4.5 6.7-3.6M228.6 457.8c2.9.9 4.5 3.8 3.6 6.7l-4.5 15c-.9 2.8-3.8 4.5-6.7 3.6-2.8-.9-4.5-3.8-3.6-6.7l4.5-15c.9-2.8 3.9-4.4 6.7-3.6M243.6 456.3c2.8.9 4.4 3.8 3.6 6.7l-4.5 15c-.9 2.8-3.9 4.5-6.7 3.6-2.8-.8-4.4-3.8-3.6-6.7l4.5-15c.9-2.9 3.9-4.5 6.7-3.6M258.1 455.1c2.8.9 4.4 3.9 3.6 6.7l-4.5 15c-.9 2.8-3.8 4.4-6.7 3.6-2.8-.9-4.4-3.9-3.6-6.7l4.5-15c.9-2.8 3.9-4.4 6.7-3.6M468.9 458.3c-2.8.9-4.4 3.9-3.6 6.7l4.5 15c.8 2.8 3.9 4.4 6.7 3.6 2.8-.9 4.5-3.9 3.6-6.7l-4.5-15c-.9-2.9-3.9-4.5-6.7-3.6M454.5 457.8c-2.8.9-4.4 3.8-3.6 6.7l4.5 15c.8 2.9 3.9 4.5 6.7 3.6 2.8-.9 4.4-3.9 3.6-6.7l-4.5-15c-.8-2.8-3.8-4.4-6.7-3.6M439.6 456.3c-2.8.8-4.5 3.8-3.6 6.7l4.5 15c.9 2.8 3.8 4.5 6.7 3.6 2.8-.8 4.4-3.8 3.6-6.7l-4.5-15c-.9-2.9-3.9-4.5-6.7-3.6M425.1 455.1c-2.8.9-4.5 3.9-3.6 6.7l4.5 15c.8 2.8 3.8 4.4 6.7 3.6 2.8-.8 4.4-3.8 3.6-6.7l-4.5-15c-.9-2.8-3.9-4.4-6.7-3.6"/><path class="st0" d="M435 267.6c-8.4 72.2-45.7 114.4-90 150.7 7.3 5 14.7 9.6 22.2 13.9 68-38.7 122.8-90.5 127-192.9-20.3 8.9-39.2 19.2-59.2 28.3zM287.3 450.7c1.3 4.8 1 9.8 2.3 12.9 15.7-6.1 34.5-10.7 48.8-18.3-7.6-3.2-15.3-6.7-22.9-10.5-8 6.1-17.6 11-28.4 14.3.1.5.1 1.1.2 1.6z"/><path class="st0" d="M394.5 458.5c.3-2.8.6-5.6 1-8.4-74.6-35.6-134.1-85.4-147.2-182.5-20-9.2-38.9-19.4-59.2-28.3 7.3 134.5 98.4 191.5 205.1 222.4 0-1.1.2-2.1.3-3.2zM72 326.2c6.6.6 9.7-4.3 10.2-10.1.4-3.8-.2-9.8-5.3-10.3-5.4-.5-7 6.9-9.6 14-2.7 7.2-6.2 14.4-15.6 13.5-10.2-1-14.1-11-13.3-20 1-10.4 6.4-19.5 17.9-18.4l-1 10.6c-6-.2-8 3.9-8.5 9.1-.3 3.5.8 7.7 4.9 8.1 3.8.4 4.5-2 8.9-14.1 1.2-3.5 4.6-14.5 15.9-13.4 9.1.9 15.3 8.7 14 22.2-1 11-7.5 20.8-19.7 19.5l1.2-10.7zM44.3 278l3-10.6 18.4 5.3 5.6-19.4-18.4-5.3 3-10.6 48 13.8-3 10.6-20.7-5.9-5.6 19.4 20.7 5.9-3 10.6-48-13.8zM62.4 222l16.7-33.4 8.3 4.1-11.8 23.6 9.6 4.8L96 199.4l7.6 3.8-10.8 21.7 11 5.5 12.1-24.1 8.3 4.1-17 33.9L62.4 222zM88.1 174.5l20.9-28.3 7.4 5.5-14.4 19.4 9.3 6.9 12.4-16.8 6.9 5.1-12.4 16.8 16.6 12.3-6.5 8.8-40.2-29.7zM116.2 138.2l24.9-24.8 6.5 6.5-17.1 17.1 8.2 8.2 14.8-14.8 6 6-14.8 14.8 14.6 14.6-7.8 7.8-35.3-35.4zM149.4 107.1l8.6-6.8 31 39.2-8.6 6.8-31-39.2zM169.7 91.2l32-19.3 4.8 7.9-22.6 13.7 5.5 9.2L210.1 90l4.4 7.3-20.7 12.5 6.3 10.5 23.1-13.9 4.8 7.9-32.5 19.7-25.8-42.8zM217.1 64.6l10.2-4 14.7 38 22.7-8.8 3.3 8.6-33 12.8-17.9-46.6zM266 47.1l21.2-3.9c12.8-2.3 23.8 4 26.8 20.3 2.6 14.3-2.7 26.2-17.8 28.9L275 96.3l-9-49.2zm18.2 38.1 9.6-1.8c6.3-1.1 11.5-6.1 9.6-17-1.8-9.9-6.4-15.6-17.2-13.7l-7.7 1.4 5.7 31.1zM393.5 73.6c-1.5 13.4-10.1 19-23.4 17.5-13.4-1.5-20.4-8.8-18.9-22.3l3.5-30.9 10.9 1.2-3.5 30.9c-.6 5.4.2 10.9 9 11.9 7.8.9 10.7-2.3 11.5-9.6l3.5-30.9 10.9 1.2-3.5 31zM411.7 45.8l10.4 3.2 9.9 38.2h.1l10-32 9.8 3.1L437 106l-10.5-3.3-9.9-38.1h-.1l-9.9 31.9-9.8-3.1 14.9-47.6zM465.9 64.9l9.9 4.7-21.3 45.2-9.9-4.7 21.3-45.2zM492.1 88.9 479.4 81l4.9-7.8L519 94.8l-4.9 7.8-12.7-7.9-21.5 34.6-9.3-5.8 21.5-34.6zM526.7 100.7l28.2 24.5-6.1 7-19.9-17.3-7 8.1 18.3 15.9-5.6 6.5-18.3-15.9-8 9.3 20.4 17.6-6.1 7-28.6-24.9 32.7-37.8zM567.4 138l13.3 17c8 10.2 7.6 22.9-5.5 33.1-11.4 8.9-24.5 9.8-33.9-2.3l-13.3-17 39.4-30.8zm-25.3 33.8 6 7.7c3.9 5 10.8 7.4 19.5.6 7.9-6.2 10.8-12.9 4.1-21.5l-4.8-6.2-24.8 19.4zM616.3 211.9l13.3 32.5-8.5 3.5-9.2-22.3-10.7 4.4 7.9 19.4-7.9 3.2-7.9-19.4-19.1 7.8-4.2-10.2 46.3-18.9zM592.8 259.7l3.2 10.5-10.3 3.1-3.2-10.5 10.3-3.1zM626.2 306.5c4.8-1.5 7.7-6.8 6.8-12.2-1.6-9.7-10.5-12-19.1-10.6-8.2 1.4-15.9 6.4-14.3 16.1 1.1 6.6 6.3 9.6 12.9 9.4l1.7 10.5c-12.5.9-21.8-6.3-23.8-18.3-2.5-15.3 7.4-26.1 21.6-28.5 14.6-2.4 27.5 4.7 30.1 19.9 1.8 10.8-3 21-14.2 24.2l-1.7-10.5zM605.4 327.5l.3 11-10.8.3-.4-11 10.9-.3zM285.6 639.5l-9.7-2.1 6.7-31.1-12-2.6 1.6-7.3c6.7 1.6 13.5.6 16.1-6.5l7.7 1.7-10.4 47.9zM319 593.6c12.1 1.1 15.6 9.8 15.2 14.6-.4 4.8-3.3 8.5-8 9.8v-.1.2c5.7 1.8 8.6 6.6 8.1 12.7-.9 10.3-10.6 14.5-19.6 13.7-9.4-.8-18.1-6.4-17.2-16.9.6-6.2 4.4-10.3 10.3-11.2v-.1c-4.6-1.7-6.7-5.9-6.3-10.7.7-8.9 9.6-12.7 17.5-12zm-3.7 43.3c4.7.4 8.7-2.6 9.1-7.5.4-4.7-3.1-8.1-7.7-8.6-4.8-.4-8.9 2-9.3 7-.5 5.1 3.1 8.7 7.9 9.1zm1.9-22.7c4 .4 7.5-1.6 7.9-5.8.2-2.5-.6-6.9-6.7-7.4-4-.4-7.7 1.8-8.1 6.1-.4 4.3 2.9 6.8 6.9 7.1zM357.3 594.1c12.2-.7 16.9 7.4 17.2 12.1.3 4.8-2 8.9-6.5 10.8v-.1.2c5.9 1 9.5 5.2 9.9 11.4.6 10.3-8.3 15.9-17.4 16.5-9.4.6-18.9-3.6-19.5-14.2-.4-6.2 2.8-10.8 8.5-12.6v-.1c-4.8-1-7.5-4.8-7.8-9.6-.6-8.8 7.7-13.9 15.6-14.4zm1.3 20.7c4.1-.2 7.2-2.7 6.9-6.9-.2-2.5-1.6-6.7-7.8-6.3-4 .2-7.3 2.9-7.1 7.2.4 4.3 4 6.2 8 6zm1.5 22.7c4.8-.3 8.2-3.9 7.9-8.8-.3-4.7-4.3-7.6-8.9-7.3-4.8.3-8.5 3.3-8.2 8.3.3 5 4.4 8.1 9.2 7.8zM395.2 627.1c1.3 3.1 4.4 5.3 7.7 4.6 7.1-1.5 6.9-11.2 6-16.5l-.2-.1c-1.9 4.3-5 6.7-9.7 7.7-4.1.9-8.7-.1-12.1-2.6-3.2-2.4-5.2-6.1-6-9.9-2.1-9.8 3-19 13-21.1 14.5-3.1 21.1 8.7 23.7 20.8 2.5 11.7.2 26.2-13.5 29.1-8.3 1.8-15.5-1.8-18.4-9.9l9.5-2.1zm10.5-22.8c-1-4.4-4.8-8.3-9.6-7.2-4.7 1-6.4 6-5.4 10.3 1 4.5 4.3 8.5 9.3 7.5 5-1.1 6.7-5.8 5.7-10.6z"/></svg>