<svg version="1.1" id="Southampton" xmlns="http://www.w3.org/2000/svg" x="0" y="0" viewBox="0 0 1881.1 2164.4" style="enable-background:new 0 0 1881.1 2164.4" xml:space="preserve"><style>.st0{stroke:#fff;stroke-width:6.2548}.st1{fill:#fff}.st2{fill:#d10a11}.st3{fill:#009ee2}.st4,.st6{fill:none;stroke:#000;stroke-width:15.6325}.st6{fill:#fff;stroke-width:3.8162}.st9{fill:#fcc200}.st10{fill:none;stroke:#000;stroke-width:12.4653}</style><g id="Strapline__x26__Saints_Logo"><path class="st0" d="M1623.5 1548.6c-161.9 192.4-404.4 314.8-675.7 314.8-268.5 0-508.7-119.8-670.7-309L85.3 1785.1C300.7 2016.3 608 2161.2 949 2161.2c343.1 0 651.8-146.5 867.2-380.2l-192.7-232.4z"/><path class="st0" d="M1471.7 665.1v1024.3c0 29.6-18.8 55.2-45 65L951 1938.9l-475.7-184.4c-26.2-9.8-45.1-35.4-45.1-65V665.2h1041.5z"/><path class="st1" d="M455 1455.9V824.6h991.7l.1 631.3z"/><path class="st2" d="M1446.8 1396.7c-8.7 13.9-30.1 23.8-55 23.8-25.1 0-46.7-9.8-55.2-23.9-8.8 14.1-30.2 23.9-55.2 23.9-25.1 0-46.3-9.8-55.2-23.8-8.8 13.9-30.1 23.8-55.1 23.8-25.1 0-46.3-9.8-55.1-23.9h-.3c-8.7 14.1-30 23.9-55 23.9s-46.3-9.8-54.9-23.8c-8.8 13.9-30.4 23.8-55.2 23.8-25.1 0-46.4-9.8-55.1-23.9h.2c-8.9 14.1-30.1 23.9-55.1 23.9-25.1 0-46.5-9.8-55.3-23.8-8.7 13.9-30.2 23.8-55.2 23.8-24.9 0-46.3-9.8-55-23.9h-.2c-8.6 14.1-30.1 23.9-54.9 23.9-25.2 0-46.5-9.8-55.3-23.8v.4c-8.8 14-30.1 23.4-54.8 23.4-25.3 0-46.6-9.8-55.2-23.9v-1.2l.3 279c0 28.3 17.8 52.4 42.9 61.8L951 1911.9l452.8-175.9c25.1-9.4 43-33.5 43-61.8v-278.8"/><path class="st3" d="M1446.8 1367.5c-8.7 13.9-30.1 23.8-55 23.8-25.1 0-46.7-10-55.2-23.8-8.8 13.8-30.2 23.8-55.2 23.8-25.1 0-46.3-9.9-55.2-23.8-8.8 13.9-30.1 23.8-55.1 23.8-25.1 0-46.3-10-55.1-23.8h-.3c-8.7 13.8-30 23.8-55 23.8s-46.3-9.9-54.9-23.8c-8.8 13.9-30.4 23.8-55.2 23.8-25.1 0-46.4-10-55.1-23.8h.2c-8.9 13.8-30.1 23.8-55.1 23.8-25.1 0-46.5-9.9-55.3-23.8-8.7 13.9-30.2 23.8-55.2 23.8-24.9 0-46.3-10-55-23.8h-.2c-8.6 13.8-30.1 23.8-54.9 23.8-25.2 0-46.5-9.9-55.3-23.8v.5c-8.8 14-30.1 23.3-54.8 23.3-25.3 0-46.6-10-55.2-23.8v-34.6c8.7 13.9 29.9 24 55.2 24 24.8 0 46.1-9.9 54.8-23.9 8.8 14 30.1 23.9 55.3 23.9 24.8 0 46.3-10.1 54.9-24h.2c8.7 13.9 30.1 24 55 24 25 0 46.5-9.9 55.2-23.9 8.7 14 30.2 23.9 55.3 23.9 25 0 46.2-10.1 55.1-24h-.2c8.7 13.9 30 24 55.1 24 24.8 0 46.4-9.9 55.2-23.9 8.7 14 29.9 23.9 54.9 23.9s46.3-10.1 55-24h.3c8.8 13.9 30.1 24 55.1 24s46.2-9.9 55.1-23.9c8.8 14 30 23.9 55.2 23.9 25 0 46.4-10.1 55.2-24 8.5 13.9 30 24 55.2 24 24.9 0 46.3-9.9 55-23.9v34.5zM1446.8 1305.3c-8.7 13.9-30.1 23.6-55 23.6-25.1 0-46.7-9.8-55.2-23.6-8.8 13.8-30.2 23.6-55.2 23.6-25.1 0-46.3-9.7-55.2-23.6-8.8 13.9-30.1 23.6-55.1 23.6-25.1 0-46.3-9.8-55.1-23.6h-.3c-8.7 13.8-30 23.6-55 23.6s-46.3-9.7-54.9-23.6c-8.8 13.9-30.4 23.6-55.2 23.6-25.1 0-46.4-9.8-55.1-23.6h.2c-8.9 13.8-30.1 23.6-55.1 23.6-25.1 0-46.5-9.7-55.3-23.6-8.7 13.9-30.2 23.6-55.2 23.6-24.9 0-46.3-9.8-55-23.6h-.2c-8.6 13.8-30.1 23.6-54.9 23.6-25.2 0-46.5-9.7-55.3-23.6v.3c-8.8 14-30.1 23.3-54.8 23.3-25.3 0-46.6-9.8-55.2-23.6v-34.6c8.7 13.9 29.9 23.9 55.2 23.9 24.8 0 46.1-9.7 54.8-23.8 8.8 14.1 30.1 23.8 55.3 23.8 24.8 0 46.3-10 54.9-23.9h.2c8.7 13.9 30.1 23.9 55 23.9 25 0 46.5-9.7 55.2-23.8 8.7 14.1 30.2 23.8 55.3 23.8 25 0 46.2-10 55.1-23.9h-.2c8.7 13.9 30 23.9 55.1 23.9 24.8 0 46.4-9.7 55.2-23.8 8.7 14.1 29.9 23.8 54.9 23.8s46.3-10 55-23.9h.3c8.8 13.9 30.1 23.9 55.1 23.9s46.2-9.7 55.1-23.8c8.8 14.1 30 23.8 55.2 23.8 25 0 46.4-10 55.2-23.9 8.5 13.9 30 23.9 55.2 23.9 24.9 0 46.3-9.7 55-23.8v34.5z"/><path d="M1023.6 1714.4s48.6 76.1 23.1 54.6c-18.7-16.1-44.2-53.1-62.7-83.6l-99.8 38.8s-57.3 69.7-44.6 38.9c9.1-22.2 37.4-58.4 60.7-85.7l-68.3-82.5s-84.1-32.8-50.7-30.3c21.8 1.7 67.2 18 100 31.3l57-90.6s5.3-90.2 13.3-57.7c5.5 22.3 3.8 70.4 1 106.1L1057 1579s87.4-22.9 58.8-5.4c-20 12.5-63.4 25.6-98.2 33.9l6 106.9z" style="stroke:#000;stroke-width:3.8162"/><path class="st6" d="M944.1 1694.3c.6 1.4 1.7 2.5 2.9 2.5s2.1-1.1 2.9-2.5c1.1-2.6 2.1-8.6 1.7-21.2 0 0 .6-42.6 32.4 3.1 89 128.5-37.8 129.2-37.8 129.2h1.2s-126.9-.8-37.7-129.2c31.8-45.7 32.2-3.1 32.2-3.1-.1 12.7.6 18.6 2.1 21.4v-.2zM878.9 1642.8c-1.1 1.1-1.7 2.3-1.2 3.3.3 1.2 1.5 2.1 3 2.1h-.1c3 .3 8.8-.3 20.8-4.6 0 0 40.7-12.5 7.2 31.6-94.8 124.4-134.4 4.3-134.4 4.3v.9s-38.2-120.9 111.4-75.7c53.4 15.9 12.8 29.8 12.8 29.8-12.3 3.5-17.4 6.1-19.5 8.3zM907.3 1564.5c-1.3-.7-2.7-.7-3.7 0-.9.7-1.3 2-.9 3.5v-.1c.6 3 3 8.5 11.1 18.4 0 0 24.4 34.8-28.2 16.5-147.4-51.5-45.5-126.5-45.5-126.5l-.7.4s102.8-73.8 106.4 82.6c1.2 55.7-24.4 21.4-24.4 21.4-7.1-10.5-11.4-14.7-14.1-16.2zM991 1567.7c.3-1.4 0-2.9-.9-3.6-.9-.5-2.4-.3-3.8.4-2.5 1.2-6.9 5.3-14.1 16 0 0-25.5 34.1-24.4-21.5 3.6-156.3 106.5-82.5 106.5-82.5l-.7-.5s102 75.1-45.7 126.6c-52.4 18.3-27.8-16.4-27.8-16.4 7.7-10.2 10.4-15.6 10.9-18.5zM1013.8 1648.2c1.4 0 2.8-.9 3.1-2.1.5-1-.2-2.3-1.4-3.3-2.1-2.2-7.4-5.1-19.6-8.5 0 0-40.4-13.8 12.8-29.8 149.9-45.1 111.5 75.7 111.5 75.7l.2-.9s-39.8 120.2-134.5-4.3c-33.8-44.1 6.9-31.6 6.9-31.6 12.1 4.5 18.1 5.1 21 4.8z"/><path d="M860 1504.2s-9.5 6.7-17.8 9.2c-8.3 2.5-11.8 8.7-12.9 10.2 0 0-4.7 10.9-7.7 6.4-3.2-4.3 3.2-12.5 3.2-12.5 1-1.6 4.7-7.7 12.8-10.4 8.3-2.4 17.8-8.9 17.8-8.9s9.3-7.3 14.2-14.2c5.1-7.1 11.9-8.6 13.9-8.9 0 0 9.6-3.5 13 .8 3.1 4.4-8.5 5.3-8.5 5.3-2 .7-8.9 2.2-13.9 9-4.8 7-14.1 14-14.1 14zM1033.5 1504.1s-9-7.1-13.9-14.1c-5-6.9-12-8.4-13.6-9.1 0 0-11.9-.9-8.7-5.2 3.2-4.3 13-.7 13-.7 1.9.3 8.8 1.8 13.7 8.9 5 6.9 14.2 14.3 14.2 14.3s9.8 6.4 17.8 8.9c8.1 2.6 11.7 8.6 12.6 10.1 0 0 6.5 8.4 3.4 12.8-3.2 4.5-7.7-6.5-7.7-6.5-1.2-1.7-4.7-7.7-13-10.2-8-2.7-17.8-9.2-17.8-9.2zM1087.4 1669.1s4.1-10.9 9.1-17.9c5.4-6.7 4.4-13.9 4.3-15.7 0 0-2.6-11.6 2.5-9.8 5 1.7 4.8 11.9 4.8 11.9 0 2 .8 9.1-4.3 16-5.3 6.8-9.3 17.8-9.3 17.8s-3 11.2-2.8 19.6c0 8.6-4.8 13.9-5.9 15.5 0 0-6.1 8.5-11 7-5.3-1.7 3.8-9.4 3.8-9.4 1-1.5 5.8-7 5.6-15.3 0-8.4 3.2-19.7 3.2-19.7zM947.1 1770.9s11.8.5 19.7 3.2c8.1 2.7 14.5-.2 16.4-.9 0 0 9.9-6.1 9.8-.6 0 5.1-9.8 8.3-9.8 8.3-1.9.6-8.3 3.6-16.4.8-8-2.7-19.7-3.3-19.7-3.3s-11.9.6-19.8 3.3c-8.1 2.9-14.4-.2-16.5-.8 0 0-9.9-3.2-9.9-8.3-.1-5.5 9.9.6 9.9.6 2 .7 8.4 3.5 16.5.9 7.9-2.8 19.8-3.2 19.8-3.2zM806.9 1669.1s3.3 11.3 3.2 19.9c0 8.6 4.6 13.8 5.8 15.3 0 0 8.9 7.7 3.9 9.4-5.1 1.5-11.2-7-11.2-7-1.2-1.6-5.8-7-5.8-15.5 0-8.4-3-19.6-3-19.6s-4-11-9.2-17.8c-5-6.9-4.3-14.1-4.3-16 0 0 0-10.2 5-11.9 4.9-1.8 2.3 9.8 2.3 9.8-.2 1.7-.8 9 4.5 15.7 5 6.9 8.8 17.7 8.8 17.7z"/><path d="M946.3 1594.6c-15.6 0-28.4 12.8-28.4 28.6 0 16.1 12.8 28.6 28.4 28.6 16 0 28.7-12.5 28.7-28.6.1-15.7-12.7-28.6-28.7-28.6z" style="fill:#fcc200;stroke:#ffcb00;stroke-width:1.5216"/><path d="m1000.4 1076.5 3.8 77.2 65.2-42.4 20.5 33.4-76.9 44.6v16s89.5 50.3-19.6 48.3v.7c-38.2 31.8-74.4.3-74.4.3-109.1 1.9-19.7-48.1-19.7-48.1v-16.2l-68-52.8 16.1-35 60.8 52.1 3.5-77 88.7-1.1z"/><path d="M1081.8 1142.6c63.2 72.4 109.7-3.8 109.7-3.8 79.9-19.4 32.4-76 32.4-76 83.2-54.6-14.6-97.4-14.6-97.4-.6-72.6-62.4-67.2-62.4-67.2-64.5-56.4-126.1 6.2-126.1 6.2-96.8-80.6-170.2 12.4-170.2 12.4S788.7 874 761 941.2c0 0-98.4-2.7-61.7 96.6 0 0-76.1 76.1 23.2 113.6 0 0 52.8 97.7 125.4 4.7 0 0 44.6 2.6 37.5-60.1 0 0 56.5 23.5 110-2.6 0 0 17.1 38.5 53.9 16.9 0 0-5.8 24.8 29.8 29.8l2.7 2.5z" style="fill:#13a438;stroke:#000;stroke-width:15.6325"/><path class="st9" d="m235.3 1765.7 4.7 4c-16.2 29.3-18.5 50.1-7.2 59.8 8.2 7.1 19 4.2 28.8-6.9 4.2-4.8 6.9-10.3 6.9-14.6 0-6.2-4.5-13-9.6-23.4-9.7-19.9-9.3-35.8 8-55.9 17.3-19.8 40-26.5 54.4-14 6.3 5.6 9.5 13.4 10.1 23.6l11.2-3.4 3.9 3.4-34.6 42-4.1-4c13.6-28.1 16.5-44.9 6.3-53.5-7.8-7.1-18-4.6-27 5.7-11.3 13-4.8 20.6 3.8 36.6 4.4 8.9 8 15.8 6.2 26.5-1.7 9.4-7.4 20.3-16.5 31-18.9 21.5-40.4 27.9-55.7 14.7-7.5-6.8-11-14.7-10.5-26.9l-13.7 4.6-3.9-3.5 38.5-45.8zM365.2 1780.1c15.8-7.5 28.9-7.1 40.6.8 11.8 8.3 16.8 20.2 15.1 38.4-1.4 15.9-8.8 34.2-21.4 52.3-12.6 18.1-24.8 29.7-40.4 37-16.7 7.7-30.9 7.8-42 0-11.4-7.9-16.1-20.2-14.6-38.8 1.5-17.7 8.1-33.3 20.8-51.4 12.6-18.3 27.2-31.4 41.9-38.3zm-41.9 119.2c12.3 8.4 30.6-5.6 56-41.9 25.4-36.7 32.2-58.4 19.9-67.2-12.1-8.3-30.3 5.5-55.8 42.2-25.4 36.4-32.5 58.3-20.1 66.9zM492.8 1851.2l-5.4-2.9c-4.8-2.5-6.8-.6-10.6 6.6l-35.3 66c-12.7 23.7-13.3 37.8.4 44.9 6.2 3.2 12.6 2.9 18.3 0 9.1-5 15.1-15.3 23.9-31.7l25.5-47.7c7.3-13.9 8.8-21.8-.5-26.6-.1-.1-.6-.3-.7-.4l5-9.5 30 16.1-5 9.3c-9.4-3.4-14.3 1.5-21.6 15l-26.3 49.1c-7.6 14.3-13.6 24.9-22.4 32.5-13.1 11-25.9 12.5-39.8 4.7-21.5-11.3-24.2-31.9-9-61l38.2-71.1c3.8-7.4 4.2-10.1-.5-12.6l-5.4-2.9 4.9-9.5 41.5 22.1-5.2 9.6zM608 1902.6c-4.2-1.5-6.3.3-9.3 7.6l-39.2 99.2c-3.2 7.5-3.2 10.3 1.7 12.3l5.9 2.4-4 10.1-43.5-17.2 4-10.2 5.8 2.3c4.9 2 6.5 0 9.7-7.7l39.5-99c2.8-7.5 2.8-10-1.2-11.7-9-3.8-22.5 8.8-35.5 35.4l-5.9-2.1 22.5-51.3 75.5 29.9-18.9 52.6-5.6-2c8.6-28.6 7.5-47.1-1.5-50.6zM673 2057c5 1.5 6.5-.7 8.6-8.7l12.6-46.8-31.5-8.5-12.4 46.7c-2.2 7.9-2 10.5 3.1 11.9l6.1 1.8-3 10.4-45.2-12.1 2.9-10.5 6 1.4c5.1 1.5 6.6-.6 8.7-8.6l27.4-101.5c2.3-8 2.1-10.9-3.1-12.4l-6-1.5 2.9-10.4 45.1 12.3-2.8 10.3-6-1.7c-5.1-1.5-6.6 1-8.9 8.9l-11.2 42.1 31.6 8.5 11.2-42.2c2.3-7.9 2.1-10.8-3.1-12.2l-5.9-1.6 2.7-10.3L748 1935l-2.7 10.3-6.2-1.7c-5-1.3-6.5 1.1-8.7 9l-27.3 101.5c-2.2 8-2 10.6 3.2 11.9l5.8 1.9-2.7 10.3-45.6-12.1 3.1-10.6 6.1 1.5zM792.7 2081.2l6.2.4c2.6.2 3.6-1.2 4.1-4.2.1-1.5.1-3.4 0-5.9l-2.2-23.7-31.2-4.5-4.5 10.4c-1.4 3.3-2.6 7.4-2.8 10.1-1.5 9.2 1.9 12.7 10.9 14.7l-1.5 10.5-34.7-5.1 1.6-10.5c7.8-.9 13-9.3 19.6-24.9l45-107 9.1 1.4 14.5 134.7c.7 6.4 2.3 8.9 6.8 9.7L832 2098l-41-6.1 1.7-10.7zm-17.8-50.2 24.9 3.8-4.9-51.2-20 47.4zM883.8 2064.5c-.6 19.1 1.8 26.1 13.4 26.7l-.3 10.9-35.5-1.1.1-11c11.1-.4 13.3-7.4 13.8-25.9l2.2-89.2c.3-7.8-.6-11-5.9-11.3l-6.5-.2.4-10.7 39.8 1 17.2 89.1 20.2-88.3 39.2 1-.4 10.8-6.2-.4c-5.1-.1-6.2 2.5-6.4 10.7l-2.5 105.2c-.3 8.3.6 10.9 5.8 10.9l6.3.1-.3 10.8-46-1.1.4-10.8h5.3c5.2.1 6.4-2.4 6.7-10.5l2.8-111.1-30.2 132h-6L886 1969.8l-2.2 94.7zM1051 2087.2l7.8-.7 1.1 10.7-48.6 4.9-1-10.9 6.7-.6c5.3-.6 5.8-3 5.1-11.3l-10.1-104.5c-.6-8.2-1.8-10.7-7.1-10.3l-6.6.7-1.2-10.7 53.9-5.2c22.5-2.2 35.3 11.2 37.9 38.6 2.9 29.2-9.2 43.8-36.7 46.5-3.7.5-7.7.6-12.4.9l4.2 42c.9 8.4 2.1 10.3 7 9.9zm-12-63.5c1.4.3 3.3.3 6 0 16.7-1.5 22.7-8.9 20.3-33.4-2.2-23.8-8.6-30.9-23-29.6-7.9.8-9.1 2.4-8.3 13.8l5 49.2zM1160.5 1941.1c-4.3.8-4.8 3.4-3.2 11.2l21.5 104.6c1.7 8 3.1 10.1 8.3 9.1l6-1.1 2.1 10.7-45.7 9.4-2.3-10.5 6.1-1.4c5.2-.9 5.6-3.8 4.1-11.8l-21.7-104.4c-1.6-7.7-3.1-10-7.4-9.1-9.6 2-13.9 19.9-10.3 49.4l-5.9 1.1-9.4-54.9 79.4-16.6 13.4 54.4-5.9 1.1c-8.5-28.4-19.4-43.4-29.1-41.2zM1218.4 1935.9c3.6-16.9 11.8-27.5 25.3-31.7 13.7-4.6 26.3-1.2 39.8 10.9 12 10.8 21.8 27.7 28.7 48.6 7 20.9 8.5 37.8 5.1 54.7-3.7 18-12.3 29.4-25.5 33.6-13.3 4.3-25.7.6-39.6-11.9-13.1-11.6-21.6-26.3-28.4-47.4-6.9-21.2-8.6-40.8-5.4-56.8zm70 105.3c14.1-4.5 14.1-27.6.3-69.7-13.8-42.5-27.1-61.1-41.5-56.3-13.9 4.5-13.9 27.5-.2 69.8 14 42.3 27.3 61 41.4 56.2zM1362.9 2012.1c9.4-6.2 8.2-13.1.6-29.4l-37.6-81-3.8-2.8c-3.9-2.9-6.7-4.8-11.2-2.6l-1.4.6-4.6-9.6 28.3-13.2 81.5 64-23.4-50.3c-8.4-18.1-13.2-22.6-24.4-17.5l-4.5-10 32.7-15.2 4.5 9.8c-9.2 5.2-8.4 11.9-.4 29.2l47.8 102.8-7 3.4-100.9-79.6 31.6 68.5c8 17.3 13.5 22.3 24.1 17.9l4.7 9.7-32.1 15-4.5-9.7zM1548.9 1810.6l-4.9 3.5c-21.7-23.5-34.9-27.6-50.4-16.9-5.9 4.1-7.1 5.8-1.2 14.4l24.7 36.1c.5-.3 1.2-.6 1.6-1 9.1-6.2 8.2-15.4-1.7-33.5l5-3.5 38.5 56.2-5.1 3.6c-13.1-16.1-21.3-19.8-30.3-13.8-.4.4-1 .8-1.4 1l27.8 40.8c4.7 6.8 6.7 8.3 11.1 5.4l7.3-5 6.1 9-41 28.1-6.1-9 5.1-3.6c4.5-2.8 3.7-5.5-.8-12.3l-59.4-86.9c-4.6-6.9-7-8.4-11.2-5.4l-5.3 3.5-6.1-8.8 66.5-45.5 31.2 43.6zM1668.3 1840.9c-8.1 6.9-18.4 9.1-30.4 6.8-18.4-3.6-37.3-16.4-54.8-36.9-13.6-15.7-22.4-32.4-26-48.5-4.1-17.9-.3-31 10.6-40.4 6.8-5.9 14.7-7.9 25-6.2l-1.8-12.4 4-3.4 40.3 44.2-4.3 4.8c-26.1-22.3-44.8-29-55.1-20.2-12.4 10.8-4.1 30.9 25.3 65.1 29.5 34.6 47.5 45.6 61.3 33.8 10.4-9 8.2-26.6-7.2-51.9l7.5-1.5c19.8 29.7 21.6 53.1 5.6 66.7z"/><path class="st1" d="m85.3 593.3 23.5 48.6-66 18.1 20.6 41 66.1-18.1 20.7 41.1L84 742l20.4 40.8 66.3-17.9 20.9 41.1-66.7 17.7 20.7 40.9 66.5-17.6 29.6 56.9c12.5-3.5 24.8-7.8 36.6-12.7L123.7 582.3c-11.2 4.8-24 8.5-38.4 11zM266.8 610.4c-4.6-21.9 45.2-48 85.1-80.2L299 424.3c-20.9 11.4-44.1 29.3-67.3 55.4-6.2 6.4-11.7 13.1-16.9 19.8l52 110.9z"/><path class="st2" d="M385.5 422.1c-12.9-17.5-45.9-19.8-86.4 2.2L352 530.2c36.7-30 65-65.4 33.5-108.1zM123.7 582.3l154.7 308.8c43.4-18 79.1-43.4 91.2-62.2L303 687.2l-33-70.4c-1.8-2.2-2.6-4.2-3.1-6.5l-52-110.9c-26.1 32.5-48.6 64.7-91.2 82.9zM85.3 593.3c-20.9 3.6-45.1 4.5-74.7 2.1L42.9 660l66-18.1-23.6-48.6zM129.5 682.9l-66.1 18 20.6 41 66.2-18zM170.7 764.9l-66.3 17.8 20.5 41 66.7-17.7zM145.6 864.6l24.1 48.7c23.3 1.3 47.9-2.6 72-9.4L212.1 847l-66.5 17.6z"/><path class="st1" d="m351.1 531 29.3 58.7c20.9-17.5 43.2-38.4 66.9-58.4l-55-98.3c19.8 38.2-7.2 70.3-41.2 98z"/><path class="st2" d="M269.9 616.9c1.5 2.2 3.7 4.2 6.7 6.2 29.6 20.9 64.3-.4 103.7-33.5L351.1 531c-43.8 35.2-99.2 62.8-81.2 85.9z"/><path class="st10" d="M269.9 616.9c-33.3-42.7 184.6-101 115.5-194.8-19.5-26.6-85.3-18.5-153.7 57.6-53 58.4-76.3 127.9-221.2 115.7l159.2 317.9c80.3 4.2 178.4-50.8 199.7-84.5l-99.5-211.9z"/><path class="st10" d="M447.3 531.3C379.2 588.6 322 655 276.6 623.1c-3-2-5.2-4-6.7-6.2-31.9-41 167.8-96.5 122.4-183.9l55 98.3z"/><path class="st1" d="m1795.8 593.3-23.6 48.6L1838 660l-20.4 41-66.2-18.1-20.5 41.1 66.2 18-20.4 40.8-66.3-17.9-20.8 41.1 66.5 17.7-20.6 40.9L1669 847l-29.6 56.9c-12.5-3.5-24.9-7.8-36.6-12.7l154.7-308.8c11.2 4.7 23.6 8.4 38.3 10.9zM1614.1 610.4c4.6-21.9-45.2-48-85.1-80.2l52.9-105.9c20.9 11.4 44 29.3 67.6 55.4 5.9 6.4 11.3 13.1 16.7 19.8l-52.1 110.9z"/><path class="st2" d="M1495.4 422.1c12.9-17.5 45.9-19.8 86.5 2.2L1529 530.2c-36.7-30-65-65.4-33.6-108.1zM1757.4 582.3l-154.7 308.8c-43.2-18-79-43.4-91.2-62.2l66.6-141.7 33.1-70.4c1.8-2.2 2.6-4.2 3-6.5l52.1-110.9c26.1 32.5 48.4 64.7 91.1 82.9zM1795.8 593.3c20.7 3.6 45.1 4.5 74.8 2.1L1838 660l-65.8-18.1 23.6-48.6zM1751.4 682.9l66.2 18-20.6 41-66.2-18zM1710.3 764.9l66.3 17.8-20.6 41-66.4-17.7zM1735.4 864.6l-24.3 48.7c-23.2 1.3-48-2.6-71.9-9.4l29.6-56.9 66.6 17.6z"/><path class="st1" d="m1529.9 531-29.4 58.7c-20.8-17.5-43.2-38.4-66.7-58.4l54.9-98.3c-19.9 38.2 7.3 70.3 41.2 98z"/><path class="st2" d="M1611.1 616.9c-1.6 2.2-3.9 4.2-6.6 6.2-29.8 20.9-64.3-.4-104-33.5l29.4-58.7c43.8 35.3 99 62.9 81.2 86z"/><path class="st10" d="M1611.1 616.9c33.2-42.7-184.5-101-115.6-194.8 19.7-26.6 85.4-18.5 154 57.6 52.7 58.4 76.1 127.9 221.1 115.7l-159.4 317.9c-80.2 4.2-178.3-50.8-199.8-84.5l99.7-211.9z"/><path class="st10" d="M1433.8 531.3c68 57.3 125.2 123.7 170.7 91.9 2.7-2 5-4 6.6-6.2 31.9-41-167.8-96.5-122.4-183.9l-54.9 98.2z"/><path class="st1" d="M1139.5 520.7c-14.4 11.4-39.1 28.1-66.6 44.8v219.8c31-18.8 62.7-39.1 92.5-55.2V502.2c-10.2 6.8-19.3 13.2-25.9 18.5zM1287.7 461c-1.3 0-2.6.3-3.9.3l-31.4 237.6c1.3 0 2.6-.4 3.9-.4 25.7 0 49.6 8.7 72.1 21.4l70.4-215.9c-34.6-24.7-71.5-43-111.1-43zM1604.5 623.1c-29.5 20.6-63.9 0-102.9-32.6L1410 781.7c37.2 32.2 70.3 58.8 101.4 47.1l99.8-211.8c-1.8 2.1-4.1 4.1-6.7 6.1zM276.6 623.1c-3-2-5.2-4-6.7-6.2l99.6 211.8c31.4 11.7 64.4-14.8 101.6-47.1l-91.7-191.2c-39.2 32.7-73.4 53.3-102.8 32.7zM940.5 622.6c-9.2 0-21.4-3.1-35.2-8.1v221.2c12.8 4.5 24.6 7.2 35.2 7.2 10.5 0 22.4-2.7 35-7.2V614.5c-13.5 5-25.9 8.1-35 8.1zM593.2 461c-39.4 0-76.5 18.4-110.9 43l70.4 215.9c22.3-12.7 46.2-21.4 72.1-21.4 1.2 0 2.5.3 3.7.4l-31.3-237.6c-1.4 0-2.6-.3-4-.3zM741.5 520.7c-6.6-5.3-15.4-11.6-25.9-18.4v227.9c30 16.1 61.6 36.4 92.4 55.2V565.5c-27.6-16.8-52.3-33.4-66.5-44.8z"/><path class="st2" d="M808 565.5v219.8c34.6 21.2 68.4 40.6 97.3 50.4V614.5c-28.8-10.3-65.1-29.6-97.3-49zM597.1 461.3l31.3 237.6c24.6 1.2 54.6 13.8 87.1 31.3v-228c-29.7-18.8-72.7-39.7-118.4-40.9zM379.4 590.5l91.7 191.2c25-21.6 51.8-45.3 81.6-61.8L482.3 504c-37.3 26.5-71.6 60.3-102.9 86.5zM975.6 614.5v221.2c29-9.8 62.7-29.2 97.4-50.4V565.5c-32.1 19.4-68.4 38.7-97.4 49zM1165.5 502.2v227.9c32.4-17.5 62.5-30.1 87-31.3l31.4-237.6c-45.8 1.3-88.6 22.2-118.4 41zM1398.8 504l-70.4 215.9c29.6 16.5 56.5 40.3 81.5 61.8l91.6-191.2c-31.1-26.2-65.4-60-102.7-86.5z"/><path class="st10" d="M940.5 842.9c79.6 0 232.1-144.4 315.8-144.4 111.2 0 187.2 155.8 255 130.3l99.8-211.8c-1.6 2.2-3.9 4.2-6.6 6.2-74.8 52.7-181.3-162.2-316.7-162.2-63.1 0-121.9 39.3-148.2 59.7-39.3 31.3-154.3 101.9-199 101.9-44.5 0-159.9-70.7-199-101.9-26.2-20.4-85.1-59.7-148.3-59.7-135.3 0-241.9 214.8-316.7 162.1-3-2-5.2-4-6.7-6.2l99.6 211.8c68 25.6 144.1-130.3 255.3-130.3 83.5.1 236.3 144.5 315.7 144.5z"/><path class="st0" d="M944 406.4c205.6 0 372.2-90.3 372.2-201.6C1316.2 93.4 1149.5 3.1 944 3.1S571.6 93.4 571.6 204.8c0 111.2 166.8 201.6 372.4 201.6z"/><path d="M944.4 373.6c182.6 0 330.9-75.6 330.9-168.8C1275.3 111.4 1127 36 944.4 36c-183.1 0-331 75.5-331 168.8 0 93.2 147.9 168.8 331 168.8z" style="fill:#fcc200;stroke:#000;stroke-width:0"/><path d="M944.6 333.2c148.7 0 269.5-48.3 269.5-107.8 0-59.4-120.8-107.6-269.5-107.6-148.8 0-269.5 48.2-269.5 107.6 0 59.5 120.7 107.8 269.5 107.8z" style="fill:#fff;stroke:#000;stroke-width:25.0125"/><path d="M943.7 148.7C800.4 148.7 684.5 265 684.5 408c0 143.3 115.9 259.4 259.2 259.4h-3.2c143.1 0 259.3-116 259.3-259.4 0-143.1-116.2-259.4-259.3-259.4h3.2z" style="fill:#fff;stroke:#000;stroke-width:12.4653"/><path d="m900.6 622.5-53.3-90.6-97.7-15.9-24.6 31c1.1 1.6 1.7 3.2 2.9 4.7l4.3 6.1c32.7 46.2 79.9 81.2 135.2 98.3l10 1.9 23.2-35.5zM833.8 372.2l42 129.3h132.6l41.9-129.3L942 293.7zM942 241.3v-.2l80.6-52.7v-26.1c-25.2-8.5-52.3-13.3-80.5-13.5-28 .2-55 5-80.5 13.5v26.1l80.4 52.9zM792.5 331l2.9-102.9-20.9-16.3c-11 9.4-21.2 19.6-30.3 30.7l-1.1 1.1c-29.5 36.1-49.2 80.3-55.9 128.7l23.1 10.2 82.2-51.5zM1037.1 531.9l-53.3 90.6 23.1 35.4 9.6-1.8c56.2-17.2 104.5-53.3 137.2-100.5l2.1-3.1c1.2-1.8 2.3-3.8 3.4-5.4l-24.7-31-97.4 15.8zM1091.8 331l82.2 51.6 23.1-10.2c-6.7-48.6-26.6-93-56.4-129.3l-.2-.1c-9.1-11.4-19.7-21.7-30.7-31.2l-20.9 16.3 2.9 102.9z"/></g></svg>