<svg id="Layer_1" data-name="Layer 1" xmlns="http://www.w3.org/2000/svg" viewBox="0 0 468.87 549.54"><defs><style>.cls-1{fill:#fff;}.cls-2{fill:#001f5f;}.cls-3{fill:#d7172f;}.cls-4{fill:none;}</style></defs><title>2_COL_SP_2016</title><path class="cls-1" d="M460.79,375.52l-.16-.17L438,355.53l-4.83-4.41c-4.58-4.58-11.61-10.17-23.72-9.78a30,30,0,0,0-6,.54A245.1,245.1,0,0,0,408,311.39c.65-7.41,1-14.77,1-21.85,0-.15,0-2.82,0-2.82l-.16-5.8V0H59.64V281.4l0-.49-.15,5.81v2.82c0,7.09.38,14.45,1,21.86a246.48,246.48,0,0,0,4.56,30.42,30.5,30.5,0,0,0-5.67-.48c-12.11-.39-19.15,5.21-23.72,9.78l-4.83,4.41L8.24,375.34l-.16.17c-7.82,7.8-8.6,15.4-7.86,20.4,2.07,14.23,20.16,24.75,22,25.74l10.61-8.32c7.49-2.92,11.83,1.18,11.83,1.18.73.44,3.26,2.5,4.84,10.81l.91,4.8-10.07,8.72,3.58,5.21c10.43,15.2,14.45,19.9,21.24,27.54,45.29,51,103.6,77.95,168.65,77.95h1c65.05,0,123.37-27,168.66-77.95,6.78-7.63,10.8-12.32,21.24-27.54l3.58-5.21-9.84-8.51,1-5C421,417,423.5,415,424.24,414.52c0,0,4.33-4.09,11.83-1.18l10.61,8.32c1.82-1,19.91-11.51,22-25.74.73-5,0-12.61-7.87-20.4Z"/><path class="cls-2" d="M433.56,359.44S445,384,410.26,386.56l35.83,28.08s28.73-16.79,10.65-34.82l-23.18-20.38Z"/><path class="cls-3" d="M426.37,375.38c6.35-6.68.25-17.93.25-17.93s-5.51-10.34-16.62-9.83a24.55,24.55,0,0,0-8.2,1.32,178.9,178.9,0,0,1-8.41,25.46h0a179.68,179.68,0,0,1-12.2,23.7l4.19,3.63L412.34,425c3.33-22.82,16.13-17.24,16.13-17.24l-30.22-24.07c23-.87,28.12-8.3,28.12-8.3Z"/><path class="cls-2" d="M35,359.71s-11.48,24.55,23.3,27.12L22.51,414.91s-28.73-16.79-10.65-34.82L35,359.71Z"/><path class="cls-3" d="M42.23,375.66C35.87,369,42,357.73,42,357.73s5.51-10.34,16.62-9.83a24.53,24.53,0,0,1,8.2,1.32,178.55,178.55,0,0,0,8.4,25.46h0a179.72,179.72,0,0,0,12.19,23.7L83.18,402,56.26,425.26C52.92,402.45,40.13,408,40.13,408L70.34,384c-23-.88-28.12-8.31-28.12-8.31Z"/><path class="cls-2" d="M372,399.52a180.36,180.36,0,0,0,14.81-27.73l-.14.34c7.44-17.48,12.24-38.12,14.28-61.36.64-7.18,1-14.33,1-21.27,0-1,0-1.92,0-2.79,0-2,0-3.77-.13-5.32V7.08H66.72V281.4c-.11,1.55-.13,3.3-.13,5.32,0,.87,0,1.8,0,2.79,0,6.94.38,14.09,1,21.27,2,23.12,6.8,43.66,14.17,61.09a181.21,181.21,0,0,0,14.7,27.73L49.72,440.06C60.12,455.22,64,459.67,70.41,466.9c43.91,49.44,100.4,75.56,163.37,75.56h1c63,0,119.46-26.12,163.37-75.56,6.41-7.22,10.29-11.68,20.69-26.84L372,399.52Z"/><path class="cls-1" d="M234.3,22.45H82.09v259.2S79.64,327.55,96,366.11c0,0,39,99.49,137.74,99.49h.52c98.75,0,138.26-99.49,138.26-99.49,16.4-38.57,13.94-84.46,13.94-84.46V22.45Z"/><polygon class="cls-3" points="206.07 169.79 262.24 169.79 262.24 389.44 206.07 389.44 206.07 169.79 206.07 169.79"/><path class="cls-3" d="M159.93,86.77v-37A59.12,59.12,0,0,0,138.44,55l4.4-13.72h54.5L191.48,53.5a37,37,0,0,0-16.12-3.74v37c0,5.85.78,11,3.12,16H156.8c2.34-5,3.12-10.15,3.12-16Z"/><path class="cls-3" d="M265,86.77V57.31c0-5.85-.79-11-3.13-16h21.68c-2.34,5-3.13,10.15-3.13,16V69.16l18.76-21.27C301,45.78,302,43.91,302,42c0-.24-.1-.49-.1-.73h24.22c-5.76,3.57-10.25,6.82-13.18,10L296.81,68.75l21.88,25.81a74.69,74.69,0,0,0,8.49,8.2H303a16.43,16.43,0,0,0,.2-2.11c0-2.44-1.09-4.39-3-6.74L280.4,70.22V86.77c0,5.85.79,11,3.13,16H261.85c2.34-5,3.13-10.15,3.13-16Z"/><path class="cls-3" d="M333.14,86.77V57.31c0-5.85-.77-11-3.12-16h41.9l-6.93,12c-4.4-1.71-9.77-2.59-16.41-2.76v17h21.2l-7.91,11.12c-3-1.87-7-2.68-11.92-2.68h-1.37V93.59c2.05.08,4.11.17,6.06.17,8.79,0,16.12-1,22.26-3.25L371,102.77H330c2.35-5,3.12-10.15,3.12-16Z"/><path class="cls-3" d="M188.28,122.69c-8.41,0-14.37,5.56-14.37,14.3s6.21,14.52,15.5,14.52A16,16,0,0,0,202,146l-1.38,9.34a40.1,40.1,0,0,1-14.25,2.53,25.72,25.72,0,0,1-14.5-3.94c-5.84-3.83-8.73-9-8.73-15.48a20.26,20.26,0,0,1,9-16.84,31.05,31.05,0,0,1,18.08-5.45,41.61,41.61,0,0,1,11,1.62V128c-4.08-3.51-8.35-5.29-12.93-5.29Z"/><path class="cls-3" d="M209.83,146.76V127.16a24.87,24.87,0,0,0-2-10.63h13.93a24.88,24.88,0,0,0-2,10.63v19.59a24.87,24.87,0,0,0,2,10.63H207.82a24.86,24.86,0,0,0,2-10.63Z"/><path class="cls-3" d="M239.21,146.76V122.15a36.87,36.87,0,0,0-13.81,3.51l2.83-9.12h35l-3.77,8.1a23.13,23.13,0,0,0-10.36-2.48v24.61a24.85,24.85,0,0,0,2,10.63H237.19a24.81,24.81,0,0,0,2-10.63Z"/><path class="cls-3" d="M293.89,157.39H280a24.87,24.87,0,0,0,2-10.63v-8.48l-10.49-14.95a62.11,62.11,0,0,0-5.65-6.8H279.7a5.51,5.51,0,0,0,.62,3.51l7.09,10.52,5.9-9.77a6,6,0,0,0,.88-3,8.21,8.21,0,0,0-.13-1.24h12.68a35.88,35.88,0,0,0-6.09,7l-8.79,13.12v10.14a24.75,24.75,0,0,0,2,10.63Z"/><path class="cls-3" d="M257.75,72.13c0,20.28-14.33,31.24-32,31.24s-32-10.38-32-31.24c0-17.26,14.34-31.25,32-31.25s32,14,32,31.25ZM225.69,48.25c-9.93,0-14.53,11.5-14.53,23.58s4.6,23.58,14.53,23.58,14.53-11.5,14.53-23.58-4.6-23.58-14.53-23.58Z"/><path class="cls-2" d="M210.39,411.78c0-5.38,1.58-8.17,4.68-8.17,3.34,0,4.62,2.58,4.62,8.17s-1.52,8.1-4.62,8.1-4.68-2.65-4.68-8.1ZM221,421.25c4.5-1.43,6.85-5.09,6.85-10.11,0-7.24-4.39-11.25-12.41-11.25-8.36,0-13.28,4.51-13.28,11.25,0,5.09,2.46,8.75,6.9,10v.5c-5.62,1.5-8.49,5.95-8.49,12.9,0,8.6,5.2,12.33,14.45,14.13s14.45-2.65,14.45-11.39c0-6.31-3-14.28-8.48-15.64v-.43Zm-10.94,12.91c0-7,1.58-10.54,5-10.54s5,3.51,5,10.54-1.76,10.47-5,10.47c-3.56,0-5-3.38-5-10.47Z"/><path class="cls-4" d="M210.39,411.78c0-5.38,1.58-8.17,4.68-8.17,3.34,0,4.62,2.58,4.62,8.17s-1.52,8.1-4.62,8.1-4.68-2.65-4.68-8.1ZM221,421.25c4.5-1.43,6.85-5.09,6.85-10.11,0-7.24-4.39-11.25-12.41-11.25-8.36,0-13.28,4.51-13.28,11.25,0,5.09,2.46,8.75,6.9,10v.5c-5.62,1.5-8.49,5.95-8.49,12.9,0,8.6,5.2,12.33,14.45,14.13s14.45-2.65,14.45-11.39c0-6.31-3-14.28-8.48-15.64v-.43Zm-10.94,12.91c0-7,1.58-10.54,5-10.54s5,3.51,5,10.54-1.76,10.47-5,10.47c-3.56,0-5-3.38-5-10.47Z"/><path class="cls-2" d="M252.76,435c0,7.41-1.45,11.07-4.38,11.07s-4.56-3.73-4.56-11.36c0-6.75,1.47-10,4.45-10,3.27,0,4.5,3.3,4.5,10.34Zm-9.06-11.81v-.22c0-11.73,2.43-18.55,7.75-18.55,2.51,0,4.44,1.39,6.2,4.25l.35-.14a64.09,64.09,0,0,1,.82-7c-2.4-1.1-7.34-1.69-9.81-1.69-11.58,0-15.51,13.2-15.51,31.17,0,13.71,5.19,20.36,14.86,18.84,8.78-1.38,14.16-6.31,14.16-16.79,0-8.58-4.21-13.64-10.83-13.64-3.57,0-6.49,1.47-8,3.74Z"/><path class="cls-4" d="M252.76,435c0,7.41-1.45,11.07-4.38,11.07s-4.56-3.73-4.56-11.36c0-6.75,1.47-10,4.45-10,3.27,0,4.5,3.3,4.5,10.34Zm-9.06-11.81v-.22c0-11.73,2.43-18.55,7.75-18.55,2.51,0,4.44,1.39,6.2,4.25l.35-.14a64.09,64.09,0,0,1,.82-7c-2.4-1.1-7.34-1.69-9.81-1.69-11.58,0-15.51,13.2-15.51,31.17,0,13.71,5.19,20.36,14.86,18.84,8.78-1.38,14.16-6.31,14.16-16.79,0-8.58-4.21-13.64-10.83-13.64-3.57,0-6.49,1.47-8,3.74Z"/><path class="cls-2" d="M268.44,436.82c1.58,3,5.67,3.24,5.67,3.24,8.51-.35,7.52-13.77,7.52-13.77-.92-6.92-6.12-6.08-10.3-5.7-.7.06-1.71.15-2.35.26l.16-5a11.72,11.72,0,0,0,1.4,0c4.51-.42,7.56-1.76,8.42-6.22.52-2.7,0-6.94-4.62-6.81-5.17.14-6,4-7.46,6l-.62-.33-.55-6c2.68-3.21,9.46-3.65,9.46-3.65,7-.64,12.35,3.23,12.86,8.73.37,4-1.1,5.67-6,8l0,.38c5.78-.33,8,1.59,9.39,5.63,2.16,6.53,1.48,23.33-27.07,24.63,0,0,2.3-2.58,3.11-9l1-.34Z"/><path class="cls-2" d="M195.89,443.64a130.1,130.1,0,0,1-12-5.65,228.64,228.64,0,0,0,1.27-25.74c0-1.52-.12-2.57-.24-4.72-2.28.93-1.35.13-3.63,1.48l-2.51-3.85c6.08-2,8.62-2.28,14.58-5.48l1.17.64c-.18,12.28-.07,19.14-.07,23.11,0,5.07.65,13.2,1.11,18.2.1,1,.28,2,.28,2Z"/><path class="cls-3" d="M152.76,419A154.43,154.43,0,0,1,140,406.37a173,173,0,0,1-29.68-45.9l-.08-.21-.07-.17c-11.56-27.2-12.83-59.25-12.83-72,0-3.5.09-5.55.1-5.65l0-.4V115.73h55.15L152.76,419Z"/><path class="cls-3" d="M315.85,419a155.48,155.48,0,0,0,12.74-12.67,173.13,173.13,0,0,0,29.68-45.9l.08-.21.07-.17c11.57-27.2,12.84-59.25,12.84-72,0-3.5-.1-5.55-.1-5.65l0-.4V115.73H316L315.85,419Z"/><path class="cls-1" d="M188.48,500l2-7.68c.33-1.3.58-2.25.74-2.85.06-.25.26-1,.64-2.3a15.27,15.27,0,0,1,1.64.27c3.29.86,4.45,3.35,3.4,7.36-1.3,5-3.7,6.42-8.41,5.2Zm-.88,3.57c.57.2,1.1.34,1.64.48,8.22,2.14,13.29-.4,15.18-7.67,1.68-6.47-1-10-7.93-11.86-2.89-.75-5.68-1.14-8.25-1.82-.93-.25-2.06-.64-3.4-1.15-1.2,6.43-2.6,12.22-3.92,17.28-1.18,4.55-2.65,10.22-5,17,1.77.3,3.22.57,4.29.85s2.5.75,4.15,1.35c.72-4.26,1.24-6.8,1.45-7.6l1.77-6.82Z"/><path class="cls-1" d="M218.82,506.44c0-9.61,3.67-15.06,9.33-15.07s9.31,5.34,9.32,15.05-3.76,15-9.29,15-9.35-5.29-9.37-14.95Zm-8.33.48c0,11.52,6.18,17.85,17.28,17.84,11.47,0,18.05-7,18-19.18,0-11.27-6.37-17.6-17.24-17.59-11.23,0-18.09,6.87-18.08,18.92Z"/><path class="cls-1" d="M265.88,490.39c.3,2.88.73,5.33,1.06,7.22.13.77.25,1.48.35,2.09,1.28,7.45,2.5,14.5,4.21,21.19-2,.18-3.49.33-4.35.48-1.13.2-2.51.54-4.25,1-.6-6.41-1.46-12.2-2.36-17.51-.49-2.81-1.39-7.22-2.55-13.13a55.49,55.49,0,0,0-8.08,2c-.08-1-.15-1.92-.28-2.68-.08-.46-.29-1.16-.57-2.21,5-.65,9.06-1.2,12.19-1.74s7-1.36,12-2.43c.1,1.08.17,1.81.25,2.26.13.77.34,1.67.6,2.63a55.11,55.11,0,0,0-8.24.79Z"/><path class="cls-1" d="M295.28,481.76c.78,2.81,1.6,5.15,2.24,7,.25.73.49,1.42.7,2,2.5,7.15,4.85,13.89,7.64,20.21-2,.52-3.37.91-4.2,1.19-1.08.38-2.39.94-4,1.69-1.64-6.23-3.43-11.8-5.21-16.89-.94-2.68-2.55-6.9-4.67-12.52a53.51,53.51,0,0,0-7.64,3.33c-.23-1-.45-1.87-.71-2.6-.16-.45-.48-1.1-.93-2.1,4.8-1.46,8.75-2.67,11.74-3.71s6.67-2.49,11.46-4.39c.27,1.06.46,1.76.62,2.2.26.73.61,1.6,1,2.5a54.76,54.76,0,0,0-8,2.14Z"/><path class="cls-1" d="M318.08,489.28l-1.72-3.14-1-1.91a146,146,0,0,0-8-13.34c3.89-2,6.57-3.3,8-4.07,2.17-1.19,5-2.85,8.37-4.89.39.92.69,1.64,1,2.13s.7,1.09,1.26,1.92a70.77,70.77,0,0,0-6.53,3.17c-.89.49-1.77,1-2.59,1.48q1.74,3.48,3.53,6.75l1.32,2.41c2.16-1.31,5-3,8.6-5.24a19.13,19.13,0,0,0,1,2.23c.22.41.67,1,1.31,2q-4.72,2.14-9,4.42l2.71,5c1.25,2.27,2.38,4.25,3.51,5.93a83.4,83.4,0,0,0,8.47-5.29c.39.91.72,1.61,1,2.2.22.41.7,1.09,1.33,2-4.7,2.41-8.14,4.17-10.23,5.31-1.57.87-3.6,2-6,3.58a123.84,123.84,0,0,0-6.25-12.64Z"/><path class="cls-1" d="M345.57,464.78l-4.39-5.63c-.89-1.14-2.1-2.7-3.49-4.7.5-.4.83-.58.94-.67,3.33-2.6,5.93-2.4,8.61,1,3,3.8,2.43,6.78-1.52,9.85l-.14.11Zm5.66,20c1.24-1.17,2.26-2.1,3.1-2.75s1.94-1.38,3.38-2.31c-2.22-2.4-4.31-4.92-6.33-7.53l-4.17-5.35c8.16,3.22,13.81,5.84,17,7.8,1.28-1.2,2.41-2.21,3.43-3s2.27-1.64,4.1-2.87c-5.22-1.84-11.5-4.29-18.86-7.68,3.22-3,3.36-7.35.3-11.27-4-5.1-8.29-5.17-13.76-.9-2.64,2.06-4.84,4.24-7.09,6-.82.65-1.8,1.27-2.87,2,4.5,4.89,8.21,9.56,11.36,13.6l1.12,1.43c2.7,3.47,5.88,7.62,9.27,12.86Z"/><path class="cls-1" d="M371.81,453.65l.52-.59c3.86,2.36,7,2.14,9.53-.79,2.33-2.66,2.25-5.54-.12-7.63s-4.55-1.19-8.61.38c-5.85,2.26-9.58,3.13-13.86-.62-5-4.38-5.4-10.49-.39-16.19a15.27,15.27,0,0,1,7.06-4.73,53,53,0,0,0,3.89,5.86l-.37.41c-3.69-1.53-6.31-1.21-8.4,1.17s-1.89,5.2,0,6.87c2.29,2,4.59.73,9.25-1,5.43-2,9-3.07,13.48.9,5.45,4.8,5.64,11.39.13,17.67a19,19,0,0,1-6.68,5c-1.93-2.43-3.77-4.66-5.44-6.68Z"/><path class="cls-3" d="M131.76,71.36c-2.14-1.52-7.29-4-13.32-7.44-4.79-2.76-8.43-5.08-8.3-8.4.13-3.57,3.37-6.7,8.93-6.51s11.49,3.95,15.8,9.21l-.23-15.36a45.19,45.19,0,0,0-11.85-1.94c-16.69-.56-27,6.4-27.41,17.35-.25,7.06,4.27,11.6,13,16.44,7.84,4.41,14.49,6.37,14.7,11.86h0c-.15,4-3.88,7.47-9.69,7.28s-11.95-4.28-16.43-10.19l.19,17.28a51.61,51.61,0,0,0,13.46,2.2c17.44.59,28-7.21,28.46-19.54,0-4.87-2.34-8.73-7.29-12.24Z"/><path class="cls-1" d="M106.87,433.63c-2.21,1.89-4,3.63-5.35,5L100,440.07c-5.42,5.28-10.54,10.26-15.09,15.46-1.3-1.55-2.25-2.67-2.86-3.31-.8-.82-1.87-1.77-3.23-2.94,5-4.12,9.24-8.1,13.1-11.86,2-2,5.18-5.24,9.39-9.51a55.45,55.45,0,0,0-6.24-5.53c.77-.62,1.5-1.2,2.06-1.75.33-.33.79-.89,1.5-1.72,3.35,3.74,6.12,6.8,8.33,9.07s5.08,5,8.81,8.53c-.85.7-1.39,1.17-1.73,1.49-.56.55-1.19,1.23-1.84,2a53.92,53.92,0,0,0-5.32-6.36Z"/><path class="cls-1" d="M108.43,457.67l1.28-1.57c3.26-4,7-8.55,10.86-14,1.33,1.36,2.32,2.38,3,3a42.55,42.55,0,0,0,3.6,2.49c-2,2-3.77,4.07-5.51,6.2l-3.59,4.36c2.24,2,3.73,3.33,4.55,4,1.46,1.2,3.22,2.51,5.2,4l3.59-4.36c1.74-2.13,3.38-4.33,5-6.64,1.39,1.42,2.43,2.47,3.14,3.06s1.9,1.37,3.49,2.4c-4.54,4.8-8.32,9.32-11.64,13.37l-1.28,1.56c-2.66,3.24-5.92,7.27-9.55,12.39-1.25-1.23-2.25-2.18-3.1-2.88s-2.05-1.56-3.53-2.58c1.82-1.86,3.54-3.73,5.18-5.73l5.86-7.12c-1.92-1.72-3.59-3.16-5-4.3q-1.43-1.18-4.78-3.73l-5.86,7.12c-1.64,2-3.19,4-4.65,6.17-1.29-1.26-2.31-2.24-3.2-3s-2-1.53-3.43-2.48c4.33-4.55,7.66-8.52,10.32-11.75Z"/><path class="cls-1" d="M140.55,484.14l1.7-3.14,1-1.92a147.91,147.91,0,0,0,6.86-13.95c3.76,2.21,6.34,3.72,7.75,4.49,2.18,1.17,5.1,2.63,8.65,4.38-.55.82-1,1.46-1.27,2s-.54,1.18-.92,2.09a71.55,71.55,0,0,0-6.21-3.77c-.89-.48-1.78-1-2.65-1.38q-2,3.35-3.74,6.63l-1.3,2.41q3.4,1.67,9.07,4.38a18.76,18.76,0,0,0-1.32,2c-.22.41-.51,1.14-1,2.18q-4.36-2.79-8.63-5.19l-2.68,5c-1.23,2.28-2.28,4.3-3.08,6.17a84.47,84.47,0,0,0,9,4.24c-.55.83-1,1.48-1.27,2.08-.22.41-.53,1.18-1,2.23-4.58-2.65-7.92-4.57-10-5.71-1.57-.85-3.66-1.92-6.26-3.09a123.23,123.23,0,0,0,7.22-12.1Z"/></svg>