<svg version="1.1" id="Swansea" xmlns="http://www.w3.org/2000/svg" x="0" y="0" viewBox="0 0 2135.7 2135.7" style="enable-background:new 0 0 2135.7 2135.7" xml:space="preserve"><style>.st1{fill:#1d1d1b}</style><path d="M2135.7 1067.8c0 588.8-479 1067.9-1067.8 1067.9C479 2135.7 0 1656.7 0 1067.8 0 479 479 0 1067.9 0c588.8 0 1067.8 479 1067.8 1067.8z" style="fill:#fff"/><path class="st1" d="M853.8 1256.5c-93.7 154.4-292.9 165-494.1 86.5 0 0 80.2-2.2 150.9-41.2 62.2-34.2 68.3-53.3 129.7-128.7 176-216.4 335.6-313.8 499-157.9 0-.1-146.8 12.7-285.5 241.3z"/><path class="st1" d="M1067.3 1389.7c-93.8 154.5-293 165-494.1 86.5 0 0 80.1-2.2 151-41.2 62-34.2 68.3-53.3 129.6-128.8 176-216.3 335.7-313.7 499-157.9 0 .1-146.9 12.9-285.5 241.4z"/><path class="st1" d="M1762.2 1169c8.4 87.3-45.6 165.9-221.9 270.3 0 0 270.9-230.3-61.3-392.3-207.1-101-363.6-188.2-419.2-317.8-38.4-89.5-1.5-240.3 111.3-291.1 0 0 124.4-60.6 349.4 22.3 0 0 124.9 44.2 57.4 129.8 0 0 17.4 29.5 34.8 65.6 13.4 27.7 9.7 41.6-19.5 23.9 0 0-326.5-285.2-413.7-117.3 0 0-31.4 60 9.2 133.5 33.5 44.6 59.9 57 112.4 87.1 80.7 42.6 135.3 71.6 235.8 127.3.2 0 210.6 103.2 225.3 258.7z"/><path class="st1" d="M1299 1512.4c-93.7 154.5-292.8 165-494.1 86.5 0 0 80.1-2.3 150.9-41.3 62.2-34.2 68.5-53.3 129.7-128.7 176-216.3 335.6-313.7 498.9-157.9-.1 0-146.8 12.9-285.4 241.4zM324.7 1464.2c-.9-11-1.8-16.9-6.4-26.3-4.8-10.2-14.3-20.4-27.6-14-24.4 11.9 7.8 63.6-34 83.9-27 13.2-47.8-2.5-60.2-28-4.3-8.9-6.1-18.8-7.4-28.5l17.7-6.5c.4 7.4 2.1 20.1 6.7 29.4 5 10.3 17.9 22.1 32.8 14.8 28.3-13.8-6-64.4 33.4-83.6 22.5-11 43.2 1.1 54.3 23.9 4 8.3 7.4 19.1 8.6 29.2l-17.9 5.7zM351.5 1480.2l13.3 17.8-76.3 99.4.3.3 114.5-48.3 17.3 22.9-78.3 96.8.3.4 116.7-45.5 12.9 17.1-138.8 49.8-15.5-20.9 80.1-98.4-.3-.3-117.1 49.2-16.2-21.7 87.1-118.6zM524.6 1682.9l16 13.8-46.9 145.7-16.6-14.4 12.3-36.2-52.3-45.1-34.1 17.6-16.1-13.9 137.7-67.5zm-5 20.8-66.8 34.6 42.6 36.6 24.2-71.2zM607.8 1749.6l23.8 13.8-3.1 129.3.4.3 56.9-98.2 17.5 10.1-70.7 121.9-22.3-13 3-132.2-.4-.2-58.2 100.2-17.5-10.1 70.6-121.9zM792.6 1863.7c-8.1-7.5-12.7-11.2-22.4-15-10.7-4.1-24.5-5.1-29.8 8.7-9.7 25.2 49 41.2 32.2 84.5-10.8 28.1-36.8 30.8-63.1 20.6-9.3-3.6-17.3-9.7-24.8-15.9l8.6-16.7c5.4 5.1 15.3 13.2 24.8 16.9 10.7 4.1 28.2 4 34.1-11.5 11.4-29.3-48.3-43.1-32.5-84 9.1-23.4 32.3-28.6 56.1-19.5 8.6 3.4 18.5 8.9 26.2 15.6l-9.4 16.3zM840.3 1856.9l76.8 18.5-4.2 17.3-57.1-13.7-9.6 40 52 12.5-4.1 17.3-52.1-12.5-10.8 45.2 57.1 13.7-4.1 17.3-76.8-18.5 32.9-137.1zM998.4 1885.4l21 1.5 49.1 144.9-21.9-1.6-11.7-36.5-68.8-5.1-17 34.4-21.1-1.5 70.4-136.1zm8.3 19.7-33.1 67.6 55.9 4.1-22.8-71.7zM1262.8 1890.4c-9.7-3.7-19.8-4.6-30-2.8-32 5.5-49.4 32.2-44 63.5 5.7 32.6 32.9 50.3 61.7 45.4 10-1.7 22.8-6.6 29-12l4.6 19.1c-9.8 6.2-22.7 8.9-30.8 10.4-44 7.5-78-15.7-85.6-59.8-7.3-42.8 18.8-76.6 61.2-83.8 10.7-1.9 21.6-2.1 32.3.6l1.6 19.4zM1287.1 1858.5l19.3-5.7 39.5 135.3-19.4 5.7-39.4-135.3zM1376.7 1847l-40.6 16.7-6.8-16.5 99.8-41 6.7 16.4-40.6 16.7 46.8 113.9-18.7 7.7-46.6-113.9zM1527.5 1844.3l-89.6-41.5 20.3-12.3 68.7 32.3 2.2-75.3 20.3-12.3-4.5 98.6 30.6 50.4-17.2 10.5-30.8-50.4zM1645.9 1650.2l14.8-15.1 142.2 56.4-15.4 15.7-35.3-14.7-48.5 49.1 15.2 35.2-14.9 15.1-58.1-141.7zm20.5 6.3 30 68.9 39.4-40-69.4-28.9zM1715.9 1572.3l43.6-60.9 14.4 10.3-31.7 44.5 33.5 23.9 30.4-42.5 14.5 10.3-30.4 42.5 52.3 37.4-11.8 16.4-114.8-81.9zM1841.5 1408.6c-8.8 5.5-15.6 13-20.4 22.2-15 28.9-4.1 58.8 24.1 73.4 29.4 15.2 59.9 4.2 73.3-21.8 4.6-9 8.5-22.2 8-30.4l18 7.9c-1 11.5-6.5 23.5-10.4 30.8-20.5 39.7-59.6 52.9-99.3 32.2-38.5-19.9-49.7-61.2-30.1-99.4 5.1-9.7 11.4-18.5 20-25.4l16.8 10.5z"/></svg>