<?xml version="1.0" encoding="utf-8"?>
<!-- Generator: Adobe Illustrator 19.2.1, SVG Export Plug-In . SVG Version: 6.00 Build 0)  -->
<!DOCTYPE svg PUBLIC "-//W3C//DTD SVG 1.1//EN" "http://www.w3.org/Graphics/SVG/1.1/DTD/svg11.dtd">
<svg version="1.1" id="Swansea" xmlns="http://www.w3.org/2000/svg" xmlns:xlink="http://www.w3.org/1999/xlink" x="0px" y="0px"
	 viewBox="0 0 2135.7 2135.7" style="enable-background:new 0 0 2135.7 2135.7;" xml:space="preserve">
<style type="text/css">
	.st0{fill:#FFFFFF;}
	.st1{fill:#1D1D1B;}
</style>
<g>
	<path class="st0" d="M2135.7,1067.8c0,588.8-479,1067.9-1067.8,1067.9C479,2135.7,0,1656.7,0,1067.8C0,479,479,0,1067.9,0
		C1656.7,0,2135.7,479,2135.7,1067.8z"/>
	<path class="st1" d="M853.8,1256.5c-93.7,154.4-292.9,165-494.1,86.5c0,0,80.2-2.2,150.9-41.2c62.2-34.2,68.3-53.3,129.7-128.7
		c176-216.4,335.6-313.8,499-157.9C1139.3,1015.1,992.5,1027.9,853.8,1256.5z"/>
	<path class="st1" d="M1067.3,1389.7c-93.8,154.5-293,165-494.1,86.5c0,0,80.1-2.2,151-41.2c62-34.2,68.3-53.3,129.6-128.8
		c176-216.3,335.7-313.7,499-157.9C1352.8,1148.4,1205.9,1161.2,1067.3,1389.7z"/>
	<path class="st1" d="M1762.2,1169c8.4,87.3-45.6,165.9-221.9,270.3c0,0,270.9-230.3-61.3-392.3c-207.1-101-363.6-188.2-419.2-317.8
		c-38.4-89.5-1.5-240.3,111.3-291.1c0,0,124.4-60.6,349.4,22.3c0,0,124.9,44.2,57.4,129.8c0,0,17.4,29.5,34.8,65.6
		c13.4,27.7,9.7,41.6-19.5,23.9c0,0-326.5-285.2-413.7-117.3c0,0-31.4,60,9.2,133.5c33.5,44.6,59.9,57,112.4,87.1
		c80.7,42.6,135.3,71.6,235.8,127.3C1537.1,910.3,1747.5,1013.5,1762.2,1169z"/>
	<path class="st1" d="M1299,1512.4c-93.7,154.5-292.8,165-494.1,86.5c0,0,80.1-2.3,150.9-41.3c62.2-34.2,68.5-53.3,129.7-128.7
		c176-216.3,335.6-313.7,498.9-157.9C1584.3,1271,1437.6,1283.9,1299,1512.4z"/>
	<path class="st1" d="M324.7,1464.2c-0.9-11-1.8-16.9-6.4-26.3c-4.8-10.2-14.3-20.4-27.6-14c-24.4,11.9,7.8,63.6-34,83.9
		c-27,13.2-47.8-2.5-60.2-28c-4.3-8.9-6.1-18.8-7.4-28.5l17.7-6.5c0.4,7.4,2.1,20.1,6.7,29.4c5,10.3,17.9,22.1,32.8,14.8
		c28.3-13.8-6-64.4,33.4-83.6c22.5-11,43.2,1.1,54.3,23.9c4,8.3,7.4,19.1,8.6,29.2L324.7,1464.2z"/>
	<path class="st1" d="M351.5,1480.2l13.3,17.8l-76.3,99.4l0.3,0.3l114.5-48.3l17.3,22.9l-78.3,96.8l0.3,0.4l116.7-45.5l12.9,17.1
		l-138.8,49.8l-15.5-20.9l80.1-98.4l-0.3-0.3l-117.1,49.2l-16.2-21.7L351.5,1480.2z"/>
	<path class="st1" d="M524.6,1682.9l16,13.8l-46.9,145.7l-16.6-14.4l12.3-36.2l-52.3-45.1l-34.1,17.6l-16.1-13.9L524.6,1682.9z
		 M519.6,1703.7l-66.8,34.6l42.6,36.6L519.6,1703.7z"/>
	<path class="st1" d="M607.8,1749.6l23.8,13.8l-3.1,129.3l0.4,0.3l56.9-98.2l17.5,10.1l-70.7,121.9l-22.3-13l3-132.2l-0.4-0.2
		l-58.2,100.2l-17.5-10.1L607.8,1749.6z"/>
	<path class="st1" d="M792.6,1863.7c-8.1-7.5-12.7-11.2-22.4-15c-10.7-4.1-24.5-5.1-29.8,8.7c-9.7,25.2,49,41.2,32.2,84.5
		c-10.8,28.1-36.8,30.8-63.1,20.6c-9.3-3.6-17.3-9.7-24.8-15.9l8.6-16.7c5.4,5.1,15.3,13.2,24.8,16.9c10.7,4.1,28.2,4,34.1-11.5
		c11.4-29.3-48.3-43.1-32.5-84c9.1-23.4,32.3-28.6,56.1-19.5c8.6,3.4,18.5,8.9,26.2,15.6L792.6,1863.7z"/>
	<path class="st1" d="M840.3,1856.9l76.8,18.5l-4.2,17.3l-57.1-13.7l-9.6,40l52,12.5l-4.1,17.3l-52.1-12.5l-10.8,45.2l57.1,13.7
		l-4.1,17.3l-76.8-18.5L840.3,1856.9z"/>
	<path class="st1" d="M998.4,1885.4l21,1.5l49.1,144.9l-21.9-1.6l-11.7-36.5l-68.8-5.1l-17,34.4l-21.1-1.5L998.4,1885.4z
		 M1006.7,1905.1l-33.1,67.6l55.9,4.1L1006.7,1905.1z"/>
	<path class="st1" d="M1262.8,1890.4c-9.7-3.7-19.8-4.6-30-2.8c-32,5.5-49.4,32.2-44,63.5c5.7,32.6,32.9,50.3,61.7,45.4
		c10-1.7,22.8-6.6,29-12l4.6,19.1c-9.8,6.2-22.7,8.9-30.8,10.4c-44,7.5-78-15.7-85.6-59.8c-7.3-42.8,18.8-76.6,61.2-83.8
		c10.7-1.9,21.6-2.1,32.3,0.6L1262.8,1890.4z"/>
	<path class="st1" d="M1287.1,1858.5l19.3-5.7l39.5,135.3l-19.4,5.7L1287.1,1858.5z"/>
	<path class="st1" d="M1376.7,1847l-40.6,16.7l-6.8-16.5l99.8-41l6.7,16.4l-40.6,16.7l46.8,113.9l-18.7,7.7L1376.7,1847z"/>
	<path class="st1" d="M1527.5,1844.3l-89.6-41.5l20.3-12.3l68.7,32.3l2.2-75.3l20.3-12.3l-4.5,98.6l30.6,50.4l-17.2,10.5
		L1527.5,1844.3z"/>
	<path class="st1" d="M1645.9,1650.2l14.8-15.1l142.2,56.4l-15.4,15.7l-35.3-14.7l-48.5,49.1l15.2,35.2l-14.9,15.1L1645.9,1650.2z
		 M1666.4,1656.5l30,68.9l39.4-40L1666.4,1656.5z"/>
	<path class="st1" d="M1715.9,1572.3l43.6-60.9l14.4,10.3l-31.7,44.5l33.5,23.9l30.4-42.5l14.5,10.3l-30.4,42.5l52.3,37.4
		l-11.8,16.4L1715.9,1572.3z"/>
	<path class="st1" d="M1841.5,1408.6c-8.8,5.5-15.6,13-20.4,22.2c-15,28.9-4.1,58.8,24.1,73.4c29.4,15.2,59.9,4.2,73.3-21.8
		c4.6-9,8.5-22.2,8-30.4l18,7.9c-1,11.5-6.5,23.5-10.4,30.8c-20.5,39.7-59.6,52.9-99.3,32.2c-38.5-19.9-49.7-61.2-30.1-99.4
		c5.1-9.7,11.4-18.5,20-25.4L1841.5,1408.6z"/>
</g>
</svg>
