<svg version="1.1" id="Layer_1" xmlns="http://www.w3.org/2000/svg" x="0" y="0" viewBox="0 0 141.7 141.7" style="enable-background:new 0 0 141.7 141.7" xml:space="preserve"><style>.st0{fill:#fff}.st1{fill:none;stroke:#b48d30;stroke-width:1.0251}.st2{fill:#b48d30}.st3{fill:#ed1c24;stroke:#c5962d;stroke-width:1.5079;stroke-miterlimit:11.4737}.st4,.st6{fill:#fff;stroke:#c5962d;stroke-width:1.1309}.st6{stroke:#fff;stroke-width:.2476}.st7{fill:none;stroke:#ad8505;stroke-width:1.0251}.st8{fill:#ad8505}.st10,.st9{stroke:#ad8505}.st9{fill:#ee3524;stroke-width:1.5079;stroke-miterlimit:11.4737}.st10{fill:#fff;stroke-width:1.1309}.st12{fill:#ee3524}.st13,.st14,.st15,.st17{fill:#fff;stroke:#fff;stroke-width:.1223}.st14,.st15,.st17{stroke-width:4.298400e-02}.st15,.st17{stroke-width:3.039700e-02}.st17{stroke:#ee3524;stroke-width:.3557}.st22,.st25{fill:#fff;stroke:#fff;stroke-width:.3314}.st25{fill:none;stroke-width:.9448}</style><path class="st0" d="M122.7 29c-11.8-5.4-13.8-22-13.8-22-27.5 5.6-38.3-4.8-38.3-4.8S59.8 12.5 32.3 7c0 0-2 16.5-13.8 22 0 0 17.8 26.8 4 51.9C10.8 102 24 118.3 40 113.1c14.7-4.7 12.5-8.3 30.6 2.1 18.1-10.4 15.8-6.8 30.6-2.1 16 5.1 29.2-11.2 17.6-32.2-13.9-25.1 3.9-51.9 3.9-51.9z"/><path class="st1" d="M70.6 130.6s-4.7-14.2-23.8-8.9"/><path class="st2" d="M65.3 123.5s-3.2-1.8-1.6-6c0 .1 3.5 3.1 1.6 6z"/><path class="st2" d="M64.8 122.8s-1.3 3.4-5.7 2.5c0 0 2.6-3.9 5.7-2.5zM62.6 122.1s-4.1-1-3.6-6.2c.1 0 4.8 2.4 3.6 6.2z"/><path class="st2" d="M60.6 121.3s-1.3 4-6.4 3c0 0 2.7-4.5 6.4-3zM58.4 120.6s-4.2.3-5.2-4.8c0 0 5.3.8 5.2 4.8zM55.4 120.5s-.9 3.6-5.4 3.1c.1.1 2.1-4.1 5.4-3.1z"/><path class="st2" d="M54 120.7s-3.7.3-4.6-4.1c0 0 4.6.7 4.6 4.1zM50.6 120.8s-.9 3.6-5.4 3.1c0 0 2.1-4.2 5.4-3.1z"/><path class="st2" d="M50.1 120.7s-3.4 1.3-5.6-2.6c0 0 4.6-.7 5.6 2.6z"/><path class="st2" d="M47.3 121.4s-2.6 2.6-6.2 0c0-.1 3.9-2.6 6.2 0z"/><path class="st1" d="M70.5 130.6s4.7-14.2 23.8-8.9"/><path class="st2" d="M75.8 123.5s3.2-1.8 1.6-6c0 .1-3.5 3.1-1.6 6z"/><path class="st2" d="M76.3 122.8s1.3 3.4 5.7 2.5c0 0-2.6-3.9-5.7-2.5zM78.5 122.1s4.1-1 3.6-6.2c-.1 0-4.8 2.4-3.6 6.2z"/><path class="st2" d="M80.5 121.3s1.3 4 6.4 3c0 0-2.7-4.5-6.4-3zM82.7 120.6s4.2.3 5.2-4.8c0 0-5.3.8-5.2 4.8zM85.7 120.5s.9 3.6 5.4 3.1c-.1.1-2.1-4.1-5.4-3.1z"/><path class="st2" d="M87.1 120.7s3.7.3 4.6-4.1c0 0-4.6.7-4.6 4.1zM90.5 120.8s.9 3.6 5.4 3.1c0 0-2.1-4.2-5.4-3.1z"/><path class="st2" d="M91 120.7s3.4 1.3 5.6-2.6c0 0-4.6-.7-5.6 2.6z"/><path class="st2" d="M93.8 121.4s2.6 2.6 6.2 0c0-.1-3.9-2.6-6.2 0z"/><path class="st3" d="M15.7 114.9s3.8 1.9 10.9 4.5c3.2 1.1 12.8 3.5 11.7 4.4-.5 1.5-4.2 11.9-4.2 11.9s-9-3.7-14.9-5.9c-4.3-1.6-11.2-4.1-11.2-4.1l13.8-.8-6.1-10z"/><path class="st4" d="M29.4 123.1c-.3-1.2 10.5 1.4 9.1.2.9.7-.5 3.1-.9 4.1-2.6 5.7-7.6 8.4-13 6.9.3-3.7 3.8-7.5 4.7-10.7l.1-.5z"/><path class="st3" d="M125.4 114.9s-3.8 1.9-10.9 4.5c-3.2 1.1-12.8 3.5-11.7 4.4.5 1.5 4.2 11.9 4.2 11.9s9-3.7 14.9-5.9c4.3-1.6 11.2-4.1 11.2-4.1l-13.8-.8 6.1-10z"/><path class="st4" d="M111.7 123.1c.3-1.2-10.5 1.4-9.1.2-.9.7.5 3.1.9 4.1 2.6 5.7 7.6 8.4 13 6.9-.3-3.7-3.8-7.5-4.7-10.7l-.1-.5z"/><path d="M70.8 140.7c25.5.2 45.3-4.6 45.7-6.4.7-3.3-1-7.7-5-11.1.1 2.8-22.7 6.3-40.9 6.1-18.1.2-40.9-3.3-40.9-6.1-4 3.4-5.7 7.8-5 11.1.4 1.8 20.2 6.6 45.7 6.4h.4z" style="fill:#ed1c24;stroke:#c5962d;stroke-width:1.8849;stroke-miterlimit:2.3662"/><path class="st6" d="m34 130.8-.2-.1c.1-.3.2-.6.2-.7.1-.2 0-.4-.1-.6-.1-.2-.3-.3-.5-.3-.3-.1-.7 0-1 .2-.3.2-.5.4-.6.7v.5c0 .1.1.4.3.7.3.5.5.9.6 1.2.1.3.1.5 0 .8-.1.3-.3.6-.5.9-.3.3-.6.4-1.1.6-.4.1-.9.1-1.3 0s-.8-.3-1-.6c-.2-.3-.3-.6-.3-.8 0-.1.1-.2.2-.3.1-.1.2-.1.3-.1.1 0 .2.1.2.2s0 .2.1.4c0 .2 0 .4.1.5 0 .1.1.2.2.3.1.1.2.2.4.2.4.1.9 0 1.3-.2s.6-.5.7-.9v-.4c0-.1-.1-.3-.1-.5-.1-.1-.2-.3-.4-.7-.2-.3-.3-.5-.4-.6-.1-.2-.1-.3-.1-.5v-.4c.1-.3.2-.5.5-.8.3-.2.6-.4.9-.5.3-.1.7-.1 1.1 0 .2 0 .4.1.7.3.2.1.3.1.4.2-.1.2-.2.4-.3.5 0-.1-.1.3-.3.8zM37.6 131.2h.3l-.6 1.1c-.2.4-.5 1-.7 1.5-.1.3-.2.5-.2.6 0 .1 0 .2.1.2 0 0 .1 0 .3-.1l.6-.3.1.2c-.4.3-.7.4-.8.5-.2.1-.4.2-.6.2h-.4c-.1 0-.1 0-.2-.1v-.2s0-.1.1-.2l.3-.6c-.3.3-.7.5-1.1.6-.3.1-.5.1-.7.1-.2 0-.3-.1-.4-.3-.1-.2-.1-.4-.1-.7.1-.3.2-.7.5-1 .3-.4.6-.7.9-1 .4-.3.7-.5 1.1-.5.3-.1.6-.1 1 0 .1 0 .2 0 .3.1l.2-.1zm-.7.6c-.2-.1-.3-.1-.4-.1-.3-.1-.5 0-.8.1-.2.1-.5.4-.7.7-.3.4-.4.7-.5 1.1v.5c.1.1.1.2.3.2.2 0 .5 0 .8-.2.3-.2.5-.5.7-.9l.6-1.4zM40 134.6l.1.2c-.3.2-.6.4-1 .6-.4.2-.7.2-.9.2-.1 0-.2-.1-.2-.2s-.1-.2 0-.3c0-.2.2-.7.6-1.5l.9-2c.3-.7.5-1.2.7-1.4.3-.4.6-.6 1-.8.4-.2.8-.2 1.2-.1.1 0 .2.1.3.1.1.1.1.2.1.3 0 .1-.1.2-.2.2-.1.1-.2.1-.3 0-.1 0-.2-.1-.4-.1-.1 0-.3-.1-.4-.1h-.3c-.1.1-.2.2-.3.4s-.3.7-.6 1.4l-.8 1.9c-.4.9-.6 1.4-.6 1.5 0 .1 0 .2.1.2s.2 0 .3-.1c.1 0 .4-.2.7-.4z"/><path class="st6" d="m44.1 132.5.7.1-.7 1.6c-.4.9-.6 1.4-.6 1.6v.1l.1.1h.2c.1-.1.3-.2.7-.5l.1.2c-.7.6-1.2.8-1.5.8-.1 0-.2-.1-.2-.2-.1-.1-.1-.2-.1-.3 0-.2.1-.4.2-.6-.3.3-.7.5-1.2.7-.3.1-.5.2-.7.1-.1 0-.2-.1-.2-.1-.1-.1-.1-.2 0-.4 0-.1.1-.2.1-.4.1-.2.2-.6.5-1.1.3-.7.5-1.2.5-1.3 0-.1 0-.1-.1-.1s-.1 0-.2.1c-.1 0-.3.2-.6.3l-.2-.2c.5-.3.8-.5 1.1-.6.2-.1.4-.1.6-.1.1 0 .1 0 .2.1v.3c0 .2-.2.7-.6 1.5-.3.7-.5 1.2-.5 1.3v.2c0 .1.1.1.1.1.2 0 .4-.1.8-.3.4-.2.6-.5.8-.9l.7-2.1zM46.7 133.5c.3-.2.6-.4.8-.5.3-.1.5-.1.7-.1.2 0 .4.1.5.3.1.2.1.5.1.8-.1.5-.2 1-.5 1.5s-.6.8-1 1c-.4.2-.8.3-1.1.3-.3 0-.5-.1-.7-.3-.2-.2-.2-.4-.2-.7 0-.2.1-.5.2-.9l.9-2.4c.2-.6.4-1 .7-1.3.2-.3.5-.5.9-.7.4-.2.7-.2 1-.2.2 0 .3.1.4.1.1.1.1.2.1.3 0 .1-.1.2-.1.2-.1.1-.2.1-.3.1-.1 0-.3-.1-.5-.1-.1 0-.2-.1-.3-.1-.2 0-.3.1-.4.2-.1.1-.2.4-.4 1l-.8 1.5zm1-.2c-.2 0-.3.1-.6.2-.2.2-.5.5-.7.9-.2.4-.4.9-.4 1.3 0 .2 0 .3.1.4.1.1.2.2.4.2.3 0 .7-.2 1-.7.3-.5.5-1.1.6-1.6 0-.2 0-.5-.1-.6-.1 0-.2-.1-.3-.1zM50 137l-.7-.1.5-1.2c.2-.6.4-1.2.6-1.7 0-.1.1-.2.1-.3 0-.1 0-.1-.1-.1 0 0-.1 0-.2.1s-.3.2-.6.4l-.1-.2c.3-.3.7-.5 1-.6.3-.1.6-.2.7-.2.1 0 .1 0 .1.1v.1s0 .1-.1.3l-.3.8c.4-.5.8-.9 1.2-1.2.2-.2.4-.2.5-.2.1 0 .2 0 .2.1.1.1.1.1.1.2s0 .2-.1.2c-.1.1-.2.1-.5.2-.2.1-.4.1-.6.2-.2.1-.3.2-.5.5-.2.2-.3.4-.4.6-.1.2-.2.5-.4 1.1l-.4.9zM52.6 134.4l-.2-.2c.3-.3.7-.5.9-.7.3-.1.5-.2.7-.2.1 0 .2 0 .2.1 0 0 .1.1.1.2s-.1.5-.4 1.1c-.4 1.1-.7 1.7-.7 2v.1l.1.1c.1 0 .4-.2.8-.5l.2.2c-.5.4-.8.6-1 .7-.2.1-.4.1-.5.1-.1 0-.2-.1-.3-.1-.1-.1-.1-.2-.1-.3 0-.4.4-1.3 1-2.8 0-.1 0-.1.1-.2 0-.1 0-.1-.1-.1s-.1 0-.2.1c-.1 0-.3.1-.6.4zm2.1-3c.1 0 .2 0 .2.1.1.1.1.2.1.3 0 .1-.1.3-.2.4-.1.1-.2.1-.3.1-.1 0-.2 0-.2-.1-.1-.1-.1-.2-.1-.3 0-.1.1-.3.2-.3.1-.2.2-.2.3-.2zM56.4 132.8l.8-.2-.4 1.3 1 .1-.1.3-1-.1-.5 1.6c-.2.5-.3.8-.3 1v.2l.1.1c.1 0 .3 0 .5-.1.3-.1.5-.3.8-.5l.2.2c-.7.5-1.2.8-1.5.9-.2.1-.4.1-.6.1-.1 0-.2-.1-.3-.1-.1-.1-.1-.2-.1-.4s.1-.6.3-1l.6-1.8-.8-.1.1-.3.8.1.4-1.3zM61.4 133.8h.3l-.4 1.2c-.2.5-.3 1-.5 1.6-.1.3-.1.5-.1.6 0 .1 0 .2.1.2s.1 0 .2-.1c.2-.1.4-.2.6-.4l.1.2c-.4.3-.6.5-.7.6l-.6.3c-.1 0-.2.1-.4 0-.1 0-.1 0-.2-.1 0 0-.1-.1-.1-.2v-.2l.2-.6c-.3.3-.6.6-1 .8-.2.1-.5.2-.6.2-.2 0-.3-.1-.4-.2-.1-.2-.2-.4-.2-.7 0-.3.1-.7.3-1.1.2-.4.5-.8.8-1.1.3-.3.6-.5 1-.7.3-.1.6-.1 1-.1h.3l.3-.2zm-.6.7c-.2 0-.3-.1-.4-.1-.3 0-.5 0-.8.2-.2.1-.4.4-.6.8-.2.4-.3.8-.3 1.2 0 .2 0 .4.1.5.1.1.2.1.3.2.2 0 .5-.1.7-.3.3-.2.5-.6.6-1l.4-1.5zM64.5 133.9c.3 0 .5.1.6.2.1.1.2.2.2.4 0 .1 0 .2-.1.2-.1.1-.1.1-.2.1h-.2l-.2-.2c-.1-.2-.3-.3-.4-.3-.1 0-.2 0-.3.1-.1.1-.2.2-.2.4 0 .1 0 .3.1.4.1.1.2.3.5.6.3.4.5.7.5 1.1 0 .3-.2.6-.5.9-.3.2-.7.4-1.1.3-.4 0-.7-.1-.8-.3-.2-.2-.3-.4-.3-.6 0-.1 0-.2.1-.3.1-.1.2-.1.3-.1.1 0 .2 0 .2.1.1.1.1.1.1.2v.2c0 .1 0 .2.1.3.1.1.2.1.3.1.2 0 .3 0 .5-.1.1-.1.2-.1.3-.3.1-.1.1-.2.1-.3 0-.1 0-.2-.1-.3-.1-.1-.2-.3-.4-.6-.3-.4-.5-.7-.5-1.1 0-.3.1-.6.4-.8.3-.2.6-.3 1-.3zM73.2 133.5h-.3v-.4c0-.1-.1-.2-.2-.2s-.5-.1-1.2-.1h-.7l-.5 2.1h1c.3 0 .5 0 .6-.1.1 0 .1-.2.2-.3h.3c-.1.4-.2.8-.3 1.3h-.2v-.3s0-.1-.1-.1c0 0-.1 0-.1-.1h-1.4c-.3 1.1-.6 1.9-.9 2.5.3-.1.6-.1.8-.1.4 0 .8.1 1.4.2.3.1.5.1.6.1.1 0 .3 0 .3-.1.1-.1.1-.1.1-.2s0-.1-.1-.2v-.2c0-.1 0-.1.1-.2s.1-.1.2-.1.2 0 .2.1c.1.1.1.2.1.3 0 .3-.1.5-.4.7-.2.2-.5.3-.9.3-.2 0-.5 0-.8-.1-.7-.1-1.2-.1-1.6-.1-.5 0-1 0-1.6.1l.1-.3c.4-.1.6-.2.7-.2.1 0 .1-.1.2-.2.2-.3.4-.9.6-1.8.2-.9.5-1.9.8-2.9-.4 0-.7.1-1.1.3-.3.2-.6.4-.8.7-.2.3-.3.6-.3.9v.4c0 .1.1.2.2.4.1.1.1.2.1.3 0 .1 0 .1-.1.2s-.1.1-.2.1-.2-.1-.3-.2c-.1-.2-.2-.4-.2-.7 0-.7.3-1.3.8-1.8s1.2-.8 2.2-.8h1.6c.6 0 1 0 1.2-.1.1.3 0 .7-.1.9zM75.3 133.3l.7-.3-.3 1.3h1l-.1.3h-1l-.4 1.6c-.1.5-.2.8-.2 1 0 .1 0 .1.1.2 0 0 .1.1.2.1s.2-.1.4-.2c.3-.2.5-.3.7-.5l.2.2c-.7.5-1.1.9-1.4 1-.2.1-.4.2-.6.2-.1 0-.2 0-.3-.1-.1-.1-.1-.2-.1-.4s.1-.6.2-1l.5-1.9h-.8l.1-.3h.8l.3-1.2zM83.1 132.1l-.1.3c-.4 0-.6.1-.7.2-.1 0-.1.1-.2.2s-.2.7-.4 1.8c-.1.4-.3 1.4-.6 3 .2.1.5.1.8.1l-.1.2h-1.4c-.4 0-.8.1-1.1.1v-.3c.3-.1.6-.2.8-.2l.1-.1c0-.1.1-.2.1-.3 0-.2.2-.9.5-2.1.1-.4.2-1.2.5-2.4-.2 0-.5 0-.8.1l.1-.3c.1 0 .3-.1.4-.1.1 0 .5 0 .9-.1.6 0 1 0 1.2-.1zM83.4 134.8l-.2-.2c.4-.4.7-.7.9-.8.2-.1.4-.2.6-.2h.2l.1.1v.2l-.2 1c.3-.4.7-.7 1.1-1.1.2-.2.5-.3.6-.3.1 0 .2 0 .3.1.1.1.1.2.1.3v.3c0 .2-.1.7-.3 1.4-.2.7-.2 1.1-.2 1.3v.1h.1c.1 0 .2-.1.4-.3l.4-.4.1.2c-.3.3-.6.6-.9.8-.2.1-.3.2-.5.2-.1 0-.2 0-.3-.1-.1-.1-.1-.2-.1-.4 0-.3.1-1 .4-2.1.1-.4.1-.6.1-.7 0-.1-.1-.1-.2-.1s-.3.1-.5.2c-.3.2-.5.5-.7.7-.1.2-.2.5-.3.8l-.3 1.7h-.7c.1-.5.2-.9.3-1.4l.3-1.8v-.2c0-.1 0-.1-.1-.1s-.1 0-.2.1c0 .3-.1.5-.3.7zM91.6 136.1l.1.2c-.4.4-.7.7-.9.8-.3.2-.5.3-.6.3H90c-.1 0-.1-.1-.1-.1v-.3l.1-.6c-.3.4-.6.7-.9.9-.2.2-.5.3-.7.3-.2 0-.3 0-.4-.2-.1-.1-.2-.3-.2-.6 0-.4.1-1 .3-1.6.3-.6.6-1.1.9-1.4.4-.3.7-.5 1-.5h.3c.1-.6.2-1.1.3-1.4.1-.3.3-.6.5-.8.2-.2.4-.4.7-.5.3-.1.5-.2.8-.2.1 0 .2 0 .3.1.1.1.1.1.1.2s0 .2-.1.2c-.1.1-.2.1-.3.1h-.8c-.1 0-.2.1-.3.1-.1.1-.1.2-.2.5 0 .1-.1.6-.2 1.4l-.4 2.9c0 .3-.1.6-.1.7 0 .1.1.2.2.2s.1 0 .2-.1l.6-.6zm-1.2-2.4h-.5c-.2 0-.4.1-.6.3-.2.2-.4.5-.5 1-.1.5-.2.9-.2 1.3 0 .2.1.3.2.4.1.1.2.1.3.1.1 0 .3-.1.4-.2.2-.2.4-.4.5-.7.1-.2.2-.6.2-1.2l.2-1zM95.3 132.7l.7-.1-.3 1.7c-.2 1-.2 1.5-.2 1.7 0 .1 0 .1.1.1h.1c.1 0 .1 0 .2-.1s.3-.3.5-.6l.2.2c-.6.7-1 1.1-1.3 1.1-.1 0-.2 0-.3-.1-.1-.1-.1-.2-.1-.3v-.7c-.2.4-.6.7-.9 1-.3.2-.5.3-.7.3-.1 0-.2 0-.3-.1-.1-.1-.1-.2-.1-.3v-.4c0-.2.1-.6.2-1.2.1-.8.2-1.2.2-1.4 0-.1 0-.1-.1-.1s-.1 0-.2.1l-.5.5-.2-.1.9-.9c.2-.1.4-.2.5-.2.1 0 .1 0 .2.1.1 0 .1.1.1.2 0 .2 0 .8-.2 1.6-.1.8-.2 1.2-.2 1.3 0 .1 0 .1.1.2l.1.1c.2 0 .4-.2.7-.5.3-.3.5-.7.5-1.1l.3-2zM98.6 132.1c.3 0 .5 0 .7.1.2.1.3.2.3.3 0 .1 0 .2-.1.2-.1.1-.1.1-.2.1h-.2l-.2-.2c-.2-.2-.3-.3-.5-.2-.1 0-.2.1-.3.2-.1.1-.1.2-.1.4 0 .1.1.2.1.4.1.1.3.3.6.5.4.3.6.6.7 1 0 .3-.1.6-.3.9-.2.3-.6.5-1 .5-.4.1-.7 0-.9-.1-.2-.1-.3-.3-.4-.5 0-.1 0-.2.1-.3.1-.1.1-.1.2-.1s.2 0 .2.1c.1 0 .1.1.1.2v.2c0 .1.1.2.2.2.1.1.2.1.4.1s.3-.1.4-.1l.3-.3c.1-.1.1-.2.1-.4 0-.1-.1-.2-.1-.3l-.5-.5c-.4-.3-.6-.6-.6-1 0-.3 0-.6.3-.9.1-.2.4-.4.7-.5zM100.9 131l.7-.4-.1 1.4 1-.2v.3l-1 .2-.2 1.6c-.1.5-.1.8 0 1 0 .1 0 .1.1.2h.2c.1 0 .2-.1.4-.2.2-.2.5-.4.7-.6l.2.2-1.2 1.2c-.2.2-.4.2-.5.3-.1 0-.2 0-.3-.1-.1-.1-.1-.2-.2-.4v-1.1l.2-1.9-.8.1v-.3l.8-.1V131zM104.5 135.2l-.7.1.1-1.3c0-.6.1-1.3.1-1.8v-.3c0-.1-.1-.1-.1-.1s-.1.1-.2.1c-.1.1-.2.3-.4.6l-.2-.1c.2-.4.5-.7.8-.9.3-.2.5-.3.6-.4h.1s.1 0 .1.1v1.2c.2-.6.5-1 .8-1.5.2-.2.3-.3.4-.3h.2c.1 0 .1.1.1.2s0 .2-.1.2c0 .1-.2.2-.4.3-.2.1-.4.2-.5.4-.1.1-.3.3-.4.6-.1.3-.2.5-.3.7 0 .2-.1.6-.1 1.2l.1 1zM106.2 131.9l-.2-.1c.2-.4.5-.7.7-.9.2-.2.4-.3.6-.4h.2c.1 0 .1.1.1.2s0 .5-.1 1.2c-.1 1.2-.1 1.9-.1 2.1 0 0 0 .1.1.1h.1c.1 0 .3-.3.6-.7l.2.1c-.3.5-.6.8-.8 1-.2.2-.3.2-.4.3h-.3c-.1-.1-.1-.1-.2-.3-.1-.4 0-1.4.1-3v-.2c0-.1 0-.1-.1-.1s-.1.1-.2.1c.1.1-.1.3-.3.6zm1.2-3.4h.3c.1.1.1.1.1.2s0 .3-.1.4c-.1.1-.2.2-.3.2h-.3c-.1-.1-.1-.1-.1-.2s0-.3.1-.4c.1-.1.2-.2.3-.2zM111.3 129.6l.3-.1-.1 1.2v2.4c0 .1.1.1.1.1l.2-.2c.2-.2.3-.3.4-.6l.2.1c-.3.4-.5.7-.5.7-.2.2-.3.3-.5.4-.1.1-.2.1-.3.1h-.2l-.1-.1V132.7c-.2.4-.4.7-.8 1-.2.2-.4.3-.6.4-.2 0-.3 0-.5-.1s-.3-.3-.4-.6c-.1-.3-.1-.7 0-1.2.1-.4.2-.9.4-1.3s.5-.7.8-.9c.2-.2.5-.3.9-.4.1 0 .2 0 .3-.1l.4.1zm-.4.8h-.4c-.3.1-.5.2-.7.4-.2.2-.3.5-.4 1-.1.4-.1.9 0 1.2 0 .2.1.4.2.4.1.1.2.1.3.1.2-.1.4-.2.6-.5.2-.3.3-.7.3-1.1l.1-1.5z"/><path class="st7" d="M70.6 130.6s-4.7-14.2-23.8-8.9"/><path class="st8" d="M65.3 123.5s-3.2-1.8-1.6-6c0 .1 3.5 3.1 1.6 6z"/><path class="st8" d="M64.8 122.8s-1.3 3.4-5.7 2.5c0 0 2.6-3.9 5.7-2.5zM62.6 122.1s-4.1-1-3.6-6.2c.1 0 4.8 2.4 3.6 6.2z"/><path class="st8" d="M60.6 121.3s-1.3 4-6.4 3c0 0 2.7-4.5 6.4-3zM58.4 120.6s-4.2.3-5.2-4.8c0 0 5.3.8 5.2 4.8zM55.4 120.5s-.9 3.6-5.4 3.1c.1.1 2.1-4.1 5.4-3.1z"/><path class="st8" d="M54 120.7s-3.7.3-4.6-4.1c0 0 4.6.7 4.6 4.1zM50.6 120.8s-.9 3.6-5.4 3.1c0 0 2.1-4.2 5.4-3.1z"/><path class="st8" d="M50.1 120.7s-3.4 1.3-5.6-2.6c0 0 4.6-.7 5.6 2.6z"/><path class="st8" d="M47.3 121.4s-2.6 2.6-6.2 0c0-.1 3.9-2.6 6.2 0z"/><path class="st7" d="M70.5 130.6s4.7-14.2 23.8-8.9"/><path class="st8" d="M75.8 123.5s3.2-1.8 1.6-6c0 .1-3.5 3.1-1.6 6z"/><path class="st8" d="M76.3 122.8s1.3 3.4 5.7 2.5c0 0-2.6-3.9-5.7-2.5zM78.5 122.1s4.1-1 3.6-6.2c-.1 0-4.8 2.4-3.6 6.2z"/><path class="st8" d="M80.5 121.3s1.3 4 6.4 3c0 0-2.7-4.5-6.4-3zM82.7 120.6s4.2.3 5.2-4.8c0 0-5.3.8-5.2 4.8zM85.7 120.5s.9 3.6 5.4 3.1c-.1.1-2.1-4.1-5.4-3.1z"/><path class="st8" d="M87.1 120.7s3.7.3 4.6-4.1c0 0-4.6.7-4.6 4.1zM90.5 120.8s.9 3.6 5.4 3.1c0 0-2.1-4.2-5.4-3.1z"/><path class="st8" d="M91 120.7s3.4 1.3 5.6-2.6c0 0-4.6-.7-5.6 2.6z"/><path class="st8" d="M93.8 121.4s2.6 2.6 6.2 0c0-.1-3.9-2.6-6.2 0z"/><path class="st9" d="M15.7 114.9s3.8 1.9 10.9 4.5c3.2 1.1 12.8 3.5 11.7 4.4-.5 1.5-4.2 11.9-4.2 11.9s-9-3.7-14.9-5.9c-4.3-1.6-11.2-4.1-11.2-4.1l13.8-.8-6.1-10z"/><path class="st10" d="M29.4 123.1c-.3-1.2 10.5 1.4 9.1.2.9.7-.5 3.1-.9 4.1-2.6 5.7-7.6 8.4-13 6.9.3-3.7 3.8-7.5 4.7-10.7l.1-.5z"/><path class="st9" d="M125.4 114.9s-3.8 1.9-10.9 4.5c-3.2 1.1-12.8 3.5-11.7 4.4.5 1.5 4.2 11.9 4.2 11.9s9-3.7 14.9-5.9c4.3-1.6 11.2-4.1 11.2-4.1l-13.8-.8 6.1-10z"/><path class="st10" d="M111.7 123.1c.3-1.2-10.5 1.4-9.1.2-.9.7.5 3.1.9 4.1 2.6 5.7 7.6 8.4 13 6.9-.3-3.7-3.8-7.5-4.7-10.7l-.1-.5z"/><path d="M70.8 140.7c25.5.2 45.3-4.6 45.7-6.4.7-3.3-1-7.7-5-11.1.1 2.8-22.7 6.3-40.9 6.1-18.1.2-40.9-3.3-40.9-6.1-4 3.4-5.7 7.8-5 11.1.4 1.8 20.2 6.6 45.7 6.4h.4z" style="fill:#ee3524;stroke:#ad8505;stroke-width:1.8849;stroke-miterlimit:2.3662"/><path class="st6" d="m34 130.8-.2-.1c.1-.3.2-.6.2-.7.1-.2 0-.4-.1-.6-.1-.2-.3-.3-.5-.3-.3-.1-.7 0-1 .2-.3.2-.5.4-.6.7v.5c0 .1.1.4.3.7.3.5.5.9.6 1.2.1.3.1.5 0 .8-.1.3-.3.6-.5.9-.3.3-.6.4-1.1.6-.4.1-.9.1-1.3 0s-.8-.3-1-.6c-.2-.3-.3-.6-.3-.8 0-.1.1-.2.2-.3.1-.1.2-.1.3-.1.1 0 .2.1.2.2s0 .2.1.4c0 .2 0 .4.1.5 0 .1.1.2.2.3.1.1.2.2.4.2.4.1.9 0 1.3-.2s.6-.5.7-.9v-.4c0-.1-.1-.3-.1-.5-.1-.1-.2-.3-.4-.7-.2-.3-.3-.5-.4-.6-.1-.2-.1-.3-.1-.5v-.4c.1-.3.2-.5.5-.8.3-.2.6-.4.9-.5.3-.1.7-.1 1.1 0 .2 0 .4.1.7.3.2.1.3.1.4.2-.1.2-.2.4-.3.5 0-.1-.1.3-.3.8zM37.6 131.2h.3l-.6 1.1c-.2.4-.5 1-.7 1.5-.1.3-.2.5-.2.6 0 .1 0 .2.1.2 0 0 .1 0 .3-.1l.6-.3.1.2c-.4.3-.7.4-.8.5-.2.1-.4.2-.6.2h-.4c-.1 0-.1 0-.2-.1v-.2s0-.1.1-.2l.3-.6c-.3.3-.7.5-1.1.6-.3.1-.5.1-.7.1-.2 0-.3-.1-.4-.3-.1-.2-.1-.4-.1-.7.1-.3.2-.7.5-1 .3-.4.6-.7.9-1 .4-.3.7-.5 1.1-.5.3-.1.6-.1 1 0 .1 0 .2 0 .3.1l.2-.1zm-.7.6c-.2-.1-.3-.1-.4-.1-.3-.1-.5 0-.8.1-.2.1-.5.4-.7.7-.3.4-.4.7-.5 1.1v.5c.1.1.1.2.3.2.2 0 .5 0 .8-.2.3-.2.5-.5.7-.9l.6-1.4zM40 134.6l.1.2c-.3.2-.6.4-1 .6-.4.2-.7.2-.9.2-.1 0-.2-.1-.2-.2s-.1-.2 0-.3c0-.2.2-.7.6-1.5l.9-2c.3-.7.5-1.2.7-1.4.3-.4.6-.6 1-.8.4-.2.8-.2 1.2-.1.1 0 .2.1.3.1.1.1.1.2.1.3 0 .1-.1.2-.2.2-.1.1-.2.1-.3 0-.1 0-.2-.1-.4-.1-.1 0-.3-.1-.4-.1h-.3c-.1.1-.2.2-.3.4s-.3.7-.6 1.4l-.8 1.9c-.4.9-.6 1.4-.6 1.5 0 .1 0 .2.1.2s.2 0 .3-.1c.1 0 .4-.2.7-.4z"/><path class="st6" d="m44.1 132.5.7.1-.7 1.6c-.4.9-.6 1.4-.6 1.6v.1l.1.1h.2c.1-.1.3-.2.7-.5l.1.2c-.7.6-1.2.8-1.5.8-.1 0-.2-.1-.2-.2-.1-.1-.1-.2-.1-.3 0-.2.1-.4.2-.6-.3.3-.7.5-1.2.7-.3.1-.5.2-.7.1-.1 0-.2-.1-.2-.1-.1-.1-.1-.2 0-.4 0-.1.1-.2.1-.4.1-.2.2-.6.5-1.1.3-.7.5-1.2.5-1.3 0-.1 0-.1-.1-.1s-.1 0-.2.1c-.1 0-.3.2-.6.3l-.2-.2c.5-.3.8-.5 1.1-.6.2-.1.4-.1.6-.1.1 0 .1 0 .2.1v.3c0 .2-.2.7-.6 1.5-.3.7-.5 1.2-.5 1.3v.2c0 .1.1.1.1.1.2 0 .4-.1.8-.3.4-.2.6-.5.8-.9l.7-2.1zM46.7 133.5c.3-.2.6-.4.8-.5.3-.1.5-.1.7-.1.2 0 .4.1.5.3.1.2.1.5.1.8-.1.5-.2 1-.5 1.5s-.6.8-1 1c-.4.2-.8.3-1.1.3-.3 0-.5-.1-.7-.3-.2-.2-.2-.4-.2-.7 0-.2.1-.5.2-.9l.9-2.4c.2-.6.4-1 .7-1.3.2-.3.5-.5.9-.7.4-.2.7-.2 1-.2.2 0 .3.1.4.1.1.1.1.2.1.3 0 .1-.1.2-.1.2-.1.1-.2.1-.3.1-.1 0-.3-.1-.5-.1-.1 0-.2-.1-.3-.1-.2 0-.3.1-.4.2-.1.1-.2.4-.4 1l-.8 1.5zm1-.2c-.2 0-.3.1-.6.2-.2.2-.5.5-.7.9-.2.4-.4.9-.4 1.3 0 .2 0 .3.1.4.1.1.2.2.4.2.3 0 .7-.2 1-.7.3-.5.5-1.1.6-1.6 0-.2 0-.5-.1-.6-.1 0-.2-.1-.3-.1zM50 137l-.7-.1.5-1.2c.2-.6.4-1.2.6-1.7 0-.1.1-.2.1-.3 0-.1 0-.1-.1-.1 0 0-.1 0-.2.1s-.3.2-.6.4l-.1-.2c.3-.3.7-.5 1-.6.3-.1.6-.2.7-.2.1 0 .1 0 .1.1v.1s0 .1-.1.3l-.3.8c.4-.5.8-.9 1.2-1.2.2-.2.4-.2.5-.2.1 0 .2 0 .2.1.1.1.1.1.1.2s0 .2-.1.2c-.1.1-.2.1-.5.2-.2.1-.4.1-.6.2-.2.1-.3.2-.5.5-.2.2-.3.4-.4.6-.1.2-.2.5-.4 1.1l-.4.9zM52.6 134.4l-.2-.2c.3-.3.7-.5.9-.7.3-.1.5-.2.7-.2.1 0 .2 0 .2.1 0 0 .1.1.1.2s-.1.5-.4 1.1c-.4 1.1-.7 1.7-.7 2v.1l.1.1c.1 0 .4-.2.8-.5l.2.2c-.5.4-.8.6-1 .7-.2.1-.4.1-.5.1-.1 0-.2-.1-.3-.1-.1-.1-.1-.2-.1-.3 0-.4.4-1.3 1-2.8 0-.1 0-.1.1-.2 0-.1 0-.1-.1-.1s-.1 0-.2.1c-.1 0-.3.1-.6.4zm2.1-3c.1 0 .2 0 .2.1.1.1.1.2.1.3 0 .1-.1.3-.2.4-.1.1-.2.1-.3.1-.1 0-.2 0-.2-.1-.1-.1-.1-.2-.1-.3 0-.1.1-.3.2-.3.1-.2.2-.2.3-.2zM56.4 132.8l.8-.2-.4 1.3 1 .1-.1.3-1-.1-.5 1.6c-.2.5-.3.8-.3 1v.2l.1.1c.1 0 .3 0 .5-.1.3-.1.5-.3.8-.5l.2.2c-.7.5-1.2.8-1.5.9-.2.1-.4.1-.6.1-.1 0-.2-.1-.3-.1-.1-.1-.1-.2-.1-.4s.1-.6.3-1l.6-1.8-.8-.1.1-.3.8.1.4-1.3zM61.4 133.8h.3l-.4 1.2c-.2.5-.3 1-.5 1.6-.1.3-.1.5-.1.6 0 .1 0 .2.1.2s.1 0 .2-.1c.2-.1.4-.2.6-.4l.1.2c-.4.3-.6.5-.7.6l-.6.3c-.1 0-.2.1-.4 0-.1 0-.1 0-.2-.1 0 0-.1-.1-.1-.2v-.2l.2-.6c-.3.3-.6.6-1 .8-.2.1-.5.2-.6.2-.2 0-.3-.1-.4-.2-.1-.2-.2-.4-.2-.7 0-.3.1-.7.3-1.1.2-.4.5-.8.8-1.1.3-.3.6-.5 1-.7.3-.1.6-.1 1-.1h.3l.3-.2zm-.6.7c-.2 0-.3-.1-.4-.1-.3 0-.5 0-.8.2-.2.1-.4.4-.6.8-.2.4-.3.8-.3 1.2 0 .2 0 .4.1.5.1.1.2.1.3.2.2 0 .5-.1.7-.3.3-.2.5-.6.6-1l.4-1.5zM64.5 133.9c.3 0 .5.1.6.2.1.1.2.2.2.4 0 .1 0 .2-.1.2-.1.1-.1.1-.2.1h-.2l-.2-.2c-.1-.2-.3-.3-.4-.3-.1 0-.2 0-.3.1-.1.1-.2.2-.2.4 0 .1 0 .3.1.4.1.1.2.3.5.6.3.4.5.7.5 1.1 0 .3-.2.6-.5.9-.3.2-.7.4-1.1.3-.4 0-.7-.1-.8-.3-.2-.2-.3-.4-.3-.6 0-.1 0-.2.1-.3.1-.1.2-.1.3-.1.1 0 .2 0 .2.1.1.1.1.1.1.2v.2c0 .1 0 .2.1.3.1.1.2.1.3.1.2 0 .3 0 .5-.1.1-.1.2-.1.3-.3.1-.1.1-.2.1-.3 0-.1 0-.2-.1-.3-.1-.1-.2-.3-.4-.6-.3-.4-.5-.7-.5-1.1 0-.3.1-.6.4-.8.3-.2.6-.3 1-.3zM73.2 133.5h-.3v-.4c0-.1-.1-.2-.2-.2s-.5-.1-1.2-.1h-.7l-.5 2.1h1c.3 0 .5 0 .6-.1.1 0 .1-.2.2-.3h.3c-.1.4-.2.8-.3 1.3h-.2v-.3s0-.1-.1-.1c0 0-.1 0-.1-.1h-1.4c-.3 1.1-.6 1.9-.9 2.5.3-.1.6-.1.8-.1.4 0 .8.1 1.4.2.3.1.5.1.6.1.1 0 .3 0 .3-.1.1-.1.1-.1.1-.2s0-.1-.1-.2v-.2c0-.1 0-.1.1-.2s.1-.1.2-.1.2 0 .2.1c.1.1.1.2.1.3 0 .3-.1.5-.4.7-.2.2-.5.3-.9.3-.2 0-.5 0-.8-.1-.7-.1-1.2-.1-1.6-.1-.5 0-1 0-1.6.1l.1-.3c.4-.1.6-.2.7-.2.1 0 .1-.1.2-.2.2-.3.4-.9.6-1.8.2-.9.5-1.9.8-2.9-.4 0-.7.1-1.1.3-.3.2-.6.4-.8.7-.2.3-.3.6-.3.9v.4c0 .1.1.2.2.4.1.1.1.2.1.3 0 .1 0 .1-.1.2s-.1.1-.2.1-.2-.1-.3-.2c-.1-.2-.2-.4-.2-.7 0-.7.3-1.3.8-1.8s1.2-.8 2.2-.8h1.6c.6 0 1 0 1.2-.1.1.3 0 .7-.1.9zM75.3 133.3l.7-.3-.3 1.3h1l-.1.3h-1l-.4 1.6c-.1.5-.2.8-.2 1 0 .1 0 .1.1.2 0 0 .1.1.2.1s.2-.1.4-.2c.3-.2.5-.3.7-.5l.2.2c-.7.5-1.1.9-1.4 1-.2.1-.4.2-.6.2-.1 0-.2 0-.3-.1-.1-.1-.1-.2-.1-.4s.1-.6.2-1l.5-1.9h-.8l.1-.3h.8l.3-1.2zM83.1 132.1l-.1.3c-.4 0-.6.1-.7.2-.1 0-.1.1-.2.2s-.2.7-.4 1.8c-.1.4-.3 1.4-.6 3 .2.1.5.1.8.1l-.1.2h-1.4c-.4 0-.8.1-1.1.1v-.3c.3-.1.6-.2.8-.2l.1-.1c0-.1.1-.2.1-.3 0-.2.2-.9.5-2.1.1-.4.2-1.2.5-2.4-.2 0-.5 0-.8.1l.1-.3c.1 0 .3-.1.4-.1.1 0 .5 0 .9-.1.6 0 1 0 1.2-.1zM83.4 134.8l-.2-.2c.4-.4.7-.7.9-.8.2-.1.4-.2.6-.2h.2l.1.1v.2l-.2 1c.3-.4.7-.7 1.1-1.1.2-.2.5-.3.6-.3.1 0 .2 0 .3.1.1.1.1.2.1.3v.3c0 .2-.1.7-.3 1.4-.2.7-.2 1.1-.2 1.3v.1h.1c.1 0 .2-.1.4-.3l.4-.4.1.2c-.3.3-.6.6-.9.8-.2.1-.3.2-.5.2-.1 0-.2 0-.3-.1-.1-.1-.1-.2-.1-.4 0-.3.1-1 .4-2.1.1-.4.1-.6.1-.7 0-.1-.1-.1-.2-.1s-.3.1-.5.2c-.3.2-.5.5-.7.7-.1.2-.2.5-.3.8l-.3 1.7h-.7c.1-.5.2-.9.3-1.4l.3-1.8v-.2c0-.1 0-.1-.1-.1s-.1 0-.2.1c0 .3-.1.5-.3.7zM91.6 136.1l.1.2c-.4.4-.7.7-.9.8-.3.2-.5.3-.6.3H90c-.1 0-.1-.1-.1-.1v-.3l.1-.6c-.3.4-.6.7-.9.9-.2.2-.5.3-.7.3-.2 0-.3 0-.4-.2-.1-.1-.2-.3-.2-.6 0-.4.1-1 .3-1.6.3-.6.6-1.1.9-1.4.4-.3.7-.5 1-.5h.3c.1-.6.2-1.1.3-1.4.1-.3.3-.6.5-.8.2-.2.4-.4.7-.5.3-.1.5-.2.8-.2.1 0 .2 0 .3.1.1.1.1.1.1.2s0 .2-.1.2c-.1.1-.2.1-.3.1h-.8c-.1 0-.2.1-.3.1-.1.1-.1.2-.2.5 0 .1-.1.6-.2 1.4l-.4 2.9c0 .3-.1.6-.1.7 0 .1.1.2.2.2s.1 0 .2-.1l.6-.6zm-1.2-2.4h-.5c-.2 0-.4.1-.6.3-.2.2-.4.5-.5 1-.1.5-.2.9-.2 1.3 0 .2.1.3.2.4.1.1.2.1.3.1.1 0 .3-.1.4-.2.2-.2.4-.4.5-.7.1-.2.2-.6.2-1.2l.2-1zM95.3 132.7l.7-.1-.3 1.7c-.2 1-.2 1.5-.2 1.7 0 .1 0 .1.1.1h.1c.1 0 .1 0 .2-.1s.3-.3.5-.6l.2.2c-.6.7-1 1.1-1.3 1.1-.1 0-.2 0-.3-.1-.1-.1-.1-.2-.1-.3v-.7c-.2.4-.6.7-.9 1-.3.2-.5.3-.7.3-.1 0-.2 0-.3-.1-.1-.1-.1-.2-.1-.3v-.4c0-.2.1-.6.2-1.2.1-.8.2-1.2.2-1.4 0-.1 0-.1-.1-.1s-.1 0-.2.1l-.5.5-.2-.1.9-.9c.2-.1.4-.2.5-.2.1 0 .1 0 .2.1.1 0 .1.1.1.2 0 .2 0 .8-.2 1.6-.1.8-.2 1.2-.2 1.3 0 .1 0 .1.1.2l.1.1c.2 0 .4-.2.7-.5.3-.3.5-.7.5-1.1l.3-2zM98.6 132.1c.3 0 .5 0 .7.1.2.1.3.2.3.3 0 .1 0 .2-.1.2-.1.1-.1.1-.2.1h-.2l-.2-.2c-.2-.2-.3-.3-.5-.2-.1 0-.2.1-.3.2-.1.1-.1.2-.1.4 0 .1.1.2.1.4.1.1.3.3.6.5.4.3.6.6.7 1 0 .3-.1.6-.3.9-.2.3-.6.5-1 .5-.4.1-.7 0-.9-.1-.2-.1-.3-.3-.4-.5 0-.1 0-.2.1-.3.1-.1.1-.1.2-.1s.2 0 .2.1c.1 0 .1.1.1.2v.2c0 .1.1.2.2.2.1.1.2.1.4.1s.3-.1.4-.1l.3-.3c.1-.1.1-.2.1-.4 0-.1-.1-.2-.1-.3l-.5-.5c-.4-.3-.6-.6-.6-1 0-.3 0-.6.3-.9.1-.2.4-.4.7-.5zM100.9 131l.7-.4-.1 1.4 1-.2v.3l-1 .2-.2 1.6c-.1.5-.1.8 0 1 0 .1 0 .1.1.2h.2c.1 0 .2-.1.4-.2.2-.2.5-.4.7-.6l.2.2-1.2 1.2c-.2.2-.4.2-.5.3-.1 0-.2 0-.3-.1-.1-.1-.1-.2-.2-.4v-1.1l.2-1.9-.8.1v-.3l.8-.1V131zM104.5 135.2l-.7.1.1-1.3c0-.6.1-1.3.1-1.8v-.3c0-.1-.1-.1-.1-.1s-.1.1-.2.1c-.1.1-.2.3-.4.6l-.2-.1c.2-.4.5-.7.8-.9.3-.2.5-.3.6-.4h.1s.1 0 .1.1v1.2c.2-.6.5-1 .8-1.5.2-.2.3-.3.4-.3h.2c.1 0 .1.1.1.2s0 .2-.1.2c0 .1-.2.2-.4.3-.2.1-.4.2-.5.4-.1.1-.3.3-.4.6-.1.3-.2.5-.3.7 0 .2-.1.6-.1 1.2l.1 1zM106.2 131.9l-.2-.1c.2-.4.5-.7.7-.9.2-.2.4-.3.6-.4h.2c.1 0 .1.1.1.2s0 .5-.1 1.2c-.1 1.2-.1 1.9-.1 2.1 0 0 0 .1.1.1h.1c.1 0 .3-.3.6-.7l.2.1c-.3.5-.6.8-.8 1-.2.2-.3.2-.4.3h-.3c-.1-.1-.1-.1-.2-.3-.1-.4 0-1.4.1-3v-.2c0-.1 0-.1-.1-.1s-.1.1-.2.1c.1.1-.1.3-.3.6zm1.2-3.4h.3c.1.1.1.1.1.2s0 .3-.1.4c-.1.1-.2.2-.3.2h-.3c-.1-.1-.1-.1-.1-.2s0-.3.1-.4c.1-.1.2-.2.3-.2zM111.3 129.6l.3-.1-.1 1.2v2.4c0 .1.1.1.1.1l.2-.2c.2-.2.3-.3.4-.6l.2.1c-.3.4-.5.7-.5.7-.2.2-.3.3-.5.4-.1.1-.2.1-.3.1h-.2l-.1-.1V132.7c-.2.4-.4.7-.8 1-.2.2-.4.3-.6.4-.2 0-.3 0-.5-.1s-.3-.3-.4-.6c-.1-.3-.1-.7 0-1.2.1-.4.2-.9.4-1.3s.5-.7.8-.9c.2-.2.5-.3.9-.4.1 0 .2 0 .3-.1l.4.1zm-.4.8h-.4c-.3.1-.5.2-.7.4-.2.2-.3.5-.4 1-.1.4-.1.9 0 1.2 0 .2.1.4.2.4.1.1.2.1.3.1.2-.1.4-.2.6-.5.2-.3.3-.7.3-1.1l.1-1.5z"/><path class="st12" d="M115 71.1s2.9 8.6 4.8 11.9c1.9 3.2 5.1 17.9 1.1 22.5-4 4.6-9.9 10.2-15 9-5.1-1.2-12-4.5-14.8-5.3-2.8-.8-11.6.8-13.4 1.9-1.9 1.1-6.8 3.7-6.8 3.7l-.2-43.5 44.3-.2z"/><path class="st12" d="M26.1 71.4s3.6-11.5.4-23.1l-7.2-18.1 51.6.6-.2 40.8-44.6-.2z"/><path class="st13" d="m50.2 51.8.3.6v.1l.1.2-1.6 4.4s-.3.3-.2.5l-.1.1s-.1.1-.1.2l-.1.1s-.1.2 0 .3l-.6.8s-.1.5.1.4l.9.1s.5-.3.5-.4v-.6s-.1-.5 0-.9c0 0 .2-.3.2-.5l.2-.8 1.3-3.2.3-.6.1-.1v-.2s.3-.5.1-.9c0-.1-.4-.6-.8-.3l-.6.7z"/><path class="st14" d="M45.3 60.4s-.2-.5.2-.8l.2-.2s.1-.2.4-.2H47.6v-.1h.5l.1.1V59.5H48s-.1 0-.2-.1h-.1l-1.3.2s-.3.2-.5.1c0 0-.7.3-.6.7z"/><path class="st14" d="M45.9 60.8s-.3-.5 0-.9l.2-.3s.1-.2.3-.3l.6-.1.4-.1.2-.1h.1l.1-.1v-.1l.2-.1h.2l.1.1.1.1v.2h-.5l-1.2.4s-.2.3-.4.2c.1.4-.6.8-.4 1.1z"/><path class="st14" d="M46.7 61.4s-.4-.4-.1-.8l.1-.3s0-.2.3-.3l.6-.2.4-.2.2-.1.1-.1.1-.1v-.1l.2-.1h.2l.1.1.1.1V59.6l-.1.1H48.6l-1.1.6s-.2.3-.4.3c-.1-.1-.6.5-.4.8z"/><path class="st15" d="M50.6 60.3s.1-.6-.1-.8l-.1-.2s-.1-.2-.2-.2h-.7V59h-.1v.6h.1l.1-.1.7.2s.1.2.2.1c-.2-.2.2.1.1.5z"/><path class="st13" d="M46.6 57.1s-.3.3-.2.5l-.1.1s-.1.1-.1.2l-.1.1s-.1.2 0 .3l-.6.8s-.1.5.1.4l.9.1s.5-.3.5-.4v-.6s-.1-.5 0-.9c0 0 .2-.3.2-.5l.2-.8 1.3-3.2.3-.6.1-.1v-.2s.3-.5.1-.9c0-.1-.4-.6-.8-.3l-.5.5.3.6v.1l.1.2"/><path class="st14" d="M42.9 60.3s-.2-.5.2-.8l.2-.2s.1-.2.4-.2H45.2V59h.5l.1.1V59.4h-.2s-.1 0-.2-.1h-.1l-1.3.2s-.3.2-.5.1c-.1 0-.8.4-.6.7z"/><path class="st14" d="M43.5 60.8s-.3-.5 0-.9l.2-.3s.1-.2.3-.3l.6-.1.4-.1.2-.1h.1l.1-.1v-.1h.1l.2-.1h.2l.1.1.1.1v.2h-.5l-1.2.4s-.2.3-.4.2c-.1.3-.7.7-.5 1.1z"/><path class="st14" d="M44.3 61.3s-.4-.4-.1-.8l.1-.3s0-.2.3-.3l.6-.2.4-.2.2-.1.1-.1.1-.1v-.1l.2-.1h.2l.1.1.1.1v.2l-.1.1-.1.1H46.1l-1.1.6s-.2.3-.4.3c0 0-.6.5-.3.8z"/><path class="st15" d="M48.2 60.2s.1-.6-.1-.8l-.1-.2s-.1-.2-.2-.2H47v-.1h-.1v.6h.1l.1-.1.6.2s.1.2.2.1c0-.1.3.2.3.5z"/><path d="M36.8 41.8s.2-.7.4-1c0 0 .5-.8 1.6-1.2 0 0 1.5-.6 2.6-.4 0 0 1.5.2 3.3 1.2 0 0 1.6.8 2.6 1.1 0 0 3.6 1.2 5 2.1l.2.1s4.1-1.8 6.4-2.5c0 0 2.7-.9 3.6-.9H64s.2 0 .2.2c0 0-.1.2-1 .4 0 0-.4.1-.4.3 0 0 .4.5-1 .6 0 0-2.9.9-3.8 1.4l-2 2.4s-1.7 2.6-2.2 3.9c0 0 .1.7-.6 1.4l-.7 1.4-1.4.4s-.1-.7-.5-.5l-.5.2s-8 2.8-11-3.6c0 0-.8-1.8-.5-2.9 0 0 .1-.7-.7-1.6 0 0-.8-1-.9-1.1-.2-.3-.5-.9-.2-1.4z" style="fill:#fff;stroke:#fff;stroke-width:5.779600e-02"/><path class="st17" d="M51.9 43.7c.9-.1 2.6.8 2.6.8s.1.1.2.1.7.7.5.7c1.9 1 1.3 1.2 1.3 1.2-.1-.1-.4-.1-.5-.1-.2 0 .1.1.1.1s.8.3.7.2c.1 0 .5.5.5.5s1 1 1.1 1c-.7 0-2.2-.2-2.2-.2-1 .3-3.5.3-3.4.3-.6.3-2.7.1-2.6.1-2.6.1-4.6-1.2-4.6-1.2s-.9-.6-.9-1.6"/><path class="st17" d="M51.5 48.1c1.3-.5-.6-1.9-.6-1.9s4.3.3 5.5.6"/><path d="M34.9 42.9s0-.8 1.6-1l.4-.1s.3-.1.5.2c0 0 .3.2 1.1.1 0 0-.8.3-1 .6 0 0-.7.3-1.3.2h-1.3z" style="fill:#fff;stroke:#ee3524;stroke-width:.1779"/><ellipse class="st12" cx="40.6" cy="41.2" rx=".7" ry=".6"/><path style="fill:none;stroke:#ad8505;stroke-width:2.8345" d="M20.3 30.7h101.3"/><path style="fill:none;stroke:#ad8505;stroke-width:2.5376" d="M26.2 71.2h88.6"/><path style="fill:none;stroke:#ad8505;stroke-width:2.4708" d="M70.7 30.7v84"/><path class="st8" d="m121.5 31-5.7 13.6-86.7 68.7-6.9-4.7-2.9-6.4 90.1-71.5z"/><path class="st0" d="M25.6 108.2c.5.3 1.6.8 2.3.3.4-.3.4-.8.1-1.3-.4-.4-.8-.5-1.4-.3h-.1c-.8.2-1.8.3-2.4-.5-.7-.9-.6-2 .5-2.9.2-.2.5-.3.7-.4.2-.1.3-.1.5-.2l1.1 1.1-.3.3c-.5-.4-1.2-.7-1.8-.3-.4.3-.4.8-.1 1.1.3.4.7.4 1.4.2h.2c.9-.2 1.8-.3 2.5.6.7.9.6 2.2-.5 3-.3.2-.6.4-.9.5-.3.1-.5.1-.6.2-.3-.3-.7-.6-1.2-1.1v-.3zM28.5 100.9l-.2.2c-.2.2-.2.3.1.6l2.7 2-1.6-3.9.5-.4 3.6 2.4c-.4-1.1-1-2.3-1.3-2.9-.2-.5-.3-.6-.7-.4l-.3.2-.2-.3 1.7-1.3.2.3c-.3.4-.4.4-.1 1.3 0 .1.9 2.3 1.9 4.8l-.5.4-3.5-2.2 1.5 3.8-.5.4-4.3-3c-.7-.5-.8-.4-1.2-.2l-.2-.3 2.2-1.8.2.3zM37.7 99.2c.6.8.7.8 1.3.5l.2.3-2.3 1.8-.2-.3c.5-.4.5-.5-.2-1.3l-2-2.5c-.6-.8-.7-.8-1.3-.5l-.2-.3 2.3-1.8.2.3c-.5.4-.5.5.2 1.3l2 2.5zM43.9 96.3l-.6.5-5.4-1.5 1.1 1.4c.6.8 1 1.2 1.2 1.4.2.2.5.2 1-.2l.2.3-1.8 1.4-.2-.3c.3-.3.4-.5.2-.8-.2-.3-.5-.7-1.1-1.5l-1.1-1.4c-.4-.6-.5-.6-.8-.7-.2-.1-.5 0-.7.2l-.2-.3 1.6-1.2 4.8 1.3-.8-1c-.6-.8-1-1.2-1.2-1.4-.2-.2-.5-.2-1 .2l-.2-.3 1.8-1.4.2.3c-.3.3-.4.5-.3.8.2.3.5.7 1.1 1.5l2.2 2.7zM43 89c.9-.7 1.7-1.1 2.6-1 .6.1 1.3.4 1.8 1.1 1.5 1.9.8 3.7-.9 5l-1.8 1.4-.2-.3c.5-.5.5-.6-.1-1.4l-2-2.5c-.6-.8-.7-.8-1.2-.5l-.2-.3 2-1.5zm2.6 4c.5.7.8.7 1.1.4.6-.5.7-1.7-.4-3-1.3-1.6-2.4-1.5-3-1-.2.1-.2.2-.3.3 0 0 .1.2.3.4l2.3 2.9zM52.9 85c1.3 1.6 1 3.4-.3 4.5-1.4 1.1-3.2.8-4.3-.6-1-1.2-1.3-3.2.4-4.6 1.2-1 3-.7 4.2.7zm-3.6 2.6c1.1 1.4 2.3 2 3 1.4.6-.5.4-1.4-.6-2.7-1.2-1.5-2.4-1.9-3-1.5-.5.5-.4 1.5.6 2.8zM59.6 83.9l-.6.5-5.4-1.5 1.1 1.4c.6.8 1 1.2 1.2 1.4.2.2.5.2 1-.2l.2.3-1.8 1.4-.3-.3c.3-.3.4-.5.2-.8-.2-.3-.5-.7-1.1-1.5L53 83.2c-.4-.6-.5-.6-.8-.7-.2-.1-.5 0-.7.2l-.2-.3 1.6-1.2 4.8 1.3-.8-1c-.6-.8-1-1.2-1.2-1.4-.2-.2-.5-.2-1 .2l-.2-.3 1.8-1.4.2.3c-.3.3-.4.6-.3.8.2.3.5.7 1.1 1.5l2.3 2.7zM86.2 60.7c.6.8.7.8 1.4.4l.2.3-2.5 2-.3-.3c.5-.5.5-.6-.1-1.4l-2.6-3.3-.1.1c-.5.4-.6.6-.6.8 0 .2.1.4.3.9l-.3.2c-.5-.7-.8-1.2-1.1-1.6l.2-.2c.2.1.3 0 .5-.1l2.8-2.2c.2-.1.2-.2.2-.5l.2-.2c.3.3.8.9 1.3 1.5l-.3.3c-.5-.4-.7-.5-.9-.5-.2 0-.5.1-.8.4l-.2.1 2.7 3.3zM91.5 54.4c1.3 1.6 1 3.4-.3 4.5-1.4 1.1-3.2.8-4.3-.6-1-1.2-1.3-3.2.4-4.6 1.2-1 3-.8 4.2.7zM87.9 57c1.1 1.4 2.3 2 3 1.4.6-.5.4-1.4-.6-2.7-1.2-1.5-2.4-1.9-3-1.5-.5.4-.4 1.4.6 2.8zM92 50.6l-.2.2c-.2.2-.2.3.1.6l2.7 2-1.6-4 .5-.4 3.6 2.4c-.4-1.1-1-2.3-1.3-2.9-.2-.5-.3-.6-.7-.4l-.3.2-.2-.3 1.7-1.3.2.3c-.3.4-.4.4-.1 1.3 0 .1.9 2.3 1.9 4.8l-.5.4-3.5-2.2 1.5 3.8-.5.4-4.3-3c-.7-.5-.8-.4-1.2-.2l-.3-.3 2.2-1.7.3.3zM104.6 48.1l-.6.5-5.4-1.5 1.1 1.4c.6.8 1 1.2 1.2 1.4.2.2.5.2 1-.2l.2.3-1.8 1.4-.2-.3c.3-.3.4-.5.2-.8-.2-.3-.5-.7-1.1-1.5l-1.1-1.4c-.4-.6-.5-.6-.8-.7-.2-.1-.4 0-.7.2l-.2-.3 1.6-1.2 4.8 1.3-.8-1c-.6-.8-1-1.2-1.2-1.4-.2-.2-.5-.2-1 .2l-.2-.3 1.8-1.4.2.3c-.3.3-.4.5-.3.8.2.3.5.7 1.1 1.5l2.2 2.7zM106.6 42.1l.5-.4c.6-.5.6-.5.2-1.1l.3-.2 1.3 1.7-.3.2c-.5-.5-.6-.6-1.2-.1l-.5.4.8 1c.6.8.7.8 1.4.4l.2.3-2.4 1.9-.2-.3c.4-.4.5-.5-.2-1.3l-2-2.5c-.6-.8-.7-.8-1.2-.5l-.2-.3 3.4-2.7c.1.1.6.6 1.1 1.2l-.3.3c-.4-.3-.6-.5-.8-.5-.2 0-.5.1-.9.4l-.3.3c-.1.1-.1.1.1.4l1.2 1.4zM111.9 36.6c-1-.7-1.6-.6-2.1-.2-.9.7-.6 2.1.3 3.2 1.1 1.4 2.4 1.8 3.2 1.2.6-.5.6-1.2.3-2.3l.4-.2c.3.5.6 1.3.7 1.7-.1.2-.7.9-1.1 1.2-1.9 1.5-3.7.8-4.6-.4-1.2-1.6-.9-3.5.7-4.8.6-.5 1.2-.7 1.4-.8l1.2 1.2-.4.2z"/><path class="st22" d="M87.7 86.7h.3l-1.1 4.1-.9 3.8c-.1.3-.1.5-.1.6 0 .1 0 .2.1.2.1.1.3.1.6.1.2 0 .5.1.7.1l-.2.4c-1.1-.1-1.9-.2-2.3-.2-.6 0-1.3.1-2.1.2l.1-.4c.3-.1.6-.1.9-.2.3-.1.6-.2.7-.3.2-.2.3-.6.5-1.3l.8-3.1c.3-1.2.4-1.9.4-2 0-.2-.1-.3-.2-.3s-.6.2-1.5.6l-.2-.4c1.3-.6 2.1-1 2.4-1.2.5-.2.8-.4 1.1-.7zM93.7 90.8c.9.9 1.3 1.7 1.3 2.4s-.3 1.4-.9 2c-.6.6-1.4.9-2.3.9-.7 0-1.3-.2-1.7-.6-.4-.4-.6-.8-.6-1.3 0-.3.1-.6.2-1 .2-.3.4-.6.7-1l1.8-1.2c-.5-.6-.8-1.2-.8-1.9s.3-1.2.8-1.7 1.1-.7 1.9-.7c.5 0 1 .1 1.3.4.3.3.5.6.5 1s-.2.8-.5 1.2c-.4.6-1 1.1-1.7 1.5zm-1.1.6c-.8.6-1.4 1.1-1.6 1.5-.3.4-.4.8-.4 1.3 0 .4.1.8.4 1.1.3.3.6.4 1.1.4.3 0 .6-.1.9-.3.3-.2.5-.4.7-.7.2-.3.3-.6.3-.9 0-.3-.1-.6-.3-.9-.2-.5-.6-.9-1.1-1.5zm.7-1c.7-.5 1.2-.9 1.4-1.2.2-.3.3-.6.3-.8 0-.3-.1-.6-.3-.8-.2-.2-.5-.3-.8-.3-.4 0-.7.1-1 .4-.3.3-.4.6-.4 1 0 .5.3 1.1.8 1.7zM98.2 88.9h-.4c0-.1.1-.3.2-.6.2-.6.3-1.1.4-1.4.5.1 1.4.1 2.7.1h2.4c-1.7 2.2-2.8 3.6-3.2 4.2-.8 1.1-1.3 2-1.5 2.6-.1.3-.2.7-.3 1.2-.1.5-.2.9-.3 1-.1.1-.3.2-.4.2-.2 0-.3-.1-.4-.2-.1-.1-.2-.3-.2-.5 0-.5.2-1 .5-1.7.5-.9 1.7-2.5 3.5-4.7l1-1.2h-2.9c-.3 0-.6 0-.7.1-.1.1-.3.4-.4.9zM102.9 96.1l.1-.5c.8 0 1.6-.2 2.1-.5.6-.3 1.1-.7 1.5-1.2.4-.5.7-1.2 1-2-.3.2-.6.4-.9.5-.3.1-.6.2-.9.2-.6 0-1-.2-1.4-.6-.4-.4-.5-1-.5-1.8 0-1 .3-1.9.9-2.6.5-.6 1.2-.9 2-.9.7 0 1.3.3 1.7.8.5.5.7 1.3.7 2.2 0 1.1-.3 2.2-.9 3.2-.6 1-1.3 1.8-2.3 2.3-.8.6-1.9.9-3.1.9zm4.9-4.7c.1-.8.2-1.4.2-2 0-.8-.1-1.4-.4-1.7-.2-.4-.6-.5-.9-.5-.4 0-.7.2-.9.6-.3.5-.5 1.2-.5 2.2 0 .8.1 1.3.3 1.7.2.3.5.5.8.5.2 0 .4-.1.6-.2.3-.2.5-.4.8-.6z"/><circle class="st12" cx="40.5" cy="24.5" r="1.6"/><circle class="st12" cx="73.9" cy="24.5" r="1.6"/><circle class="st12" cx="49.5" cy="22.9" r="3.2"/><circle class="st12" cx="56.8" cy="22.9" r="3.2"/><circle class="st12" cx="64.3" cy="22.9" r="3.2"/><path class="st12" d="M79 21.8v.1h-1.8v-2.5c0-.9.9-1.3.9-1.3v-3.9h-.7v1.3h-2.7c-1.2 0-1.1-1.1-1.1-1.1v-1.6h-8.3v1.5h-6.4c-.4 0-.3.4-.3.4h-1.4c-.5 0-.5-.4-.5-.4v-.7h.1v-.2h-1.4v.3h.1v.6c0 .6-.5.6-.5.6l-4.7.5h-4.8c-.7 0-.7-.7-.7-.7v-1.2h.1V13h-1.6v.3h.1v1.2c0 .8-.7.7-.7.7h-1.6v.1s-.6.6-.6 2.3c0 1.7.6 2.2.6 2.2v.2h1.2v.4h-1.2c0 1.4-1.1 1.3-1.1 1.3h-2.4v.2h-1.5v-.2H36V23h1.8v.2h1.1v.7h30.9c0 .3-.3.6-.3.6v.2h2.3v-.2c-.3-.2-.3-.6-.3-.6H77c.3 0 .3-.3.3-.3V23c.3 0 .3-.3.3-.3H79v.1h.2v-1H79zm-11.1-1.2s-.7-2.2-3.6-2.2c-3 0-3.6 2.2-3.6 2.2h-.1s-.7-2.2-3.6-2.2c-3 0-3.6 2.2-3.6 2.2h-.1s-.7-2.2-3.6-2.2c-3 0-3.6 2.2-3.6 2.2h-2.4v-.5h2.1c.1-.3.2-.4.2-.4s.8-1.8 3.8-1.9h.1c3 0 3.6 1.8 3.6 1.8h.1s.7-1.8 3.6-1.8h.1c3 0 3.6 1.8 3.6 1.8h.1s.7-1.7 3.6-1.8h.1c3 0 3.8 1.9 3.8 1.9s.2.3.3.8l-.9.1zm3.2 3.2H70V23h1.1v.8zm0-1.2H70v-.8h1.1v.8zm0-1.2H70v-.8h1.1v.8zm1.4-5.4s0 .7-.8.7h-.5v3.4h-1.3v-3.4h-1.2s-.8.1-.8-.7v-.9s0-.7.8-.7h3s.8 0 .8.7v.9z"/><circle class="st12" cx="85.2" cy="24" r="2.1"/><circle class="st12" cx="90.8" cy="24" r="2.1"/><circle class="st12" cx="96.4" cy="24" r="2.1"/><path class="st12" d="M100 17.1v6.8H81.5v-6.8s1.4 0 1.4-1.4h15.7s0 1.4 1.4 1.4z"/><path class="st12" d="M100 21.9h1.8v-.1h.2v1h-.2v-.1h-1.6s0 .3-.3.3M81.6 21.9h-1.8v-.1h-.2v1h.2v-.1h1.6s0 .3.3.3"/><path d="M122.7 29c-11.8-5.4-13.8-22-13.8-22-27.5 5.6-38.3-4.8-38.3-4.8S59.8 12.5 32.3 7c0 0-2 16.5-13.8 22 0 0 17.8 26.8 4 51.9C10.8 102 24 118.3 40 113.1c14.7-4.7 12.5-8.3 30.6 2.1 18.1-10.4 15.8-6.8 30.6-2.1 16 5.1 29.2-11.2 17.6-32.2-13.9-25.1 3.9-51.9 3.9-51.9z" style="fill:none;stroke:#ad8505;stroke-width:3.0864"/><circle cx="70.6" cy="70.9" r="13.2" style="fill:#ad8505;stroke:#ad8505;stroke-width:1.8896"/><path class="st25" d="M79.5 65.4c-8.7-3.4-17.8 0-17.8 0s-3.4 5.1 0 11c0 0 9.1 3.4 17.8 0 0 0 3.3-5.7 0-11z"/><path class="st25" d="M60.4 69.2s10.6-2.4 20.5 0M60.4 72.6s10.5 2.4 20.4 0M63.7 60.6s-1.6 2.9-2 4.8M77.3 60.5s1.7 2.9 2.1 4.8M63.6 81.2s-1.5-2.8-2-4.7M77.4 81.2s1.6-2.8 2-4.8M67.7 64.1s0-3.3.6-5.4M73.5 64s0-3.2-.6-5.3M67.7 77.8s0 3.2.6 5.3M73.5 77.8s0 3.1-.6 5.3"/><circle class="st25" cx="70.6" cy="70.9" r="12.4"/></svg>