<?xml version="1.0" encoding="utf-8"?>
<!-- Generator: Adobe Illustrator 19.2.1, SVG Export Plug-In . SVG Version: 6.00 Build 0)  -->
<!DOCTYPE svg PUBLIC "-//W3C//DTD SVG 1.1//EN" "http://www.w3.org/Graphics/SVG/1.1/DTD/svg11.dtd">
<svg version="1.1" id="Layer_1" xmlns="http://www.w3.org/2000/svg" xmlns:xlink="http://www.w3.org/1999/xlink" x="0px" y="0px"
	 viewBox="0 0 141.7 141.7" style="enable-background:new 0 0 141.7 141.7;" xml:space="preserve">
<style type="text/css">
	.st0{fill:#FFFFFF;}
	.st1{fill:none;stroke:#B48D30;stroke-width:1.0251;}
	.st2{fill:#B48D30;}
	.st3{fill:#ED1C24;stroke:#C5962D;stroke-width:1.5079;stroke-miterlimit:11.4737;}
	.st4{fill:#FFFFFF;stroke:#C5962D;stroke-width:1.1309;}
	.st5{fill:#ED1C24;stroke:#C5962D;stroke-width:1.8849;stroke-miterlimit:2.3662;}
	.st6{fill:#FFFFFF;stroke:#FFFFFF;stroke-width:0.2476;}
	.st7{fill:none;stroke:#AD8505;stroke-width:1.0251;}
	.st8{fill:#AD8505;}
	.st9{fill:#EE3524;stroke:#AD8505;stroke-width:1.5079;stroke-miterlimit:11.4737;}
	.st10{fill:#FFFFFF;stroke:#AD8505;stroke-width:1.1309;}
	.st11{fill:#EE3524;stroke:#AD8505;stroke-width:1.8849;stroke-miterlimit:2.3662;}
	.st12{fill:#EE3524;}
	.st13{fill:#FFFFFF;stroke:#FFFFFF;stroke-width:0.1223;}
	.st14{fill:#FFFFFF;stroke:#FFFFFF;stroke-width:4.298400e-02;}
	.st15{fill:#FFFFFF;stroke:#FFFFFF;stroke-width:3.039700e-02;}
	.st16{fill:#FFFFFF;stroke:#FFFFFF;stroke-width:5.779600e-02;}
	.st17{fill:#FFFFFF;stroke:#EE3524;stroke-width:0.3557;}
	.st18{fill:#FFFFFF;stroke:#EE3524;stroke-width:0.1779;}
	.st19{fill:none;stroke:#AD8505;stroke-width:2.8345;}
	.st20{fill:none;stroke:#AD8505;stroke-width:2.5376;}
	.st21{fill:none;stroke:#AD8505;stroke-width:2.4708;}
	.st22{fill:#FFFFFF;stroke:#FFFFFF;stroke-width:0.3314;}
	.st23{fill:none;stroke:#AD8505;stroke-width:3.0864;}
	.st24{fill:#AD8505;stroke:#AD8505;stroke-width:1.8896;}
	.st25{fill:none;stroke:#FFFFFF;stroke-width:0.9448;}
</style>
<g>
	<path class="st0" d="M122.7,29c-11.8-5.4-13.8-22-13.8-22c-27.5,5.6-38.3-4.8-38.3-4.8l0,0c0,0-10.8,10.3-38.3,4.8
		c0,0-2,16.5-13.8,22c0,0,17.8,26.8,4,51.9C10.8,102,24,118.3,40,113.1c14.7-4.7,12.5-8.3,30.6,2.1l0,0c18.1-10.4,15.8-6.8,30.6-2.1
		c16,5.1,29.2-11.2,17.6-32.2C104.9,55.8,122.7,29,122.7,29L122.7,29z"/>
	<g>
		<g>
			<g>
				<path class="st1" d="M70.6,130.6c0,0-4.7-14.2-23.8-8.9"/>
				<path class="st2" d="M65.3,123.5c0,0-3.2-1.8-1.6-6C63.7,117.6,67.2,120.6,65.3,123.5z"/>
				<path class="st2" d="M64.8,122.8c0,0-1.3,3.4-5.7,2.5C59.1,125.3,61.7,121.4,64.8,122.8z"/>
				<path class="st2" d="M62.6,122.1c0,0-4.1-1-3.6-6.2C59.1,115.9,63.8,118.3,62.6,122.1z"/>
				<path class="st2" d="M60.6,121.3c0,0-1.3,4-6.4,3C54.2,124.3,56.9,119.8,60.6,121.3z"/>
				<path class="st2" d="M58.4,120.6c0,0-4.2,0.3-5.2-4.8C53.2,115.8,58.5,116.6,58.4,120.6z"/>
				<path class="st2" d="M55.4,120.5c0,0-0.9,3.6-5.4,3.1C50.1,123.7,52.1,119.5,55.4,120.5z"/>
				<path class="st2" d="M54,120.7c0,0-3.7,0.3-4.6-4.1C49.4,116.6,54,117.3,54,120.7z"/>
				<path class="st2" d="M50.6,120.8c0,0-0.9,3.6-5.4,3.1C45.2,123.9,47.3,119.7,50.6,120.8z"/>
				<path class="st2" d="M50.1,120.7c0,0-3.4,1.3-5.6-2.6C44.5,118.1,49.1,117.4,50.1,120.7z"/>
				<path class="st2" d="M47.3,121.4c0,0-2.6,2.6-6.2,0C41.1,121.3,45,118.8,47.3,121.4z"/>
			</g>
			<g>
				<path class="st1" d="M70.5,130.6c0,0,4.7-14.2,23.8-8.9"/>
				<path class="st2" d="M75.8,123.5c0,0,3.2-1.8,1.6-6C77.4,117.6,73.9,120.6,75.8,123.5z"/>
				<path class="st2" d="M76.3,122.8c0,0,1.3,3.4,5.7,2.5C82,125.3,79.4,121.4,76.3,122.8z"/>
				<path class="st2" d="M78.5,122.1c0,0,4.1-1,3.6-6.2C82,115.9,77.3,118.3,78.5,122.1z"/>
				<path class="st2" d="M80.5,121.3c0,0,1.3,4,6.4,3C86.9,124.3,84.2,119.8,80.5,121.3z"/>
				<path class="st2" d="M82.7,120.6c0,0,4.2,0.3,5.2-4.8C87.9,115.8,82.6,116.6,82.7,120.6z"/>
				<path class="st2" d="M85.7,120.5c0,0,0.9,3.6,5.4,3.1C91,123.7,89,119.5,85.7,120.5z"/>
				<path class="st2" d="M87.1,120.7c0,0,3.7,0.3,4.6-4.1C91.7,116.6,87.1,117.3,87.1,120.7z"/>
				<path class="st2" d="M90.5,120.8c0,0,0.9,3.6,5.4,3.1C95.9,123.9,93.8,119.7,90.5,120.8z"/>
				<path class="st2" d="M91,120.7c0,0,3.4,1.3,5.6-2.6C96.6,118.1,92,117.4,91,120.7z"/>
				<path class="st2" d="M93.8,121.4c0,0,2.6,2.6,6.2,0C100,121.3,96.1,118.8,93.8,121.4z"/>
			</g>
		</g>
		<path class="st3" d="M15.7,114.9c0,0,3.8,1.9,10.9,4.5c3.2,1.1,12.8,3.5,11.7,4.4c-0.5,1.5-4.2,11.9-4.2,11.9s-9-3.7-14.9-5.9
			c-4.3-1.6-11.2-4.1-11.2-4.1l13.8-0.8L15.7,114.9L15.7,114.9z"/>
		<path class="st4" d="M29.4,123.1c-0.3-1.2,10.5,1.4,9.1,0.2c0.9,0.7-0.5,3.1-0.9,4.1c-2.6,5.7-7.6,8.4-13,6.9
			c0.3-3.7,3.8-7.5,4.7-10.7L29.4,123.1z"/>
		<path class="st3" d="M125.4,114.9c0,0-3.8,1.9-10.9,4.5c-3.2,1.1-12.8,3.5-11.7,4.4c0.5,1.5,4.2,11.9,4.2,11.9s9-3.7,14.9-5.9
			c4.3-1.6,11.2-4.1,11.2-4.1l-13.8-0.8L125.4,114.9L125.4,114.9z"/>
		<path class="st4" d="M111.7,123.1c0.3-1.2-10.5,1.4-9.1,0.2c-0.9,0.7,0.5,3.1,0.9,4.1c2.6,5.7,7.6,8.4,13,6.9
			c-0.3-3.7-3.8-7.5-4.7-10.7L111.7,123.1z"/>
		<path class="st5" d="M70.8,140.7c25.5,0.2,45.3-4.6,45.7-6.4c0.7-3.3-1-7.7-5-11.1c0.1,2.8-22.7,6.3-40.9,6.1l0,0h0l0,0
			c-18.1,0.2-40.9-3.3-40.9-6.1c-4,3.4-5.7,7.8-5,11.1c0.4,1.8,20.2,6.6,45.7,6.4H70.8z"/>
		<g>
			<path class="st6" d="M34,130.8l-0.2-0.1c0.1-0.3,0.2-0.6,0.2-0.7c0.1-0.2,0-0.4-0.1-0.6c-0.1-0.2-0.3-0.3-0.5-0.3
				c-0.3-0.1-0.7,0-1,0.2c-0.3,0.2-0.5,0.4-0.6,0.7c0,0.2,0,0.3,0,0.5c0,0.1,0.1,0.4,0.3,0.7c0.3,0.5,0.5,0.9,0.6,1.2
				c0.1,0.3,0.1,0.5,0,0.8c-0.1,0.3-0.3,0.6-0.5,0.9c-0.3,0.3-0.6,0.4-1.1,0.6c-0.4,0.1-0.9,0.1-1.3,0c-0.4-0.1-0.8-0.3-1-0.6
				c-0.2-0.3-0.3-0.6-0.3-0.8c0-0.1,0.1-0.2,0.2-0.3c0.1-0.1,0.2-0.1,0.3-0.1c0.1,0,0.2,0.1,0.2,0.2c0,0.1,0,0.2,0.1,0.4
				c0,0.2,0,0.4,0.1,0.5c0,0.1,0.1,0.2,0.2,0.3c0.1,0.1,0.2,0.2,0.4,0.2c0.4,0.1,0.9,0,1.3-0.2c0.4-0.2,0.6-0.5,0.7-0.9
				c0-0.1,0-0.2,0-0.4c0-0.1-0.1-0.3-0.1-0.5c-0.1-0.1-0.2-0.3-0.4-0.7c-0.2-0.3-0.3-0.5-0.4-0.6c-0.1-0.2-0.1-0.3-0.1-0.5
				c0-0.2,0-0.3,0-0.4c0.1-0.3,0.2-0.5,0.5-0.8c0.3-0.2,0.6-0.4,0.9-0.5c0.3-0.1,0.7-0.1,1.1,0c0.2,0,0.4,0.1,0.7,0.3
				c0.2,0.1,0.3,0.1,0.4,0.2c-0.1,0.2-0.2,0.4-0.3,0.5C34.3,129.9,34.2,130.3,34,130.8z"/>
			<path class="st6" d="M37.6,131.2l0.3,0l-0.6,1.1c-0.2,0.4-0.5,1-0.7,1.5c-0.1,0.3-0.2,0.5-0.2,0.6c0,0.1,0,0.2,0.1,0.2
				c0,0,0.1,0,0.3-0.1c0.2-0.1,0.4-0.2,0.6-0.3l0.1,0.2c-0.4,0.3-0.7,0.4-0.8,0.5c-0.2,0.1-0.4,0.2-0.6,0.2c-0.1,0-0.2,0-0.4,0
				c-0.1,0-0.1,0-0.2-0.1c0,0,0-0.1,0-0.2c0,0,0-0.1,0.1-0.2l0.3-0.6c-0.3,0.3-0.7,0.5-1.1,0.6c-0.3,0.1-0.5,0.1-0.7,0.1
				c-0.2,0-0.3-0.1-0.4-0.3c-0.1-0.2-0.1-0.4-0.1-0.7c0.1-0.3,0.2-0.7,0.5-1c0.3-0.4,0.6-0.7,0.9-1c0.4-0.3,0.7-0.5,1.1-0.5
				c0.3-0.1,0.6-0.1,1,0c0.1,0,0.2,0,0.3,0.1L37.6,131.2z M36.9,131.8c-0.2-0.1-0.3-0.1-0.4-0.1c-0.3-0.1-0.5,0-0.8,0.1
				c-0.2,0.1-0.5,0.4-0.7,0.7c-0.3,0.4-0.4,0.7-0.5,1.1c0,0.2,0,0.4,0,0.5c0.1,0.1,0.1,0.2,0.3,0.2c0.2,0,0.5,0,0.8-0.2
				c0.3-0.2,0.5-0.5,0.7-0.9L36.9,131.8z"/>
			<path class="st6" d="M40,134.6l0.1,0.2c-0.3,0.2-0.6,0.4-1,0.6c-0.4,0.2-0.7,0.2-0.9,0.2c-0.1,0-0.2-0.1-0.2-0.2
				c0-0.1-0.1-0.2,0-0.3c0-0.2,0.2-0.7,0.6-1.5l0.9-2c0.3-0.7,0.5-1.2,0.7-1.4c0.3-0.4,0.6-0.6,1-0.8c0.4-0.2,0.8-0.2,1.2-0.1
				c0.1,0,0.2,0.1,0.3,0.1c0.1,0.1,0.1,0.2,0.1,0.3c0,0.1-0.1,0.2-0.2,0.2c-0.1,0.1-0.2,0.1-0.3,0c-0.1,0-0.2-0.1-0.4-0.1
				c-0.1,0-0.3-0.1-0.4-0.1c-0.1,0-0.2,0-0.3,0c-0.1,0.1-0.2,0.2-0.3,0.4s-0.3,0.7-0.6,1.4l-0.8,1.9c-0.4,0.9-0.6,1.4-0.6,1.5
				c0,0.1,0,0.2,0.1,0.2c0.1,0,0.2,0,0.3-0.1C39.4,135,39.7,134.8,40,134.6z"/>
			<path class="st6" d="M44.1,132.5l0.7,0.1l-0.7,1.6c-0.4,0.9-0.6,1.4-0.6,1.6c0,0.1,0,0.1,0,0.1c0,0,0.1,0.1,0.1,0.1
				c0.1,0,0.1,0,0.2,0c0.1-0.1,0.3-0.2,0.7-0.5l0.1,0.2c-0.7,0.6-1.2,0.8-1.5,0.8c-0.1,0-0.2-0.1-0.2-0.2c-0.1-0.1-0.1-0.2-0.1-0.3
				c0-0.2,0.1-0.4,0.2-0.6c-0.3,0.3-0.7,0.5-1.2,0.7c-0.3,0.1-0.5,0.2-0.7,0.1c-0.1,0-0.2-0.1-0.2-0.1c-0.1-0.1-0.1-0.2,0-0.4
				c0-0.1,0.1-0.2,0.1-0.4c0.1-0.2,0.2-0.6,0.5-1.1c0.3-0.7,0.5-1.2,0.5-1.3c0-0.1,0-0.1-0.1-0.1c-0.1,0-0.1,0-0.2,0.1
				c-0.1,0-0.3,0.2-0.6,0.3l-0.2-0.2c0.5-0.3,0.8-0.5,1.1-0.6c0.2-0.1,0.4-0.1,0.6-0.1c0.1,0,0.1,0,0.2,0.1c0,0.1,0,0.2,0,0.3
				c0,0.2-0.2,0.7-0.6,1.5c-0.3,0.7-0.5,1.2-0.5,1.3c0,0.1,0,0.1,0,0.2c0,0.1,0.1,0.1,0.1,0.1c0.2,0,0.4-0.1,0.8-0.3
				c0.4-0.2,0.6-0.5,0.8-0.9L44.1,132.5z"/>
			<path class="st6" d="M46.7,133.5c0.3-0.2,0.6-0.4,0.8-0.5c0.3-0.1,0.5-0.1,0.7-0.1c0.2,0,0.4,0.1,0.5,0.3
				c0.1,0.2,0.1,0.5,0.1,0.8c-0.1,0.5-0.2,1-0.5,1.5c-0.3,0.5-0.6,0.8-1,1c-0.4,0.2-0.8,0.3-1.1,0.3c-0.3,0-0.5-0.1-0.7-0.3
				c-0.2-0.2-0.2-0.4-0.2-0.7c0-0.2,0.1-0.5,0.2-0.9l0.9-2.4c0.2-0.6,0.4-1,0.7-1.3c0.2-0.3,0.5-0.5,0.9-0.7c0.4-0.2,0.7-0.2,1-0.2
				c0.2,0,0.3,0.1,0.4,0.1c0.1,0.1,0.1,0.2,0.1,0.3c0,0.1-0.1,0.2-0.1,0.2c-0.1,0.1-0.2,0.1-0.3,0.1c-0.1,0-0.3-0.1-0.5-0.1
				c-0.1,0-0.2-0.1-0.3-0.1c-0.2,0-0.3,0.1-0.4,0.2c-0.1,0.1-0.2,0.4-0.4,1L46.7,133.5z M47.7,133.3c-0.2,0-0.3,0.1-0.6,0.2
				c-0.2,0.2-0.5,0.5-0.7,0.9c-0.2,0.4-0.4,0.9-0.4,1.3c0,0.2,0,0.3,0.1,0.4c0.1,0.1,0.2,0.2,0.4,0.2c0.3,0,0.7-0.2,1-0.7
				c0.3-0.5,0.5-1.1,0.6-1.6c0-0.2,0-0.5-0.1-0.6C47.9,133.4,47.8,133.3,47.7,133.3z"/>
			<path class="st6" d="M50,137l-0.7-0.1l0.5-1.2c0.2-0.6,0.4-1.2,0.6-1.7c0-0.1,0.1-0.2,0.1-0.3c0-0.1,0-0.1-0.1-0.1
				c0,0-0.1,0-0.2,0.1c-0.1,0.1-0.3,0.2-0.6,0.4l-0.1-0.2c0.3-0.3,0.7-0.5,1-0.6c0.3-0.1,0.6-0.2,0.7-0.2c0.1,0,0.1,0,0.1,0.1
				c0,0,0,0.1,0,0.1c0,0,0,0.1-0.1,0.3l-0.3,0.8c0.4-0.5,0.8-0.9,1.2-1.2c0.2-0.2,0.4-0.2,0.5-0.2c0.1,0,0.2,0,0.2,0.1
				c0.1,0.1,0.1,0.1,0.1,0.2c0,0.1,0,0.2-0.1,0.2c-0.1,0.1-0.2,0.1-0.5,0.2c-0.2,0.1-0.4,0.1-0.6,0.2c-0.2,0.1-0.3,0.2-0.5,0.5
				c-0.2,0.2-0.3,0.4-0.4,0.6c-0.1,0.2-0.2,0.5-0.4,1.1L50,137z"/>
			<path class="st6" d="M52.6,134.4l-0.2-0.2c0.3-0.3,0.7-0.5,0.9-0.7c0.3-0.1,0.5-0.2,0.7-0.2c0.1,0,0.2,0,0.2,0.1
				c0,0,0.1,0.1,0.1,0.2c0,0.1-0.1,0.5-0.4,1.1c-0.4,1.1-0.7,1.7-0.7,2c0,0,0,0.1,0,0.1c0,0,0,0,0.1,0.1c0.1,0,0.4-0.2,0.8-0.5
				l0.2,0.2c-0.5,0.4-0.8,0.6-1,0.7c-0.2,0.1-0.4,0.1-0.5,0.1c-0.1,0-0.2-0.1-0.3-0.1c-0.1-0.1-0.1-0.2-0.1-0.3c0-0.4,0.4-1.3,1-2.8
				c0-0.1,0-0.1,0.1-0.2c0-0.1,0-0.1-0.1-0.1c-0.1,0-0.1,0-0.2,0.1C53.1,134,52.9,134.1,52.6,134.4z M54.7,131.4
				c0.1,0,0.2,0,0.2,0.1c0.1,0.1,0.1,0.2,0.1,0.3c0,0.1-0.1,0.3-0.2,0.4c-0.1,0.1-0.2,0.1-0.3,0.1c-0.1,0-0.2,0-0.2-0.1
				c-0.1-0.1-0.1-0.2-0.1-0.3c0-0.1,0.1-0.3,0.2-0.3C54.5,131.4,54.6,131.4,54.7,131.4z"/>
			<path class="st6" d="M56.4,132.8l0.8-0.2l-0.4,1.3l1,0.1l-0.1,0.3l-1-0.1l-0.5,1.6c-0.2,0.5-0.3,0.8-0.3,1c0,0.1,0,0.1,0,0.2
				c0,0,0.1,0.1,0.1,0.1c0.1,0,0.3,0,0.5-0.1c0.3-0.1,0.5-0.3,0.8-0.5l0.2,0.2c-0.7,0.5-1.2,0.8-1.5,0.9c-0.2,0.1-0.4,0.1-0.6,0.1
				c-0.1,0-0.2-0.1-0.3-0.1c-0.1-0.1-0.1-0.2-0.1-0.4c0-0.2,0.1-0.6,0.3-1l0.6-1.8l-0.8-0.1l0.1-0.3l0.8,0.1L56.4,132.8z"/>
			<path class="st6" d="M61.4,133.8l0.3,0l-0.4,1.2c-0.2,0.5-0.3,1-0.5,1.6c-0.1,0.3-0.1,0.5-0.1,0.6c0,0.1,0,0.2,0.1,0.2
				c0.1,0,0.1,0,0.2-0.1c0.2-0.1,0.4-0.2,0.6-0.4l0.1,0.2c-0.4,0.3-0.6,0.5-0.7,0.6c-0.2,0.1-0.4,0.2-0.6,0.3c-0.1,0-0.2,0.1-0.4,0
				c-0.1,0-0.1,0-0.2-0.1c0,0-0.1-0.1-0.1-0.2c0,0,0-0.1,0-0.2l0.2-0.6c-0.3,0.3-0.6,0.6-1,0.8c-0.2,0.1-0.5,0.2-0.6,0.2
				c-0.2,0-0.3-0.1-0.4-0.2c-0.1-0.2-0.2-0.4-0.2-0.7c0-0.3,0.1-0.7,0.3-1.1c0.2-0.4,0.5-0.8,0.8-1.1c0.3-0.3,0.6-0.5,1-0.7
				c0.3-0.1,0.6-0.1,1-0.1c0.1,0,0.2,0,0.3,0L61.4,133.8z M60.8,134.5c-0.2,0-0.3-0.1-0.4-0.1c-0.3,0-0.5,0-0.8,0.2
				c-0.2,0.1-0.4,0.4-0.6,0.8c-0.2,0.4-0.3,0.8-0.3,1.2c0,0.2,0,0.4,0.1,0.5c0.1,0.1,0.2,0.1,0.3,0.2c0.2,0,0.5-0.1,0.7-0.3
				c0.3-0.2,0.5-0.6,0.6-1L60.8,134.5z"/>
			<path class="st6" d="M64.5,133.9c0.3,0,0.5,0.1,0.6,0.2c0.1,0.1,0.2,0.2,0.2,0.4c0,0.1,0,0.2-0.1,0.2c-0.1,0.1-0.1,0.1-0.2,0.1
				c-0.1,0-0.1,0-0.2,0c0,0-0.1-0.1-0.2-0.2c-0.1-0.2-0.3-0.3-0.4-0.3c-0.1,0-0.2,0-0.3,0.1c-0.1,0.1-0.2,0.2-0.2,0.4
				c0,0.1,0,0.3,0.1,0.4c0.1,0.1,0.2,0.3,0.5,0.6c0.3,0.4,0.5,0.7,0.5,1.1c0,0.3-0.2,0.6-0.5,0.9c-0.3,0.2-0.7,0.4-1.1,0.3
				c-0.4,0-0.7-0.1-0.8-0.3c-0.2-0.2-0.3-0.4-0.3-0.6c0-0.1,0-0.2,0.1-0.3c0.1-0.1,0.2-0.1,0.3-0.1c0.1,0,0.2,0,0.2,0.1
				c0.1,0.1,0.1,0.1,0.1,0.2c0,0,0,0.1,0,0.1c0,0,0,0.1,0,0.1c0,0.1,0,0.2,0.1,0.3c0.1,0.1,0.2,0.1,0.3,0.1c0.2,0,0.3,0,0.5-0.1
				c0.1-0.1,0.2-0.1,0.3-0.3c0.1-0.1,0.1-0.2,0.1-0.3c0-0.1,0-0.2-0.1-0.3c-0.1-0.1-0.2-0.3-0.4-0.6c-0.3-0.4-0.5-0.7-0.5-1.1
				c0-0.3,0.1-0.6,0.4-0.8C63.8,134,64.1,133.9,64.5,133.9z"/>
			<path class="st6" d="M73.2,133.5l-0.3,0c0-0.2,0-0.3,0-0.4c0-0.1-0.1-0.2-0.2-0.2c-0.1,0-0.5-0.1-1.2-0.1l-0.7,0l-0.5,2.1l1,0
				c0.3,0,0.5,0,0.6-0.1c0.1,0,0.1-0.2,0.2-0.3h0.3c-0.1,0.4-0.2,0.8-0.3,1.3l-0.2,0c0-0.1,0-0.3,0-0.3c0,0,0-0.1-0.1-0.1
				c0,0-0.1,0-0.1-0.1c-0.1,0-0.2,0-0.4,0l-1,0c-0.3,1.1-0.6,1.9-0.9,2.5c0.3-0.1,0.6-0.1,0.8-0.1c0.4,0,0.8,0.1,1.4,0.2
				c0.3,0.1,0.5,0.1,0.6,0.1c0.1,0,0.3,0,0.3-0.1c0.1-0.1,0.1-0.1,0.1-0.2c0-0.1,0-0.1-0.1-0.2c0-0.1,0-0.2,0-0.2
				c0-0.1,0-0.1,0.1-0.2c0.1-0.1,0.1-0.1,0.2-0.1c0.1,0,0.2,0,0.2,0.1c0.1,0.1,0.1,0.2,0.1,0.3c0,0.3-0.1,0.5-0.4,0.7
				c-0.2,0.2-0.5,0.3-0.9,0.3c-0.2,0-0.5,0-0.8-0.1c-0.7-0.1-1.2-0.1-1.6-0.1c-0.5,0-1,0-1.6,0.1l0.1-0.3c0.4-0.1,0.6-0.2,0.7-0.2
				c0.1,0,0.1-0.1,0.2-0.2c0.2-0.3,0.4-0.9,0.6-1.8c0.2-0.9,0.5-1.9,0.8-2.9c-0.4,0-0.7,0.1-1.1,0.3c-0.3,0.2-0.6,0.4-0.8,0.7
				c-0.2,0.3-0.3,0.6-0.3,0.9c0,0.1,0,0.3,0,0.4c0,0.1,0.1,0.2,0.2,0.4c0.1,0.1,0.1,0.2,0.1,0.3c0,0.1,0,0.1-0.1,0.2
				c-0.1,0.1-0.1,0.1-0.2,0.1c-0.1,0-0.2-0.1-0.3-0.2c-0.1-0.2-0.2-0.4-0.2-0.7c0-0.7,0.3-1.3,0.8-1.8c0.5-0.5,1.2-0.8,2.2-0.8
				l1.6,0c0.6,0,1,0,1.2-0.1C73.4,132.9,73.3,133.3,73.2,133.5z"/>
			<path class="st6" d="M75.3,133.3L76,133l-0.3,1.3l1,0l-0.1,0.3l-1,0l-0.4,1.6c-0.1,0.5-0.2,0.8-0.2,1c0,0.1,0,0.1,0.1,0.2
				c0,0,0.1,0.1,0.2,0.1c0.1,0,0.2-0.1,0.4-0.2c0.3-0.2,0.5-0.3,0.7-0.5l0.2,0.2c-0.7,0.5-1.1,0.9-1.4,1c-0.2,0.1-0.4,0.2-0.6,0.2
				c-0.1,0-0.2,0-0.3-0.1c-0.1-0.1-0.1-0.2-0.1-0.4c0-0.2,0.1-0.6,0.2-1l0.5-1.9l-0.8,0l0.1-0.3l0.8,0L75.3,133.3z"/>
			<path class="st6" d="M83.1,132.1l-0.1,0.3c-0.4,0-0.6,0.1-0.7,0.2c-0.1,0-0.1,0.1-0.2,0.2c-0.1,0.1-0.2,0.7-0.4,1.8
				c-0.1,0.4-0.3,1.4-0.6,3c0.2,0.1,0.5,0.1,0.8,0.1l-0.1,0.2c-0.1,0-0.3,0-0.6,0c-0.2,0-0.5,0-0.8,0c-0.4,0-0.8,0.1-1.1,0.1l0-0.3
				c0.3-0.1,0.6-0.2,0.8-0.2c0,0,0.1-0.1,0.1-0.1c0-0.1,0.1-0.2,0.1-0.3c0-0.2,0.2-0.9,0.5-2.1c0.1-0.4,0.2-1.2,0.5-2.4
				c-0.2,0-0.5,0-0.8,0.1l0.1-0.3c0.1,0,0.3-0.1,0.4-0.1c0.1,0,0.5,0,0.9-0.1C82.5,132.2,82.9,132.2,83.1,132.1z"/>
			<path class="st6" d="M83.4,134.8l-0.2-0.2c0.4-0.4,0.7-0.7,0.9-0.8c0.2-0.1,0.4-0.2,0.6-0.2c0.1,0,0.1,0,0.2,0
				c0,0,0.1,0.1,0.1,0.1c0,0,0,0.1,0,0.2l-0.2,1c0.3-0.4,0.7-0.7,1.1-1.1c0.2-0.2,0.5-0.3,0.6-0.3c0.1,0,0.2,0,0.3,0.1
				c0.1,0.1,0.1,0.2,0.1,0.3c0,0.1,0,0.2,0,0.3c0,0.2-0.1,0.7-0.3,1.4c-0.2,0.7-0.2,1.1-0.2,1.3c0,0.1,0,0.1,0,0.1c0,0,0,0,0.1,0
				c0.1,0,0.2-0.1,0.4-0.3c0.1-0.1,0.3-0.3,0.4-0.4l0.1,0.2c-0.3,0.3-0.6,0.6-0.9,0.8c-0.2,0.1-0.3,0.2-0.5,0.2
				c-0.1,0-0.2,0-0.3-0.1c-0.1-0.1-0.1-0.2-0.1-0.4c0-0.3,0.1-1,0.4-2.1c0.1-0.4,0.1-0.6,0.1-0.7c0-0.1-0.1-0.1-0.2-0.1
				c-0.1,0-0.3,0.1-0.5,0.2c-0.3,0.2-0.5,0.5-0.7,0.7c-0.1,0.2-0.2,0.5-0.3,0.8l-0.3,1.7l-0.7,0c0.1-0.5,0.2-0.9,0.3-1.4l0.3-1.8
				c0-0.1,0-0.1,0-0.2c0-0.1,0-0.1-0.1-0.1c-0.1,0-0.1,0-0.2,0.1C83.7,134.4,83.6,134.6,83.4,134.8z"/>
			<path class="st6" d="M91.6,136.1l0.1,0.2c-0.4,0.4-0.7,0.7-0.9,0.8c-0.3,0.2-0.5,0.3-0.6,0.3c-0.1,0-0.1,0-0.2,0
				c-0.1,0-0.1-0.1-0.1-0.1c0-0.1,0-0.1,0-0.3l0.1-0.6c-0.3,0.4-0.6,0.7-0.9,0.9c-0.2,0.2-0.5,0.3-0.7,0.3c-0.2,0-0.3,0-0.4-0.2
				c-0.1-0.1-0.2-0.3-0.2-0.6c0-0.4,0.1-1,0.3-1.6c0.3-0.6,0.6-1.1,0.9-1.4c0.4-0.3,0.7-0.5,1-0.5c0.1,0,0.2,0,0.3,0
				c0.1-0.6,0.2-1.1,0.3-1.4c0.1-0.3,0.3-0.6,0.5-0.8c0.2-0.2,0.4-0.4,0.7-0.5c0.3-0.1,0.5-0.2,0.8-0.2c0.1,0,0.2,0,0.3,0.1
				c0.1,0.1,0.1,0.1,0.1,0.2c0,0.1,0,0.2-0.1,0.2c-0.1,0.1-0.2,0.1-0.3,0.1c-0.1,0-0.2,0-0.4,0c-0.2,0-0.4,0-0.4,0
				c-0.1,0-0.2,0.1-0.3,0.1c-0.1,0.1-0.1,0.2-0.2,0.5c0,0.1-0.1,0.6-0.2,1.4l-0.4,2.9c0,0.3-0.1,0.6-0.1,0.7c0,0.1,0.1,0.2,0.2,0.2
				c0.1,0,0.1,0,0.2-0.1C91.2,136.5,91.4,136.3,91.6,136.1z M90.4,133.7c-0.3,0-0.4,0-0.5,0c-0.2,0-0.4,0.1-0.6,0.3
				c-0.2,0.2-0.4,0.5-0.5,1c-0.1,0.5-0.2,0.9-0.2,1.3c0,0.2,0.1,0.3,0.2,0.4c0.1,0.1,0.2,0.1,0.3,0.1c0.1,0,0.3-0.1,0.4-0.2
				c0.2-0.2,0.4-0.4,0.5-0.7c0.1-0.2,0.2-0.6,0.2-1.2L90.4,133.7z"/>
			<path class="st6" d="M95.3,132.7l0.7-0.1l-0.3,1.7c-0.2,1-0.2,1.5-0.2,1.7c0,0.1,0,0.1,0.1,0.1c0,0,0.1,0,0.1,0
				c0.1,0,0.1,0,0.2-0.1c0.1-0.1,0.3-0.3,0.5-0.6l0.2,0.2c-0.6,0.7-1,1.1-1.3,1.1c-0.1,0-0.2,0-0.3-0.1c-0.1-0.1-0.1-0.2-0.1-0.3
				c0-0.2,0-0.4,0-0.7c-0.2,0.4-0.6,0.7-0.9,1c-0.3,0.2-0.5,0.3-0.7,0.3c-0.1,0-0.2,0-0.3-0.1c-0.1-0.1-0.1-0.2-0.1-0.3
				c0-0.1,0-0.3,0-0.4c0-0.2,0.1-0.6,0.2-1.2c0.1-0.8,0.2-1.2,0.2-1.4c0-0.1,0-0.1-0.1-0.1c-0.1,0-0.1,0-0.2,0.1
				c-0.1,0.1-0.2,0.2-0.5,0.5l-0.2-0.1c0.4-0.4,0.7-0.7,0.9-0.9c0.2-0.1,0.4-0.2,0.5-0.2c0.1,0,0.1,0,0.2,0.1c0.1,0,0.1,0.1,0.1,0.2
				c0,0.2,0,0.8-0.2,1.6c-0.1,0.8-0.2,1.2-0.2,1.3c0,0.1,0,0.1,0.1,0.2c0,0,0.1,0.1,0.1,0.1c0.2,0,0.4-0.2,0.7-0.5
				c0.3-0.3,0.5-0.7,0.5-1.1L95.3,132.7z"/>
			<path class="st6" d="M98.6,132.1c0.3,0,0.5,0,0.7,0.1c0.2,0.1,0.3,0.2,0.3,0.3c0,0.1,0,0.2-0.1,0.2c-0.1,0.1-0.1,0.1-0.2,0.1
				c-0.1,0-0.1,0-0.2,0c0,0-0.1-0.1-0.2-0.2c-0.2-0.2-0.3-0.3-0.5-0.2c-0.1,0-0.2,0.1-0.3,0.2c-0.1,0.1-0.1,0.2-0.1,0.4
				c0,0.1,0.1,0.2,0.1,0.4c0.1,0.1,0.3,0.3,0.6,0.5c0.4,0.3,0.6,0.6,0.7,1c0,0.3-0.1,0.6-0.3,0.9c-0.2,0.3-0.6,0.5-1,0.5
				c-0.4,0.1-0.7,0-0.9-0.1c-0.2-0.1-0.3-0.3-0.4-0.5c0-0.1,0-0.2,0.1-0.3c0.1-0.1,0.1-0.1,0.2-0.1c0.1,0,0.2,0,0.2,0.1
				c0.1,0,0.1,0.1,0.1,0.2c0,0,0,0.1,0,0.1c0,0,0,0.1,0,0.1c0,0.1,0.1,0.2,0.2,0.2c0.1,0.1,0.2,0.1,0.4,0.1c0.2,0,0.3-0.1,0.4-0.1
				c0.1-0.1,0.2-0.2,0.3-0.3c0.1-0.1,0.1-0.2,0.1-0.4c0-0.1-0.1-0.2-0.1-0.3c-0.1-0.1-0.3-0.3-0.5-0.5c-0.4-0.3-0.6-0.6-0.6-1
				c0-0.3,0-0.6,0.3-0.9C98,132.4,98.3,132.2,98.6,132.1z"/>
			<path class="st6" d="M100.9,131l0.7-0.4l-0.1,1.4l1-0.2l0,0.3l-1,0.2l-0.2,1.6c-0.1,0.5-0.1,0.8,0,1c0,0.1,0,0.1,0.1,0.2
				c0,0,0.1,0,0.2,0c0.1,0,0.2-0.1,0.4-0.2c0.2-0.2,0.5-0.4,0.7-0.6l0.2,0.2c-0.6,0.6-1,1-1.2,1.2c-0.2,0.2-0.4,0.2-0.5,0.3
				c-0.1,0-0.2,0-0.3-0.1c-0.1-0.1-0.1-0.2-0.2-0.4c0-0.2,0-0.6,0-1.1l0.2-1.9l-0.8,0.1l0-0.3l0.8-0.1L100.9,131z"/>
			<path class="st6" d="M104.5,135.2l-0.7,0.1l0.1-1.3c0-0.6,0.1-1.3,0.1-1.8c0-0.1,0-0.2,0-0.3c0-0.1-0.1-0.1-0.1-0.1
				c0,0-0.1,0.1-0.2,0.1c-0.1,0.1-0.2,0.3-0.4,0.6l-0.2-0.1c0.2-0.4,0.5-0.7,0.8-0.9c0.3-0.2,0.5-0.3,0.6-0.4c0.1,0,0.1,0,0.1,0
				c0,0,0.1,0,0.1,0.1c0,0,0,0.2,0,0.3l0,0.9c0.2-0.6,0.5-1,0.8-1.5c0.2-0.2,0.3-0.3,0.4-0.3c0.1,0,0.2,0,0.2,0
				c0.1,0,0.1,0.1,0.1,0.2c0,0.1,0,0.2-0.1,0.2c0,0.1-0.2,0.2-0.4,0.3c-0.2,0.1-0.4,0.2-0.5,0.4c-0.1,0.1-0.3,0.3-0.4,0.6
				c-0.1,0.3-0.2,0.5-0.3,0.7c0,0.2-0.1,0.6-0.1,1.2L104.5,135.2z"/>
			<path class="st6" d="M106.2,131.9l-0.2-0.1c0.2-0.4,0.5-0.7,0.7-0.9c0.2-0.2,0.4-0.3,0.6-0.4c0.1,0,0.2,0,0.2,0
				c0.1,0,0.1,0.1,0.1,0.2c0,0.1,0,0.5-0.1,1.2c-0.1,1.2-0.1,1.9-0.1,2.1c0,0,0,0.1,0.1,0.1c0,0,0.1,0,0.1,0c0.1,0,0.3-0.3,0.6-0.7
				l0.2,0.1c-0.3,0.5-0.6,0.8-0.8,1c-0.2,0.2-0.3,0.2-0.4,0.3c-0.1,0-0.2,0-0.3,0c-0.1-0.1-0.1-0.1-0.2-0.3c-0.1-0.4,0-1.4,0.1-3
				c0-0.1,0-0.1,0-0.2c0-0.1,0-0.1-0.1-0.1c-0.1,0-0.1,0.1-0.2,0.1C106.6,131.4,106.4,131.6,106.2,131.9z M107.4,128.5
				c0.1,0,0.2,0,0.3,0c0.1,0.1,0.1,0.1,0.1,0.2c0,0.1,0,0.3-0.1,0.4c-0.1,0.1-0.2,0.2-0.3,0.2c-0.1,0-0.2,0-0.3,0
				c-0.1-0.1-0.1-0.1-0.1-0.2c0-0.1,0-0.3,0.1-0.4C107.2,128.6,107.3,128.5,107.4,128.5z"/>
			<path class="st6" d="M111.3,129.6l0.3-0.1l-0.1,1.2c0,0.5,0,1.1,0,1.7c0,0.3,0,0.6,0,0.7c0,0.1,0.1,0.1,0.1,0.1
				c0,0,0.1-0.1,0.2-0.2c0.2-0.2,0.3-0.3,0.4-0.6l0.2,0.1c-0.3,0.4-0.5,0.7-0.5,0.7c-0.2,0.2-0.3,0.3-0.5,0.4
				c-0.1,0.1-0.2,0.1-0.3,0.1c-0.1,0-0.1,0-0.2,0c0,0-0.1-0.1-0.1-0.1c0,0,0-0.1,0-0.2l0-0.7c-0.2,0.4-0.4,0.7-0.8,1
				c-0.2,0.2-0.4,0.3-0.6,0.4c-0.2,0-0.3,0-0.5-0.1c-0.2-0.1-0.3-0.3-0.4-0.6c-0.1-0.3-0.1-0.7,0-1.2c0.1-0.4,0.2-0.9,0.4-1.3
				c0.2-0.4,0.5-0.7,0.8-0.9c0.2-0.2,0.5-0.3,0.9-0.4c0.1,0,0.2,0,0.3-0.1L111.3,129.6z M110.9,130.4c-0.2,0-0.3,0-0.4,0
				c-0.3,0.1-0.5,0.2-0.7,0.4c-0.2,0.2-0.3,0.5-0.4,1c-0.1,0.4-0.1,0.9,0,1.2c0,0.2,0.1,0.4,0.2,0.4c0.1,0.1,0.2,0.1,0.3,0.1
				c0.2-0.1,0.4-0.2,0.6-0.5c0.2-0.3,0.3-0.7,0.3-1.1L110.9,130.4z"/>
		</g>
	</g>
	<path class="st7" d="M70.6,130.6c0,0-4.7-14.2-23.8-8.9"/>
	<path class="st8" d="M65.3,123.5c0,0-3.2-1.8-1.6-6C63.7,117.6,67.2,120.6,65.3,123.5z"/>
	<path class="st8" d="M64.8,122.8c0,0-1.3,3.4-5.7,2.5C59.1,125.3,61.7,121.4,64.8,122.8z"/>
	<path class="st8" d="M62.6,122.1c0,0-4.1-1-3.6-6.2C59.1,115.9,63.8,118.3,62.6,122.1z"/>
	<path class="st8" d="M60.6,121.3c0,0-1.3,4-6.4,3C54.2,124.3,56.9,119.8,60.6,121.3z"/>
	<path class="st8" d="M58.4,120.6c0,0-4.2,0.3-5.2-4.8C53.2,115.8,58.5,116.6,58.4,120.6z"/>
	<path class="st8" d="M55.4,120.5c0,0-0.9,3.6-5.4,3.1C50.1,123.7,52.1,119.5,55.4,120.5z"/>
	<path class="st8" d="M54,120.7c0,0-3.7,0.3-4.6-4.1C49.4,116.6,54,117.3,54,120.7z"/>
	<path class="st8" d="M50.6,120.8c0,0-0.9,3.6-5.4,3.1C45.2,123.9,47.3,119.7,50.6,120.8z"/>
	<path class="st8" d="M50.1,120.7c0,0-3.4,1.3-5.6-2.6C44.5,118.1,49.1,117.4,50.1,120.7z"/>
	<path class="st8" d="M47.3,121.4c0,0-2.6,2.6-6.2,0C41.1,121.3,45,118.8,47.3,121.4z"/>
	<path class="st7" d="M70.5,130.6c0,0,4.7-14.2,23.8-8.9"/>
	<path class="st8" d="M75.8,123.5c0,0,3.2-1.8,1.6-6C77.4,117.6,73.9,120.6,75.8,123.5z"/>
	<path class="st8" d="M76.3,122.8c0,0,1.3,3.4,5.7,2.5C82,125.3,79.4,121.4,76.3,122.8z"/>
	<path class="st8" d="M78.5,122.1c0,0,4.1-1,3.6-6.2C82,115.9,77.3,118.3,78.5,122.1z"/>
	<path class="st8" d="M80.5,121.3c0,0,1.3,4,6.4,3C86.9,124.3,84.2,119.8,80.5,121.3z"/>
	<path class="st8" d="M82.7,120.6c0,0,4.2,0.3,5.2-4.8C87.9,115.8,82.6,116.6,82.7,120.6z"/>
	<path class="st8" d="M85.7,120.5c0,0,0.9,3.6,5.4,3.1C91,123.7,89,119.5,85.7,120.5z"/>
	<path class="st8" d="M87.1,120.7c0,0,3.7,0.3,4.6-4.1C91.7,116.6,87.1,117.3,87.1,120.7z"/>
	<path class="st8" d="M90.5,120.8c0,0,0.9,3.6,5.4,3.1C95.9,123.9,93.8,119.7,90.5,120.8z"/>
	<path class="st8" d="M91,120.7c0,0,3.4,1.3,5.6-2.6C96.6,118.1,92,117.4,91,120.7z"/>
	<path class="st8" d="M93.8,121.4c0,0,2.6,2.6,6.2,0C100,121.3,96.1,118.8,93.8,121.4z"/>
	<path class="st9" d="M15.7,114.9c0,0,3.8,1.9,10.9,4.5c3.2,1.1,12.8,3.5,11.7,4.4c-0.5,1.5-4.2,11.9-4.2,11.9s-9-3.7-14.9-5.9
		c-4.3-1.6-11.2-4.1-11.2-4.1l13.8-0.8L15.7,114.9L15.7,114.9z"/>
	<path class="st10" d="M29.4,123.1c-0.3-1.2,10.5,1.4,9.1,0.2c0.9,0.7-0.5,3.1-0.9,4.1c-2.6,5.7-7.6,8.4-13,6.9
		c0.3-3.7,3.8-7.5,4.7-10.7L29.4,123.1z"/>
	<path class="st9" d="M125.4,114.9c0,0-3.8,1.9-10.9,4.5c-3.2,1.1-12.8,3.5-11.7,4.4c0.5,1.5,4.2,11.9,4.2,11.9s9-3.7,14.9-5.9
		c4.3-1.6,11.2-4.1,11.2-4.1l-13.8-0.8L125.4,114.9L125.4,114.9z"/>
	<path class="st10" d="M111.7,123.1c0.3-1.2-10.5,1.4-9.1,0.2c-0.9,0.7,0.5,3.1,0.9,4.1c2.6,5.7,7.6,8.4,13,6.9
		c-0.3-3.7-3.8-7.5-4.7-10.7L111.7,123.1z"/>
	<path class="st11" d="M70.8,140.7c25.5,0.2,45.3-4.6,45.7-6.4c0.7-3.3-1-7.7-5-11.1c0.1,2.8-22.7,6.3-40.9,6.1l0,0h0l0,0
		c-18.1,0.2-40.9-3.3-40.9-6.1c-4,3.4-5.7,7.8-5,11.1c0.4,1.8,20.2,6.6,45.7,6.4H70.8z"/>
	<g>
		<path class="st6" d="M34,130.8l-0.2-0.1c0.1-0.3,0.2-0.6,0.2-0.7c0.1-0.2,0-0.4-0.1-0.6c-0.1-0.2-0.3-0.3-0.5-0.3
			c-0.3-0.1-0.7,0-1,0.2c-0.3,0.2-0.5,0.4-0.6,0.7c0,0.2,0,0.3,0,0.5c0,0.1,0.1,0.4,0.3,0.7c0.3,0.5,0.5,0.9,0.6,1.2
			c0.1,0.3,0.1,0.5,0,0.8c-0.1,0.3-0.3,0.6-0.5,0.9c-0.3,0.3-0.6,0.4-1.1,0.6c-0.4,0.1-0.9,0.1-1.3,0c-0.4-0.1-0.8-0.3-1-0.6
			c-0.2-0.3-0.3-0.6-0.3-0.8c0-0.1,0.1-0.2,0.2-0.3c0.1-0.1,0.2-0.1,0.3-0.1c0.1,0,0.2,0.1,0.2,0.2c0,0.1,0,0.2,0.1,0.4
			c0,0.2,0,0.4,0.1,0.5c0,0.1,0.1,0.2,0.2,0.3c0.1,0.1,0.2,0.2,0.4,0.2c0.4,0.1,0.9,0,1.3-0.2c0.4-0.2,0.6-0.5,0.7-0.9
			c0-0.1,0-0.2,0-0.4c0-0.1-0.1-0.3-0.1-0.5c-0.1-0.1-0.2-0.3-0.4-0.7c-0.2-0.3-0.3-0.5-0.4-0.6c-0.1-0.2-0.1-0.3-0.1-0.5
			c0-0.2,0-0.3,0-0.4c0.1-0.3,0.2-0.5,0.5-0.8c0.3-0.2,0.6-0.4,0.9-0.5c0.3-0.1,0.7-0.1,1.1,0c0.2,0,0.4,0.1,0.7,0.3
			c0.2,0.1,0.3,0.1,0.4,0.2c-0.1,0.2-0.2,0.4-0.3,0.5C34.3,129.9,34.2,130.3,34,130.8z"/>
		<path class="st6" d="M37.6,131.2l0.3,0l-0.6,1.1c-0.2,0.4-0.5,1-0.7,1.5c-0.1,0.3-0.2,0.5-0.2,0.6c0,0.1,0,0.2,0.1,0.2
			c0,0,0.1,0,0.3-0.1c0.2-0.1,0.4-0.2,0.6-0.3l0.1,0.2c-0.4,0.3-0.7,0.4-0.8,0.5c-0.2,0.1-0.4,0.2-0.6,0.2c-0.1,0-0.2,0-0.4,0
			c-0.1,0-0.1,0-0.2-0.1c0,0,0-0.1,0-0.2c0,0,0-0.1,0.1-0.2l0.3-0.6c-0.3,0.3-0.7,0.5-1.1,0.6c-0.3,0.1-0.5,0.1-0.7,0.1
			c-0.2,0-0.3-0.1-0.4-0.3c-0.1-0.2-0.1-0.4-0.1-0.7c0.1-0.3,0.2-0.7,0.5-1c0.3-0.4,0.6-0.7,0.9-1c0.4-0.3,0.7-0.5,1.1-0.5
			c0.3-0.1,0.6-0.1,1,0c0.1,0,0.2,0,0.3,0.1L37.6,131.2z M36.9,131.8c-0.2-0.1-0.3-0.1-0.4-0.1c-0.3-0.1-0.5,0-0.8,0.1
			c-0.2,0.1-0.5,0.4-0.7,0.7c-0.3,0.4-0.4,0.7-0.5,1.1c0,0.2,0,0.4,0,0.5c0.1,0.1,0.1,0.2,0.3,0.2c0.2,0,0.5,0,0.8-0.2
			c0.3-0.2,0.5-0.5,0.7-0.9L36.9,131.8z"/>
		<path class="st6" d="M40,134.6l0.1,0.2c-0.3,0.2-0.6,0.4-1,0.6c-0.4,0.2-0.7,0.2-0.9,0.2c-0.1,0-0.2-0.1-0.2-0.2
			c0-0.1-0.1-0.2,0-0.3c0-0.2,0.2-0.7,0.6-1.5l0.9-2c0.3-0.7,0.5-1.2,0.7-1.4c0.3-0.4,0.6-0.6,1-0.8c0.4-0.2,0.8-0.2,1.2-0.1
			c0.1,0,0.2,0.1,0.3,0.1c0.1,0.1,0.1,0.2,0.1,0.3c0,0.1-0.1,0.2-0.2,0.2c-0.1,0.1-0.2,0.1-0.3,0c-0.1,0-0.2-0.1-0.4-0.1
			c-0.1,0-0.3-0.1-0.4-0.1c-0.1,0-0.2,0-0.3,0c-0.1,0.1-0.2,0.2-0.3,0.4s-0.3,0.7-0.6,1.4l-0.8,1.9c-0.4,0.9-0.6,1.4-0.6,1.5
			c0,0.1,0,0.2,0.1,0.2c0.1,0,0.2,0,0.3-0.1C39.4,135,39.7,134.8,40,134.6z"/>
		<path class="st6" d="M44.1,132.5l0.7,0.1l-0.7,1.6c-0.4,0.9-0.6,1.4-0.6,1.6c0,0.1,0,0.1,0,0.1c0,0,0.1,0.1,0.1,0.1
			c0.1,0,0.1,0,0.2,0c0.1-0.1,0.3-0.2,0.7-0.5l0.1,0.2c-0.7,0.6-1.2,0.8-1.5,0.8c-0.1,0-0.2-0.1-0.2-0.2c-0.1-0.1-0.1-0.2-0.1-0.3
			c0-0.2,0.1-0.4,0.2-0.6c-0.3,0.3-0.7,0.5-1.2,0.7c-0.3,0.1-0.5,0.2-0.7,0.1c-0.1,0-0.2-0.1-0.2-0.1c-0.1-0.1-0.1-0.2,0-0.4
			c0-0.1,0.1-0.2,0.1-0.4c0.1-0.2,0.2-0.6,0.5-1.1c0.3-0.7,0.5-1.2,0.5-1.3c0-0.1,0-0.1-0.1-0.1c-0.1,0-0.1,0-0.2,0.1
			c-0.1,0-0.3,0.2-0.6,0.3l-0.2-0.2c0.5-0.3,0.8-0.5,1.1-0.6c0.2-0.1,0.4-0.1,0.6-0.1c0.1,0,0.1,0,0.2,0.1c0,0.1,0,0.2,0,0.3
			c0,0.2-0.2,0.7-0.6,1.5c-0.3,0.7-0.5,1.2-0.5,1.3c0,0.1,0,0.1,0,0.2c0,0.1,0.1,0.1,0.1,0.1c0.2,0,0.4-0.1,0.8-0.3
			c0.4-0.2,0.6-0.5,0.8-0.9L44.1,132.5z"/>
		<path class="st6" d="M46.7,133.5c0.3-0.2,0.6-0.4,0.8-0.5c0.3-0.1,0.5-0.1,0.7-0.1c0.2,0,0.4,0.1,0.5,0.3c0.1,0.2,0.1,0.5,0.1,0.8
			c-0.1,0.5-0.2,1-0.5,1.5c-0.3,0.5-0.6,0.8-1,1c-0.4,0.2-0.8,0.3-1.1,0.3c-0.3,0-0.5-0.1-0.7-0.3c-0.2-0.2-0.2-0.4-0.2-0.7
			c0-0.2,0.1-0.5,0.2-0.9l0.9-2.4c0.2-0.6,0.4-1,0.7-1.3c0.2-0.3,0.5-0.5,0.9-0.7c0.4-0.2,0.7-0.2,1-0.2c0.2,0,0.3,0.1,0.4,0.1
			c0.1,0.1,0.1,0.2,0.1,0.3c0,0.1-0.1,0.2-0.1,0.2c-0.1,0.1-0.2,0.1-0.3,0.1c-0.1,0-0.3-0.1-0.5-0.1c-0.1,0-0.2-0.1-0.3-0.1
			c-0.2,0-0.3,0.1-0.4,0.2c-0.1,0.1-0.2,0.4-0.4,1L46.7,133.5z M47.7,133.3c-0.2,0-0.3,0.1-0.6,0.2c-0.2,0.2-0.5,0.5-0.7,0.9
			c-0.2,0.4-0.4,0.9-0.4,1.3c0,0.2,0,0.3,0.1,0.4c0.1,0.1,0.2,0.2,0.4,0.2c0.3,0,0.7-0.2,1-0.7c0.3-0.5,0.5-1.1,0.6-1.6
			c0-0.2,0-0.5-0.1-0.6C47.9,133.4,47.8,133.3,47.7,133.3z"/>
		<path class="st6" d="M50,137l-0.7-0.1l0.5-1.2c0.2-0.6,0.4-1.2,0.6-1.7c0-0.1,0.1-0.2,0.1-0.3c0-0.1,0-0.1-0.1-0.1
			c0,0-0.1,0-0.2,0.1c-0.1,0.1-0.3,0.2-0.6,0.4l-0.1-0.2c0.3-0.3,0.7-0.5,1-0.6c0.3-0.1,0.6-0.2,0.7-0.2c0.1,0,0.1,0,0.1,0.1
			c0,0,0,0.1,0,0.1c0,0,0,0.1-0.1,0.3l-0.3,0.8c0.4-0.5,0.8-0.9,1.2-1.2c0.2-0.2,0.4-0.2,0.5-0.2c0.1,0,0.2,0,0.2,0.1
			c0.1,0.1,0.1,0.1,0.1,0.2c0,0.1,0,0.2-0.1,0.2c-0.1,0.1-0.2,0.1-0.5,0.2c-0.2,0.1-0.4,0.1-0.6,0.2c-0.2,0.1-0.3,0.2-0.5,0.5
			c-0.2,0.2-0.3,0.4-0.4,0.6c-0.1,0.2-0.2,0.5-0.4,1.1L50,137z"/>
		<path class="st6" d="M52.6,134.4l-0.2-0.2c0.3-0.3,0.7-0.5,0.9-0.7c0.3-0.1,0.5-0.2,0.7-0.2c0.1,0,0.2,0,0.2,0.1
			c0,0,0.1,0.1,0.1,0.2c0,0.1-0.1,0.5-0.4,1.1c-0.4,1.1-0.7,1.7-0.7,2c0,0,0,0.1,0,0.1c0,0,0,0,0.1,0.1c0.1,0,0.4-0.2,0.8-0.5
			l0.2,0.2c-0.5,0.4-0.8,0.6-1,0.7c-0.2,0.1-0.4,0.1-0.5,0.1c-0.1,0-0.2-0.1-0.3-0.1c-0.1-0.1-0.1-0.2-0.1-0.3c0-0.4,0.4-1.3,1-2.8
			c0-0.1,0-0.1,0.1-0.2c0-0.1,0-0.1-0.1-0.1c-0.1,0-0.1,0-0.2,0.1C53.1,134,52.9,134.1,52.6,134.4z M54.7,131.4c0.1,0,0.2,0,0.2,0.1
			c0.1,0.1,0.1,0.2,0.1,0.3c0,0.1-0.1,0.3-0.2,0.4c-0.1,0.1-0.2,0.1-0.3,0.1c-0.1,0-0.2,0-0.2-0.1c-0.1-0.1-0.1-0.2-0.1-0.3
			c0-0.1,0.1-0.3,0.2-0.3C54.5,131.4,54.6,131.4,54.7,131.4z"/>
		<path class="st6" d="M56.4,132.8l0.8-0.2l-0.4,1.3l1,0.1l-0.1,0.3l-1-0.1l-0.5,1.6c-0.2,0.5-0.3,0.8-0.3,1c0,0.1,0,0.1,0,0.2
			c0,0,0.1,0.1,0.1,0.1c0.1,0,0.3,0,0.5-0.1c0.3-0.1,0.5-0.3,0.8-0.5l0.2,0.2c-0.7,0.5-1.2,0.8-1.5,0.9c-0.2,0.1-0.4,0.1-0.6,0.1
			c-0.1,0-0.2-0.1-0.3-0.1c-0.1-0.1-0.1-0.2-0.1-0.4c0-0.2,0.1-0.6,0.3-1l0.6-1.8l-0.8-0.1l0.1-0.3l0.8,0.1L56.4,132.8z"/>
		<path class="st6" d="M61.4,133.8l0.3,0l-0.4,1.2c-0.2,0.5-0.3,1-0.5,1.6c-0.1,0.3-0.1,0.5-0.1,0.6c0,0.1,0,0.2,0.1,0.2
			c0.1,0,0.1,0,0.2-0.1c0.2-0.1,0.4-0.2,0.6-0.4l0.1,0.2c-0.4,0.3-0.6,0.5-0.7,0.6c-0.2,0.1-0.4,0.2-0.6,0.3c-0.1,0-0.2,0.1-0.4,0
			c-0.1,0-0.1,0-0.2-0.1c0,0-0.1-0.1-0.1-0.2c0,0,0-0.1,0-0.2l0.2-0.6c-0.3,0.3-0.6,0.6-1,0.8c-0.2,0.1-0.5,0.2-0.6,0.2
			c-0.2,0-0.3-0.1-0.4-0.2c-0.1-0.2-0.2-0.4-0.2-0.7c0-0.3,0.1-0.7,0.3-1.1c0.2-0.4,0.5-0.8,0.8-1.1c0.3-0.3,0.6-0.5,1-0.7
			c0.3-0.1,0.6-0.1,1-0.1c0.1,0,0.2,0,0.3,0L61.4,133.8z M60.8,134.5c-0.2,0-0.3-0.1-0.4-0.1c-0.3,0-0.5,0-0.8,0.2
			c-0.2,0.1-0.4,0.4-0.6,0.8c-0.2,0.4-0.3,0.8-0.3,1.2c0,0.2,0,0.4,0.1,0.5c0.1,0.1,0.2,0.1,0.3,0.2c0.2,0,0.5-0.1,0.7-0.3
			c0.3-0.2,0.5-0.6,0.6-1L60.8,134.5z"/>
		<path class="st6" d="M64.5,133.9c0.3,0,0.5,0.1,0.6,0.2c0.1,0.1,0.2,0.2,0.2,0.4c0,0.1,0,0.2-0.1,0.2c-0.1,0.1-0.1,0.1-0.2,0.1
			c-0.1,0-0.1,0-0.2,0c0,0-0.1-0.1-0.2-0.2c-0.1-0.2-0.3-0.3-0.4-0.3c-0.1,0-0.2,0-0.3,0.1c-0.1,0.1-0.2,0.2-0.2,0.4
			c0,0.1,0,0.3,0.1,0.4c0.1,0.1,0.2,0.3,0.5,0.6c0.3,0.4,0.5,0.7,0.5,1.1c0,0.3-0.2,0.6-0.5,0.9c-0.3,0.2-0.7,0.4-1.1,0.3
			c-0.4,0-0.7-0.1-0.8-0.3c-0.2-0.2-0.3-0.4-0.3-0.6c0-0.1,0-0.2,0.1-0.3c0.1-0.1,0.2-0.1,0.3-0.1c0.1,0,0.2,0,0.2,0.1
			c0.1,0.1,0.1,0.1,0.1,0.2c0,0,0,0.1,0,0.1c0,0,0,0.1,0,0.1c0,0.1,0,0.2,0.1,0.3c0.1,0.1,0.2,0.1,0.3,0.1c0.2,0,0.3,0,0.5-0.1
			c0.1-0.1,0.2-0.1,0.3-0.3c0.1-0.1,0.1-0.2,0.1-0.3c0-0.1,0-0.2-0.1-0.3c-0.1-0.1-0.2-0.3-0.4-0.6c-0.3-0.4-0.5-0.7-0.5-1.1
			c0-0.3,0.1-0.6,0.4-0.8C63.8,134,64.1,133.9,64.5,133.9z"/>
		<path class="st6" d="M73.2,133.5l-0.3,0c0-0.2,0-0.3,0-0.4c0-0.1-0.1-0.2-0.2-0.2c-0.1,0-0.5-0.1-1.2-0.1l-0.7,0l-0.5,2.1l1,0
			c0.3,0,0.5,0,0.6-0.1c0.1,0,0.1-0.2,0.2-0.3h0.3c-0.1,0.4-0.2,0.8-0.3,1.3l-0.2,0c0-0.1,0-0.3,0-0.3c0,0,0-0.1-0.1-0.1
			c0,0-0.1,0-0.1-0.1c-0.1,0-0.2,0-0.4,0l-1,0c-0.3,1.1-0.6,1.9-0.9,2.5c0.3-0.1,0.6-0.1,0.8-0.1c0.4,0,0.8,0.1,1.4,0.2
			c0.3,0.1,0.5,0.1,0.6,0.1c0.1,0,0.3,0,0.3-0.1c0.1-0.1,0.1-0.1,0.1-0.2c0-0.1,0-0.1-0.1-0.2c0-0.1,0-0.2,0-0.2
			c0-0.1,0-0.1,0.1-0.2c0.1-0.1,0.1-0.1,0.2-0.1c0.1,0,0.2,0,0.2,0.1c0.1,0.1,0.1,0.2,0.1,0.3c0,0.3-0.1,0.5-0.4,0.7
			c-0.2,0.2-0.5,0.3-0.9,0.3c-0.2,0-0.5,0-0.8-0.1c-0.7-0.1-1.2-0.1-1.6-0.1c-0.5,0-1,0-1.6,0.1l0.1-0.3c0.4-0.1,0.6-0.2,0.7-0.2
			c0.1,0,0.1-0.1,0.2-0.2c0.2-0.3,0.4-0.9,0.6-1.8c0.2-0.9,0.5-1.9,0.8-2.9c-0.4,0-0.7,0.1-1.1,0.3c-0.3,0.2-0.6,0.4-0.8,0.7
			c-0.2,0.3-0.3,0.6-0.3,0.9c0,0.1,0,0.3,0,0.4c0,0.1,0.1,0.2,0.2,0.4c0.1,0.1,0.1,0.2,0.1,0.3c0,0.1,0,0.1-0.1,0.2
			c-0.1,0.1-0.1,0.1-0.2,0.1c-0.1,0-0.2-0.1-0.3-0.2c-0.1-0.2-0.2-0.4-0.2-0.7c0-0.7,0.3-1.3,0.8-1.8c0.5-0.5,1.2-0.8,2.2-0.8l1.6,0
			c0.6,0,1,0,1.2-0.1C73.4,132.9,73.3,133.3,73.2,133.5z"/>
		<path class="st6" d="M75.3,133.3L76,133l-0.3,1.3l1,0l-0.1,0.3l-1,0l-0.4,1.6c-0.1,0.5-0.2,0.8-0.2,1c0,0.1,0,0.1,0.1,0.2
			c0,0,0.1,0.1,0.2,0.1c0.1,0,0.2-0.1,0.4-0.2c0.3-0.2,0.5-0.3,0.7-0.5l0.2,0.2c-0.7,0.5-1.1,0.9-1.4,1c-0.2,0.1-0.4,0.2-0.6,0.2
			c-0.1,0-0.2,0-0.3-0.1c-0.1-0.1-0.1-0.2-0.1-0.4c0-0.2,0.1-0.6,0.2-1l0.5-1.9l-0.8,0l0.1-0.3l0.8,0L75.3,133.3z"/>
		<path class="st6" d="M83.1,132.1l-0.1,0.3c-0.4,0-0.6,0.1-0.7,0.2c-0.1,0-0.1,0.1-0.2,0.2c-0.1,0.1-0.2,0.7-0.4,1.8
			c-0.1,0.4-0.3,1.4-0.6,3c0.2,0.1,0.5,0.1,0.8,0.1l-0.1,0.2c-0.1,0-0.3,0-0.6,0c-0.2,0-0.5,0-0.8,0c-0.4,0-0.8,0.1-1.1,0.1l0-0.3
			c0.3-0.1,0.6-0.2,0.8-0.2c0,0,0.1-0.1,0.1-0.1c0-0.1,0.1-0.2,0.1-0.3c0-0.2,0.2-0.9,0.5-2.1c0.1-0.4,0.2-1.2,0.5-2.4
			c-0.2,0-0.5,0-0.8,0.1l0.1-0.3c0.1,0,0.3-0.1,0.4-0.1c0.1,0,0.5,0,0.9-0.1C82.5,132.2,82.9,132.2,83.1,132.1z"/>
		<path class="st6" d="M83.4,134.8l-0.2-0.2c0.4-0.4,0.7-0.7,0.9-0.8c0.2-0.1,0.4-0.2,0.6-0.2c0.1,0,0.1,0,0.2,0
			c0,0,0.1,0.1,0.1,0.1c0,0,0,0.1,0,0.2l-0.2,1c0.3-0.4,0.7-0.7,1.1-1.1c0.2-0.2,0.5-0.3,0.6-0.3c0.1,0,0.2,0,0.3,0.1
			c0.1,0.1,0.1,0.2,0.1,0.3c0,0.1,0,0.2,0,0.3c0,0.2-0.1,0.7-0.3,1.4c-0.2,0.7-0.2,1.1-0.2,1.3c0,0.1,0,0.1,0,0.1c0,0,0,0,0.1,0
			c0.1,0,0.2-0.1,0.4-0.3c0.1-0.1,0.3-0.3,0.4-0.4l0.1,0.2c-0.3,0.3-0.6,0.6-0.9,0.8c-0.2,0.1-0.3,0.2-0.5,0.2c-0.1,0-0.2,0-0.3-0.1
			c-0.1-0.1-0.1-0.2-0.1-0.4c0-0.3,0.1-1,0.4-2.1c0.1-0.4,0.1-0.6,0.1-0.7c0-0.1-0.1-0.1-0.2-0.1c-0.1,0-0.3,0.1-0.5,0.2
			c-0.3,0.2-0.5,0.5-0.7,0.7c-0.1,0.2-0.2,0.5-0.3,0.8l-0.3,1.7l-0.7,0c0.1-0.5,0.2-0.9,0.3-1.4l0.3-1.8c0-0.1,0-0.1,0-0.2
			c0-0.1,0-0.1-0.1-0.1c-0.1,0-0.1,0-0.2,0.1C83.7,134.4,83.6,134.6,83.4,134.8z"/>
		<path class="st6" d="M91.6,136.1l0.1,0.2c-0.4,0.4-0.7,0.7-0.9,0.8c-0.3,0.2-0.5,0.3-0.6,0.3c-0.1,0-0.1,0-0.2,0
			c-0.1,0-0.1-0.1-0.1-0.1c0-0.1,0-0.1,0-0.3l0.1-0.6c-0.3,0.4-0.6,0.7-0.9,0.9c-0.2,0.2-0.5,0.3-0.7,0.3c-0.2,0-0.3,0-0.4-0.2
			c-0.1-0.1-0.2-0.3-0.2-0.6c0-0.4,0.1-1,0.3-1.6c0.3-0.6,0.6-1.1,0.9-1.4c0.4-0.3,0.7-0.5,1-0.5c0.1,0,0.2,0,0.3,0
			c0.1-0.6,0.2-1.1,0.3-1.4c0.1-0.3,0.3-0.6,0.5-0.8c0.2-0.2,0.4-0.4,0.7-0.5c0.3-0.1,0.5-0.2,0.8-0.2c0.1,0,0.2,0,0.3,0.1
			c0.1,0.1,0.1,0.1,0.1,0.2c0,0.1,0,0.2-0.1,0.2c-0.1,0.1-0.2,0.1-0.3,0.1c-0.1,0-0.2,0-0.4,0c-0.2,0-0.4,0-0.4,0
			c-0.1,0-0.2,0.1-0.3,0.1c-0.1,0.1-0.1,0.2-0.2,0.5c0,0.1-0.1,0.6-0.2,1.4l-0.4,2.9c0,0.3-0.1,0.6-0.1,0.7c0,0.1,0.1,0.2,0.2,0.2
			c0.1,0,0.1,0,0.2-0.1C91.2,136.5,91.4,136.3,91.6,136.1z M90.4,133.7c-0.3,0-0.4,0-0.5,0c-0.2,0-0.4,0.1-0.6,0.3
			c-0.2,0.2-0.4,0.5-0.5,1c-0.1,0.5-0.2,0.9-0.2,1.3c0,0.2,0.1,0.3,0.2,0.4c0.1,0.1,0.2,0.1,0.3,0.1c0.1,0,0.3-0.1,0.4-0.2
			c0.2-0.2,0.4-0.4,0.5-0.7c0.1-0.2,0.2-0.6,0.2-1.2L90.4,133.7z"/>
		<path class="st6" d="M95.3,132.7l0.7-0.1l-0.3,1.7c-0.2,1-0.2,1.5-0.2,1.7c0,0.1,0,0.1,0.1,0.1c0,0,0.1,0,0.1,0
			c0.1,0,0.1,0,0.2-0.1c0.1-0.1,0.3-0.3,0.5-0.6l0.2,0.2c-0.6,0.7-1,1.1-1.3,1.1c-0.1,0-0.2,0-0.3-0.1c-0.1-0.1-0.1-0.2-0.1-0.3
			c0-0.2,0-0.4,0-0.7c-0.2,0.4-0.6,0.7-0.9,1c-0.3,0.2-0.5,0.3-0.7,0.3c-0.1,0-0.2,0-0.3-0.1c-0.1-0.1-0.1-0.2-0.1-0.3
			c0-0.1,0-0.3,0-0.4c0-0.2,0.1-0.6,0.2-1.2c0.1-0.8,0.2-1.2,0.2-1.4c0-0.1,0-0.1-0.1-0.1c-0.1,0-0.1,0-0.2,0.1
			c-0.1,0.1-0.2,0.2-0.5,0.5l-0.2-0.1c0.4-0.4,0.7-0.7,0.9-0.9c0.2-0.1,0.4-0.2,0.5-0.2c0.1,0,0.1,0,0.2,0.1c0.1,0,0.1,0.1,0.1,0.2
			c0,0.2,0,0.8-0.2,1.6c-0.1,0.8-0.2,1.2-0.2,1.3c0,0.1,0,0.1,0.1,0.2c0,0,0.1,0.1,0.1,0.1c0.2,0,0.4-0.2,0.7-0.5
			c0.3-0.3,0.5-0.7,0.5-1.1L95.3,132.7z"/>
		<path class="st6" d="M98.6,132.1c0.3,0,0.5,0,0.7,0.1c0.2,0.1,0.3,0.2,0.3,0.3c0,0.1,0,0.2-0.1,0.2c-0.1,0.1-0.1,0.1-0.2,0.1
			c-0.1,0-0.1,0-0.2,0c0,0-0.1-0.1-0.2-0.2c-0.2-0.2-0.3-0.3-0.5-0.2c-0.1,0-0.2,0.1-0.3,0.2c-0.1,0.1-0.1,0.2-0.1,0.4
			c0,0.1,0.1,0.2,0.1,0.4c0.1,0.1,0.3,0.3,0.6,0.5c0.4,0.3,0.6,0.6,0.7,1c0,0.3-0.1,0.6-0.3,0.9c-0.2,0.3-0.6,0.5-1,0.5
			c-0.4,0.1-0.7,0-0.9-0.1c-0.2-0.1-0.3-0.3-0.4-0.5c0-0.1,0-0.2,0.1-0.3c0.1-0.1,0.1-0.1,0.2-0.1c0.1,0,0.2,0,0.2,0.1
			c0.1,0,0.1,0.1,0.1,0.2c0,0,0,0.1,0,0.1c0,0,0,0.1,0,0.1c0,0.1,0.1,0.2,0.2,0.2c0.1,0.1,0.2,0.1,0.4,0.1c0.2,0,0.3-0.1,0.4-0.1
			c0.1-0.1,0.2-0.2,0.3-0.3c0.1-0.1,0.1-0.2,0.1-0.4c0-0.1-0.1-0.2-0.1-0.3c-0.1-0.1-0.3-0.3-0.5-0.5c-0.4-0.3-0.6-0.6-0.6-1
			c0-0.3,0-0.6,0.3-0.9C98,132.4,98.3,132.2,98.6,132.1z"/>
		<path class="st6" d="M100.9,131l0.7-0.4l-0.1,1.4l1-0.2l0,0.3l-1,0.2l-0.2,1.6c-0.1,0.5-0.1,0.8,0,1c0,0.1,0,0.1,0.1,0.2
			c0,0,0.1,0,0.2,0c0.1,0,0.2-0.1,0.4-0.2c0.2-0.2,0.5-0.4,0.7-0.6l0.2,0.2c-0.6,0.6-1,1-1.2,1.2c-0.2,0.2-0.4,0.2-0.5,0.3
			c-0.1,0-0.2,0-0.3-0.1c-0.1-0.1-0.1-0.2-0.2-0.4c0-0.2,0-0.6,0-1.1l0.2-1.9l-0.8,0.1l0-0.3l0.8-0.1L100.9,131z"/>
		<path class="st6" d="M104.5,135.2l-0.7,0.1l0.1-1.3c0-0.6,0.1-1.3,0.1-1.8c0-0.1,0-0.2,0-0.3c0-0.1-0.1-0.1-0.1-0.1
			c0,0-0.1,0.1-0.2,0.1c-0.1,0.1-0.2,0.3-0.4,0.6l-0.2-0.1c0.2-0.4,0.5-0.7,0.8-0.9c0.3-0.2,0.5-0.3,0.6-0.4c0.1,0,0.1,0,0.1,0
			c0,0,0.1,0,0.1,0.1c0,0,0,0.2,0,0.3l0,0.9c0.2-0.6,0.5-1,0.8-1.5c0.2-0.2,0.3-0.3,0.4-0.3c0.1,0,0.2,0,0.2,0
			c0.1,0,0.1,0.1,0.1,0.2c0,0.1,0,0.2-0.1,0.2c0,0.1-0.2,0.2-0.4,0.3c-0.2,0.1-0.4,0.2-0.5,0.4c-0.1,0.1-0.3,0.3-0.4,0.6
			c-0.1,0.3-0.2,0.5-0.3,0.7c0,0.2-0.1,0.6-0.1,1.2L104.5,135.2z"/>
		<path class="st6" d="M106.2,131.9l-0.2-0.1c0.2-0.4,0.5-0.7,0.7-0.9c0.2-0.2,0.4-0.3,0.6-0.4c0.1,0,0.2,0,0.2,0
			c0.1,0,0.1,0.1,0.1,0.2c0,0.1,0,0.5-0.1,1.2c-0.1,1.2-0.1,1.9-0.1,2.1c0,0,0,0.1,0.1,0.1c0,0,0.1,0,0.1,0c0.1,0,0.3-0.3,0.6-0.7
			l0.2,0.1c-0.3,0.5-0.6,0.8-0.8,1c-0.2,0.2-0.3,0.2-0.4,0.3c-0.1,0-0.2,0-0.3,0c-0.1-0.1-0.1-0.1-0.2-0.3c-0.1-0.4,0-1.4,0.1-3
			c0-0.1,0-0.1,0-0.2c0-0.1,0-0.1-0.1-0.1c-0.1,0-0.1,0.1-0.2,0.1C106.6,131.4,106.4,131.6,106.2,131.9z M107.4,128.5
			c0.1,0,0.2,0,0.3,0c0.1,0.1,0.1,0.1,0.1,0.2c0,0.1,0,0.3-0.1,0.4c-0.1,0.1-0.2,0.2-0.3,0.2c-0.1,0-0.2,0-0.3,0
			c-0.1-0.1-0.1-0.1-0.1-0.2c0-0.1,0-0.3,0.1-0.4C107.2,128.6,107.3,128.5,107.4,128.5z"/>
		<path class="st6" d="M111.3,129.6l0.3-0.1l-0.1,1.2c0,0.5,0,1.1,0,1.7c0,0.3,0,0.6,0,0.7c0,0.1,0.1,0.1,0.1,0.1
			c0,0,0.1-0.1,0.2-0.2c0.2-0.2,0.3-0.3,0.4-0.6l0.2,0.1c-0.3,0.4-0.5,0.7-0.5,0.7c-0.2,0.2-0.3,0.3-0.5,0.4
			c-0.1,0.1-0.2,0.1-0.3,0.1c-0.1,0-0.1,0-0.2,0c0,0-0.1-0.1-0.1-0.1c0,0,0-0.1,0-0.2l0-0.7c-0.2,0.4-0.4,0.7-0.8,1
			c-0.2,0.2-0.4,0.3-0.6,0.4c-0.2,0-0.3,0-0.5-0.1c-0.2-0.1-0.3-0.3-0.4-0.6c-0.1-0.3-0.1-0.7,0-1.2c0.1-0.4,0.2-0.9,0.4-1.3
			c0.2-0.4,0.5-0.7,0.8-0.9c0.2-0.2,0.5-0.3,0.9-0.4c0.1,0,0.2,0,0.3-0.1L111.3,129.6z M110.9,130.4c-0.2,0-0.3,0-0.4,0
			c-0.3,0.1-0.5,0.2-0.7,0.4c-0.2,0.2-0.3,0.5-0.4,1c-0.1,0.4-0.1,0.9,0,1.2c0,0.2,0.1,0.4,0.2,0.4c0.1,0.1,0.2,0.1,0.3,0.1
			c0.2-0.1,0.4-0.2,0.6-0.5c0.2-0.3,0.3-0.7,0.3-1.1L110.9,130.4z"/>
	</g>
	<path class="st12" d="M115,71.1c0,0,2.9,8.6,4.8,11.9c1.9,3.2,5.1,17.9,1.1,22.5c-4,4.6-9.9,10.2-15,9c-5.1-1.2-12-4.5-14.8-5.3
		c-2.8-0.8-11.6,0.8-13.4,1.9c-1.9,1.1-6.8,3.7-6.8,3.7l-0.2-43.5L115,71.1z"/>
	<path class="st12" d="M26.1,71.4c0,0,3.6-11.5,0.4-23.1l-7.2-18.1l51.6,0.6l-0.2,40.8L26.1,71.4z"/>
	<path class="st13" d="M50.2,51.8l0.3,0.6l0,0.1l0.1,0.2L49,57.1c0,0-0.3,0.3-0.2,0.5l-0.1,0.1c0,0-0.1,0.1-0.1,0.2
		c0,0-0.1,0.1-0.1,0.1c0,0-0.1,0.2,0,0.3l-0.6,0.8c0,0-0.1,0.5,0.1,0.4c0,0,0.9,0.1,0.9,0.1s0.5-0.3,0.5-0.4l0-0.6
		c0,0-0.1-0.5,0-0.9c0,0,0.2-0.3,0.2-0.5l0.2-0.8l1.3-3.2c0,0,0.3-0.6,0.3-0.6c0,0,0.1-0.1,0.1-0.1l0-0.1l0-0.1c0,0,0.3-0.5,0.1-0.9
		c0-0.1-0.4-0.6-0.8-0.3L50.2,51.8z"/>
	<path class="st14" d="M45.3,60.4c0,0-0.2-0.5,0.2-0.8c0,0,0.2-0.2,0.2-0.2s0.1-0.2,0.4-0.2c0,0,0.6,0,0.6,0l0.4,0l0.3,0l0.1,0
		l0.1,0l0-0.1l0.1,0l0.2,0l0.1,0c0,0,0.1,0,0.1,0c0,0,0.1,0.1,0.1,0.1l0,0l0,0.1l0,0l0,0.1l0,0.1l0,0l-0.1,0c0,0-0.1,0-0.1,0
		c0,0-0.1,0-0.2-0.1c0,0-0.1,0-0.1,0l-1.3,0.2c0,0-0.3,0.2-0.5,0.1C45.9,59.7,45.2,60,45.3,60.4z"/>
	<path class="st14" d="M45.9,60.8c0,0-0.3-0.5,0-0.9c0,0,0.2-0.3,0.2-0.3s0.1-0.2,0.3-0.3c0,0,0.6-0.1,0.6-0.1l0.4-0.1l0.2-0.1
		l0.1,0l0.1-0.1l0-0.1l0,0l0.2-0.1l0.1,0c0,0,0.1,0,0.1,0c0,0,0.1,0.1,0.1,0.1l0,0l0.1,0.1l0,0l0,0.1v0.1l0,0l-0.1,0
		c0,0-0.1,0-0.1,0c0,0-0.1,0-0.2,0c0,0-0.1,0-0.1,0l-1.2,0.4c0,0-0.2,0.3-0.4,0.2C46.4,60.1,45.7,60.5,45.9,60.8z"/>
	<path class="st14" d="M46.7,61.4c0,0-0.4-0.4-0.1-0.8c0,0,0.1-0.3,0.1-0.3s0-0.2,0.3-0.3c0,0,0.6-0.2,0.6-0.2l0.4-0.2l0.2-0.1
		l0.1-0.1l0.1-0.1l0-0.1l0,0l0.2-0.1l0.1,0c0,0,0.1,0,0.1,0c0,0,0.1,0.1,0.1,0.1l0,0l0.1,0.1l0,0l0,0.1l0,0.1l0,0L49,59.6
		c0,0-0.1,0.1-0.1,0.1c0,0-0.1,0-0.2,0c0,0-0.1,0-0.1,0l-1.1,0.6c0,0-0.2,0.3-0.4,0.3C47,60.5,46.5,61.1,46.7,61.4z"/>
	<path class="st15" d="M50.6,60.3c0,0,0.1-0.6-0.1-0.8c0,0-0.1-0.2-0.1-0.2s-0.1-0.2-0.2-0.2c0,0-0.3,0-0.3,0l-0.2,0l-0.1,0l-0.1,0
		l0,0l0-0.1l0,0l-0.1,0l0,0c0,0,0,0,0,0c0,0,0,0.1,0,0.1l0,0.1l0,0.1l0,0.1l0,0.1l0,0.1l0,0l0,0c0,0,0.1,0,0.1,0
		c0,0,0.1-0.1,0.1-0.1c0,0,0,0,0,0l0.7,0.2c0,0,0.1,0.2,0.2,0.1C50.3,59.6,50.7,59.9,50.6,60.3z"/>
	<path class="st13" d="M46.6,57.1c0,0-0.3,0.3-0.2,0.5l-0.1,0.1c0,0-0.1,0.1-0.1,0.2c0,0-0.1,0.1-0.1,0.1c0,0-0.1,0.2,0,0.3
		l-0.6,0.8c0,0-0.1,0.5,0.1,0.4c0,0,0.9,0.1,0.9,0.1s0.5-0.3,0.5-0.4l0-0.6c0,0-0.1-0.5,0-0.9c0,0,0.2-0.3,0.2-0.5l0.2-0.8l1.3-3.2
		c0,0,0.3-0.6,0.3-0.6c0,0,0.1-0.1,0.1-0.1l0-0.1v-0.1c0,0,0.3-0.5,0.1-0.9c0-0.1-0.4-0.6-0.8-0.3l-0.5,0.5l0.3,0.6l0,0.1l0.1,0.2"
		/>
	<path class="st14" d="M42.9,60.3c0,0-0.2-0.5,0.2-0.8c0,0,0.2-0.2,0.2-0.2s0.1-0.2,0.4-0.2c0,0,0.6,0,0.6,0l0.4,0l0.3,0l0.1,0
		l0.1,0l0-0.1l0.1,0l0.2,0l0.1,0c0,0,0.1,0,0.1,0c0,0,0.1,0.1,0.1,0.1l0,0l0,0.1l0,0l0,0.1l0,0.1l0,0l-0.1,0c0,0-0.1,0-0.1,0
		c0,0-0.1,0-0.2-0.1c0,0-0.1,0-0.1,0l-1.3,0.2c0,0-0.3,0.2-0.5,0.1C43.4,59.6,42.7,60,42.9,60.3z"/>
	<path class="st14" d="M43.5,60.8c0,0-0.3-0.5,0-0.9c0,0,0.2-0.3,0.2-0.3s0.1-0.2,0.3-0.3c0,0,0.6-0.1,0.6-0.1l0.4-0.1l0.2-0.1
		l0.1,0l0.1-0.1l0-0.1l0.1,0l0.2-0.1l0.1,0c0,0,0.1,0,0.1,0c0,0,0.1,0.1,0.1,0.1l0,0l0.1,0.1l0,0l0,0.1l0,0.1l0,0l-0.1,0
		c0,0-0.1,0-0.1,0c0,0-0.1,0-0.2,0c0,0-0.1,0-0.1,0l-1.2,0.4c0,0-0.2,0.3-0.4,0.2C43.9,60,43.3,60.4,43.5,60.8z"/>
	<path class="st14" d="M44.3,61.3c0,0-0.4-0.4-0.1-0.8c0,0,0.1-0.3,0.1-0.3s0-0.2,0.3-0.3c0,0,0.6-0.2,0.6-0.2l0.4-0.2l0.2-0.1
		l0.1-0.1l0.1-0.1l0-0.1l0,0l0.2-0.1l0.1,0c0,0,0.1,0,0.1,0c0,0,0.1,0.1,0.1,0.1l0,0l0.1,0.1l0,0l0,0.1l0,0.1l0,0l-0.1,0.1
		c0,0-0.1,0.1-0.1,0.1c0,0-0.1,0-0.2,0c0,0-0.1,0-0.1,0L45,60.2c0,0-0.2,0.3-0.4,0.3C44.6,60.5,44,61,44.3,61.3z"/>
	<path class="st15" d="M48.2,60.2c0,0,0.1-0.6-0.1-0.8c0,0-0.1-0.2-0.1-0.2S47.9,59,47.8,59c0,0-0.3,0-0.3,0l-0.2,0l-0.1,0L47,59
		l0,0l0-0.1l0,0l-0.1,0l0,0c0,0,0,0,0,0c0,0,0,0.1,0,0.1l0,0.1l0,0.1l0,0.1l0,0.1l0,0.1l0,0l0,0c0,0,0.1,0,0.1,0
		c0,0,0.1-0.1,0.1-0.1c0,0,0,0,0,0l0.6,0.2c0,0,0.1,0.2,0.2,0.1C47.9,59.6,48.2,59.9,48.2,60.2z"/>
	<path class="st16" d="M36.8,41.8c0,0,0.2-0.7,0.4-1c0,0,0.5-0.8,1.6-1.2c0,0,1.5-0.6,2.6-0.4c0,0,1.5,0.2,3.3,1.2
		c0,0,1.6,0.8,2.6,1.1c0,0,3.6,1.2,5,2.1c0,0,0.2,0.1,0.2,0.1s4.1-1.8,6.4-2.5c0,0,2.7-0.9,3.6-0.9l1.5,0c0,0,0.2,0,0.2,0.2
		c0,0-0.1,0.2-1,0.4c0,0-0.4,0.1-0.4,0.3c0,0,0.4,0.5-1,0.6c0,0-2.9,0.9-3.8,1.4L56,45.6c0,0-1.7,2.6-2.2,3.9c0,0,0.1,0.7-0.6,1.4
		l-0.7,1.4l-1.4,0.4c0,0-0.1-0.7-0.5-0.5l0,0l-0.5,0.2c0,0-8,2.8-11-3.6c0,0-0.8-1.8-0.5-2.9c0,0,0.1-0.7-0.7-1.6c0,0-0.8-1-0.9-1.1
		C36.8,42.9,36.5,42.3,36.8,41.8z"/>
	<path class="st17" d="M51.9,43.7c0.9-0.1,2.6,0.8,2.6,0.8s0.1,0.1,0.2,0.1c0.1,0,0.7,0.7,0.5,0.7c1.9,1,1.3,1.2,1.3,1.2
		c-0.1-0.1-0.4-0.1-0.5-0.1c-0.2,0,0.1,0.1,0.1,0.1s0.8,0.3,0.7,0.2c0.1,0,0.5,0.5,0.5,0.5s1,1,1.1,1c-0.7,0-2.2-0.2-2.2-0.2
		c-1,0.3-3.5,0.3-3.4,0.3c-0.6,0.3-2.7,0.1-2.6,0.1c-2.6,0.1-4.6-1.2-4.6-1.2s-0.9-0.6-0.9-1.6"/>
	<path class="st17" d="M51.5,48.1c1.3-0.5-0.6-1.9-0.6-1.9s4.3,0.3,5.5,0.6"/>
	<path class="st18" d="M34.9,42.9c0,0,0-0.8,1.6-1l0.4-0.1c0,0,0.3-0.1,0.5,0.2c0,0,0.3,0.2,1.1,0.1c0,0-0.8,0.3-1,0.6
		c0,0-0.7,0.3-1.3,0.2L34.9,42.9L34.9,42.9z"/>
	<ellipse class="st12" cx="40.6" cy="41.2" rx="0.7" ry="0.6"/>
	<line class="st19" x1="20.3" y1="30.7" x2="121.6" y2="30.7"/>
	<line class="st20" x1="26.2" y1="71.2" x2="114.8" y2="71.2"/>
	<line class="st21" x1="70.7" y1="30.7" x2="70.7" y2="114.7"/>
	<polygon class="st8" points="121.5,31 115.8,44.6 29.1,113.3 22.2,108.6 19.3,102.2 109.4,30.7 	"/>
	<g>
		<path class="st0" d="M25.6,108.2c0.5,0.3,1.6,0.8,2.3,0.3c0.4-0.3,0.4-0.8,0.1-1.3c-0.4-0.4-0.8-0.5-1.4-0.3l-0.1,0
			c-0.8,0.2-1.8,0.3-2.4-0.5c-0.7-0.9-0.6-2,0.5-2.9c0.2-0.2,0.5-0.3,0.7-0.4c0.2-0.1,0.3-0.1,0.5-0.2c0.3,0.3,0.6,0.6,1.1,1.1
			l-0.3,0.3c-0.5-0.4-1.2-0.7-1.8-0.3c-0.4,0.3-0.4,0.8-0.1,1.1c0.3,0.4,0.7,0.4,1.4,0.2l0.2,0c0.9-0.2,1.8-0.3,2.5,0.6
			c0.7,0.9,0.6,2.2-0.5,3c-0.3,0.2-0.6,0.4-0.9,0.5c-0.3,0.1-0.5,0.1-0.6,0.2c-0.3-0.3-0.7-0.6-1.2-1.1L25.6,108.2z"/>
		<path class="st0" d="M28.5,100.9l-0.2,0.2c-0.2,0.2-0.2,0.3,0.1,0.6l2.7,2l0,0l-1.6-3.9l0.5-0.4l3.6,2.4l0,0
			c-0.4-1.1-1-2.3-1.3-2.9c-0.2-0.5-0.3-0.6-0.7-0.4l-0.3,0.2l-0.2-0.3l1.7-1.3l0.2,0.3c-0.3,0.4-0.4,0.4-0.1,1.3
			c0,0.1,0.9,2.3,1.9,4.8l-0.5,0.4l-3.5-2.2l0,0l1.5,3.8l-0.5,0.4l-4.3-3c-0.7-0.5-0.8-0.4-1.2-0.2l-0.2-0.3l2.2-1.8L28.5,100.9z"/>
		<path class="st0" d="M37.7,99.2c0.6,0.8,0.7,0.8,1.3,0.5l0.2,0.3l-2.3,1.8l-0.2-0.3c0.5-0.4,0.5-0.5-0.2-1.3l-2-2.5
			c-0.6-0.8-0.7-0.8-1.3-0.5L33,96.9l2.3-1.8l0.2,0.3c-0.5,0.4-0.5,0.5,0.2,1.3L37.7,99.2z"/>
		<path class="st0" d="M43.9,96.3l-0.6,0.5l-5.4-1.5l0,0l1.1,1.4c0.6,0.8,1,1.2,1.2,1.4c0.2,0.2,0.5,0.2,1-0.2l0.2,0.3l-1.8,1.4
			l-0.2-0.3c0.3-0.3,0.4-0.5,0.2-0.8c-0.2-0.3-0.5-0.7-1.1-1.5l-1.1-1.4c-0.4-0.6-0.5-0.6-0.8-0.7c-0.2-0.1-0.5,0-0.7,0.2l-0.2-0.3
			l1.6-1.2l4.8,1.3l0,0l-0.8-1c-0.6-0.8-1-1.2-1.2-1.4c-0.2-0.2-0.5-0.2-1,0.2l-0.2-0.3l1.8-1.4l0.2,0.3c-0.3,0.3-0.4,0.5-0.3,0.8
			c0.2,0.3,0.5,0.7,1.1,1.5L43.9,96.3z"/>
		<path class="st0" d="M43,89c0.9-0.7,1.7-1.1,2.6-1c0.6,0.1,1.3,0.4,1.8,1.1c1.5,1.9,0.8,3.7-0.9,5l-1.8,1.4l-0.2-0.3
			c0.5-0.5,0.5-0.6-0.1-1.4l-2-2.5c-0.6-0.8-0.7-0.8-1.2-0.5l-0.2-0.3L43,89z M45.6,93c0.5,0.7,0.8,0.7,1.1,0.4
			c0.6-0.5,0.7-1.7-0.4-3c-1.3-1.6-2.4-1.5-3-1c-0.2,0.1-0.2,0.2-0.3,0.3c0,0,0.1,0.2,0.3,0.4L45.6,93z"/>
		<path class="st0" d="M52.9,85c1.3,1.6,1,3.4-0.3,4.5c-1.4,1.1-3.2,0.8-4.3-0.6c-1-1.2-1.3-3.2,0.4-4.6
			C49.9,83.3,51.7,83.6,52.9,85z M49.3,87.6c1.1,1.4,2.3,2,3,1.4c0.6-0.5,0.4-1.4-0.6-2.7c-1.2-1.5-2.4-1.9-3-1.5
			C48.2,85.3,48.3,86.3,49.3,87.6z"/>
		<path class="st0" d="M59.6,83.9L59,84.4l-5.4-1.5l0,0l1.1,1.4c0.6,0.8,1,1.2,1.2,1.4c0.2,0.2,0.5,0.2,1-0.2l0.2,0.3l-1.8,1.4
			L55,86.9c0.3-0.3,0.4-0.5,0.2-0.8c-0.2-0.3-0.5-0.7-1.1-1.5l-1.1-1.4c-0.4-0.6-0.5-0.6-0.8-0.7c-0.2-0.1-0.5,0-0.7,0.2l-0.2-0.3
			l1.6-1.2l4.8,1.3l0,0l-0.8-1c-0.6-0.8-1-1.2-1.2-1.4c-0.2-0.2-0.5-0.2-1,0.2l-0.2-0.3l1.8-1.4l0.2,0.3c-0.3,0.3-0.4,0.6-0.3,0.8
			c0.2,0.3,0.5,0.7,1.1,1.5L59.6,83.9z"/>
	</g>
	<g>
		<path class="st0" d="M86.2,60.7c0.6,0.8,0.7,0.8,1.4,0.4l0.2,0.3l-2.5,2L85,63.1c0.5-0.5,0.5-0.6-0.1-1.4l-2.6-3.3l-0.1,0.1
			c-0.5,0.4-0.6,0.6-0.6,0.8c0,0.2,0.1,0.4,0.3,0.9l-0.3,0.2c-0.5-0.7-0.8-1.2-1.1-1.6l0.2-0.2c0.2,0.1,0.3,0,0.5-0.1l2.8-2.2
			c0.2-0.1,0.2-0.2,0.2-0.5l0.2-0.2c0.3,0.3,0.8,0.9,1.3,1.5l-0.3,0.3c-0.5-0.4-0.7-0.5-0.9-0.5c-0.2,0-0.5,0.1-0.8,0.4l-0.2,0.1
			L86.2,60.7z"/>
		<path class="st0" d="M91.5,54.4c1.3,1.6,1,3.4-0.3,4.5c-1.4,1.1-3.2,0.8-4.3-0.6c-1-1.2-1.3-3.2,0.4-4.6
			C88.5,52.7,90.3,52.9,91.5,54.4z M87.9,57c1.1,1.4,2.3,2,3,1.4c0.6-0.5,0.4-1.4-0.6-2.7c-1.2-1.5-2.4-1.9-3-1.5
			C86.8,54.6,86.9,55.6,87.9,57z"/>
		<path class="st0" d="M92,50.6l-0.2,0.2c-0.2,0.2-0.2,0.3,0.1,0.6l2.7,2l0,0L93,49.4l0.5-0.4l3.6,2.4l0,0c-0.4-1.1-1-2.3-1.3-2.9
			c-0.2-0.5-0.3-0.6-0.7-0.4l-0.3,0.2L94.6,48l1.7-1.3l0.2,0.3c-0.3,0.4-0.4,0.4-0.1,1.3c0,0.1,0.9,2.3,1.9,4.8l-0.5,0.4l-3.5-2.2
			l0,0l1.5,3.8l-0.5,0.4l-4.3-3c-0.7-0.5-0.8-0.4-1.2-0.2L89.5,52l2.2-1.7L92,50.6z"/>
		<path class="st0" d="M104.6,48.1l-0.6,0.5l-5.4-1.5l0,0l1.1,1.4c0.6,0.8,1,1.2,1.2,1.4c0.2,0.2,0.5,0.2,1-0.2l0.2,0.3l-1.8,1.4
			l-0.2-0.3c0.3-0.3,0.4-0.5,0.2-0.8c-0.2-0.3-0.5-0.7-1.1-1.5l-1.1-1.4c-0.4-0.6-0.5-0.6-0.8-0.7c-0.2-0.1-0.4,0-0.7,0.2l-0.2-0.3
			l1.6-1.2l4.8,1.3l0,0l-0.8-1c-0.6-0.8-1-1.2-1.2-1.4c-0.2-0.2-0.5-0.2-1,0.2l-0.2-0.3l1.8-1.4l0.2,0.3c-0.3,0.3-0.4,0.5-0.3,0.8
			c0.2,0.3,0.5,0.7,1.1,1.5L104.6,48.1z"/>
		<path class="st0" d="M106.6,42.1l0.5-0.4c0.6-0.5,0.6-0.5,0.2-1.1l0.3-0.2l1.3,1.7l-0.3,0.2c-0.5-0.5-0.6-0.6-1.2-0.1l-0.5,0.4
			l0.8,1c0.6,0.8,0.7,0.8,1.4,0.4l0.2,0.3l-2.4,1.9l-0.2-0.3c0.4-0.4,0.5-0.5-0.2-1.3l-2-2.5c-0.6-0.8-0.7-0.8-1.2-0.5l-0.2-0.3
			l3.4-2.7c0.1,0.1,0.6,0.6,1.1,1.2l-0.3,0.3c-0.4-0.3-0.6-0.5-0.8-0.5c-0.2,0-0.5,0.1-0.9,0.4l-0.3,0.3c-0.1,0.1-0.1,0.1,0.1,0.4
			L106.6,42.1z"/>
		<path class="st0" d="M111.9,36.6c-1-0.7-1.6-0.6-2.1-0.2c-0.9,0.7-0.6,2.1,0.3,3.2c1.1,1.4,2.4,1.8,3.2,1.2
			c0.6-0.5,0.6-1.2,0.3-2.3l0.4-0.2c0.3,0.5,0.6,1.3,0.7,1.7c-0.1,0.2-0.7,0.9-1.1,1.2c-1.9,1.5-3.7,0.8-4.6-0.4
			c-1.2-1.6-0.9-3.5,0.7-4.8c0.6-0.5,1.2-0.7,1.4-0.8c0.4,0.4,0.7,0.7,1.2,1.2L111.9,36.6z"/>
	</g>
	<g>
		<path class="st22" d="M87.7,86.7l0.3,0l-1.1,4.1L86,94.6c-0.1,0.3-0.1,0.5-0.1,0.6c0,0.1,0,0.2,0.1,0.2c0.1,0.1,0.3,0.1,0.6,0.1
			c0.2,0,0.5,0.1,0.7,0.1L87.1,96c-1.1-0.1-1.9-0.2-2.3-0.2c-0.6,0-1.3,0.1-2.1,0.2l0.1-0.4c0.3-0.1,0.6-0.1,0.9-0.2
			c0.3-0.1,0.6-0.2,0.7-0.3c0.2-0.2,0.3-0.6,0.5-1.3l0.8-3.1c0.3-1.2,0.4-1.9,0.4-2c0-0.2-0.1-0.3-0.2-0.3c-0.1,0-0.6,0.2-1.5,0.6
			l-0.2-0.4c1.3-0.6,2.1-1,2.4-1.2C87.1,87.2,87.4,87,87.7,86.7z"/>
		<path class="st22" d="M93.7,90.8c0.9,0.9,1.3,1.7,1.3,2.4c0,0.7-0.3,1.4-0.9,2c-0.6,0.6-1.4,0.9-2.3,0.9c-0.7,0-1.3-0.2-1.7-0.6
			c-0.4-0.4-0.6-0.8-0.6-1.3c0-0.3,0.1-0.6,0.2-1c0.2-0.3,0.4-0.6,0.7-1c0.3-0.2,0.9-0.6,1.8-1.2c-0.5-0.6-0.8-1.2-0.8-1.9
			c0-0.7,0.3-1.2,0.8-1.7c0.5-0.5,1.1-0.7,1.9-0.7c0.5,0,1,0.1,1.3,0.4c0.3,0.3,0.5,0.6,0.5,1c0,0.4-0.2,0.8-0.5,1.2
			C95,89.9,94.4,90.4,93.7,90.8z M92.6,91.4c-0.8,0.6-1.4,1.1-1.6,1.5c-0.3,0.4-0.4,0.8-0.4,1.3c0,0.4,0.1,0.8,0.4,1.1
			c0.3,0.3,0.6,0.4,1.1,0.4c0.3,0,0.6-0.1,0.9-0.3c0.3-0.2,0.5-0.4,0.7-0.7c0.2-0.3,0.3-0.6,0.3-0.9c0-0.3-0.1-0.6-0.3-0.9
			C93.5,92.4,93.1,92,92.6,91.4z M93.3,90.4c0.7-0.5,1.2-0.9,1.4-1.2c0.2-0.3,0.3-0.6,0.3-0.8c0-0.3-0.1-0.6-0.3-0.8
			c-0.2-0.2-0.5-0.3-0.8-0.3c-0.4,0-0.7,0.1-1,0.4c-0.3,0.3-0.4,0.6-0.4,1C92.5,89.2,92.8,89.8,93.3,90.4z"/>
		<path class="st22" d="M98.2,88.9h-0.4c0-0.1,0.1-0.3,0.2-0.6c0.2-0.6,0.3-1.1,0.4-1.4c0.5,0.1,1.4,0.1,2.7,0.1c0.8,0,1.7,0,2.4,0
			c-1.7,2.2-2.8,3.6-3.2,4.2c-0.8,1.1-1.3,2-1.5,2.6c-0.1,0.3-0.2,0.7-0.3,1.2c-0.1,0.5-0.2,0.9-0.3,1c-0.1,0.1-0.3,0.2-0.4,0.2
			c-0.2,0-0.3-0.1-0.4-0.2c-0.1-0.1-0.2-0.3-0.2-0.5c0-0.5,0.2-1,0.5-1.7c0.5-0.9,1.7-2.5,3.5-4.7l1-1.2h-2.9c-0.3,0-0.6,0-0.7,0.1
			C98.5,88.1,98.3,88.4,98.2,88.9z"/>
		<path class="st22" d="M102.9,96.1l0.1-0.5c0.8,0,1.6-0.2,2.1-0.5c0.6-0.3,1.1-0.7,1.5-1.2c0.4-0.5,0.7-1.2,1-2
			c-0.3,0.2-0.6,0.4-0.9,0.5c-0.3,0.1-0.6,0.2-0.9,0.2c-0.6,0-1-0.2-1.4-0.6c-0.4-0.4-0.5-1-0.5-1.8c0-1,0.3-1.9,0.9-2.6
			c0.5-0.6,1.2-0.9,2-0.9c0.7,0,1.3,0.3,1.7,0.8c0.5,0.5,0.7,1.3,0.7,2.2c0,1.1-0.3,2.2-0.9,3.2c-0.6,1-1.3,1.8-2.3,2.3
			C105.2,95.8,104.1,96.1,102.9,96.1z M107.8,91.4c0.1-0.8,0.2-1.4,0.2-2c0-0.8-0.1-1.4-0.4-1.7c-0.2-0.4-0.6-0.5-0.9-0.5
			c-0.4,0-0.7,0.2-0.9,0.6c-0.3,0.5-0.5,1.2-0.5,2.2c0,0.8,0.1,1.3,0.3,1.7c0.2,0.3,0.5,0.5,0.8,0.5c0.2,0,0.4-0.1,0.6-0.2
			C107.3,91.8,107.5,91.6,107.8,91.4z"/>
	</g>
	<g>
		<circle class="st12" cx="40.5" cy="24.5" r="1.6"/>
		<circle class="st12" cx="73.9" cy="24.5" r="1.6"/>
		<circle class="st12" cx="49.5" cy="22.9" r="3.2"/>
		<circle class="st12" cx="56.8" cy="22.9" r="3.2"/>
		<circle class="st12" cx="64.3" cy="22.9" r="3.2"/>
		<g>
			<g>
				<path class="st12" d="M79,21.8v0.1h-1.8c0,0,0-1.6,0-2.5c0-0.9,0.9-1.3,0.9-1.3v-3.9h-0.7v1.3c0,0-1.6,0-2.7,0
					c-1.2,0-1.1-1.1-1.1-1.1v-1.6h-8.3v1.5c0,0-6,0-6.4,0c-0.4,0-0.3,0.4-0.3,0.4h-1.4c-0.5,0-0.5-0.4-0.5-0.4v-0.7h0.1v-0.2h-1.4
					v0.3h0.1v0.6c0,0.6-0.5,0.6-0.5,0.6l-4.7,0.5h-4.8c-0.7,0-0.7-0.7-0.7-0.7v-1.2h0.1V13h-1.6v0.3h0.1v1.2c0,0.8-0.7,0.7-0.7,0.7
					h-1.6v0.1c0,0-0.6,0.6-0.6,2.3c0,1.7,0.6,2.2,0.6,2.2v0.2h1.2v0.4h-1.2c0,1.4-1.1,1.3-1.1,1.3h-2.4v0.2h-1.5v-0.2H36v1.3h0.3V23
					h1.5v0.2h1.1v0.7h30.9c0,0.3-0.3,0.6-0.3,0.6v0.2h2.3v-0.2c-0.3-0.2-0.3-0.6-0.3-0.6H76c0,0,0.7,0,1,0c0.3,0,0.3-0.3,0.3-0.3V23
					c0.3,0,0.3-0.3,0.3-0.3H79v0.1h0.2v-1H79z M67.9,20.6c0,0-0.7-2.2-3.6-2.2c-3,0-3.6,2.2-3.6,2.2h-0.1c0,0-0.7-2.2-3.6-2.2
					c-3,0-3.6,2.2-3.6,2.2h-0.1c0,0-0.7-2.2-3.6-2.2c-3,0-3.6,2.2-3.6,2.2l-2.4,0v-0.5h2.1c0.1-0.3,0.2-0.4,0.2-0.4s0.8-1.8,3.8-1.9
					c0,0,0,0,0,0h0.1c0,0,0,0,0,0c3,0,3.6,1.8,3.6,1.8h0.1c0,0,0.7-1.8,3.6-1.8c0,0,0,0,0,0h0.1c0,0,0,0,0,0c3,0,3.6,1.8,3.6,1.8
					h0.1c0,0,0.7-1.7,3.6-1.8c0,0,0,0,0,0h0.1c0,0,0,0,0,0c3,0,3.8,1.9,3.8,1.9s0.2,0.3,0.3,0.8L67.9,20.6z M71.1,23.8H70V23h1.1
					V23.8z M71.1,22.6H70v-0.8h1.1V22.6z M71.1,21.4H70v-0.8h1.1V21.4z M72.5,16c0,0,0,0.7-0.8,0.7h-0.5v3.4h-1.3v-3.4h-1.2
					c0,0-0.8,0.1-0.8-0.7v-0.9c0,0,0-0.7,0.8-0.7c0.8,0,3,0,3,0s0.8,0,0.8,0.7C72.5,15.8,72.5,16,72.5,16z"/>
			</g>
		</g>
		<g>
			<g>
				<circle class="st12" cx="85.2" cy="24" r="2.1"/>
				<circle class="st12" cx="90.8" cy="24" r="2.1"/>
				<circle class="st12" cx="96.4" cy="24" r="2.1"/>
			</g>
			<path class="st12" d="M100,17.1v6.8H81.5v-6.8c0,0,1.4,0,1.4-1.4h15.7C98.6,15.7,98.6,17.1,100,17.1z"/>
			<path class="st12" d="M100,21.9h1.8v-0.1h0.2v1h-0.2v-0.1h-1.6c0,0,0,0.3-0.3,0.3"/>
			<path class="st12" d="M81.6,21.9h-1.8v-0.1h-0.2v1h0.2v-0.1h1.6c0,0,0,0.3,0.3,0.3"/>
		</g>
	</g>
	<path class="st23" d="M122.7,29c-11.8-5.4-13.8-22-13.8-22c-27.5,5.6-38.3-4.8-38.3-4.8l0,0c0,0-10.8,10.3-38.3,4.8
		c0,0-2,16.5-13.8,22c0,0,17.8,26.8,4,51.9C10.8,102,24,118.3,40,113.1c14.7-4.7,12.5-8.3,30.6,2.1l0,0c18.1-10.4,15.8-6.8,30.6-2.1
		c16,5.1,29.2-11.2,17.6-32.2C104.9,55.8,122.7,29,122.7,29L122.7,29z"/>
	<g>
		<circle class="st24" cx="70.6" cy="70.9" r="13.2"/>
		<path class="st25" d="M79.5,65.4c-8.7-3.4-17.8,0-17.8,0s-3.4,5.1,0,11c0,0,9.1,3.4,17.8,0C79.5,76.4,82.8,70.7,79.5,65.4z"/>
		<path class="st25" d="M60.4,69.2c0,0,10.6-2.4,20.5,0"/>
		<path class="st25" d="M60.4,72.6c0,0,10.5,2.4,20.4,0"/>
		<path class="st25" d="M63.7,60.6c0,0-1.6,2.9-2,4.8"/>
		<path class="st25" d="M77.3,60.5c0,0,1.7,2.9,2.1,4.8"/>
		<path class="st25" d="M63.6,81.2c0,0-1.5-2.8-2-4.7"/>
		<path class="st25" d="M77.4,81.2c0,0,1.6-2.8,2-4.8"/>
		<path class="st25" d="M67.7,64.1c0,0,0-3.3,0.6-5.4"/>
		<path class="st25" d="M73.5,64c0,0,0-3.2-0.6-5.3"/>
		<path class="st25" d="M67.7,77.8c0,0,0,3.2,0.6,5.3"/>
		<path class="st25" d="M73.5,77.8c0,0,0,3.1-0.6,5.3"/>
		<circle class="st25" cx="70.6" cy="70.9" r="12.4"/>
	</g>
</g>
</svg>
