<svg version="1.1" id="Watford" xmlns="http://www.w3.org/2000/svg" x="0" y="0" viewBox="0 0 1958.5 2201.9" style="enable-background:new 0 0 1958.5 2201.9" xml:space="preserve"><style>.st0,.st1,.st2{fill-rule:evenodd;clip-rule:evenodd;fill:#e20d18}.st1,.st2{fill:#ffea00}.st2{fill:#12100b}</style><path class="st0" d="m979.3 2201.9 979.2-979.3-322.3-739.4h182.2V0H140.1v483.2h182.2L0 1222.6l979.3 979.3z"/><path class="st1" d="M231.9 91.8v299.6h1494.6V91.8H231.9z"/><path class="st2" d="M979.3 483.2H422.5c-85.4 195.8-280.2 642.9-313.3 718.7 75.1 75.1 762.4 762.4 870.1 870.2V483.2z"/><path class="st1" d="M1536.1 483.2H979.3v1588.9c107.7-107.7 795-795.1 870.1-870.2-33.1-75.8-228-522.9-313.3-718.7z"/><path class="st2" d="m444.9 202.7 32.6 150.8H520l50.2-213.2h-38.8l-32.3 163.9-32.4-163.9h-40.8L393 304.2l-32.9-163.9h-39.5l50.3 213.2h44.2l29.8-150.8zM642.6 277.8l23.4-72.4 23.4 72.4h-46.8zm71.3 75.7h40.8l-68.5-186.2h-40.5l-68.5 186.2H618l14-43.4h67.8l14.1 43.4zM755.4 167.3v32.3h51v153.9h39.1V199.6h49.9l7.8-32.3H755.4zM936.2 167.3v186.2H974v-80.7h56.5v-32.4H974v-40.8h65.5l7.7-32.3h-111zM1157.9 328.7c-37.1 0-46.3-30.2-46.3-67.5s9.2-67.5 46.3-67.5c37.1 0 46.3 30.2 46.3 67.5s-9.2 67.5-46.3 67.5zm0-163.8c-63.4 0-90 43.1-90 96.3 0 53.2 26.6 96.3 90 96.3s90-43.1 90-96.3c0-53.2-26.6-96.3-90-96.3zM1360.3 248.2h-29.4v-48.5h29.4c10.6 0 26.7 1.6 26.7 22.7-.1 21-16.1 25.8-26.7 25.8zm23.9 26.6v-2c12.5 0 43.9-11.8 43.9-51.6s-30.4-53.9-65.1-53.9h-70.5v186.2h38.5v-77.6h3.2c12.9 0 58.5 77.6 58.5 77.6h48.6l-57.1-78.7zM1548.6 321.1h-29.5V199.6h29.5c25.4 0 40 24.6 40 61.2.1 36.7-14.6 60.3-40 60.3zm-1.3-153.8h-66.1v186.2h66.1c59.4 0 84.1-39.7 84.1-92.6s-24.8-93.6-84.1-93.6zM664.2 629.9c0 5.6.6 9.3 1.2 12.5.6 3.4 1.2 7 1.2 16 0 28.4-6.6 41.7-11 41.7-.9 0-1.4-.1-1.7-.1-.5-.6-1.4-1.9-2.2-2.9-7.7-10.9-18.2-22.6-46.5-22.6-26.3 0-43.9 18.6-43.9 46.4 0 40.7 10.3 73.6 18.5 100 4.8 15.4 8.9 28.6 8.9 37.5 0 7.1-3.4 14-5.4 15.5-10.3-.2-13.7-3.5-21-10.7-9.8-9.7-23.3-23-53.5-23-12.8 0-42.6 4.4-42.6 45.3 0 17.8 6.2 33.1 12.2 47.8 6.4 15.6 13 31.8 13 53 0 1.7-.1 16.7-5 16.7-19.4 0-26.6-12-37.8-33.1-9.7-18.4-21.8-41.3-49.8-41.3-46 0-46 68.7-46 94.5 0 146 138.6 199.1 231.8 199.1 17.7 0 28.1-1.5 38.1-2.9 10.3-1.5 20.1-2.9 39.4-2.9 56.5 0 99.3 11.3 125.2 32.7-14.2-5.4-31.1-9-51.3-9-48.6 0-66.7 11.6-83.7 25.5-6.5 5.3-11.1 9.1-19.9 11.6l-69.1 19.8 70.1 15.7c29.3 6.6 45.5 29.6 62.7 53.9 18.3 26 39.1 55.4 77.2 55.4 3.5 0 6.9-.3 10.1-.8-3.3 18-6 40.8-6 67.1 0 38 9.3 52.8 21.5 68.2l5.9 7.8c5.4 8 11.3 15.7 16.9 23.2 20.1 26.5 39 51.6 39 86 0 18.3.9 33.1 1.7 47.4.9 14.3 1.6 27.8 1.6 44.7 0 50.7 35 66.4 53.8 74.8 1.9.9 4.2 1.9 6 2.8 3.6 17.3 20.7 23 31.4 26.5l3.8 1.2 3.9 1.6c5.4 2.3 12.9 5.5 26.3 5.5 35 0 50.4-26 53.6-47.7.6-.3 1.2-.5 1.8-.8 15.4-6.8 47.6-21 47.6-66.2 0-23.6-2.9-41.5-5.5-57.3-1.9-11.6-3.6-21.7-3.6-31.6 0-28.6 11.7-43.1 27.8-63.2 21.8-27 48.8-60.6 48.8-136.3 0-26.8-1.5-47.3-3.5-62.8 4.4 1 8.9 1.7 13.7 1.7 50.1 0 67.4-30.1 80-54.9 23.5-46.6 68.9-43.9 68.9-43.9s-36-62.2-121.7-62.2c-26.1 0-46.1 5.2-61.3 12.1 7-20.1 19-29.2 28.8-34.4 23.6-12.6 58.8-13.6 89.8-13.6 19.1 0 32.7 1.4 45.7 2.8 12.4 1.3 25.1 2.6 41.5 2.6 126.3 0 159.5-40 194.6-82.4 29.8-36 49.6-70.9 49.6-124.9 0-36.3-10.5-75-39.9-75-25.5 0-36.5 23.8-45.3 43-10.5 22.8-16.7 32.4-27.6 32.4-14.2 0-25.7-14-25.7-31.1 0-15.9 10.5-35.9 20.7-55.3 11.6-22.1 23.6-45 23.6-67.7 0-12.8-5.3-24.2-14.9-32.1-8-6.6-18.4-10.3-29.1-10.3-22.4 0-40.3 18.7-57.6 36.7-11 11.5-26.1 27.2-35.2 27.7-1.9-1.6-4.7-8-4.7-13 0-15.8 7-39 13.9-61.5 7.3-24.2 14.3-47 14.3-65.4 0-39.6-23.1-57.3-45.9-57.3-20.8 0-34.3 9.7-45.2 17.6-8.1 5.9-13.4 9.2-19.8 9.8-.1-.3-.2-.5-.3-.8 0-.8.1-18.9.1-18.9v-16.6c0-41.9-1.7-70.4-18-86.8-7.9-8-18.3-12-30.7-12-57.4 0-83.1 75.8-83.1 150.9 0 34.9 1.4 65.6 2.8 95.4 1.3 28.4 2.6 55.2 2.6 84.2 0 69.7-14.3 126.8-26.5 156.6-4-33.3-10-83.3-48.7-83.3-32.1 0-39.6 41-48.2 88.4-7.8 42.6-18.5 101-45 101-22.2 0-28.6-40.6-34.8-93.6-6-52-12.8-110.9-59.1-110.9-50.3 0-53.6 65.2-55.8 108.4-.3 5.4-.6 11.8-1.1 18-12.3-24.1-27.2-65.6-27.2-103.6 0-48.3 3.1-86.2 6-122.8 2.8-35.1 5.8-71.4 5.8-115.5 0-97.2-24.2-123.5-45.5-146.6l-1.5-1.6c-14.3-15.5-27.8-30.2-49-30.2-30.1-.3-46 28.4-46 56.7z"/><path class="st0" d="m1114.4 1438.8-3.1 5.2s-17.3-5.6-33.3-5.6c-28.8 0-39.3 19.8-39.3 19.8s9.4-5.6 28.1-5.6c24.7 0 42.7 13.3 42.7 18.2 0 5.2-7.6 7.9-13.7 7.9 0 11.9-16.2 28.3-65 28.3 0 24.1 14.8 40 14.8 47-12.4 0-14.2 11.9-14.2 33.1 0 0-17.1-67.7-17.1-94.9 0-40.2 16.2-70.6 50.6-70.6 24.5-.1 49.5 17.2 49.5 17.2zm104-135.5c7.6 0 11.8 1.3 11.8 1.3-45.4 8.3-44.9 63.1-81.1 63.1-7.9 0-13.2-3.5-13.2-3.5 5.1-10 22.1-12.3 22.1-25.8-11.8 0-20.4 1-31.9 3.4.1-4.4 36.3-38.5 92.3-38.5zM914.7 1590v-29.2c0-8.1-3.6-11.7-10.8-11.7l18.9-43.2v-4.3c-33.5 0-62.5-6.8-62.5-30.6h-9.4c-2 0-6.3-2.3-6.3-6.3 0-2.9 11.2-15.7 37.8-15.7 20.2 0 32.4 8.5 32.4 8.5s-11.5-27-42.3-27c-18.2 0-22.9 2.5-22.9 2.5s11-14.2 25.9-14.2c46.5 0 58.7 29.2 58.7 80.7-.2 54.5-19.5 90.5-19.5 90.5zm-129.4-243.1c0 4.7 15.1 8.3 23.8 8.3 0 5.4-10.6 13.3-20.5 13.3-38 0-19.6-58.9-95.6-73.8 0 0 4.1-1.8 13.9-1.8 60 0 77.4 46.5 110 46.5-9.3 1.2-31.6 1.8-31.6 7.5zm760.8-388.6c-30.4 0-28.3 75.3-72.9 75.3-24.6 0-44.1-22-44.1-49.5 0-40 44.3-85.9 44.3-123 0-15.9-13.4-24.1-25.6-24.1-29.9 0-60.3 64.5-93.3 64.5-15.5 0-22.5-20.2-22.5-31.5 0-36 28.1-94.7 28.1-126.8 0-25.9-11.7-38.9-27.6-38.9-29.3 0-39.1 27.6-66.7 27.6-10.5 0-16.9-11.5-16.9-18.9 0-72.2 3.7-116.4-30.3-116.4-44 0-64.8 66.5-64.8 132.6 0 67.1 5.4 119.1 5.4 179.6 0 93.7-22.6 172.2-42.3 189.2 0 0-4.9 54.6 16.7 54.6 43.5 0 114.2-121.9 202-121.9 39.6 0 42.3 24.3 42.3 34.2 0 31.9-45 48.1-45 68.4 0 10.3 15.7 11.2 35.1 11.2 57.6 0 99.9-35.5 99.9-35.5s-41.4 49-106.1 49c-28.3 0-50.4-9-50.4-25.6 0-26.5 53.5-47.6 53.5-74.2 0-8.1-9-19.3-29.2-19.3-71.5 0-147.1 135.4-206 135.4-12.1 0-29-8.1-29-38.9 0-26.3-2-134.8-34.9-134.8-39.5 0-20.6 189.4-93.2 189.4-76.8 0-30.9-204.5-93.9-204.5-38.2 0-32.2 55.4-38.2 105.2-4.9 40.8-16.8 77.9-41.8 77.9-33.1 0-56.4-15.2-84.6-32.6-17.9-11.1-36.9-22-52.8-33.9-25.7-19.2-39.7-38.4-65-38.4-13.5 0-28.3 7.4-28.3 21.3 0 27 28.3 37.4 28.3 60.7 0 13.1-19.2 23.6-41.2 23.6-66.8 0-106.9-43.9-106.9-61.4 0 0 33.4 47.2 110 47.2 16.5 0 22.6-3.7 22.6-11.8 0-15.2-22.9-28.7-22.9-58 0-18.5 14.5-33.7 35.4-33.7 26.7 0 44.7 19.5 72.2 39.5 39.6 28.8 91 61.4 130.5 61.4 15.2 0 25.3-6.7 25.3-22.5 0-14.9-44.9-56.1-44.9-140.1 0-96.1 11.8-149.8 11.8-238.3 0-92.3-22.1-114-42.1-135.8-15-16.4-23.3-24.3-35.4-24.3-20.9 0-28 22.9-28 38.7 0 9.7 2.4 10.2 2.4 28.4 0 32.7-7.8 60-29.3 60-25.3 0-12.1-25.6-50.4-25.6-18.3 0-25.5 13.2-25.5 28 0 63.4 27.5 108.6 27.5 137.5 0 14.3-8.3 33.9-23.1 33.9-38.1 0-31.4-33.7-75.1-33.7-18.7 0-24.3 10.8-24.3 27 0 31.4 25.2 55.3 25.2 100.7 0 20-6.7 35.1-23.4 35.1-56.9 0-49.8-74.4-87.5-74.4-19.3 0-27.6 25.2-27.6 76.2 0 136.3 133.1 180.7 213.4 180.7 34.1 0 37.8-5.8 77.5-5.8 186.3 0 171.3 114.1 171.3 114.1s-23.8-53.7-97.4-53.7c-71.7 0-64 26.5-98.5 36.4 71.6 16.1 78 108.8 135.8 108.8 25.9 0 38.7-19.8 38.7-19.8s-16.2 41.7-16.2 104.5c0 42.8 12.6 48.7 24.2 65.7 24.7 36.2 59.1 68.2 59.1 119.5 8.3 0 14.5-38.1 19.1-38.1 3 0 5.6 5.9 5.6 14.3 0 19.5-21.2 54-21.2 115.9 0 37.1 23.3 49.1 40.6 57 4.2 0 28.5-51 28.5-51-14.6 39.8-10.1 62.1-10.1 64.8 0 10.6 10.3 12.7 23.4 17.1 7.4 2.5 11.3 6.2 24.4 6.2 30.5 0 35.9-27.2 35.9-37.9 0-10.8-11-31.1-11-43.2 0 0-.5-7.4 1.3-7.4 3.8 0 19.9 42.4 19.9 42.4 14.3-6.4 38.4-15.6 38.4-50.2 0-40.3-24.4-94.9-24.4-119.5 0-5.7 2-9.4 4-9.4 4.7 0 12.7 22.2 12.7 22.2 10.5-61.6 75.2-67.4 75.2-181.7 0-72.3-11-95.6-11-95.6s19.2 16.2 39.6 16.2c69.7 0 53.2-69.5 107.9-92.7 0-6.9-29.5-31.7-80.7-31.7-64.8 0-85.7 35.1-85.7 35.1 0-101.7 71.2-107.7 143-107.7 38.5 0 55 5.4 87.3 5.4 117.8 0 146.8-35.1 180.6-75.9 30-36.2 45.2-67.5 45.2-113-.3-25-6.3-57-21.9-57z"/><path class="st0" d="m1036.8 1485.6-2.7 5.9s5.6 4 17.8 4c24.3 0 35-19.7 32.6-22-2.4-2.4-12.8 15.1-31.7 15.1-11.3 0-16-3-16-3z"/><path class="st0" d="M1063.1 1478.9c0 1.9-2.4 3.4-5.4 3.4-3 0-5.4-1.5-5.4-3.4s2.4-3.4 5.4-3.4c3 0 5.4 1.5 5.4 3.4zM877.1 1469.8c2.5 1.9 7.6 14.7 20.9 14.7 9.7 0 11-3.6 14.1-5.3 3-1.7 6.2 1.5 4.3 4.3-1.9 2.8-5.5 6.4-17.9 6.4-16 0-25.3-13-26.5-16.2-2.2-5.5 0-7.4 5.1-3.9z"/><path class="st0" d="M900.4 1473.7c0 1.7-2 3.1-4.5 3.1s-4.5-1.4-4.5-3.1c0-1.7 2-3.1 4.5-3.1s4.5 1.3 4.5 3.1z"/></svg>