<?xml version="1.0" encoding="utf-8"?>
<!-- Generator: Adobe Illustrator 19.2.1, SVG Export Plug-In . SVG Version: 6.00 Build 0)  -->
<!DOCTYPE svg PUBLIC "-//W3C//DTD SVG 1.1//EN" "http://www.w3.org/Graphics/SVG/1.1/DTD/svg11.dtd">
<svg version="1.1" id="Watford" xmlns="http://www.w3.org/2000/svg" xmlns:xlink="http://www.w3.org/1999/xlink" x="0px" y="0px"
	 viewBox="0 0 1958.5 2201.9" style="enable-background:new 0 0 1958.5 2201.9;" xml:space="preserve">
<style type="text/css">
	.st0{fill-rule:evenodd;clip-rule:evenodd;fill:#E20D18;}
	.st1{fill-rule:evenodd;clip-rule:evenodd;fill:#FFEA00;}
	.st2{fill-rule:evenodd;clip-rule:evenodd;fill:#12100B;}
</style>
<g>
	<polygon class="st0" points="979.3,2201.9 1958.5,1222.6 1636.2,483.2 1818.4,483.2 1818.4,0 140.1,0 140.1,483.2 322.3,483.2 
		0,1222.6 979.3,2201.9 	"/>
	<path class="st1" d="M231.9,91.8c0,92.2,0,207.4,0,299.6c45.2,0,1449.5,0,1494.6,0c0-92.2,0-207.4,0-299.6
		C1572,91.8,386.5,91.8,231.9,91.8L231.9,91.8z"/>
	<path class="st2" d="M979.3,483.2l-556.8,0c-85.4,195.8-280.2,642.9-313.3,718.7c75.1,75.1,762.4,762.4,870.1,870.2V483.2
		L979.3,483.2z"/>
	<path class="st1" d="M1536.1,483.2l-556.8,0v1588.9c107.7-107.7,795-795.1,870.1-870.2C1816.3,1126.1,1621.4,679,1536.1,483.2
		L1536.1,483.2z"/>
	<polygon class="st2" points="444.9,202.7 477.5,353.5 520,353.5 570.2,140.3 531.4,140.3 499.1,304.2 466.7,140.3 425.9,140.3 
		393,304.2 360.1,140.3 320.6,140.3 370.9,353.5 415.1,353.5 444.9,202.7 	"/>
	<path class="st2" d="M642.6,277.8l23.4-72.4l23.4,72.4H642.6L642.6,277.8z M713.9,353.5h40.8l-68.5-186.2h-40.5l-68.5,186.2h40.8
		l14-43.4h67.8L713.9,353.5L713.9,353.5z"/>
	<polygon class="st2" points="755.4,167.3 755.4,199.6 806.4,199.6 806.4,353.5 845.5,353.5 845.5,199.6 895.4,199.6 903.2,167.3 
		755.4,167.3 	"/>
	<polygon class="st2" points="936.2,167.3 936.2,353.5 974,353.5 974,272.8 1030.5,272.8 1030.5,240.4 974,240.4 974,199.6 
		1039.5,199.6 1047.2,167.3 936.2,167.3 	"/>
	<path class="st2" d="M1157.9,328.7c-37.1,0-46.3-30.2-46.3-67.5c0-37.3,9.2-67.5,46.3-67.5c37.1,0,46.3,30.2,46.3,67.5
		C1204.2,298.5,1195,328.7,1157.9,328.7L1157.9,328.7z M1157.9,164.9c-63.4,0-90,43.1-90,96.3c0,53.2,26.6,96.3,90,96.3
		c63.4,0,90-43.1,90-96.3C1247.9,208,1221.3,164.9,1157.9,164.9L1157.9,164.9z"/>
	<path class="st2" d="M1360.3,248.2h-29.4v-48.5h29.4c10.6,0,26.7,1.6,26.7,22.7C1386.9,243.4,1370.9,248.2,1360.3,248.2
		L1360.3,248.2z M1384.2,274.8v-2c12.5,0,43.9-11.8,43.9-51.6c0-39.8-30.4-53.9-65.1-53.9h-70.5v186.2h38.5v-77.6h3.2
		c12.9,0,58.5,77.6,58.5,77.6l48.6,0L1384.2,274.8L1384.2,274.8z"/>
	<path class="st2" d="M1548.6,321.1h-29.5V199.6h29.5c25.4,0,40,24.6,40,61.2C1588.7,297.5,1574,321.1,1548.6,321.1L1548.6,321.1z
		 M1547.3,167.3h-66.1v186.2h66.1c59.4,0,84.1-39.7,84.1-92.6S1606.6,167.3,1547.3,167.3L1547.3,167.3z"/>
	<path class="st2" d="M664.2,629.9c0,5.6,0.6,9.3,1.2,12.5c0.6,3.4,1.2,7,1.2,16c0,28.4-6.6,41.7-11,41.7c-0.9,0-1.4-0.1-1.7-0.1
		c-0.5-0.6-1.4-1.9-2.2-2.9c-7.7-10.9-18.2-22.6-46.5-22.6c-26.3,0-43.9,18.6-43.9,46.4c0,40.7,10.3,73.6,18.5,100
		c4.8,15.4,8.9,28.6,8.9,37.5c0,7.1-3.4,14-5.4,15.5c-10.3-0.2-13.7-3.5-21-10.7c-9.8-9.7-23.3-23-53.5-23
		c-12.8,0-42.6,4.4-42.6,45.3c0,17.8,6.2,33.1,12.2,47.8c6.4,15.6,13,31.8,13,53c0,1.7-0.1,16.7-5,16.7c-19.4,0-26.6-12-37.8-33.1
		c-9.7-18.4-21.8-41.3-49.8-41.3c-46,0-46,68.7-46,94.5c0,146,138.6,199.1,231.8,199.1c17.7,0,28.1-1.5,38.1-2.9
		c10.3-1.5,20.1-2.9,39.4-2.9c56.5,0,99.3,11.3,125.2,32.7c-14.2-5.4-31.1-9-51.3-9c-48.6,0-66.7,11.6-83.7,25.5
		c-6.5,5.3-11.1,9.1-19.9,11.6l-69.1,19.8l70.1,15.7c29.3,6.6,45.5,29.6,62.7,53.9c18.3,26,39.1,55.4,77.2,55.4
		c3.5,0,6.9-0.3,10.1-0.8c-3.3,18-6,40.8-6,67.1c0,38,9.3,52.8,21.5,68.2l5.9,7.8c5.4,8,11.3,15.7,16.9,23.2
		c20.1,26.5,39,51.6,39,86c0,18.3,0.9,33.1,1.7,47.4c0.9,14.3,1.6,27.8,1.6,44.7c0,50.7,35,66.4,53.8,74.8c1.9,0.9,4.2,1.9,6,2.8
		c3.6,17.3,20.7,23,31.4,26.5l3.8,1.2c0,0,3.9,1.6,3.9,1.6c5.4,2.3,12.9,5.5,26.3,5.5c35,0,50.4-26,53.6-47.7
		c0.6-0.3,1.2-0.5,1.8-0.8c15.4-6.8,47.6-21,47.6-66.2c0-23.6-2.9-41.5-5.5-57.3c-1.9-11.6-3.6-21.7-3.6-31.6
		c0-28.6,11.7-43.1,27.8-63.2c21.8-27,48.8-60.6,48.8-136.3c0-26.8-1.5-47.3-3.5-62.8c4.4,1,8.9,1.7,13.7,1.7
		c50.1,0,67.4-30.1,80-54.9c23.5-46.6,68.9-43.9,68.9-43.9s-36-62.2-121.7-62.2c-26.1,0-46.1,5.2-61.3,12.1
		c7-20.1,19-29.2,28.8-34.4c23.6-12.6,58.8-13.6,89.8-13.6c19.1,0,32.7,1.4,45.7,2.8c12.4,1.3,25.1,2.6,41.5,2.6
		c126.3,0,159.5-40,194.6-82.4c29.8-36,49.6-70.9,49.6-124.9c0-36.3-10.5-75-39.9-75c-25.5,0-36.5,23.8-45.3,43
		c-10.5,22.8-16.7,32.4-27.6,32.4c-14.2,0-25.7-14-25.7-31.1c0-15.9,10.5-35.9,20.7-55.3c11.6-22.1,23.6-45,23.6-67.7
		c0-12.8-5.3-24.2-14.9-32.1c-8-6.6-18.4-10.3-29.1-10.3c-22.4,0-40.3,18.7-57.6,36.7c-11,11.5-26.1,27.2-35.2,27.7
		c-1.9-1.6-4.7-8-4.7-13c0-15.8,7-39,13.9-61.5c7.3-24.2,14.3-47,14.3-65.4c0-39.6-23.1-57.3-45.9-57.3c-20.8,0-34.3,9.7-45.2,17.6
		c-8.1,5.9-13.4,9.2-19.8,9.8c-0.1-0.3-0.2-0.5-0.3-0.8c0-0.8,0.1-18.9,0.1-18.9c0-5.8,0-11.3,0-16.6c0-41.9-1.7-70.4-18-86.8
		c-7.9-8-18.3-12-30.7-12c-57.4,0-83.1,75.8-83.1,150.9c0,34.9,1.4,65.6,2.8,95.4c1.3,28.4,2.6,55.2,2.6,84.2
		c0,69.7-14.3,126.8-26.5,156.6c-4-33.3-10-83.3-48.7-83.3c-32.1,0-39.6,41-48.2,88.4c-7.8,42.6-18.5,101-45,101
		c-22.2,0-28.6-40.6-34.8-93.6c-6-52-12.8-110.9-59.1-110.9c-50.3,0-53.6,65.2-55.8,108.4c-0.3,5.4-0.6,11.8-1.1,18
		c-12.3-24.1-27.2-65.6-27.2-103.6c0-48.3,3.1-86.2,6-122.8c2.8-35.1,5.8-71.4,5.8-115.5c0-97.2-24.2-123.5-45.5-146.6l-1.5-1.6
		c-14.3-15.5-27.8-30.2-49-30.2C680.1,572.9,664.2,601.6,664.2,629.9L664.2,629.9z"/>
	<path class="st0" d="M1114.4,1438.8l-3.1,5.2c0,0-17.3-5.6-33.3-5.6c-28.8,0-39.3,19.8-39.3,19.8s9.4-5.6,28.1-5.6
		c24.7,0,42.7,13.3,42.7,18.2c0,5.2-7.6,7.9-13.7,7.9c0,11.9-16.2,28.3-65,28.3c0,24.1,14.8,40,14.8,47c-12.4,0-14.2,11.9-14.2,33.1
		c0,0-17.1-67.7-17.1-94.9c0-40.2,16.2-70.6,50.6-70.6C1089.4,1421.5,1114.4,1438.8,1114.4,1438.8L1114.4,1438.8z M1218.4,1303.3
		c7.6,0,11.8,1.3,11.8,1.3c-45.4,8.3-44.9,63.1-81.1,63.1c-7.9,0-13.2-3.5-13.2-3.5c5.1-10,22.1-12.3,22.1-25.8
		c-11.8,0-20.4,1-31.9,3.4C1126.2,1337.4,1162.4,1303.3,1218.4,1303.3L1218.4,1303.3z M914.7,1590v-29.2c0-8.1-3.6-11.7-10.8-11.7
		l18.9-43.2v-4.3c-33.5,0-62.5-6.8-62.5-30.6h-9.4c-2,0-6.3-2.3-6.3-6.3c0-2.9,11.2-15.7,37.8-15.7c20.2,0,32.4,8.5,32.4,8.5
		s-11.5-27-42.3-27c-18.2,0-22.9,2.5-22.9,2.5s11-14.2,25.9-14.2c46.5,0,58.7,29.2,58.7,80.7C934,1554,914.7,1590,914.7,1590
		L914.7,1590z M785.3,1346.9c0,4.7,15.1,8.3,23.8,8.3c0,5.4-10.6,13.3-20.5,13.3c-38,0-19.6-58.9-95.6-73.8c0,0,4.1-1.8,13.9-1.8
		c60,0,77.4,46.5,110,46.5C807.6,1340.6,785.3,1341.2,785.3,1346.9L785.3,1346.9z M1546.1,958.3c-30.4,0-28.3,75.3-72.9,75.3
		c-24.6,0-44.1-22-44.1-49.5c0-40,44.3-85.9,44.3-123c0-15.9-13.4-24.1-25.6-24.1c-29.9,0-60.3,64.5-93.3,64.5
		c-15.5,0-22.5-20.2-22.5-31.5c0-36,28.1-94.7,28.1-126.8c0-25.9-11.7-38.9-27.6-38.9c-29.3,0-39.1,27.6-66.7,27.6
		c-10.5,0-16.9-11.5-16.9-18.9c0-72.2,3.7-116.4-30.3-116.4c-44,0-64.8,66.5-64.8,132.6c0,67.1,5.4,119.1,5.4,179.6
		c0,93.7-22.6,172.2-42.3,189.2c0,0-4.9,54.6,16.7,54.6c43.5,0,114.2-121.9,202-121.9c39.6,0,42.3,24.3,42.3,34.2
		c0,31.9-45,48.1-45,68.4c0,10.3,15.7,11.2,35.1,11.2c57.6,0,99.9-35.5,99.9-35.5s-41.4,49-106.1,49c-28.3,0-50.4-9-50.4-25.6
		c0-26.5,53.5-47.6,53.5-74.2c0-8.1-9-19.3-29.2-19.3c-71.5,0-147.1,135.4-206,135.4c-12.1,0-29-8.1-29-38.9
		c0-26.3-2-134.8-34.9-134.8c-39.5,0-20.6,189.4-93.2,189.4c-76.8,0-30.9-204.5-93.9-204.5c-38.2,0-32.2,55.4-38.2,105.2
		c-4.9,40.8-16.8,77.9-41.8,77.9c-33.1,0-56.4-15.2-84.6-32.6c-17.9-11.1-36.9-22-52.8-33.9c-25.7-19.2-39.7-38.4-65-38.4
		c-13.5,0-28.3,7.4-28.3,21.3c0,27,28.3,37.4,28.3,60.7c0,13.1-19.2,23.6-41.2,23.6c-66.8,0-106.9-43.9-106.9-61.4
		c0,0,33.4,47.2,110,47.2c16.5,0,22.6-3.7,22.6-11.8c0-15.2-22.9-28.7-22.9-58c0-18.5,14.5-33.7,35.4-33.7
		c26.7,0,44.7,19.5,72.2,39.5c39.6,28.8,91,61.4,130.5,61.4c15.2,0,25.3-6.7,25.3-22.5c0-14.9-44.9-56.1-44.9-140.1
		c0-96.1,11.8-149.8,11.8-238.3c0-92.3-22.1-114-42.1-135.8c-15-16.4-23.3-24.3-35.4-24.3c-20.9,0-28,22.9-28,38.7
		c0,9.7,2.4,10.2,2.4,28.4c0,32.7-7.8,60-29.3,60c-25.3,0-12.1-25.6-50.4-25.6c-18.3,0-25.5,13.2-25.5,28
		c0,63.4,27.5,108.6,27.5,137.5c0,14.3-8.3,33.9-23.1,33.9c-38.1,0-31.4-33.7-75.1-33.7c-18.7,0-24.3,10.8-24.3,27
		c0,31.4,25.2,55.3,25.2,100.7c0,20-6.7,35.1-23.4,35.1c-56.9,0-49.8-74.4-87.5-74.4c-19.3,0-27.6,25.2-27.6,76.2
		c0,136.3,133.1,180.7,213.4,180.7c34.1,0,37.8-5.8,77.5-5.8c186.3,0,171.3,114.1,171.3,114.1s-23.8-53.7-97.4-53.7
		c-71.7,0-64,26.5-98.5,36.4c71.6,16.1,78,108.8,135.8,108.8c25.9,0,38.7-19.8,38.7-19.8s-16.2,41.7-16.2,104.5
		c0,42.8,12.6,48.7,24.2,65.7c24.7,36.2,59.1,68.2,59.1,119.5c8.3,0,14.5-38.1,19.1-38.1c3,0,5.6,5.9,5.6,14.3
		c0,19.5-21.2,54-21.2,115.9c0,37.1,23.3,49.1,40.6,57c4.2,0,28.5-51,28.5-51c-14.6,39.8-10.1,62.1-10.1,64.8
		c0,10.6,10.3,12.7,23.4,17.1c7.4,2.5,11.3,6.2,24.4,6.2c30.5,0,35.9-27.2,35.9-37.9c0-10.8-11-31.1-11-43.2c0,0-0.5-7.4,1.3-7.4
		c3.8,0,19.9,42.4,19.9,42.4c14.3-6.4,38.4-15.6,38.4-50.2c0-40.3-24.4-94.9-24.4-119.5c0-5.7,2-9.4,4-9.4
		c4.7,0,12.7,22.2,12.7,22.2c10.5-61.6,75.2-67.4,75.2-181.7c0-72.3-11-95.6-11-95.6s19.2,16.2,39.6,16.2
		c69.7,0,53.2-69.5,107.9-92.7c0-6.9-29.5-31.7-80.7-31.7c-64.8,0-85.7,35.1-85.7,35.1c0-101.7,71.2-107.7,143-107.7
		c38.5,0,55,5.4,87.3,5.4c117.8,0,146.8-35.1,180.6-75.9c30-36.2,45.2-67.5,45.2-113C1567.7,990.3,1561.7,958.3,1546.1,958.3
		L1546.1,958.3z"/>
	<path class="st0" d="M1036.8,1485.6l-2.7,5.9c0,0,5.6,4,17.8,4c24.3,0,35-19.7,32.6-22c-2.4-2.4-12.8,15.1-31.7,15.1
		C1041.5,1488.6,1036.8,1485.6,1036.8,1485.6L1036.8,1485.6z"/>
	<path class="st0" d="M1063.1,1478.9c0,1.9-2.4,3.4-5.4,3.4c-3,0-5.4-1.5-5.4-3.4s2.4-3.4,5.4-3.4
		C1060.7,1475.5,1063.1,1477,1063.1,1478.9L1063.1,1478.9z"/>
	<path class="st0" d="M877.1,1469.8c2.5,1.9,7.6,14.7,20.9,14.7c9.7,0,11-3.6,14.1-5.3c3-1.7,6.2,1.5,4.3,4.3
		c-1.9,2.8-5.5,6.4-17.9,6.4c-16,0-25.3-13-26.5-16.2C869.8,1468.2,872,1466.3,877.1,1469.8L877.1,1469.8z"/>
	<path class="st0" d="M900.4,1473.7c0,1.7-2,3.1-4.5,3.1c-2.5,0-4.5-1.4-4.5-3.1c0-1.7,2-3.1,4.5-3.1
		C898.4,1470.6,900.4,1471.9,900.4,1473.7L900.4,1473.7z"/>
</g>
</svg>
