<?xml version="1.0" encoding="utf-8"?>
<!-- Generator: Adobe Illustrator 19.2.1, SVG Export Plug-In . SVG Version: 6.00 Build 0)  -->
<!DOCTYPE svg PUBLIC "-//W3C//DTD SVG 1.1//EN" "http://www.w3.org/Graphics/SVG/1.1/DTD/svg11.dtd">
<svg version="1.1" id="Westbrom" xmlns="http://www.w3.org/2000/svg" xmlns:xlink="http://www.w3.org/1999/xlink" x="0px" y="0px"
	 viewBox="0 0 1762 2105.8" style="enable-background:new 0 0 1762 2105.8;" xml:space="preserve">
<style type="text/css">
	.st0{fill:#FFFFFF;}
	.st1{fill:#102D69;}
	.st2{fill:#FFFFFF;stroke:#FFFFFF;stroke-width:19.9234;}
	.st3{fill:url(#SVGID_1_);}
	.st4{fill:#8A622A;}
	.st5{fill:#411E11;}
	.st6{fill:#009655;}
	.st7{fill:#AC3332;}
	.st8{fill:#76502E;}
</style>
<path class="st0" d="M34.2,72L0,78.5V1107c0,7.9,0.2,199.3,107.5,419c63,129,150.1,240.9,258.9,332.4
	c135.3,113.9,304.2,196.3,502.2,244.7l4,1c0.2,0.1,7.1,1.7,7.1,1.7l9-1.4l4.9-1.2c197.9-48.5,366.9-130.8,502.1-244.7
	c108.7-91.6,195.8-203.4,258.8-332.5c107.1-219.2,107.5-411.1,107.5-419.1V78.5l-34.2-6.6C1724,71.3,1343.7,0,881,0
	C418.6,0,38,71.3,34.2,72z"/>
<path class="st1" d="M1723.6,93.9c-3.7-0.7-379.3-71.6-842.6-71.6c-463.4,0-838.9,70.9-842.7,71.6L22.3,97v1010
	c0,7.8,0.3,194.4,105.2,409.2c61.7,126.2,146.9,235.6,253.2,325.2c132.6,111.7,298.5,192.5,493.1,240.1l4,1l2.6,0.6l3.8-0.6l4-1
	c194.6-47.6,360.5-128.4,493.1-240.1c106.3-89.6,191.5-199,253.2-325.2c104.9-214.8,105.3-401.4,105.2-409.3c0,0.1,0-836.4,0-836.4
	V97L1723.6,93.9z"/>
<g>
	<path class="st0" d="M1355.4,1810.6c-2.6,2.2-5.4,4.3-8,6.5v-1102h-194.7V1943c-53.5,26.8-110.4,50.2-170.7,69.9V715.1H772.9
		v1295.4c-62.1-20.7-120.7-45.2-175.5-73.5V715.1H402.7v1092.1c-65.6-55.8-122.7-119.6-170.7-190.6V715.1H62.5V130.4
		C139.4,117,477.3,62.5,881,62.5c403.6,0,741.6,54.5,818.5,67.9v584.7h-176.7v912C1475.4,1695.3,1419.4,1756.7,1355.4,1810.6z"/>
</g>
<g>
	<path class="st1" d="M234.3,331.9h47.3l132.3,302.2h-62.4L322.8,565H189.7l-27.8,69.2h-61.1L234.3,331.9z M303.7,518.9l-47.3-123
		l-48.1,123H303.7z"/>
	<path class="st1" d="M435.1,331.9h54.6v253.6h130.5v48.7H435.1V331.9z"/>
	<path class="st1" d="M647.2,331.9h119.7c46.4,0,94.1,20.9,94.1,76c0,34.1-21.7,56.8-53.3,66.2v0.9c38.6,4.3,66.3,34.1,66.3,73
		c0,65.7-58.1,86.2-116.2,86.2H647.2V331.9z M701.8,454.9h49.9c36.4,0,54.6-15.4,54.6-38c0-26-18.2-38.8-59.4-38.8h-45.1V454.9z
		 M701.8,588.1h50.3c28.2,0,67.2-4.7,67.2-44.4c0-31.6-20.8-42.7-65-42.7h-52.5V588.1z"/>
	<path class="st1" d="M900.8,331.9h54.6v302.2h-54.6V331.9z"/>
	<path class="st1" d="M1146.7,324.2c95.8-1.7,163.5,61.5,163.5,158.4c0,94.4-67.7,157.5-163.5,159.2c-94.5,0-162.2-63.2-162.2-157.5
		C984.5,387.4,1052.2,324.2,1146.7,324.2z M1147.2,593.2c63.7,0,105.8-47.8,105.8-112.3c0-60.2-42.1-108-105.8-108
		c-63.3,0-105.4,47.8-105.4,108C1041.8,545.4,1083.9,593.2,1147.2,593.2z"/>
	<path class="st1" d="M1340.6,331.9h72.4l148.8,224.5l0.9,0.9h-0.9l0.9-0.9V331.9h54.6v302.2h-69.4l-151.8-231.8h-0.9v231.8h-54.6
		V331.9z"/>
</g>
<g>
	<path class="st1" d="M106.2,170.3h23.5l22.7,85.6h0.3l27.1-85.6h21.1l26.6,85.6h0.3l23.7-85.6h21.8l-35.1,118.8h-20.4l-27.9-90.4
		h-0.3l-27.9,90.4h-19.8L106.2,170.3z"/>
	<path class="st1" d="M291.1,170.3H371v19.1h-58.4v29.2h55.4v19.1h-55.4V270h61.5v19.1h-83V170.3z"/>
	<path class="st1" d="M458.6,195.8c-4.6-6.4-12.8-9.4-21.1-9.4c-9.9,0-19.8,4.4-19.8,15.3c0,23.8,57.3,10.2,57.3,52.5
		c0,25.5-20.4,37.9-44.1,37.9c-15,0-29.6-4.5-39.5-16.1l16.2-15.4c5.3,7.9,14.3,12.4,23.9,12.4c9.9,0,21.1-5.4,21.1-16.3
		c0-26-57.3-11.1-57.3-53.5c0-24.5,22.2-35.9,44.5-35.9c12.6,0,25.2,3.5,34.6,12.2L458.6,195.8z"/>
	<path class="st1" d="M526.2,189.4h-37v-19.1h95.4v19.1h-37v99.6h-21.5V189.4z"/>
	<path class="st1" d="M658.3,170.3h47c18.2,0,37,8.2,37,29.9c0,13.4-8.5,22.3-21,26v0.3c15.2,1.7,26.1,13.4,26.1,28.7
		c0,25.8-22.8,33.9-45.7,33.9h-43.5V170.3z M679.8,218.6h19.6c14.3,0,21.5-6,21.5-14.9c0-10.2-7.2-15.3-23.3-15.3h-17.7V218.6z
		 M679.8,271h19.8c11.1,0,26.4-1.9,26.4-17.5c0-12.4-8.2-16.8-25.6-16.8h-20.6V271z"/>
	<path class="st1" d="M770.4,170.3h41.9c23.2,0,45,7.4,45,34.1c0,17.1-10.1,29.7-27.9,32.2l32,52.5h-25.9l-27.9-50.3h-15.7v50.3
		h-21.5V170.3z M808.6,220.6c12.1,0,26.2-1,26.2-16.4c0-14.1-13.3-15.8-24.4-15.8h-18.6v32.2H808.6z"/>
	<path class="st1" d="M935,167.3c37.7-0.7,64.2,24.2,64.2,62.2c0,37.1-26.6,61.9-64.2,62.6c-37.1,0-63.7-24.8-63.7-61.9
		C871.3,192.1,897.9,167.3,935,167.3z M935.2,273c25.1,0,41.6-18.8,41.6-44.1c0-23.7-16.5-42.4-41.6-42.4
		c-24.9,0-41.4,18.8-41.4,42.4C893.8,254.2,910.3,273,935.2,273z"/>
	<path class="st1" d="M1019.4,170.3h32.7l32.2,83.2l32.5-83.2h32.4v118.8h-20.4v-98.6h-0.3l-36.6,98.6h-15l-36.6-98.6h-0.3v98.6
		h-20.4V170.3z"/>
	<path class="st1" d="M1167.4,170.3h23.5l22.7,85.6h0.3l27.1-85.6h21.1l26.6,85.6h0.3l23.7-85.6h21.8l-35.1,118.8H1279l-27.9-90.4
		h-0.3l-27.9,90.4H1203L1167.4,170.3z"/>
	<path class="st1" d="M1350.9,170.3h21.5v118.8h-21.5V170.3z"/>
	<path class="st1" d="M1481.7,198.2c-8.9-9.2-17-11.7-25.4-11.7c-24.9,0-41.4,18.8-41.4,42.4c0,25.3,16.5,44.1,41.4,44.1
		c9.7,0,19.1-4.4,27.1-14.4l17.7,12.4c-10.9,14.8-27.3,21.1-45,21.1c-37.1,0-63.7-24.8-63.7-61.9c0-38.1,26.6-62.9,63.7-62.9
		c16.4,0,30.3,5.2,42.3,18.8L1481.7,198.2z"/>
	<path class="st1" d="M1519.8,170.3h21.5v47.3h56.4v-47.3h21.5v118.8h-21.5v-52.3h-56.4v52.3h-21.5V170.3z"/>
</g>
<g>
	<path class="st0" d="M1238,1724.4l-0.7-3.6c-2.4-9.2-11.2-35.9-25.1-52.9c36.1-5.3,80.2-18.5,100.6-49.1l5.1-7.6l-5.4-7.3
		c-22.7-29.8-68.7-41.7-104.8-46.4c13.5-18,19-40.3,19.8-43.5l3.9-17.9c0,0-10.4,2.7-19.5,2.6c-1.6,0.2-7.2,0-11.1-0.3
		c-16.4-2.2-38.6-0.1-42.9,0.3c-14.6,1.4-27.3,5.1-38.3,9.6c4.2-13.8,6.4-27.8,6.4-37.4c0-1.7-0.1-3.2-0.2-4.6
		c-1-11.3-12.7-48.7-14.9-55.3l-4.2-7.6c13.2-0.1,33.2,1.2,58.9,7.1c6,1.8,87.8,26.9,176,68.8c3.3,1.8,95.2,49.1,162.5,11.3
		c0,0,8.5-7.1,11.8-15.2l-50.1-26.1c0,0,34.5,4.4,56.1-4c-8.4-36.5-36.5-49.7-36.5-49.7c22.5,2.8,36.5-5.2,36.5-5.2
		c-2-5.6-6-13.2-6-13.2c-1.4-1.7-21.9-39.2-86.7-66.7c1.2-2,1.8-4.1,2.1-6.3c-0.1,0.8-0.2,1.9-0.2,1.9c0.6-1.6,1.2-3.5,1.2-5.9
		c0-11.1-13.6-40.9-112.1-87.1l-0.6-0.3l-0.6-0.3c-2.7-1.2-65.6-29.4-113.1-40.7c-27.5-22.5-233.5-185.4-492.8-239.1
		c-10.3-14.7-39.8-56.2-54.8-72.4c-5.4-7.2-54.9-69.6-131.2-68.6c-1.2,0-36.5,0-69.4,15.9c-8.4,0.3-15.7-3.8-15.7-3.9
		c-40.1-22.3-70.9-37.7-71.2-37.9l-1.7-0.8l-1.7-0.8c-15.9-3.8-22.9,5.8-24.7,8.8c-6,10.1-1.3,18.8,0.3,22.1l0.1,0.1
		c3.9,7.5,17.8,26.2,30.7,43c-27.4-2.1-42.4-1.1-50.8,1.2l0.1-0.1c-0.3,0.1-0.4,0.2-0.7,0.2c-0.1,0-0.2,0.1-0.3,0.1
		c-9.3,2.1-13.3,8.1-14.9,11.6c-1.3,2.8-1.7,5.6-1.7,8.2c0,5.9,2.5,10.7,3.6,12.4l-0.4-0.7c1.3,2.4,5.4,9.9,28.9,20.6
		c24.5,11.3,63.6,34.9,67,36.9c18.7,12.9,36.2,67.5,42.8,98.9l0.2,0.7c16,62.8,31.7,111.6,35.6,124.9
		c15.8,52.8,50,153.1,145.3,222.1l-1.2,30.6c-0.4,9.2-1.5,34.8-2.7,42.8l0,0c-0.4,2.7-0.6,6.1-0.6,10c0,8.9,1.2,20.2,3.6,31.4
		c-9.6-4.7-20.8-8.7-33.6-10.8c-0.9-0.1-23.4-4-39.9-2.7c-3.9,0.1-8.6,0-9.9-0.3c-7.3-0.6-18.6-6.6-18.6-6.6l2.1,20.8
		c0.5,3.3,4.4,26.1,16,44.9c-33.9,2.8-77.3,12.2-100.2,41l-5.3,6.6l4.1,7.5c17.3,32.2,57.6,47.5,90.2,54.8c-14,16.3-21.5,37-22.6,40
		l-4.5,14.9c0,0,12.5,0.7,20.1,2.1c1.4,0,4.3,0.6,8,1.4c16,4.2,38.8,4.3,39.8,4.3c14.6,0.1,28.9-2.4,40.1-6
		c-0.4,3.2-0.7,6.4-0.7,9.5c0,8.1,1.2,15.8,2.1,22.1l1.2,9.9c-0.2,8.5-1.9,33.1-3.4,41.9l0.7,26.9l16.4-14.8
		c4.4-3.6,21.3-10.2,34.4-14.2c24.4-7.8,42.1-18,55.8-29.3c-2.5,11.8-4.2,24.3-4.2,38.3c0,7.9,0.5,16.1,1.4,24.8
		c1.4,9.4,2.3,20.6,2.3,28.4c0,3.6-0.2,6.4-0.7,8l-2.8,26.9l22.3-12.7c8-5.4,30.4-20.2,37.7-23.8c8.4-4.1,21.8-14.2,33.6-26.4
		c1.6,10.5,4.5,21.7,10.1,33.2c0.4,0.7,10,21.2,20.7,33.7c2.3,3,4.8,6.8,5.4,8c4.2,7.7,7.8,17.6,7.8,17.6l13.1-12.1
		c2.5-2.3,19.7-18.7,28.8-39c21.8,25.8,54.7,55.5,92.1,57.6l8.2,0.4l3.8-7.3c6.7-12.5,9.3-26.2,9.3-40.2c0-22.5-7-45.4-14.8-64.2
		c21.7,2.1,43.8-3.3,47-4.2l21.3-5.9c0,0,5.6,1.1,4.5,0c7.2,3.3,6.8,3.1,14.7,5.9c11.4,3.7,30.3,11.2,35.4,15.5l20.8,12.6l0.3-23.6
		c-0.8-8.5-2.6-31.2-2.6-41.3c0-0.7,0-1.4,0-1.9c0-0.5,0-1,0-1.5c0-9.3-2.9-24.7-8.6-39.8c11.2,3.7,23.9,6.6,38.3,7.2
		c1,0.1,25.6,1.2,42.8-2c4.4-0.6,6.2-1.2,7.7-1.1C1215.7,1725.1,1228.3,1723.4,1238,1724.4z M783.5,1551.9
		c-8.9-33.2-25.6-94.9-103-135.8l-0.3-0.2l-0.3-0.1c-11.6-5.4-26.3-13.8-29.9-17.9l-16.1-18.9c45.9,31.9,105.5,56.5,183.2,65.7
		c9.9,1.7,42,7.3,69,11.2c-19.7,18.9-50.3,50.8-75.8,88.2l-5.6,8.3c-6.9,0.9-13.3,3.2-19.2,6.7
		C784.9,1556.7,784.2,1554.4,783.5,1551.9z M864,1599.9c-0.9-10.3-4.9-19.8-10.9-27.6c4.9-4.5,27-25,50.5-45.4
		c-7.9,23.1-16.8,47.9-22.8,60.9l-4.9,10.6C871.5,1599.2,867.5,1599.7,864,1599.9z M1088.8,1412.1c-7.7,12.3-19.9,18.8-20.1,18.9
		c-26.8,11.4-47.3,25.2-63.2,39.8c6.2-9.3,12.3-17.7,18-24.5c0,0,10.4-11.2,12.7-13.2c7.4-7.5,30.8-27.3,50.6-28.2l1.1,0l1.2-0.2
		c0.1,0,2.3-0.4,6.4-0.7L1088.8,1412.1z"/>
	<path class="st2" d="M473.3,927.4c92.8,32.1,14.7-23.4,14.8-21.9C519.3,931.1,473.3,927.4,473.3,927.4z"/>
	<g>
		<path class="st2" d="M512.4,898.8c0,0-1.3-19.8,20.5-21.9c21.8-2.1,35,12.7,39,19.8c4,7.2,8.9,20.7,11.1,29.2c0,0,3.3,9-5,4.8
			c-8.3-4.2-19.2-11-44.9-12.7C513.4,916.9,512.4,898.8,512.4,898.8z"/>
		<path class="st2" d="M540.3,896.5c0.2,4.2-2.8,7.7-6.7,7.9c-3.9,0.2-7.3-3.1-7.5-7.2c-0.2-4.2,2.8-7.7,6.7-7.9
			C536.7,889.1,540.1,892.3,540.3,896.5z"/>
	</g>
	<path class="st2" d="M1072.6,1230.8c101.3,15.3,68.4-30.5,67.6-31.2c53.4,12.9,58,35,58.7,35.7
		C1133.8,1261.6,1072.6,1230.8,1072.6,1230.8z"/>
	<g>
		<path class="st2" d="M567.7,1031.5c3.9,9.1,3.9,17.7,0.2,19.2c-3.7,1.5-9.9-4.6-13.8-13.6c-3.8-9.1-3.9-17.7-0.2-19.2
			C557.7,1016.3,563.8,1022.4,567.7,1031.5z"/>
		<path class="st2" d="M602.1,1089.2c6.7,9.4,9.1,19.1,5.4,21.6c-3.7,2.5-12.2-3-18.9-12.4c-6.7-9.4-9.1-19.1-5.4-21.6
			C587,1074.2,595.4,1079.8,602.1,1089.2z"/>
		<path class="st2" d="M645.4,1150.1c9.2,12.4,12.9,25.1,8.3,28.3c-4.6,3.2-15.7-4.2-24.9-16.6c-9.2-12.4-12.9-25.1-8.3-28.3
			C625.1,1130.2,636.2,1137.7,645.4,1150.1z"/>
		<path class="st2" d="M698,1214.6c9.2,12.4,12.9,25,8.3,28.3c-4.6,3.2-15.7-4.2-24.9-16.6c-9.2-12.4-12.9-25.1-8.3-28.3
			C677.7,1194.8,688.8,1202.2,698,1214.6z"/>
		<path class="st2" d="M777.7,1345.7c16.7,8.4,27.7,20.1,24.6,26c-3.1,5.9-19.2,3.9-35.9-4.6c-16.7-8.5-27.7-20.1-24.6-26
			C745,1335.2,761,1337.2,777.7,1345.7z"/>
		<path class="st2" d="M768,1270c14.7,11.4,23.2,25,18.9,30.2c-4.3,5.2-19.6,0.1-34.3-11.4c-14.7-11.5-23.2-25-18.9-30.2
			C737.9,1253.4,753.3,1258.5,768,1270z"/>
		<path class="st2" d="M852.8,1316.4c16.4,8.9,27.2,20.8,23.9,26.6c-3.3,5.8-19.3,3.3-35.7-5.6c-16.5-8.9-27.2-20.8-23.9-26.6
			C820.3,1305,836.4,1307.5,852.8,1316.4z"/>
	</g>
	
		<linearGradient id="SVGID_1_" gradientUnits="userSpaceOnUse" x1="275.8715" y1="937.1477" x2="1111.6658" y2="1326.885" gradientTransform="matrix(0.9987 -5.130000e-02 5.130000e-02 0.9987 -40.3301 53.6764)">
		<stop  offset="0" style="stop-color:#FFFFFF"/>
		<stop  offset="0.1176" style="stop-color:#FEFCFA"/>
		<stop  offset="0.2522" style="stop-color:#FBF5EC"/>
		<stop  offset="0.395" style="stop-color:#F5E9D6"/>
		<stop  offset="0.5428" style="stop-color:#EDD8B6"/>
		<stop  offset="0.6124" style="stop-color:#E9CEA4"/>
	</linearGradient>
	<path class="st3" d="M498.1,1135.8c0,0,50.5,294.8,379,296.2c80.7,0.4,76.4-9.6,76.4-9.6l6.3-2.5c0,0,47.5-17.9,48.2-20.4
		c0.7-2.5,30-33.4,30-33.4l114.4-80.1l-244-23l-123.1-49.3l-56.7-61.7l-25.2-45.6L690,1059l-29.8-146.6l-60.2-60.2l-51.3-8.9
		l-73.1,6.9l-25-14.3l-81.4-40.1l54.6,70l-94-5.2l89.3,50.9l27.1,36.7L498.1,1135.8z"/>
	<path class="st4" d="M473.3,927.4c92.8,32.1,14.7-23.4,14.8-21.9C519.3,931.1,473.3,927.4,473.3,927.4z"/>
	<g>
		<path class="st5" d="M512.4,898.8c0,0-1.3-19.8,20.5-21.9c21.8-2.1,35,12.7,39,19.8c4,7.2,8.9,20.7,11.1,29.2c0,0,3.3,9-5,4.8
			c-8.3-4.2-19.2-11-44.9-12.7C513.4,916.9,512.4,898.8,512.4,898.8z"/>
		<path class="st0" d="M540.3,896.5c0.2,4.2-2.8,7.7-6.7,7.9c-3.9,0.2-7.3-3.1-7.5-7.2c-0.2-4.2,2.8-7.7,6.7-7.9
			C536.7,889.1,540.1,892.3,540.3,896.5z"/>
	</g>
	<path class="st5" d="M547.8,1088.7c4.8,11.3,4.9,22.1,0.3,24c-4.7,1.9-12.4-5.7-17.2-17.1c-4.8-11.3-4.9-22.1-0.3-24
		C535.3,1069.7,543,1077.4,547.8,1088.7z"/>
	<path class="st5" d="M567.7,1031.5c3.9,9.1,3.9,17.7,0.2,19.2c-3.7,1.5-9.9-4.6-13.8-13.6c-3.8-9.1-3.9-17.7-0.2-19.2
		C557.7,1016.3,563.8,1022.4,567.7,1031.5z"/>
	<path class="st5" d="M602.1,1089.2c6.7,9.4,9.1,19.1,5.4,21.6c-3.7,2.5-12.2-3-18.9-12.4c-6.7-9.4-9.1-19.1-5.4-21.6
		C587,1074.2,595.4,1079.8,602.1,1089.2z"/>
	<path class="st5" d="M582.3,1162.5c7.6,13.4,9.6,26.4,4.7,29c-5,2.7-15.1-6-22.6-19.4c-7.6-13.4-9.6-26.5-4.7-29.1
		C564.7,1140.4,574.8,1149.1,582.3,1162.5z"/>
	<path class="st5" d="M645.4,1150.1c9.2,12.4,12.9,25.1,8.3,28.3c-4.6,3.2-15.7-4.2-24.9-16.6c-9.2-12.4-12.9-25.1-8.3-28.3
		C625.1,1130.2,636.2,1137.7,645.4,1150.1z"/>
	<path class="st5" d="M698,1214.6c9.2,12.4,12.9,25,8.3,28.3c-4.6,3.2-15.7-4.2-24.9-16.6c-9.2-12.4-12.9-25.1-8.3-28.3
		C677.7,1194.8,688.8,1202.2,698,1214.6z"/>
	<path class="st5" d="M568.2,1247c8.6,14.5,12.5,28,8.6,30.2c-3.9,2.2-14-7.7-22.6-22.2c-8.6-14.5-12.4-28-8.6-30.2
		C549.5,1222.6,559.6,1232.5,568.2,1247z"/>
	<path class="st5" d="M624.9,1317.8c12.2,11.7,19.2,24.2,15.6,27.7c-3.6,3.5-16.4-3.1-28.6-14.8c-12.2-11.8-19.2-24.2-15.6-27.7
		C599.9,1299.4,612.7,1306.1,624.9,1317.8z"/>
	<path class="st5" d="M698.1,1370.6c15.2,7.7,25.6,17.5,23.3,21.9c-2.3,4.4-16.6,1.8-31.8-5.9c-15.2-7.7-25.6-17.5-23.3-21.9
		C668.7,1360.3,683,1362.9,698.1,1370.6z"/>
	<path class="st5" d="M777.7,1345.7c16.7,8.4,27.7,20.1,24.6,26c-3.1,5.9-19.2,3.9-35.9-4.6c-16.7-8.5-27.7-20.1-24.6-26
		C745,1335.2,761,1337.2,777.7,1345.7z"/>
	<path class="st5" d="M628.7,1233c12.2,14,17.8,28.9,12.6,33.2c-5.2,4.3-19.2-3.6-31.4-17.6c-12.1-14-17.8-28.8-12.6-33.2
		C602.5,1211.1,616.6,1219,628.7,1233z"/>
	<path class="st5" d="M694.6,1299.8c14.5,11.8,22.7,25.5,18.3,30.6c-4.3,5.1-19.6-0.3-34-12c-14.5-11.8-22.7-25.4-18.3-30.5
		C664.9,1282.6,680.1,1288,694.6,1299.8z"/>
	<path class="st5" d="M768,1270c14.7,11.4,23.2,25,18.9,30.2c-4.3,5.2-19.6,0.1-34.3-11.4c-14.7-11.5-23.2-25-18.9-30.2
		C737.9,1253.4,753.3,1258.5,768,1270z"/>
	<path class="st5" d="M852.8,1316.4c16.4,8.9,27.2,20.8,23.9,26.6c-3.3,5.8-19.3,3.3-35.7-5.6c-16.5-8.9-27.2-20.8-23.9-26.6
		C820.3,1305,836.4,1307.5,852.8,1316.4z"/>
	<path class="st5" d="M867.8,1372.8c16.2,3.1,28.3,10.1,27.2,15.5c-1.2,5.5-15.2,7.3-31.3,4.2c-16.2-3.1-28.3-10.1-27.2-15.5
		C837.6,1371.6,851.6,1369.7,867.8,1372.8z"/>
	<path class="st5" d="M788.2,1400.2c16.4,2.2,29,8.2,28.3,13.4c-0.8,5.1-14.6,7.5-31,5.2c-16.3-2.3-29-8.3-28.2-13.4
		C758,1400.3,771.8,1397.9,788.2,1400.2z"/>
	<path class="st5" d="M941.5,1357.9c14.4,2.8,25.5,8.6,24.6,12.9c-0.9,4.3-13.3,5.6-27.8,2.8c-14.5-2.8-25.5-8.6-24.6-12.9
		C914.5,1356.4,927,1355.1,941.5,1357.9z"/>
	<path class="st5" d="M531,1169.3c4.9,12.7,6.1,24.1,2.6,25.4c-3.5,1.3-10.4-7.9-15.3-20.6c-4.9-12.7-6.1-24.1-2.6-25.4
		C519.2,1147.3,526,1156.5,531,1169.3z"/>
	<path class="st6" d="M1157.4,1567.4c5.4-5.8,27.6-5.3,27.6-5.3c21.4-14.6,29.8-51,29.8-51c-2.9,1.1-15.4,0.1-15.4,0.1
		c-16.1-2.3-40.4,0.3-40.4,0.3c-47.7,4.7-75.5,34.8-75.5,34.8c3.6-13.1,15.2-21.1,15.2-21.1c10.7-18.7,14-46,14-57.7
		c0.1-15.3-13.2-48.5-13.2-48.5c-9.9,15.8-25.2,23.6-25.2,23.6c-75.8,32-97.9,81.8-112.4,122c-4.9,13.4-10.2,22.8-15.2,29.4
		c13.2,1.3,27.3,4,42.1,8.9c62.1-4.3,157.5-6.1,254.3,11.5c0,0-125.1-7.9-225.6,0.9c9.6,5,19.3,11,29.1,18.3l0.8,0.6l0.7,0.7
		c8,7,20.4,14.2,25.8,18.2l24.2,12.4l-22.6,13c-7.4,3.7-28.1,14.3-35.6,19.1c-7.5,4.8-22.8,10.7-39.2,14.3c8,6.5,16,14.6,23,24.7
		c0.5,0.7,12.1,17.2,17.9,31.3c12.5,7.8,26.9,14.9,44,21c0,0,29.9,9.8,39.4,17.8c0,0-3-33.4-2.7-44.8c0.4-11.5-5.8-38.7-17.8-56.8
		c0,0-12.2-7.3-16.7-20.2c0,0,29.7,28.4,77.7,30.6c0,0,24.5,1.2,40.4-1.9c0,0,12.3-1.7,15.4-0.8c0,0-10.9-35.8-33.2-49.3
		c0,0-20.5,0.9-26.3-4.6c0,0,107.2,2.3,140.1-47.1h0.1C1266.1,1564.2,1157.4,1567.4,1157.4,1567.4z"/>
	<path class="st6" d="M1013.2,1744c-25-36-64.3-44.2-64.3-44.2c13.5-3.3,25.8,2.3,25.8,2.3c21.6-0.1,48.5-9.4,58.4-15.7
		c9.7-6.2,39.8-20.6,39.8-20.6c-11.5-3.1-33.8-21.9-33.8-21.9c-61.9-45.8-116.7-40.2-159.4-33c-5.9,1-11.2,1.6-16,1.9
		c-1.7,11-6.8,21.1-14.8,29.1c-3,3-6.2,5.5-9.7,7.6c33.1,86.5,123.1,206.9,123.1,206.9c-66.4-70.3-112.8-150.8-138.1-200.8
		c-2.4,0.6-4.8,1-7.2,1.3c3.6,7.3,6.1,15,6.1,23.2c0,29.2-23.7,52.9-52.9,52.9c-10.3,0-19.8-3-28-8.1c-10.4,24-16.2,53.2-12,90.3
		c0,0,4.5,30.1,1.3,41.3c0,0,29.6-19.9,39.2-24.6c10.6-5.3,32.6-22.8,43.7-40.8c0,0,1.4-13.2,11.1-22.8c0,0-12.9,37.1,6,76.5
		c0,0,9.4,20.1,19.3,31.4c0,0,6.9,9.1,7.4,11.9c0,0,27.7-25.5,30.2-49.6c0,0-11.1-16.9-8.7-24.1c0,0,49.8,85.8,108.9,89l-0.1-0.1
		c27.4-51.2-26.5-132.9-26.5-132.9c7.6,1.6,16.7,17.9,16.7,17.9c22.6,10.3,59.2,0.1,59.2,0.1c-2.2-1.8-6.7-12.3-6.7-12.3
		C1026.1,1762.3,1013.2,1744,1013.2,1744z"/>
	<path class="st6" d="M717.1,1680.2c0-8.5,2.7-16.5,6.7-24c-27.1-2.2-48.6-24.8-48.6-52.5c0-2.1,0.2-4.1,0.4-6.1
		c-82.4-8.6-167.5-7.7-167.5-7.7c60.8-8.3,120.5-7.9,170.4-4.4c7.5-20.2,26.8-34.6,49.6-34.6c16.7,0,32,8.4,42,21.8
		c1.5-1.9,3.1-3.7,4.8-5.4c-1.3-3.6-2.6-7.7-3.8-12.1c-11-40.9-28.4-91.8-96.6-127.8c0,0-26.6-12.3-34.3-21.3c0,0-1.3,33.7-2.8,44.1
		c-1.6,11.5,0.7,39.1,9.5,58.3c0,0,10.3,8.6,12.8,21.9c0,0-23.8-31.5-67.7-38.8c0,0-22.3-3.9-37.3-2.5c0,0-11.6,0.4-14.2-0.9
		c0,0,5.6,36.7,24.5,52.5c0,0,20.5,0.7,25.2,6.8c0,0-100.3-9-136.5,36.5l0.1,0c27.4,51.1,126.6,54.5,126.6,54.5
		c-5.7,5.1-24.6,3.2-24.6,3.2c-21.4,12.2-33.6,47.4-33.6,47.4c2.8-0.8,14.2,1.6,14.2,1.6c14.5,4,37.2,4.1,37.2,4.1
		c44.5,0.5,73.7-26.4,73.7-26.4c-4.9,12.7-16.6,19.3-16.6,19.3c-12.2,17.4-1.2,49-1.6,61.4c-0.1,4.4,0.4,10.3-7.3,38
		c9.2-7.5,38.7-16.5,38.7-16.5c39.2-12.5,60-31.2,73.7-51.7C723.7,1709.4,717.1,1695.6,717.1,1680.2z"/>
	<path class="st7" d="M684.8,1603.8c0,23.8,19.4,43.3,43.2,43.3l1.6-0.2l12.9-1.5l-6.9,9c-5.8,7.7-8.8,16.6-8.8,25.9
		c0,23.9,19.4,43.3,43.2,43.3c23.9,0,43.3-19.4,43.3-43.3c0-8.9-2.7-17.5-8-24.8l-6.1-8.7l11.7,1.2c24.3,0.1,43.7-19.3,43.7-43.2
		c0-23.9-19.4-43.3-43.3-43.3c-15.4,0-29.3,8.1-37.2,21.6l-4.3,7.3l-4.1-7.4c-7.7-13.9-22.1-22.5-37.7-22.5
		C704.2,1560.5,684.8,1579.9,684.8,1603.8z"/>
	<path class="st0" d="M717.4,1590.5c-5.3,7.3-12.6,11-16.2,8.3c-3.6-2.7-2.2-10.8,3.1-18.2c5.3-7.3,12.6-11,16.2-8.3
		C724.1,1575,722.7,1583.2,717.4,1590.5z"/>
	<path class="st0" d="M799.6,1592c-5.3,7.3-12.6,11-16.2,8.3c-3.6-2.7-2.2-10.8,3.1-18.2c5.3-7.3,12.6-11,16.2-8.3
		C806.3,1576.5,804.9,1584.7,799.6,1592z"/>
	<path class="st0" d="M759.9,1665c-5.3,7.3-12.6,11-16.2,8.3c-3.6-2.7-2.2-10.9,3.1-18.2c5.3-7.3,12.6-11,16.2-8.3
		C766.6,1649.6,765.2,1657.7,759.9,1665z"/>
	<path class="st8" d="M1510.9,1441.8c0,0-7.3-36.9-70-60.5c0,0,33.6,10.4,70.8,4.7c0,0-29.3-37.8-96.8-64.2c0,0-93-36.3-103.3-40.6
		c0,0,71.1,17.6,93.3,21.9c0,0,11.3,3.3,10.9-2.4c0,0,1.2-21.5-103.4-73.7c0,0-67.1-30.2-113.8-40.6c0,0-220.1-184.7-495-239.4
		c0,0-40.6-58.6-57.6-76.5c0,0-46.8-63.8-118.5-62.8c0,0-35-0.4-65.6,15.7c-15.3,1.9-28-5.9-28-5.9c-39.7-22.1-70.1-37.3-70.1-37.3
		c-11.8-2.8-6.1,7.6-6.1,7.6c6.6,12.7,52.4,70.3,52.4,70.3c-70.8-9-83.7-3-83.7-3c-7.5,1.4-3.3,8.3-3.3,8.3
		c2.8,5.2,21.4,13.7,21.4,13.7c26.7,12.3,69.4,38.2,69.4,38.2c31.1,21.2,49.5,109,49.5,109c17.9,70.3,37.3,122.2,37.3,122.2
		c3.3,5.2-2.1-20-2.1-20c-1.9-6.1-7.1-25.5-7.1-25.5c-8.1-33.9-17.7-80-17.7-80c-14.2-81.2-42.5-107.6-42.5-107.6
		c-10.9-13.7-84.9-48.3-84.9-48.3c20.8-2.4,100.4,11.5,100.4,11.5l-59.9-69.4l40.1,23.1c11.3,6.6,22.7,10.4,22.7,10.4
		s4.4,3.5,8,17.9c0,0,1.9,13.2,21.7,13.2c0,0,17.5-1.4,34-6.6c0,0,36.8-9,72.7,6.1c0,0,33.5,9.9,42.9,27.4c0,0,5.2,8.5-4.7,9.9
		c0,0-21.7,3.3-33.5-2.8l0.9,2.4c0,0,55.7,17,49.1,77.4c0,0-2.4,26-3.3,34.9c0,0-10.9,56.1,30.7,90.1c0,0-8.5-24.1,5.7-50.5
		c0,0,2.8,116.1,121.7,175.5c0,0,148.2,81.6,309.5,59.5c0,0-84.5,25-176.9,8c0,0-40-6.9-48.1-8.8c0,0-48.7-8.7-69-9.1
		c0,0-1.4,1.4,2.8,2.4c0,0,63.2,23.6,132.6,40.1c0,0,49.6,13.2,60.4,17c0,0,19.3,4.2,13.7,17c0,0-34.5,66.5-204.8,66.5
		c0,0,36.8,7.1,70.3,11.8c0,0,22.2,3,30.7,9.9c0,0-53.3,45.3-93,103.3c0,0,14.2,4.2,17.5,8.5c0,0,61.3-57.1,95.3-82.6
		c0,0-27.4,85.9-41.1,115.6c0,0,21.7-1.9,24.1-1.9c0,0,67.9-137.9,105.2-170.8c0,0,30.7-31.6,61.3-33c0,0,31.1-6.1,83.5,6.1
		c0,0,85.4,25.5,178.8,69.8c0,0,87.3,45.8,147.7,11.8c0,0-90.1-46.2-106.6-55.2C1389.4,1421.4,1442.9,1445.6,1510.9,1441.8z"/>
	<path class="st0" d="M710,1063.4c0,0,22.3,20.1,38.3,3.9c0.4-0.5,8.1,42.4,37.3,72.1C785.6,1139.4,738.2,1136.6,710,1063.4z"/>
	<path class="st0" d="M977.9,1178.2c17.1,10.7,36.7,39.5,38,39.4c-42.8,2.2-105.4-29.3-105.4-29.3c30.8,19.5,47,63.4,46.3,63.4
		c-99.9-2.4-179-71-179-71l2.7-0.8c66.4,38,109.3,37.2,109.2,35.9c-17.3-40.5-46.7-72.9-47.5-72.9c97,38.5,129.7,15.9,130.4,15.8
		c7.2-20-7.2-45.1-6.5-45.1c16.8,29,114.8,61.4,116.9,61.9C1029.8,1189.2,977.9,1177.5,977.9,1178.2z"/>
	<path class="st0" d="M1072.6,1230.8c101.3,15.3,68.4-30.5,67.6-31.2c53.4,12.9,58,35,58.7,35.7
		C1133.8,1261.6,1072.6,1230.8,1072.6,1230.8z"/>
</g>
</svg>
