<svg version="1.1" id="Westbrom" xmlns="http://www.w3.org/2000/svg" x="0" y="0" viewBox="0 0 1762 2105.8" style="enable-background:new 0 0 1762 2105.8" xml:space="preserve"><style>.st0{fill:#fff}.st1{fill:#102d69}.st2{fill:#fff;stroke:#fff;stroke-width:19.9234}.st5{fill:#411e11}.st6{fill:#009655}</style><path class="st0" d="M34.2 72 0 78.5V1107c0 7.9.2 199.3 107.5 419 63 129 150.1 240.9 258.9 332.4 135.3 113.9 304.2 196.3 502.2 244.7l4 1c.2.1 7.1 1.7 7.1 1.7l9-1.4 4.9-1.2c197.9-48.5 366.9-130.8 502.1-244.7 108.7-91.6 195.8-203.4 258.8-332.5 107.1-219.2 107.5-411.1 107.5-419.1V78.5l-34.2-6.6C1724 71.3 1343.7 0 881 0 418.6 0 38 71.3 34.2 72z"/><path class="st1" d="M1723.6 93.9c-3.7-.7-379.3-71.6-842.6-71.6-463.4 0-838.9 70.9-842.7 71.6l-16 3.1v1010c0 7.8.3 194.4 105.2 409.2 61.7 126.2 146.9 235.6 253.2 325.2 132.6 111.7 298.5 192.5 493.1 240.1l4 1 2.6.6 3.8-.6 4-1c194.6-47.6 360.5-128.4 493.1-240.1 106.3-89.6 191.5-199 253.2-325.2 104.9-214.8 105.3-401.4 105.2-409.3V97l-16.1-3.1z"/><path class="st0" d="M1355.4 1810.6c-2.6 2.2-5.4 4.3-8 6.5v-1102h-194.7V1943c-53.5 26.8-110.4 50.2-170.7 69.9V715.1H772.9v1295.4c-62.1-20.7-120.7-45.2-175.5-73.5V715.1H402.7v1092.1c-65.6-55.8-122.7-119.6-170.7-190.6V715.1H62.5V130.4C139.4 117 477.3 62.5 881 62.5c403.6 0 741.6 54.5 818.5 67.9v584.7h-176.7v912c-47.4 68.2-103.4 129.6-167.4 183.5z"/><path class="st1" d="M234.3 331.9h47.3l132.3 302.2h-62.4L322.8 565H189.7l-27.8 69.2h-61.1l133.5-302.3zm69.4 187-47.3-123-48.1 123h95.4zM435.1 331.9h54.6v253.6h130.5v48.7H435.1V331.9zM647.2 331.9h119.7c46.4 0 94.1 20.9 94.1 76 0 34.1-21.7 56.8-53.3 66.2v.9c38.6 4.3 66.3 34.1 66.3 73 0 65.7-58.1 86.2-116.2 86.2H647.2V331.9zm54.6 123h49.9c36.4 0 54.6-15.4 54.6-38 0-26-18.2-38.8-59.4-38.8h-45.1v76.8zm0 133.2h50.3c28.2 0 67.2-4.7 67.2-44.4 0-31.6-20.8-42.7-65-42.7h-52.5v87.1zM900.8 331.9h54.6v302.2h-54.6V331.9zM1146.7 324.2c95.8-1.7 163.5 61.5 163.5 158.4 0 94.4-67.7 157.5-163.5 159.2-94.5 0-162.2-63.2-162.2-157.5 0-96.9 67.7-160.1 162.2-160.1zm.5 269c63.7 0 105.8-47.8 105.8-112.3 0-60.2-42.1-108-105.8-108-63.3 0-105.4 47.8-105.4 108 0 64.5 42.1 112.3 105.4 112.3zM1340.6 331.9h72.4l148.8 224.5.9.9h-.9l.9-.9V331.9h54.6v302.2h-69.4l-151.8-231.8h-.9v231.8h-54.6V331.9zM106.2 170.3h23.5l22.7 85.6h.3l27.1-85.6h21.1l26.6 85.6h.3l23.7-85.6h21.8l-35.1 118.8h-20.4l-27.9-90.4h-.3l-27.9 90.4h-19.8l-35.7-118.8zM291.1 170.3H371v19.1h-58.4v29.2H368v19.1h-55.4V270h61.5v19.1h-83V170.3zM458.6 195.8c-4.6-6.4-12.8-9.4-21.1-9.4-9.9 0-19.8 4.4-19.8 15.3 0 23.8 57.3 10.2 57.3 52.5 0 25.5-20.4 37.9-44.1 37.9-15 0-29.6-4.5-39.5-16.1l16.2-15.4c5.3 7.9 14.3 12.4 23.9 12.4 9.9 0 21.1-5.4 21.1-16.3 0-26-57.3-11.1-57.3-53.5 0-24.5 22.2-35.9 44.5-35.9 12.6 0 25.2 3.5 34.6 12.2l-15.8 16.3zM526.2 189.4h-37v-19.1h95.4v19.1h-37V289h-21.5v-99.6zM658.3 170.3h47c18.2 0 37 8.2 37 29.9 0 13.4-8.5 22.3-21 26v.3c15.2 1.7 26.1 13.4 26.1 28.7 0 25.8-22.8 33.9-45.7 33.9h-43.5V170.3zm21.5 48.3h19.6c14.3 0 21.5-6 21.5-14.9 0-10.2-7.2-15.3-23.3-15.3h-17.7v30.2zm0 52.4h19.8c11.1 0 26.4-1.9 26.4-17.5 0-12.4-8.2-16.8-25.6-16.8h-20.6V271zM770.4 170.3h41.9c23.2 0 45 7.4 45 34.1 0 17.1-10.1 29.7-27.9 32.2l32 52.5h-25.9l-27.9-50.3h-15.7v50.3h-21.5V170.3zm38.2 50.3c12.1 0 26.2-1 26.2-16.4 0-14.1-13.3-15.8-24.4-15.8h-18.6v32.2h16.8zM935 167.3c37.7-.7 64.2 24.2 64.2 62.2 0 37.1-26.6 61.9-64.2 62.6-37.1 0-63.7-24.8-63.7-61.9 0-38.1 26.6-62.9 63.7-62.9zm.2 105.7c25.1 0 41.6-18.8 41.6-44.1 0-23.7-16.5-42.4-41.6-42.4-24.9 0-41.4 18.8-41.4 42.4 0 25.3 16.5 44.1 41.4 44.1zM1019.4 170.3h32.7l32.2 83.2 32.5-83.2h32.4v118.8h-20.4v-98.6h-.3l-36.6 98.6h-15l-36.6-98.6h-.3v98.6h-20.4V170.3zM1167.4 170.3h23.5l22.7 85.6h.3l27.1-85.6h21.1l26.6 85.6h.3l23.7-85.6h21.8l-35.1 118.8H1279l-27.9-90.4h-.3l-27.9 90.4H1203l-35.6-118.8zM1350.9 170.3h21.5v118.8h-21.5V170.3zM1481.7 198.2c-8.9-9.2-17-11.7-25.4-11.7-24.9 0-41.4 18.8-41.4 42.4 0 25.3 16.5 44.1 41.4 44.1 9.7 0 19.1-4.4 27.1-14.4l17.7 12.4c-10.9 14.8-27.3 21.1-45 21.1-37.1 0-63.7-24.8-63.7-61.9 0-38.1 26.6-62.9 63.7-62.9 16.4 0 30.3 5.2 42.3 18.8l-16.7 12.1zM1519.8 170.3h21.5v47.3h56.4v-47.3h21.5v118.8h-21.5v-52.3h-56.4v52.3h-21.5V170.3z"/><path class="st0" d="m1238 1724.4-.7-3.6c-2.4-9.2-11.2-35.9-25.1-52.9 36.1-5.3 80.2-18.5 100.6-49.1l5.1-7.6-5.4-7.3c-22.7-29.8-68.7-41.7-104.8-46.4 13.5-18 19-40.3 19.8-43.5l3.9-17.9s-10.4 2.7-19.5 2.6c-1.6.2-7.2 0-11.1-.3-16.4-2.2-38.6-.1-42.9.3-14.6 1.4-27.3 5.1-38.3 9.6 4.2-13.8 6.4-27.8 6.4-37.4 0-1.7-.1-3.2-.2-4.6-1-11.3-12.7-48.7-14.9-55.3l-4.2-7.6c13.2-.1 33.2 1.2 58.9 7.1 6 1.8 87.8 26.9 176 68.8 3.3 1.8 95.2 49.1 162.5 11.3 0 0 8.5-7.1 11.8-15.2l-50.1-26.1s34.5 4.4 56.1-4c-8.4-36.5-36.5-49.7-36.5-49.7 22.5 2.8 36.5-5.2 36.5-5.2-2-5.6-6-13.2-6-13.2-1.4-1.7-21.9-39.2-86.7-66.7 1.2-2 1.8-4.1 2.1-6.3-.1.8-.2 1.9-.2 1.9.6-1.6 1.2-3.5 1.2-5.9 0-11.1-13.6-40.9-112.1-87.1l-.6-.3-.6-.3c-2.7-1.2-65.6-29.4-113.1-40.7-27.5-22.5-233.5-185.4-492.8-239.1-10.3-14.7-39.8-56.2-54.8-72.4-5.4-7.2-54.9-69.6-131.2-68.6-1.2 0-36.5 0-69.4 15.9-8.4.3-15.7-3.8-15.7-3.9-40.1-22.3-70.9-37.7-71.2-37.9l-1.7-.8-1.7-.8c-15.9-3.8-22.9 5.8-24.7 8.8-6 10.1-1.3 18.8.3 22.1l.1.1c3.9 7.5 17.8 26.2 30.7 43-27.4-2.1-42.4-1.1-50.8 1.2l.1-.1c-.3.1-.4.2-.7.2-.1 0-.2.1-.3.1-9.3 2.1-13.3 8.1-14.9 11.6-1.3 2.8-1.7 5.6-1.7 8.2 0 5.9 2.5 10.7 3.6 12.4l-.4-.7c1.3 2.4 5.4 9.9 28.9 20.6 24.5 11.3 63.6 34.9 67 36.9 18.7 12.9 36.2 67.5 42.8 98.9l.2.7c16 62.8 31.7 111.6 35.6 124.9 15.8 52.8 50 153.1 145.3 222.1l-1.2 30.6c-.4 9.2-1.5 34.8-2.7 42.8-.4 2.7-.6 6.1-.6 10 0 8.9 1.2 20.2 3.6 31.4-9.6-4.7-20.8-8.7-33.6-10.8-.9-.1-23.4-4-39.9-2.7-3.9.1-8.6 0-9.9-.3-7.3-.6-18.6-6.6-18.6-6.6l2.1 20.8c.5 3.3 4.4 26.1 16 44.9-33.9 2.8-77.3 12.2-100.2 41l-5.3 6.6 4.1 7.5c17.3 32.2 57.6 47.5 90.2 54.8-14 16.3-21.5 37-22.6 40l-4.5 14.9s12.5.7 20.1 2.1c1.4 0 4.3.6 8 1.4 16 4.2 38.8 4.3 39.8 4.3 14.6.1 28.9-2.4 40.1-6-.4 3.2-.7 6.4-.7 9.5 0 8.1 1.2 15.8 2.1 22.1l1.2 9.9c-.2 8.5-1.9 33.1-3.4 41.9l.7 26.9 16.4-14.8c4.4-3.6 21.3-10.2 34.4-14.2 24.4-7.8 42.1-18 55.8-29.3-2.5 11.8-4.2 24.3-4.2 38.3 0 7.9.5 16.1 1.4 24.8 1.4 9.4 2.3 20.6 2.3 28.4 0 3.6-.2 6.4-.7 8l-2.8 26.9 22.3-12.7c8-5.4 30.4-20.2 37.7-23.8 8.4-4.1 21.8-14.2 33.6-26.4 1.6 10.5 4.5 21.7 10.1 33.2.4.7 10 21.2 20.7 33.7 2.3 3 4.8 6.8 5.4 8 4.2 7.7 7.8 17.6 7.8 17.6l13.1-12.1c2.5-2.3 19.7-18.7 28.8-39 21.8 25.8 54.7 55.5 92.1 57.6l8.2.4 3.8-7.3c6.7-12.5 9.3-26.2 9.3-40.2 0-22.5-7-45.4-14.8-64.2 21.7 2.1 43.8-3.3 47-4.2l21.3-5.9s5.6 1.1 4.5 0c7.2 3.3 6.8 3.1 14.7 5.9 11.4 3.7 30.3 11.2 35.4 15.5l20.8 12.6.3-23.6c-.8-8.5-2.6-31.2-2.6-41.3v-3.4c0-9.3-2.9-24.7-8.6-39.8 11.2 3.7 23.9 6.6 38.3 7.2 1 .1 25.6 1.2 42.8-2 4.4-.6 6.2-1.2 7.7-1.1.1.1 12.7-1.6 22.4-.6zm-454.5-172.5c-8.9-33.2-25.6-94.9-103-135.8l-.3-.2-.3-.1c-11.6-5.4-26.3-13.8-29.9-17.9l-16.1-18.9c45.9 31.9 105.5 56.5 183.2 65.7 9.9 1.7 42 7.3 69 11.2-19.7 18.9-50.3 50.8-75.8 88.2l-5.6 8.3c-6.9.9-13.3 3.2-19.2 6.7-.6-2.4-1.3-4.7-2-7.2zm80.5 48c-.9-10.3-4.9-19.8-10.9-27.6 4.9-4.5 27-25 50.5-45.4-7.9 23.1-16.8 47.9-22.8 60.9l-4.9 10.6c-4.4.8-8.4 1.3-11.9 1.5zm224.8-187.8c-7.7 12.3-19.9 18.8-20.1 18.9-26.8 11.4-47.3 25.2-63.2 39.8 6.2-9.3 12.3-17.7 18-24.5 0 0 10.4-11.2 12.7-13.2 7.4-7.5 30.8-27.3 50.6-28.2h1.1l1.2-.2c.1 0 2.3-.4 6.4-.7l-6.7 8.1z"/><path class="st2" d="M473.3 927.4c92.8 32.1 14.7-23.4 14.8-21.9 31.2 25.6-14.8 21.9-14.8 21.9zM512.4 898.8s-1.3-19.8 20.5-21.9c21.8-2.1 35 12.7 39 19.8 4 7.2 8.9 20.7 11.1 29.2 0 0 3.3 9-5 4.8s-19.2-11-44.9-12.7c-19.7-1.1-20.7-19.2-20.7-19.2z"/><path class="st2" d="M540.3 896.5c.2 4.2-2.8 7.7-6.7 7.9-3.9.2-7.3-3.1-7.5-7.2-.2-4.2 2.8-7.7 6.7-7.9 3.9-.2 7.3 3 7.5 7.2zM1072.6 1230.8c101.3 15.3 68.4-30.5 67.6-31.2 53.4 12.9 58 35 58.7 35.7-65.1 26.3-126.3-4.5-126.3-4.5zM567.7 1031.5c3.9 9.1 3.9 17.7.2 19.2-3.7 1.5-9.9-4.6-13.8-13.6-3.8-9.1-3.9-17.7-.2-19.2 3.8-1.6 9.9 4.5 13.8 13.6zM602.1 1089.2c6.7 9.4 9.1 19.1 5.4 21.6-3.7 2.5-12.2-3-18.9-12.4-6.7-9.4-9.1-19.1-5.4-21.6 3.8-2.6 12.2 3 18.9 12.4zM645.4 1150.1c9.2 12.4 12.9 25.1 8.3 28.3-4.6 3.2-15.7-4.2-24.9-16.6-9.2-12.4-12.9-25.1-8.3-28.3 4.6-3.3 15.7 4.2 24.9 16.6zM698 1214.6c9.2 12.4 12.9 25 8.3 28.3-4.6 3.2-15.7-4.2-24.9-16.6-9.2-12.4-12.9-25.1-8.3-28.3 4.6-3.2 15.7 4.2 24.9 16.6zM777.7 1345.7c16.7 8.4 27.7 20.1 24.6 26-3.1 5.9-19.2 3.9-35.9-4.6s-27.7-20.1-24.6-26c3.2-5.9 19.2-3.9 35.9 4.6zM768 1270c14.7 11.4 23.2 25 18.9 30.2-4.3 5.2-19.6.1-34.3-11.4-14.7-11.5-23.2-25-18.9-30.2 4.2-5.2 19.6-.1 34.3 11.4zM852.8 1316.4c16.4 8.9 27.2 20.8 23.9 26.6-3.3 5.8-19.3 3.3-35.7-5.6-16.5-8.9-27.2-20.8-23.9-26.6 3.2-5.8 19.3-3.3 35.7 5.6z"/><linearGradient id="SVGID_1_" gradientUnits="userSpaceOnUse" x1="275.872" y1="937.148" x2="1111.666" y2="1326.885" gradientTransform="rotate(-2.922 1025.743 812.155)"><stop offset="0" style="stop-color:#fff"/><stop offset=".118" style="stop-color:#fefcfa"/><stop offset=".252" style="stop-color:#fbf5ec"/><stop offset=".395" style="stop-color:#f5e9d6"/><stop offset=".543" style="stop-color:#edd8b6"/><stop offset=".612" style="stop-color:#e9cea4"/></linearGradient><path d="M498.1 1135.8s50.5 294.8 379 296.2c80.7.4 76.4-9.6 76.4-9.6l6.3-2.5s47.5-17.9 48.2-20.4c.7-2.5 30-33.4 30-33.4l114.4-80.1-244-23-123.1-49.3-56.7-61.7-25.2-45.6L690 1059l-29.8-146.6-60.2-60.2-51.3-8.9-73.1 6.9-25-14.3-81.4-40.1 54.6 70-94-5.2 89.3 50.9 27.1 36.7 51.9 187.6z" style="fill:url(#SVGID_1_)"/><path d="M473.3 927.4c92.8 32.1 14.7-23.4 14.8-21.9 31.2 25.6-14.8 21.9-14.8 21.9z" style="fill:#8a622a"/><path class="st5" d="M512.4 898.8s-1.3-19.8 20.5-21.9c21.8-2.1 35 12.7 39 19.8 4 7.2 8.9 20.7 11.1 29.2 0 0 3.3 9-5 4.8s-19.2-11-44.9-12.7c-19.7-1.1-20.7-19.2-20.7-19.2z"/><path class="st0" d="M540.3 896.5c.2 4.2-2.8 7.7-6.7 7.9-3.9.2-7.3-3.1-7.5-7.2-.2-4.2 2.8-7.7 6.7-7.9 3.9-.2 7.3 3 7.5 7.2z"/><path class="st5" d="M547.8 1088.7c4.8 11.3 4.9 22.1.3 24-4.7 1.9-12.4-5.7-17.2-17.1-4.8-11.3-4.9-22.1-.3-24 4.7-1.9 12.4 5.8 17.2 17.1zM567.7 1031.5c3.9 9.1 3.9 17.7.2 19.2-3.7 1.5-9.9-4.6-13.8-13.6-3.8-9.1-3.9-17.7-.2-19.2 3.8-1.6 9.9 4.5 13.8 13.6zM602.1 1089.2c6.7 9.4 9.1 19.1 5.4 21.6-3.7 2.5-12.2-3-18.9-12.4-6.7-9.4-9.1-19.1-5.4-21.6 3.8-2.6 12.2 3 18.9 12.4zM582.3 1162.5c7.6 13.4 9.6 26.4 4.7 29-5 2.7-15.1-6-22.6-19.4-7.6-13.4-9.6-26.5-4.7-29.1 5-2.6 15.1 6.1 22.6 19.5zM645.4 1150.1c9.2 12.4 12.9 25.1 8.3 28.3-4.6 3.2-15.7-4.2-24.9-16.6-9.2-12.4-12.9-25.1-8.3-28.3 4.6-3.3 15.7 4.2 24.9 16.6zM698 1214.6c9.2 12.4 12.9 25 8.3 28.3-4.6 3.2-15.7-4.2-24.9-16.6-9.2-12.4-12.9-25.1-8.3-28.3 4.6-3.2 15.7 4.2 24.9 16.6zM568.2 1247c8.6 14.5 12.5 28 8.6 30.2-3.9 2.2-14-7.7-22.6-22.2-8.6-14.5-12.4-28-8.6-30.2 3.9-2.2 14 7.7 22.6 22.2zM624.9 1317.8c12.2 11.7 19.2 24.2 15.6 27.7-3.6 3.5-16.4-3.1-28.6-14.8-12.2-11.8-19.2-24.2-15.6-27.7 3.6-3.6 16.4 3.1 28.6 14.8zM698.1 1370.6c15.2 7.7 25.6 17.5 23.3 21.9-2.3 4.4-16.6 1.8-31.8-5.9s-25.6-17.5-23.3-21.9c2.4-4.4 16.7-1.8 31.8 5.9zM777.7 1345.7c16.7 8.4 27.7 20.1 24.6 26-3.1 5.9-19.2 3.9-35.9-4.6s-27.7-20.1-24.6-26c3.2-5.9 19.2-3.9 35.9 4.6zM628.7 1233c12.2 14 17.8 28.9 12.6 33.2-5.2 4.3-19.2-3.6-31.4-17.6-12.1-14-17.8-28.8-12.6-33.2 5.2-4.3 19.3 3.6 31.4 17.6zM694.6 1299.8c14.5 11.8 22.7 25.5 18.3 30.6-4.3 5.1-19.6-.3-34-12-14.5-11.8-22.7-25.4-18.3-30.5 4.3-5.3 19.5.1 34 11.9zM768 1270c14.7 11.4 23.2 25 18.9 30.2-4.3 5.2-19.6.1-34.3-11.4-14.7-11.5-23.2-25-18.9-30.2 4.2-5.2 19.6-.1 34.3 11.4zM852.8 1316.4c16.4 8.9 27.2 20.8 23.9 26.6-3.3 5.8-19.3 3.3-35.7-5.6-16.5-8.9-27.2-20.8-23.9-26.6 3.2-5.8 19.3-3.3 35.7 5.6zM867.8 1372.8c16.2 3.1 28.3 10.1 27.2 15.5-1.2 5.5-15.2 7.3-31.3 4.2-16.2-3.1-28.3-10.1-27.2-15.5 1.1-5.4 15.1-7.3 31.3-4.2zM788.2 1400.2c16.4 2.2 29 8.2 28.3 13.4-.8 5.1-14.6 7.5-31 5.2-16.3-2.3-29-8.3-28.2-13.4.7-5.1 14.5-7.5 30.9-5.2zM941.5 1357.9c14.4 2.8 25.5 8.6 24.6 12.9-.9 4.3-13.3 5.6-27.8 2.8s-25.5-8.6-24.6-12.9c.8-4.3 13.3-5.6 27.8-2.8zM531 1169.3c4.9 12.7 6.1 24.1 2.6 25.4-3.5 1.3-10.4-7.9-15.3-20.6-4.9-12.7-6.1-24.1-2.6-25.4 3.5-1.4 10.3 7.8 15.3 20.6z"/><path class="st6" d="M1157.4 1567.4c5.4-5.8 27.6-5.3 27.6-5.3 21.4-14.6 29.8-51 29.8-51-2.9 1.1-15.4.1-15.4.1-16.1-2.3-40.4.3-40.4.3-47.7 4.7-75.5 34.8-75.5 34.8 3.6-13.1 15.2-21.1 15.2-21.1 10.7-18.7 14-46 14-57.7.1-15.3-13.2-48.5-13.2-48.5-9.9 15.8-25.2 23.6-25.2 23.6-75.8 32-97.9 81.8-112.4 122-4.9 13.4-10.2 22.8-15.2 29.4 13.2 1.3 27.3 4 42.1 8.9 62.1-4.3 157.5-6.1 254.3 11.5 0 0-125.1-7.9-225.6.9 9.6 5 19.3 11 29.1 18.3l.8.6.7.7c8 7 20.4 14.2 25.8 18.2l24.2 12.4-22.6 13c-7.4 3.7-28.1 14.3-35.6 19.1-7.5 4.8-22.8 10.7-39.2 14.3 8 6.5 16 14.6 23 24.7.5.7 12.1 17.2 17.9 31.3 12.5 7.8 26.9 14.9 44 21 0 0 29.9 9.8 39.4 17.8 0 0-3-33.4-2.7-44.8.4-11.5-5.8-38.7-17.8-56.8 0 0-12.2-7.3-16.7-20.2 0 0 29.7 28.4 77.7 30.6 0 0 24.5 1.2 40.4-1.9 0 0 12.3-1.7 15.4-.8 0 0-10.9-35.8-33.2-49.3 0 0-20.5.9-26.3-4.6 0 0 107.2 2.3 140.1-47.1h.1c-35.9-47.6-144.6-44.4-144.6-44.4z"/><path class="st6" d="M1013.2 1744c-25-36-64.3-44.2-64.3-44.2 13.5-3.3 25.8 2.3 25.8 2.3 21.6-.1 48.5-9.4 58.4-15.7 9.7-6.2 39.8-20.6 39.8-20.6-11.5-3.1-33.8-21.9-33.8-21.9-61.9-45.8-116.7-40.2-159.4-33-5.9 1-11.2 1.6-16 1.9-1.7 11-6.8 21.1-14.8 29.1-3 3-6.2 5.5-9.7 7.6 33.1 86.5 123.1 206.9 123.1 206.9-66.4-70.3-112.8-150.8-138.1-200.8-2.4.6-4.8 1-7.2 1.3 3.6 7.3 6.1 15 6.1 23.2 0 29.2-23.7 52.9-52.9 52.9-10.3 0-19.8-3-28-8.1-10.4 24-16.2 53.2-12 90.3 0 0 4.5 30.1 1.3 41.3 0 0 29.6-19.9 39.2-24.6 10.6-5.3 32.6-22.8 43.7-40.8 0 0 1.4-13.2 11.1-22.8 0 0-12.9 37.1 6 76.5 0 0 9.4 20.1 19.3 31.4 0 0 6.9 9.1 7.4 11.9 0 0 27.7-25.5 30.2-49.6 0 0-11.1-16.9-8.7-24.1 0 0 49.8 85.8 108.9 89l-.1-.1c27.4-51.2-26.5-132.9-26.5-132.9 7.6 1.6 16.7 17.9 16.7 17.9 22.6 10.3 59.2.1 59.2.1-2.2-1.8-6.7-12.3-6.7-12.3-5.1-13.8-18-32.1-18-32.1zM717.1 1680.2c0-8.5 2.7-16.5 6.7-24-27.1-2.2-48.6-24.8-48.6-52.5 0-2.1.2-4.1.4-6.1-82.4-8.6-167.5-7.7-167.5-7.7 60.8-8.3 120.5-7.9 170.4-4.4 7.5-20.2 26.8-34.6 49.6-34.6 16.7 0 32 8.4 42 21.8 1.5-1.9 3.1-3.7 4.8-5.4-1.3-3.6-2.6-7.7-3.8-12.1-11-40.9-28.4-91.8-96.6-127.8 0 0-26.6-12.3-34.3-21.3 0 0-1.3 33.7-2.8 44.1-1.6 11.5.7 39.1 9.5 58.3 0 0 10.3 8.6 12.8 21.9 0 0-23.8-31.5-67.7-38.8 0 0-22.3-3.9-37.3-2.5 0 0-11.6.4-14.2-.9 0 0 5.6 36.7 24.5 52.5 0 0 20.5.7 25.2 6.8 0 0-100.3-9-136.5 36.5h.1c27.4 51.1 126.6 54.5 126.6 54.5-5.7 5.1-24.6 3.2-24.6 3.2-21.4 12.2-33.6 47.4-33.6 47.4 2.8-.8 14.2 1.6 14.2 1.6 14.5 4 37.2 4.1 37.2 4.1 44.5.5 73.7-26.4 73.7-26.4-4.9 12.7-16.6 19.3-16.6 19.3-12.2 17.4-1.2 49-1.6 61.4-.1 4.4.4 10.3-7.3 38 9.2-7.5 38.7-16.5 38.7-16.5 39.2-12.5 60-31.2 73.7-51.7-10.5-9.5-17.1-23.3-17.1-38.7z"/><path d="M684.8 1603.8c0 23.8 19.4 43.3 43.2 43.3l1.6-.2 12.9-1.5-6.9 9c-5.8 7.7-8.8 16.6-8.8 25.9 0 23.9 19.4 43.3 43.2 43.3 23.9 0 43.3-19.4 43.3-43.3 0-8.9-2.7-17.5-8-24.8l-6.1-8.7 11.7 1.2c24.3.1 43.7-19.3 43.7-43.2 0-23.9-19.4-43.3-43.3-43.3-15.4 0-29.3 8.1-37.2 21.6l-4.3 7.3-4.1-7.4c-7.7-13.9-22.1-22.5-37.7-22.5-23.8 0-43.2 19.4-43.2 43.3z" style="fill:#ac3332"/><path class="st0" d="M717.4 1590.5c-5.3 7.3-12.6 11-16.2 8.3-3.6-2.7-2.2-10.8 3.1-18.2 5.3-7.3 12.6-11 16.2-8.3 3.6 2.7 2.2 10.9-3.1 18.2zM799.6 1592c-5.3 7.3-12.6 11-16.2 8.3-3.6-2.7-2.2-10.8 3.1-18.2 5.3-7.3 12.6-11 16.2-8.3 3.6 2.7 2.2 10.9-3.1 18.2zM759.9 1665c-5.3 7.3-12.6 11-16.2 8.3-3.6-2.7-2.2-10.9 3.1-18.2 5.3-7.3 12.6-11 16.2-8.3 3.6 2.8 2.2 10.9-3.1 18.2z"/><path d="M1510.9 1441.8s-7.3-36.9-70-60.5c0 0 33.6 10.4 70.8 4.7 0 0-29.3-37.8-96.8-64.2 0 0-93-36.3-103.3-40.6 0 0 71.1 17.6 93.3 21.9 0 0 11.3 3.3 10.9-2.4 0 0 1.2-21.5-103.4-73.7 0 0-67.1-30.2-113.8-40.6 0 0-220.1-184.7-495-239.4 0 0-40.6-58.6-57.6-76.5 0 0-46.8-63.8-118.5-62.8 0 0-35-.4-65.6 15.7-15.3 1.9-28-5.9-28-5.9-39.7-22.1-70.1-37.3-70.1-37.3-11.8-2.8-6.1 7.6-6.1 7.6 6.6 12.7 52.4 70.3 52.4 70.3-70.8-9-83.7-3-83.7-3-7.5 1.4-3.3 8.3-3.3 8.3 2.8 5.2 21.4 13.7 21.4 13.7 26.7 12.3 69.4 38.2 69.4 38.2 31.1 21.2 49.5 109 49.5 109 17.9 70.3 37.3 122.2 37.3 122.2 3.3 5.2-2.1-20-2.1-20-1.9-6.1-7.1-25.5-7.1-25.5-8.1-33.9-17.7-80-17.7-80-14.2-81.2-42.5-107.6-42.5-107.6-10.9-13.7-84.9-48.3-84.9-48.3 20.8-2.4 100.4 11.5 100.4 11.5l-59.9-69.4 40.1 23.1c11.3 6.6 22.7 10.4 22.7 10.4s4.4 3.5 8 17.9c0 0 1.9 13.2 21.7 13.2 0 0 17.5-1.4 34-6.6 0 0 36.8-9 72.7 6.1 0 0 33.5 9.9 42.9 27.4 0 0 5.2 8.5-4.7 9.9 0 0-21.7 3.3-33.5-2.8l.9 2.4s55.7 17 49.1 77.4c0 0-2.4 26-3.3 34.9 0 0-10.9 56.1 30.7 90.1 0 0-8.5-24.1 5.7-50.5 0 0 2.8 116.1 121.7 175.5 0 0 148.2 81.6 309.5 59.5 0 0-84.5 25-176.9 8 0 0-40-6.9-48.1-8.8 0 0-48.7-8.7-69-9.1 0 0-1.4 1.4 2.8 2.4 0 0 63.2 23.6 132.6 40.1 0 0 49.6 13.2 60.4 17 0 0 19.3 4.2 13.7 17 0 0-34.5 66.5-204.8 66.5 0 0 36.8 7.1 70.3 11.8 0 0 22.2 3 30.7 9.9 0 0-53.3 45.3-93 103.3 0 0 14.2 4.2 17.5 8.5 0 0 61.3-57.1 95.3-82.6 0 0-27.4 85.9-41.1 115.6 0 0 21.7-1.9 24.1-1.9 0 0 67.9-137.9 105.2-170.8 0 0 30.7-31.6 61.3-33 0 0 31.1-6.1 83.5 6.1 0 0 85.4 25.5 178.8 69.8 0 0 87.3 45.8 147.7 11.8 0 0-90.1-46.2-106.6-55.2-.1-.1 53.4 24.1 121.4 20.3z" style="fill:#76502e"/><path class="st0" d="M710 1063.4s22.3 20.1 38.3 3.9c.4-.5 8.1 42.4 37.3 72.1 0 0-47.4-2.8-75.6-76zM977.9 1178.2c17.1 10.7 36.7 39.5 38 39.4-42.8 2.2-105.4-29.3-105.4-29.3 30.8 19.5 47 63.4 46.3 63.4-99.9-2.4-179-71-179-71l2.7-.8c66.4 38 109.3 37.2 109.2 35.9-17.3-40.5-46.7-72.9-47.5-72.9 97 38.5 129.7 15.9 130.4 15.8 7.2-20-7.2-45.1-6.5-45.1 16.8 29 114.8 61.4 116.9 61.9-53.2 13.7-105.1 2-105.1 2.7zM1072.6 1230.8c101.3 15.3 68.4-30.5 67.6-31.2 53.4 12.9 58 35 58.7 35.7-65.1 26.3-126.3-4.5-126.3-4.5z"/></svg>