<svg version="1.1" id="West_Ham" xmlns="http://www.w3.org/2000/svg" x="0" y="0" viewBox="0 0 1743.2 1938.9" style="enable-background:new 0 0 1743.2 1938.9" xml:space="preserve"><style>.st2{fill:#d5a83a}.st3{fill:#f8d742}.st4{fill:#cca738}.st5{fill:#fff}</style><path d="M1743.1 62.9v-.1C1478.3 22.5 1183 0 871.5 0 560.1 0 264.8 22.5 0 62.7V790c.2 614.7 356.6 960.4 857.3 1144.2l14.2 4.6 14.2-4.6c500.8-183.8 857.1-529.5 857.3-1144.2V62.8h.1z" style="fill:#2baee5"/><path d="M1682.9 123v-.1c-246.5-37.5-521.4-58.4-811.4-58.4-289.9 0-564.8 20.9-811.3 58.4V812.1c.2 572.3 332 894.1 798.1 1065.2l13.3 4.3 13.2-4.3c466.2-171.1 797.9-492.9 798.1-1065.2V123z" style="fill:#7c2c3b"/><path class="st2" d="M1272 1565.9c12.8 12.9 33.4-.8 54.5-21.8 21.1-21.1 34.7-41.6 21.8-54.5L543.8 705.2c-12.8-12.9-35.8-10.7-51.3 4.8s-17.6 38.5-4.8 51.3l784.3 804.6z"/><path class="st3" d="m568.7 693.2 65.8-77.4s6.2-8.3-3.5-20c-25.4-30.9-76.3-76-76.3-76-7.3-5.5-12.3-4.2-20.5 3.7-40.3 38.6-142.8 137.7-149 144.1-7.8 8-11.3 13.4-8.8 27.1 2.5 13.8 9.8 36.8-2.9 59l-69.3 109c-8.7 13.3-11.2 25.1-4.7 31.5 3.5 3.4 12.3 7.4 30.2-5 8.6-5.9 102.8-69.3 132.8-94 17.6-14.5 31-27.6 31-27.6l56.8-55.8c.2 0 12.2-11.8 18.4-18.6z"/><path class="st2" d="M330.4 882.2c-19.7 13.3-19.6 15.3-16.9 14.9 4.3-1 9.7-3.3 16.4-7.9 8.6-5.9 102.8-69.3 132.8-94 12.4-10.2 22.7-19.7 27.7-24.5-15.5 3.3-35.2 10.8-47.2 20.8-16.1 13.4-84.7 71.6-112.8 90.7zM568.7 693.2l65.8-77.4s3.8-5.1.7-13.1c0 0-5.4-6.1-24.4 16-16 18.6-23.5 25.9-36.9 41.9-10.4 12.4-18.1 33.1-21.2 48.8 3.9-3.6 11.5-11.2 16-16.2zM472.9 1565.9c-12.8 12.9-33.4-.8-54.5-21.8-21.1-21.1-34.7-41.6-21.8-54.5L1201.5 705c12.8-12.9 35.8-10.7 51.3 4.8s17.6 38.5 4.8 51.3l-784.7 804.8z"/><path class="st3" d="m465.1 1558.2 751-771.2c12.8-12.9 10.7-35.8-4.8-51.3-8.1-8.1-18.2-12.5-27.9-13.1l-786.8 767c-12.3 12.3-.4 31.5 19 51.6 19.3 18.2 37.7 28.8 49.5 17zM1176.5 692.9l-65.8-77.4s-6.2-8.3 3.4-20c25.4-30.9 76.3-76 76.3-76 7.4-5.5 12.4-4.2 20.5 3.7 40.3 38.6 142.8 137.7 149 144.1 7.8 8 11.3 13.4 8.8 27.1-2.5 13.8-9.8 36.8 2.9 59l69.3 109c8.7 13.3 11.2 25.1 4.7 31.5-3.5 3.4-12.3 7.4-30.2-5-8.6-5.9-102.8-69.3-132.8-94-17.6-14.5-31-27.6-31-27.6l-56.8-55.8c-.1 0-12-11.8-18.3-18.6z"/><path class="st2" d="M1414.9 881.9c19.7 13.3 19.6 15.3 16.9 14.9-4.3-1-9.7-3.3-16.4-7.9-8.6-5.9-102.8-69.3-132.8-94-12.4-10.2-22.7-19.7-27.7-24.5 15.5 3.3 35.2 10.8 47.2 20.8 16.1 13.4 84.7 71.6 112.8 90.7zM1176.5 692.9l-65.8-77.4s-3.8-5.1-.7-13.1c0 0 5.4-6.1 24.4 16 16 18.6 23.5 25.9 36.9 41.9 10.4 12.4 18.1 33.1 21.2 48.8-3.8-3.6-11.4-11.2-16-16.2zM1303.3 715.4c-6.2 6.2-16.3 6.2-22.5 0l-33.7-33.7c-6.2-6.2-6.2-16.2 0-22.4 6.2-6.2 16.2-6.2 22.5 0l33.7 33.7c6.2 6.1 6.2 16.2 0 22.4z"/><path class="st4" d="M1251.7 681.7c-6.2-6.2-6.2-16.2 0-22.4 2.5-2.5 5.7-4 9-4.5-4.8-.7-9.8.8-13.5 4.5-6.2 6.2-6.2 16.2 0 22.4l33.7 33.7c3.7 3.7 8.7 5.2 13.5 4.5-3.3-.5-6.4-1.9-9-4.5l-33.7-33.7z"/><path class="st2" d="M1266.5 694c-.7.7-1.8.7-2.4 0-.7-.7-.7-1.8 0-2.4l15.5-15.5c.7-.7 1.8-.7 2.4 0 .7.7.7 1.8 0 2.4l-15.5 15.5zM1271.6 699.2c-.7.7-1.7.7-2.4 0s-.7-1.7 0-2.4 1.7-.7 2.4 0c.7.6.7 1.7 0 2.4zM1261 688.6c-.6.7-1.7.7-2.4 0s-.7-1.7 0-2.4 1.7-.7 2.4 0c.6.6.6 1.7 0 2.4zM1273.4 667.6l-5.3-5.3c-.7-.7-1.8-.7-2.4 0-.7.7-.7 1.8 0 2.4l.8.9c.3.3.3.8 0 1.1l-13.7 13.7c-.7.7-.7 1.8 0 2.4.7.7 1.8.7 2.4 0l13.7-13.7c.3-.2.8-.2 1.1.1l.9.9c.7.7 1.8.7 2.4 0 .8-.7.8-1.8.1-2.5zM1301.7 696.2c-.6-.8-1.6-.9-2.4-.4l-9 6.5c-.4.3-.9.3-1.2-.1-.3-.3-.4-.7-.2-1.1l1.8-3.7c.3-.6.2-1.3-.2-1.8 0 0 0-.1-.1-.1v-.2s-.1 0-.1-.1c-.5-.4-1.2-.5-1.8-.2l-3.7 1.8c-.4.2-.8.1-1.1-.2-.3-.3-.4-.9-.1-1.2l6.5-9c.6-.8.4-1.8-.4-2.4-.8-.6-1.8-.4-2.4.4l-12.8 17.7c-.5.7-.4 1.6.1 2.2 0 0 0 .1.1.1.5.5 1.3.6 1.9.3l6.3-3.1c.4-.2.8-.1 1.1.2.3.3.4.8.2 1.1l-3.1 6.2c-.3.7-.2 1.4.3 1.9 0 0 .1 0 .1.1.6.6 1.5.6 2.2.1l17.7-12.8c.7-.4.9-1.5.3-2.2z"/><path class="st3" d="M566.4 727.3c-9.8-.2-20.3 3.9-28.6 12.2-14.4 14.4-16.4 35.8-4.4 47.7l321.5 329.5 54.7-54.7-343.2-334.7zM1348.4 1489.6l-405.6-395.3c-6.4 2.8-12.3 6.9-17.6 12.1-21.1 21.1-22.8 54.3-5 77.3l362.8 372c11.9 12 31.1-.7 50.7-20.3 3.3-3.3 6.4-6.6 9.2-9.9 10.5-14.1 14.5-26.9 5.5-35.9zM1265.7 693.3c-.7.7-1.7.7-2.4 0s-.7-1.8 0-2.4l15.5-15.5c.7-.7 1.8-.7 2.4 0 .7.7.7 1.8 0 2.4l-15.5 15.5zM1270.8 698.4c-.7.7-1.7.7-2.4 0s-.7-1.7 0-2.4 1.7-.7 2.4 0 .7 1.8 0 2.4zM1260.2 687.8c-.6.6-1.7.7-2.4 0s-.6-1.7 0-2.4c.7-.7 1.7-.7 2.4 0s.7 1.8 0 2.4zM1272.7 666.9l-5.3-5.3c-.7-.7-1.8-.7-2.4 0-.7.7-.7 1.8 0 2.4l.8.9c.3.3.3.8 0 1.1l-13.7 13.7c-.7.7-.7 1.8 0 2.4.7.7 1.8.7 2.4 0l13.7-13.7c.3-.2.8-.2 1.1.1l.9.9c.7.7 1.8.7 2.4 0 .8-.8.8-1.8.1-2.5zM1301 695.4c-.5-.8-1.6-.9-2.4-.4l-9 6.5c-.4.3-.9.3-1.2-.1-.3-.3-.4-.7-.2-1.1l1.8-3.7c.3-.6.2-1.3-.2-1.8 0 0 0-.1-.1-.1v-.1h-.1s-.1 0-.1-.1c-.5-.4-1.2-.5-1.8-.2l-3.7 1.8c-.4.2-.8.1-1.1-.2-.3-.3-.4-.9-.1-1.2l6.5-9c.6-.8.4-1.8-.4-2.4-.8-.6-1.9-.4-2.4.4l-12.8 17.7c-.5.7-.4 1.6.1 2.2l.1.1c.5.5 1.3.6 1.9.3l6.3-3.1c.3-.2.8-.1 1.1.2.3.3.4.8.2 1.1l-3.1 6.2c-.3.6-.2 1.4.3 1.9 0 0 .1 0 .1.1.6.6 1.5.6 2.2.2l17.7-12.8c.8-.5.9-1.6.4-2.4z"/><path class="st2" d="M498.1 659.5c6.2 6.2 6.2 16.3 0 22.5l-33.7 33.7c-6.2 6.2-16.2 6.2-22.4 0-6.2-6.2-6.2-16.2 0-22.5l33.7-33.7c6.2-6.2 16.2-6.2 22.4 0z"/><path class="st4" d="m444.8 696.1 33.7-33.7c5.7-5.7 14.7-6.2 20.9-1.3-.4-.5-.8-1-1.3-1.5-6.2-6.2-16.3-6.2-22.5 0L442 693.2c-6.2 6.2-6.2 16.3 0 22.5.5.5 1 .9 1.5 1.3-4.9-6.2-4.4-15.2 1.3-20.9z"/><path class="st2" d="M476 698.8c.7.7.7 1.8 0 2.4-.7.7-1.8.7-2.4 0l-15.5-15.5c-.7-.7-.7-1.8 0-2.4.7-.7 1.8-.7 2.4 0l15.5 15.5zM481.2 693.7c.7.7.7 1.7 0 2.4s-1.7.6-2.4 0c-.7-.7-.7-1.7 0-2.4s1.7-.7 2.4 0zM470.6 704.3c.7.6.7 1.7 0 2.4s-1.7.7-2.4 0-.7-1.7 0-2.4c.6-.7 1.7-.7 2.4 0zM449.6 691.8l-5.3 5.3c-.7.7-.7 1.8 0 2.4.7.7 1.8.7 2.4 0l.9-.8c.3-.3.8-.3 1.1 0l13.7 13.7c.7.7 1.8.7 2.4 0 .7-.7.7-1.8 0-2.4l-13.7-13.7c-.2-.3-.2-.8.1-1.1l.9-.9c.7-.7.7-1.8 0-2.4-.7-.8-1.8-.8-2.5-.1zM478.2 663.5c-.8.6-.9 1.6-.4 2.4l6.5 9c.3.4.2.9-.1 1.2-.3.3-.7.3-1.1.2l-3.7-1.8c-.6-.3-1.3-.2-1.8.2 0 0-.1 0-.1.1l-.1.1-.1.1c-.4.5-.5 1.2-.2 1.8l1.8 3.7c.2.4.1.8-.2 1.1-.3.3-.9.4-1.2.1l-9-6.5c-.8-.6-1.8-.4-2.4.4-.6.8-.4 1.8.4 2.4l17.7 12.8c.7.5 1.6.4 2.2-.1l.1-.1c.5-.5.6-1.3.3-1.9l-3.1-6.3c-.2-.3-.1-.8.2-1 .3-.3.8-.4 1.1-.2l6.2 3.1c.7.3 1.4.2 1.9-.3l.1-.1c.6-.6.6-1.5.2-2.2L480.6 664c-.6-.9-1.7-1-2.4-.5z"/><path class="st3" d="M476 697.1c.7.7.7 1.8 0 2.4-.7.7-1.8.7-2.4 0L458.2 684c-.7-.7-.7-1.8 0-2.4.7-.7 1.8-.7 2.4 0l15.4 15.5zM481.2 692c.7.7.7 1.7 0 2.4s-1.7.7-2.4 0-.7-1.7 0-2.4 1.7-.7 2.4 0zM470.6 702.6c.7.6.7 1.7 0 2.4s-1.7.6-2.4 0c-.7-.7-.7-1.7 0-2.4.6-.7 1.7-.7 2.4 0zM449.6 690.1l-5.3 5.3c-.7.7-.7 1.8 0 2.4.7.7 1.8.7 2.4 0l.9-.8c.3-.3.8-.3 1.1 0l13.7 13.7c.7.7 1.8.7 2.4 0 .7-.7.7-1.8 0-2.4l-13.7-13.7c-.2-.3-.2-.8.1-1.1l.9-.9c.7-.7.7-1.8 0-2.4-.7-.8-1.8-.8-2.5-.1zM478.2 661.8c-.8.6-.9 1.6-.4 2.4l6.5 9c.3.4.2.9-.1 1.2-.3.3-.7.3-1.1.2l-3.7-1.8c-.6-.3-1.3-.2-1.8.2 0 0-.1 0-.1.1l-.1.1-.1.1c-.4.5-.5 1.2-.2 1.8l1.8 3.7c.2.4.1.8-.2 1.1-.3.3-.9.4-1.2.1l-9-6.5c-.8-.6-1.8-.4-2.4.4-.6.8-.4 1.8.4 2.4l17.7 12.8c.7.5 1.6.4 2.2-.1l.1-.1c.5-.5.6-1.3.3-1.9l-3.1-6.3c-.2-.4-.1-.8.2-1 .3-.3.8-.4 1.1-.2l6.2 3.1c.7.3 1.4.2 1.9-.3 0 0 0-.1.1-.1.6-.6.6-1.5.2-2.2l-12.8-17.7c-.6-.9-1.7-1-2.4-.5z"/><path class="st5" d="M555.2 466.5c-30.4 2.9-59.3-17.5-60.2-49.5-.9-29.4-1.8-58.9-2.8-88.3 13.8-1.1 20.7-1.6 34.5-2.6.8 29.4 1.7 58.9 2.5 88.3.4 14.6 10.2 21.8 24.9 20.8 2-.1 3.1-.2 5.1-.3 14.7-1 24.1-9.3 23.7-24l-2.1-88.3c13.8-.8 20.7-1.2 34.6-1.9.6 29.4 1.2 58.9 1.9 88.3.5 32.1-26 55.7-57 57.1-2 .2-3.1.3-5.1.4zM641.9 319.7c16.1-.8 24.1-1.1 40.1-1.7 18 29 36 58.1 53.8 87.3h.4l-.9-89.1c13.8-.4 20.8-.6 34.6-.8l1.2 139.7c-15.8.3-23.7.5-39.5 1-17.8-29.1-35.7-58.1-53.8-87.1h-.4c.4 29.6.9 59.3 1.3 88.9l-34.2 1.5c-.9-46.6-1.7-93.2-2.6-139.7zM795.3 314.9c13.9-.2 20.8-.3 34.6-.4.2 46.6.3 93.1.5 139.7-13.7.1-20.5.2-34.2.4l-.9-139.7zM899.6 343.7c-17.8-.1-26.7-.1-44.6 0v-29.3c41.3 0 82.6.3 123.9 1.1-.1 11.7-.2 17.6-.3 29.3-17.8-.4-26.7-.6-44.5-.8l-.6 110.4c-13.7-.2-20.5-.2-34.2-.3.2-36.8.3-73.6.3-110.4zM1004.1 316c31.3.9 62.5 2.1 93.7 3.4l-.5 29.3c-23.6-1.1-35.4-1.6-59-2.4-.1 10.2-.2 15.2-.3 25.4 19.2.7 28.8 1 48 1.9l-.5 29.3c-19.2-.9-28.7-1.2-47.9-1.9-.1 10.6-.2 15.8-.4 26.4 24.5.8 36.8 1.3 61.3 2.5-.2 11.7-.3 17.6-.6 29.3-31.8-1.4-63.6-2.6-95.4-3.5.6-46.5 1.1-93.1 1.6-139.7zM1124.1 320.5c22.1 1.1 33.2 1.8 55.3 3.1 40.2 1.5 71.7 34.3 70.6 74.7-1.1 39.5-34.9 68.8-74.2 65-21.9-1.4-32.8-2-54.7-3.1 1.1-46.6 2-93.2 3-139.7zm51.2 113.4c23.7 1.5 38.5-11.5 39.3-38.3.8-26.6-14-41.3-37.3-42.8-7.7-.5-11.6-.7-19.3-1.2-.6 27-1.3 54-1.9 81.1 7.6.5 11.5.7 19.2 1.2zM202.6 157c18-2.3 27-3.4 45-5.5 8.1 39.7 16.2 79.3 24.2 119 .2 0 .3 0 .5-.1 9.2-41.6 18.5-83.2 27.8-124.8 15.5-1.7 23.3-2.5 38.8-4 9 39.7 18 79.4 27 119.2h.5c8.7-41.4 17.5-82.8 26.2-124.2 17.8-1.6 26.6-2.3 44.4-3.8-14.8 59.8-29.6 119.5-44.4 179.3-20.8 1.9-31.3 2.8-52.1 4.9-7.1-33.6-14.2-67.1-21.2-100.7-.2 0-.3 0-.5.1-7.1 35-14.2 70.1-21.2 105.1-21 2.3-31.5 3.4-52.5 5.9-14.1-56.8-28.3-113.6-42.5-170.4zM1333.4 135.3c19.3 1.7 29 2.5 48.3 4.4 12.8 37.7 25.5 75.4 38.3 113.1.2 0 .3 0 .5.1 12.7-35.1 25.5-70.1 38.2-105.2 19.1 2.1 28.7 3.2 47.7 5.5l31.5 179.4c-17.7-2.2-26.6-3.3-44.3-5.4-5.2-39.1-10.4-78.1-15.6-117.2-.2 0-.3 0-.5-.1-12.6 37.1-25.1 74.1-37.6 111.2-15.5-1.7-23.3-2.5-38.8-4L1362.7 198h-.5c-4.5 38.1-9.1 76.1-13.6 114.2-18.1-1.6-27.1-2.4-45.1-3.8 10-57.7 19.9-115.4 29.9-173.1zM454.3 131.8c39.5-3 79-5.6 118.6-7.8-.9 14.8-1.3 22.2-2.1 36.9-24.5 1.4-49 2.9-73.5 4.6v31.9c24-1.7 36-2.4 60-3.8v36.8c-24 1.4-36 2.1-60 3.8v33.1c25.6-1.8 51.3-3.4 76.9-4.7v36.8c-40 2.3-79.9 4.9-119.9 7.9V131.8zM775 153.9c-22.2.4-33.3.6-55.5 1.2v-36.8c51.4-1.3 102.7-2 154.1-2v36.8c-22.2 0-33.3 0-55.5.2V292c-17.2.1-25.8.3-43.1.6V153.9zM945.1 116.7c17.2.2 25.8.3 43.1.7v70.2c24.9.6 49.7 1.3 74.6 2.1v-70.2c17.2.6 25.8.9 43 1.7v175.6c-17.2-.7-25.8-1.1-43-1.7v-68.8c-24.9-.8-49.7-1.5-74.6-2.1V293c-17.2-.4-25.8-.5-43.1-.7V116.7zM1234.6 267c-23.6-1.6-35.4-2.3-59.1-3.7-4.2 14.5-6.3 21.7-10.6 36.2-17.7-1-26.5-1.4-44.2-2.2 17.8-57.6 35.5-115.2 53.3-172.8 23.2 1.3 34.8 2 58 3.6 19.2 59.9 38.4 119.8 57.5 179.8-17.7-1.4-26.5-2-44.2-3.3-4.2-15.1-6.4-22.6-10.7-37.6zm-29.7-100.7c-6.4 21.1-12.9 42.1-19.3 63.2 15.6.9 23.3 1.4 38.9 2.4-6.4-21.9-12.7-43.7-19.1-65.6-.2.1-.3 0-.5 0zM654.2 117.4c-32.1 1.1-68.4 20.9-68.6 56.9-.4 55 82.2 40.3 87.4 70.3 1.4 8.3-8 15.3-19.8 15.3-22.1 0-39.5-4.3-57.6-13.6-.9 15.2-1.6 23.1-2.2 36.9 18.6 12.5 37.9 15.2 58.7 15.7 30.9.8 68.1-20.6 68.4-56.8.5-54.6-81.4-42.2-87.4-70.6-1.5-7.3 7.4-14.4 20.6-15.2 20.3-1.2 34.8 3.9 45.9 8.4.9-17.5 1.2-20 2.1-36.9-9.7-5.6-25.1-11.2-47.5-10.4zM617.4 1567.8l20.9 9.1-29.5 67.5 34.9 15.2-7.8 17.9-55.8-24.4 37.3-85.3zM720.7 1604.6c27.2 7.5 41.5 33 34.4 58.8-7.3 26.4-32.8 41.6-59.9 34.1-27.2-7.5-41.4-33.5-34.1-59.9 7-25.8 32.4-40.4 59.6-33zm-20 72.8c13.5 3.7 27.4-4.9 31.7-20.2 4-14.7-3.7-28.7-17.2-32.4-13.5-3.7-27.3 4.4-31.3 19.1-4.3 15.3 3.3 29.9 16.8 33.5zM776.9 1620l23 2.3 21.3 45.9c3 6.5 6.2 16.6 6.2 16.6h.3s0-10.1.6-15.9l4.4-43.3 22.7 2.3-9.4 92.8-22.8-2.3-21.4-45.8c-3-6.5-6.2-16.6-6.2-16.6h-.3s0 10.1-.6 15.9l-4.4 43.2-22.7-2.3 9.3-92.8zM871.4 1628.3l33.1-1.8c29.3-1.6 49 14.5 50.6 43.8 1.6 29.3-16.2 47.8-45.5 49.3l-33.1 1.8-5.1-93.1zm36.1 71.8c15.8-.8 24.9-10.7 23.9-28.6-1-17.7-11.5-26.3-26.8-25.5l-9.4.5 2.9 54 9.4-.4zM1003.7 1611.8c27.5-6.1 52.1 9.9 57.9 36 5.9 26.7-9.6 52.1-37.2 58.1-27.5 6.1-52.2-10.4-58.1-37.2-5.7-26 9.9-50.8 37.4-56.9zm16.3 73.8c13.6-3 22-17.1 18.6-32.7-3.3-14.9-16.7-23.7-30.3-20.7-13.6 3-22.1 16.6-18.8 31.5 3.3 15.5 16.8 24.9 30.5 21.9zM1060.6 1599.3l21.4-8.6 40.2 30.7c5.7 4.3 13.2 11.8 13.2 11.8l.2-.1s-4.7-8.9-6.9-14.4l-16.3-40.4 21.2-8.5 34.9 86.5-21.3 8.6-40.3-30.6c-5.7-4.3-13.2-11.8-13.2-11.8l-.2.1s4.7 8.9 6.9 14.4l16.2 40.3-21.2 8.5-34.8-86.5z"/></svg>