<svg version="1.1" id="Layer_1" xmlns="http://www.w3.org/2000/svg" x="0" y="0" viewBox="0 0 141.7 141.7" style="enable-background:new 0 0 141.7 141.7" xml:space="preserve"><style>.st2{fill:#cccecf}.st3{fill:#005ca6}.st4{fill-rule:evenodd;clip-rule:evenodd}.st4,.st5{fill:#ac9055}.st9{fill:#004713}.st10{fill:#80561b}</style><circle cx="70.8" cy="70.8" r="70.8" style="fill:#fff"/><path class="st2" d="M70.8 27.1c-24.1 0-43.6 19.5-43.6 43.6s19.5 43.6 43.6 43.6 43.6-19.5 43.6-43.6-19.5-43.6-43.6-43.6zm0 83.9c-22.2 0-40.3-18-40.3-40.3 0-22.2 18-40.3 40.3-40.3 22.2 0 40.3 18 40.3 40.3 0 22.3-18 40.3-40.3 40.3z"/><path class="st3" d="M70.8 1.9C32.8 1.9 2 32.7 2 70.7s30.8 68.8 68.8 68.8 68.8-30.8 68.8-68.8S108.8 1.9 70.8 1.9zm0 135c-36.5 0-66.2-29.6-66.2-66.2 0-36.5 29.6-66.2 66.2-66.2 36.5 0 66.2 29.6 66.2 66.2s-29.6 66.2-66.2 66.2z"/><path class="st3" d="M70.8 26.6c-24.4 0-44.1 19.8-44.1 44.1 0 24.4 19.8 44.1 44.1 44.1 24.4 0 44.1-19.8 44.1-44.1.1-24.4-19.7-44.1-44.1-44.1zm0 86.3c-11.3 0-21.6-4.5-29.2-11.7v-61c7.6-7.3 17.9-11.7 29.2-11.7 11.4 0 21.7 4.5 29.3 11.9l.1 60.7c-7.5 7.3-17.9 11.8-29.4 11.8z"/><path class="st4" d="M124.8 63.3s2.6-.3 3.5.6c.8.7 1.9 2.4 2 4.8.1 2.2-.2 3.1-.4 3.5-.2.4-.7.3-1.1.2-.4-.1-1.6-.8-1.8-1.1-.3-.4-.4-.6-.3-1.2.2-1.4-.3-4.8-1.9-6.2.1 0-.2-.5 0-.6"/><path class="st4" d="M129.7 64.1c4.5 2.9 4 7.4 3.7 8.6-.3 1.2-1.7.9-2.2.7-.4-.2-.5-.6-.3-1.1.2-.4.6-1.6.4-3.8-.2-2.5-1.7-4.3-1.7-4.3s-.1-.2.1-.1M132.9 74.2s-2.4 1.4-6.6-2.2c0 0-.4-.4-1-.1-.6.3-1.4.6-1.7 1.2-.4.6-.1 1.1.4 1.4.4.3 7 4.7 8.9-.3"/><path class="st5" d="M130.2 77.2s-3 1.1-7.4-2.5c0 0-.4-.5-.9-.3-.6.3-1.1 1.1-1.1 1.1s-.4.5.1 1c.4.3 4 4.1 9.3.7M120 75.5s-.3-2.1 5-4.6c0 0 .9-.2.9-1 0-.7-.2-1.4-.3-1.8-.1-.4-.6-.9-1.3-.6-.7.3-3.1 1.1-4.6 3-1.3 1.7-1.2 3.6.3 5"/><path class="st5" d="M118.4 71.5s.5-3.1 5.2-4.7c0 0 1.3-.2 1-1.2-.3-.9-.5-1.2-.7-1.5-.2-.3-.6-.4-1.4.1-.8.4-4.3 2.8-4.1 7.3"/><path class="st2" d="m68.4 79-1.2-.3s1.6-.6 2.3.1c0 0-.1-1.3.7-2.9v.8c-.7 1.7-.3 3.2-.3 3.2-3.2-2.3-4.4 1.2-4.4 1.2-1.1 4.2 3 4.6 3 4.6-.6-1.2 0-2.6 1-2.6s1.6 1 1.6 2.8c0 1.8 0 4-2.4 4s-3.6-2-3.6-2-.2 2.4-3.4 2.4c-3.2 0-3.8-4.6-2.6-5.2 1.2-.6 1.6 1.8 1.6 1.8 2-1.2 3-5.1.8-6.5-2.2-1.4-4.4 1.2-4.4 1.2-.4-4.6-6-5.4-6-5.4l8.6 22.2s5.8-1.8 13-1.8 13.2 2 13.2 2l8.2-22c-5.2-.6-5.4 5-5.4 5s-2.2-3.2-4.8-1.4c-2.6 1.8-.4 6.1-.4 6.1 1.3-3.7 3.8-.9 3.6 1-.2 2-2.6 3.6-4.4 3.3-2-.4-2.6-1.8-2.6-1.8s-.8 1.2-3.3.9c-1.6-.2-2.2-2.5-2.2-3.6 0-1.2.2-3.2 1.4-3.2 1.7 0 1.1 2.7 1.1 2.7s4-1.5 2.5-4.7c-1.4-3.1-4.4-.7-4.4-.7.1-.3.2-.7.2-1h.7v-.6c.3-.1.8-.3 1.4-.1l-1.4-8.2-.2-1s.5-1.4 4.7-4.1l1.7-1c1.2.4 2.8-.1 2.8-.1 4.8 1.1 5.3-1.5 5.3-1.5 1 .6 3.2-.2 3.2-.2 3-1.5-.9-2.9-.9-2.9 2 .2 1.3-1 1.3-1 4.8-1.7-.7-3.9-.7-3.9 5.5-.9 2.8-3.6 2.8-3.6 1.2-1.8-2.4-2-2.4-2 .3-4.2-6.6-2.4-6.6-2.4.6-.6-.6-1-.6-1-3.9.2-1.9-2.3-1.9-2.3-.4-2.1-3.2-1.6-3.2-1.6.8-1.2-1.5-1.2-1.5-1.2.9-1.1-2.8-1.1-2.8-1.1 0-1.2-.3-1.5-.3-1.5-.4-1.5-4-1.6-4-1.6-1.2-.5-1.9.3-1.9.3-1.7-.1-2.2.9-2.2.9-3 .4-3 1.8-3 1.8-1.7.3-1.7 1.5-1.7 1.5-8 .6-5.2 5.2-5.2 5.2-.8-.9-1.4 0-1.4 0-5.8-.7-3.4 4.4-3.4 4.4-4-.1-4.8 2.4-4.8 2.4-.9 2.2 1.7 3.2 1.7 3.2-3.6 1-1 2.8-1 2.8-3.7 2.3.9 3.6.9 3.6 1 3.3 6.1 2 8.6 1.2l4.1.9 1.1.6 3.8 2v2l-1.3 8.6c0 .2 1 .5 1.3 1.3z"/><path d="m76.1 76.9-1.4-8.2-.2-1s.6-1.4 4.7-4.1l6.1-3.5-5 .2-3.7 2.4-1.3.6h-1.5l2-4.8-4-.5-.4 4-1.4 1.3-.4-.6-1.1-5.1-2.2.2.9 4.3-1.5.6-1.1-.5 1.1.5s-6.3-2.6-8.5-2.7c-2.2-.2-.2 1.9-.2 1.9l5 1.1 1.1.6 3.8 2 .7 2.2-1.3 8.8s.7-.1 1.1.4c0 0-.4-3.6 3.5-6 0 0 3.9 1.9 3.9 6.1 0 0 .4-.5 1.3-.2" style="fill:#9f6c2e"/><path d="M69.7 59.5s-2.2 1.1-4-.3c0 0-.3 1.9-4.3 1.4 0 0 0 1.3-2.2.8 0 0-8.6 3.7-9.9-.7 0 0-4.7-1.3-.9-3.6 0 0-2.6-1.9 1-2.8 0 0-2.7-1.1-1.7-3.2 0 0 .8-2.5 4.8-2.4 0 0-2.4-5.1 3.4-4.4 0 0 .6-.9 1.4 0 0 0-2.8-4.6 5.4-5.4 0 0 0-1.2 1.7-1.5 0 0 .1-1.4 3-1.8 0 0 .6-1 2.2-.9 0 0 .7-.7 1.9-.3 0 0 3.6.1 4 1.6 0 0 2.1 0 2.1 1.2 0 0 1.9.4 1 1.4 0 0 2.3 0 1.5 1.2 0 0 2.9-.5 3.2 1.6 0 0 3 .7 1.9 2.3 0 0 1.2.5.6 1 0 0 6.9-1.7 6.6 2.4 0 0 3.6.2 2.4 2 0 0 2.7 2.8-2.8 3.6 0 0 5.5 2.2.7 3.9 0 0 .7 1.2-1.3 1 0 0 4 1.4.9 2.9 0 0-2.2.9-3.2.2 0 0-.5 2.5-5.3 1.5 0 0-3.6 1.1-4.1-1.2 0 0-3.1 1.2-4.6-1-.1.4-3.3 2-5.4-.5" style="fill:#006940"/><path d="M69.7 59.5s-2.2 1.1-4-.3c0 0-.3 1.9-4.3 1.4 0 0 0 1.3-2.2.8 0 0-8.6 3.7-9.9-.7 0 0-4.7-1.3-.9-3.6 0 0-2.6-1.9 1-2.8 0 0-2.7-1.1-1.7-3.2 0 0 .8-2.5 4.8-2.4 0 0-2.4-5.1 3.4-4.4 0 0 .6-.9 1.4 0 0 0-2.8-4.6 5.4-5.4 0 0 0-1.2 1.7-1.5 0 0 .1-1.4 3-1.8 0 0 .6-1 2.2-.9 0 0 .7-.7 1.9-.3 0 0 3.6.1 4 1.6 0 0 2.1 0 2.1 1.2 0 0 1.9.4 1 1.4 0 0 2.3 0 1.5 1.2 0 0 2.9-.5 3.2 1.6 0 0 3 .7 1.9 2.3 0 0 1.2.5.6 1 0 0 6.9-1.7 6.6 2.4 0 0 3.6.2 2.4 2 0 0 2.7 2.8-2.8 3.6 0 0 5.5 2.2.7 3.9 0 0 .7 1.2-1.3 1 0 0 4 1.4.9 2.9 0 0-2.2.9-3.2.2 0 0-.5 2.5-5.3 1.5 0 0-3.6 1.1-4.1-1.2 0 0-3.1 1.2-4.6-1-.1.4-3.3 2-5.4-.5z" style="fill:none;stroke:#006940;stroke-width:.2509"/><path class="st9" d="M49.7 49.3s-3.7 2-1.3 4.5c0 0 .5.4 1 .7 0 0-2 .5-1.8 1.6 0 0 .3.7.8 1.3 0 0-3.7 2 .9 3.6 0 0 1.2 4.5 9.9.6 0 0 1.8.8 2.2-.7 0 0 2.6.2 3.5-.5 0 0-2.5.2-4.1-.6 0 0-.6 1.1-2.8.6 0 0-7.1.4-6.9-2.1 0 0-1.8-.7-.6-2.9 0 0-1.1-1.7-.4-2.1.1-.2-2.9-1.4-.4-4M62.2 46.7s-1.5 1.6-.8 2.9c0 0 .2 1.6 1.5 2 0 0 2.5 0 3.2.6 0 0 .5 0 .4.8 0 0-.6 2.4.1 2.8h.1c.9.2 1.4 1.4 3.1 1.1 0 0-3.5-1.8-2.5-3.4 0 0-.5-1.7-.1-1.9 0 0-5.3-.9-4.9-1.9-.1.1-1.3-1.1-.1-3M78.2 43.6s.8 2.2-.9 3.1c0 0-1.5.3-1.8.8 0 0-.3 1.3-1.2 1.7 0 0-.9.5-.9.7 0 0 .6-.4 1.2-.4 0 0 1-1.3 1.5-1.7 0 0 1.1-.4 1.5-.4-.1 0 1.5-1.2.6-3.8M82.4 51.9s1.3.5 1.4 1.1c0 0 .6 1.5.3 2.1 0 0-1.2 1.2-.9 1.7 0 0 .3 1.2 2.2.9 0 0 1.5-.5 1.6.2l.1.9s.4-1.1.1-1.6c0 0-.9-.3-1.7-.1 0 0-1.9 0-.9-1.7 0 0 .7-1.7.6-2.5 0 0-.5-.6-1.2-.7 0 0-3.7-1.4-3.4-1.9-.2-.2.3 1.1 1.8 1.6M64.4 41.2s1.7-.5 2.3-.1c0 0 1.3.6 1.3 1 0 0-.3.8.1 1.4l.3 1.1-.6-.8s-.1-1.3-.4-1.7c0 0-1-.6-1.4-.6-.4 0-.1-.2-.1-.2s-1.5.1-1.7.3c0 0-1.9-.2-2.1-1.3 0 .1 1.4 1 2.3.9"/><path class="st9" d="M57.1 44.2s-1.9-3.2 2.7-4.6c0 0 2.3-.7 2.8-.6 0 0 0-.9 1.7-1.5 0 0 0-1.2 3-1.8 0 0 2.5 0 3.1 1l1.4 1s1.8.1 2 0l-2 .3-1.6-1s-2-.8-3.2-.3c0 0-1.5.4-2.2 1.1 0 0-1.3 1-1.5 1.4 0 0-3.2.9-3.2 1.3 0 0-2.7.3-2.3 3.2l-.7.5zM75 60.4s1.2 2.1 4.6 1c0 0 .7 2 4.1 1.2 0 0 4.2 1.1 5.3-1.5 0 0 3.9.4 4.3-1.5 0 0 .1-.7-2-1.6 0 0 1.2.1 1.4-.6l-.1-.5s2.4-.8 1.8-2c0 0-1.1-1.7-2.7-1.8 0 0 2.5 1.7 1.8 2.5 0 0-1 .6-2 .7 0 0 0 .4-.6.6 0 0-.9 1.5-.8 1.7 0 0 .4 1.5-2.2 1.5 0 0-.8 1.6-3.8 1.7 0 0-3.6-.3-3.9-1.4 0 0-2 .6-3.5.2.1-.1-.3.3-1.7-.2"/><path class="st10" d="m58.2 62 3.7.9 5.1 2.7.6 2.3-1 7.1 1.8-6.9-.9-3-1.2-1h-.4l-3.6-1.7zM65.7 62.6l1.5-.6-.4-2.1.6.1.1 1 .2.9-.1.3zM74.8 60.6l-1.8 3h1.6l.9.1.6-.3 1.1-.9.8-.7h-.1l-1.2.8-1.4.7h-1.1l-.4-.1v-.1z"/><path class="st10" d="m73.2 63.3-2 2.6-.4 2.5 1-2.4 1.2-1.5.9-1"/><path class="st5" d="m58.1 96.8-8.6-22.2s5.6.8 6 5.4c0 0 2.2-2.6 4.4-1.2 2.2 1.4 1.2 5.3-.8 6.5 0 0-.4-2.4-1.6-1.8-1.2.6-.6 5.1 2.6 5.1s3.4-2.8 3.4-2.8 1.2 2.4 3.6 2.4c2.4 0 2.4-2.2 2.4-4 0-1.8-.6-2.8-1.6-2.8s-1.6 1.4-1 2.6c0 0-4.1-.4-3-4.6 0 0 1.2-3.4 4.4-1.2 0 0-1-3.6 2.6-6.1 0 0 4 2.8 2.8 6.3 0 0 3-2.3 4.4.7 1.5 3.2-2.5 4.7-2.5 4.7s.6-2.7-1.1-2.7c-1.2 0-1.4 2-1.4 3.2 0 1.2.6 3.4 2.2 3.6 2.5.3 3.6-2 3.6-2s.3 2.5 2.2 2.9c1.8.4 4.2-1.3 4.4-3.3.2-2-2.3-4.8-3.6-1 0 0-2.2-4.3.4-6.1 2.6-1.8 4.8 1.4 4.8 1.4s.2-5.5 5.4-5l-8.2 22s-6-2-13.2-2c-7.2.2-13 2-13 2"/><path class="st3" d="M36.1 23.9c1 3.3 2.4 8.5 3.5 11.8-.4.2-.7.4-1.1.6-.3.2-.6.6-.9.8-3.3-2.8-12.6-9.8-13.5-10.4.6-.4 1.2-.7 1.7-1.1l1.5-1.2c3.2 2.7 6.9 5.7 9.6 7.9-1.2-4.1-2.9-9.9-3.7-12.1.4-.2.7-.4 1-.6.3-.2.6-.5.9-.8 1.6 1.5 7.6 5.4 10.1 7.5-1.3-3.9-3.4-10-4.1-11.8.3-.1.6-.3.9-.5.3-.2.6-.5.8-.7.5 1.9 3.3 11.3 5.2 16.5-.4.2-.7.4-1.1.6-.3.2-.6.6-.9.8-3.1-2.7-6.4-5-9.9-7.3zM52 17.6c-.8-2.5-1.4-4.3-2.1-6.2.5-.1 1.2-.2 1.9-.5.8-.2 1.4-.5 1.8-.7.5 2 1 3.8 1.8 6.3l1 3.1c.8 2.5 1.4 4.3 2.1 6.2-.5.1-1.2.2-1.9.5-.8.2-1.4.5-1.8.7-.5-2-1-3.8-1.8-6.3l-1-3.1zM75 11.2c-1.1-1.4-2.6-2.3-4.8-2.2-3 .1-6 2.7-5.8 7.7.1 3.8 2.4 6.5 6.1 6.4.8 0 2.2-.3 2.6-.5.1-.4 0-1 0-1.7-.1-2.6-.3-3.6-.3-4.1.3 0 .8.1 1.8.1 1.2 0 1.6-.1 1.9-.2-.1.5-.1 2.5 0 4 0 1 .1 2.3.2 2.6-2.1.7-4.3 1.2-6.4 1.3-5.5.2-9.6-2.7-9.8-7.6-.2-6 4-9.2 9.6-9.4 2.4-.1 4.1.4 5.8 1.2-.2.8-.5 1.6-.6 2.4H75zM92.7 28.9c-.7-.3-1.3-.6-2-.8-.6-.2-1.3-.4-2-.5 0-1.7 0-3.4-.1-5.1-1-.3-1.9-.7-2.9-1-.8-.3-1.6-.5-2.4-.7-1.1 1.3-2.1 2.7-3 4.1-.4-.2-.7-.3-1-.5-.4-.1-.7-.2-1.2-.3 1.9-2.1 7.9-9 11.5-13.5.3.1.5.3.8.4.3.1.6.1.9.2.4 5.7.8 13.4 1.4 17.7zM88.5 21l-.3-6c-1.3 1.5-2.6 3.1-3.9 4.7l4.2 1.3zM104.4 17c.2.3.5.5.8.8l.9.6c.4 5.1.8 10.2 1.3 15.3 2.3-3 6.3-8.1 6.8-9 .2.3.5.5.8.8l.9.6c-4.5 5.2-6.5 7.7-10.4 12.7-.2-.3-.4-.5-.7-.7-.3-.2-.5-.4-.8-.5-.2-5.1-.6-10.2-1.2-15.6-1.1 1.4-2.3 2.9-3.4 4.3-2.3 3-3.1 4.1-3.6 4.8-.3-.3-.5-.6-.8-.8l-.9-.6c.5-.5 4.6-5.1 7.5-8.9 1.3-1.7 2.2-2.9 2.8-3.8zM30.9 118.1c-.4-.5-.8-1-1.2-1.4-.4-.4-.9-.8-1.3-1.2.7-1.3 1.5-2.6 2.2-3.9-.6-.7-1.2-1.3-1.8-2-.5-.5-1-1-1.5-1.6-1.4.5-2.8 1.2-4.1 1.9-.2-.3-.4-.5-.6-.8-.2-.2-.5-.4-.8-.7 2.4-.8 9.9-3.6 14.6-5.5.2.2.3.5.5.7.2.2.4.3.6.5-2.2 4.5-5.2 10.5-6.6 14m.3-7.8c.8-1.6 1.6-3.1 2.4-4.7-1.7.6-3.3 1.2-5 1.9l2.6 2.8zM42 112.5c.4-.7.9-1.3 1-1.5-.7-.5-2.2-1.3-3.3-1.9.2-.2.4-.4.6-.7.2-.3.3-.5.4-.8 1.5 1.1 2.3 1.7 4.4 3.1 2.1 1.4 2.9 1.9 4.4 2.9-.2.2-.4.4-.6.7-.2.3-.3.5-.4.8-.9-.8-2.2-1.8-2.9-2.3-.2.2-.6.8-1.1 1.5l-2.9 4.3c-1.3 1.9-2.2 3.3-3.1 4.9-.4-.3-.8-.7-1.4-1-.6-.4-1.1-.6-1.5-.9 1.1-1.4 2.1-2.8 3.4-4.7l3-4.4zM56.9 124.1c-1-.4-2-.7-3-1.1l-3-.9-.4 1.1c-.7 2.2-1.2 3.7-1.7 5.5-.4-.2-.9-.4-1.6-.6-.7-.2-1.2-.3-1.6-.4.7-1.7 1.3-3.2 2-5.4l.9-2.7c.7-2.2 1.2-3.7 1.7-5.5.4.2.9.4 1.6.6.6.2 1.2.3 1.6.4-.7 1.7-1.2 3.2-2 5.4.7.2 1.6.6 3 1.1 1.4.5 2.2.7 3 1 .7-2.2 1.2-3.7 1.7-5.5.4.2.9.4 1.6.6.7.2 1.2.3 1.6.4-.7 1.7-1.3 3.2-2 5.4l-.9 2.7c-.7 2.2-1.2 3.7-1.7 5.5-.4-.2-.9-.4-1.6-.6-.6-.2-1.2-.3-1.6-.4.7-1.7 1.3-3.2 2-5.4l.4-1.2zM64.4 123.9c.2-2.3.2-3.9.2-5.8.5.1 1 .2 1.7.2H68c-.2 1.8-.4 3.4-.5 5.7l-.2 2.8c-.1 1.5-.2 3.1-.2 4.2 1.6.1 3.2.1 4.8 0-.1.3-.1.5-.1.9v.9c-.7-.1-1.7-.2-3.6-.3-3.4-.2-3.9-.2-4.4-.2.2-1.8.4-3.4.5-5.7l.1-2.7zM75.3 124.2c-.3-2.3-.6-3.9-1-5.7 1.2-.2 2.5-.3 3.7-.4 2-.3 3.7-.6 4.3-.7v.9c.1.4.1.6.2.9-1.6.1-4.1.3-4.7.4.1 1.5.3 3 .6 4.5 1.8-.3 3.1-.5 4.6-.8v.9c0 .2.1.4.2.8-1.6.1-3.1.3-4.7.5.1.9.2 1.8.4 2.6.1.9.3 1.7.4 2.6 1.5-.2 3.1-.5 4.7-1 0 .3 0 .5.1.9s.1.6.2.9c-.7.1-1.7.1-3.6.4-3.4.5-3.9.6-4.3.7-.1-1.8-.3-3.4-.7-5.7l-.4-2.7zM87.7 119.1c-.3-.7-.6-1.4-.7-1.7-.8.3-2.3 1-3.5 1.6-.1-.3-.1-.6-.2-.9-.1-.3-.3-.5-.4-.8 1.8-.6 2.7-.9 5.1-1.8 2.4-.9 3.3-1.3 4.9-2 .1.3.1.6.2.9.1.3.3.5.4.8-1.1.3-2.8.8-3.5 1.1.1.3.3 1 .6 1.7l1.9 4.8c.8 2.2 1.4 3.7 2.2 5.3-.4.1-1 .3-1.6.5-.6.2-1.1.5-1.6.7-.5-1.8-1.1-3.3-1.9-5.4l-1.9-4.8zM97.7 117c-1.2-2-2.1-3.3-3.2-4.8.4-.2.9-.5 1.5-.8.6-.4 1-.7 1.4-1 .9 1.6 1.7 3 2.9 5l1.5 2.4c1.2 2 2.1 3.3 3.2 4.8-.4.2-.9.5-1.5.8-.6.4-1 .7-1.4 1-.9-1.6-1.7-3-2.9-5l-1.5-2.4zM116.4 109.5c.2.6.5 1.1.9 1.6-.4 1.2-1.2 2.4-2.4 3.6-3.5 3.4-7.6 3.2-10.3.4-4-4.1-2.8-8.4.4-11.4 1-1 2.7-2 3.7-2.2.3.7.7 1.3 1.1 1.9l-.2.2c-1.6-.2-2.8.1-3.9 1.2-1.6 1.6-2 4.7 1 7.8 3 3.1 6 2.5 7.7.8 1-.9 1.6-2.4 1.6-3.7l.4-.2z"/><path class="st4" d="M16.9 63.3s-2.6-.3-3.5.6c-.8.7-1.9 2.4-2 4.8-.1 2.2.2 3.1.4 3.5.2.4.7.3 1.1.2.4-.1 1.6-.8 1.8-1.1.3-.4.4-.6.3-1.2-.2-1.4.3-4.8 1.9-6.2-.1 0 .2-.5 0-.6"/><path class="st4" d="M12 64.1c-4.5 2.9-4 7.4-3.7 8.6.3 1.2 1.7.9 2.2.7.4-.2.5-.6.3-1.1-.2-.4-.6-1.6-.4-3.8.2-2.5 1.7-4.3 1.7-4.3s.1-.2-.1-.1M8.8 74.2s2.4 1.4 6.6-2.2c0 0 .4-.4 1-.1.6.3 1.4.6 1.7 1.2.4.6.1 1.1-.4 1.4-.4.3-7 4.7-8.9-.3"/><path class="st5" d="M11.5 77.2s3 1.1 7.4-2.5c0 0 .4-.5.9-.3.6.3 1.1 1.1 1.1 1.1s.4.5-.1 1c-.4.3-4 4.1-9.3.7M21.7 75.5s.3-2.1-5-4.6c0 0-.9-.2-.9-1 0-.7.2-1.4.3-1.8.1-.4.6-.9 1.3-.6.7.3 3.1 1.1 4.6 3 1.3 1.7 1.2 3.6-.3 5"/><path class="st5" d="M23.3 71.5s-.5-3.1-5.2-4.7c0 0-1.3-.2-1-1.2.3-.9.5-1.2.7-1.5.2-.3.6-.4 1.4.1.8.4 4.3 2.8 4.1 7.3M62.7 99.6c-.3.9-.8 2.2-1.1 3.3l-.2.7c-.3 1.2-.6 2-1 3.5l-.9-.3c-.3-.1-.6-.1-.9-.2.2-.6.7-1.8 1-3l.9-3.1c-.2 0-1 .2-1.5.2-.1-.3-.3-.6-.4-.8 1.3-.1 2.4-.2 3.7-.5l.4.2zM64.6 107.2c.2.2.5.5 1 .5.9.1 2-.8 2.3-3-.3.3-.7.6-1.6.5-1.2-.1-2.1-1-2-2.4.2-1.5 1.3-2.5 2.9-2.3 1.7.2 2.7 1.4 2.5 3.5-.3 2.9-2 4.5-4.1 4.3-.3 0-.7-.1-.9-.3 0-.3-.1-.5-.1-.8zm2.7-6.2c-.6-.1-1 .6-1.2 1.7-.1 1.3.2 1.8.8 1.9.5.1 1-.4 1.1-1.6.3-1.4-.1-2-.7-2zM72.5 104.1h.3c.9-.1 1.3-.7 1.2-1.7-.1-1-.6-1.4-1.1-1.4-.7.1-1 .7-1 1.5h-.2c-.2-.2-.6-.5-.8-.7.4-.7.9-1.2 2.2-1.3 1.8-.1 2.5.6 2.6 1.6.1.9-.5 1.5-1.5 1.9v.1c1.3.1 2 .4 2.1 1.8.1 1.4-1.3 2.4-2.7 2.5-1.3.1-2-.3-2.4-.7.2-.4.5-.7.6-1.1h.2c.2.7.6 1.3 1.4 1.2.7-.1 1.3-.8 1.2-1.8-.1-1-.6-1.6-1.5-1.6-.2 0-.3 0-.5.1l-.1-.4zM78.4 107.3c1.8-2.7 2.3-4.3 1.9-5.8-.3-1.2-1-1.5-1.6-1.3-.8.2-.8 1.3-.6 1.9l-.1.1c-.4-.2-.7-.3-1.1-.5.1-.9.6-1.7 2-2 2.1-.6 2.9.4 3.1 1.2.3 1-.1 2.2-2.1 5.1 1.1-.3 2.1-.6 3.2-.9.1.2.1.5.1.7.1.2.2.5.2.7-.9.2-1.7.4-2.5.6-.8.2-1.6.5-2.4.7l-.1-.5z"/></svg>