<?xml version="1.0" encoding="utf-8"?>
<!-- Generator: Adobe Illustrator 19.2.1, SVG Export Plug-In . SVG Version: 6.00 Build 0)  -->
<!DOCTYPE svg PUBLIC "-//W3C//DTD SVG 1.1//EN" "http://www.w3.org/Graphics/SVG/1.1/DTD/svg11.dtd">
<svg version="1.1" id="Layer_1" xmlns="http://www.w3.org/2000/svg" xmlns:xlink="http://www.w3.org/1999/xlink" x="0px" y="0px"
	 viewBox="0 0 141.7 141.7" style="enable-background:new 0 0 141.7 141.7;" xml:space="preserve">
<style type="text/css">
	.st0{fill:#008053;}
	.st1{fill:#FFFFFF;}
	.st2{fill:#CCCECF;}
	.st3{fill:#005CA6;}
	.st4{fill-rule:evenodd;clip-rule:evenodd;fill:#AC9055;}
	.st5{fill:#AC9055;}
	.st6{fill:#9F6C2E;}
	.st7{fill:#006940;}
	.st8{fill:none;stroke:#006940;stroke-width:0.2509;}
	.st9{fill:#004713;}
	.st10{fill:#80561B;}
</style>
<g>
	<g>
		<path class="st0" d="M29.6,127.3"/>
	</g>
	<circle class="st1" cx="70.8" cy="70.8" r="70.8"/>
	<path class="st2" d="M70.8,27.1c-24.1,0-43.6,19.5-43.6,43.6s19.5,43.6,43.6,43.6c24.1,0,43.6-19.5,43.6-43.6S94.9,27.1,70.8,27.1z
		 M70.8,111c-22.2,0-40.3-18-40.3-40.3c0-22.2,18-40.3,40.3-40.3c22.2,0,40.3,18,40.3,40.3C111.1,93,93.1,111,70.8,111z"/>
	<path class="st3" d="M70.8,1.9c-38,0-68.8,30.8-68.8,68.8c0,38,30.8,68.8,68.8,68.8c38,0,68.8-30.8,68.8-68.8
		C139.6,32.7,108.8,1.9,70.8,1.9z M70.8,136.9c-36.5,0-66.2-29.6-66.2-66.2c0-36.5,29.6-66.2,66.2-66.2c36.5,0,66.2,29.6,66.2,66.2
		C137,107.3,107.4,136.9,70.8,136.9z"/>
	<path class="st3" d="M70.8,26.6c-24.4,0-44.1,19.8-44.1,44.1c0,24.4,19.8,44.1,44.1,44.1c24.4,0,44.1-19.8,44.1-44.1
		C115,46.3,95.2,26.6,70.8,26.6z M70.8,112.9c-11.3,0-21.6-4.5-29.2-11.7v-61c7.6-7.3,17.9-11.7,29.2-11.7
		c11.4,0,21.7,4.5,29.3,11.9l0.1,60.7C92.7,108.4,82.3,112.9,70.8,112.9z"/>
	<g>
		<path class="st4" d="M124.8,63.3c0,0,2.6-0.3,3.5,0.6c0.8,0.7,1.9,2.4,2,4.8c0.1,2.2-0.2,3.1-0.4,3.5c-0.2,0.4-0.7,0.3-1.1,0.2
			c-0.4-0.1-1.6-0.8-1.8-1.1c-0.3-0.4-0.4-0.6-0.3-1.2c0.2-1.4-0.3-4.8-1.9-6.2C124.9,63.9,124.6,63.4,124.8,63.3"/>
		<path class="st4" d="M129.7,64.1c4.5,2.9,4,7.4,3.7,8.6c-0.3,1.2-1.7,0.9-2.2,0.7c-0.4-0.2-0.5-0.6-0.3-1.1
			c0.2-0.4,0.6-1.6,0.4-3.8c-0.2-2.5-1.7-4.3-1.7-4.3S129.5,64,129.7,64.1"/>
		<path class="st4" d="M132.9,74.2c0,0-2.4,1.4-6.6-2.2c0,0-0.4-0.4-1-0.1c-0.6,0.3-1.4,0.6-1.7,1.2c-0.4,0.6-0.1,1.1,0.4,1.4
			C124.4,74.8,131,79.2,132.9,74.2"/>
		<path class="st5" d="M130.2,77.2c0,0-3,1.1-7.4-2.5c0,0-0.4-0.5-0.9-0.3c-0.6,0.3-1.1,1.1-1.1,1.1s-0.4,0.5,0.1,1
			C121.3,76.8,124.9,80.6,130.2,77.2"/>
		<path class="st5" d="M120,75.5c0,0-0.3-2.1,5-4.6c0,0,0.9-0.2,0.9-1c0-0.7-0.2-1.4-0.3-1.8c-0.1-0.4-0.6-0.9-1.3-0.6
			c-0.7,0.3-3.1,1.1-4.6,3C118.4,72.2,118.5,74.1,120,75.5"/>
		<path class="st5" d="M118.4,71.5c0,0,0.5-3.1,5.2-4.7c0,0,1.3-0.2,1-1.2c-0.3-0.9-0.5-1.2-0.7-1.5c-0.2-0.3-0.6-0.4-1.4,0.1
			C121.7,64.6,118.2,67,118.4,71.5"/>
	</g>
	<g>
		<path class="st2" d="M68.4,79l-1.2-0.3c0,0,1.6-0.6,2.3,0.1c0,0-0.1-1.3,0.7-2.9v0.8c-0.7,1.7-0.3,3.2-0.3,3.2
			c-3.2-2.3-4.4,1.2-4.4,1.2c-1.1,4.2,3,4.6,3,4.6c-0.6-1.2,0-2.6,1-2.6c1,0,1.6,1,1.6,2.8c0,1.8,0,4-2.4,4c-2.4,0-3.6-2-3.6-2
			s-0.2,2.4-3.4,2.4c-3.2,0-3.8-4.6-2.6-5.2c1.2-0.6,1.6,1.8,1.6,1.8c2-1.2,3-5.1,0.8-6.5c-2.2-1.4-4.4,1.2-4.4,1.2
			c-0.4-4.6-6-5.4-6-5.4l8.6,22.2c0,0,5.8-1.8,13-1.8c7.2,0,13.2,2,13.2,2l8.2-22c-5.2-0.6-5.4,5-5.4,5s-2.2-3.2-4.8-1.4
			c-2.6,1.8-0.4,6.1-0.4,6.1c1.3-3.7,3.8-0.9,3.6,1c-0.2,2-2.6,3.6-4.4,3.3c-2-0.4-2.6-1.8-2.6-1.8s-0.8,1.2-3.3,0.9
			c-1.6-0.2-2.2-2.5-2.2-3.6c0-1.2,0.2-3.2,1.4-3.2c1.7,0,1.1,2.7,1.1,2.7s4-1.5,2.5-4.7c-1.4-3.1-4.4-0.7-4.4-0.7
			c0.1-0.3,0.2-0.7,0.2-1h0.7v-0.6c0.3-0.1,0.8-0.3,1.4-0.1l-1.4-8.2l-0.2-1c0,0,0.5-1.4,4.7-4.1l1.7-1c1.2,0.4,2.8-0.1,2.8-0.1
			c4.8,1.1,5.3-1.5,5.3-1.5c1,0.6,3.2-0.2,3.2-0.2c3-1.5-0.9-2.9-0.9-2.9c2,0.2,1.3-1,1.3-1c4.8-1.7-0.7-3.9-0.7-3.9
			c5.5-0.9,2.8-3.6,2.8-3.6c1.2-1.8-2.4-2-2.4-2c0.3-4.2-6.6-2.4-6.6-2.4c0.6-0.6-0.6-1-0.6-1c-3.9,0.2-1.9-2.3-1.9-2.3
			c-0.4-2.1-3.2-1.6-3.2-1.6c0.8-1.2-1.5-1.2-1.5-1.2c0.9-1.1-2.8-1.1-2.8-1.1c0-1.2-0.3-1.5-0.3-1.5c-0.4-1.5-4-1.6-4-1.6
			c-1.2-0.5-1.9,0.3-1.9,0.3c-1.7-0.1-2.2,0.9-2.2,0.9c-3,0.4-3,1.8-3,1.8c-1.7,0.3-1.7,1.5-1.7,1.5C56,41.4,58.8,46,58.8,46
			c-0.8-0.9-1.4,0-1.4,0c-5.8-0.7-3.4,4.4-3.4,4.4c-4-0.1-4.8,2.4-4.8,2.4C48.3,55,50.9,56,50.9,56c-3.6,1-1,2.8-1,2.8
			c-3.7,2.3,0.9,3.6,0.9,3.6c1,3.3,6.1,2,8.6,1.2l4.1,0.9l1.1,0.6l3.8,2l0,2l-1.3,8.6C67.1,77.9,68.1,78.2,68.4,79z"/>
	</g>
	<path class="st6" d="M76.1,76.9l-1.4-8.2l-0.2-1c0,0,0.6-1.4,4.7-4.1l6.1-3.5l-5,0.2l-3.7,2.4l-1.3,0.6h-1.5l2-4.8L71.8,58l-0.4,4
		L70,63.3l-0.4-0.6l-1.1-5.1l-2.2,0.2l0.9,4.3l-1.5,0.6l-1.1-0.5l1.1,0.5c0,0-6.3-2.6-8.5-2.7c-2.2-0.2-0.2,1.9-0.2,1.9l5,1.1
		l1.1,0.6l3.8,2l0.7,2.2l-1.3,8.8c0,0,0.7-0.1,1.1,0.4c0,0-0.4-3.6,3.5-6c0,0,3.9,1.9,3.9,6.1C74.8,77.1,75.2,76.6,76.1,76.9"/>
	<path class="st7" d="M69.7,59.5c0,0-2.2,1.1-4-0.3c0,0-0.3,1.9-4.3,1.4c0,0,0,1.3-2.2,0.8c0,0-8.6,3.7-9.9-0.7c0,0-4.7-1.3-0.9-3.6
		c0,0-2.6-1.9,1-2.8c0,0-2.7-1.1-1.7-3.2c0,0,0.8-2.5,4.8-2.4c0,0-2.4-5.1,3.4-4.4c0,0,0.6-0.9,1.4,0c0,0-2.8-4.6,5.4-5.4
		c0,0,0-1.2,1.7-1.5c0,0,0.1-1.4,3-1.8c0,0,0.6-1,2.2-0.9c0,0,0.7-0.7,1.9-0.3c0,0,3.6,0.1,4,1.6c0,0,2.1,0,2.1,1.2
		c0,0,1.9,0.4,1,1.4c0,0,2.3,0,1.5,1.2c0,0,2.9-0.5,3.2,1.6c0,0,3,0.7,1.9,2.3c0,0,1.2,0.5,0.6,1c0,0,6.9-1.7,6.6,2.4
		c0,0,3.6,0.2,2.4,2c0,0,2.7,2.8-2.8,3.6c0,0,5.5,2.2,0.7,3.9c0,0,0.7,1.2-1.3,1c0,0,4,1.4,0.9,2.9c0,0-2.2,0.9-3.2,0.2
		c0,0-0.5,2.5-5.3,1.5c0,0-3.6,1.1-4.1-1.2c0,0-3.1,1.2-4.6-1C75,60.4,71.8,62,69.7,59.5"/>
	<path class="st8" d="M69.7,59.5c0,0-2.2,1.1-4-0.3c0,0-0.3,1.9-4.3,1.4c0,0,0,1.3-2.2,0.8c0,0-8.6,3.7-9.9-0.7c0,0-4.7-1.3-0.9-3.6
		c0,0-2.6-1.9,1-2.8c0,0-2.7-1.1-1.7-3.2c0,0,0.8-2.5,4.8-2.4c0,0-2.4-5.1,3.4-4.4c0,0,0.6-0.9,1.4,0c0,0-2.8-4.6,5.4-5.4
		c0,0,0-1.2,1.7-1.5c0,0,0.1-1.4,3-1.8c0,0,0.6-1,2.2-0.9c0,0,0.7-0.7,1.9-0.3c0,0,3.6,0.1,4,1.6c0,0,2.1,0,2.1,1.2
		c0,0,1.9,0.4,1,1.4c0,0,2.3,0,1.5,1.2c0,0,2.9-0.5,3.2,1.6c0,0,3,0.7,1.9,2.3c0,0,1.2,0.5,0.6,1c0,0,6.9-1.7,6.6,2.4
		c0,0,3.6,0.2,2.4,2c0,0,2.7,2.8-2.8,3.6c0,0,5.5,2.2,0.7,3.9c0,0,0.7,1.2-1.3,1c0,0,4,1.4,0.9,2.9c0,0-2.2,0.9-3.2,0.2
		c0,0-0.5,2.5-5.3,1.5c0,0-3.6,1.1-4.1-1.2c0,0-3.1,1.2-4.6-1C75,60.4,71.8,62,69.7,59.5z"/>
	<path class="st9" d="M49.7,49.3c0,0-3.7,2-1.3,4.5c0,0,0.5,0.4,1,0.7c0,0-2,0.5-1.8,1.6c0,0,0.3,0.7,0.8,1.3c0,0-3.7,2,0.9,3.6
		c0,0,1.2,4.5,9.9,0.6c0,0,1.8,0.8,2.2-0.7c0,0,2.6,0.2,3.5-0.5c0,0-2.5,0.2-4.1-0.6c0,0-0.6,1.1-2.8,0.6c0,0-7.1,0.4-6.9-2.1
		c0,0-1.8-0.7-0.6-2.9c0,0-1.1-1.7-0.4-2.1C50.2,53.1,47.2,51.9,49.7,49.3"/>
	<path class="st9" d="M62.2,46.7c0,0-1.5,1.6-0.8,2.9c0,0,0.2,1.6,1.5,2c0,0,2.5,0,3.2,0.6c0,0,0.5,0,0.4,0.8c0,0-0.6,2.4,0.1,2.8
		c0,0,0.1,0,0.1,0c0.9,0.2,1.4,1.4,3.1,1.1c0,0-3.5-1.8-2.5-3.4c0,0-0.5-1.7-0.1-1.9c0,0-5.3-0.9-4.9-1.9
		C62.2,49.8,61,48.6,62.2,46.7"/>
	<path class="st9" d="M78.2,43.6c0,0,0.8,2.2-0.9,3.1c0,0-1.5,0.3-1.8,0.8c0,0-0.3,1.3-1.2,1.7c0,0-0.9,0.5-0.9,0.7
		c0,0,0.6-0.4,1.2-0.4c0,0,1-1.3,1.5-1.7c0,0,1.1-0.4,1.5-0.4C77.5,47.4,79.1,46.2,78.2,43.6"/>
	<path class="st9" d="M82.4,51.9c0,0,1.3,0.5,1.4,1.1c0,0,0.6,1.5,0.3,2.1c0,0-1.2,1.2-0.9,1.7c0,0,0.3,1.2,2.2,0.9
		c0,0,1.5-0.5,1.6,0.2l0.1,0.9c0,0,0.4-1.1,0.1-1.6c0,0-0.9-0.3-1.7-0.1c0,0-1.9,0-0.9-1.7c0,0,0.7-1.7,0.6-2.5c0,0-0.5-0.6-1.2-0.7
		c0,0-3.7-1.4-3.4-1.9C80.4,50.1,80.9,51.4,82.4,51.9"/>
	<path class="st9" d="M64.4,41.2c0,0,1.7-0.5,2.3-0.1c0,0,1.3,0.6,1.3,1c0,0-0.3,0.8,0.1,1.4l0.3,1.1l-0.6-0.8c0,0-0.1-1.3-0.4-1.7
		c0,0-1-0.6-1.4-0.6c-0.4,0-0.1-0.2-0.1-0.2s-1.5,0.1-1.7,0.3c0,0-1.9-0.2-2.1-1.3C62.1,40.4,63.5,41.3,64.4,41.2"/>
	<path class="st9" d="M57.1,44.2c0,0-1.9-3.2,2.7-4.6c0,0,2.3-0.7,2.8-0.6c0,0,0-0.9,1.7-1.5c0,0,0-1.2,3-1.8c0,0,2.5,0,3.1,1l1.4,1
		c0,0,1.8,0.1,2,0l-2,0.3l-1.6-1c0,0-2-0.8-3.2-0.3c0,0-1.5,0.4-2.2,1.1c0,0-1.3,1-1.5,1.4c0,0-3.2,0.9-3.2,1.3c0,0-2.7,0.3-2.3,3.2
		L57.1,44.2z"/>
	<path class="st9" d="M75,60.4c0,0,1.2,2.1,4.6,1c0,0,0.7,2,4.1,1.2c0,0,4.2,1.1,5.3-1.5c0,0,3.9,0.4,4.3-1.5c0,0,0.1-0.7-2-1.6
		c0,0,1.2,0.1,1.4-0.6l-0.1-0.5c0,0,2.4-0.8,1.8-2c0,0-1.1-1.7-2.7-1.8c0,0,2.5,1.7,1.8,2.5c0,0-1,0.6-2,0.7c0,0,0,0.4-0.6,0.6
		c0,0-0.9,1.5-0.8,1.7c0,0,0.4,1.5-2.2,1.5c0,0-0.8,1.6-3.8,1.7c0,0-3.6-0.3-3.9-1.4c0,0-2,0.6-3.5,0.2C76.8,60.5,76.4,60.9,75,60.4
		"/>
	<polygon class="st10" points="58.2,62 61.9,62.9 67,65.6 67.6,67.9 66.6,75 68.4,68.1 67.5,65.1 66.3,64.1 65.9,64.1 62.3,62.4 	
		"/>
	<polygon class="st10" points="65.7,62.6 67.2,62 66.8,59.9 67.4,60 67.5,61 67.7,61.9 67.6,62.2 	"/>
	<polygon class="st10" points="74.8,60.6 73,63.6 74.6,63.6 75.5,63.7 76.1,63.4 77.2,62.5 78,61.8 77.9,61.8 76.7,62.6 75.3,63.3 
		74.2,63.3 73.8,63.2 73.8,63.2 73.8,63.1 	"/>
	<polyline class="st10" points="73.2,63.3 71.2,65.9 70.8,68.4 71.8,66 73,64.5 73.9,63.5 	"/>
	<path class="st5" d="M58.1,96.8l-8.6-22.2c0,0,5.6,0.8,6,5.4c0,0,2.2-2.6,4.4-1.2c2.2,1.4,1.2,5.3-0.8,6.5c0,0-0.4-2.4-1.6-1.8
		c-1.2,0.6-0.6,5.1,2.6,5.1c3.2,0,3.4-2.8,3.4-2.8s1.2,2.4,3.6,2.4c2.4,0,2.4-2.2,2.4-4c0-1.8-0.6-2.8-1.6-2.8c-1,0-1.6,1.4-1,2.6
		c0,0-4.1-0.4-3-4.6c0,0,1.2-3.4,4.4-1.2c0,0-1-3.6,2.6-6.1c0,0,4,2.8,2.8,6.3c0,0,3-2.3,4.4,0.7c1.5,3.2-2.5,4.7-2.5,4.7
		s0.6-2.7-1.1-2.7c-1.2,0-1.4,2-1.4,3.2c0,1.2,0.6,3.4,2.2,3.6c2.5,0.3,3.6-2,3.6-2s0.3,2.5,2.2,2.9c1.8,0.4,4.2-1.3,4.4-3.3
		c0.2-2-2.3-4.8-3.6-1c0,0-2.2-4.3,0.4-6.1c2.6-1.8,4.8,1.4,4.8,1.4s0.2-5.5,5.4-5l-8.2,22c0,0-6-2-13.2-2
		C63.9,95,58.1,96.8,58.1,96.8"/>
	<g>
		<path class="st3" d="M36.1,23.9c1,3.3,2.4,8.5,3.5,11.8c-0.4,0.2-0.7,0.4-1.1,0.6c-0.3,0.2-0.6,0.6-0.9,0.8
			c-3.3-2.8-12.6-9.8-13.5-10.4c0.6-0.4,1.2-0.7,1.7-1.1c0.5-0.4,1-0.8,1.5-1.2c3.2,2.7,6.9,5.7,9.6,7.9l0,0
			c-1.2-4.1-2.9-9.9-3.7-12.1c0.4-0.2,0.7-0.4,1-0.6c0.3-0.2,0.6-0.5,0.9-0.8c1.6,1.5,7.6,5.4,10.1,7.5l0,0
			c-1.3-3.9-3.4-10-4.1-11.8c0.3-0.1,0.6-0.3,0.9-0.5c0.3-0.2,0.6-0.5,0.8-0.7c0.5,1.9,3.3,11.3,5.2,16.5c-0.4,0.2-0.7,0.4-1.1,0.6
			c-0.3,0.2-0.6,0.6-0.9,0.8C42.9,28.5,39.6,26.2,36.1,23.9L36.1,23.9z"/>
		<path class="st3" d="M52,17.6c-0.8-2.5-1.4-4.3-2.1-6.2c0.5-0.1,1.2-0.2,1.9-0.5c0.8-0.2,1.4-0.5,1.8-0.7c0.5,2,1,3.8,1.8,6.3
			l1,3.1c0.8,2.5,1.4,4.3,2.1,6.2c-0.5,0.1-1.2,0.2-1.9,0.5c-0.8,0.2-1.4,0.5-1.8,0.7c-0.5-2-1-3.8-1.8-6.3L52,17.6z"/>
		<path class="st3" d="M75,11.2c-1.1-1.4-2.6-2.3-4.8-2.2c-3,0.1-6,2.7-5.8,7.7c0.1,3.8,2.4,6.5,6.1,6.4c0.8,0,2.2-0.3,2.6-0.5
			c0.1-0.4,0-1,0-1.7c-0.1-2.6-0.3-3.6-0.3-4.1c0.3,0,0.8,0.1,1.8,0.1c1.2,0,1.6-0.1,1.9-0.2c-0.1,0.5-0.1,2.5,0,4
			c0,1,0.1,2.3,0.2,2.6c-2.1,0.7-4.3,1.2-6.4,1.3c-5.5,0.2-9.6-2.7-9.8-7.6c-0.2-6,4-9.2,9.6-9.4c2.4-0.1,4.1,0.4,5.8,1.2
			c-0.2,0.8-0.5,1.6-0.6,2.4L75,11.2z"/>
		<path class="st3" d="M92.7,28.9c-0.7-0.3-1.3-0.6-2-0.8c-0.6-0.2-1.3-0.4-2-0.5c0-1.7,0-3.4-0.1-5.1c-1-0.3-1.9-0.7-2.9-1
			c-0.8-0.3-1.6-0.5-2.4-0.7c-1.1,1.3-2.1,2.7-3,4.1c-0.4-0.2-0.7-0.3-1-0.5c-0.4-0.1-0.7-0.2-1.2-0.3C80,22,86,15.1,89.6,10.6
			c0.3,0.1,0.5,0.3,0.8,0.4c0.3,0.1,0.6,0.1,0.9,0.2C91.7,16.9,92.1,24.6,92.7,28.9z M88.5,21c-0.1-2-0.2-4-0.3-6
			c-1.3,1.5-2.6,3.1-3.9,4.7L88.5,21z"/>
		<path class="st3" d="M104.4,17c0.2,0.3,0.5,0.5,0.8,0.8c0.3,0.2,0.6,0.4,0.9,0.6c0.4,5.1,0.8,10.2,1.3,15.3c2.3-3,6.3-8.1,6.8-9
			c0.2,0.3,0.5,0.5,0.8,0.8c0.3,0.2,0.6,0.4,0.9,0.6c-4.5,5.2-6.5,7.7-10.4,12.7c-0.2-0.3-0.4-0.5-0.7-0.7c-0.3-0.2-0.5-0.4-0.8-0.5
			c-0.2-5.1-0.6-10.2-1.2-15.6c-1.1,1.4-2.3,2.9-3.4,4.3c-2.3,3-3.1,4.1-3.6,4.8c-0.3-0.3-0.5-0.6-0.8-0.8c-0.3-0.2-0.6-0.4-0.9-0.6
			c0.5-0.5,4.6-5.1,7.5-8.9C102.9,19.1,103.8,17.9,104.4,17z"/>
	</g>
	<g>
		<path class="st3" d="M30.9,118.1c-0.4-0.5-0.8-1-1.2-1.4c-0.4-0.4-0.9-0.8-1.3-1.2c0.7-1.3,1.5-2.6,2.2-3.9
			c-0.6-0.7-1.2-1.3-1.8-2c-0.5-0.5-1-1-1.5-1.6c-1.4,0.5-2.8,1.2-4.1,1.9c-0.2-0.3-0.4-0.5-0.6-0.8c-0.2-0.2-0.5-0.4-0.8-0.7
			c2.4-0.8,9.9-3.6,14.6-5.5c0.2,0.2,0.3,0.5,0.5,0.7c0.2,0.2,0.4,0.3,0.6,0.5C35.3,108.6,32.3,114.6,30.9,118.1 M31.2,110.3
			c0.8-1.6,1.6-3.1,2.4-4.7c-1.7,0.6-3.3,1.2-5,1.9L31.2,110.3z"/>
		<path class="st3" d="M42,112.5c0.4-0.7,0.9-1.3,1-1.5c-0.7-0.5-2.2-1.3-3.3-1.9c0.2-0.2,0.4-0.4,0.6-0.7c0.2-0.3,0.3-0.5,0.4-0.8
			c1.5,1.1,2.3,1.7,4.4,3.1c2.1,1.4,2.9,1.9,4.4,2.9c-0.2,0.2-0.4,0.4-0.6,0.7c-0.2,0.3-0.3,0.5-0.4,0.8c-0.9-0.8-2.2-1.8-2.9-2.3
			c-0.2,0.2-0.6,0.8-1.1,1.5l-2.9,4.3c-1.3,1.9-2.2,3.3-3.1,4.9c-0.4-0.3-0.8-0.7-1.4-1c-0.6-0.4-1.1-0.6-1.5-0.9
			c1.1-1.4,2.1-2.8,3.4-4.7L42,112.5z"/>
		<path class="st3" d="M56.9,124.1c-1-0.4-2-0.7-3-1.1c-1-0.3-2-0.6-3-0.9l-0.4,1.1c-0.7,2.2-1.2,3.7-1.7,5.5
			c-0.4-0.2-0.9-0.4-1.6-0.6c-0.7-0.2-1.2-0.3-1.6-0.4c0.7-1.7,1.3-3.2,2-5.4l0.9-2.7c0.7-2.2,1.2-3.7,1.7-5.5
			c0.4,0.2,0.9,0.4,1.6,0.6c0.6,0.2,1.2,0.3,1.6,0.4c-0.7,1.7-1.2,3.2-2,5.4c0.7,0.2,1.6,0.6,3,1.1c1.4,0.5,2.2,0.7,3,1
			c0.7-2.2,1.2-3.7,1.7-5.5c0.4,0.2,0.9,0.4,1.6,0.6c0.7,0.2,1.2,0.3,1.6,0.4c-0.7,1.7-1.3,3.2-2,5.4l-0.9,2.7
			c-0.7,2.2-1.2,3.7-1.7,5.5c-0.4-0.2-0.9-0.4-1.6-0.6c-0.6-0.2-1.2-0.3-1.6-0.4c0.7-1.7,1.3-3.2,2-5.4L56.9,124.1z"/>
		<path class="st3" d="M64.4,123.9c0.2-2.3,0.2-3.9,0.2-5.8c0.5,0.1,1,0.2,1.7,0.2c0.7,0,1.2,0,1.7,0c-0.2,1.8-0.4,3.4-0.5,5.7
			l-0.2,2.8c-0.1,1.5-0.2,3.1-0.2,4.2c1.6,0.1,3.2,0.1,4.8,0c-0.1,0.3-0.1,0.5-0.1,0.9c0,0.4,0,0.6,0,0.9c-0.7-0.1-1.7-0.2-3.6-0.3
			c-3.4-0.2-3.9-0.2-4.4-0.2c0.2-1.8,0.4-3.4,0.5-5.7L64.4,123.9z"/>
		<path class="st3" d="M75.3,124.2c-0.3-2.3-0.6-3.9-1-5.7c1.2-0.2,2.5-0.3,3.7-0.4c2-0.3,3.7-0.6,4.3-0.7c0,0.3,0,0.5,0,0.9
			c0.1,0.4,0.1,0.6,0.2,0.9c-1.6,0.1-4.1,0.3-4.7,0.4c0.1,1.5,0.3,3,0.6,4.5c1.8-0.3,3.1-0.5,4.6-0.8c0,0.5,0,0.7,0,0.9
			c0,0.2,0.1,0.4,0.2,0.8c-1.6,0.1-3.1,0.3-4.7,0.5c0.1,0.9,0.2,1.8,0.4,2.6c0.1,0.9,0.3,1.7,0.4,2.6c1.5-0.2,3.1-0.5,4.7-1
			c0,0.3,0,0.5,0.1,0.9c0.1,0.4,0.1,0.6,0.2,0.9c-0.7,0.1-1.7,0.1-3.6,0.4c-3.4,0.5-3.9,0.6-4.3,0.7c-0.1-1.8-0.3-3.4-0.7-5.7
			L75.3,124.2z"/>
		<path class="st3" d="M87.7,119.1c-0.3-0.7-0.6-1.4-0.7-1.7c-0.8,0.3-2.3,1-3.5,1.6c-0.1-0.3-0.1-0.6-0.2-0.9
			c-0.1-0.3-0.3-0.5-0.4-0.8c1.8-0.6,2.7-0.9,5.1-1.8c2.4-0.9,3.3-1.3,4.9-2c0.1,0.3,0.1,0.6,0.2,0.9c0.1,0.3,0.3,0.5,0.4,0.8
			c-1.1,0.3-2.8,0.8-3.5,1.1c0.1,0.3,0.3,1,0.6,1.7l1.9,4.8c0.8,2.2,1.4,3.7,2.2,5.3c-0.4,0.1-1,0.3-1.6,0.5
			c-0.6,0.2-1.1,0.5-1.6,0.7c-0.5-1.8-1.1-3.3-1.9-5.4L87.7,119.1z"/>
		<path class="st3" d="M97.7,117c-1.2-2-2.1-3.3-3.2-4.8c0.4-0.2,0.9-0.5,1.5-0.8c0.6-0.4,1-0.7,1.4-1c0.9,1.6,1.7,3,2.9,5l1.5,2.4
			c1.2,2,2.1,3.3,3.2,4.8c-0.4,0.2-0.9,0.5-1.5,0.8c-0.6,0.4-1,0.7-1.4,1c-0.9-1.6-1.7-3-2.9-5L97.7,117z"/>
		<path class="st3" d="M116.4,109.5c0.2,0.6,0.5,1.1,0.9,1.6c-0.4,1.2-1.2,2.4-2.4,3.6c-3.5,3.4-7.6,3.2-10.3,0.4
			c-4-4.1-2.8-8.4,0.4-11.4c1-1,2.7-2,3.7-2.2c0.3,0.7,0.7,1.3,1.1,1.9l-0.2,0.2c-1.6-0.2-2.8,0.1-3.9,1.2c-1.6,1.6-2,4.7,1,7.8
			c3,3.1,6,2.5,7.7,0.8c1-0.9,1.6-2.4,1.6-3.7L116.4,109.5z"/>
	</g>
	<g>
		<path class="st4" d="M16.9,63.3c0,0-2.6-0.3-3.5,0.6c-0.8,0.7-1.9,2.4-2,4.8c-0.1,2.2,0.2,3.1,0.4,3.5c0.2,0.4,0.7,0.3,1.1,0.2
			c0.4-0.1,1.6-0.8,1.8-1.1c0.3-0.4,0.4-0.6,0.3-1.2c-0.2-1.4,0.3-4.8,1.9-6.2C16.8,63.9,17.1,63.4,16.9,63.3"/>
		<path class="st4" d="M12,64.1c-4.5,2.9-4,7.4-3.7,8.6c0.3,1.2,1.7,0.9,2.2,0.7c0.4-0.2,0.5-0.6,0.3-1.1c-0.2-0.4-0.6-1.6-0.4-3.8
			c0.2-2.5,1.7-4.3,1.7-4.3S12.2,64,12,64.1"/>
		<path class="st4" d="M8.8,74.2c0,0,2.4,1.4,6.6-2.2c0,0,0.4-0.4,1-0.1c0.6,0.3,1.4,0.6,1.7,1.2c0.4,0.6,0.1,1.1-0.4,1.4
			C17.3,74.8,10.7,79.2,8.8,74.2"/>
		<path class="st5" d="M11.5,77.2c0,0,3,1.1,7.4-2.5c0,0,0.4-0.5,0.9-0.3c0.6,0.3,1.1,1.1,1.1,1.1s0.4,0.5-0.1,1
			C20.4,76.8,16.8,80.6,11.5,77.2"/>
		<path class="st5" d="M21.7,75.5c0,0,0.3-2.1-5-4.6c0,0-0.9-0.2-0.9-1c0-0.7,0.2-1.4,0.3-1.8c0.1-0.4,0.6-0.9,1.3-0.6
			c0.7,0.3,3.1,1.1,4.6,3C23.3,72.2,23.2,74.1,21.7,75.5"/>
		<path class="st5" d="M23.3,71.5c0,0-0.5-3.1-5.2-4.7c0,0-1.3-0.2-1-1.2c0.3-0.9,0.5-1.2,0.7-1.5c0.2-0.3,0.6-0.4,1.4,0.1
			C20,64.6,23.5,67,23.3,71.5"/>
	</g>
	<g>
		<path class="st5" d="M62.7,99.6c-0.3,0.9-0.8,2.2-1.1,3.3l-0.2,0.7c-0.3,1.2-0.6,2-1,3.5c-0.3-0.1-0.6-0.2-0.9-0.3
			c-0.3-0.1-0.6-0.1-0.9-0.2c0.2-0.6,0.7-1.8,1-3l0.9-3.1c-0.2,0-1,0.2-1.5,0.2c-0.1-0.3-0.3-0.6-0.4-0.8c1.3-0.1,2.4-0.2,3.7-0.5
			L62.7,99.6z"/>
		<path class="st5" d="M64.6,107.2c0.2,0.2,0.5,0.5,1,0.5c0.9,0.1,2-0.8,2.3-3l0,0c-0.3,0.3-0.7,0.6-1.6,0.5c-1.2-0.1-2.1-1-2-2.4
			c0.2-1.5,1.3-2.5,2.9-2.3c1.7,0.2,2.7,1.4,2.5,3.5c-0.3,2.9-2,4.5-4.1,4.3c-0.3,0-0.7-0.1-0.9-0.3
			C64.7,107.7,64.6,107.5,64.6,107.2L64.6,107.2z M67.3,101c-0.6-0.1-1,0.6-1.2,1.7c-0.1,1.3,0.2,1.8,0.8,1.9c0.5,0.1,1-0.4,1.1-1.6
			C68.3,101.6,67.9,101,67.3,101z"/>
		<path class="st5" d="M72.5,104.1c0.1,0,0.2,0,0.3,0c0.9-0.1,1.3-0.7,1.2-1.7c-0.1-1-0.6-1.4-1.1-1.4c-0.7,0.1-1,0.7-1,1.5l-0.2,0
			c-0.2-0.2-0.6-0.5-0.8-0.7c0.4-0.7,0.9-1.2,2.2-1.3c1.8-0.1,2.5,0.6,2.6,1.6c0.1,0.9-0.5,1.5-1.5,1.9l0,0.1c1.3,0.1,2,0.4,2.1,1.8
			c0.1,1.4-1.3,2.4-2.7,2.5c-1.3,0.1-2-0.3-2.4-0.7c0.2-0.4,0.5-0.7,0.6-1.1l0.2,0c0.2,0.7,0.6,1.3,1.4,1.2c0.7-0.1,1.3-0.8,1.2-1.8
			c-0.1-1-0.6-1.6-1.5-1.6c-0.2,0-0.3,0-0.5,0.1L72.5,104.1z"/>
		<path class="st5" d="M78.4,107.3c1.8-2.7,2.3-4.3,1.9-5.8c-0.3-1.2-1-1.5-1.6-1.3c-0.8,0.2-0.8,1.3-0.6,1.9l-0.1,0.1
			c-0.4-0.2-0.7-0.3-1.1-0.5c0.1-0.9,0.6-1.7,2-2c2.1-0.6,2.9,0.4,3.1,1.2c0.3,1-0.1,2.2-2.1,5.1l0,0c1.1-0.3,2.1-0.6,3.2-0.9
			c0.1,0.2,0.1,0.5,0.1,0.7c0.1,0.2,0.2,0.5,0.2,0.7c-0.9,0.2-1.7,0.4-2.5,0.6c-0.8,0.2-1.6,0.5-2.4,0.7L78.4,107.3z"/>
	</g>
</g>
</svg>
