<svg version="1.1" id="Layer_1" xmlns="http://www.w3.org/2000/svg" x="0" y="0" viewBox="0 0 112.4 145.4" style="enable-background:new 0 0 112.4 145.4" xml:space="preserve"><style>.st1{fill:#fdb927}.st2{fill:#003263}.st4{fill:#fdb927;stroke:#003263;stroke-width:.9023}.st6{fill:#003263;stroke:#fdb927;stroke-width:.3609}</style><g id="Layer_1_1_"><path d="M56.2 144.5c55.5-41.3 55.5-94.2 55.5-94.2V.7H.7v49.6s0 52.9 55.5 94.2z" style="fill:#003263;stroke:#fff;stroke-width:1.4438"/><path class="st1" d="M43.4 27.8s-2.2-.3-2.6 1.6c0 0 .5 1.4 2.3 2.2 0 0 1.3 2.7 2.1 3.7.7.9 1.5 2.4.9 6 0 0-.9 1.9.7 1.8 1.6-.1 1.2.2 1.3 1.7s-.4 1.9.8 2.4c1.1.5 2.8.5 2.1 3.3s-1.3 4.3-1.2 6.9c.1 2.5-.5 1.6-1-.2-.4-1.7-2.5-8.2-2.7-8.8-.3-.7-1.9-4.1-6.1-7.7-4.2-3.6-7.3-7.2-8.2-9.5-.8-2.4-1.9-7-3.5-2.9 0 0-.4 3.9.5 6.6 1 2.6-1.1.2-1.5-.5s-2-9.1-3.8-5.4c0 0-1.7 4.1 1.1 8.7s-.7 2-.7 2-2.7-2.3-1.8 2c0 0 .8 2.2 2 3.4 1.1 1.2 1.7 1.6-.1 2.3-1.8.7-2.2 2.2-1.1 2.9 1.1.8 5.1 1.8 1.6 2.9-3.5 1.1-.7 2.6-.7 2.6s2 .8 0 2.1 1 1.9 1 1.9 2.2.4-.1 2.1c-2.3 1.7-.9 2.7.4 3s2 .3 1.4 1.8-2.4 3.9 1 3.2c0 0 1.7-1.7 1.1.8s.9 2.9 2.2 1.6c1.3-1.3.6-.4.9.9.3 1.3 2 .9 2.8.1.8-.8 2.8-2.2 1.6.4-1.2 2.5 2 1.1 2.6.3s2.4-3.3 2.2-1.1c-.2 2.3 2.2-.3 2.9-.7s2-1.9 2-1.9-.3 1.4-.5 2c-.1.5.2 3.8 2.4.2l2.4-3.5s1.3 2.2.6 3.6c-.7 1.4-2.2 3.3-2.1 4.2.1.9-.1 1.9-.9 2.7-.8.8-1.3.9-.7 1.4.7.6.4.4.5 1s.5 3.8.5 3.8 0 .9.7.8c.7-.1.4-.4 1.2-1.2.8-.9 1.4-1.4 1.6-1.5.3-.2.5-.2.7-.1.2 0 .8 0 .9-1.2.1-1.2.1-2.3.6-2.4.5-.1.9 0 .9.7s0 1.5-.1 2.6-.3 1.9-.5 2.5c-.3.6-1.5 2.2-2.7 2.7s-2.8 1.7-2.9 3c0 0-.4 1.9-.3 2.2l1.8-.1c1.9-.4 3.2-1.3 3.4-1.5.3-.2 1.2-.9 1 .3s-1.1 2.1-2 2.8c-.8.7-2.3 2.6-3.8 2.8s-3.2.2-5.5.4c0 0 .2.7 1.4 1.7 1.1 1 1 2.9 1 2.9s-.4 6.2 2.5 3.4c0 0 2.2-1.5 2.9-2s1.7-1 2.3-2.6c.5-1.6 1.3-2.6 1.2-.3s-.7 3.1-.8 3.7c-.2.6-.9 2.9.1 4.2s1.5 3.3 2 3.7.9 1 .9 1 1.8-1 2.3-2.1 2.2-2.9 2-4.3c-.2-1.3.1-1.3-1.2-3.1 0 0-.2-1.7.1-3.1.3-1.3.3-2.2 1-.8s.7 2.1 2.8 3.6 2.7 4.1 3.8 1.2c1-2.9 1.1-4.2 3-5.7 1.9-1.4 1.3-2.3-.5-2.4-1.8-.1-5 .2-5.7-.2-.8-.3-4.4-3-4.7-4.3-.4-1.3.1-1.5 1-.7s3.6 2.4 5 2.1c1.4-.2 1.1-.2 1.1-.2s-.3-3.1-1.5-4.2c0 0-5.4-2.8-5.8-5.5-.4-2.6 0-3.9 0-3.9s.8-1.7 1 .2c.3 1.9.3 2.7 1 2.6.8-.1 1.1.4 1.6 1s1.3 1.7 1.7 1.7 1-.2 1-2-.2-3.2 1-3.4 0-1.2-.2-1.4-1.7-1.4-1.8-2.3c-.1-.9 0-1.4-1.3-2.2s-.8-3.5-.8-4.1c-.1-.6.1-3.6 1.3-.2s3.8 2.6 3.1.2c0 0-.1-4.2 1.5-.4 0 0 .7 2.4 2.5 3.2 1.7.8 2.7 1.6 2.3-1.1-.5-2.6-.4-2.6.9-.3 1.3 2.3 5.3 4.4 3.9 1.4 0 0-.8-4 1.5-.5 0 0 4 2.3 2.3-.8 0 0-.7-2.7 1.6-.6s4.8 1.2 2.7-.9c0 0-.5-2.1 1.1-1.1 0 0 2.7.8 1.2-2.2-1.5-2.9.4-2.4.4-2.4s2.5-.4.4-2.5-1.2-2.7-.4-3.1c.8-.3 1.9-.8.2-2.1s-.2-1.5.2-1.8 1.6-1.7-.6-2.4c-2.2-.8-1.4-1.4-.3-1.8 1.1-.5 4.4-1.8.8-3.4 0 0-4.3.8-1.9-1.9 2.3-2.7 4.7-5.7 2.9-6.7 0 0-1-.9-2.7 1.1 0 0-2.1 1.3.7-1.9 2.8-3.1 2.8-6.8 2.4-8.5-.5-1.7-1.6-4.4-2.8-.9s-3.3 6.6-3.3 6.6.9-2.1.7-5.1c-.2-2.9-2-6.3-3.4-1.1 0 0-1.7 3.8-3 4.7-1.3 1-9 7.4-10.3 10.9-1.4 3.4-3.6 13.1-5.5 14.3 0 0 0-.5.7-2.6.7-2.2-.3-5.9-.4-7.5-.1-1.6.3-2.4 1.5-2.8 1.1-.4.3-1.6.3-2.6s.4-1.9 1.7-1.6c1.3.2.7-1.7.3-2.9s.1-4.3 1.9-5.8c0 0 1.5-2.7 2.3-2.9s1.4-2.9-.7-3.4c-2.1-.5-2.6-.2-3.4 0-.8.2-2.3.9-4.1-.1s-1.1 1.3-1.1 1.3.8 1.7-1.2 2.9-1.1 2.8-1.1 2.8.7 1.2-1.1 2.9 0 2.3 0 2.7.1 2.9-1.5 4.1c0 0-2 .3-1.2-3.9 0 0 .6-1.2-1-2.7 0 0-1.5-1-.7-3.3 0 0 .4-2.1-2-3.4 0 0-1.4-.8-.3-2.6 1.1-1.8-.1-2-.9-1.6-1.3 1.1-2.5 2.2-7.4 1.4z"/><path class="st1" d="M71.9 31.6s.1-2 2.4-2.1c2.3-.1 2.6 1.4 2.6 1.4s-3.8 2.5-5 .7zM69.8 36.3s-1.5-1-1.8 0c0 0-.1 1.6 1.6 1.6 1.6 0 2.7-.3 2.8-.9.1-.6-.9-.3-1.3-.3-.6 0-1.1-.3-1.3-.4zM40.5 31.6s-.1-2-2.4-2.1c-2.3-.1-2.6 1.4-2.6 1.4s3.9 2.5 5 .7zM42.6 36.3s1.5-1 1.8 0c0 0 .1 1.6-1.6 1.6-1.6 0-2.7-.3-2.8-.9-.1-.6.9-.3 1.3-.3.6 0 1.1-.3 1.3-.4zM68.4 84.5c0 .1.6.8.3 1.5-.2.7-2.5 2.1-2.3 4s.7 2.4 2.2 3.4c0 0 1-.5.5-3.6 0 0 0-3 1.4-2.7 0 0 1.2.2 1.3 1.2s-.1 2.7.1 3.4c.2.7.8 2.6 2.3 2.7 0 0 .7-.3.3-2.3s-.8-3-.3-3.8 1.1-1.4 1.9-.4c.8 1 .9 2.9 2.7 2.7 0 0 1.3-1.2-.7-2.8 0 0-2.4-.5-3.3-1.2-.9-.6-1.4-.7-1.3-1.7.1-1-.1-1.4 1.5-1.5s4.5.2 4.6-.2c0 0-.9-2-2.8-1.7-2 .3-3.8 1.5-5.6 1.8l-4-.5 1.2 1.7zM44 84.5c0 .1-.6.8-.3 1.5.2.7 2.5 2.1 2.3 4s-.7 2.4-2.2 3.4c0 0-1-.5-.5-3.6 0 0 0-3-1.4-2.7 0 0-1.2.2-1.3 1.2s.1 2.7-.1 3.4c-.2.7-.8 2.6-2.3 2.7 0 0-.7-.3-.3-2.3s.8-3 .3-3.8-1.1-1.4-1.9-.4c-.8 1-.9 2.9-2.7 2.7 0 0-1.3-1.2.7-2.8 0 0 2.4-.5 3.3-1.2.9-.6 1.4-.7 1.3-1.7-.1-1 .1-1.4-1.5-1.5s-4.5.2-4.6-.2c0 0 .9-2 2.8-1.7 2 .3 3.8 1.5 5.6 1.8l4-.5-1.2 1.7z"/><path class="st2" d="M35.7 52.4s1.1-.6 2.6 0c.3.1.6 0 .7-.3.1-.3 0-.6-.3-.7-2.1-.8-3.5 0-3.6 0-.3.2-.3.5-.2.7.2.4.6.5.8.3zM40.9 54.2s.9.8.8 2.5c0 .3.2.6.5.6s.6-.2.6-.5c.1-2.2-1.1-3.3-1.1-3.4-.2-.2-.6-.2-.8 0-.2.3-.2.6 0 .8zM32.4 56.8s-.2-1.2.8-2.5c.2-.2.2-.6-.1-.8-.2-.2-.6-.2-.8.1-1.4 1.7-1.1 3.3-1.1 3.4.1.3.4.5.6.4.5 0 .6-.3.6-.6zM35.5 61.3s-1.2-.2-2.1-1.6c-.2-.3-.5-.3-.7-.2-.3.2-.3.5-.2.7 1.2 1.9 2.8 2.1 2.9 2.1.3 0 .6-.2.6-.5 0-.2-.2-.4-.5-.5zM40.8 59.8s-.5 1.1-2.1 1.5c-.3.1-.5.4-.4.7s.4.5.7.4c2.1-.6 2.8-2.1 2.9-2.1.1-.3 0-.6-.3-.7-.4-.2-.7-.1-.8.2z"/><path class="st2" d="m45.7 58.2-2.5-7.5-.4-1.9-1.9.3v.1h-7.8v-.1l-1.9-.3-.4 1.9-2.4 7.5-.8 1.8 1.6.8 6.6 4.8 1.3 1.2 1.3-1.2 6.6-4.8 1.6-.9-.9-1.7zm-2.8-5.6c-.3-.4-.7-.8-1-1.1l.6-.3.4 1.4zm-11.8 6.8 4.2-1.4c.3.4.6.6 1 .8v4.5c-2.2-.2-4.2-1.7-5.2-3.9zm-.5-2.5c0-1.9.8-3.7 2.2-4.8l2.6 3.6c-.2.3-.4.7-.4 1.2l-4.3 1.4c0-.5-.1-.9-.1-1.4zm7.1-1.9c-.2-.1-.4-.1-.6-.1s-.4 0-.6.1l-2.6-3.6c1-.6 2.1-.9 3.2-.9 1.2 0 2.3.3 3.2.9L37.7 55zm.5 1.9c0 .6-.5 1.1-1.1 1.1s-1.1-.5-1.1-1.1.5-1.1 1.1-1.1c.6 0 1.1.5 1.1 1.1zm-.5 1.9c.4-.1.8-.4 1-.8l4.2 1.4c-.9 2.1-2.9 3.6-5.3 3.9l.1-4.5zm1.4-1.9c0-.4-.2-.8-.4-1.2l2.6-3.6c1.3 1.2 2.2 2.9 2.2 4.8 0 .5 0 .9-.1 1.3l-4.3-1.3zm1.6-6.2c-.4-.3-.9-.5-1.4-.6h1.5l-.1.6zm-5.9-.6c-.5.2-.9.4-1.4.6l-.1-.6h1.5zm-2.5 1.4c-.4.3-.7.7-1 1.1l.5-1.5.5.4zm-2.4 5.4c0 .5.1 1 .2 1.5l-.6-.1.4-1.4zm.6 2.9c.2.5.5.9.8 1.3l-1.2-.9.4-.4zm4.4 4c.5.1 1 .3 1.5.3l-.3.6-1.2-.9zm3.2.8-.3-.6 1.5-.3-1.2.9zm4.8-3.5c.3-.4.6-.9.8-1.3l.5.4-1.3.9zm1.2-2.7c.1-.5.2-1 .2-1.5l.4 1.4-.6.1zm-7.9 6.8.9-.9.9.9-.9.9-.9-.9zm-7.3-6.5 1.1.6-.6 1.1-1.1-.6.6-1.1zm15.9 1.5-.6-1.1 1.1-.6.6 1.1-1.1.6zm-2.2-9.6-1.2.2-.2-1.2 1.3-.2.1 1.2zm-9.8-1-.2 1.2-1.2-.2.2-1.3 1.2.3z"/><path style="fill:none;stroke:#003263;stroke-width:.9023" d="M83.8 62.7 73.3 47.8l-2 2.8 10.5 15z"/><path class="st4" d="m73.3 66.3 10.6-15.2-2.4-2.8-10.6 15.1z"/><path class="st4" d="m77.5 67.8-7.4-10.6 7.4-10.6 7.4 10.6-7.4 10.6zm5.8-10.5L77.5 49l-5.8 8.3 5.8 8.3 5.8-8.3z"/><circle class="st2" cx="44.5" cy="30.8" r=".6"/><circle class="st2" cx="67.8" cy="31.2" r=".6"/><path d="M18.7 57.3V23.7h75v33.5s0 35.8-37.5 63.7C18.7 93 18.7 57.3 18.7 57.3zm37.5 77.8c48.3-36 48.3-82 48.3-82V9.9H7.9V53c0 .1 0 46.1 48.3 82.1z" style="fill:#fdb927;stroke:#fdb927;stroke-width:.9023"/></g><g id="sqares"><path class="st6" d="M7.9 48.4v4.7s0 4.3 1.4 11.4l10-1.2c-.6-3.8-.6-6-.6-6v-8.8H7.9v-.1zM19.7 93.4c-2.5-4.7-4.5-9.2-6-13.4l8.8-3.5c1.4 3.9 3.2 8.3 5.6 12.8l-8.4 4.1zM37.9 118.7c-3.7-4-7-8-9.9-12l7.8-5.7c2.7 3.5 5.7 7 9.2 10.5l-7.1 7.2zM74.4 118.8c-5.1 5.5-11.2 11-18.2 16.3V121c4.1-3 7.7-6.1 10.9-9.3l7.3 7.1zM84.8 106.1c2.9-4.1 5.4-8.2 7.6-12.2L84.3 89c-1.9 3.5-4.2 7.2-6.9 10.9l7.4 6.2zM98.8 79.8c2-5.3 3.3-10.2 4.1-14.2l-9.6-3.1c-.5 3.3-1.4 8-3.3 13.5l8.8 3.8zM104.5 48.8V35.1l-10.8.1V49zM104.5 9.9h-21v13.8h10.2zM56.2 9.9h13.9v13.8H56.2zM29.7 9.9h13.2v13.8H29.7zM7.9 35.1V9.9l10.8 13.8v11.4z"/></g></svg>