<?xml version="1.0" encoding="utf-8"?>
<!-- Generator: Adobe Illustrator 19.2.1, SVG Export Plug-In . SVG Version: 6.00 Build 0)  -->
<!DOCTYPE svg PUBLIC "-//W3C//DTD SVG 1.1//EN" "http://www.w3.org/Graphics/SVG/1.1/DTD/svg11.dtd">
<svg version="1.1" id="Layer_1" xmlns="http://www.w3.org/2000/svg" xmlns:xlink="http://www.w3.org/1999/xlink" x="0px" y="0px"
	 viewBox="0 0 112.4 145.4" style="enable-background:new 0 0 112.4 145.4;" xml:space="preserve">
<style type="text/css">
	.st0{fill:#003263;stroke:#FFFFFF;stroke-width:1.4438;}
	.st1{fill:#FDB927;}
	.st2{fill:#003263;}
	.st3{fill:none;stroke:#003263;stroke-width:0.9023;}
	.st4{fill:#FDB927;stroke:#003263;stroke-width:0.9023;}
	.st5{fill:#FDB927;stroke:#FDB927;stroke-width:0.9023;}
	.st6{fill:#003263;stroke:#FDB927;stroke-width:0.3609;}
</style>
<g id="Layer_1_1_">
	<path class="st0" d="M56.2,144.5c55.5-41.3,55.5-94.2,55.5-94.2V0.7H56.2H0.7v49.6C0.7,50.3,0.7,103.2,56.2,144.5z"/>
	<path class="st1" d="M43.4,27.8c0,0-2.2-0.3-2.6,1.6c0,0,0.5,1.4,2.3,2.2c0,0,1.3,2.7,2.1,3.7c0.7,0.9,1.5,2.4,0.9,6
		c0,0-0.9,1.9,0.7,1.8c1.6-0.1,1.2,0.2,1.3,1.7s-0.4,1.9,0.8,2.4c1.1,0.5,2.8,0.5,2.1,3.3s-1.3,4.3-1.2,6.9c0.1,2.5-0.5,1.6-1-0.2
		c-0.4-1.7-2.5-8.2-2.7-8.8c-0.3-0.7-1.9-4.1-6.1-7.7c-4.2-3.6-7.3-7.2-8.2-9.5c-0.8-2.4-1.9-7-3.5-2.9c0,0-0.4,3.9,0.5,6.6
		c1,2.6-1.1,0.2-1.5-0.5s-2-9.1-3.8-5.4c0,0-1.7,4.1,1.1,8.7c2.8,4.6-0.7,2-0.7,2s-2.7-2.3-1.8,2c0,0,0.8,2.2,2,3.4
		c1.1,1.2,1.7,1.6-0.1,2.3c-1.8,0.7-2.2,2.2-1.1,2.9c1.1,0.8,5.1,1.8,1.6,2.9c-3.5,1.1-0.7,2.6-0.7,2.6s2,0.8,0,2.1s1,1.9,1,1.9
		s2.2,0.4-0.1,2.1c-2.3,1.7-0.9,2.7,0.4,3s2,0.3,1.4,1.8s-2.4,3.9,1,3.2c0,0,1.7-1.7,1.1,0.8s0.9,2.9,2.2,1.6
		c1.3-1.3,0.6-0.4,0.9,0.9c0.3,1.3,2,0.9,2.8,0.1c0.8-0.8,2.8-2.2,1.6,0.4c-1.2,2.5,2,1.1,2.6,0.3s2.4-3.3,2.2-1.1
		c-0.2,2.3,2.2-0.3,2.9-0.7s2-1.9,2-1.9s-0.3,1.4-0.5,2c-0.1,0.5,0.2,3.8,2.4,0.2l2.4-3.5c0,0,1.3,2.2,0.6,3.6
		c-0.7,1.4-2.2,3.3-2.1,4.2c0.1,0.9-0.1,1.9-0.9,2.7c-0.8,0.8-1.3,0.9-0.7,1.4c0.7,0.6,0.4,0.4,0.5,1s0.5,3.8,0.5,3.8s0,0.9,0.7,0.8
		c0.7-0.1,0.4-0.4,1.2-1.2c0.8-0.9,1.4-1.4,1.6-1.5c0.3-0.2,0.5-0.2,0.7-0.1c0.2,0,0.8,0,0.9-1.2c0.1-1.2,0.1-2.3,0.6-2.4
		c0.5-0.1,0.9,0,0.9,0.7s0,1.5-0.1,2.6s-0.3,1.9-0.5,2.5c-0.3,0.6-1.5,2.2-2.7,2.7s-2.8,1.7-2.9,3c0,0-0.4,1.9-0.3,2.2l1.8-0.1
		c1.9-0.4,3.2-1.3,3.4-1.5c0.3-0.2,1.2-0.9,1,0.3s-1.1,2.1-2,2.8c-0.8,0.7-2.3,2.6-3.8,2.8s-3.2,0.2-5.5,0.4c0,0,0.2,0.7,1.4,1.7
		c1.1,1,1,2.9,1,2.9s-0.4,6.2,2.5,3.4c0,0,2.2-1.5,2.9-2s1.7-1,2.3-2.6c0.5-1.6,1.3-2.6,1.2-0.3s-0.7,3.1-0.8,3.7
		c-0.2,0.6-0.9,2.9,0.1,4.2s1.5,3.3,2,3.7s0.9,1,0.9,1s1.8-1,2.3-2.1s2.2-2.9,2-4.3c-0.2-1.3,0.1-1.3-1.2-3.1c0,0-0.2-1.7,0.1-3.1
		c0.3-1.3,0.3-2.2,1-0.8s0.7,2.1,2.8,3.6s2.7,4.1,3.8,1.2c1-2.9,1.1-4.2,3-5.7c1.9-1.4,1.3-2.3-0.5-2.4c-1.8-0.1-5,0.2-5.7-0.2
		c-0.8-0.3-4.4-3-4.7-4.3c-0.4-1.3,0.1-1.5,1-0.7s3.6,2.4,5,2.1c1.4-0.2,1.1-0.2,1.1-0.2S66.2,91.1,65,90c0,0-5.4-2.8-5.8-5.5
		c-0.4-2.6,0-3.9,0-3.9s0.8-1.7,1,0.2c0.3,1.9,0.3,2.7,1,2.6c0.8-0.1,1.1,0.4,1.6,1s1.3,1.7,1.7,1.7s1-0.2,1-2s-0.2-3.2,1-3.4
		s0-1.2-0.2-1.4s-1.7-1.4-1.8-2.3c-0.1-0.9,0-1.4-1.3-2.2s-0.8-3.5-0.8-4.1c-0.1-0.6,0.1-3.6,1.3-0.2s3.8,2.6,3.1,0.2
		c0,0-0.1-4.2,1.5-0.4c0,0,0.7,2.4,2.5,3.2c1.7,0.8,2.7,1.6,2.3-1.1c-0.5-2.6-0.4-2.6,0.9-0.3c1.3,2.3,5.3,4.4,3.9,1.4
		c0,0-0.8-4,1.5-0.5c0,0,4,2.3,2.3-0.8c0,0-0.7-2.7,1.6-0.6c2.3,2.1,4.8,1.2,2.7-0.9c0,0-0.5-2.1,1.1-1.1c0,0,2.7,0.8,1.2-2.2
		c-1.5-2.9,0.4-2.4,0.4-2.4s2.5-0.4,0.4-2.5s-1.2-2.7-0.4-3.1c0.8-0.3,1.9-0.8,0.2-2.1s-0.2-1.5,0.2-1.8s1.6-1.7-0.6-2.4
		c-2.2-0.8-1.4-1.4-0.3-1.8c1.1-0.5,4.4-1.8,0.8-3.4c0,0-4.3,0.8-1.9-1.9c2.3-2.7,4.7-5.7,2.9-6.7c0,0-1-0.9-2.7,1.1
		c0,0-2.1,1.3,0.7-1.9c2.8-3.1,2.8-6.8,2.4-8.5c-0.5-1.7-1.6-4.4-2.8-0.9s-3.3,6.6-3.3,6.6s0.9-2.1,0.7-5.1c-0.2-2.9-2-6.3-3.4-1.1
		c0,0-1.7,3.8-3,4.7c-1.3,1-9,7.4-10.3,10.9c-1.4,3.4-3.6,13.1-5.5,14.3c0,0,0-0.5,0.7-2.6c0.7-2.2-0.3-5.9-0.4-7.5
		c-0.1-1.6,0.3-2.4,1.5-2.8c1.1-0.4,0.3-1.6,0.3-2.6s0.4-1.9,1.7-1.6c1.3,0.2,0.7-1.7,0.3-2.9s0.1-4.3,1.9-5.8c0,0,1.5-2.7,2.3-2.9
		s1.4-2.9-0.7-3.4c-2.1-0.5-2.6-0.2-3.4,0c-0.8,0.2-2.3,0.9-4.1-0.1s-1.1,1.3-1.1,1.3s0.8,1.7-1.2,2.9s-1.1,2.8-1.1,2.8
		s0.7,1.2-1.1,2.9s0,2.3,0,2.7s0.1,2.9-1.5,4.1c0,0-2,0.3-1.2-3.9c0,0,0.6-1.2-1-2.7c0,0-1.5-1-0.7-3.3c0,0,0.4-2.1-2-3.4
		c0,0-1.4-0.8-0.3-2.6c1.1-1.8-0.1-2-0.9-1.6C49.5,27.5,48.3,28.6,43.4,27.8z"/>
	<path class="st1" d="M71.9,31.6c0,0,0.1-2,2.4-2.1c2.3-0.1,2.6,1.4,2.6,1.4S73.1,33.4,71.9,31.6z"/>
	<path class="st1" d="M69.8,36.3c0,0-1.5-1-1.8,0c0,0-0.1,1.6,1.6,1.6c1.6,0,2.7-0.3,2.8-0.9c0.1-0.6-0.9-0.3-1.3-0.3
		C70.5,36.7,70,36.4,69.8,36.3z"/>
	<path class="st1" d="M40.5,31.6c0,0-0.1-2-2.4-2.1c-2.3-0.1-2.6,1.4-2.6,1.4S39.4,33.4,40.5,31.6z"/>
	<path class="st1" d="M42.6,36.3c0,0,1.5-1,1.8,0c0,0,0.1,1.6-1.6,1.6c-1.6,0-2.7-0.3-2.8-0.9c-0.1-0.6,0.9-0.3,1.3-0.3
		C41.9,36.7,42.4,36.4,42.6,36.3z"/>
	<path class="st1" d="M68.4,84.5c0,0.1,0.6,0.8,0.3,1.5c-0.2,0.7-2.5,2.1-2.3,4s0.7,2.4,2.2,3.4c0,0,1-0.5,0.5-3.6c0,0,0-3,1.4-2.7
		c0,0,1.2,0.2,1.3,1.2s-0.1,2.7,0.1,3.4c0.2,0.7,0.8,2.6,2.3,2.7c0,0,0.7-0.3,0.3-2.3s-0.8-3-0.3-3.8s1.1-1.4,1.9-0.4
		c0.8,1,0.9,2.9,2.7,2.7c0,0,1.3-1.2-0.7-2.8c0,0-2.4-0.5-3.3-1.2c-0.9-0.6-1.4-0.7-1.3-1.7c0.1-1-0.1-1.4,1.5-1.5s4.5,0.2,4.6-0.2
		c0,0-0.9-2-2.8-1.7c-2,0.3-3.8,1.5-5.6,1.8l-4-0.5L68.4,84.5z"/>
	<path class="st1" d="M44,84.5c0,0.1-0.6,0.8-0.3,1.5c0.2,0.7,2.5,2.1,2.3,4s-0.7,2.4-2.2,3.4c0,0-1-0.5-0.5-3.6c0,0,0-3-1.4-2.7
		c0,0-1.2,0.2-1.3,1.2s0.1,2.7-0.1,3.4c-0.2,0.7-0.8,2.6-2.3,2.7c0,0-0.7-0.3-0.3-2.3s0.8-3,0.3-3.8s-1.1-1.4-1.9-0.4
		c-0.8,1-0.9,2.9-2.7,2.7c0,0-1.3-1.2,0.7-2.8c0,0,2.4-0.5,3.3-1.2c0.9-0.6,1.4-0.7,1.3-1.7c-0.1-1,0.1-1.4-1.5-1.5
		s-4.5,0.2-4.6-0.2c0,0,0.9-2,2.8-1.7c2,0.3,3.8,1.5,5.6,1.8l4-0.5L44,84.5z"/>
	<path class="st2" d="M35.7,52.4L35.7,52.4c0,0,1.1-0.6,2.6,0l0,0c0.3,0.1,0.6,0,0.7-0.3c0.1-0.3,0-0.6-0.3-0.7l0,0
		c-2.1-0.8-3.5,0-3.6,0l0,0c-0.3,0.2-0.3,0.5-0.2,0.7C35.1,52.5,35.5,52.6,35.7,52.4L35.7,52.4z"/>
	<path class="st2" d="M40.9,54.2L40.9,54.2c0,0,0.9,0.8,0.8,2.5l0,0c0,0.3,0.2,0.6,0.5,0.6s0.6-0.2,0.6-0.5l0,0
		c0.1-2.2-1.1-3.3-1.1-3.4l0,0c-0.2-0.2-0.6-0.2-0.8,0C40.7,53.7,40.7,54,40.9,54.2L40.9,54.2z"/>
	<path class="st2" d="M32.4,56.8L32.4,56.8c0,0-0.2-1.2,0.8-2.5l0,0c0.2-0.2,0.2-0.6-0.1-0.8c-0.2-0.2-0.6-0.2-0.8,0.1l0,0
		c-1.4,1.7-1.1,3.3-1.1,3.4l0,0c0.1,0.3,0.4,0.5,0.6,0.4C32.3,57.4,32.4,57.1,32.4,56.8L32.4,56.8z"/>
	<path class="st2" d="M35.5,61.3L35.5,61.3c0,0-1.2-0.2-2.1-1.6l0,0c-0.2-0.3-0.5-0.3-0.7-0.2c-0.3,0.2-0.3,0.5-0.2,0.7l0,0
		c1.2,1.9,2.8,2.1,2.9,2.1l0,0c0.3,0,0.6-0.2,0.6-0.5C36,61.6,35.8,61.4,35.5,61.3L35.5,61.3z"/>
	<path class="st2" d="M40.8,59.8L40.8,59.8c0,0-0.5,1.1-2.1,1.5l0,0c-0.3,0.1-0.5,0.4-0.4,0.7s0.4,0.5,0.7,0.4l0,0
		c2.1-0.6,2.8-2.1,2.9-2.1l0,0c0.1-0.3,0-0.6-0.3-0.7C41.2,59.4,40.9,59.5,40.8,59.8L40.8,59.8z"/>
	<path class="st2" d="M45.7,58.2L45.7,58.2l-2.5-7.5l0,0l-0.4-1.9l-1.9,0.3v0.1h-7.8v-0.1l-1.9-0.3l-0.4,1.9l0,0l-2.4,7.5l0,0
		L27.6,60l1.6,0.8l6.6,4.8l1.3,1.2l1.3-1.2l6.6-4.8l1.6-0.9L45.7,58.2z M42.9,52.6c-0.3-0.4-0.7-0.8-1-1.1l0.6-0.3L42.9,52.6z
		 M31.1,59.4l4.2-1.4c0.3,0.4,0.6,0.6,1,0.8v4.5C34.1,63.1,32.1,61.6,31.1,59.4z M30.6,56.9c0-1.9,0.8-3.7,2.2-4.8l2.6,3.6
		C35.2,56,35,56.4,35,56.9l-4.3,1.4C30.7,57.8,30.6,57.4,30.6,56.9z M37.7,55c-0.2-0.1-0.4-0.1-0.6-0.1s-0.4,0-0.6,0.1l-2.6-3.6
		c1-0.6,2.1-0.9,3.2-0.9c1.2,0,2.3,0.3,3.2,0.9L37.7,55z M38.2,56.9c0,0.6-0.5,1.1-1.1,1.1S36,57.5,36,56.9s0.5-1.1,1.1-1.1
		C37.7,55.8,38.2,56.3,38.2,56.9z M37.7,58.8c0.4-0.1,0.8-0.4,1-0.8l4.2,1.4C42,61.5,40,63,37.6,63.3L37.7,58.8L37.7,58.8z
		 M39.1,56.9c0-0.4-0.2-0.8-0.4-1.2l2.6-3.6c1.3,1.2,2.2,2.9,2.2,4.8c0,0.5,0,0.9-0.1,1.3L39.1,56.9z M40.7,50.7
		c-0.4-0.3-0.9-0.5-1.4-0.6h1.5L40.7,50.7z M34.8,50.1c-0.5,0.2-0.9,0.4-1.4,0.6l-0.1-0.6H34.8z M32.3,51.5c-0.4,0.3-0.7,0.7-1,1.1
		l0.5-1.5L32.3,51.5z M29.9,56.9c0,0.5,0.1,1,0.2,1.5l-0.6-0.1L29.9,56.9z M30.5,59.8c0.2,0.5,0.5,0.9,0.8,1.3l-1.2-0.9L30.5,59.8z
		 M34.9,63.8c0.5,0.1,1,0.3,1.5,0.3l-0.3,0.6L34.9,63.8z M38.1,64.6L37.8,64c0.5-0.1,1-0.2,1.5-0.3L38.1,64.6z M42.9,61.1
		c0.3-0.4,0.6-0.9,0.8-1.3l0.5,0.4L42.9,61.1z M44.1,58.4c0.1-0.5,0.2-1,0.2-1.5l0.4,1.4L44.1,58.4z M36.2,65.2l0.9-0.9l0,0l0.9,0.9
		l-0.9,0.9L36.2,65.2z M28.9,58.7l1.1,0.6l0,0l-0.6,1.1l-1.1-0.6L28.9,58.7z M44.8,60.2l-0.6-1.1l0,0l1.1-0.6l0.6,1.1L44.8,60.2z
		 M42.6,50.6l-1.2,0.2l0,0l-0.2-1.2l1.3-0.2L42.6,50.6z M32.8,49.6l-0.2,1.2l0,0l-1.2-0.2l0.2-1.3L32.8,49.6z"/>
	<polygon class="st3" points="83.8,62.7 73.3,47.8 71.3,50.6 81.8,65.6 	"/>
	<polygon class="st4" points="73.3,66.3 83.9,51.1 81.5,48.3 70.9,63.4 	"/>
	<path class="st4" d="M77.5,67.8l-7.4-10.6l7.4-10.6l7.4,10.6L77.5,67.8z M83.3,57.3L77.5,49l-5.8,8.3l5.8,8.3L83.3,57.3z"/>
	<ellipse class="st2" cx="44.5" cy="30.8" rx="0.6" ry="0.6"/>
	<ellipse class="st2" cx="67.8" cy="31.2" rx="0.6" ry="0.6"/>
	<path class="st5" d="M18.7,57.3V35.1V23.7h37.5h37.5v33.5c0,0,0,35.8-37.5,63.7C18.7,93,18.7,57.3,18.7,57.3z M56.2,135.1
		c48.3-36,48.3-82,48.3-82V9.9H56.2H7.9v25.3V53C7.9,53.1,7.9,99.1,56.2,135.1z"/>
</g>
<g id="sqares">
	<path class="st6" d="M7.9,48.4v4.7c0,0,0,4.3,1.4,11.4l10-1.2c-0.6-3.8-0.6-6-0.6-6v-8.8H7.9V48.4z"/>
	<path class="st6" d="M19.7,93.4c-2.5-4.7-4.5-9.2-6-13.4l8.8-3.5c1.4,3.9,3.2,8.3,5.6,12.8L19.7,93.4z"/>
	<path class="st6" d="M37.9,118.7c-3.7-4-7-8-9.9-12l7.8-5.7c2.7,3.5,5.7,7,9.2,10.5L37.9,118.7z"/>
	<path class="st6" d="M74.4,118.8c-5.1,5.5-11.2,11-18.2,16.3V121c4.1-3,7.7-6.1,10.9-9.3L74.4,118.8z"/>
	<path class="st6" d="M84.8,106.1c2.9-4.1,5.4-8.2,7.6-12.2L84.3,89c-1.9,3.5-4.2,7.2-6.9,10.9L84.8,106.1z"/>
	<path class="st6" d="M98.8,79.8c2-5.3,3.3-10.2,4.1-14.2l-9.6-3.1c-0.5,3.3-1.4,8-3.3,13.5L98.8,79.8z"/>
	<polygon class="st6" points="104.5,48.8 104.5,35.1 93.7,35.2 93.7,49 	"/>
	<polygon class="st6" points="104.5,9.9 83.5,9.9 83.5,23.7 93.7,23.7 	"/>
	<rect x="56.2" y="9.9" class="st6" width="13.9" height="13.8"/>
	<rect x="29.7" y="9.9" class="st6" width="13.2" height="13.8"/>
	<polygon class="st6" points="7.9,35.1 7.9,9.9 18.7,23.7 18.7,35.1 	"/>
</g>
<g id="scroll">
</g>
<g id="text">
</g>
</svg>
