<svg version="1.1" id="Layer_1" xmlns="http://www.w3.org/2000/svg" x="0" y="0" viewBox="0 0 32.5 28.2" style="enable-background:new 0 0 32.5 28.2" xml:space="preserve"><style>.st2{fill:#fff}</style><linearGradient id="SVGID_1_" gradientUnits="userSpaceOnUse" x1="-281.516" y1="434.998" x2="-280.808" y2="434.291"><stop offset="0" style="stop-color:#20ac4b"/><stop offset=".983" style="stop-color:#19361a"/></linearGradient><path d="M8.1 28.2 0 14.1 8.1 0h16.3l8.1 14.1-8.1 14.1z"/><path style="fill:none;stroke:#fff;stroke-width:.43" d="M9.7 25.5 3.1 14.1 9.7 2.7h13.1l6.6 11.4-6.6 11.4H9.7z"/><path d="M9.7 25.5 3.1 14.1 9.7 2.7h13.1l6.6 11.4-6.6 11.4H9.7zm2.7-21.8L7 14.8l5.9 3.5 1.9 6.2h3.1l1.9-6.2 5.9-3.5-5.4-11-2 5h-3.7l-2.2-5.1z" style="fill:#f9a01b"/><path class="st2" d="M20.1 12.8v3h-2.7zM12.4 15.8v-3l2.7 3z"/></svg>