<svg id="svg" version="1.1" xmlns="http://www.w3.org/2000/svg" xmlns:xlink="http://www.w3.org/1999/xlink" width="400" height="400" viewBox="0, 0, 400,400"><g id="svgg"><path id="path0" d="M183.203 81.682 C 176.963 82.057,164.979 83.156,163.867 83.454 C 159.375 84.662,126.204 137.149,122.872 148.322 C 122.407 149.880,129.939 165.097,137.043 176.953 C 142.667 186.340,155.995 205.664,156.845 205.664 C 157.388 205.664,173.008 180.327,172.727 179.901 C 172.578 179.676,170.944 177.207,169.096 174.414 C 164.950 168.150,160.766 161.203,157.015 154.355 L 154.158 149.140 156.222 144.980 C 160.496 136.368,167.222 125.267,174.270 115.193 L 178.535 109.098 182.920 108.852 C 191.950 108.346,204.322 108.181,210.874 108.480 L 217.646 108.789 225.662 95.973 C 230.071 88.924,233.602 83.081,233.508 82.988 C 232.234 81.713,197.627 80.814,183.203 81.682 M235.238 114.243 C 230.896 121.187,227.344 127.005,227.344 127.172 C 227.344 127.339,229.258 130.391,231.598 133.954 C 235.835 140.407,241.500 150.018,244.383 155.645 L 245.898 158.602 243.387 163.383 C 238.128 173.396,231.504 184.233,225.160 193.203 L 221.542 198.320 218.681 198.643 C 217.108 198.820,208.262 198.989,199.023 199.016 L 182.227 199.067 174.337 211.737 C 169.145 220.075,166.607 224.489,166.915 224.649 C 167.476 224.941,175.870 225.620,186.328 226.219 C 194.858 226.708,216.684 226.461,222.852 225.805 C 225.000 225.576,229.016 225.101,231.775 224.748 L 236.793 224.108 239.680 220.481 C 252.249 204.693,264.632 184.969,274.650 164.781 L 277.492 159.054 276.941 157.359 C 275.922 154.225,267.400 137.759,263.125 130.664 C 257.673 121.615,244.681 102.575,243.432 101.803 C 243.267 101.701,239.579 107.299,235.238 114.243 " stroke="none" fill="#cbfb0c" fill-rule="evenodd"></path><path id="path1" d="M90.625 200.000 L 90.625 360.547 200.000 360.547 L 309.375 360.547 309.375 200.000 L 309.375 39.453 200.000 39.453 L 90.625 39.453 90.625 200.000 M213.867 81.245 C 227.912 81.869,234.055 82.456,233.790 83.147 C 233.665 83.472,230.025 89.375,225.701 96.264 L 217.840 108.789 200.814 108.789 C 191.450 108.789,182.625 108.933,181.201 109.108 L 178.613 109.427 175.888 113.209 C 169.180 122.523,162.331 133.601,157.378 143.153 L 154.313 149.064 157.197 154.348 C 160.735 160.830,165.910 169.380,169.986 175.477 C 171.669 177.995,173.047 180.168,173.047 180.306 C 173.047 180.618,157.030 206.250,156.835 206.250 C 156.495 206.250,147.891 194.129,143.539 187.519 C 135.768 175.717,127.836 161.488,123.543 151.653 L 122.304 148.814 126.377 140.623 C 136.290 120.690,152.435 95.446,162.160 84.675 L 163.477 83.218 168.945 82.646 C 183.587 81.117,199.691 80.614,213.867 81.245 M250.003 110.403 C 260.740 125.419,270.939 142.900,276.538 155.884 L 277.812 158.839 274.445 165.564 C 263.983 186.461,250.074 208.335,237.817 223.170 C 235.778 225.637,210.391 227.481,190.625 226.597 C 181.907 226.208,166.366 225.090,166.111 224.835 C 166.053 224.777,169.657 218.879,174.120 211.728 L 182.234 198.727 197.660 198.754 C 206.144 198.769,214.925 198.660,217.173 198.512 L 221.260 198.242 222.752 196.289 C 227.864 189.595,236.572 175.670,242.340 164.968 L 245.745 158.650 244.692 156.571 C 241.349 149.966,235.471 140.058,230.402 132.481 L 226.913 127.267 235.039 114.220 L 243.164 101.172 244.051 102.246 C 244.540 102.837,247.218 106.507,250.003 110.403 M204.037 133.001 C 223.834 137.196,227.415 163.763,209.375 172.596 C 190.880 181.652,171.972 162.224,181.333 143.782 C 185.398 135.773,195.185 131.126,204.037 133.001 M187.232 253.323 C 188.273 253.696,189.037 254.194,188.945 254.440 C 188.853 254.683,188.485 255.894,188.128 257.129 C 187.403 259.635,187.503 259.575,185.352 258.800 C 182.814 257.886,177.852 258.039,175.998 259.089 C 170.308 262.312,172.630 270.927,179.321 271.410 C 183.434 271.708,183.594 271.580,183.594 267.992 C 183.594 264.512,183.250 264.832,187.609 264.257 L 189.476 264.011 189.367 269.213 L 189.258 274.414 186.914 275.586 C 179.698 279.194,169.355 275.703,167.028 268.873 C 163.296 257.919,174.974 248.930,187.232 253.323 M139.453 262.109 L 139.453 271.484 145.117 271.484 L 150.781 271.484 150.781 274.226 L 150.781 276.968 142.090 276.863 L 133.398 276.758 133.295 264.746 L 133.192 252.734 136.322 252.734 L 139.453 252.734 139.453 262.109 M161.236 264.746 L 161.133 276.758 158.105 276.872 L 155.078 276.986 155.078 264.860 L 155.078 252.734 158.209 252.734 L 161.339 252.734 161.236 264.746 M201.172 260.494 C 201.172 269.706,201.976 271.484,206.139 271.484 C 210.317 271.484,211.328 269.260,211.328 260.065 L 211.328 252.734 214.453 252.734 L 217.578 252.734 217.578 260.693 C 217.578 273.350,215.556 276.436,206.977 276.873 C 197.567 277.352,194.850 273.832,194.605 260.840 L 194.452 252.734 197.812 252.734 L 201.172 252.734 201.172 260.494 M241.406 255.273 L 241.406 257.813 235.742 257.813 L 230.078 257.813 230.078 259.753 L 230.078 261.694 234.668 261.804 L 239.258 261.914 239.258 264.453 L 239.258 266.992 234.668 267.102 L 230.078 267.212 230.078 269.348 L 230.078 271.484 235.938 271.484 L 241.797 271.484 241.797 274.219 L 241.797 276.953 232.813 276.953 L 223.828 276.953 223.828 264.844 L 223.828 252.734 232.617 252.734 L 241.406 252.734 241.406 255.273 M266.705 264.746 L 266.602 276.758 263.574 276.872 L 260.547 276.986 260.547 268.545 L 260.547 260.104 258.004 261.454 C 256.606 262.197,255.395 262.692,255.313 262.555 C 254.885 261.833,254.271 257.685,254.553 257.420 C 256.298 255.782,262.890 252.763,264.752 252.750 L 266.808 252.734 266.705 264.746 M125.782 302.051 C 125.783 313.090,126.444 314.708,131.123 315.118 C 136.342 315.574,137.500 313.172,137.500 301.892 L 137.500 293.359 139.453 293.359 L 141.406 293.359 141.406 306.055 L 141.406 318.750 139.453 318.750 C 137.640 318.750,137.500 318.681,137.500 317.792 L 137.500 316.834 135.466 317.890 C 129.961 320.746,123.186 317.660,121.911 311.716 C 121.676 310.622,121.484 306.044,121.484 301.543 L 121.484 293.359 123.633 293.359 L 125.781 293.359 125.782 302.051 M148.438 297.603 L 148.438 301.847 150.222 300.943 C 156.932 297.546,164.531 302.006,164.531 309.341 C 164.531 316.561,156.986 321.147,150.438 317.906 C 148.590 316.992,148.438 316.971,148.438 317.638 C 148.438 318.243,148.123 318.359,146.484 318.359 L 144.531 318.359 144.531 305.859 L 144.531 293.359 146.484 293.359 L 148.438 293.359 148.438 297.603 M221.875 295.703 L 221.875 298.047 215.625 298.047 L 209.375 298.047 209.375 300.977 L 209.375 303.906 215.430 303.906 L 221.484 303.906 221.484 306.055 L 221.484 308.203 215.430 308.203 L 209.375 308.203 209.375 311.133 L 209.375 314.063 215.625 314.063 L 221.875 314.063 221.875 316.211 L 221.875 318.359 213.086 318.359 L 204.297 318.359 204.297 305.859 L 204.297 293.359 213.086 293.359 L 221.875 293.359 221.875 295.703 M254.297 297.461 L 254.297 300.000 256.836 300.000 L 259.375 300.000 259.375 302.148 L 259.375 304.297 256.836 304.297 L 254.297 304.297 254.297 308.943 C 254.297 314.190,254.218 314.063,257.454 314.063 L 259.375 314.063 259.375 316.211 L 259.375 318.359 256.035 318.359 C 250.013 318.359,249.219 317.314,249.219 309.388 L 249.219 304.297 247.461 304.297 L 245.703 304.297 245.703 302.148 L 245.703 300.000 247.461 300.000 L 249.219 300.000 249.219 297.461 L 249.219 294.922 251.758 294.922 L 254.297 294.922 254.297 297.461 M179.325 300.795 C 182.141 302.232,184.375 306.059,184.375 309.446 L 184.375 310.547 177.148 310.547 C 169.626 310.547,169.508 310.576,170.361 312.233 C 172.162 315.728,176.551 316.593,179.472 314.028 L 180.728 312.925 182.197 313.923 L 183.666 314.921 182.579 316.055 C 177.651 321.199,168.590 319.242,166.219 312.522 C 163.391 304.509,171.821 296.967,179.325 300.795 M237.402 300.380 C 238.767 301.000,239.063 301.033,239.063 300.567 C 239.063 300.130,239.643 300.000,241.602 300.000 L 244.141 300.000 244.141 309.180 L 244.141 318.359 241.602 318.359 C 239.590 318.359,239.063 318.236,239.063 317.765 C 239.063 317.272,238.787 317.312,237.434 318.002 C 231.440 321.060,224.234 316.295,224.223 309.265 C 224.211 302.344,231.260 297.592,237.402 300.380 M274.230 300.488 C 276.127 301.446,277.734 303.489,277.734 304.941 C 277.734 306.481,273.769 306.297,272.266 304.688 C 270.565 302.867,266.016 303.131,266.016 305.050 C 266.016 305.925,266.331 306.056,270.779 307.027 C 276.442 308.263,278.348 309.761,278.266 312.910 C 278.063 320.625,263.077 321.027,260.760 313.379 C 260.297 311.848,264.756 312.082,266.346 313.672 C 268.301 315.626,273.438 315.212,273.438 313.100 C 273.438 312.443,272.915 312.242,268.216 311.090 C 261.581 309.465,259.425 306.793,261.503 302.773 C 263.084 299.717,270.181 298.443,274.230 300.488 M190.116 300.760 C 190.313 301.514,190.328 301.514,191.734 300.760 C 194.468 299.295,195.703 299.666,195.703 301.953 L 195.703 303.906 194.310 303.906 C 190.894 303.906,190.234 305.393,190.234 313.095 L 190.234 318.793 188.379 318.674 L 186.523 318.555 186.418 309.774 C 186.360 304.945,186.399 300.771,186.503 300.497 C 186.833 299.637,189.880 299.860,190.116 300.760 M152.529 303.527 C 149.121 304.554,147.302 309.393,149.194 312.406 C 152.411 317.531,160.306 315.378,160.306 309.375 C 160.306 305.335,156.366 302.371,152.529 303.527 M173.633 303.565 C 171.971 304.062,169.922 306.024,169.922 307.118 C 169.922 307.285,172.207 307.422,175.000 307.422 C 180.421 307.422,180.697 307.307,179.468 305.553 C 178.321 303.915,175.583 302.982,173.633 303.565 M231.429 304.250 C 226.363 306.551,227.491 313.630,233.093 314.688 C 233.960 314.852,234.871 314.673,236.031 314.112 C 242.394 311.031,237.865 301.326,231.429 304.250 " stroke="none" fill="#0c1c3c" fill-rule="evenodd"></path><path id="path2" d="M194.336 133.542 C 178.966 137.958,173.902 157.135,185.130 168.404 C 196.924 180.242,217.063 174.323,220.504 158.008 C 223.715 142.777,209.253 129.255,194.336 133.542 M177.087 252.726 C 162.788 255.768,162.956 273.979,177.308 276.648 C 180.364 277.217,184.401 276.633,187.332 275.199 L 189.453 274.161 189.453 269.253 L 189.453 264.344 187.402 264.591 C 186.274 264.726,185.051 264.838,184.684 264.840 C 184.117 264.843,183.999 265.333,183.903 268.066 L 183.789 271.289 181.899 271.654 C 176.955 272.609,172.656 269.337,172.656 264.620 C 172.656 259.059,178.901 256.249,185.769 258.719 L 187.359 259.291 188.036 256.749 C 188.409 255.352,188.660 254.166,188.595 254.114 C 187.195 252.998,179.929 252.122,177.087 252.726 M133.594 264.648 L 133.594 276.563 142.188 276.563 L 150.781 276.563 150.781 274.023 L 150.781 271.484 145.117 271.484 L 139.453 271.484 139.453 262.109 L 139.453 252.734 136.523 252.734 L 133.594 252.734 133.594 264.648 M155.078 264.648 L 155.078 276.563 158.008 276.563 L 160.938 276.563 160.938 264.648 L 160.938 252.734 158.008 252.734 L 155.078 252.734 155.078 264.648 M194.992 261.230 C 195.131 270.666,195.222 271.053,197.967 273.918 C 201.737 277.854,210.869 277.738,214.772 273.705 C 217.108 271.292,217.347 270.182,217.503 261.035 L 217.645 252.734 214.735 252.734 L 211.825 252.734 211.577 254.547 C 211.440 255.543,211.328 259.080,211.328 262.405 L 211.328 268.451 209.812 269.968 C 207.987 271.792,205.457 272.070,203.199 270.693 C 201.067 269.393,200.781 268.126,200.781 259.973 L 200.781 252.734 197.824 252.734 L 194.867 252.734 194.992 261.230 M223.828 264.648 L 223.828 276.563 232.813 276.563 L 241.797 276.563 241.797 274.023 L 241.797 271.484 235.938 271.484 L 230.078 271.484 230.078 269.141 L 230.078 266.797 234.570 266.797 L 239.063 266.797 239.063 264.453 L 239.063 262.109 234.570 262.109 L 230.078 262.109 230.078 259.961 L 230.078 257.813 235.742 257.813 L 241.406 257.813 241.406 255.273 L 241.406 252.734 232.617 252.734 L 223.828 252.734 223.828 264.648 M258.789 255.130 C 256.426 256.437,254.453 257.542,254.405 257.584 C 254.357 257.626,254.472 258.266,254.660 259.006 C 254.848 259.746,255.111 260.836,255.243 261.427 L 255.484 262.503 257.809 261.330 C 259.088 260.684,260.227 260.156,260.340 260.156 C 260.454 260.156,260.547 263.848,260.547 268.359 L 260.547 276.563 263.477 276.563 L 266.406 276.563 266.406 264.648 L 266.406 252.734 264.746 252.744 C 263.456 252.752,262.127 253.284,258.789 255.130 M121.875 302.396 C 121.875 312.453,122.078 313.469,124.602 316.074 C 127.493 319.058,132.572 319.656,135.964 317.412 L 137.500 316.395 137.500 317.377 C 137.500 318.295,137.627 318.359,139.453 318.359 L 141.406 318.359 141.406 306.055 L 141.406 293.750 139.453 293.750 L 137.500 293.750 137.500 302.481 C 137.500 313.295,136.562 315.395,131.740 315.378 C 126.509 315.360,125.622 313.533,125.456 302.441 L 125.326 293.750 123.600 293.750 L 121.875 293.750 121.875 302.396 M144.531 306.055 L 144.531 318.359 146.289 318.359 C 147.904 318.359,148.047 318.280,148.047 317.383 C 148.047 316.246,148.310 316.169,149.260 317.029 C 153.484 320.852,162.259 317.975,163.989 312.201 C 166.485 303.870,156.913 296.568,149.812 301.387 C 149.037 301.913,148.323 302.344,148.225 302.344 C 148.127 302.344,148.047 300.410,148.047 298.047 L 148.047 293.750 146.289 293.750 L 144.531 293.750 144.531 306.055 M171.273 300.925 C 166.907 302.958,164.984 307.598,166.461 312.530 C 168.290 318.633,176.795 320.793,181.735 316.409 L 183.334 314.990 182.101 314.112 L 180.868 313.235 179.469 314.302 C 175.998 316.949,171.039 315.481,169.757 311.426 L 169.479 310.547 176.731 310.547 L 183.984 310.547 183.982 309.082 C 183.972 302.382,177.317 298.110,171.273 300.925 M186.719 309.375 L 186.719 318.359 188.477 318.359 L 190.234 318.359 190.234 312.481 C 190.234 304.956,190.928 303.516,194.550 303.516 C 195.635 303.516,195.703 303.423,195.703 301.953 L 195.703 300.391 193.975 300.391 C 192.686 300.391,191.942 300.648,191.046 301.402 L 189.844 302.413 189.844 301.402 C 189.844 300.482,189.702 300.391,188.281 300.391 L 186.719 300.391 186.719 309.375 M157.452 304.013 C 162.641 307.510,160.923 314.991,154.814 315.501 C 149.537 315.941,146.195 309.849,149.406 305.640 C 151.368 303.068,154.969 302.340,157.452 304.013 M178.228 304.136 C 179.274 304.915,180.469 306.647,180.469 307.384 C 180.469 307.674,178.704 307.813,175.000 307.813 C 171.992 307.813,169.532 307.681,169.533 307.520 C 169.549 304.298,175.391 302.025,178.228 304.136 " stroke="none" fill="#f9f9fa" fill-rule="evenodd"></path><path id="path3" d="M204.557 293.620 C 204.414 293.763,204.297 299.388,204.297 306.120 L 204.297 318.359 213.086 318.359 L 221.875 318.359 221.875 316.211 L 221.875 314.063 215.413 314.063 L 208.952 314.063 209.066 311.035 L 209.180 308.008 215.332 307.900 L 221.484 307.793 221.484 305.849 L 221.484 303.906 215.218 303.906 L 208.952 303.906 209.066 300.879 L 209.180 297.852 215.527 297.744 L 221.875 297.637 221.875 295.498 L 221.875 293.359 213.346 293.359 C 208.656 293.359,204.701 293.477,204.557 293.620 M249.609 297.461 L 249.609 300.000 247.852 300.000 L 246.094 300.000 246.094 302.148 L 246.094 304.297 247.852 304.297 L 249.609 304.297 249.609 309.955 L 249.609 315.613 250.749 316.888 C 251.864 318.137,251.968 318.167,255.632 318.299 L 259.375 318.435 259.375 316.267 L 259.375 314.100 256.934 313.983 L 254.492 313.867 254.383 309.082 L 254.273 304.297 256.824 304.297 L 259.375 304.297 259.375 302.148 L 259.375 300.000 256.836 300.000 C 254.328 300.000,254.297 299.987,254.293 298.926 C 254.290 298.335,254.179 297.192,254.046 296.387 L 253.804 294.922 251.707 294.922 L 249.609 294.922 249.609 297.461 M230.502 300.257 C 227.065 301.517,224.219 305.614,224.219 309.302 C 224.219 315.884,231.221 320.607,237.054 317.960 C 239.095 317.034,239.063 317.037,239.063 317.773 C 239.063 318.229,239.583 318.359,241.406 318.359 L 243.750 318.359 243.750 309.160 L 243.750 299.961 241.504 300.078 C 239.644 300.175,239.267 300.313,239.312 300.879 C 239.380 301.731,239.394 301.732,237.739 300.755 C 235.906 299.674,232.695 299.453,230.502 300.257 M265.170 300.202 C 260.633 301.655,259.565 307.058,263.357 309.364 C 264.049 309.785,266.292 310.508,268.343 310.971 C 272.720 311.960,273.438 312.280,273.438 313.247 C 273.438 315.571,267.549 315.767,265.897 313.499 C 265.011 312.283,260.938 311.960,260.938 313.105 C 260.938 318.898,273.748 320.909,277.241 315.665 C 279.992 311.535,277.679 308.660,270.312 307.052 C 266.444 306.208,265.432 305.644,265.846 304.565 C 266.560 302.706,271.854 302.965,272.736 304.903 C 273.191 305.900,277.734 306.422,277.734 305.477 C 277.734 301.168,270.989 298.337,265.170 300.202 M236.310 304.334 C 241.301 307.139,239.540 314.844,233.907 314.844 C 227.971 314.844,225.965 307.386,231.055 304.242 C 232.596 303.290,234.513 303.324,236.310 304.334 " stroke="none" fill="#06c162" fill-rule="evenodd"></path><path id="path4" d="M199.121 174.885 C 199.604 174.978,200.396 174.978,200.879 174.885 C 201.362 174.792,200.967 174.716,200.000 174.716 C 199.033 174.716,198.638 174.792,199.121 174.885 M133.377 264.648 C 133.377 271.309,133.430 274.088,133.495 270.825 C 133.560 267.562,133.561 262.113,133.495 258.716 C 133.430 255.319,133.377 257.988,133.377 264.648 M161.111 264.648 C 161.111 271.309,161.164 274.088,161.230 270.825 C 161.295 267.562,161.295 262.113,161.230 258.716 C 161.165 255.319,161.111 257.988,161.111 264.648 M211.419 253.906 C 211.419 254.658,211.499 254.966,211.597 254.590 C 211.696 254.214,211.696 253.599,211.597 253.223 C 211.499 252.847,211.419 253.154,211.419 253.906 M266.580 264.648 C 266.580 271.309,266.633 274.088,266.698 270.825 C 266.764 267.562,266.764 262.113,266.699 258.716 C 266.634 255.319,266.580 257.988,266.580 264.648 M239.188 264.453 C 239.188 265.850,239.258 266.421,239.345 265.723 C 239.432 265.024,239.432 263.882,239.345 263.184 C 239.258 262.485,239.188 263.057,239.188 264.453 M121.667 293.837 C 121.557 294.124,121.519 297.869,121.582 302.159 L 121.697 309.961 121.786 301.855 L 121.875 293.750 123.625 293.750 L 125.375 293.750 125.493 301.855 L 125.611 309.961 125.598 301.758 L 125.586 293.555 123.726 293.435 C 122.448 293.353,121.805 293.479,121.667 293.837 M146.481 293.636 L 148.047 293.795 148.047 298.069 C 148.047 300.420,148.179 302.344,148.340 302.345 C 148.501 302.345,148.545 300.368,148.438 297.950 L 148.242 293.555 146.579 293.516 L 144.916 293.478 146.481 293.636 M186.496 309.375 C 186.496 314.424,186.552 316.489,186.620 313.965 C 186.688 311.440,186.688 307.310,186.620 304.785 C 186.552 302.261,186.496 304.326,186.496 309.375 M169.530 307.520 C 169.531 307.681,172.036 307.781,175.098 307.742 C 180.790 307.670,180.125 307.514,173.339 307.330 C 171.244 307.273,169.530 307.358,169.530 307.520 M165.724 309.180 C 165.728 310.039,165.808 310.345,165.901 309.859 C 165.995 309.373,165.991 308.670,165.893 308.296 C 165.796 307.923,165.719 308.320,165.724 309.180 M148.100 317.480 C 148.146 318.410,148.176 318.436,148.323 317.670 C 148.421 317.160,148.672 316.896,148.916 317.047 C 149.169 317.203,149.227 317.126,149.061 316.857 C 148.561 316.048,148.046 316.382,148.100 317.480 M138.775 318.640 C 139.369 318.729,140.248 318.727,140.728 318.634 C 141.208 318.542,140.723 318.468,139.648 318.471 C 138.574 318.474,138.181 318.550,138.775 318.640 " stroke="none" fill="#848c9c" fill-rule="evenodd"></path><path id="path5" d="M197.949 81.150 C 199.937 81.221,203.188 81.221,205.176 81.150 C 207.163 81.080,205.537 81.022,201.563 81.022 C 197.588 81.022,195.962 81.080,197.949 81.150 M198.926 132.702 C 199.517 132.791,200.483 132.791,201.074 132.702 C 201.665 132.612,201.182 132.539,200.000 132.539 C 198.818 132.539,198.335 132.612,198.926 132.702 M184.936 138.770 L 183.789 140.039 185.059 138.892 C 186.242 137.822,186.508 137.500,186.206 137.500 C 186.139 137.500,185.567 138.071,184.936 138.770 M184.961 168.750 C 185.800 169.609,186.575 170.313,186.682 170.313 C 186.789 170.313,186.191 169.609,185.352 168.750 C 184.512 167.891,183.738 167.188,183.631 167.188 C 183.523 167.188,184.122 167.891,184.961 168.750 M214.630 168.848 L 213.086 170.508 214.746 168.964 C 216.290 167.528,216.586 167.188,216.290 167.188 C 216.226 167.188,215.479 167.935,214.630 168.848 M195.821 199.120 C 197.927 199.190,201.267 199.190,203.243 199.119 C 205.219 199.048,203.496 198.991,199.414 198.991 C 195.332 198.991,193.715 199.049,195.821 199.120 M198.535 226.853 C 200.415 226.925,203.491 226.925,205.371 226.853 C 207.251 226.782,205.713 226.723,201.953 226.723 C 198.193 226.723,196.655 226.782,198.535 226.853 M194.694 259.961 C 194.694 264.043,194.752 265.660,194.823 263.554 C 194.893 261.448,194.893 258.108,194.822 256.132 C 194.751 254.156,194.694 255.879,194.694 259.961 M200.944 259.961 C 200.944 264.043,201.002 265.660,201.073 263.554 C 201.143 261.448,201.143 258.108,201.072 256.132 C 201.001 254.156,200.944 255.879,200.944 259.961 M179.985 258.089 C 180.471 258.182,181.174 258.179,181.548 258.081 C 181.921 257.983,181.523 257.907,180.664 257.911 C 179.805 257.915,179.499 257.995,179.985 258.089 M232.340 262.008 C 233.691 262.085,235.800 262.084,237.027 262.007 C 238.254 261.930,237.148 261.867,234.570 261.868 C 231.992 261.869,230.988 261.932,232.340 262.008 M183.730 267.969 C 183.730 269.795,183.798 270.542,183.880 269.629 C 183.962 268.716,183.962 267.222,183.880 266.309 C 183.798 265.396,183.730 266.143,183.730 267.969 M232.340 267.086 C 233.691 267.163,235.800 267.162,237.027 267.085 C 238.254 267.008,237.148 266.945,234.570 266.946 C 231.992 266.947,230.988 267.010,232.340 267.086 M137.793 276.854 C 140.210 276.923,144.165 276.923,146.582 276.854 C 148.999 276.786,147.021 276.729,142.188 276.729 C 137.354 276.729,135.376 276.786,137.793 276.854 M156.553 276.849 C 157.472 276.932,158.878 276.930,159.678 276.846 C 160.478 276.763,159.727 276.695,158.008 276.696 C 156.289 276.698,155.635 276.767,156.553 276.849 M228.223 276.854 C 230.747 276.922,234.878 276.922,237.402 276.854 C 239.927 276.786,237.861 276.730,232.813 276.730 C 227.764 276.730,225.698 276.786,228.223 276.854 M262.022 276.849 C 262.941 276.932,264.347 276.930,265.147 276.846 C 265.947 276.763,265.195 276.695,263.477 276.696 C 261.758 276.698,261.103 276.767,262.022 276.849 M138.379 293.639 C 138.970 293.729,139.937 293.729,140.527 293.639 C 141.118 293.550,140.635 293.476,139.453 293.476 C 138.271 293.476,137.788 293.550,138.379 293.639 M154.204 299.886 C 154.690 299.979,155.393 299.976,155.766 299.878 C 156.140 299.780,155.742 299.704,154.883 299.708 C 154.023 299.712,153.718 299.792,154.204 299.886 M188.160 300.285 C 189.586 300.414,189.812 300.564,189.918 301.454 C 190.033 302.427,190.066 302.441,190.625 301.748 C 190.947 301.349,191.011 301.142,190.767 301.288 C 190.511 301.441,190.237 301.225,190.120 300.777 C 189.953 300.137,189.617 300.012,188.220 300.068 L 186.523 300.136 188.160 300.285 M193.848 303.785 C 194.224 303.883,194.839 303.883,195.215 303.785 C 195.591 303.687,195.283 303.606,194.531 303.606 C 193.779 303.606,193.472 303.687,193.848 303.785 M187.603 318.640 C 188.197 318.729,189.076 318.727,189.556 318.634 C 190.037 318.542,189.551 318.468,188.477 318.471 C 187.402 318.474,187.009 318.550,187.603 318.640 M174.707 319.019 C 175.083 319.118,175.698 319.118,176.074 319.019 C 176.450 318.921,176.143 318.841,175.391 318.841 C 174.639 318.841,174.331 318.921,174.707 319.019 " stroke="none" fill="#4d5d73" fill-rule="evenodd"></path><path id="path6" d="M186.426 81.519 C 186.802 81.618,187.417 81.618,187.793 81.519 C 188.169 81.421,187.861 81.341,187.109 81.341 C 186.357 81.341,186.050 81.421,186.426 81.519 M215.141 81.526 C 215.627 81.620,216.330 81.616,216.704 81.518 C 217.077 81.421,216.680 81.344,215.820 81.349 C 214.961 81.353,214.655 81.433,215.141 81.526 M197.363 108.494 C 199.243 108.566,202.319 108.566,204.199 108.494 C 206.079 108.422,204.541 108.364,200.781 108.364 C 197.021 108.364,195.483 108.422,197.363 108.494 M184.473 108.863 C 184.849 108.961,185.464 108.961,185.840 108.863 C 186.216 108.765,185.908 108.684,185.156 108.684 C 184.404 108.684,184.097 108.765,184.473 108.863 M215.332 108.863 C 215.708 108.961,216.323 108.961,216.699 108.863 C 217.075 108.765,216.768 108.684,216.016 108.684 C 215.264 108.684,214.956 108.765,215.332 108.863 M189.556 199.108 C 190.150 199.198,191.029 199.196,191.509 199.103 C 191.990 199.010,191.504 198.937,190.430 198.940 C 189.355 198.943,188.962 199.019,189.556 199.108 M207.525 199.108 C 208.119 199.198,208.998 199.196,209.478 199.103 C 209.958 199.010,209.473 198.937,208.398 198.940 C 207.324 198.943,206.931 199.019,207.525 199.108 M187.407 226.448 C 187.893 226.542,188.596 226.538,188.969 226.440 C 189.343 226.342,188.945 226.266,188.086 226.270 C 187.227 226.275,186.921 226.355,187.407 226.448 " stroke="none" fill="#648425" fill-rule="evenodd"></path><path id="path7" d="M249.347 297.461 C 249.349 298.965,249.419 299.532,249.504 298.722 C 249.588 297.911,249.587 296.681,249.501 295.987 C 249.414 295.294,249.345 295.957,249.347 297.461 M209.148 298.183 C 209.037 298.473,209.008 299.923,209.084 301.406 L 209.222 304.102 209.298 301.084 L 209.375 298.066 215.723 297.949 L 222.070 297.831 215.710 297.744 C 210.672 297.674,209.308 297.766,209.148 298.183 M243.918 309.180 C 243.919 314.336,243.974 316.391,244.042 313.747 C 244.110 311.103,244.109 306.884,244.042 304.372 C 243.974 301.860,243.918 304.023,243.918 309.180 M245.824 302.148 C 245.826 303.438,245.899 303.918,245.986 303.216 C 246.073 302.514,246.071 301.459,245.982 300.872 C 245.893 300.285,245.822 300.859,245.824 302.148 M249.373 309.570 C 249.373 312.578,249.435 313.757,249.509 312.190 C 249.583 310.623,249.583 308.162,249.508 306.721 C 249.433 305.280,249.372 306.563,249.373 309.570 M209.148 308.340 C 209.037 308.629,209.008 310.080,209.084 311.562 L 209.222 314.258 209.298 311.240 L 209.375 308.223 215.527 308.105 L 221.680 307.986 215.515 307.899 C 210.641 307.831,209.308 307.923,209.148 308.340 M225.781 314.966 C 225.781 315.033,226.353 315.604,227.051 316.236 L 228.320 317.383 227.173 316.113 C 226.104 314.930,225.781 314.664,225.781 314.966 " stroke="none" fill="#116f50" fill-rule="evenodd"></path></g></svg>