<svg xmlns="http://www.w3.org/2000/svg" width="400" height="400"><g fill-rule="evenodd"><path d="M183.203 81.682c-6.24.375-18.224 1.474-19.336 1.772-4.492 1.208-37.663 53.695-40.995 64.868-.465 1.558 7.067 16.775 14.171 28.631 5.624 9.387 18.952 28.711 19.802 28.711.543 0 16.163-25.337 15.882-25.763l-3.631-5.487c-4.146-6.264-8.33-13.211-12.081-20.059l-2.857-5.215 2.064-4.16c4.274-8.612 11-19.713 18.048-29.787l4.265-6.095 4.385-.246c9.03-.506 21.402-.671 27.954-.372l6.772.309 8.016-12.816c4.409-7.049 7.94-12.892 7.846-12.985-1.274-1.275-35.881-2.174-50.305-1.306m52.035 32.561c-4.342 6.944-7.894 12.762-7.894 12.929 0 .167 1.914 3.219 4.254 6.782 4.237 6.453 9.902 16.064 12.785 21.691l1.515 2.957-2.511 4.781c-5.259 10.013-11.883 20.85-18.227 29.82l-3.618 5.117-2.861.323c-1.573.177-10.419.346-19.658.373l-16.796.051-7.89 12.67c-5.192 8.338-7.73 12.752-7.422 12.912.561.292 8.955.971 19.413 1.57 8.53.489 30.356.242 36.524-.414 2.148-.229 6.164-.704 8.923-1.057l5.018-.64 2.887-3.627c12.569-15.788 24.952-35.512 34.97-55.7l2.842-5.727-.551-1.695c-1.019-3.134-9.541-19.6-13.816-26.695-5.452-9.049-18.444-28.089-19.693-28.861-.165-.102-3.853 5.496-8.194 12.44" fill="#cbfb0c"/><path d="M90.625 200v160.547h218.75V39.453H90.625V200M213.867 81.245c14.045.624 20.188 1.211 19.923 1.902-.125.325-3.765 6.228-8.089 13.117l-7.861 12.525h-17.026c-9.364 0-18.189.144-19.613.319l-2.588.319-2.725 3.782c-6.708 9.314-13.557 20.392-18.51 29.944l-3.065 5.911 2.884 5.284c3.538 6.482 8.713 15.032 12.789 21.129 1.683 2.518 3.061 4.691 3.061 4.829 0 .312-16.017 25.944-16.212 25.944-.34 0-8.944-12.121-13.296-18.731-7.771-11.802-15.703-26.031-19.996-35.866l-1.239-2.839 4.073-8.191c9.913-19.933 26.058-45.177 35.783-55.948l1.317-1.457 5.468-.572c14.642-1.529 30.746-2.032 44.922-1.401m36.136 29.158c10.737 15.016 20.936 32.497 26.535 45.481l1.274 2.955-3.367 6.725c-10.462 20.897-24.371 42.771-36.628 57.606-2.039 2.467-27.426 4.311-47.192 3.427-8.718-.389-24.259-1.507-24.514-1.762-.058-.058 3.546-5.956 8.009-13.107l8.114-13.001 15.426.027c8.484.015 17.265-.094 19.513-.242l4.087-.27 1.492-1.953c5.112-6.694 13.82-20.619 19.588-31.321l3.405-6.318-1.053-2.079c-3.343-6.605-9.221-16.513-14.29-24.09l-3.489-5.214 8.126-13.047 8.125-13.048.887 1.074c.489.591 3.167 4.261 5.952 8.157m-45.966 22.598c19.797 4.195 23.378 30.762 5.338 39.595-18.495 9.056-37.403-10.372-28.042-28.814 4.065-8.009 13.852-12.656 22.704-10.781m-16.805 120.322c1.041.373 1.805.871 1.713 1.117-.092.243-.46 1.454-.817 2.689-.725 2.506-.625 2.446-2.776 1.671-2.538-.914-7.5-.761-9.354.289-5.69 3.223-3.368 11.838 3.323 12.321 4.113.298 4.273.17 4.273-3.418 0-3.48-.344-3.16 4.015-3.735l1.867-.246-.109 5.202-.109 5.201-2.344 1.172c-7.216 3.608-17.559.117-19.886-6.713-3.732-10.954 7.946-19.943 20.204-15.55m-47.779 8.786v9.375h11.328v5.484l-8.691-.105-8.692-.105-.103-12.012-.103-12.012H139.453v9.375m21.783 2.637-.103 12.012-3.028.114-3.027.114v-24.252H161.339l-.103 12.012m39.936-4.252c0 9.212.804 10.99 4.967 10.99 4.178 0 5.189-2.224 5.189-11.419v-7.331h6.25v7.959c0 12.657-2.022 15.743-10.601 16.18-9.41.479-12.127-3.041-12.372-16.033l-.153-8.106h6.72v7.76m40.234-5.221v2.54h-11.328V261.694l4.59.11 4.59.11v5.078l-4.59.11-4.59.11v4.272H241.797V276.953h-17.969v-24.219h17.578v2.539m25.299 9.473-.103 12.012-3.028.114-3.027.114v-16.882l-2.543 1.35c-1.398.743-2.609 1.238-2.691 1.101-.428-.722-1.042-4.87-.76-5.135 1.745-1.638 8.337-4.657 10.199-4.67l2.056-.016-.103 12.012m-140.923 37.305c.001 11.039.662 12.657 5.341 13.067 5.219.456 6.377-1.946 6.377-13.226v-8.533h3.906v25.391h-1.953c-1.813 0-1.953-.069-1.953-.958v-.958l-2.034 1.056c-5.505 2.856-12.28-.23-13.555-6.174-.235-1.094-.427-5.672-.427-10.173v-8.184H125.781l.001 8.692m22.656-4.448v4.244l1.784-.904c6.71-3.397 14.309 1.063 14.309 8.398 0 7.22-7.545 11.806-14.093 8.565-1.848-.914-2-.935-2-.268 0 .605-.315.721-1.954.721h-1.953v-25h3.907v4.244m73.437-1.9v2.344h-12.5v5.859h12.109V308.203h-12.109v5.86h12.5v4.296h-17.578v-25h17.578v2.344m32.422 1.758V300h5.078V304.297h-5.078v4.646c0 5.247-.079 5.12 3.157 5.12h1.921v4.296h-3.34c-6.022 0-6.816-1.045-6.816-8.971v-5.091h-3.516V300h3.516v-5.078h5.078v2.539m-74.972 3.334c2.816 1.437 5.05 5.264 5.05 8.651v1.101h-7.227c-7.522 0-7.64.029-6.787 1.686 1.801 3.495 6.19 4.36 9.111 1.795l1.256-1.103 1.469.998 1.469.998-1.087 1.134c-4.928 5.144-13.989 3.187-16.36-3.533-2.828-8.013 5.602-15.555 13.106-11.727m58.077-.415c1.365.62 1.661.653 1.661.187 0-.437.58-.567 2.539-.567h2.539v18.359h-2.539c-2.012 0-2.539-.123-2.539-.594 0-.493-.276-.453-1.629.237-5.994 3.058-13.2-1.707-13.211-8.737-.012-6.921 7.037-11.673 13.179-8.885m36.828.108c1.897.958 3.504 3.001 3.504 4.453 0 1.54-3.965 1.356-5.468-.253-1.701-1.821-6.25-1.557-6.25.362 0 .875.315 1.006 4.763 1.977 5.663 1.236 7.569 2.734 7.487 5.883-.203 7.715-15.189 8.117-17.506.469-.463-1.531 3.996-1.297 5.586.293 1.955 1.954 7.092 1.54 7.092-.572 0-.657-.523-.858-5.222-2.01-6.635-1.625-8.791-4.297-6.713-8.317 1.581-3.056 8.678-4.33 12.727-2.285m-84.114.272c.197.754.212.754 1.618 0 2.734-1.465 3.969-1.094 3.969 1.193v1.953h-1.393c-3.416 0-4.076 1.487-4.076 9.189v5.698l-1.855-.119-1.856-.119-.105-8.781c-.058-4.829-.019-9.003.085-9.277.33-.86 3.377-.637 3.613.263m-37.587 2.767c-3.408 1.027-5.227 5.866-3.335 8.879 3.217 5.125 11.112 2.972 11.112-3.031 0-4.04-3.94-7.004-7.777-5.848m21.104.038c-1.662.497-3.711 2.459-3.711 3.553 0 .167 2.285.304 5.078.304 5.421 0 5.697-.115 4.468-1.869-1.147-1.638-3.885-2.571-5.835-1.988m57.796.685c-5.066 2.301-3.938 9.38 1.664 10.438.867.164 1.778-.015 2.938-.576 6.363-3.081 1.834-12.786-4.602-9.862" fill="#0c1c3c"/><path d="M194.336 133.542c-15.37 4.416-20.434 23.593-9.206 34.862 11.794 11.838 31.933 5.919 35.374-10.396 3.211-15.231-11.251-28.753-26.168-24.466m-17.249 119.184c-14.299 3.042-14.131 21.253.221 23.922 3.056.569 7.093-.015 10.024-1.449l2.121-1.038v-9.817l-2.051.247c-1.128.135-2.351.247-2.718.249-.567.003-.685.493-.781 3.226l-.114 3.223-1.89.365c-4.944.955-9.243-2.317-9.243-7.034 0-5.561 6.245-8.371 13.113-5.901l1.59.572.677-2.542c.373-1.397.624-2.583.559-2.635-1.4-1.116-8.666-1.992-11.508-1.388m-43.493 11.922v11.915H150.781V271.484h-11.328v-18.75h-5.859v11.914m21.484 0v11.915h5.86v-23.829h-5.86v11.914m39.914-3.418c.139 9.436.23 9.823 2.975 12.688 3.77 3.936 12.902 3.82 16.805-.213 2.336-2.413 2.575-3.523 2.731-12.67l.142-8.301h-5.82l-.248 1.813c-.137.996-.249 4.533-.249 7.858v6.046l-1.516 1.517c-1.825 1.824-4.355 2.102-6.613.725-2.132-1.3-2.418-2.567-2.418-10.72v-7.239h-5.914l.125 8.496m28.836 3.418v11.915h17.969V271.484H230.078V266.797h8.985v-4.688h-8.985v-4.296h11.328V252.734h-17.578v11.914m34.961-9.518c-2.363 1.307-4.336 2.412-4.384 2.454-.048.042.067.682.255 1.422.188.74.451 1.83.583 2.421l.241 1.076 2.325-1.173c1.279-.646 2.418-1.174 2.531-1.174.114 0 .207 3.692.207 8.203v8.204h5.859v-23.829l-1.66.01c-1.29.008-2.619.54-5.957 2.386m-136.914 47.266c0 10.057.203 11.073 2.727 13.678 2.891 2.984 7.97 3.582 11.362 1.338l1.536-1.017v.982c0 .918.127.982 1.953.982h1.953V293.75H137.5v8.731c0 10.814-.938 12.914-5.76 12.897-5.231-.018-6.118-1.845-6.284-12.937l-.13-8.691h-3.451v8.646m22.656 3.659v12.304h1.758c1.615 0 1.758-.079 1.758-.976 0-1.137.263-1.214 1.213-.354 4.224 3.823 12.999.946 14.729-4.828 2.496-8.331-7.076-15.633-14.177-10.814-.775.526-1.489.957-1.587.957-.098 0-.178-1.934-.178-4.297v-4.297h-3.516v12.305m26.742-5.13c-4.366 2.033-6.289 6.673-4.812 11.605 1.829 6.103 10.334 8.263 15.274 3.879l1.599-1.419-1.233-.878-1.233-.877-1.399 1.067c-3.471 2.647-8.43 1.179-9.712-2.876l-.278-.879H183.984l-.002-1.465c-.01-6.7-6.665-10.972-12.709-8.157m15.446 8.45v8.984H190.234v-5.878c0-7.525.694-8.965 4.316-8.965 1.085 0 1.153-.093 1.153-1.563v-1.562h-1.728c-1.289 0-2.033.257-2.929 1.011l-1.202 1.011v-1.011c0-.92-.142-1.011-1.563-1.011h-1.562v8.984m-29.267-5.362c5.189 3.497 3.471 10.978-2.638 11.488-5.277.44-8.619-5.652-5.408-9.861 1.962-2.572 5.563-3.3 8.046-1.627m20.776.123c1.046.779 2.241 2.511 2.241 3.248 0 .29-1.765.429-5.469.429-3.008 0-5.468-.132-5.467-.293.016-3.222 5.858-5.495 8.695-3.384" fill="#f9f9fa"/><path d="M204.557 293.62c-.143.143-.26 5.768-.26 12.5v12.239h17.578v-4.296h-12.923l.114-3.028.114-3.027 6.152-.108 6.152-.107v-3.887h-12.532l.114-3.027.114-3.027 6.347-.108 6.348-.107v-4.278h-8.529c-4.69 0-8.645.118-8.789.261m45.052 3.841V300H246.094V304.297H249.609v11.316l1.14 1.275c1.115 1.249 1.219 1.279 4.883 1.411l3.743.136V314.1l-2.441-.117-2.442-.116-.109-4.785-.11-4.785h5.102V300h-2.539c-2.508 0-2.539-.013-2.543-1.074-.003-.591-.114-1.734-.247-2.539l-.242-1.465h-4.195v2.539m-19.107 2.796c-3.437 1.26-6.283 5.357-6.283 9.045 0 6.582 7.002 11.305 12.835 8.658 2.041-.926 2.009-.923 2.009-.187 0 .456.52.586 2.343.586h2.344v-18.398l-2.246.117c-1.86.097-2.237.235-2.192.801.068.852.082.853-1.573-.124-1.833-1.081-5.044-1.302-7.237-.498m34.668-.055c-4.537 1.453-5.605 6.856-1.813 9.162.692.421 2.935 1.144 4.986 1.607 4.377.989 5.095 1.309 5.095 2.276 0 2.324-5.889 2.52-7.541.252-.886-1.216-4.959-1.539-4.959-.394 0 5.793 12.81 7.804 16.303 2.56 2.751-4.13.438-7.005-6.929-8.613-3.868-.844-4.88-1.408-4.466-2.487.714-1.859 6.008-1.6 6.89.338.455.997 4.998 1.519 4.998.574 0-4.309-6.745-7.14-12.564-5.275m-28.86 4.132c4.991 2.805 3.23 10.51-2.403 10.51-5.936 0-7.942-7.458-2.852-10.602 1.541-.952 3.458-.918 5.255.092" fill="#06c162"/><path d="M199.121 174.885a5.574 5.574 0 0 0 1.758 0c.483-.093.088-.169-.879-.169s-1.362.076-.879.169m-65.744 89.763c0 6.661.053 9.44.118 6.177s.066-8.712 0-12.109c-.065-3.397-.118-.728-.118 5.932m27.734 0c0 6.661.053 9.44.119 6.177.065-3.263.065-8.712 0-12.109-.065-3.397-.119-.728-.119 5.932m50.308-10.742c0 .752.08 1.06.178.684a3.183 3.183 0 0 0 0-1.367c-.098-.376-.178-.069-.178.683m55.161 10.742c0 6.661.053 9.44.118 6.177.066-3.263.066-8.712.001-12.109-.065-3.397-.119-.728-.119 5.932m-27.392-.195c0 1.397.07 1.968.157 1.27.087-.699.087-1.841 0-2.539-.087-.699-.157-.127-.157 1.269m-117.521 29.384c-.11.287-.148 4.032-.085 8.322l.115 7.802.089-8.106.089-8.105h3.5l.118 8.105.118 8.106-.013-8.203-.012-8.203-1.86-.12c-1.278-.082-1.921.044-2.059.402m24.814-.201 1.566.159v4.274c0 2.351.132 4.275.293 4.276.161 0 .205-1.977.098-4.395l-.196-4.395-1.663-.039-1.663-.038 1.565.158m40.015 15.739c0 5.049.056 7.114.124 4.59.068-2.525.068-6.655 0-9.18-.068-2.524-.124-.459-.124 4.59m-16.966-1.855c.001.161 2.506.261 5.568.222 5.692-.072 5.027-.228-1.759-.412-2.095-.057-3.809.028-3.809.19m-3.806 1.66c.004.859.084 1.165.177.679.094-.486.09-1.189-.008-1.563-.097-.373-.174.024-.169.884m-17.624 8.3c.046.93.076.956.223.19.098-.51.349-.774.593-.623.253.156.311.079.145-.19-.5-.809-1.015-.475-.961.623m-9.325 1.16c.594.089 1.473.087 1.953-.006.48-.092-.005-.166-1.08-.163-1.074.003-1.467.079-.873.169" fill="#848c9c"/><path d="M197.949 81.15c1.988.071 5.239.071 7.227 0 1.987-.07.361-.128-3.613-.128-3.975 0-5.601.058-3.614.128m.977 51.552a8.674 8.674 0 0 0 2.148 0c.591-.09.108-.163-1.074-.163-1.182 0-1.665.073-1.074.163m-13.99 6.068-1.147 1.269 1.27-1.147c1.183-1.07 1.449-1.392 1.147-1.392-.067 0-.639.571-1.27 1.27m.025 29.98c.839.859 1.614 1.563 1.721 1.563.107 0-.491-.704-1.33-1.563-.84-.859-1.614-1.562-1.721-1.562-.108 0 .491.703 1.33 1.562m29.669.098-1.544 1.66 1.66-1.544c1.544-1.436 1.84-1.776 1.544-1.776-.064 0-.811.747-1.66 1.66m-18.809 30.272c2.106.07 5.446.07 7.422-.001 1.976-.071.253-.128-3.829-.128s-5.699.058-3.593.129m2.714 27.733a108.2 108.2 0 0 0 6.836 0c1.88-.071.342-.13-3.418-.13-3.76 0-5.298.059-3.418.13m-3.841 33.108c0 4.082.058 5.699.129 3.593.07-2.106.07-5.446-.001-7.422-.071-1.976-.128-.253-.128 3.829m6.25 0c0 4.082.058 5.699.129 3.593.07-2.106.07-5.446-.001-7.422-.071-1.976-.128-.253-.128 3.829m-20.959-1.872c.486.093 1.189.09 1.563-.008.373-.098-.025-.174-.884-.17-.859.004-1.165.084-.679.178m52.355 3.919c1.351.077 3.46.076 4.687-.001 1.227-.077.121-.14-2.457-.139-2.578.001-3.582.064-2.23.14m-48.61 5.961c0 1.826.068 2.573.15 1.66.082-.913.082-2.407 0-3.32-.082-.913-.15-.166-.15 1.66m48.61-.883c1.351.077 3.46.076 4.687-.001 1.227-.077.121-.14-2.457-.139-2.578.001-3.582.064-2.23.14m-94.547 9.768c2.417.069 6.372.069 8.789 0 2.417-.068.439-.125-4.394-.125-4.834 0-6.812.057-4.395.125m18.76-.005c.919.083 2.325.081 3.125-.003.8-.083.049-.151-1.67-.15-1.719.002-2.373.071-1.455.153m71.67.005c2.524.068 6.655.068 9.179 0 2.525-.068.459-.124-4.589-.124-5.049 0-7.115.056-4.59.124m33.799-.005c.919.083 2.325.081 3.125-.003.8-.083.048-.151-1.67-.15-1.719.002-2.374.071-1.455.153m-123.643 16.79c.591.09 1.558.09 2.148 0 .591-.089.108-.163-1.074-.163-1.182 0-1.665.074-1.074.163m15.825 6.247c.486.093 1.189.09 1.562-.008.374-.098-.024-.174-.883-.17-.86.004-1.165.084-.679.178m33.956.399c1.426.129 1.652.279 1.758 1.169.115.973.148.987.707.294.322-.399.386-.606.142-.46-.256.153-.53-.063-.647-.511-.167-.64-.503-.765-1.9-.709l-1.697.068 1.637.149m5.688 3.5c.376.098.991.098 1.367 0s.068-.179-.684-.179-1.059.081-.683.179m-6.245 14.855c.594.089 1.473.087 1.953-.006.481-.092-.005-.166-1.079-.163-1.075.003-1.468.079-.874.169m-12.896.379c.376.099.991.099 1.367 0 .376-.098.069-.178-.683-.178s-1.06.08-.684.178" fill="#4d5d73"/><path d="M186.426 81.519c.376.099.991.099 1.367 0 .376-.098.068-.178-.684-.178s-1.059.08-.683.178m28.715.007c.486.094 1.189.09 1.563-.008.373-.097-.024-.174-.884-.169-.859.004-1.165.084-.679.177m-17.778 26.968a108.2 108.2 0 0 0 6.836 0c1.88-.072.342-.13-3.418-.13-3.76 0-5.298.058-3.418.13m-12.89.369c.376.098.991.098 1.367 0s.068-.179-.684-.179-1.059.081-.683.179m30.859 0c.376.098.991.098 1.367 0s.069-.179-.683-.179-1.06.081-.684.179m-25.776 90.245c.594.09 1.473.088 1.953-.005.481-.093-.005-.166-1.079-.163-1.075.003-1.468.079-.874.168m17.969 0c.594.09 1.473.088 1.953-.005s-.005-.166-1.08-.163c-1.074.003-1.467.079-.873.168m-20.118 27.34c.486.094 1.189.09 1.562-.008.374-.098-.024-.174-.883-.17-.859.005-1.165.085-.679.178" fill="#648425"/><path d="M249.347 297.461c.002 1.504.072 2.071.157 1.261.084-.811.083-2.041-.003-2.735-.087-.693-.156-.03-.154 1.474m-40.199.722c-.111.29-.14 1.74-.064 3.223l.138 2.696.076-3.018.077-3.018 6.348-.117 6.347-.118-6.36-.087c-5.038-.07-6.402.022-6.562.439m34.77 10.997c.001 5.156.056 7.211.124 4.567s.067-6.863 0-9.375c-.068-2.512-.124-.349-.124 4.808m1.906-7.032c.002 1.29.075 1.77.162 1.068.087-.702.085-1.757-.004-2.344-.089-.587-.16-.013-.158 1.276m3.549 7.422c0 3.008.062 4.187.136 2.62.074-1.567.074-4.028-.001-5.469-.075-1.441-.136-.158-.135 2.849m-40.225-1.23c-.111.289-.14 1.74-.064 3.222l.138 2.696.076-3.018.077-3.017 6.152-.118 6.153-.119-6.165-.087c-4.874-.068-6.207.024-6.367.441m16.633 6.626c0 .067.572.638 1.27 1.27l1.269 1.147-1.147-1.27c-1.069-1.183-1.392-1.449-1.392-1.147" fill="#116f50"/></g></svg>