<svg xmlns="http://www.w3.org/2000/svg" width="400" height="400"><g fill-rule="evenodd"><path d="M94 12.4c0 7.904.143 12.4.395 12.4.259 0 .454 23.2.565 66.9.108 42.716.322 68.491.593 71.3.801 8.326.918 9.201 1.282 9.58.201.209.365 1.143.365 2.076s.161 1.796.358 1.918c.197.121.452.897.568 1.723.28 2.008.665 3.729 1.052 4.703.174.44.71 2.06 1.19 3.6s1.026 3.16 1.214 3.6c.187.44.75 1.88 1.252 3.2 1.089 2.87 4.589 10.083 6.112 12.6.599.99 1.192 2.115 1.318 2.5.126.385.388.7.583.7.194 0 .353.193.353.428 0 .402 2.258 3.937 2.793 4.372.135.11.678.83 1.207 1.6.529.77 1.069 1.49 1.2 1.6.978.82 2 2.947 2 4.162 0 1.036.174 1.438.624 1.438.343 0 .541.135.442.3-.237.391.774 1.326 1.091 1.009.134-.133.243-.058.243.168s1.53 1.976 3.4 3.888c1.87 1.913 3.4 3.604 3.4 3.759 0 .154.558.528 1.24.83.925.409 1.103.636.7.891-.405.257-.341.347.26.362.975.023 2.661 1.179 1.776 1.218-.317.014-.167.19.333.391s1.014.639 1.143.974c.128.336.495.61.814.61.32 0 .482.161.36.358-.233.377.758.938 1.774 1.003.33.022.559.253.508.515-.05.261.282.594.74.739.457.145 1.173.606 1.591 1.024.419.419 1.031.761 1.361.761.33 0 .6.18.6.4 0 .22.27.4.6.4.33 0 .6.18.6.4 0 .22.26.4.577.4.318 0 .858.4 1.2.889.343.489.623.75.623.58 0-.171.622.165 1.383.745.76.58 1.551.95 1.758.823.206-.128.469.012.584.311.115.299 1.028.786 2.03 1.082 1.148.339 1.641.652 1.333.848-.34.216-.28.312.2.316.378.003 1.306.353 2.062.778.755.424 1.476.668 1.602.542.126-.125.343.067.481.429.139.361.683.657 1.21.657.526 0 .957.21.957.467 0 .256.105.361.234.232.313-.313 2.603.474 3.416 1.174.357.308.807.532 1 .496 1.848-.338 1.733-2.829 1.746 37.831l.012 37.8-16.004.02c-22.513.028-21.906.016-23.532.483-.81.233-1.877.397-2.372.365-.495-.033-.9.119-.9.336 0 .218-.435.396-.967.396-.531 0-1.026.163-1.1.362-.073.199-.673.424-1.333.5-.66.076-1.435.453-1.723.838-.287.385-.872.7-1.3.7-.427 0-.777.18-.777.4 0 .22-.45.4-1 .4s-1 .18-1 .4c0 .22-.251.4-.557.4-.307 0-.658.261-.78.58-.123.32-1.177 1.128-2.343 1.797-1.166.668-1.85 1.22-1.52 1.225.52.009.522.059.019.378-.319.202-.769.26-1 .129-.23-.13-.293-.097-.138.074.274.305-.455 1.302-.91 1.246-.384-.049-1.571 1.285-1.571 1.766 0 .249-.208.324-.462.167-.288-.178-.353-.11-.173.182.165.267-.228 1.022-.918 1.762-2.482 2.661-3.246 3.716-3.255 4.494-.006.44-.347 1.239-.759 1.775-.413.537-.659 1.212-.549 1.5.115.299-.075.525-.441.525-.419 0-.643.348-.643 1 0 .55-.16 1-.356 1-.195 0-.347.225-.337.5.054 1.434-.148 2.322-.48 2.116-.207-.127-.318.264-.248.877.069.609-.077 1.359-.326 1.668-.32.396-.488 6.422-.571 20.5L93.963 400H200V276.8c0-81.968-.134-123.2-.4-123.2-.372 0-9.352 4.526-25.8 13.002-19.61 10.107-18.171 9.452-18.437 8.394-.131-.523-.134-1.12-.006-1.327.128-.207.43-1.612.67-3.123.241-1.51.596-3.646.789-4.746.194-1.1.555-3.17.802-4.6.248-1.43.614-3.5.815-4.6.2-1.1.551-3.08.78-4.4.228-1.32.583-3.3.787-4.4.204-1.1.559-3.08.787-4.4.229-1.32.594-3.39.811-4.6a549.824 549.824 0 0 0 1.562-9.2l.352-2.2-4.265-4.2c-4.823-4.749-9.381-9.121-20.029-19.207-11.456-10.852-11.715-11.112-11.469-11.511.128-.207 1.092-.494 2.142-.639 2.24-.308 6.449-.913 10.109-1.453 1.43-.211 3.86-.557 5.4-.768 1.54-.211 4.15-.584 5.8-.829 1.65-.245 4.08-.595 5.4-.777 1.32-.182 6.584-.922 11.699-1.645l9.298-1.314 1.463-2.828a283.974 283.974 0 0 0 1.801-3.529l.679-1.4c.188-.385 4.418-8.76 9.4-18.612L200 40.776V0H94v12.4M.081 73.78c.094 38.522.226 49.087.619 49.48.275.275.5 1.083.5 1.796 0 .713.18 1.408.4 1.544.22.136.4.831.4 1.544 0 .713.179 1.475.398 1.694.218.218.437.871.485 1.451.047.579.229.966.402.859.173-.108.315.265.315.828S3.78 134 4 134c.22 0 .4.414.4.92s.225 1.162.5 1.459c.402.433.396.48-.03.238-.625-.355.224 1.358.93 1.877.22.162.244.297.054.3-.19.003-.055.45.3.992s.646 1.363.646 1.824c0 .46.153.743.34.627.188-.116.585.549.884 1.476.298.928.671 1.779.827 1.891.157.112.344.465.417.784.073.319.451.941.842 1.382.39.441.621 1.033.512 1.316-.108.283.078.514.414.514.336 0 .5.18.364.4-.136.22-.06.4.169.4s.525.437.659.971c.134.533.584 1.277.999 1.653.415.376.673.814.575.974-.099.159.714 1.26 1.806 2.446 1.093 1.186 1.988 2.289 1.99 2.453.001.163.54.81 1.197 1.438.657.628 1.091 1.245.965 1.371-.126.127.236.535.805.908.569.373 1.035.897 1.035 1.164 0 .268.444.724.986 1.015.543.29.892.68.777.867-.116.187.076.34.426.34s.755.315.901.7c.379 1.001 1.153 1.7 1.881 1.7.346 0 .629.274.629.61 0 .335.441.777.979.982.539.205 1.279.83 1.646 1.39.367.56.916 1.018 1.221 1.018.305 0 .554.168.554.373s.405.501.9.657c.495.157 1.135.619 1.423 1.027.287.409.86.743 1.273.743.412 0 .864.36 1.004.8.14.44.602.8 1.027.8.425 0 .773.18.773.4 0 .22.234.4.52.4.736 0 2.673.941 2.677 1.3.002.165.239.3.528.3.288 0 .918.367 1.4.816.481.448.875.69.875.538 0-.153.315.007.7.356.685.619.861.69 1.724.69.233 0 .295.208.138.462-.177.286-.11.353.176.176.782-.483.646-29.438-.138-29.438-.33 0-.6-.18-.6-.4 0-.22-.315-.403-.7-.406-.598-.005-.613-.063-.1-.394.52-.336.511-.389-.063-.394-.76-.007-6.337-5.19-6.337-5.89 0-.254-.36-.576-.8-.716-.44-.14-.8-.503-.8-.807 0-.304-.225-.697-.5-.873-.793-.507-2.194-2.309-1.5-1.929.33.181-.02-.328-.778-1.131-.759-.803-1.209-1.465-1-1.472.208-.007.063-.196-.322-.42-.385-.224-.7-.663-.7-.976 0-.312-.385-1.248-.857-2.08-2.451-4.328-2.746-4.912-2.476-4.912.161 0 .077-.216-.187-.48s-.48-.815-.48-1.224c0-.409-.15-.651-.333-.538-.324.201-1.565-3.663-1.367-4.258.055-.165-.08-.3-.3-.3-.22 0-.4-.414-.4-.92s-.168-1.091-.374-1.3c-.206-.209-.431-1.432-.5-2.718s-.228-2.401-.353-2.479c-.125-.077-.191-1.793-.146-3.812.049-2.169-.058-3.446-.261-3.121-.192.309-.35-12.735-.359-29.75l-.016-30.3H47.2v-24H-.038l.119 48.98" fill="#fcdb2b"/><path d="m200.31 20.9-.11 20.9-2.653 5.2c-1.459 2.86-6.376 12.58-10.926 21.6-9.526 18.884-8.332 17.074-11.52 17.466-1.376.169-3.851.509-5.501.755-1.65.246-4.17.597-5.6.779-1.43.182-3.905.527-5.5.766-1.595.239-4.16.614-5.7.834l-5.6.8a2579.78 2579.78 0 0 1-11.6 1.644c-1.65.229-3.984.538-5.186.686l-2.185.27 1.846 1.817c1.015.999 4.873 4.689 8.574 8.2 3.701 3.511 8.803 8.375 11.34 10.809a2063.47 2063.47 0 0 0 8.175 7.8c5.806 5.496 6.031 5.756 5.9 6.823-.084.69-2.24 13.135-2.901 16.751-.222 1.21-.589 3.28-.817 4.6-.228 1.32-.577 3.3-.776 4.4-.199 1.1-.545 3.08-.767 4.4-.394 2.334-.886 5.11-1.631 9.2-.653 3.585-1.121 7.184-.956 7.349.089.089 1.382-.474 2.873-1.25 5.622-2.929 14.66-7.575 24.911-12.806 5.83-2.975 11.667-5.963 12.971-6.641 1.782-.927 2.501-1.124 2.9-.793.437.362.529 21.902.529 123.59V400H306v-18.587c0-17.112-.052-18.568-.66-18.335-.581.223-.628.008-.39-1.786.222-1.675.151-2.108-.396-2.414-.456-.255-.604-.706-.467-1.423.119-.619-.022-1.235-.343-1.501-.738-.613-.684-1.059.156-1.278.648-.17.649-.187.013-.23-.447-.03-.605-.262-.451-.662.15-.393.036-.574-.313-.5-.331.07-.502-.162-.431-.584.064-.385-.071-.7-.3-.7-.23 0-.415-.315-.412-.7.005-.604.064-.618.431-.1.377.533.406.533.26 0-.09-.33-.416-.6-.725-.6s-.618-.36-.688-.8c-.105-.66-.054-.695.288-.2.617.89.515.258-.17-1.054-.582-1.118-.597-1.122-.6-.179-.002.818-.533.902-.637.1-.082-.634-.741-1.891-1.136-2.167-.289-.202-.233-.429.171-.694.49-.322.44-.395-.272-.4-.598-.004-.913-.289-1-.906-.089-.623-.356-.861-.868-.773-.444.076-.635-.044-.477-.3.146-.235.074-.427-.159-.427-.233 0-.424-.274-.424-.61 0-.335-.45-.781-1-.99-.55-.209-1-.655-1-.99 0-.336-.253-.61-.563-.61-.365 0-.489-.28-.353-.8.212-.809-.117-.973-1.628-.814-.444.047-.636-.095-.476-.353.148-.24-.011-.433-.356-.433-.343 0-.624-.18-.624-.4 0-.22-.315-.413-.7-.428-.599-.024-.584-.078.1-.372.704-.303.666-.347-.321-.372-1.211-.03-4.045-1.729-3.61-2.163.145-.146-.316-.265-1.026-.265-.883 0-1.199-.148-1.001-.468.196-.318.068-.383-.399-.204-.449.173-1.032-.081-1.683-.732-1.084-1.084-1.764-1.364-.96-.396.408.492.379.6-.164.6-.363 0-.764-.269-.89-.597-.153-.399-.54-.519-1.165-.362-1.26.316-2.213-.261-1.154-.699.468-.194-.331-.285-2.027-.231-2.064.066-2.774-.043-2.7-.411.079-.394-3.794-.5-18.304-.5h-18.404l.012-37.819c.008-26.25.14-37.739.431-37.559.23.142.508-.082.617-.499.158-.606.492-.728 1.673-.614 1.153.112 1.344.046.875-.301-.507-.375-.476-.434.2-.38 1.941.155 2.683-.057 2.884-.828.153-.583.549-.802 1.463-.806.956-.005 1.111-.098.653-.394-.491-.317-.445-.389.251-.394.468-.003 1.073-.274 1.345-.602.272-.327.642-.504.822-.393.18.111.44.019.578-.204.138-.224.561-.407.939-.407.379 0 .948-.36 1.265-.8.646-.896 1.827-1.062 2.135-.3.111.275.216.074.233-.447.025-.731.207-.9.802-.745.54.141.707.036.557-.353-.128-.335.049-.555.447-.555.363 0 1.046-.36 1.518-.8.472-.44 1.095-.8 1.383-.8.289 0 .525-.18.525-.4 0-.22.371-.4.824-.4.453 0 .712-.18.576-.4-.136-.22.033-.4.376-.4.343 0 .624-.199.624-.443 0-.243.255-.345.567-.225a.612.612 0 0 0 .787-.357c.122-.316.452-.572.733-.569.364.004.338.13-.087.431-.533.377-.533.404 0 .243.33-.099.549-.401.486-.672-.128-.551.629-1.608 1.15-1.608.187 0 .238.315.114.7-.138.427-.094.528.112.26.186-.242.748-.656 1.249-.92.501-.264.801-.659.666-.878-.407-.658.591-1.493 1.538-1.286.557.122.709.066.409-.15-.342-.247-.195-.566.525-1.135.551-.435 1.627-1.421 2.391-2.19 1.172-1.18 1.456-1.306 1.81-.8.331.473.376.403.214-.333-.15-.678-.056-.874.345-.72.378.145.472.008.301-.438-.184-.48-.08-.584.4-.4.457.176.583.078.427-.33-.225-.586.454-.835.764-.28.092.165.109.066.038-.221-.15-.601 4.841-5.765 5.213-5.393.137.136.248-.053.248-.419 0-.367.18-.667.4-.667.22 0 .4-.345.4-.767 0-.421.159-.826.354-.9.624-.234 8.446-11.099 8.446-11.731 0-.142.511-1.01 1.135-1.93.624-.92 1.388-2.257 1.697-2.972.31-.715.699-1.3.866-1.3.166 0 .302-.36.302-.8 0-.44.18-.8.4-.8.22 0 .4-.36.4-.8 0-.44.18-.8.4-.8.22 0 .4-.36.4-.8 0-.44.18-.8.4-.8.22 0 .4-.324.4-.72 0-.396.152-.891.339-1.1.186-.209.923-1.91 1.638-3.78.714-1.87 1.444-3.76 1.621-4.2.535-1.333 1.915-6.229 2.593-9.2.351-1.54.799-3.43.996-4.2.196-.77.538-2.66.758-4.2.221-1.54.593-4.108.828-5.707.29-1.972.427-24.971.427-71.477 0-45.281.136-68.653.4-68.816.253-.156.4-4.804.4-12.624V0H200.421l-.111 20.9M47.777 36.6c0 6.6.055 9.356.122 6.125.067-3.232.067-8.632 0-12-.067-3.369-.122-.725-.122 5.875m304.717.1.106 11.9 11.9.106 11.9.106v29.17c0 20.202-.131 29.252-.426 29.434-.234.145-.395.74-.358 1.324.185 2.869-.057 8.082-.367 7.89-.193-.119-.461.725-.596 1.877-.422 3.594-.73 5.093-1.012 4.919-.149-.093-.311.306-.358.885-.048.58-.267 1.233-.485 1.451-.219.219-.398.812-.398 1.318s-.18.92-.4.92c-.22 0-.4.349-.4.776 0 .427-.18.888-.4 1.024-.22.136-.4.597-.4 1.024 0 .427-.18.776-.4.776-.22 0-.4.36-.4.8 0 .44-.18.8-.4.8-.22 0-.4.36-.4.8 0 .44-.18.8-.4.8-.22 0-.4.27-.4.6 0 .33-.146.6-.325.6-.179 0-.573.63-.875 1.4-.302.77-.673 1.4-.825 1.4-.151 0-.523.51-.825 1.133-.602 1.241-2.514 3.662-4.85 6.139-.825.875-1.5 1.787-1.5 2.026 0 .24-.097.338-.216.22-.118-.119-1.025.571-2.015 1.533-.99.962-1.945 1.749-2.123 1.749-.178 0-.756.375-1.285.833l-.961.833-.123 13.267c-.111 11.929.087 16.997.608 15.567.1-.275.439-.5.754-.5.528 0 2.095-.734 2.561-1.2.396-.396 2.615-1.654 3.3-1.871.385-.122.7-.381.7-.576 0-.194.36-.353.8-.353.44 0 .8-.18.8-.4 0-.22.225-.407.5-.416.275-.009 1.123-.549 1.885-1.2.762-.651 1.617-1.184 1.9-1.184.283 0 .515-.141.515-.314 0-.172.498-.608 1.106-.967.609-.359 1.565-1.073 2.126-1.586a30.897 30.897 0 0 1 2.069-1.71c.578-.427.944-.95.813-1.162-.131-.211-.063-.277.149-.145.408.252 5.737-4.667 5.737-5.296 0-.202.855-1.255 1.9-2.341 2.675-2.779 4.084-4.586 4.093-5.246.004-.311.124-.449.268-.306.143.144.503-.186.8-.733l1.078-1.988c.297-.547.657-.877.8-.733.144.143.261.054.261-.199 0-.252.66-1.49 1.467-2.751.806-1.261 1.466-2.525 1.466-2.808 0-.283.15-.515.334-.515.183 0 .333-.36.333-.8 0-.44.18-.8.4-.8.22 0 .4-.234.4-.52 0-.736.941-2.673 1.3-2.677.165-.002.3-.453.3-1.003 0-.55.147-1 .328-1 .18 0 .572-.9.872-2 .3-1.1.692-2 .872-2 .181 0 .328-.529.328-1.176 0-.647.18-1.288.4-1.424.22-.136.4-.676.4-1.2 0-.524.18-1.064.4-1.2.22-.136.4-.967.4-1.847s.145-1.51.323-1.4c.178.109.368-.548.421-1.461.054-.914.314-1.921.577-2.238.365-.439.507-12.208.595-49.315l.117-48.739H352.388l.106 11.9M94.492 93c-.062 43.561.046 69.078.302 71 .22 1.65.504 3.871.633 4.937.128 1.065.314 1.856.412 1.757.098-.098-.039-1.689-.305-3.536-.355-2.47-.544-21.705-.714-72.758L94.589 25l-.097 68m108.126-46.486c9.287 18.8 19.597 38.699 20.135 38.861.356.107 2.177.393 4.047.636 1.87.243 4.48.598 5.8.788 5 .723 8.888 1.273 11.4 1.615 1.43.194 3.86.535 5.4.757 1.54.221 4.15.587 5.8.813 10.027 1.373 16.503 2.385 16.734 2.617.146.146-.724 1.173-1.934 2.282-1.21 1.108-4.003 3.748-6.206 5.866a3099.175 3099.175 0 0 1-8 7.657c-18.508 17.635-19.804 18.932-19.587 19.616.216.681.656 3.071 1.393 7.578.198 1.21.541 3.19.763 4.4.472 2.582 1.759 9.976 2.82 16.2.412 2.42 1.323 7.607 2.024 11.526.701 3.919 1.18 7.221 1.063 7.337-.242.242-2.182-.708-17.87-8.76-6.27-3.218-14.73-7.558-18.8-9.645l-7.4-3.795-.101-55.231c-.056-30.378.034-55.226.2-55.218.165.007 1.209 1.852 2.319 4.1M47.779 168c0 7.37.054 10.385.12 6.7a453.46 453.46 0 0 0 0-13.4c-.066-3.685-.12-.67-.12 6.7m48.296 4.6c-.01.66.136 1.56.325 2l.344.8-.019-.8c-.011-.44-.157-1.34-.325-2l-.305-1.2-.02 1.2m.771 4c-.019.66.141 1.47.354 1.8.49.758.49-.47 0-2-.314-.98-.321-.976-.354.2m.822 3.2c-.006.44.143 1.16.332 1.6.438 1.019.438-.032 0-1.4-.257-.804-.323-.843-.332-.2m.766 3.2c-.012.44.153 1.07.366 1.4.514.795.514-.204 0-1.4l-.344-.8-.022.8m.778 2.6c0 .33.175.87.388 1.2.345.533.388.533.388 0 0-.33-.175-.87-.388-1.2-.345-.533-.388-.533-.388 0m.8 2.4c0 .33.175.87.388 1.2.345.533.388.533.388 0 0-.33-.175-.87-.388-1.2-.345-.533-.388-.533-.388 0m1.616 4.092c-.046.473 1.258 3.556 1.43 3.383.087-.087-.192-.95-.621-1.917-.429-.967-.793-1.627-.809-1.466m2.47 6.208c1.378 2.837 2.055 4.081 2.162 3.973.168-.168-1.868-4.273-2.119-4.273-.104 0-.123.135-.043.3m3.364 6.6c.612 1.155 1.794 3.148 2.625 4.428.832 1.281 1.513 2.481 1.513 2.667 0 .186.147.398.328.472.18.073 1.116 1.303 2.081 2.733 2.336 3.464 4.391 6.141 4.391 5.72 0-.188-.743-1.327-1.652-2.531-2.528-3.35-6.841-9.879-8.515-12.889-1.765-3.173-2.392-3.661-.771-.6" fill="#fcbc04"/><path d="M48 36.52c0 7.365-.15 11.87-.404 12.124-.271.271-.338 17.878-.202 53.18.248 64.368.248 65.414 0 138.276-.178 52.428-.134 58.7.411 58.7.335 0 1.743-1.125 3.129-2.5a177.314 177.314 0 0 1 4.392-4.208c1.031-.94 1.874-1.885 1.874-2.1 0-.216.156-.392.346-.392.191 0 2.195-1.8 4.454-4s4.263-4 4.454-4c.19 0 .301-.168.246-.372-.055-.205.52-.835 1.278-1.4.757-.566 1.261-1.028 1.118-1.028-.143 0 .19-.45.74-1s1.172-1 1.382-1c.21 0 .382-.153.382-.341 0-.188.994-1.313 2.209-2.5a871.384 871.384 0 0 0 5.563-5.512l3.354-3.352 17.258 17.252c9.493 9.489 17.519 17.253 17.837 17.253.501 0 .579-5.264.579-39.169v-39.17l-1.319-1.73c-.725-.952-2.108-2.901-3.072-4.331-.965-1.43-1.901-2.66-2.081-2.733a.558.558 0 0 1-.328-.472c0-.186-.683-1.386-1.517-2.667-.835-1.28-2.126-3.498-2.87-4.928-.744-1.43-1.647-3.14-2.006-3.8-.358-.66-1.327-2.82-2.152-4.8-.825-1.98-1.662-3.96-1.861-4.4-2.123-4.708-4.546-14.439-6.076-24.4-.29-1.887-.479-25.524-.581-72.5l-.15-69.7H48v11.72m304.177-.12c0 6.49.055 9.145.122 5.9.067-3.245.067-8.555 0-11.8-.067-3.245-.122-.59-.122 5.9m-46.881 57.293c-.064 46.099-.236 69.648-.523 71.6-.235 1.599-.607 4.167-.828 5.707-.429 2.995-.452 3.099-2.347 10.4-1.955 7.531-1.968 8.82-.025 2.516.455-1.476.827-3.13.827-3.676 0-.546.161-1.092.358-1.214.197-.121.459-.897.584-1.723.125-.827.421-2.583.658-3.903.238-1.32.629-3.57.871-5 .448-2.657.853-81.994.629-123.4-.059-11-.151 10.912-.204 48.693m-105.197 3.939.101 55.231 7.4 3.795c4.07 2.087 12.53 6.427 18.8 9.645 15.688 8.052 17.628 9.002 17.87 8.76.117-.116-.362-3.418-1.063-7.337-.701-3.919-1.612-9.106-2.024-11.526-1.061-6.224-2.348-13.618-2.82-16.2-.222-1.21-.565-3.19-.763-4.4-.737-4.507-1.177-6.897-1.393-7.578-.217-.684 1.079-1.981 19.587-19.616 2.197-2.094 5.797-5.539 8-7.657 2.203-2.118 4.996-4.758 6.206-5.866 1.21-1.109 2.08-2.136 1.934-2.282-.231-.232-6.707-1.244-16.734-2.617a1107.9 1107.9 0 0 1-5.8-.813c-1.54-.222-3.97-.563-5.4-.757-2.512-.342-6.4-.892-11.4-1.615-1.32-.19-3.93-.545-5.8-.788-1.87-.243-3.691-.529-4.047-.636-.538-.162-10.848-20.061-20.135-38.861-1.11-2.248-2.154-4.093-2.319-4.1-.166-.008-.256 24.84-.2 55.218m151.99 70.168c-.042 7.26.055 13.408.217 13.663.268.422.251-14.5-.026-23.263-.063-1.98-.149 2.34-.191 9.6m-52.718 21.243c-.708 2.161-2.738 7.206-3.032 7.537-.187.209-.339.704-.339 1.1 0 .396-.18.72-.4.72-.22 0-.4.36-.4.8 0 .44-.18.8-.4.8-.22 0-.4.36-.4.8 0 .44-.18.8-.4.8-.22 0-.4.36-.4.8 0 .44-.136.8-.302.8-.167 0-.556.585-.866 1.3-.309.715-1.073 2.052-1.697 2.972-.624.92-1.135 1.788-1.135 1.93 0 .292-4.679 7.107-6.679 9.729-.727.951-1.321 1.939-1.321 2.194 0 .256.632-.433 1.404-1.53a124.586 124.586 0 0 1 2.798-3.795c.767-.99 1.557-2.167 1.755-2.616.198-.449.648-1.057 1.001-1.349.353-.293.642-.708.642-.922 0-.214.339-.867.753-1.451 3.193-4.502 10.624-20.419 9.879-21.163-.117-.117-.325.127-.461.544" fill="#fc9404"/><path d="M305.459 95.3c-.102 48.782-.283 71.301-.587 73.1-.242 1.43-.634 3.68-.872 5-.237 1.32-.533 3.076-.658 3.903-.125.826-.387 1.602-.584 1.723-.197.122-.358.668-.358 1.214 0 4.168-8.075 23.254-12.447 29.422-.414.584-.753 1.237-.753 1.451 0 .214-.289.629-.642.922-.353.292-.803.9-1.001 1.349-.198.449-.988 1.626-1.755 2.616-.767.99-2.026 2.698-2.798 3.795l-1.404 1.994v38.506c0 41.185-.068 39.744 1.792 38.005 7.166-6.699 12.773-12.132 22.11-21.426 11.246-11.195 11.387-11.317 12.205-10.6.455.399 8.375 8.269 17.599 17.488 12.687 12.68 16.857 16.625 17.128 16.2.207-.327.276-25.26.164-59.562-.105-32.45-.192-65.03-.192-72.4 0-7.37.003-37.25.008-66.4.005-29.15-.091-58.355-.214-64.9l-.223-11.9h-46.37l-.148 70.5M73.626 274.122l-.975 1.278 1.275-1.175c1.325-1.222 1.477-1.44.974-1.403-.165.012-.738.597-1.274 1.3m19.26 1.624c.503.521.988.882 1.078.803.233-.204-1.216-1.749-1.64-1.749-.194 0 .059.426.562.946M60.4 287c-.517.55-.81 1-.652 1 .159 0 .738-.45 1.288-1s.844-1 .652-1c-.192 0-.771.45-1.288 1m44.964 1.2c.55.55 1.129 1 1.288 1 .158 0-.135-.45-.652-1s-1.096-1-1.288-1c-.192 0 .102.45.652 1m3.922 3.946c.503.521.988.882 1.078.803.233-.204-1.216-1.749-1.64-1.749-.194 0 .059.426.562.946m7.146 6.905c-.057.807 1.141 1.536 1.665 1.012.351-.351.258-.463-.384-.463-.465 0-.937-.225-1.048-.5-.127-.314-.214-.332-.233-.049" fill="#fc641c"/><path d="M200.088 20.288 200 40.776l-9.06 17.912c-4.982 9.852-9.184 18.182-9.337 18.512-.392.847-.874 1.799-2.543 5.029l-1.463 2.828-9.298 1.314c-5.115.722-10.559 1.486-12.099 1.697-1.54.212-3.97.561-5.4.777-1.43.215-3.86.565-5.4.776-1.54.212-3.97.558-5.4.769-3.66.54-7.869 1.145-10.109 1.453-1.05.145-2.014.432-2.142.639-.246.399.013.659 11.469 11.511 10.648 10.086 15.206 14.458 20.029 19.207l4.265 4.2-.352 2.2a549.824 549.824 0 0 1-1.562 9.2c-.217 1.21-.582 3.28-.811 4.6-.228 1.32-.583 3.3-.787 4.4-.204 1.1-.559 3.08-.787 4.4-.229 1.32-.58 3.3-.78 4.4-.201 1.1-.567 3.17-.815 4.6-.247 1.43-.608 3.5-.802 4.6-.193 1.1-.548 3.236-.789 4.746-.24 1.511-.542 2.916-.67 3.123-.128.207-.125.804.006 1.327.266 1.058-1.173 1.713 18.437-8.394 16.441-8.473 25.428-13.002 25.799-13.002.265 0 .434 41.465.501 123.3l.101 123.3.1-123.251c.082-101.862.007-123.327-.43-123.69-.399-.331-1.118-.134-2.9.793-1.304.678-7.141 3.666-12.971 6.641-10.251 5.231-19.289 9.877-24.911 12.806-3.234 1.684-3.129 1.744-2.661-1.505.346-2.399.635-4.097 1.6-9.394.2-1.1.548-3.08.772-4.4.224-1.32.571-3.3.77-4.4.199-1.1.548-3.08.776-4.4.228-1.32.595-3.39.817-4.6.661-3.616 2.817-16.061 2.901-16.751.131-1.067-.094-1.327-5.9-6.823a2063.47 2063.47 0 0 1-8.175-7.8 3458.027 3458.027 0 0 0-11.34-10.809c-3.701-3.511-7.559-7.201-8.574-8.2l-1.846-1.817 2.185-.27c1.202-.148 3.536-.457 5.186-.686 2.796-.388 4.298-.601 11.6-1.644l5.6-.8c1.54-.22 4.105-.595 5.7-.834 1.595-.239 4.07-.584 5.5-.766 1.43-.182 3.95-.533 5.6-.779 1.65-.246 4.125-.586 5.501-.755 3.188-.392 1.994 1.418 11.52-17.466 4.55-9.02 9.467-18.74 10.926-21.6l2.653-5.2.112-15c.062-8.25.057-17.7-.011-21-.068-3.3-.164 3.22-.213 14.488M47.378 36.8c0 6.71.054 9.455.121 6.1.067-3.355.067-8.845 0-12.2-.067-3.355-.121-.61-.121 6.1m.002 131c0 7.7.054 10.793.119 6.874.066-3.919.066-10.219 0-14-.065-3.781-.119-.574-.119 7.126m47.499-8.8c0 .88.137 2.59.304 3.8l.304 2.2.017-2.8c.009-1.54-.128-3.25-.304-3.8-.274-.855-.32-.767-.321.6m.966 10.2c.145 1.21.329 2.275.409 2.367.353.403.092-3.429-.27-3.967-.281-.418-.323.067-.139 1.6m.783 4.661c.369 2.042.572 2.194.572.429 0-.793-.191-1.561-.426-1.706-.289-.179-.336.228-.146 1.277m.835 3.819c.337 1.769.537 1.921.537.41 0-.683-.177-1.352-.394-1.486-.246-.152-.3.251-.143 1.076m.583 2.32c.019.33.178 1.05.354 1.6l.32 1 .034-1c.019-.55-.141-1.27-.354-1.6-.345-.533-.384-.533-.354 0m.754 2.94c0 1.014 4.266 12.586 4.888 13.26.203.22-.023-.59-.502-1.8s-.958-2.47-1.065-2.8c-.106-.33-.345-.96-.531-1.4-.761-1.804-1.99-5.697-1.99-6.303 0-.357-.18-.761-.4-.897-.22-.136-.4-.163-.4-.06m5.219 14.081c-.027.596 2.035 4.658 2.254 4.44.099-.1-.363-1.234-1.027-2.521-.664-1.287-1.216-2.15-1.227-1.919m3.767 7.679c.349.715.72 1.3.824 1.3.398 0 .142-.637-.643-1.6l-.815-1 .634 1.3m1.6 2.8c.349.715.72 1.3.824 1.3.398 0 .142-.637-.643-1.6l-.815-1 .634 1.3m5.659 8.6c1.992 2.764 3.355 4.426 3.355 4.092 0-.311-1.539-2.55-2.273-3.307-.274-.283-.814-1.048-1.199-1.7-.385-.652-.857-1.185-1.048-1.185-.192 0 .333.945 1.165 2.1M280.8 222c0 .44-.18.8-.4.8-.22 0-.394.225-.387.5.008.275.368.075.8-.444.862-1.035 1.007-1.656.387-1.656-.22 0-.4.36-.4.8m-5.086 5.436c-2.028 2.053-3.558 3.803-3.4 3.887.372.2 7.726-7.255 7.362-7.463-.152-.087-1.935 1.522-3.962 3.576m-5.596 5.464c-.702.715-1.764 1.705-2.361 2.2-.596.495-.882.9-.635.9.582 0 4.564-3.249 4.779-3.9.291-.879-.469-.538-1.783.8m-4.41 3.604c-.58.75-.975 1.496-.793 1.496.488 0 1.866-1.565 1.55-1.76-.206-.127-.547-.008-.757.264m-3.809 3.06c-1.308 1.385-1.473 2.016-.224.852.482-.449 1.003-.816 1.158-.816.155 0 .385-.27.512-.6.362-.943-.248-.705-1.446.564M259.6 241.2c0 .22-.281.4-.624.4-.343 0-.514.176-.381.392.152.247.532.211 1.024-.096.837-.523 1.036-1.096.381-1.096-.22 0-.4.18-.4.4m-2.4 1.502c0 .167-.54.542-1.2.834-.66.292-1.2.687-1.2.877 0 .191.72-.038 1.6-.507 1.518-.811 2.072-1.506 1.2-1.506-.22 0-.4.136-.4.302m-4 2.498c0 .22-.27.4-.6.4-.33 0-.6.15-.6.333 0 .58.97.36 1.77-.4.678-.646.69-.733.1-.733-.369 0-.67.18-.67.4m-3.5 1.798c-.764.868-.61.974.7.48.66-.25 1.2-.594 1.2-.766 0-.524-1.368-.318-1.9.286m-2.304 1.409c-.138.223-.398.315-.578.204-.18-.111-.55.066-.822.393-.272.328-.877.599-1.345.602-.689.005-.737.078-.254.383.375.238.739.235.98-.006.21-.21.707-.383 1.103-.383s.72-.18.72-.4c0-.22.259-.4.576-.4.317 0 .688-.18.824-.4.136-.22-.023-.4-.353-.4-.33 0-.713.183-.851.407m-4.996 2.358c0 .406 1.023.346 1.455-.087.153-.153-.112-.278-.588-.278-.477 0-.867.164-.867.365M236.8 253c0 .328.3.447.8.316.44-.115.8-.257.8-.316s-.36-.201-.8-.316c-.5-.131-.8-.012-.8.316m35.418 76.516c-.427.426.289.884 1.382.884 1.035 0 2.122-.708 1.324-.863-.932-.18-2.535-.193-2.706-.021m4.877.785c-.388.088-.602.326-.476.529.299.485 1.781.48 1.781-.006 0-.523-.473-.712-1.305-.523m2.105.897c0 .485 1.122 1.014 1.452.684.119-.12-.159-.418-.618-.664-.578-.309-.834-.315-.834-.02m2.559 1.004c.417.315.924.47 1.127.345.498-.308.209-.538-.932-.744-.907-.164-.917-.145-.195.399m1.641.598c-.136.22.134.4.6.4.466 0 .736-.18.6-.4-.136-.22-.406-.4-.6-.4-.194 0-.464.18-.6.4m3.086 1.8c1.709 1.162 2.991 1.348 1.525.222-.544-.418-1.129-.673-1.3-.567-.171.106-.311.002-.311-.231s-.312-.424-.693-.424c-.449 0-.176.351.779 1m2.714 1.692c.33.125.725.421.878.656.153.236.418.289.589.119.37-.371-.619-1.065-1.467-1.029-.533.022-.533.051 0 .254m3.8 2.908c-.136.22.033.4.376.4.343 0 .624.274.624.61 0 .335.45.781 1 .99.55.209 1 .655 1 .99 0 .336.191.61.424.61.233 0 .341.135.242.3-.1.165.069.532.376.816.732.676.705.328-.094-1.216-.875-1.692-1.644-2.411-2.207-2.064-.29.18-.357.113-.177-.177.158-.256.018-.734-.31-1.062-.702-.702-.92-.737-1.254-.197m5.8 6.8c0 .22.159.4.353.4.296 0 .779 1.004.993 2.067.03.146.189.401.354.566.581.582.291-1.124-.386-2.271-.684-1.157-1.314-1.523-1.314-.762m2.403 3.505c-.004.589.837 2.179 1.348 2.55.193.141.235.443.094.673-.142.229-.088.522.121.651.855.528.68-.498-.405-2.379-.635-1.1-1.156-1.773-1.158-1.495m1.997 5.646c0 .193.27.575.6.849.501.416.6.358.6-.351 0-.488-.255-.849-.6-.849-.33 0-.6.158-.6.351m.8 2.606c0 .527.27 1.061.6 1.188.408.156.6-.022.6-.558 0-.433-.191-.787-.424-.787-.233 0-.312-.18-.176-.4.136-.22.057-.4-.176-.4-.233 0-.424.431-.424.957m1.06 2.832c-.447 1.165-.301 2.691.24 2.513.638-.21.863-1.682.386-2.534-.338-.603-.387-.602-.626.021" fill="#fccc1e"/></g></svg>