<svg id="svg" version="1.1" xmlns="http://www.w3.org/2000/svg" xmlns:xlink="http://www.w3.org/1999/xlink" width="400" height="400" viewBox="0, 0, 400,400"><g id="svgg"><path id="path0" d="M94.000 12.400 C 94.000 20.304,94.143 24.800,94.395 24.800 C 94.654 24.800,94.849 48.000,94.960 91.700 C 95.068 134.416,95.282 160.191,95.553 163.000 C 96.354 171.326,96.471 172.201,96.835 172.580 C 97.036 172.789,97.200 173.723,97.200 174.656 C 97.200 175.589,97.361 176.452,97.558 176.574 C 97.755 176.695,98.010 177.471,98.126 178.297 C 98.406 180.305,98.791 182.026,99.178 183.000 C 99.352 183.440,99.888 185.060,100.368 186.600 C 100.848 188.140,101.394 189.760,101.582 190.200 C 101.769 190.640,102.332 192.080,102.834 193.400 C 103.923 196.270,107.423 203.483,108.946 206.000 C 109.545 206.990,110.138 208.115,110.264 208.500 C 110.390 208.885,110.652 209.200,110.847 209.200 C 111.041 209.200,111.200 209.393,111.200 209.628 C 111.200 210.030,113.458 213.565,113.993 214.000 C 114.128 214.110,114.671 214.830,115.200 215.600 C 115.729 216.370,116.269 217.090,116.400 217.200 C 117.378 218.020,118.400 220.147,118.400 221.362 C 118.400 222.398,118.574 222.800,119.024 222.800 C 119.367 222.800,119.565 222.935,119.466 223.100 C 119.229 223.491,120.240 224.426,120.557 224.109 C 120.691 223.976,120.800 224.051,120.800 224.277 C 120.800 224.503,122.330 226.253,124.200 228.165 C 126.070 230.078,127.600 231.769,127.600 231.924 C 127.600 232.078,128.158 232.452,128.840 232.754 C 129.765 233.163,129.943 233.390,129.540 233.645 C 129.135 233.902,129.199 233.992,129.800 234.007 C 130.775 234.030,132.461 235.186,131.576 235.225 C 131.259 235.239,131.409 235.415,131.909 235.616 C 132.409 235.817,132.923 236.255,133.052 236.590 C 133.180 236.926,133.547 237.200,133.866 237.200 C 134.186 237.200,134.348 237.361,134.226 237.558 C 133.993 237.935,134.984 238.496,136.000 238.561 C 136.330 238.583,136.559 238.814,136.508 239.076 C 136.458 239.337,136.790 239.670,137.248 239.815 C 137.705 239.960,138.421 240.421,138.839 240.839 C 139.258 241.258,139.870 241.600,140.200 241.600 C 140.530 241.600,140.800 241.780,140.800 242.000 C 140.800 242.220,141.070 242.400,141.400 242.400 C 141.730 242.400,142.000 242.580,142.000 242.800 C 142.000 243.020,142.260 243.200,142.577 243.200 C 142.895 243.200,143.435 243.600,143.777 244.089 C 144.120 244.578,144.400 244.839,144.400 244.669 C 144.400 244.498,145.022 244.834,145.783 245.414 C 146.543 245.994,147.334 246.364,147.541 246.237 C 147.747 246.109,148.010 246.249,148.125 246.548 C 148.240 246.847,149.153 247.334,150.155 247.630 C 151.303 247.969,151.796 248.282,151.488 248.478 C 151.148 248.694,151.208 248.790,151.688 248.794 C 152.066 248.797,152.994 249.147,153.750 249.572 C 154.505 249.996,155.226 250.240,155.352 250.114 C 155.478 249.989,155.695 250.181,155.833 250.543 C 155.972 250.904,156.516 251.200,157.043 251.200 C 157.569 251.200,158.000 251.410,158.000 251.667 C 158.000 251.923,158.105 252.028,158.234 251.899 C 158.547 251.586,160.837 252.373,161.650 253.073 C 162.007 253.381,162.457 253.605,162.650 253.569 C 164.498 253.231,164.383 250.740,164.396 291.400 L 164.408 329.200 148.404 329.220 C 125.891 329.248,126.498 329.236,124.872 329.703 C 124.062 329.936,122.995 330.100,122.500 330.068 C 122.005 330.035,121.600 330.187,121.600 330.404 C 121.600 330.622,121.165 330.800,120.633 330.800 C 120.102 330.800,119.607 330.963,119.533 331.162 C 119.460 331.361,118.860 331.586,118.200 331.662 C 117.540 331.738,116.765 332.115,116.477 332.500 C 116.190 332.885,115.605 333.200,115.177 333.200 C 114.750 333.200,114.400 333.380,114.400 333.600 C 114.400 333.820,113.950 334.000,113.400 334.000 C 112.850 334.000,112.400 334.180,112.400 334.400 C 112.400 334.620,112.149 334.800,111.843 334.800 C 111.536 334.800,111.185 335.061,111.063 335.380 C 110.940 335.700,109.886 336.508,108.720 337.177 C 107.554 337.845,106.870 338.397,107.200 338.402 C 107.720 338.411,107.722 338.461,107.219 338.780 C 106.900 338.982,106.450 339.040,106.219 338.909 C 105.989 338.779,105.926 338.812,106.081 338.983 C 106.355 339.288,105.626 340.285,105.171 340.229 C 104.787 340.180,103.600 341.514,103.600 341.995 C 103.600 342.244,103.392 342.319,103.138 342.162 C 102.850 341.984,102.785 342.052,102.965 342.344 C 103.130 342.611,102.737 343.366,102.047 344.106 C 99.565 346.767,98.801 347.822,98.792 348.600 C 98.786 349.040,98.445 349.839,98.033 350.375 C 97.620 350.912,97.374 351.587,97.484 351.875 C 97.599 352.174,97.409 352.400,97.043 352.400 C 96.624 352.400,96.400 352.748,96.400 353.400 C 96.400 353.950,96.240 354.400,96.044 354.400 C 95.849 354.400,95.697 354.625,95.707 354.900 C 95.761 356.334,95.559 357.222,95.227 357.016 C 95.020 356.889,94.909 357.280,94.979 357.893 C 95.048 358.502,94.902 359.252,94.653 359.561 C 94.333 359.957,94.165 365.983,94.082 380.061 L 93.963 400.000 146.982 400.000 L 200.000 400.000 200.000 276.800 C 200.000 194.832,199.866 153.600,199.600 153.600 C 199.228 153.600,190.248 158.126,173.800 166.602 C 154.190 176.709,155.629 176.054,155.363 174.996 C 155.232 174.473,155.229 173.876,155.357 173.669 C 155.485 173.462,155.787 172.057,156.027 170.546 C 156.268 169.036,156.623 166.900,156.816 165.800 C 157.010 164.700,157.371 162.630,157.618 161.200 C 157.866 159.770,158.232 157.700,158.433 156.600 C 158.633 155.500,158.984 153.520,159.213 152.200 C 159.441 150.880,159.796 148.900,160.000 147.800 C 160.204 146.700,160.559 144.720,160.787 143.400 C 161.016 142.080,161.381 140.010,161.598 138.800 C 162.104 135.975,162.714 132.387,163.160 129.600 L 163.512 127.400 159.247 123.200 C 154.424 118.451,149.866 114.079,139.218 103.993 C 127.762 93.141,127.503 92.881,127.749 92.482 C 127.877 92.275,128.841 91.988,129.891 91.843 C 132.131 91.535,136.340 90.930,140.000 90.390 C 141.430 90.179,143.860 89.833,145.400 89.622 C 146.940 89.411,149.550 89.038,151.200 88.793 C 152.850 88.548,155.280 88.198,156.600 88.016 C 157.920 87.834,163.184 87.094,168.299 86.371 L 177.597 85.057 179.060 82.229 C 179.864 80.673,180.674 79.085,180.861 78.700 C 181.047 78.315,181.353 77.685,181.540 77.300 C 181.728 76.915,185.958 68.540,190.940 58.688 L 200.000 40.776 200.000 20.388 L 200.000 0.000 147.000 0.000 L 94.000 0.000 94.000 12.400 M0.081 73.780 C 0.175 112.302,0.307 122.867,0.700 123.260 C 0.975 123.535,1.200 124.343,1.200 125.056 C 1.200 125.769,1.380 126.464,1.600 126.600 C 1.820 126.736,2.000 127.431,2.000 128.144 C 2.000 128.857,2.179 129.619,2.398 129.838 C 2.616 130.056,2.835 130.709,2.883 131.289 C 2.930 131.868,3.112 132.255,3.285 132.148 C 3.458 132.040,3.600 132.413,3.600 132.976 C 3.600 133.539,3.780 134.000,4.000 134.000 C 4.220 134.000,4.400 134.414,4.400 134.920 C 4.400 135.426,4.625 136.082,4.900 136.379 C 5.302 136.812,5.296 136.859,4.870 136.617 C 4.245 136.262,5.094 137.975,5.800 138.494 C 6.020 138.656,6.044 138.791,5.854 138.794 C 5.664 138.797,5.799 139.244,6.154 139.786 C 6.509 140.328,6.800 141.149,6.800 141.610 C 6.800 142.070,6.953 142.353,7.140 142.237 C 7.328 142.121,7.725 142.786,8.024 143.713 C 8.322 144.641,8.695 145.492,8.851 145.604 C 9.008 145.716,9.195 146.069,9.268 146.388 C 9.341 146.707,9.719 147.329,10.110 147.770 C 10.500 148.211,10.731 148.803,10.622 149.086 C 10.514 149.369,10.700 149.600,11.036 149.600 C 11.372 149.600,11.536 149.780,11.400 150.000 C 11.264 150.220,11.340 150.400,11.569 150.400 C 11.798 150.400,12.094 150.837,12.228 151.371 C 12.362 151.904,12.812 152.648,13.227 153.024 C 13.642 153.400,13.900 153.838,13.802 153.998 C 13.703 154.157,14.516 155.258,15.608 156.444 C 16.701 157.630,17.596 158.733,17.598 158.897 C 17.599 159.060,18.138 159.707,18.795 160.335 C 19.452 160.963,19.886 161.580,19.760 161.706 C 19.634 161.833,19.996 162.241,20.565 162.614 C 21.134 162.987,21.600 163.511,21.600 163.778 C 21.600 164.046,22.044 164.502,22.586 164.793 C 23.129 165.083,23.478 165.473,23.363 165.660 C 23.247 165.847,23.439 166.000,23.789 166.000 C 24.139 166.000,24.544 166.315,24.690 166.700 C 25.069 167.701,25.843 168.400,26.571 168.400 C 26.917 168.400,27.200 168.674,27.200 169.010 C 27.200 169.345,27.641 169.787,28.179 169.992 C 28.718 170.197,29.458 170.822,29.825 171.382 C 30.192 171.942,30.741 172.400,31.046 172.400 C 31.351 172.400,31.600 172.568,31.600 172.773 C 31.600 172.978,32.005 173.274,32.500 173.430 C 32.995 173.587,33.635 174.049,33.923 174.457 C 34.210 174.866,34.783 175.200,35.196 175.200 C 35.608 175.200,36.060 175.560,36.200 176.000 C 36.340 176.440,36.802 176.800,37.227 176.800 C 37.652 176.800,38.000 176.980,38.000 177.200 C 38.000 177.420,38.234 177.600,38.520 177.600 C 39.256 177.600,41.193 178.541,41.197 178.900 C 41.199 179.065,41.436 179.200,41.725 179.200 C 42.013 179.200,42.643 179.567,43.125 180.016 C 43.606 180.464,44.000 180.706,44.000 180.554 C 44.000 180.401,44.315 180.561,44.700 180.910 C 45.385 181.529,45.561 181.600,46.424 181.600 C 46.657 181.600,46.719 181.808,46.562 182.062 C 46.385 182.348,46.452 182.415,46.738 182.238 C 47.520 181.755,47.384 152.800,46.600 152.800 C 46.270 152.800,46.000 152.620,46.000 152.400 C 46.000 152.180,45.685 151.997,45.300 151.994 C 44.702 151.989,44.687 151.931,45.200 151.600 C 45.720 151.264,45.711 151.211,45.137 151.206 C 44.377 151.199,38.800 146.016,38.800 145.316 C 38.800 145.062,38.440 144.740,38.000 144.600 C 37.560 144.460,37.200 144.097,37.200 143.793 C 37.200 143.489,36.975 143.096,36.700 142.920 C 35.907 142.413,34.506 140.611,35.200 140.991 C 35.530 141.172,35.180 140.663,34.422 139.860 C 33.663 139.057,33.213 138.395,33.422 138.388 C 33.630 138.381,33.485 138.192,33.100 137.968 C 32.715 137.744,32.400 137.305,32.400 136.992 C 32.400 136.680,32.015 135.744,31.543 134.912 C 29.092 130.584,28.797 130.000,29.067 130.000 C 29.228 130.000,29.144 129.784,28.880 129.520 C 28.616 129.256,28.400 128.705,28.400 128.296 C 28.400 127.887,28.250 127.645,28.067 127.758 C 27.743 127.959,26.502 124.095,26.700 123.500 C 26.755 123.335,26.620 123.200,26.400 123.200 C 26.180 123.200,26.000 122.786,26.000 122.280 C 26.000 121.774,25.832 121.189,25.626 120.980 C 25.420 120.771,25.195 119.548,25.126 118.262 C 25.057 116.976,24.898 115.861,24.773 115.783 C 24.648 115.706,24.582 113.990,24.627 111.971 C 24.676 109.802,24.569 108.525,24.366 108.850 C 24.174 109.159,24.016 96.115,24.007 79.100 L 23.991 48.800 35.596 48.800 L 47.200 48.800 47.200 36.800 L 47.200 24.800 23.581 24.800 L -0.038 24.800 0.081 73.780 " stroke="none" fill="#fcdb2b" fill-rule="evenodd"></path><path id="path1" d="M200.310 20.900 L 200.200 41.800 197.547 47.000 C 196.088 49.860,191.171 59.580,186.621 68.600 C 177.095 87.484,178.289 85.674,175.101 86.066 C 173.725 86.235,171.250 86.575,169.600 86.821 C 167.950 87.067,165.430 87.418,164.000 87.600 C 162.570 87.782,160.095 88.127,158.500 88.366 C 156.905 88.605,154.340 88.980,152.800 89.200 C 151.260 89.420,148.740 89.780,147.200 90.000 C 139.898 91.043,138.396 91.256,135.600 91.644 C 133.950 91.873,131.616 92.182,130.414 92.330 L 128.229 92.600 130.075 94.417 C 131.090 95.416,134.948 99.106,138.649 102.617 C 142.350 106.128,147.452 110.992,149.989 113.426 C 152.525 115.860,156.204 119.370,158.164 121.226 C 163.970 126.722,164.195 126.982,164.064 128.049 C 163.980 128.739,161.824 141.184,161.163 144.800 C 160.941 146.010,160.574 148.080,160.346 149.400 C 160.118 150.720,159.769 152.700,159.570 153.800 C 159.371 154.900,159.025 156.880,158.803 158.200 C 158.409 160.534,157.917 163.310,157.172 167.400 C 156.519 170.985,156.051 174.584,156.216 174.749 C 156.305 174.838,157.598 174.275,159.089 173.499 C 164.711 170.570,173.749 165.924,184.000 160.693 C 189.830 157.718,195.667 154.730,196.971 154.052 C 198.753 153.125,199.472 152.928,199.871 153.259 C 200.308 153.621,200.400 175.161,200.400 276.849 L 200.400 400.000 253.200 400.000 L 306.000 400.000 306.000 381.413 C 306.000 364.301,305.948 362.845,305.340 363.078 C 304.759 363.301,304.712 363.086,304.950 361.292 C 305.172 359.617,305.101 359.184,304.554 358.878 C 304.098 358.623,303.950 358.172,304.087 357.455 C 304.206 356.836,304.065 356.220,303.744 355.954 C 303.006 355.341,303.060 354.895,303.900 354.676 C 304.548 354.506,304.549 354.489,303.913 354.446 C 303.466 354.416,303.308 354.184,303.462 353.784 C 303.612 353.391,303.498 353.210,303.149 353.284 C 302.818 353.354,302.647 353.122,302.718 352.700 C 302.782 352.315,302.647 352.000,302.418 352.000 C 302.188 352.000,302.003 351.685,302.006 351.300 C 302.011 350.696,302.070 350.682,302.437 351.200 C 302.814 351.733,302.843 351.733,302.697 351.200 C 302.607 350.870,302.281 350.600,301.972 350.600 C 301.663 350.600,301.354 350.240,301.284 349.800 C 301.179 349.140,301.230 349.105,301.572 349.600 C 302.189 350.490,302.087 349.858,301.402 348.546 C 300.820 347.428,300.805 347.424,300.802 348.367 C 300.800 349.185,300.269 349.269,300.165 348.467 C 300.083 347.833,299.424 346.576,299.029 346.300 C 298.740 346.098,298.796 345.871,299.200 345.606 C 299.690 345.284,299.640 345.211,298.928 345.206 C 298.330 345.202,298.015 344.917,297.928 344.300 C 297.839 343.677,297.572 343.439,297.060 343.527 C 296.616 343.603,296.425 343.483,296.583 343.227 C 296.729 342.992,296.657 342.800,296.424 342.800 C 296.191 342.800,296.000 342.526,296.000 342.190 C 296.000 341.855,295.550 341.409,295.000 341.200 C 294.450 340.991,294.000 340.545,294.000 340.210 C 294.000 339.874,293.747 339.600,293.437 339.600 C 293.072 339.600,292.948 339.320,293.084 338.800 C 293.296 337.991,292.967 337.827,291.456 337.986 C 291.012 338.033,290.820 337.891,290.980 337.633 C 291.128 337.393,290.969 337.200,290.624 337.200 C 290.281 337.200,290.000 337.020,290.000 336.800 C 290.000 336.580,289.685 336.387,289.300 336.372 C 288.701 336.348,288.716 336.294,289.400 336.000 C 290.104 335.697,290.066 335.653,289.079 335.628 C 287.868 335.598,285.034 333.899,285.469 333.465 C 285.614 333.319,285.153 333.200,284.443 333.200 C 283.560 333.200,283.244 333.052,283.442 332.732 C 283.638 332.414,283.510 332.349,283.043 332.528 C 282.594 332.701,282.011 332.447,281.360 331.796 C 280.276 330.712,279.596 330.432,280.400 331.400 C 280.808 331.892,280.779 332.000,280.236 332.000 C 279.873 332.000,279.472 331.731,279.346 331.403 C 279.193 331.004,278.806 330.884,278.181 331.041 C 276.921 331.357,275.968 330.780,277.027 330.342 C 277.495 330.148,276.696 330.057,275.000 330.111 C 272.936 330.177,272.226 330.068,272.300 329.700 C 272.379 329.306,268.506 329.200,253.996 329.200 L 235.592 329.200 235.604 291.381 C 235.612 265.131,235.744 253.642,236.035 253.822 C 236.265 253.964,236.543 253.740,236.652 253.323 C 236.810 252.717,237.144 252.595,238.325 252.709 C 239.478 252.821,239.669 252.755,239.200 252.408 C 238.693 252.033,238.724 251.974,239.400 252.028 C 241.341 252.183,242.083 251.971,242.284 251.200 C 242.437 250.617,242.833 250.398,243.747 250.394 C 244.703 250.389,244.858 250.296,244.400 250.000 C 243.909 249.683,243.955 249.611,244.651 249.606 C 245.119 249.603,245.724 249.332,245.996 249.004 C 246.268 248.677,246.638 248.500,246.818 248.611 C 246.998 248.722,247.258 248.630,247.396 248.407 C 247.534 248.183,247.957 248.000,248.335 248.000 C 248.714 248.000,249.283 247.640,249.600 247.200 C 250.246 246.304,251.427 246.138,251.735 246.900 C 251.846 247.175,251.951 246.974,251.968 246.453 C 251.993 245.722,252.175 245.553,252.770 245.708 C 253.310 245.849,253.477 245.744,253.327 245.355 C 253.199 245.020,253.376 244.800,253.774 244.800 C 254.137 244.800,254.820 244.440,255.292 244.000 C 255.764 243.560,256.387 243.200,256.675 243.200 C 256.964 243.200,257.200 243.020,257.200 242.800 C 257.200 242.580,257.571 242.400,258.024 242.400 C 258.477 242.400,258.736 242.220,258.600 242.000 C 258.464 241.780,258.633 241.600,258.976 241.600 C 259.319 241.600,259.600 241.401,259.600 241.157 C 259.600 240.914,259.855 240.812,260.167 240.932 C 260.479 241.052,260.833 240.891,260.954 240.575 C 261.076 240.259,261.406 240.003,261.687 240.006 C 262.051 240.010,262.025 240.136,261.600 240.437 C 261.067 240.814,261.067 240.841,261.600 240.680 C 261.930 240.581,262.149 240.279,262.086 240.008 C 261.958 239.457,262.715 238.400,263.236 238.400 C 263.423 238.400,263.474 238.715,263.350 239.100 C 263.212 239.527,263.256 239.628,263.462 239.360 C 263.648 239.118,264.210 238.704,264.711 238.440 C 265.212 238.176,265.512 237.781,265.377 237.562 C 264.970 236.904,265.968 236.069,266.915 236.276 C 267.472 236.398,267.624 236.342,267.324 236.126 C 266.982 235.879,267.129 235.560,267.849 234.991 C 268.400 234.556,269.476 233.570,270.240 232.801 C 271.412 231.621,271.696 231.495,272.050 232.001 C 272.381 232.474,272.426 232.404,272.264 231.668 C 272.114 230.990,272.208 230.794,272.609 230.948 C 272.987 231.093,273.081 230.956,272.910 230.510 C 272.726 230.030,272.830 229.926,273.310 230.110 C 273.767 230.286,273.893 230.188,273.737 229.780 C 273.512 229.194,274.191 228.945,274.501 229.500 C 274.593 229.665,274.610 229.566,274.539 229.279 C 274.389 228.678,279.380 223.514,279.752 223.886 C 279.889 224.022,280.000 223.833,280.000 223.467 C 280.000 223.100,280.180 222.800,280.400 222.800 C 280.620 222.800,280.800 222.455,280.800 222.033 C 280.800 221.612,280.959 221.207,281.154 221.133 C 281.778 220.899,289.600 210.034,289.600 209.402 C 289.600 209.260,290.111 208.392,290.735 207.472 C 291.359 206.552,292.123 205.215,292.432 204.500 C 292.742 203.785,293.131 203.200,293.298 203.200 C 293.464 203.200,293.600 202.840,293.600 202.400 C 293.600 201.960,293.780 201.600,294.000 201.600 C 294.220 201.600,294.400 201.240,294.400 200.800 C 294.400 200.360,294.580 200.000,294.800 200.000 C 295.020 200.000,295.200 199.640,295.200 199.200 C 295.200 198.760,295.380 198.400,295.600 198.400 C 295.820 198.400,296.000 198.076,296.000 197.680 C 296.000 197.284,296.152 196.789,296.339 196.580 C 296.525 196.371,297.262 194.670,297.977 192.800 C 298.691 190.930,299.421 189.040,299.598 188.600 C 300.133 187.267,301.513 182.371,302.191 179.400 C 302.542 177.860,302.990 175.970,303.187 175.200 C 303.383 174.430,303.725 172.540,303.945 171.000 C 304.166 169.460,304.538 166.892,304.773 165.293 C 305.063 163.321,305.200 140.322,305.200 93.816 C 305.200 48.535,305.336 25.163,305.600 25.000 C 305.853 24.844,306.000 20.196,306.000 12.376 L 306.000 0.000 253.210 -0.000 L 200.421 -0.000 200.310 20.900 M47.777 36.600 C 47.777 43.200,47.832 45.956,47.899 42.725 C 47.966 39.493,47.966 34.093,47.899 30.725 C 47.832 27.356,47.777 30.000,47.777 36.600 M352.494 36.700 L 352.600 48.600 364.500 48.706 L 376.400 48.812 376.400 77.982 C 376.400 98.184,376.269 107.234,375.974 107.416 C 375.740 107.561,375.579 108.156,375.616 108.740 C 375.801 111.609,375.559 116.822,375.249 116.630 C 375.056 116.511,374.788 117.355,374.653 118.507 C 374.231 122.101,373.923 123.600,373.641 123.426 C 373.492 123.333,373.330 123.732,373.283 124.311 C 373.235 124.891,373.016 125.544,372.798 125.762 C 372.579 125.981,372.400 126.574,372.400 127.080 C 372.400 127.586,372.220 128.000,372.000 128.000 C 371.780 128.000,371.600 128.349,371.600 128.776 C 371.600 129.203,371.420 129.664,371.200 129.800 C 370.980 129.936,370.800 130.397,370.800 130.824 C 370.800 131.251,370.620 131.600,370.400 131.600 C 370.180 131.600,370.000 131.960,370.000 132.400 C 370.000 132.840,369.820 133.200,369.600 133.200 C 369.380 133.200,369.200 133.560,369.200 134.000 C 369.200 134.440,369.020 134.800,368.800 134.800 C 368.580 134.800,368.400 135.070,368.400 135.400 C 368.400 135.730,368.254 136.000,368.075 136.000 C 367.896 136.000,367.502 136.630,367.200 137.400 C 366.898 138.170,366.527 138.800,366.375 138.800 C 366.224 138.800,365.852 139.310,365.550 139.933 C 364.948 141.174,363.036 143.595,360.700 146.072 C 359.875 146.947,359.200 147.859,359.200 148.098 C 359.200 148.338,359.103 148.436,358.984 148.318 C 358.866 148.199,357.959 148.889,356.969 149.851 C 355.979 150.813,355.024 151.600,354.846 151.600 C 354.668 151.600,354.090 151.975,353.561 152.433 L 352.600 153.266 352.477 166.533 C 352.366 178.462,352.564 183.530,353.085 182.100 C 353.185 181.825,353.524 181.600,353.839 181.600 C 354.367 181.600,355.934 180.866,356.400 180.400 C 356.796 180.004,359.015 178.746,359.700 178.529 C 360.085 178.407,360.400 178.148,360.400 177.953 C 360.400 177.759,360.760 177.600,361.200 177.600 C 361.640 177.600,362.000 177.420,362.000 177.200 C 362.000 176.980,362.225 176.793,362.500 176.784 C 362.775 176.775,363.623 176.235,364.385 175.584 C 365.147 174.933,366.002 174.400,366.285 174.400 C 366.568 174.400,366.800 174.259,366.800 174.086 C 366.800 173.914,367.298 173.478,367.906 173.119 C 368.515 172.760,369.471 172.046,370.032 171.533 C 370.592 171.020,371.523 170.250,372.101 169.823 C 372.679 169.396,373.045 168.873,372.914 168.661 C 372.783 168.450,372.851 168.384,373.063 168.516 C 373.471 168.768,378.800 163.849,378.800 163.220 C 378.800 163.018,379.655 161.965,380.700 160.879 C 383.375 158.100,384.784 156.293,384.793 155.633 C 384.797 155.322,384.917 155.184,385.061 155.327 C 385.204 155.471,385.564 155.141,385.861 154.594 C 386.157 154.047,386.643 153.153,386.939 152.606 C 387.236 152.059,387.596 151.729,387.739 151.873 C 387.883 152.016,388.000 151.927,388.000 151.674 C 388.000 151.422,388.660 150.184,389.467 148.923 C 390.273 147.662,390.933 146.398,390.933 146.115 C 390.933 145.832,391.083 145.600,391.267 145.600 C 391.450 145.600,391.600 145.240,391.600 144.800 C 391.600 144.360,391.780 144.000,392.000 144.000 C 392.220 144.000,392.400 143.766,392.400 143.480 C 392.400 142.744,393.341 140.807,393.700 140.803 C 393.865 140.801,394.000 140.350,394.000 139.800 C 394.000 139.250,394.147 138.800,394.328 138.800 C 394.508 138.800,394.900 137.900,395.200 136.800 C 395.500 135.700,395.892 134.800,396.072 134.800 C 396.253 134.800,396.400 134.271,396.400 133.624 C 396.400 132.977,396.580 132.336,396.800 132.200 C 397.020 132.064,397.200 131.524,397.200 131.000 C 397.200 130.476,397.380 129.936,397.600 129.800 C 397.820 129.664,398.000 128.833,398.000 127.953 C 398.000 127.073,398.145 126.443,398.323 126.553 C 398.501 126.662,398.691 126.005,398.744 125.092 C 398.798 124.178,399.058 123.171,399.321 122.854 C 399.686 122.415,399.828 110.646,399.916 73.539 L 400.033 24.800 376.210 24.800 L 352.388 24.800 352.494 36.700 M94.492 93.000 C 94.430 136.561,94.538 162.078,94.794 164.000 C 95.014 165.650,95.298 167.871,95.427 168.937 C 95.555 170.002,95.741 170.793,95.839 170.694 C 95.937 170.596,95.800 169.005,95.534 167.158 C 95.179 164.688,94.990 145.453,94.820 94.400 L 94.589 25.000 94.492 93.000 M202.618 46.514 C 211.905 65.314,222.215 85.213,222.753 85.375 C 223.109 85.482,224.930 85.768,226.800 86.011 C 228.670 86.254,231.280 86.609,232.600 86.799 C 237.600 87.522,241.488 88.072,244.000 88.414 C 245.430 88.608,247.860 88.949,249.400 89.171 C 250.940 89.392,253.550 89.758,255.200 89.984 C 265.227 91.357,271.703 92.369,271.934 92.601 C 272.080 92.747,271.210 93.774,270.000 94.883 C 268.790 95.991,265.997 98.631,263.794 100.749 C 261.591 102.867,257.991 106.312,255.794 108.406 C 237.286 126.041,235.990 127.338,236.207 128.022 C 236.423 128.703,236.863 131.093,237.600 135.600 C 237.798 136.810,238.141 138.790,238.363 140.000 C 238.835 142.582,240.122 149.976,241.183 156.200 C 241.595 158.620,242.506 163.807,243.207 167.726 C 243.908 171.645,244.387 174.947,244.270 175.063 C 244.028 175.305,242.088 174.355,226.400 166.303 C 220.130 163.085,211.670 158.745,207.600 156.658 L 200.200 152.863 200.099 97.632 C 200.043 67.254,200.133 42.406,200.299 42.414 C 200.464 42.421,201.508 44.266,202.618 46.514 M47.779 168.000 C 47.779 175.370,47.833 178.385,47.899 174.700 C 47.965 171.015,47.965 164.985,47.899 161.300 C 47.833 157.615,47.779 160.630,47.779 168.000 M96.075 172.600 C 96.065 173.260,96.211 174.160,96.400 174.600 L 96.744 175.400 96.725 174.600 C 96.714 174.160,96.568 173.260,96.400 172.600 L 96.095 171.400 96.075 172.600 M96.846 176.600 C 96.827 177.260,96.987 178.070,97.200 178.400 C 97.690 179.158,97.690 177.930,97.200 176.400 C 96.886 175.420,96.879 175.424,96.846 176.600 M97.668 179.800 C 97.662 180.240,97.811 180.960,98.000 181.400 C 98.438 182.419,98.438 181.368,98.000 180.000 C 97.743 179.196,97.677 179.157,97.668 179.800 M98.434 183.000 C 98.422 183.440,98.587 184.070,98.800 184.400 C 99.314 185.195,99.314 184.196,98.800 183.000 L 98.456 182.200 98.434 183.000 M99.212 185.600 C 99.212 185.930,99.387 186.470,99.600 186.800 C 99.945 187.333,99.988 187.333,99.988 186.800 C 99.988 186.470,99.813 185.930,99.600 185.600 C 99.255 185.067,99.212 185.067,99.212 185.600 M100.012 188.000 C 100.012 188.330,100.187 188.870,100.400 189.200 C 100.745 189.733,100.788 189.733,100.788 189.200 C 100.788 188.870,100.613 188.330,100.400 188.000 C 100.055 187.467,100.012 187.467,100.012 188.000 M101.628 192.092 C 101.582 192.565,102.886 195.648,103.058 195.475 C 103.145 195.388,102.866 194.525,102.437 193.558 C 102.008 192.591,101.644 191.931,101.628 192.092 M104.098 198.300 C 105.476 201.137,106.153 202.381,106.260 202.273 C 106.428 202.105,104.392 198.000,104.141 198.000 C 104.037 198.000,104.018 198.135,104.098 198.300 M107.462 204.900 C 108.074 206.055,109.256 208.048,110.087 209.328 C 110.919 210.609,111.600 211.809,111.600 211.995 C 111.600 212.181,111.747 212.393,111.928 212.467 C 112.108 212.540,113.044 213.770,114.009 215.200 C 116.345 218.664,118.400 221.341,118.400 220.920 C 118.400 220.732,117.657 219.593,116.748 218.389 C 114.220 215.039,109.907 208.510,108.233 205.500 C 106.468 202.327,105.841 201.839,107.462 204.900 " stroke="none" fill="#fcbc04" fill-rule="evenodd"></path><path id="path2" d="M48.000 36.520 C 48.000 43.885,47.850 48.390,47.596 48.644 C 47.325 48.915,47.258 66.522,47.394 101.824 C 47.642 166.192,47.642 167.238,47.394 240.100 C 47.216 292.528,47.260 298.800,47.805 298.800 C 48.140 298.800,49.548 297.675,50.934 296.300 C 52.319 294.925,54.296 293.031,55.326 292.092 C 56.357 291.152,57.200 290.207,57.200 289.992 C 57.200 289.776,57.356 289.600,57.546 289.600 C 57.737 289.600,59.741 287.800,62.000 285.600 C 64.259 283.400,66.263 281.600,66.454 281.600 C 66.644 281.600,66.755 281.432,66.700 281.228 C 66.645 281.023,67.220 280.393,67.978 279.828 C 68.735 279.262,69.239 278.800,69.096 278.800 C 68.953 278.800,69.286 278.350,69.836 277.800 C 70.386 277.250,71.008 276.800,71.218 276.800 C 71.428 276.800,71.600 276.647,71.600 276.459 C 71.600 276.271,72.594 275.146,73.809 273.959 C 75.024 272.772,77.527 270.291,79.372 268.447 L 82.726 265.095 99.984 282.347 C 109.477 291.836,117.503 299.600,117.821 299.600 C 118.322 299.600,118.400 294.336,118.400 260.431 L 118.400 221.261 117.081 219.531 C 116.356 218.579,114.973 216.630,114.009 215.200 C 113.044 213.770,112.108 212.540,111.928 212.467 C 111.747 212.393,111.600 212.181,111.600 211.995 C 111.600 211.809,110.917 210.609,110.083 209.328 C 109.248 208.048,107.957 205.830,107.213 204.400 C 106.469 202.970,105.566 201.260,105.207 200.600 C 104.849 199.940,103.880 197.780,103.055 195.800 C 102.230 193.820,101.393 191.840,101.194 191.400 C 99.071 186.692,96.648 176.961,95.118 167.000 C 94.828 165.113,94.639 141.476,94.537 94.500 L 94.387 24.800 71.193 24.800 L 48.000 24.800 48.000 36.520 M352.177 36.400 C 352.177 42.890,352.232 45.545,352.299 42.300 C 352.366 39.055,352.366 33.745,352.299 30.500 C 352.232 27.255,352.177 29.910,352.177 36.400 M305.296 93.693 C 305.232 139.792,305.060 163.341,304.773 165.293 C 304.538 166.892,304.166 169.460,303.945 171.000 C 303.516 173.995,303.493 174.099,301.598 181.400 C 299.643 188.931,299.630 190.220,301.573 183.916 C 302.028 182.440,302.400 180.786,302.400 180.240 C 302.400 179.694,302.561 179.148,302.758 179.026 C 302.955 178.905,303.217 178.129,303.342 177.303 C 303.467 176.476,303.763 174.720,304.000 173.400 C 304.238 172.080,304.629 169.830,304.871 168.400 C 305.319 165.743,305.724 86.406,305.500 45.000 C 305.441 34.000,305.349 55.912,305.296 93.693 M200.099 97.632 L 200.200 152.863 207.600 156.658 C 211.670 158.745,220.130 163.085,226.400 166.303 C 242.088 174.355,244.028 175.305,244.270 175.063 C 244.387 174.947,243.908 171.645,243.207 167.726 C 242.506 163.807,241.595 158.620,241.183 156.200 C 240.122 149.976,238.835 142.582,238.363 140.000 C 238.141 138.790,237.798 136.810,237.600 135.600 C 236.863 131.093,236.423 128.703,236.207 128.022 C 235.990 127.338,237.286 126.041,255.794 108.406 C 257.991 106.312,261.591 102.867,263.794 100.749 C 265.997 98.631,268.790 95.991,270.000 94.883 C 271.210 93.774,272.080 92.747,271.934 92.601 C 271.703 92.369,265.227 91.357,255.200 89.984 C 253.550 89.758,250.940 89.392,249.400 89.171 C 247.860 88.949,245.430 88.608,244.000 88.414 C 241.488 88.072,237.600 87.522,232.600 86.799 C 231.280 86.609,228.670 86.254,226.800 86.011 C 224.930 85.768,223.109 85.482,222.753 85.375 C 222.215 85.213,211.905 65.314,202.618 46.514 C 201.508 44.266,200.464 42.421,200.299 42.414 C 200.133 42.406,200.043 67.254,200.099 97.632 M352.089 167.800 C 352.047 175.060,352.144 181.208,352.306 181.463 C 352.574 181.885,352.557 166.963,352.280 158.200 C 352.217 156.220,352.131 160.540,352.089 167.800 M299.371 189.043 C 298.663 191.204,296.633 196.249,296.339 196.580 C 296.152 196.789,296.000 197.284,296.000 197.680 C 296.000 198.076,295.820 198.400,295.600 198.400 C 295.380 198.400,295.200 198.760,295.200 199.200 C 295.200 199.640,295.020 200.000,294.800 200.000 C 294.580 200.000,294.400 200.360,294.400 200.800 C 294.400 201.240,294.220 201.600,294.000 201.600 C 293.780 201.600,293.600 201.960,293.600 202.400 C 293.600 202.840,293.464 203.200,293.298 203.200 C 293.131 203.200,292.742 203.785,292.432 204.500 C 292.123 205.215,291.359 206.552,290.735 207.472 C 290.111 208.392,289.600 209.260,289.600 209.402 C 289.600 209.694,284.921 216.509,282.921 219.131 C 282.194 220.082,281.600 221.070,281.600 221.325 C 281.600 221.581,282.232 220.892,283.004 219.795 C 283.776 218.698,285.035 216.990,285.802 216.000 C 286.569 215.010,287.359 213.833,287.557 213.384 C 287.755 212.935,288.205 212.327,288.558 212.035 C 288.911 211.742,289.200 211.327,289.200 211.113 C 289.200 210.899,289.539 210.246,289.953 209.662 C 293.146 205.160,300.577 189.243,299.832 188.499 C 299.715 188.382,299.507 188.626,299.371 189.043 " stroke="none" fill="#fc9404" fill-rule="evenodd"></path><path id="path3" d="M305.459 95.300 C 305.357 144.082,305.176 166.601,304.872 168.400 C 304.630 169.830,304.238 172.080,304.000 173.400 C 303.763 174.720,303.467 176.476,303.342 177.303 C 303.217 178.129,302.955 178.905,302.758 179.026 C 302.561 179.148,302.400 179.694,302.400 180.240 C 302.400 184.408,294.325 203.494,289.953 209.662 C 289.539 210.246,289.200 210.899,289.200 211.113 C 289.200 211.327,288.911 211.742,288.558 212.035 C 288.205 212.327,287.755 212.935,287.557 213.384 C 287.359 213.833,286.569 215.010,285.802 216.000 C 285.035 216.990,283.776 218.698,283.004 219.795 L 281.600 221.789 281.600 260.295 C 281.600 301.480,281.532 300.039,283.392 298.300 C 290.558 291.601,296.165 286.168,305.502 276.874 C 316.748 265.679,316.889 265.557,317.707 266.274 C 318.162 266.673,326.082 274.543,335.306 283.762 C 347.993 296.442,352.163 300.387,352.434 299.962 C 352.641 299.635,352.710 274.702,352.598 240.400 C 352.493 207.950,352.406 175.370,352.406 168.000 C 352.406 160.630,352.409 130.750,352.414 101.600 C 352.419 72.450,352.323 43.245,352.200 36.700 L 351.977 24.800 328.792 24.800 L 305.607 24.800 305.459 95.300 M73.626 274.122 L 72.651 275.400 73.926 274.225 C 75.251 273.003,75.403 272.785,74.900 272.822 C 74.735 272.834,74.162 273.419,73.626 274.122 M92.886 275.746 C 93.389 276.267,93.874 276.628,93.964 276.549 C 94.197 276.345,92.748 274.800,92.324 274.800 C 92.130 274.800,92.383 275.226,92.886 275.746 M60.400 287.000 C 59.883 287.550,59.590 288.000,59.748 288.000 C 59.907 288.000,60.486 287.550,61.036 287.000 C 61.586 286.450,61.880 286.000,61.688 286.000 C 61.496 286.000,60.917 286.450,60.400 287.000 M105.364 288.200 C 105.914 288.750,106.493 289.200,106.652 289.200 C 106.810 289.200,106.517 288.750,106.000 288.200 C 105.483 287.650,104.904 287.200,104.712 287.200 C 104.520 287.200,104.814 287.650,105.364 288.200 M109.286 292.146 C 109.789 292.667,110.274 293.028,110.364 292.949 C 110.597 292.745,109.148 291.200,108.724 291.200 C 108.530 291.200,108.783 291.626,109.286 292.146 M116.432 299.051 C 116.375 299.858,117.573 300.587,118.097 300.063 C 118.448 299.712,118.355 299.600,117.713 299.600 C 117.248 299.600,116.776 299.375,116.665 299.100 C 116.538 298.786,116.451 298.768,116.432 299.051 " stroke="none" fill="#fc641c" fill-rule="evenodd"></path><path id="path4" d="M200.088 20.288 L 200.000 40.776 190.940 58.688 C 185.958 68.540,181.756 76.870,181.603 77.200 C 181.211 78.047,180.729 78.999,179.060 82.229 L 177.597 85.057 168.299 86.371 C 163.184 87.093,157.740 87.857,156.200 88.068 C 154.660 88.280,152.230 88.629,150.800 88.845 C 149.370 89.060,146.940 89.410,145.400 89.621 C 143.860 89.833,141.430 90.179,140.000 90.390 C 136.340 90.930,132.131 91.535,129.891 91.843 C 128.841 91.988,127.877 92.275,127.749 92.482 C 127.503 92.881,127.762 93.141,139.218 103.993 C 149.866 114.079,154.424 118.451,159.247 123.200 L 163.512 127.400 163.160 129.600 C 162.714 132.387,162.104 135.975,161.598 138.800 C 161.381 140.010,161.016 142.080,160.787 143.400 C 160.559 144.720,160.204 146.700,160.000 147.800 C 159.796 148.900,159.441 150.880,159.213 152.200 C 158.984 153.520,158.633 155.500,158.433 156.600 C 158.232 157.700,157.866 159.770,157.618 161.200 C 157.371 162.630,157.010 164.700,156.816 165.800 C 156.623 166.900,156.268 169.036,156.027 170.546 C 155.787 172.057,155.485 173.462,155.357 173.669 C 155.229 173.876,155.232 174.473,155.363 174.996 C 155.629 176.054,154.190 176.709,173.800 166.602 C 190.241 158.129,199.228 153.600,199.599 153.600 C 199.864 153.600,200.033 195.065,200.100 276.900 L 200.201 400.200 200.301 276.949 C 200.383 175.087,200.308 153.622,199.871 153.259 C 199.472 152.928,198.753 153.125,196.971 154.052 C 195.667 154.730,189.830 157.718,184.000 160.693 C 173.749 165.924,164.711 170.570,159.089 173.499 C 155.855 175.183,155.960 175.243,156.428 171.994 C 156.774 169.595,157.063 167.897,158.028 162.600 C 158.228 161.500,158.576 159.520,158.800 158.200 C 159.024 156.880,159.371 154.900,159.570 153.800 C 159.769 152.700,160.118 150.720,160.346 149.400 C 160.574 148.080,160.941 146.010,161.163 144.800 C 161.824 141.184,163.980 128.739,164.064 128.049 C 164.195 126.982,163.970 126.722,158.164 121.226 C 156.204 119.370,152.525 115.860,149.989 113.426 C 147.452 110.992,142.350 106.128,138.649 102.617 C 134.948 99.106,131.090 95.416,130.075 94.417 L 128.229 92.600 130.414 92.330 C 131.616 92.182,133.950 91.873,135.600 91.644 C 138.396 91.256,139.898 91.043,147.200 90.000 C 148.740 89.780,151.260 89.420,152.800 89.200 C 154.340 88.980,156.905 88.605,158.500 88.366 C 160.095 88.127,162.570 87.782,164.000 87.600 C 165.430 87.418,167.950 87.067,169.600 86.821 C 171.250 86.575,173.725 86.235,175.101 86.066 C 178.289 85.674,177.095 87.484,186.621 68.600 C 191.171 59.580,196.088 49.860,197.547 47.000 L 200.200 41.800 200.312 26.800 C 200.374 18.550,200.369 9.100,200.301 5.800 C 200.233 2.500,200.137 9.020,200.088 20.288 M47.378 36.800 C 47.378 43.510,47.432 46.255,47.499 42.900 C 47.566 39.545,47.566 34.055,47.499 30.700 C 47.432 27.345,47.378 30.090,47.378 36.800 M47.380 167.800 C 47.380 175.500,47.434 178.593,47.499 174.674 C 47.565 170.755,47.565 164.455,47.499 160.674 C 47.434 156.893,47.380 160.100,47.380 167.800 M94.879 159.000 C 94.879 159.880,95.016 161.590,95.183 162.800 L 95.487 165.000 95.504 162.200 C 95.513 160.660,95.376 158.950,95.200 158.400 C 94.926 157.545,94.880 157.633,94.879 159.000 M95.845 169.200 C 95.990 170.410,96.174 171.475,96.254 171.567 C 96.607 171.970,96.346 168.138,95.984 167.600 C 95.703 167.182,95.661 167.667,95.845 169.200 M96.628 173.861 C 96.997 175.903,97.200 176.055,97.200 174.290 C 97.200 173.497,97.009 172.729,96.774 172.584 C 96.485 172.405,96.438 172.812,96.628 173.861 M97.463 177.680 C 97.800 179.449,98.000 179.601,98.000 178.090 C 98.000 177.407,97.823 176.738,97.606 176.604 C 97.360 176.452,97.306 176.855,97.463 177.680 M98.046 180.000 C 98.065 180.330,98.224 181.050,98.400 181.600 L 98.720 182.600 98.754 181.600 C 98.773 181.050,98.613 180.330,98.400 180.000 C 98.055 179.467,98.016 179.467,98.046 180.000 M98.800 182.940 C 98.800 183.954,103.066 195.526,103.688 196.200 C 103.891 196.420,103.665 195.610,103.186 194.400 C 102.707 193.190,102.228 191.930,102.121 191.600 C 102.015 191.270,101.776 190.640,101.590 190.200 C 100.829 188.396,99.600 184.503,99.600 183.897 C 99.600 183.540,99.420 183.136,99.200 183.000 C 98.980 182.864,98.800 182.837,98.800 182.940 M104.019 197.021 C 103.992 197.617,106.054 201.679,106.273 201.461 C 106.372 201.361,105.910 200.227,105.246 198.940 C 104.582 197.653,104.030 196.790,104.019 197.021 M107.786 204.700 C 108.135 205.415,108.506 206.000,108.610 206.000 C 109.008 206.000,108.752 205.363,107.967 204.400 L 107.152 203.400 107.786 204.700 M109.386 207.500 C 109.735 208.215,110.106 208.800,110.210 208.800 C 110.608 208.800,110.352 208.163,109.567 207.200 L 108.752 206.200 109.386 207.500 M115.045 216.100 C 117.037 218.864,118.400 220.526,118.400 220.192 C 118.400 219.881,116.861 217.642,116.127 216.885 C 115.853 216.602,115.313 215.837,114.928 215.185 C 114.543 214.533,114.071 214.000,113.880 214.000 C 113.688 214.000,114.213 214.945,115.045 216.100 M280.800 222.000 C 280.800 222.440,280.620 222.800,280.400 222.800 C 280.180 222.800,280.006 223.025,280.013 223.300 C 280.021 223.575,280.381 223.375,280.813 222.856 C 281.675 221.821,281.820 221.200,281.200 221.200 C 280.980 221.200,280.800 221.560,280.800 222.000 M275.714 227.436 C 273.686 229.489,272.156 231.239,272.314 231.323 C 272.686 231.523,280.040 224.068,279.676 223.860 C 279.524 223.773,277.741 225.382,275.714 227.436 M270.118 232.900 C 269.416 233.615,268.354 234.605,267.757 235.100 C 267.161 235.595,266.875 236.000,267.122 236.000 C 267.704 236.000,271.686 232.751,271.901 232.100 C 272.192 231.221,271.432 231.562,270.118 232.900 M265.708 236.504 C 265.128 237.254,264.733 238.000,264.915 238.000 C 265.403 238.000,266.781 236.435,266.465 236.240 C 266.259 236.113,265.918 236.232,265.708 236.504 M261.899 239.564 C 260.591 240.949,260.426 241.580,261.675 240.416 C 262.157 239.967,262.678 239.600,262.833 239.600 C 262.988 239.600,263.218 239.330,263.345 239.000 C 263.707 238.057,263.097 238.295,261.899 239.564 M259.600 241.200 C 259.600 241.420,259.319 241.600,258.976 241.600 C 258.633 241.600,258.462 241.776,258.595 241.992 C 258.747 242.239,259.127 242.203,259.619 241.896 C 260.456 241.373,260.655 240.800,260.000 240.800 C 259.780 240.800,259.600 240.980,259.600 241.200 M257.200 242.702 C 257.200 242.869,256.660 243.244,256.000 243.536 C 255.340 243.828,254.800 244.223,254.800 244.413 C 254.800 244.604,255.520 244.375,256.400 243.906 C 257.918 243.095,258.472 242.400,257.600 242.400 C 257.380 242.400,257.200 242.536,257.200 242.702 M253.200 245.200 C 253.200 245.420,252.930 245.600,252.600 245.600 C 252.270 245.600,252.000 245.750,252.000 245.933 C 252.000 246.513,252.970 246.293,253.770 245.533 C 254.448 244.887,254.460 244.800,253.870 244.800 C 253.501 244.800,253.200 244.980,253.200 245.200 M249.700 246.998 C 248.936 247.866,249.090 247.972,250.400 247.478 C 251.060 247.228,251.600 246.884,251.600 246.712 C 251.600 246.188,250.232 246.394,249.700 246.998 M247.396 248.407 C 247.258 248.630,246.998 248.722,246.818 248.611 C 246.638 248.500,246.268 248.677,245.996 249.004 C 245.724 249.332,245.119 249.603,244.651 249.606 C 243.962 249.611,243.914 249.684,244.397 249.989 C 244.772 250.227,245.136 250.224,245.377 249.983 C 245.587 249.773,246.084 249.600,246.480 249.600 C 246.876 249.600,247.200 249.420,247.200 249.200 C 247.200 248.980,247.459 248.800,247.776 248.800 C 248.093 248.800,248.464 248.620,248.600 248.400 C 248.736 248.180,248.577 248.000,248.247 248.000 C 247.917 248.000,247.534 248.183,247.396 248.407 M242.400 250.765 C 242.400 251.171,243.423 251.111,243.855 250.678 C 244.008 250.525,243.743 250.400,243.267 250.400 C 242.790 250.400,242.400 250.564,242.400 250.765 M236.800 253.000 C 236.800 253.328,237.100 253.447,237.600 253.316 C 238.040 253.201,238.400 253.059,238.400 253.000 C 238.400 252.941,238.040 252.799,237.600 252.684 C 237.100 252.553,236.800 252.672,236.800 253.000 M272.218 329.516 C 271.791 329.942,272.507 330.400,273.600 330.400 C 274.635 330.400,275.722 329.692,274.924 329.537 C 273.992 329.357,272.389 329.344,272.218 329.516 M277.095 330.301 C 276.707 330.389,276.493 330.627,276.619 330.830 C 276.918 331.315,278.400 331.310,278.400 330.824 C 278.400 330.301,277.927 330.112,277.095 330.301 M279.200 331.198 C 279.200 331.683,280.322 332.212,280.652 331.882 C 280.771 331.762,280.493 331.464,280.034 331.218 C 279.456 330.909,279.200 330.903,279.200 331.198 M281.759 332.202 C 282.176 332.517,282.683 332.672,282.886 332.547 C 283.384 332.239,283.095 332.009,281.954 331.803 C 281.047 331.639,281.037 331.658,281.759 332.202 M283.400 332.800 C 283.264 333.020,283.534 333.200,284.000 333.200 C 284.466 333.200,284.736 333.020,284.600 332.800 C 284.464 332.580,284.194 332.400,284.000 332.400 C 283.806 332.400,283.536 332.580,283.400 332.800 M286.486 334.600 C 288.195 335.762,289.477 335.948,288.011 334.822 C 287.467 334.404,286.882 334.149,286.711 334.255 C 286.540 334.361,286.400 334.257,286.400 334.024 C 286.400 333.791,286.088 333.600,285.707 333.600 C 285.258 333.600,285.531 333.951,286.486 334.600 M289.200 336.292 C 289.530 336.417,289.925 336.713,290.078 336.948 C 290.231 337.184,290.496 337.237,290.667 337.067 C 291.037 336.696,290.048 336.002,289.200 336.038 C 288.667 336.060,288.667 336.089,289.200 336.292 M293.000 339.200 C 292.864 339.420,293.033 339.600,293.376 339.600 C 293.719 339.600,294.000 339.874,294.000 340.210 C 294.000 340.545,294.450 340.991,295.000 341.200 C 295.550 341.409,296.000 341.855,296.000 342.190 C 296.000 342.526,296.191 342.800,296.424 342.800 C 296.657 342.800,296.765 342.935,296.666 343.100 C 296.566 343.265,296.735 343.632,297.042 343.916 C 297.774 344.592,297.747 344.244,296.948 342.700 C 296.073 341.008,295.304 340.289,294.741 340.636 C 294.451 340.816,294.384 340.749,294.564 340.459 C 294.722 340.203,294.582 339.725,294.254 339.397 C 293.552 338.695,293.334 338.660,293.000 339.200 M298.800 346.000 C 298.800 346.220,298.959 346.400,299.153 346.400 C 299.449 346.400,299.932 347.404,300.146 348.467 C 300.176 348.613,300.335 348.868,300.500 349.033 C 301.081 349.615,300.791 347.909,300.114 346.762 C 299.430 345.605,298.800 345.239,298.800 346.000 M301.203 349.505 C 301.199 350.094,302.040 351.684,302.551 352.055 C 302.744 352.196,302.786 352.498,302.645 352.728 C 302.503 352.957,302.557 353.250,302.766 353.379 C 303.621 353.907,303.446 352.881,302.361 351.000 C 301.726 349.900,301.205 349.227,301.203 349.505 M303.200 355.151 C 303.200 355.344,303.470 355.726,303.800 356.000 C 304.301 356.416,304.400 356.358,304.400 355.649 C 304.400 355.161,304.145 354.800,303.800 354.800 C 303.470 354.800,303.200 354.958,303.200 355.151 M304.000 357.757 C 304.000 358.284,304.270 358.818,304.600 358.945 C 305.008 359.101,305.200 358.923,305.200 358.387 C 305.200 357.954,305.009 357.600,304.776 357.600 C 304.543 357.600,304.464 357.420,304.600 357.200 C 304.736 356.980,304.657 356.800,304.424 356.800 C 304.191 356.800,304.000 357.231,304.000 357.757 M305.060 360.589 C 304.613 361.754,304.759 363.280,305.300 363.102 C 305.938 362.892,306.163 361.420,305.686 360.568 C 305.348 359.965,305.299 359.966,305.060 360.589 " stroke="none" fill="#fccc1e" fill-rule="evenodd"></path></g></svg>