<svg id="svg" version="1.1" xmlns="http://www.w3.org/2000/svg" xmlns:xlink="http://www.w3.org/1999/xlink" width="400" height="400" viewBox="0, 0, 400,400"><g id="svgg"><path id="path0" d="M104.443 98.124 C 95.733 111.923,91.175 137.756,94.085 156.836 C 95.457 165.833,99.205 178.626,100.629 179.172 C 101.085 179.347,136.954 166.046,142.480 163.653 C 144.436 162.807,144.475 162.544,143.170 158.928 C 138.993 147.348,139.817 133.731,145.411 121.896 C 146.542 119.503,146.867 118.431,146.596 117.990 C 146.144 117.257,107.124 96.520,106.157 96.499 C 105.775 96.491,105.026 97.202,104.443 98.124 M111.328 181.970 C 87.528 192.241,89.589 190.523,92.972 197.273 C 104.425 220.119,123.751 237.032,148.081 245.501 C 152.135 246.912,153.323 246.971,153.668 245.781 C 153.773 245.416,156.771 235.873,160.328 224.575 C 163.886 213.277,166.797 203.763,166.797 203.432 C 166.797 202.568,166.203 202.215,162.695 200.996 C 150.935 196.907,140.375 187.359,134.934 175.893 C 133.176 172.188,135.206 171.666,111.328 181.970 " stroke="none" fill="#048ccc" fill-rule="evenodd"></path><path id="path1" d="M181.836 49.399 C 157.693 55.596,136.371 71.061,123.470 91.732 C 122.269 93.656,121.488 95.332,121.559 95.831 C 121.686 96.717,159.903 119.141,161.287 119.141 C 161.659 119.141,162.895 117.650,164.262 115.552 C 170.942 105.307,182.212 97.503,194.613 94.536 C 198.211 93.675,198.438 93.554,198.438 92.481 C 198.438 91.739,190.908 51.098,190.368 48.926 C 190.059 47.681,188.108 47.789,181.836 49.399 M210.081 128.583 C 210.524 129.149,210.471 129.260,209.691 129.409 C 208.890 129.562,208.909 129.587,209.863 129.634 C 211.094 129.695,211.245 129.243,210.254 128.466 C 209.641 127.985,209.623 127.997,210.081 128.583 M189.941 129.566 C 190.317 129.664,190.933 129.664,191.309 129.566 C 191.685 129.468,191.377 129.388,190.625 129.388 C 189.873 129.388,189.565 129.468,189.941 129.566 M205.566 129.566 C 205.942 129.664,206.558 129.664,206.934 129.566 C 207.310 129.468,207.002 129.388,206.250 129.388 C 205.498 129.388,205.190 129.468,205.566 129.566 M174.219 134.961 C 173.270 135.928,172.581 136.719,172.689 136.719 C 172.796 136.719,173.661 135.928,174.609 134.961 C 175.558 133.994,176.247 133.203,176.139 133.203 C 176.032 133.203,175.168 133.994,174.219 134.961 M198.102 138.477 C 198.102 138.906,198.253 139.609,198.438 140.039 L 198.773 140.820 198.773 140.039 C 198.773 139.609,198.622 138.906,198.438 138.477 L 198.102 137.695 198.102 138.477 M172.311 146.559 C 172.286 147.782,172.397 148.864,172.559 148.963 C 172.720 149.063,172.799 148.326,172.735 147.326 C 172.552 144.473,172.361 144.127,172.311 146.559 M164.453 158.789 C 164.453 159.541,164.522 160.156,164.606 160.156 C 164.690 160.156,164.830 159.541,164.918 158.789 C 165.006 158.037,164.937 157.422,164.765 157.422 C 164.594 157.422,164.453 158.037,164.453 158.789 M231.949 157.715 C 231.878 157.876,231.927 158.975,232.057 160.156 L 232.295 162.305 232.358 159.863 C 232.416 157.631,232.286 156.947,231.949 157.715 M185.526 175.292 C 184.347 176.574,184.329 176.622,185.379 175.677 C 186.038 175.084,186.725 174.733,186.906 174.897 C 187.087 175.061,187.117 174.991,186.974 174.740 C 186.831 174.490,186.935 174.196,187.205 174.088 C 187.474 173.979,187.510 173.876,187.284 173.859 C 187.057 173.842,186.266 174.487,185.526 175.292 M214.146 178.321 C 215.159 179.374,216.048 180.156,216.120 180.059 C 216.193 179.962,215.364 179.101,214.278 178.144 L 212.305 176.406 214.146 178.321 M210.333 185.645 L 208.789 187.305 210.449 185.761 C 211.993 184.325,212.289 183.984,211.993 183.984 C 211.930 183.984,211.182 184.731,210.333 185.645 M187.109 189.834 C 187.109 190.053,187.649 190.112,188.379 189.973 C 190.159 189.634,190.216 189.453,188.542 189.453 C 187.754 189.453,187.109 189.625,187.109 189.834 M207.422 189.604 C 207.422 189.687,207.949 189.832,208.594 189.927 C 209.238 190.022,209.766 189.954,209.766 189.776 C 209.766 189.598,209.238 189.453,208.594 189.453 C 207.949 189.453,207.422 189.521,207.422 189.604 " stroke="none" fill="#444087" fill-rule="evenodd"></path><path id="path2" d="M209.226 212.134 C 199.830 217.962,184.892 220.582,174.609 218.205 C 169.305 216.979,168.831 216.965,168.388 218.017 C 167.376 220.420,156.609 259.948,156.715 260.867 C 157.111 264.295,184.342 266.833,198.047 264.720 C 211.352 262.669,223.911 258.176,235.055 251.478 C 240.435 248.245,240.486 248.953,234.215 239.695 C 211.449 206.087,214.158 209.075,209.226 212.134 " stroke="none" fill="#049c4c" fill-rule="evenodd"></path><path id="path3" d="M193.945 122.316 C 164.596 125.985,151.928 162.434,172.603 183.724 C 190.068 201.710,220.084 197.205,231.293 174.915 C 244.369 148.909,222.915 118.694,193.945 122.316 M187.921 127.688 L 186.194 129.181 189.679 129.392 C 191.596 129.508,194.130 129.930,195.309 130.329 L 197.455 131.055 197.893 134.875 C 198.440 139.646,198.647 139.874,198.990 136.083 C 199.451 131.005,199.436 131.037,201.700 130.283 C 202.806 129.915,205.286 129.516,207.211 129.397 L 210.712 129.179 208.969 127.677 C 206.961 125.945,206.980 125.928,209.804 126.899 C 215.973 129.022,223.989 134.984,226.181 139.080 C 226.703 140.054,226.629 140.044,224.485 138.846 L 222.701 137.849 223.517 140.116 C 223.981 141.403,224.415 143.776,224.521 145.606 L 224.707 148.830 221.045 150.596 C 217.280 152.412,217.337 152.449,222.466 151.504 C 225.909 150.869,227.781 152.794,229.720 158.963 L 230.402 161.133 231.235 159.277 C 232.402 156.678,232.574 156.933,232.292 160.840 C 231.980 165.160,230.859 169.249,228.887 173.257 C 227.488 176.104,224.653 180.031,225.142 178.446 C 225.254 178.085,225.466 177.146,225.613 176.360 L 225.881 174.929 223.976 176.285 C 221.645 177.943,219.450 179.065,217.383 179.655 L 215.820 180.101 212.751 176.867 C 210.613 174.613,209.916 174.047,210.453 175.000 C 210.876 175.752,211.868 177.486,212.656 178.853 L 214.090 181.338 212.499 183.445 C 210.980 185.458,207.355 188.672,206.606 188.672 C 206.410 188.672,206.250 188.848,206.250 189.063 C 206.250 189.277,207.041 189.453,208.008 189.453 C 211.439 189.453,209.682 190.417,204.410 191.427 C 202.943 191.709,200.088 191.819,197.184 191.706 C 190.348 191.441,183.472 189.492,189.160 189.431 L 191.211 189.410 190.052 188.553 C 187.918 186.973,184.758 183.869,183.944 182.552 L 183.138 181.247 184.602 178.612 C 185.408 177.162,186.323 175.537,186.636 175.000 C 186.949 174.463,185.846 175.402,184.185 177.088 L 181.165 180.152 178.766 179.298 C 177.447 178.828,175.403 177.801,174.225 177.015 C 173.047 176.229,171.879 175.456,171.631 175.297 C 171.295 175.083,171.272 175.422,171.541 176.622 C 172.122 179.205,171.754 179.179,170.022 176.517 C 166.955 171.804,165.230 166.593,164.638 160.254 C 164.333 156.985,164.720 156.649,165.791 159.254 L 166.544 161.083 167.200 159.155 C 168.045 156.669,169.622 153.632,170.832 152.158 L 171.786 150.995 176.030 151.824 C 178.364 152.280,180.308 152.622,180.350 152.585 C 180.392 152.547,178.634 151.714,176.444 150.732 L 172.461 148.948 172.533 145.861 C 172.578 143.911,172.902 141.922,173.413 140.463 C 174.402 137.634,174.396 137.627,172.140 139.058 C 169.791 140.548,169.838 140.179,172.393 137.088 C 175.845 132.912,180.349 129.663,185.742 127.461 C 189.736 125.830,190.034 125.862,187.921 127.688 M190.891 148.323 C 186.849 151.223,183.615 153.797,183.707 154.044 C 183.798 154.290,185.082 158.143,186.561 162.605 L 189.248 170.717 198.399 170.612 L 207.550 170.508 210.376 162.041 L 213.201 153.574 206.157 148.564 C 202.282 145.809,198.916 143.441,198.677 143.303 C 198.438 143.165,194.934 145.424,190.891 148.323 M208.008 282.136 C 200.301 285.298,202.122 296.289,210.352 296.289 C 219.647 296.289,220.271 282.665,211.014 281.823 C 210.005 281.731,208.652 281.872,208.008 282.136 M91.406 313.672 L 91.406 338.281 105.859 338.281 L 120.313 338.281 120.313 332.422 L 120.313 326.563 112.500 326.563 L 104.688 326.563 104.688 307.813 L 104.688 289.063 98.047 289.063 L 91.406 289.063 91.406 313.672 M170.703 313.672 L 170.703 338.281 184.961 338.281 L 199.219 338.281 199.219 332.422 L 199.219 326.563 191.602 326.563 L 183.984 326.563 183.984 307.813 L 183.984 289.063 177.344 289.063 L 170.703 289.063 170.703 313.672 M138.026 298.475 C 116.335 302.098,115.677 335.764,137.240 338.697 C 142.142 339.364,147.279 338.109,151.074 335.317 C 151.948 334.674,151.953 334.680,151.953 336.280 L 151.953 337.891 158.203 337.891 L 164.453 337.891 164.453 318.359 L 164.453 298.828 158.203 298.828 L 151.953 298.828 151.953 300.606 L 151.953 302.384 150.684 301.432 C 146.933 298.620,142.857 297.667,138.026 298.475 M235.156 298.579 C 216.594 302.611,217.128 333.645,235.814 336.846 C 239.258 337.435,242.750 336.782,246.582 334.829 L 249.609 333.287 249.608 335.101 C 249.604 340.552,241.416 343.551,237.253 339.625 L 235.828 338.281 229.016 338.281 L 222.204 338.281 222.459 339.551 C 225.336 353.836,250.956 356.716,259.218 343.683 C 261.676 339.805,261.719 339.373,261.719 318.176 L 261.719 298.828 255.859 298.828 L 250.000 298.828 250.000 300.632 L 250.000 302.436 248.730 301.470 C 244.770 298.454,240.205 297.482,235.156 298.579 M282.813 298.463 C 268.666 300.856,261.659 318.866,270.028 331.319 C 275.353 339.240,287.200 341.385,295.206 335.876 L 296.875 334.728 296.875 336.309 L 296.875 337.891 303.125 337.891 L 309.375 337.891 309.375 318.359 L 309.375 298.828 303.342 298.828 L 297.308 298.828 297.189 300.590 L 297.070 302.351 295.133 300.971 C 291.935 298.693,287.178 297.724,282.813 298.463 M204.297 318.555 L 204.297 338.281 210.352 338.281 L 216.406 338.281 216.406 318.555 L 216.406 298.828 210.352 298.828 L 204.297 298.828 204.297 318.555 M244.054 309.053 C 246.793 309.742,249.373 312.474,250.021 315.370 C 251.983 324.136,242.074 330.392,235.941 324.259 C 229.463 317.781,235.297 306.847,244.054 309.053 M147.557 310.496 C 154.116 313.842,153.934 323.507,147.247 326.955 C 139.878 330.755,131.389 322.763,134.797 315.234 C 137.106 310.133,142.743 308.040,147.557 310.496 M291.071 309.828 C 297.563 311.773,299.605 320.338,294.737 325.206 C 287.058 332.885,274.819 323.022,280.535 313.761 C 282.654 310.328,287.145 308.652,291.071 309.828 " stroke="none" fill="#1c1c1c" fill-rule="evenodd"></path><path id="path4" d="M185.528 127.686 C 180.281 129.877,172.826 135.730,171.115 139.002 L 170.636 139.917 172.128 138.904 C 174.361 137.386,174.656 137.577,173.736 139.941 C 173.164 141.410,172.926 142.980,172.895 145.474 L 172.852 148.955 177.251 150.905 C 179.670 151.978,181.604 152.902,181.547 152.958 C 181.491 153.014,179.348 152.634,176.785 152.114 L 172.126 151.167 171.256 151.985 C 170.153 153.021,168.269 156.595,167.376 159.347 L 166.688 161.467 165.784 159.737 L 164.879 158.008 164.861 159.829 C 164.819 164.252,166.781 170.792,169.554 175.469 C 171.352 178.502,171.987 179.098,171.459 177.256 C 170.722 174.686,170.935 174.418,172.639 175.767 C 174.578 177.303,178.305 179.210,180.006 179.536 C 181.236 179.772,181.467 179.610,184.610 176.318 C 188.180 172.578,188.217 172.833,184.917 178.415 L 183.183 181.348 184.800 183.489 C 185.688 184.666,187.545 186.446,188.926 187.444 L 191.436 189.258 189.566 189.684 L 187.695 190.109 190.820 190.852 C 195.150 191.881,202.221 191.872,206.445 190.833 L 209.570 190.064 207.428 189.654 L 205.287 189.243 207.093 188.185 C 208.931 187.108,213.676 182.273,213.667 181.486 C 213.665 181.249,213.210 180.264,212.656 179.297 C 212.103 178.330,211.028 176.396,210.267 175.000 L 208.884 172.461 212.319 176.110 C 215.521 179.511,215.837 179.743,216.960 179.519 C 218.756 179.160,222.645 177.225,224.376 175.829 C 226.205 174.355,226.231 174.368,225.746 176.527 C 225.192 178.992,225.426 178.848,227.450 175.480 C 229.950 171.319,231.692 165.934,231.901 161.719 L 232.065 158.398 231.215 159.946 L 230.365 161.493 229.294 158.457 C 228.442 156.045,225.698 151.172,225.191 151.172 C 225.033 151.172,217.526 152.695,216.406 152.954 C 214.699 153.349,216.048 152.556,220.460 150.568 L 224.709 148.655 224.475 145.881 C 224.346 144.356,223.891 141.986,223.464 140.614 C 222.541 137.648,222.592 137.545,224.447 138.639 C 226.746 139.996,226.442 139.337,223.207 135.951 C 219.683 132.262,215.807 129.543,211.543 127.768 C 208.112 126.339,207.566 126.374,209.560 127.895 C 211.509 129.382,211.338 129.539,207.715 129.596 C 205.839 129.625,203.512 129.946,202.148 130.364 L 199.805 131.082 199.190 135.951 C 198.520 141.252,198.410 141.171,197.664 134.839 C 197.454 133.053,197.195 131.451,197.089 131.280 C 196.668 130.600,191.915 129.618,188.979 129.605 L 185.873 129.591 187.352 128.077 C 189.086 126.301,188.926 126.267,185.528 127.686 M205.804 148.112 C 209.809 150.940,213.147 153.301,213.222 153.358 C 213.297 153.415,212.068 157.344,210.492 162.089 L 207.626 170.717 198.288 170.612 L 188.951 170.508 186.276 162.305 C 184.805 157.793,183.644 153.886,183.695 153.623 C 183.776 153.213,197.863 142.969,198.347 142.969 C 198.443 142.969,201.799 145.283,205.804 148.112 " stroke="none" fill="#fafafa" fill-rule="evenodd"></path><path id="path5" d="M206.738 59.016 C 200.812 59.625,200.216 59.813,200.065 61.116 C 199.807 63.350,206.353 105.497,207.011 105.842 C 207.345 106.016,208.760 105.989,210.156 105.783 C 221.629 104.083,236.543 108.140,246.440 115.654 C 248.400 117.142,250.252 118.359,250.556 118.359 C 251.034 118.359,280.141 85.644,280.952 84.196 C 282.394 81.619,263.365 69.493,250.346 64.693 C 237.521 59.964,219.862 57.665,206.738 59.016 " stroke="none" fill="#db242c" fill-rule="evenodd"></path><path id="path6" d="M261.359 115.114 C 252.748 124.071,245.703 131.681,245.703 132.026 C 245.703 132.370,246.741 133.718,248.009 135.022 C 256.941 144.207,262.109 156.558,262.109 168.716 C 262.109 171.656,262.261 173.077,262.604 173.362 C 263.494 174.100,308.570 176.048,309.037 175.368 C 309.795 174.266,309.149 159.750,308.064 153.516 C 305.135 136.678,298.086 121.379,287.243 108.328 C 283.453 103.765,278.447 98.828,277.611 98.828 C 277.283 98.828,269.969 106.157,261.359 115.114 " stroke="none" fill="#ec842c" fill-rule="evenodd"></path><path id="path7" d="M248.296 179.210 C 248.192 179.377,247.908 181.003,247.663 182.824 C 245.917 195.821,238.603 208.623,228.915 215.642 C 226.907 217.097,226.536 217.543,226.658 218.359 C 226.877 219.818,253.335 255.078,254.211 255.078 C 254.600 255.078,256.844 253.550,259.197 251.682 C 279.149 235.846,292.071 212.528,294.945 187.174 C 295.286 184.167,295.290 183.024,294.960 182.694 C 294.195 181.930,248.714 178.534,248.296 179.210 " stroke="none" fill="#fcf404" fill-rule="evenodd"></path></g></svg>