<?xml version="1.0" standalone="no"?>
<!DOCTYPE svg PUBLIC "-//W3C//DTD SVG 20010904//EN"
 "http://www.w3.org/TR/2001/REC-SVG-20010904/DTD/svg10.dtd">
<svg version="1.0" xmlns="http://www.w3.org/2000/svg"
 width="1280.000000pt" height="993.000000pt" viewBox="0 0 1280.000000 993.000000"
 preserveAspectRatio="xMidYMid meet">
<metadata>
Created by potrace 1.15, written by Peter Selinger 2001-2017
</metadata>
<g transform="translate(0.000000,993.000000) scale(0.100000,-0.100000)"
fill="#000000" stroke="none">
<path d="M3406 9916 c-15 -9 -46 -16 -67 -16 -44 0 -54 -11 -38 -41 11 -21 16
-21 113 -16 55 4 124 9 151 12 46 4 44 3 -24 -15 -85 -23 -86 -23 -77 -46 5
-12 14 -15 37 -10 17 3 45 0 64 -8 18 -8 68 -17 111 -21 44 -4 110 -13 148
-21 89 -17 136 2 89 38 -10 7 -23 22 -29 33 -10 17 -22 20 -75 20 -35 0 -74 6
-85 12 -12 7 -40 15 -62 19 -31 5 -39 10 -35 23 7 29 -18 39 -107 46 -67 5
-91 3 -114 -9z"/>
<path d="M4042 9779 c-26 -10 -46 -54 -38 -85 8 -29 38 -38 80 -24 18 6 69 10
114 9 89 -3 119 9 102 41 -10 18 -62 28 -167 33 -25 1 -43 6 -43 13 0 17 -21
23 -48 13z"/>
<path d="M4251 9621 c-8 -13 -8 -28 -1 -46 14 -38 14 -38 -34 -31 -38 6 -44 4
-49 -14 -4 -15 -13 -20 -41 -20 -19 0 -57 -5 -85 -11 -40 -8 -55 -7 -80 5 -44
23 -143 21 -158 -2 -9 -16 -29 -20 -113 -26 -67 -4 -112 -12 -133 -24 -18 -9
-48 -19 -67 -22 -54 -8 -42 -28 39 -69 41 -20 73 -40 70 -46 -2 -6 -35 -9 -79
-7 -41 2 -82 3 -90 2 -8 -1 -68 -3 -133 -5 -64 -1 -120 -5 -123 -8 -11 -11 16
-46 38 -49 14 -2 24 -12 28 -28 6 -23 10 -25 53 -22 29 2 56 -2 74 -12 15 -9
53 -25 83 -36 30 -11 53 -20 50 -20 -3 -1 -39 -1 -80 -1 -85 0 -158 9 -166 22
-3 5 -20 9 -37 9 -18 0 -55 9 -84 20 -56 21 -78 13 -49 -19 22 -24 20 -34 -3
-21 -30 15 -92 13 -85 -4 9 -22 49 -35 106 -32 46 2 60 -1 83 -21 15 -13 25
-27 22 -30 -7 -6 -232 34 -264 47 -13 5 -23 18 -23 29 0 33 -21 68 -47 80 -38
17 -49 13 -25 -10 25 -22 21 -39 -8 -39 -11 0 -24 -9 -30 -19 -8 -17 -4 -25
22 -50 18 -17 38 -31 45 -31 20 0 43 -30 43 -58 1 -17 16 -44 39 -71 l39 -43
120 -2 c100 -2 124 -5 148 -21 16 -11 38 -24 49 -30 11 -6 21 -19 23 -30 5
-27 22 -45 49 -56 34 -13 28 -29 -10 -29 -36 0 -60 19 -72 59 -5 15 -25 31
-62 48 -50 23 -62 25 -112 17 -40 -6 -57 -14 -59 -26 -2 -9 5 -19 16 -23 16
-4 21 -17 24 -58 5 -55 -3 -73 -37 -88 -11 -5 -31 -17 -45 -28 -23 -18 -31
-18 -118 -7 -51 7 -98 18 -104 24 -7 7 -20 12 -30 12 -10 0 -18 5 -18 10 0 13
26 13 52 -1 11 -6 45 -14 75 -18 58 -8 63 -5 110 74 24 40 25 46 9 64 -9 10
-16 24 -14 32 2 7 -15 22 -37 34 -22 12 -50 37 -62 56 -12 19 -31 43 -41 54
-11 11 -22 32 -26 47 -3 14 -29 47 -57 72 -28 25 -48 50 -44 56 10 16 -13 67
-33 76 -10 4 -64 12 -121 18 -91 10 -106 10 -123 -4 -17 -14 -18 -19 -7 -43
17 -38 0 -73 -41 -82 -36 -8 -39 -38 -4 -43 24 -3 54 -50 54 -86 0 -29 25 -46
68 -46 16 0 37 -9 47 -20 10 -11 28 -20 40 -20 26 0 55 -29 55 -54 0 -20 0
-20 -123 8 -38 9 -77 20 -87 26 -36 20 -39 9 -10 -37 17 -26 30 -55 30 -64 0
-11 -22 -30 -57 -50 -69 -40 -133 -96 -133 -116 0 -9 14 -43 30 -77 17 -33 39
-92 50 -131 42 -146 110 -461 110 -511 0 -35 5 -56 16 -65 25 -20 69 -90 88
-138 15 -39 15 -46 1 -67 -9 -14 -35 -29 -64 -38 -119 -35 -133 -58 -81 -139
41 -65 103 -95 158 -79 24 8 55 29 81 57 l42 45 24 -24 c19 -19 25 -36 25 -67
0 -23 5 -71 11 -106 6 -35 8 -88 4 -118 -6 -49 -11 -59 -49 -90 l-43 -35 -79
33 c-44 19 -101 46 -129 60 -72 38 -127 44 -175 21 l-39 -19 20 -32 c17 -26
18 -35 8 -52 -14 -21 -45 -28 -154 -37 -80 -7 -96 -18 -130 -84 -13 -25 -35
-56 -49 -70 -22 -20 -30 -22 -44 -12 -31 22 -42 24 -58 11 -12 -10 -15 -25
-11 -62 4 -42 10 -55 46 -87 39 -36 41 -41 41 -96 1 -37 8 -72 19 -93 l18 -34
21 30 c17 24 31 31 69 36 37 4 52 11 73 38 l27 32 45 -21 c38 -19 48 -20 77
-9 29 11 34 10 47 -7 8 -12 14 -43 14 -77 0 -32 5 -61 10 -64 25 -16 5 -20
-48 -11 -33 5 -66 6 -75 3 -21 -8 -22 -53 -2 -61 20 -7 19 -36 -1 -36 -8 0
-24 5 -35 11 -15 7 -24 7 -34 -1 -19 -16 -2 -50 25 -50 10 0 21 -9 25 -19 3
-11 17 -26 30 -35 14 -9 25 -23 25 -31 0 -9 9 -15 23 -15 14 0 26 -9 32 -22 7
-16 19 -23 40 -23 27 -1 30 -4 37 -45 10 -59 49 -151 62 -147 11 4 13 35 5 72
-3 14 4 22 24 29 26 9 31 7 68 -37 22 -26 47 -47 54 -47 7 0 21 -7 29 -16 12
-12 14 -20 5 -36 -9 -17 -17 -19 -47 -14 -21 4 -56 9 -79 12 l-43 6 0 -41 c0
-38 2 -42 31 -48 37 -7 45 -23 30 -63 -13 -39 -8 -50 35 -78 36 -24 47 -43 70
-130 27 -102 33 -97 -123 -100 -131 -3 -137 -2 -162 21 -45 41 -74 57 -106 57
-42 0 -71 23 -79 62 -18 88 -18 98 0 126 11 15 21 43 24 62 5 33 7 35 43 34
63 -2 37 43 -35 60 -15 3 -43 26 -63 50 -39 48 -31 45 -202 65 -92 10 -178 46
-251 106 -43 35 -94 46 -107 25 -13 -20 -64 -10 -98 20 -57 50 -132 66 -173
36 -21 -16 -22 -14 28 -45 29 -17 40 -33 51 -69 18 -61 9 -77 -56 -106 -42
-18 -68 -22 -137 -21 -47 1 -97 7 -113 13 -15 7 -48 11 -73 10 -39 -2 -50 2
-68 24 -27 33 -68 41 -226 42 -111 1 -130 -2 -167 -21 -23 -13 -48 -32 -57
-44 -14 -20 -21 -21 -83 -16 -38 3 -75 7 -83 9 -20 4 -25 -33 -6 -44 46 -26
-10 -46 -141 -50 -57 -2 -107 -8 -112 -13 -4 -6 -11 -27 -14 -48 -6 -37 -5
-39 39 -57 50 -22 57 -47 23 -81 -14 -14 -27 -19 -42 -14 -54 17 -67 17 -67 3
0 -25 36 -49 82 -55 50 -7 68 -18 68 -43 0 -10 9 -20 21 -23 18 -5 19 -8 8
-26 -11 -17 -10 -23 5 -40 15 -16 31 -21 72 -21 48 0 56 -3 76 -30 20 -27 27
-30 77 -30 52 0 57 3 73 30 25 44 61 49 122 15 28 -15 58 -34 67 -41 24 -22
105 -6 155 29 37 26 46 28 73 19 24 -9 39 -8 66 4 31 12 35 12 35 0 0 -8 -5
-18 -11 -22 -7 -4 -10 -49 -10 -123 1 -152 -8 -250 -24 -275 -8 -12 -21 -50
-30 -86 -17 -67 -38 -115 -54 -125 -5 -3 -49 -1 -97 5 -48 5 -90 8 -92 6 -5
-6 64 -152 76 -160 6 -3 18 -30 26 -59 8 -29 31 -71 49 -92 19 -22 36 -49 38
-60 7 -33 37 -30 59 7 14 23 20 50 20 91 0 31 4 57 9 57 15 0 22 -30 11 -50
-11 -21 -13 -89 -4 -114 3 -9 16 -16 28 -16 32 0 62 -25 101 -83 19 -29 55
-79 79 -112 24 -33 47 -76 50 -96 3 -19 15 -44 26 -54 11 -10 20 -24 20 -32 0
-7 12 -18 27 -24 62 -23 126 -112 130 -179 6 -122 13 -150 51 -208 29 -44 44
-58 66 -60 44 -5 84 -52 98 -114 7 -34 20 -60 35 -71 12 -10 23 -24 23 -31 0
-7 20 -36 45 -65 25 -29 45 -61 45 -72 0 -11 11 -24 24 -30 24 -11 46 -47 46
-74 0 -8 -9 -19 -20 -25 -26 -14 -26 -49 1 -100 11 -22 23 -59 26 -82 4 -24
12 -53 20 -65 9 -14 12 -33 8 -55 -6 -30 -3 -37 19 -51 39 -26 75 -21 187 28
57 24 114 45 127 45 30 0 84 23 101 43 10 12 18 14 31 7 23 -12 61 1 88 31 24
25 157 88 187 89 11 0 44 11 74 25 l54 25 -5 44 c-5 42 -4 45 34 70 22 14 59
29 81 32 23 4 59 15 80 26 28 14 42 16 56 8 25 -13 58 -13 66 0 4 6 -1 22 -10
36 -23 36 -13 51 37 59 52 9 68 20 68 49 0 13 19 40 45 66 44 43 75 108 75
157 0 17 6 23 23 23 26 0 47 17 47 39 0 8 19 34 42 58 35 35 41 49 42 85 1 32
-3 43 -14 43 -25 0 -72 54 -65 76 5 14 0 21 -20 29 -14 5 -36 10 -48 10 -47 0
-94 23 -144 69 -46 42 -54 54 -59 97 -4 27 -15 59 -26 71 -18 19 -18 22 -3 31
9 5 15 17 14 27 -5 22 -29 32 -29 12 0 -8 -13 -30 -30 -48 -16 -19 -30 -39
-30 -45 0 -6 -9 -19 -20 -29 -11 -10 -20 -26 -20 -35 0 -25 -51 -68 -103 -86
-43 -15 -48 -14 -76 2 -24 14 -33 16 -43 6 -14 -14 -42 -16 -66 -3 -9 5 -25
12 -35 15 -16 5 -17 14 -11 90 7 85 7 85 -20 97 -14 7 -29 9 -33 5 -4 -4 -6
-33 -5 -66 1 -32 -2 -61 -7 -64 -15 -10 -43 25 -37 47 3 14 -5 29 -25 48 -23
22 -31 39 -35 76 -3 35 -10 53 -27 65 -45 34 -87 85 -115 139 -50 96 -68 122
-90 130 -33 13 -27 27 28 61 28 17 50 35 50 39 0 16 39 9 49 -8 7 -14 12 -15
24 -5 14 12 47 7 47 -7 0 -3 18 -30 40 -58 21 -29 53 -85 70 -125 17 -40 36
-76 43 -80 7 -4 29 -8 49 -8 20 0 39 -4 42 -9 10 -15 114 -71 133 -71 10 0 33
-9 51 -20 45 -27 56 -26 103 17 36 32 47 37 91 37 44 0 54 -4 79 -32 21 -23
29 -43 29 -68 0 -49 44 -88 102 -90 71 -3 200 -24 248 -41 53 -19 84 -19 205
-3 50 7 102 12 118 11 15 0 53 -2 85 -3 42 -2 66 2 85 15 50 33 103 18 91 -27
-5 -23 -2 -28 30 -41 24 -10 42 -28 56 -55 11 -22 34 -47 51 -56 17 -8 51 -34
76 -56 46 -43 109 -62 151 -47 33 12 35 -7 5 -31 -20 -15 -36 -20 -58 -16 -16
3 -37 1 -45 -4 -12 -8 3 -27 79 -100 51 -49 99 -90 105 -90 7 0 35 7 63 15 57
17 73 43 66 106 -3 23 0 39 10 47 13 11 18 6 32 -32 9 -24 14 -49 10 -55 -3
-6 3 -23 14 -37 25 -32 27 -66 6 -98 -19 -28 -13 -55 39 -201 25 -71 36 -117
36 -157 0 -49 4 -62 29 -90 15 -18 43 -62 61 -98 18 -36 44 -78 58 -93 26 -27
30 -40 61 -215 6 -30 18 -52 42 -75 42 -38 119 -216 127 -289 3 -32 12 -54 28
-69 13 -12 24 -31 24 -40 0 -23 29 -39 73 -39 31 0 36 4 52 45 9 26 32 58 51
73 20 16 34 36 34 49 0 12 5 25 10 28 6 4 8 15 5 26 -5 15 -1 19 18 19 39 0
52 24 38 69 -16 56 -14 109 10 179 17 50 19 68 10 90 -5 15 -10 48 -10 73 0
25 -5 65 -11 89 -18 67 12 120 68 120 14 0 21 9 26 31 5 27 9 30 30 25 31 -8
71 24 86 69 6 19 23 44 38 56 15 11 29 30 32 42 3 13 15 23 27 25 13 2 34 23
53 53 33 51 148 159 169 159 7 0 23 11 36 25 20 20 25 34 25 78 0 40 5 58 18
70 10 10 22 17 27 17 5 0 17 8 27 17 16 14 21 15 27 4 6 -10 14 -11 26 -3 10
5 35 7 56 5 47 -7 89 3 89 21 0 9 8 12 24 9 13 -3 27 0 30 6 4 6 16 11 26 11
14 0 20 9 22 37 2 30 7 38 23 38 32 0 67 -84 69 -164 1 -60 5 -71 40 -116 21
-27 40 -52 41 -53 2 -2 17 4 34 14 38 22 73 9 96 -35 14 -28 14 -31 -5 -41
-39 -21 -15 -69 26 -53 26 10 61 -35 84 -108 20 -60 21 -76 11 -108 -15 -51
-14 -96 3 -110 8 -7 40 -10 81 -8 60 3 71 7 90 30 11 15 28 27 38 27 13 0 17
9 17 40 0 50 24 65 52 31 10 -13 18 -30 18 -39 0 -9 12 -28 26 -43 20 -21 28
-42 34 -91 4 -35 15 -81 25 -103 11 -25 15 -51 11 -74 -5 -30 -1 -39 20 -56
23 -19 25 -27 26 -111 2 -81 4 -92 22 -100 29 -12 32 -43 7 -60 -27 -19 -28
-73 -2 -105 19 -23 19 -24 -4 -64 -16 -28 -24 -59 -26 -100 -2 -59 -2 -60 24
-57 21 2 39 -10 88 -60 33 -35 68 -76 76 -93 8 -16 27 -42 41 -58 21 -22 28
-42 35 -105 5 -42 8 -88 8 -101 -1 -13 12 -38 28 -56 16 -18 39 -63 51 -100
17 -50 28 -69 48 -78 15 -7 46 -31 69 -54 24 -23 64 -48 90 -57 42 -14 49 -14
70 -1 17 11 23 25 23 51 0 34 -10 49 -64 92 -13 10 -16 34 -16 120 0 92 -4
114 -24 159 -14 28 -36 59 -49 68 -14 9 -27 25 -30 35 -3 12 -14 20 -25 20
-13 0 -24 10 -30 29 -8 21 -20 32 -49 41 -64 19 -81 31 -99 69 -9 20 -30 58
-47 84 -16 26 -33 62 -36 80 -5 22 -14 33 -30 37 -17 4 -29 19 -42 53 -22 56
-16 94 26 174 21 39 25 60 25 134 0 79 2 89 22 103 12 9 33 16 45 16 21 0 23
-4 21 -42 l-3 -42 49 -8 c34 -5 57 -15 73 -32 13 -14 34 -26 47 -26 15 0 27
-9 34 -25 6 -14 16 -25 22 -25 5 0 10 -18 10 -40 0 -32 4 -40 18 -40 10 0 26
-13 35 -30 14 -23 25 -30 50 -30 22 -1 44 -12 69 -34 36 -31 37 -34 26 -68
-14 -47 -3 -108 20 -108 23 0 37 11 51 38 6 12 18 22 26 22 18 0 95 97 95 120
0 25 18 36 69 44 60 9 72 17 120 79 41 54 41 56 43 138 1 102 -9 156 -33 188
-11 13 -19 35 -19 48 0 28 -22 74 -44 92 -9 8 -16 24 -16 38 0 17 -10 29 -31
41 -17 9 -50 32 -73 50 -22 18 -52 40 -65 50 -54 40 -81 71 -81 96 0 19 -5 26
-20 26 -11 0 -20 4 -20 9 0 5 -8 17 -17 26 -9 10 -20 44 -25 77 -8 58 -7 62
22 95 21 23 30 44 30 68 0 29 4 35 22 35 12 0 33 11 47 24 38 34 107 59 131
46 10 -5 29 -9 42 -7 21 2 23 -1 20 -35 -3 -36 11 -76 32 -90 18 -12 63 -9 75
6 7 8 9 31 5 59 -9 64 4 77 75 77 34 0 73 8 100 20 24 11 49 20 57 20 7 0 21
11 30 25 14 21 21 24 58 19 44 -6 84 8 135 47 13 11 39 19 58 19 26 0 36 5 42
23 5 12 32 41 60 65 28 24 51 50 51 58 0 8 16 24 35 35 24 15 35 28 35 45 0
14 10 30 24 39 23 15 24 22 25 110 0 61 5 104 14 122 8 15 17 41 21 56 4 17
16 31 31 37 13 5 27 20 29 32 9 46 16 156 10 171 -4 10 -27 17 -75 22 -76 8
-85 21 -28 40 26 9 35 18 37 39 2 15 -1 33 -6 39 -5 7 -12 32 -16 56 -9 58
-22 81 -47 81 -48 0 -99 42 -135 111 -46 88 -93 141 -143 164 -64 28 -64 35
12 169 18 33 30 41 67 50 34 8 48 18 58 39 21 44 9 61 -37 53 -26 -4 -49 -1
-67 9 -54 28 -137 14 -147 -24 -3 -12 -12 -21 -21 -21 -20 0 -93 65 -101 91
-4 13 -16 19 -36 19 -36 0 -119 63 -119 90 0 14 10 17 62 18 42 1 66 6 77 17
15 15 15 17 -1 29 -25 18 -23 29 11 54 16 12 34 36 40 54 9 28 19 36 56 47 51
15 65 9 90 -39 12 -24 12 -30 -6 -60 -17 -27 -19 -37 -9 -61 7 -15 9 -41 5
-58 -11 -53 24 -39 75 30 10 14 40 34 67 44 42 16 55 17 123 6 41 -7 82 -17
91 -22 24 -12 31 -52 19 -102 -8 -30 -8 -51 -1 -70 10 -27 13 -28 78 -26 85 3
127 -14 131 -55 2 -16 -1 -33 -7 -39 -20 -20 -12 -55 18 -76 30 -22 51 -80 51
-144 0 -84 29 -137 75 -137 31 0 38 12 25 45 -23 60 9 84 125 94 62 5 71 9 82
31 16 35 2 95 -31 129 -14 15 -26 34 -26 42 0 8 -51 65 -113 127 -86 85 -120
112 -140 112 -29 0 -43 16 -39 43 2 11 -3 17 -17 17 -11 0 -26 10 -32 22 -10
19 -9 24 11 37 13 9 38 30 56 48 40 37 45 81 14 128 -24 36 -25 61 -4 69 9 4
14 13 10 21 -3 8 0 15 7 15 7 0 17 14 22 32 6 17 19 37 30 44 17 11 26 9 64
-16 71 -48 120 -40 197 32 28 26 31 34 27 72 -4 29 0 51 10 67 8 13 18 40 22
59 3 19 14 54 22 78 13 36 14 53 4 112 -16 97 -14 120 11 147 18 20 20 27 10
41 -6 9 -26 46 -42 82 -17 36 -46 81 -64 100 -41 42 -61 81 -77 146 -8 35 -23
60 -53 89 -22 22 -56 61 -73 88 -20 28 -40 47 -51 47 -11 0 -34 10 -53 23 -40
27 -154 65 -188 63 -23 -1 -34 -13 -45 -48 -8 -28 -39 -21 -58 12 -14 24 -24
30 -51 30 -24 0 -41 8 -62 30 -27 28 -34 30 -98 30 -67 0 -69 1 -63 23 3 12 6
30 6 39 0 11 14 24 35 32 26 11 35 21 35 38 0 13 4 29 9 37 6 9 5 21 -1 31
-15 23 -3 50 22 50 13 0 20 7 20 20 0 11 5 29 12 40 9 15 9 24 -1 43 -11 20
-10 30 6 63 l18 39 140 0 c77 1 146 4 153 9 7 4 22 4 35 -1 12 -4 45 -8 72 -9
28 -1 59 -3 70 -5 16 -3 19 1 17 17 -1 12 4 27 12 33 13 11 22 9 50 -9 29 -17
44 -20 82 -14 52 8 77 -9 67 -46 -5 -18 0 -20 41 -20 26 0 55 4 65 9 10 6 23
6 31 1 10 -6 21 -4 32 7 11 9 39 16 75 17 45 1 59 5 61 18 3 17 -20 25 -98 30
-30 3 -35 7 -38 31 -2 16 2 35 10 44 8 10 12 37 9 79 l-3 64 49 0 c26 -1 74 2
105 6 56 6 57 5 99 -35 24 -23 53 -41 65 -41 12 0 24 -7 28 -15 9 -25 45 -18
58 13 7 15 20 38 30 51 25 33 23 38 -22 61 -22 11 -40 24 -40 29 0 10 78 24
91 15 5 -3 27 -29 49 -57 22 -29 50 -64 62 -79 l22 -28 -23 -24 c-28 -29 -40
-85 -41 -179 0 -84 -11 -107 -50 -107 -33 0 -35 -3 -20 -30 6 -11 12 -39 13
-62 4 -62 75 -149 219 -264 65 -52 128 -110 140 -129 13 -19 51 -50 87 -70 37
-22 97 -71 143 -119 90 -93 101 -92 96 10 -3 48 -10 69 -31 97 -15 20 -27 38
-27 41 0 2 12 6 28 8 40 4 43 50 6 89 -35 37 -27 57 28 61 56 4 63 30 16 54
-18 9 -54 35 -80 58 -50 42 -49 56 5 56 16 0 30 7 34 16 8 21 -44 63 -79 64
-18 0 -34 10 -50 31 -52 70 -88 101 -109 96 -46 -12 -119 38 -119 82 0 14 -13
38 -30 56 -35 36 -33 72 4 60 51 -17 71 -11 81 23 12 41 43 41 63 0 18 -38 37
-35 59 10 14 28 25 38 47 40 56 7 116 -9 149 -37 34 -29 92 -47 102 -31 3 5
-1 23 -10 40 -14 27 -14 31 0 36 8 3 15 17 15 31 0 41 18 63 51 63 22 0 32 6
39 24 5 14 18 30 30 36 11 6 20 20 20 30 0 21 24 27 35 10 3 -5 27 -10 53 -10
26 0 62 -4 79 -9 18 -5 45 -6 60 -2 27 7 22 12 -107 108 -160 119 -468 328
-705 478 l-170 108 -115 1 c-93 1 -122 5 -150 20 -38 21 -117 23 -216 8 -35
-6 -65 -4 -94 4 -56 17 -163 21 -167 7 -7 -19 40 -43 82 -43 47 0 85 -23 85
-51 0 -25 -34 -25 -85 1 -22 11 -57 20 -78 20 -21 0 -56 10 -78 23 -34 19 -39
25 -33 49 5 24 3 27 -13 21 -10 -3 -31 -17 -46 -30 -34 -27 -36 -27 -211 -7
-102 12 -145 13 -168 5 -17 -6 -60 -11 -94 -11 -58 0 -67 3 -101 34 -54 47
-67 52 -194 79 -152 33 -341 42 -401 21 -52 -19 -115 -14 -178 15 -25 11 -61
21 -80 21 -19 0 -61 7 -92 14 -31 8 -59 12 -62 9 -2 -3 -10 -2 -16 2 -8 5 -8
11 1 21 6 8 10 16 8 18 -2 3 -38 9 -80 15 -41 6 -83 13 -92 17 -13 5 -21 -3
-32 -30 -18 -42 -50 -51 -43 -11 8 40 -14 49 -130 52 -59 2 -156 10 -217 19
-104 14 -111 14 -123 -3 -7 -10 -21 -17 -32 -15 -10 2 -21 -2 -25 -8 -10 -17
14 -40 43 -40 14 0 35 -11 48 -26 l24 -25 -147 3 c-82 1 -173 -1 -203 -6 -50
-7 -62 -6 -108 18 -28 14 -54 26 -57 26 -11 0 -4 -24 12 -42 14 -16 15 -20 2
-33 -21 -21 -149 -4 -185 24 -15 11 -34 21 -42 21 -9 0 -45 15 -81 33 -54 26
-77 32 -128 31 -78 -1 -94 19 -33 43 59 23 50 46 -20 54 -30 3 -63 9 -72 13
-9 4 -28 1 -43 -6 -22 -12 -37 -11 -118 9 -86 22 -137 23 -137 5 0 -11 66 -42
88 -42 22 0 60 -26 51 -34 -3 -4 -30 0 -60 7 -30 8 -114 14 -187 15 -126 2
-136 4 -193 32 -56 27 -67 29 -192 31 -86 1 -141 -2 -155 -10 -19 -10 -27 -8
-56 14 -38 29 -49 31 -66 10 -17 -21 -53 -19 -83 5 -33 26 -117 18 -117 -11 0
-9 8 -20 18 -22 11 -3 8 -5 -9 -6 -15 0 -46 -8 -69 -16 -62 -22 -82 -20 -78 7
2 13 11 24 23 26 11 2 34 17 50 33 17 15 46 34 65 41 80 27 120 65 89 83 -5 4
-14 18 -19 30 -7 18 -19 25 -47 30 -21 3 -74 17 -118 30 -87 28 -156 31 -270
14 -120 -18 -120 -18 -117 15 4 29 4 29 -41 23 -64 -9 -117 2 -126 26 -7 18
-19 20 -114 24 -98 4 -106 3 -116 -16z m-1239 -3081 c7 -11 18 -20 25 -20 7 0
17 9 23 20 6 11 17 20 25 20 18 0 18 -8 0 -40 -26 -45 -19 -86 19 -115 47 -35
51 -52 20 -80 -21 -19 -25 -31 -23 -69 2 -25 1 -47 -2 -49 -2 -3 -23 -7 -45
-11 -33 -5 -43 -3 -48 10 -5 13 -16 15 -61 9 -54 -6 -55 -6 -55 19 0 15 -8 30
-20 36 -19 10 -21 19 -18 93 l3 82 29 3 c18 2 30 11 33 23 3 10 14 19 25 19
15 0 18 5 13 20 -7 23 10 50 31 50 8 0 19 -9 26 -20z"/>
<path d="M3871 9611 c-7 -5 -10 -14 -7 -20 8 -13 46 3 46 19 0 12 -20 13 -39
1z"/>
<path d="M6754 9505 c-4 -8 6 -31 20 -50 23 -29 33 -35 65 -35 22 0 49 -8 62
-18 38 -29 55 -32 111 -18 85 22 165 28 201 17 35 -12 108 6 115 28 6 19 -19
42 -42 39 -40 -5 -231 23 -269 39 -42 18 -57 11 -39 -17 15 -25 16 -25 -64 5
-76 29 -151 33 -160 10z"/>
<path d="M6660 9475 c0 -17 22 -45 36 -45 25 0 13 44 -13 48 -13 2 -23 1 -23
-3z"/>
<path d="M7390 9440 c0 -19 31 -30 86 -30 40 0 77 -7 105 -20 50 -22 148 -27
167 -8 26 26 13 38 -42 38 -29 0 -69 7 -89 15 -34 14 -227 19 -227 5z"/>
<path d="M7170 9335 c0 -11 11 -15 38 -15 35 1 36 2 18 15 -26 19 -56 19 -56
0z"/>
<path d="M7265 9290 c-10 -11 -16 -22 -14 -24 2 -2 49 -9 103 -15 55 -6 110
-14 124 -18 19 -4 23 -2 20 12 -4 21 -82 49 -162 59 -45 6 -55 4 -71 -14z"/>
<path d="M9798 8939 c-24 -14 -22 -25 4 -33 30 -7 47 10 28 29 -11 10 -20 11
-32 4z"/>
<path d="M11450 7433 c0 -13 53 -63 67 -63 27 0 12 27 -29 53 -30 18 -38 21
-38 10z"/>
<path d="M11610 7406 c0 -14 36 -46 53 -46 4 0 -2 14 -15 30 -24 33 -38 38
-38 16z"/>
<path d="M9574 7365 c-4 -10 3 -26 19 -43 19 -19 25 -34 20 -50 -4 -18 10 -38
73 -105 42 -45 95 -94 117 -109 39 -27 106 -120 107 -147 0 -7 18 -30 40 -50
25 -23 50 -59 65 -96 19 -49 29 -61 53 -67 25 -7 30 -14 36 -47 3 -22 21 -60
41 -85 19 -26 35 -52 35 -60 0 -18 33 -46 53 -46 11 0 17 8 17 25 0 29 15 32
67 13 24 -9 36 -9 44 -1 8 8 1 17 -27 31 -60 31 -174 140 -174 167 0 12 -9 34
-20 48 -24 30 -25 43 -5 51 22 8 59 -9 87 -39 16 -17 30 -24 41 -19 25 9 21
20 -15 45 -18 12 -56 44 -85 71 -28 26 -57 48 -64 48 -26 0 -77 51 -108 109
-26 50 -39 63 -62 68 -16 3 -34 14 -40 24 -5 11 -16 19 -23 19 -8 0 -24 20
-36 45 -22 46 -106 125 -133 125 -9 0 -26 13 -39 29 -13 15 -35 36 -50 46 -26
16 -28 16 -34 0z"/>
<path d="M12254 7189 c-7 -13 13 -29 36 -29 17 0 47 17 40 23 -13 11 -70 15
-76 6z"/>
<path d="M12380 7145 c0 -18 24 -30 39 -21 16 10 1 36 -20 36 -10 0 -19 -7
-19 -15z"/>
<path d="M12776 7093 c-11 -11 -6 -23 9 -23 8 0 15 4 15 9 0 13 -16 22 -24 14z"/>
<path d="M11013 6993 c-16 -6 -17 -33 -3 -33 11 0 26 28 19 34 -2 2 -10 1 -16
-1z"/>
<path d="M11057 6955 c-21 -21 -31 -55 -20 -66 18 -18 63 8 63 35 0 34 -23 51
-43 31z"/>
<path d="M11066 6842 c-3 -6 -1 -14 5 -17 15 -10 25 3 12 16 -7 7 -13 7 -17 1z"/>
<path d="M10924 6444 c-11 -16 -14 -28 -7 -35 14 -14 43 0 43 22 0 10 5 19 10
19 6 0 10 5 10 10 0 20 -40 9 -56 -16z"/>
<path d="M10794 6364 c-18 -26 -23 -78 -10 -91 11 -11 41 12 44 34 2 12 12 29
23 39 28 25 24 44 -11 44 -21 0 -35 -8 -46 -26z"/>
<path d="M10270 6365 c-11 -13 -7 -21 24 -49 23 -23 36 -44 36 -60 0 -14 5
-26 10 -26 11 0 26 -32 32 -66 2 -13 -3 -19 -18 -20 -36 -2 -45 -13 -33 -36 9
-16 7 -26 -10 -49 -12 -15 -21 -34 -21 -42 0 -19 21 -37 43 -37 10 0 31 -14
46 -30 25 -28 29 -30 62 -19 19 7 38 16 43 20 14 12 -21 46 -59 59 -31 10 -52
36 -40 48 3 3 17 0 31 -7 22 -10 30 -9 44 4 24 22 38 19 84 -18 88 -72 116
-73 116 -4 0 50 11 64 55 69 22 2 31 9 33 26 2 13 -1 29 -7 36 -6 7 -8 27 -5
44 8 41 -2 68 -19 54 -7 -6 -43 -14 -79 -18 -61 -6 -72 -4 -132 24 -37 17 -92
49 -123 72 -59 42 -92 50 -113 25z"/>
<path d="M10490 5916 c-19 -7 -35 -18 -35 -25 0 -6 -7 -16 -15 -21 -12 -7 -12
-12 -2 -22 6 -6 12 -31 12 -53 0 -41 22 -75 47 -75 12 0 23 -70 24 -153 1 -40
-4 -64 -15 -76 -9 -10 -16 -23 -16 -29 0 -16 -39 -35 -57 -28 -9 4 -13 14 -10
26 6 22 -11 31 -35 18 -13 -6 -18 -21 -18 -49 0 -22 -7 -56 -15 -75 -8 -20
-12 -47 -9 -60 7 -28 5 -29 -40 -8 -31 15 -43 16 -113 3 -76 -13 -80 -15 -133
-70 -30 -32 -64 -59 -74 -61 -25 -4 -30 -19 -13 -42 20 -27 128 -31 161 -5 13
10 33 19 44 19 10 0 30 8 43 19 16 12 47 20 97 23 l72 5 0 -42 c0 -43 15 -65
54 -79 22 -8 66 18 66 39 0 7 8 21 17 31 16 16 15 18 -11 39 -16 13 -25 28
-22 34 12 19 43 12 60 -15 17 -24 20 -25 89 -18 76 7 105 20 87 38 -30 30 9
59 41 30 20 -18 21 -18 40 5 25 31 24 54 -6 89 -16 19 -30 53 -36 89 -6 32
-17 73 -25 92 -13 30 -12 36 2 52 15 17 15 22 -6 76 -42 106 -67 148 -109 181
-22 18 -49 32 -58 30 -15 -2 -18 4 -18 37 0 45 -11 51 -65 31z"/>
<path d="M780 5285 c-7 -8 -27 -15 -45 -15 -36 0 -71 -31 -62 -55 4 -10 19
-15 45 -15 74 0 161 89 96 98 -11 2 -27 -4 -34 -13z"/>
<path d="M10244 5115 c-4 -9 -19 -15 -38 -15 -26 0 -34 -6 -48 -38 -15 -32
-16 -43 -6 -70 20 -51 87 -57 74 -7 -9 36 15 49 59 34 43 -16 55 -5 55 54 0
31 -4 39 -26 47 -37 14 -64 12 -70 -5z"/>
<path d="M9922 5052 c-21 -18 -29 -31 -23 -37 5 -6 11 -21 13 -35 4 -35 33
-37 50 -3 15 32 45 37 62 11 8 -13 8 -23 -1 -37 -8 -12 -8 -22 -1 -29 6 -6 6
-16 -3 -29 -10 -17 -9 -24 4 -44 10 -13 17 -31 17 -41 0 -17 36 -48 55 -48 12
1 55 66 55 85 0 8 -5 17 -11 20 -6 4 -10 30 -9 59 2 73 3 71 -26 105 -19 23
-34 31 -59 31 -19 0 -37 5 -40 10 -11 18 -49 10 -83 -18z"/>
<path d="M9580 5045 c-7 -8 -11 -18 -8 -20 9 -10 69 8 65 19 -6 18 -42 18 -57
1z"/>
<path d="M10099 4694 c-11 -14 -10 -15 11 -12 13 1 25 9 28 16 5 17 -23 15
-39 -4z"/>
<path d="M10050 4460 c-35 -35 -24 -47 28 -34 25 7 30 39 7 48 -9 3 -24 -3
-35 -14z"/>
<path d="M2987 4312 c-16 -18 -16 -20 -1 -32 20 -17 49 -2 49 26 0 26 -27 29
-48 6z"/>
<path d="M9976 4268 c-11 -16 -13 -25 -4 -35 15 -19 28 -16 28 6 0 10 7 22 16
25 8 3 12 10 9 16 -10 17 -33 11 -49 -12z"/>
<path d="M2480 4246 c0 -8 4 -17 9 -20 10 -7 23 19 14 28 -11 11 -23 6 -23 -8z"/>
<path d="M9368 4093 c-30 -36 -60 -143 -56 -199 5 -59 50 -137 76 -132 8 2 20
24 27 51 7 27 17 53 24 60 16 16 14 43 -5 62 -14 13 -15 21 -5 41 35 77 -14
172 -61 117z"/>
<path d="M8339 3500 c-76 -40 -108 -108 -74 -157 29 -42 165 -41 165 1 0 8 7
19 15 26 9 7 13 21 10 31 -4 12 -1 21 9 25 16 6 21 48 10 78 -9 23 -89 20
-135 -4z"/>
<path d="M9452 3337 c-20 -23 -23 -64 -13 -138 6 -41 14 -85 17 -99 6 -21 4
-23 -7 -12 -18 16 -44 15 -59 -3 -9 -11 -4 -28 27 -85 24 -44 45 -72 58 -75
81 -16 78 -14 73 -48 -8 -52 -2 -57 68 -57 59 0 65 -2 86 -30 26 -36 44 -38
51 -8 6 21 7 21 27 3 21 -19 27 -45 10 -45 -16 0 -11 -28 7 -39 16 -9 16 -11
-2 -45 -11 -19 -17 -37 -15 -39 3 -3 26 -8 53 -11 l47 -7 0 36 c0 20 5 45 11
57 9 16 7 24 -10 39 -12 11 -21 32 -21 49 0 32 -47 74 -73 64 -8 -3 -17 2 -20
10 -5 12 -21 16 -62 16 -48 0 -55 2 -55 20 0 10 -8 24 -19 29 -12 7 -20 26
-24 55 -6 38 -1 54 35 121 l40 78 -30 61 c-17 34 -35 73 -40 87 -10 24 -15 26
-80 27 -45 1 -74 -3 -80 -11z"/>
<path d="M6767 2776 c-22 -22 -30 -159 -12 -202 10 -25 20 -34 32 -32 15 3 18
19 21 126 3 104 1 122 -11 122 -9 0 -22 -6 -30 -14z"/>
<path d="M9530 2778 c0 -6 11 -23 25 -40 26 -31 32 -62 15 -73 -18 -11 -11
-25 13 -25 13 0 31 8 40 18 21 23 22 85 2 102 -20 17 -95 30 -95 18z"/>
<path d="M2873 2704 c-7 -3 -13 -14 -13 -25 0 -15 7 -19 35 -19 19 0 35 4 35
9 0 5 11 11 25 13 46 5 31 23 -20 25 -27 1 -56 0 -62 -3z"/>
<path d="M9942 2663 c-6 -16 -17 -50 -23 -78 -18 -79 -31 -93 -86 -97 -46 -3
-48 -4 -53 -39 -4 -19 -14 -46 -23 -59 -25 -35 -21 -58 14 -91 47 -44 63 -39
98 37 17 36 36 83 42 105 7 22 18 44 24 49 12 10 19 -2 39 -62 7 -22 44 -24
53 -2 3 8 1 26 -5 38 -8 18 -7 29 4 45 16 22 12 88 -8 141 -18 47 -60 54 -76
13z"/>
<path d="M9686 2662 c-4 -7 -2 -29 4 -51 7 -27 7 -48 0 -66 -15 -40 -12 -82 6
-89 20 -8 101 42 107 66 8 27 -21 59 -51 56 -22 -3 -27 2 -32 27 -9 43 -26 70
-34 57z"/>
<path d="M9474 2645 c-10 -25 4 -47 28 -43 28 4 33 21 13 42 -20 20 -34 20
-41 1z"/>
<path d="M9420 2491 c0 -17 -5 -33 -10 -36 -6 -4 -23 -25 -37 -48 -15 -23 -53
-69 -85 -102 -55 -57 -70 -87 -49 -100 16 -9 79 27 85 49 3 12 18 28 34 37 21
12 31 27 36 52 4 22 13 37 25 40 10 2 26 20 36 40 15 32 15 38 0 66 -20 39
-35 40 -35 2z"/>
<path d="M6755 2480 c3 -5 13 -10 21 -10 8 0 14 5 14 10 0 6 -9 10 -21 10 -11
0 -17 -4 -14 -10z"/>
<path d="M9918 2389 c-22 -12 -23 -55 -2 -63 8 -3 26 2 40 11 48 31 11 82 -38
52z"/>
<path d="M5540 2365 c-10 -12 -10 -19 3 -38 16 -25 14 -94 -5 -129 -5 -11 -5
-26 2 -38 8 -14 7 -25 -2 -39 -10 -16 -10 -27 0 -54 7 -18 12 -47 12 -63 0
-41 16 -54 67 -54 37 0 49 6 84 40 39 38 41 42 34 82 -4 24 -13 50 -19 58 -23
28 -66 112 -66 130 0 10 -7 23 -16 31 -9 7 -23 29 -32 48 -19 40 -42 50 -62
26z"/>
<path d="M10047 2353 c-4 -3 -7 -20 -7 -38 0 -38 -13 -55 -63 -83 -45 -26 -57
-27 -57 -8 0 23 -18 28 -55 16 -22 -7 -41 -23 -50 -41 -9 -16 -22 -29 -29 -29
-7 0 -25 -9 -40 -21 -20 -16 -26 -29 -26 -59 0 -51 30 -72 54 -38 9 12 16 30
16 40 0 24 14 30 43 19 18 -7 30 -6 43 4 22 16 120 20 129 5 3 -5 -5 -15 -19
-21 -33 -15 -40 -38 -26 -88 9 -33 19 -45 64 -70 87 -50 110 -39 76 36 -11 25
-18 55 -14 65 8 28 38 18 42 -14 4 -32 26 -53 47 -44 12 4 15 24 15 89 0 76
-2 86 -25 107 -18 17 -23 30 -19 46 6 24 -17 70 -56 112 -22 23 -32 27 -43 15z"/>
<path d="M10967 2123 c-10 -9 -9 -63 1 -63 8 0 16 14 40 63 5 9 -32 10 -41 0z"/>
<path d="M6907 2078 c-5 -16 10 -48 24 -48 14 0 7 52 -7 57 -7 2 -14 -2 -17
-9z"/>
<path d="M9192 2034 c-13 -9 -22 -26 -22 -41 0 -16 -15 -45 -39 -73 -21 -25
-40 -55 -43 -65 -3 -16 -12 -20 -42 -20 -31 0 -40 -4 -47 -22 -5 -13 -15 -23
-24 -23 -8 0 -23 -15 -32 -33 -35 -65 -85 -137 -103 -147 -10 -6 -39 -10 -63
-10 -43 0 -46 -2 -71 -44 -14 -25 -26 -58 -26 -75 0 -38 -16 -48 -40 -26 -11
10 -26 14 -38 11 -12 -4 -25 1 -37 14 -23 26 -33 25 -69 -5 -26 -21 -30 -32
-34 -88 -3 -46 0 -73 13 -96 12 -24 13 -36 5 -46 -8 -10 -5 -19 12 -38 62 -66
68 -78 72 -143 3 -41 11 -70 21 -81 10 -10 14 -25 11 -39 -4 -13 -1 -24 6 -26
11 -4 88 5 117 13 9 2 17 -6 21 -21 5 -21 12 -25 45 -26 22 -1 51 4 65 11 21
11 31 11 60 -2 19 -8 48 -15 64 -16 25 -2 31 -8 40 -42 15 -53 38 -55 99 -9
59 43 107 134 107 203 0 41 4 48 51 90 l52 46 1 77 c2 97 13 112 77 105 30 -4
53 -1 64 7 16 12 15 15 -16 50 -18 21 -43 42 -55 46 -19 8 -22 14 -17 49 5 34
2 43 -20 63 -35 33 -48 119 -22 148 10 11 24 20 30 20 7 0 23 8 35 18 l23 19
-22 15 c-20 14 -21 17 -6 32 9 9 27 16 39 16 13 0 29 7 36 15 11 13 9 20 -10
40 -13 14 -32 25 -42 25 -18 0 -76 35 -90 55 -4 5 -4 13 -2 17 3 5 -9 22 -26
38 -36 34 -73 38 -108 14z"/>
<path d="M9722 1988 c6 -18 22 -20 43 -3 19 14 18 14 -13 15 -22 0 -32 -4 -30
-12z"/>
<path d="M9652 1949 c-13 -5 -20 -13 -17 -19 8 -13 42 -13 51 1 10 17 -9 28
-34 18z"/>
<path d="M7094 1905 c-11 -27 6 -85 35 -118 15 -17 34 -42 40 -55 7 -13 32
-32 56 -42 24 -10 49 -29 56 -42 7 -13 20 -29 31 -36 11 -9 18 -26 18 -48 0
-50 15 -72 56 -80 44 -8 57 -29 80 -128 17 -69 22 -80 47 -88 15 -6 27 -14 27
-19 0 -5 10 -19 22 -31 12 -12 32 -50 44 -84 12 -34 33 -81 47 -105 14 -24 37
-66 50 -94 13 -27 34 -59 47 -70 12 -11 28 -32 36 -47 8 -16 29 -34 47 -42 35
-15 137 -112 137 -131 0 -6 9 -20 19 -29 18 -16 21 -16 51 -1 29 15 33 15 57
0 37 -24 43 -9 43 114 0 96 2 107 26 138 l25 33 -43 50 c-27 31 -51 50 -64 50
-27 0 -84 84 -84 122 0 29 -21 51 -45 46 -31 -6 -40 25 -22 78 14 45 14 50 0
66 -9 11 -30 18 -50 18 -33 0 -34 1 -28 33 8 43 -14 67 -60 67 -31 0 -34 3
-37 33 -3 29 -6 32 -34 30 -24 -2 -36 3 -48 22 -10 16 -26 25 -42 25 -16 0
-36 12 -52 29 -15 17 -41 45 -58 64 -18 19 -37 44 -43 56 -7 11 -19 21 -27 21
-22 0 -84 52 -84 71 0 9 -15 33 -33 53 -32 34 -36 36 -99 36 -56 0 -71 4 -96
25 -35 29 -41 30 -48 10z"/>
<path d="M10830 1785 c0 -8 9 -19 20 -25 16 -9 22 -8 26 4 3 8 3 20 -1 26 -9
15 -45 12 -45 -5z"/>
<path d="M10214 1755 c-7 -17 4 -37 17 -30 12 8 12 45 -1 45 -6 0 -13 -7 -16
-15z"/>
<path d="M7129 1584 c-10 -13 -10 -17 2 -25 8 -5 22 -9 31 -9 9 0 23 -3 32 -6
22 -9 21 19 -2 39 -23 21 -46 22 -63 1z"/>
<path d="M10391 1546 c-10 -12 -10 -22 -2 -41 16 -36 26 -35 29 4 4 40 -10 58
-27 37z"/>
<path d="M10337 1482 c-10 -10 -24 -40 -33 -66 -15 -42 -15 -50 0 -86 22 -56
20 -77 -11 -114 l-26 -31 34 -3 c19 -2 42 -11 51 -19 14 -13 21 -13 32 -3 13
10 13 15 -5 39 -13 17 -19 39 -17 57 2 24 8 30 33 32 52 5 57 9 44 33 -8 16
-8 27 1 44 6 12 10 35 8 51 -3 29 -15 34 -50 19 -14 -5 -18 -2 -18 13 0 26
-10 52 -20 52 -4 0 -14 -8 -23 -18z"/>
<path d="M10038 1435 c-6 -14 -17 -25 -25 -25 -7 0 -18 -11 -23 -25 -9 -23
-13 -25 -82 -23 -40 0 -82 5 -93 11 -11 6 -49 17 -84 24 -64 13 -65 13 -88
-11 -13 -14 -41 -31 -63 -37 -39 -12 -52 -30 -48 -69 4 -49 -4 -110 -17 -122
-8 -7 -21 -19 -30 -26 -10 -9 -15 -31 -15 -67 0 -36 -7 -65 -21 -89 -12 -21
-19 -48 -17 -68 3 -30 6 -33 35 -31 63 5 81 -68 42 -172 -11 -31 -18 -62 -15
-70 7 -19 91 -21 102 -3 5 7 9 81 9 166 2 156 7 177 41 170 16 -3 19 -13 19
-73 0 -65 1 -69 25 -75 18 -5 24 -12 22 -26 -2 -10 -5 -32 -5 -49 -2 -26 2
-30 25 -33 22 -3 30 2 38 23 8 22 15 26 42 23 28 -3 33 1 36 21 3 15 -6 33
-24 52 -25 26 -26 31 -14 54 12 23 10 28 -34 80 -54 62 -55 87 -3 104 17 7 47
26 65 44 18 18 43 32 55 32 26 0 36 36 15 52 -18 15 -118 4 -118 -13 0 -8 -16
-14 -42 -16 -34 -2 -43 -7 -43 -22 0 -28 -29 -43 -50 -26 -9 7 -14 19 -11 26
3 7 -5 21 -18 31 -16 12 -25 32 -29 60 -7 59 5 67 87 52 55 -10 71 -10 105 3
23 9 44 12 52 7 20 -12 156 -11 180 1 20 11 79 119 79 145 0 26 -49 19 -62
-10z"/>
<path d="M4857 1328 c-7 -27 -1 -39 18 -31 19 7 20 53 1 53 -7 0 -16 -10 -19
-22z"/>
<path d="M8014 1249 c-3 -6 -2 -15 4 -21 15 -15 46 -5 50 15 3 12 -3 17 -22
17 -14 0 -28 -5 -32 -11z"/>
<path d="M7397 1234 c-14 -14 -7 -35 11 -32 9 2 17 10 17 17 0 16 -18 25 -28
15z"/>
<path d="M10606 1173 c-9 -9 -7 -33 3 -33 12 0 22 28 12 34 -5 3 -11 3 -15 -1z"/>
<path d="M7423 1153 c-32 -11 3 -73 40 -73 20 0 20 -1 6 38 -11 32 -25 42 -46
35z"/>
<path d="M9857 1112 c-24 -26 -21 -32 16 -32 39 0 66 15 52 28 -22 21 -52 22
-68 4z"/>
<path d="M10302 1098 c-14 -14 -16 -44 -3 -53 5 -3 13 0 16 6 4 5 22 9 41 7
18 -1 34 1 34 5 0 4 0 11 0 15 0 10 -44 32 -63 32 -7 0 -18 -5 -25 -12z"/>
<path d="M8115 1079 c-26 -16 -42 -38 -44 -61 -1 -4 16 -8 36 -10 31 -2 38 -8
44 -31 8 -31 65 -94 75 -84 4 3 9 25 11 49 5 39 2 45 -21 57 -14 8 -26 23 -26
33 0 25 -16 54 -32 60 -7 3 -26 -3 -43 -13z"/>
<path d="M9987 1071 c-2 -11 0 -24 6 -30 14 -14 72 -14 98 0 20 10 20 11 3 30
-24 27 -100 27 -107 0z"/>
<path d="M10544 1066 c-9 -25 3 -45 31 -52 31 -8 57 12 53 40 -2 16 -11 22
-41 24 -26 2 -39 -1 -43 -12z"/>
<path d="M7535 1009 c-10 -15 1 -23 20 -15 9 3 13 10 10 16 -8 13 -22 13 -30
-1z"/>
<path d="M10157 1003 c-12 -11 -8 -23 8 -23 8 0 15 7 15 15 0 16 -12 20 -23 8z"/>
<path d="M8321 964 c-20 -21 -22 -28 -13 -49 13 -28 20 -30 56 -14 36 17 39
45 7 68 -27 19 -27 19 -50 -5z"/>
<path d="M10392 939 c-19 -7 -23 -15 -20 -46 l3 -38 76 3 c70 3 78 2 107 -23
39 -33 85 -32 90 2 8 54 -53 96 -143 98 -27 1 -59 4 -70 7 -11 4 -30 2 -43 -3z"/>
<path d="M10183 912 c-6 -4 -9 -19 -6 -35 7 -36 54 -62 83 -47 22 12 27 52 8
68 -18 14 -71 23 -85 14z"/>
<path d="M9856 745 c-3 -8 -14 -15 -23 -15 -59 0 -83 -68 -39 -109 37 -35 62
-21 69 36 3 31 12 52 26 62 17 13 19 19 9 29 -16 16 -35 15 -42 -3z"/>
<path d="M10830 631 c-7 -14 -7 -22 1 -26 13 -8 15 -6 23 23 9 27 -9 30 -24 3z"/>
<path d="M10991 618 c-5 -13 -18 -31 -29 -42 -24 -21 -47 -80 -37 -96 11 -18
43 -11 63 14 10 14 27 45 36 71 14 36 15 49 6 60 -17 21 -29 19 -39 -7z"/>
<path d="M9580 585 c-16 -19 -6 -46 15 -39 16 7 21 39 6 48 -5 3 -14 -1 -21
-9z"/>
<path d="M8133 579 c-6 -8 -14 -26 -18 -42 -5 -20 -13 -27 -31 -27 -21 0 -24
-3 -18 -27 10 -40 14 -44 35 -38 10 3 28 7 38 11 15 4 24 -3 36 -26 14 -27 19
-30 49 -25 20 4 47 1 71 -9 24 -10 67 -16 120 -16 52 0 94 -5 112 -14 99 -49
118 -54 216 -55 59 0 116 -7 142 -16 56 -19 72 -12 86 36 11 34 10 42 -6 59
-15 17 -29 20 -73 18 -54 -3 -54 -3 -65 32 -10 29 -18 35 -52 42 -22 5 -45 16
-52 24 -8 11 -20 14 -37 10 -19 -5 -26 -2 -26 9 0 25 -27 17 -50 -15 -24 -34
-38 -37 -83 -13 -18 9 -54 17 -82 18 -43 1 -50 5 -53 23 -5 32 -27 40 -143 47
-83 6 -107 5 -116 -6z"/>
<path d="M8833 495 c-8 -22 25 -55 56 -55 31 0 71 25 71 44 0 28 -116 37 -127
11z"/>
<path d="M10658 430 c-56 -72 -65 -86 -61 -97 9 -26 41 -12 84 38 24 28 46 52
48 55 7 6 -21 34 -34 34 -7 0 -24 -13 -37 -30z"/>
<path d="M10154 403 c-18 -2 -40 -13 -49 -23 -16 -18 -16 -20 -1 -26 23 -9 82
4 96 21 11 14 6 37 -8 33 -4 0 -21 -3 -38 -5z"/>
<path d="M9245 309 c-61 -41 -76 -61 -55 -74 16 -10 207 25 228 41 24 18 4 48
-34 52 -16 2 -33 8 -38 13 -17 16 -40 9 -101 -32z"/>
<path d="M8990 328 c0 -7 8 -23 18 -36 17 -22 19 -22 50 -7 19 10 32 24 32 36
0 16 -7 19 -50 19 -33 0 -50 -4 -50 -12z"/>
<path d="M9115 300 c-32 -51 -31 -57 5 -62 37 -6 50 8 57 62 5 36 3 40 -16 40
-13 0 -29 -14 -46 -40z"/>
<path d="M9522 308 c-77 -48 -68 -71 32 -81 48 -5 66 -2 100 16 23 11 64 24
91 27 48 5 50 6 50 35 0 34 1 34 -77 10 -56 -17 -57 -17 -84 4 -36 28 -50 27
-112 -11z"/>
<path d="M9852 328 c-21 -21 -13 -38 18 -38 23 0 30 5 30 19 0 10 -7 22 -16
25 -20 8 -18 8 -32 -6z"/>
<path d="M10101 311 c-73 -15 -88 -22 -112 -51 -16 -18 -57 -50 -91 -70 -57
-32 -63 -39 -66 -71 -6 -65 44 -73 97 -15 14 14 32 26 42 26 9 0 23 10 32 23
8 12 34 32 58 44 82 40 158 73 168 73 19 0 12 28 -11 44 -12 9 -25 16 -28 15
-3 0 -43 -8 -89 -18z"/>
<path d="M9417 206 c-8 -19 21 -56 43 -56 10 0 28 -11 41 -25 31 -32 57 -32
65 0 8 33 -1 55 -23 55 -10 0 -23 8 -30 19 -14 22 -88 28 -96 7z"/>
<path d="M9766 45 c-23 -17 -14 -45 14 -45 24 0 63 36 55 50 -9 14 -47 12 -69
-5z"/>
</g>
</svg>
