<?xml version="1.0" standalone="no"?>
<!DOCTYPE svg PUBLIC "-//W3C//DTD SVG 20010904//EN"
 "http://www.w3.org/TR/2001/REC-SVG-20010904/DTD/svg10.dtd">
<svg version="1.0" xmlns="http://www.w3.org/2000/svg"
 width="1280.000000pt" height="761.000000pt" viewBox="0 0 1280.000000 761.000000"
 preserveAspectRatio="xMidYMid meet">
<metadata>
Created by potrace 1.15, written by Peter Selinger 2001-2017
</metadata>
<g transform="translate(0.000000,761.000000) scale(0.100000,-0.100000)"
fill="#000000" stroke="none">
<path d="M11790 7600 c-90 -4 -154 -11 -169 -19 -19 -11 -34 -11 -75 -2 -38 9
-78 9 -161 1 -60 -6 -156 -11 -212 -11 -92 0 -105 -2 -139 -26 -36 -24 -39
-24 -65 -9 -42 25 -75 20 -99 -14 -26 -36 -36 -37 -96 -5 -61 32 -75 31 -99
-8 -25 -40 -49 -45 -86 -18 -23 17 -32 19 -47 10 -15 -10 -24 -8 -48 10 -28
20 -34 21 -169 12 -125 -9 -150 -14 -235 -47 -89 -34 -103 -37 -215 -39 -130
-2 -241 -20 -249 -40 -2 -7 2 -25 10 -40 8 -15 14 -28 14 -30 0 -8 -95 -25
-136 -25 -63 0 -357 -40 -367 -50 -5 -4 -6 -17 -2 -28 6 -20 13 -21 159 -20
83 1 158 -2 166 -7 9 -6 -17 -16 -78 -31 -84 -21 -96 -22 -133 -9 -53 19 -101
10 -97 -19 3 -18 9 -21 45 -18 43 4 43 4 37 -26 -6 -28 -4 -29 36 -36 31 -5
49 -2 66 9 32 20 80 19 94 -2 9 -16 12 -15 35 12 23 27 27 28 36 13 13 -24 40
-23 72 2 31 24 49 26 45 4 -3 -14 8 -17 63 -18 46 -1 73 -6 85 -17 11 -9 32
-19 47 -23 22 -5 27 -12 25 -29 -2 -17 3 -23 23 -25 22 -3 27 -10 38 -60 15
-67 3 -131 -35 -198 -35 -59 -32 -77 9 -69 17 3 44 11 58 16 21 8 34 5 72 -18
53 -32 61 -44 42 -69 -12 -17 -15 -17 -51 -1 -51 22 -129 27 -129 8 0 -8 19
-19 45 -25 116 -30 154 -69 125 -125 -16 -32 -16 -32 -74 -25 -55 6 -59 5 -90
-25 -17 -17 -36 -31 -41 -31 -4 0 -22 -12 -39 -26 -38 -31 -44 -83 -11 -91 22
-6 27 -23 7 -23 -18 0 -47 -33 -47 -53 0 -9 12 -27 27 -41 27 -25 27 -26 16
-92 -14 -78 -2 -121 41 -149 21 -14 23 -20 13 -35 -9 -16 -8 -24 9 -47 12 -15
26 -45 33 -66 7 -20 21 -42 31 -47 28 -15 116 -12 129 4 10 12 18 11 51 -8 30
-16 41 -29 46 -53 7 -36 15 -41 34 -18 10 12 24 14 54 10 40 -6 42 -5 88 52
26 32 58 68 69 80 17 17 21 29 16 57 -6 36 14 69 28 46 11 -17 24 -11 40 20 9
17 23 30 33 30 27 0 62 29 62 51 0 12 -7 19 -20 19 -31 0 -24 20 9 26 27 6 29
9 24 40 -6 34 -6 34 35 34 24 0 42 5 45 14 3 8 30 16 68 20 76 9 97 19 101 48
2 13 11 24 21 26 15 3 18 0 12 -18 -6 -20 -4 -21 47 -18 39 2 53 7 53 18 0 11
12 15 43 17 51 2 72 14 144 87 36 36 65 56 84 58 25 2 29 8 32 36 4 39 8 39
43 6 27 -26 27 -26 80 -10 30 8 93 19 141 25 56 6 104 19 135 34 43 22 119 53
256 102 49 17 58 29 31 39 -29 11 -248 -6 -272 -21 -13 -8 -31 -12 -39 -9 -25
10 13 44 56 51 65 11 81 22 81 55 0 30 2 31 37 28 29 -2 40 -9 53 -33 14 -25
23 -30 56 -31 21 0 47 -4 56 -8 36 -16 53 -3 52 39 -1 35 -4 40 -23 37 -15 -2
-21 2 -21 17 0 23 -18 37 -43 33 -10 -2 -29 3 -41 12 -24 15 -62 83 -52 93 5
6 44 -5 145 -42 27 -10 48 -12 53 -7 6 6 6 12 -1 16 -35 22 27 75 89 77 19 0
55 8 80 19 39 16 45 21 42 45 l-3 27 54 -7 c42 -5 56 -3 66 9 16 20 6 36 -23
36 -13 0 -29 7 -36 16 -11 13 -10 16 7 20 16 4 20 13 19 42 -1 31 3 37 22 40
15 2 22 9 20 20 -2 13 -16 18 -51 20 -26 2 -47 7 -47 13 0 5 4 9 9 9 6 0 31
18 56 40 25 22 53 40 61 40 20 0 17 20 -7 46 -25 27 -16 48 17 41 13 -2 29 2
35 9 6 8 22 14 35 14 12 0 30 7 38 16 11 11 25 14 45 9 21 -4 35 0 57 18 20
17 48 26 89 31 66 7 92 22 54 30 -125 26 -193 29 -245 12 -27 -8 -79 -17 -115
-19 -46 -2 -72 -9 -84 -20 -9 -9 -24 -17 -34 -17 -9 0 -41 -9 -71 -19 -30 -11
-58 -17 -62 -15 -16 10 -7 22 30 39 34 17 51 32 52 45 0 3 -43 4 -95 2 -93 -4
-112 2 -82 26 7 6 58 13 112 14 64 2 100 7 102 15 3 7 -13 14 -44 18 -102 13
-180 27 -222 41 -25 8 -54 13 -65 12 -12 -1 -86 -4 -166 -8z"/>
<path d="M9307 7573 c-5 -4 -98 -8 -208 -9 l-200 -2 -24 -26 c-25 -27 -59 -34
-70 -16 -8 13 -96 4 -146 -15 -24 -9 -93 -15 -198 -17 -88 -1 -161 -5 -161 -9
0 -4 14 -20 30 -36 l30 -29 176 -2 c97 -2 181 -5 186 -8 5 -3 4 -12 -3 -20
-14 -17 -170 -20 -201 -3 -16 9 -25 6 -47 -14 -14 -13 -39 -28 -56 -31 -29 -7
-29 -7 -11 13 19 21 16 51 -6 51 -6 0 -22 -10 -35 -22 l-24 -22 -6 22 c-4 17
-13 22 -39 22 -27 0 -36 5 -44 24 -5 15 -22 29 -43 35 -30 10 -46 8 -120 -18
-47 -16 -94 -34 -105 -40 -11 -6 -36 -11 -55 -11 -47 0 -86 -32 -71 -57 15
-24 114 -37 171 -23 23 5 50 10 60 10 16 0 16 -1 1 -16 -12 -12 -37 -17 -97
-18 -70 -1 -81 -3 -81 -18 0 -28 40 -45 121 -52 68 -6 77 -4 94 14 10 11 28
20 39 20 12 0 54 9 94 20 39 11 91 20 115 20 61 0 106 18 113 44 5 20 9 18 55
-26 27 -27 49 -49 49 -51 0 -1 -65 -1 -145 1 l-144 4 -24 -26 c-15 -16 -35
-26 -53 -26 -35 0 -49 -9 -58 -35 -4 -16 -15 -21 -43 -22 -53 -3 -147 -38
-151 -57 -5 -25 25 -30 108 -17 57 10 83 10 98 2 15 -8 29 -7 58 5 31 13 45
14 76 5 30 -9 48 -9 86 3 53 15 87 7 64 -16 -6 -6 -12 -18 -12 -26 0 -15 4
-15 100 13 30 9 80 19 110 23 49 6 55 10 58 32 5 32 20 50 42 50 9 0 25 9 36
21 12 13 27 19 42 16 14 -3 39 -1 56 3 17 5 43 11 59 14 18 4 27 13 27 26 0
11 11 27 24 35 13 9 36 34 50 55 32 48 63 52 134 16 38 -19 57 -23 102 -19 32
3 63 13 75 23 14 12 43 19 90 22 44 3 86 13 112 27 23 11 56 21 72 21 43 0 61
9 61 31 0 19 8 20 151 18 94 -1 155 3 161 9 20 20 0 41 -44 46 -24 3 -81 10
-128 17 -47 6 -175 13 -285 14 -110 1 -209 5 -220 9 -11 4 -24 4 -28 -1z"/>
<path d="M7233 7284 c-18 -20 -33 -41 -33 -45 0 -16 45 -20 105 -11 68 11 92
3 101 -33 3 -14 7 -25 9 -25 8 0 96 53 101 61 3 6 -1 20 -8 31 -16 24 -95 47
-188 54 -53 5 -56 4 -87 -32z"/>
<path d="M6818 7276 c-10 -7 -18 -19 -18 -27 0 -11 17 -14 78 -13 107 2 104 1
100 27 -3 20 -9 22 -73 24 -47 2 -76 -2 -87 -11z"/>
<path d="M7620 7255 c-23 -27 6 -43 83 -46 119 -4 117 44 -3 56 -55 6 -68 4
-80 -10z"/>
<path d="M6608 7223 c-10 -2 -18 -13 -18 -24 0 -14 7 -19 25 -19 30 0 85 26
85 40 0 10 -59 12 -92 3z"/>
<path d="M6830 7220 c-8 -5 -38 -10 -65 -10 -51 0 -95 -20 -95 -44 0 -17 117
-9 147 10 12 8 34 14 48 14 28 0 35 24 9 34 -21 8 -26 7 -44 -4z"/>
<path d="M7054 7185 c-13 -19 -14 -28 -5 -39 24 -29 60 2 61 52 0 22 -39 13
-56 -13z"/>
<path d="M6360 7181 c-14 -5 -54 -14 -89 -20 -54 -11 -65 -10 -80 3 -23 21
-37 20 -53 -2 -11 -15 -189 -72 -263 -84 -12 -2 -20 -11 -20 -22 0 -16 10 -19
74 -22 54 -3 80 0 97 11 13 8 35 15 50 15 15 0 44 5 65 11 30 9 42 9 53 0 13
-11 21 -9 45 8 16 12 42 21 58 21 15 0 42 9 58 20 17 11 40 20 52 20 30 0 40
20 18 37 -21 15 -29 15 -65 4z"/>
<path d="M7660 7176 c0 -19 23 -25 93 -24 48 0 57 3 55 17 -4 23 -148 30 -148
7z"/>
<path d="M7942 7179 c-43 -13 -36 -35 9 -32 56 5 79 13 79 28 0 17 -36 19 -88
4z"/>
<path d="M7538 7123 c-31 -8 -19 -32 21 -43 22 -6 64 -8 93 -4 44 5 56 3 68
-11 15 -18 16 -18 -51 -66 -31 -22 -19 -49 22 -49 18 0 41 -8 51 -17 17 -15
21 -15 54 0 48 23 67 22 59 -3 -8 -25 10 -26 90 -2 81 24 240 23 278 -3 35
-23 161 -17 198 8 13 10 31 17 41 17 12 0 18 8 18 23 0 61 -93 86 -233 62 -48
-8 -100 -15 -116 -15 -17 0 -33 -4 -36 -10 -9 -15 -69 -12 -91 5 -25 19 -54
19 -81 0 -19 -14 -21 -13 -25 10 -3 13 1 30 9 38 12 12 8 16 -26 32 -23 10
-52 15 -67 12 -15 -3 -48 1 -73 9 -43 13 -165 17 -203 7z"/>
<path d="M6658 7104 c-32 -17 -32 -18 -16 -43 17 -27 3 -51 -29 -51 -48 1
-125 26 -139 45 -19 26 -164 34 -199 11 -13 -9 -33 -16 -43 -16 -10 0 -29 -8
-40 -19 -12 -10 -32 -16 -44 -14 -28 5 -91 -33 -85 -50 2 -7 11 -10 18 -8 8 3
27 5 42 5 15 1 31 6 35 12 4 6 40 11 80 12 56 1 72 -2 72 -13 0 -17 -33 -27
-70 -23 -16 2 -25 -3 -28 -14 -5 -24 42 -34 95 -20 24 7 56 12 71 12 15 0 59
9 97 20 49 14 100 20 168 20 163 0 271 42 225 88 -17 17 -35 15 -68 -10 -39
-29 -60 -13 -35 25 9 15 14 31 10 37 -9 15 -86 12 -117 -6z"/>
<path d="M7221 7099 c-51 -20 -89 -77 -62 -93 5 -3 7 -14 5 -24 -4 -14 3 -17
50 -20 44 -2 66 3 114 28 67 34 112 72 112 95 0 23 -25 29 -53 11 -22 -15 -26
-15 -37 -1 -14 17 -90 20 -129 4z"/>
<path d="M7000 7085 c0 -9 7 -18 15 -21 8 -4 15 -15 15 -25 0 -25 22 -34 49
-20 20 11 23 43 7 69 -11 18 -86 16 -86 -3z"/>
<path d="M6882 6998 c-24 -24 -14 -41 20 -34 33 6 58 23 58 37 0 13 -64 11
-78 -3z"/>
<path d="M7418 6989 c-24 -14 -23 -36 3 -50 29 -15 110 -5 124 15 7 9 20 16
30 16 14 0 15 3 5 15 -15 18 -134 21 -162 4z"/>
<path d="M5521 6911 c-11 -11 -21 -30 -21 -40 0 -14 -11 -23 -37 -31 -21 -7
-73 -32 -115 -56 -43 -25 -92 -47 -108 -51 -40 -7 -45 -19 -20 -40 11 -10 20
-25 20 -34 0 -37 27 -43 89 -20 32 11 78 21 103 21 33 0 50 6 64 21 26 29 70
50 88 43 9 -3 37 7 63 24 27 16 68 33 93 37 25 3 65 12 90 20 25 7 70 16 100
20 92 10 104 33 36 70 -31 17 -41 18 -81 7 -60 -16 -86 -15 -113 4 -15 10 -56
17 -126 21 -96 5 -105 4 -125 -16z"/>
<path d="M7450 6880 c-31 -4 -65 -12 -77 -18 -12 -7 -33 -12 -47 -12 -16 0
-26 -6 -26 -14 0 -8 -11 -17 -25 -20 -33 -8 -56 -79 -34 -101 20 -20 77 -4
104 29 24 29 37 32 89 21 35 -7 49 -3 115 30 42 21 87 43 101 49 14 7 25 18
25 26 0 12 -17 15 -85 16 -47 0 -110 -2 -140 -6z"/>
<path d="M7900 6870 c-14 -4 -77 -25 -140 -45 -106 -33 -119 -40 -173 -91 -58
-57 -64 -74 -23 -74 28 0 87 -19 101 -33 7 -6 -16 -7 -65 -3 -58 5 -80 3 -95
-8 -19 -14 -19 -15 5 -35 19 -15 39 -20 86 -21 33 0 64 -4 70 -9 5 -5 43 -11
84 -14 41 -2 109 -10 150 -18 41 -8 104 -13 140 -13 74 2 142 26 134 48 -3 8
0 17 6 21 7 4 29 -12 54 -41 23 -26 58 -53 77 -60 l34 -12 -31 -1 c-38 -1 -80
-32 -72 -52 7 -19 87 -13 95 7 6 16 30 19 35 4 2 -5 23 -20 48 -33 44 -23 45
-25 45 -73 0 -39 -3 -49 -17 -49 -9 0 -25 -8 -35 -18 -11 -9 -31 -17 -45 -17
-14 0 -28 -6 -31 -14 -3 -8 -22 -20 -41 -27 -36 -13 -46 -35 -25 -56 16 -16 2
-21 -81 -33 -58 -8 -80 -7 -116 5 -58 19 -67 19 -88 -4 -10 -11 -32 -21 -50
-23 -27 -3 -32 -7 -36 -38 -11 -66 4 -72 107 -44 32 8 100 16 150 17 81 2 92
0 88 -14 -6 -19 13 -38 51 -48 35 -9 42 -28 12 -33 -14 -2 -24 -11 -26 -24 -2
-17 3 -21 30 -21 59 -2 97 -14 103 -34 7 -20 20 -24 95 -33 24 -2 49 -12 56
-20 14 -19 54 -21 78 -3 17 13 17 15 2 45 -9 18 -21 32 -26 32 -17 0 -100 64
-100 77 0 15 26 18 35 3 3 -5 19 -10 34 -10 21 0 36 -9 55 -34 18 -24 31 -33
45 -29 13 3 23 -2 31 -18 l13 -23 14 27 c7 15 18 27 23 27 6 0 10 9 10 20 0
13 7 20 20 20 27 0 36 25 20 55 -7 13 -10 31 -6 41 8 21 -11 44 -36 44 -24 0
-78 55 -78 79 1 22 45 71 66 71 36 0 93 -43 113 -86 18 -37 24 -42 60 -46 48
-4 61 -1 61 17 0 23 28 39 52 28 18 -8 28 -4 55 23 18 18 33 38 33 43 0 5 12
9 26 8 33 -2 54 25 38 51 -8 12 -32 20 -82 26 -63 8 -72 12 -72 30 0 38 -17
51 -67 52 -26 1 -70 9 -96 19 -82 30 -73 68 12 59 26 -3 52 -1 59 4 18 12 4
42 -22 43 -21 0 -21 0 2 9 27 11 28 35 3 76 -16 26 -27 32 -71 37 -41 5 -60
14 -92 43 -40 36 -46 37 -105 19 -18 -6 -26 0 -47 34 -34 53 -65 72 -112 69
-22 -1 -58 2 -81 6 -38 7 -43 5 -58 -18 -18 -27 -53 -34 -72 -15 -8 8 -23 5
-53 -11 -28 -15 -41 -17 -38 -8 2 7 21 21 41 31 20 10 37 22 37 25 0 4 -9 21
-19 38 -26 43 -80 51 -159 25 -32 -11 -69 -17 -82 -14 -15 4 -25 1 -32 -10 -4
-9 -24 -19 -42 -22 -23 -5 -45 -21 -70 -50 -39 -47 -45 -65 -22 -65 21 0 30
-19 16 -35 -9 -11 -17 -11 -36 -3 -38 18 -40 51 -7 105 25 40 37 49 79 61 76
22 94 30 94 46 0 7 -14 16 -31 20 -38 7 -47 7 -79 -4z"/>
<path d="M6625 6861 c-10 -9 -4 -29 13 -51 17 -21 20 -21 75 -9 42 10 57 18
57 31 0 9 -6 20 -12 25 -14 8 -126 12 -133 4z"/>
<path d="M7070 6859 c-80 -3 -148 -7 -152 -8 -19 -3 -5 -20 23 -30 40 -14 33
-33 -15 -45 -30 -8 -44 -6 -71 8 -26 14 -37 16 -54 6 -29 -15 -23 -30 24 -57
22 -12 44 -35 51 -53 13 -29 17 -32 46 -26 18 3 61 9 96 15 99 14 182 86 126
108 -15 6 -15 8 2 20 10 7 29 13 43 13 35 0 54 14 49 35 -4 23 3 23 -168 14z"/>
<path d="M8293 6849 c-19 -20 -16 -37 11 -54 21 -14 31 -14 68 -4 26 7 70 9
111 5 61 -6 67 -5 67 13 0 35 -27 44 -138 49 -79 3 -110 1 -119 -9z"/>
<path d="M6443 6788 c-17 -18 -33 -46 -35 -63 -4 -36 -50 -67 -69 -48 -9 9 -8
18 5 37 22 35 20 51 -9 64 -34 16 -50 15 -65 -3 -8 -9 -29 -15 -55 -15 -29 0
-45 5 -49 15 -8 21 -42 19 -93 -6 -49 -24 -65 -19 -38 11 26 29 11 36 -43 21
-26 -7 -94 -24 -152 -36 -58 -13 -131 -35 -162 -50 -63 -29 -77 -55 -30 -55
26 0 52 -15 52 -31 0 -4 -27 -9 -60 -11 -66 -5 -75 -10 -66 -33 6 -17 11 -17
252 1 58 4 75 1 88 -12 28 -27 13 -39 -45 -38 -30 1 -116 0 -192 -3 -112 -4
-140 -8 -144 -21 -12 -29 27 -43 109 -40 42 1 80 -1 84 -5 4 -4 -3 -19 -17
-33 -20 -21 -21 -27 -9 -35 20 -13 129 -5 210 16 36 9 108 20 160 24 58 4 108
14 128 25 31 16 35 16 55 2 12 -9 31 -22 42 -30 16 -12 38 -13 120 -4 125 12
131 14 115 33 -23 27 5 45 70 45 79 0 85 20 17 51 -28 13 -60 24 -71 24 -32 0
-34 49 -3 70 20 13 26 27 31 77 9 72 -3 88 -64 88 -28 0 -43 -8 -67 -32z"/>
<path d="M7165 6683 c-11 -3 -28 -12 -37 -21 -10 -8 -18 -11 -18 -6 0 5 -20
-13 -45 -40 -24 -27 -54 -54 -66 -60 -32 -16 -27 -29 17 -46 59 -23 67 -29 53
-46 -6 -8 -21 -14 -33 -14 -28 0 -50 -15 -42 -29 4 -6 18 -11 32 -11 13 0 24
-4 24 -10 0 -5 -13 -10 -29 -10 -16 0 -34 -7 -41 -15 -7 -8 -26 -15 -43 -15
-17 0 -45 -5 -64 -12 -25 -9 -31 -16 -28 -32 7 -28 -8 -49 -31 -44 -29 5 -29
37 2 69 30 31 30 32 -46 48 -50 11 -72 2 -121 -51 -27 -30 -27 -30 -82 -17
-43 9 -69 9 -113 0 -55 -11 -60 -10 -96 14 -27 18 -45 24 -64 19 -29 -7 -76
29 -67 52 8 22 -43 28 -100 11 -29 -9 -73 -19 -99 -23 -33 -4 -48 -11 -48 -21
0 -15 38 -15 150 0 33 4 19 -19 -17 -26 -93 -21 -119 -31 -145 -59 l-28 -30
-39 43 -38 43 -49 -11 c-52 -13 -299 -21 -309 -11 -4 4 -4 16 0 27 5 18 14 21
59 21 67 0 88 18 56 50 -19 19 -29 21 -78 15 -39 -4 -76 -1 -117 11 -33 9 -79
20 -102 25 -23 4 -59 17 -80 29 -52 27 -102 26 -148 -6 -41 -27 -65 -26 -65 4
0 11 -7 25 -15 32 -13 11 -21 8 -49 -19 -23 -22 -41 -32 -57 -29 -20 2 -24 10
-27 46 -4 50 -24 56 -69 18 -31 -26 -76 -42 -145 -52 -26 -3 -62 -17 -79 -30
-27 -19 -45 -24 -96 -24 -55 0 -67 -4 -89 -26 -32 -31 -68 -29 -72 4 -3 16 2
22 15 22 10 0 41 11 68 25 34 16 67 24 103 25 50 0 132 33 132 53 0 10 -109
-3 -146 -18 -36 -15 -102 -27 -159 -30 -87 -5 -147 -22 -172 -50 -22 -23 -31
-26 -62 -21 -20 3 -63 19 -95 36 -41 21 -73 30 -107 30 -36 0 -55 6 -77 25
-35 29 -48 31 -91 9 -29 -14 -36 -14 -79 0 -74 24 -268 49 -334 43 -51 -4 -62
-2 -78 15 -16 17 -27 20 -64 15 -36 -5 -49 -2 -70 14 -40 31 -98 36 -133 11
-23 -16 -48 -20 -138 -24 -93 -3 -116 -7 -152 -28 -38 -21 -46 -22 -67 -10
-27 14 -54 9 -158 -29 -32 -12 -69 -21 -84 -21 -15 0 -41 -13 -61 -30 -24 -22
-44 -30 -71 -30 -21 0 -54 -9 -75 -20 -23 -13 -57 -20 -89 -20 -31 -1 -61 -7
-72 -15 -11 -8 -28 -15 -38 -15 -26 0 -22 -19 7 -30 34 -13 51 -51 36 -79 -11
-19 -9 -21 19 -21 35 0 38 -12 12 -55 -16 -26 -25 -30 -63 -30 -24 -1 -52 -5
-61 -9 -13 -6 -18 -4 -18 7 0 9 9 19 20 22 41 13 18 25 -47 25 -52 0 -76 -5
-103 -22 -19 -12 -53 -23 -75 -24 -35 -3 -169 -45 -182 -58 -12 -12 11 -26 45
-27 27 -1 31 -3 12 -6 -13 -3 -35 -13 -48 -23 -20 -17 -21 -19 -6 -28 20 -11
242 -3 267 10 15 8 17 6 11 -19 -10 -43 -13 -45 -55 -38 -37 6 -40 5 -53 -25
-21 -52 -130 -85 -209 -65 -23 6 -38 1 -81 -29 -29 -20 -64 -36 -78 -36 -15 0
-44 -15 -68 -35 -27 -23 -52 -35 -71 -35 -35 0 -46 -21 -30 -56 9 -21 8 -26
-7 -30 -48 -15 -59 -34 -47 -81 7 -28 17 -28 107 -2 26 7 51 10 54 6 9 -9 -35
-57 -53 -57 -7 0 -18 -11 -23 -25 -5 -13 -23 -31 -40 -40 -16 -8 -30 -18 -30
-21 0 -8 122 7 142 17 30 16 66 0 70 -29 l3 -27 31 33 c27 29 33 31 60 22 21
-7 39 -8 57 -1 22 9 27 8 27 -4 0 -10 -11 -15 -33 -15 -26 0 -36 -6 -45 -25
-7 -14 -20 -25 -31 -25 -11 0 -28 -11 -39 -25 -16 -20 -29 -25 -61 -25 -46 0
-86 -17 -115 -49 -11 -12 -31 -21 -49 -21 -17 0 -53 -11 -81 -24 -78 -36 -116
-48 -176 -55 -30 -4 -65 -12 -77 -19 -12 -7 -34 -12 -49 -12 -26 0 -123 -57
-124 -72 0 -13 42 -20 68 -10 15 6 40 13 56 17 15 3 40 14 54 23 15 10 48 18
77 18 67 2 116 13 137 31 11 10 27 13 47 8 25 -5 36 -1 68 28 33 30 47 36 108
42 80 9 121 26 130 55 3 11 14 20 23 20 10 0 28 7 40 16 13 9 40 16 60 17 20
0 44 6 53 14 9 8 40 17 68 22 35 5 61 17 80 35 15 15 44 29 64 33 31 5 36 9
39 37 3 34 11 38 111 57 38 7 69 20 90 38 43 37 90 61 122 61 15 0 41 11 58
24 38 29 102 39 102 16 0 -10 -14 -17 -46 -20 -26 -3 -66 -19 -95 -37 -27 -17
-62 -34 -78 -37 -17 -4 -44 -20 -62 -36 -18 -15 -38 -30 -45 -32 -7 -2 -10
-11 -6 -21 9 -25 58 -21 113 8 31 16 63 25 93 25 34 0 51 5 64 20 13 15 30 20
69 21 90 2 103 9 103 54 0 34 3 40 24 43 37 6 66 -6 97 -37 30 -31 104 -64
139 -63 11 1 36 4 55 7 41 7 159 -31 193 -62 12 -11 29 -23 39 -26 9 -3 19
-19 23 -35 4 -22 16 -34 46 -47 44 -20 44 -28 -2 -27 -27 1 -30 -2 -24 -21 10
-32 9 -47 -9 -96 -10 -24 -15 -50 -12 -58 9 -21 55 7 91 56 20 27 38 41 53 41
17 0 27 10 38 36 14 33 14 38 -2 55 -16 18 -16 19 6 19 21 0 22 -3 16 -45 -5
-33 -3 -51 8 -67 27 -38 21 -102 -14 -141 -26 -30 -27 -35 -14 -48 8 -9 17
-38 20 -65 6 -47 4 -52 -22 -72 -60 -45 -64 -52 -44 -82 9 -13 13 -11 31 9 29
36 47 13 23 -28 l-19 -32 33 -25 c37 -30 42 -54 10 -54 -17 0 -28 -11 -41 -41
-24 -51 -17 -69 27 -69 25 0 36 -5 41 -19 3 -11 24 -26 45 -35 36 -14 40 -19
40 -51 0 -25 6 -39 24 -50 16 -11 25 -28 29 -58 5 -36 2 -46 -20 -69 -24 -25
-28 -26 -47 -13 -24 17 -62 20 -71 5 -11 -17 -43 -11 -50 10 -3 11 -15 20 -26
20 -15 0 -19 -8 -21 -42 -2 -57 -2 -59 7 -90 6 -23 2 -32 -24 -56 -19 -17 -32
-40 -35 -60 -2 -20 -19 -48 -45 -77 -22 -24 -41 -49 -41 -54 0 -13 -76 -106
-122 -148 -41 -39 -52 -59 -78 -143 -19 -62 -39 -103 -58 -124 -28 -29 -30
-37 -34 -133 -4 -81 -2 -105 10 -116 16 -16 19 -81 7 -135 -6 -29 -5 -34 14
-39 32 -8 26 -59 -6 -56 -14 2 -23 -3 -23 -11 0 -27 41 -106 61 -116 15 -9 19
-20 17 -53 l-3 -42 42 3 c34 3 42 0 48 -16 3 -11 16 -23 28 -26 12 -3 39 -26
60 -51 36 -43 39 -50 42 -123 2 -42 10 -103 19 -135 9 -32 16 -78 16 -102 0
-35 6 -52 30 -78 17 -19 30 -41 30 -49 0 -8 9 -23 20 -33 27 -24 25 -41 -6
-71 -21 -21 -31 -25 -59 -20 -44 9 -56 -11 -23 -39 13 -11 27 -28 31 -38 7
-19 71 -49 90 -41 7 2 32 -13 56 -35 43 -40 43 -41 37 -93 -8 -70 9 -115 63
-167 36 -35 42 -46 38 -69 -11 -53 26 -67 77 -29 19 14 19 18 6 58 -17 53 -35
77 -64 81 -22 3 -26 19 -42 177 -3 30 -15 68 -25 85 -10 17 -19 38 -19 47 0 9
-7 22 -15 29 -9 8 -15 30 -15 59 0 29 -8 59 -21 80 -16 27 -18 36 -7 43 10 7
9 12 -7 23 -58 44 -57 41 -51 123 3 42 6 90 6 106 l1 29 23 -22 c17 -16 31
-21 45 -16 14 4 23 1 27 -9 3 -9 15 -16 25 -16 17 0 19 -8 19 -66 0 -47 9 -92
29 -153 16 -47 31 -97 33 -111 2 -19 11 -26 41 -33 34 -8 37 -12 37 -44 0 -27
8 -43 36 -71 35 -35 36 -37 20 -63 -9 -15 -16 -35 -16 -46 0 -10 46 -65 104
-122 58 -58 107 -116 111 -129 3 -14 20 -45 37 -68 23 -32 29 -50 25 -71 -3
-18 2 -41 16 -66 l22 -39 -25 -18 c-24 -18 -24 -20 -7 -32 17 -13 16 -15 -8
-48 -32 -43 -32 -55 4 -91 17 -16 33 -38 36 -49 4 -11 15 -20 26 -20 14 0 25
-12 35 -36 12 -28 19 -35 35 -31 11 3 35 -3 52 -13 18 -10 52 -21 75 -25 24
-4 51 -16 60 -27 33 -38 121 -98 145 -98 13 0 41 -11 62 -26 93 -63 212 -99
273 -82 21 5 49 23 64 39 21 22 36 29 65 29 39 0 83 -22 83 -41 0 -21 64 -106
126 -166 60 -59 67 -63 110 -63 30 0 59 -8 81 -21 18 -12 61 -29 95 -40 61
-18 63 -18 96 1 42 26 45 25 40 -5 -4 -20 7 -39 55 -93 83 -94 88 -104 90
-169 1 -48 5 -61 27 -80 14 -12 33 -23 44 -23 15 0 17 5 12 26 -9 36 11 21 29
-22 8 -19 25 -38 39 -44 21 -8 25 -17 28 -57 l3 -48 72 3 c80 3 109 -7 123
-44 6 -15 17 -24 30 -24 13 0 24 -10 30 -25 11 -30 39 -32 71 -6 l24 19 -22
24 c-28 30 -29 38 -4 38 11 0 22 9 26 19 9 31 45 71 63 71 8 0 37 -15 64 -33
45 -30 60 -58 38 -72 -15 -9 -12 -31 6 -49 14 -15 18 -15 44 1 27 15 50 50 50
75 0 23 -83 120 -114 133 -17 7 -52 16 -77 20 -43 6 -49 4 -78 -24 -18 -17
-42 -31 -56 -31 -13 0 -40 -8 -59 -17 -46 -21 -86 -7 -86 32 0 15 -9 31 -24
41 -14 8 -26 23 -28 32 -2 9 -12 17 -22 17 -15 0 -22 15 -38 73 l-19 74 25 71
c18 54 23 84 19 120 -5 39 -2 54 14 76 11 15 24 45 27 67 8 45 -8 66 -56 78
-19 4 -28 13 -28 26 0 29 -53 47 -125 43 -57 -4 -107 -4 -192 -2 -21 0 -54 -3
-74 -6 -56 -10 -59 11 -10 56 33 31 41 45 41 74 0 20 7 50 16 67 9 17 14 38
11 48 -2 9 0 25 5 35 8 14 12 15 19 4 4 -7 11 -11 14 -7 10 10 24 78 25 115 0
22 6 36 21 43 11 7 27 27 35 45 8 19 23 39 35 45 16 9 19 17 14 38 -10 40 -25
53 -49 46 -12 -4 -33 -7 -48 -6 -15 1 -50 -7 -78 -18 -28 -11 -64 -20 -80 -20
-66 0 -100 -41 -100 -121 0 -18 -6 -28 -20 -32 -11 -3 -23 -13 -26 -24 -14
-42 -27 -61 -40 -56 -23 9 -45 -16 -38 -43 5 -19 2 -24 -14 -24 -11 0 -26 10
-34 22 -15 22 -15 22 -62 4 -26 -10 -75 -24 -109 -31 -61 -13 -62 -13 -89 12
-15 15 -44 29 -65 32 -37 6 -38 8 -46 56 -5 28 -11 60 -13 72 -2 12 -15 33
-27 45 -16 15 -31 54 -46 113 l-22 90 20 65 c10 36 22 85 26 110 9 53 25 88
71 151 28 39 34 56 34 98 0 29 -7 65 -15 82 -15 29 -15 30 21 62 20 17 47 38
61 45 13 7 28 24 33 38 8 20 16 24 48 24 30 0 45 7 68 31 16 17 40 35 53 40
13 5 21 13 17 16 -6 7 96 43 122 43 7 0 26 -10 42 -22 29 -21 30 -21 64 -3 29
16 37 17 50 6 9 -8 16 -25 16 -38 0 -23 3 -25 38 -19 93 15 112 14 123 -5 5
-11 21 -19 35 -19 24 0 26 3 20 32 -4 18 -8 41 -9 51 -2 9 -12 24 -23 31 -30
22 -5 38 73 48 56 6 70 5 79 -7 10 -13 19 -13 60 -4 57 13 141 1 136 -20 -5
-25 20 -41 63 -41 26 0 47 6 55 16 21 24 62 13 80 -21 8 -16 23 -36 33 -45 14
-12 19 -33 21 -103 1 -48 -1 -90 -6 -93 -14 -9 -9 -38 12 -64 11 -14 20 -32
20 -41 0 -9 11 -33 25 -53 14 -20 25 -48 25 -61 0 -27 10 -32 56 -27 23 3 34
9 34 21 0 9 7 36 16 61 27 77 28 220 3 335 -31 144 -28 187 18 255 44 64 109
130 128 130 7 0 27 11 43 25 17 14 39 25 51 25 14 0 21 6 21 19 0 29 54 81 83
81 16 0 44 16 71 39 25 22 54 42 65 46 11 3 28 24 37 46 15 34 22 39 50 39 34
0 59 21 51 44 -3 7 -1 32 5 55 7 28 7 45 0 54 -7 8 -7 28 -2 57 5 25 9 62 10
83 0 51 34 117 60 117 25 0 25 -6 -5 -54 -17 -28 -22 -48 -18 -68 3 -17 -1
-37 -11 -53 -16 -25 -22 -79 -8 -73 4 2 36 34 71 71 66 72 70 87 46 150 -7 16
-4 18 27 12 30 -6 41 -2 71 24 19 18 44 52 54 76 l18 45 52 0 c44 0 56 4 78
27 14 15 25 30 25 34 0 3 18 16 41 28 37 21 45 22 103 12 83 -15 81 -15 94 15
9 18 9 31 1 45 -10 19 -12 19 -28 5 -13 -12 -20 -13 -29 -4 -17 17 -15 45 3
52 8 3 15 14 15 25 0 11 21 40 48 65 36 35 55 46 79 46 44 0 83 16 83 35 0 11
11 15 38 15 21 0 47 7 58 15 10 8 35 19 55 25 21 6 39 18 42 29 3 12 14 18 34
19 16 0 53 10 83 21 65 25 60 24 60 7 0 -15 -57 -52 -95 -62 -14 -3 -25 -11
-25 -16 0 -6 -11 -21 -25 -34 -22 -20 -23 -26 -14 -53 20 -56 78 -48 156 20
18 15 49 31 70 35 20 4 51 15 67 24 17 10 51 21 74 24 54 8 122 42 122 60 0
25 -25 35 -105 42 -76 7 -135 32 -157 67 -14 22 -9 97 7 103 17 7 20 40 4 49
-5 4 -23 1 -40 -5 -23 -10 -32 -10 -44 0 -25 21 -1 34 59 31 48 -2 59 2 88 28
29 26 32 32 23 57 -16 44 -44 53 -119 37 -122 -25 -176 -42 -208 -66 -51 -38
-137 -72 -150 -59 -8 8 4 18 43 37 30 14 69 36 88 50 20 15 47 25 68 25 27 0
44 10 91 56 l57 56 282 -5 c270 -4 283 -4 300 15 9 11 45 39 79 63 46 33 76
47 120 54 66 11 168 62 188 94 24 38 28 93 11 127 -13 24 -22 30 -49 30 -29 0
-34 4 -39 27 -3 15 0 35 7 45 9 16 7 22 -8 34 -11 8 -32 14 -47 14 -19 0 -30
6 -34 20 -5 15 -15 20 -45 20 -35 0 -39 3 -42 27 -2 20 -12 32 -33 41 -54 24
-60 29 -63 55 -3 22 1 26 25 29 27 3 28 5 24 53 -2 27 -9 59 -17 70 -8 10 -14
29 -14 40 0 11 -9 38 -20 60 -11 22 -20 55 -20 75 0 35 -14 60 -34 60 -13 0
-96 -90 -96 -105 0 -15 -70 -65 -93 -65 -9 0 -34 -9 -56 -21 -43 -22 -60 -18
-94 19 -11 12 -26 18 -38 15 -17 -5 -19 0 -19 40 0 46 29 105 66 132 9 6 15
20 12 31 -3 16 -13 19 -66 22 -49 2 -63 6 -58 17 3 8 -8 22 -27 34 -18 11 -44
30 -59 42 -26 21 -31 22 -83 10 -38 -9 -90 -10 -164 -6 -103 7 -110 6 -120
-13 -6 -11 -11 -36 -11 -54 0 -19 -11 -49 -25 -70 -14 -20 -25 -50 -25 -66 0
-29 -41 -66 -127 -117 -39 -23 -42 -58 -6 -63 52 -8 71 -96 32 -146 -13 -17
-19 -36 -16 -51 3 -20 0 -25 -17 -25 -23 0 -55 -19 -96 -56 -25 -23 -75 -44
-160 -68 -84 -24 -90 -30 -90 -92 0 -30 -7 -71 -16 -92 -8 -20 -17 -49 -19
-64 -3 -25 -46 -93 -69 -110 -5 -3 -15 -4 -22 -1 -8 3 -21 -2 -29 -11 -20 -19
-49 -21 -62 -3 -10 13 -33 70 -50 124 -9 27 -5 45 29 130 22 54 44 104 50 110
25 30 2 40 -103 41 -56 1 -105 5 -108 8 -3 3 -6 18 -6 32 0 27 -1 27 -62 24
-61 -4 -63 -3 -74 25 -21 54 -26 58 -78 66 -34 6 -54 15 -61 28 -13 23 -85 27
-116 5 -23 -16 -58 -24 -62 -13 -1 4 5 18 14 32 10 16 14 34 10 50 -4 14 -2
34 4 46 18 34 3 58 -41 65 -50 8 -52 36 -3 62 12 6 24 25 27 41 6 29 44 62
116 100 14 7 37 24 51 36 14 12 33 25 43 28 9 4 17 12 17 19 0 7 34 26 75 42
70 27 75 30 75 58 0 27 3 30 25 24 14 -3 36 -9 50 -12 47 -12 74 34 33 54 -20
9 -17 11 27 12 28 0 61 1 75 1 13 1 30 8 36 17 8 12 28 17 61 18 26 1 62 5 78
9 42 11 152 91 158 115 3 12 14 20 25 20 12 0 23 4 26 9 3 5 22 12 42 15 31 6
35 10 32 34 -3 25 0 27 38 30 28 2 47 -2 57 -12 9 -9 29 -16 46 -16 24 0 31 4
31 19 0 29 16 34 49 15 26 -15 34 -16 76 -4 38 11 102 49 145 87 3 3 -3 10
-13 17 -39 29 -7 103 33 78 23 -14 46 -7 53 16 3 9 8 25 12 35 6 13 2 17 -17
17 -14 0 -33 9 -42 19 -20 22 -94 32 -143 19 -26 -7 -35 -16 -44 -49 -12 -38
-36 -55 -67 -47 -7 2 -18 -8 -25 -21 -7 -15 -32 -32 -67 -45 -30 -12 -66 -29
-80 -38 -33 -24 -67 -23 -80 3 -19 35 -8 61 30 74 29 10 35 17 35 41 0 26 -4
29 -37 32 -26 2 -40 -2 -50 -15 -17 -24 -68 -56 -76 -49 -10 11 27 76 44 76 9
0 14 7 12 18 -4 18 -38 22 -70 7 -14 -5 -18 -2 -18 14 0 16 8 23 28 27 28 6
29 8 29 65 1 56 -1 61 -28 74 -28 15 -65 17 -104 8z"/>
<path d="M9832 6553 c-28 -5 -36 -24 -28 -58 7 -26 7 -26 91 -21 95 5 109 10
96 33 -15 28 -111 56 -159 46z"/>
<path d="M6787 6490 c-21 -18 -46 -30 -63 -30 -34 0 -62 -15 -51 -27 5 -4 25
-8 45 -9 20 -1 67 -5 103 -9 81 -9 112 3 107 43 -2 19 -10 28 -25 30 -12 2
-27 10 -33 18 -19 22 -46 17 -83 -16z"/>
<path d="M8145 6480 c-3 -5 -24 -14 -45 -20 -49 -13 -55 -40 -10 -40 30 0 80
37 80 60 0 13 -17 13 -25 0z"/>
<path d="M8204 6367 c-40 -23 -85 -67 -79 -77 3 -5 33 -10 66 -10 53 0 63 3
96 33 47 44 41 67 -19 67 -24 -1 -52 -6 -64 -13z"/>
<path d="M8336 6351 c-4 -6 3 -20 14 -31 17 -17 24 -18 41 -10 30 17 20 44
-18 48 -17 2 -34 -1 -37 -7z"/>
<path d="M7401 6114 c-29 -18 -60 -42 -68 -53 -8 -12 -20 -21 -27 -21 -7 0
-18 -11 -24 -25 -9 -20 -19 -25 -46 -25 -35 0 -66 -21 -66 -44 0 -8 16 -12 48
-12 41 1 47 -2 50 -21 4 -29 10 -29 80 7 33 17 64 30 70 30 6 0 20 9 30 20 18
20 19 20 42 -5 28 -30 88 -48 126 -39 17 4 29 2 35 -7 11 -19 27 -2 35 38 6
31 5 32 -32 35 -30 2 -40 8 -42 23 -6 30 -32 56 -79 76 -31 13 -43 24 -43 39
0 28 -25 24 -89 -16z"/>
<path d="M7890 5954 c0 -16 23 -44 35 -44 22 0 18 28 -4 40 -22 11 -31 13 -31
4z"/>
<path d="M7802 5918 c2 -13 11 -24 21 -26 22 -4 35 27 16 39 -25 16 -41 10
-37 -13z"/>
<path d="M7363 5854 c-43 -26 -55 -48 -30 -56 45 -16 167 30 167 62 0 31 -82
27 -137 -6z"/>
<path d="M7587 5805 c-19 -14 -20 -56 -2 -62 14 -4 65 45 65 62 0 19 -39 19
-63 0z"/>
<path d="M8677 5763 c-4 -3 -7 -15 -7 -25 0 -28 34 -19 38 10 3 21 -16 31 -31
15z"/>
<path d="M932 5623 c-40 -5 -49 -24 -25 -52 23 -27 31 -26 73 9 29 25 32 31
20 40 -8 5 -19 9 -25 8 -5 -1 -25 -3 -43 -5z"/>
<path d="M1785 5436 c-11 -7 -24 -14 -30 -15 -5 0 -10 -7 -10 -13 0 -9 14 -12
44 -11 53 3 68 14 46 37 -20 20 -25 20 -50 2z"/>
<path d="M1650 5360 c-17 -17 -18 -24 -10 -41 11 -19 13 -20 37 -3 15 9 38 20
52 24 42 11 32 35 -16 38 -32 2 -47 -2 -63 -18z"/>
<path d="M3094 5276 c-31 -14 -49 -40 -38 -57 3 -5 13 -5 24 1 10 5 35 10 55
10 39 0 55 20 35 45 -15 18 -35 18 -76 1z"/>
<path d="M7310 5228 c-23 -38 -17 -52 18 -43 51 13 73 75 27 75 -18 0 -31 -10
-45 -32z"/>
<path d="M3063 5193 c-7 -2 -13 -12 -13 -21 0 -8 -7 -24 -17 -34 -15 -17 -15
-19 0 -36 10 -10 17 -29 17 -41 0 -32 22 -22 42 20 36 74 40 88 35 103 -6 15
-38 20 -64 9z"/>
<path d="M495 5080 c-22 -11 -45 -20 -52 -20 -17 0 -17 -39 1 -46 7 -3 28 4
47 15 19 11 51 23 72 26 28 6 37 11 33 22 -3 8 -6 17 -6 19 0 12 -61 2 -95
-16z"/>
<path d="M3000 5070 c0 -5 5 -10 10 -10 6 0 10 5 10 10 0 6 -4 10 -10 10 -5 0
-10 -4 -10 -10z"/>
<path d="M166 4958 c-15 -19 -22 -36 -16 -42 12 -12 52 0 81 23 20 16 21 21
10 35 -21 25 -47 19 -75 -16z"/>
<path d="M2900 4972 c-24 -20 -25 -20 -6 -41 26 -29 62 -27 82 4 10 16 26 25
42 25 44 0 11 20 -44 26 -40 5 -54 2 -74 -14z"/>
<path d="M30 4925 c-13 -14 -20 -28 -17 -32 11 -10 57 15 57 31 0 26 -16 26
-40 1z"/>
<path d="M6978 4909 c-10 -5 -18 -19 -18 -29 0 -16 7 -20 33 -20 39 0 77 24
62 39 -16 16 -59 22 -77 10z"/>
<path d="M2903 4893 c-27 -5 -28 -14 -4 -72 11 -26 21 -40 25 -33 4 7 5 12 2
12 -3 0 1 20 8 44 13 41 12 58 -3 55 -3 -1 -16 -4 -28 -6z"/>
<path d="M8951 4727 c-42 -13 -142 -105 -196 -180 -25 -35 -54 -62 -77 -73
-25 -11 -38 -24 -38 -36 0 -31 -19 -58 -40 -58 -27 0 -43 -32 -26 -55 10 -14
20 -16 42 -10 16 4 46 7 67 6 99 -3 135 -3 164 4 18 4 40 4 49 1 15 -6 15 -8
-1 -26 -10 -11 -26 -20 -37 -20 -25 0 -23 -17 6 -35 30 -20 57 -9 82 35 18 29
69 59 81 46 4 -3 -4 -20 -16 -37 -20 -27 -21 -33 -9 -45 35 -35 98 -34 98 2 0
6 7 17 16 25 24 20 47 70 37 80 -6 6 -23 5 -42 -2 -42 -15 -48 -7 -20 30 21
28 21 32 6 48 -13 16 -14 20 -1 37 19 27 18 49 -6 77 -16 19 -21 21 -29 10 -5
-7 -14 -10 -20 -7 -6 4 -18 0 -27 -9 -24 -23 -48 -14 -54 20 -5 26 -10 30 -33
27 -15 -1 -27 2 -27 8 0 12 60 71 98 97 27 18 30 53 5 52 -10 -1 -33 -6 -52
-12z"/>
<path d="M3004 4637 c4 -17 20 -44 36 -59 17 -15 30 -34 30 -43 0 -8 11 -20
23 -24 13 -5 29 -22 36 -39 9 -21 27 -35 67 -51 67 -28 84 -23 84 25 0 27 -5
37 -20 41 -13 3 -20 14 -20 29 0 48 -19 75 -67 96 -27 11 -56 28 -66 36 -10 9
-38 17 -64 19 l-45 2 6 -32z"/>
<path d="M8240 4559 c0 -11 8 -23 18 -26 9 -4 27 -17 39 -30 20 -21 31 -24 80
-21 46 2 59 7 61 20 2 12 -6 22 -25 29 -15 6 -41 18 -58 25 -16 7 -49 15 -72
18 -37 3 -43 2 -43 -15z"/>
<path d="M8372 4328 c-14 -14 -16 -38 -2 -38 9 0 30 31 30 44 0 10 -15 7 -28
-6z"/>
<path d="M8140 4255 c-19 -23 -4 -64 28 -71 15 -4 36 -13 47 -20 27 -19 49
-17 70 6 10 11 25 20 32 20 8 0 13 6 10 13 -2 7 -23 12 -53 12 -61 1 -106 19
-98 40 8 20 -19 20 -36 0z"/>
<path d="M8420 4243 c-19 -13 -38 -33 -42 -44 -4 -10 -12 -19 -18 -19 -18 0
-11 -28 12 -44 23 -16 64 -21 92 -10 17 7 22 54 6 54 -5 0 -10 7 -10 15 0 8 4
15 9 15 11 0 19 30 14 48 -7 17 -23 14 -63 -15z"/>
<path d="M6404 2050 c-1 -42 3 -60 11 -60 18 0 34 23 41 60 6 26 3 36 -11 47
-33 23 -40 15 -41 -47z"/>
<path d="M6474 1945 c-17 -13 -17 -14 -1 -15 10 0 17 -8 17 -21 0 -14 5 -19
17 -17 19 4 26 37 11 55 -13 17 -20 16 -44 -2z"/>
<path d="M6416 1923 c-11 -11 -6 -23 9 -23 8 0 15 4 15 9 0 13 -16 22 -24 14z"/>
<path d="M6307 1893 c-13 -13 -7 -51 10 -57 23 -9 44 14 37 42 -6 21 -33 30
-47 15z"/>
<path d="M6322 1808 c6 -18 28 -21 28 -4 0 9 -7 16 -16 16 -9 0 -14 -5 -12
-12z"/>
<path d="M6570 1726 c0 -38 16 -57 26 -32 8 21 -3 66 -16 66 -6 0 -10 -15 -10
-34z"/>
<path d="M5842 1704 c-40 -7 -86 -23 -102 -34 -32 -23 -75 -99 -63 -111 15
-14 63 3 63 22 0 15 7 19 39 19 30 0 42 5 55 25 17 26 67 44 103 37 26 -5 31
-22 8 -22 -21 0 -19 -26 3 -35 9 -4 50 -9 91 -12 63 -5 71 -8 56 -19 -27 -20
-8 -34 46 -34 64 0 89 -13 89 -48 0 -32 9 -46 33 -55 9 -4 21 -17 27 -31 12
-34 29 -37 176 -34 147 3 169 14 122 58 -13 12 -35 20 -56 20 -25 0 -35 5 -39
20 -3 11 -11 20 -18 20 -7 0 -18 6 -25 14 -6 8 -17 13 -25 10 -17 -7 -56 14
-138 71 -41 28 -76 45 -94 45 -33 0 -54 16 -46 35 2 8 -4 18 -14 24 -17 8 -47
13 -183 25 -19 2 -68 -3 -108 -10z"/>
<path d="M6656 1645 c4 -15 2 -25 -5 -25 -6 0 -11 -4 -11 -10 0 -16 47 -11 54
6 8 21 8 20 -10 38 -23 23 -35 19 -28 -9z"/>
<path d="M5796 1564 c-25 -24 -3 -46 43 -42 31 3 36 7 36 28 0 21 -5 26 -31
28 -19 2 -38 -3 -48 -14z"/>
<path d="M6728 1362 c-47 -3 -85 -27 -57 -36 8 -2 28 -9 44 -14 23 -7 29 -14
27 -31 -2 -12 2 -29 9 -37 23 -29 -4 -38 -69 -25 -76 17 -106 12 -110 -16 -3
-18 3 -23 30 -27 18 -2 42 -5 53 -5 76 -1 165 -15 165 -26 0 -13 21 -25 46
-25 7 0 20 16 28 35 16 36 33 43 68 24 16 -9 24 -7 39 10 l20 21 39 -20 c52
-27 56 -26 76 15 20 44 7 65 -41 65 -20 0 -39 8 -51 21 -10 11 -42 32 -71 45
-52 25 -131 33 -245 26z"/>
<path d="M7250 1216 c-46 -46 59 -88 133 -53 48 22 31 37 -61 52 -41 7 -65 8
-72 1z"/>
<path d="M6220 1192 c0 -10 11 -29 25 -42 22 -21 29 -22 59 -13 19 6 45 9 58
6 30 -6 55 19 36 34 -13 9 -128 33 -162 33 -9 0 -16 -8 -16 -18z"/>
</g>
</svg>
