<?xml version="1.0" standalone="no"?>
<!DOCTYPE svg PUBLIC "-//W3C//DTD SVG 20010904//EN"
 "http://www.w3.org/TR/2001/REC-SVG-20010904/DTD/svg10.dtd">
<svg version="1.0" xmlns="http://www.w3.org/2000/svg"
 width="898.000000pt" height="1280.000000pt" viewBox="0 0 898.000000 1280.000000"
 preserveAspectRatio="xMidYMid meet">
<metadata>
Created by potrace 1.15, written by Peter Selinger 2001-2017
</metadata>
<g transform="translate(0.000000,1280.000000) scale(0.100000,-0.100000)"
fill="#000000" stroke="none">
<path d="M4838 12789 c-35 -20 -17 -59 27 -59 22 0 39 38 24 56 -13 16 -27 17
-51 3z"/>
<path d="M4874 12685 c-15 -11 -17 -17 -8 -32 16 -26 58 -24 62 4 4 30 -29 47
-54 28z"/>
<path d="M4923 12523 c-20 -7 -15 -51 6 -63 11 -5 22 -10 24 -10 9 0 27 62 21
71 -6 10 -31 11 -51 2z"/>
<path d="M3245 12101 c-27 -6 -34 -14 -65 -81 -5 -10 -22 -15 -49 -16 -32 0
-49 -7 -74 -31 -46 -43 -68 -53 -143 -60 -53 -5 -68 -10 -80 -29 -17 -26 -62
-44 -109 -44 -71 0 -118 -69 -120 -176 -2 -87 -7 -96 -50 -88 -29 5 -36 2 -51
-22 -10 -15 -18 -43 -19 -63 0 -33 -3 -36 -40 -46 -35 -10 -40 -16 -43 -44 -3
-31 -6 -33 -32 -28 -26 6 -28 3 -34 -32 -4 -27 -17 -48 -41 -70 -20 -17 -39
-31 -43 -31 -4 0 -13 -4 -21 -9 -12 -8 -12 -12 2 -26 10 -9 17 -32 17 -53 0
-22 8 -44 21 -58 19 -20 21 -35 22 -170 2 -147 2 -148 -25 -182 -20 -25 -28
-46 -28 -76 0 -22 -7 -79 -14 -126 -9 -52 -11 -101 -7 -126 11 -56 -1 -74 -48
-74 -70 0 -111 -56 -111 -152 0 -29 -8 -45 -35 -73 -31 -30 -42 -35 -84 -35
-27 0 -53 -6 -59 -12 -5 -7 -15 -42 -21 -78 -14 -82 -35 -110 -96 -129 -58
-19 -88 -57 -104 -132 -16 -75 -12 -147 13 -214 20 -55 25 -61 61 -72 22 -7
57 -15 78 -18 57 -9 46 -37 -43 -112 -56 -46 -79 -73 -91 -105 -9 -24 -25 -59
-37 -78 -28 -45 -28 -58 3 -86 19 -18 23 -29 19 -52 -3 -16 -1 -45 4 -66 7
-25 7 -46 0 -67 -19 -56 36 -101 149 -119 67 -11 81 -23 94 -80 15 -68 76
-183 128 -241 26 -30 54 -72 61 -94 7 -22 28 -57 46 -77 41 -46 59 -82 68
-133 12 -67 117 -285 178 -371 32 -44 71 -111 89 -150 17 -38 39 -87 50 -110
10 -22 19 -56 19 -75 0 -39 12 -59 91 -155 103 -126 266 -259 327 -269 54 -9
88 -24 109 -47 10 -11 54 -38 98 -59 44 -21 98 -48 120 -60 22 -11 47 -24 55
-28 9 -5 16 -26 18 -53 4 -58 27 -80 112 -108 70 -24 80 -32 80 -69 0 -13 14
-65 31 -115 25 -71 34 -118 40 -211 5 -66 11 -136 14 -155 5 -24 -4 -74 -25
-155 -37 -138 -40 -183 -16 -245 13 -33 18 -73 18 -147 0 -88 3 -106 20 -129
19 -24 20 -30 9 -77 -10 -42 -10 -80 2 -202 13 -124 15 -216 8 -312 -1 -7 -14
-25 -31 -40 -37 -32 -38 -62 -4 -102 24 -29 25 -36 19 -94 -4 -37 -16 -74 -28
-91 -20 -29 -20 -30 -3 -113 10 -47 29 -114 42 -149 13 -36 24 -74 24 -87 0
-12 11 -46 25 -75 32 -69 31 -87 -6 -158 -31 -58 -32 -60 -23 -149 15 -166 5
-417 -20 -484 -21 -57 -20 -83 4 -114 40 -51 60 -109 60 -179 0 -42 6 -81 17
-103 16 -34 16 -36 -5 -65 -26 -34 -27 -48 -8 -75 7 -11 16 -42 19 -68 7 -53
72 -186 95 -194 8 -4 27 2 43 11 25 15 33 15 56 4 15 -7 29 -22 31 -33 2 -11
19 -34 38 -52 34 -32 43 -64 25 -92 -5 -7 -4 -25 2 -41 8 -21 6 -37 -7 -70
-17 -44 -10 -70 20 -70 21 0 24 -14 12 -53 -10 -32 -9 -40 7 -57 10 -11 24
-20 31 -20 23 0 54 -43 54 -74 0 -17 -11 -55 -25 -84 -28 -61 -30 -86 -10
-122 9 -16 14 -56 15 -116 0 -77 -3 -95 -20 -117 -11 -14 -20 -29 -20 -35 0
-5 9 -17 20 -27 11 -10 20 -23 20 -29 1 -27 21 -40 65 -41 27 -1 53 -9 62 -18
14 -14 13 -17 -15 -31 -31 -16 -36 -28 -47 -108 -7 -44 -5 -49 20 -70 70 -58
75 -66 75 -113 0 -43 18 -75 48 -86 5 -2 20 -31 33 -64 20 -49 31 -63 61 -77
20 -10 44 -31 54 -47 10 -16 28 -35 41 -42 16 -9 29 -30 39 -66 9 -30 25 -65
37 -79 l22 -26 54 28 c50 26 56 27 114 17 34 -6 79 -18 99 -27 32 -14 38 -21
38 -46 0 -62 -83 -66 -118 -6 -33 55 -102 54 -102 -3 0 -32 23 -55 63 -65 37
-9 34 -26 -4 -26 -40 0 -33 -18 14 -36 20 -8 54 -21 75 -29 46 -17 94 -19 110
-3 7 7 12 28 12 48 0 26 13 56 45 105 82 129 68 118 151 111 73 -7 74 -7 74
17 0 32 -30 57 -68 57 -27 0 -32 4 -32 23 0 13 -11 34 -24 46 -34 32 -56 82
-56 125 0 48 32 109 64 124 28 13 29 17 26 142 l-2 76 51 47 c28 26 62 52 76
59 53 24 67 104 29 166 -12 18 -23 22 -68 22 -43 0 -61 6 -94 29 -22 16 -43
35 -47 40 -3 6 -24 20 -45 31 -48 25 -70 64 -70 126 0 39 5 51 33 79 22 22 47
36 73 40 21 3 46 10 54 14 17 9 32 75 31 136 0 22 -1 72 -2 110 0 39 0 73 0
78 1 4 12 7 26 7 32 0 32 18 -1 49 -31 30 -28 55 9 59 19 2 27 9 27 22 0 24
-17 34 -51 32 -15 -1 -39 2 -53 8 -23 9 -26 15 -26 62 0 52 -1 53 -48 83 -53
34 -66 70 -36 100 24 23 96 15 138 -16 27 -21 45 -24 128 -27 87 -3 98 -2 117
17 23 23 29 87 10 93 -6 2 -16 42 -22 90 -9 75 -8 92 7 132 21 55 44 64 110
42 70 -24 63 -25 271 40 44 13 91 24 103 24 53 0 82 31 144 155 75 151 75 149
-32 289 -18 24 -30 51 -30 70 0 17 -8 54 -18 81 l-18 50 -47 -3 c-61 -4 -98
17 -126 70 -19 35 -21 48 -12 71 14 36 31 34 74 -7 27 -25 47 -34 86 -39 54
-6 100 -27 144 -63 35 -30 54 -30 112 -2 l46 22 42 -22 c53 -28 58 -28 88 4
13 14 38 33 54 41 59 30 85 63 85 109 0 37 6 49 39 81 49 50 64 79 96 194 30
107 36 116 79 127 21 5 36 19 46 39 8 17 27 41 42 53 18 13 29 34 33 58 24
150 55 228 144 361 96 144 94 138 86 260 -6 85 -12 114 -31 147 -30 51 -32
120 -5 172 20 39 72 91 151 151 25 19 57 51 72 72 35 48 73 68 152 78 60 7 68
11 130 68 99 90 118 98 264 100 68 0 133 4 145 7 12 3 35 26 50 51 16 25 54
67 84 93 l55 48 3 75 c2 41 4 80 4 86 1 7 16 19 34 26 47 20 62 43 59 95 -2
51 6 64 61 99 51 32 58 56 41 129 -7 32 -14 85 -14 117 0 53 3 61 36 93 22 23
33 42 29 52 -27 72 -27 140 2 164 27 22 33 55 18 105 -7 26 -17 84 -20 128 -4
44 -14 98 -21 120 -18 52 -17 69 2 107 14 28 14 34 0 72 -9 22 -13 52 -9 66 8
36 51 78 92 91 40 13 71 36 71 54 0 6 13 29 29 51 16 21 32 49 35 61 4 13 27
66 52 118 38 82 48 95 68 95 19 0 35 16 72 71 26 40 75 103 108 142 l60 70 7
101 c4 63 14 123 28 160 27 76 27 84 -9 186 -16 47 -30 104 -30 128 0 38 -6
50 -49 95 l-50 52 -98 3 c-95 3 -99 4 -125 34 -15 17 -37 32 -50 33 -13 1 -26
3 -29 4 -3 0 -32 36 -64 79 -56 75 -153 160 -222 196 -18 9 -40 30 -48 46 -19
37 -49 39 -150 10 -38 -11 -87 -20 -109 -20 -39 0 -194 47 -252 77 -40 21
-100 13 -167 -21 -54 -29 -70 -27 -43 3 32 35 23 74 -29 134 -28 33 -59 59
-75 62 -15 3 -39 19 -54 36 -21 24 -34 29 -70 29 -34 0 -52 7 -76 27 -30 25
-61 34 -167 49 -71 11 -89 1 -121 -68 -36 -74 -138 -168 -184 -168 -24 0 -28
4 -28 28 0 35 16 52 50 52 37 0 62 21 88 74 12 25 32 67 44 92 30 61 19 77
-58 85 -32 4 -109 7 -171 8 -89 1 -115 -2 -127 -15 -17 -16 -17 -19 -20 -119
-1 -60 -1 -60 -32 -63 -18 -2 -49 -18 -72 -38 -32 -27 -49 -34 -83 -34 l-43 0
77 74 c42 41 77 81 77 91 0 9 11 40 25 69 18 38 36 58 64 74 28 16 43 33 51
58 7 20 25 50 40 67 37 44 62 94 58 120 -2 17 -17 26 -66 42 -35 12 -67 28
-72 35 -4 8 -10 50 -13 93 -5 65 -10 84 -34 115 -23 31 -29 50 -33 111 l-5 75
-33 8 c-29 8 -38 18 -65 76 -36 78 -42 84 -81 77 -21 -4 -36 2 -58 20 -19 16
-42 25 -63 25 -26 0 -39 7 -56 31 -31 44 -100 73 -153 65 -27 -4 -57 -1 -85 9
-52 18 -115 19 -191 3 -71 -14 -108 -3 -137 43 -12 19 -46 58 -75 86 -42 42
-60 53 -85 53 -45 0 -73 30 -73 78 0 69 -86 174 -184 224 -34 18 -44 19 -79 8
-78 -23 -132 27 -84 78 77 84 7 162 -147 162 -79 0 -86 5 -86 55 0 32 25 55
60 55 48 0 48 21 0 53 -34 24 -78 21 -129 -8 -28 -16 -59 -25 -87 -25 -26 0
-57 -8 -76 -20 -18 -11 -41 -20 -51 -20 -10 0 -27 -15 -38 -34 -11 -19 -26
-36 -33 -39 -16 -6 -80 22 -158 69 l-59 36 -107 -6 c-59 -4 -125 -9 -148 -12
-50 -7 -74 13 -74 61 0 21 -9 44 -23 61 -22 25 -30 27 -98 28 l-74 1 3 52 c4
57 -4 66 -69 78 -26 5 -39 2 -49 -10 -11 -14 -8 -21 25 -56 36 -36 38 -40 23
-55 -8 -9 -42 -19 -75 -23 -67 -8 -111 -34 -143 -86 -29 -48 -55 -47 -47 1 5
27 1 40 -14 55 -10 10 -19 25 -19 32 0 17 28 43 56 51 37 11 74 53 74 84 0 48
-22 59 -95 43z"/>
<path d="M4810 12046 c0 -21 21 -31 30 -15 5 7 6 17 4 21 -9 14 -34 9 -34 -6z"/>
<path d="M4857 11828 c-26 -9 -28 -14 -23 -44 6 -27 3 -35 -14 -44 -17 -9 -19
-14 -9 -26 18 -22 73 -14 77 11 3 11 13 28 23 38 23 22 25 63 3 71 -19 7 -22
7 -57 -6z"/>
<path d="M16 9904 c-20 -20 -20 -19 6 -66 20 -36 21 -41 6 -49 -8 -5 -19 -20
-22 -34 -19 -77 74 -90 113 -17 19 35 5 116 -26 152 -28 33 -54 38 -77 14z"/>
<path d="M190 9775 c-11 -14 -10 -19 7 -37 13 -13 28 -18 38 -14 21 8 16 35
-11 53 -18 12 -23 11 -34 -2z"/>
<path d="M336 9754 c-10 -26 -7 -34 12 -34 21 0 42 18 42 37 0 19 -47 16 -54
-3z"/>
<path d="M3800 2400 c-25 -25 -25 -31 1 -83 19 -36 20 -48 12 -94 -5 -29 -7
-57 -4 -62 3 -5 31 -11 61 -13 l55 -3 3 62 c2 42 -2 72 -13 92 -8 17 -15 39
-15 51 0 24 -42 70 -65 70 -8 0 -24 -9 -35 -20z"/>
<path d="M5257 2373 c-3 -4 -5 -27 -5 -51 -1 -37 3 -44 28 -57 16 -8 40 -15
55 -15 21 0 25 5 25 29 0 16 -6 31 -12 34 -7 2 -13 17 -13 33 0 26 -4 29 -37
32 -20 2 -38 -1 -41 -5z"/>
<path d="M4062 1951 c-20 -12 3 -63 26 -59 24 5 28 44 5 57 -11 5 -25 6 -31 2z"/>
<path d="M3940 1878 c-38 -63 -19 -91 57 -86 43 3 48 5 51 29 4 32 -41 89 -69
89 -11 0 -28 -14 -39 -32z"/>
<path d="M3975 1676 c-8 -12 -38 -35 -66 -50 -27 -15 -48 -33 -46 -39 2 -7 28
-13 63 -14 32 -1 80 -4 105 -8 36 -5 49 -3 63 11 23 23 14 61 -25 97 -36 34
-73 35 -94 3z"/>
<path d="M3993 1324 c-18 -8 -33 -16 -33 -18 0 -2 21 -16 47 -30 53 -30 66
-25 61 25 -4 40 -24 46 -75 23z"/>
<path d="M4010 1192 c-17 -6 -11 -28 16 -53 21 -19 24 -30 19 -56 -5 -29 -3
-34 20 -43 28 -11 75 -14 75 -5 0 3 -6 16 -14 28 -16 25 -6 64 19 73 18 7 20
40 3 51 -13 7 -118 11 -138 5z"/>
<path d="M6330 753 c-34 -6 -47 -21 -27 -29 24 -9 21 -25 -10 -50 l-27 -21 24
-13 c21 -11 26 -9 71 41 26 30 47 59 45 64 -3 11 -39 15 -76 8z"/>
<path d="M6453 718 c-39 -42 -34 -78 11 -78 33 0 66 21 66 41 0 5 10 9 23 9
24 0 66 25 57 33 -3 3 -34 8 -70 12 -60 6 -67 5 -87 -17z"/>
<path d="M4274 696 c-8 -22 -1 -59 13 -64 15 -4 36 45 29 65 -7 17 -35 17 -42
-1z"/>
<path d="M5114 522 c-17 -11 -34 -48 -34 -76 0 -36 38 -60 74 -46 15 5 34 10
42 10 23 0 16 -37 -12 -54 -18 -13 -24 -24 -22 -44 3 -27 9 -30 91 -47 16 -3
27 -11 24 -18 -6 -18 -82 -20 -119 -3 -18 8 -68 17 -110 20 -69 6 -77 5 -82
-12 -10 -31 4 -52 34 -52 15 0 47 -7 71 -16 24 -8 84 -16 132 -18 50 -2 93 -8
99 -14 14 -14 50 -16 64 -3 13 14 130 35 189 35 30 -1 64 -8 85 -20 26 -13 56
-18 113 -19 82 0 100 9 95 50 -3 16 -9 19 -37 17 -19 -1 -41 4 -50 11 -9 8
-38 17 -64 21 -73 9 -189 67 -250 125 -30 28 -63 51 -74 51 -27 0 -46 24 -38
49 4 13 -1 27 -14 40 -18 18 -33 21 -108 21 -49 0 -93 -4 -99 -8z"/>
<path d="M4427 513 c-9 -14 20 -51 52 -67 29 -16 147 -11 157 6 3 4 -21 20
-52 35 -61 28 -147 42 -157 26z"/>
<path d="M5016 421 c-21 -23 -14 -57 14 -66 27 -8 40 2 40 30 0 55 -23 70 -54
36z"/>
<path d="M4650 384 c-20 -23 2 -62 37 -66 18 -2 28 -9 28 -20 0 -26 20 -41 44
-33 32 10 28 53 -6 66 -15 5 -33 19 -40 29 -22 32 -49 42 -63 24z"/>
<path d="M5460 148 c-19 -5 -41 -15 -48 -21 -7 -5 -29 -13 -48 -16 -34 -6 -34
-7 -19 -28 10 -15 26 -23 44 -23 16 0 45 -7 64 -15 20 -8 48 -15 61 -15 23 0
25 3 20 29 l-6 29 53 -2 c49 -1 54 1 57 22 6 39 -14 52 -82 51 -33 0 -77 -5
-96 -11z"/>
<path d="M5705 70 c-61 -13 -95 -28 -95 -44 0 -22 29 -27 112 -20 81 7 97 18
78 55 -11 20 -30 22 -95 9z"/>
</g>
</svg>
