<svg xmlns="http://www.w3.org/2000/svg" viewBox="0 0 208.94 286.99"><defs><style>.cls-1,.cls-4{fill:#fff;}.cls-1,.cls-2,.cls-3{fill-rule:evenodd;}.cls-2{fill:#e11e26;}.cls-3{fill:#161516;}</style></defs><title>Eszköz 1</title><g id="Réteg_2" data-name="Réteg 2"><g id="Layer_1" data-name="Layer 1"><polygon class="cls-1" points="0 0 0 165.67 0.14 171.29 0.58 176.83 1.3 182.3 2.3 187.7 3.6 192.89 5.11 198 6.84 202.97 8.86 207.79 11.09 212.47 13.54 217.01 16.13 221.4 18.94 225.72 21.96 229.82 25.13 233.86 28.44 237.74 31.97 241.49 35.57 245.09 39.31 248.62 43.2 251.93 47.23 255.17 51.26 258.34 55.44 261.29 59.76 264.24 64.08 266.98 68.54 269.64 73.01 272.23 77.54 274.68 82.15 277.06 86.76 279.29 91.44 281.45 96.05 283.46 104.47 286.99 112.9 283.46 117.58 281.45 122.18 279.29 126.79 277.06 131.4 274.68 135.94 272.23 140.4 269.64 144.86 266.98 149.18 264.24 153.43 261.29 157.68 258.34 161.71 255.17 165.74 251.93 169.63 248.62 173.38 245.09 176.98 241.49 180.43 237.74 183.82 233.86 186.98 229.82 190.01 225.72 192.82 221.4 195.41 217.01 197.86 212.47 200.09 207.79 202.1 202.97 203.83 198 205.34 192.89 206.64 187.7 207.58 182.3 208.3 176.83 208.8 171.29 208.94 165.67 208.94 0 0 0"/><path class="cls-2" d="M9.94,9.94V165.53c0,56.09,46.22,91.15,94.53,110.73C152.78,256.68,199,221.62,199,165.53V9.94Z"/><path class="cls-3" d="M170.64,209V168.84a69.88,69.88,0,0,1,0,40.18Zm0-70.35V135.5c2.66,3.17,5.33,6.41,7.92,9.72-2.66-2.16-5.26-4.39-7.92-6.55Zm0-13c7.63,6.55,15.55,13.11,23.47,19.8-7.77-9.43-15.62-18.86-23.47-28v8.21Zm0-14.61c9.43,8.56,18.5,16.63,28.37,24.62v-.43c-8-10.15-16.49-20.31-25.13-30.46l-3.24-.72Zm-8.93-9.65,6.27,1.37L166,96.12c-4.75-4.32-9.5-8.5-14.18-12.67v6.26c3.24,3.89,6.55,7.85,9.86,11.74Zm8.93,2.66v7l-1-.94-1.94-6.7,2.95.65Zm0,13.39v8.21c-6.48-5.54-12.82-11.09-18.79-16.49V97.34c1.58,1.37,3.17,2.67,4.75,4.11,4.61,5.18,9.36,10.58,14,16Zm0,18c-6.12-7.34-12.53-14.4-18.79-21.38v8.42c5.76,5.26,12.24,10.66,18.79,16.13V135.5Zm0,33.34V209a69.09,69.09,0,0,1-18.79,30.24V138.67A69.26,69.26,0,0,1,170.64,168.84ZM151.85,83.45c-5.26-4.61-10.59-9.15-16.13-13.61,5.18,6.62,10.58,13.25,16.13,19.87V83.45Zm0,13.89v11.88l-1.15-1c-5.33-5.91-10.59-11.74-15.63-17.5V82.94c5.55,4.76,11.16,9.51,16.78,14.4Zm0,16.78c-1.08-1.15-2.09-2.38-3.17-3.53-3.24-2.81-7.92-6.77-13.61-11.45V105c3.53,4.24,6.84,8,9.15,10.29s4.89,4.83,7.63,7.27v-8.42Zm0,24.55V239.26a70.21,70.21,0,0,1-16.78,11.59V127.08a69.63,69.63,0,0,1,16.78,11.59Zm-16.78-19.94v-6.41c3.46,2.23,6.91,4.68,10.23,7.27l2.16,6.48-7-1.37C138.6,122.54,136.8,120.6,135.07,118.73Zm0-35.79v7.78q-12.52-14.25-23.83-27.86v-.15c7.85,6.7,15.84,13.39,23.83,20.23Zm0,16.2c-4-3.31-8.42-6.91-13.25-10.72,3.75,4.82,8.72,11.08,13.25,16.56V99.14Zm0,13.18v6.41c-4.39-4.9-8.21-9.29-12.38-14.26,3.89,2.45,8.13,5,12.38,7.85Zm0,14.76a68.66,68.66,0,0,0-7.85-3.31c-4.39-4.75-8.71-9.51-13.1-14.19l4-1.36c-2-.29-4-.58-6-.72l-.94-.94v9.79c.5.72.43,1.08,0,1.37v139.9a69,69,0,0,0,23.83-6.77ZM111.24,62.71v.15l-.36-.36.36.21Zm0,43.85v9.79l-.36-.36c-1.87-2.09-3.67-4.17-5.47-6.26v-9.36c1.94,2,3.89,4.1,5.83,6.19Zm0,11.16a4.09,4.09,0,0,1-1.58.43c-1.16.15-2.45.07-3.1-1.08l-1.15-1.29V257.9a54.18,54.18,0,0,0,5.83-.28Zm-5.83-17.35v9.36l-.65-.72c-1.87,0-3.74,0-5.54.14l6.19,6.63V257.9h-.72a70.48,70.48,0,0,1-13.54-1.29V117.29c.94.72,2,.93,4.25.72,1.73-.07,1.94-1.51-.5-4l-3.46-4-.29.07v-9.58c2.16,2.38,4.39,4.75,6.63,7.13,1.8-.22,3.6-.36,5.4-.43-4.11-4.75-8.14-9.43-12-14.11V85.75C95.9,90.58,100.66,95.4,105.41,100.37ZM91.15,85.75V93.1C87.34,88.49,83.59,84,80,79.49V74.66c3.75,3.68,7.42,7.35,11.16,11.09Zm0,14.76c-3.74-4-7.41-7.92-11.16-11.81v8.21l10.37,11.88a56.16,56.16,0,0,0-5.76,1.59L80,105.48v8.71l4,4.61c.8.86-.14,1.51-1.22,1.66A4,4,0,0,1,80,119.38v134a73.24,73.24,0,0,0,11.16,3.24V117.29a9.21,9.21,0,0,1-1.51-1.73l-4.1-4.25a46.8,46.8,0,0,1,5.61-1.22ZM80,74.66v4.83c-4.46-5.62-8.85-11.16-13.1-16.71l4,2.81,3.89,4C76.46,71.28,78.26,73,80,74.66Zm0,14c-15-16-30.09-31.75-44.93-47.08v3.81L80,96.91V88.7Zm0,16.78L35.06,58.39v4.25l43.56,50c-1.22.5-2.44,1.08-3.67,1.65L35.06,74.52v6.26l32,38.09c-.65.65-.36,1.15.65.79L70.49,123c1.73,2.44-.65,3.74-2.81,1.22L35.06,91.94v7.13l25.28,30c2.23,2.59,1.51,3,.79,3.16-1.15.36-1.73-.36-3.1-1.72l-23-22.68v8.78l17.21,20.52c1.95,2.3.22,4.54-2.16,2.09l-15-15.55v11.59l10.66,12.53c1.58,1.8-1.08,3.88-2.66,2.3l-8-7.85V153h0l5.84,7.06c.79.93-1.23,2.88-2.09,2.08l-3.75-3.74v12.31l1.37,1.66c1.3,1.65.15,3.6-1.37,2.95v13.54l.65.79c.29.72.07,1.94-.65,1.8V202l2.52,2.88c1.44,1.23-.14,3.67-1.8,2l-.72-.8v5.76l10.66,12.89A69,69,0,0,0,80,253.37V119.3l-4.32-4.24c1.23-.58,2.45-1.16,3.67-1.66l.65.79ZM35.06,41.62v3.81L9.94,16.7V16c8.35,8.43,16.7,16.92,25.12,25.64Zm0,16.77L9.94,32v1.87L35.06,62.64V58.39Zm0,16.13v6.26L9.94,50.83V49.54l25.12,25Zm0,17.42L9.94,67.1v2.16L35.06,99.07V91.94Zm0,15.92v8.78L9.94,86.69v-3.6l25.12,24.77Zm0,15.84v11.59L9.94,106.06V97.85L35.06,123.7Zm0,18.57L9.94,117.43v5.33L32.54,150c-.43,1.58-.86,3.16-1.22,4.82l-21.38-21V140l19.65,24c-.29,1.94-.5,3.88-.65,5.83l-19-17.57v6.05l18.72,22.75c.07,1.51.14,2.95.28,4.46l-19-19.8c0,2.74.14,5.33.36,7.92l20.44,23.48c.44,2,1,4.1,1.59,6.12l-21.1-22c.07.72.22,1.37.36,2.09l23.47,28.51v-5.76l-1.22-1.22A63.14,63.14,0,0,1,32,198.5L35.06,202V191.45a1.37,1.37,0,0,1-.93-.51L30,186.62a41.44,41.44,0,0,1-.21-4.17l5.25,6.41V175.32a1.72,1.72,0,0,1-.64-.43l-4-3.75c.22-1.65.51-3.38.87-5.11l3.81,4.68V158.4L33.62,157c.44-1.37.94-2.66,1.44-4Z"/><polygon class="cls-1" points="154.37 164.88 155.3 165.67 155.3 155.74 154.51 156.74 154.37 164.88"/><path class="cls-1" d="M155,212.69c-3-4-6.05-8-9.08-11.95a78.94,78.94,0,0,0,4.68-8.21c3.39,3.6,6.7,7.34,9.94,11l.79-1.22c-3.17-4.18-6.33-8.28-9.43-12.46a55.81,55.81,0,0,0,3.24-9.21c4.9,5.33,6.26,6.33,9.14,9.29l.15-.8c-13.9-18.43-24.34-32.54-36.15-50.54v13.68q13.08,13.4,26.07,27.5a53.53,53.53,0,0,1-3.17,9.08c-8-10.59-15.7-21.17-22.9-31.54v11.16q10.8,11.34,21.53,23.11a57.45,57.45,0,0,1-5,7.71c-5-6.7-10-13.47-14.9-20.16l-.72,6.48c4.75,5.18,9.5,10.29,14.26,15.48-1.08,1.36-2.24,2.66-3.46,4l-.29,4.32c1.8-2.24,3.46-4.54,5-6.84l9.79,10.87.44-.72ZM128.3,136.94V125.71c.94.29,1.8.65,2.74,1l.94,1.44c2.66,1.22,5.54,2.59,8.85,4.39l-.36-1.29a67.7,67.7,0,0,1,13.83,10.87,3.35,3.35,0,0,1,0,2.23c-1.44.29-1.44-2.52-2.09-2.3l-5,.28-9.43-7.48,11.8,16.48a31.86,31.86,0,0,1,.87,8.5c-7.35-7.85-14.76-15.55-22.11-22.9Zm0,96V231.7l1.44,1.94-.72.14-.72-.86Zm0-16.63v-2.74c3.39,4.54,6.77,9.15,10.16,13.68l-.29.22c-3.31-3.75-6.55-7.42-9.87-11.16Zm0-16.27v-5.33c6.48,8.71,13,17.42,19.59,26.06l-.51.43C141.12,214.13,134.71,207.07,128.3,200Zm0-61.42c-1-1.58-2-3.1-3-4.75,1,1,2,2.09,3,3.09V125.71c-1.8-.57-3.74-1.15-5.61-1.58l-.29.72c-1.58-.29-3.17-.65-4.68-.94V127c.79.65,1.51,1.29,2.3,1.94-.79.36-1.51.72-2.3,1.15v27.44c3.46,3.6,7.06,7.2,10.58,10.94V157.32c-3.6-5.26-7.12-10.51-10.36-15.62,3.38,3.45,6.91,7,10.36,10.58V138.6ZM117.72,170v-8.35c2.74,4.1,5.69,8.28,8.71,12.53-3-1.51-6-2.88-8.71-4.18Zm10.58,24.7V200l-.57-.65.5-4.75.07.07Zm0,18.86v2.74c-3.38-3.89-6.76-7.71-10.08-11.59l3.17-.51c2.31,3.1,4.61,6.27,6.91,9.36Zm0,18.15v1.22c-4-4.46-7.34-8.35-10.58-12.17v-3.38C121,222,124.34,226.37,128.3,231.7ZM117.72,123.91c-1.87-.29-3.74-.57-5.62-.79a37.4,37.4,0,0,1,5.62,3.89v-3.1Zm0,6.19v27.44c-2.74-2.81-5.54-5.62-8.28-8.36,2.66,4.11,5.4,8.28,8.28,12.46V170c-1.8-.79-3.6-1.58-5.33-2.37-4.25-4.32-8.42-8.64-12.53-12.89,2.38,3.6,4.83,7.2,7.35,10.73l-1.08-.44-5.33,5.48c-3.89-4.11-7.78-8-11.66-12,3.09,4.61,6.26,9.29,9.57,14l-5,5.11C88,171.29,82.08,165.1,76.18,159.19c4.75,7,9.64,14.11,14.76,21.31l-2.31,2.38q1.62,4.43,3.67,9.07c-8.85-9.93-17.92-19.73-27.14-29.09l52.49,73.23C97.85,213.77,78.48,193,57.82,171.58c-.15-.58-.36-1.23-.51-2V146.16A66.08,66.08,0,0,1,85,126.86l.65-.14-3.24,6.05a107,107,0,0,1,20.88,5.69,110.32,110.32,0,0,1,14.4-8.36Zm0,87.27c-2.52-3.46-5.18-7-8.21-11.16l-3.89.65c4.61,5.18,8.36,9.5,12.1,13.89v-3.38ZM57.31,216,67.9,227.23,66.17,225l-8.86-13v4Zm0-15.05c10.23,10.3,20.38,20.52,30.39,31L57.31,192.67V201Zm0-12.81c16.71,16.7,29.38,30.16,45.87,47.8L58.75,174.6c.43,2.45-.43,3.67.07,5.69-.57.86-1.08,1.65-1.51,2.45Zm0-42a64.45,64.45,0,0,0-10.58,17.5,33.41,33.41,0,0,1,8.78-5.33,69.9,69.9,0,0,0,1.8,11.3V146.16Zm0,36.58v5.4c-.65-.65-1.22-1.3-1.87-1.88a32.8,32.8,0,0,1,1.87-3.52Zm0,9.93V201c-1.73-1.8-3.45-3.53-5.18-5.25.79-2.31,1.73-4.25,2.59-6.41l2.59,3.38Zm0,19.37-14.76-21.6-1.87-.86.29,9.07L57.31,216Z"/><polygon class="cls-4" points="32.11 78.48 34.27 78.48 34.27 96.41 31.18 96.41 31.18 81.65 28.01 82.51 27.29 79.99 32.11 78.48"/><path class="cls-4" d="M45.07,87.55h0a3.29,3.29,0,1,0,0-6.55V78.26a6.59,6.59,0,0,1,4.83,1.88c1.29,1.36,2.16,3.31,2.16,6.84,0,5.54-2.6,9.36-7,9.72V93.82c2.23-.29,3.6-2.52,3.67-5.55a5,5,0,0,1-3.67,1.87ZM45,81a3.3,3.3,0,0,0-3.6,3.31c0,1.87,1.44,3.24,3.67,3.24v2.59h-.43c-3.82,0-6.34-2.23-6.34-5.68s2.74-6.2,6.63-6.2h.14V81Zm.07,12.82V96.7h-.65a8.58,8.58,0,0,1-5.68-2.09l1.65-2.45a6.12,6.12,0,0,0,4.11,1.73A1.6,1.6,0,0,0,45.07,93.82Z"/><path class="cls-4" d="M55,81.29V78.62H66.82v2.31l-5,5.11c2.73.36,5.25,1.73,5.25,5s-2.59,5.62-6.26,5.62a8.33,8.33,0,0,1-6.77-3.1l2.16-2a6,6,0,0,0,4.68,2.31,2.77,2.77,0,0,0,3-2.74c0-1.73-1.52-2.73-4-2.73H58.46l-.5-2,4.75-5.11Z"/><path class="cls-4" d="M77.83,93.89h0c2.74,0,4.47-2.81,4.47-6.34s-1.73-6.41-4.47-6.41V78.26h0c4.68,0,7.71,4.11,7.71,9.22s-3.1,9.22-7.71,9.22Zm-.07-12.75c-2.74,0-4.46,2.74-4.46,6.34s1.72,6.41,4.53,6.41V96.7h-.07c-4.68,0-7.7-4-7.7-9.15s3.09-9.21,7.77-9.29v2.88Z"/><path class="cls-4" d="M82.15,71.35a27.54,27.54,0,0,1-18.21-6.84l5.54-6.62c3.89,3.17,7.92,5.18,12.82,5.18,3.88,0,6.26-1.58,6.26-4V58.9c0-2.38-1.51-3.6-8.71-5.4-8.64-2.24-14.19-4.61-14.19-13.11v-.07c0-7.78,6.27-12.89,15-12.89a25.09,25.09,0,0,1,16,5.4l-4.89,7.06c-3.82-2.59-7.56-4.18-11.16-4.18S75,37.37,75,39.46v.07c0,2.81,1.88,3.74,9.29,5.61C93,47.45,97.92,50.54,97.92,58v.14C97.92,66.6,91.44,71.35,82.15,71.35Z"/><polygon class="cls-4" points="131.4 70.7 131.4 53.57 114.05 53.57 114.05 70.7 104.62 70.7 104.62 28.01 114.05 28.01 114.05 44.93 131.4 44.93 131.4 28.01 140.9 28.01 140.9 70.7 131.4 70.7"/><polygon class="cls-4" points="57.89 45.65 37.58 45.65 37.58 36.58 58.9 36.58 59.83 28.01 28.15 28.01 28.15 70.7 37.58 70.7 37.58 54.22 56.95 54.22 57.89 45.65"/><polygon class="cls-4" points="179.42 45.65 159.12 45.65 159.12 36.58 180.43 36.58 181.37 28.01 149.62 28.01 149.62 70.7 159.12 70.7 159.12 54.22 178.49 54.22 179.42 45.65"/></g></g></svg>