<svg xmlns="http://www.w3.org/2000/svg" xmlns:xlink="http://www.w3.org/1999/xlink" width="1080" zoomAndPan="magnify" viewBox="0 0 810 809.999993" height="1080" preserveAspectRatio="xMidYMid meet" version="1.0"><defs><clipPath id="6d1a0997c0"><path d="M 110.070312 0 L 699.570312 0 L 699.570312 810 L 110.070312 810 Z M 110.070312 0 " clip-rule="nonzero"/></clipPath></defs><g clip-path="url(#6d1a0997c0)"><path fill="#ffffff" d="M 110.140625 0 L 110.140625 467.585938 L 110.535156 483.449219 L 111.777344 499.085938 L 113.804688 514.523438 L 116.628906 529.765625 L 120.292969 544.414062 L 124.554688 558.835938 L 129.433594 572.863281 L 135.132812 586.464844 L 141.421875 599.675781 L 148.332031 612.488281 L 155.636719 624.878906 L 163.5625 637.070312 L 172.082031 648.644531 L 181.023438 660.046875 L 190.359375 670.996094 L 200.316406 681.582031 L 210.472656 691.742188 L 221.023438 701.703125 L 231.996094 711.046875 L 243.363281 720.191406 L 254.730469 729.136719 L 266.519531 737.464844 L 278.707031 745.789062 L 290.890625 753.523438 L 303.472656 761.03125 L 316.078125 768.339844 L 328.859375 775.257812 L 341.859375 781.972656 L 354.863281 788.265625 L 368.066406 794.363281 L 381.070312 800.035156 L 404.820312 810 L 428.597656 800.035156 L 441.800781 794.363281 L 454.773438 788.265625 L 467.777344 781.972656 L 480.78125 775.257812 L 493.585938 768.339844 L 506.167969 761.03125 L 518.75 753.523438 L 530.933594 745.789062 L 542.921875 737.464844 L 554.910156 729.136719 L 566.277344 720.191406 L 577.644531 711.046875 L 588.617188 701.703125 L 599.195312 691.742188 L 609.351562 681.582031 L 619.082031 670.996094 L 628.644531 660.046875 L 637.558594 648.644531 L 646.105469 637.070312 L 654.03125 624.878906 L 661.335938 612.488281 L 668.246094 599.675781 L 674.535156 586.464844 L 680.207031 572.863281 L 685.085938 558.835938 L 689.34375 544.414062 L 693.011719 529.765625 L 695.664062 514.523438 L 697.695312 499.085938 L 699.105469 483.449219 L 699.5 467.585938 L 699.5 0 Z M 110.140625 0 " fill-opacity="1" fill-rule="evenodd"/></g><path fill="#e11e26" d="M 138.175781 28.054688 L 138.175781 467.191406 C 138.175781 625.5 268.550781 724.453125 404.820312 779.714844 C 541.089844 724.453125 671.460938 625.5 671.460938 467.191406 L 671.460938 28.054688 Z M 138.175781 28.054688 " fill-opacity="1" fill-rule="evenodd"/><path fill="#161516" d="M 591.464844 589.882812 L 591.464844 476.535156 C 594.226562 485.730469 596.300781 495.078125 597.695312 504.582031 C 599.089844 514.082031 599.789062 523.632812 599.789062 533.234375 C 599.789062 542.839844 599.089844 552.390625 597.695312 561.890625 C 596.300781 571.390625 594.226562 580.742188 591.464844 589.9375 Z M 591.464844 391.324219 L 591.464844 382.433594 C 598.96875 391.382812 606.5 400.527344 613.804688 409.867188 C 606.304688 403.773438 598.96875 397.476562 591.464844 391.382812 Z M 591.464844 354.632812 C 612.988281 373.121094 635.328125 391.636719 657.667969 410.519531 C 635.75 383.902344 613.609375 357.289062 591.464844 331.492188 L 591.464844 354.664062 Z M 591.464844 313.398438 C 618.066406 337.558594 643.648438 360.335938 671.488281 382.886719 L 671.488281 381.671875 C 648.925781 353.027344 624.976562 324.351562 600.605469 295.703125 L 591.464844 293.671875 Z M 566.277344 286.164062 L 583.964844 290.03125 L 578.378906 271.289062 C 564.980469 259.097656 551.582031 247.296875 538.378906 235.527344 L 538.378906 253.199219 C 547.519531 264.175781 556.855469 275.351562 566.191406 286.332031 Z M 591.464844 293.671875 L 591.464844 313.425781 L 588.644531 310.773438 L 583.171875 291.863281 L 591.496094 293.699219 Z M 591.464844 331.460938 L 591.464844 354.632812 C 573.1875 339 555.304688 323.332031 538.464844 308.09375 L 538.464844 274.730469 C 542.921875 278.597656 547.40625 282.269531 551.863281 286.332031 C 564.867188 300.953125 578.265625 316.191406 591.351562 331.492188 Z M 591.464844 382.265625 C 574.203125 361.550781 556.121094 341.625 538.464844 321.921875 L 538.464844 345.6875 C 554.710938 360.53125 572.992188 375.773438 591.464844 391.210938 Z M 591.464844 476.363281 L 591.464844 589.882812 C 589 597.996094 586.015625 605.914062 582.515625 613.636719 C 579.015625 621.363281 575.027344 628.828125 570.554688 636.03125 C 566.082031 643.234375 561.160156 650.117188 555.789062 656.679688 C 550.417969 663.238281 544.640625 669.421875 538.464844 675.230469 L 538.464844 391.382812 C 544.632812 397.179688 550.398438 403.351562 555.761719 409.898438 C 561.125 416.445312 566.042969 423.3125 570.519531 430.496094 C 574.992188 437.683594 578.980469 445.128906 582.488281 452.835938 C 585.992188 460.539062 588.984375 468.441406 591.464844 476.535156 Z M 538.464844 235.527344 C 523.628906 222.519531 508.59375 209.703125 492.96875 197.117188 C 507.578125 215.800781 522.808594 234.511719 538.464844 253.199219 Z M 538.464844 274.730469 L 538.464844 308.261719 L 535.222656 305.441406 C 520.1875 288.757812 505.351562 272.304688 491.132812 256.046875 L 491.132812 234.089844 C 506.789062 247.523438 522.613281 260.929688 538.464844 274.730469 Z M 538.464844 322.09375 C 535.417969 318.847656 532.570312 315.375 529.523438 312.128906 C 520.382812 304.199219 507.183594 293.019531 491.132812 279.8125 L 491.132812 296.351562 C 501.089844 308.320312 510.425781 318.929688 516.941406 325.394531 C 523.457031 331.859375 530.738281 339.027344 538.464844 345.914062 Z M 538.464844 391.382812 L 538.464844 675.285156 C 524.289062 688.507812 508.511719 699.410156 491.132812 708 L 491.132812 358.671875 C 508.523438 367.238281 524.300781 378.140625 538.464844 391.382812 Z M 491.132812 335.101562 L 491.132812 317.011719 C 500.894531 323.304688 510.625 330.21875 519.988281 337.53125 L 526.082031 355.820312 L 506.335938 351.953125 C 501.089844 345.855469 496.011719 340.382812 491.132812 335.101562 Z M 491.132812 234.089844 L 491.132812 256.046875 C 467.589844 229.234375 445.183594 203.023438 423.914062 177.414062 L 423.914062 176.992188 C 446.058594 195.902344 468.597656 214.785156 491.132812 234.089844 Z M 491.132812 279.8125 C 479.851562 270.46875 467.382812 260.308594 453.757812 249.554688 C 464.335938 263.160156 478.355469 280.828125 491.132812 296.296875 Z M 491.132812 317.011719 L 491.132812 335.101562 C 478.75 321.273438 467.976562 308.882812 456.214844 294.855469 C 467.1875 301.769531 479.144531 308.96875 491.132812 317.011719 Z M 491.132812 358.671875 C 483.945312 355.097656 476.566406 351.984375 468.992188 349.328125 C 456.609375 335.921875 444.421875 322.488281 432.039062 309.277344 L 443.324219 305.441406 C 437.679688 304.621094 432.039062 303.804688 426.398438 303.40625 L 423.746094 300.753906 L 423.746094 328.386719 C 425.15625 330.417969 424.960938 331.433594 423.746094 332.253906 L 423.746094 727.105469 C 435.433594 725.976562 446.925781 723.804688 458.21875 720.59375 C 469.515625 717.386719 480.429688 713.1875 490.964844 708 Z M 423.914062 176.992188 L 423.914062 177.414062 L 422.902344 176.398438 Z M 423.914062 300.753906 L 423.914062 328.386719 L 422.902344 327.371094 C 417.625 321.472656 412.546875 315.601562 407.472656 309.703125 L 407.472656 283.285156 C 412.941406 288.929688 418.445312 294.855469 423.914062 300.753906 Z M 423.914062 332.253906 C 422.511719 332.960938 421.027344 333.367188 419.460938 333.464844 C 416.1875 333.890625 412.546875 333.664062 410.714844 330.417969 L 407.472656 326.777344 L 407.472656 727.894531 C 412.96875 727.929688 418.449219 727.664062 423.914062 727.105469 Z M 407.472656 283.285156 L 407.472656 309.703125 L 405.636719 307.667969 C 400.363281 307.667969 395.089844 307.667969 390.011719 308.066406 L 407.472656 326.777344 L 407.472656 727.894531 L 405.441406 727.894531 C 392.589844 727.917969 379.859375 726.703125 367.246094 724.253906 L 367.246094 331.039062 C 369.898438 333.070312 372.890625 333.664062 379.234375 333.070312 C 384.117188 332.875 384.707031 328.808594 377.824219 321.78125 L 368.066406 310.492188 L 367.246094 310.691406 L 367.246094 283.652344 C 373.339844 290.367188 379.628906 297.058594 385.949219 303.773438 C 391.027344 303.152344 396.105469 302.757812 401.179688 302.5625 C 389.585938 289.15625 378.21875 275.945312 367.332031 262.738281 L 367.332031 242.019531 C 380.644531 255.652344 394.074219 269.257812 407.472656 283.285156 Z M 367.246094 242.019531 L 367.246094 262.765625 C 356.5 249.753906 345.921875 237.082031 335.796875 224.351562 L 335.796875 210.71875 C 346.375 221.105469 356.726562 231.464844 367.277344 242.019531 Z M 367.246094 283.679688 C 356.699219 272.390625 346.347656 261.324219 335.769531 250.347656 L 335.769531 273.519531 L 365.019531 307.046875 C 359.523438 308.253906 354.109375 309.75 348.773438 311.535156 L 335.796875 297.707031 L 335.796875 322.289062 L 347.078125 335.300781 C 349.335938 337.726562 346.683594 339.5625 343.636719 339.984375 C 342.183594 340.003906 340.777344 339.746094 339.421875 339.21875 C 338.066406 338.695312 336.859375 337.933594 335.796875 336.9375 L 335.796875 715.140625 C 346.046875 719.023438 356.539062 722.070312 367.277344 724.285156 L 367.277344 331.039062 C 365.652344 329.589844 364.230469 327.960938 363.015625 326.15625 L 351.453125 314.160156 C 356.65625 312.6875 361.929688 311.542969 367.277344 310.71875 Z M 335.796875 210.71875 L 335.796875 224.351562 C 323.214844 208.492188 310.832031 192.855469 298.84375 177.191406 L 310.128906 185.121094 L 321.101562 196.410156 C 325.8125 201.179688 330.890625 206.035156 335.796875 210.71875 Z M 335.796875 250.234375 C 293.484375 205.074219 250.921875 160.621094 209.0625 117.355469 L 209.0625 128.109375 L 335.796875 273.519531 Z M 335.796875 297.59375 L 209.035156 164.800781 L 209.035156 176.796875 L 331.902344 317.914062 C 328.460938 319.324219 325.023438 320.964844 321.550781 322.570312 L 209.035156 210.324219 L 209.035156 227.992188 L 299.296875 335.5 C 297.464844 337.332031 298.28125 338.746094 301.128906 337.726562 L 308.972656 347.15625 C 313.851562 354.042969 307.136719 357.710938 301.046875 350.597656 L 209.035156 259.492188 L 209.035156 279.613281 L 280.339844 364.285156 C 286.632812 371.597656 284.601562 372.753906 282.570312 373.207031 C 279.324219 374.222656 277.691406 372.191406 273.824219 368.351562 L 208.949219 304.339844 L 208.949219 329.121094 L 257.492188 387.035156 C 262.992188 393.527344 258.113281 399.847656 251.402344 392.933594 L 209.089844 349.046875 L 209.089844 381.757812 L 239.160156 417.121094 C 243.617188 422.203125 236.113281 428.074219 231.65625 423.613281 L 209.089844 401.457031 L 209.089844 431.828125 L 225.5625 451.753906 C 227.792969 454.378906 222.09375 459.882812 219.667969 457.625 L 209.089844 447.066406 L 209.089844 481.8125 L 212.953125 486.496094 C 216.621094 491.152344 213.378906 496.65625 209.089844 494.824219 L 209.089844 533.039062 L 210.921875 535.269531 C 211.742188 537.300781 211.121094 540.742188 209.089844 540.347656 L 209.089844 570.125 L 216.199219 578.253906 C 220.261719 581.722656 215.804688 588.609375 211.121094 583.898438 L 209.089844 581.640625 L 209.089844 597.898438 L 239.160156 634.277344 C 241.929688 638.851562 244.886719 643.304688 248.027344 647.636719 C 251.164062 651.96875 254.476562 656.164062 257.960938 660.222656 C 261.445312 664.28125 265.089844 668.191406 268.898438 671.949219 C 272.703125 675.707031 276.660156 679.300781 280.761719 682.734375 C 284.863281 686.164062 289.101562 689.421875 293.472656 692.503906 C 297.84375 695.585938 302.332031 698.484375 306.945312 701.195312 C 311.554688 703.90625 316.265625 706.425781 321.082031 708.746094 C 325.902344 711.070312 330.804688 713.191406 335.796875 715.109375 L 335.796875 336.710938 L 323.609375 324.746094 C 327.082031 323.109375 330.523438 321.472656 333.964844 320.058594 L 335.796875 322.289062 Z M 209.035156 117.46875 L 209.035156 128.222656 L 138.175781 47.132812 L 138.175781 45.160156 C 161.730469 68.953125 185.285156 92.914062 209.035156 117.523438 Z M 209.035156 164.800781 L 138.175781 90.316406 L 138.175781 95.59375 L 209.035156 176.796875 Z M 209.035156 210.324219 L 209.035156 227.992188 L 138.175781 143.460938 L 138.175781 139.820312 L 209.035156 210.382812 Z M 209.035156 259.492188 L 138.175781 189.382812 L 138.175781 195.480469 L 209.035156 279.613281 Z M 209.035156 304.425781 L 209.035156 329.203125 L 138.175781 244.671875 L 138.175781 234.511719 Z M 209.035156 349.128906 L 209.035156 381.84375 L 138.175781 299.34375 L 138.175781 276.171875 Z M 209.035156 401.542969 L 138.175781 331.433594 L 138.175781 346.476562 L 201.925781 423.359375 C 200.710938 427.820312 199.5 432.277344 198.484375 436.964844 L 138.175781 377.691406 L 138.175781 395.136719 L 193.605469 462.875 C 192.785156 468.347656 192.195312 473.824219 191.769531 479.328125 L 138.175781 429.738281 L 138.175781 446.8125 L 190.980469 511.023438 C 191.179688 515.285156 191.375 519.347656 191.769531 523.609375 L 138.175781 467.726562 C 138.175781 475.460938 138.574219 482.769531 139.191406 490.082031 L 196.847656 556.351562 C 198.089844 561.996094 199.667969 567.921875 201.332031 573.625 L 141.816406 511.53125 C 142.011719 513.5625 142.4375 515.398438 142.832031 517.429688 L 209.035156 597.898438 L 209.035156 581.640625 L 205.59375 578.195312 C 203.546875 572.304688 201.820312 566.320312 200.402344 560.246094 L 209.035156 570.125 L 209.035156 540.347656 C 207.957031 540.234375 207.082031 539.753906 206.410156 538.910156 L 194.761719 526.714844 C 194.367188 522.808594 194.167969 518.886719 194.167969 514.945312 L 208.976562 533.039062 L 208.976562 494.824219 C 208.28125 494.558594 207.679688 494.152344 207.171875 493.609375 L 195.890625 483.023438 C 196.511719 478.367188 197.328125 473.484375 198.34375 468.601562 L 209.089844 481.8125 L 209.089844 447.066406 L 204.972656 443.117188 C 206.214844 439.25 207.625 435.609375 209.035156 431.828125 Z M 209.035156 401.542969 " fill-opacity="1" fill-rule="evenodd"/><path fill="#ffffff" d="M 545.574219 465.355469 L 548.195312 467.585938 L 548.195312 439.558594 L 545.96875 442.382812 Z M 545.574219 465.355469 " fill-opacity="1" fill-rule="evenodd"/><path fill="#ffffff" d="M 547.351562 600.296875 C 538.886719 589.007812 530.285156 577.714844 521.738281 566.566406 C 526.601562 559.109375 531 551.382812 534.9375 543.394531 C 544.5 553.558594 553.839844 564.113281 562.976562 574.441406 L 565.207031 571 C 556.265625 559.203125 547.351562 547.628906 538.605469 535.832031 C 542.414062 527.433594 545.460938 518.769531 547.746094 509.839844 C 561.566406 524.882812 565.402344 527.703125 573.527344 536.058594 L 573.949219 533.800781 C 534.742188 481.785156 505.292969 441.960938 471.980469 391.15625 L 471.980469 429.765625 C 496.578125 454.980469 521.089844 480.851562 545.515625 507.382812 C 543.304688 516.195312 540.324219 524.734375 536.574219 533.007812 C 514.007812 503.121094 492.289062 473.257812 471.980469 443.992188 L 471.980469 475.488281 C 492.289062 496.828125 512.535156 518.570312 532.710938 540.714844 C 528.589844 548.347656 523.890625 555.597656 518.605469 562.476562 C 504.503906 543.566406 490.398438 524.457031 476.578125 505.574219 L 474.546875 523.863281 C 487.945312 538.484375 501.34375 552.90625 514.769531 567.554688 C 511.726562 571.394531 508.453125 575.0625 505.011719 578.84375 L 504.195312 591.039062 C 509.269531 584.714844 513.953125 578.226562 518.296875 571.734375 L 545.910156 602.414062 L 547.152344 600.378906 Z M 472.039062 386.5 L 472.039062 354.804688 C 474.6875 355.621094 477.113281 356.636719 479.765625 357.625 L 482.417969 361.691406 C 489.921875 365.132812 498.042969 369 507.382812 374.082031 L 506.367188 370.441406 C 520.707031 378.960938 533.710938 389.1875 545.375 401.121094 C 545.734375 402.136719 545.914062 403.1875 545.914062 404.265625 C 545.914062 405.347656 545.734375 406.394531 545.375 407.414062 C 541.3125 408.230469 541.3125 400.300781 539.480469 400.921875 L 525.378906 401.710938 L 498.777344 380.601562 L 532.0625 427.113281 C 533.960938 435 534.78125 442.996094 534.515625 451.105469 C 513.785156 428.949219 492.882812 407.214844 472.148438 386.472656 Z M 472.039062 657.449219 L 472.039062 653.949219 L 476.097656 659.425781 L 474.066406 659.820312 L 472.039062 657.394531 Z M 472.039062 610.511719 L 472.039062 602.78125 C 481.597656 615.59375 491.132812 628.605469 500.695312 641.390625 L 499.878906 642.011719 C 490.542969 631.425781 481.402344 621.070312 472.039062 610.511719 Z M 472.039062 564.59375 L 472.039062 549.550781 C 490.316406 574.132812 508.707031 598.714844 527.296875 623.101562 L 525.855469 624.3125 C 508.199219 604.359375 490.117188 584.433594 472.039062 564.480469 Z M 472.039062 391.242188 C 469.214844 386.78125 466.394531 382.492188 463.574219 377.835938 C 466.394531 380.65625 469.214844 383.734375 472.039062 386.554688 L 472.039062 354.804688 C 466.960938 353.195312 461.488281 351.558594 456.214844 350.34375 L 455.394531 352.375 C 450.9375 351.558594 446.453125 350.542969 442.195312 349.722656 L 442.195312 358.445312 C 444.421875 360.277344 446.453125 362.085938 448.683594 363.921875 C 446.453125 364.9375 444.421875 365.953125 442.195312 367.164062 L 442.195312 444.613281 C 451.953125 454.773438 462.109375 464.933594 472.039062 475.488281 L 472.039062 444.019531 C 461.882812 429.175781 451.953125 414.355469 442.816406 399.933594 C 452.347656 409.671875 462.304688 419.691406 472.039062 429.792969 L 472.039062 391.183594 Z M 442.195312 479.808594 L 442.195312 456.242188 C 449.921875 467.8125 458.242188 479.609375 466.761719 491.605469 C 458.300781 487.34375 449.839844 483.476562 442.195312 479.808594 Z M 472.039062 549.519531 L 472.039062 564.480469 L 470.429688 562.644531 L 471.839844 549.238281 L 472.039062 549.4375 Z M 472.039062 602.75 L 472.039062 610.484375 C 462.503906 599.503906 452.96875 588.722656 443.605469 577.773438 L 452.546875 576.332031 C 459.0625 585.082031 465.550781 594.03125 472.039062 602.75 Z M 472.039062 653.976562 L 472.039062 657.421875 C 460.753906 644.832031 451.332031 633.855469 442.195312 623.074219 L 442.195312 613.53125 C 451.445312 626.574219 460.867188 638.90625 472.039062 653.949219 Z M 442.195312 349.722656 C 436.917969 348.90625 431.644531 348.113281 426.339844 347.492188 C 431.960938 350.667969 437.246094 354.328125 442.195312 358.472656 Z M 442.195312 367.195312 L 442.195312 444.640625 C 434.464844 436.710938 426.566406 428.777344 418.839844 421.046875 C 426.339844 432.644531 434.070312 444.414062 442.195312 456.210938 L 442.195312 479.808594 C 437.117188 477.578125 432.039062 475.347656 427.160156 473.117188 C 415.171875 460.925781 403.410156 448.734375 391.816406 436.738281 C 398.53125 446.898438 405.441406 457.058594 412.546875 467.023438 L 409.503906 465.78125 L 394.46875 481.246094 C 383.496094 469.648438 372.523438 458.667969 361.578125 447.378906 C 370.292969 460.390625 379.234375 473.597656 388.574219 486.890625 L 374.46875 501.3125 C 358.363281 483.449219 341.664062 465.976562 325.023438 449.296875 C 338.421875 469.054688 352.214844 489.121094 366.65625 509.441406 L 360.140625 516.160156 C 363.1875 524.496094 366.636719 533.027344 370.492188 541.757812 C 345.527344 513.734375 319.945312 486.074219 293.9375 459.65625 L 441.996094 666.339844 C 386.148438 603.34375 331.507812 544.722656 273.234375 484.265625 C 272.808594 482.628906 272.21875 480.796875 271.792969 478.621094 L 271.792969 412.523438 C 276.992188 406.394531 282.566406 400.625 288.511719 395.21875 C 294.453125 389.808594 300.722656 384.808594 307.3125 380.210938 C 313.902344 375.613281 320.761719 371.460938 327.890625 367.753906 C 335.019531 364.042969 342.355469 360.808594 349.898438 358.050781 L 351.734375 357.652344 L 342.59375 374.730469 C 362.769531 378.085938 382.402344 383.4375 401.492188 390.789062 C 414.4375 381.898438 427.976562 374.035156 442.109375 367.195312 Z M 442.195312 613.503906 C 435.085938 603.738281 427.582031 593.746094 419.035156 582.007812 L 408.0625 583.839844 C 421.066406 598.460938 431.644531 610.652344 442.195312 623.042969 Z M 271.792969 609.636719 L 301.667969 641.332031 L 296.785156 635.039062 L 271.792969 598.347656 Z M 271.792969 567.160156 C 300.652344 596.230469 329.28125 625.078125 357.515625 654.65625 L 271.792969 543.792969 L 271.792969 567.300781 Z M 271.792969 531.007812 C 318.929688 578.140625 354.667969 616.128906 401.179688 665.917969 L 275.855469 492.789062 C 277.070312 499.707031 274.644531 503.148438 276.054688 508.851562 C 274.445312 511.277344 273.007812 513.507812 271.792969 515.765625 Z M 271.792969 412.464844 C 259.203125 427.328125 249.253906 443.792969 241.953125 461.855469 C 249.425781 455.558594 257.683594 450.542969 266.71875 446.8125 C 267.539062 457.582031 269.230469 468.214844 271.792969 478.707031 Z M 271.792969 515.707031 L 271.792969 530.949219 C 269.960938 529.113281 268.351562 527.28125 266.519531 525.644531 C 268.078125 522.226562 269.835938 518.914062 271.792969 515.707031 Z M 271.792969 543.734375 L 271.792969 567.300781 C 266.914062 562.222656 262.0625 557.339844 257.183594 552.484375 C 259.410156 545.964844 262.0625 540.488281 264.488281 534.394531 L 271.792969 543.933594 Z M 271.792969 598.40625 L 230.160156 537.441406 L 224.886719 535.015625 L 225.703125 560.613281 L 271.792969 609.636719 Z M 271.792969 598.40625 " fill-opacity="1" fill-rule="evenodd"/><path fill="#ffffff" d="M 200.710938 221.5 L 206.804688 221.5 L 206.804688 272.105469 L 198.089844 272.105469 L 198.089844 230.449219 L 189.148438 232.875 L 187.117188 225.761719 Z M 200.710938 221.5 " fill-opacity="1" fill-rule="nonzero"/><path fill="#ffffff" d="M 237.269531 247.101562 C 237.914062 247.164062 238.554688 247.15625 239.199219 247.085938 C 239.839844 247.011719 240.46875 246.871094 241.082031 246.667969 C 241.695312 246.464844 242.28125 246.199219 242.839844 245.871094 C 243.398438 245.546875 243.917969 245.164062 244.394531 244.730469 C 244.875 244.292969 245.300781 243.8125 245.679688 243.289062 C 246.058594 242.765625 246.378906 242.207031 246.640625 241.613281 C 246.902344 241.023438 247.101562 240.410156 247.234375 239.777344 C 247.367188 239.144531 247.433594 238.503906 247.433594 237.859375 C 247.433594 237.210938 247.367188 236.570312 247.234375 235.9375 C 247.101562 235.304688 246.902344 234.691406 246.640625 234.101562 C 246.378906 233.507812 246.058594 232.949219 245.679688 232.425781 C 245.300781 231.902344 244.875 231.421875 244.394531 230.984375 C 243.917969 230.550781 243.398438 230.167969 242.839844 229.84375 C 242.28125 229.515625 241.695312 229.25 241.082031 229.046875 C 240.46875 228.84375 239.839844 228.703125 239.199219 228.632812 C 238.554688 228.558594 237.914062 228.550781 237.269531 228.613281 L 237.269531 220.882812 C 238.523438 220.839844 239.773438 220.925781 241.011719 221.136719 C 242.25 221.347656 243.453125 221.679688 244.625 222.136719 C 245.796875 222.59375 246.910156 223.164062 247.964844 223.84375 C 249.019531 224.527344 249.996094 225.308594 250.894531 226.1875 C 254.53125 230.027344 256.984375 235.527344 256.984375 245.492188 C 256.984375 261.128906 249.652344 271.910156 237.242188 272.925781 L 237.242188 264.796875 C 243.53125 263.980469 247.394531 257.683594 247.59375 249.132812 C 246.96875 249.914062 246.265625 250.625 245.488281 251.257812 C 244.710938 251.890625 243.878906 252.433594 242.984375 252.886719 C 242.09375 253.34375 241.164062 253.699219 240.195312 253.957031 C 239.226562 254.210938 238.242188 254.363281 237.242188 254.410156 Z M 237.070312 228.613281 C 236.425781 228.554688 235.777344 228.5625 235.132812 228.640625 C 234.488281 228.714844 233.859375 228.859375 233.242188 229.066406 C 232.628906 229.273438 232.039062 229.546875 231.480469 229.875 C 230.921875 230.207031 230.402344 230.59375 229.925781 231.035156 C 229.445312 231.472656 229.019531 231.957031 228.640625 232.488281 C 228.265625 233.015625 227.949219 233.578125 227.6875 234.175781 C 227.429688 234.773438 227.234375 235.390625 227.105469 236.027344 C 226.976562 236.664062 226.914062 237.304688 226.917969 237.957031 C 226.917969 243.234375 230.980469 247.101562 237.269531 247.101562 L 237.269531 254.410156 L 236.054688 254.410156 C 225.28125 254.410156 218.171875 248.117188 218.171875 238.378906 C 218.171875 228.640625 225.902344 220.882812 236.875 220.882812 L 237.269531 220.882812 L 237.269531 228.613281 Z M 237.269531 264.796875 L 237.269531 272.925781 L 235.4375 272.925781 C 232.496094 272.949219 229.648438 272.453125 226.886719 271.4375 C 224.128906 270.421875 221.636719 268.953125 219.414062 267.027344 L 224.066406 260.113281 C 225.625 261.625 227.402344 262.804688 229.40625 263.648438 C 231.40625 264.492188 233.492188 264.941406 235.660156 264.996094 C 236.210938 265.027344 236.746094 264.960938 237.269531 264.796875 Z M 237.269531 264.796875 " fill-opacity="1" fill-rule="nonzero"/><path fill="#ffffff" d="M 265.277344 229.433594 L 265.277344 221.898438 L 298.621094 221.898438 L 298.621094 228.417969 L 284.515625 242.839844 C 292.214844 243.855469 299.324219 247.722656 299.324219 256.949219 C 299.324219 266.179688 292.019531 272.8125 281.667969 272.8125 C 279.84375 272.875 278.042969 272.726562 276.253906 272.367188 C 274.46875 272.011719 272.746094 271.453125 271.085938 270.691406 C 269.429688 269.933594 267.882812 268.992188 266.445312 267.875 C 265.003906 266.753906 263.714844 265.484375 262.570312 264.0625 L 268.664062 258.417969 C 269.449219 259.425781 270.332031 260.328125 271.320312 261.136719 C 272.308594 261.941406 273.375 262.625 274.519531 263.191406 C 275.660156 263.753906 276.851562 264.183594 278.09375 264.480469 C 279.332031 264.773438 280.589844 264.925781 281.863281 264.9375 C 282.402344 264.984375 282.9375 264.972656 283.46875 264.90625 C 284.003906 264.839844 284.523438 264.722656 285.035156 264.546875 C 285.542969 264.375 286.03125 264.148438 286.492188 263.875 C 286.957031 263.601562 287.386719 263.28125 287.78125 262.921875 C 288.179688 262.558594 288.535156 262.15625 288.851562 261.722656 C 289.164062 261.285156 289.433594 260.820312 289.652344 260.328125 C 289.871094 259.835938 290.035156 259.328125 290.148438 258.800781 C 290.265625 258.277344 290.324219 257.742188 290.328125 257.207031 C 290.328125 252.324219 286.039062 249.5 279.042969 249.5 L 275.039062 249.5 L 273.628906 243.855469 L 287.027344 229.433594 Z M 265.277344 229.433594 " fill-opacity="1" fill-rule="nonzero"/><path fill="#ffffff" d="M 329.675781 264.996094 C 337.40625 264.996094 342.285156 257.0625 342.285156 247.101562 C 342.285156 237.136719 337.40625 229.007812 329.675781 229.007812 L 329.675781 220.882812 C 342.875 220.882812 351.421875 232.480469 351.421875 246.902344 C 351.421875 261.324219 342.679688 272.925781 329.675781 272.925781 Z M 329.476562 229.007812 C 321.75 229.007812 316.898438 236.742188 316.898438 246.902344 C 316.898438 257.0625 321.75 264.996094 329.675781 264.996094 L 329.675781 272.925781 L 329.476562 272.925781 C 316.277344 272.925781 307.757812 261.636719 307.757812 247.101562 C 307.757812 232.566406 316.476562 221.105469 329.675781 220.882812 L 329.675781 229.007812 Z M 329.476562 229.007812 " fill-opacity="1" fill-rule="nonzero"/><path fill="#ffffff" d="M 341.859375 201.378906 C 337.175781 201.386719 332.527344 200.972656 327.914062 200.136719 C 323.304688 199.304688 318.804688 198.0625 314.417969 196.414062 C 310.03125 194.765625 305.828125 192.738281 301.808594 190.328125 C 297.789062 187.917969 294.019531 185.164062 290.496094 182.074219 L 306.121094 163.386719 C 317.09375 172.335938 328.460938 178.007812 342.285156 178.007812 C 353.230469 178.007812 359.941406 173.550781 359.941406 166.71875 L 359.941406 166.238281 C 359.941406 159.523438 355.683594 156.078125 335.375 151 C 311.003906 144.675781 295.347656 137.988281 295.347656 113.996094 L 295.347656 113.800781 C 295.347656 91.839844 313.035156 77.417969 337.660156 77.417969 C 341.714844 77.347656 345.75 77.621094 349.761719 78.242188 C 353.769531 78.867188 357.699219 79.828125 361.542969 81.125 C 365.390625 82.425781 369.09375 84.042969 372.664062 85.976562 C 376.230469 87.914062 379.605469 90.140625 382.789062 92.660156 L 368.996094 112.585938 C 358.222656 105.277344 347.671875 100.789062 337.515625 100.789062 C 327.363281 100.789062 321.691406 105.472656 321.691406 111.371094 L 321.691406 111.570312 C 321.691406 119.5 326.996094 122.125 347.898438 127.402344 C 372.464844 133.921875 386.34375 142.644531 386.34375 163.699219 L 386.34375 164.09375 C 386.34375 187.972656 368.066406 201.378906 341.859375 201.378906 Z M 341.859375 201.378906 " fill-opacity="1" fill-rule="nonzero"/><path fill="#ffffff" d="M 480.78125 199.542969 L 480.78125 151.195312 L 431.84375 151.195312 L 431.84375 199.542969 L 405.242188 199.542969 L 405.242188 79.054688 L 431.84375 79.054688 L 431.84375 126.808594 L 480.78125 126.808594 L 480.78125 79.054688 L 507.578125 79.054688 L 507.578125 199.542969 Z M 480.78125 199.542969 " fill-opacity="1" fill-rule="nonzero"/><path fill="#ffffff" d="M 273.429688 128.84375 L 216.140625 128.84375 L 216.140625 103.242188 L 276.28125 103.242188 L 278.902344 79.054688 L 189.542969 79.054688 L 189.542969 199.542969 L 216.140625 199.542969 L 216.140625 153.03125 L 270.777344 153.03125 Z M 273.429688 128.84375 " fill-opacity="1" fill-rule="nonzero"/><path fill="#ffffff" d="M 616.230469 128.84375 L 558.972656 128.84375 L 558.972656 103.242188 L 619.082031 103.242188 L 621.734375 79.054688 L 532.175781 79.054688 L 532.175781 199.542969 L 558.972656 199.542969 L 558.972656 153.03125 L 613.609375 153.03125 Z M 616.230469 128.84375 " fill-opacity="1" fill-rule="nonzero"/></svg>