<svg xmlns="http://www.w3.org/2000/svg" xmlns:xlink="http://www.w3.org/1999/xlink" viewBox="0 0 307.97 307.97"><defs><style>.cls-1{fill:#fff;}.cls-2{fill:url(#New_Gradient_Swatch_1);}.cls-3{fill:url(#linear-gradient);}.cls-4{fill:url(#New_Gradient_Swatch_3);}.cls-5{fill:url(#New_Gradient_Swatch_2);}.cls-6{fill:url(#New_Gradient_Swatch_1-2);}.cls-7{fill:url(#linear-gradient-2);}.cls-8{fill:url(#New_Gradient_Swatch_1-3);}.cls-9{fill:url(#New_Gradient_Swatch_2-2);}.cls-10{fill:url(#New_Gradient_Swatch_3-2);}.cls-11{fill:url(#linear-gradient-3);}.cls-12{fill:url(#New_Gradient_Swatch_2-3);}.cls-13{fill:#fff200;}.cls-14{fill:url(#New_Gradient_Swatch_1-4);}.cls-15{fill:#ed1c24;}.cls-16{fill:url(#New_Gradient_Swatch_3-4);}.cls-17{fill:#034ea2;}.cls-18{fill:#21409a;}.cls-19{fill:#172c77;}.cls-20{fill:#162b75;}</style><linearGradient id="New_Gradient_Swatch_1" x1="304.52" y1="115.61" x2="127.74" y2="115.61" gradientUnits="userSpaceOnUse"><stop offset="0.05" stop-color="#540000"/><stop offset="0.08" stop-color="#660304"/><stop offset="0.19" stop-color="#9e0b0f"/><stop offset="0.19" stop-color="#9f0b0f"/><stop offset="0.31" stop-color="#bc1117"/><stop offset="0.43" stop-color="#d1161d"/><stop offset="0.57" stop-color="#e11921"/><stop offset="0.73" stop-color="#ea1b23"/><stop offset="0.95" stop-color="#ed1c24"/></linearGradient><linearGradient id="linear-gradient" x1="174.56" y1="208.06" x2="214.89" y2="57.73" gradientUnits="userSpaceOnUse"><stop offset="0" stop-color="#8b0304"/><stop offset="0.33" stop-color="#99090d"/><stop offset="0.4" stop-color="#a70d11"/><stop offset="0.53" stop-color="#c01319"/><stop offset="0.68" stop-color="#d3171e"/><stop offset="0.83" stop-color="#dd1a21"/><stop offset="1" stop-color="#e11b22"/></linearGradient><linearGradient id="New_Gradient_Swatch_3" x1="141.37" y1="39.86" x2="7.9" y2="192.77" gradientUnits="userSpaceOnUse"><stop offset="0.05" stop-color="#211d70"/><stop offset="0.42" stop-color="#21409a"/><stop offset="0.44" stop-color="#1f419b"/><stop offset="0.57" stop-color="#0f489f"/><stop offset="0.73" stop-color="#064da1"/><stop offset="0.95" stop-color="#034ea2"/></linearGradient><linearGradient id="New_Gradient_Swatch_2" x1="88.12" y1="235.22" x2="313.06" y2="235.22" gradientUnits="userSpaceOnUse"><stop offset="0.05" stop-color="#faa61a"/><stop offset="0.19" stop-color="#fdb913"/><stop offset="0.23" stop-color="#fdc110"/><stop offset="0.37" stop-color="#fed609"/><stop offset="0.52" stop-color="#ffe604"/><stop offset="0.7" stop-color="#ffef01"/><stop offset="0.95" stop-color="#fff200"/></linearGradient><linearGradient id="New_Gradient_Swatch_1-2" x1="242.11" y1="72.29" x2="275.77" y2="113.1" xlink:href="#New_Gradient_Swatch_1"/><linearGradient id="linear-gradient-2" x1="288.13" y1="118.78" x2="289.39" y2="119.53" gradientUnits="userSpaceOnUse"><stop offset="0.05" stop-color="#540000"/><stop offset="0.08" stop-color="#660304"/><stop offset="0.19" stop-color="#9e0b0f"/><stop offset="0.19" stop-color="#9f0b0f"/><stop offset="0.23" stop-color="#bc1117"/><stop offset="0.28" stop-color="#d1161d"/><stop offset="0.33" stop-color="#e11921"/><stop offset="0.39" stop-color="#ea1b23"/><stop offset="0.47" stop-color="#ed1c24"/><stop offset="0.74" stop-color="#9e0b0f"/><stop offset="0.76" stop-color="#85070a"/><stop offset="0.77" stop-color="#700406"/><stop offset="0.79" stop-color="#600202"/><stop offset="0.81" stop-color="#570001"/><stop offset="0.84" stop-color="#540000"/></linearGradient><linearGradient id="New_Gradient_Swatch_1-3" x1="86.88" y1="23.28" x2="258.8" y2="109.05" xlink:href="#New_Gradient_Swatch_1"/><linearGradient id="New_Gradient_Swatch_2-2" x1="172.2" y1="231.09" x2="126.44" y2="230.73" xlink:href="#New_Gradient_Swatch_2"/><linearGradient id="New_Gradient_Swatch_3-2" x1="62.96" y1="256.19" x2="64.26" y2="55.77" xlink:href="#New_Gradient_Swatch_3"/><linearGradient id="linear-gradient-3" x1="59.26" y1="233.55" x2="281.26" y2="241.05" gradientUnits="userSpaceOnUse"><stop offset="0" stop-color="#faa61a"/><stop offset="0.33" stop-color="#fdb913"/><stop offset="0.42" stop-color="#fec60e"/><stop offset="0.6" stop-color="#fed806"/><stop offset="0.79" stop-color="#ffe201"/><stop offset="1" stop-color="#ffe600"/></linearGradient><linearGradient id="New_Gradient_Swatch_2-3" x1="121.82" y1="295.61" x2="197.82" y2="154.61" xlink:href="#New_Gradient_Swatch_2"/><linearGradient id="New_Gradient_Swatch_1-4" x1="286.66" y1="110.29" x2="159.55" y2="114.67" xlink:href="#New_Gradient_Swatch_1"/><linearGradient id="New_Gradient_Swatch_3-4" x1="54.92" y1="52.98" x2="136.58" y2="210.65" xlink:href="#New_Gradient_Swatch_3"/></defs><title>Eszköz 1</title><g id="Réteg_2" data-name="Réteg 2"><g id="Layer_1" data-name="Layer 1"><circle class="cls-1" cx="153.99" cy="153.99" r="153.99" transform="translate(-63.78 153.99) rotate(-45)"/><path class="cls-2" d="M135.49,13.27a190.68,190.68,0,0,1,40.09,27.21,72,72,0,0,1,6.47,5.67c37.25,36.31,51.37,75.91,56.71,99.23.86,3.34,1.62,6.85,2.21,10.49a34.34,34.34,0,0,1,.62,4.54c2.31,20.34-1.6,43.37-24.13,58.73,0,0,28.16-4.85,43.59-26.63,9.93-13.63,17.13-34.62-3.87-76.14a168.34,168.34,0,0,0-9.37-16.83c-1.2-2-2.44-4-3.74-6-6.1-10.09-10.68-18.65-4.29-23,4.36-3,11.58,0,17.22,3.35h0s11.8,7.11,22.36,24a167.59,167.59,0,0,1,10.93,19.2A141.5,141.5,0,0,0,135.49,13.27Z"/><path class="cls-3" d="M135.49,13.27a190.68,190.68,0,0,1,40.09,27.21,72,72,0,0,1,6.47,5.67c37.25,36.31,51.37,75.91,56.71,99.23.86,3.34,1.62,6.85,2.21,10.49a34.34,34.34,0,0,1,.62,4.54c2.31,20.34-1.6,43.37-24.13,58.73,0,0,28.16-4.85,43.59-26.63,9.93-13.63,17.13-34.62-3.87-76.14a168.34,168.34,0,0,0-9.37-16.83c-1.2-2-2.44-4-3.74-6-6.1-10.09-10.68-18.65-4.29-23,4.36-3,11.58,0,17.22,3.35h0s11.8,7.11,22.36,24a167.59,167.59,0,0,1,10.93,19.2A141.5,141.5,0,0,0,135.49,13.27Z"/><path class="cls-4" d="M41.87,239.93a190.57,190.57,0,0,1,3.51-48.32,73.42,73.42,0,0,1,1.68-8.45c12.83-50.41,40.05-82.44,57.58-98.72,2.46-2.41,5.12-4.83,8-7.16a33.64,33.64,0,0,1,3.61-2.8C132.7,62.3,154.61,54.18,179.17,66c0,0-18.28-22-44.86-24.44-16.77-1.79-38.54,2.48-64,41.42a169.35,169.35,0,0,0-9.89,16.53q-1.66,3-3.34,6.24C51.4,116.1,46.27,124.34,39.31,121c-4.76-2.3-5.77-10.06-5.71-16.6h0S33.86,90.62,43.23,73A167.38,167.38,0,0,1,54.4,53.94,141.5,141.5,0,0,0,41.87,239.93Z"/><path class="cls-5" d="M285,207.68a190.84,190.84,0,0,1-43.61,21.12,73.8,73.8,0,0,1-8.14,2.77c-50.08,14.09-91.43,6.53-114.29-.51-3.33-.93-6.75-2-10.2-3.34A31.74,31.74,0,0,1,104.5,226c-18.78-8.16-36.77-23.07-38.8-50.26,0,0-9.88,26.81,1.26,51.07,6.84,15.41,21.42,32.14,67.88,34.71a165.61,165.61,0,0,0,19.26.3q3.45-.06,7.07-.23c11.79-.24,21.49.08,22.07,7.78.4,5.27-5.82,10-11.52,13.25h0s-12.05,6.66-32,7.34a165.74,165.74,0,0,1-22.09-.13A141.5,141.5,0,0,0,285,207.68Z"/><path class="cls-6" d="M289.32,120.32l0,.05a2.56,2.56,0,0,0,0-.27,95.73,95.73,0,0,0-7-13.31l-.09-.16c-.88-1.47-1.72-2.83-2.54-4.1-9.16-15.06-19.1-21.89-19.1-21.89h0c-4.84-3.25-11-6.34-14.67-4.06-5.34,3.33-1.32,11,4,20.17q1.69,2.78,3.26,5.45l.4.66a1.14,1.14,0,0,0-.1-.19l-.78-1.6c-1.5-3.32-4.34-11-.44-14.67,2.19-2.06,4.82-2,7.34-1.13l.2.1c4,1.91,8.36,6,12.48,10.8l.33.4.61.72a187.34,187.34,0,0,1,16.2,23.38Z"/><path class="cls-7" d="M288.42,118.63l.15.29c.12.22.24.43.35.65l-.23-.33Z"/><path class="cls-8" d="M102.27,21.74a141.76,141.76,0,0,1,20.22-6.14h0c1.81-.34,3.55-.66,4.92-.9A190.34,190.34,0,0,1,228.86,123.15c-.47-1.05-.89-2-1.22-2.64l-.31-.69C219.35,103.19,179.73,29.37,102.27,21.74Z"/><path class="cls-9" d="M115.34,287.38h0l.26.09a95.51,95.51,0,0,0,15,.56h.19c1.7,0,3.3-.08,4.82-.15,17.62-.4,28.5-5.59,28.5-5.59h0c5.23-2.57,11-6.37,10.85-10.67-.22-6.29-8.9-6.67-19.48-6.61q-3.26.09-6.35.1l-.77,0h.22c.61,0,1.2.08,1.77.12,3.63.36,11.69,1.73,12.93,6.95.69,2.93-.64,5.2-2.7,6.92l-.18.13c-3.65,2.5-9.4,4.22-15.59,5.4l-.51.09-.93.18A187.48,187.48,0,0,1,115,287.24Zm1.92.06h-.32l-.75,0,.41,0Zm177-112.77a140.3,140.3,0,0,1-4.79,20.59l0,0c-.6,1.74-1.2,3.41-1.67,4.71a190.3,190.3,0,0,1-144.62,33.6c1.14.12,2.12.2,2.89.26l.75.08C165.16,235.34,248.91,237.94,294.24,174.67Z"/><path class="cls-10" d="M57.66,53.18l0,0-.21.18a97,97,0,0,0-8,12.75l-.09.16q-1.25,2.23-2.28,4.25C38.64,85.94,37.69,98,37.69,98h0c-.4,5.81,0,12.71,3.81,14.73,5.56,3,10.23-4.37,15.47-13.57q1.55-2.85,3.08-5.54l.37-.68-.11.18c-.34.52-.67,1-1,1.48-2.12,3-7.34,9.26-12.48,7.72-2.88-.87-4.19-3.15-4.65-5.79,0-.08,0-.15,0-.23-.35-4.41,1-10.25,3.11-16.2.07-.17.12-.32.18-.49s.21-.6.32-.89A187.89,187.89,0,0,1,57.93,53Zm-1,1.63c.05-.1.11-.18.17-.28l.39-.63-.17.37Zm9.17,209.65A141.59,141.59,0,0,1,50.38,250v0c-1.2-1.39-2.35-2.74-3.24-3.81a190.33,190.33,0,0,1,43.21-142c-.67.93-1.24,1.74-1.67,2.37-.16.21-.3.41-.45.62C77.81,122.34,33.69,193.57,65.82,264.46Z"/><path class="cls-11" d="M285,207.68a190.84,190.84,0,0,1-43.61,21.12,73.8,73.8,0,0,1-8.14,2.77c-50.08,14.09-91.43,6.53-114.29-.51-3.33-.93-6.75-2-10.2-3.34A31.74,31.74,0,0,1,104.5,226c-18.78-8.16-36.77-23.07-38.8-50.26,0,0-9.88,26.81,1.26,51.07,6.84,15.41,21.42,32.14,67.88,34.71a165.61,165.61,0,0,0,19.26.3q3.45-.06,7.07-.23c11.79-.24,21.49.08,22.07,7.78.4,5.27-5.82,10-11.52,13.25h0s-12.05,6.66-32,7.34a165.74,165.74,0,0,1-22.09-.13A141.5,141.5,0,0,0,285,207.68Z"/><path class="cls-12" d="M65.44,190.27A55.45,55.45,0,0,0,76.56,210c6.64,7.62,15.62,13.93,26.68,18.75a37.83,37.83,0,0,0,4.48,1.83c3.24,1.23,6.73,2.37,10.37,3.39a200.4,200.4,0,0,0,58.29,8.57A212.67,212.67,0,0,0,234,234.45a76.68,76.68,0,0,0,8.39-2.84,196,196,0,0,0,35.69-16.16,138.68,138.68,0,0,1-123.65,76.26H152.4a78.21,78.21,0,0,0,18.1-5.19l.1.18,2.6-1.47c9.06-5.13,13.45-10.54,13-16.08-.8-10.61-13.8-10.61-20.78-10.61-1.23,0-2.61,0-4.34.06H161c-2.42.1-4.77.18-7,.22H154c-2.28.1-4.61.15-6.93.15-4,0-8.06-.15-12-.44H135c-20.38-1.13-36.32-5.2-47.37-12.09a44.89,44.89,0,0,1-17.94-20.88c-5.71-12.42-5.57-25.72-4.25-35.28"/><path class="cls-13" d="M159.11,252.85c-101.31-4-93.67-62.58-93.67-62.58A55.45,55.45,0,0,0,76.56,210c6.64,7.62,15.62,13.93,26.68,18.75a37.83,37.83,0,0,0,4.48,1.83c3.24,1.23,6.73,2.37,10.37,3.39a200.4,200.4,0,0,0,58.29,8.57A212.67,212.67,0,0,0,234,234.45a76.68,76.68,0,0,0,8.39-2.84,196,196,0,0,0,35.69-16.16S241.14,256.09,159.11,252.85Z"/><path class="cls-14" d="M153.7,15.09A138.61,138.61,0,0,1,274.44,86,78.83,78.83,0,0,0,261,73l.11-.18-2.62-1.54c-5.62-3.31-10.46-5-14.38-5a10.62,10.62,0,0,0-6.07,1.74c-9.16,6.25-1.88,18.27,3.43,27v0l0,0c1.3,2,2.54,4,3.7,6l0,0v0a161.4,161.4,0,0,1,9.2,16.52l0,0v0c9.21,18.22,13.66,34.06,13.21,47.08a44.8,44.8,0,0,1-9.11,26c-7.9,11.15-19.48,17.67-28.43,21.31a55.42,55.42,0,0,0,11.51-19.48c3.28-9.56,4.25-20.48,2.89-32.47a35,35,0,0,0-.65-4.8c-.55-3.43-1.31-7-2.25-10.67A196.44,196.44,0,0,0,225,99.27,211.36,211.36,0,0,0,184.15,44a77.27,77.27,0,0,0-6.66-5.84,195.38,195.38,0,0,0-31.84-22.83c2.69-.16,5.38-.24,8-.24"/><path class="cls-15" d="M248.89,125.86c26,63.66-18.72,86.23-18.72,86.23a55.42,55.42,0,0,0,11.51-19.48c3.28-9.56,4.25-20.48,2.89-32.47a35,35,0,0,0-.65-4.8c-.55-3.43-1.31-7-2.25-10.67A196.44,196.44,0,0,0,225,99.27,211.36,211.36,0,0,0,184.15,44a77.27,77.27,0,0,0-6.66-5.84,195.38,195.38,0,0,0-31.84-22.83C181.76,31.13,222.89,62.19,248.89,125.86Z"/><path class="cls-4" d="M41.87,239.93a190.57,190.57,0,0,1,3.51-48.32,73.42,73.42,0,0,1,1.68-8.45c12.83-50.41,40.05-82.44,57.58-98.72,2.46-2.41,5.12-4.83,8-7.16a33.64,33.64,0,0,1,3.61-2.8C132.7,62.3,154.61,54.18,179.17,66c0,0-18.28-22-44.86-24.44-16.77-1.79-38.54,2.48-64,41.42a169.35,169.35,0,0,0-9.89,16.53q-1.66,3-3.34,6.24C51.4,116.1,46.27,124.34,39.31,121c-4.76-2.3-5.77-10.06-5.71-16.6h0S33.86,90.62,43.23,73A167.38,167.38,0,0,1,54.4,53.94,141.5,141.5,0,0,0,41.87,239.93Z"/><path class="cls-16" d="M128.29,44.24a55.41,55.41,0,0,1,5.75.31c13.61,1.28,25.05,8,32.67,14a55.59,55.59,0,0,0-11.8-1.28c-13.52,0-27.11,5-40.39,14.79a35.64,35.64,0,0,0-3.83,3c-2.7,2.19-5.43,4.64-8.12,7.28a197.35,197.35,0,0,0-31,37.1,211.16,211.16,0,0,0-27.42,63.06,77,77,0,0,0-1.73,8.69,196.1,196.1,0,0,0-3.86,39A138.61,138.61,0,0,1,35.34,83.23a78.51,78.51,0,0,0-4.49,18h-.22l0,3.13c-.09,10.42,2.4,16.92,7.41,19.33a10.11,10.11,0,0,0,4.4,1c7.1,0,11.84-7.6,17.3-17.53l0,0v0C60.86,105,62,102.93,63.05,101l0,0v0a163,163,0,0,1,9.71-16.23l0,0v0c10-15.34,20.32-26.41,30.59-32.91a45.48,45.48,0,0,1,24.88-7.49"/><path class="cls-17" d="M71.55,99.86c47.67-70,95.16-41.34,95.16-41.34a55.59,55.59,0,0,0-11.8-1.28c-13.52,0-27.11,5-40.39,14.79a35.64,35.64,0,0,0-3.83,3c-2.7,2.19-5.43,4.64-8.12,7.28a197.35,197.35,0,0,0-31,37.1,211.16,211.16,0,0,0-27.42,63.06,77,77,0,0,0-1.73,8.69,196.1,196.1,0,0,0-3.86,39S25.47,167.53,71.55,99.86Z"/><path class="cls-18" d="M153,132.49H137.91L114,189.31h16.36l4-10.16H156.2l0,.1c3.5,8.68,18.4,4.44,18.4,4.44ZM139,167,145.32,151,151.61,167Z"/><path class="cls-18" d="M123.09,133v-.14H82.66v56.42H98.29V169.16h15.33v-13H98.29v-9.59h11.24A13.56,13.56,0,0,0,123.09,133Z"/><path class="cls-19" d="M113.2,146.58a15.9,15.9,0,0,0,12.44-13.69h2.83S127.35,145,113.2,146.58Z"/><path class="cls-18" d="M221.13,133v-.14H180.69v56.42h15.64V169.16h15.33v-13H196.33v-9.59h11.23A13.57,13.57,0,0,0,221.13,133Z"/><path class="cls-19" d="M211.24,146.58a15.9,15.9,0,0,0,12.44-13.69h2.83S225.39,145,211.24,146.58Z"/><path class="cls-20" d="M157.92,182.31s5.11,7.6,19.08,7l-1.45-3.3S163.94,189.14,157.92,182.31Z"/></g></g></svg>