<svg xmlns="http://www.w3.org/2000/svg" xmlns:xlink="http://www.w3.org/1999/xlink" width="1080" zoomAndPan="magnify" viewBox="0 0 810 809.999993" height="1080" preserveAspectRatio="xMidYMid meet" version="1.0"><path stroke-linecap="butt" transform="matrix(2.373704, -0.511912, 0.511912, 2.373704, -76.271961, 94.459902)" fill-opacity="1" fill="#ffffff" fill-rule="nonzero" stroke-linejoin="miter" d="M 333.469537 166.790507 C 333.470562 169.517546 333.40249 172.244493 333.269145 174.968883 C 333.135799 177.693274 332.934373 180.412856 332.666441 183.127968 C 332.40042 185.841848 332.066658 188.549347 331.665834 191.24732 C 331.26501 193.945293 330.799035 196.632506 330.266677 199.30705 C 329.735551 201.983504 329.137147 204.643804 328.474271 207.2902 C 327.811395 209.936596 327.085063 212.56437 326.293365 215.174756 C 325.501667 217.785142 324.64528 220.374995 323.726117 222.943081 C 322.806953 225.511167 321.825352 228.055914 320.781652 230.575749 C 319.737952 233.095585 318.632493 235.588936 317.467186 238.05457 C 316.299967 240.521437 315.073918 242.955869 313.788021 245.362584 C 312.502463 247.767726 311.158074 250.140433 309.756428 252.481045 C 308.353548 254.819744 306.895322 257.125115 305.379621 259.39176 C 303.863582 261.659978 302.293214 263.89015 300.668855 266.080702 C 299.044158 268.272826 297.366149 270.422187 295.636062 272.530694 C 293.904402 274.638863 292.124488 276.703712 290.291261 278.725797 C 288.459947 280.746649 286.579144 282.72227 284.651103 284.649853 C 282.721151 286.578671 280.747106 288.460129 278.72459 290.291639 C 276.703647 292.123489 274.639289 293.904834 272.529944 295.635337 C 270.422172 297.366179 268.271664 299.043373 266.081225 300.669168 C 263.889553 302.293052 261.659863 303.864305 259.392832 305.379781 C 257.124229 306.894919 254.820197 308.353046 252.480397 309.755737 C 250.140597 311.158428 247.76728 312.502875 245.362357 313.787847 C 242.957095 315.074391 240.520567 316.299885 238.055579 317.466582 C 235.589018 318.63294 233.096247 319.737694 230.575354 320.782077 C 228.056035 321.826799 225.511183 322.806773 222.943268 323.72582 C 220.37344 324.646101 217.78471 325.501417 215.175166 326.293002 C 212.564049 327.084247 209.935264 327.812439 207.289488 328.474432 C 204.643372 329.137998 201.98375 329.734472 199.308371 330.266658 C 196.632992 330.798845 193.945339 331.265851 191.247325 331.666442 C 188.549311 332.067034 185.842846 332.399977 183.127593 332.666846 C 180.412 332.935287 177.693014 333.135525 174.968724 333.268793 C 172.244094 333.403634 169.517643 333.470612 166.789371 333.469725 C 164.062332 333.470751 161.335385 333.402679 158.610994 333.269333 C 155.886604 333.135987 153.167022 332.934562 150.451909 332.666629 C 147.73803 332.400608 145.03087 332.065274 142.332558 331.666023 C 139.634585 331.265199 136.947371 330.799224 134.272828 330.266865 C 131.596373 329.73574 128.936074 329.137336 126.289678 328.474459 C 123.643282 327.811583 121.015508 327.085252 118.405122 326.293554 C 115.795075 325.500283 113.204883 324.645469 110.636797 323.726305 C 108.068711 322.807142 105.523964 321.825541 103.004129 320.781841 C 100.484293 319.738141 97.990942 318.632682 95.525308 317.467374 C 93.058441 316.300156 90.624009 315.074106 88.217294 313.788209 C 85.812152 312.502651 83.439445 311.158263 81.098833 309.756616 C 78.760134 308.353736 76.455102 306.893938 74.188117 305.37981 C 71.919899 303.86377 69.689728 302.293402 67.499176 300.669044 C 65.307391 299.042774 63.157691 297.366338 61.049523 295.634678 C 58.941015 293.904591 56.876505 292.123104 54.854081 290.29145 C 52.833229 288.460135 50.857608 286.579332 48.930024 284.651291 C 47.001207 282.721339 45.119749 280.747294 43.288239 278.724778 C 41.456389 276.703835 39.675044 274.639477 37.944541 272.530133 C 36.213699 270.422361 34.536505 268.271852 32.91071 266.081414 C 31.286826 263.889742 29.715573 261.660051 28.200097 259.393021 C 26.684959 257.124417 25.226831 254.820385 23.824141 252.480585 C 22.42145 250.140785 21.077002 247.767468 19.792031 245.362545 C 18.505487 242.957284 17.279992 240.520756 16.113635 238.054195 C 14.946938 235.589206 13.842184 233.096435 12.797801 230.575543 C 11.753418 228.054651 10.773105 225.511372 9.854058 222.943456 C 8.935349 220.373968 8.078461 217.784898 7.286876 215.175354 C 6.495631 212.564238 5.767439 209.935452 5.105446 207.289676 C 4.44188 204.643561 3.845406 201.983939 3.313559 199.306987 C 2.781372 196.631608 2.314027 193.945528 1.913436 191.247513 C 1.513183 188.547927 1.18024 185.841462 0.913032 183.127781 C 0.644591 180.412189 0.444353 177.693203 0.311085 174.968912 C 0.176243 172.244282 0.109266 169.517831 0.110152 166.789559 C 0.109127 164.062521 0.177199 161.335573 0.310545 158.611183 C 0.44389 155.886793 0.645316 153.167211 0.913249 150.452098 C 1.17927 147.738218 1.514604 145.031059 1.913855 142.332747 C 2.314679 139.634774 2.780654 136.94756 3.313013 134.273017 C 3.844138 131.596562 4.442542 128.936262 5.105418 126.289866 C 5.768295 123.64347 6.494626 121.015696 7.287897 118.405649 C 8.079595 115.795263 8.934409 113.205072 9.853573 110.636986 C 10.772736 108.068899 11.754337 105.524152 12.798037 103.004317 C 13.841737 100.484482 14.947196 97.99113 16.112503 95.525497 C 17.279722 93.058629 18.505772 90.624197 19.791669 88.217483 C 21.077227 85.81234 22.421615 83.439633 23.823262 81.099022 C 25.226142 78.760322 26.68594 76.455291 28.200407 74.186733 C 29.716107 71.920088 31.286476 69.689917 32.910834 67.499365 C 34.537104 65.307579 36.21354 63.15788 37.9452 61.049711 C 39.675287 58.941203 41.457113 56.875121 43.288428 54.854269 C 45.119743 52.833417 47.000546 50.857797 48.928926 48.92864 C 50.858539 47.001396 52.832584 45.119937 54.855099 43.288427 C 56.876043 41.456578 58.940401 39.675232 61.049745 37.944729 C 63.157517 36.213887 65.308026 34.536694 67.498464 32.910898 C 69.690136 31.287014 71.919826 29.715762 74.186857 28.200285 C 76.455461 26.685148 78.759832 25.225447 81.099293 23.824329 C 83.439093 22.421639 85.81241 21.077191 88.217671 19.790647 C 90.622594 18.505676 93.059122 17.280181 95.525683 16.113823 C 97.990672 14.947126 100.483782 13.8408 103.004335 12.797989 C 105.525227 11.753606 108.068845 10.771721 110.636761 9.852674 C 113.206249 8.933965 115.794979 8.078649 118.404523 7.287065 C 121.01564 6.49582 123.644425 5.767628 126.290202 5.105634 C 128.936317 4.442068 131.596278 3.844022 134.27323 3.312175 C 136.948609 2.779988 139.63435 2.314215 142.332365 1.913624 C 145.031951 1.513372 147.738416 1.180428 150.452096 0.913221 C 153.167689 0.64478 155.886675 0.444542 158.610966 0.311273 C 161.335596 0.176432 164.062047 0.109455 166.790319 0.110341 C 169.517357 0.109316 172.244305 0.177388 174.968695 0.310733 C 177.693085 0.444079 180.412667 0.645504 183.12778 0.913437 C 185.841659 1.179458 188.549158 1.51322 191.247131 1.914044 C 193.945104 2.314868 196.632318 2.780842 199.306861 3.313201 C 201.983316 3.844327 204.643616 4.442731 207.290012 5.105607 C 209.936407 5.768483 212.564182 6.494815 215.174568 7.286513 C 217.784953 8.078211 220.374806 8.934598 222.942892 9.853761 C 225.510978 10.772925 228.055725 11.754526 230.575561 12.798226 C 233.095396 13.841925 235.588747 14.947385 238.054381 16.112692 C 240.521248 17.279911 242.957253 18.506299 245.362395 19.791857 C 247.767538 21.077415 250.140245 22.421804 252.480856 23.82345 C 254.819556 25.22633 257.124926 26.684556 259.393144 28.200596 C 261.65979 29.716296 263.889961 31.286664 266.080513 32.911022 C 268.272638 34.53572 270.421998 36.213729 272.530506 37.943816 C 274.638675 39.675476 276.704757 41.457302 278.725609 43.288617 C 280.74646 45.119931 282.722081 47.000734 284.651237 48.929114 C 286.578482 50.858727 288.459941 52.832772 290.291451 54.855288 C 292.1233 56.876231 293.904646 58.940589 295.635149 61.049934 C 297.365991 63.157706 299.043184 65.308214 300.66898 67.498653 C 302.292864 69.690324 303.864116 71.920015 305.379593 74.187046 C 306.89473 76.455649 308.35443 78.76002 309.755549 81.099481 C 311.158239 83.439281 312.502687 85.812598 313.789231 88.21786 C 315.074202 90.622783 316.301269 93.05965 317.466394 95.524299 C 318.632752 97.99086 319.739078 100.48397 320.781889 103.004523 C 321.826611 105.523843 322.808157 108.069033 323.727204 110.636949 C 324.645913 113.206438 325.501229 115.795168 326.292813 118.404712 C 327.084058 121.015828 327.81225 123.644614 328.474244 126.29039 C 329.13781 128.936505 329.735856 131.596467 330.268042 134.271846 C 330.800229 136.947225 331.265662 139.634539 331.666254 142.332553 C 332.066506 145.03214 332.399789 147.737032 332.666657 150.452285 C 332.935098 153.167877 333.135336 155.886863 333.268605 158.611154 C 333.403446 161.335784 333.470423 164.062235 333.469537 166.790507 Z M 333.469537 166.790507 " stroke="#ffffff" stroke-width="0.22" stroke-opacity="1" stroke-miterlimit="22.93"/><path fill="#ed1c24" d="M 713.136719 631.351562 C 719 623.167969 724.535156 614.769531 729.746094 606.15625 C 734.957031 597.542969 739.824219 588.738281 744.351562 579.746094 C 748.878906 570.753906 753.046875 561.601562 756.863281 552.285156 C 760.679688 542.96875 764.125 533.519531 767.207031 523.9375 C 770.289062 514.351562 772.992188 504.664062 775.320312 494.867188 C 777.648438 485.074219 779.59375 475.207031 781.15625 465.261719 C 782.71875 455.316406 783.890625 445.324219 784.679688 435.289062 C 785.464844 425.253906 785.859375 415.199219 785.863281 405.132812 C 785.863281 193.679688 614.765625 21.222656 405.011719 21.222656 C 195.257812 21.222656 24.136719 193.558594 24.136719 405.011719 C 24.132812 414.878906 24.503906 424.726562 25.257812 434.566406 C 26.011719 444.402344 27.144531 454.195312 28.652344 463.941406 C 30.164062 473.691406 32.046875 483.367188 34.300781 492.972656 C 36.558594 502.578125 39.179688 512.078125 42.167969 521.480469 C 45.15625 530.882812 48.503906 540.15625 52.207031 549.296875 C 55.914062 558.441406 59.964844 567.429688 64.359375 576.261719 C 68.757812 585.089844 73.488281 593.738281 78.554688 602.207031 C 83.617188 610.671875 89 618.929688 94.703125 626.980469 L 276.96875 500.710938 L 310.820312 528.488281 L 255.089844 570.644531 L 293.941406 602.601562 L 488.421875 459.503906 Z M 673.214844 534.632812 L 492.089844 396.464844 L 357.152344 496.777344 L 278.257812 435.460938 L 135.835938 531.308594 C 131.261719 521.445312 127.238281 511.363281 123.761719 501.066406 C 120.28125 490.765625 117.375 480.308594 115.039062 469.691406 C 112.699219 459.074219 110.945312 448.363281 109.773438 437.554688 C 108.605469 426.746094 108.023438 415.90625 108.035156 405.035156 C 108.035156 240.15625 241.445312 105.679688 405.011719 105.679688 C 568.582031 105.679688 701.964844 240.132812 701.964844 405.011719 C 701.953125 416.164062 701.332031 427.285156 700.109375 438.371094 C 698.886719 449.457031 697.066406 460.441406 694.652344 471.328125 C 692.234375 482.21875 689.234375 492.941406 685.648438 503.503906 C 682.066406 514.066406 677.921875 524.402344 673.214844 534.511719 Z M 673.214844 534.632812 " fill-opacity="1" fill-rule="evenodd"/><path fill="#ffffff" d="M 116.871094 534.4375 L 71.34375 551.898438 L 59.371094 520.695312 L 67.070312 517.734375 L 75.542969 539.757812 L 86.300781 535.628906 L 79.015625 516.617188 L 86.714844 513.652344 L 94 532.667969 L 113.425781 525.234375 L 116.945312 534.4375 Z M 78.726562 502.386719 C 74.515625 503.421875 70.273438 503.566406 66 502.824219 C 63.332031 502.25 60.847656 501.230469 58.546875 499.761719 C 56.3125 498.40625 54.441406 496.65625 52.9375 494.519531 C 50.902344 491.5 49.542969 488.207031 48.855469 484.636719 C 48.453125 483.09375 48.210938 481.527344 48.136719 479.9375 C 48.0625 478.347656 48.148438 476.765625 48.40625 475.191406 C 48.660156 473.617188 49.074219 472.089844 49.652344 470.605469 C 50.226562 469.117188 50.949219 467.707031 51.820312 466.375 C 55.265625 461.226562 60.875 457.828125 68.648438 456.175781 C 70.265625 455.730469 71.914062 455.449219 73.589844 455.328125 C 75.265625 455.207031 76.933594 455.253906 78.601562 455.460938 C 80.269531 455.667969 81.898438 456.039062 83.492188 456.566406 C 85.085938 457.097656 86.613281 457.773438 88.074219 458.605469 C 89.40625 459.464844 90.636719 460.457031 91.761719 461.574219 C 92.890625 462.691406 93.886719 463.917969 94.757812 465.242188 C 95.628906 466.570312 96.351562 467.976562 96.925781 469.453125 C 97.503906 470.933594 97.917969 472.457031 98.175781 474.023438 C 98.582031 475.566406 98.824219 477.132812 98.90625 478.726562 C 98.984375 480.320312 98.902344 481.90625 98.652344 483.480469 C 98.402344 485.058594 97.996094 486.589844 97.429688 488.082031 C 96.863281 489.574219 96.148438 490.992188 95.285156 492.332031 C 94.308594 493.675781 93.207031 494.90625 91.984375 496.03125 C 90.761719 497.15625 89.441406 498.148438 88.023438 499.011719 C 86.601562 499.875 85.113281 500.589844 83.550781 501.15625 C 81.992188 501.726562 80.390625 502.136719 78.75 502.386719 Z M 76.296875 492.527344 C 78.539062 492.222656 80.648438 491.523438 82.628906 490.429688 C 84.609375 489.335938 86.328125 487.921875 87.78125 486.191406 C 88.332031 485.457031 88.796875 484.671875 89.175781 483.835938 C 89.550781 483 89.832031 482.132812 90.019531 481.234375 C 90.207031 480.335938 90.292969 479.429688 90.28125 478.511719 C 90.269531 477.59375 90.15625 476.6875 89.941406 475.796875 C 89.777344 474.902344 89.511719 474.035156 89.152344 473.195312 C 88.796875 472.359375 88.347656 471.570312 87.816406 470.832031 C 87.28125 470.09375 86.675781 469.421875 85.992188 468.816406 C 85.3125 468.210938 84.574219 467.691406 83.777344 467.25 C 81.714844 466.261719 79.546875 465.675781 77.269531 465.492188 C 74.992188 465.308594 72.757812 465.535156 70.566406 466.179688 C 68.339844 466.476562 66.238281 467.160156 64.261719 468.230469 C 62.285156 469.304688 60.566406 470.691406 59.105469 472.398438 C 58.59375 473.152344 58.164062 473.949219 57.8125 474.792969 C 57.460938 475.632812 57.199219 476.5 57.023438 477.394531 C 56.847656 478.289062 56.765625 479.191406 56.769531 480.101562 C 56.777344 481.015625 56.875 481.917969 57.0625 482.808594 C 57.25 483.699219 57.527344 484.5625 57.886719 485.398438 C 58.25 486.234375 58.691406 487.027344 59.214844 487.777344 C 59.734375 488.523438 60.328125 489.210938 60.988281 489.839844 C 61.648438 490.46875 62.363281 491.023438 63.136719 491.507812 C 65.179688 492.480469 67.328125 493.054688 69.585938 493.230469 C 71.839844 493.40625 74.054688 493.171875 76.222656 492.527344 Z M 67.433594 447.238281 C 63.132812 447.667969 58.921875 447.222656 54.804688 445.90625 C 52.242188 444.996094 49.910156 443.675781 47.8125 441.945312 C 45.78125 440.292969 44.160156 438.300781 42.957031 435.972656 C 41.375 432.695312 40.484375 429.238281 40.285156 425.605469 C 40.105469 424.023438 40.089844 422.4375 40.242188 420.851562 C 40.390625 419.269531 40.707031 417.714844 41.179688 416.195312 C 41.652344 414.675781 42.28125 413.222656 43.058594 411.832031 C 43.835938 410.441406 44.75 409.148438 45.796875 407.949219 C 49.925781 403.335938 55.972656 400.664062 63.886719 400.203125 C 65.550781 399.988281 67.21875 399.933594 68.890625 400.046875 C 70.566406 400.160156 72.210938 400.433594 73.832031 400.871094 C 75.449219 401.308594 77.007812 401.902344 78.511719 402.648438 C 80.015625 403.394531 81.429688 404.277344 82.753906 405.304688 C 83.957031 406.339844 85.035156 407.492188 85.992188 408.753906 C 86.953125 410.019531 87.769531 411.367188 88.449219 412.800781 C 89.125 414.234375 89.648438 415.726562 90.015625 417.269531 C 90.378906 418.8125 90.582031 420.375 90.625 421.960938 C 90.808594 423.546875 90.828125 425.132812 90.6875 426.722656 C 90.542969 428.308594 90.238281 429.867188 89.773438 431.390625 C 89.304688 432.917969 88.6875 434.378906 87.921875 435.777344 C 87.152344 437.175781 86.246094 438.476562 85.207031 439.6875 C 84.050781 440.882812 82.789062 441.953125 81.417969 442.894531 C 80.050781 443.839844 78.601562 444.640625 77.074219 445.300781 C 75.546875 445.957031 73.96875 446.460938 72.34375 446.808594 C 70.714844 447.15625 69.070312 447.339844 67.410156 447.363281 Z M 66.390625 437.089844 C 68.632812 437.078125 70.796875 436.671875 72.890625 435.863281 C 74.984375 435.054688 76.863281 433.902344 78.53125 432.402344 C 78.847656 432.074219 79.148438 431.730469 79.429688 431.367188 C 79.710938 431.007812 79.972656 430.632812 80.214844 430.246094 C 80.457031 429.859375 80.679688 429.460938 80.878906 429.046875 C 81.078125 428.636719 81.257812 428.21875 81.414062 427.789062 C 81.570312 427.359375 81.707031 426.921875 81.816406 426.476562 C 81.929688 426.035156 82.015625 425.585938 82.082031 425.132812 C 82.144531 424.679688 82.183594 424.226562 82.203125 423.769531 C 82.21875 423.3125 82.210938 422.855469 82.179688 422.398438 C 82.152344 421.941406 82.097656 421.488281 82.019531 421.039062 C 81.941406 420.589844 81.839844 420.144531 81.714844 419.703125 C 81.589844 419.261719 81.441406 418.832031 81.273438 418.40625 C 81.101562 417.980469 80.910156 417.566406 80.699219 417.164062 C 80.484375 416.757812 80.25 416.367188 79.996094 415.984375 C 79.742188 415.605469 79.46875 415.238281 79.175781 414.886719 C 78.886719 414.535156 78.574219 414.199219 78.25 413.882812 C 77.921875 413.5625 77.578125 413.261719 77.21875 412.976562 C 75.3125 411.722656 73.242188 410.84375 71.011719 410.347656 C 68.78125 409.847656 66.539062 409.761719 64.277344 410.085938 C 62.042969 410.089844 59.882812 410.484375 57.792969 411.269531 C 55.703125 412.054688 53.816406 413.183594 52.136719 414.652344 C 51.535156 415.332031 51.003906 416.066406 50.550781 416.851562 C 50.09375 417.636719 49.722656 418.457031 49.429688 419.316406 C 49.140625 420.179688 48.9375 421.058594 48.824219 421.960938 C 48.710938 422.859375 48.6875 423.761719 48.753906 424.667969 C 48.820312 425.574219 48.976562 426.460938 49.222656 427.335938 C 49.464844 428.210938 49.796875 429.050781 50.210938 429.859375 C 50.621094 430.667969 51.113281 431.425781 51.675781 432.136719 C 52.242188 432.847656 52.871094 433.496094 53.566406 434.078125 C 55.445312 435.359375 57.488281 436.257812 59.699219 436.777344 C 61.910156 437.296875 64.140625 437.402344 66.390625 437.089844 Z M 90.671875 380.148438 L 50.339844 376.601562 L 49.074219 391.023438 L 40.84375 390.296875 L 44.21875 351.710938 L 52.449219 352.414062 L 51.1875 366.816406 L 91.546875 370.335938 L 90.671875 380.050781 Z M 46.960938 338.625 L 51.332031 319.632812 C 51.9375 316.804688 52.746094 314.039062 53.761719 311.328125 C 54.480469 309.597656 55.523438 308.09375 56.894531 306.8125 C 58.308594 305.542969 59.929688 304.636719 61.75 304.09375 C 62.523438 303.871094 63.308594 303.730469 64.109375 303.671875 C 64.90625 303.613281 65.707031 303.636719 66.5 303.742188 C 67.296875 303.851562 68.070312 304.039062 68.828125 304.304688 C 69.582031 304.574219 70.304688 304.917969 70.988281 305.335938 C 71.675781 305.753906 72.308594 306.238281 72.894531 306.785156 C 73.476562 307.335938 74 307.941406 74.457031 308.597656 C 74.917969 309.257812 75.304688 309.953125 75.617188 310.691406 C 75.929688 311.429688 76.164062 312.195312 76.320312 312.980469 C 76.96875 311.746094 77.789062 310.640625 78.792969 309.671875 C 79.792969 308.699219 80.917969 307.90625 82.171875 307.296875 C 83.382812 306.753906 84.652344 306.421875 85.976562 306.304688 C 87.300781 306.1875 88.605469 306.292969 89.894531 306.617188 C 92.105469 307.148438 94.089844 308.136719 95.84375 309.582031 C 97.535156 311.027344 98.773438 312.792969 99.558594 314.875 C 100.417969 317.132812 100.675781 319.453125 100.335938 321.84375 C 100.117188 323.472656 99.339844 327.355469 97.90625 333.476562 L 94.339844 349.671875 L 46.839844 338.695312 Z M 57.066406 330.851562 L 68.066406 333.28125 L 69.523438 326.992188 C 70.371094 323.253906 70.855469 320.921875 70.953125 319.972656 C 71.199219 318.460938 70.933594 317.042969 70.152344 315.722656 C 69.773438 315.128906 69.289062 314.628906 68.703125 314.234375 C 68.113281 313.835938 67.472656 313.574219 66.777344 313.441406 C 65.4375 313.085938 64.152344 313.222656 62.917969 313.855469 C 61.691406 314.609375 60.882812 315.679688 60.488281 317.058594 C 60.148438 317.984375 59.46875 320.703125 58.425781 325.21875 L 57.136719 330.730469 Z M 75.980469 335.222656 L 88.679688 338.160156 L 90.71875 329.273438 C 91.296875 327.09375 91.710938 324.886719 91.957031 322.644531 C 92.070312 321.195312 91.695312 319.886719 90.84375 318.710938 C 90.398438 318.109375 89.855469 317.609375 89.214844 317.214844 C 88.578125 316.820312 87.890625 316.558594 87.152344 316.429688 C 85.832031 316.082031 84.539062 316.15625 83.265625 316.648438 C 82.035156 317.132812 81.078125 317.941406 80.398438 319.074219 C 79.132812 321.773438 78.234375 324.589844 77.703125 327.527344 L 75.933594 335.273438 Z M 122.53125 261.402344 L 70.007812 261.234375 L 66.097656 270.945312 L 104.199219 306.8125 L 108.105469 297.101562 L 99.363281 289.207031 L 106.648438 271.140625 L 118.5 271.335938 L 122.507812 261.402344 Z M 97.859375 271.117188 L 93.003906 283.453125 L 78.675781 270.558594 L 98.101562 271.117188 Z M 125.859375 256.71875 L 83.96875 232.433594 L 88.828125 223.910156 L 123.597656 243.96875 L 135.742188 222.769531 L 142.878906 226.898438 L 125.710938 256.597656 Z M 147.445312 221.703125 L 109.273438 191.832031 L 115.320312 184.085938 L 146.910156 208.832031 L 161.992188 189.550781 L 168.449219 194.601562 L 147.324219 221.628906 Z M 185.398438 176.148438 L 153.417969 139.335938 L 178.648438 117.480469 L 184.0625 123.695312 L 166.265625 139.1875 L 173.816406 147.882812 L 189.210938 134.527344 L 194.625 140.765625 L 179.253906 154.121094 L 192.828125 169.761719 L 185.398438 176.21875 Z M 216.964844 148.878906 L 248.535156 129.234375 L 244.1875 122.265625 L 220.972656 136.6875 L 213.957031 125.445312 L 234.71875 112.476562 L 230.347656 105.507812 L 209.585938 118.476562 L 203.976562 109.273438 L 226.265625 95.335938 L 221.894531 88.339844 L 191.203125 107.523438 L 217.039062 148.804688 Z M 235.179688 79.746094 L 251.617188 72.460938 C 254.445312 71.09375 257.398438 70.113281 260.480469 69.523438 C 263.425781 69.113281 266.265625 69.484375 269.003906 70.640625 C 271.886719 71.863281 274.378906 73.636719 276.484375 75.957031 C 279.070312 78.914062 281.117188 82.210938 282.628906 85.839844 C 284.132812 89.050781 285.078125 92.417969 285.46875 95.941406 C 285.851562 99.371094 285.429688 102.695312 284.207031 105.921875 C 283.140625 108.425781 281.5625 110.546875 279.46875 112.285156 C 277.1875 114.160156 274.675781 115.65625 271.941406 116.777344 L 254.945312 124.328125 L 235.25 79.746094 Z M 247.683594 83.289062 L 251.714844 81.492188 C 254.148438 80.296875 256.675781 79.339844 259.292969 78.628906 C 261.003906 78.230469 262.699219 78.3125 264.367188 78.871094 C 266.132812 79.550781 267.632812 80.609375 268.859375 82.050781 C 270.714844 84.335938 272.1875 86.84375 273.277344 89.578125 C 274.605469 92.296875 275.519531 95.144531 276.023438 98.125 C 276.347656 99.949219 276.195312 101.730469 275.5625 103.46875 C 274.890625 104.835938 273.9375 105.960938 272.695312 106.84375 C 271.054688 107.992188 269.308594 108.9375 267.449219 109.683594 L 260.75 112.695312 Z M 299.601562 104.414062 L 286.148438 57.550781 L 320.898438 47.59375 L 323.179688 55.511719 L 297.902344 62.796875 L 300.863281 73.1875 L 324.394531 66.4375 L 326.675781 74.328125 L 303.144531 81.082031 L 306.789062 93.828125 L 332.964844 86.324219 L 335.246094 94.21875 Z M 343.675781 92.273438 L 337.722656 43.855469 L 358.292969 41.425781 C 362.105469 40.804688 365.917969 40.804688 369.730469 41.425781 C 370.953125 41.714844 372.09375 42.199219 373.15625 42.871094 C 374.21875 43.546875 375.140625 44.375 375.921875 45.359375 C 377.648438 47.492188 378.667969 49.917969 378.980469 52.644531 C 379.238281 54.285156 379.1875 55.914062 378.820312 57.535156 C 378.457031 59.152344 377.804688 60.648438 376.867188 62.019531 C 375.75 63.472656 374.414062 64.683594 372.859375 65.65625 C 371.304688 66.632812 369.628906 67.304688 367.835938 67.675781 C 369.914062 68.539062 371.824219 69.679688 373.566406 71.101562 C 375.953125 73.296875 378.128906 75.6875 380.097656 78.261719 L 387.1875 87.003906 L 375.484375 88.4375 L 367.132812 78.726562 C 365.261719 76.4375 363.253906 74.273438 361.109375 72.242188 C 360.179688 71.4375 359.121094 70.886719 357.929688 70.589844 C 356.269531 70.347656 354.609375 70.347656 352.949219 70.589844 L 350.957031 70.832031 L 353.386719 91.035156 L 343.675781 92.25 Z M 350.011719 63.136719 L 357.296875 62.238281 C 360.238281 62.0625 363.117188 61.550781 365.941406 60.707031 C 367.039062 60.183594 367.847656 59.375 368.371094 58.277344 C 368.953125 57.089844 369.140625 55.84375 368.929688 54.539062 C 368.820312 53.042969 368.222656 51.78125 367.132812 50.75 C 366.007812 49.78125 364.703125 49.296875 363.222656 49.292969 C 362.429688 49.292969 360.046875 49.535156 356.082031 50.023438 L 348.457031 50.945312 L 349.964844 63.234375 Z M 435.972656 87.589844 L 417.300781 38.488281 L 406.882812 38.316406 L 387.042969 86.738281 L 397.484375 86.933594 L 401.710938 75.90625 L 421.136719 76.273438 L 425.265625 87.417969 L 435.972656 87.613281 Z M 418.171875 67.992188 L 404.867188 67.75 L 411.761719 49.78125 Z M 446.804688 90.089844 L 451.660156 49.875 L 437.285156 48.128906 L 438.304688 39.921875 L 476.769531 44.65625 L 475.941406 52.839844 L 461.617188 51.089844 L 456.515625 91.304688 Z M 476.960938 95.335938 L 487.9375 47.8125 L 497.53125 50.023438 L 486.554688 97.542969 L 476.839844 95.335938 Z M 501.875 76.273438 C 503.292969 72.183594 505.480469 68.558594 508.433594 65.394531 C 510.371094 63.464844 512.582031 61.929688 515.0625 60.78125 C 517.425781 59.648438 519.917969 59.03125 522.539062 58.933594 C 526.167969 58.890625 529.664062 59.546875 533.03125 60.902344 C 534.542969 61.398438 535.988281 62.046875 537.367188 62.851562 C 538.742188 63.652344 540.023438 64.589844 541.203125 65.660156 C 542.382812 66.730469 543.4375 67.914062 544.367188 69.207031 C 545.300781 70.5 546.085938 71.875 546.726562 73.335938 C 549.15625 79.015625 548.960938 85.597656 546.121094 93.003906 C 545.609375 94.601562 544.949219 96.136719 544.140625 97.605469 C 543.328125 99.074219 542.382812 100.449219 541.304688 101.734375 C 540.222656 103.015625 539.027344 104.183594 537.714844 105.230469 C 536.40625 106.277344 535.003906 107.1875 533.515625 107.960938 C 532.78125 108.246094 532.035156 108.5 531.277344 108.714844 C 530.519531 108.933594 529.753906 109.117188 528.980469 109.261719 C 528.203125 109.410156 527.425781 109.519531 526.640625 109.59375 C 525.855469 109.667969 525.070312 109.707031 524.28125 109.710938 C 523.492188 109.710938 522.703125 109.679688 521.917969 109.609375 C 521.132812 109.539062 520.355469 109.429688 519.578125 109.289062 C 518.804688 109.148438 518.035156 108.96875 517.277344 108.757812 C 516.519531 108.542969 515.769531 108.296875 515.035156 108.011719 C 514.296875 107.730469 513.578125 107.417969 512.867188 107.066406 C 512.160156 106.71875 511.472656 106.339844 510.800781 105.925781 C 510.128906 105.515625 509.476562 105.070312 508.84375 104.597656 C 508.214844 104.128906 507.605469 103.625 507.019531 103.097656 C 506.4375 102.570312 505.875 102.015625 505.34375 101.4375 C 504.808594 100.855469 504.300781 100.253906 503.824219 99.625 C 503.34375 99 502.898438 98.351562 502.476562 97.683594 C 502.058594 97.015625 501.671875 96.328125 501.316406 95.625 C 500.71875 94.070312 500.277344 92.46875 499.992188 90.824219 C 499.710938 89.179688 499.59375 87.523438 499.644531 85.855469 C 499.691406 84.1875 499.902344 82.542969 500.277344 80.917969 C 500.65625 79.292969 501.1875 77.71875 501.875 76.199219 Z M 511.46875 79.597656 C 510.511719 81.648438 509.953125 83.800781 509.792969 86.058594 C 509.632812 88.3125 509.886719 90.523438 510.546875 92.6875 C 510.714844 93.105469 510.902344 93.515625 511.117188 93.917969 C 511.328125 94.316406 511.558594 94.707031 511.808594 95.082031 C 512.0625 95.460938 512.332031 95.820312 512.621094 96.171875 C 512.910156 96.519531 513.214844 96.851562 513.539062 97.167969 C 513.859375 97.484375 514.199219 97.785156 514.554688 98.066406 C 514.90625 98.347656 515.273438 98.613281 515.65625 98.855469 C 516.039062 99.101562 516.429688 99.324219 516.835938 99.527344 C 517.238281 99.730469 517.652344 99.914062 518.074219 100.074219 C 518.5 100.234375 518.929688 100.375 519.367188 100.492188 C 519.804688 100.605469 520.246094 100.699219 520.691406 100.773438 C 521.140625 100.84375 521.589844 100.890625 522.039062 100.914062 C 522.492188 100.941406 522.945312 100.941406 523.398438 100.917969 C 523.847656 100.898438 524.300781 100.851562 524.746094 100.78125 C 525.195312 100.714844 525.636719 100.621094 526.074219 100.507812 C 526.511719 100.394531 526.945312 100.257812 527.367188 100.097656 C 527.792969 99.941406 528.207031 99.761719 528.613281 99.558594 C 530.539062 98.367188 532.195312 96.875 533.578125 95.082031 C 534.960938 93.289062 535.984375 91.308594 536.648438 89.140625 C 537.605469 87.113281 538.175781 84.980469 538.355469 82.742188 C 538.535156 80.503906 538.3125 78.308594 537.691406 76.152344 C 537.363281 75.300781 536.945312 74.5 536.4375 73.742188 C 535.929688 72.984375 535.347656 72.292969 534.691406 71.660156 C 534.03125 71.03125 533.3125 70.480469 532.53125 70.011719 C 531.753906 69.539062 530.929688 69.15625 530.066406 68.867188 C 529.21875 68.507812 528.34375 68.246094 527.4375 68.078125 C 526.53125 67.914062 525.617188 67.847656 524.695312 67.878906 C 523.773438 67.914062 522.867188 68.046875 521.976562 68.277344 C 521.085938 68.507812 520.230469 68.835938 519.40625 69.253906 C 517.484375 70.441406 515.832031 71.933594 514.453125 73.726562 C 513.078125 75.523438 512.066406 77.503906 511.417969 79.671875 Z M 544.25 119.300781 L 552.164062 123.84375 L 568.070312 96.304688 L 569.210938 133.675781 L 577.734375 138.535156 L 602.210938 96.402344 L 594.296875 91.8125 L 577.929688 120.03125 L 576.933594 81.855469 L 568.628906 77 L 544.347656 119.226562 Z M 617.097656 137.269531 C 619.953125 134.023438 623.335938 131.484375 627.246094 129.644531 C 629.773438 128.589844 632.40625 127.992188 635.140625 127.847656 C 637.746094 127.703125 640.28125 128.066406 642.742188 128.941406 C 646.128906 130.257812 649.132812 132.175781 651.75 134.695312 C 652.960938 135.726562 654.054688 136.875 655.03125 138.132812 C 656.003906 139.394531 656.835938 140.742188 657.527344 142.175781 C 658.222656 143.609375 658.757812 145.101562 659.136719 146.648438 C 659.519531 148.195312 659.734375 149.761719 659.785156 151.355469 C 659.898438 157.554688 657.253906 163.550781 651.847656 169.347656 C 650.777344 170.644531 649.59375 171.820312 648.292969 172.882812 C 646.992188 173.941406 645.597656 174.867188 644.117188 175.652344 C 642.632812 176.4375 641.085938 177.070312 639.476562 177.550781 C 637.867188 178.03125 636.226562 178.347656 634.558594 178.503906 C 632.980469 178.558594 631.417969 178.449219 629.863281 178.175781 C 628.308594 177.902344 626.800781 177.472656 625.335938 176.886719 C 623.875 176.296875 622.488281 175.566406 621.175781 174.6875 C 619.867188 173.8125 618.660156 172.808594 617.558594 171.679688 C 616.339844 170.652344 615.238281 169.507812 614.253906 168.25 C 613.273438 166.992188 612.429688 165.644531 611.730469 164.210938 C 611.03125 162.777344 610.484375 161.285156 610.097656 159.738281 C 609.707031 158.1875 609.484375 156.617188 609.425781 155.019531 C 609.453125 153.359375 609.644531 151.714844 610 150.089844 C 610.351562 148.464844 610.863281 146.890625 611.53125 145.367188 C 612.195312 143.84375 613.007812 142.398438 613.960938 141.039062 C 614.914062 139.675781 615.992188 138.417969 617.195312 137.269531 Z M 624.746094 143.949219 C 623.089844 145.492188 621.765625 147.277344 620.773438 149.3125 C 619.78125 151.347656 619.1875 153.492188 618.992188 155.75 C 618.988281 156.203125 619.007812 156.65625 619.046875 157.109375 C 619.089844 157.558594 619.15625 158.007812 619.246094 158.453125 C 619.332031 158.898438 619.445312 159.339844 619.578125 159.773438 C 619.714844 160.207031 619.871094 160.632812 620.046875 161.046875 C 620.226562 161.464844 620.425781 161.871094 620.648438 162.269531 C 620.867188 162.667969 621.109375 163.050781 621.367188 163.421875 C 621.628906 163.792969 621.90625 164.152344 622.207031 164.492188 C 622.503906 164.835938 622.816406 165.164062 623.148438 165.472656 C 623.480469 165.785156 623.828125 166.078125 624.1875 166.351562 C 624.550781 166.625 624.925781 166.878906 625.3125 167.117188 C 625.699219 167.351562 626.101562 167.566406 626.511719 167.757812 C 626.921875 167.953125 627.339844 168.125 627.769531 168.277344 C 628.195312 168.425781 628.628906 168.554688 629.070312 168.660156 C 629.511719 168.765625 629.960938 168.847656 630.410156 168.910156 C 630.859375 168.96875 631.3125 169.003906 631.765625 169.015625 C 632.21875 169.027344 632.671875 169.019531 633.125 168.984375 C 635.375 168.597656 637.488281 167.824219 639.457031 166.667969 C 641.429688 165.507812 643.128906 164.039062 644.5625 162.257812 C 646.214844 160.738281 647.542969 158.972656 648.546875 156.964844 C 649.550781 154.957031 650.164062 152.835938 650.390625 150.601562 C 650.371094 149.691406 650.257812 148.789062 650.058594 147.902344 C 649.859375 147.011719 649.570312 146.152344 649.195312 145.320312 C 648.824219 144.488281 648.371094 143.699219 647.839844 142.960938 C 647.308594 142.21875 646.707031 141.539062 646.039062 140.917969 C 645.371094 140.296875 644.648438 139.75 643.871094 139.273438 C 643.09375 138.796875 642.277344 138.40625 641.417969 138.09375 C 640.5625 137.78125 639.683594 137.558594 638.78125 137.425781 C 637.878906 137.292969 636.972656 137.246094 636.0625 137.292969 C 633.832031 137.675781 631.742188 138.4375 629.792969 139.582031 C 627.84375 140.730469 626.160156 142.183594 624.746094 143.949219 Z M 640.09375 192.925781 L 646.140625 200.695312 L 662.480469 187.925781 L 675.0625 203.976562 L 681.570312 198.898438 L 669.039062 182.847656 L 678.121094 175.734375 L 692.691406 194.335938 L 699.199219 189.261719 L 678.460938 162.914062 L 640.042969 192.925781 Z M 694.730469 278.207031 L 689.875 268.664062 L 697.8125 259.851562 L 688.949219 242.488281 L 677.269531 243.921875 L 672.414062 234.621094 L 724.5 229.398438 L 729.234375 238.675781 L 694.632812 278.207031 Z M 703.691406 253.316406 L 716.753906 239.089844 L 697.644531 241.515625 L 703.691406 253.390625 Z M 696.597656 282.941406 L 699.804688 292.242188 L 719.035156 285.613281 L 719.691406 287.507812 C 720.304688 289.070312 720.667969 290.691406 720.785156 292.363281 C 720.761719 293.59375 720.445312 294.742188 719.839844 295.8125 C 718.296875 298.347656 716.605469 300.773438 714.761719 303.097656 L 706.96875 313.246094 L 710.804688 324.394531 L 717.871094 315.652344 C 719.984375 313.191406 721.871094 310.570312 723.527344 307.785156 C 724.550781 305.78125 725.273438 303.679688 725.691406 301.46875 C 726.417969 303.132812 727.40625 304.621094 728.660156 305.9375 C 729.910156 307.25 731.347656 308.3125 732.976562 309.121094 C 734.535156 309.742188 736.152344 310.050781 737.832031 310.050781 C 739.511719 310.050781 741.128906 309.742188 742.6875 309.121094 C 745.320312 308.25 747.511719 306.746094 749.269531 304.601562 C 750.070312 303.632812 750.6875 302.5625 751.125 301.382812 C 751.5625 300.203125 751.792969 298.988281 751.820312 297.730469 C 751.625 293.875 750.816406 290.148438 749.390625 286.5625 L 742.640625 267.109375 L 696.503906 282.992188 Z M 726.417969 283.089844 L 738.097656 279.058594 L 740.527344 286.34375 C 741.8125 290.105469 742.566406 292.390625 742.710938 293.191406 C 742.796875 293.539062 742.84375 293.890625 742.859375 294.246094 C 742.875 294.601562 742.855469 294.957031 742.800781 295.3125 C 742.75 295.664062 742.664062 296.007812 742.542969 296.347656 C 742.421875 296.683594 742.273438 297.003906 742.089844 297.3125 C 741.910156 297.621094 741.699219 297.90625 741.460938 298.175781 C 741.226562 298.441406 740.964844 298.683594 740.679688 298.898438 C 740.398438 299.117188 740.09375 299.304688 739.773438 299.464844 C 739.457031 299.621094 739.121094 299.75 738.777344 299.84375 C 737.542969 300.328125 736.277344 300.410156 734.992188 300.085938 C 733.808594 299.78125 732.863281 299.132812 732.148438 298.144531 C 730.671875 295.5625 729.523438 292.84375 728.703125 289.984375 L 726.273438 283.113281 Z M 711.507812 329.226562 L 759.394531 319.925781 L 762.1875 334.375 L 731.226562 349.40625 L 765.5625 351.664062 L 768.378906 366.234375 L 720.492188 375.53125 L 718.769531 366.546875 L 756.433594 359.261719 L 716.898438 357.078125 L 715.101562 347.753906 L 750.945312 330.972656 L 713.257812 338.257812 L 711.484375 329.273438 Z M 719.644531 385.292969 L 768.378906 383.59375 L 769.640625 419.726562 L 761.386719 420.019531 L 760.464844 393.722656 L 749.65625 394.109375 L 750.507812 418.5625 L 742.300781 418.851562 L 741.449219 394.402344 L 728.191406 394.863281 L 729.136719 422.082031 L 720.929688 422.351562 Z M 719.8125 431.019531 L 768.160156 437.089844 L 767.019531 446.585938 L 732.246094 462.417969 L 764.566406 466.230469 L 763.472656 475.285156 L 715.054688 469.335938 L 716.269531 459.625 L 750.265625 443.984375 L 718.695312 440.101562 L 719.8125 431.042969 Z M 711.945312 478.90625 L 759.636719 489.054688 L 757.597656 498.769531 L 709.882812 488.640625 L 711.945312 478.929688 Z M 691.621094 538.421875 L 744.144531 537.667969 L 747.882812 527.957031 L 709.03125 492.746094 L 705.292969 502.457031 L 714.179688 510.179688 L 707.210938 528.367188 L 695.335938 528.367188 L 691.5 538.347656 Z M 716.121094 528.417969 L 720.980469 515.984375 L 735.550781 528.636719 Z M 716.121094 528.417969 " fill-opacity="1" fill-rule="evenodd"/><path fill="#0067ac" d="M 182.410156 402.339844 L 217.402344 353.339844 L 264.074219 379.003906 L 274.953125 414.019531 L 357.515625 474.726562 L 495.175781 379.054688 L 562.824219 358.074219 L 618.070312 410.960938 L 604.058594 459.164062 L 617.269531 469.289062 L 635.164062 407.851562 L 653.058594 389.957031 L 653.058594 441.945312 L 640.601562 489.394531 L 655.003906 496.679688 C 659.851562 482.820312 663.441406 468.640625 665.769531 454.144531 C 668.097656 439.648438 669.132812 425.058594 668.867188 410.378906 C 667.070312 262.667969 550.976562 142.296875 406.394531 142.296875 C 261.816406 142.296875 143.949219 262.667969 143.949219 410.378906 C 143.933594 426.050781 145.261719 441.609375 147.941406 457.050781 C 150.621094 472.492188 154.609375 487.585938 159.902344 502.335938 L 175.25 494.179688 L 158.25 439.832031 L 157.183594 405.523438 L 168.230469 407.539062 L 194.261719 478.953125 L 205.3125 471.910156 Z M 182.410156 402.339844 " fill-opacity="1" fill-rule="evenodd"/><path fill="#ffffff" d="M 338.089844 165.367188 L 325.535156 191.832031 L 222.625 254.484375 L 208.054688 254.484375 C 240.835938 205.941406 287.433594 179.375 338.089844 165.367188 Z M 338.089844 165.367188 " fill-opacity="1" fill-rule="evenodd"/><path fill="#ffffff" d="M 330.972656 204.800781 L 228.304688 268.566406 L 225.175781 340.90625 L 266.40625 364.242188 L 376.066406 285.6875 L 387.746094 220.34375 Z M 330.972656 204.800781 " fill-opacity="1" fill-rule="evenodd"/><path fill="#ffffff" d="M 402.511719 220.34375 L 484.175781 199.335938 L 563.503906 273.230469 L 556.511719 342.460938 L 494.300781 362.6875 L 393.964844 285.6875 Z M 402.511719 220.34375 " fill-opacity="1" fill-rule="evenodd"/><path fill="#ffffff" d="M 486.84375 169.738281 L 488.496094 184.792969 L 574.699219 265.335938 L 612.386719 266.164062 C 576.59375 217.839844 538.203125 185.109375 486.84375 169.738281 Z M 486.84375 169.738281 " fill-opacity="1" fill-rule="evenodd"/><path fill="#f58220" d="M 218.542969 559.207031 C 339.085938 676.371094 473.976562 672.65625 594.054688 560.59375 L 701.503906 645.386719 C 631.59375 732.804688 524.53125 788.898438 404.914062 788.898438 C 283.648438 788.898438 175.296875 731.25 105.460938 641.769531 Z M 218.542969 559.207031 " fill-opacity="1" fill-rule="evenodd"/><path stroke-linecap="butt" transform="matrix(2.428276, 0, 0, 2.428276, 0.0000035, 0.000137187)" fill-opacity="1" fill="#ffffff" fill-rule="evenodd" stroke-linejoin="miter" d="M 119.000012 292.209927 L 114.399268 301.720276 L 109.800133 299.669245 L 114.399268 290.160504 C 114.558525 289.898294 114.692043 289.624823 114.799823 289.338483 C 114.909211 289.052143 114.989643 288.75776 115.042729 288.456942 C 115.095814 288.156124 115.121553 287.852089 115.118336 287.546445 C 115.115118 287.240801 115.082945 286.936766 115.023425 286.637557 C 114.963905 286.336739 114.877038 286.045573 114.762824 285.760842 C 114.648609 285.47611 114.510265 285.205857 114.344574 284.948472 C 114.180492 284.68948 113.993888 284.44979 113.784763 284.226188 C 113.575639 284.002585 113.34721 283.801504 113.099478 283.619726 C 112.126243 282.873312 111.075794 282.257198 109.949737 281.769777 L 100.140179 277.41033 L 101.729527 274.099725 L 112.30963 278.800205 C 113.83624 279.479057 115.432023 279.775048 117.100195 279.68979 C 118.786062 279.602923 120.119634 278.536387 121.099303 276.490182 C 122.740128 273.076623 121.586724 270.493128 117.640702 268.739697 L 106.640741 263.860657 L 108.220437 260.599919 L 118.079863 264.98993 C 119.841337 265.745996 121.5079 266.67258 123.079553 267.76968 C 124.258695 268.567572 125.228712 269.566544 125.989604 270.769816 C 126.610544 271.81544 126.895275 272.944713 126.840581 274.159245 C 126.800365 274.801097 126.692585 275.431689 126.520459 276.049411 C 126.320986 276.765261 126.057168 277.453764 125.730611 278.119746 C 124.549861 280.56007 123.150334 282.020726 121.559377 282.490453 C 120.365758 282.92318 119.135139 283.07761 117.870739 282.950527 C 118.340465 283.346255 118.744237 283.803112 119.080445 284.31949 C 119.653125 285.266986 119.966812 286.293305 120.019897 287.400058 C 120.074592 288.233339 120.015072 289.058578 119.841337 289.875773 C 119.667603 290.692968 119.387697 291.469947 119.000012 292.209927 Z M 119.000012 292.209927 " stroke="#ffffff" stroke-width="0.22" stroke-opacity="1" stroke-miterlimit="22.93"/><path stroke-linecap="butt" transform="matrix(2.428276, 0, 0, 2.428276, 0.0000035, 0.000137187)" fill-opacity="1" fill="#ffffff" fill-rule="evenodd" stroke-linejoin="miter" d="M 150.140293 284.629959 C 150.109729 284.248709 150.122598 283.869067 150.178901 283.491034 C 150.235203 283.114609 150.333331 282.747837 150.473284 282.392325 C 150.614845 282.036813 150.793406 281.702213 151.010574 281.386917 C 151.227742 281.07323 151.477083 280.78689 151.760205 280.529506 C 152.347363 280.062997 152.987607 279.684964 153.680936 279.398624 C 154.374264 279.110675 155.09494 278.924072 155.839746 278.840422 C 157.792649 278.586255 159.753596 278.507431 161.719368 278.600733 L 167.05044 278.779293 L 166.989311 288.239774 L 169.529373 288.329858 C 171.532144 288.373292 173.486656 288.707892 175.389691 289.33044 C 176.895389 289.817861 178.259526 290.564276 179.480492 291.569683 C 180.489117 292.398139 181.282182 293.39872 181.859688 294.569819 C 182.105812 295.094239 182.29885 295.637963 182.440412 296.199383 C 182.577147 296.75115 182.643102 297.310961 182.639884 297.880424 L 182.639884 301.599627 C 182.635058 302.392692 182.51441 303.166454 182.276329 303.920911 C 182.03664 304.676978 181.692389 305.379958 181.240357 306.029854 C 180.693416 306.803615 180.048346 307.484075 179.305149 308.071233 C 178.561952 308.658391 177.749583 309.128117 176.869651 309.480412 C 174.511367 310.439168 172.06139 310.833288 169.519721 310.659554 L 148.000786 310.659554 L 147.799705 306.779485 L 161.799801 306.779485 L 161.899537 291.23991 L 160.630311 291.23991 C 158.140118 291.164303 155.75127 290.638274 153.46055 289.660213 C 152.424578 289.241964 151.58808 288.575982 150.949445 287.660659 C 150.360678 286.746945 150.080773 285.746364 150.109729 284.660524 Z M 169.529373 291.519815 L 166.989311 291.42973 L 166.989311 306.12959 L 169.529373 306.219675 C 170.562127 306.235761 171.582012 306.136025 172.590637 305.920465 C 176.729698 305.109705 177.410158 302.389475 177.410158 298.760356 C 177.468069 297.923858 177.365115 297.108271 177.104514 296.311988 C 176.843912 295.517315 176.441749 294.798247 175.899634 294.159612 C 175.010049 293.168683 173.930644 292.472137 172.659809 292.069974 C 171.646358 291.761113 170.608778 291.577726 169.550285 291.519815 Z M 161.930102 288.059605 L 161.930102 281.740821 L 160.739699 281.740821 L 159.420605 281.689344 C 158.646843 281.655562 157.882734 281.727952 157.129885 281.909729 C 156.508945 282.04003 155.989351 282.342457 155.569493 282.820226 C 155.352325 283.067959 155.197894 283.351081 155.109418 283.669594 C 154.990378 284.078192 154.934075 284.494833 154.94051 284.919517 C 154.914771 285.310419 154.983943 285.683626 155.149635 286.039138 C 155.315326 286.39465 155.555015 286.687425 155.870311 286.92068 C 156.62316 287.422579 157.450007 287.726614 158.349243 287.829568 C 159.538037 287.979172 160.731656 288.056388 161.930102 288.059605 Z M 161.930102 288.059605 " stroke="#ffffff" stroke-width="0.22" stroke-opacity="1" stroke-miterlimit="22.93"/><path stroke-linecap="butt" transform="matrix(2.428276, 0, 0, 2.428276, 0.0000035, 0.000137187)" fill-opacity="1" fill="#ffffff" fill-rule="evenodd" stroke-linejoin="miter" d="M 200.999427 278.919246 C 200.807997 278.589472 200.656784 278.240395 200.545787 277.875231 C 200.433182 277.510067 200.36401 277.13686 200.338271 276.755609 C 200.312533 276.37275 200.330228 275.994717 200.391357 275.616684 C 200.452485 275.23865 200.555439 274.873487 200.700218 274.519583 C 201.390329 273.142577 202.390911 272.050303 203.700353 271.239542 C 205.357265 270.179441 207.094608 269.268944 208.910776 268.50966 L 213.799469 266.400718 L 217.800186 274.960354 L 220.129514 273.959772 C 221.952116 273.131317 223.855151 272.584375 225.840227 272.320556 C 227.408663 272.109823 228.957794 272.203125 230.489231 272.600462 C 231.769718 272.917366 232.919904 273.493263 233.939789 274.329762 C 234.39182 274.6901 234.802026 275.093872 235.170408 275.539468 C 235.524311 275.985065 235.820303 276.464443 236.059992 276.979212 L 237.64934 280.339685 C 237.985548 281.058753 238.207542 281.811602 238.315322 282.596624 C 238.42471 283.383254 238.416667 284.166668 238.289583 284.950081 C 238.127109 285.886316 237.834335 286.779118 237.411259 287.630095 C 236.989793 288.481072 236.45572 289.253225 235.810651 289.949771 C 234.089394 291.831893 232.043189 293.237855 229.670427 294.169264 L 210.239523 303.370752 L 208.399225 299.950759 L 221.070575 293.950488 L 214.510493 279.869959 L 213.950682 280.109648 L 213.350655 280.37025 C 211.067978 281.357962 208.683956 281.901686 206.200198 281.999814 C 205.096663 282.065769 204.059083 281.832514 203.090674 281.30005 C 202.156048 280.717718 201.472371 279.921436 201.039643 278.909594 Z M 221.459869 276.839259 L 219.130541 277.83984 L 225.410717 291.130521 L 227.740045 290.12994 C 228.673063 289.697212 229.549778 289.169575 230.370191 288.550244 C 233.769272 286.040747 233.220722 283.289953 231.669981 280.009912 C 231.364338 279.231324 230.923567 278.537995 230.34767 277.929925 C 229.771772 277.321855 229.102573 276.845694 228.340072 276.499833 C 227.109454 275.983456 225.832184 275.816156 224.509872 275.999543 C 223.457814 276.149147 222.441146 276.425835 221.459869 276.829607 Z M 213.120618 276.96956 L 210.419692 271.260455 C 210.199306 271.350539 209.840577 271.500144 209.330634 271.730181 L 208.11932 272.249776 C 207.398644 272.545767 206.731053 272.935061 206.119765 273.419265 C 205.622692 273.805342 205.288093 274.302415 205.120793 274.910486 C 205.043577 275.243476 205.043577 275.576467 205.120793 275.909458 C 205.185139 276.329316 205.312222 276.729871 205.500435 277.109512 C 205.646822 277.466633 205.868816 277.765842 206.166416 278.010357 C 206.464017 278.254873 206.801834 278.415738 207.179867 278.489736 C 208.075886 278.620036 208.952601 278.541213 209.810013 278.250047 C 210.952155 277.902578 212.06856 277.485937 213.159226 277.000124 Z M 213.120618 276.96956 " stroke="#ffffff" stroke-width="0.22" stroke-opacity="1" stroke-miterlimit="22.93"/></svg>