<svg xmlns="http://www.w3.org/2000/svg" viewBox="0 0 333.57 333.57"><defs><style>.cls-1,.cls-3,.cls-6{fill:#fff;}.cls-1,.cls-6{stroke:#fff;stroke-miterlimit:22.93;stroke-width:0.22px;}.cls-2{fill:#ed1c24;}.cls-2,.cls-3,.cls-4,.cls-5,.cls-6{fill-rule:evenodd;}.cls-4{fill:#0067ac;}.cls-5{fill:#f58220;}</style></defs><title>Eszköz 1</title><g id="Réteg_2" data-name="Réteg 2"><g id="Layer_1" data-name="Layer 1"><circle class="cls-1" cx="166.79" cy="166.79" r="166.68" transform="translate(-31.41 38.9) rotate(-12.17)"/><path class="cls-2" d="M293.68,260a160.09,160.09,0,0,0,29.95-93.16c0-87.08-70.46-158.1-156.84-158.1S9.94,79.71,9.94,166.79A158,158,0,0,0,39,258.2l75.06-52L128,217.64,105.05,235l16,13.16,80.09-58.93L293.68,260Zm-16.44-39.83-74.59-56.9-55.57,41.31-32.49-25.25L55.94,218.8a123.29,123.29,0,0,1-11.45-52c0-67.9,54.94-123.28,122.3-123.28S289.08,98.89,289.08,166.79A126.74,126.74,0,0,1,277.24,220.12Z"/><path class="cls-3" d="M48.13,220.09l-18.75,7.19-4.93-12.85,3.17-1.22,3.49,9.07,4.43-1.7-3-7.83,3.17-1.22,3,7.83,8-3.06,1.45,3.79Zm-15.71-13.2a12.76,12.76,0,0,1-5.24.18,9.36,9.36,0,0,1-3.07-1.26,7.74,7.74,0,0,1-2.31-2.16,11,11,0,0,1-1.68-4.07,9.4,9.4,0,0,1,1.22-7.52q2.13-3.18,6.93-4.2a10.55,10.55,0,0,1,8,1,9.36,9.36,0,0,1,4.16,6.35,9.49,9.49,0,0,1-1.19,7.54,10.37,10.37,0,0,1-6.81,4.14Zm-1-4.06a7.5,7.5,0,0,0,4.73-2.61,5.15,5.15,0,0,0,.89-4.28,5.09,5.09,0,0,0-2.54-3.52,7.62,7.62,0,0,0-5.44-.44,7.53,7.53,0,0,0-4.72,2.56A5.59,5.59,0,0,0,26,202.41a7.55,7.55,0,0,0,5.39.42Zm-3.65-18.65a12.89,12.89,0,0,1-5.2-.55A9.54,9.54,0,0,1,19.69,182a7.8,7.8,0,0,1-2-2.46,11.27,11.27,0,0,1-1.1-4.27A9.43,9.43,0,0,1,18.86,168c1.7-1.9,4.19-3,7.45-3.19a10.49,10.49,0,0,1,7.77,2.1,9.38,9.38,0,0,1,3.24,6.86,9.51,9.51,0,0,1-2.23,7.3,10.4,10.4,0,0,1-7.33,3.16ZM27.34,180a7.53,7.53,0,0,0,5-1.93,5.41,5.41,0,0,0-.54-8,7.7,7.7,0,0,0-5.33-1.19,7.61,7.61,0,0,0-5,1.88,5.6,5.6,0,0,0,.59,8A7.53,7.53,0,0,0,27.34,180Zm10-23.45-16.61-1.46-.52,5.94-3.39-.3,1.39-15.89,3.39.29-.52,5.93,16.62,1.45-.36,4Zm-18-17.1,1.8-7.82a24.12,24.12,0,0,1,1-3.42,5.35,5.35,0,0,1,1.29-1.86,5.23,5.23,0,0,1,2-1.12,4.77,4.77,0,0,1,6,3.66,5.37,5.37,0,0,1,2.41-2.34,4.85,4.85,0,0,1,3.18-.28,6.08,6.08,0,0,1,2.45,1.22A5.37,5.37,0,0,1,41,129.67a5.79,5.79,0,0,1,.32,2.87c-.09.67-.41,2.27-1,4.79L38.85,144l-19.56-4.52Zm4.16-3.2,4.53,1,.6-2.59c.35-1.54.55-2.5.59-2.89a2.62,2.62,0,0,0-.33-1.75,2.11,2.11,0,0,0-1.39-.94,2.23,2.23,0,0,0-1.59.17,2.29,2.29,0,0,0-1,1.32c-.14.38-.42,1.5-.85,3.36l-.53,2.27Zm7.79,1.8,5.23,1.21.84-3.66a18.81,18.81,0,0,0,.51-2.73,2.44,2.44,0,0,0-.46-1.62,2.4,2.4,0,0,0-1.52-.94,2.61,2.61,0,0,0-1.6.09,2.4,2.4,0,0,0-1.18,1A14.09,14.09,0,0,0,32,134.88l-.73,3.19Zm19.17-30.4-21.63-.07-1.61,4,15.69,14.77,1.61-4-3.6-3.25,3-7.44,4.88.08,1.65-4.09Zm-10.16,4-2,5.08-5.9-5.31,8,.23Zm11.53-5.93-17.25-10,2-3.51,14.32,8.26,5-8.73,2.94,1.7-7.07,12.23Zm8.89-14.42L45,79l2.49-3.19L60.5,86l6.21-7.94,2.66,2.08-8.7,11.13ZM76.35,72.54,63.18,57.38l10.39-9,2.23,2.56-7.33,6.38,3.11,3.58,6.34-5.5,2.23,2.57-6.33,5.5,5.59,6.44-3.06,2.66Zm13-11.23,13-8.09-1.79-2.87L91,56.29l-2.89-4.63,8.55-5.34-1.8-2.87-8.55,5.34L84,45l9.18-5.74-1.8-2.88L78.74,44.28l10.64,17Zm7.5-28.47,6.77-3a14.81,14.81,0,0,1,3.65-1.21,6.68,6.68,0,0,1,3.51.46,8.82,8.82,0,0,1,3.08,2.19,14.83,14.83,0,0,1,2.53,4.07,13.23,13.23,0,0,1,1.17,4.16,8.82,8.82,0,0,1-.52,4.11,6.92,6.92,0,0,1-1.95,2.62,12.13,12.13,0,0,1-3.1,1.85l-7,3.11L96.88,32.84ZM102,34.3l1.66-.74a17.44,17.44,0,0,1,3.12-1.18,3.85,3.85,0,0,1,2.09.1,4.59,4.59,0,0,1,1.85,1.31,11.94,11.94,0,0,1,1.82,3.1,12.94,12.94,0,0,1,1.13,3.52,4.25,4.25,0,0,1-.19,2.2A3.7,3.7,0,0,1,112.3,44a10.77,10.77,0,0,1-2.16,1.17l-2.76,1.24L102,34.3ZM123.38,43l-5.54-19.3,14.31-4.1.94,3.26-10.41,3,1.22,4.28,9.69-2.78.94,3.25-9.69,2.78,1.5,5.25,10.78-3.09.94,3.25L123.38,43Zm18.15-5-2.45-19.94,8.47-1a14.62,14.62,0,0,1,4.71,0,4.61,4.61,0,0,1,2.55,1.62,5.81,5.81,0,0,1,1.26,3,5.36,5.36,0,0,1-.87,3.86,6.31,6.31,0,0,1-3.72,2.33,9.51,9.51,0,0,1,2.36,1.41,23,23,0,0,1,2.69,2.95l2.92,3.6-4.82.59-3.44-4a28.81,28.81,0,0,0-2.48-2.67,3.18,3.18,0,0,0-1.31-.68,7.08,7.08,0,0,0-2.05,0l-.82.1,1,8.32-4,.5Zm2.61-12,3-.37A15.68,15.68,0,0,0,150.7,25a2.11,2.11,0,0,0,1-1,2.56,2.56,0,0,0,.23-1.54,2.38,2.38,0,0,0-.74-1.56,2.47,2.47,0,0,0-1.61-.6q-.49,0-2.94.3l-3.14.38.62,5.06Zm35.4,10.07-7.69-20.22-4.29-.07-8.17,19.94,4.3.08,1.74-4.54,8,.15L175.13,36l4.41.08ZM172.21,28l-5.48-.1,2.84-7.4,2.64,7.5ZM184,37.1l2-16.56-5.92-.72.42-3.38,15.84,1.95L196,21.76l-5.9-.72L188,37.6l-4-.5Zm12.42,2.16,4.52-19.57,3.95.91-4.52,19.57-4-.91Zm10.26-7.85a12.64,12.64,0,0,1,2.7-4.48,9.57,9.57,0,0,1,2.73-1.9,7.8,7.8,0,0,1,3.08-.76,11.22,11.22,0,0,1,4.32.81,9.35,9.35,0,0,1,5.64,5.12c1,2.34.92,5.05-.25,8.1a10.54,10.54,0,0,1-5.19,6.16,10.56,10.56,0,0,1-13.26-5.08,10.35,10.35,0,0,1,.23-8Zm3.95,1.37a7.54,7.54,0,0,0-.38,5.39A5.42,5.42,0,0,0,217.69,41,7.69,7.69,0,0,0,221,36.71a7.61,7.61,0,0,0,.43-5.35,5.13,5.13,0,0,0-3.14-3,5.2,5.2,0,0,0-4.39.16,7.59,7.59,0,0,0-3.29,4.29Zm13.5,16.35L227.39,51l6.55-11.34.47,15.39,3.51,2L248,39.7l-3.26-1.89L238,49.43l-.41-15.72-3.42-2-10,17.39Zm30,7.4a12.82,12.82,0,0,1,4.18-3.14,9.74,9.74,0,0,1,3.25-.74,8,8,0,0,1,3.13.45,11.18,11.18,0,0,1,3.71,2.37,9.41,9.41,0,0,1,3.31,6.86q.07,3.83-3.27,7.41a10.49,10.49,0,0,1-7.12,3.77,9.33,9.33,0,0,1-7-2.81,9.43,9.43,0,0,1-3.35-6.86,10.35,10.35,0,0,1,3.2-7.31Zm3.15,2.75a7.52,7.52,0,0,0-2.37,4.86,5.41,5.41,0,0,0,5.82,5.45,7.72,7.72,0,0,0,4.71-2.77,7.55,7.55,0,0,0,2.4-4.8,5.61,5.61,0,0,0-5.9-5.48,7.61,7.61,0,0,0-4.66,2.74Zm6.32,20.17,2.49,3.2,6.73-5.26L278,84l2.68-2.09-5.16-6.61,3.74-2.93,6,7.66,2.68-2.09L279.4,67.09,263.58,79.45Zm22.5,35.12-2-3.93,3.27-3.63-3.65-7.15-4.81.59-2-3.83,21.45-2.15,1.95,3.82-14.25,16.28Zm3.69-10.25,5.38-5.86-7.87,1,2.49,4.89Zm-2.92,12.2,1.32,3.83,7.92-2.73.27.78a6.82,6.82,0,0,1,.45,2,3,3,0,0,1-.39,1.42,29.36,29.36,0,0,1-2.09,3L291.14,129l1.58,4.59,2.91-3.6a23.07,23.07,0,0,0,2.33-3.24,9.68,9.68,0,0,0,.89-2.6,6.36,6.36,0,0,0,3,3.15,5.4,5.4,0,0,0,4,0,5.9,5.9,0,0,0,2.71-1.86,4.58,4.58,0,0,0,1.05-2.83,14.39,14.39,0,0,0-1-4.6L305.83,110l-19,6.54Zm12.28.06,4.81-1.66,1,3c.53,1.55.84,2.49.9,2.82a2.29,2.29,0,0,1-1.62,2.74,2.57,2.57,0,0,1-1.56.1,2.09,2.09,0,0,1-1.17-.8,15.26,15.26,0,0,1-1.42-3.36l-1-2.83Zm-6.14,19,19.72-3.83,1.15,5.95-12.75,6.19,14.14.93,1.16,6-19.72,3.83-.71-3.7,15.51-3-16.28-.9-.74-3.84,14.76-6.91-15.52,3L293,135.6Zm3.35,23.09,20.07-.7.52,14.88-3.4.12-.38-10.83-4.45.16.35,10.07-3.38.12-.35-10.07-5.46.19.39,11.21-3.38.11-.53-15.26Zm.07,18.83L316.34,180l-.47,3.91-14.32,6.52L314.86,192l-.45,3.73-19.94-2.45.5-4,14-6.44-13-1.6.46-3.73Zm-3.24,19.72,19.64,4.18-.84,4-19.65-4.17.85-4Zm-8.37,24.51,21.63-.31,1.54-4-16-14.5-1.54,4,3.66,3.18-2.87,7.49h-4.89l-1.58,4.11Zm10.09-4.12,2-5.12,6,5.21Z"/><path class="cls-4" d="M75.12,165.69l14.41-20.18,19.22,10.57,4.48,14.42,34,25,56.69-39.4,27.86-8.64,22.75,21.78-5.77,19.85,5.44,4.17,7.37-25.3,7.37-7.37V182l-5.13,19.54,5.93,3A102.09,102.09,0,0,0,275.45,169C274.71,108.17,226.9,58.6,167.36,58.6S59.28,108.17,59.28,169a111.75,111.75,0,0,0,6.57,37.87l6.32-3.36-7-22.38L64.73,167l4.55.83L80,197.24l4.55-2.9Z"/><path class="cls-3" d="M139.23,68.1,134.06,79,91.68,104.8l-6,0C99.18,84.81,118.37,73.87,139.23,68.1Z"/><polygon class="cls-3" points="136.3 84.34 94.02 110.6 92.73 140.39 109.71 150 154.87 117.65 159.68 90.74 136.3 84.34"/><polygon class="cls-3" points="165.76 90.74 199.39 82.09 232.06 112.52 229.18 141.03 203.56 149.36 162.24 117.65 165.76 90.74"/><path class="cls-3" d="M200.49,69.9l.68,6.2,35.5,33.17,15.52.34C237.45,89.71,221.64,76.23,200.49,69.9Z"/><path class="cls-5" d="M90,230.29c49.64,48.25,105.19,46.72,154.64.57l44.25,34.92c-28.79,36-72.88,59.1-122.14,59.1-49.94,0-94.56-23.74-123.32-60.59Z"/><path class="cls-6" d="M119,292.21l-4.6,9.51-4.6-2.05,4.6-9.51a4.93,4.93,0,0,0-1.3-6.54,14.94,14.94,0,0,0-3.15-1.85l-9.81-4.36,1.59-3.31,10.58,4.7a10.46,10.46,0,0,0,4.79.89q2.53-.13,4-3.2,2.46-5.12-3.46-7.75l-11-4.88,1.58-3.26,9.86,4.39a28.1,28.1,0,0,1,5,2.78,10.21,10.21,0,0,1,2.91,3,6.1,6.1,0,0,1,.85,3.39,9.12,9.12,0,0,1-.32,1.89,12,12,0,0,1-.79,2.07c-1.18,2.44-2.58,3.9-4.17,4.37a8.36,8.36,0,0,1-3.69.46,6.24,6.24,0,0,1,1.21,1.37,6.55,6.55,0,0,1,.94,3.08A9.09,9.09,0,0,1,119,292.21Z"/><path class="cls-6" d="M150.14,284.63a5,5,0,0,1,1.62-4.1,8,8,0,0,1,4.08-1.69,33.42,33.42,0,0,1,5.88-.24l5.33.18-.06,9.46,2.54.09a20.27,20.27,0,0,1,5.86,1,12.47,12.47,0,0,1,4.09,2.24,9.06,9.06,0,0,1,2.38,3,8.93,8.93,0,0,1,.58,1.63,6.79,6.79,0,0,1,.2,1.68v3.72a7.84,7.84,0,0,1-1.4,4.43,9.8,9.8,0,0,1-4.37,3.45,16.54,16.54,0,0,1-7.35,1.18H148l-.2-3.88h14l.1-15.54-.61,0-.66,0a19.8,19.8,0,0,1-7.17-1.58,5.63,5.63,0,0,1-2.51-2,5.26,5.26,0,0,1-.84-3Zm19.39,6.89-2.54-.09,0,14.7,2.54.09a13.58,13.58,0,0,0,3.06-.3c4.14-.81,4.82-3.53,4.82-7.16a6.43,6.43,0,0,0-1.51-4.6,7.33,7.33,0,0,0-3.24-2.09,13.1,13.1,0,0,0-3.11-.55Zm-7.6-3.46v-6.32l-1.19,0-1.32-.05a8.21,8.21,0,0,0-2.29.22,2.85,2.85,0,0,0-1.56.91,2.16,2.16,0,0,0-.46.85,4.2,4.2,0,0,0-.17,1.25,2.3,2.3,0,0,0,.93,2,5.62,5.62,0,0,0,2.48.91A29.49,29.49,0,0,0,161.93,288.06Z"/><path class="cls-6" d="M201,278.92a5,5,0,0,1-.3-4.4,8.15,8.15,0,0,1,3-3.28,34,34,0,0,1,5.21-2.73l4.89-2.11,4,8.56,2.33-1a20.25,20.25,0,0,1,5.71-1.64,12.15,12.15,0,0,1,4.65.28,8.76,8.76,0,0,1,3.45,1.73,8.32,8.32,0,0,1,1.23,1.21,7.19,7.19,0,0,1,.89,1.44l1.59,3.36a7.93,7.93,0,0,1,.64,4.61,9.84,9.84,0,0,1-2.48,5,16.47,16.47,0,0,1-6.14,4.22l-19.43,9.2-1.84-3.42,12.67-6-6.56-14.08-.56.24-.6.26A20,20,0,0,1,206.2,282a5.76,5.76,0,0,1-3.11-.7,5.25,5.25,0,0,1-2.05-2.39Zm20.46-2.08-2.33,1,6.28,13.29,2.33-1a14.5,14.5,0,0,0,2.63-1.58c3.4-2.51,2.85-5.26,1.3-8.54a6.43,6.43,0,0,0-3.33-3.51,7.3,7.3,0,0,0-3.83-.5,12.66,12.66,0,0,0-3.05.83Zm-8.34.13-2.7-5.71c-.22.09-.58.24-1.09.47l-1.21.52a8.28,8.28,0,0,0-2,1.17,2.85,2.85,0,0,0-1,1.49,2.25,2.25,0,0,0,0,1,4.12,4.12,0,0,0,.38,1.2,2.3,2.3,0,0,0,1.68,1.38,5.65,5.65,0,0,0,2.63-.24A29,29,0,0,0,213.16,277Z"/></g></g></svg>