<svg xmlns="http://www.w3.org/2000/svg" viewBox="0 0 327.96 120.46"><defs><style>.cls-1{fill:#fff;}.cls-1,.cls-2,.cls-3{fill-rule:evenodd;}.cls-2{fill:#ed1b2e;}.cls-3{fill:#231f20;}</style></defs><title>Eszköz 1</title><g id="Réteg_2" data-name="Réteg 2"><g id="Layer_1" data-name="Layer 1"><path class="cls-1" d="M0,60.26C0,27,73.44,0,164,0S328,27,328,60.26s-73.44,60.2-163.94,60.2S0,93.53,0,60.26Z"/><path class="cls-2" d="M168.77,13.1A279.42,279.42,0,0,1,203.18,11c66.17,0,119.74,22.24,119.74,49.75,0,15-16,28.44-41.33,37.58,13.75-7.63,21.82-17.13,21.82-27.36,0-25.41-49-47.52-121.47-46-4.46.08-8.85.29-13.17.51V13.1Zm0,103.61v-.93l5.61.21c3.68.07,5.62.07,8.43.36-3.39.29-9.22.36-14,.36ZM168.77,8V3.46a406.69,406.69,0,0,1,74.45,7.41,406.61,406.61,0,0,0-52.78-3.38C182.81,7.49,175.68,7.63,168.77,8ZM94.46,40c14.26-12.89,41.33-22.75,74.31-26.86V25.49C139.61,27.07,113.18,32,94.46,40Zm74.31-36.5h-4.54C76.32,3.46,5,28.8,5,60s71.93,57.45,159.84,56.73h4v-.93C108.72,113,50.69,97.27,37.51,74a22.41,22.41,0,0,1-4-12.32c0-19.58,29.59-36.79,74-45.72,22.32-4.46,40.75-7,61.27-8Z"/><path class="cls-3" d="M278.71,88.63V87.26a2.2,2.2,0,0,1,.58-.28c1.65-2.16,2.81-6.48,3-9.72a5.2,5.2,0,0,0-1-1.88c-.36-.5.22-1.08.65-.64s1,.93,1.37,1.29l.29-.14a1.26,1.26,0,0,1,.57-.22l-.28-1.94c0-.29.14-.51.43-.51a22,22,0,0,1,1.29,6.27,23.73,23.73,0,0,1-4.1,15.05,2.1,2.1,0,0,1-.36-.22c-.36-.36.14-1.3.29-1.8a12.81,12.81,0,0,0-1.66-4.18c-.36.08-.72.22-1.08.29Zm0-18.07V69.05c.43.43.79.93.58,1.29a.42.42,0,0,1-.58.22Zm0-5V64.3c.51.57,1,1.08,1.51,1.65a3.23,3.23,0,0,1-.5.15A4.24,4.24,0,0,1,278.71,65.59Zm-22.39,39.1c-.07-.87,1.15-.51,1.73-.58a45.51,45.51,0,0,0,8.93-2.73l-.08-.8a.64.64,0,0,1,1.23-.28c.07.14.29.64.29.64a53.83,53.83,0,0,0,6.4-1.08l.44-.21c.36-.22,1.29-.87,1.72-.65.15,0,.22.14.29.29a25.18,25.18,0,0,1-14.61,6,26.09,26.09,0,0,1-6.34-.36v-.21ZM278.71,64.3v1.29c-.29-.14-.5-.29-.57-.14-.08,1.08.07,1.37.07,3,.14.22.36.43.5.65v1.51c-.36-.22-.86-.79-1.29-1-1.52.43-4.76,1.37-7.35,2.31-.29.36-1,1.65-1,1.65-.43.65-1.08.36-1-.21s.07-1.37.14-2a26.24,26.24,0,0,0-6.26-5.61c-.58.07-1.8.14-1.88.14-.5,0-.72-.72-.21-.86.14-.08.93-.51,1.37-.72.72-2.16,1.08-2.88,1.29-3.68s.51-1.29.79-2.23c-.28-.65-1.8-.57-1.8-1.37a25.07,25.07,0,0,1,17.21,7.28Zm0,23v1.37a3.7,3.7,0,0,1-.86.15c-.58.07-.87-.8-.29-1a9.25,9.25,0,0,1,1.15-.51ZM255,94.61c-.57.14-.79-.58-.36-.94l1.73-1.51c.22-2.16.51-4.9.94-8.21-.51-.57-.87-1.22-1.37-1.8a.46.46,0,0,1,.65-.65,21.39,21.39,0,0,1,1.87,1.08c2.74-.79,4.46-1.29,7.34-2.16.29-.64.72-1.44,1.08-2.08s1.08-.15,1,.21a12.9,12.9,0,0,1-.29,2.38c2.16,2.66,4,5,5,6.69.8.08,1.59.15,2.45.29.29,0,.72,1-.14,1.08a10,10,0,0,1-2.09.29l-.22.07A36.9,36.9,0,0,1,267.55,96a17.4,17.4,0,0,1,.07,2c0,.58-.93.72-1.08.22s-.5-1.44-.64-1.95a27.43,27.43,0,0,1-8.28-2.37c-1,.21-1.59.43-2.6.72Zm-17.85-8.35c.72,1.29,1.29,2.08,1.87,2.3l1.66-.43c.28-.79.57-1.73.72-2.09s.93-.22.93.36-.29,1.37-.29,2.09a21.65,21.65,0,0,0,7.42,6.62h.72c.36-.07,1.51-.29,1.8.22s-1.37,1-1.73,1.15a12.2,12.2,0,0,0,1,5.26c.29.21.5.64.72.72l.29.28c.5.22.65.8.07,1.08A24.14,24.14,0,0,1,236.74,86.4C236.88,86.18,237.1,86.18,237.17,86.26Z"/><path class="cls-3" d="M224.5,51h9.79c1.51,0,3.67,1,3.24,3.16l-.07.51c-.72,2.88-3,3-4.54,3H224.5v6.91h7.77c1.59,0,3.75,1,3.24,3.17l-.07.43c-.65,3-2.95,3-4.54,3h-6.4V80.5h11.16c6,0,16.48-.15,18.14-10.66,1.44-8.5-9.5-9.43-9.5-9.43s9.21.14,10.51-7.92c0-.29.07-.51.07-.79V49.82c-.58-6-6.84-8-13.32-8H224.5ZM216,51h8.5V41.83H206.71A13.37,13.37,0,0,0,194,52.63l-4.75,26.28V80.5H224.5V71.14H208.94l1.3-6.63H224.5V57.6H211.39l.58-3c.43-2.38,1.44-3.67,4-3.67Zm-26.78-8V41.83h.28A10.69,10.69,0,0,0,189.22,43Zm0-1.15V43c-.36,1.37-.94,3.82-1.44,6.05-.72,3.46-3.17,5.4-7.35,5.4L155,54.5A3.3,3.3,0,0,0,152.21,57l-.58,4.11L182.74,61s-.65,2.81-1.3,5.69-3.1,5-6.77,5h-25l-2,8.86H128l4.82-27.87A13.54,13.54,0,0,1,145,41.83h44.21Zm0,37.08-.29,1.59h.29V78.91Zm-132.63-15V62.14a5.6,5.6,0,0,1,.07-1.08c1-8.72,7.28-13.47,11.88-15.92C72.5,43,80.71,40,94,40h.36a79.14,79.14,0,0,0-10.44,7.56c-8.42,7.42-8,12.53-7.92,14a6.72,6.72,0,0,0,3.67,6.19,17.23,17.23,0,0,0,7.35,2,29.82,29.82,0,0,0,3.74.21c6.12,0,9.72-1.51,11.59-2.66A13.23,13.23,0,0,0,104,66,8.09,8.09,0,0,0,107,60.84a6.4,6.4,0,0,0-2.52-6.41c-3.17-2.45-8-2.73-9.57-2.81-.8-.07-1.59-.07-2.31-.07a35.94,35.94,0,0,0-6.12.51A40.92,40.92,0,0,1,97.63,46c5.91-2,15.19-3.53,22-.15a3.43,3.43,0,0,1,.94.58c3.46,2.52,6.7,6.62,5.62,14.54-.8,6.12-4,9.36-6.56,11.6a31.67,31.67,0,0,1-3.88,3c-4.18,2.52-12.24,6-26,6-1.36,0-4.75-.07-8.49-.43-6.48-.72-11.88-1.87-16.42-4.61C61.34,74.38,57,70.56,56.59,63.86Z"/></g></g></svg>