<svg xmlns="http://www.w3.org/2000/svg" xmlns:xlink="http://www.w3.org/1999/xlink" width="1080" zoomAndPan="magnify" viewBox="0 0 810 809.999993" height="1080" preserveAspectRatio="xMidYMid meet" version="1.0"><defs><clipPath id="3e2f3ac836"><path d="M 1 256.828125 L 809 256.828125 L 809 553.078125 L 1 553.078125 Z M 1 256.828125 " clip-rule="nonzero"/></clipPath></defs><g clip-path="url(#3e2f3ac836)"><path fill="#ffffff" d="M 1.609375 405.027344 C 1.609375 323.230469 182.269531 256.828125 405.050781 256.828125 C 627.828125 256.828125 808.488281 323.230469 808.488281 405.027344 C 808.488281 486.824219 627.828125 553.078125 405.195312 553.078125 C 182.566406 553.078125 1.609375 486.851562 1.609375 405.027344 Z M 1.609375 405.027344 " fill-opacity="1" fill-rule="evenodd"/></g><path fill="#ed1b2e" d="M 416.785156 289.046875 C 444.894531 285.582031 473.109375 283.859375 501.433594 283.882812 C 664.210938 283.882812 795.992188 338.578125 795.992188 406.234375 C 795.992188 443.121094 756.632812 476.175781 694.320312 498.65625 C 728.144531 479.890625 748 456.527344 748 431.367188 C 748 368.875 627.457031 314.5 449.179688 318.238281 C 438.210938 318.433594 427.410156 318.953125 416.785156 319.492188 Z M 416.785156 543.855469 L 416.785156 541.570312 L 430.585938 542.085938 C 439.636719 542.257812 444.410156 542.257812 451.320312 542.972656 C 442.984375 543.683594 428.640625 543.855469 416.882812 543.855469 Z M 416.785156 276.503906 L 416.785156 265.339844 C 478.394531 265.773438 539.441406 271.851562 599.929688 283.5625 C 556.832031 277.972656 513.550781 275.199219 470.089844 275.25 C 451.320312 275.25 433.78125 275.59375 416.785156 276.503906 Z M 233.980469 355.203125 C 269.058594 323.5 335.652344 299.253906 416.785156 289.144531 L 416.785156 319.515625 C 345.050781 323.402344 280.03125 335.527344 233.980469 355.203125 Z M 416.785156 265.4375 L 405.613281 265.4375 C 189.355469 265.339844 13.910156 327.65625 13.910156 404.386719 C 13.910156 481.121094 190.855469 545.675781 407.117188 543.90625 L 416.957031 543.90625 L 416.957031 541.617188 C 269.058594 534.734375 126.304688 496.046875 93.882812 438.820312 C 90.789062 434.363281 88.402344 429.554688 86.726562 424.394531 C 85.050781 419.234375 84.15625 413.945312 84.042969 408.519531 C 84.042969 360.367188 156.835938 318.042969 266.082031 296.082031 C 320.992188 285.113281 366.328125 278.863281 416.808594 276.40625 Z M 416.785156 265.4375 " fill-opacity="1" fill-rule="evenodd"/><path fill="#231f20" d="M 687.234375 474.800781 L 687.234375 471.429688 C 687.679688 471.128906 688.152344 470.898438 688.664062 470.742188 C 692.722656 465.429688 695.574219 454.804688 696.042969 446.835938 C 695.546875 445.125 694.726562 443.582031 693.582031 442.214844 C 692.699219 440.984375 694.125 439.558594 695.183594 440.640625 C 696.238281 441.722656 697.640625 442.925781 698.550781 443.8125 L 699.265625 443.46875 C 699.6875 443.171875 700.15625 442.988281 700.667969 442.925781 L 699.980469 438.15625 C 699.980469 437.441406 700.324219 436.902344 701.035156 436.902344 C 702.851562 441.886719 703.910156 447.023438 704.210938 452.320312 C 704.433594 455.578125 704.386719 458.832031 704.066406 462.082031 C 703.746094 465.328125 703.15625 468.527344 702.296875 471.679688 C 701.4375 474.828125 700.324219 477.886719 698.949219 480.847656 C 697.578125 483.8125 695.96875 486.640625 694.125 489.332031 C 693.8125 489.183594 693.515625 489.003906 693.238281 488.792969 C 692.351562 487.90625 693.582031 485.59375 693.953125 484.367188 C 693.203125 480.695312 691.839844 477.269531 689.867188 474.085938 C 688.984375 474.28125 688.097656 474.625 687.210938 474.800781 Z M 687.234375 430.359375 L 687.234375 426.644531 C 688.292969 427.703125 689.179688 428.933594 688.664062 429.816406 C 688.609375 429.953125 688.53125 430.070312 688.425781 430.171875 C 688.324219 430.273438 688.203125 430.351562 688.070312 430.402344 C 687.933594 430.453125 687.792969 430.476562 687.648438 430.46875 C 687.503906 430.460938 687.367188 430.425781 687.234375 430.359375 Z M 687.234375 418.0625 L 687.234375 414.964844 C 688.492188 416.367188 689.695312 417.621094 690.949219 419.023438 C 690.550781 419.179688 690.140625 419.300781 689.722656 419.390625 C 688.835938 419.082031 688.007812 418.664062 687.234375 418.136719 Z M 632.15625 514.222656 C 631.984375 512.082031 634.984375 512.96875 636.414062 512.796875 C 643.964844 511.3125 651.289062 509.074219 658.378906 506.082031 L 658.183594 504.113281 C 658.164062 503.730469 658.269531 503.386719 658.5 503.082031 C 658.730469 502.777344 659.03125 502.582031 659.40625 502.496094 C 659.78125 502.410156 660.136719 502.457031 660.476562 502.632812 C 660.820312 502.808594 661.0625 503.070312 661.210938 503.425781 C 661.382812 503.769531 661.921875 505 661.921875 505 C 667.222656 504.429688 672.472656 503.546875 677.667969 502.34375 L 678.75 501.828125 C 679.636719 501.285156 681.921875 499.6875 682.980469 500.226562 C 683.347656 500.226562 683.523438 500.574219 683.695312 500.941406 C 681.1875 503.089844 678.527344 505.023438 675.710938 506.746094 C 672.898438 508.46875 669.964844 509.957031 666.910156 511.210938 C 663.859375 512.464844 660.726562 513.464844 657.511719 514.21875 C 654.296875 514.972656 651.046875 515.464844 647.753906 515.699219 C 642.519531 516.039062 637.320312 515.746094 632.15625 514.8125 Z M 687.234375 414.964844 L 687.234375 418.136719 C 686.523438 417.792969 686.007812 417.421875 685.832031 417.792969 C 685.636719 420.449219 686.007812 421.160156 686.007812 425.171875 C 686.351562 425.710938 686.890625 426.226562 687.234375 426.769531 L 687.234375 430.480469 C 686.351562 429.941406 685.121094 428.539062 684.0625 428.023438 C 680.324219 429.082031 672.351562 431.390625 665.980469 433.703125 C 665.269531 434.589844 663.523438 437.761719 663.523438 437.761719 C 662.464844 439.359375 660.863281 438.648438 661.0625 437.246094 C 661.257812 435.84375 661.234375 433.875 661.40625 432.328125 C 657.019531 426.894531 651.886719 422.296875 646.007812 418.53125 C 644.578125 418.703125 641.578125 418.875 641.382812 418.875 C 640.152344 418.875 639.609375 417.101562 640.863281 416.757812 C 641.210938 416.5625 643.152344 415.503906 644.234375 414.988281 C 646.007812 409.675781 646.890625 407.90625 647.410156 405.9375 C 647.925781 403.96875 648.664062 402.765625 649.351562 400.453125 C 648.664062 398.855469 644.925781 399.050781 644.925781 397.085938 C 648.859375 397.15625 652.753906 397.601562 656.605469 398.417969 C 660.457031 399.238281 664.195312 400.410156 667.824219 401.945312 C 671.449219 403.480469 674.898438 405.34375 678.167969 407.535156 C 681.4375 409.730469 684.46875 412.214844 687.261719 414.988281 Z M 687.234375 471.527344 L 687.234375 474.898438 C 686.546875 475.105469 685.839844 475.226562 685.121094 475.265625 C 683.695312 475.4375 682.980469 473.300781 684.40625 472.808594 C 685.320312 472.324219 686.265625 471.90625 687.234375 471.554688 Z M 628.910156 489.503906 C 627.507812 489.851562 626.964844 488.078125 628.023438 487.195312 L 632.28125 483.480469 C 632.820312 478.167969 633.535156 471.429688 634.59375 463.289062 C 633.335938 461.886719 632.453125 460.289062 631.222656 458.863281 C 631.121094 458.753906 631.046875 458.632812 630.996094 458.496094 C 630.945312 458.359375 630.917969 458.21875 630.921875 458.074219 C 630.925781 457.925781 630.957031 457.785156 631.011719 457.652344 C 631.070312 457.519531 631.152344 457.398438 631.253906 457.296875 C 631.355469 457.191406 631.476562 457.113281 631.609375 457.054688 C 631.746094 456.996094 631.886719 456.96875 632.03125 456.964844 C 632.175781 456.960938 632.316406 456.984375 632.453125 457.039062 C 632.589844 457.089844 632.714844 457.164062 632.820312 457.265625 C 634.398438 458.070312 635.933594 458.957031 637.421875 459.921875 C 644.160156 457.976562 648.394531 456.746094 655.476562 454.609375 C 656.191406 453.035156 657.25 451.066406 658.132812 449.492188 C 659.019531 447.917969 660.792969 449.125 660.59375 450.007812 C 660.539062 451.980469 660.300781 453.933594 659.882812 455.863281 C 665.195312 462.402344 669.722656 468.160156 672.179688 472.316406 C 674.148438 472.511719 676.09375 472.683594 678.207031 473.027344 C 678.921875 473.027344 679.980469 475.488281 677.863281 475.683594 C 676.175781 476.105469 674.460938 476.339844 672.722656 476.398438 L 672.179688 476.570312 C 668.667969 482.492188 664.535156 487.941406 659.78125 492.925781 C 659.933594 494.558594 659.992188 496.199219 659.953125 497.84375 C 659.953125 499.269531 657.667969 499.613281 657.296875 498.382812 C 656.929688 497.15625 656.066406 494.84375 655.722656 493.589844 C 648.625 492.722656 641.835938 490.78125 635.355469 487.757812 C 632.894531 488.277344 631.441406 488.816406 628.957031 489.53125 Z M 585 468.96875 C 586.769531 472.144531 588.171875 474.085938 589.597656 474.625 L 593.683594 473.570312 C 594.371094 471.625 595.085938 469.316406 595.453125 468.429688 C 595.824219 467.542969 597.742188 467.886719 597.742188 469.316406 C 597.742188 470.742188 597.027344 472.683594 597.027344 474.453125 C 599.398438 477.839844 602.125 480.90625 605.207031 483.65625 C 608.289062 486.40625 611.648438 488.765625 615.28125 490.734375 L 617.050781 490.734375 C 617.9375 490.5625 620.765625 490.023438 621.480469 491.277344 C 622.195312 492.53125 618.109375 493.734375 617.222656 494.105469 C 617.074219 498.601562 617.894531 502.914062 619.683594 507.039062 C 620.398438 507.558594 620.914062 508.613281 621.457031 508.8125 L 622.167969 509.5 C 623.398438 510.042969 623.769531 511.46875 622.339844 512.15625 C 619.976562 511.332031 617.671875 510.363281 615.429688 509.246094 C 613.1875 508.132812 611.023438 506.878906 608.941406 505.492188 C 606.855469 504.101562 604.867188 502.585938 602.976562 500.945312 C 601.082031 499.304688 599.300781 497.550781 597.632812 495.6875 C 595.960938 493.820312 594.414062 491.855469 592.992188 489.796875 C 591.570312 487.734375 590.285156 485.589844 589.136719 483.367188 C 587.984375 481.144531 586.980469 478.855469 586.117188 476.503906 C 585.257812 474.152344 584.546875 471.757812 583.988281 469.316406 C 584.335938 468.773438 584.875 468.773438 585.046875 468.96875 Z M 585 468.96875 " fill-opacity="1" fill-rule="evenodd"/><path fill="#231f20" d="M 553.878906 382.253906 L 577.960938 382.253906 C 581.675781 382.253906 586.992188 384.714844 585.933594 390.027344 L 585.761719 391.28125 C 583.988281 398.363281 578.382812 398.660156 574.59375 398.660156 L 553.878906 398.660156 L 553.878906 415.652344 L 572.992188 415.652344 C 576.90625 415.652344 582.21875 418.113281 580.964844 423.449219 L 580.792969 424.507812 C 579.191406 431.882812 573.535156 431.882812 569.625 431.882812 L 553.878906 431.882812 L 553.878906 454.804688 L 581.332031 454.804688 C 596.09375 454.804688 621.875 454.4375 625.957031 428.589844 C 629.5 407.683594 602.585938 405.398438 602.585938 405.398438 C 602.585938 405.398438 625.246094 405.742188 628.441406 385.917969 C 628.441406 385.207031 628.613281 384.664062 628.613281 383.976562 L 628.613281 379.351562 C 627.1875 364.597656 611.789062 359.679688 595.847656 359.679688 L 553.878906 359.679688 Z M 532.96875 382.253906 L 553.878906 382.253906 L 553.878906 359.703125 L 510.117188 359.703125 C 509.191406 359.730469 508.273438 359.796875 507.355469 359.90625 C 506.4375 360.011719 505.527344 360.15625 504.621094 360.335938 C 503.714844 360.519531 502.820312 360.742188 501.933594 361 C 501.046875 361.257812 500.171875 361.550781 499.308594 361.882812 C 498.449219 362.214844 497.601562 362.582031 496.769531 362.984375 C 495.941406 363.390625 495.128906 363.828125 494.332031 364.296875 C 493.539062 364.769531 492.765625 365.273438 492.015625 365.808594 C 491.261719 366.347656 490.535156 366.914062 489.832031 367.511719 C 489.128906 368.109375 488.449219 368.734375 487.800781 369.390625 C 487.148438 370.046875 486.527344 370.726562 485.933594 371.433594 C 485.339844 372.140625 484.777344 372.871094 484.246094 373.628906 C 483.710938 374.382812 483.214844 375.15625 482.746094 375.953125 C 482.28125 376.75 481.847656 377.566406 481.449219 378.398438 C 481.050781 379.230469 480.6875 380.082031 480.363281 380.945312 C 480.035156 381.808594 479.746094 382.683594 479.492188 383.570312 C 479.242188 384.460938 479.027344 385.355469 478.847656 386.261719 L 467.164062 450.894531 L 467.164062 454.804688 L 553.878906 454.804688 L 553.878906 431.785156 L 515.601562 431.785156 L 518.800781 415.480469 L 553.878906 415.480469 L 553.878906 398.484375 L 521.628906 398.484375 L 523.054688 391.109375 C 524.113281 385.253906 526.597656 382.082031 532.894531 382.082031 Z M 467.089844 362.582031 L 467.089844 359.703125 L 467.777344 359.703125 C 467.496094 360.648438 467.265625 361.609375 467.089844 362.582031 Z M 467.089844 359.75 L 467.089844 362.582031 C 466.203125 365.949219 464.777344 371.976562 463.546875 377.460938 C 461.777344 385.96875 455.75 390.738281 445.46875 390.738281 L 382.910156 390.863281 C 382.09375 390.964844 381.308594 391.191406 380.5625 391.53125 C 379.8125 391.875 379.132812 392.320312 378.519531 392.867188 C 377.90625 393.417969 377.390625 394.046875 376.96875 394.75 C 376.546875 395.457031 376.238281 396.210938 376.046875 397.011719 L 374.617188 407.117188 L 451.148438 406.847656 C 451.148438 406.847656 449.550781 413.757812 447.953125 420.839844 C 446.351562 427.925781 440.324219 433.136719 431.296875 433.136719 L 369.796875 433.136719 L 364.878906 454.929688 L 316.488281 454.929688 L 328.347656 386.386719 C 328.699219 384.625 329.1875 382.898438 329.820312 381.214844 C 330.449219 379.53125 331.210938 377.910156 332.105469 376.351562 C 333 374.789062 334.011719 373.3125 335.144531 371.914062 C 336.277344 370.519531 337.515625 369.222656 338.855469 368.027344 C 340.199219 366.832031 341.628906 365.75 343.148438 364.789062 C 344.664062 363.824219 346.25 362.988281 347.90625 362.28125 C 349.558594 361.574219 351.257812 361.003906 353.003906 360.570312 C 354.746094 360.136719 356.515625 359.847656 358.308594 359.703125 L 467.066406 359.703125 Z M 467.089844 450.945312 L 466.378906 454.855469 L 467.089844 454.855469 L 467.089844 450.894531 Z M 140.820312 414.054688 L 140.820312 409.652344 C 140.792969 408.761719 140.847656 407.875 140.992188 406.996094 C 143.453125 385.550781 158.902344 373.867188 170.21875 367.84375 C 179.957031 362.582031 200.15625 355.203125 232.847656 355.203125 L 233.734375 355.203125 C 224.667969 360.699219 216.105469 366.898438 208.050781 373.792969 C 187.339844 392.042969 188.371094 404.609375 188.570312 408.226562 C 188.523438 409.792969 188.695312 411.332031 189.085938 412.851562 C 189.476562 414.367188 190.074219 415.800781 190.871094 417.148438 C 191.671875 418.496094 192.644531 419.703125 193.785156 420.777344 C 194.929688 421.847656 196.199219 422.738281 197.597656 423.449219 C 203.253906 426.453125 209.28125 428.09375 215.679688 428.367188 C 218.734375 428.730469 221.800781 428.90625 224.878906 428.882812 C 239.933594 428.882812 248.789062 425.171875 253.390625 422.339844 C 254.828125 421.382812 256.179688 420.316406 257.449219 419.144531 C 259.441406 417.578125 261.078125 415.695312 262.351562 413.503906 C 263.628906 411.3125 264.453125 408.960938 264.828125 406.453125 C 265.117188 404.980469 265.195312 403.5 265.058594 402.003906 C 264.921875 400.507812 264.582031 399.0625 264.03125 397.667969 C 263.480469 396.269531 262.75 394.980469 261.828125 393.792969 C 260.910156 392.605469 259.84375 391.570312 258.628906 390.691406 C 250.832031 384.664062 238.949219 383.976562 235.085938 383.78125 C 233.121094 383.605469 231.175781 383.605469 229.40625 383.605469 C 224.351562 383.59375 219.332031 384.011719 214.351562 384.863281 C 222.710938 378.460938 231.855469 373.492188 241.777344 369.957031 C 256.316406 365.039062 279.144531 361.277344 295.898438 369.589844 C 296.746094 369.9375 297.519531 370.414062 298.210938 371.015625 C 306.722656 377.214844 314.691406 387.296875 312.035156 406.773438 C 310.070312 421.824219 302.195312 429.792969 295.898438 435.300781 C 292.910156 438.007812 289.726562 440.46875 286.355469 442.679688 C 276.070312 448.878906 256.242188 457.4375 222.394531 457.4375 C 219.046875 457.4375 210.707031 457.265625 201.507812 456.378906 C 185.566406 454.609375 172.285156 451.78125 161.117188 445.042969 C 152.503906 439.753906 141.828125 430.359375 140.820312 413.882812 Z M 140.820312 414.054688 " fill-opacity="1" fill-rule="evenodd"/></svg>