<svg xmlns="http://www.w3.org/2000/svg" xmlns:xlink="http://www.w3.org/1999/xlink" width="1080" zoomAndPan="magnify" viewBox="0 0 810 809.999993" height="1080" preserveAspectRatio="xMidYMid meet" version="1.0"><defs><clipPath id="89963ec660"><path d="M 156.09375 641 L 301 641 L 301 810 L 156.09375 810 Z M 156.09375 641 " clip-rule="nonzero"/></clipPath><clipPath id="4499b2430d"><path d="M 509 641 L 654.09375 641 L 654.09375 810 L 509 810 Z M 509 641 " clip-rule="nonzero"/></clipPath></defs><path fill="#ffffff" d="M 277.988281 141.648438 C 255.039062 175.511719 237.199219 220.652344 240.890625 271.4375 C 242.949219 291.207031 248.53125 309.78125 253.386719 328.964844 C 261.816406 363.550781 255.207031 390.488281 243.4375 423.625 C 220.808594 490.558594 247.148438 566.292969 305.421875 604.03125 C 332.132812 621.390625 363.328125 629.144531 395.261719 628.066406 C 485.222656 625.152344 547.863281 552.082031 569.714844 470.164062 C 580.289062 426.121094 579.429688 383.039062 568.636719 339.347656 C 563.765625 321.378906 557.707031 303.820312 550.464844 286.671875 C 543.21875 269.523438 534.855469 252.9375 525.371094 236.917969 C 504.730469 202.699219 481.058594 170.167969 463.453125 134.097656 C 442.847656 91.773438 447.230469 60.101562 459.609375 16.53125 C 433.742188 38.121094 405.953125 68.226562 402.917969 125.148438 C 391.621094 83.515625 397.859375 41.039062 419.054688 0.265625 C 401.453125 4.140625 366.363281 26.476562 347.542969 51.722656 C 315.371094 75.507812 287.328125 108.140625 277.988281 141.648438 Z M 277.988281 141.648438 " fill-opacity="1" fill-rule="evenodd"/><path fill="#e7272a" d="M 383.003906 341.65625 C 377.171875 399.773438 359.210938 406.585938 351.1875 434.96875 C 350.003906 438.769531 349.148438 442.640625 348.621094 446.585938 C 348.089844 450.527344 347.890625 454.488281 348.027344 458.464844 C 348.160156 462.441406 348.625 466.378906 349.421875 470.277344 C 350.21875 474.175781 351.335938 477.980469 352.769531 481.691406 C 360.171875 499.054688 372.683594 508.039062 388.46875 512.285156 C 417.351562 520.175781 444.195312 506.21875 456.203125 469.808594 C 488.863281 379.886719 444.667969 256.453125 427.671875 222.234375 C 397.808594 158.03125 353.984375 89.347656 397.457031 18.703125 C 324.949219 70.652344 346.699219 156.449219 367.105469 230.964844 C 371.101562 245.410156 385.414062 292.742188 383.003906 341.65625 Z M 383.003906 341.65625 " fill-opacity="1" fill-rule="evenodd"/><path fill="#0070b5" d="M 281.511719 347.488281 C 285.15625 339.0625 296.199219 311.6875 281.261719 256.46875 C 272.40625 223.464844 268.765625 199.546875 274.347656 177.585938 C 264.230469 196.277344 258.5625 216.351562 255.796875 243.609375 C 250.453125 294.089844 275.222656 324.078125 271.953125 364.851562 C 271.800781 366.652344 277.988281 355.917969 281.511719 347.488281 Z M 281.511719 347.488281 " fill-opacity="1" fill-rule="evenodd"/><path fill="#0070b5" d="M 339.652344 488.367188 C 336.890625 480.761719 335.132812 472.929688 334.371094 464.871094 C 333.613281 456.8125 333.878906 448.789062 335.167969 440.800781 C 335.65625 438.003906 301.171875 420.574219 299.351562 421.992188 C 281.867188 430.417969 270.214844 440.683594 268.394531 442.992188 C 267.496094 448.242188 266.953125 453.527344 266.761719 458.847656 C 266.574219 464.167969 266.738281 469.476562 267.261719 474.777344 C 267.785156 480.078125 268.660156 485.316406 269.882812 490.5 C 271.109375 495.679688 272.675781 500.757812 274.582031 505.730469 C 279.214844 511.289062 284.457031 516.195312 290.3125 520.445312 C 296.171875 524.695312 302.460938 528.164062 309.183594 530.84375 L 349.5 505.242188 C 345.261719 500.175781 341.976562 494.550781 339.652344 488.367188 Z M 339.652344 488.367188 " fill-opacity="1" fill-rule="evenodd"/><path fill="#0070b5" d="M 502.824219 508.039062 L 459.609375 497.925781 C 446.742188 513.953125 442.375 518.152344 419.542969 528.027344 L 427.199219 571.347656 C 441.160156 573.894531 463.132812 576.085938 470.417969 571.953125 C 470.417969 571.953125 471.378906 571.464844 472.84375 570.625 C 484.359375 564.449219 494.71875 556.722656 503.921875 547.445312 C 508.40625 530.121094 504.410156 513.734375 502.824219 508.039062 Z M 502.824219 508.039062 " fill-opacity="1" fill-rule="evenodd"/><path fill="#0070b5" d="M 504.898438 555.117188 C 500.925781 559.464844 496.628906 563.46875 492.015625 567.132812 C 487.195312 572.042969 481.976562 576.496094 476.367188 580.484375 C 476.234375 581.207031 476.234375 582.167969 476.117188 583.28125 C 475.878906 585.21875 475.507812 587.765625 475.019531 590.679688 C 487.933594 581.550781 498.984375 570.550781 508.171875 557.679688 C 507.152344 556.734375 506.0625 555.878906 504.898438 555.117188 Z M 504.898438 555.117188 " fill-opacity="1" fill-rule="evenodd"/><path fill="#0070b5" d="M 264.632812 503.910156 C 261.835938 494.808594 254.804688 460.453125 260.992188 439.585938 C 258.917969 431.464844 258.683594 416.765625 258.683594 416.765625 C 254.804688 427.082031 247.382812 439.824219 247.382812 476.113281 C 247.382812 492.96875 253.21875 514.222656 259.289062 529.511719 C 259.660156 527.457031 260.132812 525.519531 260.503906 523.695312 C 261.8125 518.21875 263.632812 512.914062 265.964844 507.785156 L 265.964844 507.617188 C 265.59375 506.707031 265.121094 505.492188 264.632812 503.910156 Z M 264.632812 503.910156 " fill-opacity="1" fill-rule="evenodd"/><path fill="#0070b5" d="M 326.90625 579.269531 C 330.074219 581.695312 352.046875 597.8125 386.039062 599.292969 C 388.214844 598.199219 393.679688 595.164062 400 591.050781 C 406.789062 586.675781 413.019531 581.621094 418.703125 575.882812 L 409.597656 529.394531 C 408.480469 529.617188 407.355469 529.78125 406.222656 529.882812 C 398.136719 529.910156 390.207031 528.816406 382.429688 526.597656 C 377.519531 525.015625 372.8125 522.960938 368.316406 520.429688 C 363.816406 517.898438 359.621094 514.941406 355.722656 511.5625 L 314.15625 538.125 C 314.082031 543.445312 314.628906 548.703125 315.800781 553.890625 C 316.972656 559.082031 318.734375 564.0625 321.085938 568.835938 C 322.75 572.46875 324.6875 575.945312 326.90625 579.269531 Z M 326.90625 579.269531 " fill-opacity="1" fill-rule="evenodd"/><path fill="#0070b5" d="M 425.007812 581.949219 C 421.09375 586.050781 416.84375 589.769531 412.261719 593.109375 C 406.65625 597.253906 400.828125 601.058594 394.773438 604.519531 C 400.105469 608.675781 405.726562 612.394531 411.636719 615.679688 C 420.914062 614.441406 429.976562 612.300781 438.828125 609.257812 C 447.675781 606.210938 456.136719 602.324219 464.210938 597.59375 C 465.289062 594.222656 465.898438 590.851562 466.503906 588.136719 C 466.640625 586.921875 466.875 585.707031 466.992188 584.613281 C 453.539062 587.527344 432.628906 583.636719 425.007812 581.949219 Z M 425.007812 581.949219 " fill-opacity="1" fill-rule="evenodd"/><path fill="#0070b5" d="M 309.90625 564.925781 C 306.734375 556.472656 305.199219 547.730469 305.304688 538.699219 C 299.027344 536.148438 293.085938 532.96875 287.480469 529.167969 C 281.875 525.363281 276.726562 521.015625 272.035156 516.128906 C 269.746094 522.167969 268.253906 528.402344 267.550781 534.820312 C 267.078125 538.449219 266.914062 542.089844 267.0625 545.746094 C 274.425781 558.691406 283.648438 570.144531 294.734375 580.097656 C 302 580.296875 309.246094 579.96875 316.46875 579.117188 C 313.871094 574.578125 311.6875 569.84375 309.90625 564.925781 Z M 309.90625 564.925781 " fill-opacity="1" fill-rule="evenodd"/><path fill="#0070b5" d="M 385.179688 608.042969 C 388.851562 611.3125 392.742188 614.300781 396.847656 617.007812 C 395.160156 617.007812 393.324219 617.144531 391.503906 617.144531 C 383.796875 617.164062 376.136719 616.570312 368.523438 615.363281 C 360.914062 614.15625 353.445312 612.351562 346.125 609.949219 C 338.800781 607.546875 331.714844 604.574219 324.871094 601.039062 C 318.023438 597.5 311.5 593.441406 305.304688 588.859375 C 311.183594 588.824219 317.011719 588.261719 322.789062 587.175781 C 328.980469 591.777344 351.320312 606.457031 385.179688 608.042969 Z M 385.179688 608.042969 " fill-opacity="1" fill-rule="evenodd"/><path fill="#0070b5" d="M 353.496094 228.910156 C 334.796875 177.449219 302.503906 129.460938 338.203125 73.839844 C 283.941406 127.777344 277.988281 173.472656 295.710938 253.453125 C 308.574219 310.945312 299.421875 331.578125 286.976562 357.601562 C 284.546875 362.574219 257.839844 406.144531 266.453125 430.417969 C 272.761719 425.363281 284.175781 415.601562 301.542969 410.511719 C 303.230469 409.90625 325.453125 418.28125 339.535156 427.011719 C 351.4375 392.542969 367.945312 385.144531 372.804688 339.753906 C 376.816406 289.589844 361.808594 251.414062 353.496094 228.910156 Z M 353.496094 228.910156 " fill-opacity="1" fill-rule="evenodd"/><path fill="#ffffff" d="M 439.949219 442.859375 C 440.378906 446.132812 440.355469 449.40625 439.878906 452.675781 C 439.40625 455.945312 438.492188 459.089844 437.148438 462.105469 C 436.707031 463.171875 436.214844 464.214844 435.667969 465.230469 C 435.121094 466.246094 434.527344 467.234375 433.878906 468.191406 C 433.234375 469.144531 432.542969 470.066406 431.804688 470.953125 C 431.066406 471.84375 430.285156 472.691406 429.460938 473.496094 C 428.640625 474.304688 427.777344 475.070312 426.875 475.792969 C 425.976562 476.515625 425.042969 477.191406 424.074219 477.816406 C 423.105469 478.445312 422.109375 479.023438 421.082031 479.550781 C 420.054688 480.078125 419.003906 480.550781 417.929688 480.972656 C 416.855469 481.394531 415.765625 481.761719 414.652344 482.074219 C 413.542969 482.386719 412.417969 482.640625 411.28125 482.839844 C 410.144531 483.039062 409 483.179688 407.847656 483.265625 C 406.699219 483.347656 405.546875 483.375 404.390625 483.34375 C 403.238281 483.308594 402.089844 483.21875 400.945312 483.074219 C 399.800781 482.925781 398.664062 482.71875 397.542969 482.457031 C 396.417969 482.195312 395.308594 481.878906 394.21875 481.507812 C 393.125 481.132812 392.054688 480.707031 391.003906 480.226562 C 389.957031 479.746094 388.933594 479.210938 387.9375 478.628906 C 386.941406 478.046875 385.980469 477.414062 385.046875 476.734375 C 384.113281 476.050781 383.21875 475.328125 382.359375 474.554688 C 381.5 473.785156 380.683594 472.972656 379.90625 472.121094 C 379.128906 471.269531 378.398438 470.378906 377.710938 469.453125 C 377.019531 468.523438 376.382812 467.566406 375.789062 466.574219 C 375.199219 465.585938 374.660156 464.566406 374.171875 463.523438 C 373.683594 462.476562 373.246094 461.410156 372.867188 460.320312 C 372.484375 459.230469 372.160156 458.125 371.886719 457.003906 C 371.617188 455.882812 371.40625 454.75 371.25 453.609375 C 371.09375 452.464844 370.996094 451.316406 370.953125 450.164062 C 370.914062 449.011719 370.929688 447.859375 371.007812 446.707031 C 371.082031 445.554688 371.214844 444.410156 371.40625 443.273438 C 371.59375 442.136719 371.84375 441.011719 372.144531 439.898438 C 372.449219 438.785156 372.808594 437.691406 373.222656 436.613281 C 373.636719 435.535156 374.105469 434.480469 374.625 433.453125 C 376.019531 430.453125 377.808594 427.714844 380 425.238281 C 382.1875 422.757812 384.6875 420.644531 387.488281 418.890625 C 386.21875 419.347656 384.972656 419.871094 383.75 420.453125 C 382.527344 421.035156 381.339844 421.679688 380.183594 422.378906 C 379.023438 423.078125 377.90625 423.835938 376.820312 424.644531 C 375.738281 425.457031 374.699219 426.316406 373.699219 427.230469 C 372.703125 428.144531 371.75 429.105469 370.847656 430.113281 C 369.945312 431.117188 369.09375 432.167969 368.292969 433.257812 C 367.492188 434.351562 366.75 435.476562 366.0625 436.640625 C 365.371094 437.804688 364.742188 439 364.171875 440.226562 C 363.601562 441.453125 363.09375 442.707031 362.644531 443.980469 C 362.199219 445.257812 361.816406 446.554688 361.496094 447.867188 C 361.175781 449.183594 360.921875 450.507812 360.734375 451.847656 C 360.546875 453.1875 360.421875 454.535156 360.367188 455.886719 C 360.3125 457.234375 360.324219 458.585938 360.402344 459.9375 C 360.476562 461.289062 360.621094 462.632812 360.832031 463.96875 C 361.042969 465.304688 361.316406 466.625 361.65625 467.933594 C 362 469.242188 362.402344 470.53125 362.871094 471.800781 C 363.339844 473.070312 363.867188 474.3125 364.457031 475.53125 C 365.046875 476.75 365.695312 477.933594 366.402344 479.085938 C 367.109375 480.238281 367.875 481.355469 368.691406 482.433594 C 369.507812 483.511719 370.375 484.546875 371.296875 485.539062 C 372.214844 486.53125 373.179688 487.476562 374.195312 488.371094 C 375.207031 489.269531 376.261719 490.113281 377.355469 490.90625 C 378.453125 491.699219 379.585938 492.4375 380.753906 493.121094 C 381.921875 493.800781 383.121094 494.421875 384.351562 494.988281 C 385.582031 495.550781 386.835938 496.050781 388.117188 496.492188 C 389.394531 496.929688 390.695312 497.304688 392.011719 497.617188 C 393.328125 497.929688 394.65625 498.175781 395.996094 498.355469 C 397.339844 498.535156 398.683594 498.648438 400.039062 498.699219 C 401.390625 498.746094 402.742188 498.726562 404.089844 498.640625 C 405.441406 498.554688 406.785156 498.40625 408.121094 498.1875 C 409.453125 497.96875 410.777344 497.6875 412.082031 497.339844 C 413.390625 496.992188 414.679688 496.578125 415.945312 496.105469 C 417.210938 495.628906 418.453125 495.09375 419.667969 494.496094 C 420.878906 493.898438 422.0625 493.242188 423.210938 492.53125 C 424.359375 491.816406 425.472656 491.046875 426.546875 490.222656 C 427.621094 489.402344 428.648438 488.527344 429.636719 487.601562 C 430.625 486.675781 431.5625 485.707031 432.457031 484.6875 C 433.347656 483.671875 434.1875 482.613281 434.972656 481.511719 C 435.761719 480.410156 436.492188 479.277344 437.167969 478.101562 C 437.839844 476.929688 438.457031 475.730469 439.011719 474.496094 C 439.570312 473.261719 440.0625 472.003906 440.496094 470.722656 C 440.929688 469.441406 441.296875 468.140625 441.601562 466.824219 C 441.90625 465.507812 442.144531 464.175781 442.316406 462.835938 C 442.488281 461.492188 442.59375 460.148438 442.636719 458.796875 C 442.675781 457.441406 442.648438 456.09375 442.554688 454.742188 C 442.460938 453.394531 442.300781 452.050781 442.078125 450.71875 C 441.851562 449.386719 441.558594 448.066406 441.203125 446.761719 C 440.847656 445.457031 440.429688 444.171875 439.949219 442.910156 Z M 439.949219 442.859375 " fill-opacity="1" fill-rule="evenodd"/><path fill="#ffffff" d="M 439.695312 412.046875 L 430.234375 420.171875 L 438.96875 428.902344 L 426.59375 428.058594 L 426.457031 440.429688 L 418.332031 431.09375 L 409.460938 439.707031 L 410.4375 427.453125 L 398.179688 427.332031 L 407.402344 419.191406 L 398.789062 410.460938 L 411.046875 411.304688 L 411.164062 399.050781 L 419.308594 408.269531 L 428.160156 399.773438 L 427.199219 411.910156 Z M 439.695312 412.046875 " fill-opacity="1" fill-rule="evenodd"/><path fill="#2ca44e" d="M 562.464844 391.886719 C 559.429688 342.128906 538.4375 282.914062 503.347656 229.144531 C 497.042969 219.554688 491.324219 210.707031 486.117188 202.445312 L 486.117188 494.316406 L 508.574219 500.386719 C 510.183594 504.28125 511.484375 508.28125 512.480469 512.375 C 513.476562 516.472656 514.15625 520.621094 514.515625 524.820312 C 514.875 529.019531 514.914062 533.222656 514.628906 537.429688 C 514.347656 541.632812 513.746094 545.792969 512.824219 549.90625 C 535.757812 525.636719 560.039062 478.421875 562.601562 417.980469 L 562.601562 396.269531 C 562.566406 394.800781 562.464844 393.351562 562.464844 391.886719 Z M 486.082031 202.53125 C 432.628906 118.472656 432.78125 103.792969 442.847656 44.796875 C 425.125 72.472656 417.234375 100.015625 416.507812 127.691406 L 416.507812 135.460938 C 417.234375 166.410156 426.625 197.59375 441.160156 229.265625 C 472.121094 297.226562 496.265625 405.488281 463.488281 488.25 L 486.082031 494.316406 Z M 486.082031 202.53125 " fill-opacity="1" fill-rule="evenodd"/><g clip-path="url(#89963ec660)"><path fill="#ffffff" d="M 228.210938 641.417969 L 231.246094 641.417969 L 232.699219 641.535156 L 234.164062 641.535156 L 235.613281 641.652344 L 237.066406 641.886719 L 238.53125 642.023438 L 240.101562 642.257812 L 241.683594 642.496094 L 243.269531 642.867188 L 244.839844 643.355469 L 246.421875 643.707031 L 247.875 644.316406 L 249.457031 644.921875 L 250.910156 645.527344 L 252.375 646.269531 L 253.945312 647.113281 L 255.410156 648.089844 L 256.980469 649.050781 L 258.3125 650.265625 L 259.660156 651.480469 L 260.992188 652.691406 L 262.207031 654.023438 L 263.300781 655.492188 L 264.515625 657.058594 L 265.59375 658.742188 L 266.574219 660.5625 L 267.417969 662.386719 L 268.277344 664.324219 L 268.882812 666.277344 L 269.609375 668.335938 L 270.097656 670.390625 L 299.960938 794.332031 L 300.195312 795.542969 L 300.332031 796.757812 L 300.332031 797.71875 L 300.195312 799.539062 L 299.589844 801.847656 L 298.507812 804.273438 L 296.6875 806.464844 L 294.378906 808.152344 L 292.066406 809.128906 L 289.875 809.617188 L 288.054688 809.734375 L 259.660156 809.734375 L 258.683594 809.617188 L 257.46875 809.5 L 256.371094 809.246094 L 255.15625 808.894531 L 253.945312 808.285156 L 252.847656 807.679688 L 251.769531 806.9375 L 250.789062 806.09375 L 250.066406 805.253906 L 249.457031 804.394531 L 248.851562 803.667969 L 248.363281 802.691406 L 247.875 801.847656 L 247.519531 800.871094 L 247.265625 800.027344 L 247.03125 799.183594 L 241.3125 773.445312 L 228.210938 773.445312 L 228.210938 727.699219 L 231.734375 727.699219 L 228.210938 712.042969 Z M 206.292969 805.253906 L 205.566406 806.09375 L 204.589844 806.9375 L 203.609375 807.679688 L 202.398438 808.285156 L 201.183594 808.894531 L 199.96875 809.246094 L 198.890625 809.5 L 197.675781 809.617188 L 196.695312 809.734375 L 168.351562 809.734375 L 166.53125 809.617188 L 164.355469 809.128906 L 162.046875 808.152344 L 159.734375 806.464844 L 157.914062 804.273438 L 156.820312 801.847656 L 156.210938 799.539062 L 156.09375 797.363281 L 156.09375 796.621094 L 156.210938 796.015625 L 156.210938 795.660156 L 156.328125 795.054688 L 156.464844 794.683594 L 156.464844 794.449219 L 186.328125 670.40625 L 186.816406 668.351562 L 187.542969 666.296875 L 188.265625 664.339844 L 188.992188 662.402344 L 189.96875 660.582031 L 190.929688 658.761719 L 191.910156 657.074219 L 193.121094 655.507812 L 194.335938 654.042969 L 195.550781 652.710938 L 196.765625 651.496094 L 198.097656 650.28125 L 199.5625 649.070312 L 201.015625 648.109375 L 202.464844 647.128906 L 204.050781 646.289062 L 205.632812 645.546875 L 207.085938 644.9375 L 208.535156 644.332031 L 210.121094 643.726562 L 211.703125 643.253906 L 213.273438 642.882812 L 214.957031 642.511719 L 216.542969 642.277344 L 217.992188 642.039062 L 219.445312 641.90625 L 220.910156 641.667969 L 222.359375 641.550781 L 223.945312 641.550781 L 225.394531 641.433594 L 228.195312 641.433594 L 228.195312 712.058594 L 224.824219 727.71875 L 228.195312 727.71875 L 228.195312 773.464844 L 215.109375 773.464844 L 209.511719 799.21875 L 209.277344 800.0625 L 208.90625 801.039062 L 208.535156 801.882812 L 208.0625 802.859375 L 207.574219 803.703125 L 206.964844 804.542969 Z M 206.292969 805.253906 " fill-opacity="1" fill-rule="evenodd"/></g><path fill="#0070b5" d="M 291.226562 797.363281 C 291.226562 799.539062 290.011719 800.515625 287.851562 800.515625 L 259.894531 800.515625 C 258.863281 800.585938 257.972656 800.261719 257.230469 799.539062 C 256.5625 798.804688 256.113281 797.957031 255.882812 796.992188 L 248.734375 764.226562 L 228.210938 764.226562 L 228.210938 736.851562 L 243.136719 736.851562 L 230.875 681.75 C 230.722656 680.953125 230.484375 680.183594 230.152344 679.441406 C 229.914062 678.972656 229.308594 678.71875 228.332031 678.71875 L 228.210938 678.71875 L 228.210938 650.519531 L 228.332031 650.519531 C 231.792969 650.496094 235.234375 650.777344 238.648438 651.359375 C 242.023438 651.816406 245.222656 652.828125 248.242188 654.394531 C 251.332031 656.070312 253.921875 658.320312 256.015625 661.136719 C 258.582031 664.65625 260.320312 668.542969 261.226562 672.800781 L 290.988281 796.386719 C 290.957031 796.601562 290.996094 796.804688 291.105469 796.992188 C 291.210938 797.097656 291.25 797.21875 291.226562 797.363281 Z M 228.210938 764.226562 L 207.808594 764.226562 L 200.523438 796.992188 C 200.308594 797.960938 199.863281 798.808594 199.191406 799.539062 C 198.449219 800.257812 197.5625 800.585938 196.527344 800.515625 L 168.605469 800.515625 C 166.414062 800.515625 165.234375 799.539062 165.234375 797.363281 C 165.234375 797.230469 165.351562 797.113281 165.351562 796.992188 C 165.460938 796.804688 165.5 796.601562 165.46875 796.386719 L 195.179688 672.800781 C 196.089844 668.546875 197.832031 664.664062 200.40625 661.15625 C 202.519531 658.300781 205.148438 656.054688 208.296875 654.414062 C 211.316406 652.828125 214.511719 651.816406 217.894531 651.378906 C 221.308594 650.800781 224.75 650.519531 228.210938 650.535156 L 228.210938 678.800781 C 226.878906 678.921875 225.902344 679.898438 225.53125 681.835938 L 213.425781 736.851562 L 228.246094 736.851562 Z M 228.210938 764.226562 " fill-opacity="1" fill-rule="evenodd"/><path fill="#ffffff" d="M 351.675781 702.214844 L 395.382812 702.214844 L 396.714844 702.449219 L 398.0625 702.820312 L 399.277344 703.175781 L 400.492188 703.78125 L 401.570312 704.523438 L 402.546875 705.25 L 403.527344 706.089844 L 404.25 706.949219 L 405.09375 707.910156 L 405.582031 709.125 L 406.191406 710.222656 L 406.679688 711.550781 L 407.03125 712.765625 L 407.167969 714.097656 L 407.167969 735.589844 L 406.914062 736.921875 L 406.679688 738.132812 L 406.191406 739.464844 L 405.582031 740.5625 L 405.09375 741.65625 L 404.25 742.753906 L 403.390625 743.59375 L 402.546875 744.4375 L 401.570312 745.179688 L 400.492188 745.902344 L 399.277344 746.394531 L 398.0625 746.863281 L 396.714844 747.234375 L 395.5 747.355469 L 394.421875 747.472656 L 351.675781 747.472656 L 351.675781 796.757812 L 351.558594 797.835938 L 351.4375 799.183594 L 351.066406 800.515625 L 350.578125 801.730469 L 349.972656 802.824219 L 349.363281 803.902344 L 348.640625 804.882812 L 347.796875 805.859375 L 346.820312 806.703125 L 345.859375 807.425781 L 344.761719 808.152344 L 342.332031 809.128906 L 341 809.5 L 339.789062 809.617188 L 338.691406 809.734375 L 312.101562 809.734375 L 311.121094 809.617188 L 309.789062 809.5 L 308.574219 809.128906 L 307.363281 808.757812 L 306.148438 808.152344 L 305.050781 807.425781 L 304.089844 806.703125 L 303.113281 805.859375 L 302.152344 804.882812 L 301.410156 803.902344 L 300.804688 802.824219 L 300.195312 801.613281 L 299.722656 800.398438 L 299.46875 799.183594 L 299.234375 797.835938 L 299.234375 689.707031 L 299.351562 688.003906 L 299.46875 686.183594 L 299.589844 684.5 L 299.839844 682.796875 L 300.078125 681.09375 L 300.332031 679.511719 L 300.683594 677.824219 L 301.054688 676.359375 L 301.410156 674.789062 L 301.898438 673.207031 L 302.386719 671.757812 L 302.875 670.289062 L 303.484375 668.839844 L 304.089844 667.507812 L 305.421875 664.945312 L 306.753906 662.65625 L 308.339844 660.34375 L 310.042969 658.152344 L 311.863281 656.097656 L 313.683594 654.277344 L 315.742188 652.457031 L 317.933594 650.992188 L 320.109375 649.539062 L 322.300781 648.328125 L 324.613281 647.113281 L 327.039062 646.136719 L 329.46875 645.292969 L 332.015625 644.449219 L 334.558594 643.84375 L 337.105469 643.355469 L 339.535156 642.867188 L 342.082031 642.496094 L 344.507812 642.257812 L 347.070312 642.023438 L 349.617188 641.769531 L 354.710938 641.535156 L 361.269531 641.535156 L 363.089844 641.652344 L 366.734375 641.652344 L 368.4375 641.769531 L 370.140625 641.769531 L 371.707031 641.886719 L 373.292969 641.886719 L 374.742188 642.023438 L 376.210938 642.140625 L 377.660156 642.140625 L 378.992188 642.257812 L 380.324219 642.378906 L 381.539062 642.496094 L 382.75 642.628906 L 383.964844 642.75 L 385.0625 642.75 L 386.15625 642.867188 L 387.136719 642.984375 L 388.214844 643.101562 L 389.191406 643.238281 L 390.171875 643.355469 L 391.015625 643.472656 L 391.855469 643.472656 L 392.71875 643.589844 L 393.441406 643.707031 L 394.285156 643.84375 L 395.027344 643.960938 L 395.753906 644.078125 L 396.476562 644.199219 L 397.457031 644.316406 L 399.140625 644.6875 L 401.214844 645.410156 L 403.273438 646.507812 L 405.210938 648.089844 L 406.796875 650.148438 L 408.011719 652.574219 L 408.617188 655.003906 L 408.855469 656.941406 L 408.855469 676.003906 L 408.734375 677.082031 L 408.617188 678.429688 L 408.246094 679.761719 L 407.773438 680.976562 L 407.167969 682.070312 L 406.5625 683.285156 L 405.699219 684.246094 L 405.09375 685.105469 L 404.132812 685.949219 L 403.15625 686.671875 L 402.058594 687.398438 L 400.84375 688.003906 L 399.628906 688.375 L 398.417969 688.746094 L 397.085938 688.984375 L 354.101562 688.984375 L 353.140625 689.101562 L 352.398438 689.21875 L 352.046875 689.355469 L 351.929688 689.960938 L 351.792969 690.804688 L 351.675781 692.015625 Z M 351.675781 702.214844 " fill-opacity="1" fill-rule="evenodd"/><path fill="#0070b5" d="M 398.535156 678.667969 C 397.777344 679.460938 396.847656 679.863281 395.753906 679.882812 L 355.285156 679.882812 C 350.546875 679.882812 347.273438 680.859375 345.335938 682.796875 C 343.394531 684.734375 342.417969 688.257812 342.417969 693.464844 L 342.417969 711.316406 L 394.132812 711.316406 C 395.234375 711.332031 396.167969 711.738281 396.933594 712.53125 C 397.730469 713.285156 398.132812 714.214844 398.148438 715.3125 L 398.148438 734.375 C 398.132812 735.472656 397.730469 736.398438 396.933594 737.15625 C 396.15625 737.921875 395.222656 738.289062 394.132812 738.25 L 342.453125 738.25 L 342.453125 796.503906 C 342.46875 797.652344 342.066406 798.625 341.238281 799.421875 C 340.457031 800.179688 339.527344 800.546875 338.4375 800.515625 L 312.335938 800.515625 C 311.265625 800.519531 310.335938 800.152344 309.554688 799.421875 C 309.15625 799.042969 308.847656 798.597656 308.636719 798.089844 C 308.425781 797.582031 308.328125 797.054688 308.339844 796.503906 L 308.339844 693.464844 C 308.339844 684.363281 309.671875 677.082031 312.335938 671.554688 C 313.523438 668.945312 315.035156 666.542969 316.871094 664.339844 C 318.703125 662.136719 320.796875 660.214844 323.144531 658.574219 C 327.929688 655.40625 333.152344 653.34375 338.808594 652.390625 C 344.910156 651.296875 351.058594 650.769531 357.257812 650.804688 C 362.601562 650.804688 367.222656 650.804688 371.351562 651.042969 C 375.484375 651.277344 378.992188 651.53125 382.027344 651.78125 C 385.0625 652.035156 387.742188 652.253906 389.917969 652.507812 C 392.09375 652.761719 394.050781 653.113281 395.753906 653.351562 C 398.417969 653.722656 399.75 655.035156 399.75 657.363281 L 399.75 675.902344 C 399.753906 676.429688 399.652344 676.933594 399.441406 677.417969 C 399.226562 677.898438 398.925781 678.316406 398.535156 678.667969 Z M 398.535156 678.667969 " fill-opacity="1" fill-rule="evenodd"/><path fill="#ffffff" d="M 467.5 702.214844 L 511.207031 702.214844 L 512.539062 702.449219 L 513.871094 702.820312 L 515.085938 703.175781 L 516.296875 703.78125 L 517.394531 704.523438 L 518.371094 705.25 L 519.332031 706.089844 L 520.074219 706.949219 L 520.917969 707.910156 L 521.523438 709.125 L 522.132812 710.222656 L 522.621094 711.550781 L 522.976562 712.765625 L 523.109375 714.097656 L 523.226562 715.074219 L 523.226562 734.492188 L 523.109375 735.589844 L 522.976562 736.921875 L 522.621094 738.132812 L 522.132812 739.464844 L 521.523438 740.5625 L 520.917969 741.65625 L 520.191406 742.617188 L 519.332031 743.59375 L 518.371094 744.4375 L 517.394531 745.179688 L 516.296875 745.902344 L 515.085938 746.394531 L 513.871094 746.863281 L 512.539062 747.234375 L 511.324219 747.355469 L 510.226562 747.472656 L 467.5 747.472656 L 467.5 796.757812 L 467.382812 797.835938 L 467.261719 799.183594 L 466.894531 800.398438 L 466.402344 801.613281 L 465.914062 802.824219 L 465.191406 803.902344 L 464.464844 804.882812 L 463.621094 805.859375 L 462.644531 806.703125 L 461.664062 807.425781 L 460.585938 808.152344 L 458.15625 809.128906 L 456.808594 809.5 L 455.59375 809.617188 L 454.515625 809.734375 L 428.042969 809.734375 L 426.945312 809.617188 L 425.734375 809.5 L 424.402344 809.128906 L 421.972656 808.152344 L 420.875 807.425781 L 419.78125 806.703125 L 418.9375 805.859375 L 418.09375 804.882812 L 417.351562 803.902344 L 416.628906 802.824219 L 416.019531 801.730469 L 415.667969 800.398438 L 415.296875 799.183594 L 415.058594 797.835938 L 415.058594 689.707031 L 415.175781 688.003906 L 415.296875 686.183594 L 415.414062 684.5 L 415.667969 682.796875 L 415.902344 681.09375 L 416.136719 679.511719 L 416.507812 677.941406 L 416.878906 676.359375 L 417.234375 674.789062 L 417.722656 673.207031 L 418.210938 671.757812 L 418.703125 670.289062 L 419.308594 668.839844 L 419.914062 667.507812 L 421.246094 664.945312 L 422.578125 662.65625 L 424.164062 660.34375 L 425.851562 658.152344 L 427.671875 656.097656 L 429.628906 654.277344 L 431.683594 652.457031 L 433.742188 650.992188 L 435.933594 649.539062 L 438.125 648.328125 L 440.417969 647.113281 L 442.847656 646.136719 L 445.277344 645.292969 L 447.839844 644.449219 L 450.386719 643.84375 L 452.929688 643.355469 L 455.476562 642.867188 L 457.90625 642.496094 L 460.332031 642.257812 L 462.878906 642.023438 L 465.441406 641.769531 L 470.535156 641.535156 L 477.09375 641.535156 L 478.914062 641.652344 L 482.558594 641.652344 L 484.378906 641.769531 L 485.945312 641.769531 L 487.648438 641.886719 L 489.117188 641.886719 L 490.683594 642.023438 L 492.152344 642.140625 L 493.484375 642.140625 L 494.816406 642.257812 L 496.148438 642.378906 L 497.480469 642.496094 L 498.578125 642.628906 L 499.789062 642.75 L 500.886719 642.75 L 501.980469 642.867188 L 503.078125 642.984375 L 504.039062 643.101562 L 505.015625 643.238281 L 505.980469 643.355469 L 506.839844 643.472656 L 507.679688 643.472656 L 508.542969 643.589844 L 509.265625 643.707031 L 510.109375 643.84375 L 510.835938 643.960938 L 511.578125 644.078125 L 512.300781 644.199219 L 513.261719 644.316406 L 514.964844 644.6875 L 517.039062 645.410156 L 519.097656 646.507812 L 521.15625 648.089844 L 522.855469 650.148438 L 523.953125 652.574219 L 524.679688 655.003906 L 524.796875 656.941406 L 524.796875 676.121094 L 524.679688 677.082031 L 524.558594 678.429688 L 524.1875 679.644531 L 523.71875 680.976562 L 523.109375 682.191406 L 522.503906 683.285156 L 521.761719 684.246094 L 520.917969 685.105469 L 519.941406 685.949219 L 518.980469 686.671875 L 517.882812 687.398438 L 516.667969 688.003906 L 515.453125 688.375 L 514.242188 688.746094 L 512.910156 688.984375 L 469.929688 688.984375 L 468.949219 689.101562 L 468.226562 689.21875 L 467.871094 689.355469 L 467.734375 689.960938 L 467.617188 690.804688 L 467.5 692.015625 Z M 467.5 702.214844 " fill-opacity="1" fill-rule="evenodd"/><path fill="#0070b5" d="M 514.359375 678.667969 C 513.597656 679.457031 512.671875 679.859375 511.578125 679.882812 L 471.109375 679.882812 C 466.371094 679.882812 463.097656 680.859375 461.160156 682.796875 C 459.21875 684.734375 458.242188 688.257812 458.242188 693.464844 L 458.242188 711.316406 L 509.957031 711.316406 C 511.058594 711.335938 511.992188 711.742188 512.757812 712.53125 C 513.554688 713.285156 513.957031 714.214844 513.972656 715.3125 L 513.972656 734.375 C 513.957031 735.472656 513.554688 736.398438 512.757812 737.15625 C 511.980469 737.917969 511.046875 738.285156 509.957031 738.25 L 458.277344 738.25 L 458.277344 796.503906 C 458.292969 796.773438 458.28125 797.039062 458.242188 797.304688 C 458.203125 797.570312 458.136719 797.828125 458.042969 798.078125 C 457.945312 798.332031 457.828125 798.570312 457.679688 798.796875 C 457.535156 799.019531 457.367188 799.226562 457.179688 799.417969 C 456.988281 799.609375 456.78125 799.777344 456.554688 799.921875 C 456.328125 800.066406 456.089844 800.1875 455.839844 800.28125 C 455.585938 800.375 455.328125 800.445312 455.0625 800.484375 C 454.796875 800.523438 454.53125 800.535156 454.261719 800.515625 L 428.160156 800.515625 C 427.097656 800.496094 426.171875 800.132812 425.378906 799.421875 C 424.601562 798.605469 424.195312 797.632812 424.164062 796.503906 L 424.164062 693.464844 C 424.164062 684.363281 425.496094 677.082031 428.160156 671.554688 C 429.347656 668.945312 430.859375 666.542969 432.695312 664.339844 C 434.527344 662.136719 436.621094 660.214844 438.96875 658.574219 C 443.753906 655.402344 448.972656 653.339844 454.632812 652.390625 C 460.734375 651.300781 466.882812 650.773438 473.082031 650.804688 C 478.425781 650.804688 483.199219 650.804688 487.160156 651.042969 C 491.125 651.277344 494.816406 651.53125 497.851562 651.78125 C 500.886719 652.035156 503.550781 652.253906 505.742188 652.507812 C 507.933594 652.761719 509.875 653.113281 511.578125 653.351562 C 514.242188 653.722656 515.574219 655.035156 515.574219 657.363281 L 515.574219 675.902344 C 515.578125 676.429688 515.476562 676.933594 515.265625 677.417969 C 515.054688 677.898438 514.75 678.316406 514.359375 678.667969 Z M 514.359375 678.667969 " fill-opacity="1" fill-rule="evenodd"/><g clip-path="url(#4499b2430d)"><path fill="#ffffff" d="M 581.992188 641.417969 L 585.027344 641.417969 L 586.476562 641.535156 L 587.925781 641.535156 L 589.394531 641.652344 L 590.84375 641.886719 L 592.3125 642.023438 L 593.761719 642.257812 L 595.347656 642.496094 L 597.03125 642.867188 L 598.617188 643.355469 L 600.066406 643.707031 L 601.652344 644.316406 L 603.101562 644.921875 L 604.6875 645.527344 L 606.136719 646.269531 L 607.722656 647.113281 L 609.171875 648.089844 L 610.640625 649.050781 L 612.089844 650.265625 L 613.421875 651.480469 L 614.636719 652.691406 L 615.851562 654.023438 L 617.066406 655.492188 L 618.277344 657.058594 L 619.257812 658.742188 L 620.351562 660.5625 L 621.195312 662.386719 L 621.921875 664.324219 L 622.664062 666.277344 L 623.386719 668.335938 L 623.875 670.390625 L 653.738281 794.429688 L 653.859375 794.921875 L 653.859375 795.15625 L 653.976562 795.644531 L 653.976562 796 L 654.09375 796.605469 L 654.09375 797.347656 L 653.976562 799.523438 L 653.367188 801.832031 L 652.273438 804.257812 L 650.453125 806.449219 L 648.15625 808.136719 L 645.847656 809.113281 L 643.65625 809.601562 L 641.835938 809.71875 L 613.421875 809.71875 L 612.460938 809.601562 L 611.246094 809.484375 L 610.152344 809.230469 L 608.9375 808.875 L 606.507812 807.664062 L 605.53125 806.921875 L 604.570312 806.078125 L 603.84375 805.355469 L 603.238281 804.496094 L 602.632812 803.652344 L 602.140625 802.808594 L 601.652344 801.832031 L 601.25 800.902344 L 600.894531 800.0625 L 600.640625 799.21875 L 595.058594 773.480469 L 581.957031 773.480469 L 581.957031 727.699219 L 585.332031 727.699219 L 581.957031 712.042969 Z M 561.351562 803.667969 L 560.746094 804.394531 L 560.140625 805.253906 L 559.398438 806.09375 L 558.4375 806.9375 L 557.40625 807.644531 L 556.3125 808.253906 L 555.097656 808.859375 L 553.882812 809.214844 L 552.667969 809.464844 L 551.574219 809.585938 L 550.613281 809.703125 L 522.132812 809.703125 L 520.3125 809.585938 L 518.121094 809.09375 L 515.824219 808.117188 L 513.515625 806.433594 L 511.695312 804.242188 L 510.597656 801.8125 L 509.992188 799.503906 L 509.875 797.683594 L 509.875 796.722656 L 509.992188 795.628906 L 510.109375 795.019531 L 510.109375 794.902344 L 510.226562 794.296875 L 540.105469 670.375 L 540.578125 668.316406 L 541.320312 666.261719 L 541.929688 664.304688 L 542.769531 662.367188 L 543.613281 660.546875 L 544.59375 658.726562 L 545.6875 657.042969 L 546.902344 655.472656 L 548 654.007812 L 549.210938 652.675781 L 550.542969 651.460938 L 551.875 650.25 L 553.328125 649.035156 L 554.792969 648.074219 L 556.242188 647.097656 L 557.828125 646.253906 L 559.277344 645.511719 L 560.863281 644.90625 L 562.3125 644.300781 L 563.898438 643.691406 L 565.46875 643.21875 L 567.050781 642.847656 L 568.636719 642.480469 L 570.324219 642.242188 L 571.789062 642.007812 L 573.242188 641.871094 L 574.707031 641.636719 L 576.15625 641.519531 L 577.640625 641.519531 L 579.109375 641.398438 L 582.027344 641.398438 L 582.027344 712.023438 L 578.5 727.683594 L 582.027344 727.683594 L 582.027344 773.429688 L 568.875 773.429688 L 563.175781 799.21875 L 562.921875 800.0625 L 562.683594 801.039062 L 562.3125 801.882812 L 561.824219 802.722656 Z M 561.351562 803.667969 " fill-opacity="1" fill-rule="evenodd"/></g><path fill="#0070b5" d="M 644.988281 797.363281 C 644.988281 799.539062 643.773438 800.515625 641.617188 800.515625 L 613.558594 800.515625 C 612.558594 800.570312 611.703125 800.246094 610.996094 799.539062 C 610.332031 798.804688 609.886719 797.957031 609.664062 796.992188 L 602.378906 764.226562 L 581.992188 764.226562 L 581.992188 736.851562 L 596.796875 736.851562 L 584.65625 681.75 C 584.503906 680.953125 584.261719 680.183594 583.929688 679.441406 C 583.445312 678.898438 582.839844 678.65625 582.109375 678.71875 L 581.992188 678.71875 L 581.992188 650.519531 L 582.109375 650.519531 C 585.507812 650.503906 588.878906 650.785156 592.226562 651.359375 C 595.601562 651.800781 598.792969 652.8125 601.804688 654.394531 C 604.957031 656.03125 607.585938 658.28125 609.695312 661.136719 C 612.269531 664.648438 614.011719 668.527344 614.921875 672.785156 L 644.667969 796.453125 C 644.636719 796.671875 644.675781 796.871094 644.785156 797.0625 C 644.871094 797.113281 644.988281 797.230469 644.988281 797.363281 Z M 581.992188 764.226562 L 561.472656 764.226562 L 554.304688 796.992188 C 554.085938 797.960938 553.644531 798.808594 552.972656 799.539062 C 552.222656 800.261719 551.332031 800.589844 550.292969 800.515625 L 522.367188 800.515625 C 520.191406 800.515625 518.996094 799.539062 518.996094 797.363281 C 518.996094 797.230469 519.113281 797.113281 519.113281 796.992188 C 519.222656 796.804688 519.261719 796.601562 519.230469 796.386719 L 548.976562 672.800781 C 549.886719 668.546875 551.628906 664.664062 554.203125 661.15625 C 556.3125 658.296875 558.941406 656.050781 562.09375 654.414062 C 565.113281 652.828125 568.308594 651.816406 571.691406 651.378906 C 575.105469 650.800781 578.542969 650.519531 582.007812 650.535156 L 582.007812 678.800781 C 580.542969 678.921875 579.699219 679.898438 579.328125 681.835938 L 567.050781 736.851562 L 581.992188 736.851562 Z M 581.992188 764.226562 " fill-opacity="1" fill-rule="evenodd"/></svg>