<svg xmlns="http://www.w3.org/2000/svg" viewBox="0 0 295.34 480.24"><defs><style>.cls-1{fill:#fff;}.cls-1,.cls-2,.cls-3,.cls-4{fill-rule:evenodd;}.cls-2{fill:#e7272a;}.cls-3{fill:#0070b5;}.cls-4{fill:#2ca44e;}</style></defs><title>Eszköz 1</title><g id="Réteg_2" data-name="Réteg 2"><g id="Layer_1" data-name="Layer 1"><path class="cls-1" d="M72.29,83.88c-13.61,20.09-24.19,46.87-22,77,1.22,11.73,4.53,22.75,7.41,34.13,5,20.52,1.08,36.5-5.9,56.16C38.38,290.88,54,335.81,88.56,358.2c15.84,10.3,34.34,14.9,53.28,14.26,53.35-1.73,90.5-45.08,103.46-93.68,6.27-26.13,5.76-51.69-.64-77.61A245.34,245.34,0,0,0,219,140.4c-12.24-20.3-26.28-39.6-36.72-61C170.06,54.29,172.66,35.5,180,9.65c-15.34,12.81-31.82,30.67-33.62,64.44-6.7-24.7-3-49.9,9.57-74.09-10.44,2.3-31.25,15.55-42.41,30.53C94.46,44.64,77.83,64,72.29,83.88Z"/><path class="cls-2" d="M134.57,202.54c-3.46,34.48-14.11,38.52-18.87,55.36a42.17,42.17,0,0,0,.94,27.72c4.39,10.3,11.81,15.63,21.17,18.15,17.13,4.68,33.05-3.6,40.17-25.2,19.37-53.35-6.84-126.58-16.92-146.88-17.71-38.09-43.7-78.84-17.92-120.75-43,30.82-30.1,81.72-18,125.93C127.51,145.44,136,173.52,134.57,202.54Z"/><path class="cls-3" d="M74.38,206c2.16-5,8.71-21.24-.15-54-5.25-19.58-7.41-33.77-4.1-46.8-6,11.09-9.36,23-11,39.17-3.17,29.95,11.52,47.74,9.58,71.93C68.62,217.37,72.29,211,74.38,206Z"/><path class="cls-3" d="M108.86,289.58a56.41,56.41,0,0,1-2.66-28.22c.29-1.66-20.16-12-21.24-11.16-10.37,5-17.28,11.09-18.36,12.46a70.69,70.69,0,0,0,3.67,37.22,51.56,51.56,0,0,0,20.52,14.9l23.91-15.19A34.55,34.55,0,0,1,108.86,289.58Z"/><path class="cls-3" d="M205.63,301.25l-25.63-6c-7.63,9.51-10.22,12-23.76,17.86l4.54,25.7c8.28,1.51,21.31,2.81,25.63.36,0,0,.57-.29,1.44-.79a77.63,77.63,0,0,0,18.43-13.75C208.94,314.35,206.57,304.63,205.63,301.25Z"/><path class="cls-3" d="M206.86,329.18h0a65.79,65.79,0,0,1-7.64,7.13,69.34,69.34,0,0,1-9.28,7.92c-.08.43-.08,1-.15,1.66-.14,1.15-.36,2.66-.65,4.39A83.07,83.07,0,0,0,208.8,330.7,14.82,14.82,0,0,0,206.86,329.18Z"/><path class="cls-3" d="M64.37,298.8h0c-1.66-5.4-5.83-25.78-2.16-38.16-1.23-4.82-1.37-13.54-1.37-13.54-2.3,6.12-6.7,13.68-6.7,35.21,0,10,3.46,22.61,7.06,31.68.22-1.22.5-2.37.72-3.45a51.9,51.9,0,0,1,3.24-9.44V301C64.94,300.46,64.66,299.74,64.37,298.8Z"/><path class="cls-3" d="M101.3,343.51h0c1.88,1.44,14.91,11,35.07,11.88,1.29-.65,4.53-2.45,8.28-4.89a65.74,65.74,0,0,0,11.09-9l-5.4-27.58a19.13,19.13,0,0,1-2,.29,50.79,50.79,0,0,1-14.11-1.95,45.35,45.35,0,0,1-15.84-8.92L93.74,319.1a39.9,39.9,0,0,0,4.11,18.22A44.71,44.71,0,0,0,101.3,343.51Z"/><path class="cls-3" d="M159.48,345.1h0a56.27,56.27,0,0,1-7.56,6.62,105.32,105.32,0,0,1-10.37,6.77,77.21,77.21,0,0,0,10,6.62,83.46,83.46,0,0,0,31.18-10.73c.64-2,1-4,1.36-5.61.08-.72.22-1.44.29-2.09C176.4,348.41,164,346.1,159.48,345.1Z"/><path class="cls-3" d="M91.22,335h0a42.85,42.85,0,0,1-2.73-15.56,57.19,57.19,0,0,1-19.73-13.39,45.16,45.16,0,0,0-2.66,11.09,38.05,38.05,0,0,0-.29,6.48A81.58,81.58,0,0,0,82.22,344a89.18,89.18,0,0,0,12.89-.58A53.87,53.87,0,0,1,91.22,335Z"/><path class="cls-3" d="M135.86,360.58a60.56,60.56,0,0,0,6.92,5.32c-1,0-2.09.08-3.17.08A85.6,85.6,0,0,1,88.49,349.2a57.94,57.94,0,0,0,10.37-1C102.53,350.93,115.78,359.64,135.86,360.58Z"/><path class="cls-3" d="M117.07,135.65c-11.09-30.53-30.24-59-9.07-92-32.18,32-35.71,59.11-25.2,106.56C90.43,184.32,85,196.56,77.62,212c-1.44,2.95-17.28,28.8-12.17,43.2,3.74-3,10.51-8.79,20.81-11.81,1-.36,14.18,4.61,22.53,9.79,7.06-20.45,16.85-24.84,19.73-51.77C130.9,171.65,122,149,117.07,135.65Z"/><path class="cls-2" d="M192.89,203.76v0Z"/><path class="cls-1" d="M168.34,262.58A21.25,21.25,0,0,1,166.68,274,20.41,20.41,0,1,1,129.6,257a20.27,20.27,0,0,1,7.63-8.64,24.41,24.41,0,1,0,31.11,14.25Z"/><polygon class="cls-1" points="168.19 244.3 162.58 249.12 167.76 254.3 160.42 253.8 160.34 261.14 155.52 255.6 150.26 260.71 150.84 253.44 143.57 253.37 149.04 248.54 143.93 243.36 151.2 243.86 151.27 236.59 156.1 242.06 161.35 237.02 160.78 244.22 168.19 244.3"/><path class="cls-4" d="M241,232.34c-1.8-29.52-14.25-64.65-35.06-96.55-3.74-5.69-7.13-10.94-10.22-15.84V280.22h0v12.89l13.32,3.6a49,49,0,0,1,2.52,29.38c13.6-14.4,28-42.41,29.52-78.27V234.94C241.06,234.07,241,233.21,241,232.34ZM195.7,120C164,70.13,164.09,61.42,170.06,26.42c-10.51,16.42-15.19,32.76-15.62,49.18v4.61c.43,18.36,6,36.86,14.62,55.65,18.36,40.32,32.68,104.55,13.24,153.65l13.4,3.6V280.22h0Z"/><path class="cls-1" d="M42.77,380.38h1.8l.86.07h.87l.86.07.86.14.87.08.93.14.94.14.94.22.93.29.94.21.86.36.94.36.86.36.87.44.93.5.87.58.93.57.79.72.8.72.79.72.72.79.65.87.72.93.64,1,.58,1.08.5,1.08.51,1.15.36,1.16.43,1.22.29,1.22L85.32,471.1l.07.36.07.36.08.72v.57l-.08,1.08-.36,1.37L84.46,477l-1.08,1.3-1.37,1-1.37.58-1.3.29-1.08.07H61.42l-.58-.07-.72-.07-.65-.15-.72-.21-.72-.36-.65-.36-.64-.44-.58-.5-.43-.5-.36-.51-.36-.43-.29-.58-.29-.5-.21-.58-.15-.5-.14-.5-3.39-15.27H42.77V431.57h2.09l-2.09-9.29Zm-13,97.2-.43.5-.58.5-.58.44-.72.36-.72.36-.72.21-.64.15-.72.07-.58.07H7.27l-1.08-.07-1.29-.29-1.37-.58-1.37-1L1.08,477l-.65-1.44-.36-1.37L0,472.9v-.44l.07-.36v-.21l.07-.36.08-.22v-.14l17.71-73.59.29-1.22.43-1.22.43-1.16.43-1.15.58-1.08.57-1.08.58-1,.72-.93.72-.87.72-.79.72-.72.79-.72.87-.72.86-.57.86-.58.94-.5.94-.44.86-.36.86-.36.94-.36.94-.28.93-.22,1-.22.94-.14.86-.14.86-.08.87-.14.86-.07h.94l.86-.07h1.66v41.9h0l-2,9.29h2v27.14H35L31.68,474l-.14.5-.22.58-.22.5-.28.58-.29.5-.36.5Z"/><path class="cls-3" d="M80.14,472.9c0,1.29-.72,1.87-2,1.87H61.56a2.06,2.06,0,0,1-1.58-.58,3.42,3.42,0,0,1-.8-1.51l-4.24-19.44H42.77V437h8.85l-7.27-32.69h0a6.19,6.19,0,0,0-.43-1.37c-.14-.28-.5-.43-1.08-.43h-.07V385.78h.07a35.09,35.09,0,0,1,6.12.5,17.43,17.43,0,0,1,5.69,1.8,14.16,14.16,0,0,1,4.61,4A18.21,18.21,0,0,1,62.35,399L80,472.32a.56.56,0,0,0,.07.36A.25.25,0,0,1,80.14,472.9ZM42.77,453.24H30.67l-4.32,19.44a3.31,3.31,0,0,1-.79,1.51,2.07,2.07,0,0,1-1.58.58H7.42c-1.3,0-2-.58-2-1.87,0-.08.07-.15.07-.22a.56.56,0,0,0,.07-.36L23.18,399a18.07,18.07,0,0,1,3.1-6.91,13.7,13.7,0,0,1,4.68-4,16.92,16.92,0,0,1,5.69-1.8,35.65,35.65,0,0,1,6.12-.5v16.77c-.79.07-1.37.65-1.59,1.8L34,437h8.79Z"/><polygon class="cls-1" points="115.99 416.45 141.34 416.45 141.91 416.45 142.7 416.59 143.5 416.81 144.22 417.02 144.94 417.38 145.58 417.82 146.16 418.25 146.74 418.75 147.17 419.26 147.67 419.83 147.96 420.55 148.32 421.2 148.61 421.99 148.82 422.71 148.9 423.5 148.9 424.15 148.9 435.6 148.9 436.25 148.75 437.04 148.61 437.76 148.32 438.55 147.96 439.2 147.67 439.85 147.17 440.5 146.66 441 146.16 441.5 145.58 441.94 144.94 442.37 144.22 442.66 143.5 442.94 142.7 443.16 141.98 443.23 141.34 443.3 115.99 443.3 115.99 472.54 115.92 473.18 115.85 473.98 115.63 474.77 115.34 475.49 114.98 476.14 114.62 476.78 114.19 477.36 113.69 477.94 113.11 478.44 112.54 478.87 111.89 479.3 111.17 479.59 110.45 479.88 109.66 480.1 108.94 480.17 108.29 480.24 92.52 480.24 91.94 480.17 91.15 480.1 90.43 479.88 89.71 479.66 88.99 479.3 88.34 478.87 87.77 478.44 87.19 477.94 86.62 477.36 86.18 476.78 85.82 476.14 85.46 475.42 85.18 474.7 85.03 473.98 84.89 473.18 84.89 472.54 84.89 411.19 84.89 410.11 84.89 409.03 84.96 408.02 85.03 406.94 85.1 405.94 85.25 404.93 85.39 403.92 85.54 402.98 85.75 401.98 85.97 401.11 86.18 400.18 86.47 399.24 86.76 398.38 87.05 397.51 87.41 396.65 87.77 395.86 88.56 394.34 89.35 392.98 90.29 391.61 91.3 390.31 92.38 389.09 93.46 388.01 94.68 386.93 95.98 386.06 97.27 385.2 98.57 384.48 99.94 383.76 101.38 383.18 102.82 382.68 104.33 382.18 105.84 381.82 107.35 381.53 108.79 381.24 110.3 381.02 111.74 380.88 113.26 380.74 114.77 380.59 116.28 380.52 117.79 380.45 119.3 380.45 120.46 380.45 121.68 380.45 122.76 380.52 123.84 380.52 124.92 380.52 125.93 380.59 126.94 380.59 127.87 380.66 128.81 380.66 129.67 380.74 130.54 380.81 131.4 380.81 132.19 380.88 132.98 380.95 133.7 381.02 134.42 381.1 135.14 381.17 135.79 381.17 136.44 381.24 137.02 381.31 137.66 381.38 138.24 381.46 138.82 381.53 139.32 381.6 139.82 381.6 140.33 381.67 140.76 381.74 141.26 381.82 141.7 381.89 142.13 381.96 142.56 382.03 143.14 382.1 144.14 382.32 145.37 382.75 146.59 383.4 147.74 384.34 148.68 385.56 149.4 387 149.76 388.44 149.9 389.59 149.9 400.9 149.83 401.54 149.76 402.34 149.54 403.13 149.26 403.85 148.9 404.5 148.54 405.22 148.03 405.79 147.67 406.3 147.1 406.8 146.52 407.23 145.87 407.66 145.15 408.02 144.43 408.24 143.71 408.46 142.92 408.6 142.27 408.6 118.15 408.6 117.43 408.6 116.86 408.67 116.42 408.74 116.21 408.82 116.14 409.18 116.06 409.68 115.99 410.4 115.99 411.26 115.99 416.45"/><path class="cls-3" d="M143.78,402.48a2.33,2.33,0,0,1-1.65.72h-24c-2.81,0-4.75.58-5.9,1.73s-1.73,3.24-1.73,6.33v10.59h30.67a2.35,2.35,0,0,1,1.66.72,2.31,2.31,0,0,1,.72,1.65v11.31a2.31,2.31,0,0,1-.72,1.65,2.25,2.25,0,0,1-1.66.65H110.52v34.56a2.35,2.35,0,0,1-.72,1.73,2.29,2.29,0,0,1-1.66.65H92.66a2.41,2.41,0,0,1-1.65-.65,2.31,2.31,0,0,1-.72-1.73V411.26c0-5.4.79-9.72,2.37-13a19,19,0,0,1,6.41-7.7,24.09,24.09,0,0,1,9.29-3.67,60,60,0,0,1,10.94-.94c3.17,0,5.91,0,8.36.14s4.53.29,6.33.44,3.39.28,4.68.43,2.45.36,3.46.5c1.58.22,2.37,1,2.37,2.38v11A2.17,2.17,0,0,1,143.78,402.48Z"/><polygon class="cls-1" points="184.68 416.45 210.02 416.45 210.6 416.45 211.39 416.59 212.18 416.81 212.9 417.02 213.62 417.38 214.27 417.82 214.85 418.25 215.42 418.75 215.86 419.26 216.36 419.83 216.72 420.55 217.08 421.2 217.37 421.99 217.58 422.71 217.66 423.5 217.73 424.08 217.73 435.6 217.66 436.25 217.58 437.04 217.37 437.76 217.08 438.55 216.72 439.2 216.36 439.85 215.93 440.42 215.42 441 214.85 441.5 214.27 441.94 213.62 442.37 212.9 442.66 212.18 442.94 211.39 443.16 210.67 443.23 210.02 443.3 184.68 443.3 184.68 472.54 184.61 473.18 184.54 473.98 184.32 474.7 184.03 475.42 183.74 476.14 183.31 476.78 182.88 477.36 182.38 477.94 181.8 478.44 181.22 478.87 180.58 479.3 179.86 479.59 179.14 479.88 178.34 480.1 177.62 480.17 176.98 480.24 161.28 480.24 160.63 480.17 159.91 480.1 159.12 479.88 158.4 479.59 157.68 479.3 157.03 478.87 156.38 478.44 155.88 477.94 155.38 477.36 154.94 476.78 154.51 476.14 154.15 475.49 153.94 474.7 153.72 473.98 153.58 473.18 153.58 472.54 153.58 411.19 153.58 410.11 153.58 409.03 153.65 408.02 153.72 406.94 153.79 405.94 153.94 404.93 154.08 403.92 154.22 402.98 154.44 402.05 154.66 401.11 154.87 400.18 155.16 399.24 155.45 398.38 155.74 397.51 156.1 396.65 156.46 395.86 157.25 394.34 158.04 392.98 158.98 391.61 159.98 390.31 161.06 389.09 162.22 388.01 163.44 386.93 164.66 386.06 165.96 385.2 167.26 384.48 168.62 383.76 170.06 383.18 171.5 382.68 173.02 382.18 174.53 381.82 176.04 381.53 177.55 381.24 178.99 381.02 180.43 380.88 181.94 380.74 183.46 380.59 184.97 380.52 186.48 380.45 187.99 380.45 189.22 380.45 190.37 380.45 191.45 380.52 192.6 380.52 193.61 380.52 194.69 380.59 195.62 380.59 196.63 380.66 197.5 380.66 198.43 380.74 199.3 380.81 200.09 380.81 200.88 380.88 201.67 380.95 202.46 381.02 203.11 381.1 203.83 381.17 204.48 381.17 205.13 381.24 205.78 381.31 206.35 381.38 206.93 381.46 207.5 381.53 208.01 381.6 208.51 381.6 209.02 381.67 209.45 381.74 209.95 381.82 210.38 381.89 210.82 381.96 211.25 382.03 211.82 382.1 212.83 382.32 214.06 382.75 215.28 383.4 216.5 384.34 217.51 385.56 218.16 387 218.59 388.44 218.66 389.59 218.66 400.97 218.59 401.54 218.52 402.34 218.3 403.06 218.02 403.85 217.66 404.57 217.3 405.22 216.86 405.79 216.36 406.3 215.78 406.8 215.21 407.23 214.56 407.66 213.84 408.02 213.12 408.24 212.4 408.46 211.61 408.6 210.96 408.6 186.91 408.6 186.12 408.6 185.54 408.67 185.11 408.74 184.9 408.82 184.82 409.18 184.75 409.68 184.68 410.4 184.68 411.26 184.68 416.45"/><path class="cls-3" d="M212.47,402.48a2.35,2.35,0,0,1-1.65.72h-24c-2.81,0-4.75.58-5.9,1.73s-1.73,3.24-1.73,6.33v10.59h30.67a2.37,2.37,0,0,1,1.66.72,2.31,2.31,0,0,1,.72,1.65v11.31a2.31,2.31,0,0,1-.72,1.65,2.27,2.27,0,0,1-1.66.65H179.21v34.56a2.24,2.24,0,0,1-2.38,2.38H161.35a2.54,2.54,0,0,1-1.65-.65,2.61,2.61,0,0,1-.72-1.73V411.26c0-5.4.79-9.72,2.37-13a19,19,0,0,1,6.41-7.7,24,24,0,0,1,9.29-3.67,60.5,60.5,0,0,1,10.94-.94c3.17,0,6,0,8.35.14s4.54.29,6.34.44,3.38.28,4.68.43,2.45.36,3.46.5c1.58.22,2.37,1,2.37,2.38v11A2.17,2.17,0,0,1,212.47,402.48Z"/><path class="cls-1" d="M252.58,380.38h1.8l.86.07h.86l.87.07.86.14.87.08.86.14.94.14,1,.22.94.29.86.21.94.36.86.36.94.36.86.44.94.5.86.58.87.57.86.72.79.72.72.72.72.79.72.87.72.93.58,1,.65,1.08.5,1.08.43,1.15.44,1.16.43,1.22.29,1.22,17.71,73.59.07.29v.14l.07.29v.21l.07.36v.44l-.07,1.29-.36,1.37-.65,1.44-1.08,1.3-1.36,1-1.37.58-1.3.29-1.08.07H271.22l-.57-.07-.72-.07-.65-.15-.72-.21-.72-.36-.72-.36-.58-.44-.57-.5-.43-.43-.36-.51-.36-.5-.29-.5-.29-.58L264,475l-.21-.5-.15-.5-3.31-15.27h-7.77V431.57h2l-2-9.29Zm-12.24,96.26-.36.43-.36.51-.44.5-.57.5L238,479l-.65.36-.72.36-.72.21-.72.15-.65.07-.57.07H217.08l-1.08-.07-1.3-.29-1.36-.58-1.37-1-1.08-1.3-.65-1.44-.36-1.37-.07-1.08v-.57l.07-.65.07-.36v-.07l.07-.36,17.72-73.52.28-1.22.44-1.22.36-1.16.5-1.15.5-1.08.58-1.08.65-1,.72-.93.65-.87.72-.79.79-.72.79-.72.86-.72.87-.57.86-.58.94-.5.86-.44.94-.36.86-.36.94-.36.93-.28.94-.22.94-.22,1-.14.87-.14.86-.08.87-.14.86-.07H250l.87-.07h1.73v41.9h0l-2.09,9.29h2.09v27.14H244.8L241.42,474l-.15.5-.14.58-.22.5-.29.5Z"/><path class="cls-3" d="M289.94,472.9c0,1.29-.72,1.87-2,1.87H271.3a2,2,0,0,1-1.52-.58,3.41,3.41,0,0,1-.79-1.51l-4.32-19.44H252.58V437h8.78l-7.2-32.69h0a6.19,6.19,0,0,0-.43-1.37,1.3,1.3,0,0,0-1.08-.43h-.07V385.78h.07a34.38,34.38,0,0,1,6,.5,16.86,16.86,0,0,1,5.68,1.8,13.61,13.61,0,0,1,4.68,4,18.07,18.07,0,0,1,3.1,6.91l17.64,73.37a.56.56,0,0,0,.07.36C289.87,472.75,289.94,472.82,289.94,472.9Zm-37.36-19.66H240.41l-4.25,19.44a3.31,3.31,0,0,1-.79,1.51,2.08,2.08,0,0,1-1.59.58H217.22c-1.29,0-2-.58-2-1.87,0-.08.07-.15.07-.22a.56.56,0,0,0,.07-.36L233,399a18.07,18.07,0,0,1,3.1-6.91,13.61,13.61,0,0,1,4.68-4,16.92,16.92,0,0,1,5.69-1.8,35.57,35.57,0,0,1,6.12-.5v16.77c-.87.07-1.37.65-1.59,1.8L243.72,437h8.86Z"/></g></g></svg>