<svg id="9134af42-8c1c-498f-8580-affd9b58c38b" data-name="Layer 1" xmlns="http://www.w3.org/2000/svg" viewBox="0 0 196.42 267.19"><title>3017624_BLR AI</title><path d="M306,459.43a98,98,0,1,0-98.14-97.92C207.86,415.51,251.86,459.43,306,459.43Z" transform="translate(-207.79 -263.23)" fill="#fff" fill-rule="evenodd"/><path d="M276.77,482.4h17.5l-1.08,3-.29.72-.36.72-.36.72-.5.65-.5.65-.5.65-.65.65-.65.58-.72.5-.79.5L287,492l-.94.36-.94.22-1,.14-1.08.07-6.26-.07V482.4Zm0,14.33h4.46l.58.07h.65l.58.07.58.07.65.07.58.14.5.14.58.14.58.14.5.22.5.22.5.29.5.22.43.29.5.36.43.29.43.36.36.43.36.43.36.43.36.43.29.5.29.5.22.5.22.58.22.58.14.58.14.58.07.65.07.65v.65l.07.65v.43l-.07.36v3l.07.36v8.64l-.07.58-.14.58-.14.58-.14.58-.22.5-.29.58-.29.5-.29.43-.36.5-.36.43-.36.43-.43.36-.43.36-.5.36-.43.36-.5.29-.58.29-.5.29-.58.22-.58.22-.58.22-.58.22-.65.14-.65.14-.65.14-.65.14-.65.07-.65.07-.72.07h-3.74V520.27h.07l.94-.07,1.87-.07h.22l.07-.07h0L280,520v-12.6l-.07-.07h0l-.07-.07h-.07v-.07h-3Zm-6.41-14.33h6.41v10.37h-3.24v4h3.24v10.44h-3.24v14.62l.22-.14.65-.43.79-.43.79-.29.79-.22v10.15H269l.72-2.52-.07.07-.43.22-.43.29-.43.22-.43.22-.43.22-.5.22-.43.14-.5.22-.43.14-.5.14-.5.07-.43.14-.5.07-.5.07h-.43l-.5.07h-2.16V491.18l.14-.94.22-.94.29-.86.36-.79.5-.86.5-.72.65-.72.65-.65.79-.58.79-.5.86-.43,1-.36.94-.22,1.08-.14,1.08-.07h.43Z" transform="translate(-207.79 -263.23)" fill="#fff" fill-rule="evenodd"/><polygon points="62.42 220.03 62.5 220.03 62.5 220.03 85.25 220.03 84.6 221.83 84.31 222.48 84.02 223.13 83.59 223.78 83.23 224.42 82.73 225.07 82.22 225.65 81.65 226.22 81.07 226.8 80.35 227.23 79.63 227.66 78.84 228.02 78.05 228.31 77.18 228.53 76.25 228.67 75.24 228.74 64.94 228.74 64.87 234.36 73.44 234.36 74.02 234.36 74.59 234.43 75.17 234.5 75.74 234.58 76.25 234.65 76.82 234.72 77.33 234.86 77.9 235.01 78.41 235.15 78.91 235.37 79.34 235.58 79.85 235.8 80.28 236.02 80.71 236.3 81.14 236.59 81.5 236.95 81.94 237.24 82.3 237.6 82.58 237.96 82.94 238.39 83.23 238.82 83.52 239.26 83.74 239.69 83.95 240.19 84.17 240.7 84.31 241.2 84.46 241.78 84.6 242.28 84.67 242.93 84.74 243.5 84.82 244.08 84.82 244.73 84.82 245.16 84.82 245.52 84.82 246.24 84.82 246.6 84.82 247.03 84.82 247.39 84.82 247.75 84.82 248.11 84.82 248.54 84.82 248.9 84.82 249.26 84.82 249.62 84.82 250.06 84.82 250.42 84.82 250.78 84.82 251.14 84.82 251.93 84.82 252.29 84.82 252.72 84.82 253.08 84.82 253.44 84.82 253.8 84.82 254.23 84.82 254.59 84.82 254.95 84.82 255.38 84.82 255.74 84.82 256.1 84.82 256.54 84.82 256.9 84.82 257.47 84.74 257.98 84.67 258.55 84.53 259.06 84.38 259.56 84.17 260.06 83.95 260.5 83.66 260.93 83.38 261.43 83.09 261.79 82.73 262.22 82.37 262.58 82.01 262.94 81.58 263.3 81.14 263.66 80.71 263.95 80.28 264.24 79.78 264.53 79.27 264.74 78.7 264.96 78.19 265.18 77.62 265.39 77.04 265.61 76.46 265.75 75.89 265.9 75.24 266.04 74.66 266.11 74.02 266.18 73.37 266.26 72.72 266.33 72 266.33 71.35 266.33 62.35 266.33 62.78 264.67 63 264.1 63.22 263.52 63.5 262.87 63.79 262.3 64.08 261.72 64.44 261.14 64.87 260.57 65.38 259.99 65.88 259.56 66.46 259.06 67.03 258.7 67.68 258.34 68.4 258.05 69.19 257.9 69.98 257.76 71.93 257.76 72.22 257.76 72.36 257.69 72.58 257.62 72.72 257.47 72.86 257.26 72.94 257.11 73.01 256.9 73.08 256.61 73.08 244.37 73.08 244.08 73.01 243.86 72.86 243.65 72.72 243.43 72.58 243.29 72.36 243.22 72.14 243.14 71.86 243.07 64.87 243.07 64.94 258.7 64.87 259.13 64.8 259.56 64.73 259.99 64.58 260.42 64.37 260.78 64.22 261.14 63.94 261.58 63.72 261.86 63.43 262.22 63.14 262.58 62.86 262.87 62.5 263.16 62.14 263.45 61.78 263.74 61.42 264.02 60.98 264.24 60.62 264.53 60.19 264.74 59.76 264.96 59.33 265.1 58.9 265.32 58.46 265.46 58.03 265.68 57.53 265.75 57.1 265.9 56.66 266.04 56.16 266.11 55.73 266.18 55.3 266.26 54.86 266.33 54.43 266.33 53.14 266.33 53.14 228.82 53.14 228.02 53.28 227.16 53.42 226.37 53.71 225.58 54.07 224.78 54.5 224.06 55.01 223.34 55.51 222.7 56.16 222.12 56.81 221.62 57.6 221.18 58.39 220.75 59.26 220.46 60.19 220.25 61.13 220.1 62.14 220.03 62.21 220.03 62.28 220.03 62.35 220.03 62.35 220.03 62.42 220.03 62.42 220.03" fill="#fff" fill-rule="evenodd"/><path d="M261.79,521h10.08v.94c-.07,3.89-5.9,6.77-10.08,6.77V521Zm19.58,0h10.3c-.65,4.9-5.9,7.7-12.53,7.7l-7.92.07c.79-3,2.66-6.62,6.62-6.91h1.94A2,2,0,0,0,281.38,521Z" transform="translate(-207.79 -263.23)" fill="#aa0136"/><path d="M291.6,521.64H280.66a2.4,2.4,0,0,0,1-1.22h10.08a7.09,7.09,0,0,1-.14,1.22Zm-19.73,0H261.79v-1.22h10.08Z" transform="translate(-207.79 -263.23)" fill="#aa0136"/><path d="M291.67,521h-10.3a2,2,0,0,0,.36-1.15h10v.29a3.51,3.51,0,0,1-.07.86Zm-19.8,0H261.79v-1.15h10.08Z" transform="translate(-207.79 -263.23)" fill="#aa0136"/><path d="M291.74,520.42H281.66c0-.14.07-.36.07-.58v-.65h10v1.22Zm-19.87,0H261.79v-1.22h10.08Z" transform="translate(-207.79 -263.23)" fill="#ac0136"/><path d="M291.74,519.84h-10v-1.22h10v1.22Zm-19.87,0H261.79v-1.22h10.08Z" transform="translate(-207.79 -263.23)" fill="#ae0136"/><path d="M291.74,519.19h-10V518h10v1.22Zm-19.87,0H261.79V518h10.08Z" transform="translate(-207.79 -263.23)" fill="#b00136"/><path d="M291.74,518.62h-10v-1.22h10v1.22Zm-19.87,0H261.79v-1.22h10.08Z" transform="translate(-207.79 -263.23)" fill="#b00136"/><path d="M291.74,518h-10v-1.22h10V518Zm-19.87,0H261.79v-1.22h10.08Z" transform="translate(-207.79 -263.23)" fill="#b20137"/><path d="M291.74,517.39h-10v-1.22h10v1.22Zm-19.87,0H261.79v-1.22h10.08Z" transform="translate(-207.79 -263.23)" fill="#b40137"/><path d="M291.74,516.74h-10v-1.22h10v1.22Zm-19.87,0H261.79v-1.22h10.08Z" transform="translate(-207.79 -263.23)" fill="#b40137"/><path d="M291.74,516.17h-10v-1.22h10v1.22Zm-19.87,0H261.79v-1.22h10.08Z" transform="translate(-207.79 -263.23)" fill="#b60137"/><path d="M291.74,515.52h-10v-1.15h10v1.15Zm-19.87,0H261.79l-.07-1.15h10.15Z" transform="translate(-207.79 -263.23)" fill="#b80138"/><path d="M291.74,514.94h-10v-1.22h10v1.22Zm-19.87,0H261.79l-.07-1.22h10.15Z" transform="translate(-207.79 -263.23)" fill="#b80138"/><path d="M291.74,514.37h-10v-1.22h10v1.22Zm-19.87,0H261.72v-1.22h10.15Z" transform="translate(-207.79 -263.23)" fill="#bc0138"/><path d="M291.74,513.72h-10V512.5h10v1.22Zm-19.87,0H261.72V512.5h10.15Z" transform="translate(-207.79 -263.23)" fill="#bc0138"/><path d="M291.74,513.14h-10v-1.22h10v1.22Zm-19.87,0H261.72v-1.22h10.15Z" transform="translate(-207.79 -263.23)" fill="#bc0138"/><path d="M291.74,512.5h-10v-1.22h10v1.22Zm-19.87,0H261.72v-1.22h10.15Z" transform="translate(-207.79 -263.23)" fill="#bf0138"/><path d="M291.74,511.92h-10V510.7h10v1.22Zm-19.87,0H261.72V510.7h10.15Z" transform="translate(-207.79 -263.23)" fill="#c10139"/><path d="M291.74,511.27h-10v-1.15h10v1.15Zm-19.87,0H261.72v-1.15h10.15Z" transform="translate(-207.79 -263.23)" fill="#c30139"/><path d="M291.74,510.7h-10v-1.22h10v1.22Zm-19.87,0H261.72v-1.22h10.15Z" transform="translate(-207.79 -263.23)" fill="#c30139"/><path d="M291.74,510.12h-10V508.9h10v1.22Zm-19.87,0H261.72V508.9h10.15Z" transform="translate(-207.79 -263.23)" fill="#c5013a"/><path d="M291.74,509.47h-10v-1.22h10v1.22Zm-19.87,0H261.72v-1.22h10.15Z" transform="translate(-207.79 -263.23)" fill="#c7013a"/><path d="M291.74,508.9h-10v-1.22h10v1.22Zm-19.87,0H261.72v-1.22h10.15Z" transform="translate(-207.79 -263.23)" fill="#c7013a"/><path d="M291.74,508.25h-10v-.72c0-.14-.07-.29-.07-.5h10.08v1.22Zm-19.87,0H261.72V507h10.15Z" transform="translate(-207.79 -263.23)" fill="#cc013a"/><path d="M291.74,507.67h-10v-.14a1.94,1.94,0,0,0-.36-1.08h10.3a6.59,6.59,0,0,1,.07,1.22Zm-19.87,0H261.72v-1.22h10.15Z" transform="translate(-207.79 -263.23)" fill="#cc013a"/><path d="M291.74,507H281.66a1.79,1.79,0,0,0-.86-1.15h10.8c.07.36.07.79.14,1.15Zm-19.87,0H261.72v-1.15h10.15Z" transform="translate(-207.79 -263.23)" fill="#cc013a"/><path d="M291.67,506.45h-10.3a1.9,1.9,0,0,0-1.66-.94h-7.85v.94H261.72v-1.22h29.74C291.53,505.58,291.6,506,291.67,506.45Z" transform="translate(-207.79 -263.23)" fill="#d0013b"/><path d="M291.6,505.87H280.8a1.41,1.41,0,0,0-1.08-.36h-7.85v.36H261.72v-1.22h29.59C291.38,505,291.53,505.44,291.6,505.87Z" transform="translate(-207.79 -263.23)" fill="#d2013b"/><path d="M291.46,505.22H261.72V504H291.1A7.87,7.87,0,0,1,291.46,505.22Z" transform="translate(-207.79 -263.23)" fill="#d2013b"/><path d="M291.31,504.65H261.72v-1.22h29.09A6.23,6.23,0,0,1,291.31,504.65Z" transform="translate(-207.79 -263.23)" fill="#d2013b"/><path d="M291.1,504H261.72v-1.22h28.8C290.74,503.21,290.88,503.57,291.1,504Z" transform="translate(-207.79 -263.23)" fill="#d7013c"/><path d="M290.81,503.42H261.72V502.2h28.37A6.84,6.84,0,0,1,290.81,503.42Z" transform="translate(-207.79 -263.23)" fill="#d7013c"/><path d="M290.52,502.78h-28.8v-1.22h27.86A13.84,13.84,0,0,1,290.52,502.78Z" transform="translate(-207.79 -263.23)" fill="#db013c"/><path d="M290.09,502.2H261.72V501H289C289.37,501.34,289.73,501.77,290.09,502.2Z" transform="translate(-207.79 -263.23)" fill="#db013c"/><path d="M289.58,501.55H261.72V500.4h26.5A10.53,10.53,0,0,1,289.58,501.55Z" transform="translate(-207.79 -263.23)" fill="#db013c"/><path d="M289,501H261.72v-1.22h25.49A9.93,9.93,0,0,1,289,501Z" transform="translate(-207.79 -263.23)" fill="#dd013c"/><path d="M288.22,500.4h-26.5v-1.22h24A9.11,9.11,0,0,1,288.22,500.4Z" transform="translate(-207.79 -263.23)" fill="#e0013d"/><path d="M287.21,499.75H261.72v-1.22h21.1A13.59,13.59,0,0,1,287.21,499.75Z" transform="translate(-207.79 -263.23)" fill="#e2013d"/><path d="M285.7,499.18h-24V498h10.15v.5h9.29A13,13,0,0,1,285.7,499.18Z" transform="translate(-207.79 -263.23)" fill="#e2013d"/><path d="M282.82,498.53h-21.1V497.3h10.15v1.15h9.29A12.2,12.2,0,0,1,282.82,498.53Z" transform="translate(-207.79 -263.23)" fill="#e2013d"/><rect x="53.93" y="233.5" width="10.15" height="1.22" fill="#e7013e"/><rect x="53.93" y="232.92" width="10.15" height="1.15" fill="#e7013e"/><rect x="53.93" y="232.27" width="10.15" height="1.22" fill="#e7013e"/><rect x="53.93" y="231.7" width="10.15" height="1.22" fill="#eb013e"/><rect x="53.93" y="231.05" width="10.15" height="1.22" fill="#eb013e"/><rect x="53.93" y="230.47" width="10.15" height="1.22" fill="#ee013e"/><rect x="53.93" y="229.82" width="10.15" height="1.22" fill="#ee013e"/><rect x="53.93" y="229.25" width="10.15" height="1.22" fill="#f0013f"/><path d="M271.87,493.06H261.72V491.9h10.15Z" transform="translate(-207.79 -263.23)" fill="#f3013f"/><path d="M271.87,492.48H261.72v-.36c0-.29.07-.58.07-.86h10.08Z" transform="translate(-207.79 -263.23)" fill="#f50140"/><path d="M271.87,491.9H261.72c.07-.43.07-.86.14-1.22h24a8.52,8.52,0,0,1-2.81.43H271.87Z" transform="translate(-207.79 -263.23)" fill="#f80140"/><path d="M271.87,491.26H261.79a7.83,7.83,0,0,1,8.14-7.13h21.89c-1.08,3.31-3.82,7-8.78,7H271.87Z" transform="translate(-207.79 -263.23)" fill="#f80140"/><path d="M242.28,516.82l.07.14.36.29.29.36.22.36.29.36.22.36.22.43.22.43.22.43.14.43.22.5.14.5.07.5.14.58.14.58.07.65.07.58.07.65v.72l.07.72v1.51l-.07,2.52h2.3l.5-.07.58-.07.5-.07.58-.07.5-.07.5-.14.5-.14.5-.14.5-.22.5-.22.43-.22.43-.22.5-.22.43-.29.36-.22.43-.29.36-.29.36-.36.36-.29.36-.36.29-.36.29-.36.29-.36.29-.43.22-.36.14-.43.22-.43.14-.5.07-.43.07-.43v-40H247.32l-1.3.07-1.22.07-1.15.14-1.22.29h-.14v13l.22-.29.36-.36.36-.36.29-.29.36-.29.36-.29.43-.29.36-.22.36-.22h.14v14.83h-.07l-.65.07-.72.07-.65.07-.65.14-.5.14Zm-7.92,11.74.43-.22.43-.29.43-.29.36-.29.36-.29.36-.36.36-.29.29-.36.29-.36.29-.36.29-.43.22-.36.14-.43.22-.43.14-.5.07-.43.07-.5v-7.7l.43.29.5.22.43.29.43.29.43.29.36.29.36.29.22.22v-8.14l-.14.07-.65.14-.65.29-.65.22-.58.36-.5.29v-2.3l-.07-.5v-.86l.07-.36v-1.94l.07-.5.07-.58.07-.5.14-.58.14-.5.14-.58.14-.5.22-.5.22-.5.22-.5.22-.5.29-.5.29-.43.22-.5.36-.43.29-.36.07-.14V483l-1,.29-1.08.36-1.08.36-1,.5-1,.5-.94.58-.94.65-.86.65-.86.72-.79.79-.72.79-.72.86-.72.86-.58.94-.65.94-.5,1-.5,1-.5,1-.36,1.08L227,498l-.29,1.08-.29,1.08-.29,1.15-.14,1.15-.22,1.15-.07,1.22-.07,1.15v1.15l.07,23.33H228l.5-.07.58-.07.5-.07.5-.07.5-.07.5-.14.5-.14.5-.14.5-.22.43-.22.5-.14.43-.29Z" transform="translate(-207.79 -263.23)" fill="#fff" fill-rule="evenodd"/><path d="M242.28,515.66l.36.29.36.36.29.36.36.36.29.43.29.36.22.43.29.43.22.5.22.43.14.5.22.5.14.58.14.58.14.58.07.58.07.65.14.65v.65l.07.72v.72l.07.79v.79l-.07,1.66h1.37l.5-.07h.58l.5-.07.43-.07.5-.14.5-.14.5-.07.43-.22.5-.14.43-.22.43-.14.43-.22.43-.22.36-.29.43-.22L255,527l.36-.29.36-.29.29-.29.29-.29.29-.36.29-.29.22-.36.22-.36.22-.36.22-.36.14-.36.07-.36.07-.43.07-.43v-39h-10.8l-1.22.07-1.15.07-1.22.14-1.08.22-.36.07v10.8l.29-.29L243,494l.36-.36.43-.29.36-.29.43-.22.43-.22.43-.22.43-.14.43-.14V506.3l.07.58V509h-.29l-.65.07h-.58l-.65.07-.65.14-.58.14-.65.14h-.07Zm-10.94,13.25.43-.14.5-.14.43-.14.43-.22.43-.22.43-.22.36-.22.43-.29.36-.22.36-.29.29-.29.36-.29.29-.29.29-.36.29-.29.22-.36.22-.36.22-.36.22-.36.14-.36.07-.43.07-.36.07-.43v-8.93l.65.29.5.29.58.22.5.29.43.29.5.29.43.29.36.36h.07v-6.12l-.5.22-.65.22-.58.22-.58.29-.5.36-.58.36-.43.36-.22.22V504l.07-.58.07-.58.14-.58.14-.58.14-.5.14-.58.14-.58.22-.58.22-.5.22-.5.29-.58.22-.5.29-.43.36-.5.29-.43.36-.5.29-.36.36-.43.07-.07v-10.8l-.72.22-1.08.36-1,.36-1,.5-.94.5-.94.5-.86.65-.86.65-.79.65-.72.72-.79.79-.65.79-.65.86-.65.86-.5.94-.58.94-.5,1-.43.94-.36,1.08-.36,1-.36,1.08-.29,1.08-.22,1.08-.22,1.15-.14,1.15-.07,1.08-.07,1.15-.07,1.15.14,22.46h1.3l.5-.07h.5l.5-.07.5-.14.5-.07.43-.14Z" transform="translate(-207.79 -263.23)" fill="#fff" fill-rule="evenodd"/><path d="M227.38,521h10v.94c.07,3.53-5,6.77-10,6.77V521Zm19.08,0h10.8v.86c0,3.53-4.9,6.84-10.08,6.84A27.2,27.2,0,0,0,246.46,521Z" transform="translate(-207.79 -263.23)" fill="#aa0136"/><path d="M257.26,521.57H246.67c-.14-.43-.22-.79-.36-1.22h10.94v1.22Zm-19.87,0h-10v-1.22h10Z" transform="translate(-207.79 -263.23)" fill="#aa0136"/><path d="M257.26,521h-10.8a6.08,6.08,0,0,0-.36-1.22h11.16V521Zm-19.87,0h-10v-1.22h10Z" transform="translate(-207.79 -263.23)" fill="#aa0136"/><path d="M257.26,520.34H246.31c-.14-.43-.29-.79-.43-1.22h11.38v1.22Zm-19.87,0h-10v-1.22h10Z" transform="translate(-207.79 -263.23)" fill="#ac0136"/><path d="M257.26,519.77H246.1a6.23,6.23,0,0,0-.5-1.22h11.66v1.22Zm-19.87,0h-10v-1.22h10Z" transform="translate(-207.79 -263.23)" fill="#ae0136"/><path d="M257.26,519.12H245.88c-.22-.43-.43-.79-.65-1.22h12v1.22Zm-19.87,0h-10V517.9h10Z" transform="translate(-207.79 -263.23)" fill="#b00136"/><path d="M257.26,518.54H245.59a6.84,6.84,0,0,0-.72-1.22h12.38v1.22Zm-19.87,0h-10v-1.22h10Z" transform="translate(-207.79 -263.23)" fill="#b00136"/><path d="M257.26,517.9h-12a11,11,0,0,0-.79-1.15h12.82v1.15Zm-19.87,0h-10v-1.15h10Z" transform="translate(-207.79 -263.23)" fill="#b20137"/><path d="M257.26,517.32H244.87a7.86,7.86,0,0,0-.94-1.22h13.32v1.22Zm-19.87,0h-10V516.1h10Z" transform="translate(-207.79 -263.23)" fill="#b40137"/><path d="M257.26,516.74H244.44a8.76,8.76,0,0,0-1.08-1.22h13.9v1.22Zm-19.87,0h-10v-1.22h10Z" transform="translate(-207.79 -263.23)" fill="#b40137"/><path d="M257.26,516.1H243.94a10.71,10.71,0,0,0-1.3-1.22h14.62v1.22Zm-19.87,0h-10v-1.22h10Z" transform="translate(-207.79 -263.23)" fill="#b60137"/><path d="M257.26,515.52h-13.9c-.5-.43-1-.86-1.51-1.22h15.41v1.22Zm-19.87,0h-10V514.3h10Z" transform="translate(-207.79 -263.23)" fill="#b80138"/><path d="M257.26,514.87H242.64a19.49,19.49,0,0,0-1.8-1.22h16.42v1.22Zm-19.87,0h-10v-1.22h10Z" transform="translate(-207.79 -263.23)" fill="#b80138"/><path d="M257.26,514.3H241.85a15.39,15.39,0,0,0-2.16-1.22h17.57v1.22Zm-19.87,0h-10v-1.22h10Z" transform="translate(-207.79 -263.23)" fill="#bc0138"/><path d="M257.26,513.65H240.84a16,16,0,0,0-2.23-1,.15.15,0,0,1,.14-.14h18.5v1.15Zm-19.87,0h-10V512.5h10Z" transform="translate(-207.79 -263.23)" fill="#bc0138"/><path d="M257.26,513.07H239.69l-1.08-.43a3.07,3.07,0,0,1,.86-.79h17.78v1.22Zm-19.87,0h-10v-1.22h10Z" transform="translate(-207.79 -263.23)" fill="#bc0138"/><path d="M257.26,512.5h-18.5a4.73,4.73,0,0,1,1.66-1.22h16.85v1.22Zm-19.87,0h-10l-.07-1.22h10.08Z" transform="translate(-207.79 -263.23)" fill="#bf0138"/><path d="M257.26,511.85H239.47a11.08,11.08,0,0,1,2.23-1.22h15.55v1.22Zm-19.87,0h-10l-.07-1.22h10.08Z" transform="translate(-207.79 -263.23)" fill="#c10139"/><path d="M257.26,511.27H240.41A10.67,10.67,0,0,1,244,510h13.25v1.22Zm-19.87,0H227.3V510h10.08Z" transform="translate(-207.79 -263.23)" fill="#c30139"/><path d="M257.26,510.62H241.7a14.84,14.84,0,0,1,5.47-.79v-.43h10.08v1.22Zm-19.87,0H227.3V509.4h10.08Z" transform="translate(-207.79 -263.23)" fill="#c30139"/><path d="M257.26,510H244a16.35,16.35,0,0,1,3.17-.22v-1h10.08V510Zm-19.87,0H227.3v-1.22h10.08Z" transform="translate(-207.79 -263.23)" fill="#c5013a"/><path d="M257.26,509.4H247.18v-1.15h10.08v1.15Zm-19.87,0H227.3v-1.15h10.08Z" transform="translate(-207.79 -263.23)" fill="#c7013a"/><path d="M257.26,508.82H247.18V507.6h10.08v1.22Zm-19.87,0H227.3V507.6h10.08Z" transform="translate(-207.79 -263.23)" fill="#c7013a"/><path d="M257.26,508.25H247.18V507h10.08v1.22Zm-19.87,0H227.3V507h10.08Z" transform="translate(-207.79 -263.23)" fill="#cc013a"/><path d="M257.26,507.6H247.18v-1.22h10.08v1.22Zm-19.87,0H227.3v-1.22h10.08Z" transform="translate(-207.79 -263.23)" fill="#cc013a"/><path d="M257.26,507H247.18V505.8h10.08V507Zm-19.87,0H227.3a6.59,6.59,0,0,1,.07-1.22h10Z" transform="translate(-207.79 -263.23)" fill="#cc013a"/><path d="M257.26,506.38H247.18v-1.22h10.08v1.22Zm-19.87,0H227.3a6.59,6.59,0,0,0,.07-1.22h10Z" transform="translate(-207.79 -263.23)" fill="#d0013b"/><path d="M257.26,505.8H247.18v-1.22h10.08v1.22Zm-19.87,0h-10a7,7,0,0,1,.07-1.22h9.94v1.22Z" transform="translate(-207.79 -263.23)" fill="#d2013b"/><path d="M257.26,505.15H247.18V504h10.08v1.15Zm-19.87,0h-10a6.3,6.3,0,0,1,.14-1.15h9.94a5.82,5.82,0,0,0-.07,1.15Z" transform="translate(-207.79 -263.23)" fill="#d2013b"/><path d="M257.26,504.58H247.18v-1.22h10.08v1.22Zm-19.87,0h-9.94a7.09,7.09,0,0,1,.14-1.22h9.94A7.09,7.09,0,0,0,237.38,504.58Z" transform="translate(-207.79 -263.23)" fill="#d2013b"/><path d="M257.26,504H247.18v-1.22h10.08V504Zm-19.8,0h-9.94a6.34,6.34,0,0,1,.14-1.22h9.94A6.34,6.34,0,0,0,237.46,504Z" transform="translate(-207.79 -263.23)" fill="#d7013c"/><path d="M257.26,503.35H247.18v-1.22h10.08v1.22Zm-19.73,0h-9.94a7.09,7.09,0,0,1,.14-1.22h9.94A7.09,7.09,0,0,0,237.53,503.35Z" transform="translate(-207.79 -263.23)" fill="#d7013c"/><path d="M257.26,502.78H247.18v-1.22h10.08v1.22Zm-19.66,0h-9.94c.07-.43.14-.86.22-1.22h9.94C237.74,501.91,237.67,502.34,237.6,502.78Z" transform="translate(-207.79 -263.23)" fill="#db013c"/><path d="M257.26,502.13H247.18V500.9h10.08v1.22Zm-19.58,0h-9.94c.07-.36.14-.79.22-1.22h10C237.89,501.34,237.74,501.77,237.67,502.13Z" transform="translate(-207.79 -263.23)" fill="#db013c"/><path d="M257.26,501.55H247.18v-1.22h10.08v1.22Zm-19.44,0h-9.94c.07-.43.14-.79.22-1.22h10.08A7.87,7.87,0,0,0,237.82,501.55Z" transform="translate(-207.79 -263.23)" fill="#db013c"/><path d="M257.26,500.9H247.18v-1.15h10.08v1.15Zm-19.3,0H228c.14-.36.22-.79.36-1.15h10C238.18,500.11,238.1,500.54,238,500.9Z" transform="translate(-207.79 -263.23)" fill="#dd013c"/><path d="M257.26,500.33H247.18V499.1h10.08v1.22Zm-19.08,0H228.1c.14-.43.22-.79.36-1.22h10.08A7.87,7.87,0,0,0,238.18,500.33Z" transform="translate(-207.79 -263.23)" fill="#e0013d"/><path d="M257.26,499.75H247.18v-1.22h10.08v1.22Zm-18.94,0h-10a6.08,6.08,0,0,1,.36-1.22h10.15A6.23,6.23,0,0,0,238.32,499.75Z" transform="translate(-207.79 -263.23)" fill="#e2013d"/><path d="M257.26,499.1H247.18v-1.22h10.08v1.22Zm-18.72,0H228.46c.14-.43.22-.79.36-1.22h10.3C238.9,498.31,238.75,498.67,238.54,499.1Z" transform="translate(-207.79 -263.23)" fill="#e2013d"/><path d="M257.26,498.53H247.18V497.3h10.08v1.22Zm-18.43,0H228.67a6.08,6.08,0,0,1,.36-1.22H239.4A6.38,6.38,0,0,0,238.82,498.53Z" transform="translate(-207.79 -263.23)" fill="#e2013d"/><path d="M257.26,497.88H247.18v-1.22h10.08v1.22Zm-18.14,0h-10.3c.14-.36.29-.79.5-1.22h10.44A5,5,0,0,0,239.11,497.88Z" transform="translate(-207.79 -263.23)" fill="#e7013e"/><path d="M257.26,497.3H247.18v-1.22h10.08v1.22Zm-17.86,0H229c.22-.43.36-.86.5-1.22h10.58A6.84,6.84,0,0,0,239.4,497.3Z" transform="translate(-207.79 -263.23)" fill="#e7013e"/><path d="M257.26,496.66H247.18V495.5h10.08v1.15Zm-17.5,0H229.32c.14-.36.36-.79.5-1.15h10.66C240.26,495.86,240,496.3,239.76,496.66Z" transform="translate(-207.79 -263.23)" fill="#e7013e"/><path d="M257.26,496.08H247.18v-1.22h10.08v1.22Zm-17.14,0H229.54a9.37,9.37,0,0,0,.58-1.22H241C240.7,495.22,240.41,495.65,240.12,496.08Z" transform="translate(-207.79 -263.23)" fill="#eb013e"/><path d="M257.26,495.5H247.18v-1.22h10.08v1.22Zm-16.78,0H229.82c.22-.43.43-.86.65-1.22h11C241.13,494.64,240.84,495.07,240.48,495.5Z" transform="translate(-207.79 -263.23)" fill="#eb013e"/><path d="M257.26,494.86H247.18v-1.22h10.08v1.22Zm-16.27,0H230.11a10.84,10.84,0,0,1,.72-1.22h11.23C241.7,494,241.34,494.42,241,494.86Z" transform="translate(-207.79 -263.23)" fill="#ee013e"/><path d="M257.26,494.28H247.18v-1.22h10.08v1.22Zm-15.77,0h-11a6.84,6.84,0,0,1,.72-1.22h11.59C242.35,493.42,241.92,493.85,241.49,494.28Z" transform="translate(-207.79 -263.23)" fill="#ee013e"/><path d="M257.26,493.63H247.18v-1.22h10.08v1.22Zm-15.19,0H230.83c.22-.43.5-.79.72-1.22h12C243.07,492.77,242.57,493.2,242.06,493.63Z" transform="translate(-207.79 -263.23)" fill="#f0013f"/><path d="M257.26,493.06H247.18v-1.22h10.08v1.22Zm-14.47,0H231.19a7.13,7.13,0,0,1,.79-1.22h12.67A7.61,7.61,0,0,0,242.78,493.06Z" transform="translate(-207.79 -263.23)" fill="#f3013f"/><path d="M257.26,492.41H247.18v-1.15h10.08v1.15Zm-13.68,0h-12a13.15,13.15,0,0,1,.94-1.15h14A7.44,7.44,0,0,0,243.58,492.41Z" transform="translate(-207.79 -263.23)" fill="#f50140"/><path d="M257.26,491.83H247.18v-.72a7.77,7.77,0,0,0-2.52.72H232l1-1.22h24.26Z" transform="translate(-207.79 -263.23)" fill="#f80140"/><path d="M257.26,491.26H247.18v-.14a2.1,2.1,0,0,0-.65.14h-14a18.3,18.3,0,0,1,14.83-7.13h9.94Z" transform="translate(-207.79 -263.23)" fill="#f80140"/><path d="M357.91,436.82l3.24,2.74C359.14,439.78,358.27,438.55,357.91,436.82Z" transform="translate(-207.79 -263.23)" fill="#a3a3a3"/><path d="M358.13,434.74l5.18,4.25c-.36.14-.65.22-1,.36-3.6,1.08-4.46-1.44-4.61-4.32A1.51,1.51,0,0,1,358.13,434.74Z" transform="translate(-207.79 -263.23)" fill="#a6a6a6"/><path d="M361.15,439.56l-3.24-2.74a7.69,7.69,0,0,1-.22-1.8c.65-.43,1.37-.86,2-1.3l5.54,4.61c-1,.43-1.94.65-3,1Z" transform="translate(-207.79 -263.23)" fill="#a8a8a8"/><path d="M363.31,439l-5.18-4.25c1.08-.72,2.09-1.37,3.1-2.09l5.9,5A31.38,31.38,0,0,1,363.31,439Z" transform="translate(-207.79 -263.23)" fill="#adadad"/><path d="M365.26,438.34l-5.54-4.61,3-2.16,6.19,5.26A26.67,26.67,0,0,1,365.26,438.34Z" transform="translate(-207.79 -263.23)" fill="#b0b0b0"/><path d="M367.13,437.62l-5.9-5c1-.72,1.94-1.37,3-2.16l6.26,5.33c-.29.22-.58.5-.86.72h0C368.64,437,367.85,437.33,367.13,437.62Z" transform="translate(-207.79 -263.23)" fill="#b5b5b5"/><path d="M368.93,436.82l-6.19-5.26c.94-.65,1.87-1.44,2.88-2.16l6.19,5.18c-.72.65-1.51,1.3-2.23,1.94h0A2.56,2.56,0,0,1,368.93,436.82Z" transform="translate(-207.79 -263.23)" fill="#b8b8b8"/><path d="M370.44,435.82l-6.26-5.33c.94-.72,1.87-1.44,2.81-2.23l6.12,5.18C372.24,434.23,371.38,435,370.44,435.82Z" transform="translate(-207.79 -263.23)" fill="#bababa"/><path d="M371.81,434.59l-6.19-5.18c.94-.72,1.87-1.51,2.74-2.3l6,5.11Z" transform="translate(-207.79 -263.23)" fill="#bfbfbf"/><path d="M373.1,433.44,367,428.26c.94-.72,1.87-1.51,2.74-2.3l6,5C374.83,431.78,374,432.65,373.1,433.44Z" transform="translate(-207.79 -263.23)" fill="#c2c2c2"/><path d="M374.4,432.22l-6-5.11a27.36,27.36,0,0,0,2.66-2.38l5.9,5C376.13,430.56,375.26,431.35,374.4,432.22Z" transform="translate(-207.79 -263.23)" fill="#c7c7c7"/><path d="M375.7,431l-6-5c.86-.79,1.73-1.58,2.59-2.45l5.83,4.9C377.35,429.26,376.49,430.13,375.7,431Z" transform="translate(-207.79 -263.23)" fill="#c9c9c9"/><path d="M376.92,429.7l-5.9-5c.86-.79,1.73-1.58,2.59-2.45l5.69,4.82C378.58,428,377.71,428.83,376.92,429.7Z" transform="translate(-207.79 -263.23)" fill="#ccc"/><path d="M378.14,428.4l-5.83-4.9c.86-.79,1.73-1.66,2.52-2.45l5.69,4.68C379.73,426.67,378.94,427.54,378.14,428.4Z" transform="translate(-207.79 -263.23)" fill="#ccc"/><path d="M379.3,427.1l-5.69-4.82c.86-.79,1.66-1.66,2.45-2.52l5.54,4.68C380.88,425.3,380.09,426.24,379.3,427.1Z" transform="translate(-207.79 -263.23)" fill="#cfcfcf"/><path d="M380.52,425.74l-5.69-4.68c.86-.86,1.66-1.73,2.45-2.59l5.47,4.54C382,423.94,381.24,424.87,380.52,425.74Z" transform="translate(-207.79 -263.23)" fill="#cfcfcf"/><path d="M381.6,424.44l-5.54-4.68c.79-.86,1.58-1.73,2.38-2.66l5.4,4.54C383.11,422.57,382.39,423.5,381.6,424.44Z" transform="translate(-207.79 -263.23)" fill="#cfcfcf"/><path d="M382.75,423l-5.47-4.54c.79-.86,1.51-1.8,2.3-2.66l5.33,4.39Q383.83,421.7,382.75,423Z" transform="translate(-207.79 -263.23)" fill="#d1d1d1"/><path d="M383.83,421.63l-5.4-4.54c.79-.86,1.51-1.8,2.23-2.66l5.26,4.32C385.2,419.76,384.55,420.7,383.83,421.63Z" transform="translate(-207.79 -263.23)" fill="#d1d1d1"/><path d="M384.91,420.19l-5.33-4.39c.72-.94,1.51-1.87,2.23-2.81l5.11,4.32C386.28,418.32,385.56,419.26,384.91,420.19Z" transform="translate(-207.79 -263.23)" fill="#d1d1d1"/><path d="M385.92,418.75l-5.26-4.32q1.19-1.4,2.16-2.81l5.11,4.25C387.29,416.81,386.57,417.82,385.92,418.75Z" transform="translate(-207.79 -263.23)" fill="#d4d4d4"/><path d="M386.93,417.31,381.82,413c.72-.94,1.37-1.87,2.09-2.81l5,4.18C388.22,415.37,387.58,416.38,386.93,417.31Z" transform="translate(-207.79 -263.23)" fill="#d4d4d4"/><path d="M387.94,415.87l-5.11-4.25c.72-.94,1.44-1.94,2.09-2.88l4.9,4.1C389.23,413.86,388.58,414.86,387.94,415.87Z" transform="translate(-207.79 -263.23)" fill="#d6d6d6"/><path d="M388.87,414.36l-5-4.18c.65-1,1.37-1.94,2-3l4.61,3.89a4.66,4.66,0,0,1-.29.94C389.81,412.85,389.38,413.57,388.87,414.36Z" transform="translate(-207.79 -263.23)" fill="#d6d6d6"/><path d="M389.81,412.85l-4.9-4.1,1.94-3,4.18,3.53c-.22.94-.5,1.87-.79,2.81C390.1,412.34,390,412.56,389.81,412.85Z" transform="translate(-207.79 -263.23)" fill="#d6d6d6"/><path d="M390.53,411.12l-4.61-3.89c.65-1,1.3-2,1.87-3l3.6,3A37.64,37.64,0,0,1,390.53,411.12Z" transform="translate(-207.79 -263.23)" fill="#d6d6d6"/><path d="M391,409.25l-4.18-3.53c.65-1,1.22-2,1.87-3l3,2.52A33.7,33.7,0,0,1,391,409.25Z" transform="translate(-207.79 -263.23)" fill="#d9d9d9"/><path d="M391.39,407.23l-3.6-3c.65-1,1.22-2,1.8-3.1l2.38,1.94c-.07.36-.07.65-.14.94C391.75,405.14,391.54,406.22,391.39,407.23Z" transform="translate(-207.79 -263.23)" fill="#d9d9d9"/><path d="M391.68,405.22l-3-2.52c.58-1.08,1.15-2.09,1.73-3.17l1.58,1.3a22.65,22.65,0,0,1-.22,3.17A7.09,7.09,0,0,1,391.68,405.22Z" transform="translate(-207.79 -263.23)" fill="#d9d9d9"/><path d="M392,403.06l-2.38-1.94c.58-1.08,1.15-2.16,1.66-3.17l.72.58Q392.08,400.9,392,403.06Z" transform="translate(-207.79 -263.23)" fill="#dbdbdb"/><path d="M392,400.82l-1.58-1.3c.5-.94,1-1.94,1.44-2.88C392,398.09,392,399.53,392,400.82Z" transform="translate(-207.79 -263.23)" fill="#dbdbdb"/><path d="M392,398.52l-.72-.58.65-1.3C391.9,397.3,392,397.87,392,398.52Z" transform="translate(-207.79 -263.23)" fill="#dedede"/><path d="M209.52,359.78l3.89,3.31v.07C211.46,364.39,210.31,362.38,209.52,359.78Z" transform="translate(-207.79 -263.23)" fill="#999"/><path d="M208.87,357.41l5.76,4.82-1.22.94C210.82,364.75,209.66,360.79,208.87,357.41Z" transform="translate(-207.79 -263.23)" fill="#9b9b9b"/><path d="M213.41,363.1l-3.89-3.31c-.5-1.58-.86-3.31-1.15-4.68l7.42,6.19Z" transform="translate(-207.79 -263.23)" fill="#9e9e9e"/><path d="M214.63,362.23l-5.76-4.82c-.29-1.37-.58-2.59-.79-3.46v-.14a3,3,0,0,0,.07-.79l8.5,7.13v.5Z" transform="translate(-207.79 -263.23)" fill="#a3a3a3"/><path d="M215.78,361.3l-7.42-6.19a5.39,5.39,0,0,0-.29-1.15v-.14c.07-.86.14-1.66.29-2.52l8.21,6.91c.07.79.07,1.66.07,2.45Z" transform="translate(-207.79 -263.23)" fill="#a6a6a6"/><path d="M216.65,360.14l-8.5-7.13c.14-1.15.22-2.3.36-3.46l8.06,6.77v.43C216.58,357.91,216.58,359,216.65,360.14Z" transform="translate(-207.79 -263.23)" fill="#a8a8a8"/><path d="M216.58,358.2l-8.21-6.91a27.18,27.18,0,0,1,.43-3.38l7.85,6.55c-.07.79-.07,1.51-.07,2.3Z" transform="translate(-207.79 -263.23)" fill="#adadad"/><path d="M216.58,356.33l-8.06-6.77c.14-1.08.36-2.23.5-3.31l7.63,6.41C216.65,353.88,216.58,355.1,216.58,356.33Z" transform="translate(-207.79 -263.23)" fill="#b0b0b0"/><path d="M216.65,354.46l-7.85-6.55c.14-1.15.29-2.23.5-3.31l7.49,6.26C216.72,352,216.65,353.23,216.65,354.46Z" transform="translate(-207.79 -263.23)" fill="#b5b5b5"/><path d="M216.65,352.66,209,346.25c.22-1.15.36-2.23.58-3.31l7.34,6.12C216.79,350.28,216.72,351.43,216.65,352.66Z" transform="translate(-207.79 -263.23)" fill="#b8b8b8"/><path d="M216.79,350.86l-7.49-6.26.65-3.24,7.13,6C216.94,348.48,216.86,349.63,216.79,350.86Z" transform="translate(-207.79 -263.23)" fill="#bababa"/><path d="M216.94,349.06l-7.34-6.12c.22-1.08.43-2.16.72-3.17l6.91,5.83C217.15,346.75,217,347.9,216.94,349.06Z" transform="translate(-207.79 -263.23)" fill="#bfbfbf"/><path d="M217.08,347.33l-7.13-6c.22-1.08.43-2.16.72-3.17l6.77,5.69C217.3,345,217.15,346.18,217.08,347.33Z" transform="translate(-207.79 -263.23)" fill="#c2c2c2"/><path d="M217.22,345.6l-6.91-5.83c.22-1.08.5-2.09.79-3.17l6.62,5.62C217.58,343.3,217.37,344.45,217.22,345.6Z" transform="translate(-207.79 -263.23)" fill="#c7c7c7"/><path d="M217.44,343.87l-6.77-5.69c.29-1.08.5-2.09.79-3.1l6.55,5.47C217.8,341.64,217.66,342.79,217.44,343.87Z" transform="translate(-207.79 -263.23)" fill="#c9c9c9"/><path d="M217.73,342.22l-6.62-5.62c.22-1,.5-2,.79-3l6.41,5.33C218.09,340,217.87,341.14,217.73,342.22Z" transform="translate(-207.79 -263.23)" fill="#ccc"/><path d="M218,340.56l-6.55-5.47c.29-1,.58-2,.94-3l6.26,5.26A25.8,25.8,0,0,0,218,340.56Z" transform="translate(-207.79 -263.23)" fill="#ccc"/><path d="M218.3,338.9l-6.41-5.33c.36-1,.65-2,1-3l6.12,5.11C218.74,336.82,218.52,337.82,218.3,338.9Z" transform="translate(-207.79 -263.23)" fill="#cfcfcf"/><path d="M218.66,337.32l-6.26-5.26c.29-1,.65-1.94,1-3l6,5C219.1,335.23,218.88,336.24,218.66,337.32Z" transform="translate(-207.79 -263.23)" fill="#cfcfcf"/><path d="M219,335.74l-6.12-5.11c.29-1,.65-1.94,1-3l5.83,5C219.46,333.65,219.24,334.66,219,335.74Z" transform="translate(-207.79 -263.23)" fill="#cfcfcf"/><path d="M219.38,334.15l-6-5c.29-.94.65-1.94,1-2.88l5.76,4.82C219.89,332.14,219.6,333.14,219.38,334.15Z" transform="translate(-207.79 -263.23)" fill="#d1d1d1"/><path d="M219.74,332.64l-5.83-5,1.08-2.81,5.69,4.68C220.32,330.55,220,331.56,219.74,332.64Z" transform="translate(-207.79 -263.23)" fill="#d1d1d1"/><path d="M220.18,331.06l-5.76-4.82c.36-.94.79-1.87,1.15-2.81l5.54,4.68C220.82,329.11,220.46,330,220.18,331.06Z" transform="translate(-207.79 -263.23)" fill="#d1d1d1"/><path d="M220.68,329.54,215,324.86c.36-.94.79-1.87,1.15-2.81l5.47,4.54C221.26,327.6,221,328.61,220.68,329.54Z" transform="translate(-207.79 -263.23)" fill="#d4d4d4"/><path d="M221.11,328.1l-5.54-4.68c.36-.94.79-1.87,1.22-2.74l5.33,4.46C221.76,326.16,221.47,327.1,221.11,328.1Z" transform="translate(-207.79 -263.23)" fill="#d4d4d4"/><path d="M221.62,326.59l-5.47-4.54c.43-.94.86-1.87,1.3-2.74l5.26,4.39C222.26,324.65,222,325.66,221.62,326.59Z" transform="translate(-207.79 -263.23)" fill="#d6d6d6"/><path d="M222.12,325.15l-5.33-4.46c.29-.72.65-1.37.94-2.09h0l.58-.43,4.9,4.18Z" transform="translate(-207.79 -263.23)" fill="#d6d6d6"/><path d="M222.7,323.71l-5.26-4.39c.07-.22.22-.5.29-.72h0c.58-.43,1.15-.86,1.73-1.37l4.32,3.67Z" transform="translate(-207.79 -263.23)" fill="#d6d6d6"/><path d="M223.2,322.34l-4.9-4.18c.79-.58,1.51-1.22,2.3-1.8l3.82,3.17C224,320.47,223.56,321.41,223.2,322.34Z" transform="translate(-207.79 -263.23)" fill="#d6d6d6"/><path d="M223.78,320.9l-4.32-3.67,2.38-1.73,3.17,2.66C224.57,319,224.21,320,223.78,320.9Z" transform="translate(-207.79 -263.23)" fill="#d9d9d9"/><path d="M224.42,319.54l-3.82-3.17c.79-.58,1.58-1.15,2.45-1.73l2.59,2.16C225.22,317.74,224.78,318.6,224.42,319.54Z" transform="translate(-207.79 -263.23)" fill="#d9d9d9"/><path d="M225,318.17l-3.17-2.66c.79-.58,1.66-1.15,2.45-1.73l2,1.66C225.86,316.37,225.43,317.23,225,318.17Z" transform="translate(-207.79 -263.23)" fill="#d9d9d9"/><path d="M225.65,316.8l-2.59-2.16c.79-.58,1.66-1.15,2.52-1.66l1.37,1.15C226.51,315,226.08,315.94,225.65,316.8Z" transform="translate(-207.79 -263.23)" fill="#dbdbdb"/><path d="M226.3,315.43l-2-1.66c.86-.58,1.73-1.08,2.59-1.58l.79.65C227.16,313.7,226.73,314.57,226.3,315.43Z" transform="translate(-207.79 -263.23)" fill="#dbdbdb"/><path d="M226.94,314.14,225.58,313l2.16-1.3h.07l.14-.07v-.07l.22-.07h.07l.14.07C227.88,312.41,227.45,313.27,226.94,314.14Z" transform="translate(-207.79 -263.23)" fill="#dedede"/><path d="M227.66,312.84l-.79-.65c.29-.14.58-.36.86-.5h.07l.14-.07v-.07l.22-.07h0l.14-.07.07-.07.14-.07C228.24,311.83,228,312.34,227.66,312.84Z" transform="translate(-207.79 -263.23)" fill="#dedede"/><polygon points="20.59 48.31 20.45 48.24 20.52 48.17 20.59 48.1 20.74 48.02 20.59 48.31" fill="#dedede"/><path d="M235.66,426v.14a40.22,40.22,0,0,1,2.52-9.72C236.23,419.18,234.86,422.42,235.66,426Z" transform="translate(-207.79 -263.23)" fill="#8f8f8f"/><path d="M235.66,426c.22,1,.43,1.94.72,3.1A37.47,37.47,0,0,1,239,417c-.29-.29-.5-.58-.72-.79C236.3,419,234.86,422.28,235.66,426Z" transform="translate(-207.79 -263.23)" fill="#919191"/><path d="M238.18,416.38a40.22,40.22,0,0,0-2.52,9.72c.43,1.73.79,3.31,1.58,5.76l.07.07v-.86a37.38,37.38,0,0,1,2.45-13.32c-.5-.5-.94-1.08-1.44-1.58Z" transform="translate(-207.79 -263.23)" fill="#949494"/><path d="M239,417a37.47,37.47,0,0,0-2.66,12.1q.32,1.19.86,2.81a13.82,13.82,0,0,0,1.08,1,14.46,14.46,0,0,1-.07-1.8,36.42,36.42,0,0,1,2.23-12.53C240,418,239.47,417.46,239,417Z" transform="translate(-207.79 -263.23)" fill="#969696"/><path d="M239.76,417.74a37.38,37.38,0,0,0-2.45,13.32v.86c.65.65,1.37,1.3,2,1.94-.07-.94-.07-1.87-.07-2.81a34.49,34.49,0,0,1,1.94-11.66C240.7,418.82,240.19,418.32,239.76,417.74Z" transform="translate(-207.79 -263.23)" fill="#999"/><path d="M240.48,418.54a36.42,36.42,0,0,0-2.23,12.53,14.46,14.46,0,0,0,.07,1.8,26.68,26.68,0,0,0,2.09,1.94,31.72,31.72,0,0,1-.22-3.74,35.81,35.81,0,0,1,1.73-10.87C241.42,419.62,240.91,419.11,240.48,418.54Z" transform="translate(-207.79 -263.23)" fill="#9b9b9b"/><path d="M241.2,419.4a34.49,34.49,0,0,0-1.94,11.66c0,.94,0,1.87.07,2.81l2.16,1.94a35.19,35.19,0,0,1-.36-4.75A33.19,33.19,0,0,1,242.71,421c-.5-.58-1-1.08-1.51-1.58ZM296,457.56c2.59-1.08,3.74-2.45,4.39-4.18A40.15,40.15,0,0,1,296,457.56Z" transform="translate(-207.79 -263.23)" fill="#9e9e9e"/><path d="M241.92,420.19a35.81,35.81,0,0,0-1.73,10.87,31.72,31.72,0,0,0,.22,3.74c.72.65,1.44,1.3,2.23,1.94a29.34,29.34,0,0,1-.5-5.69,31.33,31.33,0,0,1,1.37-9.36c-.58-.5-1.08-1-1.58-1.51ZM293,458.5c.43-.14.79-.22,1.51-.43,4.82-1.44,5.83-3.67,6.41-6.91A33.4,33.4,0,0,1,293,458.5Z" transform="translate(-207.79 -263.23)" fill="#a1a1a1"/><path d="M242.71,421a33.19,33.19,0,0,0-1.58,10.08,35.19,35.19,0,0,0,.36,4.75c.79.65,1.51,1.3,2.3,1.94a34.06,34.06,0,0,1-.72-6.7,33.69,33.69,0,0,1,1.15-8.57L242.71,421ZM296,457.56a40.15,40.15,0,0,0,4.39-4.18,28,28,0,0,0,.94-4.32,32.59,32.59,0,0,1-10.44,9.65c.22,0,.43.07.58.07a18.94,18.94,0,0,0,3.1-.72C295.06,457.92,295.56,457.7,296,457.56Z" transform="translate(-207.79 -263.23)" fill="#a3a3a3"/><path d="M243.5,421.7a31.33,31.33,0,0,0-1.37,9.36,29.34,29.34,0,0,0,.5,5.69L245,438.7a29.56,29.56,0,0,1-.94-7.63,30.68,30.68,0,0,1,.94-7.78c-.5-.5-1-1-1.51-1.58ZM293,458.5a33.4,33.4,0,0,0,7.92-7.34c.14-.72.22-1.51.36-2.3a4.75,4.75,0,0,0-1-.07,30.94,30.94,0,0,1-11,9.65c.72.14,1.44.29,2.16.36A13.06,13.06,0,0,0,293,458.5Z" transform="translate(-207.79 -263.23)" fill="#a3a3a3"/><path d="M244.22,422.5a33.69,33.69,0,0,0-1.15,8.57,34.06,34.06,0,0,0,.72,6.7c.79.65,1.66,1.3,2.52,1.94a28.52,28.52,0,0,1-1.3-8.64,29.13,29.13,0,0,1,.86-7.06c-.58-.5-1.08-1-1.66-1.51Zm46.66,36.22a32.59,32.59,0,0,0,10.44-9.65v-.22l-2.09-.22a30.41,30.41,0,0,1-11.52,9.58C288.79,458.35,289.8,458.57,290.88,458.71Z" transform="translate(-207.79 -263.23)" fill="#a6a6a6"/><path d="M245,423.29a30.68,30.68,0,0,0-.94,7.78,29.56,29.56,0,0,0,.94,7.63c.86.72,1.73,1.37,2.59,2a30.45,30.45,0,0,1-1.58-9.65,29.82,29.82,0,0,1,.65-6.26c-.58-.5-1.08-1-1.66-1.51Zm44.28,35.14a30.94,30.94,0,0,0,11-9.65c-.72-.07-1.44-.22-2.23-.29a28.62,28.62,0,0,1-12,9.36C287.14,458.06,288.22,458.28,289.3,458.42Z" transform="translate(-207.79 -263.23)" fill="#a8a8a8"/><path d="M245.88,424a29.13,29.13,0,0,0-.86,7.06,28.52,28.52,0,0,0,1.3,8.64c.86.72,1.8,1.37,2.74,2.09A27.93,27.93,0,0,1,247,431.06a28.4,28.4,0,0,1,.58-5.54,16.5,16.5,0,0,1-1.66-1.51Zm41.83,34.2a30.41,30.41,0,0,0,11.52-9.58c-.72-.07-1.51-.14-2.23-.29a27.87,27.87,0,0,1-12.67,9.14C285.48,457.7,286.56,458,287.71,458.21Z" transform="translate(-207.79 -263.23)" fill="#ababab"/><path d="M246.67,424.8a29.82,29.82,0,0,0-.65,6.26,30.45,30.45,0,0,0,1.58,9.65c1,.72,2,1.44,3,2.09a26.55,26.55,0,0,1-2.74-11.74,25.93,25.93,0,0,1,.43-4.75c-.58-.5-1.08-1-1.66-1.51Zm39.38,33a28.62,28.62,0,0,0,12-9.36c-.72-.07-1.44-.14-2.16-.29a27.49,27.49,0,0,1-13.39,8.86C283.68,457.34,284.9,457.63,286.06,457.85Z" transform="translate(-207.79 -263.23)" fill="#adadad"/><path d="M247.54,425.52a28.4,28.4,0,0,0-.58,5.54A27.93,27.93,0,0,0,249,441.79l3.24,2.16a26.06,26.06,0,0,1-3.38-12.89,24.73,24.73,0,0,1,.29-4c-.58-.5-1.15-1-1.66-1.51Zm36.79,32A27.87,27.87,0,0,0,297,448.34c-.72-.07-1.51-.22-2.23-.29a26.2,26.2,0,0,1-14.18,8.5C281.81,456.91,283.1,457.2,284.33,457.49Z" transform="translate(-207.79 -263.23)" fill="#b0b0b0"/><path d="M248.33,426.31a25.93,25.93,0,0,0-.43,4.75,26.55,26.55,0,0,0,2.74,11.74c1.15.86,2.3,1.58,3.53,2.38a25,25,0,0,1-4.32-14.11,25.58,25.58,0,0,1,.22-3.31c-.58-.5-1.15-.94-1.73-1.44Zm34.2,30.74a27.49,27.49,0,0,0,13.39-8.86c-.79-.07-1.51-.22-2.3-.36A24.91,24.91,0,0,1,278.42,456Z" transform="translate(-207.79 -263.23)" fill="#b3b3b3"/><path d="M249.19,427a24.73,24.73,0,0,0-.29,4A26.06,26.06,0,0,0,252.29,444c1.37.86,2.66,1.73,4.1,2.52a23.61,23.61,0,0,1-5.54-15.41,15.65,15.65,0,0,1,.14-2.59c-.65-.5-1.22-.94-1.8-1.44Zm31.39,29.52a26.2,26.2,0,0,0,14.18-8.5l-2.23-.43A23.81,23.81,0,0,1,276,455.18C277.49,455.69,279,456.12,280.58,456.55Z" transform="translate(-207.79 -263.23)" fill="#b5b5b5"/><path d="M250.06,427.75a25.58,25.58,0,0,0-.22,3.31,25,25,0,0,0,4.32,14.11c1.66,1,3.31,1.94,5,2.88a23.26,23.26,0,0,1-7.42-17,16.27,16.27,0,0,1,.07-1.87c-.58-.43-1.22-.94-1.8-1.44ZM278.42,456a24.91,24.91,0,0,0,15.19-8.14c-.72-.14-1.51-.22-2.23-.43A23,23,0,0,1,275,454.25a20.23,20.23,0,0,1-2.09-.07C274.75,454.82,276.55,455.4,278.42,456Z" transform="translate(-207.79 -263.23)" fill="#b8b8b8"/><path d="M251,428.47a15.65,15.65,0,0,0-.14,2.59,24,24,0,0,0,5.54,15.41A93.82,93.82,0,0,0,276,455.18a23.81,23.81,0,0,0,16.56-7.56c-.79-.07-1.51-.29-2.3-.43A21.93,21.93,0,0,1,275,453.31a22.26,22.26,0,0,1-22.25-22.25c0-.36.07-.79.07-1.15A17.52,17.52,0,0,1,251,428.47Z" transform="translate(-207.79 -263.23)" fill="#bababa"/><path d="M251.86,429.19a16.27,16.27,0,0,0-.07,1.87,23.26,23.26,0,0,0,7.42,17,101.51,101.51,0,0,0,13.68,6.12,20.23,20.23,0,0,0,2.09.07,23,23,0,0,0,16.42-6.84l-2.3-.43a21.27,21.27,0,0,1-35.35-15.91v-.43Z" transform="translate(-207.79 -263.23)" fill="#bdbdbd"/><path d="M252.79,429.91c0,.36-.07.79-.07,1.15A22.26,22.26,0,0,0,275,453.31a21.93,21.93,0,0,0,15.26-6.12,21.64,21.64,0,0,1-2.3-.5,20.3,20.3,0,0,1-33.26-15.34Z" transform="translate(-207.79 -263.23)" fill="#bfbfbf"/><path d="M253.73,430.63v.43A21.27,21.27,0,0,0,289.08,447c-.79-.22-1.58-.36-2.38-.58a19.26,19.26,0,0,1-31-14.33C255,431.57,254.38,431.14,253.73,430.63Z" transform="translate(-207.79 -263.23)" fill="#c2c2c2"/><path d="M254.66,431.35a20.3,20.3,0,0,0,33.26,15.34c-.79-.22-1.58-.36-2.38-.58a18.42,18.42,0,0,1-28.87-13.32C256,432.29,255.31,431.86,254.66,431.35Z" transform="translate(-207.79 -263.23)" fill="#c2c2c2"/><path d="M255.67,432.07a19.26,19.26,0,0,0,31,14.33c-.79-.22-1.58-.43-2.45-.65a17,17,0,0,1-9.29,2.74,17.39,17.39,0,0,1-17.21-15C257,433,256.32,432.5,255.67,432.07Z" transform="translate(-207.79 -263.23)" fill="#c7c7c7"/><path d="M256.68,432.79a18.42,18.42,0,0,0,28.87,13.32c-.86-.22-1.73-.5-2.52-.72a16,16,0,0,1-8.06,2.09,16.39,16.39,0,0,1-16.13-13.25C258.12,433.73,257.4,433.22,256.68,432.79Z" transform="translate(-207.79 -263.23)" fill="#c7c7c7"/><path d="M257.76,433.51a17.39,17.39,0,0,0,17.21,15,17,17,0,0,0,9.29-2.74,25.78,25.78,0,0,1-2.52-.79,15.34,15.34,0,0,1-6.77,1.58A15.53,15.53,0,0,1,260,435C259.27,434.45,258.48,434,257.76,433.51Z" transform="translate(-207.79 -263.23)" fill="#c9c9c9"/><path d="M258.84,434.23A16.39,16.39,0,0,0,275,447.48a16,16,0,0,0,8.06-2.09l-2.74-.86a14.56,14.56,0,0,1-19.08-8.78Z" transform="translate(-207.79 -263.23)" fill="#ccc"/><path d="M260,435a15.53,15.53,0,0,0,15,11.59,15.34,15.34,0,0,0,6.77-1.58c-1-.29-1.94-.58-2.88-.94a13.72,13.72,0,0,1-3.89.58,13.5,13.5,0,0,1-12.38-8.06C261.72,436,260.86,435.46,260,435Z" transform="translate(-207.79 -263.23)" fill="#cfcfcf"/><path d="M261.22,435.74a14.56,14.56,0,0,0,19.08,8.78l-3.1-1.08a11.72,11.72,0,0,1-2.23.22,12.59,12.59,0,0,1-10.87-6.26C263.16,436.82,262.15,436.32,261.22,435.74Z" transform="translate(-207.79 -263.23)" fill="#cfcfcf"/><path d="M262.58,436.54A13.5,13.5,0,0,0,275,444.6a13.72,13.72,0,0,0,3.89-.58c-1.22-.43-2.45-.86-3.67-1.37H275a11.71,11.71,0,0,1-9-4.25C264.82,437.83,263.74,437.18,262.58,436.54Z" transform="translate(-207.79 -263.23)" fill="#d1d1d1"/><path d="M264.1,437.4A12.59,12.59,0,0,0,275,443.66a11.72,11.72,0,0,0,2.23-.22c-1.87-.72-3.74-1.44-5.54-2.3a8.87,8.87,0,0,1-2.23-1C267.62,439.27,265.82,438.34,264.1,437.4Z" transform="translate(-207.79 -263.23)" fill="#d1d1d1"/><path d="M266,438.41a11.71,11.71,0,0,0,9,4.25h.22A88.72,88.72,0,0,1,266,438.41Z" transform="translate(-207.79 -263.23)" fill="#d4d4d4"/><path d="M269.42,440.14a8.87,8.87,0,0,0,2.23,1A21,21,0,0,1,269.42,440.14Z" transform="translate(-207.79 -263.23)" fill="#d6d6d6"/><path d="M236.59,429.77a16.75,16.75,0,0,0,.65,2.09,95.48,95.48,0,0,1-16.34-21.53,7.15,7.15,0,0,1-.94-3.67A120,120,0,0,0,236.59,429.77Z" transform="translate(-207.79 -263.23)" fill="#233823"/><path d="M235.44,423.58a8.86,8.86,0,0,0,.22,2.38,53.51,53.51,0,0,0,1.58,5.9,95.48,95.48,0,0,1-16.34-21.53c-1.37-2.45-1.08-5.9.07-8.57a114.8,114.8,0,0,0,14.47,21.82ZM208.8,357.19c-.22-1.22-.5-2.45-.72-3.24a60.86,60.86,0,0,0-.29,7,93.07,93.07,0,0,0,2.45,21.17,3.68,3.68,0,0,0,3.89,3A115.6,115.6,0,0,1,208.8,357.19Z" transform="translate(-207.79 -263.23)" fill="#233823"/><path d="M220,406.66a120,120,0,0,0,16.63,23.11c-.43-1.44-.65-2.59-.94-3.82a10.27,10.27,0,0,1,.65-6.26,117,117,0,0,1-13.25-21,11.09,11.09,0,0,0-3.1,7.92Zm83.45,53.14a93.33,93.33,0,0,1-12-1,18.94,18.94,0,0,0,3.1-.72c.14-.07.29-.07.43-.14,2.74.72,5.54,1.37,8.42,1.87Zm-90.79-96.34c-2.88.65-3.74-6.77-4.54-9.5a60.86,60.86,0,0,0-.29,7,93.07,93.07,0,0,0,2.45,21.17,3.94,3.94,0,0,0,6.77,1.73h.07A112.84,112.84,0,0,1,212.62,363.46Z" transform="translate(-207.79 -263.23)" fill="#233823"/><path d="M208.8,357.19a115.6,115.6,0,0,0,5.33,27.94,4.28,4.28,0,0,0,2.88-1.3l2.66-2.38a107.18,107.18,0,0,1-4-20l-2.23,1.73c-2.59,1.58-3.82-2.45-4.61-6ZM221,401.76a114.8,114.8,0,0,0,14.47,21.82,13,13,0,0,1,2.59-6.91,105.6,105.6,0,0,1-12.46-20.16l-2.16,1.94a9.93,9.93,0,0,0-2.45,3.31Zm85.32,58.1h-.22a97.68,97.68,0,0,1-14.62-1.08,18.94,18.94,0,0,0,3.1-.72,9.56,9.56,0,0,0,4.46-2.45,108.07,108.07,0,0,0,20,2.74,5.79,5.79,0,0,1-2.45.86,70,70,0,0,1-10.3.65Zm-83.74-150a79.7,79.7,0,0,0-4.82,8.78c.79-.65,1.58-1.22,2.38-1.87C220.82,314.42,221.69,312.12,222.55,309.82Z" transform="translate(-207.79 -263.23)" fill="#233823"/><path d="M212.62,363.46a112.84,112.84,0,0,0,4.46,20.38l5.26-4.68a106.9,106.9,0,0,1-3.74-20l-5.18,4a5.47,5.47,0,0,1-.79.29Zm10.44,35.28a117,117,0,0,0,13.25,21A22.89,22.89,0,0,1,240,414a107.22,107.22,0,0,1-12-19.66l-4.61,4.1a1.57,1.57,0,0,1-.36.29ZM295,457.92c2.74.72,5.54,1.37,8.42,1.87.94.07,1.8.07,2.66.07h.22a70,70,0,0,0,10.3-.65,6.05,6.05,0,0,0,5-4,106.27,106.27,0,0,1-21-2.52c-.65,2.3-1.94,4-5.62,5.18ZM229.39,302.4a23,23,0,0,0-5.76,5.83,78.65,78.65,0,0,0-5.9,10.37c2.23-1.73,4.46-3.46,6.84-5A97.65,97.65,0,0,1,229.39,302.4Z" transform="translate(-207.79 -263.23)" fill="#233823"/><path d="M222.55,309.82c-.86,2.3-1.73,4.61-2.45,6.91A59.81,59.81,0,0,1,229,311a96.6,96.6,0,0,1,6-12.24c-5.26,3-9.5,6.41-11.38,9.43-.36.43-.65,1-1.08,1.58Zm-6.91,51.62a107.18,107.18,0,0,0,4,20l5.33-4.68a106.64,106.64,0,0,1-3.38-20,3.13,3.13,0,0,1-.5.43l-5.47,4.25Zm9.94,35.06A105.6,105.6,0,0,0,238,416.66a36.53,36.53,0,0,1,4.25-5,103.22,103.22,0,0,1-11.74-19.51l-5,4.39ZM299,455.62a108.07,108.07,0,0,0,20,2.74c2.45-1.44,3.17-4.25,3.46-6.34a103.35,103.35,0,0,1-21.31-2.45c-.36,2.52-.72,4.54-2.16,6Zm44.78-5.54c1.87.79,4.68.22,7.85-1.44.58-.29,1.15-.65,1.73-.94-3.1.94-6.34,1.73-9.58,2.38ZM244.66,284.76Z" transform="translate(-207.79 -263.23)" fill="#233823"/><path d="M229.39,302.4a97.65,97.65,0,0,0-4.82,11.23,38.33,38.33,0,0,1,6.55-3.53,7.18,7.18,0,0,1,2.09-.72,93.91,93.91,0,0,1,7.13-13.25,54.52,54.52,0,0,0-10.94,6.26Zm-10.8,56.74a106.9,106.9,0,0,0,3.74,20l5.33-4.68a103.44,103.44,0,0,1-3.1-23.26c-.58,3.24-1.37,4.25-3.46,6l-2.52,1.94ZM228,394.34A107.22,107.22,0,0,0,240,414c1.44-1.66,3-3.17,4.25-4.46l.22-.22A99.51,99.51,0,0,1,233,389.88l-5,4.46Zm72.58,58.39a106.27,106.27,0,0,0,21,2.52,14.09,14.09,0,0,0,1-4.54l.07-1.87a99.34,99.34,0,0,1-21-2.45l-.07.29c-.43,2.38-.58,4.32-1.08,6Zm40.68-5.47c1.3,3.82,5.26,4,10.37,1.37A108.2,108.2,0,0,0,366,439.34a95.25,95.25,0,0,1-24.7,7.92Zm-96.62-162.5h0c1.37-.43,3.31-1.08,5.76-1.73a88.58,88.58,0,0,1,6.91-6.84A95.37,95.37,0,0,0,244.66,284.76Z" transform="translate(-207.79 -263.23)" fill="#233823"/><path d="M244.66,284.76h0a103.29,103.29,0,0,1,11.45-3,97.16,97.16,0,0,1,14.62-12,100.63,100.63,0,0,0-26.06,15Zm-9.65,14A96.6,96.6,0,0,0,229,311c.72-.36,1.44-.65,2.16-.94,2.16-1,5.11-1.73,4.75,1a97.9,97.9,0,0,1,9.65-16.92,4.06,4.06,0,0,1-.86.29h0A58.63,58.63,0,0,0,235,298.8Zm-13.39,58a106.64,106.64,0,0,0,3.38,20l5.4-4.75a94.11,94.11,0,0,1-2.59-22.25A95.69,95.69,0,0,1,230.54,327a1.88,1.88,0,0,0-.22.79,203.68,203.68,0,0,0-5.54,22.54c-.65,3.67-1.3,4.9-3.17,6.48Zm8.93,35.35a103.22,103.22,0,0,0,11.74,19.51c.72-.72,1.37-1.44,2-2.09a5.47,5.47,0,0,1,3.1-1.66,98.67,98.67,0,0,1-11.88-20.3l-5,4.54Zm70.63,57.46A103.35,103.35,0,0,0,322.49,452a10.12,10.12,0,0,0,.14-1.3l.14-5A97.3,97.3,0,0,1,302,443.23a21.69,21.69,0,0,1-.36,3.46c-.22,1-.36,2-.5,2.88Zm42.62.5c3.24-.65,6.48-1.44,9.58-2.38a116.86,116.86,0,0,0,16.2-11.16,43.48,43.48,0,0,1-7.27,2.81c-1.58.43-2.66.22-3.31-.36a96.84,96.84,0,0,1-18.14,5.11C340.85,447.41,341.93,449.35,343.8,450.07Z" transform="translate(-207.79 -263.23)" fill="#233823"/><path d="M257.33,276.19a88.58,88.58,0,0,0-6.91,6.84c2.66-.65,5.83-1.44,9.36-1.94.65-.07,1.3-.22,1.94-.29a94.41,94.41,0,0,1,23.18-15.26,97.54,97.54,0,0,0-27.58,10.66Zm-17,19.94a93.91,93.91,0,0,0-7.13,13.25c2-.5,3.67,0,2.09,3.82-1.73,4.25-4.18,11.66-5,14.54a203.68,203.68,0,0,0-5.54,22.54c-.07.36-.14.65-.22.94a103.44,103.44,0,0,0,3.1,23.26l5.47-4.82A90.37,90.37,0,0,1,231,349.78a92.43,92.43,0,0,1,19.66-57.1c-1.73.43-3.67,1.08-6,1.8h0c-1.44.5-2.88,1.08-4.32,1.66ZM233,389.88a99.51,99.51,0,0,0,11.52,19.44c2.09-1.94,5-2,7.92-.29A93.52,93.52,0,0,1,238,385.34l-5,4.54Zm68.76,56.52a99.34,99.34,0,0,0,21,2.45l.07-6.41a93.87,93.87,0,0,1-21.31-2.66c.72,1.58.72,3.74.29,6.62Zm39.53.86a95.25,95.25,0,0,0,24.7-7.92c1.3-.94,2.45-1.87,3.6-2.81a43.48,43.48,0,0,1-7.27,2.81c-3.24.94-4.25-.94-4.54-3.38a89.7,89.7,0,0,1-16.78,4.9l-.14,3A11.89,11.89,0,0,0,341.28,447.26Z" transform="translate(-207.79 -263.23)" fill="#273e27"/><path d="M270.72,269.78a97.16,97.16,0,0,0-14.62,12q1.73-.32,3.67-.65c2.66-.43,5.33-.72,7.78-1.08a90.13,90.13,0,0,1,32.33-16.56,98.08,98.08,0,0,0-29.16,6.34Zm-25.2,24.41a97.9,97.9,0,0,0-9.65,16.92,5.74,5.74,0,0,1-.58,2.09c-1.58,3.89-3.82,10.58-4.75,13.75a95.69,95.69,0,0,0-2.74,22.82A94.11,94.11,0,0,0,230.4,372l4.32-3.74c.36-.36.79-.72,1.15-1.08a92.24,92.24,0,0,1-1.73-17.42,89.35,89.35,0,0,1,21.46-58.1,57.37,57.37,0,0,0-10.08,2.52Zm-10,93.38a98.67,98.67,0,0,0,11.88,20.3c2.23-.36,4.68.5,7,2.66,4.25,3.89,10.66,8.64,19.66,14.4s15.77,8.93,22.39,11.16c4.32,1.44,5.69,3.38,5.62,7.13a97.3,97.3,0,0,0,20.74,2.45l.07-6.41A89.64,89.64,0,0,1,240.55,383l-5,4.54ZM340.85,444.1A96.84,96.84,0,0,0,359,439c-1.37-1.22-1.37-4-1.3-6.41a86.91,86.91,0,0,1-16.63,5l-.22,6.26v.29Zm50.33-35.5c-.29,1.15-.58,2.23-.94,3.46a77.05,77.05,0,0,0,4.46-7.78C393.55,405.72,392.4,407.16,391.18,408.6Z" transform="translate(-207.79 -263.23)" fill="#2a442a"/><path d="M284.9,265.54a94.41,94.41,0,0,0-23.18,15.26c4.54-.65,8.93-1.15,12.24-1.58a86.69,86.69,0,0,1,42.34-15.48c-3.31-.29-6.7-.5-10.3-.5a97.13,97.13,0,0,0-21.1,2.3Zm-34.27,27.14A92.43,92.43,0,0,0,231,349.78a90.37,90.37,0,0,0,2.16,19.87l1.58-1.37a34.09,34.09,0,0,0,3.89-4,87.23,87.23,0,0,1-1.22-14.47,85.91,85.91,0,0,1,22.32-57.89,6.28,6.28,0,0,0-2.23-.36,28.33,28.33,0,0,0-6.84,1.15ZM238,385.34A93.52,93.52,0,0,0,252.43,409a11.87,11.87,0,0,1,1.94,1.51c4.25,3.89,10.66,8.64,19.66,14.4s15.77,8.93,22.39,11.16c2.74.86,4.25,2,5,3.67a93.87,93.87,0,0,0,21.31,2.66l.14-6.41a86.46,86.46,0,0,1-79.7-54.94,10.59,10.59,0,0,0-2.45,1.73L238,385.34Zm103,55.51a89.7,89.7,0,0,0,16.78-4.9,40.38,40.38,0,0,1-.07-5.11,8.3,8.3,0,0,1,.22-1.87,88.54,88.54,0,0,1-16.7,5.33l-.22,6.55Zm51-38.38a10.74,10.74,0,0,1-.14,1.51,44.44,44.44,0,0,1-1.58,8.06A66.26,66.26,0,0,0,398,395.93a19.28,19.28,0,0,0,.79-3.53A88.49,88.49,0,0,1,392,402.48Z" transform="translate(-207.79 -263.23)" fill="#2e4a2d"/><path d="M299.88,263.45A90.13,90.13,0,0,0,267.55,280c3.17-.36,6-.72,8.06-1,2.45-.36,4.46-.79,6.41-1.15a82.36,82.36,0,0,1,41.62-11.23,85.69,85.69,0,0,1,9.65.58c-.36-.14-.72-.22-1.08-.36a92.55,92.55,0,0,0-26.21-3.6c-2,0-4.1.07-6.12.22ZM255.6,291.67a89.35,89.35,0,0,0-21.46,58.1,92.24,92.24,0,0,0,1.73,17.42,19.6,19.6,0,0,0,5.26-7.56,88.55,88.55,0,0,1-.58-9.86,83,83,0,0,1,20.52-54.65c.36-2.16-.36-3.6-3.6-3.6-.58,0-1.15.07-1.87.14Zm-15,91.37a89.64,89.64,0,0,0,82.3,56.23l.14-6.41A83.16,83.16,0,0,1,246.24,380a10.74,10.74,0,0,0-5.47,2.81l-.22.22Zm100.51,54.5a86.91,86.91,0,0,0,16.63-5v-1.73a8.74,8.74,0,0,1,2.81-6.55,83.29,83.29,0,0,1-19.22,6.7l-.22,6.55Zm50.11-28.94c1.22-1.44,2.38-2.88,3.53-4.32a71.79,71.79,0,0,0,3.31-8.35,26.34,26.34,0,0,0,.79-10.51,67.92,67.92,0,0,1-6.91,11.74,35.82,35.82,0,0,1-.07,6.84A39.47,39.47,0,0,1,391.18,408.6Z" transform="translate(-207.79 -263.23)" fill="#33502f"/><path d="M316.3,263.74A86.69,86.69,0,0,0,274,279.22l1.66-.22c6.41-1,10-2.09,17.57-3.1a79.25,79.25,0,0,1,30.46-6,83.84,83.84,0,0,1,17.14,1.8,31.16,31.16,0,0,0-8.57-4.82,94.1,94.1,0,0,0-15.91-3.1ZM259.7,291.89a85.91,85.91,0,0,0-22.32,57.89,87.23,87.23,0,0,0,1.22,14.47,25.85,25.85,0,0,0,4.32-10.66c.29-1.44.58-2.81.86-4.18A79.7,79.7,0,0,1,256.18,307c1-2.45,2.09-4.9,3.31-7.56,1.66-3.53,2.66-6.55.22-7.56ZM243.22,381.1A86.46,86.46,0,0,0,322.92,436l.14-4.75a11.62,11.62,0,0,0,0-1.58,80,80,0,0,1-73.44-49.9h-1a12.19,12.19,0,0,0-5.4,1.3Zm98,53.21a88.54,88.54,0,0,0,16.7-5.33,9.91,9.91,0,0,1,3-5.11c2.09-2,4.9-4.9,7.85-8.14a78.12,78.12,0,0,1-27.29,12v.22l-.22,6.41ZM392,402.48a88.49,88.49,0,0,0,6.84-10.08,45.63,45.63,0,0,0-.86-13,80.33,80.33,0,0,1-6.55,12.89,11.94,11.94,0,0,1,.43,3.31,56.5,56.5,0,0,1,.14,6.91Zm10.66-40.18a61.23,61.23,0,0,1,1.44,6c.36-3.6,0-10.51-.22-15.77l-.22-2.38A84.92,84.92,0,0,1,402.62,362.3Z" transform="translate(-207.79 -263.23)" fill="#375631"/><path d="M333.29,267.19a85.69,85.69,0,0,0-9.65-.58A82.36,82.36,0,0,0,282,277.85a165.87,165.87,0,0,1,25.63-3.38c.5,0,1.08-.07,1.58-.07a79.37,79.37,0,0,1,14.4-1.37,78.3,78.3,0,0,1,19.87,2.59,7.09,7.09,0,0,0,1.22.14c.07.07.29.07.36.07.72-.07-6.41-6.55-11.81-8.64Zm-72.22,27.94a83,83,0,0,0-20.52,54.65,88.55,88.55,0,0,0,.58,9.86,26.08,26.08,0,0,0,1.8-6c4.32-22,7.7-34.78,16.56-54.14a20.13,20.13,0,0,0,1.58-4.32ZM246.24,380A83.16,83.16,0,0,0,323,432.86l.07-1.58a14.71,14.71,0,0,0-.43-4.82,76.94,76.94,0,0,1-69.12-45.58,11,11,0,0,0-4.9-1.08,13.26,13.26,0,0,0-2.38.22Zm95,51a83.29,83.29,0,0,0,19.22-6.7c.14-.14.22-.29.36-.43a218.17,218.17,0,0,0,15.62-17c3.74-4.54,6.12-7.63,7.92-10.3a76.54,76.54,0,0,1-42.55,27.72,14.93,14.93,0,0,0-.43,3.6l-.14,3.1Zm50.62-33.84a67.92,67.92,0,0,0,6.91-11.74,99.2,99.2,0,0,0-2.09-12.1,77.33,77.33,0,0,1-8.35,17.78c2.88-2.74,3.38,2.52,3.46,4.46a11.67,11.67,0,0,1,.07,1.58Zm8.28-41.47a54.93,54.93,0,0,1,3.89,12.6c.36-3.6,0-10.51-.22-15.77a98.14,98.14,0,0,0-45.07-73.87,42.09,42.09,0,0,1,2.09,4,76.67,76.67,0,0,1,39.53,67.1C400.39,351.79,400.32,353.74,400.18,355.68Z" transform="translate(-207.79 -263.23)" fill="#3b5c35"/><path d="M340.78,271.66a83.84,83.84,0,0,0-17.14-1.8,79.25,79.25,0,0,0-30.46,6c3.6-.5,8.21-1,14.47-1.44a195.7,195.7,0,0,1,37.08,1.3c.07.07.29.07.36.07.43-.07-1.58-2-4.32-4.18ZM256.18,307a79.7,79.7,0,0,0-12.38,42.41c3.38-16.7,6.41-28.08,12.38-42.41Zm-6.55,72.79a80,80,0,0,0,73.44,49.9,10.73,10.73,0,0,0-2.09-6.48,73.59,73.59,0,0,1-61.92-38.3c-1-.86-2.09-1.66-3.24-2.59a11.5,11.5,0,0,0-6.19-2.52Zm91.8,47.88a78.12,78.12,0,0,0,27.29-12c2.66-2.81,5.4-6,7.78-8.86a127.2,127.2,0,0,0,9.79-13c3.1-5,4.54-3.74,5.11-1.58a80.33,80.33,0,0,0,6.55-12.89c-.5-3-1.22-6-1.94-9a13.86,13.86,0,0,0-.86-3A73.67,73.67,0,0,1,343,420.7a19.71,19.71,0,0,0-1.58,7Zm61.2-65.38a84.92,84.92,0,0,0,1-12.17,98.26,98.26,0,0,0-44.86-71.5c1.87,2.88,2.3,6,6.26,10.22h0l.36.36a73.73,73.73,0,0,1,31.82,60.48,16.24,16.24,0,0,1,.79,1.58A55.77,55.77,0,0,1,402.62,362.3Z" transform="translate(-207.79 -263.23)" fill="#406336"/><path d="M400.39,349.78a76.67,76.67,0,0,0-39.53-67.1,22.7,22.7,0,0,0,4.18,6.19h0a113.92,113.92,0,0,1,12.74,16,70.49,70.49,0,0,1,15.91,38c1.44,3.46,3.17,6,4.32,8.42.72,1.44,1.44,2.88,2.16,4.39.14-1.94.22-3.89.22-5.9Zm-56.88-74.16A78.3,78.3,0,0,0,323.64,273a79.37,79.37,0,0,0-14.4,1.37,190.32,190.32,0,0,1,34.27,1.22Zm-90,105.26a76.94,76.94,0,0,0,69.12,45.58,11.87,11.87,0,0,0-5.62-6.7,70.45,70.45,0,0,1-50.69-29.23c-3.31-2.52-6.77-5.18-10.51-8.21a11.16,11.16,0,0,0-2.3-1.44Zm88.34,43.42a76.81,76.81,0,0,0,42.55-27.65c.65-.94,1.3-1.87,1.87-2.81a12.06,12.06,0,0,1,2.09-2.74,77.33,77.33,0,0,0,8.35-17.78c-.22-.94-.43-1.94-.72-3-.65-3.38-1.94-5.47-3.46-6.26a70.2,70.2,0,0,1-47.09,52.49A18.48,18.48,0,0,0,341.86,424.3Z" transform="translate(-207.79 -263.23)" fill="#446939"/><path d="M397.22,349.7a73.73,73.73,0,0,0-31.82-60.48c11.09,11.88,20.52,25.78,26.42,48.17,1.44,5.69,3.67,9.14,5.4,12.31ZM259.06,384.91A73.59,73.59,0,0,0,321,423.22a14.07,14.07,0,0,0-5.83-4.39q-5-2.27-9.29-4.32a67.77,67.77,0,0,1-28.37-16.06c-5.69-3.82-11.59-8.21-18.43-13.54Zm84,35.78a73.67,73.67,0,0,0,52.13-53.35c-1-2.38-2.45-3.6-4.1-3.6a4.55,4.55,0,0,0-1.8.5,67.07,67.07,0,0,1-38.88,47.09c-1.3,1.44-2.74,3-4.18,4.46A18.44,18.44,0,0,0,343,420.7Z" transform="translate(-207.79 -263.23)" fill="#486f3b"/><path d="M393.7,342.86a70.49,70.49,0,0,0-15.91-38,108.46,108.46,0,0,1,14,32.54,30.32,30.32,0,0,0,1.87,5.47ZM266.33,390.53A70.45,70.45,0,0,0,317,419.76a15.13,15.13,0,0,0-1.87-.94c-20.3-9.22-32.18-15.91-48.82-28.3Zm79.13,26.06a70.2,70.2,0,0,0,47.09-52.49,3.87,3.87,0,0,0-1.51-.36c-1.87,0-4,1.66-6,4.9h0l-.36.5a63.94,63.94,0,0,1-27.86,35.28c-3.31,3.6-6.77,7.34-10.58,11.38A7.17,7.17,0,0,1,345.46,416.59Z" transform="translate(-207.79 -263.23)" fill="#4c753d"/><path d="M277.49,398.45a67.77,67.77,0,0,0,28.37,16.06,212.82,212.82,0,0,1-28.37-16.06Zm72.86,12.89a67.07,67.07,0,0,0,38.88-47.09,11.29,11.29,0,0,0-4.25,4.39h0C375.12,384.26,364.82,396,350.35,411.34Z" transform="translate(-207.79 -263.23)" fill="#527d40"/><path d="M356.76,404.42a63.94,63.94,0,0,0,27.86-35.28C376.42,382.1,367.85,392.47,356.76,404.42Z" transform="translate(-207.79 -263.23)" fill="#558141"/><path d="M259.85,364.39a16.87,16.87,0,0,0,1.44,3.82C260.78,366.91,260.28,365.69,259.85,364.39Z" transform="translate(-207.79 -263.23)" fill="#d0013b"/><path d="M259.06,352.73c-.58,6.41.36,13.46,3.17,16.78a26.06,26.06,0,0,1,.86-3.74A88.22,88.22,0,0,1,259.06,352.73Z" transform="translate(-207.79 -263.23)" fill="#d0013b"/><path d="M259.85,364.39c.43,1.3.94,2.52,1.44,3.82a8.49,8.49,0,0,0,.94,1.3,33.43,33.43,0,0,1,2.23-7.49,86.79,86.79,0,0,1-4.25-16.78c-.43,2.3-.79,4.61-1.15,7h0a35.57,35.57,0,0,0,.79,12.17Zm5.9,1.08a27.05,27.05,0,0,0,5.18,10.87A100.23,100.23,0,0,1,265.75,365.47Z" transform="translate(-207.79 -263.23)" fill="#d0013b"/><path d="M259.06,352.66a86.53,86.53,0,0,0,4,13.1,34.85,34.85,0,0,1,2.23-5.54c0,1.8-.79,13,13.75,23.9A90.37,90.37,0,0,1,261.86,337c-1.08,5-2,10.08-2.81,15.26h0v.43Zm72,66c.94.94,1.37,1.44,1.37,1.44-.07-.36-.14-.79-.22-1.15A9,9,0,0,1,331.06,418.68Z" transform="translate(-207.79 -263.23)" fill="#d2013b"/><path d="M260.21,345.24A85.48,85.48,0,0,0,264.46,362c.29-.65.58-1.3.86-1.8a20.82,20.82,0,0,0,.43,5.26,100.23,100.23,0,0,0,5.18,10.87c3.1,4,7.7,8.14,14.9,12.17h0a87.25,87.25,0,0,1-21.6-57.6c0-1.15.07-2.3.07-3.46a182.2,182.2,0,0,0-4.1,17.78ZM327.31,415c3.46,3.24,5.11,5.11,5.11,5.11a24.31,24.31,0,0,1-.36-3.82Q329.69,415.76,327.31,415Z" transform="translate(-207.79 -263.23)" fill="#d4013c"/><path d="M261.86,337a90.37,90.37,0,0,0,17.21,47.16,52.48,52.48,0,0,0,6.77,4.39,41,41,0,0,1-4.32-9.79,84.72,84.72,0,0,1-14.69-47.81,82,82,0,0,1,1.3-14.69A159.9,159.9,0,0,0,261.86,337Zm69.19,81.72a9,9,0,0,0,1.15.29,22,22,0,0,1,0-5.33,91.58,91.58,0,0,1-9.86-3C326.74,414.36,329.54,417.17,331.06,418.68Z" transform="translate(-207.79 -263.23)" fill="#d4013c"/><path d="M264.31,327.46c0,1.15-.07,2.3-.07,3.46a87.25,87.25,0,0,0,21.6,57.6A42.94,42.94,0,0,1,280,371.38a82.64,82.64,0,0,1-10.58-40.46,81.24,81.24,0,0,1,5.4-29.38,129.61,129.61,0,0,0-10.51,25.92Zm63,87.55q2.38.76,4.75,1.3a23.32,23.32,0,0,1,.58-5.18,82.2,82.2,0,0,1-18.07-6.62A157.82,157.82,0,0,1,327.31,415Z" transform="translate(-207.79 -263.23)" fill="#d4013c"/><path d="M268.13,316.22a82,82,0,0,0-1.3,14.69,84.72,84.72,0,0,0,14.69,47.81,46.56,46.56,0,0,1-1.8-13.61,78.88,78.88,0,0,1-7.7-34.2A80.06,80.06,0,0,1,282,292.18c-2.52,1.51-4,3.74-6.12,7.49a127.31,127.31,0,0,0-7.7,16.56Zm54.22,94.46a91.58,91.58,0,0,0,9.86,3,20.91,20.91,0,0,1,1.15-5A80.57,80.57,0,0,1,298.8,390.6a66.38,66.38,0,0,0,11.3,10.58C315.07,404.71,319.1,408,322.34,410.69Z" transform="translate(-207.79 -263.23)" fill="#d7013c"/><path d="M274.82,301.54a81.24,81.24,0,0,0-5.4,29.38A82.64,82.64,0,0,0,280,371.38a49.12,49.12,0,0,1,.07-11.74,77.56,77.56,0,0,1-5.47-28.73,76.67,76.67,0,0,1,11.3-40.32c-5.26,1.51-7.13,3.74-10.08,9.07a15.47,15.47,0,0,0-1,1.87Zm39.74,103a82.2,82.2,0,0,0,18.07,6.62,20.93,20.93,0,0,1,1.87-4.9A77.15,77.15,0,0,1,291,378.58a61.21,61.21,0,0,0,19.08,22.61C311.69,402.34,313.2,403.42,314.57,404.5Z" transform="translate(-207.79 -263.23)" fill="#d9013c"/><path d="M282,292.18A80.06,80.06,0,0,0,272,330.91a78.88,78.88,0,0,0,7.7,34.2,39,39,0,0,1,1.37-10.22,75.74,75.74,0,0,1-4-24,74.59,74.59,0,0,1,12.38-41.18,23.2,23.2,0,0,0-7.56,2.45ZM298.8,390.6a80.57,80.57,0,0,0,34.56,18.07,21.37,21.37,0,0,1,2.52-4.75,75.74,75.74,0,0,1-10.66-3.17c0,.22.07.43.07.65v.07l-.07-.07a9.32,9.32,0,0,1-1.3-1.15,74.46,74.46,0,0,1-36.72-32A58.84,58.84,0,0,0,298.8,390.6Z" transform="translate(-207.79 -263.23)" fill="#d9013c"/><path d="M285.91,290.59a76.67,76.67,0,0,0-11.3,40.32,77.56,77.56,0,0,0,5.47,28.73,35.7,35.7,0,0,1,2.45-8.78,72.93,72.93,0,0,1-2.81-19.94A72.16,72.16,0,0,1,293,289.08c-1.08.22-2.16.36-3.24.58a34.45,34.45,0,0,0-3.89.94Zm5.11,88a77.15,77.15,0,0,0,43.49,27.65,25,25,0,0,1,3.17-4.61h-.22a12.2,12.2,0,0,1-1.73-.36A82.58,82.58,0,0,1,325.37,398a8.81,8.81,0,0,0-.07,3.38v.07l-.07-.07a31.21,31.21,0,0,1-5.11-5.62,72.8,72.8,0,0,1-34.49-36.36A54.57,54.57,0,0,0,291,378.58Z" transform="translate(-207.79 -263.23)" fill="#db013c"/><path d="M289.51,289.73a74.59,74.59,0,0,0-12.38,41.18,75.74,75.74,0,0,0,4,24,28.91,28.91,0,0,1,3.24-7.42,69.48,69.48,0,0,1,12.38-59c-2.3.36-4.61.72-6.91,1.15l-.29.07Zm-2.3,78.55a74.46,74.46,0,0,0,36.72,32,30,30,0,0,1-6.19-8.64,70.54,70.54,0,0,1-32.18-39.67,48.24,48.24,0,0,0,1.66,16.34Zm38,32.47a75.74,75.74,0,0,0,10.66,3.17,28.21,28.21,0,0,1,1.8-2.3,6.56,6.56,0,0,1-2.74-.72,9.35,9.35,0,0,1-3-3.31c-1.87-.58-3.67-1.22-5.47-1.8A6.35,6.35,0,0,0,325.22,400.75Z" transform="translate(-207.79 -263.23)" fill="#db013c"/><path d="M293,289.08a72.16,72.16,0,0,0-13.32,41.83,72.93,72.93,0,0,0,2.81,19.94,19.82,19.82,0,0,1,3.82-6,69.13,69.13,0,0,1-1.44-14A67,67,0,0,1,300.38,288q-3.67.43-7.34,1.08Zm-7.42,70.34a72.8,72.8,0,0,0,34.49,36.36,32.25,32.25,0,0,1-3.89-8.06,67.58,67.58,0,0,1-29.66-42,42.26,42.26,0,0,0-.94,13.68ZM325.37,398a82.58,82.58,0,0,0,10.37,3.24,7,7,0,0,0-.79-.36c-3.24-1.94-3.38-5.76-5.9-6.12-1.73-.29-3.17,1.08-3.67,3.24Zm12.1,3.6h0Z" transform="translate(-207.79 -263.23)" fill="#db013c"/><path d="M296.71,288.5a69.48,69.48,0,0,0-12.38,59A18.82,18.82,0,0,1,287,344.3a35.86,35.86,0,0,0-1.44,7.63,70.54,70.54,0,0,0,32.18,39.67,25.81,25.81,0,0,1-2.23-7.49,65.05,65.05,0,0,1-7.42-5.9,3.61,3.61,0,0,1-.5.58,10.2,10.2,0,0,1-.5-1.58,64.56,64.56,0,0,1-3-89.57c-2.45.22-5,.5-7.42.86Zm29.74,107.28c1.8.58,3.6,1.22,5.47,1.8-.86-1.44-1.51-2.59-2.88-2.81a2.82,2.82,0,0,0-2.59,1Zm.94-5.26c-.07.14-.22.29-.29.43a3,3,0,0,1,.5-.36l-.22-.07ZM338.62,394c2.74,2,5,1.37,5.76.94A50.55,50.55,0,0,1,338.62,394Z" transform="translate(-207.79 -263.23)" fill="#db013c"/><path d="M300.38,288a67,67,0,0,0-15.48,42.91,69.13,69.13,0,0,0,1.44,14,4.66,4.66,0,0,0,.65-.58c-.14.5-.29.94-.43,1.44a67.58,67.58,0,0,0,29.66,42,23.77,23.77,0,0,1-.86-6.84,67.75,67.75,0,0,1-5.47-4.54c-.72.72-1.51,1.51-2.3,2.45a15.93,15.93,0,0,1-1.15-5.9,62.16,62.16,0,0,1,1.51-85.61c-2.52.22-5,.43-7.56.72Zm29,100.58a23.55,23.55,0,0,0-2.3,2.38,7.43,7.43,0,0,1,5.33-1.3l-3-1.08Zm5,1.73a6,6,0,0,1,2,1.51c4,4.75,7.34,3.46,8.14,3,.86-.72,1.66-1.44,2.52-2.23A66.71,66.71,0,0,1,334.37,390.31Z" transform="translate(-207.79 -263.23)" fill="#e0013d"/><path d="M304.13,287.64a64.56,64.56,0,0,0,3,89.57,18.56,18.56,0,0,1-.43-7.92c-1.44-1.8-2.88-3.74-4.18-5.69l-.22.22c-.14-.36-.29-.79-.43-1.22a58.67,58.67,0,0,1-9.14-31.68,59.45,59.45,0,0,1,19.22-43.85c-2.59.14-5.26.29-7.78.58Zm4,90.58a65.05,65.05,0,0,0,7.42,5.9,20.09,20.09,0,0,1,.22-6.19c-1.37-1.08-2.74-2.23-4-3.38a44.29,44.29,0,0,0-3.6,3.67Zm19.3,12.31.22.07a7,7,0,0,1,8.78,1.22,12.31,12.31,0,0,0,2.23,2.16,50.55,50.55,0,0,0,5.76.94c.07,0,.14,0,.14-.07,1.73-1.51,3.38-3.1,5-4.68a57.8,57.8,0,0,1-17.78-3.46A29.33,29.33,0,0,0,327.38,390.53Z" transform="translate(-207.79 -263.23)" fill="#e0013d"/><path d="M307.94,287.28a62.16,62.16,0,0,0-1.51,85.61,21.53,21.53,0,0,1,.94-6.84c-1.08-1.37-2-2.81-3-4.25a11.41,11.41,0,0,0-2.16,2,16,16,0,0,1-.86-7.2,56.2,56.2,0,0,1-6.19-25.7,56.81,56.81,0,0,1,20.81-44c-2.74.07-5.4.22-8.06.36Zm1.94,89.06a67.75,67.75,0,0,0,5.47,4.54,20.32,20.32,0,0,1,1.08-5.69c-.94-.79-1.87-1.51-2.74-2.3a26.22,26.22,0,0,0-3.82,3.46Zm19.51,12.24,3,1.08a5.63,5.63,0,0,1,1.94.65,66.71,66.71,0,0,0,12.67,2.3c1.73-1.58,3.38-3.31,5-5h-.14a57.27,57.27,0,0,1-17.64-2.81,8.15,8.15,0,0,1-.94.72A47.32,47.32,0,0,0,329.4,388.58Z" transform="translate(-207.79 -263.23)" fill="#e2013d"/><path d="M311.9,287.06a59.45,59.45,0,0,0-19.22,43.85,58.67,58.67,0,0,0,9.14,31.68,20.08,20.08,0,0,1,.36-10.3,54.29,54.29,0,0,1,18.07-65.38h-.5c-2.59,0-5.26,0-7.85.14Zm-9.43,76.54c1.3,1.94,2.74,3.89,4.18,5.69a25.76,25.76,0,0,1,1.8-6c-.72-.94-1.37-1.94-2-2.88a17.81,17.81,0,0,0-4,3.24Zm9.22,10.94c1.3,1.15,2.66,2.3,4,3.38a19.52,19.52,0,0,1,1.73-5.26l-1.51-1.3a24.88,24.88,0,0,0-4.25,3.17Zm20.09,12.17a57.8,57.8,0,0,0,17.78,3.46q2.59-2.48,5-5.18c-.86.07-1.73.07-2.59.07a54.61,54.61,0,0,1-15.41-2.23,17.45,17.45,0,0,1-3.17,2.74C332.78,385.92,332.28,386.35,331.78,386.71Z" transform="translate(-207.79 -263.23)" fill="#e2013d"/><path d="M316,286.92a56.81,56.81,0,0,0-20.81,44,56.2,56.2,0,0,0,6.19,25.7,26.67,26.67,0,0,1,2.09-8.06A51.74,51.74,0,0,1,324.79,287c-1.66-.07-3.38-.07-5-.07ZM304.42,361.8c.94,1.44,1.87,2.88,3,4.25a27.24,27.24,0,0,1,2.38-5.47c-.36-.5-.72-1-1-1.51a23.29,23.29,0,0,0-4.32,2.74Zm9.29,11.09c.86.79,1.8,1.51,2.74,2.3a20.66,20.66,0,0,1,2.23-4.82l-.29-.29a27.79,27.79,0,0,0-4.68,2.81Zm20.59,12a57.27,57.27,0,0,0,17.64,2.81h.14q2.59-2.7,5-5.4c-1.66.14-3.38.22-5.11.22a49.53,49.53,0,0,1-13.54-1.8A25.14,25.14,0,0,1,334.3,384.84Z" transform="translate(-207.79 -263.23)" fill="#e2013d"/><path d="M320.26,286.92a54.29,54.29,0,0,0-18.07,65.38,32.4,32.4,0,0,1,3-7.06A47.3,47.3,0,0,1,303,330.91a49.07,49.07,0,0,1,26.71-43.78c-3.17-.14-6.26-.22-9.43-.22Zm-13.82,73.44c.65.94,1.3,1.94,2,2.88a32.37,32.37,0,0,1,2.74-5c-.07-.07-.07-.22-.14-.29-1.73.86-3.24,1.58-4.61,2.45Zm9.5,11,1.51,1.3a19.05,19.05,0,0,1,1.58-2.88,24.81,24.81,0,0,0-3.1,1.58Zm20.59,11.45a54.61,54.61,0,0,0,15.41,2.23c.86,0,1.73,0,2.59-.07,1.8-1.87,3.46-3.82,5.11-5.69a45.72,45.72,0,0,1-7.7.65,50.32,50.32,0,0,1-12-1.51A30,30,0,0,1,336.53,382.82Z" transform="translate(-207.79 -263.23)" fill="#e2013d"/><path d="M324.79,287a51.74,51.74,0,0,0-21.31,61.56,39.36,39.36,0,0,1,3.38-6.26,39.87,39.87,0,0,1-.86-5.11c-3-6.41-4.25-18.36,4.46-27.29a46.56,46.56,0,0,1,24.7-22.32c-3.46-.29-6.91-.5-10.37-.58Zm-16.06,72.07c.29.5.65,1,1,1.51a23.09,23.09,0,0,1,1.87-3c-1.08.58-2,1-2.88,1.44Zm9.65,11,.29.29c.14-.22.22-.36.36-.58-.22.07-.43.22-.65.29Zm20,10.58a49.53,49.53,0,0,0,13.54,1.8c1.73,0,3.46-.07,5.11-.22,1.8-2,3.53-4.1,5.18-6a48.51,48.51,0,0,1-10.3,1.15,44.21,44.21,0,0,1-10.73-1.3A23.2,23.2,0,0,1,338.4,380.66Z" transform="translate(-207.79 -263.23)" fill="#e7013e"/><path d="M329.69,287.14A49.07,49.07,0,0,0,303,330.91a47.3,47.3,0,0,0,2.16,14.33,24.3,24.3,0,0,1,3-4.61c-4.75-4.82-9.65-24.55,7.92-35.06a44.1,44.1,0,0,1,25.27-17.28,45.52,45.52,0,0,0-5.26-.65c-2.16-.22-4.25-.36-6.41-.5ZM311,357.91c.07.07.07.22.14.29.14-.22.29-.36.43-.58l-.58.29ZM340,378.43a50.32,50.32,0,0,0,12,1.51,45.72,45.72,0,0,0,7.7-.65c1.87-2.23,3.67-4.39,5.4-6.55a44.15,44.15,0,0,1-22.9.94A19.86,19.86,0,0,1,340,378.43Z" transform="translate(-207.79 -263.23)" fill="#e7013e"/><path d="M335.16,287.57a46.56,46.56,0,0,0-24.7,22.32,31.57,31.57,0,0,1,11.16-7,41,41,0,0,1,24.84-13c-2.59-1.3-5.62-1.94-10.37-2.3a4.11,4.11,0,0,0-.94-.07ZM306,337.18a39.87,39.87,0,0,0,.86,5.11c.43-.58.86-1.15,1.3-1.66a9.83,9.83,0,0,1-2.16-3.46Zm35.21,38.88a44.21,44.21,0,0,0,10.73,1.3,48.51,48.51,0,0,0,10.3-1.15c2.09-2.52,4-5,5.76-7.27a41.52,41.52,0,0,1-25.49,2.16A11.87,11.87,0,0,1,341.21,376.06Z" transform="translate(-207.79 -263.23)" fill="#e7013e"/><path d="M341.35,288.29a44.1,44.1,0,0,0-25.27,17.28,38.93,38.93,0,0,1,9.36-4,38.36,38.36,0,0,0-4.54,6.19,38.52,38.52,0,0,1,28.87-15.48,15.87,15.87,0,0,0-8.42-4Zm.79,85.39a44.15,44.15,0,0,0,22.9-.94c2.38-3,4.46-5.83,6.41-8.42a39.17,39.17,0,0,1-29.59,4,7.6,7.6,0,0,1,.29,5.4Zm-14.26-12.46c.5,1.66,1.8,3,4.46,3A48.49,48.49,0,0,1,327.89,361.22Z" transform="translate(-207.79 -263.23)" fill="#e7013e"/><path d="M346.46,289.94a41,41,0,0,0-24.84,13,38.92,38.92,0,0,1,3.82-1.37c-5.76,6.55-7.78,12.24-7.49,17.14a36,36,0,0,1,34-23.9h.43a22.91,22.91,0,0,0-5.9-4.82Zm-4,81.14A41.52,41.52,0,0,0,368,368.93c3.31-4.32,6.12-8.28,8.28-11.38a36.16,36.16,0,0,1-48.31.36c-.72,3,.14,6.26,4.39,6.34C339.91,364.46,342.5,367.42,342.5,371.09Z" transform="translate(-207.79 -263.23)" fill="#e9013e"/><path d="M349.78,292.25a38.52,38.52,0,0,0-28.87,15.48c-3.6,6.26-3.67,11.59-1.8,16.13a33.6,33.6,0,0,1,32.83-26.5c.94,0,1.87,0,2.81.07-.58-.65-1.15-1.37-1.8-2a32.81,32.81,0,0,0-3.17-3.17Zm-21.89,69a48.49,48.49,0,0,0,4.46,3h0c5.47.14,8.35,1.73,9.5,4a39.17,39.17,0,0,0,29.59-4c2.66-3.67,4.9-6.84,6.55-9.22,2-2.88,3.17-5.33,3.31-8.06a33.43,33.43,0,0,1-29.38,17.35,38.05,38.05,0,0,1-6.48-.58c0,.07-.07.14-.14.22s-1.3-.22-3-1A34.14,34.14,0,0,1,329,355.39,7.68,7.68,0,0,0,327.89,361.22Z" transform="translate(-207.79 -263.23)" fill="#eb013e"/><path d="M352.37,294.77h-.43a36,36,0,0,0-34,23.9,17.16,17.16,0,0,0,3.17,8.93,31,31,0,0,1,30.82-27.72,31.71,31.71,0,0,1,5.26.5c-1.37-1.66-2.74-3.31-4.25-5-.22-.22-.36-.43-.58-.65ZM328,357.91a36.16,36.16,0,0,0,48.31-.36L378,355.1c3.1-4.39,4.1-7.85,2.74-12.82a31.05,31.05,0,0,1-28.8,19.58,31.48,31.48,0,0,1-5.18-.43,9,9,0,0,1-1.44,2.59c-.5.72-13.18-6-15.48-9.72A7.81,7.81,0,0,0,328,357.91Z" transform="translate(-207.79 -263.23)" fill="#eb013e"/><path d="M354.74,297.43c-.94-.07-1.87-.07-2.81-.07a33.6,33.6,0,0,0-32.83,26.5,21.81,21.81,0,0,0,4.46,6.7,28.36,28.36,0,0,1,28.37-28.08,30.26,30.26,0,0,1,7.78,1.08c-1.51-2-3.17-4.1-5-6.12Zm-25.7,58A34.14,34.14,0,0,0,342.36,363c-4-1.94-10.87-6.12-12.53-8.71a4.19,4.19,0,0,0-.79,1.08Zm16.42,8.42a38.05,38.05,0,0,0,6.48.58A33.43,33.43,0,0,0,381.31,347a14.47,14.47,0,0,0-1-6,14.65,14.65,0,0,0-.86-2.3c-.65-1.37,7.49-15.62-9.86-31.39.29.65.58,1.3.79,1.94a28.39,28.39,0,0,1-18.43,50,29.31,29.31,0,0,1-4.39-.36A13.79,13.79,0,0,1,345.46,363.82Z" transform="translate(-207.79 -263.23)" fill="#ee013e"/><path d="M357.19,300.38a31.71,31.71,0,0,0-5.26-.5,31,31,0,0,0-30.82,27.72,30.55,30.55,0,0,0,5.11,5.47c-.07-.72-.07-1.44-.07-2.16a25.81,25.81,0,0,1,25.78-25.85,25.47,25.47,0,0,1,10.51,2.23c-1.66-2.3-3.38-4.61-5.26-6.91Zm-10.44,61.06a31.48,31.48,0,0,0,5.18.43,31.05,31.05,0,0,0,28.8-19.58c-.14-.36-.29-.79-.43-1.22a14.65,14.65,0,0,0-.86-2.3c-.65-1.37,7.49-15.62-9.86-31.39a28,28,0,0,1,2.16,7,25.82,25.82,0,0,1-19.8,42.34,36.64,36.64,0,0,1-4-.29A14.35,14.35,0,0,1,346.75,361.44Z" transform="translate(-207.79 -263.23)" fill="#ee013e"/><path d="M380.3,330.91a28.33,28.33,0,0,0-9.94-21.6c1.44,3.74,1.8,6.62,1.3,9.29a23.2,23.2,0,0,1-19.73,35.5,26.33,26.33,0,0,1-4.1-.36,15.4,15.4,0,0,1-.29,5.18,29.31,29.31,0,0,0,4.39.36,28.38,28.38,0,0,0,28.37-28.37Zm-20.59-27.36a27.42,27.42,0,0,0-7.78-1.08,28.36,28.36,0,0,0-28.37,28.08,36.52,36.52,0,0,0,5.62,4.9,19.47,19.47,0,0,1-.5-4.54,23.25,23.25,0,0,1,23.26-23.26,23.54,23.54,0,0,1,13.82,4.54C363.89,309.31,361.94,306.43,359.71,303.55Z" transform="translate(-207.79 -263.23)" fill="#ee013e"/><path d="M377.71,330.91a25.62,25.62,0,0,0-6-16.56,14.18,14.18,0,0,1-.72,6.77,128.3,128.3,0,0,0-8.57-13.82,25.47,25.47,0,0,0-10.51-2.23,25.81,25.81,0,0,0-25.78,25.85c0,.72,0,1.44.07,2.16a50.28,50.28,0,0,0,6.19,4.54,20.66,20.66,0,1,1,19.51,13.9,20.27,20.27,0,0,1-4.68-.5,15.44,15.44,0,0,1,.65,5.4,36.64,36.64,0,0,0,4,.29A25.8,25.8,0,0,0,377.71,330.91Z" transform="translate(-207.79 -263.23)" fill="#f0013f"/><path d="M375.19,330.91a23.19,23.19,0,0,0-3.53-12.31,16.21,16.21,0,0,1-.65,2.52c-1.66-3-3.38-6-5.26-8.93a23.54,23.54,0,0,0-13.82-4.54,23.25,23.25,0,0,0-23.26,23.26,19.47,19.47,0,0,0,.5,4.54,71.71,71.71,0,0,0,7.13,4.54,18.37,18.37,0,0,1-2.45-9.07,18.07,18.07,0,1,1,18.07,18,18.7,18.7,0,0,1-6-1,14,14,0,0,1,1.94,5.83,26.33,26.33,0,0,0,4.1.36A23.23,23.23,0,0,0,375.19,330.91Z" transform="translate(-207.79 -263.23)" fill="#f3013f"/><path d="M372.6,330.91a20.66,20.66,0,1,0-40.18,6.7c2.66,1.73,5.18,3.1,6.91,4.1a16.08,16.08,0,0,1,7.92,9.29,20.27,20.27,0,0,0,4.68.5,20.65,20.65,0,0,0,20.66-20.59Zm-5.18,0a15.48,15.48,0,1,1-15.48-15.55A15.5,15.5,0,0,1,367.42,330.91Z" transform="translate(-207.79 -263.23)" fill="#f3013f"/><path d="M370,330.91a18.07,18.07,0,0,0-36.14,0,18.37,18.37,0,0,0,2.45,9.07q1.73,1,3,1.73a17.09,17.09,0,0,1,6.55,6.19,18.7,18.7,0,0,0,6,1,18.07,18.07,0,0,0,18.07-18Zm-5.18,0a12.89,12.89,0,1,1-12.89-13A12.92,12.92,0,0,1,364.82,330.91Z" transform="translate(-207.79 -263.23)" fill="#f3013f"/><path d="M367.42,330.91a15.48,15.48,0,1,0-15.48,15.48,15.52,15.52,0,0,0,15.48-15.48Zm-5.18,0a10.3,10.3,0,1,1-10.3-10.37A10.29,10.29,0,0,1,362.23,330.91Z" transform="translate(-207.79 -263.23)" fill="#f80140"/><path d="M364.82,330.91a12.89,12.89,0,1,0-12.89,12.89,12.94,12.94,0,0,0,12.89-12.89Zm-5.18,0a7.74,7.74,0,1,1-7.7-7.78A7.71,7.71,0,0,1,359.64,330.91Z" transform="translate(-207.79 -263.23)" fill="#f80140"/><path d="M362.23,330.91a10.3,10.3,0,1,0-10.3,10.3,10.31,10.31,0,0,0,10.3-10.3Zm-5.11,0a5.18,5.18,0,1,1-5.18-5.18A5.15,5.15,0,0,1,357.12,330.91Z" transform="translate(-207.79 -263.23)" fill="#f80140"/><path d="M359.64,330.91a7.74,7.74,0,1,0-7.7,7.7A7.73,7.73,0,0,0,359.64,330.91Z" transform="translate(-207.79 -263.23)" fill="#f80140"/><path d="M357.12,330.91a5.18,5.18,0,1,0-5.18,5.11A5.16,5.16,0,0,0,357.12,330.91Z" transform="translate(-207.79 -263.23)" fill="#f80140"/><path d="M354.53,330.91a2.59,2.59,0,1,0-2.59,2.52A2.58,2.58,0,0,0,354.53,330.91Z" transform="translate(-207.79 -263.23)" fill="#f80140"/><path d="M325.15,482.4h5.54l.94.07.86.14.94.22.79.29.86.43.72.43.72.58.65.58.58.65.58.72.43.72.36.79.36.86.22.86.14.94.07.86v20.52l-.07.94-.14.86-.22.94-.36.79-.36.79-.43.79-.58.72-.58.65-.65.58-.72.5-.72.5-.86.36-.79.36-.94.22-.86.14h-6.48v-10.3h1.15v-.07h.07v-.14l.07-.14V493.2l-.07-.22v-.07h0l-.14-.07-.43-.07-.5-.22-.14-.07Zm-15.91,0h5.54l.86.07.79.22.86.22.79.29.79.43.72.43.43.29-.5-1.94h5.62v10.08l-.36-.22-.5-.29-.36-.29v.22l.07,7.49v11.52h1.15v10.3H324v.86l-.07.5v.5l-.14.43-.14.5-.22.43-.14.43-.29.43-.29.43-.29.36-.29.36-.36.36-.36.29-.36.36-.36.29-.43.29-.43.22-.36.29-.5.22-.43.22-.43.22-.5.22-.43.14-.5.14-.5.14-.43.14-.5.07-.5.14-.5.07-.5.07h-.5l-.5.07h-2.16v-9.22h-1.3V511h1.3V492.77h-1.3Zm-14.69,8.28.14-.94.22-.86.36-.86.36-.79.43-.72.58-.72.58-.65.65-.58.72-.58.72-.43.86-.43.79-.29.94-.22.86-.14.94-.07h5.54v10.37h-1l-.07.07h-.07v.07H308v.14l-.07.14v17.35l.07.14v.14h.07v.07h.14l.14.07h.86v10.22h-6.48l-.86-.14-.94-.22-.79-.36-.86-.36-.72-.5-.72-.5-.65-.58-.58-.65-.58-.72-.43-.79-.36-.79-.36-.79-.22-.94-.14-.86V490.68Z" transform="translate(-207.79 -263.23)" fill="#fff" fill-rule="evenodd"/><path d="M309.24,483.26h5.47l.79.07.79.14.72.22.72.29.72.36.72.43.65.43.58.58.58.58.58.65.43.72.36.72.36.86.22.79.14.94.07.86v19.87h3.24l.22-.07.14-.07.22-.14.14-.22.07-.22.07-.14V492.84l-.07-.22-.07-.22-.14-.07-.14-.14-.29-.14-.43-.14-.43-.14-.43-.22-.43-.29-.36-.29-.43-.36-.36-.36-.36-.43-.29-.5-.36-.5-.29-.5-.29-.58-.22-.58-.29-.65-.22-.72-.22-.72-.5-1.8H330.7l.86.07.79.07.79.22.79.29.72.36.72.43.58.5.65.5.5.58.5.65.43.72.36.72.22.79.22.79.14.79.07.86v20.45l-.07.79-.14.86-.22.79-.22.79L338,516l-.43.65-.5.65-.5.65-.65.5-.65.5-.65.36-.72.36-.79.29-.79.22-.79.14-.86.07h-7.56v2.09l-.07.43-.07.36-.14.43-.14.36-.22.43-.22.36-.22.36-.29.36-.29.29-.29.29-.29.36-.36.29-.36.22-.36.29-.43.22-.36.29-.43.22-.43.14-.43.22-.43.22-.43.14-.43.14-.5.14-.43.07-.5.14-.43.07-.5.07-.43.07-.5.07H311.4v-9.14h-2.16v-8.64h2.16V491.9h-2.16Zm-13.9,28.8V491.62l.07-.86.14-.79.22-.79.29-.79.29-.72.43-.72.5-.65.5-.58.65-.5.65-.5.65-.43.72-.36.79-.29.79-.22.86-.07.79-.07h5.54v8.64h-.86l-.29.07-.22.07-.22.07-.22.14-.14.22-.07.14-.07.22v18.07l.07.22.07.14.14.22.22.14.22.07.22.07h1.15v8.64H303.7l-.79-.07-.86-.14-.79-.22-.79-.29-.72-.29-.65-.43-.65-.5-.65-.5-.5-.65-.5-.65-.43-.65-.29-.72-.29-.79-.22-.79-.14-.86Z" transform="translate(-207.79 -263.23)" fill="#fff" fill-rule="evenodd"/><path d="M312.19,527h6.55a13.68,13.68,0,0,1-6.55,1.73Z" transform="translate(-207.79 -263.23)" fill="#aa0136"/><path d="M316.94,527.83h-4.75V526.1H320A10.76,10.76,0,0,1,316.94,527.83Z" transform="translate(-207.79 -263.23)" fill="#aa0136"/><path d="M318.74,527h-6.55v-1.73h8.71A8.77,8.77,0,0,1,318.74,527Z" transform="translate(-207.79 -263.23)" fill="#aa0136"/><path d="M320,526.1h-7.85v-1.73h9.36A5.69,5.69,0,0,1,320,526.1Z" transform="translate(-207.79 -263.23)" fill="#ac0136"/><path d="M320.9,525.24h-8.71v-1.73H322A4.38,4.38,0,0,1,320.9,525.24Z" transform="translate(-207.79 -263.23)" fill="#ae0136"/><path d="M321.55,524.38h-9.36v-1.73h10A3.6,3.6,0,0,1,321.55,524.38Z" transform="translate(-207.79 -263.23)" fill="#b00136"/><path d="M322,523.51h-9.79v-1.73h10.08v.29A3.22,3.22,0,0,1,322,523.51Z" transform="translate(-207.79 -263.23)" fill="#b00136"/><path d="M322.2,522.65h-10v-1.73h10.08v1.15A1.79,1.79,0,0,1,322.2,522.65Z" transform="translate(-207.79 -263.23)" fill="#b20137"/><rect x="104.4" y="256.82" width="10.08" height="1.73" fill="#b40137"/><path d="M322.27,520.92H312.19v-1.37h-8.5a6.69,6.69,0,0,1-2.09-.36h31.18a6.69,6.69,0,0,1-2.09.36h-8.42Z" transform="translate(-207.79 -263.23)" fill="#b40137"/><path d="M322.27,520.06H312.19v-.5h-8.5a7,7,0,0,1-4-1.22h35a7.37,7.37,0,0,1-4,1.22h-8.42Z" transform="translate(-207.79 -263.23)" fill="#b60137"/><path d="M332.78,519.19H301.61a7.07,7.07,0,0,1-3-1.73h37.22A7.07,7.07,0,0,1,332.78,519.19Z" transform="translate(-207.79 -263.23)" fill="#b80138"/><path d="M334.73,518.33h-35a8.48,8.48,0,0,1-1.94-1.66H336.6A8.14,8.14,0,0,1,334.73,518.33Z" transform="translate(-207.79 -263.23)" fill="#b80138"/><path d="M335.81,517.46H298.58a7.62,7.62,0,0,1-1.37-1.66h40A7.62,7.62,0,0,1,335.81,517.46Z" transform="translate(-207.79 -263.23)" fill="#bc0138"/><path d="M336.6,516.67H297.79c-.36-.58-.72-1.15-1-1.73h40.82C337.32,515.52,337,516.1,336.6,516.67Z" transform="translate(-207.79 -263.23)" fill="#bc0138"/><path d="M337.18,515.81h-40a8.81,8.81,0,0,1-.72-1.73h41.4A8.81,8.81,0,0,1,337.18,515.81Z" transform="translate(-207.79 -263.23)" fill="#bc0138"/><path d="M337.61,514.94H296.78a15.64,15.64,0,0,1-.5-1.73h41.83A15.64,15.64,0,0,1,337.61,514.94Z" transform="translate(-207.79 -263.23)" fill="#bf0138"/><path d="M337.9,514.08H296.5a14.42,14.42,0,0,1-.29-1.73h11a1.74,1.74,0,0,0,1.08.29h4v-.29h10v.29h3.89a1.65,1.65,0,0,0,1-.29h11A14.42,14.42,0,0,1,337.9,514.08Z" transform="translate(-207.79 -263.23)" fill="#c10139"/><path d="M338.11,513.22H296.28c0-.43-.07-.79-.07-1.15v-.58h10.22a2.08,2.08,0,0,0,1.87,1.15h4v-1.15h10v1.15h3.89a2.1,2.1,0,0,0,1.8-1.15h10.22v.58C338.18,512.42,338.11,512.78,338.11,513.22Z" transform="translate(-207.79 -263.23)" fill="#c30139"/><path d="M338.18,512.35h-11a2,2,0,0,0,.94-1.73h10.08v1.73Zm-15.91,0h-10v-1.73h10v1.73Zm-15,0h-11v-1.73h10.08A2,2,0,0,0,307.22,512.35Z" transform="translate(-207.79 -263.23)" fill="#c30139"/><path d="M338.18,511.49H328a3.61,3.61,0,0,0,.14-.86v-.86h10.08v1.73Zm-15.91,0h-10v-1.73h10v1.73Zm-15.84,0H296.21v-1.73h10.08v.86A3.61,3.61,0,0,0,306.43,511.49Z" transform="translate(-207.79 -263.23)" fill="#c5013a"/><path d="M338.18,510.62H328.1V508.9h10.08v1.73Zm-15.91,0h-10V508.9h10v1.73Zm-16,0H296.21V508.9h10.08Z" transform="translate(-207.79 -263.23)" fill="#c7013a"/><path d="M338.18,509.76H328.1V508h10.08v1.73Zm-15.91,0h-10V508h10v1.73Zm-16,0H296.21V508h10.08Z" transform="translate(-207.79 -263.23)" fill="#c7013a"/><path d="M338.18,508.9H328.1v-1.73h10.08v1.73Zm-15.91,0h-10v-1.73h10v1.73Zm-16,0H296.21v-1.73h10.08Z" transform="translate(-207.79 -263.23)" fill="#cc013a"/><path d="M338.18,508H328.1V506.3h10.08V508Zm-15.91,0h-10V506.3h10V508Zm-16,0H296.21V506.3h10.08Z" transform="translate(-207.79 -263.23)" fill="#cc013a"/><path d="M338.18,507.17H328.1v-1.73h10.08v1.73Zm-15.91,0h-10v-1.73h10v1.73Zm-16,0H296.21v-1.73h10.08Z" transform="translate(-207.79 -263.23)" fill="#cc013a"/><path d="M338.18,506.3H328.1v-1.73h10.08v1.73Zm-15.91,0h-10v-1.73h10v1.73Zm-16,0H296.21v-1.73h10.08Z" transform="translate(-207.79 -263.23)" fill="#d0013b"/><path d="M338.18,505.44H328.1v-1.73h10.08v1.73Zm-15.91,0h-10v-1.73h10v1.73Zm-16,0H296.21v-1.73h10.08Z" transform="translate(-207.79 -263.23)" fill="#d2013b"/><path d="M338.18,504.58H328.1v-1.73h10.08v1.73Zm-15.91,0h-10v-1.73h10v1.73Zm-16,0H296.21v-1.73h10.08Z" transform="translate(-207.79 -263.23)" fill="#d2013b"/><path d="M338.18,503.71H328.1V502h10.08v1.73Zm-15.91,0h-10V502h10v1.73Zm-16,0H296.21V502h10.08Z" transform="translate(-207.79 -263.23)" fill="#d2013b"/><path d="M338.18,502.85H328.1v-1.66h10.08v1.66Zm-15.91,0h-10v-1.66h10v1.66Zm-16,0H296.21v-1.66h10.08Z" transform="translate(-207.79 -263.23)" fill="#d7013c"/><path d="M338.18,502H328.1v-1.66h10.08V502Zm-15.91,0h-10v-1.66h10V502Zm-16,0H296.21v-1.66h10.08Z" transform="translate(-207.79 -263.23)" fill="#d7013c"/><path d="M338.18,501.19H328.1v-1.73h10.08v1.73Zm-15.91,0h-10v-1.73h10v1.73Zm-16,0H296.21v-1.73h10.08Z" transform="translate(-207.79 -263.23)" fill="#db013c"/><path d="M338.18,500.33H328.1V498.6h10.08v1.73Zm-15.91,0h-10V498.6h10v1.73Zm-16,0H296.21V498.6h10.08Z" transform="translate(-207.79 -263.23)" fill="#db013c"/><path d="M338.18,499.46H328.1v-1.73h10.08v1.73Zm-15.91,0h-10v-1.73h10v1.73Zm-16,0H296.21v-1.73h10.08Z" transform="translate(-207.79 -263.23)" fill="#db013c"/><path d="M338.18,498.6H328.1v-1.73h10.08v1.73Zm-15.91,0h-10v-1.73h10v1.73Zm-16,0H296.21v-1.73h10.08Z" transform="translate(-207.79 -263.23)" fill="#dd013c"/><path d="M338.18,497.74H328.1V496h10.08v1.73Zm-15.91,0h-10V496h10v1.73Zm-16,0H296.21V496h10.08Z" transform="translate(-207.79 -263.23)" fill="#e0013d"/><path d="M338.18,496.87H328.1v-1.73h10.08v1.73Zm-15.91,0h-10v-1.73h10v1.73Zm-16,0H296.21v-1.73h10.08Z" transform="translate(-207.79 -263.23)" fill="#e2013d"/><path d="M338.18,496H328.1v-1.73h10.08V496Zm-15.91,0h-10v-1.73h10V496Zm-16,0H296.21v-1.73h10.08Z" transform="translate(-207.79 -263.23)" fill="#e2013d"/><path d="M338.18,495.14H328.1v-1.73h10.08v1.73Zm-15.91,0h-10v-1.73h10v1.73Zm-16,0H296.21v-1.73h10.08Z" transform="translate(-207.79 -263.23)" fill="#e2013d"/><path d="M338.18,494.28H328.1v-.79a3.8,3.8,0,0,0-.07-.94h10.15v1.73Zm-15.91,0h-10v-1.73h10v1.73Zm-16,0H296.21v-1.73h10.15a1.23,1.23,0,0,0-.07.5Z" transform="translate(-207.79 -263.23)" fill="#e7013e"/><path d="M338.18,493.42H328.1a2.26,2.26,0,0,0-.5-1.73h10.58v1.73Zm-15.91,0h-10v-1.73h10v1.73Zm-16,0H296.21v-1.73h10.66a2,2,0,0,0-.58,1.37Z" transform="translate(-207.79 -263.23)" fill="#e7013e"/><path d="M338.18,492.55H328a1.86,1.86,0,0,0-1.66-1.44,2.56,2.56,0,0,1-.65-.29h12.38a3,3,0,0,1,.07.79v.94Zm-15.91,0h-10v-1.44h-4a2,2,0,0,0-1.94,1.44H296.21v-.94a3,3,0,0,1,.07-.79H322.2c0,.36.07.72.07,1.08Z" transform="translate(-207.79 -263.23)" fill="#e7013e"/><path d="M338.18,491.69H327.6a2.77,2.77,0,0,0-1.22-.58,4.51,4.51,0,0,1-1.8-1.15H338a6.54,6.54,0,0,1,.22,1.66v.07Zm-15.91,0h-10v-.58h-4a2,2,0,0,0-1.44.58H296.21v-.07a6.54,6.54,0,0,1,.22-1.66H322A7.23,7.23,0,0,1,322.27,491.69Z" transform="translate(-207.79 -263.23)" fill="#eb013e"/><path d="M338.11,490.82H325.73a6,6,0,0,1-1.87-1.73h13.9a7.39,7.39,0,0,1,.36,1.73Zm-15.91,0H296.28a7.39,7.39,0,0,1,.36-1.73H321.7A15.64,15.64,0,0,1,322.2,490.82Z" transform="translate(-207.79 -263.23)" fill="#eb013e"/><path d="M338,490H324.58a9,9,0,0,1-1.3-1.73h14.11A8.12,8.12,0,0,1,338,490Zm-16,0H296.42a16.2,16.2,0,0,1,.58-1.73h24.26A5.89,5.89,0,0,1,322,490Z" transform="translate(-207.79 -263.23)" fill="#ee013e"/><path d="M337.75,489.1h-13.9a9.91,9.91,0,0,1-1-1.73h14a9.68,9.68,0,0,1,.86,1.73Zm-16.06,0H296.64a9.68,9.68,0,0,1,.86-1.73h23.26A10.18,10.18,0,0,1,321.7,489.1Z" transform="translate(-207.79 -263.23)" fill="#ee013e"/><path d="M337.39,488.23H323.28a9.61,9.61,0,0,1-.79-1.73h13.68a12.73,12.73,0,0,1,1.22,1.73Zm-16.13,0H297a12.73,12.73,0,0,1,1.22-1.73H320A9.85,9.85,0,0,1,321.26,488.23Z" transform="translate(-207.79 -263.23)" fill="#f0013f"/><path d="M336.89,487.37h-14c-.22-.5-.43-1.08-.65-1.66h13a7.23,7.23,0,0,1,1.66,1.66Zm-16.13,0H297.5a7.23,7.23,0,0,1,1.66-1.66H319A7.82,7.82,0,0,1,320.76,487.37Z" transform="translate(-207.79 -263.23)" fill="#f3013f"/><path d="M336.17,486.5H322.49a11.19,11.19,0,0,1-.58-1.66h11.88a6.16,6.16,0,0,1,2.38,1.66Zm-16.2,0H298.22a6.16,6.16,0,0,1,2.38-1.66h16.92A7,7,0,0,1,320,486.5Z" transform="translate(-207.79 -263.23)" fill="#f50140"/><path d="M335.23,485.71h-13a5.72,5.72,0,0,1-.43-1.58h8.93a7.39,7.39,0,0,1,4.54,1.58Zm-16.27,0h-19.8a7.39,7.39,0,0,1,4.54-1.58h11A7.37,7.37,0,0,1,319,485.71Z" transform="translate(-207.79 -263.23)" fill="#f80140"/><path d="M333.79,484.85H321.91a3.17,3.17,0,0,1-.14-.72h8.93a6.53,6.53,0,0,1,3.1.72Zm-16.27,0H300.6a6.53,6.53,0,0,1,3.1-.72h11A6.77,6.77,0,0,1,317.52,484.85Z" transform="translate(-207.79 -263.23)" fill="#f80140"/><path d="M371.66,482.4h5.54l.86.07.94.14.86.22.86.29.79.43.79.43.72.58.65.58.58.65.5.72.5.72.36.79.29.86.29.86.07.94.07.86v20.52l-.07.94-.07.86-.29.94-.29.79-.36.79-.5.79-.5.72-.58.65-.65.58-.72.5-.79.5-.79.36-.86.36-.86.22-.94.14h-6.41v-10.3h1.08l.07-.07h0l.07-.07V492.91h-.07l-.07-.07-.43-.07-.5-.22-.14-.07Zm-15.91,0h5.54l.79.07.86.22.86.22.79.29.79.43.72.43.43.29-.5-1.94h5.62v10.08l-.36-.22-.5-.29-.36-.29v19.22h1.22v10.3h-1.22v1.37l-.07.5-.07.43-.14.5-.22.43-.22.43-.22.43-.29.43-.29.36-.29.36-.36.36-.36.29-.36.36-.43.29-.36.29-.43.22-.43.29-.43.22L365,529l-.5.22-.43.22-.5.14-.43.14-.5.14-.5.14-.5.07-.43.14-.5.07-.5.07h-.5l-.5.07H357v-9.22h-1.22V511H357V492.77h-1.3ZM341,490.68l.14-.94.22-.86.29-.86.43-.79.43-.72.5-.72.65-.65.65-.58L345,484l.72-.43.79-.43.86-.29.86-.22.94-.14.86-.07h5.69v10.37h-1l-.07.07h-.07l-.07.07h0l-.07.07v17.78l.07.07h0l.07.07h.14l.14.07h.86v10.22H349.2l-.94-.14-.86-.22-.86-.36-.79-.36-.72-.5-.72-.5-.65-.58-.65-.65-.5-.72-.43-.79-.43-.79-.29-.79-.22-.94L341,513l-.07-.94V491.54Z" transform="translate(-207.79 -263.23)" fill="#fff" fill-rule="evenodd"/><path d="M355.75,483.26h5.47l.79.07.72.14.79.22.72.29.72.36.65.43.72.43.58.58.58.58.5.65.43.72.43.72.29.86.29.79.14.94v.86l.07,7.49v12.38h3.24l.14-.07.22-.07.14-.14.14-.22.14-.22.07-.14V493.13l-.07-.29v-.22l-.14-.22-.07-.07-.22-.14L373,492l-.43-.14-.5-.14-.36-.22-.43-.29-.43-.29-.36-.36-.36-.36-.36-.43-.36-.5-.29-.5-.29-.5-.29-.58-.29-.58-.22-.65-.29-.72-.22-.72-.43-1.8h10.08l.79.07.86.07.79.22.72.29.79.36.65.43.65.5.58.5.58.58.43.65.43.72.36.72.29.79.22.79.14.79v22.1l-.14.86-.22.79-.29.79-.36.72-.43.65-.43.65L383,518l-.58.5-.65.5-.65.36-.79.36-.72.29-.79.22-.86.14-.79.07h-7.56v1.66l-.07.43-.07.43-.07.36-.14.43-.14.36-.14.43-.22.36-.29.36-.22.36-.29.29-.29.29-.36.36-.36.29-.36.22-.36.29-.36.22-.43.29-.36.22-.43.14-.43.22-.43.22-.43.14-.5.14-.43.14-.5.07-.43.14-.5.07-.43.07-.5.07-.43.07h-1.8v-9.14h-2.09v-8.64h2.09V491.9h-2.09Zm-14,28.8V491.62l.07-.86.07-.79.22-.79.29-.79.36-.72.43-.72.5-.65.5-.58.58-.5.65-.5.72-.43.72-.36.79-.29.79-.22.79-.07.86-.07h5.62v8.64h-.94l-.29.07-.22.07-.22.07-.14.14-.14.22-.14.14v.22l-.07.29v17.5l.07.29v.22l.14.14.14.22.14.14.22.07.22.07h1.22v8.64h-5.62l-.86-.07-.79-.14-.79-.22-.79-.29-.72-.29-.72-.43-.65-.5-.58-.5-.5-.65-.5-.65-.43-.65-.36-.72-.29-.79-.22-.79-.07-.86Z" transform="translate(-207.79 -263.23)" fill="#fff" fill-rule="evenodd"/><path d="M358.7,527h6.55a13.9,13.9,0,0,1-6.55,1.73Z" transform="translate(-207.79 -263.23)" fill="#aa0136"/><path d="M363.46,527.83H358.7V526.1h7.78A10.36,10.36,0,0,1,363.46,527.83Z" transform="translate(-207.79 -263.23)" fill="#aa0136"/><path d="M365.26,527H358.7v-1.73h8.71A8.77,8.77,0,0,1,365.26,527Z" transform="translate(-207.79 -263.23)" fill="#aa0136"/><path d="M366.48,526.1H358.7v-1.73h9.36A6,6,0,0,1,366.48,526.1Z" transform="translate(-207.79 -263.23)" fill="#ac0136"/><path d="M367.42,525.24H358.7v-1.73h9.79A4.38,4.38,0,0,1,367.42,525.24Z" transform="translate(-207.79 -263.23)" fill="#ae0136"/><path d="M368.06,524.38H358.7v-1.73h10A3.6,3.6,0,0,1,368.06,524.38Z" transform="translate(-207.79 -263.23)" fill="#b00136"/><path d="M368.5,523.51H358.7v-1.73h10.08v.29A4.66,4.66,0,0,1,368.5,523.51Z" transform="translate(-207.79 -263.23)" fill="#b00136"/><path d="M368.71,522.65h-10v-1.73h10.08v1.15C368.78,522.22,368.71,522.43,368.71,522.65Z" transform="translate(-207.79 -263.23)" fill="#b20137"/><rect x="150.91" y="256.82" width="10.08" height="1.73" fill="#b40137"/><path d="M368.78,520.92H358.7v-1.37h-8.57a7.54,7.54,0,0,1-2.16-.36H379.3a6.79,6.79,0,0,1-2.16.36h-8.35Z" transform="translate(-207.79 -263.23)" fill="#b40137"/><path d="M368.78,520.06H358.7v-.5h-8.57a7,7,0,0,1-4-1.22h35.06a7,7,0,0,1-4,1.22h-8.35Z" transform="translate(-207.79 -263.23)" fill="#b60137"/><path d="M379.3,519.19H348a6.83,6.83,0,0,1-3-1.73h37.22A6.44,6.44,0,0,1,379.3,519.19Z" transform="translate(-207.79 -263.23)" fill="#b80138"/><path d="M381.17,518.33H346.1a6.89,6.89,0,0,1-1.87-1.66H383A6.89,6.89,0,0,1,381.17,518.33Z" transform="translate(-207.79 -263.23)" fill="#b80138"/><path d="M382.25,517.46H345a6,6,0,0,1-1.37-1.66h40A6,6,0,0,1,382.25,517.46Z" transform="translate(-207.79 -263.23)" fill="#bc0138"/><path d="M383,516.67H344.23a7.17,7.17,0,0,1-1-1.73H384A7.17,7.17,0,0,1,383,516.67Z" transform="translate(-207.79 -263.23)" fill="#bc0138"/><path d="M383.62,515.81h-40a5.89,5.89,0,0,1-.72-1.73h41.47A9.22,9.22,0,0,1,383.62,515.81Z" transform="translate(-207.79 -263.23)" fill="#bc0138"/><path d="M384,514.94H343.22a7.84,7.84,0,0,1-.5-1.73h41.83A5.24,5.24,0,0,1,384,514.94Z" transform="translate(-207.79 -263.23)" fill="#bf0138"/><path d="M384.41,514.08H342.94a7.23,7.23,0,0,1-.29-1.73h11a2.11,2.11,0,0,0,1.15.29h3.89v-.29h10.08v.29h3.89a1.65,1.65,0,0,0,1-.29h10.94A7.1,7.1,0,0,1,384.41,514.08Z" transform="translate(-207.79 -263.23)" fill="#c10139"/><path d="M384.55,513.22H342.72a6.59,6.59,0,0,1-.07-1.15v-.58h10.3a1.93,1.93,0,0,0,1.87,1.15h3.89v-1.15h10.08v1.15h3.89a1.91,1.91,0,0,0,1.73-1.15h10.22v.58A6.59,6.59,0,0,1,384.55,513.22Z" transform="translate(-207.79 -263.23)" fill="#c30139"/><path d="M384.62,512.35H373.68a2,2,0,0,0,.94-1.73h10v1.73Zm-15.84,0H358.7v-1.73h10.08v1.73Zm-15.12,0h-11v-1.73h10.08A2,2,0,0,0,353.66,512.35Z" transform="translate(-207.79 -263.23)" fill="#c30139"/><path d="M384.62,511.49H374.4a1.92,1.92,0,0,0,.22-.86v-.86h10v1.73Zm-15.84,0H358.7v-1.73h10.08v1.73Zm-15.84,0h-10.3v-1.73h10.08v.86A1.92,1.92,0,0,0,352.94,511.49Z" transform="translate(-207.79 -263.23)" fill="#c5013a"/><path d="M384.62,510.62h-10V508.9h10v1.73Zm-15.84,0H358.7V508.9h10.08v1.73Zm-16.06,0H342.65V508.9h10.08Z" transform="translate(-207.79 -263.23)" fill="#c7013a"/><path d="M384.62,509.76h-10V508h10v1.73Zm-15.84,0H358.7V508h10.08v1.73Zm-16.06,0H342.65V508h10.08Z" transform="translate(-207.79 -263.23)" fill="#c7013a"/><path d="M384.62,508.9h-10v-1.73h10v1.73Zm-15.84,0H358.7v-1.73h10.08v1.73Zm-16.06,0H342.65v-1.73h10.08Z" transform="translate(-207.79 -263.23)" fill="#cc013a"/><path d="M384.62,508h-10V506.3h10V508Zm-15.84,0H358.7V506.3h10.08V508Zm-16.06,0H342.65V506.3h10.08Z" transform="translate(-207.79 -263.23)" fill="#cc013a"/><path d="M384.62,507.17h-10v-1.73h10v1.73Zm-15.84,0H358.7v-1.73h10.08v1.73Zm-16.06,0H342.65v-1.73h10.08Z" transform="translate(-207.79 -263.23)" fill="#cc013a"/><path d="M384.62,506.3h-10v-1.73h10v1.73Zm-15.84,0H358.7v-1.73h10.08v1.73Zm-16.06,0H342.65v-1.73h10.08Z" transform="translate(-207.79 -263.23)" fill="#d0013b"/><path d="M384.62,505.44h-10v-1.73h10v1.73Zm-15.84,0H358.7v-1.73h10.08v1.73Zm-16.06,0H342.65v-1.73h10.08Z" transform="translate(-207.79 -263.23)" fill="#d2013b"/><path d="M384.62,504.58h-10v-1.73h10v1.73Zm-15.84,0H358.7v-1.73h10.08v1.73Zm-16.06,0H342.65v-1.73h10.08Z" transform="translate(-207.79 -263.23)" fill="#d2013b"/><path d="M384.62,503.71h-10V502h10v1.73Zm-15.84,0H358.7V502h10.08v1.73Zm-16.06,0H342.65V502h10.08Z" transform="translate(-207.79 -263.23)" fill="#d2013b"/><path d="M384.62,502.85h-10v-1.66h10v1.66Zm-15.84,0H358.7v-1.66h10.08v1.66Zm-16.06,0H342.65v-1.66h10.08Z" transform="translate(-207.79 -263.23)" fill="#d7013c"/><path d="M384.62,502h-10v-1.66h10V502Zm-15.84,0H358.7v-1.66h10.08V502Zm-16.06,0H342.65v-1.66h10.08Z" transform="translate(-207.79 -263.23)" fill="#d7013c"/><path d="M384.62,501.19h-10v-1.73h10v1.73Zm-15.84,0H358.7v-1.73h10.08v1.73Zm-16.06,0H342.65v-1.73h10.08Z" transform="translate(-207.79 -263.23)" fill="#db013c"/><path d="M384.62,500.33h-10V498.6h10v1.73Zm-15.84,0H358.7V498.6h10.08v1.73Zm-16.06,0H342.65V498.6h10.08Z" transform="translate(-207.79 -263.23)" fill="#db013c"/><path d="M384.62,499.46h-10v-1.73h10v1.73Zm-15.84,0H358.7v-1.73h10.08v1.73Zm-16.06,0H342.65v-1.73h10.08Z" transform="translate(-207.79 -263.23)" fill="#db013c"/><path d="M384.62,498.6h-10v-1.73h10v1.73Zm-15.84,0H358.7v-1.73h10.08v1.73Zm-16.06,0H342.65v-1.73h10.08Z" transform="translate(-207.79 -263.23)" fill="#dd013c"/><path d="M384.62,497.74h-10V496h10v1.73Zm-15.84,0H358.7V496h10.08v1.73Zm-16.06,0H342.65V496h10.08Z" transform="translate(-207.79 -263.23)" fill="#e0013d"/><path d="M384.62,496.87h-10v-1.73h10v1.73Zm-15.84,0H358.7v-1.73h10.08v1.73Zm-16.06,0H342.65v-1.73h10.08Z" transform="translate(-207.79 -263.23)" fill="#e2013d"/><path d="M384.62,496h-10v-1.73h10V496Zm-15.84,0H358.7v-1.73h10.08V496Zm-16.06,0H342.65v-1.73h10.08Z" transform="translate(-207.79 -263.23)" fill="#e2013d"/><path d="M384.62,495.14h-10v-1.73h10v1.73Zm-15.84,0H358.7v-1.73h10l.07,1.73Zm-16.06,0H342.65v-1.73h10.08Z" transform="translate(-207.79 -263.23)" fill="#e2013d"/><path d="M384.62,494.28h-10v-.79a3.8,3.8,0,0,0-.07-.94h10.08v1.73Zm-15.84,0H358.7v-1.73h10l.07,1.73Zm-16.06,0H342.65v-1.73H352.8c0,.14-.07.36-.07.5Z" transform="translate(-207.79 -263.23)" fill="#e7013e"/><path d="M384.62,493.42h-10a2.3,2.3,0,0,0-.58-1.73h10.58v1.73Zm-15.91,0h-10v-1.73h10v1.73Zm-16,0H342.65v-1.73H353.3a2,2,0,0,0-.58,1.37Z" transform="translate(-207.79 -263.23)" fill="#e7013e"/><path d="M384.62,492.55H374.54a2,2,0,0,0-1.73-1.44,2.56,2.56,0,0,1-.65-.29h12.46v1.73Zm-15.91,0h-10v-1.44h-3.89a2.1,2.1,0,0,0-2,1.44H342.65v-1.73h26a5.45,5.45,0,0,1,.07,1.08Z" transform="translate(-207.79 -263.23)" fill="#e7013e"/><path d="M384.62,491.69H374a2.43,2.43,0,0,0-1.22-.58,4.29,4.29,0,0,1-1.73-1.15h13.39a6.45,6.45,0,0,1,.14,1.66v.07Zm-15.91,0h-10v-.58h-3.89a2.19,2.19,0,0,0-1.51.58H342.65v-.07a12.85,12.85,0,0,1,.14-1.66h25.7A7.1,7.1,0,0,1,368.71,491.69Z" transform="translate(-207.79 -263.23)" fill="#eb013e"/><path d="M384.62,490.82H372.17a5.78,5.78,0,0,1-1.8-1.73h13.82a7.59,7.59,0,0,1,.43,1.73Zm-16,0h-26a7.59,7.59,0,0,1,.43-1.73h25.13A7.59,7.59,0,0,1,368.64,490.82Z" transform="translate(-207.79 -263.23)" fill="#eb013e"/><path d="M384.48,490H371.09a5.44,5.44,0,0,1-1.3-1.73h14a8.44,8.44,0,0,1,.65,1.73Zm-16,0h-25.7a8.44,8.44,0,0,1,.65-1.73h24.34A8.81,8.81,0,0,1,368.5,490Z" transform="translate(-207.79 -263.23)" fill="#ee013e"/><path d="M384.19,489.1H370.37a9.91,9.91,0,0,1-1-1.73h14a9.68,9.68,0,0,1,.86,1.73Zm-16,0H343.08a9.68,9.68,0,0,1,.86-1.73H367.2A10.74,10.74,0,0,1,368.21,489.1Z" transform="translate(-207.79 -263.23)" fill="#ee013e"/><path d="M383.83,488.23h-14a9.61,9.61,0,0,1-.79-1.73h13.68a12,12,0,0,1,1.15,1.73Zm-16.06,0H343.44a8.5,8.5,0,0,1,1.22-1.73h21.82A9.85,9.85,0,0,1,367.78,488.23Z" transform="translate(-207.79 -263.23)" fill="#f0013f"/><path d="M383.33,487.37h-14a11.49,11.49,0,0,1-.72-1.66h13.1a7,7,0,0,1,1.58,1.66Zm-16.13,0H343.94a6,6,0,0,1,1.66-1.66h19.87A7.52,7.52,0,0,1,367.2,487.37Z" transform="translate(-207.79 -263.23)" fill="#f3013f"/><path d="M382.68,486.5H369a11.19,11.19,0,0,1-.58-1.66H380.3a7.47,7.47,0,0,1,2.38,1.66Zm-16.2,0H344.66a6.49,6.49,0,0,1,2.3-1.66H364A7.75,7.75,0,0,1,366.48,486.5Z" transform="translate(-207.79 -263.23)" fill="#f50140"/><path d="M381.74,485.71h-13.1c-.14-.5-.29-1-.43-1.58h8.93a7.44,7.44,0,0,1,4.61,1.58Zm-16.27,0H345.6a7.09,7.09,0,0,1,4.54-1.58h11.09A7.56,7.56,0,0,1,365.47,485.71Z" transform="translate(-207.79 -263.23)" fill="#f80140"/><path d="M380.3,484.85H368.42c-.07-.29-.14-.5-.22-.72h8.93a6.62,6.62,0,0,1,3.17.72Zm-16.27,0H347a6.82,6.82,0,0,1,3.17-.72h11.09A6.77,6.77,0,0,1,364,484.85Z" transform="translate(-207.79 -263.23)" fill="#f80140"/></svg>