<svg xmlns="http://www.w3.org/2000/svg" xmlns:xlink="http://www.w3.org/1999/xlink" width="1080" zoomAndPan="magnify" viewBox="0 0 810 809.999993" height="1080" preserveAspectRatio="xMidYMid meet" version="1.0"><defs><clipPath id="6eaacb0c68"><path d="M 538 732 L 612.773438 732 L 612.773438 747 L 538 747 Z M 538 732 " clip-rule="nonzero"/></clipPath><clipPath id="d2133d05b9"><path d="M 197.273438 732 L 272 732 L 272 747 L 197.273438 747 Z M 197.273438 732 " clip-rule="nonzero"/></clipPath></defs><path fill="#b59c56" d="M 399.289062 0.726562 L 399.289062 16.546875 L 383.46875 16.546875 L 383.46875 27.988281 L 399.289062 27.988281 L 399.289062 43.835938 L 410.734375 43.835938 L 410.734375 27.988281 L 426.582031 27.988281 L 426.582031 16.546875 L 410.734375 16.546875 L 410.734375 0.726562 Z M 399.289062 0.726562 " fill-opacity="1" fill-rule="nonzero"/><path fill="#b59c56" d="M 333.914062 143.34375 L 476.132812 143.34375 L 476.132812 154.785156 L 333.914062 154.785156 Z M 333.914062 143.34375 " fill-opacity="1" fill-rule="nonzero"/><path fill="#b59c56" d="M 333.914062 120.355469 L 476.132812 120.355469 L 476.132812 131.796875 L 333.914062 131.796875 Z M 333.914062 120.355469 " fill-opacity="1" fill-rule="nonzero"/><path fill="#b59c56" d="M 399.289062 55.25 L 410.734375 55.25 L 410.734375 108.859375 L 399.289062 108.859375 Z M 399.289062 55.25 " fill-opacity="1" fill-rule="nonzero"/><path fill="#b59c56" d="M 340.117188 104.976562 C 335.816406 96.949219 331.386719 88.636719 331.386719 82.226562 C 331.429688 81.605469 331.507812 80.988281 331.617188 80.378906 C 331.730469 79.765625 331.875 79.164062 332.054688 78.566406 C 332.238281 77.972656 332.449219 77.390625 332.695312 76.816406 C 332.941406 76.246094 333.21875 75.691406 333.527344 75.152344 C 333.835938 74.613281 334.175781 74.089844 334.542969 73.589844 C 334.910156 73.089844 335.304688 72.609375 335.726562 72.152344 C 336.148438 71.695312 336.59375 71.261719 337.0625 70.855469 C 337.535156 70.449219 338.027344 70.070312 338.539062 69.71875 C 339.050781 69.367188 339.582031 69.046875 340.132812 68.753906 C 340.683594 68.464844 341.246094 68.203125 341.824219 67.976562 C 342.402344 67.75 342.992188 67.554688 343.59375 67.394531 C 344.195312 67.234375 344.800781 67.105469 345.417969 67.015625 C 346.03125 66.921875 346.648438 66.863281 347.273438 66.839844 C 347.894531 66.820312 348.515625 66.832031 349.132812 66.878906 C 349.753906 66.925781 350.371094 67.007812 350.980469 67.125 C 351.589844 67.242188 352.191406 67.394531 352.785156 67.578125 C 354.101562 63.914062 355.925781 60.527344 358.261719 57.414062 C 357.746094 57.203125 357.222656 57.007812 356.695312 56.832031 C 356.167969 56.652344 355.632812 56.492188 355.09375 56.34375 C 354.558594 56.199219 354.015625 56.070312 353.46875 55.953125 C 352.925781 55.839844 352.375 55.746094 351.824219 55.664062 C 351.273438 55.582031 350.71875 55.519531 350.164062 55.472656 C 349.609375 55.421875 349.054688 55.394531 348.496094 55.378906 C 347.941406 55.363281 347.382812 55.367188 346.824219 55.386719 C 346.269531 55.40625 345.710938 55.441406 345.15625 55.496094 C 344.601562 55.546875 344.050781 55.617188 343.5 55.703125 C 342.949219 55.789062 342.402344 55.890625 341.855469 56.007812 C 341.3125 56.128906 340.773438 56.261719 340.234375 56.414062 C 339.699219 56.566406 339.167969 56.734375 338.640625 56.914062 C 338.117188 57.097656 337.59375 57.296875 337.082031 57.511719 C 336.566406 57.726562 336.058594 57.957031 335.558594 58.199219 C 335.058594 58.445312 334.566406 58.707031 334.078125 58.980469 C 333.59375 59.253906 333.117188 59.542969 332.652344 59.847656 C 332.183594 60.148438 331.726562 60.464844 331.277344 60.796875 C 330.828125 61.125 330.390625 61.46875 329.960938 61.828125 C 329.535156 62.183594 329.117188 62.554688 328.710938 62.933594 C 328.304688 63.316406 327.910156 63.710938 327.527344 64.117188 C 327.148438 64.523438 326.777344 64.9375 326.417969 65.367188 C 326.0625 65.792969 325.71875 66.230469 325.386719 66.679688 C 325.058594 67.128906 324.738281 67.585938 324.4375 68.054688 C 324.132812 68.523438 323.84375 69 323.570312 69.484375 C 323.296875 69.96875 323.035156 70.460938 322.789062 70.960938 C 322.542969 71.460938 322.316406 71.96875 322.101562 72.484375 C 321.886719 72.996094 321.6875 73.515625 321.503906 74.042969 C 321.320312 74.570312 321.152344 75.101562 321 75.636719 C 320.847656 76.171875 320.714844 76.714844 320.59375 77.257812 C 320.476562 77.800781 320.375 78.347656 320.285156 78.898438 C 320.199219 79.449219 320.132812 80.003906 320.078125 80.558594 C 320.023438 81.113281 319.988281 81.667969 319.96875 82.226562 C 319.96875 91.007812 324.558594 100.078125 329.222656 108.886719 L 342.257812 108.886719 L 340.117188 104.976562 " fill-opacity="1" fill-rule="nonzero"/><path fill="#b59c56" d="M 381.070312 108.859375 C 380.703125 107.921875 380.3125 106.984375 379.894531 106.019531 C 376.792969 98.460938 372.9375 89.078125 372.9375 82.71875 C 372.9375 73.207031 378.148438 68.386719 382.761719 67.082031 C 384.5 66.5625 386.238281 66.5625 387.976562 67.082031 L 387.976562 55.457031 C 385.234375 55.121094 382.53125 55.320312 379.871094 56.058594 C 368.792969 59.105469 361.625 69.558594 361.625 82.667969 C 361.625 90.824219 365.324219 100.285156 368.84375 108.730469 Z M 381.070312 108.859375 " fill-opacity="1" fill-rule="nonzero"/><path fill="#b59c56" d="M 463.59375 55.457031 C 459.511719 55.253906 455.574219 55.921875 451.789062 57.464844 C 454.128906 60.578125 455.960938 63.964844 457.289062 67.628906 C 457.878906 67.445312 458.484375 67.292969 459.09375 67.175781 C 459.703125 67.058594 460.320312 66.976562 460.9375 66.929688 C 461.558594 66.882812 462.179688 66.871094 462.800781 66.894531 C 463.421875 66.914062 464.039062 66.972656 464.652344 67.066406 C 465.269531 67.15625 465.875 67.285156 466.476562 67.445312 C 467.074219 67.605469 467.664062 67.800781 468.242188 68.027344 C 468.820312 68.257812 469.386719 68.515625 469.933594 68.808594 C 470.484375 69.097656 471.015625 69.421875 471.527344 69.769531 C 472.039062 70.121094 472.53125 70.5 473 70.910156 C 473.46875 71.316406 473.914062 71.746094 474.335938 72.203125 C 474.757812 72.660156 475.152344 73.140625 475.519531 73.644531 C 475.886719 74.144531 476.222656 74.664062 476.53125 75.203125 C 476.839844 75.746094 477.117188 76.300781 477.359375 76.871094 C 477.605469 77.441406 477.816406 78.023438 477.996094 78.621094 C 478.175781 79.214844 478.320312 79.820312 478.433594 80.429688 C 478.542969 81.042969 478.621094 81.65625 478.660156 82.277344 C 478.660156 88.6875 474.230469 97.003906 469.957031 105.03125 C 469.253906 106.332031 468.574219 107.636719 467.898438 108.9375 L 480.929688 108.9375 C 485.621094 100.128906 490.210938 91.058594 490.210938 82.277344 C 490.195312 81.40625 490.136719 80.539062 490.039062 79.675781 C 489.941406 78.8125 489.800781 77.953125 489.621094 77.101562 C 489.441406 76.253906 489.21875 75.414062 488.960938 74.582031 C 488.699219 73.753906 488.398438 72.9375 488.0625 72.136719 C 487.722656 71.335938 487.347656 70.550781 486.933594 69.785156 C 486.519531 69.019531 486.070312 68.277344 485.585938 67.554688 C 485.101562 66.832031 484.585938 66.132812 484.035156 65.460938 C 483.484375 64.789062 482.902344 64.140625 482.289062 63.523438 C 481.675781 62.90625 481.035156 62.320312 480.367188 61.765625 C 479.695312 61.207031 479.003906 60.683594 478.285156 60.195312 C 477.566406 59.707031 476.824219 59.25 476.0625 58.832031 C 475.300781 58.414062 474.519531 58.03125 473.722656 57.6875 C 472.921875 57.339844 472.109375 57.035156 471.28125 56.769531 C 470.453125 56.5 469.613281 56.273438 468.765625 56.085938 C 467.914062 55.902344 467.058594 55.753906 466.195312 55.648438 C 465.332031 55.542969 464.464844 55.480469 463.59375 55.457031 " fill-opacity="1" fill-rule="nonzero"/><path fill="#b59c56" d="M 422.203125 55.457031 L 422.203125 67.1875 C 423.894531 66.691406 425.589844 66.691406 427.285156 67.1875 C 431.871094 68.488281 437.085938 73.207031 437.085938 82.71875 C 437.085938 89.078125 433.226562 98.359375 430.125 106.019531 L 428.953125 108.859375 L 441.335938 108.859375 C 444.828125 100.339844 448.527344 90.878906 448.527344 82.796875 C 448.527344 69.765625 441.359375 59.34375 430.28125 56.1875 C 427.636719 55.410156 424.945312 55.167969 422.203125 55.457031 " fill-opacity="1" fill-rule="nonzero"/><g clip-path="url(#6eaacb0c68)"><path fill="#b59c56" d="M 575.523438 732.726562 C 556.546875 732.726562 538.277344 746.539062 538.277344 746.539062 L 612.773438 746.539062 C 612.773438 746.539062 594.527344 732.726562 575.523438 732.726562 " fill-opacity="1" fill-rule="nonzero"/></g><path fill="#b59c56" d="M 533.035156 754.75 C 514.035156 754.75 495.789062 768.5625 495.789062 768.5625 L 570.285156 768.5625 C 570.285156 768.5625 552.039062 754.75 533.035156 754.75 " fill-opacity="1" fill-rule="nonzero"/><path fill="#b59c56" d="M 504.859375 780.292969 C 487.863281 771.820312 465.367188 776.042969 465.367188 776.042969 L 532.046875 809.273438 C 532.046875 809.273438 521.878906 788.761719 504.859375 780.292969 " fill-opacity="1" fill-rule="nonzero"/><path fill="#b59c56" d="M 449.753906 780.292969 C 432.757812 771.820312 410.238281 776.042969 410.238281 776.042969 L 476.914062 809.273438 C 476.914062 809.273438 466.75 788.761719 449.753906 780.292969 " fill-opacity="1" fill-rule="nonzero"/><path fill="#b59c56" d="M 591.0625 705.308594 C 603.15625 690.660156 604.09375 667.777344 604.09375 667.777344 L 556.707031 725.273438 C 556.707031 725.273438 578.992188 720.058594 591.0625 705.308594 " fill-opacity="1" fill-rule="nonzero"/><path fill="#b59c56" d="M 545.289062 725.273438 C 555.714844 709.425781 554.332031 686.597656 554.332031 686.597656 L 513.226562 748.730469 C 513.226562 748.730469 534.808594 741.144531 545.289062 725.273438 " fill-opacity="1" fill-rule="nonzero"/><path fill="#b59c56" d="M 480.667969 764.835938 C 497.664062 756.367188 507.832031 735.855469 507.832031 735.855469 L 441.152344 769.109375 C 441.152344 769.109375 463.671875 773.332031 480.667969 764.835938 " fill-opacity="1" fill-rule="nonzero"/><g clip-path="url(#d2133d05b9)"><path fill="#b59c56" d="M 234.523438 732.726562 C 253.527344 732.726562 271.773438 746.539062 271.773438 746.539062 L 197.273438 746.539062 C 197.273438 746.539062 215.519531 732.726562 234.523438 732.726562 " fill-opacity="1" fill-rule="nonzero"/></g><path fill="#b59c56" d="M 277.011719 754.75 C 296.015625 754.75 314.261719 768.5625 314.261719 768.5625 L 239.761719 768.5625 C 239.761719 768.5625 258.007812 754.75 277.011719 754.75 " fill-opacity="1" fill-rule="nonzero"/><path fill="#b59c56" d="M 305.085938 780.292969 C 322.082031 771.820312 344.601562 776.042969 344.601562 776.042969 L 277.925781 809.273438 C 277.925781 809.273438 288.089844 788.761719 305.085938 780.292969 " fill-opacity="1" fill-rule="nonzero"/><path fill="#b59c56" d="M 360.320312 780.292969 C 377.316406 771.820312 399.8125 776.042969 399.8125 776.042969 L 333.132812 809.273438 C 333.132812 809.273438 343.324219 788.761719 360.320312 780.292969 " fill-opacity="1" fill-rule="nonzero"/><path fill="#b59c56" d="M 218.988281 705.308594 C 206.894531 690.660156 205.953125 667.777344 205.953125 667.777344 L 253.34375 725.273438 C 253.34375 725.273438 231.160156 720.058594 218.988281 705.308594 " fill-opacity="1" fill-rule="nonzero"/><path fill="#b59c56" d="M 264.761719 725.273438 C 254.332031 709.425781 255.714844 686.597656 255.714844 686.597656 L 296.847656 748.730469 C 296.847656 748.730469 275.238281 741.144531 264.761719 725.273438 " fill-opacity="1" fill-rule="nonzero"/><path fill="#b59c56" d="M 329.40625 764.863281 C 312.382812 756.367188 302.21875 735.855469 302.21875 735.855469 L 368.894531 769.109375 C 368.894531 769.109375 346.402344 773.332031 329.40625 764.863281 " fill-opacity="1" fill-rule="nonzero"/><path fill="#ffd500" d="M 274.144531 679.039062 C 283.703125 687.570312 293.996094 695.09375 305.027344 701.609375 C 316.058594 708.125 327.617188 713.511719 339.703125 717.765625 L 339.703125 183.480469 L 274.378906 183.480469 Z M 274.144531 679.039062 " fill-opacity="1" fill-rule="nonzero"/><path fill="#e30613" d="M 339.703125 717.765625 C 366.472656 728.921875 405.179688 728.921875 405.179688 728.921875 L 405.023438 183.402344 L 339.703125 183.402344 Z M 339.703125 717.765625 " fill-opacity="1" fill-rule="nonzero"/><path fill="#1d1d1b" d="M 274.378906 183.402344 L 274.144531 679.039062 C 268.96875 674.4375 264.050781 669.574219 259.390625 664.453125 C 254.726562 659.332031 250.347656 653.976562 246.253906 648.394531 C 242.160156 642.808594 238.367188 637.023438 234.886719 631.039062 C 231.402344 625.054688 228.242188 618.902344 225.410156 612.582031 C 222.578125 606.265625 220.085938 599.8125 217.9375 593.230469 C 215.785156 586.648438 213.988281 579.972656 212.542969 573.199219 C 211.097656 566.425781 210.015625 559.597656 209.292969 552.707031 C 208.570312 545.820312 208.214844 538.914062 208.222656 531.992188 L 208.222656 183.402344 Z M 274.378906 183.402344 " fill-opacity="1" fill-rule="nonzero"/><path fill="#1d1d1b" d="M 405.179688 335.058594 C 408.402344 335.058594 411.625 335.140625 414.84375 335.296875 C 418.0625 335.457031 421.277344 335.691406 424.484375 336.007812 C 427.695312 336.324219 430.890625 336.71875 434.082031 337.191406 C 437.269531 337.664062 440.445312 338.214844 443.605469 338.84375 C 446.765625 339.472656 449.910156 340.179688 453.039062 340.960938 C 456.164062 341.746094 459.269531 342.605469 462.355469 343.539062 C 465.4375 344.476562 468.5 345.488281 471.535156 346.570312 C 474.570312 347.65625 477.574219 348.816406 480.554688 350.050781 C 483.53125 351.285156 486.476562 352.589844 489.390625 353.96875 C 492.304688 355.347656 495.183594 356.792969 498.027344 358.3125 C 500.867188 359.832031 503.671875 361.421875 506.4375 363.078125 C 509.203125 364.734375 511.925781 366.457031 514.605469 368.25 C 517.285156 370.039062 519.917969 371.894531 522.507812 373.816406 C 525.097656 375.734375 527.636719 377.71875 530.128906 379.761719 C 532.621094 381.804688 535.0625 383.910156 537.449219 386.074219 C 539.839844 388.238281 542.171875 390.460938 544.453125 392.738281 C 546.730469 395.019531 548.953125 397.351562 551.117188 399.742188 C 553.28125 402.128906 555.386719 404.566406 557.429688 407.058594 C 559.476562 409.550781 561.457031 412.089844 563.378906 414.679688 C 565.300781 417.269531 567.15625 419.902344 568.945312 422.582031 C 570.734375 425.261719 572.460938 427.984375 574.117188 430.75 C 575.773438 433.511719 577.363281 436.316406 578.882812 439.160156 C 580.402344 442 581.851562 444.878906 583.230469 447.792969 C 584.605469 450.707031 585.914062 453.652344 587.144531 456.628906 C 588.378906 459.605469 589.539062 462.613281 590.625 465.648438 C 591.710938 468.683594 592.722656 471.742188 593.65625 474.824219 C 594.59375 477.910156 595.453125 481.015625 596.238281 484.140625 C 597.019531 487.265625 597.726562 490.410156 598.355469 493.570312 C 598.984375 496.734375 599.535156 499.90625 600.007812 503.09375 C 600.480469 506.285156 600.875 509.480469 601.191406 512.6875 C 601.507812 515.894531 601.742188 519.109375 601.902344 522.328125 C 602.058594 525.546875 602.140625 528.769531 602.140625 531.992188 C 602.140625 535.214844 602.058594 538.433594 601.902344 541.652344 C 601.742188 544.875 601.507812 548.085938 601.191406 551.292969 C 600.875 554.5 600.480469 557.699219 600.007812 560.886719 C 599.535156 564.074219 598.984375 567.25 598.355469 570.410156 C 597.726562 573.570312 597.019531 576.714844 596.238281 579.839844 C 595.453125 582.96875 594.59375 586.074219 593.65625 589.15625 C 592.722656 592.242188 591.710938 595.300781 590.625 598.335938 C 589.539062 601.371094 588.378906 604.375 587.144531 607.351562 C 585.914062 610.332031 584.605469 613.277344 583.230469 616.191406 C 581.851562 619.101562 580.402344 621.980469 578.882812 624.824219 C 577.363281 627.664062 575.773438 630.46875 574.117188 633.234375 C 572.460938 635.996094 570.734375 638.71875 568.945312 641.398438 C 567.15625 644.078125 565.300781 646.714844 563.378906 649.300781 C 561.457031 651.890625 559.476562 654.429688 557.429688 656.921875 C 555.386719 659.414062 553.28125 661.855469 551.117188 664.242188 C 548.953125 666.628906 546.730469 668.964844 544.453125 671.242188 C 542.171875 673.519531 539.839844 675.742188 537.449219 677.90625 C 535.0625 680.070312 532.621094 682.175781 530.128906 684.21875 C 527.636719 686.265625 525.097656 688.246094 522.507812 690.167969 C 519.917969 692.085938 517.285156 693.941406 514.605469 695.734375 C 511.925781 697.523438 509.203125 699.246094 506.4375 700.902344 C 503.671875 702.5625 500.867188 704.148438 498.027344 705.667969 C 495.183594 707.1875 492.304688 708.636719 489.390625 710.015625 C 486.476562 711.390625 483.53125 712.699219 480.554688 713.929688 C 477.574219 715.164062 474.570312 716.324219 471.535156 717.410156 C 468.5 718.496094 465.4375 719.507812 462.355469 720.441406 C 459.269531 721.378906 456.164062 722.238281 453.039062 723.019531 C 449.910156 723.804688 446.765625 724.507812 443.605469 725.136719 C 440.445312 725.765625 437.269531 726.316406 434.082031 726.789062 C 430.890625 727.261719 427.695312 727.65625 424.484375 727.972656 C 421.277344 728.289062 418.0625 728.527344 414.84375 728.683594 C 411.625 728.84375 408.402344 728.921875 405.179688 728.921875 Z M 405.179688 335.058594 " fill-opacity="1" fill-rule="nonzero"/><path fill="#b59c56" d="M 202.488281 177.691406 L 202.488281 531.992188 C 202.488281 535.308594 202.570312 538.621094 202.730469 541.933594 C 202.894531 545.25 203.136719 548.554688 203.464844 551.855469 C 203.789062 555.15625 204.195312 558.445312 204.679688 561.726562 C 205.167969 565.007812 205.734375 568.277344 206.382812 571.527344 C 207.03125 574.78125 207.757812 578.015625 208.5625 581.234375 C 209.367188 584.453125 210.253906 587.648438 211.214844 590.820312 C 212.179688 593.996094 213.21875 597.144531 214.335938 600.265625 C 215.453125 603.390625 216.648438 606.484375 217.917969 609.546875 C 219.1875 612.613281 220.53125 615.644531 221.949219 618.640625 C 223.367188 621.640625 224.859375 624.601562 226.421875 627.527344 C 227.984375 630.453125 229.621094 633.335938 231.324219 636.179688 C 233.03125 639.027344 234.804688 641.828125 236.648438 644.585938 C 238.492188 647.34375 240.398438 650.054688 242.375 652.71875 C 244.351562 655.382812 246.390625 657.996094 248.496094 660.558594 C 250.601562 663.125 252.765625 665.632812 254.996094 668.09375 C 257.222656 670.550781 259.507812 672.949219 261.855469 675.296875 C 264.199219 677.640625 266.601562 679.929688 269.058594 682.15625 C 271.519531 684.382812 274.027344 686.546875 276.59375 688.652344 C 279.15625 690.757812 281.773438 692.796875 284.4375 694.773438 C 287.101562 696.75 289.8125 698.65625 292.570312 700.5 C 295.328125 702.34375 298.128906 704.117188 300.976562 705.820312 C 303.820312 707.527344 306.707031 709.160156 309.632812 710.726562 C 312.558594 712.289062 315.519531 713.78125 318.519531 715.199219 C 321.515625 716.617188 324.546875 717.960938 327.613281 719.230469 C 330.679688 720.496094 333.773438 721.691406 336.894531 722.808594 C 340.019531 723.925781 343.167969 724.964844 346.34375 725.929688 C 349.515625 726.890625 352.710938 727.777344 355.929688 728.582031 C 359.148438 729.386719 362.382812 730.113281 365.636719 730.761719 C 368.890625 731.410156 372.15625 731.976562 375.4375 732.460938 C 378.71875 732.949219 382.011719 733.355469 385.3125 733.679688 C 388.613281 734.003906 391.921875 734.25 395.234375 734.410156 C 398.546875 734.574219 401.863281 734.65625 405.179688 734.65625 C 408.496094 734.65625 411.8125 734.574219 415.125 734.410156 C 418.441406 734.25 421.746094 734.003906 425.046875 733.679688 C 428.347656 733.355469 431.640625 732.949219 434.921875 732.460938 C 438.203125 731.976562 441.46875 731.410156 444.722656 730.761719 C 447.976562 730.113281 451.214844 729.386719 454.429688 728.582031 C 457.648438 727.777344 460.84375 726.890625 464.019531 725.929688 C 467.195312 724.964844 470.34375 723.925781 473.464844 722.808594 C 476.589844 721.691406 479.683594 720.496094 482.746094 719.230469 C 485.8125 717.960938 488.84375 716.617188 491.84375 715.199219 C 494.839844 713.78125 497.804688 712.289062 500.730469 710.726562 C 503.65625 709.160156 506.539062 707.527344 509.386719 705.820312 C 512.230469 704.117188 515.03125 702.34375 517.789062 700.5 C 520.550781 698.65625 523.261719 696.75 525.925781 694.773438 C 528.589844 692.796875 531.203125 690.757812 533.769531 688.652344 C 536.332031 686.546875 538.84375 684.382812 541.300781 682.15625 C 543.757812 679.929688 546.160156 677.640625 548.507812 675.296875 C 550.851562 672.949219 553.136719 670.550781 555.367188 668.09375 C 557.59375 665.632812 559.761719 663.125 561.863281 660.558594 C 563.96875 657.996094 566.007812 655.382812 567.984375 652.71875 C 569.960938 650.054688 571.871094 647.34375 573.714844 644.585938 C 575.554688 641.828125 577.332031 639.027344 579.035156 636.179688 C 580.742188 633.335938 582.375 630.453125 583.941406 627.527344 C 585.503906 624.601562 586.996094 621.640625 588.414062 618.640625 C 589.832031 615.644531 591.175781 612.613281 592.445312 609.546875 C 593.714844 606.484375 594.90625 603.390625 596.023438 600.265625 C 597.144531 597.144531 598.183594 593.996094 599.144531 590.820312 C 600.109375 587.648438 600.992188 584.453125 601.800781 581.234375 C 602.605469 578.015625 603.332031 574.78125 603.980469 571.527344 C 604.625 568.277344 605.191406 565.007812 605.679688 561.726562 C 606.167969 558.445312 606.574219 555.15625 606.898438 551.855469 C 607.222656 548.554688 607.464844 545.25 607.628906 541.933594 C 607.792969 538.621094 607.875 535.308594 607.875 531.992188 L 607.875 177.691406 Z M 399.316406 723.058594 C 380.898438 722.507812 362.9375 719.351562 345.4375 713.597656 L 345.4375 189.132812 L 399.316406 189.132812 Z M 280.085938 189.132812 L 333.96875 189.132812 L 333.96875 709.402344 C 324.140625 705.4375 314.703125 700.6875 305.664062 695.160156 C 296.621094 689.632812 288.097656 683.398438 280.085938 676.457031 Z M 213.929688 531.992188 L 213.929688 189.132812 L 268.671875 189.132812 L 268.671875 665.695312 C 264.335938 661.292969 260.226562 656.691406 256.34375 651.890625 C 252.457031 647.089844 248.816406 642.109375 245.414062 636.953125 C 242.011719 631.796875 238.871094 626.484375 235.984375 621.023438 C 233.101562 615.558594 230.488281 609.96875 228.144531 604.25 C 225.804688 598.53125 223.746094 592.710938 221.972656 586.792969 C 220.195312 580.875 218.710938 574.882812 217.519531 568.816406 C 216.324219 562.753906 215.429688 556.644531 214.828125 550.492188 C 214.230469 544.339844 213.929688 538.171875 213.929688 531.992188 Z M 596.40625 531.992188 C 596.398438 535.0625 596.324219 538.128906 596.171875 541.195312 C 596.019531 544.261719 595.792969 547.320312 595.496094 550.375 C 595.195312 553.429688 594.824219 556.476562 594.378906 559.511719 C 593.933594 562.550781 593.414062 565.574219 592.824219 568.585938 C 592.234375 571.597656 591.570312 574.59375 590.835938 577.574219 C 590.097656 580.554688 589.292969 583.515625 588.414062 586.457031 C 587.539062 589.398438 586.589844 592.320312 585.570312 595.214844 C 584.554688 598.109375 583.464844 600.980469 582.308594 603.824219 C 581.152344 606.667969 579.929688 609.480469 578.640625 612.265625 C 577.347656 615.050781 575.988281 617.800781 574.566406 620.523438 C 573.140625 623.242188 571.652344 625.925781 570.101562 628.574219 C 568.546875 631.21875 566.929688 633.828125 565.253906 636.398438 C 563.574219 638.96875 561.832031 641.496094 560.035156 643.984375 C 558.234375 646.46875 556.375 648.910156 554.457031 651.308594 C 552.539062 653.707031 550.5625 656.054688 548.535156 658.355469 C 546.503906 660.660156 544.417969 662.910156 542.277344 665.113281 C 540.140625 667.3125 537.949219 669.464844 535.707031 671.558594 C 533.464844 673.65625 531.171875 675.695312 528.832031 677.683594 C 526.488281 679.667969 524.101562 681.597656 521.667969 683.46875 C 519.234375 685.339844 516.757812 687.152344 514.238281 688.902344 C 511.714844 690.65625 509.15625 692.347656 506.554688 693.976562 C 503.949219 695.605469 501.3125 697.167969 498.632812 698.671875 C 495.957031 700.171875 493.246094 701.609375 490.496094 702.980469 C 487.75 704.351562 484.972656 705.65625 482.164062 706.894531 C 479.355469 708.132812 476.515625 709.300781 473.652344 710.402344 C 470.785156 711.503906 467.894531 712.535156 464.980469 713.5 C 462.066406 714.460938 459.128906 715.351562 456.167969 716.171875 C 453.210938 716.992188 450.234375 717.742188 447.242188 718.421875 C 444.246094 719.097656 441.238281 719.703125 438.214844 720.238281 C 435.191406 720.769531 432.15625 721.230469 429.113281 721.617188 C 426.066406 722.003906 423.011719 722.316406 419.953125 722.558594 C 416.890625 722.796875 413.828125 722.964844 410.757812 723.058594 L 410.757812 340.925781 C 413.828125 341.015625 416.890625 341.183594 419.953125 341.421875 C 423.011719 341.664062 426.066406 341.976562 429.113281 342.363281 C 432.15625 342.75 435.191406 343.210938 438.214844 343.742188 C 441.238281 344.273438 444.25 344.878906 447.242188 345.558594 C 450.238281 346.234375 453.214844 346.984375 456.171875 347.804688 C 459.128906 348.625 462.066406 349.515625 464.984375 350.480469 C 467.898438 351.441406 470.789062 352.472656 473.65625 353.574219 C 476.519531 354.675781 479.359375 355.84375 482.167969 357.082031 C 484.976562 358.320312 487.753906 359.625 490.503906 360.996094 C 493.25 362.367188 495.960938 363.800781 498.636719 365.304688 C 501.316406 366.804688 503.957031 368.371094 506.558594 370 C 509.160156 371.628906 511.722656 373.320312 514.242188 375.070312 C 516.765625 376.824219 519.242188 378.632812 521.675781 380.503906 C 524.109375 382.378906 526.496094 384.304688 528.835938 386.292969 C 531.179688 388.277344 533.46875 390.320312 535.710938 392.414062 C 537.957031 394.511719 540.144531 396.660156 542.285156 398.863281 C 544.425781 401.0625 546.511719 403.316406 548.539062 405.617188 C 550.570312 407.921875 552.546875 410.269531 554.464844 412.667969 C 556.382812 415.0625 558.242188 417.503906 560.042969 419.992188 C 561.839844 422.480469 563.582031 425.007812 565.257812 427.578125 C 566.9375 430.148438 568.554688 432.757812 570.105469 435.402344 C 571.660156 438.050781 573.148438 440.734375 574.574219 443.457031 C 575.996094 446.175781 577.355469 448.925781 578.644531 451.710938 C 579.9375 454.496094 581.160156 457.3125 582.316406 460.15625 C 583.472656 463 584.558594 465.867188 585.578125 468.765625 C 586.597656 471.660156 587.542969 474.578125 588.421875 477.519531 C 589.296875 480.460938 590.105469 483.421875 590.839844 486.402344 C 591.574219 489.382812 592.238281 492.382812 592.828125 495.394531 C 593.417969 498.40625 593.9375 501.429688 594.382812 504.46875 C 594.828125 507.503906 595.199219 510.550781 595.496094 513.605469 C 595.796875 516.660156 596.019531 519.722656 596.171875 522.789062 C 596.324219 525.855469 596.402344 528.921875 596.40625 531.992188 Z M 596.40625 531.992188 " fill-opacity="1" fill-rule="nonzero"/><path fill="#1d1d1b" d="M 447.332031 295.785156 L 448.269531 295.785156 L 451.316406 308.269531 L 444.175781 308.269531 Z M 433.878906 323.28125 L 440.34375 323.28125 L 442.664062 314.105469 L 452.726562 314.105469 L 454.992188 323.28125 L 462.238281 323.28125 L 462.238281 318.875 L 453.847656 288.929688 L 442.300781 288.929688 L 433.90625 318.875 Z M 410.992188 323.28125 L 418.996094 323.28125 L 418.996094 308.945312 L 430.542969 308.945312 L 430.542969 303.054688 L 418.996094 303.054688 L 418.996094 294.898438 L 431.117188 294.898438 L 431.117188 288.980469 L 411.019531 288.980469 Z M 410.992188 323.28125 " fill-opacity="1" fill-rule="nonzero"/><path fill="#1d1d1b" d="M 569.0625 277.515625 L 576.515625 277.515625 L 576.515625 256.664062 L 577.402344 256.664062 L 587.28125 277.515625 L 596.328125 277.515625 L 596.328125 243.109375 L 588.84375 243.109375 L 588.84375 263.960938 L 587.90625 263.960938 L 578.105469 243.109375 L 569.0625 243.109375 Z M 549.171875 250.015625 L 550.109375 250.015625 L 553.160156 262.398438 L 546.019531 262.398438 Z M 535.617188 277.515625 L 542.109375 277.515625 L 544.402344 268.339844 L 554.515625 268.339844 L 556.785156 277.515625 L 564.054688 277.515625 L 564.054688 273.082031 L 555.636719 243.109375 L 543.957031 243.109375 L 535.617188 273.082031 Z M 522.585938 277.515625 L 530.585938 277.515625 L 530.585938 243.109375 L 522.585938 243.109375 Z M 504.335938 264.117188 L 509.265625 264.117188 L 509.265625 269.328125 C 508.824219 270.109375 508.226562 270.734375 507.464844 271.207031 C 506.429688 271.820312 505.308594 272.097656 504.101562 272.039062 C 502.882812 272.097656 501.75 271.800781 500.714844 271.15625 C 499.914062 270.660156 499.304688 269.992188 498.890625 269.148438 L 498.890625 251.449219 C 499.300781 250.601562 499.902344 249.914062 500.6875 249.390625 C 501.183594 249.101562 501.710938 248.882812 502.265625 248.730469 C 502.820312 248.582031 503.386719 248.507812 503.960938 248.507812 C 504.535156 248.507812 505.097656 248.582031 505.652344 248.730469 C 506.207031 248.882812 506.734375 249.101562 507.230469 249.390625 C 508.035156 249.894531 508.625 250.582031 509.003906 251.449219 L 509.003906 254.96875 L 516.824219 254.96875 L 516.824219 249.339844 C 516.394531 248.546875 515.898438 247.800781 515.335938 247.097656 C 514.582031 246.21875 513.714844 245.46875 512.730469 244.855469 C 511.574219 244.113281 510.339844 243.53125 509.03125 243.109375 C 507.382812 242.609375 505.695312 242.375 503.972656 242.40625 C 502.195312 242.363281 500.457031 242.605469 498.757812 243.136719 C 497.40625 243.582031 496.136719 244.199219 494.953125 244.988281 C 493.953125 245.65625 493.085938 246.460938 492.347656 247.410156 C 491.746094 248.226562 491.234375 249.097656 490.808594 250.015625 L 490.808594 270.867188 C 491.234375 271.789062 491.746094 272.65625 492.347656 273.472656 C 493.085938 274.421875 493.953125 275.230469 494.953125 275.898438 C 496.132812 276.699219 497.402344 277.316406 498.757812 277.75 C 500.457031 278.277344 502.195312 278.523438 503.972656 278.476562 C 505.695312 278.511719 507.382812 278.277344 509.03125 277.773438 C 510.351562 277.367188 511.585938 276.777344 512.730469 276.003906 C 513.707031 275.378906 514.578125 274.632812 515.335938 273.761719 C 515.886719 273.066406 516.382812 272.335938 516.824219 271.570312 L 516.824219 258.539062 L 504.441406 258.539062 Z M 468.367188 277.515625 L 487.03125 277.515625 L 487.03125 271.570312 L 476.1875 271.570312 L 476.1875 243.109375 L 468.367188 243.109375 Z M 441.75 277.515625 L 462.605469 277.515625 L 462.605469 271.570312 L 449.570312 271.570312 L 449.570312 262.945312 L 461.300781 262.945312 L 461.300781 257.003906 L 449.570312 257.003906 L 449.570312 249.183594 L 462.1875 249.183594 L 462.1875 243.109375 L 441.648438 243.109375 Z M 418.996094 271.78125 L 418.996094 262.734375 L 424.050781 262.734375 C 424.972656 262.726562 425.84375 262.933594 426.660156 263.363281 C 427.398438 263.710938 427.972656 264.242188 428.378906 264.953125 L 428.378906 269.40625 C 428.007812 270.121094 427.476562 270.6875 426.789062 271.101562 C 425.871094 271.601562 424.890625 271.828125 423.84375 271.78125 Z M 418.996094 257.183594 L 418.996094 248.949219 L 423.84375 248.949219 C 424.769531 248.925781 425.636719 249.132812 426.449219 249.574219 C 427.175781 249.972656 427.714844 250.546875 428.066406 251.292969 L 428.066406 254.890625 C 427.632812 255.558594 427.078125 256.09375 426.398438 256.507812 C 425.675781 256.941406 424.894531 257.148438 424.050781 257.132812 Z M 411.019531 277.515625 L 425.617188 277.515625 C 426.859375 277.535156 428.078125 277.363281 429.265625 276.992188 C 430.285156 276.675781 431.242188 276.226562 432.132812 275.636719 C 432.960938 275.117188 433.699219 274.488281 434.347656 273.761719 C 434.925781 273.117188 435.429688 272.421875 435.859375 271.675781 L 435.859375 263.335938 C 435.375 262.535156 434.765625 261.839844 434.035156 261.25 C 433.34375 260.707031 432.613281 260.21875 431.847656 259.789062 C 432.632812 259.339844 433.351562 258.800781 434.011719 258.175781 C 434.609375 257.613281 435.128906 256.988281 435.574219 256.296875 L 435.574219 249 C 435.148438 248.246094 434.652344 247.542969 434.089844 246.890625 C 433.453125 246.175781 432.742188 245.550781 431.949219 245.011719 C 431.082031 244.4375 430.152344 243.984375 429.160156 243.65625 C 428.011719 243.277344 426.828125 243.09375 425.617188 243.109375 L 411.019531 243.109375 Z M 411.019531 277.515625 " fill-opacity="1" fill-rule="nonzero"/><path fill="#1d1d1b" d="M 530.378906 231.746094 L 549.015625 231.746094 L 549.015625 225.804688 L 538.378906 225.804688 L 538.378906 197.371094 L 530.378906 197.371094 Z M 510.386719 204.25 L 511.324219 204.25 L 514.347656 216.632812 L 507.230469 216.632812 Z M 497.039062 231.746094 L 503.503906 231.746094 L 505.824219 222.574219 L 515.9375 222.574219 L 518.203125 231.746094 L 525.453125 231.746094 L 525.453125 227.316406 L 517.058594 197.371094 L 505.433594 197.371094 L 497.039062 227.316406 Z M 479.886719 231.746094 L 487.890625 231.746094 L 487.890625 218.246094 L 497.039062 201.800781 L 497.039062 197.371094 L 490.445312 197.371094 L 484.789062 209.230469 L 483.847656 209.230469 L 478.375 197.449219 L 471.15625 197.449219 L 471.15625 201.878906 L 479.78125 217.515625 Z M 441.28125 224.867188 C 441.707031 225.792969 442.230469 226.660156 442.847656 227.472656 C 443.582031 228.421875 444.453125 229.230469 445.453125 229.898438 C 446.636719 230.6875 447.90625 231.304688 449.257812 231.746094 C 450.925781 232.234375 452.628906 232.476562 454.367188 232.476562 C 456.105469 232.476562 457.808594 232.234375 459.476562 231.746094 C 460.832031 231.308594 462.101562 230.691406 463.28125 229.898438 C 464.28125 229.230469 465.152344 228.421875 465.890625 227.472656 C 466.511719 226.667969 467.023438 225.800781 467.425781 224.867188 L 467.425781 204.015625 C 467.023438 203.085938 466.511719 202.214844 465.890625 201.410156 C 465.152344 200.460938 464.28125 199.652344 463.28125 198.988281 C 462.101562 198.191406 460.832031 197.574219 459.476562 197.136719 C 457.808594 196.648438 456.105469 196.40625 454.367188 196.40625 C 452.628906 196.40625 450.925781 196.648438 449.257812 197.136719 C 447.90625 197.578125 446.636719 198.195312 445.453125 198.988281 C 444.453125 199.652344 443.582031 200.460938 442.847656 201.410156 C 442.230469 202.222656 441.707031 203.089844 441.28125 204.015625 Z M 449.285156 205.582031 C 449.695312 204.722656 450.292969 204.027344 451.082031 203.496094 C 451.582031 203.207031 452.105469 202.984375 452.660156 202.835938 C 453.214844 202.6875 453.78125 202.609375 454.355469 202.609375 C 454.929688 202.609375 455.496094 202.6875 456.050781 202.835938 C 456.605469 202.984375 457.128906 203.207031 457.625 203.496094 C 458.417969 204.019531 459.007812 204.714844 459.398438 205.582031 L 459.398438 223.328125 C 458.988281 224.164062 458.398438 224.84375 457.625 225.363281 C 457.128906 225.652344 456.605469 225.871094 456.050781 226.023438 C 455.496094 226.171875 454.929688 226.246094 454.355469 226.246094 C 453.78125 226.246094 453.214844 226.171875 452.660156 226.023438 C 452.105469 225.871094 451.582031 225.652344 451.082031 225.363281 C 450.3125 224.835938 449.710938 224.160156 449.285156 223.328125 Z M 418.996094 213.398438 L 418.996094 203.3125 L 423.765625 203.3125 C 424.6875 203.308594 425.554688 203.515625 426.371094 203.9375 C 427.15625 204.324219 427.746094 204.90625 428.144531 205.683594 L 428.144531 211.210938 C 427.757812 211.984375 427.175781 212.566406 426.398438 212.957031 C 425.582031 213.378906 424.710938 213.589844 423.792969 213.582031 Z M 429.945312 231.644531 L 436.171875 231.644531 L 436.171875 227.210938 L 430.230469 218.140625 C 431.4375 217.667969 432.523438 217 433.488281 216.136719 C 434.417969 215.261719 435.199219 214.269531 435.835938 213.164062 L 435.835938 203.207031 C 434.835938 201.316406 433.402344 199.847656 431.535156 198.804688 C 429.664062 197.753906 427.65625 197.242188 425.511719 197.265625 L 411.019531 197.265625 L 411.019531 231.746094 L 419.023438 231.746094 L 419.023438 219.132812 L 422.359375 219.132812 Z M 429.945312 231.644531 " fill-opacity="1" fill-rule="nonzero"/><path fill="#1d1d1b" d="M 473.578125 308.449219 C 473.855469 309.039062 474.273438 309.496094 474.832031 309.832031 C 475.628906 310.328125 476.496094 310.554688 477.4375 310.507812 C 478.378906 310.566406 479.25 310.339844 480.042969 309.832031 C 480.601562 309.496094 481.019531 309.039062 481.292969 308.449219 L 481.292969 304.722656 C 481.003906 304.148438 480.585938 303.6875 480.042969 303.34375 C 479.246094 302.847656 478.375 302.621094 477.4375 302.664062 C 476.5 302.628906 475.632812 302.855469 474.832031 303.34375 C 474.285156 303.6875 473.871094 304.148438 473.578125 304.722656 Z M 473.578125 308.449219 " fill-opacity="1" fill-rule="nonzero"/><path fill="#1d1d1b" d="M 572.996094 318.378906 C 573.398438 318.976562 573.847656 319.535156 574.351562 320.046875 C 575.039062 320.773438 575.8125 321.390625 576.671875 321.898438 C 577.742188 322.550781 578.882812 323.054688 580.085938 323.410156 C 581.585938 323.84375 583.113281 324.042969 584.675781 324.011719 C 586.234375 324.035156 587.765625 323.828125 589.261719 323.382812 C 590.46875 323.015625 591.613281 322.511719 592.703125 321.871094 C 594.199219 321.007812 595.40625 319.84375 596.328125 318.378906 L 596.328125 306.339844 C 595.980469 305.664062 595.566406 305.039062 595.074219 304.460938 C 594.503906 303.792969 593.84375 303.230469 593.09375 302.769531 C 592.28125 302.25 591.410156 301.847656 590.488281 301.570312 C 589.40625 301.242188 588.304688 301.085938 587.175781 301.101562 C 585.871094 301.078125 584.59375 301.257812 583.34375 301.648438 C 582.3125 302.011719 581.363281 302.535156 580.503906 303.210938 L 580.503906 295.238281 L 596.144531 295.238281 L 596.144531 289.058594 L 573.308594 289.058594 L 573.308594 308.582031 L 580.453125 308.582031 C 580.882812 308.101562 581.386719 307.71875 581.964844 307.433594 C 582.777344 307.003906 583.648438 306.796875 584.570312 306.808594 C 585.601562 306.789062 586.566406 307.03125 587.464844 307.539062 C 588.195312 307.898438 588.730469 308.445312 589.078125 309.179688 L 589.078125 315.902344 C 588.742188 316.664062 588.203125 317.226562 587.464844 317.597656 C 586.5625 318.097656 585.597656 318.332031 584.570312 318.300781 C 583.527344 318.339844 582.554688 318.09375 581.652344 317.570312 C 580.933594 317.183594 580.386719 316.628906 580.007812 315.902344 L 580.007812 313.296875 L 572.890625 313.296875 Z M 572.996094 318.378906 " fill-opacity="1" fill-rule="nonzero"/><path fill="#1d1d1b" d="M 566.167969 292.628906 C 565.394531 291.804688 564.527344 291.101562 563.5625 290.519531 C 562.433594 289.816406 561.234375 289.269531 559.964844 288.878906 C 558.445312 288.40625 556.890625 288.179688 555.296875 288.199219 C 553.726562 288.171875 552.1875 288.390625 550.683594 288.851562 C 549.464844 289.222656 548.308594 289.738281 547.21875 290.390625 C 546.359375 290.910156 545.585938 291.535156 544.898438 292.265625 C 544.417969 292.753906 543.992188 293.28125 543.621094 293.855469 L 543.621094 305.871094 C 543.933594 306.582031 544.347656 307.222656 544.871094 307.796875 C 545.449219 308.449219 546.109375 309.007812 546.851562 309.464844 C 547.671875 309.972656 548.539062 310.375 549.457031 310.664062 C 550.566406 310.992188 551.695312 311.148438 552.847656 311.132812 C 554.183594 311.160156 555.484375 310.96875 556.757812 310.5625 C 557.835938 310.214844 558.824219 309.703125 559.730469 309.023438 L 559.730469 315.800781 C 559.371094 316.53125 558.832031 317.085938 558.113281 317.46875 C 557.195312 317.953125 556.21875 318.199219 555.179688 318.199219 C 554.140625 318.199219 553.164062 317.953125 552.246094 317.46875 C 551.53125 317.085938 550.992188 316.53125 550.632812 315.800781 L 550.632812 313.480469 L 543.699219 313.480469 L 543.699219 318.433594 C 544.097656 319.015625 544.539062 319.5625 545.027344 320.074219 C 545.722656 320.789062 546.496094 321.40625 547.347656 321.925781 C 548.433594 322.5625 549.582031 323.066406 550.789062 323.4375 C 552.285156 323.878906 553.816406 324.085938 555.375 324.0625 C 556.960938 324.085938 558.515625 323.878906 560.042969 323.4375 C 561.316406 323.066406 562.515625 322.527344 563.640625 321.820312 C 564.613281 321.238281 565.484375 320.523438 566.246094 319.683594 C 566.824219 319.011719 567.320312 318.28125 567.730469 317.492188 L 567.730469 294.714844 C 567.3125 293.945312 566.789062 293.25 566.167969 292.628906 Z M 559.910156 304.304688 C 559.269531 304.761719 558.582031 305.136719 557.851562 305.425781 C 557.085938 305.703125 556.292969 305.84375 555.480469 305.84375 C 554.402344 305.871094 553.394531 305.621094 552.457031 305.089844 C 551.722656 304.714844 551.175781 304.160156 550.8125 303.421875 L 550.8125 296.460938 C 551.171875 295.730469 551.710938 295.175781 552.429688 294.792969 C 553.34375 294.289062 554.320312 294.039062 555.363281 294.039062 C 556.40625 294.039062 557.382812 294.289062 558.296875 294.792969 C 559.011719 295.175781 559.550781 295.730469 559.910156 296.460938 Z M 559.910156 304.304688 " fill-opacity="1" fill-rule="nonzero"/><path fill="#1d1d1b" d="M 536.632812 307.824219 C 535.773438 306.902344 534.78125 306.144531 533.664062 305.558594 C 534.609375 305.03125 535.480469 304.398438 536.269531 303.65625 C 536.753906 303.171875 537.207031 302.660156 537.625 302.117188 L 537.625 293.488281 C 537.242188 292.992188 536.832031 292.511719 536.398438 292.058594 C 535.726562 291.378906 534.980469 290.796875 534.15625 290.308594 C 533.089844 289.675781 531.960938 289.179688 530.769531 288.824219 C 529.257812 288.359375 527.710938 288.140625 526.128906 288.171875 C 524.566406 288.148438 523.039062 288.355469 521.542969 288.800781 C 520.351562 289.140625 519.222656 289.628906 518.152344 290.257812 C 517.320312 290.75 516.566406 291.34375 515.886719 292.03125 C 515.433594 292.488281 515.019531 292.976562 514.632812 293.488281 L 514.632812 302.117188 C 515.015625 302.707031 515.46875 303.238281 515.988281 303.707031 C 516.765625 304.457031 517.632812 305.074219 518.597656 305.558594 C 517.484375 306.167969 516.503906 306.941406 515.648438 307.875 C 515.003906 308.574219 514.445312 309.339844 513.980469 310.171875 L 513.980469 317.441406 C 514.355469 318.222656 514.835938 318.9375 515.414062 319.578125 C 516.179688 320.417969 517.046875 321.132812 518.023438 321.714844 C 518.996094 322.292969 520.015625 322.761719 521.082031 323.128906 C 522.152344 323.496094 523.246094 323.75 524.367188 323.890625 C 525.488281 324.03125 526.613281 324.058594 527.738281 323.96875 C 528.867188 323.878906 529.972656 323.675781 531.054688 323.359375 C 532.316406 322.960938 533.503906 322.414062 534.625 321.714844 C 535.601562 321.132812 536.46875 320.417969 537.234375 319.578125 C 537.820312 318.9375 538.308594 318.222656 538.691406 317.441406 L 538.691406 310.171875 C 538.113281 309.292969 537.425781 308.511719 536.632812 307.824219 Z M 521.671875 296.070312 C 522.09375 295.507812 522.617188 295.054688 523.234375 294.714844 C 524.121094 294.246094 525.0625 294.011719 526.0625 294.011719 C 527.066406 294.011719 528.007812 294.246094 528.890625 294.714844 C 529.515625 295.046875 530.039062 295.5 530.457031 296.070312 L 530.457031 301.046875 C 530.042969 301.636719 529.519531 302.105469 528.890625 302.457031 C 528.007812 302.925781 527.066406 303.15625 526.0625 303.15625 C 525.0625 303.15625 524.121094 302.925781 523.234375 302.457031 C 522.613281 302.097656 522.089844 301.628906 521.671875 301.046875 Z M 530.613281 315.773438 C 530.253906 316.503906 529.714844 317.058594 528.996094 317.441406 C 528.082031 317.960938 527.101562 318.203125 526.050781 318.171875 C 525.015625 318.203125 524.050781 317.960938 523.15625 317.441406 C 522.433594 317.058594 521.886719 316.503906 521.515625 315.773438 L 521.515625 310.5625 C 521.882812 309.820312 522.429688 309.257812 523.15625 308.867188 C 524.054688 308.363281 525.019531 308.117188 526.050781 308.136719 C 527.097656 308.117188 528.078125 308.359375 528.996094 308.867188 C 529.714844 309.257812 530.253906 309.824219 530.613281 310.5625 Z M 530.613281 315.773438 " fill-opacity="1" fill-rule="nonzero"/><path fill="#1d1d1b" d="M 490.859375 323.28125 L 508.429688 323.28125 L 508.429688 318.222656 L 503.582031 318.222656 L 503.582031 288.929688 L 497.144531 288.929688 L 490.808594 291.066406 L 490.808594 295.679688 L 495.917969 295.160156 L 495.917969 318.222656 L 490.859375 318.222656 Z M 490.859375 323.28125 " fill-opacity="1" fill-rule="nonzero"/></svg>