<svg id="LOGO" xmlns="http://www.w3.org/2000/svg" viewBox="0 0 159.4 310.23"><defs><style>.cls-1{fill:#b59c56;}.cls-2{fill:#fff;}.cls-3{fill:none;stroke:#1d1d1b;stroke-miterlimit:10;stroke-width:4.39px;}.cls-4{fill:#ffd500;}.cls-5{fill:#e30613;}.cls-6{fill:#1d1d1b;}</style></defs><title>BEL AI</title><polygon class="cls-1" points="77.5 0 77.5 6.07 71.43 6.07 71.43 10.46 77.5 10.46 77.5 16.54 81.89 16.54 81.89 10.46 87.97 10.46 87.97 6.07 81.89 6.07 81.89 0 77.5 0"/><rect class="cls-1" x="52.42" y="54.72" width="54.56" height="4.39"/><rect class="cls-1" x="52.42" y="45.9" width="54.56" height="4.39"/><rect class="cls-1" x="77.5" y="20.92" width="4.39" height="20.57"/><path class="cls-1" d="M54.8,40c-1.65-3.08-3.35-6.27-3.35-8.73a6.34,6.34,0,0,1,8.21-5.62,14.91,14.91,0,0,1,2.1-3.9,10.68,10.68,0,0,0-14.69,9.52c0,3.37,1.76,6.85,3.55,10.23h5L54.8,40"/><path class="cls-1" d="M70.51,41.49c-.14-.36-.29-.72-.45-1.09-1.19-2.9-2.67-6.5-2.67-8.94,0-3.65,2-5.5,3.77-6a3.48,3.48,0,0,1,2,0V21a8,8,0,0,0-3.11.23c-4.25,1.17-7,5.18-7,10.21,0,3.13,1.42,6.76,2.77,10Z"/><path class="cls-1" d="M102.17,21a10.61,10.61,0,0,0-4.53.77,14.94,14.94,0,0,1,2.11,3.9,6.33,6.33,0,0,1,8.2,5.62c0,2.46-1.7,5.65-3.34,8.73-.27.5-.53,1-.79,1.5h5c1.8-3.38,3.56-6.86,3.56-10.23A10.48,10.48,0,0,0,102.17,21"/><path class="cls-1" d="M86.29,21v4.5a3.48,3.48,0,0,1,1.95,0C90,26,92,27.81,92,31.46c0,2.44-1.48,6-2.67,8.94l-.45,1.09h4.75c1.34-3.27,2.76-6.9,2.76-10,0-5-2.75-9-7-10.21A8,8,0,0,0,86.29,21"/><path class="cls-2" d="M79.7,279.4"/><path class="cls-2" d="M79.7,69.12"/><path class="cls-1" d="M145.11,280.86c-7.28,0-14.29,5.3-14.29,5.3H159.4s-7-5.3-14.29-5.3"/><path class="cls-1" d="M128.81,289.31c-7.29,0-14.29,5.3-14.29,5.3H143.1s-7-5.3-14.29-5.3"/><path class="cls-1" d="M118,299.11c-6.52-3.25-15.15-1.63-15.15-1.63l25.58,12.75s-3.9-7.87-10.43-11.12"/><path class="cls-1" d="M96.86,299.11c-6.52-3.25-15.16-1.63-15.16-1.63l25.58,12.75s-3.9-7.87-10.42-11.12"/><path class="cls-1" d="M151.07,270.34c4.64-5.62,5-14.4,5-14.4L137.89,278s8.55-2,13.18-7.66"/><path class="cls-1" d="M133.51,278c4-6.08,3.47-14.84,3.47-14.84L121.21,287s8.28-2.91,12.3-9"/><path class="cls-1" d="M108.72,293.18c6.52-3.25,10.42-11.12,10.42-11.12L93.56,294.82s8.64,1.62,15.16-1.64"/><path class="cls-1" d="M14.29,280.86c7.29,0,14.29,5.3,14.29,5.3H0s7-5.3,14.29-5.3"/><path class="cls-1" d="M30.59,289.31c7.29,0,14.29,5.3,14.29,5.3H16.3s7-5.3,14.29-5.3"/><path class="cls-1" d="M41.36,299.11c6.52-3.25,15.16-1.63,15.16-1.63L30.94,310.23s3.9-7.87,10.42-11.12"/><path class="cls-1" d="M62.55,299.11c6.52-3.25,15.15-1.63,15.15-1.63L52.12,310.23s3.91-7.87,10.43-11.12"/><path class="cls-1" d="M8.33,270.34c-4.64-5.62-5-14.4-5-14.4L21.51,278S13,276,8.33,270.34"/><path class="cls-1" d="M25.89,278c-4-6.08-3.47-14.84-3.47-14.84L38.2,287s-8.29-2.91-12.31-9"/><path class="cls-1" d="M50.69,293.19c-6.53-3.26-10.43-11.13-10.43-11.13l25.58,12.76s-8.63,1.62-15.15-1.63"/><path class="cls-3" d="M84.13,72.3"/><path class="cls-3" d="M84.13,126.91"/><path class="cls-4" d="M29.49,260.26a75.35,75.35,0,0,0,25.15,14.86v-205H29.58Z"/><path class="cls-5" d="M54.64,275.12c10.27,4.28,25.12,4.28,25.12,4.28L79.7,70.09H54.64Z"/><path class="cls-6" d="M29.58,70.09l-.09,190.17A75.38,75.38,0,0,1,4.2,203.84V70.09H29.58Z"/><path class="cls-6" d="M79.76,128.28a75.56,75.56,0,0,1,0,151.12Z"/><path class="cls-1" d="M2,67.9V203.84a77.76,77.76,0,1,0,155.52,0V67.9ZM77.51,277.15a73.16,73.16,0,0,1-20.67-3.63V72.29H77.51ZM31.77,72.29H52.44V271.91a73.61,73.61,0,0,1-20.67-12.64ZM6.39,203.84V72.29h21V255.14A73.12,73.12,0,0,1,6.39,203.84Zm146.73,0A73.44,73.44,0,0,1,81.9,277.15V130.53a73.43,73.43,0,0,1,71.22,73.31Z"/><path class="cls-6" d="M95.93,113.21h.36L97.46,118H94.72Zm-5.16,10.55h2.48l.89-3.52H98l.87,3.52h2.78v-1.69l-3.22-11.49H94l-3.22,11.49Zm-8.78,0h3.07v-5.5h4.43V116H85.06v-3.13h4.65v-2.27H82Z"/><path class="cls-6" d="M142.63,106.2h2.86v-8h.34l3.79,8h3.47V93h-2.87v8h-.36l-3.76-8h-3.47ZM135,95.65h.36l1.17,4.75h-2.74ZM129.8,106.2h2.49l.88-3.52h3.88l.87,3.52h2.79v-1.7L137.48,93H133L129.8,104.5Zm-5,0h3.07V93H124.8Zm-7-5.14h1.89v2a2,2,0,0,1-.69.72,2.32,2.32,0,0,1-1.29.32,2.26,2.26,0,0,1-1.3-.34,1.87,1.87,0,0,1-.7-.77V96.2a2,2,0,0,1,.69-.79,2.49,2.49,0,0,1,2.51,0,1.75,1.75,0,0,1,.68.79v1.35h3V95.39a5.78,5.78,0,0,0-.57-.86,4.34,4.34,0,0,0-1-.86,6.05,6.05,0,0,0-1.42-.67,6.27,6.27,0,0,0-1.94-.27,6.18,6.18,0,0,0-2,.28,6,6,0,0,0-1.46.71,4.28,4.28,0,0,0-1,.93,5.81,5.81,0,0,0-.59,1v8a5.81,5.81,0,0,0,.59,1,4.28,4.28,0,0,0,1,.93,5.67,5.67,0,0,0,1.46.71,6.18,6.18,0,0,0,2,.28,6.27,6.27,0,0,0,1.94-.27,5.36,5.36,0,0,0,1.42-.68,4.6,4.6,0,0,0,1-.86,7,7,0,0,0,.57-.84v-5h-4.75ZM104,106.2h7.16v-2.28H107V93H104Zm-10.21,0h8v-2.28h-5v-3.31h4.5V98.33h-4.5v-3h4.84V93H93.75ZM85.06,104v-3.47H87a2.11,2.11,0,0,1,1,.24,1.51,1.51,0,0,1,.66.61v1.71a1.65,1.65,0,0,1-.61.65,2.15,2.15,0,0,1-1.13.26Zm0-5.6V95.24h1.86a2,2,0,0,1,1,.24,1.46,1.46,0,0,1,.62.66v1.38a2,2,0,0,1-.64.62,1.68,1.68,0,0,1-.9.24ZM82,106.2H87.6A4.45,4.45,0,0,0,89,106a4.29,4.29,0,0,0,1.1-.52,4,4,0,0,0,.85-.72,4.86,4.86,0,0,0,.58-.8v-3.2a3.08,3.08,0,0,0-.7-.8,6.43,6.43,0,0,0-.84-.56,4.36,4.36,0,0,0,.83-.62,3.85,3.85,0,0,0,.6-.72v-2.8a5,5,0,0,0-.57-.81,4.37,4.37,0,0,0-.82-.72,4.43,4.43,0,0,0-1.07-.52A4.14,4.14,0,0,0,87.6,93H82Z"/><path class="cls-6" d="M127.79,88.64h7.15V86.36h-4.08V75.45h-3.07Zm-7.67-10.55h.36l1.16,4.75h-2.73ZM115,88.64h2.48l.89-3.52h3.88l.87,3.52h2.78v-1.7l-3.22-11.49h-4.46L115,86.94Zm-6.58,0h3.07V83.46L115,77.15v-1.7h-2.53L110.3,80h-.36l-2.1-4.52h-2.77v1.7l3.31,6ZM93.61,86a5.3,5.3,0,0,0,.6,1,4.22,4.22,0,0,0,1,.93,6,6,0,0,0,1.46.71,7,7,0,0,0,3.92,0,5.84,5.84,0,0,0,1.46-.71,4.28,4.28,0,0,0,1-.93,4.71,4.71,0,0,0,.59-1v-8a4.71,4.71,0,0,0-.59-1,4.28,4.28,0,0,0-1-.93,5.84,5.84,0,0,0-1.46-.71,7,7,0,0,0-3.92,0,6,6,0,0,0-1.46.71,4.22,4.22,0,0,0-1,.93,5.3,5.3,0,0,0-.6,1Zm3.07-7.4a2,2,0,0,1,.69-.8,2.49,2.49,0,0,1,2.51,0,1.9,1.9,0,0,1,.68.8v6.81a2,2,0,0,1-.68.78,2.49,2.49,0,0,1-2.51,0,2.1,2.1,0,0,1-.69-.78Zm-11.62,3V77.73h1.83a2.15,2.15,0,0,1,1,.24,1.52,1.52,0,0,1,.68.67v2.12a1.5,1.5,0,0,1-.67.67,2.13,2.13,0,0,1-1,.24Zm4.2,7h2.39v-1.7l-2.28-3.48a4.17,4.17,0,0,0,1.25-.77,5,5,0,0,0,.9-1.14V77.69A4.16,4.16,0,0,0,89.87,76a4.62,4.62,0,0,0-2.31-.59H82V88.64h3.07V83.8h1.28Z"/><path class="cls-6" d="M106,118.07a1.23,1.23,0,0,0,.48.53,1.73,1.73,0,0,0,1,.26,1.67,1.67,0,0,0,1-.26,1.23,1.23,0,0,0,.48-.53v-1.43a1.35,1.35,0,0,0-.48-.53,1.75,1.75,0,0,0-1-.26,1.8,1.8,0,0,0-1,.26,1.35,1.35,0,0,0-.48.53Z"/><path class="cls-6" d="M144.14,121.88a4.43,4.43,0,0,0,.52.64,4.14,4.14,0,0,0,.89.71,5.49,5.49,0,0,0,1.31.58,5.91,5.91,0,0,0,1.76.23,5.85,5.85,0,0,0,1.76-.24,6.23,6.23,0,0,0,1.32-.58,4,4,0,0,0,1.39-1.34v-4.62a3.76,3.76,0,0,0-.48-.72,3.22,3.22,0,0,0-.76-.65,4,4,0,0,0-1-.46,4.19,4.19,0,0,0-1.27-.18,4.65,4.65,0,0,0-1.47.21,3.82,3.82,0,0,0-1.09.6V113h6v-2.37h-8.76v7.49H147a1.9,1.9,0,0,1,.58-.44,2.08,2.08,0,0,1,1-.24,2.18,2.18,0,0,1,1.11.28,1.34,1.34,0,0,1,.62.63v2.58a1.33,1.33,0,0,1-.62.65,2.17,2.17,0,0,1-1.11.27,2.09,2.09,0,0,1-1.12-.28,1.54,1.54,0,0,1-.63-.64v-1h-2.73Z"/><path class="cls-6" d="M141.52,112a4.68,4.68,0,0,0-1-.81,5.87,5.87,0,0,0-1.38-.63,5.77,5.77,0,0,0-1.79-.26,5.69,5.69,0,0,0-1.77.25,6.06,6.06,0,0,0-1.33.59,4.22,4.22,0,0,0-.89.72,3.92,3.92,0,0,0-.49.61v4.61a2.75,2.75,0,0,0,.48.74,3.44,3.44,0,0,0,.76.64,4.49,4.49,0,0,0,1,.46,4.39,4.39,0,0,0,1.3.18,4.6,4.6,0,0,0,1.5-.22,3.85,3.85,0,0,0,1.14-.59v2.6a1.45,1.45,0,0,1-.62.64,2.4,2.4,0,0,1-2.25,0,1.45,1.45,0,0,1-.62-.64V120H132.9v1.9a5,5,0,0,0,.51.63,4.54,4.54,0,0,0,.89.71,6.23,6.23,0,0,0,1.32.58,5.9,5.9,0,0,0,1.76.24,6.11,6.11,0,0,0,1.79-.24,5.49,5.49,0,0,0,1.38-.62,4.39,4.39,0,0,0,1-.82,4.46,4.46,0,0,0,.57-.84V112.8A3.49,3.49,0,0,0,141.52,112Zm-2.4,4.48a3.81,3.81,0,0,1-.79.43,2.67,2.67,0,0,1-.91.16,2.24,2.24,0,0,1-1.16-.29,1.42,1.42,0,0,1-.63-.64v-2.67a1.45,1.45,0,0,1,.62-.64,2.33,2.33,0,0,1,2.25,0,1.45,1.45,0,0,1,.62.64Z"/><path class="cls-6" d="M130.19,117.83a4.29,4.29,0,0,0-1.14-.87,5,5,0,0,0,1-.73,6.21,6.21,0,0,0,.52-.59v-3.31a6.79,6.79,0,0,0-.47-.55,4.21,4.21,0,0,0-.86-.67,5.83,5.83,0,0,0-1.3-.57,5.63,5.63,0,0,0-1.78-.25,5.85,5.85,0,0,0-1.76.24,5.64,5.64,0,0,0-1.3.56,4.32,4.32,0,0,0-.87.68,5.46,5.46,0,0,0-.48.56v3.31a3.07,3.07,0,0,0,.52.61,4.06,4.06,0,0,0,1,.71,4.37,4.37,0,0,0-1.13.89,4.56,4.56,0,0,0-.64.88v2.79a3.45,3.45,0,0,0,.55.82,4.42,4.42,0,0,0,1,.82,6.33,6.33,0,0,0,5,.63,6,6,0,0,0,1.37-.63,4.42,4.42,0,0,0,1-.82,3.52,3.52,0,0,0,.56-.82v-2.79A4.43,4.43,0,0,0,130.19,117.83Zm-5.74-4.51a1.88,1.88,0,0,1,.6-.52,2.32,2.32,0,0,1,2.17,0,1.78,1.78,0,0,1,.6.52v1.91a1.8,1.8,0,0,1-.6.54,2.32,2.32,0,0,1-2.17,0,1.91,1.91,0,0,1-.6-.54Zm3.43,7.56a1.45,1.45,0,0,1-.62.64,2.15,2.15,0,0,1-1.13.28,2.08,2.08,0,0,1-1.11-.28,1.48,1.48,0,0,1-.63-.64v-2a1.49,1.49,0,0,1,.63-.65,2.18,2.18,0,0,1,1.11-.28,2.25,2.25,0,0,1,1.13.28,1.47,1.47,0,0,1,.62.65Z"/><polygon class="cls-6" points="112.63 123.76 119.37 123.76 119.37 121.82 117.51 121.82 117.51 110.58 115.04 110.58 112.61 111.4 112.61 113.17 114.57 112.97 114.57 121.82 112.63 121.82 112.63 123.76"/></svg>