<svg xmlns="http://www.w3.org/2000/svg" viewBox="0 0 305.86 305.86"><defs><style>.cls-1{fill:#fff;}.cls-2{fill:#0d499c;}.cls-10,.cls-11,.cls-12,.cls-13,.cls-14,.cls-15,.cls-17,.cls-18,.cls-19,.cls-2,.cls-20,.cls-21,.cls-22,.cls-23,.cls-24,.cls-25,.cls-26,.cls-27,.cls-28,.cls-29,.cls-3,.cls-30,.cls-31,.cls-32,.cls-33,.cls-34,.cls-35,.cls-36,.cls-37,.cls-38,.cls-39,.cls-4,.cls-40,.cls-41,.cls-42,.cls-43,.cls-44,.cls-45,.cls-46,.cls-47,.cls-48,.cls-49,.cls-5,.cls-50,.cls-51,.cls-52,.cls-53,.cls-54,.cls-55,.cls-56,.cls-57,.cls-58,.cls-59,.cls-6,.cls-60,.cls-61,.cls-62,.cls-63,.cls-64,.cls-65,.cls-66,.cls-67,.cls-68,.cls-69,.cls-7,.cls-70,.cls-71,.cls-72,.cls-73,.cls-74,.cls-75,.cls-76,.cls-77,.cls-78,.cls-79,.cls-8,.cls-80,.cls-81,.cls-82,.cls-83,.cls-84,.cls-85,.cls-86,.cls-87,.cls-88,.cls-89,.cls-9,.cls-90,.cls-91,.cls-92,.cls-93,.cls-94,.cls-95,.cls-96,.cls-97{fill-rule:evenodd;}.cls-3{fill:#1c4c9d;}.cls-4{fill:#25509e;}.cls-5{fill:#2f53a0;}.cls-6{fill:#3756a0;}.cls-7{fill:#3f5ba2;}.cls-8{fill:#455da2;}.cls-9{fill:#4c61a4;}.cls-10{fill:#5164a5;}.cls-11{fill:#5868a6;}.cls-12{fill:#5d6ca7;}.cls-13{fill:#6370a9;}.cls-14{fill:#bcbec0;}.cls-15,.cls-16{fill:#ffd520;}.cls-17{fill:#ffd949;}.cls-18{fill:#ffd94f;}.cls-19{fill:#ffdb55;}.cls-20{fill:#ffdc5d;}.cls-21{fill:#ffde62;}.cls-22{fill:#ffde67;}.cls-23{fill:#ffde6e;}.cls-24{fill:#ffe073;}.cls-25{fill:#ffe077;}.cls-26{fill:#ffe37e;}.cls-27{fill:#ffe382;}.cls-28{fill:#ffe388;}.cls-29{fill:#ffe58c;}.cls-30{fill:#ffe690;}.cls-31{fill:#ffe896;}.cls-32{fill:#ffe89a;}.cls-33{fill:#ffe89e;}.cls-34{fill:#ffe8a0;}.cls-35{fill:#ffe9a4;}.cls-36{fill:#ffeba6;}.cls-37{fill:#ffebaa;}.cls-38{fill:#ffebac;}.cls-39{fill:#ffedb1;}.cls-40{fill:#ffedb3;}.cls-41{fill:#ffeeb7;}.cls-42{fill:#feb;}.cls-43{fill:#ffeebd;}.cls-44{fill:#fff0c1;}.cls-45{fill:#fff0c3;}.cls-46{fill:#fff1c7;}.cls-47{fill:#fff1c9;}.cls-48{fill:#ffd529;}.cls-49{fill:#ffd733;}.cls-50{fill:#ffd73a;}.cls-51{fill:#ffd940;}.cls-52{fill:#838dc4;}.cls-53{fill:#818bc3;}.cls-54{fill:#7d88c2;}.cls-55{fill:#7b87c1;}.cls-56{fill:#7985c0;}.cls-57{fill:#7783be;}.cls-58{fill:#7581bd;}.cls-59{fill:#737fbc;}.cls-60{fill:#6f7dbb;}.cls-61{fill:#6d7bba;}.cls-62{fill:#6c7ab9;}.cls-63{fill:#6778b8;}.cls-64{fill:#6676b7;}.cls-65{fill:#6474b6;}.cls-66{fill:#6273b5;}.cls-67{fill:#6071b4;}.cls-68{fill:#5e70b3;}.cls-69{fill:#5a6eb3;}.cls-70{fill:#586cb2;}.cls-71{fill:#566bb1;}.cls-72{fill:#5469b0;}.cls-73{fill:#5268af;}.cls-74{fill:#4d66ae;}.cls-75{fill:#4b64ad;}.cls-76{fill:#4963ac;}.cls-77{fill:#4660aa;}.cls-78{fill:#415fa9;}.cls-79{fill:#3f5da8;}.cls-80{fill:#3d5ca7;}.cls-81{fill:#3b5aa6;}.cls-82{fill:#3959a5;}.cls-83{fill:#3657a4;}.cls-84{fill:#3156a4;}.cls-85{fill:#2e54a3;}.cls-86{fill:#2c53a2;}.cls-87{fill:#2853a2;}.cls-88{fill:#2a51a1;}.cls-89{fill:#2551a1;}.cls-90{fill:#2750a0;}.cls-91{fill:#2350a0;}.cls-92{fill:#204fa0;}.cls-93{fill:#1a4ea0;}.cls-94{fill:#1d4d9f;}.cls-95{fill:#194c9e;}.cls-96{fill:#134c9e;}.cls-97{fill:#104a9d;}</style></defs><title>Eszköz 1</title><g id="Réteg_2" data-name="Réteg 2"><g id="Layer_1" data-name="Layer 1"><circle class="cls-1" cx="152.93" cy="152.93" r="152.93"/><path class="cls-2" d="M152.93,300.24h0A147.35,147.35,0,0,0,300.24,152.93h0A147.31,147.31,0,0,0,152.93,5.62h0a147.31,147.31,0,0,0,0,294.62ZM37.08,152.93A115.9,115.9,0,0,1,152.93,37.08h0A115.91,115.91,0,0,1,268.78,152.93h0A115.92,115.92,0,0,1,152.93,268.78h0A115.91,115.91,0,0,1,37.08,152.93Z"/><path class="cls-3" d="M300,152.93a147,147,0,1,0-147,147,147.1,147.1,0,0,0,147-147Zm-6.05,0a141,141,0,1,1-141-141A141,141,0,0,1,293.9,152.93Z"/><path class="cls-4" d="M296.93,152.93a144,144,0,1,0-144,144,144,144,0,0,0,144-144Zm-6,0a138,138,0,1,1-138-138A138.09,138.09,0,0,1,291,152.93Z"/><path class="cls-5" d="M293.9,152.93a141,141,0,1,0-141,141,141,141,0,0,0,141-141Zm-6,0a135,135,0,1,1-135-135A135,135,0,0,1,287.93,152.93Z"/><path class="cls-6" d="M291,152.93a138,138,0,1,0-138,138,138.09,138.09,0,0,0,138-138Zm-6.05,0a132,132,0,1,1-132-132A132,132,0,0,1,284.9,152.93Z"/><path class="cls-7" d="M287.93,152.93a135,135,0,1,0-135,135,135,135,0,0,0,135-135Zm-6,0a129,129,0,1,1-129-129A129.08,129.08,0,0,1,282,152.93Z"/><path class="cls-8" d="M284.9,152.93a132,132,0,1,0-132,132,132,132,0,0,0,132-132Zm-6,0a126,126,0,1,1-126-126A126,126,0,0,1,278.93,152.93Z"/><path class="cls-9" d="M282,152.93a129,129,0,1,0-129,129,129.09,129.09,0,0,0,129-129Zm-6.05,0a123,123,0,1,1-123-123A123,123,0,0,1,275.9,152.93Z"/><path class="cls-10" d="M278.93,152.93a126,126,0,1,0-126,126,126,126,0,0,0,126-126Zm-6,0a120,120,0,1,1-120-120A120.08,120.08,0,0,1,273,152.93Z"/><path class="cls-11" d="M275.9,152.93a123,123,0,1,0-123,123,123,123,0,0,0,123-123Zm-6,0a117,117,0,1,1-117-117A117,117,0,0,1,269.93,152.93Z"/><path class="cls-12" d="M273,152.93a120,120,0,1,0-120,120,120.09,120.09,0,0,0,120-120Zm-235.87,0A115.9,115.9,0,0,1,152.93,37.08h0A115.91,115.91,0,0,1,268.78,152.93h0A115.92,115.92,0,0,1,152.93,268.78h0A115.91,115.91,0,0,1,37.08,152.93Z"/><path class="cls-13" d="M269.93,152.93a117,117,0,1,0-117,117,117,117,0,0,0,117-117Zm-232.85,0A115.9,115.9,0,0,1,152.93,37.08h0A115.91,115.91,0,0,1,268.78,152.93h0A115.92,115.92,0,0,1,152.93,268.78h0A115.91,115.91,0,0,1,37.08,152.93Z"/><path class="cls-14" d="M152.93,5.69a147.24,147.24,0,0,1,0,294.48v5.69A152.93,152.93,0,0,0,152.93,0Zm0,0h0V0h0a152.93,152.93,0,0,0,0,305.86h0v-5.69h0a147.24,147.24,0,0,1,0-294.48Z"/><path class="cls-15" d="M152.93,80.78a8.49,8.49,0,0,0,4-.93A220.59,220.59,0,0,1,185,70.56c1.08-.22,2.09-.14,1.8-2.52,0,0-3.82-12.17-8.93-18.36-7.42-4.1-16-5.18-24.91-5.4-8.93.22-17.5,1.3-25,5.4-5,6.19-8.85,18.36-8.85,18.36-.29,2.38.72,2.3,1.8,2.52A221.7,221.7,0,0,1,149,79.85,8.49,8.49,0,0,0,152.93,80.78Z"/><path class="cls-15" d="M84.24,130.68a8.43,8.43,0,0,0,.36-4.1A213.85,213.85,0,0,1,84.46,97c.14-1,.5-1.94-1.8-2.44,0,0-12.82-.08-20.24,2.8-6.26,5.76-9.93,13.61-12.88,22.11-2.52,8.57-4.18,17.06-2.6,25.41,4.4,6.7,14.76,14,14.76,14,2.16,1,2.38,0,3-.93a218.08,218.08,0,0,1,17.49-23.76A8.56,8.56,0,0,0,84.24,130.68Z"/><path class="cls-15" d="M110.52,211.39a8.51,8.51,0,0,0-3.82-1.58,213.8,213.8,0,0,1-28.15-9.07c-1-.36-1.73-1.08-3,1,0,0-4,12.17-3.6,20.16,3.6,7.71,9.94,13.61,17.06,19,7.35,5.11,14.91,9.29,23.4,10.3,7.71-2,18-9.58,18-9.58,1.59-1.8.72-2.3,0-3.09a211.62,211.62,0,0,1-17.28-24A9,9,0,0,0,110.52,211.39Z"/><path class="cls-15" d="M195.34,211.39a8.37,8.37,0,0,0-2.67,3.1,210.35,210.35,0,0,1-17.28,24c-.72.79-1.58,1.29,0,3.09,0,0,10.3,7.56,18,9.58,8.5-1,16.06-5.19,23.4-10.3,7.13-5.4,13.47-11.3,17.07-19,.43-8-3.6-20.16-3.6-20.16-1.23-2.08-1.95-1.36-3-1a213.8,213.8,0,0,1-28.15,9.07A8.52,8.52,0,0,0,195.34,211.39Z"/><path class="cls-15" d="M221.62,130.68a8.45,8.45,0,0,0,2.08,3.53A216.55,216.55,0,0,1,241.2,158c.58.93.79,1.94,3,.93,0,0,10.37-7.34,14.76-14,1.59-8.35,0-16.84-2.59-25.41-2.95-8.5-6.62-16.35-12.89-22.11-7.41-2.88-20.23-2.8-20.23-2.8-2.3.5-1.94,1.44-1.8,2.44a215.46,215.46,0,0,1-.14,29.6A8.31,8.31,0,0,0,221.62,130.68Z"/><path class="cls-16" d="M186.77,68S183,55.87,177.84,49.68c-7.42-4.1-16-5.18-24.91-5.4-8.93.22-17.5,1.3-25,5.4-5,6.19-8.85,18.36-8.85,18.36-.29,2.38.72,2.3,1.73,2.52A219.66,219.66,0,0,1,149,79.85a8.9,8.9,0,0,0,7.92,0A220.59,220.59,0,0,1,185,70.56C186.05,70.34,187.06,70.42,186.77,68Z"/><path class="cls-17" d="M127.94,49.68c-.43.58-.93,1.22-1.36,1.87a54.17,54.17,0,0,1,52.7,0c-.5-.65-.94-1.29-1.44-1.87h0c-7.42-4.1-16-5.18-24.91-5.4-8.93.22-17.5,1.3-25,5.4Z"/><path class="cls-18" d="M127.94,49.68c-.93,1.22-1.87,2.66-2.8,4.18a53,53,0,0,1,55.51,0,29.86,29.86,0,0,0-2.81-4.18h0c-7.42-4.1-16-5.18-24.91-5.4-8.93.22-17.5,1.3-25,5.4Z"/><path class="cls-19" d="M179.28,51.55a54.17,54.17,0,0,0-52.7,0,47.35,47.35,0,0,0-2.67,4.61,51.6,51.6,0,0,1,58,0C181.08,54.58,180.22,53,179.28,51.55Z"/><path class="cls-20" d="M180.65,53.86a53,53,0,0,0-55.51,0c-.87,1.51-1.66,3.09-2.38,4.68a50.35,50.35,0,0,1,60.26,0C182.3,57,181.51,55.37,180.65,53.86Z"/><path class="cls-21" d="M181.94,56.16a51.6,51.6,0,0,0-58,0c-.79,1.66-1.58,3.31-2.23,4.82a49.22,49.22,0,0,1,62.42,0C183.46,59.47,182.74,57.82,181.94,56.16Z"/><path class="cls-22" d="M183,58.54a50.35,50.35,0,0,0-60.26,0c-.79,1.8-1.51,3.52-2.09,5a47.78,47.78,0,0,1,64.51,0C184.61,62.06,183.89,60.34,183,58.54Z"/><path class="cls-23" d="M184.1,61a49.22,49.22,0,0,0-62.42,0c-.86,2.09-1.58,4-2,5.33a46.59,46.59,0,0,1,66.53,0C185.76,65,185,63.07,184.1,61Z"/><path class="cls-24" d="M185.18,63.58a47.78,47.78,0,0,0-64.51,0c-1,2.59-1.58,4.46-1.58,4.46h0a3.34,3.34,0,0,0-.07.79,45.31,45.31,0,0,1,67.82,0,3.34,3.34,0,0,0-.07-.79h0S186.19,66.17,185.18,63.58Z"/><path class="cls-25" d="M186.19,66.31a46.59,46.59,0,0,0-66.53,0,12.14,12.14,0,0,0-.57,1.73h0c-.15,1.22.07,1.8.43,2.09a44.18,44.18,0,0,1,66.82,0c.36-.29.57-.87.43-2.09h0Z"/><path class="cls-26" d="M186.84,68.83a45.31,45.31,0,0,0-67.82,0c0,1.59.93,1.51,1.8,1.73a42.86,42.86,0,0,1,64.22,0C185.9,70.34,186.77,70.42,186.84,68.83Z"/><path class="cls-27" d="M186.34,70.13a44.18,44.18,0,0,0-66.82,0,2.71,2.71,0,0,0,1.3.43h0c.5.14.93.22,1.36.36a41.6,41.6,0,0,1,61.42,0c.5-.14.94-.22,1.37-.36h0A2.77,2.77,0,0,0,186.34,70.13Z"/><path class="cls-28" d="M185,70.56a42.86,42.86,0,0,0-64.22,0h0c.93.22,1.87.43,2.8.72a40.23,40.23,0,0,1,58.61,0c.94-.29,1.87-.5,2.74-.72H185Z"/><path class="cls-29" d="M183.6,70.92a41.6,41.6,0,0,0-61.42,0c.94.22,1.88.43,2.81.72a39.11,39.11,0,0,1,55.87,0C181.8,71.35,182.74,71.14,183.6,70.92Z"/><path class="cls-30" d="M182.23,71.28a40.23,40.23,0,0,0-58.61,0c.87.22,1.8.5,2.74.72a37.81,37.81,0,0,1,53.06,0C180.36,71.78,181.3,71.5,182.23,71.28Z"/><path class="cls-31" d="M180.86,71.64a39.11,39.11,0,0,0-55.87,0c.94.29,1.87.5,2.81.79a36.55,36.55,0,0,1,50.26,0C179,72.14,179.93,71.93,180.86,71.64Z"/><path class="cls-32" d="M179.42,72a37.81,37.81,0,0,0-53.06,0l2.81.86a35.16,35.16,0,0,1,47.45,0Z"/><path class="cls-33" d="M178.06,72.43a36.55,36.55,0,0,0-50.26,0l2.81.87a34,34,0,0,1,44.64,0Z"/><path class="cls-34" d="M176.62,72.86a35.16,35.16,0,0,0-47.45,0c1,.29,1.94.58,2.88.87a32.61,32.61,0,0,1,41.76,0Z"/><path class="cls-35" d="M175.25,73.3a34,34,0,0,0-44.64,0l2.88.86a31.55,31.55,0,0,1,38.88,0C173.3,73.87,174.24,73.58,175.25,73.3Z"/><path class="cls-36" d="M173.81,73.73a32.61,32.61,0,0,0-41.76,0c.93.29,1.94.65,2.88.93a30.41,30.41,0,0,1,36,0C171.86,74.38,172.8,74,173.81,73.73Z"/><path class="cls-37" d="M172.37,74.16a31.55,31.55,0,0,0-38.88,0c1,.36,1.94.65,2.95,1a28.79,28.79,0,0,1,33,0C170.42,74.81,171.36,74.52,172.37,74.16Z"/><path class="cls-38" d="M170.93,74.66a30.41,30.41,0,0,0-36,0c1,.36,2,.65,2.95,1a27.86,27.86,0,0,1,30,0C168.91,75.31,169.92,75,170.93,74.66Z"/><path class="cls-39" d="M169.42,75.17a28.79,28.79,0,0,0-33,0l3,1.08a26.08,26.08,0,0,1,13.47-3.75,26.7,26.7,0,0,1,13.46,3.68C167.4,75.89,168.41,75.53,169.42,75.17Z"/><path class="cls-40" d="M167.9,75.67a27.86,27.86,0,0,0-30,0c1.08.36,2.16.72,3.17,1.08a25.4,25.4,0,0,1,23.76,0C165.82,76.39,166.82,76,167.9,75.67Z"/><path class="cls-41" d="M166.39,76.18a26.7,26.7,0,0,0-13.46-3.68,26.08,26.08,0,0,0-13.47,3.75c1.08.36,2.16.72,3.17,1.08a24.1,24.1,0,0,1,20.59,0C164.16,77,165.24,76.61,166.39,76.18Z"/><path class="cls-42" d="M164.81,76.75a25.4,25.4,0,0,0-23.76,0c1.15.43,2.3.87,3.31,1.23a23,23,0,0,1,17.14,0C162.5,77.62,163.66,77.18,164.81,76.75Z"/><path class="cls-43" d="M163.22,77.33a24.1,24.1,0,0,0-20.59,0c1.3.5,2.45.93,3.46,1.37a21.63,21.63,0,0,1,6.84-1.16,20.91,20.91,0,0,1,6.77,1.16C160.7,78.26,161.93,77.83,163.22,77.33Z"/><path class="cls-44" d="M161.5,78a23,23,0,0,0-17.14,0L148,79.42a20.95,20.95,0,0,1,9.79,0Z"/><path class="cls-45" d="M159.7,78.7a20.91,20.91,0,0,0-6.77-1.16,21.63,21.63,0,0,0-6.84,1.16c1.22.43,2.23.86,2.88,1.15h0l1.08.43a19.84,19.84,0,0,1,2.88-.22,20.84,20.84,0,0,1,2.88.22l1.08-.43h0C157.54,79.56,158.54,79.13,159.7,78.7Z"/><path class="cls-46" d="M157.82,79.42a20.95,20.95,0,0,0-9.79,0,9.31,9.31,0,0,1,.94.43h0a8.49,8.49,0,0,0,4,.93h0a8.49,8.49,0,0,0,4-.93h0A9.09,9.09,0,0,1,157.82,79.42Z"/><path class="cls-47" d="M155.81,80.28a20.84,20.84,0,0,0-2.88-.22,19.84,19.84,0,0,0-2.88.22,7.88,7.88,0,0,0,2.88.5h0A8.22,8.22,0,0,0,155.81,80.28Z"/><path class="cls-16" d="M84.24,130.68a8.43,8.43,0,0,0,.36-4.1A213.85,213.85,0,0,1,84.46,97c.14-1,.5-1.94-1.8-2.44,0,0-12.82-.08-20.24,2.8-6.26,5.76-9.93,13.61-12.88,22.11-2.52,8.57-4.18,17.06-2.6,25.41,4.4,6.7,14.76,14,14.76,14,2.16,1,2.38,0,3-.93a218.08,218.08,0,0,1,17.49-23.76A8.56,8.56,0,0,0,84.24,130.68Z"/><path class="cls-15" d="M62.42,97.34c-6.26,5.76-9.93,13.61-12.88,22.11h0c-.44,1.44-.87,3-1.23,4.39a63.51,63.51,0,0,1,33.55-29.3c-2.88,0-13.1.36-19.44,2.8Z"/><path class="cls-48" d="M62.42,97.34a10.12,10.12,0,0,0-.79.72,12.82,12.82,0,0,1,1.23-.93l-.44.21Z"/><path class="cls-49" d="M62.42,97.34a38.86,38.86,0,0,0-5.83,7A69.84,69.84,0,0,1,67.25,96a29.92,29.92,0,0,0-4.83,1.36Z"/><path class="cls-50" d="M62.86,97.13a12.82,12.82,0,0,0-1.23.93,45.11,45.11,0,0,0-8.06,11.52A68.22,68.22,0,0,1,71.28,95.26,46,46,0,0,0,62.86,97.13Z"/><path class="cls-51" d="M67.25,96a69.84,69.84,0,0,0-10.66,8.35,58.88,58.88,0,0,0-5.33,10.58,65.67,65.67,0,0,1,24-20.09A66.66,66.66,0,0,0,67.25,96Z"/><path class="cls-17" d="M71.28,95.26a68.22,68.22,0,0,0-17.71,14.32,100.26,100.26,0,0,0-4,9.87h0c-.08.36-.22.79-.36,1.22A64.24,64.24,0,0,1,79.42,94.61C77.33,94.68,74.3,94.9,71.28,95.26Z"/><path class="cls-18" d="M75.24,94.82a65.67,65.67,0,0,0-24,20.09c-.64,1.51-1.15,3-1.72,4.54h0c-.72,2.37-1.37,4.75-1.88,7.13A62.47,62.47,0,0,1,83.3,94.68c-.21-.07-.43-.07-.64-.14h-.15C82,94.54,79,94.54,75.24,94.82Z"/><path class="cls-19" d="M79.42,94.61a64.24,64.24,0,0,0-30.24,26.06A75.25,75.25,0,0,0,46.58,133a61.14,61.14,0,0,1,38-37.15c-.07-.57-.43-1-1.87-1.29h-.15C82.22,94.54,81.07,94.54,79.42,94.61Z"/><path class="cls-20" d="M83.3,94.68a62.47,62.47,0,0,0-35.64,31.9A52.08,52.08,0,0,0,46.3,139,59.79,59.79,0,0,1,84.46,97.42V97h0C84.53,96.05,84.89,95.18,83.3,94.68Z"/><path class="cls-21" d="M84.53,95.83A61.14,61.14,0,0,0,46.58,133a42.65,42.65,0,0,0,.22,11A57.92,57.92,0,0,1,84.31,99.07c.07-.72.15-1.37.15-2.09h0A3.19,3.19,0,0,0,84.53,95.83Z"/><path class="cls-22" d="M84.46,97.42A59.79,59.79,0,0,0,46.3,139a40.77,40.77,0,0,0,.64,5.9h0a15.51,15.51,0,0,0,1,1.37,56.5,56.5,0,0,1,36.29-45.57Z"/><path class="cls-23" d="M84.31,99.07A57.92,57.92,0,0,0,46.8,143.93c.07.29.07.65.14.93h0a27.67,27.67,0,0,0,2.31,3,55.05,55.05,0,0,1,34.92-45.58C84.24,101.16,84.24,100.08,84.31,99.07Z"/><path class="cls-24" d="M84.24,100.66A56.5,56.5,0,0,0,48,146.23a35.85,35.85,0,0,0,2.67,3.17A53.43,53.43,0,0,1,84.1,103.9C84.17,102.82,84.17,101.74,84.24,100.66Z"/><path class="cls-25" d="M84.17,102.31a55.05,55.05,0,0,0-34.92,45.58c.86,1,1.8,1.94,2.73,3A51.93,51.93,0,0,1,84.1,105.55C84.1,104.47,84.1,103.39,84.17,102.31Z"/><path class="cls-26" d="M84.1,103.9a53.43,53.43,0,0,0-33.48,45.5l2.8,2.81A50.7,50.7,0,0,1,84,107.14C84,106.06,84.1,105,84.1,103.9Z"/><path class="cls-27" d="M84.1,105.55A51.93,51.93,0,0,0,52,150.84c1,.94,2,1.8,3,2.59A48.92,48.92,0,0,1,84,108.79C84,107.71,84,106.63,84.1,105.55Z"/><path class="cls-28" d="M84,107.14a50.7,50.7,0,0,0-30.6,45.07c1,.86,2,1.73,3,2.52V153.5a47.34,47.34,0,0,1,27.64-43Z"/><path class="cls-29" d="M84,108.79a48.92,48.92,0,0,0-29.08,44.64c1.08,1,2.08,1.87,3,2.59-.07-.79-.07-1.65-.07-2.52A46,46,0,0,1,84,112Z"/><path class="cls-30" d="M84,110.45A47.34,47.34,0,0,0,56.38,153.5v1.23c1.22,1,2.3,1.87,3.16,2.59a34.93,34.93,0,0,1-.21-3.82A44.58,44.58,0,0,1,84,113.69Z"/><path class="cls-31" d="M84,112A46,46,0,0,0,57.89,153.5c0,.87,0,1.73.07,2.52,1.37,1.16,2.52,2,3.17,2.52a37.92,37.92,0,0,1-.29-5A43,43,0,0,1,84.1,115.34C84,114.26,84,113.18,84,112Z"/><path class="cls-32" d="M84,113.69A44.58,44.58,0,0,0,59.33,153.5a34.93,34.93,0,0,0,.21,3.82c1.3,1,2.16,1.58,2.16,1.58h0a2.1,2.1,0,0,0,1,.36,51.78,51.78,0,0,1-.36-5.76A41.61,41.61,0,0,1,84.1,117C84.1,115.92,84,114.84,84,113.69Z"/><path class="cls-33" d="M84.1,115.34A43,43,0,0,0,60.84,153.5a37.92,37.92,0,0,0,.29,5l.57.36h0c1.52.72,2.09.44,2.45-.07a45.44,45.44,0,0,1-.36-5.33,40.07,40.07,0,0,1,20.38-34.84C84.1,117.65,84.1,116.5,84.1,115.34Z"/><path class="cls-34" d="M84.1,117a41.61,41.61,0,0,0-21.75,36.5,51.78,51.78,0,0,0,.36,5.76c1.23.29,1.51-.5,1.95-1.29h0c.21-.36.5-.79.79-1.23-.07-1.08-.15-2.16-.15-3.24a38.41,38.41,0,0,1,18.94-33.12C84.17,119.3,84.17,118.22,84.1,117Z"/><path class="cls-35" d="M84.17,118.66A40.07,40.07,0,0,0,63.79,153.5a45.44,45.44,0,0,0,.36,5.33c.22-.29.29-.57.51-.86h0c.64-1.08,1.36-2.23,2.16-3.39V153.5A37.05,37.05,0,0,1,84.31,122C84.24,121,84.17,119.88,84.17,118.66Z"/><path class="cls-36" d="M84.24,120.38A38.41,38.41,0,0,0,65.3,153.5c0,1.08.08,2.16.15,3.24.86-1.44,1.87-2.88,2.81-4.32a35.66,35.66,0,0,1,16.12-28.65C84.31,122.76,84.24,121.61,84.24,120.38Z"/><path class="cls-37" d="M84.31,122A37.05,37.05,0,0,0,66.82,153.5v1.08c1-1.51,2-3,3.09-4.53A34.22,34.22,0,0,1,84.53,125.5C84.46,124.56,84.38,123.41,84.31,122Z"/><path class="cls-38" d="M84.38,123.77a35.66,35.66,0,0,0-16.12,28.65c1.15-1.65,2.37-3.38,3.6-5a32.45,32.45,0,0,1,12.81-20.23c0-.14-.07-.36-.07-.57h0C84.53,125.93,84.46,124.92,84.38,123.77Z"/><path class="cls-39" d="M84.53,125.5a34.22,34.22,0,0,0-14.62,24.55c1.44-2,2.88-4,4.25-5.76A31.23,31.23,0,0,1,84.67,129a13.8,13.8,0,0,0-.07-2.44h0C84.6,126.29,84.53,125.93,84.53,125.5Z"/><path class="cls-40" d="M84.67,127.15a32.75,32.75,0,0,0-12.81,20.23c2-2.8,4-5.47,5.83-7.77a30.22,30.22,0,0,1,6.19-8,3.75,3.75,0,0,0,.36-.94h0A8.21,8.21,0,0,0,84.67,127.15Z"/><path class="cls-41" d="M84.67,129a31.23,31.23,0,0,0-10.51,15.27c3.46-4.68,6.55-8.5,8-10.08h0a8.56,8.56,0,0,0,2.09-3.53h0A7.69,7.69,0,0,0,84.67,129Z"/><path class="cls-42" d="M83.88,131.62a30.22,30.22,0,0,0-6.19,8c1.94-2.45,3.53-4.39,4.46-5.4h0A8.92,8.92,0,0,0,83.88,131.62Z"/><path class="cls-16" d="M113.18,214.49a9,9,0,0,0-2.66-3.1,8.51,8.51,0,0,0-3.82-1.58,213.8,213.8,0,0,1-28.15-9.07c-1-.36-1.8-1.08-3,1,0,0-4,12.17-3.6,20.16,3.6,7.71,9.94,13.61,17.06,19,7.35,5.11,14.91,9.29,23.33,10.3,7.78-2,18.07-9.58,18.07-9.58,1.59-1.8.72-2.3,0-3.09A211.62,211.62,0,0,1,113.18,214.49Z"/><path class="cls-15" d="M112.39,251.21h0A45.6,45.6,0,0,0,123.84,246a78.2,78.2,0,0,1-41-43.49c-1.51-.57-3-1.15-4.25-1.72h0a5.19,5.19,0,0,0-1.29-.44h0c-.51,0-1,.36-1.66,1.44h0s-4,12.17-3.6,20.16h0c3.6,7.71,9.94,13.61,17.06,19h0C96.41,246,104,250.2,112.39,251.21Z"/><path class="cls-48" d="M72,221.4a94.77,94.77,0,0,0,6.26,9.79,73.9,73.9,0,0,0,10.8,9.72h0a78,78,0,0,0,9.29,5.69,92.51,92.51,0,0,1-25.77-32.54A36.86,36.86,0,0,0,72,221.4Z"/><path class="cls-49" d="M72.14,217.51a95.14,95.14,0,0,0,17,23.47c5.47,3.75,11,7.06,17,8.86a90,90,0,0,1-32.91-39.17A57.84,57.84,0,0,0,72.14,217.51Z"/><path class="cls-50" d="M72.58,214.06A92.51,92.51,0,0,0,98.35,246.6,41.32,41.32,0,0,0,112,251.21a89,89,0,0,1-38-43.78C73.51,209.38,72.94,211.68,72.58,214.06Z"/><path class="cls-51" d="M73.22,210.67a90,90,0,0,0,32.91,39.17,32.66,32.66,0,0,0,6.26,1.37h0a15.4,15.4,0,0,0,2.38-.72,86.25,86.25,0,0,1-39.89-46.23A64.76,64.76,0,0,0,73.22,210.67Z"/><path class="cls-17" d="M73.94,207.43a89,89,0,0,0,38,43.78h.43a26.06,26.06,0,0,0,4.68-1.66,84.27,84.27,0,0,1-41.18-48.24c-.07.15-.22.29-.29.43h0S74.81,204.12,73.94,207.43Z"/><path class="cls-18" d="M74.88,204.26a86.25,86.25,0,0,0,39.89,46.23c1.51-.58,3-1.3,4.53-2a82.15,82.15,0,0,1-41.61-48.09c-.15,0-.29-.08-.43-.08h0c-.51,0-1,.36-1.66,1.44h0S75.31,202.68,74.88,204.26Z"/><path class="cls-19" d="M75.89,201.31a84.27,84.27,0,0,0,41.18,48.24c1.51-.72,3-1.44,4.39-2.23a80.33,80.33,0,0,1-41.4-45.94l-1.51-.64h0a5.19,5.19,0,0,0-1.29-.44h0C76.82,200.3,76.39,200.59,75.89,201.31Z"/><path class="cls-20" d="M77.69,200.38a82.15,82.15,0,0,0,41.61,48.09c1.52-.79,3-1.58,4.25-2.37a78.09,78.09,0,0,1-41-43.78,42.41,42.41,0,0,1-4-1.58h0A3.53,3.53,0,0,1,77.69,200.38Z"/><path class="cls-21" d="M80.06,201.38a80.33,80.33,0,0,0,41.4,45.94c1.52-.79,2.88-1.66,4.11-2.45a76.8,76.8,0,0,1-40.68-41.61C83.23,202.61,81.58,202,80.06,201.38Z"/><path class="cls-22" d="M82.51,202.32a78.09,78.09,0,0,0,41,43.78c1.51-.87,2.88-1.73,4-2.52a74.12,74.12,0,0,1-40.17-39.46C85.75,203.54,84.1,203,82.51,202.32Z"/><path class="cls-23" d="M84.89,203.26a76.8,76.8,0,0,0,40.68,41.61c1.73-1.08,3.09-2,4-2.59A72.53,72.53,0,0,1,89.93,205Z"/><path class="cls-24" d="M87.41,204.12a74.12,74.12,0,0,0,40.17,39.46c1.73-1.16,2.88-2,2.88-2h0a5,5,0,0,0,.65-.86,70.68,70.68,0,0,1-38.66-35C90.79,205.27,89.06,204.7,87.41,204.12Z"/><path class="cls-25" d="M89.93,205a72.53,72.53,0,0,0,39.6,37.3c.57-.43.93-.65.93-.65h0c1.59-1.8.72-2.3,0-3.09h0l-.07-.08A69.22,69.22,0,0,1,95,206.57C93.38,206.06,91.66,205.56,89.93,205Z"/><path class="cls-26" d="M92.45,205.78a70.68,70.68,0,0,0,38.66,35c.65-1.15-.07-1.59-.65-2.23h0c-.86-1.08-1.87-2.24-2.8-3.39a67.36,67.36,0,0,1-30-27.79C96.05,206.93,94.32,206.35,92.45,205.78Z"/><path class="cls-27" d="M95,206.57a69.22,69.22,0,0,0,35.35,31.89c-1.8-2.08-3.67-4.46-5.47-6.91a64.72,64.72,0,0,1-24.48-23.4C98.78,207.72,97,207.22,95,206.57Z"/><path class="cls-28" d="M97.7,207.36a67.36,67.36,0,0,0,30,27.79c-2-2.45-3.89-5.11-5.76-7.63a63.52,63.52,0,0,1-18.65-18.58C101.66,208.51,99.79,208,97.7,207.36Z"/><path class="cls-29" d="M100.44,208.15a64.72,64.72,0,0,0,24.48,23.4c-2.3-3-4.46-6.05-6.41-8.85a61.19,61.19,0,0,1-12.45-13C104.76,209.38,102.82,208.87,100.44,208.15Z"/><path class="cls-30" d="M103.25,208.94a63.52,63.52,0,0,0,18.65,18.58c-3.1-4.32-5.84-8.35-7.49-11a68.75,68.75,0,0,1-5.26-5.9,8.61,8.61,0,0,0-2.45-.79h0C105.91,209.59,104.69,209.3,103.25,208.94Z"/><path class="cls-31" d="M106.06,209.66a61.19,61.19,0,0,0,12.45,13c-2.52-3.6-4.46-6.7-5.33-8.21h0a9,9,0,0,0-2.66-3.1h0a8.51,8.51,0,0,0-3.82-1.58h0C106.49,209.74,106.27,209.74,106.06,209.66Z"/><path class="cls-32" d="M109.15,210.6a68.75,68.75,0,0,0,5.26,5.9c-.51-.79-.94-1.51-1.23-2h0a9,9,0,0,0-2.66-3.1h0A9.64,9.64,0,0,0,109.15,210.6Z"/><path class="cls-16" d="M227.3,200.74a213.8,213.8,0,0,1-28.15,9.07,8.52,8.52,0,0,0-3.81,1.58,8.37,8.37,0,0,0-2.67,3.1,210.35,210.35,0,0,1-17.28,24c-.72.79-1.58,1.29,0,3.09,0,0,10.3,7.56,18,9.58,8.5-1,16.06-5.19,23.4-10.3,7.13-5.4,13.47-11.3,17.07-19,.43-8-3.6-20.16-3.6-20.16C229,199.66,228.31,200.38,227.3,200.74Z"/><path class="cls-15" d="M193.39,251.21h0c8.5-1,16.06-5.19,23.4-10.3h0c7.13-5.4,13.47-11.3,17.07-19h0c.43-8-3.6-20.16-3.6-20.16h0c-.51-.79-.87-1.22-1.23-1.36a82.08,82.08,0,0,1-42.33,48.16A31.4,31.4,0,0,0,193.39,251.21Z"/><path class="cls-48" d="M218.45,239.62c6.41-5,12.09-10.66,15.41-17.72h0a25.71,25.71,0,0,0-.08-3.38A94.22,94.22,0,0,1,218.45,239.62Z"/><path class="cls-49" d="M208.3,246.24a95.6,95.6,0,0,0,8.49-5.33h0c7.13-5.4,13.47-11.3,17.07-19h0a39.31,39.31,0,0,0-.44-7A92.36,92.36,0,0,1,208.3,246.24Z"/><path class="cls-50" d="M218.45,239.62a94.22,94.22,0,0,0,15.33-21.1,45.32,45.32,0,0,0-1-7,89.58,89.58,0,0,1-32.91,38.3c6-1.87,11.45-5.18,16.92-8.93h0C217.37,240.48,217.87,240.05,218.45,239.62Z"/><path class="cls-51" d="M208.3,246.24a92.36,92.36,0,0,0,25.12-31.32c-.36-2.38-.86-4.68-1.36-6.7a87.6,87.6,0,0,1-38.38,43A44.52,44.52,0,0,0,208.3,246.24Z"/><path class="cls-17" d="M199.87,249.84a89.58,89.58,0,0,0,32.91-38.3c-.51-2.52-1.08-4.83-1.59-6.56a85.51,85.51,0,0,1-40.25,45.44,12.61,12.61,0,0,0,2.45.79h0A32.6,32.6,0,0,0,199.87,249.84Z"/><path class="cls-18" d="M193.68,251.21a87.6,87.6,0,0,0,38.38-43c-.87-3.74-1.8-6.48-1.8-6.48h0a83.58,83.58,0,0,1-41.69,47.67,25,25,0,0,0,4.82,1.8h.29Z"/><path class="cls-19" d="M190.94,250.42A85.51,85.51,0,0,0,231.19,205c-.5-1.94-.93-3.24-.93-3.24h0c-.65-1.08-1.16-1.36-1.59-1.44a81.31,81.31,0,0,1-42.41,48C187.85,249.12,189.43,249.84,190.94,250.42Z"/><path class="cls-20" d="M188.57,249.41a83.58,83.58,0,0,0,41.69-47.67c-.65-1.08-1.16-1.44-1.66-1.44h0a5.39,5.39,0,0,0-1.3.44h0a7.44,7.44,0,0,1-1.08.5,79.51,79.51,0,0,1-42.12,45.94C185.54,248,187.06,248.76,188.57,249.41Z"/><path class="cls-21" d="M186.26,248.33a81.31,81.31,0,0,0,42.41-48h-.07a5.39,5.39,0,0,0-1.3.44h0c-1.08.5-2.3,1-3.52,1.44A77.62,77.62,0,0,1,181.94,246C183.31,246.74,184.75,247.54,186.26,248.33Z"/><path class="cls-22" d="M184.1,247.18a79.51,79.51,0,0,0,42.12-45.94c-1.51.58-3.24,1.22-4.89,1.87a75.87,75.87,0,0,1-41.4,41.55C181.15,245.45,182.59,246.31,184.1,247.18Z"/><path class="cls-23" d="M181.94,246a77.62,77.62,0,0,0,41.84-43.77c-1.59.64-3.32,1.22-5,1.8a74,74,0,0,1-41,39.38C179,244.08,180.36,245,181.94,246Z"/><path class="cls-24" d="M179.93,244.66a75.87,75.87,0,0,0,41.4-41.55l-5.11,1.73A71.74,71.74,0,0,1,175.9,242C176.62,242.5,178.06,243.5,179.93,244.66Z"/><path class="cls-25" d="M177.84,243.36a74,74,0,0,0,41-39.38c-1.73.64-3.53,1.22-5.19,1.72a69.85,69.85,0,0,1-39.09,34.64,3.57,3.57,0,0,0,.86,1.29h0S176.33,242.28,177.84,243.36Z"/><path class="cls-26" d="M175.9,242a71.74,71.74,0,0,0,40.32-37.15c-1.8.65-3.6,1.15-5.26,1.73a68,68,0,0,1-34.85,31c-.29.36-.5.65-.72.94h0c-.72.79-1.58,1.29,0,3.09h0A2.72,2.72,0,0,0,175.9,242Z"/><path class="cls-27" d="M174.53,240.34a69.85,69.85,0,0,0,39.09-34.64c-1.87.58-3.67,1.16-5.4,1.66a65.81,65.81,0,0,1-29.44,26.93c-1.16,1.51-2.31,3-3.39,4.25h0C174.89,239.11,174.31,239.47,174.53,240.34Z"/><path class="cls-28" d="M176.11,237.6a68,68,0,0,0,34.85-31c-2,.57-3.89,1.15-5.54,1.58a63.47,63.47,0,0,1-23.84,22.54C179.78,233.14,177.91,235.51,176.11,237.6Z"/><path class="cls-29" d="M178.78,234.29a65.81,65.81,0,0,0,29.44-26.93c-2.08.65-4,1.15-5.61,1.58a62.27,62.27,0,0,1-18.07,17.72C182.74,229.18,180.79,231.84,178.78,234.29Z"/><path class="cls-30" d="M181.58,230.69a63.47,63.47,0,0,0,23.84-22.54c-2.45.72-4.47,1.23-5.76,1.51a58.93,58.93,0,0,1-11.74,12.17C186.05,224.57,183.89,227.66,181.58,230.69Z"/><path class="cls-31" d="M184.54,226.66a62.27,62.27,0,0,0,18.07-17.72c-1.51.36-2.67.65-3.46.87h0a8.12,8.12,0,0,0-2.81.93,45.41,45.41,0,0,1-4.39,4.9C190.51,218,187.78,222.19,184.54,226.66Z"/><path class="cls-32" d="M187.92,221.83a58.93,58.93,0,0,0,11.74-12.17c-.22.08-.36.08-.51.15h0a8.52,8.52,0,0,0-3.81,1.58h0a8.37,8.37,0,0,0-2.67,3.1h0C191.88,215.86,190.15,218.59,187.92,221.83Z"/><path class="cls-33" d="M192,215.64a45.41,45.41,0,0,0,4.39-4.9,6.39,6.39,0,0,0-1,.65h0a8.37,8.37,0,0,0-2.67,3.1h0C192.46,214.85,192.24,215.21,192,215.64Z"/><path class="cls-16" d="M256.25,119.45c-2.95-8.5-6.55-16.35-12.82-22.11-7.41-2.88-20.23-2.8-20.23-2.8-2.3.5-1.94,1.44-1.8,2.44a215.46,215.46,0,0,1-.14,29.6,8.31,8.31,0,0,0,.36,4.1,8.45,8.45,0,0,0,2.08,3.53A216.55,216.55,0,0,1,241.2,158c.58.93.79,1.94,3,.93,0,0,10.37-7.34,14.76-14C260.5,136.51,258.84,128,256.25,119.45Z"/><path class="cls-15" d="M253.15,111.53a44.07,44.07,0,0,0-9.72-14.19h0a41.52,41.52,0,0,0-10.29-2.23A66,66,0,0,1,253.15,111.53Z"/><path class="cls-49" d="M244,97.85a3.78,3.78,0,0,0-.58-.51h0c-.07-.07-.21-.07-.29-.14Z"/><path class="cls-50" d="M249.26,104.33a36.21,36.21,0,0,0-5.83-7h0A29.79,29.79,0,0,0,238.61,96,66.09,66.09,0,0,1,249.26,104.33Z"/><path class="cls-51" d="M244,97.85l-.87-.65a43,43,0,0,0-8.64-1.94,66.43,66.43,0,0,1,17.79,14.47A41.88,41.88,0,0,0,244,97.85Z"/><path class="cls-17" d="M249.26,104.33A66.09,66.09,0,0,0,238.61,96a68.35,68.35,0,0,0-8.21-1.16,65.65,65.65,0,0,1,24.26,20.31A60.19,60.19,0,0,0,249.26,104.33Z"/><path class="cls-18" d="M252.29,109.73A66.43,66.43,0,0,0,234.5,95.26a81.07,81.07,0,0,0-8.35-.65A64,64,0,0,1,256.75,121a10.43,10.43,0,0,0-.5-1.58h0A82.3,82.3,0,0,0,252.29,109.73Z"/><path class="cls-19" d="M254.66,115.13A65.65,65.65,0,0,0,230.4,94.82c-3.53-.28-6.34-.28-7-.28h-.22a7.24,7.24,0,0,0-.86.21,62.64,62.64,0,0,1,36,32.4c-.58-2.59-1.3-5.11-2.09-7.7h0C255.74,117.94,255.24,116.57,254.66,115.13Z"/><path class="cls-20" d="M256.75,121a64,64,0,0,0-30.6-26.42c-1.44-.07-2.37-.07-2.73-.07h-.22c-1.58.28-1.87.86-1.94,1.44a60.82,60.82,0,0,1,38.08,37.72A72.74,72.74,0,0,0,256.75,121Z"/><path class="cls-21" d="M258.34,127.15a62.64,62.64,0,0,0-36-32.4c-1.37.58-1,1.37-.94,2.23h0v.65a59.33,59.33,0,0,1,38.09,42.05A50.06,50.06,0,0,0,258.34,127.15Z"/><path class="cls-22" d="M259.34,133.7A60.82,60.82,0,0,0,221.26,96a4.92,4.92,0,0,0,.14,1h0c0,.8.07,1.52.14,2.31a57.69,57.69,0,0,1,37.37,45.36A37.19,37.19,0,0,0,259.34,133.7Z"/><path class="cls-23" d="M259.49,139.68A59.33,59.33,0,0,0,221.4,97.63c.07,1.08.14,2.23.22,3.31a56.39,56.39,0,0,1,36.07,45.65c.43-.57.86-1.15,1.22-1.73h0A41.25,41.25,0,0,0,259.49,139.68Z"/><path class="cls-24" d="M258.91,144.65a57.69,57.69,0,0,0-37.37-45.36c.08,1.08.15,2.23.15,3.31a54.73,54.73,0,0,1,34.63,45.58,25.86,25.86,0,0,0,2.59-3.32h0Z"/><path class="cls-25" d="M257.69,146.59a56.39,56.39,0,0,0-36.07-45.65c.07,1.08.07,2.24.14,3.32A53.26,53.26,0,0,1,255,149.69C255.89,148.68,256.82,147.6,257.69,146.59Z"/><path class="cls-26" d="M256.32,148.18a54.73,54.73,0,0,0-34.63-45.58c.07,1.08.07,2.23.07,3.31a51.61,51.61,0,0,1,31.75,45.22C254.45,150.19,255.46,149.18,256.32,148.18Z"/><path class="cls-27" d="M255,149.69a53.26,53.26,0,0,0-33.19-45.43c0,1.08.07,2.23.07,3.31a50,50,0,0,1,30.17,45C253,151.63,254,150.7,255,149.69Z"/><path class="cls-28" d="M253.51,151.13a51.61,51.61,0,0,0-31.75-45.22c.07,1.15.07,2.23.07,3.31a48.62,48.62,0,0,1,28.66,44.28v.36C251.5,153,252.5,152.14,253.51,151.13Z"/><path class="cls-29" d="M252,152.57a50,50,0,0,0-30.17-45V111A47,47,0,0,1,249,153.5v1.66Z"/><path class="cls-30" d="M250.49,153.5a48.62,48.62,0,0,0-28.66-44.28v3.39a45.45,45.45,0,0,1,25.63,40.89c0,1,0,1.95-.07,3,.94-.72,2-1.66,3.1-2.6Z"/><path class="cls-31" d="M249,153.5A47,47,0,0,0,221.83,111v3.31A44,44,0,0,1,246,153.5c0,1.44-.07,2.81-.21,4.25.86-.65,2-1.51,3.24-2.59Z"/><path class="cls-32" d="M247.46,153.5a45.45,45.45,0,0,0-25.63-40.89c0,1.15-.07,2.3-.07,3.38a42.46,42.46,0,0,1,22.68,37.51,44.77,44.77,0,0,1-.36,5.48l.07-.08h0s1.37-.93,3.24-2.44C247.46,155.45,247.46,154.51,247.46,153.5Z"/><path class="cls-33" d="M246,153.5a44,44,0,0,0-24.12-39.24c-.07,1.16-.07,2.31-.07,3.39a40.82,40.82,0,0,1,20.74,41.69,2.84,2.84,0,0,0,1.65-.44h0s.65-.43,1.59-1.15C245.88,156.31,246,154.94,246,153.5Z"/><path class="cls-34" d="M244.44,153.5A42.46,42.46,0,0,0,221.76,116c0,1.15-.07,2.31-.07,3.39a39.41,39.41,0,0,1,19.73,34.12c0,1.52-.08,3-.22,4.4V158h0c.58.93.79,1.94,2.88,1A44.77,44.77,0,0,0,244.44,153.5Z"/><path class="cls-35" d="M242.93,153.5a41,41,0,0,0-21.17-35.85c-.07,1.22-.14,2.37-.14,3.45a37.93,37.93,0,0,1,18.28,32.4c0,.8,0,1.52-.07,2.31.51.72.94,1.44,1.37,2.16h0c.36.65.58,1.29,1.3,1.37A41,41,0,0,0,242.93,153.5Z"/><path class="cls-36" d="M241.42,153.5a39.41,39.41,0,0,0-19.73-34.12c-.07,1.29-.15,2.44-.15,3.45a36.57,36.57,0,0,1,16.85,30.67v.08c1,1.44,2,2.95,2.81,4.32C241.34,156.46,241.42,155,241.42,153.5Z"/><path class="cls-37" d="M239.9,153.5a37.93,37.93,0,0,0-18.28-32.4c-.08,1.3-.15,2.52-.22,3.46a35.09,35.09,0,0,1,15.41,26.71c1,1.59,2.09,3,3,4.54C239.9,155,239.9,154.3,239.9,153.5Z"/><path class="cls-38" d="M238.39,153.5a36.57,36.57,0,0,0-16.85-30.67c-.07,1.51-.21,2.67-.28,3.53A33.42,33.42,0,0,1,235,148.75c1.15,1.59,2.3,3.24,3.38,4.83Z"/><path class="cls-39" d="M236.81,151.27a35.09,35.09,0,0,0-15.41-26.71c-.07.86-.07,1.51-.14,2h0a5.45,5.45,0,0,0-.08,1.58,32,32,0,0,1,11.67,17.64C234.14,147.6,235.51,149.47,236.81,151.27Z"/><path class="cls-40" d="M235,148.75a33.42,33.42,0,0,0-13.75-22.39v.22h0a8.46,8.46,0,0,0,.21,3.74A30.19,30.19,0,0,1,230,142.06C231.62,144.07,233.35,146.38,235,148.75Z"/><path class="cls-41" d="M232.85,145.8a32,32,0,0,0-11.67-17.64,7.14,7.14,0,0,0,.44,2.52h0a8.45,8.45,0,0,0,2.08,3.53h0C225.29,135.94,229,140.54,232.85,145.8Z"/><path class="cls-42" d="M230,142.06a30.19,30.19,0,0,0-8.57-11.74c.07.14.07.22.15.36h0a8.45,8.45,0,0,0,2.08,3.53h0C224.93,135.5,227.3,138.46,230,142.06Z"/><polygon class="cls-52" points="77.54 94.75 77.54 109.87 74.66 105.98 74.09 104.76 75.31 102.53 76.61 101.38 76.61 95.47 77.54 94.75"/><polygon class="cls-52" points="81 88.34 81 120.89 80.06 120.46 79.49 118.3 78.84 115.85 78.84 111.82 77.54 109.94 74.66 105.98 74.09 104.76 75.31 102.53 76.61 101.38 76.61 95.47 78.84 93.67 80.06 91.44 80.06 89.64 81 88.34"/><polygon class="cls-53" points="77.54 109.87 77.54 94.75 78.84 93.67 80.06 91.44 80.06 89.64 81.36 87.77 81.36 84.38 83.59 81.36 84.46 81.36 84.46 120.96 84.24 121.03 82.66 121.68 81.36 121.03 80.06 120.46 79.49 118.3 78.84 115.85 78.84 111.82 77.54 109.94 77.54 109.87"/><polygon class="cls-54" points="81 120.89 81 88.34 81.36 87.77 81.36 84.38 83.59 81.36 85.46 81.36 87.41 81.94 87.91 82.3 87.91 122.33 86.11 121.03 86.11 120.46 84.24 121.03 82.66 121.68 81.36 121.03 81 120.89"/><polygon class="cls-55" points="84.46 120.96 84.46 81.36 85.46 81.36 87.41 81.94 88.99 83.16 90.86 83.16 91.37 83.59 91.37 124.78 86.11 121.03 86.11 120.46 84.46 120.96"/><polygon class="cls-56" points="87.91 122.33 87.91 82.3 88.99 83.16 90.86 83.16 91.51 83.81 92.16 87.77 92.81 88.99 93.46 90.86 94.82 90.86 94.82 141.55 94.39 141.05 93.46 138.02 93.46 135.22 92.81 133.99 91.51 131.54 91.51 130.61 92.16 128.16 92.16 125.35 87.91 122.33"/><polygon class="cls-57" points="91.37 124.78 91.37 83.59 91.51 83.81 92.16 87.77 92.81 88.99 93.46 90.86 95.69 90.86 98.21 91.44 98.28 91.51 98.28 148.46 98.21 148.46 96.26 146.3 96.26 144.5 95.69 142.63 94.39 141.05 93.46 138.02 93.46 135.22 92.81 133.99 91.51 131.54 91.51 130.61 92.16 128.16 92.16 125.35 91.37 124.78"/><polygon class="cls-58" points="94.82 141.55 94.82 90.86 95.69 90.86 98.21 91.44 99.79 93.02 101.09 94.25 101.74 94.25 101.74 149.83 100.44 149.11 98.21 148.46 96.26 146.3 96.26 144.5 95.69 142.63 94.82 141.55"/><polygon class="cls-59" points="98.28 148.46 98.28 91.51 99.79 93.02 101.09 94.25 104.54 94.25 105.19 93.1 105.19 152.14 103.61 150.98 100.44 149.11 98.28 148.46"/><polygon class="cls-60" points="101.74 149.83 101.74 94.25 104.54 94.25 105.19 93.02 105.19 92.45 106.49 88.99 107.14 88.99 108.65 87.34 108.65 155.16 105.19 152.14 103.61 150.98 101.74 149.83"/><polygon class="cls-61" points="105.19 152.14 105.19 93.1 105.19 93.02 105.19 92.45 106.49 88.99 107.14 88.99 109.66 86.26 110.59 85.61 112.1 84.67 112.1 159.19 111.24 158.54 110.59 156.1 109.01 155.52 105.19 152.14 105.19 152.14"/><polygon class="cls-62" points="108.65 155.16 108.65 87.34 109.66 86.26 110.59 85.61 112.54 84.38 114.41 84.38 115.56 84.89 115.56 161.78 111.24 158.54 110.59 156.1 109.01 155.52 108.65 155.16"/><polygon class="cls-63" points="112.1 159.19 112.1 84.67 112.54 84.38 114.41 84.38 118.58 86.26 119.02 86.26 119.02 167.11 117.29 166.61 117.29 165.96 116.64 165.31 116.64 162.58 112.1 159.19"/><polygon class="cls-64" points="115.56 161.78 115.56 84.89 118.58 86.26 122.47 86.26 122.47 170.93 119.16 167.18 117.29 166.61 117.29 165.96 116.64 165.31 116.64 162.58 115.56 161.78"/><polygon class="cls-65" points="119.02 167.11 119.02 86.26 122.69 86.26 124.56 87.19 125.86 87.19 125.93 87.12 125.93 174.96 125.86 174.89 123.34 173.09 123.34 171.79 122.69 171.22 119.16 167.18 119.02 167.11"/><polygon class="cls-66" points="122.47 170.93 122.47 86.26 122.69 86.26 124.56 87.19 125.86 87.19 127.44 85.61 128.09 83.16 129.31 81.94 129.38 81.94 129.38 177.34 128.09 177.05 125.86 174.89 123.34 173.09 123.34 171.79 122.69 171.22 122.47 170.93"/><polygon class="cls-67" points="125.93 174.96 125.93 87.12 127.44 85.61 128.09 83.16 129.31 81.94 129.96 81.94 129.96 82.51 130.61 83.81 130.61 85.03 132.84 85.82 132.84 177.7 131.26 177.7 128.09 177.05 125.93 174.96"/><polygon class="cls-68" points="129.38 177.34 129.38 81.94 129.96 81.94 129.96 82.51 130.61 83.81 130.61 85.03 134.06 86.26 136.01 87.19 136.3 87.41 136.3 178.49 136.01 178.27 134.71 177.05 134.06 177.05 132.84 177.7 131.26 177.7 129.38 177.34"/><polygon class="cls-69" points="132.84 177.7 132.84 85.82 134.06 86.26 136.01 87.19 136.66 87.77 139.75 88.34 139.75 190.37 139.46 190.01 138.89 185.33 138.89 182.3 138.24 180.14 136.01 178.27 134.71 177.05 134.06 177.05 132.84 177.7 132.84 177.7"/><polygon class="cls-70" points="136.3 178.49 136.3 87.41 136.66 87.77 140.11 88.42 142.63 87.77 143.21 88.06 143.21 195.7 142.63 195.26 141.41 193.97 141.41 193.1 139.46 190.01 138.89 185.33 138.89 182.3 138.24 180.14 136.3 178.49"/><polygon class="cls-71" points="139.75 190.37 139.75 88.34 140.11 88.42 142.63 87.77 144.86 88.99 145.51 89.64 146.66 89.64 146.66 198.79 145.51 197.71 142.63 195.26 141.41 193.97 141.41 193.1 139.75 190.37"/><polygon class="cls-72" points="143.21 195.7 143.21 88.06 144.86 88.99 145.51 89.64 146.81 89.64 148.39 91.44 150.12 91.44 150.12 201.82 149.04 201.1 145.51 197.71 143.21 195.7"/><path class="cls-73" d="M146.66,198.79V89.64h.15l1.58,1.8h1.87l1.3-.58h.65v.58l.65,1.58h.64V204.26L149,201.1l-2.38-2.31Zm6.84,14.62v2.81l-.64-.65-1.3-.94-1.3-.65Z"/><path class="cls-74" d="M150.12,201.82V91.44h.14l1.3-.58h.65v.58l.65,1.58h2.73l1.37-.43V208.3l-.07-.15-1.3-1.8-1.87-1.87-3.6-2.66ZM157,212.69v3.45h-1.37v.65l-.57.65-1-.65-1.15-1.22-1.3-.94-1.3-.65,3.46-.57H155Z"/><polygon class="cls-75" points="153.5 216.22 153.5 213.41 153.72 213.41 155.02 213.41 158.18 212.18 156.89 208.15 155.59 206.35 153.72 204.48 153.5 204.26 153.5 93.02 155.59 93.02 157.54 92.45 160.42 92.45 160.42 216.5 156.89 216.14 155.59 216.14 155.59 216.79 155.02 217.44 154.01 216.79 153.5 216.22"/><polygon class="cls-76" points="156.96 216.14 156.96 212.69 158.18 212.18 156.96 208.3 156.96 92.59 157.54 92.45 162.94 92.45 163.58 93.02 163.87 93.17 163.87 216.79 162.94 216.79 156.96 216.14"/><polygon class="cls-77" points="160.42 216.5 160.42 92.45 162.94 92.45 163.58 93.02 164.52 93.67 167.04 95.47 167.33 95.62 167.33 217.87 167.04 217.44 165.82 217.44 164.52 216.79 162.94 216.79 160.42 216.5"/><polygon class="cls-78" points="163.87 216.79 163.87 93.17 164.52 93.67 167.04 95.47 168.98 96.12 170.78 96.48 170.78 221.83 168.98 221.4 168.34 219.89 168.34 219.24 167.69 218.66 167.04 217.44 165.82 217.44 164.52 216.79 163.87 216.79"/><polygon class="cls-79" points="167.33 217.87 167.33 95.62 168.98 96.12 171.86 96.7 173.74 94.9 174.24 94.46 174.24 226.44 173.74 225.72 173.09 223.92 171.86 222.05 168.98 221.4 168.34 219.89 168.34 219.24 167.69 218.66 167.33 217.87"/><polygon class="cls-80" points="170.78 221.83 170.78 96.48 171.86 96.7 173.74 94.9 176.62 92.45 177.7 92.45 177.7 229.61 175.03 227.88 175.03 227.23 174.38 226.66 173.74 225.72 173.09 223.92 171.86 222.05 170.78 221.83"/><polygon class="cls-81" points="174.24 226.44 174.24 94.46 176.62 92.45 178.49 92.45 178.49 93.67 179.14 94.25 181.15 94.25 181.15 233.42 179.14 232.2 177.84 230.98 177.84 229.75 175.03 227.88 175.03 227.23 174.38 226.66 174.24 226.44"/><polygon class="cls-82" points="177.7 229.61 177.7 92.45 178.49 92.45 178.49 93.67 179.14 94.25 183.89 94.25 184.61 93.82 184.61 236.3 184.54 236.16 182.66 234.36 179.14 232.2 177.84 230.98 177.84 229.75 177.7 229.61"/><polygon class="cls-83" points="181.15 233.42 181.15 94.25 183.89 94.25 185.83 93.02 185.83 92.45 186.77 90.86 188.06 91.94 188.06 239.62 188.06 239.62 186.77 238.97 185.18 237.46 184.54 236.16 182.66 234.36 181.15 233.42"/><polygon class="cls-84" points="184.61 236.3 184.61 93.82 185.83 93.02 185.83 92.45 186.77 90.86 188.64 92.45 191.52 92.45 191.52 243.79 189.94 242.64 189.29 241.42 188.06 239.62 186.77 238.97 185.18 237.46 184.61 236.3"/><polygon class="cls-85" points="188.06 239.62 188.06 91.94 188.64 92.45 193.39 92.45 194.04 94.25 194.69 94.25 194.69 95.47 194.98 95.76 194.98 214.13 194.69 214.63 194.04 216.14 194.04 216.79 194.69 218.66 194.98 218.88 194.98 220.9 194.69 222.05 194.04 225.07 194.04 227.23 194.69 227.88 194.98 228.02 194.98 236.52 194.69 236.81 194.04 239.62 193.39 240.19 193.39 242.06 192.17 244.22 189.94 242.64 189.29 241.42 188.06 239.62"/><polygon class="cls-86" points="191.52 243.79 191.52 92.45 193.39 92.45 194.04 94.25 194.69 94.25 194.69 95.47 195.34 96.12 198.14 96.7 198.43 96.48 198.43 211.39 196.56 212.18 195.34 213.41 194.69 214.63 194.04 216.14 194.04 216.79 194.69 218.66 195.34 219.24 194.69 222.05 194.04 225.07 194.04 227.23 194.69 227.88 195.98 228.53 196.56 229.75 197.57 230.33 197.57 233.14 194.69 236.81 194.04 239.62 193.39 240.19 193.39 242.06 192.17 244.22 191.52 243.79"/><path class="cls-86" d="M195,236.52V228l1,.51.58,1.22,1,.58v2.81L195,236.52Zm0-15.62v-2l.36.36L195,220.9Zm0-6.77V95.76l.36.36,2.8.58,1.3-1.23V94.9l1.94-1.23h.51V210.38l-2.45.58-2.88,1.22-1.22,1.23Z"/><polygon class="cls-87" points="198.43 211.39 198.43 96.48 199.44 95.47 199.44 94.9 201.38 93.67 202.97 93.67 203.62 94.25 204.19 96.12 205.34 95.04 205.34 196.78 204.19 196.42 204.19 199.87 204.84 201.1 204.19 202.32 202.97 205.7 202.97 207.5 203.62 210.02 199.44 210.96 198.43 211.39"/><polygon class="cls-88" points="201.89 210.38 201.89 93.67 202.97 93.67 203.62 94.25 204.19 96.12 206.14 94.25 206.78 96.12 206.78 98.28 208.8 99.14 208.8 196.06 208.37 196.42 206.14 197.06 204.19 196.42 204.19 199.87 204.84 201.1 204.19 202.32 202.97 205.7 202.97 207.5 203.62 210.02 201.89 210.38"/><polygon class="cls-89" points="205.34 196.78 205.34 95.04 206.14 94.25 206.78 96.12 206.78 98.28 209.59 99.5 210.24 100.15 210.24 101.38 209.59 102.53 209.59 104.11 211.54 106.56 212.26 106.78 212.26 192.46 211.54 192.46 210.89 193.1 210.24 193.97 209.02 194.62 209.02 195.84 208.37 196.42 206.14 197.06 205.34 196.78"/><polygon class="cls-90" points="208.8 196.06 208.8 99.14 209.59 99.5 210.24 100.15 210.24 101.38 209.59 102.53 209.59 104.11 211.54 106.56 213.77 107.21 215.71 107.21 215.71 192.89 214.34 192.46 211.54 192.46 210.89 193.1 210.24 193.97 209.02 194.62 209.02 195.84 208.8 196.06"/><polygon class="cls-91" points="212.26 192.46 212.26 106.78 213.77 107.21 217.58 107.21 219.17 107.64 219.17 181.94 217.58 180.72 217.58 182.88 216.94 185.98 219.17 186.62 219.17 198.58 217.58 197.06 216.94 195.84 216.94 194.62 216.29 193.1 214.34 192.46 212.26 192.46"/><polygon class="cls-92" points="215.71 192.89 215.71 107.21 217.58 107.21 219.82 107.78 221.04 107.78 222.62 107.35 222.62 183.31 221.69 183.53 220.39 182.88 217.58 180.72 217.58 182.88 216.94 185.98 221.04 187.2 220.39 189.36 220.39 190.01 222.34 190.66 222.34 191.23 222.62 191.23 222.62 195.7 219.82 199.22 217.58 197.06 216.94 195.84 216.94 194.62 216.29 193.1 215.71 192.89"/><path class="cls-92" d="M219.17,198.58v-12l1.87.58-.65,2.16V190l2,.65v.57H223l3.1,2.45v1.08l-.29.5H223l-3.16,4-.65-.64Zm0-16.64v-74.3l.65.14H221l1.94-.57.65-.65,2.16-1.22v-.58h.29v23.69l-.29.29v4l-.57,1.87.86,2.74v45.07l-1.51.43-2.88.65-1.3-.65Z"/><path class="cls-93" d="M222.62,195.7v-4.47H223l3.46,2.74-.65,1.29H223l-.36.44Zm0-12.39v-76l.36-.14.65-.65,2.16-1.22v-.58h2l1.8-.43v19.22l-2.45,3.39-1.3,1.8v4l-.57,1.87,1.22,4,.65.65,1.94,1.22.51.22V183l-1.8.51-1.3-1.23-1.87.58Z"/><path class="cls-94" d="M226.08,194.76v-1.08l.36.29-.36.79Zm0-12.31V137.38l.36,1.22.65.65,1.94,1.22,1.59.58H233V156.6l-.5-.5v-.58l-1.23.58-.64.64v.58l.64,1.22-.64.65h1.22L233,160v18.58l-1.15.36-1.22,4.61-.65-.65-2.23.65-1.3-1.23-.36.15Zm0-54V104.76h1.66l2.88-.65,1.22.65,1.15.72v13.75l-.5.58L231.26,121,230,122.9l-2.88,4Z"/><path class="cls-95" d="M229.54,183V140.69l1.08.36h3.16l.94,1.58v3.1L236,147l.43,1.44v9.36l-1.73-.43-1.58-.58-.65-.64v-.58l-1.23.58-.64.64v.58l.64,1.22-.64.65h1.22l1.3.94,1.58,1.22,1.3,2.45v1.51l.43.87v12.74h-1.73l-.94-.65-1.94.65-1.22,4.61-.65-.65-.43.14Zm0-59.47V104.33l1.08-.22,1.22.65,1.94,1.22,1.59-.64H236v1.87l-.65,4-.65.65.65,1.87-.65,3.38-2.23,2.74L231.26,121,230,122.9Z"/><path class="cls-96" d="M233,178.56V160l.15.15,1.58,1.22,1.3,2.45v1.51l.57,1.3,1.95,1.22.64,1.23.72,1.22v8.57l-.07.07h-5.11l-.94-.65-.79.29Zm0-22V141.05h.79l.94,1.58v3.1L236,147l.57,2.16h3.31v9.43h-.07l-2.59-.57-2.52-.65-1.58-.58-.15-.14Zm0-37.37V105.48l.79.5,1.59-.64H236v1.87l-.65,4-.65.65.65,1.87-.65,3.38Z"/><path class="cls-96" d="M236.45,178.92V166.18l.14.43,1.95,1.22.64,1.23,1.59,2.73v5.91l-.94,1.22Zm0-21.17v-9.36l.14.72h4.18l1.29.58-.64,1.29,1.29,1.16.65.21v5.55l-.07.07-1.23.57h-2.23l-2.59-.57Z"/><path class="cls-97" d="M239.9,178.85v-8.57l.87,1.51v5.91l-.87,1.15Zm0-20.31v-9.43h.87l1.29.58-.64,1.29,1.29,1.16,1.87.64h2.24l-.65,2.09-1.59,1.23L243.29,158l-1.23.57Z"/><polygon class="cls-2" points="243.36 157.9 243.36 152.35 244.58 152.78 246.82 152.78 246.17 154.87 244.58 156.1 243.36 157.9"/><path class="cls-1" d="M35.64,103a2,2,0,0,0,.14-1.44c-.07-.43-.43-.72-1.08-1a1.64,1.64,0,0,0-.79-.21V98.14a2.86,2.86,0,0,1,1.87.21,6.13,6.13,0,0,1,1.16.72,2.77,2.77,0,0,1,.72,1,2.52,2.52,0,0,1,.28,1.3,5,5,0,0,1-.43,1.65l-1.58,3.67-2-.86v-2.59l1.37.57Zm-1.73-2.66h0a1.5,1.5,0,0,0-.65.14,1.31,1.31,0,0,0-.5.36c-.14.22-.22.43-.36.65l-.36.94,1.87.79v2.59l-4.53-1.94v-2.6l1.15.51.21-.58A2.54,2.54,0,0,0,31,99.72a1.56,1.56,0,0,0-.93-.86,2.89,2.89,0,0,0-.72-.15V96.26a3.58,3.58,0,0,1,1.36.36,2.69,2.69,0,0,1,1.3,1,2,2,0,0,1,.36,1.59h0a2.15,2.15,0,0,1,1.44-1.08h.07Zm-4.53-4.11v2.45a.62.62,0,0,0-.51.07,1.77,1.77,0,0,0-.86,1l-.36.79,1.73.72v2.6l-4.25-1.8,1.58-3.6a9.17,9.17,0,0,1,.65-1.23,4.16,4.16,0,0,1,.86-.72,2.18,2.18,0,0,1,1.16-.29Z"/><path class="cls-1" d="M37,95a6.91,6.91,0,0,0,1.29.43,1.69,1.69,0,0,0,.87-.07,1.92,1.92,0,0,0,.65-.65,1.27,1.27,0,0,0,.14-.86,2.25,2.25,0,0,0-.43-.8c-.29-.21-.65-.5-1.08-.79s-1.08-.65-1.8-1a4.82,4.82,0,0,1-.72-.36V88.34c.57.22,1.15.51,1.8.8s1.51.86,2.16,1.29a6.54,6.54,0,0,1,1.44,1.3,3.48,3.48,0,0,1,.57,1.65,5.36,5.36,0,0,1-.57,2.09A5.47,5.47,0,0,1,40,97.13a3.39,3.39,0,0,1-1.66.5,5.27,5.27,0,0,1-1.94-.43c-.14-.07-.29-.07-.43-.14v-2.6A7.52,7.52,0,0,0,37,95Zm-1.08-4.11c-.43-.21-.79-.36-1.08-.5a3.51,3.51,0,0,0-1.3-.36,1.38,1.38,0,0,0-.93.07,1,1,0,0,0-.58.65,1.08,1.08,0,0,0-.14.79,1,1,0,0,0,.43.79,7.29,7.29,0,0,0,1.08.87c.5.29,1.08.57,1.8.93a2.85,2.85,0,0,0,.72.36v2.6c-.58-.29-1.15-.51-1.8-.87S32.62,95.4,32,95a5.28,5.28,0,0,1-1.44-1.37A2.72,2.72,0,0,1,30,91.94a3.71,3.71,0,0,1,.58-2.08A3.94,3.94,0,0,1,31.9,88.2a3.1,3.1,0,0,1,1.65-.43,5.07,5.07,0,0,1,2,.36l.43.21Z"/><path class="cls-1" d="M41.69,87.41a3.23,3.23,0,0,0,.72.36,1.6,1.6,0,0,0,.57.07.94.94,0,0,0,.58-.22,1.93,1.93,0,0,0,.5-.57,1.57,1.57,0,0,0,.15-1c0-.36-.29-.65-.65-.94a4.53,4.53,0,0,0-.65-.28,2.09,2.09,0,0,0-.65.07,2.27,2.27,0,0,0-.64.29l-.87.64a10.17,10.17,0,0,1-1.22.87,3.48,3.48,0,0,1-1.08.43,3.18,3.18,0,0,1-1.15,0,5.48,5.48,0,0,1-1.16-.5,3.14,3.14,0,0,1-1.72-2.16,4,4,0,0,1,.64-2.74,3.29,3.29,0,0,1,.87-1.08A3.09,3.09,0,0,1,37,79.92a3.44,3.44,0,0,1,1.22-.14,3.9,3.9,0,0,1,1.37.5l.29.22-1.15,1.87a2.54,2.54,0,0,0-1.3-.36,1,1,0,0,0-.86.57,1.15,1.15,0,0,0-.22.65.65.65,0,0,0,0,.51.73.73,0,0,0,.29.36,2.39,2.39,0,0,0,.43.36,2.12,2.12,0,0,0,.86.28,2.29,2.29,0,0,0,1.08-.5l1.59-1.15a6,6,0,0,1,1.15-.65c.29-.07.65-.14.94-.22a3.79,3.79,0,0,1,.86.15,2.24,2.24,0,0,1,.86.43,3.4,3.4,0,0,1,1.8,2.3,4.45,4.45,0,0,1-.86,3,3.79,3.79,0,0,1-2.16,2,3.28,3.28,0,0,1-2.59-.57l-.43-.22,1.22-2Z"/><polygon class="cls-1" points="48.02 77.11 48.02 77.04 41.47 72.43 42.7 70.7 52.27 77.4 50.76 79.63 42.41 77.26 42.34 77.26 49.1 82.01 47.88 83.74 38.23 76.97 39.82 74.81 48.02 77.11"/><path class="cls-1" d="M52.92,69.62,50.47,68.4V66.17l8,3.6-1.58,1.94-2.23-1.15L52.7,72.94l1.59,1.94L52.7,76.82l-2.23-3.09V70.2l1,1.15ZM50.47,68.4,48.1,67.18h0l2.37,3v3.53L45.58,67l1.87-2.3,3,1.44Z"/><polygon class="cls-1" points="53.21 58.32 54.79 56.59 63.22 64.73 61.63 66.46 53.21 58.32"/><polygon class="cls-1" points="61.06 50.54 64.08 53.93 66.1 52.13 63.14 48.74 64.87 47.23 72.65 56.02 70.92 57.53 67.46 53.64 65.38 55.44 68.83 59.33 67.1 60.91 59.33 52.13 61.06 50.54"/><polygon class="cls-1" points="72.94 43.42 69.62 45.94 71.28 48.1 74.38 45.72 75.6 47.23 72.5 49.68 74.45 52.13 77.83 49.54 78.98 51.05 73.73 55.08 66.6 45.86 71.71 41.83 72.94 43.42"/><path class="cls-1" d="M78.91,43.13a2.49,2.49,0,0,0,.87-1.08,1.92,1.92,0,0,0-.44-1.37A1.41,1.41,0,0,0,78,39.89V37.73a3.35,3.35,0,0,1,1.22-.07,2.77,2.77,0,0,1,1.94,1.44A3.36,3.36,0,0,1,81.79,41a2.32,2.32,0,0,1-.65,1.58v.07a2.05,2.05,0,0,1,1.37-.28,2.38,2.38,0,0,1,1.23.93,5.15,5.15,0,0,1,.43.58,4.59,4.59,0,0,1,.5.65,10.45,10.45,0,0,0,.94,1.15.75.75,0,0,0,.72.29v.14l-2.09,1.37a1.85,1.85,0,0,1-.5-.29c-.15-.22-.29-.36-.44-.58L82,44.78a2.64,2.64,0,0,0-.87-.72,1.26,1.26,0,0,0-1.08.29L79,45l2.81,4.1-1.94,1.37L78,47.74V43.49l.07.14ZM78,39.89a1.49,1.49,0,0,0-.87.36l-.93.57L78,43.49v4.25l-4.68-7,3.6-2.45A4,4,0,0,1,78,37.73Z"/><path class="cls-1" d="M86.26,35A1.1,1.1,0,0,0,85,35a1,1,0,0,0-.5.58,2.06,2.06,0,0,0,0,.93,4.15,4.15,0,0,0,.5,1.3,18.58,18.58,0,0,0,1,1.87,15.52,15.52,0,0,0,1.15,1.8,2.87,2.87,0,0,0,.87.94,1,1,0,0,0,.72.29,2.13,2.13,0,0,0,.64-.15l.44-.43c.14-.14.14-.36.21-.58a2.89,2.89,0,0,0-.21-.93,11.44,11.44,0,0,0-.65-1.37l2-1.22c.29.57.58,1.15.8,1.65a4.34,4.34,0,0,1,.21,1.59,2.78,2.78,0,0,1-.43,1.44,4.17,4.17,0,0,1-1.44,1.22,5.69,5.69,0,0,1-2,.72,2.64,2.64,0,0,1-1.65-.5,5.14,5.14,0,0,1-1.44-1.37c-.43-.65-.87-1.3-1.37-2.09s-.79-1.51-1.08-2.16a4.33,4.33,0,0,1-.5-1.94,2.82,2.82,0,0,1,.36-1.73,4.31,4.31,0,0,1,1.58-1.44,4.77,4.77,0,0,1,1.94-.65,3,3,0,0,1,1.44.36,3.48,3.48,0,0,1,1.08,1,6.73,6.73,0,0,1,.8,1.15l-2,1.15A4.33,4.33,0,0,0,86.26,35Z"/><polygon class="cls-1" points="95.9 29.81 92.16 31.61 93.38 34.06 96.91 32.33 97.78 34.06 94.25 35.86 95.69 38.66 99.5 36.72 100.37 38.45 94.39 41.4 89.21 30.96 95.04 28.01 95.9 29.81"/><path class="cls-1" d="M102.38,27.94a2.81,2.81,0,0,0-.43-.51,2.56,2.56,0,0,0-.57-.29,1,1,0,0,0-.65.08,1.19,1.19,0,0,0-.72,1.36,9.09,9.09,0,0,0,.86,3c.29.65.51,1.22.79,1.73a4.1,4.1,0,0,0,.8,1.22,1.79,1.79,0,0,0,.79.72,1.22,1.22,0,0,0,.86-.07.48.48,0,0,0,.36-.29.88.88,0,0,0,.36-.5,1.66,1.66,0,0,0,.07-.65,3,3,0,0,0-.14-.79l-.5-1.16-1.44.65-.65-1.65,3.53-1.44,2.44,5.83-1.65.65-.36-1h-.07a2.19,2.19,0,0,1-.58,1.29,3,3,0,0,1-1.15.87,3.38,3.38,0,0,1-1.8.29,2.72,2.72,0,0,1-1.37-.65,4.7,4.7,0,0,1-1.22-1.59,24,24,0,0,1-1.23-2.44,15.5,15.5,0,0,1-.79-2.45,4.44,4.44,0,0,1-.14-2,2.63,2.63,0,0,1,.64-1.51A5.3,5.3,0,0,1,100,25.63a3.63,3.63,0,0,1,2.95-.21,4.22,4.22,0,0,1,1.87,2.23l-2.09.86A1.46,1.46,0,0,0,102.38,27.94Z"/><path class="cls-1" d="M111,31.82a.83.83,0,0,0,.51.36,1.16,1.16,0,0,0,.86-.07.89.89,0,0,0,.72-.5,1.6,1.6,0,0,0,.22-.87,5,5,0,0,0-.22-1.29c-.14-.58-.36-1.23-.58-1.95s-.5-1.36-.72-1.87a6.44,6.44,0,0,0-.64-1.22c-.08-.07-.08-.15-.15-.22V22c.07,0,.07,0,.15.07a2.59,2.59,0,0,1,1.51.79,4.15,4.15,0,0,1,1.15,1.66,14.26,14.26,0,0,1,.94,2.3,16.87,16.87,0,0,1,.64,2.31,6.66,6.66,0,0,1,.15,2,3.37,3.37,0,0,1-.79,1.59,4.32,4.32,0,0,1-1.8,1.08,7.77,7.77,0,0,1-2,.29Zm-.86-1.44a4.42,4.42,0,0,0,.65,1.23l.21.21v2.24c-.07,0-.14-.08-.21-.08a2.62,2.62,0,0,1-1.52-.79,5.61,5.61,0,0,1-1.15-1.58c-.29-.72-.57-1.44-.86-2.31s-.51-1.65-.72-2.37a6.08,6.08,0,0,1-.07-2,2.62,2.62,0,0,1,.72-1.58A4.13,4.13,0,0,1,109,22.25,3.88,3.88,0,0,1,111,22v2.23a2.57,2.57,0,0,0-.57-.36,1.3,1.3,0,0,0-.87.07,1.37,1.37,0,0,0-.72.51,1.54,1.54,0,0,0-.21.86,6,6,0,0,0,.21,1.37c.15.5.36,1.15.58,1.87S109.87,29.88,110.09,30.38Z"/><polygon class="cls-1" points="120.1 28.22 120.1 28.15 119.59 19.37 121.9 18.72 122.33 30.74 119.45 31.54 113.83 20.88 116.28 20.23 120.1 28.22"/><polygon class="cls-1" points="123.41 18.43 125.71 18 128.09 29.45 125.78 29.95 123.41 18.43"/><polygon class="cls-1" points="134.5 24.62 134.5 24.55 133.27 16.63 135.36 16.34 137.16 27.94 134.57 28.3 130.46 20.66 130.39 20.66 131.69 28.8 129.6 29.09 127.73 17.5 130.39 17.06 134.5 24.62"/><path class="cls-1" d="M143.21,22.9l-1.15-3.75V15.7l.86-.08L147,27l-2.37.22-.8-2.45-1.72.21V23Zm-1.15-3.75-.36-1.44-.08.07L141,23.11l1.08-.14v2l-1.37.08-.29,2.52-2.45.21L140,15.84l2-.14Z"/><path class="cls-1" d="M155.09,25.13c.14,0,.21,0,.29-.07a.92.92,0,0,0,.64-.29,1.11,1.11,0,0,0,.36-.58,2.88,2.88,0,0,0,.08-.93c.07-.65-.08-1.08-.44-1.3a1.21,1.21,0,0,0-.93-.36V19.73h.14a5.82,5.82,0,0,1,1.59.21,3.75,3.75,0,0,1,1.15.65,2.79,2.79,0,0,1,.65,1.08,3.9,3.9,0,0,1,.28,1.66,6.39,6.39,0,0,1-.28,1.73,3.11,3.11,0,0,1-.8,1.08,4.07,4.07,0,0,1-1.22.64,7.8,7.8,0,0,1-1.51.22V25.13Zm0-7.92v-2h3.24l-.07,2Zm-.51,7.92h.51V27l-.15-.07h-3.52l.14-11.74,3.53.07v2l-1.23-.07-.07,2.59h1.3V21.6c-.15,0-.29-.07-.43-.07h-.87l-.07,3.6Z"/><path class="cls-1" d="M164.23,25.85a1.24,1.24,0,0,0,.51-.15,1.41,1.41,0,0,0,.5-.72,4.69,4.69,0,0,0,.36-1.29c.07-.58.14-1.23.22-2s.07-1.44.07-2a4.26,4.26,0,0,0-.07-1.37,1.25,1.25,0,0,0-1.23-1.08h-.36V15.48h.51a3.89,3.89,0,0,1,2,.65,2.65,2.65,0,0,1,1.08,1.29,5.56,5.56,0,0,1,.36,2,14.75,14.75,0,0,1-.07,2.45,21.14,21.14,0,0,1-.29,2.45,4.81,4.81,0,0,1-.72,1.87,2.47,2.47,0,0,1-1.29,1.08,3.59,3.59,0,0,1-1.59.29Zm-.36,0a.33.33,0,0,0,.36,0v1.73h-.5a4.27,4.27,0,0,1-2.09-.65,2.45,2.45,0,0,1-1.08-1.3,5.36,5.36,0,0,1-.36-1.94,14.73,14.73,0,0,1,.07-2.45,21.2,21.2,0,0,1,.29-2.45,6.13,6.13,0,0,1,.72-1.87,3.23,3.23,0,0,1,1.3-1.15,2.94,2.94,0,0,1,1.65-.29v1.73a1.05,1.05,0,0,0-.5.14,2,2,0,0,0-.58.72c-.14.36-.21.79-.36,1.37s-.14,1.15-.21,1.94a19.77,19.77,0,0,0-.08,2,6.7,6.7,0,0,0,.08,1.37,2.33,2.33,0,0,0,.43.79A1.12,1.12,0,0,0,163.87,25.85Z"/><path class="cls-1" d="M172.44,28.58a4.74,4.74,0,0,1-2-.72,2.77,2.77,0,0,1-.93-1.44,4.93,4.93,0,0,1-.29-1.94c.07-.72.14-1.58.29-2.45a20.07,20.07,0,0,1,.5-2.37,4.57,4.57,0,0,1,.79-1.88,3,3,0,0,1,1.37-1.08,4.37,4.37,0,0,1,2.16-.07,4,4,0,0,1,1.87.65,3.68,3.68,0,0,1,.94,1.22,4.82,4.82,0,0,1,.22,1.44,8.09,8.09,0,0,1-.15,1.37l-2.3-.36a4.05,4.05,0,0,0,0-1.87,1.19,1.19,0,0,0-1-.79,1.22,1.22,0,0,0-.72.14,1.55,1.55,0,0,0-.58.72,7.5,7.5,0,0,0-.43,1.3c-.14.57-.29,1.29-.43,2.09s-.14,1.58-.22,2.16a5.6,5.6,0,0,0,.08,1.29,1,1,0,0,0,.43.65,1.46,1.46,0,0,0,.57.29h.58a2.62,2.62,0,0,0,.58-.36,5.87,5.87,0,0,0,.43-.87,13.71,13.71,0,0,0,.36-1.51l2.3.36c-.14.65-.29,1.23-.43,1.8a4.28,4.28,0,0,1-.79,1.37,2.4,2.4,0,0,1-1.23.79A3.34,3.34,0,0,1,172.44,28.58Z"/><polygon class="cls-1" points="179.78 17.78 182.09 18.29 181.08 22.61 183.74 23.26 184.75 18.86 187.06 19.37 184.46 30.82 182.16 30.31 183.31 25.2 180.65 24.62 179.5 29.74 177.19 29.16 179.78 17.78"/><path class="cls-1" d="M192,28.37l.43-5.33h-.07l-1.22,2.3V21.46l.43-.8,2.81.8-.43,12.16-2.38-.72.22-2.52-.65-.21v-2Zm-.86-3-1.37,2.38,1.37.43v2l-2.31-.72-1.22,2.23-2.3-.72,5.83-9.5Z"/><polygon class="cls-1" points="202.54 24.34 204.62 25.2 201.74 32.11 207.22 26.28 209.59 27.22 205.06 38.09 203.04 37.22 205.92 30.24 200.38 36.07 198.07 35.14 202.54 24.34"/><polygon class="cls-1" points="214.56 36.14 214.92 29.81 217.22 31.03 216.72 35.06 219.82 32.4 222.12 33.62 216.94 37.44 216.65 44.06 214.34 42.77 214.78 38.52 211.39 41.18 209.16 39.96 214.56 36.14"/><polygon class="cls-1" points="223.63 34.56 229.1 38.02 228.1 39.67 224.57 37.44 223.13 39.82 226.44 41.9 225.36 43.49 222.12 41.47 220.39 44.14 224.06 46.44 223.06 48.02 217.37 44.5 223.63 34.56"/><path class="cls-1" d="M231.34,45.72c.07,0,.14,0,.14-.07a1.5,1.5,0,0,0,1.15-.79,2.32,2.32,0,0,0,.51-1.3,1.72,1.72,0,0,0-.8-1.15l-.79-.58-.21.43V39.53L234,41.47a3.32,3.32,0,0,1,1.08,1.15,2.36,2.36,0,0,1,.29,1.23,1.92,1.92,0,0,1-.22,1.22,8.76,8.76,0,0,1-.57,1.15,3.79,3.79,0,0,1-1.16,1.08,2.9,2.9,0,0,1-1.22.51,3.53,3.53,0,0,1-.86-.07Zm-1-.36a1.88,1.88,0,0,0,1,.36v2a1.41,1.41,0,0,1-.51-.15,3.81,3.81,0,0,1-1.29-.72l-1.08-.72L225.72,50l-1.87-1.37,6.84-9.5.65.43v2.73l-1.8,2.52Z"/><polygon class="cls-1" points="235.44 57.53 230.54 53.42 238.03 44.42 239.83 45.94 233.57 53.42 235.66 55.22 241.92 47.66 243.72 49.18 237.46 56.66 238.32 57.38 235.58 60.7 233.93 59.26 235.44 57.53"/><polygon class="cls-1" points="245.74 50.98 250.49 55.44 249.12 56.88 246.1 54 244.22 56.02 247.03 58.68 245.74 60.12 242.93 57.38 240.7 59.69 243.86 62.64 242.5 64.08 237.67 59.47 245.74 50.98"/><polygon class="cls-1" points="251.78 56.81 256.03 61.34 254.59 62.71 252 59.9 244.87 66.6 243.22 64.87 251.78 56.81"/><path class="cls-1" d="M254.88,71.21c.36-.29.65-.58,1.08-.87l1.51-1.29a9.76,9.76,0,0,0,.87-1,1.76,1.76,0,0,0,.28-.86,1.16,1.16,0,0,0-.36-.8,1.21,1.21,0,0,0-.72-.5,1.23,1.23,0,0,0-.86.07,4.6,4.6,0,0,0-1.22.72,6.81,6.81,0,0,0-.58.36V64.3a3.57,3.57,0,0,1,1.3-.51,2.84,2.84,0,0,1,1.72.15,4.36,4.36,0,0,1,1.73,1.29,4.52,4.52,0,0,1,1,2,3.54,3.54,0,0,1-.22,1.72,6.9,6.9,0,0,1-1.15,1.59,13.69,13.69,0,0,1-1.87,1.65c-.65.58-1.37,1.08-1.94,1.52-.22.07-.36.21-.58.28Zm-3.31.65a1.21,1.21,0,0,0,.72.5,1.27,1.27,0,0,0,.86-.07,6.34,6.34,0,0,0,1.23-.72,2.23,2.23,0,0,0,.5-.36v2.73a5.23,5.23,0,0,1-1.22.51,2.82,2.82,0,0,1-1.73-.15,3.55,3.55,0,0,1-1.66-1.36,3.85,3.85,0,0,1-1-1.88,2.84,2.84,0,0,1,.15-1.72,7.56,7.56,0,0,1,1.15-1.59,19.61,19.61,0,0,1,1.8-1.65c.72-.58,1.37-1.08,2-1.52l.5-.28V67c-.29.29-.65.51-1,.87-.57.5-1.08.93-1.51,1.29a4.77,4.77,0,0,0-.86,1,1.69,1.69,0,0,0-.29.86A1.16,1.16,0,0,0,251.57,71.86Z"/><path class="cls-1" d="M262.37,76.25a1.25,1.25,0,0,0,1-.36,1.62,1.62,0,0,0,.72-1,2.1,2.1,0,0,0-.51-1.22l-.5-.72-.72.57V70.63l.79-.57,2.3,3.16a4.52,4.52,0,0,1,.65,1.16,3.42,3.42,0,0,1,.22,1.15,3.27,3.27,0,0,1-.36,1.08,3.46,3.46,0,0,1-1,1,3,3,0,0,1-1.58.64,2.37,2.37,0,0,1-1-.21ZM261,75.31a2.53,2.53,0,0,0,1.08.94h.29v1.8a1.35,1.35,0,0,1-.51-.36h-.07a2.07,2.07,0,0,1,.22,1.8A2.73,2.73,0,0,1,260.78,81a3.75,3.75,0,0,1-1.15.65,2.36,2.36,0,0,1-1.22.14h-.07V79.42a2.08,2.08,0,0,0,1.15-.44,2,2,0,0,0,.57-.57,1.13,1.13,0,0,0,.22-.65,1,1,0,0,0-.07-.65c-.07-.14-.22-.36-.36-.57l-.58-.87-.93.65V73.44l4-2.81v2.88l-1.73,1.23Zm-2.66-1.87v2.88l-1.95,1.44.51.72a2.38,2.38,0,0,0,1.15.94h.29v2.37a3.32,3.32,0,0,1-1.23-.5,4.9,4.9,0,0,1-1.22-1.23l-2.31-3.24Z"/><polygon class="cls-1" points="268.63 77.83 269.78 79.78 263.38 83.66 271.3 82.15 272.59 84.31 262.58 90.43 261.43 88.56 267.84 84.6 259.99 86.11 258.62 83.95 268.63 77.83"/><polygon class="cls-1" points="273.74 86.26 274.82 88.34 270.79 90.43 272.09 92.88 276.05 90.79 277.13 92.88 266.76 98.28 265.68 96.19 270.29 93.82 268.99 91.37 264.38 93.74 263.3 91.66 273.74 86.26"/><path class="cls-1" d="M275.11,101.16l2.67-1.87h0l-2.67.5v-2l4-.65,1.15,2.66-5.11,4Zm-1.73,1.22,1.73-1.22v2.66l-4.46,3.46-.94-2.23,2-1.51-1.15-2.81-2.52.5L267.12,99l8-1.22v2l-2.66.51Z"/><polygon class="cls-1" points="18.86 143.5 18.86 143.5 26.86 144.14 26.64 146.3 14.98 145.37 15.19 142.7 23.62 140.47 23.62 140.47 15.41 139.75 15.62 137.59 27.29 138.6 27.07 141.26 18.86 143.5"/><path class="cls-1" d="M20.74,152.93h1.94c.58-.07,1-.15,1.37-.22a2.19,2.19,0,0,0,.79-.5,1.6,1.6,0,0,0,.22-.87,1.56,1.56,0,0,0-.22-.86,1.59,1.59,0,0,0-.79-.5,12.27,12.27,0,0,0-1.3-.22,17.27,17.27,0,0,0-2-.07h0v-2.38h0a22.5,22.5,0,0,1,2.44.15,4.73,4.73,0,0,1,1.95.57,3.35,3.35,0,0,1,1.22,1.23,4.24,4.24,0,0,1,.43,2.08,4.07,4.07,0,0,1-.43,2.09,2.8,2.8,0,0,1-1.29,1.15,4.77,4.77,0,0,1-1.95.58c-.72.07-1.51.07-2.37.07Zm-2-3.24c-.58.07-1,.14-1.37.21a1.47,1.47,0,0,0-.72.51,1.15,1.15,0,0,0-.29.86,1.6,1.6,0,0,0,.22.87,2.19,2.19,0,0,0,.79.5l1.3.22a17.27,17.27,0,0,0,2,.07h.08v2.3h-.08c-.86,0-1.72-.07-2.44-.14a5.54,5.54,0,0,1-1.95-.58,2.93,2.93,0,0,1-1.22-1.22,3.86,3.86,0,0,1-.36-2,4.61,4.61,0,0,1,.43-2.16A3.21,3.21,0,0,1,16.34,148a8,8,0,0,1,1.95-.58c.72-.07,1.51-.07,2.45-.07v2.38Z"/><path class="cls-1" d="M24.05,161.5a3.33,3.33,0,0,0,.65-.29,1.34,1.34,0,0,0,.43-.43,1.5,1.5,0,0,0,.14-.65,1.26,1.26,0,0,0-1-1.15,9.44,9.44,0,0,0-3.16-.22c-.72.07-1.37.14-2,.22a8.75,8.75,0,0,0-1.44.28,2.54,2.54,0,0,0-.86.58,1.07,1.07,0,0,0-.29.79,1.39,1.39,0,0,0,.14.51,2.65,2.65,0,0,0,.36.43,2,2,0,0,0,.65.36,1.47,1.47,0,0,0,.79.07l1.23-.07-.07-1.51,1.72-.15.22,3.82-6.34.36-.07-1.73,1.08-.07h0a2.34,2.34,0,0,1-1-1,3.46,3.46,0,0,1-.43-1.37,4.21,4.21,0,0,1,.29-1.8,2.61,2.61,0,0,1,1.15-1.15,6.51,6.51,0,0,1,1.87-.65c.8-.07,1.66-.21,2.67-.21a13.91,13.91,0,0,1,2.59,0,4.68,4.68,0,0,1,1.94.57,2.58,2.58,0,0,1,1.16,1.15,3.5,3.5,0,0,1,.5,1.88,3.66,3.66,0,0,1-.79,2.8,4.08,4.08,0,0,1-2.67,1l-.14-2.23C23.62,161.57,23.83,161.57,24.05,161.5Z"/><path class="cls-1" d="M21.74,171H22c.79-.07,1.44-.22,1.94-.29a10.32,10.32,0,0,0,1.37-.43,1.61,1.61,0,0,0,.65-.58,1.09,1.09,0,0,0,.14-.86c-.07-.36-.14-.65-.36-.79a1.17,1.17,0,0,0-.79-.43,6.7,6.7,0,0,0-1.37-.08c-.5.08-1.08.15-1.8.22v-2.38c.72-.07,1.37-.14,2-.14a5.54,5.54,0,0,1,2,.29,3.12,3.12,0,0,1,1.37,1,5.52,5.52,0,0,1,.58,4.24,3.58,3.58,0,0,1-1.15,1.37,5.84,5.84,0,0,1-1.8.79l-2.45.44h-.51Zm-2.16-2.95a10.61,10.61,0,0,0-1.36.43,1.61,1.61,0,0,0-.65.58,1.48,1.48,0,0,0-.15.86c.08.36.15.65.36.79a1.22,1.22,0,0,0,.8.43,6.64,6.64,0,0,0,1.36.08c.51-.08,1.08-.15,1.8-.22v2.38c-.72.07-1.36.14-1.94.14a5.63,5.63,0,0,1-2-.29,3.18,3.18,0,0,1-1.36-1.08,3.68,3.68,0,0,1-.65-2,4.16,4.16,0,0,1,.14-2.16A2.92,2.92,0,0,1,17,166.61a5.84,5.84,0,0,1,1.8-.79l2.45-.44h.5v2.38h-.21C20.74,167.83,20.09,168,19.58,168.05Z"/><polygon class="cls-1" points="28.87 177.05 21.17 180.36 21.17 180.43 29.59 180.36 30.31 183.82 18.86 186.19 18.36 184.1 27.58 182.16 27.58 182.16 17.93 182.02 17.57 180.22 26.28 176.26 26.28 176.18 17.14 178.13 16.7 175.97 28.15 173.59 28.87 177.05"/><polygon class="cls-1" points="30.67 191.88 29.52 187.85 26.86 188.64 27.94 192.38 26.06 192.96 24.98 189.14 21.96 190.01 23.18 194.18 21.31 194.76 19.44 188.28 30.67 185.04 32.54 191.3 30.67 191.88"/><polygon class="cls-1" points="33.41 199.66 32.54 197.21 23.33 200.52 22.54 198.29 31.75 194.98 30.89 192.6 32.69 191.95 35.21 198.94 33.41 199.66"/><polygon class="cls-1" points="30.38 208.01 30.38 208.01 37.73 204.84 38.59 206.78 27.86 211.46 26.78 209.02 33.19 203.11 33.12 203.04 25.63 206.35 24.77 204.34 35.5 199.66 36.58 202.18 30.38 208.01"/><polygon class="cls-1" points="39.31 208.08 40.32 210.17 29.81 215.42 28.8 213.26 39.31 208.08"/><polygon class="cls-1" points="45.43 218.81 33.12 221.76 32.18 220.25 44.5 217.22 45.43 218.81"/><polygon class="cls-1" points="51.34 227.95 49.75 229.1 47.38 225.65 45.07 227.23 47.38 230.47 45.72 231.55 43.49 228.38 39.31 231.26 37.94 229.32 47.59 222.62 51.34 227.95"/><path class="cls-1" d="M46.8,235.51a4.3,4.3,0,0,0-.58.51c-.14.21-.28.43-.36.57a2.06,2.06,0,0,0-.07.65.92.92,0,0,0,.29.58,1.24,1.24,0,0,0,.58.5.8.8,0,0,0,.57,0,1.13,1.13,0,0,0,.65-.22l.65-.43,6.41-5.11,1.51,1.87-6.41,5a4.37,4.37,0,0,1-1.66.94,3.38,3.38,0,0,1-1.44.07,2.7,2.7,0,0,1-1.22-.58,11.46,11.46,0,0,1-.94-1,13.24,13.24,0,0,1-.79-1.16,2.88,2.88,0,0,1-.29-1.29,2.13,2.13,0,0,1,.36-1.37,4.58,4.58,0,0,1,1.3-1.44l6.41-5.11,1.44,1.87Z"/><path class="cls-1" d="M55.15,244.51c.36-.36.87-.79,1.44-1.29s.94-.87,1.3-1.23a4.83,4.83,0,0,0,.72-1.08,1.47,1.47,0,0,0,.14-.93,2,2,0,0,0-.5-.94l-.72-.79-2.38,2.23v-3.17l2.09-1.94,2.59,2.88A3.71,3.71,0,0,1,60.91,240a2.93,2.93,0,0,1-.07,1.58,6.36,6.36,0,0,1-.94,1.66,17.12,17.12,0,0,1-1.65,1.72,18.42,18.42,0,0,1-2.09,1.66c-.36.22-.72.43-1,.58Zm-2.95.07a2.06,2.06,0,0,0,.79.65,1.48,1.48,0,0,0,.94-.07,2.67,2.67,0,0,0,1.15-.65h.07v2.67c-.29.07-.57.14-.79.21a3.3,3.3,0,0,1-1.66-.14A4.13,4.13,0,0,1,51.12,246l-2.52-2.73,6.55-6v3.17l-3.67,3.38Z"/><path class="cls-1" d="M62.14,247.39a2.08,2.08,0,0,0,1.29.79,1.59,1.59,0,0,0,1.15-.57,1.78,1.78,0,0,0,.51-1.15,2.36,2.36,0,0,0-.72-1.16l-.65-.57-1.94,2.09v-3.46l1.44-1.51,2.88,2.73a3.89,3.89,0,0,1,.86,1,3.25,3.25,0,0,1,.43,1.08,2.18,2.18,0,0,1-.14,1.15,3,3,0,0,1-.79,1.23,3.4,3.4,0,0,1-1.44.86,2.09,2.09,0,0,1-1.59-.29v.08a2.38,2.38,0,0,1,.51,1.65,2.78,2.78,0,0,1-.87,1.8,5.18,5.18,0,0,1-1,.79c-.14.08-.21.08-.28.15v-3.31c0-.08,0-.08.07-.15a2,2,0,0,0,.07-.65,1.08,1.08,0,0,0-.14-.43V247.1Zm-.36-.57-.15.14.15.14v2.45c0-.07-.08-.07-.08-.14-.14-.22-.28-.36-.43-.58l-.79-.65L58.1,250.7l.65.65A2.25,2.25,0,0,0,60,252a1.6,1.6,0,0,0,1.36-.65,2.5,2.5,0,0,0,.44-.57v3.31a2.06,2.06,0,0,1-.94.21,3.15,3.15,0,0,1-1.37-.21,5.61,5.61,0,0,1-1.44-1l-2.88-2.74,6.63-7Z"/><path class="cls-1" d="M69.05,255.89l2.16-4.11h-.07l-2.09,1.66v-2.52l2.3-1.66,2.23,1.88L69.05,261Zm-.36.65.36-.65V261l-.58,1.15-1.87-1.58,1.15-2.23-2.37-2-2,1.58-1.87-1.58,7.56-5.4v2.52l-2.16,1.66Z"/><polygon class="cls-1" points="76.54 253.44 78.41 254.88 72.72 262.8 76.1 265.25 74.95 266.83 69.62 262.94 76.54 253.44"/><path class="cls-1" d="M79.78,266a2.85,2.85,0,0,0-.36.72.77.77,0,0,0-.08.57,1,1,0,0,0,.22.58,1.35,1.35,0,0,0,.58.5,1.22,1.22,0,0,0,1,.22c.36,0,.65-.29.94-.65a2.5,2.5,0,0,0,.29-.65v-.64a6,6,0,0,0-.36-.72c-.15-.22-.36-.51-.65-.87a4.56,4.56,0,0,1-.79-1.15,4.33,4.33,0,0,1-.43-1.15,2.78,2.78,0,0,1,0-1.15,3.43,3.43,0,0,1,.57-1.16,3,3,0,0,1,2.16-1.65,3.66,3.66,0,0,1,2.74.72,6.51,6.51,0,0,1,1.15.86,4.43,4.43,0,0,1,.65,1.08,2.73,2.73,0,0,1,.07,1.3A2.49,2.49,0,0,1,87,264l-.15.29-1.94-1.22a2.29,2.29,0,0,0,.43-1.23,1,1,0,0,0-.58-.86,1.31,1.31,0,0,0-.64-.29h-.51a1.55,1.55,0,0,0-.43.29c-.07.14-.22.29-.29.43a1.44,1.44,0,0,0-.29.87,2.16,2.16,0,0,0,.44,1.08L84.17,265a7.29,7.29,0,0,1,.57,1.08,2.72,2.72,0,0,1,.22,1,1.84,1.84,0,0,1-.14.86,2.55,2.55,0,0,1-.44.87A3.09,3.09,0,0,1,82,270.58a5.07,5.07,0,0,1-3-.87,3.79,3.79,0,0,1-2-2.3,3.29,3.29,0,0,1,.58-2.59l.29-.36,1.94,1.22Z"/><polygon class="cls-1" points="89.42 267.48 89.42 267.48 94.32 264.74 96.55 265.97 91.37 268.92 91.22 276.48 88.92 275.18 89.06 269.78 87.7 270.58 86.04 273.6 83.95 272.52 89.57 262.22 91.66 263.3 89.42 267.48"/><polygon class="cls-1" points="97.49 266.4 99.58 267.41 94.54 277.99 92.45 276.98 97.49 266.4"/><path class="cls-1" d="M103.18,278.14c-.08.21-.15.5-.22.72a1.42,1.42,0,0,0,.07.57,1.22,1.22,0,0,0,.29.51c.14.21.36.28.65.43a1.44,1.44,0,0,0,1.08,0,1.08,1.08,0,0,0,.79-.87,1.56,1.56,0,0,0,0-1.29,2.42,2.42,0,0,0-.43-.58c-.22-.21-.51-.5-.79-.72a6.87,6.87,0,0,1-1.08-1.08,3,3,0,0,1-.65-1,1.86,1.86,0,0,1-.15-1.08,3.1,3.1,0,0,1,.29-1.29,3,3,0,0,1,1.8-2,3.49,3.49,0,0,1,2.81.15,5.63,5.63,0,0,1,1.3.64,3.62,3.62,0,0,1,.86.94,2.38,2.38,0,0,1,.36,1.22,3.56,3.56,0,0,1-.29,1.44l-.07.29-2.16-.79a2.31,2.31,0,0,0,.22-1.3,1.12,1.12,0,0,0-.8-.79,1.07,1.07,0,0,0-.64-.14,1.39,1.39,0,0,0-.51.14,1.48,1.48,0,0,0-.36.29,3.59,3.59,0,0,0-.21.5,2.07,2.07,0,0,0-.15.94,1.91,1.91,0,0,0,.72.94l1.44,1.44c.29.36.58.64.79.93a4.53,4.53,0,0,1,.36.94,3.14,3.14,0,0,1,.08.86,5.64,5.64,0,0,1-.29.94,3.27,3.27,0,0,1-2,2.16,5,5,0,0,1-3.16-.29,3.69,3.69,0,0,1-2.31-1.87,3.25,3.25,0,0,1,.07-2.59l.15-.51,2.23.87Z"/><path class="cls-1" d="M114.7,280.94l.5-5.4h-.07l-1.3,2.38V274l.51-.86,2.8.86-.5,12.17-2.3-.72.21-2.59-.72-.15v-2.08Zm-.87-3-1.37,2.38,1.37.36v2.08l-2.3-.72-1.23,2.16-2.37-.72,5.9-9.43Z"/><polygon class="cls-1" points="121.32 284.11 121.39 284.18 125.06 276.12 127.44 276.7 122.11 287.5 119.16 286.78 119.3 274.75 121.75 275.33 121.32 284.11"/><polygon class="cls-1" points="134.28 279.86 130.18 279.14 129.67 281.88 133.56 282.53 133.2 284.4 129.31 283.75 128.81 286.85 133.06 287.64 132.77 289.51 126.14 288.36 128.16 276.84 134.64 277.92 134.28 279.86"/><polygon class="cls-1" points="139.46 280.44 135.5 280.01 135.72 278.06 142.42 278.86 142.2 280.58 136.94 288.07 141.41 288.58 141.19 290.52 134.14 289.73 134.28 288 139.46 280.44"/><polygon class="cls-1" points="147.17 279.14 149.54 279.22 149.47 283.68 152.21 283.75 152.28 279.22 154.58 279.29 154.44 291.02 152.14 290.95 152.21 285.77 149.47 285.7 149.33 290.95 147.02 290.88 147.17 279.14"/><path class="cls-1" d="M160.13,289.3a2.26,2.26,0,0,0,.79-.29,2.06,2.06,0,0,0,.5-.79,6.13,6.13,0,0,0,.15-1.37c0-.58,0-1.23-.07-2a15.63,15.63,0,0,0-.15-2,5.33,5.33,0,0,0-.29-1.3,1.49,1.49,0,0,0-.57-.72.85.85,0,0,0-.58-.22v-1.72a3.37,3.37,0,0,1,1.8.28,3,3,0,0,1,1.3,1.23,6.4,6.4,0,0,1,.65,1.87c.07.79.21,1.58.21,2.45a15.12,15.12,0,0,1,0,2.52,4.23,4.23,0,0,1-.43,1.94,2.73,2.73,0,0,1-1.15,1.23,4.24,4.24,0,0,1-2.09.57h-.29V289.3Zm-.22-8.72h-.21a1.19,1.19,0,0,0-.87.29,1.24,1.24,0,0,0-.43.79,7,7,0,0,0-.22,1.3c0,.58.08,1.22.08,2s.07,1.51.14,2,.22,1,.29,1.37a1.92,1.92,0,0,0,.57.72,4.34,4.34,0,0,0,.65.22V291a3.6,3.6,0,0,1-1.87-.36,2.66,2.66,0,0,1-1.22-1.15,3.83,3.83,0,0,1-.65-1.87,19.21,19.21,0,0,1-.29-2.45v-2.45a6.58,6.58,0,0,1,.43-1.94,3.58,3.58,0,0,1,1.15-1.37,4.27,4.27,0,0,1,2.09-.5h.36Z"/><polygon class="cls-1" points="164.74 278.71 170.93 277.99 171.14 279.94 167.26 280.37 168.41 290.09 166.03 290.38 164.74 278.71"/><path class="cls-1" d="M177.05,287.35a1.53,1.53,0,0,0,.79-.36,1.16,1.16,0,0,0,.36-.86,4.43,4.43,0,0,0,0-1.37c-.07-.58-.14-1.22-.29-2s-.29-1.44-.36-1.94a5.6,5.6,0,0,0-.5-1.3,1.73,1.73,0,0,0-.58-.64c-.07,0-.14,0-.14-.08V277a2.38,2.38,0,0,1,1.08.15,3.4,3.4,0,0,1,1.44,1,5.79,5.79,0,0,1,.86,1.8,18.54,18.54,0,0,1,.51,2.44,17.48,17.48,0,0,1,.36,2.45,4.27,4.27,0,0,1-.22,1.95,3,3,0,0,1-1,1.44,4.12,4.12,0,0,1-1.94.79,6.37,6.37,0,0,1-1.08.07v-1.8A1.21,1.21,0,0,0,177.05,287.35Zm-.72-8.57a1.51,1.51,0,0,0-.79,0,1.77,1.77,0,0,0-.8.36,1.61,1.61,0,0,0-.28.87,3.88,3.88,0,0,0,0,1.37,13,13,0,0,0,.28,1.94c.15.79.29,1.44.36,2a5.51,5.51,0,0,0,.51,1.29,1.67,1.67,0,0,0,.57.65h.15v1.8a2.53,2.53,0,0,1-1.08-.14,3,3,0,0,1-1.44-1,5.3,5.3,0,0,1-.87-1.8c-.21-.72-.36-1.51-.57-2.38s-.22-1.65-.29-2.45a4.52,4.52,0,0,1,.22-2,3.07,3.07,0,0,1,.93-1.44,4.69,4.69,0,0,1,2-.79,5.24,5.24,0,0,1,1.08-.08Z"/><polygon class="cls-1" points="180.22 276.41 183.67 275.54 187.42 283.1 187.42 283.1 186.98 274.68 190.37 273.74 193.32 285.12 191.23 285.62 188.86 276.62 188.78 276.62 189.14 286.2 187.42 286.63 183.02 278.14 182.95 278.14 185.33 287.21 183.24 287.78 180.22 276.41"/><polygon class="cls-1" points="191.52 273.31 197.71 271.15 198.36 273.02 194.4 274.39 195.34 276.98 199.01 275.69 199.66 277.49 195.98 278.78 196.99 281.81 201.1 280.37 201.74 282.17 195.41 284.4 191.52 273.31"/><polygon class="cls-1" points="201.46 271.73 199.08 272.74 198.36 270.94 205.27 268.06 205.99 269.86 203.62 270.86 207.43 279.86 205.2 280.8 201.46 271.73"/><polygon class="cls-1" points="205.92 267.77 208.08 266.69 210.02 270.72 212.54 269.5 210.53 265.46 212.62 264.38 217.87 274.9 215.71 275.98 213.41 271.3 210.96 272.52 213.26 277.2 211.18 278.28 205.92 267.77"/><polygon class="cls-1" points="213.77 263.81 215.71 262.66 219.53 269.14 218.23 261.22 220.39 259.92 226.37 270 224.42 271.15 220.61 264.67 221.9 272.59 219.74 273.89 213.77 263.81"/><polygon class="cls-1" points="228.38 254.09 232.42 266.18 230.9 267.19 226.87 255.17 228.38 254.09"/><path class="cls-1" d="M243.29,252.22a3.91,3.91,0,0,0-.87-1.88,8,8,0,0,0-.86-.72,2.51,2.51,0,0,0-.86-.36,1.83,1.83,0,0,0-.87,0v-2a2.65,2.65,0,0,1,1.3-.15,3.64,3.64,0,0,1,1.65.51,4.14,4.14,0,0,1,1.44,1.15,4.68,4.68,0,0,1,1.3,3.38,4.42,4.42,0,0,1-1.8,3.1l1,1.15L243,258l-1-1.16a6.62,6.62,0,0,1-2.16,1.23V256a3.49,3.49,0,0,0,1-.58l-1-1.08v-3.38l2.67,3A2,2,0,0,0,243.29,252.22Zm-3.46-3v.08a1.9,1.9,0,0,0-.93.5l.93,1.08v3.38l-2.59-3a2.31,2.31,0,0,0-.65.79,1.9,1.9,0,0,0-.14.87,2,2,0,0,0,.21.93,5.75,5.75,0,0,0,.65.94A3.38,3.38,0,0,0,239,256a1.5,1.5,0,0,0,.79,0v2.09a3.48,3.48,0,0,1-1.22.07,4.57,4.57,0,0,1-3.17-1.73,4.71,4.71,0,0,1-.94-1.58,5,5,0,0,1-.28-1.73,4.4,4.4,0,0,1,.5-1.58,5.08,5.08,0,0,1,1.22-1.52l-.93-1.15,1.8-1.58.93,1.15a5.68,5.68,0,0,1,1.73-1,1.33,1.33,0,0,1,.36-.14Z"/><path class="cls-1" d="M250.06,251.35l-.22.22a.24.24,0,0,1-.14.07c0,.07-.08.14-.15.22s-.21.14-.29.21L248,250.85a3.4,3.4,0,0,0,.5-.51c.29-.28.43-.5.36-.79a2.51,2.51,0,0,0-.21-.93l-.08-.29-8.42-3.75,1.87-1.87,5.33,2.81-2.95-5.18,1.73-1.73,4,7.92c.29.57.5,1.08.72,1.51a3.65,3.65,0,0,1,.21,1.15,1.91,1.91,0,0,1-.21,1.08A3.54,3.54,0,0,1,250.06,251.35Z"/><path class="cls-1" d="M257.26,240.62l-3.68-3.24v-3l5.19,4.46.72-.79,3.24,2.74-1.44,1.65-1.73-1.51-3.74,4.32,1.8,1.51-1.44,1.66-2.6-2.3v-1.23h0v-4.25a14.75,14.75,0,0,1,.94,1.16,10.35,10.35,0,0,1,.72,1.15Zm-3.68-3.24-2.23-1.94-1.51,1.73,1.44,1.22c.36.29.72.65,1.15,1s.72.72,1.08,1.15l.07.07v4.25a10.13,10.13,0,0,0-.79-1.58,9.22,9.22,0,0,0-1-1.3,10,10,0,0,0-1.22-1.22c-.43-.43-.94-.87-1.44-1.3L247,237.6l4.39-5.11,2.23,1.87v3Zm0,7.49v1.23l-.64-.51Z"/><path class="cls-1" d="M262.37,234.36a2,2,0,0,0,.43-.72,1.1,1.1,0,0,0,.14-.65.91.91,0,0,0-.28-.65,2.82,2.82,0,0,0-.65-.64,1.72,1.72,0,0,0-1-.44v-2.37a2.7,2.7,0,0,1,1,.14,3.87,3.87,0,0,1,1.44.72,6.64,6.64,0,0,1,1.22,1.23,3.1,3.1,0,0,1,.22,2.73,6,6,0,0,1-.79,1.44L261.94,238l-.94-.72v-2.95l.86.72Zm-1.37-3.1h-.36a3.23,3.23,0,0,0-1.15.94l-.51.72,2,1.44v2.95l-8.5-6.26,4-5.47,1.58,1.15-2.66,3.6,2.08,1.51.87-1.15a5.27,5.27,0,0,1,1.08-1.15,2.84,2.84,0,0,1,1.15-.58.66.66,0,0,1,.36-.07Z"/><path class="cls-1" d="M266.4,223.92l-2.52-.94v-2.16l8.06,2.67-1.29,2-2.38-.86-1.73,2.66,1.8,1.8-1.29,2-3.17-3.46v-3.09l1.3,1.29Zm-2.52-.94-2.52-.93h0l2.52,2.52v3.09l-5-5.47,1.58-2.45,3.46,1.08Z"/><path class="cls-1" d="M273.1,221.69a2.54,2.54,0,0,0-.29.5c-.15.15-.22.29-.29.36l-1.8-.93c.07-.08.07-.15.14-.22l.08-.07a3.78,3.78,0,0,1,.21-.51,1.44,1.44,0,0,0-.07-.5,4.81,4.81,0,0,0-.65-.72,9.33,9.33,0,0,0-1.37-1l-2.3-1.44c-1-.5-2.16-1.22-3.6-1.94l3.17-5.91,10.29,5.55-1.08,2.09-8.64-4.61-1,1.8c1.22.65,2.3,1.22,3.16,1.8s1.66,1,2.24,1.37a14.34,14.34,0,0,1,1.44,1.22,2.93,2.93,0,0,1,.64,1.08,1.56,1.56,0,0,1,.08,1A3.52,3.52,0,0,1,273.1,221.69Z"/><path class="cls-1" d="M279.29,209.59a4.47,4.47,0,0,1-1.23,1.8,3.49,3.49,0,0,1-1.65.58,6.59,6.59,0,0,1-2-.29,20,20,0,0,1-2.3-.94c-.79-.36-1.58-.72-2.23-1.08a7,7,0,0,1-1.51-1.29,3.64,3.64,0,0,1-.65-1.66,4.24,4.24,0,0,1,.5-2.09,3.39,3.39,0,0,1,1.15-1.65,3.07,3.07,0,0,1,1.44-.58,3.32,3.32,0,0,1,1.44.15,5.65,5.65,0,0,1,1.23.5l-.94,2.16a4.55,4.55,0,0,0-1.8-.5c-.5,0-.79.28-1,.79a.87.87,0,0,0-.07.72,1.51,1.51,0,0,0,.51.72,5,5,0,0,0,1.15.79c.5.29,1.15.58,1.87.94s1.51.64,2,.79a3.34,3.34,0,0,0,1.29.29,1.81,1.81,0,0,0,.72-.15,1.08,1.08,0,0,0,.43-.57,1.27,1.27,0,0,0,.15-.58.94.94,0,0,0-.22-.58,2.64,2.64,0,0,0-.65-.64,7.76,7.76,0,0,0-1.36-.8l.93-2.16a9.35,9.35,0,0,1,1.66.94,3.19,3.19,0,0,1,1.08,1.08,2.58,2.58,0,0,1,.43,1.44A3.11,3.11,0,0,1,279.29,209.59Z"/><polygon class="cls-1" points="270.36 200.45 271.15 198.22 275.54 199.87 275.54 199.8 272.23 195.41 273.17 192.96 276.7 197.71 284.26 196.78 283.32 199.22 277.92 199.8 278.93 201.1 282.17 202.32 281.3 204.55 270.36 200.45"/><polygon class="cls-1" points="273.38 192.17 274.03 190.01 281.23 192.17 274.82 187.27 275.54 184.82 286.78 188.14 286.13 190.3 279 188.21 285.34 193.03 284.62 195.48 273.38 192.17"/><path class="cls-1" d="M289.15,178.42a4,4,0,0,1-.86,1.94,3,3,0,0,1-1.44,1,5.83,5.83,0,0,1-2,.14c-.72-.07-1.58-.14-2.44-.29s-1.66-.36-2.38-.57a8.39,8.39,0,0,1-1.8-.94,2.57,2.57,0,0,1-1-1.44,4.36,4.36,0,0,1-.07-2.16,4,4,0,0,1,.79-1.87,2.7,2.7,0,0,1,1.23-.86,4.44,4.44,0,0,1,1.44-.22c.5.07.93.14,1.36.22l-.43,2.3a4.5,4.5,0,0,0-1.94-.07,1.12,1.12,0,0,0-.72,1,.85.85,0,0,0,.07.72,2.64,2.64,0,0,0,.65.64,10.15,10.15,0,0,0,1.37.44,20.23,20.23,0,0,0,2,.5c.87.14,1.59.22,2.16.29a7.84,7.84,0,0,0,1.3,0,1.74,1.74,0,0,0,.72-.36,2.35,2.35,0,0,0,.21-.65.73.73,0,0,0,0-.58.89.89,0,0,0-.28-.57,4.4,4.4,0,0,0-.87-.43,5.73,5.73,0,0,0-1.44-.44l.43-2.3a10.16,10.16,0,0,1,1.73.43,3.75,3.75,0,0,1,1.37.87,2.57,2.57,0,0,1,.79,1.29A4.23,4.23,0,0,1,289.15,178.42Z"/><path class="cls-1" d="M286.13,167.54l-2.74.29v-2.09l7.49-1-.29,2.44-2.52.22-.36,3.1,2.38.86-.29,2.45-6.41-2.59v-2.16l2.45.79Zm-2.74.29-2.66.22v.07l2.66.94v2.16l-4.82-1.95.29-2.88,4.53-.65Z"/><path class="cls-1" d="M289.44,159.91a2.26,2.26,0,0,0-.36-1.44,1.47,1.47,0,0,0-1.37-.57h-.07v-2.45h.29a4.15,4.15,0,0,1,1.29.21,2.18,2.18,0,0,1,1.08.72,2.51,2.51,0,0,1,.65,1.16,3.12,3.12,0,0,1,.22,1.72l-.15,4-3.38-.14V160.7l1.73.08Zm-1.8-2a2.73,2.73,0,0,0-.79.07,1.25,1.25,0,0,0-.51.36,1.73,1.73,0,0,0-.36.57,2.32,2.32,0,0,0-.07.72l-.07,1,1.8.07v2.38l-5-.22v-2.37l1.51.07.08-.65a2.86,2.86,0,0,0-.29-1.51,1.72,1.72,0,0,0-1.15-.5h-.15v-2.38a2.56,2.56,0,0,1,1.51.58,2.06,2.06,0,0,1,.87,1.36h.07A2.31,2.31,0,0,1,286,156a2.54,2.54,0,0,1,1.66-.5Zm-5-2.38v2.38a1.49,1.49,0,0,0-1.08.36,2.74,2.74,0,0,0-.43,1.29v.87l1.51.07v2.37l-3.38-.21.21-3.89a4.32,4.32,0,0,1,.22-1.37,2.29,2.29,0,0,1,.5-1,2.25,2.25,0,0,1,.94-.64,4.15,4.15,0,0,1,1.44-.22Z"/><polygon class="cls-1" points="279.65 153.94 279.58 147.46 281.52 147.46 281.52 151.63 284.33 151.63 284.26 147.74 286.2 147.67 286.2 151.63 289.37 151.63 289.37 147.24 291.31 147.24 291.31 153.94 279.65 153.94"/><path class="cls-1" d="M291.1,142.2A4.72,4.72,0,0,1,291,144a2.39,2.39,0,0,1-.57,1.22,3.91,3.91,0,0,1-1.08.72,8.23,8.23,0,0,1-1.59.29h-.14l-.22-2.37h.15a2.24,2.24,0,0,0,.72-.08,2.77,2.77,0,0,0,.65-.28,1.2,1.2,0,0,0,.36-.44,1.44,1.44,0,0,0,.14-.79,1.57,1.57,0,0,0-.5-1.08,2.77,2.77,0,0,0-1.44-.29,2,2,0,0,0-1.37.51,1.83,1.83,0,0,0-.36,1.37c0,.07.07.14.07.28v.44l-1.8.14v-.43a2.18,2.18,0,0,0-.58-1.37,2,2,0,0,0-1.44-.29c-.5.07-.86.15-1,.43a1.22,1.22,0,0,0-.29.94,1.47,1.47,0,0,0,.29.86,1.64,1.64,0,0,0,.86.44h.65l.14,2.3h-.07a3.18,3.18,0,0,1-2.52-.79A3.83,3.83,0,0,1,279,143a4.16,4.16,0,0,1,.58-2.66,2.88,2.88,0,0,1,2.23-1.08h.86a3.38,3.38,0,0,1,1.51.79,6.49,6.49,0,0,1,.44.72,2.89,2.89,0,0,1,.72-1.58,3.11,3.11,0,0,1,1.8-.65,3.31,3.31,0,0,1,2.88.79A4.46,4.46,0,0,1,291.1,142.2Z"/></g></g></svg>