<svg xmlns="http://www.w3.org/2000/svg" xmlns:xlink="http://www.w3.org/1999/xlink" width="1080" zoomAndPan="magnify" viewBox="0 0 810 809.999993" height="1080" preserveAspectRatio="xMidYMid meet" version="1.0"><path fill="#ffffff" d="M 696.804688 232.945312 L 696.480469 229.105469 C 694.183594 201.539062 690.492188 174.078125 685.71875 146.871094 C 673.847656 144.644531 661.542969 142.636719 648.953125 140.734375 C 647.949219 134.082031 646.839844 127.476562 645.617188 120.917969 C 637.90625 119.589844 630.125 118.335938 622.339844 117.332031 L 621.15625 115.785156 C 617.785156 89.621094 612.976562 54.226562 608.636719 29.136719 C 608.488281 28.28125 608.300781 27.4375 608.078125 26.597656 C 607.855469 25.761719 607.59375 24.933594 607.300781 24.117188 C 607.007812 23.300781 606.679688 22.496094 606.316406 21.710938 C 605.953125 20.921875 605.558594 20.148438 605.128906 19.394531 C 604.699219 18.640625 604.242188 17.90625 603.75 17.191406 C 603.257812 16.476562 602.738281 15.785156 602.1875 15.113281 C 601.636719 14.445312 601.058594 13.796875 600.453125 13.175781 C 599.847656 12.554688 599.214844 11.960938 598.558594 11.394531 C 597.902344 10.828125 597.226562 10.289062 596.523438 9.78125 C 595.820312 9.273438 595.097656 8.792969 594.355469 8.347656 C 593.609375 7.902344 592.851562 7.488281 592.070312 7.105469 C 591.292969 6.722656 590.5 6.375 589.691406 6.0625 C 588.882812 5.746094 588.0625 5.46875 587.230469 5.226562 C 586.398438 4.980469 585.558594 4.773438 584.707031 4.601562 C 583.859375 4.429688 583.003906 4.292969 582.140625 4.195312 C 581.28125 4.097656 580.414062 4.035156 579.546875 4.011719 L 229.972656 4.011719 C 229.105469 4.035156 228.238281 4.097656 227.378906 4.195312 C 226.515625 4.292969 225.660156 4.429688 224.8125 4.601562 C 223.960938 4.773438 223.121094 4.980469 222.289062 5.226562 C 221.457031 5.46875 220.636719 5.746094 219.828125 6.0625 C 219.019531 6.375 218.226562 6.722656 217.449219 7.105469 C 216.667969 7.488281 215.910156 7.902344 215.164062 8.347656 C 214.421875 8.792969 213.699219 9.273438 212.996094 9.78125 C 212.292969 10.289062 211.613281 10.828125 210.957031 11.394531 C 210.300781 11.960938 209.671875 12.554688 209.066406 13.175781 C 208.460938 13.796875 207.882812 14.445312 207.332031 15.113281 C 206.78125 15.785156 206.261719 16.476562 205.769531 17.191406 C 205.277344 17.90625 204.816406 18.640625 204.390625 19.394531 C 203.960938 20.148438 203.566406 20.921875 203.203125 21.710938 C 202.839844 22.496094 202.511719 23.300781 202.21875 24.117188 C 201.925781 24.933594 201.664062 25.757812 201.441406 26.597656 C 201.21875 27.4375 201.03125 28.28125 200.882812 29.136719 C 196.539062 54.261719 191.734375 89.621094 188.363281 115.785156 L 187.179688 117.332031 C 179.394531 118.515625 171.613281 119.769531 163.898438 120.917969 C 162.679688 127.5 161.570312 134.105469 160.566406 140.734375 C 147.972656 142.636719 135.671875 144.644531 123.800781 146.871094 C 119.136719 174.078125 115.476562 201.539062 113.039062 229.105469 C 113.039062 230.398438 112.789062 231.65625 112.679688 232.945312 C 112.394531 236.535156 112.175781 240.378906 111.925781 244.074219 L 111.496094 250.320312 C 111.496094 253.65625 111.207031 256.996094 111.066406 260.335938 C 111.066406 262.773438 110.8125 265.214844 110.742188 267.511719 C 110.742188 270.5625 110.742188 273.617188 110.5625 276.667969 C 110.382812 279.71875 110.5625 282.160156 110.382812 284.886719 C 110.203125 287.613281 110.382812 290.378906 110.382812 293.140625 C 110.382812 295.90625 110.382812 299.242188 110.382812 302.257812 C 110.382812 305.273438 110.382812 307.285156 110.597656 309.796875 C 110.597656 313.097656 110.777344 316.367188 110.921875 319.632812 C 110.921875 321.929688 111.207031 324.226562 111.351562 326.523438 C 111.53125 330.113281 111.710938 333.703125 112 337.003906 C 112 339.121094 112.355469 341.242188 112.535156 343.359375 C 112.859375 346.949219 113.183594 350.539062 113.539062 354.34375 C 113.753906 356.386719 114.042969 358.433594 114.292969 360.480469 C 114.722656 364.070312 115.15625 367.910156 115.65625 371.644531 C 115.945312 373.617188 116.265625 375.554688 116.554688 377.53125 C 117.128906 381.335938 117.664062 385.105469 118.3125 388.910156 C 118.632812 390.8125 119.027344 392.5 119.386719 394.582031 C 120.105469 398.421875 120.785156 402.296875 121.574219 406.136719 C 121.96875 407.96875 122.398438 409.726562 122.832031 411.628906 C 123.65625 415.507812 124.480469 419.417969 125.449219 423.296875 C 125.878906 425.054688 126.382812 426.886719 126.847656 428.644531 C 127.851562 432.554688 128.820312 436.46875 129.933594 440.382812 C 130.433594 442.105469 130.972656 443.972656 131.511719 445.585938 C 132.660156 449.535156 133.804688 453.449219 135.097656 457.394531 C 135.671875 459.117188 136.28125 460.984375 136.890625 462.527344 C 138.183594 466.476562 139.507812 470.425781 140.945312 474.339844 C 141.554688 476.023438 142.234375 477.710938 142.882812 479.398438 C 144.386719 483.347656 145.859375 487.261719 147.472656 491.171875 C 148.152344 492.859375 148.941406 494.582031 149.660156 496.269531 C 151.273438 500.144531 152.925781 504.058594 154.71875 507.933594 C 155.472656 509.621094 156.332031 511.308594 157.121094 512.996094 C 158.949219 516.871094 160.707031 520.714844 162.679688 524.589844 L 165.335938 529.578125 C 167.34375 533.421875 169.316406 537.296875 171.46875 541.101562 C 172.402344 542.789062 173.441406 544.476562 174.375 546.164062 C 176.777344 550.289062 178.929688 553.878906 181.226562 557.683594 C 182.265625 559.40625 183.378906 561.09375 184.453125 562.78125 C 186.785156 566.550781 189.117188 570.285156 191.625 573.980469 C 192.773438 575.703125 193.996094 577.570312 195.214844 579.078125 C 197.726562 582.667969 200.269531 586.472656 202.925781 590.132812 C 204.144531 591.855469 205.472656 593.722656 206.761719 595.265625 C 209.453125 598.855469 212.144531 602.445312 214.976562 606.035156 C 216.339844 607.757812 217.773438 609.625 219.175781 611.203125 C 222.042969 614.792969 224.914062 618.382812 227.925781 621.972656 C 229.433594 623.730469 231.011719 625.5625 232.515625 627.214844 C 235.566406 630.800781 238.613281 634.210938 241.808594 637.695312 C 243.421875 639.453125 245.144531 641.285156 246.792969 642.933594 C 250.019531 646.523438 253.214844 649.789062 256.585938 653.199219 L 261.964844 658.476562 C 265.375 661.851562 268.78125 665.226562 272.332031 668.5625 L 278.144531 673.839844 C 281.335938 676.785156 284.457031 679.726562 287.753906 682.597656 C 287.753906 685.109375 287.503906 687.625 287.503906 690.171875 C 287.503906 692.078125 287.550781 693.980469 287.644531 695.886719 C 287.738281 697.789062 287.878906 699.6875 288.066406 701.585938 C 288.25 703.480469 288.484375 705.371094 288.765625 707.257812 C 289.042969 709.144531 289.367188 711.019531 289.738281 712.890625 C 290.113281 714.757812 290.527344 716.617188 290.992188 718.464844 C 291.453125 720.3125 291.960938 722.148438 292.515625 723.972656 C 293.066406 725.796875 293.664062 727.605469 294.304688 729.398438 C 294.949219 731.195312 295.632812 732.972656 296.363281 734.734375 C 297.089844 736.492188 297.863281 738.234375 298.675781 739.957031 C 299.488281 741.679688 300.347656 743.382812 301.242188 745.0625 C 302.140625 746.742188 303.078125 748.402344 304.058594 750.035156 C 305.039062 751.667969 306.054688 753.277344 307.113281 754.863281 C 308.171875 756.449219 309.269531 758.007812 310.402344 759.535156 C 311.539062 761.066406 312.707031 762.570312 313.917969 764.042969 C 315.125 765.515625 316.367188 766.957031 317.648438 768.371094 C 318.925781 769.78125 320.238281 771.160156 321.585938 772.507812 C 322.929688 773.855469 324.308594 775.171875 325.722656 776.449219 C 327.132812 777.730469 328.574219 778.972656 330.046875 780.183594 C 331.519531 781.390625 333.019531 782.5625 334.546875 783.699219 C 336.078125 784.835938 337.632812 785.929688 339.21875 786.988281 C 340.800781 788.046875 342.410156 789.066406 344.042969 790.046875 C 345.675781 791.027344 347.332031 791.964844 349.011719 792.863281 C 350.691406 793.761719 352.390625 794.621094 354.113281 795.433594 C 355.835938 796.25 357.574219 797.019531 359.335938 797.75 C 361.09375 798.480469 362.871094 799.164062 364.664062 799.808594 C 366.457031 800.449219 368.261719 801.046875 370.085938 801.601562 C 371.90625 802.152344 373.742188 802.660156 375.589844 803.125 C 377.4375 803.585938 379.292969 804.003906 381.164062 804.375 C 383.03125 804.75 384.90625 805.074219 386.789062 805.355469 C 388.671875 805.632812 390.5625 805.867188 392.457031 806.054688 C 394.351562 806.238281 396.25 806.378906 398.152344 806.472656 C 400.054688 806.566406 401.957031 806.613281 403.863281 806.613281 L 405.980469 806.613281 C 407.882812 806.613281 409.78125 806.566406 411.683594 806.46875 C 413.582031 806.375 415.480469 806.234375 417.371094 806.046875 C 419.265625 805.859375 421.152344 805.625 423.035156 805.347656 C 424.917969 805.066406 426.789062 804.738281 428.65625 804.367188 C 430.523438 803.996094 432.378906 803.578125 434.222656 803.113281 C 436.066406 802.652344 437.902344 802.140625 439.722656 801.589844 C 441.542969 801.035156 443.347656 800.4375 445.136719 799.796875 C 446.929688 799.15625 448.703125 798.46875 450.460938 797.742188 C 452.21875 797.011719 453.957031 796.238281 455.675781 795.425781 C 457.394531 794.609375 459.09375 793.753906 460.773438 792.859375 C 462.449219 791.960938 464.105469 791.023438 465.738281 790.042969 C 467.367188 789.0625 468.976562 788.046875 470.558594 786.988281 C 472.136719 785.929688 473.691406 784.835938 475.222656 783.699219 C 476.75 782.566406 478.25 781.394531 479.71875 780.1875 C 481.191406 778.980469 482.628906 777.738281 484.039062 776.457031 C 485.449219 775.179688 486.828125 773.867188 488.171875 772.523438 C 489.519531 771.175781 490.828125 769.796875 492.109375 768.386719 C 493.386719 766.976562 494.628906 765.535156 495.835938 764.066406 C 497.042969 762.59375 498.214844 761.09375 499.347656 759.566406 C 500.480469 758.035156 501.578125 756.480469 502.632812 754.898438 C 503.691406 753.316406 504.710938 751.707031 505.6875 750.074219 C 506.667969 748.441406 507.605469 746.785156 508.503906 745.109375 C 509.398438 743.429688 510.253906 741.730469 511.070312 740.007812 C 511.882812 738.289062 512.65625 736.550781 513.386719 734.789062 C 514.113281 733.03125 514.800781 731.257812 515.441406 729.464844 C 516.082031 727.671875 516.679688 725.867188 517.234375 724.042969 C 517.789062 722.222656 518.296875 720.390625 518.757812 718.542969 C 519.222656 716.695312 519.640625 714.839844 520.011719 712.972656 C 520.386719 711.105469 520.710938 709.230469 520.992188 707.347656 C 521.273438 705.464844 521.507812 703.574219 521.695312 701.679688 C 521.882812 699.785156 522.027344 697.890625 522.121094 695.988281 C 522.214844 694.085938 522.265625 692.183594 522.265625 690.28125 C 522.265625 687.730469 522.265625 685.21875 521.980469 682.707031 C 525.277344 679.835938 528.398438 676.890625 531.59375 673.949219 C 533.527344 672.1875 535.539062 670.359375 537.402344 668.671875 C 540.988281 665.332031 544.359375 661.921875 547.804688 658.550781 C 549.5625 656.824219 551.390625 654.960938 553.148438 653.308594 C 556.519531 649.898438 559.75 646.453125 562.976562 643.007812 C 564.628906 641.285156 566.347656 639.417969 567.964844 637.800781 C 571.15625 634.210938 574.203125 630.800781 577.253906 627.285156 C 578.757812 625.5625 580.335938 623.695312 581.808594 622.117188 C 584.820312 618.527344 587.691406 614.9375 590.597656 611.347656 C 591.960938 609.660156 593.394531 607.972656 594.757812 606.25 C 597.589844 602.660156 600.316406 599.070312 603.007812 595.480469 C 604.261719 593.757812 605.589844 591.894531 606.808594 590.386719 C 609.5 586.796875 612.011719 583.207031 614.519531 579.328125 C 615.703125 577.605469 616.925781 575.738281 618.109375 574.234375 C 620.582031 570.644531 622.914062 566.765625 625.28125 562.996094 C 626.320312 561.308594 627.433594 559.660156 628.472656 557.9375 C 630.769531 554.167969 632.921875 550.398438 635.109375 546.59375 C 636.078125 544.90625 637.082031 543.21875 638.015625 541.53125 C 640.132812 537.726562 642.140625 533.886719 644.113281 530.082031 C 645.007812 528.394531 645.941406 526.707031 646.800781 525.019531 C 648.738281 521.179688 650.390625 517.304688 652.363281 513.460938 C 653.152344 511.738281 654.011719 510.054688 654.800781 508.367188 C 656.558594 504.488281 658.207031 500.578125 659.859375 496.699219 C 660.578125 495.011719 661.328125 493.289062 662.011719 491.601562 C 663.625 487.726562 665.097656 483.8125 666.566406 479.902344 C 667.210938 478.179688 667.929688 476.3125 668.539062 474.769531 C 669.972656 470.855469 671.300781 466.945312 672.59375 462.996094 C 673.167969 461.273438 673.8125 459.40625 674.386719 457.828125 C 675.640625 453.914062 676.789062 450 677.972656 446.089844 C 678.476562 444.328125 679.050781 442.5 679.550781 440.8125 C 680.664062 436.898438 681.667969 432.953125 682.671875 429.039062 C 683.101562 427.246094 683.605469 425.449219 684.035156 423.726562 C 685.003906 419.8125 685.828125 415.867188 686.6875 411.953125 C 687.082031 410.160156 687.550781 408.363281 687.910156 406.570312 C 688.699219 402.65625 689.414062 398.78125 690.132812 394.867188 C 690.457031 393.035156 690.851562 391.277344 691.171875 389.339844 C 691.816406 385.5 692.390625 381.65625 692.964844 377.78125 C 693.21875 375.878906 693.574219 373.976562 693.828125 372.074219 C 694.363281 368.304688 694.757812 364.5 695.226562 360.695312 C 695.441406 358.722656 695.726562 356.78125 695.941406 354.773438 C 696.300781 351.183594 696.625 347.59375 696.949219 343.824219 C 697.125 341.707031 697.34375 339.589844 697.519531 337.4375 C 697.773438 333.847656 697.953125 330.257812 698.132812 326.882812 C 698.132812 324.621094 698.453125 322.359375 698.5625 320.097656 C 698.5625 316.726562 698.777344 313.351562 698.882812 309.976562 C 698.882812 307.535156 698.882812 305.128906 699.136719 302.796875 C 699.136719 299.640625 699.136719 296.480469 699.136719 293.320312 C 699.136719 290.164062 699.136719 288.046875 699.136719 285.390625 C 699.136719 282.734375 699.136719 279.679688 698.957031 276.808594 C 698.777344 273.9375 698.957031 270.960938 698.777344 268.015625 C 698.597656 265.074219 698.5625 262.953125 698.453125 260.40625 C 698.453125 257.140625 698.203125 253.910156 698.023438 250.644531 C 698.023438 248.5625 697.738281 246.480469 697.59375 244.398438 C 697.34375 240.808594 697.125 236.96875 696.839844 233.269531 " fill-opacity="1" fill-rule="nonzero"/><path fill="#e41f13" d="M 485.105469 604.851562 C 633.816406 473.1875 653.296875 295.941406 627.363281 143.101562 C 483.886719 117.761719 324.054688 116.21875 182.265625 143.101562 C 156.261719 296.335938 175.917969 474.085938 325.742188 605.855469 C 327.066406 604.589844 328.417969 603.359375 329.800781 602.160156 C 331.183594 600.957031 332.589844 599.792969 334.027344 598.65625 C 335.464844 597.523438 336.929688 596.425781 338.417969 595.359375 C 339.90625 594.296875 341.421875 593.265625 342.957031 592.273438 C 344.496094 591.28125 346.054688 590.324219 347.640625 589.40625 C 349.222656 588.484375 350.824219 587.605469 352.449219 586.761719 C 354.074219 585.917969 355.71875 585.113281 357.378906 584.347656 C 359.042969 583.582031 360.722656 582.855469 362.417969 582.167969 C 364.117188 581.484375 365.828125 580.835938 367.554688 580.230469 C 369.28125 579.625 371.023438 579.0625 372.777344 578.539062 C 374.53125 578.015625 376.296875 577.535156 378.070312 577.09375 C 379.847656 576.65625 381.632812 576.257812 383.429688 575.902344 C 385.222656 575.546875 387.027344 575.234375 388.835938 574.964844 C 390.648438 574.695312 392.460938 574.464844 394.285156 574.28125 C 396.105469 574.097656 397.929688 573.957031 399.753906 573.859375 C 401.582031 573.761719 403.410156 573.707031 405.242188 573.695312 C 407.070312 573.683594 408.902344 573.714844 410.730469 573.789062 C 412.558594 573.863281 414.382812 573.984375 416.207031 574.144531 C 418.03125 574.304688 419.847656 574.507812 421.660156 574.757812 C 423.476562 575.003906 425.28125 575.292969 427.082031 575.625 C 428.878906 575.957031 430.671875 576.332031 432.453125 576.75 C 434.234375 577.167969 436.007812 577.628906 437.765625 578.128906 C 439.527344 578.628906 441.273438 579.171875 443.007812 579.753906 C 444.742188 580.339844 446.464844 580.964844 448.167969 581.628906 C 449.875 582.292969 451.5625 582.996094 453.234375 583.742188 C 454.90625 584.488281 456.558594 585.269531 458.195312 586.09375 C 459.828125 586.917969 461.445312 587.777344 463.039062 588.675781 C 464.632812 589.578125 466.203125 590.511719 467.753906 591.488281 C 469.304688 592.460938 470.832031 593.46875 472.332031 594.515625 C 473.835938 595.5625 475.3125 596.640625 476.765625 597.757812 C 478.214844 598.871094 479.640625 600.023438 481.035156 601.203125 C 482.433594 602.386719 483.800781 603.601562 485.140625 604.851562 " fill-opacity="1" fill-rule="nonzero"/><path fill="#282878" d="M 352.679688 636.4375 C 342.9375 651.257812 335.320312 667.097656 329.828125 683.960938 C 334.710938 691.679688 340.191406 698.945312 346.269531 705.753906 C 352.347656 712.566406 358.945312 718.835938 366.058594 724.558594 C 386.144531 713.789062 405.261719 703.597656 416.882812 694.226562 L 407.054688 637.875 C 389.003906 634.53125 370.878906 634.050781 352.679688 636.4375 " fill-opacity="1" fill-rule="nonzero"/><path fill="#282878" d="M 490.308594 618.742188 C 486.136719 613.761719 481.558594 609.1875 476.582031 605.019531 C 471.601562 600.847656 466.296875 597.148438 460.660156 593.917969 C 455.027344 590.6875 449.15625 587.976562 443.042969 585.785156 C 436.929688 583.59375 430.675781 581.957031 424.273438 580.871094 C 428.371094 585.054688 432.03125 589.59375 435.253906 594.484375 C 438.476562 599.375 441.199219 604.53125 443.425781 609.949219 C 451.433594 612.339844 459.085938 615.570312 466.382812 619.648438 C 473.679688 623.722656 480.445312 628.542969 486.683594 634.105469 C 487.953125 631.75 488.890625 629.269531 489.5 626.664062 C 490.109375 624.054688 490.367188 621.417969 490.269531 618.742188 " fill-opacity="1" fill-rule="nonzero"/><path fill="#282878" d="M 499.703125 687.050781 C 495.398438 693.304688 490.453125 699.003906 484.871094 704.152344 C 479.289062 709.300781 473.210938 713.769531 466.632812 717.558594 C 468.179688 732.9375 467.558594 748.230469 464.769531 763.433594 C 474.714844 761.742188 484.421875 759.15625 493.894531 755.679688 C 498.667969 749.351562 502.707031 742.582031 506.011719 735.371094 C 509.3125 728.160156 511.800781 720.679688 513.476562 712.929688 C 512.242188 708.128906 510.460938 703.542969 508.132812 699.167969 C 505.804688 694.792969 502.996094 690.753906 499.703125 687.050781 " fill-opacity="1" fill-rule="nonzero"/><path fill="#282878" d="M 334.027344 772.835938 C 336.539062 775.019531 339.148438 777.078125 341.851562 779.023438 C 344.554688 780.964844 347.335938 782.78125 350.207031 784.46875 C 353.074219 786.160156 356.011719 787.714844 359.019531 789.136719 C 362.027344 790.554688 365.097656 791.835938 368.222656 792.980469 C 371.347656 794.121094 374.519531 795.117188 377.734375 795.96875 C 380.949219 796.824219 384.199219 797.527344 387.480469 798.082031 C 390.757812 798.640625 394.058594 799.046875 397.375 799.300781 C 400.691406 799.558594 404.015625 799.660156 407.34375 799.613281 L 407.878906 799.613281 C 410.964844 796.027344 413.199219 791.972656 414.585938 787.445312 C 406.292969 785.78125 398.257812 783.292969 390.476562 779.972656 C 382.695312 776.652344 375.332031 772.574219 368.390625 767.738281 C 357.113281 770.644531 345.660156 772.34375 334.027344 772.835938 " fill-opacity="1" fill-rule="nonzero"/><path fill="#282878" d="M 297.476562 670.679688 C 296.300781 677.367188 295.761719 684.101562 295.863281 690.890625 C 295.953125 699.113281 296.953125 707.222656 298.867188 715.21875 C 300.78125 723.214844 303.558594 730.898438 307.195312 738.269531 C 306.539062 730.414062 306.601562 722.566406 307.390625 714.722656 C 308.183594 706.878906 309.683594 699.175781 311.894531 691.609375 C 310.027344 690.457031 308.296875 689.121094 306.707031 687.605469 C 305.121094 686.089844 303.707031 684.421875 302.472656 682.605469 C 301.234375 680.792969 300.203125 678.867188 299.371094 676.832031 C 298.542969 674.796875 297.933594 672.699219 297.546875 670.539062 " fill-opacity="1" fill-rule="nonzero"/><path fill="#282878" d="M 346.796875 616.589844 C 355.261719 596.773438 376.710938 583.277344 376.710938 583.277344 C 371.585938 584.6875 366.59375 586.460938 361.726562 588.597656 C 356.859375 590.730469 352.171875 593.207031 347.660156 596.019531 C 343.152344 598.832031 338.871094 601.957031 334.8125 605.390625 C 330.753906 608.824219 326.964844 612.535156 323.445312 616.515625 C 325.296875 615.746094 327.203125 615.167969 329.167969 614.777344 C 331.132812 614.382812 333.117188 614.1875 335.121094 614.1875 C 337.125 614.1875 339.109375 614.382812 341.074219 614.777344 C 343.039062 615.167969 344.945312 615.746094 346.796875 616.515625 " fill-opacity="1" fill-rule="nonzero"/><path fill="#282878" d="M 429.402344 25.117188 L 419.824219 17.9375 L 427.859375 9.035156 L 441.488281 17.722656 L 454.222656 9.035156 L 462.542969 17.9375 L 452.789062 25.117188 C 449.066406 24.394531 445.3125 24.023438 441.523438 24.003906 C 437.429688 24.011719 433.390625 24.480469 429.402344 25.402344 " fill-opacity="1" fill-rule="nonzero"/><path fill="#282878" d="M 316.308594 46.871094 L 316.308594 28.957031 L 232.910156 28.957031 L 232.910156 109.828125 L 254.539062 109.828125 L 254.539062 81.757812 L 303.644531 81.757812 L 303.644531 64.242188 L 254.539062 64.242188 L 254.539062 46.871094 Z M 316.308594 46.871094 " fill-opacity="1" fill-rule="nonzero"/><path fill="#282878" d="M 548.808594 69.804688 L 517.710938 69.804688 L 517.710938 46.871094 L 548.164062 46.871094 C 556.019531 46.871094 562.117188 50.960938 562.117188 58.355469 C 562.117188 65.75 556.953125 69.804688 548.808594 69.804688 M 584.03125 58.535156 C 584.03125 40.011719 568.574219 29.136719 550.675781 29.136719 L 496.046875 29.136719 L 496.046875 109.828125 L 517.566406 109.828125 L 517.566406 87.71875 L 539.664062 87.71875 L 555.445312 109.828125 L 581.84375 109.828125 L 563.121094 85.597656 C 564.609375 85.214844 566.054688 84.710938 567.457031 84.085938 C 568.863281 83.460938 570.207031 82.726562 571.488281 81.878906 C 572.773438 81.03125 573.976562 80.085938 575.101562 79.039062 C 576.230469 77.996094 577.261719 76.863281 578.203125 75.648438 C 579.140625 74.429688 579.976562 73.144531 580.703125 71.789062 C 581.433594 70.4375 582.042969 69.03125 582.539062 67.574219 C 583.035156 66.121094 583.410156 64.632812 583.660156 63.117188 C 583.910156 61.601562 584.035156 60.074219 584.03125 58.535156 " fill-opacity="1" fill-rule="nonzero"/><path fill="#282878" d="M 351.101562 43.101562 L 364.730469 78.78125 L 336.753906 78.78125 L 350.417969 43.101562 Z M 377.175781 109.828125 L 401.316406 109.828125 L 366.273438 28.957031 L 336.179688 28.957031 L 300.632812 109.828125 L 324.199219 109.828125 L 329.578125 96.261719 L 371.6875 96.261719 Z M 377.175781 109.828125 " fill-opacity="1" fill-rule="nonzero"/><path fill="#282878" d="M 441.5625 95.21875 C 428.398438 95.21875 418.175781 84.738281 418.175781 69.445312 C 418.175781 54.15625 428.398438 43.675781 441.5625 43.675781 C 442.753906 43.640625 443.945312 43.703125 445.128906 43.863281 C 446.3125 44.027344 447.476562 44.285156 448.617188 44.636719 C 449.761719 44.992188 450.867188 45.433594 451.933594 45.96875 C 453.003906 46.503906 454.019531 47.125 454.988281 47.828125 C 455.953125 48.53125 456.859375 49.308594 457.695312 50.160156 C 458.535156 51.011719 459.300781 51.925781 459.988281 52.90625 C 460.675781 53.882812 461.28125 54.910156 461.800781 55.988281 C 462.320312 57.0625 462.746094 58.175781 463.082031 59.324219 L 485 59.324219 C 480.335938 37.789062 463.476562 25.980469 441.667969 25.980469 C 416.957031 25.980469 396.332031 43.351562 396.332031 69.445312 C 396.332031 95.542969 416.957031 112.953125 441.667969 112.953125 C 464.015625 112.953125 481.804688 100.101562 485.789062 78.636719 L 463.546875 78.636719 C 463.265625 79.847656 462.878906 81.023438 462.386719 82.167969 C 461.898438 83.3125 461.316406 84.40625 460.636719 85.449219 C 459.960938 86.492188 459.199219 87.46875 458.351562 88.378906 C 457.503906 89.289062 456.585938 90.121094 455.59375 90.871094 C 454.601562 91.621094 453.554688 92.28125 452.449219 92.851562 C 451.34375 93.421875 450.195312 93.890625 449.011719 94.261719 C 447.824219 94.632812 446.613281 94.898438 445.382812 95.058594 C 444.148438 95.21875 442.910156 95.273438 441.667969 95.21875 " fill-opacity="1" fill-rule="nonzero"/><path fill="#282878" d="M 159.992188 162.234375 C 153.75 163.238281 147.53125 164.28125 141.339844 165.355469 C 111.601562 328.101562 132.300781 516.011719 293.710938 659.160156 C 295.582031 652.367188 298.050781 645.804688 301.117188 639.464844 C 304.1875 633.125 307.800781 627.113281 311.96875 621.433594 C 165.910156 488.625 140.621094 319.238281 159.953125 162.234375 " fill-opacity="1" fill-rule="nonzero"/><path fill="#282878" d="M 668.289062 165.355469 L 649.671875 162.414062 C 668.863281 318.914062 643.789062 487.761719 499.023438 620.214844 C 503.246094 625.820312 506.925781 631.765625 510.066406 638.046875 C 513.207031 644.324219 515.753906 650.835938 517.710938 657.578125 C 677.507812 514.613281 697.988281 327.351562 668.359375 165.355469 " fill-opacity="1" fill-rule="nonzero"/><path fill="#ffffff" d="M 526.210938 382.699219 C 526.28125 385.023438 526.085938 387.328125 525.625 389.609375 C 525.164062 391.890625 524.449219 394.089844 523.484375 396.207031 C 522.515625 398.324219 521.320312 400.300781 519.898438 402.144531 C 518.472656 403.984375 516.859375 405.636719 515.054688 407.105469 C 513.25 405.640625 511.632812 403.984375 510.207031 402.144531 C 508.78125 400.304688 507.585938 398.328125 506.613281 396.210938 C 505.644531 394.09375 504.925781 391.894531 504.460938 389.613281 C 504 387.332031 503.800781 385.027344 503.867188 382.699219 C 503.867188 373.90625 508.601562 364.429688 515.199219 354.269531 C 521.65625 364.429688 526.210938 373.90625 526.210938 382.699219 M 391.632812 208.289062 C 390.019531 206.6875 388.117188 205.585938 385.929688 204.984375 C 386.53125 203.855469 387.320312 202.875 388.296875 202.042969 C 393.859375 201.53125 399.261719 202.234375 404.507812 204.160156 Z M 398.804688 236.789062 C 389.203125 236.46875 379.640625 236.925781 370.109375 238.152344 C 371.082031 235.070312 372.277344 232.078125 373.695312 229.179688 C 381.410156 227.347656 391.34375 224.222656 391.34375 224.222656 C 395.757812 226.738281 399.59375 233.84375 398.984375 236.789062 M 552.324219 243.964844 C 548.128906 234.023438 546.730469 216.433594 563.085938 216.722656 C 558.925781 207.640625 542.820312 208.753906 538.765625 217.726562 C 531.59375 203.371094 519.898438 195.222656 509.890625 195.292969 C 509.988281 199.339844 510.71875 203.269531 512.082031 207.078125 C 513.441406 210.890625 515.367188 214.390625 517.855469 217.582031 C 507.09375 217.582031 498.269531 224.761719 500.816406 235.53125 C 524.8125 221.171875 544.46875 246.046875 544.46875 269.882812 C 544.214844 275.65625 543.265625 281.308594 541.621094 286.847656 C 539.976562 292.386719 537.683594 297.644531 534.75 302.617188 C 534.804688 301.878906 534.789062 301.140625 534.699219 300.402344 C 534.609375 299.667969 534.449219 298.945312 534.214844 298.242188 C 533.980469 297.539062 533.675781 296.863281 533.308594 296.222656 C 532.9375 295.578125 532.507812 294.976562 532.015625 294.421875 C 531.527344 293.863281 530.988281 293.363281 530.394531 292.914062 C 529.804688 292.464844 529.175781 292.078125 528.507812 291.757812 C 527.839844 291.4375 527.144531 291.183594 526.425781 291 C 525.707031 290.816406 524.976562 290.707031 524.238281 290.671875 C 523.496094 290.636719 522.757812 290.675781 522.027344 290.785156 C 521.292969 290.898438 520.578125 291.082031 519.882812 291.339844 C 519.1875 291.59375 518.523438 291.914062 517.890625 292.304688 C 517.257812 292.695312 516.671875 293.140625 516.128906 293.648438 C 515.589844 294.15625 515.101562 294.710938 514.671875 295.316406 C 514.242188 295.917969 513.875 296.558594 513.574219 297.238281 C 513.273438 297.917969 513.042969 298.617188 512.878906 299.34375 C 512.71875 300.066406 512.632812 300.800781 512.617188 301.542969 C 521.261719 297.628906 531.304688 304.378906 526.964844 315.359375 C 523.125 321.175781 518.964844 326.847656 514.914062 332.484375 C 507.109375 322.390625 500.007812 311.824219 493.605469 300.789062 C 484.351562 282.300781 498.808594 275.949219 507.667969 283.414062 C 511.039062 270.277344 499.523438 264.535156 490.878906 267.90625 C 499.957031 257.140625 516.8125 255.8125 524.707031 263.492188 C 525.566406 246.585938 505.335938 239.625 491.8125 248.777344 C 497.839844 237.757812 491.132812 231.761719 491.132812 231.761719 C 483.277344 236.894531 473.988281 251.863281 473.988281 269.488281 C 473.988281 287.113281 481.160156 302.582031 490.308594 317.371094 C 489.234375 316.585938 488.113281 315.882812 486.9375 315.265625 C 485.757812 314.648438 484.542969 314.125 483.289062 313.691406 C 482.03125 313.257812 480.75 312.921875 479.445312 312.683594 C 478.136719 312.441406 476.820312 312.300781 475.496094 312.261719 C 474.167969 312.21875 472.84375 312.277344 471.523438 312.433594 C 470.207031 312.59375 468.90625 312.847656 467.625 313.203125 C 466.347656 313.558594 465.101562 314.003906 463.886719 314.546875 C 462.675781 315.089844 461.511719 315.71875 460.390625 316.4375 C 460.390625 316.4375 463.546875 326.597656 483.957031 327.566406 C 478.792969 332.125 478.433594 341.921875 487.902344 347.664062 C 488.90625 338.546875 499.09375 333.308594 506.375 341.167969 C 506.734375 341.742188 507.128906 342.28125 507.523438 342.820312 C 498.164062 356.460938 490.988281 369.488281 490.988281 382.699219 C 490.964844 385.355469 491.179688 387.988281 491.628906 390.605469 C 492.074219 393.222656 492.75 395.78125 493.652344 398.277344 C 494.554688 400.773438 495.671875 403.171875 497.003906 405.46875 C 498.332031 407.765625 499.855469 409.925781 501.570312 411.953125 L 500.886719 411.953125 C 486.324219 411.953125 474.703125 398.347656 471.871094 381.515625 C 450.347656 366.117188 435.535156 345.117188 443.425781 313.636719 C 444.382812 313.246094 445.292969 312.773438 446.164062 312.214844 C 447.03125 311.652344 447.839844 311.019531 448.589844 310.308594 C 449.339844 309.597656 450.019531 308.828125 450.625 307.992188 C 451.230469 307.15625 451.757812 306.269531 452.199219 305.335938 C 452.640625 304.402344 452.996094 303.4375 453.257812 302.4375 C 453.519531 301.4375 453.691406 300.421875 453.765625 299.394531 C 453.839844 298.363281 453.820312 297.332031 453.703125 296.308594 C 453.585938 295.28125 453.378906 294.273438 453.074219 293.285156 C 453.941406 292.664062 454.746094 291.964844 455.484375 291.195312 C 456.222656 290.425781 456.886719 289.59375 457.472656 288.703125 C 458.058594 287.808594 458.558594 286.871094 458.972656 285.886719 C 459.386719 284.902344 459.707031 283.890625 459.9375 282.847656 C 460.164062 281.800781 460.296875 280.746094 460.332031 279.679688 C 460.363281 278.613281 460.300781 277.550781 460.140625 276.496094 C 459.980469 275.441406 459.726562 274.40625 459.375 273.398438 C 459.027344 272.390625 458.589844 271.421875 458.0625 270.492188 C 458.777344 269.695312 459.414062 268.835938 459.972656 267.921875 C 460.53125 267.007812 461 266.050781 461.382812 265.046875 C 461.765625 264.046875 462.054688 263.019531 462.25 261.964844 C 462.445312 260.910156 462.542969 259.84375 462.542969 258.773438 C 462.542969 257.699219 462.445312 256.636719 462.25 255.582031 C 462.054688 254.527344 461.765625 253.5 461.382812 252.5 C 461 251.496094 460.53125 250.539062 459.972656 249.625 C 459.414062 248.707031 458.777344 247.851562 458.0625 247.054688 C 458.554688 246.132812 458.960938 245.171875 459.277344 244.175781 C 459.597656 243.179688 459.824219 242.160156 459.953125 241.121094 C 460.085938 240.085938 460.121094 239.042969 460.0625 238 C 460.003906 236.953125 459.851562 235.921875 459.601562 234.90625 C 459.355469 233.890625 459.015625 232.902344 458.589844 231.949219 C 458.160156 230.996094 457.648438 230.085938 457.054688 229.226562 C 456.460938 228.367188 455.792969 227.566406 455.050781 226.828125 C 454.308594 226.089844 453.507812 225.425781 452.644531 224.835938 L 452.285156 224.835938 C 452.617188 223.476562 452.769531 222.101562 452.742188 220.707031 C 452.71875 219.3125 452.515625 217.941406 452.136719 216.597656 C 451.753906 215.253906 451.210938 213.984375 450.5 212.78125 C 449.789062 211.578125 448.9375 210.488281 447.945312 209.507812 C 448.953125 206.320312 449.648438 203.066406 450.027344 199.746094 C 446.921875 198.304688 443.695312 197.253906 440.339844 196.585938 L 449.09375 176.59375 C 449.09375 176.59375 440.125 174.1875 439.195312 181.652344 C 438.734375 181.542969 438.265625 181.46875 437.792969 181.4375 C 437.429688 181.375 437.058594 181.351562 436.6875 181.359375 C 436.316406 181.371094 435.953125 181.414062 435.589844 181.496094 C 435.226562 181.578125 434.875 181.695312 434.535156 181.84375 C 434.195312 181.992188 433.875 182.175781 433.570312 182.386719 C 433.265625 182.601562 432.984375 182.839844 432.730469 183.109375 C 432.472656 183.375 432.242188 183.667969 432.042969 183.980469 C 431.839844 184.292969 431.671875 184.621094 431.535156 184.964844 C 431.398438 185.3125 431.296875 185.667969 431.230469 186.03125 C 431.175781 186.707031 431.273438 187.359375 431.519531 187.988281 C 431.765625 188.617188 432.132812 189.164062 432.628906 189.621094 C 433.238281 189.496094 433.839844 189.523438 434.433594 189.707031 C 435.027344 189.894531 435.539062 190.210938 435.964844 190.664062 C 434.453125 191.648438 432.808594 192.285156 431.027344 192.570312 C 429.25 192.859375 427.488281 192.773438 425.742188 192.3125 C 423.398438 191.867188 421.390625 190.789062 419.71875 189.082031 C 420.324219 188.722656 420.984375 188.542969 421.691406 188.542969 C 422.398438 188.542969 423.054688 188.722656 423.664062 189.082031 C 424.199219 188.960938 424.703125 188.757812 425.179688 188.476562 C 425.652344 188.195312 426.074219 187.851562 426.4375 187.4375 C 426.804688 187.027344 427.101562 186.570312 427.324219 186.066406 C 427.550781 185.5625 427.691406 185.035156 427.75 184.488281 C 427.746094 184.109375 427.707031 183.734375 427.625 183.359375 C 427.546875 182.988281 427.433594 182.628906 427.285156 182.277344 C 427.136719 181.929688 426.953125 181.597656 426.738281 181.28125 C 426.527344 180.96875 426.28125 180.675781 426.011719 180.410156 C 425.742188 180.144531 425.445312 179.90625 425.128906 179.699219 C 424.808594 179.488281 424.476562 179.3125 424.125 179.171875 C 423.769531 179.027344 423.410156 178.921875 423.035156 178.851562 C 422.660156 178.777344 422.285156 178.742188 421.90625 178.746094 C 421.285156 178.652344 420.660156 178.652344 420.039062 178.746094 C 420.273438 178.4375 420.480469 178.113281 420.65625 177.765625 C 420.832031 177.421875 420.976562 177.0625 421.089844 176.691406 C 421.199219 176.320312 421.277344 175.945312 421.320312 175.558594 C 421.367188 175.175781 421.375 174.789062 421.351562 174.402344 C 421.324219 174.015625 421.265625 173.632812 421.171875 173.257812 C 421.078125 172.882812 420.949219 172.519531 420.789062 172.164062 C 420.632812 171.8125 420.441406 171.476562 420.222656 171.15625 C 420 170.839844 419.753906 170.542969 419.480469 170.265625 C 419.210938 169.992188 418.914062 169.746094 418.597656 169.523438 C 418.277344 169.300781 417.941406 169.109375 417.589844 168.949219 C 417.238281 168.789062 416.875 168.660156 416.5 168.566406 C 416.125 168.46875 415.746094 168.40625 415.359375 168.382812 C 414.972656 168.355469 414.585938 168.363281 414.203125 168.402344 C 413.816406 168.445312 413.4375 168.523438 413.066406 168.632812 C 412.695312 168.742188 412.339844 168.886719 411.992188 169.0625 C 411.648438 169.234375 411.320312 169.441406 411.011719 169.671875 C 410.703125 169.90625 410.417969 170.167969 410.15625 170.453125 C 409.894531 170.738281 409.660156 171.042969 409.453125 171.371094 C 409.246094 171.699219 409.070312 172.042969 408.921875 172.402344 C 408.777344 172.757812 408.664062 173.128906 408.585938 173.507812 C 408.507812 173.886719 408.464844 174.269531 408.453125 174.65625 C 408.441406 175.046875 408.46875 175.429688 408.527344 175.8125 C 408.585938 176.195312 408.679688 176.570312 408.804688 176.9375 C 408.929688 177.300781 409.089844 177.65625 409.277344 177.992188 C 408.683594 177.796875 408.074219 177.675781 407.449219 177.632812 C 407.074219 177.578125 406.695312 177.558594 406.3125 177.578125 C 405.933594 177.59375 405.558594 177.652344 405.1875 177.742188 C 404.820312 177.835938 404.460938 177.960938 404.117188 178.125 C 403.773438 178.289062 403.449219 178.480469 403.140625 178.707031 C 402.835938 178.933594 402.554688 179.191406 402.296875 179.472656 C 402.042969 179.753906 401.816406 180.058594 401.617188 180.382812 C 401.421875 180.710938 401.257812 181.054688 401.128906 181.410156 C 401 181.769531 400.90625 182.136719 400.851562 182.515625 C 400.84375 183.078125 400.925781 183.625 401.089844 184.160156 C 401.253906 184.699219 401.5 185.195312 401.820312 185.65625 C 402.140625 186.117188 402.527344 186.515625 402.972656 186.855469 C 403.421875 187.195312 403.90625 187.460938 404.4375 187.648438 C 405.089844 187.375 405.765625 187.285156 406.464844 187.382812 C 407.164062 187.476562 407.792969 187.746094 408.347656 188.1875 C 406.457031 189.660156 404.316406 190.449219 401.925781 190.554688 C 400.140625 190.765625 398.390625 190.601562 396.671875 190.070312 C 394.953125 189.539062 393.417969 188.683594 392.0625 187.503906 C 392.5625 187.089844 393.136719 186.832031 393.777344 186.730469 C 394.417969 186.625 395.042969 186.691406 395.648438 186.929688 C 396.179688 186.542969 396.605469 186.066406 396.929688 185.496094 C 397.257812 184.925781 397.449219 184.316406 397.515625 183.664062 C 397.496094 183.292969 397.441406 182.929688 397.351562 182.570312 C 397.261719 182.210938 397.140625 181.863281 396.980469 181.527344 C 396.824219 181.191406 396.636719 180.871094 396.417969 180.574219 C 396.199219 180.273438 395.953125 180 395.679688 179.75 C 395.410156 179.496094 395.113281 179.277344 394.796875 179.082031 C 394.484375 178.886719 394.152344 178.726562 393.804688 178.597656 C 393.457031 178.46875 393.101562 178.375 392.734375 178.316406 C 392.371094 178.253906 392 178.230469 391.632812 178.242188 L 390.234375 178.242188 C 390.234375 170.707031 381.085938 171.890625 381.085938 171.890625 L 387.972656 196.261719 C 384.789062 197.894531 381.8125 199.847656 379.042969 202.113281 L 357.269531 213.3125 C 357.269531 214.246094 357.949219 217.941406 360.390625 218.410156 C 359.816406 222.894531 360.675781 228.28125 364.695312 230.21875 C 365.625 233.167969 367.070312 235.835938 369.035156 238.222656 C 364.660156 238.691406 360.03125 239.300781 355.332031 240.054688 C 346.722656 241.417969 339.371094 238.726562 336.394531 231.691406 C 332.589844 239.625 336.679688 263.386719 368.675781 247.269531 C 370.304688 251.105469 370.9375 255.101562 370.578125 259.257812 C 370.894531 259.394531 371.214844 259.515625 371.546875 259.617188 C 390.628906 246.695312 400.777344 256.3125 398.339844 261.664062 C 392.375 263.261719 386.617188 265.417969 381.074219 268.136719 C 375.527344 270.851562 370.292969 274.078125 365.375 277.816406 C 336.679688 264.390625 320.253906 253.15625 310.246094 242.996094 C 303.824219 233.054688 313.222656 222 318.710938 209.078125 C 318.296875 208.578125 317.832031 208.136719 317.3125 207.75 C 317.449219 206.828125 317.460938 205.90625 317.347656 204.980469 C 317.230469 204.058594 316.996094 203.164062 316.636719 202.308594 C 316.277344 201.449219 315.804688 200.652344 315.226562 199.925781 C 314.648438 199.195312 313.984375 198.554688 313.230469 198.011719 C 312.476562 197.464844 311.664062 197.027344 310.792969 196.707031 C 309.917969 196.382812 309.019531 196.183594 308.089844 196.109375 C 307.164062 196.035156 306.242188 196.085938 305.328125 196.265625 C 304.417969 196.441406 303.542969 196.742188 302.710938 197.160156 C 303.109375 197.21875 303.5 197.316406 303.878906 197.449219 C 304.257812 197.585938 304.621094 197.753906 304.96875 197.957031 C 305.3125 198.160156 305.640625 198.394531 305.941406 198.660156 C 306.242188 198.925781 306.519531 199.214844 306.765625 199.535156 C 307.011719 199.851562 307.226562 200.191406 307.40625 200.550781 C 307.589844 200.910156 307.734375 201.28125 307.847656 201.667969 C 307.957031 202.054688 308.03125 202.449219 308.066406 202.851562 C 308.101562 203.25 308.097656 203.652344 308.058594 204.050781 C 301.351562 203.691406 294.964844 207.929688 295.109375 218.410156 C 293.171875 212.988281 291.738281 207.640625 289.585938 201.96875 C 288.675781 201.84375 287.765625 201.84375 286.859375 201.96875 C 280.402344 194.359375 269.75 198.378906 268.421875 204.015625 C 269.238281 203.664062 270.089844 203.453125 270.976562 203.386719 C 271.863281 203.320312 272.738281 203.398438 273.597656 203.621094 C 274.460938 203.847656 275.261719 204.203125 276.003906 204.695312 C 276.742188 205.1875 277.386719 205.785156 277.925781 206.492188 C 273.40625 211.769531 273.15625 222.574219 283.378906 229.753906 C 278.347656 228.195312 273.230469 226.996094 268.027344 226.164062 C 266.863281 227.203125 265.894531 228.398438 265.121094 229.753906 C 256.40625 230.46875 251.671875 238.078125 255.617188 245.292969 C 255.96875 244.480469 256.421875 243.726562 256.976562 243.039062 C 257.53125 242.347656 258.171875 241.746094 258.890625 241.230469 C 259.613281 240.714844 260.390625 240.304688 261.222656 240 C 262.054688 239.699219 262.910156 239.511719 263.796875 239.445312 C 265.695312 245.367188 270.96875 249.816406 285.316406 249.027344 C 282.375 251.453125 279.984375 254.339844 278.140625 257.679688 C 277.710938 258.511719 277.386719 259.382812 277.164062 260.292969 C 276.941406 261.203125 276.832031 262.125 276.832031 263.0625 C 276.832031 264 276.941406 264.921875 277.164062 265.832031 C 277.386719 266.742188 277.710938 267.613281 278.140625 268.445312 C 276.941406 268.667969 275.742188 268.660156 274.546875 268.417969 C 273.347656 268.175781 272.242188 267.71875 271.21875 267.046875 C 271.039062 275.914062 282.375 279.503906 290.695312 273.148438 C 291.945312 272.972656 293.140625 272.613281 294.285156 272.070312 C 295.144531 270.167969 296.972656 265.25 298.585938 260.765625 C 301.746094 265.933594 311.609375 279.933594 313.546875 282.554688 C 310.789062 283.117188 308.242188 284.183594 305.90625 285.746094 C 305.90625 290.628906 309.242188 295.476562 317.382812 296.515625 C 316.835938 296.992188 316.335938 297.507812 315.878906 298.070312 C 315.417969 298.628906 315.011719 299.226562 314.652344 299.855469 C 314.296875 300.484375 313.992188 301.140625 313.746094 301.820312 C 313.5 302.5 313.308594 303.195312 313.179688 303.910156 C 313.050781 304.621094 312.984375 305.339844 312.972656 306.0625 C 312.964844 306.789062 313.019531 307.507812 313.132812 308.222656 C 313.246094 308.9375 313.417969 309.640625 313.652344 310.324219 C 313.882812 311.011719 314.171875 311.671875 314.511719 312.308594 C 320.539062 310.574219 326.351562 308.289062 331.945312 305.453125 C 334.707031 308.578125 337.324219 311.449219 339.800781 313.925781 C 330.625 321.054688 320.988281 327.492188 310.890625 333.234375 C 300.738281 337.328125 300.632812 311.699219 299.628906 307.320312 C 298.828125 307.109375 298.015625 306.980469 297.1875 306.925781 C 296.695312 306.167969 296.109375 305.488281 295.429688 304.886719 C 294.75 304.289062 294.007812 303.789062 293.191406 303.394531 C 292.378906 302.996094 291.527344 302.714844 290.636719 302.546875 C 289.746094 302.382812 288.851562 302.339844 287.949219 302.414062 C 287.046875 302.492188 286.171875 302.6875 285.324219 303.003906 C 284.476562 303.320312 283.683594 303.742188 282.949219 304.269531 C 282.214844 304.800781 281.566406 305.417969 281 306.125 C 280.433594 306.832031 279.972656 307.601562 279.613281 308.433594 C 280.285156 308.128906 280.992188 307.929688 281.722656 307.835938 C 282.457031 307.742188 283.1875 307.757812 283.914062 307.882812 C 284.644531 308.007812 285.339844 308.238281 286 308.570312 C 286.660156 308.902344 287.257812 309.324219 287.792969 309.832031 C 282.265625 313.925781 279.253906 321.929688 287.21875 330.757812 L 286.785156 331.296875 C 280.671875 326.816406 274.980469 321.851562 269.714844 316.402344 C 268.894531 316.753906 268.117188 317.183594 267.382812 317.695312 C 257.265625 316.292969 252.03125 325.230469 254.433594 330.578125 C 254.742188 329.871094 255.160156 329.230469 255.675781 328.65625 C 256.195312 328.082031 256.789062 327.605469 257.460938 327.222656 C 258.132812 326.84375 258.847656 326.574219 259.605469 326.425781 C 260.363281 326.273438 261.128906 326.25 261.894531 326.34375 C 260.566406 333.523438 265.480469 342.496094 279.613281 342.570312 L 280.007812 343.214844 C 274.515625 343.777344 269.101562 344.761719 263.757812 346.160156 C 263.175781 347.300781 262.742188 348.496094 262.46875 349.746094 L 261.894531 350.035156 C 252.710938 355.382812 252.496094 367.730469 260.675781 371.570312 C 260.476562 370.519531 260.414062 369.460938 260.492188 368.394531 C 260.566406 367.324219 260.777344 366.285156 261.125 365.273438 C 261.46875 364.257812 261.9375 363.308594 262.53125 362.414062 C 263.125 361.523438 263.820312 360.722656 264.621094 360.011719 C 269.140625 365.46875 279.328125 366.4375 292.527344 354.378906 L 292.707031 354.378906 C 290.433594 359.734375 288.4375 365.191406 286.714844 370.746094 C 286.917969 372.398438 287.4375 373.941406 288.28125 375.375 C 289.121094 376.8125 290.214844 378.019531 291.558594 379 C 290.59375 380.152344 289.425781 381.03125 288.050781 381.628906 C 286.675781 382.230469 285.238281 382.492188 283.738281 382.410156 C 288.4375 388.515625 299.199219 386.71875 302.929688 380.152344 C 304.363281 379.636719 305.664062 378.882812 306.824219 377.894531 C 307.984375 376.90625 308.933594 375.742188 309.671875 374.40625 C 309.988281 368.890625 309.988281 363.375 309.671875 357.859375 C 309.671875 357.859375 313.257812 357 332.160156 354.019531 C 331.554688 356.277344 331.21875 358.574219 331.15625 360.910156 C 334.742188 362.992188 340.265625 362.921875 345.289062 357.679688 C 345.761719 359.941406 346.453125 362.128906 347.371094 364.25 C 357.234375 362.777344 363.332031 357.464844 365.304688 348.886719 C 375.167969 359.117188 388.476562 366.617188 399.128906 373.511719 C 376.207031 371.964844 336.753906 384.925781 336.753906 384.925781 C 336.753906 384.925781 339.585938 393.253906 350.347656 390.558594 C 348.015625 401.507812 358.273438 424.660156 361.859375 431.839844 C 334.601562 438.046875 335.136719 405.347656 335.136719 405.347656 C 333.203125 405.023438 331.292969 405.117188 329.398438 405.636719 C 329.070312 405.382812 328.726562 405.152344 328.367188 404.941406 C 328.011719 404.730469 327.640625 404.539062 327.261719 404.371094 C 326.882812 404.203125 326.496094 404.054688 326.101562 403.933594 C 325.703125 403.808594 325.300781 403.707031 324.894531 403.628906 C 324.488281 403.554688 324.078125 403.5 323.664062 403.46875 C 323.25 403.441406 322.835938 403.433594 322.417969 403.453125 C 322.003906 403.472656 321.59375 403.511719 321.183594 403.578125 C 320.773438 403.644531 320.371094 403.734375 319.96875 403.847656 C 319.570312 403.960938 319.179688 404.09375 318.796875 404.253906 C 318.410156 404.410156 318.039062 404.589844 317.675781 404.792969 C 317.3125 404.992188 316.960938 405.214844 316.625 405.457031 C 316.289062 405.699219 315.964844 405.957031 315.65625 406.238281 C 315.351562 406.515625 315.058594 406.8125 314.789062 407.125 C 314.515625 407.4375 314.261719 407.765625 314.023438 408.109375 C 313.789062 408.449219 313.574219 408.804688 313.382812 409.171875 C 313.1875 409.539062 313.015625 409.914062 312.863281 410.300781 C 313.539062 409.84375 314.265625 409.503906 315.050781 409.289062 C 315.835938 409.070312 316.636719 408.984375 317.449219 409.027344 C 318.261719 409.074219 319.046875 409.25 319.804688 409.554688 C 320.558594 409.855469 321.246094 410.273438 321.867188 410.804688 C 318.53125 415.792969 318.460938 423.152344 324.734375 429.757812 C 319.027344 426.933594 313.574219 423.679688 308.378906 419.992188 C 307.503906 420.414062 306.679688 420.914062 305.90625 421.5 C 296.078125 420.066406 289.835938 428.355469 292.238281 434.601562 C 292.710938 433.972656 293.253906 433.410156 293.863281 432.914062 C 294.476562 432.417969 295.136719 432.003906 295.851562 431.671875 C 296.5625 431.339844 297.308594 431.101562 298.078125 430.953125 C 298.851562 430.804688 299.632812 430.753906 300.417969 430.796875 C 300.058594 437.472656 305.871094 444.222656 319.75 444.007812 L 319.75 444.1875 C 314.304688 446.164062 309.332031 448.976562 304.828125 452.621094 C 304.523438 454.308594 304.523438 455.996094 304.828125 457.683594 C 304.476562 458.054688 304.148438 458.445312 303.84375 458.855469 C 303.539062 459.269531 303.265625 459.699219 303.019531 460.148438 C 302.769531 460.59375 302.550781 461.058594 302.363281 461.53125 C 302.175781 462.007812 302.019531 462.496094 301.894531 462.992188 C 301.765625 463.488281 301.675781 463.988281 301.613281 464.5 C 301.550781 465.007812 301.523438 465.515625 301.527344 466.027344 C 301.535156 466.539062 301.570312 467.050781 301.640625 467.558594 C 301.710938 468.0625 301.816406 468.566406 301.949219 469.058594 C 302.085938 469.550781 302.25 470.035156 302.445312 470.507812 C 302.644531 470.980469 302.871094 471.4375 303.125 471.882812 C 303.382812 472.324219 303.667969 472.75 303.976562 473.15625 C 304.289062 473.5625 304.625 473.949219 304.984375 474.3125 C 305.34375 474.675781 305.726562 475.015625 306.128906 475.328125 C 306.535156 475.640625 306.957031 475.929688 307.398438 476.1875 C 307.839844 476.449219 308.292969 476.679688 308.765625 476.878906 C 309.234375 477.082031 309.71875 477.25 310.210938 477.390625 C 308.988281 475.234375 308.019531 468.558594 311.394531 466.191406 C 321.6875 470.28125 330.117188 461.273438 334.347656 455.097656 C 333.492188 459.667969 333.492188 464.238281 334.347656 468.808594 C 334.542969 469.960938 334.898438 471.058594 335.414062 472.101562 C 335.933594 473.144531 336.589844 474.09375 337.386719 474.941406 C 338.1875 475.792969 339.089844 476.507812 340.097656 477.089844 C 341.109375 477.671875 342.179688 478.09375 343.316406 478.359375 C 343.25 479.125 343.078125 479.871094 342.804688 480.589844 C 342.527344 481.308594 342.160156 481.976562 341.695312 482.589844 C 341.234375 483.207031 340.695312 483.746094 340.078125 484.210938 C 339.464844 484.675781 338.796875 485.046875 338.078125 485.320312 C 345.253906 489.125 353.46875 482.953125 353.429688 474.984375 C 354.785156 473.949219 355.980469 472.75 357.019531 471.394531 C 353.871094 466.382812 351.933594 460.9375 351.207031 455.0625 C 353 450.359375 358.382812 447.597656 369.714844 445.550781 C 370.367188 446.25 371.066406 446.898438 371.8125 447.496094 C 372.558594 448.09375 373.347656 448.632812 374.171875 449.113281 C 375 449.59375 375.855469 450.011719 376.746094 450.367188 C 377.632812 450.71875 378.539062 451.007812 379.472656 451.230469 C 380.402344 451.449219 381.34375 451.601562 382.292969 451.683594 C 383.246094 451.765625 384.199219 451.777344 385.152344 451.71875 C 386.109375 451.660156 387.050781 451.53125 387.988281 451.335938 C 388.921875 451.136719 389.839844 450.871094 390.734375 450.539062 C 390.8125 450.074219 390.84375 449.605469 390.835938 449.132812 C 390.828125 448.660156 390.773438 448.195312 390.683594 447.734375 C 390.589844 447.269531 390.453125 446.820312 390.28125 446.382812 C 390.105469 445.941406 389.890625 445.523438 389.640625 445.125 C 389.390625 444.726562 389.105469 444.351562 388.789062 444.003906 C 388.472656 443.65625 388.125 443.335938 387.75 443.050781 C 387.375 442.765625 386.976562 442.515625 386.554688 442.304688 C 386.136719 442.089844 385.699219 441.917969 385.246094 441.78125 C 390.699219 438.695312 392.886719 431.011719 391.667969 428.429688 C 387.8125 428.546875 384.226562 429.589844 380.90625 431.550781 C 377.964844 410.660156 381.480469 409.011719 407.773438 415.148438 C 400.957031 430.871094 397.515625 441.386719 398.804688 449.246094 C 398.554688 463.28125 399.308594 472.148438 399.308594 472.148438 C 399.980469 472.484375 400.6875 472.710938 401.425781 472.824219 C 402.167969 472.9375 402.910156 472.933594 403.652344 472.816406 C 404.394531 472.699219 405.097656 472.46875 405.765625 472.128906 C 406.4375 471.785156 407.039062 471.351562 407.570312 470.824219 C 408.101562 470.292969 408.542969 469.695312 408.886719 469.027344 C 409.230469 468.363281 409.46875 467.65625 409.589844 466.917969 C 409.714844 466.175781 409.722656 465.433594 409.613281 464.691406 C 409.507812 463.949219 409.289062 463.238281 408.957031 462.566406 C 420.402344 468.945312 432.503906 473.648438 445.253906 476.671875 C 443.460938 478.933594 430.371094 495.585938 415.414062 494.007812 C 408.238281 492.429688 401.601562 480.402344 401.601562 480.402344 C 400.671875 480.3125 399.738281 480.3125 398.804688 480.402344 C 390.628906 476.347656 382.734375 481.730469 382.484375 488.050781 C 383.445312 487.234375 384.542969 486.691406 385.777344 486.425781 C 387.007812 486.160156 388.230469 486.199219 389.445312 486.542969 C 387.472656 490.382812 388.152344 495.335938 393.675781 499.390625 C 388.65625 498.890625 383.777344 498.136719 378.96875 497.777344 C 377.851562 498.425781 376.871094 499.238281 376.027344 500.21875 C 374.902344 500.105469 373.777344 500.144531 372.660156 500.332031 C 371.542969 500.519531 370.46875 500.851562 369.441406 501.328125 C 368.410156 501.804688 367.460938 502.40625 366.59375 503.132812 C 365.726562 503.863281 364.96875 504.691406 364.320312 505.621094 C 363.671875 506.554688 363.160156 507.554688 362.777344 508.621094 C 362.398438 509.691406 362.164062 510.789062 362.078125 511.921875 C 361.992188 513.050781 362.054688 514.175781 362.265625 515.289062 C 362.480469 516.402344 362.835938 517.46875 363.332031 518.488281 C 363.796875 516.121094 367.777344 510.234375 373.589844 511.8125 C 376.101562 519.242188 386.429688 524.230469 405.871094 512.671875 L 407.089844 513.355469 C 402.101562 517.667969 398.050781 522.726562 394.933594 528.539062 C 395.121094 530.304688 395.566406 532.003906 396.257812 533.636719 C 395.792969 534.59375 395.460938 535.59375 395.265625 536.640625 C 395.070312 537.6875 395.019531 538.742188 395.109375 539.800781 C 395.199219 540.863281 395.429688 541.890625 395.800781 542.890625 C 396.167969 543.890625 396.664062 544.820312 397.289062 545.683594 C 397.910156 546.546875 398.636719 547.3125 399.464844 547.980469 C 400.292969 548.644531 401.195312 549.191406 402.171875 549.609375 C 403.152344 550.03125 404.167969 550.316406 405.21875 550.460938 C 406.273438 550.609375 407.328125 550.609375 408.382812 550.46875 C 407.703125 549.882812 407.113281 549.21875 406.609375 548.476562 C 406.105469 547.734375 405.707031 546.941406 405.410156 546.09375 C 405.113281 545.246094 404.933594 544.375 404.863281 543.480469 C 404.796875 542.585938 404.84375 541.695312 405.011719 540.816406 C 412.578125 541.785156 418.390625 534.785156 425.886719 517.195312 C 426.675781 521.648438 427.789062 525.453125 427.789062 525.453125 C 428.292969 526.375 428.910156 527.214844 429.636719 527.972656 C 430.367188 528.730469 431.179688 529.378906 432.082031 529.917969 C 432.984375 530.457031 433.941406 530.867188 434.953125 531.152344 C 435.964844 531.4375 436.996094 531.582031 438.046875 531.589844 C 437.777344 532.921875 437.242188 534.136719 436.4375 535.234375 C 435.636719 536.332031 434.640625 537.210938 433.453125 537.871094 L 433.453125 538.050781 C 441.273438 541.390625 448.125 532.953125 447.480469 525.917969 C 448.902344 523.730469 449.75 521.335938 450.027344 518.738281 C 443.140625 511.5625 443.390625 506.140625 443.390625 506.140625 C 448.449219 496.761719 454.820312 488.386719 462.507812 481.015625 C 476.246094 483.777344 491.632812 478.179688 493.820312 471.753906 C 490.703125 467.699219 483.707031 465.722656 477 466.691406 C 485.964844 458.507812 482.882812 444.472656 478.253906 441.960938 C 470.363281 442.824219 461.324219 452.011719 459.820312 461.992188 L 436.96875 441.816406 C 448.808594 434.636719 462.078125 423.871094 468.5 410.195312 C 470.4375 412.480469 472.597656 414.53125 474.976562 416.355469 C 477.355469 418.175781 479.898438 419.726562 482.609375 421.007812 C 485.316406 422.285156 488.132812 423.261719 491.050781 423.9375 C 493.96875 424.613281 496.925781 424.976562 499.917969 425.019531 C 521.152344 425.019531 538.371094 405.996094 538.371094 382.554688 C 538.371094 369.667969 531.199219 356.605469 521.871094 343.070312 C 537.332031 321.535156 556.664062 296.945312 556.664062 269.308594 C 556.667969 264.863281 556.203125 260.46875 555.265625 256.125 C 554.328125 251.777344 552.941406 247.582031 551.105469 243.535156 " fill-opacity="1" fill-rule="nonzero"/><path fill="#d2d4d6" d="M 412.398438 216.902344 C 412.398438 216.902344 409.277344 217.980469 405.871094 219.269531 C 405.871094 219.269531 414.015625 225.839844 426.210938 237.21875 C 422.566406 229.78125 417.964844 222.996094 412.398438 216.867188 " fill-opacity="1" fill-rule="nonzero"/><path fill="#d2d4d6" d="M 360.390625 218.554688 C 363.042969 219.054688 369.464844 214.75 370.21875 214.136719 L 370.21875 213.816406 C 368.710938 214.28125 359.457031 216.398438 357.414062 213.457031 C 357.414062 214.390625 358.09375 218.085938 360.535156 218.554688 " fill-opacity="1" fill-rule="nonzero"/><path fill="#d2d4d6" d="M 538.515625 217.582031 C 539.527344 219.640625 540.421875 221.746094 541.203125 223.902344 C 544.792969 212.34375 557.992188 210.800781 562.4375 215.933594 C 557.742188 207.640625 542.425781 208.753906 538.515625 217.65625 " fill-opacity="1" fill-rule="nonzero"/><path fill="#d2d4d6" d="M 485.464844 272.109375 C 486.925781 270.230469 488.765625 268.863281 490.988281 268.015625 C 500.0625 257.246094 516.921875 255.917969 524.8125 263.601562 C 520.007812 246.765625 489.875 247.089844 485.355469 272.109375 " fill-opacity="1" fill-rule="nonzero"/><path fill="#d2d4d6" d="M 491.921875 248.777344 C 497.695312 238.222656 491.921875 232.300781 491.273438 231.796875 C 489.628906 234.179688 488.175781 236.671875 486.917969 239.28125 C 485.660156 241.890625 484.609375 244.582031 483.773438 247.351562 C 482.9375 250.125 482.320312 252.945312 481.925781 255.816406 C 481.527344 258.683594 481.355469 261.566406 481.410156 264.460938 C 481.765625 262.886719 482.265625 261.359375 482.902344 259.878906 C 483.542969 258.394531 484.3125 256.984375 485.214844 255.648438 C 486.117188 254.308594 487.136719 253.066406 488.269531 251.914062 C 489.402344 250.765625 490.632812 249.730469 491.957031 248.8125 " fill-opacity="1" fill-rule="nonzero"/><path fill="#d2d4d6" d="M 507.773438 283.558594 C 504.511719 270.636719 483.242188 272.324219 489.839844 292.316406 C 490.835938 295.253906 492.09375 298.078125 493.605469 300.789062 C 484.496094 282.410156 498.914062 276.09375 507.738281 283.558594 " fill-opacity="1" fill-rule="nonzero"/><path fill="#d2d4d6" d="M 488.011719 347.773438 C 489.015625 338.65625 499.203125 333.414062 506.484375 341.277344 C 505.265625 339.589844 504.082031 337.6875 502.898438 336.144531 C 495.148438 326.023438 481.160156 336.144531 488.046875 347.773438 " fill-opacity="1" fill-rule="nonzero"/><path fill="#d2d4d6" d="M 484.066406 327.746094 C 484.726562 327.191406 485.441406 326.726562 486.210938 326.34375 C 486.984375 325.964844 487.789062 325.679688 488.628906 325.492188 C 489.46875 325.304688 490.316406 325.21875 491.175781 325.238281 C 492.039062 325.253906 492.882812 325.371094 493.714844 325.589844 C 491.277344 323.980469 488.722656 322.570312 486.058594 321.367188 C 483.394531 320.164062 480.652344 319.183594 477.832031 318.421875 C 475.007812 317.660156 472.144531 317.125 469.238281 316.824219 C 466.332031 316.519531 463.417969 316.453125 460.5 316.617188 C 460.5 316.617188 463.65625 326.773438 484.066406 327.746094 " fill-opacity="1" fill-rule="nonzero"/><path fill="#d2d4d6" d="M 528.542969 313.171875 C 536.722656 298.8125 519.179688 290.34375 512.617188 301.648438 C 521.261719 297.738281 531.304688 304.484375 526.964844 315.46875 C 527.46875 314.714844 527.96875 313.960938 528.433594 313.171875 " fill-opacity="1" fill-rule="nonzero"/><path fill="#d2d4d6" d="M 500.566406 235.242188 C 524.597656 220.886719 544.21875 245.761719 544.21875 269.59375 C 544.046875 275.265625 543.199219 280.835938 541.671875 286.300781 C 540.140625 291.765625 537.976562 296.964844 535.179688 301.898438 C 570.761719 240.339844 517.640625 207.820312 500.566406 235.242188 " fill-opacity="1" fill-rule="nonzero"/><path fill="#d2d4d6" d="M 522.695312 343.359375 C 530.828125 332.601562 538.359375 321.4375 545.292969 309.867188 C 537.867188 320.097656 528.433594 330.078125 520.1875 339.660156 C 521.082031 340.882812 521.941406 342.136719 522.769531 343.25 " fill-opacity="1" fill-rule="nonzero"/><path fill="#d2d4d6" d="M 510.929688 347.917969 C 501.535156 359.726562 492.171875 372.648438 492.171875 387.761719 C 492.148438 390.917969 492.46875 394.042969 493.140625 397.128906 C 494.933594 402.613281 497.707031 407.542969 501.460938 411.917969 C 503.925781 411.859375 506.320312 411.417969 508.644531 410.597656 C 510.964844 409.773438 513.105469 408.613281 515.054688 407.105469 C 513.25 405.640625 511.632812 403.984375 510.207031 402.144531 C 508.78125 400.304688 507.585938 398.328125 506.613281 396.210938 C 505.644531 394.09375 504.925781 391.894531 504.460938 389.613281 C 504 387.332031 503.800781 385.027344 503.867188 382.699219 C 503.867188 373.90625 508.5625 364.429688 515.199219 354.269531 C 513.765625 352.007812 511.289062 348.382812 510.929688 347.917969 " fill-opacity="1" fill-rule="nonzero"/><path fill="#d2d4d6" d="M 507.488281 420.675781 C 491.058594 420.675781 477.71875 408.078125 473.484375 394.148438 C 473.28125 399.816406 471.941406 405.199219 469.46875 410.300781 C 471.40625 412.585938 473.566406 414.640625 475.945312 416.460938 C 478.324219 418.285156 480.867188 419.835938 483.574219 421.113281 C 486.285156 422.390625 489.097656 423.371094 492.019531 424.046875 C 494.9375 424.722656 497.894531 425.082031 500.886719 425.125 C 503.726562 425.09375 506.527344 424.738281 509.285156 424.058594 C 512.042969 423.378906 514.6875 422.394531 517.222656 421.109375 C 519.753906 419.820312 522.105469 418.257812 524.277344 416.429688 C 526.449219 414.597656 528.386719 412.542969 530.085938 410.265625 C 528.683594 411.875 527.128906 413.320312 525.417969 414.601562 C 523.710938 415.882812 521.886719 416.96875 519.949219 417.863281 C 518.011719 418.757812 516.003906 419.4375 513.921875 419.90625 C 511.835938 420.375 509.730469 420.617188 507.59375 420.640625 " fill-opacity="1" fill-rule="nonzero"/><path fill="#d2d4d6" d="M 409.277344 462.816406 C 407.984375 462.164062 406.78125 461.375 405.667969 460.449219 C 404.554688 459.519531 403.558594 458.480469 402.683594 457.328125 C 401.808594 456.171875 401.070312 454.933594 400.476562 453.613281 C 399.882812 452.292969 399.445312 450.921875 399.164062 449.5 C 398.878906 463.535156 399.59375 472.398438 399.59375 472.398438 C 400.265625 472.742188 400.976562 472.972656 401.71875 473.09375 C 402.464844 473.210938 403.207031 473.210938 403.953125 473.097656 C 404.699219 472.980469 405.40625 472.753906 406.082031 472.414062 C 406.753906 472.074219 407.359375 471.636719 407.894531 471.109375 C 408.429688 470.578125 408.875 469.976562 409.21875 469.308594 C 409.566406 468.636719 409.800781 467.929688 409.925781 467.183594 C 410.050781 466.441406 410.058594 465.695312 409.949219 464.949219 C 409.835938 464.203125 409.613281 463.492188 409.277344 462.816406 " fill-opacity="1" fill-rule="nonzero"/><path fill="#d2d4d6" d="M 529.046875 220.0625 C 521.40625 212.710938 514.9375 204.441406 509.640625 195.257812 C 509.738281 199.304688 510.46875 203.234375 511.828125 207.042969 C 513.191406 210.855469 515.117188 214.355469 517.601562 217.546875 C 521.601562 217.550781 525.414062 218.386719 529.046875 220.0625 " fill-opacity="1" fill-rule="nonzero"/><path fill="#d2d4d6" d="M 429.367188 209.972656 C 429.367188 209.972656 437.652344 206.132812 445.578125 201.753906 C 440.558594 200.570312 426.925781 200.894531 429.367188 209.972656 " fill-opacity="1" fill-rule="nonzero"/><path fill="#d2d4d6" d="M 430.585938 218.300781 C 431.679688 218.761719 432.8125 219.101562 433.980469 219.320312 C 435.148438 219.539062 436.328125 219.632812 437.515625 219.597656 C 438.703125 219.5625 439.875 219.402344 441.027344 219.121094 C 442.179688 218.835938 443.292969 218.429688 444.359375 217.90625 C 450.421875 227.632812 445.003906 244.578125 445.003906 244.578125 C 447.019531 241.136719 448.71875 237.546875 450.097656 233.808594 C 455.261719 239.085938 453.683594 252.6875 442.925781 264.570312 C 446.648438 262.109375 449.984375 259.203125 452.929688 255.847656 C 457.019531 268.160156 445.003906 279.71875 431.625 282.375 C 437.972656 282.214844 443.949219 280.648438 449.558594 277.671875 C 450.78125 291.097656 433.5625 299.207031 413.691406 298.382812 C 422.855469 300.417969 432.050781 300.5625 441.273438 298.8125 C 440.953125 312.921875 412.972656 316.472656 383.023438 308.039062 C 402.175781 316.546875 418.535156 319.164062 430.730469 317.835938 C 430.476562 326.273438 418.605469 329.574219 412.4375 328.894531 C 410.105469 345.296875 459.566406 374.441406 472.085938 381.695312 C 450.5625 366.296875 435.75 345.296875 443.675781 313.816406 C 444.628906 313.425781 445.539062 312.945312 446.40625 312.382812 C 447.269531 311.824219 448.074219 311.1875 448.824219 310.476562 C 449.570312 309.765625 450.246094 308.992188 450.851562 308.15625 C 451.453125 307.320312 451.976562 306.433594 452.417969 305.5 C 452.859375 304.570312 453.210938 303.601562 453.472656 302.605469 C 453.734375 301.609375 453.902344 300.59375 453.976562 299.566406 C 454.050781 298.535156 454.03125 297.507812 453.914062 296.484375 C 453.800781 295.457031 453.589844 294.453125 453.289062 293.464844 C 454.15625 292.84375 454.960938 292.144531 455.699219 291.375 C 456.4375 290.605469 457.101562 289.773438 457.6875 288.882812 C 458.273438 287.988281 458.773438 287.050781 459.1875 286.066406 C 459.601562 285.082031 459.921875 284.070312 460.152344 283.027344 C 460.378906 281.980469 460.511719 280.925781 460.546875 279.859375 C 460.578125 278.792969 460.515625 277.730469 460.355469 276.675781 C 460.195312 275.621094 459.941406 274.585938 459.59375 273.578125 C 459.242188 272.570312 458.804688 271.601562 458.277344 270.671875 C 458.992188 269.875 459.628906 269.015625 460.1875 268.101562 C 460.746094 267.1875 461.214844 266.226562 461.597656 265.226562 C 461.984375 264.226562 462.273438 263.199219 462.464844 262.144531 C 462.660156 261.089844 462.757812 260.023438 462.757812 258.953125 C 462.757812 257.878906 462.660156 256.816406 462.464844 255.761719 C 462.273438 254.707031 461.984375 253.679688 461.597656 252.679688 C 461.214844 251.675781 460.746094 250.71875 460.1875 249.804688 C 459.628906 248.886719 458.992188 248.03125 458.277344 247.234375 C 458.773438 246.3125 459.179688 245.355469 459.5 244.359375 C 459.816406 243.363281 460.042969 242.347656 460.175781 241.308594 C 460.308594 240.273438 460.347656 239.234375 460.285156 238.1875 C 460.226562 237.144531 460.074219 236.117188 459.828125 235.101562 C 459.578125 234.085938 459.242188 233.101562 458.8125 232.148438 C 458.382812 231.195312 457.871094 230.289062 457.273438 229.429688 C 456.679688 228.570312 456.011719 227.773438 455.269531 227.035156 C 454.527344 226.300781 453.722656 225.636719 452.859375 225.050781 C 452.75 224.964844 452.628906 224.894531 452.5 224.835938 C 452.816406 223.46875 452.949219 222.085938 452.90625 220.6875 C 452.863281 219.285156 452.640625 217.914062 452.242188 216.570312 C 451.84375 215.226562 451.277344 213.957031 450.550781 212.761719 C 449.824219 211.5625 448.953125 210.480469 447.945312 209.507812 C 448.933594 206.316406 449.613281 203.0625 449.992188 199.746094 C 449.992188 199.746094 444.359375 217.691406 430.65625 218.300781 " fill-opacity="1" fill-rule="nonzero"/><path fill="#d2d4d6" d="M 369.035156 247.269531 C 368.933594 244.425781 369.125 241.601562 369.609375 238.796875 C 369.761719 238.777344 369.917969 238.777344 370.074219 238.796875 C 372.179688 240.796875 374.570312 242.351562 377.25 243.464844 C 383.769531 240.890625 390.503906 239.109375 397.441406 238.117188 C 397.769531 238.082031 398.050781 237.945312 398.28125 237.710938 C 398.511719 237.472656 398.636719 237.1875 398.660156 236.859375 C 389.058594 236.542969 379.496094 236.996094 369.96875 238.222656 C 370.9375 235.144531 372.136719 232.152344 373.554688 229.25 C 370.75 230.199219 367.867188 230.59375 364.910156 230.433594 C 365.796875 233.289062 367.171875 235.886719 369.035156 238.222656 C 364.660156 238.691406 360.03125 239.300781 355.332031 240.054688 C 340.769531 242.242188 335.175781 241.382812 335.425781 234.992188 C 333.917969 244.613281 340.410156 261.519531 368.820312 247.269531 " fill-opacity="1" fill-rule="nonzero"/><path fill="#d2d4d6" d="M 410.03125 228.960938 C 412.113281 233.84375 412.902344 240.269531 406.910156 243.320312 C 407.304688 243.589844 407.667969 243.894531 408 244.238281 C 408.332031 244.578125 408.628906 244.949219 408.886719 245.351562 C 409.144531 245.75 409.363281 246.171875 409.535156 246.617188 C 409.710938 247.0625 409.839844 247.515625 409.921875 247.988281 C 410.007812 248.457031 410.042969 248.929688 410.03125 249.40625 C 410.019531 249.882812 409.964844 250.355469 409.859375 250.820312 C 409.753906 251.285156 409.605469 251.734375 409.410156 252.171875 C 409.214844 252.605469 408.980469 253.019531 408.707031 253.40625 C 406.515625 250.570312 397.621094 244.539062 375.527344 257.390625 L 375.777344 257.390625 C 392.277344 248.308594 400.886719 256.925781 398.589844 261.878906 C 413.117188 256.886719 432.414062 250.285156 410.03125 229.179688 " fill-opacity="1" fill-rule="nonzero"/><path fill="#d2d4d6" d="M 269.570312 355.238281 C 269.589844 355.75 269.523438 356.25 269.371094 356.738281 C 269.21875 357.226562 268.988281 357.671875 268.679688 358.082031 C 268.375 358.492188 268.007812 358.835938 267.582031 359.117188 C 267.15625 359.398438 266.695312 359.601562 266.199219 359.726562 C 265.867188 359.859375 265.558594 360.027344 265.265625 360.230469 C 269.785156 365.683594 279.972656 366.652344 293.171875 354.59375 L 293.351562 354.59375 C 293.351562 354.59375 294.679688 351.292969 295.46875 349.820312 C 287.683594 354.34375 275.597656 357.96875 269.570312 355.167969 " fill-opacity="1" fill-rule="nonzero"/><path fill="#d2d4d6" d="M 331.226562 360.945312 C 334.816406 363.027344 340.339844 362.957031 345.359375 357.714844 C 344.617188 354.40625 344.449219 351.070312 344.859375 347.703125 C 343.234375 350.492188 341.265625 353.007812 338.949219 355.257812 C 336.636719 357.507812 334.0625 359.402344 331.226562 360.945312 " fill-opacity="1" fill-rule="nonzero"/><path fill="#d2d4d6" d="M 365.449219 348.921875 C 366.34375 349.855469 367.277344 350.753906 368.210938 351.613281 C 371.109375 352.523438 374.078125 353.058594 377.117188 353.222656 C 380.152344 353.386719 383.160156 353.171875 386.144531 352.582031 C 383.632812 345.800781 377.894531 337.328125 361.359375 338.65625 C 358.128906 358.9375 347.371094 364.285156 347.371094 364.285156 C 357.234375 362.8125 363.332031 357.5 365.304688 348.921875 " fill-opacity="1" fill-rule="nonzero"/><path fill="#d2d4d6" d="M 351.101562 387.902344 C 351.546875 387.179688 352.050781 386.5 352.605469 385.859375 C 349.019531 386.683594 340.410156 388.191406 336.5 384.925781 C 336.5 384.925781 339.335938 393.253906 350.09375 390.558594 C 350.246094 389.558594 350.582031 388.628906 351.101562 387.761719 " fill-opacity="1" fill-rule="nonzero"/><path fill="#d2d4d6" d="M 280.117188 342.605469 L 280.511719 343.25 L 285.890625 342.640625 C 267.273438 333.199219 265.769531 322.109375 265.695312 319.558594 C 263.941406 321.515625 262.839844 323.789062 262.394531 326.378906 C 261.070312 333.558594 265.984375 342.53125 280.117188 342.605469 " fill-opacity="1" fill-rule="nonzero"/><path fill="#d2d4d6" d="M 406.554688 535.144531 C 406.828125 535.710938 406.964844 536.308594 406.964844 536.9375 C 406.964844 537.566406 406.828125 538.164062 406.554688 538.734375 C 406.164062 539.433594 405.875 540.175781 405.691406 540.957031 C 413.261719 541.925781 419.070312 534.929688 426.566406 517.339844 C 426.011719 514.265625 425.667969 511.164062 425.527344 508.042969 C 421.941406 516.550781 413.1875 531.699219 406.410156 535.070312 " fill-opacity="1" fill-rule="nonzero"/><path fill="#d2d4d6" d="M 407.84375 513.714844 C 409.277344 512.386719 410.75 511.128906 412.148438 510.125 L 411.359375 508.941406 C 397.011719 514.074219 383.308594 513.03125 378.683594 509.945312 C 377.714844 511.738281 376.460938 513.03125 374.269531 512.277344 C 376.746094 519.707031 387.078125 524.699219 406.554688 513.140625 Z M 407.84375 513.714844 " fill-opacity="1" fill-rule="nonzero"/><path fill="#d2d4d6" d="M 389.910156 486.902344 C 387.9375 490.742188 388.65625 495.695312 394.179688 499.75 C 400.023438 500.503906 405.871094 500.503906 411.71875 499.75 C 400.957031 498.316406 392.0625 492.96875 389.910156 487.082031 " fill-opacity="1" fill-rule="nonzero"/><path fill="#d2d4d6" d="M 477.859375 466.835938 C 486.828125 458.652344 483.742188 444.617188 479.117188 442.105469 C 477.15625 443.601562 475.402344 445.3125 473.851562 447.230469 C 472.300781 449.152344 471.003906 451.230469 469.953125 453.460938 C 468.90625 455.695312 468.136719 458.023438 467.648438 460.441406 C 467.160156 462.859375 466.964844 465.304688 467.0625 467.769531 L 437.832031 441.960938 C 433.035156 444.714844 428.097656 447.179688 423.015625 449.355469 C 418.535156 457.609375 445.507812 469.671875 459.28125 474.875 C 456.339844 482.988281 445.542969 500.003906 436.359375 502.839844 C 442.925781 515.367188 441.742188 522.976562 441.742188 522.976562 C 442.003906 522.824219 442.277344 522.703125 442.5625 522.609375 C 442.847656 522.515625 443.140625 522.449219 443.441406 522.410156 C 443.742188 522.375 444.042969 522.367188 444.34375 522.390625 C 444.644531 522.414062 444.9375 522.46875 445.226562 522.550781 C 445.519531 522.628906 445.796875 522.742188 446.066406 522.878906 C 446.335938 523.015625 446.585938 523.175781 446.824219 523.363281 C 447.058594 523.550781 447.277344 523.761719 447.472656 523.992188 C 447.664062 524.222656 447.835938 524.46875 447.980469 524.734375 C 448.128906 525.191406 448.25 525.660156 448.339844 526.132812 C 449.761719 523.945312 450.609375 521.550781 450.886719 518.953125 C 444 511.777344 444.25 506.355469 444.25 506.355469 C 449.308594 496.976562 455.679688 488.601562 463.371094 481.230469 C 477.105469 483.992188 492.496094 478.394531 494.683594 471.96875 C 491.5625 467.914062 484.566406 465.9375 477.859375 466.90625 " fill-opacity="1" fill-rule="nonzero"/><path fill="#d2d4d6" d="M 440.234375 196.585938 L 448.984375 176.59375 C 448.984375 176.59375 440.019531 174.1875 439.085938 181.652344 C 438.625 181.542969 438.160156 181.46875 437.6875 181.4375 C 437.320312 181.375 436.953125 181.351562 436.582031 181.359375 C 436.210938 181.371094 435.84375 181.414062 435.480469 181.496094 C 435.121094 181.578125 434.769531 181.695312 434.429688 181.84375 C 434.089844 181.992188 433.769531 182.175781 433.464844 182.386719 C 433.160156 182.601562 432.878906 182.839844 432.621094 183.109375 C 432.363281 183.375 432.136719 183.667969 431.933594 183.980469 C 431.734375 184.292969 431.566406 184.621094 431.429688 184.964844 C 431.292969 185.3125 431.191406 185.667969 431.125 186.03125 C 431.070312 186.707031 431.164062 187.359375 431.410156 187.988281 C 431.65625 188.617188 432.027344 189.164062 432.523438 189.621094 C 433.128906 189.496094 433.730469 189.523438 434.324219 189.707031 C 434.917969 189.894531 435.429688 190.210938 435.859375 190.664062 C 434.347656 191.648438 432.703125 192.285156 430.921875 192.570312 C 429.140625 192.859375 427.378906 192.773438 425.636719 192.3125 C 423.285156 191.875 421.277344 190.796875 419.609375 189.082031 C 420.21875 188.722656 420.875 188.542969 421.582031 188.542969 C 422.289062 188.542969 422.945312 188.722656 423.554688 189.082031 C 424.089844 188.957031 424.597656 188.753906 425.070312 188.46875 C 425.546875 188.1875 425.96875 187.84375 426.335938 187.433594 C 426.703125 187.019531 427.003906 186.566406 427.230469 186.0625 C 427.460938 185.5625 427.609375 185.035156 427.679688 184.488281 C 427.671875 184.109375 427.628906 183.730469 427.546875 183.359375 C 427.46875 182.984375 427.351562 182.625 427.199219 182.273438 C 427.050781 181.925781 426.867188 181.59375 426.648438 181.277344 C 426.433594 180.964844 426.191406 180.675781 425.917969 180.410156 C 425.644531 180.140625 425.347656 179.90625 425.03125 179.695312 C 424.710938 179.488281 424.375 179.3125 424.019531 179.171875 C 423.667969 179.027344 423.304688 178.921875 422.929688 178.847656 C 422.554688 178.777344 422.179688 178.742188 421.796875 178.746094 C 421.175781 178.652344 420.554688 178.652344 419.933594 178.746094 C 420.15625 178.253906 420.324219 177.746094 420.4375 177.21875 C 420.550781 176.691406 420.609375 176.160156 420.613281 175.617188 C 420.613281 175.078125 420.558594 174.546875 420.445312 174.019531 C 420.332031 173.492188 420.167969 172.980469 419.945312 172.488281 C 419.726562 171.996094 419.457031 171.535156 419.136719 171.097656 C 418.816406 170.664062 418.457031 170.265625 418.054688 169.910156 C 417.652344 169.550781 417.214844 169.238281 416.746094 168.976562 C 416.277344 168.710938 415.785156 168.496094 415.269531 168.335938 C 419.574219 186.5 406.445312 194.359375 399.667969 195.761719 L 399.667969 196.046875 C 408.042969 196.171875 416.304688 197.210938 424.453125 199.171875 C 425.589844 198.386719 426.800781 197.738281 428.085938 197.222656 C 429.367188 196.707031 430.691406 196.335938 432.054688 196.113281 C 433.417969 195.890625 434.789062 195.820312 436.171875 195.898438 C 437.550781 195.976562 438.90625 196.207031 440.234375 196.585938 " fill-opacity="1" fill-rule="nonzero"/><path fill="#d2d4d6" d="M 287.574219 330.757812 L 287.144531 331.296875 C 290.625 333.363281 294.308594 334.953125 298.191406 336.070312 C 293.0625 331.332031 286.535156 317.441406 288.148438 309.796875 C 282.625 313.890625 279.613281 321.894531 287.574219 330.722656 " fill-opacity="1" fill-rule="nonzero"/><path fill="#d2d4d6" d="M 407.699219 379.398438 C 410.75 410.769531 332.375 359.65625 369.25 437.761719 C 355.941406 438.695312 349.234375 434.746094 344.140625 428.714844 C 335.066406 420.316406 335.351562 405.167969 335.351562 405.167969 C 323.730469 407.824219 321.578125 425.808594 331.550781 433.882812 C 327.226562 433.242188 323.023438 432.144531 318.933594 430.59375 C 314.847656 429.046875 310.96875 427.078125 307.304688 424.695312 C 303.25 429.898438 303.214844 438.660156 309.492188 442.390625 C 312.980469 443.59375 316.566406 444.121094 320.253906 443.972656 L 320.253906 444.152344 C 321.785156 444.207031 323.292969 444.433594 324.773438 444.832031 C 319.429688 447.292969 314.644531 450.570312 310.425781 454.667969 C 310.074219 455.183594 309.785156 455.734375 309.5625 456.320312 C 312.433594 458.257812 315.230469 464.46875 312.578125 465.6875 L 311.929688 466.046875 C 322.226562 470.136719 330.65625 461.128906 334.886719 454.953125 C 334.03125 459.527344 334.03125 464.097656 334.886719 468.667969 C 335.078125 469.816406 335.433594 470.914062 335.953125 471.957031 C 336.46875 473.003906 337.128906 473.949219 337.925781 474.800781 C 338.722656 475.648438 339.628906 476.363281 340.636719 476.945312 C 341.648438 477.527344 342.71875 477.949219 343.855469 478.214844 C 343.789062 478.980469 343.617188 479.726562 343.339844 480.445312 C 343.066406 481.164062 342.695312 481.832031 342.234375 482.449219 C 341.769531 483.0625 341.230469 483.605469 340.617188 484.066406 C 340.003906 484.53125 339.335938 484.902344 338.617188 485.179688 C 345.792969 488.984375 354.003906 482.808594 353.96875 474.839844 C 355.320312 473.800781 356.515625 472.601562 357.554688 471.25 C 354.414062 466.222656 352.476562 460.769531 351.746094 454.882812 C 353.539062 450.179688 358.917969 447.417969 370.253906 445.371094 C 370.90625 446.070312 371.605469 446.71875 372.351562 447.316406 C 373.097656 447.914062 373.886719 448.453125 374.710938 448.933594 C 375.539062 449.414062 376.394531 449.832031 377.28125 450.1875 C 378.171875 450.539062 379.078125 450.828125 380.007812 451.050781 C 380.9375 451.269531 381.878906 451.421875 382.832031 451.503906 C 383.785156 451.585938 384.738281 451.597656 385.691406 451.539062 C 386.644531 451.480469 387.589844 451.351562 388.527344 451.15625 C 389.460938 450.957031 390.375 450.691406 391.273438 450.359375 C 391.347656 449.894531 391.382812 449.425781 391.375 448.953125 C 391.363281 448.484375 391.3125 448.015625 391.21875 447.554688 C 391.125 447.089844 390.992188 446.640625 390.816406 446.203125 C 390.644531 445.765625 390.429688 445.34375 390.179688 444.945312 C 389.929688 444.546875 389.644531 444.171875 389.328125 443.824219 C 389.007812 443.476562 388.664062 443.15625 388.289062 442.871094 C 387.910156 442.585938 387.515625 442.335938 387.09375 442.125 C 386.671875 441.910156 386.238281 441.738281 385.785156 441.601562 C 391.238281 438.515625 393.425781 430.832031 392.207031 428.25 C 390.167969 429.003906 388.316406 430.078125 386.648438 431.46875 C 384.980469 432.859375 383.59375 434.492188 382.484375 436.363281 C 382.484375 436.363281 381.875 433.847656 381.480469 431.371094 C 378.539062 410.480469 382.019531 408.832031 408.347656 414.96875 C 410.570312 409.800781 413.1875 404.199219 416.09375 397.738281 C 419.359375 390.558594 415.339844 384.78125 407.953125 378.964844 " fill-opacity="1" fill-rule="nonzero"/><path fill="#d2d4d6" d="M 309.777344 357.894531 C 309.777344 357.894531 313.367188 357.035156 332.234375 354.054688 C 332.691406 352.15625 333.40625 350.355469 334.375 348.660156 C 335.347656 346.964844 336.53125 345.4375 337.9375 344.078125 C 329.515625 345.976562 321.46875 348.90625 313.796875 352.871094 C 312.546875 351.851562 311.179688 351.035156 309.6875 350.425781 C 308.195312 349.8125 306.648438 349.433594 305.042969 349.28125 C 301.960938 366.546875 299.125 371.964844 299.125 371.964844 C 299.503906 371.945312 299.878906 371.964844 300.25 372.023438 C 300.625 372.085938 300.984375 372.1875 301.335938 372.328125 C 301.6875 372.46875 302.015625 372.648438 302.328125 372.863281 C 302.640625 373.078125 302.921875 373.324219 303.179688 373.605469 C 303.433594 373.882812 303.65625 374.183594 303.84375 374.511719 C 304.03125 374.839844 304.183594 375.1875 304.292969 375.546875 C 304.40625 375.910156 304.476562 376.277344 304.507812 376.65625 C 304.535156 377.03125 304.523438 377.40625 304.46875 377.78125 C 304.246094 378.765625 303.886719 379.699219 303.394531 380.582031 C 304.78125 379.964844 306.011719 379.128906 307.09375 378.066406 C 308.171875 377 309.03125 375.78125 309.671875 374.40625 C 310.042969 368.890625 310.042969 363.375 309.671875 357.859375 " fill-opacity="1" fill-rule="nonzero"/><path fill="#d2d4d6" d="M 290.804688 273.183594 C 292.054688 273.007812 293.25 272.648438 294.390625 272.109375 C 295.253906 270.207031 297.082031 265.289062 298.695312 260.800781 C 301.851562 265.96875 311.714844 279.96875 313.652344 282.589844 C 310.898438 283.152344 308.351562 284.21875 306.011719 285.785156 C 306.011719 290.664062 309.347656 295.511719 317.492188 296.550781 C 316.945312 297.027344 316.441406 297.546875 315.984375 298.105469 C 315.527344 298.667969 315.117188 299.261719 314.761719 299.890625 C 314.402344 300.519531 314.101562 301.175781 313.851562 301.855469 C 313.605469 302.535156 313.417969 303.234375 313.289062 303.945312 C 313.160156 304.65625 313.089844 305.375 313.082031 306.101562 C 313.074219 306.824219 313.125 307.542969 313.238281 308.257812 C 313.355469 308.972656 313.527344 309.675781 313.757812 310.359375 C 313.988281 311.046875 314.277344 311.707031 314.621094 312.34375 C 322.980469 307.390625 324.339844 297.414062 331.085938 304.378906 C 334.132812 307.964844 337.109375 311.160156 339.910156 313.960938 C 347.621094 308.359375 357.125 302.367188 371.867188 304.699219 C 369.90625 303.910156 367.890625 303.300781 365.820312 302.867188 C 363.75 302.429688 361.660156 302.179688 359.546875 302.113281 C 357.429688 302.046875 355.328125 302.164062 353.234375 302.464844 C 351.140625 302.765625 349.089844 303.25 347.082031 303.910156 L 346.582031 302.332031 C 362.21875 279.933594 393.820312 288.152344 413.007812 284.597656 C 399.738281 285.171875 375.8125 277.421875 356.550781 288.1875 L 356.015625 286.285156 C 357.851562 284.425781 359.800781 282.691406 361.859375 281.082031 C 361.859375 281.082031 323.515625 259.542969 315.660156 262.199219 C 315.875 260.515625 315.921875 258.828125 315.800781 257.132812 C 315.683594 255.441406 315.402344 253.773438 314.953125 252.136719 C 314.507812 250.5 313.90625 248.917969 313.152344 247.398438 C 312.394531 245.878906 311.496094 244.449219 310.460938 243.105469 C 304.039062 233.199219 313.4375 222.140625 318.925781 209.21875 C 313.113281 202.042969 296.9375 209.21875 300.777344 230.46875 C 295.214844 220.921875 293.601562 211.875 290.015625 202.183594 C 282.160156 204.125 275.09375 217.296875 287.574219 231.117188 C 289.707031 232.234375 291.5625 233.707031 293.136719 235.53125 L 293.136719 235.855469 C 285.613281 235.335938 278.269531 233.886719 271.113281 231.511719 C 271.363281 235.101562 268.960938 240.773438 266.304688 239.910156 C 265.746094 239.726562 265.171875 239.632812 264.585938 239.625 C 266.484375 245.546875 271.757812 249.996094 286.105469 249.207031 C 287.933594 249.207031 289.691406 248.917969 291.199219 248.742188 C 287.613281 253.121094 281.910156 261.554688 284.023438 265.394531 C 284.511719 265.273438 285.007812 265.21875 285.511719 265.234375 C 286.015625 265.25 286.507812 265.335938 286.988281 265.492188 C 287.464844 265.648438 287.914062 265.867188 288.332031 266.148438 C 288.75 266.433594 289.117188 266.765625 289.441406 267.152344 C 287.613281 271.785156 282.015625 277.023438 276.816406 275.519531 C 277.996094 276.003906 279.222656 276.328125 280.488281 276.480469 C 281.757812 276.636719 283.023438 276.621094 284.289062 276.429688 C 285.550781 276.238281 286.765625 275.886719 287.933594 275.363281 C 289.101562 274.84375 290.175781 274.175781 291.164062 273.363281 " fill-opacity="1" fill-rule="nonzero"/></svg>