<svg id="Vrstva_1" data-name="Vrstva 1" xmlns="http://www.w3.org/2000/svg" viewBox="0 0 217.95 297.12"><defs><style>.cls-1{fill:#fff;}.cls-2{fill:#e41f13;}.cls-3{fill:#282878;}.cls-4{fill:#d2d4d6;}</style></defs><path class="cls-1" d="M190.38,100.59l-.09-1.07c-.64-7.68-1.67-15.33-3-22.91-3.31-.62-6.74-1.18-10.25-1.71q-.42-2.78-.93-5.52c-2.15-.37-4.32-.72-6.49-1l-.33-.43c-.94-7.29-2.28-17.15-3.49-24.14a8.48,8.48,0,0,0-8.11-7H60.23a8.48,8.48,0,0,0-8.11,7c-1.21,7-2.55,16.85-3.49,24.14l-.33.43c-2.17.33-4.34.68-6.49,1q-.51,2.75-.93,5.52c-3.51.53-6.94,1.09-10.25,1.71-1.3,7.58-2.32,15.23-3,22.91,0,.36-.07.71-.1,1.07-.08,1-.14,2.07-.21,3.1l-.12,1.74c0,.93-.08,1.86-.12,2.79,0,.68-.07,1.36-.09,2,0,.85,0,1.7-.05,2.55s0,1.53-.05,2.29,0,1.53,0,2.3,0,1.7,0,2.54,0,1.4.06,2.1c0,.92.05,1.83.09,2.74,0,.64.08,1.28.12,1.92.05,1,.1,2,.18,2.92,0,.59.1,1.18.15,1.77.09,1,.18,2,.28,3.06.06.57.14,1.14.21,1.71.12,1,.24,2.07.38,3.11.08.55.17,1.09.25,1.64.16,1.06.31,2.11.49,3.17.09.53.2,1,.3,1.58.2,1.07.39,2.15.61,3.22.11.51.23,1,.35,1.53.23,1.08.46,2.17.73,3.25.12.49.26,1,.39,1.49.28,1.09.55,2.18.86,3.27.14.48.29,1,.44,1.45.32,1.1.64,2.19,1,3.29.16.48.33,1,.5,1.43.36,1.1.73,2.2,1.13,3.29.17.47.36.94.54,1.41.42,1.1.83,2.19,1.28,3.28.19.47.41.95.61,1.42.45,1.08.91,2.17,1.41,3.25.21.47.45.94.67,1.41.51,1.08,1,2.15,1.55,3.23l.74,1.39c.56,1.07,1.11,2.15,1.71,3.21.26.47.55.94.81,1.41C45.4,189,46,190,46.64,191.06c.29.48.6.95.9,1.42.65,1.05,1.3,2.09,2,3.12.32.48.66,1,1,1.42.7,1,1.41,2.06,2.15,3.08.34.48.71,1,1.07,1.43.75,1,1.5,2,2.29,3,.38.48.78,1,1.17,1.44.8,1,1.6,2,2.44,3,.42.49.86,1,1.28,1.46.85,1,1.7,1.95,2.59,2.92.45.49.93,1,1.39,1.46.9,1,1.79,1.91,2.73,2.86l1.5,1.47c.95.94,1.9,1.88,2.89,2.81l1.62,1.47c.89.82,1.76,1.64,2.68,2.44,0,.7-.07,1.4-.07,2.11a32.44,32.44,0,0,0,32.44,32.44h.59A32.44,32.44,0,0,0,141.72,228c0-.71,0-1.41-.08-2.11.92-.8,1.79-1.62,2.68-2.44.54-.49,1.1-1,1.62-1.47,1-.93,1.94-1.88,2.9-2.82.49-.48,1-1,1.49-1.46.94-.95,1.84-1.91,2.74-2.87.46-.48.94-1,1.39-1.45.89-1,1.74-1.95,2.59-2.93.42-.48.86-1,1.27-1.44.84-1,1.64-2,2.45-3,.38-.47.78-.94,1.16-1.42.79-1,1.55-2,2.3-3,.35-.48.72-1,1.06-1.42.75-1,1.45-2,2.15-3.08.33-.48.67-1,1-1.42.69-1,1.34-2.08,2-3.13.29-.47.6-.93.89-1.41.64-1.05,1.24-2.1,1.85-3.16.27-.47.55-.94.81-1.41.59-1.06,1.15-2.13,1.7-3.19.25-.47.51-.94.75-1.41.54-1.07,1-2.15,1.55-3.22.22-.48.46-.95.68-1.42.49-1.08.95-2.17,1.41-3.25.2-.47.41-.95.6-1.42.45-1.08.86-2.17,1.27-3.26.18-.48.38-1,.55-1.43.4-1.09.77-2.18,1.13-3.28.16-.48.34-1,.5-1.44.35-1.09.67-2.18,1-3.27.14-.49.3-1,.44-1.47.31-1.09.59-2.19.87-3.28.12-.5.26-1,.38-1.48.27-1.09.5-2.19.74-3.28.11-.5.24-1,.34-1.5.22-1.09.42-2.17.62-3.26.09-.51.2-1,.29-1.54.18-1.07.34-2.14.5-3.22.07-.53.17-1.06.24-1.59.15-1.05.26-2.11.39-3.17.06-.55.14-1.09.2-1.65.1-1,.19-2,.28-3.05.05-.59.11-1.18.16-1.78.07-1,.12-2,.17-2.94,0-.63.09-1.26.12-1.89,0-.94.06-1.88.09-2.82,0-.68,0-1.35.07-2,0-.88,0-1.76,0-2.64s0-1.47,0-2.21,0-1.59-.05-2.39,0-1.63-.05-2.45-.06-1.41-.09-2.12c0-.91-.07-1.81-.12-2.72,0-.58-.08-1.16-.12-1.74-.07-1-.13-2.07-.21-3.1"/><path class="cls-2" d="M131.36,204.2c41.46-36.68,46.89-86.06,39.66-128.64-40-7.06-84.56-7.49-124.09,0-7.25,42.69-1.77,92.21,40,128.92a32.4,32.4,0,0,1,44.44-.28"/><path class="cls-3" d="M94.44,213a55.23,55.23,0,0,0-6.37,13.24,46.27,46.27,0,0,0,10.1,11.31c5.6-3,10.93-5.84,14.17-8.45l-2.74-15.7a48.59,48.59,0,0,0-15.16-.4"/><path class="cls-3" d="M132.81,208.07a30.71,30.71,0,0,0-18.41-10.55,25.33,25.33,0,0,1,5.34,8.1,31.79,31.79,0,0,1,12.06,6.73,8.39,8.39,0,0,0,1-4.28"/><path class="cls-3" d="M135.43,227.1a28.42,28.42,0,0,1-9.22,8.5,45.52,45.52,0,0,1-.52,12.78,45.92,45.92,0,0,0,8.12-2.16,30.45,30.45,0,0,0,5.46-11.91,17.36,17.36,0,0,0-3.84-7.21"/><path class="cls-3" d="M89.24,251a30.55,30.55,0,0,0,20.44,7.46h.15a9.44,9.44,0,0,0,1.87-3.39,34.37,34.37,0,0,1-12.88-5.49A46.32,46.32,0,0,1,89.24,251"/><path class="cls-3" d="M79.05,222.54a29.93,29.93,0,0,0-.45,5.63,30.56,30.56,0,0,0,3.16,13.2,35.67,35.67,0,0,1,1.31-13,8.69,8.69,0,0,1-4-5.87"/><path class="cls-3" d="M92.8,207.47c2.36-5.52,8.34-9.28,8.34-9.28a30.71,30.71,0,0,0-14.85,9.26,8.49,8.49,0,0,1,6.51,0"/><path class="cls-3" d="M115.83,42.69l-2.67-2,2.24-2.48,3.8,2.42,3.55-2.42,2.32,2.48-2.72,2a17,17,0,0,0-3.14-.31,15.1,15.1,0,0,0-3.38.39"/><polygon class="cls-3" points="84.3 48.75 84.3 43.76 61.05 43.76 61.05 66.29 67.08 66.29 67.08 58.47 80.77 58.47 80.77 53.59 67.08 53.59 67.08 48.75 84.3 48.75"/><path class="cls-3" d="M149.12,55.14h-8.67V48.75h8.49c2.19,0,3.89,1.14,3.89,3.2s-1.44,3.19-3.71,3.19M158.94,52c0-5.16-4.31-8.19-9.3-8.19H134.41V66.29h6V60.13h6.16l4.4,6.16h7.36l-5.22-6.75A7.78,7.78,0,0,0,158.94,52"/><path class="cls-3" d="M94,47.7l3.8,9.94H90l3.81-9.94Zm7.27,18.59H108L98.23,43.76H89.84L79.93,66.29H86.5L88,62.51H99.74Z"/><path class="cls-3" d="M119.22,62.22c-3.67,0-6.52-2.92-6.52-7.18s2.85-7.18,6.52-7.18a6.07,6.07,0,0,1,6,4.36h6.11c-1.3-6-6-9.29-12.08-9.29-6.89,0-12.64,4.84-12.64,12.11s5.75,12.12,12.64,12.12c6.23,0,11.19-3.58,12.3-9.56h-6.2a6,6,0,0,1-6.1,4.62"/><path class="cls-3" d="M40.72,80.89q-2.61.42-5.2.87C27.23,127.1,33,179.45,78,219.33a32.26,32.26,0,0,1,5.09-10.51c-40.72-37-47.77-84.19-42.38-127.93"/><path class="cls-3" d="M182.43,81.76l-5.19-.82c5.35,43.6-1.64,90.64-42,127.54a32.23,32.23,0,0,1,5.21,10.41c44.55-39.83,50.26-92,42-137.13"/><path class="cls-1" d="M142.82,142.31a8.44,8.44,0,0,1-3.11,6.8,8.45,8.45,0,0,1-3.12-6.8c0-2.45,1.32-5.09,3.16-7.92,1.8,2.83,3.07,5.47,3.07,7.92M105.3,93.72a3.61,3.61,0,0,0-1.59-.92,2.83,2.83,0,0,1,.66-.82,10.38,10.38,0,0,1,4.52.59Zm2,7.94a49.75,49.75,0,0,0-8,.38,18.08,18.08,0,0,1,1-2.5c2.15-.51,4.92-1.38,4.92-1.38,1.23.7,2.3,2.68,2.13,3.5m42.75,2c-1.17-2.77-1.56-7.67,3-7.59-1.16-2.53-5.65-2.22-6.78.28-2-4-5.26-6.27-8.05-6.25a10.51,10.51,0,0,0,2.22,6.21c-3,0-5.46,2-4.75,5,6.69-4,12.17,2.93,12.17,9.57A19.63,19.63,0,0,1,145.2,120a3.09,3.09,0,1,0-6.17-.3c2.41-1.09,5.21.79,4,3.85-1.07,1.62-2.23,3.2-3.36,4.77a80.26,80.26,0,0,1-5.94-8.83c-2.58-5.15,1.45-6.92,3.92-4.84.94-3.66-2.27-5.26-4.68-4.32,2.53-3,7.23-3.37,9.43-1.23.24-4.71-5.4-6.65-9.17-4.1,1.68-3.07-.19-4.74-.19-4.74-2.19,1.43-4.78,5.6-4.78,10.51s2,9.22,4.55,13.34a7.37,7.37,0,0,0-8.34-.26s.88,2.83,6.57,3.1c-1.44,1.27-1.54,4,1.1,5.6.28-2.54,3.12-4,5.15-1.81.1.16.21.31.32.46C135,135,133,138.63,133,142.31a12.45,12.45,0,0,0,2.95,8.15h-.19c-4.06,0-7.3-3.79-8.09-8.48-6-4.29-10.13-10.14-7.93-18.91a4.65,4.65,0,0,0,2.69-5.67,4.86,4.86,0,0,0,1.39-6.35,4.89,4.89,0,0,0,0-6.53,4.77,4.77,0,0,0-1.51-6.19l-.1,0A4.5,4.5,0,0,0,121,94.06a14.4,14.4,0,0,0,.58-2.72,12,12,0,0,0-2.7-.88l2.44-5.57s-2.5-.67-2.76,1.41a2.28,2.28,0,0,0-.39-.06,1.59,1.59,0,0,0-1.83,1.28,1.23,1.23,0,0,0,.39,1,1,1,0,0,1,.93.29,3.56,3.56,0,0,1-2.85.46,3.19,3.19,0,0,1-1.68-.9,1.08,1.08,0,0,1,1.1,0,1.48,1.48,0,0,0,1.14-1.28,1.62,1.62,0,0,0-1.63-1.6,1.78,1.78,0,0,0-.52,0,1.8,1.8,0,1,0-3-.21,2.1,2.1,0,0,0-.51-.1,1.62,1.62,0,0,0-1.84,1.36,1.5,1.5,0,0,0,1,1.43,1.08,1.08,0,0,1,1.09.15,3.14,3.14,0,0,1-1.79.66,3.56,3.56,0,0,1-2.75-.85,1,1,0,0,1,1-.16,1.28,1.28,0,0,0,.52-.91,1.59,1.59,0,0,0-1.64-1.51h-.39c0-2.1-2.55-1.77-2.55-1.77l1.92,6.79A14.05,14.05,0,0,0,101.79,92l-6.07,3.12c0,.26.19,1.29.87,1.42-.16,1.25.08,2.75,1.2,3.29A6.66,6.66,0,0,0,99,102.06c-1.22.13-2.51.3-3.82.51-2.4.38-4.45-.37-5.28-2.33-1.06,2.21.08,8.83,9,4.34a7,7,0,0,1,.53,3.34,2.51,2.51,0,0,0,.27.1c5.32-3.6,8.15-.92,7.47.57a26.56,26.56,0,0,0-9.19,4.5c-8-3.74-12.58-6.87-15.37-9.7-1.79-2.77.83-5.85,2.36-9.45a2.26,2.26,0,0,0-.39-.37,2.83,2.83,0,0,0-4.07-2.95v0a1.76,1.76,0,0,1,1.49,1.92c-1.87-.1-3.65,1.08-3.61,4-.54-1.51-.94-3-1.54-4.58a2.78,2.78,0,0,0-.76,0c-1.8-2.12-4.77-1-5.14.57l0,0a2.23,2.23,0,0,1,2.65.69c-1.26,1.47-1.33,4.48,1.52,6.48a31.17,31.17,0,0,0-4.28-1,4,4,0,0,0-.81,1c-2.43.2-3.75,2.32-2.65,4.33h0a2.71,2.71,0,0,1,2.28-1.63c.53,1.65,2,2.89,6,2.67a8.36,8.36,0,0,0-2,2.41,3.26,3.26,0,0,0,0,3,2.64,2.64,0,0,1-1.93-.39l0,0c-.05,2.47,3.11,3.47,5.43,1.7h0a3.48,3.48,0,0,0,1-.3c.24-.53.75-1.9,1.2-3.15.88,1.44,3.63,5.34,4.17,6.07a6,6,0,0,0-2.13.89c0,1.36.93,2.71,3.2,3a3.58,3.58,0,0,0-.8,4.4,27.74,27.74,0,0,0,4.86-1.91c.77.87,1.5,1.67,2.19,2.36a67.75,67.75,0,0,1-8.06,5.38c-2.83,1.14-2.86-6-3.14-7.22a3.58,3.58,0,0,0-.68-.11,2.79,2.79,0,0,0-4.9.42l0,0a2.07,2.07,0,0,1,2.28.39c-1.54,1.14-2.38,3.37-.16,5.83l-.12.15a37.18,37.18,0,0,1-4.76-4.15,3.72,3.72,0,0,0-.65.36c-2.82-.39-4.28,2.1-3.61,3.59h0a2,2,0,0,1,2.08-1.18c-.37,2,1,4.5,4.94,4.52l.11.18a30,30,0,0,0-4.53.82,4.15,4.15,0,0,0-.36,1l-.16.08c-2.56,1.49-2.62,4.93-.34,6l0,0a3.45,3.45,0,0,1,1.1-3.22c1.26,1.52,4.1,1.79,7.78-1.57l.05,0a48.34,48.34,0,0,0-1.67,4.56,3.35,3.35,0,0,0,1.35,2.3,2.66,2.66,0,0,1-2.18.95v0c1.31,1.7,4.31,1.2,5.35-.63A3.49,3.49,0,0,0,82.45,140a40.38,40.38,0,0,0,0-4.61s1-.24,6.27-1.07a8.23,8.23,0,0,0-.28,1.92c1,.58,2.54.56,3.94-.9a9.51,9.51,0,0,0,.58,1.83c2.75-.41,4.45-1.89,5-4.28,2.75,2.85,6.46,4.94,9.43,6.86C101,139.32,90,142.93,90,142.93s.79,2.32,3.79,1.57C93.14,147.55,96,154,97,156c-7.6,1.73-7.45-7.38-7.45-7.38a3.72,3.72,0,0,0-1.6.08A3,3,0,0,0,83.34,150l0,0a2.07,2.07,0,0,1,2.51.14c-.93,1.39-.95,3.44.8,5.28a33.77,33.77,0,0,1-4.56-2.72,4,4,0,0,0-.69.42c-2.74-.4-4.48,1.91-3.81,3.65h0a2.66,2.66,0,0,1,2.28-1.06c-.1,1.86,1.52,3.74,5.39,3.68l0,.05a14.46,14.46,0,0,0-4.16,2.35,3.94,3.94,0,0,0,0,1.41,3.32,3.32,0,0,0,1.5,5.49l0,0c-.34-.6-.61-2.46.33-3.12,2.87,1.14,5.22-1.37,6.4-3.09a10.37,10.37,0,0,0,0,3.82,3.29,3.29,0,0,0,2.5,2.66,2.29,2.29,0,0,1-1.46,1.94v0c2,1.06,4.29-.66,4.28-2.88a5.34,5.34,0,0,0,1-1,11.13,11.13,0,0,1-1.62-4.55c.5-1.31,2-2.08,5.16-2.65a5.43,5.43,0,0,0,5.86,1.39,2.18,2.18,0,0,0-1.53-2.44c1.52-.86,2.13-3,1.79-3.72a6.28,6.28,0,0,0-3,.87c-.82-5.82.16-6.28,7.49-4.57-1.9,4.38-2.86,7.31-2.5,9.5-.07,3.91.14,6.38.14,6.38a2,2,0,0,0,2.69-2.67,39.5,39.5,0,0,0,10.12,3.93c-.5.63-4.15,5.27-8.32,4.83-2-.44-3.85-3.79-3.85-3.79a4,4,0,0,0-.78,0c-2.28-1.13-4.48.37-4.55,2.13l0,0a2.11,2.11,0,0,1,1.94-.42c-.55,1.07-.36,2.45,1.18,3.58-1.4-.14-2.76-.35-4.1-.45a3.2,3.2,0,0,0-.82.68,3.55,3.55,0,0,0-3.54,5.09h0c.13-.66,1.24-2.3,2.86-1.86.7,2.07,3.58,3.46,9,.24l.34.19a14.9,14.9,0,0,0-3.39,4.23,5,5,0,0,0,.37,1.42,3.28,3.28,0,0,0,3.38,4.69l0,0a2.86,2.86,0,0,1-.94-2.69h0c2.11.27,3.73-1.68,5.82-6.58.22,1.24.53,2.3.53,2.3a3.29,3.29,0,0,0,2.86,1.71,2.59,2.59,0,0,1-1.28,1.75v.05c2.18.93,4.09-1.42,3.91-3.38a4.56,4.56,0,0,0,.71-2c-1.92-2-1.85-3.51-1.85-3.51a28.34,28.34,0,0,1,5.33-7c3.83.77,8.12-.79,8.73-2.58-.87-1.13-2.82-1.68-4.69-1.41,2.5-2.28,1.64-6.19.35-6.89-2.2.24-4.72,2.8-5.14,5.58l-6.37-5.62c3.3-2,7-5,8.79-8.81a11.72,11.72,0,0,0,8.76,4.13c5.92,0,10.72-5.3,10.72-11.83,0-3.59-2-7.23-4.6-11,4.31-6,9.7-12.85,9.7-20.55a17.31,17.31,0,0,0-1.55-7.18"/><path class="cls-4" d="M111.09,96.12s-.87.3-1.82.66c0,0,2.27,1.83,5.67,5a24.43,24.43,0,0,0-3.85-5.67"/><path class="cls-4" d="M96.59,96.58c.74.14,2.53-1.06,2.74-1.23l0-.09c-.42.13-3,.72-3.57-.1,0,.26.19,1.29.87,1.42"/><path class="cls-4" d="M146.25,96.31v0a17.56,17.56,0,0,1,.75,1.76c1-3.22,4.68-3.65,5.92-2.22-1.31-2.31-5.58-2-6.67.48"/><path class="cls-4" d="M131.46,111.5h0a3.56,3.56,0,0,1,1.54-1.14c2.53-3,7.23-3.37,9.43-1.23-1.34-4.69-9.74-4.6-11,2.37"/><path class="cls-4" d="M133.26,105h0c1.61-2.94,0-4.59-.18-4.73h0a15.47,15.47,0,0,0-2.75,9.1,7.25,7.25,0,0,1,2.94-4.36"/><path class="cls-4" d="M137.68,114.69c-.91-3.6-6.84-3.13-5,2.44a14.15,14.15,0,0,0,1.05,2.36c-2.54-5.12,1.48-6.88,3.94-4.8"/><path class="cls-4" d="M132.17,132.58c.28-2.54,3.12-4,5.15-1.81-.34-.47-.67-1-1-1.43-2.16-2.82-6.06,0-4.14,3.24"/><path class="cls-4" d="M131.07,127a3,3,0,0,1,2.69-.6,15.24,15.24,0,0,0-9.26-2.5s.88,2.83,6.57,3.1"/><path class="cls-4" d="M143.47,122.94c2.28-4-2.61-6.36-4.44-3.21,2.41-1.09,5.21.79,4,3.85.14-.21.28-.42.41-.64"/><path class="cls-4" d="M135.67,101.23c6.7-4,12.17,2.93,12.17,9.57a19.41,19.41,0,0,1-2.52,9c9.92-17.15-4.89-26.21-9.65-18.57"/><path class="cls-4" d="M141.84,131.35a104.82,104.82,0,0,0,6.3-9.33c-2.07,2.85-4.7,5.63-7,8.3.25.34.49.69.72,1"/><path class="cls-4" d="M138.56,132.62c-2.62,3.29-5.23,6.89-5.23,11.1a11.83,11.83,0,0,0,.27,2.61,12.09,12.09,0,0,0,2.32,4.12,6.46,6.46,0,0,0,3.79-1.34,8.45,8.45,0,0,1-3.12-6.8c0-2.45,1.31-5.09,3.16-7.92-.4-.63-1.09-1.64-1.19-1.77"/><path class="cls-4" d="M137.6,152.89c-4.58,0-8.3-3.51-9.48-7.39A11.23,11.23,0,0,1,127,150a11.72,11.72,0,0,0,8.76,4.13,10.31,10.31,0,0,0,8.14-4.14,8.43,8.43,0,0,1-6.27,2.89"/><path class="cls-4" d="M110.22,164.63a5.31,5.31,0,0,1-2.82-3.71c-.08,3.91.12,6.38.12,6.38a2,2,0,0,0,2.7-2.67"/><path class="cls-4" d="M143.61,97a31.31,31.31,0,0,1-5.41-6.91,10.51,10.51,0,0,0,2.22,6.21,7.64,7.64,0,0,1,3.19.7"/><path class="cls-4" d="M115.82,94.19s2.31-1.07,4.52-2.29c-1.4-.33-5.2-.24-4.52,2.29"/><path class="cls-4" d="M116.16,96.51A4.64,4.64,0,0,0,120,96.4c1.69,2.71.18,7.43.18,7.43a18.75,18.75,0,0,0,1.42-3c1.44,1.47,1,5.26-2,8.57a13.94,13.94,0,0,0,2.79-2.43c1.14,3.43-2.21,6.65-5.94,7.39a11.27,11.27,0,0,0,5-1.31c.34,3.74-4.46,6-10,5.77a19.08,19.08,0,0,0,7.69.12c-.09,3.93-7.89,4.92-16.24,2.57,5.34,2.37,9.9,3.1,13.3,2.73-.07,2.35-3.38,3.27-5.1,3.08-.65,4.57,13.14,12.69,16.63,14.71-6-4.29-10.13-10.14-7.92-18.91a4.66,4.66,0,0,0,2.68-5.67,4.86,4.86,0,0,0,1.39-6.35,4.89,4.89,0,0,0,0-6.53,4.75,4.75,0,0,0-1.51-6.18.53.53,0,0,0-.1-.06A4.52,4.52,0,0,0,121,94.06a14.84,14.84,0,0,0,.57-2.72s-1.57,5-5.39,5.17"/><path class="cls-4" d="M99,104.58a11.43,11.43,0,0,1,.16-2.36.46.46,0,0,1,.13,0,6.56,6.56,0,0,0,2,1.3,25,25,0,0,1,5.63-1.49.38.38,0,0,0,.34-.35h0a49.75,49.75,0,0,0-8,.38,18.08,18.08,0,0,1,1-2.5,6.43,6.43,0,0,1-2.41.33A6.66,6.66,0,0,0,99,102.06c-1.22.13-2.51.3-3.82.51-4.06.61-5.62.37-5.55-1.41-.42,2.68,1.39,7.39,9.31,3.42"/><path class="cls-4" d="M110.43,99.48c.58,1.36.8,3.15-.87,4a2,2,0,0,1,.5,2.81c-.61-.79-3.09-2.47-9.25,1.11l.07,0c4.6-2.53,7-.13,6.36,1.25,4.05-1.39,9.43-3.23,3.19-9.11"/><path class="cls-4" d="M71.27,134.66a1.24,1.24,0,0,1-.94,1.25,1.3,1.3,0,0,0-.26.14c1.26,1.52,4.1,1.79,7.78-1.57l.05,0s.37-.92.59-1.33c-2.17,1.26-5.54,2.27-7.22,1.49"/><path class="cls-4" d="M88.46,136.25c1,.58,2.54.56,3.94-.9a8.21,8.21,0,0,1-.14-2.79,9.85,9.85,0,0,1-3.8,3.69"/><path class="cls-4" d="M98,132.9c.25.26.51.51.77.75a10.15,10.15,0,0,0,5,.27c-.7-1.89-2.3-4.25-6.91-3.88-.9,5.65-3.9,7.14-3.9,7.14,2.75-.41,4.45-1.89,5-4.28"/><path class="cls-4" d="M94,143.76a4.39,4.39,0,0,1,.42-.57c-1,.23-3.4.65-4.49-.26,0,0,.79,2.32,3.79,1.57v0a2.13,2.13,0,0,1,.28-.78"/><path class="cls-4" d="M74.21,131.14l.11.18,1.5-.17c-5.19-2.63-5.61-5.72-5.63-6.43a3.81,3.81,0,0,0-.92,1.9c-.37,2,1,4.5,4.94,4.52"/><path class="cls-4" d="M109.46,184.78a1.15,1.15,0,0,1,0,1,2.4,2.4,0,0,0-.24.62c2.11.27,3.73-1.68,5.82-6.58a19.42,19.42,0,0,1-.29-2.59c-1,2.37-3.44,6.59-5.33,7.53"/><path class="cls-4" d="M109.82,178.81c.4-.37.81-.72,1.2-1l-.22-.33c-4,1.43-7.82,1.14-9.11.28-.27.5-.62.86-1.23.65.69,2.07,3.57,3.46,9,.24Z"/><path class="cls-4" d="M104.82,171.34c-.55,1.07-.35,2.45,1.19,3.58a19.12,19.12,0,0,0,4.89,0c-3-.4-5.48-1.89-6.08-3.53"/><path class="cls-4" d="M129.34,165.75c2.5-2.28,1.64-6.19.35-6.89a8.56,8.56,0,0,0-3.36,7.15l-8.15-7.19a39.49,39.49,0,0,1-4.13,2.06c-1.25,2.3,6.27,5.66,10.11,7.11-.82,2.26-3.83,7-6.39,7.79,1.83,3.49,1.5,5.61,1.5,5.61a1.27,1.27,0,0,1,1.74.49,3.35,3.35,0,0,1,.1.39,4.56,4.56,0,0,0,.71-2c-1.92-2-1.85-3.51-1.85-3.51a28.34,28.34,0,0,1,5.33-7c3.83.77,8.12-.79,8.73-2.58-.87-1.13-2.82-1.68-4.69-1.41"/><path class="cls-4" d="M118.85,90.46l2.44-5.57s-2.5-.67-2.76,1.41a2.28,2.28,0,0,0-.39-.06,1.59,1.59,0,0,0-1.83,1.28,1.23,1.23,0,0,0,.39,1,1,1,0,0,1,.93.29,3.56,3.56,0,0,1-2.85.46,3.15,3.15,0,0,1-1.68-.9,1.08,1.08,0,0,1,1.1,0,1.51,1.51,0,0,0,1.15-1.28,1.63,1.63,0,0,0-1.64-1.6,1.78,1.78,0,0,0-.52,0,2.12,2.12,0,0,0-1.3-2.9c1.2,5.06-2.46,7.25-4.35,7.64v.08a31.58,31.58,0,0,1,6.91.87,5.24,5.24,0,0,1,4.4-.72"/><path class="cls-4" d="M76.29,127.84l-.12.15a13.19,13.19,0,0,0,3.08,1.33C77.82,128,76,124.13,76.45,122c-1.54,1.14-2.38,3.37-.16,5.83"/><path class="cls-4" d="M109.78,141.39c.85,8.74-21-5.5-10.72,16.26-3.71.26-5.58-.84-7-2.52-2.53-2.34-2.45-6.56-2.45-6.56-3.24.74-3.84,5.75-1.06,8a17,17,0,0,1-6.76-2.56c-1.13,1.45-1.14,3.89.61,4.93a8.18,8.18,0,0,0,3,.44l0,.05a5.6,5.6,0,0,1,1.26.19,14.37,14.37,0,0,0-4,2.74,2.25,2.25,0,0,0-.24.46c.8.54,1.58,2.27.84,2.61l-.18.1c2.87,1.14,5.22-1.37,6.4-3.09a10.37,10.37,0,0,0,0,3.82,3.29,3.29,0,0,0,2.5,2.66,2.29,2.29,0,0,1-1.46,1.94v0c2,1.06,4.29-.66,4.28-2.88a5.5,5.5,0,0,0,1-1,11.2,11.2,0,0,1-1.62-4.56c.5-1.31,2-2.08,5.16-2.65a5.43,5.43,0,0,0,5.86,1.39,2.18,2.18,0,0,0-1.53-2.44c1.52-.86,2.13-3,1.79-3.72a5.28,5.28,0,0,0-2.71,2.26s-.17-.7-.28-1.39c-.82-5.82.15-6.28,7.49-4.57.62-1.44,1.35-3,2.16-4.8.91-2-.21-3.61-2.27-5.23"/><path class="cls-4" d="M82.48,135.4s1-.24,6.26-1.07a5.75,5.75,0,0,1,1.59-2.78A28.19,28.19,0,0,0,83.6,134,4.53,4.53,0,0,0,81.16,133c-.86,4.81-1.65,6.32-1.65,6.32A1.42,1.42,0,0,1,81,140.94a2.94,2.94,0,0,1-.3.78A3.49,3.49,0,0,0,82.45,140a34.3,34.3,0,0,0,0-4.61"/><path class="cls-4" d="M77.19,111.8a3.48,3.48,0,0,0,1-.3c.24-.53.75-1.9,1.2-3.15.88,1.44,3.63,5.34,4.17,6.07a6,6,0,0,0-2.13.89c0,1.36.93,2.71,3.2,3a3.58,3.58,0,0,0-.8,4.4c2.33-1.38,2.71-4.16,4.59-2.22.85,1,1.68,1.89,2.46,2.67,2.15-1.56,4.8-3.23,8.91-2.58a10.08,10.08,0,0,0-6.91-.22l-.14-.44c4.36-6.24,13.17-3.95,18.52-4.94-3.7.16-10.37-2-15.74,1l-.15-.53A17.16,17.16,0,0,1,97,114s-10.69-6-12.88-5.26a7.22,7.22,0,0,0-1.45-5.32c-1.79-2.76.83-5.84,2.36-9.44-1.62-2-6.13,0-5.06,5.92h0c-1.55-2.66-2-5.18-3-7.88h0c-2.19.54-4.16,4.21-.68,8.06a5.3,5.3,0,0,1,1.55,1.23l0,.09a24.94,24.94,0,0,1-6.14-1.21c.07,1-.6,2.58-1.34,2.34a1.61,1.61,0,0,0-.48-.08c.53,1.65,2,2.89,6,2.67.51,0,1-.08,1.42-.13-1,1.22-2.59,3.57-2,4.64a1.49,1.49,0,0,1,1.51.49c-.51,1.29-2.07,2.75-3.52,2.33a3.93,3.93,0,0,0,4-.6"/></svg>