<svg xmlns="http://www.w3.org/2000/svg" viewBox="0 0 163.94 164.02"><defs><style>.cls-1{fill:#fff;}.cls-2{fill:#e03a3e;}</style></defs><title>Eszköz 1</title><g id="Réteg_2" data-name="Réteg 2"><g id="Layer_1" data-name="Layer 1"><path class="cls-1" d="M81.94.72A81.29,81.29,0,1,0,163.3,82,81.34,81.34,0,0,0,81.94.72Z"/><path class="cls-2" d="M81.94,164a82,82,0,0,0,58-140,81.5,81.5,0,0,0-58-24V1.15a80.85,80.85,0,0,1,57.16,138,80.32,80.32,0,0,1-57.16,23.68Zm0-164a82,82,0,0,0,0,164h0v-1.16h0a80.84,80.84,0,0,1-57.1-138A80.31,80.31,0,0,1,81.94,1.15h0V0Z"/><path class="cls-2" d="M81.94,160.49A78.48,78.48,0,1,0,3.46,82,78.54,78.54,0,0,0,81.94,160.49Z"/><path class="cls-1" d="M47.66,139.39A1.36,1.36,0,0,0,46.3,138a1.32,1.32,0,0,0-1.37,1.37A1.37,1.37,0,0,0,47.66,139.39Z"/><path class="cls-1" d="M121.1,138.1a1.36,1.36,0,0,0-1.36-1.37,1.32,1.32,0,0,0-1.37,1.37A1.37,1.37,0,0,0,121.1,138.1Z"/><path class="cls-1" d="M27.36,44.06a1.37,1.37,0,0,0-2.74,0A1.36,1.36,0,0,0,27.36,44.06Z"/><path class="cls-1" d="M81.94,138a55.95,55.95,0,1,0,0-111.89V27.5a54.51,54.51,0,0,1,0,109Zm0-111.89a55.95,55.95,0,1,0,0,111.89v-1.44a54.51,54.51,0,0,1,0-109Z"/><path class="cls-1" d="M59.47,69.19a25.18,25.18,0,0,1-3.81-9.93H53.5V72.43c3,3,6,7.06,5.4,11.31-.65,5.18-3.68,6.55-5.4,6.84v8.71h1.36c1.3,0,12.17-1.15,11.88-14.55C66.67,79.78,63,74,59.47,69.19Zm-6-9.93H37.58l-1.29,3.45h0c1.08.15,4.39,2.81,4.39,5.62v22c0,1.22-1.66,3.67-5.4,5.25l1.51,3.75H53.5V90.58a5.13,5.13,0,0,1-1.37.07H48V67.54c0,.36,2.74,2.16,5.48,4.89Z"/><path class="cls-1" d="M94.54,82.66a67.6,67.6,0,0,0-4.76-5.91c2-2.66,4.32-5.83,3.46-10.94-.58-3.53-2.81-7-7.63-8.93a21.15,21.15,0,0,0-3.89-1.22v5.68a7.74,7.74,0,0,1,1.73.87c.57.36,3.31,2.95,3.17,5.47a7,7,0,0,1-2.52,5.4L81.72,70.7V80.93L85.61,85a6,6,0,0,1,1.08,5.69,4.2,4.2,0,0,1-4.54,3c-.21-.07-.36-.07-.43-.14v8.21h.5c5,0,9.72-1.66,12.53-6.48C98.06,89.57,95.33,84.24,94.54,82.66Zm-12.82-27a19,19,0,0,0-16.63,4.75,9.81,9.81,0,0,1,3.74,7.34V88.34c0,2.67-2.3,8.86-6.62,11h11a7.75,7.75,0,0,1-2.16-6.41c.58-3.46,3.1-6.26,5.69-6.34V75.67l5,5.26V70.7c-1.66-1.58-3.6-3.38-3.89-3.67a3.24,3.24,0,0,1-.07-4.89,3.54,3.54,0,0,1,4-.8V55.66Zm0,37.94v8.21c-6.19-.29-8.42-4.75-8.86-7.2a6,6,0,0,1,2-5.26,2.9,2.9,0,0,1,2.37-.79c.58.14,1.52.36,1.59,2.09C78.84,92.23,80.06,93.17,81.72,93.6Z"/><path class="cls-1" d="M110.23,59.26H102.1l-1.73,3.38a4.63,4.63,0,0,1,2.16,3.89c.07,5.69-4.75,13.53-6.19,15.48,0,0,4.46,7.34.28,13.46A9,9,0,0,0,104,99.29h23l1.51-3.75h0c-2.23-.86-5.4-3.38-5.4-5.32V68.76a7.1,7.1,0,0,1,4.39-6.05l-1.37-3.45h-10.8V90.72s-9.28,2.23-10.72-6c-.51-2.73.07-6.55,3-13.32,2.88-6.48,2.59-7.13,2.59-8.49Z"/><path class="cls-1" d="M35.64,124.56A8.54,8.54,0,0,1,40,127.22l1,1-5.4,5.4v4.61c.14-.14.29-.36.5-.58l6.7-6.69c.65-.58,1.08-1,2-.29l.5-.5-4.75-4.83a11.86,11.86,0,0,0-5-3.24v2.45Zm0,15.26v-.43a1.27,1.27,0,0,1,.22.29Zm-2.23-4-.65-.64c-2.81-2.88-3.46-6.84-.94-9.36a4.26,4.26,0,0,1,3.82-1.3v-2.45a6,6,0,0,0-6.34,1.44,6.45,6.45,0,0,0-1.8,4v1.3a11.74,11.74,0,0,0,3.75,7.2l4,4.1.36-.36v-.43a1,1,0,0,1,0-1.15v-4.61Z"/><path class="cls-1" d="M24.12,115.56l-2.59.07v2.16l8.78-.43c.65-.07,1.59-.14,2,.58l.65-.29-2.16-4.18-.65.36c.29,1.08-.07,1.3-1,1.3l-3.24.21-2.66-5.18,1.94-2.66c.5-.72.86-1.08,1.58-.08l.65-.36-2.59-4.89-.65.29c.29.72,0,1.08-.36,1.58l-2.3,3v5.33l.5-.72Zm-2.59.07-2.59.15,2.59-3.39v-5.33l-6,7.92,1.59,3,4.39-.22Z"/><path class="cls-1" d="M12.53,99.07l8.93-1.58c.86-.15,1.51-.29,1.44-1.3l.72-.14.79,4.39-.72.14c-.36-1-.94-.86-1.8-.72l-9.36,1.66c-.87.14-1.44.29-1.37,1.3l-.72.14-.86-4.75,4.89-8.5-4,.72c-.79.15-1.37.22-1.37,1.3l-.72.14-.79-4.39.72-.14c.36,1,.94.86,1.8.72l9.29-1.66c.86-.14,1.44-.29,1.44-1.3L21.6,85l.79,4.39-.72.15c-.36-1-.93-.94-1.8-.8l-1.8.36Z"/><path class="cls-1" d="M16.7,78.55l.65-.65a1.72,1.72,0,0,0,.94.65c1.58.15,2.45-2.16,2.59-3.6.22-1.65-.22-4.1-1.87-4.32-3.75-.43-2.31,10.59-7.71,9.94-3-.36-3.6-4-3.24-7.13a9.18,9.18,0,0,1,3.46-6.7l1.66,3-.58.72A.69.69,0,0,0,12,70.2c-1.36-.22-2,2.16-2.16,3.46s-.14,3.45,1.3,3.6c2.95.36,2.09-10.73,7.78-10.08,3.31.36,4.17,4.46,3.81,7.84-.43,3.82-1.8,5.55-4.53,7.13Z"/><path class="cls-1" d="M28.22,51.19c.44-.07,1.3-.93,1.3-.86l.72.29-2.3,5.25-.65-.29c.36-1.08,0-1.08-.51-.93l-7.2,1.94.87,2.88,2.88,1.23c.79.28,1.37.57,1.94-.36l.65.28-2.09,4.9-.72-.29c.29-1-.29-1.22-1.08-1.58L13.32,59.9c-.79-.36-1.3-.57-1.87.29l-.72-.29L12.89,55l.65.29c-.29,1.08.28,1.29,1.08,1.65l3.6,1.51-2.09-6.4c-.29-1-.72-.8-1.23.07l-.64-.29,2.44-5.76.72.29a3.82,3.82,0,0,0,.15,3l1.22,4.46Z"/><path class="cls-1" d="M38.74,31.39a2.52,2.52,0,0,1,3.31.36c1.22,1.3.29,3-1.15,4.32l-2.16,2v2.3l4.1-3.74a7.1,7.1,0,0,0,2.59-4.47v-.36a3.17,3.17,0,0,0-.86-2.09c-1.37-1.44-3.67-1.29-5.55,0h0c.94-1.44,1.23-3.24.15-4.32a1.34,1.34,0,0,0-.43-.43Zm-.44,7L36.14,36v6.41l.15.14,2.45-2.23V38l-.44.36Zm-2.16-5,1-.87a5.82,5.82,0,0,1,1.59-1.08V24.91a3,3,0,0,0-2.6-.43v2.66a1.58,1.58,0,0,1,.8.58C38,28.8,37.3,30,36.14,31Zm0,2.66-1.29-1.44,1.29-1.22V31c0,.07-.07.07-.07.15L33.7,33.26l-2.6-2.88,2.52-2.23a3,3,0,0,1,2.52-1V24.48a5,5,0,0,0-2.44,1.3L26.78,32l.51.57c.86-.57,1.29-.14,1.8.51L35.5,40.1c.57.58.93,1.08.28,1.88l.36.43Z"/><path class="cls-1" d="M54.43,15.19a5.2,5.2,0,0,1,5,3.24c2,4.54-1.51,8-5,8.14v2c4.39-.72,8.79-4.17,8.86-8.49v-.22a8.78,8.78,0,0,0-.65-2.81c-1.58-3.38-4.9-4.39-8.21-3.81Zm-5.11,8.07c-2-4.4,1.51-7.85,5.11-8.07V13.25C50,14,45.65,17.42,45.5,21.6V22a8.72,8.72,0,0,0,.65,2.59c1.59,3.46,4.9,4.47,8.28,4v-2A5.2,5.2,0,0,1,49.32,23.26Z"/><path class="cls-1" d="M67.61,22.75c1-.29.93-.86.79-1.73l-1.3-9.43c-.14-.86-.21-1.44-1.29-1.44l-.07-.72L71,8.71l.15.72c-1.08.29-.94.87-.87,1.73l1.44,10,4.54-.58c1.29-.21,2.37-.57,2.3-1.87l1.15-.14.51,3.16L67.68,23.47Z"/><path class="cls-1" d="M90.5,17.21l.58.72a1.37,1.37,0,0,0-.72.86c-.29,1.51,1.94,2.59,3.38,2.88,1.66.29,4.11.07,4.47-1.58.72-3.67-10.37-3.1-9.36-8.43.57-2.95,4.39-3.31,7.41-2.73a9.44,9.44,0,0,1,6.34,4l-3,1.37-.72-.58a.89.89,0,0,0,.36-.5c.28-1.44-2-2.23-3.32-2.52s-3.45-.43-3.74,1c-.58,2.95,10.58,2.95,9.5,8.56-.64,3.24-4.75,3.82-8.13,3.17-3.75-.72-5.4-2.16-6.84-5Z"/><path class="cls-1" d="M113,16.56l1.44.72c1.73.86,2.88,2.45,2.09,4-.58,1.15-2,1.51-3.53,1.44v2c2.74.36,5.47.29,6.7-2.16,1-2,.21-4.47-3.53-6.34L113,14.62Zm-.72-.36.72.36V14.62l-3.82-1.88-.36.65c.87.65.65,1.15.22,1.95l-4.25,8.42c-.36.79-.65,1.3-1.65,1l-.36.65,4.82,2.37.29-.65c-.87-.57-.58-1.15-.22-1.87l.72-1.44,2.31.51,2.3.43v-2a28.66,28.66,0,0,1-3.82-.43Z"/><path class="cls-1" d="M121.32,33.77c-.5.65-.86,1.15-.14,1.87l-.44.58L116.5,33l.5-.58c.94.5,1.3,0,1.8-.65l5.83-7.49c.51-.72.87-1.15.15-1.94l.43-.58,4.25,3.32-.44.57c-.93-.57-1.29-.07-1.87.58Z"/><path class="cls-1" d="M123.26,37.15c.8.72,1.3.29,1.88-.29l7.12-6.26c.65-.58,1.08-1,.51-1.87l.57-.51,3.53,4-.57.51c-.8-.65-1.23-.29-1.88.29l-7.56,6.76,3,3.39c.86,1,1.8,1.65,2.81.93l.79.94-2.38,2.09-8.42-9.43Z"/><polygon class="cls-1" points="141.48 48.1 139.82 49.18 136.87 44.42 138.53 43.42 141.48 48.1"/><path class="cls-1" d="M150.84,61.56c.79-.29,1.37-.5,1.22-1.51l.65-.29,1.73,5.11-.65.22c-.5-.94-1.08-.72-1.87-.51l-9,3.1c-.79.29-1.37.5-1.15,1.58l-.72.22-2.45-7.06c-1.8-5.32,1.08-8.13,3.38-8.92,3-1.08,7,.79,7.49.57s.29-.65.15-1l.72-.21L152,57.74l-.65.22c-1.58-1.94-5.83-2.23-7.92-1.51-2.73.93-3.67,3.38-2.52,6.69l.51,1.66Z"/><path class="cls-1" d="M153.14,75l-9.07.36c-.86,0-1.44,0-1.58,1.08h-.72l-.22-4.46h.79c.15,1,.8,1,1.66,1l9.43-.36c.87-.08,1.51-.08,1.59-1.16h.72l.21,4.9-6,7.56,4-.14c.87,0,1.44,0,1.59-1.08h.72l.14,4.46h-.72c-.21-1-.79-1-1.65-.94l-9.51.29c-.79.07-1.44.07-1.51,1.15h-.79L142,83.16l.72-.07c.22,1.08.8,1.08,1.66,1l1.87-.08Z"/><path class="cls-1" d="M143,94.68c-.86-.14-1.44-.22-1.8.79l-.72-.14.94-5.26.72.15c0,1,.57,1.15,1.44,1.29l9.36,1.66c.79.21,1.37.29,1.73-.72l.72.14-.94,5.26-.72-.15c0-1.08-.58-1.15-1.37-1.29Z"/><path class="cls-1" d="M145.58,103.68c6.12,2.74,3.24,11.16-2.23,10.94v3.1c4-.5,7.2-4.9,7.71-9.22v-2.44a7,7,0,0,0-7.71-6v3.17A6.54,6.54,0,0,1,145.58,103.68Zm-2.23,10.94a6,6,0,0,1-2.09-.57C135,111.31,138,103,143.35,103.18V100c-4,.57-7.13,4.89-7.63,9.21v2.38a6.87,6.87,0,0,0,4.1,5.62,7,7,0,0,0,3.53.5Z"/><path class="cls-1" d="M138.1,126.22l-6.77-6c-.58-.58-1.08-.94-1.87-.29l-.58-.5,3-3.32.58.51c-.58.86-.14,1.29.5,1.87l7.06,6.34c.65.57,1.08.93,1.87.28l.58.51-3.24,3.6-9.72,1.37,2.95,2.59c.65.57,1.08,1,1.94.29l.51.5-3,3.38-.58-.5c.58-.86.14-1.3-.5-1.87l-7.06-6.34c-.65-.57-1.08-.93-1.87-.29l-.58-.5,3-3.31.5.5c-.58.87-.14,1.3.5,1.8l1.37,1.3Z"/><path class="cls-1" d="M62,138.89l-4.53,11.52c-.51,1.29.14,1.58,1.22,2.09l-.29.72-7-2.81.21-.72c2.09.79,2.45.36,3-.87l3.6-9.14a10,10,0,0,1-3.24-.36l.44-1.08a8.53,8.53,0,0,0,4.53-.22Z"/><path class="cls-1" d="M72.65,149h.29a2.92,2.92,0,0,1-.29,5.83v1.87c3.09.15,6.19-1.08,6.55-4.1a3.84,3.84,0,0,0-3.1-4.11h0v-.07h0c1.8-.21,3-1.15,3.17-2.66,0-.07.07-.07.07-.15V145c-.28-2.38-3.67-3.67-6.69-3.67v1.8c1.65-.29,3.74.64,3.53,2.37-.22,1.37-1.59,1.87-3,1.73-.14-.07-.36-.07-.5-.14Zm-3.1,2.52a2.68,2.68,0,0,1,3.1-2.52V147.1a2.07,2.07,0,0,1-1.87-2.31,2,2,0,0,1,1.87-1.65v-1.8c-2.45,0-4.75.86-5,2.88a3.38,3.38,0,0,0,2.38,3.38h0v.07c-2.24.22-3.75,1.44-4,3.39v1c.29,2.81,3.46,4.4,6.63,4.61V154.8A2.87,2.87,0,0,1,69.55,151.49Z"/><path class="cls-1" d="M90.86,149a2.85,2.85,0,0,1,3.1,2.45,3,3,0,0,1-3.1,3.38v1.87c3.1-.28,6.27-2,6.56-4.82v-1a4,4,0,0,0-4-3.17h0l-.07-.07h0c1.73-.65,2.59-1.87,2.45-3.38-.29-2.09-2.52-2.95-4.9-2.95v1.87a2,2,0,0,1,1.8,1.73c.15,1.08-.72,1.87-1.8,2.23Zm-3.09,3.31c-.22-1.65.5-3,2.66-3.31h.43v-1.87c-.21.07-.43.07-.64.14-1.59.22-2.81-.43-3-1.8-.21-1.65,1.95-2.59,3.6-2.3v-1.87c-3.09.07-6.55,1.51-6.76,3.88v.58a3.41,3.41,0,0,0,3.24,2.66h0c-2.09.8-3.32,2.38-3.1,4.32.43,3,3.53,4.18,6.62,4v-1.87A2.79,2.79,0,0,1,87.77,152.35Z"/><path class="cls-1" d="M106.34,139a2.91,2.91,0,0,1,2.88,1.8,3,3,0,0,1-1.87,3.75,7.49,7.49,0,0,1-1,.28V147a3.64,3.64,0,0,1,.8-.28c1.44-.58,3-1.88,3.24-3.24l.21.5c1.15,2.81.58,5.47-2.66,6.84a6.27,6.27,0,0,1-1.59.43v1.8a13.38,13.38,0,0,0,2.31-.72c5.18-2.09,6.48-6.69,4.75-10.87-1.22-2.95-3.6-5-7.06-4.39Zm-1.15.29a3.48,3.48,0,0,1,1.15-.29v-1.94a9.13,9.13,0,0,0-2.16.57c-2.37,1-4.1,2.88-4.24,4.9v.65a8.5,8.5,0,0,0,.28,1.29c.94,2.24,3.46,3.24,6.12,2.52v-2.16a2.77,2.77,0,0,1-2.8-1.72,2.68,2.68,0,0,1,1.65-3.82Zm1.15,12v1.8a14,14,0,0,1-1.58.36l-.94-2.16,1.16-.5A1.33,1.33,0,0,0,106.34,151.27Z"/><path class="cls-1" d="M85.82,11.38C85.68,9.5,84,7.63,81.14,7.2V8.93a3,3,0,0,1,2.16,2.66c.08,1.37-.64,2.23-2.16,2.59v1.59C84.74,15.34,85.9,13.25,85.82,11.38ZM81.14,7.2a13,13,0,0,0-1.72-.07L76,7.34h-.21a4,4,0,0,0,.07.94h.21c.44,0,.44.14.51.65l.29,5.54c.07.51.07.58-.36.72h-.22v.87h.29l3.89-.22c.21,0,.43-.07.64-.07V14.18a5.57,5.57,0,0,1-1.29.22h-.58l-.36-5.76h.29a5.38,5.38,0,0,1,1.94.29Z"/><path class="cls-1" d="M76.39,32.9s5.47,8.72-1.08,8.93c-1.29.07-2.88-.21-3.53-1.44-.93-1.73-.36-4.32,1.52-4.61,0,0-3.17-4-8.64-1.51-3.17,1.44-3.32,5.91-3,7.13,0,0-6.84-1.66-9.72,3.89-.79,1.58-1.36,5.18.15,7.49a11.47,11.47,0,0,1,6.19-2.88c2.16-.44,8.78,1.44,10.87,1.22,2.38-.22,7.42-.29,10-6,.43-1,.72-2.16,1.08-1.36.5,1.44.86,1.72,1.08,1.72s.14.08.29.08.07,0,.14-.08.58-.28,1.08-1.72c.36-.8.65.36,1.15,1.36,2.52,5.69,7.56,5.76,9.94,6,2.09.22,8.71-1.66,10.87-1.22A11.47,11.47,0,0,1,111,52.78c1.52-2.31.94-5.91.15-7.49-2.88-5.55-9.72-3.89-9.72-3.89.36-1.22.21-5.69-3-7.13-5.48-2.45-8.64,1.51-8.64,1.51,1.87.29,2.44,2.88,1.51,4.61-.65,1.23-2.23,1.51-3.53,1.44-6.55-.21-1.08-8.93-1.08-8.93C85,31,78.12,31,76.39,32.9Z"/><path class="cls-2" d="M110.38,48c-.44-2.52-2.09-4.46-6-5.11a18.37,18.37,0,0,0-4.75.22,6.61,6.61,0,0,0,.43-2.45,6.11,6.11,0,0,0-1.59-4.32A6,6,0,0,0,94,35.21h0l-1.66.57h0s.36.15.87,1.23a4.31,4.31,0,0,1-.72,4.46,5.57,5.57,0,0,1-5.83,1.87A4.25,4.25,0,0,1,84.24,42s.72,1.94,1.15,2.8,3.24,6.77,13.68,4a14.48,14.48,0,0,1,9.51.36s1.36.79,1.72,1.08C110.3,50.26,110.66,49.9,110.38,48Z"/><path class="cls-2" d="M52.85,48c.36-2.52,2.09-4.46,6-5.11a18,18,0,0,1,4.68.22,8.11,8.11,0,0,1-.44-2.45,6.11,6.11,0,0,1,1.59-4.32,6,6,0,0,1,4.46-1.15h0l1.66.57h0s-.36.15-.87,1.23a4.31,4.31,0,0,0,.72,4.46,5.58,5.58,0,0,0,5.84,1.87A4.25,4.25,0,0,0,78.91,42a21.18,21.18,0,0,1-1.15,2.8c-.5,1-3.24,6.77-13.68,4-5.76-1.52-9.43.36-9.5.36s-1.37.79-1.73,1.08C52.85,50.26,52.49,49.9,52.85,48Z"/><path class="cls-2" d="M81.5,42.7a.46.46,0,0,1-.43-.36s-.93-3.82-1.37-5.26S78.55,34,78.55,34c1.3-1,4.75-1,6,0,0,0-.72,1.73-1.15,3.1s-1.37,5.26-1.37,5.26c-.07.21-.22.36-.36.36H81.5Z"/><path class="cls-1" d="M82,132.77a11.3,11.3,0,0,1-4-.72,4.55,4.55,0,0,1-2.38-5.91c-2.09,1.59-5.47.15-6.55-3.67-1.22-4.68,1-7.49,1-7.49-1.66-.86-4.68.51-5.11,3.39a10.7,10.7,0,0,0,.72,5.9s-1.16.79-3.89-.29c-3.75-1.58-3.24-6.19-3.24-6.19a6,6,0,0,1-6-1c-5.18-4.17-4.82-8.49-4.82-8.49s6.33,2.59,9.5,2.16c2.31-.22,5.19-1.08,7.49-1.44,5.76-.94,11,4.39,11,4.39-1.66-6.41,5-6.77,6.19-6.7s7.92.29,6.26,6.7c0,0,5.26-5.33,11-4.39,2.37.36,5.18,1.22,7.49,1.44,3.16.43,9.57-2.16,9.57-2.16s.29,4.32-4.89,8.49a6,6,0,0,1-6,1s.58,4.61-3.24,6.19c-2.74,1.08-3.89.29-3.89.29a10.7,10.7,0,0,0,.72-5.9c-.43-2.88-3.38-4.25-5.11-3.39,0,0,2.3,2.81,1,7.49-1,3.82-4.39,5.26-6.55,3.67A4.48,4.48,0,0,1,86,132.05,11.6,11.6,0,0,1,82,132.77Z"/><path class="cls-2" d="M62.93,110.74c6.05-2.09,11,2.73,11,2.73a4,4,0,0,0-3.09.58,5,5,0,0,0-5.76,1.37c-2.45,2.73-.79,8-.79,8s-5.84-.22-4.18-7.35a16.7,16.7,0,0,1-3.82.8c-4.17.07-7.2-6.77-7.2-6.77A18.23,18.23,0,0,0,62.93,110.74Z"/><path class="cls-2" d="M91.8,114.84a6.33,6.33,0,0,0-3.31,0,19.85,19.85,0,0,0-3.1,2.38,3.89,3.89,0,0,1,.07,4.68,36.11,36.11,0,0,0,3.24,2.8c1.37.8,2.74.8,3.68-.21,2.37-2.59,1.87-6.19,1-8.07A2.85,2.85,0,0,0,91.8,114.84Z"/><path class="cls-2" d="M101.16,110.74c-6-2.09-11,2.73-11,2.73a4,4,0,0,1,3.1.58,5.1,5.1,0,0,1,5.83,1.37c2.38,2.73.72,8,.72,8s5.83-.22,4.18-7.35a17.46,17.46,0,0,0,3.81.8c4.18.07,7.2-6.77,7.2-6.77A18.12,18.12,0,0,1,101.16,110.74Z"/><path class="cls-2" d="M75.67,114.84a22.4,22.4,0,0,1,3,2.38,3.89,3.89,0,0,0-.08,4.68s-2.73,2.59-3.16,2.8c-1.44.8-2.74.8-3.68-.21a7.63,7.63,0,0,1-1.08-8.07C71.57,114.55,73.94,114.26,75.67,114.84Z"/><path class="cls-2" d="M86.69,109.8c-2.16-2.38-7.13-2.38-9.22,0-.93,1-.86,3.24-.29,4.39a8,8,0,0,0,2.16,2.16c1.16-1.15,4.25-1.15,5.4,0a7.87,7.87,0,0,0,2.16-2.16C87.48,113,87.55,110.81,86.69,109.8Z"/><path class="cls-2" d="M87.12,126c-.36-.72-2.38-3.31-2.38-3.31a5.19,5.19,0,0,1-5.4,0s-2,2.59-2.37,3.31a5.3,5.3,0,0,0,0,2.88,3,3,0,0,0,1.58,1.66,8.68,8.68,0,0,0,7.06,0,3.1,3.1,0,0,0,1.51-1.66A4.76,4.76,0,0,0,87.12,126Z"/></g></g></svg>