<svg xmlns="http://www.w3.org/2000/svg" viewBox="0 0 398.59 567.5"><defs><style>.cls-1{fill:#fff;}.cls-2{fill:#00285e;}.cls-3{fill:#005529;}.cls-4{fill:#ed1c24;}.cls-5{fill:#f8c114;}</style></defs><title>Eszköz 1</title><g id="Réteg_2" data-name="Réteg 2"><g id="Layer_1" data-name="Layer 1"><path class="cls-1" d="M199.3,567.5c-63.94-17.28-116.93-45.93-150.7-84.38C16.34,446.47-.07,400.82,0,349.27V0H398.59V349.27c.07,51.55-16.34,97.2-48.6,133.85C316.22,521.57,263.3,550.22,199.3,567.5Z"/><path class="cls-1" d="M381.17,349.27c0,98.21-63.43,167.62-182.23,200.52C80,516.89,17,447.48,17,349.27V113.11H381.17Z"/><path class="cls-2" d="M199.51,555.7c62.43-16.85,110.16-43.78,142-80,30.45-34.63,45.86-77.18,45.86-126.43v-241H199.51v9.64H377.93V349.27h0c0,96.12-62.14,164.09-178.42,196.35ZM11.23,108.22V349.27c0,49.25,15.41,91.8,45.79,126.43C88.92,512,136.8,538.92,199.3,555.77l.21-.07V545.62l-.21.07C82.8,513.43,21.17,445.39,21.17,349.27V117.86H199.51v-9.64Z"/><rect class="cls-2" x="11.23" y="11.23" width="376.13" height="82.37"/><polygon class="cls-1" points="79.85 24.7 79.85 35.86 94.39 35.86 94.39 79.78 107.35 79.78 107.35 35.86 120.53 35.86 124.92 24.7 79.85 24.7"/><path class="cls-1" d="M141.12,43.7v-19h-12V79.78h12V54.07c2-1.8,6-4.61,9.86-4.61a5.72,5.72,0,0,1,5.69,3.46,13.32,13.32,0,0,1,.87,5.54V79.78h12V56.23a24.36,24.36,0,0,0-1.15-8.57c-2-5.54-6.84-8.78-13.83-8.78A20.48,20.48,0,0,0,141.12,43.7Z"/><polygon class="cls-1" points="241.78 48.1 241.78 35.86 267.48 35.86 271.66 24.7 228.89 24.7 228.89 79.78 241.78 79.78 241.78 59.69 258.48 59.69 262.87 48.1 241.78 48.1"/><path class="cls-1" d="M196.27,38.88h-.43v8.57h0c5.33,0,8.28,3.67,8.93,8.35h-8.93v7.85h19.87a11,11,0,0,0,.07-1.51V58.68c-.64-11.59-8-19.8-19.51-19.8Zm-.43,42.05a9,9,0,0,0,1.37.07,32.45,32.45,0,0,0,12.53-2.16l3.16-9.22a41.38,41.38,0,0,1-14.25,2.6,17.51,17.51,0,0,1-2.81-.22Zm0-42.05c-12.17.22-19.8,8.5-19.8,21s7.27,20.52,19.8,21V72c-5.54-.72-8.42-3.82-9-8.35h9V55.8h-9a8.73,8.73,0,0,1,9-8.35Z"/><path class="cls-1" d="M297.65,24.7h-7.92V37.3h.36L297.22,58h-7.49V68.9h11.45l3.67,10.88h13.39Zm-7.92,0h-7.06l-21,55.08h13L278.5,68.9h11.23V58h-7.49l7.42-20.73h.07Z"/><path class="cls-3" d="M193.75,409.9a1.92,1.92,0,0,0-.07-1.8q-.33-.33-1.08,0a7.37,7.37,0,0,0-2.3,3.31c-.08.21-.15.5-.22.72a14.92,14.92,0,0,0-.72,4,26.12,26.12,0,0,0,2.74-3.1l.43-.64A11.48,11.48,0,0,0,193.75,409.9Z"/><path class="cls-4" d="M184.32,398.74a6.55,6.55,0,0,0-2.52,8.06,8.54,8.54,0,0,0,8.28,5.33c.07-.22.14-.51.22-.72a7.37,7.37,0,0,1,2.3-3.31,28.46,28.46,0,0,0-1-4.68,27.23,27.23,0,0,0-2.81-4.61C188.06,399.24,186.62,399.38,184.32,398.74Z"/><path class="cls-4" d="M199,391.75c-.51-.72-.87-2.37-1.08-4.75v-.43c-1.3-1.08-6-4.32-10.44-.65a8,8,0,0,0-2.16,10.15,11.31,11.31,0,0,1,3.81,1.23,36.59,36.59,0,0,1,4.4-3.17A23.18,23.18,0,0,1,199,391.75Z"/><path class="cls-3" d="M184.9,396a11.22,11.22,0,0,0-5,.29s.72,1.37,4.32,2.45h.07c2.3.64,3.74.5,4.46.07a1.19,1.19,0,0,0,.72-1,1.05,1.05,0,0,0-.36-.5,11.31,11.31,0,0,0-3.81-1.23A2.46,2.46,0,0,1,184.9,396Z"/><path class="cls-4" d="M206.78,407a27.48,27.48,0,0,0-6.33.43,33.46,33.46,0,0,0-6.7,2.45,11.48,11.48,0,0,1-1.22,2.52l-.43.64a10.27,10.27,0,0,0,9.28,3.75c6.2-.79,7.78-5,8.07-6.05-.15-.14-.29-.36-.43-.5A15.22,15.22,0,0,1,206.78,407Z"/><path class="cls-4" d="M214.06,395.35a15.12,15.12,0,0,1-1.59.79,20.32,20.32,0,0,1-4,1.23,12.56,12.56,0,0,0-.79,3.89,16.18,16.18,0,0,0,.36,4.32,14.32,14.32,0,0,1,2.66,2.8,1.39,1.39,0,0,1,.29.44,6.81,6.81,0,0,1,.65.93c1.8.07,5.9-.43,6.77-6.19C219.46,397.08,214.92,395.57,214.06,395.35Z"/><path class="cls-4" d="M213.34,393.84c.14-.79,1.36-7.06-4.25-9.94-4-2-7.2.08-8.86,1.52a4.31,4.31,0,0,1,.15,1.08,11.49,11.49,0,0,1-.15,4.82,21,21,0,0,0,4,2.52,28.9,28.9,0,0,0,4.32,1.51,28.05,28.05,0,0,1,3-1.15A14.76,14.76,0,0,1,213.34,393.84Z"/><path class="cls-3" d="M200.38,386.5a4.31,4.31,0,0,0-.15-1.08c-.43-2.16-1.37-2.45-1.37-2.45s-1,.65-.93,3.6V387c.21,2.38.57,4,1.08,4.75a.68.68,0,0,0,.65.36c.21,0,.43-.36.57-.79h0A11.49,11.49,0,0,0,200.38,386.5Z"/><path class="cls-3" d="M214.06,395.35a10.38,10.38,0,0,0,2.88-1.87,25.54,25.54,0,0,0-5.33.72,28.05,28.05,0,0,0-3,1.15c-.79.43-1.29.94-1.08,1.51.08.36.44.51,1,.51a20.32,20.32,0,0,0,4-1.23A15.12,15.12,0,0,0,214.06,395.35Z"/><path class="cls-3" d="M210.74,408.38a14.32,14.32,0,0,0-2.66-2.8,2.07,2.07,0,0,0-.79-.51c-.36-.14-.65-.14-.79.07a1.27,1.27,0,0,0-.08.94c.08.29.22.58.36.94a15.22,15.22,0,0,0,2.24,3.24c.14.14.28.36.43.5l.29.29a4.84,4.84,0,0,0,2.8,1.44,6.63,6.63,0,0,0-.86-2.74,6.81,6.81,0,0,0-.65-.93A1.39,1.39,0,0,0,210.74,408.38Z"/><path class="cls-5" d="M203.18,398.74c.51,1.94-1.08,4-3.52,4.68s-4.83-.36-5.33-2.31,1.08-4,3.53-4.68S202.68,396.86,203.18,398.74Z"/><path class="cls-3" d="M326,409.9a2,2,0,0,0-.08-1.8,1,1,0,0,0-1.08,0,7.45,7.45,0,0,0-2.3,3.31c-.07.21-.14.5-.22.72a14.92,14.92,0,0,0-.72,4,26.12,26.12,0,0,0,2.74-3.1l.43-.64A12,12,0,0,0,326,409.9Z"/><path class="cls-4" d="M316.58,398.74a6.55,6.55,0,0,0-2.52,8.06,8.55,8.55,0,0,0,8.28,5.33c.08-.22.15-.51.22-.72a7.45,7.45,0,0,1,2.3-3.31,27.49,27.49,0,0,0-1-4.68,27.89,27.89,0,0,0-2.81-4.61C320.33,399.24,318.89,399.38,316.58,398.74Z"/><path class="cls-4" d="M331.27,391.75c-.5-.72-.86-2.37-1.08-4.75v-.43c-1.29-1.08-6-4.32-10.44-.65a8,8,0,0,0-2.16,10.15,11.36,11.36,0,0,1,3.82,1.23,36.39,36.39,0,0,1,4.39-3.17A23.36,23.36,0,0,1,331.27,391.75Z"/><path class="cls-3" d="M317.16,396a11.25,11.25,0,0,0-5,.29s.72,1.37,4.32,2.45h.07c2.31.64,3.75.5,4.47.07a1.21,1.21,0,0,0,.72-1,2.23,2.23,0,0,0-.36-.5,11.36,11.36,0,0,0-3.82-1.23A2.66,2.66,0,0,1,317.16,396Z"/><path class="cls-4" d="M339.12,407a27.57,27.57,0,0,0-6.34.43A32.78,32.78,0,0,0,326,409.9a12,12,0,0,1-1.23,2.52l-.43.64a10.25,10.25,0,0,0,9.36,3.75c6.19-.79,7.78-5,8.06-6.05-.14-.14-.28-.36-.43-.5A14.77,14.77,0,0,1,339.12,407Z"/><path class="cls-4" d="M346.39,395.35a10.65,10.65,0,0,1-1.65.79,19,19,0,0,1-3.89,1.23,12.56,12.56,0,0,0-.79,3.89,15.77,15.77,0,0,0,.36,4.32,14.62,14.62,0,0,1,2.66,2.8,1.59,1.59,0,0,1,.29.44,6.81,6.81,0,0,1,.65.93c1.8.07,5.9-.43,6.76-6.19C351.79,397.08,347.26,395.57,346.39,395.35Z"/><path class="cls-4" d="M345.67,393.84c.15-.79,1.37-7.06-4.25-9.94-4-2-7.2.08-8.85,1.52a4.36,4.36,0,0,1,.14,1.08,12.63,12.63,0,0,1-.14,4.82,21,21,0,0,0,4,2.52,26.08,26.08,0,0,0,4.32,1.51,27,27,0,0,1,3-1.15A15.66,15.66,0,0,1,345.67,393.84Z"/><path class="cls-3" d="M332.71,386.5a4.36,4.36,0,0,0-.14-1.08c-.43-2.16-1.44-2.45-1.44-2.45s-1,.65-.94,3.6V387c.22,2.38.58,4,1.08,4.75a.76.76,0,0,0,.65.36c.29,0,.5-.36.65-.79h0A12.63,12.63,0,0,0,332.71,386.5Z"/><path class="cls-3" d="M346.39,395.35a11.81,11.81,0,0,0,2.88-1.87,14.84,14.84,0,0,0-3.6.36,15.66,15.66,0,0,0-1.73.36,27,27,0,0,0-3,1.15c-.79.43-1.3.94-1.08,1.51.07.36.43.51,1,.51a19,19,0,0,0,3.89-1.23A10.65,10.65,0,0,0,346.39,395.35Z"/><path class="cls-3" d="M343.08,408.38a14.62,14.62,0,0,0-2.66-2.8,2,2,0,0,0-.8-.51c-.36-.14-.64-.14-.79.07s-.14.51-.07.94a8.34,8.34,0,0,0,.36.94,14.77,14.77,0,0,0,2.23,3.24c.15.14.29.36.43.5s.15.22.29.29a4.85,4.85,0,0,0,2.81,1.44,6.63,6.63,0,0,0-.86-2.74,6.81,6.81,0,0,0-.65-.93A1.59,1.59,0,0,0,343.08,408.38Z"/><path class="cls-5" d="M335.52,398.74c.5,1.94-1.08,4-3.53,4.68s-4.89-.36-5.4-2.31,1.08-4,3.53-4.68S335,396.86,335.52,398.74Z"/><path class="cls-3" d="M60.48,409.9a2.15,2.15,0,0,0-.07-1.8,1,1,0,0,0-1.08,0A6.5,6.5,0,0,0,57,411.41a2.9,2.9,0,0,0-.28.72,14.92,14.92,0,0,0-.72,4,26.45,26.45,0,0,0,2.73-3.1,3,3,0,0,0,.43-.64A16.23,16.23,0,0,0,60.48,409.9Z"/><path class="cls-4" d="M51,398.74c-1.16.86-4.32,3.67-2.45,8.06a8.46,8.46,0,0,0,8.21,5.33,2.9,2.9,0,0,1,.28-.72,6.5,6.5,0,0,1,2.31-3.31,22.63,22.63,0,0,0-1.08-4.68,23.84,23.84,0,0,0-2.81-4.61C54.72,399.24,53.28,399.38,51,398.74Z"/><path class="cls-4" d="M65.66,391.75c-.5-.72-.86-2.37-1-4.75-.08-.14,0-.29-.08-.43-1.29-1.08-6-4.32-10.44-.65A8,8,0,0,0,52,396.07a10.82,10.82,0,0,1,3.82,1.23,38.67,38.67,0,0,1,4.46-3.17A23,23,0,0,1,65.66,391.75Z"/><path class="cls-3" d="M51.62,396a11.19,11.19,0,0,0-5,.29s.64,1.37,4.24,2.45H51c2.3.64,3.74.5,4.46.07s.79-.65.72-1a.73.73,0,0,0-.36-.5A10.82,10.82,0,0,0,52,396.07.93.93,0,0,1,51.62,396Z"/><path class="cls-4" d="M73.51,407a27.45,27.45,0,0,0-6.33.43,31.91,31.91,0,0,0-6.7,2.45,16.23,16.23,0,0,1-1.3,2.52,3,3,0,0,1-.43.64,10.4,10.4,0,0,0,9.43,3.75c6.2-.79,7.71-5,8-6.05-.15-.14-.29-.36-.44-.5A15.13,15.13,0,0,1,73.51,407Z"/><path class="cls-4" d="M80.78,395.35a10,10,0,0,1-1.58.79,20.53,20.53,0,0,1-4,1.23,15,15,0,0,0-.79,3.89,16,16,0,0,0,.43,4.32,17.17,17.17,0,0,1,2.66,2.8,1.85,1.85,0,0,0,.29.44,6.2,6.2,0,0,1,.58.93c1.87.07,5.9-.43,6.77-6.19C86.18,397.08,81.72,395.57,80.78,395.35Z"/><path class="cls-4" d="M80.06,393.84c.22-.79,1.37-7.06-4.24-9.94-4-2-7.2.08-8.86,1.52.07.28.14.64.22,1.08a12.55,12.55,0,0,1-.22,4.82,23.7,23.7,0,0,0,4,2.52,31.94,31.94,0,0,0,4.32,1.51,29,29,0,0,1,3.1-1.15A11.42,11.42,0,0,1,80.06,393.84Z"/><path class="cls-3" d="M67.18,386.5c-.08-.44-.15-.8-.22-1.08-.43-2.16-1.44-2.45-1.44-2.45s-1,.65-.94,3.6c.08.14,0,.29.08.43.14,2.38.5,4,1,4.75a.81.81,0,0,0,.72.36c.29,0,.44-.36.58-.79h0A12.55,12.55,0,0,0,67.18,386.5Z"/><path class="cls-3" d="M80.78,395.35c1.44-.72,3-1.73,2.88-1.87a15.07,15.07,0,0,0-3.6.36,11.42,11.42,0,0,0-1.65.36,29,29,0,0,0-3.1,1.15c-.79.43-1.29.94-1.08,1.51.15.36.51.51,1,.51a20.53,20.53,0,0,0,4-1.23A10,10,0,0,0,80.78,395.35Z"/><path class="cls-3" d="M77.54,408.38a17.17,17.17,0,0,0-2.66-2.8,2.23,2.23,0,0,0-.86-.51.67.67,0,0,0-.8.07,1.33,1.33,0,0,0-.07.94,8.34,8.34,0,0,0,.36.94,15.13,15.13,0,0,0,2.23,3.24c.15.14.29.36.44.5l.28.29a5.08,5.08,0,0,0,2.81,1.44,6.63,6.63,0,0,0-.86-2.74,6.2,6.2,0,0,0-.58-.93A1.85,1.85,0,0,1,77.54,408.38Z"/><path class="cls-5" d="M69.91,398.74c.51,1.94-1.08,4-3.53,4.68s-4.89-.36-5.4-2.31,1.08-4,3.6-4.68S69.48,396.86,69.91,398.74Z"/><path class="cls-3" d="M193.75,286.56c.22-.72.29-1.37-.07-1.73s-.58-.29-1.08-.07a7.43,7.43,0,0,0-2.3,3.31c-.08.22-.15.51-.22.79a14.32,14.32,0,0,0-.72,4,25.65,25.65,0,0,0,2.74-3.09l.43-.65A11.48,11.48,0,0,0,193.75,286.56Z"/><path class="cls-4" d="M184.32,275.47a6.57,6.57,0,0,0-2.52,8.07,8.77,8.77,0,0,0,8.28,5.32c.07-.28.14-.57.22-.79a7.43,7.43,0,0,1,2.3-3.31,29.71,29.71,0,0,0-1-4.61,27.63,27.63,0,0,0-2.81-4.61C188.06,276,186.62,276.12,184.32,275.47Z"/><path class="cls-4" d="M199,268.49c-.51-.72-.87-2.38-1.08-4.75v-.44c-1.3-1.08-6-4.32-10.44-.64a8,8,0,0,0-2.16,10.15,11.07,11.07,0,0,1,3.81,1.22,37.73,37.73,0,0,1,4.4-3.17A23.12,23.12,0,0,1,199,268.49Z"/><path class="cls-3" d="M184.9,272.74a11.14,11.14,0,0,0-5,.28s.72,1.44,4.32,2.45h.07c2.3.65,3.74.51,4.46.07a1.17,1.17,0,0,0,.72-1,1.07,1.07,0,0,0-.36-.51,11.07,11.07,0,0,0-3.81-1.22A2.46,2.46,0,0,1,184.9,272.74Z"/><path class="cls-4" d="M206.78,283.75a32.49,32.49,0,0,0-6.33.36,34.09,34.09,0,0,0-6.7,2.45,11.48,11.48,0,0,1-1.22,2.52l-.43.65a10.3,10.3,0,0,0,9.28,3.74c6.2-.79,7.78-5,8.07-6.05a2.43,2.43,0,0,1-.43-.5A16.39,16.39,0,0,1,206.78,283.75Z"/><path class="cls-4" d="M214.06,272.09a15.12,15.12,0,0,1-1.59.79,20.15,20.15,0,0,1-4,1.22,12.69,12.69,0,0,0-.79,3.89,16.14,16.14,0,0,0,.36,4.32,13.67,13.67,0,0,1,2.66,2.74,1.36,1.36,0,0,1,.29.43c.29.36.43.65.65.94,1.8.07,5.9-.44,6.77-6.12C219.46,273.82,214.92,272.3,214.06,272.09Z"/><path class="cls-4" d="M213.34,270.58c.14-.8,1.36-7.06-4.25-9.94-4-2-7.2.07-8.86,1.51a4.45,4.45,0,0,1,.15,1.08,11.53,11.53,0,0,1-.15,4.83,21.56,21.56,0,0,0,4,2.52,30.13,30.13,0,0,0,4.32,1.51,28.05,28.05,0,0,1,3-1.15A13,13,0,0,1,213.34,270.58Z"/><path class="cls-3" d="M200.38,263.23a4.45,4.45,0,0,0-.15-1.08c-.43-2.16-1.37-2.45-1.37-2.45s-1,.65-.93,3.6v.44c.21,2.37.57,4,1.08,4.75a.68.68,0,0,0,.65.36c.21,0,.43-.36.57-.79h0A11.53,11.53,0,0,0,200.38,263.23Z"/><path class="cls-3" d="M214.06,272.09a10.38,10.38,0,0,0,2.88-1.87,14.26,14.26,0,0,0-3.6.36,13,13,0,0,0-1.73.36,28.05,28.05,0,0,0-3,1.15c-.79.43-1.29.93-1.08,1.51.08.36.44.5,1,.5a20.15,20.15,0,0,0,4-1.22A15.12,15.12,0,0,0,214.06,272.09Z"/><path class="cls-3" d="M210.74,285.05a13.67,13.67,0,0,0-2.66-2.74,2,2,0,0,0-.79-.5c-.36-.15-.65-.15-.79.07a1.26,1.26,0,0,0-.08.94c.08.28.22.57.36.93a16.39,16.39,0,0,0,2.24,3.17,2.43,2.43,0,0,0,.43.5l.29.29a4.84,4.84,0,0,0,2.8,1.44,6.57,6.57,0,0,0-.86-2.73c-.22-.29-.36-.58-.65-.94A1.36,1.36,0,0,0,210.74,285.05Z"/><path class="cls-5" d="M203.18,275.47c.51,1.95-1.08,4-3.52,4.68s-4.83-.36-5.33-2.3,1.08-4,3.53-4.68S202.68,273.6,203.18,275.47Z"/><path class="cls-3" d="M58.75,286.56c.22-.72.29-1.37-.07-1.73s-.58-.29-1.08-.07a7.43,7.43,0,0,0-2.3,3.31c-.08.22-.15.51-.22.79a14.32,14.32,0,0,0-.72,4,25.65,25.65,0,0,0,2.74-3.09l.43-.65A11.48,11.48,0,0,0,58.75,286.56Z"/><path class="cls-4" d="M49.32,275.47a6.57,6.57,0,0,0-2.52,8.07,8.77,8.77,0,0,0,8.28,5.32c.07-.28.14-.57.22-.79a7.43,7.43,0,0,1,2.3-3.31,29.71,29.71,0,0,0-1-4.61,27.63,27.63,0,0,0-2.81-4.61C53.06,276,51.62,276.12,49.32,275.47Z"/><path class="cls-4" d="M64,268.49c-.51-.72-.87-2.38-1.08-4.75v-.44c-1.3-1.08-6-4.32-10.44-.64a8,8,0,0,0-2.16,10.15A11.07,11.07,0,0,1,54.14,274a37.73,37.73,0,0,1,4.4-3.17A23.12,23.12,0,0,1,64,268.49Z"/><path class="cls-3" d="M49.9,272.74a11.14,11.14,0,0,0-5,.28s.72,1.44,4.32,2.45h.07c2.3.65,3.74.51,4.46.07a1.17,1.17,0,0,0,.72-1,1.07,1.07,0,0,0-.36-.51,11.07,11.07,0,0,0-3.81-1.22A2.46,2.46,0,0,1,49.9,272.74Z"/><path class="cls-4" d="M71.86,283.75a32.59,32.59,0,0,0-6.34.36,33.26,33.26,0,0,0-6.77,2.45,11.48,11.48,0,0,1-1.22,2.52l-.43.65a10.37,10.37,0,0,0,9.36,3.74c6.19-.79,7.77-5,8.06-6.05a2.78,2.78,0,0,1-.43-.5A15.85,15.85,0,0,1,71.86,283.75Z"/><path class="cls-4" d="M79.13,272.09a15.12,15.12,0,0,1-1.59.79,20.15,20.15,0,0,1-4,1.22,12.69,12.69,0,0,0-.79,3.89,16.56,16.56,0,0,0,.36,4.32,13.94,13.94,0,0,1,2.67,2.74,1.5,1.5,0,0,1,.28.43c.29.36.44.65.65.94,1.8.07,5.91-.44,6.77-6.12C84.53,273.82,80,272.3,79.13,272.09Z"/><path class="cls-4" d="M78.41,270.58c.14-.8,1.37-7.06-4.25-9.94-4-2-7.2.07-8.86,1.51a4,4,0,0,1,.15,1.08,11.36,11.36,0,0,1-.15,4.83,21.75,21.75,0,0,0,4,2.52,29.3,29.3,0,0,0,4.32,1.51,27,27,0,0,1,3-1.15A13.3,13.3,0,0,1,78.41,270.58Z"/><path class="cls-3" d="M65.45,263.23a4,4,0,0,0-.15-1.08c-.43-2.16-1.44-2.45-1.44-2.45s-1,.65-.93,3.6v.44c.21,2.37.57,4,1.08,4.75a.79.79,0,0,0,.72.36c.21,0,.43-.36.57-.79h0A11.36,11.36,0,0,0,65.45,263.23Z"/><path class="cls-3" d="M79.13,272.09A10.38,10.38,0,0,0,82,270.22a14.29,14.29,0,0,0-3.6.36,13.3,13.3,0,0,0-1.73.36,27,27,0,0,0-3,1.15c-.8.43-1.3.93-1.08,1.51.07.36.43.5,1,.5a20.15,20.15,0,0,0,4-1.22A15.12,15.12,0,0,0,79.13,272.09Z"/><path class="cls-3" d="M75.82,285.05a13.94,13.94,0,0,0-2.67-2.74,2,2,0,0,0-.79-.5c-.36-.15-.65-.15-.79.07a1.22,1.22,0,0,0-.07.94,7.21,7.21,0,0,0,.36.93,15.85,15.85,0,0,0,2.23,3.17,2.78,2.78,0,0,0,.43.5l.29.29a4.85,4.85,0,0,0,2.81,1.44,6.52,6.52,0,0,0-.87-2.73c-.21-.29-.36-.58-.65-.94A1.5,1.5,0,0,0,75.82,285.05Z"/><path class="cls-5" d="M68.26,275.47c.5,1.95-1.08,4-3.53,4.68s-4.9-.36-5.4-2.3,1.08-4,3.53-4.68S67.75,273.6,68.26,275.47Z"/><path class="cls-3" d="M329,286.56c.22-.72.29-1.37-.07-1.73s-.65-.29-1.08-.07a7,7,0,0,0-2.31,3.31,5.08,5.08,0,0,1-.28.79,14.32,14.32,0,0,0-.72,4,31.21,31.21,0,0,0,2.8-3.09,2.64,2.64,0,0,0,.36-.65A11.82,11.82,0,0,0,329,286.56Z"/><path class="cls-4" d="M319.61,275.47a6.56,6.56,0,0,0-2.52,8.07,8.74,8.74,0,0,0,8.21,5.32,5.08,5.08,0,0,0,.28-.79,7,7,0,0,1,2.31-3.31,29.71,29.71,0,0,0-1-4.61,28.32,28.32,0,0,0-2.81-4.61C323.28,276,321.91,276.12,319.61,275.47Z"/><path class="cls-4" d="M334.22,268.49c-.5-.72-.86-2.38-1-4.75v-.44c-1.37-1.08-6.05-4.32-10.52-.64s-2.88,8.49-2.08,10.15a10.28,10.28,0,0,1,3.74,1.22,47.76,47.76,0,0,1,4.46-3.17A24.2,24.2,0,0,1,334.22,268.49Z"/><path class="cls-3" d="M320.18,272.74a11.11,11.11,0,0,0-5,.28s.64,1.44,4.32,2.45h.07c2.3.65,3.67.51,4.46.07.51-.28.72-.64.65-1a.74.74,0,0,0-.36-.51,10.28,10.28,0,0,0-3.74-1.22A1.67,1.67,0,0,1,320.18,272.74Z"/><path class="cls-4" d="M342.07,283.75a23.32,23.32,0,0,0-13,2.81,11.82,11.82,0,0,1-1.3,2.52,2.64,2.64,0,0,1-.36.65,10.27,10.27,0,0,0,9.36,3.74c6.2-.79,7.71-5,8-6.05a2.8,2.8,0,0,1-.44-.5A27.26,27.26,0,0,1,342.07,283.75Z"/><path class="cls-4" d="M349.34,272.09a7.71,7.71,0,0,1-1.58.79,19.79,19.79,0,0,1-3.89,1.22A14.88,14.88,0,0,0,343,278a19.37,19.37,0,0,0,.43,4.32,13.67,13.67,0,0,1,2.66,2.74,1.36,1.36,0,0,1,.29.43c.22.36.43.65.58.94,1.87.07,5.9-.44,6.77-6.12C354.74,273.82,350.28,272.3,349.34,272.09Z"/><path class="cls-4" d="M348.7,270.58c.14-.8,1.29-7.06-4.25-9.94-4-2-7.27.07-8.86,1.51.07.29.07.65.15,1.08a14.52,14.52,0,0,1-.15,4.83,21.56,21.56,0,0,0,4,2.52,27.42,27.42,0,0,0,4.32,1.51,28.05,28.05,0,0,1,3-1.15A11,11,0,0,1,348.7,270.58Z"/><path class="cls-3" d="M335.74,263.23a6.55,6.55,0,0,1-.15-1.08c-.5-2.16-1.51-2.45-1.51-2.45s-1,.65-.86,3.6v.44c.14,2.37.5,4,1,4.75a.81.81,0,0,0,.72.36c.29,0,.44-.36.58-.79h.07A14.52,14.52,0,0,0,335.74,263.23Z"/><path class="cls-3" d="M349.34,272.09a11.51,11.51,0,0,0,3-1.87,14.26,14.26,0,0,0-3.6.36,11,11,0,0,0-1.73.36,28.05,28.05,0,0,0-3,1.15c-.86.43-1.29.93-1.15,1.51.15.36.51.5,1.08.5a19.79,19.79,0,0,0,3.89-1.22A7.71,7.71,0,0,0,349.34,272.09Z"/><path class="cls-3" d="M346.1,285.05a13.67,13.67,0,0,0-2.66-2.74,2,2,0,0,0-.79-.5c-.36-.15-.65-.15-.79.07s-.22.5-.08.94a9.41,9.41,0,0,0,.29.93,27.26,27.26,0,0,0,2.23,3.17,2.8,2.8,0,0,0,.44.5c.14.08.21.22.36.29a4.77,4.77,0,0,0,2.73,1.44,5.45,5.45,0,0,0-.86-2.73c-.15-.29-.36-.58-.58-.94A1.36,1.36,0,0,0,346.1,285.05Z"/><path class="cls-5" d="M338.54,275.47c.51,1.95-1.08,4-3.6,4.68s-4.89-.36-5.4-2.3,1.16-4,3.6-4.68S338,273.6,338.54,275.47Z"/><path class="cls-3" d="M193.75,163.3c.22-.72.29-1.37-.07-1.73s-.58-.29-1.08-.07a7.37,7.37,0,0,0-2.3,3.31c-.08.29-.15.5-.22.79a14.26,14.26,0,0,0-.72,4,26.12,26.12,0,0,0,2.74-3.1l.43-.64A10.14,10.14,0,0,0,193.75,163.3Z"/><path class="cls-4" d="M184.32,152.14a6.55,6.55,0,0,0-2.52,8.06,8.76,8.76,0,0,0,8.28,5.4c.07-.29.14-.5.22-.79a7.37,7.37,0,0,1,2.3-3.31,28.46,28.46,0,0,0-1-4.68,27.23,27.23,0,0,0-2.81-4.61C188.06,152.64,186.62,152.78,184.32,152.14Z"/><path class="cls-4" d="M199,145.15c-.51-.72-.87-2.37-1.08-4.75V140c-1.3-1.08-6-4.32-10.44-.65a8,8,0,0,0-2.16,10.15,11.31,11.31,0,0,1,3.81,1.23,46.44,46.44,0,0,1,4.4-3.17A23.18,23.18,0,0,1,199,145.15Z"/><path class="cls-3" d="M184.9,149.4a11.22,11.22,0,0,0-5,.29s.72,1.44,4.32,2.45h.07c2.3.64,3.74.5,4.46.07a1.19,1.19,0,0,0,.72-1,1.05,1.05,0,0,0-.36-.5,11.31,11.31,0,0,0-3.81-1.23C185.11,149.47,185,149.47,184.9,149.4Z"/><path class="cls-4" d="M206.78,160.42a27.48,27.48,0,0,0-6.33.43,33.46,33.46,0,0,0-6.7,2.45,10.14,10.14,0,0,1-1.22,2.52l-.43.64a10.27,10.27,0,0,0,9.28,3.75c6.2-.79,7.78-5,8.07-6.05a2.73,2.73,0,0,1-.43-.5A15.22,15.22,0,0,1,206.78,160.42Z"/><path class="cls-4" d="M214.06,148.75a15.12,15.12,0,0,1-1.59.79,16.37,16.37,0,0,1-4,1.23,12.56,12.56,0,0,0-.79,3.89,16.18,16.18,0,0,0,.36,4.32,16.7,16.7,0,0,1,2.66,2.8,1.39,1.39,0,0,1,.29.44c.29.36.43.64.65.93,1.8.07,5.9-.43,6.77-6.19C219.46,150.48,214.92,149,214.06,148.75Z"/><path class="cls-4" d="M213.34,147.24c.14-.79,1.36-7.06-4.25-9.94-4-2-7.2.08-8.86,1.52a4.31,4.31,0,0,1,.15,1.08,11.49,11.49,0,0,1-.15,4.82,21,21,0,0,0,4,2.52,28.9,28.9,0,0,0,4.32,1.51c.8-.36,1.88-.72,3-1.15A14.76,14.76,0,0,1,213.34,147.24Z"/><path class="cls-3" d="M200.38,139.9a4.31,4.31,0,0,0-.15-1.08c-.43-2.16-1.37-2.45-1.37-2.45s-1,.65-.93,3.6v.43c.21,2.38.57,4,1.08,4.75.21.29.36.43.65.36s.43-.36.57-.79h0A11.49,11.49,0,0,0,200.38,139.9Z"/><path class="cls-3" d="M214.06,148.75a13.51,13.51,0,0,0,2.88-1.8,10.55,10.55,0,0,0-3.6.29,14.76,14.76,0,0,0-1.73.36c-1.15.43-2.23.79-3,1.15s-1.29.94-1.08,1.51c.08.36.44.51,1,.51a16.37,16.37,0,0,0,4-1.23A15.12,15.12,0,0,0,214.06,148.75Z"/><path class="cls-3" d="M210.74,161.78a16.7,16.7,0,0,0-2.66-2.8,3.53,3.53,0,0,0-.79-.51c-.36-.14-.65-.14-.79.07a1.32,1.32,0,0,0-.08.94c.08.29.22.58.36.94a15.22,15.22,0,0,0,2.24,3.24,2.73,2.73,0,0,0,.43.5l.29.29a4.84,4.84,0,0,0,2.8,1.44,6.63,6.63,0,0,0-.86-2.74c-.22-.29-.36-.57-.65-.93A1.39,1.39,0,0,0,210.74,161.78Z"/><path class="cls-5" d="M203.18,152.21c.51,1.87-1.08,4-3.52,4.61s-4.83-.36-5.33-2.31,1.08-4,3.53-4.68S202.68,150.26,203.18,152.21Z"/><path class="cls-3" d="M58.75,163.3c.22-.72.29-1.37-.07-1.73s-.58-.29-1.08-.07a7.37,7.37,0,0,0-2.3,3.31c-.08.29-.15.5-.22.79a14.26,14.26,0,0,0-.72,4,26.12,26.12,0,0,0,2.74-3.1l.43-.64A10.14,10.14,0,0,0,58.75,163.3Z"/><path class="cls-4" d="M49.32,152.14a6.55,6.55,0,0,0-2.52,8.06,8.76,8.76,0,0,0,8.28,5.4c.07-.29.14-.5.22-.79a7.37,7.37,0,0,1,2.3-3.31,28.46,28.46,0,0,0-1-4.68,27.23,27.23,0,0,0-2.81-4.61C53.06,152.64,51.62,152.78,49.32,152.14Z"/><path class="cls-4" d="M64,145.15c-.51-.72-.87-2.37-1.08-4.75V140c-1.3-1.08-6-4.32-10.44-.65a8,8,0,0,0-2.16,10.15,11.31,11.31,0,0,1,3.81,1.23,46.44,46.44,0,0,1,4.4-3.17A23.18,23.18,0,0,1,64,145.15Z"/><path class="cls-3" d="M49.9,149.4a11.22,11.22,0,0,0-5,.29s.72,1.44,4.32,2.45h.07c2.3.64,3.74.5,4.46.07a1.19,1.19,0,0,0,.72-1,1.05,1.05,0,0,0-.36-.5,11.31,11.31,0,0,0-3.81-1.23C50.11,149.47,50,149.47,49.9,149.4Z"/><path class="cls-4" d="M71.86,160.42a27.57,27.57,0,0,0-6.34.43,32.67,32.67,0,0,0-6.77,2.45,10.14,10.14,0,0,1-1.22,2.52l-.43.64a10.34,10.34,0,0,0,9.36,3.75c6.19-.79,7.77-5,8.06-6.05a3.17,3.17,0,0,1-.43-.5A14.77,14.77,0,0,1,71.86,160.42Z"/><path class="cls-4" d="M79.13,148.75a15.12,15.12,0,0,1-1.59.79,16.37,16.37,0,0,1-4,1.23,12.56,12.56,0,0,0-.79,3.89,16.6,16.6,0,0,0,.36,4.32,17.1,17.1,0,0,1,2.67,2.8,1.54,1.54,0,0,1,.28.44c.29.36.44.64.65.93,1.8.07,5.91-.43,6.77-6.19C84.53,150.48,80,149,79.13,148.75Z"/><path class="cls-4" d="M78.41,147.24c.14-.79,1.37-7.06-4.25-9.94-4-2-7.2.08-8.86,1.52a3.89,3.89,0,0,1,.15,1.08,11.33,11.33,0,0,1-.15,4.82,21.21,21.21,0,0,0,4,2.52,28.13,28.13,0,0,0,4.32,1.51c.79-.36,1.87-.72,3-1.15A15.2,15.2,0,0,1,78.41,147.24Z"/><path class="cls-3" d="M65.45,139.9a3.89,3.89,0,0,0-.15-1.08c-.43-2.16-1.44-2.45-1.44-2.45s-1,.65-.93,3.6v.43c.21,2.38.57,4,1.08,4.75.21.29.43.43.72.36s.43-.36.57-.79h0A11.33,11.33,0,0,0,65.45,139.9Z"/><path class="cls-3" d="M79.13,148.75A13.51,13.51,0,0,0,82,147a10.56,10.56,0,0,0-3.6.29,15.2,15.2,0,0,0-1.73.36c-1.15.43-2.23.79-3,1.15s-1.3.94-1.08,1.51c.07.36.43.51,1,.51a16.37,16.37,0,0,0,4-1.23A15.12,15.12,0,0,0,79.13,148.75Z"/><path class="cls-3" d="M75.82,161.78a17.1,17.1,0,0,0-2.67-2.8,3.32,3.32,0,0,0-.79-.51c-.36-.14-.65-.14-.79.07a1.27,1.27,0,0,0-.07.94,6.78,6.78,0,0,0,.36.94,14.77,14.77,0,0,0,2.23,3.24,3.17,3.17,0,0,0,.43.5l.29.29a4.85,4.85,0,0,0,2.81,1.44,6.57,6.57,0,0,0-.87-2.74c-.21-.29-.36-.57-.65-.93A1.54,1.54,0,0,0,75.82,161.78Z"/><path class="cls-5" d="M68.26,152.21c.5,1.87-1.08,4-3.53,4.61s-4.9-.36-5.4-2.31,1.08-4,3.53-4.68S67.75,150.26,68.26,152.21Z"/><path class="cls-3" d="M329,163.3c.22-.72.29-1.37-.07-1.73s-.65-.29-1.08-.07a7,7,0,0,0-2.31,3.31,3.56,3.56,0,0,1-.28.79,14.26,14.26,0,0,0-.72,4,31.88,31.88,0,0,0,2.8-3.1,2.59,2.59,0,0,0,.36-.64A10.37,10.37,0,0,0,329,163.3Z"/><path class="cls-4" d="M319.61,152.14a6.54,6.54,0,0,0-2.52,8.06,8.73,8.73,0,0,0,8.21,5.4,3.56,3.56,0,0,0,.28-.79,7,7,0,0,1,2.31-3.31,28.46,28.46,0,0,0-1-4.68,27.89,27.89,0,0,0-2.81-4.61C323.28,152.64,321.91,152.78,319.61,152.14Z"/><path class="cls-4" d="M334.22,145.15c-.5-.72-.86-2.37-1-4.75V140c-1.37-1.08-6.05-4.32-10.52-.65s-2.88,8.5-2.08,10.15a10.49,10.49,0,0,1,3.74,1.23c1.08-.8,2.81-2.16,4.46-3.17A24.27,24.27,0,0,1,334.22,145.15Z"/><path class="cls-3" d="M320.18,149.4a11.19,11.19,0,0,0-5,.29s.64,1.44,4.32,2.45h.07c2.3.64,3.67.5,4.46.07.51-.29.72-.65.65-1a.73.73,0,0,0-.36-.5,10.49,10.49,0,0,0-3.74-1.23C320.4,149.47,320.18,149.47,320.18,149.4Z"/><path class="cls-4" d="M342.07,160.42a27.14,27.14,0,0,0-6.26.43A31.23,31.23,0,0,0,329,163.3a10.37,10.37,0,0,1-1.3,2.52,2.59,2.59,0,0,1-.36.64,10.25,10.25,0,0,0,9.36,3.75c6.2-.79,7.71-5,8-6.05a3.2,3.2,0,0,1-.44-.5A23.8,23.8,0,0,1,342.07,160.42Z"/><path class="cls-4" d="M349.34,148.75a7.71,7.71,0,0,1-1.58.79,16,16,0,0,1-3.89,1.23,14.69,14.69,0,0,0-.86,3.89,19.44,19.44,0,0,0,.43,4.32,16.7,16.7,0,0,1,2.66,2.8,1.39,1.39,0,0,1,.29.44c.22.36.43.64.58.93,1.87.07,5.9-.43,6.77-6.19C354.74,150.48,350.28,149,349.34,148.75Z"/><path class="cls-4" d="M348.7,147.24c.14-.79,1.29-7.06-4.25-9.94-4-2-7.27.08-8.86,1.52.07.28.07.64.15,1.08a14.47,14.47,0,0,1-.15,4.82,21,21,0,0,0,4,2.52,26.4,26.4,0,0,0,4.32,1.51c.8-.36,1.88-.72,3-1.15A12.28,12.28,0,0,1,348.7,147.24Z"/><path class="cls-3" d="M335.74,139.9a6.84,6.84,0,0,1-.15-1.08c-.5-2.16-1.51-2.45-1.51-2.45s-1,.65-.86,3.6v.43c.14,2.38.5,4,1,4.75.22.29.44.43.72.36s.44-.36.58-.79h.07A14.47,14.47,0,0,0,335.74,139.9Z"/><path class="cls-3" d="M349.34,148.75a15.34,15.34,0,0,0,3-1.8,10.55,10.55,0,0,0-3.6.29,12.28,12.28,0,0,0-1.73.36c-1.15.43-2.23.79-3,1.15s-1.29.94-1.15,1.51c.15.36.51.51,1.08.51a16,16,0,0,0,3.89-1.23A7.71,7.71,0,0,0,349.34,148.75Z"/><path class="cls-3" d="M346.1,161.78a16.7,16.7,0,0,0-2.66-2.8,3.53,3.53,0,0,0-.79-.51c-.36-.14-.65-.14-.79.07a.86.86,0,0,0-.08.94,8.76,8.76,0,0,0,.29.94,23.8,23.8,0,0,0,2.23,3.24,3.2,3.2,0,0,0,.44.5c.14.07.21.22.36.29a4.77,4.77,0,0,0,2.73,1.44,5.5,5.5,0,0,0-.86-2.74c-.15-.29-.36-.57-.58-.93A1.39,1.39,0,0,0,346.1,161.78Z"/><path class="cls-5" d="M338.54,152.21c.51,1.87-1.08,4-3.6,4.61s-4.89-.36-5.4-2.31,1.16-4,3.6-4.68S338,150.26,338.54,152.21Z"/><path class="cls-3" d="M193.75,514.87c.22-.72.29-1.37-.07-1.73s-.58-.28-1.08,0a6.81,6.81,0,0,0-2.3,3.24c-.08.29-.15.51-.22.8a14.54,14.54,0,0,0-.72,4A29.77,29.77,0,0,0,192.1,518a3.49,3.49,0,0,1,.43-.58A11.76,11.76,0,0,0,193.75,514.87Z"/><path class="cls-4" d="M184.32,503.71c-1.22.94-4.32,3.67-2.52,8.14a8.66,8.66,0,0,0,8.28,5.33c.07-.29.14-.51.22-.8a6.81,6.81,0,0,1,2.3-3.24,28.92,28.92,0,0,0-1-4.68,25.75,25.75,0,0,0-2.81-4.68C188.06,504.22,186.62,504.36,184.32,503.71Z"/><path class="cls-4" d="M199,496.73c-.51-.72-.87-2.31-1.08-4.68v-.51c-1.3-1.08-6-4.32-10.44-.64a8.11,8.11,0,0,0-2.16,10.22,10.9,10.9,0,0,1,3.81,1.15,48.3,48.3,0,0,1,4.4-3.17A26.41,26.41,0,0,1,199,496.73Z"/><path class="cls-3" d="M184.9,501.05a11.22,11.22,0,0,0-5,.29s.72,1.36,4.32,2.37h.07c2.3.65,3.74.51,4.46.07a1.17,1.17,0,0,0,.72-.93,1,1,0,0,0-.36-.58,10.9,10.9,0,0,0-3.81-1.15A1.31,1.31,0,0,0,184.9,501.05Z"/><path class="cls-4" d="M206.78,512a28.05,28.05,0,0,0-6.33.43,39.25,39.25,0,0,0-6.7,2.45,11.76,11.76,0,0,1-1.22,2.59,3.49,3.49,0,0,0-.43.58,10.11,10.11,0,0,0,9.28,3.74c6.2-.72,7.78-5,8.07-6a2.81,2.81,0,0,1-.43-.51A13.27,13.27,0,0,1,206.78,512Z"/><path class="cls-4" d="M214.06,500.33a15.12,15.12,0,0,1-1.59.79,16.25,16.25,0,0,1-4,1.22,12.69,12.69,0,0,0-.79,3.89,15.88,15.88,0,0,0,.36,4.32,15.24,15.24,0,0,1,2.66,2.88,1.27,1.27,0,0,1,.29.36,8.18,8.18,0,0,1,.65,1c1.8.07,5.9-.43,6.77-6.26C219.46,502.13,214.92,500.62,214.06,500.33Z"/><path class="cls-4" d="M213.34,498.82c.14-.8,1.36-7.06-4.25-9.94-4-2-7.2.07-8.86,1.51a5,5,0,0,1,.15,1.08,11.53,11.53,0,0,1-.15,4.83,21.56,21.56,0,0,0,4,2.52,31.79,31.79,0,0,0,4.32,1.58,18.41,18.41,0,0,1,3-1.15A7.18,7.18,0,0,1,213.34,498.82Z"/><path class="cls-3" d="M200.38,491.47a5,5,0,0,0-.15-1.08c-.43-2.09-1.37-2.45-1.37-2.45s-1,.65-.93,3.6v.51c.21,2.37.57,4,1.08,4.68.21.29.36.43.65.36s.43-.36.57-.72v-.07A11.53,11.53,0,0,0,200.38,491.47Z"/><path class="cls-3" d="M214.06,500.33a11,11,0,0,0,2.88-1.8,10.27,10.27,0,0,0-3.6.29,7.18,7.18,0,0,0-1.73.43,18.41,18.41,0,0,0-3,1.15c-.79.43-1.29.86-1.08,1.44s.44.5,1,.5a16.25,16.25,0,0,0,4-1.22A15.12,15.12,0,0,0,214.06,500.33Z"/><path class="cls-3" d="M210.74,513.43a15.24,15.24,0,0,0-2.66-2.88,3.82,3.82,0,0,0-.79-.5.72.72,0,0,0-.79.07,1.47,1.47,0,0,0-.08,1c.08.21.22.57.36.86a13.27,13.27,0,0,0,2.24,3.24,2.81,2.81,0,0,0,.43.51,1,1,0,0,0,.29.28,4.84,4.84,0,0,0,2.8,1.44,6.17,6.17,0,0,0-.86-2.66,8.18,8.18,0,0,0-.65-1A1.27,1.27,0,0,0,210.74,513.43Z"/><path class="cls-5" d="M203.18,503.78c.51,2-1.08,4-3.52,4.68s-4.83-.43-5.33-2.37,1.08-4,3.53-4.68S202.68,501.84,203.18,503.78Z"/><path class="cls-2" d="M313.7,425.81S319,418.39,300.53,411c-13.68-5.55-32.47-4.4-44.43-6.05-10.08-1.37-11.16-3.67-10.58-6.12,1.15-5.62,10.51-1.95,16.42,1.22,6.33,3.39,17.56,4.47,25.84-3.17a18.1,18.1,0,0,1,7.06-3.67s-4.9-3.09-8.86-.36a10.75,10.75,0,0,1-6.33,2.59c-5.83.44-6.91-1.44-6.91-1.44s2.95,2,10.29-1.8c9.58-4.89,3.82-15.55,3.82-15.55a6.8,6.8,0,0,1-3.39,6.48,9.36,9.36,0,0,1-10.36.29,7.49,7.49,0,0,0,5.54-.14c4.18-1.59,5.54-3.82,4.18-6.63a11.12,11.12,0,0,0-2.6-2.66s4.54,6-13.53,4.75c-9.22-.65-12.39,8.64-12.39,8.64s-4.24-1.08-7.2-.07a10.26,10.26,0,0,0-.72-5.26c-1,4.75-4.6,7.85-6.33,9.87s-5.33,7.34-.72,13.68c4.53,5.25,12.74,6,18,6.4,7.7.58,20.52,1.3,31.82,2.88,15.27,2.09,12.6,9.44,10.73,11.67s-5.54,2.52-16.2-1.23-21.67-10.36-43.85-9.5c-30.6,1.22-52.34,23.62-63.5,22.39a17.35,17.35,0,0,1,.36,4.47c-1,7.77-8.07,11.95-8.07,11.95s-.36-1.59-1-1.51,0,1.72-2.52,3.6-3.68,3.74-4.54,7.41c0,0-1.22-2.52-2-.29-.93,2.81-2.44,3-3.24,3.24,0,0-.07-1.36-.72-1.36-.93,0-1.36,6.19-12,5.18l-.79.22c-7.85,1.29-9.22-6.41-12-9.08-1.8-1.8-4,1.44-4,1.44a6.71,6.71,0,0,1-1.36-4.68c.21-3.09.79-4.17-.44-6.33-1-1.66-5-5.11-3.52-11-1.88-.07-5.62-1.37-7.13-12.38-.07-.72,1.29.21,1.29.21-.21-1.72-1.72-2.37-2-4.24-.43-2.81-.72-8.36.79-10.23,2.38-3,8.86-4,5.76-9.72a4.73,4.73,0,0,1-1,1.59,2,2,0,0,1-1.51.64,1.92,1.92,0,0,1-1.94-2.08,2.84,2.84,0,0,1,1.08-1.88c0-.07.07-.07.07-.14a6.06,6.06,0,0,0-2.81.58c.14-1.23,2.3-7.92-3.38-9.36a4.52,4.52,0,0,1-.36,2.59,2,2,0,0,1-1.23,1.15,2,2,0,0,1-2.59-1.3,3,3,0,0,1,.43-2.16,3.49,3.49,0,0,0,.29-.86c-5.47.65-4.32,7.78-4.32,8.86-.07-1.59-3.46-6.12-6.55-4.11,0,.07-.15.15-.36.29A7.86,7.86,0,0,1,96.05,400a2.19,2.19,0,0,1,.29,1.66,2,2,0,0,1-2.45,1.51c-.72-.15-1.15-.72-1.59-1.44l-.14-.15c-1.15,1.44-1,4.11,2.09,6.41,4.46,3.39,6,17.28,5.33,19.08-.94,2.45-3.39-1.08-3.39-1.08a10,10,0,0,0,1.87,6.48c4,5.76,5.19,8.28,2.24,7.27a5.82,5.82,0,0,1-1.88-1.15s.15,2.88,3.82,5.83c1.44,1.23,1.22,1.88.22,1.73a4.51,4.51,0,0,1-2.16-.93,22.45,22.45,0,0,0,2.88,5.11,24.14,24.14,0,0,0,5.9,5.9s-3.46-.29-8.5-3.24c-7.56-4.32-4.39-7.41-6.62-12.6-2.16-5-3.6-5.83-5.83-6.12-.07,0-.15.07-.22.07a2.74,2.74,0,0,1,.36,1,2.34,2.34,0,0,1-.43,1.66,2.14,2.14,0,0,1-2.88.29,2.82,2.82,0,0,1-.79-2h0a3.82,3.82,0,0,0-1.87,4.39c-1.44-1.58-4.18-3.81-6.12-4.17a6.29,6.29,0,0,0-3.82.79.24.24,0,0,0-.14.07,1.27,1.27,0,0,1,.36.29,2.06,2.06,0,0,1,.79,1.44,2,2,0,0,1-2,2.16,3.25,3.25,0,0,1-1.94-.94.56.56,0,0,0-.29-.14c-1.29,2.3-.93,6.84,6.84,9.36,0,0-3.67.57-4.89,3.31a5.2,5.2,0,0,1,2.59.36,2.18,2.18,0,0,1,1.08,1.3,2,2,0,0,1-1.3,2.52,3.07,3.07,0,0,1-2.16-.44,2.86,2.86,0,0,0-.36-.07c.94,3.89,4.11,4.47,6.77,4.47a42.15,42.15,0,0,1,20.59,5.4,6.15,6.15,0,0,0-3.89,1.94c-1.44,1.87-1.08,3-1.08,3a8.19,8.19,0,0,1,3.89-1.44c3.1-.5,3.67.58,3.67.58a4.73,4.73,0,0,0-2.73,6.33,11.86,11.86,0,0,1,4.61-2.95c2.3-.79,5-.65,6,.87,1.44,2.08-4.75,4.17-4.75,4.17,4.32,2.59,13.75,1.3,13.75,1.3s-6.55,1.22-6.55,5.54c0,0,4.11-3.17,12.17,0,12.24,4.68,27.22,7,46.8-.93,24.7-10,25.34-31.4,59.62-42.7,1.15,1.66,8.85,8.86,18.5,12.46,7.78,2.88,18.79,4.82,22.1,5.68,4.9,1.16,13.47,3,8.28,12.32-2.44,4.32-4.68,5.61-6.76,7.27-.36-.15-2.88-.87-6.56-2.16-2.16-.79-3.74-.29-4.39,1.15a3.64,3.64,0,0,1,1.59.29,1.82,1.82,0,0,1-.08,3.45,2.43,2.43,0,0,1-1.94-.36h-.14A3.07,3.07,0,0,0,263,484s-2.52.94-2.52,3.39a2.86,2.86,0,0,1,1.29-.36,1.74,1.74,0,0,1,1.44.43,1.84,1.84,0,0,1,.15,2.59,2.56,2.56,0,0,1-1.88.65c.08,0,.15.07.22.14,1.51,1.88,5.9.44,5.9.44s-1,2.3.36,3.88a3.76,3.76,0,0,1,.94-1.72,1.79,1.79,0,0,1,3.17,1.15c0,.72-.43,1.15-.94,1.73-.07.14-.14.21-.21.36.28,0,.5.07.79.07,2.09-.36,5.11-2.31,6.55-6.84,1.73-5.33,3.38-6.41,3.38-6.41s4.47-4.25,2.81,3.24c4.39-1.15,3.82-6,3.82-6s3.53,1.59,4.61.8c1.51-1.16.07-4.68,1.72-7.13,1.95-2.74,3,.43,2.31,2.66a4.45,4.45,0,0,0,2.81-4.32c.14-2.23-.72-4.89,1.36-6.84,1.59-1.37,2,.58,1.52,2.45,0,0,2.16.07,2.44-3.6.22-2.23-.28-2.88.36-3.17.8-.36,1.37,1.8,1.37,1.8s1.87-4.17-1.94-6.69c-6.48-4.25-22.9-1.37-32.69-16.78-3.53-5.62-.94-8.28-.94-8.28s17.5,8.21,26.93,6.91c11.38-1.65,11.38-7.77,11.38-7.77s1.87.36.29,4c0,0,2-.43,2.88-3.24a9,9,0,0,0-1.8-8.86C313.63,422.42,313.7,425.81,313.7,425.81Z"/><path class="cls-4" d="M73.51,456a2,2,0,0,0,1.3-2.52,2.18,2.18,0,0,0-1.08-1.3,5.2,5.2,0,0,0-2.59-.36h-.36c-3.53.43-4.47,3-5,4.46a5.42,5.42,0,0,1,5.18-.79,2.86,2.86,0,0,1,.36.07A3.07,3.07,0,0,0,73.51,456Z"/><path class="cls-4" d="M71.42,440.21a2,2,0,0,0,2-2.16,2.06,2.06,0,0,0-.79-1.44,1.27,1.27,0,0,0-.36-.29,7.25,7.25,0,0,0-2.38-.86c-3.53-.36-5.11,1.87-6,3.09a5.51,5.51,0,0,1,5.33.58.56.56,0,0,1,.29.14A3.25,3.25,0,0,0,71.42,440.21Z"/><path class="cls-4" d="M85,437.26a2.14,2.14,0,0,0,2.88-.29,2.34,2.34,0,0,0,.43-1.66,2.74,2.74,0,0,0-.36-1,7.28,7.28,0,0,0-.93-1.65c-2.31-2.67-5-2.09-6.48-1.73a5.7,5.7,0,0,1,3.67,4.32h0A2.82,2.82,0,0,0,85,437.26Z"/><path class="cls-4" d="M114.7,405.22a1.92,1.92,0,0,0,1.94,2.08,2,2,0,0,0,1.51-.64,4.73,4.73,0,0,0,1-1.59,9,9,0,0,0,.36-1c.72-3.52-1.44-5.25-2.52-6.19a5.46,5.46,0,0,1-1.15,5.33c0,.07-.07.07-.07.14A2.84,2.84,0,0,0,114.7,405.22Z"/><path class="cls-4" d="M105.48,396.86a2,2,0,0,0,2.59,1.3A2,2,0,0,0,109.3,397a4.52,4.52,0,0,0,.36-2.59v-.29c-.44-3.53-3-4.47-4.47-5a5.71,5.71,0,0,1,1,4.75,3.49,3.49,0,0,1-.29.86A3,3,0,0,0,105.48,396.86Z"/><path class="cls-4" d="M93.89,403.13a2,2,0,0,0,2.45-1.51,2.19,2.19,0,0,0-.29-1.66A7.86,7.86,0,0,0,95,398.88a7.75,7.75,0,0,0-1.3-.72c-3.24-1.44-5.4.36-6.55,1.22a5.62,5.62,0,0,1,5,2.16l.14.15C92.74,402.41,93.17,403,93.89,403.13Z"/><path class="cls-4" d="M262.58,481.46a1.82,1.82,0,0,0,.08-3.45,3.64,3.64,0,0,0-1.59-.29,5.6,5.6,0,0,0-1.08.07,5.34,5.34,0,0,0-4.32,4.11,4.94,4.94,0,0,1,4.83-.8h.14A2.43,2.43,0,0,0,262.58,481.46Z"/><path class="cls-4" d="M263.23,487.44a1.74,1.74,0,0,0-1.44-.43,2.86,2.86,0,0,0-1.29.36,3.5,3.5,0,0,0-1.16.65c-2.52,1.87-2.08,4.39-1.87,5.68a5.06,5.06,0,0,1,4-3h0a2.56,2.56,0,0,0,1.88-.65A1.84,1.84,0,0,0,263.23,487.44Z"/><path class="cls-4" d="M272.09,494.57a1.79,1.79,0,0,0-3.17-1.15,3.76,3.76,0,0,0-.94,1.72c-.07.22-.14.51-.21.72-.51,3.1,1.44,4.61,2.52,5.48a5.05,5.05,0,0,1,.65-4.68c.07-.15.14-.22.21-.36C271.66,495.72,272.09,495.29,272.09,494.57Z"/><path class="cls-2" d="M263.66,460.94c-19.87-3.81-24-6.26-32.11-14-.79.36-4,6,4.47,14a19.14,19.14,0,0,0,6.62,4.18,53.51,53.51,0,0,0-13.39-.36c-3.46-1-6.05-5.47-10.73-7.27a4.82,4.82,0,0,0-3.89-.07,3.48,3.48,0,0,1,1.37.93,1.78,1.78,0,0,1-1.3,3.1,2.74,2.74,0,0,1-1.72-.94,2,2,0,0,0-.44-.36,4.89,4.89,0,0,0,1.73,4.32,4.44,4.44,0,0,0-4.75,3.53,5.06,5.06,0,0,1,2-.43,2,2,0,0,1,1.29.65,1.83,1.83,0,0,1-.21,2.59,2.51,2.51,0,0,1-2,.36,4.18,4.18,0,0,0-.93.14.56.56,0,0,0,.14.29c1.44,4.39,8.21,1.15,8.21,1.15s-3.46,2.52-1.59,5.47a3.39,3.39,0,0,1,.8-1.15,1.57,1.57,0,0,1,1.36-.65,1.79,1.79,0,0,1,1.8,1.8,2.77,2.77,0,0,1-.93,1.73,5.15,5.15,0,0,1-.43.58c4.75,1.87,8.49-5.26,8.49-5.55-.14,5.19,4,6.41,4,6.41a3.55,3.55,0,0,1,1.51-3.67c2.38-1.66,6-1.22,6.34-1.22-.65,2.59.29,3.81,1.73,4.24.36-5.47,10.58-5.68,10.58-5.68a4.78,4.78,0,0,0,2.95,2.88,6.31,6.31,0,0,1,2.09-4.68c2.23-1.66,5.91-1.8,9.79-4C271.15,466.78,270.22,461.81,263.66,460.94Z"/><path class="cls-4" d="M220.46,478.22a1.79,1.79,0,0,0-1.8-1.8,1.57,1.57,0,0,0-1.36.65,3.39,3.39,0,0,0-.8,1.15c-.14.44-.28.87-.36,1.23a5.29,5.29,0,0,0,2.52,5.47,5,5,0,0,1,.44-4.39,5.15,5.15,0,0,0,.43-.58A2.77,2.77,0,0,0,220.46,478.22Z"/><path class="cls-4" d="M212.62,470.81a1.83,1.83,0,0,0,.21-2.59,2,2,0,0,0-1.29-.65,5.06,5.06,0,0,0-2,.43,2,2,0,0,0-.58.29,5.27,5.27,0,0,0-2.66,5.4,5,5,0,0,1,3.46-2.38,4.18,4.18,0,0,1,.93-.14A2.51,2.51,0,0,0,212.62,470.81Z"/><path class="cls-4" d="M214.7,461.45a1.78,1.78,0,0,0,1.3-3.1,3.48,3.48,0,0,0-1.37-.93,4.8,4.8,0,0,0-1-.29c-3.09-.72-4.68,1.22-5.54,2.23a4.92,4.92,0,0,1,4.46.79,2,2,0,0,1,.44.36A2.74,2.74,0,0,0,214.7,461.45Z"/><path class="cls-2" d="M177.91,422.28c.79-7.13-4.17-6.62-4.17-6.62a7.68,7.68,0,0,0,2.66-4c1.15-4.47-1.44-10.23-1.44-10.23s-2.66,4.83-5.9,1.37c0,0,1.8-1.87,1.44-6.26-.29,1.15-8.14,7.2-12-.87v30l.08-.07a2.32,2.32,0,0,0,2.16-2.45,1.72,1.72,0,0,0-.36-1h4.17l.29-.08-.14.29h0l-.08.29c-.14.43-1.8,4-5.32,4.39h-.8V458.5c.65.14,1.3,1.51,1.3,1.51a8.66,8.66,0,0,1,3.82-5.76c2.8-1.73,2-6.63,3.6-7.78,1.8-1.29,2.23,3.89,2.23,3.89a12.47,12.47,0,0,0,3.89-12.67c-.94-3.53-1.95-6.55-.8-6.84s.87,3.17,3.24,4.53c1.66,1,4.25-.36,4.25-.36C177,431.57,177.48,425.81,177.91,422.28Zm-19.37-26.57a18.25,18.25,0,0,1-1.15-3.89c-5.69,1.3-5.18,6.77-8.71,6.34-1.87-.22-3.67-1.66-2.3-5.26a6.38,6.38,0,0,0-5.62,4.47v25a2.27,2.27,0,0,0,2.45-1.22,2,2,0,0,0,.21-1.44h0a4,4,0,0,1,2.38,4.1,16.56,16.56,0,0,1-1.73,5.26s-1.22-.58-.57-2.67c.72-2.59.36-2.66.36-2.66a8.5,8.5,0,0,1-3.1.07v14.33c1.87.58,4.46.79,5.18-2,.29-1-.5-1.58-1.15-2.08a5.88,5.88,0,0,1-1.29-.94,1.8,1.8,0,0,1-.15-2,6.76,6.76,0,0,0,4,2.31,8.22,8.22,0,0,0,5-.72,1.59,1.59,0,0,1-1.51,2.16c-1.15.14-2.88.21-3.1,1.65-.64,4.76,6.27,3.75,8.28,3.39,1.66-.29,2.45-.51,2.45-.51-1.37,2-3.89,2.38-6.41,4.54h0c-2.8,2.45-2.3,6.05-2.88,8.5a5.3,5.3,0,0,1-6.55,3.88,7.69,7.69,0,0,1-1.87-.5v9.43a.55.55,0,0,1,.5-.29c1.16,0,1.59,3.1,1.59,3.1,1.58.22,6.05.86,8.49-2.23,1.44-1.87,1.8-4.54,3.32-4.47,1.22.08,1.29,2.31,1.29,2.31,1.08-.65,1.3-1.23,1.73-3.75.22-1.15.58-1.44.86-1.36V427a8,8,0,0,1-4-1.37s-.36-.07-.64,2.6c-.22,2.23-1.59,2.23-1.59,2.23a15.41,15.41,0,0,1,.43-5.55,4,4,0,0,1,3.75-2.88h0a2.54,2.54,0,0,0-.36,1.44,2.35,2.35,0,0,0,2.37,2.16Zm-17.78,1.66c-.07.36-.14.72-.22,1.15-.93,6.55-4.17-2.23-8.49-1.94-.07.07-3.24,3.52-3.1,10.87-4,.14-5.69,3.24-6.12,8.13-1.08,14-4.75,9.44-4.75,9.72,1.3,8.57,6.12,4,6.12,4-.86,6.05-6.26,2.74-6.26,2.74,1.58,9.22,5.4,6.19,5.4,6.19-1.73,7.63,1.15,9.65,2.23,11.16,1.29,1.87,1.94,2.59,1.44,5.91a13.61,13.61,0,0,0-.22,4s2.31-2.31,4-.58c2.52,2.66,4,10.87,9.94,9.86,0,0-.51-2.52.07-3.31v-9.43a5.18,5.18,0,0,1-3.46-4.25c-.21-3.17,5-7.34,1.66-11.3-2.66-3.24-2.52-4.75-2.52-4.75A7.53,7.53,0,0,0,139,437.4a12,12,0,0,0,1.8.72V423.79a6.88,6.88,0,0,1-1.58-.5l-.22-.15c-3.1-1.72-3.24-5.61-3.24-6h0v-.65l.29.14,3.81,1.66a2,2,0,0,0-.72.79,2.31,2.31,0,0,0,1,3.1l.65.21Z"/><path class="cls-4" d="M142.06,454.54c5.9,1.58,6-4.61,6-5.76.44-6.27,4.76-6.77,5.48-7.42-2,.36-6.12.22-7.35-2.09a7.48,7.48,0,0,1-6.48-.07,7.75,7.75,0,0,1,1.51,2.59c.58,1.51.08,3.39-.5,4.83S136.66,453.17,142.06,454.54Z"/><path class="cls-2" d="M298.22,350c-47.73-1.58-59.76-15.19-59.76-15.19s-5.47,9.07,16.42,18.65c0,0-7.42-1.23-11.52-1.37a46.52,46.52,0,0,0-10.08.72s-5.47-5-9.36-6.48c-1.22-.43-3.31-1-5.11.07a5.33,5.33,0,0,1,1.51.87,2,2,0,0,1,.65,1.51,2,2,0,0,1-1.95,2,2.88,2.88,0,0,1-1.94-1,4.14,4.14,0,0,0-.65-.51,4.31,4.31,0,0,0,1.95,5.19c-5.55,1.15-7.13,2.59-7.2,5.4a4.08,4.08,0,0,1,1.8-.44,1.78,1.78,0,0,1,1.51.58,2,2,0,0,1,0,2.81,2.82,2.82,0,0,1-2.09.57c-.14,0-.29.08-.43.08,1.15,2,3.67,3,7.13,1.87,1.58-.58,2-.79,2-.79s-3,3.45-1.73,6.69a4.23,4.23,0,0,1,1.08-1.15,2.09,2.09,0,0,1,1.59-.43,2,2,0,0,1,1.58,2.37,2.87,2.87,0,0,1-1.29,1.66,3,3,0,0,0-.44.36,5.76,5.76,0,0,0,1.37.5c3.1.87,5.62-1.65,7.71-4.24,4.17-5,8.28-3.53,8.28-3.53-2.81,2.81-.15,6.19-.15,6.19s2.31-5.4,6-3.89c-.72,3.24,2.52,5.11,2.52,5.11s2-5.25,4.54-5.25c3.38,0,1.65,5.11,1.65,5.11s1.87-.29,4.75-3.17c1.88-1.87,3.46-4,7.42-3.67a6.8,6.8,0,0,0,3.89,5.9c-.07-12.6,17.71-14.32,20.66-14.9C299.16,356.54,298.22,350,298.22,350Z"/><path class="cls-4" d="M219,350.78a2,2,0,0,0,1.95-2,2,2,0,0,0-.65-1.51,5.33,5.33,0,0,0-1.51-.87,7.26,7.26,0,0,0-1.15-.36,5.84,5.84,0,0,0-6,2.74,5.58,5.58,0,0,1,4.82.5,4.14,4.14,0,0,1,.65.51A2.88,2.88,0,0,0,219,350.78Z"/><path class="cls-4" d="M214.49,362.81a2,2,0,0,0,0-2.81,1.78,1.78,0,0,0-1.51-.58,4.08,4.08,0,0,0-1.8.44,3.67,3.67,0,0,0-.94.5c-2.88,1.94-2.59,4.68-2.45,6.12a5.6,5.6,0,0,1,4.18-3c.14,0,.29-.08.43-.08A2.82,2.82,0,0,0,214.49,362.81Z"/><path class="cls-4" d="M223.63,372a2,2,0,0,0-1.58-2.37,2.09,2.09,0,0,0-1.59.43,4.23,4.23,0,0,0-1.08,1.15,4,4,0,0,0-.64,1.23,5.75,5.75,0,0,0,1.58,6.4A5.59,5.59,0,0,1,221.9,374a3,3,0,0,1,.44-.36A2.87,2.87,0,0,0,223.63,372Z"/><path class="cls-4" d="M132.26,333.65c6.56,2.3,7.28-4.68,7.49-6,1-7.13,5.91-7.27,6.84-8-2.3.22-6.91-.29-8.21-3.1A8.49,8.49,0,0,1,131,316a8.37,8.37,0,0,1,1.51,3c.51,1.8-.21,3.82-1.08,5.47S126.29,331.56,132.26,333.65Z"/><path class="cls-2" d="M176.54,290.81a11.28,11.28,0,0,0,.8-4.54v-.86a38.7,38.7,0,0,0-1.23-8.28s-4,6.33-7.34,2.95c-3.17-3.17.21-8.14.21-8.14-3.88-1.29-7,4-11.88,1.37-3.31-1.8.58-7.85.58-7.85a26.9,26.9,0,0,0-4,.36v36.44h.07a2.63,2.63,0,0,0,2.67-2.67,3.48,3.48,0,0,0-.29-1.15l4.75.36h.29l-.15.29h0l-.14.36c-.22.43-2.38,4.32-6.48,4.46h-.72v33.55a19,19,0,0,0,.94-1.72c2.08-3.82,5.61-6.05,6.84.14,7.34-7.92,4.82-16.56,4.82-19.58,0-2.67,1.3-3,1.44-1.73.72,7.27,8.42,4.82,8.42,4.82s-3.09-3.17.08-14.4c1.58-5.61-1.52-11.09-1.52-11.09A26,26,0,0,0,176.54,290.81Zm-22.82-25a13.28,13.28,0,0,0-3.82,1.23c-.21.07-.43.21-.64.29v31.24a5.18,5.18,0,0,1,2.44-.57v.07a2.78,2.78,0,0,0-.5,1.51,2.64,2.64,0,0,0,2.52,2.67V265.82Zm-4.46,78.27V320a8,8,0,0,0,3.09-2.16,18,18,0,0,1-2.81.36h-.28V302a10,10,0,0,0,4.46,1.87v33.55A46.66,46.66,0,0,1,149.26,344.09Zm0-76.75c-2.88,1.51-4.32,2.66-6.48,2.59-3.24-.07-2.09-5.33-2.09-5.33a7.28,7.28,0,0,0-6.05,3.82L134,269.5v27.43a2.62,2.62,0,0,0,2.74-1.23,2.49,2.49,0,0,0,.29-1.58h.07a4.64,4.64,0,0,1,2.3,4.9,19.49,19.49,0,0,1-2.52,5.83s-1.37-.79-.43-3.1c1.15-2.95.72-2.95.72-2.95a11.68,11.68,0,0,1-3.17-.22v16.71c1.73.36,3.6.07,4.39-2.23.44-1.16-.43-1.95-1.15-2.52a6.3,6.3,0,0,1-1.29-1.16,2.08,2.08,0,0,1,0-2.37,7.91,7.91,0,0,0,4.39,3.09,10.12,10.12,0,0,0,5.69-.43,1.86,1.86,0,0,1-2,2.31c-1.29.07-3.31,0-3.67,1.58-1.15,5.18,6.19,4.9,8.86,4.68V302l-.08-.07s-.43-.22-1,2.88c-.44,2.45-2,2.37-2,2.37a18.52,18.52,0,0,1,1-6.26,5.38,5.38,0,0,1,2.09-2.38V267.34ZM134,352.51c1.51-.65,4.54-2.23,8.71-6.55,4.4-4.75,2.45,1.37,2.45,1.37s1.37.07,4.11-3.24V320a23.13,23.13,0,0,0-4.61,2.38h0c-3.39,2.52-3.17,6.62-4.11,9.43a5.83,5.83,0,0,1-6.55,4Zm0-83a10.66,10.66,0,0,1-4,3.74c-1.08-1.66-3.31-1.66-5-2.16a10.54,10.54,0,0,1-3.24-1.44s-3.53,6.84-1.94,12.46c-2.67.72-3.39,3.6-3.82,5.11-3.1,11.16-7.7,6.19-7.63,6.48.86,9.93,6.55,9.65,6,11.95-.65,3.1-6-1.15-6-1.15.14,7,3.31,7.41,4.54,11.52,1.15,3.67-1.16,6.05.72,11.59s.5,7.85.5,7.85a9,9,0,0,0,6.34-2.74c-.72,7.35,2.73,10.73,2.73,10.73s2.16-4.46,3-1.44c2.44,7.92,6.48,10.8,6.48,10.8a4.59,4.59,0,0,0,1.29-.29V335.88a3.5,3.5,0,0,1-1.22-.22c-3-.72-5.62-2.73-5.55-5.9,0-3.6,6.34-7.85,2.88-12.67-2.8-4-2.52-5.69-2.52-5.69a9.52,9.52,0,0,0,2.74,2.45,11.5,11.5,0,0,0,3.67,1.44V298.58a5.68,5.68,0,0,1-2.09-.79l-.21-.14c-3.46-2.23-3.24-6.7-3.17-7.2h0v-.36l.07-.36.29.21,4.18,2.16a2.62,2.62,0,0,0,0,4.47,2.11,2.11,0,0,0,.93.36Z"/><path class="cls-2" d="M354.74,344.74s.44-6.77-4.46-8.5c-6.48-2.38-14.83.65-31.46-.86C278.57,331.56,283.54,317,283.54,317s25.34,11.23,36,6c6-2.88,5.54-8,5.54-8,1.66,1.94-.14,5.76-.14,5.76s10.36-7.63-1.95-19.51c-4.46-4.32-12.67-7.49-18.86-8.28-17.71-2.31-24.48-1.37-36.94-3.1-10.51-1.44-12.81-5.11-12.31-8,1.58-8.64,21.1,3.53,31.82-1.08,2.88-1.3,5.19-3.31,7.71-3.89a11.69,11.69,0,0,1,5.18.22s-2.52-4.61-10.8-2.81c-6.84,1.44-7.34-.86-7.34-.86a13.56,13.56,0,0,0,7.34-2.16c2.67-1.52,3.39-4.9,6.27-6.12a9.91,9.91,0,0,1,7.12-.15s-4.6-7.85-13.6-3.24c-6.05,4-8.28,1.08-8.28,1.08a8.75,8.75,0,0,0,7.34-5.25c2.23-4.47,5.18-5.19,5.18-5.19a7.68,7.68,0,0,0-8.49,1.59c-2.52,2.44-6.12,3.16-12.39,3.09-8-.14-11.16,9.29-11.16,9.29A17.72,17.72,0,0,0,255,268a27.36,27.36,0,0,0-5.11,3.89l1-3.09s-5.91,3-6,12c-.29,15.12,16.27,16.42,21.67,16.85,8.07.57,23.4,1,35.21,2.59,15.91,2.23,16.34,9.58,14.26,13-2.31,3.82-8.93,1.87-19.95-2s-20.45-10.29-42.84-9.57c-35.35,1.08-72.65,26.35-83.52,19.87.58,4.1-.43,12.53-9.72,20.09-.29-6.34-2.23-5.47-4.39-1.66-5.9,10.66-12.1,11.67-12.1,11.67s1.16-3.6-2.8-.08a17.94,17.94,0,0,1-8.64,4.11s-5.62-4.11-7-10.44c-.14-.79-1.15,2-1.15,2-4.68-2.3-5.76-9.79-5.76-9.79s-2.3,1.51-7.42.65c0,0,2.88-3.17-.43-11.45-6.48,0-32.11-4.53-35.28-17.71-1.22-5-2.66-7.34-5.76-7.56.22.36.43.65.65,1a2,2,0,0,1,.07,1.73,2.16,2.16,0,0,1-2.73,1.29c-.72-.29-1.08-.93-1.52-1.8-.14-.21-.36-.5-.5-.72-2.52,2-1.73,6.12-1.73,6.12-2.88-2.45-8.78-6.41-12.31-4a5.8,5.8,0,0,1,1.73,1,2.25,2.25,0,0,1,.72,1.73,2.28,2.28,0,0,1-2.31,2.3,3.39,3.39,0,0,1-2.16-1.15,4.91,4.91,0,0,0-1-.72c-3,5,6.91,10.37,6.91,10.37-3.75-.22-9.15,2.73-9,6.12a6.47,6.47,0,0,1,1.65-.51,2,2,0,0,1,1.66.51,2.09,2.09,0,0,1,.22,3,2.93,2.93,0,0,1-2.16.79.61.61,0,0,1-.36.08c.93,2.08,2.73,3.45,7.56,2.08,11.8-3.31,19.8-1.22,19.8-1.22s-.36,4-5.69,3c-.22-.07,2.09,3,6.91,3,6.26,0,9.65-2.52,9.72-2.6a2.18,2.18,0,0,1-1.44,2.38c-3.82,1.94-1.37,6.12-1.37,6.12,2.09-4.61,5.91-2.81,5.91-2.81a4.31,4.31,0,0,0,.64,5.69s.29-2.66,4.47-3.74a9.71,9.71,0,0,1,5.4.28,6.28,6.28,0,0,0,.5,7.35s1.23-5.62,5.11-4a2.17,2.17,0,0,1,.94,3.17A4.28,4.28,0,0,1,103,348.7c6.05,2.88,7.56-1.88,12.24,2.44-6,2.74-13.46,3.32-20.45,3-14.54-1.23-17.57-4.11-21-7.28-4.68-4.46-8.35-5-10.58-4.24a3.07,3.07,0,0,1,.72.57,2.2,2.2,0,0,1,.79,1.73,2.32,2.32,0,0,1-2.31,2.3c-.86,0-1.44-.57-2.16-1.22a2.57,2.57,0,0,0-.57-.36c-1.23,2.23,1.15,4.18,1.87,5.18-.94-.14-2-.36-2.74-.5-3.09-.72-5.68.43-6.48,2.74a5.68,5.68,0,0,1,2.52.14,2.17,2.17,0,0,1,1.44,1.22,2.26,2.26,0,0,1-1.08,3,3.44,3.44,0,0,1-2.52-.07l-.79-.22c.87,4,5.4,4.46,8.93,4.61-1.66,1-3.46,2.52-3.1,4.89a4.38,4.38,0,0,1,1.73-1,1.91,1.91,0,0,1,1.66.07,2.18,2.18,0,0,1,.79,2.81,3,3,0,0,1-1.8,1.15,2.32,2.32,0,0,0-.65.29c2.81,3,9.72-.94,11.67-2,5.54-3.17,10.22-2.59,13-1.22,5.11,2.52-1.8,4.6-1.8,4.6,1.65,1.44,4.46.8,6.12,0,1.51-.64,3-1.87,3.74-.79.43.65.22,1.87-.93,2.88a5.54,5.54,0,0,1-2.24,1.08c6.41,2.45,12.39-3.45,12.39-3.45a2.69,2.69,0,0,1-.07,2.3A6.64,6.64,0,0,1,98,376.78c7,2.08,10.51-6.2,10.51-6.2s3.32,2.52-.79,6.2c5.76.14,6.48-4.54,9.29-2.74,1.66,1.08.79,3.38-1.58,3.89,6.55,2.23,6-3.67,13.68-2.38,11.23,1.95,24.12,3.6,43.77-4,30.17-11.59,33.27-38.23,66.39-42,0,0,2.8,5.84,25.48,12,24.05,6.48,61,1.51,59.33,12.88-.86,5.84-17.28-2.52-19.37,3.32,0,.07-.07.14-.07.28a4,4,0,0,1,1.8-.07,1.85,1.85,0,0,1,1.37.94,2,2,0,0,1-.65,2.73,3.08,3.08,0,0,1-2.16.15.26.26,0,0,1-.21-.07,4.52,4.52,0,0,0,3.31,2.23c-1.95,1-3.1,1.8-3.24,4.46v.72a3.21,3.21,0,0,1,1.15-.65,1.92,1.92,0,0,1,1.66.08,2,2,0,0,1,.86,2.66,3,3,0,0,1-1.8,1.22c-.07.08-.14.08-.22.15a4.65,4.65,0,0,0,4.54,1.15,6.15,6.15,0,0,0,2.88-1.58c-.5.93-1.58,3.09-1.08,4.82a3.07,3.07,0,0,0,.94,1.58,4.81,4.81,0,0,1,.72-1.87,1.91,1.91,0,0,1,1.44-.86,2,2,0,0,1,2.23,1.65,2.92,2.92,0,0,1-.79,2,.39.39,0,0,1-.15.29c4.25.14,8-5.47,8.71-10.37.94-6.26,2.88-5.26,2.88-5.26a4.19,4.19,0,0,0,3.68,3.53c-.15-4.25,2.95-5.54,4.32-4.39s.28,3.82.28,3.82,2.16.72,4.68-3.6c1.44-2.31,1.3-5.26,3-5.4,2.3-.15,1.36,2.73,1.36,2.73,5.33-2.88,2-11.3,4.11-12.24,1.58-.43,1,2.67,1,2.67s3.31-1.88,2.3-5.48C352.15,340.34,354.74,344.74,354.74,344.74Z"/><path class="cls-4" d="M49.54,327.67a2.09,2.09,0,0,0-.22-3,2,2,0,0,0-1.66-.51,6.47,6.47,0,0,0-1.65.51,4.32,4.32,0,0,0-1.15.79c-3,2.3-2.45,5.18-2.16,6.7a6,6,0,0,1,4.32-3.6.61.61,0,0,0,.36-.08A2.93,2.93,0,0,0,49.54,327.67Z"/><path class="cls-4" d="M51.26,310a2.28,2.28,0,0,0,2.31-2.3,2.25,2.25,0,0,0-.72-1.73,5.8,5.8,0,0,0-1.73-1l-1.3-.43c-4-.72-5.9,1.8-7,3.1a6.27,6.27,0,0,1,5.26.5,4.91,4.91,0,0,1,1,.72A3.39,3.39,0,0,0,51.26,310Z"/><path class="cls-4" d="M67.18,305.35a2.16,2.16,0,0,0,2.73-1.29,2,2,0,0,0-.07-1.73c-.22-.36-.43-.65-.65-1a6.16,6.16,0,0,0-1.58-1.22c-3.24-2-5.69-.44-7.06.36a6,6,0,0,1,4.61,2.37c.14.22.36.51.5.72C66.1,304.42,66.46,305.06,67.18,305.35Z"/><path class="cls-4" d="M61.92,368.5a2.18,2.18,0,0,0-.79-2.81,1.91,1.91,0,0,0-1.66-.07,4.38,4.38,0,0,0-1.73,1,3.37,3.37,0,0,0-.64.72c-2.24,2.74-1.16,5.33-.58,6.7a5.61,5.61,0,0,1,2.95-4.1,2.32,2.32,0,0,1,.65-.29A3,3,0,0,0,61.92,368.5Z"/><path class="cls-4" d="M62.42,347.18a2.32,2.32,0,0,0,2.31-2.3,2.2,2.2,0,0,0-.79-1.73,3.07,3.07,0,0,0-.72-.57,6.91,6.91,0,0,0-2.31-.87c-4-.72-5.9,1.73-6.91,3.1a6.12,6.12,0,0,1,5.69.79,2.57,2.57,0,0,1,.57.36C61,346.61,61.56,347.18,62.42,347.18Z"/><path class="cls-4" d="M55.22,357.41a2.26,2.26,0,0,0,1.08-3,2.17,2.17,0,0,0-1.44-1.22,5.68,5.68,0,0,0-2.52-.14,3.76,3.76,0,0,0-.86.14c-3.89,1.08-4.54,4.1-5,5.76a6.5,6.5,0,0,1,5.4-1.8l.79.22A3.44,3.44,0,0,0,55.22,357.41Z"/><path class="cls-4" d="M307.15,361.58a2,2,0,0,0,.65-2.73,1.85,1.85,0,0,0-1.37-.94,4,4,0,0,0-1.8.07,7.2,7.2,0,0,0-1.08.29c-3.24,1.23-3.53,4-3.74,5.4a5.78,5.78,0,0,1,5-2,.26.26,0,0,0,.21.07A3.08,3.08,0,0,0,307.15,361.58Z"/><path class="cls-4" d="M308.52,371.16a2,2,0,0,0-.86-2.66,1.92,1.92,0,0,0-1.66-.08,3.21,3.21,0,0,0-1.15.65,5.56,5.56,0,0,0-1.15,1.08c-2.16,2.74-1,5.26-.44,6.63a5.65,5.65,0,0,1,3.24-4.25c.08-.07.15-.07.22-.15A3,3,0,0,0,308.52,371.16Z"/><path class="cls-4" d="M318.17,377.42a2,2,0,0,0-2.23-1.65,1.91,1.91,0,0,0-1.44.86,4.81,4.81,0,0,0-.72,1.87c-.08.29-.08.58-.15.87-.14,3.53,2.23,4.89,3.53,5.61a5.38,5.38,0,0,1,.07-5.25.39.39,0,0,0,.15-.29A2.92,2.92,0,0,0,318.17,377.42Z"/><path class="cls-4" d="M50,187.34a2.19,2.19,0,0,0,2.73-1.65,2.38,2.38,0,0,0-.36-1.87,3.23,3.23,0,0,0-.5-.65,8.29,8.29,0,0,0-2.09-1.44c-3.67-1.66-6.12.29-7.49,1.37a6.37,6.37,0,0,1,5.84,2.59c0,.07.07.07.07.14A3,3,0,0,0,50,187.34Z"/><path class="cls-2" d="M295.49,232.2c-41.69-1.3-55.44-16.34-55.44-16.34s-7,10.65,10.29,17.71a42.73,42.73,0,0,0-7.34-1.3c-4.82-.36-7-.43-7-.43s-3.68-5.54-10.08-6.7a17.29,17.29,0,0,0-5-.14c.07.07.21.14.28.29a2.18,2.18,0,0,1,.58,1.51,2.06,2.06,0,0,1-2.16,1.87,3.1,3.1,0,0,1-1.8-1.15,3.23,3.23,0,0,0-.79-.65c-.07.07-.15.07-.22.22a4.44,4.44,0,0,0-.57,5c-6,.79-7.92,2.59-8.36,5h0a5.68,5.68,0,0,1,2.88-.22,2.27,2.27,0,0,1,1.3,1,2,2,0,0,1-.79,2.74,2.65,2.65,0,0,1-2.09,0,4,4,0,0,0-1.3-.08c.58,3.1,4.32,5.33,10.3,2.88,1.44-.64-3.67,1.8-1.66,7a2.32,2.32,0,0,1,.44-.94,1.84,1.84,0,0,1,1.36-.93,2,2,0,0,1,2.31,1.58,2.86,2.86,0,0,1-.65,2,4.4,4.4,0,0,0-.58,1.51h0c5,2.23,10.37-3.89,11-6.77,0,0,.5,3.67,2.74,5.26a8.53,8.53,0,0,1,1.51-2.88c2.16-2.38,2,.5,2,.5-.07,4.39,2.74,5.11,2.74,5.11s-.43-5,3.46-5.83c1.58,5.33,7.56-2.88,6.91-.43-1.3,5.47,1.08,7.13,1.08,7.13s.5-6.56,13.61-7.28a6.91,6.91,0,0,0,3.67,6.05c.93-12.6,18.86-12.74,21.81-13.25C298.51,240,295.49,232.2,295.49,232.2Z"/><path class="cls-4" d="M219.6,228.67a2.06,2.06,0,0,0,2.16-1.87,2.18,2.18,0,0,0-.58-1.51c-.07-.15-.21-.22-.28-.29a6,6,0,0,0-2.24-1.15c-3.38-.94-5.25,1.08-6.26,2.16a5.69,5.69,0,0,1,4.61.86,3.23,3.23,0,0,1,.79.65A3.1,3.1,0,0,0,219.6,228.67Z"/><path class="cls-4" d="M209.16,240.7a2.65,2.65,0,0,0,2.09,0A2,2,0,0,0,212,238a2.27,2.27,0,0,0-1.3-1,5.68,5.68,0,0,0-2.88.22h0c-3.31,1.15-3.74,3.81-4,5.25a5.43,5.43,0,0,1,4-1.8A4,4,0,0,1,209.16,240.7Z"/><path class="cls-4" d="M220.61,250.2a2,2,0,0,0-2.31-1.58,1.84,1.84,0,0,0-1.36.93,2.32,2.32,0,0,0-.44.94,5.78,5.78,0,0,0-.28,1.87,5.7,5.7,0,0,0,3.67,5.4,5.21,5.21,0,0,1-.51-4,4.4,4.4,0,0,1,.58-1.51A2.86,2.86,0,0,0,220.61,250.2Z"/><path class="cls-2" d="M173.45,180.29c1.44-6.84-3.89-7-3.89-7a8.67,8.67,0,0,0,3.17-4.39c1.51-5-1.23-11.81-1.23-11.81s-1.8,5-7.41,2.6c0,0,2.81-3.24.57-9.22a6.77,6.77,0,0,1-3.16,3.74c-2.81,1.66-6.12,1.3-7.35-.79-1-1.8-.14-4.32,1.95-6.05a17,17,0,0,0-4.25-.57v37.08h.07a2.56,2.56,0,0,0,2.59-2.67,2.08,2.08,0,0,0-.29-1.15l4.76.29h.28l-.14.29h0l-.14.29c-.22.5-2.31,4.39-6.41,4.6h-.72v36.65c3.45-6.41,4.75-11.16,6.26-7.2a11.33,11.33,0,0,1,.72,3.24s8.57-5,7.63-23.76a10.12,10.12,0,0,0,4.11,2.23,6.09,6.09,0,0,0,4.17-.07S171,191.59,173.45,180.29Zm-21.6-33.48a10,10,0,0,0-3.24.43c-.36.07-.72.22-1,.29v32.61a5,5,0,0,1,2.16-.43h0a2.94,2.94,0,0,0-.5,1.59,2.58,2.58,0,0,0,2.59,2.59V146.81Zm-4.25,82V201.74a8.21,8.21,0,0,0,3.17-2.23,27,27,0,0,1-2.81.43h-.36V183.89a8.86,8.86,0,0,0,4.25,1.65v36.65A50.74,50.74,0,0,1,147.6,228.82Zm0-81.29a48.85,48.85,0,0,0-7.63,4.1s-3.53-2.73-1.8-6.77a6.65,6.65,0,0,0-6.19,3.46v30.6a2.72,2.72,0,0,0,2.73-1.3,3.15,3.15,0,0,0,.36-1.58h0a4.51,4.51,0,0,1,2.38,4.82,19.61,19.61,0,0,1-2.38,5.91s-1.37-.79-.5-3.1c1.08-2.95.65-2.95.65-2.95a10.43,10.43,0,0,1-3.24-.14v16.63c1.87.43,4,.21,4.75-2.23.36-1.23-.51-1.95-1.23-2.52a10,10,0,0,1-1.36-1.16,2.08,2.08,0,0,1,0-2.37,8,8,0,0,0,4.46,3,10,10,0,0,0,5.62-.5,1.79,1.79,0,0,1-1.88,2.3c-1.29.07-3.24.07-3.6,1.66-1.08,5.18,6.12,4.75,8.86,4.53V183.89a2.3,2.3,0,0,1-.29-.22s-.43-.14-.93,2.88c-.44,2.52-1.95,2.45-1.95,2.45a18.7,18.7,0,0,1,.87-6.26,4.67,4.67,0,0,1,2.3-2.6V147.53ZM132,234.79c1.58-1.73,3.52-3.45,4.89-3.17,1.73.29,2.81,4.54,2.81,4.54a30.07,30.07,0,0,0,7.92-7.34V201.74a25.57,25.57,0,0,0-4.46,2.45h0c-3.39,2.52-3.1,6.7-4,9.51a5.85,5.85,0,0,1-7.2,4Zm0-86.47a15.41,15.41,0,0,0-.94,2.16,3.86,3.86,0,0,1-3,3s-.44-4.32-4.25-5.47c-.15-.07-7.2,5-7.13,14.62-2.66.79-3.74,3.81-4,5.4-3.31,19.58-8.35,10.29-8.28,10.58,1.08,9.94,7.85,8.5,7.85,8.5-1.23,6.84-8.35,3.24-8.35,3.24,2.59,9.93,8.64,5.83,8.64,5.83-4.25,7.27-1.08,13,1.22,18.57a24.3,24.3,0,0,1,2.38,9.65s2.8-1.51,4.39-1.51c2.16.07,1.51,2.38,1.51,5.33.14,4.17,1.8,5.4,1.8,5.4a6.44,6.44,0,0,1,.94-1.8c1.15-1.73,1.72-1.51,1.72-1.51s-.57,5.25,2.88,7.84a29.24,29.24,0,0,1,2.6-3.31V217.73c-.15,0-.36-.07-.51-.07-2.95-.72-5.69-2.67-5.69-5.84-.07-3.6,6.2-8,2.74-12.74-2.88-3.89-2.59-5.62-2.59-5.62a8.29,8.29,0,0,0,2.66,2.45,16.89,16.89,0,0,0,3.39,1.3V180.58a5.38,5.38,0,0,1-2-.8l-.22-.14c-3.45-2.16-3.31-6.62-3.31-7.13h0l.07-.36v-.36l.29.22L131,174.1a2.36,2.36,0,0,0-.86.86,2.61,2.61,0,0,0,.93,3.6,4.58,4.58,0,0,0,.87.36Z"/><path class="cls-4" d="M130.9,215.64c6.62,2.16,7.2-4.82,7.34-6.12.94-7.13,5.9-7.34,6.77-8.14-2.31.36-6.91-.14-8.21-2.88a8.43,8.43,0,0,1-7.34-.5,10,10,0,0,1,1.51,3c.57,1.8-.15,3.82-.94,5.48C129.24,208,124.92,213.7,130.9,215.64Z"/><path class="cls-4" d="M49.32,205.42a2.16,2.16,0,0,0-.22-3,2.08,2.08,0,0,0-1.65-.5,4.74,4.74,0,0,0-2.45.93,1.81,1.81,0,0,0-.43.29c-3,2.31-2.38,5.19-2.09,6.7a5.84,5.84,0,0,1,3.74-3.39,2.06,2.06,0,0,1,.94-.21A3.49,3.49,0,0,0,49.32,205.42Z"/><path class="cls-4" d="M66.82,182a2.23,2.23,0,0,0,3-.8,2,2,0,0,0,.14-1.72,1.12,1.12,0,0,0-.21-.51,5.63,5.63,0,0,0-1.59-2.09c-2.81-2.44-5.54-1.36-7-.79a6.1,6.1,0,0,1,4.39,3.53c.07.14.07.29.14.43A3.41,3.41,0,0,0,66.82,182Z"/><path class="cls-4" d="M61.92,223.92a2.19,2.19,0,0,0,3-.79,2,2,0,0,0,.15-1.8,4,4,0,0,0-.72-1.44,5,5,0,0,0-1-1.08c-2.88-2.45-5.62-1.37-7.06-.79a5.89,5.89,0,0,1,4.47,3.88,1.08,1.08,0,0,1,.14.44A3.14,3.14,0,0,0,61.92,223.92Z"/><path class="cls-4" d="M52.7,235a2.32,2.32,0,0,0,1.37-2.95,2.41,2.41,0,0,0-1.29-1.37,6.42,6.42,0,0,0-2.88-.36,1.13,1.13,0,0,1-.51.07c-4,.72-4.89,3.67-5.47,5.26a6.41,6.41,0,0,1,5.18-1.3,8.17,8.17,0,0,1,1.16.29A3.32,3.32,0,0,0,52.7,235Z"/><path class="cls-4" d="M61.85,244.8a2.33,2.33,0,0,0-1.8-.36,4.3,4.3,0,0,0-2.23.94,5.66,5.66,0,0,0-.72.57c-3,2.74-2.24,5.76-1.8,7.42a6.43,6.43,0,0,1,4.75-4.32h.07a3.07,3.07,0,0,0,2.16-1A2.3,2.3,0,0,0,61.85,244.8Z"/><path class="cls-2" d="M348.12,217.8c-2.88-1.37-7.49-.79-13.1-.22a71.54,71.54,0,0,1-14.33.44c-33.63-3.39-36.29-15.77-35-14.91A77.58,77.58,0,0,0,304,208.94c30,5.84,30.17-10.58,30.17-10.58a3.89,3.89,0,0,1,1.3,2.52c.36,2.09-1.08,5-1.08,5s3.74-2.81,3.74-7c0-6.19-4.1-8.42-4.1-8.42s.86-.07,2.37,1.22,2.38,4.47,2.38,4.47,1.51-5.19-4.18-10c-16.12-13.46-50.9-10.8-64.29-12.74-11.81-1.66-14.83-6.48-14-11.45,1.37-8.21,12.38-8.43,12.38-8.43-.57,8.93,10.52,14.76,21.1,12.46a30,30,0,0,0,13.54-6.7,30.51,30.51,0,0,1,5.68-3.67c-5.4-1.08-8.85,1.08-11.08,2a25.59,25.59,0,0,1-7.28,1.87c-6.55.58-7.2-3.82-7.2-3.82a18.14,18.14,0,0,0,11.24.87C313,152.28,307,135.22,307,135.22s-1.66,6.48-7.35,8.85a10.39,10.39,0,0,1-9.86-1.29s8.86.93,10.73-6.05c1.08-3.89-2.67-5.91-2.67-5.91s.8,8.79-20.3,7.49c-9.22-.57-9.14,7.27-9.14,7.27a27.54,27.54,0,0,0-5.26,1.16,21.66,21.66,0,0,0-5.76,2.59c.86-2.52,4.61-3.75,4.61-3.75-4.9,0-8.93,3.75-8.93,3.75a5.29,5.29,0,0,1,.72-2.31,23.68,23.68,0,0,0-6.62,14,16.74,16.74,0,0,0,3.88,13.11c5,6,14.69,6.77,20.6,7.2,8.64.65,23,1.44,35.64,3.17,17.13,2.37,18.14,8.06,15.91,11.73-2.52,4.11-10.15,4.18-22,0s-35.72-12.81-52.92-12.74c-45.29.21-65.52,19.44-79.06,15.84.36,17.35-12.1,24.33-12.1,24.33-1.87-9.64-.57,7.78-18.93,16.85,0,0-.15-4.32-2.09-4.68-2.52-.5-6.05,6.27-6.05,6.27a13.76,13.76,0,0,1-5.18-6.7l-.94,1.94a9,9,0,0,1-3.74-5.25c-.65-3.31.36-5.83-1.15-5.91s-5.33,2.38-5.33,2.38a25.16,25.16,0,0,0-2-11.66c-1.51-3.82-3.6-7.35-4-11.45C93.24,202.75,75.46,196.92,75,191.3c-.36-5.32.58-10.65-5.32-12.31a1.12,1.12,0,0,1,.21.51,2,2,0,0,1-.14,1.72,2.23,2.23,0,0,1-3,.8,3.41,3.41,0,0,1-1.23-2c-.07-.14-.07-.29-.14-.43-3.39,2-2,8.06-2,8.06-2.66-2.73-8.21-7.7-11.59-4.53a3.23,3.23,0,0,1,.5.65,2.38,2.38,0,0,1,.36,1.87A2.19,2.19,0,0,1,50,187.34a3,3,0,0,1-1.8-1.51c-3.53,5,3.74,11,3.74,11-1,.57-6.91,1.73-6.91,6a4.74,4.74,0,0,1,2.45-.93,2.08,2.08,0,0,1,1.65.5,2.16,2.16,0,0,1,.22,3,3.49,3.49,0,0,1-2.16.79,2.06,2.06,0,0,0-.94.21,5.93,5.93,0,0,0,7.28,2c9.36-4,11.8-1.73,15.84-.86,2.88.64,5.54-.08,5.54,1.65.07,1.44-1.3,2.45-5.62,2,0,0,1,2.73,5.76,3.24,7.2.79,9.44-.94,10.37.28,1.8,2.31-5.18,3.17-5.18,3.17,5.61,4.32,13.1,1,13.1,1,.36,2.52-5,3-5,3s2.16,2.38,6.34,1.3a13.73,13.73,0,0,0,2.95-1.08s-1.22,4.1,2.45,6.26c0,0,2.09-7.12,5-5.32,1.44.93,1.58,2.44.94,3.24a2.69,2.69,0,0,1-2.31,1.08c.87,2.08,4.61,2.08,4.61,2.08s-4.54,2.88-17.28,2.67c-16.92-1.37-15.91-3.31-20.09-8.28-3.24-4.39-5.18-4.61-6.69-4a4,4,0,0,1,.72,1.44,2,2,0,0,1-.15,1.8,2.19,2.19,0,0,1-3,.79,3.14,3.14,0,0,1-1.08-1.58c-2.09,2-1.66,4-.72,5.61-.79-.14-8.78-1.29-10.22,2.38a6.42,6.42,0,0,1,2.88.36,2.41,2.41,0,0,1,1.29,1.37A2.32,2.32,0,0,1,52.7,235a3.32,3.32,0,0,1-2.44-.36,8.17,8.17,0,0,0-1.16-.29,1.32,1.32,0,0,0-.07.36c-.14,5.47,7.85,5.62,11.81,5.76-1.73,1-3.46,2.52-3,4.9a4.3,4.3,0,0,1,2.23-.94,2.33,2.33,0,0,1,1.8.36,2.3,2.3,0,0,1,.43,3.24,3.07,3.07,0,0,1-2.16,1c5.26,3.45,9.14-1.37,11-2.38,5.54-3.17,14-2.81,16.12-.5,1.59,1.73-1.94,3.74-1.94,3.74A9.42,9.42,0,0,0,92.09,248,5.39,5.39,0,0,0,91,250.63a4.31,4.31,0,0,0,1.29,4c3.24-6.19,5.69-5.76,6.92-4.6,1.51,1.36-1.52,3.52-1.52,3.52,3.75,1.88,8.64-1.94,8.64-1.94s-.36,3.17,1.44,4.9c2.45-4.47,7.85-4,11.38-3.68,0,0-5.11,3.53-3.1,7.92,3.17-3.09,7.13-4.24,12.6-3.6C140,258.55,161.28,265,197.93,231c24.62-23,41.18-20,41.18-20,22,17.86,64.23,18.14,75,19,5.25.36,5.32,3.6,3,6.41a6.37,6.37,0,0,1-3.46,2.16s-10.36-4.32-14.18,1.51a3.46,3.46,0,0,1,1.94,0,1.74,1.74,0,0,1,1.3.93,1.93,1.93,0,0,1-.72,2.67,3,3,0,0,1-2.09,0,3.57,3.57,0,0,0-.86-.07,3.71,3.71,0,0,0,3,2.73c.43.07.43.15.29.29a6.25,6.25,0,0,0-2.09,5,3.85,3.85,0,0,1,1.58-.72,2.09,2.09,0,0,1,1.59.22,2,2,0,0,1,.5,2.73c-.36.58-1,.72-1.8.94a5.05,5.05,0,0,0-.57.21c1.08,1.73,3.09,2.81,6.12,1.66a9.15,9.15,0,0,0,3.09-1.66c-.29.51-1.08,2.24-.21,3.53a2.68,2.68,0,0,0,.36.51,5,5,0,0,1,1.22-2.31,2.19,2.19,0,0,1,1.51-.57,2,2,0,0,1,1.87,2,3,3,0,0,1-1.08,1.8c-.21.22-.36.43-.5.58a8.25,8.25,0,0,0,2.66,0c3.24-.58,5.76-3.39,6.48-10.23a9,9,0,0,1,1.3-4.24,11.73,11.73,0,0,1,3.6-2.16,5,5,0,0,1-.79,4.75c6.41,1.08,7.27-9,7.27-9a9.32,9.32,0,0,0,2.16,3.24,7.29,7.29,0,0,0,3.38,1.58c-1.15-7.2,1.66-9.65,3-9.93,2.73-.72,2.66,2.59,2.66,2.59a5,5,0,0,0,1.8-4.83,12.83,12.83,0,0,0-1.22-3.52s2.23-1.16,3.45,1.94c0,0,2.45-3.89.22-6a1.45,1.45,0,0,1,1.22-.14,2.34,2.34,0,0,1,1.08.93A7.14,7.14,0,0,0,348.12,217.8Z"/><path class="cls-4" d="M302,243.65a1.93,1.93,0,0,0,.72-2.67,1.74,1.74,0,0,0-1.3-.93,3.46,3.46,0,0,0-1.94,0,1.91,1.91,0,0,0-.86.21c-3.17,1.08-3.6,3.68-3.82,5.12a5.25,5.25,0,0,1,4.25-1.8,3.57,3.57,0,0,1,.86.07A3,3,0,0,0,302,243.65Z"/><path class="cls-4" d="M303.91,253.87a2,2,0,0,0-.5-2.73,2.09,2.09,0,0,0-1.59-.22,3.85,3.85,0,0,0-1.58.72,7,7,0,0,0-.86.72c-2.38,2.45-1.52,5-1.08,6.34a5.35,5.35,0,0,1,3.24-3.68,5.05,5.05,0,0,1,.57-.21C302.9,254.59,303.55,254.45,303.91,253.87Z"/><path class="cls-4" d="M315.5,258.19a2,2,0,0,0-1.87-2,2.19,2.19,0,0,0-1.51.57,5,5,0,0,0-1.22,2.31c0,.07-.08.14-.08.21-.72,3.31,1.3,5,2.38,6a5.49,5.49,0,0,1,.72-4.68c.14-.15.29-.36.5-.58A3,3,0,0,0,315.5,258.19Z"/></g></g></svg>