<svg xmlns="http://www.w3.org/2000/svg" viewBox="0 0 343.22 343.22"><defs><style>.cls-1{fill:#fff;}.cls-1,.cls-10,.cls-11,.cls-12,.cls-13,.cls-14,.cls-15,.cls-16,.cls-17,.cls-18,.cls-19,.cls-2,.cls-20,.cls-21,.cls-3,.cls-4,.cls-5,.cls-6,.cls-7,.cls-8,.cls-9{fill-rule:evenodd;}.cls-2{fill:#1a79bf;}.cls-3{fill:#2077bd;}.cls-4{fill:#2172b5;}.cls-5{fill:#226daf;}.cls-6{fill:#216aaa;}.cls-7{fill:#2365a4;}.cls-8{fill:#2162a0;}.cls-9{fill:#225e9c;}.cls-10{fill:#215a97;}.cls-11{fill:#225693;}.cls-12{fill:#21538e;}.cls-13{fill:#20508c;}.cls-14{fill:#204b86;}.cls-15{fill:#1f4884;}.cls-16{fill:#20437e;}.cls-17{fill:#1f417c;}.cls-18{fill:#1e3d79;}.cls-19{fill:#1e3a76;}.cls-20{fill:#1e3a75;}.cls-21{fill:#1f3974;}</style></defs><title>Eszköz 1</title><g id="Réteg_2" data-name="Réteg 2"><g id="Layer_1" data-name="Layer 1"><path class="cls-1" d="M171.58,343.22c94.82,0,171.64-76.89,171.64-171.57A171.61,171.61,0,0,0,171.58,0C76.9,0,0,76.82,0,171.65,0,266.33,76.9,343.22,171.58,343.22Z"/><path class="cls-2" d="M171.58,333.29c89.28,0,161.71-72.43,161.71-161.64A161.75,161.75,0,0,0,171.58,9.94C82.37,9.94,9.94,82.37,9.94,171.65S82.37,333.29,171.58,333.29ZM332.14,171.65c0,88.56-71.93,160.41-160.56,160.41A160.46,160.46,0,0,1,11.16,171.65C11.16,83,83,11.09,171.58,11.09A160.62,160.62,0,0,1,332.14,171.65Z"/><path class="cls-2" d="M171.58,333.29c89.28,0,161.71-72.43,161.71-161.64A161.75,161.75,0,0,0,171.58,9.94C82.37,9.94,9.94,82.37,9.94,171.65S82.37,333.29,171.58,333.29ZM328,171.65A156.35,156.35,0,1,1,171.58,15.26,156.32,156.32,0,0,1,328,171.65Z"/><path class="cls-2" d="M332.14,171.65A160.62,160.62,0,0,0,171.58,11.09C83,11.09,11.16,83,11.16,171.65A160.46,160.46,0,0,0,171.58,332.06c88.63,0,160.56-71.85,160.56-160.41Zm-8.28,0c0,84-68.19,152.21-152.28,152.21A152.25,152.25,0,1,1,323.86,171.65Z"/><path class="cls-2" d="M328,171.65A156.35,156.35,0,1,0,171.58,328,156.35,156.35,0,0,0,328,171.65Zm-8.21,0a148.16,148.16,0,0,1-148.17,148.1c-81.72,0-148.11-66.38-148.11-148.1a148.14,148.14,0,1,1,296.28,0Z"/><path class="cls-3" d="M323.86,171.65A152.25,152.25,0,1,0,171.58,323.86c84.09,0,152.28-68.19,152.28-152.21Zm-8.21,0A144,144,0,1,1,171.58,27.58,144.06,144.06,0,0,1,315.65,171.65Z"/><path class="cls-4" d="M319.75,171.65a148.14,148.14,0,1,0-296.28,0c0,81.72,66.39,148.1,148.11,148.1a148.16,148.16,0,0,0,148.17-148.1Zm-8.21,0c0,77.18-62.71,139.89-140,139.89A140,140,0,0,1,31.68,171.65c0-77.26,62.71-140,139.9-140A140,140,0,0,1,311.54,171.65Z"/><path class="cls-5" d="M315.65,171.65a144,144,0,1,0-144.07,144,144.08,144.08,0,0,0,144.07-144Zm-8.21,0A135.79,135.79,0,1,1,171.58,35.78,135.8,135.8,0,0,1,307.44,171.65Z"/><path class="cls-6" d="M311.54,171.65a140,140,0,0,0-140-140c-77.19,0-139.9,62.71-139.9,140a140,140,0,0,0,139.9,139.89c77.25,0,140-62.71,140-139.89Zm-8.28,0A131.65,131.65,0,1,1,171.58,40,131.67,131.67,0,0,1,303.26,171.65Z"/><path class="cls-7" d="M307.44,171.65A135.79,135.79,0,1,0,171.58,307.37,135.88,135.88,0,0,0,307.44,171.65Zm-8.28,0A127.55,127.55,0,1,1,171.58,44.06,127.54,127.54,0,0,1,299.16,171.65Z"/><path class="cls-8" d="M303.26,171.65A131.65,131.65,0,1,0,171.58,303.26,131.69,131.69,0,0,0,303.26,171.65Zm-8.2,0A123.45,123.45,0,1,1,171.58,48.17,123.49,123.49,0,0,1,295.06,171.65Z"/><path class="cls-9" d="M299.16,171.65A127.55,127.55,0,1,0,171.58,299.16,127.56,127.56,0,0,0,299.16,171.65Zm-8.21,0A119.34,119.34,0,1,1,171.58,52.27,119.37,119.37,0,0,1,291,171.65Z"/><path class="cls-10" d="M295.06,171.65A123.45,123.45,0,1,0,171.58,295.06,123.49,123.49,0,0,0,295.06,171.65Zm-8.21,0A115.24,115.24,0,1,1,171.58,56.38,115.28,115.28,0,0,1,286.85,171.65Z"/><path class="cls-11" d="M291,171.65A119.34,119.34,0,1,0,171.58,291,119.35,119.35,0,0,0,291,171.65Zm-8.21,0A111.1,111.1,0,1,1,171.58,60.48,111.15,111.15,0,0,1,282.74,171.65Z"/><path class="cls-12" d="M286.85,171.65a115.24,115.24,0,1,0-115.27,115.2,115.29,115.29,0,0,0,115.27-115.2Zm-8.28,0a107,107,0,1,1-107-107A106.95,106.95,0,0,1,278.57,171.65Z"/><path class="cls-13" d="M282.74,171.65a111.1,111.1,0,1,0-111.16,111,111.18,111.18,0,0,0,111.16-111Zm-8.28,0A102.85,102.85,0,1,1,171.58,68.76,102.89,102.89,0,0,1,274.46,171.65Z"/><path class="cls-14" d="M278.57,171.65a107,107,0,1,0-107,106.92,107,107,0,0,0,107-106.92Zm-8.21,0a98.75,98.75,0,1,1-98.78-98.79A98.75,98.75,0,0,1,270.36,171.65Z"/><path class="cls-15" d="M274.46,171.65A102.85,102.85,0,1,0,171.58,274.46,102.91,102.91,0,0,0,274.46,171.65Zm-8.2,0A94.65,94.65,0,1,1,171.58,77,94.69,94.69,0,0,1,266.26,171.65Z"/><path class="cls-16" d="M270.36,171.65a98.75,98.75,0,1,0-98.78,98.71,98.76,98.76,0,0,0,98.78-98.71Zm-8.21,0a90.54,90.54,0,1,1-90.57-90.58A90.58,90.58,0,0,1,262.15,171.65Z"/><path class="cls-17" d="M266.26,171.65a94.65,94.65,0,1,0-94.68,94.61,94.71,94.71,0,0,0,94.68-94.61Zm-8.21,0a86.4,86.4,0,1,1-86.47-86.47A86.43,86.43,0,0,1,258.05,171.65Z"/><path class="cls-18" d="M262.15,171.65a90.54,90.54,0,1,0-90.57,90.5,90.55,90.55,0,0,0,90.57-90.5Zm-8.28,0a82.26,82.26,0,1,1-82.29-82.3A82.25,82.25,0,0,1,253.87,171.65Z"/><path class="cls-19" d="M258.05,171.65A86.4,86.4,0,1,0,171.58,258a86.5,86.5,0,0,0,86.47-86.33Zm-8.28,0a78.16,78.16,0,1,1-78.19-78.19A78.15,78.15,0,0,1,249.77,171.65Z"/><path class="cls-19" d="M253.87,171.65a82.26,82.26,0,1,0-82.29,82.22,82.23,82.23,0,0,0,82.29-82.22Zm-8.21,0a74.05,74.05,0,1,1-74.08-74.09A74.09,74.09,0,0,1,245.66,171.65Z"/><path class="cls-19" d="M249.77,171.65a78.16,78.16,0,1,0-78.19,78.12,78.17,78.17,0,0,0,78.19-78.12Zm-8.21,0a70,70,0,1,1-70-70A70,70,0,0,1,241.56,171.65Z"/><path class="cls-19" d="M245.66,171.65a74.05,74.05,0,1,0-74.08,74,74.11,74.11,0,0,0,74.08-74Zm-8.2,0a65.85,65.85,0,1,1-65.88-65.88A65.9,65.9,0,0,1,237.46,171.65Z"/><path class="cls-19" d="M241.56,171.65a70,70,0,1,0-70,69.91,70,70,0,0,0,70-69.91Zm-8.21,0a61.71,61.71,0,1,1-61.77-61.78A61.73,61.73,0,0,1,233.35,171.65Z"/><path class="cls-19" d="M237.46,171.65a65.85,65.85,0,1,0-65.88,65.81,65.91,65.91,0,0,0,65.88-65.81Zm-8.28,0a57.57,57.57,0,1,1-57.6-57.6A57.57,57.57,0,0,1,229.18,171.65Z"/><path class="cls-19" d="M233.35,171.65a61.71,61.71,0,1,0-61.77,61.63,61.77,61.77,0,0,0,61.77-61.63Zm-8.28,0a53.46,53.46,0,1,1-53.49-53.5A53.46,53.46,0,0,1,225.07,171.65Z"/><path class="cls-19" d="M229.18,171.65a57.57,57.57,0,1,0-57.6,57.53,57.58,57.58,0,0,0,57.6-57.53Zm-8.21,0a49.36,49.36,0,1,1-49.39-49.39A49.37,49.37,0,0,1,221,171.65Z"/><path class="cls-19" d="M225.07,171.65a53.46,53.46,0,1,0-53.49,53.42,53.44,53.44,0,0,0,53.49-53.42Zm-8.21,0a45.25,45.25,0,1,1-45.28-45.29A45.3,45.3,0,0,1,216.86,171.65Z"/><path class="cls-19" d="M221,171.65A49.36,49.36,0,1,0,171.58,221,49.38,49.38,0,0,0,221,171.65Zm-8.21,0a41.15,41.15,0,1,1-41.18-41.19A41.16,41.16,0,0,1,212.76,171.65Z"/><path class="cls-19" d="M216.86,171.65a45.25,45.25,0,1,0-45.28,45.21,45.32,45.32,0,0,0,45.28-45.21Zm-8.2,0a37,37,0,1,1-37.08-37.08A37,37,0,0,1,208.66,171.65Z"/><path class="cls-20" d="M212.76,171.65a41.15,41.15,0,1,0-41.18,41.11,41.18,41.18,0,0,0,41.18-41.11Zm-8.28,0a32.87,32.87,0,1,1-32.9-32.91A32.88,32.88,0,0,1,204.48,171.65Z"/><path class="cls-20" d="M208.66,171.65a37,37,0,1,0-37.08,36.93,37.12,37.12,0,0,0,37.08-36.93Zm-8.28,0a28.77,28.77,0,1,1-28.8-28.8A28.78,28.78,0,0,1,200.38,171.65Z"/><path class="cls-20" d="M204.48,171.65a32.87,32.87,0,1,0-32.9,32.83,32.85,32.85,0,0,0,32.9-32.83Zm-8.21,0A24.66,24.66,0,1,1,171.58,147,24.67,24.67,0,0,1,196.27,171.65Z"/><path class="cls-20" d="M200.38,171.65a28.77,28.77,0,1,0-28.8,28.73,28.79,28.79,0,0,0,28.8-28.73Zm-8.21,0a20.56,20.56,0,1,1-20.59-20.59A20.58,20.58,0,0,1,192.17,171.65Z"/><path class="cls-20" d="M196.27,171.65a24.66,24.66,0,1,0-24.69,24.62,24.64,24.64,0,0,0,24.69-24.62Zm-8.21,0a16.45,16.45,0,1,1-16.48-16.49A16.51,16.51,0,0,1,188.06,171.65Z"/><path class="cls-20" d="M192.17,171.65a20.56,20.56,0,1,0-20.59,20.52,20.59,20.59,0,0,0,20.59-20.52Zm-8.21,0a12.31,12.31,0,1,1-12.38-12.39A12.3,12.3,0,0,1,184,171.65Z"/><path class="cls-20" d="M188.06,171.65a16.45,16.45,0,1,0-16.48,16.41,16.53,16.53,0,0,0,16.48-16.41Zm-8.28,0a8.17,8.17,0,1,1-8.2-8.21A8.18,8.18,0,0,1,179.78,171.65Z"/><path class="cls-20" d="M184,171.65a12.31,12.31,0,1,0-24.62,0,12.31,12.31,0,0,0,24.62,0Z"/><path class="cls-20" d="M179.78,171.65a8.17,8.17,0,1,0-8.2,8.13A8.2,8.2,0,0,0,179.78,171.65Z"/><path class="cls-21" d="M175.68,171.65a4.07,4.07,0,1,0-8.14,0,4.13,4.13,0,0,0,4,4A4.08,4.08,0,0,0,175.68,171.65Z"/><path class="cls-1" d="M171.58,272.45a100.84,100.84,0,1,0,0-201.67V82.44a89.17,89.17,0,1,1,0,178.34Zm0-201.67a100.84,100.84,0,0,0,0,201.67V260.78a89.17,89.17,0,0,1,0-178.34Z"/><path class="cls-1" d="M171.43,221.76h-.07v-22.9l26.57-19.22-10-31H171.36V101.88l.22.22,15.91-13.4,14.33,42.12H245l-7.92,19.23L254.88,161,219,187.49,232.56,229l-20.74-1.65-4.89,20.3Zm-.07,0L136,247.68l-4.9-20.3L110.38,229l13.53-41.61L88.13,161,106,150.05l-8-19.23h43.42L155.74,88.7l15.62,13.18v46.73H154.94l-10,31,26.42,19.22Z"/><path class="cls-1" d="M170.28,59.4l13.68.65L193,45.29c-4.39-5-10.65-9.51-20.81-12.82l1.52-3.67c4.82-.07,10.22,1.22,15.48,2.52l4.17-8.06c-7.34-2-17.42-2.67-25.27-2.24L161.06,36.5c6.84,3.32,13.54,6.92,20.31,11l-4.54,5-11.16-6.27-5.4,7.49Z"/><path class="cls-1" d="M241.42,51.84l-7.85-.29-.15-7.13c-.07-1.65-1.58-2.59-3.81-3.74l-.29-.07L216.94,69.34l-9-3.89,12.38-28.73c-2.23-.79-3.82-1.22-5-.14L210,41.33l-5.61-5.47,9-9.29c3.53.43,9.29,3.09,14.69,5.33,5.25,2.37,11.16,4.75,13.89,7Z"/><polygon class="cls-1" points="234.22 78.26 241.7 84.46 266.33 54.79 258.26 48.1 250.42 51.84 250.7 52.63 253.66 54.72 234.22 78.26"/><path class="cls-1" d="M132.77,66.24l16-4.32.65-10.66-.94-.14-12.38,6.34-7.7-6.27L142.13,48l.43-8.35-1.15.36-13,4.75.07-10.22a66.54,66.54,0,0,1,14.83-1.37l.51-9.14a101.49,101.49,0,0,0-23.4,5.76l-1.59,25.13,13,11Z"/><path class="cls-1" d="M31.75,136.94l.36-1,12.31-8.28-4.75-6.84-12.53,8.06-3.81,12.67,6.26,7.92,29.45,7a145.73,145.73,0,0,1,6.48-21.68l-6-5.32a129.35,129.35,0,0,0-5.83,16l-18.14-4.25Z"/><polygon class="cls-1" points="157.03 321.62 166.39 322.06 159.84 283.1 143.28 280.66 137.66 287.28 142.42 288.5 128.52 315.86 137.59 317.95 151.78 290.3 154.44 306.29 146.74 305.14 146.3 307.3 147.6 313.49 155.88 314.71 157.03 321.62"/><polygon class="cls-1" points="183.96 321.91 206.35 319.32 210.74 307.73 202.75 304.92 199.51 312.48 192.82 313.2 190.08 282.38 179.64 283.61 176.9 291.82 177.7 292.18 181.22 291.53 183.96 321.91"/><path class="cls-1" d="M51.26,262.58l15.27,17.28,18.57-9.28.15-1L73.66,255l-.58.36-3.17,8.14,3.46,3.74-5,2.45-6.7-7.49,5.62-10.72,12.53-2.38,7.2,10.15,10.65-3.53a151.35,151.35,0,0,1-14.32-16.27l-22.54,4.39Z"/><path class="cls-1" d="M87.26,296.57l8.21,5.33L112.39,276l5,2.8v9.15l-11.38.65.15,9.21,19.22-1.51,1.37-21.1a172.08,172.08,0,0,1-18.94-11.3l-7.34,4.61.36.79L104,271Z"/><path class="cls-1" d="M101.59,83.74l13.68-9.8-2.09-9.64-1.22.43-10.15,9.65L92.52,71l12-7.49-1.15-7.27-1.51-.72L90.5,64.94l-2-9.21c3.74-2.38,6.48-4.39,11.66-6.12l-1.37-9.29c-8.35,4.18-15.55,8.57-20.73,13.1l6.69,24.2,15.84,6.19Z"/><polygon class="cls-1" points="226.44 311.69 246.96 302.33 247.61 289.94 239.11 289.73 238.32 297.86 232.2 300.6 220.1 272.16 210.53 276.48 210.46 285.19 211.32 285.26 214.49 283.54 226.44 311.69"/><polygon class="cls-1" points="262.94 291.46 270.58 285.41 246.74 255.02 238.54 261.5 240.55 270 241.42 269.86 244.08 267.41 262.94 291.46"/><polygon class="cls-1" points="29.38 221.33 37.87 242.21 50.26 243.36 50.76 234.86 42.7 233.71 40.18 227.52 69.12 216.58 65.16 206.86 56.52 206.42 56.38 207.29 57.96 210.53 29.38 221.33"/><polygon class="cls-1" points="22.54 196.2 24.34 205.34 60.55 189.65 58.97 173.02 51.19 169.2 51.12 174.02 21.24 167.26 21.38 176.47 51.7 183.53 36.79 190.01 36 182.23 33.84 182.38 28.15 185.11 28.94 193.39 22.54 196.2"/><path class="cls-1" d="M289,122.9l3.17,7.78L287,132.84c-1.58.72-1,2.88-.57,5.33l.07.29,29.95-7.56,2.38,9.5-30,7.56c.72,2.23.94,4,2.52,4.1l6.77.51.22,8.49-15-.86c-1.08-6.26-5-24.55-7.34-31Z"/><polygon class="cls-1" points="321.77 183.1 322.56 173.45 284.04 170.42 283.25 180.86 290.81 185.11 291.31 184.39 291.31 180.79 321.77 183.1"/><polygon class="cls-1" points="315.72 214.7 318.24 205.2 280.94 195.34 278.21 205.49 284.9 211.03 285.55 210.38 286.2 206.86 315.72 214.7"/><polygon class="cls-1" points="297.94 252.72 309.6 233.42 303.12 222.84 295.99 227.45 299.95 234.65 296.42 240.34 270.43 223.7 264.96 232.63 269.78 239.83 270.58 239.47 272.23 236.23 297.94 252.72"/><polygon class="cls-1" points="63.5 103.68 70.85 96.26 63.5 88.92 56.16 96.26 63.5 103.68"/><polygon class="cls-1" points="278.78 103.68 286.13 96.26 278.78 88.92 271.44 96.26 278.78 103.68"/></g></g></svg>