<svg xmlns="http://www.w3.org/2000/svg" viewBox="0 0 149.62 170.5"><defs><style>.cls-1{fill:#fff;}.cls-1,.cls-2,.cls-3{fill-rule:evenodd;}.cls-2,.cls-4{fill:#2e3192;}.cls-3{fill:#ed1c24;}</style></defs><title>Eszköz 1</title><g id="Réteg_2" data-name="Réteg 2"><g id="Layer_1" data-name="Layer 1"><path class="cls-1" d="M41.9,89.28v72.07l-4.82,9.15H109.3l-3.39-9V89.28H113l36.65-39.6V0l-4.4,2.38L143.86,3l-1.3.72-1.3.65L140,5l-1.3.58-1.29.64-1.3.58-1.22.58-1.3.57-1.22.51-1.23.5-1.29.5-1.23.51-1.22.5-1.23.43-1.22.44-1.15.43-1.23.43-1.22.36-1.15.43-1.23.36-1.22.36-1.15.29-1.23.36-1.15.29-1.22.36-1.15.29-1.23.21-1.15.29-1.15.29-7,1.29a41,41,0,0,0-53.13-.07L41,16.06l-1.15-.29-1.15-.22-1.23-.29L36.36,15l-1.15-.29L34,14.33,32.83,14l-1.15-.36-1.22-.36L29.3,13l-1.22-.36-1.22-.43-1.16-.43-1.22-.44-1.22-.43L22,10.44l-1.22-.5L19.58,9.5,18.36,9l-1.22-.58-1.23-.5-1.22-.58-1.3-.5-1.22-.65-1.3-.57L9.58,5l-1.3-.58L7,3.67,5.69,3l-1.3-.64L0,0V49.68l36.65,39.6Z"/><path class="cls-2" d="M37.51,87.19H51.12A44.65,44.65,0,0,1,34,68.18L20.81,53.06,29.88,53a37.34,37.34,0,0,1-.14-4A41.75,41.75,0,0,1,30.1,43l-15.56-.07V26.21a180,180,0,0,0,18.29,6.26,46,46,0,0,1,9-14.11C29.09,15.77,16.42,11.23,2,3.46V48.89l35.49,38.3Zm60.63,0H112l35.5-38.3V3.46c-14.47,7.77-27.22,12.31-40,14.9a45.43,45.43,0,0,1,8.92,14.18C121.82,31,127.8,29,135,26.21v16.7H119.16a42.7,42.7,0,0,1,.43,6.12,37.38,37.38,0,0,1-.21,4l9.36.07-13.47,15.2A44.89,44.89,0,0,1,98.14,87.19Z"/><path class="cls-3" d="M74.66,87.48A38.55,38.55,0,0,0,113.18,49a38,38,0,0,0-3.31-15.62c-18.21,4.1-36.93,6-54.29,2.66l2.67-13.39a106,106,0,0,0,42.48-2A38.53,38.53,0,0,0,36.07,49a23.76,23.76,0,0,0,.15,2.38c16.63,4,44.56,6.26,60.12,2.52L95,69.84c-17.71,3.82-36.36,2.23-54.07-2.23A38.63,38.63,0,0,0,74.66,87.48Z"/><rect class="cls-4" x="43.99" y="92.74" width="6.98" height="67.25"/><path class="cls-2" d="M61.13,160h7V92.74H59.76v7.7h2.09v7.85H59.76v8.28h1.37ZM59.76,92.74H53.57v23.83h6.19v-8.28H57.67v-7.85h2.09Z"/><polygon class="cls-2" points="79.13 159.98 86.11 159.98 86.11 92.74 84.82 92.74 84.82 92.74 71.5 92.74 71.5 100.58 79.13 100.58 79.13 159.98"/><path class="cls-2" d="M96.84,160h7V92.74H95.47v7.7h2.09v7.85H95.47v8.28h1.37ZM95.47,92.74H89.28v23.83h6.19v-8.28H93.38v-7.85h2.09Z"/><polygon class="cls-2" points="40.46 168.41 106.34 168.41 103.82 161.86 43.99 161.86 40.46 168.41"/></g></g></svg>