<svg xmlns="http://www.w3.org/2000/svg" xmlns:xlink="http://www.w3.org/1999/xlink" width="1080" zoomAndPan="magnify" viewBox="0 0 810 809.999993" height="1080" preserveAspectRatio="xMidYMid meet" version="1.0"><defs><clipPath id="3835de90d8"><path d="M 49.738281 0 L 759.988281 0 L 759.988281 810 L 49.738281 810 Z M 49.738281 0 " clip-rule="nonzero"/></clipPath></defs><g clip-path="url(#3835de90d8)"><path fill="#ffffff" d="M 248.636719 424.136719 L 248.636719 766.386719 L 225.757812 809.835938 L 568.585938 809.835938 L 552.496094 767.097656 L 552.496094 424.136719 L 586.152344 424.136719 L 760.128906 236.085938 L 760.128906 0.164062 L 739.242188 11.464844 L 732.644531 14.410156 L 726.472656 17.828125 L 720.300781 20.914062 L 714.320312 23.90625 L 708.148438 26.660156 L 702.027344 29.699219 L 695.855469 32.453125 L 690.0625 35.207031 L 683.890625 37.914062 L 678.101562 40.335938 L 672.261719 42.710938 L 666.136719 45.085938 L 660.300781 47.507812 L 654.507812 49.882812 L 648.667969 51.925781 L 642.878906 54.015625 L 637.417969 56.054688 L 631.578125 58.097656 L 625.789062 59.808594 L 620.328125 61.851562 L 614.492188 63.558594 L 608.699219 65.269531 L 603.238281 66.644531 L 597.402344 68.355469 L 591.941406 69.734375 L 586.152344 71.441406 L 580.691406 72.820312 L 574.851562 73.816406 L 569.394531 75.195312 L 563.933594 76.570312 L 530.707031 82.695312 C 528.53125 80.839844 526.316406 79.035156 524.0625 77.277344 C 521.808594 75.519531 519.515625 73.8125 517.183594 72.152344 C 514.855469 70.496094 512.492188 68.890625 510.089844 67.339844 C 507.691406 65.785156 505.257812 64.289062 502.789062 62.839844 C 500.324219 61.394531 497.828125 60.003906 495.300781 58.671875 C 492.769531 57.335938 490.214844 56.054688 487.632812 54.832031 C 485.046875 53.609375 482.4375 52.445312 479.800781 51.335938 C 477.167969 50.230469 474.507812 49.179688 471.828125 48.191406 C 469.144531 47.199219 466.445312 46.269531 463.722656 45.394531 C 461 44.523438 458.257812 43.714844 455.5 42.964844 C 452.742188 42.210938 449.96875 41.523438 447.179688 40.894531 C 444.390625 40.265625 441.589844 39.699219 438.777344 39.195312 C 435.964844 38.6875 433.140625 38.246094 430.308594 37.867188 C 427.472656 37.484375 424.632812 37.167969 421.785156 36.910156 C 418.941406 36.65625 416.089844 36.464844 413.234375 36.335938 C 410.378906 36.203125 407.519531 36.136719 404.660156 36.132812 C 401.804688 36.128906 398.945312 36.1875 396.089844 36.3125 C 393.234375 36.433594 390.382812 36.617188 387.535156 36.867188 C 384.6875 37.113281 381.847656 37.425781 379.011719 37.796875 C 376.179688 38.171875 373.355469 38.605469 370.539062 39.105469 C 367.722656 39.601562 364.921875 40.160156 362.132812 40.78125 C 359.339844 41.402344 356.566406 42.085938 353.804688 42.828125 C 351.046875 43.574219 348.300781 44.375 345.578125 45.242188 C 342.851562 46.105469 340.148438 47.027344 337.464844 48.011719 C 334.78125 48.996094 332.117188 50.039062 329.480469 51.140625 C 326.84375 52.238281 324.230469 53.398438 321.644531 54.613281 C 319.054688 55.832031 316.496094 57.101562 313.964844 58.429688 C 311.433594 59.761719 308.933594 61.144531 306.464844 62.582031 C 303.992188 64.023438 301.554688 65.515625 299.152344 67.0625 C 296.746094 68.609375 294.378906 70.207031 292.042969 71.855469 C 289.710938 73.507812 287.414062 75.210938 285.152344 76.960938 C 282.894531 78.714844 280.675781 80.515625 278.496094 82.363281 L 244.363281 76.429688 L 238.90625 75.050781 L 233.445312 74.007812 L 227.609375 72.628906 L 222.339844 71.394531 L 216.878906 70.019531 L 211.136719 68.214844 L 205.582031 66.644531 L 200.121094 64.9375 L 194.332031 63.226562 L 188.824219 61.898438 L 183.035156 60.1875 L 177.242188 58.144531 L 171.734375 56.105469 L 165.945312 54.015625 L 160.152344 51.972656 L 154.171875 49.742188 L 148.378906 47.367188 L 142.683594 45.277344 L 136.890625 42.902344 L 131.101562 40.148438 L 125.261719 37.773438 L 119.46875 35.019531 L 113.300781 32.644531 L 107.507812 29.558594 L 101.335938 26.851562 L 95.214844 23.90625 L 89.042969 21.152344 L 82.964844 17.589844 L 76.746094 14.410156 L 70.578125 11.371094 L 49.738281 0.164062 L 49.738281 236.085938 L 223.714844 424.136719 Z M 248.636719 424.136719 " fill-opacity="1" fill-rule="evenodd"/></g><path fill="#2e3192" d="M 227.796875 414.210938 L 292.40625 414.210938 C 283.625 408.863281 275.277344 402.902344 267.363281 396.335938 C 259.445312 389.769531 252.050781 382.664062 245.167969 375.023438 C 238.289062 367.378906 231.996094 359.277344 226.292969 350.71875 C 220.59375 342.160156 215.539062 333.230469 211.136719 323.9375 L 148.523438 252.136719 L 191.578125 251.851562 C 191.015625 245.53125 190.796875 239.199219 190.914062 232.855469 C 190.796875 223.316406 191.367188 213.820312 192.621094 204.363281 L 118.757812 204.03125 L 118.757812 124.628906 C 147.167969 136.09375 176.109375 146.003906 205.582031 154.355469 C 210.59375 141.976562 216.691406 130.15625 223.871094 118.894531 C 231.050781 107.632812 239.195312 97.117188 248.304688 87.351562 C 187.828125 75.050781 127.683594 53.492188 59.230469 16.59375 L 59.230469 232.332031 L 227.703125 414.210938 Z M 515.609375 414.210938 L 581.402344 414.210938 L 749.921875 232.332031 L 749.921875 16.59375 C 681.234375 53.492188 620.710938 75.050781 560.042969 87.351562 C 569.125 97.164062 577.226562 107.730469 584.34375 119.050781 C 591.460938 130.371094 597.476562 142.25 602.386719 154.6875 C 628.019531 147.375 656.40625 137.878906 690.585938 124.628906 L 690.585938 203.933594 L 615.390625 203.933594 C 616.769531 213.574219 617.449219 223.261719 617.433594 232.996094 C 617.441406 239.347656 617.109375 245.679688 616.4375 251.992188 L 660.867188 252.324219 L 596.925781 324.507812 C 592.484375 333.742188 587.398438 342.613281 581.675781 351.113281 C 575.953125 359.617188 569.652344 367.664062 562.769531 375.257812 C 555.886719 382.851562 548.496094 389.910156 540.59375 396.4375 C 532.691406 402.960938 524.363281 408.886719 515.609375 414.210938 Z M 515.609375 414.210938 " fill-opacity="1" fill-rule="evenodd"/><path fill="#ed1c24" d="M 404.148438 415.589844 C 407.140625 415.585938 410.128906 415.511719 413.113281 415.363281 C 416.101562 415.214844 419.082031 414.992188 422.054688 414.699219 C 425.03125 414.402344 428 414.035156 430.957031 413.59375 C 433.914062 413.152344 436.859375 412.640625 439.789062 412.054688 C 442.722656 411.472656 445.636719 410.816406 448.539062 410.085938 C 451.4375 409.359375 454.320312 408.5625 457.179688 407.691406 C 460.039062 406.824219 462.878906 405.882812 465.695312 404.875 C 468.507812 403.867188 471.296875 402.789062 474.058594 401.644531 C 476.820312 400.5 479.554688 399.289062 482.257812 398.011719 C 484.960938 396.730469 487.628906 395.386719 490.265625 393.976562 C 492.902344 392.566406 495.503906 391.09375 498.070312 389.554688 C 500.632812 388.019531 503.160156 386.417969 505.644531 384.757812 C 508.132812 383.097656 510.578125 381.375 512.980469 379.59375 C 515.382812 377.8125 517.738281 375.972656 520.050781 374.078125 C 522.363281 372.179688 524.625 370.226562 526.84375 368.21875 C 529.058594 366.210938 531.222656 364.152344 533.339844 362.039062 C 535.453125 359.925781 537.515625 357.757812 539.527344 355.542969 C 541.535156 353.328125 543.488281 351.066406 545.386719 348.753906 C 547.285156 346.445312 549.125 344.089844 550.910156 341.6875 C 552.691406 339.285156 554.414062 336.84375 556.078125 334.359375 C 557.742188 331.871094 559.34375 329.347656 560.882812 326.78125 C 562.421875 324.21875 563.898438 321.617188 565.308594 318.980469 C 566.722656 316.347656 568.070312 313.675781 569.351562 310.972656 C 570.632812 308.269531 571.847656 305.539062 572.992188 302.777344 C 574.140625 300.015625 575.21875 297.226562 576.230469 294.410156 C 577.242188 291.597656 578.183594 288.757812 579.054688 285.898438 C 579.925781 283.035156 580.726562 280.15625 581.457031 277.253906 C 582.1875 274.355469 582.847656 271.4375 583.4375 268.503906 C 584.023438 265.574219 584.539062 262.628906 584.984375 259.667969 C 585.425781 256.710938 585.796875 253.742188 586.09375 250.769531 C 586.390625 247.792969 586.617188 244.808594 586.769531 241.824219 C 586.921875 238.835938 587 235.847656 587.003906 232.855469 C 587.042969 220.074219 585.734375 207.433594 583.085938 194.933594 C 580.4375 182.429688 576.507812 170.34375 571.292969 158.679688 C 484.847656 178.148438 395.984375 187.171875 313.578125 171.308594 L 326.25 107.722656 C 343 110.339844 359.839844 112.105469 376.765625 113.019531 C 393.695312 113.933594 410.625 113.992188 427.558594 113.195312 C 444.492188 112.398438 461.34375 110.75 478.109375 108.246094 C 494.878906 105.746094 511.476562 102.40625 527.90625 98.226562 C 524.660156 95.230469 521.308594 92.355469 517.855469 89.601562 C 514.402344 86.847656 510.851562 84.222656 507.210938 81.726562 C 503.566406 79.230469 499.835938 76.871094 496.023438 74.644531 C 492.207031 72.417969 488.316406 70.332031 484.351562 68.386719 C 480.386719 66.445312 476.355469 64.644531 472.257812 62.992188 C 468.164062 61.34375 464.011719 59.839844 459.808594 58.488281 C 455.601562 57.136719 451.355469 55.941406 447.0625 54.898438 C 442.773438 53.851562 438.449219 52.964844 434.09375 52.238281 C 429.738281 51.507812 425.363281 50.933594 420.964844 50.523438 C 416.566406 50.109375 412.160156 49.855469 407.746094 49.761719 C 403.332031 49.667969 398.917969 49.734375 394.507812 49.960938 C 390.097656 50.1875 385.699219 50.570312 381.316406 51.117188 C 376.9375 51.660156 372.578125 52.363281 368.246094 53.222656 C 363.914062 54.082031 359.621094 55.097656 355.363281 56.269531 C 351.105469 57.441406 346.894531 58.765625 342.730469 60.242188 C 338.570312 61.71875 334.464844 63.34375 330.421875 65.121094 C 326.375 66.894531 322.402344 68.8125 318.496094 70.875 C 314.589844 72.9375 310.761719 75.136719 307.015625 77.476562 C 303.269531 79.816406 299.613281 82.285156 296.046875 84.890625 C 292.480469 87.496094 289.011719 90.226562 285.640625 93.082031 C 282.269531 95.9375 279.007812 98.910156 275.855469 102.003906 C 272.699219 105.09375 269.660156 108.296875 266.738281 111.609375 C 263.816406 114.921875 261.019531 118.335938 258.34375 121.851562 C 255.667969 125.363281 253.121094 128.972656 250.707031 132.671875 C 248.292969 136.371094 246.015625 140.152344 243.875 144.019531 C 241.738281 147.882812 239.738281 151.820312 237.882812 155.828125 C 236.027344 159.835938 234.320312 163.910156 232.761719 168.042969 C 231.199219 172.175781 229.789062 176.359375 228.53125 180.59375 C 227.277344 184.828125 226.171875 189.105469 225.226562 193.417969 C 224.277344 197.734375 223.488281 202.078125 222.851562 206.449219 C 222.21875 210.820312 221.746094 215.210938 221.429688 219.617188 C 221.113281 224.023438 220.957031 228.4375 220.960938 232.855469 C 221.011719 236.632812 221.246094 240.402344 221.675781 244.15625 C 300.617188 263.152344 433.203125 273.886719 507.066406 256.125 L 500.703125 331.820312 C 416.632812 349.960938 328.101562 342.410156 244.03125 321.230469 C 246.003906 324.78125 248.09375 328.265625 250.296875 331.675781 C 252.5 335.089844 254.816406 338.425781 257.238281 341.683594 C 259.664062 344.945312 262.195312 348.121094 264.832031 351.210938 C 267.46875 354.300781 270.203125 357.300781 273.039062 360.210938 C 275.875 363.117188 278.804688 365.929688 281.824219 368.644531 C 284.847656 371.359375 287.957031 373.96875 291.152344 376.476562 C 294.347656 378.984375 297.621094 381.386719 300.976562 383.675781 C 304.332031 385.964844 307.757812 388.140625 311.257812 390.203125 C 314.757812 392.265625 318.320312 394.210938 321.949219 396.035156 C 325.578125 397.859375 329.261719 399.5625 333.003906 401.144531 C 336.746094 402.722656 340.535156 404.179688 344.375 405.507812 C 348.210938 406.835938 352.089844 408.035156 356.007812 409.105469 C 359.925781 410.175781 363.875 411.117188 367.855469 411.921875 C 371.835938 412.730469 375.839844 413.40625 379.863281 413.949219 C 383.886719 414.492188 387.925781 414.898438 391.980469 415.171875 C 396.03125 415.445312 400.089844 415.585938 404.148438 415.589844 Z M 404.148438 415.589844 " fill-opacity="1" fill-rule="evenodd"/><path fill="#2e3192" d="M 258.558594 440.570312 L 291.691406 440.570312 L 291.691406 759.925781 L 258.558594 759.925781 Z M 258.558594 440.570312 " fill-opacity="1" fill-rule="nonzero"/><path fill="#2e3192" d="M 339.921875 759.976562 L 373.152344 759.976562 L 373.152344 440.570312 L 333.417969 440.570312 L 333.417969 477.132812 L 343.339844 477.132812 L 343.339844 514.414062 L 333.417969 514.414062 L 333.417969 553.734375 L 339.921875 553.734375 Z M 333.417969 440.570312 L 304.035156 440.570312 L 304.035156 553.734375 L 333.417969 553.734375 L 333.417969 514.414062 L 323.496094 514.414062 L 323.496094 477.132812 L 333.417969 477.132812 Z M 333.417969 440.570312 " fill-opacity="1" fill-rule="evenodd"/><path fill="#2e3192" d="M 425.367188 759.878906 L 458.503906 759.878906 L 458.503906 440.570312 L 389.148438 440.570312 L 389.148438 477.800781 L 425.367188 477.800781 Z M 425.367188 759.878906 " fill-opacity="1" fill-rule="evenodd"/><path fill="#2e3192" d="M 509.4375 759.976562 L 542.667969 759.976562 L 542.667969 440.570312 L 502.933594 440.570312 L 502.933594 477.132812 L 512.855469 477.132812 L 512.855469 514.414062 L 502.933594 514.414062 L 502.933594 553.734375 L 509.4375 553.734375 Z M 502.933594 440.570312 L 473.550781 440.570312 L 473.550781 553.734375 L 502.933594 553.734375 L 502.933594 514.414062 L 493.015625 514.414062 L 493.015625 477.132812 L 502.933594 477.132812 Z M 502.933594 440.570312 " fill-opacity="1" fill-rule="evenodd"/><path fill="#2e3192" d="M 241.800781 799.914062 L 554.535156 799.914062 L 542.574219 768.808594 L 258.558594 768.808594 Z M 241.800781 799.914062 " fill-opacity="1" fill-rule="evenodd"/></svg>