<svg xmlns="http://www.w3.org/2000/svg" viewBox="0 0 297.03 380.3"><defs><style>.cls-1{fill:#a57f3f;}.cls-1,.cls-10,.cls-100,.cls-101,.cls-102,.cls-103,.cls-104,.cls-105,.cls-106,.cls-107,.cls-108,.cls-109,.cls-11,.cls-110,.cls-111,.cls-112,.cls-113,.cls-114,.cls-115,.cls-116,.cls-117,.cls-118,.cls-119,.cls-12,.cls-120,.cls-121,.cls-122,.cls-123,.cls-124,.cls-125,.cls-126,.cls-127,.cls-128,.cls-129,.cls-13,.cls-130,.cls-131,.cls-132,.cls-133,.cls-134,.cls-135,.cls-136,.cls-137,.cls-138,.cls-139,.cls-14,.cls-140,.cls-141,.cls-142,.cls-143,.cls-144,.cls-145,.cls-146,.cls-147,.cls-148,.cls-149,.cls-15,.cls-150,.cls-151,.cls-152,.cls-153,.cls-154,.cls-156,.cls-157,.cls-158,.cls-159,.cls-16,.cls-160,.cls-161,.cls-162,.cls-163,.cls-164,.cls-165,.cls-166,.cls-167,.cls-168,.cls-169,.cls-17,.cls-170,.cls-171,.cls-172,.cls-173,.cls-174,.cls-175,.cls-176,.cls-177,.cls-178,.cls-179,.cls-18,.cls-180,.cls-181,.cls-182,.cls-183,.cls-184,.cls-185,.cls-186,.cls-187,.cls-188,.cls-189,.cls-19,.cls-190,.cls-191,.cls-192,.cls-193,.cls-194,.cls-195,.cls-196,.cls-197,.cls-198,.cls-199,.cls-2,.cls-20,.cls-200,.cls-201,.cls-202,.cls-203,.cls-204,.cls-205,.cls-206,.cls-207,.cls-208,.cls-209,.cls-21,.cls-210,.cls-211,.cls-212,.cls-213,.cls-214,.cls-215,.cls-216,.cls-217,.cls-218,.cls-219,.cls-22,.cls-220,.cls-221,.cls-222,.cls-223,.cls-224,.cls-225,.cls-226,.cls-227,.cls-228,.cls-229,.cls-23,.cls-230,.cls-231,.cls-232,.cls-233,.cls-234,.cls-235,.cls-236,.cls-237,.cls-238,.cls-239,.cls-24,.cls-240,.cls-241,.cls-242,.cls-243,.cls-244,.cls-245,.cls-246,.cls-25,.cls-26,.cls-27,.cls-28,.cls-29,.cls-3,.cls-30,.cls-31,.cls-32,.cls-33,.cls-34,.cls-35,.cls-36,.cls-37,.cls-38,.cls-39,.cls-4,.cls-40,.cls-41,.cls-42,.cls-43,.cls-44,.cls-45,.cls-46,.cls-47,.cls-48,.cls-49,.cls-5,.cls-50,.cls-51,.cls-52,.cls-53,.cls-54,.cls-55,.cls-56,.cls-57,.cls-58,.cls-59,.cls-6,.cls-60,.cls-61,.cls-62,.cls-63,.cls-64,.cls-65,.cls-66,.cls-67,.cls-68,.cls-69,.cls-7,.cls-70,.cls-71,.cls-72,.cls-73,.cls-74,.cls-75,.cls-76,.cls-77,.cls-78,.cls-79,.cls-8,.cls-80,.cls-81,.cls-82,.cls-83,.cls-84,.cls-85,.cls-86,.cls-87,.cls-88,.cls-89,.cls-9,.cls-90,.cls-91,.cls-92,.cls-93,.cls-94,.cls-95,.cls-96,.cls-97,.cls-98,.cls-99{fill-rule:evenodd;}.cls-2{fill:#a78140;}.cls-3{fill:#ab8542;}.cls-4{fill:#ad8744;}.cls-5{fill:#af8946;}.cls-6{fill:#b38d49;}.cls-7{fill:#b58f4a;}.cls-8{fill:#b9914c;}.cls-9{fill:#bb954f;}.cls-10{fill:#bd9751;}.cls-11{fill:#c19b53;}.cls-12{fill:#c39e57;}.cls-13{fill:#c7a059;}.cls-14{fill:#c9a35c;}.cls-15{fill:#cba75f;}.cls-16{fill:#d0aa61;}.cls-17{fill:#d4ae65;}.cls-18{fill:#d6b167;}.cls-19{fill:#d9b56a;}.cls-20{fill:#ddb86d;}.cls-21{fill:#ddba73;}.cls-22{fill:#dfbd79;}.cls-23{fill:#e1c180;}.cls-24{fill:#e3c486;}.cls-25{fill:#e3c68c;}.cls-26{fill:#e6cb94;}.cls-27{fill:#e8ce99;}.cls-28{fill:#e6cb95;}.cls-29{fill:#e0c38f;}.cls-30{fill:#dbc08b;}.cls-31{fill:#d6ba85;}.cls-32{fill:#d2b781;}.cls-33{fill:#ceb37d;}.cls-34{fill:#ccae79;}.cls-35{fill:#c6a874;}.cls-36{fill:#c4a670;}.cls-37{fill:#c2a46d;}.cls-38{fill:#bc9e68;}.cls-39{fill:#ba9a64;}.cls-40{fill:#b79760;}.cls-41{fill:#b5955c;}.cls-42{fill:#b08f56;}.cls-43{fill:#ae8d54;}.cls-44{fill:#aa8950;}.cls-45{fill:#a7864c;}.cls-46{fill:#a48248;}.cls-47{fill:#a08044;}.cls-48{fill:#9e7e41;}.cls-49{fill:#9b793d;}.cls-50{fill:#957337;}.cls-51{fill:#a8864b;}.cls-52{fill:#ae8b4e;}.cls-53{fill:#b38e52;}.cls-54{fill:#b79254;}.cls-55{fill:#bc9858;}.cls-56{fill:#be9c5a;}.cls-57{fill:#c4a15d;}.cls-58{fill:#caa762;}.cls-59{fill:#ceaa64;}.cls-60{fill:#d5b168;}.cls-61{fill:#dbb66d;}.cls-62{fill:#d6b36b;}.cls-63{fill:#d4af69;}.cls-64{fill:#d0ac67;}.cls-65{fill:#cda764;}.cls-66{fill:#c9a564;}.cls-67{fill:#c4a061;}.cls-68{fill:#c29e5f;}.cls-69{fill:#be995d;}.cls-70{fill:#ba975b;}.cls-71{fill:#b7935a;}.cls-72{fill:#b59158;}.cls-73{fill:#a58041;}.cls-74{fill:#a78142;}.cls-75{fill:#a78343;}.cls-76{fill:#a98545;}.cls-77{fill:#ab8546;}.cls-78{fill:#ab8748;}.cls-79{fill:#ad8949;}.cls-80{fill:#ae894a;}.cls-81{fill:#ae8b4c;}.cls-82{fill:#b08c4e;}.cls-83{fill:#b28e50;}.cls-84{fill:#b28f51;}.cls-85{fill:#b49153;}.cls-86{fill:#b49255;}.cls-87{fill:#b69357;}.cls-88{fill:#b89558;}.cls-89{fill:#b8965b;}.cls-90{fill:#ba985c;}.cls-91{fill:#bc995e;}.cls-92{fill:#bc9b60;}.cls-93{fill:#be9d62;}.cls-94{fill:#c09f64;}.cls-95{fill:#c09f66;}.cls-96{fill:#c2a168;}.cls-97{fill:#c4a46b;}.cls-98{fill:#c6a66f;}.cls-99{fill:#c7a86f;}.cls-100{fill:#c9aa71;}.cls-101{fill:#cbab75;}.cls-102{fill:#cbad75;}.cls-103{fill:#cdaf79;}.cls-104{fill:#cfb079;}.cls-105{fill:#cfb27c;}.cls-106{fill:#d1b47e;}.cls-107{fill:#d3b680;}.cls-108{fill:#d3b883;}.cls-109{fill:#d6b983;}.cls-110{fill:#d8bb86;}.cls-111{fill:#d8bb88;}.cls-112{fill:#dabe8a;}.cls-113{fill:#dac08c;}.cls-114{fill:#dcc28f;}.cls-115{fill:#dec390;}.cls-116{fill:#dec592;}.cls-117{fill:#e1c895;}.cls-118{fill:#e3ca97;}.cls-119{fill:#e3ca99;}.cls-120{fill:#e8d09e;}.cls-121{fill:#d2b26d;}.cls-122{fill:#ad894f;}.cls-123,.cls-155{fill:#3c6eb6;}.cls-124{fill:#bcbec0;}.cls-125{fill:#bec0c2;}.cls-126{fill:#c0c2c4;}.cls-127{fill:#c2c4c6;}.cls-128{fill:#c4c6c8;}.cls-129{fill:#c7c8ca;}.cls-130{fill:#c9cacc;}.cls-131{fill:#cbccce;}.cls-132{fill:#cdcfd0;}.cls-133{fill:#cfd1d2;}.cls-134{fill:#d1d3d4;}.cls-135{fill:#d3d5d6;}.cls-136{fill:#d5d7d8;}.cls-137{fill:#d8d9da;}.cls-138{fill:#dadbdc;}.cls-139{fill:#dcddde;}.cls-140{fill:#dedfe0;}.cls-141{fill:#e0e1e2;}.cls-142{fill:#e2e3e4;}.cls-143{fill:#e4e5e6;}.cls-144{fill:#e6e7e8;}.cls-145{fill:#e9e9ea;}.cls-146{fill:#ebebec;}.cls-147{fill:#ededee;}.cls-148{fill:#efeff0;}.cls-149{fill:#f1f2f2;}.cls-150{fill:#f3f4f4;}.cls-151{fill:#f6f6f6;}.cls-152{fill:#f8f8f9;}.cls-153{fill:#fbfbfb;}.cls-154,.cls-247{fill:#fff;}.cls-156{fill:#3b6fb7;}.cls-157{fill:#3970b8;}.cls-158{fill:#3c72b8;}.cls-159{fill:#3b73b9;}.cls-160{fill:#3a74ba;}.cls-161{fill:#3c76bb;}.cls-162{fill:#3b77bc;}.cls-163{fill:#3978bd;}.cls-164{fill:#3c7abe;}.cls-165{fill:#3b7bbf;}.cls-166{fill:#397dc0;}.cls-167{fill:#3c7ec1;}.cls-168{fill:#3b7fc2;}.cls-169{fill:#3f80c2;}.cls-170{fill:#3c82c4;}.cls-171{fill:#3985c6;}.cls-172{fill:#3d85c6;}.cls-173{fill:#3a88c8;}.cls-174{fill:#3c8bca;}.cls-175{fill:#3a8dcc;}.cls-176{fill:#3d8ecd;}.cls-177{fill:#3c90ce;}.cls-178{fill:#2a64ac;}.cls-179{fill:#9a7640;}.cls-180{fill:#9c783f;}.cls-181{fill:#9d7a42;}.cls-182{fill:#9f7b45;}.cls-183{fill:#9f7d45;}.cls-184{fill:#a17f46;}.cls-185{fill:#a17f48;}.cls-186{fill:#a28049;}.cls-187{fill:#a4824b;}.cls-188{fill:#a4824c;}.cls-189{fill:#a6844e;}.cls-190{fill:#aa8751;}.cls-191{fill:#aa8952;}.cls-192{fill:#ac8954;}.cls-193{fill:#ab8b56;}.cls-194{fill:#ad8b57;}.cls-195{fill:#ad8d59;}.cls-196{fill:#af8f59;}.cls-197{fill:#af8f5d;}.cls-198{fill:#b1915d;}.cls-199{fill:#b3935f;}.cls-200{fill:#b39360;}.cls-201{fill:#b59562;}.cls-202{fill:#b79764;}.cls-203{fill:#b79766;}.cls-204{fill:#b79968;}.cls-205{fill:#b99b6a;}.cls-206{fill:#bb9c6b;}.cls-207{fill:#bb9d6d;}.cls-208{fill:#bd9f6f;}.cls-209{fill:#c1a372;}.cls-210{fill:#c1a374;}.cls-211{fill:#c3a676;}.cls-212{fill:#c3a778;}.cls-213{fill:#c5a879;}.cls-214{fill:#c5aa7a;}.cls-215{fill:#c7ac7d;}.cls-216{fill:#caaf7f;}.cls-217{fill:#ccb181;}.cls-218{fill:#ccb183;}.cls-219{fill:#ceb385;}.cls-220{fill:#d3b889;}.cls-221{fill:#d3b98b;}.cls-222{fill:#d5bb8d;}.cls-223{fill:#d5bb8e;}.cls-224{fill:#d7be91;}.cls-225{fill:#ad8848;}.cls-226{fill:#b18b4c;}.cls-227{fill:#b69355;}.cls-228{fill:#ba975a;}.cls-229{fill:#bc995c;}.cls-230{fill:#c4a269;}.cls-231{fill:#c7a66c;}.cls-232{fill:#cba971;}.cls-233{fill:#cbab73;}.cls-234{fill:#cdad75;}.cls-235{fill:#d1b27b;}.cls-236{fill:#d3b47d;}.cls-237{fill:#d6b780;}.cls-238{fill:#d8b982;}.cls-239{fill:#d8bb85;}.cls-240{fill:#dabe87;}.cls-241{fill:#dcc08b;}.cls-242{fill:#dfc38d;}.cls-243{fill:#e1c68f;}.cls-244{fill:#e3c893;}.cls-245{fill:#e3ca95;}.cls-246{fill:#e6cb97;}</style></defs><title>Eszköz 1</title><g id="Réteg_2" data-name="Réteg 2"><g id="Layer_1" data-name="Layer 1"><path class="cls-1" d="M266.33,10.87,21.89,15.05c5.25-3.24,12.17-5.4,21.24-6.77A663.89,663.89,0,0,1,155.23.07c20.38.29,40.68,1.23,61,2.38a317.54,317.54,0,0,1,38.44,5.47A78.53,78.53,0,0,1,266.33,10.87Z"/><path class="cls-2" d="M53.35,6.77l176.11-3c8.5,1.08,17.07,2.6,25.2,4.18,11.74,2.23,19.66,5.47,25.13,10.51L13.39,23C19,15.05,28,10.58,43.13,8.28Z"/><path class="cls-3" d="M21.89,15.05l244.44-4.18c9.65,3.31,15.48,8.07,19.44,15.27L9.22,30.82C12,23.83,15.91,18.72,21.89,15.05Z"/><path class="cls-4" d="M13.39,23l266.4-4.54c4.25,3.89,7.13,8.93,9.15,15.41L6.77,38.59C8.35,32.26,10.44,27.14,13.39,23Z"/><path class="cls-5" d="M9.22,30.82l276.55-4.68c2.3,4.17,3.89,9.28,5.18,15.4L5.18,46.37A78.35,78.35,0,0,1,9.22,30.82Z"/><path class="cls-6" d="M6.77,38.59l282.17-4.75a99.91,99.91,0,0,1,3.45,15.41L4,54.14c.14-1.08.29-2.16.5-3.31A119.72,119.72,0,0,1,6.77,38.59Z"/><path class="cls-7" d="M5.18,46.37,291,41.54c.65,2.88,1.15,6,1.66,9.29l.86,6.19L3,61.92c.43-3.67.94-7.34,1.51-11.09C4.68,49.32,4.9,47.81,5.18,46.37Z"/><path class="cls-8" d="M4,54.14l288.43-4.89c.07.57.15,1.08.22,1.58.72,4.68,1.29,9.36,1.87,13.9L2.09,69.7C2.59,64.58,3.24,59.4,4,54.14Z"/><path class="cls-9" d="M3,61.92,293.47,57c.72,5.19,1.3,10.37,1.8,15.48l-293.9,5C1.8,72.36,2.3,67.18,3,61.92Z"/><path class="cls-10" d="M2.09,69.7l292.39-5c.58,5.25,1.08,10.44,1.44,15.55L.79,85.25Q1.23,77.59,2.09,69.7Z"/><path class="cls-11" d="M1.37,77.47l293.9-5c.51,5.26.87,10.37,1.15,15.48L.36,93C.58,87.91.94,82.73,1.37,77.47Z"/><path class="cls-12" d="M.79,85.25l295.13-5c.43,5.18.65,10.37.86,15.48L.14,100.8Q.26,93.14.79,85.25Z"/><path class="cls-13" d="M.36,93l296.06-5c.29,5.26.51,10.44.58,15.56l-297,5C.07,103.46.14,98.28.36,93Z"/><path class="cls-14" d="M.14,100.8l296.64-5q.33,7.89.22,15.55l-296.93,5C0,111.17,0,106.06.14,100.8Z"/><path class="cls-15" d="M0,108.58l297-5c.07,5.18,0,10.36-.14,15.48l-296.5,5C.14,118.94,0,113.76,0,108.58Z"/><path class="cls-16" d="M.07,116.35l296.93-5c0,5.19-.14,10.37-.43,15.48l-295.85,5C.43,126.72.22,121.54.07,116.35Z"/><path class="cls-17" d="M.36,124.06l296.5-5c-.15,5.25-.36,10.44-.72,15.55l-294.84,5C.86,134.5.58,129.31.36,124.06Z"/><path class="cls-18" d="M.72,131.83l295.85-5q-.33,7.89-1.08,15.55l-293.4,5C1.51,142.2,1.08,137.09.72,131.83Z"/><path class="cls-19" d="M1.3,139.61l294.84-5c-.36,5.25-.87,10.44-1.44,15.55L3,155.09C2.3,150,1.73,144.79,1.3,139.61Z"/><path class="cls-20" d="M2.09,147.31l293.4-5c-.51,5.26-1.08,10.44-1.8,15.56L4,162.79C3.31,157.68,2.59,152.57,2.09,147.31Z"/><path class="cls-21" d="M3,155.09l291.75-5c-.65,5.26-1.3,10.44-2.16,15.55L5.33,170.57C4.39,165.46,3.67,160.27,3,155.09Z"/><path class="cls-22" d="M4,162.79l289.66-4.89c-.72,5.25-1.51,10.44-2.45,15.55L6.77,178.27C5.76,173.23,4.82,168.05,4,162.79Z"/><path class="cls-23" d="M5.33,170.57l287.21-4.9q-1.31,7.89-2.81,15.55L8.35,186C7.27,180.94,6.19,175.75,5.33,170.57Z"/><path class="cls-24" d="M6.77,178.27l284.47-4.82Q289.73,181.33,288,189L10.15,193.68C8.93,188.57,7.78,183.53,6.77,178.27Z"/><path class="cls-25" d="M8.35,186l281.38-4.76c-1.15,5.26-2.31,10.44-3.6,15.56l-274,4.6C10.8,196.34,9.5,191.16,8.35,186Z"/><path class="cls-26" d="M10.15,193.68,288,189c-1.22,5.26-2.52,10.44-4,15.55L14.33,209.16C12.82,204.05,11.45,198.94,10.15,193.68Z"/><path class="cls-27" d="M12.17,201.38l274-4.6c-1.37,5.25-2.81,10.44-4.39,15.62l-265,4.46C15.05,211.75,13.54,206.64,12.17,201.38Z"/><path class="cls-28" d="M14.33,209.16,284,204.55c-1.51,5.26-3.1,10.51-4.75,15.63L19.22,224.57C17.5,219.53,15.84,214.34,14.33,209.16Z"/><path class="cls-29" d="M16.7,216.86l265-4.46c-1.59,5.26-3.32,10.44-5.12,15.55L22,232.27C20.09,227.23,18.36,222.05,16.7,216.86Z"/><path class="cls-30" d="M19.22,224.57l260.07-4.39c-1.44,4.46-3,8.85-4.61,13.24-.29.8-.58,1.59-.94,2.38L24.91,240c-.86-2.16-1.73-4.32-2.52-6.56C21.31,230.54,20.23,227.52,19.22,224.57Z"/><path class="cls-31" d="M22,232.27,276.62,228c-.64,1.87-1.29,3.67-1.94,5.47q-1.95,5.19-4.1,10.16l-242.36,4.1c-2.08-4.61-4-9.43-5.83-14.26C22.25,233.06,22.1,232.7,22,232.27Z"/><path class="cls-32" d="M24.91,240l248.83-4.18c-2,5.33-4.24,10.51-6.62,15.62l-235.22,4C29.38,250.34,27.07,245.23,24.91,240Z"/><path class="cls-33" d="M28.22,247.68l242.36-4.1c-2.24,5.32-4.68,10.58-7.35,15.69L35.86,263.09C33.12,258.05,30.6,252.94,28.22,247.68Z"/><path class="cls-34" d="M31.9,255.38l235.22-4c-2.52,5.33-5.26,10.59-8.14,15.63l-218.8,3.74C37.22,265.75,34.49,260.64,31.9,255.38Z"/><path class="cls-35" d="M35.86,263.09l227.37-3.82c-2.73,5.33-5.69,10.51-8.78,15.63L44.86,278.5C41.69,273.46,38.66,268.34,35.86,263.09Z"/><path class="cls-36" d="M40.18,270.79,259,267.05c-3,5.4-6.19,10.58-9.57,15.69L49.9,286.13C46.51,281.16,43.2,276.05,40.18,270.79Z"/><path class="cls-37" d="M44.86,278.5l209.59-3.6c-3.31,5.4-6.77,10.58-10.44,15.69L55.37,293.83C51.7,288.79,48.17,283.68,44.86,278.5Z"/><path class="cls-38" d="M49.9,286.13l199.51-3.39q-5.29,8.1-11.23,15.77l-177,2.95C57.24,296.5,53.5,291.38,49.9,286.13Z"/><path class="cls-39" d="M55.37,293.83,244,290.59q-5.73,8.1-12.1,15.77L67.46,309.17C63.29,304.13,59.18,299,55.37,293.83Z"/><path class="cls-40" d="M61.2,301.46l177-2.95c-4.11,5.33-8.5,10.59-13,15.7L74.16,316.8Q67.35,309.34,61.2,301.46Z"/><path class="cls-41" d="M67.46,309.17l164.45-2.81c-4.46,5.4-9.07,10.66-13.89,15.77l-136.73,2.3C76.46,319.46,71.86,314.35,67.46,309.17Z"/><path class="cls-42" d="M74.16,316.8l151.06-2.59Q218,322.31,210.31,330L88.85,332.06C83.74,327.1,78.84,322,74.16,316.8Z"/><path class="cls-43" d="M81.29,324.43,218,322.13q-7.68,8.1-15.92,15.77L96.84,339.7C91.51,334.73,86.26,329.69,81.29,324.43Z"/><path class="cls-44" d="M88.85,332.06,210.31,330c-5.47,5.47-11.16,10.72-16.92,15.84l-88,1.51C99.72,342.36,94.18,337.32,88.85,332.06Z"/><path class="cls-45" d="M96.84,339.7l105.26-1.8c-5.83,5.47-11.88,10.72-18.07,15.84l-69.62,1.15C108.43,350,102.53,345,96.84,339.7Z"/><path class="cls-46" d="M105.41,347.33l88-1.51c-6.26,5.47-12.67,10.72-19.22,15.84l-50.19.86C117.65,357.62,111.46,352.51,105.41,347.33Z"/><path class="cls-47" d="M114.41,354.89,184,353.74c-6.62,5.47-13.39,10.72-20.37,15.84l-29.6.5C127.37,365.18,120.82,360.14,114.41,354.89Z"/><path class="cls-48" d="M124,362.52l50.19-.86c-7.06,5.47-14.33,10.8-21.6,15.91l-7.85.14C137.74,372.82,130.75,367.78,124,362.52Z"/><path class="cls-49" d="M134.06,370.08l29.6-.5c-5,3.67-10,7.27-15.12,10.72C143.71,377,138.82,373.61,134.06,370.08Z"/><path class="cls-50" d="M144.72,377.71l7.85-.14c-1.3.86-2.67,1.8-4,2.73C147.31,379.44,146,378.58,144.72,377.71Z"/><path class="cls-51" d="M273.46,17.42,250,7.2c8.86,1.73,17.5,4,23.91,7.13A10.26,10.26,0,0,0,273.46,17.42Z"/><path class="cls-52" d="M274.25,21.38,236.52,5c12.89,1.8,27.65,4.68,37.37,9.36a9.45,9.45,0,0,0-.36,3.89A15,15,0,0,0,274.25,21.38Z"/><path class="cls-53" d="M250,7.2l23.48,10.22a3.1,3.1,0,0,0,.07.8c.21,2.08,1.29,4.75,2.37,7.56l-6.55-2.88a14.24,14.24,0,0,0-6.12-3l-1.44-.21L224.86,3.53C232.06,4.32,241.13,5.47,250,7.2Z"/><path class="cls-54" d="M236.52,5l37.73,16.41c.93,2.74,2.37,5.91,3.45,8.79l-2.52-1.08c-3.16-4.18-7.56-8.5-11.95-9.22L248.4,17.42,214.49,2.66l5.76.44C224.78,3.53,230.4,4.1,236.52,5Z"/><path class="cls-55" d="M224.86,3.53l36.93,16.13-26.85-4.4L204.7,2.09c5.32.29,10.51.65,15.55,1l4.61.43ZM269.35,22.9l6.55,2.88a41.71,41.71,0,0,1,3,8.56l-.22-.07C276.77,31,273.31,26.06,269.35,22.9Z"/><path class="cls-56" d="M214.49,2.66,248.4,17.42,221.47,13,195.19,1.58l19.3,1.08Zm60.69,26.43,2.52,1.08a23.46,23.46,0,0,1,1.23,4.61h0A47.16,47.16,0,0,0,275.18,29.09Z"/><path class="cls-57" d="M204.7,2.09l30.24,13.17-26.86-4.39L185.83,1.15c6.19.29,12.6.58,18.87.94Zm73.94,32.18.22.07c0,.15.07.29.07.44h0A3.3,3.3,0,0,0,278.64,34.27Z"/><path class="cls-58" d="M195.19,1.58,221.47,13,207.86,10.8l-9.36-.43-22-9.58C182.52,1,188.86,1.3,195.19,1.58Z"/><path class="cls-59" d="M185.83,1.15l22.25,9.72-.22-.07L189,9.86,167.47.5C173.16.65,179.42.86,185.83,1.15Z"/><path class="cls-60" d="M176.54.79l22,9.58-18.93-1L158.47.22C163.94.36,170.06.58,176.54.79Z"/><path class="cls-20" d="M167.47.5,189,9.86l-18.94-.93L149.76.07C154.73.14,160.7.29,167.47.5Z"/><path class="cls-61" d="M158.47.22l21.1,9.14-19-.94L141.34,0C145.22,0,151.27.07,158.47.22Z"/><path class="cls-62" d="M149.76.07l20.3,8.86-13.6-.72-5-.15L133.2.14h.43l6.55-.07C142.56,0,145.8,0,149.76.07Z"/><path class="cls-63" d="M141.34,0l19.22,8.42-4.1-.21-14.19-.43L125.78.58l7.85-.44,6.55-.07A6,6,0,0,1,141.34,0Z"/><polygon class="cls-64" points="133.2 0.14 151.42 8.06 141.7 7.7 133.06 7.34 118.3 0.94 133.2 0.14"/><polygon class="cls-65" points="125.78 0.58 142.27 7.78 141.7 7.7 123.77 6.98 110.81 1.37 125.78 0.58"/><polygon class="cls-66" points="118.3 0.94 133.06 7.34 114.48 6.62 103.54 1.8 107.86 1.51 118.3 0.94"/><polygon class="cls-67" points="110.81 1.37 123.77 6.98 105.26 6.19 96.26 2.3 107.86 1.51 110.81 1.37"/><polygon class="cls-68" points="103.54 1.8 114.48 6.62 95.98 5.83 89.06 2.88 90.07 2.74 103.54 1.8"/><polygon class="cls-69" points="96.26 2.3 105.26 6.19 86.69 5.47 82.22 3.53 90.07 2.74 96.26 2.3"/><polygon class="cls-70" points="89.06 2.88 95.98 5.83 77.4 5.04 75.38 4.18 89.06 2.88"/><polygon class="cls-71" points="82.22 3.53 86.69 5.47 69.48 4.75 82.22 3.53"/><polygon class="cls-72" points="75.38 4.18 77.4 5.04 69.48 4.75 75.38 4.18"/><path class="cls-73" d="M18.22,21.74V32.18a21.66,21.66,0,0,0-1.16,2.31C16.63,29.23,17.06,25.06,18.22,21.74Z"/><path class="cls-74" d="M19.51,18.86V30a46.55,46.55,0,0,0-2.45,4.54C16.49,27.65,17.35,22.54,19.51,18.86Z"/><path class="cls-75" d="M18.22,32.18V21.74a14.8,14.8,0,0,1,2.66-4.82V28.15A20.41,20.41,0,0,0,18.22,32.18Z"/><path class="cls-76" d="M19.51,30V18.86a13.61,13.61,0,0,1,2.67-3.31V26.64A32.37,32.37,0,0,0,19.51,30Z"/><path class="cls-77" d="M20.88,28.15V16.92a11.46,11.46,0,0,1,2.09-2l.5-.28v10.8A18.7,18.7,0,0,0,20.88,28.15Z"/><path class="cls-78" d="M22.18,26.64V15.55A8.08,8.08,0,0,1,23,14.9c.65-.36,1.22-.64,1.8-1V24.34A23.38,23.38,0,0,0,22.18,26.64Z"/><path class="cls-79" d="M23.47,25.42V14.62c.87-.44,1.73-.94,2.67-1.37V23.4A17.2,17.2,0,0,0,23.47,25.42Z"/><path class="cls-80" d="M24.77,24.34V13.9c.86-.44,1.73-.8,2.66-1.23v10A17.58,17.58,0,0,0,24.77,24.34Z"/><path class="cls-81" d="M26.14,23.4V13.25c.79-.36,1.65-.79,2.59-1.15V22A22.3,22.3,0,0,0,26.14,23.4Z"/><path class="cls-82" d="M27.43,22.68v-10c.79-.36,1.73-.72,2.67-1.08v9.87A18.39,18.39,0,0,0,27.43,22.68Z"/><path class="cls-83" d="M28.73,22V12.1c.86-.29,1.73-.65,2.66-.94V21A21.2,21.2,0,0,0,28.73,22Z"/><path class="cls-84" d="M30.1,21.46V11.59c.79-.29,1.65-.57,2.59-.86v9.86A18.33,18.33,0,0,0,30.1,21.46Z"/><path class="cls-85" d="M31.39,21V11.16c.79-.29,1.73-.5,2.67-.79v9.86C33.12,20.45,32.26,20.66,31.39,21Z"/><path class="cls-86" d="M32.69,20.59V10.73l2.66-.65v9.86C34.49,20.16,33.62,20.3,32.69,20.59Z"/><path class="cls-87" d="M34.06,20.23V10.37c.79-.22,1.65-.36,2.59-.58v9.94C35.78,19.87,34.92,20,34.06,20.23Z"/><path class="cls-88" d="M35.35,19.94V10.08c.51-.14,1-.22,1.51-.36L38,9.5v10Z"/><path class="cls-89" d="M36.65,19.73V9.79l.21-.07c.8-.14,1.59-.36,2.45-.5V19.3Z"/><path class="cls-90" d="M38,19.51V9.5c.86-.21,1.72-.36,2.59-.5V19.15C39.74,19.3,38.88,19.37,38,19.51Z"/><path class="cls-91" d="M39.31,19.3V9.22c.87-.15,1.73-.36,2.67-.51V19C41,19.08,40.18,19.22,39.31,19.3Z"/><path class="cls-92" d="M40.61,19.15V9c.86-.22,1.8-.36,2.66-.5V18.86C42.41,19,41.54,19.08,40.61,19.15Z"/><path class="cls-93" d="M42,19V8.71l2.59-.43V18.79Z"/><path class="cls-94" d="M43.27,18.86V8.5l2.67-.44V18.65Z"/><path class="cls-95" d="M44.57,18.79V8.28c.86-.14,1.8-.29,2.66-.5V18.5C46.37,18.65,45.5,18.72,44.57,18.79Z"/><path class="cls-96" d="M45.94,18.65V8.06c.86-.21,1.72-.28,2.59-.43v10.8Z"/><path class="cls-97" d="M47.23,18.5V7.78c.87-.08,1.73-.22,2.67-.36V18.29Z"/><path class="cls-97" d="M48.53,18.43V7.63l2.66-.43V18.07C50.33,18.22,49.46,18.29,48.53,18.43Z"/><path class="cls-98" d="M49.9,18.29V7.42L52.49,7v11C51.62,18.07,50.76,18.14,49.9,18.29Z"/><path class="cls-99" d="M51.19,18.07V7.2c.87-.14,1.73-.29,2.67-.36V17.71C53,17.86,52.06,18,51.19,18.07Z"/><path class="cls-100" d="M52.49,17.93V7c.93-.14,1.8-.21,2.66-.36v10.8C54.29,17.64,53.42,17.78,52.49,17.93Z"/><path class="cls-101" d="M53.86,17.71V6.84l2.59-.43V17.14C55.58,17.35,54.72,17.57,53.86,17.71Z"/><path class="cls-102" d="M55.15,17.42V6.62c.87-.14,1.73-.21,2.67-.36V16.78A18.48,18.48,0,0,1,55.15,17.42Z"/><path class="cls-103" d="M56.45,17.14V6.41c.93-.07,1.8-.22,2.66-.29v10.3C58.25,16.7,57.38,16.92,56.45,17.14Z"/><path class="cls-104" d="M57.82,16.78V6.26c.86-.14,1.72-.21,2.59-.36V16.06c-.43.07-.79.21-1.08.28Z"/><path class="cls-105" d="M59.11,16.42V6.12c.87-.14,1.73-.29,2.67-.36V15.84a11,11,0,0,0-2.45.5A.26.26,0,0,0,59.11,16.42Z"/><path class="cls-106" d="M60.41,16.06V5.9c.93-.07,1.8-.21,2.66-.28V15.7A18.68,18.68,0,0,0,60.41,16.06Z"/><path class="cls-107" d="M61.78,15.84V5.76c.86-.14,1.72-.22,2.59-.36V15.55C63.36,15.62,62.5,15.77,61.78,15.84Z"/><path class="cls-108" d="M63.07,15.7V5.62c.87-.15,1.8-.22,2.67-.36V15.41A23.22,23.22,0,0,0,63.07,15.7Z"/><path class="cls-109" d="M64.37,15.55V5.4c.93-.07,1.8-.14,2.66-.29V15.26C66.1,15.41,65.23,15.48,64.37,15.55Z"/><path class="cls-110" d="M65.74,15.41V5.26C66.6,5.18,67.46,5,68.33,5V15.19Z"/><path class="cls-111" d="M67,15.26V5.11c.87-.07,1.8-.21,2.67-.29v10.3C68.76,15.19,67.9,15.26,67,15.26Z"/><path class="cls-112" d="M68.33,15.19V5c.93-.07,1.8-.22,2.66-.29V15.05C70.06,15.05,69.19,15.12,68.33,15.19Z"/><path class="cls-113" d="M69.7,15.12V4.82c.86-.07,1.72-.21,2.59-.28V14.9Z"/><path class="cls-114" d="M71,15.05V4.68c.87-.07,1.8-.14,2.67-.29V14.83Z"/><path class="cls-115" d="M72.29,14.9V4.54L75,4.32V14.76C74,14.83,73.15,14.9,72.29,14.9Z"/><path class="cls-116" d="M73.66,14.83V4.39l2.59-.21V14.69C75.38,14.76,74.52,14.83,73.66,14.83Z"/><path class="cls-117" d="M75,14.76V4.32L77,4.1h.58V14.62C76.68,14.69,75.82,14.76,75,14.76Z"/><path class="cls-118" d="M76.25,14.69V4.18L77,4.1h1.87V14.54C78,14.62,77.11,14.69,76.25,14.69Z"/><path class="cls-119" d="M77.62,14.62V4.1h2.59V14.54C79.34,14.54,78.48,14.62,77.62,14.62Z"/><path class="cls-120" d="M78.91,14.54V4.1c.87,0,1.73-.07,2.67-.07V14.47C80.64,14.47,79.78,14.54,78.91,14.54Z"/><path class="cls-120" d="M80.21,14.54V4.1c17.28-.14,38.3.15,61.27,1.59,4.9.86,8.78.36,8.86,1.58v.07c0,.15-.08.22-.15.36-1.08,2.38-6.69,2.09-7.05,2.52C141.34,12.53,104.62,13.32,80.21,14.54Z"/><polygon class="cls-121" points="36.65 21.24 260.42 21.24 253.08 16.85 145.3 10.44 48.46 16.85 36.65 21.24"/><path class="cls-122" d="M279.36,35.64c-3.38-7.27-8-11.16-15-13.46A72.23,72.23,0,0,0,250,19.51c-29.37-3.17-59.4-4.39-89-5.4A674.22,674.22,0,0,0,46.8,19.51a86.61,86.61,0,0,0-14.4,2.67c-6.91,2.3-11.52,6.19-14.9,13.46-.44-5,2.73-13.54,8.35-15.84,9.21-3.82,21.6-4.68,33.33-6.12,7.13-.86,41.62-4,65.16-5.11,17.57-.79,33.92.07,51.41.86,23.19,1.08,52.35,1.73,59,3,11.52,2.16,19.51,2.23,28.73,6C269.06,20.81,275.69,27.43,279.36,35.64Z"/><path class="cls-123" d="M266.18,233.21c-21.52,62.06-59.32,106.27-117.64,144.36-58.32-38.09-96.12-82.3-117.65-144.36C12.46,180.22,6,120,15.62,50.83,19.44,23.83,31.39,22,52.13,22.1l46.44.36h99.86l46.51-.36c20.74-.14,32.69,1.73,36.51,28.73C291.1,120,284.62,180.22,266.18,233.21Z"/><polygon class="cls-124" points="135.5 370.73 141.12 370.58 144.07 372.6 148.54 375.62 153.07 372.6 156.46 370.3 162.29 370.15 160.13 371.74 154.87 375.34 148.54 379.58 142.2 375.34 136.94 371.74 135.5 370.73"/><polygon class="cls-124" points="151.2 377.78 146.09 377.93 142.2 375.34 136.94 371.74 131.76 368.06 126.65 364.32 125.64 363.53 131.04 363.38 133.63 365.33 138.82 369 144.07 372.6 148.54 375.62 153.07 372.6 158.26 369 163.37 365.33 167.04 362.66 172.73 362.52 170.42 364.32 165.31 368.06 160.13 371.74 154.87 375.34 151.2 377.78"/><path class="cls-125" d="M162.29,370.15l-5.83.15,1.8-1.3,5.11-3.67,5-3.67,4.89-3.75L177,355l5.4-.07-2.16,1.73-4.83,3.81-5,3.82-5.11,3.74-3,2.09Zm-21.17.43-5.62.15-3.74-2.67-5.11-3.74-5-3.82-4.82-3.81-.51-.36,5.19-.15,2.16,1.73,4.89,3.75,5,3.67,5.19,3.67Z"/><path class="cls-125" d="M172.73,362.52l-5.69.14,1.37-1,4.89-3.75,4.83-3.74,4.68-3.89,3.38-2.81,5.11-.14-1.72,1.58-4.68,4-4.68,3.82-4.83,3.81-2.66,2Zm-41.69.86-5.4.15-4-3-4.82-3.81-4.76-3.82-4.39-3.81,5-.08,1.58,1.3,4.68,3.89,4.76,3.74,4.89,3.75Z"/><path class="cls-126" d="M182.38,355,177,355l1.15-.86,4.68-3.89,4.53-3.89,4.47-3.89,2.88-2.66,5-.07-1.23,1.15L194,345l-4.46,4-4.68,4L182.38,355Zm-60.84,1.22-5.19.15-4.25-3.46-4.6-4L103,345l-3.38-3.09,4.75-.15.79.79,4.47,3.89,4.6,3.89,4.68,3.89Z"/><path class="cls-127" d="M191.3,347.33l-5.11.14,1.15-1.08,4.47-3.89,4.39-4,4.18-4,2.16-2.16,4.82-.07-.5.43-4.18,4.18-4.25,4.1L194,345l-2.74,2.38ZM112.68,349l-5,.08-.21-.15L103,345l-4.39-4-4.32-4.1-2.23-2.24,4.61-.07,4.17,4,4.32,4,4.47,3.89Z"/><path class="cls-127" d="M199.66,339.77l-5,.07,1.51-1.37,4.18-4,4.1-4.1,4-4.11,1.37-1.51,4.54-.07-3.53,3.81-4,4.18-4.18,4.18-3,2.95Zm-95.26,1.94-4.75.15-1-.94-4.32-4.1-4.1-4.18-4.11-4.18-1-1.15,4.47-.07,3,3.1,4.1,4.1,4.25,4Z"/><path class="cls-128" d="M207.36,332.21l-4.82.07,1.94-1.94,4-4.11L212.4,322l3.82-4.32.36-.5,4.39-.07-2.31,2.73-3.81,4.4-4,4.24-3.53,3.75ZM96.7,334.51l-4.61.07-1.87-1.94-4.11-4.18-3.89-4.24L78.55,320l4.32-.07,1.8,2,3.89,4.25,4,4.11,4.1,4.1Z"/><path class="cls-129" d="M214.42,324.65l-4.54.07L212.4,322l3.82-4.32,3.67-4.32,3-3.67,4.25-.14L226,311l-3.6,4.46-3.75,4.39-3.81,4.4-.43.43ZM89.57,327.24l-4.47.07-2.88-3.09-3.88-4.4-3.68-4.39-2.16-2.66,4.18-.07.5.64,3.68,4.32L84.67,322l3.89,4.25Z"/><path class="cls-129" d="M221,317.09l-4.39.07,3.31-3.82,3.53-4.46,3.45-4.46,1.66-2.31,4.17-.07-3.16,4.32L226,311l-3.6,4.46L221,317.09ZM82.87,320l-4.32.07-.21-.22-3.68-4.39L71.06,311l-3.52-4.61-.65-.86,4-.08,2.74,3.46,3.52,4.46,3.68,4.32Z"/><path class="cls-130" d="M227.09,309.53l-4.25.14.58-.79,3.45-4.46,3.39-4.61,3.24-4.61.36-.58,4-.07-1.66,2.52-3.31,4.68-3.38,4.61-2.45,3.17ZM76.68,312.7l-4.18.07L71.06,311l-3.52-4.61-3.39-4.61-2.52-3.53,4-.14,1.23,1.73,3.38,4.61,3.46,4.46Z"/><path class="cls-130" d="M232.7,302l-4.17.07,1.73-2.3,3.24-4.61,3.16-4.75,2.09-3.39,4-.07-.21.36-3.1,4.9-3.17,4.82-3.31,4.68-.22.29ZM70.92,305.42l-4,.08-2.74-3.75-3.31-4.68-3.17-4.82-.86-1.37,3.81-.07,3,4.39,3.24,4.61,3.38,4.61Z"/><path class="cls-131" d="M237.89,294.55l-4,.07,2.8-4.17,3-4.83,2.95-4.89.65-1.15,3.81-.08-1.65,3-2.95,4.89-3.1,4.9-1.51,2.3Zm-172.3,3.53-4,.14-.79-1.15-3.17-4.82-3.09-4.9-2.31-3.81,3.82-.08,1.29,2.16,3,4.83,3.17,4.75Z"/><path class="cls-132" d="M242.71,287l-4,.07.94-1.44,2.95-4.89,2.81-5,2-3.67,3.75-.07-.07.21-2.81,5.19-2.88,5L242.71,287ZM60.62,290.81l-3.81.07-2.23-3.53-3-4.89-2.88-5-.57-1.16,3.74-.07,2.59,4.54,3,4.89,3,4.83Z"/><path class="cls-132" d="M247.1,279.5l-3.81.08,2.16-3.82,2.73-5,2.67-5.11.43-1,3.74-.07-1.22,2.52-2.66,5.18-2.81,5.19-1.23,2.08Zm-191,4-3.82.08-.72-1.08-2.88-5-2.73-5.19-1.73-3.31,3.67-.07,1,1.87,2.73,5,2.81,5Z"/><path class="cls-133" d="M251.21,272l-3.75.07.72-1.37,2.67-5.11,2.52-5.26,1.44-3.24,3.67-.07-2.09,4.68-2.59,5.33-2.59,5ZM51.84,276.19l-3.74.07-2.16-4-2.67-5.18-2.59-5.33-.07-.14,3.67-.08,1.94,4.11,2.67,5.11,2.73,5Z"/><path class="cls-134" d="M255,264.53l-3.74.07,2.09-4.25,2.45-5.33,2.3-5.4,3.6-.07-.5,1.3-2.38,5.47-2.45,5.4L255,264.53ZM47.88,268.85l-3.67.07-.94-1.87-2.59-5.33-2.45-5.4-.93-2.09,3.6-.07.36.86,2.44,5.33,2.52,5.26Z"/><path class="cls-134" d="M258.48,257l-3.67.07,1-2.09,2.3-5.47,2.3-5.54.72-1.8,3.53-.07-1.22,3.09-2.23,5.62-2.38,5.47-.36.72ZM44.28,261.5l-3.67.08-2.38-5.26-2.37-5.47-1.59-4,3.53-.07,1.08,2.73L41.26,255l2.44,5.33Z"/><path class="cls-135" d="M261.72,249.55l-3.6.07v-.07l2.3-5.54,2.16-5.62,1.3-3.67,3.53-.07-1.73,4.89-2.23,5.69-1.73,4.32ZM40.9,254.16l-3.6.07-1.44-3.38-2.31-5.62-2.16-5.69,3.53-.07L36.65,244l2.23,5.54Z"/><path class="cls-135" d="M264.67,242.14l-3.53.07,1.44-3.82,2-5.69,1.73-5,.14-.51,3.46-.07-.51,1.58-1.72,5-2,5.76-1,2.6ZM37.8,246.82l-3.53.07-.72-1.66-2.16-5.69-2.09-5.76-.5-1.58,3.46-.07.21.57,2,5.69L36.65,244Z"/><path class="cls-136" d="M267.41,234.65l-3.53.07.72-2,1.73-5,1.58-5,.87-2.88,3.45-.08-1.15,4-1.66,5-1.72,5-.29.87ZM34.92,239.47l-3.53.07h0l-2.09-5.76-1.65-5-1.3-3.88,3.46-.08.93,3,1.73,5,2,5.69Z"/><path class="cls-137" d="M269.93,227.16l-3.46.07,1.44-4.53,1.51-5,1.52-5.12.07-.21,3.38-.07-.29,1.15-1.51,5.18-1.51,5.11-1.15,3.46Zm-237.67,5-3.46.07-1.15-3.46-1.66-5-1.58-5.11-.29-1.08,3.38-.07.08.22,1.58,5,1.58,5Z"/><path class="cls-137" d="M272.23,219.74l-3.45.08.64-2.16,1.52-5.12,1.36-5.18.65-2.45,3.46-.07-.87,3.38-1.44,5.19-1.51,5.18-.36,1.15Zm-242.42,5-3.46.08L26,223.7l-1.58-5.11L23,213.41,22,210.1l3.46-.08.65,2.52,1.44,5.12,1.58,5Z"/><path class="cls-138" d="M274.39,212.26l-3.38.07,1.29-5,1.37-5.18,1.08-4.76,3.46-.07-.07.36-1.3,5.26-1.3,5.25-1.15,4ZM27.5,217.44l-3.38.07L23,213.41l-1.44-5.19L20.16,203v-.22l3.38-.07,1.16,4.68,1.44,5.18Z"/><path class="cls-138" d="M276.41,204.84l-3.46.07.72-2.73L274.9,197l1.15-5.33.36-1.65,3.38-.07-.5,2.44-1.15,5.33-1.3,5.26-.43,1.87ZM25.49,210,22,210.1l-.5-1.88L20.16,203l-1.22-5.26-.51-2.3,3.39-.07.36,1.65,1.22,5.19,1.3,5.18Z"/><path class="cls-139" d="M278.21,197.35l-3.46.07.15-.43,1.15-5.33,1.15-5.25.72-3.75,3.38-.07-.86,4.39-1.15,5.4-1.08,5ZM23.54,202.68l-3.38.07-1.22-5-1.23-5.33L16.85,188l3.38-.07.72,3.74L22.18,197l1.22,5.19Z"/><path class="cls-139" d="M279.79,189.94l-3.38.07.79-3.6,1-5.33.93-5.4.08-.5,3.38-.08-.22,1.16-.93,5.4-1,5.32-.65,3Zm-258,5.4-3.39.07-.72-3L16.63,187l-1-5.32-.21-.94,3.38-.07.07.43,1,5.33L21,191.66Z"/><path class="cls-140" d="M281.3,182.59l-3.38.07.29-1.58.93-5.4.87-5.47.36-2.45,3.31-.07-.43,3-.87,5.55-.93,5.4-.15.93ZM20.23,187.92l-3.38.07-.22-1-1-5.32-1-5.4-.44-3,3.32-.07.43,2.45.93,5.4,1,5.33Z"/><path class="cls-141" d="M282.6,175.1l-3.38.08.79-5,.79-5.47.58-4.4,3.31-.07-.65,4.9-.79,5.54-.65,4.39ZM18.79,180.65l-3.38.07-.79-4.46-.87-5.55L13.1,166l3.32-.07.64,4.32.87,5.47Z"/><path class="cls-141" d="M283.68,167.69l-3.31.07.43-3,.72-5.55.65-5.61.07-.65,3.31-.07-.14,1.08-.65,5.61-.72,5.62-.36,2.52ZM17.5,173.23l-3.32.07-.43-2.59L13,165.17l-.72-5.62-.07-1,3.31-.07.07.72.72,5.55.79,5.47Z"/><path class="cls-142" d="M284.69,160.27l-3.31.07.14-1.15.65-5.61.5-5.62.22-2.45,3.31-.07-.22,2.81-.57,5.69-.65,5.61-.07.72ZM16.42,165.89,13.1,166l-.14-.79-.72-5.62-.65-5.61-.21-2.81,3.31-.07.21,2.52.65,5.61.72,5.55Z"/><path class="cls-143" d="M285.55,152.86l-3.31.07.43-5,.51-5.69.28-4.17,3.32-.08-.36,4.47-.44,5.76-.43,4.61ZM15.48,158.47l-3.31.07-.58-4.6-.5-5.69-.36-4.47,3.31-.07.29,4.25.57,5.62Z"/><path class="cls-143" d="M286.2,145.44l-3.31.07.29-3.24.36-5.76.28-5.76v-.07l3.32-.07v.29l-.29,5.83-.43,5.76-.22,2.95ZM14.69,151.06l-3.31.07-.29-2.88-.51-5.76-.36-5.76v-.36l3.32-.07v.21l.36,5.76.43,5.69Z"/><path class="cls-144" d="M286.78,138l-3.32.08.08-1.59.28-5.76.22-5.83.07-1.66,3.31-.07-.07,1.87-.21,5.84-.29,5.83-.07,1.29ZM14,143.71l-3.31.07-.15-1.29-.36-5.76-.28-5.83-.08-2,3.32-.07.07,1.87.29,5.76.36,5.76Z"/><path class="cls-145" d="M287.14,130.61l-3.32.07.22-5.76.14-5.83v-3.24l3.32-.07v3.31l-.15,6-.21,5.55ZM13.54,136.3l-3.32.07-.28-5.47-.22-5.84-.07-3.52,3.24-.08.14,3.46.22,5.83Z"/><path class="cls-145" d="M287.42,123.19l-3.31.07.07-4.17.08-6-.08-4.68,3.32-.07v10.73l-.08,4.1ZM13.18,128.88,9.86,129l-.14-3.89-.14-5.68v-.29l-.08-4.9,3.32-.07.07,5,.14,5.83Z"/><path class="cls-146" d="M287.5,115.78l-3.32.07.08-2.74-.08-6-.14-6V101l3.31-.08V101l.15,6.12v8.64ZM12.89,121.46l-3.24.08-.07-2.16v-.29l-.08-6,.08-6v-.36l3.31-.08v.44l-.07,6,.07,6Z"/><path class="cls-147" d="M287.5,108.36l-3.32.07v-1.29l-.14-6L283.82,95l-.07-1.44,3.31-.07.08,1.37.21,6.12.15,6.12v1.22ZM12.82,114.12l-3.32.07v-1.08l.08-6L9.72,101V99.36L13,99.29,13,101.16l-.07,6-.07,6Z"/><path class="cls-147" d="M287.35,100.94,284,101l-.22-6-.28-6.12-.15-2.66,3.24-.08.22,2.52.29,6.2.21,6ZM12.89,106.7l-3.31.08L9.72,101l.22-6.12.14-3,3.31-.07L13.25,95,13,101.16Z"/><path class="cls-148" d="M287.06,93.53l-3.31.07-.21-4.68-.44-6.19-.28-3.89,3.31-.07.29,3.74.43,6.19.21,4.83ZM13,99.29l-3.31.07.22-4.46.28-6.2.29-4.17,3.31-.07-.28,4.46L13.25,95Z"/><path class="cls-148" d="M286.63,86.18l-3.24.08-.29-3.53-.43-6.19-.5-5.12,3.31-.07.43,4.9.51,6.26.21,3.67ZM13.39,91.87l-3.31.07.14-3.24.44-6.19.36-5.4L14.33,77l-.43,5.69-.36,6.19Z"/><path class="cls-149" d="M286.13,78.77l-3.31.07-.15-2.3-.57-6.34-.65-6.12,3.31-.07.58,5.9.57,6.34.22,2.52ZM13.82,84.46l-3.31.07.15-2,.43-6.26.57-6.34.08-.21,3.31-.08L15,70.2l-.58,6.34-.5,6.19Z"/><path class="cls-150" d="M285.48,71.35l-3.31.07-.07-1.22-.72-6.26-.72-6.41-.15-.87,3.31-.07.08.51.79,6.4.65,6.41.14,1.44ZM14.33,77,11,77.11l.07-.86.57-6.34.72-6.41.15-1.22,3.31-.07-.22,1.73L15,70.2l-.58,6.34Z"/><path class="cls-150" d="M284.76,64l-3.31.07-.07-.14-.72-6.41-.87-6.48-.29-1.8,3.32-.07.21,1.44.87,6.48.79,6.4.07.51ZM15.05,69.62l-3.31.08.64-6.2.72-6.4.36-2.31,3.32-.07-.36,2.81-.8,6.41Z"/><path class="cls-151" d="M283.82,56.59l-3.31.07-.72-5.61-.36-2.38-.43-2.3-.5-2.09-.51-2-.07-.36,3.38-.07.44,1.66.5,2.23.43,2.38.36,2.52.79,6Zm-268,5.62-3.31.07.57-5.18L14,50.62l.43-2.52.14-.72,3.32-.08-.22,1.37-.36,2.38-.86,6.48Z"/><path class="cls-151" d="M282.82,49.18l-3.32.07-.07-.58-.43-2.3-.5-2.09-.51-2-.5-1.8-.58-1.72-.65-1.59-.72-1.44L275,34.56l3.67-.07.65,1.37.65,1.72.64,1.88.65,1.94.51,2.09.5,2.23.43,2.38.15,1.08Zm-266,5.54-3.32.07L14,50.62l.43-2.52.43-2.38.51-2.23.5-2.09L16.27,40l3.53-.07-.22.57L19,42.26l-.51,2-.43,2.09-.43,2.3-.36,2.38Z"/><path class="cls-152" d="M281.3,41.83l-3.38.07-.43-1.44-.58-1.72-.65-1.59-.72-1.44-.72-1.37-.72-1.22L273.31,32l-.86-1-.87-.93-.93-.87-1-.72-1-.72-.86-.5,5.54-.07.58.5,1,1.08,1,1.22.94,1.3.86,1.37.8,1.51.79,1.66.65,1.72.64,1.88.65,1.94.07.43ZM17.86,47.3l-3.32.08.29-1.66.51-2.23.5-2.09.58-1.94.64-1.88.72-1.72.72-1.66.87-1.51.14-.22,4-.07-.57.72-.79,1.22-.72,1.37-.65,1.44-.65,1.59-.58,1.72L19,42.26l-.51,2-.43,2.09Z"/><path class="cls-152" d="M278.64,34.49l-3.67.07-.15-.22-.72-1.22L273.31,32l-.86-1-.87-.93-.93-.87-1-.72-1-.72-1-.57-1.15-.58-1.15-.5-1.22-.36-1.3-.44-1.3-.28-1.44-.29-1.44-.22-1.51-.14-1.58-.15-1.59-.14-1.72-.07h-1.73l-1.8-.07h-3.75l-91.72.36-1.08-2,74.16-1.58,18.64-.08h3.82l1.8.08h1.8l1.73.07,1.73.14,1.65.15,1.59.21,1.58.22,1.51.29,1.51.36,1.44.43,1.37.5,1.37.51,1.3.64,1.29.72,1.15.8,1.16.93,1.15,1,1,1.08,1,1.22.94,1.3.86,1.37.8,1.51.14.29ZM19.8,39.89,16.27,40l.15-.5.64-1.88.72-1.72.72-1.66.87-1.51.86-1.37.94-1.3.93-1.22,1.08-1.08,1.08-1,1.16-.93,1.22-.8.14-.07,10.88-.21-.65.07-1.44.29-1.3.28L33,25.78l-1.23.36-1.15.5-1.15.58-1.08.57-1,.72-.94.72-.93.87-.87.93-.86,1L23,33.12l-.79,1.22-.72,1.37-.65,1.44-.65,1.59-.36,1.15ZM68.4,24.05l83.3-1.73.94,2Z"/><path class="cls-153" d="M273.31,27.22l-5.54.07-.15-.07-1.15-.58-1.15-.5-1.22-.36-1.3-.44-1.3-.28-1.44-.29-1.44-.22-1.51-.14-1.58-.15-1.59-.14-1.72-.07h-1.73l-1.8-.07h-3.75l-91.72.36L151.49,21l93.45-.36h3.82l1.8.08h1.8l1.73.07,1.73.14,1.65.15,1.59.21,1.58.22,1.51.29,1.51.36,1.44.43,1.37.5,1.37.51,1.3.64,1.29.72,1.15.8,1.16.93.57.51ZM23.54,32.4l-4,.07.72-1.15.94-1.3.93-1.22,1.08-1.08,1.08-1,1.16-.93,1.22-.8,1.3-.72,1.29-.64,1.37-.51,1.37-.5,1.44-.43,1.51-.36,1.51-.29L38,21.31l1.58-.21L41.26,21,43,20.81l1.73-.07h1.8l1.8-.08h3.82l98.93.36,1.58,3.32L52.13,24H48.38l-1.8.07h-1.8l-1.65.07-1.59.14L40,24.41l-1.51.14L37,24.77l-1.44.29-1.3.28L33,25.78l-1.23.36-1.15.5-1.15.58-1.08.57-1,.72-.94.72-.93.87-.87.93-.86,1Z"/><path class="cls-154" d="M226.3,20.74l-74.16,1.58-.65-1.3,74.81-.28Zm-74.6,1.58L68.4,24.05,52.13,24H48.38l-1.8.07h-1.8l-1.65.07-1.59.14L40,24.41l-1.51.14-.79.15-10.88.21,1.16-.65,1.29-.64,1.37-.51,1.37-.5,1.44-.43,1.51-.36,1.51-.29L38,21.31l1.58-.21L41.26,21,43,20.81l1.73-.07h1.8l1.8-.08h3.82l98.93.36Z"/><path class="cls-154" d="M250.27,233.28c-18.86,57.38-53.57,98.28-101.73,133.42-48.24-35.14-82.88-76-101.74-133.42-16.13-49-23.11-107.57-14.62-171.58,3.32-25,5.26-22.1,27-22.1l89.36-.14,89.35.14c21.74,0,23.69-2.88,27,22.1C273.31,125.71,266.4,184.32,250.27,233.28Z"/><rect class="cls-155" x="27.07" y="73.44" width="249.7" height="8.93"/><path class="cls-123" d="M29.3,150.48c-.21-2.74-.43-5.47-.64-8.28h4.82C32,144.94,30.6,147.67,29.3,150.48Z"/><path class="cls-123" d="M30.17,159.26q-1-8.41-1.51-17.06h9.79A176.67,176.67,0,0,0,30.17,159.26Z"/><path class="cls-123" d="M33.48,142.2c-1.44,2.74-2.88,5.47-4.18,8.28.51,6.05,1.16,12,1.95,17.86A162.17,162.17,0,0,1,43.49,142.2Z"/><path class="cls-123" d="M38.45,142.2a176.67,176.67,0,0,0-8.28,17.06c.72,6.34,1.51,12.53,2.52,18.65A161.49,161.49,0,0,1,48.53,142.2ZM120.53,78V75.17h6.55C124.85,76,122.69,77,120.53,78Z"/><path class="cls-123" d="M43.49,142.2a162.17,162.17,0,0,0-12.24,26.14c.93,6.69,2,13.24,3.17,19.65A156.18,156.18,0,0,1,53.64,142.2Zm77-59.47V75.17H140A152.05,152.05,0,0,0,120.53,82.73Z"/><path class="cls-123" d="M127.08,75.17c-2.23.86-4.39,1.8-6.55,2.81v9.57a152.59,152.59,0,0,1,37.29-12.38Zm-78.55,67a161.49,161.49,0,0,0-15.84,35.71c1.15,7.13,2.45,14,4,20.88a152.53,152.53,0,0,1,22.1-56.59Z"/><path class="cls-123" d="M140,75.17a152.05,152.05,0,0,0-19.51,7.56v9.72A146.83,146.83,0,0,1,177.26,77V75.17Zm-86.4,67A156.18,156.18,0,0,0,34.42,188c.72,3.67,1.51,7.35,2.3,11H41A147,147,0,0,1,64,142.2Zm95.69,225.94-.79.5c-.51-.36-1-.72-1.59-1.15Z"/><path class="cls-123" d="M157.82,75.17a152.59,152.59,0,0,0-37.29,12.38v9.79a141.45,141.45,0,0,1,56.73-15.91V75.17Zm-99.07,67a152.53,152.53,0,0,0-22.1,56.59l.07.22H45.5A142.93,142.93,0,0,1,69.26,142.2Zm95,222.55c-1.73,1.3-3.45,2.59-5.25,3.89-4.11-3-8.14-6.05-12.1-9.14A144.13,144.13,0,0,0,153.79,364.75Z"/><path class="cls-123" d="M177.26,77a146.83,146.83,0,0,0-56.73,15.41v9.79a139.05,139.05,0,0,1,56.73-16.49V77ZM64,142.2A147,147,0,0,0,41,199H49.9A139.81,139.81,0,0,1,74.66,142.2ZM147,367.49l2.38.65c3-2.24,6-4.54,8.93-6.84a138.57,138.57,0,0,1-34.06-12C131.4,355.61,139,361.66,147,367.49Z"/><path class="cls-123" d="M177.26,81.43a141.45,141.45,0,0,0-56.73,15.91v9.94a133.82,133.82,0,0,1,56.73-17.14V81.43Zm-108,60.77A142.93,142.93,0,0,0,45.5,199h8.86A135.31,135.31,0,0,1,80.14,142.2Zm67.18,217.3a144.13,144.13,0,0,0,17.35,5.25c3.1-2.3,6.05-4.61,9-7a133.2,133.2,0,0,1-42.26-15.34v3.67C125.64,350.64,131,355.1,136.44,359.5Z"/><path class="cls-156" d="M177.26,85.75a139.05,139.05,0,0,0-56.73,16.49v10.08a128.46,128.46,0,0,1,56.73-17.78V85.75ZM74.66,142.2A139.81,139.81,0,0,0,49.9,199h8.92A130.61,130.61,0,0,1,85.68,142.2ZM124.2,349.34a138.57,138.57,0,0,0,34.06,12c3.09-2.38,6-4.76,9-7.2a131.21,131.21,0,0,1-46.73-16.71v8.71Z"/><path class="cls-157" d="M177.26,90.14a133.82,133.82,0,0,0-56.73,17.14v10.08a125.6,125.6,0,0,1,56.73-18.5V90.14ZM80.14,142.2A135.31,135.31,0,0,0,54.36,199h8.86A126.11,126.11,0,0,1,91.37,142.2Zm40.39,200.23a133.2,133.2,0,0,0,42.26,15.34c3-2.45,6.05-5,9-7.49a124.73,124.73,0,0,1-51.26-18Z"/><path class="cls-158" d="M177.26,94.54a128.46,128.46,0,0,0-56.73,17.78v10.22a121.21,121.21,0,0,1,56.73-19.29V94.54ZM85.68,142.2A130.61,130.61,0,0,0,58.82,199h8.86A121.9,121.9,0,0,1,97.2,142.2Zm34.85,195.19a131.21,131.21,0,0,0,46.73,16.71c3.09-2.6,6-5.12,9-7.71a122,122,0,0,1-55.73-19.22Z"/><path class="cls-159" d="M177.26,98.86a125.6,125.6,0,0,0-56.73,18.5V127.8a116.16,116.16,0,0,1,56.73-20.16V98.86ZM91.37,142.2A126.11,126.11,0,0,0,63.22,199h8.92a117.79,117.79,0,0,1,31.11-56.81Zm29.16,190.08a124.73,124.73,0,0,0,51.26,18c1.87-1.58,3.67-3.17,5.47-4.82v-3.39a117.58,117.58,0,0,1-56.73-20.16Z"/><path class="cls-160" d="M177.26,103.25a121.21,121.21,0,0,0-56.73,19.29v10.59A112.53,112.53,0,0,1,177.26,112v-8.71ZM97.2,142.2A121.9,121.9,0,0,0,67.68,199h8.93a113.4,113.4,0,0,1,32.9-56.81Zm23.33,185a122,122,0,0,0,55.73,19.22,10.61,10.61,0,0,1,1-.93v-7.78a112.45,112.45,0,0,1-56.73-21.1v10.59ZM264.17,142.06l4.25-.08c-.08,1.37-.15,2.67-.22,4C266.83,144.58,265.54,143.28,264.17,142.06Z"/><path class="cls-161" d="M177.26,107.64a116.16,116.16,0,0,0-56.73,20.16v10.8a107.93,107.93,0,0,1,56.73-22.25v-8.71Zm-74,34.56A117.79,117.79,0,0,0,72.14,199h9A108.5,108.5,0,0,1,116,142.2Zm17.28,179.71a117.58,117.58,0,0,0,56.73,20.16v-8.71a107.84,107.84,0,0,1-56.73-22.25v10.8ZM257.62,142.06l10.8-.08c-.22,3.32-.44,6.56-.72,9.8A106.36,106.36,0,0,0,257.62,142.06Z"/><path class="cls-162" d="M268.2,145.94c-1.37-1.36-2.66-2.66-4-3.88H250.78a105.36,105.36,0,0,1,16.34,15.69c.36-3.89.72-7.85,1.08-11.81Zm-90.94-34a112.53,112.53,0,0,0-56.73,21.17v9.07h-11A113.4,113.4,0,0,0,76.61,199h9a104.61,104.61,0,0,1,91.65-78.27V112ZM120.53,316.58a112.45,112.45,0,0,0,56.73,21.1V329a104,104,0,0,1-56.73-23.4Z"/><path class="cls-163" d="M267.7,151.78a106.36,106.36,0,0,0-10.08-9.72H243.36a102,102,0,0,1,23,21.81c.5-4,.94-8,1.3-12.09Zm-90.44-35.43a107.93,107.93,0,0,0-56.73,22.25v3.6H116A108.5,108.5,0,0,0,81.14,199h8.93a100.39,100.39,0,0,1,87.19-73.87v-8.79ZM120.53,311.11a107.84,107.84,0,0,0,56.73,22.25v-8.78a100,100,0,0,1-56.73-24.77Z"/><path class="cls-164" d="M267.12,157.75a105.36,105.36,0,0,0-16.34-15.69H235.22a96.66,96.66,0,0,1,30.39,28.08c.5-4.11,1-8.21,1.51-12.39Zm-89.86-37A104.61,104.61,0,0,0,85.61,199h9a96,96,0,0,1,82.65-69.55v-8.72ZM120.53,305.57A104,104,0,0,0,177.26,329v-8.79a95.36,95.36,0,0,1-56.73-26.28Z"/><path class="cls-165" d="M266.4,163.87a102,102,0,0,0-23-21.81l-17.42.07a91.82,91.82,0,0,1,38.66,34.41c.65-4.17,1.3-8.42,1.8-12.67Zm-89.14-38.73A100.39,100.39,0,0,0,90.07,199h9.07a91.79,91.79,0,0,1,78.12-65.16v-8.71ZM120.53,299.81a100,100,0,0,0,56.73,24.77v-8.79a91.08,91.08,0,0,1-56.73-28.08Z"/><path class="cls-166" d="M265.61,170.14a96.66,96.66,0,0,0-30.39-28.08l-20.88.07a87.51,87.51,0,0,1,49.18,41.18c.72-4.39,1.44-8.78,2.09-13.17Zm-88.35-40.68A96,96,0,0,0,94.61,199h9.07a87.35,87.35,0,0,1,73.58-60.77v-8.78ZM120.53,293.9a95.36,95.36,0,0,0,56.73,26.28V311.4a86.68,86.68,0,0,1-56.73-30.24Z"/><path class="cls-167" d="M264.6,176.54a91.82,91.82,0,0,0-38.66-34.41l-34.78.07a82.64,82.64,0,0,1,71,48.1c.94-4.54,1.73-9.08,2.45-13.76Zm-87.34-42.69A91.79,91.79,0,0,0,99.14,199h9.15a82.82,82.82,0,0,1,74-56.81h-5v-8.35ZM120.53,287.71a91.08,91.08,0,0,0,56.73,28.08v-8.71a82.79,82.79,0,0,1-56.73-32.9Z"/><path class="cls-168" d="M263.52,183.31a87.51,87.51,0,0,0-49.18-41.18l-37.08.07v-4A87.35,87.35,0,0,0,103.68,199h9.22a78.46,78.46,0,0,1,147.74-1.08c1-4.83,2-9.72,2.88-14.62Zm-143,97.85a86.68,86.68,0,0,0,56.73,30.24v-8.71a78.42,78.42,0,0,1-56.73-36.22Z"/><path class="cls-169" d="M262.15,190.3a82.64,82.64,0,0,0-71-48.1H182.3a82.92,82.92,0,0,0-74,56.81h9.21a74.06,74.06,0,0,1,138.75-.22h4.17c.65-2.81,1.23-5.61,1.73-8.49ZM120.53,274.18a82.79,82.79,0,0,0,56.73,32.9V298.3a74.16,74.16,0,0,1-56.73-40.76Z"/><path class="cls-170" d="M260.64,197.93A78.46,78.46,0,0,0,112.9,199h7.63v4.68a69.74,69.74,0,0,1,131.11-4.9h8.78l.22-.86ZM120.53,266.47a78.42,78.42,0,0,0,56.73,36.22V293.9A69.83,69.83,0,0,1,120.53,246Z"/><path class="cls-170" d="M256.25,198.79A74.06,74.06,0,0,0,117.5,199h3v58.53a74.16,74.16,0,0,0,56.73,40.76v-8.86a65.34,65.34,0,1,1,69.63-90.65Z"/><path class="cls-171" d="M251.64,198.79a69.74,69.74,0,0,0-131.11,4.9V246a69.83,69.83,0,0,0,56.73,47.95v-8.85a61,61,0,1,1,64.88-86.26Z"/><path class="cls-172" d="M246.89,198.79a65.34,65.34,0,1,0-69.63,90.65v-8.78a56.62,56.62,0,1,1,60-81.8Z"/><path class="cls-173" d="M242.14,198.79a61,61,0,1,0-64.88,86.26v-8.86a52.26,52.26,0,1,1,55-77.33Z"/><path class="cls-173" d="M237.24,198.86a56.62,56.62,0,1,0-60,81.8V271.8a47.91,47.91,0,1,1,50-72.94Z"/><path class="cls-174" d="M232.27,198.86a52.24,52.24,0,1,0-55,77.33v-8.85a43.57,43.57,0,1,1,44.64-68.48Z"/><path class="cls-174" d="M227.23,198.86a47.93,47.93,0,1,0-50,72.94v-9a39.18,39.18,0,1,1,39.1-63.94Z"/><path class="cls-175" d="M221.9,198.86a43.55,43.55,0,1,0-44.64,68.48v-9a34.87,34.87,0,1,1,33-59.4Z"/><path class="cls-176" d="M216.36,198.86a39.21,39.21,0,1,0-39.1,63.94v-9.07a30.49,30.49,0,0,1,9.65-59.4A30.05,30.05,0,0,1,203,198.94Z"/><path class="cls-177" d="M210.24,198.94a34.84,34.84,0,1,0-33,59.4v-9.22a26.16,26.16,0,0,1,0-48.6V199h5.62a24.25,24.25,0,0,1,4-.36,33.94,33.94,0,0,1,3.89.29Z"/><path class="cls-177" d="M203,198.94a30.05,30.05,0,0,0-16.13-4.61,30.49,30.49,0,0,0-9.65,59.4v-9.36a21.8,21.8,0,0,1,0-39.1V199Z"/><path class="cls-177" d="M190.8,198.94a33.94,33.94,0,0,0-3.89-.29,24.25,24.25,0,0,0-4,.36l7.92-.07Zm-13.54,1.58a26.16,26.16,0,0,0,0,48.6v-9.79a17.43,17.43,0,0,1,0-29Z"/><path class="cls-177" d="M177.26,205.27a21.8,21.8,0,0,0,0,39.1V233.64a13,13,0,0,1,0-17.64Z"/><path class="cls-177" d="M177.26,210.31a17.43,17.43,0,0,0,0,29Z"/><path class="cls-177" d="M177.26,216a13,13,0,0,0,0,17.64Z"/><path class="cls-178" d="M53,48.82l9.36.07c-.21,2.16-.86,3-1.94,3H55.8l-.58,3.24H59.4c1.8,0,1,3.1,0,3.1H54.72l-.86,4.68c-.15,1.94-3.24,2-3.53,1.29Z"/><path class="cls-178" d="M71.5,60.55h1.65l.43,3.67c.44.65,3,.65,3.17-.72v-.57h0L75.1,48.82H71.5v6l.79-1.72.57,4.6H71.5Zm-2.67,0H71.5V57.74H70.13l1.37-2.88v-6h-.15L64.22,62.5c-1.44,3.09,2.67,2.59,3.39.72Z"/><path class="cls-178" d="M158,49.46l-2.23,13.47c-.22,1.94-3.31,2-3.53,1.29l2.52-14.68C154.94,48.67,158.11,48.67,158,49.46Z"/><path class="cls-178" d="M99.94,64.58h1.22a3.82,3.82,0,0,0,3.6-3.09l1.58-9.43a2.53,2.53,0,0,0-2.52-3.1H99.94v2.95h1.8c1,0,1.22.07.93,1.73l-1.08,6.55c-.21,1.08-.43,1.44-1.51,1.44h-.14Zm-4,0h4V61.63H97.78c-1,0-.8-.5-.65-1.51l1.08-6.62c.21-1,.5-1.59,1.51-1.59h.22V49h-1.3a3.76,3.76,0,0,0-3.6,3.1l-1.58,9.43A2.52,2.52,0,0,0,96,64.58Z"/><path class="cls-178" d="M241.13,64.58h1.08a3.75,3.75,0,0,0,3.53-3.09l1.65-9.43a2.53,2.53,0,0,0-2.52-3.1H243.5a19.25,19.25,0,0,0-2.37.65v2.3h1.58c1.08,0,1.3.07,1,1.73l-1.15,6.55c-.15,1.08-.36,1.44-1.37,1.44h-.07Zm-6.63,0h6.63V61.63h-1.95c-1.08,0-.79-.5-.64-1.51l1.08-6.62c.14-1,.5-1.59,1.51-1.59v-2.3c-.22.07-.43.21-.65.29-.07-.58-.14-.94-.72-.94-1.66,0-2.45-.22-3,3.1Z"/><path class="cls-178" d="M188.35,48.82,186.12,61.7h5.4c2.38,0,.86,2.88-.07,2.88H184a4.57,4.57,0,0,1-1.65-.14l2.3-13.39C185,49.54,185.47,48.74,188.35,48.82Z"/><path class="cls-178" d="M169.34,50.11,172.8,58l1.44-8.28c.14-.79,1.73-.79,3.31-.72l-2.3,13.9c-.15,1.37-1.8,1.8-2.81,1.65-.58-.07-.65-.5-.79-.79l-3.6-8.28-1.23,7.42c-.21,1.94-3.31,2-3.52,1.29l2.52-14.68c.07-.51,1.36-.72,2.3-.65C168.77,49,169.06,49.39,169.34,50.11Z"/><path class="cls-178" d="M203.9,60.55h1.73l.43,3.67c.36.65,2.88.65,3.17-.72v-.57h0L207.5,48.82h-3.6v6l.87-1.72.5,4.6H203.9Zm-2.66,0h2.66V57.74h-1.29l1.29-2.88v-6h-.14L196.63,62.5c-1.37,3.09,2.67,2.59,3.39.72Z"/><path class="cls-178" d="M114.55,48.82l9.29.07c-.22,2.16-.79,3-1.94,3h-4.61l-.51,3.24h4.11c1.8,0,1.08,3.1,0,3.1h-4.68l-.79,4.68c-.15,1.94-3.32,2-3.53,1.29Z"/><path class="cls-178" d="M139.54,48.82l9.28.07c-.21,2.16-.79,3-1.94,3h-4.61l-.57,3.24h4.17c1.8,0,1,3.1,0,3.1h-4.68l-.79,4.68c-.22,1.94-3.31,2-3.53,1.29Z"/><path class="cls-178" d="M221.62,50.11,225.07,58l1.44-8.28c.15-.79,1.73-.79,3.31-.72l-2.3,13.9c-.14,1.37-1.8,1.8-2.81,1.65-.57-.07-.65-.5-.79-.79l-3.53-8.28-1.29,7.42c-.22,1.94-3.32,2-3.53,1.29l2.52-14.68c.07-.51,1.37-.72,2.3-.65C221,49,221.33,49.39,221.62,50.11Z"/><path class="cls-122" d="M207,13.82l53.35,7.71A26,26,0,0,1,272.3,26c-2.66-3.6-6.84-5.47-11.23-6.12l-53.21-8Z"/><path class="cls-120" d="M68.11,12.6c8.14-.58,30.67-2.95,49.47-3.38,30.24-.58,69.19-.15,100.8,3.88,8.64,1.08,17.92,2,27.36,3.68,6.48,1.08,13.46,2.44,18.79,4.6a56.82,56.82,0,0,1,9.43,6,23.57,23.57,0,0,0-9.07-8.42c-11.45-5-32.33-7.13-45.87-8.79-20.52-2.52-45.86-4.1-66.45-4.68-5.11-.14-24.7-.79-32.91-1.29-1-.08-9.72-.36-10.29-.36C93.46,3.74,83.52,7.49,68.11,12.6Z"/><path class="cls-1" d="M281.59,21.38v-.5a1.36,1.36,0,0,1,.29.43C281.81,21.31,281.74,21.38,281.59,21.38Z"/><path class="cls-2" d="M281.88,21.24v.07c-.22.07-.36.07-.58.15v-.94A4.58,4.58,0,0,1,281.88,21.24Z"/><path class="cls-3" d="M281.59,20.88v.5c-.14.08-.36.15-.5.22L281,20.16A5.13,5.13,0,0,1,281.59,20.88Z"/><path class="cls-4" d="M281.3,20.52v.94a1.8,1.8,0,0,0-.5.28l-.07-1.94C280.94,20.09,281.16,20.3,281.3,20.52Z"/><path class="cls-5" d="M281,20.16l.07,1.44a1.38,1.38,0,0,0-.58.29l-.07-2.38A4.85,4.85,0,0,1,281,20.16Z"/><path class="cls-6" d="M280.73,19.8l.07,1.94a1.66,1.66,0,0,0-.58.29l-.07-2.81Z"/><path class="cls-7" d="M280.44,19.51l.07,2.38a2.25,2.25,0,0,0-.57.36l-.08-3.31A3.93,3.93,0,0,1,280.44,19.51Z"/><path class="cls-8" d="M280.15,19.22l.07,2.81a3.4,3.4,0,0,0-.5.51l-.14-3.89A4.38,4.38,0,0,1,280.15,19.22Z"/><path class="cls-9" d="M279.86,18.94l.08,3.31a3.72,3.72,0,0,0-.51.65l-.07-4.47Z"/><path class="cls-10" d="M279.58,18.65l.14,3.89a5.65,5.65,0,0,0-.58.86l-.07-5.26Z"/><path class="cls-11" d="M279.36,18.43l.07,4.47a3.74,3.74,0,0,0-.5,1.22l-.15-6.19c.15.14.36.29.58.5Zm-.22,16.85V35l.08.58C279.22,35.5,279.14,35.35,279.14,35.28Z"/><path class="cls-12" d="M279.07,18.14l.07,5.26a6.77,6.77,0,0,0-.5,2.52l-.14-8.28a4.15,4.15,0,0,0,.57.5Zm-.21,16.28-.08-1.52c.15.72.22,1.59.44,2.67A8.46,8.46,0,0,0,278.86,34.42Z"/><path class="cls-13" d="M278.78,17.93l.15,6.19a10.21,10.21,0,0,0-.29,3,38.36,38.36,0,0,0,.5,7.85v.29a10.12,10.12,0,0,0-.57-1.58l-.36-16.28C278.35,17.57,278.57,17.71,278.78,17.93Z"/><path class="cls-14" d="M278.5,17.64l.14,8.28v1.22c.07,2.6-.07,3.6.14,5.76l.08,1.52c-.22-.44-.36-.94-.58-1.37l-.36-15.84C278.14,17.35,278.28,17.5,278.5,17.64Z"/><path class="cls-15" d="M278.21,17.42l.36,16.28c-.22-.44-.36-.87-.58-1.23L277.63,17C277.85,17.14,278,17.28,278.21,17.42Z"/><path class="cls-16" d="M277.92,17.21l.36,15.84a8.86,8.86,0,0,1-.58-1.15l-.36-15.12C277.56,16.92,277.7,17.06,277.92,17.21Z"/><path class="cls-17" d="M277.63,17,278,32.47a5.87,5.87,0,0,1-.57-1.15l-.36-14.76C277.27,16.7,277.42,16.85,277.63,17Z"/><path class="cls-18" d="M277.34,16.78l.36,15.12a8,8,0,0,1-.57-1.08l-.36-14.48C277,16.49,277.13,16.63,277.34,16.78Z"/><path class="cls-19" d="M277.06,16.56l.36,14.76a4.36,4.36,0,0,1-.58-1l-.36-14.18A4.16,4.16,0,0,1,277.06,16.56Z"/><path class="cls-20" d="M276.77,16.34l.36,14.48a6.83,6.83,0,0,1-.58-.94l-.36-14A5.15,5.15,0,0,1,276.77,16.34Z"/><path class="cls-21" d="M276.48,16.13l.36,14.18a7.4,7.4,0,0,1-.58-.93L276,15.77A2,2,0,0,1,276.48,16.13Z"/><path class="cls-22" d="M276.19,15.91l.36,14a7.36,7.36,0,0,1-.57-1l-.29-13.32A2,2,0,0,0,276.19,15.91Z"/><path class="cls-23" d="M276,15.77l.28,13.61c-.21-.36-.43-.65-.57-.94l-.29-13A5.94,5.94,0,0,1,276,15.77Z"/><path class="cls-24" d="M275.69,15.55,276,28.87l-.58-.93-.29-12.75A3.42,3.42,0,0,0,275.69,15.55Z"/><path class="cls-25" d="M275.4,15.41l.29,13-.58-1-.29-12.38A5,5,0,0,1,275.4,15.41Z"/><path class="cls-26" d="M275.11,15.19l.29,12.75a6.83,6.83,0,0,1-.58-.94l-.28-12.17C274.75,15,274.9,15.05,275.11,15.19Z"/><path class="cls-27" d="M274.82,15.05l.29,12.38a4.14,4.14,0,0,1-.57-.93l-.29-11.81A2.25,2.25,0,0,1,274.82,15.05Z"/><path class="cls-28" d="M274.54,14.83,274.82,27a7.36,7.36,0,0,1-.57-1L274,14.54C274.18,14.62,274.32,14.76,274.54,14.83Z"/><path class="cls-29" d="M274.25,14.69l.29,11.81a4.36,4.36,0,0,1-.58-1l-.29-11.09A2,2,0,0,1,274.25,14.69Z"/><path class="cls-30" d="M274,14.54,274.25,26a4.75,4.75,0,0,1-.58-1l-.29-10.72A2.2,2.2,0,0,1,274,14.54Z"/><path class="cls-31" d="M273.67,14.4,274,25.49a8.13,8.13,0,0,1-.58-1.08l-.21-10.3A1.85,1.85,0,0,1,273.67,14.4Z"/><path class="cls-32" d="M273.38,14.26,273.67,25a8,8,0,0,1-.57-1.08L272.88,14A1.62,1.62,0,0,1,273.38,14.26Z"/><path class="cls-33" d="M273.17,14.11l.21,10.3a5.87,5.87,0,0,1-.57-1.15l-.22-9.44A6.21,6.21,0,0,1,273.17,14.11Z"/><path class="cls-34" d="M272.88,14l.22,9.93a9.15,9.15,0,0,1-.58-1.29l-.22-8.86A1.11,1.11,0,0,1,272.88,14Z"/><path class="cls-35" d="M272.59,13.82l.22,9.44c-.22-.44-.43-.94-.65-1.37L272,14.18a3.14,3.14,0,0,0,.21-.5h0C272.3,13.75,272.45,13.75,272.59,13.82Z"/><path class="cls-36" d="M272.3,13.75l.22,8.86a16.26,16.26,0,0,1-.65-1.66l-.07-6a5.13,5.13,0,0,1,.43-1.22Z"/><path class="cls-37" d="M272,14.18l.14,7.71c-.22-.72-.43-1.37-.58-2.09L271.51,16A8.26,8.26,0,0,1,272,14.18Z"/><path class="cls-38" d="M271.8,14.9l.07,6A10.21,10.21,0,0,1,271.8,14.9Z"/><path class="cls-39" d="M271.51,16l.07,3.82A11.62,11.62,0,0,1,271.51,16Z"/><path class="cls-179" d="M1.3,98.71l-.72.58c.07-2,.14-3.82.21-5.69C1,95.33,1.15,97.06,1.3,98.71Z"/><path class="cls-180" d="M.72,96.34l.36-.22c.14,1.73.29,3.53.5,5.26L.5,102.1C.58,100.22.65,98.28.72,96.34Z"/><path class="cls-181" d="M.58,99.29l.72-.58c.21,1.8.36,3.53.57,5.26L.5,105C.5,103.1.58,101.16.58,99.29Z"/><path class="cls-181" d="M.5,102.1l1.08-.72c.15,1.72.36,3.45.51,5.18l-1.66,1.3C.5,105.91.5,104,.5,102.1Z"/><path class="cls-182" d="M.5,105l1.37-1c.15,1.73.36,3.53.51,5.25L.43,110.66C.43,108.79.43,106.85.5,105Z"/><path class="cls-183" d="M.43,107.86l1.66-1.3c.21,1.8.36,3.53.57,5.26L.5,113.47C.43,111.6.43,109.73.43,107.86Z"/><path class="cls-184" d="M.43,110.66l2-1.44c.21,1.73.36,3.46.57,5.19L.5,116.28C.5,114.41.43,112.54.43,110.66Z"/><path class="cls-185" d="M.5,113.47l2.16-1.65c.22,1.72.36,3.45.58,5.18L.58,119C.5,117.14.5,115.34.5,113.47Z"/><path class="cls-186" d="M.5,116.28,3,114.41c.22,1.73.36,3.45.58,5.18L.65,121.75C.58,120,.58,118.08.5,116.28Z"/><path class="cls-187" d="M.58,119l2.66-2,.65,5.18L.72,124.56C.65,122.69.65,120.89.58,119Z"/><path class="cls-188" d="M.65,121.75l2.88-2.16.65,5.19L.86,127.22C.79,125.42.72,123.62.65,121.75Z"/><path class="cls-189" d="M.72,124.56l3.17-2.38c.14,1.73.36,3.46.57,5.19L1,130C.94,128.16.86,126.36.72,124.56Z"/><path class="cls-190" d="M.86,127.22l3.32-2.44c.21,1.72.43,3.45.64,5.11L1.15,132.7C1.08,130.9.94,129.1.86,127.22Z"/><path class="cls-191" d="M1,130l3.45-2.59c.22,1.73.51,3.38.72,5.11l-3.81,2.88C1.22,133.56,1.15,131.76,1,130Z"/><path class="cls-192" d="M1.15,132.7l3.67-2.81c.22,1.73.44,3.45.72,5.18l-4,3C1.44,136.22,1.3,134.5,1.15,132.7Z"/><path class="cls-193" d="M1.37,135.36l3.81-2.88c.22,1.73.44,3.38.72,5.11l-4.1,3.1C1.58,138.89,1.51,137.16,1.37,135.36Z"/><path class="cls-194" d="M1.58,138l4-3c.22,1.66.44,3.39.72,5L2,143.35C1.87,141.55,1.66,139.82,1.58,138Z"/><path class="cls-195" d="M1.8,140.69l4.1-3.1c.22,1.73.44,3.39.72,5.11l-4.39,3.24C2.09,144.22,1.94,142.42,1.8,140.69Z"/><path class="cls-196" d="M2,143.35l4.24-3.24c.22,1.73.51,3.39.72,5.11l-4.46,3.39C2.38,146.81,2.16,145.08,2,143.35Z"/><path class="cls-197" d="M2.23,145.94l4.39-3.24c.22,1.66.51,3.32.8,5L2.81,151.2C2.59,149.47,2.45,147.67,2.23,145.94Z"/><path class="cls-198" d="M2.52,148.61,7,145.22l.87,5-4.75,3.6C2.88,152.06,2.74,150.34,2.52,148.61Z"/><path class="cls-199" d="M2.81,151.2l4.61-3.46c.28,1.66.5,3.32.79,5l-4.75,3.6C3.24,154.58,3,152.93,2.81,151.2Z"/><path class="cls-200" d="M3.1,153.79l4.75-3.6c.21,1.73.5,3.39.86,5L3.82,158.9C3.53,157.18,3.31,155.45,3.1,153.79Z"/><path class="cls-201" d="M3.46,156.31l4.75-3.6c.29,1.66.65,3.31.93,5l-5,3.74C3.89,159.77,3.67,158,3.46,156.31Z"/><path class="cls-202" d="M3.82,158.9l4.89-3.67.87,5-5,3.82C4.25,162.29,4,160.63,3.82,158.9Z"/><path class="cls-203" d="M4.18,161.42l5-3.74c.29,1.66.58,3.31.94,5L4.9,166.54C4.68,164.81,4.39,163.15,4.18,161.42Z"/><path class="cls-204" d="M4.54,164l5-3.82c.28,1.58.64,3.24.93,4.9L5.33,169C5,167.33,4.82,165.67,4.54,164Z"/><path class="cls-205" d="M4.9,166.54l5.18-3.89c.29,1.65.65,3.24.94,4.89l-5.26,4Z"/><path class="cls-206" d="M5.33,169l5.18-3.88c.36,1.65.72,3.24,1,4.89l-5.33,4C5.9,172.37,5.62,170.71,5.33,169Z"/><path class="cls-207" d="M5.76,171.5l5.26-4c.36,1.59.72,3.24,1.08,4.83l-5.4,4.1C6.34,174.82,6.05,173.16,5.76,171.5Z"/><path class="cls-208" d="M6.19,174l5.33-4c.36,1.59.72,3.17,1.08,4.83l-5.47,4.1C6.84,177.26,6.48,175.68,6.19,174Z"/><path class="cls-209" d="M6.7,176.47l5.4-4.1c.36,1.65.72,3.24,1.08,4.82l-5.55,4.18C7.27,179.78,7,178.13,6.7,176.47Z"/><path class="cls-210" d="M7.13,178.92l5.47-4.1c.36,1.58.72,3.16,1.15,4.75l-5.61,4.25C7.78,182.16,7.49,180.58,7.13,178.92Z"/><path class="cls-211" d="M7.63,181.37l5.55-4.18c.36,1.59.72,3.17,1.15,4.83l-5.69,4.17C8.35,184.61,8,183,7.63,181.37Z"/><path class="cls-212" d="M8.14,183.82l5.61-4.25c.36,1.58.79,3.17,1.15,4.75l-5.68,4.25Z"/><path class="cls-213" d="M8.64,186.19,14.33,182c.36,1.51.79,3.09,1.22,4.6L9.79,191C9.36,189.36,9,187.78,8.64,186.19Z"/><path class="cls-214" d="M9.22,188.57l5.68-4.25c.44,1.51.8,3.1,1.23,4.68l-5.76,4.39C9.94,191.81,9.58,190.15,9.22,188.57Z"/><path class="cls-215" d="M9.79,191l5.76-4.4c.36,1.59.79,3.17,1.23,4.68l-5.84,4.47C10.51,194.18,10.15,192.6,9.79,191Z"/><path class="cls-215" d="M10.37,193.39,16.13,189c.43,1.51.86,3.1,1.29,4.68l-5.9,4.46C11.09,196.56,10.73,195,10.37,193.39Z"/><path class="cls-216" d="M10.94,195.77l5.84-4.47c.43,1.59.86,3.1,1.29,4.68l-5.9,4.47C11.74,198.94,11.3,197.35,10.94,195.77Z"/><path class="cls-217" d="M11.52,198.14l5.9-4.46c.44,1.51.94,3,1.37,4.61l-6,4.53C12.38,201.24,12,199.66,11.52,198.14Z"/><path class="cls-218" d="M12.17,200.45l5.9-4.47c.51,1.52.94,3,1.44,4.61l-6.12,4.54C13,203.62,12.53,202,12.17,200.45Z"/><path class="cls-219" d="M12.74,202.82l6-4.53c.43,1.37.79,2.73,1.23,4.1l-.15.72-5.76,4.39C13.61,205.92,13.18,204.34,12.74,202.82Z"/><path class="cls-220" d="M13.39,205.13l6.12-4.54c.15.58.36,1.23.51,1.8l-1.16,4.25-4.1,3.17C14.33,208.22,13.9,206.71,13.39,205.13Z"/><path class="cls-221" d="M14.11,207.5l5.76-4.39-1.94,7.13-2.45,1.87C15,210.53,14.54,209,14.11,207.5Z"/><path class="cls-222" d="M14.76,209.81l4.1-3.17L17,213.77l-.86.57C15.7,212.83,15.19,211.32,14.76,209.81Z"/><path class="cls-223" d="M15.48,212.11l2.45-1.87-1.44,5.26h0C16.13,214.34,15.77,213.19,15.48,212.11Z"/><path class="cls-224" d="M16.13,214.34l.86-.57-.5,1.73h0A7.37,7.37,0,0,0,16.13,214.34Z"/><path class="cls-1" d="M15.34,28.44,11,28.87c.64-1.37,1.29-2.66,2-4A13,13,0,0,1,15.34,28.44Z"/><path class="cls-2" d="M12.38,26.06l1.44-.14A13.4,13.4,0,0,1,16.2,31l-6.48.65C10.51,29.81,11.45,27.86,12.38,26.06Z"/><path class="cls-74" d="M11,28.87l4.32-.43a15.37,15.37,0,0,1,1.22,5.26l-7.92.72C9.29,32.62,10.15,30.74,11,28.87Z"/><path class="cls-76" d="M9.72,31.68,16.2,31a24.23,24.23,0,0,1,.43,5.33l-8.93.86A54.75,54.75,0,0,1,9.72,31.68Z"/><path class="cls-77" d="M8.64,34.42l7.92-.72a18.69,18.69,0,0,1,0,4,11.23,11.23,0,0,1-.36,1.44L7.2,40a3,3,0,0,1-.07-.79A43.15,43.15,0,0,1,8.64,34.42Z"/><path class="cls-225" d="M7.7,37.22l8.93-.86a8.16,8.16,0,0,1-.07,1.3c-.36,1.36-.72,2.8-1.08,4.17l-8.14.79q-.11-1.83-.21-3.45C7.27,38.52,7.49,37.87,7.7,37.22Z"/><path class="cls-80" d="M7.2,40l9-.86c-.43,1.8-.94,3.6-1.3,5.47l-7.48.72C7.42,43.42,7.34,41.69,7.2,40Z"/><path class="cls-226" d="M7.34,42.62l8.14-.79c-.36,1.8-.79,3.67-1.15,5.47L7.42,48C7.49,46.15,7.42,44.35,7.34,42.62Z"/><path class="cls-82" d="M7.42,45.29l7.48-.72c-.43,1.8-.79,3.67-1.15,5.47l-6.33.65C7.42,48.82,7.49,47,7.42,45.29Z"/><path class="cls-84" d="M7.42,48l6.91-.65c-.36,1.8-.72,3.68-1,5.48l-6.05.57C7.34,51.48,7.42,49.68,7.42,48Z"/><path class="cls-85" d="M7.42,50.69,13.75,50c-.29,1.8-.65,3.67-.93,5.47l-5.69.58C7.27,54.22,7.34,52.42,7.42,50.69Z"/><path class="cls-227" d="M7.27,53.35l6.05-.57c-.36,1.8-.65,3.6-.86,5.47L7,58.75C7.13,56.88,7.2,55.08,7.27,53.35Z"/><path class="cls-88" d="M7.13,56.09l5.69-.58c-.29,1.8-.51,3.6-.8,5.47l-5.18.51C7,59.62,7.06,57.82,7.13,56.09Z"/><path class="cls-228" d="M7,58.75l5.48-.5c-.29,1.8-.51,3.6-.72,5.47l-5.12.43C6.77,62.28,6.91,60.48,7,58.75Z"/><path class="cls-229" d="M6.84,61.49,12,61l-.64,5.4-4.9.51C6.55,65,6.7,63.22,6.84,61.49Z"/><path class="cls-92" d="M6.62,64.15l5.12-.43q-.33,2.59-.65,5.4l-4.83.43C6.41,67.75,6.55,66,6.62,64.15Z"/><path class="cls-93" d="M6.48,66.89l4.9-.51c-.15,1.8-.36,3.6-.51,5.48l-4.82.43C6.19,70.42,6.34,68.62,6.48,66.89Z"/><path class="cls-94" d="M6.26,69.55l4.83-.43c-.15,1.8-.29,3.6-.51,5.4L5.9,75C6.05,73.15,6.12,71.35,6.26,69.55Z"/><path class="cls-96" d="M6.05,72.29l4.82-.43c-.21,1.72-.36,3.52-.43,5.4l-4.68.43C5.83,75.82,6,74,6.05,72.29Z"/><path class="cls-230" d="M5.9,75l4.68-.43c-.14,1.8-.21,3.6-.36,5.4l-4.6.43C5.69,78.55,5.83,76.75,5.9,75Z"/><path class="cls-231" d="M5.76,77.69l4.68-.43c-.14,1.72-.29,3.52-.36,5.4l-4.61.43C5.54,81.22,5.62,79.42,5.76,77.69Z"/><path class="cls-98" d="M5.62,80.35l4.6-.43c-.14,1.8-.21,3.6-.28,5.4l-4.61.43C5.4,84,5.47,82.15,5.62,80.35Z"/><path class="cls-232" d="M5.47,83.09l4.61-.43c-.14,1.72-.22,3.52-.29,5.4l-4.53.43Q5.37,85.69,5.47,83.09Z"/><path class="cls-233" d="M5.33,85.75l4.61-.43c-.08,1.8-.22,3.6-.22,5.4l-4.54.43C5.18,89.28,5.26,87.55,5.33,85.75Z"/><path class="cls-234" d="M5.26,88.49l4.53-.43c-.07,1.72-.14,3.52-.21,5.32l-4.47.44C5.11,92,5.18,90.22,5.26,88.49Z"/><path class="cls-104" d="M5.18,91.15l4.54-.43-.22,5.4L5,96.55C5.11,94.68,5.11,92.88,5.18,91.15Z"/><path class="cls-235" d="M5.11,93.82l4.47-.44c0,1.8-.08,3.6-.08,5.4L5,99.22C5,97.42,5,95.62,5.11,93.82Z"/><path class="cls-236" d="M5,96.55l4.46-.43c0,1.73-.07,3.53-.07,5.33L5,101.88Z"/><path class="cls-237" d="M5,99.22l4.46-.44c-.07,1.8-.07,3.6-.07,5.4l-4.32.36C5,102.74,5,100.94,5,99.22Z"/><path class="cls-238" d="M5,101.88l4.39-.43v5.4l-4.25.43C5.11,105.41,5.11,103.68,5,101.88Z"/><path class="cls-239" d="M5.11,104.54l4.32-.36v5.33l-4.17.43C5.18,108.14,5.11,106.34,5.11,104.54Z"/><path class="cls-240" d="M5.18,107.28l4.25-.43v5.4l-4,.36C5.26,110.81,5.18,109,5.18,107.28Z"/><path class="cls-241" d="M5.26,109.94l4.17-.43c0,1.8,0,3.6.07,5.4l-4,.36C5.4,113.47,5.33,111.67,5.26,109.94Z"/><path class="cls-242" d="M5.4,112.61l4-.36c0,1.73.07,3.53.07,5.33l-3.81.36C5.54,116.14,5.47,114.34,5.4,112.61Z"/><path class="cls-243" d="M5.54,115.27l4-.36c0,1.73,0,3.53.08,5.33l-3.68.36C5.76,118.8,5.62,117,5.54,115.27Z"/><path class="cls-244" d="M5.69,117.94l3.81-.36c.08,1.8.08,3.52.15,5.32l-3.53.36C6,121.46,5.83,119.66,5.69,117.94Z"/><path class="cls-245" d="M5.9,120.6l3.68-.36c.07,1.8.07,3.6.14,5.4l-3.38.29C6.19,124.13,6.05,122.33,5.9,120.6Z"/><path class="cls-246" d="M6.12,123.26l3.53-.36c.07,1.8.07,3.6.14,5.4l-3.17.29C6.41,126.79,6.26,125,6.12,123.26Z"/><path class="cls-27" d="M6.34,125.93l3.38-.29c.07,1.73.14,3.53.22,5.33l-3,.29C6.7,129.46,6.55,127.66,6.34,125.93Z"/><path class="cls-27" d="M6.62,128.59l3.17-.29c.07,1.73.15,3.53.22,5.33l-2.74.29C7.06,132.12,6.84,130.32,6.62,128.59Z"/><path class="cls-27" d="M6.91,131.26l3-.29c.07,1.8.14,3.53.21,5.33l-2.52.21C7.42,134.78,7.13,133,6.91,131.26Z"/><path class="cls-27" d="M7.27,133.92l2.74-.29c.07,1.8.21,3.53.29,5.33l-2.24.22C7.78,137.38,7.49,135.65,7.27,133.92Z"/><path class="cls-27" d="M7.63,136.51l2.52-.21c.07,1.8.15,3.6.29,5.32l-2,.22C8.14,140,7.92,138.31,7.63,136.51Z"/><path class="cls-27" d="M8.06,139.18,10.3,139c.07,1.8.14,3.6.28,5.33l-1.65.21C8.57,142.7,8.28,140.9,8.06,139.18Z"/><path class="cls-27" d="M8.42,141.84l2-.22c.07,1.8.14,3.6.29,5.4l-1.37.08C9.07,145.37,8.71,143.57,8.42,141.84Z"/><path class="cls-27" d="M8.93,144.5l1.65-.21c.08,1.8.22,3.6.29,5.4l-1,.07C9.5,148,9.22,146.23,8.93,144.5Z"/><path class="cls-27" d="M9.36,147.1l1.37-.08c.07,1.73.21,3.53.36,5.33l-.65.07C10,150.62,9.72,148.82,9.36,147.1Z"/><path class="cls-27" d="M9.86,149.76l1-.07c.15,1.73.22,3.53.36,5.33h-.29C10.58,153.22,10.22,151.49,9.86,149.76Z"/><path class="cls-27" d="M10.44,152.42l.65-.07c.07,1.51.14,3,.29,4.54C11,155.38,10.73,153.86,10.44,152.42Z"/><path class="cls-27" d="M10.94,155h.29l.15,1.87C11.23,156.24,11.09,155.66,10.94,155Z"/><rect class="cls-247" x="147.24" y="21.02" width="8.78" height="3.24"/></g></g></svg>