<svg id="66d9fe40-22e5-44b2-9d25-147196deef8e" data-name="Calque 1" xmlns="http://www.w3.org/2000/svg" xmlns:xlink="http://www.w3.org/1999/xlink" viewBox="0 0 462.58 495.77"><defs><linearGradient id="9b4d66fb-2733-48c0-a87c-85c5500b7a77" x1="298.23" y1="414.04" x2="543.66" y2="193.06" gradientUnits="userSpaceOnUse"><stop offset="0" stop-color="#ab803a"/><stop offset="0.12" stop-color="#ac823d"/><stop offset="0.2" stop-color="#b18946"/><stop offset="0.27" stop-color="#b89455"/><stop offset="0.33" stop-color="#c3a46b"/><stop offset="0.39" stop-color="#d1b887"/><stop offset="0.44" stop-color="#decca3"/><stop offset="0.52" stop-color="#d8c394"/><stop offset="0.72" stop-color="#ccae73"/><stop offset="0.89" stop-color="#c4a15e"/><stop offset="1" stop-color="#c19c57"/></linearGradient><radialGradient id="7c16012a-10e3-4119-92fb-a59514b55229" cx="3517.58" cy="579.82" r="88.87" gradientTransform="translate(-6619.22 -294.19) scale(2 1.31)" gradientUnits="userSpaceOnUse"><stop offset="0.27" stop-color="red"/><stop offset="0.35" stop-color="red" stop-opacity="0.98"/><stop offset="0.44" stop-color="red" stop-opacity="0.93"/><stop offset="0.53" stop-color="red" stop-opacity="0.84"/><stop offset="0.63" stop-color="red" stop-opacity="0.71"/><stop offset="0.74" stop-color="red" stop-opacity="0.54"/><stop offset="0.85" stop-color="red" stop-opacity="0.34"/><stop offset="0.95" stop-color="red" stop-opacity="0.11"/><stop offset="1" stop-color="red" stop-opacity="0"/></radialGradient><linearGradient id="f1998883-814b-461b-a278-e88cdba8b1d4" x1="509.17" y1="187.53" x2="332.72" y2="421.68" gradientUnits="userSpaceOnUse"><stop offset="0" stop-color="#0860a8"/><stop offset="0.1" stop-color="#08569d"/><stop offset="0.26" stop-color="#093c81"/><stop offset="0.45" stop-color="#0a1659"/><stop offset="0.62" stop-color="#091553"/><stop offset="0.85" stop-color="#081143"/><stop offset="1" stop-color="#060d34"/></linearGradient></defs><title>3017525_FFF_2_ETOILES_4C</title><path d="M279.21,392.92,420.94,456l141.73-63.1V214.18l-141.73-63.1-141.73,63.1Z" transform="translate(-189.66 -49.75)" fill="url(#9b4d66fb-2733-48c0-a87c-85c5500b7a77)"/><path d="M279.21,392.92,420.94,456l141.73-63.1V214.18l-141.73-63.1-141.73,63.1Z" transform="translate(-189.66 -49.75)" fill="url(#7c16012a-10e3-4119-92fb-a59514b55229)"/><path d="M356,414.35c11.12,4.39,22.14,9,33.21,13.5l31.78,13.3,31.78-13.31c11.07-4.5,22.09-9.12,33.21-13.5s22.22-8.81,33.37-13.13,22.35-8.52,33.63-12.51h0V220.51l-132-58.77L289,220.51V388.7h0c11.28,4,22.45,8.26,33.63,12.52S344.87,409.88,356,414.35Z" transform="translate(-189.66 -49.75)" fill="url(#f1998883-814b-461b-a278-e88cdba8b1d4)"/><path d="M519.3,401.21c-11.15,4.32-22.29,8.66-33.37,13.13s-22.14,9-33.21,13.5l-31.78,13.31-31.78-13.3c-11.07-4.5-22.1-9.11-33.21-13.5s-22.22-8.81-33.37-13.13S300.24,392.7,289,388.7c10.71,5.34,21.54,10.4,32.37,15.49s21.71,10,32.62,14.89,21.85,9.68,32.78,14.52l32.93,14.18,1.29.55,1.29-.55,32.93-14.17c10.93-4.84,21.9-9.56,32.78-14.51s21.77-9.87,32.62-14.89,21.65-10.16,32.36-15.5C541.65,392.7,530.48,397,519.3,401.21Z" transform="translate(-189.66 -49.75)" fill="#fff"/><polygon points="215.36 344.46 224.08 344.46 224.08 332.39 247.72 332.39 247.72 325.49 224.08 325.49 224.08 317.03 251.32 317.03 251.32 309.95 215.36 309.95 215.36 344.46" fill="#fff"/><polygon points="304.86 317.03 304.86 309.95 268.9 309.95 268.9 344.46 277.61 344.46 277.61 332.39 301.25 332.39 301.25 325.49 277.61 325.49 277.61 317.03 304.86 317.03" fill="#fff"/><polygon points="197.79 317.03 197.79 309.95 161.83 309.95 161.83 344.46 170.54 344.46 170.54 332.39 194.18 332.39 194.18 325.49 170.54 325.49 170.54 317.03 197.79 317.03" fill="#fff"/><path d="M466.81,202.65c-5.11-4.3-12.91-2.42-15.32-7.53-2.29,2.55-3.36,5.65-1.75,8.33a7.43,7.43,0,0,1-6.32.4,7.46,7.46,0,0,0-.67,8.07,7.73,7.73,0,0,1-6.18,1.48,5.7,5.7,0,0,0,5.24,4.17,3.65,3.65,0,0,1-2.55,3.09c1.88,3.63,8.07,4.57,12.23,3.09a5.84,5.84,0,0,1-1.21-3.9c0-5.8,4.89-9.62,11.65-9.62a30.69,30.69,0,0,1,5.55.54c.42.06.74.12,1-.54A6.22,6.22,0,0,0,466.81,202.65Zm13.31,24.6c-2.69-.54-7.8-.81-8.6-4.3-2.29,6.86,1.88,14,8.06,14,3.5,0,5.24-2.29,5.24-5C484.82,229.67,483.07,227.78,480.12,227.25Z" transform="translate(-189.66 -49.75)" fill="red"/><path d="M415.35,242.34a64.53,64.53,0,0,1,24.39,9c-2.54-19-17.12-34.31-40.19-34.31-9.88,0-20.15,2.38-28.73,8.38C391.89,219.13,408.75,227,415.35,242.34Zm-9.17-7.7c-14.92-12.91-41.81-5.78-52.43,7.8-14.52,18.42-7.39,42.21.67,50.68C348.78,259.91,369.48,232.49,406.18,234.64Zm58.21-15.86a2.12,2.12,0,0,0,2.15-2.15,2.1,2.1,0,0,0-2.15-2,2.07,2.07,0,0,0-2,2A2.1,2.1,0,0,0,464.39,218.78Zm15.46,2.82c-8.47-1.88-10.08-5.78-5.65-13.71-2.42,2.69-6.45,7.12-4.84,10.89S478.64,221.73,479.85,221.6ZM477.16,274c6.66-1.06,11.77-6.7,11.77-13.24,0-4.26-1.93-11.78-7.06-15.93C485.22,254.81,483.34,266.89,477.16,274Zm-19.89-39.25c2.72,6,5,15.17,5,21.79,0,27.05-22.34,36.16-35.05,56.34,14.66-11.22,36.25-21.06,44.18-39.61C476.59,261.06,472.53,243.24,457.26,234.77Zm-79,51.89c-8.33,15.73-1.21,29.71,13.58,27.69C382.39,311.13,375.93,297.82,378.22,286.66Zm57.19-6.9c-5.78-4.1-11.71-8.07-18.07-10.37-2.41,15-8.21,28.44-8.22,44.56,0,11,2.7,20.28,11,31.71a42.82,42.82,0,0,1-3-15.72C417.13,310.63,428.67,297.22,435.4,279.77Zm39.82-3a12.11,12.11,0,0,1-2.42-.26,52.92,52.92,0,0,1-11.47,14.85,23.32,23.32,0,0,0,5.25.62c13.32,0,21.7-11.18,22.4-22.8C485.37,274,480.72,276.78,475.23,276.78ZM458,267.92c-12.26-9.57-27.74-23.47-50.83-23.47C379,244.45,363,264.62,363,288c0,13.58,6.62,24.23,9.68,27.29-7.78-24.15,8.49-50.63,33.67-50.63,16.11,0,28.81,12.36,41.44,20.45C452.3,280,456,274.58,458,267.92Z" transform="translate(-189.66 -49.75)" fill="#fff"/><rect width="462.58" height="495.77" fill="none"/><polygon points="179.19 72.51 163.63 61.5 182.77 61.5 188.76 43.64 194.75 61.5 213.89 61.5 198.33 72.51 204.75 89.5 188.76 82.38 172.77 89.5 179.19 72.51" fill="#c19c57"/><polygon points="264.25 72.51 248.68 61.5 267.83 61.5 273.82 43.65 279.81 61.5 298.95 61.5 283.39 72.51 289.81 89.5 273.82 82.38 257.82 89.5 264.25 72.51" fill="#c19c57"/></svg>