<svg xmlns="http://www.w3.org/2000/svg" xmlns:xlink="http://www.w3.org/1999/xlink" width="1080" zoomAndPan="magnify" viewBox="0 0 810 809.999993" height="1080" preserveAspectRatio="xMidYMid meet" version="1.0"><defs><clipPath id="e844fbe338"><path d="M 92.003906 0 L 718.253906 0 L 718.253906 810 L 92.003906 810 Z M 92.003906 0 " clip-rule="nonzero"/></clipPath></defs><g clip-path="url(#e844fbe338)"><path fill="#332e2c" d="M 92.003906 0.324219 L 718.183594 0.324219 L 718.183594 489.941406 C 718.183594 592.539062 682.578125 633.96875 625.15625 670.316406 L 405.003906 809.65625 L 184.847656 670.316406 C 127.609375 633.96875 92.003906 592.539062 92.003906 489.941406 Z M 92.003906 0.324219 " fill-opacity="1" fill-rule="evenodd"/></g><path fill="#ffffff" d="M 108.894531 17.207031 L 701.363281 17.207031 L 701.363281 489.941406 L 701.238281 499.03125 L 700.96875 507.726562 L 700.460938 516.039062 L 699.8125 523.957031 L 698.890625 531.625 L 697.863281 538.894531 L 696.691406 545.910156 L 695.265625 552.675781 L 693.695312 559.023438 L 692.015625 565.140625 L 690.195312 570.855469 L 688.117188 576.429688 L 686.023438 581.75 L 683.699219 586.945312 L 681.226562 591.761719 L 678.625 596.558594 L 675.902344 600.980469 L 673.03125 605.398438 L 669.929688 609.546875 L 666.808594 613.714844 L 663.433594 617.609375 L 659.914062 621.507812 L 656.285156 625.132812 L 652.515625 628.902344 L 648.492188 632.402344 L 644.320312 635.917969 L 640.046875 639.417969 L 635.625 642.792969 L 630.949219 646.183594 L 626.257812 649.429688 L 621.332031 652.800781 L 616.136719 656.046875 L 405.128906 789.691406 L 193.996094 656.046875 L 188.925781 652.800781 L 184 649.429688 L 179.183594 646.183594 L 174.507812 642.792969 L 170.085938 639.417969 L 165.808594 635.917969 L 161.640625 632.402344 L 157.742188 628.902344 L 153.847656 625.132812 L 150.21875 621.507812 L 146.699219 617.609375 L 143.453125 613.714844 L 140.203125 609.546875 L 137.226562 605.398438 L 134.230469 600.980469 L 131.507812 596.558594 L 128.90625 591.761719 L 126.433594 586.945312 L 124.234375 581.75 L 122.015625 576.429688 L 119.9375 570.855469 L 118.117188 565.140625 L 116.4375 559.023438 L 114.867188 552.675781 L 113.570312 545.910156 L 112.269531 538.894531 L 111.242188 531.625 L 110.445312 523.957031 L 109.671875 516.039062 L 109.292969 507.726562 L 108.894531 499.03125 Z M 108.894531 17.207031 " fill-opacity="1" fill-rule="evenodd"/><path fill="#dc0d1d" d="M 125.660156 34.089844 L 684.472656 34.089844 L 684.472656 489.8125 L 684.347656 498.632812 L 684.078125 506.949219 L 683.570312 514.867188 L 682.921875 522.40625 L 682.128906 529.550781 L 681.226562 536.296875 L 680.050781 542.789062 L 678.753906 548.90625 L 677.453125 554.75 L 675.902344 560.195312 L 674.207031 565.515625 L 672.382812 570.460938 L 670.433594 575.132812 L 668.484375 579.675781 L 666.285156 583.96875 L 664.082031 587.992188 L 661.609375 592.015625 L 659.136719 595.785156 L 656.414062 599.429688 L 653.6875 603.054688 L 650.691406 606.425781 L 647.695312 609.945312 L 644.449219 613.191406 L 640.949219 616.4375 L 637.445312 619.683594 L 633.675781 622.929688 L 629.652344 626.050781 L 625.484375 629.300781 L 621.207031 632.402344 L 616.660156 635.523438 L 611.964844 638.640625 L 607.039062 641.890625 L 405.128906 769.6875 L 203.09375 641.890625 L 198.148438 638.640625 L 193.472656 635.523438 L 188.925781 632.402344 L 184.648438 629.300781 L 180.480469 626.050781 L 176.582031 622.929688 L 172.8125 619.683594 L 169.183594 616.4375 L 165.808594 613.191406 L 162.5625 609.945312 L 159.441406 606.425781 L 156.445312 603.054688 L 153.71875 599.429688 L 150.996094 595.785156 L 148.523438 592.015625 L 146.175781 587.992188 L 143.847656 583.96875 L 141.773438 579.675781 L 139.679688 575.132812 L 137.730469 570.460938 L 135.925781 565.515625 L 134.355469 560.195312 L 132.804688 554.75 L 131.378906 548.90625 L 130.082031 542.789062 L 129.035156 536.296875 L 127.988281 529.550781 L 127.210938 522.40625 L 126.5625 514.867188 L 126.039062 506.949219 L 125.785156 498.632812 L 125.660156 489.8125 Z M 125.660156 34.089844 " fill-opacity="1" fill-rule="evenodd"/><path fill="#ffffff" d="M 126.832031 552.023438 L 141.773438 590.335938 L 270.65625 353.050781 L 670.054688 579.949219 L 681.75 552.152344 L 234.527344 238.511719 Z M 126.832031 552.023438 " fill-opacity="1" fill-rule="evenodd"/><path fill="#ffffff" d="M 162.417969 617.339844 L 191 640.066406 L 324.828125 516.4375 L 625.609375 638.246094 L 651.089844 613.839844 L 294.816406 426.824219 Z M 162.417969 617.339844 " fill-opacity="1" fill-rule="evenodd"/><path fill="#ffffff" d="M 218.683594 56.421875 L 233.625 56.421875 C 233.816406 56.421875 233.996094 56.460938 234.171875 56.535156 C 234.347656 56.609375 234.5 56.714844 234.632812 56.851562 C 234.769531 56.984375 234.871094 57.140625 234.941406 57.316406 C 235.015625 57.492188 235.050781 57.675781 235.050781 57.863281 L 235.050781 157.722656 C 235.0625 157.921875 235.035156 158.113281 234.96875 158.300781 C 234.902344 158.492188 234.804688 158.660156 234.667969 158.804688 C 234.535156 158.953125 234.378906 159.070312 234.195312 159.152344 C 234.015625 159.238281 233.824219 159.285156 233.625 159.289062 L 218.683594 159.289062 C 218.484375 159.285156 218.292969 159.238281 218.113281 159.152344 C 217.929688 159.070312 217.773438 158.953125 217.640625 158.804688 C 217.503906 158.660156 217.40625 158.492188 217.339844 158.300781 C 217.273438 158.113281 217.246094 157.921875 217.257812 157.722656 L 217.257812 57.863281 C 217.257812 57.675781 217.292969 57.492188 217.367188 57.316406 C 217.4375 57.140625 217.542969 56.984375 217.675781 56.851562 C 217.808594 56.714844 217.960938 56.609375 218.136719 56.535156 C 218.3125 56.460938 218.492188 56.421875 218.683594 56.421875 Z M 218.683594 56.421875 " fill-opacity="1" fill-rule="evenodd"/><path fill="#ffffff" d="M 519.683594 175.777344 L 526.324219 175.777344 C 526.496094 175.789062 526.644531 175.859375 526.769531 175.980469 C 526.890625 176.105469 526.960938 176.253906 526.972656 176.425781 L 526.972656 215.136719 C 526.976562 215.316406 526.917969 215.472656 526.789062 215.601562 C 526.660156 215.726562 526.503906 215.789062 526.324219 215.785156 L 519.683594 215.785156 C 519.523438 215.761719 519.398438 215.6875 519.300781 215.5625 C 519.203125 215.433594 519.160156 215.292969 519.175781 215.136719 L 519.175781 176.425781 C 519.214844 176.171875 519.464844 175.777344 519.683594 175.777344 Z M 519.683594 175.777344 " fill-opacity="1" fill-rule="evenodd"/><path fill="#ffffff" d="M 581.578125 176.300781 L 587.929688 176.300781 C 588.074219 176.304688 588.195312 176.355469 588.296875 176.457031 C 588.394531 176.558594 588.449219 176.679688 588.453125 176.824219 L 588.453125 214.863281 C 588.472656 215.027344 588.433594 215.171875 588.332031 215.300781 C 588.226562 215.429688 588.09375 215.5 587.929688 215.515625 L 581.578125 215.515625 C 581.414062 215.5 581.28125 215.429688 581.175781 215.300781 C 581.074219 215.171875 581.035156 215.027344 581.054688 214.863281 L 581.054688 176.824219 C 581.058594 176.679688 581.113281 176.558594 581.214844 176.457031 C 581.3125 176.355469 581.433594 176.304688 581.578125 176.300781 Z M 581.578125 176.300781 " fill-opacity="1" fill-rule="evenodd"/><path fill="#ffffff" d="M 636.398438 176.046875 L 642.644531 176.046875 C 642.828125 176.035156 642.984375 176.097656 643.113281 176.226562 C 643.246094 176.355469 643.304688 176.511719 643.292969 176.695312 L 643.292969 214.738281 C 643.28125 214.910156 643.210938 215.058594 643.089844 215.183594 C 642.964844 215.308594 642.816406 215.375 642.644531 215.386719 L 638.097656 215.386719 C 637.175781 215.386719 636.921875 214.484375 635.496094 211.886719 L 626.257812 194.085938 L 626.257812 214.738281 C 626.257812 215.007812 626.007812 215.386719 625.753906 215.386719 L 619.507812 215.386719 C 619.335938 215.378906 619.183594 215.3125 619.058594 215.1875 C 618.9375 215.0625 618.867188 214.914062 618.859375 214.738281 L 618.859375 176.695312 C 618.847656 176.511719 618.910156 176.355469 619.039062 176.226562 C 619.167969 176.097656 619.324219 176.035156 619.507812 176.046875 L 623.929688 176.046875 C 625.230469 176.046875 625.734375 177.074219 626.257812 178.246094 L 634.972656 196.285156 C 635.101562 196.664062 635.75 196.664062 635.875 196.539062 L 635.875 176.695312 C 635.859375 176.535156 635.902344 176.390625 636.003906 176.265625 C 636.109375 176.140625 636.238281 176.066406 636.398438 176.046875 Z M 636.398438 176.046875 " fill-opacity="1" fill-rule="evenodd"/><path fill="#ffffff" d="M 314.179688 56.566406 L 349.785156 56.566406 C 350.785156 56.566406 351.777344 56.664062 352.757812 56.855469 C 353.738281 57.050781 354.691406 57.339844 355.617188 57.71875 C 356.542969 58.101562 357.421875 58.566406 358.257812 59.121094 C 359.089844 59.671875 359.863281 60.300781 360.574219 61.007812 C 361.285156 61.710938 361.917969 62.476562 362.480469 63.304688 C 363.039062 64.136719 363.511719 65.011719 363.902344 65.933594 C 364.289062 66.851562 364.585938 67.804688 364.789062 68.785156 C 364.992188 69.761719 365.097656 70.753906 365.105469 71.753906 L 365.105469 100.847656 C 365.105469 108.894531 366.277344 118.507812 356.082031 123.179688 L 365.554688 157.59375 C 365.636719 157.789062 365.664062 157.988281 365.640625 158.195312 C 365.621094 158.402344 365.550781 158.589844 365.429688 158.761719 C 365.3125 158.933594 365.160156 159.066406 364.972656 159.160156 C 364.789062 159.253906 364.589844 159.296875 364.382812 159.289062 L 349.1875 159.289062 C 348.691406 159.273438 348.25 159.105469 347.867188 158.792969 C 347.480469 158.476562 347.230469 158.078125 347.113281 157.59375 L 334.480469 109.667969 C 334.445312 109.570312 334.425781 109.46875 334.414062 109.363281 C 334.40625 109.257812 334.410156 109.152344 334.425781 109.046875 C 334.441406 108.945312 334.472656 108.84375 334.515625 108.746094 C 334.554688 108.648438 334.609375 108.558594 334.675781 108.476562 C 334.738281 108.394531 334.8125 108.320312 334.894531 108.253906 C 334.980469 108.1875 335.070312 108.136719 335.164062 108.09375 C 335.261719 108.050781 335.363281 108.019531 335.46875 108.003906 C 335.570312 107.984375 335.675781 107.980469 335.78125 107.992188 L 342.546875 107.992188 C 347.222656 107.992188 348.269531 104.746094 348.269531 100.199219 L 348.269531 79.148438 C 348.28125 78.824219 348.265625 78.503906 348.214844 78.183594 C 348.164062 77.863281 348.085938 77.550781 347.976562 77.246094 C 347.867188 76.941406 347.726562 76.648438 347.558594 76.371094 C 347.394531 76.09375 347.203125 75.832031 346.984375 75.59375 C 346.765625 75.351562 346.527344 75.136719 346.269531 74.941406 C 346.007812 74.746094 345.734375 74.578125 345.441406 74.4375 C 345.148438 74.296875 344.847656 74.1875 344.53125 74.105469 C 344.21875 74.023438 343.898438 73.972656 343.578125 73.953125 L 330.582031 74.097656 L 330.582031 157.992188 C 330.582031 158.179688 330.542969 158.359375 330.46875 158.535156 C 330.398438 158.707031 330.292969 158.859375 330.160156 158.992188 C 330.027344 159.128906 329.875 159.230469 329.699219 159.304688 C 329.527344 159.375 329.347656 159.414062 329.15625 159.417969 L 314.089844 159.417969 C 313.902344 159.414062 313.722656 159.375 313.546875 159.304688 C 313.375 159.230469 313.21875 159.128906 313.085938 158.996094 C 312.953125 158.859375 312.851562 158.707031 312.777344 158.535156 C 312.703125 158.359375 312.667969 158.179688 312.664062 157.992188 L 312.664062 58.042969 C 312.664062 57.84375 312.703125 57.652344 312.78125 57.46875 C 312.859375 57.285156 312.96875 57.125 313.109375 56.984375 C 313.253906 56.847656 313.417969 56.742188 313.601562 56.667969 C 313.789062 56.59375 313.980469 56.5625 314.179688 56.566406 Z M 314.179688 56.566406 " fill-opacity="1" fill-rule="evenodd"/><path fill="#ffffff" d="M 607.039062 56.816406 L 642.769531 56.816406 C 643.765625 56.824219 644.75 56.929688 645.726562 57.128906 C 646.703125 57.328125 647.648438 57.617188 648.566406 58.003906 C 649.488281 58.386719 650.359375 58.855469 651.1875 59.410156 C 652.011719 59.964844 652.777344 60.59375 653.484375 61.296875 C 654.1875 62 654.816406 62.765625 655.371094 63.59375 C 655.925781 64.421875 656.394531 65.292969 656.777344 66.210938 C 657.164062 67.128906 657.457031 68.074219 657.65625 69.050781 C 657.855469 70.027344 657.957031 71.011719 657.964844 72.007812 L 657.964844 101.101562 C 657.964844 109.019531 659.136719 118.757812 648.941406 123.304688 L 658.632812 157.867188 C 658.699219 158.066406 658.714844 158.273438 658.675781 158.484375 C 658.640625 158.691406 658.558594 158.878906 658.429688 159.050781 C 658.296875 159.21875 658.136719 159.34375 657.941406 159.433594 C 657.75 159.519531 657.546875 159.554688 657.332031 159.542969 L 642.136719 159.542969 C 641.652344 159.507812 641.21875 159.339844 640.835938 159.03125 C 640.457031 158.722656 640.199219 158.335938 640.0625 157.867188 L 627.429688 109.8125 C 627.382812 109.613281 627.378906 109.410156 627.421875 109.207031 C 627.464844 109.003906 627.550781 108.820312 627.675781 108.65625 C 627.800781 108.488281 627.957031 108.359375 628.140625 108.265625 C 628.328125 108.171875 628.523438 108.121094 628.730469 108.117188 L 635.496094 108.117188 C 640.296875 108.117188 641.199219 104.996094 641.199219 100.453125 L 641.199219 79.292969 C 641.222656 78.972656 641.210938 78.652344 641.164062 78.335938 C 641.121094 78.019531 641.042969 77.707031 640.9375 77.40625 C 640.828125 77.101562 640.691406 76.816406 640.523438 76.539062 C 640.359375 76.265625 640.164062 76.011719 639.945312 75.777344 C 639.726562 75.542969 639.488281 75.332031 639.226562 75.148438 C 638.964844 74.960938 638.683594 74.804688 638.390625 74.675781 C 638.097656 74.546875 637.792969 74.449219 637.480469 74.382812 C 637.164062 74.316406 636.847656 74.28125 636.527344 74.277344 L 623.535156 74.40625 L 623.535156 158.117188 C 623.542969 158.316406 623.515625 158.507812 623.449219 158.695312 C 623.378906 158.878906 623.28125 159.046875 623.144531 159.191406 C 623.011719 159.335938 622.855469 159.453125 622.675781 159.535156 C 622.496094 159.617188 622.304688 159.664062 622.109375 159.667969 L 607.039062 159.667969 C 606.84375 159.664062 606.652344 159.617188 606.472656 159.535156 C 606.292969 159.453125 606.136719 159.335938 606.003906 159.191406 C 605.867188 159.046875 605.769531 158.878906 605.699219 158.695312 C 605.632812 158.507812 605.605469 158.316406 605.613281 158.117188 L 605.613281 58.242188 C 605.617188 58.054688 605.65625 57.875 605.726562 57.699219 C 605.800781 57.527344 605.902344 57.375 606.039062 57.242188 C 606.171875 57.109375 606.324219 57.003906 606.496094 56.929688 C 606.671875 56.859375 606.851562 56.820312 607.039062 56.816406 Z M 607.039062 56.816406 " fill-opacity="1" fill-rule="evenodd"/><path fill="#ffffff" d="M 414.875 56.566406 L 405.253906 56.566406 L 405.253906 82.269531 L 412.671875 120.148438 L 405.253906 120.148438 L 405.253906 134.8125 L 415.648438 134.8125 L 420.199219 157.9375 C 420.285156 158.339844 420.484375 158.675781 420.800781 158.941406 C 421.117188 159.207031 421.480469 159.347656 421.894531 159.363281 L 436.835938 159.363281 C 437.015625 159.367188 437.1875 159.332031 437.351562 159.257812 C 437.515625 159.179688 437.652344 159.074219 437.769531 158.933594 C 437.882812 158.796875 437.960938 158.640625 438.003906 158.464844 C 438.046875 158.289062 438.046875 158.113281 438.007812 157.9375 L 416.695312 58.042969 C 416.65625 57.832031 416.582031 57.632812 416.472656 57.449219 C 416.363281 57.265625 416.226562 57.105469 416.058594 56.96875 C 415.890625 56.832031 415.707031 56.730469 415.503906 56.660156 C 415.296875 56.59375 415.089844 56.558594 414.875 56.566406 Z M 405.253906 56.566406 L 395.636719 56.566406 C 395.417969 56.5625 395.207031 56.601562 395 56.675781 C 394.796875 56.75 394.609375 56.859375 394.441406 57 C 394.277344 57.144531 394.140625 57.3125 394.035156 57.503906 C 393.929688 57.695312 393.863281 57.898438 393.832031 58.117188 L 372.394531 157.992188 C 372.351562 158.167969 372.351562 158.339844 372.390625 158.515625 C 372.429688 158.691406 372.507812 158.851562 372.621094 158.988281 C 372.734375 159.128906 372.871094 159.238281 373.035156 159.3125 C 373.199219 159.386719 373.371094 159.421875 373.550781 159.417969 L 388.636719 159.417969 C 389.042969 159.398438 389.40625 159.253906 389.71875 158.988281 C 390.03125 158.726562 390.230469 158.390625 390.3125 157.992188 L 394.863281 134.867188 L 405.253906 134.867188 L 405.253906 120.203125 L 397.855469 120.203125 L 405.253906 82.324219 Z M 405.253906 56.566406 " fill-opacity="1" fill-rule="evenodd"/><path fill="#ffffff" d="M 564.417969 56.566406 L 574.035156 56.566406 C 574.46875 56.609375 574.851562 56.773438 575.183594 57.058594 C 575.511719 57.339844 575.730469 57.695312 575.839844 58.117188 L 597.277344 157.992188 C 597.316406 158.167969 597.316406 158.34375 597.273438 158.519531 C 597.230469 158.691406 597.152344 158.851562 597.039062 158.988281 C 596.921875 159.128906 596.785156 159.234375 596.621094 159.3125 C 596.457031 159.386719 596.285156 159.421875 596.105469 159.417969 L 581.035156 159.417969 C 580.621094 159.378906 580.25 159.234375 579.921875 158.972656 C 579.59375 158.714844 579.363281 158.386719 579.230469 157.992188 L 574.683594 134.867188 L 564.417969 134.867188 L 564.417969 120.203125 L 571.832031 120.203125 L 564.417969 82.324219 Z M 554.671875 56.566406 L 564.417969 56.566406 L 564.417969 82.269531 L 556.890625 120.148438 L 564.417969 120.148438 L 564.417969 134.8125 L 553.96875 134.8125 L 549.421875 157.9375 C 549.335938 158.339844 549.136719 158.671875 548.824219 158.9375 C 548.511719 159.199219 548.152344 159.34375 547.742188 159.363281 L 532.65625 159.363281 C 532.472656 159.378906 532.296875 159.351562 532.125 159.28125 C 531.957031 159.210938 531.8125 159.101562 531.695312 158.960938 C 531.582031 158.816406 531.503906 158.65625 531.472656 158.472656 C 531.4375 158.292969 531.445312 158.113281 531.5 157.9375 L 552.992188 58.042969 C 553.070312 57.632812 553.261719 57.289062 553.574219 57.015625 C 553.890625 56.738281 554.253906 56.589844 554.671875 56.566406 Z M 554.671875 56.566406 " fill-opacity="1" fill-rule="evenodd"/><path fill="#ffffff" d="M 445.804688 56.566406 L 460.871094 56.566406 C 461.066406 56.582031 461.25 56.632812 461.425781 56.71875 C 461.601562 56.804688 461.757812 56.917969 461.886719 57.0625 C 462.019531 57.207031 462.121094 57.367188 462.191406 57.550781 C 462.261719 57.734375 462.296875 57.921875 462.296875 58.117188 L 462.296875 141.359375 L 492.054688 141.359375 C 492.273438 141.375 492.484375 141.429688 492.683594 141.519531 C 492.882812 141.613281 493.058594 141.734375 493.214844 141.890625 C 493.367188 142.046875 493.492188 142.226562 493.578125 142.425781 C 493.667969 142.628906 493.71875 142.835938 493.734375 143.054688 L 493.734375 157.867188 C 493.71875 158.082031 493.664062 158.292969 493.574219 158.488281 C 493.484375 158.6875 493.363281 158.863281 493.207031 159.019531 C 493.054688 159.171875 492.878906 159.296875 492.679688 159.386719 C 492.480469 159.476562 492.273438 159.527344 492.054688 159.542969 L 445.804688 159.542969 C 445.609375 159.527344 445.421875 159.480469 445.242188 159.394531 C 445.066406 159.308594 444.910156 159.195312 444.777344 159.050781 C 444.640625 158.90625 444.539062 158.746094 444.46875 158.5625 C 444.394531 158.378906 444.359375 158.1875 444.359375 157.992188 L 444.359375 58.042969 C 444.367188 57.855469 444.410156 57.671875 444.488281 57.496094 C 444.5625 57.320312 444.667969 57.167969 444.800781 57.03125 C 444.933594 56.894531 445.085938 56.785156 445.257812 56.707031 C 445.433594 56.625 445.613281 56.578125 445.804688 56.566406 Z M 445.804688 56.566406 " fill-opacity="1" fill-rule="evenodd"/><path fill="#ffffff" d="M 202.695312 215.261719 L 207.242188 215.261719 C 207.6875 215.289062 208.132812 215.273438 208.574219 215.210938 C 209.019531 215.152344 209.449219 215.046875 209.875 214.902344 C 210.296875 214.757812 210.699219 214.574219 211.085938 214.347656 C 211.472656 214.125 211.832031 213.863281 212.167969 213.566406 C 212.503906 213.273438 212.804688 212.945312 213.078125 212.59375 C 213.347656 212.238281 213.582031 211.859375 213.777344 211.457031 C 213.976562 211.058594 214.128906 210.640625 214.246094 210.210938 C 214.359375 209.777344 214.433594 209.339844 214.460938 208.894531 L 214.460938 182.503906 C 214.425781 182.0625 214.351562 181.625 214.230469 181.195312 C 214.113281 180.765625 213.953125 180.355469 213.753906 179.957031 C 213.558594 179.558594 213.320312 179.183594 213.050781 178.828125 C 212.78125 178.476562 212.476562 178.152344 212.144531 177.859375 C 211.808594 177.5625 211.449219 177.304688 211.066406 177.078125 C 210.683594 176.855469 210.28125 176.667969 209.859375 176.519531 C 209.441406 176.371094 209.011719 176.265625 208.570312 176.203125 C 208.128906 176.136719 207.6875 176.117188 207.242188 176.136719 L 202.695312 176.136719 L 202.695312 183.152344 L 205.167969 183.152344 C 206.089844 183.152344 206.863281 183.660156 206.863281 184.453125 L 206.863281 206.785156 C 206.863281 207.558594 206.089844 208.082031 205.167969 208.082031 L 202.695312 208.082031 Z M 198.542969 215.261719 L 202.695312 215.261719 L 202.695312 208.046875 L 200.097656 208.046875 C 199.910156 208.058594 199.726562 208.035156 199.546875 207.976562 C 199.367188 207.917969 199.203125 207.828125 199.058594 207.707031 C 198.914062 207.585938 198.796875 207.445312 198.710938 207.277344 C 198.621094 207.113281 198.566406 206.933594 198.542969 206.746094 L 198.542969 184.488281 C 198.5625 184.300781 198.617188 184.121094 198.703125 183.957031 C 198.792969 183.789062 198.910156 183.644531 199.054688 183.523438 C 199.199219 183.402344 199.363281 183.3125 199.542969 183.253906 C 199.722656 183.195312 199.90625 183.175781 200.097656 183.191406 L 202.695312 183.191406 L 202.695312 176.171875 L 198.472656 176.171875 C 198.027344 176.152344 197.585938 176.175781 197.144531 176.238281 C 196.703125 176.304688 196.273438 176.410156 195.855469 176.554688 C 195.433594 176.703125 195.03125 176.890625 194.648438 177.117188 C 194.265625 177.339844 193.90625 177.601562 193.570312 177.894531 C 193.238281 178.1875 192.9375 178.511719 192.664062 178.867188 C 192.394531 179.21875 192.160156 179.59375 191.960938 179.992188 C 191.761719 180.390625 191.601562 180.804688 191.484375 181.230469 C 191.367188 181.660156 191.289062 182.097656 191.253906 182.539062 L 191.253906 208.894531 C 191.285156 209.339844 191.355469 209.777344 191.46875 210.210938 C 191.585938 210.640625 191.742188 211.058594 191.9375 211.457031 C 192.132812 211.859375 192.367188 212.238281 192.640625 212.59375 C 192.910156 212.945312 193.214844 213.273438 193.546875 213.566406 C 193.882812 213.863281 194.242188 214.125 194.628906 214.347656 C 195.015625 214.574219 195.421875 214.757812 195.84375 214.902344 C 196.265625 215.046875 196.699219 215.152344 197.140625 215.210938 C 197.582031 215.273438 198.027344 215.289062 198.472656 215.261719 Z M 198.542969 215.261719 " fill-opacity="1" fill-rule="evenodd"/><path fill="#ffffff" d="M 229.476562 215.261719 L 234.148438 215.261719 C 234.589844 215.28125 235.023438 215.257812 235.460938 215.195312 C 235.894531 215.128906 236.320312 215.023438 236.734375 214.875 C 237.148438 214.726562 237.542969 214.539062 237.921875 214.3125 C 238.296875 214.085938 238.648438 213.824219 238.976562 213.527344 C 239.300781 213.230469 239.59375 212.90625 239.855469 212.554688 C 240.117188 212.203125 240.34375 211.824219 240.53125 211.429688 C 240.71875 211.03125 240.867188 210.621094 240.976562 210.191406 C 241.082031 209.765625 241.144531 209.332031 241.167969 208.894531 L 241.167969 182.503906 C 241.140625 182.066406 241.074219 181.636719 240.964844 181.210938 C 240.851562 180.789062 240.703125 180.378906 240.511719 179.980469 C 240.324219 179.585938 240.097656 179.214844 239.835938 178.863281 C 239.574219 178.511719 239.28125 178.1875 238.957031 177.894531 C 238.628906 177.597656 238.28125 177.335938 237.90625 177.109375 C 237.53125 176.882812 237.136719 176.695312 236.722656 176.542969 C 236.3125 176.394531 235.890625 176.285156 235.457031 176.214844 C 235.023438 176.148438 234.585938 176.121094 234.148438 176.136719 L 229.476562 176.136719 L 229.476562 183.152344 L 232.074219 183.152344 C 232.261719 183.140625 232.445312 183.160156 232.625 183.21875 C 232.808594 183.273438 232.96875 183.363281 233.113281 183.484375 C 233.261719 183.609375 233.378906 183.753906 233.464844 183.917969 C 233.554688 184.085938 233.605469 184.265625 233.625 184.453125 L 233.625 206.785156 C 233.605469 206.972656 233.550781 207.148438 233.460938 207.3125 C 233.371094 207.480469 233.253906 207.625 233.109375 207.746094 C 232.964844 207.867188 232.804688 207.957031 232.625 208.015625 C 232.445312 208.074219 232.261719 208.09375 232.074219 208.082031 L 229.476562 208.082031 Z M 225.304688 215.261719 L 229.476562 215.261719 L 229.476562 208.046875 L 227.003906 208.046875 C 226.082031 208.046875 225.304688 207.523438 225.304688 206.746094 L 225.304688 184.488281 C 225.304688 183.695312 226.082031 183.191406 227.003906 183.191406 L 229.476562 183.191406 L 229.476562 176.171875 L 225.304688 176.171875 C 224.871094 176.160156 224.4375 176.1875 224.007812 176.257812 C 223.578125 176.328125 223.160156 176.4375 222.75 176.585938 C 222.339844 176.738281 221.949219 176.925781 221.578125 177.152344 C 221.203125 177.378906 220.855469 177.636719 220.535156 177.929688 C 220.210938 178.222656 219.921875 178.542969 219.660156 178.890625 C 219.398438 179.238281 219.171875 179.609375 218.984375 180.003906 C 218.792969 180.394531 218.644531 180.800781 218.53125 181.222656 C 218.421875 181.644531 218.351562 182.070312 218.324219 182.503906 L 218.324219 208.859375 C 218.34375 209.296875 218.40625 209.730469 218.507812 210.15625 C 218.613281 210.585938 218.761719 210.996094 218.945312 211.394531 C 219.132812 211.792969 219.355469 212.167969 219.613281 212.523438 C 219.875 212.878906 220.167969 213.203125 220.492188 213.5 C 220.816406 213.800781 221.164062 214.0625 221.539062 214.289062 C 221.917969 214.519531 222.3125 214.707031 222.722656 214.859375 C 223.136719 215.011719 223.5625 215.121094 223.996094 215.1875 C 224.429688 215.253906 224.867188 215.28125 225.304688 215.261719 Z M 225.304688 215.261719 " fill-opacity="1" fill-rule="evenodd"/><path fill="#ffffff" d="M 481.535156 215.261719 L 477.492188 215.261719 L 477.492188 208.046875 L 479.980469 208.046875 C 480.902344 208.046875 481.550781 207.523438 481.550781 206.746094 L 481.550781 184.488281 C 481.550781 183.695312 480.902344 183.191406 479.980469 183.191406 L 477.511719 183.191406 L 477.511719 176.171875 L 481.550781 176.171875 C 481.996094 176.148438 482.441406 176.164062 482.886719 176.222656 C 483.328125 176.285156 483.761719 176.386719 484.183594 176.53125 C 484.605469 176.675781 485.007812 176.863281 485.394531 177.085938 C 485.78125 177.3125 486.140625 177.570312 486.476562 177.867188 C 486.8125 178.164062 487.113281 178.488281 487.386719 178.84375 C 487.65625 179.199219 487.890625 179.574219 488.085938 179.976562 C 488.285156 180.378906 488.441406 180.792969 488.554688 181.226562 C 488.667969 181.65625 488.742188 182.09375 488.769531 182.539062 L 488.769531 208.894531 C 488.746094 209.34375 488.679688 209.785156 488.566406 210.21875 C 488.453125 210.652344 488.300781 211.070312 488.105469 211.476562 C 487.910156 211.878906 487.675781 212.257812 487.402344 212.617188 C 487.132812 212.972656 486.828125 213.300781 486.492188 213.597656 C 486.152344 213.894531 485.789062 214.152344 485.402344 214.378906 C 485.011719 214.601562 484.605469 214.785156 484.179688 214.929688 C 483.753906 215.070312 483.320312 215.171875 482.875 215.226562 C 482.429688 215.28125 481.980469 215.292969 481.535156 215.261719 Z M 477.492188 215.261719 L 472.765625 215.261719 C 472.316406 215.289062 471.875 215.273438 471.429688 215.210938 C 470.988281 215.152344 470.554688 215.046875 470.132812 214.902344 C 469.710938 214.757812 469.308594 214.574219 468.921875 214.347656 C 468.535156 214.125 468.175781 213.863281 467.839844 213.566406 C 467.503906 213.273438 467.203125 212.945312 466.929688 212.59375 C 466.660156 212.238281 466.425781 211.859375 466.230469 211.457031 C 466.03125 211.058594 465.875 210.640625 465.761719 210.210938 C 465.644531 209.777344 465.574219 209.339844 465.546875 208.894531 L 465.546875 182.503906 C 465.578125 182.0625 465.65625 181.625 465.773438 181.195312 C 465.894531 180.765625 466.050781 180.355469 466.25 179.957031 C 466.449219 179.558594 466.683594 179.183594 466.957031 178.828125 C 467.226562 178.476562 467.53125 178.152344 467.863281 177.859375 C 468.195312 177.5625 468.554688 177.304688 468.941406 177.078125 C 469.324219 176.855469 469.726562 176.667969 470.144531 176.519531 C 470.566406 176.371094 470.996094 176.265625 471.4375 176.203125 C 471.875 176.136719 472.320312 176.117188 472.765625 176.136719 L 477.4375 176.136719 L 477.4375 183.152344 L 474.839844 183.152344 C 473.9375 183.152344 473.289062 183.660156 473.289062 184.453125 L 473.289062 206.785156 C 473.296875 206.976562 473.34375 207.160156 473.425781 207.332031 C 473.511719 207.503906 473.628906 207.652344 473.777344 207.773438 C 473.925781 207.898438 474.089844 207.988281 474.277344 208.039062 C 474.460938 208.09375 474.648438 208.109375 474.839844 208.082031 L 477.4375 208.082031 Z M 477.492188 215.261719 " fill-opacity="1" fill-rule="evenodd"/><path fill="#ffffff" d="M 607.941406 215.261719 L 603.792969 215.261719 L 603.792969 208.046875 L 606.390625 208.046875 C 606.582031 208.070312 606.769531 208.058594 606.953125 208.003906 C 607.140625 207.949219 607.304688 207.863281 607.453125 207.738281 C 607.601562 207.613281 607.714844 207.46875 607.800781 207.292969 C 607.886719 207.121094 607.933594 206.941406 607.941406 206.746094 L 607.941406 184.488281 C 607.941406 183.695312 607.292969 183.191406 606.390625 183.191406 L 603.792969 183.191406 L 603.792969 176.171875 L 607.941406 176.171875 C 608.386719 176.152344 608.828125 176.175781 609.269531 176.238281 C 609.710938 176.304688 610.140625 176.410156 610.5625 176.554688 C 610.980469 176.703125 611.382812 176.890625 611.765625 177.117188 C 612.152344 177.339844 612.507812 177.601562 612.84375 177.894531 C 613.175781 178.1875 613.480469 178.511719 613.75 178.867188 C 614.023438 179.21875 614.257812 179.59375 614.457031 179.992188 C 614.652344 180.390625 614.8125 180.804688 614.929688 181.230469 C 615.050781 181.660156 615.125 182.097656 615.160156 182.539062 L 615.160156 208.894531 C 615.132812 209.339844 615.058594 209.777344 614.945312 210.210938 C 614.832031 210.640625 614.675781 211.058594 614.476562 211.457031 C 614.28125 211.859375 614.046875 212.238281 613.777344 212.59375 C 613.503906 212.945312 613.203125 213.273438 612.867188 213.566406 C 612.53125 213.863281 612.171875 214.125 611.785156 214.347656 C 611.398438 214.574219 610.996094 214.757812 610.574219 214.902344 C 610.152344 215.046875 609.71875 215.152344 609.273438 215.210938 C 608.832031 215.273438 608.386719 215.289062 607.941406 215.261719 Z M 603.792969 215.261719 L 599.246094 215.261719 C 598.796875 215.289062 598.355469 215.273438 597.910156 215.210938 C 597.46875 215.152344 597.035156 215.046875 596.613281 214.902344 C 596.191406 214.757812 595.789062 214.574219 595.402344 214.347656 C 595.015625 214.125 594.65625 213.863281 594.320312 213.566406 C 593.984375 213.273438 593.683594 212.945312 593.410156 212.59375 C 593.140625 212.238281 592.90625 211.859375 592.710938 211.457031 C 592.511719 211.058594 592.355469 210.640625 592.242188 210.210938 C 592.125 209.777344 592.054688 209.339844 592.027344 208.894531 L 592.027344 182.503906 C 592.0625 182.0625 592.136719 181.625 592.257812 181.195312 C 592.375 180.765625 592.535156 180.355469 592.730469 179.957031 C 592.929688 179.558594 593.164062 179.183594 593.4375 178.828125 C 593.707031 178.476562 594.011719 178.152344 594.34375 177.859375 C 594.679688 177.5625 595.035156 177.304688 595.421875 177.078125 C 595.804688 176.855469 596.207031 176.667969 596.625 176.519531 C 597.046875 176.371094 597.476562 176.265625 597.917969 176.203125 C 598.355469 176.136719 598.800781 176.117188 599.246094 176.136719 L 603.792969 176.136719 L 603.792969 183.152344 L 601.320312 183.152344 C 600.417969 183.152344 599.769531 183.660156 599.769531 184.453125 L 599.769531 206.785156 C 599.777344 206.976562 599.824219 207.160156 599.910156 207.332031 C 599.992188 207.503906 600.109375 207.652344 600.257812 207.773438 C 600.40625 207.898438 600.570312 207.988281 600.757812 208.039062 C 600.941406 208.09375 601.128906 208.109375 601.320312 208.082031 L 603.792969 208.082031 Z M 603.792969 215.261719 " fill-opacity="1" fill-rule="evenodd"/><path fill="#ffffff" d="M 508.167969 214.972656 L 499.832031 214.972656 C 499.394531 214.992188 498.960938 214.96875 498.53125 214.902344 C 498.101562 214.835938 497.679688 214.726562 497.269531 214.578125 C 496.859375 214.425781 496.46875 214.238281 496.097656 214.011719 C 495.722656 213.785156 495.378906 213.523438 495.058594 213.226562 C 494.738281 212.929688 494.449219 212.605469 494.191406 212.253906 C 493.9375 211.898438 493.71875 211.523438 493.535156 211.128906 C 493.351562 210.730469 493.210938 210.320312 493.113281 209.894531 C 493.011719 209.472656 492.953125 209.042969 492.9375 208.605469 L 492.9375 182.269531 C 492.953125 181.835938 493.011719 181.402344 493.113281 180.980469 C 493.210938 180.554688 493.351562 180.144531 493.535156 179.75 C 493.71875 179.351562 493.9375 178.976562 494.191406 178.625 C 494.449219 178.269531 494.738281 177.945312 495.058594 177.648438 C 495.378906 177.355469 495.722656 177.09375 496.097656 176.863281 C 496.46875 176.636719 496.859375 176.449219 497.269531 176.296875 C 497.679688 176.148438 498.101562 176.039062 498.53125 175.972656 C 498.960938 175.90625 499.394531 175.882812 499.832031 175.902344 L 508.152344 175.902344 C 508.585938 175.890625 509.015625 175.917969 509.445312 175.988281 C 509.875 176.058594 510.289062 176.171875 510.699219 176.324219 C 511.105469 176.476562 511.492188 176.664062 511.863281 176.894531 C 512.230469 177.121094 512.574219 177.382812 512.894531 177.679688 C 513.210938 177.972656 513.5 178.296875 513.753906 178.648438 C 514.011719 179 514.230469 179.371094 514.414062 179.765625 C 514.59375 180.15625 514.738281 180.566406 514.84375 180.988281 C 514.945312 181.410156 515.007812 181.835938 515.027344 182.269531 L 515.027344 191.289062 L 508.152344 191.289062 L 508.152344 184.074219 C 508.144531 183.875 508.097656 183.683594 508.015625 183.503906 C 507.929688 183.324219 507.816406 183.164062 507.667969 183.03125 C 507.519531 182.894531 507.351562 182.796875 507.164062 182.730469 C 506.972656 182.664062 506.78125 182.636719 506.582031 182.648438 L 501.78125 182.648438 C 501.582031 182.636719 501.386719 182.664062 501.199219 182.730469 C 501.011719 182.796875 500.84375 182.894531 500.695312 183.03125 C 500.546875 183.164062 500.429688 183.324219 500.347656 183.503906 C 500.261719 183.683594 500.21875 183.875 500.210938 184.074219 L 500.210938 206.277344 C 500.214844 206.480469 500.257812 206.671875 500.34375 206.855469 C 500.425781 207.039062 500.539062 207.199219 500.6875 207.335938 C 500.835938 207.46875 501.003906 207.570312 501.195312 207.640625 C 501.386719 207.707031 501.582031 207.734375 501.78125 207.722656 L 506.582031 207.722656 C 506.78125 207.734375 506.976562 207.707031 507.167969 207.640625 C 507.355469 207.570312 507.523438 207.46875 507.671875 207.335938 C 507.820312 207.199219 507.9375 207.039062 508.019531 206.855469 C 508.101562 206.671875 508.144531 206.480469 508.152344 206.277344 L 508.152344 200.183594 L 515.027344 200.183594 L 515.027344 208.496094 C 515.011719 208.933594 514.957031 209.367188 514.859375 209.792969 C 514.761719 210.21875 514.625 210.632812 514.445312 211.03125 C 514.265625 211.433594 514.050781 211.808594 513.796875 212.167969 C 513.542969 212.523438 513.253906 212.851562 512.9375 213.152344 C 512.621094 213.453125 512.273438 213.71875 511.902344 213.953125 C 511.53125 214.1875 511.144531 214.378906 510.734375 214.535156 C 510.324219 214.691406 509.90625 214.808594 509.472656 214.878906 C 509.042969 214.953125 508.605469 214.984375 508.167969 214.972656 Z M 508.167969 214.972656 " fill-opacity="1" fill-rule="evenodd"/><path fill="#ffffff" d="M 166.964844 159.289062 L 187.375 159.289062 C 187.921875 159.289062 188.46875 159.261719 189.015625 159.203125 C 189.5625 159.148438 190.105469 159.066406 190.640625 158.960938 C 191.179688 158.851562 191.710938 158.71875 192.234375 158.558594 C 192.761719 158.398438 193.273438 158.210938 193.78125 158 C 194.289062 157.789062 194.785156 157.554688 195.265625 157.296875 C 195.75 157.035156 196.21875 156.753906 196.675781 156.449219 C 197.132812 156.144531 197.570312 155.816406 197.996094 155.46875 C 198.417969 155.121094 198.824219 154.753906 199.214844 154.367188 C 199.601562 153.980469 199.96875 153.574219 200.316406 153.148438 C 200.664062 152.726562 200.992188 152.285156 201.296875 151.832031 C 201.601562 151.375 201.882812 150.90625 202.144531 150.421875 C 202.402344 149.9375 202.636719 149.445312 202.847656 148.9375 C 203.058594 148.429688 203.246094 147.917969 203.40625 147.390625 C 203.566406 146.867188 203.699219 146.335938 203.808594 145.796875 C 203.917969 145.261719 204 144.71875 204.054688 144.175781 C 204.109375 143.628906 204.136719 143.082031 204.140625 142.535156 L 204.140625 105.125 C 204.140625 103.320312 203.34375 102.921875 202.191406 102.921875 L 178.730469 102.921875 C 178.207031 102.921875 177.683594 103.824219 177.683594 104.871094 L 177.683594 118.109375 C 177.683594 119.15625 178.207031 119.914062 178.730469 119.914062 L 186.257812 119.914062 L 186.257812 137.84375 C 186.257812 138.34375 186.160156 138.824219 185.96875 139.285156 C 185.777344 139.75 185.503906 140.15625 185.152344 140.507812 C 184.796875 140.863281 184.390625 141.136719 183.925781 141.328125 C 183.464844 141.519531 182.984375 141.613281 182.484375 141.613281 L 170.738281 141.613281 C 170.238281 141.609375 169.757812 141.515625 169.296875 141.320312 C 168.835938 141.128906 168.429688 140.855469 168.074219 140.503906 C 167.722656 140.152344 167.449219 139.746094 167.257812 139.285156 C 167.066406 138.824219 166.96875 138.34375 166.964844 137.84375 L 166.964844 77.472656 C 166.96875 76.972656 167.066406 76.492188 167.257812 76.03125 C 167.449219 75.570312 167.722656 75.164062 168.074219 74.8125 C 168.429688 74.457031 168.835938 74.183594 169.296875 73.992188 C 169.757812 73.800781 170.238281 73.703125 170.738281 73.703125 L 182.554688 73.703125 C 183.058594 73.703125 183.539062 73.796875 184 73.988281 C 184.460938 74.179688 184.871094 74.453125 185.222656 74.804688 C 185.578125 75.160156 185.851562 75.566406 186.042969 76.027344 C 186.234375 76.492188 186.328125 76.972656 186.328125 77.472656 L 186.328125 88.707031 C 186.328125 90.65625 186.726562 90.65625 188.023438 90.785156 L 201.917969 90.785156 C 203.996094 90.785156 204.140625 90.132812 204.140625 88.980469 L 204.140625 73.449219 C 204.136719 72.902344 204.109375 72.351562 204.054688 71.808594 C 204 71.261719 203.917969 70.71875 203.8125 70.183594 C 203.703125 69.644531 203.570312 69.113281 203.410156 68.589844 C 203.25 68.0625 203.0625 67.546875 202.851562 67.042969 C 202.644531 66.535156 202.40625 66.039062 202.148438 65.558594 C 201.890625 65.074219 201.609375 64.605469 201.300781 64.148438 C 200.996094 63.691406 200.671875 63.253906 200.324219 62.828125 C 199.972656 62.402344 199.605469 62 199.21875 61.609375 C 198.832031 61.222656 198.425781 60.855469 198 60.507812 C 197.574219 60.160156 197.136719 59.832031 196.679688 59.527344 C 196.222656 59.222656 195.753906 58.941406 195.269531 58.679688 C 194.785156 58.421875 194.292969 58.1875 193.785156 57.976562 C 193.277344 57.765625 192.761719 57.582031 192.238281 57.421875 C 191.710938 57.261719 191.179688 57.128906 190.644531 57.019531 C 190.105469 56.910156 189.5625 56.832031 189.015625 56.777344 C 188.472656 56.722656 187.921875 56.691406 187.375 56.691406 L 166.964844 56.691406 C 166.417969 56.691406 165.871094 56.722656 165.324219 56.777344 C 164.777344 56.832031 164.238281 56.910156 163.699219 57.019531 C 163.160156 57.128906 162.628906 57.261719 162.105469 57.421875 C 161.582031 57.582031 161.066406 57.765625 160.558594 57.976562 C 160.050781 58.1875 159.558594 58.421875 159.074219 58.683594 C 158.589844 58.941406 158.121094 59.222656 157.664062 59.527344 C 157.207031 59.832031 156.769531 60.160156 156.34375 60.507812 C 155.921875 60.855469 155.515625 61.222656 155.128906 61.613281 C 154.742188 62 154.371094 62.40625 154.023438 62.828125 C 153.675781 63.253906 153.351562 63.691406 153.046875 64.148438 C 152.742188 64.605469 152.460938 65.074219 152.203125 65.558594 C 151.941406 66.042969 151.707031 66.535156 151.5 67.042969 C 151.289062 67.550781 151.105469 68.066406 150.945312 68.589844 C 150.785156 69.113281 150.652344 69.644531 150.542969 70.183594 C 150.4375 70.722656 150.355469 71.261719 150.300781 71.808594 C 150.246094 72.355469 150.21875 72.902344 150.21875 73.449219 L 150.21875 142.535156 C 150.21875 143.082031 150.25 143.628906 150.304688 144.171875 C 150.359375 144.71875 150.4375 145.261719 150.546875 145.796875 C 150.65625 146.335938 150.789062 146.867188 150.949219 147.390625 C 151.109375 147.914062 151.292969 148.429688 151.503906 148.9375 C 151.714844 149.441406 151.949219 149.9375 152.207031 150.421875 C 152.464844 150.902344 152.746094 151.375 153.050781 151.828125 C 153.355469 152.285156 153.683594 152.722656 154.03125 153.148438 C 154.378906 153.570312 154.746094 153.976562 155.132812 154.367188 C 155.519531 154.753906 155.925781 155.121094 156.351562 155.46875 C 156.773438 155.816406 157.214844 156.144531 157.667969 156.449219 C 158.125 156.753906 158.59375 157.035156 159.078125 157.296875 C 159.558594 157.554688 160.054688 157.789062 160.5625 158 C 161.066406 158.210938 161.582031 158.394531 162.105469 158.554688 C 162.632812 158.71875 163.164062 158.851562 163.699219 158.960938 C 164.238281 159.066406 164.777344 159.148438 165.324219 159.203125 C 165.871094 159.261719 166.417969 159.289062 166.964844 159.289062 Z M 166.964844 159.289062 " fill-opacity="1" fill-rule="evenodd"/><path fill="#ffffff" d="M 489.183594 56.945312 L 537.132812 56.945312 C 537.328125 56.960938 537.515625 57.011719 537.691406 57.097656 C 537.867188 57.1875 538.023438 57.300781 538.15625 57.449219 C 538.289062 57.59375 538.386719 57.757812 538.457031 57.941406 C 538.527344 58.125 538.5625 58.316406 538.558594 58.515625 L 538.558594 72.476562 C 538.554688 72.664062 538.519531 72.84375 538.445312 73.015625 C 538.371094 73.191406 538.269531 73.34375 538.136719 73.476562 C 538 73.609375 537.847656 73.714844 537.675781 73.785156 C 537.5 73.859375 537.320312 73.898438 537.132812 73.898438 L 521.667969 73.898438 L 521.667969 157.992188 C 521.667969 158.1875 521.632812 158.375 521.5625 158.558594 C 521.492188 158.738281 521.390625 158.902344 521.257812 159.046875 C 521.125 159.191406 520.972656 159.304688 520.796875 159.390625 C 520.621094 159.476562 520.4375 159.527344 520.242188 159.542969 L 505.246094 159.542969 C 505.050781 159.527344 504.867188 159.476562 504.691406 159.390625 C 504.515625 159.304688 504.359375 159.191406 504.230469 159.046875 C 504.097656 158.902344 503.996094 158.738281 503.925781 158.558594 C 503.855469 158.375 503.820312 158.1875 503.820312 157.992188 L 503.820312 73.953125 L 489.183594 73.953125 C 488.988281 73.964844 488.796875 73.933594 488.609375 73.867188 C 488.421875 73.800781 488.257812 73.699219 488.109375 73.566406 C 487.964844 73.433594 487.851562 73.273438 487.769531 73.09375 C 487.683594 72.914062 487.640625 72.726562 487.632812 72.527344 L 487.632812 58.515625 C 487.632812 58.308594 487.671875 58.109375 487.75 57.917969 C 487.828125 57.726562 487.941406 57.558594 488.085938 57.410156 C 488.230469 57.261719 488.398438 57.148438 488.589844 57.070312 C 488.78125 56.988281 488.980469 56.945312 489.183594 56.945312 Z M 489.183594 56.945312 " fill-opacity="1" fill-rule="evenodd"/><path fill="#ffffff" d="M 244.273438 176.300781 L 265.710938 176.300781 C 265.894531 176.289062 266.050781 176.347656 266.179688 176.476562 C 266.3125 176.609375 266.371094 176.765625 266.359375 176.949219 L 266.359375 182.667969 C 266.371094 182.851562 266.3125 183.007812 266.179688 183.136719 C 266.050781 183.269531 265.894531 183.328125 265.710938 183.316406 L 258.835938 183.316406 L 258.835938 214.738281 C 258.816406 214.898438 258.742188 215.03125 258.617188 215.132812 C 258.492188 215.234375 258.347656 215.277344 258.183594 215.261719 L 251.417969 215.261719 C 251.257812 215.277344 251.113281 215.234375 250.988281 215.132812 C 250.859375 215.03125 250.789062 214.898438 250.769531 214.738281 L 250.769531 183.316406 L 244.273438 183.316406 C 244.089844 183.320312 243.9375 183.261719 243.808594 183.132812 C 243.679688 183.003906 243.617188 182.847656 243.621094 182.667969 L 243.621094 176.949219 C 243.609375 176.765625 243.671875 176.609375 243.800781 176.476562 C 243.929688 176.347656 244.089844 176.289062 244.273438 176.300781 Z M 244.273438 176.300781 " fill-opacity="1" fill-rule="evenodd"/><path fill="#ffffff" d="M 555.972656 176.425781 L 577.425781 176.425781 C 577.824219 176.425781 578.203125 176.695312 578.203125 176.949219 L 578.203125 182.792969 C 578.183594 182.988281 578.097656 183.152344 577.949219 183.277344 C 577.796875 183.402344 577.625 183.457031 577.425781 183.441406 L 570.550781 183.441406 L 570.550781 214.738281 C 570.5625 214.921875 570.503906 215.078125 570.375 215.210938 C 570.242188 215.339844 570.085938 215.398438 569.902344 215.386719 L 563.136719 215.386719 C 562.960938 215.375 562.8125 215.308594 562.691406 215.183594 C 562.566406 215.058594 562.5 214.910156 562.484375 214.738281 L 562.484375 183.441406 L 555.988281 183.441406 C 555.804688 183.453125 555.648438 183.394531 555.519531 183.265625 C 555.386719 183.132812 555.328125 182.976562 555.339844 182.792969 L 555.339844 176.949219 C 555.363281 176.792969 555.433594 176.667969 555.554688 176.566406 C 555.675781 176.464844 555.816406 176.421875 555.972656 176.425781 Z M 555.972656 176.425781 " fill-opacity="1" fill-rule="evenodd"/><path fill="#ffffff" d="M 325.351562 175.902344 L 332.371094 175.902344 C 332.527344 175.925781 332.660156 176 332.757812 176.125 C 332.859375 176.25 332.90625 176.390625 332.894531 176.550781 L 332.894531 207.992188 L 344.316406 207.992188 C 344.480469 207.972656 344.625 208.011719 344.753906 208.113281 C 344.878906 208.21875 344.953125 208.351562 344.964844 208.515625 L 344.964844 214.613281 C 344.976562 214.796875 344.917969 214.953125 344.789062 215.082031 C 344.65625 215.214844 344.5 215.273438 344.316406 215.261719 L 325.351562 215.261719 C 325.210938 215.253906 325.089844 215.199219 324.988281 215.097656 C 324.890625 215 324.835938 214.878906 324.828125 214.738281 L 324.828125 176.550781 C 324.816406 176.390625 324.859375 176.25 324.960938 176.125 C 325.0625 176 325.191406 175.925781 325.351562 175.902344 Z M 325.351562 175.902344 " fill-opacity="1" fill-rule="evenodd"/><path fill="#ffffff" d="M 349.132812 175.902344 L 356.007812 175.902344 C 356.195312 175.890625 356.351562 175.953125 356.480469 176.082031 C 356.609375 176.210938 356.671875 176.367188 356.660156 176.550781 L 356.660156 207.992188 L 367.972656 207.992188 C 368.136719 207.976562 368.277344 208.019531 368.40625 208.121094 C 368.53125 208.222656 368.605469 208.355469 368.625 208.515625 L 368.625 214.613281 C 368.632812 214.796875 368.574219 214.953125 368.445312 215.082031 C 368.316406 215.214844 368.15625 215.273438 367.972656 215.261719 L 349.132812 215.261719 C 348.992188 215.257812 348.871094 215.203125 348.769531 215.101562 C 348.667969 215.003906 348.617188 214.878906 348.609375 214.738281 L 348.609375 176.550781 C 348.59375 176.390625 348.636719 176.246094 348.738281 176.121094 C 348.839844 175.996094 348.972656 175.921875 349.132812 175.902344 Z M 349.132812 175.902344 " fill-opacity="1" fill-rule="evenodd"/><path fill="#ffffff" d="M 284.042969 56.421875 C 285.042969 56.421875 286.03125 56.523438 287.007812 56.71875 C 287.988281 56.917969 288.9375 57.207031 289.859375 57.589844 C 290.777344 57.972656 291.652344 58.441406 292.484375 58.996094 C 293.3125 59.550781 294.078125 60.179688 294.785156 60.886719 C 295.488281 61.59375 296.117188 62.359375 296.671875 63.1875 C 297.226562 64.019531 297.695312 64.894531 298.078125 65.816406 C 298.460938 66.738281 298.75 67.6875 298.945312 68.664062 C 299.140625 69.640625 299.238281 70.628906 299.238281 71.628906 L 299.238281 100.074219 C 299.238281 104.09375 295.628906 106.691406 293.644531 107.59375 L 293.644531 108.550781 C 296.386719 109.976562 299.238281 111.527344 299.238281 115.171875 L 299.238281 144.085938 C 299.238281 145.082031 299.140625 146.070312 298.945312 147.046875 C 298.75 148.027344 298.460938 148.976562 298.078125 149.898438 C 297.695312 150.816406 297.226562 151.691406 296.671875 152.523438 C 296.117188 153.351562 295.488281 154.121094 294.785156 154.824219 C 294.078125 155.53125 293.3125 156.160156 292.484375 156.714844 C 291.652344 157.269531 290.777344 157.738281 289.859375 158.121094 C 288.9375 158.507812 287.988281 158.796875 287.007812 158.992188 C 286.03125 159.1875 285.042969 159.289062 284.042969 159.289062 L 274.679688 159.289062 L 274.679688 141.632812 L 278.847656 141.632812 C 279.347656 141.628906 279.824219 141.53125 280.285156 141.339844 C 280.746094 141.148438 281.152344 140.875 281.503906 140.519531 C 281.855469 140.167969 282.125 139.761719 282.316406 139.300781 C 282.503906 138.839844 282.601562 138.359375 282.601562 137.863281 L 282.601562 122.980469 C 282.601562 117.390625 281.175781 116.359375 278.054688 116.359375 L 274.679688 116.359375 L 274.679688 99.421875 L 278.289062 99.421875 C 281.140625 99.421875 282.566406 97.726562 282.566406 94.480469 L 282.566406 77.472656 C 282.566406 76.972656 282.46875 76.492188 282.277344 76.03125 C 282.089844 75.570312 281.816406 75.164062 281.464844 74.8125 C 281.113281 74.457031 280.707031 74.1875 280.25 73.992188 C 279.789062 73.800781 279.308594 73.703125 278.8125 73.703125 L 274.644531 73.703125 L 274.644531 56.421875 Z M 274.679688 159.234375 L 250.117188 159.234375 C 249.917969 159.230469 249.730469 159.183594 249.546875 159.101562 C 249.367188 159.015625 249.207031 158.898438 249.074219 158.753906 C 248.941406 158.605469 248.839844 158.4375 248.773438 158.25 C 248.707031 158.058594 248.679688 157.867188 248.691406 157.667969 L 248.691406 57.863281 C 248.691406 57.675781 248.730469 57.492188 248.800781 57.316406 C 248.875 57.140625 248.976562 56.984375 249.109375 56.851562 C 249.242188 56.714844 249.398438 56.609375 249.570312 56.535156 C 249.746094 56.460938 249.929688 56.421875 250.117188 56.421875 L 274.679688 56.421875 L 274.679688 73.703125 L 266.628906 73.703125 L 266.628906 141.632812 L 274.679688 141.632812 L 274.679688 159.289062 Z M 274.679688 99.371094 L 272.460938 99.371094 C 272.296875 99.382812 272.160156 99.453125 272.058594 99.582031 C 271.957031 99.710938 271.914062 99.855469 271.9375 100.019531 L 271.9375 115.601562 C 271.921875 115.765625 271.964844 115.910156 272.066406 116.035156 C 272.167969 116.160156 272.296875 116.234375 272.460938 116.253906 L 274.660156 116.253906 Z M 274.679688 99.371094 " fill-opacity="1" fill-rule="evenodd"/><path fill="#ffffff" d="M 167.109375 215.136719 L 173.859375 215.136719 C 174.007812 215.148438 174.136719 215.097656 174.242188 214.992188 C 174.347656 214.886719 174.394531 214.761719 174.382812 214.613281 L 174.382812 200.183594 L 185.300781 200.183594 C 185.550781 200.183594 185.679688 199.910156 185.679688 199.660156 L 185.679688 193.328125 C 185.691406 193.21875 185.65625 193.125 185.582031 193.046875 C 185.503906 192.96875 185.410156 192.9375 185.300781 192.949219 L 174.382812 192.949219 L 174.382812 183.335938 L 188.925781 183.335938 C 189.066406 183.324219 189.1875 183.273438 189.289062 183.171875 C 189.386719 183.074219 189.441406 182.953125 189.449219 182.8125 L 189.449219 176.425781 C 189.449219 176.171875 189.199219 176.046875 188.925781 176.046875 L 167.109375 176.046875 C 166.960938 176.03125 166.835938 176.074219 166.726562 176.175781 C 166.621094 176.277344 166.574219 176.40625 166.585938 176.550781 L 166.585938 214.613281 C 166.566406 214.761719 166.613281 214.894531 166.71875 215 C 166.828125 215.109375 166.957031 215.152344 167.109375 215.136719 Z M 167.109375 215.136719 " fill-opacity="1" fill-rule="evenodd"/><path fill="#ffffff" d="M 544.152344 176.300781 L 548.300781 176.300781 C 548.679688 176.304688 548.941406 176.480469 549.097656 176.824219 L 558.117188 214.484375 C 558.246094 214.738281 557.972656 215.007812 557.59375 215.007812 L 551.226562 215.007812 C 550.855469 215 550.597656 214.824219 550.449219 214.484375 L 548.753906 206.820312 L 544.078125 206.820312 L 544.078125 200.199219 L 547.328125 200.199219 L 544.078125 185.914062 Z M 540.128906 176.300781 L 544.152344 176.300781 L 544.152344 185.914062 L 541.03125 200.199219 L 544.152344 200.199219 L 544.152344 206.820312 L 539.53125 206.820312 L 537.726562 214.484375 C 537.726562 214.738281 537.347656 215.007812 537.078125 215.007812 L 530.582031 215.007812 C 530.441406 214.996094 530.324219 214.941406 530.226562 214.84375 C 530.125 214.742188 530.070312 214.625 530.058594 214.484375 L 539.296875 176.824219 C 539.351562 176.550781 539.730469 176.300781 540.128906 176.300781 Z M 540.128906 176.300781 " fill-opacity="1" fill-rule="evenodd"/><path fill="#ffffff" d="M 398.378906 176.425781 L 402.53125 176.425781 C 402.785156 176.425781 403.179688 176.695312 403.179688 176.949219 L 412.402344 214.484375 C 412.402344 214.863281 412.277344 215.136719 411.878906 215.136719 L 405.527344 215.136719 C 405.328125 215.152344 405.152344 215.097656 405 214.96875 C 404.84375 214.84375 404.757812 214.683594 404.734375 214.484375 L 403.054688 206.945312 L 398.378906 206.945312 L 398.378906 200.328125 L 401.484375 200.328125 L 398.378906 186.113281 Z M 394.210938 176.425781 L 398.378906 176.425781 L 398.378906 186.113281 L 395.132812 200.398438 L 398.378906 200.398438 L 398.378906 207.019531 L 393.6875 207.019531 L 392.011719 214.558594 C 391.988281 214.75 391.902344 214.910156 391.75 215.035156 C 391.601562 215.160156 391.429688 215.21875 391.234375 215.207031 L 384.863281 215.207031 C 384.46875 215.207031 384.339844 214.9375 384.339844 214.558594 L 393.363281 177.019531 C 393.539062 176.671875 393.824219 176.472656 394.210938 176.425781 Z M 394.210938 176.425781 " fill-opacity="1" fill-rule="evenodd"/><path fill="#ffffff" d="M 308.082031 176.425781 L 312.160156 176.425781 C 312.523438 176.445312 312.78125 176.617188 312.933594 176.949219 L 321.957031 214.613281 C 322.085938 214.863281 321.832031 215.136719 321.5625 215.136719 L 315.066406 215.136719 C 314.722656 215.082031 314.464844 214.90625 314.289062 214.613281 L 312.609375 206.945312 L 308.0625 206.945312 L 308.0625 200.328125 L 311.167969 200.328125 L 308.082031 186.113281 Z M 303.914062 176.425781 L 308.082031 176.425781 L 308.082031 186.113281 L 304.832031 200.273438 L 308.082031 200.273438 L 308.082031 206.890625 L 303.390625 206.890625 L 301.710938 214.558594 C 301.558594 214.890625 301.300781 215.0625 300.933594 215.082031 L 294.4375 215.082031 C 294.167969 215.082031 293.914062 214.808594 294.042969 214.558594 L 303.0625 176.894531 C 303.246094 176.558594 303.53125 176.402344 303.914062 176.425781 Z M 303.914062 176.425781 " fill-opacity="1" fill-rule="evenodd"/><path fill="#ffffff" d="M 429.453125 215.660156 L 420.972656 215.660156 C 420.535156 215.679688 420.097656 215.65625 419.664062 215.589844 C 419.226562 215.527344 418.804688 215.417969 418.390625 215.269531 C 417.976562 215.121094 417.582031 214.933594 417.207031 214.707031 C 416.828125 214.480469 416.480469 214.21875 416.152344 213.921875 C 415.828125 213.628906 415.535156 213.304688 415.273438 212.949219 C 415.011719 212.597656 414.789062 212.222656 414.601562 211.824219 C 414.414062 211.425781 414.269531 211.015625 414.160156 210.589844 C 414.054688 210.164062 413.992188 209.730469 413.972656 209.289062 L 413.972656 203.175781 C 413.972656 202.527344 414.097656 202.671875 414.476562 202.527344 L 420.847656 202.527344 C 421.242188 202.527344 421.371094 202.671875 421.371094 203.175781 L 421.371094 207.074219 C 421.390625 207.277344 421.449219 207.472656 421.546875 207.65625 C 421.640625 207.839844 421.769531 208 421.925781 208.136719 C 422.085938 208.269531 422.261719 208.371094 422.460938 208.4375 C 422.65625 208.5 422.859375 208.527344 423.066406 208.515625 L 427.867188 208.515625 C 428.0625 208.515625 428.253906 208.480469 428.4375 208.410156 C 428.621094 208.335938 428.785156 208.234375 428.925781 208.101562 C 429.070312 207.964844 429.1875 207.808594 429.269531 207.632812 C 429.355469 207.457031 429.40625 207.269531 429.417969 207.074219 L 429.417969 201.371094 C 429.417969 200.328125 428.914062 200.199219 427.992188 199.929688 L 415.269531 195.78125 C 414.871094 195.664062 414.550781 195.4375 414.308594 195.101562 C 414.066406 194.765625 413.957031 194.390625 413.972656 193.976562 L 413.972656 182.9375 C 413.992188 182.5 414.054688 182.066406 414.160156 181.640625 C 414.269531 181.214844 414.414062 180.800781 414.601562 180.40625 C 414.789062 180.007812 415.011719 179.632812 415.273438 179.277344 C 415.535156 178.925781 415.828125 178.601562 416.152344 178.304688 C 416.480469 178.007812 416.828125 177.75 417.207031 177.523438 C 417.582031 177.296875 417.976562 177.109375 418.390625 176.957031 C 418.804688 176.808594 419.226562 176.703125 419.664062 176.636719 C 420.097656 176.570312 420.535156 176.550781 420.972656 176.570312 L 429.453125 176.570312 C 429.894531 176.554688 430.328125 176.582031 430.761719 176.652344 C 431.195312 176.722656 431.617188 176.832031 432.027344 176.984375 C 432.4375 177.132812 432.832031 177.320312 433.207031 177.550781 C 433.582031 177.777344 433.933594 178.035156 434.257812 178.332031 C 434.582031 178.625 434.875 178.949219 435.136719 179.300781 C 435.398438 179.652344 435.625 180.023438 435.816406 180.417969 C 436.003906 180.8125 436.15625 181.222656 436.265625 181.644531 C 436.378906 182.070312 436.445312 182.5 436.472656 182.9375 L 436.472656 188.347656 C 436.472656 189.144531 436.222656 189.144531 435.824219 189.144531 L 430.105469 189.144531 C 429.453125 189.144531 429.453125 188.746094 429.453125 188.492188 L 429.453125 184.886719 C 429.4375 184.691406 429.386719 184.507812 429.300781 184.332031 C 429.214844 184.15625 429.101562 184 428.957031 183.871094 C 428.8125 183.738281 428.652344 183.636719 428.46875 183.566406 C 428.285156 183.496094 428.097656 183.460938 427.902344 183.460938 L 423.101562 183.460938 C 422.898438 183.449219 422.695312 183.472656 422.5 183.539062 C 422.304688 183.601562 422.128906 183.703125 421.96875 183.835938 C 421.8125 183.96875 421.683594 184.125 421.585938 184.304688 C 421.488281 184.488281 421.429688 184.679688 421.40625 184.886719 L 421.40625 188.910156 C 421.40625 189.429688 421.53125 189.953125 422.578125 190.207031 L 434.148438 194.101562 C 436.472656 194.898438 436.472656 195.671875 436.472656 198 L 436.472656 209.308594 C 436.445312 209.746094 436.375 210.175781 436.261719 210.597656 C 436.152344 211.019531 436 211.429688 435.808594 211.824219 C 435.621094 212.21875 435.394531 212.589844 435.128906 212.9375 C 434.867188 213.289062 434.574219 213.609375 434.25 213.902344 C 433.925781 214.199219 433.578125 214.457031 433.203125 214.683594 C 432.828125 214.910156 432.433594 215.097656 432.023438 215.25 C 431.613281 215.398438 431.191406 215.507812 430.757812 215.578125 C 430.328125 215.644531 429.890625 215.671875 429.453125 215.660156 Z M 429.453125 215.660156 " fill-opacity="1" fill-rule="evenodd"/><path fill="#ffffff" d="M 454.898438 215.660156 L 446.308594 215.660156 C 445.871094 215.679688 445.433594 215.65625 445 215.589844 C 444.5625 215.527344 444.140625 215.417969 443.726562 215.269531 C 443.3125 215.121094 442.917969 214.933594 442.542969 214.707031 C 442.164062 214.480469 441.816406 214.21875 441.488281 213.921875 C 441.164062 213.628906 440.871094 213.304688 440.609375 212.949219 C 440.347656 212.597656 440.125 212.222656 439.9375 211.824219 C 439.75 211.425781 439.605469 211.015625 439.496094 210.589844 C 439.390625 210.164062 439.328125 209.730469 439.308594 209.289062 L 439.308594 203.175781 C 439.308594 202.527344 439.433594 202.671875 439.8125 202.527344 L 446.183594 202.527344 C 446.578125 202.527344 446.707031 202.671875 446.707031 203.175781 L 446.707031 207.074219 C 446.726562 207.277344 446.785156 207.472656 446.882812 207.65625 C 446.976562 207.839844 447.105469 208 447.261719 208.136719 C 447.421875 208.269531 447.597656 208.371094 447.796875 208.4375 C 447.992188 208.5 448.195312 208.527344 448.402344 208.515625 L 453.328125 208.515625 C 453.527344 208.515625 453.71875 208.480469 453.902344 208.410156 C 454.085938 208.335938 454.25 208.234375 454.398438 208.101562 C 454.542969 207.96875 454.660156 207.8125 454.746094 207.632812 C 454.832031 207.457031 454.882812 207.269531 454.898438 207.074219 L 454.898438 201.371094 C 454.898438 200.328125 454.375 200.199219 453.457031 199.929688 L 440.605469 195.78125 C 440.207031 195.664062 439.886719 195.4375 439.644531 195.101562 C 439.402344 194.765625 439.292969 194.390625 439.308594 193.976562 L 439.308594 182.9375 C 439.328125 182.5 439.390625 182.066406 439.496094 181.640625 C 439.605469 181.214844 439.75 180.800781 439.9375 180.40625 C 440.125 180.007812 440.347656 179.632812 440.609375 179.277344 C 440.871094 178.925781 441.164062 178.601562 441.488281 178.304688 C 441.816406 178.007812 442.164062 177.75 442.542969 177.523438 C 442.917969 177.296875 443.3125 177.109375 443.726562 176.957031 C 444.140625 176.808594 444.5625 176.703125 445 176.636719 C 445.433594 176.570312 445.871094 176.550781 446.308594 176.570312 L 454.898438 176.570312 C 455.335938 176.554688 455.769531 176.582031 456.203125 176.652344 C 456.636719 176.722656 457.058594 176.832031 457.46875 176.984375 C 457.878906 177.132812 458.273438 177.324219 458.648438 177.550781 C 459.019531 177.777344 459.371094 178.039062 459.695312 178.332031 C 460.019531 178.625 460.308594 178.949219 460.570312 179.300781 C 460.832031 179.652344 461.058594 180.023438 461.246094 180.417969 C 461.4375 180.8125 461.585938 181.222656 461.695312 181.648438 C 461.804688 182.070312 461.875 182.5 461.902344 182.9375 L 461.902344 188.347656 C 461.902344 189.144531 461.648438 189.144531 461.25 189.144531 L 455.546875 189.144531 C 454.898438 189.144531 454.898438 188.746094 454.898438 188.492188 L 454.898438 184.886719 C 454.878906 184.691406 454.828125 184.503906 454.742188 184.328125 C 454.652344 184.152344 454.535156 184 454.390625 183.867188 C 454.246094 183.738281 454.082031 183.636719 453.898438 183.566406 C 453.714844 183.496094 453.523438 183.460938 453.328125 183.460938 L 448.402344 183.460938 C 448.195312 183.449219 447.996094 183.472656 447.800781 183.539062 C 447.605469 183.601562 447.425781 183.703125 447.269531 183.835938 C 447.109375 183.96875 446.984375 184.125 446.886719 184.304688 C 446.789062 184.488281 446.730469 184.679688 446.707031 184.886719 L 446.707031 188.910156 C 446.707031 189.429688 446.832031 189.953125 447.878906 190.207031 L 459.574219 194.101562 C 461.902344 194.898438 461.902344 195.671875 461.902344 198 L 461.902344 209.308594 C 461.871094 209.746094 461.804688 210.175781 461.691406 210.597656 C 461.582031 211.019531 461.433594 211.429688 461.242188 211.820312 C 461.054688 212.214844 460.828125 212.585938 460.566406 212.9375 C 460.304688 213.289062 460.011719 213.609375 459.6875 213.902344 C 459.363281 214.195312 459.015625 214.457031 458.640625 214.683594 C 458.265625 214.910156 457.875 215.097656 457.464844 215.246094 C 457.054688 215.398438 456.632812 215.507812 456.203125 215.578125 C 455.769531 215.644531 455.335938 215.671875 454.898438 215.660156 Z M 454.898438 215.660156 " fill-opacity="1" fill-rule="evenodd"/><path fill="#ffffff" d="M 284.550781 176.425781 C 284.953125 176.402344 285.359375 176.414062 285.757812 176.46875 C 286.160156 176.523438 286.554688 176.613281 286.9375 176.742188 C 287.324219 176.871094 287.691406 177.039062 288.042969 177.238281 C 288.394531 177.4375 288.726562 177.671875 289.03125 177.9375 C 289.339844 178.199219 289.621094 178.492188 289.871094 178.808594 C 290.121094 179.128906 290.339844 179.46875 290.523438 179.828125 C 290.707031 180.191406 290.855469 180.566406 290.96875 180.953125 C 291.082031 181.34375 291.15625 181.742188 291.191406 182.144531 L 291.191406 192.785156 C 291.191406 194.230469 289.492188 195.257812 288.71875 195.65625 L 288.71875 195.90625 C 289.890625 196.429688 291.191406 197.078125 291.191406 198.378906 L 291.191406 209.199219 C 291.160156 209.605469 291.085938 210.007812 290.976562 210.398438 C 290.867188 210.789062 290.722656 211.167969 290.539062 211.53125 C 290.355469 211.894531 290.136719 212.238281 289.886719 212.5625 C 289.636719 212.882812 289.359375 213.175781 289.050781 213.445312 C 288.742188 213.710938 288.414062 213.945312 288.058594 214.148438 C 287.707031 214.351562 287.335938 214.519531 286.949219 214.652344 C 286.566406 214.78125 286.167969 214.875 285.765625 214.929688 C 285.363281 214.984375 284.957031 214.996094 284.550781 214.972656 L 280.398438 214.972656 L 280.398438 208.335938 L 282.203125 208.335938 C 282.410156 208.347656 282.609375 208.320312 282.804688 208.257812 C 282.996094 208.191406 283.171875 208.09375 283.328125 207.960938 C 283.488281 207.828125 283.613281 207.671875 283.707031 207.488281 C 283.804688 207.308594 283.859375 207.113281 283.882812 206.910156 L 283.882812 201.335938 C 283.882812 199.242188 283.230469 198.863281 281.933594 198.863281 L 280.382812 198.863281 L 280.382812 192.496094 L 282.078125 192.496094 C 282.324219 192.523438 282.5625 192.496094 282.796875 192.414062 C 283.03125 192.328125 283.234375 192.199219 283.410156 192.027344 C 283.585938 191.851562 283.714844 191.648438 283.796875 191.414062 C 283.878906 191.179688 283.90625 190.941406 283.882812 190.695312 L 283.882812 184.308594 C 283.859375 184.105469 283.804688 183.910156 283.707031 183.730469 C 283.613281 183.546875 283.488281 183.390625 283.328125 183.257812 C 283.171875 183.125 282.996094 183.027344 282.804688 182.960938 C 282.609375 182.898438 282.410156 182.871094 282.203125 182.882812 L 280.398438 182.882812 L 280.398438 176.390625 Z M 280.398438 214.972656 L 269.878906 214.972656 C 269.71875 214.988281 269.574219 214.945312 269.445312 214.84375 C 269.320312 214.742188 269.246094 214.609375 269.230469 214.449219 L 269.230469 176.949219 C 269.246094 176.789062 269.320312 176.65625 269.445312 176.554688 C 269.574219 176.453125 269.71875 176.410156 269.878906 176.425781 L 280.398438 176.425781 L 280.398438 182.917969 L 277.023438 182.917969 L 277.023438 192.535156 L 280.398438 192.535156 L 280.398438 198.902344 L 277.023438 198.902344 L 277.023438 208.371094 L 280.398438 208.371094 Z M 280.398438 214.972656 " fill-opacity="1" fill-rule="evenodd"/><path fill="#ffffff" d="M 655.113281 201.625 C 655.433594 201.628906 655.75 201.601562 656.0625 201.542969 C 656.378906 201.484375 656.683594 201.394531 656.980469 201.273438 C 657.277344 201.15625 657.558594 201.007812 657.828125 200.835938 C 658.09375 200.660156 658.34375 200.460938 658.570312 200.238281 C 658.800781 200.015625 659.003906 199.773438 659.1875 199.507812 C 659.367188 199.246094 659.519531 198.964844 659.644531 198.671875 C 659.769531 198.378906 659.867188 198.074219 659.933594 197.761719 C 660 197.449219 660.035156 197.132812 660.039062 196.816406 C 660.042969 196.496094 660.015625 196.179688 659.957031 195.863281 C 659.898438 195.550781 659.808594 195.246094 659.691406 194.949219 C 659.574219 194.652344 659.425781 194.371094 659.253906 194.101562 C 659.078125 193.832031 658.878906 193.585938 658.65625 193.355469 C 658.433594 193.128906 658.191406 192.921875 657.925781 192.742188 C 657.664062 192.558594 657.382812 192.40625 657.089844 192.28125 C 656.796875 192.15625 656.492188 192.058594 656.179688 191.992188 C 655.867188 191.925781 655.550781 191.890625 655.234375 191.886719 C 654.914062 191.882812 654.597656 191.90625 654.28125 191.964844 C 653.96875 192.023438 653.664062 192.113281 653.363281 192.230469 C 653.066406 192.347656 652.785156 192.496094 652.515625 192.667969 C 652.25 192.839844 652 193.039062 651.769531 193.261719 C 651.542969 193.484375 651.335938 193.726562 651.15625 193.992188 C 650.972656 194.253906 650.820312 194.53125 650.691406 194.824219 C 650.566406 195.121094 650.46875 195.421875 650.402344 195.734375 C 650.335938 196.046875 650.300781 196.363281 650.296875 196.683594 C 650.292969 197.003906 650.324219 197.320312 650.382812 197.632812 C 650.445312 197.945312 650.535156 198.25 650.65625 198.546875 C 650.773438 198.84375 650.921875 199.125 651.097656 199.394531 C 651.269531 199.660156 651.46875 199.910156 651.691406 200.136719 C 651.917969 200.367188 652.160156 200.574219 652.421875 200.753906 C 652.6875 200.9375 652.964844 201.089844 653.257812 201.21875 C 653.550781 201.34375 653.851562 201.441406 654.164062 201.511719 C 654.476562 201.582031 654.792969 201.617188 655.113281 201.625 Z M 655.113281 201.625 " fill-opacity="1" fill-rule="evenodd"/><path fill="#ffffff" d="M 154.621094 201.625 C 154.9375 201.628906 155.25 201.597656 155.5625 201.539062 C 155.875 201.480469 156.175781 201.390625 156.46875 201.269531 C 156.761719 201.148438 157.039062 201.003906 157.300781 200.828125 C 157.566406 200.652344 157.808594 200.453125 158.035156 200.230469 C 158.257812 200.007812 158.457031 199.765625 158.632812 199.503906 C 158.808594 199.238281 158.957031 198.960938 159.078125 198.671875 C 159.199219 198.378906 159.289062 198.078125 159.351562 197.765625 C 159.410156 197.457031 159.441406 197.144531 159.441406 196.828125 C 159.460938 196.5 159.445312 196.171875 159.398438 195.847656 C 159.355469 195.523438 159.273438 195.203125 159.164062 194.894531 C 159.050781 194.585938 158.910156 194.292969 158.738281 194.011719 C 158.566406 193.730469 158.367188 193.472656 158.140625 193.234375 C 157.914062 192.992188 157.667969 192.777344 157.398438 192.589844 C 157.128906 192.402344 156.84375 192.242188 156.542969 192.113281 C 156.242188 191.980469 155.929688 191.882812 155.605469 191.816406 C 155.285156 191.75 154.960938 191.714844 154.632812 191.714844 C 154.300781 191.714844 153.976562 191.75 153.65625 191.816406 C 153.332031 191.882812 153.019531 191.980469 152.71875 192.113281 C 152.417969 192.242188 152.132812 192.402344 151.863281 192.589844 C 151.59375 192.777344 151.347656 192.992188 151.121094 193.234375 C 150.894531 193.472656 150.699219 193.730469 150.527344 194.011719 C 150.355469 194.292969 150.210938 194.585938 150.101562 194.894531 C 149.988281 195.203125 149.910156 195.523438 149.863281 195.847656 C 149.816406 196.171875 149.800781 196.5 149.820312 196.828125 C 149.820312 197.140625 149.851562 197.453125 149.910156 197.765625 C 149.972656 198.074219 150.0625 198.375 150.183594 198.664062 C 150.304688 198.957031 150.449219 199.234375 150.625 199.496094 C 150.800781 199.757812 151 200 151.222656 200.226562 C 151.445312 200.449219 151.6875 200.648438 151.949219 200.820312 C 152.214844 200.996094 152.492188 201.144531 152.78125 201.265625 C 153.074219 201.382812 153.375 201.476562 153.683594 201.535156 C 153.996094 201.597656 154.308594 201.625 154.621094 201.625 Z M 154.621094 201.625 " fill-opacity="1" fill-rule="evenodd"/></svg>