<svg id="Layer_1" data-name="Layer 1" xmlns="http://www.w3.org/2000/svg" viewBox="0 0 347.04 448.7"><defs><style>.cls-1{fill:#332e2c;}.cls-1,.cls-2,.cls-3{fill-rule:evenodd;}.cls-2{fill:#fff;}.cls-3{fill:#dc0d1d;}</style></defs><path class="cls-1" d="M0,0H347V271.44c0,56.88-19.73,79.85-51.55,100l-122,77.25-122-77.25C19.73,351.29,0,328.32,0,271.44Z"/><polygon class="cls-2" points="9.36 9.36 337.68 9.36 337.68 271.44 337.61 276.48 337.46 281.3 337.18 285.91 336.82 290.3 336.31 294.55 335.74 298.58 335.09 302.47 334.3 306.22 333.43 309.74 332.5 313.13 331.49 316.3 330.34 319.39 329.18 322.34 327.89 325.22 326.52 327.89 325.08 330.55 323.57 333 321.98 335.45 320.26 337.75 318.53 340.06 316.66 342.22 314.71 344.38 312.7 346.39 310.61 348.48 308.38 350.42 306.07 352.37 303.7 354.31 301.25 356.18 298.66 358.06 296.06 359.86 293.33 361.73 290.45 363.53 173.52 437.62 56.52 363.53 53.71 361.73 50.98 359.86 48.31 358.06 45.72 356.18 43.27 354.31 40.9 352.37 38.59 350.42 36.43 348.48 34.27 346.39 32.26 344.38 30.31 342.22 28.51 340.06 26.71 337.75 25.06 335.45 23.4 333 21.89 330.55 20.45 327.89 19.08 325.22 17.86 322.34 16.63 319.39 15.48 316.3 14.47 313.13 13.54 309.74 12.67 306.22 11.95 302.47 11.23 298.58 10.66 294.55 10.22 290.3 9.79 285.91 9.58 281.3 9.36 276.48 9.36 271.44 9.36 9.36"/><polygon class="cls-3" points="18.65 18.72 328.32 18.72 328.32 271.37 328.25 276.26 328.1 280.87 327.82 285.26 327.46 289.44 327.02 293.4 326.52 297.14 325.87 300.74 325.15 304.13 324.43 307.37 323.57 310.39 322.63 313.34 321.62 316.08 320.54 318.67 319.46 321.19 318.24 323.57 317.02 325.8 315.65 328.03 314.28 330.12 312.77 332.14 311.26 334.15 309.6 336.02 307.94 337.97 306.14 339.77 304.2 341.57 302.26 343.37 300.17 345.17 297.94 346.9 295.63 348.7 293.26 350.42 290.74 352.15 288.14 353.88 285.41 355.68 173.52 426.53 61.56 355.68 58.82 353.88 56.23 352.15 53.71 350.42 51.34 348.7 49.03 346.9 46.87 345.17 44.78 343.37 42.77 341.57 40.9 339.77 39.1 337.97 37.37 336.02 35.71 334.15 34.2 332.14 32.69 330.12 31.32 328.03 30.02 325.8 28.73 323.57 27.58 321.19 26.42 318.67 25.34 316.08 24.34 313.34 23.47 310.39 22.61 307.37 21.82 304.13 21.1 300.74 20.52 297.14 19.94 293.4 19.51 289.44 19.15 285.26 18.86 280.87 18.72 276.26 18.65 271.37 18.65 18.72"/><polygon class="cls-2" points="19.3 305.86 27.58 327.1 99 195.55 320.33 321.34 326.81 305.93 78.98 132.05 19.3 305.86"/><polygon class="cls-2" points="39.02 342.07 54.86 354.67 129.02 286.13 295.7 353.66 309.82 340.13 112.39 236.45 39.02 342.07"/><path class="cls-2" d="M70.2,31.1h8.28a.8.8,0,0,1,.79.8V87.26a.82.82,0,0,1-.79.87H70.2a.82.82,0,0,1-.79-.87V31.9A.8.8,0,0,1,70.2,31.1Z"/><path class="cls-2" d="M237,97.27h3.68a.39.39,0,0,1,.36.36v21.46a.35.35,0,0,1-.36.36H237a.33.33,0,0,1-.28-.36V97.63C236.74,97.49,236.88,97.27,237,97.27Z"/><path class="cls-2" d="M271.3,97.56h3.52a.3.3,0,0,1,.29.29v21.09a.32.32,0,0,1-.29.36H271.3a.32.32,0,0,1-.29-.36V97.85A.3.3,0,0,1,271.3,97.56Z"/><path class="cls-2" d="M301.68,97.42h3.46a.34.34,0,0,1,.36.36v21.09a.39.39,0,0,1-.36.36h-2.52c-.51,0-.65-.5-1.44-1.94l-5.12-9.87v11.45c0,.15-.14.36-.28.36h-3.46a.38.38,0,0,1-.36-.36V97.78a.34.34,0,0,1,.36-.36h2.45c.72,0,1,.57,1.29,1.22l4.83,10c.07.21.43.21.5.14v-11A.33.33,0,0,1,301.68,97.42Z"/><path class="cls-2" d="M123.12,31.18h19.73a8.49,8.49,0,0,1,8.49,8.42V55.73c0,4.46.65,9.79-5,12.38l5.25,19.08a.68.68,0,0,1-.65.94h-8.42a1.23,1.23,0,0,1-1.15-.94l-7-26.57a.7.7,0,0,1,.72-.93h3.75c2.59,0,3.17-1.8,3.17-4.32V43.7a2.77,2.77,0,0,0-2.6-2.88l-7.2.08V87.41a.8.8,0,0,1-.79.79h-8.35a.8.8,0,0,1-.79-.79V32A.82.82,0,0,1,123.12,31.18Z"/><path class="cls-2" d="M285.41,31.32h19.8a8.48,8.48,0,0,1,8.42,8.42V55.87c0,4.39.65,9.79-5,12.31L314,87.34a.71.71,0,0,1-.72.93h-8.42a1.29,1.29,0,0,1-1.15-.93l-7-26.64a.76.76,0,0,1,.72-.94h3.75c2.66,0,3.16-1.73,3.16-4.25V43.78A2.61,2.61,0,0,0,301.75,41l-7.2.07V87.48a.82.82,0,0,1-.79.86h-8.35a.82.82,0,0,1-.79-.86V32.11A.8.8,0,0,1,285.41,31.32Z"/><path class="cls-2" d="M178.92,31.18h-5.33V45.43l4.11,21h-4.11v8.13h5.76l2.52,12.82a1,1,0,0,0,.94.79h8.28a.65.65,0,0,0,.65-.79L179.93,32A1,1,0,0,0,178.92,31.18Zm-5.33,0h-5.33a1,1,0,0,0-1,.86L155.38,87.41a.64.64,0,0,0,.64.79h8.36a1,1,0,0,0,.93-.79l2.52-12.82h5.76V66.46h-4.1l4.1-21Z"/><path class="cls-2" d="M261.79,31.18h5.33a1.15,1.15,0,0,1,1,.86L280,87.41a.65.65,0,0,1-.65.79H271a1.16,1.16,0,0,1-1-.79l-2.52-12.82h-5.69V66.46h4.11l-4.11-21Zm-5.4,0h5.4V45.43l-4.17,21h4.17v8.13H256l-2.52,12.82a1,1,0,0,1-.93.79h-8.36a.61.61,0,0,1-.64-.79L255.46,32A1,1,0,0,1,256.39,31.18Z"/><path class="cls-2" d="M196.06,31.18h8.35a.86.86,0,0,1,.79.86V78.19h16.49a1,1,0,0,1,.93.94v8.21a1,1,0,0,1-.93.93H196.06a.86.86,0,0,1-.8-.86V32A.86.86,0,0,1,196.06,31.18Z"/><path class="cls-2" d="M61.34,119.16h2.52a3.78,3.78,0,0,0,4-3.53V101a3.83,3.83,0,0,0-4-3.53H61.34v3.89h1.37c.51,0,.94.28.94.72v12.38c0,.43-.43.72-.94.72H61.34Zm-2.3,0h2.3v-4H59.9a.81.81,0,0,1-.86-.72V102.1a.8.8,0,0,1,.86-.72h1.44V97.49H59a3.83,3.83,0,0,0-4,3.53v14.61A3.78,3.78,0,0,0,59,119.16Z"/><path class="cls-2" d="M76.18,119.16h2.59a3.72,3.72,0,0,0,3.89-3.53V101a3.76,3.76,0,0,0-3.89-3.53H76.18v3.89h1.44a.8.8,0,0,1,.86.72v12.38a.81.81,0,0,1-.86.72H76.18Zm-2.31,0h2.31v-4H74.81c-.51,0-.94-.29-.94-.72V102.1c0-.44.43-.72.94-.72h1.37V97.49H73.87A3.76,3.76,0,0,0,70,101v14.61A3.72,3.72,0,0,0,73.87,119.16Z"/><path class="cls-2" d="M215.86,119.16h-2.24v-4H215c.51,0,.87-.29.87-.72V102.1c0-.44-.36-.72-.87-.72h-1.37V97.49h2.24a3.78,3.78,0,0,1,4,3.53v14.61A3.74,3.74,0,0,1,215.86,119.16Zm-2.24,0H211a3.78,3.78,0,0,1-4-3.53V101a3.83,3.83,0,0,1,4-3.53h2.59v3.89h-1.44c-.5,0-.86.28-.86.72v12.38a.76.76,0,0,0,.86.72h1.44Z"/><path class="cls-2" d="M285.91,119.16h-2.3v-4h1.44a.76.76,0,0,0,.86-.72V102.1c0-.44-.36-.72-.86-.72h-1.44V97.49h2.3a3.83,3.83,0,0,1,4,3.53v14.61A3.78,3.78,0,0,1,285.91,119.16Zm-2.3,0h-2.52a3.78,3.78,0,0,1-4-3.53V101a3.83,3.83,0,0,1,4-3.53h2.52v3.89h-1.37c-.5,0-.86.28-.86.72v12.38a.76.76,0,0,0,.86.72h1.37Z"/><path class="cls-2" d="M230.62,119H226a3.66,3.66,0,0,1-3.82-3.53V100.87A3.66,3.66,0,0,1,226,97.34h4.61a3.7,3.7,0,0,1,3.81,3.53v5h-3.81v-4a.82.82,0,0,0-.87-.79h-2.66a.82.82,0,0,0-.87.79v12.31a.82.82,0,0,0,.87.8h2.66a.82.82,0,0,0,.87-.8v-3.38h3.81v4.61A3.7,3.7,0,0,1,230.62,119Z"/><path class="cls-2" d="M41.54,88.13H52.85a9.32,9.32,0,0,0,9.29-9.29V58.1c0-1-.44-1.22-1.08-1.22h-13c-.29,0-.58.5-.58,1.08V65.3c0,.58.29,1,.58,1h4.17v9.94a2.09,2.09,0,0,1-2.09,2.09H43.63a2.1,2.1,0,0,1-2.09-2.09V42.77a2.1,2.1,0,0,1,2.09-2.09h6.55a2.09,2.09,0,0,1,2.09,2.09V49c0,1.08.22,1.08.94,1.15h7.7c1.15,0,1.23-.36,1.23-1V40.54a9.31,9.31,0,0,0-9.29-9.29H41.54a9.3,9.3,0,0,0-9.28,9.29v38.3A9.31,9.31,0,0,0,41.54,88.13Z"/><path class="cls-2" d="M220.1,31.39h26.57a.86.86,0,0,1,.79.87V40a.8.8,0,0,1-.79.79H238.1V87.41a.86.86,0,0,1-.79.86H229a.86.86,0,0,1-.79-.86V40.82H220.1a.82.82,0,0,1-.86-.79V32.26A.87.87,0,0,1,220.1,31.39Z"/><path class="cls-2" d="M84.38,97.56H96.26a.34.34,0,0,1,.36.36v3.17a.34.34,0,0,1-.36.36H92.45v17.42a.33.33,0,0,1-.36.29H88.34a.33.33,0,0,1-.36-.29V101.45h-3.6a.35.35,0,0,1-.36-.36V97.92A.34.34,0,0,1,84.38,97.56Z"/><path class="cls-2" d="M257.11,97.63H269c.22,0,.43.15.43.29v3.24a.4.4,0,0,1-.43.36h-3.81v17.35a.34.34,0,0,1-.36.36h-3.75a.39.39,0,0,1-.36-.36V101.52h-3.6a.34.34,0,0,1-.36-.36V97.92A.34.34,0,0,1,257.11,97.63Z"/><path class="cls-2" d="M129.31,97.34h3.89a.34.34,0,0,1,.29.36v17.43h6.33a.32.32,0,0,1,.36.29v3.38a.34.34,0,0,1-.36.36H129.31a.31.31,0,0,1-.29-.29V97.7A.34.34,0,0,1,129.31,97.34Z"/><path class="cls-2" d="M142.49,97.34h3.81a.34.34,0,0,1,.36.36v17.43h6.27a.33.33,0,0,1,.36.29v3.38a.34.34,0,0,1-.36.36H142.49a.3.3,0,0,1-.29-.29V97.7A.33.33,0,0,1,142.49,97.34Z"/><path class="cls-2" d="M106.42,31.1a8.44,8.44,0,0,1,8.42,8.43V55.3c0,2.23-2,3.67-3.1,4.17V60c1.52.79,3.1,1.65,3.1,3.67V79.7a8.44,8.44,0,0,1-8.42,8.43h-5.19V78.34h2.31a2.09,2.09,0,0,0,2.08-2.09V68c0-3.1-.79-3.67-2.52-3.67h-1.87V54.94h2c1.58,0,2.37-.94,2.37-2.74V42.77a2.09,2.09,0,0,0-2.08-2.09h-2.31V31.1Zm-5.19,57H87.62a.82.82,0,0,1-.79-.87V31.9a.8.8,0,0,1,.79-.8h13.61v9.58H96.77V78.34h4.46v9.79Zm0-33.19H100a.32.32,0,0,0-.29.36v8.64a.33.33,0,0,0,.29.36h1.22Z"/><path class="cls-2" d="M41.62,119.09h3.74a.27.27,0,0,0,.29-.29v-8H51.7c.14,0,.21-.15.21-.29V107a.19.19,0,0,0-.21-.21H45.65v-5.33h8.06a.31.31,0,0,0,.29-.29V97.63c0-.14-.14-.21-.29-.21H41.62a.26.26,0,0,0-.29.28v21.1A.26.26,0,0,0,41.62,119.09Z"/><path class="cls-2" d="M250.56,97.56h2.3a.49.49,0,0,1,.44.29l5,20.88c.07.14-.08.29-.29.29h-3.53a.48.48,0,0,1-.43-.29l-.94-4.25h-2.59v-3.67h1.8l-1.8-7.92Zm-2.23,0h2.23v5.33l-1.73,7.92h1.73v3.67H248l-1,4.25c0,.14-.21.29-.36.29h-3.6a.32.32,0,0,1-.29-.29l5.12-20.88C247.9,97.7,248.11,97.56,248.33,97.56Z"/><path class="cls-2" d="M169.78,97.63h2.3c.14,0,.36.15.36.29l5.11,20.81c0,.21-.07.36-.29.36h-3.52a.41.41,0,0,1-.44-.36l-.93-4.18h-2.59v-3.67h1.72L169.78,103Zm-2.31,0h2.31V103h0l-1.8,7.92h1.8v3.67h-2.6l-.93,4.18a.41.41,0,0,1-.43.36h-3.53c-.22,0-.29-.15-.29-.36l5-20.81A.61.61,0,0,1,167.47,97.63Z"/><path class="cls-2" d="M119.74,97.63H122a.5.5,0,0,1,.43.29l5,20.88c.07.14-.07.29-.22.29h-3.6a.61.61,0,0,1-.43-.29l-.93-4.25h-2.52v-3.67h1.72L119.74,103Zm-2.31,0h2.31V103h0l-1.8,7.85h1.8v3.67h-2.6l-.93,4.25a.5.5,0,0,1-.43.29h-3.6c-.15,0-.29-.15-.22-.29l5-20.88A.5.5,0,0,1,117.43,97.63Z"/><path class="cls-2" d="M187,119.38H182.3a3.71,3.71,0,0,1-3.88-3.53v-3.39c0-.36.07-.28.28-.36h3.53c.22,0,.29.08.29.36v2.16a.89.89,0,0,0,.94.8h2.66a.86.86,0,0,0,.86-.8v-3.16c0-.58-.28-.65-.79-.8l-7.05-2.3a1,1,0,0,1-.72-1v-6.12a3.71,3.71,0,0,1,3.88-3.53H187a3.77,3.77,0,0,1,3.89,3.53v3c0,.44-.14.44-.36.44h-3.17c-.36,0-.36-.22-.36-.36v-2a.86.86,0,0,0-.86-.79h-2.66a.89.89,0,0,0-.94.79v2.23c0,.29.07.58.65.72l6.41,2.16c1.29.44,1.29.87,1.29,2.16v6.27A3.77,3.77,0,0,1,187,119.38Z"/><path class="cls-2" d="M201.1,119.38h-4.76a3.71,3.71,0,0,1-3.88-3.53v-3.39c0-.36.07-.28.28-.36h3.53c.22,0,.29.08.29.36v2.16a.89.89,0,0,0,.94.8h2.73a.87.87,0,0,0,.87-.8v-3.16c0-.58-.29-.65-.8-.8l-7.12-2.3a1,1,0,0,1-.72-1v-6.12a3.71,3.71,0,0,1,3.88-3.53h4.76a3.76,3.76,0,0,1,3.88,3.53v3c0,.44-.14.44-.36.44h-3.16c-.36,0-.36-.22-.36-.36v-2a.87.87,0,0,0-.87-.79H197.5a.89.89,0,0,0-.94.79v2.23c0,.29.07.58.65.72l6.48,2.16c1.29.44,1.29.87,1.29,2.16v6.27A3.76,3.76,0,0,1,201.1,119.38Z"/><path class="cls-2" d="M106.7,97.63a3.48,3.48,0,0,1,3.68,3.17v5.9c0,.8-.94,1.37-1.37,1.59v.14c.65.29,1.37.65,1.37,1.37v6A3.48,3.48,0,0,1,106.7,119h-2.3v-3.68h1a.88.88,0,0,0,.93-.79v-3.09c0-1.16-.36-1.37-1.08-1.37h-.86v-3.53h.94a.91.91,0,0,0,1-1V102a.88.88,0,0,0-.93-.79h-1v-3.6ZM104.4,119H98.57a.33.33,0,0,1-.36-.29V97.92a.33.33,0,0,1,.36-.29h5.83v3.6h-1.87v5.33h1.87v3.53h-1.87v5.25h1.87Z"/><path class="cls-2" d="M312.05,111.6a2.7,2.7,0,1,0-2.67-2.74A2.73,2.73,0,0,0,312.05,111.6Z"/><path class="cls-2" d="M34.7,111.6a2.65,2.65,0,0,0,2.67-2.66,2.67,2.67,0,1,0-5.33,0A2.65,2.65,0,0,0,34.7,111.6Z"/></svg>