<svg xmlns="http://www.w3.org/2000/svg" viewBox="0 0 395.21 395.21"><defs><style>.cls-1{fill:#d9b328;}.cls-1,.cls-2,.cls-3,.cls-4{fill-rule:evenodd;}.cls-2{fill:#00ae4d;}.cls-3{fill:#ee2624;}.cls-4{fill:#fff;}</style></defs><title>Eszköz 1</title><g id="Réteg_2" data-name="Réteg 2"><g id="Layer_1" data-name="Layer 1"><path class="cls-1" d="M197.64,395.21c108.72,0,197.57-88.85,197.57-197.57S306.36,0,197.64,0,0,88.78,0,197.64,88.78,395.21,197.64,395.21Z"/><path class="cls-2" d="M197.64,392.54c107.28,0,194.9-87.62,194.9-194.9s-87.62-195-194.9-195-195,87.56-195,195S90.22,392.54,197.64,392.54Z"/><path class="cls-1" d="M197.64,348.05c82.8,0,150.41-67.61,150.41-150.41S280.44,47.09,197.64,47.09,47.16,114.77,47.16,197.64,114.77,348.05,197.64,348.05Z"/><path class="cls-2" d="M327.53,268.06a148.07,148.07,0,0,1-127.8,77.32V260.06c2.52-.64,5.76-1.72,9.65-3,24.19-8.35,91.8-32.26,96.84,11.52.36,3,5,2.45,4.6-.5a38.16,38.16,0,0,0-2.95-11.24C315.72,258.26,322.06,262.15,327.53,268.06Z"/><path class="cls-3" d="M199.73,49.75a147.86,147.86,0,0,1,130,214,39.5,39.5,0,0,0-24.91-12,35.71,35.71,0,0,0-18.58-11c.22-6.7,1.37-13.47,10.8-15.12-4.68-1.8-8.42-2.09-11.45-1.3V208.66h23c4.76.36,7.92,4.32,10.88,7.63v-46.8c-3,3.31-6.12,7.27-10.88,7.63h-23V149.76h16.2c4.76.43,7.92,4.32,10.88,7.63V110.45c-3,3.31-6.12,7.27-10.88,7.63h-16.2V101.3c.29-4.24,3.6-7.92,6.2-11H246.46c2.52,3.09,6,6.77,6.4,11v16.78h-16.2c-4.75-.36-7.92-4.32-10.87-7.63v46.94c3-3.31,6.12-7.2,10.87-7.63h16.2v27.36h-23c-4.75-.36-7.92-4.32-10.87-7.63v46.8c3-3.31,6.12-7.27,10.87-7.63h23v15.62c-3.09-.79-6.76-.5-11.44,1.3,9.36,1.65,10.51,8.49,10.8,15.19-16.49,2.81-33,8.21-44.28,11.88-3.24,1-6,1.94-8.21,2.59Z"/><path class="cls-3" d="M105.12,82.3a147.21,147.21,0,0,1,90.29-32.55V82.3Z"/><path class="cls-4" d="M75.17,114.84A145.66,145.66,0,0,1,102,84.89h93.39v30Z"/><path class="cls-3" d="M58.54,147.46a144.63,144.63,0,0,1,14.83-30h122v30Z"/><path class="cls-4" d="M50.83,180.07a149.36,149.36,0,0,1,6.77-30H195.41v30Z"/><path class="cls-3" d="M50.54,212.47a141,141,0,0,1,0-29.81H195.41v29.81Z"/><path class="cls-4" d="M57.6,245.09a148.84,148.84,0,0,1-6.77-30H195.41v30Z"/><path class="cls-3" d="M73.37,277.63a142.84,142.84,0,0,1-14.83-29.95H195.41v29.95Z"/><path class="cls-4" d="M102,310.25A145.66,145.66,0,0,1,75.17,280.3H195.41v29.95Z"/><path class="cls-3" d="M195.41,345.38a147.57,147.57,0,0,1-90.29-32.47h90.29Z"/><path class="cls-4" d="M197.64,347.47a67.5,67.5,0,1,0-67.54-67.53A67.6,67.6,0,0,0,197.64,347.47Z"/><path class="cls-1" d="M197.64,345.67A65.67,65.67,0,1,0,132,279.94,65.82,65.82,0,0,0,197.64,345.67Z"/><path class="cls-4" d="M211.61,218.09c17.28,3.89,34.85,16.77,41,33.84,4.61,12.81,3.24,26.93.07,39.81a157.65,157.65,0,0,1,1.66,16.49,66.91,66.91,0,0,1-4.4,7.56c-.5-7.13-1.94-14.25-3.09-21.24a121.79,121.79,0,0,0-19.66,3.89c3,11,5,22.1,6.91,33.41a59.79,59.79,0,0,1-5.68,3.6c-2-11.88-5.33-23.4-8.43-35.07-2.81.94-5,1.73-7.92,2.88-4.17,1.66-8.42,3.53-12.6,5.62,3.75,10.8,8.64,20.95,13.47,31.18l.64,1.36a58.86,58.86,0,0,1-6.26,1.3v-.07a308.54,308.54,0,0,1-13.25-30.89,172.72,172.72,0,0,0-18.5,11.95c3.45,6.48,7.41,12.75,11.52,18.94-2.59-.51-5.11-1.08-7.56-1.8a137.9,137.9,0,0,1-10.23-15.63c-13.6-8.71-22.53-19.44-26.71-32.61-5-15.77-2.52-32,2-47.59a106.43,106.43,0,0,1,21.52-14.84l-2.44-3.81c1.44-.94,3-1.8,4.46-2.59L172,227.3a109,109,0,0,1,14.69-5.18l.79-4.82c1.65-.22,3.24-.44,4.89-.58l.87,3.82A120.72,120.72,0,0,1,211.61,218.09Z"/><path class="cls-1" d="M152.71,300.31c4.25,7.13,10.44,13.39,18.65,18.79a173.85,173.85,0,0,1,38.52-21.6,141.43,141.43,0,0,1,37.3-9.21c1.94-8.79,3.09-17.93,1.65-26.86-19.8,2.38-37.94,6.84-54.07,13.47A147.94,147.94,0,0,0,152.71,300.31Z"/><path class="cls-1" d="M146,275.47a54.66,54.66,0,0,0,2.44,15.27c.44,1.29.94,2.59,1.44,3.81a158,158,0,0,1,42.56-25.34c16.41-6.77,34.77-11.38,54.86-13.9-.14-.36-.29-.86-.43-1.22A33.79,33.79,0,0,0,238,239.33c-17.64,1.58-35.06,5-50.4,10.94A131.71,131.71,0,0,0,146,275.47Z"/><path class="cls-4" d="M206.21,249.7a2.31,2.31,0,0,1,3.67-2.81,18.15,18.15,0,0,1,2.59,4.75,22.54,22.54,0,0,1,1.59,5.4c.5,3-4.11,3.67-4.54.72a22.86,22.86,0,0,0-1.3-4.46A14.93,14.93,0,0,0,206.21,249.7Z"/><path class="cls-1" d="M149.47,247.32c-1.87,6.55-2.59,13.9-3.17,19.73a137.35,137.35,0,0,1,39-22.61c14.25-5.47,32.33-9.07,48.38-10.8-5.33-4.68-14.61-9.94-21-11.52A105.46,105.46,0,0,0,149.47,247.32Z"/><path class="cls-4" d="M218.23,247.18c-1.87-2.38,1.73-5.19,3.67-2.81a23,23,0,0,1,2.67,4.89,25,25,0,0,1,1.65,5.55,2.33,2.33,0,0,1-4.6.72,21.42,21.42,0,0,0-1.3-4.61A17.73,17.73,0,0,0,218.23,247.18Z"/><path class="cls-4" d="M195.05,253.8c-1.87-2.38,1.87-5.18,3.53-2.74a20.94,20.94,0,0,1,2.44,4.18,24.15,24.15,0,0,1,1.66,5.69c.5,2.95-4.1,3.6-4.61.65a15.79,15.79,0,0,0-1.15-4.54A19.38,19.38,0,0,0,195.05,253.8Z"/><path class="cls-4" d="M183.89,257.76c-1.8-2.38,1.94-5.18,3.74-2.66a19.49,19.49,0,0,1,2.31,4,20.54,20.54,0,0,1,1.58,5.47c.5,2.95-4.1,3.67-4.54.65a19,19,0,0,0-1.29-4.32A19.26,19.26,0,0,0,183.89,257.76Z"/><path class="cls-4" d="M173.3,262.58a2.35,2.35,0,0,1,3.82-2.73,24.79,24.79,0,0,1,2.23,3.89,21.5,21.5,0,0,1,1.59,5.25c.43,3-4.18,3.75-4.61.72a17.85,17.85,0,0,0-1.23-4.17A11.87,11.87,0,0,0,173.3,262.58Z"/><path class="cls-4" d="M163.37,268.63c-1.73-2.52,2-5.18,3.74-2.66a18.32,18.32,0,0,1,2.23,3.74,17.74,17.74,0,0,1,1.44,5.11c.51,3-4,3.68-4.53.72a20.4,20.4,0,0,0-1.08-4A17.91,17.91,0,0,0,163.37,268.63Z"/><path class="cls-1" d="M111.89,355.54a7.82,7.82,0,1,0-7.78-7.85A7.87,7.87,0,0,0,111.89,355.54Z"/><path class="cls-1" d="M283.25,355.54a7.82,7.82,0,1,0-7.78-7.85A7.87,7.87,0,0,0,283.25,355.54Z"/><path class="cls-4" d="M282.53,225.58a18,18,0,0,0-6,6.62c-.79-4-2.16-7.92-7.27-10-5.11,2.09-6.41,6-7.2,10a18,18,0,0,0-6-6.62v-20H229.75A14,14,0,0,0,222,208.8V177a14.36,14.36,0,0,0,7.7,3.16H256v-33.4H236.52a14.58,14.58,0,0,0-7.7,3.16v-32a14.15,14.15,0,0,0,7.84,3.24H256V101.3a16.36,16.36,0,0,0-3.24-7.92h32.76a15.94,15.94,0,0,0-3,7.92v19.88h19.29a14.61,14.61,0,0,0,7.85-3.24v32a14.58,14.58,0,0,0-7.77-3.16H282.53v33.4h26.28a14.14,14.14,0,0,0,7.63-3.16V208.8a13.6,13.6,0,0,0-7.78-3.17H282.53Z"/><path class="cls-1" d="M376.13,122.9a2.62,2.62,0,0,1,0,2.09,2.77,2.77,0,0,1-3.67,1.44,2.63,2.63,0,0,1-1.52-1.51,2.71,2.71,0,0,1,0-2.09,3.1,3.1,0,0,1,1.52-1.51,2.52,2.52,0,0,1,2.16.07A3.12,3.12,0,0,1,376.13,122.9Z"/><path class="cls-1" d="M379,130a2.79,2.79,0,0,1,0,2.16,2.44,2.44,0,0,1-1.59,1.44,2.14,2.14,0,0,1-2.08,0,2.36,2.36,0,0,1-1.44-1.44,2.81,2.81,0,0,1,1.51-3.67,2.62,2.62,0,0,1,2.09,0A2.83,2.83,0,0,1,379,130Z"/><path class="cls-1" d="M370,129.53c-1-2.38-3-3.67-5.91-4a15.75,15.75,0,0,0-6.4.93v-7.2a15.21,15.21,0,0,1,5.83,1.23,13.49,13.49,0,0,1,7.56,8.28,17.38,17.38,0,0,1,1.51,6.26v.51a12.89,12.89,0,0,1-1,4.89,14.44,14.44,0,0,1-8.13,7.78,15,15,0,0,1-5.76,1.15v-7.06c.86-.21,1.72-.57,2.59-.86a25,25,0,0,0,7.34-4.18,7.74,7.74,0,0,0,2.67-3.88A6.66,6.66,0,0,0,370,129.53Zm-12.31-3c-.87.29-1.8.65-2.81,1-4.47,1.8-7.49,4-9,6.34a6.42,6.42,0,0,0,1.94,8.42,8.31,8.31,0,0,0,5,1.08,19.06,19.06,0,0,0,4.83-1v7.06a13.92,13.92,0,0,1-4.18-.5c-4.39-1.23-7.56-4.18-9.43-8.93s-1.8-8.93.36-12.82a15.09,15.09,0,0,1,7.77-6.62,15.68,15.68,0,0,1,5.48-1.23Z"/><polygon class="cls-1" points="235.22 6.98 228.24 12.1 226.22 11.74 229.39 5.83 235.22 6.98"/><path class="cls-1" d="M214.85,11.45,229.18,14l-.15.79-.72-.14a6,6,0,0,0-2.23-.08,2.1,2.1,0,0,0-1.08.8,9.07,9.07,0,0,0-.72,2.95L221.83,31.9c-.43,2.44-.57,4.1-.29,5a4.49,4.49,0,0,0,1.52,2.38,6.86,6.86,0,0,0,3.09,1.37,7.57,7.57,0,0,0,4-.36,6,6,0,0,0,2.88-2.38c.72-1.08,1.3-3.09,1.88-6l1.94-11.37a5.74,5.74,0,0,0,.14-2.67,2.82,2.82,0,0,0-.79-1.29,6.42,6.42,0,0,0-2.52-.94l.15-.72,9.57,1.66-.14.79-.58-.14a3.57,3.57,0,0,0-2,.14,2.83,2.83,0,0,0-1.37,1.22,5.54,5.54,0,0,0-.65,2.31l-1.87,10.58a28.81,28.81,0,0,1-1.95,6.91,7.86,7.86,0,0,1-3.81,3.46,12.1,12.1,0,0,1-7.13.58,11.72,11.72,0,0,1-5.47-2,8.3,8.3,0,0,1-3.17-4,13.35,13.35,0,0,1-.14-5.69l2.44-13.61a10.22,10.22,0,0,0,.22-3,2.05,2.05,0,0,0-.72-1.08,6.64,6.64,0,0,0-2.38-.79Z"/><path class="cls-1" d="M66.38,301.68l-19.44,5.4L40,298l.58-.43.57.72a4.12,4.12,0,0,0,1.51,1.29,2.74,2.74,0,0,0,1.37.07,12.07,12.07,0,0,0,2.16-1.44l14.62-11.44a8.68,8.68,0,0,0,2-1.88,1.48,1.48,0,0,0,.15-1.29,4.48,4.48,0,0,0-.79-1.73l-.58-.72.58-.5,9.07,11.66-.58.43-.57-.72a4.68,4.68,0,0,0-1.59-1.29,1.89,1.89,0,0,0-1.29,0,6.48,6.48,0,0,0-2.24,1.36L48.46,305l27-7.27.28.36L62.35,322.42l15.7-12.17a13.39,13.39,0,0,0,1.87-1.66,3,3,0,0,0,.72-2,5.36,5.36,0,0,0-1.3-2.6l.58-.5,6,7.63-.65.43-.15-.21a5.2,5.2,0,0,0-1.29-1.23,3.1,3.1,0,0,0-1.44-.43,3.92,3.92,0,0,0-1.59.43,18.34,18.34,0,0,0-1.65,1.3L65,322.42a8,8,0,0,0-1.95,1.8,2.66,2.66,0,0,0-.21,1.36,4.55,4.55,0,0,0,.86,1.66l.58.72-.58.5-7.13-9.07Z"/><path class="cls-1" d="M46.8,267l4,9.07,3-.07a8.81,8.81,0,0,0,2.31-.29A2,2,0,0,0,57.31,274a6.54,6.54,0,0,0-.65-2.66l.72-.36,3.82,8.57-.72.28a4.16,4.16,0,0,0-2.16-1.72,15.63,15.63,0,0,0-4.9-.51H43.78V276H49.1l-3.45-7.78-1.87,2v-9.65l1.87-2a18,18,0,0,0,2.81-3.89,3.83,3.83,0,0,0-.15-2.16l.65-.28,5.62,12.45-.72.36-.29-.57a4.17,4.17,0,0,0-1.3-1.88,1.18,1.18,0,0,0-1.08-.07,1.33,1.33,0,0,0-.65.43c-.07.15-.5.44-1.15,1.23Zm-3,10.65-15-.07-.15-.36,15.2-16.63v9.65L38.52,276h5.26Z"/><path class="cls-1" d="M13,229.61l9.65-2.23.21.72a12.75,12.75,0,0,0-5.11,5.47,10.23,10.23,0,0,0-.72,6.48,7.85,7.85,0,0,0,3,4.68,9.22,9.22,0,0,0,5.48,1.73,23.21,23.21,0,0,0,6.62-.58,22.41,22.41,0,0,0,6.62-2.52,7.76,7.76,0,0,0,3.75-4,8.64,8.64,0,0,0,.21-5.26,13.23,13.23,0,0,0-.64-2,9.1,9.1,0,0,0-1.16-1.95l-5.68,1.3a6.34,6.34,0,0,0-2,.72,2,2,0,0,0-.65,1.08,3.91,3.91,0,0,0,0,1.8l.15.72-.72.14-3.1-13.32.72-.14a7.45,7.45,0,0,0,.94,2,1.84,1.84,0,0,0,1.22.65,5.83,5.83,0,0,0,1.94-.21l5.69-1.37a22.82,22.82,0,0,1,3,5.11,30.16,30.16,0,0,1,2,5.76,17.16,17.16,0,0,1,.43,6.77,15.48,15.48,0,0,1-1.8,5.18,13.2,13.2,0,0,1-3.16,4,14.53,14.53,0,0,1-5.91,2.88,14.68,14.68,0,0,1-11.52-1.94,15.51,15.51,0,0,1-6.77-9.94,15.31,15.31,0,0,1-.5-3.74,14.07,14.07,0,0,1,.22-3.17,10.42,10.42,0,0,0,.21-2.52,1.43,1.43,0,0,0-.65-.94,3.31,3.31,0,0,0-1.72-.5Z"/><path class="cls-1" d="M11.3,189.5H12a4.3,4.3,0,0,0,.87,2.16,22.88,22.88,0,0,0,4.82,3.17l10.37,5.83,6.77-.07a10.56,10.56,0,0,0,2.73-.36,1.84,1.84,0,0,0,.94-.79,3.36,3.36,0,0,0,.29-1.8v-1.58h.79l.29,15.69-.79.07v-1.51a4.55,4.55,0,0,0-.51-1.94,2,2,0,0,0-1-.87,7.6,7.6,0,0,0-2.59-.14l-5.69.07-11.95,6.84a17.6,17.6,0,0,0-4.17,2.88,3.7,3.7,0,0,0-.58,2.16h-.79l-.22-13.53h.72v.57a3,3,0,0,0,.43,1.73c.22.36.51.5.72.43a10.69,10.69,0,0,0,3.75-1.65l9.29-5.33-8.64-4.75c-2.09-1.23-3.46-1.8-4.18-1.8a1.07,1.07,0,0,0-.86.5,5.14,5.14,0,0,0-.65,2.59h-.72Z"/><path class="cls-1" d="M33.19,173.3l-1.29,9.87,2.52,1.51a6.7,6.7,0,0,0,2.16.94,2,2,0,0,0,1.87-.72,9.53,9.53,0,0,0,.86-2.67l.79.15-1.29,9.28-.79-.14a4.39,4.39,0,0,0-.94-2.66,16.33,16.33,0,0,0-3.89-3l-6.69-4.17v-1.95l3.88,2.45,1.23-8.42-5.11,1.37v-6.77l10.22-2.88a14.21,14.21,0,0,0,4.46-1.8,3.28,3.28,0,0,0,1-1.87L43,162,41,175.46l-.72-.07v-.57a5.06,5.06,0,0,0-.07-2.38,1.46,1.46,0,0,0-.94-.58,2.93,2.93,0,0,0-.79.08c-.07,0-.65.14-1.58.36Zm-6.69,8.43L12.31,172.8l.07-.43,14.12-4v6.77l-5,1.44,5,3.16Z"/><path class="cls-1" d="M34.56,145.94l7.42,2.6a11,11,0,0,0,2.8.72,2.32,2.32,0,0,0,1.23-.65,7.72,7.72,0,0,0,1.22-2.38l.72.22-4.68,13.68-.79-.29a4.61,4.61,0,0,0,.5-2.66,1.57,1.57,0,0,0-.5-1.16,9.41,9.41,0,0,0-2.66-1.22l-11.88-4.1v-7l5.18,1.8.43-1.15a15,15,0,0,0,.87-4.25,4.38,4.38,0,0,0-1.08-2.73,6,6,0,0,0-3.1-1.95,10.4,10.4,0,0,0-2.3-.57v-6.05a7.32,7.32,0,0,1,4.46.07,6.72,6.72,0,0,1,4.1,3.82,9.51,9.51,0,0,1,.51,4.46l11.3-3.31a19.31,19.31,0,0,0,2.81-1,4.14,4.14,0,0,0,1.3-1.66l.64.22-2.8,8.42-15.12,4.4Zm-6.62,4.76-5.4-1.88a9.37,9.37,0,0,0-2.81-.64,1.88,1.88,0,0,0-1.23.64,6.93,6.93,0,0,0-1.22,2.38l-.72-.29,4.25-12.38a30.21,30.21,0,0,1,3.09-6.84,7.41,7.41,0,0,1,3.82-2.81c.07,0,.14-.07.22-.07v6.05a5.42,5.42,0,0,0-2.74.43c-1.3.57-2.3,2-3,4.1l-.72,2.09,6.48,2.23Z"/><path class="cls-1" d="M64.22,94.25,72,100.51l-13.68,21-.65-.44.51-.79a3.61,3.61,0,0,0,.72-1.87,1.92,1.92,0,0,0-.36-1.22,11.66,11.66,0,0,0-2.09-1.66L40.9,105.48a10.83,10.83,0,0,0-2.38-1.3,2,2,0,0,0-1.37.29,3.44,3.44,0,0,0-1.29,1.37l-.51.79-.65-.5,8.14-12.6.65.43L42.84,95a3.64,3.64,0,0,0-.72,1.87,2.38,2.38,0,0,0,.36,1.3,12.9,12.9,0,0,0,2.09,1.58l15,9.79a9.73,9.73,0,0,0,2.44,1.3,1.72,1.72,0,0,0,1.3-.36,8.88,8.88,0,0,0,1.51-2l1.3-1.94a6.9,6.9,0,0,0,.72-7.13A20.54,20.54,0,0,0,63.79,95Z"/><path class="cls-1" d="M80.21,79.78l-6.55,6.76V84.38l5-5.11-5-1.87v-7l13.89,5.11c2.23.86,3.82,1.29,4.68,1.15a3,3,0,0,0,1.87-.86l.58.5-9.43,9.79-.58-.5.36-.36a4.17,4.17,0,0,0,1.3-2,1,1,0,0,0-.43-1,2.29,2.29,0,0,0-.58-.43c-.14-.07-.65-.29-1.58-.65l-3.53-1.36Zm-6.55,8,.79,1.94a5.71,5.71,0,0,0,1.22,2,1.81,1.81,0,0,0,1.87.5,7.67,7.67,0,0,0,2.31-1.65l.57.57-6.55,6.7-.21-.22v-.79a4.36,4.36,0,0,0,.5-2.16,10.87,10.87,0,0,0-.5-2.45Zm0-1.23-.36.36.36.87v4.46c-.22-.65-.51-1.37-.87-2.23L63.58,67.1l.28-.28,9.8,3.6v7l-5-1.94,4,9.93,1-1v2.16Zm0,11.09-.36-.29c.14-.14.21-.36.36-.5Z"/><path class="cls-1" d="M102.53,52.78a14.33,14.33,0,0,1,5.69-1.37A6.42,6.42,0,0,1,113,54.14a6.53,6.53,0,0,1,.93,5.76c-.79,2.6-2.8,5-6,7.28l-5.33,3.74V66.31A1.92,1.92,0,0,0,104,67.39a2.12,2.12,0,0,0,1.65-.57,5.33,5.33,0,0,0,2.09-2.31,4.73,4.73,0,0,0,.58-3,6.9,6.9,0,0,0-1.15-3,7.91,7.91,0,0,0-2.81-2.38,6.12,6.12,0,0,0-1.8-.5V52.78Zm0-10.44V52.56a9.87,9.87,0,0,0,2.59-4.75,5.31,5.31,0,0,0-.86-3.82A6.27,6.27,0,0,0,102.53,42.34Zm-.22,10.51.22-.07v2.88a5.49,5.49,0,0,0-1.51.14,9.45,9.45,0,0,0-2.81,1.3V54.72a8.12,8.12,0,0,0,.79-1,5.07,5.07,0,0,0,.65-2.81A5.3,5.3,0,0,0,98.5,48c-.08-.14-.22-.29-.29-.43V41.18a6.89,6.89,0,0,1,3,.44,7.74,7.74,0,0,1,1.37.72V52.56a1,1,0,0,1-.22.29Zm.22,18.07-4.32,3V60.19l3.67,5.26.65.86h0Zm-4.32,3-2.09,1.52-.43-.65A6.91,6.91,0,0,0,97.63,73a1.93,1.93,0,0,0,.22-1.37,6.15,6.15,0,0,0-1.37-2.45l-1.94-2.73V55l1.22,1.73a12.65,12.65,0,0,0,2.45-2V57.1c-.51.28-.94.57-1.51.93l1.51,2.16V73.94Zm-3.67-31.6a10.53,10.53,0,0,1,2.59-1c.36-.07.72-.07,1.08-.15v6.34a5.34,5.34,0,0,0-2-1.66,6.72,6.72,0,0,0-1.65-.36Zm0,24.12L86,54.14a10.38,10.38,0,0,0-1.87-2.23,2.86,2.86,0,0,0-1.37-.14,6.62,6.62,0,0,0-2.38,1.15l-.43-.58L91,44.57c1.37-.94,2.52-1.66,3.53-2.23V45.5a5.66,5.66,0,0,0-1.16.08,11.94,11.94,0,0,0-4,2L94.54,55Z"/><path class="cls-1" d="M127,26.35h.79a11.7,11.7,0,0,1,7.27,2.38,15,15,0,0,1,4.9,6.19,15.15,15.15,0,0,1,1.37,5.4,11.69,11.69,0,0,1-.58,4.82A10.58,10.58,0,0,1,138.6,49a17.46,17.46,0,0,1-3.74,3.31,22,22,0,0,1-3.6,1.87l-4.25,2V49.18l.65,1.58a11.61,11.61,0,0,0,1,1.8,1.16,1.16,0,0,0,.8.36,2.9,2.9,0,0,0,1.58-.36,6.53,6.53,0,0,0,4-4.32c.65-2.59,0-6-1.87-10.08a18.25,18.25,0,0,0-5-7.27,8.44,8.44,0,0,0-1.08-.72Zm-7.27,33-.36-.72.86-.36a3.57,3.57,0,0,0,1.58-1.15,2.22,2.22,0,0,0,.44-1.37,9.67,9.67,0,0,0-.87-2.45l-7.56-16.92A7.56,7.56,0,0,0,112.54,34a2.16,2.16,0,0,0-1.23-.5,3.89,3.89,0,0,0-1.87.36l-.86.36-.29-.65,11.52-5.18a23.56,23.56,0,0,1,7.2-2v3.82a6.29,6.29,0,0,0-3.46-.94,13,13,0,0,0-4.82,1.37L127,49.18v6.91Z"/><path class="cls-1" d="M163.44,35.21l-5.26,1.15V34.7l4.18-.86L158.18,28V16.78l13.76,19.08a13.27,13.27,0,0,0,3.16,3.52,3.26,3.26,0,0,0,2.16.29l.15.79L164,43.27l-.15-.79.58-.07a5.09,5.09,0,0,0,2.16-.94,1.25,1.25,0,0,0,.21-1,1.34,1.34,0,0,0-.28-.72c-.08-.14-.36-.57-.94-1.44Zm-5.26,1.15-4.46.94-.65,2.88a5.52,5.52,0,0,0-.07,2.37,1.86,1.86,0,0,0,1.3,1.51,8.87,8.87,0,0,0,2.8-.07l.15.72-9.15,1.95-.21-.72a3.63,3.63,0,0,0,2.16-1.8,16.08,16.08,0,0,0,1.51-4.61l5.18-24.12.44-.15,1,1.52V28l-1.94-2.74-2.16,10.37,4.1-.94Z"/><path class="cls-1" d="M193.18,38.88h0v.79h0v-.79Zm0-27.43V13.1a5.73,5.73,0,0,1,2.8,1.37,6.48,6.48,0,0,1,1.52,4.75,6.28,6.28,0,0,1-.72,3.6,4.22,4.22,0,0,1-2.24,1.95,6.37,6.37,0,0,1-1.36.36V30l6.91,9.58,8.93-.22v-.72a3.73,3.73,0,0,1-2-.65,16.45,16.45,0,0,1-1.94-2.3l-7-9.43a9.85,9.85,0,0,0,4-1.95,7.19,7.19,0,0,0,.58-9.64,7.16,7.16,0,0,0-4-2.6A28.72,28.72,0,0,0,193.18,11.45Zm-4.11,15.41.15,7.92a10.69,10.69,0,0,0,.28,2.88,3.27,3.27,0,0,0,1,.93,7.61,7.61,0,0,0,2.67.29v.79l-14.4.22v-.72a6.32,6.32,0,0,0,2.59-.43,1.79,1.79,0,0,0,1-1,8.48,8.48,0,0,0,.21-2.88l-.29-18.22a9.46,9.46,0,0,0-.36-2.95,1.93,1.93,0,0,0-1-.86,6,6,0,0,0-2.67-.36v-.8l13.11-.21h1.8V13.1A19.76,19.76,0,0,0,191,13l-2.16.07L189,25.42h1.22c1.16-.08,2.16-.15,3-.29V30l-2.24-3.09Z"/><path class="cls-1" d="M277.42,28.22l-3.6,9.22-.72-.29a13.17,13.17,0,0,0-1.66-7.27,10.18,10.18,0,0,0-4.9-4.18,8.37,8.37,0,0,0-5.61-.21,9.61,9.61,0,0,0-4.54,3.6,22.39,22.39,0,0,0-3.09,5.76,20.73,20.73,0,0,0-1.66,7,7.33,7.33,0,0,0,1.22,5.26,8.37,8.37,0,0,0,4.25,3.17,6.86,6.86,0,0,0,1.95.57c.79.07,1.51.22,2.37.22l2.09-5.47a8.47,8.47,0,0,0,.5-2.09,1.75,1.75,0,0,0-.57-1.15,3.4,3.4,0,0,0-1.44-1l-.72-.29.29-.72,12.81,4.9-.29.72a5.65,5.65,0,0,0-2.16-.36,2.43,2.43,0,0,0-1.29.64,9.41,9.41,0,0,0-.87,1.73l-2.08,5.47a27,27,0,0,1-5.91-.28A33.35,33.35,0,0,1,256,51.55a16.34,16.34,0,0,1-5.9-3.45,16,16,0,0,1-3.32-4.32,14.12,14.12,0,0,1-1.58-4.9,14.7,14.7,0,0,1,1-6.48,14.34,14.34,0,0,1,8-8.5,15.4,15.4,0,0,1,12.1,0,19.76,19.76,0,0,1,3.45,1.66,15.78,15.78,0,0,1,2.38,1.94,10.44,10.44,0,0,0,2,1.59,1.65,1.65,0,0,0,1.16,0,3,3,0,0,0,1.36-1.23Z"/><path class="cls-1" d="M299.81,41.62c3.89,2.23,6.33,5.25,7.2,9.14a13.68,13.68,0,0,1-2,11.09,14.33,14.33,0,0,1-7.63,6.33,12.42,12.42,0,0,1-5,.87V65a8.07,8.07,0,0,0,1.22-.94,21.77,21.77,0,0,0,5-5.83c1.95-3.24,3.17-5.76,3.53-7.71a8.44,8.44,0,0,0-.22-4.75,6.82,6.82,0,0,0-2.44-2.95c-2.24-1.3-4.54-1.22-7.06.22V39A13.7,13.7,0,0,1,299.81,41.62Zm-7.49,27.43a15.11,15.11,0,0,1-7.78-2.52c-4.24-2.67-6.69-6.19-7.2-10.59A14.6,14.6,0,0,1,279.65,46a14.17,14.17,0,0,1,9.14-6.63,20.93,20.93,0,0,1,3.53-.36v4l-.07.07c-2.09,1.22-4.18,3.6-6.34,7-2.59,4.11-3.74,7.56-3.53,10.44a5.63,5.63,0,0,0,3,4.61,5.45,5.45,0,0,0,3.6,1A7.26,7.26,0,0,0,292.32,65Z"/><path class="cls-1" d="M340.7,77l-6.62,6.69-.58-.57a9.63,9.63,0,0,0,2-6.12,6.9,6.9,0,0,0-2-5.19,4.23,4.23,0,0,0-3.09-1.58,3.55,3.55,0,0,0-2.74.86,3.36,3.36,0,0,0-.93,1.52,5.68,5.68,0,0,0,0,2.73,44.07,44.07,0,0,0,1.36,4.9c1.08,3.53,1.59,6.19,1.3,8A7.4,7.4,0,0,1,327,92.88a7.83,7.83,0,0,1-6.26,2.23,9.71,9.71,0,0,1-6.7-3.24c-.57-.65-1.08-1.29-1.58-1.94s-.86-1.73-1.3-2.88a3.23,3.23,0,0,0-.86-1.44,1.36,1.36,0,0,0-1.08-.58,2.48,2.48,0,0,0-1.58.15l-.51-.58,7.63-7.34.51.5a12.93,12.93,0,0,0-2.45,7.34,8.1,8.1,0,0,0,2.23,5.69,4.87,4.87,0,0,0,3.46,1.73,3.65,3.65,0,0,0,3.09-1,3.93,3.93,0,0,0,1-1.73,5.17,5.17,0,0,0,.15-2.37,27.07,27.07,0,0,0-1-4.32,27.22,27.22,0,0,1-1.51-6.19,9.65,9.65,0,0,1,.28-3.89,6.44,6.44,0,0,1,2-3.17,7.56,7.56,0,0,1,5.83-2.23,8.32,8.32,0,0,1,6,2.88A11,11,0,0,1,336,72.58,13.2,13.2,0,0,1,337,75a6.77,6.77,0,0,0,.94,1.87,1,1,0,0,0,.79.36,3.34,3.34,0,0,0,1.58-.72Z"/><path class="cls-1" d="M360.5,106.63l-31.39.65,2.88,4.46a21.13,21.13,0,0,0,3.31,4.18,10,10,0,0,0,4.68,2.16,11.48,11.48,0,0,0,5.84-.86l.43.64-9.15,4.61-14-21.67,31.4-.65-2.31-3.45a17.38,17.38,0,0,0-1.87-2.6,8,8,0,0,0-2.38-1.72,6.67,6.67,0,0,0-2.95-.65,10.29,10.29,0,0,0-3.53.79l-.43-.65L348.34,88Z"/><path class="cls-1" d="M383.83,179.93l-.72.14a4.73,4.73,0,0,0-2.16-2.3,23,23,0,0,0-5.33-1.66l-23-5.4-.07-.72,20.09-13.75a34.69,34.69,0,0,0,4.32-3.17,3.69,3.69,0,0,0,.43-2.37l.72-.15,2.59,13.25-.72.14-.14-.43a4.82,4.82,0,0,0-.86-2.37,1.08,1.08,0,0,0-1-.29,1.26,1.26,0,0,0-.79.36,19.2,19.2,0,0,0-2.52,1.58L362,171.36l13.24,3.1c1.66.36,2.74.57,3.24.64h1.37a4.72,4.72,0,0,0,1-.57,2.67,2.67,0,0,0,.58-1.08,10.07,10.07,0,0,0-.15-2.45l.79-.14Z"/><path class="cls-1" d="M382.25,198.29l-11.45-.22v.58a4.4,4.4,0,0,0,1.58,3.81,10,10,0,0,0,4.9,1.59v.79l-14.76-.22v-.79a11,11,0,0,0,4-.93,4.77,4.77,0,0,0,2.16-1.88,7.84,7.84,0,0,0,.58-3l-7.92-.14a19.24,19.24,0,0,0-2.88.14,1.84,1.84,0,0,0-.87.79,3.11,3.11,0,0,0-.36,1.59v1.72a10.52,10.52,0,0,0,1.66,6.41,10.19,10.19,0,0,0,5.54,3.46v.79l-8.93-1.44.44-24.26h.72v1a3.27,3.27,0,0,0,.43,1.95,1.71,1.71,0,0,0,1,.86,7.33,7.33,0,0,0,2.59.29l18.5.29a10.06,10.06,0,0,0,2.38-.07,1.82,1.82,0,0,0,1.15-.72,3.25,3.25,0,0,0,.58-2.16v-.94h.79L383.69,211l-8.43-.14.08-.79a11.69,11.69,0,0,0,4.46-1.59,6.41,6.41,0,0,0,1.94-3.09,15.9,15.9,0,0,0,.51-4.32Z"/><path class="cls-1" d="M378.14,246.17l-7.48-1.3.07-.72a13.38,13.38,0,0,0,4-.79,5.45,5.45,0,0,0,2.16-1.87,6.65,6.65,0,0,0,.86-2.67l.36-2.08L356.69,233a8.63,8.63,0,0,0-2.59-.29,2.38,2.38,0,0,0-1.16.8,3.51,3.51,0,0,0-.72,1.8l-.14.93-.79-.14,2.59-14.55.72.15-.14.93a3.31,3.31,0,0,0,.14,1.95,1.4,1.4,0,0,0,.79,1,6,6,0,0,0,2.52.72L379.3,230l.43-1.94a6.18,6.18,0,0,0-.51-4.32,8.57,8.57,0,0,0-4.32-3.1l.15-.72,7.49,1.3Z"/><path class="cls-1" d="M369.29,272.16,360.36,269l.36-.79a9.45,9.45,0,0,0,6.34-.72,7.29,7.29,0,0,0,3.88-4,5,5,0,0,0,.15-3.53,3.59,3.59,0,0,0-2-2.09,4.87,4.87,0,0,0-1.73-.21,8.25,8.25,0,0,0-2.52,1.15,45.24,45.24,0,0,0-3.81,3.31c-2.74,2.52-5,4-6.7,4.61a8.21,8.21,0,0,1-5.25-.15,8.11,8.11,0,0,1-4.68-4.82,9.78,9.78,0,0,1,.07-7.42,13.24,13.24,0,0,1,1.15-2.23c.5-.65,1.15-1.44,2.09-2.45a4.1,4.1,0,0,0,.93-1.36,2.18,2.18,0,0,0,.08-1.23,4.53,4.53,0,0,0-.87-1.37l.29-.64,9.94,3.81-.29.65a12.3,12.3,0,0,0-7.71.86,8.51,8.51,0,0,0-4.17,4.4,5.2,5.2,0,0,0-.15,3.88A3.87,3.87,0,0,0,348,261a4.64,4.64,0,0,0,2,.22,8.14,8.14,0,0,0,2.23-.87,28.13,28.13,0,0,0,3.46-2.81,31.35,31.35,0,0,1,5-4,8.48,8.48,0,0,1,3.67-1.36,6.57,6.57,0,0,1,3.74.43,7.68,7.68,0,0,1,4.47,4.39,8.7,8.7,0,0,1-.07,6.7,7.9,7.9,0,0,1-1.23,2.3,12.16,12.16,0,0,1-1.73,1.87c-.72.79-1.15,1.3-1.36,1.59a1.24,1.24,0,0,0,.07.93,4.12,4.12,0,0,0,1.29,1.15Z"/><path class="cls-1" d="M358.2,288.43,348.12,283l-.22.43a4.28,4.28,0,0,0-.43,4.18,10.35,10.35,0,0,0,3.6,3.81l-.43.65-12.89-7.13.43-.64a11.32,11.32,0,0,0,4,.93,4.24,4.24,0,0,0,2.67-.57,7.73,7.73,0,0,0,1.94-2.52l-6.91-3.82a9.73,9.73,0,0,0-2.59-1.15,1.52,1.52,0,0,0-1.08.21c-.43.15-.79.65-1.15,1.37l-.87,1.44a10.06,10.06,0,0,0-1.44,6.41,9.88,9.88,0,0,0,3.24,5.69l-.43.72-7.2-5.47,11.81-21.32.65.36-.44.8a3.63,3.63,0,0,0-.5,2,1.55,1.55,0,0,0,.43,1.15,6.41,6.41,0,0,0,2.16,1.52l16.27,8.92a11,11,0,0,0,2.09,1.08,2.15,2.15,0,0,0,1.37-.07,4.31,4.31,0,0,0,1.51-1.65l.51-.87.64.43-11.44,20.67-7.28-4.11.36-.64a9.54,9.54,0,0,0,4.61.57,5.87,5.87,0,0,0,3.24-1.65,17.15,17.15,0,0,0,2.45-3.68Z"/><path class="cls-1" d="M329.26,331.34,321.7,325l.5-.65a12.34,12.34,0,0,0,7.42.86,10.6,10.6,0,0,0,5.54-3.31,8,8,0,0,0,2-5.18,9.61,9.61,0,0,0-1.88-5.47,28.46,28.46,0,0,0-4.46-4.9,23.14,23.14,0,0,0-6.12-3.82,7.61,7.61,0,0,0-5.4-.5A9,9,0,0,0,315,305a10.85,10.85,0,0,0-1.22,1.73,11.75,11.75,0,0,0-.87,2.09l4.47,3.74a6,6,0,0,0,1.8,1.23,2.79,2.79,0,0,0,1.29-.15,4.41,4.41,0,0,0,1.44-1.08l.43-.57.58.5L314.14,323l-.58-.5a9,9,0,0,0,1.08-1.95,2.62,2.62,0,0,0-.22-1.44c-.14-.21-.64-.64-1.36-1.36L308.52,314a29,29,0,0,1,2.3-5.54,24.33,24.33,0,0,1,3.39-5,17.59,17.59,0,0,1,5.11-4.46,17.3,17.3,0,0,1,5.18-1.66,13.5,13.5,0,0,1,5.12.07,14.23,14.23,0,0,1,5.9,3.1,14.38,14.38,0,0,1,5.33,10.29A15.88,15.88,0,0,1,337,322.27a18.64,18.64,0,0,1-2.66,2.67,17,17,0,0,1-2.6,1.65,8.33,8.33,0,0,0-2.16,1.37,1.5,1.5,0,0,0-.43,1.08,4.76,4.76,0,0,0,.65,1.73Z"/><polygon class="cls-1" points="308.66 38.16 300.17 40.03 298.44 38.95 303.7 34.78 308.66 38.16"/><polygon class="cls-1" points="362.59 300.17 360.29 291.74 361.3 290.02 365.69 295.06 362.59 300.17"/><path class="cls-1" d="M137.81,376.7l.5-1.65,3.1.65a3.3,3.3,0,0,0,2.81-.29c.64-.43,1.22-1.59,1.65-3.39l3.89-14.32a4.3,4.3,0,0,0,.07-2.88c-.29-.58-1.37-1.08-3.31-1.59-.72-.21-1.3-.29-1.66-.43s-.72-.14-1-.22l.36-1.51A37.28,37.28,0,0,0,160.49,350l-6.63,25.13a5,5,0,0,0-.21,2.81,3.41,3.41,0,0,0,1.8,1.37l3.45,1.22-.43,1.66Z"/><path class="cls-1" d="M184.68,370.87a11,11,0,0,1-3.67,2.67,8.71,8.71,0,0,1-1.44.5v-3.6a3.91,3.91,0,0,0,3.09-1.94,9.37,9.37,0,0,0,1.37-5,9.17,9.17,0,0,0-1.15-4.9,3.62,3.62,0,0,0-3.17-2h-.14v-3.68h0c4,.08,7.27,1.44,9.65,4.4s3.45,6.69,3.38,11.37c-.14,4.9-1.66,8.93-4.54,12a14.37,14.37,0,0,1-8.49,4.32v-4.32a7,7,0,0,0,2.66-2.23A12.94,12.94,0,0,0,184.68,370.87ZM179.57,374a13.24,13.24,0,0,1-3,.36,9.27,9.27,0,0,1-7-2.88,9.51,9.51,0,0,1-2.59-7.13,11.09,11.09,0,0,1,3.67-8.28,12.76,12.76,0,0,1,8.93-3.17v3.68a4,4,0,0,0-3.1,1.87,9.42,9.42,0,0,0-1.37,4.89,8.81,8.81,0,0,0,1.16,5,3.68,3.68,0,0,0,3.16,2h.15V374Zm0,10.94a19,19,0,0,1-2.95.22,30.47,30.47,0,0,1-3.6-.36,25.83,25.83,0,0,1-4.25-.86l1.73-8.5.86.22v.21a5.11,5.11,0,0,0,1.37,4,5.25,5.25,0,0,0,3.89,1.44,6.7,6.7,0,0,0,2.95-.65Z"/><path class="cls-1" d="M237.38,381.53,237,379.8l3.1-.86c1.22-.44,2-.94,2.3-1.66s.29-2-.14-3.82l-3.46-14.4c-.36-1.44-.79-2.3-1.29-2.59s-1.8-.21-3.68.29c-.79.14-1.29.29-1.65.36s-.72.22-1,.36l-.36-1.51a36.76,36.76,0,0,0,7.34-3.75,38.11,38.11,0,0,0,6.41-5.18l6.12,25.27c.36,1.37.72,2.23,1.23,2.52a2.49,2.49,0,0,0,2.16.29l3.6-.5.43,1.65Z"/><path class="cls-1" d="M213,353.52a11.13,11.13,0,0,1,8.2,3.67c2.6,2.74,4,6.48,4.47,11.31s-.43,8.78-2.45,11.95a11.65,11.65,0,0,1-8.86,5.33,8.86,8.86,0,0,1-1.36.07v-4a2.8,2.8,0,0,0,1.08,0c1.51-.15,2.52-1.15,3.09-3.24s.65-5.11.29-9.36a29.86,29.86,0,0,0-1.87-9.15,4.17,4.17,0,0,0-2.59-2.59Zm-1.37.07c.5,0,.93-.07,1.37-.07v4a2.39,2.39,0,0,0-1-.07c-1.51.14-2.59,1.22-3.1,3.31s-.65,5.19-.36,9.36a29.86,29.86,0,0,0,1.87,9.15,4.53,4.53,0,0,0,2.6,2.59v4a11.33,11.33,0,0,1-8.21-3.6c-2.59-2.81-4.11-6.48-4.47-11.31s.44-8.78,2.52-11.95A11.41,11.41,0,0,1,211.61,353.59Z"/></g></g></svg>