<svg xmlns="http://www.w3.org/2000/svg" xmlns:xlink="http://www.w3.org/1999/xlink" width="1080" zoomAndPan="magnify" viewBox="0 0 810 809.999993" height="1080" preserveAspectRatio="xMidYMid meet" version="1.0"><path fill="#ffffff" d="M 396.933594 795.121094 L 357.917969 790.40625 C 133.011719 663.242188 -22.605469 478.039062 68.777344 83.773438 C 218.203125 11.359375 368.3125 -7.382812 520.40625 12.609375 C 540.273438 15.074219 559.972656 18.519531 579.496094 22.953125 C 599.023438 27.382812 618.277344 32.773438 637.265625 39.125 C 656.253906 45.476562 674.878906 52.753906 693.140625 60.964844 C 711.398438 69.175781 729.207031 78.273438 746.5625 88.257812 C 814.429688 360.871094 764.507812 606.789062 455.773438 794.496094 Z M 396.933594 795.121094 " fill-opacity="1" fill-rule="evenodd"/><path fill="#035030" d="M 374.957031 803.070312 L 396.082031 795.121094 C 151.867188 692.890625 -21.410156 390.6875 101.265625 80.761719 C 229.675781 17.039062 368.3125 -2.5 514.273438 11.019531 C 345.820312 -15.164062 185.09375 8.519531 45.550781 77.636719 C -69.628906 387.222656 77.980469 684.484375 374.957031 803.070312 Z M 374.957031 803.070312 " fill-opacity="1" fill-rule="evenodd"/><path fill="#6fb444" d="M 397.332031 794.496094 L 436.179688 810 C 628.769531 740.9375 742.871094 605.996094 791.9375 428.117188 C 823.007812 313.164062 812.386719 203.609375 770.242188 83.773438 C 697.035156 50.261719 612.808594 19.59375 523.246094 13.0625 C 555.867188 19.027344 587.902344 27.28125 619.34375 37.824219 C 650.789062 48.367188 681.324219 61.089844 710.949219 75.992188 C 834.023438 416.246094 626.328125 710.667969 397.332031 794.496094 Z M 397.332031 794.496094 " fill-opacity="1" fill-rule="evenodd"/><path fill="#035030" d="M 397.332031 794.496094 L 434.136719 809.207031 C 624.679688 739.6875 736.335938 603.949219 784.953125 426.867188 C 793.582031 395.355469 799.261719 363.324219 801.992188 330.769531 C 784.449219 321.183594 766.179688 313.269531 747.1875 307.03125 C 735.089844 543.011719 572.316406 730.261719 397.332031 794.496094 Z M 397.332031 794.496094 " fill-opacity="1" fill-rule="evenodd"/><path fill="#ffffff" d="M 746.957031 253.074219 C 747.753906 271.476562 747.753906 289.460938 746.957031 307.03125 C 765.953125 313.269531 784.21875 321.183594 801.765625 330.769531 C 802.976562 312.746094 803.375 294.761719 802.957031 276.816406 C 784.78125 267.746094 766.117188 259.832031 746.957031 253.074219 Z M 746.957031 253.074219 " fill-opacity="1" fill-rule="evenodd"/><path fill="#f4a11e" d="M 368.707031 800.800781 L 369.277344 800.800781 C 76.332031 680.792969 -69.230469 385.179688 45.550781 77.636719 C 178.5625 11.8125 330.65625 -12.722656 490.53125 7.722656 C 497.121094 8.121094 503.652344 9.769531 510.582031 10.5625 C 342.128906 -15.5625 178.957031 6.929688 39.1875 76.445312 C -75.761719 385.578125 71.84375 682.441406 368.707031 800.800781 Z M 368.707031 800.800781 " fill-opacity="1" fill-rule="evenodd"/><path fill="#ffffff" d="M 61.167969 311.574219 C 60.769531 293.96875 60.769531 276.359375 61.621094 258.414062 C 42.144531 265.53125 23.742188 274.785156 6.417969 286.1875 C 6.257812 302.992188 6.941406 319.765625 8.460938 336.507812 C 26.011719 327.476562 43.617188 318.503906 61.167969 311.574219 Z M 61.167969 311.574219 " fill-opacity="1" fill-rule="evenodd"/><path fill="#f4a11e" d="M 65.710938 361.4375 C 63.667969 345.480469 62.019531 329.125 61.167969 312.765625 L 61.167969 311.574219 C 43.617188 318.503906 26.011719 327.476562 8.460938 336.507812 L 8.460938 337.699219 C 10.109375 353.660156 12.152344 369.617188 14.992188 385.578125 C 31.300781 376.277344 48.207031 368.230469 65.710938 361.4375 Z M 65.710938 361.4375 " fill-opacity="1" fill-rule="evenodd"/><path fill="#035030" d="M 477.867188 217.066406 C 477.867188 217.066406 506.265625 219.113281 506.890625 221.15625 L 433.738281 68.152344 L 397.671875 68.152344 L 397.671875 71.789062 C 409.941406 73.039062 409.542969 75.878906 415.28125 86.101562 L 351.441406 216.726562 L 359.621094 216.726562 L 378.535156 181.742188 C 398.527344 196.847656 410.792969 211.617188 425.105469 211.617188 C 433.738281 211.617188 440.667969 209.96875 461.113281 182.140625 L 459.066406 178.449219 C 447.710938 189.523438 441.460938 191.566406 433.285156 191.566406 C 423.515625 191.566406 410.566406 177.652344 388.300781 159.25 L 419.425781 93.824219 Z M 477.867188 217.066406 " fill-opacity="1" fill-rule="nonzero"/><path fill="#035030" d="M 332.304688 77.636719 C 349.058594 77.636719 367.0625 94.675781 374.445312 107.511719 L 388.757812 84.167969 C 387.527344 82.5625 386.203125 81.035156 384.792969 79.589844 C 383.378906 78.140625 381.886719 76.78125 380.316406 75.507812 C 378.742188 74.238281 377.097656 73.0625 375.386719 71.988281 C 373.671875 70.910156 371.902344 69.941406 370.074219 69.074219 C 368.246094 68.207031 366.371094 67.453125 364.457031 66.808594 C 362.539062 66.164062 360.589844 65.636719 358.609375 65.226562 C 356.628906 64.8125 354.628906 64.519531 352.613281 64.34375 C 350.597656 64.167969 348.582031 64.113281 346.558594 64.179688 C 323.839844 64.179688 311.003906 75.535156 299.136719 88.257812 L 299.136719 67.414062 C 280.734375 73.09375 275.394531 83.375 247.167969 82.578125 L 247.167969 86.214844 C 254.949219 86.214844 274.601562 86.214844 274.601562 114.609375 L 274.601562 221.15625 L 299.136719 221.15625 L 299.136719 158.230469 L 366.265625 158.230469 L 366.265625 150.847656 L 299.191406 150.847656 L 299.191406 96.039062 C 307.769531 85.191406 317.59375 77.636719 332.304688 77.636719 Z M 332.304688 77.636719 " fill-opacity="1" fill-rule="nonzero"/><path fill="#035030" d="M 506.492188 68.664062 C 508.046875 70.488281 509.445312 72.425781 510.6875 74.476562 C 511.925781 76.527344 512.988281 78.667969 513.878906 80.894531 C 514.765625 83.117188 515.46875 85.402344 515.980469 87.746094 C 516.496094 90.085938 516.816406 92.453125 516.941406 94.847656 L 516.941406 220.363281 L 540.285156 222.804688 L 540.285156 68.664062 Z M 506.492188 68.664062 " fill-opacity="1" fill-rule="nonzero"/><path fill="#59ad40" d="M 442.710938 684.484375 C 454.070312 668.921875 463.953125 655.464844 472.984375 643.992188 L 468.496094 643.992188 L 462.363281 653.816406 C 460.699219 657.453125 458.652344 660.859375 456.226562 664.039062 C 454.929688 666 453.414062 667.78125 451.683594 669.378906 C 448.84375 674.261719 445.550781 678.75 441.917969 684.085938 C 440.773438 683.011719 439.542969 682.046875 438.222656 681.191406 C 437.050781 681.75 435.953125 682.429688 434.929688 683.234375 C 436.578125 684.085938 438.222656 685.28125 440.269531 686.53125 C 437.371094 691.015625 434.589844 695.105469 431.238281 699.59375 C 434.53125 695.105469 437.828125 691.015625 440.667969 686.925781 C 452.535156 694.707031 465.597656 703.964844 479.910156 713.507812 C 465.828125 702.886719 453.730469 693.457031 442.710938 684.484375 Z M 442.710938 684.484375 " fill-opacity="1" fill-rule="nonzero"/><path fill="#005837" d="M 388.300781 277.609375 C 347.410156 282.496094 315.550781 295.21875 316.742188 306.007812 C 317.933594 316.796875 352.238281 320.546875 392.390625 315.664062 C 433.285156 310.722656 465.203125 298.058594 463.953125 287.265625 C 462.703125 276.476562 428.796875 272.613281 388.300781 277.609375 Z M 388.300781 277.609375 " fill-opacity="1" fill-rule="nonzero"/><path fill="#ffffff" d="M 391.597656 276.359375 C 359.679688 280.449219 333.949219 289.480469 334.800781 296.808594 C 335.652344 304.132812 363.199219 306.632812 394.949219 302.488281 C 426.695312 298.339844 453.332031 289.652344 452.140625 282.097656 C 450.945312 274.542969 424.308594 272.273438 391.597656 276.359375 Z M 391.597656 276.359375 " fill-opacity="1" fill-rule="nonzero"/><path fill="#005837" d="M 558.003906 355.304688 C 532.671875 318.898438 504.445312 294.363281 495.53125 300.894531 C 486.613281 307.425781 499.222656 342.242188 524.550781 378.589844 C 549.882812 414.9375 578.109375 439.132812 587.027344 432.601562 C 595.941406 426.070312 583.390625 391.878906 558.003906 355.304688 Z M 558.003906 355.304688 " fill-opacity="1" fill-rule="nonzero"/><path fill="#005837" d="M 313.503906 331.167969 C 290.785156 313.617188 250.519531 332.417969 222.292969 373.707031 C 194.066406 414.996094 189.578125 462.875 212.070312 480.820312 C 234.558594 498.769531 275.054688 479.628906 302.941406 438.339844 C 330.828125 397.050781 335.597656 349.171875 313.503906 331.167969 Z M 313.503906 331.167969 " fill-opacity="1" fill-rule="nonzero"/><path fill="#ffffff" d="M 555.5625 353.261719 C 535.117188 322.988281 513.023438 302.542969 506.492188 307.824219 C 499.960938 313.105469 511.433594 341.332031 531.878906 371.605469 C 552.324219 401.875 574.816406 422.324219 581.347656 417.039062 C 587.878906 411.757812 576.40625 383.53125 555.5625 353.261719 Z M 555.5625 353.261719 " fill-opacity="1" fill-rule="nonzero"/><path fill="#ffffff" d="M 304.472656 341.789062 C 287.4375 324.238281 250.519531 337.699219 222.691406 372.457031 C 194.859375 407.214844 186.34375 448.960938 203.492188 466.507812 C 220.644531 484.058594 257.449219 470.597656 285.277344 435.839844 C 313.105469 401.082031 321.683594 359.394531 304.472656 341.789062 Z M 304.472656 341.789062 " fill-opacity="1" fill-rule="nonzero"/><path fill="#59ad40" d="M 621.386719 430.160156 C 618.945312 433.398438 616.898438 436.691406 614.457031 439.929688 C 551.019531 359.792969 550.28125 356.554688 574.359375 330.371094 C 545.964844 350.820312 542.898438 349.964844 479.910156 273.917969 C 484.398438 273.519531 489.339844 272.726562 494.222656 272.273438 L 479.910156 273.519531 C 478.316406 271.824219 476.824219 270.042969 475.425781 268.183594 C 476.691406 270.035156 478.054688 271.816406 479.515625 273.519531 C 397.332031 281.300781 394.324219 279.199219 389.550781 254.722656 C 388.757812 281.300781 385.859375 282.496094 289.367188 293.171875 C 386.316406 283.972656 388.757812 284.539062 394.039062 310.722656 C 394.890625 285.390625 397.332031 283.347656 479.910156 273.917969 C 541.25 351.613281 541.648438 354.90625 517.964844 381.089844 C 546.359375 360.191406 549.429688 361.4375 614.515625 439.929688 C 604.292969 453.84375 595.316406 466.109375 587.140625 476.730469 C 587.8125 477.472656 588.34375 478.304688 588.730469 479.230469 C 596.113281 467.871094 604.6875 455.09375 614.910156 440.382812 C 615.761719 441.179688 616.160156 442.429688 616.957031 443.222656 C 616.160156 442.429688 615.761719 441.179688 614.910156 440.382812 C 616.898438 437.316406 619.171875 433.796875 621.386719 430.160156 Z M 621.386719 430.160156 " fill-opacity="1" fill-rule="nonzero"/><path fill="#59ad40" d="M 318.160156 299.703125 C 252.960938 388.019531 250.007812 389.269531 198.894531 354.90625 C 245.523438 395.402344 245.066406 399.035156 183.332031 489.851562 C 248.757812 401.535156 251.484375 400.285156 302.601562 434.648438 C 256.253906 394.152344 256.652344 390.460938 318.160156 299.703125 Z M 318.160156 299.703125 " fill-opacity="1" fill-rule="nonzero"/><path fill="#59ad40" d="M 528.980469 418.6875 C 528.980469 416.644531 528.585938 414.199219 528.585938 411.757812 C 528.144531 409.703125 527.621094 407.671875 527.007812 405.660156 C 526.398438 403.648438 525.703125 401.667969 524.921875 399.714844 C 524.144531 397.761719 523.28125 395.847656 522.339844 393.96875 C 521.398438 392.089844 520.382812 390.253906 519.285156 388.460938 C 518.1875 386.667969 517.015625 384.925781 515.773438 383.230469 C 514.527344 381.539062 513.214844 379.898438 511.832031 378.316406 C 510.449219 376.734375 509 375.214844 507.488281 373.753906 C 505.976562 372.292969 504.40625 370.898438 502.773438 369.574219 C 501.144531 368.246094 499.460938 366.992188 497.726562 365.808594 C 495.988281 364.621094 494.207031 363.511719 492.375 362.480469 C 490.542969 361.445312 488.675781 360.492188 486.761719 359.617188 C 484.851562 358.742188 482.90625 357.949219 480.929688 357.242188 C 478.953125 356.53125 476.945312 355.90625 474.914062 355.363281 C 472.882812 354.824219 470.835938 354.371094 468.765625 354.003906 C 466.695312 353.636719 464.613281 353.359375 462.519531 353.167969 C 460.425781 352.976562 458.332031 352.875 456.226562 352.863281 C 453.113281 352.863281 450.011719 353.058594 446.921875 353.453125 C 443.832031 353.847656 440.777344 354.433594 437.761719 355.214844 C 434.746094 356 431.792969 356.96875 428.902344 358.125 C 426.007812 359.28125 423.203125 360.617188 420.480469 362.132812 C 417.757812 363.648438 415.144531 365.328125 412.632812 367.175781 C 410.125 369.023438 407.746094 371.019531 405.492188 373.171875 C 403.234375 375.320312 401.128906 377.605469 399.164062 380.023438 C 397.199219 382.441406 395.398438 384.972656 393.753906 387.621094 C 395.28125 385.804688 396.898438 384.074219 398.613281 382.433594 C 400.324219 380.789062 402.121094 379.246094 404.003906 377.800781 C 405.886719 376.355469 407.839844 375.015625 409.867188 373.785156 C 411.894531 372.550781 413.984375 371.433594 416.132812 370.425781 C 418.28125 369.421875 420.480469 368.535156 422.726562 367.769531 C 424.972656 367.003906 427.253906 366.363281 429.570312 365.847656 C 431.886719 365.332031 434.222656 364.941406 436.582031 364.679688 C 438.9375 364.417969 441.304688 364.28125 443.675781 364.277344 C 445.839844 364.339844 447.992188 364.507812 450.140625 364.777344 C 452.285156 365.050781 454.414062 365.421875 456.523438 365.898438 C 458.636719 366.375 460.71875 366.949219 462.773438 367.628906 C 464.828125 368.304688 466.84375 369.078125 468.824219 369.949219 C 470.804688 370.820312 472.738281 371.785156 474.625 372.84375 C 476.515625 373.898438 478.347656 375.046875 480.121094 376.28125 C 481.898438 377.515625 483.613281 378.832031 485.261719 380.230469 C 486.910156 381.632812 488.492188 383.105469 489.996094 384.660156 C 491.503906 386.210938 492.933594 387.832031 494.285156 389.519531 C 495.636719 391.210938 496.902344 392.960938 498.085938 394.773438 C 499.265625 396.585938 500.359375 398.449219 501.363281 400.367188 C 502.363281 402.28125 503.273438 404.242188 504.085938 406.25 C 504.898438 408.253906 505.613281 410.292969 506.230469 412.367188 C 506.847656 414.441406 507.363281 416.539062 507.777344 418.660156 C 508.191406 420.785156 508.503906 422.921875 508.710938 425.078125 C 508.917969 427.230469 509.023438 429.386719 509.023438 431.550781 C 509.023438 433.714844 508.917969 435.875 508.710938 438.027344 C 508.503906 440.179688 508.191406 442.316406 507.777344 444.441406 C 507.363281 446.566406 506.847656 448.664062 506.230469 450.738281 C 505.613281 452.8125 504.898438 454.851562 504.085938 456.855469 C 503.273438 458.859375 502.363281 460.820312 501.363281 462.738281 C 500.359375 464.652344 499.265625 466.519531 498.085938 468.332031 C 496.902344 470.140625 495.636719 471.894531 494.285156 473.582031 C 492.933594 475.273438 491.503906 476.894531 489.996094 478.445312 C 488.492188 479.996094 486.910156 481.472656 485.261719 482.871094 C 483.613281 484.269531 481.898438 485.589844 480.121094 486.824219 C 478.347656 488.058594 476.515625 489.203125 474.625 490.261719 C 472.738281 491.320312 470.804688 492.28125 468.824219 493.152344 C 466.84375 494.023438 464.828125 494.800781 462.773438 495.476562 C 460.71875 496.152344 458.636719 496.730469 456.523438 497.203125 C 454.414062 497.679688 452.285156 498.054688 450.140625 498.324219 C 447.992188 498.59375 445.839844 498.761719 443.675781 498.824219 L 440.269531 498.824219 C 434.535156 498.847656 428.855469 498.300781 423.230469 497.175781 C 430.996094 499.335938 438.910156 500.4375 446.972656 500.472656 C 448.3125 500.476562 449.652344 500.453125 450.992188 500.390625 C 452.335938 500.332031 453.671875 500.238281 455.007812 500.113281 C 456.34375 499.988281 457.675781 499.832031 459.003906 499.640625 C 460.332031 499.449219 461.652344 499.222656 462.96875 498.96875 C 464.289062 498.710938 465.597656 498.421875 466.898438 498.101562 C 468.203125 497.78125 469.496094 497.425781 470.78125 497.042969 C 472.066406 496.65625 473.339844 496.242188 474.605469 495.792969 C 475.871094 495.34375 477.125 494.867188 478.363281 494.355469 C 479.605469 493.847656 480.832031 493.308594 482.046875 492.738281 C 483.261719 492.167969 484.460938 491.566406 485.648438 490.9375 C 486.832031 490.308594 488 489.652344 489.152344 488.964844 C 490.304688 488.277344 491.441406 487.5625 492.558594 486.820312 C 493.675781 486.078125 494.773438 485.308594 495.851562 484.511719 C 496.929688 483.714844 497.988281 482.890625 499.027344 482.042969 C 500.066406 481.191406 501.085938 480.316406 502.078125 479.417969 C 503.074219 478.519531 504.046875 477.597656 504.996094 476.648438 C 505.949219 475.699219 506.875 474.730469 507.777344 473.738281 C 508.679688 472.746094 509.554688 471.730469 510.40625 470.695312 C 511.257812 469.65625 512.085938 468.601562 512.886719 467.523438 C 513.6875 466.445312 514.457031 465.351562 515.203125 464.234375 C 515.949219 463.121094 516.667969 461.988281 517.359375 460.835938 C 518.046875 459.6875 518.710938 458.519531 519.34375 457.335938 C 519.976562 456.152344 520.578125 454.957031 521.152344 453.742188 C 521.722656 452.53125 522.269531 451.304688 522.78125 450.0625 C 523.292969 448.824219 523.777344 447.574219 524.226562 446.308594 C 524.679688 445.046875 525.097656 443.773438 525.488281 442.488281 C 525.875 441.203125 526.230469 439.910156 526.554688 438.609375 C 526.882812 437.308594 527.171875 436 527.433594 434.683594 C 527.695312 433.367188 527.921875 432.042969 528.117188 430.71875 C 528.3125 429.390625 528.472656 428.058594 528.601562 426.722656 C 528.730469 425.386719 528.828125 424.050781 528.890625 422.710938 C 528.953125 421.371094 528.984375 420.027344 528.980469 418.6875 Z M 528.980469 418.6875 " fill-opacity="1" fill-rule="nonzero"/><path fill="#59ad40" d="M 414.710938 525.800781 C 421.644531 530.992188 428.066406 536.75 433.980469 543.074219 C 439.894531 549.398438 445.210938 556.191406 449.925781 563.457031 C 456.371094 548.628906 464.738281 534.980469 475.027344 522.507812 L 478.71875 517.566406 C 471.824219 520.835938 464.640625 523.269531 457.175781 524.863281 C 449.710938 526.457031 442.164062 527.164062 434.53125 526.996094 C 427.898438 527.042969 421.292969 526.644531 414.710938 525.800781 Z M 414.710938 525.800781 " fill-opacity="1" fill-rule="nonzero"/><path fill="#59ad40" d="M 255.6875 728.671875 C 269.320312 709.011719 284.03125 690.195312 299.816406 672.21875 C 296.976562 669.773438 294.136719 667.730469 291.636719 665.289062 C 283.628906 682.441406 271.363281 702.886719 255.6875 728.671875 Z M 255.6875 728.671875 " fill-opacity="1" fill-rule="nonzero"/><path fill="#59ad40" d="M 192.019531 503.3125 C 214.113281 520.347656 232.117188 533.980469 247.226562 546.246094 C 247.488281 544.582031 247.90625 542.953125 248.476562 541.363281 C 232.515625 530.742188 214.113281 518.476562 192.019531 503.3125 Z M 192.019531 503.3125 " fill-opacity="1" fill-rule="nonzero"/><path fill="#59ad40" d="M 592.761719 617.011719 C 581.792969 607.765625 571.664062 597.675781 562.375 586.742188 C 559.878906 589.183594 557.4375 592.082031 555.390625 594.523438 C 568.476562 600.976562 580.933594 608.472656 592.761719 617.011719 Z M 592.761719 617.011719 " fill-opacity="1" fill-rule="nonzero"/><path fill="#ffffff" d="M 382.621094 557.324219 C 343.777344 530.34375 293.855469 533.867188 271.761719 566.296875 C 249.667969 598.726562 262.789062 645.808594 301.632812 673.46875 C 340.480469 701.125 391.597656 698 413.691406 666.082031 C 435.78125 634.164062 421.46875 584.980469 382.621094 557.324219 Z M 382.621094 557.324219 " fill-opacity="1" fill-rule="nonzero"/><path fill="#ffffff" d="M 579.414062 490.644531 C 559.367188 475.140625 520.917969 491.042969 493.542969 526.257812 C 466.167969 561.46875 459.976562 602.699219 480.023438 618.261719 C 500.074219 633.824219 538.523438 617.808594 565.898438 582.253906 C 593.273438 546.703125 599.351562 506.207031 579.414062 490.644531 Z M 579.414062 490.644531 " fill-opacity="1" fill-rule="nonzero"/><path fill="#fbaa29" d="M 444.359375 363.484375 C 441.988281 363.484375 439.621094 363.617188 437.265625 363.875 C 434.90625 364.136719 432.570312 364.523438 430.253906 365.035156 C 427.9375 365.550781 425.660156 366.1875 423.414062 366.953125 C 421.167969 367.714844 418.96875 368.597656 416.820312 369.601562 C 414.671875 370.601562 412.582031 371.71875 410.554688 372.949219 C 408.527344 374.179688 406.570312 375.515625 404.6875 376.960938 C 402.808594 378.40625 401.007812 379.945312 399.296875 381.585938 C 397.582031 383.226562 395.960938 384.953125 394.4375 386.769531 C 391.863281 389.90625 389.578125 393.242188 387.585938 396.773438 C 385.589844 400.308594 383.914062 403.988281 382.558594 407.8125 C 381.203125 411.636719 380.1875 415.546875 379.511719 419.550781 C 378.835938 423.550781 378.511719 427.578125 378.535156 431.636719 L 378.535156 432.886719 C 378.65625 430.882812 378.871094 428.890625 379.1875 426.90625 C 379.5 424.925781 379.90625 422.960938 380.410156 421.019531 C 380.914062 419.074219 381.507812 417.160156 382.195312 415.273438 C 382.882812 413.390625 383.65625 411.539062 384.523438 409.730469 C 385.386719 407.917969 386.339844 406.152344 387.375 404.433594 C 388.410156 402.714844 389.523438 401.046875 390.71875 399.4375 C 391.917969 397.824219 393.1875 396.273438 394.53125 394.785156 C 395.878906 393.296875 397.292969 391.875 398.773438 390.519531 C 400.257812 389.167969 401.800781 387.886719 403.40625 386.683594 C 405.011719 385.480469 406.671875 384.355469 408.386719 383.3125 C 410.101562 382.265625 411.859375 381.308594 413.667969 380.433594 C 415.472656 379.558594 417.316406 378.773438 419.199219 378.074219 C 421.082031 377.378906 422.992188 376.773438 424.933594 376.261719 C 426.875 375.746094 428.835938 375.328125 430.816406 375.003906 C 432.796875 374.683594 434.789062 374.453125 436.792969 374.320312 C 438.792969 374.191406 440.800781 374.15625 442.804688 374.214844 C 444.8125 374.277344 446.808594 374.4375 448.800781 374.691406 C 450.792969 374.945312 452.765625 375.292969 454.722656 375.738281 C 456.679688 376.183594 458.613281 376.71875 460.519531 377.351562 C 462.421875 377.980469 464.292969 378.699219 466.128906 379.511719 C 467.964844 380.324219 469.757812 381.21875 471.507812 382.203125 C 473.257812 383.1875 474.957031 384.253906 476.605469 385.398438 C 478.25 386.546875 479.839844 387.769531 481.367188 389.070312 C 482.894531 390.371094 484.359375 391.742188 485.757812 393.183594 C 487.152344 394.625 488.476562 396.128906 489.730469 397.699219 C 490.980469 399.269531 492.152344 400.894531 493.25 402.574219 C 494.34375 404.257812 495.355469 405.988281 496.285156 407.769531 C 497.210938 409.546875 498.054688 411.367188 498.804688 413.226562 C 499.558594 415.089844 500.21875 416.980469 500.789062 418.90625 C 501.363281 420.832031 501.839844 422.777344 502.21875 424.746094 C 502.601562 426.71875 502.890625 428.703125 503.082031 430.699219 C 503.273438 432.699219 503.367188 434.699219 503.367188 436.707031 C 503.367188 438.714844 503.269531 440.71875 503.074219 442.714844 C 502.878906 444.714844 502.589844 446.695312 502.203125 448.667969 C 501.816406 450.636719 501.335938 452.582031 500.765625 454.507812 C 500.191406 456.429688 499.527344 458.320312 498.769531 460.179688 C 498.015625 462.039062 497.171875 463.859375 496.242188 465.636719 C 495.308594 467.414062 494.296875 469.144531 493.199219 470.824219 C 492.101562 472.503906 490.925781 474.128906 489.671875 475.695312 C 488.417969 477.261719 487.089844 478.765625 485.691406 480.207031 C 484.292969 481.644531 482.828125 483.015625 481.296875 484.3125 C 479.765625 485.609375 478.175781 486.832031 476.527344 487.976562 C 474.878906 489.121094 473.179688 490.183594 471.425781 491.164062 C 469.675781 492.144531 467.882812 493.039062 466.042969 493.847656 C 464.207031 494.65625 462.335938 495.375 460.429688 496.003906 C 458.523438 496.628906 456.589844 497.164062 454.632812 497.605469 C 452.675781 498.046875 450.699219 498.394531 448.707031 498.644531 C 446.714844 498.894531 444.71875 499.050781 442.710938 499.109375 L 444.359375 499.109375 C 446.535156 499.046875 448.699219 498.878906 450.859375 498.605469 C 453.019531 498.332031 455.160156 497.957031 457.285156 497.480469 C 459.40625 497 461.5 496.421875 463.570312 495.742188 C 465.636719 495.0625 467.664062 494.28125 469.65625 493.40625 C 471.648438 492.53125 473.59375 491.558594 475.492188 490.496094 C 477.390625 489.433594 479.234375 488.277344 481.023438 487.039062 C 482.808594 485.796875 484.53125 484.472656 486.191406 483.0625 C 487.851562 481.65625 489.441406 480.171875 490.957031 478.609375 C 492.472656 477.050781 493.910156 475.417969 495.269531 473.71875 C 496.628906 472.019531 497.902344 470.257812 499.09375 468.4375 C 500.28125 466.613281 501.382812 464.738281 502.390625 462.808594 C 503.398438 460.878906 504.3125 458.910156 505.128906 456.890625 C 505.949219 454.875 506.667969 452.824219 507.289062 450.738281 C 507.90625 448.652344 508.425781 446.539062 508.84375 444.40625 C 509.261719 442.269531 509.574219 440.117188 509.78125 437.953125 C 509.992188 435.785156 510.097656 433.613281 510.097656 431.4375 C 510.097656 429.261719 509.992188 427.089844 509.78125 424.925781 C 509.574219 422.757812 509.261719 420.605469 508.84375 418.472656 C 508.425781 416.335938 507.90625 414.222656 507.289062 412.136719 C 506.667969 410.050781 505.949219 408 505.128906 405.984375 C 504.3125 403.96875 503.398438 401.996094 502.390625 400.066406 C 501.382812 398.136719 500.28125 396.261719 499.09375 394.441406 C 497.902344 392.617188 496.628906 390.855469 495.269531 389.15625 C 493.910156 387.457031 492.472656 385.828125 490.957031 384.265625 C 489.441406 382.703125 487.851562 381.21875 486.191406 379.8125 C 484.53125 378.40625 482.808594 377.082031 481.023438 375.839844 C 479.234375 374.597656 477.390625 373.445312 475.492188 372.378906 C 473.59375 371.316406 471.648438 370.347656 469.65625 369.46875 C 467.664062 368.59375 465.636719 367.816406 463.570312 367.132812 C 461.5 366.453125 459.40625 365.875 457.285156 365.394531 C 455.160156 364.917969 453.019531 364.542969 450.859375 364.269531 C 448.699219 364 446.535156 363.832031 444.359375 363.769531 Z M 444.359375 363.484375 " fill-opacity="1" fill-rule="nonzero"/><path fill="#59ad40" d="M 579.699219 486.160156 C 560.503906 471.449219 521.65625 489.851562 492.578125 527.050781 C 463.5 564.25 455.375 607.1875 474.628906 621.898438 C 482.808594 628.03125 494.621094 628.484375 508.136719 623.542969 C 506.242188 623.945312 504.324219 624.148438 502.386719 624.15625 C 500.445312 624.164062 498.527344 623.972656 496.628906 623.585938 C 494.726562 623.203125 492.886719 622.628906 491.105469 621.863281 C 489.324219 621.101562 487.636719 620.167969 486.046875 619.058594 C 468.496094 605.539062 474.175781 569.191406 498.710938 537.671875 C 523.246094 506.152344 556.699219 491.894531 573.734375 505.46875 C 575.609375 507.050781 577.179688 508.890625 578.441406 510.992188 C 579.707031 513.09375 580.597656 515.339844 581.117188 517.738281 C 581.800781 520.5625 582.25 523.421875 582.46875 526.320312 C 582.6875 529.21875 582.675781 532.113281 582.429688 535.007812 C 582.183594 537.90625 581.707031 540.761719 581.003906 543.582031 C 580.296875 546.398438 579.371094 549.144531 578.222656 551.8125 C 575.867188 557.914062 572.742188 563.59375 568.851562 568.851562 C 574.921875 560.636719 579.824219 551.777344 583.5625 542.273438 C 585.183594 537.730469 586.546875 533.109375 587.648438 528.414062 C 592.363281 509.898438 589.921875 494.109375 579.699219 486.160156 Z M 579.699219 486.160156 " fill-opacity="1" fill-rule="nonzero"/><path fill="#59ad40" d="M 387.109375 540.113281 C 343.320312 509.445312 288.570312 510.695312 264.832031 543.804688 C 241.089844 576.917969 256.652344 628.484375 299.589844 659.550781 C 293.96875 654.65625 288.945312 649.203125 284.53125 643.195312 C 280.113281 637.1875 276.40625 630.769531 273.40625 623.941406 C 276.011719 628.554688 279.070312 632.839844 282.582031 636.804688 C 286.09375 640.765625 289.984375 644.316406 294.25 647.453125 C 296.292969 649.0625 298.492188 650.425781 300.839844 651.542969 C 302.355469 652.460938 303.910156 653.3125 305.503906 654.097656 C 307.09375 654.882812 308.714844 655.597656 310.367188 656.242188 C 312.023438 656.886719 313.699219 657.457031 315.402344 657.957031 C 317.105469 658.457031 318.824219 658.882812 320.5625 659.234375 C 322.300781 659.585938 324.050781 659.863281 325.816406 660.0625 C 327.578125 660.261719 329.347656 660.386719 331.121094 660.433594 C 332.894531 660.484375 334.664062 660.453125 336.4375 660.351562 C 338.207031 660.246094 339.96875 660.066406 341.726562 659.808594 C 343.480469 659.550781 345.222656 659.21875 346.949219 658.8125 C 348.675781 658.40625 350.382812 657.925781 352.066406 657.371094 C 353.75 656.820312 355.410156 656.195312 357.042969 655.496094 C 358.671875 654.800781 360.273438 654.035156 361.835938 653.199219 C 363.402344 652.367188 364.929688 651.464844 366.417969 650.5 C 367.90625 649.53125 369.347656 648.503906 370.746094 647.414062 C 372.148438 646.324219 373.496094 645.175781 374.796875 643.96875 C 376.097656 642.761719 377.34375 641.5 378.535156 640.183594 C 359.679688 657.222656 329.464844 658.1875 306.121094 641.433594 C 299.84375 636.785156 294.523438 631.21875 290.160156 624.738281 C 289.371094 623.632812 288.625 622.496094 287.921875 621.335938 C 287.21875 620.171875 286.558594 618.984375 285.941406 617.773438 C 285.328125 616.5625 284.757812 615.328125 284.234375 614.074219 C 283.714844 612.820312 283.238281 611.546875 282.8125 610.257812 C 282.386719 608.96875 282.007812 607.664062 281.679688 606.34375 C 281.347656 605.027344 281.070312 603.699219 280.839844 602.359375 C 280.609375 601.019531 280.433594 599.671875 280.304688 598.320312 C 280.175781 596.96875 280.097656 595.613281 280.070312 594.253906 C 280.046875 592.894531 280.070312 591.535156 280.144531 590.179688 C 280.222656 588.824219 280.347656 587.472656 280.523438 586.125 C 280.703125 584.777344 280.929688 583.4375 281.207031 582.105469 C 281.484375 580.777344 281.8125 579.460938 282.1875 578.152344 C 282.5625 576.847656 282.988281 575.558594 283.460938 574.285156 C 283.9375 573.011719 284.457031 571.757812 285.023438 570.523438 C 285.589844 569.285156 286.203125 568.074219 286.863281 566.886719 C 287.519531 565.699219 288.222656 564.535156 288.96875 563.398438 C 289.859375 562.265625 290.789062 561.171875 291.765625 560.113281 C 292.738281 559.054688 293.753906 558.035156 294.808594 557.054688 C 295.863281 556.078125 296.957031 555.140625 298.085938 554.25 C 299.210938 553.355469 300.375 552.507812 301.570312 551.707031 C 302.765625 550.90625 303.992188 550.152344 305.246094 549.445312 C 306.5 548.742188 307.78125 548.085938 309.085938 547.480469 C 310.390625 546.875 311.71875 546.324219 313.070312 545.824219 C 314.417969 545.324219 315.785156 544.878906 317.171875 544.484375 C 318.554688 544.09375 319.953125 543.757812 321.363281 543.472656 C 322.777344 543.191406 324.195312 542.964844 325.625 542.792969 C 327.054688 542.625 328.488281 542.511719 329.925781 542.453125 C 331.363281 542.394531 332.800781 542.394531 334.242188 542.449219 C 335.679688 542.503906 337.113281 542.617188 338.542969 542.785156 C 339.972656 542.953125 341.390625 543.175781 342.804688 543.457031 C 344.214844 543.738281 345.613281 544.070312 347 544.460938 C 348.382812 544.851562 349.75 545.296875 351.101562 545.792969 C 351.457031 546.113281 351.875 546.246094 352.351562 546.191406 C 352.75 546.191406 352.75 546.644531 352.75 546.644531 C 359.269531 548.765625 365.488281 551.550781 371.414062 554.996094 C 377.339844 558.441406 382.839844 562.472656 387.90625 567.089844 C 397.90625 575.398438 406.21875 585.148438 412.835938 596.339844 C 426.355469 619.625 428 645.808594 414.484375 664.492188 C 413.648438 665.808594 412.703125 667.039062 411.644531 668.183594 C 415.851562 664.914062 419.523438 661.128906 422.664062 656.824219 C 426.742188 650.863281 429.769531 644.40625 431.75 637.460938 C 439.871094 605.539062 422.265625 565.898438 387.109375 540.113281 Z M 387.109375 540.113281 " fill-opacity="1" fill-rule="nonzero"/><path fill="#005837" d="M 306.121094 665.289062 C 303.679688 663.242188 301.632812 661.597656 299.589844 659.609375 C 296.886719 658.03125 294.421875 656.140625 292.207031 653.929688 C 296.296875 657.621094 300.839844 661.3125 305.722656 664.949219 Z M 306.121094 665.289062 " fill-opacity="1" fill-rule="nonzero"/><path fill="#005837" d="M 284.878906 647.453125 C 287.320312 649.898438 289.765625 651.941406 292.207031 653.988281 C 289.765625 651.769531 287.320312 649.726562 284.878906 647.453125 Z M 284.878906 647.453125 " fill-opacity="1" fill-rule="nonzero"/><path fill="#005837" d="M 475.027344 522.507812 C 464.804688 534.972656 456.492188 548.601562 450.09375 563.398438 C 448.84375 561.753906 448.050781 560.503906 446.800781 558.914062 L 446.800781 674.601562 C 450.265625 671.351562 453.410156 667.808594 456.226562 663.980469 C 460.660156 657.910156 463.859375 651.246094 465.828125 643.992188 C 482.863281 645.636719 505.921875 635.015625 528.300781 616.21875 C 521.964844 619.609375 515.28125 622.050781 508.253906 623.542969 C 494.734375 628.484375 482.921875 628.03125 474.742188 621.898438 C 455.488281 607.1875 463.382812 564.648438 492.691406 527.050781 C 521.996094 489.453125 560.84375 471.449219 579.8125 486.160156 C 590.035156 493.941406 592.476562 509.898438 587.992188 528.300781 C 596.167969 502.515625 594.523438 480.027344 581.460938 469.800781 C 567.546875 459.183594 545.054688 463.667969 521.316406 478.777344 C 523.351562 475.257812 525.15625 471.621094 526.722656 467.867188 C 528.292969 464.117188 529.613281 460.277344 530.683594 456.355469 C 531.757812 452.433594 532.574219 448.457031 533.132812 444.429688 C 533.695312 440.402344 533.992188 436.355469 534.027344 432.289062 C 534.066406 428.222656 533.84375 424.171875 533.355469 420.132812 C 532.871094 416.09375 532.125 412.105469 531.125 408.164062 C 530.125 404.222656 528.875 400.359375 527.375 396.582031 C 525.875 392.800781 524.140625 389.132812 522.167969 385.578125 L 521.769531 385.179688 C 525.511719 393.367188 527.820312 401.945312 528.699219 410.90625 C 528.699219 413.804688 529.09375 416.246094 529.09375 418.6875 C 529.097656 420.03125 529.066406 421.375 529.003906 422.714844 C 528.941406 424.058594 528.84375 425.398438 528.714844 426.734375 C 528.585938 428.070312 528.421875 429.402344 528.226562 430.734375 C 528.03125 432.0625 527.804688 433.386719 527.542969 434.703125 C 527.28125 436.023438 526.988281 437.332031 526.664062 438.636719 C 526.339844 439.9375 525.980469 441.234375 525.589844 442.519531 C 525.203125 443.804688 524.78125 445.078125 524.328125 446.34375 C 523.875 447.609375 523.394531 448.863281 522.878906 450.105469 C 522.363281 451.34375 521.820312 452.574219 521.246094 453.785156 C 520.667969 455 520.066406 456.199219 519.429688 457.382812 C 518.796875 458.570312 518.132812 459.738281 517.441406 460.886719 C 516.75 462.039062 516.03125 463.171875 515.28125 464.289062 C 514.535156 465.40625 513.761719 466.503906 512.957031 467.582031 C 512.15625 468.65625 511.328125 469.714844 510.472656 470.753906 C 509.621094 471.789062 508.742188 472.804688 507.835938 473.796875 C 506.933594 474.789062 506.003906 475.761719 505.050781 476.710938 C 504.097656 477.65625 503.125 478.582031 502.125 479.480469 C 501.128906 480.378906 500.109375 481.253906 499.066406 482.101562 C 498.027344 482.953125 496.964844 483.773438 495.882812 484.570312 C 494.804688 485.367188 493.703125 486.136719 492.582031 486.878906 C 491.464844 487.621094 490.324219 488.335938 489.171875 489.023438 C 488.015625 489.710938 486.84375 490.367188 485.65625 490.996094 C 484.46875 491.625 483.269531 492.222656 482.050781 492.789062 C 480.835938 493.359375 479.605469 493.898438 478.359375 494.40625 C 477.117188 494.914062 475.863281 495.390625 474.59375 495.839844 C 473.328125 496.285156 472.050781 496.699219 470.761719 497.082031 C 469.476562 497.464844 468.179688 497.816406 466.875 498.136719 C 465.570312 498.457031 464.257812 498.742188 462.9375 498.996094 C 461.617188 499.25 460.292969 499.472656 458.964844 499.660156 C 457.632812 499.851562 456.300781 500.007812 454.960938 500.128906 C 453.625 500.253906 452.285156 500.34375 450.941406 500.398438 C 449.601562 500.457031 448.257812 500.480469 446.914062 500.472656 L 446.914062 526.652344 C 458.101562 525.585938 468.742188 522.574219 478.832031 517.625 L 475.140625 522.566406 Z M 446.628906 337.246094 L 446.628906 336.449219 C 448.675781 336.847656 450.71875 336.847656 452.308594 337.246094 Z M 446.628906 558.742188 C 437.769531 546.039062 427.128906 535.058594 414.710938 525.800781 C 421.234375 526.65625 427.785156 527.074219 434.363281 527.050781 C 438.453125 527.050781 442.542969 527.050781 446.628906 526.652344 L 446.628906 500.472656 C 443.648438 500.496094 440.671875 500.355469 437.703125 500.050781 C 434.738281 499.75 431.792969 499.28125 428.878906 498.652344 C 425.960938 498.023438 423.089844 497.234375 420.261719 496.285156 C 417.433594 495.339844 414.664062 494.238281 411.957031 492.984375 C 409.25 491.734375 406.621094 490.335938 404.066406 488.789062 C 401.515625 487.246094 399.054688 485.566406 396.6875 483.75 C 394.320312 481.933594 392.0625 479.992188 389.910156 477.925781 C 387.757812 475.863281 385.726562 473.683594 383.816406 471.394531 C 377.566406 464.359375 372.722656 456.464844 369.277344 447.710938 C 365.972656 438.53125 364.34375 429.066406 364.390625 419.3125 C 364.441406 414.910156 364.828125 410.539062 365.550781 406.195312 C 366.273438 401.851562 367.324219 397.589844 368.703125 393.40625 C 370.082031 389.226562 371.769531 385.175781 373.769531 381.253906 C 375.769531 377.332031 378.058594 373.585938 380.636719 370.015625 C 382.550781 367.453125 384.605469 365.011719 386.808594 362.691406 C 389.007812 360.375 391.339844 358.191406 393.796875 356.144531 C 396.253906 354.101562 398.824219 352.207031 401.503906 350.464844 C 404.1875 348.722656 406.960938 347.140625 409.828125 345.726562 C 412.695312 344.308594 415.632812 343.066406 418.648438 341.996094 C 421.660156 340.925781 424.726562 340.035156 427.84375 339.328125 C 430.964844 338.617188 434.113281 338.09375 437.292969 337.753906 C 440.472656 337.414062 443.660156 337.265625 446.855469 337.300781 L 446.855469 336.507812 C 445.882812 336.570312 444.9375 336.4375 444.019531 336.109375 L 446.855469 336.109375 C 442.769531 335.539062 438.660156 335.199219 434.53125 335.085938 C 427.039062 335.109375 419.632812 335.949219 412.324219 337.609375 C 405.011719 339.265625 397.972656 341.699219 391.199219 344.910156 C 389.132812 345.855469 387.101562 346.871094 385.105469 347.960938 C 383.109375 349.046875 381.15625 350.203125 379.246094 351.433594 C 377.332031 352.660156 375.464844 353.953125 373.644531 355.3125 C 371.824219 356.671875 370.054688 358.09375 368.335938 359.582031 C 366.617188 361.066406 364.953125 362.613281 363.34375 364.21875 C 361.734375 365.820312 360.183594 367.480469 358.691406 369.195312 C 357.203125 370.910156 355.773438 372.675781 354.410156 374.492188 C 353.042969 376.308594 351.746094 378.171875 350.511719 380.082031 C 349.277344 381.992188 348.117188 383.941406 347.023438 385.933594 C 345.929688 387.925781 344.90625 389.953125 343.957031 392.015625 C 343.007812 394.082031 342.132812 396.175781 341.332031 398.304688 C 340.53125 400.429688 339.808594 402.582031 339.160156 404.761719 C 338.515625 406.941406 337.945312 409.140625 337.457031 411.359375 C 336.964844 413.578125 336.554688 415.808594 336.222656 418.058594 C 335.890625 420.304688 335.640625 422.5625 335.46875 424.828125 C 335.300781 427.09375 335.210938 429.363281 335.199219 431.636719 C 335.210938 434.726562 335.371094 437.8125 335.683594 440.886719 C 335.996094 443.964844 336.457031 447.015625 337.070312 450.046875 C 337.679688 453.078125 338.441406 456.070312 339.347656 459.027344 C 340.25 461.980469 341.300781 464.886719 342.492188 467.738281 C 343.683594 470.59375 345.007812 473.378906 346.472656 476.101562 C 347.9375 478.824219 349.53125 481.46875 351.257812 484.035156 C 352.980469 486.601562 354.824219 489.078125 356.792969 491.464844 C 358.757812 493.847656 360.839844 496.132812 363.027344 498.3125 C 320.886719 485.195312 278.804688 492.972656 257.960938 521.996094 C 233.820312 555.5625 245.691406 607.1875 284.085938 646.320312 C 253.417969 615.253906 244.328125 572.488281 264.886719 544.089844 C 288.628906 510.976562 343.378906 510.011719 387.167969 540.398438 C 430.5 571.917969 446.460938 624.226562 422.71875 657.394531 C 419.578125 661.695312 415.90625 665.484375 411.703125 668.753906 C 393.300781 690.050781 358.941406 692.890625 326.511719 677.78125 C 371.09375 700.5 418.914062 699.820312 446.742188 674.886719 Z M 446.628906 558.742188 " fill-opacity="1" fill-rule="nonzero"/></svg>