<svg xmlns="http://www.w3.org/2000/svg" viewBox="0 0 142.58 142.62"><defs><style>.cls-1,.cls-8{fill:#fff;}.cls-1,.cls-2,.cls-3,.cls-4{fill-rule:evenodd;}.cls-2,.cls-5{fill:#035030;}.cls-3{fill:#6fb444;}.cls-4{fill:#f4a11e;}.cls-6{fill:#59ad40;}.cls-7{fill:#005837;}.cls-9{fill:#fbaa29;}</style></defs><title>Eszköz 1</title><g id="Réteg_2" data-name="Réteg 2"><g id="Layer_1" data-name="Layer 1"><path class="cls-1" d="M69.87,140,63,139.17c-39.6-22.39-67-55-50.91-124.42C38.4,2,64.83-1.3,91.61,2.22a106,106,0,0,1,39.82,13.32c11.95,48,3.16,91.3-51.2,124.35Z"/><path class="cls-2" d="M66,141.4,69.72,140c-43-18-73.51-71.21-51.91-125.78C40.42,3,64.83-.44,90.53,1.94,60.87-2.67,32.57,1.5,8,13.67-12.28,68.18,13.71,120.52,66,141.4Z"/><path class="cls-3" d="M69.94,139.89l6.84,2.73c33.91-12.16,54-35.92,62.64-67.24,5.47-20.24,3.6-39.53-3.82-60.63C122.71,8.85,107.88,3.45,92.11,2.3a122.65,122.65,0,0,1,33.05,11.08C146.83,73.29,110.26,125.13,69.94,139.89Z"/><path class="cls-2" d="M69.94,139.89l6.48,2.59c33.55-12.24,53.21-36.14,61.77-67.32a93.69,93.69,0,0,0,3-16.92,57.69,57.69,0,0,0-9.65-4.18C129.41,95.61,100.75,128.58,69.94,139.89Z"/><path class="cls-1" d="M131.5,44.56q.21,4.86,0,9.5a57.69,57.69,0,0,1,9.65,4.18q.32-4.76.21-9.5A86.5,86.5,0,0,0,131.5,44.56Z"/><path class="cls-4" d="M64.9,141,65,141C13.42,119.87-12.21,67.82,8,13.67,31.42,2.08,58.2-2.24,86.35,1.36c1.16.07,2.31.36,3.53.5-29.66-4.6-58.39-.64-83,11.6C-13.36,67.89,12.63,120.16,64.9,141Z"/><path class="cls-1" d="M10.75,54.86c-.07-3.1-.07-6.2.08-9.36a47.05,47.05,0,0,0-9.72,4.89,88.63,88.63,0,0,0,.36,8.86C4.56,57.66,7.66,56.08,10.75,54.86Z"/><path class="cls-4" d="M11.55,63.64c-.36-2.81-.65-5.69-.8-8.57v-.21c-3.09,1.22-6.19,2.8-9.28,4.39v.21c.29,2.81.65,5.62,1.15,8.43A66.78,66.78,0,0,1,11.55,63.64Z"/><path class="cls-5" d="M84.12,38.22s5,.36,5.11.72L76.35,12H70v.64c2.16.22,2.09.72,3.1,2.52l-11.24,23h1.44L66.63,32c3.52,2.66,5.68,5.26,8.2,5.26,1.52,0,2.74-.29,6.34-5.19l-.36-.65c-2,1.95-3.1,2.31-4.54,2.31-1.72,0-4-2.45-7.92-5.69l5.48-11.52Z"/><path class="cls-5" d="M58.49,13.67c2.95,0,6.12,3,7.42,5.26l2.52-4.11A9,9,0,0,0,61,11.3c-4,0-6.26,2-8.35,4.24V11.87c-3.24,1-4.18,2.81-9.15,2.67h0v.64c1.37,0,4.83,0,4.83,5V38.94h4.32V27.86H64.47v-1.3H52.66V16.91C54.17,15,55.9,13.67,58.49,13.67Z"/><path class="cls-5" d="M89.16,12.09A7.72,7.72,0,0,1,91,16.7V38.8l4.11.43V12.09Z"/><path class="cls-6" d="M77.93,120.52c2-2.74,3.74-5.11,5.33-7.13h-.79l-1.08,1.73a9.44,9.44,0,0,1-1.08,1.8,5.17,5.17,0,0,1-.8.94c-.5.86-1.08,1.65-1.72,2.59a4.65,4.65,0,0,0-.65-.51,3.05,3.05,0,0,0-.58.36c.29.15.58.36.94.58-.51.79-1,1.51-1.59,2.3.58-.79,1.16-1.51,1.66-2.23,2.09,1.37,4.39,3,6.91,4.68C82,123.76,79.87,122.1,77.93,120.52Z"/><path class="cls-7" d="M68.35,48.88c-7.2.86-12.81,3.1-12.6,5S62,56.44,69.07,55.58c7.2-.87,12.82-3.1,12.6-5S75.48,48,68.35,48.88Z"/><path class="cls-8" d="M68.93,48.66c-5.62.72-10.15,2.31-10,3.6s5,1.73,10.59,1S79.8,51,79.59,49.67,74.69,47.94,68.93,48.66Z"/><path class="cls-7" d="M98.23,62.56c-4.46-6.41-9.43-10.73-11-9.58s.65,7.28,5.11,13.68,9.43,10.66,11,9.51S102.7,69,98.23,62.56Z"/><path class="cls-7" d="M55.18,58.31c-4-3.09-11.09.22-16.06,7.49s-5.76,15.7-1.8,18.86,11.09-.21,16-7.48S59.07,61.48,55.18,58.31Z"/><path class="cls-8" d="M97.8,62.2c-3.6-5.33-7.49-8.93-8.64-8s.87,5.9,4.47,11.23,7.56,8.93,8.71,8S101.47,67.53,97.8,62.2Z"/><path class="cls-8" d="M53.59,60.18c-3-3.09-9.5-.72-14.4,5.4s-6.4,13.47-3.38,16.56,9.5.72,14.4-5.4S56.62,63.28,53.59,60.18Z"/><path class="cls-6" d="M109.39,75.74c-.43.57-.79,1.15-1.22,1.72C97,63.35,96.87,62.78,101.11,58.17c-5,3.6-5.54,3.45-16.63-9.94.79-.07,1.66-.21,2.52-.29l-2.52.22a11.16,11.16,0,0,1-.79-.94,11,11,0,0,0,.72.94c-14.47,1.37-15,1-15.84-3.31-.14,4.68-.65,4.89-17.64,6.77C68,50,68.43,50.1,69.36,54.71c.15-4.46.58-4.82,15.12-6.48,10.8,13.68,10.87,14.26,6.7,18.87,5-3.68,5.54-3.46,17,10.36-1.8,2.45-3.38,4.61-4.82,6.48a1.54,1.54,0,0,1,.28.44c1.3-2,2.81-4.25,4.61-6.84.15.14.22.36.36.5-.14-.14-.21-.36-.36-.5C108.6,77,109,76.38,109.39,75.74Z"/><path class="cls-6" d="M56,52.77C44.52,68.32,44,68.54,35,62.49c8.21,7.13,8.13,7.77-2.74,23.76,11.52-15.55,12-15.77,21-9.72C45.1,69.4,45.17,68.75,56,52.77Z"/><path class="cls-6" d="M93.12,73.72c0-.36-.07-.79-.07-1.22A13.11,13.11,0,0,0,80.31,62.13a12.94,12.94,0,0,0-11,6.12,11.5,11.5,0,0,1,8.79-4.11,11.85,11.85,0,0,1,0,23.69H77.5a15,15,0,0,1-3-.29,15.86,15.86,0,0,0,4.18.58A14.37,14.37,0,0,0,93.12,73.72Z"/><path class="cls-6" d="M73,92.58a25.89,25.89,0,0,1,6.2,6.63A30.33,30.33,0,0,1,83.62,92l.65-.87a17.25,17.25,0,0,1-7.78,1.66A26,26,0,0,1,73,92.58Z"/><path class="cls-6" d="M45,128.3a110.42,110.42,0,0,1,7.77-9.94c-.5-.43-1-.79-1.44-1.22C49.92,120.16,47.76,123.76,45,128.3Z"/><path class="cls-6" d="M33.79,88.62c3.89,3,7.06,5.4,9.72,7.56a4.73,4.73,0,0,1,.22-.86C40.92,93.45,37.68,91.29,33.79,88.62Z"/><path class="cls-6" d="M104.35,108.64A45.49,45.49,0,0,1,99,103.31c-.44.43-.87.94-1.23,1.37A45.94,45.94,0,0,1,104.35,108.64Z"/><path class="cls-8" d="M67.35,98.13C60.51,93.38,51.72,94,47.83,99.71s-1.58,14,5.26,18.87,15.84,4.32,19.73-1.3S74.19,103,67.35,98.13Z"/><path class="cls-8" d="M102,86.39c-3.53-2.73-10.3.07-15.12,6.27s-5.91,13.46-2.38,16.2,10.3-.08,15.12-6.34S105.51,89.13,102,86.39Z"/><path class="cls-9" d="M78.22,64a11.49,11.49,0,0,0-8.79,4.1A12.34,12.34,0,0,0,66.63,76v.22a11,11,0,1,1,11.3,11.66h.29a11.92,11.92,0,0,0,0-23.83Z"/><path class="cls-6" d="M102.05,85.6c-3.38-2.59-10.22.65-15.34,7.2s-6.55,14.11-3.16,16.7c1.44,1.08,3.52,1.16,5.9.29a5,5,0,0,1-3.89-.79c-3.09-2.38-2.09-8.78,2.23-14.33S98,86.61,101,89a3.91,3.91,0,0,1,1.3,2.16,9.54,9.54,0,0,1-.51,6,12.77,12.77,0,0,1-1.65,3,20.51,20.51,0,0,0,2.59-4.68,22.84,22.84,0,0,0,.72-2.44C104.28,89.78,103.85,87,102.05,85.6Z"/><path class="cls-6" d="M68.14,95.1c-7.71-5.4-17.35-5.18-21.53.65s-1.44,14.91,6.12,20.38a17.81,17.81,0,0,1-4.61-6.27A13.18,13.18,0,0,0,51.79,114a6.13,6.13,0,0,0,1.16.72,10.87,10.87,0,0,0,13.68-2c-3.32,3-8.64,3.17-12.75.22A12,12,0,0,1,51.07,110a9.56,9.56,0,0,1-.21-10.8,9.66,9.66,0,0,1,10.94-3.1.28.28,0,0,0,.22.07c.07,0,.07.08.07.08a17,17,0,0,1,6.19,3.6A19.79,19.79,0,0,1,72.67,105c2.38,4.1,2.67,8.71.29,12a4.59,4.59,0,0,1-.5.65,10,10,0,0,0,1.94-2A11.73,11.73,0,0,0,76,112.24C77.43,106.62,74.33,99.64,68.14,95.1Z"/><path class="cls-7" d="M53.88,117.14c-.43-.36-.79-.65-1.15-1a6.42,6.42,0,0,1-1.3-1c.72.65,1.52,1.3,2.38,1.94Z"/><path class="cls-7" d="M50.14,114c.43.43.86.79,1.29,1.15C51,114.76,50.57,114.4,50.14,114Z"/><path class="cls-7" d="M83.62,92a30.33,30.33,0,0,0-4.39,7.2c-.22-.29-.36-.51-.58-.79v20.37a13.74,13.74,0,0,0,1.66-1.87A10.73,10.73,0,0,0,82,113.39c3,.29,7.06-1.58,11-4.89a13.38,13.38,0,0,1-3.53,1.29c-2.38.87-4.46.79-5.9-.29-3.39-2.59-2-10.08,3.16-16.7s12-9.79,15.34-7.2c1.8,1.37,2.23,4.18,1.44,7.42,1.44-4.54,1.15-8.5-1.15-10.3-2.45-1.87-6.41-1.08-10.59,1.58a16.64,16.64,0,0,0,.15-16.41h0l-.07-.07a14.23,14.23,0,0,1,1.22,4.53c0,.51.07.94.07,1.37a14.37,14.37,0,0,1-14.47,14.4v4.61a16.27,16.27,0,0,0,5.62-1.59l-.65.87Zm-5-32.62v-.14c.36.07.72.07,1,.14Zm0,39A25.25,25.25,0,0,0,73,92.58a26,26,0,0,0,3.46.22c.72,0,1.44,0,2.16-.07V88.12h0A14.25,14.25,0,0,1,67.56,83,14,14,0,0,1,65,78.83a14.55,14.55,0,0,1-.86-5A15.13,15.13,0,0,1,67,65.15a14.35,14.35,0,0,1,11.66-5.76h0v-.14a1.24,1.24,0,0,1-.5-.07h.5A19.6,19.6,0,0,0,76.49,59a17.94,17.94,0,0,0-7.63,1.73A16.86,16.86,0,0,0,59,76a16.64,16.64,0,0,0,4.9,11.74c-7.42-2.31-14.83-.94-18.5,4.17-4.25,5.91-2.16,15,4.6,21.89-5.4-5.47-7-13-3.38-18,4.18-5.83,13.82-6,21.53-.65,7.63,5.55,10.44,14.76,6.26,20.6a10,10,0,0,1-1.94,2c-3.24,3.75-9.29,4.25-15,1.59,7.85,4,16.27,3.88,21.17-.51Z"/></g></g></svg>