<svg xmlns="http://www.w3.org/2000/svg" viewBox="0 0 206.16 234.9"><defs><style>.cls-1{fill:#fff;}.cls-1,.cls-10,.cls-11,.cls-12,.cls-13,.cls-14,.cls-15,.cls-16,.cls-17,.cls-18,.cls-19,.cls-2,.cls-20,.cls-21,.cls-22,.cls-23,.cls-24,.cls-25,.cls-26,.cls-27,.cls-28,.cls-29,.cls-3,.cls-30,.cls-31,.cls-32,.cls-33,.cls-34,.cls-35,.cls-36,.cls-37,.cls-38,.cls-39,.cls-4,.cls-40,.cls-41,.cls-42,.cls-43,.cls-44,.cls-45,.cls-46,.cls-47,.cls-48,.cls-49,.cls-50,.cls-51,.cls-52,.cls-53,.cls-54,.cls-55,.cls-56,.cls-57,.cls-58,.cls-59,.cls-6,.cls-60,.cls-61,.cls-62,.cls-63,.cls-64,.cls-65,.cls-66,.cls-67,.cls-68,.cls-69,.cls-7,.cls-70,.cls-71,.cls-72,.cls-73,.cls-8,.cls-9{fill-rule:evenodd;}.cls-2{fill:#0663a5;}.cls-3{fill:#2791d0;}.cls-4,.cls-5{fill:#003549;}.cls-6{fill:#4aace1;}.cls-7{fill:#51afe2;}.cls-8{fill:#5bb2e4;}.cls-9{fill:#61b5e5;}.cls-10{fill:#68b6e5;}.cls-11{fill:#6db9e7;}.cls-12{fill:#73bce8;}.cls-13{fill:#7cbee9;}.cls-14{fill:#81c1ea;}.cls-15{fill:#86c4eb;}.cls-16{fill:#8cc6ec;}.cls-17{fill:#94caed;}.cls-18{fill:#99cdef;}.cls-19{fill:#9fceef;}.cls-20{fill:#a4d2f1;}.cls-21{fill:#acd6f2;}.cls-22{fill:#a7d4f2;}.cls-23{fill:#a1d1f0;}.cls-24{fill:#9cceef;}.cls-25{fill:#97ccef;}.cls-26{fill:#91c9ed;}.cls-27{fill:#76bce8;}.cls-28{fill:#70bae7;}.cls-29{fill:#6ab8e7;}.cls-30{fill:#64b5e5;}.cls-31{fill:#5eb4e5;}.cls-32{fill:#57b1e4;}.cls-33{fill:#06415a;}.cls-34{fill:#0d435b;}.cls-35{fill:#0b445e;}.cls-36{fill:#0f4660;}.cls-37{fill:#0e4863;}.cls-38{fill:#0e4864;}.cls-39{fill:#114c67;}.cls-40{fill:#164c69;}.cls-41{fill:#154e6a;}.cls-42{fill:#13506e;}.cls-43{fill:#175270;}.cls-44{fill:#155473;}.cls-45{fill:#1b5574;}.cls-46{fill:#195778;}.cls-47{fill:#1c597a;}.cls-48{fill:#1a5a7c;}.cls-49{fill:#1e5c7e;}.cls-50{fill:#1c5e81;}.cls-51{fill:#1c5f83;}.cls-52{fill:#206186;}.cls-53{fill:#236489;}.cls-54{fill:#21668c;}.cls-55{fill:#20688f;}.cls-56{fill:#236a92;}.cls-57{fill:#216c95;}.cls-58{fill:#216c96;}.cls-59{fill:#246f99;}.cls-60{fill:#27719d;}.cls-61{fill:#2573a0;}.cls-62{fill:#2375a3;}.cls-63{fill:#2678a6;}.cls-64{fill:#2579a9;}.cls-65{fill:#287cac;}.cls-66{fill:#267eb0;}.cls-67{fill:#2980b3;}.cls-68{fill:#2683b7;}.cls-69{fill:#2984b9;}.cls-70{fill:#2885bc;}.cls-71{fill:#2588c0;}.cls-72{fill:#288bc4;}.cls-73{fill:#258dc9;}</style></defs><title>Eszköz 1</title><g id="Réteg_2" data-name="Réteg 2"><g id="Layer_1" data-name="Layer 1"><path class="cls-1" d="M27.83,170.39a205.3,205.3,0,0,0,13.11,16.27,270.19,270.19,0,0,0,24.48,22.82,278.67,278.67,0,0,0,23.47,16.64c4.9,3.09,9.86,6,14.83,8.78a250.36,250.36,0,0,0,33.41-22l3.53-2.88a230.61,230.61,0,0,0,32.25-33.7l2.81-3.81,2.74-3.89,2.66-4,2.52-4.11,2.45-4.1,2.3-4.18,2.24-4.24,2.08-4.4,1.95-4.39,1.8-4.46A163.64,163.64,0,0,0,203,113.36a142,142,0,0,0,2.81-18.28A145.84,145.84,0,0,0,206,77.36a178.09,178.09,0,0,0-4-27,314.8,314.8,0,0,0-9.14-31.17A242.78,242.78,0,0,0,155,5.65,211.75,211.75,0,0,0,113.44.11,238.66,238.66,0,0,0,56.71,5.22a314.56,314.56,0,0,0-30.46,8.5l-2,5.54L12.5,22.79l-2,5.33L8.9,32.65,7.46,37.19l-1.3,4.46a168.68,168.68,0,0,0-6,52.63A150.72,150.72,0,0,0,14,147,165.74,165.74,0,0,0,27.83,170.39Z"/><path class="cls-1" d="M18.55,120.92c10.29,39,33.84,75.53,89.64,106.42,55-39.24,104-105.84,66-210-16.34-5-41.33-11.24-66.74-11.16C76.94,6.23,53,12,26.75,21.92,15,49.21,9.26,86.08,18.55,120.92Z"/><path class="cls-2" d="M25.31,163.62a164.49,164.49,0,0,0,17.57,22.54l8.71-6.63a144.48,144.48,0,0,1-16.05-23.4Z"/><path class="cls-3" d="M204.45,81.32c-.65-20.66-6-40.68-13-60.84-30-13.6-53.93-18.36-83.59-18.79C80,1.26,53.61,6.37,27.55,15.08L25.6,20.63l-11.81,3.6C-5,72.4-1.76,118,21.57,157.57l10.58-7.85A157.93,157.93,0,0,1,21.5,120.56C12.57,86.65,18,50.65,29.42,24,54.69,14.36,77.8,8.75,107.25,8.68c24.55-.08,48.67,6,64.44,10.87,8.71,24.26,12.67,46.37,12.89,66.6Z"/><path class="cls-2" d="M200.2,117.61c1.08-4.1,2-8.21,2.67-12.45a115.41,115.41,0,0,0,1.51-15.56l-19.87,4.54a152,152,0,0,1-3.75,28.66Z"/><path class="cls-4" d="M103.72,233C142.24,212.29,182.56,174.06,198,125l-19.29,5.54c-12,41.33-40.4,71.93-70.78,93.89C86.15,212.22,69.38,199,56.56,185.15l-8.49,6.48C63.11,206.82,81.76,220.72,103.72,233Z"/><path class="cls-4" d="M49.72,29.2a3.46,3.46,0,1,0-6.91,0v23a3.46,3.46,0,1,0,6.91,0Z"/><path class="cls-4" d="M88.6,48.56l4.75,5.91a3.54,3.54,0,0,0,6.34-1.8v-.43a3.49,3.49,0,0,0-1-2.24l-6.12-6.69c10-1.73,8.64-17.57-2.23-17.57H88.6V32h.58c4.25,0,4.61,6.63.14,6.63H88.6ZM82.12,25.74c-2.09,0-4.25.94-4.25,4V52.16a3.43,3.43,0,1,0,6.84,0V43.74l3.89,4.82V38.63H84.71V32H88.6V25.74Z"/><path class="cls-4" d="M115,49.64h5.47l1.15,3.68A3.45,3.45,0,1,0,128.13,51l-8.5-22.61a4.86,4.86,0,0,0-4.6-3.24v7.71h0l3.45,10.65H115ZM110.42,28.4,101.92,51a3.42,3.42,0,1,0,6.41,2.31l1.22-3.68H115V43.52h-3.46L115,32.87h0V25.16A4.46,4.46,0,0,0,110.42,28.4Z"/><path class="cls-4" d="M135.55,55.55h9.14a3.21,3.21,0,1,0,0-6.41h-7.2V43.52H144a3.1,3.1,0,1,0,0-6.19h-6.55V32.08h6.91a3.22,3.22,0,1,0,0-6.41h-9.14c-2.45,0-4.68.43-4.68,3.74V52.09C130.58,55.33,133.17,55.55,135.55,55.55Z"/><path class="cls-4" d="M155.71,55.55h9.14a3.22,3.22,0,1,0,0-6.41h-7.2V28.33c0-3.89-6.91-3.74-6.91,0V52.09C150.74,55.33,153.33,55.55,155.71,55.55Z"/><path class="cls-4" d="M58.15,41.65c3.38,1.73,10.15,1.59,9.07,5.91-.72,2.8-6,1.94-9,.57-4.47-1.94-6.12,3.75-4.25,5.11,8.93,6.34,20.3,2,20.74-6.26.36-5.33-3.39-8.71-8-9.65C60,36,60.59,33.88,61.6,32.44c.72-.94,3.31-1.23,4.68-.58,3.31,1.58,5.62,1.3,6.34-.94,1.37-5.11-5.26-6.26-10.37-5.61a9.64,9.64,0,0,0-8.06,6.19C53,34.6,53.47,39.64,58.15,41.65Z"/><polygon class="cls-5" points="46.55 60.66 46.55 59.8 42.88 59.8 42.88 67.36 43.82 67.36 43.82 64.19 46.27 64.19 46.27 63.32 43.82 63.32 43.82 60.66 46.55 60.66"/><rect class="cls-5" x="89.18" y="59.29" width="0.86" height="8.06"/><path class="cls-5" d="M116.61,62.68a2.06,2.06,0,0,0-1.8-.94,1.82,1.82,0,0,0-2,1.58c0,1.73,3.17,1.3,3.17,2.52,0,.51-.57.87-1.22.87a1.27,1.27,0,0,1-1.08-.43c-.43-.72-1.59-.36-.94.43a2.84,2.84,0,0,0,2,.93,1.93,1.93,0,0,0,2.16-1.8,1.7,1.7,0,0,0-1.44-1.65c-.79-.29-1.59-.51-1.59-1,0-.29.44-.58.87-.58a1.05,1.05,0,0,1,.93.44C116,63.47,116.75,63,116.61,62.68Z"/><path class="cls-5" d="M135.11,61.88h-.93v5.48h.93V61.88Zm-.5-2.08a.64.64,0,0,0-.65.64.65.65,0,1,0,1.3,0A.64.64,0,0,0,134.61,59.8Z"/><path class="cls-5" d="M143,61.88h-.86v.8h0a2.12,2.12,0,0,0-1.51-.94v.86c.93,0,1.51.87,1.51,2s-.51,2-1.51,2v.86a1.86,1.86,0,0,0,1.51-.86h0v.72H143Zm-2.37-.14h-.15a2.93,2.93,0,0,0,0,5.76h.15v-.86h0c-.94,0-1.44-1-1.44-2.09s.57-1.95,1.44-1.95h0Z"/><polygon class="cls-5" points="147.28 62.6 148.15 62.6 148.15 61.74 147.28 61.74 147.28 60.23 146.42 60.23 146.42 61.74 145.63 61.74 145.63 62.6 146.42 62.6 146.42 67.36 147.28 67.36 147.28 62.6"/><path class="cls-5" d="M151.53,61.88h-.86v5.48h.86V61.88Zm-.43-2.16a.65.65,0,1,0,.65.65A.65.65,0,0,0,151.1,59.72Z"/><path class="cls-5" d="M157.22,67.5a2.64,2.64,0,0,0,2.45-2.88,2.69,2.69,0,0,0-2.45-2.88v.86c.86,0,1.51.94,1.51,2s-.65,2-1.51,2Zm0-5.76a2.91,2.91,0,0,0,0,5.76v-.86c-.94,0-1.59-.87-1.59-2a1.82,1.82,0,0,1,1.59-2Z"/><path class="cls-5" d="M163.48,61.88h-.93v5.48h.93v-2.6c0-.93.07-2.16,1.3-2.16s1.15.8,1.15,1.66v3.1h.86V64.12c0-1.3-.28-2.38-1.8-2.38a1.8,1.8,0,0,0-1.51.79h0Z"/><path class="cls-5" d="M131.3,62.1a2.9,2.9,0,0,0-1.3-.36,2.84,2.84,0,0,0-2.88,2.88,2.79,2.79,0,0,0,2.81,2.88,3.27,3.27,0,0,0,1.51-.36c.36-.29,0-1-.43-.79a2.17,2.17,0,0,1-1.15.29,1.89,1.89,0,0,1-1.8-2,1.94,1.94,0,0,1,1.87-2,2.15,2.15,0,0,1,1,.29C131.3,63,131.73,62.32,131.3,62.1Z"/><path class="cls-5" d="M122,67.5a2.64,2.64,0,0,0,2.45-2.88A2.69,2.69,0,0,0,122,61.74v.86c.94,0,1.51.94,1.51,2s-.57,2-1.51,2Zm0-5.76a2.69,2.69,0,0,0-2.45,2.88A2.64,2.64,0,0,0,122,67.5v-.86c-.94,0-1.58-.87-1.58-2a1.82,1.82,0,0,1,1.58-2Z"/><path class="cls-5" d="M109.91,62.68a2,2,0,0,0-1.8-.94,1.74,1.74,0,0,0-1.94,1.58c0,1.73,3.17,1.3,3.17,2.52,0,.51-.65.87-1.3.87a1.3,1.3,0,0,1-1.08-.43c-.43-.72-1.58-.36-.93.43a2.81,2.81,0,0,0,2,.93,1.93,1.93,0,0,0,2.16-1.8,1.7,1.7,0,0,0-1.44-1.65c-.79-.29-1.51-.51-1.51-1,0-.29.36-.58.79-.58A1,1,0,0,1,109,63C109.34,63.47,110.06,63,109.91,62.68Z"/><path class="cls-5" d="M100.41,65.92h1.8l.65,1.65h1l-2.81-7.34a.74.74,0,0,0-.65-.51v1.37l1.51,4h-1.51Zm-.65-5.62-2.88,7.27h.94l.65-1.65h1.94v-.87H98.83l1.58-4V59.72A.78.78,0,0,0,99.76,60.3Z"/><rect class="cls-5" x="85" y="59.29" width="0.94" height="8.06"/><path class="cls-5" d="M81.76,61.88H81v.8h0a2.44,2.44,0,0,0-1.51-.94v.86c.93,0,1.44.87,1.44,2s-.51,2-1.44,2v.86A2.09,2.09,0,0,0,81,66.64h0v.72h.79Zm-2.3-.14h-.22c-1.44,0-2.3,1.37-2.3,2.88s.86,2.88,2.3,2.88h.22v-.86h0c-.94,0-1.44-1-1.44-2.09s.5-1.95,1.44-1.95h0Z"/><path class="cls-5" d="M71.54,61.74h.14a2.93,2.93,0,0,1,0,5.76h-.14v-.86h0c.93,0,1.44-1,1.44-2.09s-.58-1.95-1.44-1.95h0Zm-2.38-2.3H70v3.24h0a2.1,2.1,0,0,1,1.51-.94v.86c-.94,0-1.51.87-1.51,2s.5,2,1.51,2v.86A1.85,1.85,0,0,1,70,66.64h0v.72h-.87Z"/><polygon class="cls-5" points="65.64 62.6 66.43 62.6 66.43 61.74 65.64 61.74 65.64 60.23 64.7 60.23 64.7 61.74 63.98 61.74 63.98 62.6 64.7 62.6 64.7 67.36 65.64 67.36 65.64 62.6"/><path class="cls-5" d="M59.15,67.5a2.64,2.64,0,0,0,2.45-2.88,2.69,2.69,0,0,0-2.45-2.88v.86a1.82,1.82,0,0,1,1.59,2c0,1.15-.65,2-1.59,2Zm0-5.76a2.69,2.69,0,0,0-2.44,2.88,2.64,2.64,0,0,0,2.44,2.88v-.86c-.86,0-1.51-.87-1.51-2s.65-2,1.51-2Z"/><path class="cls-5" d="M51.38,67.5a2.69,2.69,0,0,0,2.52-2.88,2.74,2.74,0,0,0-2.52-2.88v.86a1.82,1.82,0,0,1,1.58,2c0,1.15-.65,2-1.58,2Zm0-5.76a2.69,2.69,0,0,0-2.45,2.88,2.64,2.64,0,0,0,2.45,2.88v-.86c-.87,0-1.51-.87-1.51-2s.64-2,1.51-2Z"/><polygon class="cls-4" points="68.8 73.04 68.8 75.64 68.08 76 68.08 73.04 68.8 73.04"/><polygon class="cls-4" points="157.51 75.13 157.51 78.08 156.79 78.08 156.79 75.42 157.51 75.13"/><path class="cls-4" d="M156.64,73.12H159a1.68,1.68,0,0,1,1.87,1.65v3.31h-.72V74.84c-.07-.72-.43-1.15-1.15-1.15h-2.38Z"/><path class="cls-4" d="M137.2,73h2.09c1.08.08,1.8.65,1.8,1.73v3.31h-.72V74.84a1,1,0,0,0-1.08-1.15h-1.58V78H137V73Z"/><path class="cls-4" d="M121.36,73.12h2.31a1.59,1.59,0,0,1,1.8,1.65v3.31h-.65V74.84a1.14,1.14,0,0,0-1.15-1.15H122V77l-.07.22-.07.22-.08.28-.21.22-.29.14-.29.08h-.57v-.72h.5l.14-.08h.08v-.07l.07-.07.07-.14v-4Z"/><rect class="cls-5" x="127.84" y="73.04" width="0.72" height="5.04"/><path class="cls-4" d="M105.74,77.36h1.94l.15-.07h.07l.14-.07h.07l.15-.07.07-.15.07-.07.07-.14.08-.07.07-.15.07-.21.07-.15v-.14l.07-.22V75l-.07-.22v-.14c-.21-.58-.5-.94-1.15-.94h-1.8V73h1.87a1.92,1.92,0,0,1,1.8,1.59v.21l.07.22v.86l-.07.29-.07.22v.14l-.07.22-.15.21-.07.22-.14.14-.15.15-.14.14-.14.15-.22.14-.22.07h-2.37Z"/><polygon class="cls-4" points="102.86 73.62 102.86 78.08 102.21 78.08 102.21 73.62 99.69 73.62 99.69 73.04 103.72 73.04 103.72 73.62 102.86 73.62"/><rect class="cls-5" x="96.95" y="73.12" width="0.72" height="4.97"/><path class="cls-4" d="M86.44,73h1.3l.14.07H88l.14.08.14.07.15.07.14.14.07.15.08.14.07.15.07.14v.14l.07.15v3.81h-.72v-.86h0l-.21.14-.15.15-.14.14-.22.15a2.3,2.3,0,0,1-1.37.28v-.72a1.64,1.64,0,0,0,1.3-.36l.14-.14.15-.14.07-.08L88,76.5l.08-.14.07-.08.07-.14v-.07l.07-.22V74.77c0-.57-.07-1.15-.72-1.15H86.44Z"/><path class="cls-4" d="M71.18,73.12h1.94a1.77,1.77,0,0,1,1.73,1.29l.07.15v.21L75,75v1l-.07.21-.07.22-.07.21-.07.15-.15.21-.14.22-.07.14h.72v.72H71.18v-.72h2l.15-.07.14-.14.15-.15.14-.07.07-.14.15-.15.07-.14.07-.14.07-.15.07-.21v-.29l.08-.15v-.14l-.08-.14v-.36l-.07-.15v-.14l-.07-.15-.07-.07a1.08,1.08,0,0,0-.94-.72H71.18Z"/><path class="cls-4" d="M61.53,73.12V76l.07.07h0l.15.07h.5l.14-.07.08-.07.14-.08.07-.07.07-.14.08-.07.07-.08v-.14l.07-.07V73.12h.72v2.16l-.07.21v.15l-.07.21-.08.15-.14.21-.14.15L63,76.5l-.14.07-.22.15-.21.07-.22.07h-.36L62,77l.15.08.07.07.14.07.15.07.14.07.22.08h1l.15-.08.14-.07.15-.07.14-.07.14-.07.08-.08.14-.14.07-.07.07-.15L65,76.5v-.14l.07-.22v-3h.72v3.16l-.07.22-.08.22-.07.21-.14.22-.15.21-.14.15-.14.14-.22.15-.14.07-.22.07-.22.07-.21.07-.22.08H62.9l-.22-.08L62.47,78l-.22-.07L62,77.87l-.21-.07-.15-.15-.21-.14-.15-.15A2.41,2.41,0,0,1,60.88,76V73.12Z"/><path class="cls-4" d="M54.91,73h1.94L57,73h.22l.14.08.15.07.21.07.15.07.07.15.14.14.15.14.07.15.07.14.07.15v.21l.08.22v3.45h-.72V74.84a1.12,1.12,0,0,0-1.16-1.22H54.91Z"/><polygon class="cls-4" points="49.22 73.12 51.38 75.71 51.45 75.64 51.52 75.56 51.59 75.49 51.74 75.42 51.74 75.35 51.81 75.28 51.88 75.2 51.95 75.06 51.95 74.99 52.03 74.92 52.03 74.84 52.03 74.7 52.03 74.63 52.03 74.56 52.03 73.12 52.75 73.12 52.75 74.56 52.75 74.7 52.75 74.84 52.75 74.99 52.67 75.13 52.6 75.28 52.6 75.42 52.53 75.56 52.39 75.64 52.31 75.78 52.24 75.92 52.1 76 51.95 76.14 51.81 76.21 51.81 76.21 53.32 78.01 52.39 78.01 51.16 76.57 50.16 75.35 50.08 75.35 50.01 75.35 49.87 75.42 49.8 75.49 49.72 75.56 49.65 75.64 49.58 75.71 49.51 75.78 49.44 75.85 49.44 76 49.36 76.07 49.36 76.14 49.36 76.21 49.29 76.36 49.29 76.43 49.29 76.5 49.29 78.01 48.57 78.01 48.57 76.5 48.57 76.36 48.57 76.21 48.64 76.07 48.64 75.92 48.72 75.78 48.79 75.64 48.86 75.49 48.93 75.42 49 75.28 49.15 75.13 49.22 75.06 49.36 74.92 49.51 74.84 49.65 74.77 49.65 74.77 48.28 73.12 49.22 73.12"/><path class="cls-4" d="M43.31,77.36l.15-.07h.21l.22-.07.22-.07.14-.07.22-.15.21-.14.15-.15c.72-.43,1.08-2.88,0-3H42.59v-1.8h.72V73h1.3a1.76,1.76,0,0,1,1.44.51,3.45,3.45,0,0,1-.14,3l-.36.5-.22.22-.22.14-.28.22-.22.07-.29.15-.21.07-.29.07L43.6,78l-.29.07Z"/><path class="cls-4" d="M81.11,77.36l.15-.07h.21l.22-.07.14-.07.22-.07.22-.15.21-.14.15-.15c.64-.43,1-2.88-.08-3H80.39v-1.8h.72V73h1.3a1.55,1.55,0,0,1,1.37.51,3.23,3.23,0,0,1-.07,3l-.36.5-.22.22-.29.14-.21.22-.22.07-.29.15-.21.07-.29.07L81.4,78l-.29.07Z"/><path class="cls-4" d="M90.91,73h1.94l.22.07h.14l.14.08.22.07.14.07.15.07.14.15.07.14.15.14.07.15.07.14.07.15.08.21v3.67h-.72V74.84a1.12,1.12,0,0,0-1.16-1.22H90.91Z"/><path class="cls-4" d="M112.36,77.36l.22-.07h.14l.22-.07.21-.07.22-.07.14-.15.22-.14.22-.15c.64-.43,1-2.88-.08-3h-2.23v-1.8h.72V73h1.37a1.63,1.63,0,0,1,1.37.51,3.23,3.23,0,0,1-.07,3l-.44.5-.21.22-.22.14-.21.22-.29.07-.22.15-.29.07-.21.07-.22.07-.36.07Z"/><polygon class="cls-4" points="133.89 73.62 133.89 78.08 133.17 78.08 133.17 73.62 130.65 73.62 130.65 73.04 134.68 73.04 134.68 73.62 133.89 73.62"/><polygon class="cls-4" points="144.04 73.12 146.2 75.71 146.28 75.64 146.35 75.56 146.42 75.49 146.56 75.42 146.56 75.35 146.63 75.28 146.71 75.2 146.78 75.06 146.78 74.99 146.85 74.92 146.85 74.84 146.85 74.7 146.85 74.63 146.85 74.56 146.85 73.12 147.57 73.12 147.57 74.56 147.57 74.7 147.57 74.84 147.57 74.99 147.5 75.13 147.43 75.28 147.43 75.42 147.35 75.56 147.21 75.64 147.14 75.78 147.07 75.92 146.92 76 146.78 76.14 146.63 76.21 146.63 76.21 148.15 78.01 147.21 78.01 145.99 76.57 144.98 75.35 144.91 75.35 144.84 75.35 144.69 75.42 144.62 75.49 144.55 75.56 144.47 75.64 144.4 75.71 144.33 75.78 144.26 75.85 144.26 76 144.19 76.07 144.19 76.14 144.19 76.21 144.12 76.36 144.12 76.43 144.12 76.5 144.12 78.01 143.4 78.01 143.4 76.5 143.4 76.36 143.4 76.21 143.47 76.07 143.47 75.92 143.54 75.78 143.61 75.64 143.68 75.49 143.75 75.42 143.83 75.28 143.97 75.13 144.04 75.06 144.19 74.92 144.33 74.84 144.47 74.77 144.47 74.77 143.11 73.12 144.04 73.12"/><path class="cls-4" d="M150.31,73.12h2.3a1.68,1.68,0,0,1,1.87,1.65v3.31h-.72V74.84c-.07-.72-.43-1.15-1.15-1.15H151v2.88l-.08.15v.5l-.07.22-.14.28-.22.22-.21.14-.36.08h-.51v-.72h.43l.15-.08h.07l.07-.07.07-.07v-.36l.08-.14v-3.6Z"/><path class="cls-4" d="M163.05,73.12h2.3a1.69,1.69,0,0,1,1.88,1.65v3.31h-.72V74.84a1.06,1.06,0,0,0-1.16-1.15h-2.3Z"/><polygon class="cls-4" points="163.91 75.13 163.91 78.08 163.19 78.08 163.19 75.42 163.91 75.13"/><path class="cls-6" d="M146.42,108.54l-3.53-5h0l4.39.72,1.08,1.15C148.65,106,147.93,107.1,146.42,108.54Z"/><path class="cls-7" d="M145.84,103.93l2.09,2.95a25.5,25.5,0,0,1-3.17,3.1l-3.89-5.54,2-.94Z"/><path class="cls-8" d="M142.89,103.5l3.53,5a42.85,42.85,0,0,1-3.39,2.81l-4.24-6Z"/><path class="cls-9" d="M140.87,104.44l3.89,5.54c-1,.86-2.16,1.73-3.45,2.66l-4.47-6.33.43-.29Z"/><path class="cls-10" d="M138.79,105.3l4.24,6c-1,.79-2.23,1.65-3.52,2.59L135,107.46c.79-.5,1.58-1,2.3-1.44Z"/><path class="cls-11" d="M136.84,106.31l4.47,6.33c-1.08.87-2.31,1.66-3.6,2.52l-4.54-6.48Q135.12,107.39,136.84,106.31Z"/><path class="cls-12" d="M135,107.46l4.54,6.48c-1.08.79-2.31,1.66-3.6,2.45l-4.61-6.55C132.59,109,133.82,108.25,135,107.46Z"/><path class="cls-13" d="M133.17,108.68l4.54,6.48c-1.16.8-2.38,1.66-3.6,2.45L129.43,111C130.72,110.2,132,109.4,133.17,108.68Z"/><path class="cls-14" d="M131.3,109.84l4.61,6.55c-1.16.79-2.38,1.58-3.68,2.45l-4.68-6.7C128.85,111.35,130.15,110.63,131.3,109.84Z"/><path class="cls-15" d="M129.43,111l4.68,6.62c-1.23.79-2.45,1.59-3.75,2.31l-4.68-6.63C127,112.5,128.27,111.78,129.43,111Z"/><path class="cls-16" d="M127.55,112.14l4.68,6.7c-1.22.72-2.44,1.44-3.74,2.23l-4.68-6.63C125.11,113.65,126.33,112.93,127.55,112.14Z"/><path class="cls-17" d="M125.68,113.29l4.68,6.63c-1.15.72-2.45,1.51-3.74,2.3l-4.68-6.7C123.23,114.8,124.46,114,125.68,113.29Z"/><path class="cls-18" d="M123.81,114.44l4.68,6.63c-1.15.72-2.45,1.51-3.74,2.23l-4.68-6.62C121.29,115.88,122.59,115.16,123.81,114.44Z"/><path class="cls-19" d="M121.94,115.52l4.68,6.7c-1.23.72-2.45,1.51-3.75,2.23l-4.75-6.69C119.42,117,120.71,116.32,121.94,115.52Z"/><path class="cls-20" d="M120.07,116.68l4.68,6.62c-1.23.79-2.45,1.51-3.75,2.23l-4.75-6.69C117.47,118.12,118.77,117.4,120.07,116.68Z"/><path class="cls-21" d="M118.12,117.76l4.75,6.69-3.74,2.23-4.82-6.84C115.6,119.2,116.9,118.48,118.12,117.76Z"/><path class="cls-21" d="M116.25,118.84l4.75,6.69c-1.22.79-2.52,1.51-3.81,2.23l-4.76-6.84C113.66,120.2,115,119.56,116.25,118.84Z"/><path class="cls-21" d="M114.31,119.84l4.82,6.84c-1.3.72-2.59,1.44-3.82,2.16L110.49,122C111.71,121.28,113,120.56,114.31,119.84Z"/><path class="cls-21" d="M112.43,120.92l4.76,6.84c-1.3.72-2.52,1.44-3.82,2.16L108.55,123C109.77,122.36,111.07,121.64,112.43,120.92Z"/><path class="cls-21" d="M110.49,122l4.82,6.84L111.43,131l-4.83-7C107.83,123.37,109.12,122.72,110.49,122Z"/><path class="cls-21" d="M108.55,123l4.82,6.91c-1.3.72-2.59,1.44-3.89,2.09l-4.89-7C105.88,124.45,107.18,123.73,108.55,123Z"/><path class="cls-21" d="M106.6,124l4.83,7c-1.3.65-2.6,1.37-3.89,2.09l-4.9-7C103.87,125.46,105.16,124.74,106.6,124Z"/><path class="cls-21" d="M104.59,125l4.89,7c-1.29.72-2.59,1.44-3.89,2.09L100.7,127Z"/><path class="cls-21" d="M102.64,126l4.9,7c-1.3.72-2.59,1.37-3.89,2l-5-7.2,1.66-.79C101.06,126.83,101.78,126.47,102.64,126Z"/><path class="cls-21" d="M100.7,127l4.89,7.13c-1.29.72-2.59,1.37-3.88,2l-5-7.28,3.67-1.72Z"/><path class="cls-21" d="M98.68,127.91l5,7.2c-1.3.72-2.52,1.37-3.82,2l-5.18-7.34Z"/><path class="cls-21" d="M96.67,128.84l5,7.28c-1.23.72-2.6,1.36-3.89,2l-5.19-7.41Z"/><path class="cls-21" d="M94.65,129.78l5.18,7.34c-1.36.72-2.66,1.37-4,2l-5.18-7.42Z"/><path class="cls-21" d="M92.63,130.72l5.19,7.41c-1.37.72-2.67,1.37-4,2l-5.19-7.42Z"/><path class="cls-21" d="M90.69,131.72l5.18,7.42c-1.36.65-2.73,1.3-4,1.87l-5.18-7.41Z"/><path class="cls-21" d="M88.67,132.66l5.19,7.42c-1.23.57-2.45,1.15-3.6,1.65l-.43.22-5.26-7.49,1.15-.43Z"/><path class="cls-21" d="M86.66,133.6,91.84,141a13.82,13.82,0,0,1-1.58.72c-.87.36-1.73.72-2.52,1l-5.26-7.49c1.08-.36,2.16-.79,3.24-1.22Z"/><path class="cls-22" d="M84.57,134.46,89.83,142c-1.44.57-2.81,1.08-4.25,1.58L80.32,136C81.76,135.47,83.2,135,84.57,134.46Z"/><path class="cls-23" d="M82.48,135.25l5.26,7.49c-1.44.58-2.88,1.08-4.32,1.51l-5.33-7.63C79.53,136.19,81,135.76,82.48,135.25Z"/><path class="cls-24" d="M80.32,136l5.26,7.56c-1.44.51-2.88,1-4.32,1.44l-5.47-7.77C77.3,136.84,78.81,136.4,80.32,136Z"/><path class="cls-25" d="M78.09,136.62l5.33,7.63c-1.44.51-2.88,1-4.32,1.44l-5.62-8C75,137.34,76.51,137,78.09,136.62Z"/><path class="cls-26" d="M75.79,137.2,81.26,145c-1.44.51-3,.94-4.39,1.37l-5.76-8.21C72.62,137.84,74.2,137.56,75.79,137.2Z"/><path class="cls-16" d="M73.48,137.7l5.62,8c-1.51.43-3,.87-4.54,1.23l-5.9-8.5C70.24,138.28,71.83,138,73.48,137.7Z"/><path class="cls-15" d="M71.11,138.13l5.76,8.21c-1.59.36-3.1.79-4.54,1.08l-6.12-8.71C67.72,138.56,69.38,138.42,71.11,138.13Z"/><path class="cls-14" d="M68.66,138.42l5.9,8.5c-1.51.36-3.09.72-4.61,1l-6.33-9.14A31.67,31.67,0,0,0,68.66,138.42Z"/><path class="cls-13" d="M66.21,138.71l6.12,8.71c-1.66.36-3.24.65-4.75.86l-6.77-9.64A27.2,27.2,0,0,0,66.21,138.71Z"/><path class="cls-27" d="M63.62,138.78,70,147.92c-1.65.29-3.31.51-4.82.65L57.5,137.7C58.79,138.49,61,138.78,63.62,138.78Z"/><path class="cls-28" d="M60.81,138.64l6.77,9.64c-1.73.22-3.39.44-5,.51L56,139.36l1.51-1.66h0A8,8,0,0,0,60.81,138.64Z"/><path class="cls-29" d="M57.5,137.7l7.63,10.87a32.29,32.29,0,0,1-5.18.22L54.47,141Z"/><path class="cls-30" d="M56,139.36l6.55,9.43a43,43,0,0,1-5.4-.15l-4.18-6Z"/><path class="cls-31" d="M54.47,141,60,148.79a25.17,25.17,0,0,1-5.91-.72l-2.59-3.75Z"/><path class="cls-32" d="M53,142.67l4.18,6a23.41,23.41,0,0,1-4.32-.93,2.75,2.75,0,0,1-1.44-1.23V144.4Z"/><path class="cls-7" d="M51.45,144.32,54,148.07c-.43-.15-.86-.22-1.22-.36a2.75,2.75,0,0,1-1.44-1.23V144.4Z"/><path class="cls-6" d="M156,141.08l-3.16-4.53.21-.22,4.18.65.65,1.51C158.15,138.92,157.43,139.79,156,141.08Z"/><path class="cls-7" d="M155.42,136.69l2,2.95a20,20,0,0,1-3,2.81l-3.17-4.53,1.8-1.59Z"/><path class="cls-8" d="M152.83,136.55l3.16,4.53c-.86.8-1.94,1.66-3.24,2.67l-3.16-4.54.57-.36Z"/><path class="cls-9" d="M151.24,137.92l3.17,4.53L151.1,145l-3.24-4.68c.79-.43,1.51-.93,2.3-1.44Z"/><path class="cls-10" d="M149.59,139.21l3.16,4.54c-1,.72-2.08,1.51-3.31,2.37l-3.31-4.68C147.28,140.72,148.43,139.93,149.59,139.21Z"/><path class="cls-11" d="M147.86,140.29,151.1,145c-1,.72-2.16,1.51-3.39,2.38l-3.38-4.83C145.48,141.8,146.63,141.08,147.86,140.29Z"/><path class="cls-12" d="M146.13,141.44l3.31,4.68c-1.08.8-2.23,1.59-3.45,2.38l-3.39-4.9C143.75,142.88,144.91,142.16,146.13,141.44Z"/><path class="cls-13" d="M144.33,142.52l3.38,4.83c-1.08.72-2.23,1.51-3.45,2.3l-3.46-5C142,144,143.18,143.24,144.33,142.52Z"/><path class="cls-14" d="M142.6,143.6l3.39,4.9c-1.08.72-2.24,1.51-3.46,2.23l-3.53-5C140.23,145,141.38,144.32,142.6,143.6Z"/><path class="cls-15" d="M140.8,144.68l3.46,5c-1.08.72-2.23,1.44-3.46,2.23l-3.53-5.11C138.43,146.12,139.65,145.4,140.8,144.68Z"/><path class="cls-16" d="M139,145.76l3.53,5c-1.08.79-2.3,1.51-3.46,2.23l-3.6-5.11C136.63,147.13,137.85,146.48,139,145.76Z"/><path class="cls-17" d="M137.27,146.77l3.53,5.11c-1.15.72-2.3,1.44-3.53,2.24l-3.6-5.26C134.83,148.21,136.05,147.49,137.27,146.77Z"/><path class="cls-18" d="M135.47,147.85l3.6,5.11c-1.15.72-2.3,1.44-3.52,2.24l-3.75-5.33C133,149.22,134.25,148.5,135.47,147.85Z"/><path class="cls-19" d="M133.67,148.86l3.6,5.26c-1.15.72-2.3,1.44-3.52,2.16l-3.75-5.4C131.23,150.23,132.45,149.58,133.67,148.86Z"/><path class="cls-20" d="M131.8,149.87l3.75,5.33c-1.16.72-2.38,1.36-3.53,2.08l-3.82-5.4C129.43,151.24,130.58,150.52,131.8,149.87Z"/><path class="cls-21" d="M130,150.88l3.75,5.4c-1.16.64-2.31,1.36-3.53,2.08l-3.89-5.54Z"/><path class="cls-21" d="M128.2,151.88l3.82,5.4c-1.23.72-2.38,1.44-3.6,2.16l-4-5.61C125.68,153.18,127,152.53,128.2,151.88Z"/><path class="cls-21" d="M126.33,152.82l3.89,5.54c-1.23.72-2.38,1.37-3.6,2.09l-4-5.69Z"/><path class="cls-21" d="M124.46,153.83l4,5.61c-1.23.65-2.38,1.37-3.6,2l-4-5.76C122,155.05,123.23,154.48,124.46,153.83Z"/><path class="cls-21" d="M122.66,154.76l4,5.69c-1.23.72-2.38,1.37-3.6,2.09l-4.11-5.9C120.14,156,121.36,155.41,122.66,154.76Z"/><path class="cls-21" d="M120.79,155.7l4,5.76c-1.23.72-2.45,1.37-3.6,2.09l-4.18-6C118.27,156.92,119.49,156.35,120.79,155.7Z"/><path class="cls-21" d="M118.91,156.64l4.11,5.9-3.67,1.94-4.25-6C116.39,157.86,117.62,157.21,118.91,156.64Z"/><path class="cls-21" d="M117,157.57l4.18,6-3.67,1.94-4.32-6.12C114.52,158.72,115.75,158.15,117,157.57Z"/><path class="cls-21" d="M115.1,158.44l4.25,6c-1.23.72-2.45,1.37-3.68,2l-4.32-6.26C112.65,159.66,113.87,159.08,115.1,158.44Z"/><path class="cls-21" d="M113.23,159.37l4.32,6.12c-1.3.65-2.52,1.3-3.75,1.95l-4.39-6.27C110.71,160.52,112,160,113.23,159.37Z"/><path class="cls-21" d="M111.35,160.24l4.32,6.26c-1.22.65-2.44,1.3-3.67,1.87L107.54,162C108.83,161.46,110.06,160.81,111.35,160.24Z"/><path class="cls-21" d="M109.41,161.17l4.39,6.27c-1.22.64-2.45,1.29-3.67,1.87l-4.54-6.41C106.89,162.32,108.19,161.75,109.41,161.17Z"/><path class="cls-21" d="M107.54,162l4.46,6.33c-1.29.65-2.59,1.3-3.81,1.87l-4.47-6.48C105,163.19,106.24,162.61,107.54,162Z"/><path class="cls-21" d="M105.59,162.9l4.54,6.41c-1.3.65-2.59,1.22-3.82,1.8l-4.53-6.48.14-.07C103.22,164,104.44,163.48,105.59,162.9Z"/><path class="cls-21" d="M103.72,163.76l4.47,6.48-2.81,1.3a4.3,4.3,0,0,1-1,.36l-4.46-6.48c.72-.29,1.36-.58,2-.86Z"/><path class="cls-21" d="M101.78,164.63l4.53,6.48c-.28.14-.57.29-.93.43-.94.36-1.95.79-3,1.15l-4.46-6.48A33.74,33.74,0,0,0,101.78,164.63Z"/><path class="cls-21" d="M99.91,165.42l4.46,6.48c-1.3.58-2.66,1.08-4,1.51l-4.54-6.55C97.24,166.43,98.61,165.92,99.91,165.42Z"/><path class="cls-22" d="M97.89,166.21l4.46,6.48c-1.22.51-2.59,1-4,1.44l-4.6-6.62C95.15,167.08,96.59,166.64,97.89,166.21Z"/><path class="cls-23" d="M95.87,166.86l4.54,6.55c-1.3.51-2.66,1-4,1.44l-4.75-6.77C93.07,167.72,94.51,167.29,95.87,166.86Z"/><path class="cls-24" d="M93.79,167.51l4.6,6.62c-1.36.51-2.73.94-4.1,1.37l-4.75-6.91C90.91,168.3,92.35,167.87,93.79,167.51Z"/><path class="cls-25" d="M91.63,168.08l4.75,6.77c-1.37.43-2.74.87-4.18,1.3l-4.89-7.06C88.75,168.8,90.19,168.44,91.63,168.08Z"/><path class="cls-26" d="M89.54,168.59l4.75,6.91c-1.37.43-2.81.86-4.18,1.22l-5-7.12C86.59,169.31,88,169,89.54,168.59Z"/><path class="cls-16" d="M87.31,169.09l4.89,7.06c-1.37.36-2.81.79-4.25,1.08l-5-7.2C84.35,169.74,85.79,169.45,87.31,169.09Z"/><path class="cls-15" d="M85.15,169.6l5,7.12c-1.44.36-2.88.72-4.32,1l-5.11-7.34C82.05,170.17,83.56,169.88,85.15,169.6Z"/><path class="cls-14" d="M82.91,170l5,7.2c-1.44.36-3,.72-4.39,1l-5.18-7.49C79.75,170.6,81.26,170.32,82.91,170Z"/><path class="cls-13" d="M80.68,170.39l5.11,7.34c-1.51.36-3,.65-4.46.87L76.07,171C77.37,170.89,79,170.68,80.68,170.39Z"/><path class="cls-27" d="M78.38,170.75l5.18,7.49c-1.51.28-3,.5-4.53.64l-5.4-7.63C74.71,171.18,76.36,171,78.38,170.75Z"/><path class="cls-28" d="M76.07,171l5.26,7.56c-1.58.28-3.17.43-4.68.57L71.75,172l1.44-.79A27.69,27.69,0,0,0,76.07,171Z"/><path class="cls-29" d="M73.63,171.25l5.4,7.63a37.56,37.56,0,0,1-4.83.36L70,173.12l3.24-1.87Z"/><path class="cls-30" d="M71.75,172l4.9,7.13a39.75,39.75,0,0,1-5-.07l-3.46-5Z"/><path class="cls-31" d="M70,173.12l4.25,6.12a21.22,21.22,0,0,1-5.4-.57l-2.52-3.53Z"/><path class="cls-32" d="M68.15,174.13l3.46,5a16.64,16.64,0,0,1-4-.72,3.3,3.3,0,0,1-1.37-1.15l.07-2Z"/><path class="cls-7" d="M66.28,175.14l2.52,3.53c-.43-.07-.86-.22-1.22-.29a3.3,3.3,0,0,1-1.37-1.15l.07-2Z"/><path class="cls-33" d="M114.31,189.68a60.51,60.51,0,0,0,10.15-1.87,7.64,7.64,0,0,0,1.58-.21c8.14-4,15.19-8.28,20.31-14.19q-2.06,1.72-4.11,3.24a46.32,46.32,0,0,1-10.73,7.78,26.93,26.93,0,0,0,3.24-3c-.93.57-1.87,1.08-2.8,1.58a19.58,19.58,0,0,1-6.7,4.54,1.71,1.71,0,0,1-1.08-1,12.51,12.51,0,0,0-1.8.72,4.32,4.32,0,0,0,2,.21l-.36.22c-2.16.43-4.18.79-6.12,1C116.75,189.11,115.53,189.4,114.31,189.68Z"/><path class="cls-34" d="M105.38,189.4c5,1,11.09.5,19.08-1.59a7.64,7.64,0,0,0,1.58-.21c11.16-5.48,20.23-11.52,25.13-21.39-.86.87-1.8,1.8-2.74,2.67-3.52,6.19-10.51,12.24-16.92,15.55a21.73,21.73,0,0,0,6.41-7.27c-1.29.86-2.59,1.72-3.89,2.44-2,5.19-6.84,7-8.78,8-1.08-.29-1.44-1.44-1.37-3-1,.36-2.09.79-3.17,1.15a3.38,3.38,0,0,0,3.68,1.8l-.36.22c-5.55,1.22-10.52,1.58-14.19.94C108.33,189,106.89,189.18,105.38,189.4Z"/><path class="cls-35" d="M114.31,189.68c1.22-.28,2.37-.57,3.6-.93-5.19.57-9.44.14-12-1.44-1.72.21-3.38.43-5,.57,3.6,1.73,7.92,2.38,13.4,1.8Zm8.06-2.37a12.51,12.51,0,0,1,1.8-.72,7.57,7.57,0,0,1,.07-4.39c-1.37.57-2.73,1.08-4.1,1.58.29,1.73.93,2.95,2.23,3.53Zm9.58-4.25c.93-.5,1.87-1,2.8-1.58a15.05,15.05,0,0,0,4.32-7.49c-1.44,1-2.88,1.94-4.39,2.88a3.64,3.64,0,0,1-.14.93,12.09,12.09,0,0,1-2.59,5.26Zm10.29-6.41q2.06-1.52,4.11-3.24a33.87,33.87,0,0,0,7-12.53c-.94,1-1.8,2-2.74,3-.21.72-.5,1.37-.72,2.09A31.45,31.45,0,0,1,142.24,176.65Z"/><path class="cls-36" d="M105.38,189.4c1.51-.22,3-.44,4.46-.72a9.38,9.38,0,0,1-4.75-2.09c-.43-.36-.79-.72-1.15-1.08a56.07,56.07,0,0,1-6,.5,19.79,19.79,0,0,0,2.09,1.37,17.9,17.9,0,0,0,5.4,2Zm15.33-3.68c1.08-.36,2.16-.79,3.17-1.15a20.59,20.59,0,0,1,1.08-4.82q-2.47,1.08-5,1.94a9.2,9.2,0,0,0,.72,4ZM134,179.6c1.3-.72,2.6-1.58,3.89-2.37a15.18,15.18,0,0,0,1.59-5.91v-.14c-1.59,1.22-3.24,2.38-5,3.46a8,8,0,0,1,0,3.16,13.1,13.1,0,0,1-.51,1.8Zm14.4-10.72c.94-.87,1.88-1.8,2.74-2.67a30.61,30.61,0,0,0,2.38-6.19,37.44,37.44,0,0,0,.86-3.82c-.86,1.23-1.8,2.31-2.74,3.46a37.64,37.64,0,0,1-1.8,6.34A26.66,26.66,0,0,1,148.43,168.88Z"/><path class="cls-37" d="M100.91,187.88c1.66-.14,3.32-.36,5-.57a2.94,2.94,0,0,1-.86-.72c-1-.94-2-1.87-3-2.88-2.09.21-4.32.36-6.55.36a21,21,0,0,0,4.39,3.31,5.61,5.61,0,0,1,.93.5Zm19.23-4.1c1.37-.5,2.73-1,4.1-1.58a41.6,41.6,0,0,1,1.66-5.12,51.9,51.9,0,0,1-5.83,2.45,16,16,0,0,0,.07,4.25Zm14.54-6.91c1.51-.94,2.95-1.87,4.39-2.88a17.69,17.69,0,0,0,.44-2.67,14.27,14.27,0,0,0-.15-2.52c-1.73,1.3-3.53,2.6-5.4,3.82a8.6,8.6,0,0,1,.72,4.25Zm15.91-13c.94-1,1.8-2,2.74-3l.22-.86A41.22,41.22,0,0,0,155,152c-.87,1.29-1.8,2.59-2.81,3.88A31.45,31.45,0,0,1,150.59,163.91Z"/><path class="cls-38" d="M97.89,186a56.07,56.07,0,0,0,6-.5,19.55,19.55,0,0,1-3.17-3.67c-1.94.14-3.82.21-5.76.21H93.86a19.14,19.14,0,0,0,4,4Zm22.1-4.32q2.49-.85,5-1.94c.58-1.73,1.3-3.6,2-5.47a49.89,49.89,0,0,1-6.63,3,34.79,34.79,0,0,0-.36,4.39Zm14.55-7.05c1.73-1.08,3.38-2.24,5-3.46a14.58,14.58,0,0,0-.65-4.54c-1.87,1.44-3.82,2.88-5.76,4.11a12.68,12.68,0,0,1,1.44,3.89Zm17.13-15c.94-1.15,1.88-2.3,2.74-3.46a42.21,42.21,0,0,0,.72-8.2c-.86,1.44-1.87,2.95-2.81,4.32a36.66,36.66,0,0,1-.65,7.34ZM64.12,174.92c.87.94,1.73,1.88,2.38,2.74a5.45,5.45,0,0,1,.65-1.3C66.14,175.86,65.13,175.43,64.12,174.92Z"/><path class="cls-39" d="M95.59,184.07c2.23,0,4.46-.15,6.55-.36a18.34,18.34,0,0,1-2.52-3.82C98,180,96.52,180,95,180c-.94,0-1.8,0-2.66-.08a30,30,0,0,0,3.24,4.11Zm24.48-4.54a51.9,51.9,0,0,0,5.83-2.45c.72-1.87,1.51-3.81,2.37-5.76a53.65,53.65,0,0,1-7.48,3.6c-.29,1.59-.58,3.17-.72,4.61ZM134,172.62c1.87-1.22,3.67-2.52,5.4-3.82a15.64,15.64,0,0,0-1.29-4.17,74.74,74.74,0,0,1-6,4.46,18.15,18.15,0,0,1,1.94,3.53Zm18.22-16.78c1-1.29,1.94-2.59,2.81-3.88a48,48,0,0,0,0-7.78,50.63,50.63,0,0,1-3,4.9,30.29,30.29,0,0,1,.15,6.76Zm-91.3,15a.28.28,0,0,0-.07.22c.86,1.44,3.89,4.25,5.69,6.55a6.25,6.25,0,0,1,2.23-2.88,53.06,53.06,0,0,1-7.85-3.89Zm96.84-32.4c.07.15.15.22.22.36V138A3.51,3.51,0,0,1,157.72,138.49Z"/><path class="cls-40" d="M64.12,174.92c1,.51,2,.94,3,1.44a15.09,15.09,0,0,1,3.45-3A68.88,68.88,0,0,1,62,169.24a3.6,3.6,0,0,0-1.15,1.87,48.83,48.83,0,0,0,3.31,3.81Zm29.67,7.13H95c1.94,0,3.82-.07,5.76-.21A18.58,18.58,0,0,1,98.68,178c-1.22.07-2.45.07-3.67.07s-2.59,0-3.89-.07a38.48,38.48,0,0,0,2.67,4.1Zm26.56-4.75a49.89,49.89,0,0,0,6.63-3c.86-2,1.8-4.11,2.66-6.12a65.86,65.86,0,0,1-8.28,4.39c-.36,1.58-.72,3.17-1,4.75Zm12.75-6.55c1.94-1.23,3.89-2.67,5.76-4.11a29.38,29.38,0,0,0-1.66-3.88,53.44,53.44,0,0,1-6.48,4.75,26.48,26.48,0,0,1,2.38,3.24Zm19.22-18.43c.94-1.37,2-2.88,2.81-4.32a56.91,56.91,0,0,0-.5-7.56q-1.41,2.91-3,5.61a43.71,43.71,0,0,1,.72,6.27Zm3.46-14.4c1.08,0,1.87.28,2.16.93,0-1.58-.07-4-.22-5.9Q156.87,135.43,155.78,137.92Z"/><path class="cls-41" d="M60.88,170.89a53.06,53.06,0,0,0,7.85,3.89,35.21,35.21,0,0,1,4-2.74,62.06,62.06,0,0,1-9.14-4.24C62,169,61,170,60.88,170.89ZM92.35,180c.86.08,1.72.08,2.66.08,1.51,0,3-.08,4.61-.15a18.47,18.47,0,0,1-1.59-4c-1,.07-2,.07-3,.07-1.66,0-3.31,0-4.9-.14a24.42,24.42,0,0,0,2.24,4.1Zm28.44-5a53.65,53.65,0,0,0,7.48-3.6c.65-1.51,1.37-3,1.95-4.39.57.65,1.22,1.37,1.8,2.16a74.74,74.74,0,0,0,6-4.46,24.68,24.68,0,0,0-1.88-3.6,65.22,65.22,0,0,1-14.11,9c-.5,1.58-.93,3.31-1.29,4.89ZM152,149.08a50.63,50.63,0,0,0,3-4.9c-.15-1.94-.36-4-.65-6.19,1.51-.15,2.81-.15,3.38.5a3.51,3.51,0,0,0,.22-.5,58,58,0,0,0-.58-7.85c0-.29-.29-.43-.72-.58A63,63,0,0,1,151,143.17,37.41,37.41,0,0,1,152,149.08Z"/><path class="cls-42" d="M62,169.24a68.88,68.88,0,0,0,8.64,4.17c1.3-.86,2.81-1.8,4.39-2.66a59.84,59.84,0,0,1-9.64-4.25A21,21,0,0,0,62,169.24ZM91.12,178c1.3.07,2.59.07,3.89.07s2.45,0,3.67-.07a26.31,26.31,0,0,1-1.15-4c-.86,0-1.73.07-2.52.07-1.94,0-3.82-.14-5.69-.29a31.34,31.34,0,0,0,1.8,4.18Zm30.24-5.4a65.86,65.86,0,0,0,8.28-4.39l.58-1.23a3.69,3.69,0,0,1,.5.58,53.44,53.44,0,0,0,6.48-4.75A28,28,0,0,0,135,159.3a60.83,60.83,0,0,1-12.17,8.14c-.5,1.58-1.08,3.31-1.51,5.11Zm30.24-26.5q1.62-2.7,3-5.61c-.08-.8-.15-1.66-.29-2.45a10.41,10.41,0,0,1,1.44-.07q1.08-2.49,1.94-5a21.08,21.08,0,0,0-.36-2.81c0-.58-1.29-.72-2.81-.65a57,57,0,0,1-4.39,10.87A46.42,46.42,0,0,1,151.6,146.05Z"/><path class="cls-43" d="M63.55,167.8A62.06,62.06,0,0,0,72.69,172c1.51-.86,3.17-1.72,4.82-2.59a58.29,58.29,0,0,1-10.22-4.17,34.45,34.45,0,0,0-3.74,2.52Zm26.56,8.06c1.59.14,3.24.14,4.9.14,1,0,2,0,3-.07a25.62,25.62,0,0,1-.86-4c-.72,0-1.44.07-2.16.07a60.15,60.15,0,0,1-6.34-.36c.44,1.44.87,2.81,1.44,4.18Zm32-5.83A62.94,62.94,0,0,0,136.19,161a31.55,31.55,0,0,0-2.16-3l.15-.5a61.34,61.34,0,0,1-10.37,7.2c-.58,1.65-1.22,3.45-1.73,5.4ZM151,143.17a63,63,0,0,0,5.69-13.61,12.88,12.88,0,0,0-4.25.22,58.53,58.53,0,0,1-4.1,9.86l1.51-.57C150.23,140.44,150.59,141.73,151,143.17Z"/><path class="cls-44" d="M65.35,166.5A59.84,59.84,0,0,0,75,170.75c1.73-.94,3.46-1.8,5.19-2.67a52,52,0,0,1-10.8-4c-1.44.87-2.81,1.66-4,2.45Zm24,7.27c1.87.15,3.75.29,5.69.29.79,0,1.66-.07,2.52-.07-.22-1.23-.43-2.52-.58-4A17.88,17.88,0,0,1,95,170a55.21,55.21,0,0,1-6.84-.43,40.64,40.64,0,0,0,1.15,4.17Zm33.55-6.33A60.83,60.83,0,0,0,135,159.3a9.88,9.88,0,0,0-1-1.37c.58-1.58,1.16-3.09,1.73-4.68a61.53,61.53,0,0,1-10.87,8.5,49.44,49.44,0,0,0-2,5.69Zm27.29-27.08a57,57,0,0,0,4.39-10.87,14.56,14.56,0,0,0-3,.51c-.29-.58-.58-1.08-.79-1.59a59.85,59.85,0,0,1-5.26,12.24l4.32-1.58C150,139.5,150,139.93,150.16,140.36Z"/><path class="cls-45" d="M67.29,165.28a58.29,58.29,0,0,0,10.22,4.17l5.55-2.73a57,57,0,0,1-11.52-3.82c-1.51.79-3,1.58-4.25,2.38Zm21.38,6.4A60.15,60.15,0,0,0,95,172c.72,0,1.44-.07,2.16-.07-.14-1.22-.29-2.52-.36-4A16.09,16.09,0,0,1,95,168a57.14,57.14,0,0,1-7.13-.43,26.3,26.3,0,0,0,.79,4.1Zm35.14-7.05a61.34,61.34,0,0,0,10.37-7.2c1.15-3,2.16-5.83,3.17-8.79a57.31,57.31,0,0,1-14.19,11.74l1.73,1.22c-.36.87-.72,2-1.08,3Zm24.48-25a58.53,58.53,0,0,0,4.1-9.86l-.86.22c-.72-1.37-1.44-2.74-2.23-4a56,56,0,0,1-6.84,15.77Z"/><path class="cls-46" d="M69.38,164.05a52,52,0,0,0,10.8,4c2.16-1,4.32-2,6-2.8a56.63,56.63,0,0,1-12.46-3.6c-1.51.79-3,1.58-4.39,2.37Zm18.79,5.55A55.21,55.21,0,0,0,95,170,17.88,17.88,0,0,0,97,170a34.71,34.71,0,0,1-.21-4H95a48.89,48.89,0,0,1-7.34-.51,34.48,34.48,0,0,0,.5,4.11Zm36.72-7.85a61.53,61.53,0,0,0,10.87-8.5c1.15-3.31,2.31-6.69,3.39-10.08a54.64,54.64,0,0,1-17.79,15.91l3.53,2.52v.15Zm20.59-21.1a59.85,59.85,0,0,0,5.26-12.24c-.94-1.65-1.87-3.31-3-4.89a42.87,42.87,0,0,1-2.24,7.48,1.39,1.39,0,0,1,.29.44l-.5.14a53.26,53.26,0,0,1-6.05,11.3l6.19-2.23ZM51.31,144l.07,2.6a6,6,0,0,1,.79-1.52Z"/><path class="cls-47" d="M71.54,162.9a57,57,0,0,0,11.52,3.82l4.53-2.09c.08,1,.15,1.94.29,3A57.14,57.14,0,0,0,95,168a16.09,16.09,0,0,0,1.8-.07,36.31,36.31,0,0,1-.07-4H95a52.35,52.35,0,0,1-18.86-3.46c-1.59.72-3.1,1.59-4.61,2.38Zm51.62-2.52a57.31,57.31,0,0,0,14.19-11.74c.64-1.94,1.22-3.81,1.8-5.68l3.31-1.23A56,56,0,0,0,149.3,126a50.49,50.49,0,0,0-3.1-4.68,55.82,55.82,0,0,1-2,7.78,27.13,27.13,0,0,1,1.65,2.38l-3,1a52.4,52.4,0,0,1-14.47,19.44l-.08.22-.14-.07a53.94,53.94,0,0,1-8.57,5.76l3.6,2.59Zm23.4-55.8a3,3,0,0,1,1.8.79,34.18,34.18,0,0,0-2.16-3,20.27,20.27,0,0,1,.36,2.16ZM51.23,140.29l.15,6.27a8.5,8.5,0,0,1,2.16-3C52.75,142.45,52,141.37,51.23,140.29Z"/><path class="cls-48" d="M51.31,144l.86,1.08a18.51,18.51,0,0,1,2.88-2.88,40.59,40.59,0,0,1-3.67-5.54l-.22.43.15,6.91Zm22.46,17.72a56.63,56.63,0,0,0,12.46,3.6c.5-.22.93-.44,1.36-.65,0,.29.08.57.08.86A48.89,48.89,0,0,0,95,166h1.73c-.07-1.3,0-2.6,0-4H95a49.76,49.76,0,0,1-16.42-2.73c-1.58.79-3.16,1.65-4.82,2.45Zm47.59-2.6a54.64,54.64,0,0,0,17.79-15.91V143l.14-.08a53.26,53.26,0,0,0,6.05-11.3l-3.6,1.22a29.69,29.69,0,0,0,.93-5.54,33.22,33.22,0,0,1,2.88,3.74,42.87,42.87,0,0,0,2.24-7.48,30.41,30.41,0,0,0-3.24-4.25,50,50,0,0,1-15.2,29l-1.08,3.82-1.65-1.37a47.91,47.91,0,0,1-8.86,5.76l3.6,2.59Zm23.19-54.57c1.87-.07,3.31.21,3.81.86a58.54,58.54,0,0,0-4.89-6.12C143.9,101,144.26,102.71,144.55,104.51Z"/><path class="cls-49" d="M146.56,104.58a20.27,20.27,0,0,0-.36-2.16,40,40,0,0,0-3.09-3.53,3.21,3.21,0,0,0-2-.79,61.25,61.25,0,0,1,1.44,6.55,15.77,15.77,0,0,1,4-.07ZM51.23,140.29c.72,1.08,1.52,2.16,2.31,3.24a38.82,38.82,0,0,1,3-2.59,55.23,55.23,0,0,1-3.81-6,7.25,7.25,0,0,0-1.59,2.09l.07,3.24Zm24.92,20.23A52.35,52.35,0,0,0,95,164h1.73c0-1.15,0-2.38.07-3.67l1-.43C96.88,160,96,160,95,160A47.61,47.61,0,0,1,81.26,158c-1.66.8-3.39,1.59-5.11,2.52Zm43.41-2.73a53.94,53.94,0,0,0,8.57-5.76l-3.1-2.67a46.64,46.64,0,0,1-9.14,5.84l3.67,2.59Zm8.79-5.91a52.4,52.4,0,0,0,14.47-19.44l-1.08.36a29.69,29.69,0,0,0,.93-5.54c.51.65,1,1.22,1.52,1.8a55.82,55.82,0,0,0,2-7.78,43.09,43.09,0,0,0-2.95-3.45,42.34,42.34,0,0,0-.22-4.25,47.65,47.65,0,0,1-15.55,33.7L130,146.2Z"/><path class="cls-50" d="M144.55,104.51c-.29-1.8-.65-3.53-1.08-5.26-.08-.14-.22-.21-.36-.36-.94-.93-2.6-.93-4.18-.93A46,46,0,0,1,114,153.83l3.74,2.66a47.91,47.91,0,0,0,8.86-5.76l-2.45-2.09L130,146.2l-.65,2.08a50,50,0,0,0,15.2-29c-.44-.51-.87-1-1.3-1.44a58.14,58.14,0,0,0-1.66-13,13.93,13.93,0,0,1,3-.29ZM51.38,136.62a40.59,40.59,0,0,0,3.67,5.54c.94-.79,2-1.58,3.17-2.44a42.62,42.62,0,0,1-4-6.12,13.31,13.31,0,0,0-2.88,3Zm27.21,22.61A49.76,49.76,0,0,0,95,162h1.73a13,13,0,0,0,.07-1.65l7.92-3.39A48.32,48.32,0,0,1,95,158a46.39,46.39,0,0,1-11-1.36C82.41,157.43,80.54,158.29,78.59,159.23Z"/><path class="cls-51" d="M142.53,104.65a61.25,61.25,0,0,0-1.44-6.55A16.07,16.07,0,0,0,138.5,98a30.34,30.34,0,0,0-2.95-3.24,42.68,42.68,0,0,1,3.52,17.13,44.08,44.08,0,0,1-5.47,21.24c-.14.87-.36,1.8-.5,2.67l-1.51.64A44,44,0,0,1,95,156a48.81,48.81,0,0,1-8.06-.72c-1.52.72-3.53,1.65-5.69,2.73A47.61,47.61,0,0,0,95,160c.94,0,1.87,0,2.81-.07l15.41-6.56,2.66,1.88a46.64,46.64,0,0,0,9.14-5.84l-.86-.72,3.31-1.36A47.65,47.65,0,0,0,143,113.58a55,55,0,0,0-1.44-8.78c.36-.08.65-.08.94-.15ZM52.75,135a55.23,55.23,0,0,0,3.81,6c1-.79,2.16-1.58,3.31-2.38a40.28,40.28,0,0,1-4-6.26A33,33,0,0,0,52.75,135Z"/><path class="cls-52" d="M141.09,111.85A46.65,46.65,0,0,0,138.93,98h-.43a29.88,29.88,0,0,0-6.7-6.41,41.33,41.33,0,0,1,5.26,20.3A42.05,42.05,0,0,1,135,125c-.58,3.6-1.15,7.2-1.87,10.73-1.66.72-3.39,1.36-5,2a41.94,41.94,0,0,1-40.47,15.55c0,.51-.07,1.08-.07,1.66L84,156.64A46.39,46.39,0,0,0,95,158a48.32,48.32,0,0,0,9.72-1.08l8.5-3.6.79.51a46.22,46.22,0,0,0,27.07-42ZM54.26,133.6a42.62,42.62,0,0,0,4,6.12c1-.72,2.16-1.52,3.31-2.31a40.28,40.28,0,0,1-4-6.26A39.09,39.09,0,0,0,54.26,133.6Z"/><path class="cls-53" d="M139.07,111.85a42.68,42.68,0,0,0-3.52-17.13,29.41,29.41,0,0,0-7.49-5.48A42.64,42.64,0,0,1,132.23,97c.29.58.58,1.15.87,1.8l-.22.07a39.88,39.88,0,0,1,1.73,7.13l.79-.22.29,4.76-.72-.51a16.18,16.18,0,0,1,.07,1.8,43.24,43.24,0,0,1-.57,6.91,14.85,14.85,0,0,0,1.15,1c-.51,4.47-1.23,8.93-2,13.32a44.08,44.08,0,0,0,5.47-21.24ZM55.84,132.3a40.28,40.28,0,0,0,4,6.26c1.08-.72,2.16-1.51,3.32-2.23a41,41,0,0,1-4-6.33c-1.15.79-2.3,1.58-3.31,2.3Zm31.11,23A48.81,48.81,0,0,0,95,156a44,44,0,0,0,36.58-19.59l-7.56,3a40.06,40.06,0,0,1-36.29,11.88L87.52,155Z"/><path class="cls-54" d="M137.06,111.85a41.33,41.33,0,0,0-5.26-20.3,34.17,34.17,0,0,0-7.56-4c.72.86,1.44,1.8,2.09,2.73a20.67,20.67,0,0,1,6.77,8.57l-2.16.58a39.77,39.77,0,0,1,1.73,7.12l2.73-.72.29,4.76-2.81-2c.07,1.08.15,2.23.15,3.31a44.64,44.64,0,0,1-.36,5.4c1,.87,2,1.66,3,2.52-.22,1.73-.43,3.46-.65,5.26a42.05,42.05,0,0,0,2.09-13.18ZM57.5,131.15a40.28,40.28,0,0,0,4,6.26c1.08-.72,2.23-1.44,3.38-2.16a32.89,32.89,0,0,1-4-6.41c-1.15.72-2.3,1.52-3.38,2.31Zm30.09,22.17a41.94,41.94,0,0,0,40.47-15.55c-3,1.23-6,2.45-9.07,3.6a37.74,37.74,0,0,1-20,8.35l-1.08.51.07-.43a21.31,21.31,0,0,1-2.95.14,38.83,38.83,0,0,1-7.13-.65C87.81,150.66,87.74,152,87.59,153.32Z"/><path class="cls-55" d="M135,111.85a16.18,16.18,0,0,0-.07-1.8l-4.1-3,3.74-1a39.88,39.88,0,0,0-1.73-7.13l-3.89,1a36.52,36.52,0,0,1,1.8,16c1.23.87,2.45,1.88,3.68,2.88a43.24,43.24,0,0,0,.57-6.91ZM132.16,97a38.48,38.48,0,0,0-4.1-7.78,40.11,40.11,0,0,0-7.71-3c.51.5,1,1.08,1.44,1.58A19.36,19.36,0,0,1,132.16,97Zm-73,33a41,41,0,0,0,4,6.33l3.45-2.16a34.47,34.47,0,0,1-4.1-6.41c-1.15.72-2.31,1.44-3.39,2.24Zm28.59,21.31A40.06,40.06,0,0,0,124,139.43c-2.74,1.08-5.55,2.16-8.28,3.17-.29-.22-.65-.44-.94-.65a34.49,34.49,0,0,1-11.52,5l.72.43-6.12,2.88.29-2.45c-1.08.07-2.16.14-3.17.14a36.4,36.4,0,0,1-6.91-.64C88,148.64,87.88,149.94,87.74,151.31Z"/><path class="cls-56" d="M133,111.85c0-1.08-.08-2.23-.15-3.31l-2-1.51,1.8-.51a39.77,39.77,0,0,0-1.73-7.12l-3.89,1A33.46,33.46,0,0,1,129,111.85c0,.87,0,1.73-.07,2.59,1.3.94,2.52,1.88,3.75,2.81a44.64,44.64,0,0,0,.36-5.4Zm-6.7-21.6c-.65-.93-1.37-1.87-2.09-2.73a46.66,46.66,0,0,0-7.92-2.16,15,15,0,0,1,1.23,1,31.43,31.43,0,0,1,3.09.94,28.14,28.14,0,0,1,5.69,3ZM60.88,128.84a32.89,32.89,0,0,0,4,6.41c1.16-.72,2.31-1.44,3.46-2.09a33.73,33.73,0,0,1-4.1-6.48c-1.16.65-2.31,1.44-3.39,2.16Zm27,20.45a38.83,38.83,0,0,0,7.13.65A21.31,21.31,0,0,0,98,149.8l.43-4a25,25,0,0,1-3.38.15,35,35,0,0,1-6.77-.65c-.07,1.37-.21,2.66-.36,4Zm11,.43A37.73,37.73,0,0,0,119,141.37c-1.08.43-2.16.87-3.24,1.23-.94-.58-1.88-1.23-2.81-1.8a34.32,34.32,0,0,1-12.1,4.6l3.17,1.95Z"/><path class="cls-57" d="M131,111.85a36.42,36.42,0,0,0-2-11.95l-3.88,1a32.47,32.47,0,0,1,1.94,10.94c0,.43-.07.87-.07,1.3,1.29.86,2.59,1.73,3.81,2.73a36.15,36.15,0,0,0,.22-4Zm-9.22-24c-.43-.5-.93-1.08-1.44-1.58a51.13,51.13,0,0,0-8.28-1.51,13.58,13.58,0,0,1,1.3.93,29.36,29.36,0,0,1,7.27,1.66c.43.14.79.36,1.15.5Zm-59.25,40a34.47,34.47,0,0,0,4.1,6.41c1.15-.72,2.38-1.37,3.46-2A34.19,34.19,0,0,1,66,125.6q-1.72,1-3.45,2.16ZM88.1,147.28a36.4,36.4,0,0,0,6.91.64c1,0,2.09-.07,3.17-.14l.43-3.67,4.68,2.81a34.49,34.49,0,0,0,11.52-5c-1.22-.79-2.52-1.59-3.74-2.38a32.37,32.37,0,0,1-22.61,3.67c-.15,1.37-.29,2.67-.36,4ZM64.41,102.13A14.26,14.26,0,0,0,63,109.4,27.11,27.11,0,0,1,64.41,102.13Z"/><path class="cls-58" d="M129,111.85a33.46,33.46,0,0,0-1.94-11.45l-3.89,1A31.26,31.26,0,0,1,125,111.85c1.3.79,2.6,1.73,3.89,2.59.07-.86.07-1.72.07-2.59ZM117.55,86.36a15,15,0,0,0-1.23-1,45.64,45.64,0,0,0-9-.87,13.38,13.38,0,0,1,1.66.79,41,41,0,0,1,8.57,1.08ZM64.27,126.68a33.73,33.73,0,0,0,4.1,6.48c1.22-.72,2.38-1.44,3.53-2.08a30.89,30.89,0,0,1-4.25-6.56c-1,.65-2.23,1.37-3.38,2.16Zm24,18.58a35,35,0,0,0,6.77.65c1.15,0,2.3-.07,3.38-.15l.22-1.65,2.23,1.29a34.32,34.32,0,0,0,12.1-4.6c-1.23-.87-2.52-1.66-3.82-2.45A29.41,29.41,0,0,1,95,142a30.71,30.71,0,0,1-6.34-.72c-.14,1.37-.28,2.73-.43,4Zm-18.36-50c-7.2,6-8.93,13.75-4.61,21.6a29.28,29.28,0,0,1-.43-5A29.74,29.74,0,0,1,69.88,95.29Z"/><path class="cls-59" d="M127.05,111.85a32.47,32.47,0,0,0-1.94-10.94l-3.53.86-.58-.21a27,27,0,0,1,2,9c1.36.86,2.73,1.65,4,2.59,0-.43.07-.87.07-1.3ZM113.37,85.64a13.58,13.58,0,0,0-1.3-.93,73.28,73.28,0,0,0-10.51-.15c.79.22,1.59.44,2.38.72a51.7,51.7,0,0,1,9.43.36Zm-49,16.49A27.11,27.11,0,0,0,63,109.4c.22,4,2.09,8.07,5.62,12.1a28,28,0,0,1-1.73-9.65,30.54,30.54,0,0,1,.72-6.33c-1.3-4,0-8.21,5.54-12.1.51-.36,1.08-.72,1.66-1.08l1-1c-5.62,3-9.44,6.7-11.38,10.8ZM66,125.6a34.19,34.19,0,0,0,4.11,6.56c1.29-.8,2.45-1.44,3.53-2.09a29.69,29.69,0,0,1-4.25-6.63L66,125.6Zm22.47,17.64a32.37,32.37,0,0,0,22.61-3.67c-1.3-.86-2.6-1.65-3.89-2.52A26.62,26.62,0,0,1,95,139.93a27.36,27.36,0,0,1-6.05-.65C88.75,140.58,88.6,142,88.46,143.24Z"/><path class="cls-60" d="M125,111.85a31.26,31.26,0,0,0-1.87-10.44l-1.58.36c-1.08-.5-2.16-1-3.31-1.51a25.52,25.52,0,0,1,2.66,9.79l.79-.21c1.08.64,2.23,1.29,3.31,2ZM109,85.28a13.38,13.38,0,0,0-1.66-.79A74.89,74.89,0,0,0,91,86c-9.22,2-16.35,5.33-21.1,9.29a29.74,29.74,0,0,0-5,16.56,29.28,29.28,0,0,0,.43,5A29.61,29.61,0,0,0,70,123.08c-.72.44-1.52.94-2.38,1.44a30.89,30.89,0,0,0,4.25,6.56c1.29-.72,2.52-1.37,3.53-2a25.65,25.65,0,0,1-6.56-17.21,26.29,26.29,0,0,1,.22-3.31c-3.17-5-3-10.22,4-15.12a52.5,52.5,0,0,1,7.06-3.89.9.9,0,0,0,0,.87,19.47,19.47,0,0,1,2.66-1.59v-.07l.15-.07a26.9,26.9,0,0,1,12-2.88,24.13,24.13,0,0,1,9.14,1.73,7.77,7.77,0,0,0-4.17-2,74.37,74.37,0,0,1,9-.22ZM88.67,141.23A30.71,30.71,0,0,0,95,142a29.41,29.41,0,0,0,14.11-3.6c-1.29-.87-2.66-1.73-3.89-2.59A25.85,25.85,0,0,1,95,137.92a25.31,25.31,0,0,1-7.06-1c.36.29.8.57,1.23.86C89,138.92,88.82,140.08,88.67,141.23Z"/><path class="cls-61" d="M123,110.56a27,27,0,0,0-2-9c-1.87-.87-3.81-1.8-5.83-2.67A24,24,0,0,1,119,110.77a28.22,28.22,0,0,1,2.73-.93c.43.21.87.5,1.23.72Zm-19-25.28c-.79-.28-1.59-.5-2.38-.72A80,80,0,0,0,91,86a61.23,61.23,0,0,0-15.19,5.33l-1,1c1.58-.94,3.45-1.87,5.4-2.81-.36.65.21,1.44,1.51,2.23a25.26,25.26,0,0,1,4-2.08c-1.15-.36-2.16-.65-2.81-.94,4-1.73,10.44-3.24,13-2.45A4.48,4.48,0,0,1,98,88a23.4,23.4,0,0,1,8.28,2.66A8,8,0,0,0,100,85.5c1.29-.07,2.59-.22,4-.22ZM67.58,105.52a30.54,30.54,0,0,0-.72,6.33,28,28,0,0,0,1.73,9.65c.43.5.93,1.08,1.44,1.58l-.65.36a29.69,29.69,0,0,0,4.25,6.63c1.08-.58,2-1.15,2.88-1.59,4.1,3.24,8.28,6.34,12.67,9.29L89,139.28a27.36,27.36,0,0,0,6.05.65,26.62,26.62,0,0,0,12.17-2.88c-1.37-.86-2.67-1.73-4-2.66A22.14,22.14,0,0,1,95,135.9a24.11,24.11,0,0,1-24.12-24.05V111A18.61,18.61,0,0,1,67.58,105.52Z"/><path class="cls-62" d="M120.93,110.05a25.52,25.52,0,0,0-2.66-9.79l-6.77-3A21.9,21.9,0,0,1,117,111.42c1.3-.43,2.66-.94,4-1.37ZM104.15,87.52A24.13,24.13,0,0,0,95,85.79a26.9,26.9,0,0,0-12,2.88c4.1-1.73,10.36-3.17,12.81-2.38a4.87,4.87,0,0,1,3.1,3.89,21.07,21.07,0,0,1,8.28,3.38,10.2,10.2,0,0,0-3-6ZM82.84,88.81a19.47,19.47,0,0,0-2.66,1.59,9.33,9.33,0,0,0,3.45,2.52A27.26,27.26,0,0,1,89,90.61c-2.59-.72-4.82-1.37-6.12-1.8ZM69.09,108.54a26.29,26.29,0,0,0-.22,3.31,25.65,25.65,0,0,0,6.56,17.21l1.08-.58c3.74,2.88,7.48,5.76,11.44,8.43a25.31,25.31,0,0,0,7.06,1,25.85,25.85,0,0,0,10.22-2.16c-1.44-.94-2.73-1.88-4-2.81a19.89,19.89,0,0,1-6.26.93,22.08,22.08,0,0,1-22.1-20.73A27.37,27.37,0,0,1,69.09,108.54Z"/><path class="cls-63" d="M119,110.77a24,24,0,0,0-3.82-11.88c-2.45-1.08-5-2.16-7.7-3.24a15.4,15.4,0,0,0-1.16-5A23.4,23.4,0,0,0,98,88a7.93,7.93,0,0,1,1.16,4.25A20,20,0,0,1,115,111.85v.29c1.37-.5,2.67-.94,4-1.37ZM85.65,89.68a25.26,25.26,0,0,0-4,2.08A26.68,26.68,0,0,0,85.79,94a21.28,21.28,0,0,1,7.78-2.16c-2.88-.72-5.76-1.52-7.92-2.16ZM70.89,111v.86A24.11,24.11,0,0,0,95,135.9a22.14,22.14,0,0,0,8.21-1.51c-.79-.58-1.59-1.15-2.31-1.73l.29-1.8a19.49,19.49,0,0,1-6.19,1,20.13,20.13,0,0,1-19.87-16.78A31.92,31.92,0,0,1,70.89,111Z"/><path class="cls-64" d="M117,111.42a21.9,21.9,0,0,0-5.47-14.11c-1.3-.51-2.67-1.08-4-1.66-.08-.72-.15-1.44-.29-2.09a21.07,21.07,0,0,0-8.28-3.38,9.89,9.89,0,0,1,.21,3c-3-.64-6.84-1.65-10.15-2.59a27.26,27.26,0,0,0-5.33,2.31c1.3.72,2.81,1.44,4.61,2.23A17.34,17.34,0,0,1,95,93.85a17.94,17.94,0,0,1,16.34,10.59l.72.36-.5.14a17.09,17.09,0,0,1,1.37,6.91v1c1.37-.5,2.66-.94,4-1.44Zm-44.06,1.73A22.08,22.08,0,0,0,95,133.88a19.89,19.89,0,0,0,6.26-.93,1.41,1.41,0,0,0-.36-.29c.29-1.37.44-2.74.65-4.1A16.43,16.43,0,0,1,95,129.85a18.1,18.1,0,0,1-17.35-12.74C75.93,115.81,74.35,114.44,72.91,113.15Z"/><path class="cls-65" d="M115,111.85A20,20,0,0,0,99.19,92.27a3.62,3.62,0,0,1-.08.93c-1.65-.36-3.6-.86-5.54-1.36A21.28,21.28,0,0,0,85.79,94c1.59.72,3.32,1.51,5.26,2.3a18,18,0,0,1,4-.5,16,16,0,0,1,13.32,7.27l3.74,1.73-2.37.86a16.16,16.16,0,0,1,1.29,6.19,14.3,14.3,0,0,1-.14,1.8l4.1-1.51v-.29Zm-39.81,3.24A20.13,20.13,0,0,0,95,131.87a19.49,19.49,0,0,0,6.19-1c.29-1.51.58-3.1.87-4.68A15.46,15.46,0,0,1,95,127.84,16.07,16.07,0,0,1,80.11,118l-.72.29C77.87,117.25,76.51,116.17,75.14,115.09Z"/><path class="cls-66" d="M112.94,111.85a17.09,17.09,0,0,0-1.37-6.91l-3.74,1.37a14.41,14.41,0,0,1,1.15,5.54,10,10,0,0,1-.29,2.59c1.44-.57,2.81-1.08,4.25-1.58v-1Zm-1.59-7.41A17.94,17.94,0,0,0,95,93.85a17.34,17.34,0,0,0-6.77,1.3c2,.86,4.25,1.73,6.63,2.66H95a14,14,0,0,1,11.59,6.27l.29-1.66,4.46,2ZM77.66,117.11A18.1,18.1,0,0,0,95,129.85a17.71,17.71,0,0,0,6.55-1.22c.36-1.73.65-3.39,1-5a13.57,13.57,0,0,1-7.56,2.3,12.58,12.58,0,0,1-3.31-.43l-.29,1.3-4.68-3.24.29-.15a14.12,14.12,0,0,1-5.11-6.26c-.87.36-1.73.79-2.52,1.15C78.81,117.9,78.23,117.47,77.66,117.11Z"/><path class="cls-67" d="M111,111.85a16.16,16.16,0,0,0-1.29-6.19l-3.6,1.3.79-4.54,1.44.65A16,16,0,0,0,95,95.8a18,18,0,0,0-4,.5c2.23.94,4.68,1.87,7.2,2.88-.07.29-.14.65-.22,1.08A12,12,0,0,1,107,111.85a13.26,13.26,0,0,1-.5,3.46c1.44-.58,3-1.15,4.39-1.66a14.3,14.3,0,0,0,.14-1.8ZM80.11,118A16.07,16.07,0,0,0,95,127.84a15.46,15.46,0,0,0,7.06-1.66l1.08-5.62A11.73,11.73,0,0,1,95,123.88a12.36,12.36,0,0,1-2.81-.36l-.79,3.24-4.68-3.24,2.52-1.08a11.81,11.81,0,0,1-5.47-6.2Z"/><path class="cls-68" d="M109,111.85a14.41,14.41,0,0,0-1.15-5.54l-1.73.65.5-2.88A14,14,0,0,0,95,97.81h-.14c1.08.43,2.23.87,3.38,1.37-.14.72-.36,1.8-.65,3A10,10,0,0,1,95,121.86a7.93,7.93,0,0,1-2.3-.29l-1,3.89a12.58,12.58,0,0,0,3.31.43,13.57,13.57,0,0,0,7.56-2.3c.43-2.52.94-4.9,1.51-7.35,1.51-.64,3.1-1.22,4.61-1.8a10,10,0,0,0,.29-2.59Zm-27.07,5.26A14.12,14.12,0,0,0,87,123.37l4.68-2.09a10,10,0,0,1-6.12-5.83C84.35,116,83.13,116.53,81.91,117.11Z"/><path class="cls-69" d="M107,111.85A12,12,0,0,0,98,100.26c-.21,1.08-.5,2.45-.86,3.89a8,8,0,1,1-9.72,10.44c-1.3.57-2.52,1.08-3.67,1.65a11.81,11.81,0,0,0,5.47,6.2l3.67-1.66-.72,2.74a12.36,12.36,0,0,0,2.81.36,11.43,11.43,0,0,0,8.14-3.32c.28-1.36.57-2.88.93-4.32.79-.36,1.59-.64,2.38-.93A13.26,13.26,0,0,0,107,111.85Z"/><path class="cls-70" d="M105,111.85a10.07,10.07,0,0,0-7.35-9.65c-.29,1.23-.57,2.52-.93,3.89a6.1,6.1,0,0,1,4.32,5.76,6,6,0,0,1-11.74,2c-1.22.5-2.45,1.08-3.67,1.65a10,10,0,0,0,6.12,5.83l1.22-.5-.21.79a7.93,7.93,0,0,0,2.3.29A10,10,0,0,0,105,111.85Z"/><path class="cls-71" d="M102.93,111.85a7.9,7.9,0,0,0-5.76-7.7c-.29,1.29-.65,2.59-.94,4A3.94,3.94,0,0,1,99,111.85a4,4,0,0,1-4,4,4,4,0,0,1-3.89-2.95c-1.22.58-2.52,1.08-3.67,1.66a8,8,0,0,0,15.48-2.74Z"/><path class="cls-72" d="M101,111.85a6.1,6.1,0,0,0-4.32-5.76c-.36,1.73-.8,3.39-1.08,4.9-2.16.93-4.25,1.87-6.34,2.81a6,6,0,0,0,11.74-2Z"/><path class="cls-73" d="M99,111.85a3.94,3.94,0,0,0-2.74-3.74c-.21,1-.5,2-.64,2.88-1.52.65-3,1.29-4.47,1.94A4,4,0,0,0,95,115.88,4,4,0,0,0,99,111.85Z"/><path class="cls-3" d="M97,111.85a1.9,1.9,0,0,0-1.15-1.8c-.07.29-.14.65-.21.94-.87.43-1.73.79-2.6,1.15a2,2,0,0,0,2,1.73A2,2,0,0,0,97,111.85Z"/></g></g></svg>