<?xml version="1.0" encoding="utf-8"?>
<!-- Generator: Adobe Illustrator 16.0.0, SVG Export Plug-In . SVG Version: 6.00 Build 0)  -->
<!DOCTYPE svg PUBLIC "-//W3C//DTD SVG 1.0//EN" "http://www.w3.org/TR/2001/REC-SVG-20010904/DTD/svg10.dtd">
<svg version="1.0" id="Layer_1" xmlns="http://www.w3.org/2000/svg" xmlns:xlink="http://www.w3.org/1999/xlink" x="0px" y="0px"
	 width="800px" height="800px" viewBox="0 0 800 800" enable-background="new 0 0 800 800" xml:space="preserve">
<g transform="translate(-113.04 -219)">
	<g>
		<path fill="#BFAE76" d="M297.5,390.343c90.812-0.638,156.343-21.956,215.191-48.749c57.213,26.363,118.729,49.806,216.355,48.749
			l5.164,351.684c-7.654,104.902-64.838,193.304-221.52,248.536c-128.9-42.386-211.886-118.366-220.822-248.536L297.5,390.343z"/>
		<path fill="#BFAE76" d="M329.153,345.29l4.467-26.802l-18.646-18.255l25.635-2.524l12.624-25.443l11.848,25.443l25.831,2.524
			l-18.258,18.255l4.662,26.802l-24.083-11.459L329.153,345.29z"/>
		<path fill="#BFAE76" d="M432.739,320.461l4.467-26.801l-18.645-18.255l25.638-2.524l12.624-25.443l11.847,25.443l25.829,2.524
			l-18.255,18.255l4.66,26.801l-24.08-11.457L432.739,320.461z"/>
		<path fill="#BFAE76" d="M544.3,320.461l4.466-26.801l-18.645-18.255l25.64-2.524l12.621-25.443l11.851,25.443l25.83,2.524
			l-18.256,18.255l4.657,26.801l-24.082-11.457L544.3,320.461z"/>
		<path fill="#BFAE76" d="M647.806,345.29l4.469-26.802l-18.646-18.255l25.633-2.524l12.626-25.443l11.845,25.443l25.834,2.524
			l-18.26,18.255l4.663,26.802l-24.082-11.459L647.806,345.29z"/>
	</g>
	<path fill="#0068B3" d="M308.928,403.002c85.773-0.614,147.662-21.025,203.237-46.687c54.037,25.248,112.135,47.7,204.335,46.687
		l4.876,336.815c-7.076,100.076-58.798,179.024-209.214,238.019C389.643,928.693,311.862,862.525,303.6,739.817L308.928,403.002z"/>
	<path fill="#FFFEFF" d="M572.089,910.91c-19.256,10.654-39.519,18.304-59.488,28.1c-21.122-8.317-40.843-17.586-59.019-28.1
		V627.012c31.241,34.789,86.988,33.106,118.511,0V910.91"/>
	<path fill="#00AB49" d="M453.54,626.952v283.891c-64.638-37.407-108.143-90.69-111.544-173.772l1.646-160.123
		c0,0,57.07-14.655,86.241-17.579c0.703,29.721,9.91,52.278,23.654,67.584"/>
	<path fill="#F11126" d="M572.089,910.91c55.773-30.864,103.087-73.747,110.255-163.343l-0.277-171.936
		c0,0-57.48-13.517-86.792-16.205c0.346,29.266-8.299,51.953-23.182,67.585v283.895"/>
	<g>
		<path fill="#BFAE76" d="M454.853,600.478c-14.336-77.568,59.865-76.749,84.29-67.977
			C499.221,461.152,418.376,544.777,454.853,600.478z"/>
		<path fill="#BFAE76" d="M569.374,604.421c-60.97,52.239-97.846-22.671-98.818-43.631
			C431.374,634.172,541.774,665.944,569.374,604.421z"/>
		<path fill="#BFAE76" d="M515.857,498.039c70.242,30.832,32.313,94.806,12.781,110.289
			C606.298,609.462,582.196,496.781,515.857,498.039z"/>
		<path fill="#BFAE76" d="M479.682,554.107h14.713v3.059h-10.78v6.063h8.935v3.6h-8.935v9.227h-4.078L479.682,554.107z"/>
		<path fill="#BFAE76" d="M499.66,576.06h3.737v-21.945h-3.737V576.06z"/>
		<path fill="#BFAE76" d="M512.731,576.06c-1.827,0-3.482-1.97-3.482-3.797v-13.844c0-1.821,1.661-4.339,3.482-4.339h8.566
			c1.631,0,3.835,1.457,3.835,3.088v2.896h-4.188v-1.683c0-0.593-0.734-1.135-1.329-1.135h-4.731c-0.648,0-1.251,0.839-1.251,1.486
			v11.85c0,0.635,0.617,1.604,1.251,1.604h4.731c0.606,0,1.329-0.413,1.329-1.019v-2.072l-2.032-0.704v-3.439h6.221v6.569
			c0,1.873-1.96,4.538-3.835,4.538H512.731z"/>
		<path fill="#BFAE76" d="M542.902,570.221l4.192-0.106v2.683c0,1.552-1.991,3.345-3.542,3.345h-8.682
			c-1.683,0-3.345-2.042-3.345-3.72v-14.126c0-1.835,1.887-4.152,3.723-4.152h8.304c1.614,0,3.542,1.729,3.542,3.344v2.734h-4.192
			v-1.347c0-0.611-0.578-1.296-1.185-1.296h-5.297c-0.61,0-1.349,0.685-1.349,1.296v12.532c0,0.691,0.55,1.618,1.24,1.618h5.405
			c0.321,0,1.185-0.546,1.185-0.953V570.221z"/>
		<path fill="#BFAE76" d="M344.113,548.271v-14.178c33.254-8.372,67.24-11.868,100.991-15.73c-3.269,4.684-5.211,9.427-6.409,13.595
			c-32.271,3.088-63.866,8.048-94.585,16.313H344.113z"/>
		<path fill="#BFAE76" d="M682.087,548.765v-14.178c-33.25-8.374-67.238-11.868-100.987-15.73c3.266,4.684,5.209,9.426,6.409,13.595
			c32.271,3.09,63.862,8.046,94.586,16.313H682.087z"/>
		<path fill="#BFAE76" d="M343.949,506.918l12.499-3.569v-68.941l-12.499,2.748V506.918z"/>
		<path fill="#BFAE76" d="M398.621,494.832l13.46-2.196v-57.129l17.028-3.021v-11.262l-47.24,7.691v11.809l16.752-3.296V494.832z"/>
		<path fill="#BFAE76" d="M488.726,459.729l-21.153,1.372v-28.015c0-1.394,1.765-2.653,3.159-2.747l14.425-0.961
			c1.307-0.089,3.578,1.155,3.57,2.467V459.729z M455.265,487.5l13.125-1.099l0.083-12.26l19.808-1.014l0.197,12.623l13.595-0.436
			l-0.584-60.158c-0.042-3.892-4.271-8.564-8.159-8.351l-28.353,1.553c-5.036,0.276-10.134,6.222-10.1,11.265L455.265,487.5z"/>
		<path fill="#BFAE76" d="M529.418,485.296l0.586-68.557l12.866,0.388v57.292l26.561,2.137l-0.197,11.07L529.418,485.296z"/>
		<path fill="#BFAE76" d="M596.589,491.381l12.717,1.554v-68.946l-12.717-2.721V491.381z"/>
		<path fill="#BFAE76" d="M643.541,428.851c-3.471,0.05-7.855,2.594-7.908,5.77l-0.967,61.373l13.399,2.719l0.193-14.372
			l19.228,4.078l0.192,14.954l12.818,3.497l-0.775-62.34c-0.052-4.179-4.084-8.6-8.16-9.521l-26.604-6.02
			C644.512,428.888,644.038,428.845,643.541,428.851L643.541,428.851z M649.652,441.809c0.12-0.021,0.237-0.023,0.354,0l15.15,2.91
			c1.169,0.225,2.546,1.339,2.522,2.527l-0.582,27.962l-19.228-3.884l0.196-27.385c0.009-0.842,0.768-1.981,1.587-2.133V441.809z"/>
	</g>
</g>
</svg>
