<svg xmlns="http://www.w3.org/2000/svg" xmlns:xlink="http://www.w3.org/1999/xlink" width="1080" zoomAndPan="magnify" viewBox="0 0 810 809.999993" height="1080" preserveAspectRatio="xMidYMid meet" version="1.0"><path fill="#bfae76" d="M 170.324219 156.046875 C 269.167969 155.351562 340.492188 132.148438 404.546875 102.988281 C 466.820312 131.679688 533.773438 157.195312 640.035156 156.046875 L 645.65625 538.832031 C 637.324219 653.011719 575.082031 749.230469 404.542969 809.347656 C 264.246094 763.214844 173.921875 680.515625 164.195312 538.832031 Z M 170.324219 156.046875 " fill-opacity="1" fill-rule="nonzero"/><path fill="#bfae76" d="M 204.777344 107.007812 L 209.636719 77.835938 L 189.34375 57.96875 L 217.246094 55.21875 L 230.984375 27.527344 L 243.882812 55.21875 L 271.996094 57.96875 L 252.125 77.835938 L 257.199219 107.007812 L 230.984375 94.535156 Z M 204.777344 107.007812 " fill-opacity="1" fill-rule="nonzero"/><path fill="#bfae76" d="M 317.523438 79.984375 L 322.386719 50.8125 L 302.089844 30.945312 L 329.996094 28.195312 L 343.738281 0.503906 L 356.632812 28.195312 L 384.746094 30.945312 L 364.875 50.8125 L 369.949219 79.984375 L 343.738281 67.515625 Z M 317.523438 79.984375 " fill-opacity="1" fill-rule="nonzero"/><path fill="#bfae76" d="M 438.949219 79.984375 L 443.8125 50.8125 L 423.515625 30.945312 L 451.425781 28.195312 L 465.160156 0.503906 L 478.0625 28.195312 L 506.175781 30.945312 L 486.304688 50.8125 L 491.375 79.984375 L 465.160156 67.515625 Z M 438.949219 79.984375 " fill-opacity="1" fill-rule="nonzero"/><path fill="#bfae76" d="M 551.609375 107.007812 L 556.472656 77.835938 L 536.179688 57.96875 L 564.078125 55.21875 L 577.820312 27.527344 L 590.714844 55.21875 L 618.832031 57.96875 L 598.957031 77.835938 L 604.035156 107.007812 L 577.820312 94.535156 Z M 551.609375 107.007812 " fill-opacity="1" fill-rule="nonzero"/><path fill="#0068b3" d="M 182.761719 169.824219 C 276.121094 169.15625 343.484375 146.941406 403.972656 119.007812 C 462.789062 146.488281 526.027344 170.929688 626.378906 169.824219 L 631.6875 536.425781 C 623.984375 645.355469 567.6875 731.285156 403.96875 795.496094 C 270.617188 742.007812 185.957031 669.988281 176.964844 536.425781 Z M 182.761719 169.824219 " fill-opacity="1" fill-rule="nonzero"/><path fill="#fffeff" d="M 469.195312 722.652344 C 448.238281 734.246094 426.183594 742.574219 404.449219 753.234375 C 381.457031 744.183594 359.992188 734.09375 340.210938 722.652344 L 340.210938 413.644531 C 374.214844 451.511719 434.890625 449.679688 469.203125 413.644531 L 469.203125 722.652344 " fill-opacity="1" fill-rule="nonzero"/><path fill="#00ab49" d="M 340.164062 413.582031 L 340.164062 722.578125 C 269.808594 681.863281 222.457031 623.867188 218.753906 533.4375 L 220.546875 359.15625 C 220.546875 359.15625 282.664062 343.203125 314.414062 340.019531 C 315.179688 372.371094 325.199219 396.921875 340.160156 413.582031 " fill-opacity="1" fill-rule="nonzero"/><path fill="#f11126" d="M 469.195312 722.652344 C 529.902344 689.058594 581.402344 642.382812 589.203125 544.863281 L 588.902344 357.722656 C 588.902344 357.722656 526.335938 343.007812 494.433594 340.082031 C 494.808594 371.9375 485.402344 396.628906 469.203125 413.644531 L 469.203125 722.648438 " fill-opacity="1" fill-rule="nonzero"/><path fill="#bfae76" d="M 341.59375 384.765625 C 325.988281 300.335938 406.753906 301.230469 433.335938 310.777344 C 389.882812 233.117188 301.890625 324.136719 341.59375 384.765625 Z M 341.59375 384.765625 " fill-opacity="1" fill-rule="nonzero"/><path fill="#bfae76" d="M 466.242188 389.058594 C 399.878906 445.917969 359.742188 364.382812 358.683594 341.566406 C 316.039062 421.4375 436.199219 456.019531 466.242188 389.058594 Z M 466.242188 389.058594 " fill-opacity="1" fill-rule="nonzero"/><path fill="#bfae76" d="M 407.992188 273.265625 C 484.445312 306.824219 443.164062 376.457031 421.902344 393.308594 C 506.429688 394.542969 480.199219 271.898438 407.992188 273.265625 Z M 407.992188 273.265625 " fill-opacity="1" fill-rule="nonzero"/><path fill="#bfae76" d="M 368.617188 334.292969 L 384.632812 334.292969 L 384.632812 337.625 L 372.898438 337.625 L 372.898438 344.222656 L 382.625 344.222656 L 382.625 348.140625 L 372.898438 348.140625 L 372.898438 358.183594 L 368.460938 358.183594 Z M 368.617188 334.292969 " fill-opacity="1" fill-rule="nonzero"/><path fill="#bfae76" d="M 390.363281 358.1875 L 394.429688 358.1875 L 394.429688 334.300781 L 390.363281 334.300781 Z M 390.363281 358.1875 " fill-opacity="1" fill-rule="nonzero"/><path fill="#bfae76" d="M 404.589844 358.1875 C 402.601562 358.1875 400.800781 356.042969 400.800781 354.054688 L 400.800781 338.988281 C 400.800781 337.003906 402.609375 334.265625 404.589844 334.265625 L 413.914062 334.265625 C 415.6875 334.265625 418.085938 335.851562 418.085938 337.625 L 418.085938 340.777344 L 413.527344 340.777344 L 413.527344 338.945312 C 413.527344 338.300781 412.730469 337.710938 412.082031 337.710938 L 406.933594 337.710938 C 406.226562 337.710938 405.570312 338.625 405.570312 339.328125 L 405.570312 352.226562 C 405.570312 352.917969 406.242188 353.972656 406.933594 353.972656 L 412.082031 353.972656 C 412.742188 353.972656 413.527344 353.523438 413.527344 352.863281 L 413.527344 350.605469 L 411.316406 349.839844 L 411.316406 346.097656 L 418.089844 346.097656 L 418.089844 353.246094 C 418.089844 355.285156 415.953125 358.1875 413.914062 358.1875 Z M 404.589844 358.1875 " fill-opacity="1" fill-rule="nonzero"/><path fill="#bfae76" d="M 437.429688 351.832031 L 441.992188 351.71875 L 441.992188 354.636719 C 441.992188 356.328125 439.824219 358.277344 438.136719 358.277344 L 428.6875 358.277344 C 426.855469 358.277344 425.046875 356.054688 425.046875 354.230469 L 425.046875 338.855469 C 425.046875 336.855469 427.097656 334.335938 429.097656 334.335938 L 438.136719 334.335938 C 439.894531 334.335938 441.992188 336.214844 441.992188 337.972656 L 441.992188 340.949219 L 437.429688 340.949219 L 437.429688 339.484375 C 437.429688 338.820312 436.800781 338.074219 436.140625 338.074219 L 430.375 338.074219 C 429.710938 338.074219 428.90625 338.820312 428.90625 339.484375 L 428.90625 353.125 C 428.90625 353.875 429.503906 354.886719 430.253906 354.886719 L 436.136719 354.886719 C 436.488281 354.886719 437.425781 354.292969 437.425781 353.847656 L 437.425781 351.832031 Z M 437.429688 351.832031 " fill-opacity="1" fill-rule="nonzero"/><path fill="#bfae76" d="M 221.058594 327.941406 L 221.058594 312.507812 C 257.253906 303.398438 294.246094 299.59375 330.980469 295.386719 C 327.421875 300.488281 325.308594 305.648438 324.007812 310.1875 C 288.882812 313.546875 254.492188 318.945312 221.054688 327.941406 Z M 221.058594 327.941406 " fill-opacity="1" fill-rule="nonzero"/><path fill="#bfae76" d="M 588.921875 328.480469 L 588.921875 313.046875 C 552.730469 303.933594 515.738281 300.128906 479.003906 295.925781 C 482.558594 301.023438 484.675781 306.1875 485.980469 310.722656 C 521.105469 314.085938 555.492188 319.480469 588.929688 328.480469 Z M 588.921875 328.480469 " fill-opacity="1" fill-rule="nonzero"/><path fill="#bfae76" d="M 220.878906 282.929688 L 234.484375 279.046875 L 234.484375 204.007812 L 220.878906 207 Z M 220.878906 282.929688 " fill-opacity="1" fill-rule="nonzero"/><path fill="#bfae76" d="M 280.386719 269.777344 L 295.039062 267.386719 L 295.039062 205.203125 L 313.570312 201.917969 L 313.570312 189.660156 L 262.15625 198.03125 L 262.15625 210.882812 L 280.386719 207.296875 Z M 280.386719 269.777344 " fill-opacity="1" fill-rule="nonzero"/><path fill="#bfae76" d="M 378.460938 231.570312 L 355.4375 233.0625 L 355.4375 202.570312 C 355.4375 201.050781 357.359375 199.683594 358.875 199.578125 L 374.578125 198.535156 C 376 198.4375 378.472656 199.789062 378.460938 201.21875 Z M 342.042969 261.796875 L 356.328125 260.601562 L 356.417969 247.253906 L 377.976562 246.152344 L 378.191406 259.890625 L 392.988281 259.417969 L 392.351562 193.9375 C 392.308594 189.703125 387.703125 184.617188 383.472656 184.847656 L 352.613281 186.539062 C 347.132812 186.839844 341.582031 193.3125 341.617188 198.800781 Z M 342.042969 261.796875 " fill-opacity="1" fill-rule="nonzero"/><path fill="#bfae76" d="M 422.753906 259.398438 L 423.390625 184.777344 L 437.394531 185.199219 L 437.394531 247.558594 L 466.304688 249.882812 L 466.089844 261.933594 Z M 422.753906 259.398438 " fill-opacity="1" fill-rule="nonzero"/><path fill="#bfae76" d="M 495.863281 266.019531 L 509.707031 267.710938 L 509.707031 192.667969 L 495.863281 189.707031 Z M 495.863281 266.019531 " fill-opacity="1" fill-rule="nonzero"/><path fill="#bfae76" d="M 546.96875 197.960938 C 543.191406 198.015625 538.417969 200.785156 538.359375 204.242188 L 537.308594 271.042969 L 551.890625 274 L 552.101562 258.359375 L 573.03125 262.796875 L 573.238281 279.074219 L 587.191406 282.878906 L 586.347656 215.027344 C 586.292969 210.476562 581.902344 205.664062 577.464844 204.664062 L 548.507812 198.109375 C 548.023438 198 547.507812 197.953125 546.96875 197.960938 Z M 553.621094 212.0625 C 553.75 212.042969 553.878906 212.039062 554.003906 212.0625 L 570.496094 215.230469 C 571.765625 215.476562 573.265625 216.6875 573.238281 217.980469 L 572.605469 248.417969 L 551.675781 244.1875 L 551.890625 214.382812 C 551.902344 213.464844 552.726562 212.226562 553.617188 212.0625 Z M 553.621094 212.0625 " fill-opacity="1" fill-rule="nonzero"/></svg>