<svg xmlns="http://www.w3.org/2000/svg" xmlns:xlink="http://www.w3.org/1999/xlink" width="1080" zoomAndPan="magnify" viewBox="0 0 810 809.999993" height="1080" preserveAspectRatio="xMidYMid meet" version="1.0"><path fill="#0f0e6d" d="M 405.109375 810 C 628.632812 810 810 628.632812 810 404.890625 C 810 181.148438 628.632812 0 405.109375 0 C 181.589844 0 0 181.382812 0 404.890625 C 0 628.394531 181.496094 810 405.109375 810 Z M 405.109375 810 " fill-opacity="1" fill-rule="evenodd"/><path fill="#ffffff" d="M 405.109375 693.09375 C 564.027344 693.09375 693.046875 564.074219 693.046875 404.890625 C 693.046875 245.707031 564.027344 116.953125 405.109375 116.953125 C 246.195312 116.953125 116.90625 245.972656 116.90625 404.890625 C 116.90625 409.605469 117.019531 414.320312 117.253906 419.03125 C 117.484375 423.742188 117.832031 428.445312 118.292969 433.140625 C 118.753906 437.832031 119.332031 442.511719 120.023438 447.179688 C 120.71875 451.84375 121.523438 456.488281 122.441406 461.117188 C 123.363281 465.742188 124.398438 470.34375 125.542969 474.917969 C 126.6875 479.492188 127.945312 484.039062 129.316406 488.550781 C 130.683594 493.066406 132.164062 497.542969 133.753906 501.984375 C 135.34375 506.425781 137.039062 510.824219 138.84375 515.179688 C 140.648438 519.539062 142.558594 523.847656 144.578125 528.113281 C 146.59375 532.378906 148.714844 536.589844 150.9375 540.75 C 153.160156 544.910156 155.484375 549.011719 157.910156 553.054688 C 160.332031 557.101562 162.855469 561.085938 165.476562 565.007812 C 168.097656 568.929688 170.8125 572.785156 173.621094 576.574219 C 176.433594 580.363281 179.332031 584.078125 182.324219 587.726562 C 185.316406 591.371094 188.398438 594.941406 191.566406 598.4375 C 194.730469 601.929688 197.984375 605.347656 201.320312 608.679688 C 204.652344 612.015625 208.070312 615.269531 211.5625 618.433594 C 215.058594 621.601562 218.628906 624.683594 222.273438 627.675781 C 225.921875 630.667969 229.636719 633.566406 233.425781 636.378906 C 237.214844 639.1875 241.070312 641.902344 244.992188 644.523438 C 248.914062 647.144531 252.898438 649.667969 256.941406 652.089844 C 260.988281 654.515625 265.089844 656.839844 269.25 659.0625 C 273.410156 661.285156 277.621094 663.40625 281.886719 665.421875 C 286.152344 667.441406 290.460938 669.351562 294.820312 671.15625 C 299.175781 672.960938 303.574219 674.65625 308.015625 676.246094 C 312.457031 677.835938 316.933594 679.316406 321.449219 680.683594 C 325.960938 682.054688 330.507812 683.3125 335.082031 684.457031 C 339.65625 685.601562 344.257812 686.636719 348.882812 687.554688 C 353.511719 688.476562 358.15625 689.28125 362.820312 689.976562 C 367.488281 690.667969 372.167969 691.246094 376.859375 691.707031 C 381.554688 692.167969 386.257812 692.515625 390.96875 692.746094 C 395.679688 692.980469 400.394531 693.09375 405.109375 693.09375 Z M 405.109375 693.09375 " fill-opacity="1" fill-rule="evenodd"/><path fill="#f7e013" d="M 718.015625 581.664062 C 720.804688 576.730469 723.472656 571.730469 726.023438 566.671875 C 728.574219 561.609375 731.003906 556.492188 733.3125 551.316406 C 735.621094 546.140625 737.808594 540.910156 739.867188 535.632812 C 741.929688 530.351562 743.863281 525.027344 745.675781 519.65625 C 747.484375 514.285156 749.164062 508.875 750.71875 503.421875 C 752.269531 497.972656 753.691406 492.488281 754.988281 486.96875 C 756.28125 481.453125 757.441406 475.90625 758.472656 470.332031 C 759.503906 464.761719 760.402344 459.167969 761.167969 453.550781 C 761.933594 447.933594 762.566406 442.304688 763.066406 436.660156 C 763.566406 431.011719 763.933594 425.359375 764.164062 419.695312 C 764.398438 414.035156 764.496094 408.367188 764.457031 402.699219 C 764.421875 397.035156 764.253906 391.371094 763.949219 385.710938 C 763.644531 380.050781 763.207031 374.402344 762.632812 368.761719 C 762.0625 363.125 761.359375 357.503906 760.519531 351.898438 C 759.683594 346.292969 758.714844 340.710938 757.613281 335.148438 C 756.511719 329.589844 755.277344 324.0625 753.914062 318.558594 C 752.550781 313.058594 751.058594 307.59375 749.433594 302.164062 C 747.8125 296.730469 746.0625 291.34375 744.183594 285.996094 C 742.308594 280.648438 740.304688 275.347656 738.175781 270.09375 C 736.046875 264.839844 733.796875 259.640625 731.421875 254.496094 C 729.046875 249.351562 726.554688 244.261719 723.9375 239.234375 C 721.324219 234.207031 718.589844 229.242188 715.742188 224.34375 C 712.890625 219.445312 709.925781 214.617188 706.847656 209.859375 C 703.769531 205.097656 700.578125 200.417969 697.28125 195.808594 C 693.980469 191.203125 690.570312 186.675781 687.058594 182.226562 C 683.542969 177.78125 679.925781 173.421875 676.203125 169.144531 C 672.484375 164.871094 668.664062 160.6875 664.742188 156.59375 C 660.824219 152.496094 656.8125 148.5 652.703125 144.59375 C 648.59375 140.691406 644.398438 136.886719 640.109375 133.179688 C 635.820312 129.472656 631.445312 125.871094 626.988281 122.375 C 622.527344 118.875 617.988281 115.484375 613.371094 112.199219 C 608.75 108.914062 604.054688 105.742188 599.285156 102.683594 L 585.914062 125.339844 C 590.269531 128.15625 594.5625 131.070312 598.785156 134.085938 C 603.003906 137.101562 607.15625 140.214844 611.230469 143.425781 C 615.308594 146.636719 619.308594 149.941406 623.230469 153.335938 C 627.152344 156.734375 630.992188 160.21875 634.75 163.796875 C 638.511719 167.375 642.183594 171.035156 645.773438 174.785156 C 649.359375 178.535156 652.859375 182.363281 656.265625 186.277344 C 659.675781 190.1875 662.992188 194.175781 666.214844 198.246094 C 669.433594 202.3125 672.5625 206.453125 675.589844 210.664062 C 678.617188 214.878906 681.546875 219.160156 684.375 223.507812 C 687.203125 227.859375 689.929688 232.273438 692.550781 236.75 C 695.171875 241.230469 697.6875 245.765625 700.097656 250.359375 C 702.507812 254.957031 704.808594 259.605469 707 264.308594 C 709.195312 269.011719 711.277344 273.761719 713.246094 278.5625 C 715.214844 283.363281 717.074219 288.207031 718.816406 293.09375 C 720.5625 297.980469 722.191406 302.90625 723.703125 307.867188 C 725.214844 312.832031 726.613281 317.828125 727.894531 322.855469 C 729.171875 327.882812 730.335938 332.9375 731.378906 338.019531 C 732.421875 343.105469 733.347656 348.207031 734.152344 353.335938 C 734.957031 358.460938 735.640625 363.601562 736.207031 368.761719 C 736.769531 373.917969 737.214844 379.085938 737.535156 384.265625 C 737.859375 389.445312 738.058594 394.628906 738.140625 399.816406 C 738.222656 405.003906 738.179688 410.191406 738.019531 415.378906 C 737.855469 420.5625 737.574219 425.742188 737.167969 430.917969 C 736.765625 436.089844 736.238281 441.25 735.59375 446.398438 C 734.949219 451.546875 734.183594 456.675781 733.296875 461.789062 C 732.410156 466.902344 731.40625 471.992188 730.285156 477.058594 C 729.160156 482.125 727.917969 487.160156 726.558594 492.167969 C 725.199219 497.175781 723.726562 502.148438 722.132812 507.085938 C 720.542969 512.027344 718.835938 516.925781 717.015625 521.78125 C 715.195312 526.640625 713.261719 531.457031 711.214844 536.222656 C 709.171875 540.992188 707.015625 545.710938 704.75 550.378906 C 702.480469 555.046875 700.109375 559.660156 697.625 564.214844 L 718.082031 581.664062 Z M 210.714844 102.648438 C 205.949219 105.714844 201.257812 108.890625 196.640625 112.179688 C 192.023438 115.464844 187.488281 118.859375 183.035156 122.363281 C 178.578125 125.863281 174.207031 129.46875 169.925781 133.175781 C 165.640625 136.882812 161.445312 140.691406 157.339844 144.597656 C 153.234375 148.503906 149.222656 152.507812 145.308594 156.601562 C 141.394531 160.699219 137.574219 164.882812 133.859375 169.160156 C 130.140625 173.4375 126.527344 177.800781 123.015625 182.246094 C 119.503906 186.695312 116.097656 191.222656 112.800781 195.832031 C 109.503906 200.4375 106.316406 205.121094 103.238281 209.882812 C 100.164062 214.640625 97.203125 219.46875 94.355469 224.367188 C 91.507812 229.265625 88.777344 234.230469 86.164062 239.257812 C 83.550781 244.289062 81.058594 249.375 78.683594 254.519531 C 76.3125 259.667969 74.0625 264.867188 71.933594 270.117188 C 69.808594 275.371094 67.808594 280.667969 65.929688 286.015625 C 64.054688 291.363281 62.304688 296.753906 60.683594 302.183594 C 59.0625 307.613281 57.570312 313.078125 56.207031 318.578125 C 54.84375 324.078125 53.613281 329.605469 52.511719 335.164062 C 51.410156 340.722656 50.4375 346.304688 49.601562 351.910156 C 48.761719 357.511719 48.058594 363.132812 47.484375 368.773438 C 46.914062 374.410156 46.476562 380.058594 46.171875 385.714844 C 45.863281 391.375 45.695312 397.035156 45.65625 402.703125 C 45.617188 408.371094 45.714844 414.035156 45.945312 419.695312 C 46.175781 425.359375 46.539062 431.011719 47.039062 436.65625 C 47.535156 442.300781 48.167969 447.929688 48.929688 453.542969 C 49.695312 459.160156 50.589844 464.753906 51.617188 470.324219 C 52.648438 475.898438 53.804688 481.445312 55.097656 486.960938 C 56.386719 492.480469 57.808594 497.964844 59.355469 503.414062 C 60.90625 508.863281 62.585938 514.273438 64.390625 519.644531 C 66.195312 525.019531 68.128906 530.34375 70.183594 535.625 C 72.242188 540.902344 74.421875 546.132812 76.726562 551.308594 C 79.03125 556.484375 81.457031 561.605469 84.003906 566.667969 C 86.550781 571.730469 89.214844 576.726562 92 581.664062 L 112.453125 564.214844 C 109.976562 559.65625 107.605469 555.042969 105.347656 550.375 C 103.085938 545.707031 100.933594 540.988281 98.890625 536.21875 C 96.851562 531.449219 94.921875 526.636719 93.105469 521.777344 C 91.289062 516.917969 89.589844 512.019531 88 507.078125 C 86.414062 502.140625 84.941406 497.167969 83.585938 492.160156 C 82.230469 487.152344 80.996094 482.117188 79.875 477.050781 C 78.753906 471.988281 77.753906 466.898438 76.871094 461.789062 C 75.988281 456.675781 75.226562 451.546875 74.582031 446.398438 C 73.941406 441.25 73.417969 436.089844 73.015625 430.917969 C 72.613281 425.746094 72.332031 420.570312 72.171875 415.382812 C 72.011719 410.199219 71.972656 405.015625 72.054688 399.828125 C 72.136719 394.640625 72.339844 389.457031 72.664062 384.28125 C 72.988281 379.105469 73.433594 373.9375 74 368.78125 C 74.5625 363.625 75.25 358.484375 76.054688 353.359375 C 76.859375 348.234375 77.785156 343.132812 78.828125 338.050781 C 79.871094 332.96875 81.035156 327.914062 82.3125 322.886719 C 83.59375 317.859375 84.988281 312.867188 86.5 307.902344 C 88.015625 302.941406 89.640625 298.019531 91.386719 293.132812 C 93.128906 288.246094 94.984375 283.402344 96.953125 278.605469 C 98.921875 273.804688 101 269.054688 103.191406 264.351562 C 105.382812 259.648438 107.683594 255 110.089844 250.40625 C 112.496094 245.8125 115.011719 241.277344 117.632812 236.796875 C 120.25 232.320312 122.972656 227.90625 125.800781 223.558594 C 128.625 219.207031 131.550781 214.925781 134.574219 210.710938 C 137.601562 206.496094 140.722656 202.355469 143.941406 198.289062 C 147.160156 194.222656 150.472656 190.230469 153.878906 186.316406 C 157.285156 182.40625 160.78125 178.574219 164.363281 174.824219 C 167.949219 171.074219 171.617188 167.410156 175.375 163.832031 C 179.128906 160.25 182.964844 156.761719 186.882812 153.363281 C 190.800781 149.964844 194.796875 146.65625 198.871094 143.445312 C 202.941406 140.230469 207.089844 137.117188 211.308594 134.097656 C 215.523438 131.078125 219.8125 128.160156 224.167969 125.339844 Z M 210.714844 102.648438 " fill-opacity="1" fill-rule="evenodd"/><path fill="#ffffff" d="M 313.128906 105.246094 L 300.667969 38.296875 L 321.277344 34.097656 L 326.722656 62.765625 L 344.957031 29.234375 L 366.484375 25.488281 L 347.570312 62.765625 L 384.609375 90.976562 L 358.664062 96.183594 L 328.074219 70.914062 L 333.738281 101.046875 Z M 313.128906 105.246094 " fill-opacity="1" fill-rule="nonzero"/><path fill="#ffffff" d="M 390.164062 93.003906 L 390.164062 24.8125 L 439.332031 24.8125 L 439.332031 39.761719 L 411.6875 39.761719 L 411.6875 51.65625 L 437.742188 51.65625 L 437.742188 66.164062 L 411.6875 66.164062 L 411.6875 93.003906 Z M 390.164062 93.003906 " fill-opacity="1" fill-rule="nonzero"/><path fill="#ffffff" d="M 448.503906 95.050781 L 463.453125 28.542969 L 511.597656 39.429688 L 508.3125 53.921875 L 481.25 47.800781 L 478.636719 59.367188 L 504.125 65.140625 L 500.835938 79.300781 L 475.457031 73.527344 L 469.464844 99.800781 Z M 448.503906 95.050781 " fill-opacity="1" fill-rule="nonzero"/><path fill="#ffffff" d="M 110.800781 634.183594 L 148.296875 599.632812 L 159.277344 611.292969 L 141.71875 627.152344 L 171.171875 625.234375 L 184.089844 638.9375 L 151.238281 639.722656 L 146.925781 675.535156 L 133.113281 660.808594 L 138.210938 630.441406 L 120.996094 646.082031 Z M 110.800781 634.183594 " fill-opacity="1" fill-rule="nonzero"/><path fill="#ffffff" d="M 260.90625 749.847656 L 213.324219 726.277344 L 255.242188 703.164062 L 233.828125 692.636719 L 239.492188 681.308594 L 284.917969 703.964844 L 243.347656 726.84375 L 266.332031 738.410156 Z M 260.90625 749.847656 " fill-opacity="1" fill-rule="nonzero"/><path fill="#ffffff" d="M 307.808594 711.441406 L 308.03125 711.21875 L 325.699219 715.941406 L 331.992188 771.671875 L 316.132812 766.949219 L 315.867188 756.316406 L 307.824219 753.9375 L 307.824219 744.5 L 315.300781 746.652344 L 313.488281 726.609375 L 307.824219 733.40625 Z M 272.910156 754.269531 L 307.808594 711.441406 L 307.808594 733.3125 L 300.335938 742.375 L 307.808594 744.417969 L 307.808594 753.859375 L 294.671875 750.117188 L 288.21875 758.832031 Z M 272.910156 754.269531 " fill-opacity="1" fill-rule="nonzero"/><path fill="#ffffff" d="M 349.03125 773.96875 L 352.777344 723.226562 L 368.636719 724.359375 L 367.050781 747.472656 L 387.332031 725.710938 L 406.132812 727.191406 L 382.5625 750.304688 L 404.433594 778.167969 L 384.261719 776.582031 L 366.703125 752.332031 L 365.003906 775.226562 Z M 349.03125 773.96875 " fill-opacity="1" fill-rule="nonzero"/><path fill="#ffffff" d="M 420.074219 777.933594 L 414.976562 726.515625 L 430.835938 724.925781 L 432.644531 744.292969 L 454.167969 742.25 L 452.234375 722.878906 L 468.332031 721.289062 L 473.539062 772.835938 L 457.566406 774.425781 L 455.632812 754.035156 L 434.109375 756.078125 L 436.152344 776.46875 Z M 420.074219 777.933594 " fill-opacity="1" fill-rule="nonzero"/><path fill="#ffffff" d="M 491.097656 751.894531 C 492.449219 752.113281 496.984375 752.679688 499.375 752.804688 C 503.449219 753.027344 513.078125 753.59375 512.511719 746.921875 C 512.054688 742.042969 504.234375 743.175781 500.964844 742.734375 C 493.097656 741.601562 490.089844 741.601562 485.78125 735.59375 C 480.902344 728.90625 482.632812 721.085938 489.066406 715.769531 C 496.210938 709.992188 506.28125 709.191406 515.015625 711.046875 L 518.300781 722.265625 C 503.683594 718.082031 494.054688 723.507812 499.957031 728.039062 C 502.441406 729.960938 505.398438 729.960938 508.453125 730.417969 C 513.171875 730.984375 518.300781 731.4375 522.046875 734.382812 C 527.253906 738.566406 529.300781 743.820312 527.367188 750.351562 C 523.054688 764.167969 505.335938 765.300781 493.945312 764.167969 Z M 491.097656 751.894531 " fill-opacity="1" fill-rule="nonzero"/><path fill="#ffffff" d="M 662.726562 675.753906 L 623.988281 640.855469 L 633.164062 630.660156 L 672.011719 629.527344 L 651.289062 610.960938 L 661.59375 599.398438 L 700.566406 633.492188 L 690.9375 644.382812 L 652.640625 645.167969 L 673.144531 664.425781 Z M 662.726562 675.753906 " fill-opacity="1" fill-rule="nonzero"/><path fill="#ffffff" d="M 610.097656 664.773438 L 648.832031 687.429688 L 635.804688 697.28125 L 626.851562 690.984375 L 610.097656 703.855469 L 610.097656 692.417969 L 618.703125 685.730469 L 610.097656 680.523438 Z M 610.097656 707.144531 L 612.472656 714.730469 L 610.097656 716.539062 Z M 599.679688 724.359375 L 586.085938 670.4375 L 600.355469 659.109375 L 610.097656 664.773438 L 610.097656 680.507812 L 601.601562 675.1875 L 606.476562 695.234375 L 610.097656 692.402344 L 610.097656 703.839844 L 609.308594 704.40625 L 610.097656 707.128906 L 610.097656 716.570312 Z M 599.679688 724.359375 " fill-opacity="1" fill-rule="nonzero"/><path fill="#ffffff" d="M 193.265625 660.585938 L 202.703125 655.269531 L 217.433594 665.921875 L 203.492188 720.300781 L 193.296875 712.589844 L 193.296875 701.9375 L 193.972656 700.128906 L 193.296875 699.671875 L 193.296875 688.230469 L 196.804688 690.84375 L 202.25 671.476562 L 193.296875 676.574219 Z M 154.527344 683.023438 L 193.265625 660.585938 L 193.265625 676.558594 L 184.3125 681.65625 L 193.265625 688.234375 L 193.265625 699.671875 L 176.269531 686.863281 L 167.207031 692.75 L 154.527344 683.007812 Z M 193.265625 712.589844 L 190.433594 710.433594 L 193.265625 701.9375 Z M 193.265625 712.589844 " fill-opacity="1" fill-rule="nonzero"/><path fill="#ffffff" d="M 563.144531 742.375 L 545.476562 708.386719 L 529.050781 716.082031 L 523.273438 704.753906 L 571.074219 681.199219 L 577.085938 692.070312 L 559.746094 700.898438 L 577.542969 734.882812 Z M 563.144531 742.375 " fill-opacity="1" fill-rule="nonzero"/><path fill="#0f0e6d" d="M 229.515625 574.601562 C 248.554688 584.449219 269.734375 592.945312 290.015625 597.148438 C 302.453125 599.398438 314.988281 600.269531 327.617188 599.757812 C 353.566406 599.300781 378.488281 594.882812 393.703125 574.050781 C 343.351562 571.671875 293.898438 550.449219 258.386719 515.140625 C 230.742188 487.730469 205.144531 450.785156 199.023438 394.378906 C 197.890625 393.136719 193.46875 394.03125 193.816406 396.753906 L 195.96875 434.925781 C 187.253906 417.476562 177.5 392.222656 170.023438 382.703125 C 168.324219 377.605469 165.492188 380.660156 166.878906 386.667969 C 171.1875 406.382812 179.558594 428.367188 190.210938 451.464844 C 190.886719 453.382812 187.945312 454.863281 186.355469 453.164062 C 173.398438 436.300781 161.726562 418.589844 151.347656 400.027344 C 146.140625 392.445312 146.46875 404.75 147.035156 407.613281 C 152.023438 428.066406 167.492188 452.140625 187.597656 477.628906 C 190.320312 481.816406 187.820312 483.074219 183.855469 481.25 L 153.15625 454.625 C 145.289062 448.960938 145.683594 455.757812 147.949219 459.945312 C 158.035156 476.371094 176.160156 489.289062 190.085938 501.292969 C 191.328125 502.207031 191.328125 504.347656 189.171875 503.339844 C 182.578125 499.835938 175.816406 496.691406 168.890625 493.898438 C 162.316406 491.742188 161.984375 496.273438 166.058594 500.914062 C 173.203125 510.65625 185.097656 519.152344 203.222656 525.839844 C 206.054688 526.863281 208.667969 530.023438 204.796875 530.023438 L 190.289062 529.914062 C 187.144531 529.804688 188.023438 533.53125 189.613281 534.445312 C 193.6875 537.5 201.855469 539.542969 212.949219 540.898438 C 214.648438 541.351562 216.09375 543.050781 214.992188 544.296875 C 213.417969 545.316406 206.84375 544.972656 202.75 545.316406 C 200.832031 545.539062 199.808594 547.929688 202.296875 549.503906 C 206.03125 551.433594 211.917969 553.132812 219.964844 554.601562 C 221.664062 555.167969 222.578125 557.214844 220.988281 557.542969 L 211.546875 559.589844 C 209.972656 560.15625 209.628906 562.3125 212.460938 563.773438 C 217.777344 566.039062 227.1875 565.582031 232.503906 566.714844 C 234.660156 567.171875 234.660156 569.4375 231.152344 570.460938 C 227.753906 570.746094 225.21875 571.421875 229.515625 574.601562 Z M 229.515625 574.601562 " fill-opacity="1" fill-rule="evenodd"/><path fill="#0f0e6d" d="M 454.734375 627.953125 C 473.996094 621.660156 477.613281 603.707031 492.011719 602.007812 C 507.304688 600.199219 529.050781 602.007812 538.457031 589.765625 L 573.796875 579.683594 C 578.894531 578.109375 583.882812 575.828125 580.375 572.996094 L 573.011719 571.515625 C 570.523438 571.167969 571.765625 568.007812 575.167969 568.007812 C 581.964844 566.652344 593.292969 566.984375 595.621094 563.820312 C 597.949219 560.660156 589.957031 560.53125 587.125 558.945312 C 584.511719 558.03125 587.125 555.65625 589.957031 555.199219 C 596.53125 553.5 600.371094 555.765625 609.433594 550.101562 C 611.699219 546.703125 606.289062 547.726562 602.984375 546.8125 C 597.539062 545.238281 601.285156 543.195312 605.597656 541.039062 C 611.605469 537.984375 624.964844 537.75 622.023438 529.363281 L 608.996094 529.253906 C 607.640625 528.011719 612.738281 526.640625 614.3125 525.507812 C 622.808594 518.929688 629.605469 517.640625 645.355469 500.019531 C 647.402344 497.753906 647.511719 492.546875 641.28125 494.699219 C 633.808594 497.3125 612.503906 515.15625 618.734375 502.410156 C 631.984375 488.359375 646.035156 478.273438 658.382812 460.496094 C 662.351562 450.1875 656.683594 449.621094 650 455.285156 C 640.023438 463.78125 624.164062 479.53125 620.324219 481.121094 C 617.710938 482.253906 616.925781 479.3125 619.410156 476.246094 C 634.59375 454.375 670.609375 411.5625 661.328125 396.945312 C 659.515625 394.457031 657.707031 399.996094 655.882812 401.476562 C 642.289062 420.84375 628.804688 450.976562 614.972656 463.328125 C 610.789062 466.945312 613.273438 458.449219 614.40625 455.460938 C 623.847656 432.914062 633.101562 410.144531 640.007812 386.8125 C 642.382812 376.269531 639.09375 375.59375 636.71875 378.945312 C 627.546875 395.480469 612.707031 434.109375 611.230469 431.402344 L 611.339844 392.429688 C 611.339844 389.816406 605.453125 389.484375 605.675781 391.75 C 604.320312 426.082031 591.625 458.9375 568.289062 489.398438 C 536.917969 530.402344 494.085938 560.988281 432.976562 574.144531 C 428.6875 574.640625 424.496094 575.589844 420.410156 576.984375 C 416.324219 578.378906 412.429688 580.191406 408.730469 582.417969 C 402.84375 585.929688 397.054688 590.914062 390.714844 594.769531 C 382.480469 599.851562 373.789062 603.964844 364.640625 607.105469 C 356.773438 608.460938 348.105469 614.125 342.09375 620.480469 C 336.996094 625.800781 334.382812 631.699219 335.1875 635.996094 C 335.535156 637.472656 335.753906 640.070312 337.5625 640.070312 C 340.175781 640.179688 339.042969 632.203125 344.359375 633.050781 C 381.210938 631.351562 411.230469 642.460938 454.734375 627.953125 Z M 454.734375 627.953125 " fill-opacity="1" fill-rule="evenodd"/><path fill="#0f0e6d" d="M 391.296875 656.84375 C 392.996094 662.964844 398.769531 662.160156 406.589844 658.320312 C 407.613281 657.644531 409.421875 658.667969 410.773438 659.34375 C 412.152344 659.945312 413.585938 660.355469 415.074219 660.574219 C 416.5625 660.792969 418.054688 660.8125 419.550781 660.632812 C 421.042969 660.453125 422.488281 660.078125 423.878906 659.515625 C 425.273438 658.949219 426.570312 658.210938 427.765625 657.300781 C 428.898438 656.734375 428.898438 658.652344 429.339844 659.109375 C 430.027344 660.058594 430.886719 660.808594 431.917969 661.363281 C 432.953125 661.914062 434.054688 662.210938 435.226562 662.253906 C 438.371094 662.367188 442.132812 660.902344 445.878906 657.535156 C 447.011719 656.75 447.796875 657.316406 448.601562 657.644531 C 452.453125 659.21875 454.609375 663.9375 464.113281 655.035156 C 471.585938 652.546875 476.230469 660.808594 486.316406 647.324219 C 493.457031 652.199219 498.777344 650.722656 502.175781 643.011719 C 515.660156 646.300781 526.183594 645.84375 525.777344 632.816406 C 544.65625 633.164062 556.710938 629.527344 554.773438 616.609375 C 554.429688 614.800781 542.1875 615.933594 535.734375 614.34375 C 525.648438 611.96875 516.699219 608.050781 513.992188 610.726562 C 505.605469 611.859375 496.210938 612.203125 491.445312 616.609375 C 479.4375 626.238281 463.578125 637.789062 447.71875 642.445312 C 438.121094 645.410156 428.304688 647.035156 418.265625 647.324219 C 411.90625 647.464844 405.558594 647.242188 399.226562 646.648438 C 391.183594 645.734375 385.285156 643.816406 384.71875 645.167969 C 380 650.832031 373.5 653.554688 373.609375 657.0625 C 373.957031 661.484375 380.753906 664.882812 391.296875 656.84375 Z M 391.296875 656.84375 " fill-opacity="1" fill-rule="evenodd"/><path fill="#0f0e6d" d="M 405.234375 480.964844 C 407.570312 480.964844 409.898438 480.902344 412.230469 480.789062 C 414.558594 480.671875 416.882812 480.5 419.207031 480.269531 C 421.527344 480.039062 423.839844 479.75 426.148438 479.40625 C 428.453125 479.0625 430.75 478.660156 433.039062 478.203125 C 435.328125 477.75 437.601562 477.234375 439.863281 476.667969 C 442.125 476.097656 444.371094 475.476562 446.605469 474.796875 C 448.835938 474.117188 451.050781 473.382812 453.246094 472.597656 C 455.441406 471.808594 457.613281 470.96875 459.769531 470.074219 C 461.921875 469.179688 464.054688 468.234375 466.164062 467.234375 C 468.269531 466.234375 470.351562 465.183594 472.410156 464.082031 C 474.464844 462.984375 476.492188 461.832031 478.492188 460.632812 C 480.492188 459.429688 482.460938 458.179688 484.398438 456.882812 C 486.335938 455.585938 488.242188 454.242188 490.117188 452.851562 C 491.988281 451.460938 493.824219 450.023438 495.628906 448.542969 C 497.429688 447.0625 499.195312 445.539062 500.921875 443.96875 C 502.648438 442.402344 504.335938 440.792969 505.984375 439.140625 C 507.632812 437.492188 509.238281 435.800781 510.804688 434.070312 C 512.367188 432.34375 513.890625 430.574219 515.367188 428.769531 C 516.847656 426.96875 518.28125 425.128906 519.667969 423.253906 C 521.054688 421.378906 522.394531 419.472656 523.691406 417.53125 C 524.984375 415.589844 526.230469 413.617188 527.429688 411.617188 C 528.625 409.617188 529.773438 407.585938 530.871094 405.527344 C 531.96875 403.46875 533.015625 401.386719 534.011719 399.277344 C 535.007812 397.167969 535.949219 395.035156 536.839844 392.878906 C 537.734375 390.722656 538.570312 388.546875 539.355469 386.351562 C 540.136719 384.152344 540.867188 381.9375 541.542969 379.707031 C 542.21875 377.472656 542.839844 375.226562 543.402344 372.960938 C 543.96875 370.699219 544.476562 368.425781 544.929688 366.136719 C 545.382812 363.847656 545.78125 361.550781 546.121094 359.242188 C 546.460938 356.933594 546.746094 354.621094 546.972656 352.300781 C 547.199219 349.976562 547.367188 347.652344 547.480469 345.320312 C 547.59375 342.992188 547.648438 340.660156 547.648438 338.328125 C 547.644531 335.996094 547.585938 333.664062 547.46875 331.335938 C 547.351562 329.007812 547.179688 326.679688 546.949219 324.359375 C 546.71875 322.039062 546.429688 319.722656 546.085938 317.417969 C 545.742188 315.109375 545.34375 312.8125 544.886719 310.527344 C 544.429688 308.238281 543.917969 305.964844 543.347656 303.703125 C 542.777344 301.441406 542.15625 299.191406 541.476562 296.960938 C 540.796875 294.730469 540.0625 292.515625 539.277344 290.320312 C 538.488281 288.125 537.648438 285.949219 536.753906 283.796875 C 535.859375 281.640625 534.914062 279.511719 533.914062 277.402344 C 532.914062 275.296875 531.863281 273.214844 530.761719 271.15625 C 529.660156 269.101562 528.511719 267.074219 527.308594 265.074219 C 526.109375 263.074219 524.859375 261.105469 523.5625 259.167969 C 522.265625 257.226562 520.921875 255.324219 519.53125 253.449219 C 518.140625 251.578125 516.703125 249.742188 515.222656 247.9375 C 513.738281 246.136719 512.214844 244.371094 510.648438 242.644531 C 509.078125 240.917969 507.46875 239.230469 505.820312 237.582031 C 504.167969 235.933594 502.480469 234.328125 500.75 232.765625 C 499.019531 231.199219 497.253906 229.675781 495.449219 228.199219 C 493.644531 226.71875 491.804688 225.289062 489.929688 223.898438 C 488.054688 222.511719 486.148438 221.171875 484.207031 219.875 C 482.265625 218.582031 480.296875 217.335938 478.292969 216.140625 C 476.292969 214.941406 474.261719 213.792969 472.203125 212.695312 C 470.148438 211.597656 468.0625 210.550781 465.953125 209.554688 C 463.84375 208.558594 461.710938 207.617188 459.554688 206.726562 C 457.398438 205.835938 455.222656 205 453.027344 204.214844 C 450.832031 203.429688 448.617188 202.699219 446.382812 202.027344 C 444.152344 201.351562 441.902344 200.730469 439.640625 200.164062 C 437.375 199.601562 435.101562 199.089844 432.8125 198.636719 C 430.523438 198.183594 428.226562 197.789062 425.917969 197.449219 C 423.613281 197.109375 421.296875 196.824219 418.976562 196.597656 C 416.652344 196.371094 414.328125 196.203125 412 196.089844 C 409.667969 195.976562 407.335938 195.921875 405.003906 195.921875 C 402.671875 195.925781 400.339844 195.984375 398.011719 196.101562 C 395.683594 196.21875 393.355469 196.390625 391.035156 196.621094 C 388.714844 196.851562 386.402344 197.140625 384.09375 197.484375 C 381.785156 197.828125 379.488281 198.226562 377.203125 198.683594 C 374.914062 199.140625 372.640625 199.65625 370.378906 200.222656 C 368.117188 200.792969 365.871094 201.417969 363.636719 202.09375 C 361.40625 202.773438 359.191406 203.507812 356.996094 204.296875 C 354.800781 205.082031 352.628906 205.925781 350.472656 206.820312 C 348.320312 207.714844 346.1875 208.660156 344.078125 209.660156 C 341.972656 210.65625 339.890625 211.707031 337.835938 212.808594 C 335.777344 213.910156 333.75 215.0625 331.75 216.261719 C 329.75 217.464844 327.78125 218.710938 325.84375 220.011719 C 323.90625 221.308594 322 222.652344 320.128906 224.042969 C 318.253906 225.433594 316.417969 226.871094 314.617188 228.351562 C 312.816406 229.832031 311.050781 231.359375 309.324219 232.925781 C 307.597656 234.492188 305.910156 236.101562 304.261719 237.753906 C 302.613281 239.40625 301.007812 241.09375 299.441406 242.824219 C 297.878906 244.554688 296.355469 246.320312 294.878906 248.125 C 293.398438 249.929688 291.964844 251.769531 290.578125 253.644531 C 289.191406 255.519531 287.847656 257.425781 286.554688 259.367188 C 285.261719 261.308594 284.015625 263.277344 282.816406 265.28125 C 281.621094 267.28125 280.472656 269.3125 279.375 271.371094 C 278.277344 273.429688 277.230469 275.511719 276.234375 277.621094 C 275.238281 279.730469 274.296875 281.863281 273.40625 284.019531 C 272.515625 286.175781 271.679688 288.351562 270.894531 290.546875 C 270.109375 292.746094 269.378906 294.960938 268.707031 297.191406 C 268.03125 299.425781 267.410156 301.671875 266.847656 303.9375 C 266.28125 306.199219 265.773438 308.472656 265.320312 310.761719 C 264.867188 313.050781 264.46875 315.347656 264.128906 317.65625 C 263.789062 319.964844 263.503906 322.277344 263.277344 324.597656 C 263.050781 326.921875 262.882812 329.246094 262.769531 331.578125 C 262.65625 333.90625 262.601562 336.238281 262.605469 338.570312 C 262.605469 340.902344 262.664062 343.234375 262.777344 345.5625 C 262.894531 347.894531 263.066406 350.21875 263.292969 352.539062 C 263.523438 354.863281 263.808594 357.175781 264.152344 359.484375 C 264.496094 361.792969 264.894531 364.089844 265.351562 366.375 C 265.808594 368.664062 266.320312 370.9375 266.886719 373.203125 C 267.457031 375.464844 268.078125 377.710938 268.757812 379.945312 C 269.433594 382.175781 270.167969 384.390625 270.953125 386.585938 C 271.742188 388.78125 272.582031 390.957031 273.476562 393.113281 C 274.367188 395.265625 275.316406 397.398438 276.3125 399.507812 C 277.3125 401.613281 278.363281 403.695312 279.460938 405.753906 C 280.5625 407.808594 281.714844 409.839844 282.914062 411.839844 C 284.117188 413.839844 285.363281 415.808594 286.660156 417.746094 C 287.957031 419.683594 289.304688 421.589844 290.695312 423.464844 C 292.085938 425.335938 293.519531 427.171875 295.003906 428.976562 C 296.484375 430.777344 298.007812 432.542969 299.574219 434.269531 C 301.144531 435.996094 302.753906 437.683594 304.402344 439.332031 C 306.054688 440.980469 307.746094 442.585938 309.476562 444.152344 C 311.203125 445.71875 312.972656 447.238281 314.777344 448.71875 C 316.582031 450.195312 318.421875 451.628906 320.296875 453.015625 C 322.171875 454.40625 324.078125 455.746094 326.019531 457.039062 C 327.960938 458.332031 329.933594 459.578125 331.933594 460.777344 C 333.9375 461.972656 335.964844 463.121094 338.023438 464.21875 C 340.082031 465.316406 342.167969 466.363281 344.277344 467.355469 C 346.386719 468.351562 348.519531 469.296875 350.675781 470.183594 C 352.832031 471.074219 355.007812 471.914062 357.207031 472.695312 C 359.402344 473.480469 361.617188 474.207031 363.851562 474.882812 C 366.085938 475.558594 368.332031 476.175781 370.597656 476.738281 C 372.859375 477.304688 375.136719 477.8125 377.425781 478.265625 C 379.714844 478.714844 382.011719 479.113281 384.320312 479.449219 C 386.628906 479.789062 388.941406 480.074219 391.265625 480.296875 C 393.585938 480.523438 395.910156 480.691406 398.242188 480.804688 C 400.570312 480.914062 402.902344 480.96875 405.234375 480.964844 Z M 405.234375 480.964844 " fill-opacity="1" fill-rule="evenodd"/><path fill="#ffffff" d="M 448.960938 459.945312 C 454.507812 457.933594 459.894531 455.550781 465.113281 452.800781 C 470.335938 450.050781 475.34375 446.957031 480.140625 443.519531 C 484.9375 440.082031 489.476562 436.332031 493.761719 432.273438 C 498.042969 428.210938 502.027344 423.878906 505.714844 419.269531 L 505.496094 403.632812 L 463.011719 419.492188 L 434.800781 455.066406 Z M 534.148438 334.195312 C 533.957031 328.320312 533.363281 322.488281 532.367188 316.691406 C 531.371094 310.898438 529.984375 305.203125 528.203125 299.601562 C 526.421875 294 524.265625 288.542969 521.734375 283.242188 C 519.199219 277.9375 516.316406 272.828125 513.078125 267.921875 L 498.003906 263.203125 L 499.957031 308.597656 L 525.132812 346.359375 L 534.195312 334.117188 Z M 440.574219 214.457031 C 429.035156 211.105469 417.253906 209.445312 405.234375 209.46875 C 393.703125 209.460938 382.375 210.96875 371.25 214 L 362.078125 226.917969 L 405.800781 239.160156 L 449.417969 226.917969 Z M 298.179688 266.382812 C 294.863281 271.265625 291.902344 276.355469 289.285156 281.648438 C 286.671875 286.941406 284.4375 292.390625 282.574219 297.992188 C 280.710938 303.59375 279.242188 309.296875 278.167969 315.101562 C 277.09375 320.90625 276.421875 326.757812 276.152344 332.652344 L 285.433594 345.117188 L 310.609375 307.351562 L 312.53125 262.039062 L 298.148438 266.460938 Z M 303.277344 417.699219 C 306.910156 422.363281 310.847656 426.761719 315.082031 430.886719 C 319.316406 435.015625 323.8125 438.835938 328.570312 442.351562 C 333.328125 445.863281 338.304688 449.035156 343.496094 451.867188 C 348.6875 454.703125 354.046875 457.167969 359.574219 459.265625 L 374.300781 454.28125 L 346.089844 418.703125 L 303.5 402.96875 Z M 303.277344 417.699219 " fill-opacity="1" fill-rule="evenodd"/><path fill="#ffffff" d="M 441.816406 392.316406 L 448.113281 401.949219 C 450.945312 406.132812 448.113281 412.820312 445.167969 417.019531 L 441.769531 421.898438 L 441.769531 434.707031 L 449.355469 422.8125 C 453.101562 417.035156 454.910156 407.863281 450.832031 402.355469 C 454.910156 407.800781 464.207031 408.933594 470.769531 407.234375 L 489.117188 402.515625 C 495.691406 400.25 500.664062 399.003906 504.851562 393.074219 C 505.703125 391.785156 506.421875 390.425781 507.003906 389 C 508.925781 383.332031 504.738281 374.050781 493.191406 367.472656 C 506.566406 369.171875 515.628906 363.964844 517.4375 358.191406 C 517.910156 356.71875 518.136719 355.207031 518.113281 353.660156 C 518.222656 346.515625 514.824219 342.550781 510.859375 336.886719 L 498.855469 322.269531 C 494.542969 316.949219 486.265625 312.417969 479.707031 314.558594 C 486.28125 312.402344 490.359375 303.90625 490.71875 297 L 491.851562 278.117188 C 491.742188 271.210938 492.074219 266.003906 487.777344 260.214844 C 486.84375 259.007812 485.792969 257.910156 484.632812 256.925781 C 479.910156 253.417969 469.683594 254.4375 459.929688 263.375 C 465.59375 251.132812 463.4375 240.9375 458.574219 237.429688 C 457.257812 236.589844 455.863281 235.90625 454.390625 235.382812 C 452.347656 234.703125 450.25 234.363281 448.097656 234.363281 C 445.941406 234.363281 443.84375 234.703125 441.800781 235.382812 L 441.800781 243.378906 C 446.113281 242.464844 454.042969 244.949219 452.34375 256.625 C 451.558594 261.613281 447.464844 263.535156 441.800781 263.535156 L 441.800781 266.019531 C 444.242188 266.429688 446.699219 266.542969 449.167969 266.367188 C 446.882812 268.851562 444.429688 271.152344 441.800781 273.273438 L 441.800781 283.578125 C 444.816406 281.707031 447.574219 279.515625 450.078125 277 C 443.957031 288.785156 444.414062 298.636719 448.503906 302.382812 C 452.125 305.667969 462.320312 309.398438 472.296875 299.09375 C 462.554688 302.144531 457 301.703125 454.847656 298.304688 C 452.234375 294.230469 454.5 285.277344 460.289062 274.972656 C 461.644531 279.960938 463.34375 284.414062 466.867188 285.277344 C 463.578125 277.914062 462.902344 271.792969 468.566406 268.960938 C 479.785156 263.40625 484.535156 271.335938 484.425781 275.648438 L 483.96875 299.4375 C 483.859375 304.535156 482.269531 311.679688 477.394531 313.488281 L 451.558594 323.230469 L 441.816406 315.867188 L 441.816406 356.082031 L 452.46875 324.25 L 478.527344 317.109375 C 483.515625 315.753906 489.066406 320.507812 492.121094 324.582031 L 506.5 343.621094 C 509.113281 347.019531 509.898438 356.207031 497.550781 358.238281 C 491.253906 359.371094 488.265625 353.925781 486.675781 346.121094 C 484.300781 348.84375 485.542969 353.484375 487.351562 358.363281 C 476.589844 353.265625 469.449219 347.492188 469.226562 342.628906 C 469.007812 338.664062 473.191406 335.046875 482.933594 331.757812 C 468.769531 329.269531 462.761719 338.332031 461.753906 343.085938 C 460.621094 348.402344 465.9375 356.570312 477.488281 362.453125 C 464.460938 360.300781 455.175781 363.808594 452.910156 368.75 C 450.867188 373.28125 450.425781 384.042969 463.328125 390.382812 C 457.441406 381.996094 456.183594 376.566406 458.605469 373.5 C 461.660156 369.753906 470.847656 369.1875 482.507812 371.453125 C 478.195312 374.398438 474.464844 377.339844 474.640625 380.894531 C 480.648438 375.449219 486.316406 373.027344 490.71875 377.496094 C 499.4375 386.339844 493.332031 393.355469 489.367188 394.601562 L 466.488281 401.507812 C 461.613281 402.984375 454.375 403.425781 451.195312 399.585938 L 441.753906 387.800781 Z M 376.914062 379.636719 L 433.558594 379.636719 L 441.832031 392.316406 L 441.832031 387.898438 L 434.359375 378.457031 L 441.832031 356.019531 L 441.832031 315.851562 L 406.148438 288.441406 L 407.390625 261.929688 C 407.613281 256.832031 413.84375 253.085938 418.609375 251.386719 L 441.15625 243.519531 C 441.378906 243.410156 441.613281 243.410156 441.832031 243.300781 L 441.832031 235.589844 C 440.132812 236.046875 438.214844 236.722656 436.28125 237.289062 L 418.609375 244.195312 C 412.316406 246.683594 405.472656 253.148438 405.472656 259.929688 C 405.472656 253.132812 398.675781 246.683594 392.332031 244.195312 L 374.664062 237.289062 C 372.289062 236.613281 370.132812 235.808594 368.085938 235.367188 L 368.085938 243.234375 C 368.675781 243.242188 369.242188 243.355469 369.785156 243.582031 L 392.222656 251.449219 C 397.101562 253.148438 403.332031 256.894531 403.550781 261.992188 L 404.796875 288.503906 L 368.085938 316.605469 L 368.085938 353.421875 L 375.953125 377.023438 L 375.734375 377.371094 L 368.023438 386.8125 L 368.023438 391.121094 L 376.410156 378.441406 L 376.867188 379.574219 Z M 441.832031 421.898438 L 431.636719 436.625 C 429.261719 440.023438 420.625 443.644531 414.992188 432.660156 C 412.160156 426.996094 416.234375 422.355469 423.140625 418.390625 C 419.742188 417.035156 415.886719 419.742188 411.8125 422.921875 C 413.292969 411.136719 416.691406 402.640625 420.984375 400.894531 C 424.730469 399.414062 429.59375 402.246094 435.714844 410.332031 C 433.667969 396.171875 423.125 393.339844 418.265625 393.796875 C 412.945312 394.363281 406.933594 401.949219 404.890625 414.644531 C 402.84375 401.726562 396.738281 393.90625 391.296875 393.339844 C 386.308594 392.882812 375.890625 395.714844 373.847656 409.878906 C 379.964844 401.726562 384.71875 398.863281 388.464844 400.4375 C 392.996094 402.136719 396.332031 410.632812 397.746094 422.464844 C 393.78125 419.316406 389.707031 416.582031 386.417969 417.933594 C 393.433594 422.007812 397.527344 426.539062 394.566406 432.203125 C 388.792969 443.21875 380.296875 439.679688 377.921875 436.167969 L 368.070312 422.117188 L 368.070312 434.925781 L 370.226562 438.324219 C 374.414062 443.878906 377.132812 448.175781 384.042969 450.332031 C 385.515625 450.804688 387.027344 451.066406 388.574219 451.117188 C 394.457031 451.226562 402.167969 444.320312 404.78125 431.402344 C 407.390625 444.648438 415.085938 451.683594 420.984375 451.574219 C 422.53125 451.523438 424.042969 451.261719 425.515625 450.785156 C 432.316406 448.632812 435.148438 444.210938 439.222656 438.78125 L 441.832031 434.707031 Z M 441.832031 263.515625 L 441.832031 266.003906 C 440.941406 265.867188 440.113281 265.566406 439.347656 265.09375 C 438.578125 264.621094 437.933594 264.015625 437.414062 263.28125 C 438.984375 263.390625 440.464844 263.5 441.832031 263.5 Z M 441.832031 273.257812 L 441.832031 283.5625 C 435.714844 287.183594 430.050781 287.984375 426.761719 286.050781 C 422.574219 283.5625 415.886719 275.035156 422.574219 262.449219 C 422.683594 272.644531 424.839844 277.851562 428.695312 278.875 C 431.84375 279.660156 436.5625 277.632812 441.832031 273.320312 Z M 368.085938 282.886719 L 368.085938 272.46875 C 373.75 277.191406 378.851562 279.722656 382.25 278.765625 C 386.101562 277.742188 388.257812 272.46875 388.367188 262.335938 C 395.167969 275.019531 388.367188 283.515625 384.058594 285.9375 C 380.660156 287.859375 374.617188 287.070312 368.085938 282.792969 Z M 368.085938 266.238281 L 368.085938 263.515625 C 369.910156 263.609375 371.722656 263.535156 373.53125 263.296875 C 372.507812 264.980469 370.558594 265.78125 368.070312 266.222656 Z M 368.085938 422.117188 L 364.34375 416.566406 C 361.289062 412.378906 358.566406 405.691406 361.398438 401.492188 L 368.085938 391.183594 L 368.085938 386.875 L 358.238281 399.226562 C 355.089844 403.191406 347.820312 402.625 342.832031 401.144531 L 320.066406 394.238281 C 315.992188 392.996094 309.980469 385.960938 318.714844 377.132812 C 323.132812 372.601562 328.800781 375.089844 334.683594 380.53125 C 335.03125 376.914062 331.285156 373.957031 326.816406 371.09375 C 338.492188 368.9375 347.773438 369.394531 350.828125 373.136719 C 353.3125 376.191406 352.070312 381.746094 346.105469 390.019531 C 359.132812 383.726562 358.566406 372.917969 356.648438 368.386719 C 354.382812 363.398438 345.320312 360 332.511719 362.09375 C 344.296875 356.082031 349.820312 347.820312 348.59375 342.488281 C 347.570312 337.609375 341.683594 328.671875 327.414062 331.050781 C 337.152344 334.335938 341.355469 338.066406 341.117188 342.0625 C 340.898438 346.785156 333.753906 352.714844 322.992188 357.703125 C 324.800781 352.824219 326.046875 348.261719 323.78125 345.585938 C 322.082031 353.453125 319.058594 358.726562 312.765625 357.703125 C 300.414062 355.65625 301.214844 346.375 303.8125 343.085938 L 318.195312 324.046875 C 321.246094 319.972656 326.800781 315.203125 331.789062 316.574219 L 358.632812 323.9375 L 358.285156 324.15625 L 368.023438 353.5 L 368.023438 316.683594 L 359.75 322.976562 L 359.070312 322.757812 L 332.953125 312.609375 C 328.074219 310.800781 326.5 303.765625 326.375 298.558594 L 325.933594 274.847656 C 325.824219 270.660156 330.65625 262.730469 341.796875 268.269531 C 347.460938 271.101562 346.78125 277.222656 343.496094 284.585938 C 347.003906 283.671875 348.703125 279.265625 350.070312 274.28125 C 355.847656 284.585938 358.222656 293.539062 355.515625 297.613281 C 353.359375 300.902344 347.804688 301.46875 338.066406 298.398438 C 348.042969 308.707031 358.238281 304.851562 361.855469 301.546875 C 365.933594 297.929688 366.386719 288.171875 360.503906 276.625 C 362.800781 279 365.328125 281.097656 368.085938 282.917969 L 368.085938 272.5 C 365.820312 270.585938 363.671875 268.542969 361.636719 266.382812 C 363.789062 266.519531 365.941406 266.480469 368.085938 266.269531 L 368.085938 263.515625 C 362.878906 263.296875 359.246094 261.363281 358.648438 256.609375 C 357.074219 245.738281 363.855469 242.90625 368.085938 243.234375 L 368.085938 235.367188 C 366.773438 234.960938 365.433594 234.703125 364.0625 234.597656 C 362.691406 234.488281 361.324219 234.53125 359.964844 234.726562 C 358.605469 234.921875 357.28125 235.265625 355.996094 235.757812 C 354.710938 236.246094 353.5 236.875 352.351562 237.632812 C 347.476562 241.03125 345.335938 251.117188 350.875 263.234375 C 340.898438 253.949219 330.59375 252.816406 325.699219 256.4375 C 324.507812 257.398438 323.457031 258.492188 322.550781 259.726562 C 318.242188 265.5 318.585938 270.597656 318.476562 277.503906 L 319.609375 296.386719 C 320.066406 303.292969 324.03125 311.789062 330.625 313.835938 C 324.046875 311.789062 315.785156 316.210938 311.476562 321.546875 L 299.421875 336.210938 C 295.457031 341.875 292.167969 345.839844 292.167969 353.09375 C 292.210938 354.628906 292.4375 356.140625 292.847656 357.625 C 294.65625 363.289062 303.5 368.386719 316.636719 366.90625 C 304.851562 373.484375 300.554688 382.988281 302.476562 388.652344 C 303.015625 390.105469 303.734375 391.464844 304.632812 392.726562 C 308.816406 398.613281 313.804688 399.871094 320.367188 402.167969 L 338.601562 406.886719 C 345.289062 408.585938 354.570312 407.453125 358.648438 402.011719 C 354.570312 407.453125 356.382812 416.628906 360 422.464844 L 368.039062 435.050781 Z M 368.085938 422.117188 " fill-opacity="1" fill-rule="evenodd"/><path fill="#f7e013" d="M 405.800781 546.953125 L 394.535156 511.835938 C 390.792969 500.398438 396.347656 491.664062 406.320312 491.789062 C 416.296875 491.917969 421.617188 500.398438 417.871094 511.835938 L 406.652344 546.953125 C 406.367188 547.410156 405.914062 547.410156 405.800781 546.953125 Z M 405.800781 546.953125 " fill-opacity="1" fill-rule="evenodd"/><path fill="#f7e013" d="M 476.9375 534.035156 L 454.328125 505.039062 C 446.964844 495.410156 449.117188 485.433594 458.511719 482.160156 C 467.90625 478.886719 475.960938 484.882812 476.417969 497 L 477.769531 533.816406 C 477.613281 534.382812 477.28125 534.460938 476.9375 534.035156 Z M 476.9375 534.035156 " fill-opacity="1" fill-rule="evenodd"/><path fill="#f7e013" d="M 539.480469 497.675781 L 508.328125 478.070312 C 498.019531 471.617188 496.777344 461.421875 504.363281 455.191406 C 511.945312 448.960938 521.667969 451.792969 526.234375 463.058594 L 540.171875 497.15625 C 540.265625 497.675781 539.921875 497.894531 539.480469 497.675781 Z M 539.480469 497.675781 " fill-opacity="1" fill-rule="evenodd"/><path fill="#f7e013" d="M 585.800781 442.054688 L 549.898438 434.1875 C 538 431.699219 533.25 422.636719 538.347656 414.015625 C 543.445312 405.394531 553.421875 404.953125 561.570312 413.90625 L 586.273438 441.203125 C 586.605469 441.707031 586.367188 442.164062 585.800781 442.054688 Z M 585.800781 442.054688 " fill-opacity="1" fill-rule="evenodd"/><path fill="#f7e013" d="M 610.394531 373.972656 L 573.90625 379.070312 C 561.902344 380.644531 554.300781 373.75 556.128906 363.996094 C 557.953125 354.242188 567.234375 350.292969 578 355.957031 L 610.503906 373.167969 C 610.960938 373.515625 610.851562 373.972656 610.394531 373.972656 Z M 610.394531 373.972656 " fill-opacity="1" fill-rule="evenodd"/><path fill="#f7e013" d="M 610.097656 301.59375 L 577.589844 318.808594 C 566.9375 324.472656 557.417969 320.617188 555.84375 310.765625 C 554.269531 300.917969 561.507812 294.121094 573.515625 295.695312 L 609.984375 300.792969 C 610.503906 300.902344 610.617188 301.34375 610.097656 301.59375 Z M 610.097656 301.59375 " fill-opacity="1" fill-rule="evenodd"/><path fill="#f7e013" d="M 585.125 233.605469 L 560.421875 260.90625 C 552.273438 269.96875 542.078125 269.511719 537.199219 260.796875 C 532.320312 252.078125 536.851562 243.234375 548.636719 240.625 L 584.667969 232.914062 C 585.234375 232.929688 585.472656 233.261719 585.125 233.605469 Z M 585.125 233.605469 " fill-opacity="1" fill-rule="evenodd"/><path fill="#f7e013" d="M 538.347656 178.316406 L 524.53125 212.414062 C 519.8125 223.632812 510.152344 226.792969 502.664062 220.28125 C 495.171875 213.765625 496.367188 203.742188 506.515625 197.277344 L 537.71875 177.859375 C 538.222656 177.53125 538.566406 177.859375 538.347656 178.316406 Z M 538.347656 178.316406 " fill-opacity="1" fill-rule="evenodd"/><path fill="#f7e013" d="M 475.582031 142.410156 L 474.105469 179.117188 C 473.648438 191.234375 465.609375 197.464844 456.324219 194.066406 C 447.042969 190.667969 444.648438 180.691406 452.140625 171.1875 L 474.796875 142.082031 C 475.128906 141.734375 475.582031 141.84375 475.582031 142.410156 Z M 475.582031 142.410156 " fill-opacity="1" fill-rule="evenodd"/><path fill="#f7e013" d="M 404.324219 130.089844 L 415.542969 165.101562 C 419.160156 176.648438 413.84375 185.269531 403.867188 185.144531 C 393.890625 185.019531 388.464844 176.648438 392.191406 165.097656 L 403.410156 130.089844 C 403.648438 129.492188 404.101562 129.492188 404.324219 130.089844 Z M 404.324219 130.089844 " fill-opacity="1" fill-rule="evenodd"/><path fill="#f7e013" d="M 333.0625 142.867188 L 355.609375 171.976562 C 363.082031 181.417969 360.816406 191.453125 351.535156 194.851562 C 342.25 198.25 334.085938 192.019531 333.628906 179.90625 L 332.277344 143.199219 C 332.277344 142.679688 332.734375 142.410156 333.0625 142.867188 Z M 333.0625 142.867188 " fill-opacity="1" fill-rule="evenodd"/><path fill="#f7e013" d="M 270.425781 179.339844 L 301.703125 198.945312 C 311.898438 205.238281 313.253906 215.480469 305.558594 221.820312 C 297.867188 228.164062 288.25 225.109375 283.6875 213.953125 L 269.875 179.859375 C 269.621094 179.339844 269.96875 178.992188 270.425781 179.339844 Z M 270.425781 179.339844 " fill-opacity="1" fill-rule="evenodd"/><path fill="#f7e013" d="M 224.085938 234.960938 L 260.117188 242.667969 C 271.902344 245.28125 276.65625 254.34375 271.667969 262.839844 C 266.679688 271.335938 256.484375 271.902344 248.445312 262.949219 L 223.742188 235.652344 C 223.410156 235.195312 223.632812 234.851562 224.085938 234.960938 Z M 224.085938 234.960938 " fill-opacity="1" fill-rule="evenodd"/><path fill="#f7e013" d="M 199.621094 303.042969 L 236.09375 298.054688 C 248.097656 296.355469 255.570312 303.261719 253.761719 313 C 251.953125 322.742188 242.652344 326.707031 232.015625 321.042969 L 199.433594 303.84375 C 198.929688 303.609375 199.054688 303.167969 199.621094 303.042969 Z M 199.621094 303.042969 " fill-opacity="1" fill-rule="evenodd"/><path fill="#f7e013" d="M 199.839844 375.433594 L 232.347656 358.238281 C 243.109375 352.574219 252.519531 356.539062 254.21875 366.277344 C 255.917969 376.015625 248.445312 383.050781 236.4375 381.351562 L 199.964844 376.253906 C 199.433594 376.113281 199.433594 375.671875 199.839844 375.433594 Z M 199.839844 375.433594 " fill-opacity="1" fill-rule="evenodd"/><path fill="#f7e013" d="M 224.875 443.296875 L 249.578125 416 C 257.617188 407.046875 267.921875 407.5 272.800781 416.109375 C 277.679688 424.714844 273.148438 433.777344 261.25 436.28125 L 225.21875 443.988281 C 224.765625 444.082031 224.605469 443.753906 224.875 443.296875 Z M 224.875 443.296875 " fill-opacity="1" fill-rule="evenodd"/><path fill="#f7e013" d="M 271.558594 498.585938 L 285.5 464.492188 C 290.03125 453.273438 299.769531 450.21875 307.367188 456.625 C 314.96875 463.027344 313.664062 473.050781 303.402344 479.5 L 272.25 499.105469 C 271.667969 499.375 271.433594 499.152344 271.558594 498.585938 Z M 271.558594 498.585938 " fill-opacity="1" fill-rule="evenodd"/><path fill="#f7e013" d="M 334.433594 534.601562 L 335.785156 497.785156 C 336.242188 485.667969 344.390625 479.4375 353.691406 482.949219 C 362.988281 486.457031 365.238281 496.195312 357.765625 505.824219 L 335.21875 534.839844 C 334.746094 535.28125 334.433594 535.167969 334.433594 534.601562 Z M 334.433594 534.601562 " fill-opacity="1" fill-rule="evenodd"/></svg>