<svg id="f14fd382-f461-4316-9f37-407d6f70b609" data-name="Layer 1" xmlns="http://www.w3.org/2000/svg" viewBox="0 0 514.8 514.8"><title>3017442_KAZ AI</title><path d="M298.72,655.12c142.06,0,257.33-115.27,257.33-257.47S440.78,140.32,298.72,140.32,41.25,255.6,41.25,397.65,156.6,655.12,298.72,655.12Z" transform="translate(-41.25 -140.32)" fill="#0f0e6d" fill-rule="evenodd"/><path d="M298.72,580.82c101,0,183-82,183-183.17s-82-183-183-183-183.17,82-183.17,183A183.17,183.17,0,0,0,298.72,580.82Z" transform="translate(-41.25 -140.32)" fill="#fff" fill-rule="evenodd"/><path d="M497.59,510a228.31,228.31,0,0,0-75.46-304.42l-8.5,14.4a211.58,211.58,0,0,1,71,278.93l13,11.09ZM175.17,205.56A228.53,228.53,0,0,0,99.72,510l13-11.09a211.81,211.81,0,0,1,71-278.93Z" transform="translate(-41.25 -140.32)" fill="#f7e013" fill-rule="evenodd"/><polygon points="199.01 66.89 191.09 24.34 204.19 21.67 207.65 39.89 219.24 18.58 232.92 16.2 220.9 39.89 244.44 57.82 227.95 61.13 208.51 45.07 212.11 64.22 199.01 66.89" fill="#fff"/><polygon points="247.97 59.11 247.97 15.77 279.22 15.77 279.22 25.27 261.65 25.27 261.65 32.83 278.21 32.83 278.21 42.05 261.65 42.05 261.65 59.11 247.97 59.11" fill="#fff"/><polygon points="285.05 60.41 294.55 18.14 325.15 25.06 323.06 34.27 305.86 30.38 304.2 37.73 320.4 41.4 318.31 50.4 302.18 46.73 298.37 63.43 285.05 60.41" fill="#fff"/><polygon points="70.42 403.06 94.25 381.1 101.23 388.51 90.07 398.59 108.79 397.37 117 406.08 96.12 406.58 93.38 429.34 84.6 419.98 87.84 400.68 76.9 410.62 70.42 403.06" fill="#fff"/><polygon points="165.82 476.57 135.58 461.59 162.22 446.9 148.61 440.21 152.21 433.01 181.08 447.41 154.66 461.95 169.27 469.3 165.82 476.57" fill="#fff"/><path d="M236.88,592.48l.14-.14,11.23,3,4,35.42-10.08-3L242,621l-5.11-1.51v-6l4.75,1.37-1.15-12.74-3.6,4.32ZM214.7,619.7l22.18-27.22v13.9l-4.75,5.76,4.75,1.3v6l-8.35-2.38-4.1,5.54Z" transform="translate(-41.25 -140.32)" fill="#fff"/><polygon points="221.83 491.9 224.21 459.65 234.29 460.37 233.28 475.06 246.17 461.23 258.12 462.17 243.14 476.86 257.04 494.57 244.22 493.56 233.06 478.15 231.98 492.7 221.83 491.9" fill="#fff"/><polygon points="266.98 494.42 263.74 461.74 273.82 460.73 274.97 473.04 288.65 471.74 287.42 459.43 297.65 458.42 300.96 491.18 290.81 492.19 289.58 479.23 275.9 480.53 277.2 493.49 266.98 494.42" fill="#fff"/><path d="M353.37,618.19c.86.14,3.74.5,5.26.58,2.59.14,8.71.5,8.35-3.74-.29-3.1-5.26-2.38-7.34-2.66-5-.72-6.91-.72-9.65-4.54-3.1-4.25-2-9.22,2.09-12.6,4.54-3.67,10.94-4.18,16.49-3l2.09,7.13c-9.29-2.66-15.41.79-11.66,3.67,1.58,1.22,3.46,1.22,5.4,1.51,3,.36,6.26.65,8.64,2.52,3.31,2.66,4.61,6,3.38,10.15-2.74,8.78-14,9.5-21.24,8.78Z" transform="translate(-41.25 -140.32)" fill="#fff"/><polygon points="421.2 429.48 396.58 407.3 402.41 400.82 427.1 400.1 413.93 388.3 420.48 380.95 445.25 402.62 439.13 409.54 414.79 410.04 427.82 422.28 421.2 429.48" fill="#fff"/><path d="M429,562.82l24.62,14.4-8.28,6.26-5.69-4L429,587.66v-7.27l5.47-4.25L429,572.83v-10Zm0,26.93,1.51,4.82L429,595.72Zm-6.62,10.94-8.64-34.27,9.07-7.2,6.19,3.6v10l-5.4-3.38,3.1,12.74,2.3-1.8v7.27l-.5.36.5,1.73v6Z" transform="translate(-41.25 -140.32)" fill="#fff"/><path d="M164.08,560.16l6-3.38,9.36,6.77-8.86,34.56-6.48-4.9v-6.77l.43-1.15-.43-.29v-7.27l2.23,1.66,3.46-12.31-5.69,3.24Zm-24.62,14.26,24.62-14.26v10.15l-5.69,3.24,5.69,4.18V585l-10.8-8.14-5.76,3.74-8.06-6.19Zm24.62,18.79-1.8-1.37,1.8-5.4Z" transform="translate(-41.25 -140.32)" fill="#fff"/><polygon points="357.91 471.82 346.68 450.22 336.24 455.11 332.57 447.91 362.95 432.94 366.77 439.85 355.75 445.46 367.06 467.06 357.91 471.82" fill="#fff"/><path d="M187.12,505.51c12.1,6.26,25.56,11.66,38.45,14.33a109.44,109.44,0,0,0,23.9,1.66c16.49-.29,32.33-3.1,42-16.34-32-1.51-63.43-15-86-37.44-17.57-17.42-33.84-40.9-37.73-76.75-.72-.79-3.53-.22-3.31,1.51l1.37,24.26c-5.54-11.09-11.74-27.14-16.49-33.19-1.08-3.24-2.88-1.3-2,2.52,2.74,12.53,8.06,26.5,14.83,41.18.43,1.22-1.44,2.16-2.45,1.08a278.3,278.3,0,0,1-22.25-33.77c-3.31-4.82-3.1,3-2.74,4.82,3.17,13,13,28.3,25.78,44.5,1.73,2.66.14,3.46-2.38,2.3l-19.51-16.92c-5-3.6-4.75.72-3.31,3.38,6.41,10.44,17.93,18.65,26.78,26.28.79.58.79,1.94-.58,1.3a135.29,135.29,0,0,0-12.89-6c-4.18-1.37-4.39,1.51-1.8,4.46,4.54,6.19,12.1,11.59,23.62,15.84,1.8.65,3.46,2.66,1,2.66l-9.22-.07c-2-.07-1.44,2.3-.43,2.88,2.59,1.94,7.78,3.24,14.83,4.1,1.08.29,2,1.37,1.3,2.16-1,.65-5.18.43-7.78.65-1.22.14-1.87,1.66-.29,2.66q3.56,1.84,11.23,3.24c1.08.36,1.66,1.66.65,1.87l-6,1.3c-1,.36-1.22,1.73.58,2.66,3.38,1.44,9.36,1.15,12.74,1.87,1.37.29,1.37,1.73-.86,2.38C186,503.06,184.39,503.49,187.12,505.51Z" transform="translate(-41.25 -140.32)" fill="#0f0e6d" fill-rule="evenodd"/><path d="M330.26,539.42c12.24-4,14.54-15.41,23.69-16.49,9.72-1.15,23.54,0,29.52-7.78l22.46-6.41c3.24-1,6.41-2.45,4.18-4.25l-4.68-.94c-1.58-.22-.79-2.23,1.37-2.23,4.32-.86,11.52-.65,13-2.66s-3.6-2.09-5.4-3.1c-1.66-.58,0-2.09,1.8-2.38,4.18-1.08,6.62.36,12.38-3.24,1.44-2.16-2-1.51-4.1-2.09-3.46-1-1.08-2.3,1.66-3.67,3.82-1.94,12.31-2.09,10.44-7.42l-8.28-.07c-.86-.79,2.38-1.66,3.38-2.38,5.4-4.18,9.72-5,19.73-16.2,1.3-1.44,1.37-4.75-2.59-3.38-4.75,1.66-18.29,13-14.33,4.9,8.42-8.93,17.35-15.34,25.2-26.64,2.52-6.55-1.08-6.91-5.33-3.31-6.34,5.4-16.42,15.41-18.86,16.42-1.66.72-2.16-1.15-.58-3.1,9.65-13.9,32.54-41.11,26.64-50.4-1.15-1.58-2.3,1.94-3.46,2.88-8.64,12.31-17.21,31.46-26,39.31-2.66,2.3-1.08-3.1-.36-5,6-14.33,11.88-28.8,16.27-43.63,1.51-6.7-.58-7.13-2.09-5-5.83,10.51-15.26,35.06-16.2,33.34l.07-24.77c0-1.66-3.74-1.87-3.6-.43-.86,21.82-8.93,42.7-23.76,62.06-19.94,26.06-47.16,45.5-86,53.86a38.49,38.49,0,0,0-15.41,5.26c-3.74,2.23-7.42,5.4-11.45,7.85A82.76,82.76,0,0,1,273,526.17c-5,.86-10.51,4.46-14.33,8.5-3.24,3.38-4.9,7.13-4.39,9.86.22.94.36,2.59,1.51,2.59,1.66.07.94-5,4.32-4.46C283.53,541.58,302.61,548.64,330.26,539.42Z" transform="translate(-41.25 -140.32)" fill="#0f0e6d" fill-rule="evenodd"/><path d="M289.94,557.78c1.08,3.89,4.75,3.38,9.72.94.65-.43,1.8.22,2.66.65a10.74,10.74,0,0,0,10.8-1.3c.72-.36.72.86,1,1.15a4.83,4.83,0,0,0,3.74,2c2,.07,4.39-.86,6.77-3,.72-.5,1.22-.14,1.73.07,2.45,1,3.82,4,9.86-1.66,4.75-1.58,7.7,3.67,14.11-4.9,4.54,3.1,7.92,2.16,10.08-2.74,8.57,2.09,15.26,1.8,15-6.48,12,.22,19.66-2.09,18.43-10.3-.22-1.15-8-.43-12.1-1.44-6.41-1.51-12.1-4-13.82-2.3-5.33.72-11.3.94-14.33,3.74-7.63,6.12-17.71,13.46-27.79,16.42a70.26,70.26,0,0,1-18.72,3.1,104.51,104.51,0,0,1-12.1-.43c-5.11-.58-8.86-1.8-9.22-.94-3,3.6-7.13,5.33-7.06,7.56C278.92,560.73,283.24,562.89,289.94,557.78Z" transform="translate(-41.25 -140.32)" fill="#0f0e6d" fill-rule="evenodd"/><path d="M298.8,446a90.58,90.58,0,1,0-90.65-90.5A90.52,90.52,0,0,0,298.8,446Z" transform="translate(-41.25 -140.32)" fill="#0f0e6d" fill-rule="evenodd"/><path d="M326.59,432.64a82,82,0,0,0,36.07-25.85l-.14-9.94-27,10.08-17.93,22.61,9,3.1Zm54.14-79.92a81.29,81.29,0,0,0-13.39-42.12l-9.58-3L359,336.45l16,24,5.76-7.78Zm-59.47-76.1a79.89,79.89,0,0,0-22.46-3.17,81.89,81.89,0,0,0-21.6,2.88l-5.83,8.21,27.79,7.78,27.72-7.78-5.62-7.92Zm-90.5,33a81.61,81.61,0,0,0-14,42.12l5.9,7.92,16-24,1.22-28.8-9.14,2.81ZM234,405.79a82.46,82.46,0,0,0,35.78,26.42l9.36-3.17-17.93-22.61-27.07-10Z" transform="translate(-41.25 -140.32)" fill="#fff" fill-rule="evenodd"/><path d="M322.05,389.66l4,6.12c1.8,2.66,0,6.91-1.87,9.58l-2.16,3.1v8.14l4.82-7.56c2.38-3.67,3.53-9.5.94-13,2.59,3.46,8.5,4.18,12.67,3.1l11.66-3c4.18-1.44,7.34-2.23,10-6a15,15,0,0,0,1.37-2.59c1.22-3.6-1.44-9.5-8.78-13.68,8.5,1.08,14.26-2.23,15.41-5.9a9,9,0,0,0,.43-2.88c.07-4.54-2.09-7.06-4.61-10.66l-7.63-9.29c-2.74-3.38-8-6.26-12.17-4.9,4.18-1.37,6.77-6.77,7-11.16l.72-12c-.07-4.39.14-7.7-2.59-11.38a14,14,0,0,0-2-2.09c-3-2.23-9.5-1.58-15.7,4.1,3.6-7.78,2.23-14.26-.86-16.49a13.09,13.09,0,0,0-2.66-1.3,12.64,12.64,0,0,0-8,0V295c2.74-.58,7.78,1,6.7,8.42-.5,3.17-3.1,4.39-6.7,4.39v1.58a19.66,19.66,0,0,0,4.68.22,43,43,0,0,1-4.68,4.39v6.55a29,29,0,0,0,5.26-4.18c-3.89,7.49-3.6,13.75-1,16.13,2.3,2.09,8.78,4.46,15.12-2.09-6.19,1.94-9.72,1.66-11.09-.5-1.66-2.59-.22-8.28,3.46-14.83.86,3.17,1.94,6,4.18,6.55-2.09-4.68-2.52-8.57,1.08-10.37,7.13-3.53,10.15,1.51,10.08,4.25l-.29,15.12c-.07,3.24-1.08,7.78-4.18,8.93l-16.42,6.19-6.19-4.68v25.56l6.77-20.23,16.56-4.54c3.17-.86,6.7,2.16,8.64,4.75l9.14,12.1c1.66,2.16,2.16,8-5.69,9.29-4,.72-5.9-2.74-6.91-7.7-1.51,1.73-.72,4.68.43,7.78-6.84-3.24-11.38-6.91-11.52-10-.14-2.52,2.52-4.82,8.71-6.91-9-1.58-12.82,4.18-13.46,7.2-.72,3.38,2.66,8.57,10,12.31-8.28-1.37-14.18.86-15.62,4-1.3,2.88-1.58,9.72,6.62,13.75-3.74-5.33-4.54-8.78-3-10.73,1.94-2.38,7.78-2.74,15.19-1.3-2.74,1.87-5.11,3.74-5,6,3.82-3.46,7.42-5,10.22-2.16,5.54,5.62,1.66,10.08-.86,10.87l-14.54,4.39c-3.1.94-7.7,1.22-9.72-1.22l-6-7.49ZM280.8,381.6h36l5.26,8.06v-2.81l-4.75-6,4.75-14.26V341.06l-22.68-17.42.79-16.85c.14-3.24,4.1-5.62,7.13-6.7l14.33-5c.14-.07.29-.07.43-.14v-4.9c-1.08.29-2.3.72-3.53,1.08l-11.23,4.39c-4,1.58-8.35,5.69-8.35,10,0-4.32-4.32-8.42-8.35-10l-11.23-4.39c-1.51-.43-2.88-.94-4.18-1.22v5a2.89,2.89,0,0,1,1.08.22l14.26,5c3.1,1.08,7.06,3.46,7.2,6.7l.79,16.85-23.33,17.86v23.4l5,15-.14.22-4.9,6v2.74l5.33-8.06.29.72Zm41.26,26.86-6.48,9.36c-1.51,2.16-7,4.46-10.58-2.52-1.8-3.6.79-6.55,5.18-9.07-2.16-.86-4.61.86-7.2,2.88.94-7.49,3.1-12.89,5.83-14,2.38-.94,5.47.86,9.36,6-1.3-9-8-10.8-11.09-10.51-3.38.36-7.2,5.18-8.5,13.25-1.3-8.21-5.18-13.18-8.64-13.54-3.17-.29-9.79,1.51-11.09,10.51,3.89-5.18,6.91-7,9.29-6,2.88,1.08,5,6.48,5.9,14-2.52-2-5.11-3.74-7.2-2.88,4.46,2.59,7.06,5.47,5.18,9.07-3.67,7-9.07,4.75-10.58,2.52l-6.26-8.93v8.14l1.37,2.16c2.66,3.53,4.39,6.26,8.78,7.63a10.54,10.54,0,0,0,2.88.5c3.74.07,8.64-4.32,10.3-12.53,1.66,8.42,6.55,12.89,10.3,12.82a10.54,10.54,0,0,0,2.88-.5c4.32-1.37,6.12-4.18,8.71-7.63l1.66-2.59v-8.14Zm0-100.66v1.58a4.22,4.22,0,0,1-2.81-1.73c1,.07,1.94.14,2.81.14Zm0,6.19v6.55c-3.89,2.3-7.49,2.81-9.58,1.58-2.66-1.58-6.91-7-2.66-15,.07,6.48,1.44,9.79,3.89,10.44,2,.5,5-.79,8.35-3.53Zm-46.87,6.12v-6.62c3.6,3,6.84,4.61,9,4,2.45-.65,3.82-4,3.89-10.44,4.32,8.06,0,13.46-2.74,15-2.16,1.22-6,.72-10.15-2Zm0-10.58V307.8a19,19,0,0,0,3.46-.14C278,308.73,276.76,309.24,275.18,309.52Zm0,99.07-2.38-3.53c-1.94-2.66-3.67-6.91-1.87-9.58l4.25-6.55V386.2l-6.26,7.85c-2,2.52-6.62,2.16-9.79,1.22l-14.47-4.39c-2.59-.79-6.41-5.26-.86-10.87,2.81-2.88,6.41-1.3,10.15,2.16.22-2.3-2.16-4.18-5-6,7.42-1.37,13.32-1.08,15.26,1.3,1.58,1.94.79,5.47-3,10.73,8.28-4,7.92-10.87,6.7-13.75-1.44-3.17-7.2-5.33-15.34-4,7.49-3.82,11-9.07,10.22-12.46-.65-3.1-4.39-8.78-13.46-7.27,6.19,2.09,8.86,4.46,8.71,7-.14,3-4.68,6.77-11.52,9.94,1.15-3.1,1.94-6,.5-7.7-1.08,5-3,8.35-7,7.7-7.85-1.3-7.34-7.2-5.69-9.29l9.14-12.1c1.94-2.59,5.47-5.62,8.64-4.75l17.06,4.68-.22.14,6.19,18.65v-23.4l-5.26,4-.43-.14L252.86,339c-3.1-1.15-4.1-5.62-4.18-8.93L248.4,315c-.07-2.66,3-7.7,10.08-4.18,3.6,1.8,3.17,5.69,1.08,10.37,2.23-.58,3.31-3.38,4.18-6.55,3.67,6.55,5.18,12.24,3.46,14.83-1.37,2.09-4.9,2.45-11.09.5,6.34,6.55,12.82,4.1,15.12,2,2.59-2.3,2.88-8.5-.86-15.84a28.51,28.51,0,0,0,4.82,4v-6.62a49.53,49.53,0,0,1-4.1-3.89,25.4,25.4,0,0,0,4.1-.07V307.8c-3.31-.14-5.62-1.37-6-4.39-1-6.91,3.31-8.71,6-8.5v-5a11.77,11.77,0,0,0-10,1.44c-3.1,2.16-4.46,8.57-.94,16.27-6.34-5.9-12.89-6.62-16-4.32a11.2,11.2,0,0,0-2,2.09c-2.74,3.67-2.52,6.91-2.59,11.3l.72,12c.29,4.39,2.81,9.79,7,11.09-4.18-1.3-9.43,1.51-12.17,4.9L231.55,354c-2.52,3.6-4.61,6.12-4.61,10.73a12.07,12.07,0,0,0,.43,2.88c1.15,3.6,6.77,6.84,15.12,5.9-7.49,4.18-10.22,10.22-9,13.82a11.27,11.27,0,0,0,1.37,2.59c2.66,3.74,5.83,4.54,10,6l11.59,3c4.25,1.08,10.15.36,12.74-3.1-2.59,3.46-1.44,9.29.86,13l5.11,8Z" transform="translate(-41.25 -140.32)" fill="#fff" fill-rule="evenodd"/><path d="M299.16,487.94,292,465.62c-2.38-7.27,1.15-12.82,7.49-12.74s9.72,5.47,7.34,12.74l-7.13,22.32C299.52,488.23,299.23,488.23,299.16,487.94Z" transform="translate(-41.25 -140.32)" fill="#f7e013" fill-rule="evenodd"/><path d="M344.37,479.73,330,461.3c-4.68-6.12-3.31-12.46,2.66-14.54s11.09,1.73,11.38,9.43l.86,23.4C344.8,479.95,344.59,480,344.37,479.73Z" transform="translate(-41.25 -140.32)" fill="#f7e013" fill-rule="evenodd"/><path d="M384.12,456.62l-19.8-12.46c-6.55-4.1-7.34-10.58-2.52-14.54s11-2.16,13.9,5l8.86,21.67C384.62,456.62,384.4,456.76,384.12,456.62Z" transform="translate(-41.25 -140.32)" fill="#f7e013" fill-rule="evenodd"/><path d="M413.56,421.27l-22.82-5c-7.56-1.58-10.58-7.34-7.34-12.82s9.58-5.76,14.76-.07l15.7,17.35C414.07,421.05,413.92,421.34,413.56,421.27Z" transform="translate(-41.25 -140.32)" fill="#f7e013" fill-rule="evenodd"/><path d="M429.19,378,406,381.24c-7.63,1-12.46-3.38-11.3-9.58s7.06-8.71,13.9-5.11l20.66,10.94C429.55,377.71,429.48,378,429.19,378Z" transform="translate(-41.25 -140.32)" fill="#f7e013" fill-rule="evenodd"/><path d="M429,332l-20.66,10.94c-6.77,3.6-12.82,1.15-13.82-5.11s3.6-10.58,11.23-9.58l23.18,3.24C429.26,331.56,429.33,331.84,429,332Z" transform="translate(-41.25 -140.32)" fill="#f7e013" fill-rule="evenodd"/><path d="M413.13,288.79l-15.7,17.35c-5.18,5.76-11.66,5.47-14.76-.07s-.22-11.16,7.27-12.82l22.9-4.9C413.2,288.36,413.35,288.57,413.13,288.79Z" transform="translate(-41.25 -140.32)" fill="#f7e013" fill-rule="evenodd"/><path d="M383.4,253.65l-8.78,21.67c-3,7.13-9.14,9.14-13.9,5s-4-10.51,2.45-14.62L383,253.36C383.32,253.15,383.54,253.36,383.4,253.65Z" transform="translate(-41.25 -140.32)" fill="#f7e013" fill-rule="evenodd"/><path d="M343.51,230.83l-.94,23.33c-.29,7.7-5.4,11.66-11.3,9.5s-7.42-8.5-2.66-14.54l14.4-18.5C343.22,230.4,343.51,230.47,343.51,230.83Z" transform="translate(-41.25 -140.32)" fill="#f7e013" fill-rule="evenodd"/><path d="M298.22,223l7.13,22.25c2.3,7.34-1.08,12.82-7.42,12.74s-9.79-5.4-7.42-12.74L297.64,223C297.79,222.62,298.08,222.62,298.22,223Z" transform="translate(-41.25 -140.32)" fill="#f7e013" fill-rule="evenodd"/><path d="M252.93,231.12l14.33,18.5c4.75,6,3.31,12.38-2.59,14.54s-11.09-1.8-11.38-9.5l-.86-23.33C252.43,231,252.72,230.83,252.93,231.12Z" transform="translate(-41.25 -140.32)" fill="#f7e013" fill-rule="evenodd"/><path d="M213.12,254.3,233,266.76c6.48,4,7.34,10.51,2.45,14.54s-11,2.09-13.9-5l-8.78-21.67C212.61,254.3,212.83,254.08,213.12,254.3Z" transform="translate(-41.25 -140.32)" fill="#f7e013" fill-rule="evenodd"/><path d="M183.67,289.65l22.9,4.9c7.49,1.66,10.51,7.42,7.34,12.82s-9.65,5.76-14.76.07l-15.7-17.35C183.24,289.8,183.38,289.58,183.67,289.65Z" transform="translate(-41.25 -140.32)" fill="#f7e013" fill-rule="evenodd"/><path d="M168.12,332.92l23.18-3.17c7.63-1.08,12.38,3.31,11.23,9.5s-7.06,8.71-13.82,5.11L168,333.43C167.68,333.28,167.76,333,168.12,332.92Z" transform="translate(-41.25 -140.32)" fill="#f7e013" fill-rule="evenodd"/><path d="M168.26,378.93,188.92,368c6.84-3.6,12.82-1.08,13.9,5.11s-3.67,10.66-11.3,9.58l-23.18-3.24C168,379.36,168,379.08,168.26,378.93Z" transform="translate(-41.25 -140.32)" fill="#f7e013" fill-rule="evenodd"/><path d="M184.17,422.06l15.7-17.35c5.11-5.69,11.66-5.4,14.76.07s.22,11.23-7.34,12.82l-22.9,4.9C184.1,422.56,184,422.35,184.17,422.06Z" transform="translate(-41.25 -140.32)" fill="#f7e013" fill-rule="evenodd"/><path d="M213.84,457.2l8.86-21.67c2.88-7.13,9.07-9.07,13.9-5s4,10.44-2.52,14.54l-19.8,12.46C213.91,457.7,213.76,457.56,213.84,457.2Z" transform="translate(-41.25 -140.32)" fill="#f7e013" fill-rule="evenodd"/><path d="M253.8,480.09l.86-23.4c.29-7.7,5.47-11.66,11.38-9.43s7.34,8.42,2.59,14.54L254.3,480.24C254,480.52,253.8,480.45,253.8,480.09Z" transform="translate(-41.25 -140.32)" fill="#f7e013" fill-rule="evenodd"/></svg>