<?xml version="1.0" encoding="UTF-8" standalone="no"?>
<svg
   xmlns:dc="http://purl.org/dc/elements/1.1/"
   xmlns:cc="http://creativecommons.org/ns#"
   xmlns:rdf="http://www.w3.org/1999/02/22-rdf-syntax-ns#"
   xmlns:svg="http://www.w3.org/2000/svg"
   xmlns="http://www.w3.org/2000/svg"
   xmlns:sodipodi="http://sodipodi.sourceforge.net/DTD/sodipodi-0.dtd"
   xmlns:inkscape="http://www.inkscape.org/namespaces/inkscape"
   version="1.1"
   id="svg2"
   xml:space="preserve"
   width="1608.3199"
   height="1145.1973"
   viewBox="0 0 1608.3199 1145.1973"
   sodipodi:docname="FFK_NA_cmyk.ai"><metadata
     id="metadata8"><rdf:RDF><cc:Work
         rdf:about=""><dc:format>image/svg+xml</dc:format><dc:type
           rdf:resource="http://purl.org/dc/dcmitype/StillImage" /></cc:Work></rdf:RDF></metadata><defs
     id="defs6"><clipPath
       clipPathUnits="userSpaceOnUse"
       id="clipPath18"><path
         d="M 0,858.898 H 1206.236 V 0 H 0 Z"
         id="path16" /></clipPath></defs><sodipodi:namedview
     pagecolor="#ffffff"
     bordercolor="#666666"
     borderopacity="1"
     objecttolerance="10"
     gridtolerance="10"
     guidetolerance="10"
     inkscape:pageopacity="0"
     inkscape:pageshadow="2"
     inkscape:window-width="640"
     inkscape:window-height="480"
     id="namedview4" /><g
     id="g10"
     inkscape:groupmode="layer"
     inkscape:label="FFK_NA_cmyk"
     transform="matrix(1.3333333,0,0,-1.3333333,0,1145.1973)"><g
       id="g12"><g
         id="g14"
         clip-path="url(#clipPath18)"><g
           id="g20"
           transform="translate(756.3946,476.7453)"><path
             d="M 0,0 V 278.664 H -302.067 V 0 c -0.241,-2.95 -2.518,-36.536 14.052,-81.043 9.955,-26.74 24.699,-51.842 43.822,-74.607 23.857,-28.4 54.626,-53.213 91.454,-73.752 l 1.706,-0.952 1.705,0.952 c 36.828,20.539 67.598,45.352 91.454,73.752 19.123,22.765 33.867,47.867 43.822,74.607 C 2.519,-36.536 0.241,-2.95 0,0"
             style="fill:#2a499a;fill-opacity:1;fill-rule:nonzero;stroke:none"
             id="path22" /></g><g
           id="g24"
           transform="translate(604.1949,252.5226)"><path
             d="m 0,0 c -149.631,83.448 -148.401,208.902 -147.635,224.57 l 0.102,18.398 v 129.37 H 147.533 V 240.845 l 0.165,-17.865 C 148.35,201.845 145.404,81.091 0,0 M -147.533,501.51 H 0 147.533 v -86.693 h -295.066 z m 312.396,17.33 h -329.726 l -0.021,-307.38 c 0.72,-15.616 3.834,-41.148 14.941,-70.981 10.508,-28.227 26.05,-54.698 46.194,-78.677 24.94,-29.692 57.007,-55.576 95.308,-76.937 L 0,-19.842 l 8.441,4.707 c 38.301,21.361 70.367,47.245 95.308,76.937 20.143,23.979 35.685,50.45 46.194,78.677 11.233,30.173 14.29,55.941 14.964,71.506 z"
             style="fill:#d0a650;fill-opacity:1;fill-rule:nonzero;stroke:none"
             id="path26" /></g><g
           id="g28"
           transform="translate(544.0508,632.9879)"><path
             d="m 0,0 -9.108,6.405 -9.105,-6.409 3.505,10.328 -9.138,6.371 11.275,-0.025 3.458,10.345 3.467,-10.341 11.271,0.026 -9.133,-6.371 z"
             style="fill:#ffffff;fill-opacity:1;fill-rule:nonzero;stroke:none"
             id="path30" /></g><g
           id="g32"
           transform="translate(636.418,632.9879)"><path
             d="m 0,0 -9.108,6.405 -9.105,-6.409 3.504,10.328 -9.138,6.371 11.276,-0.025 3.458,10.345 3.467,-10.341 11.271,0.026 -9.134,-6.371 z"
             style="fill:#ffffff;fill-opacity:1;fill-rule:nonzero;stroke:none"
             id="path34" /></g><g
           id="g36"
           transform="translate(497.8677,632.9879)"><path
             d="m 0,0 -9.109,6.405 -9.104,-6.409 3.505,10.328 -9.139,6.371 11.276,-0.025 3.458,10.345 3.467,-10.341 11.271,0.026 -9.134,-6.371 z"
             style="fill:#ffffff;fill-opacity:1;fill-rule:nonzero;stroke:none"
             id="path38" /></g><g
           id="g40"
           transform="translate(682.6006,632.9879)"><path
             d="m 0,0 -9.108,6.405 -9.104,-6.409 3.504,10.328 -9.138,6.371 11.276,-0.025 3.458,10.345 3.466,-10.341 11.272,0.026 -9.134,-6.371 z"
             style="fill:#ffffff;fill-opacity:1;fill-rule:nonzero;stroke:none"
             id="path42" /></g><g
           id="g44"
           transform="translate(728.7842,632.9879)"><path
             d="m 0,0 -9.108,6.405 -9.105,-6.409 3.505,10.328 -9.138,6.371 11.276,-0.025 3.458,10.345 3.466,-10.341 11.271,0.026 -9.133,-6.371 z"
             style="fill:#ffffff;fill-opacity:1;fill-rule:nonzero;stroke:none"
             id="path46" /></g><g
           id="g48"
           transform="translate(590.2344,632.9879)"><path
             d="m 0,0 -9.108,6.405 -9.105,-6.409 3.505,10.328 -9.138,6.371 11.275,-0.025 3.458,10.345 3.467,-10.341 11.271,0.026 -9.134,-6.371 z"
             style="fill:#ffffff;fill-opacity:1;fill-rule:nonzero;stroke:none"
             id="path50" /></g><g
           id="g52"
           transform="translate(580.2613,549.9069)"><path
             d="m 0,0 c -14.584,-8.42 -24.201,-12.252 -28.697,-13.805 l -3.246,-0.991 2.793,2.081 0.006,-0.003 c 3.57,3.083 11.693,9.48 26.183,17.845 14.284,8.248 25.224,12.868 31.253,14.626 C 23.756,15.411 14.286,8.248 0,0 m 34.743,15.786 c 4.796,-10.203 7.482,-21.585 7.482,-33.584 0,-11.999 -2.686,-23.381 -7.482,-33.584 -1.49,1.584 -3.445,3.354 -5.951,5.387 -6.357,5.155 -15.271,11.12 -25.1,16.795 -7.922,4.574 -16.412,8.487 -23.171,11.402 6.759,2.915 15.249,6.828 23.171,11.402 9.829,5.675 18.743,11.64 25.1,16.795 2.506,2.033 4.461,3.803 5.951,5.387 M -2.961,-40.723 c -14.49,8.365 -22.613,14.762 -26.183,17.845 l -0.006,-0.003 -2.793,2.081 3.246,-0.991 c 4.496,-1.553 14.113,-5.385 28.697,-13.805 14.286,-8.247 23.756,-15.411 28.292,-19.753 -6.029,1.758 -16.969,6.378 -31.253,14.626 m -27.401,-56.013 c 0.594,2.036 1.124,4.526 1.612,7.59 1.286,8.081 1.994,18.783 1.994,30.134 0,9.483 -0.484,18.41 -1.402,25.892 5.985,-4.491 13.4,-9.319 21.505,-13.999 9.83,-5.675 19.452,-10.413 27.094,-13.339 3.016,-1.155 5.524,-1.962 7.64,-2.461 -13.133,-18.883 -34.262,-31.803 -58.443,-33.817 m -6.739,3.346 c -1.492,6.099 -2.961,17.883 -2.961,34.378 0,16.629 1.46,26.839 2.347,31.512 l -0.003,0.002 0.071,0.35 c 0.068,0.351 0.133,0.672 0.192,0.953 l 0.396,1.959 0.545,-3.125 c 0.906,-4.719 2.373,-14.938 2.373,-31.651 0,-16.495 -1.468,-28.279 -2.96,-34.378 m -8.821,80.074 c -4.463,1.554 -14.059,5.392 -28.529,13.746 -14.285,8.247 -23.755,15.411 -28.291,19.753 6.029,-1.759 16.969,-6.379 31.252,-14.625 14.56,-8.406 22.685,-14.812 26.287,-17.936 l 3.028,-2.432 z m 0.719,-9.902 c -3.602,-3.124 -11.727,-9.53 -26.287,-17.935 -14.283,-8.247 -25.223,-12.867 -31.252,-14.626 4.536,4.342 14.006,11.506 28.291,19.753 14.47,8.355 24.066,12.192 28.529,13.746 l 3.747,1.494 z m -48.993,-49.325 c -0.076,0.08 -0.153,0.16 -0.229,0.24 -0.327,0.344 -0.649,0.692 -0.97,1.041 -0.197,0.216 -0.393,0.433 -0.587,0.652 -0.223,0.247 -0.444,0.496 -0.664,0.746 -0.342,0.393 -0.681,0.79 -1.016,1.19 -0.083,0.098 -0.167,0.196 -0.25,0.295 -1.379,1.662 -2.699,3.387 -3.954,5.173 -0.004,0.005 -0.008,0.011 -0.011,0.016 1.979,0.506 4.272,1.262 6.985,2.301 7.639,2.926 17.262,7.663 27.094,13.34 8.212,4.741 15.701,9.624 21.722,14.16 -0.897,-7.43 -1.37,-16.264 -1.37,-25.623 0,-11.351 0.708,-22.053 1.994,-30.134 0.486,-3.054 1.014,-5.538 1.606,-7.57 -19.722,1.698 -37.403,10.65 -50.35,24.173 M 28.081,27.323 c -2.116,-0.499 -4.624,-1.306 -7.64,-2.46 -7.642,-2.927 -17.264,-7.665 -27.094,-13.34 -8.105,-4.68 -15.52,-9.508 -21.505,-13.999 0.918,7.481 1.402,16.409 1.402,25.892 0,11.351 -0.708,22.053 -1.994,30.134 -0.236,1.478 -0.481,2.816 -0.739,4.04 h -7.565 c 1.475,-6.153 2.913,-17.853 2.913,-34.174 0,-16.713 -1.467,-26.932 -2.373,-31.651 l -0.545,-3.125 -0.396,1.959 c -0.059,0.28 -0.124,0.602 -0.192,0.953 l -0.071,0.35 0.003,0.002 c -0.887,4.673 -2.347,14.883 -2.347,31.512 0,16.321 1.438,28.021 2.914,34.174 h -7.566 c -0.257,-1.224 -0.503,-2.563 -0.738,-4.04 -1.286,-8.081 -1.994,-18.783 -1.994,-30.134 0,-9.358 0.473,-18.193 1.37,-25.623 -6.021,4.536 -13.51,9.419 -21.722,14.16 -9.832,5.677 -19.455,10.415 -27.094,13.339 -2.713,1.04 -5.006,1.795 -6.985,2.302 0.002,0.004 0.005,0.008 0.008,0.012 1.257,1.789 2.579,3.517 3.961,5.181 0.076,0.092 0.155,0.183 0.233,0.276 0.34,0.406 0.685,0.81 1.033,1.209 0.215,0.246 0.433,0.489 0.651,0.732 0.199,0.224 0.4,0.446 0.601,0.667 0.317,0.345 0.636,0.689 0.958,1.029 0.081,0.085 0.162,0.17 0.243,0.254 8.981,9.379 20.243,16.551 32.881,20.636 h -31.929 c -4.687,-3.506 -9.034,-7.441 -12.99,-11.741 V 13.357 c 0.894,-0.796 1.883,-1.634 2.985,-2.528 6.355,-5.154 15.269,-11.119 25.099,-16.795 8.105,-4.679 23.518,-11.828 23.518,-11.828 h -0.017 c 0,0 0.006,-0.003 0.008,-0.004 -0.002,-0.001 -0.008,-0.004 -0.008,-0.004 h 0.017 c 0.154,-0.066 -15.413,-7.15 -23.518,-11.828 -9.83,-5.676 -18.744,-11.641 -25.099,-16.795 -1.102,-0.894 -2.091,-1.732 -2.985,-2.529 v -32.49 c 17.208,-18.705 41.875,-30.447 69.235,-30.447 51.883,0 94.092,42.21 94.092,94.093 0,30.813 -14.888,58.214 -37.848,75.388 H -12.662 C 4.005,52.198 18.273,41.424 28.081,27.323"
             style="fill:#d0a650;fill-opacity:1;fill-rule:nonzero;stroke:none"
             id="path54" /></g><g
           id="g56"
           transform="translate(659.2969,328.6789)"><path
             d="m 0,0 c -10.636,-4.301 -32.967,-2.8 -32.967,-2.8 0,0 1.004,-5.382 1.817,-10.408 -19.545,9.173 -34.202,25.048 -41.489,45.347 5.737,-4.225 17.166,-8.054 17.166,-8.054 0.062,3.079 8.842,29.225 8.842,29.225 -1.783,1.951 -13.766,28.759 -13.766,28.759 l -15.757,-9.128 c 3.752,21.97 16.63,40.46 34.374,52.375 -0.273,-4.253 -0.328,-9.021 0.224,-13.659 0,0 23.181,3.263 34.151,-0.174 0,0 12.26,17.543 17.692,20.269 0,0 -3.987,3.351 -10.321,6.936 17.791,0.062 34.468,-4.865 48.12,-14.633 -0.97,-0.175 -2.003,-0.398 -3.114,-0.681 0,0 12.766,-22.698 13.739,-28.439 0,0 3.94,-1.734 8.37,-4.238 3.2,10.907 5.184,20.894 6.388,29.555 -19.028,22.313 -48.169,35.462 -79.551,32.797 -51.655,-4.386 -90.11,-49.98 -85.724,-101.635 3.521,-41.451 33.578,-74.396 72.007,-83.53 0.403,0.313 0.816,0.626 1.214,0.94 9.905,7.814 18.772,15.794 26.712,23.842 C 3.305,-3.237 0,0 0,0"
             style="fill:#ffffff;fill-opacity:1;fill-rule:nonzero;stroke:none"
             id="path58" /></g><g
           id="g60"
           transform="translate(702.7452,369.9826)"><path
             d="m 0,0 c -0.082,0.963 -2.905,34.212 -2.905,34.212 l -32.667,10.329 -21.095,-31.64 23.355,-26.408 c 0,0 33.394,12.543 33.312,13.507"
             style="fill:#ffffff;fill-opacity:1;fill-rule:nonzero;stroke:none"
             id="path62" /></g><g
           id="g64"
           transform="translate(563.4756,733.8082)"><path
             d="m 0,0 c -2.735,0.021 -5.381,0.033 -7.939,0.033 -3.176,0 -5.779,-0.959 -7.807,-2.878 -2.029,-1.919 -3.043,-4.423 -3.043,-7.509 v -35.528 h 14.356 v 17.665 h 16.342 v 9.527 H -4.433 v 5.358 c 0,0.706 0.254,1.279 0.761,1.721 0.507,0.44 1.201,0.661 2.084,0.661 h 15.945 l 0.662,10.056 c -2.074,0.309 -4.412,0.53 -7.014,0.662 C 5.402,-0.1 2.734,-0.023 0,0"
             style="fill:#ffffff;fill-opacity:1;fill-rule:nonzero;stroke:none"
             id="path66" /></g><g
           id="g68"
           transform="translate(602.1138,733.8082)"><path
             d="m 0,0 c -2.736,0.021 -5.383,0.033 -7.939,0.033 -3.177,0 -5.78,-0.959 -7.808,-2.878 -2.029,-1.919 -3.044,-4.423 -3.044,-7.509 v -35.528 h 14.357 v 17.665 h 16.342 v 9.527 H -4.434 v 5.358 c 0,0.706 0.254,1.279 0.762,1.721 0.506,0.44 1.201,0.661 2.084,0.661 h 15.943 l 0.662,10.056 c -2.074,0.309 -4.412,0.53 -7.014,0.662 C 5.402,-0.1 2.732,-0.023 0,0"
             style="fill:#ffffff;fill-opacity:1;fill-rule:nonzero;stroke:none"
             id="path70" /></g><g
           id="g72"
           transform="translate(648.0264,687.9264)"><path
             d="M 0,0 H 15.944 L 5.293,18.988 C 4.764,20.002 4.024,20.939 3.076,21.799 2.127,22.66 1.345,23.222 0.728,23.487 v 0.264 c 0.617,0.265 1.3,0.749 2.05,1.456 0.75,0.705 1.411,1.565 1.986,2.58 L 15.282,45.65 H -0.133 L -9.668,28.316 h -2.475 c 0.045,0.21 0.096,0.416 0.135,0.629 0.33,1.786 0.496,3.516 0.496,5.193 V 45.65 H -25.868 V 0 h 14.356 v 14.886 c 0,1.242 -0.191,2.635 -0.56,4.168 h 2.414 z"
             style="fill:#ffffff;fill-opacity:1;fill-rule:nonzero;stroke:none"
             id="path74" /></g></g></g></g></svg>
