<svg id="96a3b28c-adb6-449a-a720-2b3db6d44d06" data-name="Layer 1" xmlns="http://www.w3.org/2000/svg" viewBox="0 0 174.82 174.89"><title>3017426_LVA AI</title><path d="M306,482.4A86.4,86.4,0,1,0,219.6,396,86.56,86.56,0,0,0,306,482.4Z" transform="translate(-218.66 -308.45)" fill="#fff" fill-rule="evenodd"/><path d="M385.06,358.49a87.41,87.41,0,0,1,0,74.88V385.2l.22-.22c.65-.43,1.3-.72,1.73-1a4.07,4.07,0,0,1,.86-.43.39.39,0,0,1,.43.29l.43-.07-.94-4.68-.36.07c0,.29-.14.43-.36.43a2.31,2.31,0,0,1-.94-.07l-1.08-.14V358.49Zm0,22.75.86-.5-.86-.07Zm-.94-24.62c.29.65.65,1.22.94,1.87v20.88l-.94-.22V356.62Zm.94,76.75c-.29.65-.65,1.22-.94,1.8V385.63c.36-.14.65-.29.94-.43v48.17Zm0-52.7v.58l-.94.5v-1.22l.94.14Zm-8.5,66.82V377.57l.58,3.17.43-.07c-.07-.5.14-.79.5-.86v3.89l-.29.07.29,1.66v59.9c-.5.79-1,1.44-1.51,2.16Zm0-70.27.29-.07a1.94,1.94,0,0,0,.5.58,3.36,3.36,0,0,0,.72.36h0v-5l-1.51.14v4Zm0-5.62v-3.46l1.51-.58v4.75c-.07-.07-.07-.07-.14-.07a3.42,3.42,0,0,1-1.37-.65Zm0-7.06v-6.26c.14-.22.29-.36.43-.58a4.73,4.73,0,0,0,.86-2.16,2.45,2.45,0,0,0,0-1.44,5.77,5.77,0,0,0-.36-1.51c-.22-.43-.43-.86-.72-1.37-.07-.07-.14-.22-.22-.29v-6.55c.5.65,1,1.37,1.51,2.09v17.42l-1.51.65Zm1.51-18.07v17.42l2.45-.94a3,3,0,0,0,1.08-.72c.22-.22.22-.43.14-.79l.36-.14L384,366l-.36.22a.67.67,0,0,0-.65-.5,2.27,2.27,0,0,0-1.22.29l-3.74,1.51v4.75a7.1,7.1,0,0,0,1.73.22v.36l-1.73.14v5a9.39,9.39,0,0,0,.94.22l5.11.86V356.62a89.86,89.86,0,0,0-6-10.15Zm6,88.7V385.63c-.43.29-.94.5-1.51.86-1,.58-1.66.94-1.8,1a6.64,6.64,0,0,1-.58.36,1.29,1.29,0,0,0-.5.36,1.91,1.91,0,0,0-.36.43.78.78,0,0,0-.14.58l-.36.07-.79-3.89v59.9a89.86,89.86,0,0,0,6-10.15Zm0-54.65-1.44-.22a3.6,3.6,0,0,1-.36,2.38l1.8-.94v-1.22Zm-6,3.17h.07a.89.89,0,0,0,.43.58,1,1,0,0,0,.65.14,1.91,1.91,0,0,0,1.08-.65,9.38,9.38,0,0,0,.72-1.08,5.17,5.17,0,0,0,.22-2.59l-1.73-.29a4.12,4.12,0,0,0-1.37,0h-.07Zm-1.51-39.31v6.55a8.71,8.71,0,0,0-1.37-1.44c-.29-.14-.5-.36-.79-.5v-7.42q1.08,1.3,2.16,2.81Zm0,13.9v6.26l-2.16.86v-5.54a3,3,0,0,0,.79-.5c.5-.36.94-.72,1.37-1.08Zm0,9.86v3.46a.39.39,0,0,1-.29-.22,3.27,3.27,0,0,1-1.08-1.37,1.16,1.16,0,0,1-.14-.79.44.44,0,0,1,.22-.43,3,3,0,0,1,.5-.36l.79-.29Zm0,5-1.51.14c.14-.14.07-.58-.14-1.08l-.5-1.22v79.27q1.08-1.3,2.16-2.81V377.57l-.07-.36h.07v-4Zm-2.16-17.78v-4.32h.14a2,2,0,0,1,.86.65,1.45,1.45,0,0,1,.29.94,2.29,2.29,0,0,1-.14,1,3.88,3.88,0,0,1-.5.94A3.14,3.14,0,0,1,374.4,355.39Zm0-13.82V349a6.23,6.23,0,0,0-1.22-.5l-.07-.07v-8.5c.43.58.86,1.08,1.3,1.66Zm0,9.5v4.32a6.21,6.21,0,0,1-1.3,1v-5.33c.07,0,.14-.07.22-.07a5.1,5.1,0,0,1,1.08.07Zm0,8.78v5.54a2.63,2.63,0,0,1-1.3.29h0v-5.47l.72-.22a1.36,1.36,0,0,0,.58-.14Zm0,11.16v79.27c-.43.58-.86,1.08-1.3,1.58V407.16a68.29,68.29,0,0,0,0-22.54V367.7l1.3,3.31Zm-9.22,89.28v-8.71a1.57,1.57,0,0,1,.58.36.91.91,0,0,1,.29.65,1.16,1.16,0,0,1-.22.65l.29.29,1.37-1.44V458l-2.3,2.3Zm0-12.46V429.41c.79-1.44,1.58-2.88,2.3-4.46v24c-.07-.07-.07-.07-.14-.07l-1.87-.86a.55.55,0,0,1-.29-.14Zm0-85.46V347a3.19,3.19,0,0,0,.36-1.08,3.52,3.52,0,0,0-.07-1.73,7.47,7.47,0,0,1-.29-.72v-.72a3.87,3.87,0,0,0,1.51.36,1.47,1.47,0,0,0,.79,0v7.2a6.88,6.88,0,0,0-.86,1.15,5.49,5.49,0,0,0-.43,1.44,4.71,4.71,0,0,0,.14,2.23,6.9,6.9,0,0,0,1,2.23c0,.07.07.14.14.22v9.14c-.72-1.44-1.51-2.88-2.3-4.39Zm0-21.31v-2.38c.07.07.22.14.29.22a2.54,2.54,0,0,1,.58.94.87.87,0,0,1-.29.86,1.57,1.57,0,0,1-.58.36Zm0-4,2.3,2.38v-5.69c-.79-.72-1.51-1.51-2.3-2.23v5.54Zm6.84,1.51v9.65a5.56,5.56,0,0,1,1.08.14v-8.5l-1.08-1.3Zm1.08,113.26V407.16c-.29,1.73-.65,3.46-1.08,5.11v40.9l1.08-1.3Zm0-100.8a6.34,6.34,0,0,0-1.08.36V357a1.92,1.92,0,0,0,.72-.43c.14-.07.22-.14.36-.22v-5.33Zm0,9.14c-.22,0-.5.07-.72.07H372v19.22c.43,1.66.79,3.38,1.08,5.11V367.7l-.94-2.38.36-.14c.14.29.29.5.58.5v-5.47Zm-5.62-26.42v5.69a11,11,0,0,1,.94,1.08,2.44,2.44,0,0,1,.43,1.08,1.5,1.5,0,0,1-.5,1.08,2,2,0,0,1-.86.43v7.2c0-.07.07-.07.07-.14a8.29,8.29,0,0,1,1.22-1,6.54,6.54,0,0,1,2.23-.86,4.43,4.43,0,0,1,1-.07v-9.65c-1.44-1.66-3-3.31-4.54-4.82ZM372,453.17v-40.9a66.12,66.12,0,0,1-4.54,12.67v24c.14.07.36.14.5.22a1.36,1.36,0,0,0,.58.14,1.59,1.59,0,0,0,.58.07.65.65,0,0,0,.5-.22l.29.29-2.45,2.66V458c1.58-1.51,3.1-3.17,4.54-4.82Zm0-101.74V357a3.4,3.4,0,0,1-1.22.5,2.59,2.59,0,0,1-1.3-.07,1.53,1.53,0,0,1-.94-.72,1.59,1.59,0,0,1-.22-1.3,3.57,3.57,0,0,1,.58-1.44,8.17,8.17,0,0,1,2.3-2.09,4.84,4.84,0,0,1,.79-.5Zm0,8.86a2.8,2.8,0,0,1-1.08-.14,4.84,4.84,0,0,1-2-1,5.73,5.73,0,0,1-1.44-1.51v9.14A68.62,68.62,0,0,1,372,379.51Zm-6.84-28.73v5.54l-.94-1v-5.4l.94.86Zm0,7.13v2.38h-.43a1.23,1.23,0,0,1-.5-.07v-2.52c.14-.07.22-.14.29-.14a1.47,1.47,0,0,1,.65.36Zm0,4.1v.72c-.14-.29-.36-.65-.58-1a2.16,2.16,0,0,0,.58.29Zm0,4.25v15.34c-.29-.5-.65-1-.94-1.58V347.9a1.91,1.91,0,0,0,.43-.36,1.68,1.68,0,0,0,.5-.5Zm0,82.37v18.43a3.72,3.72,0,0,1-.94-.43V431c.29-.5.65-1,.94-1.58Zm0,22.18v8.71l-.94.79v-9.65h.36c.22.07.43.07.58.14Zm-3.74,11.88v-5.11l.14.07.22-.29v5l-.36.29Zm0-9.94v-1a1.26,1.26,0,0,0,.36-.29v1.94l-.36-.65Zm0-2.66v-.94l.36.14v.58c-.14.07-.22.14-.36.22Zm0-4.68V435.31c.14-.22.22-.36.36-.58v11.59c-.14,0-.22-.07-.36-.14Zm0-89.64V348a.43.43,0,0,0,.29.07.07.07,0,0,0,.07.07V357a3,3,0,0,1-.36-.5Zm0-11v-4.32l.14-.14.22.07v4.25a.55.55,0,0,1-.36.14Zm0-9.07v-8.14l.36.29v7.56c-.07.07-.14.07-.22.14l-.14.14Zm1.37-7v5.18l1.44,1.44v-5.4c-.5-.36-.94-.79-1.44-1.22Zm1.44,131.62v-9.65a3.8,3.8,0,0,0-.94.07,1.33,1.33,0,0,1-.5.14v4a.71.71,0,0,0,.86-.22l.36.29-1.22,1.3v5.26c.5-.43.94-.86,1.44-1.22Zm0-122.62a1.26,1.26,0,0,0-.36.29l-1.08,1.08v.65c.22.07.5.22.72.29a1.39,1.39,0,0,0,.72.22v-2.52Zm0,9.43a3.62,3.62,0,0,1-.94.36c-.14,0-.29.07-.5.07v10.22c.5.72.94,1.51,1.44,2.23V347.9Zm0,83.09c-.5.72-.94,1.51-1.44,2.23v13.54a14,14,0,0,0,1.44.65V431Zm-1.44-86.54v-2.74l.29.14a3.27,3.27,0,0,1,.07,1.66,2.12,2.12,0,0,1-.36.94Zm-1-15.84v7.56a3.51,3.51,0,0,0,.58-.86.86.86,0,0,0-.22-.79l.29-.29.36.43v-5.18c-.36-.29-.65-.58-1-.86Zm1,133.7v-5.26l-1,1.08v5c.36-.29.65-.58,1-.86Zm0-122.47v.65c-.14-.07-.29-.22-.43-.29l.43-.36Zm0,1.87-1-.58v4.25a1.73,1.73,0,0,0,.58-.43,1.35,1.35,0,0,0,.43-.5v-2.74Zm0,6.62a4.86,4.86,0,0,1-1-.14V357c.36.5.65,1,1,1.51V348.34Zm0,84.89c-.36.5-.65,1-1,1.51v11.59c.29.14.58.29.94.43h.07V433.22Zm0,18.43a4.59,4.59,0,0,0-1,.58v1.94l.14.22a3.52,3.52,0,0,0,.72,1.15l.14.14v-4Zm-1-1c.22-.07.5-.14.79-.22l-.79-.36Zm-.36-122.33v8.14l-1.15,1.15V327.38a13.15,13.15,0,0,0,1.15.94Zm0,12.89v4.32h-.14a2.37,2.37,0,0,1-1,0v-3.17l1.15-1.15Zm0,6.84v8.5L360.29,355v-7.63l.14.14a2.42,2.42,0,0,0,1,.58Zm0,87.26v10.87a1.45,1.45,0,0,1-.58-.29,2.44,2.44,0,0,1-.58-.22V436.9l1.15-1.58Zm0,14.62v.94a4.83,4.83,0,0,0-1,.65l-.14-.29v-1.87l1.15.58Zm0,2.59v1l-.36-.65.36-.36Zm0,5.83v5.11a13.15,13.15,0,0,1-1.15.94v-10l.65,1.37c.14.36.29.65.36.86a2.13,2.13,0,0,1,.14.72,1.64,1.64,0,0,1-.22.79Zm-1.15-131v10.22l-3.46,3.31-.22.22v-9.58l.22.86a10.82,10.82,0,0,1-.14,1.44l.29.14,1.51-3.53a1.14,1.14,0,0,1-1-.36l-.14-.14c-.14-.07-.14-.07-.22-.07l-.5-.43v-4.82c1.22.86,2.45,1.8,3.67,2.74Zm0,15v3.17c-.07,0-.07,0-.14-.07a2.39,2.39,0,0,1-1-.72,2.36,2.36,0,0,1-.43-.58.65.65,0,0,1,.07-.36,2.3,2.3,0,0,1,.43-.5l1.08-.94Zm0,5a5.41,5.41,0,0,1-1.15-1.08l-2.52-2.59v6.84c1.3,1.44,2.52,3,3.67,4.46v-7.63Zm0,89.57v8.78a1,1,0,0,1-.29-.22.44.44,0,0,1,0-.58l-.29-.22-3.1,3.31v-6.77a52.83,52.83,0,0,0,3.67-4.32Zm0,12.46v1.87l-1.44-2.52,1.44.65Zm0,5-2.52-5.18a3,3,0,0,0-.5-.79.35.35,0,0,0-.5,0l-.14-.14v18.86a40.37,40.37,0,0,0,3.67-2.74v-10Zm-7.56,15.41c1.37-.86,2.66-1.73,3.89-2.66V448.27l-.22-.14.22-.14v-6.77a51.4,51.4,0,0,1-3.89,4v10.44l2.16,2.88a10.9,10.9,0,0,1,.65,1,2.84,2.84,0,0,1,.36,1,1.85,1.85,0,0,1-.07,1.08,4.74,4.74,0,0,1-2.09,2.66,5.11,5.11,0,0,1-1,.72v4.75Zm0-6.41v-1.87a1.7,1.7,0,0,1,.36.72,1.06,1.06,0,0,1-.14.79c0,.14-.07.22-.22.36Zm0-116.86c1.37,1.3,2.66,2.66,3.89,4v-6.84l-1.87-1.94.29-.29a.62.62,0,0,0,.72.29,3.51,3.51,0,0,0,.86-.58v-9.58a1.57,1.57,0,0,1-.22-.36,3.07,3.07,0,0,0-.94-1l-2.74,4v12.38Zm0-19.73,3.89,2.66v-4.82q-1.84-1.3-3.89-2.59Zm0-4.75v4.75l-.14-.14v-4.75l.14.14Zm0,12.1v12.38l-.14-.14v-12l.14-.29Zm0,111.1v10.44l-.14-.29v-9.94l.14-.22Zm0,16.27v1.87c-.07.07-.07.14-.14.14v-2.45a1.22,1.22,0,0,1,.14.36v.07Zm0,3.53v4.75l-.14.14v-4.82c.07,0,.07-.07.14-.07Zm-.14-136.51v-.36a.25.25,0,0,0,.14.07Zm0-6.62v4.75l-.22-.14v-4.75l.22.14Zm0,6.26v.36l-.22.29V328c.07.07.14.07.22.14Zm0,6.26v12l-.22-.22V334.66l.22-.22Zm0,111v9.94l-.22-.29v-9.5l.22-.14Zm0,15.62v2.45c-.07.07-.07.07-.14.07l-.07.07V460.8a1,1,0,0,0,.22.29Zm0,4v4.82l-.22.07v-4.82a.26.26,0,0,0,.22-.07Zm-3.1,6.62c1-.58,1.94-1.08,2.88-1.73v-4.82c-.29.07-.58.22-.79.29a7,7,0,0,1-2.09.29v6Zm0-8.93a1,1,0,0,0,.22.29,2.1,2.1,0,0,0,1.3.86,1.91,1.91,0,0,0,1.37-.29V460.8a.92.92,0,0,1-.29-.43l-2.59-3.46v5.9Zm0-9,1.94-1.44.29.36a.8.8,0,0,0-.36.72,5.58,5.58,0,0,0,.58,1.15l.43.5v-9.5c-.94.86-1.87,1.73-2.88,2.52v5.69Zm0-110.09c1,.79,1.94,1.66,2.88,2.45V334.66l-1.15,1.58c-.22.36-.36.65-.5.86s-.07.5.07.65a1.33,1.33,0,0,0,.5.65l-.22.36-1.58-1.08v6Zm0-10.8,2.88-4.1V328a3.28,3.28,0,0,0-1.58-.43,3.93,3.93,0,0,0-1.3.43v4.9Zm0-5.54,1.94-1.8c0,.22.14.43.5.65.07.07.14.07.22.14s.14.14.22.14v-4.75c-.94-.58-1.87-1.08-2.88-1.66Zm0-7.27v7.27l-.86.79.29.22a2.53,2.53,0,0,1,.58-.36v4.9l-1,1.44c-.36.5-.65.79-.94.86a.92.92,0,0,1-.94-.14v-12a.26.26,0,0,1,.22.07l.14-.36-.36-.22v-4.1c.94.58,1.94,1.08,2.88,1.66Zm0,17.57v6c-.94-.79-1.87-1.58-2.88-2.38v-5.76l2.88,2.09Zm0,110.45v5.69l-2.16,1.58.29.29a.66.66,0,0,1,.72-.07,2.82,2.82,0,0,1,.94.94l.22.36v5.9a3.56,3.56,0,0,1-.29-.94h-.36l.36,3.82a.43.43,0,0,0,.29.07v6c-.94.58-1.94,1.08-2.88,1.58v-23a28.05,28.05,0,0,0,2.88-2.23Zm-5.9,26.71c1-.5,2-.94,3-1.51v-23q-1.51,1.19-3,2.16v12.67l1.15,2.16a3.22,3.22,0,0,0,.79,1,.57.57,0,0,0,.79,0l.22.36-3,1.66v4.46Zm0-135.5c1,.65,2,1.37,3,2v-5.76l-.43-.29.29-.29a.25.25,0,0,0,.14.07v-12a.81.81,0,0,0-.58.07,2.21,2.21,0,0,0-.58.86l-1.87,4.18v11.16Zm0-14.54.43-1a2.93,2.93,0,0,0,.36-1.3,1,1,0,0,0-.58-.72l.14-.36,2.66,1.15v-4.1l-3-1.51Zm0-7.85v7.85L342.14,328a4.3,4.3,0,0,1-.58,1.15,2,2,0,0,1-.72.65c-.14,0-.22.07-.29.07v-9.07h0a1.06,1.06,0,0,1,.94,0l.14-.36-1.08-.5v-4.32c1,.43,2,.94,3,1.37Zm0,11.23-.07.14a3.51,3.51,0,0,0-.22.5,5.45,5.45,0,0,1-.86,1.44,2.78,2.78,0,0,1-1.37.72,4.59,4.59,0,0,1-.5.14v6.26l3,1.94V328.18Zm0,124.34v12.67l-1.94-3.67a2.77,2.77,0,0,1-.43-1.22.69.69,0,0,1,.43-.65l-.14-.36-.94.43v-5.33c1-.58,2-1.22,3-1.87Zm0,17.86v4.46c-1,.5-2,.94-3,1.37v-9.58l1.22,2.3a2.77,2.77,0,0,1,.43,1.22.69.69,0,0,1-.43.65l.22.36,1.58-.79ZM339,476.86c.58-.22,1.08-.43,1.58-.65v-9.58l-1.58-3v13.25Zm0-16.27,1.58-.86v-5.33a11.46,11.46,0,0,1-1.58.94v5.26Zm0-124.06v-5.47h.29a7.83,7.83,0,0,0,1.3.07v6.26c-.5-.29-1-.58-1.58-.86Zm0-6.77a2.43,2.43,0,0,0,1.58.07v-9.07a3.17,3.17,0,0,0-.72,1.15l-.86,1.94v5.9Zm0-10.51,1.58.65v-4.32c-.5-.22-1-.43-1.58-.65Zm0-4.32v4.32l-2.16-1-.14.36a1,1,0,0,1,.5.58,3.61,3.61,0,0,1-.22,1l-2.3,5.11a4.34,4.34,0,0,0-.43,1.73,2.13,2.13,0,0,0,.5,1.51,6.19,6.19,0,0,0,2.66,2,6.74,6.74,0,0,0,1.58.5v5.47a72.49,72.49,0,0,0-12.31-5.4V319.9l.36.07a3.73,3.73,0,0,1,1.3.5,1.87,1.87,0,0,1,.79.72,2.27,2.27,0,0,1,.22,1.44l.36.07.65-4.39-.36-.07-.07.29c-.14.43-.29.65-.58.72a1.91,1.91,0,0,1-1.08-.07l-.43-.07-.86-.22.22-1,.14-.36a1,1,0,0,1,.5-.79,2.06,2.06,0,0,1,1.3.07,3.13,3.13,0,0,1,1.37.72,2.89,2.89,0,0,1,.94,1.15,3.35,3.35,0,0,1,.36,1.51l.36-.07.22-3.82a.37.37,0,0,1-.29.14,2.23,2.23,0,0,1-.58-.14l-4.82-1.3v-4.1a98.5,98.5,0,0,1,12.31,4Zm0,8.93-1.22,2.74a4.06,4.06,0,0,0-.29.86,1.47,1.47,0,0,0,0,.79,3,3,0,0,0,.5.79,2,2,0,0,0,.79.58c.07.07.14.07.22.14v-5.9Zm0,131.47v5.26l-2,1.08.14.36a.78.78,0,0,1,.79,0,3.06,3.06,0,0,1,.79,1l.29.58v13.25a79.21,79.21,0,0,1-12.31,4v-7.13a5.1,5.1,0,0,0,2,1.15,5.63,5.63,0,0,0,2.45.36,8.27,8.27,0,0,0,2.59-.5l2.16-.94a2.55,2.55,0,0,0,.43-.07.54.54,0,0,1,.36.07l.07-3.74h-.36a3.77,3.77,0,0,1-.72,1.94,3.46,3.46,0,0,1-1.66,1.15,3.77,3.77,0,0,1-1.8.22,5.19,5.19,0,0,1-1.73-.72,4.37,4.37,0,0,1-1.15-1.15,15.24,15.24,0,0,1-.79-1.51,4.19,4.19,0,0,1-.22-1.87,3,3,0,0,1,.5-1.58,3.07,3.07,0,0,1,1.44-1.08,3.27,3.27,0,0,1,1.66-.07,4,4,0,0,1,1.58.72,5.24,5.24,0,0,1,1.3,1.22l.29-.22-2.38-4.1a.94.94,0,0,1-.65.72c-.07.07-.29.07-.58.14a15.88,15.88,0,0,0-2.3.5,9.52,9.52,0,0,0-2.09,1.08,1.91,1.91,0,0,1-.43.36v-5.11A66.94,66.94,0,0,0,339,455.33ZM314.14,483v-8.14h.58v8.06a1.79,1.79,0,0,1-.58.07Zm0-9.58v-3.1l.58,1.15v2a1.79,1.79,0,0,0-.58-.07Zm0-5.33v-1.8l.58-.14v1.8l-.58.14Zm0-3v-1.66a1.79,1.79,0,0,0,.58-.07v1.58l-.58.14Zm0-136.66V308.88h.58v19.58a1.4,1.4,0,0,1-.58-.07Zm2-19.37v19.66a63.77,63.77,0,0,1,10.51,2.45V319.9l-1,3.89a2.77,2.77,0,0,0-.07,1.3.82.82,0,0,0,.58.5l-.07.43L321,324.65l.14-.43c.29.07.58.07.72-.14a4.22,4.22,0,0,0,.58-1.15l1.73-6.48a2.48,2.48,0,0,0,.07-1.22.69.69,0,0,0-.58-.58l.14-.36,2.88.72v-4.1A100.16,100.16,0,0,0,316.15,309Zm10.51,171.79v-7.13c0-.07,0-.07-.07-.07a5.23,5.23,0,0,1-1.3-2.23,5.32,5.32,0,0,1-.36-2.3,4.84,4.84,0,0,1,.72-2,5.72,5.72,0,0,1,1-1.3v-5.11a63.77,63.77,0,0,1-10.51,2.45v1.66l1.37-.22.14,1.15-1.51.22v1.8l1.15-.14V468c-.22,0-.29.22-.29.43s.14.29.36.79.58,1.15.94,1.87.79,1.58,1.37,2.66.86,1.73.94,1.94a4.28,4.28,0,0,1,.29.58,2.19,2.19,0,0,0,.36.5,1,1,0,0,0,.94.5l.07.43-5.62.79v-.43a1,1,0,0,0,.58-.36.84.84,0,0,0,.14-.72,1.62,1.62,0,0,0-.58-1,4.66,4.66,0,0,0-.65-.58v7.34a84.55,84.55,0,0,0,10.51-1.94Zm-12-171.94v19.58l1.44.22V309c-.5-.07-1-.07-1.44-.14Zm1.44,173.88v-7.34l-.43-.22a4.16,4.16,0,0,0-1-.36v8.06a8.86,8.86,0,0,1,1.44-.14Zm0-19.66-1.44.22v1.58l1.44-.14V463.1Zm0,2.81-1.44.22v1.8l1.44-.22v-1.8Zm-1.44,7.56a10.25,10.25,0,0,1,1.15.36l-1.15-2.38Zm-.58-164.59v19.51a74.59,74.59,0,0,0-8.06-.5V308.45a74.64,74.64,0,0,1,8.06.43Zm0,154.51V465l-3,.36.14,1.22,2.81-.36v1.8l-1.58.14.07.43c.22,0,.36.07.36.36s0,.43-.14.86L311.26,477c-.07.36-.22.65-.29.94a1.47,1.47,0,0,1-.36.65,1.12,1.12,0,0,1-.58.43v.43l3.6-.5-.07-.43c-.5,0-.79-.14-.86-.58a5.75,5.75,0,0,1,.14-1.37l.36-1.73h.94V483a74.71,74.71,0,0,1-8.06.36V463.9a59.88,59.88,0,0,0,8.06-.5Zm0,6.91-.07-.07-.58,3.17h.65v-3.1ZM301,483.19c1.73.14,3.46.14,5.11.14h0V463.9h0c-1.66,0-3.38-.07-5.11-.22v4.61l1.51.14a9.86,9.86,0,0,0,1.15.14,2.58,2.58,0,0,1,.79.29,1.53,1.53,0,0,1,.86,1.44q-.22,1.62-2.59,2.59a15.73,15.73,0,0,1,2.3,4.82,4.64,4.64,0,0,0,.43,1,1,1,0,0,0,.65.43l-.07.36-5-.36v4Zm0-4.54v-2a5,5,0,0,1,.43,1.51,1.17,1.17,0,0,1-.22.43.26.26,0,0,1-.22.07Zm0-6.62v-2.59a3.13,3.13,0,0,1,.5.29,1.52,1.52,0,0,1,.29,1A1.58,1.58,0,0,1,301,472Zm0-143.86c1.73-.14,3.46-.29,5.11-.29h0V308.45h0c-1.66,0-3.38.07-5.11.22Zm0-19.51v19.51h-.79V308.66Zm0,155v4.61l-.79-.07v-4.61l.79.07Zm0,5.76V472c-.07.07-.07.07-.14.07a2.92,2.92,0,0,1-.65.36V469.3c.07,0,.22.07.29.07s.36.07.5.07Zm0,7.2v2h-.29l-.07.43.36.07v4a3,3,0,0,1-.79-.07V475a7.87,7.87,0,0,0,.58,1.08c.07.22.14.36.22.58Zm-1.37,6.48h.58V475c-.22-.36-.43-.65-.58-.94v9.07Zm0-10.44a1.37,1.37,0,0,0,.58-.22V469.3a5,5,0,0,0-.58.22v3.17Zm0-4.46h.58v-4.61h-.58v4.61Zm0-140a1.79,1.79,0,0,0,.58-.07V308.66a1.79,1.79,0,0,1-.58.07Zm0-19.51v19.51c-2,.22-4,.5-6,.86V324.5a6,6,0,0,0,3-1.51,3.39,3.39,0,0,0,1.15-3.24,2.4,2.4,0,0,0-.58-1.3,2.21,2.21,0,0,0-1.08-.72,7.78,7.78,0,0,0-1.51-.36l-1-.07v-2.52a1.16,1.16,0,0,1,.65.22,4.66,4.66,0,0,1,1.44,1.3l.36-.07L295,312.77a1.13,1.13,0,0,1-.94.58h-.43v-4c1.94-.29,4-.5,6-.65Zm0,154.87v4.61l-4.46-.43v.43a.69.69,0,0,1,.65.43,3.06,3.06,0,0,1,.07,1.22l-.58,6.7a3.8,3.8,0,0,1-.29,1.22.74.74,0,0,1-.72.29l-.07.43,5.11.43v-.43a.69.69,0,0,1-.65-.43,3.06,3.06,0,0,1-.07-1.22l.29-2.88.58-.14.14.22v9.07a54.18,54.18,0,0,1-6-.72V462.74c1.94.36,4,.65,6,.86Zm0,5.9c-.07,0-.14.07-.22.07s-.22.36-.22.79l-.22,2.45a2.1,2.1,0,0,0,.65-.14v-3.17Zm-6-146.45a2,2,0,0,0,.65-.72,1,1,0,0,0,.14-.94,1,1,0,0,0-.5-.79c-.07,0-.22-.07-.29-.07Zm0-13.68v4h-.86v-3.89c.29,0,.58-.07.86-.07Zm0,5.4v2.52l-.86-.14v-2.59c.14,0,.36.07.5.07s.22.07.36.14Zm0,5.76v2.52h-.07c-.29.07-.5.22-.79.29v-3l.86.22Zm0,4v4.61a3.61,3.61,0,0,1-.86.14v-4.61a.91.91,0,0,0,.43-.07.91.91,0,0,0,.43-.07Zm0,138.24V482.4a3.61,3.61,0,0,1-.86-.14V462.53l.86.22Zm-1.8,19.37a4.21,4.21,0,0,0,.94.14V462.53a4.21,4.21,0,0,1-.94-.14v19.73Zm0-152.64.94-.22v-4.61a3.8,3.8,0,0,1-.94.07v4.75Zm0-6a2.1,2.1,0,0,0,.65-.14h.29v-3h-.07l-.86-.07v3.24Zm0-6.48a2.59,2.59,0,0,0,.79.14h.14v-2.59c-.14,0-.29.07-.43.07s-.36.07-.5.14V317Zm0-3.6c.22,0,.5-.07.94-.07v-3.89l-.94.22Zm0-3.74v3.74h-.29a5.48,5.48,0,0,0-2.88,1.44,4.49,4.49,0,0,0-.65.86,4.16,4.16,0,0,0-.36,1,2.73,2.73,0,0,0,0,1.08,3,3,0,0,0,.43,1,2.12,2.12,0,0,0,.86.72,5.21,5.21,0,0,0,2,.58l.86.14v3.24a3.26,3.26,0,0,1-1.15-.22,4.11,4.11,0,0,1-1.51-.94,4,4,0,0,1-1-1.58l-.29.14,1.08,4.39a1.34,1.34,0,0,1,.86-.5,3.57,3.57,0,0,1,1.08-.07h.94v4.75a69.28,69.28,0,0,0-12.24,3.89v-7.92c.07,0,.07,0,.14.07a1.83,1.83,0,0,1,.79.86,1.22,1.22,0,0,1,0,.72,1.13,1.13,0,0,1-.5.5l.14.36,5.26-2-.14-.36a.79.79,0,0,1-.58,0,1.8,1.8,0,0,1-.5-.29l-.43-.43c-.14-.14-.29-.36-.43-.5s-.58-.72-1.37-1.66-1.37-1.66-1.87-2.3a3.61,3.61,0,0,1-.5-.58v-7.2a97.85,97.85,0,0,1,12.24-3Zm0,5.11a4,4,0,0,0-.58.36,1.19,1.19,0,0,0-.36,1.08.92.92,0,0,0,.5.65c.14.07.29.07.43.14v-2.23Zm0,147.6v19.73a77.77,77.77,0,0,1-12.24-3V475l7.63,2.16c.5.14.79.36.86.58l2.52-3.74-.29-.22q-2.27,2.48-5,1.73a2,2,0,0,1-1.08-.65,1.37,1.37,0,0,1-.07-1.22c.07-.22.14-.29.14-.43l.86-3,.43.14.43.14a2.4,2.4,0,0,1,.86.36,2.48,2.48,0,0,1,.65.58,4.34,4.34,0,0,1,.43,1.37l.29.07.5-4.18h-.36c-.14.5-.36.79-.72.86a2.77,2.77,0,0,1-1.3-.07l-.43-.14-.5-.14.14-.5.14-.36a1.62,1.62,0,0,1,.36-.86.52.52,0,0,1,.5-.29,2.61,2.61,0,0,1,1,.07,4,4,0,0,1,1.94,1.3,3.54,3.54,0,0,1,.72,2.16l.36-.07.22-3.82c-.14.14-.5.14-.94,0l-.43-.14-7.13-2-.07.36c.29.14.5.29.5.58a2.2,2.2,0,0,1-.14,1.3l-1.8,6.41a2.85,2.85,0,0,1-.58,1.15.79.79,0,0,1-.72.14V458.42a64,64,0,0,0,12.24,4Zm-15.41,15.7v-8.21a4.08,4.08,0,0,0,.58-.94.07.07,0,0,1,.07-.07v9.43l-.65-.22Zm0-15.26V457a2.56,2.56,0,0,0,.65.29v6.41l-.43-.65-.22-.22Zm0-127.94v-5.4l.65-.29v5.33c-.22.14-.43.22-.65.36Zm0-6.19v-3.6a2.1,2.1,0,0,1,.65-.14v3.82c-.29.07-.5.07-.65-.07Zm0-5.11v-2.3l.65.79v1.44c-.22,0-.43.07-.65.07Zm0-5.62V313.7l.65-.22v4.18l-.65.29Zm3.17,161.21V475l-.14-.07.14-.36h0V458.42a26.84,26.84,0,0,1-2.52-1.15v6.41c.07.14.07.22.14.36a4.79,4.79,0,0,1,.43,2.45,5.26,5.26,0,0,1-.58,2.38v9.43c.79.29,1.66.58,2.52.86Zm-2.52-165.67v4.18l1.22-.5.14.43a.37.37,0,0,0-.22.5,4.2,4.2,0,0,0,.58.72c.22.29.5.65.79,1v-7.2a14.85,14.85,0,0,0-2.52.86Zm2.52,12a3.39,3.39,0,0,0-1.08-.43,3.25,3.25,0,0,0-1.44-.07v3.82a.07.07,0,0,1,.07-.07l.14.43-.22.07v5.33a26.84,26.84,0,0,1,2.52-1.15v-7.92Zm-2.52-1.94a8,8,0,0,1,1.22.14l-1.22-1.58Zm-.65-9.79V318l-2.59.94.14.36a.54.54,0,0,1,.5.29,3.73,3.73,0,0,1,0,.94l.07,7.2a3.83,3.83,0,0,1-.07,1,1.39,1.39,0,0,1-.22.72,1,1,0,0,1-.5.58l.14.43,2.52-.94v5.4c-1.08.5-2.16,1.08-3.17,1.66v-21.6c1-.43,2.09-.86,3.17-1.22Zm0,7.56-.65-.79.14,3.24a1.33,1.33,0,0,0,.5-.14v-2.3Zm0,3.82a1,1,0,0,1-.5.14L276,327a3.16,3.16,0,0,0,.22,1.37,1.57,1.57,0,0,0,.22.36v-3.6Zm0,131.9v5.83a5.24,5.24,0,0,0-.58-.65,8.15,8.15,0,0,0-.94-.72c-.36-.22-.72-.43-1.15-.65l-.5-.29v-5.18c1,.58,2.09,1.15,3.17,1.66Zm0,12.89v8.21c-1.08-.36-2.16-.79-3.17-1.22v-5.11c.22-.07.36-.07.58-.14a5.36,5.36,0,0,0,1.8-.94,4.13,4.13,0,0,0,.79-.79Zm-3.17-1.44a7.11,7.11,0,0,0,.65-1.08,8.58,8.58,0,0,0,.58-1.44,6.54,6.54,0,0,0,.22-1.66,4.7,4.7,0,0,0-.36-1.44,2.25,2.25,0,0,0-1.08-1.08h0Zm0-153.5v21.6c-.5.29-1,.5-1.51.79V315.58l1.51-.65Zm0,140.4v5.18l-1.51-.79v-5.26l1.51.86Zm0,6.41v6.7c-.14.14-.36.29-.5.43a3,3,0,0,1-1,.65V462.6a2.23,2.23,0,0,1,.65-.86.75.75,0,0,1,.86,0Zm0,10v5.11a13.64,13.64,0,0,1-1.51-.65v-4.68a3.68,3.68,0,0,0,1.51.22Zm-3,3.82c.43.22.94.43,1.44.65v-4.68a5.49,5.49,0,0,1-1.44-.43v4.46Zm0-5.83a1.75,1.75,0,0,0,.86,0l.58-.22v-6.84l-1.44,2.74v4.32Zm0-10.8,1.44.79v-5.26c-.5-.29-1-.58-1.44-.86v5.33Zm0-120.67c.43-.29.94-.65,1.44-.94V315.58c-.5.22-1,.43-1.44.65Zm0-22v22a45.63,45.63,0,0,0-4.32,3v-5.62A4,4,0,0,0,267,335a5.07,5.07,0,0,0,2.3-2.52,2.74,2.74,0,0,0,.07-1.08,1.65,1.65,0,0,0-.29-1,8.31,8.31,0,0,0-.58-1.08L266,325.15v-6.84c1.44-.72,2.88-1.44,4.32-2.09Zm0,137.38v5.33l-1.08-.58-.22.36a.69.69,0,0,1,.43.65,2.77,2.77,0,0,1-.43,1.22l-3,5.83V450.65a45.63,45.63,0,0,0,4.32,3Zm0,11.81-1.08,1.87c-.14.43-.29.72-.36.94a1,1,0,0,0,0,.65,1.12,1.12,0,0,0,.58.58,2,2,0,0,0,.86.29v-4.32Zm0,5.69v4.46c-1.44-.65-2.88-1.3-4.32-2v-4.68l3.53,1.8c.29.14.5.29.79.43ZM266,334.15a1.29,1.29,0,0,0,.36-.5,1.11,1.11,0,0,0,.22-.79,2.58,2.58,0,0,0-.29-.79,4.13,4.13,0,0,0-.29-.5Zm0-15.84v6.84a2.13,2.13,0,0,1-.5-1.15c-.07-.29.07-.5.36-.72l-.22-.36-.22.14V318.6l.58-.29Zm0,13.25v2.59c-.07,0-.14.07-.22.07a1.57,1.57,0,0,1-.36.22v-3.89l.22.43a6.64,6.64,0,0,1,.36.58Zm0,4v5.62a2.53,2.53,0,0,0-.58.36v-5.76l.58-.22Zm0,115.06v15.77l-.07.07c-.22.29-.36.58-.5.72V456.55l.29-.58h-.29v-5.76c.22.14.36.29.58.43Zm0,18.22v4.68l-.58-.36V468.5l.58.36Zm-5.4,1.58a45.93,45.93,0,0,0,4.82,2.74V468.5l-1.22-.65.14-.36a.78.78,0,0,0,.79,0c.07-.07.22-.14.29-.29V456.55L264,459.43l-.36-.14a3.41,3.41,0,0,0,.14-2.23,3.6,3.6,0,0,0-1.3-1.94,2.86,2.86,0,0,0-.86-.5.54.54,0,0,0-.58.07l-.43.43v1.66a2.87,2.87,0,0,0,1.08.5c.36.07.65-.14,1-.58l.29.14-2,3.67-.29-.14a3.39,3.39,0,0,0,.14-1.44,1.88,1.88,0,0,0-.22-.58v4.39a6.49,6.49,0,0,0,1.8-.58l.22.36-2,1.3v6.62Zm0-18.22,3.89,3.1.29.22a1.7,1.7,0,0,0,.65.43v-5.76a61.1,61.1,0,0,1-4.82-4v6Zm0-106.63c1.58-1.44,3.17-2.74,4.82-4v-5.76a2.1,2.1,0,0,1-.65.14,5.07,5.07,0,0,1-2.3.14l-.14-3.82h.36a2.75,2.75,0,0,0,.43,1.15,2.09,2.09,0,0,0,1.22,1,2.73,2.73,0,0,0,1.08,0v-3.89l-2.3-3.6a3.22,3.22,0,0,0-.79-1,.66.66,0,0,0-.79.07l-.22-.36,4.1-2.59V318.6c-1.66.86-3.24,1.8-4.82,2.81v17.21a.4.4,0,0,0,.36-.22l.29.36-.65.58Zm0-24.19v17.21a.48.48,0,0,1-.43-.07,2.67,2.67,0,0,1-.94-.79l-3.46-4.1V324.5c1.58-1.08,3.17-2.16,4.82-3.1Zm0,17.93v6.26c-1.66,1.51-3.31,3.1-4.82,4.75V338.9l.86,1c.36.43.65.79.65,1.08a.62.62,0,0,1-.29.72l.29.36,3.31-2.74Zm0,106.92v6l-1.87-1.58-.29.29a.72.72,0,0,1,.29.79,1.77,1.77,0,0,1-.65,1.08l-2.3,2.88v-6.77l.43-.58a.33.33,0,0,1-.36,0c0-.07,0-.07-.07-.07v-6.84a61,61,0,0,0,4.82,4.82Zm0,8.86-.22.22-.29.29-.29.43.36.36.36.29.07.07v-1.66Zm0,3.24v4.39a4,4,0,0,1-3.46-.94,1.58,1.58,0,0,1-.72-1,1.45,1.45,0,0,1,.43-1.15l.29-.29,1.94-2.45.36.29.36.22a5.25,5.25,0,0,1,.65.72c.07.07.14.14.14.22Zm0,5.47-1.8,1.08c0-.22-.22-.5-.58-.79l-2.45-1.94v5.11c1.58,1.15,3.17,2.16,4.82,3.17v-6.62Zm-6.84,1.94v-5.26l2,1.66v5.11c-.65-.5-1.37-1-2-1.51Zm0-7.56c0-.07.07-.14.14-.22l1.87-2.3v-6.77l-1.8,2.59-.22-.07v6.77Zm0-7v-3.31c.07.14.14.36.22.5a3.18,3.18,0,0,1,.14,1.44,4.26,4.26,0,0,1-.36,1.37Zm0-5.11,1.66,1.8.36.36v-6.84c-.72-.72-1.37-1.51-2-2.3v7Zm0-93.38c.65-.79,1.3-1.58,2-2.38V338.9l-2-2.45v16.27Zm0-21.67.58-.58.22.36a.92.92,0,0,0-.29.72,3,3,0,0,0,.65,1.08l.86,1V324.5c-.65.5-1.37,1-2,1.58Zm0-5v5l-2.09,1.66V327.6c.72-.5,1.37-1,2.09-1.51Zm0,10.37v16.27c-.72.86-1.44,1.73-2.09,2.59V347.9l1.3-1.51-.29-.29c-.29.29-.58.36-.79.07q-.11,0-.22-.22V334.15a5.25,5.25,0,0,1,.72.65l1.37,1.66Zm0,102.67v7l-2.09-2.23v-7.42c.65.94,1.37,1.8,2.09,2.66Zm0,8.78v3.31c-.07.07-.07.14-.14.14l.14.07v6.77a1.94,1.94,0,0,1-.79.65.81.81,0,0,1-.79-.14l-.22.29,1.8,1.51v5.26c-.72-.5-1.37-1-2.09-1.58V451l1.73-2-.29-.22-.22.22a.91.91,0,0,1-.86.29c-.14,0-.22-.07-.36-.14V446.4a.91.91,0,0,1,.43-.07,2.51,2.51,0,0,1,1.08.72,6,6,0,0,1,.58.86Zm-2.81,15.7a5,5,0,0,0,.72.58V451l-.72.86v11.74Zm0-15.19.22.22a3.33,3.33,0,0,0,.5.5V446.4a1.51,1.51,0,0,0-.43.29l-.29.29v1.44Zm0-5.26.72.72v-7.42l-.72-.94v7.63Zm0-86.83a12.21,12.21,0,0,0,.72-1V347.9l-.72.86v7.56Zm0-11.59.36.65a6.64,6.64,0,0,1,.36.58V334.15a1,1,0,0,0-.29-.22.91.91,0,0,0-.43.07v10.73Zm0-11.38.72-.65V327.6c-.22.22-.5.43-.72.65Zm0-5.11v5.11l-.58.43.29.36a.55.55,0,0,1,.29-.14v10.73L248,339.55h0v-8.78c.94-.86,1.87-1.73,2.88-2.52Zm0,20.52v7.56c-1,1.44-2,3-2.88,4.46V348.12l.86.36a4.6,4.6,0,0,1,.72.29.65.65,0,0,1,.07.79l.29.29.94-1.08Zm0,86.76v7.63l-.94-1.08-.36.29a.81.81,0,0,1,.22.79,3.5,3.5,0,0,1-.79,1l-1,1V431.06c.86,1.51,1.87,3,2.88,4.46Zm0,11.45v1.44l-.07-.07-.65-.65.72-.72Zm0,4.9-.43.5-.22-.22a2.3,2.3,0,0,0,.5-1.37,1.87,1.87,0,0,0-.29-1.08,6.65,6.65,0,0,0-.79-1l-.29-.29L248,449.78v11.3c.94.86,1.87,1.73,2.88,2.52V451.87ZM248,344.66l1.66.72-1.66-3Zm0-13.9v8.78a14.64,14.64,0,0,1-.79-1.66,1.36,1.36,0,0,1,.14-.86l-.36-.22-.72.86v-5.4l1.73-1.51Zm0,11.66-1.3-2.3c-.22-.36-.36-.58-.43-.72v4.54l1.73.72v-2.23Zm0,5.69v12.67c-.65,1-1.15,1.94-1.73,3V347.33l1.73.79Zm0,82.94v14.11l-1.73,1.58V428c.58,1,1.08,2,1.73,3Zm0,18.72v11.3c-.58-.5-1.15-1-1.73-1.58v-8.14c0-.07.07-.14.14-.22l1.58-1.37Zm-10.51.14V369.65h0a1.18,1.18,0,0,1,.07.72l.36.07,1-2.88v17.78a70.64,70.64,0,0,0,0,21.1v45.29a17.52,17.52,0,0,1-1.44-1.8Zm0-84.24v-8l1.44.86v6.91a1,1,0,0,1-.5.14,1.4,1.4,0,0,1-.58.07Zm0-11.88v-2.16a5,5,0,0,1,.58-.22,3.51,3.51,0,0,1,.86-.07v3.31l-1.44-.86Zm0-3.38v-8.5c.43-.65.94-1.22,1.44-1.87v10.87l-1.44-.5Zm8.78,109.08v-8.14a2.56,2.56,0,0,0-.58.86.73.73,0,0,0,.22.72l-.29.29-3.6-3.82.29-.29c.29.22.5.36.79.22a3,3,0,0,0,1.08-.65l2.09-1.94V428a67.28,67.28,0,0,1-7.34-21.6v45.29a93.74,93.74,0,0,0,7.34,7.78ZM239,340.06v10.87l.72.22-.14.29a1.59,1.59,0,0,1-.58-.07v3.31l3.46,2a3.08,3.08,0,0,0,.94.36A.7.7,0,0,0,244,357c.22-.07.36-.29.58-.58l.36.22-3,5.11-.29-.22a1.22,1.22,0,0,0,.14-1.08,2.49,2.49,0,0,0-1-.86l-1.8-1v6.91H239a1.91,1.91,0,0,0,.36-.43l.36.14-.79,2.38v17.78a67.28,67.28,0,0,1,7.34-21.6V347.33l-3.82-1.51a7.27,7.27,0,0,0-1.51-.5,1.26,1.26,0,0,0-1.08.29l-.29-.29,3.6-4.1.29.29c-.29.5-.29.86-.07,1.15a3,3,0,0,1,.72.36l2.16.94v-4.54c-.07,0-.07-.07-.14-.07-.22-.22-.5-.22-.86.07l-.29-.29,1.3-1.44v-5.4A93.74,93.74,0,0,0,239,340.06Zm-1.44,1.87v8.5l-1.44-.5a1.27,1.27,0,0,1-.29,1c0,.07-.07.14-.14.22a.22.22,0,0,0-.07.14l-3,5.11a.32.32,0,0,0-.07.22c0,.07-.07.07-.07.14v-7.85c1.58-2.38,3.24-4.75,5-7Zm0,9.72a2.16,2.16,0,0,0-.58.29,3.18,3.18,0,0,0-.94,1l1.51.86v-2.16Zm0,6-3.24-1.87a3.54,3.54,0,0,0-.43,2,2.93,2.93,0,0,0,.94,1.8l-.22.29-2.09-1.87v7.63h5v-8Zm0,12v80.28c-1.8-2.23-3.46-4.61-5-7V388.08a1.57,1.57,0,0,1,.36.22.65.65,0,0,1,.22.72l.43.07,1.37-7.2c.14-.65.29-1,.5-1l-2.88-1.51v-6.12l1.66,1.37c.29.29.58.5.72.65a2.51,2.51,0,0,1,.43.65,1.18,1.18,0,0,1,.07.72l.43.14,1.15-3.38-.36-.14c-.22.43-.58.65-.94.5a4.6,4.6,0,0,1-1.15-.72l-1.37-1.15a4.37,4.37,0,0,1,1.44-2.09,6.38,6.38,0,0,1,1.22-.58,1.59,1.59,0,0,1,1.15,0,.89.89,0,0,1,.58.43Zm-5,14.9h.22a.65.65,0,0,0,.5-.22,4.75,4.75,0,0,0,.29-.79,3.55,3.55,0,0,0-.14-1.73,8.6,8.6,0,0,0-.86-1.58v4.32Zm0-14.47a6.65,6.65,0,0,1,1-1h-1Zm0-21.17v7.85a.07.07,0,0,0-.07.07c-.22.36-.43.58-.65.58l.72.65v7.63h-1.08V350.57c.36-.5.72-1.08,1.08-1.66Zm0,20.16v1a6,6,0,0,0-.5.94l-.58-.43v-1.51Zm0,4.18v6.12l-1.08-.58v-6.48l1.08.94Zm0,7-.07-.07a5.81,5.81,0,0,0-1-.86v5.11l.72.14h.36v-4.32Zm0,7.85v54.86l-1.08-1.73V387.79l.22.07a7.47,7.47,0,0,1,.86.22Zm-2.09,51.48c.36.58.65,1.15,1,1.66V387.79l-1-.14v51.91Zm0-55.3,1,.14V379.3a1.91,1.91,0,0,0-.43-.36l.14-.29.29.14v-6.48l-1-.79v12.74Zm0-14.47,1,.79v-1.51h-1v.72Zm0-4.1h1V350.57c-.36.58-.65,1.15-1,1.73Zm0-13.39v13.39a.65.65,0,0,1-.36-.07h-.86V354.53c.43-.72.79-1.51,1.22-2.23Zm0,16.78v.72l-1-.79,1,.07Zm0,2.45v12.74l-1.22-.29V370.44l1.22,1.08Zm0,16.13v51.91c-.43-.79-.79-1.51-1.22-2.3v-49.9l1.22.29Zm-1.22,49.61v-49.9l-4-.79a2.56,2.56,0,0,0-1.3,0,.62.62,0,0,0-.5.58l-.43-.07,1-5,.43.07a.65.65,0,0,0,.22.72,2.15,2.15,0,0,0,1.15.43l3.46.72V370.44l-.58-.5a4.2,4.2,0,0,0-.79-.5c-.22-.07-.36,0-.5.22l-.36-.14,1.51-4.54.43.14a.37.37,0,0,0,.22.5h.07V354.53a86.64,86.64,0,0,0,0,82.73Z" transform="translate(-218.66 -308.45)" fill="#cba349" fill-rule="evenodd"/><path d="M306.79,372.82c-7.85,0-15.48.72-23.11,3.74l-4.32-3.89c8.86-4.68,18.43-4.82,27.43-4.82s18.5.14,27.43,4.82L330,376.56C322.34,373.54,314.64,372.82,306.79,372.82Z" transform="translate(-218.66 -308.45)" fill="#840018" fill-rule="evenodd"/><path d="M306.79,365c-9.94,0-19.87.43-30,5.62l-4.18-3.38c12.74-6.48,22.9-6.48,34.13-6.55s21.31.07,34.06,6.55l-4.18,3.38C326.59,365.47,316.66,365,306.79,365Z" transform="translate(-218.66 -308.45)" fill="#840018" fill-rule="evenodd"/><path d="M286.34,375.12a24,24,0,0,0-9.22,3.53l6.26,3.1Z" transform="translate(-218.66 -308.45)" fill="#840018" fill-rule="evenodd"/><path d="M327.17,375.12a24,24,0,0,1,9.22,3.53l-6.26,3.1Z" transform="translate(-218.66 -308.45)" fill="#840018" fill-rule="evenodd"/><path d="M280.87,374l-4.9-4.18a44.45,44.45,0,0,0-8.71,3l6.48,3.67A59.38,59.38,0,0,1,280.87,374Z" transform="translate(-218.66 -308.45)" fill="#840018" fill-rule="evenodd"/><path d="M332.64,374l4.9-4.18a44.45,44.45,0,0,1,8.71,3l-6.41,3.67A65.22,65.22,0,0,0,332.64,374Z" transform="translate(-218.66 -308.45)" fill="#840018" fill-rule="evenodd"/><polygon points="88.06 42.34 84.1 44.06 85.03 40.1 81.65 37.01 86.4 37.01 88.06 32.76 89.78 37.01 94.46 37.01 91.15 40.1 92.02 44.06 88.06 42.34" fill="#cba349" fill-rule="evenodd"/><polygon points="78.48 45.36 76.18 49.1 74.66 45.36 70.13 44.71 74.02 42.05 73.01 37.58 76.9 40.03 80.78 37.3 79.78 41.83 82.8 44.5 78.48 45.36" fill="#cba349" fill-rule="evenodd"/><polygon points="97.78 45.36 100.08 49.1 101.59 45.36 106.13 44.71 102.24 42.05 103.25 37.58 99.43 40.03 95.54 37.3 96.55 41.83 93.46 44.5 97.78 45.36" fill="#cba349" fill-rule="evenodd"/><path d="M306.79,356.18a11.38,11.38,0,1,1-11.3,11.38A11.39,11.39,0,0,1,306.79,356.18Z" transform="translate(-218.66 -308.45)" fill="#fff" stroke="#fff" stroke-miterlimit="10" stroke-width="0.22" fill-rule="evenodd"/><path d="M306.94,426c-2.59-8.71-23.76-1.51-23.76-16.92V375.62c7.49-3,15.77-3.53,23.76-3.38,8-.14,16.78.43,23.69,3.38V409C330.7,424.44,309.6,417.24,306.94,426Z" transform="translate(-218.66 -308.45)" fill="#014a2a" fill-rule="evenodd"/><path d="M317.16,363.46a10.77,10.77,0,0,1,.65,3.74,17.65,17.65,0,0,1-.14,1.94l-2.52,2.45-4.68-2.16-.58-4.54,3.1-3.24Z" transform="translate(-218.66 -308.45)" fill="#fff" stroke="#fff" stroke-miterlimit="10" stroke-width="0.22" fill-rule="evenodd"/><path d="M315.22,374.26a10.75,10.75,0,0,1-6.77,3.82l-2.52-1.8.43-4.25,4-2.23,4.61,2.38Z" transform="translate(-218.66 -308.45)" fill="#fff" stroke="#fff" stroke-miterlimit="10" stroke-width="0.22" fill-rule="evenodd"/><path d="M297.58,372.89a11.39,11.39,0,0,0,5.62,4.61l2.38-1.22.36-4.25-3-2.88-4.9.58Z" transform="translate(-218.66 -308.45)" fill="#fff" stroke="#fff" stroke-miterlimit="10" stroke-width="0.22" fill-rule="evenodd"/><path d="M298.15,360.65a11.38,11.38,0,0,0-2.09,5.69l1.8,3,5-.58,1.58-4.1L302,360.43Z" transform="translate(-218.66 -308.45)" fill="#fff" stroke="#fff" stroke-miterlimit="10" stroke-width="0.22" fill-rule="evenodd"/><path d="M311.62,357.34a10.39,10.39,0,0,0-4.68-1.08h-1.15l-3.24,4,2.45,4,4.39.43,3.1-3.38Z" transform="translate(-218.66 -308.45)" fill="#fff" stroke="#fff" stroke-miterlimit="10" stroke-width="0.22" fill-rule="evenodd"/><path d="M306.86,356.11a11.38,11.38,0,1,1-11.3,11.38A11.39,11.39,0,0,1,306.86,356.11Z" transform="translate(-218.66 -308.45)" stroke="#000" stroke-miterlimit="10" stroke-width="0.5" fill-rule="evenodd"/><path d="M317.09,363.67a11.18,11.18,0,0,1,.65,3.82,8.85,8.85,0,0,1-.14,1.94l-2.52,2.45-4.68-2.16-.5-4.61,3-3.24Z" transform="translate(-218.66 -308.45)" fill="#fff" stroke="#000" stroke-miterlimit="10" stroke-width="0.22" fill-rule="evenodd"/><path d="M315.22,374.54a11.46,11.46,0,0,1-6.84,3.82l-2.45-1.8.36-4.25,4-2.23,4.61,2.3Z" transform="translate(-218.66 -308.45)" fill="#fff" stroke="#000" stroke-miterlimit="10" stroke-width="0.22" fill-rule="evenodd"/><path d="M297.5,373.1a11,11,0,0,0,5.69,4.68l2.38-1.22.36-4.25-3-2.88L298,370Z" transform="translate(-218.66 -308.45)" fill="#fff" stroke="#000" stroke-miterlimit="10" stroke-width="0.22" fill-rule="evenodd"/><path d="M298.15,360.94a10.39,10.39,0,0,0-2.16,5.69l1.8,2.88,5-.5,1.66-4.18-2.52-4.1Z" transform="translate(-218.66 -308.45)" fill="#fff" stroke="#000" stroke-miterlimit="10" stroke-width="0.22" fill-rule="evenodd"/><path d="M311.54,357.55a11.17,11.17,0,0,0-4.68-1.08,5.82,5.82,0,0,0-1.15.07l-3.24,3.89,2.45,4,4.39.5,3.1-3.46Z" transform="translate(-218.66 -308.45)" fill="#fff" stroke="#000" stroke-miterlimit="10" stroke-width="0.22" fill-rule="evenodd"/><polygon points="78.55 108.79 84.1 95.98 88.42 95.98 89.5 93.74 85.1 93.74 89.14 84.24 95.26 84.24 90.14 95.98 95.18 95.98 100.3 84.31 105.48 84.24 106.78 81.43 101.45 81.43 104.83 73.8 108.72 73.8 109.8 71.42 100.66 71.42 96.26 81.43 85.32 81.36 79.92 93.74 74.02 93.74 83.66 71.42 78.55 71.42 67.97 95.98 78.98 95.98 73.44 108.79 78.55 108.79" fill="#cba349" fill-rule="evenodd"/><path d="M326.45,444.1c-1.37,1.08-2.16-.86-3.1-1-1.94,1.08-3.31-1.8-3.74-3-1.58-.79-3.53,1.15-5.18,1.73V438a19.34,19.34,0,0,0,4.68,1.15h.22c.5-.65-.72-1.15-.79-1.22a5.88,5.88,0,0,1-.65-2.38,4.47,4.47,0,0,0-3.46-1.8v-5a3.51,3.51,0,0,0,.22-.5,3.18,3.18,0,0,1,1.51-2.38,11.73,11.73,0,0,1,1.51,1.37c.72,0,1.37-1,2.52-1,.72.79.43,2.09.14,3.1,3.53-.29,2.81-5.76,5.18-6.26.29.29.86.22,1.44.22.43,1.87-2.81,3.31-2.81,4.75.07.07.07.07.14.07a27.71,27.71,0,0,0,4.68-3.1c1-1.58.36-2.38,2-3.46.07.14,0,.65.07,1.22h.29c.58-.86,1.8-2,1.87-3a8.39,8.39,0,0,1-3.89-.5c-.22-1.87,1-2.52,2.23-3.53,2.45-.43,1.37-.65,2.23-2.45a7.46,7.46,0,0,0,1.51.22c-.29-3.74-1.3-1.58-2.16-3.82a3.6,3.6,0,0,1-.72-2.59,31.55,31.55,0,0,1,3.31.22c-.14-2.38-1.08-4.68-1.66-6.77,2.88.58,1.15,1.22,2.59,2.66a8.43,8.43,0,0,0,.94-2c-1.37-1.08-2.3-3.1-1.22-4.68a13.52,13.52,0,0,1,2.52.94,4.58,4.58,0,0,0-.36-2.3c-1.15-1.08-1.51-1.22-1.37-2.52-1.37-1.08-3.24-3.67-2.09-5-.22-2.09-1.73-2.16,0-4.1.36-3.1,1.73-2.23,4-2.38,1,.5,1.15,1.44,1.51,2.66,1.44.29,1.37,1.51,1.51,3,.07,0,.07,0,.14.07.86-1.15.79-1.22,2.3-1.22,1.87-2.88,2.74-.79,4.9-2,2.16-.14,4.1-1.15,4.1,2.16,1.44,2.45-.79,5.26-3.46,5.26-.58,2-1.51,2.09-3.46,1.87-.86,2.38-5.69,2.09-5.69,4.39.36.22,2.38-1.08,3.46-1.08.43.36.5.65.79.79,1.15-.5,3.31-1.22,4,.58,4.54,3.53-.86,2.23-2.38,3.74-1.51,3.24-5.47,4.1-8.06,6.19a10.72,10.72,0,0,0-.5,3.1h1.94c.94-1.66.07-2.88,2.09-3.74,1.22-1.08,2.52-2.74,3.53-.43h.29c2.45-2.45,6.55,1.3,3.53,3.82v.36c1.58.22,2,.58,3.31,2,1.73.5,2.59,1.51,2.66,2.45v.43c-.14,1.37-1.73,2.52-4,1.94-.22,1.73-2.3,3.17-4,3.17,0,.07-.07.22-.07.29.72.58,2.38,1.51,2.38,2.74a2,2,0,0,0-.36.86c1.94,1.58.79,1.44,1.37,3.38-.22,3.1-2.09,1.44-3.67,1.44-.14.29-.07.72-.43,1.15-1.58.86-3.24-.22-4-1.37-2.16,0-2.23,0-3.31-2-2.16,0-2.74-.14-3.89-2.59-1-1-4.39-.22-4.39,1.08a9.28,9.28,0,0,1,2.81,3.17c1.3,0,2.16-1.3,4.18-.14,1.22,2.38.5,4.25-2.23,5.18,0,2.38-2.52,2.59-4.25,2.59-.94,2.38-3.53.72-3.74,1.87,2.23,1.44,1.51.94,1.51,3,.94,3-2.52,2-3,2.81Zm-12-2.23V438a44.25,44.25,0,0,1-4.9-2.45v-.29a11.78,11.78,0,0,1,4.9-1.51v-5c-.36,1.15.29,1.15-1.87,1.3-2.88,2.74-6.41,6.34-9.29,1.73a5.56,5.56,0,0,1-1.58-1.94,1.85,1.85,0,0,0-1,.36,8.37,8.37,0,0,0,.29,1.3,4.46,4.46,0,0,1-1.66-.29v2.3h.5c.94.36,3.89,1.3,4.32,2.09a21.68,21.68,0,0,1-4.82,2.23v3.74c.86.14,1.58-.29,2.16-1.8.65-.65,4.54-2.88,5.4-2.88,2.52,1.22,4.39,1.51,5.4,4.46a1.78,1.78,0,0,0,2.16.43Zm-15.12-.22c-1.37-.14-3.1-1.73-5-1.73a3.11,3.11,0,0,1-1.66,1.51c-.36.94-1.66,3.6-2.88,1.73h-.36c-.94,2.45-2.74,1.58-4.82,1.58-2.23-.94-1.51-3.53,0-4.54V440c-.79-.5-.58-.79-.58-1.58a1.84,1.84,0,0,1-1.37-1.22c-2.59,0-3.53,1.22-5.69-1.3-.07-.65.22-.94.22-1.3-2.38-1.22-4.1-4.54-.65-5.33,1-1.73,1.51-.58,3.24-.58,0-.07.07-.14.07-.22-1.8-1.8,4.18-2.59,1.08-4.46-3.53,0-3.17,3.67-6.55,3.67a3.89,3.89,0,0,1-3.6,2.45c-1.73-.94-3.46,2.23-4.75-.14-1.08,0-2.45-.07-3-.65-.79-2-1.3-2.3.29-3.67,0-1.94-.72-1.87,1.44-3.31,1.51-.36,1.3.07,1.58-1.37-2.3-1.22-1.3-1-1.58-2.59-1.15-.43-1.94-1.37-2.88-1.73-7.78-.5-2.52-4.9,1.15-6.34,1.44-3.31-1.66-4,3.24-4,1.08-.5,1.08.22,2.16.22a2,2,0,0,0,.79-1.37c-1.15-1.15-2.3-.94-2.3-3,.29-.58.29-.58.29-.79-2.23-1.15-5.69-.79-2.88-4.25.94-.58,1.08-.22,2.16-.22,1.3-1.73,2.66-1.08,4,.58h.29c.14-.94,0-.86.72-1.37v-.29c-1-.86-2.23.14-2.88-1.08-1.8-.22-3.1.43-3.38-1.58-1.8-.43-2.38,1.37-4.18-1.22,0-.36.14-.65.14-.94-2.52,0-2.3-.5-2.52-2.45-1-2.38-1.15-3.31,1-4.32.43-2.52,2.81-1.94,4.32-.29.22,0,.5-.36.72-.5,2.23,0,2.74,1.08,3.46,3.17,1.22,0,1.15-.79,2.38.65a.65.65,0,0,0,.36-.07c.65-2.81.79-.94,1.87-2,.22-1.94,2.16-4,3.74-1.87.43,1.08,3,1.15,1.94,3.67a.54.54,0,0,0,.07.29c1.51.65.94,2.74-.29,3.67v.22c1.73,1.66-2.16,3.6-2,5.54a5.5,5.5,0,0,1,2-1.44,9.84,9.84,0,0,0,.14,1.37,4.62,4.62,0,0,0-1.58,3c2.52,2,1.66,3.67,1.94,6.34,1.44.36,1,1.94,1,3.46a.91.91,0,0,1,.43.07c.79,1.58-.36,1.73-.5,3.46a3.06,3.06,0,0,1,1.22,2.52c.43.22,1.37-.14,2.3.22.22.29.22.29.72.58a3.41,3.41,0,0,1-3.24,3.1,8.31,8.31,0,0,0-1.08-.58c.29,1.94,1.66,0,2.16,2.81.43.72,2.16,3.67,3.24,4l.14-.14c-.79-1.15-2.3-3.89-.43-4.25.14.14.29.36.43.5a1.4,1.4,0,0,1,1.37.5c-.86,5.18,2.16,5.33,6,7.27h.29c.79-1,.43-1.8,1.37-2.88.43,0,.94.58,1.58.65.36-.43.72-.79,1-1.15,1.44,0,2.81,2.52,2.23,4-.29.29-.5.36-.5.79l.72.36v2.3a5.41,5.41,0,0,0-3,1.44c-.07.22-2.3,3.6-1.66,3.82a19.11,19.11,0,0,0,4.68-.94Z" transform="translate(-218.66 -308.45)" fill-rule="evenodd"/><path d="M339.55,395.93c-1-1.15-1.73-2-1.73-3.31-.72-1.22-2.88-3-2.52-4.32a4.4,4.4,0,0,1,.86-.36c0-2-2.38-2-.43-4.18.36-2.81,1.22-1.66,3.31-1.87,1.15,1.22.29,1.73,1.08,3,.43-.07.36-.22.94-.22.58.94.22,1.94.29,3,.43.22.79.36.43,1.08-1.22,1.08-.79,4-1.37,4.39-.86-.86.22-2.81.14-3.53a8.26,8.26,0,0,0-.58,1c-.86-.65-1.3-4.61-1.37-5.26-.07,0-.07.07-.14.14-.36-.5-.58-1.15-.79-1.37.14,1.3,1.44,2.88,1.22,4.46-.5,0-1.08-.94-1.22-1.08a.26.26,0,0,0-.22.07c1,1.22,2.38,2.74,2.23,4.75-.79,0-1.22-1.44-1.73-1.3.5.58,2.09,2.16,1.87,3.24h-.22c-.22-.22-.29-.22-.36-.22a3.07,3.07,0,0,1,.43,1.73C339.62,395.86,339.55,395.86,339.55,395.93Z" transform="translate(-218.66 -308.45)" fill="#cba349" fill-rule="evenodd"/><path d="M287.28,444.31c-2.52-.58-3.38.58-3.38-2.38.43-1.22,1.8-1.22,1.94-2.23-.65-.5-1.66-.29-1.08-1.22,1.08-.43,1.3-.07,2.23-1.15h.43c.86,1.37,3.24-.14,4-1.08h.43c.86,2.52-3.74,2.52-4.75,2.52.65.07,1.3.22,1.94.29v.22a6.69,6.69,0,0,1-2.09,1.51h.72c0,.29,0,.29-.22.5h.22a5.63,5.63,0,0,1,3.6-2.66c.14.07.14.65.14,1a10.15,10.15,0,0,1,1.15-3c.43,0,.43,0,.65.14,1.51-2.52,1.44-2.45,4-3.53.14-.07.22-.22.29-.29-1.15,0-2.38.79-3.38,1.22-.43.79-1.44,2.45-2.16,1.08-1.37,0-3,3.6-4.32,1.15-1.66,0-1.51,2.3-4.25,1.08a3.72,3.72,0,0,1,.14-.79c-.86-.5-2.59.43-3.6.5-4.1-1.37-1.58-1.94-2.3-3-1.51-.65-4-2.88-1.8-4.18,1.66-.29.94-1.3,2.66-1.08,1.51.72,1.22.07,2.74,0,1.15.58,1.44,1.08,1.73-.43,2.59-1.51,3.1,1.73,5,2,1.66-1.3,3.31.94,5.18,1.66a27.94,27.94,0,0,0,4.25.14c-1.22-.86-3.46-.43-4.61-.79a7.89,7.89,0,0,0-4.75-2.09c-1.22-.58-2.09-1.3-3.24-1.73-1.37-1.15-2.59-4.1-4.32-4.25-2.09.29-2.3.94-3.53,2.66-.43.22-1.51,1.08-2,.86-.07-.22-.07-.43-.14-.65h-.36c-1,1.3-1.3,3.31-3.53,3.1-.07-.65-.07-.65-.14-.72-1.15.07-3.82,3.17-4.32.58-2.3-.07-3.67.58-3.67-2.3.29-.29,1.44-1.22,1.44-1.66l-.65-.43c0-1.94,1.44-2,3.1-2.09l.36-.36c-.22-.5-.36-.86-.07-1.22h.5c1.22,2.38,2.45-.36,4,.58.72,2.23,2.52.43,4.25.65a5.35,5.35,0,0,0,2.88.29c0,.14,0,.22-.07.29-2.3.43-4,.29-6,1.22-.86-.07-1.94-.58-2.38-.5.29.14.5.29.79.43v.29L267,425.52c.43,0,.86.07,1.37.07a.43.43,0,0,0,.07.29c-.58.36-1.15.65-1.66.94a.26.26,0,0,0,.07.22c1.08-.72,3-2.16,4.32-2.23.07.07.07.14.14.22a9.68,9.68,0,0,1-1,.79c.07,0,.14.07.22.07a9.44,9.44,0,0,1,3.89-1.94v.29a3.86,3.86,0,0,1,2.45-.43c0,.14.07.22.07.36s-.14.07-.22.14H277c.94-1.08,3.67-1.15,4-1.51a22.36,22.36,0,0,0-6.26-1c-3.53,1.44-1.73-.72-4.18-.72-.94.36-1.87.86-2.52.22-.72-1.73-2.74-.36-2.74-2.23.43-.36,1.08-.36,1.08-.94a2.36,2.36,0,0,0-1.8-.36c-1.8-2.16-1.44-4-4.46-1.87-2.88,0-1.37-2.59.5-3.24,1.15-1.15,2.16-2.23,3.74-.86h.43c.79-2.52,2.74,1,3.67,1.15a8.73,8.73,0,0,1,.36-1c2.45-1.37,3.24,2.52,4,3.46h.43a10,10,0,0,0,.43-.94c1.66,0,2.09,2.23,2.66,3.74a17.72,17.72,0,0,0,5.47,4.46c1,1.3,2.3,3.67,4.32,4.18-.43-1.66-1.8-3.38-1.51-4.82h.22c.22.43.22,1.08.5,1.8h.22a5.84,5.84,0,0,1,.22-1.15h.36c-.14,1.51.5,3.1.94,4.75.5.29,8.06,4.54,9.72,3.46a.26.26,0,0,1-.07-.22c-.72-.36-.86-.65-.79-1.3.07,0,2.81-.07,2.88,0a1.72,1.72,0,0,1-.79.43,1.33,1.33,0,0,0,.5.14v.22a6.26,6.26,0,0,1-1,.58V431a34.09,34.09,0,0,0,4.9,1.87c-.14-.94-.86-1.66-1.08-2.38a.43.43,0,0,0,.29.07,7.82,7.82,0,0,0,4.32,4v.22c-2.23,1.51-4.54-1.87-7.06-1.66-2.3.86-2.74.94-3.46,3.17-1.15,1.22-1.37.58-1.37,2.45-.43,2.16-1.44,1.44-2.23,3.74-1.44,1.44-1,.29-1.66-.36C288.22,442.08,289.44,444.1,287.28,444.31Z" transform="translate(-218.66 -308.45)" fill="#cba349" fill-rule="evenodd"/><path d="M325.3,443.81c-1-.72-1.51-2.23-2.45-1.15-2.38.29-2.52-3.17-2.88-4.39-1.8-1.15-.94-1.87-1.73-3.17-4.75-3-5.33-1.94-10.37.36-1.15.65-6.12,4-7.42,4a2.84,2.84,0,0,0-1.87-.58v-.29c4.9-1.66,10.3-4.18,13.9-7.85.14,0,.22-.07.36-.07a4.55,4.55,0,0,0-.86,1.66c3.17-.94,6.77-1.66,9.94-2.81,1.3-1,2.38-4,2.88-5.62h.29a4.29,4.29,0,0,1-.07,1.3c.43,0,.58-1,1.3-1.08-.72,1.94-2.59,2.81-3.38,5.11a10.77,10.77,0,0,0,7.27-5.9.26.26,0,0,1,.22-.07c0,.22.07.43.07.72,1.66,0,4.32-5.4,4.9-7-.22-.36-.43-.29-.5-.36v-.22c1.3-.65,1.3-2.45.86-3.53,0-3,.86-5.76.86-8.64,1.51-1.22.14-2.23,2.38-2.23.79-.5.5-2.88,1.58-3.74,1.44-.14,2-1.22,3.53-1.37a1.65,1.65,0,0,1-.07.79c.72.72,2.59-1.15,4.32-.29.5,1.44,2,.65,2,2.16-1.51,1.51-4.46-2.16-5,.58-.07.14-.14.22-.22.36-1.15,0-1-.65-2.09.43h-.29a9.94,9.94,0,0,1,.07-1c-.65.86-.14,1.66-1.15,2.74-.43,0-.86-.43-1-.5,0-.43.07-.86.07-1.3-1.22,2.23-3,3.82-3.89,6.41-.07.36-1.22,5.4-.43,5.9a12.07,12.07,0,0,1,1.15-4.61H338c-.79,4.46-1.15,10.15-4.75,13.61v.22c2.09-1.37,2.45-2.52,4-4.25,1.58-.07,1.58-2.52,3.6-2.74.07.14.22.29.36.5.79-.14,5-6.84,5.47-3.17,1.37.72,2.38-3.6,6.12.5,3.31,1.08,2.88,4-.43,3.74-.72-.22-1.87-.79-2.23.07.22.29.22.29.72.58v.5a16.76,16.76,0,0,1-2,1.87c-.94,0-1.66-.22-2.16.43a1,1,0,0,1,.29.72c-1.94,2-4.25-.36-5.26.14a2.1,2.1,0,0,1-.14.65c-.65.43-2.66-.43-3.46-.5-1.73,1.15-3.1.65-4.75,1.51-1.15.86-3.74,2.66-4.18,3.82a23.09,23.09,0,0,0-3,1.87c0,.07-.07.14-.07.22a1.11,1.11,0,0,1,.43.29c0,.07-.07.07-.07.14-2,0-3.74,1.15-5.47,1.73-4.39,1.15-4.39,1.15-5.76,1.58v.22a10,10,0,0,0,4.54,1.73c.94.36,1.44,1.8,2.88,1.8,1.44-.65,1.8,1.22,3.89,1.08.22-.14.22-.14.72-.22.14.14.14.22.14.5a3.13,3.13,0,0,1-.5.43v.29c.65.29,2.38.79,2.16,1.94-.22.14-.43.22-.65.36a2.4,2.4,0,0,0,.86,1.08c0,1.66-2.23,1.37-3,1.37a1.57,1.57,0,0,0-.36.58Z" transform="translate(-218.66 -308.45)" fill="#cba349" fill-rule="evenodd"/><path d="M327.17,442.73c-1.44-1.94-3-2.38-4.39-4h-.22a8.14,8.14,0,0,1,.14,1.58c-.86-2.81-1.22-3-3.38-4.75v-.14a26.88,26.88,0,0,1,3.38,2.74c.29.14,2.16.43,2.59.58-.29.07-1.3-.07-1.87-.07.29,1.87,2.38,1.73,4,1.8a2.71,2.71,0,0,1-1.15.29c0,.86,1,.72,1.44,1.37h-.43C327.24,442.73,327.24,442.73,327.17,442.73Z" transform="translate(-218.66 -308.45)" fill-rule="evenodd"/><path d="M313.34,441.43c-.72-.29-.58-.43-.65-.94.22-.22.5-.43.58-.72a2.45,2.45,0,0,0-.72.07,22.55,22.55,0,0,0-5-3.24v-.29c1.94-1.08,5.76,1.87,7.78,2.88.5.14.5.14.58.22-.72.65-2,.72-2.81,1.15v.29c1.08.72,2.45-1.22,3.53-1.08C315.58,440.57,314.64,441.43,313.34,441.43Z" transform="translate(-218.66 -308.45)" fill="#cba349" fill-rule="evenodd"/><path d="M299.16,441.07a10.69,10.69,0,0,0-3.74-1.66.43.43,0,0,0,.07-.29C298.73,438.19,302.18,441.07,299.16,441.07Z" transform="translate(-218.66 -308.45)" fill="#cba349" fill-rule="evenodd"/><path d="M299.38,440.64c-.43-.29-.86-.58-1.37-.86a2.66,2.66,0,0,1,1.8.5C299.81,440.64,299.52,440.64,299.38,440.64Z" transform="translate(-218.66 -308.45)" fill-rule="evenodd"/><path d="M328.61,437.33c-.86-.36-1.37-.94-1.94-1.08-.5,1.8-2.88-.79-3.53-.86-1.22,1.22-2.23-.79-3.17-1.3-1-.07-3.67-.58-3.82-1.37,1.08-.5,2.88.22,4.68-.58,1.73-1.08,3.46-.43,5-1.37.72-.65,2.09-2.3,3.17-1.44v.86c1.37,1.37,2.66-3.1,4.39-1.15,0,.29-.07.5-.07.79,1.08,0,3.53-2.38,4.54-.07.43,3-.79,2.66-2.81,3.74,0,4-3.89.79-4.1,3.24A3.28,3.28,0,0,1,328.61,437.33Z" transform="translate(-218.66 -308.45)" fill="#cba349" fill-rule="evenodd"/><path d="M328.61,435.6a14.14,14.14,0,0,0-6.41-2.3c0,.07.07.22.07.29,1,.58,1,.58,1.22.72-1,0-2.59-.86-3.74-.94,0-.07-.07-.07-.07-.14.72-.29,4-.72,5.11-.94-.22.22-.22.22-1.08.58v.29c2.23.58,3.24.86,5.4-.72h.22c-.5.36-1.8.94-1.94,1.44a28.07,28.07,0,0,0,5.83-1.22c.36-.22.65-.65,1-.58-.14.14-.14.14-.07.43a11.46,11.46,0,0,1,1.94-.14,49.11,49.11,0,0,0-5.33,1.15v.29c.5.14,1,.22,1.51.36a45,45,0,0,1-5.4,0c0,.07.07.22.07.29a10,10,0,0,1,1.87,1.08A.26.26,0,0,0,328.61,435.6Z" transform="translate(-218.66 -308.45)" fill-rule="evenodd"/><path d="M286.92,434.88l.5-.5c-1-.79-2.45.14-3.53,0a7,7,0,0,0,1.51-.43v-.29c-2.16-.72-3.89.43-5.62.14.43-.14,1.51-.14,1.94-.5-1.22-1.22-2.3-1.22-3.67-1.44.43-.07.94-.07,1.08-.22-.22-.14-.36-.29-.58-.43,1.3,0,2.52,1.94,5,1.73v-.29c1.08,0,2.59,1.22,4.1,1.22.07-.07.07-.07.07-.14-.36-.36-1.94-1.51-1.87-2,1.44,1.51,3.67,2.88,6,1.73a.43.43,0,0,1,.07-.29c-.58-.36-1.08-.72-1.66-1.08.65,0,1.37.65,2,1.08.72,0,2.3-.58,2.81-.22a8.74,8.74,0,0,1-2,1c.07-.07.22-.14.29-.29-.5-.5-2.81,1-3.1.94a.53.53,0,0,0,.14-.43A27.68,27.68,0,0,0,286.92,434.88Z" transform="translate(-218.66 -308.45)" fill-rule="evenodd"/><path d="M313.2,431.35c.36-.65.43-1,1.3-1.08.14.14.36.22.36.58A3.42,3.42,0,0,1,313.2,431.35Z" transform="translate(-218.66 -308.45)" fill="#cba349" fill-rule="evenodd"/><path d="M316.22,430.7c-1-.22-1.3-.5-1.37-1.37a25.4,25.4,0,0,1,2.81-.14.43.43,0,0,0-.07.29,3.51,3.51,0,0,0-.5.22c.07.07.22.14.29.22C317.45,430.56,316.66,430.63,316.22,430.7Z" transform="translate(-218.66 -308.45)" fill="#cba349" fill-rule="evenodd"/><path d="M294.84,430.63c-.65-.22-1.37-.36-1.3-.94a12.75,12.75,0,0,1,1.66.07c0,.07.07.14.07.22s-.22.14-.36.14c.29.07.43,0,.65.43A2.22,2.22,0,0,0,294.84,430.63Z" transform="translate(-218.66 -308.45)" fill="#cba349" fill-rule="evenodd"/><path d="M325,430.34v-.29c.22-.07.43-.29.79-.07A.77.77,0,0,1,325,430.34Z" transform="translate(-218.66 -308.45)" fill="#fff" fill-rule="evenodd"/><path d="M345.74,430.27c-2.52-.5-2.3-2.3-3.46-2.45-.14.07-.29.65-.43.79-1.94,0-1.37-2.3-3-2.3a1.51,1.51,0,0,0-.29.43c-1.3-.14-2-1.66-2.45-2.52-.86-.86-1.73-.58-2.59-.65.5-2.09,4,.72,4.39.58a.93.93,0,0,1-.5-.65,4.2,4.2,0,0,1,2.88,1.3v-.22c-.36-.36-.79-.65-.86-1a9.08,9.08,0,0,1,6,3.67c0-.94-1.58-1.58-1.73-2.23,1.58,0,2.74,1.22,3.89,2.45v-.22a1,1,0,0,1-.29-.65c.36.14.58.36,1.08.22a17,17,0,0,1-2.81-1.37v-.22a9.82,9.82,0,0,0,1.73.14c-1.94-.86-3.89-.58-5.76-1.58,0-.07-.07-.22-.07-.29l1.15-.22c-4.61-.07-4.61-.07-5.47-.22.58-2.38,3.38.79,5-1.08,1.73.29,3,1.22,4.9-.14a.91.91,0,0,1,.43-.07c.58,1.15,2.52.79,1.22,2.59.22.94,2.09,1.22,1.08,2.59,0,1,1.15,2.3-1,2.3C345,427.82,347.83,429.84,345.74,430.27Z" transform="translate(-218.66 -308.45)" fill="#cba349" fill-rule="evenodd"/><path d="M318.31,430v-.65a1.05,1.05,0,0,1,1,.36C319.1,429.91,318.67,429.77,318.31,430Z" transform="translate(-218.66 -308.45)" fill="#cba349" fill-rule="evenodd"/><path d="M294.34,429.26c-2.16-.79,1.37-3.6,1.37-.79-.14.14-.14.14-.36.07s-.07-.22-.14-.36a4.86,4.86,0,0,1-.14,1A1.62,1.62,0,0,1,294.34,429.26Z" transform="translate(-218.66 -308.45)" fill="#fff" fill-rule="evenodd"/><path d="M319.54,429.19c0-.43-.07-.43.07-.65h-.22c-.07.14-.14.22-.22.36-.79-.07-1-.36-1.08-.94.58-.65.72-1,1.73-1C320.4,427.54,320,429.48,319.54,429.19Z" transform="translate(-218.66 -308.45)" fill="#fff" fill-rule="evenodd"/><path d="M296.71,429c-2.3-.72,1.73-4.54,1.73-.36-.36.22-.5-.58-.5-.58,0,.29-.07.58-.07.79C297.65,429,297.65,429,296.71,429Z" transform="translate(-218.66 -308.45)" fill="#fff" fill-rule="evenodd"/><path d="M316,428.9c-.5-.07-.5-.07-.72-.22,0-4.68,3.1.14,1.66-.14-.07-.22-.14-.43-.22-.72C316.66,428.54,316.66,428.76,316,428.9Z" transform="translate(-218.66 -308.45)" fill="#fff" fill-rule="evenodd"/><path d="M329.76,428.83c-.07-.14-.07-.14-.14-.79-.14,0-.22-.07-.36-.07,0-1.3.58-1.8,1.87-1.66C331.13,427.1,331,428.83,329.76,428.83Z" transform="translate(-218.66 -308.45)" fill="#cba349" fill-rule="evenodd"/><path d="M327.6,428.54c0-.5.65-.65,1.08-.72C328.61,428.62,328.18,428.47,327.6,428.54Z" transform="translate(-218.66 -308.45)" fill="#fff" fill-rule="evenodd"/><path d="M280.3,428.26c-.72-.86.58-1.66,1.44-1.66a1.69,1.69,0,0,1,.36,1.15A5.16,5.16,0,0,1,280.3,428.26Z" transform="translate(-218.66 -308.45)" fill="#fff" fill-rule="evenodd"/><path d="M331.56,428.11c0-1.66,1.15-1.37,1.37-.14C332.71,428.11,332.71,428.11,331.56,428.11Z" transform="translate(-218.66 -308.45)" fill="#cba349" fill-rule="evenodd"/><path d="M282.82,427.75c-.43-.14-.79-1.51-.79-1.66.72-.72,1.8.36,1.8,1.37C283.68,427.61,283.68,427.61,282.82,427.75Z" transform="translate(-218.66 -308.45)" fill="#cba349" fill-rule="evenodd"/><path d="M278.5,421.56a10.86,10.86,0,0,0-4.46-.65,4.65,4.65,0,0,1,1.87-.29c.07-.22-3.67-2.16-3.82-2.23a26.85,26.85,0,0,1-3,.22A15.23,15.23,0,0,0,271,418c-1.51-1.3-2.3-.58-3.74-.86.07-.07.07-.07,1.8-.29v-.14c-.86-1.08-2.81-.79-3.74-.86a6.23,6.23,0,0,1,1.37-.14v-.14c-1.37-1.22-3.24-1.44-4.75-1.66,1.94,0,3.1,1.08,5.11,1.22a.73.73,0,0,1,.07-.22c.58.5,3.31,2.74,4.1,2.59v-.79c.36,1.22,2.38,2.45,3.67,2.88a5.64,5.64,0,0,0-.22-1c1.15,1.73,2.23,1.87,4.1,3C278.71,421.49,278.57,421.56,278.5,421.56Z" transform="translate(-218.66 -308.45)" fill-rule="evenodd"/><path d="M280.51,421.49a11,11,0,0,1-5-7.06,8.5,8.5,0,0,0-2.66-.65c-.36-1.15-1.15-1.66-1.37-2.59h-.22l-.22.43c-2.3-.94-2.09.14-3.24.14-1.08-1.22-1.37-1.51-2.81-1.37-1.94,1.37-1.44-3.31-.43-3.6,1.37.14,2.38-.22,3.6.65.14,0,.29.07.5.07,1.22-1.44,1.22-1.37,3,.29,2.16,1.22,1.3,3.6,2.66,4.32.36-.14.43-.5.72-.72,3.1,0,.43,5.47,3.67,7a36.16,36.16,0,0,1,2.16,3.1Z" transform="translate(-218.66 -308.45)" fill="#cba349" fill-rule="evenodd"/><path d="M335.66,421.49c0-.07-.07-.07-.07-.14a8,8,0,0,0,1.87-1.94V420A5.52,5.52,0,0,0,340.2,418v.22a4.4,4.4,0,0,0-.5,1c2.45-.43,2.74-1.08,3.89-3.46,0,.65-.86,1.58-.72,2.3.86,0,4.25-2.3,4.82-3.24h.22a1.92,1.92,0,0,0-.36.94c1.08-.29,3-1.8,4-1.66-.5.29-.86.29-1.08.79a18.09,18.09,0,0,0,1.94.29c-2.09,0-3.1-.07-4.68.86,0,.07.07.14.07.22a6,6,0,0,1,1.22.22c-1.22.07-4.39.07-4.82,1.44.94,0,1.87.07,2.88.07a.26.26,0,0,0-.07.22,7.85,7.85,0,0,0-5,.79v.29a18.15,18.15,0,0,1,2,.65c-1.94,0-3-.65-5-.07V420a9.09,9.09,0,0,1,1.3.58c-.65-.07-1.3-.22-1.94-.29A21.27,21.27,0,0,0,335.66,421.49Z" transform="translate(-218.66 -308.45)" fill-rule="evenodd"/><path d="M331.27,419.62c-2.23-.58-1.58-2.52-.07-2.52a4.06,4.06,0,0,1,.5,1.66c-.14.14-.14.14-.94.22,0,.07.07.07.07.14.43,0,.94.07,1.44.07v.22C332.06,419.54,332.06,419.54,331.27,419.62Z" transform="translate(-218.66 -308.45)" fill="#fff" fill-rule="evenodd"/><path d="M333,419.18a3.66,3.66,0,0,1-1.3-2.81c1.58-.94,2.45.29,2.59,1.8-.14.22-.72,0-.79,0a1.57,1.57,0,0,0,.29.36c-.22.29-.65-.14-.86-.14.14.22.36.43.5.65s-.07.07-.07.14Z" transform="translate(-218.66 -308.45)" fill="#cba349" fill-rule="evenodd"/><path d="M280.87,418.61a1.59,1.59,0,0,0-.58-.07c-1.3-1.87.72-3.74,1.37-.43A6.49,6.49,0,0,1,280.87,418.61Z" transform="translate(-218.66 -308.45)" fill="#cba349" fill-rule="evenodd"/><path d="M282.24,418.18v-.29a6.64,6.64,0,0,0,.58-.36l-.07-.07a3.27,3.27,0,0,1-.58.14,3.22,3.22,0,0,1-.65-1.58C283.68,415.51,284,417.89,282.24,418.18Z" transform="translate(-218.66 -308.45)" fill="#fff" fill-rule="evenodd"/><path d="M278.57,417.89c-.94-.58-.86-.86-.94-1.73a2.37,2.37,0,0,1,1.87,0v.22a1.69,1.69,0,0,0-.58.14c.14.07.29.22.43.29-.29.36,0,.43,0,.94C279.14,418,278.71,417.89,278.57,417.89Z" transform="translate(-218.66 -308.45)" fill="#cba349" fill-rule="evenodd"/><path d="M337.32,417.53a1.23,1.23,0,0,0-.5-.07c.29-1.51.94-2.23,1.08-4,1.37-4,1.94-.72,3-2.81a5.92,5.92,0,0,1,.94-2.81c.94-.43,2.23-1.87,3.17-1.73a6.74,6.74,0,0,1,.36,1.08c1.22.22,4.75-2.66,4.75,1.73-.43.94-1.44.86-1.3,1.94a3.31,3.31,0,0,1-1.58.94c-1-1.51-2.45.07-3.6.22,0-.07-.07-.22-.07-.29,1.15-1.44,2.52-1.73,3.82-2.81-.72,0-1.87,1.15-2.38.79a1.49,1.49,0,0,0,.14-.58,16.91,16.91,0,0,1-3.46,4.32h-.14c0-.65.07-.86.07-1.08-.5,1.22-1.37,3.24-3,3.46a1.07,1.07,0,0,1-.07-.5,13.51,13.51,0,0,1-.86,2.16A.54.54,0,0,0,337.32,417.53Z" transform="translate(-218.66 -308.45)" fill="#cba349" fill-rule="evenodd"/><path d="M262.8,416.45a10.38,10.38,0,0,0-1.66-.5v-.22c.72-.29,1.73-.43,1.94.65A.54.54,0,0,0,262.8,416.45Z" transform="translate(-218.66 -308.45)" fill="#cba349" fill-rule="evenodd"/><path d="M334.15,416.16c-1.15-1.15.07-3.31,1.22-1.51,0,.22,0,.22-.07.29s-.22-.07-.36-.29a7.93,7.93,0,0,1,.14,1.3A1.61,1.61,0,0,1,334.15,416.16Z" transform="translate(-218.66 -308.45)" fill="#cba349" fill-rule="evenodd"/><path d="M280,415.66v-1.08c-.14,0-.22,0-.22-.07a1.91,1.91,0,0,1-.36,1c-1.58-.07-1.44.22-1.37-1C279.36,411.48,281.3,415.66,280,415.66Z" transform="translate(-218.66 -308.45)" fill="#fff" fill-rule="evenodd"/><path d="M341.42,415.08c-.29-.29-.36-.36-.36-.58.36-.29.58-.58,1-.65C342.07,413.93,341.71,415.37,341.42,415.08Z" transform="translate(-218.66 -308.45)" fill="#fff" fill-rule="evenodd"/><path d="M277.49,414.22c-.72-.22-.07-4,.36-4.9h-.22c-.07.07-.07.22-.14.29h-.29a11.54,11.54,0,0,1-1.22-4.46,4.59,4.59,0,0,0-.14.5h-.36c-.43-.94-4.54-5.76-5.11-5.54v.07a1.62,1.62,0,0,1-.72.07c.07.14,3,1.15,2.66,2.23a6,6,0,0,0-1.3-.22c1.73.58,4,1.66,4.32,4-.94,0-1.3-.79-2-.65.79.65,4.75,3,3.38,5.11.22.86.22.86.14,1h-.29c-.65-.86-.79-1.73-1.22-2.09-2.16-.79-3.53-3-5.54-3.82v-.22a2.53,2.53,0,0,0,.58-.36c0-.07.07-.22.07-.29-.72-.72-4-.86-2.88-2.88a4.8,4.8,0,0,1,1.44,0c.72-1.58-1.58-2.66-2.52-3-4,2-2.74-1.66-.94-1.8,3.67,1.58-.22-.72,3.1-.86,1.08.43,2.59,3.38,2.74.5,1.8-1.73,3.6,2.88,4.25,3.82h.29c1.37-2.09,2.59,2.74,2.45,4.32-.43,1.22-.86,1.73.65,1.51C280.15,407.38,277.56,414.29,277.49,414.22Z" transform="translate(-218.66 -308.45)" fill="#cba349" fill-rule="evenodd"/><path d="M278.78,413c-.65-.22.79-2.59,1.44-2.81C280.22,410.54,279,413.14,278.78,413Z" transform="translate(-218.66 -308.45)" fill="#cba349" fill-rule="evenodd"/><path d="M274.18,411.19a4.91,4.91,0,0,1-.14-1.37,1.63,1.63,0,0,1,1.08.36c0,.14.07.29.07.43A5,5,0,0,1,274.18,411.19Z" transform="translate(-218.66 -308.45)" fill="#fff" fill-rule="evenodd"/><path d="M334.51,410.62c-.43-.14-.5-.22-.5-.43.58-.43,1.37-1.51,1.87-1.58a4.79,4.79,0,0,0-.29,1.58A1.82,1.82,0,0,1,334.51,410.62Z" transform="translate(-218.66 -308.45)" fill="#cba349" fill-rule="evenodd"/><path d="M333.72,409.61a2,2,0,0,1-.79-1.87c.72-.65,1.22-.43,2.16.29a.54.54,0,0,0-.07.29c-.58,0-.58-.36-.79-.29.29.43.43.43.43,1.08C334.37,409.32,334.08,409.61,333.72,409.61Z" transform="translate(-218.66 -308.45)" fill="#fff" fill-rule="evenodd"/><path d="M337.39,407.74c.07-1.58,1.73-4.39,3.38-4.61.07.14.14.36.22.5,1.66,0,1.8-2.66,3.38-2.66a1.26,1.26,0,0,0,.29.36c.94-.14,1.08-.65,1.3-1.44a1.82,1.82,0,0,1,1.22.07c0,.07.07.14.07.29-1,.5-1.15,1.51-1.87,2.52C343.87,403.92,339,407.38,337.39,407.74Z" transform="translate(-218.66 -308.45)" fill="#cba349" fill-rule="evenodd"/><path d="M335.74,404.21a5.71,5.71,0,0,1-.72-2.66h.29C335.45,401.69,336.38,404.64,335.74,404.21Z" transform="translate(-218.66 -308.45)" fill="#cba349" fill-rule="evenodd"/><path d="M268.2,401.47a4.73,4.73,0,0,0-2.38-1.08v-.29a1.79,1.79,0,0,1,2.74,1.37Z" transform="translate(-218.66 -308.45)" fill="#cba349" fill-rule="evenodd"/><path d="M337.39,400.61c-1.58-1.15.58-1.94,1.73-1.87a1.7,1.7,0,0,1,.14.94.15.15,0,0,0-.14.14c-.29-.22-.29-.22-.36-.43-.07.22-.07.5-.14.72-.5.07-.36.22-.58.5Z" transform="translate(-218.66 -308.45)" fill="#cba349" fill-rule="evenodd"/><path d="M275.69,400c-.43-.94,1.22-3.53,2.16-3.74C277.85,396.5,276.12,399.89,275.69,400Z" transform="translate(-218.66 -308.45)" fill="#cba349" fill-rule="evenodd"/><path d="M336.6,398.88c-1.22-1.37,1.3-2.52,1.58-.94a.07.07,0,0,0-.07.07,4,4,0,0,0-.65-.5,3.94,3.94,0,0,1,.14.86A1.92,1.92,0,0,1,336.6,398.88Z" transform="translate(-218.66 -308.45)" fill="#fff" fill-rule="evenodd"/><path d="M275,397.87a.26.26,0,0,0-.22-.07,14.46,14.46,0,0,1,.07-1.8c-1.44-.79.29-2.52.14-3.24a.88.88,0,0,1-.72.43c.14-1.94,1.15-3.17,1.37-4.46a7.65,7.65,0,0,0-.65.79h-.43c-.07-.14-.07-.29-.14-.36,0,1.94,0,1.94-.07,2.16-.58,0-.5-.36-.58-.43,0,.43.14,1.15.22,3.53-1.08.07.36-3.53-2-4-.14-1.22-1.08-3.6-.14-4.46,2.45,0,.86-1,2.38-2.74,2.3-.14,1.3.07,2.45,1.66a8,8,0,0,0,.94-.22c.79.86.36,1.94.36,3.17a1.81,1.81,0,0,0,.72.07c1.37,1.51-1.37,2.3-1.37,3.74.07.07.29.14.72.07.65.86-1.15,2.38-1.66,2.74C276.12,394.85,275.4,397.8,275,397.87Z" transform="translate(-218.66 -308.45)" fill="#cba349" fill-rule="evenodd"/><path d="M340,397.73c-.14-.72,1.66-7.56,1.8-8,1.44-1.94.29-3.53,3-3.24.65-1,1.22-2.23,2.81-1.8.79,1.15,3.46-1.73,5.18-.14.5,1.66,1.3,3.17-.36,4.54a3.17,3.17,0,0,1-.14.72c-1.51.94-2.66-.07-3.46.58v.29c2.09,2.09-2.88,1.58-3.24,1.8,0,1,.58.94-1,1.58-2.38.5-3.67,1.51-4.39,3.67l-.14.14C340,397.8,340,397.8,340,397.73Z" transform="translate(-218.66 -308.45)" fill="#cba349" fill-rule="evenodd"/><path d="M273.82,397.22c-2.3-1.51-1.51-2.3-4.32-2.3-.72-.43-.07-.79-.94-.94-3.38,1-1.66-1.44-4-1.44-1.3.72-3.38-.07-2.52-1.3v-.36c-1.73-1.73-2.66.86-2.81-2.38-1.8-3.6.65-2.45,1.15-5,1.8-1.8,3.53,2.23,4.39,1.73,0-.43,0-1,.22-1.22,2.88,0,1.8,2.09,3.38,3.53.07,0,.29-.07.43-.07,1.3-1.94,2.66,2.23,2.66,3.74.22.14.65-.07,1.08-.07.65.94.58,1.51.58,2.81.36,1,1.15,1.8,1.15,3.17C274.18,397.22,274.18,397.22,273.82,397.22Z" transform="translate(-218.66 -308.45)" fill="#cba349" fill-rule="evenodd"/><path d="M273.31,396.07c-1.51-1.37-1.66-1.66-3.38-2a5.56,5.56,0,0,1,1.08-.14v-.07c-.86-1.37-2.16-1.22-3.24-1.3a3.21,3.21,0,0,0,1.3-.36C267,390.1,265,391,262.8,390c.94.07,1.87.07,2.81.14,0-.07.07-.14.07-.22a9,9,0,0,0-3-2c.36,0,.79.36,1.3.29,0-.58-.5-.58-.36-.94.43.5,2.74,3.53,4,3.31a1.93,1.93,0,0,1-.14-.72,11.06,11.06,0,0,0,2,2.16c.36-.14.14-.94.14-1.15.72,2.16,2.23,3,3.67,5.11C273.38,396.14,273.38,396.14,273.31,396.07Z" transform="translate(-218.66 -308.45)" fill-rule="evenodd"/><path d="M341.06,395l-.07-.07a9.66,9.66,0,0,0,1.15-3.53c.07.22.14.43.22.72a.22.22,0,0,1,.14.07c1.08-1.15.5-2.52,1.22-3.46a7.54,7.54,0,0,0-.07,1.8h.29c.72-.79,1.58-2.88,2.09-3.17,0,.14-.29.86-.43,1.73a5.55,5.55,0,0,0,3.17-3c0,.36-.29.72-.29,1.3a6.7,6.7,0,0,0,3-1.8v.22c-.43.36-.72.5-.86,1.08a2.54,2.54,0,0,1,1.44.14c-2.09.29-7.2,1.8-7.7,3.89a7.47,7.47,0,0,1,2.3-.29c-.79.36-4.25.94-4,2.45.36,0,.79-.07,1.22-.07-1.66.5-1.58.65-2.59,1.94Z" transform="translate(-218.66 -308.45)" fill-rule="evenodd"/><path d="M274.46,388.44c-.14-.43-.14-.43-.07-.65h.22v.65Z" transform="translate(-218.66 -308.45)" fill-rule="evenodd"/></svg>