<svg xmlns="http://www.w3.org/2000/svg" xmlns:xlink="http://www.w3.org/1999/xlink" width="1080" zoomAndPan="magnify" viewBox="0 0 810 809.999993" height="1080" preserveAspectRatio="xMidYMid meet" version="1.0"><defs><clipPath id="be82c8d4e7"><path d="M 154.972656 0 L 655.222656 0 L 655.222656 810 L 154.972656 810 Z M 154.972656 0 " clip-rule="nonzero"/></clipPath></defs><g clip-path="url(#be82c8d4e7)"><path fill="#c38c1c" d="M 636.195312 236.8125 L 635.96875 236.113281 C 635.96875 236.113281 635.597656 235 634.875 232.976562 C 625.40625 207.828125 614.394531 183.371094 601.84375 159.609375 C 589.296875 135.847656 575.304688 112.964844 559.875 90.960938 L 541.839844 65.234375 L 487.25 91.207031 L 405.109375 0.1875 L 323.050781 91.207031 L 268.359375 65.152344 L 250.324219 90.960938 C 234.898438 112.960938 220.914062 135.839844 208.367188 159.601562 C 195.820312 183.359375 184.8125 207.8125 175.34375 232.957031 C 174.683594 234.792969 174.332031 235.886719 174.230469 236.152344 L 173.980469 236.9375 C 171.207031 245.890625 168.726562 254.925781 166.550781 264.042969 C 164.375 273.160156 162.5 282.339844 160.933594 291.582031 C 159.363281 300.824219 158.101562 310.109375 157.148438 319.433594 C 156.199219 328.757812 155.554688 338.105469 155.222656 347.472656 C 154.890625 356.839844 154.867188 366.210938 155.15625 375.578125 C 155.445312 384.949219 156.046875 394.296875 156.953125 403.628906 C 157.863281 412.957031 159.082031 422.246094 160.605469 431.496094 C 162.132812 440.746094 163.964844 449.933594 166.097656 459.0625 C 179.617188 518.082031 205.3125 577.066406 242.644531 634.414062 C 305.34375 730.757812 379.125 789.410156 382.222656 791.84375 L 405.109375 809.855469 L 427.976562 791.84375 C 431.09375 789.410156 504.855469 730.777344 567.554688 634.414062 C 604.886719 577.066406 630.601562 518 644.101562 459.0625 C 646.238281 449.929688 648.070312 440.734375 649.59375 431.480469 C 651.121094 422.226562 652.339844 412.933594 653.25 403.597656 C 654.160156 394.261719 654.757812 384.90625 655.046875 375.53125 C 655.335938 366.15625 655.3125 356.785156 654.980469 347.410156 C 654.648438 338.035156 654.003906 328.683594 653.046875 319.355469 C 652.09375 310.023438 650.832031 300.734375 649.261719 291.488281 C 647.691406 282.242188 645.816406 273.058594 643.636719 263.933594 C 641.457031 254.8125 638.976562 245.773438 636.195312 236.8125 Z M 636.195312 236.8125 " fill-opacity="1" fill-rule="nonzero"/></g><path fill="#ffffff" d="M 616.507812 242.734375 L 616.382812 242.363281 L 615.433594 239.621094 C 606.28125 215.328125 595.644531 191.703125 583.519531 168.746094 C 571.394531 145.792969 557.878906 123.6875 542.972656 102.429688 L 534.964844 90.960938 L 482.132812 116.128906 L 405.109375 30.71875 L 328.066406 116.167969 L 275.234375 90.960938 L 267.226562 102.390625 C 252.320312 123.644531 238.804688 145.746094 226.683594 168.703125 C 214.5625 191.660156 203.929688 215.285156 194.785156 239.578125 C 194.144531 241.351562 193.835938 242.320312 193.835938 242.320312 L 193.710938 242.695312 C 191.070312 251.21875 188.710938 259.820312 186.640625 268.5 C 184.566406 277.179688 182.785156 285.917969 181.292969 294.714844 C 179.800781 303.515625 178.601562 312.351562 177.695312 321.230469 C 176.789062 330.105469 176.175781 339.003906 175.859375 347.921875 C 175.546875 356.839844 175.523438 365.757812 175.800781 374.679688 C 176.078125 383.597656 176.648438 392.5 177.511719 401.378906 C 178.378906 410.261719 179.539062 419.105469 180.992188 427.910156 C 182.445312 436.714844 184.1875 445.460938 186.222656 454.152344 C 199.179688 510.78125 223.988281 567.617188 259.960938 622.800781 C 320.84375 716.421875 392.046875 772.925781 394.996094 775.277344 L 405.109375 783.242188 L 415.222656 775.277344 C 418.214844 772.925781 489.355469 716.421875 550.257812 622.800781 C 586.3125 567.511719 611.078125 510.820312 623.976562 454.191406 C 626.011719 445.503906 627.757812 436.757812 629.214844 427.953125 C 630.667969 419.148438 631.828125 410.304688 632.695312 401.421875 C 633.5625 392.542969 634.136719 383.640625 634.414062 374.722656 C 634.691406 365.800781 634.671875 356.882812 634.355469 347.964844 C 634.042969 339.046875 633.429688 330.148438 632.523438 321.269531 C 631.621094 312.394531 630.421875 303.554688 628.929688 294.757812 C 627.4375 285.960938 625.652344 277.21875 623.582031 268.539062 C 621.507812 259.859375 619.152344 251.257812 616.507812 242.734375 Z M 616.507812 242.734375 " fill-opacity="1" fill-rule="nonzero"/><path fill="#00478c" d="M 613.84375 356.179688 C 613.367188 325.957031 609.34375 296.214844 601.769531 266.953125 L 208.425781 266.953125 C 200.867188 296.21875 196.839844 325.960938 196.355469 356.179688 Z M 613.84375 356.179688 " fill-opacity="1" fill-rule="nonzero"/><path fill="#c38c1c" d="M 277.378906 266.953125 L 277.730469 267.613281 L 279.050781 266.953125 Z M 277.378906 266.953125 " fill-opacity="1" fill-rule="nonzero"/><path fill="#c38c1c" d="M 429.464844 240.136719 L 593.246094 240.136719 L 587.53125 225.984375 C 572.628906 190.578125 554.460938 156.9375 533.027344 125.0625 L 527.929688 117.574219 L 519.835938 121.699219 L 517.195312 123.039062 L 477.179688 143.320312 L 405.234375 62.078125 L 333.472656 143.277344 L 327.28125 140.246094 L 282.085938 117.550781 L 277.007812 124.957031 C 255.824219 156.910156 237.792969 190.550781 222.914062 225.878906 L 216.890625 240.136719 Z M 521.015625 144.164062 C 536.558594 168.277344 550.28125 193.382812 562.1875 219.484375 L 372.542969 219.484375 Z M 405.253906 93.167969 L 458.171875 152.992188 L 405.976562 179.402344 L 352.585938 152.851562 Z M 289.121094 144.226562 L 317.664062 158.441406 L 338.304688 168.859375 L 382.921875 191.078125 L 326.789062 219.566406 L 248.199219 219.566406 C 260.121094 193.519531 273.761719 168.40625 289.121094 144.226562 Z M 289.121094 144.226562 " fill-opacity="1" fill-rule="nonzero"/><path fill="#ffffff" d="M 232.511719 293.628906 L 240.996094 293.628906 L 240.996094 322.511719 L 252.65625 322.511719 L 252.65625 329.917969 L 232.511719 329.917969 Z M 232.511719 293.628906 " fill-opacity="1" fill-rule="nonzero"/><path fill="#ffffff" d="M 258.164062 293.628906 L 266.6875 293.628906 L 266.6875 329.894531 L 258.164062 329.894531 Z M 258.164062 293.628906 " fill-opacity="1" fill-rule="nonzero"/><path fill="#ffffff" d="M 275.378906 293.628906 L 296.015625 293.628906 L 296.015625 300.933594 L 283.839844 300.933594 L 283.839844 307.574219 L 295.3125 307.574219 L 295.3125 314.652344 L 283.839844 314.652344 L 283.839844 322.449219 L 296.058594 322.449219 L 296.058594 329.855469 L 275.417969 329.855469 Z M 275.378906 293.628906 " fill-opacity="1" fill-rule="nonzero"/><path fill="#ffffff" d="M 321.980469 328.988281 C 320.09375 329.917969 318.097656 330.40625 315.992188 330.453125 C 315.023438 330.46875 314.066406 330.359375 313.121094 330.128906 C 312.179688 329.894531 311.28125 329.542969 310.429688 329.078125 C 309.578125 328.609375 308.800781 328.042969 308.09375 327.375 C 307.390625 326.707031 306.78125 325.957031 306.273438 325.132812 C 305.011719 323.15625 304.070312 321.035156 303.453125 318.773438 C 302.839844 316.511719 302.574219 314.207031 302.660156 311.867188 C 302.644531 308.695312 303.160156 305.613281 304.210938 302.625 C 305.132812 299.828125 306.734375 297.503906 309.019531 295.652344 C 310.0625 294.789062 311.222656 294.132812 312.5 293.683594 C 313.777344 293.234375 315.09375 293.015625 316.449219 293.03125 C 318.386719 293.074219 320.230469 293.511719 321.980469 294.351562 L 321.980469 302.601562 C 321.414062 301.972656 320.75 301.476562 319.980469 301.117188 C 319.214844 300.761719 318.410156 300.566406 317.5625 300.539062 C 317.074219 300.542969 316.597656 300.617188 316.128906 300.753906 C 315.664062 300.894531 315.222656 301.09375 314.8125 301.355469 C 314.402344 301.621094 314.035156 301.933594 313.714844 302.300781 C 313.390625 302.667969 313.125 303.070312 312.917969 303.511719 C 311.617188 306.21875 311.050781 309.074219 311.226562 312.070312 C 311.097656 314.796875 311.660156 317.367188 312.917969 319.789062 C 313.125 320.214844 313.382812 320.605469 313.695312 320.960938 C 314.011719 321.316406 314.367188 321.621094 314.765625 321.878906 C 315.164062 322.132812 315.59375 322.328125 316.046875 322.464844 C 316.5 322.597656 316.964844 322.671875 317.4375 322.675781 C 319.171875 322.546875 320.6875 321.902344 321.980469 320.738281 Z M 321.980469 328.988281 " fill-opacity="1" fill-rule="nonzero"/><path fill="#ffffff" d="M 329.925781 293.628906 L 338.324219 293.628906 L 338.324219 307.574219 L 345.03125 307.574219 L 345.03125 293.566406 L 353.515625 293.566406 L 353.515625 329.835938 L 345.03125 329.835938 L 345.03125 314.652344 L 338.324219 314.652344 L 338.324219 329.835938 L 329.925781 329.835938 Z M 329.925781 293.628906 " fill-opacity="1" fill-rule="nonzero"/><path fill="#ffffff" d="M 360.839844 293.628906 L 383.75 293.628906 L 383.75 300.992188 L 376.402344 300.992188 L 376.402344 329.875 L 367.941406 329.875 L 367.941406 300.992188 L 360.839844 300.992188 Z M 360.839844 293.628906 " fill-opacity="1" fill-rule="nonzero"/><path fill="#ffffff" d="M 391.074219 293.628906 L 411.714844 293.628906 L 411.714844 300.933594 L 399.539062 300.933594 L 399.539062 307.574219 L 410.886719 307.574219 L 410.886719 314.652344 L 399.539062 314.652344 L 399.539062 322.449219 L 411.753906 322.449219 L 411.753906 329.855469 L 391.117188 329.855469 Z M 391.074219 293.628906 " fill-opacity="1" fill-rule="nonzero"/><path fill="#ffffff" d="M 419.289062 293.628906 L 427.894531 293.628906 L 432.023438 305.121094 C 433.261719 308.523438 434.085938 311.496094 434.847656 313.992188 L 435.304688 313.992188 L 435.097656 307.800781 L 435.097656 293.585938 L 443.207031 293.585938 L 443.207031 329.855469 L 434.621094 329.855469 L 430.496094 318.363281 C 429.257812 314.941406 428.308594 311.988281 427.648438 309.472656 L 427.191406 309.472656 L 427.398438 315.660156 L 427.398438 329.917969 L 419.289062 329.917969 Z M 419.289062 293.628906 " fill-opacity="1" fill-rule="nonzero"/><path fill="#ffffff" d="M 450.804688 319.046875 C 451.828125 320.171875 453.019531 321.070312 454.386719 321.742188 C 455.75 322.414062 457.191406 322.816406 458.707031 322.945312 C 459.953125 322.980469 461.03125 322.574219 461.949219 321.726562 C 462.386719 321.359375 462.722656 320.914062 462.960938 320.394531 C 463.203125 319.875 463.316406 319.328125 463.308594 318.757812 C 463.304688 317.800781 462.984375 316.96875 462.339844 316.261719 C 461.25 315.242188 460.027344 314.433594 458.664062 313.824219 C 456.445312 312.839844 454.5 311.460938 452.824219 309.699219 C 452.125 308.886719 451.597656 307.976562 451.242188 306.964844 C 450.886719 305.953125 450.726562 304.910156 450.761719 303.839844 C 450.734375 302.402344 451 301.019531 451.550781 299.691406 C 452.105469 298.363281 452.902344 297.203125 453.941406 296.207031 C 455.09375 295.132812 456.410156 294.324219 457.894531 293.792969 C 459.378906 293.257812 460.910156 293.039062 462.484375 293.132812 C 465.117188 293.1875 467.601562 293.828125 469.933594 295.050781 L 469.933594 303.71875 C 469.09375 302.761719 468.105469 301.996094 466.964844 301.425781 C 465.824219 300.855469 464.621094 300.519531 463.351562 300.417969 C 462.335938 300.394531 461.433594 300.703125 460.648438 301.34375 C 460.289062 301.613281 460.011719 301.945312 459.8125 302.34375 C 459.609375 302.742188 459.511719 303.167969 459.511719 303.613281 C 459.5 304.492188 459.808594 305.234375 460.441406 305.84375 C 461.449219 306.726562 462.578125 307.414062 463.824219 307.90625 C 466.179688 308.847656 468.242188 310.222656 470.015625 312.03125 C 470.746094 312.925781 471.292969 313.925781 471.648438 315.023438 C 472.003906 316.125 472.148438 317.25 472.082031 318.40625 C 472.101562 320.03125 471.796875 321.589844 471.164062 323.085938 C 470.535156 324.582031 469.628906 325.890625 468.449219 327.007812 C 467.277344 328.179688 465.921875 329.070312 464.386719 329.6875 C 462.847656 330.304688 461.25 330.59375 459.59375 330.554688 C 456.484375 330.460938 453.574219 329.648438 450.863281 328.121094 Z M 450.804688 319.046875 " fill-opacity="1" fill-rule="nonzero"/><path fill="#ffffff" d="M 478.210938 293.628906 L 501.117188 293.628906 L 501.117188 300.992188 L 493.773438 300.992188 L 493.773438 329.875 L 485.308594 329.875 L 485.308594 300.992188 L 478.210938 300.992188 Z M 478.210938 293.628906 " fill-opacity="1" fill-rule="nonzero"/><path fill="#ffffff" d="M 508.445312 293.628906 L 529.082031 293.628906 L 529.082031 300.933594 L 516.867188 300.933594 L 516.867188 307.574219 L 528.257812 307.574219 L 528.257812 314.652344 L 516.867188 314.652344 L 516.867188 322.449219 L 529.082031 322.449219 L 529.082031 329.855469 L 508.445312 329.855469 Z M 508.445312 293.628906 " fill-opacity="1" fill-rule="nonzero"/><path fill="#ffffff" d="M 536.886719 293.628906 L 545.410156 293.628906 L 545.410156 329.894531 L 536.886719 329.894531 Z M 536.886719 293.628906 " fill-opacity="1" fill-rule="nonzero"/><path fill="#ffffff" d="M 553.910156 293.628906 L 562.515625 293.628906 L 566.644531 305.121094 C 567.863281 308.523438 568.8125 311.496094 569.472656 313.992188 L 569.90625 313.992188 L 569.699219 307.800781 L 569.699219 293.585938 L 577.808594 293.585938 L 577.808594 329.855469 L 569.246094 329.855469 L 565.117188 318.363281 C 563.898438 314.941406 563.054688 311.988281 562.289062 309.472656 L 561.816406 309.472656 L 562.023438 315.660156 L 562.023438 329.917969 L 553.910156 329.917969 Z M 553.910156 293.628906 " fill-opacity="1" fill-rule="nonzero"/><path fill="#00478c" d="M 419.183594 588.289062 L 467.683594 573.332031 L 468.46875 522.601562 L 420.445312 506.199219 L 389.980469 546.78125 Z M 419.183594 588.289062 " fill-opacity="1" fill-rule="nonzero"/><path fill="#00478c" d="M 282.230469 581.519531 L 297.171875 586.71875 L 327.882812 546.347656 L 298.988281 504.652344 L 279.917969 510.386719 C 277.511719 522.171875 276.503906 534.070312 276.894531 546.089844 C 277.285156 558.109375 279.066406 569.917969 282.230469 581.519531 Z M 282.230469 581.519531 " fill-opacity="1" fill-rule="nonzero"/><path fill="#00478c" d="M 385.730469 393.664062 C 374.621094 397.089844 364.035156 401.710938 353.96875 407.527344 L 353.636719 430.097656 L 401.664062 446.601562 L 432.105469 406.019531 L 419.019531 387.453125 C 407.695312 388.304688 396.597656 390.375 385.730469 393.664062 Z M 385.730469 393.664062 " fill-opacity="1" fill-rule="nonzero"/><path fill="#00478c" d="M 425.335938 695.417969 L 429.464844 689.539062 L 399.125 648.855469 L 351.039062 665.03125 L 351.039062 673.035156 C 356.628906 676.4375 362.414062 679.472656 368.390625 682.136719 C 374.367188 684.804688 380.488281 687.082031 386.757812 688.96875 C 393.023438 690.855469 399.386719 692.339844 405.839844 693.417969 C 412.296875 694.5 418.792969 695.164062 425.335938 695.417969 Z M 425.335938 695.417969 " fill-opacity="1" fill-rule="nonzero"/><path fill="#00478c" d="M 520.148438 436.761719 L 519.609375 487.488281 L 567.738281 503.683594 L 577.171875 490.996094 C 573.285156 479.617188 568.136719 468.847656 561.71875 458.675781 C 555.304688 448.507812 547.796875 439.222656 539.195312 430.820312 Z M 520.148438 436.761719 " fill-opacity="1" fill-rule="nonzero"/><path fill="#00478c" d="M 517.15625 635.40625 C 522.542969 627.855469 527.929688 620.015625 533.230469 611.867188 C 534.222656 610.339844 535.191406 608.792969 536.164062 607.265625 L 518.207031 612.238281 Z M 517.15625 635.40625 " fill-opacity="1" fill-rule="nonzero"/><path fill="#ee2e24" d="M 498.496094 502.488281 L 499.363281 421.371094 L 520.003906 414.914062 C 514.453125 411.019531 508.675781 407.503906 502.667969 404.367188 C 496.65625 401.230469 490.46875 398.5 484.101562 396.175781 C 477.734375 393.851562 471.242188 391.949219 464.625 390.476562 C 458.007812 389.003906 451.324219 387.96875 444.570312 387.371094 L 444.671875 387.371094 L 449.214844 393.808594 L 458.003906 406.308594 L 409.320312 471.210938 L 332.464844 445.011719 L 332.8125 422.175781 C 327.679688 426.429688 322.839844 430.996094 318.292969 435.875 C 313.75 440.757812 309.539062 445.910156 305.660156 451.332031 C 301.78125 456.757812 298.269531 462.410156 295.121094 468.289062 C 291.972656 474.167969 289.21875 480.222656 286.851562 486.457031 L 307.492188 480.269531 L 353.78125 546.882812 L 304.664062 611.476562 L 291.578125 606.917969 C 296.140625 616.625 301.660156 625.753906 308.140625 634.308594 C 314.617188 642.859375 321.914062 650.644531 330.027344 657.664062 L 330.027344 650.117188 L 406.761719 624.121094 L 455.300781 689.230469 L 451.855469 694.097656 L 474.558594 689.105469 C 481.160156 681.554688 487.992188 673.46875 494.90625 664.824219 L 497.960938 596.1875 L 551.890625 581.292969 C 563.226562 561.40625 573.234375 540.871094 581.917969 519.691406 L 575.417969 528.316406 Z M 488.386719 588.824219 L 410.886719 612.714844 L 364.183594 546.367188 L 412.890625 481.464844 L 489.601562 507.6875 Z M 488.386719 588.824219 " fill-opacity="1" fill-rule="nonzero"/><path fill="#ee2e24" d="M 413.179688 709.136719 C 400.953125 709.167969 388.839844 708.027344 376.832031 705.71875 C 364.828125 703.410156 353.15625 699.976562 341.8125 695.417969 C 361.507812 717.582031 382.695312 738.210938 405.378906 757.308594 C 425.496094 740.40625 444.429688 722.265625 462.175781 702.886719 C 446.113281 707.085938 429.78125 709.171875 413.179688 709.136719 Z M 413.179688 709.136719 " fill-opacity="1" fill-rule="nonzero"/><path fill="#ee2e24" d="M 335.578125 383 L 197.160156 383 C 198.394531 405.574219 201.53125 427.882812 206.570312 449.921875 C 212.71875 476.457031 221.1875 502.230469 231.976562 527.242188 C 236.164062 463.371094 277.359375 409.011719 335.578125 383 Z M 335.578125 383 " fill-opacity="1" fill-rule="nonzero"/><path fill="#ee2e24" d="M 490.777344 383 C 540.082031 405.03125 577.191406 447.382812 589.84375 498.527344 C 595.539062 482.597656 600.308594 466.398438 604.144531 449.921875 C 609.195312 427.902344 612.34375 405.617188 613.597656 383.058594 Z M 490.777344 383 " fill-opacity="1" fill-rule="nonzero"/></svg>