<svg xmlns="http://www.w3.org/2000/svg" viewBox="0 0 242.39 392.45"><defs><style>.cls-1{fill:#c38c1c;}.cls-2{fill:#fff;}.cls-3{fill:#00478c;}.cls-4{fill:#ed1c24;}.cls-5{fill:none;}.cls-6{fill:#ee2e24;}</style></defs><title>Eszköz 1</title><g id="Réteg_2" data-name="Réteg 2"><g id="Layer_5" data-name="Layer 5"><g id="_Csoport_" data-name="&lt;Csoport&gt;"><path id="_Görbe_" data-name="&lt;Görbe&gt;" class="cls-1" d="M233.17,114.7l-.11-.34s-.18-.54-.53-1.52A310.53,310.53,0,0,0,196.19,44l-8.74-12.47L161,44.12,121.2,0,81.44,44.12,54.94,31.49,46.2,44A310.57,310.57,0,0,0,9.87,112.83c-.32.89-.49,1.42-.54,1.55l-.12.38A205.55,205.55,0,0,0,5.39,222.43c6.55,28.61,19,57.2,37.09,85,30.38,46.7,66.13,75.13,67.63,76.31l11.09,8.73,11.08-8.73c1.51-1.18,37.25-29.6,67.63-76.31C218,279.63,230.46,251,237,222.43A205.59,205.59,0,0,0,233.17,114.7Z"/><path id="_Görbe_2" data-name="&lt;Görbe&gt;" class="cls-2" d="M223.63,117.57l-.06-.18-.46-1.33A300.11,300.11,0,0,0,188,49.56L184.12,44l-25.6,12.2L121.2,14.8,83.87,56.22,58.27,44l-3.88,5.54a299.64,299.64,0,0,0-35.1,66.5c-.31.86-.46,1.33-.46,1.33l-.06.18a195.69,195.69,0,0,0-3.63,102.5c6.28,27.45,18.3,55,35.73,81.75,29.5,45.38,64,72.77,65.43,73.91l4.9,3.86,4.9-3.86c1.45-1.14,35.92-28.53,65.43-73.91C209,275,221,247.52,227.25,220.07A195.58,195.58,0,0,0,223.63,117.57Z"/><path id="_Görbe_3" data-name="&lt;Görbe&gt;" class="cls-3" d="M222.34,172.56a184.34,184.34,0,0,0-5.85-43.25H25.9a184.87,184.87,0,0,0-5.85,43.25Z"/><g id="_Csoport_2" data-name="&lt;Csoport&gt;"><polygon id="_Görbe_4" data-name="&lt;Görbe&gt;" class="cls-1" points="59.31 129.31 59.48 129.63 60.12 129.31 59.31 129.31"/><path id="_Összetett_görbe_" data-name="&lt;Összetett görbe&gt;" class="cls-1" d="M133,116.31l79.36,0-2.77-6.86a287.74,287.74,0,0,0-26.41-48.92l-2.47-3.63-3.92,2h0l-1.28.65-19.39,9.83L121.26,30,86.49,69.36l-3-1.47-21.9-11-2.46,3.59A297.58,297.58,0,0,0,32.92,109.4L30,116.31Zm44.36-46.52a288,288,0,0,1,19.95,36.51H105.42ZM121.27,45.07l25.64,29L121.62,86.87,95.75,74ZM65,69.82l13.83,6.89,10,5.05,0,0,21.62,10.77-27.2,13.81H45.17A304.48,304.48,0,0,1,65,69.82Z"/></g><g id="_Csoport_3" data-name="&lt;Csoport&gt;"><path id="_Összetett_görbe_2" data-name="&lt;Összetett görbe&gt;" class="cls-2" d="M37.57,142.24h4.11v14h5.65v3.59H37.57Z"/><path id="_Összetett_görbe_3" data-name="&lt;Összetett görbe&gt;" class="cls-2" d="M50,142.24h4.13v17.58H50Z"/><path id="_Összetett_görbe_4" data-name="&lt;Összetett görbe&gt;" class="cls-2" d="M58.34,142.24h10v3.54H62.44V149H68v3.43H62.44v3.78h5.92v3.59h-10Z"/><path id="_Összetett_görbe_5" data-name="&lt;Összetett görbe&gt;" class="cls-2" d="M80.92,159.38a6.89,6.89,0,0,1-2.9.71,5.43,5.43,0,0,1-4.71-2.58,11.17,11.17,0,0,1-1.75-6.43,13.33,13.33,0,0,1,.75-4.48,7.3,7.3,0,0,1,2.33-3.38,5.56,5.56,0,0,1,3.6-1.27,6.53,6.53,0,0,1,2.68.64v4a3,3,0,0,0-2.14-1,2.51,2.51,0,0,0-2.25,1.44,8.44,8.44,0,0,0-.82,4.15,7.35,7.35,0,0,0,.82,3.74,2.46,2.46,0,0,0,2.19,1.4,3.69,3.69,0,0,0,2.2-.94Z"/><path id="_Összetett_görbe_6" data-name="&lt;Összetett görbe&gt;" class="cls-2" d="M84.77,142.24h4.07V149h3.25v-6.79H96.2v17.58H92.09v-7.36H88.84v7.36H84.77Z"/><path id="_Összetett_görbe_7" data-name="&lt;Összetett görbe&gt;" class="cls-2" d="M99.75,142.24h11.1v3.57h-3.56v14h-4.1v-14H99.75Z"/><path id="_Összetett_görbe_8" data-name="&lt;Összetett görbe&gt;" class="cls-2" d="M114.4,142.24h10v3.54H118.5V149H124v3.43H118.5v3.78h5.92v3.59h-10Z"/><path id="_Összetett_görbe_9" data-name="&lt;Összetett görbe&gt;" class="cls-2" d="M128.07,142.24h4.17l2,5.57c.6,1.65,1,3.09,1.37,4.3h.22l-.1-3v-6.89h3.93v17.58H135.5l-2-5.57c-.6-1.66-1.06-3.09-1.38-4.31h-.22l.1,3v6.91h-3.93Z"/><path id="_Összetett_görbe_10" data-name="&lt;Összetett görbe&gt;" class="cls-2" d="M143.34,154.56a5.84,5.84,0,0,0,3.83,1.89,2.22,2.22,0,0,0,1.57-.59,1.85,1.85,0,0,0,.66-1.44,1.81,1.81,0,0,0-.47-1.21,6.48,6.48,0,0,0-1.78-1.18,8.87,8.87,0,0,1-2.83-2,4.15,4.15,0,0,1-1-2.84,5,5,0,0,1,1.54-3.7A5.57,5.57,0,0,1,149,142a8.14,8.14,0,0,1,3.61.93v4.2a4.75,4.75,0,0,0-3.19-1.6,2,2,0,0,0-1.31.45,1.37,1.37,0,0,0-.55,1.1,1.47,1.47,0,0,0,.45,1.08,5.56,5.56,0,0,0,1.64,1,8.77,8.77,0,0,1,3,2,4.48,4.48,0,0,1,1,3.09,5.64,5.64,0,0,1-1.76,4.17,5.88,5.88,0,0,1-4.29,1.72,9.18,9.18,0,0,1-4.23-1.18Z"/><path id="_Összetett_görbe_11" data-name="&lt;Összetett görbe&gt;" class="cls-2" d="M156.62,142.24h11.1v3.57h-3.56v14h-4.1v-14h-3.44Z"/><path id="_Összetett_görbe_12" data-name="&lt;Összetett görbe&gt;" class="cls-2" d="M171.27,142.24h10v3.54h-5.92V149h5.52v3.43h-5.52v3.78h5.92v3.59h-10Z"/><path id="_Összetett_görbe_13" data-name="&lt;Összetett görbe&gt;" class="cls-2" d="M185.05,142.24h4.13v17.58h-4.13Z"/><path id="_Összetett_görbe_14" data-name="&lt;Összetett görbe&gt;" class="cls-2" d="M193.3,142.24h4.17l2,5.57c.59,1.65,1.05,3.09,1.37,4.3h.21l-.1-3v-6.89h3.93v17.58h-4.15l-2-5.57c-.59-1.66-1-3.09-1.37-4.31h-.23l.1,3v6.91H193.3Z"/></g><g id="_Csoport_4" data-name="&lt;Csoport&gt;"><path id="_Görbe_5" data-name="&lt;Görbe&gt;" class="cls-4" d="M167.25,329.14l-.1,0h0Z"/><path id="_Összetett_görbe_15" data-name="&lt;Összetett görbe&gt;" class="cls-5" d="M101.33,264.75,124,296.91l37.59-11.58.59-39.33-37.21-12.71Zm50.57-11.52-.38,24.59L128,285.07,113.87,265l14.76-19.67Z"/><path id="_Összetett_görbe_16" data-name="&lt;Összetett görbe&gt;" class="cls-5" d="M118.29,314.39,133,334.11,131,337A74.82,74.82,0,0,1,95,326.15l0-3.88ZM69.77,244.53l14,20.21L68.9,284.31l-7.24-2.52a74.46,74.46,0,0,1-1.13-34.48Zm49.76-28.19-23.27-8,.16-10.94a74.62,74.62,0,0,1,31.52-9.8l6.34,9ZM200,244.06l-23.31-7.85.26-24.59,9.22-2.88a74.41,74.41,0,0,1,18.4,29.17Z"/><path id="_Görbe_6" data-name="&lt;Görbe&gt;" class="cls-5" d="M164.71,322.15c3.57-4.46,7.18-9.21,10.78-14.24l.5-11.23,8.71-2.41q4-6.28,7.62-12.61l-26.13,7.22Z"/><polygon id="_Görbe_7" data-name="&lt;Görbe&gt;" class="cls-3" points="128.02 285.07 151.52 277.82 151.9 253.23 128.63 245.28 113.87 264.95 128.02 285.07"/><path id="_Görbe_8" data-name="&lt;Görbe&gt;" class="cls-3" d="M61.66,281.79l7.24,2.52,14.88-19.57-14-20.21-9.24,2.78A74.46,74.46,0,0,0,61.66,281.79Z"/><path id="_Görbe_9" data-name="&lt;Görbe&gt;" class="cls-3" d="M111.81,190.73a74.86,74.86,0,0,0-15.39,6.72l-.16,10.94,23.27,8,14.75-19.67-6.34-9A75.11,75.11,0,0,0,111.81,190.73Z"/><path id="_Görbe_10" data-name="&lt;Görbe&gt;" class="cls-3" d="M131,337l2-2.85-14.7-19.72L95,322.27l0,3.88A74.82,74.82,0,0,0,131,337Z"/><path id="_Görbe_11" data-name="&lt;Görbe&gt;" class="cls-3" d="M176.94,211.62l-.26,24.59L200,244.06l4.57-6.15a74.41,74.41,0,0,0-18.4-29.17Z"/><path id="_Görbe_12" data-name="&lt;Görbe&gt;" class="cls-3" d="M175.49,307.91c2.61-3.66,5.22-7.46,7.79-11.41.48-.74.95-1.49,1.42-2.23L176,296.68Z"/><path id="_Összetett_görbe_17" data-name="&lt;Összetett görbe&gt;" class="cls-6" d="M166.45,243.48l.42-39.32,10-3.13a75.12,75.12,0,0,0-36.55-13.35v0h.05l2.2,3.12h0l4.26,6.06-23.59,31.46L86,215.62l.17-11.07a75,75,0,0,0-22.27,31.16l10-3L96.33,265l-23.8,31.31-6.34-2.21a74.34,74.34,0,0,0,18.63,24.6l0-3.66L122,302.44,145.52,334l-1.67,2.36,11-2.42c3.2-3.66,6.51-7.58,9.86-11.77l1.48-33.27,26.13-7.22a257.73,257.73,0,0,0,14.55-29.86L203.72,256Zm-4.9,41.85L124,296.91l-22.63-32.16,23.6-31.46L162.14,246Z"/></g><g id="_Csoport_5" data-name="&lt;Csoport&gt;"><path id="_Görbe_13" data-name="&lt;Görbe&gt;" class="cls-6" d="M125.11,343.65A92.11,92.11,0,0,1,90.53,337a297.66,297.66,0,0,0,30.8,30,292.2,292.2,0,0,0,27.52-26.38A93.05,93.05,0,0,1,125.11,343.65Z"/><path id="_Görbe_14" data-name="&lt;Görbe&gt;" class="cls-6" d="M87.51,185.56H20.44A192.91,192.91,0,0,0,25,218a220.29,220.29,0,0,0,12.31,37.48C39.34,224.52,59.3,198.17,87.51,185.56Z"/><path id="_Görbe_15" data-name="&lt;Görbe&gt;" class="cls-6" d="M162.71,185.56c23.89,10.68,41.87,31.21,48,56A214.18,214.18,0,0,0,217.64,218a192.91,192.91,0,0,0,4.58-32.41Z"/></g></g></g></g></svg>