<svg xmlns="http://www.w3.org/2000/svg" xmlns:xlink="http://www.w3.org/1999/xlink" width="1080" zoomAndPan="magnify" viewBox="0 0 810 809.999993" height="1080" preserveAspectRatio="xMidYMid meet" version="1.0"><defs><clipPath id="a390a24f7a"><path d="M 168.265625 0 L 636 0 L 636 810 L 168.265625 810 Z M 168.265625 0 " clip-rule="nonzero"/></clipPath></defs><g clip-path="url(#a390a24f7a)"><path fill="#322e2b" d="M 401.707031 810.027344 L 401.910156 810.027344 C 530.570312 809.914062 635.199219 705.132812 635.199219 576.417969 L 635.199219 40.691406 L 472.480469 40.691406 L 472.058594 40.050781 C 467.53125 32.308594 461.871094 25.507812 455.078125 19.652344 C 453.953125 18.683594 452.800781 17.742188 451.621094 16.832031 C 450.445312 15.925781 449.242188 15.050781 448.019531 14.207031 C 446.792969 13.363281 445.542969 12.554688 444.273438 11.78125 C 443.003906 11.007812 441.714844 10.269531 440.40625 9.566406 C 439.09375 8.863281 437.765625 8.195312 436.421875 7.5625 C 435.074219 6.933594 433.710938 6.339844 432.332031 5.78125 C 430.953125 5.226562 429.558594 4.707031 428.152344 4.226562 C 426.746094 3.746094 425.324219 3.304688 423.894531 2.902344 C 422.460938 2.5 421.019531 2.136719 419.570312 1.816406 C 418.117188 1.492188 416.65625 1.207031 415.191406 0.964844 C 413.722656 0.71875 412.25 0.515625 410.773438 0.355469 C 409.296875 0.191406 407.8125 0.0664062 406.328125 -0.015625 C 404.84375 -0.0976562 403.359375 -0.136719 401.871094 -0.136719 C 400.386719 -0.140625 398.898438 -0.0976562 397.414062 -0.0195312 C 395.929688 0.0625 394.449219 0.183594 392.96875 0.34375 C 391.492188 0.507812 390.019531 0.707031 388.550781 0.949219 C 387.085938 1.191406 385.625 1.476562 384.171875 1.796875 C 382.722656 2.121094 381.28125 2.480469 379.847656 2.882812 C 378.414062 3.285156 376.996094 3.722656 375.585938 4.203125 C 374.179688 4.679688 372.785156 5.199219 371.40625 5.753906 C 370.027344 6.308594 368.664062 6.898438 367.316406 7.53125 C 365.96875 8.160156 364.640625 8.824219 363.328125 9.527344 C 362.019531 10.230469 360.726562 10.96875 359.457031 11.742188 C 358.1875 12.515625 356.9375 13.320312 355.710938 14.164062 C 354.484375 15.003906 353.28125 15.878906 352.105469 16.785156 C 350.925781 17.691406 349.773438 18.632812 348.644531 19.601562 C 347.519531 20.570312 346.417969 21.570312 345.347656 22.601562 C 344.273438 23.632812 343.230469 24.691406 342.214844 25.78125 C 341.199219 26.867188 340.214844 27.980469 339.261719 29.121094 C 338.308594 30.265625 337.386719 31.429688 336.496094 32.621094 C 335.609375 33.816406 334.75 35.03125 333.925781 36.269531 C 333.105469 37.507812 332.316406 38.769531 331.558594 40.050781 L 331.136719 40.691406 L 168.417969 40.691406 L 168.417969 576.386719 C 168.417969 705.132812 273.0625 809.882812 401.707031 810.027344 Z M 401.707031 810.027344 " fill-opacity="1" fill-rule="nonzero"/></g><path fill="#ffffff" d="M 325.167969 110.023438 L 325.894531 112.019531 C 328.289062 118.019531 331.355469 123.65625 335.097656 128.921875 C 338.839844 134.1875 343.152344 138.9375 348.03125 143.167969 L 350.855469 145.789062 L 262.460938 145.789062 L 269.742188 142.964844 C 271.199219 142.441406 272.65625 141.8125 273.9375 141.289062 C 295.78125 132.371094 312.425781 122.347656 323.636719 111.496094 Z M 325.167969 110.023438 " fill-opacity="1" fill-rule="nonzero"/><path fill="#302c2a" d="M 186.140625 58.523438 L 323.492188 58.523438 L 322.96875 60.300781 C 321.871094 64.546875 321.0625 68.851562 320.550781 73.207031 C 320.207031 76.652344 319.496094 80.019531 318.417969 83.308594 C 317.339844 86.597656 315.917969 89.734375 314.160156 92.714844 C 312.398438 95.691406 310.339844 98.449219 307.976562 100.980469 C 305.617188 103.511719 303.011719 105.757812 300.164062 107.722656 C 289.746094 114.535156 278.753906 120.230469 267.179688 124.8125 C 236.992188 137.296875 206.367188 143.488281 187.714844 145.207031 L 186.140625 145.308594 Z M 186.140625 58.523438 " fill-opacity="1" fill-rule="nonzero"/><path fill="#ffffff" d="M 617.492188 576.386719 C 617.492188 695.445312 520.710938 792.269531 401.808594 792.269531 C 282.90625 792.269531 186.140625 695.445312 186.140625 576.386719 L 186.140625 163.519531 L 617.492188 163.519531 Z M 617.492188 576.386719 " fill-opacity="1" fill-rule="nonzero"/><path fill="#ffffff" d="M 477.722656 112.019531 L 478.453125 110.023438 L 480.023438 111.480469 C 491.25 122.277344 507.925781 132.359375 529.726562 141.273438 C 531.09375 141.800781 532.449219 142.425781 533.917969 142.949219 L 541.199219 145.777344 L 452.808594 145.777344 L 455.71875 143.152344 C 460.578125 138.917969 464.867188 134.167969 468.585938 128.90625 C 472.304688 123.640625 475.351562 118.015625 477.722656 112.019531 Z M 477.722656 112.019531 " fill-opacity="1" fill-rule="nonzero"/><path fill="#ffffff" d="M 355.472656 35.328125 C 360.636719 30.148438 366.503906 25.960938 373.078125 22.757812 L 373.601562 22.4375 C 374.242188 22.117188 374.867188 21.910156 375.496094 21.589844 L 375.699219 21.488281 C 376.058594 21.367188 376.40625 21.226562 376.746094 21.066406 C 377.066406 20.964844 377.386719 20.761719 377.796875 20.644531 L 378.015625 20.542969 C 378.640625 20.339844 379.265625 20.019531 380.007812 19.8125 L 380.535156 19.609375 C 383.957031 18.433594 387.457031 17.546875 391.027344 16.949219 C 394.597656 16.355469 398.195312 16.054688 401.816406 16.054688 C 405.4375 16.054688 409.035156 16.355469 412.605469 16.949219 C 416.175781 17.546875 419.675781 18.433594 423.097656 19.609375 L 423.625 19.8125 C 424.351562 20.019531 424.976562 20.339844 425.617188 20.542969 L 425.925781 20.644531 C 426.246094 20.761719 426.550781 20.964844 426.871094 21.066406 C 427.191406 21.167969 427.597656 21.386719 427.917969 21.488281 L 428.125 21.589844 C 428.765625 21.910156 429.390625 22.117188 430.015625 22.4375 L 430.539062 22.757812 C 437.140625 25.929688 443.011719 30.121094 448.160156 35.328125 C 453.4375 40.589844 457.699219 46.574219 460.945312 53.277344 L 460.945312 53.480469 C 461.402344 54.253906 461.785156 55.0625 462.097656 55.902344 C 462.316406 56.308594 462.417969 56.730469 462.621094 57.050781 L 462.941406 57.882812 C 462.976562 58.140625 463.042969 58.386719 463.144531 58.625 C 463.507812 59.40625 463.800781 60.214844 464.035156 61.042969 L 464.035156 61.1875 C 466.214844 67.8125 467.296875 74.613281 467.28125 81.585938 C 467.296875 86.210938 466.828125 90.785156 465.871094 95.3125 C 464.917969 99.835938 463.5 104.210938 461.617188 108.4375 L 461.515625 108.640625 L 460.890625 109.90625 L 460.683594 110.433594 C 460.261719 111.160156 459.839844 112.003906 459.417969 112.835938 C 456.425781 118.515625 452.671875 123.640625 448.160156 128.207031 C 443.003906 133.367188 437.128906 137.515625 430.539062 140.648438 L 430.015625 140.96875 C 429.40625 141.296875 428.773438 141.578125 428.125 141.8125 L 427.816406 141.914062 C 427.519531 142.09375 427.207031 142.230469 426.871094 142.324219 C 426.542969 142.515625 426.191406 142.65625 425.824219 142.746094 L 425.617188 142.863281 C 424.976562 143.164062 424.308594 143.40625 423.625 143.589844 L 423.101562 143.792969 C 419.675781 144.976562 416.179688 145.867188 412.605469 146.464844 C 409.035156 147.0625 405.4375 147.363281 401.816406 147.363281 C 398.195312 147.363281 394.597656 147.0625 391.027344 146.464844 C 387.457031 145.867188 383.957031 144.976562 380.535156 143.792969 L 380.007812 143.589844 C 379.320312 143.410156 378.65625 143.167969 378.015625 142.863281 C 377.492188 142.644531 377.167969 142.542969 376.746094 142.324219 L 375.816406 142.015625 L 375.496094 141.8125 C 374.847656 141.570312 374.214844 141.289062 373.601562 140.96875 L 373.195312 140.75 C 370.125 139.269531 367.183594 137.558594 364.378906 135.621094 C 361.574219 133.683594 358.9375 131.539062 356.464844 129.191406 C 353.992188 126.84375 351.71875 124.316406 349.640625 121.613281 C 347.5625 118.910156 345.703125 116.0625 344.070312 113.070312 C 343.648438 112.121094 343.238281 111.277344 342.816406 110.445312 L 342.597656 110.023438 C 342.394531 109.601562 342.191406 109.179688 341.972656 108.757812 L 341.871094 108.449219 C 340.234375 104.75 338.953125 100.933594 338.019531 97 C 337.085938 93.0625 336.519531 89.078125 336.316406 85.039062 C 336.117188 80.996094 336.285156 76.972656 336.828125 72.964844 C 337.367188 68.957031 338.265625 65.03125 339.527344 61.1875 C 339.847656 60.242188 340.167969 59.398438 340.472656 58.667969 C 340.5625 58.414062 340.667969 58.164062 340.792969 57.925781 L 340.996094 57.199219 C 341.214844 56.773438 341.316406 56.351562 341.519531 55.945312 C 341.839844 55.097656 342.265625 54.253906 342.671875 53.425781 L 342.789062 53.320312 C 345.960938 46.582031 350.1875 40.582031 355.472656 35.328125 Z M 355.472656 35.328125 " fill-opacity="1" fill-rule="nonzero"/><path fill="#322e2b" d="M 455.703125 64.101562 L 455.601562 63.796875 C 455.398438 63.113281 455.152344 62.449219 454.859375 61.800781 C 454.757812 61.582031 454.757812 61.277344 454.65625 61.074219 L 454.335938 60.433594 C 454.226562 60.074219 454.089844 59.722656 453.929688 59.382812 C 453.609375 58.757812 453.289062 58.027344 452.980469 57.285156 L 452.878906 57.183594 C 451.523438 54.316406 449.9375 51.585938 448.117188 48.988281 C 446.296875 46.394531 444.273438 43.96875 442.039062 41.71875 C 439.808594 39.46875 437.402344 37.421875 434.820312 35.582031 C 432.238281 33.742188 429.523438 32.132812 426.667969 30.753906 L 426.246094 30.535156 C 425.617188 30.230469 425.09375 30.011719 424.570312 29.808594 L 424.351562 29.707031 C 424.046875 29.589844 423.828125 29.386719 423.523438 29.285156 C 423.230469 29.203125 422.949219 29.097656 422.675781 28.964844 L 422.472656 28.859375 C 421.832031 28.65625 421.308594 28.4375 420.683594 28.234375 L 420.261719 28.015625 C 417.296875 27.003906 414.273438 26.238281 411.1875 25.726562 C 408.097656 25.214844 404.992188 24.957031 401.859375 24.957031 C 398.730469 24.957031 395.621094 25.214844 392.535156 25.726562 C 389.445312 26.238281 386.421875 27.003906 383.460938 28.015625 L 382.9375 28.234375 C 382.308594 28.4375 381.785156 28.65625 381.261719 28.859375 L 381.058594 28.964844 L 380.113281 29.285156 C 379.816406 29.398438 379.535156 29.539062 379.265625 29.707031 L 379.0625 29.808594 C 378.539062 30.011719 378.015625 30.230469 377.386719 30.535156 L 376.964844 30.753906 C 374.113281 32.132812 371.394531 33.742188 368.8125 35.582031 C 366.234375 37.421875 363.828125 39.46875 361.59375 41.71875 C 359.363281 43.96875 357.335938 46.394531 355.515625 48.988281 C 353.695312 51.585938 352.109375 54.316406 350.753906 57.183594 L 350.652344 57.285156 C 350.332031 58.027344 350.011719 58.742188 349.707031 59.382812 C 349.515625 59.75 349.375 60.132812 349.28125 60.535156 L 348.960938 61.074219 C 348.925781 61.324219 348.859375 61.566406 348.757812 61.800781 C 348.449219 62.476562 348.207031 63.175781 348.03125 63.898438 L 347.914062 64.101562 C 346.824219 67.414062 346.050781 70.796875 345.589844 74.25 C 345.125 77.703125 344.984375 81.171875 345.164062 84.652344 C 345.34375 88.132812 345.839844 91.566406 346.65625 94.953125 C 347.46875 98.34375 348.589844 101.628906 350.011719 104.808594 L 350.128906 105.113281 C 350.339844 105.488281 350.511719 105.875 350.652344 106.28125 L 350.855469 106.585938 C 351.195312 107.339844 351.578125 108.074219 352.007812 108.785156 C 353.40625 111.378906 354.996094 113.847656 356.78125 116.191406 C 358.566406 118.535156 360.523438 120.730469 362.652344 122.769531 C 364.777344 124.804688 367.050781 126.667969 369.46875 128.351562 C 371.886719 130.035156 374.417969 131.523438 377.066406 132.808594 L 377.386719 133.027344 C 378.015625 133.230469 378.539062 133.554688 379.0625 133.757812 L 379.367188 133.859375 C 379.585938 133.976562 379.894531 134.078125 380.113281 134.179688 C 380.480469 134.359375 380.863281 134.5 381.261719 134.601562 C 381.785156 134.804688 382.308594 135.007812 382.9375 135.226562 L 383.460938 135.433594 C 386.40625 136.472656 389.421875 137.257812 392.5 137.785156 C 395.582031 138.316406 398.683594 138.578125 401.808594 138.578125 C 404.933594 138.578125 408.039062 138.316406 411.117188 137.785156 C 414.199219 137.257812 417.210938 136.472656 420.15625 135.433594 L 420.683594 135.226562 C 421.308594 135.007812 421.832031 134.804688 422.355469 134.601562 L 422.574219 134.601562 C 422.882812 134.484375 423.203125 134.28125 423.523438 134.179688 C 423.84375 134.078125 424.046875 133.976562 424.351562 133.859375 L 424.570312 133.757812 C 425.09375 133.554688 425.617188 133.230469 426.246094 133.027344 L 426.667969 132.707031 C 432.347656 129.964844 437.414062 126.359375 441.871094 121.898438 C 445.753906 117.980469 449.035156 113.609375 451.714844 108.785156 C 452.035156 108.058594 452.457031 107.328125 452.761719 106.6875 L 452.980469 106.28125 C 453.109375 105.871094 453.28125 105.480469 453.503906 105.113281 L 453.609375 104.910156 C 456.894531 97.535156 458.535156 89.808594 458.53125 81.730469 C 458.542969 75.703125 457.601562 69.824219 455.703125 64.101562 Z M 455.703125 64.101562 " fill-opacity="1" fill-rule="nonzero"/><path fill="#322e2b" d="M 401.808594 132.371094 C 400.152344 132.375 398.5 132.292969 396.851562 132.128906 C 395.203125 131.96875 393.566406 131.726562 391.941406 131.402344 C 390.316406 131.082031 388.710938 130.679688 387.125 130.199219 C 385.539062 129.71875 383.984375 129.160156 382.453125 128.527344 C 380.921875 127.894531 379.425781 127.1875 377.964844 126.40625 C 376.503906 125.625 375.082031 124.773438 373.707031 123.855469 C 372.328125 122.933594 371 121.949219 369.71875 120.898438 C 368.4375 119.847656 367.210938 118.734375 366.039062 117.5625 C 364.867188 116.394531 363.753906 115.167969 362.703125 113.886719 C 361.652344 112.605469 360.664062 111.277344 359.746094 109.898438 C 358.824219 108.519531 357.972656 107.101562 357.191406 105.640625 C 356.410156 104.179688 355.699219 102.683594 355.066406 101.152344 C 354.429688 99.621094 353.871094 98.0625 353.390625 96.476562 C 352.910156 94.890625 352.507812 93.285156 352.183594 91.660156 C 351.859375 90.035156 351.613281 88.398438 351.453125 86.75 C 351.289062 85.101562 351.207031 83.445312 351.207031 81.789062 C 351.203125 80.132812 351.285156 78.480469 351.445312 76.828125 C 351.605469 75.179688 351.847656 73.542969 352.171875 71.917969 C 352.492188 70.292969 352.894531 68.683594 353.375 67.097656 C 353.855469 65.511719 354.410156 63.953125 355.042969 62.421875 C 355.675781 60.890625 356.382812 59.394531 357.164062 57.933594 C 357.941406 56.46875 358.792969 55.050781 359.710938 53.671875 C 360.632812 52.292969 361.617188 50.960938 362.667969 49.679688 C 363.714844 48.398438 364.828125 47.171875 365.996094 45.996094 C 367.167969 44.824219 368.390625 43.710938 369.671875 42.660156 C 370.953125 41.609375 372.28125 40.621094 373.65625 39.699219 C 375.035156 38.777344 376.453125 37.925781 377.914062 37.144531 C 379.371094 36.359375 380.867188 35.652344 382.398438 35.015625 C 383.929688 34.378906 385.484375 33.820312 387.070312 33.339844 C 388.65625 32.855469 390.261719 32.453125 391.882812 32.128906 C 393.507812 31.804688 395.144531 31.558594 396.792969 31.394531 C 398.441406 31.230469 400.09375 31.148438 401.75 31.148438 C 403.40625 31.148438 405.058594 31.226562 406.710938 31.386719 C 408.359375 31.546875 409.996094 31.789062 411.621094 32.113281 C 413.246094 32.433594 414.851562 32.835938 416.4375 33.3125 C 418.023438 33.792969 419.578125 34.351562 421.109375 34.984375 C 422.640625 35.617188 424.136719 36.320312 425.601562 37.101562 C 427.0625 37.882812 428.480469 38.730469 429.859375 39.652344 C 431.238281 40.570312 432.566406 41.554688 433.851562 42.605469 C 435.132812 43.65625 436.359375 44.765625 437.53125 45.9375 C 438.703125 47.105469 439.816406 48.332031 440.867188 49.613281 C 441.921875 50.890625 442.90625 52.222656 443.828125 53.597656 C 444.75 54.976562 445.601562 56.394531 446.386719 57.855469 C 447.167969 59.316406 447.878906 60.8125 448.511719 62.339844 C 449.148438 63.871094 449.707031 65.429688 450.191406 67.015625 C 450.671875 68.601562 451.078125 70.207031 451.402344 71.832031 C 451.726562 73.457031 451.972656 75.09375 452.136719 76.742188 C 452.300781 78.390625 452.382812 80.046875 452.382812 81.703125 C 452.382812 83.359375 452.300781 85.015625 452.140625 86.664062 C 451.976562 88.3125 451.734375 89.953125 451.410156 91.578125 C 451.085938 93.203125 450.683594 94.808594 450.203125 96.394531 C 449.722656 97.984375 449.167969 99.542969 448.53125 101.074219 C 447.898438 102.605469 447.191406 104.101562 446.410156 105.566406 C 445.628906 107.027344 444.78125 108.449219 443.859375 109.828125 C 442.941406 111.207031 441.953125 112.535156 440.902344 113.820312 C 439.851562 115.101562 438.742188 116.328125 437.570312 117.5 C 436.402344 118.675781 435.175781 119.789062 433.894531 120.839844 C 432.613281 121.894531 431.285156 122.882812 429.910156 123.804688 C 428.53125 124.726562 427.113281 125.578125 425.652344 126.363281 C 424.191406 127.144531 422.695312 127.855469 421.167969 128.492188 C 419.636719 129.128906 418.078125 129.6875 416.492188 130.171875 C 414.910156 130.652344 413.304688 131.058594 411.679688 131.382812 C 410.054688 131.710938 408.417969 131.957031 406.769531 132.121094 C 405.121094 132.285156 403.464844 132.371094 401.808594 132.371094 Z M 401.808594 132.371094 " fill-opacity="1" fill-rule="nonzero"/><path fill="#322e2b" d="M 251.351562 234.953125 L 228.707031 234.953125 L 228.707031 192.046875 L 210.984375 192.046875 L 210.984375 251.007812 L 251.351562 251.007812 Z M 251.351562 234.953125 " fill-opacity="1" fill-rule="nonzero"/><path fill="#322e2b" d="M 257.539062 192.046875 L 275.261719 192.046875 L 275.261719 250.992188 L 257.539062 250.992188 Z M 257.539062 192.046875 " fill-opacity="1" fill-rule="nonzero"/><path fill="#322e2b" d="M 323.390625 234.953125 L 300.628906 234.953125 L 300.628906 229.082031 L 315.003906 229.082031 L 315.003906 213.871094 L 300.628906 213.871094 L 300.628906 208 L 318.351562 208 L 323.390625 202.957031 L 323.390625 192.046875 L 282.90625 192.046875 L 282.90625 251.007812 L 323.390625 251.007812 Z M 323.390625 234.953125 " fill-opacity="1" fill-rule="nonzero"/><path fill="#322e2b" d="M 343.3125 251.007812 L 361.019531 251.007812 L 361.019531 208 L 371.097656 208 L 376.121094 202.957031 L 376.121094 192.046875 L 328.210938 192.046875 L 328.210938 208 L 343.3125 208 Z M 343.3125 251.007812 " fill-opacity="1" fill-rule="nonzero"/><path fill="#322e2b" d="M 394.367188 251.835938 L 417.011719 251.835938 C 424.671875 251.835938 429.59375 246.8125 429.59375 239.148438 L 429.59375 192.046875 L 411.988281 192.046875 L 411.988281 235.753906 L 399.40625 235.753906 L 399.40625 192.046875 L 381.785156 192.046875 L 381.785156 239.148438 C 381.785156 246.8125 386.707031 251.835938 394.367188 251.835938 Z M 394.367188 251.835938 " fill-opacity="1" fill-rule="nonzero"/><path fill="#322e2b" d="M 474.15625 251.007812 L 486.738281 200.4375 L 486.738281 192.046875 L 469.132812 192.046875 L 461.996094 234.105469 L 461.152344 234.105469 L 453.082031 192.046875 L 435.464844 192.046875 L 435.464844 200.4375 L 448.046875 251.007812 Z M 474.15625 251.007812 " fill-opacity="1" fill-rule="nonzero"/><path fill="#322e2b" d="M 516.3125 207.15625 L 522.707031 207.15625 L 522.707031 235.796875 L 516.3125 235.796875 L 516.3125 251.824219 L 527.730469 251.824219 C 535.390625 251.824219 540.3125 246.796875 540.3125 239.132812 L 540.3125 203.804688 C 540.3125 196.140625 535.390625 191.214844 527.730469 191.214844 L 516.3125 191.214844 Z M 510.023438 207.15625 L 516.3125 207.15625 L 516.3125 191.214844 L 504.984375 191.214844 C 497.324219 191.214844 492.402344 196.140625 492.402344 203.804688 L 492.402344 239.148438 C 492.402344 246.8125 497.324219 251.835938 504.984375 251.835938 L 516.3125 251.835938 L 516.3125 235.8125 L 510.023438 235.8125 Z M 510.023438 207.15625 " fill-opacity="1" fill-rule="nonzero"/><path fill="#322e2b" d="M 592.183594 238.304688 L 592.183594 228.234375 C 592.183594 221.113281 587.058594 215.96875 580.34375 214.714844 L 564.398438 211.800781 L 564.398438 208.027344 L 585.367188 208.027344 L 590.40625 202.988281 L 590.40625 192.074219 L 559.300781 192.074219 C 551.640625 192.074219 546.71875 197.015625 546.71875 204.664062 L 546.71875 213.898438 C 546.71875 221.183594 551.742188 226.167969 558.457031 227.433594 L 574.476562 230.347656 L 574.476562 234.964844 L 546.71875 234.964844 L 546.71875 250.992188 L 579.527344 250.992188 C 587.1875 251.007812 592.183594 245.964844 592.183594 238.304688 Z M 592.183594 238.304688 " fill-opacity="1" fill-rule="nonzero"/><path fill="#322e2b" d="M 218.746094 281.628906 L 224.832031 281.628906 L 224.832031 274.609375 L 218.746094 274.609375 L 218.746094 270.9375 L 226.289062 270.9375 L 228.503906 268.738281 L 228.503906 263.902344 L 210.984375 263.902344 L 210.984375 289.703125 L 218.746094 289.703125 Z M 218.746094 281.628906 " fill-opacity="1" fill-rule="nonzero"/><path fill="#322e2b" d="M 231.53125 263.902344 L 231.53125 284.574219 C 231.507812 284.945312 231.523438 285.316406 231.578125 285.683594 C 231.632812 286.050781 231.726562 286.40625 231.859375 286.757812 C 231.992188 287.105469 232.15625 287.433594 232.359375 287.746094 C 232.5625 288.058594 232.792969 288.347656 233.058594 288.609375 C 233.320312 288.871094 233.609375 289.101562 233.921875 289.304688 C 234.234375 289.507812 234.5625 289.671875 234.914062 289.800781 C 235.261719 289.933594 235.617188 290.027344 235.984375 290.078125 C 236.355469 290.132812 236.722656 290.148438 237.09375 290.125 L 247.054688 290.125 C 247.425781 290.148438 247.796875 290.132812 248.164062 290.078125 C 248.53125 290.027344 248.890625 289.933594 249.238281 289.800781 C 249.585938 289.671875 249.914062 289.507812 250.226562 289.304688 C 250.542969 289.101562 250.828125 288.871094 251.09375 288.609375 C 251.355469 288.347656 251.589844 288.058594 251.789062 287.746094 C 251.992188 287.433594 252.160156 287.105469 252.289062 286.757812 C 252.421875 286.40625 252.515625 286.050781 252.570312 285.683594 C 252.625 285.316406 252.640625 284.945312 252.617188 284.574219 L 252.617188 263.902344 L 244.855469 263.902344 L 244.855469 283.101562 L 239.292969 283.101562 L 239.292969 263.902344 Z M 231.53125 263.902344 " fill-opacity="1" fill-rule="nonzero"/><path fill="#322e2b" d="M 262.054688 289.703125 L 269.800781 289.703125 L 269.800781 270.9375 L 274.214844 270.9375 L 276.414062 268.738281 L 276.414062 263.902344 L 255.441406 263.902344 L 255.441406 270.9375 L 262.054688 270.9375 Z M 262.054688 289.703125 " fill-opacity="1" fill-rule="nonzero"/><path fill="#322e2b" d="M 291.617188 283.410156 L 289.285156 283.410156 L 289.285156 289.714844 L 293.785156 289.714844 C 294.160156 289.742188 294.53125 289.726562 294.898438 289.671875 C 295.269531 289.617188 295.628906 289.523438 295.976562 289.390625 C 296.328125 289.257812 296.65625 289.089844 296.96875 288.882812 C 297.28125 288.679688 297.570312 288.441406 297.832031 288.175781 C 298.09375 287.90625 298.320312 287.613281 298.519531 287.296875 C 298.714844 286.980469 298.878906 286.644531 299.003906 286.292969 C 299.128906 285.941406 299.210938 285.578125 299.257812 285.207031 C 299.304688 284.835938 299.308594 284.464844 299.277344 284.09375 L 299.277344 281.574219 C 299.339844 280.695312 299.175781 279.863281 298.777344 279.078125 C 298.378906 278.292969 297.808594 277.667969 297.0625 277.203125 C 296.386719 276.78125 295.65625 276.535156 294.863281 276.457031 L 294.863281 276.050781 C 295.5625 275.976562 296.191406 275.730469 296.757812 275.308594 C 297.386719 274.824219 297.859375 274.21875 298.175781 273.492188 C 298.492188 272.761719 298.609375 272.003906 298.53125 271.214844 L 298.53125 269.523438 C 298.5625 269.15625 298.554688 268.789062 298.507812 268.421875 C 298.460938 268.054688 298.371094 267.699219 298.246094 267.351562 C 298.121094 267.003906 297.960938 266.671875 297.765625 266.359375 C 297.570312 266.046875 297.34375 265.757812 297.082031 265.492188 C 296.824219 265.230469 296.542969 264.996094 296.234375 264.792969 C 295.925781 264.589844 295.597656 264.421875 295.253906 264.289062 C 294.90625 264.15625 294.550781 264.0625 294.1875 264.007812 C 293.824219 263.953125 293.457031 263.933594 293.085938 263.957031 L 289.285156 263.957031 L 289.285156 270.253906 L 290.742188 270.253906 L 290.742188 273.5 L 289.285156 273.5 L 289.285156 279.722656 L 291.617188 279.722656 Z M 289.316406 283.410156 L 287.101562 283.410156 L 287.101562 279.722656 L 289.285156 279.722656 L 289.285156 273.414062 L 287.101562 273.414062 L 287.101562 270.164062 L 289.285156 270.164062 L 289.285156 263.871094 L 279.355469 263.871094 L 279.355469 289.6875 L 289.285156 289.6875 Z M 289.316406 283.410156 " fill-opacity="1" fill-rule="nonzero"/><path fill="#322e2b" d="M 315.832031 283.101562 L 313.007812 283.101562 L 313.007812 290.125 L 318.03125 290.125 C 318.402344 290.148438 318.773438 290.132812 319.140625 290.078125 C 319.507812 290.027344 319.867188 289.933594 320.214844 289.800781 C 320.5625 289.671875 320.894531 289.507812 321.207031 289.304688 C 321.519531 289.105469 321.804688 288.871094 322.070312 288.609375 C 322.332031 288.347656 322.566406 288.058594 322.765625 287.746094 C 322.96875 287.433594 323.136719 287.105469 323.265625 286.757812 C 323.398438 286.40625 323.492188 286.050781 323.546875 285.683594 C 323.601562 285.316406 323.617188 284.945312 323.59375 284.574219 L 323.59375 269.042969 C 323.617188 268.671875 323.601562 268.300781 323.546875 267.933594 C 323.492188 267.566406 323.398438 267.210938 323.265625 266.859375 C 323.136719 266.511719 322.96875 266.183594 322.765625 265.871094 C 322.566406 265.558594 322.332031 265.269531 322.070312 265.007812 C 321.804688 264.746094 321.519531 264.511719 321.207031 264.3125 C 320.894531 264.109375 320.5625 263.945312 320.214844 263.816406 C 319.867188 263.683594 319.507812 263.589844 319.140625 263.539062 C 318.773438 263.484375 318.402344 263.46875 318.03125 263.492188 L 313.007812 263.492188 L 313.007812 270.515625 L 315.832031 270.515625 Z M 313.007812 283.101562 L 310.285156 283.101562 L 310.285156 270.515625 L 313.007812 270.515625 L 313.007812 263.492188 L 308.070312 263.492188 C 307.699219 263.46875 307.332031 263.484375 306.964844 263.539062 C 306.597656 263.59375 306.242188 263.6875 305.894531 263.820312 C 305.546875 263.949219 305.21875 264.117188 304.90625 264.316406 C 304.59375 264.519531 304.304688 264.75 304.042969 265.015625 C 303.78125 265.277344 303.550781 265.5625 303.347656 265.875 C 303.148438 266.1875 302.980469 266.515625 302.851562 266.863281 C 302.71875 267.210938 302.625 267.570312 302.570312 267.9375 C 302.515625 268.304688 302.5 268.671875 302.523438 269.042969 L 302.523438 284.574219 C 302.5 284.945312 302.515625 285.3125 302.570312 285.679688 C 302.625 286.046875 302.71875 286.40625 302.851562 286.753906 C 302.980469 287.101562 303.148438 287.429688 303.347656 287.742188 C 303.550781 288.054688 303.78125 288.339844 304.042969 288.601562 C 304.304688 288.867188 304.59375 289.097656 304.90625 289.300781 C 305.21875 289.5 305.546875 289.667969 305.894531 289.796875 C 306.242188 289.929688 306.597656 290.023438 306.964844 290.078125 C 307.332031 290.132812 307.699219 290.148438 308.070312 290.125 L 313.007812 290.125 Z M 313.007812 283.101562 " fill-opacity="1" fill-rule="nonzero"/><path fill="#322e2b" d="M 344.988281 282.679688 L 335.027344 282.679688 L 335.027344 263.902344 L 327.265625 263.902344 L 327.265625 289.703125 L 344.988281 289.703125 Z M 344.988281 282.679688 " fill-opacity="1" fill-rule="nonzero"/><path fill="#322e2b" d="M 361.136719 283.101562 L 358.398438 283.101562 L 358.398438 290.125 L 363.4375 290.125 C 363.804688 290.148438 364.171875 290.132812 364.535156 290.074219 C 364.902344 290.019531 365.253906 289.925781 365.601562 289.792969 C 365.945312 289.664062 366.269531 289.496094 366.578125 289.292969 C 366.886719 289.089844 367.171875 288.859375 367.429688 288.59375 C 367.6875 288.332031 367.914062 288.042969 368.109375 287.730469 C 368.308594 287.417969 368.46875 287.089844 368.59375 286.742188 C 368.71875 286.394531 368.804688 286.039062 368.855469 285.671875 C 368.90625 285.308594 368.914062 284.941406 368.882812 284.574219 L 368.882812 269.042969 C 368.914062 268.675781 368.90625 268.308594 368.855469 267.941406 C 368.804688 267.578125 368.71875 267.222656 368.59375 266.875 C 368.46875 266.527344 368.308594 266.199219 368.109375 265.886719 C 367.914062 265.574219 367.6875 265.285156 367.429688 265.023438 C 367.171875 264.757812 366.886719 264.527344 366.578125 264.324219 C 366.269531 264.121094 365.945312 263.953125 365.601562 263.824219 C 365.253906 263.691406 364.902344 263.597656 364.535156 263.542969 C 364.171875 263.484375 363.804688 263.46875 363.4375 263.492188 L 358.398438 263.492188 L 358.398438 270.515625 L 361.136719 270.515625 Z M 358.398438 283.101562 L 355.675781 283.101562 L 355.675781 270.515625 L 358.398438 270.515625 L 358.398438 263.492188 L 353.476562 263.492188 C 353.105469 263.46875 352.738281 263.484375 352.367188 263.539062 C 352 263.589844 351.644531 263.683594 351.292969 263.816406 C 350.945312 263.945312 350.617188 264.109375 350.304688 264.3125 C 349.992188 264.511719 349.703125 264.746094 349.441406 265.007812 C 349.175781 265.269531 348.945312 265.558594 348.742188 265.871094 C 348.539062 266.183594 348.375 266.511719 348.242188 266.859375 C 348.109375 267.210938 348.015625 267.566406 347.960938 267.933594 C 347.90625 268.300781 347.890625 268.671875 347.914062 269.042969 L 347.914062 284.574219 C 347.890625 284.945312 347.90625 285.316406 347.960938 285.683594 C 348.015625 286.050781 348.109375 286.40625 348.242188 286.757812 C 348.375 287.105469 348.539062 287.433594 348.742188 287.746094 C 348.945312 288.058594 349.175781 288.347656 349.441406 288.609375 C 349.703125 288.871094 349.992188 289.101562 350.304688 289.304688 C 350.617188 289.507812 350.945312 289.671875 351.292969 289.800781 C 351.644531 289.933594 352 290.027344 352.367188 290.078125 C 352.738281 290.132812 353.105469 290.148438 353.476562 290.125 L 358.398438 290.125 Z M 358.398438 283.101562 " fill-opacity="1" fill-rule="nonzero"/><path fill="#322e2b" d="M 397.9375 270.9375 L 400.132812 268.738281 L 400.132812 263.902344 L 382.628906 263.902344 L 382.628906 289.703125 L 390.277344 289.703125 L 390.277344 281.628906 L 396.363281 281.628906 L 396.363281 274.609375 L 390.277344 274.609375 L 390.277344 270.9375 Z M 397.9375 270.9375 " fill-opacity="1" fill-rule="nonzero"/><path fill="#322e2b" d="M 418.585938 270.9375 L 420.785156 268.738281 L 420.785156 263.902344 L 403.078125 263.902344 L 403.078125 289.703125 L 420.785156 289.703125 L 420.785156 282.679688 L 410.824219 282.679688 L 410.824219 280.160156 L 417.113281 280.160156 L 417.113281 273.441406 L 410.824219 273.441406 L 410.824219 270.9375 Z M 418.585938 270.9375 " fill-opacity="1" fill-rule="nonzero"/><path fill="#322e2b" d="M 437.035156 282.636719 L 434.53125 282.636719 L 434.53125 289.671875 L 439.351562 289.671875 C 439.71875 289.695312 440.085938 289.675781 440.449219 289.621094 C 440.816406 289.5625 441.171875 289.46875 441.515625 289.335938 C 441.859375 289.203125 442.183594 289.035156 442.492188 288.832031 C 442.800781 288.628906 443.085938 288.398438 443.34375 288.132812 C 443.601562 287.867188 443.828125 287.582031 444.023438 287.269531 C 444.222656 286.957031 444.382812 286.625 444.507812 286.277344 C 444.632812 285.929688 444.71875 285.574219 444.769531 285.207031 C 444.816406 284.84375 444.828125 284.476562 444.796875 284.109375 L 444.796875 269.523438 C 444.828125 269.15625 444.820312 268.789062 444.773438 268.421875 C 444.722656 268.054688 444.636719 267.699219 444.511719 267.351562 C 444.386719 267.003906 444.226562 266.671875 444.03125 266.359375 C 443.835938 266.046875 443.605469 265.757812 443.347656 265.492188 C 443.089844 265.230469 442.804688 264.996094 442.496094 264.792969 C 442.1875 264.589844 441.863281 264.421875 441.515625 264.289062 C 441.171875 264.15625 440.816406 264.0625 440.453125 264.007812 C 440.085938 263.953125 439.71875 263.933594 439.351562 263.957031 L 434.53125 263.957031 L 434.53125 270.980469 L 437.035156 270.980469 Z M 434.53125 282.636719 L 431.910156 282.636719 L 431.910156 270.980469 L 434.53125 270.980469 L 434.53125 263.945312 L 424.148438 263.945312 L 424.148438 289.761719 L 434.53125 289.761719 Z M 434.53125 282.636719 " fill-opacity="1" fill-rule="nonzero"/><path fill="#322e2b" d="M 463.992188 270.9375 L 466.191406 268.738281 L 466.191406 263.902344 L 448.46875 263.902344 L 448.46875 289.703125 L 466.191406 289.703125 L 466.191406 282.679688 L 456.230469 282.679688 L 456.230469 280.160156 L 462.519531 280.160156 L 462.519531 273.441406 L 456.230469 273.441406 L 456.230469 270.9375 Z M 463.992188 270.9375 " fill-opacity="1" fill-rule="nonzero"/><path fill="#322e2b" d="M 482.542969 274.1875 L 479.921875 274.1875 L 479.921875 281.734375 L 483.285156 289.714844 L 491.03125 289.714844 L 491.03125 286.046875 L 487.261719 280.21875 C 487.824219 279.96875 488.347656 279.652344 488.835938 279.269531 C 489.300781 278.820312 489.660156 278.292969 489.914062 277.691406 C 490.167969 277.09375 490.292969 276.46875 490.289062 275.816406 L 490.289062 269.523438 C 490.316406 269.152344 490.300781 268.78125 490.246094 268.414062 C 490.191406 268.042969 490.097656 267.6875 489.96875 267.335938 C 489.835938 266.988281 489.671875 266.65625 489.46875 266.34375 C 489.265625 266.03125 489.035156 265.742188 488.769531 265.480469 C 488.507812 265.214844 488.21875 264.984375 487.90625 264.78125 C 487.59375 264.578125 487.261719 264.414062 486.914062 264.28125 C 486.566406 264.152344 486.207031 264.058594 485.835938 264.003906 C 485.46875 263.949219 485.097656 263.933594 484.726562 263.957031 L 479.90625 263.957031 L 479.90625 270.980469 L 482.527344 270.980469 Z M 479.921875 274.1875 L 477.300781 274.1875 L 477.300781 270.980469 L 479.921875 270.980469 L 479.921875 263.945312 L 469.726562 263.945312 L 469.726562 289.761719 L 477.375 289.761719 L 477.375 281.179688 L 479.789062 281.179688 L 479.996094 281.703125 Z M 479.921875 274.1875 " fill-opacity="1" fill-rule="nonzero"/><path fill="#322e2b" d="M 504.984375 270.515625 L 505.1875 270.515625 L 506.878906 279.257812 L 504.984375 279.257812 L 504.984375 285.871094 L 508.128906 285.871094 L 508.859375 289.761719 L 516.621094 289.761719 L 516.621094 286.089844 L 510.023438 263.945312 L 504.984375 263.945312 Z M 504.882812 270.515625 L 504.984375 270.515625 L 504.984375 263.902344 L 500.0625 263.902344 L 493.449219 286.046875 L 493.449219 289.714844 L 501.210938 289.714844 L 501.941406 285.828125 L 504.984375 285.828125 L 504.984375 279.210938 L 503.207031 279.210938 Z M 504.882812 270.515625 " fill-opacity="1" fill-rule="nonzero"/><path fill="#322e2b" d="M 535.59375 270.980469 L 537.808594 268.78125 L 537.808594 263.945312 L 524.90625 263.945312 C 524.535156 263.921875 524.164062 263.941406 523.796875 263.996094 C 523.429688 264.054688 523.074219 264.148438 522.726562 264.28125 C 522.378906 264.414062 522.050781 264.582031 521.742188 264.785156 C 521.429688 264.988281 521.144531 265.222656 520.882812 265.484375 C 520.621094 265.75 520.386719 266.039062 520.1875 266.351562 C 519.988281 266.664062 519.824219 266.996094 519.691406 267.34375 C 519.5625 267.691406 519.46875 268.046875 519.417969 268.417969 C 519.363281 268.785156 519.347656 269.152344 519.371094 269.523438 L 519.371094 284.09375 C 519.347656 284.464844 519.363281 284.835938 519.417969 285.203125 C 519.472656 285.570312 519.566406 285.929688 519.699219 286.277344 C 519.832031 286.625 519.996094 286.957031 520.199219 287.269531 C 520.402344 287.582031 520.632812 287.871094 520.898438 288.132812 C 521.160156 288.394531 521.449219 288.628906 521.761719 288.832031 C 522.074219 289.03125 522.402344 289.199219 522.75 289.332031 C 523.097656 289.460938 523.457031 289.554688 523.824219 289.609375 C 524.191406 289.664062 524.5625 289.683594 524.933594 289.660156 L 537.835938 289.660156 L 537.835938 282.636719 L 527.132812 282.636719 L 527.132812 270.980469 Z M 535.59375 270.980469 " fill-opacity="1" fill-rule="nonzero"/><path fill="#322e2b" d="M 541.15625 263.902344 L 548.816406 263.902344 L 548.816406 289.703125 L 541.15625 289.703125 Z M 541.15625 263.902344 " fill-opacity="1" fill-rule="nonzero"/><path fill="#322e2b" d="M 551.742188 283.101562 L 551.742188 290.125 L 560.480469 290.125 C 560.851562 290.148438 561.222656 290.132812 561.589844 290.078125 C 561.957031 290.027344 562.316406 289.933594 562.664062 289.800781 C 563.011719 289.671875 563.339844 289.503906 563.65625 289.304688 C 563.96875 289.101562 564.253906 288.871094 564.519531 288.609375 C 564.78125 288.347656 565.015625 288.058594 565.214844 287.746094 C 565.417969 287.433594 565.585938 287.105469 565.714844 286.757812 C 565.847656 286.40625 565.941406 286.050781 565.996094 285.683594 C 566.050781 285.316406 566.066406 284.945312 566.042969 284.574219 L 566.042969 263.902344 L 558.28125 263.902344 L 558.28125 283.101562 Z M 551.742188 283.101562 " fill-opacity="1" fill-rule="nonzero"/><path fill="#322e2b" d="M 580.535156 270.515625 L 580.636719 270.515625 L 582.324219 279.257812 L 580.535156 279.257812 L 580.535156 285.871094 L 583.679688 285.871094 L 584.421875 289.761719 L 592.183594 289.761719 L 592.183594 286.089844 L 585.484375 263.945312 L 580.535156 263.945312 Z M 578.65625 279.257812 L 580.328125 270.515625 L 580.535156 270.515625 L 580.535156 263.902344 L 575.507812 263.902344 L 568.882812 286.046875 L 568.882812 289.714844 L 576.644531 289.714844 L 577.375 285.828125 L 580.535156 285.828125 L 580.535156 279.210938 Z M 578.65625 279.257812 " fill-opacity="1" fill-rule="nonzero"/><path fill="#322e2b" d="M 303.570312 317.71875 L 303.570312 665.652344 L 349.707031 585.726562 L 349.707031 532.957031 L 380.113281 532.957031 L 406.628906 486.804688 L 349.707031 486.804688 L 349.707031 363.871094 L 430.863281 363.871094 L 430.863281 665.652344 L 476.996094 585.726562 L 476.996094 532.957031 L 507.503906 532.957031 L 534.136719 486.804688 L 476.996094 486.804688 L 476.996094 363.871094 L 562.652344 363.871094 L 589.285156 317.71875 Z M 303.570312 317.71875 " fill-opacity="1" fill-rule="nonzero"/><path fill="#322e2b" d="M 449.9375 712.417969 L 419.53125 764.96875 C 422.429688 764.691406 425.324219 764.347656 428.207031 763.9375 C 431.089844 763.53125 433.964844 763.054688 436.824219 762.511719 C 439.6875 761.96875 442.535156 761.363281 445.371094 760.6875 C 448.203125 760.015625 451.019531 759.277344 453.820312 758.472656 C 456.621094 757.671875 459.402344 756.804688 462.160156 755.871094 C 464.921875 754.941406 467.65625 753.945312 470.371094 752.890625 C 473.085938 751.832031 475.773438 750.710938 478.4375 749.53125 C 481.097656 748.347656 483.734375 747.105469 486.339844 745.804688 C 488.945312 744.5 491.519531 743.136719 494.0625 741.71875 C 496.605469 740.296875 499.113281 738.816406 501.585938 737.277344 C 504.0625 735.742188 506.5 734.148438 508.898438 732.496094 C 511.300781 730.847656 513.664062 729.144531 515.984375 727.386719 C 518.308594 725.625 520.589844 723.816406 522.828125 721.953125 C 525.066406 720.089844 527.261719 718.171875 529.414062 716.207031 C 531.5625 714.242188 533.667969 712.230469 535.726562 710.167969 C 537.785156 708.105469 539.792969 705.996094 541.753906 703.84375 C 543.714844 701.6875 545.625 699.488281 547.488281 697.246094 C 549.347656 695.003906 551.152344 692.71875 552.90625 690.394531 C 554.664062 688.066406 556.363281 685.703125 558.007812 683.296875 C 559.652344 680.894531 561.242188 678.453125 562.777344 675.972656 C 564.308594 673.496094 565.785156 670.984375 567.203125 668.4375 C 568.617188 665.894531 569.976562 663.316406 571.277344 660.707031 C 572.574219 658.097656 573.8125 655.460938 574.988281 652.796875 C 576.167969 650.132812 577.28125 647.441406 578.335938 644.722656 C 579.386719 642.007812 580.378906 639.265625 581.304688 636.503906 C 582.234375 633.742188 583.09375 630.960938 583.894531 628.15625 C 584.691406 625.355469 585.425781 622.535156 586.097656 619.699219 C 586.765625 616.863281 587.367188 614.011719 587.90625 611.148438 C 588.445312 608.285156 588.914062 605.410156 589.320312 602.523438 C 589.726562 599.636719 590.0625 596.746094 590.335938 593.84375 C 590.609375 590.941406 590.8125 588.035156 590.949219 585.125 C 591.089844 582.214844 591.160156 579.300781 591.164062 576.386719 L 591.164062 394.191406 L 546.019531 472.222656 L 546.019531 576.386719 C 546.015625 580.089844 545.867188 583.78125 545.578125 587.46875 C 545.289062 591.160156 544.859375 594.832031 544.289062 598.488281 C 543.71875 602.140625 543.011719 605.769531 542.160156 609.371094 C 541.3125 612.972656 540.328125 616.535156 539.203125 620.058594 C 538.082031 623.585938 536.828125 627.0625 535.4375 630.492188 C 534.050781 633.921875 532.53125 637.289062 530.882812 640.601562 C 529.234375 643.914062 527.464844 647.160156 525.566406 650.335938 C 523.671875 653.511719 521.65625 656.609375 519.519531 659.632812 C 517.386719 662.652344 515.140625 665.589844 512.78125 668.4375 C 510.421875 671.285156 507.957031 674.042969 505.386719 676.699219 C 502.816406 679.359375 500.148438 681.917969 497.378906 684.371094 C 494.613281 686.828125 491.757812 689.171875 488.808594 691.40625 C 485.863281 693.644531 482.835938 695.761719 479.726562 697.765625 C 476.617188 699.769531 473.433594 701.648438 470.179688 703.40625 C 466.925781 705.167969 463.609375 706.796875 460.230469 708.300781 C 456.855469 709.804688 453.421875 711.175781 449.9375 712.417969 Z M 449.9375 712.417969 " fill-opacity="1" fill-rule="nonzero"/><path fill="#322e2b" d="M 374.445312 763.832031 L 399.40625 720.621094 C 397.074219 720.578125 394.742188 720.480469 392.414062 720.328125 C 390.082031 720.175781 387.757812 719.964844 385.441406 719.699219 C 383.121094 719.429688 380.8125 719.109375 378.507812 718.730469 C 376.203125 718.351562 373.910156 717.917969 371.628906 717.425781 C 369.347656 716.9375 367.078125 716.390625 364.824219 715.789062 C 362.566406 715.191406 360.328125 714.535156 358.101562 713.828125 C 355.878906 713.117188 353.671875 712.355469 351.488281 711.539062 C 349.300781 710.722656 347.132812 709.855469 344.988281 708.933594 C 342.84375 708.011719 340.722656 707.039062 338.625 706.015625 C 336.527344 704.988281 334.457031 703.914062 332.410156 702.789062 C 330.367188 701.664062 328.347656 700.492188 326.359375 699.269531 C 324.371094 698.046875 322.414062 696.773438 320.488281 695.457031 C 318.558594 694.140625 316.667969 692.773438 314.804688 691.363281 C 312.945312 689.957031 311.121094 688.5 309.328125 687.003906 C 307.539062 685.503906 305.785156 683.964844 304.070312 682.378906 C 302.355469 680.796875 300.679688 679.171875 299.042969 677.507812 C 297.40625 675.839844 295.8125 674.136719 294.257812 672.394531 C 292.703125 670.652344 291.195312 668.875 289.726562 667.058594 C 288.257812 665.242188 286.835938 663.390625 285.457031 661.507812 C 284.078125 659.621094 282.75 657.703125 281.464844 655.753906 C 280.179688 653.804688 278.941406 651.824219 277.753906 649.816406 C 276.566406 647.804688 275.425781 645.769531 274.335938 643.703125 C 273.246094 641.636719 272.207031 639.546875 271.21875 637.433594 C 270.230469 635.316406 269.292969 633.179688 268.40625 631.019531 C 267.523438 628.859375 266.691406 626.675781 265.914062 624.476562 C 265.132812 622.273438 264.410156 620.054688 263.738281 617.820312 C 263.066406 615.582031 262.449219 613.332031 261.886719 611.0625 C 261.324219 608.796875 260.816406 606.519531 260.367188 604.226562 C 259.914062 601.9375 259.519531 599.636719 259.179688 597.324219 C 258.839844 595.015625 258.554688 592.699219 258.328125 590.375 C 258.101562 588.050781 257.929688 585.722656 257.816406 583.390625 C 257.699219 581.058594 257.644531 578.722656 257.640625 576.386719 L 257.640625 317.71875 L 212.5 317.71875 L 212.5 576.386719 C 212.5 579.203125 212.5625 582.011719 212.691406 584.824219 C 212.816406 587.632812 213.007812 590.441406 213.257812 593.242188 C 213.507812 596.042969 213.824219 598.839844 214.199219 601.625 C 214.574219 604.414062 215.011719 607.191406 215.511719 609.960938 C 216.011719 612.730469 216.574219 615.484375 217.195312 618.230469 C 217.816406 620.972656 218.5 623.699219 219.242188 626.414062 C 219.988281 629.125 220.789062 631.820312 221.652344 634.5 C 222.519531 637.175781 223.441406 639.832031 224.421875 642.46875 C 225.402344 645.105469 226.445312 647.71875 227.542969 650.308594 C 228.640625 652.898438 229.796875 655.460938 231.007812 658 C 232.21875 660.539062 233.488281 663.046875 234.8125 665.53125 C 236.136719 668.011719 237.511719 670.464844 238.945312 672.882812 C 240.378906 675.304688 241.867188 677.691406 243.40625 680.046875 C 244.945312 682.398438 246.535156 684.71875 248.175781 687.003906 C 249.820312 689.285156 251.511719 691.53125 253.253906 693.738281 C 254.996094 695.949219 256.785156 698.117188 258.625 700.242188 C 260.464844 702.371094 262.351562 704.457031 264.28125 706.503906 C 266.214844 708.546875 268.1875 710.546875 270.210938 712.503906 C 272.230469 714.460938 274.292969 716.371094 276.398438 718.234375 C 278.503906 720.097656 280.652344 721.914062 282.835938 723.683594 C 285.023438 725.453125 287.25 727.171875 289.511719 728.84375 C 291.773438 730.511719 294.074219 732.128906 296.410156 733.699219 C 298.746094 735.265625 301.113281 736.78125 303.515625 738.242188 C 305.917969 739.703125 308.351562 741.109375 310.816406 742.464844 C 313.28125 743.816406 315.777344 745.117188 318.300781 746.359375 C 320.820312 747.601562 323.371094 748.785156 325.945312 749.914062 C 328.523438 751.042969 331.121094 752.113281 333.746094 753.125 C 336.367188 754.140625 339.011719 755.09375 341.679688 755.988281 C 344.34375 756.882812 347.027344 757.71875 349.730469 758.496094 C 352.433594 759.269531 355.152344 759.984375 357.886719 760.640625 C 360.621094 761.292969 363.371094 761.886719 366.132812 762.421875 C 368.894531 762.953125 371.664062 763.421875 374.445312 763.832031 Z M 374.445312 763.832031 " fill-opacity="1" fill-rule="nonzero"/><path fill="#fabb00" d="M 186.140625 58.523438 L 323.492188 58.523438 L 322.96875 60.300781 C 321.871094 64.546875 321.0625 68.851562 320.550781 73.207031 C 320.203125 77.058594 319.363281 80.796875 318.03125 84.425781 L 186.140625 84.425781 Z M 186.140625 58.523438 " fill-opacity="1" fill-rule="nonzero"/><path fill="#007735" d="M 318.03125 84.5 C 316.339844 89.230469 313.964844 93.585938 310.902344 97.566406 C 307.84375 101.546875 304.242188 104.960938 300.105469 107.808594 C 295.375 110.996094 290.480469 113.910156 285.425781 116.550781 L 186.140625 116.550781 L 186.140625 84.5 Z M 318.03125 84.5 " fill-opacity="1" fill-rule="nonzero"/><path fill="#dc0d1d" d="M 285.425781 116.417969 C 279.878906 119.332031 273.777344 122.085938 267.179688 124.8125 C 236.992188 137.296875 206.367188 143.488281 187.714844 145.207031 L 186.140625 145.308594 L 186.140625 116.417969 Z M 285.425781 116.417969 " fill-opacity="1" fill-rule="nonzero"/><path fill="#fabb00" d="M 617.59375 58.523438 L 480.242188 58.523438 L 480.765625 60.300781 C 481.917969 64.539062 482.71875 68.839844 483.167969 73.207031 C 483.578125 77.042969 484.417969 80.785156 485.6875 84.425781 L 617.59375 84.425781 Z M 617.59375 58.523438 " fill-opacity="1" fill-rule="nonzero"/><path fill="#007735" d="M 485.6875 84.5 C 487.402344 89.21875 489.789062 93.566406 492.847656 97.542969 C 495.90625 101.519531 499.496094 104.945312 503.613281 107.808594 C 507.984375 110.722656 512.949219 113.636719 518.292969 116.550781 L 617.59375 116.550781 L 617.59375 84.5 Z M 485.6875 84.5 " fill-opacity="1" fill-rule="nonzero"/><path fill="#dc0d1d" d="M 518.292969 116.417969 C 523.855469 119.332031 529.945312 122.085938 536.539062 124.8125 C 566.84375 137.296875 597.453125 143.488281 616.023438 145.207031 L 617.59375 145.308594 L 617.59375 116.417969 Z M 518.292969 116.417969 " fill-opacity="1" fill-rule="nonzero"/><path fill="#ffffff" d="M 426.449219 95.019531 L 422.472656 93.765625 L 406.949219 105.101562 L 406.847656 109.398438 L 415.761719 112.222656 L 426.449219 104.457031 Z M 426.449219 95.019531 " fill-opacity="1" fill-rule="nonzero"/><path fill="#ffffff" d="M 401.910156 96.285156 L 415.660156 86.320312 L 410.414062 70.164062 L 393.523438 70.164062 L 388.28125 86.320312 Z M 401.910156 96.285156 " fill-opacity="1" fill-rule="nonzero"/><path fill="#ffffff" d="M 440.734375 87.414062 L 436.539062 93.082031 L 436.539062 100.203125 L 439.160156 99.359375 C 440.625 96.246094 441.675781 92.996094 442.308594 89.613281 Z M 440.734375 87.414062 " fill-opacity="1" fill-rule="nonzero"/><path fill="#ffffff" d="M 396.886719 109.296875 L 396.988281 104.984375 L 381.464844 93.765625 L 377.167969 95.132812 L 377.167969 104.457031 L 387.976562 112.222656 Z M 396.886719 109.296875 " fill-opacity="1" fill-rule="nonzero"/><path fill="#ffffff" d="M 374.125 85.578125 L 378.4375 84.222656 L 384.304688 65.96875 L 381.683594 62.398438 L 372.671875 65.226562 L 368.578125 77.929688 Z M 374.125 85.578125 " fill-opacity="1" fill-rule="nonzero"/><path fill="#ffffff" d="M 430.964844 65.226562 L 422.152344 62.398438 L 419.632812 65.96875 L 425.617188 84.222656 L 429.59375 85.476562 L 435.054688 77.929688 Z M 430.964844 65.226562 " fill-opacity="1" fill-rule="nonzero"/><path fill="#ffffff" d="M 367.105469 100.160156 L 367.105469 93.035156 L 363.015625 87.414062 L 361.339844 89.613281 C 361.972656 92.996094 363.023438 96.246094 364.484375 99.359375 Z M 367.105469 100.160156 " fill-opacity="1" fill-rule="nonzero"/><path fill="#ffffff" d="M 401.808594 118.3125 L 395.097656 120.515625 L 396.667969 122.714844 C 400.097656 123.136719 403.523438 123.136719 406.949219 122.714844 L 408.523438 120.515625 Z M 401.808594 118.3125 " fill-opacity="1" fill-rule="nonzero"/><path fill="#ffffff" d="M 430.015625 54.429688 L 430.015625 51.601562 C 427.527344 49.265625 424.789062 47.269531 421.804688 45.613281 L 419.183594 46.460938 L 423.273438 52.289062 Z M 430.015625 54.429688 " fill-opacity="1" fill-rule="nonzero"/><path fill="#ffffff" d="M 373.746094 54.429688 L 380.445312 52.230469 L 384.539062 46.402344 L 381.917969 45.558594 C 378.90625 47.210938 376.144531 49.207031 373.632812 51.542969 Z M 373.746094 54.429688 " fill-opacity="1" fill-rule="nonzero"/><path fill="#ffffff" d="M 392.476562 60.097656 L 411.464844 60.097656 L 413.96875 56.527344 L 408.421875 48.863281 L 395.210938 48.863281 L 389.75 56.425781 Z M 392.476562 60.097656 " fill-opacity="1" fill-rule="nonzero"/></svg>