<svg id="Layer_1" data-name="Layer 1" xmlns="http://www.w3.org/2000/svg" viewBox="0 0 324.77 555.98"><defs><style>.cls-1{fill:#322e2b;}.cls-2{fill:#fff;}.cls-3{fill:#302c2a;}.cls-4{fill:#fabb00;}.cls-5{fill:#007735;}.cls-6{fill:#dc0d1d;}</style></defs><path class="cls-1" d="M160.2,556h.14c88.35-.08,160.2-72,160.2-160.35V27.93H208.8l-.29-.44a55.45,55.45,0,0,0-11.66-14,56,56,0,0,0-84.82,14l-.29.44H0v367.7C0,484,71.86,555.9,160.2,556Z"/><path class="cls-2" d="M107.64,75.52l.5,1.37a55.52,55.52,0,0,0,15.2,21.38l1.94,1.8H64.58l5-1.94c1-.36,2-.79,2.88-1.15,15-6.12,26.43-13,34.13-20.45Z"/><path class="cls-3" d="M12.17,40.17h94.32l-.36,1.22a66.17,66.17,0,0,0-1.66,8.86,32.73,32.73,0,0,1-14,23.69A126.34,126.34,0,0,1,67.82,85.67c-20.73,8.57-41.76,12.82-54.57,14l-1.08.07Z"/><path class="cls-2" d="M308.38,395.63c0,81.72-66.46,148.18-148.11,148.18S12.17,477.35,12.17,395.63V112.24H308.38Z"/><path class="cls-2" d="M212.4,76.89l.5-1.37,1.08,1c7.71,7.41,19.16,14.33,34.13,20.45.94.36,1.87.79,2.88,1.15l5,1.94h-60.7l2-1.8A55.39,55.39,0,0,0,212.4,76.89Z"/><path class="cls-2" d="M128.45,24.25a44.74,44.74,0,0,1,12.09-8.63l.36-.22c.44-.22.87-.36,1.3-.58l.14-.07a6.69,6.69,0,0,0,.72-.29c.22-.07.44-.21.72-.29l.15-.07c.43-.14.86-.36,1.37-.5l.36-.14a45,45,0,0,1,29.23,0l.36.14c.5.14.93.36,1.37.5l.21.07c.22.08.43.22.65.29s.5.22.72.29l.14.07c.44.22.87.36,1.3.58l.36.22a43.58,43.58,0,0,1,12.1,8.63,45.3,45.3,0,0,1,8.78,12.32v.14a10.58,10.58,0,0,1,.79,1.66c.15.28.22.57.36.79l.22.57a1.88,1.88,0,0,0,.14.51A11.16,11.16,0,0,1,203,41.9L203,42a44.44,44.44,0,0,1,2.23,14,44.9,44.9,0,0,1-3.89,18.43l-.07.14-.43.87-.14.36c-.29.5-.58,1.08-.87,1.65A44.61,44.61,0,0,1,192.1,88,43.56,43.56,0,0,1,180,96.54l-.36.22a9.94,9.94,0,0,1-1.3.58l-.21.07a2.61,2.61,0,0,1-.65.28,2.72,2.72,0,0,1-.72.29l-.14.08a8.23,8.23,0,0,1-1.37.5l-.36.14a44.82,44.82,0,0,1-29.23,0l-.36-.14a7.62,7.62,0,0,1-1.37-.5c-.36-.15-.58-.22-.87-.37l-.64-.21-.22-.14a11.29,11.29,0,0,1-1.3-.58l-.28-.15a45.11,45.11,0,0,1-20-19c-.29-.65-.57-1.23-.86-1.8l-.15-.29c-.14-.29-.28-.58-.43-.87l-.07-.21A45.29,45.29,0,0,1,117.5,42V42c.22-.65.44-1.23.65-1.73a3.69,3.69,0,0,1,.22-.51l.14-.5c.15-.29.22-.58.36-.86.22-.58.51-1.16.79-1.73l.08-.07A43.61,43.61,0,0,1,128.45,24.25Z"/><path class="cls-1" d="M197.28,44l-.07-.21a10.87,10.87,0,0,0-.51-1.37c-.07-.15-.07-.36-.14-.5l-.22-.44a5.44,5.44,0,0,0-.28-.72c-.22-.43-.44-.93-.65-1.44l-.07-.07a38.34,38.34,0,0,0-18-18.14l-.29-.15c-.43-.21-.79-.36-1.15-.5l-.15-.07c-.21-.08-.36-.22-.57-.29a3.38,3.38,0,0,1-.58-.22l-.14-.07c-.44-.14-.8-.29-1.23-.43l-.29-.15a39.06,39.06,0,0,0-25.27,0l-.36.15c-.43.14-.79.29-1.15.43l-.14.07-.65.22a3.45,3.45,0,0,0-.58.29l-.14.07c-.36.14-.72.29-1.15.5l-.29.15a38.34,38.34,0,0,0-18,18.14l-.07.07c-.22.51-.44,1-.65,1.44a3.3,3.3,0,0,0-.29.79l-.22.37a1.93,1.93,0,0,1-.14.5,7.88,7.88,0,0,0-.5,1.44l-.08.14a38.76,38.76,0,0,0,1.44,27.94l.08.21a4.7,4.7,0,0,1,.36.8l.14.21a14.53,14.53,0,0,0,.79,1.51,38.86,38.86,0,0,0,17.21,16.49l.22.15c.43.14.79.36,1.15.5l.21.07c.15.08.36.15.51.22a4.2,4.2,0,0,0,.79.29c.36.14.72.28,1.15.43l.36.14a37.83,37.83,0,0,0,25.2,0l.36-.14c.43-.15.79-.29,1.15-.43h.15c.21-.08.43-.22.65-.29s.36-.14.57-.22l.15-.07c.36-.14.72-.36,1.15-.5l.29-.22a38.3,38.3,0,0,0,10.44-7.42,41.27,41.27,0,0,0,6.76-9c.22-.5.51-1,.72-1.44l.15-.28a3.53,3.53,0,0,1,.36-.8l.07-.14a39,39,0,0,0,3.38-15.91A38.21,38.21,0,0,0,197.28,44Z"/><path class="cls-1" d="M160.27,90.86A34.74,34.74,0,1,1,195,56.08,34.79,34.79,0,0,1,160.27,90.86Z"/><polygon class="cls-1" points="56.95 161.27 41.4 161.27 41.4 131.82 29.23 131.82 29.23 172.29 56.95 172.29 56.95 161.27"/><rect class="cls-1" x="61.2" y="131.82" width="12.17" height="40.46"/><polygon class="cls-1" points="106.42 161.27 90.79 161.27 90.79 157.24 100.66 157.24 100.66 146.8 90.79 146.8 90.79 142.77 102.96 142.77 106.42 139.31 106.42 131.82 78.62 131.82 78.62 172.29 106.42 172.29 106.42 161.27"/><polygon class="cls-1" points="120.1 172.29 132.26 172.29 132.26 142.77 139.18 142.77 142.63 139.31 142.63 131.82 109.73 131.82 109.73 142.77 120.1 142.77 120.1 172.29"/><path class="cls-1" d="M155.16,172.86h15.55c5.26,0,8.64-3.45,8.64-8.71V131.82H167.26v30h-8.64v-30h-12.1v32.33C146.52,169.41,149.9,172.86,155.16,172.86Z"/><polygon class="cls-1" points="209.95 172.29 218.59 137.58 218.59 131.82 206.5 131.82 201.6 160.69 201.02 160.69 195.48 131.82 183.38 131.82 183.38 137.58 192.02 172.29 209.95 172.29"/><path class="cls-1" d="M238.9,142.19h4.39v19.66H238.9v11h7.84c5.26,0,8.64-3.45,8.64-8.71V139.89c0-5.26-3.38-8.64-8.64-8.64H238.9Zm-4.32,0h4.32V131.25h-7.78c-5.26,0-8.64,3.38-8.64,8.64v24.26c0,5.26,3.38,8.71,8.64,8.71h7.78v-11h-4.32Z"/><path class="cls-1" d="M291,163.57v-6.91c0-4.89-3.52-8.42-8.13-9.28l-10.95-2v-2.59h14.4l3.46-3.46v-7.49H268.42c-5.26,0-8.64,3.39-8.64,8.64v6.34c0,5,3.45,8.42,8.06,9.29l11,2v3.17H259.78v11h22.53C287.57,172.29,291,168.83,291,163.57Z"/><polygon class="cls-1" points="34.56 193.31 38.74 193.31 38.74 188.49 34.56 188.49 34.56 185.97 39.74 185.97 41.26 184.46 41.26 181.14 29.23 181.14 29.23 198.85 34.56 198.85 34.56 193.31"/><path class="cls-1" d="M43.34,181.14v14.19a3.59,3.59,0,0,0,3.82,3.81H54a3.59,3.59,0,0,0,3.82-3.81V181.14H52.49v13.18H48.67V181.14Z"/><polygon class="cls-1" points="64.3 198.85 69.62 198.85 69.62 185.97 72.65 185.97 74.16 184.46 74.16 181.14 59.76 181.14 59.76 185.97 64.3 185.97 64.3 198.85"/><path class="cls-1" d="M84.6,194.53H83v4.33h3.09A3.54,3.54,0,0,0,89.86,195v-1.73a3.25,3.25,0,0,0-1.52-3,3.47,3.47,0,0,0-1.51-.51v-.28a2.64,2.64,0,0,0,1.3-.51,3.15,3.15,0,0,0,1.22-2.81V185a3.53,3.53,0,0,0-3.74-3.82H83v4.32h1v2.23H83V192H84.6Zm-1.58,0H81.5V192H83v-4.33H81.5v-2.23H83v-4.32H76.18v17.72H83Z"/><path class="cls-1" d="M101.23,194.32H99.29v4.82h3.45a3.59,3.59,0,0,0,3.82-3.81V184.67a3.59,3.59,0,0,0-3.82-3.81H99.29v4.82h1.94Zm-1.94,0H97.42v-8.64h1.87v-4.82H95.9a3.59,3.59,0,0,0-3.81,3.81v10.66a3.59,3.59,0,0,0,3.81,3.81h3.39Z"/><polygon class="cls-1" points="121.25 194.03 114.41 194.03 114.41 181.14 109.08 181.14 109.08 198.85 121.25 198.85 121.25 194.03"/><path class="cls-1" d="M132.34,194.32h-1.88v4.82h3.46a3.53,3.53,0,0,0,3.74-3.81V184.67a3.53,3.53,0,0,0-3.74-3.81h-3.46v4.82h1.88Zm-1.88,0h-1.87v-8.64h1.87v-4.82h-3.38a3.59,3.59,0,0,0-3.82,3.81v10.66a3.59,3.59,0,0,0,3.82,3.81h3.38Z"/><polygon class="cls-1" points="157.61 185.97 159.12 184.46 159.12 181.14 147.1 181.14 147.1 198.85 152.35 198.85 152.35 193.31 156.53 193.31 156.53 188.49 152.35 188.49 152.35 185.97 157.61 185.97"/><polygon class="cls-1" points="171.79 185.97 173.3 184.46 173.3 181.14 161.14 181.14 161.14 198.85 173.3 198.85 173.3 194.03 166.46 194.03 166.46 192.3 170.78 192.3 170.78 187.69 166.46 187.69 166.46 185.97 171.79 185.97"/><path class="cls-1" d="M184.46,194h-1.72v4.83h3.31a3.54,3.54,0,0,0,3.74-3.82V185a3.53,3.53,0,0,0-3.74-3.82h-3.31V186h1.72Zm-1.72,0h-1.8V186h1.8v-4.83h-7.13v17.72h7.13Z"/><polygon class="cls-1" points="202.97 185.97 204.48 184.46 204.48 181.14 192.31 181.14 192.31 198.85 204.48 198.85 204.48 194.03 197.64 194.03 197.64 192.3 201.96 192.3 201.96 187.69 197.64 187.69 197.64 185.97 202.97 185.97"/><path class="cls-1" d="M215.71,188.2h-1.8v5.18l2.31,5.48h5.32v-2.52l-2.59-4a5.08,5.08,0,0,0,1.08-.65,3.28,3.28,0,0,0,1-2.37V185a3.59,3.59,0,0,0-3.82-3.82h-3.31V186h1.8Zm-1.8,0h-1.8V186h1.8v-4.83h-7v17.72h5.25V193h1.66l.14.36Z"/><path class="cls-1" d="M231.12,185.68h.14l1.16,6h-1.3v4.54h2.16l.5,2.67h5.33v-2.52l-4.53-15.2h-3.46Zm-.07,0h.07v-4.54h-3.38l-4.54,15.2v2.52h5.33l.5-2.67h2.09v-4.54H229.9Z"/><path class="cls-1" d="M252.14,186l1.52-1.51v-3.32H244.8A3.6,3.6,0,0,0,241,185V195a3.6,3.6,0,0,0,3.82,3.82h8.86V194h-7.35V186Z"/><rect class="cls-1" x="255.96" y="181.14" width="5.26" height="17.71"/><path class="cls-1" d="M263.23,194.32v4.82h6a3.59,3.59,0,0,0,3.82-3.81V181.14h-5.33v13.18Z"/><path class="cls-1" d="M283,185.68h.07l1.16,6H283v4.54h2.16l.51,2.67H291v-2.52l-4.6-15.2H283Zm-1.29,6,1.15-6H283v-4.54h-3.45L275,196.34v2.52h5.33l.5-2.67H283v-4.54Z"/><polygon class="cls-1" points="92.81 218.08 92.81 456.9 124.49 402.04 124.49 365.82 145.37 365.82 163.58 334.14 124.49 334.14 124.49 249.76 180.22 249.76 180.22 456.9 211.9 402.04 211.9 365.82 232.85 365.82 251.14 334.14 211.9 334.14 211.9 249.76 270.72 249.76 289.01 218.08 92.81 218.08"/><path class="cls-1" d="M193.32,489l-20.88,36.07A130.2,130.2,0,0,0,290.3,395.63V270.57l-31,53.56v71.5A99.26,99.26,0,0,1,193.32,489Z"/><path class="cls-1" d="M141.48,524.29l17.14-29.66a99.07,99.07,0,0,1-97.35-99V218.08h-31V395.63A130.11,130.11,0,0,0,141.48,524.29Z"/><path class="cls-4" d="M12.17,40.17h94.32l-.36,1.22a66.17,66.17,0,0,0-1.66,8.86,30.22,30.22,0,0,1-1.73,7.7H12.17Z"/><path class="cls-5" d="M102.74,58a32.84,32.84,0,0,1-12.31,16,105.77,105.77,0,0,1-10.08,6H12.17V58Z"/><path class="cls-6" d="M80.35,79.91c-3.81,2-8,3.89-12.53,5.76-20.73,8.57-41.76,12.82-54.57,14l-1.08.07V79.91Z"/><path class="cls-4" d="M308.45,40.17H214.13l.36,1.22a55.5,55.5,0,0,1,1.65,8.86,34.59,34.59,0,0,0,1.73,7.7h90.58Z"/><path class="cls-5" d="M217.87,58a33.37,33.37,0,0,0,12.31,16c3,2,6.41,4,10.08,6h68.19V58Z"/><path class="cls-6" d="M240.26,79.91c3.82,2,8,3.89,12.53,5.76,20.81,8.57,41.83,12.82,54.58,14l1.08.07V79.91Z"/><polygon class="cls-2" points="177.19 65.22 174.46 64.36 163.8 72.14 163.73 75.09 169.85 77.03 177.19 71.7 177.19 65.22"/><polygon class="cls-2" points="160.34 66.09 169.78 59.25 166.18 48.16 154.58 48.16 150.98 59.25 160.34 66.09"/><path class="cls-2" d="M187,60l-2.88,3.89v4.89l1.8-.58a27.66,27.66,0,0,0,2.16-6.69Z"/><polygon class="cls-2" points="156.89 75.02 156.96 72.06 146.3 64.36 143.35 65.3 143.35 71.7 150.77 77.03 156.89 75.02"/><polygon class="cls-2" points="141.26 58.74 144.22 57.81 148.25 45.28 146.45 42.83 140.26 44.77 137.45 53.49 141.26 58.74"/><polygon class="cls-2" points="180.29 44.77 174.24 42.83 172.51 45.28 176.62 57.81 179.35 58.67 183.1 53.49 180.29 44.77"/><path class="cls-2" d="M136.44,68.75V63.86L133.63,60l-1.15,1.51a27.66,27.66,0,0,0,2.16,6.69Z"/><path class="cls-2" d="M160.27,81.21l-4.61,1.51,1.08,1.51a28.75,28.75,0,0,0,7.06,0l1.08-1.51Z"/><path class="cls-2" d="M179.64,37.36V35.42A28.27,28.27,0,0,0,174,31.31l-1.8.58,2.81,4Z"/><path class="cls-2" d="M141,37.36l4.6-1.51,2.81-4-1.8-.58a28.55,28.55,0,0,0-5.69,4.11Z"/><polygon class="cls-2" points="153.86 41.25 166.9 41.25 168.62 38.8 164.81 33.54 155.74 33.54 151.99 38.73 153.86 41.25"/></svg>