<svg xmlns="http://www.w3.org/2000/svg" xmlns:xlink="http://www.w3.org/1999/xlink" width="1080" zoomAndPan="magnify" viewBox="0 0 810 809.999993" height="1080" preserveAspectRatio="xMidYMid meet" version="1.0"><path fill="#ed1c24" d="M 405 809.925781 C 628.046875 809.925781 810 627.992188 810 404.945312 C 810 181.898438 628.0625 0.0742188 405 0.0742188 C 181.9375 0.0742188 0 182.007812 0 404.945312 C 0 627.878906 181.9375 809.925781 405 809.925781 Z M 405 809.925781 " fill-opacity="1" fill-rule="nonzero"/><path fill="#ffffff" d="M 405 796.664062 C 620.695312 796.664062 796.738281 620.769531 796.738281 404.945312 C 796.738281 189.117188 620.695312 13.335938 405 13.335938 C 189.304688 13.335938 13.261719 189.304688 13.261719 404.945312 C 13.261719 620.585938 189.230469 796.664062 405 796.664062 Z M 405 796.664062 " fill-opacity="1" fill-rule="nonzero"/><path fill="#231f20" d="M 307.585938 772.796875 L 307.585938 661.144531 L 365.601562 661.144531 L 365.601562 674.40625 L 318.929688 674.40625 L 318.929688 708.882812 L 359.453125 708.882812 L 359.453125 722.070312 L 318.929688 722.070312 L 318.929688 772.851562 Z M 380.117188 772.796875 L 380.117188 661.144531 L 391.519531 661.144531 L 391.519531 759.535156 L 434.101562 759.535156 L 434.101562 772.796875 Z M 448.265625 772.796875 L 448.265625 661.144531 L 506.503906 661.144531 L 506.503906 674.40625 L 459.628906 674.40625 L 459.628906 708.882812 L 500.148438 708.882812 L 500.148438 722.070312 L 459.628906 722.070312 L 459.628906 772.851562 Z M 448.265625 772.796875 " fill-opacity="1" fill-rule="nonzero"/><path fill="#231f20" d="M 569.566406 673.742188 L 595.167969 719.75 L 589.054688 723.214844 L 566.511719 682.488281 L 543.707031 695.089844 L 540.796875 689.65625 Z M 569.566406 673.742188 " fill-opacity="1" fill-rule="nonzero"/><path fill="#231f20" d="M 599.9375 652.78125 L 630.164062 696.027344 L 624.472656 700.003906 L 597.820312 661.933594 L 576.457031 676.800781 L 573.011719 671.753906 Z M 599.9375 652.78125 " fill-opacity="1" fill-rule="nonzero"/><path fill="#231f20" d="M 640.109375 625.210938 L 658.527344 671.089844 L 653.09375 676.136719 L 640.089844 670.167969 L 640.089844 663.132812 L 641.933594 664.054688 C 646.1875 666.191406 649.632812 667.902344 652.15625 669.578125 C 650.300781 666.640625 648.707031 663.574219 647.367188 660.371094 L 641.011719 645.121094 L 640.074219 645.910156 Z M 637.457031 618.707031 L 640.109375 625.210938 L 640.109375 645.765625 L 627.917969 657.164062 L 640.109375 663.132812 L 640.109375 670.167969 L 601.265625 652.394531 L 607.105469 646.960938 L 622.484375 654.328125 L 638.65625 639.335938 L 632.023438 623.699219 Z M 637.457031 618.707031 " fill-opacity="1" fill-rule="nonzero"/><path fill="#231f20" d="M 682.289062 603.585938 L 703.578125 620.769531 L 691.109375 636.148438 C 689.070312 638.789062 686.613281 640.957031 683.742188 642.652344 C 683.207031 642.925781 682.691406 643.054688 682.289062 643.3125 L 682.289062 635.945312 C 684.253906 634.292969 686.019531 632.453125 687.59375 630.421875 L 694.222656 622.1875 L 682.289062 612.519531 Z M 673.667969 596.570312 L 682.289062 603.585938 L 682.289062 612.609375 L 681.882812 612.207031 L 674.734375 621.101562 C 674.332031 621.617188 673.925781 622.023438 673.667969 622.429688 L 673.667969 612.480469 L 676.984375 608.355469 L 673.667969 605.574219 Z M 682.289062 643.371094 C 680.308594 644.066406 678.273438 644.289062 676.191406 644.03125 C 675.335938 643.925781 674.492188 643.746094 673.667969 643.5 L 673.667969 635.6875 C 674.835938 636.609375 676.164062 637.140625 677.644531 637.273438 C 678.417969 637.390625 679.183594 637.359375 679.945312 637.171875 C 680.703125 636.988281 681.398438 636.664062 682.03125 636.203125 C 682.101562 636.132812 682.1875 636.089844 682.289062 636.074219 Z M 663.722656 588.613281 L 673.667969 596.570312 L 673.667969 605.574219 L 663.722656 597.617188 Z M 673.667969 643.5 C 672.167969 642.988281 670.796875 642.238281 669.558594 641.25 C 667.769531 639.800781 666.484375 637.988281 665.710938 635.816406 C 664.929688 633.386719 664.84375 630.929688 665.453125 628.449219 C 664.917969 628.835938 664.257812 629.113281 663.722656 629.5 L 663.722656 623.347656 C 663.722656 623.261719 663.765625 623.21875 663.851562 623.21875 C 666.003906 621.75 667.816406 619.9375 669.285156 617.785156 L 673.667969 612.480469 L 673.667969 622.429688 C 672.59375 623.71875 671.707031 625.132812 671.015625 626.664062 C 670.25 628.1875 670.070312 629.777344 670.480469 631.433594 C 670.984375 633.058594 671.910156 634.382812 673.261719 635.414062 C 673.410156 635.542969 673.539062 635.542969 673.667969 635.6875 Z M 662.523438 587.617188 L 663.722656 588.6875 L 663.722656 597.691406 L 662.929688 597.027344 L 654.695312 607.25 C 653.675781 608.414062 652.777344 609.667969 652.007812 611.007812 C 651.273438 612.242188 650.789062 613.570312 650.550781 614.988281 C 650.378906 616.378906 650.601562 617.703125 651.214844 618.964844 C 651.8125 620.441406 652.738281 621.671875 653.996094 622.648438 C 655.425781 623.832031 657.066406 624.496094 658.914062 624.636719 C 660.675781 624.761719 662.308594 624.363281 663.8125 623.441406 L 663.8125 629.667969 C 661.746094 630.792969 659.535156 631.324219 657.183594 631.269531 C 655.746094 631.210938 654.355469 630.917969 653.011719 630.394531 C 651.671875 629.871094 650.453125 629.144531 649.355469 628.210938 C 647.457031 626.71875 646 624.878906 644.992188 622.6875 C 644.035156 620.765625 643.589844 618.734375 643.664062 616.589844 C 643.804688 614.449219 644.332031 612.414062 645.25 610.472656 C 646.546875 607.929688 648.09375 605.546875 649.890625 603.328125 Z M 662.523438 587.617188 " fill-opacity="1" fill-rule="nonzero"/><path fill="#231f20" d="M 676.449219 564.59375 L 716.765625 587.800781 L 725.515625 572.828125 L 730.820312 575.867188 L 710.007812 612.078125 L 704.574219 609.019531 L 713.324219 593.917969 L 673.003906 570.5625 Z M 676.449219 564.59375 " fill-opacity="1" fill-rule="nonzero"/><path fill="#231f20" d="M 729.621094 511.550781 C 737.726562 514.863281 743.160156 519.652344 746.070312 525.878906 C 746.757812 527.425781 747.277344 529.023438 747.628906 530.679688 C 747.980469 532.332031 748.15625 534.003906 748.15625 535.695312 C 748.15625 537.386719 747.980469 539.058594 747.628906 540.714844 C 747.277344 542.367188 746.757812 543.96875 746.070312 545.511719 C 745.253906 547.664062 744.15625 549.664062 742.785156 551.507812 C 741.410156 553.355469 739.808594 554.980469 737.984375 556.378906 C 736.1875 557.765625 734.226562 558.851562 732.101562 559.644531 C 729.976562 560.4375 727.78125 560.894531 725.515625 561.019531 C 723.925781 561.152344 722.335938 561.152344 720.746094 561.019531 L 720.746094 553.855469 C 722.242188 554.082031 723.746094 554.175781 725.257812 554.132812 C 726.910156 554.082031 728.515625 553.796875 730.085938 553.277344 C 731.652344 552.753906 733.113281 552.023438 734.464844 551.074219 C 737.210938 549.042969 739.199219 546.433594 740.433594 543.246094 C 741.351562 541.070312 741.824219 538.800781 741.84375 536.4375 C 741.867188 534.074219 741.441406 531.792969 740.5625 529.601562 C 738.722656 524.957031 734.0625 521.238281 726.769531 518.179688 C 724.785156 517.4375 722.75 516.867188 720.671875 516.46875 L 720.671875 509.433594 C 723.746094 509.746094 726.730469 510.453125 729.621094 511.550781 Z M 720.746094 561.019531 C 717.515625 560.582031 714.378906 559.78125 711.332031 558.628906 C 706.628906 556.777344 702.605469 553.953125 699.269531 550.15625 C 697.738281 548.480469 696.5 546.609375 695.558594 544.546875 C 694.613281 542.484375 694.007812 540.324219 693.742188 538.070312 C 693.210938 533.582031 693.824219 529.253906 695.585938 525.085938 C 696.410156 522.878906 697.535156 520.832031 698.960938 518.953125 C 700.382812 517.070312 702.046875 515.433594 703.949219 514.035156 C 705.734375 512.679688 707.671875 511.609375 709.769531 510.820312 C 711.867188 510.027344 714.035156 509.554688 716.269531 509.394531 C 717.773438 509.265625 719.277344 509.265625 720.78125 509.394531 L 720.78125 516.429688 C 717.425781 515.84375 714.152344 516.152344 710.964844 517.351562 C 709.835938 517.761719 708.765625 518.285156 707.753906 518.929688 C 706.742188 519.574219 705.8125 520.320312 704.964844 521.167969 C 704.117188 522.015625 703.371094 522.945312 702.726562 523.957031 C 702.082031 524.972656 701.554688 526.039062 701.148438 527.167969 C 700.660156 528.28125 700.300781 529.429688 700.0625 530.621094 C 699.828125 531.8125 699.71875 533.011719 699.742188 534.226562 C 699.765625 535.4375 699.921875 536.636719 700.203125 537.816406 C 700.488281 538.996094 700.894531 540.128906 701.425781 541.222656 C 703.542969 545.863281 707.777344 549.308594 714.023438 551.832031 C 716.191406 552.773438 718.445312 553.4375 720.78125 553.820312 Z M 720.746094 561.019531 " fill-opacity="1" fill-rule="nonzero"/><path fill="#231f20" d="M 743.417969 456 C 751.910156 458.117188 758.003906 462.097656 761.726562 467.789062 C 762.640625 469.21875 763.394531 470.730469 763.984375 472.324219 C 764.574219 473.917969 764.992188 475.554688 765.230469 477.238281 C 765.472656 478.921875 765.53125 480.609375 765.40625 482.304688 C 765.285156 484 764.984375 485.664062 764.507812 487.292969 C 763.992188 489.542969 763.183594 491.683594 762.082031 493.710938 C 760.976562 495.738281 759.617188 497.578125 758.003906 499.226562 C 756.390625 500.804688 754.59375 502.128906 752.613281 503.207031 C 750.632812 504.289062 748.542969 505.078125 746.347656 505.582031 C 743.582031 506.101562 740.792969 506.277344 737.984375 506.117188 L 737.984375 498.953125 C 740.34375 499.214844 742.6875 499.128906 745.019531 498.695312 C 746.703125 498.472656 748.300781 497.988281 749.824219 497.238281 C 751.34375 496.488281 752.703125 495.511719 753.898438 494.308594 C 755.105469 493.175781 756.117188 491.882812 756.933594 490.4375 C 757.746094 488.996094 758.324219 487.460938 758.667969 485.835938 C 759.273438 483.550781 759.414062 481.230469 759.09375 478.886719 C 758.777344 476.539062 758.019531 474.34375 756.828125 472.300781 C 754.449219 468.0625 749.460938 464.933594 741.574219 463.089844 C 740.410156 462.742188 739.21875 462.523438 738.003906 462.429688 L 738.003906 455.191406 C 739.828125 455.324219 741.632812 455.59375 743.417969 456 Z M 737.984375 506.117188 C 735.921875 505.945312 733.890625 505.59375 731.886719 505.066406 C 726.976562 503.972656 722.601562 501.808594 718.753906 498.566406 C 717.03125 497.082031 715.558594 495.378906 714.339844 493.460938 C 713.117188 491.539062 712.203125 489.484375 711.589844 487.292969 C 710.527344 482.871094 710.527344 478.453125 711.589844 474.03125 C 712.140625 471.761719 712.976562 469.605469 714.101562 467.558594 C 715.226562 465.511719 716.601562 463.648438 718.222656 461.96875 C 719.867188 460.410156 721.695312 459.101562 723.699219 458.039062 C 725.703125 456.980469 727.8125 456.207031 730.027344 455.722656 C 732.65625 455.214844 735.308594 455.035156 737.984375 455.191406 L 737.984375 462.371094 C 735.898438 462.003906 733.808594 461.992188 731.71875 462.332031 C 729.628906 462.675781 727.652344 463.351562 725.792969 464.363281 C 724.726562 464.925781 723.738281 465.601562 722.824219 466.382812 C 721.910156 467.164062 721.089844 468.039062 720.367188 469 C 719.644531 469.964844 719.035156 470.996094 718.539062 472.089844 C 718.042969 473.1875 717.675781 474.328125 717.429688 475.503906 C 717.101562 476.675781 716.898438 477.863281 716.824219 479.078125 C 716.75 480.289062 716.804688 481.496094 716.984375 482.695312 C 717.167969 483.894531 717.476562 485.0625 717.90625 486.199219 C 718.339844 487.335938 718.886719 488.410156 719.546875 489.429688 C 722.328125 493.535156 727.117188 496.59375 733.601562 498.179688 C 735.042969 498.550781 736.503906 498.816406 737.984375 498.96875 Z M 737.984375 506.117188 " fill-opacity="1" fill-rule="nonzero"/><path fill="#231f20" d="M 720.617188 411.171875 L 773.125 415.683594 L 770.070312 451.210938 L 763.84375 450.695312 L 766.367188 422.183594 L 750.046875 420.710938 L 747.929688 445.390625 L 741.703125 444.855469 L 743.824219 420.195312 L 719.953125 418.058594 Z M 720.617188 411.171875 " fill-opacity="1" fill-rule="nonzero"/><path fill="#231f20" d="M 708.9375 321.785156 L 760.398438 309.851562 L 768.890625 346.980469 L 762.921875 348.308594 L 755.886719 318.085938 L 740.101562 321.785156 L 746.734375 350.039062 L 740.636719 351.367188 L 734.136719 323.113281 L 716.636719 327.21875 L 723.929688 358.53125 L 717.835938 359.984375 Z M 708.9375 321.785156 " fill-opacity="1" fill-rule="nonzero"/><path fill="#231f20" d="M 723.140625 264.101562 L 742.21875 256.734375 L 748.722656 273.714844 C 749.90625 276.660156 750.820312 279.6875 751.464844 282.792969 C 751.886719 285.730469 751.625 288.605469 750.675781 291.414062 C 749.429688 294.996094 747.355469 298.003906 744.449219 300.4375 C 741.21875 303.273438 737.589844 305.441406 733.5625 306.941406 C 730.222656 308.183594 726.78125 308.976562 723.230469 309.316406 L 723.230469 302.300781 C 725.902344 301.84375 728.503906 301.136719 731.039062 300.179688 C 733.148438 299.507812 735.125 298.558594 736.972656 297.34375 C 738.820312 296.128906 740.472656 294.683594 741.925781 293.015625 C 742.894531 291.855469 743.652344 290.570312 744.199219 289.164062 C 744.742188 287.753906 745.046875 286.292969 745.113281 284.785156 C 744.917969 281.699219 744.207031 278.742188 742.976562 275.90625 L 738.996094 265.554688 L 723.230469 271.523438 Z M 692.894531 275.777344 L 723.140625 264.101562 L 723.140625 271.46875 L 701.257812 280.03125 L 705.238281 290.511719 C 706.140625 293.160156 707.417969 295.617188 709.066406 297.878906 C 710.230469 299.34375 711.648438 300.488281 713.320312 301.324219 C 715.789062 302.3125 718.351562 302.714844 721.003906 302.519531 C 721.71875 302.542969 722.429688 302.5 723.140625 302.390625 L 723.140625 309.410156 L 722.992188 309.410156 C 720.136719 309.734375 717.3125 309.5625 714.519531 308.894531 C 712.308594 308.335938 710.269531 307.402344 708.40625 306.09375 C 706.542969 304.722656 704.953125 303.089844 703.632812 301.195312 C 702.035156 298.839844 700.753906 296.320312 699.785156 293.644531 Z M 692.894531 275.777344 " fill-opacity="1" fill-rule="nonzero"/><path fill="#231f20" d="M 644.234375 199.914062 L 685.730469 167.421875 L 709.214844 197.40625 L 704.296875 201.238281 L 685.070312 176.707031 L 672.339844 186.652344 L 690.375 209.601562 L 685.472656 213.449219 L 667.570312 190.5 L 653.371094 201.515625 L 673.261719 227.097656 L 668.363281 230.816406 Z M 644.234375 199.914062 " fill-opacity="1" fill-rule="nonzero"/><path fill="#231f20" d="M 622.871094 153.644531 L 628.046875 157.882812 C 626.566406 159.6875 625.554688 161.726562 625.007812 163.996094 C 624.714844 166.308594 625.066406 168.519531 626.054688 170.628906 C 627.070312 173.246094 628.617188 175.5 630.699219 177.386719 C 632.46875 179.074219 634.457031 180.453125 636.664062 181.511719 C 638.4375 182.273438 640.277344 182.535156 642.191406 182.304688 C 643.820312 182.023438 645.191406 181.269531 646.296875 180.039062 C 646.886719 179.503906 647.351562 178.882812 647.703125 178.167969 C 648.054688 177.457031 648.261719 176.703125 648.324219 175.914062 C 648.453125 173.957031 648.054688 172.117188 647.128906 170.386719 C 645.632812 167.445312 643.949219 164.617188 642.082031 161.898438 C 640.082031 158.929688 638.40625 155.792969 637.050781 152.484375 C 636.226562 150.078125 636.046875 147.621094 636.519531 145.117188 C 636.933594 142.785156 637.996094 140.792969 639.703125 139.148438 C 641.578125 137.191406 643.835938 135.921875 646.480469 135.335938 C 649.386719 134.808594 652.21875 135.070312 654.972656 136.128906 C 658.023438 137.46875 660.761719 139.277344 663.1875 141.5625 C 665.765625 144.050781 667.800781 146.921875 669.285156 150.183594 C 669.917969 151.550781 670.324219 152.984375 670.507812 154.484375 C 670.6875 155.980469 670.636719 157.46875 670.351562 158.949219 C 669.746094 161.886719 668.464844 164.488281 666.503906 166.757812 L 661.328125 162.394531 C 662.265625 161.289062 662.960938 160.046875 663.421875 158.671875 C 663.878906 157.296875 664.066406 155.882812 663.980469 154.4375 C 663.640625 152.832031 663.050781 151.324219 662.210938 149.914062 C 661.375 148.503906 660.328125 147.269531 659.082031 146.203125 C 657.992188 145 656.75 143.992188 655.347656 143.175781 C 653.945312 142.363281 652.449219 141.78125 650.867188 141.433594 C 649.773438 141.3125 648.707031 141.421875 647.664062 141.769531 C 646.621094 142.117188 645.699219 142.667969 644.898438 143.421875 C 644.253906 144.074219 643.773438 144.828125 643.449219 145.683594 C 643.128906 146.542969 643 147.425781 643.054688 148.339844 C 643.183594 150.054688 644.898438 153.371094 648.085938 158.285156 C 650.410156 161.65625 652.449219 165.195312 654.199219 168.894531 C 655.378906 171.617188 655.730469 174.441406 655.25 177.367188 C 655.054688 178.6875 654.648438 179.9375 654.039062 181.121094 C 653.425781 182.300781 652.640625 183.355469 651.675781 184.273438 C 650.691406 185.324219 649.570312 186.199219 648.3125 186.902344 C 647.054688 187.601562 645.71875 188.097656 644.308594 188.382812 C 641.238281 189.027344 638.230469 188.804688 635.285156 187.71875 C 631.96875 186.507812 629.054688 184.664062 626.535156 182.195312 C 623.519531 179.378906 621.132812 176.105469 619.371094 172.375 C 618.707031 170.832031 618.285156 169.21875 618.109375 167.546875 C 617.929688 165.875 618 164.210938 618.320312 162.558594 C 619 159.160156 620.515625 156.1875 622.871094 153.644531 Z M 622.871094 153.644531 " fill-opacity="1" fill-rule="nonzero"/><path fill="#231f20" d="M 600.601562 158.285156 L 633.753906 117.304688 L 639.1875 121.671875 L 605.90625 162.78125 Z M 600.601562 158.285156 " fill-opacity="1" fill-rule="nonzero"/><path fill="#231f20" d="M 589.203125 90.914062 C 591.859375 90.820312 594.464844 91.144531 597.015625 91.894531 C 599.566406 92.644531 601.9375 93.777344 604.121094 95.296875 C 606.082031 96.527344 607.84375 98 609.40625 99.710938 C 610.972656 101.417969 612.277344 103.304688 613.328125 105.371094 C 614.308594 107.371094 614.976562 109.464844 615.335938 111.660156 C 615.695312 113.855469 615.734375 116.058594 615.449219 118.265625 C 614.828125 123.199219 613.101562 127.710938 610.273438 131.800781 C 607.628906 136.097656 604.140625 139.542969 599.808594 142.132812 C 596.515625 143.996094 592.980469 145.015625 589.203125 145.191406 L 589.203125 138.78125 L 591.449219 138.394531 C 596.347656 137.070312 600.65625 133.605469 604.339844 127.914062 C 606.582031 124.699219 608.042969 121.164062 608.726562 117.304688 C 608.855469 116.488281 608.925781 115.664062 608.9375 114.839844 C 608.945312 114.011719 608.894531 113.1875 608.785156 112.367188 C 608.671875 111.546875 608.5 110.738281 608.265625 109.941406 C 608.035156 109.148438 607.746094 108.375 607.398438 107.621094 C 607.050781 106.871094 606.652344 106.148438 606.199219 105.457031 C 605.746094 104.761719 605.242188 104.105469 604.691406 103.488281 C 604.140625 102.871094 603.546875 102.296875 602.910156 101.765625 C 602.277344 101.234375 601.605469 100.753906 600.898438 100.324219 C 599.199219 99.140625 597.34375 98.296875 595.335938 97.796875 C 593.328125 97.292969 591.292969 97.167969 589.238281 97.414062 Z M 567.707031 105.058594 C 572.476562 97.691406 578.1875 93.25 584.816406 91.667969 C 586.25 91.246094 587.710938 91.027344 589.203125 91.003906 L 589.203125 97.507812 C 588.667969 97.507812 588.003906 97.636719 587.46875 97.636719 C 582.570312 98.554688 578.058594 102.40625 573.675781 109.035156 C 570.230469 114.339844 568.90625 119.515625 569.824219 124.414062 C 570.023438 125.613281 570.34375 126.773438 570.789062 127.902344 C 571.234375 129.03125 571.796875 130.097656 572.472656 131.105469 C 573.144531 132.113281 573.921875 133.035156 574.792969 133.875 C 575.667969 134.71875 576.621094 135.457031 577.652344 136.09375 C 579.34375 137.25 581.183594 138.066406 583.171875 138.542969 C 585.160156 139.023438 587.171875 139.132812 589.203125 138.875 L 589.203125 145.375 C 588.441406 145.398438 587.6875 145.355469 586.9375 145.246094 C 584.6875 145.105469 582.492188 144.671875 580.355469 143.949219 C 578.21875 143.230469 576.214844 142.242188 574.335938 140.992188 C 572.355469 139.753906 570.585938 138.269531 569.019531 136.535156 C 567.453125 134.800781 566.15625 132.886719 565.128906 130.789062 C 564.148438 128.75 563.476562 126.609375 563.117188 124.375 C 562.753906 122.140625 562.71875 119.902344 563.011719 117.65625 C 563.578125 113.085938 565.144531 108.886719 567.707031 105.058594 Z M 567.707031 105.058594 " fill-opacity="1" fill-rule="nonzero"/><path fill="#231f20" d="M 514.535156 108.558594 L 536.820312 60.816406 L 571.425781 76.859375 L 568.777344 82.550781 L 540.523438 69.4375 L 533.761719 84.023438 L 560.15625 96.347656 L 557.503906 101.925781 L 531.109375 89.585938 L 523.558594 105.90625 L 552.863281 119.554688 L 550.210938 125.261719 Z M 514.535156 108.558594 " fill-opacity="1" fill-rule="nonzero"/><path fill="#231f20" d="M 508.4375 78.71875 L 515.601562 80.839844 L 510.1875 99.53125 C 506.378906 101.222656 502.402344 102.242188 498.25 102.589844 C 494.425781 102.972656 490.667969 102.617188 486.980469 101.523438 C 482.140625 100.195312 477.898438 97.808594 474.253906 94.355469 C 472.5625 92.789062 471.164062 90.996094 470.050781 88.976562 C 468.9375 86.957031 468.171875 84.816406 467.75 82.550781 C 466.84375 77.6875 467.066406 72.871094 468.414062 68.109375 C 469.800781 63.257812 472.191406 58.960938 475.578125 55.21875 C 477.0625 53.441406 478.789062 51.949219 480.769531 50.746094 C 482.746094 49.546875 484.867188 48.695312 487.128906 48.199219 C 491.953125 47.210938 496.722656 47.429688 501.4375 48.863281 C 504.855469 49.8125 507.980469 51.355469 510.8125 53.488281 C 513.28125 55.332031 515.121094 57.671875 516.339844 60.503906 C 517.5 63.535156 517.984375 66.675781 517.792969 69.914062 L 511.292969 69.785156 C 511.339844 67.429688 510.992188 65.132812 510.242188 62.898438 C 509.382812 60.976562 508.136719 59.347656 506.503906 58.019531 C 504.519531 56.457031 502.308594 55.351562 499.871094 54.703125 C 497.148438 53.835938 494.359375 53.527344 491.511719 53.78125 C 489.191406 54.027344 487.027344 54.730469 485.007812 55.898438 C 483.25 57.03125 481.703125 58.398438 480.367188 60.007812 C 478.125 62.929688 476.492188 66.15625 475.46875 69.695312 C 474.230469 73.609375 473.964844 77.585938 474.675781 81.628906 C 474.949219 83.304688 475.488281 84.886719 476.296875 86.375 C 477.105469 87.867188 478.136719 89.183594 479.390625 90.324219 C 480.601562 91.398438 481.910156 92.335938 483.316406 93.136719 C 484.722656 93.941406 486.195312 94.585938 487.738281 95.078125 C 489.277344 95.570312 490.855469 95.894531 492.464844 96.058594 C 494.074219 96.21875 495.683594 96.210938 497.292969 96.03125 C 499.84375 95.847656 502.296875 95.273438 504.660156 94.300781 Z M 508.4375 78.71875 " fill-opacity="1" fill-rule="nonzero"/><path fill="#231f20" d="M 437.875 38.753906 L 442.003906 39.15625 C 445.640625 39.296875 449.128906 40.097656 452.464844 41.550781 C 453.6875 42.085938 454.777344 42.820312 455.730469 43.757812 C 456.683594 44.691406 457.4375 45.769531 457.988281 46.984375 C 459.207031 49.546875 459.691406 52.242188 459.445312 55.070312 C 459.378906 56.839844 458.964844 58.527344 458.203125 60.128906 C 457.441406 61.726562 456.394531 63.113281 455.0625 64.28125 C 453.410156 65.597656 451.582031 66.585938 449.578125 67.25 C 447.570312 67.910156 445.511719 68.203125 443.402344 68.128906 C 444.890625 68.929688 446.21875 69.941406 447.378906 71.167969 C 449.398438 73.414062 451.121094 75.871094 452.539062 78.535156 L 460.457031 93.695312 L 451.707031 93.03125 L 445.613281 81.371094 C 444.289062 78.746094 442.8125 76.203125 441.191406 73.746094 C 440.320312 72.3125 439.265625 71.027344 438.023438 69.898438 C 438.023438 69.796875 437.976562 69.753906 437.875 69.769531 L 437.875 62.144531 L 438.539062 62.273438 C 441.085938 62.578125 443.609375 62.441406 446.109375 61.867188 C 446.996094 61.695312 447.816406 61.359375 448.570312 60.867188 C 449.328125 60.371094 449.960938 59.753906 450.476562 59.011719 C 451.519531 57.6875 452.09375 56.183594 452.207031 54.5 C 452.347656 53.335938 452.230469 52.195312 451.859375 51.085938 C 451.488281 49.972656 450.898438 48.992188 450.089844 48.144531 C 448.355469 46.304688 445.574219 45.347656 441.726562 44.960938 L 437.875 44.554688 Z M 413.933594 89.679688 L 418.574219 37.167969 L 437.804688 38.753906 L 437.804688 44.589844 L 425.074219 43.539062 L 423.621094 60.945312 L 437.933594 62.144531 L 437.933594 69.824219 C 437.035156 69.15625 436.066406 68.628906 435.023438 68.238281 C 433.757812 67.910156 432.476562 67.730469 431.171875 67.707031 L 423.085938 66.914062 L 421.042969 90.324219 Z M 413.933594 89.679688 " fill-opacity="1" fill-rule="nonzero"/><path fill="#231f20" d="M 394.648438 36.800781 L 401.554688 36.136719 L 404.335938 66.507812 C 404.8125 70.808594 404.546875 75.0625 403.546875 79.273438 C 403.074219 80.9375 402.335938 82.480469 401.335938 83.890625 C 400.332031 85.304688 399.125 86.507812 397.707031 87.503906 C 395.953125 88.734375 394.058594 89.683594 392.027344 90.363281 C 389.996094 91.039062 387.910156 91.414062 385.769531 91.484375 C 381.546875 91.957031 377.433594 91.46875 373.429688 90.027344 C 371.84375 89.363281 370.417969 88.449219 369.152344 87.285156 C 367.886719 86.121094 366.859375 84.777344 366.0625 83.25 C 364.160156 79.160156 363.097656 74.863281 362.878906 70.359375 L 360.296875 39.855469 L 367.207031 39.195312 L 369.859375 69.566406 C 370.015625 73.015625 370.761719 76.332031 372.105469 79.511719 C 372.601562 80.542969 373.257812 81.457031 374.078125 82.257812 C 374.898438 83.054688 375.832031 83.6875 376.875 84.152344 C 379.351562 85.15625 381.917969 85.503906 384.574219 85.203125 C 389.75 84.816406 393.195312 83.359375 395.183594 80.839844 C 397.171875 78.316406 397.835938 73.746094 397.300781 67.171875 Z M 394.648438 36.800781 " fill-opacity="1" fill-rule="nonzero"/><path fill="#231f20" d="M 329.007812 44.757812 C 331.402344 44.777344 333.746094 45.132812 336.042969 45.824219 C 338.207031 46.476562 340.234375 47.429688 342.117188 48.683594 C 344 49.941406 345.65625 51.441406 347.09375 53.191406 C 350.230469 57.019531 352.3125 61.351562 353.335938 66.195312 C 354.675781 71.074219 354.804688 75.988281 353.722656 80.929688 C 353.199219 83.078125 352.382812 85.109375 351.269531 87.023438 C 350.15625 88.933594 348.796875 90.648438 347.183594 92.164062 C 345.550781 93.71875 343.742188 95.039062 341.765625 96.117188 C 339.785156 97.199219 337.699219 98.003906 335.507812 98.539062 C 333.371094 99.050781 331.203125 99.3125 329.007812 99.328125 L 329.007812 93.308594 C 330.714844 93.378906 332.398438 93.199219 334.050781 92.773438 C 335.242188 92.511719 336.390625 92.128906 337.5 91.621094 C 338.605469 91.113281 339.644531 90.492188 340.617188 89.761719 C 341.589844 89.027344 342.472656 88.199219 343.269531 87.277344 C 344.0625 86.351562 344.746094 85.355469 345.324219 84.28125 C 347.699219 79.898438 348.105469 74.335938 346.523438 67.707031 C 345.632812 63.898438 343.996094 60.449219 341.605469 57.355469 C 340.605469 56.011719 339.429688 54.855469 338.070312 53.878906 C 336.710938 52.90625 335.238281 52.160156 333.648438 51.644531 C 332.132812 51.179688 330.585938 50.917969 329.007812 50.851562 Z M 304.601562 78.847656 C 302.484375 70.359375 303.148438 63.191406 306.445312 57.226562 C 307.292969 55.757812 308.28125 54.390625 309.410156 53.128906 C 310.542969 51.867188 311.792969 50.734375 313.160156 49.730469 C 314.523438 48.726562 315.980469 47.875 317.523438 47.171875 C 319.066406 46.472656 320.664062 45.9375 322.320312 45.566406 C 324.5 45.035156 326.707031 44.761719 328.949219 44.757812 L 328.949219 50.871094 C 327.207031 50.851562 325.480469 51.023438 323.773438 51.386719 C 321.464844 51.941406 319.347656 52.917969 317.433594 54.324219 C 315.515625 55.730469 313.945312 57.453125 312.722656 59.492188 C 310.070312 63.597656 309.796875 69.566406 311.65625 77.246094 C 313.238281 83.359375 316.039062 87.855469 320.277344 90.507812 C 321.558594 91.402344 322.949219 92.089844 324.4375 92.566406 C 325.929688 93.046875 327.457031 93.292969 329.023438 93.308594 L 329.023438 99.402344 C 326.519531 99.390625 324.0625 99.035156 321.65625 98.335938 C 319.527344 97.664062 317.535156 96.699219 315.6875 95.445312 C 313.835938 94.191406 312.203125 92.699219 310.789062 90.96875 C 307.785156 87.410156 305.722656 83.371094 304.601562 78.847656 Z M 304.601562 78.847656 " fill-opacity="1" fill-rule="nonzero"/><path fill="#231f20" d="M 271.984375 62.144531 C 274.046875 61.433594 276.171875 61.074219 278.355469 61.074219 C 279.648438 61.097656 280.90625 61.324219 282.125 61.757812 C 283.34375 62.1875 284.464844 62.800781 285.484375 63.597656 C 286.484375 64.230469 287.371094 65 288.140625 65.898438 C 288.914062 66.800781 289.535156 67.792969 290.007812 68.878906 C 290.480469 69.96875 290.785156 71.097656 290.917969 72.277344 C 291.050781 73.453125 291.007812 74.625 290.789062 75.792969 C 290.246094 78.28125 289.140625 80.492188 287.472656 82.421875 C 288.957031 82.195312 290.441406 82.21875 291.917969 82.496094 C 293.394531 82.769531 294.789062 83.277344 296.09375 84.023438 C 297.308594 84.785156 298.371094 85.71875 299.277344 86.828125 C 300.1875 87.9375 300.890625 89.164062 301.398438 90.507812 C 302.316406 92.71875 302.707031 95.023438 302.574219 97.414062 C 302.421875 99.585938 301.808594 101.617188 300.734375 103.511719 C 299.578125 105.3125 298.117188 106.816406 296.351562 108.023438 C 294.03125 109.726562 291.515625 111.050781 288.800781 112 L 271.945312 118.890625 L 271.945312 105.242188 L 274.339844 111.210938 L 286.535156 106.292969 C 288.652344 105.371094 289.976562 104.707031 290.789062 104.304688 C 292.078125 103.570312 293.144531 102.59375 293.992188 101.375 C 294.835938 100.289062 295.328125 99.058594 295.464844 97.691406 C 295.554688 96.140625 295.332031 94.636719 294.804688 93.179688 C 294.125 91.464844 293.019531 90.097656 291.488281 89.070312 C 289.964844 88.027344 288.28125 87.585938 286.441406 87.746094 C 283.808594 88.039062 281.292969 88.746094 278.890625 89.863281 L 271.984375 92.664062 L 271.984375 85.867188 L 275.832031 84.28125 C 277.996094 83.601562 279.984375 82.582031 281.800781 81.226562 C 282.472656 80.789062 283.035156 80.242188 283.496094 79.585938 C 283.953125 78.929688 284.273438 78.210938 284.453125 77.429688 C 284.851562 75.789062 284.71875 74.191406 284.046875 72.640625 C 283.488281 71.050781 282.519531 69.773438 281.136719 68.8125 C 279.824219 67.863281 278.363281 67.460938 276.753906 67.613281 C 275.128906 67.882812 273.539062 68.28125 271.984375 68.8125 Z M 270.269531 119.554688 L 250.488281 70.617188 L 268.777344 63.25 C 269.816406 62.785156 270.878906 62.394531 271.964844 62.070312 L 271.964844 68.699219 C 271.042969 68.957031 270.121094 69.363281 269.054688 69.75 L 259.257812 73.746094 L 265.222656 88.664062 L 271.984375 85.867188 L 271.984375 92.644531 L 267.617188 94.355469 L 271.984375 105.242188 L 271.984375 118.890625 Z M 270.269531 119.554688 " fill-opacity="1" fill-rule="nonzero"/><path fill="#231f20" d="M 220.667969 147.53125 L 194.40625 101.925781 L 203.429688 96.621094 L 232.898438 122.738281 C 235.679688 125.261719 237.667969 126.976562 238.996094 128.265625 C 238.609375 126.277344 238.074219 123.367188 237.28125 119.515625 L 229.914062 81.464844 L 238 76.695312 L 264.300781 122.480469 L 258.464844 125.796875 L 236.363281 87.597656 L 245.109375 133.476562 L 239.675781 136.664062 L 204 105.351562 L 226.546875 144.214844 Z M 220.667969 147.53125 " fill-opacity="1" fill-rule="nonzero"/><path fill="#231f20" d="M 187.113281 177.515625 L 152.503906 137.585938 L 181.273438 112.664062 L 185.25 117.304688 L 161.785156 137.730469 L 172.394531 149.925781 L 194.40625 130.824219 L 198.511719 135.464844 L 176.503906 154.566406 L 188.179688 168.234375 L 212.714844 146.867188 L 216.820312 151.65625 Z M 187.113281 177.515625 " fill-opacity="1" fill-rule="nonzero"/><path fill="#231f20" d="M 153.167969 215.695312 L 145.210938 182.414062 L 114.304688 179.890625 L 119.828125 173.539062 L 136.257812 174.863281 C 139.722656 175.121094 142.226562 175.527344 143.957031 175.785156 C 143.292969 173.667969 142.632812 171.273438 142.117188 168.75 L 138.136719 151.65625 L 143.054688 145.816406 L 150.109375 175.914062 L 184.332031 178.566406 L 178.804688 185.195312 L 155.855469 183.355469 C 154.53125 183.226562 153.074219 182.96875 151.621094 182.839844 C 152.410156 184.957031 152.796875 186.410156 153.074219 187.332031 L 158.601562 209.214844 Z M 153.167969 215.695312 " fill-opacity="1" fill-rule="nonzero"/><path fill="#231f20" d="M 103.308594 195.011719 L 106.992188 189.175781 L 132.777344 205.214844 C 136.511719 207.367188 139.738281 210.113281 142.464844 213.449219 C 143.5 214.8125 144.285156 216.308594 144.824219 217.933594 C 145.363281 219.554688 145.628906 221.222656 145.613281 222.933594 C 145.523438 225.101562 145.128906 227.210938 144.425781 229.265625 C 143.722656 231.320312 142.746094 233.230469 141.488281 235 C 139.421875 238.683594 136.597656 241.648438 133.015625 243.894531 C 131.511719 244.757812 129.90625 245.335938 128.195312 245.628906 C 126.484375 245.925781 124.777344 245.917969 123.070312 245.609375 C 118.664062 244.691406 114.59375 242.972656 110.859375 240.449219 L 85.074219 224.261719 L 88.757812 218.292969 L 114.542969 234.484375 C 117.367188 236.429688 120.4375 237.84375 123.753906 238.71875 C 124.886719 238.949219 126.023438 238.96875 127.164062 238.785156 C 128.304688 238.601562 129.378906 238.222656 130.382812 237.652344 C 132.746094 236.332031 134.589844 234.488281 135.910156 232.125 C 138.5625 227.761719 139.480469 224.039062 138.691406 220.855469 C 137.898438 217.667969 134.710938 214.5 129.148438 211.035156 Z M 103.308594 195.011719 " fill-opacity="1" fill-rule="nonzero"/><path fill="#231f20" d="M 113.253906 285.316406 L 65.109375 263.972656 L 67.890625 257.597656 L 110.472656 276.441406 L 120.933594 252.699219 L 126.644531 255.222656 Z M 113.253906 285.316406 " fill-opacity="1" fill-rule="nonzero"/><path fill="#231f20" d="M 90.046875 376.027344 L 38.199219 366.875 L 39.378906 359.855469 L 85 339.816406 L 44.167969 332.671875 L 45.347656 326.039062 L 97.339844 335.175781 L 96.015625 342.210938 L 50.390625 362.234375 L 91.246094 369.398438 Z M 90.046875 376.027344 " fill-opacity="1" fill-rule="nonzero"/><path fill="#231f20" d="M 65.238281 432.644531 L 63.78125 432.644531 L 63.78125 425.535156 L 65.109375 425.535156 C 71.480469 425.261719 76.378906 423.398438 79.972656 419.828125 C 80.386719 419.394531 80.78125 418.941406 81.148438 418.46875 C 81.519531 417.996094 81.863281 417.503906 82.183594 417 C 82.507812 416.492188 82.800781 415.96875 83.070312 415.433594 C 83.335938 414.894531 83.578125 414.347656 83.792969 413.785156 C 84.007812 413.226562 84.191406 412.65625 84.347656 412.078125 C 84.503906 411.496094 84.632812 410.910156 84.730469 410.320312 C 84.828125 409.726562 84.894531 409.132812 84.933594 408.53125 C 84.972656 407.933594 84.980469 407.335938 84.957031 406.734375 C 84.933594 406.136719 84.882812 405.539062 84.800781 404.945312 C 84.71875 404.347656 84.609375 403.761719 84.46875 403.175781 C 84.328125 402.59375 84.160156 402.019531 83.960938 401.453125 C 83.761719 400.886719 83.535156 400.332031 83.28125 399.789062 C 83.027344 399.242188 82.75 398.714844 82.441406 398.199219 C 82.132812 397.683594 81.804688 397.183594 81.445312 396.699219 C 81.089844 396.21875 80.710938 395.753906 80.304688 395.3125 C 79.902344 394.867188 79.476562 394.441406 79.03125 394.042969 C 76.851562 392.382812 74.445312 391.167969 71.820312 390.390625 C 69.195312 389.613281 66.515625 389.324219 63.78125 389.527344 L 63.78125 382.253906 C 68.539062 382.042969 73.0625 382.960938 77.355469 385.015625 C 79.433594 385.914062 81.320312 387.113281 83.019531 388.605469 C 84.71875 390.101562 86.144531 391.820312 87.304688 393.765625 C 88.46875 395.6875 89.363281 397.726562 89.988281 399.882812 C 90.613281 402.042969 90.945312 404.246094 90.988281 406.492188 C 91.046875 407.632812 91.027344 408.773438 90.929688 409.914062 C 90.832031 411.054688 90.652344 412.179688 90.394531 413.296875 C 90.140625 414.410156 89.804688 415.5 89.394531 416.570312 C 88.984375 417.636719 88.503906 418.671875 87.949219 419.671875 C 87.390625 420.671875 86.769531 421.628906 86.082031 422.539062 C 85.390625 423.453125 84.640625 424.3125 83.832031 425.121094 C 83.023438 425.929688 82.160156 426.675781 81.246094 427.363281 C 80.328125 428.046875 79.371094 428.667969 78.371094 429.21875 C 74.253906 431.371094 69.878906 432.511719 65.238281 432.644531 Z M 63.78125 432.644531 C 55.695312 432.644531 49.324219 430.527344 44.554688 426.292969 C 43.527344 425.316406 42.585938 424.265625 41.730469 423.136719 C 40.875 422.007812 40.117188 420.816406 39.457031 419.5625 C 38.796875 418.3125 38.242188 417.011719 37.792969 415.671875 C 37.34375 414.328125 37.003906 412.957031 36.78125 411.558594 C 36.554688 410.160156 36.445312 408.753906 36.449219 407.335938 C 36.453125 405.921875 36.570312 404.515625 36.804688 403.117188 C 37.039062 401.722656 37.382812 400.351562 37.839844 399.011719 C 38.296875 397.671875 38.859375 396.375 39.527344 395.128906 C 40.585938 393.148438 41.917969 391.371094 43.523438 389.800781 C 45.128906 388.230469 46.933594 386.933594 48.9375 385.917969 C 53.28125 383.566406 57.921875 382.367188 62.863281 382.328125 L 63.78125 382.328125 L 63.78125 389.492188 L 63.121094 389.492188 C 59.210938 389.558594 55.496094 390.441406 51.976562 392.144531 C 50.433594 392.835938 49.03125 393.75 47.773438 394.882812 C 46.515625 396.015625 45.460938 397.3125 44.609375 398.773438 C 44.132812 399.652344 43.726562 400.558594 43.398438 401.5 C 43.066406 402.445312 42.816406 403.40625 42.640625 404.386719 C 42.46875 405.371094 42.375 406.363281 42.363281 407.359375 C 42.347656 408.359375 42.417969 409.351562 42.566406 410.335938 C 42.714844 411.324219 42.941406 412.292969 43.25 413.242188 C 43.554688 414.191406 43.933594 415.109375 44.390625 416 C 44.847656 416.886719 45.371094 417.734375 45.964844 418.535156 C 46.554688 419.339844 47.210938 420.089844 47.925781 420.785156 C 51.238281 423.972656 56.414062 425.574219 63.707031 425.574219 Z M 63.78125 432.644531 " fill-opacity="1" fill-rule="nonzero"/><path fill="#231f20" d="M 92.828125 444.726562 L 40.574219 452.023438 L 39.65625 445.113281 L 91.90625 437.820312 Z M 92.828125 444.726562 " fill-opacity="1" fill-rule="nonzero"/><path fill="#231f20" d="M 97.46875 473.496094 L 52.382812 484.769531 L 56.617188 501.605469 L 50.519531 503.078125 L 40.445312 462.628906 L 46.414062 461.027344 L 50.648438 478.011719 L 95.886719 466.738281 Z M 97.46875 473.496094 " fill-opacity="1" fill-rule="nonzero"/><path fill="#231f20" d="M 114.839844 529.730469 L 75.847656 528.402344 L 75.847656 522.03125 L 89.382812 522.433594 L 83.546875 505.453125 L 75.847656 511.824219 L 75.847656 503.078125 L 98.796875 483.039062 L 101.300781 490.609375 L 88.167969 501.660156 L 95.332031 522.492188 L 112.445312 522.75 Z M 75.847656 528.402344 L 58.347656 527.738281 L 55.953125 520.574219 L 75.847656 503.078125 L 75.847656 511.824219 L 71.609375 515.398438 C 67.925781 518.457031 64.851562 520.832031 62.402344 522.5625 C 65.878906 522.074219 69.371094 521.851562 72.882812 521.902344 L 75.792969 522.03125 Z M 75.847656 528.402344 " fill-opacity="1" fill-rule="nonzero"/><path fill="#231f20" d="M 135.136719 567.910156 L 93.085938 590.324219 L 93.085938 582.367188 L 105.832031 575.609375 L 98.796875 562.347656 C 97.597656 560.144531 96.136719 558.128906 94.414062 556.304688 C 94.003906 555.945312 93.5625 555.632812 93.085938 555.367188 L 93.085938 548.21875 C 94.71875 548.988281 96.210938 549.972656 97.5625 551.164062 C 98.914062 552.355469 100.074219 553.714844 101.042969 555.238281 C 100.941406 553.542969 101.074219 551.867188 101.449219 550.210938 C 102.269531 547.253906 103.449219 544.449219 104.984375 541.792969 L 113.347656 526.949219 L 117.453125 534.628906 L 111.082031 546.027344 C 109.238281 549.214844 107.914062 551.867188 106.972656 553.855469 C 106.292969 555.386719 105.808594 556.976562 105.519531 558.628906 C 105.472656 559.792969 105.558594 560.945312 105.777344 562.089844 C 106.242188 563.3125 106.777344 564.503906 107.378906 565.664062 L 111.136719 572.882812 L 131.820312 561.832031 Z M 93.085938 590.324219 L 88.40625 592.71875 L 77.542969 572.035156 C 75.675781 568.890625 74.386719 565.527344 73.671875 561.941406 C 73.558594 560.628906 73.65625 559.332031 73.972656 558.050781 C 74.289062 556.769531 74.800781 555.574219 75.515625 554.464844 C 77.011719 552.046875 79 550.140625 81.484375 548.753906 C 83.019531 547.90625 84.660156 547.382812 86.40625 547.179688 C 88.148438 546.976562 89.867188 547.105469 91.558594 547.574219 C 92.113281 547.730469 92.640625 547.953125 93.140625 548.238281 L 93.140625 555.386719 C 92.085938 554.726562 90.9375 554.335938 89.695312 554.207031 C 88.011719 554.027344 86.421875 554.332031 84.925781 555.128906 C 83.847656 555.636719 82.9375 556.355469 82.191406 557.289062 C 81.449219 558.21875 80.949219 559.265625 80.691406 560.433594 C 80.476562 561.960938 80.535156 563.480469 80.871094 564.988281 C 81.203125 566.496094 81.789062 567.902344 82.625 569.199219 L 90.433594 583.933594 L 93.085938 582.480469 Z M 93.085938 590.324219 " fill-opacity="1" fill-rule="nonzero"/><path fill="#231f20" d="M 160.71875 604.527344 L 118.023438 635.414062 L 95.609375 604.65625 L 100.65625 600.933594 L 118.945312 626.128906 L 132.078125 616.71875 L 114.839844 593.105469 L 119.882812 589.402344 L 136.996094 612.996094 L 151.582031 602.535156 L 132.484375 576.273438 L 137.511719 572.550781 Z M 160.71875 604.527344 " fill-opacity="1" fill-rule="nonzero"/><path fill="#231f20" d="M 194.9375 640.460938 L 164.179688 670.296875 L 164.179688 660.609375 L 185.65625 639.796875 L 177.828125 631.710938 C 175.96875 629.632812 173.851562 627.867188 171.472656 626.40625 C 169.824219 625.492188 168.054688 625 166.167969 624.933594 C 165.5 624.910156 164.839844 624.957031 164.179688 625.082031 L 164.179688 618.300781 C 165.78125 618.183594 167.375 618.277344 168.949219 618.578125 C 171.203125 619.144531 173.320312 620.03125 175.304688 621.230469 C 177.675781 622.832031 179.84375 624.675781 181.808594 626.757812 Z M 164.179688 670.296875 L 157.015625 677.058594 L 144.417969 664.054688 C 142.234375 661.753906 140.246094 659.296875 138.449219 656.6875 C 136.867188 654.171875 135.984375 651.433594 135.796875 648.472656 C 135.59375 644.710938 136.300781 641.132812 137.917969 637.734375 C 139.867188 633.917969 142.398438 630.535156 145.503906 627.585938 C 148.109375 625.027344 151.03125 622.910156 154.273438 621.230469 C 156.769531 619.863281 159.421875 618.9375 162.226562 618.449219 C 162.890625 618.449219 163.554688 618.300781 164.21875 618.300781 L 164.21875 625.082031 C 162.285156 625.359375 160.441406 625.929688 158.691406 626.792969 C 155.625 628.382812 152.886719 630.414062 150.476562 632.890625 C 146.5 636.738281 143.976562 640.257812 143.109375 643.644531 C 142.652344 645.097656 142.445312 646.585938 142.488281 648.105469 C 142.535156 649.628906 142.828125 651.101562 143.367188 652.523438 C 144.808594 655.277344 146.652344 657.734375 148.894531 659.890625 L 156.574219 667.847656 L 163.941406 660.683594 Z M 164.179688 670.296875 " fill-opacity="1" fill-rule="nonzero"/><path fill="#231f20" d="M 230.210938 668.179688 L 197.847656 709.804688 L 167.753906 686.339844 L 171.601562 681.441406 L 196.136719 700.523438 L 206.082031 687.792969 L 183.132812 669.890625 L 186.855469 664.992188 L 209.933594 683.023438 L 220.925781 668.84375 L 195.472656 648.949219 L 199.324219 644.03125 Z M 230.210938 668.179688 " fill-opacity="1" fill-rule="nonzero"/><path fill="#231f20" d="M 265.886719 688.070312 L 240.433594 734.207031 L 209.269531 716.839844 L 212.308594 711.40625 L 237.246094 725.332031 L 245.203125 711 L 223.578125 699.066406 L 226.636719 693.632812 L 248.242188 705.566406 L 259.789062 684.609375 Z M 265.886719 688.070312 " fill-opacity="1" fill-rule="nonzero"/><path fill="#007fb6" d="M 537.078125 671.347656 C 634.953125 622.613281 702.4375 521.3125 702.4375 404.945312 C 702.4375 241.167969 568.777344 107.488281 405 107.488281 C 241.222656 107.488281 107.542969 241.167969 107.542969 404.945312 C 107.554688 411.597656 107.785156 418.242188 108.242188 424.878906 C 108.695312 431.515625 109.371094 438.128906 110.269531 444.722656 C 111.164062 451.3125 112.28125 457.867188 113.617188 464.382812 C 114.953125 470.902344 116.507812 477.367188 118.277344 483.777344 C 120.042969 490.191406 122.027344 496.539062 124.21875 502.820312 C 126.414062 509.097656 128.816406 515.300781 131.425781 521.417969 C 134.03125 527.539062 136.84375 533.5625 139.855469 539.496094 C 142.867188 545.425781 146.074219 551.25 149.476562 556.964844 C 152.878906 562.683594 156.46875 568.28125 160.246094 573.753906 C 164.023438 579.230469 167.980469 584.574219 172.113281 589.789062 C 176.25 595 180.554688 600.066406 185.027344 604.988281 C 189.503906 609.914062 194.136719 614.679688 198.929688 619.292969 C 203.722656 623.90625 208.664062 628.355469 213.753906 632.636719 C 218.847656 636.917969 224.074219 641.023438 229.441406 644.957031 C 234.808594 648.890625 240.300781 652.636719 245.914062 656.203125 C 251.53125 659.765625 257.261719 663.136719 263.105469 666.320312 L 268.003906 653.851562 C 262.46875 650.796875 257.042969 647.5625 251.722656 644.144531 C 246.402344 640.730469 241.203125 637.144531 236.125 633.382812 C 231.042969 629.621094 226.09375 625.695312 221.273438 621.601562 C 216.457031 617.511719 211.777344 613.265625 207.242188 608.863281 C 202.707031 604.460938 198.320312 599.910156 194.089844 595.21875 C 189.855469 590.523438 185.78125 585.691406 181.871094 580.726562 C 177.960938 575.761719 174.21875 570.671875 170.644531 565.457031 C 167.074219 560.242188 163.675781 554.914062 160.460938 549.472656 C 157.242188 544.03125 154.207031 538.488281 151.359375 532.847656 C 148.511719 527.203125 145.855469 521.472656 143.386719 515.652344 C 140.917969 509.832031 138.648438 503.9375 136.574219 497.964844 C 134.5 491.992188 132.625 485.960938 130.953125 479.863281 C 129.28125 473.769531 127.8125 467.621094 126.550781 461.429688 C 125.285156 455.234375 124.230469 449.007812 123.382812 442.742188 C 122.535156 436.476562 121.894531 430.191406 121.464844 423.886719 C 121.035156 417.578125 120.816406 411.265625 120.804688 404.945312 C 120.804688 248.390625 248.519531 120.75 405 120.75 C 561.480469 120.75 689.175781 248.460938 689.175781 404.945312 C 689.175781 515.804688 625.136719 612.078125 532.179688 659.117188 Z M 537.078125 671.347656 " fill-opacity="1" fill-rule="nonzero"/><path fill="#ed1c24" d="M 231.277344 268.871094 C 334.585938 295.136719 423.03125 324.308594 503.519531 398.3125 C 507.109375 401.351562 510.148438 395.660156 505.785156 389.417969 C 437.746094 295.136719 359.507812 265.425781 232.070312 262.332031 Z M 231.277344 268.871094 " fill-opacity="1" fill-rule="nonzero"/><path fill="#007fb6" d="M 369.582031 563.929688 C 369.066406 595.757812 385.769531 626.792969 404.871094 656.023438 C 397.300781 609.222656 389.75 571.816406 392.402344 522.75 C 392.53125 488.675781 383.78125 459.757812 375.824219 438.152344 C 395.441406 449.683594 415.867188 458.300781 432.71875 474.878906 C 449.425781 498.824219 475.285156 514.792969 495.96875 532.824219 C 497.164062 533.890625 500.074219 541.847656 500.609375 541.847656 L 502.855469 541.976562 L 501.933594 538.128906 C 501.183594 535.921875 500.164062 533.847656 498.878906 531.902344 C 479.648438 493.574219 459.242188 459.628906 427.671875 426.347656 C 400.046875 404.246094 365.601562 389.34375 332.855469 378.332031 C 327.421875 389.878906 322.117188 403.011719 317.476562 414.539062 C 355.472656 454.675781 363.890625 504.53125 369.582031 563.929688 Z M 369.582031 563.929688 " fill-opacity="1" fill-rule="nonzero"/><path fill="#231f20" d="M 438.003906 250.453125 C 438.003906 251.367188 437.960938 252.28125 437.871094 253.195312 C 437.78125 254.105469 437.648438 255.011719 437.46875 255.910156 C 437.289062 256.808594 437.066406 257.695312 436.800781 258.574219 C 436.535156 259.449219 436.226562 260.3125 435.875 261.160156 C 435.523438 262.003906 435.132812 262.832031 434.703125 263.640625 C 434.269531 264.449219 433.800781 265.234375 433.289062 265.996094 C 432.78125 266.757812 432.234375 267.492188 431.65625 268.199219 C 431.074219 268.910156 430.460938 269.585938 429.8125 270.234375 C 429.164062 270.882812 428.484375 271.496094 427.777344 272.078125 C 427.070312 272.660156 426.332031 273.207031 425.570312 273.714844 C 424.808594 274.222656 424.023438 274.695312 423.214844 275.125 C 422.410156 275.558594 421.582031 275.949219 420.734375 276.300781 C 419.886719 276.652344 419.027344 276.957031 418.148438 277.226562 C 417.273438 277.492188 416.386719 277.714844 415.484375 277.890625 C 414.585938 278.070312 413.683594 278.203125 412.769531 278.292969 C 411.859375 278.382812 410.945312 278.429688 410.027344 278.429688 C 409.113281 278.429688 408.199219 278.382812 407.285156 278.292969 C 406.375 278.203125 405.46875 278.070312 404.570312 277.890625 C 403.671875 277.714844 402.785156 277.492188 401.90625 277.226562 C 401.03125 276.957031 400.167969 276.652344 399.320312 276.300781 C 398.476562 275.949219 397.648438 275.558594 396.839844 275.125 C 396.03125 274.695312 395.246094 274.222656 394.484375 273.714844 C 393.722656 273.207031 392.988281 272.660156 392.28125 272.078125 C 391.570312 271.496094 390.894531 270.882812 390.246094 270.234375 C 389.597656 269.585938 388.984375 268.910156 388.402344 268.199219 C 387.820312 267.492188 387.273438 266.757812 386.765625 265.996094 C 386.257812 265.234375 385.785156 264.449219 385.355469 263.640625 C 384.921875 262.832031 384.53125 262.003906 384.179688 261.160156 C 383.828125 260.3125 383.519531 259.449219 383.253906 258.574219 C 382.988281 257.695312 382.765625 256.808594 382.589844 255.910156 C 382.410156 255.011719 382.273438 254.105469 382.183594 253.195312 C 382.09375 252.28125 382.050781 251.367188 382.050781 250.453125 C 382.050781 249.535156 382.09375 248.621094 382.183594 247.710938 C 382.273438 246.796875 382.410156 245.894531 382.589844 244.992188 C 382.765625 244.09375 382.988281 243.207031 383.253906 242.332031 C 383.519531 241.453125 383.828125 240.59375 384.179688 239.746094 C 384.53125 238.898438 384.921875 238.070312 385.355469 237.261719 C 385.785156 236.457031 386.257812 235.671875 386.765625 234.910156 C 387.273438 234.148438 387.820312 233.410156 388.402344 232.703125 C 388.984375 231.996094 389.597656 231.316406 390.246094 230.667969 C 390.894531 230.019531 391.570312 229.40625 392.28125 228.824219 C 392.988281 228.242188 393.722656 227.699219 394.484375 227.191406 C 395.246094 226.679688 396.03125 226.210938 396.839844 225.777344 C 397.648438 225.347656 398.476562 224.953125 399.320312 224.605469 C 400.167969 224.253906 401.03125 223.945312 401.90625 223.679688 C 402.785156 223.414062 403.671875 223.191406 404.570312 223.011719 C 405.46875 222.832031 406.375 222.699219 407.285156 222.609375 C 408.199219 222.519531 409.113281 222.476562 410.027344 222.476562 C 410.945312 222.476562 411.859375 222.519531 412.769531 222.609375 C 413.683594 222.699219 414.585938 222.832031 415.484375 223.011719 C 416.386719 223.191406 417.273438 223.414062 418.148438 223.679688 C 419.027344 223.945312 419.886719 224.253906 420.734375 224.605469 C 421.582031 224.953125 422.410156 225.347656 423.214844 225.777344 C 424.023438 226.210938 424.808594 226.679688 425.570312 227.191406 C 426.332031 227.699219 427.070312 228.242188 427.777344 228.824219 C 428.484375 229.40625 429.164062 230.019531 429.8125 230.667969 C 430.460938 231.316406 431.074219 231.996094 431.65625 232.703125 C 432.234375 233.410156 432.78125 234.148438 433.289062 234.910156 C 433.800781 235.671875 434.269531 236.457031 434.703125 237.261719 C 435.132812 238.070312 435.523438 238.898438 435.875 239.746094 C 436.226562 240.59375 436.535156 241.453125 436.800781 242.332031 C 437.066406 243.207031 437.289062 244.09375 437.46875 244.992188 C 437.648438 245.894531 437.78125 246.796875 437.871094 247.710938 C 437.960938 248.621094 438.003906 249.535156 438.003906 250.453125 Z M 438.003906 250.453125 " fill-opacity="1" fill-rule="nonzero"/><path stroke-linecap="butt" transform="matrix(1.84183, 0, 0, 1.84183, 0.0000035, 0.0736808)" fill-opacity="1" fill="#ffffff" fill-rule="nonzero" stroke-linejoin="miter" d="M 291.670273 293.259086 C 292.194124 293.259086 292.715854 293.233636 293.237583 293.182735 C 293.759313 293.131835 294.276801 293.055484 294.792169 292.951562 C 295.305415 292.849761 295.812299 292.72251 296.314941 292.57193 C 296.815462 292.419228 297.309621 292.243197 297.793175 292.041716 C 298.27673 291.842356 298.74968 291.617546 299.212026 291.371527 C 299.674372 291.123387 300.123992 290.854039 300.558767 290.563482 C 300.995663 290.272925 301.415592 289.96116 301.820675 289.628186 C 302.225757 289.295212 302.613874 288.945271 302.982902 288.574122 C 303.354051 288.202973 303.706113 287.814857 304.039087 287.409774 C 304.36994 287.004691 304.681705 286.584762 304.974383 286.149988 C 305.264939 285.713092 305.534288 285.263471 305.780307 284.803246 C 306.028446 284.3409 306.251136 283.86795 306.452617 283.382275 C 306.651977 282.89872 306.828008 282.406682 306.980709 281.90404 C 307.133411 281.403519 307.260662 280.894514 307.362463 280.381268 C 307.464264 279.868022 307.540614 279.350534 307.593636 278.828804 C 307.644536 278.307074 307.669986 277.783223 307.669986 277.259373 C 307.669986 276.735522 307.644536 276.213792 307.593636 275.692063 C 307.540614 275.170333 307.464264 274.652845 307.362463 274.137478 C 307.260662 273.624231 307.133411 273.117347 306.980709 272.614705 C 306.828008 272.114184 306.651977 271.622146 306.452617 271.136471 C 306.251136 270.652916 306.028446 270.179966 305.780307 269.71762 C 305.534288 269.255274 305.264939 268.805654 304.974383 268.370879 C 304.681705 267.936104 304.36994 267.514054 304.039087 267.108971 C 303.706113 266.703889 303.354051 266.315773 302.982902 265.946744 C 302.613874 265.575595 302.225757 265.223533 301.820675 264.89268 C 301.415592 264.559706 300.995663 264.247941 300.558767 263.957384 C 300.123992 263.664707 299.674372 263.395358 299.212026 263.149339 C 298.74968 262.9012 298.27673 262.67851 297.793175 262.477029 C 297.309621 262.277669 296.815462 262.101638 296.314941 261.948937 C 295.812299 261.796235 295.305415 261.668984 294.792169 261.567183 C 294.276801 261.465382 293.759313 261.389032 293.237583 261.33601 C 292.715854 261.28511 292.194124 261.25966 291.670273 261.25966 C 291.146423 261.25966 290.622572 261.28511 290.100842 261.33601 C 289.581233 261.389032 289.061624 261.465382 288.548378 261.567183 C 288.035132 261.668984 287.526127 261.796235 287.025606 261.948937 C 286.522964 262.101638 286.030926 262.277669 285.547371 262.477029 C 285.063817 262.67851 284.588746 262.9012 284.128521 263.149339 C 283.666175 263.395358 283.216554 263.664707 282.781779 263.957384 C 282.344884 264.247941 281.924955 264.559706 281.519872 264.89268 C 281.114789 265.223533 280.726673 265.575595 280.355524 265.946744 C 279.986495 266.315773 279.634434 266.703889 279.30146 267.108971 C 278.968486 267.514054 278.656721 267.936104 278.366164 268.370879 C 278.075607 268.805654 277.806259 269.255274 277.56024 269.71762 C 277.3121 270.179966 277.089411 270.652916 276.88793 271.136471 C 276.686449 271.622146 276.510418 272.114184 276.359837 272.614705 C 276.207136 273.117347 276.079885 273.624231 275.978084 274.137478 C 275.874162 274.652845 275.797811 275.170333 275.746911 275.692063 C 275.69601 276.213792 275.67056 276.735522 275.67056 277.259373 C 275.672681 277.783223 275.700252 278.304953 275.753273 278.826683 C 275.806295 279.346292 275.884766 279.86378 275.986567 280.377026 C 276.090489 280.890273 276.219861 281.397156 276.372562 281.897678 C 276.525264 282.398199 276.703415 282.890237 276.904896 283.373791 C 277.104257 283.857346 277.329067 284.328175 277.577207 284.790521 C 277.823226 285.252867 278.092574 285.700367 278.385252 286.135142 C 278.675808 286.569916 278.987574 286.989845 279.320548 287.394928 C 279.651401 287.79789 280.003462 288.186006 280.374612 288.557155 C 280.74364 288.926184 281.131756 289.278245 281.534718 289.609098 C 281.939801 289.942072 282.35973 290.253838 282.794505 290.544394 C 283.229279 290.837072 283.6789 291.10642 284.139125 291.352439 C 284.601471 291.600579 285.0723 291.825389 285.555855 292.026871 C 286.039409 292.228352 286.531447 292.404382 287.031968 292.557084 C 287.53249 292.709785 288.039373 292.839157 288.55262 292.943079 C 289.065866 293.047001 289.583354 293.125472 290.102963 293.178494 C 290.624693 293.231515 291.146423 293.259086 291.670273 293.259086 Z M 291.670273 293.259086 " stroke="#231f20" stroke-width="1.15" stroke-opacity="1" stroke-miterlimit="10"/><path fill="#231f20" d="M 537.078125 499.226562 L 526.726562 507.054688 L 530.574219 519.652344 L 543.449219 519.652344 L 547.429688 507.054688 Z M 537.078125 499.226562 " fill-opacity="1" fill-rule="nonzero"/><path fill="#231f20" d="M 546.488281 538.734375 C 549.605469 537.691406 552.472656 536.171875 555.085938 534.175781 C 557.695312 532.175781 559.914062 529.8125 561.738281 527.078125 L 555.238281 523.632812 L 545.699219 530.648438 Z M 546.488281 538.734375 " fill-opacity="1" fill-rule="nonzero"/><path fill="#231f20" d="M 566.785156 511.164062 L 566.785156 510.757812 C 566.78125 507.574219 566.265625 504.472656 565.246094 501.457031 C 564.222656 498.441406 562.75 495.664062 560.820312 493.132812 L 555.515625 498.289062 L 559.085938 509.433594 Z M 566.785156 511.164062 " fill-opacity="1" fill-rule="nonzero"/><path fill="#231f20" d="M 546.617188 482.78125 C 543.554688 481.8125 540.417969 481.328125 537.207031 481.324219 C 533.9375 481.316406 530.757812 481.84375 527.664062 482.910156 L 530.851562 489.410156 L 542.640625 489.410156 Z M 546.617188 482.78125 " fill-opacity="1" fill-rule="nonzero"/><path fill="#231f20" d="M 513.464844 493.261719 C 511.613281 495.800781 510.203125 498.566406 509.230469 501.558594 C 508.257812 504.546875 507.773438 507.613281 507.773438 510.757812 L 507.773438 511.421875 L 515.140625 510.371094 L 518.714844 499.097656 Z M 513.464844 493.261719 " fill-opacity="1" fill-rule="nonzero"/><path fill="#231f20" d="M 513.207031 527.867188 C 515.121094 530.515625 517.40625 532.789062 520.058594 534.695312 C 522.710938 536.601562 525.597656 538.039062 528.714844 539.011719 L 529.914062 531.644531 L 520.5 524.609375 Z M 513.207031 527.867188 " fill-opacity="1" fill-rule="nonzero"/></svg>