<svg xmlns="http://www.w3.org/2000/svg" viewBox="0 0 439.78 439.7"><defs><style>.cls-1{fill:#ed1c24;}.cls-2,.cls-5{fill:#fff;}.cls-3{fill:#231f20;}.cls-4{fill:#007fb6;}.cls-5{stroke:#231f20;stroke-miterlimit:10;stroke-width:1.15px;}</style></defs><title>Eszköz 1</title><g id="Réteg_2" data-name="Réteg 2"><g id="Layer_1" data-name="Layer 1"><path class="cls-1" d="M219.89,439.7c121.1,0,219.89-98.78,219.89-219.88S341,0,219.89,0,0,98.78,0,219.82,98.78,439.7,219.89,439.7Z"/><path class="cls-2" d="M219.89,432.5C337,432.5,432.58,337,432.58,219.82S337,7.2,219.89,7.2,7.2,102.74,7.2,219.82,102.74,432.5,219.89,432.5Z"/><path class="cls-3" d="M167,419.54V358.92H198.5v7.2H173.16v18.72h22V392h-22v27.57Zm39.38,0V358.92h6.19v53.42h23.12v7.2Zm37,0V358.92H275v7.2H249.55v18.72h22V392h-22v27.57Z"/><polygon class="cls-3" points="309.24 365.76 323.14 390.74 319.82 392.62 307.58 370.51 295.2 377.35 293.62 374.4 309.24 365.76"/><polygon class="cls-3" points="325.73 354.38 342.14 377.86 339.05 380.02 324.58 359.35 312.98 367.42 311.11 364.68 325.73 354.38"/><path class="cls-3" d="M347.54,339.41l10,24.91-2.95,2.74-7.06-3.24V360l1,.5c2.31,1.16,4.18,2.09,5.55,3a33.84,33.84,0,0,1-2.6-5l-3.45-8.28-.51.43Zm-1.44-3.53,1.44,3.53v11.16l-6.62,6.19,6.62,3.24v3.82l-21.09-9.65,3.17-2.95,8.35,4,8.78-8.14-3.6-8.49Z"/><path class="cls-3" d="M370.44,327.67,382,337l-6.77,8.35a14.15,14.15,0,0,1-4,3.53c-.29.15-.57.22-.79.36v-4a19.6,19.6,0,0,0,2.88-3l3.6-4.47-6.48-5.25Zm-4.68-3.81,4.68,3.81v4.9l-.22-.22-3.88,4.83c-.22.28-.44.5-.58.72v-5.4l1.8-2.24-1.8-1.51v-4.89Zm4.68,25.41a7.28,7.28,0,0,1-3.31.36,8.37,8.37,0,0,1-1.37-.29V345.1a4.08,4.08,0,0,0,2.16.86,3.21,3.21,0,0,0,2.38-.58.24.24,0,0,1,.14-.07Zm-10.08-29.73,5.4,4.32v4.89l-5.4-4.32v-4.89Zm5.4,29.8a7.38,7.38,0,0,1-2.23-1.22,6.68,6.68,0,0,1-2.09-2.95,7.33,7.33,0,0,1-.14-4c-.29.21-.65.36-.94.57V338.4a.07.07,0,0,1,.07-.07,11.26,11.26,0,0,0,2.95-2.95l2.38-2.88v5.4a10.11,10.11,0,0,0-1.44,2.3,3.76,3.76,0,0,0-.29,2.59,4.32,4.32,0,0,0,1.51,2.16c.08.07.15.07.22.15ZM359.71,319l.65.58v4.89l-.43-.36-4.47,5.55A12.57,12.57,0,0,0,354,331.7a6.23,6.23,0,0,0-.79,2.16,3.85,3.85,0,0,0,.36,2.16,4.83,4.83,0,0,0,1.51,2,4.77,4.77,0,0,0,2.67,1.08,4.49,4.49,0,0,0,2.66-.65v3.38a7.17,7.17,0,0,1-3.6.87,7,7,0,0,1-4.25-1.66,8.15,8.15,0,0,1-2.37-3,6.9,6.9,0,0,1-.72-3.31,9.17,9.17,0,0,1,.86-3.32,22.17,22.17,0,0,1,2.52-3.88Z"/><polygon class="cls-3" points="367.27 306.5 389.16 319.1 393.91 310.97 396.79 312.62 385.49 332.28 382.54 330.62 387.29 322.42 365.4 309.74 367.27 306.5"/><path class="cls-3" d="M396.14,277.7c4.4,1.8,7.35,4.4,8.93,7.78a13.1,13.1,0,0,1,0,10.66,13.46,13.46,0,0,1-4.39,5.9,12.2,12.2,0,0,1-6.77,2.52,16,16,0,0,1-2.59,0v-3.89a13.83,13.83,0,0,0,2.45.15,9.22,9.22,0,0,0,5-1.66,9.62,9.62,0,0,0,3.24-4.25,9.75,9.75,0,0,0,.07-7.41c-1-2.52-3.53-4.54-7.49-6.2a20.45,20.45,0,0,0-3.31-.93v-3.82A19.24,19.24,0,0,1,396.14,277.7Zm-4.82,26.86a23.26,23.26,0,0,1-5.11-1.3,17,17,0,0,1-6.55-4.6,11.76,11.76,0,0,1-3-6.56,13.9,13.9,0,0,1,1-7.05,13.16,13.16,0,0,1,4.54-6,12.54,12.54,0,0,1,6.69-2.52,14.31,14.31,0,0,1,2.45,0v3.82a10.17,10.17,0,0,0-5.33.5,8.89,8.89,0,0,0-5.33,5.33,9.11,9.11,0,0,0,.15,7.63c1.15,2.52,3.45,4.39,6.84,5.76a15.49,15.49,0,0,0,3.67,1.08Z"/><path class="cls-3" d="M403.63,247.54c4.61,1.15,7.92,3.31,9.94,6.4a12.91,12.91,0,0,1,1.51,10.59,13.6,13.6,0,0,1-3.53,6.48,13.32,13.32,0,0,1-6.33,3.45,18.8,18.8,0,0,1-4.54.29v-3.89a13,13,0,0,0,3.82-.14,8.32,8.32,0,0,0,4.82-2.38,8.82,8.82,0,0,0,2.59-4.6,9.68,9.68,0,0,0-1-7.35c-1.29-2.3-4-4-8.28-5a9.33,9.33,0,0,0-1.94-.36V247.1A19.76,19.76,0,0,1,403.63,247.54Zm-2.95,27.21a19.3,19.3,0,0,1-3.31-.57,16.68,16.68,0,0,1-7.13-3.53,12.51,12.51,0,0,1-3.89-6.12,15.37,15.37,0,0,1,0-7.2,14.28,14.28,0,0,1,3.6-6.55,13.52,13.52,0,0,1,6.41-3.39,17.46,17.46,0,0,1,4.32-.29V251a10.17,10.17,0,0,0-6.62,1.08,8.9,8.9,0,0,0-4.54,6.05,9.27,9.27,0,0,0,1.15,7.56c1.51,2.23,4.11,3.89,7.63,4.75a16.1,16.1,0,0,0,2.38.43Z"/><polygon class="cls-3" points="391.25 223.2 419.76 225.65 418.1 244.94 414.72 244.66 416.09 229.18 407.23 228.38 406.08 241.78 402.7 241.49 403.85 228.1 390.89 226.94 391.25 223.2"/><polygon class="cls-3" points="384.91 174.67 412.85 168.19 417.46 188.35 414.22 189.07 410.4 172.66 401.83 174.67 405.43 190.01 402.12 190.73 398.59 175.39 389.09 177.62 393.05 194.62 389.74 195.41 384.91 174.67"/><path class="cls-3" d="M392.62,143.35l10.36-4,3.53,9.22A29.11,29.11,0,0,1,408,153.5a10.12,10.12,0,0,1-.43,4.68,11.2,11.2,0,0,1-3.38,4.9,19,19,0,0,1-5.91,3.53,22.11,22.11,0,0,1-5.61,1.29v-3.81a23,23,0,0,0,4.24-1.15,13.17,13.17,0,0,0,5.91-3.89,7.47,7.47,0,0,0,1.73-4.47,14.39,14.39,0,0,0-1.16-4.82l-2.16-5.62-8.56,3.24Zm-16.42,6.34,16.42-6.34v4L380.74,152l2.16,5.69a15,15,0,0,0,2.08,4,6.86,6.86,0,0,0,2.31,1.87,9.37,9.37,0,0,0,4.17.65,6.46,6.46,0,0,0,1.16-.07v3.81h-.08a13.27,13.27,0,0,1-4.6-.28,10.09,10.09,0,0,1-3.32-1.52,11.34,11.34,0,0,1-2.59-2.66,18.49,18.49,0,0,1-2.09-4.1Z"/><polygon class="cls-3" points="349.78 108.5 372.31 90.86 385.06 107.14 382.39 109.22 371.95 95.9 365.04 101.3 374.83 113.76 372.17 115.85 362.45 103.39 354.74 109.37 365.54 123.26 362.88 125.28 349.78 108.5"/><path class="cls-3" d="M338.18,83.38l2.81,2.3A8.34,8.34,0,0,0,339.34,89a6.54,6.54,0,0,0,.57,3.6,9.68,9.68,0,0,0,2.52,3.67,12.62,12.62,0,0,0,3.24,2.24,5.82,5.82,0,0,0,3,.43,3.88,3.88,0,0,0,2.23-1.23A3.4,3.4,0,0,0,352,95.47a5.58,5.58,0,0,0-.65-3,40.45,40.45,0,0,0-2.74-4.61,28.37,28.37,0,0,1-2.73-5.11,7.86,7.86,0,0,1-.29-4,5.94,5.94,0,0,1,1.73-3.24A7.25,7.25,0,0,1,351,73.44a8.57,8.57,0,0,1,4.61.43,15.7,15.7,0,0,1,4.46,2.95,15.31,15.31,0,0,1,3.31,4.68,7.83,7.83,0,0,1,.58,4.76,9.39,9.39,0,0,1-2.09,4.24l-2.81-2.37a6.12,6.12,0,0,0,1.44-4.32,8.06,8.06,0,0,0-2.66-4.47,8.45,8.45,0,0,0-4.46-2.59,4.06,4.06,0,0,0-3.24,1.08,3.48,3.48,0,0,0-1,2.67c.07.93,1,2.73,2.73,5.4a41.17,41.17,0,0,1,3.32,5.76,8.21,8.21,0,0,1,.57,4.6,6.51,6.51,0,0,1-1.94,3.75,7.55,7.55,0,0,1-4,2.23,8.89,8.89,0,0,1-4.9-.36,13.31,13.31,0,0,1-4.75-3,17.51,17.51,0,0,1-3.89-5.33,9.12,9.12,0,0,1-.57-5.33A10,10,0,0,1,338.18,83.38Z"/><polygon class="cls-3" points="326.09 85.9 344.09 63.65 347.04 66.02 328.97 88.34 326.09 85.9"/><path class="cls-3" d="M319.9,49.32A13.37,13.37,0,0,1,328,51.7a13.91,13.91,0,0,1,5,5.47,12.32,12.32,0,0,1,1.15,7,16.55,16.55,0,0,1-2.81,7.35,16.79,16.79,0,0,1-5.68,5.61,12.93,12.93,0,0,1-5.76,1.66V75.31l1.22-.21c2.66-.72,5-2.6,7-5.69a14.47,14.47,0,0,0,2.38-5.76,9.1,9.1,0,0,0-4.25-9.22,9.15,9.15,0,0,0-6.33-1.58ZM308.23,57c2.59-4,5.69-6.41,9.29-7.27a8.86,8.86,0,0,1,2.38-.36v3.53c-.29,0-.65.07-.94.07-2.66.5-5.11,2.59-7.49,6.19-1.87,2.88-2.59,5.69-2.09,8.35a9.2,9.2,0,0,0,4.25,6.34,9.07,9.07,0,0,0,6.27,1.51v3.53a7.19,7.19,0,0,1-1.23-.07,13.91,13.91,0,0,1-6.84-2.31,13.6,13.6,0,0,1-5-5.54,12.69,12.69,0,0,1-1.15-7.13A15.78,15.78,0,0,1,308.23,57Z"/><polygon class="cls-3" points="279.36 58.9 291.46 32.98 310.25 41.69 308.81 44.78 293.47 37.66 289.8 45.58 304.13 52.27 302.69 55.3 288.36 48.6 284.26 57.46 300.17 64.87 298.73 67.97 279.36 58.9"/><path class="cls-3" d="M276.05,42.7l3.89,1.15L277,54a20.07,20.07,0,0,1-6.48,1.66,15.92,15.92,0,0,1-6.12-.58,16.33,16.33,0,0,1-6.91-3.89,11.65,11.65,0,0,1-3.53-6.41,17.2,17.2,0,0,1,.36-7.84,17.65,17.65,0,0,1,3.89-7,11.32,11.32,0,0,1,6.27-3.81,15.8,15.8,0,0,1,7.77.36A15.27,15.27,0,0,1,277.34,29a9.39,9.39,0,0,1,3,3.81,12.27,12.27,0,0,1,.79,5.11l-3.53-.07a11.06,11.06,0,0,0-.57-3.74A7.24,7.24,0,0,0,275,31.46a10,10,0,0,0-3.6-1.8,11.58,11.58,0,0,0-4.54-.5,8.91,8.91,0,0,0-3.53,1.15,11.07,11.07,0,0,0-2.52,2.23,15.9,15.9,0,0,0-2.66,5.26,13.65,13.65,0,0,0-.43,6.48A8.15,8.15,0,0,0,260.28,49a12.56,12.56,0,0,0,9.72,3.1,13,13,0,0,0,4-.94Z"/><path class="cls-3" d="M237.74,21l2.24.22a15.73,15.73,0,0,1,5.68,1.3,5.87,5.87,0,0,1,3,2.95,8.52,8.52,0,0,1,.79,4.39,7,7,0,0,1-2.38,5,9.6,9.6,0,0,1-6.33,2.09,8.56,8.56,0,0,1,2.16,1.65,20.08,20.08,0,0,1,2.8,4L250,50.83l-4.75-.36-3.31-6.33A41,41,0,0,0,239.54,40a9.45,9.45,0,0,0-1.72-2.09.07.07,0,0,0-.08-.07V33.7l.36.07a12,12,0,0,0,4.11-.22A3.76,3.76,0,0,0,244.58,32a4.43,4.43,0,0,0,.94-2.45,4.25,4.25,0,0,0-1.15-3.45c-.94-1-2.45-1.52-4.54-1.73l-2.09-.22Zm-13,27.65,2.52-28.51,10.44.86v3.17l-6.91-.57L230,33.05l7.77.65v4.17a6.38,6.38,0,0,0-1.58-.86,9,9,0,0,0-2.09-.29l-4.39-.43L228.6,49Z"/><path class="cls-3" d="M214.27,19.94l3.75-.36,1.51,16.49A20.32,20.32,0,0,1,219.1,43a8.18,8.18,0,0,1-3.17,4.47,12,12,0,0,1-6.48,2.16,14.89,14.89,0,0,1-6.7-.79,8,8,0,0,1-4-3.68,18.79,18.79,0,0,1-1.73-7L195.62,21.6l3.75-.36,1.44,16.49a15.73,15.73,0,0,0,1.22,5.4,5.25,5.25,0,0,0,2.59,2.52,8.57,8.57,0,0,0,4.18.57c2.81-.21,4.68-1,5.76-2.37S216,40,215.71,36.43Z"/><path class="cls-3" d="M178.63,24.26a13.65,13.65,0,0,1,3.82.58,12.36,12.36,0,0,1,6,4,16.51,16.51,0,0,1,3.39,7.06,16.71,16.71,0,0,1,.21,8A12.42,12.42,0,0,1,188.5,50a14,14,0,0,1-6.34,3.46,15.69,15.69,0,0,1-3.53.43V50.62a9.38,9.38,0,0,0,2.74-.29,9.17,9.17,0,0,0,6.12-4.61c1.29-2.38,1.51-5.4.65-9a14.61,14.61,0,0,0-2.67-5.62A8.74,8.74,0,0,0,181.15,28a10,10,0,0,0-2.52-.43ZM165.38,42.77c-1.15-4.61-.79-8.5,1-11.74A13.3,13.3,0,0,1,175,24.7a15.35,15.35,0,0,1,3.6-.44v3.32a12.82,12.82,0,0,0-2.81.28,9.6,9.6,0,0,0-6,4.4c-1.44,2.23-1.59,5.47-.58,9.64.86,3.32,2.38,5.76,4.68,7.2a8.44,8.44,0,0,0,4.75,1.52v3.31a14.64,14.64,0,0,1-4-.58,12.46,12.46,0,0,1-5.9-4A16.24,16.24,0,0,1,165.38,42.77Z"/><path class="cls-3" d="M147.67,33.7a10.64,10.64,0,0,1,3.46-.58A6.48,6.48,0,0,1,155,34.49a6.43,6.43,0,0,1,2.88,6.62,8.16,8.16,0,0,1-1.8,3.6,7.24,7.24,0,0,1,4.68.87,7.1,7.1,0,0,1,2.88,3.52,8.54,8.54,0,0,1,.64,3.75,7.85,7.85,0,0,1-1,3.31,8.54,8.54,0,0,1-2.38,2.45,15.7,15.7,0,0,1-4.1,2.16l-9.15,3.74V57.1l1.3,3.24,6.62-2.67c1.15-.5,1.87-.86,2.31-1.08A5.34,5.34,0,0,0,159.62,55a3.89,3.89,0,0,0,.8-2,6.16,6.16,0,0,0-.36-2.45,4.82,4.82,0,0,0-1.8-2.23,4.21,4.21,0,0,0-2.74-.72,13.17,13.17,0,0,0-4.1,1.15l-3.75,1.52V46.58l2.09-.86A10.9,10.9,0,0,0,153,44.06,3.35,3.35,0,0,0,154.44,42a4.1,4.1,0,0,0-.22-2.6,4.26,4.26,0,0,0-1.58-2.08,3.5,3.5,0,0,0-2.38-.65,16.46,16.46,0,0,0-2.59.65Zm-.93,31.17L136,38.3l9.93-4a14.24,14.24,0,0,1,1.73-.64v3.6c-.5.14-1,.36-1.58.57L140.76,40,144,48.1l3.67-1.52v3.68l-2.37.93,2.37,5.91v7.41Z"/><path class="cls-3" d="M119.81,80.06,105.55,55.3l4.9-2.88,16,14.18c1.51,1.37,2.59,2.3,3.31,3-.21-1.08-.5-2.66-.93-4.75l-4-20.66,4.39-2.59L143.5,66.46l-3.17,1.8-12-20.74,4.75,24.91-2.95,1.73-19.37-17L123,78.26Z"/><polygon class="cls-3" points="101.59 96.34 82.8 74.66 98.42 61.13 100.58 63.65 87.84 74.74 93.6 81.36 105.55 70.99 107.78 73.51 95.83 83.88 102.17 91.3 115.49 79.7 117.72 82.3 101.59 96.34"/><path class="cls-3" d="M83.16,117.07,78.84,99,62.06,97.63l3-3.45,8.92.72c1.88.14,3.24.36,4.18.5-.36-1.15-.72-2.45-1-3.82L75,82.3l2.67-3.17L81.5,95.47l18.58,1.44-3,3.6-12.46-1c-.72-.07-1.51-.21-2.3-.28.43,1.15.64,1.94.79,2.44l3,11.88Z"/><path class="cls-3" d="M56.09,105.84l2-3.17,14,8.71a19.11,19.11,0,0,1,5.26,4.47A8.42,8.42,0,0,1,79.06,121a12.21,12.21,0,0,1-2.24,6.55,13.52,13.52,0,0,1-4.6,4.83,8,8,0,0,1-5.4.93,18.64,18.64,0,0,1-6.63-2.8l-14-8.79,2-3.24,14,8.79a16,16,0,0,0,5,2.3,5.2,5.2,0,0,0,3.6-.58,7.78,7.78,0,0,0,3-3c1.44-2.37,1.94-4.39,1.51-6.12s-2.16-3.45-5.18-5.33Z"/><polygon class="cls-3" points="61.49 154.87 35.35 143.28 36.86 139.82 59.98 150.05 65.66 137.16 68.76 138.53 61.49 154.87"/><polygon class="cls-3" points="48.89 204.12 20.74 199.15 21.38 195.34 46.15 184.46 23.98 180.58 24.62 176.98 52.85 181.94 52.13 185.76 27.36 196.63 49.54 200.52 48.89 204.12"/><path class="cls-3" d="M35.42,234.86h-.79V231h.72c3.46-.15,6.12-1.16,8.07-3.1a9.76,9.76,0,0,0-.51-14,12.2,12.2,0,0,0-8.28-2.45V207.5A15.49,15.49,0,0,1,42,209a11.69,11.69,0,0,1,5.4,4.75,13.81,13.81,0,0,1,2,6.91A13.28,13.28,0,0,1,42.55,233,16.41,16.41,0,0,1,35.42,234.86Zm-.79,0c-4.39,0-7.85-1.15-10.44-3.45a14.14,14.14,0,0,1-2.73-16.92,11.9,11.9,0,0,1,5.11-5,16.15,16.15,0,0,1,7.56-1.95h.5v3.89h-.36a14.46,14.46,0,0,0-6.05,1.44,8.81,8.81,0,0,0-4,3.6,10,10,0,0,0,1.8,11.95c1.8,1.73,4.61,2.6,8.57,2.6Z"/><polygon class="cls-3" points="50.4 241.42 22.03 245.38 21.53 241.63 49.9 237.67 50.4 241.42"/><polygon class="cls-3" points="52.92 257.04 28.44 263.16 30.74 272.3 27.43 273.1 21.96 251.14 25.2 250.27 27.5 259.49 52.06 253.37 52.92 257.04"/><path class="cls-3" d="M62.35,287.57l-21.17-.72v-3.46l7.35.22-3.17-9.22-4.18,3.46V273.1l12.46-10.88L55,266.33l-7.13,6,3.89,11.31,9.29.14Zm-21.17-.72-9.5-.36-1.3-3.89,10.8-9.5v4.75l-2.3,1.94c-2,1.66-3.67,2.95-5,3.89a36.93,36.93,0,0,1,5.69-.36l1.58.07Z"/><path class="cls-3" d="M73.37,308.3,50.54,320.47v-4.32l6.92-3.67-3.82-7.2A15.73,15.73,0,0,0,51.26,302a4.13,4.13,0,0,0-.72-.51v-3.88a10.34,10.34,0,0,1,4.32,3.81,9.77,9.77,0,0,1,.22-2.73A19.68,19.68,0,0,1,57,294.12l4.54-8.06,2.23,4.17-3.46,6.19c-1,1.73-1.72,3.17-2.23,4.25a11.12,11.12,0,0,0-.79,2.59,8.2,8.2,0,0,0,.14,1.88,18.36,18.36,0,0,0,.87,1.94L60.34,311l11.23-6ZM50.54,320.47,48,321.77l-5.9-11.23A17.43,17.43,0,0,1,40,305.06,6.46,6.46,0,0,1,41,301a8.93,8.93,0,0,1,3.24-3.1,7.3,7.3,0,0,1,5.47-.64,3.74,3.74,0,0,1,.86.36v3.88a4.39,4.39,0,0,0-1.87-.64,4.5,4.5,0,0,0-2.59.5,4.18,4.18,0,0,0-2.3,2.88A7,7,0,0,0,44.86,309l4.24,8,1.44-.79Z"/><polygon class="cls-3" points="87.26 328.18 64.08 344.95 51.91 328.25 54.65 326.23 64.58 339.91 71.71 334.8 62.35 321.98 65.09 319.97 74.38 332.78 82.3 327.1 71.93 312.84 74.66 310.82 87.26 328.18"/><path class="cls-3" d="M105.84,347.69l-16.7,16.2v-5.26l11.66-11.3-4.25-4.39a15.56,15.56,0,0,0-3.45-2.88,6.41,6.41,0,0,0-2.88-.8,4.91,4.91,0,0,0-1.08.08v-3.68a9.88,9.88,0,0,1,2.59.15,12.64,12.64,0,0,1,3.45,1.44,21.09,21.09,0,0,1,3.53,3Zm-16.7,16.2-3.89,3.67-6.84-7.06a32.79,32.79,0,0,1-3.24-4,9.49,9.49,0,0,1-1.44-4.46,12.06,12.06,0,0,1,1.15-5.83A20.44,20.44,0,0,1,79,340.7a19.81,19.81,0,0,1,4.76-3.45,14,14,0,0,1,4.32-1.51c.36,0,.72-.08,1.08-.08v3.68a10,10,0,0,0-3,.93,17.37,17.37,0,0,0-4.46,3.31c-2.16,2.09-3.53,4-4,5.84a7.34,7.34,0,0,0,.14,4.82,15.56,15.56,0,0,0,3,4l4.17,4.32,4-3.89Z"/><polygon class="cls-3" points="124.99 362.74 107.42 385.34 91.08 372.6 93.17 369.94 106.49 380.3 111.89 373.39 99.43 363.67 101.45 361.01 113.98 370.8 119.95 363.1 106.13 352.3 108.22 349.63 124.99 362.74"/><polygon class="cls-3" points="144.36 373.54 130.54 398.59 113.62 389.16 115.27 386.21 128.81 393.77 133.13 385.99 121.39 379.51 123.05 376.56 134.78 383.04 141.05 371.66 144.36 373.54"/><path class="cls-4" d="M291.6,364.46C344.74,338,381.38,283,381.38,219.82c0-88.92-72.57-161.5-161.49-161.5S58.39,130.9,58.39,219.82a161.84,161.84,0,0,0,84.46,141.91l2.66-6.77A154.61,154.61,0,0,1,65.59,219.82c0-85,69.34-154.3,154.3-154.3s154.29,69.34,154.29,154.3c0,60.19-34.77,112.46-85.24,138Z"/><path class="cls-1" d="M125.57,145.94c56.09,14.26,104.11,30.1,147.81,70.28,1.95,1.65,3.6-1.44,1.23-4.83-36.94-51.19-79.42-67.32-148.61-69Z"/><path class="cls-4" d="M200.66,306.14c-.28,17.28,8.79,34.13,19.16,50-4.11-25.41-8.21-45.72-6.77-72.36.07-18.5-4.68-34.2-9-45.93,10.65,6.26,21.74,10.94,30.89,19.94,9.07,13,23.11,21.67,34.34,31.46.65.58,2.23,4.9,2.52,4.9l1.22.07-.5-2.09a14.71,14.71,0,0,0-1.66-3.38c-10.44-20.81-21.52-39.24-38.66-57.31-15-12-33.7-20.09-51.48-26.07-2.95,6.27-5.83,13.4-8.35,19.66C193,246.82,197.57,273.89,200.66,306.14Z"/><circle class="cls-3" cx="222.62" cy="135.94" r="15.19"/><path class="cls-5" d="M291.67,293.26a16,16,0,1,0-16-16A16.06,16.06,0,0,0,291.67,293.26Z"/><polygon class="cls-3" points="291.6 271.01 285.98 275.26 288.07 282.1 295.06 282.1 297.22 275.26 291.6 271.01"/><path class="cls-3" d="M296.71,292.46a16.1,16.1,0,0,0,8.28-6.33l-3.53-1.87-5.18,3.81Z"/><path class="cls-3" d="M307.73,277.49v-.22a15.84,15.84,0,0,0-3.24-9.57l-2.88,2.8,1.94,6.05Z"/><path class="cls-3" d="M296.78,262.08a17,17,0,0,0-5.11-.79,15.77,15.77,0,0,0-5.18.86l1.73,3.53h6.4Z"/><path class="cls-3" d="M278.78,267.77a16.13,16.13,0,0,0-3.09,9.5v.36l4-.57,1.94-6.12Z"/><path class="cls-3" d="M278.64,286.56a16.42,16.42,0,0,0,8.42,6.05l.65-4-5.11-3.82Z"/></g></g></svg>