<svg xmlns="http://www.w3.org/2000/svg" xmlns:xlink="http://www.w3.org/1999/xlink" width="1080" zoomAndPan="magnify" viewBox="0 0 810 809.999993" height="1080" preserveAspectRatio="xMidYMid meet" version="1.0"><path fill="#c2ad10" d="M 10.355469 405 C 10.355469 187.015625 187.027344 10.324219 404.96875 10.324219 C 622.964844 10.324219 799.640625 187.015625 799.640625 405 C 799.640625 622.984375 622.96875 799.644531 404.96875 799.644531 C 187.027344 799.644531 10.355469 622.992188 10.355469 405 " fill-opacity="1" fill-rule="nonzero"/><path fill="#c2ad10" d="M 404.972656 809.992188 C 628.34375 809.992188 810 628.347656 810 405 C 810 181.683594 628.34375 0.0078125 404.972656 0.0078125 C 181.714844 0.0078125 0 181.683594 0 405 C 0 628.347656 181.714844 809.992188 404.972656 809.992188 Z M 20.65625 405 C 20.65625 193.09375 193.105469 20.703125 404.96875 20.703125 C 616.890625 20.703125 789.34375 193.09375 789.34375 405 C 789.34375 616.933594 616.890625 789.300781 404.96875 789.300781 C 193.105469 789.300781 20.65625 616.933594 20.65625 405 " fill-opacity="1" fill-rule="nonzero"/><path fill="#ffffff" d="M 29.4375 405 C 29.4375 197.605469 197.578125 29.4375 404.96875 29.4375 C 612.367188 29.4375 780.5625 197.609375 780.5625 405 C 780.566406 612.421875 612.367188 780.53125 404.972656 780.53125 C 197.578125 780.53125 29.4375 612.421875 29.4375 405 " fill-opacity="1" fill-rule="nonzero"/><path fill="#d51920" d="M 404.972656 788.273438 C 616.355469 788.273438 788.3125 616.378906 788.3125 405 C 788.3125 193.652344 616.355469 21.683594 404.972656 21.683594 C 193.652344 21.6875 21.695312 193.65625 21.695312 405 C 21.695312 616.378906 193.652344 788.273438 404.972656 788.273438 Z M 37.183594 405 C 37.183594 202.195312 202.214844 37.222656 404.972656 37.222656 C 607.792969 37.222656 772.789062 202.199219 772.789062 405 C 772.789062 607.8125 607.789062 772.808594 404.972656 772.808594 C 202.214844 772.808594 37.183594 607.8125 37.183594 405 " fill-opacity="1" fill-rule="nonzero"/><path fill="#d51920" d="M 131.117188 405 C 131.117188 253.753906 253.683594 131.144531 404.96875 131.144531 C 556.214844 131.144531 678.84375 253.761719 678.84375 405 C 678.84375 556.265625 556.214844 678.878906 404.96875 678.878906 C 253.675781 678.878906 131.117188 556.265625 131.117188 405 " fill-opacity="1" fill-rule="nonzero"/><path fill="#c2ad10" d="M 404.972656 684.007812 C 558.886719 684.007812 683.957031 558.878906 683.957031 405 C 683.957031 251.15625 558.886719 125.960938 404.972656 125.960938 C 251.171875 125.960938 125.941406 251.160156 125.941406 405 C 125.941406 558.878906 251.175781 684.007812 404.972656 684.007812 Z M 136.300781 405 C 136.300781 256.835938 256.84375 136.316406 404.972656 136.316406 C 553.160156 136.316406 673.648438 256.835938 673.648438 405 C 673.648438 553.140625 553.160156 673.707031 404.972656 673.707031 C 256.84375 673.707031 136.300781 553.148438 136.300781 405 " fill-opacity="1" fill-rule="nonzero"/><path fill="#ffffff" d="M 403.121094 411.914062 L 332.4375 202.429688 L 403.121094 273.027344 L 471.273438 204.957031 L 403.121094 411.914062 " fill-opacity="1" fill-rule="nonzero"/><path fill="#c2ad10" d="M 469.476562 203.164062 L 401.320312 271.261719 C 402.304688 270.292969 403.886719 270.292969 404.867188 271.261719 L 334.15625 200.632812 C 333.390625 199.820312 332.082031 199.675781 331.125 200.273438 C 330.066406 200.914062 329.65625 202.105469 329.980469 203.230469 L 400.722656 412.730469 C 401.046875 413.765625 402.007812 414.464844 403.121094 414.445312 C 404.207031 414.445312 405.164062 413.722656 405.492188 412.730469 L 473.644531 205.753906 C 473.996094 204.640625 473.5625 203.382812 472.609375 202.785156 C 471.597656 202.160156 470.285156 202.304688 469.476562 203.167969 Z M 405.492188 411.132812 L 334.804688 201.582031 C 335.1875 202.742188 334.726562 203.941406 333.769531 204.558594 C 332.730469 205.230469 331.425781 205.074219 330.664062 204.230469 L 401.320312 274.835938 C 402.304688 275.855469 403.886719 275.855469 404.867188 274.835938 L 473.019531 206.738281 C 472.195312 207.53125 470.898438 207.679688 469.964844 207.117188 C 468.980469 206.507812 468.492188 205.242188 468.898438 204.152344 L 400.722656 411.132812 C 401.046875 410.113281 401.980469 409.390625 403.066406 409.390625 C 404.210938 409.390625 405.164062 410.113281 405.492188 411.132812 " fill-opacity="1" fill-rule="nonzero"/><path fill="#ffffff" d="M 399.300781 404.390625 L 608.910156 333.730469 L 538.21875 404.390625 L 606.378906 472.570312 L 399.300781 404.390625 " fill-opacity="1" fill-rule="nonzero"/><path fill="#c2ad10" d="M 608.222656 470.761719 L 539.988281 402.617188 L 539.988281 406.15625 L 610.738281 335.492188 L 608.121094 331.28125 L 398.429688 401.945312 L 391.261719 404.414062 L 398.488281 406.796875 L 605.605469 474.929688 Z M 400.09375 406.796875 L 609.757812 336.054688 L 607.128906 331.929688 L 536.421875 402.617188 L 534.621094 404.386719 L 536.421875 406.15625 L 604.574219 474.320312 L 607.128906 470.132812 L 400.09375 401.945312 L 400.09375 406.796875 " fill-opacity="1" fill-rule="nonzero"/><path fill="#ffffff" d="M 410.644531 404.390625 L 201.066406 333.730469 L 271.890625 404.390625 L 203.6875 472.570312 L 410.644531 404.390625 " fill-opacity="1" fill-rule="nonzero"/><path fill="#c2ad10" d="M 205.457031 474.324219 L 273.632812 406.160156 L 275.378906 404.390625 L 273.632812 402.621094 L 202.867188 331.933594 L 200.25 336.058594 L 409.882812 406.800781 L 409.882812 401.949219 L 202.867188 470.136719 Z M 411.433594 401.945312 L 201.882812 331.28125 L 199.269531 335.492188 L 270.0625 406.15625 L 270.0625 402.617188 L 201.882812 470.761719 L 204.394531 474.933594 L 411.4375 406.800781 L 418.660156 404.417969 L 411.4375 401.949219 " fill-opacity="1" fill-rule="nonzero"/><path fill="#ffffff" d="M 403.121094 399.316406 L 333.609375 607.621094 L 403.121094 538.179688 L 471.273438 606.351562 L 403.121094 399.316406 " fill-opacity="1" fill-rule="nonzero"/><path fill="#c2ad10" d="M 473.015625 604.535156 L 404.863281 536.390625 L 403.113281 534.628906 L 401.316406 536.390625 L 331.859375 605.816406 L 336.03125 608.382812 L 405.488281 400.121094 L 400.71875 400.089844 L 468.894531 607.15625 Z M 400.722656 398.484375 L 331.261719 606.808594 L 335.433594 609.402344 L 404.867188 539.960938 L 401.320312 539.960938 L 469.476562 608.140625 L 473.644531 605.554688 L 405.492188 398.542969 L 403.121094 391.28125 L 400.722656 398.488281 " fill-opacity="1" fill-rule="nonzero"/><path fill="#c2ad10" d="M 296.78125 405 C 296.78125 345.246094 345.222656 296.746094 404.972656 296.746094 C 464.78125 296.746094 513.253906 345.246094 513.253906 405 C 513.253906 464.804688 464.78125 513.234375 404.972656 513.234375 C 345.222656 513.234375 296.78125 464.808594 296.78125 405 " fill-opacity="1" fill-rule="nonzero"/><path fill="#c2ad10" d="M 404.972656 514.777344 C 465.519531 514.777344 514.78125 465.535156 514.78125 405.003906 C 514.78125 344.453125 465.519531 295.183594 404.972656 295.183594 C 344.457031 295.183594 295.171875 344.453125 295.171875 405.003906 C 295.171875 465.542969 344.457031 514.777344 404.972656 514.777344 Z M 298.332031 405.003906 C 298.332031 346.199219 346.199219 298.316406 404.972656 298.316406 C 463.800781 298.316406 511.699219 346.199219 511.699219 405.003906 C 511.699219 463.804688 463.800781 511.617188 404.972656 511.617188 C 346.199219 511.617188 298.332031 463.800781 298.332031 405.003906 " fill-opacity="1" fill-rule="nonzero"/><path fill="#231f20" d="M 187.601562 683.929688 L 178.933594 676.292969 L 200.007812 627.59375 L 153.503906 653.554688 L 145.050781 645.925781 L 184.988281 601.761719 L 190.714844 606.898438 L 167.082031 632.949219 C 166.234375 633.917969 164.929688 635.304688 162.964844 637.355469 C 161.054688 639.414062 159.007812 641.636719 156.882812 643.992188 L 203.25 618.15625 L 209.195312 623.445312 L 188.257812 672.050781 L 189.457031 670.734375 C 190.4375 669.613281 191.90625 667.941406 193.949219 665.707031 C 195.78125 663.449219 197.253906 661.839844 198.175781 660.734375 L 221.785156 634.683594 L 227.507812 639.867188 L 187.601562 683.929688 " fill-opacity="1" fill-rule="nonzero"/><path fill="#231f20" d="M 113.535156 605.703125 L 108.246094 598.28125 L 144.769531 546.589844 L 149.871094 553.800781 L 138.640625 568.914062 L 152.164062 588.132812 L 170.617188 583.195312 L 175.332031 589.984375 Z M 134.773438 574.855469 L 118.335938 597.222656 L 145.457031 589.992188 Z M 134.773438 574.855469 " fill-opacity="1" fill-rule="nonzero"/><path fill="#231f20" d="M 81.230469 552.667969 L 78.480469 545.132812 L 127.902344 527.207031 L 117.566406 498.953125 L 124.246094 496.515625 L 137.382812 532.335938 L 81.226562 552.667969 " fill-opacity="1" fill-rule="nonzero"/><path fill="#231f20" d="M 52.988281 460.492188 L 59.96875 458.953125 L 64.4375 478.367188 L 115.6875 466.617188 L 117.566406 474.574219 L 66.292969 486.347656 L 70.820312 505.824219 L 63.84375 507.433594 L 52.988281 460.492188 " fill-opacity="1" fill-rule="nonzero"/><path fill="#231f20" d="M 50.101562 424.640625 L 49.613281 415.644531 L 108.113281 391.003906 L 108.601562 399.792969 L 91.046875 406.695312 L 92.246094 430.214844 L 110.488281 435.625 L 110.894531 443.890625 Z M 84.609375 409.648438 L 58.710938 420.035156 L 85.539062 428.199219 Z M 84.609375 409.648438 " fill-opacity="1" fill-rule="nonzero"/><path fill="#231f20" d="M 55.332031 337.015625 L 65.3125 297.132812 L 72.507812 298.847656 L 64.382812 330.980469 L 81.992188 335.40625 L 89.082031 307.152344 L 96.003906 308.800781 L 88.917969 337.085938 L 115.25 343.640625 L 113.230469 351.410156 L 55.328125 337.019531 " fill-opacity="1" fill-rule="nonzero"/><path fill="#231f20" d="M 136.027344 252.515625 C 132.894531 247.382812 128.449219 243.277344 122.507812 240.292969 C 116.292969 237.160156 110.378906 236.234375 104.847656 237.511719 C 99.421875 238.824219 95.222656 242.324219 92.359375 247.941406 C 89.523438 253.5 89.144531 258.886719 91.132812 264.222656 C 93.121094 269.636719 97.84375 274.160156 105.226562 277.898438 C 111.136719 280.871094 116.835938 281.890625 122.371094 280.960938 C 127.964844 280.0625 132.457031 276.273438 135.863281 269.636719 C 139.136719 263.351562 139.164062 257.617188 136.027344 252.515625 Z M 105.386719 228.964844 C 111.984375 227.890625 118.738281 229.175781 126.125 232.960938 C 134.085938 236.925781 139.707031 242.300781 142.894531 248.917969 C 146.65625 256.761719 146.382812 265.074219 141.828125 273.78125 C 137.65625 281.890625 131.71875 286.933594 123.921875 288.839844 C 116.53125 290.394531 108.875 289.101562 100.910156 285.082031 C 93.769531 281.386719 88.476562 276.507812 85.152344 270.402344 C 81.011719 262.527344 81.117188 254.089844 85.703125 245.203125 C 90.5 235.835938 97.042969 230.441406 105.386719 228.964844 " fill-opacity="1" fill-rule="nonzero"/><path fill="#231f20" d="M 182.527344 191.933594 C 180.8125 186.136719 177.515625 181.113281 172.609375 176.640625 C 167.347656 172.027344 161.921875 169.554688 156.253906 169.441406 C 150.695312 169.292969 145.679688 171.609375 141.371094 176.300781 C 137.253906 180.84375 135.484375 186.039062 136.027344 191.679688 C 136.628906 197.417969 139.921875 202.976562 146.0625 208.511719 C 150.910156 212.863281 156.253906 215.390625 161.871094 215.949219 C 167.484375 216.484375 172.75 213.933594 177.84375 208.398438 C 182.585938 203.191406 184.113281 197.65625 182.527344 191.933594 Z M 158.980469 161.304688 C 165.578125 161.863281 171.925781 164.914062 178.058594 170.421875 C 184.601562 176.367188 188.632812 182.964844 190.050781 190.230469 C 191.605469 198.761719 189.125 206.734375 182.582031 213.933594 C 176.421875 220.746094 169.335938 224.0625 161.265625 223.863281 C 153.6875 223.410156 146.710938 220.304688 140.003906 214.316406 C 134.089844 208.941406 130.296875 202.890625 128.691406 196.105469 C 126.644531 187.367188 129.019531 179.289062 135.75 171.894531 C 142.785156 164.082031 150.578125 160.539062 158.980469 161.304688 " fill-opacity="1" fill-rule="nonzero"/><path fill="#231f20" d="M 215.738281 106.050781 L 219.773438 111.855469 L 203.414062 123.363281 L 233.507812 166.140625 L 226.804688 170.835938 L 196.679688 128.035156 L 180.105469 139.542969 L 175.992188 133.734375 L 215.738281 106.054688 " fill-opacity="1" fill-rule="nonzero"/><path fill="#231f20" d="M 236.125 94.679688 L 259.1875 83.480469 C 265.480469 80.414062 270.855469 80.101562 275.355469 82.609375 C 277.945312 84.042969 279.992188 86.179688 281.410156 89.085938 C 283.074219 92.398438 283.511719 95.707031 282.578125 98.738281 C 282.25 100.351562 281.328125 102.117188 279.851562 103.972656 C 283.070312 103.75 285.691406 103.832031 287.730469 104.488281 C 291.25 105.636719 294.082031 108.316406 296.101562 112.351562 C 297.792969 115.835938 298.28125 119.457031 297.378906 123.25 C 296.210938 128.972656 292.121094 133.546875 284.980469 136.988281 L 262.351562 148.023438 Z M 282.089844 130.769531 C 286.5 128.609375 289.066406 125.765625 289.773438 122.257812 C 290.152344 120.105469 289.773438 117.855469 288.628906 115.578125 C 286.722656 111.679688 283.773438 109.894531 279.523438 110.171875 C 277.3125 110.328125 274.667969 111.148438 271.617188 112.621094 L 257.167969 119.609375 L 266.382812 138.394531 Z M 267.527344 107.324219 C 270.609375 105.867188 272.8125 104.246094 274.070312 102.546875 C 276.171875 99.957031 276.25 96.914062 274.609375 93.492188 C 272.863281 89.980469 270.332031 88.3125 266.816406 88.507812 C 264.933594 88.609375 262.375 89.390625 259.183594 90.902344 L 246.203125 97.230469 L 254.277344 113.765625 L 267.523438 107.320312 " fill-opacity="1" fill-rule="nonzero"/><path fill="#231f20" d="M 324.582031 62.089844 L 333.496094 60.09375 L 368.117188 113.0625 L 359.390625 115.007812 L 349.472656 99.023438 L 326.410156 104.308594 L 324.171875 123.132812 L 316.15625 124.917969 Z M 345.4375 93.238281 L 330.691406 69.753906 L 327.226562 97.398438 Z M 345.4375 93.238281 " fill-opacity="1" fill-rule="nonzero"/><path fill="#231f20" d="M 379.734375 54.46875 L 387.800781 54.039062 L 390.476562 106.308594 L 420.734375 104.675781 L 421.113281 111.78125 L 382.785156 113.773438 L 379.730469 54.476562 " fill-opacity="1" fill-rule="nonzero"/><path fill="#231f20" d="M 445.941406 56.394531 L 453.984375 57.65625 L 445.691406 109.339844 L 475.625 114.015625 L 474.535156 120.976562 L 436.675781 115.011719 L 445.9375 56.398438 " fill-opacity="1" fill-rule="nonzero"/><path fill="#231f20" d="M 549.175781 85.113281 L 557.40625 88.785156 L 552.992188 151.84375 L 544.875 148.207031 L 546.613281 129.535156 L 525.023438 119.980469 L 511.832031 133.539062 L 504.195312 130.28125 Z M 546.882812 122.410156 L 549.394531 94.871094 L 529.820312 114.894531 Z M 546.882812 122.410156 " fill-opacity="1" fill-rule="nonzero"/><path fill="#231f20" d="M 580.910156 149.597656 C 578.953125 152.394531 577.910156 155.011719 577.828125 157.519531 C 577.574219 162.308594 580.203125 166.722656 585.648438 170.742188 C 588 172.582031 590.5 173.894531 593.011719 174.664062 C 597.863281 176.21875 601.574219 175.304688 604.191406 171.894531 C 606.179688 169.238281 606.808594 166.851562 605.9375 164.511719 C 605.089844 162.175781 603.238281 159.3125 600.375 155.894531 L 594.980469 149.65625 C 591.515625 145.511719 589.332031 142.242188 588.347656 139.789062 C 586.851562 135.539062 587.617188 131.445312 590.613281 127.53125 C 593.886719 123.191406 597.976562 120.886719 602.9375 120.40625 C 608.003906 119.835938 613.238281 121.632812 618.75 125.695312 C 623.710938 129.425781 627.054688 133.808594 628.726562 138.832031 C 630.355469 143.878906 629.269531 149 625.179688 154.222656 L 619.152344 149.714844 C 620.761719 146.960938 621.628906 144.425781 621.527344 142.328125 C 621.410156 138.398438 619.011719 134.679688 614.246094 131.117188 C 610.515625 128.21875 607.070312 126.980469 604.269531 127.304688 C 601.4375 127.671875 599.171875 128.867188 597.589844 131.035156 C 595.84375 133.324219 595.460938 135.78125 596.632812 138.292969 C 597.324219 139.882812 599.609375 142.957031 603.375 147.328125 L 608.902344 153.894531 C 611.488281 157.015625 613.238281 159.914062 614.050781 162.457031 C 615.417969 167.019531 614.519531 171.300781 611.351562 175.527344 C 607.292969 180.742188 602.550781 183.050781 596.9375 182.421875 C 591.480469 181.878906 586.082031 179.667969 581.039062 175.871094 C 575.125 171.4375 571.527344 166.421875 570.542969 160.914062 C 569.507812 155.410156 570.84375 150.085938 574.804688 145.0625 L 580.902344 149.597656 " fill-opacity="1" fill-rule="nonzero"/><path fill="#231f20" d="M 630.90625 193.066406 C 628.613281 195.410156 627.058594 197.832031 626.328125 200.238281 C 625.183594 204.882812 626.929688 209.730469 631.507812 214.675781 C 633.523438 216.933594 635.707031 218.691406 638.023438 219.960938 C 642.472656 222.386719 646.335938 222.183594 649.550781 219.265625 C 651.894531 217.085938 652.984375 214.824219 652.683594 212.421875 C 652.332031 210.011719 651 206.863281 648.785156 202.964844 L 644.804688 195.734375 C 642.136719 190.984375 640.621094 187.367188 640.207031 184.816406 C 639.542969 180.394531 641.042969 176.519531 644.75 173.191406 C 648.734375 169.621094 653.210938 168.027344 658.25 168.535156 C 663.355469 168.949219 668.140625 171.683594 672.617188 176.777344 C 676.816406 181.34375 679.269531 186.28125 679.980469 191.5 C 680.632812 196.734375 678.558594 201.582031 673.601562 206.011719 L 668.527344 200.382812 C 670.601562 197.9375 671.800781 195.730469 672.289062 193.589844 C 672.839844 189.707031 671.253906 185.589844 667.328125 181.203125 C 664.117188 177.644531 661.109375 175.746094 658.109375 175.601562 C 655.316406 175.394531 652.878906 176.210938 650.886719 177.917969 C 648.734375 179.90625 647.96875 182.210938 648.570312 184.90625 C 649 186.640625 650.644531 190.019531 653.425781 195.105469 L 657.589844 202.542969 C 659.582031 206.125 660.707031 209.25 661.003906 211.960938 C 661.46875 216.589844 659.792969 220.679688 655.820312 224.199219 C 650.882812 228.621094 645.78125 229.976562 640.449219 228.3125 C 635.105469 226.695312 630.246094 223.527344 626.027344 218.8125 C 621.015625 213.375 618.578125 207.734375 618.578125 202.144531 C 618.578125 196.566406 621.011719 191.605469 625.828125 187.355469 L 630.902344 193.054688 " fill-opacity="1" fill-rule="nonzero"/><path fill="#231f20" d="M 683.84375 283.515625 C 689.789062 284.167969 695.867188 283.011719 701.890625 280.109375 C 708.160156 277.109375 712.40625 272.96875 714.617188 267.800781 C 716.882812 262.648438 716.667969 257.246094 713.800781 251.574219 C 711.101562 246.03125 707.007812 242.445312 701.425781 240.839844 C 695.886719 239.175781 689.449219 240.199219 681.984375 243.753906 C 676.074219 246.65625 671.792969 250.582031 669.199219 255.546875 C 666.5 260.46875 666.960938 266.320312 670.183594 273.027344 C 673.230469 279.382812 677.84375 282.929688 683.839844 283.515625 Z M 721.214844 273.363281 C 718.152344 279.15625 712.953125 283.957031 705.59375 287.425781 C 697.554688 291.324219 689.871094 292.578125 682.613281 291.074219 C 674.035156 289.390625 667.597656 284.113281 663.289062 275.335938 C 659.203125 267.105469 658.820312 259.34375 661.976562 252.058594 C 665.148438 245.253906 670.8125 239.925781 678.84375 236.066406 C 686.105469 232.527344 693.164062 231.308594 700.113281 232.363281 C 709.023438 233.796875 715.632812 239.019531 720.097656 248.023438 C 724.679688 257.390625 725.078125 265.867188 721.210938 273.363281 " fill-opacity="1" fill-rule="nonzero"/><path fill="#231f20" d="M 746.753906 346.757812 C 743.792969 351.746094 739.945312 354.980469 735.09375 356.507812 L 733.378906 348.914062 C 736.894531 347.222656 739.457031 344.792969 741.058594 341.710938 C 742.667969 338.570312 742.890625 334.695312 741.800781 330.046875 C 740.554688 324.363281 737.378906 320.164062 732.53125 317.597656 C 727.675781 315.0625 721.136719 314.738281 712.824219 316.589844 C 705.925781 318.195312 700.828125 321.042969 697.304688 325.125 C 693.824219 329.296875 692.734375 334.5 694.257812 340.769531 C 695.589844 346.519531 698.785156 350.40625 704.015625 352.40625 C 706.75 353.496094 710.179688 354.011719 714.105469 353.839844 L 715.902344 361.542969 C 709.527344 362.277344 703.910156 361.175781 698.917969 358.273438 C 692.898438 354.839844 688.917969 349.234375 687.058594 341.464844 C 685.539062 334.691406 686.296875 328.613281 689.308594 323.105469 C 693.394531 315.851562 700.988281 310.917969 712.308594 308.316406 C 720.804688 306.417969 728.386719 306.953125 734.980469 310.28125 C 742.105469 313.792969 746.625 319.808594 748.671875 328.386719 C 750.304688 335.722656 749.707031 341.828125 746.757812 346.75 " fill-opacity="1" fill-rule="nonzero"/><path fill="#231f20" d="M 754.28125 382.15625 L 754.714844 390.308594 L 695.132812 393.355469 L 694.664062 385.21875 L 754.28125 382.152344 " fill-opacity="1" fill-rule="nonzero"/><path fill="#231f20" d="M 753.363281 440.53125 L 751.945312 449.449219 L 689.539062 461.480469 L 690.929688 452.753906 L 709.519531 449.59375 L 713.28125 426.421875 L 696.570312 417.320312 L 697.910156 409.140625 Z M 716.441406 448.136719 L 743.984375 443.328125 L 719.335938 429.710938 Z M 716.441406 448.136719 " fill-opacity="1" fill-rule="nonzero"/><path fill="#231f20" d="M 735.804688 524.386719 L 728.90625 522.683594 L 733.8125 503.324219 L 682.679688 490.625 L 684.660156 482.691406 L 735.742188 495.367188 L 740.597656 476.007812 L 747.519531 477.691406 L 735.800781 524.386719 " fill-opacity="1" fill-rule="nonzero"/><path fill="#231f20" d="M 724.101562 548.515625 L 720.804688 555.929688 L 666.1875 531.84375 L 669.511719 524.390625 L 724.105469 548.519531 " fill-opacity="1" fill-rule="nonzero"/><path fill="#231f20" d="M 642.6875 592.484375 C 644.804688 597.992188 648.570312 602.730469 653.914062 606.78125 C 659.480469 610.953125 665.152344 612.859375 670.820312 612.453125 C 676.382812 612.230469 681.148438 609.453125 684.941406 604.34375 C 688.722656 599.515625 690.09375 594.21875 688.972656 588.59375 C 687.964844 582.957031 684.175781 577.6875 677.523438 572.707031 C 672.289062 568.785156 666.757812 566.734375 661.171875 566.703125 C 655.554688 566.644531 650.484375 569.625 645.902344 575.511719 C 641.59375 581.183594 640.480469 586.882812 642.691406 592.484375 Z M 668.804688 620.808594 C 662.203125 620.769531 655.578125 618.339844 649.007812 613.355469 C 641.871094 608.0625 637.394531 601.875 635.378906 594.71875 C 633.042969 586.3125 634.777344 578.257812 640.695312 570.445312 C 646.175781 563.15625 652.988281 559.257812 661.011719 558.691406 C 668.585938 558.449219 675.867188 561.050781 682.976562 566.40625 C 689.460938 571.25 693.710938 576.960938 695.871094 583.582031 C 698.738281 592.074219 697.074219 600.320312 690.988281 608.300781 C 684.664062 616.703125 677.25 620.800781 668.804688 620.800781 " fill-opacity="1" fill-rule="nonzero"/><path fill="#231f20" d="M 652.847656 651.511719 L 645.765625 657.867188 L 590.9375 642.152344 L 623.28125 677.902344 L 617.601562 683.046875 L 577.574219 638.9375 L 584.347656 632.921875 L 639.464844 648.242188 L 607.070312 612.558594 L 612.777344 607.425781 L 652.84375 651.515625 " fill-opacity="1" fill-rule="nonzero"/><path fill="#231f20" d="M 236.695312 684.484375 L 254.386719 694.601562 L 250.628906 701.089844 L 232.964844 690.949219 L 236.695312 684.484375 " fill-opacity="1" fill-rule="nonzero"/><path fill="#231f20" d="M 307.296875 703.59375 L 308.578125 698.183594 C 313.835938 698.976562 317.597656 699 319.972656 698.34375 C 322.316406 697.71875 324.5 695.222656 326.625 691.1875 L 332.1875 692.632812 L 318.175781 748.511719 L 310.621094 746.632812 L 320.574219 706.890625 L 307.296875 703.59375 " fill-opacity="1" fill-rule="nonzero"/><path fill="#231f20" d="M 378.476562 731.074219 C 381.175781 729.464844 382.839844 726.382812 383.597656 721.71875 C 384.308594 717.5625 383.707031 714.324219 381.910156 711.921875 C 380.085938 709.511719 377.550781 708.023438 374.273438 707.488281 C 370.734375 706.933594 367.734375 707.734375 365.226562 709.6875 C 362.828125 711.75 361.300781 714.734375 360.652344 718.640625 C 360.160156 722.398438 360.433594 725.570312 362.011719 728.007812 C 363.480469 730.445312 366.160156 732.011719 370.191406 732.597656 C 373.027344 733.105469 375.835938 732.53125 378.476562 731.074219 Z M 357.296875 742.671875 C 356.972656 746.636719 358.085938 749.570312 360.652344 751.542969 C 362.011719 752.636719 363.648438 753.304688 365.449219 753.535156 C 368.878906 754.125 372.046875 753.175781 374.882812 750.726562 C 377.824219 748.21875 380.496094 742.671875 382.949219 733.988281 C 380.933594 736.328125 378.640625 737.832031 376.082031 738.476562 C 373.597656 739.117188 371.007812 739.238281 368.203125 738.734375 C 362.671875 737.863281 358.582031 735.488281 355.851562 731.546875 C 353.179688 727.597656 352.28125 722.964844 353.097656 717.5625 C 353.996094 712.382812 356.3125 708.078125 360.15625 704.617188 C 363.917969 701.183594 368.9375 699.96875 375.175781 700.90625 C 383.496094 702.242188 388.726562 706.890625 390.6875 714.945312 C 391.832031 719.347656 391.882812 724.617188 390.960938 730.808594 C 389.8125 737.828125 387.742188 743.839844 384.773438 748.9375 C 379.785156 757.304688 373.128906 760.894531 364.683594 759.558594 C 359.175781 758.6875 355.085938 756.53125 352.660156 753.175781 C 350.234375 749.8125 349.308594 745.914062 350.015625 741.480469 L 357.292969 742.671875 " fill-opacity="1" fill-rule="nonzero"/><path fill="#231f20" d="M 439.265625 748.8125 C 441.34375 745.300781 442.15625 739.050781 441.613281 729.972656 C 441.34375 723.371094 440.140625 718.070312 438.398438 713.902344 C 436.488281 709.738281 433.1875 707.789062 428.589844 708.023438 C 424.226562 708.269531 421.175781 710.398438 419.425781 714.542969 C 417.652344 718.636719 416.949219 724.664062 417.300781 732.503906 C 417.707031 738.363281 418.585938 743.078125 420.082031 746.582031 C 422.296875 751.96875 425.730469 754.433594 430.546875 754.238281 C 434.261719 754.066406 437.175781 752.214844 439.273438 748.8125 Z M 444.585938 709.925781 C 447.449219 714.484375 448.976562 720.980469 449.519531 729.253906 C 449.925781 737.09375 449.085938 743.671875 446.957031 748.9375 C 444.011719 756.503906 438.5 760.476562 430.867188 760.855469 C 423.890625 761.25 418.492188 758.445312 414.84375 752.636719 C 411.734375 747.769531 409.929688 741.066406 409.445312 732.597656 C 409.117188 726.078125 409.691406 720.332031 411.136719 715.578125 C 413.859375 706.605469 419.421875 701.96875 427.707031 701.507812 C 435.230469 701.089844 440.878906 703.949219 444.582031 709.929688 " fill-opacity="1" fill-rule="nonzero"/><path fill="#231f20" d="M 499.351562 737.097656 C 500.710938 733.335938 500.328125 727.046875 498.09375 718.148438 C 496.515625 711.828125 494.441406 706.773438 491.71875 703.074219 C 489.15625 699.3125 485.613281 698.007812 481.089844 699.136719 C 476.890625 700.15625 474.328125 702.902344 473.292969 707.285156 C 472.335938 711.636719 472.910156 717.632812 474.710938 725.253906 C 476.179688 730.992188 477.976562 735.414062 480.046875 738.550781 C 483.34375 743.421875 487.246094 745.261719 491.71875 744.117188 C 495.484375 743.230469 498.039062 740.914062 499.351562 737.097656 Z M 497.171875 697.949219 C 500.824219 701.964844 503.605469 707.953125 505.699219 715.960938 C 507.589844 723.65625 508.023438 730.242188 507.039062 735.820312 C 505.511719 743.8125 500.960938 748.691406 493.515625 750.5625 C 486.699219 752.25 480.921875 750.5625 476.066406 745.550781 C 472.144531 741.339844 469.09375 735.121094 467.015625 726.882812 C 465.382812 720.492188 464.890625 714.84375 465.328125 709.824219 C 466.363281 700.550781 470.890625 694.914062 478.988281 692.894531 C 486.347656 691.0625 492.261719 692.71875 497.167969 697.953125 " fill-opacity="1" fill-rule="nonzero"/><path fill="#231f20" d="M 552.175781 697.71875 L 569.617188 687.238281 L 573.546875 693.628906 L 555.988281 704.058594 L 552.171875 697.71875 " fill-opacity="1" fill-rule="nonzero"/><path fill="#231f20" d="M 491.910156 449.257812 C 487.847656 457.199219 482.835938 464.414062 476.996094 470.820312 C 477.707031 465.679688 478.109375 461.847656 478.109375 457.960938 C 478.109375 456.875 478.035156 455.734375 477.976562 454.558594 C 487.246094 440.808594 492.699219 424.558594 493.246094 407.660156 C 496.679688 403.449219 499.046875 399.441406 501.941406 393.984375 C 504.09375 412.855469 500.742188 431.933594 491.910156 449.257812 Z M 435.125 497.726562 C 411.734375 505.332031 386.875 503.886719 364.628906 493.757812 C 371.117188 492.613281 375.503906 491.609375 380.277344 489.734375 C 396.359375 494.429688 413.34375 494.5 429.667969 489.703125 C 434.679688 491.707031 439.261719 492.699219 445.347656 493.761719 C 442.046875 495.261719 438.664062 496.601562 435.125 497.730469 Z M 308.039062 393.960938 C 311.140625 399.792969 313.492188 403.660156 316.730469 407.632812 C 317.003906 415.890625 318.390625 424.183594 321.011719 432.246094 C 323.683594 440.3125 327.386719 447.835938 332.023438 454.695312 C 331.941406 455.84375 331.863281 456.96875 331.863281 458.019531 C 331.863281 462.109375 332.351562 466.035156 333.007812 470.863281 C 323.738281 460.691406 316.597656 448.589844 312.234375 435.117188 C 307.875 421.644531 306.511719 407.644531 308.039062 393.960938 Z M 374.875 312.203125 C 378.3125 311.078125 381.851562 310.1875 385.339844 309.453125 C 380.980469 313.925781 377.902344 317.40625 374.929688 321.980469 C 359.003906 327.730469 345.324219 337.746094 335.183594 350.929688 C 329.949219 352.292969 325.695312 354.144531 320.164062 356.855469 C 332.214844 335.578125 351.457031 319.8125 374.875 312.199219 Z M 489.863281 356.867188 C 484.300781 354.160156 480.046875 352.292969 474.789062 350.929688 C 464.289062 337.40625 450.109375 327.335938 434.246094 321.730469 C 431.359375 317.234375 428.25 313.757812 423.917969 309.3125 C 451.285156 314.796875 475.679688 331.859375 489.859375 356.867188 Z M 474.8125 452.636719 C 471.597656 453.703125 467.179688 455.160156 467.179688 455.160156 C 467.179688 455.160156 453.273438 459.632812 448.179688 461.253906 L 425.519531 430.160156 C 430.324219 418.535156 432.773438 409.800781 436.238281 397.175781 C 436.238281 397.175781 436.292969 396.972656 436.371094 396.714844 L 473.011719 384.8125 C 476.144531 389.101562 484.730469 400.839844 484.730469 400.839844 C 484.730469 400.839844 487.515625 404.710938 489.527344 407.535156 C 489.039062 423.769531 483.804688 439.429688 474.808594 452.636719 Z M 325.261719 400.839844 C 325.261719 400.839844 333.824219 389.105469 336.984375 384.8125 L 373.542969 396.671875 C 376.566406 409.359375 379.402344 418.808594 384.363281 430.214844 L 361.789062 461.253906 C 356.777344 459.632812 343.007812 455.183594 343.007812 455.183594 C 343.007812 455.183594 338.347656 453.675781 335.046875 452.59375 C 330.605469 446.050781 327.0625 438.824219 324.554688 431.128906 C 322.042969 423.386719 320.683594 415.453125 320.410156 407.542969 C 322.429688 404.761719 325.261719 400.832031 325.261719 400.832031 Z M 471.867188 353.203125 C 471.894531 356.707031 471.921875 361.523438 471.921875 361.523438 C 471.921875 361.523438 471.867188 375.972656 471.867188 381.3125 L 435.367188 393.171875 C 425.855469 384.761719 417.699219 379.144531 406.335938 372.167969 L 406.824219 372.167969 L 406.824219 334.195312 C 412.144531 332.433594 425.503906 328.046875 425.503906 328.046875 C 425.503906 328.046875 430.40625 326.488281 433.648438 325.453125 C 448.621094 330.847656 462 340.40625 471.867188 353.203125 Z M 376.023438 325.519531 C 379.238281 326.585938 383.816406 328.042969 383.816406 328.042969 C 383.816406 328.042969 398.324219 332.785156 403.113281 334.378906 L 403.113281 372.164062 L 403.554688 372.164062 C 398.046875 375.398438 393.140625 378.597656 388.339844 382.15625 L 388.28125 382.183594 C 383.621094 385.503906 379.234375 389.101562 374.59375 393.167969 L 338.125 381.308594 C 338.125 375.964844 338.066406 361.328125 338.066406 361.328125 C 338.066406 361.328125 338.066406 356.582031 338.09375 353.175781 C 347.769531 340.609375 360.804688 331.058594 376.015625 325.519531 Z M 381.316406 486.183594 C 379.238281 483.390625 376.351562 479.445312 376.351562 479.445312 C 376.351562 479.445312 367.90625 467.738281 364.796875 463.421875 L 387.472656 432.246094 C 387.636719 432.246094 387.746094 432.246094 387.746094 432.246094 C 400.914062 432.890625 410.019531 433.273438 422.585938 432.320312 L 445.210938 463.425781 C 442.097656 467.742188 433.597656 479.492188 433.597656 479.492188 C 433.597656 479.492188 430.761719 483.351562 428.691406 486.136719 C 413.046875 490.734375 396.710938 490.734375 381.316406 486.183594 Z M 501.257812 373.707031 C 484.027344 320.605469 426.78125 291.460938 373.707031 308.707031 C 320.632812 325.960938 291.460938 383.152344 308.714844 436.265625 C 317.113281 461.976562 334.9375 482.867188 359.039062 495.148438 C 383.140625 507.445312 410.589844 509.597656 436.265625 501.210938 C 462 492.886719 482.917969 475.015625 495.207031 450.933594 C 507.472656 426.820312 509.621094 399.398438 501.257812 373.707031 " fill-opacity="1" fill-rule="nonzero"/></svg>