<svg xmlns="http://www.w3.org/2000/svg" xmlns:xlink="http://www.w3.org/1999/xlink" width="1080" zoomAndPan="magnify" viewBox="0 0 810 809.999993" height="1080" preserveAspectRatio="xMidYMid meet" version="1.0"><path fill="#1b2b56" d="M 77.066406 63.257812 C 187.148438 120.097656 297.230469 110.183594 406.65625 1.113281 C 516.171875 110.183594 626.253906 120.097656 736.441406 63.257812 C 845.484375 408.875 669.789062 679.332031 406.65625 808.035156 C 143.71875 679.320312 -32.070312 408.875 77.066406 63.257812 Z M 77.066406 63.257812 " fill-opacity="1" fill-rule="evenodd"/><path fill="#ffffff" d="M 189.222656 117.265625 L 200.457031 117.738281 L 211.695312 117.738281 L 222.933594 117.175781 L 234.171875 116.136719 L 245.394531 114.523438 L 256.632812 112.453125 L 267.871094 109.804688 L 279.109375 106.589844 L 290.242188 102.917969 L 301.386719 98.667969 L 312.429688 93.839844 L 323.480469 88.554688 L 334.523438 82.613281 L 345.472656 76.1875 L 356.433594 69.199219 L 367.292969 61.644531 L 378.148438 53.617188 L 389.007812 44.933594 L 399.757812 35.675781 L 406.65625 29.351562 L 413.738281 35.675781 L 424.503906 44.933594 L 435.269531 53.617188 L 446.125 61.644531 L 456.984375 69.199219 L 467.933594 76.1875 L 478.972656 82.613281 L 489.921875 88.554688 L 500.976562 93.839844 L 512.109375 98.667969 L 523.253906 102.917969 L 534.398438 106.589844 L 545.53125 109.804688 L 556.769531 112.453125 L 568.007812 114.523438 L 579.246094 116.136719 L 590.46875 117.175781 L 601.707031 117.738281 L 612.945312 117.738281 L 624.183594 117.265625 L 635.421875 116.320312 L 646.554688 114.8125 L 657.699219 112.925781 L 668.832031 110.472656 L 679.976562 107.640625 L 691.019531 104.332031 L 702.074219 100.558594 L 713.019531 96.398438 L 723.5 91.953125 L 726.054688 100.648438 L 733.609375 131.523438 L 739.640625 161.832031 L 744.085938 191.683594 L 747.101562 221.050781 L 748.609375 249.851562 L 748.714844 278.089844 L 747.480469 305.839844 L 744.9375 333.042969 L 741.160156 359.667969 L 735.96875 385.742188 L 729.636719 411.238281 L 722.175781 436.15625 L 713.492188 460.527344 L 703.671875 484.316406 L 692.816406 507.558594 L 680.921875 530.222656 L 667.886719 552.214844 L 653.921875 573.554688 L 639.09375 594.332031 L 623.238281 614.449219 L 606.519531 633.898438 L 588.871094 652.601562 L 570.460938 670.726562 L 551.289062 688.105469 L 531.371094 704.816406 L 510.691406 720.777344 L 489.265625 735.976562 L 467.261719 750.429688 L 444.710938 764.125 L 421.472656 777.054688 L 406.65625 784.609375 L 392.023438 777.054688 L 368.800781 764.125 L 346.140625 750.429688 L 324.136719 735.976562 L 302.804688 720.777344 L 282.125 704.816406 L 262.113281 688.105469 L 242.945312 670.726562 L 224.535156 652.601562 L 206.976562 633.898438 L 190.269531 614.449219 L 174.402344 594.332031 L 159.480469 573.554688 L 145.515625 552.214844 L 132.574219 530.222656 L 120.679688 507.558594 L 109.730469 484.316406 L 100.003906 460.527344 L 91.320312 436.15625 L 83.769531 411.238281 L 77.449219 385.742188 L 72.347656 359.667969 L 68.480469 333.042969 L 65.921875 305.839844 L 64.703125 278.089844 L 64.886719 249.851562 L 66.394531 221.050781 L 69.320312 191.683594 L 73.855469 161.832031 L 79.808594 131.523438 L 87.363281 100.648438 L 89.90625 91.953125 L 100.382812 96.398438 L 111.4375 100.558594 L 122.476562 104.332031 L 133.519531 107.640625 L 144.574219 110.472656 L 155.703125 112.925781 L 166.851562 114.8125 L 178.089844 116.320312 Z M 189.222656 117.265625 " fill-opacity="1" fill-rule="evenodd"/><path fill="#ca2127" d="M 516.554688 152.390625 C 570.75 167.027344 633.058594 166.84375 692.449219 152.953125 C 728.035156 299.035156 700.65625 434.832031 627.304688 545.410156 C 612.015625 477.039062 573.109375 420.195312 516.933594 387.996094 L 516.554688 387.8125 Z M 516.554688 152.390625 " fill-opacity="1" fill-rule="evenodd"/><path fill="#fcd404" d="M 296.378906 152.496094 C 340.660156 140.691406 379.460938 118.972656 406.65625 86.957031 C 433.945312 118.878906 472.5625 140.492188 516.554688 152.402344 L 516.554688 387.824219 C 484.636719 369.59375 447.253906 359.3125 405.527344 359.3125 C 364.746094 359.3125 328.109375 369.136719 296.667969 386.605469 C 296.574219 386.605469 296.484375 386.699219 296.378906 386.789062 Z M 296.378906 152.496094 " fill-opacity="1" fill-rule="evenodd"/><path fill="#214290" d="M 184.316406 542.679688 C 112.277344 432.578125 85.65625 297.8125 120.96875 152.964844 C 180.160156 166.84375 242.289062 167.039062 296.390625 152.496094 L 296.390625 386.777344 C 239.730469 418.214844 200.273438 474.597656 184.316406 542.679688 Z M 184.316406 542.679688 " fill-opacity="1" fill-rule="evenodd"/><path fill="#ca2127" d="M 578.867188 607.550781 C 570.839844 616.339844 562.632812 624.929688 554.03125 633.230469 C 535.054688 592.914062 520.042969 521.421875 537.601562 502.0625 C 560.257812 527.480469 579.902344 556.28125 578.867188 607.550781 Z M 578.867188 607.550781 " fill-opacity="1" fill-rule="evenodd"/><path fill="#214290" d="M 233.882812 606.804688 C 223.679688 595.472656 214.058594 583.851562 204.996094 571.957031 C 219.917969 462.125 295.628906 378.660156 405.527344 378.660156 C 516.277344 378.660156 592.371094 463.554688 606.335938 574.695312 C 600.015625 583.011719 593.300781 591.128906 586.328125 599.15625 C 588.214844 574.695312 587.179688 550.050781 576.414062 524.464844 C 568.769531 506.339844 553.9375 487.726562 536.289062 468.460938 C 545.164062 473.183594 556.585938 480.738281 569.242188 489.707031 C 553.28125 459.199219 527.882812 437.480469 497.578125 420.300781 L 502.484375 434.648438 C 510.691406 438.136719 518.914062 443.148438 527.121094 455.238281 C 518.335938 448.917969 509.183594 444.289062 499.835938 441.363281 L 439.976562 458.648438 L 373.324219 435.699219 C 361.707031 439.003906 351.792969 442.6875 343.203125 446.648438 L 352.460938 437.679688 C 358.414062 433.902344 364.445312 430.214844 370.492188 426.4375 L 385.597656 403.394531 C 337.539062 410.949219 294.203125 437.574219 269.65625 477.234375 L 296.851562 477.050781 C 305.347656 469.679688 315.351562 462.324219 326.40625 454.769531 C 326.40625 455.421875 326.40625 456 326.117188 456.183594 C 314.789062 465.15625 307.144531 474.035156 302.226562 483.003906 L 300.523438 546.367188 L 264.933594 588.953125 C 264.460938 602.644531 264.277344 615.957031 265.589844 626.816406 C 261.433594 615.484375 258.417969 602.738281 255.675781 589.515625 L 229.347656 573.082031 C 229.347656 585.554688 230.867188 596.886719 233.882812 606.804688 Z M 233.882812 606.804688 " fill-opacity="1" fill-rule="evenodd"/><path fill="#ca2127" d="M 406.65625 737.589844 C 377.386719 722.574219 349.824219 705.667969 324.046875 687.160156 C 300.351562 655.34375 291.472656 619.261719 293.925781 593.019531 C 296.195312 568.28125 309.976562 548.347656 336.226562 533.527344 C 322.539062 552.976562 312.0625 573.566406 314.511719 596.414062 L 315.550781 596.414062 C 321.972656 556.097656 346.703125 544.570312 371.90625 542.878906 C 394.1875 541.371094 418.261719 547.78125 438.847656 540.898438 L 464.902344 556.949219 L 448.289062 532.871094 C 462.921875 509.828125 482.367188 490.941406 512.199219 483.675781 C 484.53125 510.207031 499.546875 584.625 547.421875 639.488281 C 541.101562 645.441406 534.582031 651.199219 527.976562 656.863281 C 499.558594 643.355469 474.34375 615.027344 452.15625 577.359375 C 462.359375 618.34375 477.464844 654.03125 500.492188 678.964844 C 496.621094 681.890625 492.753906 684.722656 488.78125 687.648438 C 456.773438 665.929688 426.652344 622.015625 414.105469 561.765625 C 407.496094 608.980469 428.359375 666.765625 484.257812 690.847656 C 477.464844 695.660156 470.566406 700.289062 463.488281 704.828125 C 430.625 683.292969 383.890625 629.664062 374.832031 565.449219 C 368.222656 617.675781 382.566406 681.691406 455.082031 710.21875 C 446.769531 715.414062 438.269531 720.421875 429.589844 725.328125 C 395.417969 705.785156 362.847656 664.800781 347.636719 600.207031 C 345.09375 659.988281 365.011719 706.0625 423.453125 728.726562 C 417.984375 731.726562 412.320312 734.757812 406.65625 737.589844 Z M 406.65625 737.589844 " fill-opacity="1" fill-rule="evenodd"/><path fill="#ca2127" d="M 430.730469 524.554688 C 449.140625 504.34375 470.765625 488.761719 497.003906 479.699219 C 471.695312 472.433594 450.742188 470.820312 430.730469 476.683594 L 430.730469 489.144531 L 445.273438 488.109375 L 430.730469 497.929688 Z M 380.40625 508.871094 C 395.417969 509.996094 403.246094 508.960938 408.441406 511.519531 C 414.667969 514.445312 417.59375 524.648438 422.980469 533.527344 C 425.523438 530.40625 428.082031 527.386719 430.71875 524.554688 L 430.71875 497.929688 L 426.5625 500.855469 L 416.269531 490.285156 L 430.71875 489.15625 L 430.71875 476.695312 C 413.921875 481.589844 397.871094 491.976562 380.40625 508.871094 Z M 380.40625 508.871094 " fill-opacity="1" fill-rule="evenodd"/><path fill="#1b2b56" d="M 622.007812 316.609375 L 627.960938 298.285156 L 634.949219 298.285156 L 640.902344 316.609375 L 681.878906 316.609375 L 656.097656 237.941406 L 655.535156 236.527344 L 654.878906 235.015625 L 654.222656 233.507812 L 652.519531 230.859375 L 651.484375 229.535156 L 650.449219 228.40625 L 649.320312 227.277344 L 648.085938 226.335938 L 646.855469 225.390625 L 645.53125 224.539062 L 644.207031 223.882812 L 642.789062 223.226562 L 641.375 222.664062 L 639.957031 222.191406 L 638.449219 221.902344 L 637.035156 221.519531 L 635.617188 221.335938 L 634.109375 221.246094 L 632.601562 221.152344 L 629.675781 221.152344 L 628.167969 221.335938 L 626.753906 221.429688 L 625.246094 221.613281 L 622.230469 222.191406 L 620.8125 222.570312 L 619.304688 222.949219 L 616.289062 223.894531 L 611.660156 225.496094 L 602.402344 223.132812 L 600.421875 222.664062 L 598.441406 222.28125 L 596.554688 221.902344 L 594.757812 221.71875 L 593.054688 221.535156 L 591.347656 221.351562 L 588.136719 221.351562 L 586.535156 221.441406 L 585.027344 221.625 L 583.613281 221.808594 L 582.195312 222.191406 L 580.78125 222.570312 L 579.457031 223.042969 L 578.132812 223.605469 L 576.898438 224.261719 L 575.769531 224.917969 L 574.734375 225.769531 L 573.699219 226.53125 L 572.753906 227.476562 L 571.902344 228.421875 L 571.140625 229.363281 L 570.488281 230.308594 L 569.921875 231.253906 L 569.359375 232.199219 L 568.980469 233.140625 L 568.597656 234.085938 L 568.21875 234.9375 L 567.929688 235.882812 L 567.640625 236.644531 L 567.457031 237.402344 L 564.71875 248.265625 L 562.171875 237.496094 L 561.988281 236.644531 L 561.699219 235.699219 L 561.414062 234.664062 L 561.03125 233.625 L 560.558594 232.589844 L 559.996094 231.644531 L 559.433594 230.609375 L 558.777344 229.574219 L 558.015625 228.539062 L 556.3125 226.648438 L 555.277344 225.703125 L 554.148438 224.945312 L 553.019531 224.183594 L 551.789062 223.527344 L 550.464844 222.964844 L 547.816406 222.019531 L 544.980469 221.441406 L 543.472656 221.257812 L 541.964844 221.167969 L 538.859375 221.167969 L 537.257812 221.257812 L 533.851562 221.625 L 532.054688 221.914062 L 530.164062 222.203125 L 528.277344 222.675781 L 526.203125 223.148438 L 515.441406 225.890625 L 516.292969 228.539062 L 514.496094 227.304688 L 512.605469 226.074219 L 510.535156 224.945312 L 508.359375 223.910156 L 506.183594 222.964844 L 503.914062 222.203125 L 501.554688 221.441406 L 499.191406 220.878906 L 496.742188 220.5 L 494.289062 220.117188 L 491.746094 219.933594 L 489.199219 219.933594 L 489.199219 255.910156 L 489.84375 255.910156 L 489.933594 256.003906 L 490.027344 256.003906 L 490.117188 256.09375 L 490.210938 256.09375 L 490.300781 256.1875 L 490.394531 256.277344 L 490.484375 256.371094 L 490.667969 256.554688 L 490.851562 256.839844 L 491.035156 257.023438 L 491.21875 257.40625 L 491.402344 257.785156 L 491.585938 258.167969 L 491.875 258.636719 L 492.058594 259.203125 L 492.242188 259.765625 L 492.425781 260.332031 L 492.609375 260.984375 L 492.703125 261.746094 L 492.886719 262.402344 L 492.976562 263.253906 L 493.160156 264.015625 L 493.253906 264.867188 L 493.34375 265.71875 L 493.34375 266.664062 L 493.4375 267.609375 L 493.4375 271.386719 L 493.34375 272.332031 L 493.34375 273.273438 L 493.253906 274.128906 L 493.160156 274.980469 L 492.976562 275.742188 L 492.886719 276.59375 L 492.703125 277.25 L 492.519531 278.011719 L 492.335938 278.664062 L 492.152344 279.230469 L 491.96875 279.792969 L 491.785156 280.359375 L 491.601562 280.828125 L 491.417969 281.210938 L 491.128906 281.589844 L 490.945312 281.96875 L 490.761719 282.257812 L 490.578125 282.441406 L 490.484375 282.625 L 490.300781 282.71875 L 490.027344 282.992188 L 489.933594 282.992188 L 489.84375 283.085938 L 489.660156 283.085938 L 489.566406 283.175781 L 489.199219 283.175781 L 489.199219 318.878906 L 491.851562 318.878906 L 494.5 318.695312 L 497.042969 318.3125 L 499.585938 317.933594 L 502.039062 317.371094 L 504.398438 316.714844 L 506.667969 315.859375 L 508.9375 315.007812 L 511.113281 313.972656 L 513.183594 312.738281 L 515.164062 311.507812 L 517.050781 310.183594 L 518.847656 308.765625 L 520.554688 307.164062 L 522.152344 305.566406 L 523.660156 303.859375 L 525.078125 302.0625 L 526.402344 300.175781 L 527.632812 298.285156 L 528.761719 296.304688 L 529.796875 294.324219 L 530.648438 292.253906 L 531.503906 290.074219 L 532.261719 287.898438 L 532.917969 285.722656 L 533.484375 283.453125 L 533.769531 282.035156 L 545.191406 316.976562 Z M 489.175781 219.90625 L 486.433594 219.90625 L 483.890625 220.089844 L 481.4375 220.472656 L 478.984375 220.851562 L 476.625 221.417969 L 474.265625 222.175781 L 471.996094 222.9375 L 469.820312 223.882812 L 467.644531 224.917969 L 465.664062 226.046875 L 463.683594 227.277344 L 461.796875 228.605469 L 460 230.019531 L 458.292969 231.527344 L 456.589844 233.128906 L 455.082031 234.832031 L 453.664062 236.628906 L 452.339844 238.425781 L 451.015625 240.40625 L 449.890625 242.296875 L 448.851562 244.367188 L 448.761719 244.460938 L 447.816406 242.480469 L 446.6875 240.5 L 445.457031 238.609375 L 444.039062 236.8125 L 442.53125 235.109375 L 440.933594 233.402344 L 439.226562 231.894531 L 437.433594 230.386719 L 435.542969 229.0625 L 433.5625 227.828125 L 431.492188 226.703125 L 429.222656 225.664062 L 426.953125 224.8125 L 424.6875 223.960938 L 422.234375 223.304688 L 419.78125 222.742188 L 417.132812 222.269531 L 414.484375 221.886719 L 411.742188 221.601562 L 411.742188 259.738281 L 411.925781 260.304688 L 412.019531 260.867188 L 412.203125 261.628906 L 412.292969 262.390625 L 412.386719 263.242188 L 412.386719 264.1875 L 412.476562 265.128906 L 412.476562 266.257812 L 412.386719 267.765625 L 412.476562 269.273438 L 412.476562 270.3125 L 412.386719 271.347656 L 412.386719 272.292969 L 412.292969 273.234375 L 412.203125 274.089844 L 412.019531 274.941406 L 411.925781 275.703125 L 411.742188 276.355469 L 411.742188 316.203125 L 412.871094 316.109375 L 415.519531 315.730469 L 418.0625 315.351562 L 420.609375 314.785156 L 422.96875 314.128906 L 425.328125 313.371094 L 427.597656 312.515625 L 429.773438 311.480469 L 431.84375 310.445312 L 433.917969 309.210938 L 435.804688 307.980469 L 437.601562 306.5625 L 439.308594 305.054688 L 441.011719 303.453125 L 442.519531 301.855469 L 443.933594 300.058594 L 445.261719 298.261719 L 446.386719 296.371094 L 447.515625 294.484375 L 448.078125 293.445312 L 448.367188 294.300781 L 449.402344 296.28125 L 450.53125 298.261719 L 451.765625 300.148438 L 453.089844 302.039062 L 454.503906 303.835938 L 456.011719 305.539062 L 457.613281 307.140625 L 459.316406 308.738281 L 461.113281 310.15625 L 463 311.480469 L 464.980469 312.714844 L 467.054688 313.945312 L 469.230469 314.984375 L 471.5 315.835938 L 473.765625 316.6875 L 476.128906 317.34375 L 478.578125 317.90625 L 481.125 318.289062 L 483.667969 318.667969 L 486.316406 318.851562 L 489.148438 318.851562 L 489.148438 283.152344 L 488.792969 283.152344 L 488.703125 283.058594 L 488.519531 283.058594 L 488.425781 282.96875 L 488.335938 282.96875 L 488.058594 282.691406 L 487.875 282.601562 L 487.507812 282.234375 L 487.324219 281.945312 L 487.140625 281.5625 L 486.773438 280.804688 L 486.589844 280.332031 L 486.300781 279.765625 L 485.933594 278.640625 L 485.75 277.984375 L 485.660156 277.222656 L 485.476562 276.460938 L 485.382812 275.703125 L 485.199219 274.941406 L 485.109375 274.089844 L 485.015625 273.234375 L 485.015625 272.292969 L 484.925781 271.347656 L 484.925781 266.625 L 485.015625 265.679688 L 485.109375 264.828125 L 485.199219 263.976562 L 485.292969 263.214844 L 485.476562 262.363281 L 485.566406 261.707031 L 485.75 260.945312 L 485.933594 260.289062 L 486.300781 259.164062 L 486.484375 258.597656 L 486.667969 258.125 L 486.957031 257.746094 L 487.140625 257.367188 L 487.324219 256.984375 L 487.507812 256.800781 L 487.691406 256.511719 L 487.785156 256.328125 L 487.96875 256.238281 L 488.058594 256.144531 L 488.152344 256.054688 L 488.242188 256.054688 L 488.335938 255.960938 L 488.425781 255.960938 L 488.519531 255.871094 L 489.175781 255.871094 Z M 411.757812 221.613281 L 409.015625 221.429688 C 396.558594 221.140625 383.054688 221.808594 370.78125 223.972656 L 370.78125 283.175781 L 369.835938 282.707031 L 368.707031 282.140625 L 367.476562 281.761719 L 366.242188 281.472656 L 365.011719 281.183594 L 363.882812 281.09375 L 362.648438 281 L 350.191406 281 L 350.191406 243.136719 L 350.101562 241.0625 L 349.917969 238.992188 L 349.535156 237.101562 L 349.066406 235.214844 L 348.410156 233.417969 L 347.558594 231.621094 L 346.613281 230.019531 L 345.578125 228.511719 L 344.34375 227.1875 L 343.019531 225.953125 L 341.605469 224.917969 L 340.1875 223.972656 L 338.679688 223.214844 L 337.261719 222.648438 L 335.753906 222.175781 L 334.339844 221.796875 L 332.921875 221.507812 L 331.507812 221.324219 L 330.183594 221.140625 L 328.859375 221.140625 L 327.535156 221.050781 L 326.300781 221.140625 L 325.070312 221.140625 L 323.941406 221.234375 L 322.8125 221.324219 L 321.6875 221.417969 L 320.648438 221.507812 L 319.707031 221.691406 L 318.761719 221.785156 L 317.910156 221.875 L 309.699219 223.003906 L 309.699219 240.566406 L 309.609375 240.277344 L 308.285156 238.425781 L 306.960938 236.628906 L 305.542969 234.832031 L 303.945312 233.128906 L 302.34375 231.527344 L 300.640625 230.019531 L 298.75 228.605469 L 296.863281 227.277344 L 294.882812 225.953125 L 292.8125 224.828125 L 290.738281 223.882812 L 288.472656 222.9375 L 286.203125 222.175781 L 283.84375 221.417969 L 281.480469 220.851562 L 279.03125 220.472656 L 276.484375 220.089844 L 273.941406 219.90625 L 271.398438 219.90625 L 271.398438 255.882812 L 272.144531 255.882812 L 272.238281 255.976562 L 272.328125 255.976562 L 272.421875 256.066406 L 272.511719 256.066406 L 272.878906 256.433594 L 272.972656 256.617188 L 273.15625 256.800781 L 273.523438 257.378906 L 273.707031 257.757812 L 273.996094 258.230469 L 274.179688 258.613281 L 274.546875 259.738281 L 274.730469 260.304688 L 274.914062 260.960938 L 275.097656 261.71875 L 275.1875 262.480469 L 275.371094 263.242188 L 275.464844 264.003906 L 275.554688 264.855469 L 275.648438 265.707031 L 275.738281 266.652344 L 275.738281 267.597656 L 275.832031 268.539062 L 275.832031 270.429688 L 275.738281 271.375 L 275.738281 272.316406 L 275.648438 273.261719 L 275.554688 274.113281 L 275.464844 274.96875 L 275.371094 275.726562 L 275.003906 277.25 L 274.914062 278.011719 L 274.730469 278.574219 L 274.546875 279.230469 L 274.363281 279.792969 L 274.074219 280.265625 L 273.707031 281.210938 L 273.523438 281.589844 L 273.339844 281.878906 L 273.050781 282.167969 L 272.957031 282.457031 L 272.777344 282.640625 L 272.59375 282.730469 L 272.316406 283.007812 L 272.226562 283.007812 L 272.132812 283.097656 L 271.765625 283.097656 L 271.582031 283.191406 L 271.398438 283.191406 L 271.398438 318.890625 L 274.046875 318.890625 L 276.695312 318.707031 L 279.34375 318.328125 L 281.796875 317.945312 L 284.339844 317.382812 L 286.699219 316.726562 L 289.0625 315.875 L 291.328125 315.023438 L 293.507812 313.984375 L 295.578125 312.859375 L 297.558594 311.53125 L 299.445312 310.207031 L 301.242188 308.792969 L 303.039062 307.285156 L 304.640625 305.578125 L 306.148438 303.875 L 307.5625 302.078125 L 308.886719 300.28125 L 309.738281 298.863281 L 309.738281 316.621094 L 376.207031 316.242188 C 387.539062 316.242188 398.957031 316.898438 410.195312 316.332031 L 411.796875 316.242188 L 411.796875 276.398438 L 411.613281 277.050781 L 411.324219 277.707031 L 411.140625 278.179688 L 411.046875 278.363281 L 411.046875 257.96875 L 411.140625 258.0625 L 411.507812 258.820312 L 411.597656 259.203125 L 411.78125 259.582031 L 411.78125 221.613281 Z M 271.359375 219.90625 L 268.617188 219.90625 L 266.074219 220.089844 L 263.53125 220.472656 L 261.078125 220.851562 L 258.71875 221.417969 L 256.359375 222.175781 L 254.089844 222.9375 L 251.820312 223.882812 L 249.75 224.828125 L 247.675781 225.953125 L 245.699219 227.277344 L 243.808594 228.605469 L 241.921875 230.019531 L 240.214844 231.527344 L 238.617188 233.128906 L 237.015625 234.832031 L 235.601562 236.628906 L 234.183594 238.425781 L 232.953125 240.316406 L 230.695312 244.277344 L 230.40625 244.933594 L 228.898438 223.683594 L 220.875 222.558594 L 219.644531 222.375 L 218.515625 222.191406 L 217.386719 222.097656 L 216.234375 221.902344 L 215.105469 221.808594 L 213.976562 221.71875 L 212.851562 221.535156 L 211.722656 221.535156 L 210.6875 221.441406 L 207.394531 221.441406 L 206.269531 221.535156 L 205.140625 221.625 L 202.882812 221.992188 L 201.757812 222.28125 L 200.523438 222.664062 L 199.398438 223.132812 L 198.269531 223.605469 L 197.140625 224.261719 L 196.105469 224.917969 L 195.070312 225.769531 L 193.941406 226.625 L 193.089844 227.566406 L 192.238281 228.511719 L 191.476562 229.640625 L 190.714844 230.675781 L 189.589844 232.933594 L 189.117188 234.058594 L 183.636719 248.605469 L 177.96875 233.785156 L 177.5 232.65625 L 176.933594 231.527344 L 176.277344 230.402344 L 175.625 229.273438 L 174.863281 228.238281 L 174.011719 227.292969 L 172.121094 225.402344 L 171.085938 224.644531 L 169.957031 223.988281 L 168.832031 223.332031 L 166.574219 222.386719 L 165.449219 222.007812 L 164.320312 221.71875 L 163.085938 221.535156 L 162.050781 221.441406 L 160.925781 221.351562 L 159.796875 221.257812 L 156.503906 221.257812 L 155.46875 221.351562 L 154.339844 221.441406 L 153.214844 221.535156 L 152.179688 221.71875 L 151.050781 221.808594 L 149.921875 221.992188 L 148.792969 222.085938 L 147.5625 222.269531 L 146.433594 222.453125 L 138.410156 223.582031 L 131.984375 316.414062 L 171.257812 316.414062 L 172.199219 302.535156 L 195.238281 302.535156 L 196.183594 316.414062 L 235.546875 316.414062 L 234.421875 301.210938 L 235.078125 302.0625 L 236.492188 303.859375 L 238 305.566406 L 239.601562 307.269531 L 241.398438 308.777344 L 243.191406 310.195312 L 245.082031 311.519531 L 247.0625 312.84375 L 249.132812 313.972656 L 251.308594 315.007812 L 253.578125 315.859375 L 255.9375 316.714844 L 258.300781 317.371094 L 260.75 317.933594 L 263.292969 318.3125 L 265.945312 318.695312 L 268.59375 318.878906 L 271.425781 318.878906 L 271.425781 283.175781 L 271.136719 283.175781 L 270.953125 283.085938 L 270.675781 283.085938 L 270.585938 282.992188 L 270.492188 282.992188 L 270.308594 282.808594 L 270.125 282.71875 L 270.035156 282.625 L 269.851562 282.441406 L 269.667969 282.15625 L 269.300781 281.578125 L 269.117188 281.195312 L 268.933594 280.726562 L 268.644531 280.253906 L 268.460938 279.78125 L 268.277344 279.214844 L 268.09375 278.5625 L 267.726562 277.25 L 267.636719 276.488281 L 267.453125 275.726562 L 267.359375 274.96875 L 267.269531 274.113281 L 267.175781 273.261719 L 267.085938 272.316406 L 267.085938 271.375 L 266.992188 270.429688 L 266.992188 267.597656 L 267.085938 266.652344 L 267.175781 265.800781 L 267.269531 264.855469 L 267.359375 264.003906 L 267.453125 263.242188 L 267.542969 262.480469 L 267.726562 261.71875 L 267.910156 260.960938 L 268.09375 260.304688 L 268.277344 259.738281 L 268.644531 258.613281 L 268.828125 258.140625 L 269.011719 257.757812 L 269.300781 257.378906 L 269.667969 256.800781 L 269.757812 256.617188 L 270.125 256.25 L 270.21875 256.160156 L 270.308594 256.066406 L 270.402344 256.066406 L 270.492188 255.976562 L 270.585938 255.976562 L 270.675781 255.882812 L 271.425781 255.882812 L 271.425781 219.90625 Z M 271.359375 219.90625 " fill-opacity="1" fill-rule="evenodd"/><path fill="#ffffff" d="M 318.289062 308.109375 L 370.871094 308.109375 C 370.871094 295.648438 370.308594 289.511719 361.429688 289.511719 L 341.695312 289.511719 L 341.695312 244.945312 C 342.257812 226.441406 326.683594 229.363281 318.277344 230.492188 L 318.277344 308.109375 Z M 318.289062 308.109375 " fill-opacity="1" fill-rule="evenodd"/><path fill="#ffffff" d="M 271.359375 310.378906 C 296.5625 310.289062 308.941406 291.964844 308.941406 269.394531 C 308.941406 246.820312 295.160156 228.5 271.359375 228.40625 L 271.359375 247.292969 C 280.511719 247.292969 284.394531 257.207031 284.394531 269.484375 C 284.394531 281.761719 280.328125 291.675781 271.359375 291.675781 Z M 271.265625 310.378906 L 271.359375 310.378906 L 271.359375 291.675781 C 262.296875 291.675781 258.324219 281.761719 258.324219 269.484375 C 258.324219 257.207031 262.195312 247.292969 271.359375 247.292969 L 271.359375 228.40625 L 271.265625 228.40625 C 247.375 228.40625 233.59375 246.820312 233.59375 269.394531 C 233.59375 292.054688 246.066406 310.378906 271.265625 310.378906 Z M 271.265625 310.378906 " fill-opacity="1" fill-rule="evenodd"/><path fill="#ffffff" d="M 489.175781 310.378906 C 514.101562 310.289062 526.375 291.964844 526.375 269.394531 C 526.375 246.820312 512.683594 228.5 489.175781 228.40625 L 489.175781 247.292969 C 498.234375 247.292969 502.101562 257.207031 502.101562 269.484375 C 502.101562 281.761719 498.144531 291.675781 489.175781 291.675781 Z M 489.082031 310.378906 L 489.175781 310.378906 L 489.175781 291.675781 C 480.207031 291.675781 476.246094 281.761719 476.246094 269.484375 C 476.246094 257.207031 480.113281 247.292969 489.175781 247.292969 L 489.175781 228.40625 L 489.082031 228.40625 C 465.480469 228.40625 451.789062 246.820312 451.789062 269.394531 C 451.789062 292.054688 464.15625 310.378906 489.082031 310.378906 Z M 489.082031 310.378906 " fill-opacity="1" fill-rule="evenodd"/><path fill="#ffffff" d="M 551.289062 308.492188 L 577.34375 308.492188 L 602.273438 231.910156 C 581.59375 226.335938 577.253906 233.324219 575.746094 239.554688 L 564.507812 284.226562 L 553.9375 239.554688 C 552.140625 232.09375 547.039062 226.335938 526.375 231.910156 Z M 551.289062 308.492188 " fill-opacity="1" fill-rule="evenodd"/><path fill="#ffffff" d="M 631.171875 289.789062 L 641.085938 289.789062 L 647.128906 308.109375 L 670.078125 308.109375 L 647.980469 240.773438 C 645.4375 232.75 639.105469 229.535156 631.171875 229.625 L 631.171875 249.273438 C 631.644531 251.921875 631.828125 254.558594 632.589844 257.207031 L 637.21875 274.769531 L 631.171875 274.769531 Z M 592.832031 308.109375 L 615.777344 308.109375 L 621.824219 289.789062 L 631.171875 289.789062 L 631.171875 274.769531 L 625.035156 274.769531 L 629.664062 257.207031 C 630.425781 254.558594 630.699219 251.921875 631.171875 249.273438 L 631.171875 229.640625 C 627.015625 229.730469 622.386719 230.769531 617.664062 232.472656 Z M 592.832031 308.109375 " fill-opacity="1" fill-rule="evenodd"/><path fill="#ffffff" d="M 411.757812 307.636719 C 435.070312 305.277344 444.894531 289.511719 444.984375 267.792969 C 444.894531 246.164062 434.886719 232.289062 411.757812 230.203125 L 411.757812 248.238281 C 418.367188 250.597656 421.488281 257.117188 421.015625 267.78125 C 421.488281 278.457031 418.367188 286.101562 411.757812 289.117188 Z M 379.367188 308.109375 C 388.808594 308.109375 398.066406 308.203125 407.21875 307.925781 C 408.726562 307.925781 410.234375 307.835938 411.757812 307.636719 L 411.757812 289.132812 C 409.109375 290.363281 406.09375 290.835938 402.5 290.546875 L 402.5 247.292969 C 406.09375 247.003906 409.109375 247.292969 411.757812 248.238281 L 411.757812 230.203125 C 409.109375 230.019531 406.277344 229.914062 403.445312 229.914062 C 395.128906 230.097656 386.632812 230.769531 379.367188 231.421875 Z M 379.367188 308.109375 " fill-opacity="1" fill-rule="evenodd"/><path fill="#ffffff" d="M 141.070312 307.835938 L 163.167969 307.835938 L 165.816406 269.878906 L 175.074219 293.957031 L 191.214844 293.957031 L 201.507812 269.222656 L 204.15625 307.847656 L 226.25 307.847656 L 220.875 231.175781 C 207.839844 229.285156 200.578125 228.433594 197.089844 237.3125 L 183.6875 272.816406 L 170.089844 237.023438 C 166.601562 228.144531 159.414062 229.179688 146.394531 231.070312 Z M 141.070312 307.835938 " fill-opacity="1" fill-rule="evenodd"/></svg>