<?xml version="1.0" encoding="utf-8"?>
<!-- Generator: Adobe Illustrator 23.0.1, SVG Export Plug-In . SVG Version: 6.00 Build 0)  -->
<svg version="1.1" id="Layer_1" xmlns="http://www.w3.org/2000/svg" xmlns:xlink="http://www.w3.org/1999/xlink" x="0px" y="0px"
	 viewBox="0 0 612 792" style="enable-background:new 0 0 612 792;" xml:space="preserve">
<style type="text/css">
	.st0{fill-rule:evenodd;clip-rule:evenodd;fill:#1B2B56;}
	.st1{fill-rule:evenodd;clip-rule:evenodd;fill:#FFFFFF;}
	.st2{fill-rule:evenodd;clip-rule:evenodd;fill:#CA2127;}
	.st3{fill-rule:evenodd;clip-rule:evenodd;fill:#FCD404;}
	.st4{fill-rule:evenodd;clip-rule:evenodd;fill:#214290;}
</style>
<path class="st0" d="M55.87,136.44c83.95,43.34,167.9,35.78,251.35-47.38c83.52,83.16,167.47,90.72,251.5,47.38
	c83.16,263.52-50.83,469.73-251.5,567.86C106.7,606.16-27.36,399.96,55.87,136.44z"/>
<polygon class="st1" points="141.4,177.62 149.97,177.98 158.54,177.98 167.11,177.55 175.68,176.76 184.24,175.53 192.81,173.95 
	201.38,171.93 209.95,169.48 218.44,166.68 226.94,163.44 235.36,159.76 243.79,155.73 252.21,151.2 260.56,146.3 268.92,140.97 
	277.2,135.21 285.48,129.09 293.76,122.47 301.96,115.41 307.22,110.59 312.62,115.41 320.83,122.47 329.04,129.09 337.32,135.21 
	345.6,140.97 353.95,146.3 362.37,151.2 370.72,155.73 379.15,159.76 387.64,163.44 396.14,166.68 404.64,169.48 413.13,171.93 
	421.7,173.95 430.27,175.53 438.84,176.76 447.4,177.55 455.97,177.98 464.54,177.98 473.11,177.62 481.68,176.9 490.17,175.75 
	498.67,174.31 507.16,172.44 515.66,170.28 524.08,167.76 532.51,164.88 540.86,161.71 548.85,158.32 550.8,164.95 556.56,188.49 
	561.16,211.6 564.55,234.36 566.85,256.75 568,278.71 568.08,300.24 567.14,321.4 565.2,342.14 562.32,362.44 558.36,382.32 
	553.53,401.76 547.84,420.76 541.22,439.34 533.73,457.48 525.45,475.2 516.38,492.48 506.44,509.25 495.79,525.52 484.48,541.36 
	472.39,556.7 459.64,571.53 446.18,585.79 432.14,599.61 417.52,612.86 402.33,625.6 386.56,637.77 370.22,649.36 353.44,660.38 
	336.24,670.82 318.52,680.68 307.22,686.44 296.06,680.68 278.35,670.82 261.07,660.38 244.29,649.36 228.02,637.77 212.25,625.6 
	196.99,612.86 182.37,599.61 168.33,585.79 154.94,571.53 142.2,556.7 130.1,541.36 118.72,525.52 108.07,509.25 98.2,492.48 
	89.13,475.2 80.78,457.48 73.36,439.34 66.74,420.76 60.98,401.76 56.16,382.32 52.27,362.44 49.32,342.14 47.37,321.4 
	46.44,300.24 46.58,278.71 47.73,256.75 49.96,234.36 53.42,211.6 57.96,188.49 63.72,164.95 65.66,158.32 73.65,161.71 
	82.08,164.88 90.5,167.76 98.92,170.28 107.35,172.44 115.84,174.31 124.34,175.75 132.91,176.9 "/>
<path class="st2" d="M391.03,204.4L391.03,204.4c41.33,11.16,88.85,11.02,134.14,0.43c27.14,111.38,6.26,214.92-49.68,299.23
	c-11.66-52.13-41.33-95.47-84.17-120.02l-0.29-0.14V204.4z"/>
<path class="st3" d="M223.12,204.48L223.12,204.48c33.77-9,63.36-25.56,84.1-49.97l0,0l0,0c20.81,24.34,50.26,40.82,83.81,49.9
	v179.5c-24.34-13.9-52.85-21.74-84.67-21.74c-31.1,0-59.04,7.49-83.02,20.81c-0.07,0-0.14,0.07-0.22,0.14V204.48z"/>
<path class="st4" d="M137.66,501.98c-54.94-83.95-75.24-186.7-48.31-297.14c45.14,10.58,92.52,10.73,133.78-0.36v178.63
	C179.92,407.08,149.83,450.07,137.66,501.98z"/>
<path class="st2" d="M438.55,551.44c-6.12,6.7-12.38,13.25-18.94,19.58c-14.47-30.74-25.92-85.25-12.53-100.01
	C424.36,490.39,439.34,512.35,438.55,551.44z"/>
<path class="st4" d="M175.46,550.87c-7.78-8.64-15.12-17.5-22.03-26.57c11.38-83.74,69.12-147.38,152.93-147.38
	c84.46,0,142.49,64.73,153.14,149.47c-4.82,6.34-9.94,12.53-15.26,18.65c1.44-18.65,0.65-37.44-7.56-56.95
	c-5.83-13.82-17.14-28.01-30.6-42.7c6.77,3.6,15.48,9.36,25.13,16.2c-12.17-23.26-31.54-39.82-54.65-52.92l3.74,10.94
	c6.26,2.66,12.53,6.48,18.79,15.7c-6.7-4.82-13.68-8.35-20.81-10.58l-45.65,13.18l-50.83-17.5c-8.86,2.52-16.42,5.33-22.97,8.35
	l7.06-6.84c4.54-2.88,9.14-5.69,13.75-8.57l11.52-17.57c-36.65,5.76-69.7,26.06-88.42,56.3l20.74-0.14
	c6.48-5.62,14.11-11.23,22.54-16.99c0,0.5,0,0.94-0.22,1.08c-8.64,6.84-14.47,13.61-18.22,20.45l-1.3,48.31l-27.14,32.47
	c-0.36,10.44-0.5,20.59,0.5,28.87c-3.17-8.64-5.47-18.36-7.56-28.44L172,525.16C172,534.67,173.16,543.31,175.46,550.87z"/>
<path class="st2" d="M307.22,650.59L307.22,650.59c-22.32-11.45-43.34-24.34-63-38.45c-18.07-24.26-24.84-51.77-22.97-71.78
	c1.73-18.86,12.24-34.06,32.26-45.36c-10.44,14.83-18.43,30.53-16.56,47.95h0.79c4.9-30.74,23.76-39.53,42.98-40.82
	c16.99-1.15,35.35,3.74,51.05-1.51l19.87,12.24l-12.67-18.36c11.16-17.57,25.99-31.97,48.74-37.51
	c-21.1,20.23-9.65,76.97,26.86,118.8c-4.82,4.54-9.79,8.93-14.83,13.25c-21.67-10.3-40.9-31.9-57.82-60.62
	c7.78,31.25,19.3,58.46,36.86,77.47c-2.95,2.23-5.9,4.39-8.93,6.62c-24.41-16.56-47.38-50.04-56.95-95.98
	c-5.04,36,10.87,80.06,53.5,98.42c-5.18,3.67-10.44,7.2-15.84,10.66c-25.06-16.42-60.7-57.31-67.61-106.27
	c-5.04,39.82,5.9,88.63,61.2,110.38c-6.34,3.96-12.82,7.78-19.44,11.52c-26.06-14.9-50.9-46.15-62.5-95.4
	c-1.94,45.58,13.25,80.71,57.82,97.99C315.86,646.12,311.54,648.43,307.22,650.59L307.22,650.59z"/>
<path class="st2" d="M325.58,488.16c14.04-15.41,30.53-27.29,50.54-34.2c-19.3-5.54-35.28-6.77-50.54-2.3v9.5l11.09-0.79
	l-11.09,7.49V488.16z M287.2,476.2c11.45,0.86,17.42,0.07,21.38,2.02c4.75,2.23,6.98,10.01,11.09,16.78
	c1.94-2.38,3.89-4.68,5.9-6.84v-20.3l-3.17,2.23l-7.85-8.06l11.02-0.86v-9.5C312.76,455.4,300.52,463.32,287.2,476.2z"/>
<path class="st0" d="M471.45,329.61l4.54-13.97h5.33l4.54,13.97h31.25l-19.66-59.98l-0.43-1.08l-0.5-1.15l-0.5-1.15l-0.65-1.01
	l-0.65-1.01l-0.79-1.01l-0.79-0.86l-0.86-0.86l-0.94-0.72l-0.94-0.72l-1.01-0.65l-1.01-0.5l-1.08-0.5l-1.08-0.43l-1.08-0.36
	l-1.15-0.22l-1.08-0.29l-1.08-0.14l-1.15-0.07l-1.15-0.07h-1.08h-1.15l-1.15,0.14l-1.08,0.07l-1.15,0.14l-1.15,0.22l-1.15,0.22
	l-1.08,0.29l-1.15,0.29l-1.15,0.36l-1.15,0.36l-3.53,1.22l-7.06-1.8l-1.51-0.36l-1.51-0.29l-1.44-0.29l-1.37-0.14l-1.3-0.14
	l-1.3-0.14h-1.3h-1.15l-1.22,0.07l-1.15,0.14l-1.08,0.14l-1.08,0.29l-1.08,0.29l-1.01,0.36l-1.01,0.43l-0.94,0.5l-0.86,0.5
	l-0.79,0.65l-0.79,0.58l-0.72,0.72l-0.65,0.72l-0.58,0.72l-0.5,0.72l-0.43,0.72l-0.43,0.72l-0.29,0.72l-0.29,0.72l-0.29,0.65
	l-0.22,0.72l-0.22,0.58l-0.14,0.58l-2.09,8.28l-1.94-8.21l-0.14-0.65l-0.22-0.72l-0.22-0.79l-0.29-0.79l-0.36-0.79l-0.43-0.72
	l-0.43-0.79l-0.5-0.79l-0.58-0.79l-0.65-0.72l-0.65-0.72l-0.79-0.72l-0.86-0.58l-0.86-0.58l-0.94-0.5l-1.01-0.43l-1.01-0.36
	l-1.01-0.36l-1.08-0.22l-1.08-0.22l-1.15-0.14l-1.15-0.07h-1.15h-1.22l-1.22,0.07l-1.3,0.14l-1.3,0.14l-1.37,0.22l-1.44,0.22
	l-1.44,0.36l-1.58,0.36l-8.21,2.09l0.65,2.02l-1.37-0.94l-1.44-0.94l-1.58-0.86l-1.66-0.79l-1.66-0.72l-1.73-0.58l-1.8-0.58
	l-1.8-0.43l-1.87-0.29l-1.87-0.29l-1.94-0.14h-1.94v27.43h0.14h0.14h0.14h0.07l0.07,0.07h0.07l0.07,0.07h0.07l0.07,0.07l0.07,0.07
	l0.07,0.07l0.14,0.14l0.14,0.22l0.14,0.14l0.14,0.29l0.14,0.29l0.14,0.29l0.22,0.36l0.14,0.43l0.14,0.43l0.14,0.43l0.14,0.5
	l0.07,0.58l0.14,0.5l0.07,0.65l0.14,0.58l0.07,0.65l0.07,0.65v0.72l0.07,0.72v0.72v0.72v0.72v0.72l-0.07,0.72v0.72l-0.07,0.65
	l-0.07,0.65l-0.14,0.58l-0.07,0.65l-0.14,0.5l-0.14,0.58l-0.14,0.5l-0.14,0.43l-0.14,0.43l-0.14,0.43l-0.14,0.36l-0.14,0.29
	l-0.22,0.29l-0.14,0.29l-0.14,0.22l-0.14,0.14l-0.07,0.14l-0.14,0.07l-0.07,0.07l-0.07,0.07l-0.07,0.07h-0.07l-0.07,0.07h-0.07
	h-0.07l-0.07,0.07h-0.14h-0.14v27.22h2.02l2.02-0.14l1.94-0.29l1.94-0.29l1.87-0.43l1.8-0.5l1.73-0.65l1.73-0.65l1.66-0.79
	l1.58-0.94l1.51-0.94l1.44-1.01l1.37-1.08l1.3-1.22l1.22-1.22l1.15-1.3l1.08-1.37l1.01-1.44l0.94-1.44l0.86-1.51l0.79-1.51
	l0.65-1.58l0.65-1.66l0.58-1.66l0.5-1.66l0.43-1.73l0.22-1.08l8.71,26.64L471.45,329.61z M370.15,255.88h-0.07h-2.02l-1.94,0.14
	l-1.87,0.29l-1.87,0.29l-1.8,0.43l-1.8,0.58l-1.73,0.58l-1.66,0.72l-1.66,0.79l-1.51,0.86l-1.51,0.94l-1.44,1.01l-1.37,1.08
	l-1.3,1.15l-1.3,1.22l-1.15,1.3l-1.08,1.37l-1.01,1.37l-1.01,1.51l-0.86,1.44l-0.79,1.58l-0.07,0.07l-0.72-1.51l-0.86-1.51
	l-0.94-1.44l-1.08-1.37l-1.15-1.3l-1.22-1.3l-1.3-1.15l-1.37-1.15l-1.44-1.01l-1.51-0.94l-1.58-0.86l-1.73-0.79l-1.73-0.65
	l-1.73-0.65l-1.87-0.5l-1.87-0.43l-2.02-0.36l-2.02-0.29l-2.09-0.22l0,0v28.94v0.14l0.14,0.43l0.07,0.43l0.14,0.58l0.07,0.58
	l0.07,0.65v0.72l0.07,0.72v0.86l-0.07,1.15l0.07,1.15v0.79l-0.07,0.79v0.72l-0.07,0.72l-0.07,0.65l-0.14,0.65l-0.07,0.58l-0.14,0.5
	v30.38l0.86-0.07l2.02-0.29l1.94-0.29l1.94-0.43l1.8-0.5l1.8-0.58l1.73-0.65l1.66-0.79l1.58-0.79l1.58-0.94l1.44-0.94l1.37-1.08
	l1.3-1.15l1.3-1.22l1.15-1.22l1.08-1.37l1.01-1.37l0.86-1.44l0.86-1.44l0.43-0.79l0.22,0.65l0.79,1.51l0.86,1.51l0.94,1.44
	l1.01,1.44l1.08,1.37l1.15,1.3l1.22,1.22l1.3,1.22l1.37,1.08l1.44,1.01l1.51,0.94l1.58,0.94l1.66,0.79l1.73,0.65l1.73,0.65l1.8,0.5
	l1.87,0.43l1.94,0.29l1.94,0.29l2.02,0.14h2.09h0.07v-27.22H370h-0.14l-0.07-0.07h-0.14l0,0l-0.07-0.07h-0.07l-0.07-0.07l-0.07-0.07
	l-0.07-0.07l-0.14-0.07l-0.14-0.14l-0.14-0.14l-0.14-0.22l-0.14-0.29l-0.14-0.29l-0.14-0.29l-0.14-0.36l-0.22-0.43l-0.14-0.43
	l-0.14-0.43l-0.14-0.5l-0.07-0.58l-0.14-0.58l-0.07-0.58l-0.14-0.58l-0.07-0.65l-0.07-0.65v-0.72l-0.07-0.72v-0.72v-0.72v-0.72
	v-0.72v-0.72l0.07-0.72l0.07-0.65l0.07-0.65l0.07-0.58l0.14-0.65l0.07-0.5l0.14-0.58l0.14-0.5l0.14-0.43l0.14-0.43l0.14-0.43
	l0.14-0.36l0.22-0.29l0.14-0.29l0.14-0.29l0.14-0.14l0.14-0.22l0.07-0.14l0.14-0.07l0.07-0.07l0.07-0.07h0.07l0.07-0.07h0.07
	l0.07-0.07h0.07h0.07h0.14h0.22V255.88z M311.11,257.18l-2.09-0.14c-9.5-0.22-19.8,0.29-29.16,1.94v45.14l-0.72-0.36l-0.86-0.43
	l-0.94-0.29l-0.94-0.22l-0.94-0.22l-0.86-0.07l-0.94-0.07h-0.86h-8.64v-27.43v-1.44l-0.07-1.58l-0.14-1.58l-0.29-1.44l-0.36-1.44
	l-0.5-1.37l-0.65-1.37l-0.72-1.22l-0.79-1.15l-0.94-1.01l-1.01-0.94l-1.08-0.79l-1.08-0.72l-1.15-0.58l-1.08-0.43l-1.15-0.36
	l-1.08-0.29l-1.08-0.22l-1.08-0.14l-1.01-0.14h-1.01l-1.01-0.07l-0.94,0.07h-0.94l-0.86,0.07l-0.86,0.07l-0.86,0.07l-0.79,0.07
	l-0.72,0.14l-0.72,0.07l-0.65,0.07l-6.26,0.86v13.39l-0.07-0.22L232.2,270l-1.01-1.37l-1.08-1.37l-1.22-1.3l-1.22-1.22l-1.3-1.15
	l-1.44-1.08l-1.44-1.01l-1.51-1.01l-1.58-0.86l-1.58-0.72l-1.73-0.72l-1.73-0.58l-1.8-0.58l-1.8-0.43l-1.87-0.29l-1.94-0.29
	l-1.94-0.14h-1.94v27.43l0,0h0.14h0.22h0.07h0.14l0.07,0.07h0.07l0.07,0.07h0.07l0.07,0.07l0.07,0.07l0.14,0.14l0.07,0.14l0.14,0.14
	l0.14,0.22l0.14,0.22l0.14,0.29l0.22,0.36l0.14,0.29l0.14,0.43l0.14,0.43l0.14,0.43l0.14,0.5l0.14,0.58l0.07,0.58l0.14,0.58
	l0.07,0.58l0.07,0.65l0.07,0.65l0.07,0.72v0.72l0.07,0.72v0.72v0.72l-0.07,0.72v0.72l-0.07,0.72l-0.07,0.65l-0.07,0.65l-0.07,0.58
	l-0.14,0.58l-0.14,0.58l-0.07,0.58l-0.14,0.43l-0.14,0.5l-0.14,0.43l-0.22,0.36l-0.14,0.36l-0.14,0.36l-0.14,0.29l-0.14,0.22
	l-0.22,0.22l-0.07,0.22l-0.14,0.14l-0.14,0.07l-0.07,0.07l-0.07,0.07l-0.07,0.07h-0.07l-0.07,0.07h-0.07h-0.07h-0.14l-0.14,0.07
	h-0.14l0,0v27.22h2.02l2.02-0.14l2.02-0.29l1.87-0.29l1.94-0.43l1.8-0.5l1.8-0.65l1.73-0.65l1.66-0.79l1.58-0.86l1.51-1.01
	l1.44-1.01l1.37-1.08l1.37-1.15l1.22-1.3l1.15-1.3l1.08-1.37l1.01-1.37l0.65-1.08v13.54l50.69-0.29c8.64,0,17.35,0.5,25.92,0.07
	l1.22-0.07v-30.38l0,0l-0.14,0.5l-0.22,0.5l-0.14,0.36l-0.07,0.14V284.9l0.07,0.07l0.14,0.29l0.14,0.29l0.07,0.29l0.14,0.29V257.18z
	 M204.04,255.88h-0.07h-2.02l-1.94,0.14l-1.94,0.29l-1.87,0.29l-1.8,0.43l-1.8,0.58l-1.73,0.58l-1.73,0.72l-1.58,0.72l-1.58,0.86
	l-1.51,1.01l-1.44,1.01l-1.44,1.08l-1.3,1.15l-1.22,1.22l-1.22,1.3l-1.08,1.37l-1.08,1.37l-0.94,1.44l-0.86,1.51l-0.86,1.51
	l-0.22,0.5l-1.15-16.2l-6.12-0.86l-0.94-0.14l-0.86-0.14l-0.86-0.07L162,257.4l-0.86-0.07l-0.86-0.07l-0.86-0.14h-0.86l-0.79-0.07
	h-0.86h-0.86h-0.79l-0.86,0.07l-0.86,0.07l-0.86,0.14l-0.86,0.14l-0.86,0.22l-0.94,0.29l-0.86,0.36l-0.86,0.36l-0.86,0.5l-0.79,0.5
	l-0.79,0.65L145,261l-0.65,0.72l-0.65,0.72l-0.58,0.86l-0.58,0.79l-0.43,0.86l-0.43,0.86l-0.36,0.86l-4.18,11.09l-4.32-11.3
	l-0.36-0.86l-0.43-0.86l-0.5-0.86l-0.5-0.86l-0.58-0.79l-0.65-0.72l-0.72-0.72l-0.72-0.72l-0.79-0.58l-0.86-0.5l-0.86-0.5
	l-0.86-0.36l-0.86-0.36l-0.86-0.29l-0.86-0.22l-0.94-0.14l-0.79-0.07l-0.86-0.07l-0.86-0.07h-0.86h-0.79h-0.86l-0.79,0.07
	l-0.86,0.07l-0.86,0.07l-0.79,0.14l-0.86,0.07l-0.86,0.14l-0.86,0.07l-0.94,0.14l-0.86,0.14l-6.12,0.86l-4.9,70.78h29.95l0.72-10.58
	h17.57l0.72,10.58h30.02l-0.86-11.59l0.5,0.65l1.08,1.37l1.15,1.3l1.22,1.3l1.37,1.15l1.37,1.08l1.44,1.01l1.51,1.01l1.58,0.86
	l1.66,0.79l1.73,0.65l1.8,0.65l1.8,0.5l1.87,0.43l1.94,0.29l2.02,0.29l2.02,0.14h2.09h0.07v-27.22h-0.22l-0.14-0.07h-0.07h-0.07
	h-0.07l-0.07-0.07h-0.07l-0.07-0.07l-0.07-0.07l-0.14-0.07l-0.07-0.07l-0.14-0.14l-0.14-0.22l-0.14-0.22l-0.14-0.22l-0.14-0.29
	l-0.14-0.36l-0.22-0.36l-0.14-0.36l-0.14-0.43l-0.14-0.5l-0.14-0.5l-0.14-0.5l-0.07-0.58l-0.14-0.58l-0.07-0.58l-0.07-0.65
	l-0.07-0.65l-0.07-0.72v-0.72l-0.07-0.72v-0.72v-0.72v-0.72l0.07-0.72l0.07-0.65l0.07-0.72l0.07-0.65l0.07-0.58l0.07-0.58l0.14-0.58
	l0.14-0.58l0.14-0.5l0.14-0.43l0.14-0.43l0.14-0.43l0.14-0.36l0.14-0.29l0.22-0.29l0.14-0.22l0.14-0.22l0.07-0.14l0.14-0.14
	l0.14-0.14l0.07-0.07l0.07-0.07h0.07l0.07-0.07h0.07l0.07-0.07h0.07h0.14h0.14h0.22V255.88z"/>
<path class="st1" d="M239.83,323.13h40.1c0-9.5-0.43-14.18-7.2-14.18h-15.05v-33.98c0.43-14.11-11.45-11.88-17.86-11.02V323.13z"/>
<path class="st1" d="M204.04,324.86c19.22-0.07,28.66-14.04,28.66-31.25s-10.51-31.18-28.66-31.25v14.4c6.98,0,9.94,7.56,9.94,16.92
	c0,9.36-3.1,16.92-9.94,16.92V324.86z M203.97,324.86h0.07V310.6c-6.91,0-9.94-7.56-9.94-16.92c0-9.36,2.95-16.92,9.94-16.92v-14.4
	h-0.07c-18.22,0-28.73,14.04-28.73,31.25C175.24,310.89,184.75,324.86,203.97,324.86z"/>
<path class="st1" d="M370.15,324.86c19.01-0.07,28.37-14.04,28.37-31.25s-10.44-31.18-28.37-31.25v14.4c6.91,0,9.86,7.56,9.86,16.92
	c0,9.36-3.02,16.92-9.86,16.92V324.86z M370.08,324.86h0.07V310.6c-6.84,0-9.86-7.56-9.86-16.92c0-9.36,2.95-16.92,9.86-16.92v-14.4
	h-0.07c-18,0-28.44,14.04-28.44,31.25C341.64,310.89,351.07,324.86,370.08,324.86z"/>
<path class="st1" d="M417.52,323.42h19.87l19.01-58.39c-15.77-4.25-19.08,1.08-20.23,5.83l-8.57,34.06l-8.06-34.06
	c-1.37-5.69-5.26-10.08-21.02-5.83L417.52,323.42z"/>
<path class="st1" d="M478.44,309.16H486l4.61,13.97h17.5l-16.85-51.34c-1.94-6.12-6.77-8.57-12.82-8.5v14.98l0,0l0,0l0,0
	c0.36,2.02,0.5,4.03,1.08,6.05l3.53,13.39h-4.61l0,0V309.16z M449.2,323.13h17.5l4.61-13.97h7.13v-11.45h-4.68l3.53-13.39
	c0.58-2.02,0.79-4.03,1.15-6.05l0,0V263.3c-3.17,0.07-6.7,0.86-10.3,2.16L449.2,323.13z"/>
<path class="st1" d="M311.11,322.77c17.78-1.8,25.27-13.82,25.34-30.38c-0.07-16.49-7.7-27.07-25.34-28.66v13.75
	c5.04,1.8,7.42,6.77,7.06,14.9c0.36,8.14-2.02,13.97-7.06,16.27V322.77z M286.41,323.13c7.2,0,14.26,0.07,21.24-0.14
	c1.15,0,2.3-0.07,3.46-0.22v-14.11c-2.02,0.94-4.32,1.3-7.06,1.08v-32.98c2.74-0.22,5.04,0,7.06,0.72v-13.75
	c-2.02-0.14-4.18-0.22-6.34-0.22c-6.34,0.14-12.82,0.65-18.36,1.15V323.13z"/>
<path class="st1" d="M104.68,322.92h16.85l2.02-28.94l7.06,18.36h12.31l7.85-18.86l2.02,29.45h16.85l-4.1-58.46
	c-9.94-1.44-15.48-2.09-18.14,4.68l-10.22,27.07l-10.37-27.29c-2.66-6.77-8.14-5.98-18.07-4.54L104.68,322.92z"/>
</svg>
