<svg xmlns="http://www.w3.org/2000/svg" viewBox="0 0 137.09 163.01"><defs><style>.cls-1,.cls-10{fill:#e81d2c;}.cls-2,.cls-9{fill:#fff;}.cls-3{fill:#fedf1b;}.cls-4{fill:#cb5b2e;}.cls-10,.cls-4,.cls-5,.cls-6,.cls-7,.cls-8,.cls-9{fill-rule:evenodd;}.cls-5{fill:#ed1c24;}.cls-6{fill:#639144;}.cls-7{fill:#fcd404;}.cls-8{fill:#00669b;}</style></defs><title>Eszköz 1</title><g id="Réteg_2" data-name="Réteg 2"><g id="Layer_1" data-name="Layer 1"><path class="cls-1" d="M106.78,32.4a4.25,4.25,0,0,1,3.88-2.74,3.65,3.65,0,0,1,3.17,1.59,12,12,0,0,1,1.66,4.82l-2.88,1.23a4.45,4.45,0,0,0-.29-1.37,3.37,3.37,0,0,0-.65-1.08,1.25,1.25,0,0,0-.93-.43c-.72,0-1.3.57-1.66,1.72a13.91,13.91,0,0,0-.43,4,13.88,13.88,0,0,0,.5,4.68c.36.86.87,1.22,1.51,1.22a1.42,1.42,0,0,0,1.37-1,8.26,8.26,0,0,0,.72-3l2.88,1.73a17,17,0,0,1-.93,3.89,7.57,7.57,0,0,1-1.52,2.37,3.72,3.72,0,0,1-2.37.79,4.1,4.1,0,0,1-2.81-1,8.47,8.47,0,0,1-1.87-3.39,21.5,21.5,0,0,1-.79-6.26,17.67,17.67,0,0,1,1.44-7.85Zm10.72,2a7.67,7.67,0,0,1,2.09-3.75,4.12,4.12,0,0,1,2.88-1,3.83,3.83,0,0,1,4,2.52,10.1,10.1,0,0,1,.87,3.32l-3.1,1.08a3.16,3.16,0,0,0-.72-1.73,1.31,1.31,0,0,0-1.15-.65c-.72,0-1.3.5-1.73,1.44a12.07,12.07,0,0,0-.65,4.61,12.41,12.41,0,0,0,.65,4.75c.43.94,1,1.44,1.8,1.44a2.1,2.1,0,0,0,1.08-.36,6.15,6.15,0,0,0,1.08-1V43.13h-2.16V38.88h5v8.71A9.39,9.39,0,0,1,125,50.18a4.71,4.71,0,0,1-2.66.72,4,4,0,0,1-3-1.22,8.68,8.68,0,0,1-1.87-3.74,22.42,22.42,0,0,1-.65-5.62,20.48,20.48,0,0,1,.72-5.9ZM29.66,47.52A5.26,5.26,0,0,1,28.08,50a3.67,3.67,0,0,1-2.52.86,4,4,0,0,1-3.74-2,12.89,12.89,0,0,1-1.16-5.11l3.1-.36a8.39,8.39,0,0,0,.43,2.23,1.57,1.57,0,0,0,1.44,1.22,1.26,1.26,0,0,0,1.08-.65,3.27,3.27,0,0,0,.36-1.51,2.73,2.73,0,0,0-.36-1.37,3.16,3.16,0,0,0-1.65-1.22A6.53,6.53,0,0,1,22,39.6,7.71,7.71,0,0,1,21,35.71a10.11,10.11,0,0,1,.51-3A4.76,4.76,0,0,1,23,30.46a3.8,3.8,0,0,1,2.59-.8,3.64,3.64,0,0,1,3.1,1.52,9.62,9.62,0,0,1,1.22,4.6l-3,.36a5.26,5.26,0,0,0-.58-2,1.13,1.13,0,0,0-1.08-.65.92.92,0,0,0-.86.5,2.33,2.33,0,0,0-.29,1.08,1.44,1.44,0,0,0,.29.94,2.25,2.25,0,0,0,1.08.72,10.62,10.62,0,0,1,3,1.8,5.36,5.36,0,0,1,1.37,2.3,10.23,10.23,0,0,1,.43,3,12.26,12.26,0,0,1-.58,3.67ZM19.51,34.42H14.69V38h4.1v4.1h-4.1v8.42H11.45V30h8.06v4.4ZM68.62,67.18A33.62,33.62,0,0,1,35,33.55a33.07,33.07,0,0,1,3-13.89H4.39V48.82c0,46,23.47,86.54,62.79,108.5l1.44.79,1.36-.79c39.24-22,62.72-62.5,62.72-108.5V19.66H99.07a33.07,33.07,0,0,1,3,13.89A33.59,33.59,0,0,1,68.62,67.18Z"/><polygon class="cls-2" points="11.45 50.54 14.69 50.54 14.69 42.12 18.79 42.12 18.79 38.02 14.69 38.02 14.69 34.42 19.51 34.42 19.51 30.02 11.45 30.02 11.45 50.54"/><path class="cls-2" d="M28.44,38.52a10.62,10.62,0,0,0-3-1.8A2.25,2.25,0,0,1,24.34,36a1.44,1.44,0,0,1-.29-.94A2.33,2.33,0,0,1,24.34,34a.92.92,0,0,1,.86-.5,1.13,1.13,0,0,1,1.08.65,5.26,5.26,0,0,1,.58,2l3-.36a9.62,9.62,0,0,0-1.22-4.6,3.64,3.64,0,0,0-3.1-1.52,3.8,3.8,0,0,0-2.59.8,4.76,4.76,0,0,0-1.44,2.23,10.11,10.11,0,0,0-.51,3A7.71,7.71,0,0,0,22,39.6a6.53,6.53,0,0,0,3.1,2.52,3.16,3.16,0,0,1,1.65,1.22,2.73,2.73,0,0,1,.36,1.37,3.27,3.27,0,0,1-.36,1.51,1.26,1.26,0,0,1-1.08.65,1.57,1.57,0,0,1-1.44-1.22,8.39,8.39,0,0,1-.43-2.23l-3.1.36a12.89,12.89,0,0,0,1.16,5.11,4,4,0,0,0,3.74,2A3.67,3.67,0,0,0,28.08,50a5.26,5.26,0,0,0,1.58-2.52,12.26,12.26,0,0,0,.58-3.67,10.23,10.23,0,0,0-.43-3A5.36,5.36,0,0,0,28.44,38.52Z"/><path class="cls-2" d="M108,49.9a4.1,4.1,0,0,0,2.81,1,3.72,3.72,0,0,0,2.37-.79,7.57,7.57,0,0,0,1.52-2.37,17,17,0,0,0,.93-3.89l-2.88-1.73a8.26,8.26,0,0,1-.72,3,1.42,1.42,0,0,1-1.37,1c-.64,0-1.15-.36-1.51-1.22a13.88,13.88,0,0,1-.5-4.68,13.91,13.91,0,0,1,.43-4c.36-1.15.94-1.72,1.66-1.72a1.25,1.25,0,0,1,.93.43,3.37,3.37,0,0,1,.65,1.08,4.45,4.45,0,0,1,.29,1.37l2.88-1.23a12,12,0,0,0-1.66-4.82,3.65,3.65,0,0,0-3.17-1.59,4.25,4.25,0,0,0-3.88,2.74,17.67,17.67,0,0,0-1.44,7.85,21.5,21.5,0,0,0,.79,6.26A8.47,8.47,0,0,0,108,49.9Z"/><path class="cls-2" d="M119.3,49.68a4,4,0,0,0,3,1.22,4.71,4.71,0,0,0,2.66-.72,9.39,9.39,0,0,0,2.52-2.59V38.88h-5v4.25h2.16v1.94a6.15,6.15,0,0,1-1.08,1,2.1,2.1,0,0,1-1.08.36c-.79,0-1.37-.5-1.8-1.44a12.41,12.41,0,0,1-.65-4.75,12.07,12.07,0,0,1,.65-4.61c.43-.94,1-1.44,1.73-1.44a1.31,1.31,0,0,1,1.15.65,3.16,3.16,0,0,1,.72,1.73l3.1-1.08a10.1,10.1,0,0,0-.87-3.32,3.83,3.83,0,0,0-4-2.52,4.12,4.12,0,0,0-2.88,1,7.67,7.67,0,0,0-2.09,3.75,20.48,20.48,0,0,0-.72,5.9,22.42,22.42,0,0,0,.65,5.62A8.68,8.68,0,0,0,119.3,49.68Z"/><path class="cls-3" d="M132.7,48.82c0,46-23.48,86.54-62.72,108.5l-1.36.79-1.44-.79c-39.32-22-62.79-62.5-62.79-108.5V19.66H38a33.07,33.07,0,0,0-3,13.89,33.56,33.56,0,1,0,67.11,0,33.07,33.07,0,0,0-3-13.89H132.7V48.82ZM43.42,19.66A28.73,28.73,0,1,0,97.27,33.55a28.22,28.22,0,0,0-3.6-13.89,27.73,27.73,0,0,0-3-4.32,28.63,28.63,0,0,0-44.35,0,33.6,33.6,0,0,0-2.95,4.32Zm89.28-4.32h-36a33.51,33.51,0,0,0-56.31,0H0V48.82C0,96.41,24.34,138.31,65,161l3.6,2,3.52-2c40.68-22.68,65-64.58,65-112.17V15.34Z"/><path class="cls-4" d="M63.07,79.78a4.31,4.31,0,0,1,.51.21,1,1,0,0,0,.79,0c.21-.14.21-.29.14-.36a1,1,0,0,1-.65-1,3.61,3.61,0,0,1,.44-1.8l.21-.43a3.41,3.41,0,0,0-.93.72,2,2,0,0,0-.44.87,2.12,2.12,0,0,0,.08.93c0,.36,0,.58-.08.65a.56.56,0,0,0-.07.22Zm4.75-4.18a3.5,3.5,0,0,0-1.08.72A2.33,2.33,0,0,0,66,77.83c0,.36.15.72.15,1a.65.65,0,0,1-.08.5l.44.29a1.16,1.16,0,0,0,.72.22,1,1,0,0,0,.72-.29,1.26,1.26,0,0,1,.36-.07,1.33,1.33,0,0,1-.58-.58,3,3,0,0,1-.07-1.44,15.26,15.26,0,0,0,.21-1.87Zm2,0a3.28,3.28,0,0,1,1.15.72,2.28,2.28,0,0,1,.79,1.51c0,.36-.14.72-.14,1a.67.67,0,0,0,.07.5s-.29.15-.5.29a1,1,0,0,1-.65.22,1,1,0,0,1-.72-.29,1.32,1.32,0,0,0-.36-.07,1,1,0,0,0,.5-.58,2.7,2.7,0,0,0,.15-1.44,13.31,13.31,0,0,1-.29-1.87Zm4.82,4.18a1.82,1.82,0,0,0-.5.21c-.29.07-.65.15-.79,0s-.22-.29-.15-.36.58-.21.65-1a3.65,3.65,0,0,0-.5-1.8l-.22-.43a3.27,3.27,0,0,1,1,.72,1.8,1.8,0,0,1,.43.87,2.25,2.25,0,0,1-.07.93c-.07.36-.07.58,0,.65a1.13,1.13,0,0,0,.14.22Zm-9.65,4a1.47,1.47,0,0,1-.14.72,2.3,2.3,0,0,1-1.15,1,2.09,2.09,0,0,0,.86.79c.65.36,1,.29,1,.5s-.65.51-.65.51a10.33,10.33,0,0,0,1.08.93,5.06,5.06,0,0,0,1,.43s.22.08.07.36a1,1,0,0,1-.43.58.56.56,0,0,1-.22.07,15.59,15.59,0,0,0,1.16,1.15,3.91,3.91,0,0,0,.86.51c.29.14.14.57.07.79a1.26,1.26,0,0,1-.43.58c-.14,0-.22.14-.07.43s.65.79.86,1.08h0a8,8,0,0,0,.79-1.08c.22-.29.15-.43,0-.43a1.26,1.26,0,0,1-.43-.58c-.07-.22-.21-.65.07-.79a4,4,0,0,0,.87-.51,14.92,14.92,0,0,0,1.15-1.15.61.61,0,0,1-.22-.07,1,1,0,0,1-.43-.58c-.14-.28.07-.36.07-.36a4.81,4.81,0,0,0,1-.43,7.45,7.45,0,0,0,1-.93s-.58-.22-.58-.51.36-.14,1-.5a2.17,2.17,0,0,0,.87-.79,2.31,2.31,0,0,1-1.16-1,1.47,1.47,0,0,1-.14-.72h0a14.38,14.38,0,0,1-3.89.5,14.13,14.13,0,0,1-3.89-.5ZM44.71,103.46c-.07-.14-.14-.36-.21-.5h-.08c-.14,0-.36.07-.43.07s-.07.07-.07.22a4.32,4.32,0,0,1,.29.5l.5-.29Zm15.84,7.85c-.07,0-.07,0-.07-.07h0c-.22.43-.79,1.3-1.58,1.3-1.08.07-1.23-.29-.94-.65s.5-.65.58-.79.07-.22-.22.07a2.68,2.68,0,0,1-2.45,1c-1.65-.08-1.65-.36-1.65-.51s.36-.36.57-.57.15-.22-.21-.08a4.28,4.28,0,0,1-2.24,0c-.43-.07-1.58-.57-1.72-1.15a5.76,5.76,0,0,0,1.29-.29c.51-.21.79-.43.22-.28a4.26,4.26,0,0,1-2.52,0,1.56,1.56,0,0,1-1.23-1.44,10,10,0,0,0,1.37-.29,1,1,0,0,0,.51-.22,4.37,4.37,0,0,1-2.81-.21,2.09,2.09,0,0,1-1.37-1.8c0-.22.07-.22.07-.22a7.84,7.84,0,0,0,2.09.22,5.13,5.13,0,0,0,1.15-.08,10.12,10.12,0,0,1-3.74-.79,5.14,5.14,0,0,1-.72-.65c0,.08-.07.15-.07.29a3.07,3.07,0,0,0,0,1.3,7.45,7.45,0,0,0,.86,2.52,17.9,17.9,0,0,1,1.51,2.81,9.22,9.22,0,0,1,.43,2.16,3.58,3.58,0,0,0,.08.64,3.59,3.59,0,0,1,.72.72c.07.36.14.51.07.65a.87.87,0,0,1-.07.36s.5.65.79,1a4.25,4.25,0,0,1,.57,1.51c.08.51.15.87.15.87l1.08.07c1.08.07,1.87,0,2.37,0a4.79,4.79,0,0,0,1.73-.58c.43-.36.51-.36.51-.36a5.45,5.45,0,0,1-1-.29c-.29-.07-.29-.21-.07-.28a6.07,6.07,0,0,0,.93-.58c.15-.14.22-.29-.07-.43s-.79-.51-.36-.58a10.83,10.83,0,0,1,1.44-.36c.43-.14.5-.29.5-.29l-.28-.43s-.29-.29,0-.36a6.4,6.4,0,0,0,1.58-.36,4.21,4.21,0,0,0,1.73-1.44c.21-.36.36-.79.5-1.08Zm.51-22.39a1.93,1.93,0,0,1-.94.29,2.34,2.34,0,0,1-1.8-.72c-.58-.51-.58-.65-.58-.65a10.24,10.24,0,0,1-1.87.43,2.18,2.18,0,0,1-2.09-.93,1.86,1.86,0,0,1,.22-1.8c.07-.15.36-.22.36,0a1.46,1.46,0,0,0,.5,1.22,1.39,1.39,0,0,0,1.3.14A3.81,3.81,0,0,1,58,86.69c.72.07.79.14.79.14A3.92,3.92,0,0,0,57.53,86a1,1,0,0,0-1.15.36c-.15.21-.36.57-.51.07a2.18,2.18,0,0,1,.22-1.66,1.51,1.51,0,0,1,1.44-.57,5,5,0,0,1,.79.14,1.59,1.59,0,0,1,1.08-1,4.11,4.11,0,0,1,2.74.58,3.43,3.43,0,0,0,1.29,0,2.88,2.88,0,0,0,1.08-.58c-.07-.21-.21-.72-.21-.72a1.26,1.26,0,0,1-.36-.07c-.22-.07-.15-.14-.22-.29s.36-.5.36-.5.07-.43-.58-.79-.57-.29-.57-.29a1.19,1.19,0,0,1-.51,0c-.14-.14-.14-.22-.14-.22s-.29-.07-.36-.28a.56.56,0,0,1-.07-.58c.07-.22.14-.22.07-.36a.84.84,0,0,1-.22-.43v-.22s-.21-.07-.21-.43a.63.63,0,0,1,.29-.5h.14a3.63,3.63,0,0,1,.22-.51,3.12,3.12,0,0,1,.28-.36s-.14-.07-.07-.29a.75.75,0,0,1,.36-.43h.36s.51-.29.72-.43a.77.77,0,0,0,.29-.14s0-.22.07-.29.29-.15.43-.15h.22A6.69,6.69,0,0,1,66,74.81c.36-.07.36-.15.36-.15a4.57,4.57,0,0,1,1.08-.36,2.11,2.11,0,0,1,.36-.07,3.9,3.9,0,0,1-.29-.86,1.33,1.33,0,0,1,.58-.94.57.57,0,0,1,.36-.14l.07-.36L67.9,72l-.08-.86h.58l-.07-.51h1.15l-.07.51.5-.08V72l-.57-.07v.29c.07.07.14.07.28.14a1.47,1.47,0,0,1,.58,1,1.42,1.42,0,0,1-.29.79.85.85,0,0,0,.36.14,3.81,3.81,0,0,1,1,.36s.07.08.43.15a8.46,8.46,0,0,1,1.15.21h.22a.51.51,0,0,1,.43.15c.07.07.07.29.07.29a.91.91,0,0,0,.29.14l.72.43h.29c.22.07.29.22.36.43s-.07.29-.07.29a1.38,1.38,0,0,0,.29.36,1.29,1.29,0,0,1,.14.51h.22a.66.66,0,0,1,.28.5c0,.36-.21.43-.21.43v.22a.84.84,0,0,1-.22.43c-.14.14,0,.14.07.36a.52.52,0,0,1-.07.58c-.07.21-.36.28-.36.28s0,.08-.14.22-.51,0-.51,0,.08-.07-.57.29a1,1,0,0,0-.58.79s.43.29.36.5.07.22-.14.29a1.32,1.32,0,0,1-.36.07s-.15.51-.22.72a3,3,0,0,0,1.08.58,3.07,3.07,0,0,0,1.23,0,4.09,4.09,0,0,1,2.73-.58,1.59,1.59,0,0,1,1.08,1,5,5,0,0,1,.79-.14,1.58,1.58,0,0,1,1.44.57,2.18,2.18,0,0,1,.22,1.66c-.14.5-.36.14-.5-.07A1.09,1.09,0,0,0,80,86a4.36,4.36,0,0,0-1.22.86s.07-.07.79-.14a3.81,3.81,0,0,1,1.87.21,1.4,1.4,0,0,0,1.3-.14,1.46,1.46,0,0,0,.5-1.22c0-.22.29-.15.36,0a2.07,2.07,0,0,1,.22,1.8,2.17,2.17,0,0,1-2.09.93,10.24,10.24,0,0,1-1.87-.43s0,.14-.58.65a2.54,2.54,0,0,1-1.8.72,2.39,2.39,0,0,1-1-.29,2.7,2.7,0,0,0-.57,1.3c-.07.28,0,.5-.29.5s-.65-.43-.65-.43a2.08,2.08,0,0,1-.07.43A10.07,10.07,0,0,0,75,92.23c.08.22.22.51,0,.58s-.57-.07-.72-.07a2.28,2.28,0,0,0,.51,1.51c.07.07.07.14.14.14s.22-.14.36-.21l2.88,3.45a6.09,6.09,0,0,0-.93,3.89h.14c.29-.07.36-.22.65-.43s.21-.65.5-.79a4.43,4.43,0,0,1,1.51-.08c.51-.07,1.16-.21,1.3-.79s0-.79-.72-1.29a2.2,2.2,0,0,1-1.3-2c-.07-1,.65-1.66,1.8-3a12.07,12.07,0,0,0,1.88-3c.14-.28.21-.14.36.08a3.44,3.44,0,0,1,.28.64s.44-.21,1.37-1.94A12.36,12.36,0,0,0,86.47,85c.07-.5.22-.29.36-.14.79-2.23.79-5,1-7.13A5,5,0,0,1,89.06,80a11.24,11.24,0,0,1,.22,4.39,7.68,7.68,0,0,1-.5,2.52c-.22.58.07.22.07.22A10.7,10.7,0,0,0,90,83.74a16.38,16.38,0,0,0,.43-3.82,2.32,2.32,0,0,1,.58.86c.36.58.65,1.88.5,4.18a14.64,14.64,0,0,1-1.37,5.47c-.43.87-.07.36.15.15A17.47,17.47,0,0,0,91.58,88a23.8,23.8,0,0,0,1.16-3.67c.07-.36.21-.14.36.22a6.13,6.13,0,0,1,.43,2A11,11,0,0,1,93,89.78a15.66,15.66,0,0,1-1.87,3.1c-.43.5-.07.22.14.07s0,.07.87-.93a16,16,0,0,0,2.23-3.6c.14-.36.29.07.29.21a6.5,6.5,0,0,1-.51,3.17,9.39,9.39,0,0,1-3.31,4c-.86.65-.21.29.22.07s1.37-.93,1.94-1.37,1.59-1.72,1.87-1.94.29-.29.29.58a5.71,5.71,0,0,1-1.73,3.31,6.75,6.75,0,0,1-2.59,1.51c-.36.14,0,.07.36,0A17.31,17.31,0,0,0,93,97.2c.72-.43,1.8-1.3,2.16-1.51s.29.07.22.57a4.76,4.76,0,0,1-1.8,2.45,10.61,10.61,0,0,1-3.89,1.87c-.58.15-.14.15-.14.15a8.72,8.72,0,0,0,1.36-.29A12.3,12.3,0,0,0,94.18,99c.43-.29.5-.36.5.22a4.11,4.11,0,0,1-1.8,2.59,10.48,10.48,0,0,1-3.46.93c-.5,0-.36.08-.14.15a9.31,9.31,0,0,0,1.66-.15,11,11,0,0,0,2.3-.57,3.12,3.12,0,0,1-1.3,2.3,10.12,10.12,0,0,1-3.74.79,5.13,5.13,0,0,0,1.15.08,7.84,7.84,0,0,0,2.09-.22s.07,0,.07.22a2.09,2.09,0,0,1-1.37,1.8,4.34,4.34,0,0,1-2.8.21,1,1,0,0,0,.5.22,10,10,0,0,0,1.37.29A1.56,1.56,0,0,1,88,109.3a4.26,4.26,0,0,1-2.52,0c-.57-.15-.28.07.22.28a5.91,5.91,0,0,0,1.3.29c-.15.58-1.3,1.08-1.73,1.15A4.24,4.24,0,0,1,83,111c-.36-.14-.29,0-.22.08.22.21.58.28.58.57s0,.43-1.66.58a2.84,2.84,0,0,1-2.45-1.08c-.29-.29-.29-.15-.21-.07s.36.43.57.79.15.72-.93.65c-.8,0-1.37-.87-1.59-1.3v.07a3.59,3.59,0,0,0,2.23,2.45,7.4,7.4,0,0,0,1.59.43c.29,0,.07.36.07.36l-.29.43s0,.15.43.22,1,.22,1.44.36-.07.5-.36.65-.21.29-.07.43a3,3,0,0,0,.94.5c.21.08.21.22-.07.36a1.17,1.17,0,0,1-.36.08s-.36,0,.14.28,1.51,1.16,1.66,1.37a2.78,2.78,0,0,0,.57.36c.15,0,.29-.14.15-.36a4.77,4.77,0,0,0-.8-1.22,1.29,1.29,0,0,1,.22-1.66c.29-.29.22-.36.22-.57s.36-.58.43-.72.29,0,.43-.29a2.75,2.75,0,0,1,1.08-1.37,3.57,3.57,0,0,1,1.87-.58H89c.22,0,.29,0,.36-.14s.29-.5.29-.5.14-.08-.07-.08H89c-.07-.07-.07-.14-.07-.36s.22-.72.29-.86.14-.22.21-.14.29.21.36.28.22.08.22-.07v-.5c0-.15,0-.29.22-.22a4.74,4.74,0,0,1,.93.29c.15,0,.29,0,.15.29s-.22.29-.22.36-.07.07.07.07a1.11,1.11,0,0,0,.43.07c.08.07.15.07.08.29a4.3,4.3,0,0,1-.22.72.26.26,0,0,1-.29.29c-.14-.07-.29-.22-.36-.22s-.07-.07-.07.07-.07.65-.07.65a.83.83,0,0,1,.21.15.25.25,0,0,1,.15.21,2.83,2.83,0,0,1,1.65,2.67c0,.5,0,.5.15.72a1.16,1.16,0,0,1,.21.64.33.33,0,0,0,0,.36c.08,0,.29.29.29.51a4.45,4.45,0,0,1-.21.93,4.8,4.8,0,0,1-1.8,1c-.94.43-3.39,1.23-4.32,1.51a3,3,0,0,1-2.52-.21,5.06,5.06,0,0,0-1.66-1.08,4.06,4.06,0,0,0-1.15-.43,8.78,8.78,0,0,0-1.23-.44.71.71,0,0,1-.14.51c-.22.29-.5-.15-1.44-.87a6.22,6.22,0,0,0-1.8-.93,3.78,3.78,0,0,1-.43.65c-.29.36-.51,0-1.66-1.66a17.52,17.52,0,0,0-2.66-3,1.33,1.33,0,0,1-.36.14c0,.07.07.14.07.22a7.28,7.28,0,0,0,.5,1.08c.22.5.58.57,1,1.22a2.78,2.78,0,0,1,.51,1.8c.07.65-.29.79-.29.79a5.54,5.54,0,0,1,.79,1,8.64,8.64,0,0,1,.22,1.37s.14,0,.36.5.5.51,1.08,1.08a9.84,9.84,0,0,0,1.58,1c.29.14.22.36.14.58a1.61,1.61,0,0,1-1,.64,1.27,1.27,0,0,1-1,.08c-.29,0-.07.28.07.43a1.49,1.49,0,0,1,.29,1.15c0,.5-.43.43-.87.36s-1-.36-1-.36v.14a1.39,1.39,0,0,1,.14.72c0,.44-.07.58-.22.72s-.36-.14-.57-.14a3.26,3.26,0,0,0-.94-.36.82.82,0,0,1-.57-.29,2.62,2.62,0,0,1,.14.43,4.53,4.53,0,0,1-.07,1,2,2,0,0,1-.58.87c-.29.28-.36.14-.57-.22a9.32,9.32,0,0,0-.65-.72,5.11,5.11,0,0,0-.36,1.08,4.77,4.77,0,0,1-1.3,1.8,4.68,4.68,0,0,1-1.29-1.8,5.11,5.11,0,0,0-.36-1.08,7.55,7.55,0,0,0-.65.72c-.22.36-.29.5-.58.22a1.51,1.51,0,0,1-.57-.87,4,4,0,0,1-.08-1,.63.63,0,0,1,.15-.43.94.94,0,0,1-.65.29,2.49,2.49,0,0,0-.86.36c-.22,0-.44.29-.58.14s-.22-.28-.22-.72a5.19,5.19,0,0,1,.08-.72l.07-.14s-.58.22-1.08.36-.87.14-.94-.36a1.86,1.86,0,0,1,.29-1.15c.14-.15.43-.43.07-.43a1.08,1.08,0,0,1-.93-.08,1.61,1.61,0,0,1-1-.64c-.07-.22-.15-.44.14-.58a7.45,7.45,0,0,0,1.51-1c.58-.57,1-.65,1.23-1.08s.29-.5.29-.5a12,12,0,0,1,.28-1.37,5.43,5.43,0,0,1,.8-1s-.36-.14-.29-.79a2.77,2.77,0,0,1,.5-1.8c.36-.65.72-.72,1-1.22s.36-.72.5-1.08c0-.08.08-.15.08-.22s-.15-.07-.29-.07a24.81,24.81,0,0,0-2.67,3c-1.22,1.66-1.44,2-1.72,1.66s-.44-.65-.44-.65a8.64,8.64,0,0,0-1.72.93c-1,.72-1.3,1.16-1.52.94a1.6,1.6,0,0,1-.21-.79,10.4,10.4,0,0,0-1.15.65,2.54,2.54,0,0,0-1.08.86,6.16,6.16,0,0,1-.72.65c-.15.21-.44.79-.58.93s-.29.36-.36.44l-.36.36a.82.82,0,0,1-.07.36c0,.14-.15.21-.15.28s-.14.15.15.36a3.85,3.85,0,0,0,.79.58c.5.22.72.22.65.36s-.15.22-.29.29c-.36.14-.72.14-.79.21a1.89,1.89,0,0,0-.15.72c0,.22.08.44-.07.51a2.44,2.44,0,0,1-.65-.29c-.28-.14-.36-.29-.57-.14s-.58.28-.65.14.07-.43.07-.72.07-1-.07-1.15-.22-.29-.43-.22a1.38,1.38,0,0,1-.79.07,2.44,2.44,0,0,1-.65-.5,1.55,1.55,0,0,0-.07-.43,3.24,3.24,0,0,1-.8-.36,1,1,0,0,1-.43-.87c0-.28.15-.36.15-.36s-.65-.36-.72-.79-.08-.57.07-.86a2.25,2.25,0,0,1,.65-.79c.28-.15.36-.08.43-.15s0-.14-.22-.36a5.32,5.32,0,0,1-1-1.94,6.93,6.93,0,0,1,0-1.37s.08-.22-.07-.29a1.19,1.19,0,0,1-.72-.72,1,1,0,0,1,.15-.72s.14-.14-.08-.21a5.38,5.38,0,0,1-1.87-3.53c-.29-2.16-.36-3.53-.79-4.32a1.7,1.7,0,0,0-1.15-1c-.36-.14-.43-.36-.15-.58a4.31,4.31,0,0,1,.51-.21l-.15-.72-.57.29a.16.16,0,0,1-.22-.08,5.09,5.09,0,0,1-.36-.93c-.07-.07-.14-.22.07-.29a6.13,6.13,0,0,0,.72-.14,2.33,2.33,0,0,1-.28-.51c-.15-.21-.36-.43-.15-.5a5.66,5.66,0,0,0,.94-.43c.14,0,.21,0,.21.14a2,2,0,0,1,.08.65c0,.07.07.21.28.07l.44-.22c.07-.07.14-.07.21.15a2.46,2.46,0,0,1,.07.43,22.11,22.11,0,0,0,2.24.5,9.22,9.22,0,0,0,1.65.15c.22-.07.36-.15-.14-.15a10.48,10.48,0,0,1-3.46-.93,4.11,4.11,0,0,1-1.8-2.59c-.07-.58,0-.51.51-.22a12.21,12.21,0,0,0,3.31,1.44,8.59,8.59,0,0,0,1.37.29s.43,0-.15-.15a10.68,10.68,0,0,1-3.89-1.87,4.82,4.82,0,0,1-1.8-2.45c-.07-.5-.14-.86.22-.57s1.44,1.08,2.16,1.51a12.75,12.75,0,0,0,1.8.72c.36.07.72.14.36,0a6.75,6.75,0,0,1-2.59-1.51,5.71,5.71,0,0,1-1.73-3.31c-.07-.87,0-.8.29-.58s1.29,1.44,1.87,1.94,1.51,1.08,1.94,1.37,1.08.58.22-.07a9.39,9.39,0,0,1-3.31-4,8.54,8.54,0,0,1-.58-3.17c.07-.14.22-.57.36-.21A16.36,16.36,0,0,0,45.5,92c.87,1,.65.79.87.93s.57.43.14-.07a15.66,15.66,0,0,1-1.87-3.1,11,11,0,0,1-.58-3.24,5.85,5.85,0,0,1,.44-2c.14-.36.28-.58.36-.22A24.68,24.68,0,0,0,46,88a17.47,17.47,0,0,0,1.29,2.6c.22.21.58.72.15-.15A14.84,14.84,0,0,1,46.08,85c-.14-2.3.14-3.6.5-4.18a2.32,2.32,0,0,1,.58-.86,16.38,16.38,0,0,0,.43,3.82,10.7,10.7,0,0,0,1.15,3.38s.29.36.08-.22a8.72,8.72,0,0,1-.58-2.52A13,13,0,0,1,48.53,80a5,5,0,0,1,1.22-2.23c.22,2.16.22,4.9,1,7.13.14-.15.29-.36.36.14a12.36,12.36,0,0,0,1.44,3.89c.94,1.73,1.37,1.94,1.37,1.94a3.06,3.06,0,0,1,.29-.64c.14-.22.21-.36.36-.08a11.91,11.91,0,0,0,1.87,3c1.15,1.36,1.87,2,1.8,3a2.2,2.2,0,0,1-1.3,2c-.72.5-.79.72-.72,1.29s.79.72,1.3.79a4.43,4.43,0,0,1,1.51.08c.29.14.29.5.5.79s.36.36.65.43h.15a6.13,6.13,0,0,0-.94-3.89l2.88-3.45.43.21c.07-.07.07-.07.07-.14a2,2,0,0,0,.58-1.51c-.14,0-.5.07-.72.07s-.07-.36,0-.58a5.34,5.34,0,0,0,.07-1.51,1,1,0,0,0-.07-.43s-.43.43-.65.43-.29-.22-.29-.5A2.21,2.21,0,0,0,61.06,88.92Z"/><path class="cls-5" d="M54.07,85.9a1.07,1.07,0,0,0,0,1.29,1.35,1.35,0,0,0,.87.58c1,.21,2-.36,2.88-.43a2.23,2.23,0,0,1,1.44.43.52.52,0,0,0,.5,0c.22-.15.36-.29.07-.43a4.79,4.79,0,0,0-1.65-.51,5.71,5.71,0,0,0-2,.22,1.94,1.94,0,0,1-1.08.07,1.72,1.72,0,0,1-1.08-1.22Zm29.45,0a1.21,1.21,0,0,1,0,1.29,1.55,1.55,0,0,1-.86.58c-1,.21-2-.36-2.88-.43a2.2,2.2,0,0,0-1.44.43.54.54,0,0,1-.51,0c-.29-.15-.36-.29-.07-.43a4.37,4.37,0,0,1,1.66-.51,5.07,5.07,0,0,1,1.87.22,2.19,2.19,0,0,0,1.15.07A1.7,1.7,0,0,0,83.52,85.9Z"/><path class="cls-6" d="M68.83,114.91s.07-.14-1.44-1.15-2.3-.86-3.89-1.87A5.68,5.68,0,0,1,61.13,109H76.46a5.89,5.89,0,0,1-2.3,2.88c-1.58,1-2.3.86-3.89,1.87s-1.44,1.15-1.44,1.15Z"/><path class="cls-7" d="M68.83,130.1c-.14,0-.07-.5-.14-.72v-.64H69v.64c-.08.22,0,.72-.15.72Zm0,1.37a2.49,2.49,0,0,0,.94-1,3.19,3.19,0,0,0,.36-1.22,7.2,7.2,0,0,1-.94-.86,1.89,1.89,0,0,1-.36-.44,1.89,1.89,0,0,1-.36.44,9.17,9.17,0,0,1-.86.86,2.24,2.24,0,0,0,.36,1.22,2.27,2.27,0,0,0,.86,1Zm2.23-2.95s-.5-.43-.64-.58a1.45,1.45,0,0,1-.58-.57v-.29a2.1,2.1,0,0,0,.58.58,2.29,2.29,0,0,1,.86.79,2.21,2.21,0,0,1,.22.5.52.52,0,0,1-.29-.14.48.48,0,0,0-.15-.29Zm-1.36-3a2.18,2.18,0,0,1-.44.5,1.49,1.49,0,0,1-.28.22,4.48,4.48,0,0,0,.36,1.58,5.49,5.49,0,0,0,1.29,1.3,8.71,8.71,0,0,1,.72.64c.22.22.51.29.65.08a1.87,1.87,0,0,0,0-1.52c-.22-.43-.79-.79-1.22-1.22a2.39,2.39,0,0,1-.72-.86,5.12,5.12,0,0,1-.36-.72Zm2.66,1.58a1.81,1.81,0,0,1,.36.22c.07,0,.14,0,.14-.08s0-.07-.14-.14a2.32,2.32,0,0,1-.65-.29c-.21-.14-.57-.57-.72-.65s-.29-.14-.21.08.36.28.57.5.36.29.43.29a.61.61,0,0,0,.22.07Zm-2.52-1.8a3,3,0,0,0,.36-.65l.22-1.08a3.12,3.12,0,0,1,.28.65.92.92,0,0,0,.58.5,1.07,1.07,0,0,0,.29.58,3.77,3.77,0,0,0,1.15.94A4.52,4.52,0,0,1,74,127.3c.28.43.28.86.14,1s-.29,0-.58-.14a15.48,15.48,0,0,1-2.23-.86,3.4,3.4,0,0,1-1.51-2Zm3.82.58s-.15-.08-.36-.22-.44-.36-.58-.5-.22-.22-.14-.29a.13.13,0,0,1,.21,0l.58.57a1.81,1.81,0,0,1,.43.29c.14.07.43.29.58.36s0,.07,0,.07a.35.35,0,0,0-.22-.07c-.14-.07-.5-.21-.5-.21Zm-2.16-1.08a3.29,3.29,0,0,0,1.08,1.15,7.78,7.78,0,0,0,2.08,1.22,2.24,2.24,0,0,0,.94.15c.36,0,.43-.15.29-.58a1.13,1.13,0,0,0-.72-.94c-.22-.21-.51-.43-.72-.64s-.65-.44-.94-.65a1.9,1.9,0,0,1-.65-.65.77.77,0,0,0-.14-.29,1.1,1.1,0,0,1-.43-.21l-.22-.22a6.09,6.09,0,0,1,0,1.15c-.07.36-.21.43-.57.51Zm4-.15s.21.15.21.07,0-.07-.29-.21a1.34,1.34,0,0,1-.43-.43c-.14-.15-.29-.22-.43-.36l-.29-.29-.14.07a3.15,3.15,0,0,0,.5.5,1.43,1.43,0,0,0,.58.51.67.67,0,0,0,.29.14Zm-2.52-1a2.17,2.17,0,0,0,.79.8c.57.36.79.57,1,.72a2,2,0,0,0,1.58.36,2.46,2.46,0,0,0,1.3-.51s.21-.21-.15-.36a3.62,3.62,0,0,1-1.29-.79A3.79,3.79,0,0,1,75,122.69a6.85,6.85,0,0,1-.36-.72l-.07.36a.94.94,0,0,1-.58-.07,3.06,3.06,0,0,1-.57-.44,1,1,0,0,0-.07.65,4,4,0,0,1,.07.79c-.07.22-.15.36-.22.36Zm-6.34,4.9a.49.49,0,0,0-.14.29.6.6,0,0,1-.29.14,2,2,0,0,1,.21-.5,2.33,2.33,0,0,1,.87-.79,2,2,0,0,0,.57-.58s.08.07,0,.29a1.48,1.48,0,0,1-.57.57c-.15.15-.65.58-.65.58Zm1.37-3a6.85,6.85,0,0,1-.36.72,2.61,2.61,0,0,1-.72.86c-.43.43-1,.79-1.23,1.22a1.91,1.91,0,0,0,0,1.52c.22.21.44.14.65-.08s.29-.28.72-.64a5.73,5.73,0,0,0,1.3-1.3,4.48,4.48,0,0,0,.36-1.58,1.38,1.38,0,0,1-.29-.22,2.34,2.34,0,0,1-.43-.5Zm-2.67,1.58a.56.56,0,0,0,.22-.07c.07,0,.22-.07.43-.29a2.32,2.32,0,0,0,.58-.5c.07-.22,0-.15-.22-.08s-.5.51-.72.65a2.2,2.2,0,0,1-.65.29c-.14.07-.14.14-.14.14s.07.08.14.08a2.16,2.16,0,0,1,.36-.22Zm2.52-1.8a3.4,3.4,0,0,1-1.51,2,15,15,0,0,1-2.23.86c-.29.14-.43.36-.58.14s-.14-.57.15-1a4.48,4.48,0,0,1,1.29-1.08,3.69,3.69,0,0,0,1.16-.94,1.09,1.09,0,0,0,.28-.58.92.92,0,0,0,.58-.5,4.88,4.88,0,0,0,.29-.65l.21,1.08a3.62,3.62,0,0,0,.36.65Zm-3.81.58-.51.21a.31.31,0,0,0-.21.07s-.15,0,0-.07.43-.29.57-.36a1.85,1.85,0,0,1,.44-.29l.57-.57a.14.14,0,0,1,.22,0c.07.07,0,.14-.15.29s-.43.36-.57.5l-.36.22Zm2.16-1.08c-.29-.08-.51-.15-.58-.51a6.09,6.09,0,0,1,0-1.15l-.21.22a1.18,1.18,0,0,1-.44.21.73.73,0,0,1-.14.29,1.81,1.81,0,0,1-.65.65c-.29.21-.65.43-.93.65a8,8,0,0,1-.8.64,1.15,1.15,0,0,0-.72.94c-.14.43-.07.58.29.58a2.73,2.73,0,0,0,1-.15,6.88,6.88,0,0,0,2.09-1.22,3.29,3.29,0,0,0,1.08-1.15Zm-4-.15a1.21,1.21,0,0,0,.36-.14,1.32,1.32,0,0,0,.57-.51,2.93,2.93,0,0,0,.51-.5l-.15-.07-.29.29c-.14.14-.28.21-.36.36a2,2,0,0,1-.57.43c-.29.14-.36.21-.29.21s.22-.07.22-.07Zm2.59-1h-.22c-.07,0-.14-.14-.21-.36a4,4,0,0,1,.07-.79,1.13,1.13,0,0,0-.07-.65,3.41,3.41,0,0,1-.58.44.94.94,0,0,1-.58.07l-.07-.36a5.12,5.12,0,0,1-.36.72,4,4,0,0,1-1.29,1.15,3.74,3.74,0,0,1-1.3.79c-.36.15-.14.36-.14.36a2.45,2.45,0,0,0,1.29.51,2.27,2.27,0,0,0,1.66-.36,11,11,0,0,1,1-.72,2.27,2.27,0,0,0,.79-.8Zm4.1,1.95c-1.08-.36-1.29-1.73-1.29-2.67,0-.5-.22-.28-.29,0s-.36.65-.72,1.16-.65.36-.72-.22a2.85,2.85,0,0,1,.14-1.22c0-.29-.14-.22-.36-.08a1,1,0,0,1-.57.51c-.36.21-.44,0-.51-.29a4.07,4.07,0,0,1,.15-1.3c0-.28-.15-.14-.15-.14a4.59,4.59,0,0,1-.43.36,1.12,1.12,0,0,1-.72.29,2.55,2.55,0,0,1,.29-1.59,2.65,2.65,0,0,1,.57-.79,3.12,3.12,0,0,0,.36-.14.53.53,0,0,0,.36-.15v.51a5.29,5.29,0,0,0-.57.65c-.15.14-.36.43-.07.14s.64-.43.64-.43a1.8,1.8,0,0,0,.22.65c.14.07.36.14.43.07h.15V121a2.57,2.57,0,0,0-.36.87c-.08.21,0,.21.14-.08a4.54,4.54,0,0,1,.58-.93c.14-.22.28-.36.28-.07a2.26,2.26,0,0,0,.22.93.83.83,0,0,0,.14.22,7.77,7.77,0,0,0-.21.86c-.07.07,0,.22.07.07A4.83,4.83,0,0,0,67,122a1.14,1.14,0,0,0,.58-.14,5.15,5.15,0,0,0,.29-.58,2.7,2.7,0,0,0,.28.79,1.29,1.29,0,0,0,.51.36,8.18,8.18,0,0,0,.07,1.23c0,.21,0,.28.07.28s.07-.07.15-.28v-1.23a1.22,1.22,0,0,0,.5-.36,2.78,2.78,0,0,0,.29-.79,3.86,3.86,0,0,0,.29.58c.14.14.57.14.57.14a4.83,4.83,0,0,0,.43.86c.08.15.15,0,.08-.07a7.48,7.48,0,0,0-.22-.86.83.83,0,0,0,.14-.22,2.11,2.11,0,0,0,.22-.93c0-.29.14-.15.29.07a5,5,0,0,1,.57.93c.15.29.22.29.15.08a2.57,2.57,0,0,0-.36-.87l.07-.14h.07c.07.07.29,0,.43-.07a1.62,1.62,0,0,0,.22-.65s.29.21.65.43.07,0,0-.14l-.65-.65v-.51a.53.53,0,0,0,.36.15,2.75,2.75,0,0,0,.43.14,6.51,6.51,0,0,1,.58.79A2.86,2.86,0,0,1,74.3,122a1.12,1.12,0,0,1-.72-.29l-.36-.36s-.21-.14-.21.14a4.34,4.34,0,0,1,.14,1.3c-.07.29-.14.5-.5.29a1.06,1.06,0,0,1-.58-.51c-.21-.14-.36-.21-.36.08a2.82,2.82,0,0,1,.15,1.22c-.08.58-.36.72-.72.22s-.58-.94-.72-1.16-.29-.5-.29,0c0,.94-.22,2.31-1.3,2.67Zm-1.29-6a4.72,4.72,0,0,0,.14-.5c0-.08-.07-.22-.14,0a.84.84,0,0,0-.15.5c0,.14-.14.43-.07.5s.07-.21.14-.36l.08-.14Zm-1.23-1.22.07-.22c-.07-.07-.21.07-.36.5s-.28.87-.21.87a3.54,3.54,0,0,0,.43-.79,1.32,1.32,0,0,0,.07-.36Zm-.93-1.3-.58.58a3.43,3.43,0,0,0-.29.79c-.07.29-.07.36.15,0a2.79,2.79,0,0,1,.5-.94,2.28,2.28,0,0,0,.22-.43Zm4.75,2.52.07.14c.07.15.14.36.14.36s-.07-.36-.07-.5a.89.89,0,0,0-.14-.5c-.07-.22-.15-.08-.15,0a4.48,4.48,0,0,0,.15.5Zm1.22-1.37a2,2,0,0,0,.07.51,3.89,3.89,0,0,0,.44.79c.07,0-.15-.51-.22-.87s-.29-.64-.36-.64l.07.21Zm.94-1.15.57.58a3,3,0,0,1,.29.79c.07.29.07.36-.14,0a5.68,5.68,0,0,0-.51-.94,1.93,1.93,0,0,1-.21-.43Zm-3.46,5s-.14.07-.29-.15c-.14-.07-.28-.57-.28-.93a1.49,1.49,0,0,1-.08-.51c0-.21,0-.72-.07-.72s-.14.22-.36.94-.36,1.08-.72,1.08-.43-.72-.43-1.08a5.69,5.69,0,0,1,.36-1.37c0-.21.14-.5,0-.5s-.22.36-.36.65-.07.28-.14.43a3,3,0,0,1-.65.65c-.22.07-.51-.08-.65-.58a3.3,3.3,0,0,1,.22-1.37c.14-.5.21-.86.21-.86l-.29.43c-.14.22-.21.58-.43.79a.76.76,0,0,1-.79.36c-.22-.07-.29-.5-.07-1.22a2.46,2.46,0,0,1,.43-1c.22-.29.5-.5.72-.79a15.43,15.43,0,0,0,.94-1.51,5.36,5.36,0,0,1,1.58,1.08c.94,1,1.15,1.29,1.15,1.29s.22-.29,1.15-1.29a5.4,5.4,0,0,1,1.59-1.08,6.22,6.22,0,0,0,.79,1.58c.5.58,1.15,1,1.3,1.73s.14,1.15-.08,1.22a.77.77,0,0,1-.79-.36,4.08,4.08,0,0,1-.43-.79,1.48,1.48,0,0,0-.22-.29,8.16,8.16,0,0,1,.36,2.09c-.14.5-.43.65-.64.58a1.43,1.43,0,0,1-.51-.58,2.15,2.15,0,0,1-.29-.5c-.28-.51-.43-.58-.36-.15a5.26,5.26,0,0,1,.36,1.37c0,.36-.07,1-.43,1.08s-.5-.29-.72-1.08-.29-.94-.36-.94-.07.51-.07.72-.14,1.3-.36,1.44-.29.15-.29.15Zm0-1.44v-.29c0-.14.07-.58.07-.79s-.07-.22-.07-.22-.14.22-.14.29.07.72.07.86,0,.15.07.15Zm0-45.72a.49.49,0,0,1,.51.5.5.5,0,0,1-.51.51.49.49,0,0,1-.5-.51.48.48,0,0,1,.5-.5Zm0,.14a.32.32,0,0,0-.29.29c0,.14.15.22.29.22a.2.2,0,0,0,.22-.22c0-.14-.07-.29-.22-.29Zm0,1.08a.51.51,0,1,1,0,1,.51.51,0,1,1,0-1Zm0,.15a.29.29,0,1,0,0,.57.29.29,0,1,0,0-.57Zm0,1.08a.61.61,0,0,1,.58.57.62.62,0,0,1-.58.58.61.61,0,0,1-.57-.58.61.61,0,0,1,.57-.57Zm0,.21a.27.27,0,0,0-.29.29.32.32,0,0,0,.29.29.31.31,0,0,0,.29-.29.26.26,0,0,0-.29-.29Zm0,1a3.76,3.76,0,0,1,.15.36,2.78,2.78,0,0,0,.36.43,1.84,1.84,0,0,0,.5-.86,6.85,6.85,0,0,0-.14-2c-.08-.72-.15-1.94-.15-1.94a1.64,1.64,0,0,1-.72.21,1.67,1.67,0,0,1-.72-.21S68,75.67,68,76.39a5.12,5.12,0,0,0-.15,2,1.79,1.79,0,0,0,.51.86,2.78,2.78,0,0,0,.36-.43,2.75,2.75,0,0,1,.14-.36Zm0,1.3a.14.14,0,1,1,0,.28.14.14,0,0,1,0-.28Zm0-.08a.4.4,0,0,1-.29-.21c0-.15.08-.22.15-.36a1.22,1.22,0,0,0,.14-.36,1.05,1.05,0,0,0,.15.36c.07.14.14.21.14.36a.39.39,0,0,1-.29.21ZM71,74.81c-.14,0-.29.07-.29.21s.15.22.29.22a.19.19,0,0,0,.22-.22c0-.14-.07-.21-.22-.21Zm1.73,4.68c-.07,0,.07-.07.07-.22s-.07-.14-.07-.29v-.43a.39.39,0,0,0-.22.07c-.07.15-.21.22-.28.36s-.36.29-.36.29a1.38,1.38,0,0,1-.08-.43,6.83,6.83,0,0,0,.15-.86,2.73,2.73,0,0,0-.58-1.59,4,4,0,0,0-1.29-1.08c-.22-.14-.22-.29-.29-.36v-.36c-.07-.29.14-.29.36-.21a3.81,3.81,0,0,1,.79.28h0a.48.48,0,0,0-.5.44.54.54,0,0,0,.5.43.41.41,0,0,0,.43-.43V75c.15.07.22.15.36.22a4.21,4.21,0,0,1,1.44,1.58,2.6,2.6,0,0,1,.36,2.09c-.14.5-.79.65-.79.65ZM72,76c-.29.07-.14.5.14.43s.29-.14.22-.29A.56.56,0,0,0,72,76Zm-.22-.07a.41.41,0,0,0-.07.65.48.48,0,0,0,.65.14.4.4,0,0,0,.07-.65.47.47,0,0,0-.65-.14Zm.94,1.51a.26.26,0,0,0-.29.29.27.27,0,0,0,.29.29.32.32,0,0,0,.29-.29.31.31,0,0,0-.29-.29Zm0-.22a.57.57,0,0,0-.58.58.51.51,0,0,0,.58.5.48.48,0,0,0,.5-.5.55.55,0,0,0-.5-.58Zm3,.58c-.14,0-.28.07-.28.22a.3.3,0,0,0,.28.28c.15,0,.22-.14.22-.28a.19.19,0,0,0-.22-.22Zm-.64-1.51a.33.33,0,0,0-.36,0c-.08.07-.08.21.07.29s.21.14.36.07a.8.8,0,0,0-.07-.36Zm-1.73-1.08a.21.21,0,1,0-.29.29.33.33,0,0,0,.36,0c.07-.08,0-.22-.07-.29Zm1.44,4.53a3.29,3.29,0,0,1,.5-.5c.29-.07.36-.22.36-.36v-.29a.46.46,0,0,1-.43-.43.42.42,0,0,1,.22-.43,3.39,3.39,0,0,0-.29-.72v-.15a.26.26,0,0,1-.22.08.42.42,0,0,1-.43-.44c0-.14,0-.21.07-.28a6.67,6.67,0,0,0-1.08-.58c-.07.07-.14.07-.29.07a.46.46,0,0,1-.43-.43h0a9.67,9.67,0,0,0-1-.29,7.66,7.66,0,0,1,.8.65l.36.36a3,3,0,0,1,1.36,1,2.45,2.45,0,0,1,.44,1.87c-.15.5,0,.86.07.86Zm.29.58a.25.25,0,0,0-.15.07.16.16,0,0,0,.15.15c.07,0,.07-.08.07-.15a.07.07,0,0,0-.07-.07Zm.43-.94a.83.83,0,0,1,.07.51c-.07.21-.22.21-.43.21s-.29-.07-.22-.21.15-.22.22-.36a.69.69,0,0,1,.36-.15Zm-1,.65c.07,0,.22,0,.22.15s-.22.28-.44.36a.59.59,0,0,1-.36-.15c-.14-.07-.14-.07.08-.14a1.56,1.56,0,0,1,.5-.22Zm-.58.79a.68.68,0,0,1-.57-.57s-.58.43-.94.36-.43-.29-.43-.29-.07.36.14.5a3.74,3.74,0,0,0,.58.22c.22,0,.36.07.5.07a2.55,2.55,0,0,0,.72-.29ZM73,80.06a.34.34,0,0,0-.22.08c-.14.07-.21.14-.36.07s-.21-.07-.14-.22.07-.14.29-.21.21,0,.28.07a.83.83,0,0,1,.15.21Zm-1-.21a.15.15,0,0,0-.14.14c0,.07.07.07.14.07s.07,0,.07-.07,0-.14-.07-.14Zm.58-1a.23.23,0,0,0-.15.07c-.07.15-.21.22-.36.36a.43.43,0,0,0-.14.43,1.59,1.59,0,0,0,.43-.07.53.53,0,0,0,.22-.43v-.36Zm-.87.79a.49.49,0,0,1-.21.51.41.41,0,0,1-.44-.08L71,79.92a1.12,1.12,0,0,1,.29-.14c.14-.08.22-.15.29-.15Zm-1.15.43h-.22a2.53,2.53,0,0,1-.28.36.76.76,0,0,1-.58.15.32.32,0,0,1-.36-.22L69,80.21c-.08.07-.08.21.07.36s.36.21.36.21H71a.77.77,0,0,0,.58-.28c.21-.15.21-.22.21-.29s-.21.14-.36.29a.69.69,0,0,1-.64,0c-.15-.08-.22-.44-.22-.44ZM70,80a2.08,2.08,0,0,0-.36-.29.34.34,0,0,0-.43.08c-.14.07-.07.28,0,.36a.82.82,0,0,0,.58,0C70,80.06,70,80,70,80Zm-3.31-5.18c.15,0,.29.07.29.21s-.14.22-.29.22-.21-.07-.21-.22a.19.19,0,0,1,.21-.21Zm-1.73,4.68s-.64-.15-.79-.65a2.64,2.64,0,0,1,.36-2.09A3.7,3.7,0,0,1,66,75.17c.15-.07.22-.15.36-.22a.25.25,0,0,0-.07.15.47.47,0,0,0,.43.43.49.49,0,0,0,.51-.43.42.42,0,0,0-.44-.44h0a7.09,7.09,0,0,1,.72-.28c.22-.08.44-.08.44.21s0,.29-.08.36a.39.39,0,0,1-.21.36,3.88,3.88,0,0,0-1.3,1.08A2.26,2.26,0,0,0,65.74,78a7.27,7.27,0,0,0,.14.86.9.9,0,0,1-.14.43L65.45,79c-.07-.14-.22-.21-.29-.36a.37.37,0,0,0-.22-.07V79a.58.58,0,0,0-.07.29.32.32,0,0,0,.07.22ZM65.66,76a.59.59,0,0,0-.36.14c-.07.15,0,.29.15.29.36.07.5-.36.21-.43Zm.22-.07a.57.57,0,0,0-.72.14.47.47,0,0,0,.07.65.57.57,0,0,0,.72-.14.4.4,0,0,0-.07-.65Zm-.94,1.51a.3.3,0,0,0-.28.29.29.29,0,1,0,.57,0,.3.3,0,0,0-.29-.29Zm0-.22a.56.56,0,0,0-.5.58.49.49,0,0,0,.5.5.55.55,0,0,0,.58-.5.62.62,0,0,0-.58-.58Zm-3.09.58c.14,0,.29.07.29.22a.31.31,0,0,1-.29.28.3.3,0,0,1-.29-.28c0-.15.14-.22.29-.22Zm.72-1.51a.33.33,0,0,1,.36,0,.18.18,0,0,1-.07.29.26.26,0,0,1-.36.07c-.08-.07-.08-.22.07-.36Zm1.73-1.08a.18.18,0,0,0-.08.29.33.33,0,0,0,.36,0,.21.21,0,0,0,0-.29.21.21,0,0,0-.28,0ZM62.86,79.7c.07,0,.21-.36.07-.86A2.48,2.48,0,0,1,63.36,77a3,3,0,0,1,1.37-1A4.38,4.38,0,0,0,65,75.6a5.73,5.73,0,0,1,.86-.65,9.67,9.67,0,0,0-1,.29h0a.45.45,0,0,1-.43.43c-.14,0-.22,0-.29-.07a7.63,7.63,0,0,0-1.08.58c.07.07.07.14.07.28a.46.46,0,0,1-.43.44.24.24,0,0,1-.21-.08c0,.08,0,.08-.08.15a2.9,2.9,0,0,0-.28.72.6.6,0,0,1,.14.43.4.4,0,0,1-.36.43v.29c0,.14.07.29.36.36a2.08,2.08,0,0,1,.58.5Zm-.29.58a.24.24,0,0,1,.14.07.16.16,0,0,1-.14.15.17.17,0,0,1-.15-.15.29.29,0,0,1,.15-.07Zm-.51-.94a.69.69,0,0,1,.36.15,1,1,0,0,1,.29.36c.07.14-.14.21-.36.21s-.29,0-.36-.21a.83.83,0,0,1,.07-.51Zm1.08.65c-.07,0-.28,0-.21.15s.21.28.43.36a.57.57,0,0,0,.36-.15c.14-.07.07-.07-.07-.14a2.78,2.78,0,0,0-.51-.22Zm.58.79a.69.69,0,0,0,.58-.57,1.43,1.43,0,0,0,.93.36c.43,0,.43-.29.43-.29s.08.36-.14.5a2.68,2.68,0,0,1-.65.22c-.14,0-.29.07-.43.07a1.77,1.77,0,0,1-.72-.29Zm.94-.72a1,1,0,0,1,.14-.21c0-.07.07-.15.29-.07s.29.14.29.21,0,.22-.15.22a.32.32,0,0,1-.36-.07.49.49,0,0,0-.21-.08Zm1-.21a.15.15,0,0,1,.15.14c0,.07-.07.07-.15.07s-.14,0-.14-.07a.15.15,0,0,1,.14-.14Zm-.57-1v.36a.52.52,0,0,0,.21.43,1.64,1.64,0,0,0,.44.07.7.7,0,0,0-.15-.43c-.14-.14-.29-.21-.36-.36a.22.22,0,0,0-.14-.07Zm.86.79H66a.35.35,0,0,1,.29.15.86.86,0,0,1,.36.14l-.07.14a.52.52,0,0,1-.5.08c-.22-.15-.15-.51-.15-.51Zm1.15.43s-.07.36-.21.44a.71.71,0,0,1-.65,0,2.2,2.2,0,0,0-.36-.29c0,.07,0,.14.14.29s.29.28.58.28h1.66s.28,0,.36-.21.14-.29.07-.36-.07.07-.15.14a.32.32,0,0,1-.36.22.74.74,0,0,1-.57-.15,2.2,2.2,0,0,1-.29-.36Zm.58-.07s0,.07.22.15a.79.79,0,0,0,.57,0,.33.33,0,0,0,0-.36A.34.34,0,0,0,68,79.7a2.61,2.61,0,0,0-.36.29Zm1.15-7.63a.45.45,0,0,1,.29.07v.65h.79c0,.14.07.22.07.29v.14H67.75v-.14a.56.56,0,0,1,.07-.29h.8v-.65a.26.26,0,0,1,.21-.07Zm-.36-1.66.15.58L68,71.21v.57l.65-.14v.58h.57l-.07-.58.65.14.07-.57-.72.07.14-.58Zm.36,12.82A7.58,7.58,0,0,1,66,83.16,24.21,24.21,0,0,1,68.83,83a25.06,25.06,0,0,1,2.81.14,7.54,7.54,0,0,1-2.81.36Zm5-1.44-.5-.43-.87.21.72.51.65-.29Zm-9.94,0,.51-.43.79.21-.65.51-.65-.29Zm5,.43a19.18,19.18,0,0,0-3.53.29,2,2,0,0,1-.5.07c-.14,0-.14-.07-.07-.14a2.55,2.55,0,0,1,.72-.58c.14,0,.07-.21,0-.29a2.93,2.93,0,0,0-.94-.28c-.29-.15-.21-.22-.21-.22s.14-.22,1.29-.29,3.24-.14,3.24-.14,2,0,3.17.14,1.37.29,1.37.29.07.07-.29.22a2.9,2.9,0,0,0-.86.28c-.08.08-.15.29,0,.29a2.87,2.87,0,0,1,.72.58c.07.07.07.14-.08.14a2,2,0,0,1-.5-.07,19,19,0,0,0-3.53-.29Zm-2.16-1.37a.65.65,0,1,0,.65.65.65.65,0,0,0-.65-.65Zm0,.15a.34.34,0,0,0-.36.36.35.35,0,0,0,.36.36.34.34,0,0,0,.36-.36.34.34,0,0,0-.36-.36ZM71,81.14a.65.65,0,1,0,.65.65.65.65,0,0,0-.65-.65Zm0,.15a.4.4,0,0,0-.43.36A.41.41,0,0,0,71,82a.34.34,0,0,0,.36-.36.34.34,0,0,0-.36-.36Zm-2.16.65.72-.36-.72-.36-.72.36.72.36Zm0,.43s.72-.36.94-.43.14-.15.07-.29a.48.48,0,0,0-.36-.29,6.19,6.19,0,0,1-.65-.29s-.43.22-.65.36-.21.07-.28.22,0,.21.07.29l.86.43Zm0,1.29a9.87,9.87,0,0,1-3.17-.43,3.06,3.06,0,0,1-.79.15,9.41,9.41,0,0,0,4,.64,9.38,9.38,0,0,0,4-.64,3.15,3.15,0,0,1-.79-.15,9.87,9.87,0,0,1-3.17.43Zm-3.31,8.72a5.88,5.88,0,0,1-.07,1.87,2.56,2.56,0,0,1-.22.79,5.63,5.63,0,0,0,2-.14,5.11,5.11,0,0,0,1.08-.36s.14,0,0-.22a4.59,4.59,0,0,1-.65-1,2.23,2.23,0,0,0-.14-.43A3,3,0,0,1,66,92.52a2.42,2.42,0,0,0,.65.94c.29.21.36.21.36.21a1,1,0,0,1-.79-.36,3.44,3.44,0,0,1-.65-.93ZM63.43,93.6a6.94,6.94,0,0,1-.36.65.87.87,0,0,1-.14.21,1.59,1.59,0,0,0,.5.22c.36.14.65.22.65.22a5.33,5.33,0,0,1-.5-.87,1.78,1.78,0,0,1-.15-.43Zm-5.25-5.76a2.11,2.11,0,0,0,1.36.14c.58-.14.87-.36.51-.72s-.51-.36-1.15-.93A2.56,2.56,0,0,0,57,85.54a1.68,1.68,0,0,0-.79.5c0,.07-.29.29-.29-.22a1.55,1.55,0,0,1,.72-1.36,1.85,1.85,0,0,1,1.52.07,7,7,0,0,1,.93.36.8.8,0,0,0,.22.79.63.63,0,0,0,.86-.14,2.11,2.11,0,0,0,.07-.36,6.1,6.1,0,0,0,1.37.43,3.66,3.66,0,0,0,1.73-.07s.5.5.86.79.65.5.65.5,0,.07-.14.15-.29.07-.15.28.94.87,1.23,1.08a4.48,4.48,0,0,0,.86.51.76.76,0,0,1-.36.36c-.29.07-.29.21-.21.43A10.76,10.76,0,0,0,67.39,91a2,2,0,0,0,.72.43c.15,0,.43.14.15.5a1.69,1.69,0,0,1-1.73.29,3.8,3.8,0,0,1-1.44-1.08A15.68,15.68,0,0,1,65.3,93a4.26,4.26,0,0,1-.21,1.51,2,2,0,0,1-.15.51,2.45,2.45,0,0,1-.86-1.08,5.28,5.28,0,0,1-.36-1.59c0-.21-.07-.36-.29-.28a4.7,4.7,0,0,0-.43.28h-.14A6.37,6.37,0,0,0,63,91.22c0-.43-.14-1.44-.36-1.58s-.22.07-.22.14a.89.89,0,0,1-.57.58,2.88,2.88,0,0,0-.79-1.8c-.08-.07-.15-.22-.51-.07a2.21,2.21,0,0,1-1.65.14c-.51-.21-.87-.72-.72-.79Zm1.58-3.46a4.12,4.12,0,0,1,1.66.65,3.15,3.15,0,0,0,2,.15,6.21,6.21,0,0,0,.58-.29,1.39,1.39,0,0,0,.65-1.37,4,4,0,0,1-2.16.65s.07,0,.21.14.29.29.22.29-.36-.22-.65-.43a3.73,3.73,0,0,0-1.3-.58,2.85,2.85,0,0,0-1.87,0c-.5.29-.5.65-.43.79s.07.08.22.08.5-.15.86-.08Zm4.1,5.19a7.34,7.34,0,0,0-.5-1.73c-.36-.5-.65-.86-.72-.94s-.43-.21-.14.08a3.53,3.53,0,0,1,.64.93c.15.29.22.65,0,.58a1.17,1.17,0,0,1-.43-.22c-.21-.14-.5-.43-.65-.43s-.43,0-.21.22a9,9,0,0,0,.79.72c.36.21.58.36.79.5l.43.29Zm.36,1.87s.22,1.8.29,2.09.15.21.22.21c-.15-.07-.15-.5-.15-.57s-.07-1.44-.07-1.66-.14-.14-.14-.14l-.15.07Zm1.23-1.15a.36.36,0,0,0,0,.29,4.72,4.72,0,0,0,.86.72,1.42,1.42,0,0,0,.65.21h0a5,5,0,0,1-1.15-.72,3.47,3.47,0,0,1-.36-.5Zm-5.83-5.55a.39.39,0,0,0-.36.36c0,.15.21.29.36.29A.33.33,0,0,0,60,85.1a.35.35,0,0,0-.36-.36Zm12.52,7.64a5.69,5.69,0,0,0,.08,1.87,2.49,2.49,0,0,0,.21.79,5.57,5.57,0,0,1-2-.14,5.11,5.11,0,0,1-1.08-.36s-.15,0,0-.22a2.9,2.9,0,0,0,.57-1l.22-.43a3,3,0,0,0,1.58-.36,2.42,2.42,0,0,1-.65.94c-.28.21-.36.21-.36.21a1,1,0,0,0,.8-.36,3.27,3.27,0,0,0,.64-.93Zm2.09,1.22a6.19,6.19,0,0,1,.29.65l.22.21a1.68,1.68,0,0,1-.58.22,3.89,3.89,0,0,1-.58.22,5.92,5.92,0,0,0,.51-.87,1.87,1.87,0,0,0,.14-.43Zm5.19-5.76a2.14,2.14,0,0,1-1.37.14c-.58-.14-.87-.36-.51-.72s.51-.36,1.16-.93a2.44,2.44,0,0,1,1.87-.79,1,1,0,0,1,.72.5c.07.07.36.29.36-.22a1.55,1.55,0,0,0-.72-1.36,2,2,0,0,0-1.59.07,8.37,8.37,0,0,0-.86.36.92.92,0,0,1-.29.79.55.55,0,0,1-.79-.14.85.85,0,0,0-.14-.36,4.82,4.82,0,0,1-1.3.43,3.38,3.38,0,0,1-1.66-.07s-.5.5-.86.79l-.72.5a1,1,0,0,0,.22.15c.21.07.21.07.14.28a10,10,0,0,1-1.3,1.08,2.92,2.92,0,0,1-.79.51.82.82,0,0,0,.36.36.3.3,0,0,1,.22.43c-.15.14-.94,1.08-1.3,1.37a2.71,2.71,0,0,1-.72.43c-.14,0-.43.14-.14.5a1.69,1.69,0,0,0,1.73.29,3.29,3.29,0,0,0,1.36-1.08s-.14,1.23-.14,1.8a4,4,0,0,0,.22,1.51,2.46,2.46,0,0,0,.14.51,2.11,2.11,0,0,0,.79-1.08,4.25,4.25,0,0,0,.43-1.59c0-.21,0-.36.22-.28s.43.21.5.28h.15a6,6,0,0,1-.15-1.08A3.26,3.26,0,0,1,75,89.64c.15-.22.15.07.15.14a.79.79,0,0,0,.5.58,4.07,4.07,0,0,1,.79-1.8c.15-.07.22-.22.51-.07a2.39,2.39,0,0,0,1.73.14c.5-.21.86-.72.72-.79Zm-1.59-3.46A4.76,4.76,0,0,0,76.1,85a2.7,2.7,0,0,1-1.87.15,2.56,2.56,0,0,1-.57-.29A1.24,1.24,0,0,1,73,83.52a4,4,0,0,0,2.16.65s-.07,0-.22.14-.36.29-.21.29.36-.22.5-.43a4.26,4.26,0,0,1,1.37-.58,2.84,2.84,0,0,1,1.87,0c.5.29.5.65.43.79s-.07.08-.21.08c-.29,0-.51-.15-.87-.08Zm-4,5.19a7.88,7.88,0,0,1,.5-1.73c.36-.5.65-.86.72-.94s.36-.21.15.08a3.71,3.71,0,0,0-.72.93c-.07.29-.15.65.07.58s.29-.07.43-.22.43-.43.58-.43.36,0,.21.22l-.72.72a5.33,5.33,0,0,0-.79.5l-.43.29Zm-.36,1.87s-.22,1.8-.29,2.09-.14.21-.21.21c.14-.07.14-.5.14-.57s.07-1.44.07-1.66.15-.14.15-.14l.14.07Zm-1.3-1.15s.15.14.08.29a5.2,5.2,0,0,1-.87.72,1.42,1.42,0,0,1-.65.21h0a3.68,3.68,0,0,0,1.08-.72c.36-.36.36-.5.36-.5ZM78,84.74a.39.39,0,0,1,.36.36c0,.15-.22.29-.36.29a.32.32,0,0,1-.36-.29.34.34,0,0,1,.36-.36Zm.07,24.56A10.44,10.44,0,0,0,78.7,111c.43.65.79.87.5,1s-.65.22-1.15,0a1.34,1.34,0,0,1-.72-1,1.36,1.36,0,0,1,.29-.43c0,.07.14.14.21.22l.29.36-.22-.58c-.07-.07-.14-.22-.21-.29a3.67,3.67,0,0,0,.36-.93Zm3.6.86a4.48,4.48,0,0,1-.43-.58c-.15-.14-.08-.21-.36-.14h-.72s-.29,0-.08.22a2.59,2.59,0,0,0,.72.72c.29.21.65.28.58.36s-.5-.08-.79-.29a6.61,6.61,0,0,1-.72-.79,2.3,2.3,0,0,0-.22-.29,2.36,2.36,0,0,1-.93-.29,2.14,2.14,0,0,1-.44-.43,2.69,2.69,0,0,0,.87,1.87,3.7,3.7,0,0,0,1.08.86,2,2,0,0,0,1.51.36c.79-.07.86-.21.86-.21s.15-.07,0-.29-.64-.72-.93-1.08Zm4.82-.14a3,3,0,0,1-2.45.72c-1.72-.08-2.37-.94-2.44-1.44a1,1,0,0,1,.21-.94l.22.22a7.93,7.93,0,0,0,1,.79c.57.21.72.21.21-.07a10.45,10.45,0,0,1-1.29-1l.21-.15c.22-.07.58.08,2,.94a6.22,6.22,0,0,0,2.3.94Zm2.45-2a11.2,11.2,0,0,1-2.38-.65,6.15,6.15,0,0,1-1.58-.86,2.15,2.15,0,0,1-.72.21h-.5a4.73,4.73,0,0,0,1.15.87c.36.14.43.14.57.21s.22.15,0,.08a1,1,0,0,0-.57-.15,7,7,0,0,1-.79-.43,1.48,1.48,0,0,1-.29-.22s.14.58-.22.65a4.38,4.38,0,0,0-.36.29,7.79,7.79,0,0,0,2.31.86,3.74,3.74,0,0,0,2.59,0,1.24,1.24,0,0,0,.79-.86Zm1.66-27.72s.57.43.79,2.74a13.85,13.85,0,0,1-.72,5.4c-.29.86-.79,1.94-.79,1.94,0-.5-.08-.86-.44-1A6.77,6.77,0,0,0,90,88.2a11.81,11.81,0,0,0,.36-1.51c.14-1.15.29-2.31-.07-.43a11.39,11.39,0,0,1-.72,2.66l-.51.79a4.31,4.31,0,0,0,.08-1,4.53,4.53,0,0,0-.22-1.29,14,14,0,0,0,1-2.59,16.61,16.61,0,0,0,.57-3.53,4.34,4.34,0,0,1,.08-1ZM87.77,88.2a1.78,1.78,0,0,1,.29-.5,6.15,6.15,0,0,1,.43-.72,10.19,10.19,0,0,0,.5-2.09,23.65,23.65,0,0,0,.15-2.81,7.07,7.07,0,0,0-1.23-4s-.14,2.66-.29,3.67a27.46,27.46,0,0,1-.57,3.1,1.21,1.21,0,0,0,.14.36,4.78,4.78,0,0,0,.36.86,1.59,1.59,0,0,1,.07.43,13,13,0,0,0,.44-1.87c.07-.79.14-1.3.14-1.58s.07-.65.07,0A17,17,0,0,1,88.13,85c-.07.5-.29,1.22-.29,1.37s-.07.29-.14.43.07.29.07.43a2.46,2.46,0,0,1,0,.72v.29Zm2.52,9v.5c-.07.08-.07.22.07.15A11.21,11.21,0,0,0,93,96.41a5.93,5.93,0,0,0,2-2.81,7,7,0,0,0,.07-.86c0-.15-.07-.15-.15,0s-1.29,1.36-1.94,1.87A9.18,9.18,0,0,1,91,96a3,3,0,0,0-1,.5,1.38,1.38,0,0,1-.22.29.55.55,0,0,1,.44.07.37.37,0,0,1,.07.22l1.29-.72a10.3,10.3,0,0,1,1.16-.72c.14-.15.36-.15,0,.14s-.94.65-1.44.94-1,.5-1,.5Zm-.65,3c-.07-.07.07-.36,0-.57s-.22-.22-.58-.22-.07-.07,0-.07a2.2,2.2,0,0,0,.58-.14,11.75,11.75,0,0,0,1.73-.51c.72-.21.93-.43.93-.5s-.36.14-1,.43a11.94,11.94,0,0,1-1.8.43c-.44.07-.08-.07.14-.21a1.92,1.92,0,0,0,.43-.51L91.3,98a8.18,8.18,0,0,0,2-.79l.65-.43c.43-.36.86-.65,1-.79s.21,0,.14.07a2.66,2.66,0,0,1-.57,1.22,6,6,0,0,1-1.8,1.66,7.43,7.43,0,0,1-3.1,1.29Zm-1.22,2.24a9.44,9.44,0,0,0,3.09-.44,3.9,3.9,0,0,0,2.31-1.51,2.15,2.15,0,0,0,.64-1.22c0-.22.08-.36-.21-.15a13.4,13.4,0,0,1-2.16,1.08,9.27,9.27,0,0,1-2.31.72,2.76,2.76,0,0,0-.86.15,1.46,1.46,0,0,1-.65.29,1.55,1.55,0,0,1-.43.07,1.22,1.22,0,0,1,.36.14c.14.07.43,0,.94-.07a12.84,12.84,0,0,0,1.94-.29,2.23,2.23,0,0,0,.43-.14c0,.07-.29.21-.79.29a3.9,3.9,0,0,1-1.3.28,5.87,5.87,0,0,0-1,.15.49.49,0,0,1,.14.43c-.07.22-.14.22-.14.22Zm-1.66,2.16a.67.67,0,0,1,.14-.29.9.9,0,0,0,.08-.58s.28.07.72.15a3.33,3.33,0,0,0,1.44,0c.57-.08.36-.15-.08-.08a5.08,5.08,0,0,1-1.58-.21c-.29-.07-.14-.22,0-.22a4.28,4.28,0,0,0,.72-.43,16.39,16.39,0,0,0,2.45.07,12,12,0,0,0,2.16-.5c.21,0,.21.07.21.07s.08.07-.36.72a3.7,3.7,0,0,1-1.87,1.3,12.63,12.63,0,0,1-2.59.28,2.53,2.53,0,0,1-1.44-.28Zm-1.73.93c0-.07.36.07.72.22a5.92,5.92,0,0,0,1.51.36c.29,0,.29,0,.29-.07s-.21,0-.72-.08a4.64,4.64,0,0,1-1.44-.64c-.14-.08-.07-.08.15-.15a.79.79,0,0,0,.43-.14c.07-.07.29,0,.86.14a11.27,11.27,0,0,0,2.52.29,15.64,15.64,0,0,0,1.73-.14c.14,0,.29.07-.07.72s-1.87,1.08-2.88,1.08a8.26,8.26,0,0,1-2.67-.8.67.67,0,0,1-.43-.79Zm5.47-9.93a7.93,7.93,0,0,1,.72-.51A8.35,8.35,0,0,0,93.6,92.3a6.13,6.13,0,0,0,.86-3.74s-.64,1.15-1.15,2.09a15.78,15.78,0,0,1-2.37,2.73c-.51.44-.58.44-.51.58a.57.57,0,0,1,.15.36v.14a12.16,12.16,0,0,0,1.36-1.22c.51-.58,1-1,.36-.29a12.33,12.33,0,0,1-1.08,1.23c-.21.21-.57.5-.57.5a2.42,2.42,0,0,1-.07.58.83.83,0,0,1-.08.36Zm-.14-2.31a7.11,7.11,0,0,0,1.8-2.45,10.67,10.67,0,0,0,1.15-3.74A6,6,0,0,0,93.1,85c-.08-.43-.22-.79-.36-.14s-.8,2.8-1.08,3.67a18.16,18.16,0,0,1-1.23,2.16c-.14.14-.21.29-.36.43l-.29.58s.08,0,.15-.15.21-.21.29-.14.28.57.28.57.36-.5.8-1.15a12.39,12.39,0,0,0,.79-1.73,7.93,7.93,0,0,1-.79,2c-.51.72-.72,1.08-.72,1.08a2.36,2.36,0,0,1-.08.57,2.18,2.18,0,0,1-.14.65ZM80,103.61a2.42,2.42,0,0,0-.43-.43c-.07-.15-.14-.22-.22-.15s0,.22.15.29.29.29.43.29.14.14.22.14.21.15.07,0-.22-.14-.22-.14Zm2.16-1.23s-.57-.36-.72-.43-.21-.21-.29-.21,0,.21.08.28.28.15.36.22.14.07.28.14a.4.4,0,0,0,.36.15c.15.07.22,0,.08-.07s-.15-.08-.15-.08Zm1.08-1.51s-.29-.21-.43-.29-.14-.14-.22-.07-.07.07.15.22l.57.29a.36.36,0,0,0,.29.14c.07-.07-.07-.14-.14-.22a.61.61,0,0,0-.22-.07ZM85,99.5a1.43,1.43,0,0,0-.43-.28c-.22-.08-.36-.08-.36,0s0,.07.14.14a1,1,0,0,1,.51.22c.14,0,.28.07.28,0L85,99.5Zm.5-1.8a1.13,1.13,0,0,1,.29.15c.15,0,.15.07-.07.07a1.29,1.29,0,0,1-.5-.14c-.29,0-.36-.08-.29-.15s.14,0,.21,0a2.86,2.86,0,0,1,.36.07Zm-1-5.32s.14-.15.21-.08-.21.22-.36.29S84,93,84,93s.07-.21.22-.36a1.15,1.15,0,0,1,.29-.21ZM85.9,94a1,1,0,0,0,.21-.14c.07,0,.29-.08,0,.07a1.71,1.71,0,0,1-.5.36c-.07.07-.22.14-.22.07s0-.14.22-.22A.91.91,0,0,0,85.9,94Zm.36,1.73s.28-.07.28,0,0,.07-.21.07a2.17,2.17,0,0,1-.65.14c-.22.08-.36.08-.36,0s.29-.07.5-.14a2.64,2.64,0,0,0,.44-.07Zm-3.17-5.33a1.37,1.37,0,0,1,.29.72c0,.36-.15.72,0,.86s.21-.21.79-.43,1-.29,1.29.15,0,1.08-.28,1.36-.58.58-.51.72.58-.21.72-.28A1.28,1.28,0,0,1,86.47,93c.51,0,.72.22.72.65s-.43.87-.79,1S85.9,95,86,95s.21,0,.36,0a1.19,1.19,0,0,1,.86,0,.54.54,0,0,1,.29.94,2.48,2.48,0,0,1-1.44.64c-.14.08-.22,0-.29.15s.36.14.87.14.57.51.5.79-.79.72-1.22.8-.65,0-.65.14.07.14.29.22.72.14.79.5a.83.83,0,0,1-.29.94,1.72,1.72,0,0,1-1.08.21c-.22-.07-.36-.21-.58-.07s.15.36.44.5.28.65-.22.94a1.61,1.61,0,0,1-1.15.07c-.22-.07-.51-.36-.65-.21s.43.28.65.57.14.79-.29,1.08a1.92,1.92,0,0,1-1.44,0c-.14-.14-.29-.21-.43-.07s.07.36.21.58.29,1-.43,1.22a1.38,1.38,0,0,1-1.51-.43c-.14-.15-.29-.15-.36-.07s-.07.14,0,.28.29.58-.22,1a1.15,1.15,0,0,1-.93.15,8.26,8.26,0,0,1-.43-1.44h.14c.07,0,.07.14.07.14s0,.07.07.07.08.07.15.15.14.14.21.07-.21-.15-.21-.22-.22-.21-.22-.29-.07-.14-.21-.21-.08-.07-.08-.15c-.07-.36-.14-.86-.21-1.44a5.6,5.6,0,0,1-.07-1.08h.21a1.47,1.47,0,0,0,1.15-.72c.29-.5.87-.64,1.73-.57a1.43,1.43,0,0,0,1.51-1.08c.22-.58,0-1.3-.93-1.8a2,2,0,0,1-1.37-1.66c0-.79.94-1.8,1.87-2.88a13.37,13.37,0,0,0,1.66-2.59Zm3.81.86s-.36.44-.5.65-.29.29-.29.36.15-.07.22-.14.29-.43.43-.58a2.19,2.19,0,0,0,.29-.43c-.07-.07-.15.14-.15.14Zm-1.44-1a3.91,3.91,0,0,0,.44-.51c.07-.07,0-.14-.15,0a8.83,8.83,0,0,0-.65.94c-.07.07-.21.43.08.07a1.78,1.78,0,0,0,.28-.5ZM83,105.55a4.27,4.27,0,0,0-.51-.36c-.07-.07-.07-.14-.14-.07s.14.14.29.29.43.29.5.36a.8.8,0,0,1,.22.07c0-.07,0-.07-.15-.14a1.07,1.07,0,0,1-.21-.15Zm2.16-1.37a2.64,2.64,0,0,0-.44-.07,1.11,1.11,0,0,1-.43-.07c-.14-.07-.29-.22-.36-.07s.07.14.22.14.29.07.5.15.29-.08.43,0,.22.07.22,0-.14-.08-.14-.08Zm1.36-1.58h-.43a1.6,1.6,0,0,1-.57-.07c-.15,0-.29-.07-.29,0s0,.07.14.14a2.93,2.93,0,0,0,.79,0c.36,0,.58,0,.58-.07ZM88,100.37l-.28.14c-.15,0-.36.07-.58.07s-.22-.07-.22-.14.29-.07.51-.07.57-.07.57,0Zm.08-2.09h-.29c-.15,0-.15.07-.15.14s.08.08.15,0a.58.58,0,0,0,.29-.07c.07,0,.28-.07.28-.14s-.28.07-.28.07Zm.72-2.38c-.08,0-.15.08-.22.15a.9.9,0,0,1-.29.21,1.89,1.89,0,0,1-.43.29c-.14.07-.22.15-.14.22s.21,0,.43-.15a2,2,0,0,1,.36-.36c.07-.07.29-.28.29-.36ZM88.63,94l-.29.15-.28.28c-.08.15-.29.29-.22.29s.14,0,.22-.14a1.11,1.11,0,0,0,.28-.29l.29-.29Zm-.86-1.29a1.07,1.07,0,0,0-.15.21c-.14.07-.14.15-.14.15s.14-.08.22-.15a5.16,5.16,0,0,1,.36-.43c.14-.22,0-.14-.08-.07a2.62,2.62,0,0,0-.21.29Zm-8,15.4s-.44-.28-.44-.36-.07-.07-.14-.07,0,.07.14.22a1.83,1.83,0,0,0,.65.43c.15.07.22,0,.22,0a.32.32,0,0,0-.22-.07,1.26,1.26,0,0,0-.21-.15ZM81.94,107a1.75,1.75,0,0,1-.58-.29c-.22-.14-.29-.36-.36-.21s.14.14.22.21a1.09,1.09,0,0,0,.5.29c.22.07.36.15.36.07s-.14-.07-.14-.07Zm7.41-17.42c0-.07.07-.07.15,0a1.24,1.24,0,0,1,.21,1,3.81,3.81,0,0,1-1.08,2.08c-.43.51-.93.87-.86.94s.57-.29.86-.65l1.3-1.29c.14-.22.43-.08.43.79s-1,1.65-1.37,2.16-.86.72-.79.79.36-.14.65-.29a11.61,11.61,0,0,0,1.37-.93c.21-.15.28.14.07.93a3.48,3.48,0,0,1-1.37,1.73c-.43.29-1.08.65-1,.79s.29-.07.65-.21.86-.36,1.22-.51.36.15.36.15a1.8,1.8,0,0,1-.43,1.29,2.7,2.7,0,0,1-1.58.79c-.58.15-.65.15-.65.22s.07.14.22.14h1.08c.43,0,.64.15.64.36s.08.44-.64.87a4.16,4.16,0,0,1-1.73.65c-.36,0-.36.07-.29.14s.22.07.72.14a1.69,1.69,0,0,1,.86.36.82.82,0,0,1-.43.87,2.63,2.63,0,0,1-1.8.29c-.79,0-.93-.08-1,.07s.22.21.65.29.72,0,.94.21.07.58-.36.87a3.61,3.61,0,0,1-1.73.28c-.43-.07-1-.21-1.08-.07s.29.22.72.36.58.29.65.43,0,.36-.51.51a2.48,2.48,0,0,1-1.58.07c-.36-.22-.58-.29-.65-.22s0,.15.07.22a1.86,1.86,0,0,0,.87.5c.36.08.43.08.57.44s-.21.57-1,.57a5.26,5.26,0,0,1-2.09-.43c-.29-.14-.43-.22-.43-.14s-.08.07.07.21a6.12,6.12,0,0,0,.93.51c.29.07.29.21.29.43s.07.5-.57.65a2.84,2.84,0,0,1-2.24-.44c-.21-.21-.36-.28-.43-.43a3.47,3.47,0,0,0-.07-1.51,4.36,4.36,0,0,0,.72-.14,1.29,1.29,0,0,0,.65-.8c.07-.14.21-.14.36-.14a1.7,1.7,0,0,0,.57.14,1.58,1.58,0,0,0,1.08-.57,1.28,1.28,0,0,0,.29-1c0-.22.29-.07.51-.07a2,2,0,0,0,1-.36,1.21,1.21,0,0,0,.51-.87c0-.14.21-.21.36-.28a4.32,4.32,0,0,0,.65-.36,1.3,1.3,0,0,0,.36-.87c.07-.14.21-.21.79-.5a1.13,1.13,0,0,0,.57-1.23c-.07-.21-.36-.43-.36-.5s.22-.14.44-.29a1,1,0,0,0,.72-1.08c0-.72-.51-.79-.51-.79l.29-.14c.22-.15.79-.51.79-.94a.89.89,0,0,0-.36-.79c-.14-.07-.57-.22-.57-.22a.76.76,0,0,0,.36-.5,1.14,1.14,0,0,0-.08-1.08,1.27,1.27,0,0,0-.93-.29c-.22,0-.43.07-.51,0s-.07-.07,0-.29a1.11,1.11,0,0,0,0-.72.89.89,0,0,0-.64-.65,2.31,2.31,0,0,0-1.37.29c-.15.15-.07-.14-.07-.29a6.46,6.46,0,0,1,.79-1.36,15.19,15.19,0,0,0,1.15-2,12,12,0,0,0,.86-2.66c.08-.36.22-.15.22-.15s.14,0,.43.79a4.76,4.76,0,0,1,.36,2.09,7.3,7.3,0,0,1-1.08,2.45c-.43.65-.5.86-.43.94s.22-.29.43-.58.65-.94.94-1.44a14.41,14.41,0,0,0,.93-1.8c.08-.07.15-.14.29,0a2.86,2.86,0,0,1,.07,2.3,7.51,7.51,0,0,1-1.22,1.88c-.29.28-.58.79-.5.79s.14-.07.43-.36.79-.94,1.15-1.3.65-1,.79-1.22Zm-6.69,27.65s-.72-.44-.8-.51-.21-.14-.36-.07a1.05,1.05,0,0,1-.5.14.5.5,0,0,1-.22.08.81.81,0,0,0,.65.36ZM77,111.46a5.47,5.47,0,0,1-.94.93,1.64,1.64,0,0,0,.15.51,1.9,1.9,0,0,0,.43.64,6.94,6.94,0,0,1-.65-.36c-.14-.14-.22-.43-.29-.5-.5.29-.93.58-1.37.79,0,.07.08.15.15.22a2,2,0,0,1,.65.79c.21.43.07.36-.22,0a2.67,2.67,0,0,0-.86-.79c-.08,0-.08,0-.08-.07s-.14.07-.21.14c-.29.14-.58.22-.87.36a4.28,4.28,0,0,1,.8.79c.14.29.5.51.64.65a2.74,2.74,0,0,0,.44.58c.14.21,1.08,1.29,1.36,1.72s.08-.07,0-.36-.14-.72-.21-1.08.07-.14.14,0,.07.22.15.58.28.86.36,1.22.14.15.21,0a5.68,5.68,0,0,0,.29-.64,4.7,4.7,0,0,0,.07-1.23,1.87,1.87,0,0,0-.29-.93c0-.08.15-.15.36-.08s.36.08.65.08.43-.08.79-.08.51-.14,1.08-.43,0-.21-.36-.14a7.37,7.37,0,0,1-1.72-.29c-.44-.14-.15-.14,0-.14a9.19,9.19,0,0,0,.93.21,3.24,3.24,0,0,0,1.59-.14c.43-.15-.08-.22-.08-.22a5.31,5.31,0,0,1-2.3-1.22,3.3,3.3,0,0,1-.79-1.51ZM77.9,116a5.9,5.9,0,0,0,.65-.07,2.53,2.53,0,0,0,1.08-.43,6.94,6.94,0,0,1,.65-.36,10,10,0,0,0,1.22.43c.29.14.51.14.15.29s-.58.21-.72.29a1.86,1.86,0,0,1-.94.28c-.29,0-.79,0-.57.22a3.32,3.32,0,0,1,.64,1.15,4.07,4.07,0,0,1,.22,1.37,2.84,2.84,0,0,1-.07.58,5.41,5.41,0,0,0-1.3-1,11.09,11.09,0,0,0-1.51-.87c-.14-.14-.22-.14-.22-.36a4.57,4.57,0,0,0,.15-.86v-.14l.14-.36a1.33,1.33,0,0,1,.36.36,4.37,4.37,0,0,1,.65.72c.22.21.5.5.22.07a4.76,4.76,0,0,0-.51-.87c-.21-.28-.36-.43-.29-.43Zm11.31-4.32a3.2,3.2,0,0,0,.14-.57c.07-.08.07-.15.22,0s.29.28.43.21.22-.07.22-.21v-.51c0-.07.07-.07.14-.07s.43.14.58.14.14.08,0,.22a2.34,2.34,0,0,1-.22.43s-.14.22.07.22h.51c.07,0,.21-.07.14.14s-.07.36-.14.43-.08.15-.22.08-.29-.15-.29-.22-.21-.07-.29.07v.79c-.07.08,0,.29-.21.22a2.43,2.43,0,0,1-.51-.14c-.07,0-.21-.08-.07-.29s.22-.43.22-.51.21-.43-.15-.36h-.43c-.07.08-.14.08-.14-.07Zm-3.82,4.54a1.52,1.52,0,0,0-.29-.07c-.07-.08-.14-.08-.07-.36a.75.75,0,0,1,.29-.36c.07-.08.07-.15.14-.15s0,.15,0,.36a2.42,2.42,0,0,0-.07.58Zm7.13.86c-.07.22-.14.36-.07.43s.14.15.21.15.15.07.15-.07.07-.29-.07-.44-.15-.28-.22-.07Zm-12.46,0a3.7,3.7,0,0,0,1.8.65,3.08,3.08,0,0,1,.51.36c.36.29,1.65,1.15,2,1.51a1.07,1.07,0,0,0,.94.29c.43,0,.14-.58,0-.94a3.35,3.35,0,0,0-.65-1,1,1,0,0,1-.29-.8c.08-.21.08-.5.36-.72a.44.44,0,0,1,.58,0c.07.15.36,1.16.65,1.8a1.21,1.21,0,0,0,1.08,1,2.39,2.39,0,0,0,1.8-.43,2,2,0,0,0,.57-1,2.41,2.41,0,0,1,.51-.72.77.77,0,0,1,.72.22.59.59,0,0,1,.14.86c-.14.22-.86.43-1,1s.15.65.65.65a1.64,1.64,0,0,0,1.3-.65c.36-.29.36-.79.5-1.08s.29-.29.58-.14a.74.74,0,0,1,.29.86c-.15.36-.15.36-.8.79a14,14,0,0,1-2.73.94c-.65.21-2.45.72-3.31.93s-1.3-.28-1.8-.57-1.59-.94-2.09-1.23-1.8-.86-1.8-.86a2.29,2.29,0,0,0-.07-.5,11.85,11.85,0,0,0-.44-1.23Zm10.3-.93s-.07.36-.07.43-.15.29,0,.36.29.14.36.07.07-.14,0-.29a.5.5,0,0,0-.22-.43l-.07-.14Zm-.5-2.52c.14,0,.28.07.28.21s-.14.22-.28.22a.22.22,0,1,1,0-.43Zm0-.22a.5.5,0,0,0-.51.5.51.51,0,0,0,1,0,.5.5,0,0,0-.5-.5Zm-.29,1.37a.19.19,0,0,1,.21.21c0,.15-.07.22-.21.22s-.29-.07-.29-.22.14-.21.29-.21Zm-.07-.22a.49.49,0,0,0-.44.51.47.47,0,0,0,.44.43.49.49,0,0,0,.5-.43.5.5,0,0,0-.5-.51Zm-.29,1.37a.19.19,0,0,0-.22.22c0,.14.07.21.22.21a.19.19,0,0,0,.21-.21c0-.15-.07-.22-.21-.22Zm0-.22a.49.49,0,0,0-.51.44.5.5,0,0,0,.51.5.49.49,0,0,0,.43-.5.47.47,0,0,0-.43-.44Zm2.52.65c-.15,0-.22.15-.22.29a.2.2,0,0,0,.22.22.19.19,0,0,0,.21-.22c0-.14-.07-.29-.21-.29Zm-.07-.14a.46.46,0,0,0-.44.43.48.48,0,0,0,.44.5.49.49,0,0,0,.5-.5.48.48,0,0,0-.5-.43Zm-3.75-.65a.23.23,0,0,1,.22.22c0,.14-.07.28-.22.28a.31.31,0,0,1-.29-.28c0-.08.15-.22.29-.22Zm-.07-.14a.45.45,0,0,0-.43.43.47.47,0,0,0,.43.5.48.48,0,0,0,.5-.5.47.47,0,0,0-.5-.43Zm-1.3-.15c.15,0,.29.07.29.22s-.14.21-.29.21a.22.22,0,0,1,0-.43Zm0-.21a.49.49,0,0,0-.5.5.48.48,0,0,0,.5.43.42.42,0,0,0,.44-.43c0-.29-.15-.5-.44-.5Zm-.5-.36-.22.36a3.62,3.62,0,0,0-.21,1.08c0,.21.07.21.43.28s2.88.51,3.1.58a1.28,1.28,0,0,0,.43.07.47.47,0,0,1,.29-.21c.28-.08.21-.29.21-.29l.15-.43c0-.22.14-.29.36-.08a1.89,1.89,0,0,1,.36,1.08c.07.36.64.44.86.51a.39.39,0,0,0,.43-.29,3.34,3.34,0,0,0,.29-.94c0-.28,0-.21-.29-.28s-1.65-.36-1.87-.44-.22-.21-.14-.36.57-1.87.57-1.87a4.22,4.22,0,0,0-1.58-.43s-.36,1.73-.43,1.94-.22.29-.51.22-2.23-.5-2.23-.5Zm-26.5-5.4A11.25,11.25,0,0,1,58.9,111c-.44.65-.8.87-.58,1a1.19,1.19,0,0,0,1.22,0,1.34,1.34,0,0,0,.72-1c-.07-.14-.21-.29-.28-.43,0,.07-.15.14-.22.22l-.29.36s.15-.36.22-.58c.07-.07.14-.22.21-.29a4.09,4.09,0,0,1-.36-.93Zm-3.6.86a6.3,6.3,0,0,0,.44-.58c.14-.14.07-.21.36-.14h.72s.28,0,.07.22a2.47,2.47,0,0,1-.72.72c-.29.21-.65.28-.58.36s.51-.08.79-.29a6.61,6.61,0,0,0,.72-.79,2.3,2.3,0,0,1,.22-.29,2.44,2.44,0,0,0,.94-.29,2.27,2.27,0,0,0,.43-.43,2.69,2.69,0,0,1-.87,1.87,3.7,3.7,0,0,1-1.08.86,2,2,0,0,1-1.51.36c-.79-.07-.86-.21-.86-.21s-.15-.07,0-.29a12.77,12.77,0,0,1,.93-1.08ZM51.12,110a3,3,0,0,0,2.45.72c1.73-.08,2.37-.94,2.45-1.44a1,1,0,0,0-.22-.94l-.22.22a8.42,8.42,0,0,1-1,.79c-.58.21-.72.21-.22-.07a10.84,10.84,0,0,0,1.3-1l-.22-.15c-.22-.07-.58.08-2,.94a6.22,6.22,0,0,1-2.3.94Zm-2.45-2a11.2,11.2,0,0,0,2.38-.65,6.15,6.15,0,0,0,1.58-.86,2.15,2.15,0,0,0,.72.21h.51a4.64,4.64,0,0,1-1.16.87c-.36.14-.43.14-.57.21s-.22.15,0,.08a1,1,0,0,1,.57-.15,8.28,8.28,0,0,0,.8-.43,1.55,1.55,0,0,0,.28-.22s-.14.58.15.65a3.21,3.21,0,0,0,.43.29,7.8,7.8,0,0,1-2.3.86,3.77,3.77,0,0,1-2.6,0,1.27,1.27,0,0,1-.79-.86ZM47,80.28s-.58.43-.8,2.74a14,14,0,0,0,.72,5.4c.29.86.72,1.94.72,1.94.08-.5.15-.86.51-1a6.77,6.77,0,0,1-.58-1.15,11.81,11.81,0,0,1-.36-1.51c-.14-1.15-.29-2.31.07-.43A11.39,11.39,0,0,0,48,88.92l.51.79a4.91,4.91,0,0,1-.07-1,4.5,4.5,0,0,1,.21-1.29,14,14,0,0,1-1-2.59,16.61,16.61,0,0,1-.57-3.53,4.94,4.94,0,0,0-.07-1Zm2.8,7.92a1.89,1.89,0,0,0-.28-.5A8.3,8.3,0,0,0,49.1,87a10.19,10.19,0,0,1-.5-2.09,22.11,22.11,0,0,1-.14-2.81,7,7,0,0,1,1.22-4s.14,2.66.29,3.67a27.46,27.46,0,0,0,.57,3.1,1.21,1.21,0,0,1-.14.36A4.78,4.78,0,0,1,50,86a1.59,1.59,0,0,0-.07.43,12.16,12.16,0,0,1-.43-1.87c-.08-.79-.15-1.3-.15-1.58s-.07-.65-.07,0A17,17,0,0,0,49.46,85c.08.5.29,1.22.29,1.37s.07.29.15.43-.08.29-.08.43a2.46,2.46,0,0,0,0,.72v.29Zm-2.52,9v.5c.08.08.08.22-.07.15a11.65,11.65,0,0,1-2.59-1.44A5.89,5.89,0,0,1,42.7,93.6a2,2,0,0,1-.08-.86c0-.15.08-.15.15,0s1.29,1.36,1.94,1.87A9.18,9.18,0,0,0,46.58,96a3,3,0,0,1,1,.5,1.38,1.38,0,0,0,.22.29s-.29-.07-.43.07a.34.34,0,0,0-.08.22L46,96.34a11.59,11.59,0,0,0-1.15-.72c-.15-.15-.36-.15,0,.14s.93.65,1.44.94,1,.5,1,.5Zm.65,3c.07-.07-.07-.36,0-.57s.22-.22.58-.22.07-.07,0-.07a2.41,2.41,0,0,1-.58-.14,11.75,11.75,0,0,1-1.73-.51c-.72-.21-.93-.43-.93-.5s.36.14,1,.43a11.4,11.4,0,0,0,1.8.43c.43.07.07-.07-.15-.21a2.15,2.15,0,0,1-.43-.51L46.3,98a8.1,8.1,0,0,1-2-.79l-.65-.43c-.43-.36-.86-.65-1-.79s-.21,0-.14.07a2.61,2.61,0,0,0,.58,1.22,5.79,5.79,0,0,0,1.8,1.66A7.36,7.36,0,0,0,48,100.22Zm1.23,2.24a9.48,9.48,0,0,1-3.1-.44,3.84,3.84,0,0,1-2.3-1.51,2.12,2.12,0,0,1-.65-1.22c0-.22-.07-.36.21-.15a13.4,13.4,0,0,0,2.16,1.08,9.39,9.39,0,0,0,2.31.72,2.67,2.67,0,0,1,.86.15c.07.14.36.21.65.29a1.59,1.59,0,0,0,.43.07,1.22,1.22,0,0,0-.36.14,2.37,2.37,0,0,1-.93-.07,11.57,11.57,0,0,1-2-.29,2.23,2.23,0,0,1-.43-.14c0,.07.29.21.79.29a4,4,0,0,0,1.3.28,6.23,6.23,0,0,1,1,.15.48.48,0,0,0-.15.43c.07.22.15.22.15.22Zm1.65,2.16a.67.67,0,0,0-.14-.29.87.87,0,0,1-.07-.58l-.72.15a3.33,3.33,0,0,1-1.44,0c-.58-.08-.36-.15.07-.08a5.08,5.08,0,0,0,1.58-.21c.29-.07.15-.22,0-.22a4.75,4.75,0,0,1-.72-.43,16.39,16.39,0,0,1-2.45.07,12,12,0,0,1-2.16-.5c-.21,0-.21.07-.21.07s-.07.07.36.72a3.7,3.7,0,0,0,1.87,1.3,12.63,12.63,0,0,0,2.59.28,2.53,2.53,0,0,0,1.44-.28Zm1.73.93c0-.07-.36.07-.72.22a5.92,5.92,0,0,1-1.51.36c-.29,0-.29,0-.29-.07s.22,0,.72-.08a4.53,4.53,0,0,0,1.44-.64c.14-.08.07-.08-.14-.15a.82.82,0,0,1-.44-.14c-.07-.07-.28,0-.86.14a11.2,11.2,0,0,1-2.52.29c-.79,0-1.58-.14-1.73-.14s-.29.07.15.72,1.8,1.08,2.8,1.08a8.26,8.26,0,0,0,2.67-.8.67.67,0,0,0,.43-.79Zm-5.47-9.93s-.43-.29-.72-.51A7.58,7.58,0,0,1,44,92.3a6.13,6.13,0,0,1-.86-3.74s.65,1.15,1.15,2.09a15.78,15.78,0,0,0,2.38,2.73c.5.44.57.44.5.58a.56.56,0,0,0-.14.36v.14a11.93,11.93,0,0,1-1.37-1.22c-.51-.58-1-1-.36-.29a12.33,12.33,0,0,0,1.08,1.23c.21.21.57.5.57.5a2.13,2.13,0,0,0,.08.58.93.93,0,0,0,.07.36Zm.14-2.31a7.11,7.11,0,0,1-1.8-2.45,10.67,10.67,0,0,1-1.15-3.74A5.7,5.7,0,0,1,44.5,85c.07-.43.21-.79.36-.14a33.31,33.31,0,0,0,1.08,3.67,18.28,18.28,0,0,0,1.22,2.16c.14.14.22.29.36.43l.29.58s-.07,0-.15-.15-.21-.21-.28-.14-.29.57-.29.57-.36-.5-.79-1.15a12.9,12.9,0,0,1-.8-1.73,7.72,7.72,0,0,0,.8,2c.5.72.72,1.08.72,1.08a2.68,2.68,0,0,0,.07.57,2.18,2.18,0,0,0,.14.65Zm10.37,10.3a2.42,2.42,0,0,1,.43-.43c.07-.15.15-.22.22-.15s0,.22-.15.29-.28.29-.43.29-.14.14-.21.14-.22.15-.08,0,.22-.14.22-.14Zm-2.16-1.23s.58-.36.72-.43.22-.21.29-.21,0,.21-.07.28-.29.15-.36.22-.15.07-.29.14a.4.4,0,0,1-.36.15c-.15.07-.22,0-.07-.07s.14-.08.14-.08Zm-1.08-1.51s.29-.21.43-.29.15-.14.22-.07,0,.07-.15.22l-.57.29c-.07.14-.29.14-.29.14s.07-.14.14-.22a.61.61,0,0,1,.22-.07ZM52.63,99.5a1.43,1.43,0,0,1,.43-.28c.15-.08.36-.08.36,0s0,.07-.14.14a1,1,0,0,0-.5.22c-.15,0-.29.07-.29,0l.14-.08Zm-.5-1.8a1.13,1.13,0,0,0-.29.15c-.14,0-.14.07.07.07a1.39,1.39,0,0,0,.51-.14c.28,0,.36-.08.28-.15s-.14,0-.21,0a3.29,3.29,0,0,0-.36.07Zm1-5.32s-.15-.15-.22-.08.22.22.36.29.29.43.36.36-.07-.21-.22-.36a1.21,1.21,0,0,0-.28-.21ZM51.7,94a1,1,0,0,1-.22-.14c-.07,0-.29-.08-.07.07s.43.29.5.36.29.14.29.07,0-.14-.22-.22A.77.77,0,0,1,51.7,94Zm-.36,1.73s-.29-.07-.29,0,0,.07.21.07a1.83,1.83,0,0,0,.65.14c.22.08.36.08.36,0s-.36-.07-.5-.14a2.46,2.46,0,0,1-.43-.07Zm3.16-5.33a1.39,1.39,0,0,0-.28.72c0,.36.14.72,0,.86s-.22-.21-.8-.43-1-.29-1.29.15,0,1.08.29,1.36.57.58.5.72-.58-.21-.72-.28A1.25,1.25,0,0,0,51.12,93c-.5,0-.72.22-.72.65s.43.87.79,1,.51.29.36.36-.14,0-.29,0a1.19,1.19,0,0,0-.86,0,.54.54,0,0,0-.29.94,2.5,2.5,0,0,0,1.44.64c.15.08.22,0,.29.15s-.36.14-.86.14-.58.51-.51.79.79.72,1.23.8.64,0,.64.14-.07.14-.28.22-.72.14-.8.5a.83.83,0,0,0,.29.94,1.72,1.72,0,0,0,1.08.21c.15-.07.36-.21.58-.07s-.15.36-.43.5-.29.65.21.94a1.61,1.61,0,0,0,1.15.07c.22-.07.51-.36.65-.21s-.43.28-.65.57-.14.79.29,1.08a1.92,1.92,0,0,0,1.44,0c.15-.14.29-.21.43-.07s-.07.36-.21.58-.29,1,.43,1.22a1.38,1.38,0,0,0,1.51-.43c.15-.15.29-.15.36-.07s.07.14,0,.28-.29.58.22,1a1.15,1.15,0,0,0,.93.15,9.09,9.09,0,0,0,.44-1.44h-.15c-.07,0-.07.14-.07.14s0,.07-.07.07-.07.07-.15.15-.14.14-.21.07.21-.15.21-.22.22-.21.22-.29.07-.14.22-.21.07-.07.07-.15c.07-.36.14-.86.21-1.44a4.91,4.91,0,0,0,.08-1.08h-.22a1.47,1.47,0,0,1-1.15-.72c-.29-.5-.87-.64-1.73-.57a1.43,1.43,0,0,1-1.51-1.08c-.22-.58,0-1.3.93-1.8A2,2,0,0,0,58,95.83C58,95,57.1,94,56.16,93a13.37,13.37,0,0,1-1.66-2.59Zm-3.81.86s.36.44.5.65.29.29.22.36l-.15-.14c-.14-.15-.28-.43-.43-.58a2.19,2.19,0,0,1-.29-.43c.08-.07.15.14.15.14Zm1.37-1a4.27,4.27,0,0,1-.36-.51c-.08-.07,0-.14.14,0a7.57,7.57,0,0,1,.65.94c.07.07.21.43-.07.07a4.79,4.79,0,0,0-.36-.5Zm2.52,15.33s.36-.29.43-.36.14-.14.21-.07-.14.14-.28.29-.44.29-.51.36a.71.71,0,0,0-.21.07c0-.07,0-.07.14-.14a1.48,1.48,0,0,0,.22-.15Zm-2.16-1.37a2.46,2.46,0,0,1,.43-.07,1.11,1.11,0,0,0,.43-.07c.14-.07.29-.22.36-.07s-.07.14-.22.14-.28.07-.5.15-.29-.08-.43,0-.22.07-.22,0,.15-.08.15-.08Zm-1.37-1.58h.43a1.68,1.68,0,0,0,.58-.07c.14,0,.28-.07.28,0s0,.07-.14.14a2.93,2.93,0,0,1-.79,0c-.36,0-.58,0-.58-.07Zm-1.44-2.23.29.14c.14,0,.36.07.57.07s.22-.07.22-.14-.29-.07-.51-.07-.57-.07-.57,0Zm-.07-2.09h.28c.15,0,.15.07.15.14s-.07.08-.15,0a.53.53,0,0,1-.28-.07c-.08,0-.29-.07-.29-.14s.29.07.29.07Zm-.72-2.38c.07,0,.14.08.21.15a1,1,0,0,0,.29.21,1.89,1.89,0,0,0,.43.29c.15.07.22.15.15.22s-.22,0-.44-.15a1.69,1.69,0,0,0-.36-.36c-.07-.07-.28-.28-.28-.36ZM49,94l.29.15a1,1,0,0,0,.29.28c.07.15.28.29.21.29s-.14,0-.21-.14a1,1,0,0,1-.29-.29L49,94Zm.86-1.29A.73.73,0,0,1,50,93c.14.07.14.15.14.15S50,93,49.9,93s-.15-.21-.36-.43,0-.14.07-.07a2.62,2.62,0,0,1,.21.29Zm8,15.4s.43-.28.43-.36.07-.07.14-.07,0,.07-.14.22a2.75,2.75,0,0,1-.65.43.2.2,0,0,1-.22,0,.35.35,0,0,1,.22-.07,1.19,1.19,0,0,1,.22-.15ZM55.66,107a1.76,1.76,0,0,0,.57-.29c.22-.14.29-.36.36-.21s-.14.14-.21.21a1.12,1.12,0,0,1-.51.29c-.21.07-.36.15-.36.07s.15-.07.15-.07ZM48.24,89.57c0-.07-.07-.07-.14,0a1.19,1.19,0,0,0-.22,1A3.81,3.81,0,0,0,49,92.66c.43.51.94.87.86.94s-.57-.29-.86-.65l-1.3-1.29c-.14-.22-.43-.08-.43.79s1,1.65,1.37,2.16.86.72.79.79-.36-.14-.65-.29a11.43,11.43,0,0,1-1.36-.93c-.22-.15-.29.14-.08.93a3.48,3.48,0,0,0,1.37,1.73c.43.29,1.08.65,1,.79s-.29-.07-.65-.21-.86-.36-1.22-.51-.36.15-.36.15a1.86,1.86,0,0,0,.43,1.29,2.7,2.7,0,0,0,1.58.79c.58.15.65.15.65.22s-.07.07-.21.07-.58.07-1.08.07-.65.15-.65.36-.07.44.65.87a4.13,4.13,0,0,0,1.72.65c.36,0,.36.07.29.14s-.21.07-.72.14a1.69,1.69,0,0,0-.86.36.84.84,0,0,0,.43.87,2.64,2.64,0,0,0,1.8.29c.79,0,.94-.08,1,.07s-.22.21-.65.29-.72,0-.94.21-.07.58.36.87a3.61,3.61,0,0,0,1.73.28c.36-.07,1-.21,1.08-.07s-.29.22-.72.36-.57.29-.65.43,0,.36.51.51a2.48,2.48,0,0,0,1.58.07c.36-.22.58-.29.65-.22s0,.15-.07.22a1.75,1.75,0,0,1-.87.5c-.36.08-.43.08-.57.44s.21.57,1,.57a5.21,5.21,0,0,0,2.08-.43c.29-.14.44-.22.44-.14s.07.07-.08.21a6.12,6.12,0,0,1-.93.51c-.29.07-.29.21-.29.43s-.07.5.58.65A2.82,2.82,0,0,0,59,108.5c.21-.21.36-.28.43-.43a3.47,3.47,0,0,1,.07-1.51,4.36,4.36,0,0,1-.72-.14,1.32,1.32,0,0,1-.65-.8c-.07-.14-.21-.14-.36-.14a1.7,1.7,0,0,1-.57.14,1.58,1.58,0,0,1-1.08-.57,1.28,1.28,0,0,1-.29-1c0-.22-.29-.07-.5-.07a2,2,0,0,1-1-.36,1.29,1.29,0,0,1-.51-.87c0-.14-.21-.21-.36-.28a3.89,3.89,0,0,1-.64-.36,1.25,1.25,0,0,1-.36-.87c-.08-.14-.22-.21-.8-.5a1.14,1.14,0,0,1-.57-1.23c.07-.21.36-.43.36-.5s-.22-.14-.43-.29a1,1,0,0,1-.72-1.08c0-.72.5-.79.5-.79l-.29-.14c-.21-.15-.79-.51-.79-.94A.92.92,0,0,1,50,95c.14-.07.58-.22.58-.22a.73.73,0,0,1-.36-.5,1.11,1.11,0,0,1,.07-1.08,1.28,1.28,0,0,1,.93-.29c.22,0,.44.07.51,0s.07-.07,0-.29a1.26,1.26,0,0,1,0-.72.89.89,0,0,1,.65-.65,2.29,2.29,0,0,1,1.36.29c.15.15.08-.14.08-.29a6.22,6.22,0,0,0-.8-1.36,16.39,16.39,0,0,1-1.15-2,12,12,0,0,1-.86-2.66c-.07-.36-.22-.15-.22-.15s-.14,0-.43.79A4.76,4.76,0,0,0,50,87.91a7.3,7.3,0,0,0,1.08,2.45c.43.65.5.86.43.94s-.21-.29-.43-.58-.65-.94-.94-1.44a14.41,14.41,0,0,1-.93-1.8c-.07-.07-.15-.14-.29,0a3.21,3.21,0,0,0-.14,2.3,9.77,9.77,0,0,0,1.29,1.88c.29.28.58.79.51.79s-.15-.07-.44-.36A16.76,16.76,0,0,0,49,90.79c-.29-.36-.65-1-.79-1.22Zm4.32,36.72a.24.24,0,0,0-.14-.07.26.26,0,0,1-.08-.22c.08-.07.08-.22.15-.29s.07,0,.21,0a.15.15,0,0,1,.15.15v.43c0,.07-.07.21-.15.14s-.14-.14-.14-.14Zm-.72-.51a.23.23,0,0,1-.07.15c0,.14,0,.21.07.21s.07,0,.22-.21a2.85,2.85,0,0,0,.5-.65l.22.07a1.78,1.78,0,0,0,.86,0c.22-.07.07-.21-.07-.29s-.22-.07-.43-.21-.58-.43-.58-.58-.07-.14-.29-.07a2.48,2.48,0,0,1-.72.07c-.21,0,0,.22.15.51a3,3,0,0,1,.14,1ZM47.59,113.9a.71.71,0,0,1,.72.65,1.39,1.39,0,0,1-.14.51.81.81,0,0,1-.58.14.69.69,0,0,1-.43-1.15,1.06,1.06,0,0,1,.43-.15Zm1.59,5H49c-.14.08-.14.08-.29-.14a2.69,2.69,0,0,1-.86-1.51c-.14-.58-.14-1.66.07-1.8s.51,0,1,.72a6.68,6.68,0,0,1,.72,1.65c0,.29.07.65-.07.8l-.43.28Zm-2-5.54c-.65.29-1.37-1.15-1.51-1.44a9.16,9.16,0,0,1-.79-2.88,22.1,22.1,0,0,0-.51-2.38,4.73,4.73,0,0,0-.57-1.44c-.15-.21-.36-.21-.65-.36s-.36-.21-.36-.28.22-.15.65-.15h.65v-.21a2,2,0,0,1,.36-.51c.14-.14.21-.21.28-.14s0,.21,0,.21a1.8,1.8,0,0,0-.14.72,7.78,7.78,0,0,0,.36,2,11.81,11.81,0,0,0,1.22,2.52,9.18,9.18,0,0,1,1.23,3.1c.14,1.22-.22,1.22-.22,1.22Zm-4.89-10.73c-.22.07-.22.15-.15.22a2.51,2.51,0,0,0,.22.43c.07.14.14.07.14.07a2.61,2.61,0,0,1,.36-.29c.22-.07.22-.07.29.08a3.62,3.62,0,0,0,.29.93c0,.15.07.15.21.15s.22-.08.29-.15.15-.21.15-.21-.36-.72-.51-.94,0-.22.07-.22.36-.07.51-.07.14-.14.14-.21-.14-.36-.14-.44-.15-.07-.15-.07l-.43.22c-.21.07-.29,0-.29-.15s-.07-.43-.07-.64-.07-.15-.14-.15a1.61,1.61,0,0,0-.51.22c-.21.07-.14.14-.07.21a5.68,5.68,0,0,0,.36.65c.07.15,0,.22-.14.22s-.22.07-.43.14ZM50.47,120a.81.81,0,0,0-.07.29v.15a.24.24,0,0,0,.14.07c.08.07.15.14.15,0a.32.32,0,0,0-.07-.36c-.15-.07-.15-.15-.15-.15Zm-.14.72a1,1,0,0,1-.22.36c-.14.15-.21.22-.21.36s0,.36.28.36a1.53,1.53,0,0,0,.51-.28.5.5,0,0,0,.14-.51.66.66,0,0,0-.36-.29Zm1.15-.07a1.54,1.54,0,0,1,.14.58c0,.21-.07.21-.14.21h-.43a2.74,2.74,0,0,0,.29-.36l.14-.43Zm1.15,1.15s-.14.44-.21.58-.08.14.07.22.14.21.21.07a.6.6,0,0,0,.15-.58,1.38,1.38,0,0,0-.22-.29Zm-3,2a.84.84,0,0,0,.43,0,1.6,1.6,0,0,1,.51-.43,3.71,3.71,0,0,1,.64-.29,1.1,1.1,0,0,0,.44-.22c.07-.07.14-.07.28-.07s.51,0,.51.15.21.43,0,.57a1.6,1.6,0,0,1-.79.22c-.15,0-.58,0-.72.14a1.66,1.66,0,0,0-.36.36c-.15.07-.15.07-.44,0s-.5-.07-.57-.14-.22-.29-.15-.29.22,0,.22,0Zm-1.22-1.51h.72c.14,0,.21.07.36.07a.48.48,0,0,0,.43.07c.07-.07,0-.14.14-.21s.15-.08.36-.15a.7.7,0,0,0,.36-.29c.07-.14.22-.14.43-.07s.44.15.51.43a.64.64,0,0,1-.51.65,3.37,3.37,0,0,0-.79.15c-.21.14-.36.14-.43.28s-.14.22-.36.22a2.92,2.92,0,0,1-.65-.22c-.21-.07-.65-.14-.72-.28a.62.62,0,0,1-.14-.58c.07-.07.07-.14.14-.14s.15.07.15.07Zm.93-.87s.22,0,.22.15a.46.46,0,0,0,.07.29.26.26,0,0,1,.07.21c0,.07.15.29-.07.15a.94.94,0,0,1-.36-.36c-.14-.22-.14-.29-.07-.36s.14-.08.14-.08ZM48,120.17a.83.83,0,0,0-.36.65,1,1,0,0,0,.65,1c.58.15.58,0,.51-.14s0-.36-.15-.5-.29-.36-.29-.58,0-.29,0-.43-.21-.15-.36,0Zm12.68-8.71a5.46,5.46,0,0,0,.93.93,1.49,1.49,0,0,1-.14.43,5.31,5.31,0,0,1-.51.72,2.77,2.77,0,0,0,.65-.43,2,2,0,0,0,.36-.5,10.66,10.66,0,0,0,1.44.86c-.07,0-.14.07-.21.15s-.36.43-.65.86,0,.36.21,0a4.38,4.38,0,0,1,.94-.86h.07c.07,0,.07.07.15.07a8.25,8.25,0,0,0,.93.36,8.82,8.82,0,0,0-.79.86,5.69,5.69,0,0,0-.65.65c-.14.14-.29.36-.43.5s-1.15,1.37-1.44,1.8-.14-.14-.07-.43.21-.72.29-1-.08-.21-.15,0-.07.15-.14.51-.29.86-.36,1.22-.15.22-.22,0l-.29-.57a9.81,9.81,0,0,1-.14-1.23,1.55,1.55,0,0,1,.29-.93.26.26,0,0,0-.36-.15,1.47,1.47,0,0,1-.58.07c-.36,0-.5-.07-.79-.07a2.61,2.61,0,0,1-1.08-.36c-.5-.29,0-.21.36-.21a5.11,5.11,0,0,0,1.73-.22c.43-.22.14-.22,0-.14a6.05,6.05,0,0,0-1,.14,2,2,0,0,1-1.51-.14c-.43-.08.07-.15.07-.15a5.31,5.31,0,0,0,2.23-1.29,3.78,3.78,0,0,0,.87-1.44ZM59.76,116a2.77,2.77,0,0,0-.72-.14,2.36,2.36,0,0,1-1-.36,5.83,5.83,0,0,0-.65-.36,10,10,0,0,1-1.22.43c-.29.07-.5.14-.22.29l.8.29a2.41,2.41,0,0,0,.86.28c.29,0,.79,0,.65.15a4.21,4.21,0,0,0-.87,2.59v.5a8.84,8.84,0,0,1,1.37-1c.94-.58,1.3-.8,1.44-.87s.29-.07.22-.29-.07-.79-.07-.93v-.07l-.22-.36a1.71,1.71,0,0,0-.36.28c-.22.29-.5.58-.58.72-.21.29-.5.51-.28.15a6.24,6.24,0,0,1,.57-.87,2.21,2.21,0,0,1,.29-.43ZM55,117.22a4.45,4.45,0,0,0,.79-.58.23.23,0,0,1,.29,0c.14,0,.43.14.57.14h.22a1,1,0,0,1-.72.44Zm-1.3,1.65a23.92,23.92,0,0,1-3.17,0,2.18,2.18,0,0,0-1.65.58,1,1,0,0,0,0,1.37.66.66,0,0,0,1.08-.08c.21-.21.07-.57,0-.72s.14-.21.36-.21a4.12,4.12,0,0,1,.93.07,5.14,5.14,0,0,1,1.23.36c.29.14.14.22-.07.14a2.35,2.35,0,0,1-.72-.21,3.9,3.9,0,0,0-.8-.22c-.14,0-.07.15-.07.22s.15.21.22.29-.07.43-.07.43l.07.14a.49.49,0,0,0,.14-.29c.07-.07,0-.28.07-.36s.22-.07.36.08a1.06,1.06,0,0,1,.29.72,1.62,1.62,0,0,1,0,.64.29.29,0,0,1,.15.22c.07.07,0,.43,0,.43s.07.07.21-.14a4.3,4.3,0,0,0,.22-.72c.07-.15.14-.36.29-.15a.94.94,0,0,1,.28.51.21.21,0,0,1,.08.14,1.65,1.65,0,0,0,.43-.5,3.08,3.08,0,0,1,.72-.79c.36-.29.93-.87,1.22-1.08s1.08-.58,1.3-.72.29-.15.29-.51a2.62,2.62,0,0,1,.36-1,2,2,0,0,0,.07-.43,8.92,8.92,0,0,1-1.08.51l-.29.07a6.69,6.69,0,0,1-1,.72,3.35,3.35,0,0,1-1.44.5Zm19-19.73a2.57,2.57,0,0,1,.94-.07,4.32,4.32,0,0,1,.72.07,1.09,1.09,0,0,1-.65.08,2.42,2.42,0,0,0-.79,0,.64.64,0,0,1-.22-.08Zm.5,3.6a2.72,2.72,0,0,1,.22.29h.43a2.76,2.76,0,0,0,1.23-.43,1,1,0,0,0,.07-1.15,2.43,2.43,0,0,0-1.44-.43,14.46,14.46,0,0,1-1.59-.22c-.64-.07-.93-.36-.93-.72s.29-.5.57-.58a1.42,1.42,0,0,1,.94-.07,2.83,2.83,0,0,0,1.44.07.92.92,0,0,0,.86-.57S75,99,74.59,99s-.57-.14-1.22-.14-.87.21-1.15.28-1.08.22-1.3.72,0,.72.5,1.08a14.81,14.81,0,0,0,2.81.44.6.6,0,0,1,.43,1c-.21.29-1.22.36-1.44.36Zm-4.39-8.06a7.83,7.83,0,0,1-6.62,0l-2.52,2.95a5.82,5.82,0,0,1,.93,3.31,19.64,19.64,0,0,1-.64,4.54,7.58,7.58,0,0,0,.07,4A5.57,5.57,0,0,0,63.43,113a18.56,18.56,0,0,1,4.25,2.09,6.54,6.54,0,0,1,1.15,1.15A12.54,12.54,0,0,1,70,115.06,18.79,18.79,0,0,1,74.23,113a5.61,5.61,0,0,0,3.31-3.46,7.7,7.7,0,0,0,.08-4,19,19,0,0,1-.65-4.54,5.82,5.82,0,0,1,.93-3.31l-2.52-2.95a7.68,7.68,0,0,1-6.55,0Zm0,20.52s.29-.29.72-.65a11.64,11.64,0,0,1,2.38-1.37,14.36,14.36,0,0,0,3.24-1.72A6.83,6.83,0,0,0,77,108c.14-1.22-.5-4.32-.86-6.26a5.72,5.72,0,0,1,.79-3.6l-2.09-2.6a7.08,7.08,0,0,1-6-.07,7.08,7.08,0,0,1-6,.07l-2.16,2.6a5.77,5.77,0,0,1,.8,3.6c-.36,1.94-1,5-.87,6.26a6.58,6.58,0,0,0,2,3.46,12.29,12.29,0,0,0,3.17,1.72,8.65,8.65,0,0,1,2.37,1.37c.43.36.72.65.72.65Zm-7.77-6.48c0-.14-.08-.29-.08-.43H76.61a.93.93,0,0,1-.07.43Zm12-.65.14-.14c.22-.07.36,0,.36.07v.07Zm-.79,0a.07.07,0,0,1,.07-.07c.14-.07.29-.14.36-.07v.14Zm-2.6-3.6a15.55,15.55,0,0,0-1.51.51c-.29.07-.21-.15-.07-.29s0-.15-.14-.07a6.21,6.21,0,0,1-.29.57c-.07.15-.22,0-.36-.29s-.22-.21-.36-.21-.22.29-.36.57-.29.22-.29.22-.22-.07-.29-.43-.07-.65-.21-.65-.22-.07-.36.07-.44.29-.51.22a.32.32,0,0,1-.14-.43c.07-.22.14-.36.21-.29s.15.14.29.07.36-.36.43-.36.22.14.29.29.29.5.43.5.22-.07.29-.29.15-.36.22-.14.29.36.36.36.14.07.21.14.15,0,.22-.21.22-.29.29-.43.07-.15.14-.08.29.15.43,0a.92.92,0,0,0,.15-.57c0-.07,0-.15.21-.15a1.37,1.37,0,0,0,.58,0c.14-.07.22-.07.07-.21s-.14-.29.15-.29a3.7,3.7,0,0,0,1.22-.07,5.57,5.57,0,0,1,1.44.14c.58.07.86.15,1,.58s.07.86.21,1a1.66,1.66,0,0,0,.8.43c.5,0,.5.21.5.5s-.07.43,0,.43a7.17,7.17,0,0,1,0,1.23,1.05,1.05,0,0,1-.14.5,3.23,3.23,0,0,1-.36.72h-.72c0-.07,0-.21-.15-.21a.33.33,0,0,0-.5.07l-.15.14h-.07v-.14c0-.07-.14-.07-.07-.22s.14-.21.43-.29a3.1,3.1,0,0,1,.51-.07s.28-.36.36-.43a.66.66,0,0,0,.07-.36v-.5c0-.08-.07-.15-.22-.15a5.05,5.05,0,0,1-.57-.21c-.15-.08-.29-.08-.29.07s.07.21-.15.14a4.11,4.11,0,0,1-.93-.5,1,1,0,0,1-.15-.58,1.83,1.83,0,0,1-.07-.65c0-.21.15-.36-.21-.28a6.46,6.46,0,0,0-1.16.07c-.28,0-.36.07-.43.14s.07.07.36,0,.51-.07.87-.07.43,0,.43.14,0,.15-.22.15h-.79l-.94.14Zm-.36,3.6v-.29a.42.42,0,0,0-.28-.07c-.08,0-.22-.07-.08-.21a.75.75,0,0,1,.44-.15.77.77,0,0,0,.57.07,2.16,2.16,0,0,0,.43-.72c.08-.14.15-.21,0-.43a3.76,3.76,0,0,1-.36-.5l-.14.21c-.07,0-.14-.07-.14-.28s.07-.65.28-.72a1.52,1.52,0,0,1,.87-.22.78.78,0,0,1,.5.22c.07,0,.07.07.07.21a.35.35,0,0,1-.14.29,1.08,1.08,0,0,0-.43.36,1.34,1.34,0,0,0,.14.5,1.1,1.1,0,0,1,.15.51c0,.21,0,.29-.15.43a2.33,2.33,0,0,0-.36.43c-.07.07-.21.29-.36.36Zm-.5,0a.07.07,0,0,1,.07-.07c.07-.07.15-.14.22-.14s.07,0,.07.07,0,.14-.07.14Zm-.43,0h0c0-.07,0-.21.14-.21s.15-.15.22-.15.14,0,0,.15-.15.14-.15.21h-.21Zm-4.18,0h-.57c.07-.07.14-.07.21-.14a.23.23,0,0,1,.36,0c.07,0,.07.07,0,.14Zm-1.22,0,.14-.14c.15,0,.29-.07.36,0v.14Zm1.44,0a.07.07,0,0,1-.07-.07.5.5,0,0,1-.08-.29h-.07c-.14,0-.29,0-.29.07a.83.83,0,0,1-.21.15s-.22-.07-.22-.22l.22-.21c.07-.08.29-.08.36-.08a.3.3,0,0,0,.29-.14A2.67,2.67,0,0,0,65,106.2a8.35,8.35,0,0,0,.14-1c0-.14,0-.36.14-.36s.29,0,.29.15a1.06,1.06,0,0,1,.15.43c.07.14.21.21.14.43s-.22.65-.36,1.15-.22.72-.22.87,0,.21-.14.21Zm.5-9.21A1,1,0,0,0,66,99.5c.22,0,.29.08.29.15a.19.19,0,0,1-.21.21A1.47,1.47,0,0,1,65,99.5a.61.61,0,0,1-.15-.64Zm3.53,1.36v-.36a.35.35,0,0,1-.07-.21.11.11,0,0,1,0-.15c.07-.07.36-.36.5-.36a.66.66,0,0,1,.58.22c.21.14.5.29.29.43s-.29.15-.44.15a.59.59,0,0,0-.36.14c-.14.07-.21.14-.36.14Zm.72-1.29H68.9c-.07,0-.14.07-.07-.15s.07-.21.15-.28.07-.15.28-.15.44.07.36.22-.14.21-.28.21a1,1,0,0,0-.22.15Zm-.72-.79a.39.39,0,0,0-.22.07c-.07.07-.14,0-.21-.07L67.82,98a.37.37,0,0,0,.22-.07c.14,0,.29-.14.43-.14s.22.07.29.14.07.14-.07.14a.67.67,0,0,0-.29.08Zm-1.08.14a.26.26,0,0,1,.29.29.27.27,0,0,1-.29.29.32.32,0,0,1-.29-.29.31.31,0,0,1,.29-.29ZM65,102.1a1.27,1.27,0,0,1,.64-.8,2,2,0,0,1,.87-.21c.07,0,.14-.07.29-.15s.21-.14.28-.14.22-.07.08-.22a1.13,1.13,0,0,0-.58-.28,1.1,1.1,0,0,1-.5-.08s-.22.08-.22-.07.07-.07.22-.07.43-.14.43-.29a.34.34,0,0,0-.22-.36,1.63,1.63,0,0,0-.5-.07.16.16,0,0,1-.15-.14c0-.15.08-.15.15-.15s.14-.14.07-.14a.37.37,0,0,0-.22-.07.8.8,0,0,1-.07-.22c0-.07.07-.07.29-.14a1.2,1.2,0,0,1,.5-.15h.36a.32.32,0,0,1,.22-.29c.22,0,.43-.07.65-.07a.52.52,0,0,1,.29.29v.22c-.08.07,0,.14,0,.21s.07.22.14,0a.5.5,0,0,1,.22-.43.46.46,0,0,1,.5.07.46.46,0,0,1-.07.51c-.07.14-.22.28-.22.36s-.07.07-.21,0-.15-.15-.15.07a.69.69,0,0,1-.29.36h-.28c0,.07.07.07.21.07s.29-.07.43,0,0,.29-.07.5a1.93,1.93,0,0,1-.21.29.24.24,0,0,0-.08.15c.08,0,.15-.08.22-.15s.22-.14.22-.21.14-.08.14,0v.07H69c.21.07.28.21.5.36a1.38,1.38,0,0,1,.22.29s0,.14-.08.14a.78.78,0,0,1-.43.07c-.14,0-.36-.07-.5.07s0,.29.21.51a1.71,1.71,0,0,1,.44.65c0,.14,0,.43-.29.28s-.43-.28-.51-.21,0,.36,0,.57-.07.44-.28.22A.79.79,0,0,1,68,103s-.15-.14-.22,0a3.13,3.13,0,0,1-.14.72c-.07.22-.15.43-.29.29a1.69,1.69,0,0,1-.29-.65c0-.14-.14-.21-.21-.07s-.15.43-.22.65-.14.29-.29.07a1.39,1.39,0,0,1-.21-.94c.07-.28.07-.64-.29-.21s-.65.86-.79.57a.92.92,0,0,1-.15-.57c0-.29-.07-.36.29-.51a1.29,1.29,0,0,1,.58-.28c.07-.08.14-.15.21-.08s-.07.08-.07.22.07.14.29.07.43-.21.5-.14,0,.36,0,.43.15.22.29.22.36-.22.5-.44.08-.5-.14-.28-.5.57-.5.21a.72.72,0,0,1,.14-.5s.07-.22-.22-.07a2.67,2.67,0,0,0-.36.28c-.07,0-.36.08-.21-.14s.14-.43-.15-.29a2.85,2.85,0,0,1-.72.36c-.21.15-.28.15-.28.15Zm-1.08-3.53v.21c0,.08,0,.15-.08.08v-.15c.08,0,.08-.14.08-.14Zm-.72-.22.07.07a.21.21,0,0,1,.14.08c0,.07,0,.21-.07.21s-.14,0-.07-.07a1.76,1.76,0,0,0-.07-.29Zm-.65.29a.22.22,0,0,1,.14.07l.15.15c.07.14,0,.14-.08.21s-.14,0-.14-.14a1.76,1.76,0,0,0-.07-.29Zm-.29,1.8s-.14-.14-.14-.22v-.14l.14.14.14.08-.14.14ZM64.51,103s-.65,0-.79-.43a6.42,6.42,0,0,1-.29-1.22c0-.22-.07-.36-.36-.36a.44.44,0,0,1-.57-.22c-.15-.14-.08-.22,0-.29a.13.13,0,0,1,.21,0,.26.26,0,0,0,.36-.07.49.49,0,0,0-.14-.58.91.91,0,0,1-.22-.57c0-.07.22-.15.29-.15a2,2,0,0,0,.29.22s.07-.22,0-.29-.07-.14,0-.14.14-.07.21.07.08.22.15.22,0-.22,0-.22h.21c.08.07.08.22,0,.43a2.53,2.53,0,0,0-.07,1.08,2.83,2.83,0,0,0,.43,1.23c.15.21.15.28.36.28s.15.22.15.29A3,3,0,0,0,64.51,103Z"/><path class="cls-8" d="M67.9,72.94a.76.76,0,0,1,.5-.44v.44Zm1.44-.44a.79.79,0,0,1,.5.44h-.5V72.5Zm.57,1.23a1.16,1.16,0,0,1-2.09,0Zm.94,34.34a2.47,2.47,0,0,1,.21-.43c.15-.14.44-.58.36-.79s-.28-.43-.21-.65a.79.79,0,0,1,.14-.43.71.71,0,0,0,.22-.15.92.92,0,0,0,.29.29c.14.07.5.43.86.43a1.22,1.22,0,0,0,.58,0s0-.28.14-.28.22.07.29.14.07,0,.14.14a1.6,1.6,0,0,1,0,.58,1.38,1.38,0,0,1-.29.22l-.57.14a1.14,1.14,0,0,0-.51.36v.07a2.81,2.81,0,0,0-.36.15c-.07.07-.07.14-.14.21Zm-5.19,0a.78.78,0,0,0,.15-.5,4.73,4.73,0,0,1,.29-1.23,1.69,1.69,0,0,1,.43-.72c.21-.14.21-.21.36-.21a1.25,1.25,0,0,1,.57.07,1.88,1.88,0,0,0,.51-.14,4,4,0,0,0,.79-.15l.79-.21s-.07.64-.07.86.14.5.22.43.14-.14.28,0a1,1,0,0,0,.15.22.36.36,0,0,1,0,.29,2.05,2.05,0,0,0-.22.28c-.07.15-.14.22-.29.22a.86.86,0,0,0-.57-.07c-.15.07-.29.14-.29.29s-.14.07-.22.14-.21.07-.28.22-.08.14-.15.21Zm9.15,0h1.87v-.29A28,28,0,0,0,76,102a6.59,6.59,0,0,1,.65-3.81L74.74,96c-1.66.86-3.68.64-5.91-.08-2.23.72-4.25.94-5.9.08l-2,2.23a6.59,6.59,0,0,1,.65,3.81,34,34,0,0,0-.72,5.76v.29h1.8a1.51,1.51,0,0,1,.29-.21.86.86,0,0,0,.29-.15.38.38,0,0,1,.29-.36,1,1,0,0,1,.36-.07c.07,0,.14,0,.28-.14a2.37,2.37,0,0,0,.51-.72,4.36,4.36,0,0,0,.14-.72,2.83,2.83,0,0,1,.15-.65.2.2,0,0,0-.22,0c-.22.07-.22-.15-.29-.29s0-.58.15-.72a.77.77,0,0,1,.14-.29l-.07-.21s-1.15.21-1.37-.72-.22-1.3-.29-1.37-.07-.15-.21-.15-.44-.07-.65-.57-.29-.65-.22-.79.22-.15.22-.08.36.51.5.36.07-.14-.14-.43a1.08,1.08,0,0,1-.07-.65c0-.14-.08-.43-.08-.5s.08-.14.22-.14.22.14.22.21.07.15.21.07,0-.36,0-.5.15-.14.29-.07a.51.51,0,0,1,.22.36c0,.14,0,.21.07.21s.14-.14.14-.28.07-.29.15-.15a.81.81,0,0,1,.14.58c-.07.21,0,.14-.07.5a4,4,0,0,0-.07.87,1.89,1.89,0,0,0,.14.79c.14.36.29.72.5.72h.36a2.51,2.51,0,0,1,.51-.65,5.72,5.72,0,0,1,.79-.22c.22,0,.36-.07.36-.14s-.07-.07-.36-.14-.5-.08-.5-.29,0-.36-.15-.36-.65-.22-.79-.51a.89.89,0,0,1-.14-.5c.07-.14.28-.5.36-.14s.28.28.36.36.28.07.21-.08a1.83,1.83,0,0,1-.14-.5.55.55,0,0,1,.29-.29c.07,0,.5-.14.64-.14l.22-.07s0-.15.29-.22a1.6,1.6,0,0,1,.57-.07,2.09,2.09,0,0,0,.58-.07.85.85,0,0,1,.58-.15c.14,0,.21.07.36.15s.07.14.07.28,0,.15.14.15a1.13,1.13,0,0,1,.51.07c.14.07.36.14.21.29s-.14.36-.21.36-.08.07-.15.14-.07.07.07.15.08.14.22.21.29.29.14.51l-.57.36s-.22.07,0,.21.36.43.43.43a.82.82,0,0,0,.22.15.35.35,0,0,1,.07.21.52.52,0,0,1-.29.15,1.34,1.34,0,0,1-.5.14c-.15,0-.29,0-.22.22s.22.29.22.36a.35.35,0,0,1,.07.21,2.34,2.34,0,0,0,.5.08h.87a6.26,6.26,0,0,1,1.22-.08,3.33,3.33,0,0,0,.65.08l.29.14a7.86,7.86,0,0,0,1.08-.07c.43-.07.5-.36.43-.51s0-.28-.72-.43a10,10,0,0,1-1.51-.14c-.51-.07-1.37-.36-1.52-1.08s.44-.94.65-1.08a7,7,0,0,1,1.15-.43,2.37,2.37,0,0,1,1.3-.15c.58.07.86.22,1.08.07s.29,0,.29.15-.22.57-.79.79a3.56,3.56,0,0,1-1.73.07,2.36,2.36,0,0,0-.94-.14.44.44,0,0,0-.21.72c.28.36,1.58.43,1.94.5s1.66-.07,1.94.58A1.11,1.11,0,0,1,75.1,103a4.11,4.11,0,0,1-1.16.36h-.36a2.18,2.18,0,0,1,.15.5c0,.15,0,.44.14.51a.86.86,0,0,0,.72.14c.22,0,.58.22.58.43s.07.58.07,1.08v.94a1.32,1.32,0,0,1-.07.36,4.29,4.29,0,0,1-.36.79Zm11,8.71a3.24,3.24,0,0,0,.51,1.23,1.64,1.64,0,0,0,1.44.65,1.48,1.48,0,0,0,1.29-.65,4,4,0,0,1,.22-.58,15.44,15.44,0,0,1-1.8-.29,10.45,10.45,0,0,1-1.22-.28c-.36,0-.44-.08-.44-.08Zm.36-2.3a2.59,2.59,0,0,1,1.16-1.08A4.5,4.5,0,0,1,89,113s-.36,1.37-.43,1.66,0,.36-.22.28a10.32,10.32,0,0,1-1.44-.28l-.72-.22Zm4.83-.79s-.36,1.15-.43,1.51-.15.36.14.43,1.15.22,1.37.29.43.22.36-.29A2.89,2.89,0,0,0,91,113.69Zm-.22,4.82s-.43.07-.5.43.14.36.36.36.72-.14.93-.43a2.19,2.19,0,0,0,.36-.5c0-.15.08-.15-.21-.22a2.75,2.75,0,0,1-.36-.14s-.07-.07-.15.14A3.87,3.87,0,0,1,90.79,118.51Z"/><path class="cls-9" d="M68.54,5.26A28.22,28.22,0,1,1,40.32,33.48,28.26,28.26,0,0,1,68.54,5.26Z"/><path class="cls-10" d="M68.54,4.68a28.8,28.8,0,1,1-28.8,28.8,28.78,28.78,0,0,1,28.8-28.8ZM46,49.39A27.51,27.51,0,0,0,60.34,59.83L61.27,57l-4.82-6.84-8-2.45L46,49.39Zm2.73-2.88,7.85,2.38,5-6.84L57.82,30.6l-8-2.59-5,6.62,3.88,11.88ZM43.92,33.84l5-6.7-.07-8.42L46.44,17A27.31,27.31,0,0,0,41,33.48v.36ZM50,18.65l.14,8.21,8.21,2.66L68,22.61V14L60.19,11.3,50,18.65Zm10.58-8.43L68.54,13l7.85-2.74.94-2.88A27.27,27.27,0,0,0,68.54,5.9a28,28,0,0,0-8.85,1.44l.93,2.88Zm16.2,1.08L69.12,14v8.64l9.5,6.91,8.21-2.59L87,18.65,76.82,11.3Zm11.31,7.42L88,27.14l5.12,6.7h3v-.36A27.37,27.37,0,0,0,90.58,17l-2.45,1.73Zm4,15.91-5-6.62-8.06,2.66L75.46,42.12l5,6.77,7.85-2.38,3.89-11.88Zm-3.6,13-8,2.45L75.67,57l1,2.88A27.42,27.42,0,0,0,90.94,49.39l-2.38-1.73ZM74.81,56.3l4.61-6.69-4.83-6.77H62.42l-4.89,6.77,4.75,6.69Z"/></g></g></svg>