<svg xmlns="http://www.w3.org/2000/svg" xmlns:xlink="http://www.w3.org/1999/xlink" width="1080" zoomAndPan="magnify" viewBox="0 0 810 809.999993" height="1080" preserveAspectRatio="xMidYMid meet" version="1.0"><path fill="#ffffff" d="M 270.367188 0 L 0.363281 404.582031 L 405.058594 810 L 809.636719 404.582031 L 539.632812 0 Z M 270.367188 0 " fill-opacity="1" fill-rule="evenodd"/><path fill="#f36c27" d="M 274.238281 7.152344 L 9.5625 403.605469 L 405.058594 799.957031 L 800.4375 403.605469 L 535.761719 7.152344 Z M 274.238281 7.152344 " fill-opacity="1" fill-rule="evenodd"/><path fill="#ffffff" d="M 288.890625 34.640625 L 44.945312 400.222656 L 405.058594 760.941406 L 765.191406 400.222656 L 521.109375 34.640625 Z M 288.890625 34.640625 " fill-opacity="1" fill-rule="evenodd"/><path fill="#f36c27" d="M 301.253906 57.65625 L 74.621094 397.3125 L 405.058594 728.371094 L 735.394531 397.3125 L 508.742188 57.65625 Z M 301.253906 57.65625 " fill-opacity="1" fill-rule="evenodd"/><path fill="#ffffff" d="M 412.695312 100.777344 C 414.515625 106.109375 416.683594 111.441406 418.265625 116.773438 C 413.050781 121.367188 408.574219 125.609375 403.359375 130.097656 C 398.160156 125.609375 393.0625 121.6875 388.21875 116.640625 L 393.804688 100.757812 Z M 412.695312 100.777344 " fill-opacity="1" fill-rule="evenodd"/><path fill="#ffffff" d="M 419.710938 146.199219 C 430.613281 163.644531 419.242188 192.601562 402.886719 203.402344 C 401.796875 204.007812 401.542969 202.675781 401.914062 201.464844 C 409.179688 186.679688 413.539062 152.40625 383.742188 157.488281 C 384.585938 151.550781 385.324219 145.140625 391.128906 141.625 C 397.910156 137.722656 414.226562 137.601562 419.710938 146.199219 Z M 419.710938 146.199219 " fill-opacity="1" fill-rule="evenodd"/><path fill="#ffffff" d="M 379.992188 159.289062 C 371.023438 165.832031 369.695312 176.972656 370.652344 186.054688 C 372.019531 192.351562 374.5625 198.128906 378.292969 203.382812 C 378.664062 204.226562 377.804688 205.066406 377.082031 204.714844 C 364.363281 196.839844 348.246094 182.84375 346.914062 169.820312 C 346.308594 163.898438 346.5625 157.707031 351.878906 153.71875 C 352.429688 153.347656 352.996094 153.003906 353.582031 152.6875 C 354.167969 152.375 354.765625 152.085938 355.378906 151.832031 C 355.992188 151.574219 356.613281 151.347656 357.25 151.152344 C 357.886719 150.960938 358.527344 150.796875 359.179688 150.664062 C 359.832031 150.535156 360.488281 150.433594 361.148438 150.367188 C 361.808594 150.300781 362.472656 150.265625 363.136719 150.265625 C 363.800781 150.265625 364.464844 150.296875 365.125 150.359375 C 365.785156 150.425781 366.441406 150.523438 367.09375 150.652344 C 367.746094 150.78125 368.390625 150.941406 369.027344 151.132812 C 369.660156 151.328125 370.285156 151.550781 370.898438 151.804688 C 371.515625 152.058594 372.113281 152.34375 372.699219 152.65625 C 373.285156 152.96875 373.855469 153.3125 374.40625 153.679688 C 374.957031 154.050781 375.492188 154.445312 376.003906 154.867188 C 376.515625 155.292969 377.007812 155.738281 377.476562 156.207031 C 377.945312 156.679688 378.390625 157.171875 378.808594 157.6875 C 379.230469 158.203125 379.625 158.734375 379.992188 159.289062 Z M 379.992188 159.289062 " fill-opacity="1" fill-rule="evenodd"/><path fill="#ffffff" d="M 458.726562 180.855469 C 454 189.570312 443.097656 198.167969 434.128906 204.410156 C 433.523438 204.527344 432.566406 204.277344 432.566406 203.433594 C 440.675781 191.203125 443.585938 174.363281 434.734375 162.855469 C 433.464844 161.417969 432.089844 160.082031 430.613281 158.851562 C 435.222656 153.28125 440.304688 149.414062 449.996094 150.441406 C 458.355469 151.414062 470.234375 159.828125 458.726562 180.855469 Z M 458.726562 180.855469 " fill-opacity="1" fill-rule="evenodd"/><path fill="#ffffff" d="M 342.324219 173.285156 C 330.679688 184.070312 339.042969 199.816406 340.503906 202.476562 C 340.976562 203.453125 339.53125 204.292969 338.824219 203.804688 C 328.878906 196.066406 318.113281 184.792969 322 172.679688 C 323.09375 169.535156 327.046875 167.230469 330.847656 166.996094 C 332.011719 166.882812 333.164062 166.945312 334.304688 167.179688 C 335.449219 167.414062 336.53125 167.8125 337.554688 168.371094 C 338.578125 168.933594 339.496094 169.632812 340.308594 170.46875 C 341.121094 171.308594 341.792969 172.246094 342.324219 173.285156 Z M 342.324219 173.285156 " fill-opacity="1" fill-rule="evenodd"/><path fill="#ffffff" d="M 486.570312 171.285156 C 490.085938 179.277344 484.753906 190.414062 475.785156 197.933594 L 470.21875 202.527344 C 469.613281 202.894531 468.402344 202.289062 468.886719 201.316406 C 470.90625 197.8125 472.195312 194.0625 472.757812 190.058594 C 473.128906 183.332031 472.523438 176.484375 467.1875 172.242188 C 467.578125 171.414062 468.058594 170.640625 468.636719 169.929688 C 469.214844 169.21875 469.871094 168.589844 470.605469 168.042969 C 471.339844 167.492188 472.128906 167.042969 472.972656 166.6875 C 473.820312 166.332031 474.695312 166.089844 475.601562 165.949219 C 479.839844 165.714844 484.652344 166.925781 486.570312 171.285156 Z M 486.570312 171.285156 " fill-opacity="1" fill-rule="evenodd"/><path fill="#ffffff" d="M 487.074219 206.765625 C 487.042969 206.972656 487 207.171875 486.941406 207.371094 C 486.414062 209.050781 485.792969 210.695312 485.078125 212.304688 C 484.367188 213.914062 483.5625 215.480469 482.675781 216.996094 C 481.785156 218.515625 480.8125 219.980469 479.753906 221.390625 C 478.699219 222.796875 477.570312 224.144531 476.359375 225.425781 C 475.152344 226.707031 473.878906 227.914062 472.53125 229.050781 C 471.1875 230.1875 469.785156 231.246094 468.320312 232.222656 C 466.855469 233.199219 465.34375 234.09375 463.777344 234.898438 C 462.214844 235.707031 460.609375 236.421875 458.960938 237.046875 C 481.976562 242.5 511.535156 243.964844 530.800781 234.996094 C 531.640625 234.507812 532.484375 234.507812 532.246094 235.484375 C 526.308594 253.164062 509.230469 267.214844 484.769531 267.582031 C 464.582031 267.9375 452.066406 263.578125 434.617188 257.035156 C 419.964844 253.046875 403.964844 264.792969 398.042969 275.339844 C 394.761719 281.261719 393.316406 280.386719 393.199219 272.917969 C 393.0625 251.71875 412.207031 238.394531 412.207031 238.394531 C 411.011719 237.871094 409.785156 237.425781 408.527344 237.0625 C 407.273438 236.695312 406 236.414062 404.707031 236.214844 C 403.414062 236.011719 402.113281 235.898438 400.808594 235.867188 C 399.5 235.835938 398.195312 235.886719 396.894531 236.023438 C 395.59375 236.160156 394.308594 236.382812 393.035156 236.6875 C 391.765625 236.992188 390.519531 237.375 389.296875 237.839844 C 388.074219 238.304688 386.886719 238.847656 385.734375 239.46875 C 384.582031 240.085938 383.476562 240.777344 382.414062 241.539062 C 375.683594 245.527344 370.046875 253.046875 366.414062 258.617188 C 364.480469 261.644531 364.730469 262.132812 363.875 258.246094 C 360.507812 242.027344 368.230469 229.058594 378.410156 220.949219 C 393.921875 208.582031 414.144531 214.21875 433.523438 214.523438 C 445.753906 214.773438 471.328125 216.203125 486.21875 205.808594 C 486.585938 205.4375 487.191406 205.554688 487.191406 206.160156 C 487.210938 206.375 487.171875 206.574219 487.074219 206.765625 Z M 487.074219 206.765625 " fill-opacity="1" fill-rule="evenodd"/><path fill="#ffffff" d="M 374.894531 213.664062 C 375.988281 214.152344 375.988281 215.226562 375.027344 215.480469 C 372.234375 216.574219 332.632812 228.433594 344.003906 266.355469 C 345.46875 271.082031 345.097656 269.871094 342.324219 266.710938 C 335.59375 259.207031 330.445312 252.171875 327.785156 243.457031 C 325.128906 234.742188 327.785156 223.589844 335.054688 217.652344 C 348.496094 206.933594 368.113281 211.257812 374.894531 213.664062 Z M 374.894531 213.664062 " fill-opacity="1" fill-rule="evenodd"/><path fill="#ffffff" d="M 559.265625 271.707031 C 562.292969 274.128906 560.59375 273.992188 559.148438 274.128906 C 533.574219 278.605469 527.890625 295.679688 511.535156 303.433594 C 491.785156 312.753906 473.378906 302.105469 457.515625 294.46875 C 445.890625 288.898438 428.191406 294.46875 420.6875 299.429688 C 417.324219 301.617188 417.324219 302.796875 417.894531 297.613281 C 418.871094 289.203125 423.230469 282.609375 429.773438 276.785156 C 442.609375 267.464844 466.113281 273.523438 477.988281 278.117188 C 494.695312 285.636719 497.238281 282.960938 510.441406 273.875 C 525.097656 263.949219 542.796875 258.128906 559.265625 271.707031 Z M 559.265625 271.707031 " fill-opacity="1" fill-rule="evenodd"/><path fill="#ffffff" d="M 356 290.109375 C 368.601562 292.769531 384.953125 288.058594 390.640625 281.867188 C 390.035156 302.054688 369.695312 308.515625 367.878906 309.863281 C 377.449219 318.089844 401.308594 310.46875 413.789062 302.460938 C 414.515625 319.789062 404.941406 332.996094 386.535156 334.929688 L 387.378906 335.90625 C 395.789062 337.585938 407.246094 341.59375 414.296875 357.777344 C 397.941406 354.496094 367.304688 354.496094 368.753906 385.03125 C 354.21875 387.203125 332.664062 392.179688 325.261719 423.726562 C 325.144531 424.332031 324.421875 424.566406 323.699219 423.84375 C 315.285156 412.941406 313.285156 398.035156 316.3125 384.222656 C 316.429688 383.011719 320.90625 383.5 323.445312 386.175781 C 337.746094 373.808594 353.257812 372.480469 361.738281 377.207031 C 360.761719 335.417969 311.820312 338.511719 298.144531 339.65625 C 297.285156 341.960938 296.5625 346.203125 295.113281 346.386719 C 291.347656 347.226562 289.78125 342.871094 287.59375 341.171875 C 286.707031 341.363281 285.824219 341.363281 284.9375 341.171875 C 281.65625 335.71875 278.628906 329.917969 278.207031 323.253906 C 281.234375 319.890625 276.878906 316.339844 277.484375 312.585938 C 287.410156 304.714844 320.234375 299.382812 323.984375 302.492188 C 323.75 304.664062 323.027344 307.339844 324.960938 309.019531 C 325.691406 309.644531 326.492188 310.164062 327.359375 310.582031 C 328.226562 311 329.132812 311.296875 330.078125 311.480469 C 331.023438 311.660156 331.976562 311.71875 332.9375 311.652344 C 333.898438 311.585938 334.832031 311.398438 335.746094 311.089844 C 337.671875 309.652344 339.125 307.835938 340.101562 305.640625 C 340.707031 301.886719 336.46875 300.792969 333.675781 298.605469 C 327.617188 295.242188 317.929688 293.15625 315.640625 290.851562 C 313.453125 287.707031 316.597656 283.230469 318.667969 280.925781 C 324.589844 274.195312 333.808594 277.777344 340.707031 277.171875 C 347.4375 276.921875 356.21875 273.894531 359.71875 267.71875 C 361.820312 270.359375 362.074219 284.054688 356 290.109375 Z M 356 290.109375 " fill-opacity="1" fill-rule="evenodd"/><path fill="#ffffff" d="M 533.574219 328.148438 C 547.152344 328.03125 557.449219 323.539062 574.523438 315.667969 C 575.738281 315.179688 576.34375 315.667969 575.738281 316.523438 C 574.054688 320.160156 568.585938 325.84375 565.929688 329.109375 C 554.050781 343.777344 536.605469 354.074219 516.988281 349.582031 C 500.164062 345.832031 490.070312 339.488281 475.199219 330.808594 C 462.714844 323.792969 440.792969 327.441406 425.414062 333.953125 C 420.6875 336.023438 422.050781 334.929688 424.320312 331.058594 C 432.917969 315.917969 448.917969 307.910156 467.207031 310.214844 C 490.574219 313.007812 509.113281 328.265625 533.574219 328.148438 Z M 533.574219 328.148438 " fill-opacity="1" fill-rule="evenodd"/><path fill="#ffffff" d="M 520.992188 369.6875 C 527.519531 366.425781 536.605469 354.546875 561.804688 362.300781 L 570.050781 365.449219 C 570.65625 365.816406 572.339844 368.125 570.402344 368.359375 C 558.542969 369.941406 544.359375 383.148438 531.707031 391.136719 C 527.351562 393.914062 514.144531 398.289062 504.453125 395.730469 C 487.140625 390.683594 478.898438 378.773438 466.0625 366.304688 C 457.09375 357.574219 439.414062 353.824219 428.511719 354.679688 C 424.390625 355.035156 423.179688 356.363281 427.300781 351.886719 C 428.214844 350.851562 429.183594 349.875 430.214844 348.953125 C 431.242188 348.03125 432.324219 347.175781 433.453125 346.382812 C 434.585938 345.59375 435.761719 344.871094 436.976562 344.21875 C 438.195312 343.566406 439.445312 342.988281 440.730469 342.484375 C 442.015625 341.980469 443.328125 341.554688 444.664062 341.207031 C 446 340.859375 447.351562 340.589844 448.722656 340.402344 C 450.089844 340.214844 451.464844 340.109375 452.84375 340.085938 C 454.226562 340.0625 455.601562 340.121094 456.976562 340.261719 C 478.597656 342.683594 498.9375 380.960938 520.992188 369.6875 Z M 520.992188 369.6875 " fill-opacity="1" fill-rule="evenodd"/><path fill="#ffffff" d="M 238.503906 346.203125 C 238.753906 351.398438 240.183594 356.296875 244.8125 359.15625 C 252.550781 364.203125 261.769531 362.789062 270.484375 362.066406 C 287.8125 360.382812 308.035156 348.742188 325.71875 358.0625 C 333.472656 362.066406 336.382812 370.175781 335.8125 370.429688 C 323.328125 365.378906 300.800781 371.035156 297.117188 372.597656 C 287.78125 376.601562 260.660156 387.992188 240.671875 382.054688 C 217.289062 375.136719 228.558594 349.835938 237.039062 345.832031 C 237.660156 345.460938 238.386719 345.597656 238.503906 346.203125 Z M 238.503906 346.203125 " fill-opacity="1" fill-rule="evenodd"/><path fill="#ffffff" d="M 531.996094 437.285156 C 535.511719 437.285156 534.652344 438.613281 533.675781 438.96875 C 518.164062 444.773438 492.964844 448.777344 480.246094 436.546875 C 474.070312 430.605469 468.988281 420.429688 464.632812 413.882812 C 453.476562 397.296875 440.40625 382.878906 421.496094 376.214844 C 415.691406 374.28125 414.597656 374.652344 421.75 373.675781 C 451.777344 369.804688 465.355469 381.785156 479.285156 397.414062 C 501.121094 421.773438 492.996094 435.46875 531.996094 437.285156 Z M 531.996094 437.285156 " fill-opacity="1" fill-rule="evenodd"/><path fill="#ffffff" d="M 449.035156 420.933594 C 455.582031 436.679688 458.003906 457.15625 483.070312 465.75 C 485.980469 466.59375 490.945312 467.570312 489.800781 469.015625 C 487.75 469.523438 485.675781 469.886719 483.574219 470.097656 C 481.476562 470.3125 479.371094 470.378906 477.261719 470.292969 C 475.152344 470.207031 473.058594 469.972656 470.980469 469.589844 C 468.90625 469.207031 466.867188 468.679688 464.863281 468.007812 C 462.863281 467.335938 460.917969 466.523438 459.03125 465.574219 C 457.144531 464.628906 455.335938 463.550781 453.601562 462.34375 C 451.867188 461.140625 450.230469 459.816406 448.683594 458.378906 C 447.140625 456.941406 445.703125 455.398438 444.375 453.757812 C 434.078125 440.433594 431.167969 423.472656 422.503906 409.308594 C 418.753906 403.25 416.332031 396.824219 410.878906 389.4375 C 407.734375 385.199219 406.523438 384.828125 411.972656 387.503906 C 427.351562 394.773438 442.375 405.1875 449.035156 420.933594 Z M 449.035156 420.933594 " fill-opacity="1" fill-rule="evenodd"/><path fill="#ffffff" d="M 398.648438 399.246094 C 398.402344 401.414062 398.382812 403.585938 398.585938 405.761719 C 398.789062 407.933594 399.214844 410.0625 399.863281 412.148438 C 400.507812 414.230469 401.359375 416.226562 402.417969 418.136719 C 403.480469 420.042969 404.722656 421.824219 406.152344 423.472656 C 420.316406 441.039062 434.128906 467.082031 420.804688 489.085938 C 420.199219 490.164062 419.125 490.046875 418.871094 489.085938 C 416.449219 467.519531 405.664062 450.191406 394.761719 431.550781 C 389.3125 422.328125 391.398438 408.535156 396.34375 398.960938 C 399.488281 392.953125 399.253906 393.191406 398.648438 399.246094 Z M 398.648438 399.246094 " fill-opacity="1" fill-rule="evenodd"/><path fill="#ffffff" d="M 363.152344 398.152344 C 354.554688 407.121094 344.746094 418.140625 348.128906 428.804688 C 351.507812 439.472656 354.855469 458.25 338.03125 468.054688 C 339.09375 465.121094 339.980469 462.128906 340.691406 459.089844 C 344.054688 442.367188 334.632812 434.375 337.425781 421.167969 C 339.597656 410.636719 351.355469 401.433594 362.007812 397.195312 C 365.203125 395.867188 365.808594 395.359375 363.152344 398.152344 Z M 363.152344 398.152344 " fill-opacity="1" fill-rule="evenodd"/><path fill="#ffffff" d="M 380.226562 401.921875 C 375.75 410.753906 371.628906 420.09375 374.777344 430.019531 C 377.199219 437.773438 397.304688 469.269531 371.023438 484.15625 C 369.929688 484.527344 369.441406 484.15625 369.578125 483.550781 C 375.75 466.121094 369.089844 451.585938 364.246094 435.585938 C 359.632812 420.328125 367.507812 409.054688 377.804688 400.828125 C 381.203125 398.035156 383.253906 396.101562 380.226562 401.921875 Z M 380.226562 401.921875 " fill-opacity="1" fill-rule="evenodd"/><path fill="#ffffff" d="M 275.09375 492.164062 L 294.105469 492.164062 L 294.105469 519.773438 L 318.703125 492.164062 L 340.976562 492.164062 L 308.640625 528.621094 L 341.347656 564.710938 L 318.9375 564.710938 L 296.898438 540.128906 L 294.105469 542.550781 L 294.105469 564.710938 L 275.09375 564.710938 Z M 275.09375 492.164062 " fill-opacity="1" fill-rule="evenodd"/><path fill="#ffffff" d="M 393.433594 492.164062 L 411.972656 492.164062 L 411.972656 564.710938 L 395.015625 564.710938 L 367.625 524.5 L 367.625 564.710938 L 348.851562 564.710938 L 348.851562 492.164062 L 366.0625 492.164062 L 393.433594 532.136719 Z M 393.433594 492.164062 " fill-opacity="1" fill-rule="evenodd"/><path fill="#ffffff" d="M 420.6875 492.164062 L 439.226562 492.164062 L 453.277344 527.765625 L 467.695312 492.164062 L 485.980469 492.164062 L 453.628906 569.4375 L 451.8125 569.4375 Z M 420.6875 492.164062 " fill-opacity="1" fill-rule="evenodd"/><path fill="#ffffff" d="M 521.109375 564.238281 C 533.574219 563.984375 540.003906 560.957031 543.636719 557.207031 C 547.269531 553.453125 549.8125 549.449219 549.8125 543.746094 C 549.8125 536.597656 547.875 530.910156 540.980469 527.511719 C 543.148438 525.828125 547.707031 522.667969 547.707031 512.371094 C 547.707031 503.65625 541.515625 492.988281 521.175781 492.265625 L 521.175781 508.367188 L 521.898438 508.367188 C 525.769531 508.367188 530.3125 509.832031 530.3125 513.699219 C 530.3125 518.191406 526.558594 520.125 521.34375 520.125 L 521.109375 520.125 L 521.109375 535.875 L 523.414062 535.875 C 527.046875 535.875 532.128906 537.4375 532.128906 541.675781 C 532.128906 546.40625 527.890625 548.40625 522.925781 548.40625 L 521.109375 548.40625 Z M 494.949219 564.238281 L 521.109375 564.238281 L 521.109375 548.457031 L 512.511719 548.457031 L 512.023438 535.855469 L 521.109375 535.855469 L 521.109375 520.109375 L 512.511719 520.109375 L 512.023438 508.332031 L 521.109375 508.332031 L 521.109375 492.234375 C 520.386719 492.234375 519.644531 492.113281 518.804688 492.113281 L 494.980469 492.113281 Z M 494.949219 564.238281 " fill-opacity="1" fill-rule="evenodd"/></svg>