<svg xmlns="http://www.w3.org/2000/svg" viewBox="0 0 481.03 481.46"><defs><style>.cls-1{fill:#fff;}.cls-1,.cls-2{fill-rule:evenodd;}.cls-2{fill:#f36c27;}</style></defs><title>Eszköz 1</title><g id="Réteg_2" data-name="Réteg 2"><g id="Layer_1" data-name="Layer 1"><polygon class="cls-1" points="160.49 0 0 240.48 240.55 481.46 481.03 240.48 320.54 0 160.49 0"/><polygon class="cls-2" points="162.79 4.25 5.47 239.9 240.55 475.49 475.56 239.9 318.24 4.25 162.79 4.25"/><polygon class="cls-1" points="171.5 20.59 26.5 237.89 240.55 452.3 454.61 237.89 309.53 20.59 171.5 20.59"/><polygon class="cls-2" points="178.85 34.27 44.14 236.16 240.55 432.94 436.9 236.16 302.18 34.27 178.85 34.27"/><path class="cls-1" d="M245.09,59.9c1.08,3.17,2.37,6.34,3.31,9.51-3.1,2.73-5.76,5.25-8.86,7.92-3.09-2.67-6.12-5-9-8l3.32-9.44Z"/><path class="cls-1" d="M249.26,86.9c6.48,10.37-.28,27.58-10,34-.65.36-.8-.43-.58-1.15,4.32-8.79,6.91-29.16-10.8-26.14.5-3.53.94-7.34,4.39-9.43C236.3,81.86,246,81.79,249.26,86.9Z"/><path class="cls-1" d="M225.65,94.68c-5.33,3.89-6.12,10.51-5.55,15.91a28.08,28.08,0,0,0,4.54,10.3c.22.5-.29,1-.72.79-7.56-4.68-17.14-13-17.93-20.74-.36-3.52-.21-7.2,2.95-9.57a12,12,0,0,1,16.71,3.31Z"/><path class="cls-1" d="M272.45,107.5c-2.81,5.18-9.29,10.29-14.62,14-.36.07-.93-.08-.93-.58,4.82-7.27,6.55-17.28,1.29-24.12a22.46,22.46,0,0,0-2.45-2.38c2.74-3.31,5.76-5.61,11.52-5C272.23,90,279.29,95,272.45,107.5Z"/><path class="cls-1" d="M203.26,103c-6.92,6.41-1.95,15.77-1.08,17.35.28.58-.58,1.08-1,.79-5.91-4.6-12.31-11.3-10-18.5.65-1.87,3-3.24,5.26-3.38A6.91,6.91,0,0,1,203.26,103Z"/><path class="cls-1" d="M289,101.81c2.09,4.75-1.08,11.37-6.41,15.84l-3.31,2.73c-.36.22-1.08-.14-.79-.72a18.55,18.55,0,0,0,2.3-6.69c.22-4-.14-8.07-3.31-10.59a6.61,6.61,0,0,1,5-3.74C285,98.5,287.86,99.22,289,101.81Z"/><path class="cls-1" d="M289.3,122.9a2.55,2.55,0,0,1-.08.36,27.77,27.77,0,0,1-16.63,17.64c13.68,3.24,31.25,4.11,42.7-1.22.5-.29,1-.29.86.29-3.53,10.51-13.68,18.86-28.22,19.08-12,.21-19.44-2.38-29.81-6.27-8.71-2.37-18.22,4.61-21.74,10.88-1.95,3.52-2.81,3-2.88-1.44-.08-12.6,11.3-20.52,11.3-20.52a18,18,0,0,0-17.71,1.87c-4,2.37-7.35,6.84-9.51,10.15-1.15,1.8-1,2.09-1.51-.22-2-9.64,2.59-17.35,8.64-22.17,9.22-7.35,21.24-4,32.76-3.82,7.27.15,22.47,1,31.32-5.18.22-.22.58-.15.58.21A.65.65,0,0,1,289.3,122.9Z"/><path class="cls-1" d="M222.62,127c.65.29.65.93.08,1.08-1.66.65-25.2,7.7-18.44,30.24.87,2.81.65,2.09-1,.21-4-4.46-7.06-8.64-8.64-13.82s0-11.81,4.32-15.34C206.93,123,218.59,125.57,222.62,127Z"/><path class="cls-1" d="M332.21,161.5c1.8,1.44.79,1.36-.07,1.44-15.2,2.66-18.58,12.81-28.3,17.42-11.74,5.54-22.68-.79-32.11-5.33-6.91-3.31-17.43,0-21.89,2.95-2,1.3-2,2-1.66-1.08.58-5,3.17-8.92,7.06-12.38,7.63-5.54,21.6-1.94,28.66.79,9.93,4.47,11.44,2.88,19.29-2.52C311.9,156.89,322.42,153.43,332.21,161.5Z"/><path class="cls-1" d="M211.39,172.44c7.49,1.58,17.21-1.22,20.59-4.9-.36,12-12.45,15.84-13.53,16.64,5.69,4.89,19.87.36,27.29-4.4.43,10.3-5.26,18.15-16.2,19.3l.5.58c5,1,11.81,3.38,16,13-9.72-1.95-27.93-1.95-27.07,16.2-8.64,1.29-21.45,4.25-25.85,23-.07.36-.5.5-.93.07-5-6.48-6.19-15.34-4.39-23.55.07-.72,2.73-.43,4.24,1.16,8.5-7.35,17.72-8.14,22.76-5.33-.58-24.84-29.67-23-37.8-22.32-.51,1.37-.94,3.89-1.8,4-2.24.5-3.17-2.09-4.47-3.1a3.75,3.75,0,0,1-1.58,0c-1.95-3.24-3.75-6.69-4-10.65,1.8-2-.79-4.11-.43-6.34,5.9-4.68,25.41-7.85,27.64-6-.14,1.29-.57,2.88.58,3.88a6.61,6.61,0,0,0,6.41,1.23,8.2,8.2,0,0,0,2.59-3.24c.36-2.23-2.16-2.88-3.82-4.18-3.6-2-9.36-3.24-10.72-4.61-1.3-1.87.57-4.53,1.8-5.9,3.52-4,9-1.87,13.1-2.23,4-.15,9.22-1.95,11.3-5.62C214.85,160.7,215,168.84,211.39,172.44Z"/><path class="cls-1" d="M316.94,195.05c8.07-.07,14.19-2.74,24.34-7.42.72-.29,1.08,0,.72.51-1,2.16-4.25,5.54-5.83,7.48-7.06,8.72-17.43,14.84-29.09,12.17-10-2.23-16-6-24.84-11.16-7.42-4.17-20.45-2-29.59,1.87-2.81,1.23-2,.58-.65-1.72,5.11-9,14.62-13.76,25.49-12.39C291.38,186.05,302.4,195.12,316.94,195.05Z"/><path class="cls-1" d="M309.46,219.74c3.88-1.94,9.28-9,24.26-4.39l4.9,1.87c.36.22,1.36,1.59.21,1.73-7.05.94-15.48,8.79-23,13.54-2.59,1.65-10.44,4.25-16.2,2.73-10.29-3-15.19-10.08-22.82-17.49-5.33-5.19-15.84-7.42-22.32-6.91-2.45.21-3.17,1-.72-1.66a20.71,20.71,0,0,1,17.64-6.91C284.26,203.69,296.35,226.44,309.46,219.74Z"/><path class="cls-1" d="M141.55,205.78c.15,3.09,1,6,3.75,7.7,4.6,3,10.08,2.16,15.26,1.73,10.3-1,22.32-7.92,32.83-2.38,4.61,2.38,6.34,7.2,6,7.35-7.42-3-20.81.36-23,1.29-5.55,2.38-21.67,9.15-33.55,5.62-13.9-4.11-7.2-19.15-2.16-21.53C141.05,205.34,141.48,205.42,141.55,205.78Z"/><path class="cls-1" d="M316,259.92c2.09,0,1.58.79,1,1-9.22,3.45-24.2,5.83-31.76-1.44-3.67-3.53-6.69-9.58-9.28-13.47-6.63-9.86-14.4-18.43-25.64-22.39-3.45-1.15-4.1-.93.15-1.51,17.85-2.3,25.92,4.82,34.2,14.11C297.65,250.7,292.82,258.84,316,259.92Z"/><path class="cls-1" d="M266.69,250.2c3.89,9.36,5.33,21.53,20.23,26.64,1.73.5,4.68,1.08,4,1.94a26.5,26.5,0,0,1-27-9.07c-6.12-7.92-7.85-18-13-26.42-2.23-3.6-3.67-7.42-6.91-11.81-1.87-2.52-2.59-2.74.65-1.15C253.8,234.65,262.73,240.84,266.69,250.2Z"/><path class="cls-1" d="M236.74,237.31a18.77,18.77,0,0,0,4.46,14.4c8.42,10.44,16.63,25.92,8.71,39-.36.64-1,.57-1.15,0-1.44-12.82-7.85-23.12-14.33-34.2-3.24-5.48-2-13.68.94-19.37C237.24,233.57,237.1,233.71,236.74,237.31Z"/><path class="cls-1" d="M215.64,236.66c-5.11,5.33-10.94,11.88-8.93,18.22s4,17.5-6,23.33a47.54,47.54,0,0,0,1.58-5.33c2-9.94-3.6-14.69-1.94-22.54,1.29-6.26,8.28-11.73,14.61-14.25C216.86,235.3,217.22,235,215.64,236.66Z"/><path class="cls-1" d="M225.79,238.9c-2.66,5.25-5.11,10.8-3.24,16.7,1.44,4.61,13.39,23.33-2.23,32.18-.65.22-.94,0-.86-.36,3.67-10.36-.29-19-3.17-28.51-2.74-9.07,1.94-15.77,8.06-20.66C226.37,236.59,227.59,235.44,225.79,238.9Z"/><polygon class="cls-1" points="163.3 292.54 174.6 292.54 174.6 308.95 189.22 292.54 202.46 292.54 183.24 314.21 202.68 335.66 189.36 335.66 176.26 321.05 174.6 322.49 174.6 335.66 163.3 335.66 163.3 292.54"/><polygon class="cls-1" points="233.64 292.54 244.66 292.54 244.66 335.66 234.58 335.66 218.3 311.76 218.3 335.66 207.14 335.66 207.14 292.54 217.37 292.54 233.64 316.3 233.64 292.54"/><polygon class="cls-1" points="249.84 292.54 260.86 292.54 269.21 313.7 277.78 292.54 288.65 292.54 269.42 338.47 268.34 338.47 249.84 292.54"/><path class="cls-1" d="M309.53,335.38c7.41-.15,11.23-1.95,13.39-4.18s3.67-4.61,3.67-8c0-4.25-1.15-7.63-5.25-9.65,1.29-1,4-2.88,4-9,0-5.18-3.68-11.52-15.77-11.95v9.57H310c2.3,0,5,.87,5,3.17,0,2.67-2.23,3.82-5.33,3.82h-.14v9.36h1.37c2.16,0,5.18.93,5.18,3.45,0,2.81-2.52,4-5.47,4h-1.08Zm-15.55,0h15.55V326h-5.11l-.29-7.49h5.4v-9.36h-5.11l-.29-7h5.4v-9.57c-.43,0-.87-.07-1.37-.07H294Z"/></g></g></svg>