<svg xmlns="http://www.w3.org/2000/svg" viewBox="0 0 224.06 224.14"><defs><style>.cls-1{fill:#deae26;}.cls-1,.cls-2,.cls-3,.cls-4,.cls-5,.cls-6,.cls-7,.cls-8{fill-rule:evenodd;}.cls-2{fill:#f6cd28;}.cls-3{fill:#253d80;}.cls-4{fill:#fff;}.cls-5{fill:#cfd1d2;}.cls-6{fill:#252c62;}.cls-7{fill:#2e6eac;}.cls-8{fill:#eabf23;}</style></defs><title>Eszköz 1</title><g id="Réteg_2" data-name="Réteg 2"><g id="Layer_1" data-name="Layer 1"><polygon class="cls-1" points="76.61 224.14 78.05 222.12 78.55 221.33 79.06 220.46 79.7 219.67 80.21 218.81 80.71 217.8 81.29 217.01 81.79 216.07 82.3 215.21 82.8 214.34 83.3 213.34 83.81 212.47 84.31 211.54 84.74 210.6 85.18 209.66 85.68 208.73 86.04 207.79 86.47 206.86 86.83 205.92 87.26 204.98 87.55 204.05 87.84 203.11 88.13 202.18 88.49 201.31 88.7 200.38 88.92 199.44 89.06 198.5 89.28 197.64 89.42 196.78 89.57 195.84 89.64 194.98 89.64 194.69 87.48 194.11 84.74 193.25 82.01 192.24 79.34 191.23 76.75 190.08 74.09 188.86 71.57 187.56 69.12 186.19 66.67 184.75 64.22 183.17 61.92 181.58 59.69 179.93 57.46 178.13 55.3 176.33 53.21 174.46 51.19 172.44 49.18 170.42 47.3 168.34 45.5 166.18 43.7 164.02 42.05 161.71 40.46 159.41 38.95 157.03 37.44 154.58 36 152.06 34.7 149.54 33.48 146.95 32.4 144.36 31.32 141.7 30.38 138.96 29.52 136.22 28.87 133.92 28.08 133.92 27.29 133.99 26.42 133.99 25.49 134.14 24.62 134.21 23.76 134.35 22.82 134.57 21.96 134.78 21.02 135.07 20.09 135.29 19.15 135.65 18.22 135.94 17.35 136.3 16.42 136.73 15.48 137.09 14.54 137.52 13.68 138.02 12.74 138.46 11.88 138.96 11.02 139.46 10.15 139.97 9.29 140.54 8.5 141.12 7.63 141.7 6.84 142.27 6.05 142.85 5.33 143.42 4.54 144.07 3.89 144.65 3.17 145.3 2.52 145.94 1.87 146.59 0 148.61 0 76.46 2.02 77.9 2.81 78.55 3.6 79.13 4.39 79.7 5.26 80.28 6.05 80.86 6.84 81.43 7.63 82.01 8.42 82.51 9.22 83.09 10.01 83.59 10.8 84.1 11.59 84.6 12.38 85.03 13.25 85.54 14.04 85.97 14.83 86.4 15.62 86.76 16.42 87.12 17.21 87.48 18 87.84 18.79 88.13 19.58 88.42 20.45 88.7 21.24 88.92 22.03 89.14 22.82 89.28 23.69 89.42 24.48 89.57 25.34 89.64 26.21 89.64 27 89.71 28.73 89.71 29.38 87.41 30.24 84.67 31.18 81.94 32.26 79.2 33.34 76.54 34.56 73.94 35.86 71.42 37.22 68.9 38.74 66.46 40.25 64.08 41.98 61.7 43.56 59.4 45.29 57.17 47.16 55.01 49.03 52.92 51.05 50.83 53.06 48.89 55.15 46.94 57.31 45.14 59.54 43.34 61.85 41.69 64.15 40.03 66.6 38.52 69.12 37.01 71.5 35.64 74.09 34.34 76.75 33.12 79.27 31.97 82.01 30.89 84.74 29.95 87.48 29.09 89.78 28.44 89.78 28.22 89.71 27.29 89.71 26.42 89.64 25.56 89.5 24.7 89.35 23.83 89.21 22.97 88.99 22.18 88.85 21.31 88.56 20.45 88.2 19.58 87.91 18.79 87.55 17.93 87.26 17.14 86.83 16.27 86.4 15.41 86.04 14.62 85.68 13.75 85.1 12.96 84.67 12.1 84.24 11.3 83.66 10.44 83.16 9.65 82.66 8.78 82.08 7.92 81.5 7.13 81 6.26 80.35 5.47 79.85 4.61 79.2 3.74 78.62 2.88 78.05 2.09 76.61 0 148.82 0 146.59 2.02 145.87 2.74 145.15 3.46 144.43 4.18 143.78 4.9 143.06 5.69 142.49 6.41 141.84 7.2 141.26 7.99 140.62 8.78 140.11 9.58 139.54 10.44 139.03 11.23 138.53 12.1 138.1 12.89 137.66 13.75 137.23 14.62 136.8 15.48 136.44 16.34 136.15 17.21 135.79 18.07 135.5 18.94 135.22 19.8 135 20.74 134.78 21.6 134.64 22.46 134.42 23.33 134.35 24.26 134.21 25.13 134.14 25.99 134.06 26.93 134.06 27.79 134.06 28.44 136.37 29.09 139.1 29.95 141.84 30.89 144.58 31.97 147.17 33.05 149.83 34.27 152.35 35.64 154.87 37.01 157.32 38.45 159.7 40.03 162.07 41.62 164.3 43.34 166.54 45.07 168.7 46.94 170.86 48.89 172.87 50.83 174.82 52.85 176.76 55.01 178.56 57.17 180.36 59.4 182.02 61.7 183.67 64.01 185.18 66.46 186.7 68.9 188.06 71.42 189.36 73.94 190.58 76.54 191.66 79.2 192.74 81.94 193.68 84.67 194.54 87.41 195.19 89.71 195.34 89.71 196.2 89.64 196.99 89.64 197.86 89.57 198.72 89.42 199.58 89.28 200.45 89.14 201.31 88.92 202.18 88.7 203.11 88.42 203.98 88.13 204.84 87.84 205.7 87.48 206.57 87.12 207.43 86.76 208.37 86.33 209.23 85.97 210.1 85.46 210.96 85.03 211.82 84.6 212.69 84.1 213.55 83.59 214.42 83.09 215.28 82.51 216.14 82.01 217.01 81.43 217.87 80.86 218.74 80.28 219.6 79.7 220.39 79.13 221.26 78.55 222.05 77.9 224.06 76.46 224.06 148.68 222.12 146.45 221.47 145.73 220.75 145.08 220.03 144.36 219.24 143.71 218.45 143.06 217.66 142.42 216.79 141.84 215.93 141.19 215.06 140.69 214.13 140.11 213.26 139.61 212.33 139.1 211.39 138.6 210.46 138.1 209.52 137.66 208.51 137.23 207.58 136.87 206.57 136.51 205.63 136.15 204.62 135.79 203.69 135.5 202.75 135.22 201.74 135 200.81 134.78 199.87 134.57 198.94 134.42 198 134.28 197.14 134.14 196.2 134.06 195.34 133.99 195.05 133.99 194.47 136.22 193.54 138.96 192.6 141.7 191.52 144.36 190.44 147.02 189.22 149.54 187.85 152.14 186.48 154.58 185.04 157.03 183.53 159.41 181.87 161.78 180.22 164.02 178.42 166.25 176.62 168.41 174.67 170.5 172.73 172.51 170.71 174.46 168.62 176.4 166.46 178.2 164.23 179.93 161.93 181.66 159.62 183.24 157.25 184.75 154.8 186.26 152.28 187.63 149.76 188.93 147.17 190.15 144.5 191.23 141.84 192.31 139.1 193.25 136.37 194.11 134.14 194.76 134.14 195.05 134.21 195.98 134.35 196.85 134.5 197.78 134.64 198.72 134.78 199.66 135 200.66 135.22 201.6 135.5 202.61 135.79 203.54 136.08 204.55 136.37 205.56 136.73 206.5 137.09 207.5 137.52 208.44 137.95 209.45 138.38 210.38 138.82 211.32 139.32 212.26 139.82 213.12 140.33 214.13 140.9 214.92 141.48 215.93 142.06 216.79 142.63 217.58 143.28 218.45 143.93 219.17 144.58 220.03 145.22 220.68 145.94 221.47 146.66 222.12 148.75 224.14 76.61 224.14"/><path class="cls-2" d="M78.05,223.42c6.12-8.79,11.81-19.8,12.38-29.24a85.51,85.51,0,0,1-61-61H28.08c-9.29,0-20.95,6.48-27.36,13.54V77.9C9.5,84.38,17.71,90.43,27,90.43h2.3A85.54,85.54,0,0,1,90.5,29v-.8c0-9.72-6-18.28-12.45-27.43h68.83c-8.35,7.35-13.54,17.28-13.54,27V29a85.4,85.4,0,0,1,61.28,61.41h.72c9.28,0,19.22-6.05,28-12.53v68.84c-6.91-8.14-19.58-13.32-28.87-13.54a85.34,85.34,0,0,1-61.13,61c.44,9.58,5.55,22,13.54,29.24Z"/><path class="cls-3" d="M87.48,5.69C91.8,13.18,95.69,20.23,96.41,28A101.82,101.82,0,0,1,112,26.78a94.56,94.56,0,0,1,15.63,1.3,38,38,0,0,1,9.72-22.39Z"/><path class="cls-3" d="M87.48,218.09c4.32-7.56,8.21-14.69,8.93-22.47A100.58,100.58,0,0,0,112,196.85a93.49,93.49,0,0,0,15.63-1.3,38.35,38.35,0,0,0,9.72,22.54Z"/><path class="cls-2" d="M90.5,159.48V113.26h42.84v46.22A51.69,51.69,0,0,1,112,164,52.27,52.27,0,0,1,90.5,159.48Z"/><path class="cls-4" d="M188.71,90.43a79.59,79.59,0,0,0-153.43,0h23a57.78,57.78,0,0,1,107.49,0Z"/><path class="cls-4" d="M112,191.16a79.59,79.59,0,0,0,76.54-58h-23a57.72,57.72,0,0,1-107.07,0H35.35A79.63,79.63,0,0,0,112,191.16Z"/><path class="cls-2" d="M112,169.34A57.74,57.74,0,1,0,54.22,111.6,57.88,57.88,0,0,0,112,169.34Z"/><path class="cls-2" d="M90.5,58v52.92h42.84v-53a58.43,58.43,0,0,0-21.31-4A57.69,57.69,0,0,0,90.5,58Z"/><path class="cls-3" d="M57.82,81.72l.28.14-2.66,5.26L55.08,87l.22-.36a1.06,1.06,0,0,0,.07-1,2.41,2.41,0,0,0-1.08-.87l-8-4.17a2.92,2.92,0,0,0-1.3-.36.91.91,0,0,0-.79.65l-.22.36-.29-.15,2.67-5.25.36.14-.22.36a1.06,1.06,0,0,0-.07,1,2.29,2.29,0,0,0,1.08.86l8,4.18a2.92,2.92,0,0,0,1.3.36c.36,0,.57-.29.86-.65Z"/><path class="cls-3" d="M55.73,74.09l3.45,2.37a1.49,1.49,0,0,0,1.16.44c.36-.08.57-.29.86-.72l.14-.15.29.15L58.18,81l-.29-.14.14-.15a2.26,2.26,0,0,0,.43-1.15c0-.29-.36-.58-.79-.86l-4.39-3.1V72.29l1.87,1.37.36-.51a2.31,2.31,0,0,0,.51-2,3.79,3.79,0,0,0-1.44-1.66,3.63,3.63,0,0,0-1.3-.65V66.67c.07,0,.14-.07.22-.07a3.8,3.8,0,0,1,2.73.65A3.27,3.27,0,0,1,57.53,69a3.49,3.49,0,0,1-.15,2.23l5,.57a3.13,3.13,0,0,0,2.23-.28l.22.14-1.94,2.81L56,73.66l-.29.43ZM53.28,75.6V72.29l-2.88-2,.29-.36a3.27,3.27,0,0,1,1-1,1.71,1.71,0,0,1,1.22-.22.56.56,0,0,1,.36.07V66.67a4.85,4.85,0,0,0-2.59,2.09l-3.31,4.68.28.22.15-.15a1.72,1.72,0,0,1,.86-.79,1.89,1.89,0,0,1,1.15.43Z"/><path class="cls-3" d="M69.34,66.67l.21.29-4,4.32-.22-.22.22-.28c.29-.36.5-.65.43-1a4.46,4.46,0,0,0-.86-1.08l-6.63-6.12a2.63,2.63,0,0,0-1.15-.72,1.08,1.08,0,0,0-1,.43l-.21.29-.29-.22,4-4.39.22.29-.22.21a1.25,1.25,0,0,0-.36,1,2.94,2.94,0,0,0,.79,1.15l6.63,6.05a2.36,2.36,0,0,0,1.15.72c.36.07.65-.07,1.08-.43Z"/><path class="cls-3" d="M67.82,51.05l2.81,3.24-.36.21a4.28,4.28,0,0,0-2.52-1.08,3.37,3.37,0,0,0-2.73.8,2.75,2.75,0,0,0-.94,1.51,1.51,1.51,0,0,0,.43,1.51,1.7,1.7,0,0,0,1.15.65A7.8,7.8,0,0,0,68,57.38a12.81,12.81,0,0,1,2.81-.72,3.7,3.7,0,0,1,1.94.22,4.36,4.36,0,0,1,1.73,1.3,3.65,3.65,0,0,1,.86,3A4.53,4.53,0,0,1,73.66,64a8.33,8.33,0,0,1-2.52,1.22,1.36,1.36,0,0,0-.65.29c-.36.22-.43.65-.22,1.15L70,67l-3-3.82.29-.21a5.24,5.24,0,0,0,3,1.51,3.91,3.91,0,0,0,2.81-.86,2.7,2.7,0,0,0,1.15-1.66,2,2,0,0,0-.43-1.66,2.4,2.4,0,0,0-1.51-.79A9.3,9.3,0,0,0,69.7,60a14.62,14.62,0,0,1-2.6.64,4,4,0,0,1-1.8-.21,4.74,4.74,0,0,1-1.51-1.23,3.25,3.25,0,0,1-.79-2.8,3.44,3.44,0,0,1,1.51-2.67,4.68,4.68,0,0,1,2.31-1,7.88,7.88,0,0,0,.93-.28c.29-.29.22-.65-.14-1.23Z"/><path class="cls-3" d="M81.94,50.69l-4.32,2.23,2,3.82a2,2,0,0,0,.79,1.08,1.17,1.17,0,0,0,1.08-.08l.22-.14.22.29-5.12,2.66-.07-.29.15-.14a1.28,1.28,0,0,0,.72-.79A3.27,3.27,0,0,0,77.18,58L73,50A4.42,4.42,0,0,0,72.29,49a1.12,1.12,0,0,0-1.15.07l-.22.07-.14-.28,5-2.67.14.36-.29.15a1,1,0,0,0-.57.79,3.88,3.88,0,0,0,.28,1.29l1.88,3.46L81.58,50l-1.73-3.46a2.46,2.46,0,0,0-.94-1.08,1.2,1.2,0,0,0-1.08.07l-.21.15-.15-.29,5.11-2.66.15.28-.22.15a1.19,1.19,0,0,0-.79.79,3.22,3.22,0,0,0,.43,1.37l4.11,8a2.15,2.15,0,0,0,.93,1c.22.21.58.14,1-.07l.29-.15.14.36L83.52,57l-.14-.28.21-.15c.51-.21.72-.43.72-.79A2.63,2.63,0,0,0,84,54.5Z"/><path class="cls-3" d="M93.74,40,95,45.36l.43-.07a1.83,1.83,0,0,0,1.51-1.23,3.78,3.78,0,0,0,.15-2l.28-.07,1.52,6.26-.36.07c-.51-1.87-1.52-2.66-3-2.3l-.36.07,1.08,4.1c.15.58.22,1,.51,1.23a1,1,0,0,0,1.08.14l.43-.07.07.29-5.9,1.44-.08-.36.44-.07c.5-.15.72-.29.79-.65a2.35,2.35,0,0,0-.07-1.37l-1.95-8.71c-.29-.79-.5-1.23-.72-1.37a1.58,1.58,0,0,0-1-.07l-.36.07-.07-.36,9.29-2.16.86,3.53-.21.07c-.72-1.87-1.8-2.59-3.67-2.16Z"/><path class="cls-3" d="M114.55,43.85a7.21,7.21,0,0,1-1.73,4.89,5.52,5.52,0,0,1-4.46,1.95V50a2.68,2.68,0,0,0,2.38-1.66,9.71,9.71,0,0,0,.86-4.46,10.3,10.3,0,0,0-.86-4.68,2.76,2.76,0,0,0-2.38-1.66v-.64a5.46,5.46,0,0,1,4.39,1.94,7.12,7.12,0,0,1,1.8,5Zm-6.19,6.84V50a2.62,2.62,0,0,1-2.38-1.8,10,10,0,0,1-.79-4.46,9.71,9.71,0,0,1,.87-4.54,2.79,2.79,0,0,1,2.3-1.66v-.64a6.07,6.07,0,0,0-3,.72A5.86,5.86,0,0,0,103.1,40a7.39,7.39,0,0,0-.86,3.82,7.19,7.19,0,0,0,.86,3.81,5.8,5.8,0,0,0,2.24,2.31A5.93,5.93,0,0,0,108.36,50.69Z"/><path class="cls-3" d="M128.45,45.36A7.46,7.46,0,0,1,126.14,50a5.41,5.41,0,0,1-3.88,1.44v-.72a3.37,3.37,0,0,0,1.8-1.3,9.21,9.21,0,0,0,1.36-4.32,9.8,9.8,0,0,0-.28-4.75A2.79,2.79,0,0,0,123,38.38a2.48,2.48,0,0,0-.72.07v-.79h.79a6.07,6.07,0,0,1,4.25,2.52,7.23,7.23,0,0,1,1.15,5.18Zm-6.19,6v-.72a1.54,1.54,0,0,1-.8,0c-1-.07-1.65-.79-2.08-2a9.93,9.93,0,0,1-.29-4.53,9,9,0,0,1,1.44-4.4,2.64,2.64,0,0,1,1.73-1.29v-.79a5.74,5.74,0,0,0-2.16.43,5.39,5.39,0,0,0-2.6,2,7.69,7.69,0,0,0-1.44,3.68,7.6,7.6,0,0,0,.51,3.88,5.94,5.94,0,0,0,1.94,2.6,6.43,6.43,0,0,0,2.95,1.08A3.1,3.1,0,0,0,122.26,51.41Z"/><path class="cls-3" d="M141.77,43.2l-1.15,3.31-.29-.14c.43-1.8-.07-2.95-1.37-3.39l-1-.36-3.53,9.72a2.71,2.71,0,0,0-.21,1.37,1.13,1.13,0,0,0,.79.72l.36.15-.07.36-5.69-2.09.14-.29.36.14a1,1,0,0,0,.94,0c.29-.07.58-.5.86-1.22l3.46-9.79-1.08-.36a2.18,2.18,0,0,0-1.15-.15,3.11,3.11,0,0,0-1.08.65,4.12,4.12,0,0,0-.87,1.3l-.36-.15,1.23-3.24Z"/><path class="cls-3" d="M147.31,53.21a3.85,3.85,0,0,1,1.44,2,2.92,2.92,0,0,1-.21,2.45A3.26,3.26,0,0,1,147,59.11c-.07.07-.14.07-.21.15v-7.2A.24.24,0,0,0,147,52a2.41,2.41,0,0,0,1.52-1.44A3.07,3.07,0,0,0,149,49a1.73,1.73,0,0,0-.36-1.15,3.47,3.47,0,0,0-1.08-.86l-.29-.15-.43.65V45.86l2,1.08a4.78,4.78,0,0,1,2.45,2.31,3,3,0,0,1-.14,2.59,3.09,3.09,0,0,1-1.51,1.37,4.29,4.29,0,0,1-2.31,0Zm-.5,6v-7.2a2.44,2.44,0,0,1-1.87-.44l-.22-.07,2.09-4V45.86l-2.67-1.44v.36a1.59,1.59,0,0,1,.44.58,2.43,2.43,0,0,1-.36,1.51l-.08.07v5.69l.22-.5.22.14a2.57,2.57,0,0,1,1.65,1.95,3.27,3.27,0,0,1-.36,2.16,2.91,2.91,0,0,1-1.51,1.44c-.07.07-.14.07-.22.14v1.3c.29.07.58.14.94.21a3.59,3.59,0,0,0,1.73-.21Zm-2.67,0c-.43-.15-.79-.29-1.15-.44l-5.47-3,.22-.29.28.15a1.06,1.06,0,0,0,1,.07,3.1,3.1,0,0,0,.94-1l4.17-7.85v5.69l-1.87,3.46a1.85,1.85,0,0,0-.36,1c.07.28.29.43.58.64a2.25,2.25,0,0,0,1.65.22v1.3Zm0-14.48c-.07,0-.14-.07-.21-.07l-.22-.14.15-.29.28.14Z"/><path class="cls-3" d="M154.22,62.28l-.07-.14v-.87l.36.29,1.66-4.39-2,1.15V57.6l5.69-3.31.14.14-4.17,11c-.43,1.29-.43,2.16,0,2.59l-.22.29L154.15,67V62.57l.07-.29ZM152.78,66,154.15,67V62.57l-.72,1.8a1,1,0,0,1-.29.57c-.14.15-.21.22-.36.22V66Zm0-4.89,1.37,1.08v-.87l-1.37-1.08v.87Zm0-2,1.37-.79V57.6l-1.37.79Zm0-.72v.72l-.72.36.72.72v.87l-1.36-1.16-1.37.8a2,2,0,0,0-.72.5.9.9,0,0,0-.22.79,1.91,1.91,0,0,0,.72.94l-.21.29-2.88-2.45.28-.22c.58.43,1.59.22,3.17-.65l2.59-1.51Zm0,6.77V66l-1.29-1.15.21-.29.15.15A1.35,1.35,0,0,0,152.78,65.16Z"/><path class="cls-3" d="M166,74l-3.74,2.52L156,68.62l.29-.22.36.43c.29.36.58.58.94.51a2.58,2.58,0,0,0,1.22-.58l7-5.62a3.57,3.57,0,0,0,.94-1.08,1.16,1.16,0,0,0-.29-1l-.36-.44.29-.21,4,5-.29.21-.5-.57c-.29-.36-.58-.58-.86-.51a2.08,2.08,0,0,0-1.23.65l-6.91,5.47c-.5.44-.79.72-.86.94s0,.5.28.94l.72.86a3.77,3.77,0,0,0,1.16,1,4,4,0,0,0,1.65.14,8.31,8.31,0,0,0,2.38-.79Z"/><path class="cls-3" d="M172.15,84.53l-4.1,1.87-5-8.86.29-.14.29.5a1.26,1.26,0,0,0,.86.65,3.29,3.29,0,0,0,1.3-.43l7.84-4.39a3.1,3.1,0,0,0,1-.94,1,1,0,0,0-.07-1l-.29-.5.29-.22,3.17,5.69-.29.22-.36-.72a1,1,0,0,0-.86-.65A3.29,3.29,0,0,0,175,76l-7.7,4.32a2.54,2.54,0,0,0-1,.79c-.15.22-.07.51.14.94L167,83a3.62,3.62,0,0,0,1,1.22,2.56,2.56,0,0,0,1.58.43,8.71,8.71,0,0,0,2.45-.43Z"/><path class="cls-3" d="M56,151.85l6.4-2.23.15.14-6.19,10.08c-.15.14-.22.36-.36.5v-5l2.23-3.6-2.23.8v-.65Zm-.58,4.53-1.22,1.88a2,2,0,0,1-.36.5c-.36.29-.8.14-1.23-.5l-.14-.15-.29.22,3.38,4.25.22-.22c-.29-.43-.22-1.08.22-2v-5l-.22.44-2-2.52L56,152.5v-.65l-4.18,1.44q-2.49.86-3.24,0l-.29.21,2.31,2.88.36-.21a2,2,0,0,1-.58-1.08.86.86,0,0,1,.36-.72,3.71,3.71,0,0,1,.79-.36l1.66-.51Z"/><path class="cls-3" d="M72.86,160.13l-2.73,3.24-.29-.15a4.62,4.62,0,0,0,.72-2.73,3.75,3.75,0,0,0-1.3-2.52,2.85,2.85,0,0,0-1.65-.65,1.51,1.51,0,0,0-1.37.65,1.31,1.31,0,0,0-.5,1.29,9.23,9.23,0,0,0,.93,2.24A12.91,12.91,0,0,1,67.82,164a3.83,3.83,0,0,1,.15,2A3.57,3.57,0,0,1,67,168a3.78,3.78,0,0,1-2.81,1.44,5,5,0,0,1-3.16-1.3A7.56,7.56,0,0,1,59.47,166a2.14,2.14,0,0,0-.36-.65c-.29-.29-.65-.21-1.22.07l-.29-.21,3.17-3.67.21.21a5.58,5.58,0,0,0-.86,3.24,3.56,3.56,0,0,0,1.37,2.59,2.78,2.78,0,0,0,1.8.87,2.09,2.09,0,0,0,2-2.31,7.45,7.45,0,0,0-.93-2.52,23.19,23.19,0,0,1-1.08-2.44,4.35,4.35,0,0,1,.79-3.53,3.89,3.89,0,0,1,5.47-.36,5.73,5.73,0,0,1,1.51,2.16c.15.5.29.79.44.86.28.29.72.15,1.08-.36Z"/><path class="cls-3" d="M81.22,166l-2.31,3.67-.29-.14a4.65,4.65,0,0,0,.22-2.81,3.33,3.33,0,0,0-1.58-2.3,2.54,2.54,0,0,0-1.73-.44,2.06,2.06,0,0,0-1.37.87,2.2,2.2,0,0,0-.22,1.37,7.5,7.5,0,0,0,1.3,2,20.63,20.63,0,0,1,1.58,2.38,6.11,6.11,0,0,1,.36,2,5.08,5.08,0,0,1-.64,2,3.72,3.72,0,0,1-2.6,1.8,4.51,4.51,0,0,1-3.24-.79,7,7,0,0,1-1.94-2,2.36,2.36,0,0,0-.5-.57c-.36-.22-.65-.15-1.23.21l-.29-.14,2.6-4.1.28.21a6,6,0,0,0-.36,3.31A3.59,3.59,0,0,0,70.92,175a3.06,3.06,0,0,0,1.94.58,1.61,1.61,0,0,0,1.37-.94,2,2,0,0,0,.29-1.66,7.83,7.83,0,0,0-1.3-2.3c-.64-.94-1.08-1.73-1.36-2.23a3.05,3.05,0,0,1-.36-1.8,2.9,2.9,0,0,1,.64-1.8,3.72,3.72,0,0,1,5.33-1.15,5.22,5.22,0,0,1,1.8,1.94c.29.36.51.65.58.72.29.22.65.07,1-.5Z"/><path class="cls-3" d="M92.09,178.13A7.08,7.08,0,0,1,88.85,182a7.67,7.67,0,0,1-2.52.64V181.3a2,2,0,0,1,.5-.36,9,9,0,0,0,2.45-3.82,10.86,10.86,0,0,0,.94-4.75A2.69,2.69,0,0,0,88.7,170a2.79,2.79,0,0,0-2.37.29v-1.37a7.32,7.32,0,0,1,2.52.43,5.5,5.5,0,0,1,3.45,3.46,6.6,6.6,0,0,1-.21,5.33Zm-5.76,4.53V181.3a2.49,2.49,0,0,1-2.23.28c-1-.36-1.44-1.22-1.52-2.52a9.68,9.68,0,0,1,.8-4.46,10.45,10.45,0,0,1,2.44-4,3.21,3.21,0,0,0,.51-.36v-1.37c-.15,0-.29.07-.51.07a6.26,6.26,0,0,0-3,1.3,8.56,8.56,0,0,0-2.23,3.24,8.11,8.11,0,0,0-.58,3.82,5.94,5.94,0,0,0,3.82,4.82A6.79,6.79,0,0,0,86.33,182.66Z"/><path class="cls-3" d="M106.63,174l-.79,4.32-.29-.07a4.47,4.47,0,0,0-.86-2.88,3.35,3.35,0,0,0-2-1.3,2.56,2.56,0,0,0-1.87.36A3.74,3.74,0,0,0,99.14,176a8.5,8.5,0,0,0-1.22,3.31,9.41,9.41,0,0,0,.22,4.68,3,3,0,0,0,2.37,1.87,3.22,3.22,0,0,0,2.16-.28,5.47,5.47,0,0,0,1.87-1.44l-.21,1.08a5.26,5.26,0,0,1-4.61,1.36,5.48,5.48,0,0,1-4-2.73A7.64,7.64,0,0,1,95,179a7.16,7.16,0,0,1,2.73-4.61,5.39,5.39,0,0,1,4.47-1.29,6.62,6.62,0,0,1,2.37,1.08,1.56,1.56,0,0,0,.87.43c.43.07.72-.14.93-.72Z"/><path class="cls-3" d="M115,186.91v.36h-5.83v-.36h.36a1.14,1.14,0,0,0,.94-.36,2.33,2.33,0,0,0,.29-1.37v-9a2.29,2.29,0,0,0-.29-1.36,1.14,1.14,0,0,0-.94-.36h-.36v-.36H115v.36h-.43c-.43,0-.79.07-.93.36a2.22,2.22,0,0,0-.29,1.36v9a2.25,2.25,0,0,0,.29,1.37,1.11,1.11,0,0,0,.93.36Z"/><path class="cls-3" d="M124.42,182.16l-2,.36v-.72l1.59-.29-1.59-2.66v-5.11l5.47,9.21c.65,1.15,1.37,1.73,1.95,1.59l.07.36-5.26,1-.07-.36h.22c.72-.14,1.08-.43.93-.86a1.21,1.21,0,0,0-.21-.58l-1.15-1.94Zm-2,.36v-.72l-1.51.29.72-4.68.79,1.44v-5.11l-.5-1-.22.07-1.73,11c-.28,1.8-.79,2.73-1.51,2.88l.07.36,3.68-.72-.08-.29A2.19,2.19,0,0,1,121,186c-.22-.08-.36-.29-.43-.65a1.8,1.8,0,0,1,0-.87l.29-1.65Z"/><path class="cls-3" d="M138,168.62l1.15,3.32-.28.07c-.8-1.66-1.88-2.23-3.24-1.8l-1,.36,3.38,9.86a2.39,2.39,0,0,0,.72,1.15,1,1,0,0,0,1,.08l.43-.15.07.29-5.68,2-.08-.36.44-.15a1,1,0,0,0,.72-.57c.14-.22.07-.72-.15-1.44l-3.38-9.8-1.15.36a2.33,2.33,0,0,0-.94.58,2.39,2.39,0,0,0-.43,1.22,4.12,4.12,0,0,0,.07,1.59l-.29.07L128.16,172Z"/><path class="cls-3" d="M151.06,176.11l.21.29L146,179.21l-.15-.29.36-.22a1.31,1.31,0,0,0,.65-.79,2.92,2.92,0,0,0-.43-1.29l-4.25-7.92a3.53,3.53,0,0,0-.94-1.08c-.28-.15-.57-.08-1,.14l-.36.14-.15-.28,5.19-2.81.14.29-.29.14c-.43.29-.65.5-.72.86a3.47,3.47,0,0,0,.43,1.3l4.32,7.92a2.82,2.82,0,0,0,.87,1.08,1.25,1.25,0,0,0,1.08-.14Z"/><path class="cls-3" d="M160.56,161.35a7.14,7.14,0,0,1,1.44,4.9,5.67,5.67,0,0,1-2.52,4.25,8.09,8.09,0,0,1-2.95,1.15h-1v-2.16a4.16,4.16,0,0,1,.58.43,2.59,2.59,0,0,0,3,.07,2.77,2.77,0,0,0,1-2.73,9.37,9.37,0,0,0-1.88-4.11,13.33,13.33,0,0,0-2.66-2.88v-2.09a2.21,2.21,0,0,1,.72.08,7,7,0,0,1,4.32,3.09Zm-5,10.3v-2.16a10.57,10.57,0,0,1-2.66-2.74,9.79,9.79,0,0,1-2-4.25,2.66,2.66,0,0,1,1-2.66,2.48,2.48,0,0,1,2.81,0c.29.14.5.29.79.43v-2.09a5.86,5.86,0,0,0-4,1.08,5.54,5.54,0,0,0-2,2.31,5.33,5.33,0,0,0-.57,3.24,7.08,7.08,0,0,0,1.44,3.67,7.47,7.47,0,0,0,3,2.52A6.15,6.15,0,0,0,155.52,171.65Z"/><path class="cls-3" d="M159.48,152h10.8l-4.82-3.67a2.49,2.49,0,0,0-1.59-.79c-.36,0-.72.21-1.15.79l-.29-.22,2.31-2.95.28.22a1.56,1.56,0,0,0-.36.79,1.46,1.46,0,0,0,.22.79,5.25,5.25,0,0,0,.94.87l8.64,6.62-.22.22-13.82.07,6.76,5.25a4.43,4.43,0,0,0,1,.51,1,1,0,0,0,.79-.07,3.88,3.88,0,0,0,.8-.8l.28.22-2.52,3.24-.21-.22a2,2,0,0,0,.36-1.29c0-.36-.29-.72-.87-1.15l-7.41-5.69H159a1.91,1.91,0,0,0-1.59.5l-.29-.21Z"/><path class="cls-2" d="M.72,77.9C9.5,84.38,17.71,90.43,27,90.43H195.34c9.28,0,19.22-6.05,28-12.53v68.84c-7.05-8.36-20.16-13.54-29.44-13.54H28.08c-9.29,0-20.95,6.48-27.36,13.54Z"/><path class="cls-3" d="M96.55,62.28V106h31V62.35A56.25,56.25,0,0,0,112,60.19,57.35,57.35,0,0,0,96.55,62.28Z"/><path class="cls-5" d="M112.75,171.07A57.88,57.88,0,0,0,167,133.2h-1.51a57.75,57.75,0,0,1-104.83,5,57.75,57.75,0,0,0,52.05,32.9Zm53.14-80.64c-.58-1.29-1.15-2.52-1.8-3.74.57,1.22,1.15,2.45,1.65,3.74Z"/><path class="cls-2" d="M113.33,15.19l2.23-2.95c1.87-2.45-2-4.82-3.82-2.66-2.16-2.16-6.19-.08-3.38,3.38l1.94,2.45v.21a8.24,8.24,0,0,1-2.88-2.44c-1.94-2.38-5.11,1.22-2.8,3.38-2.24,2.16.36,6.05,3.6,3,.28-.29,2.66-2.23,2.66-2.37.22,0,.36,0,.36.21a10.83,10.83,0,0,1-.72,4.47c-.36.86-.58,2.23,1.3,2.23s1.58-1.37,1.29-2.23a10.7,10.7,0,0,1-.65-4.25c.08-.36,0-.51.36-.29a8.21,8.21,0,0,1,2.45,2.09c3.1,3.09,5.69-.65,3.46-2.81,2.3-2.16-.94-5.76-2.88-3.38a8,8,0,0,1-2.52,2.3Z"/><path class="cls-2" d="M113.33,207.94l2.23,2.95c1.87,2.37-2,4.82-3.82,2.59-2.16,2.23-6.19.14-3.38-3.31l1.94-2.45v-.22a9.18,9.18,0,0,0-2.88,2.45c-1.94,2.38-5.11-1.22-2.8-3.38-2.24-2.16.36-6,3.6-2.95.28.28,2.66,2.23,2.66,2.37.22,0,.36,0,.36-.21a10.83,10.83,0,0,0-.72-4.47c-.36-.86-.58-2.23,1.3-2.23s1.58,1.37,1.29,2.23a10.7,10.7,0,0,0-.65,4.25c.08.43,0,.5.36.29a8.21,8.21,0,0,0,2.45-2.09c3.1-3.1,5.69.65,3.46,2.81,2.3,2.16-.94,5.76-2.88,3.38a7.89,7.89,0,0,0-2.52-2.3Z"/><path class="cls-3" d="M6.19,87.41c8.35,4.68,16.13,9.07,25,9.07H192.89c8.85,0,16.63-4.39,25-9.07V137.3c-6.77-6-15.77-9.86-24.62-9.86H30.82c-8.86,0-17.86,3.82-24.63,9.86Z"/><path class="cls-3" d="M96.55,161.71V117.79h31v43.85A51.29,51.29,0,0,1,112,164,52.39,52.39,0,0,1,96.55,161.71Z"/><polygon class="cls-6" points="100.01 124.2 97.78 126.36 97.78 140.04 100.01 133.06 100.01 124.2"/><path class="cls-6" d="M123.19,100l2.23-2.16V62c-.72-.21-1.51-.36-2.23-.5Z"/><path class="cls-7" d="M100,100l-2.23-2.16V62.28c.72-.22,1.51-.43,2.23-.58Z"/><path class="cls-7" d="M100.08,99.94l-2.16-2.31H27.58C20.74,97.63,15,94.9,9.29,90c2.45,5.62,10.8,9.94,18.21,9.94Z"/><path class="cls-6" d="M100.08,124.27l-2.16,2.31H27.58c-6.84,0-12.6,2.73-18.29,7.63,2.45-5.62,10.8-9.94,18.21-9.94Z"/><path class="cls-7" d="M123.62,99.94l2.16-2.31h70.35c6.77,0,12.67-2.73,18.21-7.63-2.44,5.62-10.72,9.94-18.14,9.94Z"/><path class="cls-6" d="M123.62,124.27l2.16,2.31h70.35c6.77,0,12.67,2.73,18.21,7.63-2.44-5.62-10.72-9.94-18.14-9.94Z"/><path class="cls-2" d="M15.34,109.87l-3-2.23c-2.44-1.87-4.82,2-2.66,3.89-2.16,2.09,0,6.12,3.38,3.31l2.38-1.94h.29a9.18,9.18,0,0,1-2.45,2.88c-2.38,1.94,1.15,5.11,3.38,2.8,2.09,2.24,6.05-.36,3-3.6-.29-.28-2.31-2.66-2.38-2.66,0-.22,0-.36.22-.36a12.12,12.12,0,0,1,4.46.72c.86.36,2.16.58,2.23-1.22s-1.37-1.73-2.23-1.37a10.7,10.7,0,0,1-4.25.65c-.43-.08-.5,0-.36-.36a9.69,9.69,0,0,1,2.16-2.45c3.1-3.1-.72-5.69-2.81-3.46-2.23-2.3-5.76.94-3.38,2.88a7.21,7.21,0,0,1,2.3,2.52Z"/><path class="cls-2" d="M208.08,109.87l2.95-2.23c2.45-1.87,4.83,2,2.67,3.89,2.16,2.09.07,6.12-3.39,3.31l-2.37-1.94h-.29a9.06,9.06,0,0,0,2.45,2.88c2.37,1.94-1.23,5.11-3.39,2.8-2.09,2.24-6.05-.36-3-3.6.29-.28,2.3-2.66,2.38-2.66,0-.22,0-.36-.22-.36a12.09,12.09,0,0,0-4.46.72c-.87.36-2.16.58-2.24-1.22.08-1.95,1.37-1.73,2.24-1.37a10.65,10.65,0,0,0,4.24.65c.44-.08.51,0,.36-.36a9.5,9.5,0,0,0-2.16-2.45c-3.09-3.1.72-5.69,2.81-3.46,2.16-2.3,5.76.94,3.39,2.88a7.32,7.32,0,0,0-2.31,2.52Z"/><path class="cls-4" d="M188.64,118.44v-.86a3.19,3.19,0,0,0,1.37-1.23,9.9,9.9,0,0,0,.79-4.32,9.32,9.32,0,0,0-.86-4.46,3.76,3.76,0,0,0-1.3-1.3v-.86a5.09,5.09,0,0,1,1.8.5,4.71,4.71,0,0,1,2.09,2.16,7.4,7.4,0,0,1,.93,3.89,8.51,8.51,0,0,1-.5,3.1,4.71,4.71,0,0,1-1.37,2,3.91,3.91,0,0,1-1.73,1.15c-.36.08-.79.15-1.22.22Zm-54.29,0v-.36h.07v.36Zm0-4,2,4h3v-.36c-.36,0-.86-.5-1.37-1.58l-2.16-4.32a3.05,3.05,0,0,0,1.73-1.16,3.24,3.24,0,0,0,.58-2.08,3.72,3.72,0,0,0-.94-2.6,4.06,4.06,0,0,0-2.88-.93v.79a.28.28,0,0,0,.22.07,1.66,1.66,0,0,1,.86.87,5.29,5.29,0,0,1,.29,1.8,3.57,3.57,0,0,1-.5,2.08,1.56,1.56,0,0,1-.87.65v2.74Zm54.29-9a5.6,5.6,0,0,0-1.08-.07h-5v.36h.29a1.25,1.25,0,0,1,.94.36,3.42,3.42,0,0,1,.21,1.36v8.93a2.6,2.6,0,0,1-.29,1.44,1.12,1.12,0,0,1-.86.29h-.29v.36h6v-.86a2.87,2.87,0,0,1-1.08.14c-.5,0-.79-.07-.94-.29a2,2,0,0,1-.21-1.15V106.06h.86a4.28,4.28,0,0,1,1.37.21v-.86Zm-24.26,9.29v-.65h1.44l-1.44-4.39v-1.88l.86-2.66h.14l3.6,11c.44,1.29.94,1.94,1.44,1.94v.36H165.6v-.36h.22c.64,0,1-.22,1-.65a2.22,2.22,0,0,0-.14-.57L166,114.7Zm10-9.36,5.91,8.49v-6a3.17,3.17,0,0,0-.29-1.73,1.48,1.48,0,0,0-1.22-.43v-.36h3.38v.36a1.54,1.54,0,0,0-.86.21,1.35,1.35,0,0,0-.36.65,5.65,5.65,0,0,0-.08,1.3v10.72h-.28l-7.64-10.87v8.57a2.7,2.7,0,0,0,.15,1.15,1.17,1.17,0,0,0,.5.51,2.63,2.63,0,0,0,.94.14v.36h-3.6v-.36a1.49,1.49,0,0,0,1.08-.36,2,2,0,0,0,.36-1.44v-9.36c-.07-.07-.15-.22-.22-.29-.43-.65-.86-.93-1.22-.93v-.36Zm-10,2.44-2.52,7.78c-.58,1.66-1.16,2.52-1.8,2.52v.36h3.31v-.36a1.54,1.54,0,0,1-1-.22.91.91,0,0,1-.36-.79,2.5,2.5,0,0,1,.22-.79l.5-1.58h1.66v-.65h-1.44l1.44-4.39v-1.88ZM143.86,106v5.48h.21a1.5,1.5,0,0,0,1.08-.29,2,2,0,0,0,.58-.94,5.35,5.35,0,0,0,.36-1.8h.29v6.63h-.29a5.89,5.89,0,0,0-.36-1.88,1.39,1.39,0,0,0-.65-.86,2,2,0,0,0-1-.22h-.21v4.11a2.3,2.3,0,0,0,.21,1.22c.07.22.36.29.79.29h1c1.66,0,2.74-1.08,3.31-3.31h.22l-.43,4h-9v-.36h.36a1,1,0,0,0,.79-.29,2,2,0,0,0,.36-1.44v-8.93a2.16,2.16,0,0,0-.36-1.44,1,1,0,0,0-.79-.28H140v-.36h8.71v3.74h-.29a4.17,4.17,0,0,0-.57-1.87,2.12,2.12,0,0,0-.94-1,4.75,4.75,0,0,0-1.58-.22Zm15.62,8-.36,4.46H150v-.36h.5c.43,0,.72-.07.86-.36a2.25,2.25,0,0,0,.29-1.37v-8.93a2.35,2.35,0,0,0-.29-1.36,1,1,0,0,0-.86-.36H150v-.36h5.9v.36h-.72a1,1,0,0,0-.86.36,2.22,2.22,0,0,0-.29,1.36v8.79a2.5,2.5,0,0,0,.21,1.22c.08.22.36.36.8.36h1a2.71,2.71,0,0,0,1.37-.36,2.3,2.3,0,0,0,1-1.15,7.06,7.06,0,0,0,.79-2.3Zm-25.13-8.57v0Zm0,6.26v0Zm0,6.41v.36h0v-.36Zm-32,.36v-.36h0v.36Zm0-4,2,4h3v-.36c-.43,0-.86-.5-1.37-1.58l-2.16-4.32a3.05,3.05,0,0,0,1.73-1.16,3.49,3.49,0,0,0-3.17-5.61v.79a.25.25,0,0,0,.15.07,1.66,1.66,0,0,1,.86.87,5.29,5.29,0,0,1,.29,1.8,3.57,3.57,0,0,1-.5,2.08,1.22,1.22,0,0,1-.8.65v2.74Zm32-9.07H129.1v.36h.14a1.34,1.34,0,0,1,1,.28,1.64,1.64,0,0,1,.29,1.16v9.5a1.59,1.59,0,0,1-.29,1.15,1.3,1.3,0,0,1-1,.29h-.14v.36h5.25v-.36h-.14a1.4,1.4,0,0,1-1-.29,2,2,0,0,1-.29-1.15v-4.25h.51l.93,2v-2.67a3.14,3.14,0,0,1-.86.15h-.58v-5.76h.36a4.92,4.92,0,0,1,1.08.07v-.79Zm-23,0,5.83,8.49v-6a3.29,3.29,0,0,0-.28-1.73,1.49,1.49,0,0,0-1.23-.43v-.36H119v.36a1.6,1.6,0,0,0-.87.21,1.44,1.44,0,0,0-.36.65,6.45,6.45,0,0,0-.07,1.3v10.72h-.29l-7.56-10.87v8.57a2.7,2.7,0,0,0,.15,1.15,1.12,1.12,0,0,0,.5.51,2.54,2.54,0,0,0,.94.14v.36h-3.6v-.36a1.81,1.81,0,0,0,1.15-.36,2.59,2.59,0,0,0,.29-1.44v-9.36c-.08-.07-.15-.22-.22-.29-.43-.65-.86-.93-1.22-.93v-.36Zm17.21,12.74v.36h-5.33v-.36h.36c.43,0,.72-.07.87-.36a3.06,3.06,0,0,0,.28-1.37v-8.93a2.44,2.44,0,0,0-.28-1.36,1,1,0,0,0-.87-.36h-.36v-.36h5.33v.36h-.29a1.21,1.21,0,0,0-.93.36,3,3,0,0,0-.22,1.36v8.93a3.07,3.07,0,0,0,.22,1.37,1.11,1.11,0,0,0,.93.36Zm-26.14-12.67v.79l-.07-.07v-.79l.07.07Zm0,6.26v2.74l-.07-.07v-2.67Zm0,6.41v.36h-.07v-.36Zm-43.48.36v-.36h0v.36Zm0-4,1.94,4h3v-.36c-.36,0-.72-.5-1.36-1.58l-2.09-4.32a2.9,2.9,0,0,0,2.23-3.24,4.07,4.07,0,0,0-.86-2.6,4,4,0,0,0-2.88-.93v.79a.35.35,0,0,0,.21.07,2.46,2.46,0,0,1,.87.87,5.93,5.93,0,0,1,.21,1.8,4.24,4.24,0,0,1-.43,2.08,1.17,1.17,0,0,1-.86.65v2.74Zm43.41-9.07H97.06v.36h.14c.58,0,.79.07,1,.28a1.64,1.64,0,0,1,.29,1.16v9.5a1.59,1.59,0,0,1-.29,1.15c-.22.22-.43.29-1,.29h-.14v.36h5.25v-.36h-.07c-.58,0-.86-.07-1.08-.29a2,2,0,0,1-.29-1.15v-4.25h.51l.93,2v-2.67a3.08,3.08,0,0,1-.86.15h-.58v-5.76h.36a4.56,4.56,0,0,1,1.08.07v-.79Zm-28.44,0v3.45h-.21c-.22-1.8-1-2.73-2.31-2.73h-.86v10.29a3.25,3.25,0,0,0,.21,1.37.85.85,0,0,0,.8.36h.36v.36h-5.4v-.36h.43a1.22,1.22,0,0,0,.86-.29,2.81,2.81,0,0,0,.22-1.44V106.06H67a1.26,1.26,0,0,0-.94.28,1.56,1.56,0,0,0-.79.94,5.37,5.37,0,0,0-.43,1.51h-.22v-3.45Zm8.86,6.76H78.34v4.25a3.5,3.5,0,0,0,.14,1.37,1,1,0,0,0,.86.36h.36v.36H74.52v-.36h.22c.5,0,.72-.07.86-.36a3.22,3.22,0,0,0,.22-1.37v-8.93a3.39,3.39,0,0,0-.22-1.36c-.14-.22-.36-.36-.86-.36h-.22v-.36H79.7v.36h-.36a1,1,0,0,0-.86.36,3.45,3.45,0,0,0-.14,1.36v3.89h4.39v-3.89a3.23,3.23,0,0,0-.22-1.36,1.53,1.53,0,0,0-1-.36h-.21v-.36H86.4v.36h-.22a1.17,1.17,0,0,0-.86.36,3,3,0,0,0-.29,1.36v8.93a2.25,2.25,0,0,0,.29,1.37,1.17,1.17,0,0,0,.86.36h.22v.36H81.29v-.36h.21a1.24,1.24,0,0,0,1-.36,3.07,3.07,0,0,0,.22-1.37V112.1ZM90.86,106v5.48h.22a1.41,1.41,0,0,0,1.08-.29,2,2,0,0,0,.58-.94,4,4,0,0,0,.43-1.8h.21v6.63h-.21a4.34,4.34,0,0,0-.43-1.88,1.39,1.39,0,0,0-.65-.86,1.8,1.8,0,0,0-1-.22h-.22v4.11a2.27,2.27,0,0,0,.22,1.22c.07.22.43.29.79.29H93c1.66,0,2.67-1.08,3.31-3.31h.15l-.36,4h-9v-.36h.29a1,1,0,0,0,.79-.29,2,2,0,0,0,.43-1.44v-8.93a2.16,2.16,0,0,0-.43-1.44,1,1,0,0,0-.79-.28h-.29v-.36h8.64v3.74H95.4a4,4,0,0,0-.58-1.87,1.79,1.79,0,0,0-.93-1A4.49,4.49,0,0,0,92.3,106Zm-32-.57v.79l-.08-.07v-.79l.08.07Zm0,6.26v2.74l-.08-.07v-2.67Zm0,6.41v.36h-.08v-.36Zm-.08-12.74H53.57v.36h.14c.51,0,.87.07,1,.28a1.59,1.59,0,0,1,.29,1.16v9.5a1.55,1.55,0,0,1-.29,1.15c-.14.22-.5.29-1,.29h-.14v.36h5.25v-.36h-.07c-.5,0-.86-.07-1-.29a1.6,1.6,0,0,1-.28-1.15v-4.25h.43l.93,2v-2.67a2.58,2.58,0,0,1-.79.15h-.57v-5.76h.36a4.44,4.44,0,0,1,1,.07v-.79ZM47.09,118.73v-.65a2.41,2.41,0,0,0,2.09-1.66A10.83,10.83,0,0,0,50,112a11.38,11.38,0,0,0-.79-4.61c-.58-1.08-1.23-1.65-2.09-1.65v-.65a4.86,4.86,0,0,1,4,1.94,7.29,7.29,0,0,1,1.58,4.9,7.89,7.89,0,0,1-1.51,4.89,4.88,4.88,0,0,1-4,2ZM33,105.34l5.83,8.49v-6a3.17,3.17,0,0,0-.29-1.73,1.48,1.48,0,0,0-1.22-.43v-.36h3.38v.36a1.54,1.54,0,0,0-.86.21,1.35,1.35,0,0,0-.36.65,5.65,5.65,0,0,0-.08,1.3v10.72H39.1l-7.64-10.87v8.57a2.7,2.7,0,0,0,.15,1.15,1.17,1.17,0,0,0,.5.51,2.63,2.63,0,0,0,.94.14v.36h-3.6v-.36a1.49,1.49,0,0,0,1.08-.36,2,2,0,0,0,.36-1.44v-9.36c-.07-.07-.15-.22-.22-.29-.43-.65-.86-.93-1.22-.93v-.36Zm14.11-.29a5.09,5.09,0,0,0-2.67.72,5.4,5.4,0,0,0-2.08,2.3,8,8,0,0,0-.87,3.82,9,9,0,0,0,.79,3.74,6.51,6.51,0,0,0,2,2.31,5.35,5.35,0,0,0,2.81.79v-.65H47c-.87,0-1.59-.58-2.09-1.8a10.86,10.86,0,0,1-.72-4.39,9.81,9.81,0,0,1,.79-4.54,2.49,2.49,0,0,1,2.09-1.65Z"/><path class="cls-5" d="M188.21,134.28c.14-.36.21-.72.36-1.08H165.89v1.08Z"/><path class="cls-8" d="M65.59,90.43H90.5V65.38A50.62,50.62,0,0,0,65.59,90.43Z"/><path class="cls-1" d="M90.58,63.72A52.81,52.81,0,0,0,64,90.43h2.45a53.06,53.06,0,0,1,24.12-23.9V63.72ZM64.15,133.2a62.16,62.16,0,0,0,5.4,9.22,59,59,0,0,1-4.75-9.22Z"/><path class="cls-8" d="M159.84,90.43H133.2V63.58A53.77,53.77,0,0,1,159.84,90.43Z"/><path class="cls-8" d="M159.84,133.42H133.2V160.2A53.4,53.4,0,0,0,159.84,133.42Z"/><path class="cls-8" d="M64.08,133.42H90.79V160.2A53.83,53.83,0,0,1,64.08,133.42Z"/><path class="cls-1" d="M65.59,90.43h.87a52.78,52.78,0,0,1,24-23.83V65.38A50.62,50.62,0,0,0,65.59,90.43Z"/><path class="cls-1" d="M159.84,90.43h-.94a55.78,55.78,0,0,0-25.7-25.49V63.58A53.77,53.77,0,0,1,159.84,90.43Z"/><path class="cls-1" d="M159.84,133.42h-.94a55.81,55.81,0,0,1-25.7,25.48v1.3A53.4,53.4,0,0,0,159.84,133.42Z"/><path class="cls-1" d="M64.08,133.42h1a56.47,56.47,0,0,0,25.7,25.48v1.3A53.83,53.83,0,0,1,64.08,133.42Z"/><path class="cls-1" d="M65.59,90.43H90.5V65.38a2,2,0,0,0-.5.28v24.2H65.81C65.74,90.07,65.66,90.22,65.59,90.43Z"/><path class="cls-1" d="M159.84,90.43H133.2V63.58a9.51,9.51,0,0,0,1.22.5l-.07,25.78h25.27A3.59,3.59,0,0,1,159.84,90.43Z"/><path class="cls-1" d="M159.84,133.42H133.2V160.2l1.22-.43L134.35,134h25.27C159.7,133.78,159.77,133.63,159.84,133.42Z"/><path class="cls-1" d="M64.08,133.42H90.79V160.2l-1.22-.43L89.64,134H64.37A2.19,2.19,0,0,0,64.08,133.42Z"/><path class="cls-7" d="M97.78,140v22c.72.22,1.51.43,2.23.58V133.06Z"/><path class="cls-6" d="M123.19,124.2l2.23,2.16v35.93c-.72.21-1.51.36-2.23.57Z"/><path class="cls-7" d="M97.78,195.77v.93c0,6.84-2.81,12.68-7.56,18.22,5.54-2.38,9.79-10.73,9.79-18.14v-.65C99.29,196.06,98.5,195.91,97.78,195.77Z"/><path class="cls-6" d="M125.42,195.91v.79c0,6.84,2.81,12.68,7.64,18.22-5.62-2.38-9.87-10.73-9.87-18.14v-.58C123.91,196.13,124.7,196,125.42,195.91Z"/><path class="cls-7" d="M97.78,27.86V27.5c0-6.84-2.81-12.67-7.56-18.28C95.76,11.66,100,20,100,27.43v.07C99.29,27.58,98.5,27.72,97.78,27.86Z"/><path class="cls-6" d="M125.42,27.72V27.5c0-6.84,2.81-12.67,7.64-18.28-5.62,2.44-9.87,10.8-9.87,18.21C123.91,27.5,124.7,27.65,125.42,27.72Z"/></g></g></svg>