<svg xmlns="http://www.w3.org/2000/svg" viewBox="0 0 255.41 255.41"><defs><style>.cls-1{fill:#fff;}.cls-2{fill:#192a67;}.cls-3{fill:#d70926;}.cls-4{fill:#94969a;}</style></defs><title>Eszköz 1</title><g id="Réteg_2" data-name="Réteg 2"><g id="Layer_1" data-name="Layer 1"><path class="cls-1" d="M127.71,255.41a127.71,127.71,0,1,1,127.7-127.7,127.7,127.7,0,0,1-127.7,127.7"/><path class="cls-2" d="M207.57,70.79a98.08,98.08,0,0,0-77-41.09V225.82a102,102,0,0,0,22.19-3.27V136.64h10.83l22.19-22.19h-33V56.29A76,76,0,0,1,191.48,87Z"/><path class="cls-3" d="M225.42,136.64a103,103,0,0,0-.5-22.19H196.84l-22.19,22.19v77.17a98.1,98.1,0,0,0,22.18-16.53V174.37H214l.29-.53a101.23,101.23,0,0,0,8.44-21.66H196.83V136.64Z"/><path class="cls-3" d="M56.87,100.9,64,112.37h0l49.33,79.8h6.26V30a100,100,0,0,0-22.18,4.45v89.34L56.83,59.93a98.79,98.79,0,0,0-27.37,67.8A102.83,102.83,0,0,0,42.2,176.2h-.05c16,27.47,44.07,47,77.42,49.35V203.08A75.89,75.89,0,0,1,62.5,166.33c-18.45-31.78-7.22-60.87-5.63-65.43"/><path class="cls-4" d="M225.47,52.84a123.13,123.13,0,1,0-105.9,197.75V234.32A106.9,106.9,0,1,1,213.89,64.45Z"/><polygon class="cls-4" points="141.02 248.36 139.13 248.47 133.25 241.12 133.69 248.79 131.39 248.92 130.72 237.41 132.96 237.28 138.47 244.26 138.04 236.99 140.35 236.85 141.02 248.36"/><path class="cls-4" d="M149.56,247.13c-3.19.31-5.65-2-6-5.41s1.66-6.13,4.85-6.44,5.68,2,6,5.4-1.68,6.14-4.88,6.45m-.92-9.72c-1.82.18-2.85,1.84-2.63,4.08s1.54,3.68,3.35,3.51,2.88-1.84,2.67-4.08-1.56-3.68-3.39-3.51"/><path class="cls-4" d="M160,240.14l1.24,4.11-2.28.69-3.34-11,4.54-1.38c2.32-.7,4.24.07,4.93,2.34a3.25,3.25,0,0,1-1.53,4l4.2,3.39-2.58.79-4-3.29Zm-.57-1.89,2.11-.64c1.15-.35,1.56-1.14,1.28-2.06a1.57,1.57,0,0,0-2.21-1l-2.12.64Z"/><path class="cls-4" d="M176.21,236.09l-.68-1.61-1.8.76-.77-1.82,3.81-1.6,1.87,4.44a5.7,5.7,0,0,1-3.2,3.12c-3.22,1.36-6.19,0-7.55-3.25a6,6,0,0,1,6.57-8.21l.93,2.22a5,5,0,0,0-3.5.21,3.47,3.47,0,0,0-1.77,4.84c.87,2.05,2.65,3,4.54,2.2a3.06,3.06,0,0,0,1.55-1.3"/><polygon class="cls-4" points="184.02 221.97 185.03 223.81 180.24 226.44 181.45 228.65 185.79 226.27 186.78 228.06 182.43 230.44 183.75 232.85 188.54 230.22 189.56 232.08 182.7 235.85 177.15 225.74 184.02 221.97"/><path class="cls-4" d="M190.66,227.71a6.25,6.25,0,0,0,3.76-1c1-.66,1.49-1.45,1-2.19s-1-.58-1.87-.36l-1.72.48c-1.73.5-3.15.4-4.23-1.18-1.2-1.77-.33-3.77,1.53-5a6.62,6.62,0,0,1,3.39-1.22l1.32,1.94a5.57,5.57,0,0,0-3.5.93c-.85.58-1.31,1.31-.86,2s.95.56,1.76.32l1.84-.5c2-.54,3.29-.17,4.25,1.24,1.27,1.88.32,3.91-1.7,5.28a7.14,7.14,0,0,1-3.62,1.29Z"/><polygon class="cls-4" points="206.11 220.24 198.39 211.69 204.09 206.55 205.5 208.11 201.57 211.65 203.53 213.82 207.17 210.55 208.56 212.09 204.93 215.37 207.88 218.65 206.11 220.24"/><path class="cls-4" d="M217.6,209.31c-2.16,2.38-5.52,2.34-8.07,0s-2.9-5.65-.75-8,5.53-2.37,8.09,0,2.89,5.67.73,8m-7.23-6.56c-1.22,1.35-.87,3.27.8,4.79s3.62,1.68,4.84.33.89-3.29-.77-4.81-3.63-1.67-4.87-.31"/><polygon class="cls-4" points="213.4 196.38 219.21 188.44 220.91 189.68 218.71 192.68 226.32 198.25 224.89 200.2 217.28 194.64 215.1 197.62 213.4 196.38"/><path class="cls-4" d="M231.78,183.47c1.83,1.08,2.07,2.92.86,5l-2.43,4.13-9.93-5.84,2.23-3.8c1.22-2.07,2.89-2.81,4.67-1.76a2.46,2.46,0,0,1,1.33,2.54,2.82,2.82,0,0,1,3.27-.26m-5.27,2c.58-1,.5-1.73-.3-2.2s-1.45-.15-2,.83l-1,1.69,2.33,1.37Zm3.12,4.1,1.15-2c.57-1,.39-1.77-.37-2.22s-1.55-.21-2.12.76l-1.15,2Z"/><path class="cls-4" d="M228.08,172l12.32.75-1,2.22-3-.21-1.78,3.93,2.11,2.07-1,2.19-8.67-8.78Zm5,5.17,1.17-2.57-4.07-.3Z"/><polygon class="cls-4" points="230.51 166.2 231.28 163.92 240.19 166.92 241.9 161.83 243.91 162.51 241.44 169.87 230.51 166.2"/><polygon class="cls-4" points="233.56 156.78 234.12 154.44 243.26 156.61 244.5 151.39 246.57 151.88 244.77 159.44 233.56 156.78"/><polygon class="cls-4" points="247.13 148.78 235.72 147.13 236.83 139.53 238.91 139.83 238.15 145.07 241.05 145.49 241.75 140.64 243.81 140.94 243.11 145.79 247.47 146.42 247.13 148.78"/><path class="cls-4" d="M249,133c-.14,3.21-2.75,5.33-6.19,5.18s-5.84-2.49-5.71-5.69,2.74-5.35,6.19-5.2,5.84,2.51,5.71,5.71m-9.76-.42c-.08,1.82,1.43,3.07,3.68,3.17s3.86-1,3.94-2.84-1.43-3.1-3.68-3.2-3.86,1-3.94,2.87"/><path class="cls-4" d="M244.48,121.84l4.29-.28.15,2.38-11.5.75-.31-4.74c-.16-2.42,1-4.11,3.39-4.27a3.24,3.24,0,0,1,3.56,2.4l4.26-3.32.18,2.7-4.1,3.12Zm-2,.13-.14-2.21c-.08-1.2-.76-1.78-1.71-1.72s-1.57.73-1.5,1.92l.15,2.22Z"/><path class="cls-4" d="M243.24,103.58c2.1-.35,3.47.91,3.87,3.28l.79,4.72-11.37,1.91-.73-4.35c-.4-2.37.41-4,2.45-4.35a2.49,2.49,0,0,1,2.66,1.09,2.8,2.8,0,0,1,2.33-2.3m-2.75,4.92c-.19-1.13-.73-1.64-1.64-1.49s-1.21.81-1,1.94l.32,1.93,2.67-.45Zm5,1.14-.38-2.24c-.18-1.12-.84-1.61-1.71-1.47s-1.33.83-1.14,1.95l.38,2.24Z"/><path class="cls-4" d="M241.26,100.92l-6.63,1.85-.65-2.31,6.4-1.79c1.9-.53,2.57-1.61,2.16-3.08s-1.54-2-3.44-1.51l-6.4,1.78-.65-2.31,6.64-1.85c3.05-.86,5.16.53,5.93,3.31s-.3,5.06-3.36,5.91"/><polygon class="cls-4" points="238.21 77.63 238.92 79.38 233.86 87.32 240.97 84.43 241.84 86.57 231.16 90.9 230.31 88.81 235.15 81.36 228.4 84.1 227.53 81.96 238.21 77.63"/><path class="cls-4" d="M226.28,79.34l-1.95-3.58c-1.67-3.06-.74-6.07,2.34-7.75s6.11-.82,7.78,2.24l2,3.58Zm6.36-8c-1-1.93-2.86-2.31-4.83-1.24s-2.64,2.8-1.59,4.73l.77,1.4,6.41-3.49Z"/><polygon class="cls-4" points="182.65 106.5 180 106.5 180 96.56 176.96 98.07 176.96 95.41 180.93 93.46 182.65 93.46 182.65 106.5"/><path class="cls-4" d="M194,97.9a7.51,7.51,0,0,1-1.3,3.91l-2.72,4.69h-2.84l2.4-4.21a1.92,1.92,0,0,1-.66.09,4.32,4.32,0,0,1-4.27-4.48,4.7,4.7,0,0,1,9.39,0m-4.69,2.29A2.3,2.3,0,1,0,187,97.9a2.22,2.22,0,0,0,2.26,2.29"/><path class="cls-4" d="M195.34,100c0-4,2.08-6.74,5.14-6.74s5.14,2.77,5.14,6.74-2.08,6.73-5.14,6.73-5.14-2.76-5.14-6.73m2.65,0c0,2.42.73,4.31,2.49,4.31S203,102.4,203,100s-.75-4.31-2.49-4.31S198,97.56,198,100"/><path class="cls-4" d="M215.35,104.17v2.33h-9.16v-.09l3.8-5c1.21-1.57,2.08-2.63,2.08-4,0-1-.65-1.7-1.89-1.7a5.77,5.77,0,0,0-3.65,1.7V94.79a6.22,6.22,0,0,1,4.14-1.55c2.53,0,4.14,1.51,4.14,3.87,0,1.72-1.1,3.27-2.35,5l-1.6,2.08Z"/></g></g></svg>