<svg id="da86b589-e88d-48aa-85af-23814e7cb24d" data-name="Layer 1" xmlns="http://www.w3.org/2000/svg" viewBox="0 0 186.88 281.81"><title>3017202_POL_AI (1)</title><path d="M347.62,420.34h.07a3.13,3.13,0,0,0,.43-.5A2.57,2.57,0,0,1,347.62,420.34Z" transform="translate(-216.86 -216.22)" fill="none" stroke="#df3c9b" stroke-miterlimit="10" stroke-width="0.22"/><polygon points="69.77 3.74 69.77 6.91 68.76 3.31 69.77 3.74" fill="#ff8000" fill-rule="evenodd"/><polygon points="70.7 4.25 70.7 10.58 68.76 3.31 70.7 4.25" fill="#ff8000" fill-rule="evenodd"/><polygon points="69.77 6.91 69.77 3.74 71.64 4.68 71.64 14.26 69.77 6.91" fill="#ff8205" fill-rule="evenodd"/><polygon points="70.7 10.58 70.7 4.25 72.58 5.18 72.58 17.93 70.7 10.58" fill="#ff870a" fill-rule="evenodd"/><polygon points="71.64 14.26 71.64 4.68 73.51 5.62 73.51 21.6 71.64 14.26" fill="#ff8c0c" fill-rule="evenodd"/><path d="M289.44,234.14V221.4l1.94.94v16.34a2.56,2.56,0,0,1-.72.14Z" transform="translate(-216.86 -216.22)" fill="#ff8f0f" fill-rule="evenodd"/><path d="M290.38,237.82v-16l1.94.94v15.7a13.62,13.62,0,0,1-1.66.36Z" transform="translate(-216.86 -216.22)" fill="#ff9410" fill-rule="evenodd"/><path d="M291.38,238.68V222.34l1.87.94v15C292.61,238.46,292,238.54,291.38,238.68Z" transform="translate(-216.86 -216.22)" fill="#fe9913" fill-rule="evenodd"/><path d="M292.32,238.46v-15.7l1.87.94v14.47C293.54,238.25,293,238.39,292.32,238.46Z" transform="translate(-216.86 -216.22)" fill="#ff9e15" fill-rule="evenodd"/><path d="M293.26,238.32v-15l1.94.94V238C294.55,238.1,293.9,238.18,293.26,238.32Z" transform="translate(-216.86 -216.22)" fill="#fea11a" fill-rule="evenodd"/><path d="M294.19,238.18V223.7l1.94.94v13.25A18.09,18.09,0,0,0,294.19,238.18Z" transform="translate(-216.86 -216.22)" fill="#fea61c" fill-rule="evenodd"/><path d="M295.2,238V224.21l1.87.94v12.6Z" transform="translate(-216.86 -216.22)" fill="#feab21" fill-rule="evenodd"/><path d="M296.14,237.89V224.64l1.87.94v12A14.57,14.57,0,0,0,296.14,237.89Z" transform="translate(-216.86 -216.22)" fill="#feae23" fill-rule="evenodd"/><path d="M297.07,237.74v-12.6l1.87.94v11.45A16.56,16.56,0,0,0,297.07,237.74Z" transform="translate(-216.86 -216.22)" fill="#feb328" fill-rule="evenodd"/><path d="M298,237.6v-12l1.73.86.22-.22v11.16Z" transform="translate(-216.86 -216.22)" fill="#feb82a" fill-rule="evenodd"/><path d="M298.94,237.53V226.08l.79.36,1.15-1.22v12.1Z" transform="translate(-216.86 -216.22)" fill="#feba2c" fill-rule="evenodd"/><path d="M300,237.38V226.22l1.87-2v13A15.2,15.2,0,0,0,300,237.38Z" transform="translate(-216.86 -216.22)" fill="#febf31" fill-rule="evenodd"/><path d="M300.89,237.31v-12.1l1.87-2v14A16.38,16.38,0,0,0,300.89,237.31Z" transform="translate(-216.86 -216.22)" fill="#fec537" fill-rule="evenodd"/><path d="M301.82,237.24v-13l1.94-2v14.9C303.12,237.17,302.47,237.17,301.82,237.24Z" transform="translate(-216.86 -216.22)" fill="#fec739" fill-rule="evenodd"/><path d="M302.76,237.17v-14l1.94-2V237C304.06,237.1,303.41,237.1,302.76,237.17Z" transform="translate(-216.86 -216.22)" fill="#fecc3c" fill-rule="evenodd"/><path d="M303.77,237.1v-14.9l1.87-2V237C305,237,304.34,237.1,303.77,237.1Z" transform="translate(-216.86 -216.22)" fill="#fed141" fill-rule="evenodd"/><path d="M304.7,237V221.18l1.8-2.09v17.42l-.36.43h0A9.18,9.18,0,0,1,304.7,237Z" transform="translate(-216.86 -216.22)" fill="#fed644" fill-rule="evenodd"/><polygon points="88.78 20.81 88.78 3.96 90.58 1.87 90.58 19.3 89.28 20.74 89.28 20.74 88.78 20.81" fill="#fed949" fill-rule="evenodd"/><polygon points="89.64 20.3 89.64 2.88 91.58 0.86 91.58 18.22 89.64 20.3" fill="#ffde4c" fill-rule="evenodd"/><polygon points="90.58 19.3 90.58 1.87 92.38 0 92.52 0.07 92.52 17.14 90.58 19.3" fill="#ffe352" fill-rule="evenodd"/><polygon points="91.58 18.22 91.58 0.86 92.38 0 93.46 1.01 93.46 17.35 92.88 16.7 91.58 18.22" fill="#ffe655" fill-rule="evenodd"/><polygon points="92.52 17.14 92.52 0.07 94.39 2.02 94.39 18.36 92.88 16.7 92.52 17.14" fill="#ffeb5b" fill-rule="evenodd"/><polygon points="93.46 17.35 93.46 1.01 95.33 2.95 95.33 19.37 93.46 17.35" fill="#ffe650" fill-rule="evenodd"/><polygon points="94.39 18.36 94.39 2.02 96.34 3.89 96.34 20.38 94.39 18.36" fill="#ffde43" fill-rule="evenodd"/><polygon points="95.33 19.37 95.33 2.95 97.27 4.82 97.27 20.81 96.77 20.81 95.33 19.37" fill="#ffd639" fill-rule="evenodd"/><path d="M313.2,236.59V220.1l1.87,1.87V237.1c-.5,0-.94-.07-1.44-.07Z" transform="translate(-216.86 -216.22)" fill="#ffd12e" fill-rule="evenodd"/><path d="M314.14,237V221l1.87,1.87v14.26C315.43,237.1,314.78,237.1,314.14,237Z" transform="translate(-216.86 -216.22)" fill="#ffca23" fill-rule="evenodd"/><path d="M315.07,237.1V222l1.94,1.87v13.39A17.65,17.65,0,0,0,315.07,237.1Z" transform="translate(-216.86 -216.22)" fill="#ffc219" fill-rule="evenodd"/><path d="M316,237.17V222.91l1.94,1.87v12.53A17.65,17.65,0,0,0,316,237.17Z" transform="translate(-216.86 -216.22)" fill="#ffbd12" fill-rule="evenodd"/><path d="M317,237.24V223.85l1.87,1.94v11.59A17.73,17.73,0,0,0,317,237.24Z" transform="translate(-216.86 -216.22)" fill="#ffb509" fill-rule="evenodd"/><path d="M318,237.31V224.78l1.58,1.66.29-.14v11.16A16.38,16.38,0,0,0,318,237.31Z" transform="translate(-216.86 -216.22)" fill="#fcae00" fill-rule="evenodd"/><path d="M318.89,237.38V225.79l.65.65,1.22-.65V237.6Z" transform="translate(-216.86 -216.22)" fill="#faa700" fill-rule="evenodd"/><path d="M319.82,237.46V226.3l1.94-1v12.38Z" transform="translate(-216.86 -216.22)" fill="#f59f00" fill-rule="evenodd"/><path d="M320.76,237.6V225.79l1.94-1v13Z" transform="translate(-216.86 -216.22)" fill="#f09700" fill-rule="evenodd"/><path d="M321.77,237.67V225.29l1.87-.94V238A16.82,16.82,0,0,0,321.77,237.67Z" transform="translate(-216.86 -216.22)" fill="#ed9100" fill-rule="evenodd"/><path d="M322.7,237.82v-13l1.87-.94V238.1A14.57,14.57,0,0,0,322.7,237.82Z" transform="translate(-216.86 -216.22)" fill="#e88900" fill-rule="evenodd"/><path d="M323.64,238V224.35l1.87-1v14.9C324.94,238.18,324.29,238,323.64,238Z" transform="translate(-216.86 -216.22)" fill="#e38100" fill-rule="evenodd"/><path d="M324.58,238.1V223.85l1.94-.94v15.55A18.42,18.42,0,0,0,324.58,238.1Z" transform="translate(-216.86 -216.22)" fill="#de7a00" fill-rule="evenodd"/><path d="M325.51,238.25v-14.9l1.94-.94v16.2C326.81,238.46,326.16,238.39,325.51,238.25Z" transform="translate(-216.86 -216.22)" fill="#d97300" fill-rule="evenodd"/><path d="M326.52,238.46V222.91l1.87-1v16.92A14.38,14.38,0,0,0,326.52,238.46Z" transform="translate(-216.86 -216.22)" fill="#d66d00" fill-rule="evenodd"/><path d="M327.46,238.61v-16.2l1.87-1v15.77L329,239C328.46,238.82,328,238.75,327.46,238.61Z" transform="translate(-216.86 -216.22)" fill="#d16600" fill-rule="evenodd"/><path d="M328.39,238.82V221.9l1.94-.94V232.7L329,239C328.75,238.9,328.61,238.9,328.39,238.82Z" transform="translate(-216.86 -216.22)" fill="#cc6000" fill-rule="evenodd"/><polygon points="112.46 20.95 112.46 5.18 114.41 4.25 114.41 12.1 112.46 20.95" fill="#c75a00" fill-rule="evenodd"/><polygon points="113.47 16.49 113.47 4.75 115.34 3.74 115.34 7.7 113.47 16.49" fill="#c75a00" fill-rule="evenodd"/><polygon points="114.41 12.1 114.41 4.25 116.28 3.31 114.41 12.1" fill="#c75a00" fill-rule="evenodd"/><polygon points="115.34 7.7 115.34 3.74 116.28 3.31 115.34 7.7" fill="#c75a00" fill-rule="evenodd"/><path d="M247.9,407.45a15.63,15.63,0,0,0,6.34,5.26A44.66,44.66,0,0,1,247.9,407.45Z" transform="translate(-216.86 -216.22)" fill="#db6700" fill-rule="evenodd"/><path d="M246.82,404.86c1.08,4.54,6.12,8.06,12.74,9.79A38.73,38.73,0,0,1,246.82,404.86Z" transform="translate(-216.86 -216.22)" fill="#e67a00" fill-rule="evenodd"/><path d="M247.9,407.45a44.66,44.66,0,0,0,6.34,5.26,32.6,32.6,0,0,0,6.48,2.23h0a5,5,0,0,0,1.8,0A38.51,38.51,0,0,1,246.6,403.2,7.73,7.73,0,0,0,247.9,407.45Z" transform="translate(-216.86 -216.22)" fill="#ed8a00" fill-rule="evenodd"/><path d="M246.82,404.86a38.73,38.73,0,0,0,12.74,9.79,9,9,0,0,1,1.15.29h0a4.26,4.26,0,0,0,3.1-.58,37.38,37.38,0,0,1-17.14-12.53A8.48,8.48,0,0,0,246.82,404.86Z" transform="translate(-216.86 -216.22)" fill="#f59d00" fill-rule="evenodd"/><path d="M246.6,403.2a38.51,38.51,0,0,0,15.91,11.74,4.68,4.68,0,0,0,2.16-1.22A36.31,36.31,0,0,1,247,400.61,10.71,10.71,0,0,0,246.6,403.2Z" transform="translate(-216.86 -216.22)" fill="#ffb300" fill-rule="evenodd"/><path d="M246.67,401.83a37.38,37.38,0,0,0,17.14,12.53,3.47,3.47,0,0,0,1.44-1.44,34.9,34.9,0,0,1-17.86-13.32A9,9,0,0,0,246.67,401.83Z" transform="translate(-216.86 -216.22)" fill="#ffb300" fill-rule="evenodd"/><path d="M247,400.61a36.31,36.31,0,0,0,17.71,13.1,4,4,0,0,0,1-1.58,34.48,34.48,0,0,1-17.86-13.46A11.48,11.48,0,0,0,247,400.61Z" transform="translate(-216.86 -216.22)" fill="#ffb300" fill-rule="evenodd"/><path d="M247.39,399.6a34.9,34.9,0,0,0,17.86,13.32,5.06,5.06,0,0,0,.79-1.66,33.62,33.62,0,0,1-17.71-13.54A11.35,11.35,0,0,0,247.39,399.6Z" transform="translate(-216.86 -216.22)" fill="#ffb300" fill-rule="evenodd"/><path d="M247.82,398.66a34.48,34.48,0,0,0,17.86,13.46,7.51,7.51,0,0,0,.58-1.8,32.27,32.27,0,0,1-17.35-13.39A11.35,11.35,0,0,0,247.82,398.66Z" transform="translate(-216.86 -216.22)" fill="#ffb300" fill-rule="evenodd"/><path d="M248.33,397.73A33.62,33.62,0,0,0,266,411.26a14.57,14.57,0,0,0,.29-1.87,31.05,31.05,0,0,1-16.78-13.25C249.12,396.72,248.69,397.22,248.33,397.73Z" transform="translate(-216.86 -216.22)" fill="#ffb300" fill-rule="evenodd"/><path d="M248.9,396.94a32.27,32.27,0,0,0,17.35,13.39,15.66,15.66,0,0,0,.07-1.87,31,31,0,0,1-16.13-13C249.7,396,249.34,396.43,248.9,396.94Z" transform="translate(-216.86 -216.22)" fill="#ffb300" fill-rule="evenodd"/><path d="M249.55,396.14a31.05,31.05,0,0,0,16.78,13.25,9.18,9.18,0,0,0-.14-1.94,30.1,30.1,0,0,1-15.34-12.6C250.34,395.28,249.91,395.78,249.55,396.14Z" transform="translate(-216.86 -216.22)" fill="#ffb300" fill-rule="evenodd"/><path d="M250.2,395.5a31,31,0,0,0,16.13,13c-.07-.65-.14-1.37-.29-2.09A29.12,29.12,0,0,1,251.5,394.2C251.06,394.63,250.56,395.06,250.2,395.5Z" transform="translate(-216.86 -216.22)" fill="#ffb300" fill-rule="evenodd"/><path d="M250.85,394.85a30.1,30.1,0,0,0,15.34,12.6,13.5,13.5,0,0,0-.43-2.23,27.88,27.88,0,0,1-13.54-11.66C251.71,394,251.28,394.42,250.85,394.85Z" transform="translate(-216.86 -216.22)" fill="#ffb300" fill-rule="evenodd"/><path d="M251.5,394.2A29.12,29.12,0,0,0,266,406.37c-.22-.72-.43-1.51-.72-2.3A26.89,26.89,0,0,1,252.94,393C252.43,393.34,252,393.77,251.5,394.2Z" transform="translate(-216.86 -216.22)" fill="#ffb300" fill-rule="evenodd"/><path d="M252.22,393.55a27.88,27.88,0,0,0,13.54,11.66c-.29-.72-.58-1.58-1-2.45a26.58,26.58,0,0,1-11.09-10.37C253.15,392.76,252.72,393.19,252.22,393.55Z" transform="translate(-216.86 -216.22)" fill="#ffb300" fill-rule="evenodd"/><path d="M252.94,393a26.89,26.89,0,0,0,12.38,11.09,21.61,21.61,0,0,0-1.08-2.3h0l-.22-.43a24.31,24.31,0,0,1-9.58-9.5C253.94,392.18,253.44,392.62,252.94,393Z" transform="translate(-216.86 -216.22)" fill="#ffb300" fill-rule="evenodd"/><path d="M253.66,392.4a26.58,26.58,0,0,0,11.09,10.37c-.14-.36-.36-.65-.5-1h0c-.43-.79-.86-1.44-1.22-2.09A24.2,24.2,0,0,1,255.6,392a6.3,6.3,0,0,1-.72-.58C254.45,391.75,254.09,392.11,253.66,392.4Z" transform="translate(-216.86 -216.22)" fill="#ffb300" fill-rule="evenodd"/><path d="M254.45,391.82a24.31,24.31,0,0,0,9.58,9.5,30,30,0,0,0-2.81-4.18,27.54,27.54,0,0,1-3.24-3.24,27.78,27.78,0,0,0-3.1-2.45C254.74,391.61,254.59,391.68,254.45,391.82Z" transform="translate(-216.86 -216.22)" fill="#ffb300" fill-rule="evenodd"/><path d="M255.6,392a24.2,24.2,0,0,0,7.42,7.63A25.49,25.49,0,0,0,255.6,392Z" transform="translate(-216.86 -216.22)" fill="#ffb300" fill-rule="evenodd"/><path d="M258,393.91a27.54,27.54,0,0,0,3.24,3.24A22.81,22.81,0,0,0,258,393.91Z" transform="translate(-216.86 -216.22)" fill="#ffb300" fill-rule="evenodd"/><path d="M390.67,375.62a15.39,15.39,0,0,0,1.66-2.74C391.82,373.82,391.25,374.76,390.67,375.62Z" transform="translate(-216.86 -216.22)" fill="#ab1500" fill-rule="evenodd"/><path d="M386.78,378.94c5-2.74,6.77-8,7.2-11.74A51.37,51.37,0,0,1,386.78,378.94Z" transform="translate(-216.86 -216.22)" fill="#b52300" fill-rule="evenodd"/><path d="M390.67,375.62c.58-.86,1.15-1.8,1.66-2.74a15.4,15.4,0,0,0,1.58-8.57,48.19,48.19,0,0,1-9.5,15.62A12.59,12.59,0,0,0,390.67,375.62Z" transform="translate(-216.86 -216.22)" fill="#bf3400" fill-rule="evenodd"/><path d="M386.78,378.94A51.37,51.37,0,0,0,394,367.2a9.32,9.32,0,0,0-.22-3.38h0c-.36.22-.72.43-1.15.65a47.11,47.11,0,0,1-10.22,16A15,15,0,0,0,386.78,378.94Z" transform="translate(-216.86 -216.22)" fill="#c94500" fill-rule="evenodd"/><path d="M384.41,379.94a48.19,48.19,0,0,0,9.5-15.62,4.59,4.59,0,0,0-.14-.5h0a13.33,13.33,0,0,1-2.66,1.37,45.27,45.27,0,0,1-10.58,15.48A15.56,15.56,0,0,0,384.41,379.94Z" transform="translate(-216.86 -216.22)" fill="#d45700" fill-rule="evenodd"/><path d="M382.39,380.45a47.11,47.11,0,0,0,10.22-16,15,15,0,0,1-3,1.22,45.13,45.13,0,0,1-10.8,15h.22A15.76,15.76,0,0,0,382.39,380.45Z" transform="translate(-216.86 -216.22)" fill="#db6700" fill-rule="evenodd"/><path d="M380.52,380.66a45.27,45.27,0,0,0,10.58-15.48,13.68,13.68,0,0,1-2.81.79,44.52,44.52,0,0,1-11.09,14.69,16.27,16.27,0,0,0,1.87.07h0A9.18,9.18,0,0,0,380.52,380.66Z" transform="translate(-216.86 -216.22)" fill="#e67a00" fill-rule="evenodd"/><path d="M378.86,380.74a45.13,45.13,0,0,0,10.8-15,11.43,11.43,0,0,1-2.74.43,42.85,42.85,0,0,1-11.23,14.33A22.52,22.52,0,0,0,378.86,380.74Z" transform="translate(-216.86 -216.22)" fill="#ed8a00" fill-rule="evenodd"/><path d="M377.21,380.66A44.52,44.52,0,0,0,388.3,366a11,11,0,0,1-2.16.22h-.5a42.37,42.37,0,0,1-11.3,13.9A18.54,18.54,0,0,0,377.21,380.66Z" transform="translate(-216.86 -216.22)" fill="#f59d00" fill-rule="evenodd"/><path d="M375.7,380.45a42.85,42.85,0,0,0,11.23-14.33,3,3,0,0,1-.79.07h0a14,14,0,0,1-1.73-.14A41.8,41.8,0,0,1,373,379.73C373.9,380,374.76,380.23,375.7,380.45Z" transform="translate(-216.86 -216.22)" fill="#ffb300" fill-rule="evenodd"/><path d="M374.33,380.09a42.37,42.37,0,0,0,11.3-13.9,13.55,13.55,0,0,1-2.38-.36,40.27,40.27,0,0,1-11.45,13.39A14.85,14.85,0,0,0,374.33,380.09Z" transform="translate(-216.86 -216.22)" fill="#ffb300" fill-rule="evenodd"/><path d="M373,379.73A41.8,41.8,0,0,0,384.41,366a14.81,14.81,0,0,1-2.3-.5,39.29,39.29,0,0,1-11.45,13.1A18.15,18.15,0,0,0,373,379.73Z" transform="translate(-216.86 -216.22)" fill="#ffb300" fill-rule="evenodd"/><path d="M371.81,379.22a40.27,40.27,0,0,0,11.45-13.39,13,13,0,0,1-2.23-.65A37.86,37.86,0,0,1,369.5,378C370.3,378.43,371,378.86,371.81,379.22Z" transform="translate(-216.86 -216.22)" fill="#ffb300" fill-rule="evenodd"/><path d="M370.66,378.65a39.29,39.29,0,0,0,11.45-13.1,10.63,10.63,0,0,1-2.09-.86,36.75,36.75,0,0,1-11.52,12.67A17.14,17.14,0,0,0,370.66,378.65Z" transform="translate(-216.86 -216.22)" fill="#ffb300" fill-rule="evenodd"/><path d="M369.5,378A37.13,37.13,0,0,0,381,365.18c-.65-.29-1.37-.65-2-1a36.07,36.07,0,0,1-11.52,12.46,1.26,1.26,0,0,1,.36.29h0C368.42,377.28,369,377.64,369.5,378Z" transform="translate(-216.86 -216.22)" fill="#ffb300" fill-rule="evenodd"/><path d="M368.5,377.35A36.75,36.75,0,0,0,380,364.68a11.21,11.21,0,0,1-2-1.15,34,34,0,0,1-11.38,12.31c.36.36.79.72,1.22,1.08h0Z" transform="translate(-216.86 -216.22)" fill="#ffb300" fill-rule="evenodd"/><path d="M367.49,376.63A36.07,36.07,0,0,0,379,364.18a15.2,15.2,0,0,1-1.94-1.3A33.17,33.17,0,0,1,365.83,375,11.57,11.57,0,0,0,367.49,376.63Z" transform="translate(-216.86 -216.22)" fill="#ffb300" fill-rule="evenodd"/><path d="M366.62,375.84A34,34,0,0,0,378,363.53a14.87,14.87,0,0,1-1.8-1.37,31.59,31.59,0,0,1-11.09,12A8.69,8.69,0,0,0,366.62,375.84Z" transform="translate(-216.86 -216.22)" fill="#ffb300" fill-rule="evenodd"/><path d="M365.83,375a33.17,33.17,0,0,0,11.23-12.17c-.58-.43-1.22-.94-1.8-1.44a30.38,30.38,0,0,1-10.73,11.66A11.42,11.42,0,0,0,365.83,375Z" transform="translate(-216.86 -216.22)" fill="#ffb300" fill-rule="evenodd"/><path d="M365.11,374.11a31.59,31.59,0,0,0,11.09-12,12.34,12.34,0,0,1-1.8-1.58A29.62,29.62,0,0,1,364,372.1,10.86,10.86,0,0,0,365.11,374.11Z" transform="translate(-216.86 -216.22)" fill="#ffb300" fill-rule="evenodd"/><path d="M364.54,373.1a30.38,30.38,0,0,0,10.73-11.66c-.58-.58-1.08-1.08-1.66-1.73a27.77,27.77,0,0,1-9.94,11.23A9.67,9.67,0,0,0,364.54,373.1Z" transform="translate(-216.86 -216.22)" fill="#ffb300" fill-rule="evenodd"/><path d="M364,372.1a29.62,29.62,0,0,0,10.37-11.52c-.5-.58-1.08-1.15-1.58-1.8a27.75,27.75,0,0,1-9.36,11A9,9,0,0,0,364,372.1Z" transform="translate(-216.86 -216.22)" fill="#ffb300" fill-rule="evenodd"/><path d="M363.67,370.94a27.77,27.77,0,0,0,9.94-11.23c-.43-.43-.79-.86-1.15-1.3a8.07,8.07,0,0,0-.94.36,25.76,25.76,0,0,1-8.14,9.65A9.67,9.67,0,0,0,363.67,370.94Z" transform="translate(-216.86 -216.22)" fill="#ffb300" fill-rule="evenodd"/><path d="M363.46,369.79a27.75,27.75,0,0,0,9.36-11l-.36-.36a19.13,19.13,0,0,0-2.74,1.37,24.19,24.19,0,0,1-6.19,7.06A8.14,8.14,0,0,0,363.46,369.79Z" transform="translate(-216.86 -216.22)" fill="#ffb300" fill-rule="evenodd"/><path d="M363.38,368.42a25.22,25.22,0,0,0,8.14-9.65,21.73,21.73,0,0,0-4.25,2.59,26.16,26.16,0,0,1-3,3.38A7.34,7.34,0,0,0,363.38,368.42Z" transform="translate(-216.86 -216.22)" fill="#ffb300" fill-rule="evenodd"/><path d="M363.53,366.84a24.19,24.19,0,0,0,6.19-7.06,18.25,18.25,0,0,0-4,3h0A8,8,0,0,0,363.53,366.84Z" transform="translate(-216.86 -216.22)" fill="#ffb300" fill-rule="evenodd"/><path d="M364.32,364.75a26.16,26.16,0,0,0,3-3.38c-.5.43-1,.86-1.51,1.37h0A7.93,7.93,0,0,0,364.32,364.75Z" transform="translate(-216.86 -216.22)" fill="#ffb300" fill-rule="evenodd"/><path d="M382.1,281.74a11.59,11.59,0,0,0-5.76-7.92A45.54,45.54,0,0,1,382.1,281.74Z" transform="translate(-216.86 -216.22)" fill="#e37400" fill-rule="evenodd"/><path d="M382.1,284c.58-3.31-1.94-9.5-8.06-11.16A42.92,42.92,0,0,1,382.1,284Z" transform="translate(-216.86 -216.22)" fill="#eb8300" fill-rule="evenodd"/><path d="M382.1,281.74a45.54,45.54,0,0,0-5.76-7.92,10.2,10.2,0,0,0-4.1-1.3,45.46,45.46,0,0,1,9.43,12.89c.07-.14.07-.22.14-.36h0A5.42,5.42,0,0,0,382.1,281.74Z" transform="translate(-216.86 -216.22)" fill="#f29600" fill-rule="evenodd"/><path d="M382.1,284A42.92,42.92,0,0,0,374,272.88a10.38,10.38,0,0,0-3.1-.43h-.36a43.65,43.65,0,0,1,10.44,14,9.22,9.22,0,0,0,.79-1.44h0A2.34,2.34,0,0,0,382.1,284Z" transform="translate(-216.86 -216.22)" fill="#faa700" fill-rule="evenodd"/><path d="M381.67,285.41a45.46,45.46,0,0,0-9.43-12.89,7.83,7.83,0,0,0-1.3-.07h0a13.29,13.29,0,0,0-1.66.29,42,42,0,0,1,11,14.69A9.93,9.93,0,0,0,381.67,285.41Z" transform="translate(-216.86 -216.22)" fill="#ffb300" fill-rule="evenodd"/><path d="M381,286.49a43.65,43.65,0,0,0-10.44-14,10.27,10.27,0,0,0-2.45.65,40.46,40.46,0,0,1,11.38,15.19A11.79,11.79,0,0,0,381,286.49Z" transform="translate(-216.86 -216.22)" fill="#ffb300" fill-rule="evenodd"/><path d="M380.3,287.42a42,42,0,0,0-11-14.69,11,11,0,0,0-2.3.79,39.71,39.71,0,0,1,11.66,15.41A8.28,8.28,0,0,0,380.3,287.42Z" transform="translate(-216.86 -216.22)" fill="#ffb300" fill-rule="evenodd"/><path d="M379.51,288.29a40.46,40.46,0,0,0-11.38-15.19A14,14,0,0,0,366,274a39.25,39.25,0,0,1,11.81,15.48A10.55,10.55,0,0,0,379.51,288.29Z" transform="translate(-216.86 -216.22)" fill="#ffb300" fill-rule="evenodd"/><path d="M378.65,288.94A39.71,39.71,0,0,0,367,273.53a13.11,13.11,0,0,0-1.94,1.08A37.75,37.75,0,0,1,376.85,290,9.18,9.18,0,0,0,378.65,288.94Z" transform="translate(-216.86 -216.22)" fill="#ffb300" fill-rule="evenodd"/><path d="M377.78,289.51A39.25,39.25,0,0,0,366,274c-.65.36-1.22.79-1.87,1.22a36.63,36.63,0,0,1,11.81,15.19A15.13,15.13,0,0,0,377.78,289.51Z" transform="translate(-216.86 -216.22)" fill="#ffb300" fill-rule="evenodd"/><path d="M376.85,290A37.75,37.75,0,0,0,365,274.61a16.34,16.34,0,0,0-1.8,1.3,35.82,35.82,0,0,1,11.66,14.83A10.63,10.63,0,0,0,376.85,290Z" transform="translate(-216.86 -216.22)" fill="#ffb300" fill-rule="evenodd"/><path d="M375.91,290.45a36.63,36.63,0,0,0-11.81-15.19c-.58.36-1.15.86-1.73,1.3A34.44,34.44,0,0,1,373.9,291C374.54,290.88,375.26,290.66,375.91,290.45Z" transform="translate(-216.86 -216.22)" fill="#ffb300" fill-rule="evenodd"/><path d="M374.9,290.74a35.82,35.82,0,0,0-11.66-14.83c-.58.43-1.08.86-1.66,1.37a34.15,34.15,0,0,1,11.23,13.9A9.77,9.77,0,0,0,374.9,290.74Z" transform="translate(-216.86 -216.22)" fill="#ffb300" fill-rule="evenodd"/><path d="M373.9,291a34.44,34.44,0,0,0-11.52-14.47l-1.51,1.51a32.57,32.57,0,0,1,10.87,13.25C372.46,291.24,373.18,291.17,373.9,291Z" transform="translate(-216.86 -216.22)" fill="#ffb300" fill-rule="evenodd"/><path d="M372.82,291.17a34.15,34.15,0,0,0-11.23-13.9c-.5.5-1,1-1.44,1.51a31.56,31.56,0,0,1,10.44,12.53A11.63,11.63,0,0,0,372.82,291.17Z" transform="translate(-216.86 -216.22)" fill="#ffb300" fill-rule="evenodd"/><path d="M371.74,291.31a32.57,32.57,0,0,0-10.87-13.25c-.5.5-.94,1-1.44,1.51a31,31,0,0,1,10,11.74Z" transform="translate(-216.86 -216.22)" fill="#ffb300" fill-rule="evenodd"/><path d="M370.58,291.31a31.56,31.56,0,0,0-10.44-12.53c-.5.58-.94,1.08-1.37,1.66a28.63,28.63,0,0,1,9.36,10.73C369,291.24,369.79,291.31,370.58,291.31Z" transform="translate(-216.86 -216.22)" fill="#ffb300" fill-rule="evenodd"/><path d="M369.43,291.31a31,31,0,0,0-10-11.74c-.43.58-.86,1.15-1.22,1.73a27.18,27.18,0,0,1,8.64,9.65C367.7,291.1,368.57,291.24,369.43,291.31Z" transform="translate(-216.86 -216.22)" fill="#ffb300" fill-rule="evenodd"/><path d="M368.14,291.17a28.63,28.63,0,0,0-9.36-10.73c-.43.58-.79,1.08-1.22,1.73a26.08,26.08,0,0,1,7.92,8.42C366.34,290.81,367.27,291,368.14,291.17Z" transform="translate(-216.86 -216.22)" fill="#ffb300" fill-rule="evenodd"/><path d="M366.84,291a27.18,27.18,0,0,0-8.64-9.65A14.42,14.42,0,0,0,357,283a25.52,25.52,0,0,1,6.84,7.06A26.73,26.73,0,0,0,366.84,291Z" transform="translate(-216.86 -216.22)" fill="#ffb300" fill-rule="evenodd"/><path d="M365.47,290.59a26.08,26.08,0,0,0-7.92-8.42,14.49,14.49,0,0,0-1,1.8,24.62,24.62,0,0,1,5.54,5.4A21.28,21.28,0,0,0,365.47,290.59Z" transform="translate(-216.86 -216.22)" fill="#ffb300" fill-rule="evenodd"/><path d="M363.89,290.09A25.52,25.52,0,0,0,357,283a15.47,15.47,0,0,0-1,1.87,21,21,0,0,1,3.6,3.1A21.11,21.11,0,0,0,363.89,290.09Z" transform="translate(-216.86 -216.22)" fill="#ffb300" fill-rule="evenodd"/><path d="M362.09,289.37a24.62,24.62,0,0,0-5.54-5.4,4,4,0,0,0-.65,1.22h0A25.34,25.34,0,0,0,362.09,289.37Z" transform="translate(-216.86 -216.22)" fill="#ffb300" fill-rule="evenodd"/><path d="M359.64,288a21,21,0,0,0-3.6-3.1.55.55,0,0,0-.14.29h0A23.1,23.1,0,0,0,359.64,288Z" transform="translate(-216.86 -216.22)" fill="#ffb300" fill-rule="evenodd"/><path d="M362.38,333.43a5,5,0,0,0,.58-.22h0c0-.36-.07-.72-.07-1.08A9.62,9.62,0,0,1,362.38,333.43Z" transform="translate(-216.86 -216.22)" fill="#ffb300" fill-rule="evenodd"/><path d="M361.66,333.79c.43-.22.86-.36,1.3-.58h0c-.07-.86-.22-1.8-.29-2.66C362.38,331.63,362,332.78,361.66,333.79Z" transform="translate(-216.86 -216.22)" fill="#ffb300" fill-rule="evenodd"/><path d="M362.38,333.43a9.62,9.62,0,0,0,.5-1.3c-.14-1.22-.29-2.45-.36-3.74a25.42,25.42,0,0,1-1.73,5.76A10.6,10.6,0,0,0,362.38,333.43Z" transform="translate(-216.86 -216.22)" fill="#ffb300" fill-rule="evenodd"/><path d="M361.66,333.79c.36-1,.72-2.16,1-3.24-.14-1.87-.29-3.82-.29-5.76h0a18.3,18.3,0,0,0-.22-3c.07.72.07,1.51.07,2.3a24.1,24.1,0,0,1-2.3,10.44C360.5,334.3,361.08,334.08,361.66,333.79Z" transform="translate(-216.86 -216.22)" fill="#ffb300" fill-rule="evenodd"/><path d="M360.79,334.15a25.42,25.42,0,0,0,1.73-5.76c-.07-1.15-.14-2.38-.14-3.6h0a15.18,15.18,0,0,0-1.66-7.34,25.92,25.92,0,0,1,.94,6.7A24,24,0,0,1,359.06,335Z" transform="translate(-216.86 -216.22)" fill="#ffb300" fill-rule="evenodd"/><path d="M362.23,324.14c0-.79,0-1.58-.07-2.3a12.58,12.58,0,0,0-2.66-6.19,23.71,23.71,0,0,1,1.51,8.5,23.42,23.42,0,0,1-2.88,11.38c.58-.29,1.22-.65,1.8-.94A24.1,24.1,0,0,0,362.23,324.14Z" transform="translate(-216.86 -216.22)" fill="#ffb300" fill-rule="evenodd"/><path d="M361.66,324.14a25.92,25.92,0,0,0-.94-6.7,11.9,11.9,0,0,0-2.38-3,23.9,23.9,0,0,1,2.09,9.65,23.47,23.47,0,0,1-3.31,12l1.94-1.08A24,24,0,0,0,361.66,324.14Z" transform="translate(-216.86 -216.22)" fill="#ffb300" fill-rule="evenodd"/><path d="M361,324.14a23.71,23.71,0,0,0-1.51-8.5,14.86,14.86,0,0,0-2.23-2,23.34,23.34,0,0,1,2.52,10.51,22.41,22.41,0,0,1-3.82,12.6h0c.72-.43,1.44-.86,2.16-1.22A23.42,23.42,0,0,0,361,324.14Z" transform="translate(-216.86 -216.22)" fill="#ffb300" fill-rule="evenodd"/><path d="M360.43,324.14a23.9,23.9,0,0,0-2.09-9.65,23.78,23.78,0,0,0-2.16-1.58,22.77,22.77,0,0,1,3,11.23,21.78,21.78,0,0,1-4.32,13l1.08-.43h0c.36-.22.72-.43,1.15-.65A23.47,23.47,0,0,0,360.43,324.14Z" transform="translate(-216.86 -216.22)" fill="#ffb300" fill-rule="evenodd"/><path d="M359.78,324.14a23.34,23.34,0,0,0-2.52-10.51,22.58,22.58,0,0,0-2.23-1.3A21.43,21.43,0,0,1,354,337.39a7.3,7.3,0,0,0,2-.65A22.41,22.41,0,0,0,359.78,324.14Z" transform="translate(-216.86 -216.22)" fill="#ffb300" fill-rule="evenodd"/><path d="M359.21,324.14a22.77,22.77,0,0,0-3-11.23c-.43-.22-.86-.43-1.22-.65h0a7.27,7.27,0,0,1-1.08-.5,20.47,20.47,0,0,1,4.1,12.38,20.75,20.75,0,0,1-4.9,13.32,5.23,5.23,0,0,0,1.8-.29A21.78,21.78,0,0,0,359.21,324.14Z" transform="translate(-216.86 -216.22)" fill="#ffb300" fill-rule="evenodd"/><path d="M358.56,324.14A21.31,21.31,0,0,0,355,312.34l-.07-.07h0a25.87,25.87,0,0,1-2.45-1.22,20.17,20.17,0,0,1-.22,26.42,4.28,4.28,0,0,0,1.66-.07A21.28,21.28,0,0,0,358.56,324.14Z" transform="translate(-216.86 -216.22)" fill="#ffb300" fill-rule="evenodd"/><path d="M358,324.14a20.47,20.47,0,0,0-4.1-12.38c-1.08-.58-2.23-1.22-3.31-1.87a19.51,19.51,0,0,1,1,27.5,5.34,5.34,0,0,0,1.51.07A20.75,20.75,0,0,0,358,324.14Z" transform="translate(-216.86 -216.22)" fill="#ffb300" fill-rule="evenodd"/><path d="M357.34,324.14a19.83,19.83,0,0,0-4.82-13.1c-1.15-.65-2.23-1.37-3.31-2.09h0a12.8,12.8,0,0,1-1.94-1.22l-.07.29a19,19,0,0,1,3.74,29.16,4.21,4.21,0,0,0,1.37.29A19.84,19.84,0,0,0,357.34,324.14Z" transform="translate(-216.86 -216.22)" fill="#ffb300" fill-rule="evenodd"/><path d="M356.76,324.14a19.28,19.28,0,0,0-6.19-14.26L349.2,309h0a12.8,12.8,0,0,1-1.94-1.22l-.22.94a18.31,18.31,0,0,1,3.24,28.3l1.3.43A19.44,19.44,0,0,0,356.76,324.14Z" transform="translate(-216.86 -216.22)" fill="#ffb300" fill-rule="evenodd"/><path d="M356.11,324.14A18.81,18.81,0,0,0,347.18,308l-.22,1.3a17.83,17.83,0,0,1,7.92,14.83,17.4,17.4,0,0,1-5.18,12.46,4.7,4.7,0,0,0,1.22.58A18.77,18.77,0,0,0,356.11,324.14Z" transform="translate(-216.86 -216.22)" fill="#ffb300" fill-rule="evenodd"/><path d="M355.54,324.14a18.24,18.24,0,0,0-8.5-15.48l-.22,1.3a17.12,17.12,0,0,1,2.38,26.35l1.08.65A18.31,18.31,0,0,0,355.54,324.14Z" transform="translate(-216.86 -216.22)" fill="#ffb300" fill-rule="evenodd"/><path d="M354.89,324.14A17.83,17.83,0,0,0,347,309.31l-.22,1.3a16.7,16.7,0,0,1,7,13.54,16.42,16.42,0,0,1-5,11.74,4.08,4.08,0,0,0,.94.72A17.4,17.4,0,0,0,354.89,324.14Z" transform="translate(-216.86 -216.22)" fill="#ffb300" fill-rule="evenodd"/><path d="M354.31,324.14A17.11,17.11,0,0,0,346.82,310c-.07.5-.14.94-.22,1.37a15.87,15.87,0,0,1,1.73,24.12l.86.86A17,17,0,0,0,354.31,324.14Z" transform="translate(-216.86 -216.22)" fill="#ffb300" fill-rule="evenodd"/><path d="M353.74,324.14a16.7,16.7,0,0,0-7-13.54,4.89,4.89,0,0,0-.22,1.37,15.26,15.26,0,0,1,1.37,23l.86.86A16.42,16.42,0,0,0,353.74,324.14Z" transform="translate(-216.86 -216.22)" fill="#ffb300" fill-rule="evenodd"/><path d="M353.09,324.14a15.78,15.78,0,0,0-6.48-12.82c-.07.43-.14.94-.22,1.37a14.66,14.66,0,0,1,1.22,21.74,5.11,5.11,0,0,0,.72,1A15.77,15.77,0,0,0,353.09,324.14Z" transform="translate(-216.86 -216.22)" fill="#ffb300" fill-rule="evenodd"/><path d="M352.51,324.14a15.42,15.42,0,0,0-6-12.17c-.07.5-.14.94-.22,1.44a14,14,0,0,1,.94,20.52l.65,1.08A15.35,15.35,0,0,0,352.51,324.14Z" transform="translate(-216.86 -216.22)" fill="#ffb300" fill-rule="evenodd"/><path d="M351.86,324.14a14.63,14.63,0,0,0-5.47-11.45,9.76,9.76,0,0,0-.14,1.44,13.63,13.63,0,0,1,4.39,10,13.08,13.08,0,0,1-3.67,9.14,4.38,4.38,0,0,0,.65,1.15A14.59,14.59,0,0,0,351.86,324.14Z" transform="translate(-216.86 -216.22)" fill="#ffb300" fill-rule="evenodd"/><path d="M351.29,324.14a14.07,14.07,0,0,0-5-10.73l-.22,1.51a12.54,12.54,0,0,1,4,9.22,13.1,13.1,0,0,1-3.31,8.57,8.78,8.78,0,0,0,.5,1.22A14.07,14.07,0,0,0,351.29,324.14Z" transform="translate(-216.86 -216.22)" fill="#ffb300" fill-rule="evenodd"/><path d="M350.64,324.14a13.63,13.63,0,0,0-4.39-10c-.07.5-.14,1-.22,1.58a12,12,0,0,1,3.38,8.42,12.24,12.24,0,0,1-2.88,7.85,13.59,13.59,0,0,0,.43,1.3A13.08,13.08,0,0,0,350.64,324.14Z" transform="translate(-216.86 -216.22)" fill="#ffb300" fill-rule="evenodd"/><path d="M350.06,324.14a12.54,12.54,0,0,0-4-9.22,12.93,12.93,0,0,1-.14,1.58,11.48,11.48,0,0,1,.43,14.69,9.3,9.3,0,0,0,.36,1.51A13.1,13.1,0,0,0,350.06,324.14Z" transform="translate(-216.86 -216.22)" fill="#ffb300" fill-rule="evenodd"/><path d="M349.42,324.14a12,12,0,0,0-3.38-8.42c0,.5-.07,1.08-.07,1.66a11.38,11.38,0,0,1,2.23,6.77,11.12,11.12,0,0,1-1.94,6.26,10.33,10.33,0,0,0,.29,1.58A12.24,12.24,0,0,0,349.42,324.14Z" transform="translate(-216.86 -216.22)" fill="#ffb300" fill-rule="evenodd"/><path d="M348.84,324.14a11.38,11.38,0,0,0-2.88-7.63c0,.58-.07,1.22-.07,1.87a10.31,10.31,0,0,1,.22,11.09.54.54,0,0,1,.07.36h0c.07.5.14.94.22,1.37A11.48,11.48,0,0,0,348.84,324.14Z" transform="translate(-216.86 -216.22)" fill="#ffb300" fill-rule="evenodd"/><path d="M348.19,324.14a11.38,11.38,0,0,0-2.23-6.77c-.07.72-.07,1.37-.14,2.16a9.71,9.71,0,0,1,1.15,4.61,10.47,10.47,0,0,1-.94,4.25,8.86,8.86,0,0,0,.14,1.44h0c0,.14.07.36.07.58A11.12,11.12,0,0,0,348.19,324.14Z" transform="translate(-216.86 -216.22)" fill="#ffb300" fill-rule="evenodd"/><path d="M347.62,324.14a10.44,10.44,0,0,0-1.73-5.76c-.07.79-.07,1.66-.07,2.52a9.58,9.58,0,0,1,.58,3.24,9.68,9.68,0,0,1-.5,2.88c.07.86.14,1.73.22,2.45A10.42,10.42,0,0,0,347.62,324.14Z" transform="translate(-216.86 -216.22)" fill="#ffb300" fill-rule="evenodd"/><path d="M347,324.14a9.71,9.71,0,0,0-1.15-4.61v3.24h0a55.46,55.46,0,0,0,.22,5.62A10.47,10.47,0,0,0,347,324.14Z" transform="translate(-216.86 -216.22)" fill="#ffb300" fill-rule="evenodd"/><path d="M346.39,324.14a9.58,9.58,0,0,0-.58-3.24v1.87h0c0,.94,0,2.59.07,4.25A9.68,9.68,0,0,0,346.39,324.14Z" transform="translate(-216.86 -216.22)" fill="#ffb300" fill-rule="evenodd"/><path d="M360.58,413.78c3.74-1.44,8.35-4.18,9.79-8.71A59.3,59.3,0,0,1,360.58,413.78Z" transform="translate(-216.86 -216.22)" fill="#ab1500" fill-rule="evenodd"/><path d="M356.4,415c3.6-.72,13-3.82,14.26-11.3h0a5.65,5.65,0,0,0,.14-1A54.93,54.93,0,0,1,356.4,415Z" transform="translate(-216.86 -216.22)" fill="#ab1500" fill-rule="evenodd"/><path d="M360.58,413.78a59.3,59.3,0,0,0,9.79-8.71,9.26,9.26,0,0,0,.29-1.37h0a7.37,7.37,0,0,0,0-2.81,52.69,52.69,0,0,1-14.18,12.6A4.65,4.65,0,0,1,356,415,21.74,21.74,0,0,0,360.58,413.78Z" transform="translate(-216.86 -216.22)" fill="#b52300" fill-rule="evenodd"/><path d="M356.4,415a54.93,54.93,0,0,0,14.4-12.31,10.25,10.25,0,0,0-.58-3.24,53.07,53.07,0,0,1-13.68,12.6v.36h0A8.27,8.27,0,0,1,356,415Z" transform="translate(-216.86 -216.22)" fill="#bf3400" fill-rule="evenodd"/><path d="M356.47,413.5a52.69,52.69,0,0,0,14.18-12.6,11.93,11.93,0,0,0-1-2.66,51,51,0,0,1-13.32,12.46,7.1,7.1,0,0,1,.22,1.73h0A5.45,5.45,0,0,1,356.47,413.5Z" transform="translate(-216.86 -216.22)" fill="#c94500" fill-rule="evenodd"/><path d="M356.54,412.06a53.07,53.07,0,0,0,13.68-12.6,19.33,19.33,0,0,0-1.3-2.38,49.6,49.6,0,0,1-13,12.46A7.56,7.56,0,0,1,356.54,412.06Z" transform="translate(-216.86 -216.22)" fill="#d45700" fill-rule="evenodd"/><path d="M356.33,410.69a51,51,0,0,0,13.32-12.46,19.65,19.65,0,0,0-1.51-2.16,48.48,48.48,0,0,1-12.74,12.38A6.71,6.71,0,0,1,356.33,410.69Z" transform="translate(-216.86 -216.22)" fill="#de6800" fill-rule="evenodd"/><path d="M356,409.54a49.6,49.6,0,0,0,13-12.46,19.31,19.31,0,0,0-1.66-1.87,48.54,48.54,0,0,1-12.6,12.24A12.59,12.59,0,0,1,356,409.54Z" transform="translate(-216.86 -216.22)" fill="#e87d00" fill-rule="evenodd"/><path d="M355.39,408.46a48.48,48.48,0,0,0,12.74-12.38,19.55,19.55,0,0,0-1.73-1.73,45.84,45.84,0,0,1-12.53,12.17A10,10,0,0,1,355.39,408.46Z" transform="translate(-216.86 -216.22)" fill="#f09000" fill-rule="evenodd"/><path d="M354.67,407.45a48.54,48.54,0,0,0,12.6-12.24,13.28,13.28,0,0,0-1.8-1.66,45,45,0,0,1-12.46,12A12.88,12.88,0,0,1,354.67,407.45Z" transform="translate(-216.86 -216.22)" fill="#faa500" fill-rule="evenodd"/><path d="M353.88,406.51a45.84,45.84,0,0,0,12.53-12.17,19.77,19.77,0,0,0-1.87-1.58,43.78,43.78,0,0,1-12.46,12A14.17,14.17,0,0,1,353.88,406.51Z" transform="translate(-216.86 -216.22)" fill="#ffb300" fill-rule="evenodd"/><path d="M353,405.58a45,45,0,0,0,12.46-12,22.86,22.86,0,0,0-1.94-1.51,40.88,40.88,0,0,1-12.46,11.88A23.27,23.27,0,0,1,353,405.58Z" transform="translate(-216.86 -216.22)" fill="#ffb300" fill-rule="evenodd"/><path d="M352.08,404.71a43.78,43.78,0,0,0,12.46-12c-.65-.5-1.3-.94-2-1.44A40.06,40.06,0,0,1,350,403.13C350.71,403.7,351.43,404.21,352.08,404.71Z" transform="translate(-216.86 -216.22)" fill="#ffb300" fill-rule="evenodd"/><path d="M351.07,403.92A40.88,40.88,0,0,0,363.53,392c-.65-.43-1.3-.86-2-1.37a39.51,39.51,0,0,1-12.67,11.74C349.63,402.91,350.35,403.42,351.07,403.92Z" transform="translate(-216.86 -216.22)" fill="#ffb300" fill-rule="evenodd"/><path d="M350,403.13a40.06,40.06,0,0,0,12.53-11.81c-.65-.43-1.37-.79-2.09-1.22a37.9,37.9,0,0,1-12.74,11.59,7.59,7.59,0,0,1,.79.5h0C349.06,402.48,349.49,402.84,350,403.13Z" transform="translate(-216.86 -216.22)" fill="#ffb300" fill-rule="evenodd"/><path d="M348.84,402.41a39.51,39.51,0,0,0,12.67-11.74c-.72-.36-1.37-.79-2.16-1.15a36.15,36.15,0,0,1-12.67,11.3,16.91,16.91,0,0,0,1.8,1.37h0Z" transform="translate(-216.86 -216.22)" fill="#ffb300" fill-rule="evenodd"/><path d="M347.69,401.69a37.9,37.9,0,0,0,12.74-11.59,15.23,15.23,0,0,0-2.16-1.15,35.52,35.52,0,0,1-12.53,11A15.11,15.11,0,0,0,347.69,401.69Z" transform="translate(-216.86 -216.22)" fill="#ffb300" fill-rule="evenodd"/><path d="M346.68,400.82a36.15,36.15,0,0,0,12.67-11.3,20.52,20.52,0,0,0-2.16-1.15A35,35,0,0,1,345,399,13.52,13.52,0,0,0,346.68,400.82Z" transform="translate(-216.86 -216.22)" fill="#ffb300" fill-rule="evenodd"/><path d="M345.74,400a35.52,35.52,0,0,0,12.53-11c-.72-.36-1.44-.72-2.23-1.08a31.38,31.38,0,0,1-11.81,10.08A13.39,13.39,0,0,0,345.74,400Z" transform="translate(-216.86 -216.22)" fill="#ffb300" fill-rule="evenodd"/><path d="M345,399a35,35,0,0,0,12.24-10.66,22.25,22.25,0,0,0-2.3-1,31,31,0,0,1-11.16,9.5A8,8,0,0,0,345,399Z" transform="translate(-216.86 -216.22)" fill="#ffb300" fill-rule="evenodd"/><path d="M344.23,397.94A31.38,31.38,0,0,0,356,387.86c-.72-.36-1.51-.65-2.3-1a31,31,0,0,1-10.37,8.93A11.27,11.27,0,0,0,344.23,397.94Z" transform="translate(-216.86 -216.22)" fill="#ffb300" fill-rule="evenodd"/><path d="M343.73,396.86a31,31,0,0,0,11.16-9.5,22,22,0,0,0-2.3-.94,29.93,29.93,0,0,1-9.43,8.06A8.21,8.21,0,0,0,343.73,396.86Z" transform="translate(-216.86 -216.22)" fill="#ffb300" fill-rule="evenodd"/><path d="M343.37,395.78a31,31,0,0,0,10.37-8.93c-.79-.29-1.58-.65-2.38-.94a26.51,26.51,0,0,1-8.28,7.2A8.19,8.19,0,0,0,343.37,395.78Z" transform="translate(-216.86 -216.22)" fill="#ffb300" fill-rule="evenodd"/><path d="M343.15,394.49a29.93,29.93,0,0,0,9.43-8.06,24.64,24.64,0,0,0-2.45-.94,27,27,0,0,1-6.91,6.19A7.44,7.44,0,0,0,343.15,394.49Z" transform="translate(-216.86 -216.22)" fill="#ffb300" fill-rule="evenodd"/><path d="M343.08,393.12a26.51,26.51,0,0,0,8.28-7.2c-.79-.29-1.58-.58-2.45-.86a25,25,0,0,1-5.4,4.9A13.3,13.3,0,0,0,343.08,393.12Z" transform="translate(-216.86 -216.22)" fill="#ffb300" fill-rule="evenodd"/><path d="M343.22,391.68a27,27,0,0,0,6.91-6.19,24.35,24.35,0,0,0-2.45-.79,28.92,28.92,0,0,1-3.38,3.24,7.27,7.27,0,0,0-.5,1.08h0A12.66,12.66,0,0,0,343.22,391.68Z" transform="translate(-216.86 -216.22)" fill="#ffb300" fill-rule="evenodd"/><path d="M343.51,390a25,25,0,0,0,5.4-4.9c-.79-.22-1.66-.5-2.52-.79a11.07,11.07,0,0,1-.86.94c-.65,1.3-1.22,2.59-1.73,3.82h0A3.56,3.56,0,0,1,343.51,390Z" transform="translate(-216.86 -216.22)" fill="#ffb300" fill-rule="evenodd"/><path d="M344.3,387.94a28.92,28.92,0,0,0,3.38-3.24,14.51,14.51,0,0,0-1.66-.5h0C345.38,385.42,344.81,386.71,344.3,387.94Z" transform="translate(-216.86 -216.22)" fill="#ffb300" fill-rule="evenodd"/><path d="M345.53,385.2a11.07,11.07,0,0,0,.86-.94l-.36-.07h0C345.89,384.48,345.67,384.84,345.53,385.2Z" transform="translate(-216.86 -216.22)" fill="#ffb300" fill-rule="evenodd"/><path d="M309.82,393.7a11.64,11.64,0,0,0,5.47-4.75A26.5,26.5,0,0,1,309.82,393.7Z" transform="translate(-216.86 -216.22)" fill="#ffb300" fill-rule="evenodd"/><path d="M307.22,394.49c3.38-.65,7-2.59,9.29-8h0a1.33,1.33,0,0,1,.14-.5A26.13,26.13,0,0,1,307.22,394.49Z" transform="translate(-216.86 -216.22)" fill="#ffb300" fill-rule="evenodd"/><path d="M309.82,393.7a26.5,26.5,0,0,0,5.47-4.75,25.79,25.79,0,0,0,1.22-2.45h0c.36-1.22.79-2.45,1.22-3.74a25.29,25.29,0,0,1-12.46,12A12.56,12.56,0,0,0,309.82,393.7Z" transform="translate(-216.86 -216.22)" fill="#ffb300" fill-rule="evenodd"/><path d="M307.22,394.49a26.13,26.13,0,0,0,9.43-8.5q1-3,2.16-6h0l-.58-.07a24.71,24.71,0,0,1-14.83,14.9A17.37,17.37,0,0,0,307.22,394.49Z" transform="translate(-216.86 -216.22)" fill="#ffb300" fill-rule="evenodd"/><path d="M305.28,394.78a25.29,25.29,0,0,0,12.46-12l1.08-2.81h0c-.43-.07-.86-.07-1.3-.14a23.75,23.75,0,0,1-15.91,14.83A19.52,19.52,0,0,0,305.28,394.78Z" transform="translate(-216.86 -216.22)" fill="#ffb300" fill-rule="evenodd"/><path d="M303.41,394.78a24.71,24.71,0,0,0,14.83-14.9c-.43,0-.94-.07-1.37-.07a23.19,23.19,0,0,1-17.28,14.62,1.4,1.4,0,0,0,.58.07h0C301,394.56,302.11,394.7,303.41,394.78Z" transform="translate(-216.86 -216.22)" fill="#ffb300" fill-rule="evenodd"/><path d="M301.61,394.63a23.75,23.75,0,0,0,15.91-14.83,9.18,9.18,0,0,1-1.37-.07,22.51,22.51,0,0,1-18.43,14.33,13.37,13.37,0,0,0,2.45.43h0A7.43,7.43,0,0,0,301.61,394.63Z" transform="translate(-216.86 -216.22)" fill="#ffb300" fill-rule="evenodd"/><path d="M299.59,394.42a23.19,23.19,0,0,0,17.28-14.62c-.43-.07-.94-.07-1.37-.14a21.64,21.64,0,0,1-19.44,13.82A15,15,0,0,0,299.59,394.42Z" transform="translate(-216.86 -216.22)" fill="#ffb300" fill-rule="evenodd"/><path d="M297.72,394.06a22.51,22.51,0,0,0,18.43-14.33c-.43,0-.94-.07-1.37-.07a21.1,21.1,0,0,1-19.51,13.18h-.72A17,17,0,0,0,297.72,394.06Z" transform="translate(-216.86 -216.22)" fill="#ffb300" fill-rule="evenodd"/><path d="M296.06,393.48a21.64,21.64,0,0,0,19.44-13.82,9.65,9.65,0,0,1-1.44-.07,20.33,20.33,0,0,1-18.79,12.6,20.94,20.94,0,0,1-2.16-.07A22,22,0,0,0,296.06,393.48Z" transform="translate(-216.86 -216.22)" fill="#ffb300" fill-rule="evenodd"/><path d="M294.55,392.83h.72a21.1,21.1,0,0,0,19.51-13.18c-.43,0-.94-.07-1.37-.07a19.78,19.78,0,0,1-18.14,12,20.48,20.48,0,0,1-3.67-.36A23.78,23.78,0,0,0,294.55,392.83Z" transform="translate(-216.86 -216.22)" fill="#ffb300" fill-rule="evenodd"/><path d="M293.11,392.11a20.94,20.94,0,0,0,2.16.07,20.33,20.33,0,0,0,18.79-12.6,8.71,8.71,0,0,1-1.37-.07,19.13,19.13,0,0,1-17.42,11.38,20.48,20.48,0,0,1-5.18-.72Q291.49,391.14,293.11,392.11Z" transform="translate(-216.86 -216.22)" fill="#ffb300" fill-rule="evenodd"/><path d="M291.6,391.18a20.48,20.48,0,0,0,3.67.36,19.78,19.78,0,0,0,18.14-12c-.5,0-1-.07-1.44-.07a18.41,18.41,0,0,1-16.7,10.73,19.26,19.26,0,0,1-6.84-1.3C289.37,389.66,290.45,390.46,291.6,391.18Z" transform="translate(-216.86 -216.22)" fill="#ffb300" fill-rule="evenodd"/><path d="M290.09,390.17a20.48,20.48,0,0,0,5.18.72,19.13,19.13,0,0,0,17.42-11.38h-1.44a17.77,17.77,0,0,1-16,10,17.46,17.46,0,0,1-8.86-2.3,43.58,43.58,0,0,0,3.67,3Zm-9.65-8.5-.29.07c.29.29.58.5.86.79A6,6,0,0,0,280.44,381.67Z" transform="translate(-216.86 -216.22)" fill="#ffb300" fill-rule="evenodd"/><path d="M288.43,388.94a19.26,19.26,0,0,0,6.84,1.3A18.41,18.41,0,0,0,312,379.51a9.18,9.18,0,0,1-1.44-.07,17.14,17.14,0,0,1-29.38,2.09c-.36.07-.72.14-1,.22,2,1.66,4,3.31,5.76,5h0C286.63,387.43,287.5,388.15,288.43,388.94Z" transform="translate(-216.86 -216.22)" fill="#ffb300" fill-rule="evenodd"/><path d="M280.44,381.67a6,6,0,0,1,.58.86c1.73,1.37,3.38,2.81,4.9,4.25h0c.14.14.36.29.5.43a17.46,17.46,0,0,0,8.86,2.3,17.77,17.77,0,0,0,16-10,10.14,10.14,0,0,0-1.44-.07,16.52,16.52,0,0,1-27.94,2Z" transform="translate(-216.86 -216.22)" fill="#ffb300" fill-rule="evenodd"/><path d="M281.16,381.53a17.14,17.14,0,0,0,29.38-2.09H309a15.81,15.81,0,0,1-26.42,1.87Z" transform="translate(-216.86 -216.22)" fill="#ffb300" fill-rule="evenodd"/><path d="M281.88,381.46a16.52,16.52,0,0,0,27.94-2H308.3a15.11,15.11,0,0,1-24.91,1.73A11.18,11.18,0,0,0,281.88,381.46Z" transform="translate(-216.86 -216.22)" fill="#ffb300" fill-rule="evenodd"/><path d="M282.6,381.31A15.81,15.81,0,0,0,309,379.44h-1.51a14.42,14.42,0,0,1-23.4,1.58A11.18,11.18,0,0,1,282.6,381.31Z" transform="translate(-216.86 -216.22)" fill="#ffb300" fill-rule="evenodd"/><path d="M283.39,381.17a15.11,15.11,0,0,0,24.91-1.73c-.5,0-1.08-.07-1.58-.07a13.5,13.5,0,0,1-11.45,6.19A13.85,13.85,0,0,1,284.9,381Z" transform="translate(-216.86 -216.22)" fill="#ffb300" fill-rule="evenodd"/><path d="M284.11,381a14.42,14.42,0,0,0,23.4-1.58,8.71,8.71,0,0,0-1.37-.07H306a13.18,13.18,0,0,1-20.3,1.44Z" transform="translate(-216.86 -216.22)" fill="#ffb300" fill-rule="evenodd"/><path d="M284.9,381a13.85,13.85,0,0,0,10.37,4.61,13.5,13.5,0,0,0,11.45-6.19h-1.51a12.41,12.41,0,0,1-9.94,4.9,12.59,12.59,0,0,1-8.78-3.53Z" transform="translate(-216.86 -216.22)" fill="#ffb300" fill-rule="evenodd"/><path d="M285.7,380.81a13.18,13.18,0,0,0,20.3-1.44,12.2,12.2,0,0,0-1.66.07,12.15,12.15,0,0,1-9.07,4.18,11.75,11.75,0,0,1-7.92-3Z" transform="translate(-216.86 -216.22)" fill="#ffb300" fill-rule="evenodd"/><path d="M286.49,380.74a12.59,12.59,0,0,0,8.78,3.53,12.41,12.41,0,0,0,9.94-4.9c-.65,0-1.22.07-1.8.07a11.14,11.14,0,0,1-15.19,1A14.42,14.42,0,0,0,286.49,380.74Z" transform="translate(-216.86 -216.22)" fill="#ffb300" fill-rule="evenodd"/><path d="M287.35,380.59a11.75,11.75,0,0,0,7.92,3,12.15,12.15,0,0,0,9.07-4.18h-1.87a10.71,10.71,0,0,1-7.2,2.81,10.44,10.44,0,0,1-6.12-1.87Z" transform="translate(-216.86 -216.22)" fill="#ffb300" fill-rule="evenodd"/><path d="M288.22,380.45a11.14,11.14,0,0,0,15.19-1h-2a9.6,9.6,0,0,1-6.12,2.16,9.77,9.77,0,0,1-5-1.37Z" transform="translate(-216.86 -216.22)" fill="#ffb300" fill-rule="evenodd"/><path d="M289.15,380.38a10.44,10.44,0,0,0,6.12,1.87,10.71,10.71,0,0,0,7.2-2.81c-.79,0-1.51.07-2.23.07a9.11,9.11,0,0,1-5,1.44,8.79,8.79,0,0,1-3.89-.86C290.66,380.23,289.87,380.3,289.15,380.38Z" transform="translate(-216.86 -216.22)" fill="#ffb300" fill-rule="evenodd"/><path d="M290.23,380.23a9.77,9.77,0,0,0,5,1.37,9.6,9.6,0,0,0,6.12-2.16c-.86.07-1.8.07-2.66.14a9.27,9.27,0,0,1-3.46.72,8.62,8.62,0,0,1-2.38-.36C292,380.09,291.1,380.16,290.23,380.23Z" transform="translate(-216.86 -216.22)" fill="#ffb300" fill-rule="evenodd"/><path d="M291.38,380.09a8.79,8.79,0,0,0,3.89.86,9.11,9.11,0,0,0,5-1.44C297.22,379.66,294.26,379.8,291.38,380.09Z" transform="translate(-216.86 -216.22)" fill="#ffb300" fill-rule="evenodd"/><path d="M292.9,379.94a8.62,8.62,0,0,0,2.38.36,9.27,9.27,0,0,0,3.46-.72C296.71,379.66,294.84,379.8,292.9,379.94Z" transform="translate(-216.86 -216.22)" fill="#ffb300" fill-rule="evenodd"/><path d="M323.35,375.55a65.74,65.74,0,0,0-5.83,18.79h0c-1.73,12.1,1.15,22.1,8.21,28h0a22.47,22.47,0,0,0,10.3,4.9h0a22.94,22.94,0,0,0,3.24.22h0c5.47,0,10.58-2,14-3.6h0c5-2.59,9.79-6.26,10.51-7.49h0a.33.33,0,0,0,0-.43h0c-.14-.14-.29-.22-.43-.14h0A28.05,28.05,0,0,1,353.16,418h0a14.68,14.68,0,0,1-9.65-3.17h0c-9.14-7.78-5.76-27.07,7.63-43.13h0c9.22-11.16,21.53-18.36,31.32-18.36h0a14.28,14.28,0,0,1,9.58,3.24h0c4.32,3.6,6,10,4.75,17.86h0a.35.35,0,0,0,.22.43h0a.45.45,0,0,0,.5-.14h0a38.93,38.93,0,0,0,5.18-12.38h0c1.37-5.69,1.37-10.15.14-14.47h0a20.76,20.76,0,0,0-6.77-10h0a24.82,24.82,0,0,0-16.13-5.47c-7.63,0-16.06,2.66-24.12,7.49A74.59,74.59,0,0,1,323.35,375.55Z" transform="translate(-216.86 -216.22)" fill="red" fill-rule="evenodd"/><path d="M327,423.36a119.56,119.56,0,0,0,17.57-7.78,10.3,10.3,0,0,1-1.08-.79h0a11.81,11.81,0,0,1-2.45-2.88,106.19,106.19,0,0,1-18.14,7.63,25.85,25.85,0,0,0,2.81,2.81h0a8.91,8.91,0,0,0,1.3,1Zm68.69-61.78a121.69,121.69,0,0,0,6.26-16.2,21.06,21.06,0,0,0-3.6-5.33,111,111,0,0,1-5.9,16.85A14.34,14.34,0,0,1,395.71,361.58Z" transform="translate(-216.86 -216.22)" fill="#fa0000" fill-rule="evenodd"/><path d="M324.79,421.56a118.4,118.4,0,0,0,17.78-7.7,12.25,12.25,0,0,1-2.66-4.1,119.63,119.63,0,0,1-18.5,7.78,25.76,25.76,0,0,0,3.38,4Zm69.48-62.64a124.81,124.81,0,0,0,6-16.49,27,27,0,0,0-3.89-4.32,108.83,108.83,0,0,1-6,17.28,12.73,12.73,0,0,1,1.58,1.15h0A13.88,13.88,0,0,1,394.27,358.92Z" transform="translate(-216.86 -216.22)" fill="#f00000" fill-rule="evenodd"/><path d="M322.92,419.54a106.19,106.19,0,0,0,18.14-7.63,16.87,16.87,0,0,1-2-4.46,114.71,114.71,0,0,1-18.86,7.92,24.6,24.6,0,0,0,2.74,4.18Zm69.55-62.64a111,111,0,0,0,5.9-16.85,22.6,22.6,0,0,0-2.3-2.23h0a16.91,16.91,0,0,0-1.8-1.37,113,113,0,0,1-6,17.86,13.24,13.24,0,0,1,3.74,2.23h0A1.91,1.91,0,0,1,392.47,356.9Z" transform="translate(-216.86 -216.22)" fill="#e60000" fill-rule="evenodd"/><path d="M321.41,417.53a119.63,119.63,0,0,0,18.5-7.78,17,17,0,0,1-1.3-4.82,110.07,110.07,0,0,1-19.44,8.21,25.19,25.19,0,0,0,2.23,4.39Zm69-62.14a108.83,108.83,0,0,0,6-17.28,1.57,1.57,0,0,1-.36-.29h0a23.84,23.84,0,0,0-4-2.66,107.4,107.4,0,0,1-6.19,18.5A12.38,12.38,0,0,1,390.46,355.39Z" transform="translate(-216.86 -216.22)" fill="#d90000" fill-rule="evenodd"/><path d="M320.18,415.37A114.71,114.71,0,0,0,339,407.45a19.66,19.66,0,0,1-.65-5.18,100.13,100.13,0,0,1-20,8.5,23.58,23.58,0,0,0,1.8,4.61Zm68.11-61.06a113,113,0,0,0,6-17.86,23.76,23.76,0,0,0-4.46-2.3,101.44,101.44,0,0,1-6.41,19.15A17.93,17.93,0,0,1,388.3,354.31Z" transform="translate(-216.86 -216.22)" fill="#c90000" fill-rule="evenodd"/><path d="M319.18,413.14a110.07,110.07,0,0,0,19.44-8.21,23,23,0,0,1-.14-5.47,108.76,108.76,0,0,1-20.74,9,35.15,35.15,0,0,0,1.44,4.68Zm66.74-59.47a107.4,107.4,0,0,0,6.19-18.5,25.5,25.5,0,0,0-4.61-1.8,99.44,99.44,0,0,1-6.84,20c.58,0,1.22-.07,1.8-.07h0A17.55,17.55,0,0,1,385.92,353.66Z" transform="translate(-216.86 -216.22)" fill="#b30000" fill-rule="evenodd"/><path d="M318.38,410.76a100.13,100.13,0,0,0,20-8.5,27.86,27.86,0,0,1,.43-5.9A99.28,99.28,0,0,1,317.38,406a25.3,25.3,0,0,0,1,4.75Zm65-57.46a101.44,101.44,0,0,0,6.41-19.15,23.5,23.5,0,0,0-4.68-1.3,100.42,100.42,0,0,1-7.34,21,26.55,26.55,0,0,1,4.68-.5h.94Z" transform="translate(-216.86 -216.22)" fill="#ab0000" fill-rule="evenodd"/><path d="M317.74,408.46a108.76,108.76,0,0,0,20.74-9,28.7,28.7,0,0,1,1.15-6.34,100.12,100.12,0,0,1-22.54,10.37q.22,2.59.65,5Zm62.93-55.08a99.44,99.44,0,0,0,6.84-20,26,26,0,0,0-4.82-.86,96.5,96.5,0,0,1-8.06,22.1A27.33,27.33,0,0,1,380.66,353.38Z" transform="translate(-216.86 -216.22)" fill="#b50000" fill-rule="evenodd"/><path d="M317.38,406a99.28,99.28,0,0,0,21.46-9.65,47.43,47.43,0,0,1,1.87-6.91A92.64,92.64,0,0,1,317,401a38.62,38.62,0,0,0,.36,5Zm60.41-52.2a100.42,100.42,0,0,0,7.34-21,36.37,36.37,0,0,0-4.9-.5,98.27,98.27,0,0,1-9,23.62A30.32,30.32,0,0,1,377.78,353.81Z" transform="translate(-216.86 -216.22)" fill="#bf0000" fill-rule="evenodd"/><path d="M317.09,403.49a100.12,100.12,0,0,0,22.54-10.37,44.77,44.77,0,0,1,2.81-7.85,91.1,91.1,0,0,1-25.34,13.1c-.07,1.8-.07,3.46,0,5.11Zm57.53-48.89a96.5,96.5,0,0,0,8.06-22.1c-.86-.07-1.8-.14-2.74-.14-.72,0-1.51.07-2.3.14a90.36,90.36,0,0,1-10.37,25.42A43.72,43.72,0,0,1,374.62,354.6Z" transform="translate(-216.86 -216.22)" fill="#c90000" fill-rule="evenodd"/><path d="M317,401a92.64,92.64,0,0,0,23.69-11.52,65.47,65.47,0,0,1,4.46-9.43,90.13,90.13,0,0,1-27.86,15.77A41.7,41.7,0,0,0,317,401Zm54.22-45a98.27,98.27,0,0,0,9-23.62h-.29a37.17,37.17,0,0,0-4.82.36A89.89,89.89,0,0,1,362.38,361,46.19,46.19,0,0,1,371.23,356Z" transform="translate(-216.86 -216.22)" fill="#d40000" fill-rule="evenodd"/><path d="M317.09,398.38a91.1,91.1,0,0,0,25.34-13.1,60.21,60.21,0,0,1,8.71-13.61h0a58.27,58.27,0,0,1,16.13-13.75,90.36,90.36,0,0,0,10.37-25.42,32.91,32.91,0,0,0-5.18.65A88.06,88.06,0,0,1,317.66,393a7.93,7.93,0,0,1-.14,1.3h0A38.31,38.31,0,0,0,317.09,398.38Z" transform="translate(-216.86 -216.22)" fill="#d90000" fill-rule="evenodd"/><path d="M317.3,395.78A90.13,90.13,0,0,0,345.17,380a59.28,59.28,0,0,1,6-8.35h0A60,60,0,0,1,362.38,361a89.89,89.89,0,0,0,12.74-28.3q-2.7.43-5.4,1.08a85.58,85.58,0,0,1-51.48,56.45,40.83,40.83,0,0,0-.72,4.1h0C317.45,394.85,317.38,395.28,317.3,395.78Z" transform="translate(-216.86 -216.22)" fill="#de0000" fill-rule="evenodd"/><path d="M317.66,393a88.06,88.06,0,0,0,54.79-59.9c-1.8.43-3.67.94-5.47,1.51a83.76,83.76,0,0,1-48,52.7C318.46,389.23,318,391.18,317.66,393Z" transform="translate(-216.86 -216.22)" fill="#e60000" fill-rule="evenodd"/><path d="M318.24,390.24a85.58,85.58,0,0,0,51.48-56.45,48.35,48.35,0,0,0-5.69,1.94,80.63,80.63,0,0,1-44.14,48.53C319.25,386.28,318.67,388.3,318.24,390.24Z" transform="translate(-216.86 -216.22)" fill="#eb0000" fill-rule="evenodd"/><path d="M319,387.36a83.76,83.76,0,0,0,48-52.7c-2,.65-4,1.51-6,2.38a78.47,78.47,0,0,1-40,44.06C320.18,383.18,319.54,385.27,319,387.36Z" transform="translate(-216.86 -216.22)" fill="#f00000" fill-rule="evenodd"/><path d="M319.9,384.26A80.63,80.63,0,0,0,364,335.74c-2.09.86-4.18,1.87-6.26,3a75.66,75.66,0,0,1-35.35,39A68.76,68.76,0,0,0,319.9,384.26Z" transform="translate(-216.86 -216.22)" fill="#f50000" fill-rule="evenodd"/><path d="M321,381.1A78.47,78.47,0,0,0,361,337a69.56,69.56,0,0,0-6.77,3.74,74,74,0,0,1-30,33.12C323,376.27,321.91,378.72,321,381.1Z" transform="translate(-216.86 -216.22)" fill="#fc0000" fill-rule="evenodd"/><path d="M322.42,377.64a75.66,75.66,0,0,0,35.35-39,79.33,79.33,0,0,0-7.63,4.82,71.06,71.06,0,0,1-23.54,26A87.09,87.09,0,0,0,322.42,377.64Z" transform="translate(-216.86 -216.22)" fill="red" fill-rule="evenodd"/><path d="M324.22,373.9a74,74,0,0,0,30-33.12,82.3,82.3,0,0,0-9.36,6.91,67.81,67.81,0,0,1-14.62,16.13A81.19,81.19,0,0,0,324.22,373.9Z" transform="translate(-216.86 -216.22)" fill="#ff0a04" fill-rule="evenodd"/><path d="M326.59,369.5a71.06,71.06,0,0,0,23.54-26,83.42,83.42,0,0,0-15.41,14.54h0A85.44,85.44,0,0,0,326.59,369.5Z" transform="translate(-216.86 -216.22)" fill="#ff0a05" fill-rule="evenodd"/><path d="M330.26,363.82a67.81,67.81,0,0,0,14.62-16.13,81.5,81.5,0,0,0-10.15,10.37h0C333.14,359.93,331.7,361.87,330.26,363.82Z" transform="translate(-216.86 -216.22)" fill="#ff0f05" fill-rule="evenodd"/><path d="M273.74,421.06c-3.17.86-8.71-.36-15.62-3.53-1.87-.58-3.74-1.3-5.54-2,0,.07.07.07.07.14h0a79.74,79.74,0,0,0,19.58,11.16h0a35.59,35.59,0,0,0,12.1,2.09h0c6.84,0,12.46-1.8,15-4.82h0a9,9,0,0,0,1.87-3.31,97.86,97.86,0,0,1-14.69,1.15A93.16,93.16,0,0,1,273.74,421.06Z" transform="translate(-216.86 -216.22)" fill="red" fill-rule="evenodd"/><path d="M270.86,426.31c.43.14.86.36,1.37.5h0a35.59,35.59,0,0,0,12.1,2.09h0a27.51,27.51,0,0,0,10.3-1.73c-2.66.22-5.4.36-8.14.36A101.66,101.66,0,0,1,270.86,426.31Z" transform="translate(-216.86 -216.22)" fill="#e60000" fill-rule="evenodd"/><path d="M262.87,422.42a71,71,0,0,0,9.36,4.39h0a35.59,35.59,0,0,0,12.1,2.09h0c6.48,0,11.81-1.66,14.54-4.39a88,88,0,0,1-12.38.79A98.21,98.21,0,0,1,262.87,422.42Z" transform="translate(-216.86 -216.22)" fill="#d90000" fill-rule="evenodd"/><path d="M270.86,426.31a101.66,101.66,0,0,0,15.62,1.22c2.74,0,5.47-.14,8.14-.36a12.07,12.07,0,0,0,4.68-3.1h0a9.07,9.07,0,0,0,1.37-2,92,92,0,0,1-14.18,1.08,93.88,93.88,0,0,1-30.31-5A74.86,74.86,0,0,0,270.86,426.31Z" transform="translate(-216.86 -216.22)" fill="#c90000" fill-rule="evenodd"/><path d="M262.87,422.42a98.21,98.21,0,0,0,23.62,2.88,88,88,0,0,0,12.38-.79l.43-.43h0a10.07,10.07,0,0,0,2.16-4.39,85.23,85.23,0,0,1-15,1.22,94.83,94.83,0,0,1-11.16-.65,1,1,0,0,0-.29.22h0c-3.31,2.16-11.66.07-22-5.47h0a.34.34,0,0,0-.5.07h0a.44.44,0,0,0,.07.58h0A104.39,104.39,0,0,0,262.87,422.42Z" transform="translate(-216.86 -216.22)" fill="#b30000" fill-rule="evenodd"/><path d="M256.18,418.18a93.88,93.88,0,0,0,30.31,5,92,92,0,0,0,14.18-1.08,10.59,10.59,0,0,0,1.08-4.61,88.69,88.69,0,0,1-25.2.72,3.48,3.48,0,0,1-1.51,2.3h0c-3.31,2.16-11.66.07-22-5.47h0a.34.34,0,0,0-.5.07h0a.44.44,0,0,0,.07.58h0C253.87,416.52,255,417.38,256.18,418.18Z" transform="translate(-216.86 -216.22)" fill="#ab0000" fill-rule="evenodd"/><path d="M275.33,420.26a94.83,94.83,0,0,0,11.16.65,85.23,85.23,0,0,0,15-1.22,12.94,12.94,0,0,0,.22-4.46,88.3,88.3,0,0,1-15.19,1.3,90,90,0,0,1-9.94-.5,4.84,4.84,0,0,1,.07,1.44h0A3.72,3.72,0,0,1,275.33,420.26Z" transform="translate(-216.86 -216.22)" fill="#b50000" fill-rule="evenodd"/><path d="M276.55,418.18a88.69,88.69,0,0,0,25.2-.72,11.24,11.24,0,0,0-.14-2.66h0a14.75,14.75,0,0,0-.36-1.73,84.58,84.58,0,0,1-25.2.65,10.56,10.56,0,0,1,.58,3.74h0C276.62,417.67,276.55,418,276.55,418.18Z" transform="translate(-216.86 -216.22)" fill="#bf0000" fill-rule="evenodd"/><path d="M276.55,416a90,90,0,0,0,9.94.5,88.3,88.3,0,0,0,15.19-1.3c0-.14-.07-.29-.07-.43h0a26.74,26.74,0,0,0-.94-3.82,83.81,83.81,0,0,1-14.18,1.15,75.2,75.2,0,0,1-11.45-.79A14,14,0,0,1,276.55,416Z" transform="translate(-216.86 -216.22)" fill="#c90000" fill-rule="evenodd"/><path d="M276,413.71a84.58,84.58,0,0,0,25.2-.65,20.57,20.57,0,0,0-1.44-4.18,81.43,81.43,0,0,1-26,.07A34.12,34.12,0,0,1,276,413.71Z" transform="translate(-216.86 -216.22)" fill="#d40000" fill-rule="evenodd"/><path d="M275,411.34a75.2,75.2,0,0,0,11.45.79A83.81,83.81,0,0,0,300.67,411a29.93,29.93,0,0,0-1.87-4.18,76.83,76.83,0,0,1-12.31.94,84,84,0,0,1-14.26-1.22A39.17,39.17,0,0,1,275,411.34Z" transform="translate(-216.86 -216.22)" fill="#d90000" fill-rule="evenodd"/><path d="M273.82,409a81.43,81.43,0,0,0,26-.07,28.17,28.17,0,0,0-2.16-4.1,80.63,80.63,0,0,1-11.16.79,73.64,73.64,0,0,1-16.06-1.73c1.3,1.8,2.45,3.53,3.38,5.11ZM217.08,363.1c-.14.07-.22.43-.22.65h0a.56.56,0,0,0,.29.29h0a7.87,7.87,0,0,1,1.22.36,9,9,0,0,1-.72-1.44,1.69,1.69,0,0,1-.58.14Z" transform="translate(-216.86 -216.22)" fill="#de0000" fill-rule="evenodd"/><path d="M272.23,406.51a84,84,0,0,0,14.26,1.22,76.83,76.83,0,0,0,12.31-.94,40.12,40.12,0,0,0-2.38-4.1,75.11,75.11,0,0,1-9.94.65,76,76,0,0,1-18.22-2.23c1.51,1.87,2.81,3.67,4,5.4ZM217.08,363.1c-.14.07-.22.43-.22.65h0a.56.56,0,0,0,.29.29h0q2.05.65,4.32,1.51c-.5-1-1.08-2-1.58-3a27.52,27.52,0,0,0-2.81.58Z" transform="translate(-216.86 -216.22)" fill="#e60000" fill-rule="evenodd"/><path d="M217.66,363a9,9,0,0,0,.72,1.44,65.26,65.26,0,0,1,6.62,2.74c-1-1.58-1.94-3.24-2.81-4.9a27.21,27.21,0,0,0-4.54.72Zm52.78,40.9a73.64,73.64,0,0,0,16.06,1.73,80.63,80.63,0,0,0,11.16-.79,44.06,44.06,0,0,0-2.66-4.1,82.81,82.81,0,0,1-8.5.5,73.81,73.81,0,0,1-20.81-3C267.48,400.1,269.06,402,270.43,403.85Z" transform="translate(-216.86 -216.22)" fill="#eb0000" fill-rule="evenodd"/><path d="M219.89,362.52c.5,1,1.08,2,1.58,3,2.38,1,4.9,2.16,7.49,3.53a61.81,61.81,0,0,1-4.32-6.91,31.91,31.91,0,0,0-4.75.36Zm48.38,38.59a76,76,0,0,0,18.22,2.23,75.11,75.11,0,0,0,9.94-.65c-.94-1.3-1.94-2.66-3-4-2.3.22-4.61.29-6.91.29a72.3,72.3,0,0,1-23.83-4C264.67,396.94,266.62,399.1,268.27,401.11Z" transform="translate(-216.86 -216.22)" fill="#f00000" fill-rule="evenodd"/><path d="M222.19,362.23c.86,1.66,1.8,3.31,2.81,4.9a82.3,82.3,0,0,1,8.78,4.75,66.92,66.92,0,0,1-6.55-9.65c-.86-.07-1.73-.07-2.52-.07s-1.73.07-2.52.07Zm43.49,35.93a73.81,73.81,0,0,0,20.81,3,82.81,82.81,0,0,0,8.5-.5c-1-1.37-2.16-2.74-3.31-4.1q-2.59.22-5.18.22a67.81,67.81,0,0,1-27.86-5.9C261.22,393.34,263.59,395.86,265.68,398.16Z" transform="translate(-216.86 -216.22)" fill="#f50000" fill-rule="evenodd"/><path d="M224.64,362.16a61.81,61.81,0,0,0,4.32,6.91,142.66,142.66,0,0,1,12.6,7.92,65.14,65.14,0,0,1-11.66-14.54c-1.8-.14-3.53-.29-5.18-.29Zm38,32.76a72.3,72.3,0,0,0,23.83,4c2.3,0,4.61-.07,6.91-.29-1.15-1.37-2.3-2.74-3.6-4.1-1.15.07-2.23.07-3.31.07a66.3,66.3,0,0,1-34.92-9.94l.58.43h0C256,388.37,259.49,391.68,262.66,394.92Z" transform="translate(-216.86 -216.22)" fill="#fc0000" fill-rule="evenodd"/><path d="M227.23,362.23a66.92,66.92,0,0,0,6.55,9.65,134.86,134.86,0,0,1,18.36,13.25h0c2.23,1.87,4.39,3.82,6.48,5.76a67.81,67.81,0,0,0,27.86,5.9q2.59,0,5.18-.22c-1.22-1.3-2.59-2.74-4-4.1h-1.22a63.66,63.66,0,0,1-53.78-29.59C230.83,362.59,229,362.38,227.23,362.23Z" transform="translate(-216.86 -216.22)" fill="red" fill-rule="evenodd"/><path d="M229.9,362.45A65.14,65.14,0,0,0,241.56,377c3.38,2.38,6.77,4.9,10,7.63a65.71,65.71,0,0,0,34.92,10c1.08,0,2.16,0,3.31-.07-1.37-1.44-2.88-2.88-4.39-4.32a61.33,61.33,0,0,1-49.68-26.78C233.71,363,231.77,362.66,229.9,362.45Z" transform="translate(-216.86 -216.22)" fill="#ff0a04" fill-rule="evenodd"/><path d="M232.7,362.88a63.66,63.66,0,0,0,53.78,29.59h1.22c-1.51-1.51-3.17-3-4.9-4.54A59.23,59.23,0,0,1,239,364.25C236.81,363.67,234.72,363.24,232.7,362.88Z" transform="translate(-216.86 -216.22)" fill="#ff0a05" fill-rule="evenodd"/><path d="M235.73,363.46a61.33,61.33,0,0,0,49.68,26.78c-1.73-1.58-3.6-3.17-5.54-4.75a56.87,56.87,0,0,1-37.3-20.23A64.12,64.12,0,0,0,235.73,363.46Z" transform="translate(-216.86 -216.22)" fill="#ff0f05" fill-rule="evenodd"/><path d="M239,364.25a59.23,59.23,0,0,0,43.85,23.69c-2-1.73-4.25-3.53-6.55-5.18a54.8,54.8,0,0,1-29.45-16.06A74.92,74.92,0,0,0,239,364.25Z" transform="translate(-216.86 -216.22)" fill="#ff1107" fill-rule="evenodd"/><path d="M242.57,365.26a56.87,56.87,0,0,0,37.3,20.23c-2.66-2.16-5.54-4.25-8.57-6.26a52.69,52.69,0,0,1-18.94-10.3A103,103,0,0,0,242.57,365.26Z" transform="translate(-216.86 -216.22)" fill="#fe1108" fill-rule="evenodd"/><path d="M246.82,366.7a54.8,54.8,0,0,0,29.45,16.06c-2.09-1.58-4.32-3.1-6.55-4.54h0A115.67,115.67,0,0,0,246.82,366.7Z" transform="translate(-216.86 -216.22)" fill="#fe1508" fill-rule="evenodd"/><path d="M252.36,368.93a52.69,52.69,0,0,0,18.94,10.3c-.5-.36-1.08-.65-1.58-1h0A119.8,119.8,0,0,0,252.36,368.93Z" transform="translate(-216.86 -216.22)" fill="#fe1709" fill-rule="evenodd"/><path d="M397.44,309.46c2.09-4,1.08-8.5-.14-12.1h0c-.14-.43-.36-.86-.5-1.37a119.49,119.49,0,0,1,.72,12.53C397.51,308.81,397.44,309.1,397.44,309.46Z" transform="translate(-216.86 -216.22)" fill="red" fill-rule="evenodd"/><path d="M397.94,308.38c1.3-3.6.5-7.42-.5-10.58C397.73,301.25,397.94,304.78,397.94,308.38Z" transform="translate(-216.86 -216.22)" fill="#e60000" fill-rule="evenodd"/><path d="M395.42,312.19c.36-.36.72-.79,1.08-1.22h0c3.31-4.39,2.16-9.58.79-13.61h0a45.44,45.44,0,0,0-3.38-7.2,103,103,0,0,1,1.58,18.36C395.5,309.74,395.5,311,395.42,312.19Z" transform="translate(-216.86 -216.22)" fill="#d90000" fill-rule="evenodd"/><path d="M397.94,308.38c0-3.6-.22-7.13-.5-10.58a1,1,0,0,1-.14-.43h0a61.47,61.47,0,0,0-7.06-13A103,103,0,0,1,393,308.52c0,1.94-.07,3.89-.14,5.76a14.41,14.41,0,0,0,3.6-3.31h0A11.67,11.67,0,0,0,397.94,308.38Z" transform="translate(-216.86 -216.22)" fill="#c90000" fill-rule="evenodd"/><path d="M395.5,308.52a103,103,0,0,0-1.58-18.36,63,63,0,0,0-7.49-10.73,102.19,102.19,0,0,1,4.18,29.09c0,2.38-.07,4.75-.22,7.06a14.46,14.46,0,0,0,5-3.38C395.5,311,395.5,309.74,395.5,308.52Z" transform="translate(-216.86 -216.22)" fill="#b30000" fill-rule="evenodd"/><path d="M393,308.52a103,103,0,0,0-2.81-24.19,44.08,44.08,0,0,0-6.84-8h0a.61.61,0,0,0-.5,0c.14.58.36,1.08.5,1.66,3.17,5.69,4.39,10.8,3.38,14a97,97,0,0,1,1.37,16.56c0,2.66-.07,5.33-.29,7.92a17.76,17.76,0,0,0,5-2.16C393,312.41,393,310.46,393,308.52Z" transform="translate(-216.86 -216.22)" fill="#ab0000" fill-rule="evenodd"/><path d="M390.6,308.52a102.19,102.19,0,0,0-4.18-29.09c-1.08-1.15-2.09-2.23-3-3.1h0a.61.61,0,0,0-.5,0h0a.48.48,0,0,0-.14.5h0c4.32,7.2,5.54,13.75,3.24,16.7h0a10.12,10.12,0,0,1-1.22,1.3,94.84,94.84,0,0,1,1,13.68,82.51,82.51,0,0,1-.43,8.42,20.64,20.64,0,0,0,5-1.37C390.53,313.27,390.6,310.9,390.6,308.52Z" transform="translate(-216.86 -216.22)" fill="#b50000" fill-rule="evenodd"/><path d="M388.15,308.52A97,97,0,0,0,386.78,292a3.66,3.66,0,0,1-.79,1.58h0a7.69,7.69,0,0,1-3.53,2.59,88,88,0,0,1,.86,12.38,84.65,84.65,0,0,1-.43,8.64,25.77,25.77,0,0,0,5-.72c.22-2.59.29-5.26.29-7.92ZM383.4,278c-.14-.58-.36-1.08-.5-1.66h0a.48.48,0,0,0-.14.5h0C383,277.27,383.18,277.63,383.4,278Z" transform="translate(-216.86 -216.22)" fill="#bf0000" fill-rule="evenodd"/><path d="M385.78,308.52a94.84,94.84,0,0,0-1-13.68,11.24,11.24,0,0,1-4.61,2,103.52,103.52,0,0,1,.72,11.66,84.65,84.65,0,0,1-.43,8.64,3.51,3.51,0,0,0,.86.07h0a34.23,34.23,0,0,0,4-.29A82.51,82.51,0,0,0,385.78,308.52Z" transform="translate(-216.86 -216.22)" fill="#c90000" fill-rule="evenodd"/><path d="M383.33,308.52a88,88,0,0,0-.86-12.38,13.58,13.58,0,0,1-4.75,1,99.49,99.49,0,0,1,.72,11.38A82.87,82.87,0,0,1,378,317a26.43,26.43,0,0,0,3.31.22h0c.58,0,1.08-.07,1.58-.07A84.65,84.65,0,0,0,383.33,308.52Z" transform="translate(-216.86 -216.22)" fill="#d40000" fill-rule="evenodd"/><path d="M380.88,308.52a103.52,103.52,0,0,0-.72-11.66,16.68,16.68,0,0,1-3.31.29h0a11.67,11.67,0,0,1-1.58-.07,99.71,99.71,0,0,1,.72,11.45c0,2.81-.14,5.54-.36,8.21a27.93,27.93,0,0,0,4.82.43A84.65,84.65,0,0,0,380.88,308.52Z" transform="translate(-216.86 -216.22)" fill="#d90000" fill-rule="evenodd"/><path d="M378.43,308.52a99.49,99.49,0,0,0-.72-11.38h-.86a20.21,20.21,0,0,1-4.1-.36,90.07,90.07,0,0,1,.79,11.74c0,2.66-.14,5.18-.36,7.78A39.09,39.09,0,0,0,378,317a82.87,82.87,0,0,0,.43-8.5Zm-26.06-56.3a10.74,10.74,0,0,1,1.51-.14h0a.48.48,0,0,0,.29-.36h0a.32.32,0,0,0-.22-.43h0c-.94-.43-2.74-1.3-4.32-2C350.57,250.2,351.43,251.21,352.37,252.22Z" transform="translate(-216.86 -216.22)" fill="#de0000" fill-rule="evenodd"/><path d="M376,308.52a99.71,99.71,0,0,0-.72-11.45,20.55,20.55,0,0,1-5-.86,87,87,0,0,1,.86,12.31c0,2.45-.07,4.82-.29,7.2a38.33,38.33,0,0,0,4.82,1c.22-2.66.36-5.4.36-8.21Zm-26.35-55.66a24.73,24.73,0,0,1,4.25-.79h0a.48.48,0,0,0,.29-.36h0a.32.32,0,0,0-.22-.43h0l-7.42-3.46h0c-.07,0-1.22-.58-3.46-1.44A79.43,79.43,0,0,1,349.63,252.86Z" transform="translate(-216.86 -216.22)" fill="#e60000" fill-rule="evenodd"/><path d="M373.54,308.52a90.07,90.07,0,0,0-.79-11.74,29.11,29.11,0,0,1-5.18-1.37,78.5,78.5,0,0,1,1.08,13.1q0,3.35-.22,6.48a38.84,38.84,0,0,0,4.75,1.3c.22-2.59.36-5.11.36-7.78Zm-21.17-56.3c-.94-1-1.8-2-2.74-3-1.73-.79-3.1-1.44-3.1-1.44h0a68.48,68.48,0,0,0-9.94-3.6,78.49,78.49,0,0,1,10.58,9.58A20.87,20.87,0,0,1,352.37,252.22Z" transform="translate(-216.86 -216.22)" fill="#eb0000" fill-rule="evenodd"/><path d="M371.09,308.52a87,87,0,0,0-.86-12.31,31.36,31.36,0,0,1-5.33-1.87,77,77,0,0,1,1.3,14.18c0,1.94-.07,3.82-.22,5.69,1.66.58,3.24,1.08,4.82,1.51.22-2.38.29-4.75.29-7.2Zm-21.46-55.66a79.43,79.43,0,0,0-6.55-6.48,100.35,100.35,0,0,0-13.25-3.89A76.5,76.5,0,0,1,345,255,14.77,14.77,0,0,1,349.63,252.86Z" transform="translate(-216.86 -216.22)" fill="#f00000" fill-rule="evenodd"/><path d="M368.64,308.52a78.5,78.5,0,0,0-1.08-13.1,44.71,44.71,0,0,1-5.4-2.45,74,74,0,0,1,1.58,15.55c0,1.66,0,3.24-.14,4.82,1.66.65,3.24,1.22,4.82,1.73.14-2.16.22-4.32.22-6.55ZM347.18,253.8a78.49,78.49,0,0,0-10.58-9.58c-2.81-.79-6.26-1.66-10.22-2.45h0c-1.22-.22-2.52-.43-3.82-.58a74.53,74.53,0,0,1,20.59,15.41A10.85,10.85,0,0,1,347.18,253.8Z" transform="translate(-216.86 -216.22)" fill="#f50000" fill-rule="evenodd"/><path d="M366.19,308.52a77,77,0,0,0-1.3-14.18c-1.15-.58-2.38-1.15-3.53-1.87h0a16.47,16.47,0,0,1-2.09-1.3,72.48,72.48,0,0,1,2.09,17.35c0,1.3-.07,2.52-.14,3.82a49.82,49.82,0,0,0,4.75,1.87c.14-1.87.22-3.74.22-5.69ZM345,255a76.5,76.5,0,0,0-15.12-12.53c-1.15-.22-2.3-.5-3.46-.72h0a73.54,73.54,0,0,0-11.09-1.22,72.77,72.77,0,0,1,26.5,18.22,11.46,11.46,0,0,1,.94-1.58h0A8,8,0,0,1,345,255Z" transform="translate(-216.86 -216.22)" fill="#fc0000" fill-rule="evenodd"/><path d="M363.74,308.52A74,74,0,0,0,362.16,293a4.84,4.84,0,0,1-.79-.5h0a38.06,38.06,0,0,1-4.82-3.31h0c-.14-.14-.29-.22-.43-.36a71.38,71.38,0,0,1,2.81,19.73c0,.94-.07,1.8-.07,2.66q2.38,1.19,4.75,2.16c.14-1.58.14-3.17.14-4.82Zm-20.59-51.91a74.53,74.53,0,0,0-20.59-15.41,87.61,87.61,0,0,0-12-.79c-1,0-2,.07-3,.07a70.83,70.83,0,0,1,33.34,21,10.55,10.55,0,0,1,1.8-4.25h0C342.79,257,343,256.82,343.15,256.61Z" transform="translate(-216.86 -216.22)" fill="red" fill-rule="evenodd"/><path d="M361.37,308.52a72.48,72.48,0,0,0-2.09-17.35,20.71,20.71,0,0,1-2.74-2h0a47.94,47.94,0,0,1-4-3.6,69.32,69.32,0,0,1,4,23V310q2.38,1.3,4.75,2.38c.07-1.3.14-2.52.14-3.82Zm-19.58-49.75a72.77,72.77,0,0,0-26.5-18.22c-1.51-.07-3-.14-4.68-.14a107.52,107.52,0,0,0-11.66.65,68.55,68.55,0,0,1,41.76,23.83A12.54,12.54,0,0,1,341.78,258.77Z" transform="translate(-216.86 -216.22)" fill="#ff0a04" fill-rule="evenodd"/><path d="M358.92,308.52a71.38,71.38,0,0,0-2.81-19.73,53.47,53.47,0,0,1-8.5-8.64A65.58,65.58,0,0,1,354,308.52v.07c1.58.94,3.24,1.8,4.82,2.59,0-.86.07-1.73.07-2.66Zm-18-47.09a70.83,70.83,0,0,0-33.34-21,114.73,114.73,0,0,0-14.83,1.37h0a17.79,17.79,0,0,0-3.24.79,65.63,65.63,0,0,1,52.49,28A16.8,16.8,0,0,1,340.92,261.43Z" transform="translate(-216.86 -216.22)" fill="#ff0a05" fill-rule="evenodd"/><path d="M356.47,308.52a69.32,69.32,0,0,0-4-23c-6.55-6.34-11.38-14-11.81-20.66a68.55,68.55,0,0,0-41.76-23.83c-2.09.22-4.18.43-6.19.79h0a13.19,13.19,0,0,0-7.27,3.31c.86-.07,1.8-.07,2.74-.07a63,63,0,0,1,34.92,10.51c1.08.22,1.8.43,2.16.5h0c-.14.22-.29.36-.5.65a63.43,63.43,0,0,1,26.78,50.33c1.58,1,3.24,2,4.9,2.88v-1.44ZM229.68,284A49,49,0,0,0,225,295.56h0a53.42,53.42,0,0,0,7.49,43.34A63.72,63.72,0,0,1,229.68,284Z" transform="translate(-216.86 -216.22)" fill="#ff0f05" fill-rule="evenodd"/><path d="M354,308.52a65.58,65.58,0,0,0-6.41-28.37,37.4,37.4,0,0,1-5.62-9.5,65.63,65.63,0,0,0-52.49-28,10.78,10.78,0,0,0-6,5c1.58-.07,3.1-.14,4.68-.14a60.51,60.51,0,0,1,28.3,7c4.25.58,7.92,1.37,8.78,1.58h0a17.75,17.75,0,0,0-1.8,2.74,60.89,60.89,0,0,1,25.56,46.66c.58.36,1.15.72,1.8,1.15h0c1,.65,2.09,1.3,3.17,1.94v-.07ZM237,275.4h0a23.52,23.52,0,0,0-4.82,4.54h0A54.25,54.25,0,0,0,225,295.56h0a53.31,53.31,0,0,0,13.75,50.9h0a60.67,60.67,0,0,0,7.42,6.34,61.14,61.14,0,0,1-19-44.28A60.46,60.46,0,0,1,237,275.4Z" transform="translate(-216.86 -216.22)" fill="#ff1107" fill-rule="evenodd"/><path d="M351.58,307.08a63.43,63.43,0,0,0-26.78-50.33,16.28,16.28,0,0,0-2.23,4.39,58.37,58.37,0,0,1,23.9,42.62c1.44.94,2.88,1.94,4.39,2.88h0a6.33,6.33,0,0,0,.72.43ZM323.14,255.6a63,63,0,0,0-34.92-10.51c-.94,0-1.87,0-2.74.07a9.44,9.44,0,0,0-2.81,5c1.8-.14,3.67-.22,5.54-.22a57.33,57.33,0,0,1,21.17,4c.94,0,1.87.07,2.59.07h0a96.1,96.1,0,0,1,11.16,1.58ZM229.68,284a63.72,63.72,0,0,0,2.81,54.86,60.09,60.09,0,0,0,6.26,7.56h0a53.58,53.58,0,0,0,20.66,13.1,58.64,58.64,0,0,1-29.81-51,57.69,57.69,0,0,1,5.26-24.19,51.16,51.16,0,0,1,2.66-8.42h0a.45.45,0,0,0-.14-.5h0a.45.45,0,0,0-.43,0h0a23.52,23.52,0,0,0-4.82,4.54h0c-.86,1.37-1.73,2.74-2.45,4.1ZM282.6,250.2a35.54,35.54,0,0,0-17.35,2.88h0a18.54,18.54,0,0,0-7.7,5.54A58.53,58.53,0,0,1,282.6,250.2Z" transform="translate(-216.86 -216.22)" fill="#fe1108" fill-rule="evenodd"/><path d="M349.06,305.5a60.89,60.89,0,0,0-25.56-46.66,19.72,19.72,0,0,0-1.66,4.82,56,56,0,0,1,22,38.09c1.66,1.3,3.38,2.52,5.18,3.74Zm-32.54-51a60.51,60.51,0,0,0-28.3-7c-1.58,0-3.1.07-4.68.14a10.31,10.31,0,0,0-.86,2.52h0a35,35,0,0,0-17.42,2.88h0c-5.26,2.16-8.71,5.62-10.22,10.15a56.13,56.13,0,0,1,33.19-10.8,54.33,54.33,0,0,1,14.18,1.8,25.49,25.49,0,0,1,4.32-.29h0s3.38-.07,5.26.07h0c1.51.14,3,.29,4.54.5ZM237,275.4a60.46,60.46,0,0,0-9.79,33.12,61.14,61.14,0,0,0,19,44.28,49.24,49.24,0,0,0,24.62,9.07,56.18,56.18,0,0,1-38.74-53.35,60.29,60.29,0,0,1,1.3-12,58,58,0,0,1,4.18-20.59h0a.45.45,0,0,0-.14-.5h0A.45.45,0,0,0,237,275.4Z" transform="translate(-216.86 -216.22)" fill="#fe1508" fill-rule="evenodd"/><path d="M346.46,303.77a58.37,58.37,0,0,0-23.9-42.62,21.76,21.76,0,0,0-1.08,5.33,53.59,53.59,0,0,1,19.58,33c1.73,1.51,3.53,2.88,5.4,4.25Zm-37.08-49.82a57.33,57.33,0,0,0-21.17-4c-1.87,0-3.74.07-5.54.22h-.07a58.53,58.53,0,0,0-25.06,8.42,15.23,15.23,0,0,0-2.59,4.9h0a17.68,17.68,0,0,0-.72,3.38,53.56,53.56,0,0,1,34-12,52.85,52.85,0,0,1,9.65.86c1.37-.94,3.89-1.8,8.86-1.8h2.66Zm-74.52,30.38a57.69,57.69,0,0,0-5.26,24.19,58.64,58.64,0,0,0,29.81,51,46.73,46.73,0,0,0,15,2.45h0a40.62,40.62,0,0,0,5.9-.36,53.75,53.75,0,0,1-45.86-53.14v-1.37A51.12,51.12,0,0,1,234.86,284.33Z" transform="translate(-216.86 -216.22)" fill="#fe1709" fill-rule="evenodd"/><path d="M343.87,301.75a56,56,0,0,0-22-38.09,20.6,20.6,0,0,0-.22,6A51.45,51.45,0,0,1,338,296.86a55.19,55.19,0,0,0,5.83,4.9ZM302.4,254.23a54.33,54.33,0,0,0-14.18-1.8A56.13,56.13,0,0,0,255,263.23c0,.14-.07.22-.07.29h0a18.62,18.62,0,0,0-.72,6.7,50.82,50.82,0,0,1,34-13,52.82,52.82,0,0,1,8.28.72,2,2,0,0,1,.29-1.08h0c.43-.86,1.8-2.09,5.62-2.66Zm-69,42.26a60.29,60.29,0,0,0-1.3,12,56.18,56.18,0,0,0,38.74,53.35,31.31,31.31,0,0,0,3.67.14h0a45.17,45.17,0,0,0,14.11-2.23h-.36a51.29,51.29,0,0,1-50.76-43.92A47.16,47.16,0,0,1,233.35,296.5Z" transform="translate(-216.86 -216.22)" fill="#fe1809" fill-rule="evenodd"/><path d="M341.06,299.52a53.59,53.59,0,0,0-19.58-33,24.9,24.9,0,0,0,.86,7.27,48.44,48.44,0,0,1,12.17,19.66,75.66,75.66,0,0,0,6.55,6.12Zm-43.2-43.78a52.85,52.85,0,0,0-9.65-.86,53.56,53.56,0,0,0-34,12,26.46,26.46,0,0,0,.29,6.26,48.72,48.72,0,0,1,20.66-11.66c3.6-2,9.58-2.59,17.35-1.58,1.51.14,3,.36,4.39.58.07,0,.07-.07.14-.14h0a.45.45,0,0,0,0-.43h0a2.82,2.82,0,0,1-.29-3h0a3.17,3.17,0,0,1,1.08-1.15ZM234.5,307.15v1.37a53.75,53.75,0,0,0,45.86,53.14,44.59,44.59,0,0,0,15.26-4.9,50.67,50.67,0,0,1-7.42.58,48.88,48.88,0,0,1-46.66-34.27A46.64,46.64,0,0,1,234.5,307.15Z" transform="translate(-216.86 -216.22)" fill="#fe1a0a" fill-rule="evenodd"/><path d="M338,296.86a51.45,51.45,0,0,0-16.42-27.14A28.69,28.69,0,0,0,325,280.37a55,55,0,0,1,4.32,6.84,72.75,72.75,0,0,0,8.71,9.65ZM296.5,258a52.82,52.82,0,0,0-8.28-.72,50.82,50.82,0,0,0-34,13,29,29,0,0,0,.94,5.76,46.78,46.78,0,0,1,16.63-10.8,5.57,5.57,0,0,1,.5-1.15h0c2.88-4.46,11.59-5.76,24.34-3.46h0a.51.51,0,0,0,.43-.22h0a.45.45,0,0,0,0-.43h0a3,3,0,0,1-.58-1.94Zm-59,57.89a51.29,51.29,0,0,0,50.76,43.92h.36a44.71,44.71,0,0,0,13.1-6.84,49.08,49.08,0,0,1-13.46,1.94,46.29,46.29,0,0,1-41.4-25.49c-1.08-1.15-2.16-2.3-3.17-3.6h0A46.84,46.84,0,0,1,237.46,315.86Z" transform="translate(-216.86 -216.22)" fill="#fe1d0c" fill-rule="evenodd"/><path d="M334.51,293.4a48.44,48.44,0,0,0-12.17-19.66,37.3,37.3,0,0,0,6,12.17h0a66.25,66.25,0,0,0,6.12,7.49Zm-37.58-32.9c-1.44-.22-2.88-.43-4.39-.58q1.94.22,4.1.65h0c.14,0,.22,0,.29-.07Zm-21.74,1a48.72,48.72,0,0,0-20.66,11.66,41.6,41.6,0,0,0,1.51,5.47A44.6,44.6,0,0,1,271.3,268a7.38,7.38,0,0,1,1-4h0a8.2,8.2,0,0,1,2.88-2.52Zm-33.62,61.56a48.88,48.88,0,0,0,46.66,34.27,50.67,50.67,0,0,0,7.42-.58,44.09,44.09,0,0,0,11-8.35,44.09,44.09,0,0,1-53.86-13.82,45.42,45.42,0,0,1-9.14-8.78h0C242.93,324.94,242.21,324,241.56,323.06Z" transform="translate(-216.86 -216.22)" fill="#fe200c" fill-rule="evenodd"/><path d="M329.33,287.21a55,55,0,0,0-4.32-6.84,39.58,39.58,0,0,0,3.38,5.54h0a14.6,14.6,0,0,0,.94,1.3Zm-57.53-22A46.78,46.78,0,0,0,255.17,276a45.61,45.61,0,0,0,1.87,5.18,41,41,0,0,1,14.69-10.73,7.7,7.7,0,0,1,.07-5.26Zm-25,64.22a46.29,46.29,0,0,0,41.4,25.49,49.08,49.08,0,0,0,13.46-1.94,44,44,0,0,0,9-9.58A41.15,41.15,0,0,1,288.22,350a41.67,41.67,0,0,1-29.3-12A37,37,0,0,1,246.82,329.4Z" transform="translate(-216.86 -216.22)" fill="#fe230d" fill-rule="evenodd"/><path d="M271.3,268A44.6,44.6,0,0,0,256,278.64a40.73,40.73,0,0,0,2.16,4.9,39.27,39.27,0,0,1,23-13.39H281a19.09,19.09,0,0,0-8.78,1.8h0a12.56,12.56,0,0,1-.94-4Zm-18.5,66.6a44.09,44.09,0,0,0,53.86,13.82,43.07,43.07,0,0,0,7.27-10.58,39,39,0,0,1-49.32,1.8A30.72,30.72,0,0,1,252.79,334.58Z" transform="translate(-216.86 -216.22)" fill="#fe250e" fill-rule="evenodd"/><path d="M271.73,270.43A41,41,0,0,0,257,281.16c.65,1.51,1.51,3.1,2.38,4.75a36.63,36.63,0,0,1,28.8-14c1,0,2,0,3,.07A28.52,28.52,0,0,0,281,270.14h0a19.09,19.09,0,0,0-8.78,1.8h0a12.41,12.41,0,0,1-.5-1.51ZM258.91,338a41.67,41.67,0,0,0,29.3,12,41.15,41.15,0,0,0,22.46-6.62,45.24,45.24,0,0,0,5.69-11.52,36.44,36.44,0,0,1-46.66,8.28h-.14A27.63,27.63,0,0,1,258.91,338Z" transform="translate(-216.86 -216.22)" fill="#fe280e" fill-rule="evenodd"/><path d="M281.16,270.14a39,39,0,0,0-23,13.39,47.56,47.56,0,0,0,2.52,4.54h0c.07,0,.07,0,.07.07a34.19,34.19,0,0,1,27.43-13.75,33.16,33.16,0,0,1,10.08,1.51,35.59,35.59,0,0,0-3.53-2.16h0a27.93,27.93,0,0,0-13.61-3.6ZM264.6,339.62a39,39,0,0,0,49.32-1.8,46.42,46.42,0,0,0,4.1-12.74,34,34,0,0,1-43.85,14.62,23.83,23.83,0,0,1-4.61.43h0A23.27,23.27,0,0,1,264.6,339.62Z" transform="translate(-216.86 -216.22)" fill="#fe2a0f" fill-rule="evenodd"/><path d="M291.17,272c-.94-.07-1.94-.07-3-.07a36.63,36.63,0,0,0-28.8,14l1.3,2.16h0a.55.55,0,0,0,.36.14h0a.4.4,0,0,0,.36-.22h0a10.74,10.74,0,0,1,9.79-6.26,31.7,31.7,0,0,1,17-4.9,31,31,0,0,1,18.07,5.69,49,49,0,0,0-11.52-8.78h0c-1.22-.65-2.38-1.22-3.6-1.73Zm-21.46,68.11a36.44,36.44,0,0,0,46.66-8.28,54.48,54.48,0,0,0,2.45-15.12h0v-.22a31.59,31.59,0,0,1-30.6,23.76,32.26,32.26,0,0,1-9.94-1.58A28.51,28.51,0,0,1,269.71,340.13Z" transform="translate(-216.86 -216.22)" fill="#fe2d11" fill-rule="evenodd"/><path d="M298.3,275.9a33.16,33.16,0,0,0-10.08-1.51,34.19,34.19,0,0,0-27.43,13.75.43.43,0,0,0,.29.07h0a.4.4,0,0,0,.36-.22h0a10.9,10.9,0,0,1,10.3-6.26h0a16.6,16.6,0,0,1,3.74.43,29.28,29.28,0,1,1,12.74,55.66,25.72,25.72,0,0,1-6.26-.72,29.07,29.07,0,0,1-7.78,2.59A34,34,0,0,0,318,325.08a62,62,0,0,0,.79-8.35h0C319.32,295.13,308.59,282.74,298.3,275.9Z" transform="translate(-216.86 -216.22)" fill="#fe2f11" fill-rule="evenodd"/><path d="M306.29,282.53a31,31,0,0,0-18.07-5.69,31.7,31.7,0,0,0-17,4.9h.5a19.16,19.16,0,0,1,7.34,1.51,27.41,27.41,0,0,1,9.14-1.58,26.86,26.86,0,0,1,0,53.71c-1,0-2-.07-3-.14a28.23,28.23,0,0,1-6.91,3.46,32.26,32.26,0,0,0,9.94,1.58,31.59,31.59,0,0,0,30.6-23.76C319.18,300.74,313.49,289.87,306.29,282.53Z" transform="translate(-216.86 -216.22)" fill="#fe3113" fill-rule="evenodd"/><path d="M317.45,308.52a29.19,29.19,0,0,0-42-26.35,25.89,25.89,0,0,1,6.84,2.66,26.5,26.5,0,0,1,5.9-.72,24.41,24.41,0,0,1,0,48.82h-.07A26,26,0,0,1,282,337.1a25.72,25.72,0,0,0,6.26.72A29.27,29.27,0,0,0,317.45,308.52Z" transform="translate(-216.86 -216.22)" fill="#fe3313" fill-rule="evenodd"/><path d="M315,308.52a26.79,26.79,0,0,0-26.78-26.86,27.41,27.41,0,0,0-9.14,1.58,26,26,0,0,1,6.12,3.53,21.36,21.36,0,0,1,3-.22,22,22,0,0,1,2.59,43.78,30.81,30.81,0,0,1-5.62,4.9c1,.07,2,.14,3,.14A26.79,26.79,0,0,0,315,308.52Z" transform="translate(-216.86 -216.22)" fill="#fe3615" fill-rule="evenodd"/><path d="M312.55,308.52a24.37,24.37,0,0,0-24.34-24.41,26.5,26.5,0,0,0-5.9.72,34.42,34.42,0,0,1,5.62,4.18h.29a19.55,19.55,0,0,1,4.9,38.45,29.47,29.47,0,0,1-5,5.47h.07A24.37,24.37,0,0,0,312.55,308.52Z" transform="translate(-216.86 -216.22)" fill="#fd3916" fill-rule="evenodd"/><path d="M310.1,308.52a21.94,21.94,0,0,0-21.89-22,21.36,21.36,0,0,0-3,.22,29.45,29.45,0,0,1,5.11,4.82,17,17,0,0,1,4.75,32.54,28.74,28.74,0,0,1-4.25,6.19A21.9,21.9,0,0,0,310.1,308.52Z" transform="translate(-216.86 -216.22)" fill="#fd3e18" fill-rule="evenodd"/><path d="M307.66,308.52A19.42,19.42,0,0,0,288.22,289h-.29a30.91,30.91,0,0,1,4.61,5.54,14.65,14.65,0,0,1,10.3,14,14.47,14.47,0,0,1-6.34,12,25.62,25.62,0,0,1-3.38,6.91A19.55,19.55,0,0,0,307.66,308.52Z" transform="translate(-216.86 -216.22)" fill="#fd461a" fill-rule="evenodd"/><path d="M305.28,308.52a17,17,0,0,0-15-16.92,26.16,26.16,0,0,1,3.6,5.26h0c.22.43.36.79.58,1.22a12.28,12.28,0,0,1,5.9,10.44,12.15,12.15,0,0,1-3.1,8.14v.58h0a21,21,0,0,1-2.23,6.91A17,17,0,0,0,305.28,308.52Z" transform="translate(-216.86 -216.22)" fill="#fd4b1e" fill-rule="evenodd"/><path d="M302.83,308.52a14.65,14.65,0,0,0-10.3-14,24.27,24.27,0,0,1,1.37,2.3h0a49.9,49.9,0,0,1,2.88,7,10,10,0,0,1,1.15,4.68,10.28,10.28,0,0,1-.22,2.09,43.72,43.72,0,0,1-.43,6.62h0a18.44,18.44,0,0,1-.79,3.31A14.47,14.47,0,0,0,302.83,308.52Z" transform="translate(-216.86 -216.22)" fill="#fd5020" fill-rule="evenodd"/><path d="M300.38,308.52a12.28,12.28,0,0,0-5.9-10.44c3.74,7.7,3.6,12.24,2.81,18.58A12.15,12.15,0,0,0,300.38,308.52Z" transform="translate(-216.86 -216.22)" fill="#fd5822" fill-rule="evenodd"/><path d="M297.94,308.52a10,10,0,0,0-1.15-4.68,25.9,25.9,0,0,1,.94,6.77A10.28,10.28,0,0,0,297.94,308.52Z" transform="translate(-216.86 -216.22)" fill="#fd5d26" fill-rule="evenodd"/><path d="M292.25,460s-12.46,28.08-13.54,30.6a14.19,14.19,0,0,0-1,7.42h28.22V491.4H291.82s11.59-26.93,12.89-29.66a12.53,12.53,0,0,0,.94-7.7H280.8a3.6,3.6,0,0,0-3.24,3.89V460Z" transform="translate(-216.86 -216.22)" fill="red"/><path d="M261.94,475.56c0,1-1.51,1.8-3.38,1.8h0v6h0c8.78.65,15.84-3.53,15.84-8.14V460.8c0-4.61-7.06-8.35-15.84-8.35h0v5.76a3.61,3.61,0,0,1,3.38,3.89Zm-3.38,1.8c-1.87,0-3.38-.79-3.38-1.8V458.28a8.47,8.47,0,0,1,3.38-.07v-5.76c-8.71,0-15.84,3.74-15.84,8.35v34.06c.36,2.45,2.38,3,4.1,3.17h8.42V482.83a24.45,24.45,0,0,0,3.31.5Z" transform="translate(-216.86 -216.22)" fill="red"/><path d="M329,475.56c0,1-1.51,1.8-3.38,1.8h0v6h0c8.78.65,15.84-3.53,15.84-8.14V460.8c0-4.61-7.13-8.35-15.84-8.35h0v5.76A3.66,3.66,0,0,1,329,462.1Zm-3.38,1.8c-1.87,0-3.38-.79-3.38-1.8V458.28a8.33,8.33,0,0,1,3.38-.07v-5.76c-8.78,0-15.84,3.74-15.84,8.35v34.06c.36,2.45,2.3,3,4,3.17h8.42V482.83a25.52,25.52,0,0,0,3.38.5Z" transform="translate(-216.86 -216.22)" fill="red"/><path d="M377.86,498V453.67h-3c-1.87.07-4.1.94-4.18,3.89v27l-.65-2-9.5-25.92a5.07,5.07,0,0,0-4.25-2.88h-9.86v40.39c.14,3,2.38,3.82,4.25,3.89h3V467.71L354,469,364,495.14a4.92,4.92,0,0,0,4.18,2.88Z" transform="translate(-216.86 -216.22)" fill="red"/></svg>