<svg xmlns="http://www.w3.org/2000/svg" viewBox="0 0 93.67 124.27"><defs><style>.cls-1{fill:#231f20;}.cls-2,.cls-7{fill:#cdb87d;}.cls-3{fill:#ee3524;}.cls-4{fill:#fff;}.cls-5,.cls-8{fill:none;stroke:#231f20;}.cls-5{stroke-linecap:round;stroke-linejoin:round;stroke-width:0.29px;}.cls-6{fill:#004fa3;}.cls-7,.cls-8{fill-rule:evenodd;}.cls-8{stroke-miterlimit:10;stroke-width:0.61px;}</style></defs><title>Eszköz 1</title><g id="Réteg_2" data-name="Réteg 2"><g id="Layer_1" data-name="Layer 1"><path class="cls-1" d="M46.51,97.06c1.08-1.52,3-1.08,4,.28a1.65,1.65,0,0,0,1.08.44,2.58,2.58,0,0,0,.79-.15c3.75-2.3,6.2-5.11,8.93-8.42v22.17l16,12.89H15.84l16-12.89V89.21c2.81,3.31,5.33,6.12,9,8.42a1.25,1.25,0,0,0,.65.15,1.65,1.65,0,0,0,1.15-.44c.94-1.36,2.88-1.8,3.89-.28Z"/><path class="cls-2" d="M53,99.07a3,3,0,0,1-1.44.29,3,3,0,0,1-2.3-.94c-.87-1.36-1.8-.57-1.66.8l.07.93H45.43c0-.57.29-2.23-.57-2.45-.44-.07-.87.44-1.08.72a3,3,0,0,1-2.31.94A3.18,3.18,0,0,1,40,99.07a33.93,33.93,0,0,1-6.62-5.47v18.58l-13,10.44H72.72l-13-10.44V93.6A33.3,33.3,0,0,1,53.14,99l-.15.07Z"/><path class="cls-1" d="M46.51,97.06c1.08-1.52,3-1.08,4,.28a1.65,1.65,0,0,0,1.08.44,2.58,2.58,0,0,0,.79-.15,41.71,41.71,0,0,0,5.4-4.25V113l10.08,8.06H25.34L35.42,113V93.38a34,34,0,0,0,5.4,4.25,1.25,1.25,0,0,0,.65.15,1.65,1.65,0,0,0,1.15-.44c.94-1.36,2.88-1.8,3.89-.28Z"/><path class="cls-3" d="M53,99.07a3,3,0,0,1-1.44.29,3,3,0,0,1-2.3-.94c-.87-1.36-1.8-.57-1.66.8l.07.93H45.43c0-.57.29-2.23-.57-2.45-.44-.07-.87.44-1.08.72a3,3,0,0,1-2.31.94A3.18,3.18,0,0,1,40,99.07a31.89,31.89,0,0,1-3-2.16v16.85l-7.13,5.76H63.29l-7.2-5.76V96.91a29.28,29.28,0,0,1-3,2.09l-.15.07Z"/><path class="cls-1" d="M46.51,97.06c1.08-1.52,3-1.08,4,.28a1.51,1.51,0,0,0,1.08.44c.94.79.94,18,.94,18H40.61v-18h.86a1.65,1.65,0,0,0,1.15-.44c.94-1.36,2.88-1.8,3.89-.28Z"/><path class="cls-2" d="M50.83,99.29a3.43,3.43,0,0,1-1.58-.87c-.87-1.36-1.8-.57-1.66.8l.07.93H45.43c0-.57.29-2.23-.57-2.45-.44-.07-.87.44-1.08.72a3.15,3.15,0,0,1-1.59.87v14.9h8.64V99.29Z"/><path class="cls-1" d="M46.51,97.06a2.54,2.54,0,0,1,1.37-.94L49,96v16H44V96l1.15.14a2.31,2.31,0,0,1,1.37.94Z"/><polygon class="cls-4" points="47.45 100.15 45.58 100.15 45.58 110.38 47.45 110.38 47.45 100.15 47.45 100.15 47.45 100.15"/><path class="cls-1" d="M80.86,36.94,93.67,21V82.44l-12.81-16h-11a81.61,81.61,0,0,1,7.42-29.52Z"/><path class="cls-2" d="M81.58,38.52H78.26A80.08,80.08,0,0,0,71.57,64.8h10L92.09,77.9V25.49l-10.51,13Z"/><path class="cls-1" d="M82.44,40.46l8.14-10.08V72.94L82.44,62.86H70.2a80.27,80.27,0,0,1,5.47-22.4Z"/><path class="cls-3" d="M83.23,42.12H76.75A79.32,79.32,0,0,0,72,61.27H83.23L89,68.4V34.92l-5.76,7.2Z"/><path class="cls-1" d="M85.25,45.72V57.6H70.85a97.35,97.35,0,0,1,2.88-11.88Z"/><path class="cls-2" d="M83.66,47.38H75A76.8,76.8,0,0,0,72.79,56H83.66V47.38Z"/><path class="cls-1" d="M81.43,49.1v5.12H71.5c.36-1.73.79-3.39,1.22-5.12Z"/><polygon class="cls-4" points="79.85 50.76 73.94 50.76 73.51 52.63 79.85 52.63 79.85 50.76 79.85 50.76 79.85 50.76"/><path class="cls-1" d="M12.89,36.94h3.53c4.53,9.5,6.62,19,7.41,29.52H12.89L0,82.44V21l12.89,16Z"/><path class="cls-2" d="M12.1,38.52l-10.52-13V77.9L12.1,64.8h10a80.08,80.08,0,0,0-6.69-26.28Z"/><path class="cls-1" d="M11.23,40.46H18a82.9,82.9,0,0,1,5.54,22.4H11.23L3.1,72.94V30.38l8.13,10.08Z"/><path class="cls-3" d="M10.44,42.12l-5.69-7.2V68.4l5.69-7.13h11.3a76.19,76.19,0,0,0-4.82-19.15Z"/><path class="cls-1" d="M8.42,45.72H19.94A97.35,97.35,0,0,1,22.82,57.6H8.42V45.72Z"/><path class="cls-2" d="M10.08,47.38V56h10.8c-.58-3-1.3-5.91-2.09-8.64Z"/><path class="cls-1" d="M12.24,49.1H21c.43,1.73.87,3.39,1.23,5.12H12.24V49.1Z"/><polygon class="cls-4" points="13.9 50.76 13.9 52.63 20.16 52.63 19.73 50.76 13.9 50.76 13.9 50.76 13.9 50.76"/><path class="cls-1" d="M46.73,24.12c-.51,3.53-4.83,3.46-6.77,1.22l-1.44,1a40.27,40.27,0,0,1-6.7,3.24V12.82L15.84,0H77.26l-16,12.82V29.59a46.82,46.82,0,0,1-6.69-3.24l-1.52-1c-2.08,2.45-6.76,2.09-6.76-1.8v-.28l.86.86Z"/><path class="cls-2" d="M59.69,12.1l13-10.52H20.38l13,10.52V27.22a35.27,35.27,0,0,0,7-4.11c.72,1.23,1.66,2.45,3.24,2.23a1.7,1.7,0,0,0,1.51-1.72l-.07-1.16h3l-.14,1.16c0,2.44,3.31,2,4.32.28l.43-.79a38,38,0,0,0,7.06,4.11V12.1Z"/><path class="cls-1" d="M46.73,24.12c-.51,3.53-4.83,3.46-6.77,1.22l-1.44,1c-1,.58-2,1.15-3.1,1.73V11.23L25.34,3.1H67.82L57.74,11.23V28.08c-1.08-.58-2.16-1.15-3.16-1.73l-1.52-1c-2.08,2.45-6.76,2.09-6.76-1.8v-.28l.86.86Z"/><path class="cls-3" d="M56.09,10.44l7.2-5.76H29.88L37,10.44v15l.65-.44c.93-.57,1.87-1.22,2.73-1.87.72,1.23,1.66,2.45,3.24,2.23a1.7,1.7,0,0,0,1.51-1.72l-.07-1.16h3l-.14,1.16c0,2.44,3.31,2,4.32.28l.43-.79c.94.65,1.8,1.3,2.81,1.87l.65.44v-15Z"/><path class="cls-1" d="M46.73,24.12c-.43,3.31-3.89,3.31-6.12,1.87V8.42H52.49V26a5,5,0,0,1-3.31.94,3.4,3.4,0,0,1-2.88-3.39v-.28l.86.86Z"/><path class="cls-2" d="M50.83,10H42.19V25.06c1.23.57,3,.21,3-1.44l-.07-1.16h3l-.14,1.16c0,1.65,1.73,2,2.95,1.44V10Z"/><path class="cls-1" d="M46.73,24.12c-.22,1.73-1.44,2.23-2.74,3.1v-15h5v15c-1.44-.94-2.73-1.66-2.73-3.68v-.28l.86.86Z"/><polygon class="cls-4" points="47.45 22.46 47.45 13.82 45.58 13.82 45.58 22.46 47.45 22.46 47.45 22.46 47.45 22.46"/><path class="cls-3" d="M47.16,23.33H45.94v.29h0a2.45,2.45,0,0,1-2.16,2.52,3.78,3.78,0,0,1-3.6-1.88c-.72.51-1.37.94-2.09,1.37-6.63,4.11-13.54,5.47-16.56,3.46h0L20,28.3l-5.76,6.19h0c5.54,10.08,8.92,23.4,8.92,37.94a90.42,90.42,0,0,1-.5,10A21.83,21.83,0,0,1,31,89.28h0a34,34,0,0,0,9.43,9.07,2.34,2.34,0,0,0,1.08.22,2.53,2.53,0,0,0,1.73-.65,1.81,1.81,0,0,1,1.8-1,2.16,2.16,0,0,1,1.3,2.38h.5A2,2,0,0,1,48,96.91a2,2,0,0,1,1.88,1,2.45,2.45,0,0,0,1.65.65,2.88,2.88,0,0,0,1.15-.22,33.27,33.27,0,0,0,9.44-9.07h.07a21.32,21.32,0,0,1,8.28-6.84,90.11,90.11,0,0,1-.58-10c0-14.54,3.39-27.86,9-37.94h0L73.15,28.3l-1.51.79h0c-3,2-10,.65-16.63-3.46a19.79,19.79,0,0,1-2.09-1.37,3.82,3.82,0,0,1-3.67,1.88,2.5,2.5,0,0,1-2.16-2.52h0c0-.15,0-.22.07-.29Z"/><path class="cls-5" d="M47.16,23.33H45.94v.29h0a2.45,2.45,0,0,1-2.16,2.52,3.78,3.78,0,0,1-3.6-1.88c-.72.51-1.37.94-2.09,1.37-6.63,4.11-13.54,5.47-16.56,3.46h0L20,28.3l-5.76,6.19h0c5.54,10.08,8.92,23.4,8.92,37.94a90.42,90.42,0,0,1-.5,10A21.83,21.83,0,0,1,31,89.28h0a34,34,0,0,0,9.43,9.07,2.34,2.34,0,0,0,1.08.22,2.53,2.53,0,0,0,1.73-.65,1.81,1.81,0,0,1,1.8-1,2.16,2.16,0,0,1,1.3,2.38h.5A2,2,0,0,1,48,96.91a2,2,0,0,1,1.88,1,2.45,2.45,0,0,0,1.65.65,2.88,2.88,0,0,0,1.15-.22,33.27,33.27,0,0,0,9.44-9.07h.07a21.32,21.32,0,0,1,8.28-6.84,90.11,90.11,0,0,1-.58-10c0-14.54,3.39-27.86,9-37.94h0L73.15,28.3l-1.51.79h0c-3,2-10,.65-16.63-3.46a19.79,19.79,0,0,1-2.09-1.37,3.82,3.82,0,0,1-3.67,1.88,2.5,2.5,0,0,1-2.16-2.52h0c0-.15,0-.22.07-.29Z"/><path class="cls-1" d="M36.86,88.78l-1.36-2a22.33,22.33,0,0,0-5.4-5.61l-2-1.37.07-3.24L27.5,60.7a98.42,98.42,0,0,0-3.24-15l-1.15-3.67,3.67-4.18c1.16.07,2.24.15,3.39.15a19.8,19.8,0,0,0,8.06-1.37,6.84,6.84,0,0,1,1-.51,9.15,9.15,0,0,1,7.27.29,9.53,9.53,0,0,1,7.42-.29,7.52,7.52,0,0,1,1.08.51A20.14,20.14,0,0,0,63.14,38c1.08,0,2.24-.08,3.32-.15l3.67,4.18L69,45.72a98.48,98.48,0,0,0-3.17,15.05l-.72,15.91.14,3.17-2,1.37a21.33,21.33,0,0,0-5.48,5.61l-1.36,2a12.78,12.78,0,0,1-19.52,0Z"/><path class="cls-2" d="M38,87.77a11.08,11.08,0,0,0,8.64,3.89,10.71,10.71,0,0,0,8.42-3.82l1.37-1.94a24.06,24.06,0,0,1,5.83-6.05l1.3-.79-.08-2.45.72-16a94.19,94.19,0,0,1,3.24-15.33l.87-2.88-2.52-2.88c-.87.07-1.8.07-2.67.07a20,20,0,0,1-8.85-1.51c-.36-.15-.65-.36-.94-.51a7.7,7.7,0,0,0-6.84.72,7.37,7.37,0,0,0-6.69-.72c-.29.15-.58.36-.87.51a19.63,19.63,0,0,1-8.78,1.51c-.94,0-1.8,0-2.74-.07l-2.52,2.88.94,2.88a111.72,111.72,0,0,1,3.24,15.33l.72,16-.15,2.45,1.3.79c3.24,2.23,5,4.89,7.06,7.92Z"/><path class="cls-1" d="M52.85,39c2.73,1.59,7,2,9.86,2,.79,0,1.59,0,2.38-.07l1.58,1.8a97.57,97.57,0,0,0-4.75,30.52c0,1.73.07,3.39.14,5.12a24.67,24.67,0,0,0-7.77,8.13,9.43,9.43,0,0,1-7.63,3.89,9.75,9.75,0,0,1-7.92-3.89,22.89,22.89,0,0,0-7.64-8.13c.08-1.73.08-3.39.08-5.12A97.58,97.58,0,0,0,26.42,42.7l1.66-1.8c.72.07,1.51.07,2.3.07,2.88,0,7.2-.43,9.8-2a6.25,6.25,0,0,1,2.3-.5,5.82,5.82,0,0,1,4.18,1.73l.86-.65a6.91,6.91,0,0,1,3-1.08,6.26,6.26,0,0,1,2.31.5Z"/><path class="cls-4" d="M52.2,40.39A4.37,4.37,0,0,0,50.54,40c-1.22,0-3.16,1.59-4.17,2.38-1-1.37-2-2.38-3.89-2.38a4.41,4.41,0,0,0-1.66.36c-2.3,1.37-6.12,2.23-10.44,2.23l-1.65-.07-.51.58a98.11,98.11,0,0,1,4.61,30.09c0,1.44-.07,2.88-.14,4.25A25.79,25.79,0,0,1,40,85.54a7.86,7.86,0,0,0,6.34,3.16A8.14,8.14,0,0,0,53,85.61a27.16,27.16,0,0,1,7.42-8.14c-.07-1.37-.07-2.81-.07-4.25a98.43,98.43,0,0,1,4.53-30.09l-.5-.58-1.66.07c-4.25,0-8.13-.86-10.51-2.23Z"/><path class="cls-6" d="M42.84,58.9h7.34v8.85h0c0,1.51-1.65,2.74-3.67,2.74s-3.67-1.23-3.67-2.74h0V58.9Z"/><path class="cls-4" d="M48.67,68.33a.67.67,0,0,1-.72-.65.68.68,0,0,1,.72-.72.67.67,0,0,1,.65.72.65.65,0,0,1-.65.65Z"/><path class="cls-4" d="M44.42,68.33a.67.67,0,0,1-.72-.65.68.68,0,0,1,.72-.72.67.67,0,0,1,.65.72.65.65,0,0,1-.65.65Z"/><path class="cls-4" d="M46.51,63.58a.7.7,0,0,1,.72.64.72.72,0,0,1-.72.72.66.66,0,0,1-.65-.72.64.64,0,0,1,.65-.64Z"/><path class="cls-4" d="M48.67,60.12a.71.71,0,0,1,.65.72.65.65,0,0,1-.65.65.67.67,0,0,1-.72-.65.72.72,0,0,1,.72-.72Z"/><path class="cls-4" d="M44.42,61.49a.67.67,0,0,1-.72-.65.72.72,0,0,1,.72-.72.71.71,0,0,1,.65.72.65.65,0,0,1-.65.65Z"/><path class="cls-6" d="M51.7,58.9H59v8.85h0c0,1.51-1.66,2.74-3.67,2.74s-3.67-1.23-3.67-2.74h0V58.9Z"/><path class="cls-4" d="M57.53,68.33a.67.67,0,0,1-.72-.65.68.68,0,0,1,.72-.72.67.67,0,0,1,.65.72.65.65,0,0,1-.65.65Z"/><path class="cls-4" d="M53.28,68.33a.67.67,0,0,1-.72-.65.68.68,0,0,1,.72-.72.67.67,0,0,1,.65.72.65.65,0,0,1-.65.65Z"/><path class="cls-4" d="M55.37,63.58a.66.66,0,0,1,.72.64.68.68,0,0,1-.72.72.66.66,0,0,1-.65-.72.64.64,0,0,1,.65-.64Z"/><path class="cls-4" d="M57.53,60.12a.71.71,0,0,1,.65.72.65.65,0,0,1-.65.65.67.67,0,0,1-.72-.65.72.72,0,0,1,.72-.72Z"/><path class="cls-4" d="M53.28,61.49a.67.67,0,0,1-.72-.65.72.72,0,0,1,.72-.72.71.71,0,0,1,.65.72.65.65,0,0,1-.65.65Z"/><path class="cls-6" d="M34.06,58.9h7.27v8.85h0c0,1.51-1.66,2.74-3.67,2.74s-3.6-1.23-3.6-2.74h0V58.9Z"/><path class="cls-4" d="M39.82,68.33a.66.66,0,0,1-.72-.65.68.68,0,0,1,.72-.72.66.66,0,0,1,.64.72.64.64,0,0,1-.64.65Z"/><path class="cls-4" d="M35.64,68.33a.67.67,0,0,1-.72-.65.68.68,0,0,1,.72-.72.67.67,0,0,1,.65.72.65.65,0,0,1-.65.65Z"/><path class="cls-4" d="M37.66,63.58a.7.7,0,0,1,.72.64.72.72,0,0,1-.72.72.65.65,0,0,1-.58-.72.63.63,0,0,1,.58-.64Z"/><path class="cls-4" d="M39.82,60.12a.7.7,0,0,1,.64.72.64.64,0,0,1-.64.65.66.66,0,0,1-.72-.65.72.72,0,0,1,.72-.72Z"/><path class="cls-4" d="M35.64,61.49a.67.67,0,0,1-.72-.65.72.72,0,0,1,.72-.72.71.71,0,0,1,.65.72.65.65,0,0,1-.65.65Z"/><path class="cls-6" d="M42.84,44.71h7.34v8.86h0c0,1.51-1.65,2.73-3.67,2.73s-3.67-1.22-3.67-2.73h0V44.71Z"/><path class="cls-4" d="M48.67,54.14a.68.68,0,0,1-.72-.72.66.66,0,0,1,.72-.64.64.64,0,0,1,.65.64.66.66,0,0,1-.65.72Z"/><path class="cls-4" d="M44.42,54.14a.68.68,0,0,1-.72-.72.66.66,0,0,1,.72-.64.64.64,0,0,1,.65.64.66.66,0,0,1-.65.72Z"/><path class="cls-4" d="M46.51,49.39a.71.71,0,0,1,.72.65.77.77,0,0,1-.72.72.71.71,0,0,1-.65-.72.65.65,0,0,1,.65-.65Z"/><path class="cls-4" d="M48.67,45.94a.66.66,0,0,1,.65.72.64.64,0,0,1-.65.64.66.66,0,0,1-.72-.64.68.68,0,0,1,.72-.72Z"/><path class="cls-4" d="M44.42,47.3a.66.66,0,0,1-.72-.64.68.68,0,0,1,.72-.72.66.66,0,0,1,.65.72.64.64,0,0,1-.65.64Z"/><path class="cls-6" d="M42.84,73.15h7.34v8.79h0c0,1.51-1.65,2.8-3.67,2.8s-3.67-1.29-3.67-2.8h0V73.15Z"/><path class="cls-4" d="M48.67,82.58a.72.72,0,0,1-.72-.72.66.66,0,0,1,.72-.64.64.64,0,0,1,.65.64.71.71,0,0,1-.65.72Z"/><path class="cls-4" d="M44.42,82.58a.72.72,0,0,1-.72-.72.66.66,0,0,1,.72-.64.64.64,0,0,1,.65.64.71.71,0,0,1-.65.72Z"/><path class="cls-4" d="M46.51,77.76a.72.72,0,0,1,.72.72.71.71,0,0,1-.72.65.65.65,0,0,1-.65-.65.67.67,0,0,1,.65-.72Z"/><path class="cls-4" d="M48.67,74.38a.64.64,0,0,1,.65.64.71.71,0,0,1-.65.72A.72.72,0,0,1,48,75a.66.66,0,0,1,.72-.64Z"/><path class="cls-4" d="M44.42,75.74A.72.72,0,0,1,43.7,75a.66.66,0,0,1,.72-.64.64.64,0,0,1,.65.64.71.71,0,0,1-.65.72Z"/><path class="cls-7" d="M57.17,35.57V34.13l.93.14-.21,1.44-.72-.14Zm0-5.83V28.51l.29.07-.22,1.16Zm0-1.23v1.23l-2.38-.36-.29,1.51,2.16.43-.21,1.15-2.09-.36L53.86,35l-1-.14h0L54,27.94l3.17.57Zm0,5.62h0l-.29,1.37h0l.29.07V34.13Zm-10.3-2V31H47c.5,0,.79-.36.79-1.08h0c0-.72-.29-1-.79-1h-.15V27.72h.29c1,0,1.73.72,1.73,2.23h0c0,1.59-.65,2.23-1.8,2.23Zm2.74,2.52V33.34h1.08V34.7Zm-12.1.8-1-6.84L40,28.15l.14,1.23-2.44.36.21,1.58L40,31l.15,1.22L38,32.47l.43,2.88-.94.15Zm9.36-7.78v1.22h-.93V31h.93v1.15h-.93V34.7H44.86v-7Zm-5.33,7.2-.21-1.37,1-.14.21,1.37-1,.14Z"/><path class="cls-8" d="M37.51,35.5l-1-6.84L40,28.15l.14,1.23-2.44.36.21,1.58L40,31l.15,1.22L38,32.47l.43,2.88-.94.15Zm4-.58-.21-1.37,1-.14.21,1.37-1,.14Zm11.31-.07L54,27.94l3.46.64-.22,1.16-2.45-.36-.29,1.51,2.16.43-.21,1.15-2.09-.36L53.86,35l-1-.14Zm4,.65.29-1.37.93.14-.21,1.44-1-.21ZM47.81,30c0-.72-.29-1-.79-1H45.94V31H47c.5,0,.79-.36.79-1.08Zm1.08,0c0,1.59-.65,2.23-1.8,2.23H45.94V34.7H44.86v-7h2.3c1,0,1.73.72,1.73,2.23Zm.72,4.75V33.34h1.08V34.7Z"/><path class="cls-2" d="M41.54,34.92l-.21-1.37,1-.14.21,1.37-1,.14Zm-4,.58-1-6.84L40,28.15l.14,1.23-2.44.36.21,1.58L40,31l.15,1.22L38,32.47l.43,2.88-.94.15Z"/><path class="cls-2" d="M57.17,34.13l.93.14-.21,1.44-.72-.14V34.13Zm0-4.39V28.51l.29.07-.22,1.16Zm-.29,5.76.29-1.37h0v1.44l-.29-.07Zm.29-7L54,27.94l-1.15,6.91h0l1,.14.5-2.88,2.09.36.21-1.15-2.16-.43.29-1.51,2.38.36Z"/><path class="cls-2" d="M49.61,34.7V33.34h1.08V34.7Zm-2.74-2.52V31H47c.5,0,.79-.36.79-1.08h0c0-.72-.29-1-.79-1h-.15V27.72h.29c1,0,1.73.72,1.73,2.23h0c0,1.59-.65,2.23-1.8,2.23h-.22Zm0-4.46v1.22h-.93V31h.93v1.15h-.93V34.7H44.86v-7Z"/><path class="cls-1" d="M18.86,72.36C18.86,59,16,45.22,9.29,33.55L18.72,23.4l2,1.37c2.44,1.94,9.14,1,16-3.24l.79-.51a12.33,12.33,0,0,1,4.32-1.58,4.45,4.45,0,0,1,4.9,4.18c.07,3.88-4.68,4.1-6.77,1.72l-1.44,1c-6.55,4-13.9,5.69-17.35,3.46l-1-.51-5,5.33C20.66,44.71,24,58,24,72.43q0,4.86-.44,9.51a23.1,23.1,0,0,1,8.07,6.84,32.53,32.53,0,0,0,9.21,8.85,1.25,1.25,0,0,0,.65.15,1.65,1.65,0,0,0,1.15-.44c1.88-2.73,5.12-.64,4.4,2.6a6.68,6.68,0,0,1-.36,1,4.05,4.05,0,0,1-2.31,1.8,7.45,7.45,0,0,1-2.59.44,12.91,12.91,0,0,1-4-1,34.1,34.1,0,0,1-9.72-9.29A21.23,21.23,0,0,0,18,84.53a85.14,85.14,0,0,0,.86-12.17Z"/><path class="cls-1" d="M74.3,72.36a96.66,96.66,0,0,0,.8,12.17,21.05,21.05,0,0,0-10,8.35,33,33,0,0,1-9.87,9.29,7.64,7.64,0,0,1-1.36.5,9.64,9.64,0,0,1-2.52.51,7.55,7.55,0,0,1-2.6-.44,3.64,3.64,0,0,1-2.3-1.8,5.73,5.73,0,0,1-.36-1c-.72-3.24,2.45-5.33,4.39-2.6a1.65,1.65,0,0,0,1.08.44,2.58,2.58,0,0,0,.79-.15,32.25,32.25,0,0,0,9.15-8.85,23.3,23.3,0,0,1,8.13-6.84,82.46,82.46,0,0,1-.5-9.51c0-14.47,3.31-27.72,8.78-37.8l-5-5.33-.94.51c-3.53,2.23-10.8.57-17.42-3.46l-1.52-1C51,27.72,46.3,27.5,46.3,23.62a4.51,4.51,0,0,1,5-4.18A13.37,13.37,0,0,1,55.58,21l.8.51c6.91,4.25,13.6,5.18,16,3.24l2.09-1.37,9.43,10.15C77.11,45.22,74.3,59,74.3,72.36Z"/><path class="cls-2" d="M40,99.07a34.22,34.22,0,0,1-9.72-9.36,21.76,21.76,0,0,0-8.49-6.77,102.64,102.64,0,0,0,.57-10.51c0-13.1-2.73-26.49-9.14-38.09l6.62-7.05L22,28.44c4.39,2.95,14.33-2.38,18.43-5.33.72,1.23,1.66,2.45,3.24,2.23a1.7,1.7,0,0,0,1.51-1.72A2.85,2.85,0,0,0,42.05,21a11,11,0,0,0-3.75,1.37l-.72.43c-6.84,4.25-14.4,5.91-17.78,3.24l-.86-.57-7.71,8.28C17,44,20.45,57.53,20.45,72.36a96.38,96.38,0,0,1-.65,11.23A22.17,22.17,0,0,1,29.38,92a32.66,32.66,0,0,0,9.14,8.71,11.51,11.51,0,0,0,3.24.86,6.6,6.6,0,0,0,2.09-.36,2.11,2.11,0,0,0,1.37-1.08,5.05,5.05,0,0,0,.21-.57c.29-1.44-.57-2.74-1.65-1.16a3,3,0,0,1-2.31.94A3.18,3.18,0,0,1,40,99.07Z"/><path class="cls-2" d="M53,99.07a3,3,0,0,1-1.44.29,3,3,0,0,1-2.3-.94c-1-1.58-2-.28-1.66,1.16a4.91,4.91,0,0,0,.22.57,2.45,2.45,0,0,0,1.44,1.08,5.88,5.88,0,0,0,2.09.36,9.84,9.84,0,0,0,3.16-.86A30.21,30.21,0,0,0,63.72,92a22.29,22.29,0,0,1,9.65-8.43,96.29,96.29,0,0,1-.72-11.23c0-14.83,3.53-28.37,9.21-38.59l-7.7-8.28-.86.57c-3.32,2.67-10.95,1-17.79-3.24l-.72-.43A11.34,11.34,0,0,0,51,21a2.9,2.9,0,0,0-3.1,2.6c0,2.3,3.24,2.16,4.32.28l.43-.79c4.18,2.95,14.11,8.28,18.58,5.33l2.09-1.15,6.55,7.05c-6.41,11.6-9.15,25-9.15,38.09a86.08,86.08,0,0,0,.65,10.51,21.52,21.52,0,0,0-8.57,6.77A32.66,32.66,0,0,1,53.14,99l-.15.07Z"/></g></g></svg>