<?xml version="1.0" encoding="utf-8"?>
<!-- Generator: Adobe Illustrator 23.0.1, SVG Export Plug-In . SVG Version: 6.00 Build 0)  -->
<svg version="1.1" id="Layer_1" xmlns="http://www.w3.org/2000/svg" xmlns:xlink="http://www.w3.org/1999/xlink" x="0px" y="0px"
	 viewBox="0 0 612 792" style="enable-background:new 0 0 612 792;" xml:space="preserve">
<style type="text/css">
	.st0{fill:#FFFFFF;}
	.st1{fill:#2C2C2C;}
	.st2{fill:#ED1C24;}
	.st3{fill:#FFCB05;}
	.st4{fill:#034EA2;}
</style>
<polygon class="st0" points="306.5,590.68 510.69,442.29 432.64,202.32 180.36,202.32 102.31,442.29 "/>
<path class="st1" d="M355.68,418.68v-35.71h14.76v-15.34h-14.76v-18.94h15.55v-15.34h-33.05v85.32H355.68L355.68,418.68z
	 M308.23,390.16v-20.02l0,0c2.16,0,3.6-0.94,4.39-2.74v-0.07v-15.91c-0.43-1.94-1.94-3.02-4.25-3.02h-0.14v-15.05h3.74
	c6.19,0,14.11,3.38,17.28,9.79l-0.07,31.82c-1.01,2.16-2.95,4.32-5.62,6.12l-0.43,0.36l6.48,23.9l-0.07,13.32h-15.19L308.23,390.16z
	 M308.23,333.36v15.05h-4.32v21.74h4.32v20.02l-1.08-5.11h-3.24v33.62h-17.5v-85.32H308.23L308.23,333.36z M244.65,418.68v-85.32
	h33.05v15.34h-15.55v18.94h14.83v15.34h-14.83v35.71H244.65z"/>
<polygon class="st2" points="408.81,407.44 348.26,451.44 406.15,494.28 489.52,433.72 419.61,218.59 374.25,218.59 354.67,287.2 
	369.72,287.2 "/>
<polygon class="st3" points="338.4,458.56 306.5,481.82 274.6,458.56 240.33,518.54 306.5,566.71 372.67,518.54 "/>
<path class="st4" d="M339.76,287.28l-4.9-57.24l3.89-11.45h-59.4l-14.54,34.34h21.17l-14.11,34.34H339.76L339.76,287.28z
	 M206.85,494.28l-83.38-60.55l69.91-215.14h45.36l19.58,68.69h-15.05l-39.1,120.17l60.55,43.99L206.85,494.28z"/>
</svg>
