<svg xmlns="http://www.w3.org/2000/svg" viewBox="0 0 141.7 166.1"><defs><style>.cls-1{fill:#0076c0;}.cls-2{fill:#fff;}.cls-3{fill:#ee3124;}.cls-4{fill:#e8941a;}</style></defs><title>Eszköz 1</title><g id="Réteg_2" data-name="Réteg 2"><g id="Layer_1" data-name="Layer 1"><path class="cls-1" d="M95.18,143.06V131.47a26.23,26.23,0,0,0,3.68-8.71l2.59-.07a25.46,25.46,0,0,1,.21,3.31,30.84,30.84,0,0,1-1.58,9.72l-.07.22-.15.28-.14.36-.14.44-.08.28-.14.22-.14.36-.15.29-.07.29-.07.14a34.32,34.32,0,0,1-2.09,3.89l-.36.57a7,7,0,0,1-1.3,0Zm0-14.4a18.18,18.18,0,0,0,2.52-6.33,23.92,23.92,0,0,0-2.52-5.4Zm0-11.73v11.73a40.51,40.51,0,0,1-2.44,3.68l-9.44-.08c-1-2.16-2.44-4.82-3.74-7v-8.5a36.88,36.88,0,0,0,1.73-4.89c3.53-.29,7.92-.29,9.72.21a15.18,15.18,0,0,1,4.17,4.9Zm0,14.54a25.64,25.64,0,0,1-1.58,2.45,10.21,10.21,0,0,1-.94,9,19.45,19.45,0,0,0,2.52.14V131.47Zm-15.62,5.47,1.51-2.59c.22-.43.36-.79.58-1.15l.14-.29c-.65-1.29-1.44-2.81-2.23-4.39ZM64.73,121.75l-.29.43a32.4,32.4,0,0,0-2,3v-8.5c.8,1.8,1.66,3.6,2.31,5Zm14.83-5v8.5c-.72-1.15-1.44-2.23-2-3l-.28-.43c.64-1.44,1.51-3.24,2.3-5Zm0,11.81c-1.22-2.09-2.52-4.25-3.67-5.83-1.87,0-3.39-.07-4.9-.07s-3,.07-4.89.07c-1.16,1.58-2.45,3.74-3.68,5.83v8.42a24.84,24.84,0,0,0,4,4.68,24.37,24.37,0,0,0,9.22,0,24.48,24.48,0,0,0,4-4.68Zm-17.14-3.31c-1.29,2.23-2.73,4.89-3.74,7l-9.36.08a40.5,40.5,0,0,1-2.45-3.68V116.93a15.32,15.32,0,0,1,4.18-4.9c1.65-.5,6.12-.5,9.65-.21a36.73,36.73,0,0,0,1.72,4.89v8.5Zm0,3.31c-.79,1.58-1.58,3.1-2.23,4.39l.15.29c.21.36.36.72.57,1.15.43.87,1,1.73,1.51,2.59v-8.42ZM46.87,143.06a20.22,20.22,0,0,0,2.52-.14,10,10,0,0,1-.93-9,27.82,27.82,0,0,1-1.59-2.45Zm0-14.4a18.81,18.81,0,0,1-2.59-6.33,28.47,28.47,0,0,1,2.59-5.4v11.73Zm0,2.81a24.65,24.65,0,0,1-3.67-8.71l-2.59-.07a23.8,23.8,0,0,0-.22,3.31l.07.86v.87l.08.65v.43l.07.5v.36l.07.36.07.43v.22l.07.29v.21l.08.22.07.29.07.36.07.36.07.43.08.43.14.36a31.35,31.35,0,0,0,4.18,9.43h1.29Z"/><path class="cls-2" d="M75.67,120.82h-.86c-1.37,0-2.59-.08-3.82-.08s-2.45.08-3.81.08h-.87l-.14-.29a57.65,57.65,0,0,1-3.67-9.36c2.88-2.23,6.76-5,8.49-5.62,1.73.65,5.55,3.39,8.43,5.62-.58,2.73-2.38,6.55-3.6,9.36Z"/><path class="cls-1" d="M71,105.77h0v-.51h0c2,.65,6.41,4,8.71,5.84-.57,3-2.52,7-3.88,9.93H71v-.5h4.47l.07-.15a47.94,47.94,0,0,0,3.6-9.07A46.87,46.87,0,0,0,71,105.77Zm0,0c-1.87.79-5.9,3.74-8.21,5.54a59.58,59.58,0,0,0,3.6,9.07l.08.15H71v.5H66.17c-1.37-3-3.31-7-3.89-9.93,2.3-1.8,6.77-5.19,8.71-5.84Z"/><path class="cls-2" d="M91.08,110.16a29.42,29.42,0,0,0-5.62-.36c-1.65,0-3.24.07-4.32.07-2.44-2-6.91-5.11-9.14-6V96.34h.5a28.85,28.85,0,0,1,11,2.16,30.08,30.08,0,0,1,8.14,5.25A38.38,38.38,0,0,1,91.08,110.16Z"/><path class="cls-1" d="M81.86,109.58c1,0,2.24-.07,3.6-.07a36,36,0,0,1,5.4.36,41.19,41.19,0,0,0,.58-6.05,30,30,0,0,0-8-5.11,14.44,14.44,0,0,0-1.59-.57v-.58a18.25,18.25,0,0,1,1.8.72,31.2,31.2,0,0,1,8.28,5.33,35.52,35.52,0,0,1-.72,6.84,28,28,0,0,0-5.76-.43c-1.36,0-2.59.07-3.6.07Zm-9.36-13h-.21v7.2c2.3.94,6.55,4,8.93,5.91.21,0,.43-.08.64-.08v.51c-.28,0-.57.07-.79.07-2.59-2.16-7.2-5.33-9.29-6v-8h.72a29.77,29.77,0,0,1,9.36,1.44v.58A28.35,28.35,0,0,0,72.5,96.55Z"/><path class="cls-2" d="M51,110.16a49.29,49.29,0,0,1-.65-6.41,31.91,31.91,0,0,1,8.06-5.25,29.19,29.19,0,0,1,11.09-2.16h.43v7.56c-2.23.86-6.69,4-9.07,6-1.08,0-2.66-.07-4.32-.07A28.44,28.44,0,0,0,51,110.16Z"/><path class="cls-1" d="M69.48,96.55a28.43,28.43,0,0,0-9.36,1.59v-.58a29.59,29.59,0,0,1,9.36-1.44h.72v8c-2.09.72-6.7,3.89-9.29,6-.29,0-.5-.07-.79-.07v-.51c.22,0,.43.08.58.08,2.37-2,6.62-5,9-5.91v-7.2Zm-9.36,1.59a14.29,14.29,0,0,0-1.58.57,28.34,28.34,0,0,0-7.92,5.11,41,41,0,0,0,.57,6.05,34.43,34.43,0,0,1,5.33-.36c1.37,0,2.59.07,3.6.07v.51c-1,0-2.23-.07-3.6-.07a27.28,27.28,0,0,0-5.69.43,37.19,37.19,0,0,1-.72-6.84,29.9,29.9,0,0,1,8.21-5.33,19.29,19.29,0,0,1,1.8-.72Z"/><path class="cls-2" d="M98.86,121.54c-1.8-5.12-3.89-8.72-6.2-10.66a33.4,33.4,0,0,0,.72-5.4,28.33,28.33,0,0,1,5.33,8.06,31.11,31.11,0,0,1,2.31,7.85Z"/><path class="cls-1" d="M96.84,116.06A33.7,33.7,0,0,1,99,121.32l1.73-.14a31.09,31.09,0,0,0-2.23-7.56c-.51-1.08-1.08-2.09-1.66-3.17v-.94a26.67,26.67,0,0,1,2.09,4,30.4,30.4,0,0,1,2.37,8.14l-2.66.21a42.77,42.77,0,0,0-1.8-4.6Zm-3.24-10a31.11,31.11,0,0,1-.65,4.75,18.64,18.64,0,0,1,3.89,5.25v1.16a18.24,18.24,0,0,0-4.46-6.2,31.81,31.81,0,0,0,.79-6.19,33,33,0,0,1,3.67,4.68v.94A31.62,31.62,0,0,0,93.6,106.06Z"/><path class="cls-2" d="M43.2,121.54,41,121.39a29.71,29.71,0,0,1,7.63-15.91,27.09,27.09,0,0,0,.72,5.4C47,112.82,44.93,116.42,43.2,121.54Z"/><path class="cls-1" d="M48.46,106.13a27.18,27.18,0,0,0-3.24,4.39v-.94a30,30,0,0,1,3.67-4.75,27.21,27.21,0,0,0,.79,6.19,17.35,17.35,0,0,0-4.46,6.2v-1.16a18.82,18.82,0,0,1,3.88-5.25A32.79,32.79,0,0,1,48.46,106.13Zm-3.24,4.39a29,29,0,0,0-3.89,10.66l1.73.14a31.87,31.87,0,0,1,2.16-5.26v1.16a44.38,44.38,0,0,0-1.88,4.6l-2.59-.21a28.93,28.93,0,0,1,4.47-12Z"/><path class="cls-3" d="M85.32,153.07V148.9c2.66-1.23,5.54-3,7.13-5.26,0,0,2.09.29,3.31.36l-.22.29-.14.21-.22.29L95,145l-.14.21a31.5,31.5,0,0,1-9.58,7.85Zm0-5.54a14.44,14.44,0,0,0,6-4.54c1.87-3,2.3-5.33,1.15-9.07-1.66,0-4.47,0-7.13-.07Zm0-13.68v13.68c-1.15.5-2.23.86-3.24,1.22l-.43-.29a23,23,0,0,1-2.74-3v-5a30.27,30.27,0,0,0,4.25-6.76c.72,0,1.44.07,2.16.07Zm0,15.05v4.17a28.78,28.78,0,0,1-6.41,2.52v-1.15a37.31,37.31,0,0,0,3.39-4.39,24.33,24.33,0,0,0,3-1.15Zm-6.41,3.74a21.86,21.86,0,0,0,2-2.88l-2-1.94Zm-15.84-7.13A22.25,22.25,0,0,0,65,142.63a17.35,17.35,0,0,1-1.95-2.09v5Zm15.84-5v5A17.61,17.61,0,0,1,77,142.63a17.32,17.32,0,0,0,1.94-2.09Zm0,7.28v4.82c-1.08,1.37-2.23,2.74-3,3.6a28.76,28.76,0,0,1-5,.43,27.61,27.61,0,0,1-5-.43c-.72-.86-1.94-2.23-2.95-3.6v-4.82a24,24,0,0,0,3.46-4.54,23.4,23.4,0,0,0,8.93,0,27.64,27.64,0,0,0,3.45,4.54Zm0,6.62c-.43.5-.93,1-1.37,1.51.44-.14.94-.21,1.37-.36v-1.15Zm-15.84,1.15c.43.15.94.22,1.37.36-.43-.5-.94-1-1.37-1.51Zm-3.17-6.84.36-.29a18.62,18.62,0,0,0,2.81-3v-5a33.53,33.53,0,0,1-4.32-6.76c-.65,0-1.37.07-2.09.07v13.68c1.08.5,2.24.86,3.24,1.22Zm3.17-.93v4.82a17,17,0,0,1-1.94-2.88c.65-.65,1.29-1.22,1.94-1.94Zm0,6.62a37,37,0,0,1-3.38-4.39,20.43,20.43,0,0,1-3-1.15v4.17a28.78,28.78,0,0,0,6.41,2.52Zm-6.41-20.59c-2.66.07-5.47.07-7.12.07A9.56,9.56,0,0,0,50.76,143a14.19,14.19,0,0,0,5.9,4.54V133.85Zm0,15.05v4.17a30.27,30.27,0,0,1-9.5-7.85L47,145l-.15-.22-.21-.29-.15-.21L46.3,144c1.22-.07,3.31-.36,3.31-.36C51.19,145.94,53.93,147.67,56.66,148.9Z"/><path class="cls-1" d="M102.17,141.62l1.08-2.23.65.29-.15.22c0,.07-.07.14-.07.21s.07.07.07.15.15.07.29.14l2.52,1.22a.65.65,0,0,0,.29.08H107c.07-.08.07-.15.15-.22l.14-.22.65.29-1.08,2.23-.65-.28.07-.22a.37.37,0,0,0,.07-.22v-.14c-.07-.07-.14-.07-.28-.14l-2.52-1.23a.82.82,0,0,0-.36-.07H103c0,.07-.07.14-.14.22l-.07.21Z"/><path class="cls-1" d="M105.77,126.72v-.5l1.87-.51.22.65a7.5,7.5,0,0,0-.94.65,1.25,1.25,0,0,0-.43.93,1.17,1.17,0,0,0,.21.65,2,2,0,0,0,.58.51,2.06,2.06,0,0,0,.94.21,2.19,2.19,0,0,0,1.36-.43,1.38,1.38,0,0,0,.58-1.08,1.33,1.33,0,0,0-.29-.86,4.15,4.15,0,0,0-.79-.87l.43-.57a3.26,3.26,0,0,1,1,1,2.61,2.61,0,0,1,.5,1.59,3,3,0,0,1-.36,1.37,3.12,3.12,0,0,1-1,.93,2.67,2.67,0,0,1-1.3.36,2.94,2.94,0,0,1-1.37-.36,2.25,2.25,0,0,1-.93-.93,2.67,2.67,0,0,1-.36-1.3,3.56,3.56,0,0,1,.28-1.3Z"/><path class="cls-1" d="M108.22,123.62h.14a2.6,2.6,0,0,0,1.37-.57,1.25,1.25,0,0,0,.29-1,1.34,1.34,0,0,0-.51-.86,2.41,2.41,0,0,0-1.29-.22v-1.44a2.78,2.78,0,0,1,1.08.22,1.93,1.93,0,0,1,1,.86,2.56,2.56,0,0,1,.51,1.37,2.47,2.47,0,0,1-.36,1.94,2.69,2.69,0,0,1-1.87,1.15h-.36Zm-1.88-1.15a1.16,1.16,0,0,0,.58.87,1.93,1.93,0,0,0,1.3.28v1.44a2.57,2.57,0,0,1-1.66-.57,2.84,2.84,0,0,1-1-1.87,2.9,2.9,0,0,1,.51-2.09,2.32,2.32,0,0,1,1.8-.94.65.65,0,0,1,.36-.07V121h-.15a3.19,3.19,0,0,0-1,.29,1.48,1.48,0,0,0-.57.57A2.26,2.26,0,0,0,106.34,122.47Z"/><path class="cls-1" d="M106.42,115.2a.65.65,0,0,1,.36-.07,2.57,2.57,0,0,0,1.22-.72,1.31,1.31,0,0,0,.22-1,1,1,0,0,0-.65-.79,2,2,0,0,0-1.15-.15V111a3.23,3.23,0,0,1,.79.15,2.61,2.61,0,0,1,1.15.65,3.52,3.52,0,0,1,.65,1.36,2.6,2.6,0,0,1-.15,1.95,2.24,2.24,0,0,1-1.51,1.29l.22.65,1-.21c.21-.08.28-.08.36-.15a.24.24,0,0,0,.07-.14.73.73,0,0,0-.07-.29v-.14l.64-.22.65,2.45-.72.21v-.21c-.07-.15-.07-.22-.14-.29s-.07-.07-.15-.07a.7.7,0,0,0-.28.07l-2.52.65v-1.37l.36-.07-.22-.72h-.14Zm-1.8-.94a1.81,1.81,0,0,0,.64.8,3.09,3.09,0,0,0,1.16.14v1.37a2.28,2.28,0,0,1-1.37-.36,2.83,2.83,0,0,1-1.23-1.8,3,3,0,0,1,.29-2.09,2.35,2.35,0,0,1,1.66-1.15,2.12,2.12,0,0,1,.65-.15v1.44a.39.39,0,0,0-.29.08,1.62,1.62,0,0,0-.94.43.94.94,0,0,0-.5.57,1.15,1.15,0,0,0-.07.72Zm1.8,3.1v1.37h-.15c-.21.07-.29.07-.36.14a.07.07,0,0,0-.07.07v.29l.07.22-.72.14-.57-2.37.72-.22v.22c.07.14.07.21.14.28a.24.24,0,0,0,.14.08.65.65,0,0,0,.29-.08Z"/><path class="cls-1" d="M38.88,109.87l-.79-.43v-1.37l1.08.51a.54.54,0,0,0,.29.07h.14c0-.07.07-.15.14-.22l.08-.21.64.28L39.31,111a1.81,1.81,0,0,1-.5.72,1.42,1.42,0,0,1-.51.43.24.24,0,0,0-.21.08v-1.3a.22.22,0,0,0,.14-.07,1.17,1.17,0,0,0,.43-.43Zm-.79-.43-.51-.22-.21.36a3.8,3.8,0,0,0-.15.58.83.83,0,0,0,.08.43,1.41,1.41,0,0,0,.36.29c.14,0,.28.07.43,0v1.3h-.43a.75.75,0,0,1-.58-.15,1.29,1.29,0,0,1-.79-.93,1.8,1.8,0,0,1,.21-1.44l.36-.8-.86-.43a.35.35,0,0,1-.22-.07c-.07,0-.07.07-.14.07s-.07.07-.14.22l-.08.21-.64-.28,1.08-2.31.64.36-.07.15c-.07.14-.14.21-.14.28a.23.23,0,0,0,.07.15.83.83,0,0,0,.22.14l1.51.72Z"/><path class="cls-1" d="M36.79,115.34a1,1,0,0,0-.14-1,1.78,1.78,0,0,0-1.23-.87c-.14-.07-.21-.07-.36-.14V112a4.45,4.45,0,0,1,.87.14,2.7,2.7,0,0,1,1.58,1.37,2.91,2.91,0,0,1,.07,2.09,2.68,2.68,0,0,1-1.36,1.66,2.17,2.17,0,0,1-1.16.28v-1.36h.58a1.09,1.09,0,0,0,.72-.22A1.06,1.06,0,0,0,36.79,115.34Zm-1.73-2a2.73,2.73,0,0,0-1.08.07,1,1,0,0,0-.64.79,1,1,0,0,0,.07,1,2.15,2.15,0,0,0,1.22.79c.15.07.29.07.43.15v1.36a3.76,3.76,0,0,1-.86-.14,2.37,2.37,0,0,1-1.22-.79,2.18,2.18,0,0,1-.58-1.15,2.84,2.84,0,0,1,.14-1.52,2.94,2.94,0,0,1,1.16-1.58,2.27,2.27,0,0,1,1.36-.36Z"/><path class="cls-1" d="M50.4,154.44l2.16,1.3-.36.57-.22-.14a.26.26,0,0,0-.21-.07c-.07,0-.15,0-.15.07s-.14.07-.21.21l-1,1.66,2.52-.72H53a.56.56,0,0,0,.07-.22c.08-.07.08-.14,0-.14s-.07-.14-.21-.22l-.22-.07L53,156l2.16,1.3-.36.65-.14-.15c-.15-.07-.22-.14-.29-.14s-.07.07-.14.07l-.15.29-1.44,2.38a.53.53,0,0,0-.07.28v.15c0,.07.07.07.22.21l.14.08-.36.57-2.09-1.29.36-.58.15.07c.14.07.21.15.28.15s.08,0,.15-.08l.21-.21.94-1.73-2.52.72H50l-.15.29c0,.07,0,.14.08.14s.07.15.21.22l.15.07-.36.65-2.16-1.3.43-.65.14.15a.28.28,0,0,0,.22.07h.14l.22-.22,1.44-2.44c.07-.15.14-.22.14-.29v-.15c-.07-.07-.14-.07-.21-.14L50,155Z"/><path class="cls-1" d="M54,155.38c.07.07.22.07.43.07-.07,0-.07-.07-.14-.07s-.07-.08-.07-.15a.56.56,0,0,1,.07-.36.58.58,0,0,1,.29-.29.56.56,0,0,1,.5.08.83.83,0,0,1,.36.36v.36l-.22.43a1.12,1.12,0,0,1-.43.21,1.55,1.55,0,0,1-.86,0,10.38,10.38,0,0,1-1-.5,5.65,5.65,0,0,1-.79-.65,1.62,1.62,0,0,1-.43-.79.93.93,0,0,1,.07-.43.39.39,0,0,1,.21-.36.59.59,0,0,1,.36-.15.48.48,0,0,1,.44.08.43.43,0,0,1,.21.43.32.32,0,0,1-.07.36c-.07.14-.14.21-.29.21s-.07.08-.07,0h-.14c.07.15.14.22.21.36a4.65,4.65,0,0,0,.58.51A2.22,2.22,0,0,0,54,155.38Z"/><path class="cls-1" d="M45.65,150.34l1.87,1.58-.43.58-.15-.15c-.14-.07-.21-.14-.28-.14h-.15l-.21.21-1.23,1.52,2.67-.29.07-.07c.07-.08.07-.15.14-.15v-.21c-.07,0-.14-.08-.21-.22l-.15-.07.43-.58L50,154l-.51.5-.14-.14a.92.92,0,0,1-.22-.15H49l-.22.22-1.87,2.16c-.07.14-.14.22-.14.29V157a.52.52,0,0,0,.21.22l.15.07-.51.58-1.87-1.66.43-.5.15.07a1.92,1.92,0,0,0,.29.21h.14c0-.07.07-.14.22-.28l1.29-1.52-2.66.29-.07.07a1,1,0,0,0-.15.22c-.07.07-.07.14,0,.14s.07.15.22.29l.14.07-.5.58-1.87-1.66.43-.57.14.14a1.19,1.19,0,0,0,.22.15c.07.07.14.07.14,0s.15-.08.22-.15l1.87-2.16c.07-.14.14-.21.14-.29s.08-.07,0-.14-.07-.14-.14-.22l-.14-.14Z"/><path class="cls-1" d="M42,145.66l1.58,2-.58.43-.14-.14a1.13,1.13,0,0,0-.14-.22.29.29,0,0,0-.22-.07c-.07.07-.14.07-.22.15l-1.08.86,2.16.36h.22a.07.07,0,0,0,.07-.07c0-.07-.07-.15-.14-.22l-.07-.14.5-.43,1.44,1.8-.5.43-.08-.07-.14-.15c-.07,0-.07-.07-.14-.07s-.22-.07-.29-.07l-1.66-.29-.65,2.38a2.66,2.66,0,0,1-.07.43,2.72,2.72,0,0,0,.22.29l.07.07-.58.43-1.65-2,.57-.43.08.07c.14.15.21.22.21.29h.15a.26.26,0,0,1,.07-.21l.43-1.52-1-.21-.43.36-.14.14c-.08.07-.08.15,0,.15s0,.14.14.21l.07.22-.5.43-1.59-1.94.58-.44.07.15a.83.83,0,0,1,.22.14.22.22,0,0,0,.14.07c.07-.07.15-.07.29-.21l2.16-1.73c.14-.07.22-.14.22-.22s.07-.07.07-.14-.07-.14-.15-.22l-.14-.21Z"/><path class="cls-1" d="M41.4,144.58l.22.43-1.37,1.37-.51-.58a2.59,2.59,0,0,0,.51-1,1.38,1.38,0,0,0-.07-.93,1.77,1.77,0,0,0-.51-.51,1.2,1.2,0,0,0-.72-.14,2.51,2.51,0,0,0-.93.21,2.65,2.65,0,0,0-1,1,1.6,1.6,0,0,0,.07,1.3,1.11,1.11,0,0,0,.58.57,2.14,2.14,0,0,0,1.15.36l-.15.72A2.94,2.94,0,0,1,37.3,147a2.25,2.25,0,0,1-1.16-1.15,2.27,2.27,0,0,1-.36-1.3,3.51,3.51,0,0,1,.44-1.29,2.64,2.64,0,0,1,1.08-.94,2.19,2.19,0,0,1,1.29-.36,2.54,2.54,0,0,1,1.3.36,4.11,4.11,0,0,1,.93,1,2.77,2.77,0,0,1,.29,1.3Z"/><path class="cls-1" d="M37.15,135.58l.94,2.37-.65.22L37.3,138c0-.07-.08-.14-.08-.21a.24.24,0,0,1-.14-.08,2.93,2.93,0,0,1-.36.08l-1.8.72,2.52,1.08.07-.08c.07,0,.15-.07.22-.07s.07-.07.07-.14-.07-.15-.07-.29l-.07-.22.64-.21.87,2.3-.65.29-.07-.22c-.07-.14-.07-.21-.15-.21s-.07-.07-.14-.07a.76.76,0,0,0-.29.07l-2.59,1-.29.14c-.07.07-.07.07-.07.14a.54.54,0,0,0,.07.29l.07.15-.64.28-.94-2.37.65-.22.07.15c.07.14.14.21.14.28a.24.24,0,0,1,.15.08,1.28,1.28,0,0,1,.36-.08l1.8-.72-2.45-1.08h-.07c-.15.08-.22.15-.29.15a.24.24,0,0,1-.07.14,1.55,1.55,0,0,1,.07.36l.07.15-.65.21-.86-2.3.65-.29.07.14a.37.37,0,0,0,.14.29c0,.07.08.07.15.07a.76.76,0,0,0,.29-.07l2.59-1a1.31,1.31,0,0,0,.29-.14c.07,0,.07-.07.07-.14a.37.37,0,0,0-.07-.22l-.08-.22Z"/><path class="cls-1" d="M39.46,138.6c.07.07.14.22.28.29v-.29c0-.14.15-.22.29-.29h.36a.58.58,0,0,1,.36.36,1.29,1.29,0,0,1,.07.51.55.55,0,0,1-.28.28c-.08.15-.22.15-.36.22a1,1,0,0,1-.44-.07A2,2,0,0,1,39,139a3.94,3.94,0,0,1-.5-.93,6.18,6.18,0,0,1-.29-1.08,1.53,1.53,0,0,1,.15-.87,1.61,1.61,0,0,1,.28-.36,1.08,1.08,0,0,1,.44-.14.57.57,0,0,1,.36.07.64.64,0,0,1,.36.36.94.94,0,0,1-.08.5.53.53,0,0,1-.28.29.33.33,0,0,1-.36,0,.25.25,0,0,1-.15-.07c0-.07-.07-.07-.07-.14a.47.47,0,0,0,0,.43,2.27,2.27,0,0,0,.14.79Z"/><path class="cls-1" d="M36.07,129.31l.43,2.45-.72.14v-.21a.58.58,0,0,1-.07-.29c-.07,0-.07-.07-.14-.07h-.29l-1.94.36,2.23,1.51h.07a.27.27,0,0,1,.22-.07c.07,0,.07-.07.07-.15s.07-.14,0-.28v-.22l.65-.07.43,2.45-.65.14-.07-.22c0-.14-.07-.21-.07-.28s-.08-.08-.15-.08h-.29l-2.73.51a1.43,1.43,0,0,0-.36.07c0,.07-.07.07-.07.14v.29l.07.15-.72.14-.43-2.45.72-.14v.14c.07.15.07.29.14.29a.24.24,0,0,0,.07.14,1,1,0,0,0,.36-.07l2-.29-2.24-1.51h-.07c-.14,0-.21.07-.29.07s-.07.08-.07.15v.43l-.65.14L31,130.18l.72-.15v.15a.72.72,0,0,0,.07.28c.08.08.08.15.15.15h.29L35,130.1a2.86,2.86,0,0,0,.36-.07c0-.07.07-.07.07-.14v-.22l-.07-.29Z"/><path class="cls-1" d="M35.93,127.87v.51l-1.87.5-.22-.72a4.51,4.51,0,0,0,.94-.58,1.4,1.4,0,0,0,.43-.93A1,1,0,0,0,35,126a1.23,1.23,0,0,0-.57-.5,2,2,0,0,0-.94-.22,2.36,2.36,0,0,0-1.37.43,1.37,1.37,0,0,0-.57,1.08,1.43,1.43,0,0,0,.28.87,4.8,4.8,0,0,0,.8.86l-.44.58a3.4,3.4,0,0,1-1-1.08,2.48,2.48,0,0,1-.51-1.59,3,3,0,0,1,.36-1.29,2.63,2.63,0,0,1,1-.94,2.71,2.71,0,0,1,1.37-.36,2.63,2.63,0,0,1,1.29.36,2.36,2.36,0,0,1,.94.94,2.63,2.63,0,0,1,.36,1.29,2.43,2.43,0,0,1-.29,1.3Z"/><path class="cls-1" d="M35.93,122.47l-.07.51-1.88.21-.07-.72a4.49,4.49,0,0,0,1-.5,1.37,1.37,0,0,0,.5-.79,1.14,1.14,0,0,0-.07-.72,1.26,1.26,0,0,0-.5-.58,2.51,2.51,0,0,0-.87-.36,2.1,2.1,0,0,0-1.36.22,1.28,1.28,0,0,0-.8.93,1.78,1.78,0,0,0,.15.87,2.83,2.83,0,0,0,.65,1l-.51.51a3.79,3.79,0,0,1-.86-1.23,2.9,2.9,0,0,1-.22-1.58,2.12,2.12,0,0,1,.58-1.22,2.44,2.44,0,0,1,1.08-.8,3.36,3.36,0,0,1,1.44-.14,2.4,2.4,0,0,1,1.22.58,2.25,2.25,0,0,1,.79,1.08,2.8,2.8,0,0,1,.15,1.36,3.52,3.52,0,0,1-.51,1.23Z"/><path class="cls-1" d="M96,156,95.9,156v1.23l1.3-1c.22-.29.43-.43.58-.65a1.19,1.19,0,0,0,.21-.65,2,2,0,0,0,0-.65c-.07-.14-.21-.36-.29-.5a1.8,1.8,0,0,0-1.15-.58,2.26,2.26,0,0,0-.65.15v1h.36a.68.68,0,0,1,.36.28.56.56,0,0,1,.15.58.76.76,0,0,1-.36.5ZM95.9,156l-.86-1,.36-.28a1.64,1.64,0,0,1,.5-.36h0v-1a2.64,2.64,0,0,0-.72.43l-.64.58-.58-.72c-.14-.15-.14-.15-.14-.22v-.14c0-.08.07-.08.14-.15l.22-.21-.51-.51-1.87,1.59.43.57.15-.14c.14-.07.21-.15.28-.15h.15l.21.22,1.8,2.16a1.48,1.48,0,0,0,.15.22c.07.07.07.14,0,.14s-.07.14-.15.22l-.21.14.5.58.79-.72Z"/><path class="cls-1" d="M104.11,146.74l-.36-.22v2.23l1.51-2.23a2.09,2.09,0,0,0,.36-.72,1.25,1.25,0,0,0,.08-.72,1,1,0,0,0-.22-.58.86.86,0,0,0-.43-.43,1.11,1.11,0,0,0-1.15-.21h-.15V145h.15a1.08,1.08,0,0,1,.43.14.61.61,0,0,1,.29.58,1.18,1.18,0,0,1-.22.57Zm-.36-.22-.86-.58.29-.36c.14-.21.21-.36.36-.43s.14-.07.21-.14v-1.15a2,2,0,0,0-1,.93l-.5.72-.79-.57a.62.62,0,0,1-.22-.15v-.14a.32.32,0,0,0,.07-.22l.15-.21-.58-.36-1.37,2.08.58.36.07-.14c.15-.14.15-.22.22-.22s.07-.07.14,0a.5.5,0,0,1,.29.08l2.3,1.58c.15.14.22.14.29.22V148a.29.29,0,0,1-.07.22l-.14.21.57.36h0Z"/><path class="cls-1" d="M61.27,162.94h.36a.74.74,0,0,0,.36-.44.33.33,0,0,0,0-.36c0-.14-.07-.21-.21-.28a2.07,2.07,0,0,0-.51-.29v-.72l.65.14a2.46,2.46,0,0,1,1.15.87,1,1,0,0,1,.22,1.08,1.12,1.12,0,0,1-.79.79,2.23,2.23,0,0,1-.65.14c-.15,0-.36-.07-.58-.07v-.86Zm0-2.45v-.87l.79.22-.14.72-.22-.07a.53.53,0,0,0-.28-.07C61.34,160.42,61.34,160.49,61.27,160.49Zm-.72,2.23.43.14a.52.52,0,0,0,.29.08v.86c-.07-.07-.14-.07-.29-.14l-.64-.22a.9.9,0,0,0-.08.36.07.07,0,0,0,.08.07c0,.07.07.07.14.15l.29.07-.22.65L59,164.3v-.93c.07,0,.07-.07.14-.22v-.07H59v-.79l.36.07.43-1.22L59.4,161a.93.93,0,0,0-.43-.07v-.79a.26.26,0,0,1,.21.07l.8.22c0-.15.07-.22,0-.29V160a1.31,1.31,0,0,0-.29-.14l-.22-.07.22-.65,1.58.5v.87h0c0,.07-.07.14-.07.29h-.07l.14.07v.72h0l-.36-.07ZM59,160.13v.79h-.15a.41.41,0,0,0-.36.14,1.21,1.21,0,0,0-.21.29.62.62,0,0,0,.14.58c.07.14.22.21.51.29l.07.07v.79l-.58-.22a2.48,2.48,0,0,1-.79-.36,1.18,1.18,0,0,1-.43-.43.78.78,0,0,1-.22-.57c-.07-.15,0-.36,0-.58a1.43,1.43,0,0,1,.79-.79,1.73,1.73,0,0,1,1.23,0Zm0,3.24v.93l-.79-.28.21-.65h.22a.35.35,0,0,0,.21.07c.08,0,.15,0,.15-.07Z"/><path class="cls-1" d="M103.46,138.6l.8-2.38.64.22-.07.22v.21c0,.07,0,.15.07.15s.15.07.29.14l1.8.58-1.22-2.38h-.07a.61.61,0,0,0-.22-.07.24.24,0,0,0-.14.07c-.08.07-.08.14-.15.29l-.07.21-.65-.28.72-2.38.72.22-.07.21a.58.58,0,0,0-.07.29c0,.07.07.07.07.14s.14.08.29.08l2.66.86a.82.82,0,0,0,.36.07.07.07,0,0,0,.07-.07c.08,0,.08-.14.15-.29l.07-.14.65.21-.79,2.45-.65-.29.07-.14c0-.14.07-.22.07-.29s-.07-.07-.07-.14-.14-.07-.29-.15l-1.94-.57,1.29,2.37h0a.9.9,0,0,0,.36.08c.08,0,.08,0,.15-.08s.07-.14.14-.28v-.15l.72.22-.79,2.37-.65-.21v-.15a.7.7,0,0,0,.07-.28c0-.08,0-.15-.07-.15s-.07-.14-.21-.14l-2.67-.87a1,1,0,0,0-.36-.07c-.07,0-.07,0-.14.07a.35.35,0,0,0-.07.22l-.08.22Z"/><path class="cls-1" d="M103.61,134.86a1,1,0,0,0-.07-.44.08.08,0,0,1-.08.08c0,.07-.07.07-.07.14a.33.33,0,0,1-.36,0,.59.59,0,0,1-.36-.22,1.42,1.42,0,0,1-.07-.5.83.83,0,0,1,.29-.43.93.93,0,0,1,.43-.07.56.56,0,0,1,.36.07c.14.14.29.21.36.36a1.21,1.21,0,0,1,.14.86,3,3,0,0,1-.21,1.08,4.39,4.39,0,0,1-.43,1,1.32,1.32,0,0,1-.65.58,1.13,1.13,0,0,1-.51.07c-.14,0-.21-.07-.36-.15s-.21-.14-.21-.28a1.29,1.29,0,0,1-.07-.51.83.83,0,0,1,.36-.36.47.47,0,0,1,.43,0,1.21,1.21,0,0,1,.29.22v.29a1.24,1.24,0,0,0,.28-.29,5.16,5.16,0,0,0,.36-.72A2.37,2.37,0,0,0,103.61,134.86Z"/><path class="cls-1" d="M95.54,150.7l1.66-1.88.58.51-.22.14c-.07.07-.07.15-.14.22s0,.07.07.14.07.15.21.22l.65.65,1.23-1.44-.72-.65c-.08-.07-.15-.07-.15-.15H98.5c0,.08-.08.08-.22.22l-.14.14-.51-.43,1.66-1.87.57.43-.14.15c-.07.14-.14.21-.14.28s-.08.08,0,.15l.21.21,2.09,1.88a1,1,0,0,0,.22.14c.07.07.14.07.14,0s.14-.07.29-.22l.07-.07.5.43-1.65,1.88-.51-.44.08-.14c.14-.14.21-.22.21-.29v-.14l-.21-.22-.8-.72-1.29,1.37.79.72c.14.14.22.22.29.22h.14c.07,0,.15-.08.22-.22l.14-.14.51.5-1.66,1.87-.5-.5.07-.15c.14-.07.14-.14.21-.21v-.15c-.07-.07-.07-.14-.21-.21l-2.09-1.87c-.14-.15-.22-.22-.29-.22h-.14a.83.83,0,0,1-.22.14l-.14.15Z"/><path class="cls-1" d="M87.05,157l4-2.37.36.57-.22.15c-.07.07-.14.07-.14.14s-.07.07-.07.14.07.15.14.29l1.44,2.38a1,1,0,0,0,.22.29h.07a.24.24,0,0,0,.21-.08l.29-.14.36.65-2.16,1.29-.36-.64.15-.08a1,1,0,0,0,.28-.21v-.15a.87.87,0,0,1-.14-.21L90,156.6c-.07-.14-.14-.22-.22-.22s-.07-.07-.14-.07a.61.61,0,0,0-.22.07l-.28.22a.83.83,0,0,0-.22.14.25.25,0,0,0-.07.15c0,.07.07.14.14.36L90.07,159a2,2,0,0,1,.29.64,2.32,2.32,0,0,1,.07.72,1.58,1.58,0,0,1-.36.72,1.76,1.76,0,0,1-.65.65,2.06,2.06,0,0,1-.86.22,1.14,1.14,0,0,1-.86-.15c-.29-.14-.51-.28-.58-.5a1.21,1.21,0,0,1-.22-.58c0-.21.08-.28.22-.43a.55.55,0,0,1,.5.07c.08.08.22.15.22.22l.14.22c.08.07.15.21.29.28s.22.08.29.08a2.83,2.83,0,0,0,.65-.29.49.49,0,0,0,.29-.36.65.65,0,0,0,0-.51,1,1,0,0,0-.29-.5l-1.08-1.87c-.07-.07-.07-.15-.15-.15s-.07-.07-.14-.07a.69.69,0,0,1-.22.07l-.21.15Z"/><path class="cls-1" d="M83.3,163a2,2,0,0,0,.65-.07,1.21,1.21,0,0,0,.72-.72,2.3,2.3,0,0,0-.14-1.52,2.55,2.55,0,0,0-.51-.86,1.6,1.6,0,0,0-.64-.43H83.3v-.94a2.89,2.89,0,0,1,1.16.22,2.74,2.74,0,0,1,1.44,1.51,3.38,3.38,0,0,1,.14,1.44,2.66,2.66,0,0,1-.5,1.22,2.4,2.4,0,0,1-1.3.8,4.79,4.79,0,0,1-.94.28Zm-.64-3.53a1.28,1.28,0,0,0-.72.79,2.44,2.44,0,0,0,.14,1.44,2.1,2.1,0,0,0,.86,1.15c.15.08.29.08.36.15v.93a4.92,4.92,0,0,1-1-.14,2.56,2.56,0,0,1-1.52-1.58,2.53,2.53,0,0,1,0-2,2.47,2.47,0,0,1,1.59-1.44,5,5,0,0,1,.93-.29v.94A2,2,0,0,0,82.66,159.48Z"/><path class="cls-1" d="M77.76,163.08c.14,0,.22,0,.29.07a.54.54,0,0,1,.29.15c.14.14.14.21.21.43a.6.6,0,0,1-.21.57.56.56,0,0,1-.51.22h-.07v.86l.43-.07a1.76,1.76,0,0,0,.79-.21,3.65,3.65,0,0,0,.58-.44,1.46,1.46,0,0,0,.29-.57.83.83,0,0,0,0-.58,1.41,1.41,0,0,0-.65-1,1.62,1.62,0,0,0-1.44-.21v.79Zm0-2.09v-.79l.36-.07V160l.5-.07.94,1.66-.65.36c-.21-.29-.36-.51-.43-.58A2.23,2.23,0,0,0,78,161Zm-.5,3.67L77,163.22l.43-.07a.8.8,0,0,1,.36-.07v-.79h-.07l-.79.14-.22-.93v-.29l.07-.07a1.92,1.92,0,0,1,.65-.15l.14-.07a.27.27,0,0,1,.22.07v-.79l-3.1.5.15.72H75a.58.58,0,0,1,.29-.07c.07.07.07.07.14.07s.08.15.08.36l.5,2.74v.29a.24.24,0,0,1-.07.14.28.28,0,0,1-.22.07l-.29.08.15.72,2.23-.44v-.86Z"/><path class="cls-1" d="M69.48,160.85H70V161l3-.07.07-.14.43-.08.72,1.8-.72.29a3.4,3.4,0,0,0-.29-.57,1,1,0,0,0-.5-.44.68.68,0,0,0-.36-.07h-.15v.22l.08,2.95v.29a.24.24,0,0,0,.07.14c.07,0,.07,0,.14.07h.43V166l-2.52.07v-.64l.15-.08h.29a.15.15,0,0,0,.14-.14V165l-.07-3v-.15c-.07-.07-.07-.07-.15-.07a1,1,0,0,0-.43.15l-.43.43a3.24,3.24,0,0,1-.29.57l-.65-.21Z"/><path class="cls-1" d="M64.08,160.42l2.3.28-.07.65h-.43l-.07.07a.37.37,0,0,0,.07.22l.36,1.44.79-1.3c0-.07.07-.14.07-.21a.07.07,0,0,0-.07-.07.29.29,0,0,0-.21-.08H66.6l.07-.72,2,.22-.08.72h-.28c-.08,0-.08,0-.15.07l-.14.15-2,3.24a2.79,2.79,0,0,1-.72.64,1.13,1.13,0,0,1-.72.15,1,1,0,0,1-.65-.36.68.68,0,0,1-.21-.51.41.41,0,0,1,.21-.36.59.59,0,0,1,.36-.14c.15.07.22.07.29.14s.15.08.15.22.07.07.14.07H65a3.57,3.57,0,0,0,.28-.43l.15-.29-.94-2.73c0-.15-.07-.22-.07-.29s-.07-.07-.14-.07a.65.65,0,0,1-.29-.08Z"/><path class="cls-1" d="M102,110a2.25,2.25,0,0,0,.72.86l-.14.22.29.5,1.87-.36-.15-.72a3.34,3.34,0,0,1-1-.14,1.29,1.29,0,0,1-.72-.65.73.73,0,0,1-.08-.65c0-.22.15-.29.29-.36a.68.68,0,0,1,.36-.07c.15,0,.22.07.36.14l.29.58.14.21.65-.28-.14-.22a2.39,2.39,0,0,1-.22-.86c0-.29.22-.44.43-.58a.5.5,0,0,1,.44-.07.54.54,0,0,1,.43.14.8.8,0,0,1,.29.36.56.56,0,0,1,.07.36v.36a1.67,1.67,0,0,1-.36.36c-.15.15-.22.22-.22.36a.47.47,0,0,0,0,.43.47.47,0,0,0,.36.29.65.65,0,0,0,.51,0,1,1,0,0,0,.43-.5,1.42,1.42,0,0,0,.14-.94,2,2,0,0,0-.29-1.08,1.86,1.86,0,0,0-.72-.93,1.64,1.64,0,0,0-.86-.44,1.49,1.49,0,0,0-.79.15.65.65,0,0,0-.36.29,1.41,1.41,0,0,0-.22.36.91.91,0,0,0-.07.43,1.24,1.24,0,0,0,.07.5c-.14-.14-.29-.21-.36-.29a1.7,1.7,0,0,0-.57-.14,1,1,0,0,0-1,.58,2.58,2.58,0,0,0-.15.79A1.86,1.86,0,0,0,102,110Z"/><path class="cls-4" d="M114.62,71.57V67a4.71,4.71,0,0,0,.87.36,7.89,7.89,0,0,0-.87-1.44V63.14c.65.65,1.3,1.3,1.88,2a15.13,15.13,0,0,1,3.81,8.71,11.23,11.23,0,0,1-5.69-2.23Zm0-9.65c1.59,1.44,3.32,3,4.9,4.32A12.55,12.55,0,0,0,127.94,69c-1.72-5.26-4.89-7.85-7.12-9-1.23-.65-3.75-1.66-6.2-2.6v.8c.8.43,1.59.93,2.52,1.51a12.83,12.83,0,0,1,3.32,3.67,33.94,33.94,0,0,1-5.84-3v1.51Zm0-5.54c1.73.64,4.18,1.72,8,3.52,7.48,3.53,11.44,2.31,11.44,2.31a15.86,15.86,0,0,0-9.72-7.71,82.74,82.74,0,0,0-9.72-1.72v.43a49.49,49.49,0,0,1,6,2.16,23.68,23.68,0,0,1,4,2.23c-3.6-.07-7.2-1.44-10.08-2.66v1.44Zm0-4.68V49.61a35,35,0,0,0,12,1.15c-3-1.51-8.71-1.73-11.38-2a5.49,5.49,0,0,0,1.08-.72c3.17.44,10.44.36,13.18.94A30.91,30.91,0,0,1,139,52.63s-3.89,1.37-11.3.79a85.64,85.64,0,0,1-13-1.72Zm0-3.39a5.67,5.67,0,0,0,1.23-.86,5.08,5.08,0,0,0-1.23-1.37v2.23Zm0-3.17v-1a59.23,59.23,0,0,1,15.2-3c5.61-.43,9.72-.07,11.8.51a36.36,36.36,0,0,1-11,4.82c-5.91,1.3-10.73.43-14.19.51a10.94,10.94,0,0,0-.93-1.16,56,56,0,0,0,13.39-1.8s-5.9-1.29-14.26,1.08Zm0-2.08c5.62-1.59,13.54-2.81,18.22-4.76,7.49-3.09,8.86-7,8.86-7A45.28,45.28,0,0,0,125.86,34c-3.32,1-7.92,2.67-11.24,3.89V40c3.32-1.22,5-1.8,8-2.66a29.82,29.82,0,0,1,6-1A28.74,28.74,0,0,1,122.76,39a48.81,48.81,0,0,1-8.14,1.87v2.24Zm0-6.48v-.94l.08-.14.14-.15.14-.21h0c3-1.44,3.75-2,5.26-2.74a42.35,42.35,0,0,0,5.69-3.89,30.17,30.17,0,0,0,3.89-4.17A25,25,0,0,0,123.55,28c-2,1.51-5.25,4-8,6.19l.94-2.88c3.24-2.52,7.92-7.06,9.43-8.57s7.49-6.69,10.22-7.27c0,0,.79,5.83-2,9.72S122.76,35,114.62,36.58Zm0-2.67V32.33a3.94,3.94,0,0,1,.8-.15,13.82,13.82,0,0,1-.8,1.73Zm0-2.81A41.66,41.66,0,0,0,127.3,17.64c2.52-4.68,1.44-10.15.79-13a57,57,0,0,0-8.5,9.5c-1.58,2.16-3.38,5.11-5,7.85V25.2c1.59-2,3.32-4.25,5-6.34a18.57,18.57,0,0,1,4.39-4,19.91,19.91,0,0,1-5,7.92c-1.15,1.08-2.66,2.67-4.32,4Zm0-9.14V25.2l-.79,1.08V23.62c.22-.58.51-1.08.79-1.66Zm0,4.75V31.1a9,9,0,0,0-.79.51V27.43c.22-.21.51-.43.79-.72Zm0,5.62v1.58c-.21.51-.5,1.08-.79,1.66v-3a4.93,4.93,0,0,1,.79-.29Zm0,3.31v.94a2.55,2.55,0,0,1-.72.14l.15-.14.14-.22.07-.22.22-.21.14-.22v-.07Zm0,2.23V40l-.36.14c-.14-.07-.28-.21-.43-.28V38.23a5.22,5.22,0,0,0,.79-.36Zm0,3v2.24a5.08,5.08,0,0,1-.79.28v-.93l.15-.15.14-.21.14-.29.08-.22.07-.21.07-.15.07-.21v-.15Zm0,3.32v1h-.07l-.21-.07-.22-.14-.29-.15h0v-.36l.79-.28Zm0,1.94v2.23a5.73,5.73,0,0,1-.79.43V45.58a6.8,6.8,0,0,1,.79.5Zm0,3.53V51.7l-.79-.22V49.54l.22-.15a4.91,4.91,0,0,0,.57.22Zm0,3.17v.43c-.14,0-.28-.07-.43-.07l-.07-.22-.07-.22c.14,0,.36.08.57.08Zm0,2.16v1.44c-.28-.08-.57-.22-.79-.29V54.58h0a3.17,3.17,0,0,0,.79.36Zm0,2.44v.8c-.28-.15-.57-.29-.79-.44V57l.79.36Zm0,3v1.51l-.79-.79v-1.3c.22.15.51.36.79.58Zm0,2.73v2.74a5.18,5.18,0,0,0-.79-1V62.35a8.41,8.41,0,0,1,.79.79Zm0,3.82v4.61c-.28-.29-.57-.51-.79-.79V66.46c.29.21.58.36.79.5Zm-.79-26v0Zm0-17.35v2.66l-.93,1.15.07-.93V25.27a18.6,18.6,0,0,1,.86-1.65Zm0,3.81v4.18a8,8,0,0,1-1.08.57v-3.6l.07-.43c.36-.21.65-.5,1-.72Zm0,5.19v3c-.36.5-.72,1.08-1.08,1.51V33a5.7,5.7,0,0,1,1.08-.36Zm0,5.61v1.59l-1.08-.44v-.72a10.53,10.53,0,0,1,1.08-.43Zm0,2.45V41a4,4,0,0,1-1.08,1.58V40.18a6.51,6.51,0,0,1,1.08.5Zm0,1.73-.07.07-.22.22-.21.28-.36.29-.22.22v.21c.29-.07.65-.21,1.08-.36v-.93Zm0,2v.36l-.14-.07-.22-.07-.21-.07.57-.15Zm0,1.16v3.16a5.7,5.7,0,0,1-1.08.36v-4c.07,0,.07,0,.15.08a3.34,3.34,0,0,1,.93.36Zm0,4v1.94a1.37,1.37,0,0,1-.57-.14l-.51-.51V49.9l.22-.08.29-.07.21-.07.29-.14Zm0,5v1.51a10.53,10.53,0,0,1-1.08-.43v-.58a8,8,0,0,0,1.08-.5Zm0,2.44v.72a6.51,6.51,0,0,1-1.08-.5v-.65l1.08.43Zm0,2.81v1.3l-1.08-.94V59a7.21,7.21,0,0,0,1.08.79Zm0,2.52v2.52c-.36-.43-.72-.79-1.08-1.15V61.34c.36.36.72.65,1.08,1Zm0,4.11v4.32a9.06,9.06,0,0,1-1.08-1.23V65.74a11.25,11.25,0,0,0,1.08.72Zm-1.08-12.17V51.91a7.74,7.74,0,0,1,.94,1.87A3.75,3.75,0,0,1,112.75,54.29Zm0-25.71v3.6l-.07.08-.72.28V30.6a13.78,13.78,0,0,0,.72-1.8l.07-.22Zm0,4.4v4.1a3.69,3.69,0,0,0-.5.58.9.9,0,0,0-.29.21V33.34c.29-.15.5-.22.79-.36Zm0,5.68v.72c-.29-.07-.5-.07-.79-.14V39a4.61,4.61,0,0,0,.79-.29Zm0,1.52v2.37a3.1,3.1,0,0,1-.79.58V40a2.76,2.76,0,0,1,.79.15Zm0,3.31v.21A3.16,3.16,0,0,1,112,44h0l.14-.07.22-.14.14-.08.22-.14.07-.07Zm0,1.65v4a2.76,2.76,0,0,1-.79.15V44.93l.79.21Zm0,4.76v.93a3.23,3.23,0,0,0-.79-.65V50h.43l.29-.07Zm0,2v2.38c-.21.07-.5.14-.79.21V51.05a9.6,9.6,0,0,1,.79.86Zm0,3.17v.58l-.79-.22v-.22a3.13,3.13,0,0,0,.79-.14Zm0,1.51v.65c-.29-.07-.5-.22-.79-.29V56.3l.79.29Zm0,2.45v1.15a7.36,7.36,0,0,0-.79-.72v-.93a7.77,7.77,0,0,0,.79.5Zm0,2.3v2.38c-.29-.22-.5-.43-.79-.65V60.7c.29.21.5.43.79.64Zm0,4.4v3.74a12.7,12.7,0,0,0-.79-1V65.23c.29.15.5.36.79.51ZM112,76.32v-4l.07.29.15.5.14.58.07.57.07.58v1.73a4.25,4.25,0,0,0-.5-.22Zm0-47.81V23.69H112A12.19,12.19,0,0,1,112,28.51Zm0-4.82v4.82a5.85,5.85,0,0,1-.79,2,14.54,14.54,0,0,1-1.73,2.3V24.91A9.22,9.22,0,0,1,112,23.69Zm0,6.91c0,.07-.07.14-.14.29a16.69,16.69,0,0,1-2,2.66,15.45,15.45,0,0,1,2.16-1h0V30.6Zm0,2.74v4.53a6.94,6.94,0,0,1-2.52,1.51V34.49c.79-.36,1.66-.79,2.52-1.15ZM112,39a2,2,0,0,1-.58.29H112V39ZM112,40v3.1a6.53,6.53,0,0,1-1.73.79,3.13,3.13,0,0,1-.79.14V40.25c.14,0,.22-.07.36-.07A4.09,4.09,0,0,1,112,40Zm0,4-.07.07-.22.08A.58.58,0,0,0,112,44Zm0,.94v4.32a2.06,2.06,0,0,1-.65.07,8.21,8.21,0,0,1-1.87-.07V44.93a7.11,7.11,0,0,1,2.52,0Zm0,5v.21c-.07-.07-.14-.07-.22-.14H112V50Zm0,1.08a6.32,6.32,0,0,0-2.52-1.23v4.61c.14,0,.22,0,.29.07a5.53,5.53,0,0,0,2.23,0V51.05Zm0,4.17v.22c-.14-.07-.36-.07-.5-.14a1,1,0,0,0,.5-.08Zm0,1.08V57c-.5-.21-1.08-.5-1.66-.72l-.21-.36c0-.14-.07-.21-.15-.36a15.84,15.84,0,0,0,2,.79Zm0,2.24c-1.3-1-2-1.66-2-1.66a2.78,2.78,0,0,1-.5.43h0c.65.51,1.51,1.23,2.52,2.16v-.93Zm0,2.16v2.37a15.15,15.15,0,0,0-2.52-1.8V58.68c.79.65,1.66,1.3,2.52,2Zm0,4.53v3.24c-.94-1.37-1.8-2.45-2.52-3.38v-2c.94.8,1.8,1.52,2.52,2.09Zm0,7.06-.07-.22-.15-.57-.21-.51-.22-.57-.29-.51-.21-.5-.29-.43-.29-.51-.29-.5-.28-.43-.22-.29V75.1A20.14,20.14,0,0,0,112,76.32v-4Zm-2.52-47.38v7.92A13.05,13.05,0,0,1,108,34.27V26.14a7.58,7.58,0,0,1,1.44-1.23Zm0,9.58v4.89a7.33,7.33,0,0,1-1.44.15V35.35c.29-.14.58-.36.86-.5s.36-.22.58-.36Zm0,5.76v3.81a11.12,11.12,0,0,1-1.44.29v-4a8.36,8.36,0,0,0,1.44-.14Zm0,4.68v4.32A8.73,8.73,0,0,1,108,49v-3.6a9.83,9.83,0,0,1,1.44-.43Zm0,4.89v4.61c-.5-.14-1-.29-1.44-.43V49.54l.14.07,1.3.21Zm0,6.41h0A2.75,2.75,0,0,1,108,57.38V54.94a3.21,3.21,0,0,1,1.44,1.29Zm0,2.45v2.59c-.5-.36-1-.65-1.44-.93V58.18c.14-.08.36-.08.5-.15.29.22.65.43.94.65Zm0,4.46v2c-.5-.65-.94-1.15-1.44-1.73V61.7l1.44,1.44Zm0,4.11V75.1c-.43-.29-.94-.58-1.44-.94V70.78a9.23,9.23,0,0,0,1.37,1.08s.29-1.3-1.37-3.89V65.3l.07.08.29.43.36.36.29.43.29.5ZM108,26.14v8.13a23.45,23.45,0,0,1-2.09,1.59V29.45c.22-.51.36-.87.51-1.15A12,12,0,0,1,108,26.14Zm0,9.21c-.65.43-1.37,1-2.09,1.51v2.45l.22.07a8.48,8.48,0,0,0,1.87.15V35.35Zm0,5v4a6.59,6.59,0,0,1-2.09,0v-4h0a9.7,9.7,0,0,0,2.09.07Zm0,5V49a6.52,6.52,0,0,1-2.09-.79v-.58H106l.15-.21.21-.22.15-.29.14-.21.22-.29.14-.29.15-.43a3.49,3.49,0,0,1,.86-.29Zm0,4.18V54a7.59,7.59,0,0,1-2.09-1.15V49.32a10.4,10.4,0,0,1,2.09.22Zm0,5.4a18.78,18.78,0,0,1-2.09-1v3.6a.45.45,0,0,0,.29.07,3.52,3.52,0,0,0,1.8-.22V54.94Zm0,3.24v2.16c-.58-.36-1.15-.65-1.51-.87a3.35,3.35,0,0,0-.58-1.15h.22a5.2,5.2,0,0,0,1.87-.14Zm0,3.52-1.37-1.36v.5l-.07.22v.14l-.07.22a.72.72,0,0,0-.07.28c.5.51,1.08,1.08,1.58,1.66V61.7Zm0,3.6V68a18.16,18.16,0,0,0-2.09-2.74V63h0l.29.29.29.29.29.36.36.36.28.28.36.44.22.28Zm0,5.48v3.38A10.2,10.2,0,0,1,105.91,72V68.4A17.52,17.52,0,0,0,108,70.78Zm-2.09-24.34a2.64,2.64,0,0,0,.36-.65,1.27,1.27,0,0,0-.36-.36Zm0-17v6.41l-.86.64v-4c.21-.93.57-2.16.86-3.09Zm0,7.41v2.45l-.21-.21s-.29-.15-.65-.29V37.58c.29-.21.57-.5.86-.72Zm0,3.46v4a3.63,3.63,0,0,1-.86-.29V42.48a7.43,7.43,0,0,0,.86-2.16Zm0,5.11v1a3.89,3.89,0,0,1-.86,1V44.86c.36.21.65.43.86.57Zm0,2.16v.58a1.61,1.61,0,0,1-.36-.22l.22-.14.14-.22Zm0,1.73v3.53a4.64,4.64,0,0,1-.86-.79V49.32Zm0,4.61v3.6a3.24,3.24,0,0,1-.86-.15v-4a6.19,6.19,0,0,0,.86.58Zm0,9.07v2.23c-.29-.29-.57-.65-.86-.93V62.14h0l.07.07.29.21.21.29.29.29Zm0,5.4V72l-.43-.65-.43-.86V67.1l.86,1.3Zm-.86,21.31V88.56c.86.36.57,1.87.57,1.87a8.65,8.65,0,0,0-.57-.72Zm0-28.29v-3a2.83,2.83,0,0,1,.65,3Zm0-20.6c.07-.28.21-.64.29-1.08l-.29-.14Zm0-8.28v4a16.33,16.33,0,0,1-1.87.94v-.22h.07l.07-.21.14-.22.15-.21.14-.22.07-.22.15-.28.07-.22.14-.29.08-.21.14-.29.07-.29.07-.29.08-.29.14-.28a11.44,11.44,0,0,1,.29-1.16Zm0,5v1.23a6.14,6.14,0,0,0-1.3-.22c.29-.21.72-.57,1.3-1Zm0,2v1.22a5,5,0,0,1-1.87,2.52v-4a5.4,5.4,0,0,1,1.87.29Zm0,2.88a10.64,10.64,0,0,1-1.08,1.3l.21.07.22.07h.22l.14.07.22.07h.07V42.48Zm0,2.38v2.59a5.52,5.52,0,0,1-1.87,1V44.35a8.81,8.81,0,0,1,1.87.51Zm0,4.46v2.74a2.81,2.81,0,0,1-.43-.51l-.15-.21-.07-.22-.14-.22-.15-.28L104,50.4l-.07-.22-.15-.21-.21-.22-.15-.21a6,6,0,0,1,1.66-.22Zm0,4v4a8,8,0,0,1-1.87-.72V53.78h.21l.29-.07H104l.21-.07.44-.07.14-.43a.9.9,0,0,0,.29.21Zm0,5a6.46,6.46,0,0,0-.72-.57,6,6,0,0,0-1.15-.65v4a4,4,0,0,0,1.87.29v-3Zm0,3.75V64.3a18.19,18.19,0,0,0-1.66-1.59,1,1,0,0,0-.21-.5v-.29a5.26,5.26,0,0,0,1.87.22Zm0,5v3.39c-.72-1.23-1.3-2.31-1.87-3.17V64.58l.28-.07a17.66,17.66,0,0,0,1.59,2.59Zm0,21.46v1.15a.94.94,0,0,0-.94-.14,1.25,1.25,0,0,1-.93,1V87.05a1.79,1.79,0,0,1,1.29,1.44.8.8,0,0,1,.58.07Zm-1.87,6.62V91.73c.72.29,1.15.93.57,2.23.94.58.65,1.66.15,2.52a2.07,2.07,0,0,0-.72-1.3Zm0-18.07V71.35a8.81,8.81,0,0,1,0,5.76Zm0-24a3.76,3.76,0,0,0,.86-.14s.29-.94-.86-2.45v2.59Zm0-17.28a12.75,12.75,0,0,0,1.08-7.56l-.29.51-.22.5-.29.58-.28.36Zm0-5.61v5.61a5.54,5.54,0,0,1-1.08,1.66V31.75h.07l.21-.29.15-.28.21-.29.22-.29.14-.22.08-.21Zm0,7-.08.22-.14.14.22-.14v-.22Zm0,2.09v4a3.09,3.09,0,0,1-1.08.72V39.38a6.37,6.37,0,0,1,1.08-.07Zm0,5v4.11a8.68,8.68,0,0,1-1.08.28V44.35a5.52,5.52,0,0,1,1.08,0Zm0,6.12v2.59a4.91,4.91,0,0,1-1.08.08V49.32a4.07,4.07,0,0,1,1.08,1.15Zm0,3.31v2.88a8.44,8.44,0,0,1-1.08-.72V53.86h.79l.21-.08Zm0,3.39a4.08,4.08,0,0,0-1.08-.58v4a7.52,7.52,0,0,0,1.08.51v-4Zm0,4.75v.29a.69.69,0,0,0-.22-.36c.07,0,.14.07.22.07Zm0,2.66v2.74a12.94,12.94,0,0,0-1.08-1.8v-.86a3.17,3.17,0,0,0,.86-.08Zm0,6.77v5.76a5.34,5.34,0,0,1-.36.87,2.89,2.89,0,0,1-.72-.36V68.33a17.37,17.37,0,0,1,1.08,3Zm0,15.7v3.53a1.54,1.54,0,0,1-1.08-.22V87a1.67,1.67,0,0,1,1.08.07Zm0,4.68v3.45L103,95a2.23,2.23,0,0,1-.86.21V91.66a4.92,4.92,0,0,1,1.08.07ZM102.1,63.94a2.69,2.69,0,0,0,.79-.08s.14-.57-.79-2.08Zm0-32.19v5.69a3.78,3.78,0,0,1-.72.72,8.21,8.21,0,0,0-2.24,2.52,10.16,10.16,0,0,1,3-1.3v4.68a4.71,4.71,0,0,1-.87.29h.87v4.39a3,3,0,0,1-.58.08,4.27,4.27,0,0,1,.58.5v3.82a5.51,5.51,0,0,1-3.24-1.08c2.52,3.38.57,5.9.57,5.9A6.54,6.54,0,0,1,96,56.38V37.22l.36-.21.5-.36.43-.36.43-.36.44-.29.36-.36.43-.29.36-.36.36-.29.29-.28.36-.29.28-.29.29-.36.29-.29.22-.29.28-.28L102,32l.15-.22Zm0,22.11h-.36l-.22-.08h-.43l-.22-.07h-.14l-.22-.07a9.51,9.51,0,0,1,.29,1,10.56,10.56,0,0,0,1.3,1.29V53.86Zm0,2.73c-.44-.14-.8-.29-1.23-.43l-.07.14v.22l-.07.22-.07.21v.22l-.08.14-.14.29-.07.22-.15.21-.07.15-.14.21a7.45,7.45,0,0,0,2.09,2.23v-4Zm0,5.19a17.74,17.74,0,0,0-2.74-3.1l-.29-.07h-.21l-.29-.07-.22-.08-.21-.07-.22-.07-.22-.07-.14-.07-.22-.08L97.13,58,97,57.89l-.36-.15-.14-.07-.29-.21A3.14,3.14,0,0,0,96,58v1.73a5.12,5.12,0,0,0,1.72,2.45,7.37,7.37,0,0,0,4.4,1.8V61.78Zm0,2.88v.86c-.29-.36-.51-.72-.72-.94a2.19,2.19,0,0,0,.72.08Zm0,3.67v9.29a9.39,9.39,0,0,1-3.17-3c-1.44-2.3-1.8-6.91-2.09-11.37v-.87a3.77,3.77,0,0,0,.36.29,7.78,7.78,0,0,0,.86.65v.21l.08.22v.22l.07.28v.58l.07.29.07.36.07.36v.36l.08.36.07.36.07.43.07.43.15.36L99,69l.14.43.08.43.14.36.14.43.15.36.14.36.07.36.22.36.14.36.15.29.21.29.22.21c.58-2.8-.94-6.33-1.8-9.36a4.15,4.15,0,0,0,.86.36,31.49,31.49,0,0,1,2.24,4.11Zm0,18.65v3.38a1.74,1.74,0,0,1-.72-.58c-.22-.64-2.6.65-2.6.65,2.74-.29,2.81.79,2.74,1.44l.58-.21v3.52c-1.44.15-1.66-1.44-1.73-1.65-.43-1.3-3.46-1.08-3.46-1.08,2,.5,1.44,2.16,1.44,2.16,3,0,2,3.38,1.08,3.17a1.65,1.65,0,0,1-.79,2,1.7,1.7,0,0,0-.22-1.8c-2.44.87-2-2.23-1.58-2.66A4.66,4.66,0,0,0,96,92.66V87.05c.57-.07,1.15.14,1.72,1.08,1.44-1.15,1.23.21,2.45-.07A3.78,3.78,0,0,1,102.1,87ZM96,75.31V66l.14-.14c.14,2,.58,6.41-.14,9.5Zm0-11.45V61.13A6,6,0,0,1,96,63.86Zm0-26.64V56.38a6.09,6.09,0,0,1-1.16-1.59c.36,3-1.15,3.82-1.15,3.82a4.07,4.07,0,0,1-1.8-1.08V51.7a6.07,6.07,0,0,0,3.75-1.44c1.15-1.37-.8-5-1.88-7.49a4,4,0,0,1,1.59-5.11l.5-.36.15-.08ZM96,58a3.23,3.23,0,0,0-.08,1.51.26.26,0,0,1,.08.22V58Zm0,3.17a2.19,2.19,0,0,0-.15-.65,4.52,4.52,0,0,0-1.08-1.94l-.07.07-.14.21-.22.22-.14.07-.22.15-.22.14-.28-.07a4.49,4.49,0,0,0-.72-.29,7.13,7.13,0,0,0-.51,1.87,10.22,10.22,0,0,0,.07,3.6,7.43,7.43,0,0,0,1.8,2.88,10,10,0,0,0,1.66-2.66,2,2,0,0,0,.22-.87V61.13ZM96,66v9.36a5.13,5.13,0,0,1-1.37,3S93,77,92.3,66.24a11.89,11.89,0,0,0,1.3,1.66,11.58,11.58,0,0,0,.79,5.76s1.3-.94.51-6l.14-.22.22-.21.07-.15.14-.29.22-.21.14-.29L96,66V66Zm0,21.1v5.61a2.62,2.62,0,0,0-1.66-.93c-.36-.15-.29,1.94-2.45.86a.63.63,0,0,1,0,.79V86.26a3.37,3.37,0,0,0,1.66,1.51c.79.36,1.58-.58,2.45-.72Zm-4.11,7.7v-.14l.07.07-.07.07Zm0-9.14V84.1l.22-.08a4.4,4.4,0,0,1,.65,1.08c.07.22,0,.44-.44.44-.07.07-.28.07-.43.07Zm0-61.85v-.65a.64.64,0,0,0,.58-.65l-.07-.14-.08-.22L92.16,22l-.22-.07h-.07V19.73H93.6l.22.07.21.14.22.15.14.14.22.07.21.29a3,3,0,0,1-1.08,4A4.82,4.82,0,0,0,91.87,23.76Zm0-4v2.16H91.8a.62.62,0,0,0-.58.57.64.64,0,0,0,.58.65h.07v.65a4.87,4.87,0,0,0-2.73.43V22a3.7,3.7,0,0,0,2.37-2.16l.22-.07Zm0,32v5.83a6.09,6.09,0,0,1-1-1.15,4.44,4.44,0,0,1-1.72,1.87V51.62a11.45,11.45,0,0,0,2.73.08Zm0,32.4v1.51h-.65l.65.65v7.12a1.85,1.85,0,0,1-.57.36.7.7,0,0,0,.57.87v.14C90.94,95.33,90,94,90,94a2.22,2.22,0,0,1-.86-.29v-3a1.22,1.22,0,0,1,1.65-.29c.43-.57.79-.57.79-.57-1.08-1.37-1.8-2.38-2.44-3.1V84.89a23.37,23.37,0,0,1,2.73-.79Zm-2.73,0c.93-.29,2.52-.72,2.52-.72a7.28,7.28,0,0,0-2.52-1.95V84.1Zm0-8.21V73a16.13,16.13,0,0,0,1.29-4.9l.15-.29.21-.21.15-.29.14-.22.14-.28.08-.22.14-.22.14-.28c-.5,4.1-.72,7.05-2.44,9.79Zm0-7.49c.14-.07.21-.22.28-.29a9.08,9.08,0,0,0,2.24-5.25,19.68,19.68,0,0,0-.08-4.61l-.07-.07L91.3,58l-.15-.21-.21-.22a25.93,25.93,0,0,0-1.8,2.59V68.4Zm0-39V25.7c.14.15.21.29.36.44.79,1.15-.15,2.88-.36,3.24Zm0-8.5a3.54,3.54,0,0,0,.79-1.08c.36-.94.43-1.51-.79-1.22Zm0-2.3v2.3a7.82,7.82,0,0,1-.94.86V21.6l.07-.14.07-.15.08-.21.07-.15.07-.21.07-.15v-.21l.07-.22.08-.22v-.21l.07-.22v-.43l.07-.22v-.21a.29.29,0,0,0,.22-.07Zm0,3.38v2.23a3.42,3.42,0,0,1-.58.36,1.21,1.21,0,0,1-.36-.14v-2h.07c.22-.14.58-.29.87-.43Zm0,3.74v3.75a4.22,4.22,0,0,0-.94-1.66V24.91a3.33,3.33,0,0,1,.94.79Zm0,25.92v6.63a2.82,2.82,0,0,1-.94.43v-7.2c.36.07.65.07.94.14Zm0,8.57V68.4a4.78,4.78,0,0,1-.94.72V62.57c.14-.43.29-.87.43-1.23s.36-.79.51-1.15Zm0,12.82v2.88a7.52,7.52,0,0,1-.94,1.29V69.91c.29-.14.5-.29.79-.43a10.66,10.66,0,0,0-.21,4.1s.14-.07.36-.57Zm0,8.42V84.1h-.08a5.5,5.5,0,0,0-.86-.51V81.14h.14l.22.08a5.29,5.29,0,0,1,.58.21Zm0,3.46v1.87c-.08-.07-.15-.22-.22-.29,0,.15.07.22.07.36a5.1,5.1,0,0,0-.79-.36V85.18a4.23,4.23,0,0,1,.94-.29Zm0,5.83v3c-.94-.65-.72-2.16,0-3Zm-.94-6.34v-.21l.29.14-.22.07Zm0-24c.36-.51.65-.87.94-1.23a6.78,6.78,0,0,1-.94.36v.87Zm0-41.12c.07-.28.07-.57.14-.93l-.14.07v.86Zm0-4.1v-2.3h.29a.63.63,0,0,1,.57.86A7.19,7.19,0,0,1,88.2,15.12Zm0-2.3v2.3c-.43.79-.94,1.51-1,1.66H87V13.25a1.92,1.92,0,0,1,1.22-.43Zm0,5.54v.86A5.88,5.88,0,0,1,87,22.39V18.72a7,7,0,0,1,1.22-.36Zm0,3.24-.07.22.07-.08V21.6Zm0,.79a7.68,7.68,0,0,0-1.22.87v.79c.57.14,1,.29,1.22.36v-2Zm0,2.52v2.88A4.88,4.88,0,0,0,87,26.86V24.41a4.92,4.92,0,0,1,1.22.5Zm0,26.57v7.2l-.58.22a4.47,4.47,0,0,1-.28-3.75.68.68,0,0,1-.36.07v-4.1a11.37,11.37,0,0,0,1.22.36Zm0,8v.87a10.05,10.05,0,0,0-.94,2.95c-.07.36-.21.72-.28,1.08v-5l.21.36.51-.15a2.36,2.36,0,0,0,.5-.07Zm0,3.1c-.29,1.08-.65,2.23-.79,2.95A6.27,6.27,0,0,1,87,66.89v2.66a4,4,0,0,0,1.22-.43V62.57Zm0,7.34v7.27l-.07.15s-1.59-2.09-.51-7.2c.22-.07.36-.15.58-.22Zm0,11.23v2.45A7,7,0,0,0,87,82.94V80.86h.14l.14.07h.22l.29.07.29.07.14.07Zm0,3A9.72,9.72,0,0,0,87,83.45v1.44l.14-.07.14-.08.15-.07.21-.07.22-.07.22-.07.14-.08v-.21Zm0,1v1.29a1.85,1.85,0,0,0-.58-.07l-.64.22v-.94a1,1,0,0,0,.43-.22c.21-.07.5-.21.79-.28ZM87,46.44V42.05c.72.72.79,2.52.43,3.67a2.7,2.7,0,0,1-.43.72ZM87,18v-.65h.07l.14.07.22.08.21.07.15.14C87.77,17.86,87.48,17.93,87,18Zm0-4.75v3.53c-.15-.08-.22-.08-.8-.08V15.48l.08-.14v-.22l.07-.29.07-.29.07-.21.07-.22.08-.21.07-.22.07-.14.14-.22.08-.07Zm0,4.1V18a2.84,2.84,0,0,1-.8.07v-.79h.29l.22.07H87Zm0,1.37v3.67a2.73,2.73,0,0,1-.8.79V18.86a3.85,3.85,0,0,1,.8-.14Zm0,4.54v.79a1.41,1.41,0,0,0-.58-.15,7.78,7.78,0,0,0,.58-.64Zm0,1.15v2.45a2.54,2.54,0,0,0-.8-.36V24.26c.29.08.58.08.8.15Zm0,17.64v4.39a3.37,3.37,0,0,1-.8.94V43.06a6.25,6.25,0,0,0,.65-1.23c.07.07.15.15.15.22Zm0,9.07v4.1a1.53,1.53,0,0,1-.8.08V52.2A5.92,5.92,0,0,0,86.69,51a1.31,1.31,0,0,1,.29.14Zm0,8.21v5a10.61,10.61,0,0,1-.8,2.45V56h.22a2.26,2.26,0,0,0-.07.72,5.46,5.46,0,0,0,.57,2.44l.08.15Zm0,7.56v2.66a3.37,3.37,0,0,1-.8.07v-.5a16.54,16.54,0,0,0,.8-2.23Zm0,14v2.08c-.22-.14-.51-.21-.8-.36V80.71h.22l.36.07.22.08Zm0,2.59v1.44L86.9,85l-.21.07-.15.07-.21.15-.15.07V83.09c.29.14.51.21.8.36Zm0,2.23v.94a2.34,2.34,0,0,0-.8,1V86.26c.29-.22.58-.44.8-.58Zm-.8-35.5V48.74l.29-.14V49l-.07.22v.36l-.07.14-.07.22v.21l-.08.07Zm0-36.5a1.82,1.82,0,0,0,.22-.79.65.65,0,0,0-.22-.51v1.3Zm0-3.53V9.29H87v.86Zm0-.86v.86h-.36v1.59H84.74V10.15h0V9.29h0V8h1.08v1.3Zm0,3.09v1.3c-.28.65-.72,1.37-.86,1.8-.14-.22-.36-.65-.58-1.08V12.24l.08-.07h.57a1.64,1.64,0,0,1,.79.21Zm0,3.1V16.7H86v-.21l.07-.22v-.14l.07-.29.07-.22v-.14Zm0,1.8v.79a3.53,3.53,0,0,1-.86.07h-.58v-.86c.15,0,.36-.07.58-.07h.5l.22.07Zm0,1.58v4.32a4.91,4.91,0,0,1-1.44.8V21.1a1.3,1.3,0,0,1,.51.86l.14-.07.15-.22.21-.21.07-.15.08-.21.07-.22.07-.14.07-.29a4.62,4.62,0,0,0-1.37-.07v-1.3c.51-.07,1-.14,1.44-.22Zm0,5.4V26.5a4.4,4.4,0,0,0-1.44-.29v-.36l.08-.07.28-.29.29-.36.15-.15.14-.21.22-.22.07-.14.14-.15Zm0,18.8v4.32a3.91,3.91,0,0,1-1.44.72V44.28a3,3,0,0,0,1.44-1.22Zm0,5.68v1.52l-.07.21-.14.36-.15.36-.14.36-.07.22-.15.29-.21.36-.15.28-.14.22-.14.29-.08.14V49.1a4.82,4.82,0,0,0,1.44-.36Zm0,3.46a10.43,10.43,0,0,1-1.44,2.38h0a1.55,1.55,0,0,0,1.44.72V52.2Zm0,3.82v10.8c-.28.5-.43.5-.43.5-.21-.65-.57-1.44-1-2.45V55.58a2.43,2.43,0,0,0,1.44.44Zm0,13.1v.5a.31.31,0,0,1-.21-.07,2.47,2.47,0,0,0,.21-.43Zm0,11.59v1.87L86,82.51a2.86,2.86,0,0,1-1.3-1V80.35l.22.07.36.08.36.07.36.07.14.07Zm0,2.38v2.23l-.07.07a1.59,1.59,0,0,1-.65-.65c-.14-.21-.43-.57-.72-1V82.58a12.11,12.11,0,0,1,1.37.51Zm0,3.17v1.36a3.78,3.78,0,0,0-.21.51l-.15-.22-.14-.14-.07-.22-.07-.21v-.15l.07-.29a1.57,1.57,0,0,1,.57-.64Zm-1.44,1.8a2.47,2.47,0,0,0,.44-2,2.62,2.62,0,0,0-.44-1v3Zm0-8.5v-.79c.36.43.72.79.87,1,0,0-.36-.08-.87-.22Zm0-52v-.29l.15.07.21.07a3.76,3.76,0,0,1-.36.15Zm0-2.45a3.55,3.55,0,0,0,.44-.65H85l-.21.07-.08.07Zm0-15.84v.86h-.43V9.29Zm0,3V14.4a5.73,5.73,0,0,0-.43-.79V12.46l.15-.08.21-.14Zm0,5v.86c-.14,0-.28-.07-.43-.07v-.79Zm0,1.8v1.3h-.43v-1.3Zm0,2V24h-.36v-.15l.08-.29V23l-.15.14V20.88l.43.22Zm0,3.52v.51l-.43.43v-.79l.15-.07.21-.08Zm0,1.23v.36h-.36L84.6,26l.14-.14Zm0,1.44v.29a1.08,1.08,0,0,0-.43.14v-.5l.22.07h.21Zm0,17V48.1h-.43V44.35c.15,0,.29-.07.43-.07Zm0,4.82v4.25h-.07l-.07.22-.07.07-.22-.22V49.1Zm0,6.48v9.29L84.31,64V55.22a.72.72,0,0,0,.43.36Zm0,23.19v.79l-.43-.07V78.34l.43.43Zm0,1.58V81.5a2.73,2.73,0,0,0-.43-.5v-.72h.29l.14.07Zm0,2.23v1.16l-.43-.44v-.64c.07,0,.22-.08.29-.08Zm0,2.52v3a2,2,0,0,1-.43.36V84.53a3.39,3.39,0,0,1,.43.57ZM84.31,41v-.36h.22a1.61,1.61,0,0,1-.22.36Zm0-24.34V15.34h0l.07.28.08.22v.29l.07.14v.22l.07.21Zm0-7.41v.86h-.5V9.29Zm0,3.17v1.15a1.67,1.67,0,0,1-.21-.72l.07-.15.07-.21.07-.07Zm0,2.88V16.7h-.5v-3h0l.14.22.07.21.08.22.07.21v.29l.07.29.07.22Zm0,1.94v.79h-.5v-.72a1.24,1.24,0,0,1,.5-.07Zm0,1.8v1.3h-.5v-1.3Zm0,1.8v2.23a3.16,3.16,0,0,1-.5.29V20.66a5.18,5.18,0,0,1,.5.22Zm0,3.89v.79a3.37,3.37,0,0,1-.5.5V24.91l.21-.07.22-.07Zm0,2.45v.5a5.18,5.18,0,0,1-.5.22v-.8h.07l.22.08Zm0,13.46V41a2.3,2.3,0,0,1-.5.65V40.61c.21,0,.36.07.5.07Zm0,3.67V48.1h-.5V44.35Zm0,4.75v4.32a2.73,2.73,0,0,1-.5-.43V49.1Zm0,6.12V64a7.44,7.44,0,0,0-.5-1.08V55.44L84,55.3l.15-.08c.14-.14.14-.14.14-.07l.07.07Zm0,23.12v1.15c-.14-.07-.29-.07-.5-.15V77.83a3.47,3.47,0,0,1,.5.51Zm0,1.94V81a2,2,0,0,0-.5-.58v-.28H84l.29.07.07.07Zm0,2.38v.64a1.43,1.43,0,0,0-.5-.36v-.21c.14,0,.36-.07.5-.07Zm0,1.87v3.89h-.07a1.21,1.21,0,0,1-.43.21V84a3.69,3.69,0,0,1,.5.58ZM83.81,82V81.5l.43.44a2.08,2.08,0,0,0-.43.07Zm0-27.58v-.57L84,54l.15.14h.07A1.27,1.27,0,0,1,83.81,54.43Zm0-45.14v.86h-.22V9.29Zm0,4.39v3a.72.72,0,0,1-.43.08A20.39,20.39,0,0,1,82,14.69V12.82h0a2,2,0,0,1,1.58.43l.15.21.07.22Zm0,3.67v.72c-.58-.07-1-.21-1-.36s.43-.29,1-.36Zm0,1.73v1.3c-.58-.08-1.23-.08-1.8-.15V19a9.45,9.45,0,0,1,1.44.07Zm0,1.58V23.4a10.14,10.14,0,0,1-1.8.86V20.38a7.57,7.57,0,0,1,1.8.28Zm0,4.25v1.15a17.64,17.64,0,0,1-1.73,1.37H82V25.78l.07-.08.22-.07.21-.14.29-.15.22-.07.21-.14.29-.07.22-.08.07-.07Zm0,2.23h-.07A9.94,9.94,0,0,0,82,28.37v2.09a3.87,3.87,0,0,1,1.22-2.16c.15-.08.36-.22.58-.36v-.8Zm0,13.47v1.08a2.43,2.43,0,0,1-1.8.5V40a5,5,0,0,0,1.8.65Zm0,3.74V48.1a5.33,5.33,0,0,1-1.8-1V43.56a4.3,4.3,0,0,0,1.8.79Zm0,4.75V53a2.43,2.43,0,0,1-.51-.93,12.37,12.37,0,0,1-.07-3.17,5.29,5.29,0,0,0,.58.21Zm0,4.76-.07-.08-.15-.14-.21-.22-.22-.21L83,53.06l-.15-.21s-.43.86-.86,1.65v1.16a2,2,0,0,0,.72-.29,4.74,4.74,0,0,0,1.08-.94v-.57Zm0,1.58v7.49c-.29-.65-.65-1.37-1-2.09a5.26,5.26,0,0,1-.29-4.54l.22-.14.21-.07.15-.15.21-.14.22-.07.22-.22.07-.07Zm0,22.39v1.51c-.43-.14-.87-.21-1.23-.36L82,78.77V76.46c.5.29.93.65,1.22.8l.58.57Zm0,2.31v.28a2.22,2.22,0,0,0-.36-.43l.21.07.15.08Zm0,1.36A10.9,10.9,0,0,0,82,79.7V82a5.14,5.14,0,0,0,1.8,0V81.5Zm0,1.23v.21c-.15-.07-.22-.14-.36-.14a.87.87,0,0,1,.36-.07Zm0,1.22A8.51,8.51,0,0,0,82.3,82.8h-.22L82,82.73v1.08a2.38,2.38,0,0,1,.65.36c.57.36,1.36,1.73.86,2.59-.29.5-.94.5-1.51.5v.94a2,2,0,0,0,1.8.43V84ZM82,90.36v-.94a3.07,3.07,0,0,1,.43,1c-.14,0-.29-.07-.43-.07ZM82,64.3a6.58,6.58,0,0,0,0-1.66V64.3Zm0-11.6V48.31l.21.07.22.15A10.18,10.18,0,0,1,82.51,51,8,8,0,0,1,82,52.7Zm0-39.88v1.87a3.14,3.14,0,0,1-.51-1,.64.64,0,0,1,.51-.86ZM82,19v1.22h-.07v.15H82v3.88a4.49,4.49,0,0,1-.72.29V18.94L82,19Zm0,6.77v1.65a4.69,4.69,0,0,0-.72.58V26.35c.21-.14.43-.36.65-.5l.07-.07Zm0,2.59v2.3a11.18,11.18,0,0,1-.72,2.16V29.16a3.26,3.26,0,0,1,.72-.79ZM82,40v2.23a2.1,2.1,0,0,1-.72-.21v-2.6A4.16,4.16,0,0,0,82,40Zm0,3.6v3.53a6.11,6.11,0,0,1-.72-.72V43.06a4.06,4.06,0,0,0,.72.5Zm0,4.68V52.7c-.22.58-.51,1.16-.72,1.66V47.59l.07.07.29.29.21.15.15.14Zm0,6.26v1.16a1,1,0,0,1-.51,0c.08-.22.29-.65.51-1.16Zm0,8.14V64.3a1.55,1.55,0,0,1-.15.64,4.19,4.19,0,0,1-.57,1.16V60.7c.21.5.43,1,.57,1.44a1.2,1.2,0,0,1,.15.5Zm0,13.82v2.31a6.69,6.69,0,0,1-.72-.29V76a5,5,0,0,1,.72.5Zm0,3.24V82c-.15-.07-.29-.07-.43-.15a2.82,2.82,0,0,0-.29-.72v-2c.07.07.14.14.21.14.15.15.36.29.51.43Zm0,3v1.08a3,3,0,0,0-.72-.22v-.93a.07.07,0,0,1,.07-.08l.22.08.14.07H82Zm0,4.53v.94a2.16,2.16,0,0,1-.72-.86v-.22a4.36,4.36,0,0,1,.72.14Zm0,2.16v.94a2.55,2.55,0,0,1-.72-.14V88.49a4.41,4.41,0,0,1,.72.93Zm-.72,4.4V92.74a2.58,2.58,0,0,1,.36,1.15.68.68,0,0,0-.36-.07Zm0-68.26V25.2h.14l.15-.07h.21l.15-.07h0A3.23,3.23,0,0,0,81.29,25.56Zm0-6.62v5.61a2,2,0,0,0-.36.15,4.07,4.07,0,0,1,.21-1.23,5,5,0,0,1-.64.36V18.94Zm0,6.26v.36a9.75,9.75,0,0,0-.79.58v-.65h.07l.14-.07.22-.08.29-.07.07-.07Zm0,1.15V28a7.29,7.29,0,0,0-.79.79V27.36a2.57,2.57,0,0,1,.79-1Zm0,2.81v3.67c-.29.72-.65,1.3-.79,1.66V30.1a5.41,5.41,0,0,0,.57-.65,1,1,0,0,0,.22-.29Zm0,10.22V42a.58.58,0,0,1-.29-.15.9.9,0,0,1-.5-.43V38.52a2.86,2.86,0,0,0,.79.86Zm0,3.68v3.31a4.75,4.75,0,0,1-.79-.94V42.26a4,4,0,0,0,.79.8Zm0,4.53v6.77A2.32,2.32,0,0,0,81,55s-.22-.29-.5-.72V46.66l.14.14.22.29.28.29.15.21Zm0,13.11v5.4c-.29.43-.58.86-.79,1.15V60.12l.07-.14.07-.22.07-.22c.22.36.36.72.58,1.16Zm0,15.26v2.52a7,7,0,0,1-.79-.43V75.46c.14.07.43.28.79.5Zm0,3.17v2a4.56,4.56,0,0,0-.79-1.22V78.7c.21.14.5.28.79.43Zm0,3.53v.93a3.89,3.89,0,0,0-.79-.14v-.29a3.61,3.61,0,0,1,.79-.5Zm0,4.46v.22a.41.41,0,0,1-.15-.29.23.23,0,0,1,.15.07Zm0,1.37v1.73a2.87,2.87,0,0,1-.79-.36v-2l.21.15a3.49,3.49,0,0,1,.58.43Zm0,4.25v1.08a3.37,3.37,0,0,0-.79-.15v-2a5.29,5.29,0,0,1,.79,1.08ZM80.5,82.3a.65.65,0,0,1,.36-.29,3.5,3.5,0,0,0-.36-.94V82.3Zm0-24.12V55.66l.07.14.14.22.15.14.14.22A4.75,4.75,0,0,1,80.5,58.18Zm0-39.24v4.89a3,3,0,0,1-.94.22,7.31,7.31,0,0,1,.65-1.66,3.45,3.45,0,0,1-.79.72V18.86c.36,0,.72.08,1.08.08Zm0,6.55v.65a13.28,13.28,0,0,0-1.08,1h0V24.7c.28-.08.64-.15,1-.22a6.55,6.55,0,0,0-.07,1Zm0,1.87V28.8c-.29.36-.44.58-.44.58a2.92,2.92,0,0,1,.44-2Zm0,2.74v4.39l-.08.14a10.36,10.36,0,0,0-.86-3.81s.43-.29.94-.72Zm0,8.42V41.4a3.78,3.78,0,0,1-1.08-1.94v-3a6.73,6.73,0,0,0,1.08,2.09Zm0,3.74a8.08,8.08,0,0,1-1.08-1.15v2.74l.14.29.14.28.22.29.22.29.21.29.15.14V42.26Zm0,4.4v7.63a7.46,7.46,0,0,1-1.08-2v-4c.28-.5.72-1.22,1-1.8l.08.15Zm0,9-.15-.15-.14-.21L80,55l-.21-.29-.29-.43-.07-.15v5.91a15,15,0,0,0,.79-1.3c.07-.21.21-.36.29-.57V55.66Zm0,4.46v7.13a.79.79,0,0,0-.29.29c-.15-.44-.51-.94-.79-1.59V61.56l.07-.14.14-.22.15-.14.14-.22.14-.14.15-.22.07-.14.14-.22Zm0,15.34v2.59c-.44-.22-.72-.43-.94-.51l.14-.21.15-.22.07-.14.07-.22.07-.21.08-.22.07-.22v-.43l.07-.14-.07-.22.29.15Zm0,3.24v1.22c-.15-.07-.29-.22-.44-.29s-.36-.14-.64-.29V78.26a10.27,10.27,0,0,1,1.08.44Zm0,2.37V82.3a3.15,3.15,0,0,1-1.08.64v-2.8a2.75,2.75,0,0,1,1.08.93Zm0,2.09v.29h-.44a2.82,2.82,0,0,0,.44-.29Zm0,4.75v2a4,4,0,0,1-1.08-.65v-2c.36.22.72.51,1.08.72Zm0,3.75v2a7.55,7.55,0,0,1-1.08-.43V90.79l.28.22a6.83,6.83,0,0,1,.8.65ZM79.42,76.25V75a1.84,1.84,0,0,1,0,1.23Zm0-3.75c.28-.64.64-1.51.79-2a3.76,3.76,0,0,0-.79-2.95v5Zm0-26V45.22c.21.36.36.57.36.57A3.23,3.23,0,0,0,79.42,46.51Zm0-27.65v4.25a1.14,1.14,0,0,1-.58.22V18.86Zm0,5.84v2.44c-.22.22-.36.44-.58.65V25.34a2.56,2.56,0,0,0,.29-.64Zm0,11.73v3l-.08-.08v-.21L79.27,39v-.21l-.07-.15V37.22l.07-.14v-.22l.07-.21v-.22Zm0,4.68v2.74l-.08-.07-.14-.29-.14-.29-.22-.29V40.39a5.67,5.67,0,0,0,.58.72Zm0,4.11v1.29c-.22.36-.44.65-.58.94v-3a4,4,0,0,0,.58.8Zm0,3.09v4a1.59,1.59,0,0,1-.15-.5A16,16,0,0,1,79.06,49s.14-.29.36-.65Zm0,5.83v5.91c-.22.21-.36.43-.58.65V53.28l.14.22.15.21.14.29.15.14Zm0,7.42V66c-.15-.21-.22-.43-.36-.65l-.22-.64V62.78a.65.65,0,0,0,.07-.36l.15-.14v-.22l.14-.21.14-.22.08-.07Zm0,6v5a7.67,7.67,0,0,1-.44.87c0-.07-.07-.15-.14-.22V66.89c.22.21.36.43.58.65Zm0,7.48v1.23a1.87,1.87,0,0,1-.15.29,1.91,1.91,0,0,1-.43.72v-3l.22.22a3,3,0,0,1,.36.57Zm0,3.24v1.08l-.58-.21v-.79l.14-.15c.08-.07.22,0,.44.07Zm0,1.88v2.8a1.46,1.46,0,0,1-.58.08v-3.1c.14.07.22.07.29.14a.42.42,0,0,1,.29.08Zm0,7v2c-.22-.15-.36-.36-.58-.51V86.76c.22.14.36.29.58.43Zm0,3.6v2.45a2,2,0,0,1-.58-.29V90.43C79.06,90.58,79.2,90.65,79.42,90.79Zm-.58-71.93v4.47a.56.56,0,0,1-.22.07,4.08,4.08,0,0,1,.15-1.51c-.22.14-.43.57-.87.93v-4.1c.29.07.65.07.94.14Zm0,6.48v2.45a13.37,13.37,0,0,0-.94,1.44v-2c.36-.65.72-1.37.94-1.88Zm0,15.05v2.45l-.14-.29-.08-.29-.14-.21-.14-.29-.08-.29-.14-.29-.07-.28L78,40.61l-.08-.22V39a12,12,0,0,0,.94,1.44Zm0,4a9.9,9.9,0,0,1-.94-1.65v4.1L78.48,48s.14-.21.36-.57v-3Zm0,8.86V60.7a11.52,11.52,0,0,1-.86.86l-.08-.14V54c.29-.43.58-.79.8-1.15l.07.14.07.29Zm0,9.5v1.88a3.34,3.34,0,0,1,0-1.88Zm0,4.11v6.26c-.22-.43-.58-.93-.94-1.51V66.89l.08-.15.07-.21.14-.22.07-.07a4.24,4.24,0,0,1,.58.65Zm0,7.34a8.29,8.29,0,0,1-.94-1.15v5.11a9.58,9.58,0,0,0,.94-.93v-3Zm0,4.11v.79a2.65,2.65,0,0,1-.65-.29l.22-.14.21-.15.22-.21Zm0,1.58V83h-.07a1.78,1.78,0,0,1-.87-.15V79.49a5.6,5.6,0,0,0,.94.43Zm0,6.84V88.7c-.36-.36-.65-.72-.94-1V86a5.11,5.11,0,0,0,.94.79Zm0,3.67V93a2.7,2.7,0,0,1-.94-.65V89.64a8.21,8.21,0,0,0,.94.79ZM77.9,64.51v0Zm0-12.24V48.89a5.09,5.09,0,0,1,.44,1.37,2.45,2.45,0,0,1-.44,2Zm0-14.61V31.54A4.43,4.43,0,0,1,78.62,34a17.64,17.64,0,0,1-.36,4.25,3.3,3.3,0,0,0-.36-.57Zm0-12.46V24.12l.44-.22-.08.29-.07.29-.14.29-.07.29-.08.14Zm0-7.13V16.85a13.14,13.14,0,0,1,.87,1.22A2.93,2.93,0,0,1,77.9,18.07Zm0-1.22v1.22h-.57v-1.8a2.25,2.25,0,0,1,.57.58Zm0,1.87v4.1a4,4,0,0,1-.57.44V18.72Zm0,5.4V25.2l-.07.07-.07.29-.14.29-.15.29-.07.21-.07.15V24.41a4.28,4.28,0,0,1,.57-.29Zm0,3.1v2a5.48,5.48,0,0,0-.43.79c-.07-.07-.07-.21-.14-.28V28.08c.21-.29.36-.58.57-.86Zm0,4.32v6.12a7.91,7.91,0,0,0-.57-.8v-6c.21.21.36.43.57.65Zm0,7.41v1.37l-.07-.22-.07-.21-.07-.29-.07-.22-.08-.21V39l-.07-.14v-.36l-.07-.14v-.22h0a2.88,2.88,0,0,0,.5.79Zm0,3.75v4.17c-.21-.36-.36-.79-.57-1.15V41.18a9.76,9.76,0,0,0,.57,1.52Zm0,6.19v3.38c-.21.22-.36.51-.57.72V47.74c.21.36.36.72.57,1.15Zm0,5.11v7.42a10.41,10.41,0,0,1-.57-1V54.65c.21-.22.36-.43.57-.65Zm0,9.5v1c-.07.29-.07.51-.14.72a2.85,2.85,0,0,1-.43.79v-4.1c.07.14.14.22.21.36a5.6,5.6,0,0,1,.36,1.22Zm0,3.39v4.75a8,8,0,0,1-.57-1.08V68l.07-.14.14-.29.08-.29.14-.22.07-.21Zm0,6.19v5.11l-.07.07c-.21-.14-.36-.28-.5-.36V72.22a6.72,6.72,0,0,0,.57.86Zm0,6.41v3.38a1.92,1.92,0,0,1-.57-.29V79.13c.21.14.36.21.57.36Zm0,6.48V87.7a5.65,5.65,0,0,1-.57-.8V85.32a4.74,4.74,0,0,0,.57.65Zm0,3.67V92.3a3.39,3.39,0,0,1-.57-.43V89.14A2,2,0,0,0,77.9,89.64Zm-.57-73.37v1.8a8.93,8.93,0,0,1-1.23-.29V15.34l.22.14.22.14c.28.22.57.44.79.65Zm0,2.45v4.54a4.85,4.85,0,0,1-1.23.5V21.82l.51-.51a3.78,3.78,0,0,1-.51-.21V19.73a.76.76,0,0,1,.29-.07,3.15,3.15,0,0,0-.29-.22V18.5c.36.08.8.15,1.23.22Zm0,5.69V26.5l-.07.14-.15.29-.14.21-.15.22-.14.29-.14.21-.08.22a1.68,1.68,0,0,0-.36.58v-3.1a4.72,4.72,0,0,1,1.23-1.15Zm0,3.67c-.15.14-.22.29-.36.43a3,3,0,0,0,.36,1.23V28.08Zm0,2.81v6a6.46,6.46,0,0,1-1.23-2.23V32.9l.08-.28.07-.29.07-.22.14-.21.08-.22.07-.29.14-.21.07-.15.15-.21.07-.15c.07.07.22.15.29.22Zm0,10.29v4.54a20.81,20.81,0,0,1-.79-1.94,10.29,10.29,0,0,1-.44-1.37V40.32l.08-.29.07-.29.14-.21.07-.22.08-.14.14-.22.07-.07a22.11,22.11,0,0,0,.58,2.3Zm0,6.56V53a13.74,13.74,0,0,0-1.23,1.59V46.66a1.49,1.49,0,0,1,.36-.22,7.59,7.59,0,0,1,.87,1.3Zm0,6.91v5.76a14.12,14.12,0,0,1-.87-1.8,3.79,3.79,0,0,1-.21-2.45,11.69,11.69,0,0,1,1.08-1.51Zm0,7.27c-.36-.5-.87-1.08-1.23-1.58v7.2A9.2,9.2,0,0,0,77.33,66v-4.1Zm0,6.12v2.52a2.38,2.38,0,0,1-.22-.65L77,69.7v-.8l.07-.21.15-.29.07-.29V68Zm0,4.18V77.9A3,3,0,0,1,76.1,76V75l.08-.21.07-.15.07-.21.07-.22.07-.14.15-.36.07-.22.14-.21.08-.22.07-.14.07-.22.07-.22.07-.14.08-.22.07.08Zm0,6.91v3.45a3.93,3.93,0,0,1-1.23-1V78.19a8.16,8.16,0,0,0,1.23.94Zm0,6.19V86.9a9.15,9.15,0,0,0-.65-.79,6.08,6.08,0,0,0-.58-.65V83.59A5.93,5.93,0,0,1,77,84.82a3.26,3.26,0,0,1,.36.5Zm0,3.82v2.73a7.23,7.23,0,0,1-1.23-1.44V87.7a5.83,5.83,0,0,0,1.23,1.44ZM76.1,71.57v0Zm0-61.92V5.47c.44.15.94.43.94.87v.5L77,7.06l-.07.28-.08.29L76.68,8l-.07.15-.07.21v.22l-.08.14-.07.22-.14.21-.07.22-.08.22Zm0-4.18V9.65L76,9.86,76,9.94V5.4H76l.07.07Zm0,9.87v2.44H76V15.34h.14Zm0,3.16v.94c-.07,0-.07,0-.14-.07V18.5Zm0,1.23V21.1L76,21V19.73Zm0,2.09v1.94l-.14.07V21.89l.14-.07Zm0,3.74v3.1c-.07.07-.07.14-.14.21V25.7l.14-.14Zm0,7.34v1.73h0L76,34.34,76,34.06v-.58l.07-.29.07-.29Zm0,7.42v2.09c-.07-.15-.07-.36-.14-.51V40.82l.07-.21.07-.29Zm0,6.34v7.92c-.07,0-.07.07-.14.14v-8l.14-.07Zm0,13.68v7.2l-.14.14V60.19c.07,0,.07.07.14.15Zm0,10.22v1a4.72,4.72,0,0,1-.14.5V70.2l.07.07v.15l.07.14Zm0,4.46v1a2.08,2.08,0,0,1,0-.93V75Zm0,3.17v3.39L76,81.43V78.12l.14.07Zm0,5.4v1.87L76,85.32V83.45l.14.14Zm0,4.11v2.73L76,90.29V87.48c.07.07.07.14.14.22ZM76,45v-.86A1.79,1.79,0,0,1,76,45Zm0-6.48V36.65A7.56,7.56,0,0,1,76,38.38.22.22,0,0,1,76,38.52ZM76,5.4v4.68l-.14.22-.08.21-.14.29-.07.29-.15.21-.07.22V5.33A2.06,2.06,0,0,1,76,5.4Zm0,9.94v2.44a2.61,2.61,0,0,1-.65-.28V15.05l.15.07.28.07.22.15Zm0,3.16v.87a1.76,1.76,0,0,1-.65-.58v-.5l.65.21Zm0,1.23V21a2.82,2.82,0,0,1-.65-.64v-.29a5.83,5.83,0,0,1,.65-.36Zm0,2.16v1.94a.58.58,0,0,0-.29.07.73.73,0,0,0-.36.08V22.32a2.43,2.43,0,0,0,.65-.43Zm0,3.81v3.17a7.49,7.49,0,0,0-.58,2.52.54.54,0,0,0-.07-.21V26.71c.22-.36.43-.72.65-1Zm0,7.78v.58h0v-.58Zm0,3.17v1.87a4.83,4.83,0,0,1-.65,1.22V34.27c.22.58.36,1,.43,1.23s.15.72.22,1.15Zm0,4.17v0Zm0,3.32V45a.81.81,0,0,1-.22.58,1.43,1.43,0,0,1-.43.57V42.48l.07.07.15.15.07.21A6.12,6.12,0,0,1,76,44.14Zm0,2.59v8c0,.07-.07.14-.07.22l-.07-.29-.08-.15-.07-.21-.14-.15-.07-.28-.15-.22V47.23c.22-.14.43-.36.65-.5Zm0,13.46v7.49L75.6,68a1,1,0,0,0-.29-.5v-7h0l.15-.21.14-.22.07-.14.07-.15a1.31,1.31,0,0,1,.22.36Zm0,10v1.87a5.58,5.58,0,0,1-.65,1.66v-5l.07.22.15.14.07.22.07.21.15.15.07.21.07.22v.07Zm0,7.92v3.31a6.86,6.86,0,0,1-.65-.79v-3.1a4.85,4.85,0,0,1,.65.58Zm0,5.33v1.87c-.36-.36-.58-.36-.58-.36A4.25,4.25,0,0,0,76,87.48v2.81c-.22-.36-.43-.65-.65-1V82.87a4.85,4.85,0,0,1,.65.58Zm-.65-58V24.41h.58A8.13,8.13,0,0,1,75.31,25.49Zm0-20.16v6.26l-.14.29-.07.29-.15.29a3.41,3.41,0,0,0-.57-.29V6a1.53,1.53,0,0,1,.28-.51.76.76,0,0,1,.65-.14Zm0,9.72V17.5a4.4,4.4,0,0,1-.72-.36c-.07-.08-.14-.08-.21-.15V14.83l.21.07h.29l.29.15Zm0,3.24v.5a3,3,0,0,1-.29-.65.54.54,0,0,0,.29.15Zm0,1.8v.29l-.14-.15c.07-.07.14-.07.14-.14Zm0,2.23V24h-.93V22.82a3.61,3.61,0,0,0,.93-.5Zm0,2.09v1.08a11.41,11.41,0,0,1-.93,1.29V24.55h.28l.22-.07H75l.22-.07Zm0,2.3c-.14.29-.29.65-.43.94a6.58,6.58,0,0,0,.43,3.53V26.71Zm0,7.56v5.47a3.08,3.08,0,0,1-.36.44,4.72,4.72,0,0,0-.57-1V31.46c.36,1.08.64,2,.93,2.81Zm0,8.21v3.67a12.2,12.2,0,0,1-.93,1v-5.9l.14.21.22.22.14.29.22.21.14.15.07.14Zm0,4.75v6.34l-.14-.22L75,53.06l-.14-.21-.14-.22-.15-.21-.14-.15-.07-.14V48.46a3.58,3.58,0,0,1,.93-1.23Zm0,13.32v7c-.29-.58-.72-1.16-.93-1.66V62.06l.07-.21.14-.22.15-.21.14-.22L75.1,61l.07-.21.14-.22Zm0,8.21h0l-.14-.14-.07-.22L75,68.26,74.88,68l-.22-.29-.21-.29-.07-.14v7.92a1.93,1.93,0,0,0,.21.29,7,7,0,0,1,.72-1.8v-5Zm0,8.78v3.1c-.14-.29-.29-.5-.43-.79l-.14-.22-.15-.29-.14-.28-.07-.36V76.39a6.88,6.88,0,0,0,.93,1.15Zm0,5.33v6.41a10.12,10.12,0,0,1-.93-2.09V84.38l.07-.14V84l.14-.14.07-.36.08-.14.07-.22V83l.07-.22v-.14l.43.21Zm-.93,7.85v-.43a2.17,2.17,0,0,0,.5.29c-.14.07-.36.07-.5.14Zm0-30.53V54.07a6.85,6.85,0,0,1,.79,4.25,4.28,4.28,0,0,1-.79,1.87Zm0-46.65V13c.14.07.28.22.28.29S74.52,13.46,74.38,13.54Zm0-7.56v6.19c-.29-.07-.51-.15-.72-.22V8.64A11.87,11.87,0,0,1,74.38,6Zm0,7v.58a2.3,2.3,0,0,1-.72.28V12.67a2.31,2.31,0,0,1,.72.29Zm0,1.87V17a1.93,1.93,0,0,1-.72-.65V14.69l.14.07H74l.28.07Zm0,8V24l-.72-.22V23c.21-.07.5-.14.72-.22Zm0,1.73v2.23a3.78,3.78,0,0,0-.51.58c-.07,0-.14.07-.21.14V24.84l.21-.07L74,24.7l.28-.08.08-.07Zm0,6.91v7.71a6.9,6.9,0,0,1-.72-.87V31.61l.07-.22.14-.21.07-.22.08-.14.07-.15a6.37,6.37,0,0,0,.29.79Zm0,9.8v5.9a5.91,5.91,0,0,1-.72.58V46.58a4.92,4.92,0,0,0,.28-1.72,4.79,4.79,0,0,0-.28-.94V40.39l.07.07.14.22.15.22.21.21.15.15Zm0,7.2v3.67l-.08-.07-.21-.22a4,4,0,0,1,.29-3.38Zm0,5.61v6.12c-.22.29-.51.58-.72.87V53.21a3,3,0,0,1,.72.86Zm0,8v3.82a3.76,3.76,0,0,1-.29-.5,4.11,4.11,0,0,1-.22-2.16l.07-.22.08-.22.07-.21.14-.29.15-.22Zm0,5.26v7.92a9.48,9.48,0,0,1-.72-.86V66.67l.14-.07.14.14L74,67l.21.22.15.14Zm0,9.07v2.23l-.08-.21-.07-.36-.07-.29L74,77.4l-.08-.29v-.36l-.07-.29v-.21L73.8,76V75.6a2.88,2.88,0,0,0,.58.79Zm0,8v2.81a9.22,9.22,0,0,1-.58-1.73L74,85.1l.07-.21.07-.15.14-.36Zm0,5.91v.43a2.48,2.48,0,0,1-.72,0v-.86a1.89,1.89,0,0,0,.72.43Zm-.72-6.48V79.06a4.65,4.65,0,0,1,.5,3.45l-.07.22-.07.21-.08.29-.14.22-.07.29-.07.07Zm0-77.91V4.46l.5-.28S73.94,5,73.66,5.9Zm0-1.44V5.9a7.22,7.22,0,0,0-.29,1.37c-.15.72-.29,1.51-.43,2.23V5.62a3.39,3.39,0,0,1,.72-1.16Zm0,4.18c-.22,1.22-.44,2.45-.51,3.17.15.07.36.07.51.14V8.64Zm0,4v1.15c-.22,0-.44.08-.72.08V12.6c.28,0,.5.07.72.07Zm0,2v1.65a6.65,6.65,0,0,1-.72-.93v-.72h.72Zm0,8.35v.72a2,2,0,0,1-.72-.43v-.22a2.55,2.55,0,0,0,.72-.07Zm0,1.8V27.5a7.58,7.58,0,0,1-.72.44V25.49c.21-.22.5-.43.72-.65Zm0,6.77V38.3c-.29-.28-.51-.57-.72-.79V33.12L73,33l.14-.36.07-.15.15-.29.07-.21.22-.29v-.07Zm0,8.78v3.53c-.22-.58-.58-1.08-.72-1.44V41.33a4.41,4.41,0,0,1,.43-1.3l.14.22.15.14Zm0,6.19v1.16a5,5,0,0,1-.72.5V48.1a6.37,6.37,0,0,0,.72-1.52Zm0,6.63v7.85c-.29.28-.58.5-.72.64V54.14l.07-.07.14-.29.15-.21.14-.29.07-.22c.07.08.15.08.15.15Zm0,13.46v7.71a8.44,8.44,0,0,1-.72-1.08V67.46c.21-.21.43-.5.72-.79Zm0,12.39v4.75l-.08.21-.14.22-.14.29-.15.29-.14.36-.07.14V79.63c.14-.36.21-.79.36-1.15a3.05,3.05,0,0,1,.36.58Zm0,10.8v.86a3.13,3.13,0,0,1-.72-.14V89.06a3.65,3.65,0,0,0,.72.8ZM72.94,52.2V50.62c.07.21.14.43.21.72v.14l-.07.29L73,52l-.07.22Zm0-6.41V44.5a2.68,2.68,0,0,1,0,1.29Zm0-14.76v0Zm0-25.41V9.5c-.15.8-.22,1.52-.36,2.31l-.15-.07V7.42c.07-.44.22-.87.29-1.16l.22-.64Zm0,7v1.3a1.29,1.29,0,0,1-.51.07V12.53a1.29,1.29,0,0,1,.51.07Zm0,2.09v.72a1.83,1.83,0,0,1-.29-.72h.29Zm0,8.42v.22l-.22-.22Zm0,2.38v2.45l-.51.21V26.21a2.53,2.53,0,0,1,.51-.72Zm0,5.11v.65l-.15.21-.14.29-.15.36-.07.15V29.59a2.3,2.3,0,0,1,.51,1Zm0,2.52v4.39c-.08-.07-.08-.14-.15-.21a3.27,3.27,0,0,1-.36-.65V34.49l.07-.22.08-.29.07-.21.14-.29.07-.14.08-.22Zm0,8.21v1a2.11,2.11,0,0,1,0-1Zm0,3.09v1.37a8.4,8.4,0,0,1-.51,1.44v-4a9.25,9.25,0,0,1,.51,1.15Zm0,3.68v.14h-.08l.08-.14Zm0,2.52V52.2l-.08.07-.14.36-.14.22-.15.21V50a1.56,1.56,0,0,1,.51.65Zm0,3.52V61.7l-.15.15a5.22,5.22,0,0,0-.36-.79V54.79l.22-.21.21-.29.08-.15Zm0,13.32V73.3a.26.26,0,0,1-.08-.22,2.57,2.57,0,0,1-.43-.86V68.33a2.64,2.64,0,0,1,.51-.87Zm0,12.17v5.69h0l-.08.36-.07.14-.07.22-.07.14v.22l-.07.14v.22L72.5,87v.43a2.47,2.47,0,0,0,.44,1.65v1.52c-.15-.08-.36-.22-.51-.29V81.14c.15-.5.36-1,.51-1.51Zm-.51-1.15V74.09A7.21,7.21,0,0,1,72.86,76v.29l-.07.29v.29l-.07.21-.07.29v.29l-.07.21-.08.29-.07.22v.07Zm0-12.38V63.29c0,.07.07.14.07.21a2.72,2.72,0,0,1,.08,2.24L72.5,66l-.07.15Zm0-26.43v-.93A4.12,4.12,0,0,1,72.43,39.67Zm0-32.25v4.32H72V9.5c.14-.72.29-1.44.43-2.08Zm0,5.11V14A.93.93,0,0,1,72,14V12.46a.93.93,0,0,1,.43.07Zm0,13.68v1.94c-.14,0-.29.07-.43.07V27a7,7,0,0,1,.43-.79Zm0,3.38v2.67l-.07.14-.14.14L72,32.9V29.16l.43.43Zm0,4.9v2.16a2.71,2.71,0,0,1-.07-1.87l.07-.22v-.07Zm0,4.25v.93a.58.58,0,0,0-.07.29l-.14.22-.08.21-.14.22h0V38l.07.07a1.37,1.37,0,0,1,.36.65Zm0,4.53v4c-.07,0-.07.07-.07.15l-.14.14-.15.22-.07.07V42.7a4,4,0,0,0,.43.57Zm0,6.7v3.09l-.07.15-.22.29-.14.21v-4l.43.22Zm0,4.89v6.2c-.14-.29-.29-.65-.43-1V55.44l.07-.07.15-.29.21-.22Zm0,8.43V66.1l-.07.07-.14.21-.08.22-.14.22h0V62.57a6.52,6.52,0,0,0,.43.72Zm0,5v3.89A5.76,5.76,0,0,1,72,70.78v-.94a4.7,4.7,0,0,1,.43-1.51Zm0,5.76v4.39l-.07.22-.07.21-.15.29-.07.22L72,79.7h0V73.22l.43.87Zm0,7v9.15A1.36,1.36,0,0,0,72,90V82.15c.14-.29.29-.65.43-1ZM72,6.84V4.68a1.57,1.57,0,0,1,.29.86v.22L72.22,6l-.08.28-.07.22L72,6.84Zm0-4.68V1.3h.36v.86Zm0-.86v.86h-.86V3.74h-.36V0h.36V1.3Zm0,3.38V6.84l-.14.29-.15.36-.07.29-.14.28-.15.36-.14.29L71.14,9l-.08.36-.14.22-.07.28v.22c0-.07,0-.07-.07-.14V4h0A1.61,1.61,0,0,1,72,4.68ZM72,9.5c-.14.8-.22,1.59-.29,2.24H72V9.5Zm0,3V14H70.78V12.46ZM72,27v1.22a2.62,2.62,0,0,0-.43.15A4.14,4.14,0,0,1,72,27Zm0,2.16V32.9l-.07.15-.22.29-.14.28-.22.29-.14.29-.15.29-.14.21-.07.22v.14a.07.07,0,0,0-.07-.07V28.44h0a6.27,6.27,0,0,1,1.22.72ZM72,38v2.59l-.14.21-.22.29-.22.22-.21.29-.22.21-.14.15h-.07V36.14A6.35,6.35,0,0,0,72,38Zm0,4.68v5.11l-.07.07-.22.22-.21.14-.15.14-.21.08-.15.07-.21.14V42.91a4.19,4.19,0,0,0,.86-.65c.14.15.22.29.36.44Zm0,7v4l-.07.07-.22.29-.21.29-.22.29-.14.29-.15.21-.14.29-.07.22V49.18a3.57,3.57,0,0,0,1.22.57Zm0,5.69-.07.14-.22.22-.07.22-.14.28-.08.15-.07.21v.22A7.68,7.68,0,0,0,72,60.05V55.44Zm0,7.13v4.25l-.14.21-.15.15-.14.14-.07.22-.22.21-.14.22-.15.21-.07.22-.07.22c0-.08,0-.08-.07-.08V60.62h0a22.13,22.13,0,0,0,1.22,2Zm0,7.49v0Zm0,3.16V79.7l-.07.22-.15.22-.07.21-.07.22-.07.14-.07.22-.15.21-.07.22-.07.14-.15.36-.07.22-.14.29v.21l-.07.08V71.42A7.76,7.76,0,0,1,72,73.22Zm0,8.93a20.6,20.6,0,0,1-1.22,2.52v4a4,4,0,0,0,.72.87,3.37,3.37,0,0,0,.5.5V82.15ZM70.78,15.84V14.33a.79.79,0,0,1,.79.72v.14l-.07.22-.15.14-.14.15-.22.07ZM70.78,0V3.74h-.65V2.16H69.7V1.3h.43V0Zm0,4V9.94a27,27,0,0,0-1.08-3V4.61A1.26,1.26,0,0,1,70.78,4Zm0,8.43V14H69.7V12.46h1.08Zm0,1.87v1.51h0a.79.79,0,0,1-.72-.79.77.77,0,0,1,.72-.72Zm0,14.11V35a6.26,6.26,0,0,0-1.08-1.94V29.16a6.21,6.21,0,0,1,1.08-.72Zm0,7.7V42a5.7,5.7,0,0,1-1.08-1.3V37.94A4.07,4.07,0,0,0,70.78,36v.14Zm0,6.77v5.76h0a3.38,3.38,0,0,1-1.08-.79V42.62a1.9,1.9,0,0,1,.21-.36c.36.22.51.44.87.65Zm0,6.27v6.48h0a6,6,0,0,0-1.08-1.88v-4a4,4,0,0,0,1.08-.57Zm0,11.44v7.92a8.45,8.45,0,0,0-1.08-1.65V62.5a16.94,16.94,0,0,0,1.08-1.88Zm0,10.8V82.66h0a17.58,17.58,0,0,0-1.08-2.88V73.15a11.58,11.58,0,0,1,1.08-1.8v.07Zm0,13.25v.07a18.72,18.72,0,0,1-1.08-2.37v7.56l.43-.43a2.58,2.58,0,0,0,.65-.87h0v-4ZM69.7,60a9.79,9.79,0,0,0,.57-3.1v-.22l-.07-.21-.07-.15L70,56l-.14-.22-.14-.22V60Zm0-31.68V27.07a10.5,10.5,0,0,1,.36,1.3.93.93,0,0,0-.36-.07Zm0-16.56H70c-.07-.58-.14-1.3-.28-2.09Zm0-10.44v.86h-.51V1.3Zm0,3.31v2.3a4.15,4.15,0,0,1-.36-1.37,1.32,1.32,0,0,1,.36-.93Zm0,5v2.09h-.51V7.49c.15.65.36,1.44.51,2.16Zm0,2.81V14a1.13,1.13,0,0,1-.51-.07V12.53h.15l.14-.07Zm0,14.61V28.3a1,1,0,0,0-.51-.15V26.21a5.54,5.54,0,0,1,.51.86Zm0,2.09v3.89a5.52,5.52,0,0,1-.51-.79V29.59a3.28,3.28,0,0,1,.51-.43Zm0,8.78v2.74a2.09,2.09,0,0,1-.36-.72c-.08-.07-.08-.22-.15-.29v-.93a2.5,2.5,0,0,1,.29-.65l.22-.15Zm0,4.68v5.26a1.22,1.22,0,0,1-.36-.5c-.08-.08-.08-.15-.15-.22V43.27c.15-.21.36-.43.51-.65Zm0,7.13v4c-.15-.21-.36-.43-.51-.64V50a3.69,3.69,0,0,1,.51-.22Zm0,5.76V60c-.15.36-.36.72-.51,1V54.86l.15.22.21.29.15.14Zm0,7v4.39a3.24,3.24,0,0,1-.51-.79V63.29c.15-.22.29-.51.51-.79Zm0,10.65v6.63a7.18,7.18,0,0,1-.51-1.3V74.16a4.55,4.55,0,0,1,.51-1Zm0,9.22v7.56a2.68,2.68,0,0,0-.51.36V81.22c.15.36.36.79.51,1.15Zm-.51-10.15V68.33a4.46,4.46,0,0,1,.43,1.51,4.34,4.34,0,0,1-.43,2.38Zm0-35.57V34.49l.07.07.08.22A3.18,3.18,0,0,1,69.19,36.65Zm0-35.35v.86H68.9V1.3Zm0,6.19v4.25h-.14v.07c-.15-.79-.22-1.51-.36-2.31V5.62l.21.64a8.71,8.71,0,0,1,.29,1.23Zm0,5V14h-.5V12.6l.14-.07h.36Zm0,13.68v1.94c-.14-.07-.36-.14-.5-.21V25.56a2.17,2.17,0,0,1,.5.65Zm0,3.38v2.67a6.33,6.33,0,0,1-.5-1.3v-.29a2.57,2.57,0,0,1,.5-1.08Zm0,4.9v2.16a2.83,2.83,0,0,1-.36.65c-.07.07-.14.14-.14.21V33.12l.07.22.07.14.15.29.07.21.07.29.07.22Zm0,4.25v.93a2.09,2.09,0,0,1,0-.93Zm0,4.53v3.89a3.9,3.9,0,0,1-.5-1.37V44.42a5.71,5.71,0,0,1,.5-1.15Zm0,6.7v3.17c-.21-.36-.36-.65-.5-.94V50.69a1.41,1.41,0,0,1,.5-.72Zm0,4.89V61c-.14.36-.29.65-.36.87,0,0-.07,0-.14-.15V54.14l.14.15.15.29.21.21v.07Zm0,8.43V66.1c-.07-.15-.07-.22-.14-.36a3,3,0,0,1,0-2.24c.07-.07.14-.14.14-.21Zm0,5v3.89a4.15,4.15,0,0,1-.36.86c-.07.07-.07.14-.14.22V67.46a5.54,5.54,0,0,1,.5.87Zm0,5.83v4.32A13.62,13.62,0,0,1,68.76,76a7.17,7.17,0,0,1,.43-1.87Zm0,7.06v9.07c-.14.07-.36.21-.5.29V89.06a2.47,2.47,0,0,0,.43-1.65,7.87,7.87,0,0,0-.43-2V79.63c.14.58.36,1.08.5,1.59Zm-.5-33v-.07l.07.07Zm0-5.83v-1a2.4,2.4,0,0,1,0,1Zm0-19.08v-.22h.14s0,.07-.14.22Zm0-8v-.65H69A3.33,3.33,0,0,1,68.69,15.34Zm0-9.72V9.5c-.15-.72-.22-1.51-.36-2.23A10.34,10.34,0,0,1,68,5.76V4.46a3.55,3.55,0,0,1,.72,1.16Zm0,7V14a3.43,3.43,0,0,0-.72-.15V12.67h.21l.29-.07Zm0,2.09v.65A9.65,9.65,0,0,1,68,16.42V14.69Zm0,8.42v.22c-.15.07-.43.29-.72.43V23a2.26,2.26,0,0,0,.72.07Zm0,2.45v2.38A5.68,5.68,0,0,1,68,27.5V24.91a3.22,3.22,0,0,1,.72.65Zm0,5.11v0Zm0,2.45v4.39a4.38,4.38,0,0,0-.72.87V31.54l.14.28.07.36.22.29.07.15.15.36.07.14Zm0,8.28v1.08c-.15.36-.51.86-.72,1.44V40.39h0l.21-.21.15-.15a9.89,9.89,0,0,1,.36,1.37Zm0,3v1.37a2.55,2.55,0,0,1,0-1.29v-.08Zm0,3.75v.07a4.06,4.06,0,0,1-.72-.5V46.51a9.14,9.14,0,0,0,.72,1.66Zm0,2.52V52.2a2.39,2.39,0,0,1-.22-.86,3.19,3.19,0,0,1,.22-.65Zm0,3.45V61.7A5.91,5.91,0,0,1,68,61V53.21c0-.07.07-.07.07-.15l.14.22.15.29.14.21.15.29.07.07Zm0,13.32V73.3c-.22.36-.51.79-.72,1.08V66.67c.29.29.5.58.72.79Zm0,12.17v5.76A12.16,12.16,0,0,0,68,83.81V79.13a2.64,2.64,0,0,1,.36-.65c.14.36.21.79.36,1.15Zm0,9.43v1.52a3.34,3.34,0,0,1-.72.14v-.86a4.47,4.47,0,0,0,.72-.8ZM68,12a4.72,4.72,0,0,1,.5-.14c-.14-.72-.29-2-.5-3.24Zm0-7.49v1.3c-.29-.86-.51-1.58-.51-1.58a4,4,0,0,1,.51.28Zm0,4.11V12c-.29.07-.43.15-.72.22V6A12.87,12.87,0,0,1,68,8.57Zm0,4.1v1.15a1.67,1.67,0,0,1-.72-.28V13h0l.29-.14.14-.08.29-.07Zm0,2v1.73a5.77,5.77,0,0,1-.72.57V14.83c.21-.07.5-.07.72-.14ZM68,23v.72a2.19,2.19,0,0,1-.72.14V22.82A5.71,5.71,0,0,0,68,23Zm0,1.87V27.5c-.07-.07-.15-.14-.22-.14a3.69,3.69,0,0,0-.5-.58V24.62h.07l.14.08h.22l.22.14.07.07Zm0,6.63v6.84a4,4,0,0,0-.72.86v-7.7c.07-.29.21-.58.29-.87l.07.22.07.14.14.29.15.22Zm0,8.85v3.53a2.27,2.27,0,0,0-.29.94A4.13,4.13,0,0,0,68,46.51v1.23a2.74,2.74,0,0,1-.72-.58v-6l.21-.21.22-.22.14-.21.15-.15Zm0,12.82V61a2.69,2.69,0,0,1-.72-.86v-6a3.74,3.74,0,0,1,.72-.86Zm0,13.46v7.71c-.29.36-.51.64-.72.86V67.39l.07-.07.14-.29.15-.21.14-.15.15-.07.07.07Zm0,12.46v4.68a6.42,6.42,0,0,1-.51-1.3A4.49,4.49,0,0,1,68,79.13Zm0,10.73v.86a2.46,2.46,0,0,1-.72,0v-.43a2.93,2.93,0,0,0,.72-.43Zm-.72-2.67V84.38l.07.22.22.29.07.21.07.15.14.21a9.57,9.57,0,0,1-.57,1.73Zm0-8.49V76.39a6.09,6.09,0,0,0,.57-.86v.36l-.07.21v.29l-.07.22V77l-.07.29-.07.5-.08.29-.14.36-.07.29Zm0-12.82V62.06h0l.14.22.15.29.07.21.07.22v.22a3.55,3.55,0,0,1-.14,2.16c-.08.14-.15.28-.29.5Zm0-13.75V48.46a4.38,4.38,0,0,1,.36,3.31l-.22.21ZM67.25,6v6.19a3.45,3.45,0,0,0-.58.29l-.14-.29-.07-.29-.15-.29V5.33a.75.75,0,0,1,.65.14,1.52,1.52,0,0,1,.29.51Zm0,7v.58c-.22-.08-.29-.15-.29-.29L67,13.1l.22-.14Zm0,1.87V17l-.15.15-.21.07-.22.14-.14.07-.22.08h0V15.05l.94-.22Zm0,8V23.9a3.47,3.47,0,0,1-.94.08V22.32a3.67,3.67,0,0,0,.94.5Zm0,1.8v2.16a8.7,8.7,0,0,1-.94-1.29V24.41h0l.29.07h.14l.22.07h.14l.15.07Zm0,6.92v7.7a10.93,10.93,0,0,0-.65.94l-.29-.44v-5.4c.22-.79.58-1.72.94-2.8Zm0,9.72v5.9a11.52,11.52,0,0,1-.94-1V42.41l.15-.15.14-.21.22-.22.28-.36.15-.21Zm0,7.2v3.67l-.07.14-.15.15-.21.21-.08.22-.14.21-.14.29-.15.22V47.23a4.64,4.64,0,0,1,.94,1.23Zm0,5.61v6a5,5,0,0,1-.79-1.8,7.22,7.22,0,0,1,.79-4.25Zm0,8v3.82a16.38,16.38,0,0,0-.94,1.66v-7l.07.22.22.21.07.22.15.22.21.21.15.22.07.21Zm0,5.33-.15.22-.21.29-.15.14-.07.22-.14.14-.15.22-.07.14v5a7,7,0,0,1,.72,1.8,2.3,2.3,0,0,0,.22-.29V67.39Zm0,9V78.7l-.07.21-.08.29-.14.29-.14.29c-.15.28-.36.57-.51.86v-3.1a7.48,7.48,0,0,0,.94-1.15Zm0,7.92v2.88a17.68,17.68,0,0,1-.94,2.09V82.87l.43-.21V83l.08.14.07.22.07.14.07.22.07.28.08.22.07.07Zm0,6v.43c-.22-.07-.36-.07-.58-.14a2,2,0,0,0,.58-.29Zm-.94-59a6.11,6.11,0,0,0,.36-3.6,7.37,7.37,0,0,0-.36-1v4.61Zm0-10.8v-.36l.15.14a.71.71,0,0,0-.15.22Zm0-1.66v-.5a1.05,1.05,0,0,0,.36-.15S66.53,18.43,66.31,18.79Zm0-13.46v6.19l-.07-.22-.14-.21L66,10.8l-.14-.29-.07-.21-.07-.22-.08-.22V5.4a2.09,2.09,0,0,1,.65-.07Zm0,9.72V17.5l-.14.07-.22.07-.21.07-.08.07V15.34a5,5,0,0,1,.65-.29Zm0,3.24v.5a2.42,2.42,0,0,1-.65.58V18.5l.65-.21Zm0,1.8v.36a5.29,5.29,0,0,1-.65.57V19.73a2.8,2.8,0,0,1,.65.36Zm0,2.23V24a.83.83,0,0,0-.43-.08.27.27,0,0,0-.22-.07V21.89a2.6,2.6,0,0,0,.65.43Zm0,2.09v1.08a3.77,3.77,0,0,1-.57-1.08h.57Zm0,2.23v4.61a.22.22,0,0,0-.07.14,9.79,9.79,0,0,0-.58-2.52V25.63c.22.36.44.72.65,1Zm0,7.7v5.4a3.46,3.46,0,0,1-.65-1.22v-1.8a2.89,2.89,0,0,1,.22-1.22c.07-.22.22-.65.43-1.16Zm0,8.14v3.67a1.53,1.53,0,0,1-.43-.57.85.85,0,0,1-.22-.58v-.79A6.33,6.33,0,0,1,66,43l.15-.14.07-.22.14-.14Zm0,4.75v6.48l-.07.07-.07.22-.15.22-.07.21-.07.15-.07.21-.07.15c0-.15-.08-.22-.08-.29V46.73c.22.14.44.36.65.5Zm0,13.32v7A3.26,3.26,0,0,0,66,68a2.74,2.74,0,0,1-.29-.36V60.19a1.05,1.05,0,0,0,.15-.36l.07.15.14.14.15.22.07.21Zm0,8.28v4.9a5.87,5.87,0,0,1-.65-1.66V70.13l.08-.22.07-.21.07-.15.14-.21.08-.22.14-.14.07-.15Zm0,8.71v3.1a6,6,0,0,1-.65.79V78.12a5.55,5.55,0,0,1,.65-.58Zm0,5.33v6.41a10.38,10.38,0,0,1-.65,1V87.55A4.53,4.53,0,0,0,66.24,85s-.22,0-.58.36V83.45a5.55,5.55,0,0,1,.65-.58Zm-.65-41v0Zm0-36.5V9.86h-.07V5.47l.07-.07Zm0,9.94v2.44h-.07V15.34Zm0,3.16v.87l-.07.07V18.5Zm0,1.23V21h-.07V19.73Zm0,2.16v1.94h-.07V21.89Zm0,3.74v3.24l-.07-.07V25.63Zm0,11.09v1.8c-.07-.07-.07-.07-.07-.14v-1.3a.56.56,0,0,1,.07-.36Zm0,4.1V41.9a.58.58,0,0,0-.07.29V40.68l.07.14Zm0,3.39V45a1.51,1.51,0,0,1,0-.79Zm0,2.52v7.92h-.07V46.73Zm0,13.46v7.49l-.07-.07V60.19Zm0,10.08v1.8c-.07,0-.07-.07-.07-.14V70.42l.07-.15Zm0,7.85v3.31l-.07.07V78.12Zm0,5.33v1.87l-.07.07V83.52l.07-.07Zm0,4.1v2.74l-.07.07V87.62l.07-.07ZM65.59,34.2v-.94l.07.22v.29l-.07.29Zm0-28.73V9.79l-.07-.21h0V5.47Zm0,9.87v2.44h-.07V15.41l.07-.07Zm0,3.16v.94h-.07V18.5Zm0,1.23V21l-.07.08V19.73Zm0,2.16v1.94l-.07-.07V21.82l.07.07Zm0,3.74V28.8l-.07-.14v-3.1l.07.07Zm0,7.63v1.08l-.07.22V32.9l.07.29v.07Zm0,3.82v1.3h0a4,4,0,0,1,0-1.3Zm0,3.6v1.51c0,.07-.07.15-.07.29V40.32h0l.07.29v.07Zm0,6v7.92l-.07-.15V46.66l.07.07Zm0,13.46v7.42l-.07-.07v-7.2l.07-.15Zm0,10.23v1.51c0-.15-.07-.29-.07-.43v-.87h0l.07-.21Zm0,7.7V81.5l-.07.08V78.19l.07-.07Zm0,5.4v1.87l-.07.07V83.59l.07-.07Zm0,4.1v2.74l-.07.14V87.7l.07-.08ZM65.52,76V75.1A2.09,2.09,0,0,1,65.52,76Zm0-70.56V9.58l-.07-.22-.07-.22-.08-.21-.07-.22-.07-.14L65,8.35V8.14L64.94,8l-.07-.21-.07-.29-.07-.29-.07-.29-.08-.21V6.48a1.16,1.16,0,0,1,.94-1Zm0,9.94v2.37l-.14.08h-.15l-.21.07h-.15l-.36.07-.21.07v-1.8c.21-.21.43-.36.64-.57s.36-.22.58-.29Zm0,3.09v.94a2.1,2.1,0,0,1-.36.22,1.32,1.32,0,0,1,.36.07V21.1c-.14.07-.36.14-.5.21a2.43,2.43,0,0,0,.5.51v1.94a3.9,3.9,0,0,1-1.22-.5V18.72c.43-.07.86-.14,1.22-.22Zm0,7.06v3.1a3.9,3.9,0,0,0-.29-.58L65,27.86l-.08-.21-.14-.29-.14-.22-.15-.21-.14-.29-.07-.22v-2a6.4,6.4,0,0,1,1.22,1.15Zm0,7.27v1.8a8.1,8.1,0,0,1-1.22,2.23V31a1.11,1.11,0,0,1,.28-.29l.15.22.14.21.07.22.08.22.21.36.07.21.08.22.07.29.07.21Zm0,7.49v2.16a7.22,7.22,0,0,1-.43,1.3c-.22.64-.51,1.29-.79,1.94V41.18c.21-.86.36-1.65.57-2.3L65,39l.07.29.14.15.07.28.15.29.07.29Zm0,6.34V54.5A13.65,13.65,0,0,0,64.3,53V47.74a8,8,0,0,1,.86-1.3c.14.07.22.14.36.22Zm0,13.68v7.2A9.18,9.18,0,0,1,64.3,66v-4.1c.36-.5.86-1,1.22-1.58Zm0,10.29v.87a1,1,0,0,0-.07-.44v-.21l.07-.22Zm0,4.47V76A3.7,3.7,0,0,1,64.3,77.9V72.22s0-.08.07-.08l.07.22v.14l.14.22.08.22.07.14.07.22.14.21.08.22.07.21.07.22.14.22v.14l.08.22.07.14a.27.27,0,0,1,.07.22Zm0,3.09v3.39a4.89,4.89,0,0,1-1.22,1V79.13a14.26,14.26,0,0,0,1.22-.94Zm0,5.4v1.87a5.62,5.62,0,0,0-.65.65c-.14.22-.36.51-.57.79V85.32c.14-.14.21-.36.36-.5a5.58,5.58,0,0,1,.86-1.23Zm0,4.11v2.8c-.36.44-.79.94-1.22,1.37V89.14a8.66,8.66,0,0,0,1.22-1.44ZM64.3,70.56V68.11l.14.29.07.29v.21l.07.29v.51l-.07.21a2.35,2.35,0,0,1-.21.65Zm0-10.15a9.86,9.86,0,0,0,.86-1.8,3.88,3.88,0,0,0,.22-2.45,12.76,12.76,0,0,0-1.08-1.51v5.76Zm0-30.6a3.48,3.48,0,0,0,.36-1.3c-.15-.14-.22-.29-.36-.43Zm0-13.54v1.8h-.58V16.78a3.76,3.76,0,0,1,.58-.51Zm0,2.45v4.54a5.94,5.94,0,0,0-.58-.36V18.72Zm0,5.69v1.94l-.15-.21L64,25.85l-.15-.29-.14-.29h0V24.12c.22.07.36.22.58.29Zm0,3.67v1.73c-.08.07-.08.14-.15.21s-.14-.28-.43-.79v-2c.22.28.36.57.58.86Zm0,2.88v5.9c-.22.22-.36.51-.58.72v-6A4,4,0,0,1,64.3,31Zm0,10.22v4.54c-.22.43-.36.79-.58,1.15V42.62a8.49,8.49,0,0,0,.58-1.44Zm0,6.56V53c-.22-.21-.36-.5-.58-.72V48.82c.22-.36.36-.72.58-1.08Zm0,6.91v5.76c-.22.43-.44.79-.58,1V54c.22.22.36.43.58.65Zm0,7.27V66a2.92,2.92,0,0,1-.44-.79,4.72,4.72,0,0,0-.14-.5v-1.3a4.45,4.45,0,0,1,.36-1.15c.07-.14.14-.22.22-.36Zm0,6.12v2.52a4.75,4.75,0,0,1-.58,1V66.89h0l.14.21.15.22.07.29.14.29.08.14Zm0,4.18V77.9c-.15.08-.29.22-.51.36l-.07-.07V73a3.5,3.5,0,0,0,.58-.79Zm0,6.91v3.45a2,2,0,0,1-.58.29V79.42a2.62,2.62,0,0,0,.58-.29Zm0,6.19V86.9a4.69,4.69,0,0,1-.58.72V85.9a2.28,2.28,0,0,0,.58-.58Zm0,3.82v2.73c-.22.15-.36.29-.58.43V89.64a3.69,3.69,0,0,0,.58-.5Zm-.58-48.75V39a6.75,6.75,0,0,0,.58-.79l-.08.22-.07.14v.36l-.07.14v.15l-.07.21-.07.22-.08.29v.21l-.14.22Zm0-23.61v1.29h-.79a6,6,0,0,1,.79-1.29Zm0,1.94V22.9a7.85,7.85,0,0,1-.86-1A4.14,4.14,0,0,1,63,23.4a.39.39,0,0,1-.22-.07V18.86c.29-.07.65-.07.94-.14Zm0,5.4v1.15l-.07-.21-.07-.29-.15-.29-.07-.29-.07-.29.43.22Zm0,3.1v2c-.22-.43-.58-.93-.94-1.51V25.34c.22.51.58,1.23.94,1.88Zm0,4.32v6a2.8,2.8,0,0,1-.36.65A18.23,18.23,0,0,1,63,34a4.43,4.43,0,0,1,.72-2.44Zm0,7.41v1.44l-.07.22-.07.29-.08.28-.07.29-.14.29-.15.29-.07.21-.14.29-.15.36h0V40.46c.29-.5.65-.93.94-1.51Zm0,3.67-.07.15c-.22.5-.58,1.15-.87,1.65v3c.22.36.36.64.36.64l.58-1.15V42.62Zm0,6.2v3.45a2.41,2.41,0,0,1-.43-2,10.78,10.78,0,0,1,.43-1.44Zm0,5.18v7.42l-.07.14a9.83,9.83,0,0,1-.87-.86V53.14l.15-.15.07-.14A4.84,4.84,0,0,0,63.72,54Zm0,9.43v1.3a8.06,8.06,0,0,1,0-1.3Zm0,3.46v4.68c-.36.57-.72,1.15-.94,1.58V66.89a4.85,4.85,0,0,1,.58-.65l.14.22.15.28.07.15Zm0,6.12a10.77,10.77,0,0,1-.94,1.22v3a3.63,3.63,0,0,0,.94.93V73Zm0,6.41v3.45a1.77,1.77,0,0,1-.86.15h-.08v-3.1a6.12,6.12,0,0,0,.94-.5Zm0,6.48v1.72a12.94,12.94,0,0,1-.94,1.08V86.76a5.24,5.24,0,0,0,.94-.86Zm0,3.74V92.3a7.36,7.36,0,0,1-.94.72V90.43a8.21,8.21,0,0,0,.94-.79Zm-.94-10.51v-.79l.08.07.14.14.22.15.21.14a4.25,4.25,0,0,1-.65.29Zm0-14.4v-2A3.49,3.49,0,0,1,62.78,64.73Zm0-45.87v4.47a1.08,1.08,0,0,1-.57-.22V18.86Zm0,6.48v2.38l-.57-.58h0V24.7h.29a2.73,2.73,0,0,0,.28.64Zm0,15.12v2.45l-.14.29-.22.29-.14.29-.07.14V41.11c.21-.21.36-.43.57-.65Zm0,4v3a4.68,4.68,0,0,1-.57-.87V45.22c.14-.22.36-.51.57-.8Zm0,8.86V60.7c-.21-.22-.36-.44-.57-.65V54.14h0l.21-.28.15-.29.14-.22.07-.07Zm0,9.5v2c-.07.21-.14.36-.21.57s-.22.44-.36.65V61.56h0l.14.22.07.14.15.29.07.21c.07.15.07.22.14.36Zm0,4.11v6.26c-.07.07-.14.15-.14.22a6.83,6.83,0,0,1-.43-.87v-5a4.21,4.21,0,0,1,.57-.65Zm0,7.34v3a5,5,0,0,1-.5-.72.27.27,0,0,0-.07-.22V75a2.25,2.25,0,0,1,.36-.57c.07,0,.14-.15.21-.22Zm0,4.11v.79a5.05,5.05,0,0,0-.57.21V78.19a.91.91,0,0,0,.29-.14l.14.21.14.08Zm0,1.58V83a1.25,1.25,0,0,1-.57-.08v-2.8c.07-.08.14-.08.29-.08s.14-.07.28-.14Zm0,6.84V88.7c-.21.15-.36.36-.57.51v-2c.21-.14.36-.29.57-.43Zm0,3.67V93c-.21.08-.36.15-.57.22V90.79c.21-.14.36-.21.57-.36Zm-.57-38.09v-4c.21.36.36.65.36.65a15.25,15.25,0,0,1-.22,2.81,2.22,2.22,0,0,1-.14.57Zm0-12.81v-3l.07-.07v.22l.07.21v.36l.07.15v1l-.07.21V39l-.07.22v.21C62.28,39.46,62.21,39.46,62.21,39.53Zm0-20.67v4.25a3.08,3.08,0,0,1-.79-.72A5.61,5.61,0,0,1,62,24.05a2.72,2.72,0,0,1-.86-.22V18.94c.36,0,.72-.08,1.08-.08Zm0,5.84v2.44c-.36-.36-.65-.64-1.08-1v-.65h.14v-1c.29.07.65.14.94.22Zm0,11.8v3a4.38,4.38,0,0,1-1.08,1.87V38.52a6.62,6.62,0,0,0,1.08-2Zm0,4.61a8.08,8.08,0,0,1-1.08,1.15v3.17l.14-.14.22-.29.21-.29.22-.29.14-.28.15-.22V41.11Zm0,4.11v1.29c-.15-.21-.22-.5-.36-.72,0,0,.14-.21.36-.57Zm0,3.09v4a10.62,10.62,0,0,1-1.08,1.95V46.66l.14-.15a13.89,13.89,0,0,0,.94,1.8Zm0,5.83-.15.29-.21.29-.22.29-.21.29-.15.21-.14.15v2.52c.07.21.21.36.29.57a11.29,11.29,0,0,0,.79,1.3V54.14Zm0,7.42V66a10,10,0,0,0-.79,1.59,1.74,1.74,0,0,0-.29-.36V60.05l.07.07.14.22.08.14.14.22.14.14.15.22.14.14.15.22.07.14Zm0,6v5a17.53,17.53,0,0,1-.79-2,3.68,3.68,0,0,1,.79-2.95Zm0,7.48v1.3a1.92,1.92,0,0,1,0-1.3Zm0,3.17v1.15c-.29.15-.51.22-.65.29s-.29.22-.43.29V78.7a10.09,10.09,0,0,1,1.08-.51Zm0,2v2.8a3.86,3.86,0,0,1-1.08-.64V81.07a2.24,2.24,0,0,1,1.08-.93Zm0,7v2a4.3,4.3,0,0,1-1.08.65v-2c.36-.21.72-.5,1.08-.72Zm0,3.6v2.45c-.36.14-.65.29-1.08.43v-2a6,6,0,0,1,.79-.65l.29-.22Zm-1.08-7.34v-.29a3.21,3.21,0,0,0,.43.29Zm0-5.4V75.46l.29-.15-.08.22v.14l.08.22v.36l.07.21.14.22.07.22.08.14.07.22.14.21.07.07a7.27,7.27,0,0,0-.93.51Zm0-43.71V30.1a11.2,11.2,0,0,0,.93.72,8.52,8.52,0,0,0-.72,3.74l-.21-.22Zm0-5.54V27.36a2.92,2.92,0,0,1,.43,2A7.21,7.21,0,0,0,61.13,28.8Zm0-9.86v4.89a2.09,2.09,0,0,1-.72-.36,6.37,6.37,0,0,1,.29,1.23,1.12,1.12,0,0,1-.36-.08V18.94Zm0,6.55v.65c-.22-.15-.43-.36-.79-.58V25.2l.07.07.29.07.21.08.15.07Zm0,1.87V28.8a8.33,8.33,0,0,0-.79-.79V26.35a2.66,2.66,0,0,1,.79,1Zm0,2.74v4.24c-.22-.36-.51-.93-.79-1.51V29.16a1,1,0,0,0,.21.29,5.55,5.55,0,0,0,.58.65Zm0,8.42V41.4a1,1,0,0,1-.51.43.37.37,0,0,1-.28.15v-2.6a3.14,3.14,0,0,0,.79-.86Zm0,3.74v3.17a5.54,5.54,0,0,1-.79.94V43a3.84,3.84,0,0,0,.79-.72Zm0,4.4v7.63c-.29.43-.51.72-.51.72a2.61,2.61,0,0,0-.28-.65V47.52l.14-.14.29-.29L61,46.8l.15-.14Zm0,9v2.52a12.07,12.07,0,0,1-.58-1.8l.22-.15.14-.21.15-.22.07-.14Zm0,4.39v7.13c-.22-.29-.51-.65-.79-1.08V60.7c.21-.44.36-.8.57-1.16l.07.22.08.22.07.07Zm0,15.41v2.59c-.22.14-.51.29-.79.43V76a6.32,6.32,0,0,0,.79-.5Zm0,3.24v1.22a5.26,5.26,0,0,0-.79,1.15V79.13c.28-.15.57-.29.79-.43Zm0,2.37V82.3a.69.69,0,0,0-.36-.29,3.13,3.13,0,0,1,.36-.94Zm0,2.09v.29c-.22,0-.51.07-.79.07v-.86a9.07,9.07,0,0,1,.79.5Zm0,4.75v2a3.17,3.17,0,0,1-.79.36V88.49c.21-.15.36-.29.57-.43l.22-.15Zm0,3.75v2c-.22.07-.51.07-.79.15V92.74a4.94,4.94,0,0,1,.79-1.08Zm-.79-4.4v-.14l.14-.07C60.41,87.12,60.41,87.19,60.34,87.26Zm0-68.32v5.68l-.72-.36V20.38h.07v-.15h-.07V19l.72-.07Zm0,6.26v.36c-.22-.14-.44-.36-.65-.5l.21.07h.15l.21.07Zm0,1.15V28a3.11,3.11,0,0,0-.72-.58V25.78l.07.07c.21.14.43.36.65.5Zm0,2.81v3.67a12.17,12.17,0,0,1-.72-2.16v-2.3a6.08,6.08,0,0,1,.72.79Zm0,10.22V42c-.22.07-.44.14-.72.21V40a5.08,5.08,0,0,0,.72-.58Zm0,3.6v3.39a8.14,8.14,0,0,1-.72.72V43.56a5.08,5.08,0,0,0,.72-.58Zm0,4.54v6.84c-.22-.5-.51-1.08-.72-1.66V48.24l.14-.14L60,48l.28-.29.08-.14Zm0,13.18v5.4a4.27,4.27,0,0,1-.58-1.16,1.73,1.73,0,0,1-.14-.64V62.57c0-.15.07-.29.07-.43.21-.44.43-.94.65-1.44Zm0,15.26v2.52c-.22.07-.44.22-.72.29V76.46a4.06,4.06,0,0,1,.72-.5Zm0,3.17v1.94a3.32,3.32,0,0,0-.29.79c-.15.08-.29.08-.43.15V79.7a3.24,3.24,0,0,1,.5-.43c.07,0,.14-.07.22-.14Zm0,3.53v.86c-.22.07-.51.22-.72.29V82.73h.28l.15-.07.21-.08.08.08Zm0,4.46v.14a3.69,3.69,0,0,1-.72.94v-.94a4,4,0,0,1,.72-.14Zm0,1.37v1.73a2.7,2.7,0,0,1-.72.14v-.94a4.1,4.1,0,0,1,.72-.93Zm0,4.25v1.08a.78.78,0,0,0-.36.07,4.61,4.61,0,0,1,.36-1.15Zm-.72-37.08V54.5c.21.51.43.94.5,1.16a1,1,0,0,1-.5,0Zm0-41V12.82a.63.63,0,0,1,.5.86A4.45,4.45,0,0,1,59.62,14.69Zm0-1.87v1.87a24.61,24.61,0,0,1-1.37,2.09.69.69,0,0,1-.43-.08V13.54l.21-.22a1.73,1.73,0,0,1,1.51-.5Zm0,6.19v1.22c-.58.07-1.23.07-1.8.15v-1.3h.36A8.94,8.94,0,0,1,59.62,19Zm0,1.37v3.88a6.87,6.87,0,0,1-1.8-.93V20.66a8.1,8.1,0,0,1,1.8-.28Zm0,5.4v1.65h-.08a16.58,16.58,0,0,1-1.72-1.37V24.91l.28.15.22.07.29.14.21.07.29.15.22.14.21.07.08.08Zm0,2.59a10.79,10.79,0,0,0-1.73-1.23h-.07v.8l.57.36a3.88,3.88,0,0,1,1.23,2.16V28.37Zm0,11.59v2.23a2.41,2.41,0,0,1-1.8-.5V40.61a6.89,6.89,0,0,0,1.8-.65Zm0,3.6v3.53a5.43,5.43,0,0,1-1.8,1V44.35a4.36,4.36,0,0,0,1.8-.79Zm0,4.68V52.7A7.48,7.48,0,0,1,59.11,51a10.78,10.78,0,0,1,.07-2.45l.22-.15.14-.07.08-.07Zm0,6.26v1.16a1.87,1.87,0,0,1-.72-.29,4.54,4.54,0,0,1-1.08-.94v-.57h0l.21-.22.22-.22.14-.14.22-.14.14-.22.87,1.58Zm0,8.07V64.3a6.27,6.27,0,0,1,0-1.73Zm0,13.89v2.31L59,79c-.36.15-.79.22-1.22.36V77.83l.57-.57c.29-.15.72-.51,1.23-.8Zm0,3.24V82a5.14,5.14,0,0,1-1.8,0V81.5a8.75,8.75,0,0,1,1.8-1.8Zm0,3v1.08a2.24,2.24,0,0,0-.65.36c-.58.36-1.37,1.73-.87,2.59.29.5.94.5,1.52.5v.94a2,2,0,0,1-1.8.43V84a10.88,10.88,0,0,1,1.36-1.15h.36l.08-.07Zm0,6.69v.94c-.15,0-.29.07-.44.07a3.27,3.27,0,0,1,.44-1Zm-1.8-6.48c.14-.07.21-.14.36-.14a.93.93,0,0,0-.36-.07v.21Zm0-2.59.36-.36-.22.07-.14.08v.21Zm0-17.42c.28-.72.64-1.37,1-2.09A4.93,4.93,0,0,0,59,56.23l-.22-.14L58.61,56l-.22-.15-.21-.07L58,55.58l-.14-.14v7.49Zm0-9.94a3.94,3.94,0,0,0,.5-.93,11.92,11.92,0,0,0,.07-3.17,5.05,5.05,0,0,1-.57.21V53Zm0-34.92v-.72c.57.07,1,.22,1,.36s-.43.29-1,.36Zm0-7.92V9.29H58v.86Zm0-.86v.86h-.51V9.29Zm0,4.32V16.7h-.51V15.34l.07-.22v-.29l.15-.29v-.21l.07-.22.07-.21.07-.22.08-.07Zm0,3.74v.72h-.51v-.79a1.29,1.29,0,0,1,.51.07Zm0,1.73v1.3h-.51v-1.3h.51Zm0,1.58v2.67a1.35,1.35,0,0,1-.51-.36V20.88a5.5,5.5,0,0,1,.51-.22Zm0,4.25v1.15l-.51-.5v-.79h.22l.21.14Zm0,2.23v.8a5.5,5.5,0,0,1-.51-.22v-.5h.22l.21-.08Zm0,13.47v1.08a3.78,3.78,0,0,1-.51-.58v-.43c.15,0,.29-.07.51-.07Zm0,3.74V48.1h-.51V44.35Zm0,4.75V53a2.81,2.81,0,0,1-.51.43V49.1Zm0,4.76v.57a1,1,0,0,1-.36-.29l.21-.14.15-.14Zm0,1.58v7.49a6.84,6.84,0,0,0-.51,1V55.22l.07-.07.22.07.14.15.08.07Zm0,22.39v1.51a1.1,1.1,0,0,0-.51.15V78.34a3.5,3.5,0,0,1,.51-.51Zm0,2.31v.21c-.22.22-.36.43-.51.58v-.65l.07-.07.29-.07Zm0,1.36V82a2.11,2.11,0,0,0-.44-.07l.44-.44Zm0,1.23v.21a1.47,1.47,0,0,0-.51.36v-.64c.15,0,.36.07.51.07Zm0,1.22v4.68a3.78,3.78,0,0,1-.51-.21h0V84.53a3.78,3.78,0,0,1,.51-.58Zm-.51-70.34V12.46h0l.15.21.07.15A1.82,1.82,0,0,1,57.31,13.61Zm0-4.32v.86h-.5v1.59h0V8h0v1.3Zm0,3.17v1.15c-.14.29-.36.65-.5,1V12.17h0l.14.07.22.07.14.15Zm0,2.88V16.7H57l.08-.21v-.22l.07-.14.07-.29v-.22l.07-.28Zm0,1.94v.79a1.24,1.24,0,0,1-.5.07v-.86Zm0,1.8v1.3h-.5v-1.3h.5Zm0,1.8V23c-.07,0-.07-.07-.14-.07V24a1.12,1.12,0,0,1-.36-.08V21.17a1.09,1.09,0,0,1,.5-.29Zm0,3.89v.79c-.21-.22-.36-.43-.5-.58v-.43l.07.07.22.08h.14l.07.07Zm0,2.45v.5a2.65,2.65,0,0,1-.5-.22v-.14l.14-.07h.22l.14-.07Zm0,13.46v.43l-.21-.43Zm0,3.67V48.1a1.1,1.1,0,0,1-.5-.08V44.21a1.05,1.05,0,0,0,.5.14Zm0,4.75v4.32l-.21.22-.22-.29-.07-.14V49.1Zm0,6.12v8.72c-.21.43-.36.79-.5,1.15V55.66a3.2,3.2,0,0,0,.5-.44Zm0,23.12v1.15c-.21,0-.36.07-.5.07v-.72l.5-.5Zm0,1.94v.65c-.14.21-.36.43-.5.65V80.35h.07l.14-.07Zm0,2.38v.64a2,2,0,0,0-.5.58V82.66a.49.49,0,0,1,.21-.08c.08,0,.22.08.29.08Zm0,1.87v3.89a1.16,1.16,0,0,1-.5-.51V85.25a4.06,4.06,0,0,1,.5-.72Zm-.5-29.81v-.29l.07.15a.22.22,0,0,1-.07.14Zm0-28.58v-.36l.07.07.22.21C57.17,26.06,57,26.14,56.81,26.14Zm-1.37,60a1.34,1.34,0,0,1,.5.65L56,87v.64l-.15.15-.14.29a3.9,3.9,0,0,0-.29-.58v-1.3ZM56.81,8v3.75h-.94V10.15h-.43V9.29h.43V8Zm0,4.18v2.45a4.22,4.22,0,0,0-.43.86c-.22-.43-.65-1.15-.94-1.8v-1.3a1.7,1.7,0,0,1,.79-.21h.58Zm0,5.11v.86h-.43a4,4,0,0,1-.94-.07v-.79h.14l.29-.07h.51a1,1,0,0,1,.43.07Zm0,1.8v1.3a9.26,9.26,0,0,1-1.3-.08A2.09,2.09,0,0,0,56.38,22a1.21,1.21,0,0,1,.43-.79V23.9a3.73,3.73,0,0,1-1.37-.64v-4.4h.07l.22.08h.21l.15.07h.29l.21.07Zm0,5.47V25a5.19,5.19,0,0,1-.36-.5l.21.07Zm0,1.23-.15-.15-.28-.36-.22-.21-.22-.22-.14-.22-.14-.21-.15-.15h-.07V26.5a9.12,9.12,0,0,1,1.37-.36v-.36Zm0,1.58v.14a.87.87,0,0,1-.36-.07l.21-.07Zm0,16.85V48a3.44,3.44,0,0,1-1.37-.64V43.06a2.73,2.73,0,0,0,1.37,1.15Zm0,4.89v4.11h0l-.15-.29-.14-.22-.14-.28-.08-.22-.21-.29-.15-.36-.14-.36-.14-.36-.15-.36-.07-.21V48.74a4.37,4.37,0,0,0,1.37.36Zm0,5.33a8.93,8.93,0,0,1-1.37-2.16v3a1.74,1.74,0,0,0,1.37-.58v-.29Zm0,1.23v9.43c-.36.93-.72,1.65-.94,2.23,0,0-.14,0-.43-.5V56a2.61,2.61,0,0,0,1.37-.36Zm0,23.18v.72l-.79.22c.14-.22.43-.51.79-.94Zm0,1.51v1.23a2.52,2.52,0,0,1-1.23.93l-.14.07V80.64h.14l.36-.07.36-.07.36-.08.15-.07Zm0,2.31v1.22c-.29.36-.51.72-.65.86a1.59,1.59,0,0,1-.65.65l-.07-.07V83.09h.07a6.31,6.31,0,0,1,1.3-.43Zm0,2.59a3.94,3.94,0,0,0-.36.86,2.16,2.16,0,0,0,.36,1.8V85.25ZM55.44,69.62v-.5a1.9,1.9,0,0,0,.22.43.35.35,0,0,1-.22.07Zm0-52.92h.22l-.08-.21v-.22l-.07-.14v-.29l-.07-.22V16.7Zm-.79,69,.79.5v1.3a3,3,0,0,0-.79-.86v-.94Zm.79-76.39v.86h-.79V9.29Zm0,3.09v1.3a2,2,0,0,1-.22-.79.69.69,0,0,1,.22-.51Zm0,3.1v-.14l-.07-.22-.07-.29-.08-.29-.07-.21-.07-.22L55,13.9l-.07-.22-.15-.22-.14-.21v3.53c.14-.08.21-.08.79-.08V15.48Zm0,1.8v.79a2.73,2.73,0,0,1-.79-.07v-.65h.29l.21-.07h.29Zm0,1.58v4.4a4,4,0,0,1-.79-.8V18.72H55l.14.07h.22l.07.07Zm0,5.4V26.5a2.39,2.39,0,0,0-.79.36V24.41c.21-.07.5-.07.79-.15Zm0,18.8v4.32a4.75,4.75,0,0,1-.79-.94V42.05c0-.07.07-.15.14-.22a7,7,0,0,0,.65,1.23Zm0,5.68v1.44l-.07-.07V49.9l-.07-.22v-.14l-.08-.22-.07-.14V48.6a.77.77,0,0,0,.29.14Zm0,3.53v3a1.5,1.5,0,0,1-.79-.08v-4.1c.07-.07.14-.07.29-.14a6.88,6.88,0,0,0,.5,1.29Zm0,3.75v10.8a11.75,11.75,0,0,1-.79-2.52V59.4l.07-.22a5.48,5.48,0,0,0,.58-2.44V56Zm0,13.1v.5a3.29,3.29,0,0,1-.79-.07V67a14.32,14.32,0,0,0,.79,2.16Zm0,11.52v1.94c-.29.15-.58.22-.79.36V80.86l.21-.08.36-.07.22-.07Zm0,2.45v2.23l-.14-.07-.22-.15L54.94,85,54.72,85l-.07-.07V83.45c.29-.15.5-.22.79-.36ZM54.65,23.9v-.64l.14.14.15.22.14.14C54.94,23.83,54.79,23.83,54.65,23.9Zm-1.3,67.61a2,2,0,0,1,0,1.59V91.51Zm0-6.33a3.09,3.09,0,0,1,.79.28,2.77,2.77,0,0,0,.51.22v.94L54,86.4a2.32,2.32,0,0,0-.65.07V85.18Zm1.3-72v3.6H54.5c-.14-.15-.64-.94-1.15-1.66v-2.3a2.36,2.36,0,0,1,1.3.36Zm0,4.17V18c-.51-.07-.79-.14-.79-.29l.21-.21.22-.08h.21l.15-.07Zm0,1.37v3.74a6.16,6.16,0,0,1-1.3-3.09v-1h.07l.29.07.22.07.21.08.29.07.22.07Zm0,4.54h-.07l-.15-.15-.21-.21-.29-.15-.22-.21-.21-.08-.15-.07v2c.29-.07.65-.29,1.3-.51v-.64Zm0,1.15v2.45a3.42,3.42,0,0,0-1.3,1V24.91a6.89,6.89,0,0,1,1.3-.5Zm0,17.64v4.39a2.26,2.26,0,0,1-.43-.72c-.36-1.15-.29-2.95.43-3.67Zm0,9.07v4.1a.65.65,0,0,1-.36-.07,4.65,4.65,0,0,1-.22,3.75l-.72-.22v-7.2c.43-.14.87-.22,1.3-.36Zm0,8.28v4.9c-.07-.29-.15-.65-.22-1a11.58,11.58,0,0,0-1.08-3v-.79a3.37,3.37,0,0,0,.58.07l.5.15.22-.29Zm0,7.56a7.42,7.42,0,0,1-.43-1.44c-.22-.72-.51-1.87-.87-3v6.62a4.41,4.41,0,0,0,1.3.43V67Zm0,13.9v2.08a12.06,12.06,0,0,0-1.3.65V81.14l.22-.07.29-.07H54l.36-.07.29-.07Zm0,2.59a10.53,10.53,0,0,0-1.3.72v.21h.22l.14.15.22.07.21.07.22.07.14.08.15.07V83.45Zm-1.3-6.27V69.91a6.08,6.08,0,0,1,.65.22c1.08,5.11-.58,7.2-.58,7.2l-.07-.15Zm0-55.51.15.15-.15-.29Zm-.5,65a1.62,1.62,0,0,0-.29.5v-2.3a4.61,4.61,0,0,1,.79.29v1.29l-.5.22Zm-.29,3.67a2.34,2.34,0,0,1,.79,1.15V93.1a1.31,1.31,0,0,1-.79.72V90.36Zm.79-77.54v2.3c-.36-.65-.72-1.22-.79-1.44-.07-.5.22-.86.58-.86Zm0,5.54v1c0-.29-.07-.65-.07-1.08l.07.07Zm0,3.17v-.07l-.07-.15-.07-.21L53.14,21l-.08-.21L53,20.59v-.21l-.07-.22-.07-.22v-.21l-.07-.22v-.43l-.08-.22v-.21c-.07,0-.14,0-.14-.07v2.3a8.16,8.16,0,0,0,.79.79v-.14Zm0,.86v2a.67.67,0,0,1-.29.14,2.58,2.58,0,0,1-.5-.36V22a6.58,6.58,0,0,0,.79.36Zm0,2.52v2.95a3.27,3.27,0,0,0-.79,1.59V25.7a4.54,4.54,0,0,1,.79-.79Zm0,26.57v7.2a2.29,2.29,0,0,1-.79-.43V51.62c.22-.07.5-.07.79-.14Zm0,8v.79c-.29-.43-.57-.79-.79-1.15a6.29,6.29,0,0,0,.79.36Zm0,3c-.14-.44-.21-.8-.36-1.16a6.94,6.94,0,0,1-.43-1.08V68.4a3.87,3.87,0,0,0,.79.72V62.5Zm0,7.41v7.27a6,6,0,0,1-.79-1.29V73.08c.14.43.29.5.29.5a10.56,10.56,0,0,0-.22-4.1c.22.14.51.29.72.43Zm0,11.23v2.45a8.44,8.44,0,0,0-.79.51h0V81.43a1.76,1.76,0,0,1,.5-.21l.22-.08Zm0,3v.21h0l-.14-.07Zm-.79,3c-.58.72-1.22,1.66-2,2.67,0,0,.36,0,.8.57a1.08,1.08,0,0,1,1.22-.07v3.46a1,1,0,0,1-.43.14s-1,1.51-2,.72c0,0,.87-.22.72-.94,0,0-1.08-.43-.57-1.15a1.1,1.1,0,0,1-.44.15V86.83c.36-.36.72-.86,1.16-1.29a6.91,6.91,0,0,1-1.16.07V84c.51.15,1.3.36,2.09.65l.65.22v2.3Zm0-68.61v2.3a3.38,3.38,0,0,1-.79-1.08c-.36-.94-.43-1.51.79-1.22Zm0,3.45a3.9,3.9,0,0,1-2.3-2.23,1,1,0,0,1-.44-.07v2.16a.58.58,0,0,1,.58.72l-.07.21-.07.15L50,23l-.22.07v.72a4.28,4.28,0,0,1,2.74.36V22Zm0,3.67v3.68c-.22-.44-1.15-2.09-.36-3.24.14-.15.22-.29.36-.44Zm0,25.92v6.63a5,5,0,0,1-1.8-1.87,4.42,4.42,0,0,1-.94,1.15V51.7a11.53,11.53,0,0,0,2.74-.08Zm0,8.64a8.3,8.3,0,0,0-1.94-2.52l-.15.22-.21.14-.15.15A16.51,16.51,0,0,0,50,62.86a9.49,9.49,0,0,0,2.16,5.25c.14.07.22.22.36.29V60.26Zm0,12.82v2.81c-1.66-2.67-1.87-5.69-2.45-9.79l.15.28.07.22.14.22.15.28.14.22.22.29.14.21.14.29a17.08,17.08,0,0,0,1.3,5Zm0,8.35A6.62,6.62,0,0,0,50,83.38s1.58.43,2.52.72ZM49.82,92.74c-1.72.64-1.72-1.16-2-1a2.54,2.54,0,0,0-2.09,1.73V87.05c1-.15,1.94,1.15,2.88.72a3,3,0,0,0,1.22-.94v5.91Zm0-7.13a1.24,1.24,0,0,1-.5-.07c-.36,0-.5-.22-.36-.44A4.4,4.4,0,0,1,49.61,84h.21v1.59Zm0-65.88v2.16h0a.62.62,0,0,0-.57.57.64.64,0,0,0,.57.65h0v.72a4.66,4.66,0,0,0-1.8.79,3,3,0,0,1-1.08-4,2,2,0,0,1,1.59-.86,4,4,0,0,1,1.29,0Zm0,32v5.83A4,4,0,0,1,48,58.61s-1.51-.79-1.15-3.82a6.19,6.19,0,0,1-1.15,1.59V37.22l.14.08.51.36A4,4,0,0,1,48,42.77c-1,2.52-3,6.12-1.8,7.49a5.68,5.68,0,0,0,3.67,1.44Zm-4.1,23.61V66h0l.14.22.15.29.14.21.22.29.14.15.15.21.07.15.07.07c-.72,5.11.43,6,.43,6a11.94,11.94,0,0,0,.87-5.76,12.73,12.73,0,0,0,1.29-1.66c-.65,10.73-2.3,12-2.3,12a5.13,5.13,0,0,1-1.37-3Zm0-11.37a3.21,3.21,0,0,0,.14.79,12,12,0,0,0,1.73,2.66,7.2,7.2,0,0,0,1.8-2.88,10,10,0,0,0,.07-3.6A11.45,11.45,0,0,0,49,59l-.72.29L48,59.4l-.36-.22L47.45,59l-.22-.14-.14-.22-.15-.14a6.94,6.94,0,0,0-1.08,1.94,2.17,2.17,0,0,0-.14.65v2.81Zm0-4.18c0-.14,0-.22.07-.29A4.6,4.6,0,0,0,45.72,58Zm0,33.7a5.37,5.37,0,0,0-.43,1.87c.43.43.86,3.53-1.66,2.66a1.8,1.8,0,0,0-.14,1.8,1.65,1.65,0,0,1-.79-2c-.87.21-1.88-3.17,1.08-3.17,0,0-.58-1.66,1.44-2.16,0,0-3.1-.22-3.46,1.08-.07.29-.36,2.09-2.16,1.58V91.66a2.9,2.9,0,0,1,1,.21c-.07-.65,0-1.73,2.73-1.44,0,0-2.37-1.29-2.59-.65a2,2,0,0,1-1.15.72V86.9A3.58,3.58,0,0,1,42,88.06c1.15.28,1-1.08,2.44.07a2,2,0,0,1,1.3-1.08v6.41Zm0-56.24V56.38A6.53,6.53,0,0,1,42.26,58s-1.94-2.52.65-5.9a5.89,5.89,0,0,1-3.31,1.08V49.32a3.74,3.74,0,0,1,.58-.5,3,3,0,0,1-.58-.08V44.35h.79a5.28,5.28,0,0,1-.79-.29V39.38a10.12,10.12,0,0,1,2.95,1.3,8.25,8.25,0,0,0-2.23-2.52,3.51,3.51,0,0,1-.72-.72V31.75l.22.22.21.29.22.28.29.29.28.29.29.36.29.29.36.29.29.28.36.29.43.36.36.29.36.36.43.29.43.36.51.36.43.36.36.21Zm0,20.81a3.09,3.09,0,0,0-.36-.5l-.29.21-.36.15L44.5,58l-.15.07-.21.08-.15.07-.21.07-.22.07-.22.07-.28.08-.22.07h-.22l-.21.07a15.73,15.73,0,0,0-2.81,3.1v2.16A7.14,7.14,0,0,0,44,62.14a5.32,5.32,0,0,0,1.73-2.38V58Zm0,3.1v2.81a6.06,6.06,0,0,1,0-2.81Zm0,4.89v9.29c-.72-3.09-.29-7.49-.14-9.5l.14.21ZM39.6,77.62V68.33a45,45,0,0,1,2.16-4.11,3.4,3.4,0,0,0,.94-.36c-.87,3-2.45,6.56-1.8,9.36l.21-.21.15-.29.21-.29.15-.36.14-.36.22-.36.07-.36.14-.36.15-.43.14-.36.07-.43L42.7,69l.21-.87.07-.36.08-.43.07-.43.07-.36.07-.36.07-.36v-.36l.08-.36.07-.29v-.58l.07-.21v-.36l.07-.22a8.88,8.88,0,0,1,.87-.79c.07-.07.21-.14.36-.29v.87c-.29,4.46-.65,9.07-2,11.37a10.38,10.38,0,0,1-3.24,3Zm0-12a7.79,7.79,0,0,1,.72-1,2.21,2.21,0,0,1-.72.08v.93Zm0-5a6.55,6.55,0,0,0,2-2.3l-.15-.15-.07-.21-.14-.22-.08-.21-.07-.22L41,57,41,56.81l-.07-.15v-.28l-.08-.22c-.43.14-.79.29-1.22.43v4Zm0-4.61a5.68,5.68,0,0,0,1.3-1.29,3.72,3.72,0,0,1,.28-1l-.21.07h-.15l-.21.07h-.43l-.22.08H39.6Zm0,39.17a1,1,0,0,1-.43-.14,1.88,1.88,0,0,0-.72.72V91.94a2,2,0,0,1,1.15-.28v3.45Zm0-4.61a1.26,1.26,0,0,1-1.15-.14v-3.1a2,2,0,0,1,1.15-.36v3.6Zm0-58.75v5.69a7.45,7.45,0,0,1-1.15-1.66V30.17l.14.21.15.22.21.29.15.29.21.28.22.29Zm0,7.63v4.68a4.1,4.1,0,0,1-1.15-.72v-4a6.74,6.74,0,0,1,1.15.07Zm0,5v4.39c-.29-.07-.72-.14-1.15-.28V44.35a6.3,6.3,0,0,1,1.15,0Zm0,5v3.82a5.91,5.91,0,0,1-1.15-.08V50.47a8.85,8.85,0,0,1,1.15-1.15Zm0,4.54v2.08a5.87,5.87,0,0,1-1.15.72V53.78h.14l.22.08h.79Zm0,2.73a5.9,5.9,0,0,0-1.15.58v4a5.9,5.9,0,0,0,1.15-.58v-4Zm0,5.19v2.16a2.66,2.66,0,0,1-.79-.08s-.15-.57.79-2.08Zm0,2.88v.93a13.94,13.94,0,0,0-1.15,1.73V64.58h.29a3.1,3.1,0,0,0,.86.08Zm0,3.67v9.29A3.7,3.7,0,0,1,39,78a6.12,6.12,0,0,1-.5-.94V71.35a26.63,26.63,0,0,1,1.15-3Zm-1.15-6,.21-.43c-.07,0-.14.07-.21.07v.36Zm0-24.84.29.14-.15-.14-.07-.22h-.07Zm0,58.25c-.07.21-.15.5-.22.79-.5-.86-.79-1.94.07-2.52-.36-1-.21-1.66.15-2v3.75Zm0-5.33a1.17,1.17,0,0,1-.43-.79s-.8-.43-1.52.86c0,0-.36-2,1.08-1.94a1.72,1.72,0,0,1,.87-1.23v3.1Zm0-60.19v5.61a13.3,13.3,0,0,1-1-7.56l.22.51.28.5.29.58.22.36Zm0,7L38.3,37l-.07-.22-.14-.21L38,36.36l-.15-.22-.14-.28-.07-.22-.15-.29-.07-.21-.07-.29-.15-.29-.07-.29L37.08,34,37,33.7c-.29-.94-.79-2.81-1.23-4.18v6.41a20.09,20.09,0,0,0,2.67,1.51v-.22Zm0,2.09v4a5.52,5.52,0,0,1-2.09-3.6,3.78,3.78,0,0,1,2.09-.43Zm0,5v4.11a5.12,5.12,0,0,1-2.67-2V45.43a6.37,6.37,0,0,1,2.67-1.08Zm0,6.12v2.59a3.67,3.67,0,0,1-.79-.14,3.05,3.05,0,0,1,.79-2.45Zm0,3.31v2.88a7.7,7.7,0,0,1-2.67.87v-3.6a7,7,0,0,0,1.16-.79l.14.43.43.07.22.07H38l.28.07Zm0,3.39a9.28,9.28,0,0,0-1.08.65,3.29,3.29,0,0,0-1.59,2.3v.58a3.14,3.14,0,0,0,.22.72,4.46,4.46,0,0,0,2.45-.29v-4Zm0,4.75v.36c-.07.14-.07.29-.15.43a29.88,29.88,0,0,0-2.52,2.52v-2.3l.29-.22.22-.29.29-.21a4.81,4.81,0,0,0,1.87-.29Zm0,2.66-.22-.07a27.2,27.2,0,0,1-2.45,3.82V72l.44-.65c.86-1.58,1.65-2.95,2.23-4V64.58Zm0,6.77V77a9.52,9.52,0,0,1,0-5.69Zm-2.67-18.5a5.35,5.35,0,0,0,1.3-1.3l.14-.21.08-.22.14-.22.14-.28.15-.22.07-.22L38,50l.14-.22.14-.21a14.22,14.22,0,0,0-2.52-.22v3.53Zm0-4.68c.15-.07.22-.15.36-.22l-.21-.14-.15-.15v.51Zm0-3.82a3.34,3.34,0,0,0,.94-.29h.07l.15-.07.21-.07.22-.07h.21l.22-.07a6.77,6.77,0,0,1-2-3.32v3.89Zm0-5.11V36.86c.94.72,1.73,1.37,2.16,1.73A4.49,4.49,0,0,0,36,39.1Zm0-9.72v6.41c-.14-.15-.36-.22-.5-.36V28.22l.07.08a6.68,6.68,0,0,1,.43,1.22Zm0,7.34v2.38l-.21.14c-.07,0-.22.08-.29.08v-3a2,2,0,0,0,.5.36Zm0,3.6v3.89a1.44,1.44,0,0,0-.5.07v-4a1.44,1.44,0,0,1,.5-.07v.14Zm0,5v1.08a3.73,3.73,0,0,1-.36-.72,1.5,1.5,0,0,1,.36-.36Zm0,2.23v.51a3.51,3.51,0,0,1-.5.29V47l.07.14.22.22.14.21.07.07Zm0,1.66v3.53a1.24,1.24,0,0,1-.5.36V49.32Zm0,4.61v3.6a.42.42,0,0,1-.28.07h-.22V54.22a1.62,1.62,0,0,1,.5-.29Zm0,4.39h0a6,6,0,0,0-.5.86v-.79a.45.45,0,0,1,.29-.07Zm0,1.8v0Zm0,2.81v2.3a4.27,4.27,0,0,1-.5.58V63.5l.22-.21.28-.29v-.07Zm0,5.4V72a3.54,3.54,0,0,1-.5.65v-3.6a6.41,6.41,0,0,0,.5-.72Zm-.5-6.63v-.14c0,.07,0,.07.07.14Zm0-33.48v7.35a17.83,17.83,0,0,1-4.61-4.75V24.05a10.15,10.15,0,0,1,4.61,4.17Zm0,8.28c-.86-.64-1.73-1.22-2.45-1.65s-1.37-.72-2.16-1.08v4.82a5.81,5.81,0,0,0,4.61.87v-3Zm0,3.89v4a12.49,12.49,0,0,1-3.82-.5c-.28-.07-.57-.22-.79-.29V40a2.79,2.79,0,0,1,1.23.22,10.58,10.58,0,0,0,3.38.21Zm0,6.63v1.44a11.76,11.76,0,0,1-4.61.86V44.86a9.19,9.19,0,0,1,3.89.79l.14.43.15.29.14.29.22.21.07.15Zm0,2.3a15.23,15.23,0,0,0-1.73.29,7.89,7.89,0,0,0-2.88.86v4.11A8,8,0,0,0,32,54.5a11.37,11.37,0,0,0,3.31-1.29V49.32Zm0,4.9V57.6a3,3,0,0,1-3-1.37c.5-.93,1.72-1.37,3-2Zm0,4.17v.79c0,.15-.07.22-.07.29a45.52,45.52,0,0,0-4.54,2.88V59.9A27.1,27.1,0,0,1,33.19,58a5.68,5.68,0,0,0,2.09.36Zm0,3.17c0-.07-.07-.14-.14-.29v-.21l-.08-.15v-.57a41,41,0,0,1-4.39,4.1v2.74a46,46,0,0,1,4.61-5.48v-.14Zm0,1.94v2.31c-3.38,4-3,6-3,6a12.42,12.42,0,0,0,3-2.81v3.6A14,14,0,0,1,30.67,76v-6l.22-.5.29-.43.28-.51.29-.5.29-.43.29-.44.36-.5.29-.43.36-.36.28-.43L34,65l.29-.44.29-.28.36-.36.29-.36.07-.08Zm-4.61-4.89c.65-.51,1.15-.94,1.59-1.3a1.29,1.29,0,0,1-.44-.43l-1.15.94v.79Zm0-2.09v-.58l1.15-.43c-.07.15-.14.22-.21.36l-.22.36c-.21.07-.5.22-.72.29Zm0-23.54a6.61,6.61,0,0,1,1.23.57c-.44-.5-.87-1-1.23-1.44Zm0-8.93v6.77c-.07-.15-.14-.22-.14-.29A6.75,6.75,0,0,1,29.88,29V23.76a3.16,3.16,0,0,1,.79.29Zm0,8.06V33a3.46,3.46,0,0,0-.79-.36V30.89a12,12,0,0,0,.79,1.22Zm0,1.66v4.82a5.58,5.58,0,0,1-.79-.57V33.41a3.46,3.46,0,0,1,.79.36Zm0,6.19v3.67a6.58,6.58,0,0,1-.79-.36V40Zm0,4.9v4.46h-.79V44.93a3,3,0,0,1,.79-.07Zm0,5.61v4.11a2.43,2.43,0,0,1-.79-.08V51a3.06,3.06,0,0,1,.79-.51Zm0,5.47v.58a4,4,0,0,1-.79.36V56.3l.79-.36Zm0,1.88v.79c-.29.21-.5.5-.79.72v-.94c.29-.21.58-.43.79-.57Zm0,2.08v2.45a5.68,5.68,0,0,0-.79.58V60.55c.29-.21.5-.43.79-.65Zm0,4.54v2.74c-.29.36-.5.72-.79,1.08V65.09c.22-.22.5-.36.79-.65Zm0,5.47v6a5.65,5.65,0,0,1-.79.29V71.86L30,71.5l.15-.51.21-.57.29-.51Zm-.79-14.47V55.3h.36c-.14.07-.22.07-.36.14Zm0-11.38h0l.14.08-.14-.08Zm0-4.82V39l.43.22Zm0-15.48V29a12.12,12.12,0,0,1-.22-5.33l.22.07Zm0,7.13h0a8.12,8.12,0,0,1-.79-2.09l-.22-.65a4.06,4.06,0,0,0-.72-.5v4.1a5.62,5.62,0,0,0,.87.51l.72.28.14.08V30.89Zm0,2.52V38a1.71,1.71,0,0,0-.43-.36A11.43,11.43,0,0,1,28.15,36V32.69a15.86,15.86,0,0,1,1.73.72Zm0,5.61v.22a7.82,7.82,0,0,0-1.73.43V38.38c.65.21,1.23.43,1.73.64Zm0,.94v3.31a4.28,4.28,0,0,1-1.73-1.73v-1A5.36,5.36,0,0,1,29.88,40Zm0,4.1h-.07l-.22-.14-.21-.14-.22-.08L29,43.56l-.22-.14-.29-.29-.21-.22-.15-.14v.65c.65.21,1.23.43,1.73.64Zm0,.87v4.39a6.26,6.26,0,0,1-1.73-.5V45.43l.58-.21a3.66,3.66,0,0,1,1.15-.29Zm0,6V54.5a4.36,4.36,0,0,1-1.73-.57v-.58A5.58,5.58,0,0,1,29.88,51Zm0,4.32v.14c-.43.07-1,.29-1.73.5V54.72a7,7,0,0,0,1.73.58Zm0,1v.58c-.58.22-1.15.5-1.73.72V57a14.47,14.47,0,0,1,1.73-.65Zm0,2.09v.94c-.5.5-1.08,1-1.73,1.58V59.62c.65-.44,1.23-.87,1.73-1.23Zm0,2.16-1.73,1.51v2.45c.58-.57,1.15-1.08,1.73-1.58V60.55Zm0,4.54v3.17a15,15,0,0,1-.94,1.29,4.75,4.75,0,0,1-.79.94V66.31c.51-.36,1.08-.72,1.73-1.22Zm0,6.77v4.39c-.43.21-.65.29-.65.29L29.16,76l.07-.58v-.57l.07-.58.08-.57.14-.58.14-.5.15-.51.07-.21ZM28.15,51.41l.36-.07c.43-.58.94-.94,1.23-1.3L29.52,50H29.3L29,49.9l-.29-.08-.22-.07-.29-.07-.07-.07v1.8Zm0-6.77v-.22l.36.08-.21.14Zm0-18V24.05a8.86,8.86,0,0,1,.58,1.15v1.15l.07,1.08Zm0-2.59v2.59L27,25.13V21.89c.43.72.79,1.44,1.15,2.16Zm0,3.6v4.1c-.36-.21-.72-.43-1.15-.65V26.71l1.15.94Zm0,5V36c-.43-.72-.79-1.44-1.15-2.09V32.33a6.35,6.35,0,0,1,1.15.36Zm0,5.69v1.29c-.21.15-.5.29-.72.43L27,40V37.87c.43.15.79.36,1.15.51Zm0,2.16v1a4,4,0,0,1-.29-.79c.08-.07.22-.14.29-.21Zm0,2.23L28,42.62l-.15-.28-.21-.22-.15-.22-.07-.21-.14-.29-.07-.14V41l-.08-.22H27v2.24c.43.14.79.28,1.15.36v-.65Zm0,1.65v.29l-.21.07-.29.08-.22.14-.21.14H27V44.06a8.71,8.71,0,0,0,1.15.36Zm0,1v3.39c-.43-.15-.79-.36-1.15-.51V46.08c.36-.22.72-.43,1.15-.65Zm0,4.18v1.8A6.23,6.23,0,0,1,27,51.7V49.61l.72-.22.22.15.21.07Zm0,3.74v.58L28,53.78a1,1,0,0,0,.14-.43Zm0,1.37v1.22a10,10,0,0,1-1.15.44V55a5.25,5.25,0,0,0,.86-.43.6.6,0,0,0,.29.14Zm0,2.23v.65c-.36.22-.72.36-1.15.58v-.8c.43-.14.79-.28,1.15-.43Zm0,2.67v1.29l-1.15,1V60.41c.43-.29.79-.51,1.15-.79Zm0,2.44v2.45c-.36.51-.79.94-1.15,1.44V63.14c.43-.36.79-.72,1.15-1.08Zm0,4.25v4.18A8.4,8.4,0,0,1,27,71.57V67a6,6,0,0,0,1.15-.65ZM27,53.21V52.7c.29-.07.5-.07.72-.14l-.07.22-.07.21-.08.15c-.14,0-.28.07-.5.07Zm0-16.63a3.89,3.89,0,0,0,.79.14l-.14-.14-.15-.22-.07-.22-.14-.21-.22-.22L27,35.64Zm0-14.69v3.24c-1.58-2-3.24-4.18-4.9-6.27-.64-.72-1.22-1.36-1.8-1.94V11.66a29.58,29.58,0,0,1,1.8,2.45A74.76,74.76,0,0,1,27,21.89Zm0,4.82c-1.58-1.37-3.1-2.95-4.25-4a18.06,18.06,0,0,1-2.45-2.88v5.62A41,41,0,0,0,27,31.1V26.71Zm0,5.62v1.58c-.43-1-.72-1.73-.72-1.73a2.64,2.64,0,0,1,.72.15Zm0,3.31V35.5l-.14-.15-.15-.21c-3-1.44-3.74-2-5.25-2.74-.36-.22-.72-.43-1.16-.65v2.59A31,31,0,0,0,27,36.58v-.94Zm0,2.23V40a55.8,55.8,0,0,0-6.7-2.3V35.42c2.38.8,4.76,1.73,6.7,2.45Zm0,3a51.93,51.93,0,0,1-6.7-1.51v2.16c2.38.51,4.68,1,6.7,1.59V40.82Zm0,3.24v1.08a38.11,38.11,0,0,0-6.7-1.29V42.26c2.67.58,4.83,1.23,6.7,1.8Zm0,2v2.23a6.44,6.44,0,0,1-1.15-.86A6,6,0,0,1,27,46.08Zm0,3.53V51.7a55,55,0,0,1-6.7,1.15V50.76A38.89,38.89,0,0,0,27,49.61Zm0,3.09c-1.66.29-4.39.72-6.7,1.08v1.88a6.33,6.33,0,0,1,.72-.29,53.94,53.94,0,0,1,6-2.16V52.7ZM27,55v1.37c-1.44.57-3.6,1.51-6.7,2.95V57.17A33.14,33.14,0,0,0,27,55Zm0,2.37c-2.38.94-4.9,1.95-6.12,2.6-.22.07-.36.21-.58.28v7.2a9.09,9.09,0,0,0,1.88-1.22c1.58-1.3,3.31-2.88,4.82-4.32V60.41a27.11,27.11,0,0,1-5.76,3,12.7,12.7,0,0,1,3.31-3.67c.87-.58,1.73-1.08,2.45-1.51v-.8Zm0,5.76V66a8,8,0,0,0-.79,1.37A3.36,3.36,0,0,0,27,67v4.61a10.87,10.87,0,0,1-5.62,2.23,15.14,15.14,0,0,1,3.82-8.71c.58-.65,1.22-1.3,1.8-2ZM20.3,49.39c2.31-.36,4.68-.5,6.12-.65A12.94,12.94,0,0,1,25.34,48a41.77,41.77,0,0,1-5,.36v1Zm0-2.23c1.88-.07,3.53-.14,5-.14a12.66,12.66,0,0,1,.94-1.16,45.26,45.26,0,0,1-5.91-.43v1.73Zm0-17.5V27.07c1.66,1.51,3.39,3.1,4.9,4.25l.94,2.88C24.26,32.69,22.1,31,20.3,29.66Zm0-18v5.26a16.49,16.49,0,0,0-2.59-2.09,20.86,20.86,0,0,0,2.59,5v5.62a36.72,36.72,0,0,1-5.9-7.85C12,13,13,7.49,13.61,4.61a64.11,64.11,0,0,1,6.69,7.05Zm0,15.41c-1.94-1.8-3.74-3.53-4.53-4.32-1.51-1.58-7.49-6.69-10.23-7.27,0,0-.79,5.83,2,9.72,1.94,2.74,7.06,6.62,12.74,9.14V31.75a39.73,39.73,0,0,1-4.53-3.24,26,26,0,0,1-3.89-4.17A22.19,22.19,0,0,1,18.07,28c.65.43,1.44,1,2.23,1.65V27.07Zm0,8.35v2.24A5.21,5.21,0,0,0,19,37.3a27.76,27.76,0,0,0-5.91-1A29,29,0,0,0,18.94,39a11.09,11.09,0,0,0,1.36.36v2.16c-4.17-1-8.49-1.94-11.37-3.17-7.56-3.09-8.93-7-8.93-7A44.85,44.85,0,0,1,15.77,34c1.37.36,2.95.87,4.53,1.44Zm0,6.84A75.71,75.71,0,0,0,12,41.18c-5.69-.43-9.79-.07-11.88.51a36.36,36.36,0,0,0,11.09,4.82,34.92,34.92,0,0,0,9.14.65V45.43a50.59,50.59,0,0,1-7.41-1.37,26.13,26.13,0,0,1,7.41-.21V42.26Zm0,6.12v1a17.56,17.56,0,0,0-5.25,1.37,25,25,0,0,0,5.25,0v2.09c-1.8.21-3.88.43-6.33.57-7.35.58-11.31-.79-11.31-.79A32.53,32.53,0,0,1,12.1,49a72.52,72.52,0,0,1,8.2-.58Zm0,5.4a21.28,21.28,0,0,0-2.95.72,15.71,15.71,0,0,0-9.72,7.71s4,1.22,11.38-2.31a11.67,11.67,0,0,0,1.29-.57V57.17A17.13,17.13,0,0,1,17,57.6a33,33,0,0,1,3.31-1.94V53.78Zm0,6.48v7.2A12.8,12.8,0,0,1,13.75,69,15.46,15.46,0,0,1,20.3,60.26Z"/></g></g></svg>