<svg id="93b31083-6b58-4b19-b713-9ed3f8b5c944" data-name="Layer 1" xmlns="http://www.w3.org/2000/svg" viewBox="0 0 364.61 425.09"><title>2211128_20130221-20140509_SCO</title><path d="M305.21,608.18a219.94,219.94,0,0,1-31.1-16.92l-3-2.09a269,269,0,0,1-34.27-26.64c-36.07-33.19-62.5-75-78.41-124.06a303.08,303.08,0,0,1-14.62-97c-.14-9.94-.29-23-.14-37.15l.14-8-2.16-.72c-8.93-2.81-14.33-4.9-14.9-5.11l-3-1.15V226.73l3.31-1.58c2.23-.86,10-3.74,22.1-7.34l1.8-.5.36-1.87c.5-2.74.94-5.26,1.37-7.49.58-2.66,1.08-5,1.51-6.77l.29-1.22,1.22-.29c16.27-3.74,33.41-6.91,50.9-9.36a709.08,709.08,0,0,1,95.62-6.84H310a730.27,730.27,0,0,1,95.47,6.84c17.5,2.45,34.63,5.62,50.9,9.36l1.22.29.29,1.22c.43,1.8.94,4.1,1.51,6.77.43,2.23.86,4.75,1.37,7.56l.36,1.8,1.8.5c12.17,3.67,19.8,6.48,22,7.34l3.24,1.58.07,62.64-3,1.15c-1.37.5-6.48,2.45-14.83,5.11l-2.16.65.14,8c.07,11.23.07,23.4-.14,37.3a302.94,302.94,0,0,1-14.62,96.91c-15.91,49.1-42.34,90.86-78.41,124.06A266.28,266.28,0,0,1,342,588.74h-.22l-.79.5a228.94,228.94,0,0,1-34.2,18.94l-.79.36Z" transform="translate(-123.7 -183.46)" fill="#fff" fill-rule="evenodd"/><path d="M306,318.89c-101.81,0-178.2-29.88-179-30.17l-1.3-.5V228l2.81,1.08C129.24,229.39,205,259,306,259s176.76-29.59,177.55-29.88l2.74-1.08v60.19l-1.3.5C484.2,289,407.81,318.89,306,318.89Z" transform="translate(-123.7 -183.46)" fill="#05173c" fill-rule="evenodd"/><path d="M411.41,456.77c-33.62,43.13-71.57,68.9-105.41,84.38-33.84-15.48-71.78-41.26-105.41-84.38-25.34-32.4-45.72-113.9-45.43-115.06,2.81-20.3,6.77-83.3,39.1-131.83A799.62,799.62,0,0,1,306,200.81a797.91,797.91,0,0,1,111.74,9.07c32.33,48.53,41.54,131.83,41.54,131.83S436.68,424.37,411.41,456.77Z" transform="translate(-123.7 -183.46)" fill="#ffe501" fill-rule="evenodd"/><path d="M465.34,345.31c-3.67,26.35-17.78,97.13-68.62,158.62-3.38,4.1-7,8.14-10.66,12.17a264.25,264.25,0,0,1-43.92,38.09,252.59,252.59,0,0,0,31.75,7.13c28.94-26.57,59.33-66.1,77.9-123.26a301.86,301.86,0,0,0,14.47-96.34C466,342.94,465.62,344.09,465.34,345.31Z" transform="translate(-123.7 -183.46)" fill="#05173c" fill-rule="evenodd"/><path d="M306.22,575h-.07a233,233,0,0,1-33.84,12.82,243.52,243.52,0,0,0,33.91,18.79,243.52,243.52,0,0,0,33.91-18.79A236.87,236.87,0,0,1,306.22,575Z" transform="translate(-123.7 -183.46)" fill="#05173c" fill-rule="evenodd"/><path d="M443.52,360.43c9.07-42.26-7.92-98.71-21-143.93,28.94,47.23,40.18,102.53,42.84,121.9.29,1.15.58,2.23.86,3.31,0,.07-.94,3.82-1.51,5.69-.36,1.37-.72,2.66-1.08,4-.07.29-.22.65-.29,1-10.22,35-26.35,71.42-51.7,104-33.55,43-71.71,69-105.55,84.38v-.43S419.11,474.48,443.52,360.43Z" transform="translate(-123.7 -183.46)" fill="#ffc211" fill-rule="evenodd"/><path d="M146.74,345.31c3.67,26.35,17.78,97.13,68.62,158.62,3.38,4.1,7,8.14,10.66,12.17a270.16,270.16,0,0,0,43.92,38.09,252.59,252.59,0,0,1-31.75,7.13c-28.87-26.57-59.33-66.1-77.83-123.26a300,300,0,0,1-14.54-96.34C146.09,342.94,146.45,344.09,146.74,345.31Z" transform="translate(-123.7 -183.46)" fill="#05173c" fill-rule="evenodd"/><path d="M464.54,348c-.22.86-.43,1.8-.72,2.74a17.67,17.67,0,0,0-.58,2.09C453,387.72,436.9,424.08,411.62,456.48c-33.62,43.06-71.57,68.9-105.48,84.31-33.77-15.41-72.07-41.26-105.7-84.31-25.27-32.4-41.4-68.76-51.62-103.68a17.67,17.67,0,0,0-.58-2.09c-.22-.94-.5-1.87-.72-2.74s-.58-1.8-.79-2.66c3.67,26.35,17.78,97.13,68.62,158.62,3.38,4.1,7,8.14,10.66,12.17a270.16,270.16,0,0,0,43.92,38.09,252.59,252.59,0,0,1-31.75,7.13,276.55,276.55,0,0,0,34.13,26.5A236.87,236.87,0,0,0,306.22,575a240.14,240.14,0,0,0,33.91,12.82,275.16,275.16,0,0,0,33.77-26.5,252.59,252.59,0,0,1-31.75-7.13,264.25,264.25,0,0,0,43.92-38.09c3.67-4,7.27-8.06,10.66-12.17,50.83-61.49,64.94-132.26,68.62-158.62C465.12,346.18,464.83,347.11,464.54,348Z" transform="translate(-123.7 -183.46)" fill="#fff" fill-rule="evenodd"/><path d="M466.42,304.56c-.07-1.58-.07-3.24-.07-4.82s-.07-3.17-.14-4.75c0-1.15-.29-9.14-.29-9.43-1.08-29.09-3.67-49.18-5.76-61.42-.94-6.19-1.87-11.38-2.74-15.55-.58-2.66-1-4.9-1.44-6.77-16.85-3.82-33.84-6.91-50.76-9.29a721,721,0,0,0-96.12-6.84h-6a722,722,0,0,0-96.19,6.84c-16.92,2.38-33.91,5.47-50.76,9.29-.43,1.87-.86,4.1-1.44,6.77-.86,4.18-1.8,9.36-2.74,15.55-2.09,12.24-4.61,32.33-5.76,61.42,0,.29-.14,4.32-.22,6.12v.22c0,1-.07,2-.07,3.1-.07,1.58-.07,3.17-.07,4.75s-.07,3.24-.14,4.82c-.14,14.47,0,27.79.14,37.15,0,.14.79-2.09,1.15-3.24,2.81-20.3,15-80.35,47.3-129A799.62,799.62,0,0,1,306,200.45h0a799.74,799.74,0,0,1,111.82,9.07c32.26,48.6,44.5,108.65,47.38,129a26.1,26.1,0,0,0,1.08,3.24C466.42,332.35,466.56,319,466.42,304.56Z" transform="translate(-123.7 -183.46)" fill="#05173c" fill-rule="evenodd"/><path d="M168.55,360.43c-9.07-42.26,8-98.71,21-143.93C160.56,263.74,149.33,319,146.66,338.4c-.29,1.15-.58,2.23-.86,3.31,0,.07,1,3.82,1.51,5.69.36,1.37.72,2.66,1.08,4,.07.29.22.65.29,1,10.22,35,26.35,71.42,51.7,104,33.55,43,72.07,69,105.77,84.38v-.43S193,474.48,168.55,360.43Z" transform="translate(-123.7 -183.46)" fill="#ffc211" fill-rule="evenodd"/><path d="M294.34,297.22c1.8-.36,4-.65,4-.65l-4,2.09v27.29c3.17-.79,6.34-1.58,7.42-2.52a4.36,4.36,0,0,0,1.15-1.22s-.86,3.53-5.76,4.82c-.72.22-1.66.43-2.81.86V390.6a44.17,44.17,0,0,0,5.83,4.68,21.89,21.89,0,0,1,2.81,2.38c-1-.14-2.09-.22-3.24-.29a19.61,19.61,0,0,0-5.4.29v46a17.15,17.15,0,0,1,1.87-.36s1.51.94,2.16,4.1a6.47,6.47,0,0,0,2.66-4.25s6.84,4.32,13.1,1.87c0,0-4.46-.86-6-3.46a4.67,4.67,0,0,0,2.09-.43s-6.91-1.73-8.06-8.86,2.23-10.3,4.68-11.3c0,0,.94-7.85,11.59-12,0,0-11.09,7.2-9.36,20.38s25.7,12,25.7,12A22.25,22.25,0,0,1,325.3,450a29.61,29.61,0,0,1-10,2.81,20.45,20.45,0,0,0-6.84,1.44,4.41,4.41,0,0,0-2.45,3.6s-3.82.22-3.6,4.9a6.67,6.67,0,0,1,3.6-.5,5.85,5.85,0,0,0-.22,4.46s-3.74,2.09-.94,7.06a4.15,4.15,0,0,1,2.88-2.45,6,6,0,0,0,3.6,2.38,3.57,3.57,0,0,0,1.8,2.45s-1,2.88,3.17,5a2.67,2.67,0,0,1,1.51-3.46s4.18-.58,5.26-4.54,1.73-11.88,7.85-15.26c0,0,9.36-4.61,14.69-7.34s7-5,10.44-10.37a19.38,19.38,0,0,0,3.17-10.58,17.76,17.76,0,0,1-6.12,3.67c2-2,1.8-3.31,1.8-3.31s-4.75,1.44-8.21.79-5.83-1.94-6.55-4.82,1.15-5.33,2-6.7,4.61-5.83,4-12.38a17.26,17.26,0,0,0-5.33-11.16c-1-1.22-4.25-4.32-6.77-7.06s-5.9-6.26-7.92-10.87-1.73-7.06-1.73-7.06c-12.82-3.46-12.82-15.34-12.82-15.34S315.94,372,337,368.57c-9.5-4.39-10.15-10.37-9.43-15,.58-3.53,2.59-6.41,4-9.43s1.3-7.7,1.3-7.7,1.87,2.3.5,8.28c0,0,11.52-11.45.14-30.89,0,0,1.66.72,3.53,4,0,0,1.94-19.15-24.48-23.83a56.07,56.07,0,0,1,6-5.26s-5.26-.43-7.85.36-3.74,1.3-4.39,2-.94,1.37-1.94,1.66a26,26,0,0,0-3.6.29c-.58.07-3.6.29-6.34.5Zm-1.8,2.45a6.6,6.6,0,0,0-1,.79l-1.15,1.15.58-3.1a1.35,1.35,0,0,1,1.08-.86,11.8,11.8,0,0,1,2.3-.43v-3.67c-2.16.14-4.18.36-4.68.43-1.15.14-3,.72-2.66,2.38a2.36,2.36,0,0,1-.72,2.3s-9,1.8-9.94,2.09-1.22,1.3-.94,2.52a94.42,94.42,0,0,0,3.89,9.14,4,4,0,0,1,2.23-1.8c1.51-.43,6.91-.94,7.85-.22s1.87,3,2.16,4.61.22,3.82-.65,4.18-5.9,1.22-6.41,1.22a5,5,0,0,1-2.66-1.22l1.37,12a7.92,7.92,0,0,1,4.82-3.6c1.51-.5,4-1,6.34-1.58V298.66l-1.8,1Zm1.8,28.22V390.6a24.28,24.28,0,0,1-2.88-3.6,20.54,20.54,0,0,1-3.31-11.09A16,16,0,0,0,282,379.8c-2.38,2.66-4.54,5-4.54,5A22.34,22.34,0,0,1,267,391.18c.58-.22,1.94-3.46,1.94-3.46-4.39,2.88-11.3,2.88-11.3,2.88a5.72,5.72,0,0,0,3-2.66c-2.16,1-5.9.5-5.9.5-2.38,3.67-7.27,3.24-7.27,3.24a3,3,0,0,0-.22,3.31,6.29,6.29,0,0,1-4.54-5.11c-2.3-.72-3-3.53-3-3.53-2.59-.65-3.46,2-3.46,2-2.16-3.31.94-5.9.94-5.9-1.3-3.1.36-4.9.36-4.9-.94-1.94-3.6-.94-3.6-.94,2.3-4.61,6.41-2.66,6.41-2.66a3.8,3.8,0,0,1,2.59-1.15c1.44.07,6.19,2.66,9.58,3.46,4.39.94,7.2.72,10.87-1.58a16.39,16.39,0,0,0,4.32-4.1A5.47,5.47,0,0,1,265,370c4.32-1,10.08-9.94,10.08-9.94,2.66-4.9,8.71-6.91,8.71-6.91-10,1.66-12.38,8.14-12.38,8.14-.14-23.47,15.26-31,23-33.41Zm0,69.77v46c-4.46,1-8.06,4.1-10.22,6.34a7.35,7.35,0,0,1-6,2,2.53,2.53,0,0,0-.43,2.81c-5-3-3.46-6-3.46-6-3.53-.14-4.46-1.94-4.46-1.94a2.76,2.76,0,0,0-3,1.87c-1.58-5.83,1.8-6.62,1.8-6.62a7.79,7.79,0,0,1,1-4.75c-1.44-1.58-3.53-.29-3.53-.29.72-4.32,5-3.89,5-3.89.79-1.58,1.66-2.38,4.18-2.16,2,.22,7.85,3,10.87,3,1.58,0,3-1.44,3.24-3.89s-1.44-5-3.46-9.72-1.3-7.49-1.3-7.49a5.79,5.79,0,0,0-2.45,5C278.28,405.14,286.06,399.1,294.34,397.66Z" transform="translate(-123.7 -183.46)" fill="#ca0139" fill-rule="evenodd"/><path d="M278.64,340.27l-3,9.65-4.32,11.38c-4.18-8.86-9.07-10.94-9.07-10.94-.22,3.38-1.58,4-1.58,4-4.9-14.62-10.58-21.24-12.46-23.47s-4.46-3.24-5.47-3a12.28,12.28,0,0,1-5.33.58,4.66,4.66,0,0,1-3.53-2.3c-2.38-.72-3.24.79-3.24.79a3.35,3.35,0,0,1,2.59-4.39,4.22,4.22,0,0,1,1.15-2.66,6.5,6.5,0,0,1-.07-4,3.88,3.88,0,0,0-3.89-.58c2.09-4.82,6.34-3,6.34-3,1.3-1.8,4.25-2.23,4.25-2.23a2.71,2.71,0,0,0-1.73-2.38c2.38-2.09,5,.36,5,.36.43-.58,3.17-.72,4.61,1.37a50.74,50.74,0,0,1,2.66,5,19.37,19.37,0,0,0,1.73,3.24,35,35,0,0,1,4,4.54,76.77,76.77,0,0,1,4.32,7.42c1.8,3.38,1.87,4.1,4.32,5.62S273.67,340,278.64,340.27Z" transform="translate(-123.7 -183.46)" fill="#ca0139" fill-rule="evenodd"/><path d="M265.75,342.72a5.47,5.47,0,0,1,.07-3.38s4.1,2.23,11.3.79h0c-4.54-.79-9-3.53-11.16-5-2.45-1.51-2.52-2.23-4.32-5.62a76.77,76.77,0,0,0-4.32-7.42,35,35,0,0,0-4-4.54,44.34,44.34,0,0,1,3.24,7.34C257.83,328.9,260.14,337.1,265.75,342.72Z" transform="translate(-123.7 -183.46)" fill="#63012f" fill-rule="evenodd"/><path d="M336.67,427.25c2.38,5,10,3.53,10,3.53-3.38-.65-5.83-1.94-6.55-4.82s1.15-5.33,2-6.7,4.61-5.83,4-12.38c-.58,4.68-2.59,7.42-6.41,10.08C338.18,418.1,334.08,421.78,336.67,427.25Z" transform="translate(-123.7 -183.46)" fill="#63012f" fill-rule="evenodd"/><path d="M302.9,322.2s-.86,3.53-5.76,4.82c-3.89,1-14.54,4.1-20.88,14.47,0,0,6.12-7.63,14.54-10.87C298.22,327.74,302.76,327.46,302.9,322.2Z" transform="translate(-123.7 -183.46)" fill="#63012f" fill-rule="evenodd"/><path d="M314.42,299.81s21.31,9.07,23.4,35.86c1.22-5.26,1-12.67-4.39-21.89C333.43,313.78,323.5,302.4,314.42,299.81Z" transform="translate(-123.7 -183.46)" fill="#63012f" fill-rule="evenodd"/><path d="M337,368.57h0c-9.5-4.39-10.15-10.37-9.43-15,.58-3.53,2.59-6.41,4-9.43s1.3-7.7,1.3-7.7-1.37-11.38-10.73-15c0,0,4.1,5,4.1,10.58s-1.08,8.28-3.6,12.6S316.3,366,337,368.57Z" transform="translate(-123.7 -183.46)" fill="#63012f" fill-rule="evenodd"/><path d="M318.38,409a17.21,17.21,0,0,0-14,9.22s-6,1.66-7.7,9.58S300.89,441,300.89,441a25,25,0,0,1-4-1.44,27.35,27.35,0,0,0,4.1,3.6s6.84,4.32,13.1,1.87c0,0-4.46-.86-6-3.46a4.67,4.67,0,0,0,2.09-.43s-6.91-1.73-8.06-8.86,2.23-10.3,4.68-11.3C306.79,421,307.73,413.14,318.38,409Z" transform="translate(-123.7 -183.46)" fill="#63012f" fill-rule="evenodd"/><path d="M271.73,316.3s2.81,1.37,4.75.58,3.24-3.1,5.4-3.74,4.9.65,5.76,1.44c0,0-3.6.07-5.47,2S275.18,321.62,271.73,316.3Z" transform="translate(-123.7 -183.46)" fill="#31994e" fill-rule="evenodd"/><path d="M387.72,338.11s-3-3.46-4.75-4.18c0,0,4.25,4.39,3.38,12.24s-4,15.84-4,19.15.94,12.1,6.91,15.55c0,0-30.1-10.94-19.22-37.37,0,0-3.89,2.81-6.77,3.24,0,0,5.9-7.92,7.13-13.39s.5-13-4.39-15-13.32,3.17-12.38,17.64a6.1,6.1,0,0,1,4.9-3.1s-5.83,4.75-3.17,15.48,8.64,19.73,9.86,28.87S362.52,400,344.09,403.7L341.28,399s23.76-1.08,16.56-23.83a7.63,7.63,0,0,1,2.81,2.81s-4.18-11.74-7-18.58a65.41,65.41,0,0,1-4.18-24.62s-.58-15.77,10.94-19.87,16.7,1.08,17.71,2.45a18.44,18.44,0,0,0-4.61-.79S386.93,323.28,387.72,338.11Z" transform="translate(-123.7 -183.46)" fill="#ca0139" fill-rule="evenodd"/><path d="M366,313.42c7.63-1,11.3,2.74,12.17,3.89a18.44,18.44,0,0,0-4.61-.79s13.39,6.77,14.18,21.6c0,0-3-3.46-4.75-4.18,0,0,4.25,4.39,3.38,12.24s-4,15.84-4,19.15.94,12.1,6.91,15.55c0,0-17.71-6.12-15.55-28.94,0,0,.29,3.6,1.37,5a46.69,46.69,0,0,1,1.15-12c1.44-5.54,1.94-15.91-2-21.74a19.81,19.81,0,0,1,6.48,5s-3.82-10.94-15.77-12.6a13.58,13.58,0,0,1,4.9-.86S369,313.56,366,313.42Z" transform="translate(-123.7 -183.46)" fill="#63012f" fill-rule="evenodd"/><path d="M277.63,349.34a18.1,18.1,0,0,0-6.26,12s2.38-6.48,12.38-8.14c0,0,14.76-1.15,21-4.68s11.66-10,12.31-16.78-1.94-14.54-6.77-16.63c0,0,3.74,8.14-.79,16.2-3.38,6-7,8.71-14.62,10.8C294.91,342.07,284.11,343.94,277.63,349.34Z" transform="translate(-123.7 -183.46)" fill="#63012f" fill-rule="evenodd"/><path d="M334.08,388.66c-2.52-2.81-5.9-6.26-7.92-10.87s-1.73-7.06-1.73-7.06c-12.82-3.46-12.82-15.34-12.82-15.34S310.39,384.12,334.08,388.66Z" transform="translate(-123.7 -183.46)" fill="#63012f" fill-rule="evenodd"/><path d="M317.81,477.72s4.18-.58,5.26-4.54,1.73-11.88,7.85-15.26c0,0,9.36-4.61,14.69-7.34s7-5,10.44-10.37a19.38,19.38,0,0,0,3.17-10.58,17.76,17.76,0,0,1-6.12,3.67,6.67,6.67,0,0,0,3.1-.14,24.27,24.27,0,0,1-7.78,12.67c-6.62,5.76-16.7,11.81-27.07,14.11a5.94,5.94,0,0,0,2.52,1.73s-.29,1.51-.5,3.82-.22,5.69-4.68,8.28a2.7,2.7,0,0,1-2.45,1.08s-2.88,1.58.07,6.34A2.67,2.67,0,0,1,317.81,477.72Z" transform="translate(-123.7 -183.46)" fill="#63012f" fill-rule="evenodd"/><path d="M257.69,390.6s6.91,0,11.3-2.88c0,0-1.37,3.24-1.94,3.46a19.14,19.14,0,0,0,10.37-5.9s2.38-2.59,4.9-5a28.08,28.08,0,0,1,5.83-4.32,28.74,28.74,0,0,1,15.26-4,19.26,19.26,0,0,0-15.48,2.23A66.83,66.83,0,0,0,275.76,384a14.4,14.4,0,0,1-2.81,1.94,35,35,0,0,0,1.37-5S268.49,389.52,257.69,390.6Z" transform="translate(-123.7 -183.46)" fill="#63012f" fill-rule="evenodd"/><path d="M311.33,399.6A20.07,20.07,0,0,0,299.74,395a1.51,1.51,0,0,0,.43.29,21.89,21.89,0,0,1,2.81,2.38h0A37.81,37.81,0,0,1,311.33,399.6Z" transform="translate(-123.7 -183.46)" fill="#63012f" fill-rule="evenodd"/><path d="M238.25,307.22s3.38-1.8,5.47.14.14,3.24.14,3.24l-2.81-.58a1.74,1.74,0,0,0-.72-1.66A5.36,5.36,0,0,0,238.25,307.22Z" transform="translate(-123.7 -183.46)" fill="#31994e" fill-rule="evenodd"/><path d="M230.18,315.36s1.15-2.81,3.31-3.31a4.58,4.58,0,0,1,3.31.22,3.82,3.82,0,0,1,.43,2.16l-.14,1-2.74.43a4.67,4.67,0,0,0-2-.72A3.62,3.62,0,0,0,230.18,315.36Z" transform="translate(-123.7 -183.46)" fill="#31994e" fill-rule="evenodd"/><path d="M241.27,375.62a2.88,2.88,0,0,0-3.82-2.09,6.05,6.05,0,0,0-4,3.38s1.94-1,3-.29a5.47,5.47,0,0,0,1.58,1l2.52-.94Z" transform="translate(-123.7 -183.46)" fill="#31994e" fill-rule="evenodd"/><path d="M240.48,383.33s-1.73-2.09-3.17-.86c-4.1,3.38-.94,5.9-.94,5.9s1-2,2.16-2h1.3Z" transform="translate(-123.7 -183.46)" fill="#31994e" fill-rule="evenodd"/><path d="M242.78,389.88a6.58,6.58,0,0,0,1.51,3.53,5.92,5.92,0,0,0,3,1.58,2.75,2.75,0,0,1-.14-2.23c.43-.94.72-1.66.72-1.66a3.26,3.26,0,0,1-1.58-1.51c-.43-1-.29-1.22-.29-1.22a4.67,4.67,0,0,0-2.16.29A2.37,2.37,0,0,0,242.78,389.88Z" transform="translate(-123.7 -183.46)" fill="#31994e" fill-rule="evenodd"/><path d="M272.66,434.23c-.43-.72-2.16-2.09-5-.5s-2.16,3.82-2.16,3.82,1.87-1.22,2.81-.72a8.55,8.55,0,0,1,1.08.79,1.68,1.68,0,0,1,1.37-.72,6.66,6.66,0,0,1,1.87.14A6.78,6.78,0,0,0,272.66,434.23Z" transform="translate(-123.7 -183.46)" fill="#31994e" fill-rule="evenodd"/><path d="M271.66,443.09s-1.73-2.16-3.74-.94a5.08,5.08,0,0,0-2.16,4.32,9,9,0,0,0,.79,2.81s.5-1.8,1.58-2.16a4.07,4.07,0,0,1,1.58-.29,3.19,3.19,0,0,1,.65-2.23C271,443.88,271.66,443.09,271.66,443.09Z" transform="translate(-123.7 -183.46)" fill="#31994e" fill-rule="evenodd"/><path d="M277.85,451.58a1.66,1.66,0,0,1-.36-.5,7.82,7.82,0,0,1-.36-1,2.76,2.76,0,0,1,.07-2c-.94-.07-4-.22-3.6,2.81s4,4,4,4-.5-1.73.07-2.38c.29-.29.43-.43.5-.43A2.74,2.74,0,0,1,277.85,451.58Z" transform="translate(-123.7 -183.46)" fill="#31994e" fill-rule="evenodd"/><path d="M308.45,459.43s-1.15-1.94-2.88-1.58c-4.32.86-4,5.62-4,5.62a6.44,6.44,0,0,1,3-1.22,3.33,3.33,0,0,1,1.44,0,3.22,3.22,0,0,1,.94-2.09C307.94,459.14,308.45,459.43,308.45,459.43Z" transform="translate(-123.7 -183.46)" fill="#31994e" fill-rule="evenodd"/><path d="M308.66,467.06s-3-1.8-4.68,1.3c-1.51,2.88-.14,4.18.22,4.9a4.21,4.21,0,0,0,.94,1,2.48,2.48,0,0,1,.79-1.66,3.34,3.34,0,0,1,1.8-1.3,4.92,4.92,0,0,1-.07-2.3A2.84,2.84,0,0,1,308.66,467.06Z" transform="translate(-123.7 -183.46)" fill="#31994e" fill-rule="evenodd"/><path d="M313.06,476.06a2.51,2.51,0,0,0-.22,2.3c.5,1.87,3.67,3,3.67,3s-.72-1.94.29-2.81a1.29,1.29,0,0,0,.43-.5l-.65-.29a1.35,1.35,0,0,1-.94-1.22,2.62,2.62,0,0,1,.65-1.73S313.92,474.7,313.06,476.06Z" transform="translate(-123.7 -183.46)" fill="#31994e" fill-rule="evenodd"/><path d="M234.79,323.21c-.43-.36-1.15-.79-1.51-.65,0,0-2.38.58-3,1.94a5.26,5.26,0,0,0-.22,3.1A6.79,6.79,0,0,1,232.2,326a4.08,4.08,0,0,1,1.73.14s-.22-.86.22-1.3a6.49,6.49,0,0,0,.72-.65c.14-.22.36-.36.22-.65C235.08,323.5,234.94,323.35,234.79,323.21Z" transform="translate(-123.7 -183.46)" fill="#31994e" fill-rule="evenodd"/><path d="M340.49,275l-3.31-10.94a25.68,25.68,0,0,0,18.14,0L352.08,275l-5.83-.5Z" transform="translate(-123.7 -183.46)" fill="#63012f" fill-rule="evenodd"/><path d="M354.74,279.22c0,3.89-3.82,7.06-8.5,7.06s-8.5-3.17-8.5-7.06,3.82-7,8.5-7S354.74,275.33,354.74,279.22Z" transform="translate(-123.7 -183.46)" fill="#31994e" fill-rule="evenodd"/><rect x="221.26" y="95.54" width="2.59" height="10.08" fill="#31994e"/><path d="M346.18,289.08h0Z" transform="translate(-123.7 -183.46)" fill="#45ab47" fill-rule="evenodd"/><path d="M360.86,283.46A9.57,9.57,0,0,0,362.3,280a9,9,0,0,0-.07-3.67,8.07,8.07,0,0,0-6.34-6,10,10,0,0,1,3,4.61,10.39,10.39,0,0,1,.07,4.46,2.76,2.76,0,0,0-1.22-1.51,2.48,2.48,0,0,0-1.15-.36,9.45,9.45,0,0,1-.86,5.4,9.88,9.88,0,0,1-7.92,5.69,4.21,4.21,0,0,1-.94.14v.07h-1.3v-.07a3.61,3.61,0,0,1-.86-.14,10,10,0,0,1-8-5.69,10.09,10.09,0,0,1-.86-5.4,2.27,2.27,0,0,0-1.08.36,2.76,2.76,0,0,0-1.22,1.51,9.38,9.38,0,0,1,.07-4.46,9,9,0,0,1,3-4.61,8.07,8.07,0,0,0-6.34,6,7.92,7.92,0,0,0-.07,3.67,7.57,7.57,0,0,0,1.44,3.46,4.05,4.05,0,0,0-3,1.66,3.76,3.76,0,0,1,1.51-.29h.43a4,4,0,0,1,1.22.22,20.19,20.19,0,0,1,3.31,1.94,15.93,15.93,0,0,0,3.74,1.8,22.21,22.21,0,0,0,14.54,0,14.7,14.7,0,0,0,3.74-1.8,23.91,23.91,0,0,1,3.31-1.94,4.08,4.08,0,0,1,1.3-.22h.36a4.35,4.35,0,0,1,1.58.29A4.05,4.05,0,0,0,360.86,283.46Z" transform="translate(-123.7 -183.46)" fill="#31994e" fill-rule="evenodd"/><path d="M404.28,298.94,401,288a23.15,23.15,0,0,0,9.07,1.66,23.59,23.59,0,0,0,9.07-1.66l-3.31,10.94-5.76-.5Z" transform="translate(-123.7 -183.46)" fill="#63012f" fill-rule="evenodd"/><path d="M418.54,303.12c0,3.89-3.74,7.06-8.42,7.06s-8.5-3.17-8.5-7.06,3.82-7,8.5-7S418.54,299.3,418.54,303.12Z" transform="translate(-123.7 -183.46)" fill="#31994e" fill-rule="evenodd"/><rect x="285.12" y="119.45" width="2.59" height="10.15" fill="#31994e"/><path d="M410,313.06h0Z" transform="translate(-123.7 -183.46)" fill="#45ab47" fill-rule="evenodd"/><path d="M424.66,307.37a8.21,8.21,0,0,0,1.51-3.46,7.59,7.59,0,0,0-.14-3.6,8.05,8.05,0,0,0-6.26-6,9.19,9.19,0,0,1,3,4.68,9.37,9.37,0,0,1,.14,4.46,3.84,3.84,0,0,0-1.3-1.58,6.17,6.17,0,0,0-1.08-.36,10.06,10.06,0,0,1-8.78,11.16c-.36,0-.65.07-.94.07v.07h-1.3v-.07c-.29,0-.58-.07-.94-.07a10.06,10.06,0,0,1-8.78-11.16,6.17,6.17,0,0,0-1.08.36,3.18,3.18,0,0,0-1.22,1.58,8.54,8.54,0,0,1,.07-4.46,9.19,9.19,0,0,1,3-4.68,8.16,8.16,0,0,0-6.26,6,6.78,6.78,0,0,0-.07,3.6,7.27,7.27,0,0,0,1.44,3.46,4.31,4.31,0,0,0-3,1.66,11.18,11.18,0,0,1,1.51-.29h.36l1.3.22a28,28,0,0,1,3.31,1.94,18.14,18.14,0,0,0,3.74,1.87,22.21,22.21,0,0,0,14.54,0,18.14,18.14,0,0,0,3.74-1.87,28,28,0,0,1,3.31-1.94l1.3-.22h.36a11.18,11.18,0,0,1,1.51.29A4.18,4.18,0,0,0,424.66,307.37Z" transform="translate(-123.7 -183.46)" fill="#31994e" fill-rule="evenodd"/><path d="M412.92,352.94l-3.24-11a22.33,22.33,0,0,0,9.07,1.73,22.76,22.76,0,0,0,9.07-1.73l-3.31,11-5.76-.58Z" transform="translate(-123.7 -183.46)" fill="#63012f" fill-rule="evenodd"/><path d="M427.18,357.12c0,3.89-3.74,7.06-8.42,7.06s-8.5-3.17-8.5-7.06,3.82-7,8.5-7S427.18,353.23,427.18,357.12Z" transform="translate(-123.7 -183.46)" fill="#31994e" fill-rule="evenodd"/><rect x="293.76" y="173.38" width="2.59" height="10.15" fill="#31994e"/><path d="M418.61,367h0Z" transform="translate(-123.7 -183.46)" fill="#45ab47" fill-rule="evenodd"/><path d="M433.3,361.37a7.57,7.57,0,0,0,1.44-3.46,7.06,7.06,0,0,0-.07-3.67,8.08,8.08,0,0,0-6.26-6,9,9,0,0,1,3,4.61,8.55,8.55,0,0,1,.07,4.46,2.76,2.76,0,0,0-1.22-1.51,2.07,2.07,0,0,0-1.08-.36,10.09,10.09,0,0,1-.86,5.4,10,10,0,0,1-8,5.69,3.61,3.61,0,0,1-.86.14v.07h-1.3v-.07a4.21,4.21,0,0,1-.94-.14,10,10,0,0,1-7.92-5.69,10.09,10.09,0,0,1-.86-5.4,2.07,2.07,0,0,0-1.08.36,3.27,3.27,0,0,0-1.3,1.51,9.4,9.4,0,0,1,.14-4.46,9,9,0,0,1,3-4.61,8.32,8.32,0,0,0-6.41,9.65,8.62,8.62,0,0,0,1.51,3.46,4.07,4.07,0,0,0-3,1.58,5.48,5.48,0,0,1,1.51-.22h.36a4.08,4.08,0,0,1,1.3.22,23.91,23.91,0,0,1,3.31,1.94,14.7,14.7,0,0,0,3.74,1.8,20.23,20.23,0,0,0,7.27,1.22A20.51,20.51,0,0,0,426,366.7a15.93,15.93,0,0,0,3.74-1.8,20.19,20.19,0,0,1,3.31-1.94,4.08,4.08,0,0,1,1.3-.22h.36a5.48,5.48,0,0,1,1.51.22A4.2,4.2,0,0,0,433.3,361.37Z" transform="translate(-123.7 -183.46)" fill="#31994e" fill-rule="evenodd"/><path d="M389,411,385.78,400a25.68,25.68,0,0,0,18.14,0L400.61,411l-5.76-.5Z" transform="translate(-123.7 -183.46)" fill="#63012f" fill-rule="evenodd"/><path d="M403.34,415.22c0,3.82-3.82,7-8.5,7s-8.5-3.17-8.5-7,3.82-7.06,8.5-7.06S403.34,411.34,403.34,415.22Z" transform="translate(-123.7 -183.46)" fill="#31994e" fill-rule="evenodd"/><rect x="269.86" y="231.48" width="2.59" height="10.15" fill="#31994e"/><path d="M394.78,425.09h0Z" transform="translate(-123.7 -183.46)" fill="#45ab47" fill-rule="evenodd"/><path d="M409.39,419.4a8.21,8.21,0,0,0,1.51-3.46,7.63,7.63,0,0,0-.14-3.6,8.05,8.05,0,0,0-6.26-6,9.19,9.19,0,0,1,3,4.68,9.35,9.35,0,0,1,.14,4.46,3.84,3.84,0,0,0-1.3-1.58,6.17,6.17,0,0,0-1.08-.36,9.45,9.45,0,0,1-.86,5.4,10.07,10.07,0,0,1-7.92,5.76,3.65,3.65,0,0,0-.94.14h0a3,3,0,0,1-1.3,0h0a3.65,3.65,0,0,0-.94-.14,10.06,10.06,0,0,1-8.78-11.16,6.17,6.17,0,0,0-1.08.36,3.18,3.18,0,0,0-1.22,1.58,8.53,8.53,0,0,1,.07-4.46,9.19,9.19,0,0,1,3-4.68,8.16,8.16,0,0,0-6.26,6,6.79,6.79,0,0,0-.07,3.6,7.27,7.27,0,0,0,1.44,3.46,4.31,4.31,0,0,0-3,1.66,11.18,11.18,0,0,1,1.51-.29h.36l1.3.22a23,23,0,0,1,3.31,2,21.94,21.94,0,0,0,3.74,1.8,22.21,22.21,0,0,0,14.54,0,21.94,21.94,0,0,0,3.74-1.8,23,23,0,0,1,3.31-2l1.3-.22h.36a11.18,11.18,0,0,1,1.51.29A4.18,4.18,0,0,0,409.39,419.4Z" transform="translate(-123.7 -183.46)" fill="#31994e" fill-rule="evenodd"/><path d="M353.23,465l-3.31-10.94a23.59,23.59,0,0,0,9.07,1.66,23.15,23.15,0,0,0,9.07-1.66L364.82,465l-5.83-.5Z" transform="translate(-123.7 -183.46)" fill="#63012f" fill-rule="evenodd"/><path d="M367.49,469.22c0,3.89-3.82,7.06-8.5,7.06s-8.42-3.17-8.42-7.06,3.74-7,8.42-7S367.49,465.41,367.49,469.22Z" transform="translate(-123.7 -183.46)" fill="#31994e" fill-rule="evenodd"/><rect x="234" y="285.55" width="2.59" height="10.08" fill="#31994e"/><path d="M358.92,479.09h0Z" transform="translate(-123.7 -183.46)" fill="#45ab47" fill-rule="evenodd"/><path d="M373.61,473.47A8.07,8.07,0,0,0,375,470a7.92,7.92,0,0,0-.07-3.67,8.17,8.17,0,0,0-6.34-6,8.86,8.86,0,0,1,3,4.68,10.36,10.36,0,0,1,.07,4.46,2.9,2.9,0,0,0-1.22-1.58,3.63,3.63,0,0,0-1.08-.36,10.09,10.09,0,0,1-.86,5.4,9.94,9.94,0,0,1-8,5.69,3.61,3.61,0,0,1-.86.14v.07h-1.3v-.07a3.65,3.65,0,0,1-.94-.14,9.73,9.73,0,0,1-7.92-5.69,9.5,9.5,0,0,1-.94-5.4,4.42,4.42,0,0,0-1.08.36,2.9,2.9,0,0,0-1.22,1.58,10.36,10.36,0,0,1,.07-4.46,9.31,9.31,0,0,1,3-4.68,8.17,8.17,0,0,0-6.34,6,9,9,0,0,0,1.37,7.13,4.31,4.31,0,0,0-3,1.66,12.21,12.21,0,0,1,1.58-.29h.36a3.66,3.66,0,0,1,1.22.22A23,23,0,0,1,348,477a20.11,20.11,0,0,0,3.74,1.87,22.72,22.72,0,0,0,7.34,1.22,21.82,21.82,0,0,0,7.2-1.22,18.56,18.56,0,0,0,3.82-1.87,23,23,0,0,1,3.31-1.94,3.66,3.66,0,0,1,1.22-.22H375a12.21,12.21,0,0,1,1.58.29A4.31,4.31,0,0,0,373.61,473.47Z" transform="translate(-123.7 -183.46)" fill="#31994e" fill-rule="evenodd"/><path d="M300.1,507.24l-3.24-11a24.49,24.49,0,0,0,18.07,0l-3.31,11-5.69-.58Z" transform="translate(-123.7 -183.46)" fill="#63012f" fill-rule="evenodd"/><path d="M314.35,511.42c0,3.89-3.82,7.06-8.42,7.06s-8.5-3.17-8.5-7.06,3.82-7.06,8.5-7.06S314.35,507.53,314.35,511.42Z" transform="translate(-123.7 -183.46)" fill="#31994e" fill-rule="evenodd"/><rect x="180.94" y="327.67" width="2.52" height="10.15" fill="#31994e"/><path d="M305.86,521.28h0Z" transform="translate(-123.7 -183.46)" fill="#45ab47" fill-rule="evenodd"/><path d="M320.4,515.66a8.9,8.9,0,0,0,1.51-3.53,8.69,8.69,0,0,0-.07-3.6,8.07,8.07,0,0,0-6.34-6,9,9,0,0,1,3,4.61,9.4,9.4,0,0,1,.14,4.46,2.76,2.76,0,0,0-1.22-1.51,2.48,2.48,0,0,0-1.15-.36,9.45,9.45,0,0,1-.86,5.4,10.14,10.14,0,0,1-7.92,5.69c-.29.07-.65.07-.94.14v.07h-1.22V521c-.29-.07-.58-.07-.94-.14a10,10,0,0,1-8.78-11.09,2.27,2.27,0,0,0-1.08.36,2.76,2.76,0,0,0-1.22,1.51,8.55,8.55,0,0,1,.07-4.46,8.68,8.68,0,0,1,3-4.61,8.07,8.07,0,0,0-6.34,6,6.8,6.8,0,0,0-.07,3.6,7.83,7.83,0,0,0,1.44,3.53,4.2,4.2,0,0,0-3,1.58,5.48,5.48,0,0,1,1.51-.22h.36a4.08,4.08,0,0,1,1.3.22,20.19,20.19,0,0,1,3.31,1.94,17.6,17.6,0,0,0,3.74,1.8,22,22,0,0,0,14.47,0,14.7,14.7,0,0,0,3.74-1.8,23.91,23.91,0,0,1,3.31-1.94,4.08,4.08,0,0,1,1.3-.22h.36a6.42,6.42,0,0,1,1.58.22A4.21,4.21,0,0,0,320.4,515.66Z" transform="translate(-123.7 -183.46)" fill="#31994e" fill-rule="evenodd"/><path d="M247.61,465.7l-3.31-10.94a23.59,23.59,0,0,0,9.07,1.66,23.15,23.15,0,0,0,9.07-1.66L259.2,465.7l-5.83-.5Z" transform="translate(-123.7 -183.46)" fill="#63012f" fill-rule="evenodd"/><path d="M261.86,469.87c0,3.89-3.82,7.06-8.5,7.06s-8.42-3.17-8.42-7.06,3.74-7,8.42-7S261.86,466,261.86,469.87Z" transform="translate(-123.7 -183.46)" fill="#31994e" fill-rule="evenodd"/><rect x="128.38" y="286.2" width="2.59" height="10.08" fill="#31994e"/><path d="M253.3,479.74h0Z" transform="translate(-123.7 -183.46)" fill="#45ab47" fill-rule="evenodd"/><path d="M268,474.12a7.57,7.57,0,0,0,1.44-3.46,7.92,7.92,0,0,0-.07-3.67,8.07,8.07,0,0,0-6.34-6,9,9,0,0,1,3,4.61,10.39,10.39,0,0,1,.07,4.46,3,3,0,0,0-1.22-1.51,2.27,2.27,0,0,0-1.08-.36A10,10,0,0,1,255,479.3c-.29.07-.58.07-.86.14v.07h-1.3v-.07c-.36-.07-.65-.07-.94-.14a9.88,9.88,0,0,1-7.92-5.69,9.45,9.45,0,0,1-.86-5.4,2.48,2.48,0,0,0-1.15.36,3,3,0,0,0-1.22,1.51,10.39,10.39,0,0,1,.07-4.46,10,10,0,0,1,3-4.61,8.07,8.07,0,0,0-6.34,6,9,9,0,0,0-.07,3.67,9.57,9.57,0,0,0,1.44,3.46,4.05,4.05,0,0,0-3,1.66,4.1,4.1,0,0,1,1.58-.29h.36a4.08,4.08,0,0,1,1.3.22,20.79,20.79,0,0,1,3.24,1.94,17.39,17.39,0,0,0,3.74,1.8,20.93,20.93,0,0,0,7.34,1.22,20.1,20.1,0,0,0,7.2-1.22,15.06,15.06,0,0,0,3.82-1.8,17.51,17.51,0,0,1,3.31-1.94,4,4,0,0,1,1.22-.22h.43a3.76,3.76,0,0,1,1.51.29A4.05,4.05,0,0,0,268,474.12Z" transform="translate(-123.7 -183.46)" fill="#31994e" fill-rule="evenodd"/><path d="M212.11,411,208.8,400a23.59,23.59,0,0,0,9.07,1.66,23.15,23.15,0,0,0,9.07-1.66L223.7,411l-5.83-.5Z" transform="translate(-123.7 -183.46)" fill="#63012f" fill-rule="evenodd"/><path d="M226.37,415.15c0,3.89-3.82,7.06-8.5,7.06s-8.5-3.17-8.5-7.06,3.82-7,8.5-7S226.37,411.34,226.37,415.15Z" transform="translate(-123.7 -183.46)" fill="#31994e" fill-rule="evenodd"/><rect x="92.88" y="231.48" width="2.59" height="10.15" fill="#31994e"/><path d="M217.8,425.09h0Z" transform="translate(-123.7 -183.46)" fill="#45ab47" fill-rule="evenodd"/><path d="M232.49,419.4a9.07,9.07,0,0,0,1.44-3.46,8.67,8.67,0,0,0-.07-3.6,8.15,8.15,0,0,0-6.34-6,9.81,9.81,0,0,1,3,4.68,10.36,10.36,0,0,1,.07,4.46,3.18,3.18,0,0,0-1.22-1.58,9.06,9.06,0,0,0-1.15-.36,9.45,9.45,0,0,1-.86,5.4,10.07,10.07,0,0,1-7.92,5.76,4.21,4.21,0,0,0-.94.14h-1.3a3.61,3.61,0,0,0-.86-.14,10.05,10.05,0,0,1-8.86-11.16,9.08,9.08,0,0,0-1.08.36,3.18,3.18,0,0,0-1.22,1.58,9.35,9.35,0,0,1,.07-4.46,8.86,8.86,0,0,1,3-4.68,8.15,8.15,0,0,0-6.34,6,7.61,7.61,0,0,0-.07,3.6,7.27,7.27,0,0,0,1.44,3.46,4.31,4.31,0,0,0-3,1.66,11.18,11.18,0,0,1,1.51-.29h.43l1.22.22a19.54,19.54,0,0,1,3.31,2,24.86,24.86,0,0,0,3.74,1.8,20.8,20.8,0,0,0,7.27,1.22,20.23,20.23,0,0,0,7.27-1.22,21.94,21.94,0,0,0,3.74-1.8,28.06,28.06,0,0,1,3.31-2l1.3-.22h.36a14.9,14.9,0,0,1,1.58.29A4.31,4.31,0,0,0,232.49,419.4Z" transform="translate(-123.7 -183.46)" fill="#31994e" fill-rule="evenodd"/><path d="M187.92,352.94l-3.31-11a24.68,24.68,0,0,0,18.14,0l-3.24,11-5.83-.58Z" transform="translate(-123.7 -183.46)" fill="#63012f" fill-rule="evenodd"/><path d="M202.18,357.12c0,3.89-3.82,7.06-8.5,7.06s-8.5-3.17-8.5-7.06,3.82-7,8.5-7S202.18,353.23,202.18,357.12Z" transform="translate(-123.7 -183.46)" fill="#31994e" fill-rule="evenodd"/><rect x="68.69" y="173.38" width="2.59" height="10.15" fill="#31994e"/><path d="M193.61,367h0Z" transform="translate(-123.7 -183.46)" fill="#45ab47" fill-rule="evenodd"/><path d="M208.22,361.37a8.62,8.62,0,0,0,1.51-3.46,9,9,0,0,0-.07-3.67,8.07,8.07,0,0,0-6.34-6,9,9,0,0,1,3,4.61,9.4,9.4,0,0,1,.14,4.46,2.76,2.76,0,0,0-1.22-1.51,2.48,2.48,0,0,0-1.15-.36,9.45,9.45,0,0,1-.86,5.4,10,10,0,0,1-7.92,5.69,4.21,4.21,0,0,1-.94.14v.07H193v-.07a5,5,0,0,1-.94-.14,10,10,0,0,1-7.92-5.69,10.09,10.09,0,0,1-.86-5.4,2.27,2.27,0,0,0-1.08.36,2.76,2.76,0,0,0-1.22,1.51,8.55,8.55,0,0,1,.07-4.46,8.68,8.68,0,0,1,3-4.61,8.07,8.07,0,0,0-6.34,6,7.06,7.06,0,0,0-.07,3.67,7.57,7.57,0,0,0,1.44,3.46,4.2,4.2,0,0,0-3,1.58,5.48,5.48,0,0,1,1.51-.22h.43a4,4,0,0,1,1.22.22,20.19,20.19,0,0,1,3.31,1.94,14.7,14.7,0,0,0,3.74,1.8,22.21,22.21,0,0,0,14.54,0,14.7,14.7,0,0,0,3.74-1.8A23.91,23.91,0,0,1,208,363a4.08,4.08,0,0,1,1.3-.22h.36a6.42,6.42,0,0,1,1.58.22A4.34,4.34,0,0,0,208.22,361.37Z" transform="translate(-123.7 -183.46)" fill="#31994e" fill-rule="evenodd"/><path d="M196.34,299.23l-3.24-10.94a23.15,23.15,0,0,0,9.07,1.66,23.59,23.59,0,0,0,9.07-1.66l-3.31,10.94-5.76-.5Z" transform="translate(-123.7 -183.46)" fill="#63012f" fill-rule="evenodd"/><path d="M210.67,303.41c0,3.89-3.82,7.06-8.5,7.06s-8.5-3.17-8.5-7.06,3.82-7,8.5-7S210.67,299.52,210.67,303.41Z" transform="translate(-123.7 -183.46)" fill="#31994e" fill-rule="evenodd"/><rect x="77.18" y="119.74" width="2.59" height="10.08" fill="#31994e"/><path d="M202.1,313.27h0Z" transform="translate(-123.7 -183.46)" fill="#45ab47" fill-rule="evenodd"/><path d="M216.72,307.66a8.62,8.62,0,0,0,1.51-3.46,8.32,8.32,0,0,0-6.41-9.65,9.29,9.29,0,0,1,3,4.61,9.4,9.4,0,0,1,.14,4.46,3.66,3.66,0,0,0-1.3-1.51,2.07,2.07,0,0,0-1.08-.36,10.09,10.09,0,0,1-.86,5.4,10,10,0,0,1-7.92,5.69,5,5,0,0,1-.94.14v.07h-1.3V313a5,5,0,0,1-.94-.14,10,10,0,0,1-7.92-5.69,10.09,10.09,0,0,1-.86-5.4,2.07,2.07,0,0,0-1.08.36,3,3,0,0,0-1.22,1.51,8.55,8.55,0,0,1,.07-4.46,9.29,9.29,0,0,1,3-4.61,8.08,8.08,0,0,0-6.26,6,7.06,7.06,0,0,0-.07,3.67,7.57,7.57,0,0,0,1.44,3.46,4.05,4.05,0,0,0-3,1.66,5.61,5.61,0,0,1,1.51-.29h.36a4.08,4.08,0,0,1,1.3.22,28,28,0,0,1,3.31,1.94,14.7,14.7,0,0,0,3.74,1.8,20.18,20.18,0,0,0,7.27,1.3,21.93,21.93,0,0,0,7.27-1.22,18.14,18.14,0,0,0,3.74-1.87,28,28,0,0,1,3.31-1.94,4.08,4.08,0,0,1,1.3-.22h.36a5.61,5.61,0,0,1,1.51.29A3.93,3.93,0,0,0,216.72,307.66Z" transform="translate(-123.7 -183.46)" fill="#31994e" fill-rule="evenodd"/><path d="M260.21,275,257,264a23.15,23.15,0,0,0,9.07,1.66,23.59,23.59,0,0,0,9.07-1.66L271.8,275l-5.76-.5Z" transform="translate(-123.7 -183.46)" fill="#63012f" fill-rule="evenodd"/><path d="M274.46,279.14c0,3.89-3.74,7.06-8.42,7.06s-8.5-3.17-8.5-7.06,3.82-7,8.5-7S274.46,275.33,274.46,279.14Z" transform="translate(-123.7 -183.46)" fill="#31994e" fill-rule="evenodd"/><rect x="141.05" y="95.47" width="2.59" height="10.08" fill="#31994e"/><path d="M265.9,289h0Z" transform="translate(-123.7 -183.46)" fill="#45ab47" fill-rule="evenodd"/><path d="M280.58,283.39a7.27,7.27,0,0,0,1.44-3.46,7.06,7.06,0,0,0-.07-3.67,8.17,8.17,0,0,0-6.34-6,8.86,8.86,0,0,1,3,4.68,8.53,8.53,0,0,1,.07,4.46,3.18,3.18,0,0,0-1.22-1.58,6.17,6.17,0,0,0-1.08-.36,10.09,10.09,0,0,1-.86,5.4,9.84,9.84,0,0,1-8,5.69,3.61,3.61,0,0,1-.86.14v.07h-1.3v-.07a4.21,4.21,0,0,1-.94-.14,9.84,9.84,0,0,1-7.92-5.69,9.45,9.45,0,0,1-.86-5.4,6.17,6.17,0,0,0-1.08.36,3.35,3.35,0,0,0-1.3,1.58,10.36,10.36,0,0,1,.07-4.46,9.81,9.81,0,0,1,3-4.68,8.32,8.32,0,0,0-6.41,9.65,8.21,8.21,0,0,0,1.51,3.46,4.45,4.45,0,0,0-3,1.66,14.9,14.9,0,0,1,1.58-.29h.36l1.3.22a35.86,35.86,0,0,1,3.31,1.94,18.14,18.14,0,0,0,3.74,1.87A21.93,21.93,0,0,0,266,290a22.26,22.26,0,0,0,7.27-1.22,20.11,20.11,0,0,0,3.74-1.87,28,28,0,0,1,3.31-1.94l1.3-.22H282a11.18,11.18,0,0,1,1.51.29A4.31,4.31,0,0,0,280.58,283.39Z" transform="translate(-123.7 -183.46)" fill="#31994e" fill-rule="evenodd"/><path d="M128.88,230.18v53.42c11.38-4.18,83.38-29.45,177.12-29.45s165.82,25.27,177.12,29.45V230.18c-7.92-3-81.29-29.66-177.12-29.66S136.87,227.16,128.88,230.18Z" transform="translate(-123.7 -183.46)" fill="#ffc211" fill-rule="evenodd"/><path d="M306,253.3c91,0,161.71,23.83,176.26,29.09V230.76C472,226.94,399.89,201.38,306,201.38v-4c101.81,0,178.2,29.88,179,30.17l1.3.5v60.19l-2.81-1.08c-.72-.29-76.46-29.88-177.48-29.88Zm0,0h0v4h0c-101,0-176.76,29.59-177.48,29.88l-2.81,1.08V228l1.3-.5c.79-.29,77.18-30.17,179-30.17h0v4h0c-93.89,0-166,25.56-176.26,29.38v51.62C144.29,277.13,215,253.3,306,253.3Z" transform="translate(-123.7 -183.46)" fill="#05173c" fill-rule="evenodd"/><path d="M180.14,232.06a15.47,15.47,0,0,0-6.55.14c-2.16.5-4.61,2.09-3.82,5.47,1.22,5.26,14.18-.22,16.63,10.08,1.58,6.77-3.1,10.58-9.29,12a28.78,28.78,0,0,1-8.14.72l-.79-5.69a15.2,15.2,0,0,0,7.42.22c2.3-.5,5.18-2.45,4.54-5.26-1.44-5.83-14.33-.22-16.7-10.37-1.66-6.84,3-10.58,8.42-11.88a23.35,23.35,0,0,1,7.63-.65Z" transform="translate(-123.7 -183.46)" fill="#05173c" fill-rule="evenodd"/><path d="M217.66,250.42a31.87,31.87,0,0,1-6.84,2.3c-10,1.87-17.93-1.87-19.94-12.31s3.38-17.78,13.9-19.8a22.36,22.36,0,0,1,7.27,0l.5,5.33a13,13,0,0,0-7-.36c-6.41,1.15-9.43,6.84-8.28,13.18s6,10.3,12.6,9.07a18.55,18.55,0,0,0,6.55-2.59Z" transform="translate(-123.7 -183.46)" fill="#05173c" fill-rule="evenodd"/><path d="M236.74,243.72c6.41-.86,8.06-6.84,7.34-12.53-.72-5-3.53-9.94-8.78-10.08v-5c8.57-.22,14.18,5.54,15.26,14.33,1.22,9.43-3.31,16.92-13.18,18.22l-2.09.22v-5A10.14,10.14,0,0,0,236.74,243.72Zm-1.44-22.61a10.63,10.63,0,0,0-1.51.07c-6.19.79-8,6.84-7.34,12.31.72,5.18,3.38,10.15,8.86,10.3v5c-8.78.22-14.18-5.54-15.34-14.47-1.3-9.58,3.24-16.78,13.18-18.07.72-.14,1.44-.14,2.16-.22Z" transform="translate(-123.7 -183.46)" fill="#05173c" fill-rule="evenodd"/><polygon points="139.54 35.21 130.54 35.86 130.18 30.89 154.51 29.09 154.87 34.06 145.87 34.7 147.82 61.2 141.48 61.7 139.54 35.21" fill="#05173c" fill-rule="evenodd"/><polygon points="167.04 33.7 158.04 33.91 157.9 28.94 182.3 28.3 182.38 33.26 173.38 33.48 174.1 60.05 167.76 60.26 167.04 33.7" fill="#05173c" fill-rule="evenodd"/><rect x="298.91" y="224.53" width="31.54" height="6.34" transform="translate(-40.28 356.31) rotate(-89.35)" fill="#05173c"/><path d="M343.8,218.81a16,16,0,0,0-6.34-1.73c-2.16-.07-5,.72-5.18,4.18-.29,5.47,13.68,3.82,13.1,14.4-.29,6.91-5.9,9.22-12.31,8.93a26.78,26.78,0,0,1-8-1.66l.86-5.62a15.17,15.17,0,0,0,7.06,2.3c2.38.07,5.62-.94,5.83-3.82.29-6-13.68-4.18-13.18-14.62.36-7.06,6-9.36,11.52-9.07a24.71,24.71,0,0,1,7.49,1.51Z" transform="translate(-123.7 -183.46)" fill="#05173c" fill-rule="evenodd"/><polygon points="231.41 30.31 237.67 30.96 236.38 43.63 248.9 44.93 250.27 32.26 256.54 32.9 253.3 64.3 246.96 63.65 248.4 49.9 235.8 48.53 234.36 62.28 228.1 61.63 231.41 30.31" fill="#05173c" fill-rule="evenodd"/><polygon points="280.73 36.58 298.01 39.67 297.14 44.57 286.06 42.55 284.69 50.18 295.2 52.13 294.34 57.02 283.82 55.08 281.38 68.69 275.11 67.61 280.73 36.58" fill="#05173c" fill-rule="evenodd"/><path d="M438.7,233.28h-.07l-2.88,4.54v-10l1-1.44,6.91,1.58,5,33.55-6.77-1.58-1.08-7.7-5-1.15V246l4.46,1.08Zm-3,4.54-4.54,7.13,4.54,1v5.11l-7.42-1.73-4.25,6.48-6.41-1.51,18.07-26.5Z" transform="translate(-123.7 -183.46)" fill="#05173c" fill-rule="evenodd"/></svg>