<svg xmlns="http://www.w3.org/2000/svg" xmlns:xlink="http://www.w3.org/1999/xlink" width="1080" zoomAndPan="magnify" viewBox="0 0 810 809.999993" height="1080" preserveAspectRatio="xMidYMid meet" version="1.0"><defs><clipPath id="365b99a73e"><path d="M 118.984375 0 L 691.234375 0 L 691.234375 810 L 118.984375 810 Z M 118.984375 0 " clip-rule="nonzero"/></clipPath></defs><g clip-path="url(#365b99a73e)"><path fill="#ae9943" d="M 691.234375 0.847656 L 118.984375 0.847656 L 118.984375 523.140625 C 118.996094 527.816406 119.125 532.492188 119.367188 537.164062 C 119.609375 541.832031 119.964844 546.496094 120.433594 551.148438 C 120.90625 555.800781 121.488281 560.441406 122.1875 565.066406 C 122.882812 569.691406 123.695312 574.296875 124.617188 578.882812 C 125.539062 583.46875 126.574219 588.027344 127.71875 592.5625 C 128.863281 597.097656 130.121094 601.601562 131.488281 606.074219 C 132.855469 610.546875 134.328125 614.984375 135.910156 619.386719 C 137.496094 623.785156 139.183594 628.148438 140.980469 632.464844 C 142.777344 636.785156 144.679688 641.054688 146.6875 645.28125 C 148.691406 649.507812 150.800781 653.679688 153.011719 657.804688 C 155.21875 661.925781 157.53125 665.992188 159.9375 670.003906 C 162.347656 674.011719 164.851562 677.960938 167.457031 681.847656 C 170.058594 685.734375 172.753906 689.554688 175.542969 693.308594 C 178.332031 697.066406 181.210938 700.75 184.179688 704.363281 C 187.152344 707.980469 190.207031 711.519531 193.351562 714.984375 C 196.492188 718.449219 199.71875 721.835938 203.027344 725.140625 C 206.335938 728.449219 209.722656 731.675781 213.1875 734.816406 C 216.65625 737.957031 220.195312 741.011719 223.8125 743.980469 C 227.429688 746.949219 231.113281 749.828125 234.871094 752.617188 C 238.628906 755.402344 242.449219 758.097656 246.339844 760.699219 C 250.226562 763.300781 254.179688 765.804688 258.1875 768.214844 C 262.199219 770.621094 266.269531 772.929688 270.390625 775.140625 C 274.515625 777.347656 278.691406 779.457031 282.917969 781.460938 C 287.144531 783.464844 291.417969 785.367188 295.738281 787.164062 C 300.058594 788.960938 304.421875 790.648438 308.824219 792.230469 C 313.226562 793.8125 317.667969 795.289062 322.140625 796.652344 C 326.617188 798.019531 331.121094 799.277344 335.660156 800.421875 C 340.195312 801.566406 344.757812 802.601562 349.34375 803.523438 C 353.933594 804.445312 358.539062 805.253906 363.164062 805.953125 C 367.792969 806.648438 372.433594 807.230469 377.089844 807.703125 C 381.742188 808.171875 386.40625 808.527344 391.082031 808.769531 C 395.753906 809.011719 400.429688 809.140625 405.109375 809.152344 C 409.785156 809.136719 414.460938 809.003906 419.132812 808.761719 C 423.804688 808.515625 428.464844 808.15625 433.121094 807.683594 C 437.773438 807.207031 442.414062 806.621094 447.039062 805.921875 C 451.664062 805.222656 456.269531 804.410156 460.855469 803.484375 C 465.441406 802.558594 470 801.523438 474.535156 800.375 C 479.070312 799.230469 483.574219 797.972656 488.046875 796.601562 C 492.523438 795.234375 496.960938 793.761719 501.359375 792.175781 C 505.761719 790.589844 510.121094 788.898438 514.441406 787.101562 C 518.757812 785.304688 523.03125 783.402344 527.257812 781.398438 C 531.484375 779.390625 535.65625 777.285156 539.78125 775.074219 C 543.902344 772.863281 547.96875 770.554688 551.976562 768.144531 C 555.988281 765.738281 559.9375 763.230469 563.824219 760.628906 C 567.710938 758.027344 571.53125 755.335938 575.289062 752.546875 C 579.042969 749.757812 582.726562 746.878906 586.34375 743.910156 C 589.957031 740.945312 593.496094 737.890625 596.960938 734.746094 C 600.429688 731.605469 603.816406 728.382812 607.121094 725.078125 C 610.429688 721.769531 613.65625 718.382812 616.796875 714.921875 C 619.941406 711.457031 622.996094 707.917969 625.964844 704.304688 C 628.933594 700.691406 631.8125 697.007812 634.601562 693.253906 C 637.390625 689.5 640.089844 685.679688 642.691406 681.792969 C 645.292969 677.90625 647.800781 673.960938 650.207031 669.953125 C 652.617188 665.945312 654.929688 661.878906 657.140625 657.757812 C 659.351562 653.636719 661.460938 649.464844 663.464844 645.242188 C 665.472656 641.019531 667.375 636.746094 669.171875 632.429688 C 670.972656 628.113281 672.664062 623.753906 674.25 619.355469 C 675.832031 614.957031 677.308594 610.519531 678.679688 606.046875 C 680.046875 601.578125 681.304688 597.074219 682.453125 592.542969 C 683.601562 588.007812 684.636719 583.449219 685.5625 578.867188 C 686.488281 574.28125 687.300781 569.679688 688 565.054688 C 688.699219 560.429688 689.285156 555.792969 689.761719 551.140625 C 690.234375 546.488281 690.59375 541.828125 690.839844 537.160156 C 691.085938 532.488281 691.214844 527.816406 691.234375 523.140625 Z M 691.234375 0.847656 " fill-opacity="1" fill-rule="evenodd"/></g><path fill="#ffffff" d="M 405.109375 787.121094 L 418.597656 786.800781 L 431.769531 785.796875 L 444.9375 784.148438 L 458.109375 781.863281 L 470.636719 778.894531 L 483.121094 775.28125 L 495.332031 770.984375 L 507.496094 766.367188 L 519.019531 761.113281 L 530.542969 755.167969 L 541.425781 748.953125 L 552.261719 742.003906 L 562.460938 734.460938 L 572.703125 726.875 L 582.214844 718.324219 L 591.453125 709.777344 L 600.324219 700.542969 L 608.554688 690.992188 L 616.464844 680.796875 L 623.738281 670.605469 L 630.640625 659.722656 L 637.226562 648.890625 L 642.804688 637.371094 L 648.429688 625.53125 L 653.003906 613.648438 L 657.300781 601.488281 L 660.59375 588.964844 L 663.566406 576.164062 L 666.171875 563.320312 L 667.820312 550.15625 L 668.824219 536.671875 L 669.144531 522.820312 L 669.144531 109.457031 L 141.023438 109.457031 L 141.023438 522.820312 L 141.390625 536.671875 L 142.351562 550.15625 L 143.996094 563.320312 L 146.328125 576.164062 L 149.253906 588.964844 L 152.914062 601.488281 L 157.167969 613.648438 L 161.785156 625.53125 L 167.042969 637.371094 L 172.988281 648.890625 L 179.574219 659.722656 L 186.480469 670.605469 L 193.703125 680.796875 L 201.613281 690.992188 L 209.847656 700.542969 L 218.761719 709.777344 L 227.953125 718.324219 L 237.511719 726.875 L 247.390625 734.460938 L 257.90625 742.003906 L 268.46875 748.953125 L 279.675781 755.167969 L 291.199219 761.113281 L 302.722656 766.367188 L 314.566406 770.984375 L 327.050781 775.28125 L 339.578125 778.894531 L 352.109375 781.863281 L 365.277344 784.148438 L 378.449219 785.796875 L 391.617188 786.800781 Z M 405.109375 787.121094 " fill-opacity="1" fill-rule="evenodd"/><path fill="#e62049" d="M 454.816406 768.015625 L 455.136719 767.695312 L 466.980469 765.042969 L 478.867188 761.75 L 490.390625 757.820312 L 501.914062 753.25 L 512.753906 748.3125 L 523.636719 742.734375 L 534.15625 736.792969 L 544.261719 730.164062 L 554.230469 723.078125 L 563.375 715.492188 L 572.519531 707.628906 L 581.074219 699.402344 L 589.988281 691.082031 L 597.902344 681.941406 L 605.125 672.386719 L 612.03125 662.511719 L 618.617188 652.640625 L 624.878906 642.125 L 630.140625 631.246094 L 635.445312 620.367188 L 639.695312 608.847656 L 643.675781 597.328125 L 647.289062 585.488281 L 649.894531 573.652344 L 652.226562 561.125 L 653.871094 548.964844 L 654.832031 536.121094 L 655.199219 522.957031 L 655.199219 481.816406 L 454.816406 481.816406 L 454.816406 768.152344 Z M 655.015625 378.328125 L 655.015625 125.589844 L 454.816406 125.589844 L 454.816406 378.328125 Z M 351.742188 125.589844 L 155.109375 125.589844 L 155.109375 378.328125 L 351.742188 378.328125 Z M 155.109375 481.679688 L 155.109375 522.820312 L 155.566406 535.984375 L 156.570312 548.828125 L 158.21875 560.988281 L 160.503906 573.511719 L 163.15625 585.351562 L 166.769531 597.191406 L 170.65625 608.800781 L 174.953125 620.320312 L 179.894531 631.199219 L 185.472656 642.082031 L 191.738281 652.59375 L 198.003906 662.46875 L 205.226562 672.339844 L 212.5 681.941406 L 220.410156 691.082031 L 228.640625 699.675781 L 237.511719 707.902344 L 246.65625 715.765625 L 256.167969 723.078125 L 266.046875 729.980469 L 276.015625 736.792969 L 286.578125 742.734375 L 297.097656 748.3125 L 308.300781 753.25 L 319.503906 757.820312 L 331.347656 761.75 L 342.871094 765.042969 L 351.742188 767.054688 L 351.742188 481.679688 Z M 155.109375 481.679688 " fill-opacity="1" fill-rule="evenodd"/><path fill="#ffffff" d="M 402.777344 557.378906 C 404.898438 557.378906 407.019531 557.328125 409.140625 557.222656 C 411.257812 557.121094 413.375 556.964844 415.488281 556.757812 C 417.597656 556.550781 419.703125 556.292969 421.804688 555.980469 C 423.902344 555.671875 425.992188 555.308594 428.074219 554.898438 C 430.15625 554.484375 432.226562 554.019531 434.285156 553.503906 C 436.34375 552.992188 438.390625 552.425781 440.421875 551.8125 C 442.453125 551.195312 444.464844 550.53125 446.464844 549.820312 C 448.464844 549.105469 450.445312 548.34375 452.40625 547.53125 C 454.367188 546.722656 456.304688 545.863281 458.226562 544.957031 C 460.144531 544.050781 462.039062 543.097656 463.910156 542.101562 C 465.785156 541.101562 467.628906 540.054688 469.449219 538.96875 C 471.273438 537.878906 473.066406 536.742188 474.832031 535.566406 C 476.59375 534.390625 478.332031 533.167969 480.035156 531.90625 C 481.742188 530.644531 483.414062 529.339844 485.054688 527.996094 C 486.699219 526.652344 488.304688 525.265625 489.878906 523.84375 C 491.453125 522.417969 492.988281 520.957031 494.492188 519.457031 C 495.992188 517.960938 497.457031 516.425781 498.882812 514.855469 C 500.308594 513.285156 501.695312 511.679688 503.042969 510.039062 C 504.390625 508.402344 505.699219 506.730469 506.964844 505.027344 C 508.230469 503.324219 509.453125 501.589844 510.632812 499.828125 C 511.8125 498.066406 512.949219 496.273438 514.042969 494.457031 C 515.136719 492.636719 516.183594 490.792969 517.183594 488.921875 C 518.1875 487.050781 519.140625 485.160156 520.050781 483.242188 C 520.960938 481.324219 521.820312 479.386719 522.636719 477.429688 C 523.449219 475.46875 524.214844 473.492188 524.929688 471.492188 C 525.648438 469.496094 526.316406 467.484375 526.933594 465.453125 C 527.550781 463.425781 528.117188 461.382812 528.636719 459.324219 C 529.152344 457.265625 529.621094 455.199219 530.035156 453.117188 C 530.453125 451.039062 530.816406 448.949219 531.128906 446.851562 C 531.445312 444.753906 531.707031 442.648438 531.917969 440.535156 C 532.125 438.425781 532.285156 436.3125 532.390625 434.191406 C 532.496094 432.074219 532.550781 429.953125 532.554688 427.832031 C 532.554688 425.710938 532.507812 423.589844 532.402344 421.472656 C 532.300781 419.351562 532.148438 417.238281 531.941406 415.125 C 531.738281 413.015625 531.480469 410.910156 531.171875 408.8125 C 530.863281 406.710938 530.5 404.621094 530.089844 402.542969 C 529.679688 400.460938 529.214844 398.390625 528.703125 396.332031 C 528.1875 394.273438 527.625 392.230469 527.011719 390.199219 C 526.398438 388.167969 525.734375 386.152344 525.023438 384.15625 C 524.308594 382.15625 523.550781 380.175781 522.738281 378.214844 C 521.929688 376.253906 521.074219 374.316406 520.167969 372.394531 C 519.261719 370.476562 518.3125 368.582031 517.3125 366.710938 C 516.316406 364.835938 515.273438 362.992188 514.183594 361.171875 C 513.09375 359.347656 511.960938 357.554688 510.785156 355.789062 C 509.609375 354.023438 508.390625 352.289062 507.128906 350.582031 C 505.863281 348.878906 504.5625 347.203125 503.21875 345.5625 C 501.875 343.921875 500.492188 342.3125 499.066406 340.738281 C 497.644531 339.164062 496.183594 337.628906 494.683594 336.125 C 493.1875 334.625 491.652344 333.160156 490.082031 331.730469 C 488.511719 330.304688 486.90625 328.917969 485.269531 327.570312 C 483.628906 326.222656 481.960938 324.914062 480.257812 323.648438 C 478.554688 322.382812 476.820312 321.15625 475.058594 319.976562 C 473.296875 318.796875 471.503906 317.65625 469.6875 316.566406 C 467.867188 315.472656 466.023438 314.421875 464.152344 313.421875 C 462.28125 312.417969 460.390625 311.460938 458.472656 310.550781 C 456.554688 309.640625 454.617188 308.777344 452.65625 307.964844 C 450.699219 307.148438 448.71875 306.382812 446.722656 305.664062 C 444.726562 304.945312 442.710938 304.277344 440.683594 303.660156 C 438.652344 303.039062 436.609375 302.472656 434.550781 301.953125 C 432.492188 301.433594 430.425781 300.964844 428.34375 300.546875 C 426.261719 300.128906 424.171875 299.765625 422.074219 299.449219 C 419.976562 299.132812 417.871094 298.871094 415.757812 298.660156 C 413.648438 298.449219 411.53125 298.289062 409.414062 298.179688 C 407.292969 298.074219 405.171875 298.015625 403.050781 298.011719 C 400.925781 298.011719 398.804688 298.058594 396.6875 298.160156 C 394.566406 298.257812 392.449219 298.410156 390.339844 298.613281 C 388.226562 298.820312 386.121094 299.074219 384.019531 299.382812 C 381.921875 299.691406 379.828125 300.046875 377.746094 300.457031 C 375.664062 300.867188 373.59375 301.328125 371.535156 301.839844 C 369.476562 302.351562 367.429688 302.914062 365.398438 303.527344 C 363.363281 304.136719 361.347656 304.800781 359.351562 305.511719 C 357.351562 306.222656 355.371094 306.980469 353.40625 307.789062 C 351.445312 308.597656 349.503906 309.453125 347.582031 310.355469 C 345.664062 311.257812 343.765625 312.207031 341.890625 313.207031 C 340.019531 314.203125 338.171875 315.242188 336.347656 316.332031 C 334.527344 317.417969 332.730469 318.546875 330.964844 319.722656 C 329.199219 320.898438 327.460938 322.117188 325.753906 323.375 C 324.046875 324.636719 322.371094 325.9375 320.726562 327.28125 C 319.085938 328.621094 317.476562 330.003906 315.898438 331.425781 C 314.324219 332.847656 312.785156 334.304688 311.28125 335.800781 C 309.777344 337.300781 308.3125 338.832031 306.882812 340.402344 C 305.453125 341.96875 304.0625 343.574219 302.714844 345.210938 C 301.363281 346.847656 300.054688 348.515625 298.789062 350.21875 C 297.519531 351.917969 296.292969 353.648438 295.113281 355.410156 C 293.929688 357.171875 292.789062 358.960938 291.695312 360.777344 C 290.597656 362.59375 289.550781 364.4375 288.546875 366.308594 C 287.539062 368.175781 286.582031 370.066406 285.671875 371.984375 C 284.757812 373.898438 283.894531 375.835938 283.078125 377.792969 C 282.261719 379.753906 281.492188 381.730469 280.773438 383.726562 C 280.054688 385.71875 279.382812 387.734375 278.761719 389.761719 C 278.140625 391.789062 277.570312 393.832031 277.050781 395.890625 C 276.53125 397.945312 276.0625 400.011719 275.640625 402.09375 C 275.222656 404.171875 274.855469 406.261719 274.539062 408.359375 C 274.222656 410.457031 273.957031 412.5625 273.746094 414.671875 C 273.53125 416.78125 273.371094 418.898438 273.261719 421.015625 C 273.152344 423.132812 273.09375 425.253906 273.089844 427.375 C 273.089844 429.5 273.140625 431.621094 273.242188 433.742188 C 273.347656 435.863281 273.5 437.984375 273.707031 440.097656 C 273.917969 442.210938 274.175781 444.316406 274.484375 446.417969 C 274.796875 448.519531 275.15625 450.613281 275.570312 452.695312 C 275.984375 454.78125 276.449219 456.851562 276.964844 458.914062 C 277.476562 460.972656 278.042969 463.019531 278.660156 465.050781 C 279.273438 467.085938 279.9375 469.101562 280.652344 471.101562 C 281.367188 473.101562 282.128906 475.085938 282.941406 477.046875 C 283.753906 479.011719 284.613281 480.953125 285.519531 482.875 C 286.425781 484.792969 287.378906 486.691406 288.378906 488.566406 C 289.378906 490.441406 290.421875 492.289062 291.511719 494.113281 C 292.605469 495.933594 293.738281 497.730469 294.917969 499.496094 C 296.09375 501.265625 297.316406 503.003906 298.578125 504.710938 C 299.84375 506.417969 301.148438 508.09375 302.492188 509.738281 C 303.839844 511.378906 305.226562 512.988281 306.648438 514.566406 C 308.074219 516.140625 309.539062 517.679688 311.039062 519.183594 C 312.539062 520.6875 314.074219 522.15625 315.648438 523.585938 C 317.21875 525.011719 318.824219 526.402344 320.464844 527.753906 C 322.105469 529.101562 323.777344 530.410156 325.484375 531.679688 C 327.1875 532.945312 328.921875 534.171875 330.6875 535.355469 C 332.453125 536.539062 334.246094 537.675781 336.066406 538.773438 C 337.886719 539.867188 339.730469 540.917969 341.605469 541.921875 C 343.476562 542.925781 345.371094 543.886719 347.292969 544.796875 C 349.210938 545.707031 351.152344 546.574219 353.113281 547.390625 C 355.074219 548.207031 357.054688 548.972656 359.054688 549.695312 C 361.050781 550.414062 363.066406 551.082031 365.101562 551.703125 C 367.132812 552.324219 369.179688 552.894531 371.238281 553.414062 C 373.296875 553.9375 375.371094 554.40625 377.453125 554.824219 C 379.535156 555.242188 381.628906 555.613281 383.730469 555.929688 C 385.828125 556.246094 387.9375 556.507812 390.050781 556.722656 C 392.164062 556.933594 394.285156 557.097656 396.40625 557.207031 C 398.527344 557.316406 400.652344 557.371094 402.777344 557.378906 Z M 402.777344 557.378906 " fill-opacity="1" fill-rule="evenodd"/><path fill="#ffffff" d="M 543.390625 214.773438 C 545.785156 214.371094 548.191406 214.160156 550.617188 214.132812 C 552.261719 217.425781 545.039062 245.71875 557.886719 253.628906 C 545.039062 261.492188 552.261719 290.195312 550.617188 293.441406 C 548.1875 293.425781 545.78125 293.199219 543.390625 292.757812 L 543.390625 309.578125 L 567.398438 313.828125 C 607.59375 321.417969 603.617188 292.4375 594.105469 287.820312 C 593.628906 287.609375 593.144531 287.429688 592.648438 287.28125 C 592.152344 287.132812 591.648438 287.015625 591.136719 286.929688 C 590.625 286.84375 590.109375 286.789062 589.589844 286.769531 C 589.074219 286.746094 588.554688 286.757812 588.039062 286.800781 C 587.519531 286.84375 587.007812 286.917969 586.5 287.027344 C 585.992188 287.132812 585.496094 287.273438 585.003906 287.441406 C 584.515625 287.609375 584.039062 287.8125 583.570312 288.039062 C 583.105469 288.269531 582.65625 288.527344 582.226562 288.8125 C 581.792969 289.097656 581.378906 289.410156 580.984375 289.746094 C 580.589844 290.082031 580.21875 290.445312 579.871094 290.828125 C 579.519531 291.210938 579.199219 291.617188 578.898438 292.039062 C 578.601562 292.464844 578.328125 292.90625 578.085938 293.363281 C 577.84375 293.820312 577.628906 294.292969 577.445312 294.777344 C 577.261719 295.261719 577.109375 295.757812 576.984375 296.261719 C 576.863281 296.765625 576.773438 297.273438 576.714844 297.789062 C 576.65625 298.304688 576.628906 298.820312 576.636719 299.339844 L 573.34375 298.699219 C 565.753906 297.375 562.550781 283.570312 565.753906 270.542969 C 567.078125 263.640625 574.898438 262.953125 576.316406 253.765625 C 574.992188 244.621094 567.171875 243.890625 565.753906 237.308594 C 562.460938 223.597656 565.753906 210.292969 573.34375 208.648438 L 576.636719 208.007812 C 576.621094 208.53125 576.640625 209.050781 576.691406 209.570312 C 576.742188 210.089844 576.824219 210.601562 576.941406 211.113281 C 577.058594 211.621094 577.207031 212.121094 577.386719 212.609375 C 577.566406 213.101562 577.777344 213.578125 578.015625 214.039062 C 578.257812 214.503906 578.527344 214.949219 578.824219 215.378906 C 579.121094 215.804688 579.445312 216.214844 579.792969 216.601562 C 580.144531 216.988281 580.515625 217.355469 580.910156 217.695312 C 581.308594 218.035156 581.722656 218.347656 582.160156 218.636719 C 582.59375 218.921875 583.046875 219.179688 583.515625 219.410156 C 583.984375 219.640625 584.464844 219.839844 584.960938 220.007812 C 585.453125 220.175781 585.957031 220.3125 586.46875 220.417969 C 586.980469 220.523438 587.496094 220.59375 588.015625 220.632812 C 588.535156 220.671875 589.058594 220.679688 589.578125 220.652344 C 590.101562 220.625 590.617188 220.5625 591.132812 220.46875 C 591.644531 220.375 592.148438 220.25 592.648438 220.09375 C 593.144531 219.9375 593.632812 219.746094 594.105469 219.527344 C 603.617188 215.230469 607.59375 186.296875 567.398438 193.519531 L 543.390625 198.089844 Z M 528.894531 253.628906 L 528.894531 227.617188 C 528.894531 220.03125 531.546875 216.417969 543.390625 214.773438 L 543.390625 197.996094 L 537.445312 198.957031 C 519.15625 202.25 514.078125 202.25 514.078125 222.683594 L 514.078125 284.894531 C 514.078125 305.28125 519.339844 305.28125 536.945312 308.253906 L 543.527344 309.578125 L 543.527344 292.757812 C 531.683594 291.109375 529.03125 287.5 529.03125 279.957031 Z M 528.894531 253.628906 " fill-opacity="1" fill-rule="evenodd"/><path fill="#ffffff" d="M 278.027344 253.628906 L 278.027344 227.617188 C 278.027344 220.03125 275.375 216.417969 263.851562 214.773438 L 263.851562 197.996094 L 269.796875 198.957031 C 287.539062 202.25 293.164062 202.25 293.164062 222.683594 L 293.164062 284.894531 C 293.164062 305.28125 287.539062 305.28125 270.300781 308.253906 L 264.035156 309.578125 L 264.035156 292.757812 C 275.558594 291.109375 278.210938 287.5 278.210938 279.957031 Z M 263.851562 214.773438 C 261.457031 214.386719 259.050781 214.175781 256.625 214.132812 C 254.980469 217.425781 262.207031 245.71875 249.355469 253.628906 C 262.207031 261.492188 254.980469 290.195312 256.625 293.441406 C 259.054688 293.410156 261.460938 293.183594 263.851562 292.757812 L 263.851562 309.578125 L 239.796875 313.828125 C 199.648438 321.417969 203.582031 292.4375 212.820312 287.820312 C 213.296875 287.609375 213.789062 287.433594 214.289062 287.285156 C 214.789062 287.136719 215.300781 287.019531 215.816406 286.933594 C 216.332031 286.847656 216.847656 286.796875 217.371094 286.773438 C 217.894531 286.75 218.414062 286.761719 218.9375 286.804688 C 219.457031 286.847656 219.972656 286.921875 220.484375 287.03125 C 220.996094 287.136719 221.5 287.273438 221.996094 287.441406 C 222.492188 287.609375 222.972656 287.808594 223.441406 288.035156 C 223.914062 288.265625 224.367188 288.519531 224.808594 288.804688 C 225.246094 289.089844 225.664062 289.398438 226.066406 289.734375 C 226.464844 290.070312 226.84375 290.429688 227.199219 290.8125 C 227.558594 291.195312 227.886719 291.597656 228.195312 292.019531 C 228.5 292.445312 228.78125 292.886719 229.03125 293.34375 C 229.285156 293.800781 229.507812 294.273438 229.699219 294.757812 C 229.894531 295.242188 230.058594 295.738281 230.191406 296.242188 C 230.324219 296.75 230.425781 297.261719 230.496094 297.777344 C 230.5625 298.296875 230.601562 298.816406 230.605469 299.339844 L 233.898438 298.699219 C 241.445312 297.375 244.738281 283.570312 241.445312 270.402344 C 239.796875 263.5 232.300781 262.816406 230.605469 253.628906 C 232.253906 244.484375 239.753906 243.753906 241.445312 237.171875 C 244.738281 223.457031 241.445312 210.15625 233.898438 208.511719 L 230.605469 207.871094 C 230.609375 208.398438 230.582031 208.921875 230.519531 209.441406 C 230.457031 209.964844 230.359375 210.480469 230.234375 210.992188 C 230.105469 211.5 229.949219 212 229.757812 212.492188 C 229.570312 212.980469 229.347656 213.457031 229.097656 213.921875 C 228.847656 214.382812 228.570312 214.828125 228.265625 215.257812 C 227.960938 215.683594 227.628906 216.089844 227.273438 216.476562 C 226.914062 216.863281 226.535156 217.226562 226.132812 217.566406 C 225.730469 217.902344 225.308594 218.214844 224.867188 218.5 C 224.425781 218.789062 223.96875 219.042969 223.496094 219.273438 C 223.023438 219.5 222.535156 219.699219 222.039062 219.867188 C 221.539062 220.035156 221.03125 220.167969 220.515625 220.273438 C 220.003906 220.378906 219.480469 220.449219 218.957031 220.488281 C 218.433594 220.527344 217.910156 220.53125 217.382812 220.503906 C 216.859375 220.476562 216.335938 220.417969 215.820312 220.324219 C 215.300781 220.234375 214.792969 220.109375 214.289062 219.953125 C 213.789062 219.796875 213.296875 219.609375 212.820312 219.390625 C 203.671875 215.09375 199.648438 186.160156 239.796875 193.382812 L 263.851562 197.953125 Z M 263.851562 214.773438 " fill-opacity="1" fill-rule="evenodd"/><path fill="#ffffff" d="M 543.390625 556.738281 C 545.78125 556.320312 548.191406 556.089844 550.617188 556.050781 C 552.261719 559.34375 545.039062 587.683594 557.886719 595.910156 C 545.039062 603.773438 552.261719 632.113281 550.617188 635.40625 C 548.191406 635.367188 545.78125 635.140625 543.390625 634.71875 L 543.390625 651.496094 L 567.398438 656.066406 C 607.59375 663.335938 603.617188 634.355469 594.105469 630.058594 C 593.632812 629.839844 593.144531 629.648438 592.648438 629.492188 C 592.152344 629.335938 591.644531 629.210938 591.132812 629.117188 C 590.617188 629.023438 590.101562 628.960938 589.578125 628.933594 C 589.058594 628.90625 588.535156 628.914062 588.015625 628.953125 C 587.496094 628.992188 586.980469 629.0625 586.46875 629.167969 C 585.957031 629.273438 585.453125 629.410156 584.960938 629.578125 C 584.464844 629.746094 583.984375 629.945312 583.515625 630.175781 C 583.046875 630.402344 582.59375 630.664062 582.160156 630.949219 C 581.722656 631.238281 581.308594 631.550781 580.910156 631.890625 C 580.515625 632.230469 580.144531 632.597656 579.792969 632.984375 C 579.445312 633.371094 579.121094 633.78125 578.824219 634.207031 C 578.527344 634.636719 578.257812 635.082031 578.015625 635.546875 C 577.773438 636.007812 577.566406 636.484375 577.386719 636.976562 C 577.207031 637.464844 577.058594 637.964844 576.941406 638.472656 C 576.824219 638.980469 576.742188 639.496094 576.691406 640.015625 C 576.640625 640.535156 576.621094 641.054688 576.636719 641.578125 L 573.34375 640.9375 C 565.753906 639.292969 562.460938 625.808594 565.753906 612.320312 C 567.078125 605.738281 574.898438 605.054688 576.316406 595.867188 C 574.992188 586.722656 567.171875 585.992188 565.753906 579.042969 C 562.460938 565.332031 565.753906 552.074219 573.34375 550.429688 L 576.636719 549.789062 C 576.625 550.3125 576.648438 550.832031 576.703125 551.351562 C 576.753906 551.871094 576.84375 552.386719 576.960938 552.894531 C 577.078125 553.402344 577.226562 553.902344 577.40625 554.390625 C 577.589844 554.882812 577.796875 555.359375 578.039062 555.824219 C 578.277344 556.285156 578.546875 556.734375 578.84375 557.164062 C 579.136719 557.59375 579.457031 558.003906 579.804688 558.394531 C 580.152344 558.785156 580.523438 559.152344 580.914062 559.5 C 581.308594 559.84375 581.71875 560.160156 582.152344 560.453125 C 582.585938 560.746094 583.035156 561.011719 583.5 561.25 C 583.964844 561.488281 584.441406 561.695312 584.933594 561.871094 C 585.425781 562.050781 585.925781 562.195312 586.433594 562.3125 C 586.945312 562.425781 587.460938 562.507812 587.980469 562.558594 C 588.5 562.609375 589.019531 562.628906 589.542969 562.617188 C 590.066406 562.601562 590.585938 562.554688 591.101562 562.476562 C 591.617188 562.398438 592.125 562.289062 592.628906 562.148438 C 593.132812 562.003906 593.625 561.832031 594.105469 561.628906 C 603.617188 557.058594 607.59375 528.03125 567.398438 535.617188 L 543.390625 539.914062 Z M 528.894531 595.910156 L 528.894531 569.582031 C 528.894531 561.996094 531.546875 558.382812 543.390625 556.738281 L 543.390625 539.960938 L 537.445312 541.242188 C 519.15625 544.53125 514.078125 544.210938 514.078125 564.644531 L 514.078125 626.8125 C 514.078125 647.246094 519.339844 647.246094 536.945312 650.535156 L 543.527344 651.496094 L 543.527344 634.71875 C 531.683594 633.074219 529.03125 629.464844 529.03125 621.875 Z M 528.894531 595.910156 " fill-opacity="1" fill-rule="evenodd"/><path fill="#ffffff" d="M 278.027344 595.910156 L 278.027344 569.582031 C 278.027344 561.996094 275.375 558.382812 263.851562 556.738281 L 263.851562 539.960938 L 269.796875 541.242188 C 287.539062 544.53125 293.164062 544.210938 293.164062 564.644531 L 293.164062 626.8125 C 293.164062 647.246094 287.539062 647.246094 270.300781 650.535156 L 264.035156 651.496094 L 264.035156 634.71875 C 275.558594 633.074219 278.210938 629.464844 278.210938 621.875 Z M 263.851562 556.738281 C 261.460938 556.335938 259.050781 556.105469 256.625 556.050781 C 254.980469 559.34375 262.207031 587.683594 249.355469 595.910156 C 262.207031 603.773438 254.980469 632.113281 256.625 635.40625 C 259.050781 635.351562 261.460938 635.125 263.851562 634.71875 L 263.851562 651.496094 L 239.796875 656.066406 C 199.648438 663.335938 203.582031 634.355469 212.820312 630.058594 C 213.296875 629.839844 213.789062 629.652344 214.289062 629.496094 C 214.792969 629.339844 215.300781 629.214844 215.820312 629.125 C 216.335938 629.03125 216.859375 628.972656 217.382812 628.945312 C 217.910156 628.917969 218.433594 628.921875 218.957031 628.960938 C 219.480469 629 220.003906 629.070312 220.515625 629.175781 C 221.03125 629.277344 221.539062 629.414062 222.039062 629.582031 C 222.535156 629.75 223.023438 629.949219 223.496094 630.175781 C 223.96875 630.40625 224.425781 630.660156 224.867188 630.949219 C 225.308594 631.234375 225.730469 631.546875 226.132812 631.882812 C 226.535156 632.222656 226.914062 632.585938 227.273438 632.972656 C 227.628906 633.359375 227.960938 633.765625 228.265625 634.191406 C 228.570312 634.621094 228.847656 635.066406 229.097656 635.527344 C 229.347656 635.992188 229.570312 636.46875 229.757812 636.957031 C 229.949219 637.449219 230.105469 637.949219 230.234375 638.457031 C 230.359375 638.96875 230.457031 639.484375 230.519531 640.003906 C 230.582031 640.527344 230.609375 641.050781 230.605469 641.578125 L 233.898438 640.9375 C 241.445312 639.292969 244.738281 625.808594 241.445312 612.320312 C 239.796875 605.738281 232.300781 605.054688 230.605469 595.867188 C 232.253906 586.722656 239.753906 585.992188 241.445312 579.042969 C 244.738281 565.332031 241.445312 552.074219 233.898438 550.429688 L 230.605469 549.789062 C 230.605469 550.316406 230.574219 550.839844 230.507812 551.363281 C 230.441406 551.882812 230.347656 552.398438 230.21875 552.910156 C 230.089844 553.421875 229.929688 553.921875 229.738281 554.410156 C 229.546875 554.902344 229.328125 555.378906 229.082031 555.84375 C 228.832031 556.308594 228.554688 556.753906 228.25 557.183594 C 227.949219 557.613281 227.617188 558.023438 227.265625 558.410156 C 226.910156 558.800781 226.535156 559.167969 226.132812 559.511719 C 225.734375 559.851562 225.316406 560.171875 224.878906 560.460938 C 224.441406 560.753906 223.984375 561.015625 223.515625 561.253906 C 223.046875 561.488281 222.5625 561.695312 222.066406 561.871094 C 221.570312 562.046875 221.066406 562.195312 220.550781 562.308594 C 220.039062 562.421875 219.519531 562.503906 218.996094 562.554688 C 218.472656 562.605469 217.945312 562.625 217.417969 562.609375 C 216.894531 562.597656 216.371094 562.550781 215.847656 562.472656 C 215.328125 562.394531 214.816406 562.285156 214.308594 562.144531 C 213.800781 562.003906 213.304688 561.832031 212.820312 561.628906 C 203.671875 557.058594 199.648438 528.03125 239.796875 535.617188 L 263.851562 539.914062 Z M 263.851562 556.738281 " fill-opacity="1" fill-rule="evenodd"/><path fill="#ffffff" d="M 280.632812 20.273438 C 285.101562 20.195312 289.492188 20.746094 293.804688 21.917969 C 298.171875 23.195312 302.011719 25.390625 305.328125 28.5 C 306.769531 29.871094 307.886719 31.46875 308.679688 33.292969 C 309.472656 35.117188 309.878906 37.027344 309.902344 39.015625 C 309.910156 40.367188 309.753906 41.699219 309.433594 43.011719 C 309.113281 44.328125 308.640625 45.582031 308.007812 46.777344 C 307.378906 47.972656 306.613281 49.074219 305.710938 50.082031 C 304.808594 51.089844 303.796875 51.972656 302.675781 52.726562 C 299.765625 54.679688 296.621094 56.105469 293.238281 57.003906 C 289.851562 57.90625 286.414062 58.230469 282.921875 57.984375 L 280.589844 57.984375 L 280.589844 54.007812 C 284.078125 53.4375 287.265625 52.125 290.144531 50.078125 C 290.933594 49.484375 291.640625 48.808594 292.265625 48.046875 C 292.890625 47.289062 293.417969 46.464844 293.847656 45.578125 C 294.277344 44.691406 294.597656 43.765625 294.804688 42.804688 C 295.015625 41.839844 295.109375 40.867188 295.085938 39.882812 C 295.152344 36.910156 294.390625 34.167969 292.796875 31.65625 C 291.238281 29.84375 289.40625 28.371094 287.300781 27.234375 C 285.199219 26.101562 282.960938 25.378906 280.589844 25.074219 Z M 266.136719 58.121094 L 266.136719 76.40625 C 265.960938 77.832031 266.015625 79.246094 266.296875 80.652344 C 266.578125 82.0625 267.074219 83.386719 267.785156 84.632812 C 268.597656 85.605469 269.582031 86.351562 270.738281 86.871094 C 271.890625 87.394531 273.101562 87.636719 274.371094 87.605469 L 277.660156 87.605469 L 277.660156 89.570312 L 240.484375 89.570312 L 240.484375 87.605469 L 243.777344 87.605469 C 244.386719 87.695312 244.996094 87.691406 245.605469 87.601562 C 246.21875 87.507812 246.800781 87.328125 247.359375 87.066406 C 247.914062 86.800781 248.421875 86.460938 248.878906 86.046875 C 249.335938 85.632812 249.722656 85.164062 250.042969 84.632812 C 251.25 82.238281 251.675781 79.707031 251.320312 77.046875 L 251.320312 32.113281 C 251.492188 30.738281 251.4375 29.375 251.15625 28.023438 C 250.875 26.667969 250.382812 25.394531 249.675781 24.203125 C 248.953125 23.34375 248.066406 22.714844 247.019531 22.308594 C 245.972656 21.902344 244.890625 21.773438 243.777344 21.917969 L 240.484375 21.917969 L 240.484375 19.953125 L 275.375 19.953125 C 277.140625 19.890625 278.890625 19.996094 280.632812 20.273438 L 280.632812 25.210938 C 275.832031 24.324219 271 24.097656 266.136719 24.523438 L 266.136719 54.144531 C 270.117188 54.511719 274.371094 54.144531 278.027344 54.144531 L 280.632812 54.144531 L 280.632812 58.121094 Z M 266.136719 58.121094 " fill-opacity="1" fill-rule="nonzero"/><path fill="#ffffff" d="M 382.0625 19.953125 L 383.019531 38.238281 L 380.734375 38.238281 C 377.761719 26.351562 370.21875 25.074219 359.011719 24.523438 L 359.011719 19.953125 Z M 359.195312 51.539062 C 363.949219 51.527344 368.660156 51.96875 373.328125 52.867188 C 375.632812 53.253906 377.824219 53.976562 379.90625 55.039062 C 381.992188 56.097656 383.867188 57.445312 385.535156 59.082031 C 387.015625 60.503906 388.152344 62.160156 388.945312 64.050781 C 389.742188 65.941406 390.128906 67.910156 390.109375 69.960938 C 390.089844 71.308594 389.910156 72.636719 389.574219 73.945312 C 389.242188 75.25 388.757812 76.5 388.125 77.691406 C 387.492188 78.886719 386.730469 79.988281 385.835938 80.996094 C 384.941406 82.007812 383.945312 82.902344 382.839844 83.675781 C 378.265625 87.285156 370.355469 89.296875 359.152344 89.617188 L 359.152344 85.046875 C 362.507812 84.449219 365.695312 83.355469 368.707031 81.753906 C 369.761719 81.234375 370.722656 80.585938 371.601562 79.804688 C 372.476562 79.023438 373.230469 78.136719 373.867188 77.152344 C 374.503906 76.167969 374.996094 75.113281 375.347656 73.992188 C 375.699219 72.875 375.894531 71.726562 375.933594 70.554688 C 375.933594 69.371094 375.757812 68.214844 375.398438 67.085938 C 375.042969 65.960938 374.527344 64.910156 373.847656 63.941406 C 373.167969 62.972656 372.359375 62.128906 371.421875 61.40625 C 370.480469 60.6875 369.453125 60.125 368.34375 59.722656 C 365.425781 58.324219 362.378906 57.332031 359.195312 56.75 Z M 359.195312 24.523438 L 342.230469 24.523438 L 342.230469 51.128906 L 349.457031 51.128906 C 352.648438 51.0625 355.832031 51.171875 359.011719 51.449219 L 359.011719 56.386719 C 355.746094 55.792969 352.453125 55.5625 349.136719 55.699219 L 342.230469 55.699219 L 342.230469 85.410156 C 345.628906 85.597656 349.03125 85.597656 352.429688 85.410156 C 354.636719 85.355469 356.832031 85.140625 359.011719 84.773438 L 359.011719 89.34375 L 315.890625 89.34375 L 315.890625 87.378906 C 319.535156 87.433594 323.042969 86.765625 326.410156 85.367188 C 327.320312 84.078125 327.972656 82.667969 328.367188 81.140625 C 328.761719 79.613281 328.871094 78.066406 328.695312 76.496094 L 328.695312 32.84375 C 328.863281 30.371094 328.542969 27.964844 327.734375 25.621094 C 327.382812 24.980469 326.917969 24.429688 326.351562 23.972656 C 325.78125 23.511719 325.144531 23.179688 324.441406 22.96875 C 321.929688 22.5 319.402344 22.179688 316.851562 22.011719 L 316.851562 19.953125 L 359.011719 19.953125 Z M 359.195312 24.523438 " fill-opacity="1" fill-rule="nonzero"/><path fill="#ffffff" d="M 470.273438 31.472656 C 470.273438 27.175781 469.3125 24.523438 467.34375 23.566406 C 463.84375 22.167969 460.21875 21.621094 456.460938 21.917969 L 456.460938 19.953125 L 496.609375 19.953125 L 496.609375 21.917969 C 492.742188 21.585938 489.023438 22.179688 485.453125 23.703125 C 484.507812 25.027344 483.832031 26.476562 483.429688 28.054688 C 483.027344 29.632812 482.925781 31.226562 483.121094 32.84375 L 483.121094 76.636719 C 482.949219 78.207031 483.066406 79.757812 483.46875 81.285156 C 483.871094 82.8125 484.53125 84.21875 485.453125 85.503906 C 489.039062 86.914062 492.757812 87.585938 496.609375 87.515625 L 496.609375 89.480469 L 456.460938 89.480469 L 456.460938 87.515625 C 460.328125 87.589844 464.0625 86.917969 467.664062 85.503906 C 468.714844 84.28125 469.46875 82.894531 469.921875 81.347656 C 470.375 79.804688 470.492188 78.230469 470.273438 76.636719 L 470.273438 37.050781 L 427.46875 78.1875 C 427.410156 80.203125 427.640625 82.183594 428.15625 84.132812 C 428.476562 85.089844 429.800781 85.777344 431.449219 86.417969 C 434.445312 87.226562 437.492188 87.5625 440.59375 87.421875 L 440.59375 89.386719 L 401.128906 89.386719 L 401.128906 87.421875 C 404.890625 87.46875 408.519531 86.800781 412.011719 85.410156 C 413.660156 84.132812 414.300781 81.160156 414.300781 76.542969 L 414.300781 32.84375 C 414.300781 28.273438 413.660156 25.300781 412.011719 23.976562 C 408.546875 22.417969 404.921875 21.761719 401.128906 22.011719 L 401.128906 19.953125 L 440.640625 19.953125 L 440.640625 21.917969 C 436.925781 21.644531 433.359375 22.238281 429.9375 23.703125 C 428.292969 25.027344 427.605469 28 427.605469 32.570312 L 427.605469 72.613281 Z M 470.273438 31.472656 " fill-opacity="1" fill-rule="nonzero"/><path fill="#ffffff" d="M 523.316406 21.917969 L 523.316406 19.953125 L 560.496094 19.953125 L 560.496094 21.917969 L 557.203125 21.917969 C 555.816406 21.804688 554.46875 21.976562 553.15625 22.429688 C 551.84375 22.882812 550.675781 23.582031 549.65625 24.523438 C 548.972656 25.664062 548.488281 26.882812 548.207031 28.183594 C 547.925781 29.480469 547.859375 30.792969 548.011719 32.113281 L 548.011719 66.03125 C 548.222656 70.476562 547.445312 74.742188 545.679688 78.828125 C 544.953125 80.558594 543.976562 82.125 542.738281 83.535156 C 541.503906 84.941406 540.074219 86.117188 538.453125 87.058594 C 536.570312 88.351562 534.527344 89.3125 532.328125 89.9375 C 530.128906 90.5625 527.886719 90.820312 525.601562 90.714844 C 523.996094 90.8125 522.410156 90.660156 520.847656 90.261719 C 519.285156 89.867188 517.824219 89.238281 516.457031 88.382812 C 515.441406 87.867188 514.605469 87.144531 513.949219 86.214844 C 513.296875 85.285156 512.894531 84.253906 512.753906 83.125 C 512.75 82.386719 512.894531 81.675781 513.179688 80.996094 C 513.464844 80.3125 513.871094 79.710938 514.398438 79.195312 C 515.855469 78.082031 517.503906 77.53125 519.339844 77.550781 C 520.003906 77.511719 520.648438 77.601562 521.273438 77.824219 C 521.902344 78.046875 522.460938 78.382812 522.949219 78.828125 C 524.753906 80.421875 526.1875 82.296875 527.25 84.453125 C 528.253906 86.417969 529.214844 87.058594 530.863281 87.058594 C 531.519531 87.105469 532.144531 86.980469 532.734375 86.683594 C 533.324219 86.390625 533.796875 85.964844 534.15625 85.410156 C 534.796875 84.570312 535.261719 83.640625 535.546875 82.621094 C 535.832031 81.601562 535.917969 80.566406 535.800781 79.515625 L 535.800781 32.113281 C 535.953125 29.746094 535.632812 27.445312 534.839844 25.210938 C 534.148438 24.296875 533.261719 23.640625 532.1875 23.246094 C 530.316406 22.3125 528.335938 21.871094 526.242188 21.917969 Z M 523.316406 21.917969 " fill-opacity="1" fill-rule="nonzero"/><path fill="#ffffff" d="M 620.078125 66.03125 L 602.65625 66.03125 L 602.65625 62.375 L 618.433594 62.375 L 602.65625 34.398438 L 602.65625 23.246094 L 605.261719 18.671875 L 607.59375 18.671875 L 639.605469 75.949219 C 641.3125 79.566406 643.734375 82.613281 646.875 85.089844 C 649.542969 86.542969 652.394531 87.316406 655.425781 87.421875 L 655.425781 89.386719 L 619.210938 89.386719 L 619.210938 87.421875 C 621.785156 87.332031 624.300781 86.890625 626.753906 86.097656 C 628.082031 85.089844 628.765625 84.132812 628.765625 83.125 C 628.363281 80.476562 627.371094 78.070312 625.796875 75.902344 Z M 602.65625 66.03125 L 584.363281 66.03125 L 578.101562 76.863281 C 577 78.828125 576.238281 80.914062 575.8125 83.125 C 575.859375 83.71875 576.0625 84.253906 576.414062 84.734375 C 576.769531 85.210938 577.226562 85.558594 577.78125 85.777344 C 580.625 86.921875 583.582031 87.46875 586.652344 87.421875 L 586.652344 89.386719 L 557.980469 89.386719 L 557.980469 87.421875 C 560.503906 87.164062 562.910156 86.496094 565.203125 85.410156 C 568.574219 82.707031 571.210938 79.417969 573.117188 75.539062 L 602.65625 23.246094 L 602.65625 34.765625 L 586.835938 62.191406 L 602.65625 62.191406 Z M 602.65625 66.03125 " fill-opacity="1" fill-rule="nonzero"/><path fill="#ffffff" d="M 229.601562 18.628906 L 231.933594 43.3125 L 229.921875 43.3125 C 228.847656 40.023438 227.300781 36.972656 225.28125 34.164062 C 223.257812 31.355469 220.855469 28.917969 218.078125 26.855469 C 215.324219 25.203125 212.390625 23.984375 209.273438 23.207031 C 206.15625 22.425781 202.992188 22.121094 199.785156 22.285156 C 194.160156 22.175781 188.777344 23.273438 183.644531 25.574219 C 181.285156 26.867188 179.15625 28.464844 177.257812 30.371094 C 175.359375 32.277344 173.769531 34.410156 172.484375 36.773438 C 171.121094 39.738281 170.117188 42.816406 169.476562 46.015625 C 168.835938 49.210938 168.574219 52.441406 168.691406 55.699219 C 168.59375 58.519531 168.886719 61.300781 169.5625 64.042969 C 170.238281 66.785156 171.273438 69.382812 172.667969 71.835938 C 173.980469 74.203125 175.617188 76.3125 177.585938 78.171875 C 179.550781 80.027344 181.753906 81.542969 184.191406 82.714844 C 189.855469 85.160156 195.769531 86.363281 201.933594 86.324219 C 207.207031 86.421875 212.269531 85.429688 217.117188 83.355469 C 222.238281 80.78125 226.734375 77.382812 230.605469 73.160156 L 232.894531 73.800781 C 230.96875 76.460938 228.757812 78.847656 226.25 80.96875 C 223.742188 83.085938 221.019531 84.871094 218.078125 86.324219 C 214.78125 87.863281 211.351562 88.992188 207.789062 89.71875 C 204.226562 90.445312 200.628906 90.746094 196.996094 90.621094 C 175.960938 90.621094 152.546875 79.101562 152.546875 55.699219 C 152.546875 40.890625 163.109375 29.050781 175.960938 23.152344 C 179.5625 21.574219 183.289062 20.398438 187.144531 19.628906 C 191 18.855469 194.894531 18.507812 198.824219 18.582031 C 205.425781 18.496094 211.78125 19.699219 217.894531 22.191406 C 219.050781 22.707031 220.253906 23.039062 221.507812 23.199219 C 222.710938 23.214844 223.808594 22.882812 224.800781 22.191406 C 225.898438 21.195312 226.675781 19.992188 227.132812 18.582031 Z M 229.601562 18.628906 " fill-opacity="1" fill-rule="nonzero"/><path fill="#ae9943" d="M 402.777344 537.949219 C 404.578125 537.949219 406.382812 537.90625 408.183594 537.816406 C 409.988281 537.730469 411.785156 537.597656 413.582031 537.421875 C 415.375 537.242188 417.164062 537.023438 418.949219 536.757812 C 420.734375 536.492188 422.511719 536.1875 424.28125 535.835938 C 426.050781 535.484375 427.808594 535.089844 429.558594 534.648438 C 431.308594 534.210938 433.046875 533.730469 434.773438 533.207031 C 436.5 532.683594 438.214844 532.121094 439.910156 531.511719 C 441.609375 530.90625 443.292969 530.257812 444.960938 529.566406 C 446.628906 528.878906 448.277344 528.148438 449.90625 527.378906 C 451.539062 526.605469 453.148438 525.796875 454.742188 524.945312 C 456.332031 524.097656 457.902344 523.210938 459.449219 522.28125 C 460.996094 521.355469 462.519531 520.390625 464.019531 519.390625 C 465.519531 518.390625 466.996094 517.351562 468.445312 516.277344 C 469.894531 515.203125 471.316406 514.097656 472.710938 512.953125 C 474.105469 511.808594 475.472656 510.632812 476.808594 509.421875 C 478.148438 508.210938 479.453125 506.96875 480.730469 505.695312 C 482.007812 504.421875 483.25 503.117188 484.460938 501.78125 C 485.675781 500.445312 486.855469 499.078125 488 497.6875 C 489.144531 496.292969 490.253906 494.871094 491.328125 493.425781 C 492.40625 491.976562 493.445312 490.503906 494.449219 489.003906 C 495.449219 487.507812 496.417969 485.984375 497.34375 484.4375 C 498.273438 482.890625 499.164062 481.324219 500.015625 479.734375 C 500.867188 478.144531 501.679688 476.535156 502.449219 474.90625 C 503.222656 473.273438 503.957031 471.628906 504.648438 469.960938 C 505.339844 468.296875 505.988281 466.613281 506.597656 464.917969 C 507.207031 463.21875 507.773438 461.507812 508.296875 459.785156 C 508.824219 458.058594 509.304688 456.320312 509.746094 454.570312 C 510.1875 452.824219 510.582031 451.066406 510.9375 449.296875 C 511.289062 447.527344 511.597656 445.753906 511.863281 443.96875 C 512.132812 442.183594 512.355469 440.394531 512.53125 438.601562 C 512.710938 436.808594 512.84375 435.007812 512.933594 433.207031 C 513.027344 431.40625 513.070312 429.605469 513.074219 427.800781 C 513.074219 426 513.03125 424.195312 512.945312 422.394531 C 512.859375 420.59375 512.726562 418.796875 512.554688 417 C 512.378906 415.207031 512.160156 413.417969 511.894531 411.632812 C 511.632812 409.847656 511.328125 408.074219 510.976562 406.304688 C 510.628906 404.535156 510.234375 402.773438 509.796875 401.023438 C 509.359375 399.277344 508.882812 397.539062 508.359375 395.8125 C 507.839844 394.085938 507.273438 392.371094 506.667969 390.675781 C 506.0625 388.976562 505.417969 387.292969 504.726562 385.625 C 504.039062 383.957031 503.3125 382.308594 502.542969 380.679688 C 501.773438 379.046875 500.964844 377.4375 500.113281 375.84375 C 499.265625 374.253906 498.378906 372.683594 497.453125 371.136719 C 496.527344 369.589844 495.566406 368.0625 494.566406 366.5625 C 493.566406 365.0625 492.527344 363.585938 491.457031 362.136719 C 490.382812 360.6875 489.277344 359.265625 488.132812 357.867188 C 486.992188 356.472656 485.816406 355.105469 484.605469 353.769531 C 483.394531 352.429688 482.15625 351.125 480.878906 349.847656 C 479.605469 348.570312 478.300781 347.324219 476.96875 346.113281 C 475.632812 344.898438 474.269531 343.71875 472.875 342.574219 C 471.484375 341.425781 470.0625 340.316406 468.617188 339.238281 C 467.167969 338.164062 465.695312 337.121094 464.199219 336.117188 C 462.699219 335.113281 461.175781 334.148438 459.632812 333.21875 C 458.085938 332.289062 456.519531 331.398438 454.929688 330.542969 C 453.339844 329.691406 451.730469 328.878906 450.097656 328.105469 C 448.46875 327.332031 446.824219 326.597656 445.15625 325.90625 C 443.492188 325.210938 441.808594 324.558594 440.113281 323.949219 C 438.414062 323.339844 436.703125 322.769531 434.976562 322.246094 C 433.253906 321.71875 431.515625 321.234375 429.765625 320.792969 C 428.015625 320.351562 426.257812 319.953125 424.488281 319.597656 C 422.722656 319.242188 420.945312 318.933594 419.160156 318.664062 C 417.375 318.394531 415.585938 318.171875 413.792969 317.992188 C 411.996094 317.8125 410.199219 317.675781 408.398438 317.582031 C 406.59375 317.492188 404.792969 317.445312 402.988281 317.441406 C 401.183594 317.4375 399.382812 317.476562 397.578125 317.5625 C 395.777344 317.648438 393.980469 317.777344 392.183594 317.949219 C 390.386719 318.125 388.597656 318.339844 386.8125 318.601562 C 385.027344 318.863281 383.25 319.167969 381.480469 319.515625 C 379.710938 319.863281 377.949219 320.253906 376.199219 320.6875 C 374.449219 321.125 372.707031 321.601562 370.980469 322.121094 C 369.253906 322.640625 367.539062 323.203125 365.839844 323.804688 C 364.140625 324.410156 362.457031 325.054688 360.789062 325.742188 C 359.121094 326.429688 357.46875 327.15625 355.835938 327.921875 C 354.203125 328.691406 352.59375 329.496094 351 330.34375 C 349.40625 331.191406 347.835938 332.074219 346.285156 333 C 344.734375 333.921875 343.210938 334.882812 341.707031 335.882812 C 340.207031 336.878906 338.730469 337.914062 337.277344 338.984375 C 335.824219 340.054688 334.402344 341.160156 333.003906 342.300781 C 331.605469 343.445312 330.238281 344.617188 328.898438 345.824219 C 327.558594 347.035156 326.25 348.273438 324.972656 349.546875 C 323.691406 350.816406 322.445312 352.121094 321.230469 353.453125 C 320.015625 354.785156 318.835938 356.148438 317.6875 357.539062 C 316.539062 358.929688 315.425781 360.347656 314.347656 361.792969 C 313.269531 363.242188 312.226562 364.710938 311.222656 366.207031 C 310.214844 367.707031 309.246094 369.226562 308.316406 370.769531 C 307.382812 372.316406 306.492188 373.882812 305.636719 375.46875 C 304.78125 377.058594 303.96875 378.664062 303.191406 380.292969 C 302.417969 381.921875 301.679688 383.566406 300.984375 385.230469 C 300.292969 386.894531 299.636719 388.578125 299.027344 390.273438 C 298.414062 391.96875 297.84375 393.679688 297.316406 395.402344 C 296.785156 397.128906 296.300781 398.863281 295.855469 400.613281 C 295.414062 402.359375 295.015625 404.117188 294.65625 405.886719 C 294.300781 407.652344 293.988281 409.429688 293.71875 411.210938 C 293.449219 412.996094 293.222656 414.78125 293.039062 416.578125 C 292.859375 418.371094 292.71875 420.167969 292.625 421.96875 C 292.53125 423.769531 292.484375 425.570312 292.476562 427.375 C 292.476562 429.183594 292.519531 430.988281 292.609375 432.792969 C 292.695312 434.597656 292.828125 436.398438 293.003906 438.195312 C 293.179688 439.992188 293.402344 441.785156 293.664062 443.574219 C 293.929688 445.359375 294.238281 447.140625 294.589844 448.910156 C 294.941406 450.683594 295.335938 452.445312 295.773438 454.199219 C 296.210938 455.953125 296.691406 457.691406 297.214844 459.421875 C 297.738281 461.152344 298.300781 462.867188 298.910156 464.566406 C 299.515625 466.269531 300.164062 467.953125 300.855469 469.625 C 301.546875 471.292969 302.277344 472.945312 303.046875 474.578125 C 303.816406 476.214844 304.628906 477.828125 305.480469 479.421875 C 306.328125 481.015625 307.21875 482.585938 308.144531 484.136719 C 309.074219 485.6875 310.039062 487.214844 311.039062 488.71875 C 312.042969 490.222656 313.082031 491.699219 314.15625 493.152344 C 315.230469 494.605469 316.339844 496.03125 317.484375 497.425781 C 318.628906 498.824219 319.808594 500.195312 321.019531 501.535156 C 322.230469 502.875 323.476562 504.183594 324.75 505.464844 C 326.027344 506.742188 327.332031 507.992188 328.671875 509.207031 C 330.007812 510.421875 331.375 511.601562 332.769531 512.75 C 334.164062 513.898438 335.585938 515.011719 337.035156 516.089844 C 338.488281 517.167969 339.960938 518.210938 341.460938 519.21875 C 342.964844 520.222656 344.488281 521.191406 346.035156 522.125 C 347.585938 523.054688 349.15625 523.949219 350.746094 524.804688 C 352.339844 525.660156 353.953125 526.472656 355.585938 527.25 C 357.21875 528.023438 358.867188 528.757812 360.535156 529.453125 C 362.203125 530.148438 363.886719 530.800781 365.589844 531.414062 C 367.289062 532.027344 369.003906 532.597656 370.730469 533.125 C 372.460938 533.652344 374.199219 534.136719 375.953125 534.582031 C 377.703125 535.023438 379.464844 535.421875 381.238281 535.777344 C 383.007812 536.136719 384.789062 536.449219 386.574219 536.71875 C 388.363281 536.984375 390.15625 537.210938 391.953125 537.394531 C 393.75 537.574219 395.554688 537.710938 397.359375 537.804688 C 399.164062 537.898438 400.96875 537.945312 402.777344 537.949219 Z M 402.777344 537.949219 " fill-opacity="1" fill-rule="evenodd"/><path fill="#ffffff" d="M 498.53125 473.132812 L 498.53125 435.605469 L 498.851562 434.964844 L 499.8125 433.316406 L 500.820312 431.351562 L 501.824219 429.339844 L 502.785156 427.375 L 503.46875 425.410156 L 504.429688 423.445312 L 505.117188 421.113281 L 506.398438 417.183594 L 507.082031 415.535156 L 507.675781 414.53125 L 508.316406 414.53125 C 508.683594 418.828125 509.003906 423.125 509.003906 427.375 C 509.03125 435.277344 508.183594 443.085938 506.464844 450.800781 C 504.742188 458.515625 502.191406 465.945312 498.804688 473.085938 Z M 498.53125 426.734375 L 498.851562 425.730469 L 499.8125 423.765625 L 500.5 421.796875 L 501.136719 419.832031 L 501.824219 417.820312 L 502.464844 416.175781 L 503.105469 414.210938 L 503.789062 412.246094 L 504.109375 410.597656 C 502.464844 405.664062 500.820312 400.40625 498.53125 395.148438 Z M 498.53125 395.148438 L 498.53125 426.734375 L 498.167969 427.375 L 497.207031 429.339844 L 496.199219 431.351562 L 495.238281 432.996094 L 494.554688 433.957031 L 471.09375 431.671875 L 470.636719 430.53125 L 470.273438 428.882812 L 469.632812 427.238281 L 469.3125 425.957031 L 468.625 424.3125 L 467.34375 421.023438 L 466.523438 419.148438 L 465.882812 417.503906 L 464.875 415.855469 L 464.234375 414.210938 L 463.230469 412.566406 L 462.589844 410.917969 L 461.949219 409.59375 L 460.988281 407.949219 L 460.300781 406.667969 L 459.34375 405.34375 L 458.335938 404.015625 L 458.335938 359.90625 L 468.214844 359.90625 L 470.5 360.226562 L 475.074219 360.226562 L 477.039062 360.59375 C 485.8125 371.109375 492.976562 382.628906 498.53125 395.148438 Z M 498.53125 435.601562 L 498.53125 473.132812 C 497.207031 475.785156 495.558594 478.707031 494.234375 481.359375 L 492.585938 479.714844 C 495.046875 472.871094 496.703125 465.835938 497.554688 458.609375 C 498.402344 451.386719 498.425781 444.160156 497.617188 436.929688 L 497.9375 436.929688 L 498.625 435.605469 Z M 458.015625 517.882812 L 458.015625 502.433594 L 458.65625 501.425781 C 469.6875 496.355469 480.007812 490.105469 489.613281 482.6875 L 491.945312 484.972656 C 487.660156 491.707031 482.648438 497.859375 476.914062 503.417969 C 471.183594 508.980469 464.882812 513.800781 458.015625 517.882812 Z M 458.015625 451.097656 C 461.433594 445.820312 464.484375 440.335938 467.160156 434.644531 L 466.796875 433.316406 L 466.523438 431.671875 L 466.523438 430.027344 L 465.882812 428.382812 L 465.515625 427.054688 L 464.234375 423.765625 L 463.550781 422.117188 L 462.910156 420.792969 L 461.949219 419.148438 L 461.308594 417.503906 L 460.667969 416.175781 L 459.664062 414.53125 L 459.023438 412.886719 L 458.015625 411.605469 Z M 458.015625 355.976562 L 458.015625 337.691406 C 464.960938 341.886719 471.332031 346.824219 477.128906 352.5 C 476.917969 353.84375 476.582031 355.152344 476.125 356.433594 L 475.210938 356.433594 L 472.921875 356.113281 L 466.019531 356.113281 L 463.6875 355.792969 L 461.398438 355.792969 L 459.433594 356.113281 Z M 458.015625 337.691406 L 458.015625 355.976562 L 456.050781 355.976562 C 452.410156 352.675781 448.566406 349.628906 444.527344 346.832031 L 444.527344 330.375 C 449.238281 332.535156 453.8125 334.957031 458.246094 337.644531 Z M 458.015625 360.042969 L 458.015625 403.835938 L 457.011719 402.1875 L 456.050781 400.863281 L 454.722656 399.21875 L 453.71875 397.890625 L 452.804688 396.429688 L 451.796875 394.785156 L 450.472656 393.503906 L 449.511719 392.179688 L 449.191406 391.859375 C 453.5 381.722656 456.226562 371.179688 457.375 360.226562 L 458.015625 359.90625 Z M 458.015625 411.742188 L 457.375 409.960938 L 456.371094 408.632812 L 455.363281 406.988281 L 454.402344 405.984375 L 453.398438 404.65625 L 452.527344 403.101562 L 451.523438 401.824219 L 450.515625 400.496094 L 449.554688 398.851562 L 448.550781 397.527344 L 447.222656 396.199219 L 446.265625 394.875 L 445.257812 393.59375 L 444.617188 393.59375 L 444.617188 468.925781 L 445.257812 468.925781 C 449.917969 463.289062 454.203125 457.375 458.109375 451.191406 L 458.109375 411.605469 Z M 458.015625 502.570312 L 458.015625 518.019531 C 453.585938 520.707031 449.011719 523.132812 444.296875 525.289062 L 444.296875 517.378906 L 445.257812 516.695312 L 447.269531 514.730469 L 449.554688 512.761719 L 451.523438 510.476562 L 453.488281 508.148438 L 455.136719 505.859375 L 457.148438 503.53125 L 457.789062 502.570312 Z M 444.296875 511.710938 L 444.617188 511.710938 L 446.265625 509.746094 L 448.230469 507.78125 L 450.195312 505.496094 L 452.207031 503.484375 L 453.855469 501.199219 L 455.5 498.546875 L 455.820312 498.546875 C 453.085938 489.722656 449.457031 481.28125 444.9375 473.222656 L 444.296875 473.222656 Z M 402.777344 321.738281 C 405.832031 321.667969 408.878906 321.777344 411.921875 322.058594 L 412.5625 323.0625 L 412.882812 324.023438 L 413.566406 325.027344 L 413.886719 326.355469 L 414.207031 327.3125 L 414.527344 328.640625 L 414.894531 329.644531 L 415.214844 330.972656 L 415.535156 331.929688 L 415.855469 333.257812 L 416.175781 334.261719 L 416.175781 334.902344 C 407.023438 338.363281 398.578125 343.089844 390.839844 349.074219 L 390.839844 322.378906 C 394.773438 322.058594 399.070312 321.738281 403.003906 321.738281 Z M 444.617188 330.285156 L 444.617188 346.742188 C 437.152344 341.355469 429.027344 337.285156 420.246094 334.535156 L 419.925781 333.210938 L 419.605469 332.207031 L 419.605469 330.925781 L 419.238281 329.601562 L 418.917969 328.59375 L 418.277344 327.269531 L 417.957031 325.988281 L 417.59375 324.664062 L 416.953125 323.335938 L 416.632812 322.699219 C 426.300781 323.953125 435.628906 326.464844 444.617188 330.238281 Z M 444.617188 393.503906 L 444.617188 468.835938 L 443.613281 469.199219 L 440.640625 469.199219 L 438.992188 469.519531 L 434.742188 469.519531 L 433.09375 469.839844 L 417.957031 469.839844 L 416.632812 469.519531 L 412.058594 469.519531 L 410.414062 469.199219 L 408.765625 469.199219 L 407.121094 468.835938 L 406.113281 468.835938 L 404.46875 468.515625 L 402.820312 468.515625 L 401.542969 468.195312 C 397.5625 461.613281 394.269531 455.03125 390.65625 448.449219 L 390.65625 412.246094 L 391.664062 410.917969 L 392.945312 408.3125 L 394.589844 406.304688 L 396.238281 403.695312 L 398.25 401.367188 L 399.894531 399.082031 L 401.859375 397.113281 L 403.828125 394.785156 L 404.46875 394.144531 C 417.84375 392.417969 431.242188 392.207031 444.664062 393.503906 Z M 444.617188 473.132812 L 444.617188 511.621094 L 442.652344 513.265625 L 440.640625 515.277344 L 438.671875 516.921875 L 436.386719 518.570312 L 434.421875 520.214844 L 432.089844 521.859375 L 429.800781 523.140625 L 427.835938 524.464844 C 415.425781 526.28125 403.019531 526.28125 390.613281 524.464844 L 390.613281 484.011719 C 394.519531 480.621094 397.921875 476.78125 400.808594 472.492188 L 402.5 472.492188 L 403.828125 472.8125 L 405.472656 472.8125 L 406.800781 473.132812 L 408.445312 473.132812 L 410.09375 473.453125 L 413.066406 473.453125 L 414.710938 473.773438 L 420.792969 473.773438 L 422.4375 474.136719 L 430.351562 474.136719 L 431.675781 473.773438 L 437.941406 473.773438 L 439.265625 473.453125 L 442.195312 473.453125 L 443.839844 473.132812 Z M 444.617188 517.242188 L 443.292969 518.570312 L 441.324219 520.214844 L 439.085938 521.953125 L 436.796875 523.597656 L 434.511719 525.242188 L 433.503906 525.882812 L 434.511719 528.855469 C 437.972656 527.824219 441.371094 526.617188 444.710938 525.242188 L 444.710938 517.378906 Z M 390.613281 404.65625 L 391.253906 404.015625 L 392.898438 401.367188 L 394.910156 399.082031 L 396.875 396.429688 L 398.84375 394.144531 L 399.847656 392.816406 C 397.660156 383.535156 394.613281 374.546875 390.703125 365.847656 Z M 390.613281 349.074219 C 389.285156 350.351562 387.640625 351.679688 386.3125 353.003906 L 384.210938 353.003906 L 383.019531 352.820312 L 379.636719 352.820312 L 379.636719 324.386719 C 383.316406 323.40625 387.050781 322.738281 390.839844 322.378906 L 390.839844 349.074219 Z M 390.613281 365.847656 L 390.613281 404.65625 L 389.605469 406.667969 L 387.960938 408.953125 L 386.3125 411.605469 L 384.667969 414.210938 L 383.386719 416.863281 L 381.742188 419.46875 L 380.414062 422.4375 L 379.410156 424.40625 L 379.410156 356.933594 L 386.679688 356.933594 Z M 390.613281 412.246094 L 389.972656 413.570312 L 388.324219 416.175781 L 387 418.828125 L 385.671875 421.480469 L 384.027344 424.085938 L 382.699219 427.054688 L 381.375 429.707031 L 381.375 430.027344 C 384.347656 435.921875 387.320312 442.1875 390.519531 448.3125 L 390.519531 412.246094 Z M 390.613281 484.011719 L 390.613281 524.464844 L 388.964844 522.5 L 387.320312 520.535156 L 385.671875 518.203125 L 384.347656 516.238281 L 382.699219 513.953125 L 381.375 511.621094 L 380.09375 509.335938 L 379.636719 508.695312 L 379.636719 492.558594 C 383.59375 490 387.328125 487.152344 390.839844 484.011719 Z M 379.636719 526.523438 L 385.582031 524.558594 L 384.253906 522.910156 L 382.609375 520.945312 L 380.964844 518.660156 L 379.636719 516.648438 Z M 379.636719 352.820312 L 377.671875 352.820312 L 376.34375 353.140625 L 370.492188 353.140625 L 369.164062 353.460938 L 366.511719 353.460938 L 365.234375 353.78125 L 362.582031 353.78125 L 360.933594 354.148438 L 359.609375 354.148438 L 358.28125 354.464844 L 357 354.464844 L 355.675781 354.785156 L 354.347656 354.785156 L 353.023438 355.105469 L 351.695312 355.425781 L 350.738281 355.425781 L 349.410156 355.792969 L 348.085938 356.113281 C 343.832031 352.5 338.9375 347.5625 342.824219 340.617188 C 348.347656 336.78125 354.183594 333.507812 360.335938 330.800781 C 366.492188 328.09375 372.847656 326.003906 379.410156 324.527344 L 379.410156 352.820312 Z M 379.636719 357.070312 L 379.636719 424.40625 L 379.316406 425.089844 L 377.992188 427.695312 C 366.789062 429.339844 355.125 430.027344 343.738281 430.667969 L 343.054688 430.667969 L 342.414062 429.019531 L 341.40625 427.695312 L 340.449219 426.414062 L 339.761719 425.089844 L 338.800781 423.765625 L 338.480469 422.4375 L 337.519531 420.792969 L 336.835938 419.46875 L 335.875 418.1875 L 334.960938 416.816406 L 334.320312 415.492188 L 333.632812 413.84375 L 332.992188 412.839844 L 332.992188 383.585938 C 337.367188 375.269531 342.519531 367.46875 348.449219 360.179688 L 348.816406 359.859375 L 350.097656 359.539062 L 351.421875 359.539062 L 352.75 359.21875 L 353.753906 359.21875 L 355.035156 358.902344 L 356.359375 358.535156 L 357.6875 358.535156 L 359.011719 358.214844 L 360.339844 358.214844 L 361.621094 357.894531 L 362.945312 357.894531 L 364.273438 357.574219 L 366.925781 357.574219 L 368.203125 357.390625 L 372.183594 357.390625 L 373.507812 357.027344 L 379.636719 357.027344 Z M 379.636719 492.695312 L 379.636719 508.832031 L 378.996094 507.507812 L 377.671875 505.175781 L 376.664062 502.890625 L 375.382812 500.605469 L 374.699219 498.273438 L 373.738281 495.988281 C 375.703125 494.980469 377.671875 493.65625 379.636719 492.695312 Z M 379.636719 516.695312 L 379.636719 516.375 L 377.992188 514.089844 L 376.664062 511.757812 L 375.382812 509.472656 L 374.058594 506.820312 L 372.730469 504.535156 L 371.726562 502.25 L 370.765625 499.597656 L 369.757812 497.3125 L 369.441406 495.988281 C 362.902344 494.320312 356.710938 491.808594 350.855469 488.457031 C 345.003906 485.105469 339.707031 481.03125 334.960938 476.242188 L 334.640625 476.242188 L 333.3125 476.5625 L 332.992188 476.878906 L 332.992188 507.507812 C 338.214844 512.050781 343.816406 516.066406 349.800781 519.546875 C 355.78125 523.03125 362.039062 525.917969 368.570312 528.214844 C 372.339844 528.164062 376.027344 527.601562 379.636719 526.523438 L 379.636719 516.648438 Z M 332.992188 472.125 L 333.3125 472.125 C 332.789062 465.433594 333.082031 458.777344 334.195312 452.15625 C 335.308594 445.535156 337.210938 439.148438 339.898438 432.996094 L 338.9375 431.351562 L 337.933594 430.027344 L 337.292969 428.699219 L 336.285156 427.375 L 335.28125 425.957031 L 334.640625 424.632812 L 333.632812 423.351562 L 332.992188 422.027344 L 332.992188 472.308594 Z M 332.992188 383.628906 L 332.992188 412.886719 L 332.671875 412.566406 L 331.988281 411.238281 L 331.347656 409.960938 L 330.707031 408.632812 L 330.019531 406.988281 L 329.335938 405.984375 L 328.648438 404.65625 L 328.007812 403.378906 L 327.6875 402.050781 L 327.003906 400.726562 L 326.363281 399.398438 L 326.042969 398.074219 L 325.722656 397.753906 C 328.007812 392.816406 330.296875 388.203125 332.949219 383.628906 Z M 332.992188 421.480469 L 331.988281 420.152344 L 331.347656 418.828125 L 330.707031 417.5 L 329.703125 415.855469 L 329.0625 414.53125 L 328.375 413.25 L 327.734375 411.605469 L 327.050781 410.28125 L 326.410156 408.953125 L 325.769531 407.675781 L 325.082031 406.347656 L 324.441406 405.070312 L 323.757812 403.742188 L 323.117188 402.097656 L 322.476562 400.773438 C 318 401.035156 313.609375 401.800781 309.304688 403.058594 L 308.941406 403.742188 L 308.300781 405.070312 L 307.292969 406.347656 L 306.652344 407.355469 L 306.332031 408.679688 L 305.648438 410.324219 L 305.007812 411.652344 L 304.6875 413.296875 L 304 414.941406 L 303.679688 416.585938 L 303.042969 418.234375 L 302.722656 419.878906 L 302.355469 421.386719 L 302.035156 423.03125 L 302.035156 455.671875 C 305.816406 463.027344 310.753906 469.503906 316.851562 475.097656 L 320.191406 475.097656 L 321.515625 474.777344 L 323.160156 474.457031 L 324.761719 474.457031 L 326.089844 474.136719 L 327.734375 473.773438 L 329.382812 473.453125 L 330.707031 472.8125 L 331.988281 472.492188 L 332.992188 472.125 L 332.992188 421.386719 Z M 332.992188 476.742188 L 332.992188 507.371094 C 327.6875 502.871094 322.960938 497.828125 318.816406 492.238281 C 318.816406 487.941406 319.183594 483.097656 319.503906 479.074219 L 322.109375 479.074219 L 323.757812 478.710938 L 325.402344 478.390625 L 327.050781 478.070312 L 330.339844 477.429688 L 331.988281 477.0625 Z M 301.898438 407.949219 L 301.898438 394.234375 C 302.21875 393.59375 302.21875 392.910156 302.585938 392.269531 C 303.847656 395.019531 304.824219 397.871094 305.511719 400.816406 L 305.191406 401.136719 L 304.230469 402.78125 L 303.542969 404.109375 L 302.902344 405.753906 L 302.21875 406.761719 Z M 301.898438 394.234375 L 301.898438 407.949219 L 301.578125 408.632812 L 300.9375 410.28125 L 300.570312 411.925781 L 299.933594 413.570312 L 299.613281 415.535156 L 298.925781 417.183594 L 298.605469 418.828125 L 298.285156 420.792969 L 297.644531 422.4375 L 297.28125 424.085938 L 297.324219 425.957031 L 297.003906 427.605469 L 297.003906 427.285156 C 296.800781 416.070312 298.429688 405.128906 301.898438 394.464844 Z M 301.898438 422.894531 L 301.578125 424.863281 L 300.9375 428.152344 L 300.570312 430.117188 L 300.25 431.765625 L 299.933594 433.410156 L 299.613281 435.054688 L 299.613281 437.019531 L 299.292969 438.667969 L 298.925781 441.957031 L 298.605469 443.601562 L 298.285156 445.25 L 298.285156 446.253906 C 298.605469 447.578125 298.605469 448.539062 298.925781 449.867188 C 299.246094 451.191406 300.9375 453.476562 301.898438 455.441406 Z M 301.898438 422.894531 " fill-opacity="1" fill-rule="evenodd"/></svg>