<svg xmlns="http://www.w3.org/2000/svg" viewBox="0 0 125.14 176.83"><defs><style>.cls-1{fill:#ae9943;}.cls-1,.cls-2,.cls-3{fill-rule:evenodd;}.cls-2,.cls-4{fill:#fff;}.cls-3{fill:#e62049;}</style></defs><title>Eszköz 1</title><g id="Réteg_2" data-name="Réteg 2"><g id="Layer_1" data-name="Layer 1"><path class="cls-1" d="M125.14,0H0V114.26a62.75,62.75,0,0,0,62.57,62.57h0a62.8,62.8,0,0,0,62.57-62.57Z"/><polygon class="cls-2" points="62.57 172.01 65.52 171.94 68.4 171.72 71.28 171.36 74.16 170.86 76.9 170.21 79.63 169.42 82.3 168.48 84.96 167.47 87.48 166.32 90 165.02 92.38 163.66 94.75 162.14 96.98 160.49 99.22 158.83 101.3 156.96 103.32 155.09 105.26 153.07 107.06 150.98 108.79 148.75 110.38 146.52 111.89 144.14 113.33 141.77 114.55 139.25 115.78 136.66 116.78 134.06 117.72 131.4 118.44 128.66 119.09 125.86 119.66 123.05 120.02 120.17 120.24 117.22 120.31 114.19 120.31 23.76 4.82 23.76 4.82 114.19 4.9 117.22 5.11 120.17 5.47 123.05 5.98 125.86 6.62 128.66 7.42 131.4 8.35 134.06 9.36 136.66 10.51 139.25 11.81 141.77 13.25 144.14 14.76 146.52 16.34 148.75 18.07 150.98 19.87 153.07 21.82 155.09 23.83 156.96 25.92 158.83 28.08 160.49 30.38 162.14 32.69 163.66 35.14 165.02 37.66 166.32 40.18 167.47 42.77 168.48 45.5 169.42 48.24 170.21 50.98 170.86 53.86 171.36 56.74 171.72 59.62 171.94 62.57 172.01"/><path class="cls-3" d="M73.44,167.83l.07-.07,2.59-.58,2.6-.72,2.52-.86,2.52-1,2.37-1.08,2.38-1.22,2.3-1.3L93,159.55,95.18,158l2-1.66,2-1.72,1.87-1.8L103,151l1.73-2,1.58-2.09,1.51-2.16,1.44-2.16,1.37-2.3,1.15-2.38,1.16-2.38.93-2.52.87-2.52.79-2.59.57-2.59.51-2.74.36-2.66.21-2.81.08-2.88v-9H73.44v62.64Zm43.78-85.25V27.29H73.44V82.58ZM50.9,27.29h-43V82.58h43V27.29Zm-43,77.9v9L8,117.07l.22,2.81.36,2.66.5,2.74.58,2.59.79,2.59L11.3,133l.94,2.52,1.08,2.38,1.22,2.38,1.37,2.3,1.37,2.16,1.58,2.16L20.45,149l1.73,2,1.8,1.88,1.94,1.8,2,1.72L30,158l2.16,1.51L34.34,161l2.31,1.3,2.3,1.22,2.45,1.08,2.45,1,2.59.86,2.52.72,1.94.44V105.19Z"/><path class="cls-2" d="M62.06,121.75A28.37,28.37,0,1,0,33.7,93.31,28.43,28.43,0,0,0,62.06,121.75Z"/><path class="cls-2" d="M92.81,46.8a10.19,10.19,0,0,1,1.58-.14c.36.72-1.22,6.91,1.59,8.64-2.81,1.72-1.23,8-1.59,8.71a9,9,0,0,1-1.58-.15v3.68l5.25.93c8.79,1.66,7.92-4.68,5.84-5.69a2.72,2.72,0,0,0-3.82,2.52l-.72-.14C97.7,64.87,97,61.85,97.7,59c.29-1.51,2-1.66,2.31-3.67-.29-2-2-2.16-2.31-3.6-.72-3,0-5.91,1.66-6.27l.72-.14a2.69,2.69,0,0,0,3.82,2.52c2.08-.94,2.95-7.27-5.84-5.69l-5.25,1Zm-3.17,8.5V49.61c0-1.66.58-2.45,3.17-2.81V43.13l-1.3.21c-4,.72-5.11.72-5.11,5.19V62.14c0,4.46,1.15,4.46,5,5.11l1.44.29V63.86c-2.59-.36-3.17-1.15-3.17-2.8Z"/><path class="cls-2" d="M34.78,55.3V49.61c0-1.66-.58-2.45-3.1-2.81V43.13l1.3.21c3.88.72,5.11.72,5.11,5.19V62.14c0,4.46-1.23,4.46-5,5.11l-1.37.29V63.86c2.52-.36,3.1-1.15,3.1-2.8Zm-3.1-8.5a11.05,11.05,0,0,0-1.58-.14c-.36.72,1.22,6.91-1.59,8.64,2.81,1.72,1.23,8,1.59,8.71a9.74,9.74,0,0,0,1.58-.15v3.68l-5.26.93c-8.78,1.66-7.92-4.68-5.9-5.69a2.78,2.78,0,0,1,3.89,2.52l.72-.14c1.65-.29,2.37-3.31,1.65-6.19-.36-1.51-2-1.66-2.37-3.67.36-2,2-2.16,2.37-3.6.72-3,0-5.91-1.65-6.27l-.72-.14a2.75,2.75,0,0,1-3.89,2.52c-2-.94-2.88-7.27,5.9-5.69l5.26,1Z"/><path class="cls-2" d="M92.81,121.61a10.1,10.1,0,0,1,1.58-.15c.36.72-1.22,6.92,1.59,8.72-2.81,1.72-1.23,7.92-1.59,8.64a10.1,10.1,0,0,1-1.58-.15v3.67l5.25,1c8.79,1.59,7.92-4.75,5.84-5.69a2.69,2.69,0,0,0-3.82,2.52l-.72-.14c-1.66-.36-2.38-3.31-1.66-6.26.29-1.44,2-1.59,2.31-3.6-.29-2-2-2.16-2.31-3.68-.72-3,0-5.9,1.66-6.26l.72-.14a2.75,2.75,0,0,0,3.82,2.59c2.08-1,2.95-7.35-5.84-5.69l-5.25.94Zm-3.17,8.57v-5.76c0-1.66.58-2.45,3.17-2.81v-3.67l-1.3.28c-4,.72-5.11.65-5.11,5.12v13.6c0,4.47,1.15,4.47,5,5.19l1.44.21v-3.67c-2.59-.36-3.17-1.15-3.17-2.81Z"/><path class="cls-2" d="M34.78,130.18v-5.76c0-1.66-.58-2.45-3.1-2.81v-3.67l1.3.28c3.88.72,5.11.65,5.11,5.12v13.6c0,4.47-1.23,4.47-5,5.19l-1.37.21v-3.67c2.52-.36,3.1-1.15,3.1-2.81Zm-3.1-8.57a11,11,0,0,0-1.58-.15c-.36.72,1.22,6.92-1.59,8.72,2.81,1.72,1.23,7.92,1.59,8.64a11,11,0,0,0,1.58-.15v3.67l-5.26,1c-8.78,1.59-7.92-4.75-5.9-5.69a2.75,2.75,0,0,1,3.89,2.52l.72-.14c1.65-.36,2.37-3.31,1.65-6.26-.36-1.44-2-1.59-2.37-3.6.36-2,2-2.16,2.37-3.68.72-3,0-5.9-1.65-6.26l-.72-.14a2.81,2.81,0,0,1-3.89,2.59c-2-1-2.88-7.35,5.9-5.69l5.26.94Z"/><path class="cls-4" d="M35.35,4.25a10.28,10.28,0,0,1,2.88.36,6.24,6.24,0,0,1,2.52,1.44,3.22,3.22,0,0,1,1,2.3,3.59,3.59,0,0,1-1.58,3,6.88,6.88,0,0,1-4.32,1.15h-.51v-.87a5,5,0,0,0,2.09-.86,2.71,2.71,0,0,0,1.08-2.23,3.23,3.23,0,0,0-.5-1.8,4.24,4.24,0,0,0-2.67-1.44Zm-3.17,8.28v4a2.91,2.91,0,0,0,.36,1.8,1.82,1.82,0,0,0,1.44.65h.72v.43H26.57v-.43h.72a1.37,1.37,0,0,0,1.37-.65,2.85,2.85,0,0,0,.28-1.66V6.84a2.73,2.73,0,0,0-.36-1.73,1.44,1.44,0,0,0-1.29-.5h-.72V4.18H34.2a6,6,0,0,1,1.15.07V5.33a11.77,11.77,0,0,0-3.17-.15v6.48c.87.08,1.8,0,2.6,0h.57v.87Z"/><path class="cls-4" d="M57.53,4.18l.21,4h-.5c-.65-2.6-2.3-2.88-4.75-3v-1Zm-5,6.91a16.19,16.19,0,0,1,3.09.29,5,5,0,0,1,2.67,1.36,3.26,3.26,0,0,1,1,2.38,3.73,3.73,0,0,1-1.59,3c-1,.79-2.73,1.23-5.18,1.3v-1a7.1,7.1,0,0,0,2.09-.72,2.84,2.84,0,0,0,1.58-2.45,2.52,2.52,0,0,0-1.66-2.37,7.9,7.9,0,0,0-2-.65Zm0-5.91H48.82V11H50.4a19.49,19.49,0,0,1,2.09.07v1.08A9.82,9.82,0,0,0,50.33,12H48.82V18.5a20.45,20.45,0,0,0,2.23,0,10.17,10.17,0,0,0,1.44-.14v1H43.06v-.43a5.76,5.76,0,0,0,2.3-.44,2.82,2.82,0,0,0,.5-1.94V7a4,4,0,0,0-.21-1.58,1.22,1.22,0,0,0-.72-.58,14.15,14.15,0,0,0-1.66-.21V4.18h9.22Z"/><path class="cls-4" d="M76.82,6.7c0-.94-.21-1.52-.64-1.73a5.29,5.29,0,0,0-2.38-.36V4.18h8.78v.43A5.11,5.11,0,0,0,80.14,5,2.85,2.85,0,0,0,79.63,7v9.58a2.81,2.81,0,0,0,.51,1.94,6.34,6.34,0,0,0,2.44.44v.43H73.8v-.43a6.36,6.36,0,0,0,2.45-.44,2.46,2.46,0,0,0,.57-1.94V7.92l-9.36,9a4.55,4.55,0,0,0,.15,1.3c.07.21.36.36.72.5a6.53,6.53,0,0,0,2,.22v.43H61.7v-.43a6.23,6.23,0,0,0,2.38-.44c.36-.28.5-.93.5-1.94V7c0-1-.14-1.65-.5-1.94a5,5,0,0,0-2.38-.43V4.18h8.64v.43A5,5,0,0,0,68,5c-.36.29-.51.94-.51,1.94V15.7Z"/><path class="cls-4" d="M88.42,4.61V4.18h8.13v.43h-.72a2.17,2.17,0,0,0-1.65.57,2.64,2.64,0,0,0-.36,1.66v7.42a6.29,6.29,0,0,1-.51,2.8,3.76,3.76,0,0,1-1.58,1.8,4.58,4.58,0,0,1-2.81.8,3.38,3.38,0,0,1-2-.51A1.5,1.5,0,0,1,86.11,18a1.2,1.2,0,0,1,.36-.86,1.75,1.75,0,0,1,1.08-.36,1.08,1.08,0,0,1,.79.28,4,4,0,0,1,.94,1.23c.22.43.43.57.79.57a.79.79,0,0,0,.72-.36,1.8,1.8,0,0,0,.36-1.29V6.84a3.8,3.8,0,0,0-.21-1.51,1.29,1.29,0,0,0-.58-.43,2.77,2.77,0,0,0-1.3-.29Z"/><path class="cls-4" d="M109.58,14.26h-3.81v-.8h3.45l-3.45-6.12V4.9l.57-1h.51l7,12.53a5.58,5.58,0,0,0,1.59,2,4.22,4.22,0,0,0,1.87.51v.43h-7.92v-.43a6.07,6.07,0,0,0,1.65-.29c.29-.22.44-.43.44-.65a3.61,3.61,0,0,0-.65-1.58Zm-3.81,0h-4l-1.37,2.37a4.55,4.55,0,0,0-.5,1.37.68.68,0,0,0,.43.58,5,5,0,0,0,1.94.36v.43H96v-.43a4.85,4.85,0,0,0,1.58-.44,6.36,6.36,0,0,0,1.73-2.16L105.77,4.9V7.42l-3.46,6h3.46Z"/><path class="cls-4" d="M24.19,3.89l.51,5.4h-.44a7.3,7.3,0,0,0-2.59-3.6,7.06,7.06,0,0,0-4-1,8.23,8.23,0,0,0-3.53.72,6.12,6.12,0,0,0-2.44,2.45A9.12,9.12,0,0,0,10.87,12a6.69,6.69,0,0,0,.87,3.53,5.71,5.71,0,0,0,2.52,2.38,9.63,9.63,0,0,0,3.88.79,8.06,8.06,0,0,0,3.32-.65,10.25,10.25,0,0,0,2.95-2.23l.5.14a8.82,8.82,0,0,1-3.24,2.74,10.09,10.09,0,0,1-4.61.94c-4.6,0-9.72-2.52-9.72-7.64,0-3.24,2.31-5.83,5.12-7.12a11.89,11.89,0,0,1,5-1,10.67,10.67,0,0,1,4.17.79,2.82,2.82,0,0,0,.79.22,1.23,1.23,0,0,0,.72-.22,1.83,1.83,0,0,0,.51-.79Z"/><path class="cls-1" d="M62.06,117.5A24.12,24.12,0,1,0,37.94,93.31,24.18,24.18,0,0,0,62.06,117.5Z"/><path class="cls-2" d="M83,103.32V95.11l.07-.14.21-.36.22-.43.22-.44.21-.43.15-.43.21-.43.15-.51.14-.43.14-.43.15-.36L85,90.5h.14c.08.94.15,1.88.15,2.81a23.17,23.17,0,0,1-2.23,10Zm0-10.15.07-.22.21-.43.15-.43.14-.43.15-.44.14-.36.14-.43.15-.43.07-.36c-.36-1.08-.72-2.23-1.22-3.38Zm0-6.91v6.91l-.08.14-.21.43-.22.44-.21.36-.15.21L77,94.25,76.9,94l-.08-.36-.14-.36L76.61,93l-.15-.36-.14-.36-.14-.36L76,91.51l-.14-.36-.22-.36-.14-.36-.22-.36-.14-.36L75,89.42l-.21-.36-.15-.28-.21-.29-.22-.29V78.55h2.16l.5.07h1l.43.08A32.18,32.18,0,0,1,83,86.26Zm0,8.85v8.21c-.29.58-.65,1.22-.94,1.8l-.36-.36A20.84,20.84,0,0,0,82.8,95.4h.07l.15-.29Zm-8.86,18v-3.38l.14-.22a35,35,0,0,0,6.77-4.1l.51.5a22.31,22.31,0,0,1-7.42,7.2Zm0-14.61a30.62,30.62,0,0,0,2-3.6l-.08-.29L76,94.25,76,93.89l-.14-.36-.08-.29-.14-.36-.14-.36-.15-.36-.14-.29L75,91.51l-.14-.36-.14-.29-.22-.36-.14-.36-.22-.28V98.5Zm0-20.81v-4a22.89,22.89,0,0,1,4.18,3.24,4.73,4.73,0,0,1-.22.86H77.9l-.5-.07H75.89l-.51-.07h-.5l-.43.07Zm0-4v4h-.43a24.48,24.48,0,0,0-2.52-2v-3.6a29.25,29.25,0,0,1,3,1.59Zm0,4.89v9.58l-.22-.36-.21-.29-.29-.36-.22-.29L73,86.54l-.22-.36-.29-.28-.21-.29-.07-.07A24.13,24.13,0,0,0,74,78.62h0l.14-.07Zm0,11.31h0L74,89.5l-.22-.29-.22-.36-.21-.22-.22-.29L72.94,88l-.22-.28-.22-.29-.21-.36-.22-.29-.29-.29-.21-.29-.22-.28h-.14v16.48h.14a37.61,37.61,0,0,0,2.81-3.88V89.86Zm0,19.87v3.38a29.25,29.25,0,0,1-3,1.59V113l.21-.15.44-.43.5-.43.43-.5.43-.51.36-.5.44-.51.14-.21Zm-3,2h.07l.36-.43.43-.43.43-.5.44-.44.36-.5.36-.58h.07a28.74,28.74,0,0,0-2.38-5.54h-.14ZM62.06,70.2a17.52,17.52,0,0,1,2,.07l.14.22.07.21.15.22.07.29.07.21.07.29.08.22.07.29.07.21.07.29.07.22v.14a21.49,21.49,0,0,0-5.54,3.1V70.34c.86-.07,1.8-.14,2.66-.14Zm9.15,1.87v3.6A18.61,18.61,0,0,0,65.88,73h0l-.07-.29-.07-.22v-.28l-.08-.29-.07-.22-.14-.29-.07-.28-.08-.29-.14-.29-.07-.14a23.68,23.68,0,0,1,6.12,1.65Zm0,13.83v16.48l-.22.08h-.65l-.36.07h-.93l-.36.07H65.38l-.29-.07h-1l-.36-.07h-.36l-.36-.08h-.22l-.36-.07h-.36l-.28-.07c-.87-1.44-1.59-2.88-2.38-4.32V90l.22-.29.28-.57.36-.44.36-.57.44-.51.36-.5.43-.43.43-.51.14-.14a39.21,39.21,0,0,1,8.79-.14Zm0,17.42v8.42l-.43.36-.44.44-.43.36-.5.36-.43.36-.51.36-.5.28-.43.29a28.1,28.1,0,0,1-8.14,0V105.7a12.79,12.79,0,0,0,2.23-2.52H62l.29.07h.36l.29.07h.36l.36.07h.65l.36.07H66l.36.08h1.73l.29-.08h1.37l.29-.07h.64l.36-.07Zm0,9.65-.29.29-.43.36L70,114l-.5.36-.5.36-.22.14.22.65a23.35,23.35,0,0,0,2.23-.79V113ZM59.4,88.34l.14-.14.36-.58.44-.5.43-.58.43-.5.22-.29a32.69,32.69,0,0,0-2-5.9Zm0-12.16c-.29.28-.65.57-.94.86H58L57.74,77H57V70.78a15,15,0,0,1,2.45-.44v5.84Zm0,3.67v8.49l-.22.44-.36.5-.36.58-.36.57-.28.58-.36.57-.29.65-.22.43V77.9h1.59l.86,1.95ZM59.4,90l-.14.29-.36.57-.29.58-.29.58-.36.57-.29.65-.29.58v.07c.65,1.29,1.3,2.66,2,4V90Zm0,15.7v8.85h0l-.36-.43-.36-.43-.36-.51-.29-.43-.36-.5-.29-.51-.28-.5L57,111.1v-3.53a19.84,19.84,0,0,0,2.45-1.87ZM57,115l1.3-.43-.29-.36-.36-.43-.36-.5-.29-.44Zm0-38h-.43l-.29.07H55l-.29.07h-.58l-.28.07h-.58l-.36.08h-.29l-.29.07h-.28l-.29.07h-.29l-.29.07-.29.07h-.21l-.29.08-.29.07h0c-.93-.79-2-1.87-1.15-3.39a22.78,22.78,0,0,1,8-3.52V77Zm0,.93V92.66l-.07.15-.29.57c-2.45.36-5,.51-7.49.65H49l-.14-.36-.22-.29-.21-.28-.15-.29-.21-.29L48,92.23l-.21-.36-.15-.29-.21-.28L47.23,91l-.14-.29-.15-.36-.14-.22v-6.4a30.84,30.84,0,0,1,3.38-5.12l.08-.07.28-.07h.29l.29-.07h.22l.28-.07.29-.08h.29l.29-.07h.29l.28-.07h.29l.29-.07h.58L54.5,78h.87l.29-.08H57Zm0,29.67v3.53l-.14-.29-.29-.51-.22-.5-.28-.5-.15-.51-.21-.5h0c.43-.22.86-.51,1.29-.72Zm0,5.25v-.07l-.36-.5-.29-.51-.28-.5-.29-.58-.29-.5-.22-.5-.21-.58-.22-.5-.07-.29A16.28,16.28,0,0,1,47.23,104h-.07l-.29.07-.07.07v6.7a23.92,23.92,0,0,0,7.78,4.53A8.85,8.85,0,0,0,57,115v-2.16ZM46.8,103.1h.07a17.89,17.89,0,0,1,1.44-8.56h0l-.21-.36-.22-.29-.14-.29-.22-.29L47.3,93l-.14-.29-.22-.28-.14-.29v11Zm0-19.36v6.4l-.07-.07-.15-.29-.14-.28-.14-.29-.15-.36L46,88.63l-.15-.29-.14-.28-.07-.29-.15-.29-.14-.29-.07-.29-.07-.07c.5-1.08,1-2.09,1.58-3.09Zm0,8.28-.22-.29-.14-.29-.14-.29-.22-.36-.14-.29-.15-.28-.14-.36-.15-.29-.14-.29L45.22,89l-.15-.29-.14-.28-.15-.29-.14-.36-.14-.29h0a13,13,0,0,0-2.88.5l-.08.15-.14.29-.22.28-.14.22-.07.29-.15.36-.14.29-.07.36-.15.36-.07.36-.14.36-.07.36L40.1,92l-.07.36V99.5a15.19,15.19,0,0,0,3.24,4.25H44l.29-.07.36-.07H45l.29-.07.36-.08.36-.07.29-.14.28-.07.22-.08V92Zm0,12.09v6.7a19.77,19.77,0,0,1-3.1-3.31c0-.94.08-2,.15-2.88h.57l.36-.08.36-.07.36-.07.36-.07.36-.07.36-.08.22-.07ZM40,89.06v-3c.07-.14.07-.29.15-.43a9.85,9.85,0,0,1,.64,1.87l-.07.07-.21.36-.15.29-.14.36-.15.22Zm0-3v3l-.07.15-.14.36-.08.36-.14.36-.07.43-.15.36-.07.36-.07.43-.14.36-.08.36L39,93l-.07.36v-.07A21.94,21.94,0,0,1,40,86.11Zm0,6.27h0l-.07.43-.07.36-.07.36-.08.43-.07.36-.07.36-.07.36v.43l-.07.36-.08.72-.07.36-.07.36v.22c.07.29.07.5.14.79s.44.79.65,1.22Z"/></g></g></svg>