<svg xmlns="http://www.w3.org/2000/svg" xmlns:xlink="http://www.w3.org/1999/xlink" width="1080" zoomAndPan="magnify" viewBox="0 0 810 809.999993" height="1080" preserveAspectRatio="xMidYMid meet" version="1.0"><defs><clipPath id="e957ea6662"><path d="M 556 544 L 657.453125 544 L 657.453125 647 L 556 647 Z M 556 544 " clip-rule="nonzero"/></clipPath><clipPath id="f8728ba2bf"><path d="M 152.703125 0 L 654 0 L 654 501 L 152.703125 501 Z M 152.703125 0 " clip-rule="nonzero"/></clipPath><clipPath id="d8ec5a1866"><path d="M 646.882812 238.25 C 636.222656 206.503906 617.539062 170.992188 589.476562 151.503906 C 558.972656 130.320312 559.183594 172.476562 564.972656 192.921875 C 574.726562 227.414062 597.960938 280.136719 634.183594 293.519531 C 663.476562 304.324219 651.234375 251.234375 646.882812 238.25 Z M 629.8125 271.058594 C 604.371094 260.078125 588.128906 224.070312 580.75 199.058594 C 576.691406 185.324219 574.796875 152.757812 596.996094 167.589844 C 618.082031 181.675781 632 208.699219 639.808594 232.203125 C 643.03125 241.882812 651.339844 280.34375 629.820312 271.050781 Z M 496.972656 263.644531 C 541.953125 269.628906 567.707031 231.546875 556.203125 189.800781 C 544.132812 146.109375 505.261719 107.578125 461.808594 95.65625 C 420.703125 84.378906 381.78125 109.046875 387.726562 154.460938 C 394.59375 207.046875 444.832031 256.699219 496.972656 263.644531 Z M 467.621094 113.722656 C 500.125 122.171875 529.457031 151.21875 537.984375 183.914062 C 546.015625 214.726562 525.949219 241.230469 493.472656 236.144531 C 456.339844 230.316406 420.984375 195.359375 415.179688 157.929688 C 410.09375 125.109375 437.269531 105.832031 467.621094 113.722656 Z M 262.175781 68.390625 C 214.125 67.394531 157.253906 96.039062 152.941406 149.429688 C 148.074219 209.953125 212.410156 248.070312 265.621094 248.601562 C 317.84375 249.113281 380.128906 212.542969 373.125 152.902344 C 366.933594 99.957031 310.765625 69.398438 262.175781 68.390625 Z M 265.304688 218.617188 C 226.960938 218.171875 180.636719 191.285156 182.960938 147.769531 C 185.082031 108.089844 227.3125 86.605469 262.75 87.296875 C 298.640625 88.003906 340.5625 110.875 344.171875 150.328125 C 348.105469 193.351562 302.9375 219.050781 265.304688 218.609375 Z M 500.660156 62.996094 C 481.214844 35.070312 445.742188 16.808594 414.292969 6.371094 C 401.757812 2.207031 348.269531 -10.265625 358.769531 18.71875 C 371.878906 54.816406 424.878906 77.476562 458.746094 86.980469 C 478.421875 92.511719 521.917969 93.519531 500.660156 62.996094 Z M 381.128906 22.992188 C 372.046875 1.6875 410.871094 10.207031 420.199219 13.289062 C 443.460938 20.957031 470.480469 34.519531 484.523438 55.523438 C 499.351562 77.675781 465.898438 75.257812 452.699219 71.382812 C 428.09375 64.148438 391.945312 48.34375 381.128906 22.992188 Z M 498.542969 278.261719 C 439.085938 271.140625 402.109375 333.097656 402.730469 386.019531 C 403.367188 440.167969 442.207031 504.710938 502.792969 500.1875 C 556.328125 496.179688 585.347656 439.046875 584.117188 390.292969 C 582.867188 340.914062 551.554688 284.613281 498.542969 278.261719 Z M 504.292969 469.832031 C 460.757812 471.921875 433.328125 425.460938 432.761719 386.441406 C 432.230469 348.277344 458.226562 303.28125 501.175781 307.347656 C 540.664062 311.082031 564.089844 353.097656 564.960938 389.585938 C 565.839844 425.539062 544.078125 467.921875 504.320312 469.828125 Z M 504.292969 469.832031 " clip-rule="nonzero"/></clipPath><linearGradient x1="263.1183" gradientTransform="matrix(0.603515, 0, 0, 0.603319, -8.409547, -20.26109)" y1="866.298362" x2="1099.560872" gradientUnits="userSpaceOnUse" y2="29.834598" id="4973a0f597"><stop stop-opacity="1" stop-color="rgb(50.19989%, 76.899719%, 10.998535%)" offset="0"/><stop stop-opacity="1" stop-color="rgb(50.19989%, 76.899719%, 10.998535%)" offset="0.25"/><stop stop-opacity="1" stop-color="rgb(50.19989%, 76.899719%, 10.998535%)" offset="0.375"/><stop stop-opacity="1" stop-color="rgb(50.19989%, 76.899719%, 10.998535%)" offset="0.4375"/><stop stop-opacity="1" stop-color="rgb(50.19989%, 76.899719%, 10.998535%)" offset="0.46875"/><stop stop-opacity="1" stop-color="rgb(50.19989%, 76.899719%, 10.998535%)" offset="0.476562"/><stop stop-opacity="1" stop-color="rgb(49.482727%, 76.089478%, 11.050415%)" offset="0.480469"/><stop stop-opacity="1" stop-color="rgb(48.765564%, 75.279236%, 11.102295%)" offset="0.484375"/><stop stop-opacity="1" stop-color="rgb(47.871399%, 74.269104%, 11.166382%)" offset="0.488281"/><stop stop-opacity="1" stop-color="rgb(46.977234%, 73.260498%, 11.231995%)" offset="0.492188"/><stop stop-opacity="1" stop-color="rgb(46.083069%, 72.250366%, 11.296082%)" offset="0.496094"/><stop stop-opacity="1" stop-color="rgb(45.188904%, 71.240234%, 11.360168%)" offset="0.5"/><stop stop-opacity="1" stop-color="rgb(44.294739%, 70.230103%, 11.424255%)" offset="0.503906"/><stop stop-opacity="1" stop-color="rgb(43.4021%, 69.219971%, 11.488342%)" offset="0.507812"/><stop stop-opacity="1" stop-color="rgb(42.507935%, 68.209839%, 11.552429%)" offset="0.511719"/><stop stop-opacity="1" stop-color="rgb(41.61377%, 67.199707%, 11.618042%)" offset="0.515625"/><stop stop-opacity="1" stop-color="rgb(40.719604%, 66.189575%, 11.682129%)" offset="0.519531"/><stop stop-opacity="1" stop-color="rgb(39.825439%, 65.180969%, 11.746216%)" offset="0.523438"/><stop stop-opacity="1" stop-color="rgb(38.931274%, 64.170837%, 11.810303%)" offset="0.527344"/><stop stop-opacity="1" stop-color="rgb(38.037109%, 63.160706%, 11.87439%)" offset="0.53125"/><stop stop-opacity="1" stop-color="rgb(37.142944%, 62.150574%, 11.938477%)" offset="0.535156"/><stop stop-opacity="1" stop-color="rgb(36.248779%, 61.140442%, 12.004089%)" offset="0.539062"/><stop stop-opacity="1" stop-color="rgb(35.354614%, 60.13031%, 12.068176%)" offset="0.542969"/><stop stop-opacity="1" stop-color="rgb(34.460449%, 59.120178%, 12.132263%)" offset="0.546875"/><stop stop-opacity="1" stop-color="rgb(33.566284%, 58.110046%, 12.19635%)" offset="0.550781"/><stop stop-opacity="1" stop-color="rgb(32.672119%, 57.10144%, 12.261963%)" offset="0.554688"/><stop stop-opacity="1" stop-color="rgb(31.777954%, 56.091309%, 12.32605%)" offset="0.558594"/><stop stop-opacity="1" stop-color="rgb(30.885315%, 55.081177%, 12.390137%)" offset="0.5625"/><stop stop-opacity="1" stop-color="rgb(29.99115%, 54.071045%, 12.454224%)" offset="0.566406"/><stop stop-opacity="1" stop-color="rgb(29.096985%, 53.060913%, 12.518311%)" offset="0.570313"/><stop stop-opacity="1" stop-color="rgb(28.20282%, 52.050781%, 12.582397%)" offset="0.574219"/><stop stop-opacity="1" stop-color="rgb(27.308655%, 51.040649%, 12.64801%)" offset="0.578125"/><stop stop-opacity="1" stop-color="rgb(26.41449%, 50.030518%, 12.712097%)" offset="0.582031"/><stop stop-opacity="1" stop-color="rgb(25.520325%, 49.021912%, 12.776184%)" offset="0.585938"/><stop stop-opacity="1" stop-color="rgb(24.62616%, 48.01178%, 12.840271%)" offset="0.589844"/><stop stop-opacity="1" stop-color="rgb(23.731995%, 47.001648%, 12.905884%)" offset="0.59375"/><stop stop-opacity="1" stop-color="rgb(22.83783%, 45.991516%, 12.969971%)" offset="0.597656"/><stop stop-opacity="1" stop-color="rgb(21.943665%, 44.981384%, 13.034058%)" offset="0.601563"/><stop stop-opacity="1" stop-color="rgb(21.0495%, 43.971252%, 13.098145%)" offset="0.605469"/><stop stop-opacity="1" stop-color="rgb(20.155334%, 42.961121%, 13.162231%)" offset="0.609375"/><stop stop-opacity="1" stop-color="rgb(19.261169%, 41.950989%, 13.226318%)" offset="0.613281"/><stop stop-opacity="1" stop-color="rgb(18.36853%, 40.942383%, 13.291931%)" offset="0.617188"/><stop stop-opacity="1" stop-color="rgb(17.474365%, 39.932251%, 13.356018%)" offset="0.621094"/><stop stop-opacity="1" stop-color="rgb(16.5802%, 38.922119%, 13.420105%)" offset="0.625"/><stop stop-opacity="1" stop-color="rgb(15.686035%, 37.911987%, 13.484192%)" offset="0.628906"/><stop stop-opacity="1" stop-color="rgb(14.79187%, 36.901855%, 13.549805%)" offset="0.632813"/><stop stop-opacity="1" stop-color="rgb(13.897705%, 35.891724%, 13.613892%)" offset="0.636719"/><stop stop-opacity="1" stop-color="rgb(13.00354%, 34.881592%, 13.677979%)" offset="0.640625"/><stop stop-opacity="1" stop-color="rgb(12.109375%, 33.87146%, 13.742065%)" offset="0.644531"/><stop stop-opacity="1" stop-color="rgb(11.21521%, 32.861328%, 13.806152%)" offset="0.648438"/><stop stop-opacity="1" stop-color="rgb(10.321045%, 31.851196%, 13.870239%)" offset="0.652344"/><stop stop-opacity="1" stop-color="rgb(9.42688%, 30.84259%, 13.935852%)" offset="0.65625"/><stop stop-opacity="1" stop-color="rgb(8.532715%, 29.832458%, 13.999939%)" offset="0.660156"/><stop stop-opacity="1" stop-color="rgb(7.63855%, 28.822327%, 14.064026%)" offset="0.664063"/><stop stop-opacity="1" stop-color="rgb(6.744385%, 27.812195%, 14.128113%)" offset="0.667969"/><stop stop-opacity="1" stop-color="rgb(5.851746%, 26.802063%, 14.193726%)" offset="0.671875"/><stop stop-opacity="1" stop-color="rgb(4.957581%, 25.791931%, 14.257812%)" offset="0.675781"/><stop stop-opacity="1" stop-color="rgb(4.063416%, 24.781799%, 14.321899%)" offset="0.679688"/><stop stop-opacity="1" stop-color="rgb(3.16925%, 23.771667%, 14.385986%)" offset="0.683594"/><stop stop-opacity="1" stop-color="rgb(2.275085%, 22.763062%, 14.450073%)" offset="0.6875"/><stop stop-opacity="1" stop-color="rgb(1.93634%, 22.380066%, 14.474487%)" offset="0.691406"/><stop stop-opacity="1" stop-color="rgb(1.599121%, 21.998596%, 14.498901%)" offset="0.695313"/><stop stop-opacity="1" stop-color="rgb(1.599121%, 21.998596%, 14.498901%)" offset="0.703125"/><stop stop-opacity="1" stop-color="rgb(1.599121%, 21.998596%, 14.498901%)" offset="0.71875"/><stop stop-opacity="1" stop-color="rgb(1.599121%, 21.998596%, 14.498901%)" offset="0.75"/><stop stop-opacity="1" stop-color="rgb(1.599121%, 21.998596%, 14.498901%)" offset="1"/></linearGradient></defs><path fill="#80c41c" d="M 334.671875 643.667969 L 352.714844 643.667969 L 352.714844 571.527344 L 419.839844 643.667969 L 437.082031 643.667969 L 437.082031 547.261719 L 419.042969 547.261719 L 419.042969 616.886719 L 354.574219 547.261719 L 334.671875 547.261719 Z M 334.671875 643.667969 " fill-opacity="1" fill-rule="evenodd"/><path fill="#80c41c" d="M 548.460938 643.667969 L 548.460938 627.492188 L 481.34375 627.492188 L 546.871094 557.871094 L 546.871094 547.261719 L 455.070312 547.261719 L 455.070312 563.4375 L 519.015625 563.4375 L 451.625 634.386719 L 451.625 643.667969 Z M 548.460938 643.667969 " fill-opacity="1" fill-rule="evenodd"/><g clip-path="url(#e957ea6662)"><path fill="#80c41c" d="M 655.863281 570.730469 C 653.449219 564.097656 646.3125 544.878906 604.792969 544.878906 C 597.363281 544.878906 559.816406 544.878906 559.816406 573.785156 C 559.816406 588.507812 572.292969 598.183594 594.582031 601.230469 L 617.660156 604.414062 C 631.457031 606.273438 638.621094 610.25 638.621094 616.480469 C 638.621094 624.835938 625.886719 629.875 610.496094 629.875 C 585.027344 629.875 577.863281 619.660156 574.410156 612.632812 L 556.238281 618.335938 C 558.496094 625.628906 568.582031 646.050781 609.953125 646.050781 C 635.691406 646.050781 657.441406 637.5625 657.441406 614.757812 C 657.441406 598.574219 644.707031 590.226562 623.085938 586.90625 L 600.273438 583.457031 C 581.171875 580.542969 578.648438 576.691406 578.648438 572.597656 C 578.648438 563.714844 591.519531 560.53125 604.253906 560.53125 C 627.1875 560.53125 635.035156 567.957031 638.050781 576.574219 Z M 655.863281 570.730469 " fill-opacity="1" fill-rule="evenodd"/></g><path fill="#043825" d="M 356.113281 791.433594 C 355.511719 789.804688 353.773438 785.105469 343.609375 785.105469 C 341.796875 785.105469 332.59375 785.105469 332.59375 792.179688 C 332.59375 795.800781 335.648438 798.160156 341.105469 798.902344 L 346.757812 799.679688 C 350.140625 800.132812 351.894531 801.109375 351.894531 802.636719 C 351.894531 804.679688 348.773438 805.917969 345.003906 805.917969 C 338.769531 805.917969 337.011719 803.414062 336.167969 801.695312 L 331.71875 803.09375 C 332.269531 804.90625 334.738281 809.882812 344.875 809.882812 C 351.175781 809.882812 356.507812 807.800781 356.507812 802.214844 C 356.507812 798.25 353.386719 796.179688 348.09375 795.394531 L 342.5 794.550781 C 337.820312 793.832031 337.207031 792.898438 337.207031 791.890625 C 337.207031 789.710938 340.355469 788.933594 343.46875 788.933594 C 349.089844 788.933594 351.015625 790.746094 351.757812 792.863281 Z M 356.113281 791.433594 " fill-opacity="1" fill-rule="evenodd"/><path fill="#043825" d="M 360.421875 809.296875 L 382.15625 809.296875 L 382.15625 805.199219 L 365.035156 805.199219 L 365.035156 785.683594 L 360.421875 785.683594 Z M 360.421875 809.296875 " fill-opacity="1" fill-rule="evenodd"/><path fill="#043825" d="M 398.222656 805.917969 C 393.804688 805.917969 388.769531 804.109375 388.769531 797.40625 C 388.769531 791.722656 392.824219 789.0625 398.222656 789.0625 C 403.617188 789.0625 407.671875 791.722656 407.671875 797.40625 C 407.671875 804.097656 402.640625 805.917969 398.222656 805.917969 Z M 384.152344 797.664062 C 384.152344 802.5625 387.042969 809.875 398.222656 809.875 C 409.398438 809.875 412.28125 802.5625 412.28125 797.664062 C 412.28125 791.203125 408.613281 785.097656 398.222656 785.097656 C 387.828125 785.097656 384.152344 791.203125 384.152344 797.671875 Z M 384.152344 797.664062 " fill-opacity="1" fill-rule="evenodd"/><path fill="#043825" d="M 425.5 809.296875 L 430.308594 809.296875 L 441.875 785.683594 L 436.9375 785.683594 L 427.902344 804.519531 L 419.035156 785.683594 L 414.09375 785.683594 Z M 425.5 809.296875 " fill-opacity="1" fill-rule="evenodd"/><path fill="#043825" d="M 445.203125 809.296875 L 466.773438 809.296875 L 466.773438 805.332031 L 449.820312 805.332031 L 449.820312 799.09375 L 464.078125 799.09375 L 464.078125 795.136719 L 449.820312 795.136719 L 449.820312 789.648438 L 466.386719 789.648438 L 466.386719 785.683594 L 445.203125 785.683594 Z M 445.203125 809.296875 " fill-opacity="1" fill-rule="evenodd"/><path fill="#043825" d="M 470.46875 809.296875 L 474.886719 809.296875 L 474.886719 791.625 L 491.324219 809.296875 L 495.550781 809.296875 L 495.550781 785.683594 L 491.132812 785.683594 L 491.132812 802.734375 L 475.34375 785.683594 L 470.46875 785.683594 Z M 470.46875 809.296875 " fill-opacity="1" fill-rule="evenodd"/><path fill="#043825" d="M 501.417969 785.683594 L 506.027344 785.683594 L 506.027344 809.289062 L 501.417969 809.289062 Z M 501.417969 785.683594 " fill-opacity="1" fill-rule="nonzero"/><path fill="#043825" d="M 509.816406 809.039062 C 511.75 809.40625 513.699219 809.578125 515.664062 809.554688 C 522.617188 809.554688 526.160156 807.289062 526.160156 800.332031 L 526.160156 785.6875 L 521.550781 785.6875 L 521.550781 800.070312 C 521.550781 803.539062 520.542969 805.5 515.117188 805.464844 C 513.316406 805.453125 511.554688 805.203125 509.824219 804.71875 Z M 509.816406 809.039062 " fill-opacity="1" fill-rule="evenodd"/><path fill="#043825" d="M 531.738281 809.296875 L 553.304688 809.296875 L 553.304688 805.332031 L 536.347656 805.332031 L 536.347656 799.09375 L 550.609375 799.09375 L 550.609375 795.136719 L 536.347656 795.136719 L 536.347656 789.648438 L 552.914062 789.648438 L 552.914062 785.683594 L 531.738281 785.683594 Z M 531.738281 809.296875 " fill-opacity="1" fill-rule="evenodd"/><path fill="#043825" d="M 355.074219 755.957031 L 355.074219 751.992188 L 338.636719 751.992188 L 354.683594 734.945312 L 354.683594 732.34375 L 332.203125 732.34375 L 332.203125 736.308594 L 347.859375 736.308594 L 331.359375 753.683594 L 331.359375 755.957031 Z M 355.074219 755.957031 " fill-opacity="1" fill-rule="evenodd"/><path fill="#043825" d="M 367.792969 755.957031 L 372.601562 755.957031 L 384.171875 732.34375 L 379.226562 732.34375 L 370.199219 751.183594 L 361.328125 732.34375 L 356.390625 732.34375 Z M 367.792969 755.957031 " fill-opacity="1" fill-rule="evenodd"/><path fill="#043825" d="M 387.503906 755.957031 L 409.070312 755.957031 L 409.070312 751.992188 L 392.113281 751.992188 L 392.113281 745.761719 L 406.375 745.761719 L 406.375 741.796875 L 392.113281 741.796875 L 392.113281 736.308594 L 408.679688 736.308594 L 408.679688 732.34375 L 387.503906 732.34375 Z M 387.503906 755.957031 " fill-opacity="1" fill-rule="evenodd"/><path fill="#043825" d="M 434.460938 755.957031 L 434.460938 751.992188 L 418.027344 751.992188 L 434.074219 734.945312 L 434.074219 732.34375 L 411.59375 732.34375 L 411.59375 736.308594 L 427.257812 736.308594 L 410.75 753.683594 L 410.75 755.957031 Z M 434.460938 755.957031 " fill-opacity="1" fill-rule="evenodd"/><path fill="#043825" d="M 444.832031 746.558594 L 449.773438 736.03125 L 454.710938 746.558594 Z M 435.507812 755.945312 L 440.414062 755.945312 L 442.910156 750.515625 L 456.527344 750.515625 L 458.996094 755.945312 L 463.867188 755.945312 L 452.398438 732.332031 L 447.136719 732.332031 Z M 435.507812 755.945312 " fill-opacity="1" fill-rule="evenodd"/><path fill="#043825" d="M 333.375 702.617188 L 337.789062 702.617188 L 337.789062 684.957031 L 354.230469 702.617188 L 358.449219 702.617188 L 358.449219 679.011719 L 354.039062 679.011719 L 354.039062 696.058594 L 338.242188 679.011719 L 333.375 679.011719 Z M 333.375 702.617188 " fill-opacity="1" fill-rule="evenodd"/><path fill="#043825" d="M 376.566406 699.246094 C 372.144531 699.246094 367.109375 697.433594 367.109375 690.738281 C 367.109375 685.0625 371.171875 682.394531 376.566406 682.394531 C 381.960938 682.394531 386.019531 685.0625 386.019531 690.738281 C 386.019531 697.429688 380.980469 699.246094 376.566406 699.246094 Z M 362.5 690.996094 C 362.5 695.898438 365.390625 703.203125 376.566406 703.203125 C 387.742188 703.203125 390.628906 695.898438 390.628906 690.996094 C 390.628906 684.535156 386.960938 678.429688 376.566406 678.429688 C 366.175781 678.429688 362.492188 684.535156 362.492188 690.996094 Z M 362.5 690.996094 " fill-opacity="1" fill-rule="evenodd"/><path fill="#043825" d="M 406.441406 690.507812 L 406.441406 694.214844 L 414.722656 694.214844 C 413.617188 697.527344 411.101562 699.113281 406.539062 699.113281 C 401.539062 699.113281 397.769531 696.257812 397.769531 690.664062 C 397.769531 687.382812 399.523438 682.382812 406.929688 682.382812 C 412.359375 682.382812 413.621094 685.175781 414.171875 686.375 L 418.878906 686.375 C 417.746094 680.433594 411.792969 678.417969 406.375 678.417969 C 396.953125 678.417969 393.15625 684.554688 393.15625 690.851562 C 393.15625 700.242188 400.464844 703.191406 406.507812 703.191406 C 408.089844 703.222656 409.636719 703.003906 411.148438 702.535156 C 412.660156 702.0625 414.058594 701.363281 415.34375 700.433594 L 416.246094 702.847656 L 419.042969 702.847656 L 419.042969 690.507812 Z M 406.441406 690.507812 " fill-opacity="1" fill-rule="evenodd"/><path fill="#043825" d="M 436.085938 699.246094 C 431.671875 699.246094 426.632812 697.433594 426.632812 690.738281 C 426.632812 685.0625 430.695312 682.394531 436.085938 682.394531 C 441.476562 682.394531 445.542969 685.0625 445.542969 690.738281 C 445.542969 697.429688 440.507812 699.246094 436.085938 699.246094 Z M 422.023438 690.996094 C 422.023438 695.898438 424.914062 703.203125 436.085938 703.203125 C 447.257812 703.203125 450.152344 695.898438 450.152344 690.996094 C 450.152344 684.535156 446.476562 678.429688 436.085938 678.429688 C 425.691406 678.429688 422.023438 684.535156 422.023438 690.996094 Z M 422.023438 690.996094 " fill-opacity="1" fill-rule="evenodd"/><path fill="#043825" d="M 465.832031 702.617188 L 469.503906 702.617188 L 477.078125 684.730469 L 477.144531 684.730469 L 477.144531 702.617188 L 481.234375 702.617188 L 481.234375 679.011719 L 475.15625 679.011719 L 467.65625 696.511719 L 460.273438 679.011719 L 454.078125 679.011719 L 454.078125 702.617188 L 458.167969 702.617188 L 458.167969 684.730469 L 458.226562 684.730469 Z M 465.832031 702.617188 " fill-opacity="1" fill-rule="evenodd"/><path fill="#043825" d="M 486.683594 702.617188 L 508.261719 702.617188 L 508.261719 698.660156 L 491.300781 698.660156 L 491.300781 692.421875 L 505.5625 692.421875 L 505.5625 688.464844 L 491.300781 688.464844 L 491.300781 682.972656 L 507.867188 682.972656 L 507.867188 679.011719 L 486.683594 679.011719 Z M 486.683594 702.617188 " fill-opacity="1" fill-rule="evenodd"/><path fill="#043825" d="M 520.367188 702.617188 L 524.976562 702.617188 L 524.976562 682.972656 L 535.539062 682.972656 L 535.539062 679.011719 L 509.804688 679.011719 L 509.804688 682.972656 L 520.367188 682.972656 Z M 520.367188 702.617188 " fill-opacity="1" fill-rule="evenodd"/><path fill="#043825" d="M 538.964844 702.617188 L 543.382812 702.617188 L 543.382812 684.957031 L 559.824219 702.617188 L 564.050781 702.617188 L 564.050781 679.011719 L 559.632812 679.011719 L 559.632812 696.058594 L 543.835938 679.011719 L 538.964844 679.011719 Z M 538.964844 702.617188 " fill-opacity="1" fill-rule="evenodd"/><path fill="#043825" d="M 576.398438 693.234375 L 581.332031 682.714844 L 586.269531 693.234375 Z M 567.074219 702.617188 L 571.972656 702.617188 L 574.476562 697.1875 L 588.105469 697.1875 L 590.574219 702.617188 L 595.445312 702.617188 L 583.976562 679.011719 L 578.714844 679.011719 Z M 567.074219 702.617188 " fill-opacity="1" fill-rule="evenodd"/><g clip-path="url(#f8728ba2bf)"><g clip-path="url(#d8ec5a1866)"><path fill="url(#4973a0f597)" d="M 152.703125 0 L 152.703125 504.710938 L 657.453125 504.710938 L 657.453125 0 Z M 152.703125 0 " fill-rule="nonzero"/></g></g></svg>