<svg id="dd4643e6-d3fd-4961-b4b1-95bfb964f349" data-name="Layer 1" xmlns="http://www.w3.org/2000/svg" xmlns:xlink="http://www.w3.org/1999/xlink" viewBox="0 0 836.35 1342.16"><defs><linearGradient id="02810b9c-1b4f-41a5-94b3-f2d46b4d55b4" x1="524.89" y1="604.52" x2="919.58" y2="209.82" gradientUnits="userSpaceOnUse"><stop offset="0" stop-color="#80c41c"/><stop offset="0.35" stop-color="#80c41c"/><stop offset="0.8" stop-color="#043825"/><stop offset="1" stop-color="#043825"/></linearGradient></defs><title>3017188_SVN AI</title><path d="M1074.07,418.46c5.34,16,19.11,79.79-16.55,64.4-42.16-18.2-69.07-77.88-81.3-119.34-6.72-22.76-9.86-76.74,26.92-52.16C1038.07,334.71,1061.08,379.5,1074.07,418.46Zm11.73,10c-17.66-52.62-48.62-111.48-95.12-143.78-50.54-35.11-50.19,34.76-40.6,68.65,16.16,57.17,54.66,144.56,114.68,166.74C1113.29,538,1093,450,1085.79,428.48Zm-768.71-150c3.52-65.77,73.49-101.38,132.21-100.23,59.47,1.17,128.93,39.08,134.91,104.47,6.52,71.32-68.31,113.92-130.68,113.19C390,395.19,313.24,350.63,317.09,278.5Zm-49.7,2.76c-8.06,100.32,98.54,163.5,186.71,164.38,86.53.85,189.73-59.77,178.13-158.62-10.3-87.75-103.37-138.4-183.87-140.07C368.73,145.28,274.5,192.76,267.39,281.26ZM831.6,425c-61.53-9.66-120.11-67.6-129.73-129.64-8.43-54.4,36.6-86.34,86.89-73.27,53.86,14,102.46,62.15,116.59,116.34C918.66,389.48,885.41,433.42,831.6,425Zm5.8,45.58c74.53,9.92,117.2-53.2,98.14-122.39-20-72.42-84.41-136.29-156.41-156.05-68.11-18.69-132.6,22.2-122.75,97.47C667.76,376.76,751,459.06,837.4,470.57ZM731,674.11c-.88-63.26,42.2-137.84,113.36-131.1,65.43,6.19,104.25,75.83,105.69,136.31,1.42,59.59-34.64,129.84-100.53,133C777.39,815.79,731.94,738.78,731,674.11Zm-49.8-.7c1.06,89.75,65.41,196.73,165.8,189.23C935.75,856,983.83,761.3,981.79,680.49,979.72,598.65,927.84,505.33,840,494.8,741.48,483,680.21,585.69,681.24,673.41ZM816.77,125.58c24.57,36.72-30.86,32.71-52.73,26.29-40.76-12-100.67-38.16-118.59-80.18-15.05-35.31,49.28-21.19,64.74-16.08C748.73,68.33,793.5,90.8,816.77,125.58ZM843.51,138c-32.22-46.29-91-76.56-143.11-93.86-20.77-6.9-109.4-27.57-92,20.47C630.12,124.44,717.94,162,774.06,177.75,806.66,186.92,878.73,188.59,843.51,138Z" transform="translate(-266.96 -33.79)" fill="none"/><polygon points="301.51 1066.67 331.41 1066.67 331.41 947.1 442.63 1066.67 471.2 1066.67 471.2 906.88 441.31 906.88 441.31 1022.28 334.49 906.88 301.51 906.88 301.51 1066.67" fill="#80c41c" fill-rule="evenodd"/><polygon points="655.75 1066.67 655.75 1039.86 544.54 1039.86 653.12 924.46 653.12 906.88 501.01 906.88 501.01 933.69 606.96 933.69 495.3 1051.29 495.3 1066.67 655.75 1066.67" fill="#80c41c" fill-rule="evenodd"/><path d="M1100.67,979.57c-4-11-15.82-42.85-84.62-42.85-12.31,0-74.52,0-74.52,47.91,0,24.4,20.67,40.44,57.6,45.49l38.24,5.28c22.86,3.08,34.73,9.67,34.73,20,0,13.85-21.1,22.2-46.6,22.2-42.2,0-54.07-16.93-59.79-28.58l-30.11,9.45c3.74,12.09,20.45,45.94,89,45.94,42.65,0,78.69-14.07,78.69-51.87,0-26.82-21.1-40.66-56.93-46.16l-37.8-5.72c-31.65-4.83-35.83-11.21-35.83-18,0-14.72,21.33-20,42.43-20,38,0,51,12.31,56,26.59Z" transform="translate(-266.96 -33.79)" fill="#80c41c" fill-rule="evenodd"/><path d="M604,1345.38c-1-2.7-3.88-10.49-20.72-10.49-3,0-18.25,0-18.25,11.73,0,6,5.06,9.91,14.1,11.14l9.37,1.29c5.6.75,8.51,2.37,8.51,4.9,0,3.39-5.17,5.44-11.42,5.44-10.33,0-13.24-4.15-14.64-7l-7.37,2.32c.91,3,5,11.25,21.8,11.25,10.44,0,19.27-3.45,19.27-12.71,0-6.57-5.17-10-13.94-11.3l-9.27-1.4c-7.75-1.19-8.77-2.74-8.77-4.41,0-3.61,5.22-4.9,10.38-4.9,9.31,0,12.5,3,13.73,6.51Z" transform="translate(-266.96 -33.79)" fill="#043825" fill-rule="evenodd"/><polygon points="344.18 1341.2 380.19 1341.2 380.19 1334.41 351.82 1334.41 351.82 1302.06 344.18 1302.06 344.18 1341.2" fill="#043825" fill-rule="evenodd"/><path d="M673.77,1369.39c-7.32,0-15.66-3-15.66-14.11,0-9.42,6.72-13.83,15.66-13.83s15.66,4.41,15.66,13.83C689.43,1366.37,681.09,1369.39,673.77,1369.39Zm-23.31-13.68c0,8.12,4.79,20.24,23.31,20.24s23.3-12.12,23.3-20.24c0-10.71-6.08-20.83-23.3-20.83S650.46,1345,650.46,1355.72Z" transform="translate(-266.96 -33.79)" fill="#043825" fill-rule="evenodd"/><polygon points="452.01 1341.2 459.98 1341.2 479.14 1302.06 470.96 1302.06 455.99 1333.28 441.3 1302.06 433.11 1302.06 452.01 1341.2" fill="#043825" fill-rule="evenodd"/><polygon points="484.66 1341.2 520.4 1341.2 520.4 1334.63 492.31 1334.63 492.31 1324.29 515.93 1324.29 515.93 1317.73 492.31 1317.73 492.31 1308.63 519.76 1308.63 519.76 1302.06 484.66 1302.06 484.66 1341.2" fill="#043825" fill-rule="evenodd"/><polygon points="526.52 1341.2 533.84 1341.2 533.84 1311.91 561.08 1341.2 568.08 1341.2 568.08 1302.06 560.76 1302.06 560.76 1330.32 534.6 1302.06 526.52 1302.06 526.52 1341.2" fill="#043825" fill-rule="evenodd"/><rect x="577.8" y="1302.06" width="7.64" height="39.13" fill="#043825"/><path d="M858.68,1374.56a48.59,48.59,0,0,0,9.69.86c11.52,0,17.39-3.76,17.39-15.29v-24.27h-7.64v23.84c0,5.75-1.67,9-10.66,8.94a33.24,33.24,0,0,1-8.77-1.24Z" transform="translate(-266.96 -33.79)" fill="#043825" fill-rule="evenodd"/><polygon points="628.04 1341.2 663.78 1341.2 663.78 1334.63 635.68 1334.63 635.68 1324.29 659.31 1324.29 659.31 1317.73 635.68 1317.73 635.68 1308.63 663.13 1308.63 663.13 1302.06 628.04 1302.06 628.04 1341.2" fill="#043825" fill-rule="evenodd"/><polygon points="335.32 1252.79 335.32 1246.22 308.08 1246.22 334.67 1217.96 334.67 1213.65 297.42 1213.65 297.42 1220.22 323.36 1220.22 296.02 1249.02 296.02 1252.79 335.32 1252.79" fill="#043825" fill-rule="evenodd"/><polygon points="356.39 1252.79 364.36 1252.79 383.53 1213.65 375.34 1213.65 360.38 1244.88 345.68 1213.65 337.5 1213.65 356.39 1252.79" fill="#043825" fill-rule="evenodd"/><polygon points="389.05 1252.79 424.79 1252.79 424.79 1246.22 396.69 1246.22 396.69 1235.89 420.32 1235.89 420.32 1229.32 396.69 1229.32 396.69 1220.22 424.14 1220.22 424.14 1213.65 389.05 1213.65 389.05 1252.79" fill="#043825" fill-rule="evenodd"/><polygon points="466.86 1252.79 466.86 1246.22 439.63 1246.22 466.22 1217.96 466.22 1213.65 428.97 1213.65 428.97 1220.22 454.92 1220.22 427.57 1249.02 427.57 1252.79 466.86 1252.79" fill="#043825" fill-rule="evenodd"/><path d="M751,1271l8.19-17.45,8.18,17.45Zm-15.45,15.56h8.13l4.14-9h22.56l4.09,9h8.07l-19-39.14h-8.72Z" transform="translate(-266.96 -33.79)" fill="#043825" fill-rule="evenodd"/><polygon points="299.36 1164.38 306.68 1164.38 306.68 1135.11 333.92 1164.38 340.91 1164.38 340.91 1125.25 333.6 1125.25 333.6 1153.51 307.43 1125.25 299.36 1125.25 299.36 1164.38" fill="#043825" fill-rule="evenodd"/><path d="M637.89,1192.58c-7.33,0-15.67-3-15.67-14.1,0-9.41,6.73-13.83,15.67-13.83s15.66,4.42,15.66,13.83C653.55,1189.57,645.2,1192.58,637.89,1192.58Zm-23.31-13.67c0,8.12,4.79,20.23,23.31,20.23s23.3-12.11,23.3-20.23c0-10.71-6.08-20.83-23.3-20.83S614.57,1168.2,614.57,1178.91Z" transform="translate(-266.96 -33.79)" fill="#043825" fill-rule="evenodd"/><path d="M687.39,1178.1v6.14h13.72c-1.83,5.49-6,8.12-13.56,8.12-8.28,0-14.53-4.73-14.53-14,0-5.44,2.91-13.73,15.18-13.73,9,0,11.09,4.63,12,6.62H708c-1.88-9.85-11.74-13.19-20.72-13.19-15.61,0-21.9,10.17-21.9,20.61,0,15.56,12.11,20.45,22.12,20.45a24.11,24.11,0,0,0,14.64-4.57l1.5,4h4.63V1178.1Z" transform="translate(-266.96 -33.79)" fill="#043825" fill-rule="evenodd"/><path d="M736.51,1192.58c-7.31,0-15.66-3-15.66-14.1,0-9.41,6.73-13.83,15.66-13.83s15.67,4.42,15.67,13.83C752.18,1189.57,743.84,1192.58,736.51,1192.58Zm-23.3-13.67c0,8.12,4.79,20.23,23.3,20.23s23.31-12.11,23.31-20.23c0-10.71-6.09-20.83-23.31-20.83S713.21,1168.2,713.21,1178.91Z" transform="translate(-266.96 -33.79)" fill="#043825" fill-rule="evenodd"/><polygon points="518.84 1164.38 524.92 1164.38 537.47 1134.73 537.58 1134.73 537.58 1164.38 544.36 1164.38 544.36 1125.25 534.29 1125.25 521.86 1154.26 509.63 1125.25 499.36 1125.25 499.36 1164.38 506.14 1164.38 506.14 1134.73 506.24 1134.73 518.84 1164.38" fill="#043825" fill-rule="evenodd"/><polygon points="553.39 1164.38 589.14 1164.38 589.14 1157.82 561.04 1157.82 561.04 1147.48 584.67 1147.48 584.67 1140.92 561.04 1140.92 561.04 1131.82 588.49 1131.82 588.49 1125.25 553.39 1125.25 553.39 1164.38" fill="#043825" fill-rule="evenodd"/><polygon points="609.2 1164.38 616.84 1164.38 616.84 1131.82 634.34 1131.82 634.34 1125.25 591.7 1125.25 591.7 1131.82 609.2 1131.82 609.2 1164.38" fill="#043825" fill-rule="evenodd"/><polygon points="640.02 1164.38 647.34 1164.38 647.34 1135.11 674.58 1164.38 681.58 1164.38 681.58 1125.25 674.26 1125.25 674.26 1153.51 648.09 1125.25 640.02 1125.25 640.02 1164.38" fill="#043825" fill-rule="evenodd"/><path d="M969,1182.62l8.18-17.44,8.18,17.44Zm-15.45,15.55h8.12l4.15-9H988.4l4.09,9h8.07l-19-39.13h-8.72Z" transform="translate(-266.96 -33.79)" fill="#043825" fill-rule="evenodd"/><path d="M1085.79,428.48c-17.66-52.62-48.62-111.48-95.12-143.78-50.54-35.11-50.19,34.76-40.6,68.65,16.16,57.17,54.66,144.56,114.68,166.74C1113.29,538,1093,450,1085.79,428.48Zm-28.28,54.38c-42.16-18.2-69.07-77.88-81.3-119.34-6.72-22.76-9.86-76.74,26.92-52.16,34.94,23.35,58,68.14,70.94,107.1C1079.41,434.5,1093.18,498.25,1057.52,482.85ZM837.4,470.57c74.53,9.92,117.2-53.2,98.14-122.39-20-72.42-84.41-136.29-156.41-156.05-68.11-18.69-132.6,22.2-122.75,97.47C667.76,376.76,751,459.06,837.4,470.57ZM788.76,222.08c53.86,14,102.46,62.15,116.59,116.34,13.31,51.07-19.94,95-73.75,86.57-61.53-9.66-120.11-67.6-129.73-129.64C693.44,240.95,738.47,209,788.76,222.08ZM448.35,146.94c-79.62-1.65-173.85,45.83-181,134.32-8.06,100.32,98.54,163.5,186.71,164.38,86.53.85,189.73-59.77,178.13-158.62C621.93,199.26,528.86,148.61,448.35,146.94Zm5.18,249c-63.53-.74-140.29-45.3-136.44-117.43,3.52-65.77,73.49-101.38,132.21-100.23,59.47,1.17,128.93,39.08,134.91,104.47C590.73,354.06,515.89,396.66,453.53,395.93ZM843.51,138c-32.22-46.29-91-76.56-143.11-93.86-20.77-6.9-109.4-27.57-92,20.47C630.12,124.44,717.94,162,774.06,177.75,806.66,186.92,878.73,188.59,843.51,138ZM645.45,71.69c-15.05-35.31,49.28-21.19,64.74-16.08,38.54,12.71,83.31,35.19,106.58,70,24.57,36.72-30.86,32.71-52.73,26.29C723.27,139.91,663.37,113.71,645.45,71.69ZM840,494.8C741.48,483,680.21,585.69,681.24,673.41c1.06,89.75,65.41,196.73,165.8,189.23C935.75,856,983.83,761.3,981.79,680.49,979.72,598.65,927.84,505.33,840,494.8Zm9.53,317.53C777.39,815.79,731.94,738.78,731,674.11c-.88-63.26,42.2-137.84,113.36-131.1,65.43,6.19,104.25,75.83,105.69,136.31C951.51,738.91,915.45,809.16,849.57,812.32Z" transform="translate(-266.96 -33.79)" fill="url(#02810b9c-1b4f-41a5-94b3-f2d46b4d55b4)"/></svg>