<svg xmlns="http://www.w3.org/2000/svg" viewBox="0 0 188.71 188.71"><defs><style>.cls-1{fill:#165ea3;}.cls-1,.cls-10,.cls-11,.cls-12,.cls-13,.cls-14,.cls-15,.cls-16,.cls-17,.cls-18,.cls-19,.cls-2,.cls-20,.cls-21,.cls-22,.cls-23,.cls-24,.cls-25,.cls-26,.cls-27,.cls-28,.cls-29,.cls-3,.cls-30,.cls-31,.cls-32,.cls-33,.cls-34,.cls-35,.cls-36,.cls-37,.cls-38,.cls-4,.cls-40,.cls-41,.cls-42,.cls-43,.cls-44,.cls-45,.cls-46,.cls-47,.cls-48,.cls-49,.cls-5,.cls-50,.cls-51,.cls-52,.cls-53,.cls-54,.cls-55,.cls-56,.cls-57,.cls-58,.cls-59,.cls-6,.cls-60,.cls-61,.cls-62,.cls-63,.cls-64,.cls-65,.cls-66,.cls-7,.cls-8,.cls-9{fill-rule:evenodd;}.cls-2{fill:#135fa4;}.cls-3{fill:#1860a5;}.cls-4{fill:#1562a6;}.cls-5{fill:#1963a7;}.cls-6{fill:#1764a7;}.cls-7{fill:#1d64a7;}.cls-8{fill:#2166a8;}.cls-9{fill:#1f67a9;}.cls-10{fill:#2368aa;}.cls-11{fill:#266aab;}.cls-12{fill:#246bad;}.cls-13{fill:#276cae;}.cls-14{fill:#256dae;}.cls-15{fill:#296faf;}.cls-16{fill:#2770b0;}.cls-17{fill:#2c70b0;}.cls-18{fill:#2973b2;}.cls-19{fill:#2e73b2;}.cls-20{fill:#3175b3;}.cls-21{fill:#2f76b4;}.cls-22{fill:#3277b5;}.cls-23{fill:#3579b6;}.cls-24{fill:#337ab8;}.cls-25{fill:#367cb9;}.cls-26{fill:#347dba;}.cls-27{fill:#397dba;}.cls-28{fill:#3682be;}.cls-29{fill:#3b82be;}.cls-30{fill:#3d84bf;}.cls-31{fill:#3c85c0;}.cls-32{fill:#3e87c3;}.cls-33{fill:#3d88c4;}.cls-34{fill:#3f8ac5;}.cls-35{fill:#428cc6;}.cls-36{fill:#418dc7;}.cls-37{fill:#458dc7;}.cls-38,.cls-39{fill:#fff;}.cls-40{fill:#4290c9;}.cls-41{fill:#4691c9;}.cls-42{fill:#b22126;}.cls-43{fill:#b42025;}.cls-44{fill:#b72126;}.cls-45{fill:#b82025;}.cls-46{fill:#bc2026;}.cls-47{fill:#bd2026;}.cls-48{fill:#c02026;}.cls-49{fill:#c22026;}.cls-50{fill:#c52026;}.cls-51{fill:#c71f26;}.cls-52{fill:#c71f27;}.cls-53{fill:#ca1f27;}.cls-54{fill:#cc1f27;}.cls-55{fill:#cf1e27;}.cls-56{fill:#d12226;}.cls-57{fill:#d42227;}.cls-58{fill:#d62226;}.cls-59{fill:#d72226;}.cls-60{fill:#db2226;}.cls-61{fill:#db2227;}.cls-62{fill:#df2227;}.cls-63{fill:#e02127;}.cls-64{fill:#e52227;}.cls-65{fill:#e82228;}.cls-66{fill:#1275bc;}</style></defs><title>Eszköz 1</title><g id="Réteg_2" data-name="Réteg 2"><g id="Layer_1" data-name="Layer 1"><path class="cls-1" d="M142.2,175.68l34.34-34.92A95,95,0,0,1,142.2,175.68Z"/><path class="cls-2" d="M127.94,182.59l55.23-56.23A94.84,94.84,0,0,1,127.94,182.59Z"/><path class="cls-3" d="M176.54,140.76,142.2,175.68A93,93,0,0,1,117.07,186l69.27-70.49A92.55,92.55,0,0,1,176.54,140.76Z"/><path class="cls-4" d="M183.17,126.36l-55.23,56.23a94,94,0,0,1-20.16,5.19L188,106.13A93.34,93.34,0,0,1,183.17,126.36Z"/><path class="cls-5" d="M186.34,115.49,117.07,186a94.78,94.78,0,0,1-17.64,2.66l89.21-90.86A91.35,91.35,0,0,1,186.34,115.49Z"/><path class="cls-6" d="M188,106.13l-80.21,81.65a93.37,93.37,0,0,1-13.39.93H91.87l96.77-98.42c.07,1.37.07,2.73.07,4.1A89.93,89.93,0,0,1,188,106.13Z"/><path class="cls-7" d="M188.64,97.78,99.43,188.64c-1.65.07-3.38.07-5,.07-3.24,0-6.41-.14-9.57-.43L188.06,83.16a94.36,94.36,0,0,1,.65,11.23C188.71,95.47,188.71,96.62,188.64,97.78Z"/><path class="cls-8" d="M188.64,90.29,91.87,188.71a94.07,94.07,0,0,1-13.68-1.37L187.06,76.54A96.73,96.73,0,0,1,188.64,90.29Z"/><path class="cls-9" d="M188.06,83.16,84.82,188.28a93.51,93.51,0,0,1-12.89-2.23L185.62,70.34A85.53,85.53,0,0,1,188.06,83.16Z"/><path class="cls-10" d="M187.06,76.54,78.19,187.34a96,96,0,0,1-12.17-3L183.89,64.51A97.46,97.46,0,0,1,187.06,76.54Z"/><path class="cls-11" d="M185.62,70.34,71.93,186.05a88.54,88.54,0,0,1-11.45-3.6L181.87,58.9A106.92,106.92,0,0,1,185.62,70.34Z"/><path class="cls-12" d="M183.89,64.51,66,184.39a94.87,94.87,0,0,1-10.87-4.17L179.5,53.64A98,98,0,0,1,183.89,64.51Z"/><path class="cls-13" d="M181.87,58.9,60.48,182.45A91,91,0,0,1,50,177.7L176.9,48.6A88.72,88.72,0,0,1,181.87,58.9Z"/><path class="cls-14" d="M179.5,53.64,55.15,180.22A103.34,103.34,0,0,1,45.22,175L174.1,43.85A102.23,102.23,0,0,1,179.5,53.64Z"/><path class="cls-15" d="M176.9,48.6,50,177.7a97.48,97.48,0,0,1-9.36-5.76L171,39.31A95.78,95.78,0,0,1,176.9,48.6Z"/><path class="cls-16" d="M174.1,43.85,45.22,175a93.51,93.51,0,0,1-8.93-6.19L167.69,35A96.71,96.71,0,0,1,174.1,43.85Z"/><path class="cls-17" d="M171,39.31,40.68,171.94a85,85,0,0,1-8.5-6.63L164.23,31A105.94,105.94,0,0,1,171,39.31Z"/><path class="cls-18" d="M167.69,35,36.29,168.77c-2.81-2.23-5.47-4.61-8.07-7.13L160.49,27.07A93.76,93.76,0,0,1,167.69,35Z"/><path class="cls-19" d="M164.23,31l-132,134.35a106.88,106.88,0,0,1-7.7-7.49L156.6,23.4C159.26,25.78,161.78,28.3,164.23,31Z"/><path class="cls-20" d="M160.49,27.07,28.22,161.64a95,95,0,0,1-7.2-7.92L152.42,19.94A96.27,96.27,0,0,1,160.49,27.07Z"/><path class="cls-21" d="M156.6,23.4,24.48,157.82a95.51,95.51,0,0,1-6.77-8.42L148,16.78A83.24,83.24,0,0,1,156.6,23.4Z"/><path class="cls-22" d="M152.42,19.94,21,153.72a86.34,86.34,0,0,1-6.4-8.86L143.5,13.75C146.59,15.7,149.54,17.71,152.42,19.94Z"/><path class="cls-23" d="M148,16.78,17.71,149.4a88,88,0,0,1-5.9-9.29L138.67,11A86.28,86.28,0,0,1,148,16.78Z"/><path class="cls-24" d="M143.5,13.75,14.62,144.86a95.85,95.85,0,0,1-5.4-9.79L133.63,8.5A99,99,0,0,1,143.5,13.75Z"/><path class="cls-25" d="M138.67,11,11.81,140.11a90.57,90.57,0,0,1-4.9-10.29L128.3,6.26A95.81,95.81,0,0,1,138.67,11Z"/><path class="cls-26" d="M133.63,8.5,9.22,135.07a94.29,94.29,0,0,1-4.4-10.8L122.69,4.32A94.17,94.17,0,0,1,133.63,8.5Z"/><path class="cls-27" d="M128.3,6.26,6.91,129.82A92,92,0,0,1,3.1,118.37L116.78,2.66A102.09,102.09,0,0,1,128.3,6.26Z"/><path class="cls-28" d="M122.69,4.32,4.82,124.27a100.36,100.36,0,0,1-3.16-12.09L110.52,1.37A97.3,97.3,0,0,1,122.69,4.32Z"/><path class="cls-29" d="M116.78,2.66,3.1,118.37A93.34,93.34,0,0,1,.65,105.55L103.9.43A109.55,109.55,0,0,1,116.78,2.66Z"/><path class="cls-30" d="M110.52,1.37,1.66,112.18A95.82,95.82,0,0,1,.07,98.5L96.84,0A94.34,94.34,0,0,1,110.52,1.37Z"/><path class="cls-31" d="M103.9.43.65,105.55A96.08,96.08,0,0,1,0,94.39c0-1.15,0-2.3.07-3.45L89.28.14C91,0,92.66,0,94.39,0Q99.15,0,103.9.43Z"/><path class="cls-32" d="M96.84,0,.07,98.5C0,97.13,0,95.69,0,94.39A92.81,92.81,0,0,1,.72,82.58L80.93.94A92.32,92.32,0,0,1,94.39,0Z"/><path class="cls-33" d="M89.28.14.07,90.94A96.24,96.24,0,0,1,2.38,73.22L71.64,2.74A94.75,94.75,0,0,1,89.28.14Z"/><path class="cls-34" d="M80.93.94.72,82.58A94.33,94.33,0,0,1,5.54,62.35L60.77,6.12A93.54,93.54,0,0,1,80.93.94Z"/><path class="cls-35" d="M71.64,2.74,2.38,73.22A94.43,94.43,0,0,1,12.17,48L46.51,13A93.66,93.66,0,0,1,71.64,2.74Z"/><path class="cls-36" d="M60.77,6.12,5.54,62.35A95.05,95.05,0,0,1,60.77,6.12Z"/><path class="cls-37" d="M46.51,13,12.17,48A95.21,95.21,0,0,1,46.51,13Z"/><path class="cls-38" d="M94.39,166A71.61,71.61,0,1,0,22.75,94.39,71.57,71.57,0,0,0,94.39,166Z"/><polygon class="cls-38" points="38.45 42.77 36.94 44.78 29.16 45.86 33.7 49.32 32.62 50.83 22.39 42.98 23.54 41.54 27.65 44.71 26.78 37.66 28.22 35.71 29.38 43.78 38.45 42.77"/><polygon class="cls-38" points="66.82 12.1 61.63 14.33 62.93 17.28 67.9 15.41 68.54 16.99 63.58 18.86 65.74 24.26 64.08 24.98 59.33 13.39 66.17 10.51 66.82 12.1"/><polygon class="cls-38" points="77.18 7.78 78.41 14.76 78.41 15.05 78.48 15.26 78.48 15.41 78.55 15.62 78.62 15.84 78.62 15.98 78.7 16.13 78.77 16.27 78.77 16.42 78.84 16.56 78.91 16.7 78.98 16.85 79.06 16.99 79.13 17.06 79.27 17.21 79.34 17.28 79.49 17.42 79.56 17.5 79.7 17.57 79.85 17.64 80.06 17.71 80.21 17.78 80.42 17.86 80.57 17.86 80.78 17.93 80.93 17.93 81.14 17.93 81.36 17.93 81.58 17.93 81.79 17.93 82.01 17.93 82.22 17.86 82.44 17.86 82.58 17.78 82.8 17.71 83.02 17.64 83.23 17.57 83.38 17.5 83.59 17.42 83.74 17.35 83.88 17.21 84.1 17.14 84.24 16.99 84.31 16.92 84.46 16.78 84.6 16.63 84.67 16.56 84.74 16.42 84.82 16.27 84.89 16.13 84.96 16.06 84.96 15.91 85.03 15.77 85.03 15.62 85.03 15.55 85.03 15.41 85.03 15.26 85.03 15.12 85.03 14.9 85.03 14.76 84.96 14.62 84.96 14.4 84.96 14.18 84.89 14.04 84.82 13.61 83.66 6.62 85.46 6.34 86.69 13.68 86.76 13.9 86.76 14.04 86.76 14.26 86.83 14.4 86.83 14.54 86.83 14.76 86.83 14.9 86.83 15.05 86.9 15.19 86.9 15.34 86.83 15.48 86.83 15.62 86.83 15.77 86.83 15.91 86.76 16.13 86.76 16.27 86.69 16.42 86.62 16.56 86.62 16.7 86.54 16.85 86.47 16.99 86.4 17.14 86.26 17.28 86.18 17.42 86.04 17.64 85.9 17.78 85.75 18 85.54 18.14 85.32 18.36 85.1 18.5 84.89 18.65 84.67 18.79 84.46 18.94 84.24 19.01 83.95 19.15 83.74 19.22 83.45 19.37 83.23 19.44 82.94 19.51 82.66 19.51 82.37 19.58 82.08 19.66 81.86 19.66 81.58 19.66 81.29 19.66 81 19.66 80.78 19.66 80.5 19.58 80.21 19.58 79.99 19.51 79.7 19.44 79.49 19.37 79.2 19.3 78.98 19.15 78.77 19.08 78.55 18.94 78.34 18.79 78.12 18.65 77.98 18.43 77.83 18.29 77.62 18.07 77.47 17.93 77.4 17.71 77.26 17.5 77.18 17.42 77.18 17.28 77.11 17.21 77.11 17.06 77.04 16.99 76.97 16.85 76.97 16.7 76.9 16.63 76.9 16.49 76.82 16.34 76.82 16.2 76.75 16.06 76.75 15.91 76.68 15.77 76.68 15.62 76.68 15.48 75.38 8.14 77.18 7.78"/><polygon class="cls-38" points="101.09 8.21 100.44 18.86 98.64 18.79 99.29 8.06 94.68 7.78 94.82 6.12 105.7 6.7 105.55 8.42 101.09 8.21"/><path class="cls-39" d="M116.93,8.93l.65.21a6.13,6.13,0,0,1,1.94.87,2.73,2.73,0,0,1,1.15,1.44,3.12,3.12,0,0,1,0,2,3,3,0,0,1-1.8,2,2.52,2.52,0,0,1,1,.94,2.54,2.54,0,0,1,.5,1.29,5,5,0,0,1-.14,1.44,3,3,0,0,1-1.87,2.16,4.48,4.48,0,0,1-1.44.22V19.94a1.74,1.74,0,0,0,1.58-1.36,1.52,1.52,0,0,0-.43-1.66,4.61,4.61,0,0,0-1.15-.72V14.4a.56.56,0,0,1,.36.07,1.29,1.29,0,0,0,.93-.29,1.9,1.9,0,0,0,.65-1.08,1.51,1.51,0,0,0,0-1.15,1.23,1.23,0,0,0-.65-.72A7.53,7.53,0,0,0,117,10.8l-.07-.07Zm-5.55,11.3,3.39-11.88,2.16.58v1.8l-1.15-.29-.94,3.46,1.15.28a5,5,0,0,0,.94.22v1.8c-.22-.07-.51-.14-.72-.22l-1.8-.5-1,3.74,1.94.51a3.13,3.13,0,0,0,1.59.21v1.59a5.76,5.76,0,0,1-1.87-.29Z"/><path class="cls-38" d="M133.42,25l-1.23-.64V22.39l1.37.72.36-4.46-1.73,1.44V17.78l2.59-2.08,1.08.5-.93,13.54-1.8-.94Zm-1.23-.64L129,22.68l-3,2.45-1.8-.87,7.92-6.48v2.31l-1.73,1.44,1.73.86Z"/><polygon class="cls-38" points="149.18 24.91 142.49 33.26 146.95 36.79 145.94 38.16 140.04 33.48 147.82 23.76 149.18 24.91"/><path class="cls-39" d="M159,37a5.71,5.71,0,0,1,2.44.5,6.47,6.47,0,0,1,2.09,1.37,6.29,6.29,0,0,1,1.37,2,6,6,0,0,1,.5,2.52,5.91,5.91,0,0,1-.86,3.16A6.32,6.32,0,0,1,162.14,49a6.67,6.67,0,0,1-3.16.79V48a4,4,0,0,0,2.23-.57,4.28,4.28,0,0,0,1.65-1.73,4,4,0,0,0,.65-2.23,4.06,4.06,0,0,0-.65-2.31,4.28,4.28,0,0,0-1.65-1.73,4.68,4.68,0,0,0-2.23-.57Zm0,0h0v1.8h0a4.76,4.76,0,0,0-2.31.57A4.28,4.28,0,0,0,155,41.11a4.06,4.06,0,0,0-.65,2.31,4,4,0,0,0,.65,2.23,4.8,4.8,0,0,0,1.65,1.73A4.25,4.25,0,0,0,159,48h0v1.8h0a7.18,7.18,0,0,1-3.24-.79,6.32,6.32,0,0,1-2.38-2.38,5.91,5.91,0,0,1-.86-3.16,6.34,6.34,0,0,1,.86-3.24,6.68,6.68,0,0,1,2.38-2.31A6.44,6.44,0,0,1,159,37Z"/><polygon class="cls-38" points="172.87 53.5 166.97 60.48 176.33 60.34 177.05 62.14 163.44 62.42 163.08 61.85 172.15 51.62 172.87 53.5"/><polygon class="cls-38" points="173.95 74.52 179.35 68.18 179.78 70.27 176.04 74.95 181.37 77.26 181.87 79.42 174.31 76.32 168.98 77.54 168.62 75.74 173.95 74.52"/><polygon class="cls-38" points="172.22 100.37 171.29 108.22 169.63 108 170.93 97.06 180.65 106.2 181.44 98.71 183.17 98.93 181.94 109.58 172.22 100.37"/><path class="cls-38" d="M166.39,131.83l5.11,6.77-.57,1-4.54-.51v-1.72l2.23.21-2.23-2.88Zm-4.1,5,2.45-4.32-2.38-3,1-1.73,3,4v2.88l-.5-.65-1.73,3,2.23.29v1.72l-8.85-.86,1-1.8Z"/><polygon class="cls-38" points="179.78 118.37 170.42 119.52 177.55 125.86 176.83 127.66 166.61 118.37 166.75 117.79 180.5 116.5 179.78 118.37"/><polygon class="cls-38" points="153.58 145.37 148.25 151.13 147.02 149.9 154.51 141.84 156.96 155.02 162 149.4 163.22 150.62 156.02 158.47 153.58 145.37"/><polygon class="cls-38" points="41.33 32.47 33.26 30.46 34.92 29.09 40.82 30.38 40.46 24.55 42.19 23.18 42.77 31.32 46.22 35.57 44.78 36.72 41.33 32.47"/><path class="cls-38" d="M17.21,58.9c2.52,1.22,6.84-3.75,8.28-1.44.93,1.58-.87,2.95-2.88,4l1.73.93c1.87-.93,3.6-3.16,2.59-5.68-.87-1.66-2.31-2-4.11-1.66s-4.46,3.53-5.61,1.73.57-3,2.23-4l-1.58-.72C15.34,53.28,14.4,57.53,17.21,58.9Z"/><polygon class="cls-38" points="19.58 80.5 7.7 77.18 8.06 75.67 18.65 70.34 10.01 68.04 10.51 66.31 22.54 69.55 21.96 70.99 11.16 76.32 20.09 78.77 19.58 80.5"/><polygon class="cls-38" points="18.43 95.11 5.98 94.68 6.26 87.26 7.99 87.34 7.7 92.95 11.45 93.02 11.74 87.62 13.39 87.7 13.18 93.1 16.85 93.24 17.14 87.7 18.79 87.77 18.43 95.11"/><polygon class="cls-38" points="7.92 112.54 15.62 107.42 6.41 105.12 6.12 103.18 19.58 106.63 19.73 107.28 8.14 114.55 7.92 112.54"/><path class="cls-39" d="M18.43,119.66a6.67,6.67,0,0,1,2.45.44A6.07,6.07,0,0,1,23,121.54a6.87,6.87,0,0,1,1.44,2,7.11,7.11,0,0,1,.5,2.52,5.53,5.53,0,0,1-.93,3.17,5.87,5.87,0,0,1-2.31,2.3,6.4,6.4,0,0,1-3.24.87v-1.59a4.54,4.54,0,0,0,2.38-.64,5.11,5.11,0,0,0,1.73-1.73,5,5,0,0,0,.64-2.45,4.57,4.57,0,0,0-.64-2.38,5,5,0,0,0-1.73-1.72,4.46,4.46,0,0,0-2.38-.65Zm0,0h0v1.59h0a4.45,4.45,0,0,0-2.37.65,4.91,4.91,0,0,0-1.73,1.72,4.58,4.58,0,0,0-.65,2.38,4.79,4.79,0,0,0,2.38,4.18,4.53,4.53,0,0,0,2.37.64h0v1.59h0a6.39,6.39,0,0,1-5.54-3.17,6,6,0,0,1-.87-3.17,6.22,6.22,0,0,1,.87-3.24,6.54,6.54,0,0,1,2.3-2.37A6.33,6.33,0,0,1,18.43,119.66Z"/><polygon class="cls-38" points="22.54 146.52 31.39 140.54 28.15 135.79 29.59 134.86 33.84 141.05 23.54 148.03 22.54 146.52"/><path class="cls-38" d="M37.58,157.82c1.8-2.16-1.87-7.56.72-8.35,1.73-.5,2.67,1.59,3.17,3.75l1.3-1.37c-.36-2.09-2.16-4.32-4.83-4-1.8.36-2.52,1.65-2.59,3.53s2.31,5.25.22,5.83c-1.8.57-2.74-1.3-3.24-3.1l-1.15,1.37C31.68,158.26,35.57,160.2,37.58,157.82Z"/><polygon class="cls-38" points="181.44 73.51 185.04 75.17 184.9 73.73 181.37 72.65 181.44 73.51"/><path class="cls-38" d="M173.88,139.68a.94.94,0,1,0-1-.94A1,1,0,0,0,173.88,139.68Z"/><path class="cls-38" d="M172.3,142.63a1,1,0,0,0,.93-1,1,1,0,0,0-.93-.93,1,1,0,0,0-1,.93A1,1,0,0,0,172.3,142.63Z"/><polygon class="cls-38" points="37.08 26.14 36.94 22.18 35.64 22.97 36.36 26.57 37.08 26.14"/><polygon class="cls-38" points="89.06 184.46 92.45 184.46 92.59 178.42 97.92 178.42 97.92 175.82 92.66 175.82 92.74 172.66 98.42 172.66 98.42 170.06 89.35 170.06 89.06 184.46"/><polygon class="cls-38" points="105.05 172.15 112.18 170.71 107.06 183.74 120.46 180.65 119.95 178.06 112.54 179.5 117.43 166.75 104.54 169.56 105.05 172.15"/><path class="cls-38" d="M69.26,179.5c3,2.66,6.27,3.74,9.58,1.94,2.16-1.22,2-4.18.36-6.19-1.15-1.37-3.31-1.8-4.18-3-1.29-1.94,1.52-3.45,6,.8l.86-2.88A10.39,10.39,0,0,0,75,167.47a5,5,0,0,0-3.6,2.09c-1.58,2.66.08,4.54,2.09,6a15.22,15.22,0,0,1,2.88,2.23.92.92,0,0,1-.65,1.58c-1.94.43-4-.86-5.83-2.88Z"/><path class="cls-1" d="M160.2,78.12l-5-9.58a15.22,15.22,0,0,0,2-4.24L161.57,74A13.3,13.3,0,0,1,160.2,78.12Z"/><path class="cls-2" d="M157.18,64.44l.57,1.08,3.82,8.5a13.22,13.22,0,0,1-2.23,5.61,29.63,29.63,0,0,1,4.32,12.75L152.5,71.5l.21.21A21.44,21.44,0,0,0,157.18,64.44Z"/><path class="cls-3" d="M155.16,68.54l5,9.58c-.22.5-.58,1-.86,1.51A30.88,30.88,0,0,1,163.66,99c-.94-5.54-3.75-10.58-7.71-15.12a6.68,6.68,0,0,0-.72.65L145,65.38c2,1.44,3.89,2.88,5.69,4.46.64.65,1.36,1.22,2,1.87A30.75,30.75,0,0,0,155.16,68.54Z"/><path class="cls-4" d="M152.5,71.5l11.16,20.88a34.82,34.82,0,0,1,0,6.62c-.94-5.54-3.75-10.58-7.71-15.12-1.08,1.08-2.3,2.16-3.53,3.24L147,77c.22-.22.44-.36.65-.58-.5-.36-1-.79-1.58-1.15L138.6,61.2a82.91,82.91,0,0,1,12.1,8.64c.57.58,1.22,1.08,1.8,1.66ZM122.83,31.75l-.36-.72c.94.51,1.87,1.08,2.81,1.66Z"/><path class="cls-5" d="M145,65.38l10.22,19.15a49.08,49.08,0,0,1-5.76,5L144,79.34c1.3-.93,2.52-1.94,3.67-2.88a79.73,79.73,0,0,0-7.92-5.11L132.62,58A91.89,91.89,0,0,1,145,65.38ZM117.58,29.81,117,28.73a39,39,0,0,1,8.28,4Z"/><path class="cls-6" d="M122.47,31l.36.72-5.47-2a22.76,22.76,0,0,0-3.74.5l-1.52-2.88A41.92,41.92,0,0,1,122.47,31ZM138.6,61.2l7.49,14.11a91.58,91.58,0,0,0-12.17-7L127,55.44A102.43,102.43,0,0,1,138.6,61.2ZM147,77l5.4,10.08c-1.87,1.58-3.88,3.1-6,4.61l-5.48-10.3C143.06,80,145.15,78.55,147,77Z"/><path class="cls-7" d="M117,28.73l.58,1.08-.22-.07a21.77,21.77,0,0,0-5.11.86c5.11,5.11,8.85,13.39,11.59,23.54,3,1.16,5.9,2.45,8.78,3.89l7.13,13.32a110.87,110.87,0,0,0-11.37-5.54L107.5,26.71a40.23,40.23,0,0,1,9.5,2Zm27,50.61,5.47,10.16c-1.94,1.44-4,2.88-6.19,4.32l-5.47-10.37C140,82.15,142.06,80.71,144,79.34Z"/><path class="cls-8" d="M112.1,27.36l1.52,2.88a10.27,10.27,0,0,1-1.37.36c5.11,5.11,8.85,13.39,11.59,23.54,1.08.44,2.16.87,3.17,1.3l6.91,12.89c-2.45-1.23-5-2.31-7.63-3.31.43,2.3.86,4.68,1.22,7L102.89,26a11,11,0,0,1,3.53.72,31.3,31.3,0,0,1,5.68.65Zm28.8,54.07,5.48,10.3c-1.95,1.37-4.11,2.73-6.27,4l-5.54-10.3C136.8,84.1,138.89,82.8,140.9,81.43Z"/><path class="cls-9" d="M107.5,26.71l20.88,39.1c-.72-.29-1.37-.51-2.09-.79,1.08,5.54,1.87,11.44,2.59,17.56L110,47.16a61.07,61.07,0,0,0-5.84-12.89,6.05,6.05,0,0,0-.86.51L98.64,26a19.16,19.16,0,0,1,7.78.72Zm30.31,56.74,5.47,10.37-6.34,3.81-5.61-10.37C133.56,86,135.72,84.74,137.81,83.45Z"/><path class="cls-10" d="M102.89,26l24.62,46.08q1.19,7.89,2,16.2c1.72-.93,3.45-1.87,5.11-2.88l5.54,10.3c-2.09,1.29-4.25,2.52-6.48,3.74L114.12,62.86c-.14-.72-.29-1.52-.5-2.24-.22-.07-.51-.14-.8-.21l-6-11.38c1.36.29,2.73.65,4.1,1a65.11,65.11,0,0,0-6.7-15.77c-1.29.79-2.59,1.66-4,2.59l-3.88-7.34c.93-.43,1.87-.86,2.8-1.22a16,16,0,0,0-1.87-1.37l-2.37-.07-.08-.36A31.59,31.59,0,0,1,102.89,26Z"/><path class="cls-11" d="M98.64,26l4.68,8.79a52.33,52.33,0,0,0-6,4.39l-4.1-7.85a38.94,38.94,0,0,1,6-3,16,16,0,0,0-1.87-1.37l-4.17-.15A55.49,55.49,0,0,1,98.64,26ZM110,47.16l18.86,35.42c.22,1.88.36,3.75.58,5.69.64-.36,1.29-.72,1.87-1l5.61,10.37c-2.16,1.15-4.32,2.38-6.55,3.53v.07L116.21,74.66c-.72-4.6-1.51-9.36-2.59-14-1.88-.57-3.82-1.08-5.76-1.58L102,48.1q4.44.75,8.86,1.94C110.59,49,110.3,48.1,110,47.16Z"/><path class="cls-12" d="M94.82,26.5l.08.36-1.8-.08c.57-.07,1.15-.21,1.72-.28Zm1.52,3,3.88,7.34a71.14,71.14,0,0,0-5.76,4.76l-4.39-8.21a55.26,55.26,0,0,1,6.27-3.89ZM106.78,49l6,11.38c-3.31-1-6.55-1.8-9.79-2.52L97.42,47.3c3,.44,6.19,1,9.36,1.73Zm7.34,13.83,19.51,36.57-3.24,1.73c.15,2.88.22,5.69.22,8.35L117.5,85C116.78,78.12,115.7,70.42,114.12,62.86Z"/><path class="cls-13" d="M93.17,31.32l4.1,7.85c-1.94,1.58-3.74,3.31-5.61,5.11l-4.61-8.64a51.25,51.25,0,0,1,6.12-4.32ZM102,48.1,107.86,59c-3.24-.86-6.48-1.58-9.58-2.16L93,46.73c2.88.29,6,.79,9.07,1.37Zm14.19,26.56,14.18,26.57a144.1,144.1,0,0,1,0,15.84L118.08,94l.14-.07h0C117.86,88.42,117.22,81.72,116.21,74.66Z"/><path class="cls-14" d="M90.07,33.41l4.39,8.21c-1.65,1.51-3.24,3.09-4.89,4.75,2.59.21,5.25.5,7.85.93L103,57.89c-3.24-.72-6.41-1.37-9.36-1.87l-9.5-17.86a50.53,50.53,0,0,1,5.9-4.75ZM117.5,85l13.11,24.55c0,5.26-.29,10.08-.72,14.47L114.7,95.47c1.15-.5,2.3-1,3.52-1.58h0C118,91.15,117.79,88.2,117.5,85Z"/><path class="cls-15" d="M87.05,35.64l4.61,8.64-2.09,2.09c1.15.07,2.23.21,3.38.36l5.33,10.15C95,56.23,92,55.73,89.14,55.37L81.36,40.75a72.46,72.46,0,0,1,5.69-5.11Zm31,58.32,12.31,23.11a118.07,118.07,0,0,1-1.29,13.32l-10.59-19.87V107a12.93,12.93,0,0,1-1.51.72l-5.69-10.65C113.47,96.05,115.78,95,118.08,94Z"/><path class="cls-16" d="M84.17,38.16,93.67,56c-3.17-.51-6.19-.87-9.07-1.16l-6-11.3c1.8-1.94,3.68-3.74,5.55-5.4ZM114.7,95.47,129.89,124A106.57,106.57,0,0,1,128,136.3l-9.8-18.36c.22-3.68.29-7.35.29-11-1.65.79-3.31,1.59-4.89,2.23l-5.76-10.65,6.84-3.1Zm20.23,53.79-1.15-2.16a5.92,5.92,0,0,0,4,.21Z"/><path class="cls-17" d="M81.36,40.75l7.78,14.62c-2.38-.29-4.68-.58-6.77-.72-.43.57-.79,1.08-1.23,1.58L75.67,46h.72c1.66-1.87,3.31-3.6,5-5.26Zm30,56.31L117,107.71c-2.38,1.08-4.68,2.09-6.84,3L104.47,100l.87-.36c1.94-.87,3.88-1.73,6-2.59Zm7.2,13.46,10.59,19.87a93.49,93.49,0,0,1-2.38,11.31L117.79,125c.36-4.75.65-9.65.72-14.47Zm13.39,41-4-7.42c3.82,2.52,7.49,4.18,9.8,3.24Z"/><path class="cls-18" d="M78.62,43.56l6,11.3-2.23-.21c-1.3,1.58-2.52,3.24-3.67,4.89L71.57,46.22c1.58-.07,3.17-.21,4.82-.21.72-.87,1.44-1.66,2.23-2.45Zm29.24,55,5.76,10.65c-1.66.72-3.24,1.44-4.76,2.09q-1,.43-2.16.87L101,101.52c1.51-.65,3-1.3,4.32-1.87.86-.36,1.65-.72,2.52-1.08Zm10.36,19.37L128,136.3c-.51,2.37-1.08,4.6-1.73,6.69a31.24,31.24,0,0,0,7.49,4.11l1.15,2.16-5.11,3.67h0a8.16,8.16,0,0,1-1.3.07l-11.45-21.38C117.65,127.22,118,122.62,118.22,117.94Z"/><path class="cls-19" d="M75.67,46l5.47,10.22c-1.72,2.23-3.31,4.47-4.89,6.7L67.61,46.66A72.62,72.62,0,0,1,75.67,46Zm28.8,54,5.69,10.73c-.43.21-.86.36-1.3.57-1.72.72-3.6,1.51-5.61,2.31l-5.69-10.73c2.38-.94,4.68-2,6.91-2.88Zm13.32,25,8.93,16.71-.43,1.29c.57.36,1.15.72,1.65,1.08l4,7.42-2.08,1.44h0a14.63,14.63,0,0,1-6-.65l-10.15-19.15c.93.79,1.94,1.58,2.88,2.37C117.07,132.12,117.5,128.59,117.79,125Z"/><path class="cls-20" d="M71.57,46.22,78.7,59.54c-1.73,2.24-3.32,4.61-4.76,6.92L68.4,56.09c.36-.51.72-.94,1.08-1.44-.58,0-1.22.07-1.8.07l-4-7.49c2.59-.43,5.18-.79,7.92-1ZM101,101.52l5.68,10.66c-2.16.93-4.46,1.87-6.91,2.8l-5.61-10.65c2.3-.94,4.6-2,6.84-2.81Zm16,30.1L128.52,153a15.2,15.2,0,0,1-5.69-1.15c-.57,1.15-1.15,2.16-1.73,3.09l-15.33-28.65c3.53,3.17,7,6.26,10.8,9.21C116.78,134.28,116.93,133,117.07,131.62Z"/><path class="cls-21" d="M67.61,46.66l8.64,16.27c-1.66,2.37-3.17,4.75-4.61,7.13L66,59.54c1.16-1.65,2.31-3.31,3.46-4.89q-3,.1-5.83.43L59.83,48c2.52-.57,5.11-1,7.78-1.36Zm30,56.23,5.69,10.73c-2.23.86-4.54,1.8-7,2.66l-5.61-10.66c2.37-.86,4.68-1.8,6.91-2.73Zm16.13,30.24,10.15,19.15c-.29-.14-.65-.29-1-.43a29.52,29.52,0,0,1-3.81,6c-.15.15-.29.22-.44.36L113.69,149c.29-.79.5-1.58.72-2.38-1.08-.72-2.16-1.51-3.17-2.3l-14-26.28C102.46,123.26,107.86,128.3,113.69,133.13Z"/><path class="cls-22" d="M63.65,47.23l4,7.49c-2.81.22-5.47.5-8,.86L56.16,49a59.77,59.77,0,0,1,7.49-1.73Zm4.75,8.86,5.54,10.37c-1.65,2.44-3.16,5-4.53,7.34L63.72,63.14c1.51-2.44,3.1-4.75,4.68-7Zm25.78,48.24L99.79,115c-1.37.51-2.73,1-4.1,1.59,3.24,3.24,6.62,6.55,10.08,9.72l15.33,28.65c-.72,1.08-1.44,2.09-2.08,2.88a9,9,0,0,1-3.75,2L112,153.72a52.79,52.79,0,0,0,2.38-7.06c-3.53-2.52-7-5.18-10.37-7.92L87.12,106.92C89.5,106.06,91.87,105.19,94.18,104.33Z"/><path class="cls-23" d="M59.83,48l3.82,7.06c-2.81.29-5.4.72-7.78,1.15L52.56,50a72.68,72.68,0,0,1,7.27-2ZM66,59.54l5.62,10.52c-1.58,2.59-3.1,5.18-4.39,7.63l-5.76-10.8q2.26-3.78,4.53-7.35Zm24.63,46.08,5.61,10.66-.57.29,1.51,1.51,14,26.28c-5-3.74-9.94-7.7-14.83-11.88L78.05,97.78c3,3.31,5.83,6.48,8.57,9.36,1.36-.51,2.73-1,4-1.52Zm23,43.42,4.89,9.14a8.14,8.14,0,0,1-4.32,1.88c-.79.14-1.8.28-2.8.5l-1.59-2.88A30.26,30.26,0,0,0,113.69,149Z"/><path class="cls-24" d="M56.16,49l3.53,6.62c-2.74.44-5.26.94-7.63,1.52l-3-5.69A51.47,51.47,0,0,1,56.16,49Zm7.56,14.18L69.41,73.8c-1.59,2.81-3,5.47-4.18,8L59.33,70.7c1.44-2.59,2.88-5.11,4.39-7.56Zm23.4,43.78L104,138.74c-5.26-4.17-10.37-8.64-15.55-13.46l-21.39-40c6.48,7.7,13.4,15.34,19.52,21.82l.5-.22ZM112,153.72l3.24,6.12-1,.22c-1.72.21-4.24.86-6.62,1.29l-.36-.72C109.08,159.26,110.66,156.89,112,153.72Z"/><path class="cls-25" d="M52.56,50l3.31,6.19a74.42,74.42,0,0,0-7.41,2L45.65,53a59.55,59.55,0,0,1,6.91-3Zm8.93,16.85,5.76,10.8c-.87,1.73-1.66,3.31-2.38,4.89,4.25,5.19,8.79,10.37,13.18,15.2l18.36,34.7c-4.25-3.74-8.57-7.63-12.82-11.81-.5.15-1,.36-1.51.51L54.22,69.05c1.08,1.51,2.3,3,3.52,4.61,1.23-2.31,2.45-4.54,3.75-6.77Zm48.38,90.79,1.59,2.88a60.61,60.61,0,0,1-7.78,1.3l-.22-.36,3.46-.58a11.65,11.65,0,0,0,3-3.24ZM43.56,49.1l-.22-.36c.44-.5.8-.93,1.23-1.36l.21.21Z"/><path class="cls-26" d="M49,51.41l3,5.69c-1.73.5-3.32.93-4.9,1.51a155.3,155.3,0,0,0,10.58,15c.51-.94,1-2,1.59-3l5.9,11.09a4.23,4.23,0,0,0-.36.79c.72.94,1.51,1.8,2.23,2.74l21.39,40c-1.66-1.51-3.24-3-4.9-4.61-1.73.58-3.45,1.08-5.18,1.59l-5.62-10.52,1.51-.43c-1.36-1.44-2.73-2.88-4-4.32L40.82,51.84c1.23-1.51,2.45-3,3.75-4.46l.21.21L43.2,49.54a15.89,15.89,0,0,0,1.3,4A45,45,0,0,1,49,51.41Zm58.25,109.22.36.72c-2.45.43-4.75.79-5.83.36l5.11-.79A1.62,1.62,0,0,1,107.28,160.63Z"/><path class="cls-27" d="M43.34,48.74l.22.36-.36.44a15.89,15.89,0,0,0,1.3,4c.43-.22.79-.36,1.15-.58l2.81,5.19-1.3.43c1.87,3.09,4.25,6.62,7.06,10.44l27.86,52.13c-2.45.72-4.9,1.44-7.34,2.08l-5.62-10.44,5.18-1.51c-4.89-5.18-9.79-10.65-14.54-16.49l-.07.22L38.38,55.15c1.58-2.23,3.24-4.39,5-6.41ZM103.46,161.5l.22.36a3.69,3.69,0,0,1-1.87-.15Z"/><path class="cls-28" d="M40.82,51.84,70.27,107c-3.53-3.89-7-7.92-10.51-12.17-.65,1.66-1.22,3.24-1.8,4.9L51.34,87.41c.21-.51.43-1.08.64-1.59-1.44-1.72-2.88-3.45-4.24-5.18L36.43,59.4h0c-.07-.36-.14-.65-.21-1,1.44-2.3,3-4.46,4.6-6.55Zm32,59.9,5.62,10.52c-2.45.72-4.9,1.36-7.35,2l-5.61-10.51C67.9,113.18,70.34,112.46,72.79,111.74Z"/><path class="cls-29" d="M38.38,55.15,59.69,95c-1.23,3.1-2.38,6.34-3.39,9.5l-6.76-12.6c.79-1.94,1.58-4,2.44-6.12-6.69-7.77-11.8-15.26-14.4-22.39a13.57,13.57,0,0,1-1.15.94c-.43.36-.79.65-1.08.93l-1.51-2.8c.22-.29.36-.65.58-1,.64-.72,1.29-1.37,2-2.09-.07-.36-.14-.65-.21-1l2.16-3.24Zm30.74,57.67,5.62,10.44c-2.45.72-5,1.37-7.42,1.88L61.7,114.7C64.15,114.12,66.67,113.47,69.12,112.82Z"/><path class="cls-30" d="M36.43,59.4,47.74,80.64C43.13,74.74,39.6,69,37.58,63.43a13.57,13.57,0,0,1-1.15.94,17.14,17.14,0,0,0-3.67,4l-.86-1.59a34.38,34.38,0,0,1,2.52-5.25c.64-.72,1.29-1.37,2-2.09Zm14.91,28L58,99.72c-1.15,3.24-2.23,6.55-3.17,9.86l-6.91-13c1-2.88,2.16-6,3.46-9.21Zm14.11,26.35,5.61,10.51q-3.78,1-7.56,1.73L58,115.56C60.41,115.06,62.93,114.41,65.45,113.76Z"/><path class="cls-31" d="M33.84,62.5l1.51,2.8c-2.16,2-3.17,3.82-4.68,7l-.14-.22a29.47,29.47,0,0,1,3.31-9.57Zm15.7,29.44,6.76,12.6c-1.15,3.46-2.08,7-2.88,10.37l-7.05-13.25c.86-3.09,1.94-6.33,3.17-9.72ZM61.7,114.7l5.62,10.44c-2.59.64-5.18,1.15-7.63,1.58l-5.55-10.44C56.59,115.85,59.11,115.27,61.7,114.7Z"/><path class="cls-32" d="M31.9,66.74l.86,1.59a39.29,39.29,0,0,0-2.3,4.39,24,24,0,0,1,1.44-6Zm16,29.88,6.91,13c-.65,2.31-1.22,4.61-1.73,6.84,1.66-.28,3.24-.57,4.9-.86L63.5,126c-2.66.5-5.25.94-7.7,1.3L44.93,107C45.72,103.75,46.66,100.3,47.88,96.62Z"/><path class="cls-33" d="M30.53,72.07l.14.22-.21.43c0-.22.07-.43.07-.65Zm15.84,29.59,7.05,13.25c-.14.51-.21,1-.36,1.51a5.71,5.71,0,0,1,1.08-.14l5.55,10.44c-2.74.43-5.4.79-7.92,1l-8-15A98.77,98.77,0,0,1,46.37,101.66Z"/><path class="cls-34" d="M44.93,107,55.8,127.3c-1.51.21-2.95.36-4.32.43a64.18,64.18,0,0,0,0,7.34L42.12,117.5c.36,0,.65-.07,1-.07A92.47,92.47,0,0,1,44.93,107Zm16,45.72-.43-.86,1.58,1A7.42,7.42,0,0,1,60.91,152.71Z"/><path class="cls-35" d="M43.78,112.68l8,15h-.29c-.5,8.06.65,15.41,4.39,21.17l6.19,4c-1.44.07-4.46-1.59-7.12-3.39L37.87,117.36a43.35,43.35,0,0,0,5.26.07C43.27,115.92,43.49,114.34,43.78,112.68Z"/><path class="cls-36" d="M42.12,117.5l9.36,17.57a29.31,29.31,0,0,0,4.39,13.83l4.61,2.95.43.86c-2.88-.93-8.06-4.53-9.86-6.19a41.91,41.91,0,0,1-3.82-3.67L44.64,138a36.12,36.12,0,0,1-1.87-10.22,30.26,30.26,0,0,1-3.89-.58l-5.54-10.44A41.79,41.79,0,0,0,42.12,117.5Z"/><path class="cls-37" d="M37.87,117.36l17.07,32.11a39.76,39.76,0,0,1-3.89-2.95c-1.3-1.15-4.18-3.6-4.9-5.11-1.58-2.81-3-7.35-3.38-13.61a19.7,19.7,0,0,1-9.22-2.66l-1.22-2.24-2.59-7.05A30.55,30.55,0,0,0,37.87,117.36Z"/><path class="cls-40" d="M33.34,116.78l5.54,10.44a15.3,15.3,0,0,1-5.83-2.44l-3.31-8.93a25.24,25.24,0,0,0,3.6.93ZM44.64,138l2.59,4.83a6.11,6.11,0,0,1-1.08-1.44A16.73,16.73,0,0,1,44.64,138Z"/><path class="cls-41" d="M32.33,122.9l1.22,2.24a3.84,3.84,0,0,1-.5-.36Z"/><path class="cls-42" d="M115.13,90.43l-5.47-28.22c.5.14,1,.29,1.58.5A256.33,256.33,0,0,1,115.13,90.43Z"/><path class="cls-43" d="M110.88,62.57l2.59,13.61c.79,5.54,1.44,10.94,1.87,16.34l-.86.43-6-31.1C109.22,62.06,110,62.35,110.88,62.57Z"/><path class="cls-44" d="M109.66,62.21l5.47,28.22c.07.72.14,1.37.21,2.09-.64.29-1.29.65-1.87.94l-6.26-32A24.24,24.24,0,0,0,109.66,62.21Z"/><path class="cls-44" d="M108.43,61.85l6,31.1c-.72.36-1.37.72-2.09,1L106,61.2C106.78,61.42,107.64,61.63,108.43,61.85Z"/><path class="cls-45" d="M107.21,61.49l6.26,32c-.72.36-1.44.72-2.16,1l-6.55-33.55C105.62,61.13,106.42,61.27,107.21,61.49Z"/><path class="cls-46" d="M106,61.2,112.39,94a13.73,13.73,0,0,1-2.09.94l-6.69-34.28C104.4,60.84,105.19,61,106,61.2Z"/><path class="cls-46" d="M104.76,60.91l6.55,33.55a18.93,18.93,0,0,1-2.09.94l-6.84-35.06C103.18,60.55,104,60.7,104.76,60.91Z"/><path class="cls-47" d="M103.61,60.62,110.3,94.9c-.72.36-1.44.64-2.08,1l-7.06-35.78C102,60.26,102.82,60.41,103.61,60.62Z"/><path class="cls-48" d="M102.38,60.34l6.84,35.06a18,18,0,0,1-2.08.94L100,59.83C100.8,60.05,101.59,60.19,102.38,60.34Z"/><path class="cls-49" d="M101.16,60.12l7.06,35.78c-.72.29-1.44.65-2.16.94L98.78,59.62C99.58,59.76,100.37,59.9,101.16,60.12Z"/><path class="cls-49" d="M100,59.83l7.13,36.51c-.72.36-1.37.64-2.09.93L97.63,59.4Z"/><path class="cls-50" d="M98.78,59.62l7.28,37.22c-.65.29-1.37.58-2.09.94L96.41,59.26C97.2,59.33,98,59.47,98.78,59.62Z"/><path class="cls-51" d="M97.63,59.4l7.42,37.87c-.72.36-1.44.65-2.16.94L95.26,59C96.05,59.18,96.84,59.26,97.63,59.4Z"/><path class="cls-52" d="M96.41,59.26,104,97.78c-.72.28-1.44.57-2.09.86L94.18,58.9C94.9,59,95.62,59.11,96.41,59.26Z"/><path class="cls-53" d="M95.26,59l7.63,39.17c-.65.29-1.37.57-2.09.86L93,58.68C93.74,58.82,94.54,58.9,95.26,59Z"/><path class="cls-54" d="M94.18,58.9l7.7,39.74-2.16.86-7.92-41C92.59,58.68,93.38,58.75,94.18,58.9Z"/><path class="cls-54" d="M93,58.68l7.85,40.39-2.16.87-8-41.55A20.34,20.34,0,0,0,93,58.68Z"/><path class="cls-55" d="M91.8,58.54l7.92,41c-.72.29-1.44.58-2.09.87L89.42,58.25C90.22,58.39,91,58.46,91.8,58.54Z"/><path class="cls-56" d="M90.65,58.39l8,41.55c-.65.28-1.37.57-2.09.86L88.27,58.18Z"/><path class="cls-56" d="M89.42,58.25l8.21,42.12-2.16.86L87.12,58Z"/><path class="cls-57" d="M88.27,58.18l8.28,42.62c-.72.29-1.44.58-2.09.86L86,58Z"/><path class="cls-58" d="M87.12,58l8.35,43.2c-.65.29-1.37.58-2.09.87L84.74,57.82Z"/><path class="cls-58" d="M86,58l8.49,43.7c-.72.29-1.44.58-2.08.8L83.59,57.74Z"/><path class="cls-59" d="M84.74,57.82l8.64,44.28c-.64.21-1.36.5-2.08.79L82.66,58.61a6.16,6.16,0,0,1,.57-.87h0C83.74,57.74,84.24,57.82,84.74,57.82Z"/><path class="cls-60" d="M83.59,57.74l8.79,44.72-2.16.86-8.5-43.49c.5-.72,1-1.44,1.51-2.09Z"/><path class="cls-61" d="M82.66,58.61l8.64,44.28c-.72.29-1.44.5-2.16.79L80.78,61.06C81.43,60.26,82,59.4,82.66,58.61Z"/><path class="cls-62" d="M81.72,59.83l8.5,43.49c-.72.22-1.44.5-2.16.79L79.92,62.35C80.5,61.49,81.07,60.7,81.72,59.83Z"/><path class="cls-62" d="M80.78,61.06l8.36,42.62-1.59.58h0l-.72-.8L79.06,63.65Z"/><path class="cls-63" d="M79.92,62.35l8.14,41.76-.51.15h0c-.72-.8-1.44-1.59-2.23-2.38l-7.2-36.94C78.7,64.08,79.34,63.22,79.92,62.35Z"/><path class="cls-64" d="M79.06,63.65l7.77,39.81c-1-1-1.94-2.08-3-3.09L77.26,66.31C77.83,65.45,78.41,64.51,79.06,63.65Z"/><path class="cls-64" d="M78.12,64.94l7.2,36.94c-.94-1-1.87-2.09-2.88-3.1l-6-31.1C77,66.74,77.54,65.88,78.12,64.94Z"/><path class="cls-64" d="M77.26,66.31l6.62,34.06c-.94-1.08-1.94-2.09-2.88-3.17L75.46,69.05C76,68.11,76.68,67.18,77.26,66.31Z"/><path class="cls-64" d="M76.39,67.68l6,31.1c-.94-1.08-1.94-2.08-2.88-3.16l-5-25.2C75.17,69.48,75.74,68.54,76.39,67.68Z"/><path class="cls-64" d="M75.46,69.05,81,97.2c-1-1.08-1.94-2.16-3-3.1L73.73,71.86Z"/><path class="cls-64" d="M74.59,70.42l5,25.2c-1-1-1.94-2.09-3-3.17L72.86,73.3C73.44,72.36,74,71.35,74.59,70.42Z"/><path class="cls-64" d="M73.73,71.86,78.05,94.1c-.94-1.08-2-2.16-2.88-3.24L72,74.74C72.58,73.8,73.15,72.79,73.73,71.86Z"/><path class="cls-64" d="M72.86,73.3l3.75,19.15c-1-1.08-2-2.16-3-3.24l-2.52-13C71.71,75.24,72.29,74.3,72.86,73.3Z"/><path class="cls-64" d="M72,74.74l3.17,16.12c-1-1.08-2-2.23-3-3.31l-1.88-9.79C70.85,76.75,71.42,75.74,72,74.74Z"/><path class="cls-64" d="M71.14,76.25l2.52,13c-.94-1.08-2-2.23-2.88-3.31l-1.3-6.56C70.06,78.34,70.56,77.26,71.14,76.25Z"/><path class="cls-64" d="M70.34,77.76l1.88,9.79c-1-1.08-2-2.23-3-3.31l-.64-3.31C69.19,79.85,69.77,78.84,70.34,77.76Z"/><path class="cls-64" d="M69.48,79.34l1.3,6.56c-1-1.08-2-2.24-3-3.39h0C68.33,81.43,68.9,80.42,69.48,79.34Z"/><path class="cls-65" d="M68.62,80.93l.64,3.31c-.5-.58-1-1.15-1.44-1.73A16.75,16.75,0,0,1,68.62,80.93Z"/><path class="cls-66" d="M70,85.1c5.62,6.34,11.67,12.82,17.57,19.16,8.93-3.32,17.71-6.84,25.71-10.73-3.68-4.11-7.35-2.67-11,.43-1.87-6-5.54-9.86-9.58-10.44-3.6-.58-8.92.14-13.46,6.55C77.18,85.61,74.3,83.59,70,85.1Z"/><path class="cls-38" d="M82.22,76.9l8.64,1.44-1.08,5a12,12,0,0,1,2.88.14,6.42,6.42,0,0,1,2,.58l1-4.9,9,1.58.79-5L96.7,74.3l.79-3.52L104.54,72l.8-4.9L98.5,65.88l.79-3.74-4.83-.87-.79,3.82-6.62-1.15-.87,4.89L92.66,70l-.79,3.53-8.78-1.58Z"/></g></g></svg>