<svg xmlns="http://www.w3.org/2000/svg" xmlns:xlink="http://www.w3.org/1999/xlink" width="1080" zoomAndPan="magnify" viewBox="0 0 810 809.999993" height="1080" preserveAspectRatio="xMidYMid meet" version="1.0"><path fill="#165ea3" d="M 610.363281 754.070312 L 757.761719 604.183594 C 753.386719 611.890625 748.765625 619.449219 743.898438 626.851562 C 739.03125 634.257812 733.925781 641.5 728.585938 648.570312 C 723.246094 655.644531 717.683594 662.535156 711.894531 669.246094 C 706.105469 675.957031 700.101562 682.472656 693.890625 688.789062 C 687.675781 695.109375 681.261719 701.21875 674.648438 707.117188 C 668.039062 713.019531 661.238281 718.699219 654.257812 724.15625 C 647.273438 729.613281 640.121094 734.839844 632.800781 739.828125 C 625.476562 744.820312 617.996094 749.566406 610.363281 754.070312 Z M 610.363281 754.070312 " fill-opacity="1" fill-rule="evenodd"/><path fill="#135fa4" d="M 549.15625 783.730469 L 786.21875 542.375 C 783.742188 549.210938 781.082031 555.972656 778.242188 562.664062 C 775.398438 569.355469 772.382812 575.96875 769.1875 582.5 C 765.992188 589.03125 762.625 595.46875 759.082031 601.820312 C 755.542969 608.167969 751.835938 614.421875 747.960938 620.570312 C 744.085938 626.722656 740.046875 632.765625 735.847656 638.703125 C 731.648438 644.636719 727.296875 650.453125 722.785156 656.15625 C 718.273438 661.859375 713.613281 667.433594 708.804688 672.886719 C 703.996094 678.339844 699.042969 683.660156 693.949219 688.847656 C 688.855469 694.03125 683.625 699.078125 678.257812 703.984375 C 672.894531 708.890625 667.402344 713.652344 661.78125 718.265625 C 656.164062 722.875 650.421875 727.335938 644.5625 731.640625 C 638.707031 735.945312 632.734375 740.089844 626.65625 744.074219 C 620.574219 748.058594 614.390625 751.878906 608.105469 755.53125 C 601.820312 759.183594 595.441406 762.667969 588.96875 765.980469 C 582.496094 769.292969 575.941406 772.429688 569.300781 775.390625 C 562.660156 778.347656 555.945312 781.128906 549.15625 783.730469 Z M 549.15625 783.730469 " fill-opacity="1" fill-rule="evenodd"/><path fill="#1860a5" d="M 757.761719 604.183594 L 610.363281 754.070312 C 593.570312 764.054688 576.132812 772.757812 558.058594 780.179688 C 539.984375 787.601562 521.464844 793.664062 502.5 798.367188 L 799.828125 495.804688 C 795.511719 514.800781 789.828125 533.378906 782.78125 551.539062 C 775.730469 569.703125 767.394531 587.25 757.761719 604.183594 Z M 757.761719 604.183594 " fill-opacity="1" fill-rule="evenodd"/><path fill="#1562a6" d="M 786.21875 542.375 L 549.15625 783.730469 C 521.140625 794.371094 492.296875 801.796875 462.625 806.007812 L 806.953125 455.542969 C 803.285156 485.261719 796.375 514.207031 786.21875 542.375 Z M 786.21875 542.375 " fill-opacity="1" fill-rule="evenodd"/><path fill="#1963a7" d="M 799.828125 495.71875 L 502.5 798.367188 C 477.621094 804.558594 452.382812 808.367188 426.785156 809.785156 L 809.699219 419.785156 C 808.890625 445.421875 805.601562 470.730469 799.828125 495.71875 Z M 799.828125 495.71875 " fill-opacity="1" fill-rule="evenodd"/><path fill="#1764a7" d="M 806.953125 455.542969 L 462.667969 806.007812 C 443.605469 808.71875 424.445312 810.050781 405.191406 810 L 394.332031 810 L 809.699219 387.550781 C 810 393.433594 810 399.269531 810 405.148438 C 810.085938 422.015625 809.070312 438.8125 806.953125 455.542969 Z M 806.953125 455.542969 " fill-opacity="1" fill-rule="evenodd"/><path fill="#1d64a7" d="M 809.699219 419.699219 L 426.785156 809.699219 C 419.699219 810 412.277344 810 405.320312 810 C 391.414062 810 377.808594 809.398438 364.246094 808.152344 L 807.210938 356.949219 C 809.097656 372.960938 810.027344 389.027344 810 405.148438 C 810 409.785156 810 414.722656 809.699219 419.699219 Z M 809.699219 419.699219 " fill-opacity="1" fill-rule="evenodd"/><path fill="#2166a8" d="M 809.699219 387.550781 L 394.332031 810 C 374.617188 809.472656 355.042969 807.515625 335.613281 804.121094 L 802.917969 328.53125 C 806.589844 348.042969 808.851562 367.714844 809.699219 387.550781 Z M 809.699219 387.550781 " fill-opacity="1" fill-rule="evenodd"/><path fill="#1f67a9" d="M 807.210938 356.949219 L 364.074219 808.152344 C 345.40625 806.257812 326.964844 803.066406 308.746094 798.582031 L 796.738281 301.921875 C 801.632812 319.996094 805.121094 338.339844 807.210938 356.949219 Z M 807.210938 356.949219 " fill-opacity="1" fill-rule="evenodd"/><path fill="#2368aa" d="M 802.917969 328.53125 L 335.613281 804.121094 C 317.921875 800.964844 300.507812 796.675781 283.378906 791.242188 L 789.3125 276.894531 C 794.949219 293.816406 799.484375 311.03125 802.917969 328.53125 Z M 802.917969 328.53125 " fill-opacity="1" fill-rule="evenodd"/><path fill="#266aab" d="M 796.738281 301.921875 L 308.746094 798.582031 C 292.011719 794.542969 275.628906 789.394531 259.597656 783.128906 L 780.640625 252.816406 C 786.929688 268.882812 792.292969 285.25 796.738281 301.921875 Z M 796.738281 301.921875 " fill-opacity="1" fill-rule="evenodd"/><path fill="#246bad" d="M 789.3125 276.894531 L 283.292969 791.457031 C 267.371094 786.445312 251.820312 780.480469 236.632812 773.558594 L 770.46875 230.238281 C 777.679688 245.414062 783.960938 260.96875 789.3125 276.894531 Z M 789.3125 276.894531 " fill-opacity="1" fill-rule="evenodd"/><path fill="#276cae" d="M 780.640625 252.816406 L 259.597656 783.128906 C 244.171875 777.285156 229.179688 770.488281 214.613281 762.742188 L 759.308594 208.605469 C 767.371094 222.882812 774.480469 237.621094 780.640625 252.816406 Z M 780.640625 252.816406 " fill-opacity="1" fill-rule="evenodd"/><path fill="#256dae" d="M 770.46875 230.238281 L 236.71875 773.558594 C 222.105469 766.863281 207.898438 759.394531 194.097656 751.152344 L 747.289062 188.21875 C 755.78125 201.800781 763.507812 215.808594 770.46875 230.238281 Z M 770.46875 230.238281 " fill-opacity="1" fill-rule="evenodd"/><path fill="#296faf" d="M 759.308594 208.605469 L 214.613281 762.742188 C 200.757812 755.257812 187.367188 747.015625 174.4375 738.019531 L 733.984375 168.730469 C 743.191406 181.535156 751.632812 194.828125 759.308594 208.605469 Z M 759.308594 208.605469 " fill-opacity="1" fill-rule="evenodd"/><path fill="#2770b0" d="M 747.289062 188.21875 L 194.097656 751.152344 C 180.804688 743.039062 168.027344 734.183594 155.765625 724.582031 L 719.777344 150.230469 C 729.664062 162.375 738.835938 175.035156 747.289062 188.21875 Z M 747.289062 188.21875 " fill-opacity="1" fill-rule="evenodd"/><path fill="#2c70b0" d="M 733.984375 168.730469 L 174.609375 738.019531 C 161.847656 729.304688 149.683594 719.820312 138.125 709.558594 L 704.925781 133.0625 C 715.214844 144.460938 724.898438 156.351562 733.984375 168.730469 Z M 733.984375 168.730469 " fill-opacity="1" fill-rule="evenodd"/><path fill="#2973b2" d="M 719.777344 150.230469 L 155.765625 724.410156 C 143.707031 714.839844 132.289062 704.625 121.128906 693.808594 L 688.871094 116.191406 C 699.820312 126.949219 710.125 138.296875 719.777344 150.230469 Z M 719.777344 150.230469 " fill-opacity="1" fill-rule="evenodd"/><path fill="#2e73b2" d="M 704.925781 133.0625 L 138.339844 709.730469 C 126.785156 699.570312 115.769531 688.851562 105.289062 677.582031 L 672.175781 100.441406 C 683.589844 110.65625 694.410156 121.472656 704.925781 133.0625 Z M 704.925781 133.0625 " fill-opacity="1" fill-rule="evenodd"/><path fill="#3175b3" d="M 688.871094 116.191406 L 121.128906 693.808594 C 110.1875 683.058594 99.886719 671.726562 90.222656 659.8125 L 654.230469 85.589844 C 666.351562 95.144531 677.894531 105.34375 688.871094 116.191406 Z M 688.871094 116.191406 " fill-opacity="1" fill-rule="evenodd"/><path fill="#2f76b4" d="M 672.175781 100.441406 L 105.074219 677.410156 C 94.707031 665.914062 85.019531 653.867188 76.015625 641.269531 L 635.261719 72.023438 C 648.183594 80.691406 660.488281 90.164062 672.175781 100.441406 Z M 672.175781 100.441406 " fill-opacity="1" fill-rule="evenodd"/><path fill="#3277b5" d="M 654.230469 85.589844 L 90.136719 659.8125 C 80.175781 647.714844 71.019531 635.039062 62.667969 621.78125 L 615.945312 59.019531 C 629.207031 67.390625 641.871094 76.015625 654.230469 85.589844 Z M 654.230469 85.589844 " fill-opacity="1" fill-rule="evenodd"/><path fill="#3579b6" d="M 635.261719 72.023438 L 76.015625 641.269531 C 66.742188 628.507812 58.300781 615.214844 50.691406 601.394531 L 595.214844 47.214844 C 609.089844 54.632812 622.4375 62.902344 635.261719 72.023438 Z M 635.261719 72.023438 " fill-opacity="1" fill-rule="evenodd"/><path fill="#337ab8" d="M 615.945312 59.019531 L 62.753906 621.78125 C 54.207031 608.226562 46.484375 594.21875 39.574219 579.761719 L 573.578125 36.484375 C 588.125 43.199219 602.25 50.710938 615.945312 59.019531 Z M 615.945312 59.019531 " fill-opacity="1" fill-rule="evenodd"/><path fill="#367cb9" d="M 595.214844 47.214844 L 50.691406 601.394531 C 42.753906 587.113281 35.742188 572.390625 29.660156 557.226562 L 550.703125 26.871094 C 565.945312 32.765625 580.78125 39.550781 595.214844 47.214844 Z M 595.214844 47.214844 " fill-opacity="1" fill-rule="evenodd"/><path fill="#347dba" d="M 573.578125 36.484375 L 39.574219 579.761719 C 32.320312 564.699219 26.027344 549.246094 20.6875 533.402344 L 526.621094 18.542969 C 542.648438 23.546875 558.300781 29.527344 573.578125 36.484375 Z M 573.578125 36.484375 " fill-opacity="1" fill-rule="evenodd"/><path fill="#397dba" d="M 550.703125 26.871094 L 29.660156 557.226562 C 23.132812 541.203125 17.679688 524.820312 13.304688 508.078125 L 501.253906 11.417969 C 518.042969 15.59375 534.523438 20.742188 550.703125 26.871094 Z M 550.703125 26.871094 " fill-opacity="1" fill-rule="evenodd"/><path fill="#3682be" d="M 526.621094 18.542969 L 20.6875 533.402344 C 15.089844 516.386719 10.566406 499.089844 7.125 481.511719 L 474.386719 5.878906 C 492.070312 8.976562 509.480469 13.199219 526.621094 18.542969 Z M 526.621094 18.542969 " fill-opacity="1" fill-rule="evenodd"/><path fill="#3b82be" d="M 501.253906 11.417969 L 13.304688 508.078125 C 8.515625 489.984375 5.011719 471.640625 2.789062 453.050781 L 445.96875 1.847656 C 464.589844 3.933594 483.015625 7.125 501.253906 11.417969 Z M 501.253906 11.417969 " fill-opacity="1" fill-rule="evenodd"/><path fill="#3d84bf" d="M 474.386719 5.878906 L 7.125 481.511719 C 3.441406 462.101562 1.164062 442.527344 0.300781 422.792969 L 415.667969 0 C 435.382812 0.53125 454.957031 2.492188 474.386719 5.878906 Z M 474.386719 5.878906 " fill-opacity="1" fill-rule="evenodd"/><path fill="#3c85c0" d="M 445.96875 1.847656 L 2.789062 453.050781 C 0.929688 437.148438 0 421.179688 0 405.148438 C 0 400.214844 0 395.277344 0.300781 390.339844 L 383.214844 0.601562 C 390.597656 0 397.722656 0 405.148438 0 C 418.769531 0 432.378906 0.617188 445.96875 1.847656 Z M 445.96875 1.847656 " fill-opacity="1" fill-rule="evenodd"/><path fill="#3e87c3" d="M 415.667969 0 L 0.300781 422.792969 C 0 416.910156 0 410.730469 0 405.148438 C -0.0507812 388.1875 0.980469 371.289062 3.089844 354.457031 L 347.375 4.035156 C 366.535156 1.277344 385.792969 -0.0664062 405.148438 0 Z M 415.667969 0 " fill-opacity="1" fill-rule="evenodd"/><path fill="#3d88c4" d="M 383.214844 0.601562 L 0.300781 390.339844 C 1.242188 364.679688 4.546875 339.328125 10.214844 314.28125 L 307.5 11.761719 C 332.386719 5.65625 357.625 1.9375 383.214844 0.601562 Z M 383.214844 0.601562 " fill-opacity="1" fill-rule="evenodd"/><path fill="#3f8ac5" d="M 347.375 4.035156 L 3.089844 354.457031 C 6.777344 324.75 13.671875 295.804688 23.78125 267.625 L 260.84375 26.269531 C 288.859375 15.628906 317.703125 8.21875 347.375 4.035156 Z M 347.375 4.035156 " fill-opacity="1" fill-rule="evenodd"/><path fill="#428cc6" d="M 307.5 11.761719 L 10.214844 314.28125 C 14.585938 295.324219 20.289062 276.777344 27.328125 258.644531 C 34.371094 240.507812 42.671875 222.96875 52.238281 206.03125 L 199.636719 55.800781 C 216.449219 45.878906 233.890625 37.230469 251.964844 29.851562 C 270.035156 22.472656 288.550781 16.441406 307.5 11.761719 Z M 307.5 11.761719 " fill-opacity="1" fill-rule="evenodd"/><path fill="#418dc7" d="M 260.84375 26.269531 L 23.78125 267.625 C 26.265625 260.792969 28.929688 254.035156 31.777344 247.34375 C 34.625 240.65625 37.644531 234.046875 40.847656 227.523438 C 44.046875 220.996094 47.417969 214.558594 50.960938 208.210938 C 54.503906 201.863281 58.214844 195.617188 62.09375 189.46875 C 65.972656 183.320312 70.011719 177.277344 74.210938 171.347656 C 78.410156 165.414062 82.765625 159.597656 87.277344 153.898438 C 91.789062 148.199219 96.449219 142.621094 101.261719 137.171875 C 106.070312 131.722656 111.023438 126.402344 116.117188 121.21875 C 121.210938 116.03125 126.4375 110.984375 131.800781 106.078125 C 137.164062 101.171875 142.65625 96.410156 148.273438 91.796875 C 153.890625 87.1875 159.628906 82.726562 165.484375 78.417969 C 171.339844 74.113281 177.308594 69.964844 183.386719 65.980469 C 189.464844 61.992188 195.644531 58.167969 201.925781 54.511719 C 208.207031 50.855469 214.582031 47.367188 221.050781 44.050781 C 227.519531 40.734375 234.074219 37.59375 240.710938 34.628906 C 247.347656 31.664062 254.058594 28.875 260.84375 26.269531 Z M 260.84375 26.269531 " fill-opacity="1" fill-rule="evenodd"/><path fill="#458dc7" d="M 199.636719 55.800781 L 52.238281 206.03125 C 56.609375 198.3125 61.230469 190.742188 66.097656 183.324219 C 70.964844 175.902344 76.066406 168.652344 81.40625 161.566406 C 86.742188 154.480469 92.308594 147.574219 98.097656 140.847656 C 103.882812 134.125 109.886719 127.597656 116.097656 121.265625 C 122.3125 114.929688 128.726562 108.804688 135.339844 102.890625 C 141.953125 96.976562 148.75 91.28125 155.734375 85.808594 C 162.714844 80.335938 169.871094 75.097656 177.195312 70.089844 C 184.519531 65.082031 192 60.320312 199.636719 55.800781 Z M 199.636719 55.800781 " fill-opacity="1" fill-rule="evenodd"/><path fill="#ffffff" d="M 405.148438 712.523438 C 410.179688 712.519531 415.207031 712.394531 420.230469 712.144531 C 425.253906 711.894531 430.269531 711.523438 435.273438 711.03125 C 440.28125 710.535156 445.269531 709.917969 450.246094 709.175781 C 455.222656 708.4375 460.175781 707.574219 465.109375 706.589844 C 470.039062 705.609375 474.945312 704.503906 479.824219 703.28125 C 484.703125 702.054688 489.550781 700.714844 494.363281 699.25 C 499.175781 697.789062 503.949219 696.210938 508.683594 694.515625 C 513.417969 692.816406 518.109375 691.007812 522.757812 689.078125 C 527.402344 687.152344 532 685.113281 536.546875 682.960938 C 541.089844 680.808594 545.582031 678.546875 550.015625 676.171875 C 554.453125 673.800781 558.828125 671.320312 563.140625 668.734375 C 567.453125 666.144531 571.699219 663.453125 575.882812 660.65625 C 580.0625 657.863281 584.171875 654.964844 588.210938 651.96875 C 592.25 648.96875 596.214844 645.875 600.101562 642.683594 C 603.988281 639.488281 607.792969 636.203125 611.519531 632.824219 C 615.246094 629.445312 618.886719 625.976562 622.441406 622.417969 C 625.996094 618.859375 629.464844 615.21875 632.839844 611.488281 C 636.214844 607.761719 639.5 603.953125 642.6875 600.0625 C 645.878906 596.175781 648.972656 592.210938 651.964844 588.167969 C 654.960938 584.128906 657.855469 580.015625 660.648438 575.832031 C 663.441406 571.648438 666.128906 567.398438 668.714844 563.085938 C 671.300781 558.769531 673.777344 554.394531 676.144531 549.957031 C 678.515625 545.519531 680.773438 541.027344 682.925781 536.480469 C 685.074219 531.933594 687.109375 527.335938 689.03125 522.6875 C 690.957031 518.039062 692.765625 513.347656 694.457031 508.609375 C 696.152344 503.875 697.726562 499.097656 699.183594 494.285156 C 700.644531 489.472656 701.984375 484.625 703.203125 479.746094 C 704.425781 474.867188 705.523438 469.960938 706.503906 465.027344 C 707.484375 460.09375 708.34375 455.136719 709.078125 450.160156 C 709.816406 445.1875 710.429688 440.195312 710.921875 435.191406 C 711.414062 430.183594 711.78125 425.167969 712.027344 420.144531 C 712.273438 415.121094 712.394531 410.09375 712.394531 405.0625 C 712.390625 400.035156 712.269531 395.007812 712.019531 389.984375 C 711.773438 384.960938 711.402344 379.949219 710.910156 374.945312 C 710.414062 369.9375 709.800781 364.949219 709.0625 359.972656 C 708.320312 355 707.460938 350.046875 706.480469 345.113281 C 705.496094 340.179688 704.394531 335.277344 703.171875 330.398438 C 701.949219 325.519531 700.609375 320.671875 699.148438 315.859375 C 697.6875 311.046875 696.109375 306.273438 694.414062 301.539062 C 692.71875 296.804688 690.910156 292.113281 688.984375 287.46875 C 687.058594 282.820312 685.019531 278.226562 682.867188 273.679688 C 680.71875 269.132812 678.457031 264.644531 676.085938 260.207031 C 673.714844 255.773438 671.234375 251.398438 668.648438 247.085938 C 666.0625 242.769531 663.371094 238.523438 660.578125 234.34375 C 657.78125 230.160156 654.886719 226.050781 651.890625 222.011719 C 648.894531 217.972656 645.800781 214.007812 642.609375 210.121094 C 639.417969 206.234375 636.132812 202.425781 632.753906 198.699219 C 629.375 194.976562 625.90625 191.332031 622.351562 187.777344 C 618.792969 184.222656 615.152344 180.753906 611.425781 177.378906 C 607.699219 174 603.890625 170.71875 600 167.527344 C 596.113281 164.335938 592.148438 161.242188 588.109375 158.25 C 584.066406 155.253906 579.957031 152.359375 575.773438 149.5625 C 571.59375 146.769531 567.34375 144.082031 563.03125 141.496094 C 558.714844 138.910156 554.339844 136.433594 549.902344 134.0625 C 545.46875 131.691406 540.976562 129.429688 536.429688 127.28125 C 531.882812 125.128906 527.285156 123.09375 522.636719 121.167969 C 517.992188 119.242188 513.300781 117.433594 508.5625 115.742188 C 503.828125 114.046875 499.050781 112.46875 494.238281 111.007812 C 489.425781 109.550781 484.578125 108.210938 479.699219 106.988281 C 474.820312 105.765625 469.914062 104.664062 464.980469 103.683594 C 460.046875 102.703125 455.09375 101.84375 450.117188 101.105469 C 445.144531 100.367188 440.152344 99.75 435.148438 99.257812 C 430.140625 98.765625 425.125 98.394531 420.101562 98.148438 C 415.078125 97.902344 410.050781 97.777344 405.019531 97.777344 C 399.992188 97.777344 394.964844 97.902344 389.9375 98.152344 C 384.914062 98.398438 379.898438 98.769531 374.890625 99.261719 C 369.886719 99.757812 364.894531 100.371094 359.917969 101.109375 C 354.941406 101.851562 349.988281 102.710938 345.054688 103.691406 C 340.121094 104.675781 335.214844 105.777344 330.332031 107 C 325.453125 108.222656 320.605469 109.5625 315.792969 111.023438 C 310.980469 112.484375 306.203125 114.0625 301.46875 115.757812 C 296.730469 117.453125 292.039062 119.261719 287.390625 121.1875 C 282.746094 123.113281 278.148438 125.152344 273.601562 127.300781 C 269.050781 129.453125 264.558594 131.714844 260.125 134.085938 C 255.6875 136.457031 251.3125 138.9375 246.996094 141.523438 C 242.683594 144.109375 238.433594 146.800781 234.25 149.59375 C 230.070312 152.390625 225.957031 155.285156 221.917969 158.28125 C 217.875 161.277344 213.914062 164.371094 210.023438 167.5625 C 206.136719 170.753906 202.328125 174.039062 198.601562 177.417969 C 194.875 180.796875 191.230469 184.265625 187.675781 187.820312 C 184.117188 191.378906 180.648438 195.019531 177.273438 198.746094 C 173.894531 202.472656 170.609375 206.28125 167.417969 210.171875 C 164.226562 214.058594 161.132812 218.023438 158.136719 222.0625 C 155.140625 226.101562 152.246094 230.214844 149.449219 234.398438 C 146.65625 238.578125 143.964844 242.828125 141.378906 247.140625 C 138.792969 251.457031 136.3125 255.832031 133.941406 260.269531 C 131.570312 264.703125 129.308594 269.195312 127.160156 273.742188 C 125.007812 278.289062 122.972656 282.886719 121.046875 287.535156 C 119.121094 292.179688 117.3125 296.871094 115.617188 301.609375 C 113.921875 306.34375 112.34375 311.121094 110.882812 315.933594 C 109.425781 320.746094 108.082031 325.59375 106.859375 330.472656 C 105.640625 335.351562 104.535156 340.257812 103.554688 345.191406 C 102.574219 350.125 101.714844 355.078125 100.976562 360.054688 C 100.238281 365.027344 99.621094 370.019531 99.128906 375.023438 C 98.636719 380.03125 98.265625 385.046875 98.019531 390.070312 C 97.773438 395.09375 97.648438 400.121094 97.648438 405.148438 C 97.648438 410.183594 97.769531 415.210938 98.011719 420.238281 C 98.257812 425.265625 98.625 430.28125 99.113281 435.292969 C 99.605469 440.300781 100.21875 445.292969 100.957031 450.269531 C 101.691406 455.25 102.550781 460.207031 103.53125 465.144531 C 104.511719 470.078125 105.609375 474.988281 106.832031 479.871094 C 108.054688 484.753906 109.394531 489.601562 110.855469 494.417969 C 112.3125 499.234375 113.890625 504.011719 115.585938 508.75 C 117.277344 513.488281 119.089844 518.183594 121.011719 522.832031 C 122.9375 527.484375 124.976562 532.082031 127.128906 536.632812 C 129.277344 541.179688 131.539062 545.675781 133.914062 550.113281 C 136.285156 554.550781 138.761719 558.929688 141.351562 563.246094 C 143.9375 567.5625 146.628906 571.8125 149.425781 575.996094 C 152.222656 580.183594 155.117188 584.296875 158.117188 588.335938 C 161.113281 592.378906 164.210938 596.34375 167.402344 600.234375 C 170.597656 604.125 173.882812 607.933594 177.261719 611.660156 C 180.644531 615.390625 184.113281 619.03125 187.671875 622.589844 C 191.230469 626.148438 194.875 629.617188 198.605469 632.996094 C 202.335938 636.375 206.144531 639.660156 210.035156 642.851562 C 213.929688 646.042969 217.894531 649.136719 221.9375 652.132812 C 225.980469 655.128906 230.097656 658.023438 234.28125 660.816406 C 238.464844 663.613281 242.71875 666.300781 247.035156 668.886719 C 251.355469 671.472656 255.730469 673.949219 260.171875 676.320312 C 264.609375 678.691406 269.105469 680.949219 273.65625 683.097656 C 278.207031 685.25 282.808594 687.285156 287.457031 689.207031 C 292.109375 691.128906 296.804688 692.9375 301.542969 694.628906 C 306.28125 696.324219 311.058594 697.898438 315.878906 699.355469 C 320.695312 700.8125 325.542969 702.152344 330.425781 703.371094 C 335.308594 704.589844 340.21875 705.6875 345.15625 706.667969 C 350.089844 707.644531 355.050781 708.5 360.027344 709.234375 C 365.007812 709.96875 370 710.582031 375.007812 711.070312 C 380.015625 711.558594 385.035156 711.921875 390.0625 712.164062 C 395.089844 712.40625 400.117188 712.527344 405.148438 712.523438 Z M 405.148438 712.523438 " fill-opacity="1" fill-rule="evenodd"/><path fill="#ffffff" d="M 165.039062 183.582031 L 158.558594 192.210938 L 125.164062 196.84375 L 144.652344 211.695312 L 140.015625 218.175781 L 96.105469 184.484375 L 101.039062 178.300781 L 118.683594 191.910156 L 114.949219 161.648438 L 121.128906 153.277344 L 126.109375 187.917969 Z M 165.039062 183.582031 " fill-opacity="1" fill-rule="evenodd"/><path fill="#ffffff" d="M 286.8125 51.9375 L 264.535156 61.507812 L 270.113281 74.171875 L 291.445312 66.144531 L 294.195312 72.925781 L 272.90625 80.953125 L 282.175781 104.132812 L 275.050781 107.222656 L 254.664062 57.472656 L 284.019531 45.113281 Z M 286.8125 51.9375 " fill-opacity="1" fill-rule="evenodd"/><path fill="#ffffff" d="M 331.28125 33.394531 L 336.558594 63.355469 L 336.558594 64.597656 L 336.859375 65.5 L 336.859375 66.144531 L 337.160156 67.046875 L 337.460938 67.988281 L 337.460938 68.589844 L 337.804688 69.234375 L 338.105469 69.835938 L 338.105469 70.480469 L 338.40625 71.082031 L 338.707031 71.679688 L 339.007812 72.324219 L 339.347656 72.925781 L 339.648438 73.226562 L 340.25 73.871094 L 340.550781 74.171875 L 341.195312 74.773438 L 341.496094 75.117188 L 342.097656 75.414062 L 342.738281 75.714844 L 343.640625 76.015625 L 344.285156 76.316406 L 345.1875 76.660156 L 345.832031 76.660156 L 346.730469 76.960938 L 352.011719 76.960938 L 352.914062 76.660156 L 353.855469 76.660156 L 354.457031 76.316406 L 356.347656 75.714844 L 357.25 75.414062 L 357.890625 75.117188 L 358.792969 74.773438 L 359.4375 74.472656 L 360.039062 73.871094 L 360.980469 73.570312 L 361.582031 72.925781 L 361.882812 72.625 L 362.527344 72.023438 L 363.128906 71.382812 L 363.429688 71.082031 L 363.730469 70.480469 L 364.074219 69.835938 L 364.375 69.234375 L 364.671875 68.933594 L 364.671875 68.289062 L 364.972656 67.691406 L 364.972656 63.355469 L 364.671875 62.753906 L 364.671875 60.863281 L 364.375 60.265625 L 364.074219 58.417969 L 359.09375 28.414062 L 366.820312 27.214844 L 372.097656 58.71875 L 372.398438 59.664062 L 372.398438 61.207031 L 372.699219 61.808594 L 372.699219 64.597656 L 373 65.199219 L 373 65.84375 L 372.699219 66.445312 L 372.699219 68.289062 L 372.398438 69.234375 L 372.398438 69.835938 L 372.097656 70.480469 L 371.800781 71.082031 L 371.800781 71.679688 L 371.457031 72.324219 L 371.15625 72.925781 L 370.855469 73.570312 L 370.253906 74.171875 L 369.910156 74.773438 L 369.308594 75.714844 L 368.707031 76.316406 L 368.066406 77.261719 L 367.164062 77.863281 L 366.21875 78.808594 L 365.273438 79.40625 L 364.375 80.050781 L 363.429688 80.652344 L 362.527344 81.296875 L 361.582031 81.597656 L 360.339844 82.199219 L 359.4375 82.496094 L 358.191406 83.140625 L 357.25 83.441406 L 356.003906 83.742188 L 354.800781 83.742188 L 353.558594 84.042969 L 352.3125 84.386719 L 346.730469 84.386719 L 345.53125 84.042969 L 344.285156 84.042969 L 343.339844 83.742188 L 342.097656 83.441406 L 341.195312 83.140625 L 339.949219 82.839844 L 339.007812 82.199219 L 338.105469 81.898438 L 337.160156 81.296875 L 336.257812 80.652344 L 335.316406 80.050781 L 334.714844 79.105469 L 334.070312 78.507812 L 333.167969 77.5625 L 332.523438 76.960938 L 332.222656 76.015625 L 331.625 75.117188 L 331.28125 74.773438 L 331.28125 74.171875 L 330.980469 73.871094 L 330.980469 73.226562 L 330.679688 72.925781 L 330.378906 72.324219 L 330.378906 71.679688 L 330.078125 71.382812 L 330.078125 70.78125 L 329.734375 70.136719 L 329.734375 69.535156 L 329.433594 68.933594 L 329.433594 68.289062 L 329.132812 67.691406 L 329.132812 66.445312 L 323.554688 34.9375 Z M 331.28125 33.394531 " fill-opacity="1" fill-rule="evenodd"/><path fill="#ffffff" d="M 433.910156 35.238281 L 431.117188 80.953125 L 423.390625 80.652344 L 426.183594 34.597656 L 406.394531 33.394531 L 406.996094 26.269531 L 453.695312 28.757812 L 453.050781 36.140625 Z M 433.910156 35.238281 " fill-opacity="1" fill-rule="evenodd"/><path fill="#ffffff" d="M 501.898438 38.332031 L 504.6875 39.230469 C 507.683594 39.988281 510.460938 41.230469 513.015625 42.964844 C 514.171875 43.679688 515.171875 44.566406 516.019531 45.628906 C 516.867188 46.6875 517.511719 47.863281 517.953125 49.148438 C 518.421875 50.539062 518.660156 51.96875 518.660156 53.4375 C 518.660156 54.910156 518.421875 56.339844 517.953125 57.730469 C 517.6875 58.699219 517.3125 59.621094 516.832031 60.5 C 516.351562 61.382812 515.777344 62.191406 515.105469 62.9375 C 514.433594 63.683594 513.6875 64.339844 512.863281 64.914062 C 512.039062 65.484375 511.160156 65.949219 510.226562 66.316406 C 512.039062 67.257812 513.46875 68.601562 514.519531 70.351562 C 515.753906 71.992188 516.472656 73.839844 516.664062 75.886719 C 516.765625 77.976562 516.566406 80.039062 516.0625 82.070312 C 515.832031 83.113281 515.476562 84.117188 514.996094 85.070312 C 514.515625 86.027344 513.925781 86.910156 513.222656 87.722656 C 512.523438 88.53125 511.734375 89.242188 510.855469 89.855469 C 509.976562 90.464844 509.039062 90.960938 508.035156 91.339844 C 506.027344 91.996094 503.96875 92.308594 501.855469 92.285156 L 501.855469 85.589844 C 502.660156 85.535156 503.4375 85.351562 504.183594 85.046875 C 504.925781 84.738281 505.605469 84.324219 506.21875 83.796875 C 506.828125 83.273438 507.339844 82.664062 507.753906 81.96875 C 508.167969 81.277344 508.464844 80.539062 508.636719 79.75 C 508.859375 79.132812 508.988281 78.496094 509.015625 77.839844 C 509.046875 77.183594 508.980469 76.539062 508.816406 75.902344 C 508.652344 75.269531 508.394531 74.671875 508.050781 74.113281 C 507.707031 73.554688 507.285156 73.058594 506.792969 72.625 C 505.300781 71.351562 503.65625 70.320312 501.855469 69.535156 L 501.855469 61.808594 C 502.40625 61.730469 502.921875 61.832031 503.402344 62.109375 C 504.121094 62.171875 504.828125 62.09375 505.519531 61.878906 C 506.210938 61.664062 506.835938 61.324219 507.394531 60.863281 C 508.867188 59.648438 509.796875 58.101562 510.183594 56.230469 C 510.507812 55.4375 510.671875 54.617188 510.671875 53.761719 C 510.671875 52.90625 510.507812 52.082031 510.183594 51.292969 C 509.949219 50.609375 509.589844 49.996094 509.105469 49.460938 C 508.621094 48.925781 508.050781 48.503906 507.394531 48.203125 C 505.714844 47.4375 503.984375 46.824219 502.199219 46.355469 L 501.898438 46.054688 Z M 478.078125 86.832031 L 492.628906 35.839844 L 501.898438 38.332031 L 501.898438 46.054688 L 496.960938 44.8125 L 492.925781 59.664062 L 497.863281 60.863281 C 499.179688 61.308594 500.523438 61.625 501.898438 61.808594 L 501.898438 69.535156 C 500.953125 69.234375 499.710938 68.933594 498.808594 68.589844 L 491.082031 66.445312 L 486.789062 82.496094 L 495.117188 84.6875 C 497.3125 85.589844 499.585938 85.890625 501.941406 85.589844 L 501.941406 92.414062 C 499.195312 92.445312 496.519531 92.027344 493.914062 91.167969 Z M 478.078125 86.832031 " fill-opacity="1" fill-rule="nonzero"/><path fill="#ffffff" d="M 572.679688 107.308594 L 567.398438 104.558594 L 567.398438 96.105469 L 573.28125 99.195312 L 574.824219 80.050781 L 567.398438 86.230469 L 567.398438 76.316406 L 578.515625 67.390625 L 583.152344 69.535156 L 579.160156 127.652344 L 571.433594 123.617188 Z M 567.398438 104.558594 L 553.707031 97.347656 L 540.828125 107.867188 L 533.105469 104.132812 L 567.097656 76.316406 L 567.097656 86.230469 L 559.671875 92.414062 L 567.097656 96.105469 Z M 567.398438 104.558594 " fill-opacity="1" fill-rule="evenodd"/><path fill="#ffffff" d="M 640.324219 106.921875 L 611.609375 142.761719 L 630.753906 157.914062 L 626.417969 163.792969 L 601.09375 143.707031 L 634.488281 101.984375 Z M 640.324219 106.921875 " fill-opacity="1" fill-rule="evenodd"/><path fill="#ffffff" d="M 682.476562 158.816406 C 686.125 158.75 689.617188 159.464844 692.949219 160.960938 C 696.324219 162.332031 699.316406 164.292969 701.917969 166.839844 C 704.441406 169.316406 706.402344 172.179688 707.800781 175.425781 C 709.304688 178.875 710.019531 182.480469 709.945312 186.242188 C 709.980469 188.632812 709.6875 190.980469 709.058594 193.285156 C 708.429688 195.589844 707.496094 197.765625 706.253906 199.804688 C 705.054688 202 703.582031 203.992188 701.832031 205.777344 C 700.082031 207.5625 698.121094 209.078125 695.953125 210.324219 C 691.71875 212.589844 687.195312 213.722656 682.390625 213.714844 L 682.390625 206.03125 C 684.070312 206.101562 685.726562 205.925781 687.355469 205.511719 C 688.984375 205.09375 690.519531 204.453125 691.960938 203.582031 C 693.472656 202.707031 694.828125 201.636719 696.03125 200.375 C 697.234375 199.113281 698.238281 197.707031 699.042969 196.15625 C 699.972656 194.734375 700.671875 193.210938 701.148438 191.578125 C 701.625 189.949219 701.851562 188.285156 701.832031 186.585938 C 701.878906 184.832031 701.664062 183.109375 701.1875 181.417969 C 700.710938 179.726562 699.996094 178.144531 699.042969 176.671875 C 698.238281 175.121094 697.234375 173.714844 696.03125 172.453125 C 694.828125 171.191406 693.472656 170.121094 691.960938 169.246094 C 688.976562 167.621094 685.789062 166.804688 682.390625 166.796875 Z M 682.476562 158.816406 L 682.476562 166.542969 C 678.960938 166.503906 675.65625 167.320312 672.558594 168.988281 C 671.015625 169.855469 669.628906 170.925781 668.394531 172.199219 C 667.160156 173.46875 666.128906 174.886719 665.304688 176.457031 C 664.351562 177.929688 663.636719 179.511719 663.164062 181.203125 C 662.6875 182.894531 662.472656 184.617188 662.515625 186.371094 C 662.496094 188.070312 662.726562 189.734375 663.203125 191.363281 C 663.675781 192.996094 664.378906 194.519531 665.304688 195.945312 C 667.03125 199.027344 669.390625 201.5 672.390625 203.371094 C 673.90625 204.292969 675.519531 204.984375 677.238281 205.4375 C 678.953125 205.890625 680.699219 206.085938 682.476562 206.03125 L 682.476562 213.757812 C 677.570312 213.734375 672.933594 212.601562 668.570312 210.367188 C 666.4375 209.15625 664.503906 207.683594 662.769531 205.949219 C 661.035156 204.214844 659.5625 202.28125 658.351562 200.148438 C 657.109375 198.109375 656.175781 195.933594 655.550781 193.628906 C 654.921875 191.324219 654.625 188.976562 654.660156 186.585938 C 654.640625 184.144531 654.945312 181.746094 655.570312 179.382812 C 656.199219 177.023438 657.125 174.789062 658.351562 172.679688 C 660.910156 168.5 664.316406 165.195312 668.570312 162.765625 C 670.671875 161.5 672.902344 160.535156 675.257812 159.863281 C 677.617188 159.195312 680.023438 158.84375 682.476562 158.816406 Z M 682.476562 158.816406 " fill-opacity="1" fill-rule="nonzero"/><path fill="#ffffff" d="M 742.011719 229.636719 L 716.683594 259.597656 L 756.859375 258.996094 L 759.953125 266.722656 L 701.535156 267.925781 L 699.988281 265.480469 L 738.917969 221.570312 Z M 742.011719 229.636719 " fill-opacity="1" fill-rule="evenodd"/><path fill="#ffffff" d="M 746.644531 319.863281 L 769.824219 292.648438 L 771.667969 301.621094 L 755.617188 321.707031 L 778.496094 331.625 L 780.640625 340.894531 L 748.191406 327.589844 L 725.3125 332.824219 L 723.769531 325.097656 Z M 746.644531 319.863281 " fill-opacity="1" fill-rule="evenodd"/><path fill="#ffffff" d="M 739.21875 430.816406 L 735.226562 464.511719 L 728.101562 463.570312 L 733.683594 416.609375 L 775.402344 455.84375 L 778.792969 423.691406 L 786.21875 424.636719 L 780.941406 470.351562 Z M 739.21875 430.816406 " fill-opacity="1" fill-rule="evenodd"/><path fill="#ffffff" d="M 714.195312 565.855469 L 736.128906 594.914062 L 733.683594 599.207031 L 714.195312 597.015625 L 714.195312 589.632812 L 723.769531 590.535156 L 714.195312 578.171875 Z M 696.597656 587.316406 L 707.113281 568.773438 L 696.898438 555.894531 L 701.191406 548.46875 L 714.066406 565.640625 L 714.066406 578 L 711.921875 575.210938 L 704.496094 588.089844 L 714.066406 589.332031 L 714.066406 596.714844 L 676.078125 593.023438 L 680.371094 585.296875 Z M 696.597656 587.316406 " fill-opacity="1" fill-rule="evenodd"/><path fill="#ffffff" d="M 771.667969 508.078125 L 731.492188 513.015625 L 762.097656 540.230469 L 759.007812 547.953125 L 715.140625 508.078125 L 715.742188 505.589844 L 774.761719 500.054688 Z M 771.667969 508.078125 " fill-opacity="1" fill-rule="evenodd"/><path fill="#ffffff" d="M 659.210938 623.972656 L 636.332031 648.695312 L 631.054688 643.414062 L 663.203125 608.820312 L 673.71875 665.390625 L 695.351562 641.269531 L 700.589844 646.507812 L 669.683594 680.199219 Z M 659.210938 623.972656 " fill-opacity="1" fill-rule="evenodd"/><path fill="#ffffff" d="M 177.402344 139.371094 L 142.761719 130.742188 L 149.886719 124.863281 L 175.210938 130.398438 L 173.667969 105.375 L 181.09375 99.496094 L 183.582031 134.433594 L 198.390625 152.675781 L 192.210938 157.613281 Z M 177.402344 139.371094 " fill-opacity="1" fill-rule="evenodd"/><path fill="#ffffff" d="M 73.871094 252.816406 C 84.6875 258.054688 103.230469 236.71875 109.410156 246.636719 C 113.402344 253.417969 105.675781 259.296875 97.050781 263.804688 L 104.472656 267.796875 C 112.5 263.804688 119.925781 254.234375 115.589844 243.417969 C 111.855469 236.292969 105.675781 234.832031 97.949219 236.292969 C 90.222656 237.75 78.804688 251.441406 73.871094 243.71875 C 68.933594 235.992188 76.316406 230.839844 83.441406 226.546875 L 76.660156 223.457031 C 65.84375 228.695312 61.808594 246.9375 73.871094 252.816406 Z M 73.871094 252.816406 " fill-opacity="1" fill-rule="evenodd"/><path fill="#ffffff" d="M 84.042969 345.53125 L 33.050781 331.28125 L 34.597656 324.796875 L 80.050781 301.921875 L 42.964844 292.046875 L 45.113281 284.621094 L 96.75 298.53125 L 94.257812 304.710938 L 47.902344 327.589844 L 86.230469 338.105469 Z M 84.042969 345.53125 " fill-opacity="1" fill-rule="evenodd"/><path fill="#ffffff" d="M 79.105469 408.242188 L 25.667969 406.394531 L 26.871094 374.546875 L 34.296875 374.890625 L 33.050781 398.96875 L 49.148438 399.269531 L 50.390625 376.089844 L 57.472656 376.433594 L 56.574219 399.613281 L 72.324219 400.214844 L 73.570312 376.433594 L 80.652344 376.734375 Z M 79.105469 408.242188 " fill-opacity="1" fill-rule="evenodd"/><path fill="#ffffff" d="M 33.996094 483.054688 L 67.046875 461.078125 L 27.511719 451.207031 L 26.269531 442.878906 L 84.042969 457.6875 L 84.6875 460.476562 L 34.9375 491.683594 Z M 33.996094 483.054688 " fill-opacity="1" fill-rule="evenodd"/><path fill="#ffffff" d="M 79.105469 513.617188 C 82.730469 513.582031 86.238281 514.210938 89.625 515.503906 C 93.101562 516.910156 96.132812 518.972656 98.722656 521.6875 C 101.304688 524.171875 103.367188 527.035156 104.902344 530.269531 C 106.28125 533.746094 106.996094 537.351562 107.050781 541.085938 C 107.09375 543.503906 106.773438 545.875 106.09375 548.195312 C 105.414062 550.515625 104.402344 552.683594 103.058594 554.695312 C 101.90625 556.773438 100.484375 558.652344 98.800781 560.332031 C 97.113281 562.011719 95.226562 563.421875 93.144531 564.566406 C 91.03125 565.796875 88.796875 566.726562 86.4375 567.359375 C 84.078125 567.996094 81.679688 568.308594 79.234375 568.300781 L 79.234375 561.476562 C 82.898438 561.519531 86.304688 560.605469 89.453125 558.730469 C 92.535156 556.863281 95.011719 554.386719 96.878906 551.304688 C 98.710938 548.039062 99.625 544.53125 99.625 540.785156 C 99.664062 537.125 98.746094 533.71875 96.878906 530.570312 C 95.019531 527.488281 92.546875 525.027344 89.453125 523.1875 C 87.914062 522.253906 86.277344 521.546875 84.539062 521.074219 C 82.804688 520.597656 81.035156 520.375 79.234375 520.398438 Z M 79.105469 513.617188 L 79.105469 520.441406 C 77.3125 520.417969 75.554688 520.644531 73.824219 521.121094 C 72.09375 521.59375 70.464844 522.296875 68.933594 523.230469 C 65.828125 525.058594 63.351562 527.519531 61.507812 530.613281 C 59.625 533.757812 58.695312 537.164062 58.71875 540.828125 C 58.703125 542.644531 58.925781 544.425781 59.378906 546.179688 C 59.835938 547.933594 60.515625 549.601562 61.410156 551.175781 C 62.308594 552.75 63.394531 554.183594 64.671875 555.472656 C 65.945312 556.757812 67.367188 557.859375 68.933594 558.773438 C 72.066406 560.640625 75.457031 561.558594 79.105469 561.519531 L 79.105469 568.34375 C 77.910156 568.347656 76.71875 568.273438 75.53125 568.121094 C 74.34375 567.96875 73.171875 567.738281 72.015625 567.433594 C 70.855469 567.128906 69.722656 566.75 68.617188 566.292969 C 67.507812 565.839844 66.4375 565.316406 65.398438 564.722656 C 64.359375 564.128906 63.363281 563.46875 62.410156 562.742188 C 61.457031 562.019531 60.554688 561.234375 59.707031 560.390625 C 58.855469 559.546875 58.066406 558.652344 57.332031 557.707031 C 56.597656 556.761719 55.929688 555.769531 55.328125 554.738281 C 54.085938 552.6875 53.144531 550.507812 52.511719 548.195312 C 51.875 545.882812 51.570312 543.527344 51.59375 541.128906 C 51.566406 538.683594 51.871094 536.28125 52.503906 533.921875 C 53.140625 531.558594 54.082031 529.328125 55.328125 527.222656 C 56.511719 525.132812 57.9375 523.226562 59.609375 521.503906 C 61.285156 519.78125 63.148438 518.296875 65.199219 517.050781 C 67.324219 515.867188 69.5625 514.984375 71.921875 514.402344 C 74.28125 513.816406 76.675781 513.554688 79.105469 513.617188 Z M 79.105469 513.617188 " fill-opacity="1" fill-rule="nonzero"/><path fill="#ffffff" d="M 96.75 628.90625 L 134.734375 603.238281 L 120.828125 582.851562 L 127.007812 578.859375 L 145.25 605.429688 L 101.039062 635.390625 Z M 96.75 628.90625 " fill-opacity="1" fill-rule="evenodd"/><path fill="#ffffff" d="M 161.304688 677.410156 C 169.03125 668.140625 153.277344 644.960938 164.394531 641.570312 C 171.820312 639.425781 175.855469 648.394531 178 657.667969 L 183.582031 651.785156 C 182.035156 642.816406 174.308594 633.242188 162.851562 634.617188 C 155.125 636.160156 152.035156 641.699219 151.734375 649.769531 C 151.433594 657.839844 161.648438 672.304688 152.675781 674.792969 C 144.949219 677.238281 140.917969 669.210938 138.769531 661.488281 L 133.832031 667.367188 C 135.980469 679.300781 152.675781 687.625 161.304688 677.410156 Z M 161.304688 677.410156 " fill-opacity="1" fill-rule="evenodd"/><path fill="#ffffff" d="M 778.792969 315.527344 L 794.246094 322.652344 L 793.644531 316.472656 L 778.496094 311.835938 Z M 778.792969 315.527344 " fill-opacity="1" fill-rule="evenodd"/><path fill="#ffffff" d="M 746.34375 599.546875 C 746.871094 599.515625 747.371094 599.382812 747.847656 599.152344 C 748.320312 598.921875 748.734375 598.613281 749.085938 598.21875 C 749.441406 597.828125 749.707031 597.382812 749.882812 596.886719 C 750.0625 596.390625 750.140625 595.878906 750.117188 595.351562 C 750.097656 594.824219 749.976562 594.324219 749.757812 593.84375 C 749.539062 593.363281 749.234375 592.945312 748.851562 592.582031 C 748.464844 592.222656 748.027344 591.945312 747.535156 591.757812 C 747.042969 591.566406 746.535156 591.476562 746.007812 591.488281 C 745.480469 591.5 744.972656 591.609375 744.488281 591.816406 C 744.003906 592.027344 743.578125 592.316406 743.210938 592.695312 C 742.839844 593.070312 742.554688 593.503906 742.355469 593.992188 C 742.15625 594.480469 742.054688 594.984375 742.054688 595.511719 C 742.085938 596.058594 742.21875 596.582031 742.449219 597.078125 C 742.683594 597.574219 743 598.007812 743.398438 598.382812 C 743.796875 598.757812 744.25 599.046875 744.761719 599.25 C 745.269531 599.449219 745.796875 599.550781 746.34375 599.546875 Z M 746.34375 599.546875 " fill-opacity="1" fill-rule="evenodd"/><path fill="#ffffff" d="M 739.5625 612.210938 C 740.105469 612.171875 740.621094 612.035156 741.113281 611.800781 C 741.605469 611.566406 742.035156 611.25 742.40625 610.851562 C 742.777344 610.453125 743.0625 610 743.257812 609.496094 C 743.457031 608.988281 743.554688 608.460938 743.554688 607.917969 C 743.519531 607.402344 743.394531 606.90625 743.179688 606.433594 C 742.964844 605.960938 742.675781 605.539062 742.308594 605.175781 C 741.941406 604.808594 741.519531 604.515625 741.046875 604.300781 C 740.578125 604.085938 740.082031 603.960938 739.5625 603.925781 C 739.019531 603.925781 738.492188 604.023438 737.988281 604.222656 C 737.480469 604.421875 737.027344 604.707031 736.628906 605.074219 C 736.230469 605.445312 735.914062 605.878906 735.679688 606.367188 C 735.445312 606.859375 735.308594 607.375 735.269531 607.917969 C 735.269531 608.199219 735.296875 608.480469 735.351562 608.753906 C 735.410156 609.03125 735.488281 609.300781 735.597656 609.5625 C 735.707031 609.820312 735.835938 610.070312 735.996094 610.304688 C 736.152344 610.539062 736.328125 610.753906 736.527344 610.953125 C 736.726562 611.152344 736.945312 611.332031 737.179688 611.488281 C 737.414062 611.644531 737.660156 611.777344 737.921875 611.882812 C 738.179688 611.992188 738.449219 612.074219 738.726562 612.128906 C 739.003906 612.183594 739.28125 612.210938 739.5625 612.210938 Z M 739.5625 612.210938 " fill-opacity="1" fill-rule="evenodd"/><path fill="#ffffff" d="M 159.160156 112.199219 L 158.558594 95.203125 L 152.976562 98.59375 L 156.066406 114.046875 Z M 159.160156 112.199219 " fill-opacity="1" fill-rule="evenodd"/><path fill="#ffffff" d="M 382.273438 791.757812 L 396.824219 791.757812 L 397.425781 765.832031 L 420.300781 765.832031 L 420.300781 754.671875 L 397.722656 754.671875 L 398.066406 741.109375 L 422.449219 741.109375 L 422.449219 729.949219 L 383.515625 729.949219 Z M 382.273438 791.757812 " fill-opacity="1" fill-rule="evenodd"/><path fill="#ffffff" d="M 450.90625 738.917969 L 481.511719 732.738281 L 459.535156 788.667969 L 517.050781 775.402344 L 514.863281 764.285156 L 483.054688 770.46875 L 504.042969 715.742188 L 448.71875 727.800781 Z M 450.90625 738.917969 " fill-opacity="1" fill-rule="evenodd"/><path fill="#ffffff" d="M 297.285156 770.46875 C 310.160156 781.886719 324.199219 786.519531 338.40625 778.792969 C 347.675781 773.558594 346.988281 760.851562 339.949219 752.226562 C 335.015625 746.34375 325.742188 744.5 322.007812 739.347656 C 316.472656 731.023438 328.53125 724.539062 347.761719 742.78125 L 351.453125 730.421875 C 349.449219 728.597656 347.292969 726.972656 344.992188 725.542969 C 342.6875 724.113281 340.277344 722.902344 337.753906 721.910156 C 335.230469 720.921875 332.640625 720.167969 329.976562 719.648438 C 327.316406 719.132812 324.632812 718.859375 321.921875 718.832031 C 320.386719 718.980469 318.886719 719.289062 317.417969 719.761719 C 315.953125 720.234375 314.550781 720.859375 313.21875 721.632812 C 311.886719 722.40625 310.648438 723.3125 309.511719 724.355469 C 308.375 725.394531 307.359375 726.542969 306.46875 727.800781 C 299.6875 739.21875 306.8125 747.289062 315.441406 753.554688 C 319.945312 756.25 324.066406 759.441406 327.804688 763.128906 C 328.085938 763.402344 328.324219 763.714844 328.511719 764.058594 C 328.703125 764.40625 328.839844 764.769531 328.917969 765.15625 C 329 765.542969 329.019531 765.933594 328.984375 766.328125 C 328.949219 766.71875 328.855469 767.097656 328.703125 767.464844 C 328.554688 767.828125 328.351562 768.164062 328.101562 768.46875 C 327.851562 768.773438 327.5625 769.035156 327.234375 769.253906 C 326.90625 769.472656 326.550781 769.636719 326.171875 769.746094 C 325.792969 769.859375 325.40625 769.914062 325.011719 769.910156 C 316.6875 771.753906 307.84375 766.21875 299.988281 757.546875 Z M 297.285156 770.46875 " fill-opacity="1" fill-rule="evenodd"/><path fill="#165ea3" d="M 687.625 335.316406 L 666.164062 294.195312 C 669.972656 288.574219 672.832031 282.507812 674.75 275.996094 L 693.507812 317.628906 C 692.523438 323.847656 690.5625 329.742188 687.625 335.316406 Z M 687.625 335.316406 " fill-opacity="1" fill-rule="evenodd"/><path fill="#135fa4" d="M 674.664062 276.597656 L 677.109375 281.230469 L 693.507812 317.714844 C 692.863281 322.042969 691.730469 326.242188 690.113281 330.308594 C 688.496094 334.375 686.4375 338.207031 683.933594 341.796875 C 689.085938 350.085938 693.222656 358.851562 696.355469 368.09375 C 699.488281 377.335938 701.527344 386.8125 702.476562 396.523438 L 654.574219 306.898438 L 655.476562 307.800781 C 659.6875 303.296875 663.410156 298.417969 666.640625 293.164062 C 669.867188 287.910156 672.542969 282.386719 674.664062 276.597656 Z M 674.664062 276.597656 " fill-opacity="1" fill-rule="evenodd"/><path fill="#1860a5" d="M 665.992188 294.195312 L 687.453125 335.316406 C 686.511719 337.460938 684.964844 339.605469 683.761719 341.796875 C 687.542969 347.980469 690.792969 354.429688 693.515625 361.144531 C 696.238281 367.859375 698.394531 374.753906 699.984375 381.820312 C 701.578125 388.890625 702.582031 396.042969 703 403.277344 C 703.417969 410.511719 703.242188 417.730469 702.476562 424.9375 C 698.441406 401.160156 686.382812 379.523438 669.382812 360.039062 C 668.285156 360.894531 667.257812 361.824219 666.292969 362.828125 L 622.382812 280.628906 C 630.96875 286.8125 639.082031 292.992188 646.808594 299.773438 C 649.554688 302.5625 652.644531 305.011719 655.390625 307.800781 C 659.222656 303.496094 662.757812 298.960938 665.992188 294.195312 Z M 665.992188 294.195312 " fill-opacity="1" fill-rule="evenodd"/><path fill="#1562a6" d="M 654.574219 306.898438 L 702.476562 396.523438 C 703.382812 405.996094 703.382812 415.464844 702.476562 424.9375 C 698.441406 401.160156 686.382812 379.523438 669.382812 360.039062 C 664.75 364.671875 659.511719 369.308594 654.230469 373.945312 L 630.96875 330.507812 C 631.914062 329.5625 632.855469 328.960938 633.757812 328.015625 C 631.613281 326.472656 629.464844 324.625 626.976562 323.082031 L 594.914062 262.6875 C 613.339844 273.492188 630.648438 285.855469 646.851562 299.773438 C 649.296875 302.265625 652.085938 304.410156 654.574219 306.898438 Z M 527.222656 136.28125 L 525.679688 133.191406 C 529.710938 135.378906 533.703125 137.824219 537.738281 140.316406 Z M 527.222656 136.28125 " fill-opacity="1" fill-rule="evenodd"/><path fill="#1963a7" d="M 622.382812 280.628906 L 666.25 362.828125 C 658.566406 370.625 650.324219 377.777344 641.527344 384.289062 L 618.089844 340.550781 C 623.671875 336.558594 628.90625 332.222656 633.84375 328.1875 C 622.945312 320.207031 611.613281 312.894531 599.847656 306.253906 L 569.246094 248.953125 C 587.789062 258.117188 605.5 268.679688 622.382812 280.628906 Z M 504.6875 127.953125 L 502.199219 123.316406 C 514.726562 127.632812 526.570312 133.359375 537.738281 140.488281 Z M 504.6875 127.953125 " fill-opacity="1" fill-rule="evenodd"/><path fill="#1764a7" d="M 525.679688 133.0625 L 527.222656 136.152344 L 503.746094 127.566406 C 498.332031 127.835938 492.984375 128.554688 487.691406 129.714844 L 481.167969 117.351562 C 496.695312 120.625 511.535156 125.863281 525.679688 133.0625 Z M 594.914062 262.6875 L 627.0625 323.253906 C 610.417969 311.898438 593.007812 301.882812 574.824219 293.207031 L 545.121094 237.964844 C 562.242188 245.15625 578.839844 253.394531 594.914062 262.6875 Z M 630.96875 330.507812 L 654.148438 373.773438 C 646.121094 380.554688 637.492188 387.078125 628.394531 393.5625 L 604.871094 349.351562 C 614.054688 343.382812 623.027344 337.160156 630.96875 330.507812 Z M 630.96875 330.507812 " fill-opacity="1" fill-rule="evenodd"/><path fill="#1d64a7" d="M 502.199219 123.316406 L 504.6875 127.953125 L 503.746094 127.652344 C 496.285156 128.007812 488.972656 129.238281 481.8125 131.34375 C 503.746094 153.277344 519.796875 188.816406 531.558594 232.386719 C 544.433594 237.363281 556.882812 242.902344 569.246094 249.082031 L 599.847656 306.253906 C 584.035156 297.398438 567.765625 289.472656 551.046875 282.476562 L 461.421875 114.648438 C 475.363281 115.855469 488.953125 118.71875 502.199219 123.230469 Z M 618.089844 340.550781 L 641.570312 384.160156 C 633.242188 390.339844 624.402344 396.523438 615 402.703125 L 591.523438 358.191406 C 600.921875 352.613281 609.765625 346.429688 618.089844 340.550781 Z M 618.089844 340.550781 " fill-opacity="1" fill-rule="evenodd"/><path fill="#2166a8" d="M 481.167969 117.4375 L 487.691406 129.800781 C 485.765625 130.449219 483.804688 130.964844 481.8125 131.34375 C 503.746094 153.277344 519.796875 188.816406 531.558594 232.386719 C 536.195312 234.273438 540.828125 236.121094 545.164062 237.964844 L 574.824219 293.292969 C 564.308594 288.011719 553.363281 283.378906 542.074219 279.085938 C 543.921875 288.957031 545.765625 299.171875 547.3125 309.132812 L 441.632812 111.601562 C 446.855469 111.792969 451.90625 112.820312 456.785156 114.691406 C 465 114.875 473.125 115.804688 481.167969 117.480469 Z M 604.785156 349.523438 L 628.308594 393.734375 C 619.9375 399.613281 610.664062 405.449219 601.394531 410.902344 L 577.613281 366.691406 C 587.1875 360.984375 596.15625 355.402344 604.785156 349.523438 Z M 604.785156 349.523438 " fill-opacity="1" fill-rule="evenodd"/><path fill="#1f67a9" d="M 461.421875 114.648438 L 551.046875 282.476562 C 547.953125 281.230469 545.164062 280.289062 542.074219 279.085938 C 546.710938 302.863281 550.101562 328.1875 553.191406 354.457031 L 472.152344 202.425781 C 465.949219 183.007812 457.59375 164.566406 447.085938 147.097656 C 445.796875 147.726562 444.566406 148.453125 443.394531 149.285156 L 423.390625 111.601562 C 429.003906 110.960938 434.625 110.902344 440.25 111.425781 C 445.875 111.945312 451.386719 113.035156 456.785156 114.691406 Z M 591.523438 358.191406 L 615 402.703125 L 587.789062 419.058594 L 563.707031 374.546875 C 573.28125 369.136719 582.550781 363.730469 591.523438 358.191406 Z M 591.523438 358.191406 " fill-opacity="1" fill-rule="evenodd"/><path fill="#2368aa" d="M 441.632812 111.601562 L 547.3125 309.390625 C 550.714844 331.964844 553.578125 355.144531 555.894531 378.925781 C 563.277344 374.933594 570.703125 370.898438 577.828125 366.5625 L 601.609375 410.773438 C 592.636719 416.308594 583.367188 421.589844 573.792969 426.828125 L 489.835938 269.8125 C 489.238281 266.722656 488.59375 263.289062 487.691406 260.199219 C 486.746094 259.898438 485.503906 259.597656 484.257812 259.296875 L 458.503906 210.453125 C 464.339844 211.695312 470.222656 213.242188 476.101562 214.742188 C 469.511719 190.90625 459.925781 168.34375 447.34375 147.054688 C 441.804688 150.445312 436.226562 154.179688 430.175781 158.171875 L 413.519531 126.664062 C 417.511719 124.820312 421.546875 122.972656 425.539062 121.429688 C 423.003906 119.273438 420.328125 117.316406 417.511719 115.546875 L 407.339844 115.25 L 406.996094 113.703125 C 418.453125 111.511719 429.996094 110.8125 441.632812 111.601562 Z M 441.632812 111.601562 " fill-opacity="1" fill-rule="evenodd"/><path fill="#266aab" d="M 423.390625 111.601562 L 443.480469 149.328125 C 434.449219 155 425.863281 161.28125 417.726562 168.171875 L 400.128906 134.476562 C 408.339844 129.441406 416.925781 125.152344 425.882812 121.601562 C 423.347656 119.445312 420.671875 117.484375 417.855469 115.71875 L 399.957031 115.078125 C 407.710938 113.527344 415.523438 112.371094 423.390625 111.601562 Z M 472.152344 202.425781 L 553.105469 354.457031 C 554.050781 362.527344 554.652344 370.554688 555.59375 378.882812 C 558.34375 377.335938 561.132812 375.789062 563.621094 374.589844 L 587.703125 419.101562 C 578.429688 424.035156 569.160156 429.316406 559.585938 434.253906 L 559.585938 434.550781 L 498.808594 320.464844 C 495.71875 300.71875 492.328125 280.289062 487.691406 260.371094 C 479.621094 257.925781 471.292969 255.734375 462.96875 253.589844 L 437.816406 206.460938 C 450.519531 208.605469 463.195312 211.382812 475.84375 214.785156 C 474.683594 210.324219 473.441406 206.460938 472.152344 202.425781 Z M 472.152344 202.425781 " fill-opacity="1" fill-rule="evenodd"/><path fill="#246bad" d="M 406.996094 113.746094 L 407.339844 115.292969 L 399.613281 114.949219 C 402.058594 114.648438 404.550781 114.046875 406.996094 113.746094 Z M 413.519531 126.621094 L 430.175781 158.128906 C 421.574219 164.503906 413.332031 171.316406 405.449219 178.558594 L 386.609375 143.320312 C 395.207031 137.152344 404.175781 131.589844 413.519531 126.621094 Z M 458.332031 210.324219 L 484.085938 259.167969 C 469.878906 254.875 455.972656 251.441406 442.0625 248.351562 L 418.15625 203.027344 C 431.03125 204.914062 444.726562 207.316406 458.332031 210.453125 Z M 489.835938 269.683594 L 573.578125 426.65625 L 559.671875 434.082031 C 560.316406 446.441406 560.617188 458.503906 560.617188 469.921875 L 504.34375 364.84375 C 501.253906 335.316406 496.617188 302.265625 489.835938 269.8125 Z M 489.835938 269.683594 " fill-opacity="1" fill-rule="evenodd"/><path fill="#276cae" d="M 399.914062 134.433594 L 417.511719 168.128906 C 409.183594 174.910156 401.457031 182.335938 393.433594 190.0625 L 373.644531 152.976562 C 381.949219 146.15625 390.703125 139.972656 399.914062 134.433594 Z M 437.816406 206.460938 L 462.96875 253.246094 C 449.058594 249.554688 435.152344 246.464844 421.847656 243.972656 L 399.183594 200.578125 C 411.546875 201.824219 424.9375 203.96875 438.113281 206.460938 Z M 498.722656 320.464844 L 559.585938 434.507812 C 560.835938 457.171875 560.835938 479.835938 559.585938 502.5 L 506.835938 403.476562 L 507.4375 403.175781 C 505.890625 379.523438 503.144531 350.765625 498.808594 320.464844 Z M 498.722656 320.464844 " fill-opacity="1" fill-rule="evenodd"/><path fill="#256dae" d="M 386.609375 143.40625 L 405.449219 178.644531 C 398.367188 185.125 391.542969 191.910156 384.460938 199.035156 C 395.578125 199.933594 406.996094 201.179688 418.15625 203.027344 L 442.105469 248.480469 C 428.199219 245.390625 414.59375 242.601562 401.929688 240.453125 L 361.152344 163.792969 C 369.085938 156.363281 377.527344 149.566406 386.480469 143.40625 Z M 504.34375 364.84375 L 560.617188 470.222656 C 560.617188 492.800781 559.371094 513.488281 557.527344 532.332031 L 492.328125 409.785156 C 497.261719 407.640625 502.199219 405.492188 507.4375 403.003906 C 506.492188 391.242188 505.589844 378.582031 504.34375 364.84375 Z M 504.34375 364.84375 " fill-opacity="1" fill-rule="evenodd"/><path fill="#296faf" d="M 373.644531 152.976562 L 393.433594 190.0625 L 384.460938 199.035156 C 389.398438 199.335938 394.03125 199.933594 398.96875 200.578125 L 421.847656 244.144531 C 407.769531 241.355469 394.890625 239.210938 382.617188 237.664062 L 349.222656 174.910156 C 356.976562 167.167969 365.117188 159.859375 373.644531 152.976562 Z M 506.707031 403.304688 L 559.542969 502.5 C 558.78125 521.664062 556.933594 540.71875 554.007812 559.671875 L 508.550781 474.386719 L 508.550781 459.277344 C 506.457031 460.445312 504.296875 461.476562 502.070312 462.367188 L 477.648438 416.652344 C 487.046875 412.277344 496.960938 407.769531 506.835938 403.476562 Z M 506.707031 403.304688 " fill-opacity="1" fill-rule="evenodd"/><path fill="#2770b0" d="M 361.28125 163.792969 L 402.058594 240.367188 C 388.453125 238.179688 375.492188 236.632812 363.128906 235.390625 L 337.375 186.886719 C 345.101562 178.558594 353.171875 170.832031 361.195312 163.707031 Z M 492.328125 409.785156 L 557.527344 532.246094 C 555.851562 550 553.148438 567.601562 549.414062 585.039062 L 507.351562 506.234375 C 508.292969 490.4375 508.59375 474.683594 508.59375 459.019531 C 501.511719 462.410156 494.386719 465.84375 487.605469 468.589844 L 462.882812 422.878906 L 492.242188 409.570312 Z M 579.160156 640.667969 L 574.222656 631.398438 C 576.945312 632.539062 579.78125 633.1875 582.730469 633.34375 C 585.679688 633.5 588.566406 633.152344 591.394531 632.296875 Z M 579.160156 640.667969 " fill-opacity="1" fill-rule="evenodd"/><path fill="#2c70b0" d="M 349.222656 174.910156 L 382.617188 237.664062 C 372.398438 236.417969 362.527344 235.175781 353.558594 234.574219 C 351.710938 237.019531 350.164062 239.210938 348.277344 241.355469 L 324.796875 197.445312 L 327.890625 197.445312 C 335.015625 189.417969 342.097656 181.992188 349.351562 174.867188 Z M 477.992188 416.609375 L 502.199219 462.324219 C 491.984375 466.960938 482.109375 471.292969 472.839844 475.199219 L 448.417969 429.230469 L 452.152344 427.683594 C 460.476562 423.949219 468.804688 420.257812 477.90625 416.566406 Z M 508.894531 474.386719 L 554.351562 559.671875 C 551.949219 576.066406 548.542969 592.246094 544.136719 608.21875 L 505.589844 536.539062 C 507.136719 516.148438 508.378906 495.117188 508.679688 474.429688 Z M 566.367188 650.371094 L 549.199219 618.519531 C 565.597656 629.335938 581.347656 636.460938 591.265625 632.425781 Z M 566.367188 650.371094 " fill-opacity="1" fill-rule="evenodd"/><path fill="#2973b2" d="M 337.460938 186.972656 L 363.214844 235.476562 L 353.644531 234.574219 C 348.0625 241.355469 342.824219 248.480469 337.890625 255.5625 L 307.199219 198.390625 C 313.980469 198.089844 320.804688 197.488281 327.890625 197.488281 C 330.980469 193.753906 334.070312 190.363281 337.460938 186.972656 Z M 462.96875 423.050781 L 487.691406 468.761719 C 480.566406 471.851562 473.785156 474.941406 467.261719 477.734375 C 464.398438 478.964844 461.308594 480.207031 457.988281 481.46875 L 433.523438 435.753906 C 440.003906 432.964844 446.398438 430.175781 452.066406 427.726562 C 455.757812 426.183594 459.148438 424.636719 462.882812 423.09375 Z M 507.4375 506.191406 L 549.414062 585.039062 C 547.226562 595.214844 544.777344 604.785156 541.988281 613.757812 C 551.894531 621.117188 562.609375 626.996094 574.136719 631.398438 L 579.074219 640.667969 L 557.140625 656.421875 C 555.289062 656.671875 553.429688 656.769531 551.558594 656.722656 L 502.414062 564.953125 C 504.988281 546.066406 506.492188 526.320312 507.4375 506.234375 Z M 507.4375 506.191406 " fill-opacity="1" fill-rule="evenodd"/><path fill="#2e73b2" d="M 324.796875 197.445312 L 348.277344 241.3125 C 340.894531 250.886719 334.070312 260.5 327.289062 270.070312 L 290.203125 200.277344 C 301.683594 198.691406 313.214844 197.746094 324.796875 197.445312 Z M 448.417969 429.230469 L 472.839844 475.285156 C 470.992188 476.1875 469.148438 476.832031 467.261719 477.734375 C 459.878906 480.824219 451.808594 484.214844 443.179688 487.648438 L 418.757812 441.589844 C 428.972656 437.558594 438.84375 433.007812 448.417969 429.230469 Z M 505.589844 536.539062 L 543.921875 608.261719 L 542.074219 613.800781 C 544.519531 615.34375 547.011719 616.890625 549.15625 618.433594 L 566.324219 650.285156 L 557.398438 656.464844 C 548.617188 657.34375 540.03125 656.414062 531.644531 653.675781 L 488.078125 571.476562 C 492.070312 574.867188 496.40625 578.257812 500.4375 581.648438 C 502.5 567.097656 504.34375 551.945312 505.589844 536.539062 Z M 505.589844 536.539062 " fill-opacity="1" fill-rule="evenodd"/><path fill="#3175b3" d="M 307.199219 198.390625 L 337.804688 255.5625 C 330.378906 265.179688 323.554688 275.351562 317.371094 285.265625 L 293.59375 240.753906 C 295.136719 238.566406 296.683594 236.71875 298.230469 234.574219 C 295.738281 234.574219 292.992188 234.875 290.503906 234.875 L 273.332031 202.726562 C 284.449219 200.878906 295.566406 199.335938 307.328125 198.433594 Z M 433.523438 435.753906 L 457.902344 481.511719 C 448.632812 485.503906 438.757812 489.535156 428.242188 493.527344 L 404.164062 447.816406 C 414.035156 443.78125 423.90625 439.230469 433.523438 435.753906 Z M 502.199219 564.953125 L 551.644531 656.722656 C 543.183594 656.660156 535.042969 655.015625 527.222656 651.785156 C 524.777344 656.722656 522.285156 661.058594 519.796875 665.050781 L 453.996094 542.074219 C 469.148438 555.679688 484.042969 568.945312 500.351562 581.605469 C 501.253906 576.371094 501.898438 570.875 502.5 564.953125 Z M 502.199219 564.953125 " fill-opacity="1" fill-rule="evenodd"/><path fill="#2f76b4" d="M 290.203125 200.277344 L 327.289062 270.113281 C 320.164062 280.289062 313.679688 290.503906 307.5 300.71875 L 283.292969 255.5625 C 288.269531 248.480469 293.207031 241.355469 298.144531 234.574219 C 289.558594 234.859375 281.21875 235.476562 273.117188 236.417969 L 256.808594 206.03125 C 267.625 203.582031 278.742188 201.738281 290.203125 200.191406 Z M 418.972656 441.632812 L 443.394531 487.691406 C 433.824219 491.382812 423.90625 495.417969 413.347656 499.109375 L 389.269531 453.351562 C 399.441406 449.660156 409.355469 445.625 418.929688 441.632812 Z M 488.207031 571.433594 L 531.773438 653.632812 C 530.527344 653.03125 528.984375 652.386719 527.480469 651.785156 C 523.070312 661.03125 517.621094 669.617188 511.128906 677.539062 C 510.484375 678.183594 509.882812 678.484375 509.238281 679.085938 L 487.992188 639.550781 C 489.238281 636.160156 490.136719 632.769531 491.082031 629.335938 C 486.445312 626.246094 481.8125 622.855469 477.476562 619.464844 L 417.382812 506.664062 C 439.789062 529.070312 462.96875 550.703125 487.992188 571.433594 Z M 488.207031 571.433594 " fill-opacity="1" fill-rule="evenodd"/><path fill="#3277b5" d="M 273.203125 202.726562 L 290.375 234.875 C 278.3125 235.820312 266.894531 237.019531 256.035156 238.566406 L 241.054688 210.324219 C 251.613281 207.15625 262.328125 204.683594 273.203125 202.898438 Z M 293.59375 240.753906 L 317.371094 285.265625 C 310.289062 295.738281 303.808594 306.726562 297.929688 316.773438 L 273.503906 271.015625 C 279.988281 260.542969 286.8125 250.628906 293.59375 240.96875 Z M 404.25 447.816406 L 428.328125 493.613281 C 422.449219 495.804688 416.609375 497.90625 410.730469 500.4375 C 424.636719 514.347656 439.144531 528.554688 453.996094 542.160156 L 519.796875 665.136719 C 516.707031 669.769531 513.617188 674.105469 510.871094 677.496094 C 508.566406 679.550781 506.054688 681.300781 503.335938 682.753906 C 500.613281 684.203125 497.761719 685.3125 494.773438 686.082031 L 480.738281 659.8125 C 484.855469 649.953125 488.261719 639.851562 490.953125 629.507812 C 475.800781 618.691406 460.90625 607.273438 446.441406 595.515625 L 373.945312 458.933594 C 384.160156 455.242188 394.332031 451.507812 404.25 447.816406 Z M 404.25 447.816406 " fill-opacity="1" fill-rule="evenodd"/><path fill="#3579b6" d="M 256.808594 206.03125 L 273.203125 236.335938 C 261.144531 237.578125 250.027344 239.425781 239.8125 241.269531 L 225.601562 214.613281 C 235.855469 211.214844 246.257812 208.351562 256.808594 206.03125 Z M 283.292969 255.5625 L 307.414062 300.71875 C 300.632812 311.835938 294.109375 322.953125 288.570312 333.46875 L 263.847656 287.113281 C 270.316406 276.296875 276.796875 265.777344 283.292969 255.5625 Z M 389.011719 453.351562 L 413.089844 499.109375 L 410.644531 500.351562 L 417.125 506.835938 L 477.21875 619.636719 C 455.757812 603.582031 434.550781 586.585938 413.5625 568.644531 L 335.015625 419.699219 C 347.890625 433.910156 360.039062 447.515625 371.800781 459.878906 C 377.636719 457.6875 383.515625 455.585938 388.96875 453.351562 Z M 487.734375 639.722656 L 508.722656 678.957031 C 506.097656 681.183594 503.207031 682.988281 500.046875 684.363281 C 496.890625 685.734375 493.601562 686.625 490.179688 687.027344 C 486.789062 687.625 482.453125 688.226562 478.164062 689.171875 L 471.335938 676.808594 C 478.863281 665.273438 484.414062 652.855469 487.992188 639.550781 Z M 487.734375 639.722656 " fill-opacity="1" fill-rule="evenodd"/><path fill="#337ab8" d="M 241.054688 210.324219 L 256.207031 238.738281 C 244.445312 240.625 233.628906 242.773438 223.457031 245.261719 L 210.582031 220.839844 C 220.480469 216.589844 230.640625 213.085938 241.054688 210.324219 Z M 273.503906 271.1875 L 297.929688 316.773438 C 291.105469 328.832031 285.050781 340.25 279.988281 351.109375 L 254.664062 303.464844 C 260.84375 292.347656 267.023438 281.53125 273.503906 271.015625 Z M 373.945312 459.105469 L 446.398438 595.515625 C 423.820312 577.613281 401.886719 558.429688 379.652344 537.738281 L 287.839844 366.046875 C 315.65625 399.097656 345.359375 431.890625 371.628906 459.707031 L 373.773438 458.761719 Z M 480.738281 659.8125 L 494.644531 686.082031 L 490.351562 687.027344 C 482.96875 687.925781 472.152344 690.71875 461.9375 692.5625 L 460.390625 689.472656 C 468.203125 683.589844 474.984375 673.417969 480.738281 659.8125 Z M 480.738281 659.8125 " fill-opacity="1" fill-rule="evenodd"/><path fill="#367cb9" d="M 225.601562 214.613281 L 239.8125 241.183594 C 229.0625 243.5 218.460938 246.359375 208.003906 249.769531 L 195.945312 227.492188 C 205.558594 222.574219 215.445312 218.28125 225.601562 214.613281 Z M 263.933594 286.941406 L 288.65625 333.296875 C 284.921875 340.722656 281.53125 347.503906 278.441406 354.285156 C 296.683594 376.5625 316.171875 398.796875 335.015625 419.53125 L 413.820312 568.472656 C 395.578125 552.417969 377.035156 535.722656 358.792969 517.78125 C 356.648438 518.425781 354.5 519.324219 352.3125 519.96875 L 232.726562 296.382812 C 237.363281 302.863281 242.601562 309.261719 247.835938 316.171875 C 253.117188 306.253906 258.355469 296.683594 263.933594 287.113281 Z M 471.59375 676.636719 L 478.417969 689 C 467.410156 691.585938 456.277344 693.445312 445.027344 694.578125 L 444.082031 693.035156 L 458.933594 690.546875 C 464.121094 686.738281 468.410156 682.101562 471.808594 676.636719 Z M 186.972656 210.75 L 186.027344 209.207031 C 187.917969 207.0625 189.460938 205.214844 191.308594 203.371094 L 192.210938 204.269531 Z M 186.972656 210.75 " fill-opacity="1" fill-rule="evenodd"/><path fill="#347dba" d="M 210.324219 220.667969 L 223.199219 245.089844 C 215.773438 247.238281 208.949219 249.082031 202.167969 251.570312 C 216.035156 273.929688 231.171875 295.390625 247.578125 315.957031 C 249.769531 311.921875 251.871094 307.371094 254.40625 303.078125 L 279.730469 350.679688 C 279.097656 351.757812 278.582031 352.886719 278.183594 354.070312 C 281.273438 358.105469 284.664062 361.796875 287.753906 365.832031 L 379.566406 537.523438 C 372.441406 531.042969 365.660156 524.648438 358.535156 517.738281 C 351.109375 520.226562 343.726562 522.371094 336.300781 524.5625 L 312.179688 479.40625 L 318.660156 477.5625 C 312.824219 471.378906 306.941406 465.199219 301.492188 459.019531 L 175.210938 222.511719 C 180.492188 216.03125 185.726562 209.636719 191.308594 203.371094 L 192.210938 204.269531 L 185.425781 212.640625 C 186.523438 218.613281 188.382812 224.335938 191.007812 229.808594 C 197.277344 226.40625 203.714844 223.359375 210.324219 220.667969 Z M 460.347656 689.472656 L 461.894531 692.5625 C 451.378906 694.410156 441.507812 695.953125 436.871094 694.109375 L 458.804688 690.71875 C 459.300781 690.21875 459.855469 689.800781 460.476562 689.472656 Z M 460.347656 689.472656 " fill-opacity="1" fill-rule="evenodd"/><path fill="#397dba" d="M 186.027344 209.207031 L 186.972656 210.753906 L 185.425781 212.640625 C 186.523438 218.613281 188.382812 224.335938 191.007812 229.808594 C 192.851562 228.867188 194.398438 228.265625 195.945312 227.320312 L 208.003906 249.597656 L 202.425781 251.441406 C 210.453125 264.707031 220.667969 279.859375 232.730469 296.253906 L 352.3125 520.011719 C 341.796875 523.101562 331.28125 526.191406 320.804688 528.941406 L 296.683594 484.128906 L 318.917969 477.648438 C 297.929688 455.414062 276.894531 431.933594 256.507812 406.867188 L 256.207031 407.8125 L 164.738281 236.71875 C 171.519531 227.148438 178.644531 217.878906 186.199219 209.207031 Z M 444.082031 693.207031 L 445.027344 694.75 C 442.292969 695.242188 439.617188 695.027344 437 694.109375 Z M 444.082031 693.207031 " fill-opacity="1" fill-rule="evenodd"/><path fill="#3682be" d="M 175.210938 222.511719 L 301.621094 459.277344 C 286.46875 442.578125 271.574219 425.28125 256.507812 407.039062 C 253.71875 414.164062 251.269531 420.945312 248.78125 428.070312 L 220.367188 375.191406 C 221.269531 373 222.210938 370.554688 223.113281 368.363281 C 216.933594 360.984375 210.75 353.558594 204.914062 346.132812 L 156.367188 254.960938 C 156.066406 253.417969 155.765625 252.171875 155.46875 250.671875 C 161.648438 240.796875 168.34375 231.527344 175.210938 222.554688 Z M 312.566406 479.621094 L 336.6875 524.777344 C 326.171875 527.867188 315.65625 530.613281 305.140625 533.359375 L 281.058594 488.25 C 291.445312 485.800781 301.921875 482.710938 312.4375 479.621094 Z M 312.566406 479.621094 " fill-opacity="1" fill-rule="evenodd"/><path fill="#3b82be" d="M 164.738281 236.71875 L 256.207031 407.769531 C 250.929688 421.074219 245.992188 434.980469 241.65625 448.546875 L 212.640625 394.460938 C 216.03125 386.136719 219.421875 377.292969 223.113281 368.195312 C 194.398438 334.84375 172.464844 302.691406 161.304688 272.089844 C 159.734375 273.523438 158.085938 274.867188 156.367188 276.125 C 154.523438 277.667969 152.976562 278.914062 151.734375 280.117188 L 145.25 268.097656 C 146.195312 266.851562 146.796875 265.308594 147.742188 263.804688 C 150.488281 260.714844 153.277344 257.925781 156.324219 254.832031 C 156.023438 253.289062 155.726562 252.042969 155.425781 250.542969 L 164.695312 236.632812 Z M 296.683594 484.257812 L 320.804688 529.070312 C 310.289062 532.160156 299.34375 534.949219 288.957031 537.136719 L 264.835938 492.328125 C 275.351562 489.835938 286.167969 487.046875 296.683594 484.257812 Z M 296.683594 484.257812 " fill-opacity="1" fill-rule="evenodd"/><path fill="#3d84bf" d="M 156.367188 254.960938 L 204.914062 346.132812 C 185.125 320.804688 169.976562 296.167969 161.304688 272.261719 C 159.734375 273.695312 158.085938 275.039062 156.367188 276.296875 C 150.199219 281.175781 144.949219 286.898438 140.617188 293.464844 L 136.925781 286.640625 C 139.890625 278.820312 143.496094 271.308594 147.742188 264.105469 C 150.488281 261.015625 153.277344 258.226562 156.324219 255.132812 Z M 220.367188 375.148438 L 248.953125 428.027344 C 244.015625 441.933594 239.382812 456.144531 235.347656 470.351562 L 205.6875 414.550781 C 209.980469 402.1875 214.957031 388.796875 220.539062 375.019531 Z M 280.929688 488.25 L 305.011719 533.359375 C 294.195312 536.222656 283.378906 538.699219 272.5625 540.785156 L 248.953125 496.019531 C 259.296875 493.871094 270.113281 491.082031 280.929688 488.292969 Z M 280.929688 488.25 " fill-opacity="1" fill-rule="evenodd"/><path fill="#3c85c0" d="M 145.25 268.269531 L 151.734375 280.289062 C 142.460938 288.871094 138.125 296.683594 131.644531 310.332031 L 131.042969 309.390625 C 133.390625 294.871094 138.128906 281.179688 145.25 268.3125 Z M 212.640625 394.632812 L 241.65625 448.71875 C 236.71875 463.570312 232.726562 478.761719 229.292969 493.226562 L 199.035156 436.355469 C 202.726562 423.09375 207.359375 409.183594 212.640625 394.632812 Z M 264.835938 492.328125 L 288.957031 537.136719 C 277.839844 539.886719 266.722656 542.074219 256.207031 543.921875 L 232.386719 499.109375 C 242.902344 497.261719 253.71875 494.773438 264.835938 492.328125 Z M 264.835938 492.328125 " fill-opacity="1" fill-rule="evenodd"/><path fill="#3e87c3" d="M 136.925781 286.46875 L 140.617188 293.292969 C 136.929688 299.367188 133.636719 305.648438 130.742188 312.136719 C 131.691406 303.285156 133.75 294.699219 136.925781 286.382812 Z M 205.601562 414.722656 L 235.261719 470.523438 C 232.472656 480.4375 230.023438 490.308594 227.835938 499.882812 C 234.960938 498.679688 241.742188 497.433594 248.867188 496.191406 L 272.5625 540.828125 C 261.144531 542.976562 250.027344 544.863281 239.511719 546.410156 L 192.851562 459.277344 C 196.242188 445.324219 200.277344 430.519531 205.515625 414.722656 Z M 205.601562 414.722656 " fill-opacity="1" fill-rule="evenodd"/><path fill="#3d88c4" d="M 131.042969 309.347656 L 131.644531 310.289062 L 130.742188 312.136719 C 130.742188 311.191406 131.042969 310.289062 131.042969 309.347656 Z M 199.035156 436.355469 L 229.292969 493.226562 C 228.695312 495.417969 228.394531 497.519531 227.75 499.710938 C 229.277344 499.359375 230.820312 499.160156 232.386719 499.109375 L 256.207031 543.921875 C 244.445312 545.765625 233.027344 547.3125 222.210938 548.210938 L 187.875 483.828125 C 190.683594 467.789062 194.402344 451.964844 199.035156 436.355469 Z M 199.035156 436.355469 " fill-opacity="1" fill-rule="evenodd"/><path fill="#3f8ac5" d="M 192.851562 459.277344 L 239.511719 546.410156 C 233.027344 547.3125 226.847656 547.953125 220.96875 548.253906 C 220.367188 558.757812 220.367188 569.257812 220.96875 579.761719 L 180.792969 504.34375 C 182.335938 504.34375 183.582031 504.042969 185.082031 504.042969 C 186.816406 488.972656 189.40625 474.050781 192.851562 459.277344 Z M 261.53125 655.519531 L 259.683594 651.828125 L 266.464844 656.121094 C 264.773438 656.039062 263.101562 655.824219 261.445312 655.476562 Z M 261.53125 655.519531 " fill-opacity="1" fill-rule="evenodd"/><path fill="#428cc6" d="M 187.917969 483.65625 L 222.253906 548.039062 L 221.011719 548.039062 C 218.863281 582.636719 223.800781 614.183594 239.855469 638.910156 L 266.421875 656.078125 C 260.242188 656.378906 247.28125 649.253906 235.863281 641.527344 L 162.550781 503.746094 C 170.070312 504.300781 177.59375 504.402344 185.125 504.042969 C 185.726562 497.5625 186.671875 490.78125 187.917969 483.65625 Z M 187.917969 483.65625 " fill-opacity="1" fill-rule="evenodd"/><path fill="#418dc7" d="M 180.792969 504.34375 L 220.96875 579.761719 C 221.269531 585.003906 221.894531 590.207031 222.847656 595.371094 C 223.796875 600.535156 225.070312 605.621094 226.65625 610.625 C 228.246094 615.632812 230.140625 620.519531 232.34375 625.285156 C 234.542969 630.054688 237.03125 634.667969 239.8125 639.125 L 259.597656 651.785156 L 261.445312 655.476562 C 249.082031 651.484375 226.847656 636.03125 219.121094 628.90625 C 213.324219 624.003906 207.859375 618.753906 202.726562 613.15625 L 191.609375 592.335938 C 186.808594 578.105469 184.132812 563.480469 183.582031 548.46875 C 177.960938 548.003906 172.394531 547.171875 166.882812 545.980469 L 143.105469 501.167969 C 155.554688 503.558594 168.117188 504.617188 180.792969 504.34375 Z M 180.792969 504.34375 " fill-opacity="1" fill-rule="evenodd"/><path fill="#458dc7" d="M 162.550781 503.746094 L 235.820312 641.570312 C 229.992188 637.691406 224.429688 633.472656 219.121094 628.90625 C 213.542969 623.972656 201.179688 613.457031 198.089844 606.972656 C 191.308594 594.914062 185.210938 575.425781 183.582031 548.554688 C 176.617188 548.3125 169.785156 547.226562 163.089844 545.292969 C 156.390625 543.363281 150.03125 540.644531 144.007812 537.136719 L 138.769531 527.523438 L 127.652344 497.261719 C 138.988281 501.011719 150.621094 503.171875 162.550781 503.746094 Z M 162.550781 503.746094 " fill-opacity="1" fill-rule="evenodd"/><path fill="#4290c9" d="M 143.105469 501.253906 L 166.882812 546.066406 C 162.394531 545.210938 158.042969 543.902344 153.824219 542.136719 C 149.609375 540.371094 145.621094 538.191406 141.859375 535.59375 L 127.652344 497.261719 C 132.707031 498.972656 137.855469 500.304688 143.105469 501.253906 Z M 191.609375 592.335938 L 202.726562 613.070312 C 200.875 611.238281 199.328125 609.179688 198.089844 606.886719 C 195.386719 602.277344 193.226562 597.429688 191.609375 592.335938 Z M 191.609375 592.335938 " fill-opacity="1" fill-rule="evenodd"/><path fill="#4691c9" d="M 138.769531 527.523438 L 144.007812 537.136719 C 143.25 536.679688 142.535156 536.164062 141.859375 535.59375 Z M 138.769531 527.523438 " fill-opacity="1" fill-rule="evenodd"/><path fill="#b22126" d="M 494.171875 388.152344 L 470.695312 267.023438 C 472.839844 267.625 474.984375 268.269531 477.476562 269.171875 C 485.210938 308.527344 490.777344 348.1875 494.171875 388.152344 Z M 494.171875 388.152344 " fill-opacity="1" fill-rule="evenodd"/><path fill="#b42025" d="M 475.929688 268.570312 L 487.046875 326.988281 C 490.4375 350.765625 493.226562 373.945312 495.074219 397.125 L 491.382812 398.96875 L 465.628906 265.480469 C 468.804688 266.378906 472.152344 267.625 475.929688 268.570312 Z M 475.929688 268.570312 " fill-opacity="1" fill-rule="evenodd"/><path fill="#b72126" d="M 470.695312 267.023438 L 494.171875 388.152344 C 494.472656 391.242188 494.773438 394.03125 495.074219 397.125 C 492.328125 398.367188 489.535156 399.914062 487.046875 401.160156 L 460.175781 263.804688 C 463.625 265.0625 467.132812 266.136719 470.695312 267.023438 Z M 470.695312 267.023438 " fill-opacity="1" fill-rule="evenodd"/><path fill="#b72126" d="M 465.414062 265.480469 L 491.167969 398.96875 C 488.078125 400.515625 485.289062 402.058594 482.195312 403.261719 L 454.984375 262.6875 C 458.332031 263.632812 462.023438 264.535156 465.414062 265.480469 Z M 465.414062 265.480469 " fill-opacity="1" fill-rule="evenodd"/><path fill="#b82025" d="M 460.175781 263.933594 L 487.046875 401.289062 C 483.957031 402.832031 480.867188 404.378906 477.777344 405.578125 L 449.660156 261.574219 C 453.351562 262.386719 456.785156 262.988281 460.175781 263.933594 Z M 460.175781 263.933594 " fill-opacity="1" fill-rule="evenodd"/><path fill="#bc2026" d="M 454.984375 262.6875 L 482.410156 403.476562 C 479.535156 405.070312 476.542969 406.417969 473.441406 407.511719 L 444.726562 260.371094 C 448.117188 261.144531 451.507812 261.832031 454.984375 262.6875 Z M 454.984375 262.6875 " fill-opacity="1" fill-rule="evenodd"/><path fill="#bc2026" d="M 449.660156 261.445312 L 477.777344 405.449219 C 474.867188 406.976562 471.875 408.320312 468.804688 409.484375 L 439.445312 258.996094 C 442.878906 259.898438 446.398438 260.542969 449.660156 261.445312 Z M 449.660156 261.445312 " fill-opacity="1" fill-rule="evenodd"/><path fill="#bd2026" d="M 444.726562 260.199219 L 473.441406 407.339844 C 470.351562 408.882812 467.261719 410.085938 464.511719 411.632812 L 434.210938 258.054688 C 437.816406 258.652344 441.335938 259.296875 444.726562 260.199219 Z M 444.726562 260.199219 " fill-opacity="1" fill-rule="evenodd"/><path fill="#c02026" d="M 439.445312 258.996094 L 468.804688 409.484375 C 465.914062 411.019531 462.9375 412.363281 459.878906 413.519531 L 429.230469 256.808594 C 432.664062 257.753906 436.054688 258.355469 439.445312 258.996094 Z M 439.445312 258.996094 " fill-opacity="1" fill-rule="evenodd"/><path fill="#c22026" d="M 434.210938 258.054688 L 464.511719 411.632812 C 461.421875 412.875 458.332031 414.421875 455.242188 415.667969 L 423.992188 255.90625 C 427.425781 256.507812 430.816406 257.109375 434.210938 258.054688 Z M 434.210938 258.054688 " fill-opacity="1" fill-rule="evenodd"/><path fill="#c22026" d="M 429.230469 256.808594 L 459.835938 413.519531 C 456.742188 415.066406 453.953125 416.265625 450.863281 417.511719 L 419.058594 254.960938 Z M 429.230469 256.808594 " fill-opacity="1" fill-rule="evenodd"/><path fill="#c52026" d="M 423.992188 255.90625 L 455.242188 415.667969 C 452.453125 416.910156 449.359375 418.15625 446.269531 419.699219 L 413.820312 254.363281 C 417.210938 254.664062 420.644531 255.261719 423.992188 255.90625 Z M 423.992188 255.90625 " fill-opacity="1" fill-rule="evenodd"/><path fill="#c71f26" d="M 419.058594 254.960938 L 450.90625 417.511719 C 447.816406 419.058594 444.726562 420.300781 441.632812 421.546875 L 408.882812 253.246094 C 412.277344 254.019531 415.667969 254.363281 419.058594 254.960938 Z M 419.058594 254.960938 " fill-opacity="1" fill-rule="evenodd"/><path fill="#c71f27" d="M 413.820312 254.363281 L 446.398438 419.699219 C 443.308594 420.902344 440.21875 422.148438 437.429688 423.390625 L 404.25 252.816406 C 407.339844 253.246094 410.429688 253.71875 413.820312 254.363281 Z M 413.820312 254.363281 " fill-opacity="1" fill-rule="evenodd"/><path fill="#ca1f27" d="M 408.882812 253.246094 L 441.632812 421.375 C 438.84375 422.621094 435.753906 423.820312 432.664062 425.066406 L 399.183594 251.871094 C 402.359375 252.472656 405.792969 252.816406 408.882812 253.246094 Z M 408.882812 253.246094 " fill-opacity="1" fill-rule="evenodd"/><path fill="#cc1f27" d="M 404.25 252.816406 L 437.300781 423.390625 L 428.027344 427.082031 L 394.03125 251.097656 C 397.425781 251.871094 400.816406 252.171875 404.25 252.816406 Z M 404.25 252.816406 " fill-opacity="1" fill-rule="evenodd"/><path fill="#cc1f27" d="M 399.183594 251.871094 L 432.878906 425.238281 L 423.605469 428.972656 L 389.269531 250.628906 C 392.550781 251.230469 395.855469 251.648438 399.183594 251.871094 Z M 399.183594 251.871094 " fill-opacity="1" fill-rule="evenodd"/><path fill="#cf1e27" d="M 394.03125 251.269531 L 428.027344 427.253906 C 424.9375 428.5 421.847656 429.746094 419.058594 430.988281 L 383.816406 250.027344 C 387.25 250.628906 390.597656 250.929688 394.03125 251.269531 Z M 394.03125 251.269531 " fill-opacity="1" fill-rule="evenodd"/><path fill="#d12226" d="M 389.097656 250.628906 L 423.433594 428.972656 C 420.644531 430.175781 417.554688 431.417969 414.464844 432.664062 L 378.882812 249.726562 Z M 389.097656 250.628906 " fill-opacity="1" fill-rule="evenodd"/><path fill="#d12226" d="M 383.816406 250.027344 L 419.058594 430.816406 L 409.785156 434.507812 L 373.945312 248.953125 Z M 383.816406 250.027344 " fill-opacity="1" fill-rule="evenodd"/><path fill="#d42227" d="M 378.882812 249.726562 L 414.421875 432.664062 C 411.332031 433.910156 408.242188 435.152344 405.449219 436.355469 L 369.136719 248.953125 Z M 378.882812 249.726562 " fill-opacity="1" fill-rule="evenodd"/><path fill="#d62226" d="M 373.945312 248.953125 L 409.785156 434.378906 C 406.996094 435.625 403.90625 436.871094 400.816406 438.113281 L 363.730469 248.179688 Z M 373.945312 248.953125 " fill-opacity="1" fill-rule="evenodd"/><path fill="#d62226" d="M 369.136719 248.953125 L 405.578125 436.527344 C 402.488281 437.773438 399.398438 439.015625 396.652344 439.960938 L 358.792969 247.835938 Z M 369.136719 248.953125 " fill-opacity="1" fill-rule="evenodd"/><path fill="#d72226" d="M 363.730469 248.179688 L 400.816406 438.242188 C 398.066406 439.144531 394.976562 440.390625 391.886719 441.632812 L 354.800781 251.570312 C 355.511719 250.257812 356.328125 249.011719 357.25 247.835938 C 359.4375 247.835938 361.582031 248.179688 363.730469 248.179688 Z M 363.730469 248.179688 " fill-opacity="1" fill-rule="evenodd"/><path fill="#db2226" d="M 358.792969 247.835938 L 396.523438 439.789062 L 387.25 443.480469 L 350.765625 256.808594 C 352.914062 253.71875 355.058594 250.628906 357.25 247.835938 Z M 358.792969 247.835938 " fill-opacity="1" fill-rule="evenodd"/><path fill="#db2227" d="M 354.800781 251.570312 L 391.886719 441.632812 C 388.796875 442.878906 385.707031 443.78125 382.617188 445.027344 L 346.730469 262.085938 C 349.523438 258.652344 351.96875 254.960938 354.800781 251.570312 Z M 354.800781 251.570312 " fill-opacity="1" fill-rule="evenodd"/><path fill="#df2227" d="M 350.765625 256.808594 L 387.25 443.480469 C 384.160156 444.425781 381.070312 445.625 377.980469 446.871094 L 343.039062 267.625 C 345.53125 263.933594 347.976562 260.542969 350.765625 256.808594 Z M 350.765625 256.808594 " fill-opacity="1" fill-rule="evenodd"/><path fill="#df2227" d="M 346.730469 262.085938 L 382.617188 445.027344 L 375.789062 447.515625 L 372.699219 444.082031 L 339.347656 273.203125 Z M 346.730469 262.085938 " fill-opacity="1" fill-rule="evenodd"/><path fill="#e02127" d="M 343.039062 267.625 L 377.980469 446.871094 L 375.789062 447.515625 C 372.699219 444.082031 369.609375 440.691406 366.21875 437.300781 L 335.316406 278.742188 C 337.804688 275.050781 340.550781 271.359375 343.039062 267.625 Z M 343.039062 267.625 " fill-opacity="1" fill-rule="evenodd"/><path fill="#e52227" d="M 339.347656 273.203125 L 372.699219 444.082031 C 368.40625 439.789062 364.375 435.152344 359.824219 430.816406 L 331.625 284.621094 C 334.070312 280.929688 336.558594 276.894531 339.347656 273.203125 Z M 339.347656 273.203125 " fill-opacity="1" fill-rule="evenodd"/><path fill="#e52227" d="M 335.316406 278.742188 L 366.21875 437.300781 C 362.183594 433.007812 358.191406 428.328125 353.855469 423.992188 L 328.101562 290.503906 C 330.507812 286.46875 332.824219 282.777344 335.316406 278.742188 Z M 335.316406 278.742188 " fill-opacity="1" fill-rule="evenodd"/><path fill="#e52227" d="M 331.625 284.621094 L 360.039062 430.816406 C 356.003906 426.183594 351.710938 421.847656 347.675781 417.210938 L 323.898438 296.382812 C 326.214844 292.347656 329.132812 288.355469 331.625 284.621094 Z M 331.625 284.621094 " fill-opacity="1" fill-rule="evenodd"/><path fill="#e52227" d="M 327.890625 290.503906 L 353.644531 423.992188 C 349.609375 419.359375 345.316406 415.066406 341.28125 410.429688 L 319.820312 302.265625 C 322.652344 298.230469 325.097656 294.195312 327.890625 290.503906 Z M 327.890625 290.503906 " fill-opacity="1" fill-rule="evenodd"/><path fill="#e52227" d="M 323.898438 296.382812 L 347.675781 417.210938 C 343.382812 412.574219 339.347656 407.941406 334.800781 403.90625 L 316.472656 308.445312 Z M 323.898438 296.382812 " fill-opacity="1" fill-rule="evenodd"/><path fill="#e52227" d="M 320.164062 302.265625 L 341.625 410.429688 C 337.332031 406.136719 333.296875 401.457031 328.746094 396.824219 L 312.738281 314.625 C 315.226562 310.589844 317.628906 306.253906 320.164062 302.265625 Z M 320.164062 302.265625 " fill-opacity="1" fill-rule="evenodd"/><path fill="#e52227" d="M 316.472656 308.445312 L 335.015625 403.90625 C 330.980469 399.269531 326.429688 394.632812 322.652344 390 L 309.046875 320.804688 C 311.535156 316.773438 313.980469 312.4375 316.472656 308.445312 Z M 316.472656 308.445312 " fill-opacity="1" fill-rule="evenodd"/><path fill="#e52227" d="M 312.738281 314.625 L 328.832031 396.824219 C 324.539062 392.1875 320.25 387.550781 315.957031 382.917969 L 305.140625 327.117188 C 307.800781 322.953125 310.289062 318.917969 312.738281 314.625 Z M 312.738281 314.625 " fill-opacity="1" fill-rule="evenodd"/><path fill="#e52227" d="M 309.046875 320.804688 L 322.652344 390 C 318.359375 385.363281 314.066406 380.425781 309.773438 375.789062 L 301.707031 333.769531 C 304.109375 329.433594 306.554688 325.097656 309.046875 320.804688 Z M 309.046875 320.804688 " fill-opacity="1" fill-rule="evenodd"/><path fill="#e52227" d="M 305.355469 327.289062 L 316.171875 383.085938 C 312.136719 378.453125 307.585938 373.515625 303.808594 368.878906 L 298.230469 340.722656 C 300.71875 336.257812 302.863281 331.625 305.355469 327.289062 Z M 305.355469 327.289062 " fill-opacity="1" fill-rule="evenodd"/><path fill="#e52227" d="M 301.921875 333.769531 L 309.988281 375.789062 C 305.699219 371.15625 301.40625 366.21875 297.113281 361.582031 L 294.367188 347.375 C 296.984375 342.738281 299.472656 338.40625 301.921875 333.769531 Z M 301.921875 333.769531 " fill-opacity="1" fill-rule="evenodd"/><path fill="#e52227" d="M 298.230469 340.550781 L 303.808594 368.707031 C 299.515625 364.074219 295.222656 359.09375 290.933594 354.15625 C 293.292969 349.523438 295.738281 345.1875 298.230469 340.550781 Z M 298.230469 340.550781 " fill-opacity="1" fill-rule="evenodd"/><path fill="#e82228" d="M 294.539062 347.375 L 297.285156 361.582031 C 295.136719 359.09375 292.992188 356.648438 291.105469 354.15625 C 292.128906 351.835938 293.273438 349.574219 294.539062 347.375 Z M 294.539062 347.375 " fill-opacity="1" fill-rule="evenodd"/><path fill="#1275bc" d="M 300.460938 365.273438 C 324.582031 392.488281 350.550781 420.300781 375.875 447.515625 C 414.207031 433.265625 451.894531 418.15625 486.230469 401.457031 C 470.4375 383.816406 454.683594 390 439.015625 403.304688 C 430.988281 377.550781 415.238281 360.984375 397.894531 358.492188 C 382.445312 356.003906 359.609375 359.09375 340.121094 386.609375 C 331.28125 367.464844 318.917969 358.792969 300.460938 365.273438 Z M 300.460938 365.273438 " fill-opacity="1" fill-rule="evenodd"/><path fill="#ffffff" d="M 352.914062 330.078125 L 390 336.257812 L 385.363281 357.71875 C 389.507812 357.421875 393.628906 357.621094 397.722656 358.320312 C 400.722656 358.679688 403.582031 359.511719 406.308594 360.8125 L 410.601562 339.777344 L 449.230469 346.558594 L 452.621094 325.097656 L 415.066406 318.917969 L 418.457031 303.808594 L 448.71875 309.046875 L 452.152344 288.011719 L 422.792969 282.777344 L 426.183594 266.722656 L 405.449219 262.988281 L 402.058594 279.386719 L 373.644531 274.449219 L 369.910156 295.4375 L 397.722656 300.460938 L 394.332031 315.613281 L 356.648438 308.832031 Z M 352.914062 330.078125 " fill-opacity="1" fill-rule="evenodd"/></svg>