<svg width="120" height="120" viewBox="0 0 120 120" fill="none" xmlns="http://www.w3.org/2000/svg">
<g clip-path="url(#clip0_1802_42089)">
<path d="M50.3922 103.432H48.9661C48.7581 99.8564 45.3513 98.361 42.0832 98.8463C41.7878 99.2332 41.653 99.7192 41.7069 100.203V117.039C41.7732 117.341 41.8763 117.634 42.0139 117.91C42.9119 118.642 44.0584 118.997 45.2127 118.901V120.05H32.665V118.901L34.5071 118.762C34.8659 118.663 35.1973 118.483 35.4755 118.236C35.7537 117.989 35.9713 117.681 36.1114 117.336V99.0839L36.0421 98.8364C33.0215 98.4105 29.6841 99.2127 28.9215 102.56C28.9215 102.907 28.8522 103.184 28.8522 103.491H27.3469L27.4162 97.0636H50.3922V103.432Z" fill="white"/>
<path d="M72.0411 103.055H70.615C70.1991 98.8463 65.2671 98.361 61.8604 98.9156C61.6784 99.019 61.5371 99.1812 61.4597 99.3756C61.3823 99.57 61.3734 99.785 61.4345 99.9852V107.532C61.9996 107.602 62.5731 107.558 63.1209 107.402C63.6688 107.247 64.1799 106.983 64.624 106.627C65.0682 106.27 65.4363 105.828 65.7067 105.327C65.977 104.826 66.1441 104.276 66.1981 103.709H67.6242V112.879H66.208C65.8613 110.305 64.0193 108.611 61.2562 109.126V116.356C61.2562 118.505 63.0983 118.851 64.9403 118.851V120H52.7492V118.851C54.7992 118.851 55.948 118.267 55.948 115.444V100.262C55.948 98.0441 54.0663 98.2818 52.7492 98.3511V97.133H72.0411V103.055Z" fill="white"/>
<path d="M93.2048 103.055H91.7786C91.3627 98.8463 86.4308 98.361 83.024 98.9156C82.8426 99.0191 82.7022 99.1819 82.6265 99.3767C82.5508 99.5714 82.5443 99.7862 82.6081 99.9852V107.532C83.1727 107.602 83.7456 107.558 84.2928 107.402C84.8401 107.247 85.3505 106.983 85.7939 106.626C86.2372 106.27 86.6045 105.828 86.8738 105.327C87.1431 104.825 87.309 104.275 87.3617 103.709H88.7878V112.879H87.3221C86.9755 110.305 85.1334 108.611 82.4199 109.126V116.356C82.4199 118.505 84.2619 118.851 86.104 118.851V120H73.9128V118.851C75.9629 118.851 77.1117 118.267 77.1117 115.444V100.262C77.1117 98.0441 75.2399 98.2818 73.9128 98.3511V97.133H93.2048V103.055Z" fill="white"/>
<path d="M92.8582 15.4491L77.8247 1.35653C77.8247 1.35653 67.9213 4.95148 60.4739 4.55534H60.0778C52.4917 4.96138 42.4595 1.40604 42.4595 1.40604L27.7529 15.2114C18.5031 57.7962 56.255 79.871 60.2758 82.0993C64.2966 79.871 101.91 57.8755 92.8582 15.4491Z" fill="#F20017"/>
<path d="M93.3472 15.3448L93.3145 15.1915L93.2001 15.0843L78.1667 0.991742L77.9427 0.781778L77.6541 0.886533L77.6539 0.886605L77.6528 0.887002L77.6479 0.888765L77.6276 0.896085L77.5453 0.925289C77.4725 0.951001 77.364 0.988885 77.2229 1.03709C76.9408 1.13352 76.5285 1.2712 76.01 1.43537C74.9728 1.7638 73.5124 2.19776 71.8212 2.61933C68.428 3.46516 64.1484 4.25008 60.5005 4.05604L60.4872 4.05534H60.4739H60.0778H60.0644L60.051 4.05605C56.332 4.25511 51.9843 3.48179 48.5417 2.64704C46.8256 2.23092 45.3446 1.80211 44.2931 1.47747C43.7675 1.31519 43.3495 1.17905 43.0636 1.0837C42.9207 1.03602 42.8107 0.998553 42.7369 0.973118L42.6535 0.944223L42.6328 0.936978L42.6279 0.935231L42.6268 0.934836L42.6266 0.934763L42.3394 0.833007L42.1173 1.0415L27.4107 14.8469L27.2973 14.9533L27.2643 15.1053C22.6003 36.5777 29.7924 52.8916 38.6456 64.099C47.4888 75.2939 57.9972 81.4081 60.0335 82.5366L60.2758 82.6709L60.5182 82.5366C62.5545 81.4081 73.0279 75.3138 81.8612 64.1589C90.7041 52.9917 97.9114 36.7378 93.3472 15.3448Z" stroke="white" stroke-miterlimit="3.86"/>
<path d="M91.0953 17.6774L34.6952 54.1221C43.3409 69.9676 57.9287 78.4944 60.2857 79.7819C64.0292 77.6823 99.0577 57.1723 91.0953 17.6774Z" fill="white"/>
<path d="M60.4838 71.4828C67.9934 71.4828 74.0812 65.395 74.0812 57.8854C74.0812 50.3757 67.9934 44.2879 60.4838 44.2879C52.9741 44.2879 46.8864 50.3757 46.8864 57.8854C46.8864 65.395 52.9741 71.4828 60.4838 71.4828Z" fill="#F20017"/>
<path d="M58.1763 29.72C56.9507 31.1222 55.3579 32.1544 53.5774 32.7003C51.7968 33.2462 49.8992 33.2842 48.0982 32.81C46.2973 32.3358 44.6645 31.3682 43.3837 30.0162C42.1029 28.6642 41.225 26.9814 40.8489 25.1574C40.4727 23.3335 40.6133 21.4407 41.2547 19.6923C41.8961 17.9439 43.0129 16.4092 44.4794 15.2612C45.9458 14.1132 47.7036 13.3974 49.5549 13.1944C51.4061 12.9914 53.2773 13.3092 54.9577 14.1122C52.5395 12.4398 49.6278 11.6322 46.6937 11.8199C43.7596 12.0077 40.9746 13.1798 38.7892 15.1466C36.6039 17.1135 35.1459 19.7601 34.6513 22.6583C34.1567 25.5565 34.6542 28.5368 36.0635 31.1172C37.4728 33.6975 39.7113 35.727 42.4171 36.8773C45.1228 38.0276 48.1375 38.2315 50.9735 37.4559C53.8095 36.6803 56.3009 34.9707 58.0447 32.6035C59.7886 30.2364 60.6828 27.3502 60.5828 24.4117C60.3313 26.3825 59.4928 28.232 58.1763 29.72Z" fill="white"/>
<path d="M64.2075 10.5469L64.0688 14.6767L67.8123 16.2018L63.8014 17.2218L63.5241 21.3912L61.2166 17.8854L57.4533 18.747L59.8499 15.6472L57.79 12.2404L61.5236 13.6269L64.2075 10.5469Z" fill="white"/>
<path d="M47.0844 57.8953C47.0825 55.2443 47.8669 52.6523 49.3385 50.4473C50.8101 48.2422 52.9027 46.5233 55.3515 45.5079C57.8003 44.4925 60.4953 44.2263 63.0954 44.743C65.6956 45.2597 68.084 46.5361 69.9585 48.4106C71.8331 50.2851 73.1094 52.6736 73.6261 55.2737C74.1428 57.8739 73.8767 60.5688 72.8613 63.0177C71.8459 65.4665 70.1269 67.5591 67.9219 69.0306C65.7168 70.5022 63.1249 71.2867 60.4739 71.2847C56.9236 71.2821 53.5194 69.8706 51.009 67.3601C48.4985 64.8497 47.087 61.4456 47.0844 57.8953V57.8953Z" fill="white"/>
<path d="M47.0844 57.8953C47.0825 55.2443 47.8669 52.6523 49.3385 50.4473C50.8101 48.2422 52.9027 46.5233 55.3515 45.5079C57.8003 44.4925 60.4953 44.2263 63.0954 44.743C65.6956 45.2597 68.084 46.5361 69.9585 48.4106C71.8331 50.2851 73.1094 52.6736 73.6261 55.2737C74.1428 57.8739 73.8767 60.5688 72.8613 63.0177C71.8459 65.4665 70.1269 67.5591 67.9219 69.0306C65.7168 70.5022 63.1249 71.2867 60.4739 71.2847C56.9236 71.2821 53.5194 69.8706 51.009 67.3601C48.4985 64.8497 47.087 61.4456 47.0844 57.8953V57.8953Z" fill="white"/>
<path fill-rule="evenodd" clip-rule="evenodd" d="M72.5462 58.3508L70.9121 64.1641L70.8428 66.64L68.8621 68.6207L64.9404 70.9579L63.7618 69.6705L56.9483 69.413C56.5818 69.6903 55.542 70.4924 55.542 70.542C54.0862 70.0567 50.4417 67.2144 50.4417 67.2144L50.0555 63.7977L48.5303 57.4892L46.9854 55.7462L48.6987 50.5172L51.5905 49.6655L56.0074 46.5459L57.7802 44.486L62.5635 44.3969L64.6135 46.645L69.7732 50.0319L72.5363 51.3095L74.0614 56.4197L72.5462 58.3508ZM70.724 64.1047L72.358 58.3112L69.9218 54.6469L64.5442 55.8453L63.0488 60.4702L66.0792 65.3724L70.724 64.1047ZM51.3825 53.8745L56.3343 55.667L60.2956 52.7554L60.3947 48.5365L56.1263 46.645L51.6697 49.8141L51.3825 53.8745ZM56.3838 55.8552L51.3132 54.0329L48.6987 57.4397L50.1743 63.669L54.5516 64.8376L57.8297 60.3711L56.3838 55.8552ZM65.9208 65.4417L62.8804 60.49H57.9287L54.6408 65.0158L56.978 69.2446L63.7618 69.5021L65.9208 65.4417ZM64.5442 55.6571L69.793 54.4786L69.6247 50.1607L64.4353 46.7638L60.6522 48.5662L60.5828 52.7455L64.5442 55.6571Z" fill="#F20017"/>
<path d="M74.6259 41.0693C74.6471 41.1103 74.6637 41.1535 74.6754 41.1981C74.6754 41.2575 74.6754 41.2971 74.6754 41.307C74.4674 41.4457 74.2 41.6041 73.8633 41.8022C73.5266 42.0002 73.2493 42.1686 73.0314 42.3172C72.8135 42.4657 72.5461 42.644 72.2193 42.8916L71.4469 43.4362C71.4469 43.4362 71.4469 43.4362 71.3478 43.4362L71.2488 43.3273C71.2224 43.2842 71.2024 43.2375 71.1894 43.1887C71.1894 43.1391 71.1894 43.0995 71.1894 43.0896C71.3895 42.9244 71.5781 42.7457 71.7539 42.5548C71.8727 42.4063 71.8331 42.1587 71.6053 41.8121L70.3674 39.9304C70.1495 39.6036 69.9415 39.465 69.7336 39.5244C69.4944 39.5992 69.2624 39.6954 69.0403 39.8116C69.0403 39.8116 69.0403 39.8116 68.9512 39.8116C68.9078 39.7832 68.8707 39.7461 68.8423 39.7026C68.8155 39.6597 68.7954 39.613 68.7828 39.564C68.7828 39.5046 68.7828 39.465 68.7828 39.4551L69.5949 38.9599C69.9316 38.7618 70.2188 38.5935 70.4367 38.4449C70.6546 38.2964 70.922 38.1181 71.2488 37.8705C71.5756 37.6229 71.8331 37.4447 72.0114 37.3258C72.0114 37.3258 72.0114 37.3258 72.1104 37.3258L72.2094 37.4447C72.2359 37.4877 72.256 37.5344 72.2688 37.5833C72.2688 37.6328 72.2688 37.6724 72.2688 37.6823C72.0716 37.8379 71.8981 38.0214 71.7539 38.227C71.635 38.4152 71.6647 38.6529 71.8628 38.95L73.1106 40.8316C73.3186 41.1485 73.5365 41.2872 73.7445 41.2377C73.9859 41.1735 74.2186 41.0804 74.4377 40.9604C74.4377 40.9604 74.4377 40.9604 74.5268 40.9604C74.5673 40.9892 74.601 41.0263 74.6259 41.0693V41.0693Z" fill="#F20017"/>
<path fill-rule="evenodd" clip-rule="evenodd" d="M72.5462 58.3508L70.9121 64.1641L70.8428 66.64L68.8621 68.6207L64.9404 70.9579L63.7618 69.6705L56.9483 69.413C56.5818 69.6903 55.542 70.4924 55.542 70.542C54.0862 70.0567 50.4417 67.2144 50.4417 67.2144L50.0555 63.7977L48.5303 57.4892L46.9854 55.7462L48.6987 50.5172L51.5905 49.6655L56.0074 46.5459L57.7802 44.486L62.5635 44.3969L64.6135 46.645L69.7732 50.0319L72.5363 51.3095L74.0614 56.4197L72.5462 58.3508ZM70.724 64.1047L72.358 58.3112L69.9218 54.6469L64.5442 55.8453L63.0488 60.4702L66.0792 65.3724L70.724 64.1047ZM51.3825 53.8745L56.3343 55.667L60.2956 52.7554L60.3947 48.5365L56.1263 46.645L51.6697 49.8141L51.3825 53.8745ZM56.3838 55.8552L51.3132 54.0329L48.6987 57.4397L50.1743 63.669L54.5516 64.8376L57.8297 60.3711L56.3838 55.8552ZM65.9208 65.4417L62.8804 60.49H57.9287L54.6408 65.0158L56.978 69.2446L63.7618 69.5021L65.9208 65.4417ZM64.5442 55.6571L69.793 54.4786L69.6247 50.1607L64.4353 46.7638L60.6522 48.5662L60.5828 52.7455L64.5442 55.6571Z" fill="#F20017"/>
<path d="M78.6962 35.8898C78.9869 36.3511 79.1706 36.8715 79.234 37.413C79.2974 37.9545 79.2389 38.5034 79.0626 39.0193C78.6831 40.3081 78.0045 41.489 77.0819 42.4657C77.0532 42.4763 77.0216 42.4763 76.9928 42.4657L76.8641 42.4162C76.8247 42.3824 76.7912 42.3422 76.765 42.2973C76.765 42.2973 76.765 42.2181 76.765 42.1983C77.3794 41.3982 77.7661 40.447 77.8841 39.4452C77.9535 38.5436 77.7124 37.6455 77.2008 36.9C76.9176 36.4263 76.5636 35.9988 76.151 35.6323C76.0315 35.5337 75.8845 35.4744 75.73 35.4624C75.5755 35.4505 75.4211 35.4865 75.2878 35.5656C75.1546 35.6447 75.049 35.763 74.9855 35.9043C74.9219 36.0456 74.9036 36.2031 74.9329 36.3553C75.0275 36.784 75.2095 37.1886 75.4677 37.5437C75.6435 37.863 75.8868 38.1402 76.1807 38.3558C76.2661 38.4116 76.3659 38.4413 76.4679 38.4413C76.5699 38.4413 76.6697 38.4116 76.7551 38.3558L76.8542 38.2666L76.9433 38.1676C76.9433 38.1676 76.9433 38.1676 77.0522 38.1676C77.098 38.1585 77.1451 38.1585 77.1909 38.1676L77.3196 38.2369C77.3691 38.2369 77.3989 38.2964 77.389 38.3162C77.35 38.5065 77.2833 38.69 77.1909 38.8609C77.061 39.0558 76.8882 39.2184 76.6858 39.3362C76.4783 39.4746 76.2454 39.5704 76.0006 39.618C75.7558 39.6657 75.5039 39.6641 75.2597 39.6135C75.0086 39.5711 74.7693 39.4758 74.5576 39.3342C74.3459 39.1925 74.1667 39.0075 74.0317 38.7915C73.8464 38.5193 73.7229 38.2097 73.6698 37.8847C73.6168 37.5596 73.6355 37.2269 73.7247 36.9099C73.9302 36.1839 74.4096 35.5662 75.0616 35.1867C75.3492 34.9726 75.6785 34.8214 76.0283 34.7429C76.378 34.6644 76.7404 34.6604 77.0918 34.7311C77.7551 34.8979 78.3293 35.3126 78.6962 35.8898V35.8898Z" fill="#F20017"/>
<path fill-rule="evenodd" clip-rule="evenodd" d="M72.5462 58.3508L70.9121 64.1641L70.8428 66.64L68.8621 68.6207L64.9404 70.9579L63.7618 69.6705L56.9483 69.413C56.5818 69.6903 55.542 70.4924 55.542 70.542C54.0862 70.0567 50.4417 67.2144 50.4417 67.2144L50.0555 63.7977L48.5303 57.4892L46.9854 55.7462L48.6987 50.5172L51.5905 49.6655L56.0074 46.5459L57.7802 44.486L62.5635 44.3969L64.6135 46.645L69.7732 50.0319L72.5363 51.3095L74.0614 56.4197L72.5462 58.3508ZM70.724 64.1047L72.358 58.3112L69.9218 54.6469L64.5442 55.8453L63.0488 60.4702L66.0792 65.3724L70.724 64.1047ZM51.3825 53.8745L56.3343 55.667L60.2956 52.7554L60.3947 48.5365L56.1263 46.645L51.6697 49.8141L51.3825 53.8745ZM56.3838 55.8552L51.3132 54.0329L48.6987 57.4397L50.1743 63.669L54.5516 64.8376L57.8297 60.3711L56.3838 55.8552ZM65.9208 65.4417L62.8804 60.49H57.9287L54.6408 65.0158L56.978 69.2446L63.7618 69.5021L65.9208 65.4417ZM64.5442 55.6571L69.793 54.4786L69.6247 50.1607L64.4353 46.7638L60.6522 48.5662L60.5828 52.7455L64.5442 55.6571Z" fill="#F20017"/>
<path d="M83.5093 33.4338C83.5093 33.6417 83.5786 33.9388 83.6381 34.335C83.6975 34.7311 83.7767 35.048 83.8361 35.3253C83.6422 35.4024 83.4564 35.4986 83.2815 35.6125L82.2912 36.2562L81.1226 37.0386C80.9079 37.1757 80.7057 37.3314 80.5185 37.5041C80.5185 37.5041 80.4591 37.5041 80.3996 37.5041C80.3518 37.4779 80.311 37.4405 80.2808 37.3951C80.2776 37.3788 80.2776 37.362 80.2808 37.3456C80.2808 37.3456 80.2808 37.3456 80.2808 37.2961C80.6014 36.5262 80.8694 35.7354 81.083 34.9292C81.1465 34.7173 81.1661 34.4948 81.1406 34.2751C81.115 34.0554 81.0449 33.8433 80.9344 33.6516C80.8798 33.5529 80.8036 33.4677 80.7116 33.4023C80.6195 33.337 80.5139 33.2932 80.4027 33.2741C80.2914 33.2551 80.1773 33.2614 80.0688 33.2924C79.9602 33.3235 79.8601 33.3786 79.7757 33.4536C79.5711 33.5739 79.4164 33.7636 79.34 33.9884C79.2663 34.2182 79.21 34.4532 79.1716 34.6915C79.1716 34.6915 79.1716 34.6915 79.0726 34.7509H78.924C78.8815 34.7595 78.8378 34.7595 78.7953 34.7509C78.7953 34.7509 78.7161 34.7509 78.7061 34.6816C78.6956 34.164 78.7726 33.6484 78.9339 33.1565C79.1024 32.6912 79.4236 32.2967 79.845 32.0374C80.2187 31.7641 80.6839 31.6469 81.1424 31.7106C81.3438 31.7372 81.537 31.8078 81.7081 31.9173C81.8792 32.0268 82.0242 32.1726 82.1327 32.3444C82.2547 32.5385 82.3345 32.756 82.367 32.983C82.3994 33.2099 82.3837 33.4411 82.3209 33.6615C82.1118 34.3544 81.776 35.0025 81.3306 35.5729L82.6477 34.6519C82.8026 34.5428 82.9229 34.3916 82.9943 34.2161C83.0494 34.0164 83.0728 33.8092 83.0637 33.6021C83.0637 33.6021 83.0637 33.5526 83.1429 33.513C83.1842 33.4851 83.2319 33.4681 83.2815 33.4635H83.4301C83.4796 33.3942 83.5093 33.4041 83.5093 33.4338Z" fill="#F20017"/>
<path fill-rule="evenodd" clip-rule="evenodd" d="M72.5462 58.3508L70.9121 64.1641L70.8428 66.64L68.8621 68.6207L64.9404 70.9579L63.7618 69.6705L56.9483 69.413C56.5818 69.6903 55.542 70.4924 55.542 70.542C54.0862 70.0567 50.4417 67.2144 50.4417 67.2144L50.0555 63.7977L48.5303 57.4892L46.9854 55.7462L48.6987 50.5172L51.5905 49.6655L56.0074 46.5459L57.7802 44.486L62.5635 44.3969L64.6135 46.645L69.7732 50.0319L72.5363 51.3095L74.0614 56.4197L72.5462 58.3508ZM70.724 64.1047L72.358 58.3112L69.9218 54.6469L64.5442 55.8453L63.0488 60.4702L66.0792 65.3724L70.724 64.1047ZM51.3825 53.8745L56.3343 55.667L60.2956 52.7554L60.3947 48.5365L56.1263 46.645L51.6697 49.8141L51.3825 53.8745ZM56.3838 55.8552L51.3132 54.0329L48.6987 57.4397L50.1743 63.669L54.5516 64.8376L57.8297 60.3711L56.3838 55.8552ZM65.9208 65.4417L62.8804 60.49H57.9287L54.6408 65.0158L56.978 69.2446L63.7618 69.5021L65.9208 65.4417ZM64.5442 55.6571L69.793 54.4786L69.6247 50.1607L64.4353 46.7638L60.6522 48.5662L60.5828 52.7455L64.5442 55.6571Z" fill="#F20017"/>
<path d="M88.3125 32.0671C88.4869 32.3648 88.5877 32.6998 88.6067 33.0443C88.6256 33.3887 88.5621 33.7328 88.4214 34.0478C88.1408 34.8183 87.6155 35.4757 86.926 35.9195C86.6364 36.1362 86.2948 36.2729 85.9356 36.3157C85.8051 36.33 85.6731 36.308 85.5543 36.2521C85.4355 36.1961 85.3344 36.1085 85.2622 35.9988C85.2103 35.9192 85.1756 35.8296 85.1602 35.7358C85.1449 35.642 85.1492 35.5461 85.1731 35.4541C85.2258 35.2554 85.3536 35.0849 85.5296 34.9787C85.5933 34.9292 85.6677 34.8954 85.7468 34.8799C85.8259 34.8644 85.9076 34.8677 85.9852 34.8896C86.1218 34.93 86.2519 34.9901 86.3714 35.0678C86.4826 35.1383 86.5984 35.2012 86.718 35.256C86.7647 35.283 86.8176 35.2971 86.8715 35.2971C86.9254 35.2971 86.9784 35.283 87.025 35.256C87.1658 35.1683 87.2793 35.043 87.3528 34.8943C87.4263 34.7456 87.4568 34.5793 87.441 34.4142C87.3858 33.9364 87.2047 33.4818 86.9161 33.0971C86.7631 32.8457 86.5483 32.6377 86.2922 32.4929C86.1695 32.4301 86.0313 32.4041 85.8942 32.4182C85.7571 32.4322 85.627 32.4857 85.5197 32.5722C85.3988 32.6455 85.2915 32.7393 85.2028 32.8495C85.1308 32.9528 85.0679 33.0622 85.0146 33.1763C85.0146 33.1763 85.0146 33.1763 84.9156 33.1763C84.8632 33.186 84.8095 33.186 84.7571 33.1763C84.7161 33.1528 84.6793 33.1227 84.6482 33.0871C84.6482 33.0871 84.5987 33.0178 84.6482 32.9881C84.8945 32.5985 85.0502 32.1585 85.1038 31.7007C85.1611 31.361 85.1017 31.012 84.9354 30.7103C84.8362 30.5465 84.6816 30.4235 84.4997 30.3637C84.405 30.3385 84.3059 30.3352 84.2098 30.354C84.1137 30.3729 84.0231 30.4135 83.9451 30.4726C83.774 30.5785 83.6393 30.734 83.5588 30.9183C83.4711 31.135 83.408 31.3609 83.3707 31.5917C83.359 31.6077 83.3442 31.6213 83.3272 31.6315C83.3101 31.6417 83.2913 31.6484 83.2716 31.6512C83.2228 31.6626 83.1719 31.6626 83.1231 31.6512H82.9943C82.9622 31.6403 82.9345 31.6195 82.9151 31.5917C82.9284 31.1068 83.036 30.6292 83.232 30.1854C83.4036 29.7823 83.6893 29.4381 84.054 29.1951C84.2334 29.0649 84.4374 28.9723 84.6535 28.923C84.8697 28.8736 85.0936 28.8685 85.3117 28.9079C85.4967 28.9345 85.6741 28.9993 85.8327 29.0982C85.9912 29.1971 86.1275 29.3279 86.2328 29.4823C86.3339 29.6243 86.4061 29.7849 86.4452 29.9548C86.4843 30.1247 86.4895 30.3007 86.4605 30.4726C86.3461 30.9033 86.1362 31.3027 85.8465 31.6412C86.2801 31.3519 86.8103 31.2451 87.3221 31.3441C87.7301 31.4547 88.0828 31.7122 88.3125 32.0671V32.0671Z" fill="#F20017"/>
</g>
<defs>
<clipPath id="clip0_1802_42089">
<rect width="120" height="120" fill="white"/>
</clipPath>
</defs>
</svg>
