<svg xmlns="http://www.w3.org/2000/svg" xmlns:xlink="http://www.w3.org/1999/xlink" width="1080" zoomAndPan="magnify" viewBox="0 0 810 809.999993" height="1080" preserveAspectRatio="xMidYMid meet" version="1.0"><path fill="#ffffff" d="M 340.148438 698.164062 L 330.519531 698.164062 C 329.117188 674.03125 306.121094 663.9375 284.0625 667.210938 C 282.066406 669.824219 281.15625 673.105469 281.523438 676.371094 L 281.523438 790.011719 C 281.96875 792.050781 282.664062 794.03125 283.59375 795.890625 C 289.65625 800.832031 297.394531 803.230469 305.1875 802.582031 L 305.1875 810.335938 L 220.488281 810.335938 L 220.488281 802.582031 L 232.921875 801.644531 C 235.34375 800.976562 237.582031 799.761719 239.460938 798.09375 C 241.335938 796.425781 242.804688 794.347656 243.75 792.019531 L 243.75 668.816406 L 243.285156 667.144531 C 222.894531 664.269531 200.367188 669.6875 195.21875 692.28125 C 195.21875 694.621094 194.753906 696.492188 194.753906 698.5625 L 184.589844 698.5625 L 185.058594 655.179688 L 340.148438 655.179688 Z M 340.148438 698.164062 " fill-opacity="1" fill-rule="nonzero"/><path fill="#ffffff" d="M 486.277344 695.621094 L 476.652344 695.621094 C 473.84375 667.210938 440.554688 663.9375 417.558594 667.679688 C 416.328125 668.378906 415.375 669.472656 414.851562 670.785156 C 414.332031 672.097656 414.269531 673.546875 414.683594 674.898438 L 414.683594 725.839844 C 418.496094 726.3125 422.367188 726.015625 426.066406 724.964844 C 429.765625 723.917969 433.214844 722.136719 436.210938 719.730469 C 439.210938 717.324219 441.695312 714.339844 443.519531 710.957031 C 445.34375 707.574219 446.472656 703.863281 446.835938 700.035156 L 456.464844 700.035156 L 456.464844 761.933594 L 446.902344 761.933594 C 444.5625 744.558594 432.128906 733.125 413.480469 736.601562 L 413.480469 785.402344 C 413.480469 799.910156 425.914062 802.246094 438.347656 802.246094 L 438.347656 810 L 356.058594 810 L 356.058594 802.246094 C 369.894531 802.246094 377.648438 798.300781 377.648438 779.246094 L 377.648438 676.769531 C 377.648438 661.796875 364.949219 663.402344 356.058594 663.871094 L 356.058594 655.648438 L 486.277344 655.648438 Z M 486.277344 695.621094 " fill-opacity="1" fill-rule="nonzero"/><path fill="#ffffff" d="M 629.132812 695.621094 L 619.503906 695.621094 C 616.699219 667.210938 583.40625 663.9375 560.410156 667.679688 C 559.1875 668.378906 558.238281 669.476562 557.730469 670.792969 C 557.21875 672.105469 557.175781 673.558594 557.605469 674.898438 L 557.605469 725.839844 C 561.414062 726.3125 565.28125 726.015625 568.976562 724.964844 C 572.671875 723.917969 576.117188 722.136719 579.109375 719.726562 C 582.101562 717.324219 584.582031 714.339844 586.398438 710.957031 C 588.214844 707.570312 589.335938 703.855469 589.691406 700.035156 L 599.316406 700.035156 L 599.316406 761.933594 L 589.425781 761.933594 C 587.085938 744.558594 574.652344 733.125 556.335938 736.601562 L 556.335938 785.402344 C 556.335938 799.910156 568.769531 802.246094 581.203125 802.246094 L 581.203125 810 L 498.910156 810 L 498.910156 802.246094 C 512.75 802.246094 520.503906 798.300781 520.503906 779.246094 L 520.503906 676.769531 C 520.503906 661.796875 507.871094 663.402344 498.910156 663.871094 L 498.910156 655.648438 L 629.132812 655.648438 Z M 629.132812 695.621094 " fill-opacity="1" fill-rule="nonzero"/><path fill="#f20017" d="M 626.792969 104.28125 L 525.316406 9.15625 C 525.316406 9.15625 458.46875 33.421875 408.199219 30.75 L 405.523438 30.75 C 354.320312 33.488281 286.601562 9.492188 286.601562 9.492188 L 187.332031 102.675781 C 124.894531 390.125 379.722656 539.128906 406.863281 554.171875 C 434.003906 539.128906 687.890625 390.660156 626.792969 104.28125 Z M 626.792969 104.28125 " fill-opacity="1" fill-rule="nonzero"/><path stroke-linecap="butt" transform="matrix(6.75, 0, 0, 6.75, 0.0000035, 0.00002)" fill="none" stroke-linejoin="miter" d="M 93.347226 15.344905 L 93.31424 15.191549 L 93.200236 15.084489 L 78.16667 0.991895 L 77.942712 0.781826 L 77.653939 0.886571 L 77.652781 0.88715 L 77.648152 0.888886 L 77.627318 0.89583 L 77.545142 0.925344 C 77.472226 0.950807 77.364008 0.989002 77.222804 1.037034 C 76.940976 1.133678 76.52836 1.271409 76.009841 1.435182 C 74.972804 1.763886 73.512156 2.197914 71.821184 2.61921 C 68.428244 3.465275 64.148151 4.249997 60.500581 4.056132 L 60.487271 4.055553 L 60.064239 4.055553 L 60.050928 4.056132 C 56.332178 4.255206 51.984377 3.482057 48.541669 2.646988 C 46.825812 2.2309 45.34433 1.80208 44.292826 1.477428 C 43.767363 1.315391 43.349539 1.178817 43.063659 1.083909 C 42.920719 1.035877 42.810766 0.99884 42.736691 0.973377 L 42.653358 0.944442 L 42.632525 0.936918 L 42.627895 0.935182 L 42.626738 0.934604 L 42.339122 0.832752 L 42.117478 1.041664 L 27.41088 14.846641 L 27.297455 14.953123 L 27.264468 15.105322 C 22.600116 36.577545 29.792246 52.891782 38.645835 64.098959 C 47.489007 75.293982 57.997109 81.407987 60.033567 82.53646 L 60.276044 82.670719 L 60.517942 82.53646 C 62.554401 81.407987 73.027781 75.313658 81.861115 64.159144 C 90.704286 52.991898 97.911463 36.737846 93.347226 15.344905 Z M 93.347226 15.344905 " stroke="#ffffff" stroke-width="1" stroke-opacity="1" stroke-miterlimit="3.86"/><path fill="#ffffff" d="M 614.894531 119.324219 L 234.191406 365.324219 C 292.550781 472.28125 391.019531 529.835938 406.929688 538.527344 C 432.195312 524.355469 668.640625 385.914062 614.894531 119.324219 Z M 614.894531 119.324219 " fill-opacity="1" fill-rule="nonzero"/><path fill="#f20017" d="M 408.265625 482.507812 C 458.957031 482.507812 500.046875 441.417969 500.046875 390.726562 C 500.046875 340.035156 458.957031 298.941406 408.265625 298.941406 C 357.574219 298.941406 316.484375 340.035156 316.484375 390.726562 C 316.484375 441.417969 357.574219 482.507812 408.265625 482.507812 Z M 408.265625 482.507812 " fill-opacity="1" fill-rule="nonzero"/><path fill="#ffffff" d="M 392.691406 200.609375 C 384.417969 210.074219 373.664062 217.042969 361.648438 220.726562 C 349.628906 224.410156 336.820312 224.667969 324.664062 221.46875 C 312.507812 218.265625 301.484375 211.734375 292.839844 202.609375 C 284.195312 193.484375 278.269531 182.125 275.730469 169.8125 C 273.191406 157.5 274.140625 144.726562 278.46875 132.921875 C 282.796875 121.121094 290.335938 110.761719 300.234375 103.011719 C 310.132812 95.265625 322 90.433594 334.496094 89.0625 C 346.992188 87.691406 359.621094 89.835938 370.964844 95.257812 C 354.640625 83.96875 334.988281 78.515625 315.183594 79.785156 C 295.378906 81.050781 276.578125 88.964844 261.828125 102.238281 C 247.078125 115.515625 237.234375 133.378906 233.894531 152.945312 C 230.558594 172.507812 233.914062 192.625 243.429688 210.042969 C 252.941406 227.457031 268.050781 241.15625 286.316406 248.921875 C 304.578125 256.6875 324.929688 258.0625 344.070312 252.828125 C 363.214844 247.59375 380.03125 236.050781 391.800781 220.074219 C 403.574219 204.097656 409.609375 184.613281 408.933594 164.777344 C 407.234375 178.082031 401.578125 190.566406 392.691406 200.609375 Z M 392.691406 200.609375 " fill-opacity="1" fill-rule="nonzero"/><path fill="#ffffff" d="M 433.402344 71.191406 L 432.464844 99.066406 L 457.734375 109.363281 L 430.660156 116.246094 L 428.789062 144.390625 L 413.210938 120.726562 L 387.808594 126.542969 L 403.988281 105.617188 L 390.082031 82.621094 L 415.285156 91.980469 Z M 433.402344 71.191406 " fill-opacity="1" fill-rule="nonzero"/><path fill="#ffffff" d="M 317.820312 390.792969 C 317.808594 372.898438 323.101562 355.402344 333.035156 340.519531 C 342.96875 325.636719 357.09375 314.03125 373.621094 307.179688 C 390.152344 300.324219 408.34375 298.527344 425.894531 302.015625 C 443.445312 305.503906 459.566406 314.117188 472.21875 326.773438 C 484.875 339.425781 493.488281 355.546875 496.976562 373.097656 C 500.464844 390.648438 498.667969 408.839844 491.8125 425.371094 C 484.960938 441.898438 473.355469 456.023438 458.472656 465.957031 C 443.589844 475.890625 426.09375 481.183594 408.199219 481.171875 C 384.234375 481.152344 361.257812 471.625 344.3125 454.679688 C 327.363281 437.734375 317.835938 414.757812 317.820312 390.792969 Z M 317.820312 390.792969 " fill-opacity="1" fill-rule="nonzero"/><path fill="#ffffff" d="M 317.820312 390.792969 C 317.808594 372.898438 323.101562 355.402344 333.035156 340.519531 C 342.96875 325.636719 357.09375 314.03125 373.621094 307.179688 C 390.152344 300.324219 408.34375 298.527344 425.894531 302.015625 C 443.445312 305.503906 459.566406 314.117188 472.21875 326.773438 C 484.875 339.425781 493.488281 355.546875 496.976562 373.097656 C 500.464844 390.648438 498.667969 408.839844 491.8125 425.371094 C 484.960938 441.898438 473.355469 456.023438 458.472656 465.957031 C 443.589844 475.890625 426.09375 481.183594 408.199219 481.171875 C 384.234375 481.152344 361.257812 471.625 344.3125 454.679688 C 327.363281 437.734375 317.835938 414.757812 317.820312 390.792969 Z M 317.820312 390.792969 " fill-opacity="1" fill-rule="nonzero"/><path fill="#f20017" d="M 489.6875 393.867188 L 478.65625 433.109375 L 478.1875 449.820312 L 464.820312 463.191406 L 438.347656 478.964844 L 430.390625 470.277344 L 384.402344 468.539062 C 381.925781 470.410156 374.910156 475.824219 374.910156 476.160156 C 365.082031 472.882812 340.480469 453.695312 340.480469 453.695312 L 337.875 430.632812 L 327.578125 388.050781 L 317.152344 376.285156 L 328.714844 340.992188 L 348.234375 335.242188 L 378.050781 314.183594 L 390.015625 300.28125 L 422.304688 299.679688 L 436.140625 314.855469 L 470.96875 337.714844 L 489.621094 346.339844 L 499.914062 380.832031 Z M 477.386719 432.707031 L 488.417969 393.601562 L 471.972656 368.867188 L 435.671875 376.957031 L 425.578125 408.175781 L 446.035156 441.265625 Z M 346.832031 363.652344 L 380.257812 375.753906 L 406.996094 356.097656 L 407.664062 327.621094 L 378.851562 314.855469 L 348.769531 336.246094 Z M 380.589844 377.023438 L 346.363281 364.722656 L 328.714844 387.71875 L 338.675781 429.765625 L 368.222656 437.652344 L 390.351562 407.503906 Z M 444.964844 441.730469 L 424.441406 408.308594 L 391.019531 408.308594 L 368.824219 438.855469 L 384.601562 467.402344 L 430.390625 469.140625 Z M 435.671875 375.683594 L 471.101562 367.730469 L 469.964844 338.585938 L 434.9375 315.65625 L 409.402344 327.820312 L 408.933594 356.03125 Z M 435.671875 375.683594 " fill-opacity="1" fill-rule="evenodd"/><path fill="#f20017" d="M 503.726562 277.21875 C 503.867188 277.496094 503.980469 277.785156 504.058594 278.085938 C 504.058594 278.488281 504.058594 278.753906 504.058594 278.820312 C 502.65625 279.757812 500.851562 280.828125 498.578125 282.164062 C 496.304688 283.5 494.433594 284.636719 492.960938 285.640625 C 491.492188 286.644531 489.6875 287.847656 487.480469 289.519531 L 482.265625 293.195312 C 482.265625 293.195312 482.265625 293.195312 481.597656 293.195312 L 480.929688 292.460938 C 480.75 292.167969 480.617188 291.851562 480.527344 291.523438 C 480.527344 291.1875 480.527344 290.921875 480.527344 290.855469 C 481.878906 289.738281 483.152344 288.535156 484.339844 287.246094 C 485.140625 286.242188 484.875 284.570312 483.335938 282.230469 L 474.980469 269.53125 C 473.507812 267.324219 472.105469 266.390625 470.703125 266.789062 C 469.085938 267.292969 467.519531 267.945312 466.023438 268.726562 C 466.023438 268.726562 466.023438 268.726562 465.421875 268.726562 C 465.128906 268.535156 464.878906 268.285156 464.683594 267.992188 C 464.503906 267.703125 464.367188 267.386719 464.285156 267.058594 C 464.285156 266.65625 464.285156 266.390625 464.285156 266.320312 L 469.765625 262.980469 C 472.039062 261.640625 473.976562 260.507812 475.449219 259.503906 C 476.917969 258.5 478.722656 257.296875 480.929688 255.625 C 483.136719 253.953125 484.875 252.75 486.078125 251.949219 C 486.078125 251.949219 486.078125 251.949219 486.746094 251.949219 L 487.414062 252.75 C 487.59375 253.042969 487.726562 253.355469 487.8125 253.6875 C 487.8125 254.019531 487.8125 254.289062 487.8125 254.355469 C 486.484375 255.40625 485.3125 256.644531 484.339844 258.03125 C 483.535156 259.300781 483.738281 260.90625 485.074219 262.914062 L 493.496094 275.613281 C 494.902344 277.753906 496.371094 278.6875 497.773438 278.355469 C 499.40625 277.921875 500.976562 277.292969 502.453125 276.484375 C 502.453125 276.484375 502.453125 276.484375 503.054688 276.484375 C 503.328125 276.675781 503.558594 276.925781 503.726562 277.21875 Z M 503.726562 277.21875 " fill-opacity="1" fill-rule="nonzero"/><path fill="#f20017" d="M 489.6875 393.867188 L 478.65625 433.109375 L 478.1875 449.820312 L 464.820312 463.191406 L 438.347656 478.964844 L 430.390625 470.277344 L 384.402344 468.539062 C 381.925781 470.410156 374.910156 475.824219 374.910156 476.160156 C 365.082031 472.882812 340.480469 453.695312 340.480469 453.695312 L 337.875 430.632812 L 327.578125 388.050781 L 317.152344 376.285156 L 328.714844 340.992188 L 348.234375 335.242188 L 378.050781 314.183594 L 390.015625 300.28125 L 422.304688 299.679688 L 436.140625 314.855469 L 470.96875 337.714844 L 489.621094 346.339844 L 499.914062 380.832031 Z M 477.386719 432.707031 L 488.417969 393.601562 L 471.972656 368.867188 L 435.671875 376.957031 L 425.578125 408.175781 L 446.035156 441.265625 Z M 346.832031 363.652344 L 380.257812 375.753906 L 406.996094 356.097656 L 407.664062 327.621094 L 378.851562 314.855469 L 348.769531 336.246094 Z M 380.589844 377.023438 L 346.363281 364.722656 L 328.714844 387.71875 L 338.675781 429.765625 L 368.222656 437.652344 L 390.351562 407.503906 Z M 444.964844 441.730469 L 424.441406 408.308594 L 391.019531 408.308594 L 368.824219 438.855469 L 384.601562 467.402344 L 430.390625 469.140625 Z M 435.671875 375.683594 L 471.101562 367.730469 L 469.964844 338.585938 L 434.9375 315.65625 L 409.402344 327.820312 L 408.933594 356.03125 Z M 435.671875 375.683594 " fill-opacity="1" fill-rule="evenodd"/><path fill="#f20017" d="M 531.199219 242.257812 C 533.160156 245.371094 534.402344 248.882812 534.828125 252.539062 C 535.257812 256.191406 534.863281 259.898438 533.671875 263.378906 C 531.109375 272.078125 526.53125 280.050781 520.304688 286.644531 C 520.109375 286.714844 519.894531 286.714844 519.703125 286.644531 L 518.832031 286.308594 C 518.566406 286.082031 518.339844 285.808594 518.164062 285.507812 C 518.164062 285.507812 518.164062 284.972656 518.164062 284.839844 C 522.3125 279.4375 524.921875 273.015625 525.71875 266.253906 C 526.1875 260.167969 524.558594 254.105469 521.105469 249.074219 C 519.195312 245.878906 516.804688 242.992188 514.019531 240.519531 C 513.210938 239.851562 512.21875 239.453125 511.175781 239.371094 C 510.132812 239.289062 509.09375 239.535156 508.191406 240.066406 C 507.292969 240.601562 506.582031 241.398438 506.152344 242.355469 C 505.722656 243.308594 505.597656 244.371094 505.796875 245.398438 C 506.4375 248.292969 507.664062 251.023438 509.40625 253.421875 C 510.59375 255.574219 512.234375 257.445312 514.21875 258.902344 C 514.796875 259.277344 515.46875 259.480469 516.160156 259.480469 C 516.847656 259.480469 517.519531 259.277344 518.097656 258.902344 L 518.765625 258.300781 L 519.367188 257.632812 C 519.367188 257.632812 519.367188 257.632812 520.101562 257.632812 C 520.410156 257.570312 520.730469 257.570312 521.039062 257.632812 L 521.90625 258.097656 C 522.242188 258.097656 522.441406 258.5 522.375 258.632812 C 522.113281 259.917969 521.664062 261.15625 521.039062 262.3125 C 520.160156 263.625 518.996094 264.722656 517.628906 265.519531 C 516.230469 266.453125 514.65625 267.101562 513.003906 267.421875 C 511.351562 267.742188 509.652344 267.734375 508.003906 267.390625 C 506.308594 267.105469 504.691406 266.460938 503.265625 265.507812 C 501.835938 264.550781 500.625 263.300781 499.714844 261.84375 C 498.464844 260.003906 497.628906 257.914062 497.269531 255.722656 C 496.914062 253.527344 497.039062 251.28125 497.640625 249.140625 C 499.027344 244.242188 502.265625 240.070312 506.664062 237.511719 C 508.605469 236.066406 510.828125 235.042969 513.191406 234.515625 C 515.550781 233.984375 517.996094 233.957031 520.371094 234.433594 C 524.847656 235.5625 528.722656 238.359375 531.199219 242.257812 Z M 531.199219 242.257812 " fill-opacity="1" fill-rule="nonzero"/><path fill="#f20017" d="M 489.6875 393.867188 L 478.65625 433.109375 L 478.1875 449.820312 L 464.820312 463.191406 L 438.347656 478.964844 L 430.390625 470.277344 L 384.402344 468.539062 C 381.925781 470.410156 374.910156 475.824219 374.910156 476.160156 C 365.082031 472.882812 340.480469 453.695312 340.480469 453.695312 L 337.875 430.632812 L 327.578125 388.050781 L 317.152344 376.285156 L 328.714844 340.992188 L 348.234375 335.242188 L 378.050781 314.183594 L 390.015625 300.28125 L 422.304688 299.679688 L 436.140625 314.855469 L 470.96875 337.714844 L 489.621094 346.339844 L 499.914062 380.832031 Z M 477.386719 432.707031 L 488.417969 393.601562 L 471.972656 368.867188 L 435.671875 376.957031 L 425.578125 408.175781 L 446.035156 441.265625 Z M 346.832031 363.652344 L 380.257812 375.753906 L 406.996094 356.097656 L 407.664062 327.621094 L 378.851562 314.855469 L 348.769531 336.246094 Z M 380.589844 377.023438 L 346.363281 364.722656 L 328.714844 387.71875 L 338.675781 429.765625 L 368.222656 437.652344 L 390.351562 407.503906 Z M 444.964844 441.730469 L 424.441406 408.308594 L 391.019531 408.308594 L 368.824219 438.855469 L 384.601562 467.402344 L 430.390625 469.140625 Z M 435.671875 375.683594 L 471.101562 367.730469 L 469.964844 338.585938 L 434.9375 315.65625 L 409.402344 327.820312 L 408.933594 356.03125 Z M 435.671875 375.683594 " fill-opacity="1" fill-rule="evenodd"/><path fill="#f20017" d="M 563.6875 225.679688 C 563.6875 227.082031 564.15625 229.085938 564.558594 231.761719 C 564.957031 234.433594 565.492188 236.574219 565.894531 238.445312 C 564.585938 238.964844 563.332031 239.617188 562.148438 240.382812 L 555.464844 244.730469 L 547.578125 250.011719 C 546.128906 250.9375 544.761719 251.988281 543.5 253.152344 C 543.5 253.152344 543.097656 253.152344 542.695312 253.152344 C 542.375 252.976562 542.097656 252.722656 541.894531 252.417969 C 541.875 252.308594 541.875 252.195312 541.894531 252.082031 C 541.894531 252.082031 541.894531 252.082031 541.894531 251.75 C 544.058594 246.550781 545.867188 241.214844 547.308594 235.773438 C 547.738281 234.339844 547.871094 232.839844 547.699219 231.355469 C 547.527344 229.875 547.054688 228.441406 546.308594 227.148438 C 545.9375 226.480469 545.425781 225.90625 544.804688 225.464844 C 544.179688 225.023438 543.46875 224.730469 542.71875 224.601562 C 541.96875 224.472656 541.195312 224.515625 540.464844 224.722656 C 539.730469 224.933594 539.054688 225.304688 538.484375 225.8125 C 537.105469 226.625 536.0625 227.90625 535.546875 229.421875 C 535.046875 230.972656 534.667969 232.558594 534.410156 234.167969 C 534.410156 234.167969 534.410156 234.167969 533.738281 234.570312 L 532.738281 234.570312 C 532.449219 234.625 532.15625 234.625 531.867188 234.570312 C 531.867188 234.570312 531.332031 234.570312 531.265625 234.101562 C 531.195312 230.605469 531.714844 227.125 532.804688 223.804688 C 533.941406 220.664062 536.109375 218.003906 538.953125 216.253906 C 541.476562 214.40625 544.617188 213.617188 547.710938 214.046875 C 549.070312 214.226562 550.375 214.703125 551.53125 215.441406 C 552.683594 216.179688 553.664062 217.164062 554.394531 218.324219 C 555.21875 219.636719 555.757812 221.101562 555.976562 222.636719 C 556.195312 224.167969 556.089844 225.726562 555.667969 227.214844 C 554.253906 231.890625 551.988281 236.265625 548.980469 240.117188 L 557.871094 233.898438 C 558.917969 233.164062 559.730469 232.144531 560.210938 230.957031 C 560.582031 229.609375 560.742188 228.210938 560.679688 226.8125 C 560.679688 226.8125 560.679688 226.480469 561.214844 226.210938 C 561.492188 226.023438 561.816406 225.910156 562.148438 225.878906 L 563.152344 225.878906 C 563.488281 225.410156 563.6875 225.476562 563.6875 225.679688 Z M 563.6875 225.679688 " fill-opacity="1" fill-rule="nonzero"/><path fill="#f20017" d="M 489.6875 393.867188 L 478.65625 433.109375 L 478.1875 449.820312 L 464.820312 463.191406 L 438.347656 478.964844 L 430.390625 470.277344 L 384.402344 468.539062 C 381.925781 470.410156 374.910156 475.824219 374.910156 476.160156 C 365.082031 472.882812 340.480469 453.695312 340.480469 453.695312 L 337.875 430.632812 L 327.578125 388.050781 L 317.152344 376.285156 L 328.714844 340.992188 L 348.234375 335.242188 L 378.050781 314.183594 L 390.015625 300.28125 L 422.304688 299.679688 L 436.140625 314.855469 L 470.96875 337.714844 L 489.621094 346.339844 L 499.914062 380.832031 Z M 477.386719 432.707031 L 488.417969 393.601562 L 471.972656 368.867188 L 435.671875 376.957031 L 425.578125 408.175781 L 446.035156 441.265625 Z M 346.832031 363.652344 L 380.257812 375.753906 L 406.996094 356.097656 L 407.664062 327.621094 L 378.851562 314.855469 L 348.769531 336.246094 Z M 380.589844 377.023438 L 346.363281 364.722656 L 328.714844 387.71875 L 338.675781 429.765625 L 368.222656 437.652344 L 390.351562 407.503906 Z M 444.964844 441.730469 L 424.441406 408.308594 L 391.019531 408.308594 L 368.824219 438.855469 L 384.601562 467.402344 L 430.390625 469.140625 Z M 435.671875 375.683594 L 471.101562 367.730469 L 469.964844 338.585938 L 434.9375 315.65625 L 409.402344 327.820312 L 408.933594 356.03125 Z M 435.671875 375.683594 " fill-opacity="1" fill-rule="evenodd"/><path fill="#f20017" d="M 596.109375 216.453125 C 597.285156 218.460938 597.96875 220.722656 598.09375 223.050781 C 598.222656 225.375 597.792969 227.695312 596.84375 229.824219 C 594.949219 235.023438 591.40625 239.460938 586.75 242.457031 C 584.796875 243.917969 582.488281 244.84375 580.066406 245.132812 C 579.183594 245.226562 578.292969 245.078125 577.492188 244.703125 C 576.691406 244.324219 576.007812 243.730469 575.519531 242.992188 C 575.167969 242.453125 574.933594 241.851562 574.832031 241.214844 C 574.726562 240.582031 574.757812 239.9375 574.917969 239.316406 C 575.273438 237.972656 576.136719 236.824219 577.324219 236.105469 C 577.753906 235.773438 578.257812 235.542969 578.789062 235.4375 C 579.324219 235.335938 579.875 235.355469 580.398438 235.503906 C 581.320312 235.777344 582.199219 236.183594 583.007812 236.707031 C 583.757812 237.183594 584.539062 237.609375 585.347656 237.976562 C 585.660156 238.160156 586.019531 238.253906 586.382812 238.253906 C 586.746094 238.253906 587.105469 238.160156 587.417969 237.976562 C 588.367188 237.386719 589.136719 236.539062 589.632812 235.535156 C 590.128906 234.53125 590.332031 233.410156 590.226562 232.296875 C 589.855469 229.070312 588.632812 226.003906 586.683594 223.40625 C 585.652344 221.707031 584.199219 220.304688 582.472656 219.328125 C 581.644531 218.902344 580.710938 218.726562 579.785156 218.824219 C 578.859375 218.917969 577.980469 219.277344 577.257812 219.863281 C 576.441406 220.355469 575.71875 220.992188 575.117188 221.734375 C 574.632812 222.429688 574.207031 223.167969 573.847656 223.941406 C 573.847656 223.941406 573.847656 223.941406 573.179688 223.941406 C 572.828125 224.003906 572.464844 224.003906 572.109375 223.941406 C 571.832031 223.78125 571.585938 223.578125 571.375 223.339844 C 571.375 223.339844 571.042969 222.871094 571.375 222.667969 C 573.039062 220.039062 574.089844 217.070312 574.449219 213.980469 C 574.835938 211.6875 574.4375 209.332031 573.3125 207.292969 C 572.644531 206.1875 571.601562 205.359375 570.371094 204.953125 C 569.734375 204.785156 569.066406 204.761719 568.417969 204.890625 C 567.765625 205.015625 567.15625 205.292969 566.628906 205.691406 C 565.472656 206.40625 564.566406 207.453125 564.023438 208.699219 C 563.429688 210.160156 563.003906 211.6875 562.753906 213.242188 C 562.671875 213.351562 562.574219 213.445312 562.457031 213.511719 C 562.34375 213.582031 562.214844 213.625 562.082031 213.644531 C 561.753906 213.722656 561.410156 213.722656 561.082031 213.644531 L 560.210938 213.644531 C 559.996094 213.570312 559.808594 213.429688 559.675781 213.242188 C 559.765625 209.972656 560.492188 206.746094 561.816406 203.75 C 562.972656 201.03125 564.902344 198.707031 567.363281 197.066406 C 568.574219 196.1875 569.953125 195.5625 571.410156 195.230469 C 572.871094 194.898438 574.382812 194.863281 575.855469 195.128906 C 577.101562 195.308594 578.300781 195.746094 579.371094 196.414062 C 580.441406 197.082031 581.359375 197.964844 582.070312 199.003906 C 582.753906 199.964844 583.242188 201.046875 583.503906 202.195312 C 583.769531 203.339844 583.804688 204.53125 583.609375 205.691406 C 582.835938 208.597656 581.417969 211.292969 579.464844 213.578125 C 582.390625 211.625 585.96875 210.90625 589.425781 211.574219 C 592.179688 212.320312 594.558594 214.058594 596.109375 216.453125 Z M 596.109375 216.453125 " fill-opacity="1" fill-rule="nonzero"/></svg>