<?xml version="1.0" encoding="utf-8"?>
<!-- Generator: Adobe Illustrator 23.0.3, SVG Export Plug-In . SVG Version: 6.00 Build 0)  -->
<svg version="1.1" id="Layer_1" xmlns="http://www.w3.org/2000/svg" xmlns:xlink="http://www.w3.org/1999/xlink" x="0px" y="0px"
	 viewBox="0 0 174.84 365.25" style="enable-background:new 0 0 174.84 365.25;" xml:space="preserve">
<style type="text/css">
	.st0{fill:url(#XMLID_2_);}
	.st1{fill:url(#XMLID_3_);}
	.st2{fill:url(#XMLID_4_);}
	.st3{fill:url(#XMLID_5_);}
	.st4{fill:url(#XMLID_6_);}
	.st5{fill:url(#XMLID_7_);}
	.st6{fill:url(#XMLID_9_);}
	.st7{fill:url(#XMLID_15_);}
	.st8{fill:url(#XMLID_17_);}
	.st9{fill:url(#XMLID_18_);}
	.st10{fill:none;stroke:#FFFFFF;stroke-width:0.4973;stroke-miterlimit:10;}
	.st11{fill:url(#XMLID_19_);}
	.st12{fill:url(#XMLID_20_);}
	.st13{fill:url(#XMLID_21_);}
	.st14{fill:url(#XMLID_22_);}
	.st15{fill:url(#XMLID_23_);}
	.st16{fill:url(#XMLID_24_);}
	.st17{fill:url(#XMLID_25_);}
	.st18{fill:#FFFFFF;}
	.st19{fill:url(#XMLID_26_);}
	.st20{fill:url(#XMLID_27_);}
	.st21{fill:url(#XMLID_30_);}
	.st22{fill:url(#XMLID_42_);}
	.st23{fill:url(#XMLID_43_);}
	.st24{fill:url(#XMLID_44_);}
	.st25{fill:url(#XMLID_45_);}
	.st26{fill:url(#XMLID_46_);}
	.st27{fill:url(#XMLID_47_);}
	.st28{fill:url(#XMLID_48_);}
	.st29{fill:#006CB7;}
	.st30{fill:#FFCD00;}
</style>
<g>
	
		<linearGradient id="XMLID_2_" gradientUnits="userSpaceOnUse" x1="-386.6527" y1="165.6594" x2="-423.1987" y2="41.8088" gradientTransform="matrix(-1 0 0 1 -261.4258 0)">
		<stop  offset="0.29" style="stop-color:#FFE700"/>
		<stop  offset="0.6981" style="stop-color:#FFCE00"/>
		<stop  offset="0.7065" style="stop-color:#FDCA00"/>
		<stop  offset="0.7825" style="stop-color:#EFAE00"/>
		<stop  offset="0.8577" style="stop-color:#E49A00"/>
		<stop  offset="0.9309" style="stop-color:#DE8E00"/>
		<stop  offset="1" style="stop-color:#DC8A00"/>
	</linearGradient>
	<path id="XMLID_211_" class="st0" d="M137.54,58.73c0.99-0.89,9.62-8.59,15.46-10.99c0.13-0.05,0.26-0.08,0.4-0.1
		c0.52-0.05,1.84-0.18,2.29-0.18c2.4,0,3.21,2.34,3.21,4.74l0.02,0.8c0,0-19.42,7.53-23.37,84.28c-0.03,0.56,0.34,0.97,0.77,1.33
		c2.61,2.12,6.2,6.85,12.69,17.33c0.46,0.75-17.81-12.34-26.7-14.88c-0.65-0.19-1.08-0.79-1.01-1.47
		c0.89-9.23,7.02-69.26,16.09-80.67C137.42,58.84,137.48,58.79,137.54,58.73z"/>
	<g id="XMLID_195_">
		<radialGradient id="XMLID_3_" cx="162.0262" cy="218.5653" r="36.5985" gradientUnits="userSpaceOnUse">
			<stop  offset="0.029" style="stop-color:#DC8A00"/>
			<stop  offset="0.1129" style="stop-color:#DE8E00"/>
			<stop  offset="0.2019" style="stop-color:#E49A00"/>
			<stop  offset="0.2933" style="stop-color:#EFAE00"/>
			<stop  offset="0.3858" style="stop-color:#FDCA00"/>
			<stop  offset="0.396" style="stop-color:#FFCE00"/>
			<stop  offset="0.71" style="stop-color:#FFE700"/>
		</radialGradient>
		<path id="XMLID_209_" class="st1" d="M121.52,139.21c-0.53-0.37-0.55,2.37-0.15,2.88c7.02,8.87,12.8,14.09,17.83,22.63l0.01,0
			c0.2,0.31,4.72,7.55,8.13,19.71c1.74,5.97,3.41,13.14,5.03,21.98c0.47,2.58-0.45,3.31-2.41,3.55c-3.39,0.4-11.2,1.02-19.76,1.42
			c0.02,0.8,0.02,2.04-0.08,3.59c8.08,0.61,21.02,0.96,21.02,0.96c2.65,0.12,3.77,0,3.77,0s2.28,0.08,4.03-2.07
			c1.23-1.52,1.23-3.15,1.23-3.15C160.6,169.11,130.18,145.24,121.52,139.21z"/>
	</g>
	<g id="XMLID_171_">
		<radialGradient id="XMLID_4_" cx="9.923" cy="220.0152" r="38.583" gradientUnits="userSpaceOnUse">
			<stop  offset="0.175" style="stop-color:#DC8A00"/>
			<stop  offset="0.2385" style="stop-color:#DE8E00"/>
			<stop  offset="0.306" style="stop-color:#E49A00"/>
			<stop  offset="0.3752" style="stop-color:#EFAE00"/>
			<stop  offset="0.4452" style="stop-color:#FDCA00"/>
			<stop  offset="0.4529" style="stop-color:#FFCE00"/>
			<stop  offset="0.71" style="stop-color:#FFE700"/>
		</radialGradient>
		<path id="XMLID_192_" class="st2" d="M44.22,211.38c-8.46-0.4-15.58-1.03-19.02-1.44c-1.96-0.23-2.89-0.97-2.41-3.55
			c1.85-10.08,3.76-17.99,5.77-24.42c3.05-9.9,6.47-15.72,6.98-16.56c5.13-8.96,11.03-14.22,18.25-23.34
			c0.4-0.51,0.38-3.24-0.15-2.88c-8.66,6.03-39.08,29.9-38.66,71.48c0,0,0,1.63,1.23,3.15c1.74,2.15,4.03,2.07,4.03,2.07
			s1.12,0.12,3.77,0c0,0,12.52-0.36,20.3-0.99C44.2,213.29,44.21,212.04,44.22,211.38z"/>
		<radialGradient id="XMLID_5_" cx="48.1978" cy="214.6743" r="0.2017" gradientUnits="userSpaceOnUse">
			<stop  offset="0.175" style="stop-color:#DC8A00"/>
			<stop  offset="0.2385" style="stop-color:#DE8E00"/>
			<stop  offset="0.306" style="stop-color:#E49A00"/>
			<stop  offset="0.3752" style="stop-color:#EFAE00"/>
			<stop  offset="0.4452" style="stop-color:#FDCA00"/>
			<stop  offset="0.4529" style="stop-color:#FFCE00"/>
			<stop  offset="0.71" style="stop-color:#FFE700"/>
		</radialGradient>
		<path id="XMLID_172_" class="st3" d="M48.29,212.23c0-0.23,0.01-0.45,0.02-0.67c-0.03,0-0.06,0-0.09,0
			c-0.01,0.56,0,1.61,0.09,2.97c0.02,0,0.04-0.01,0.06-0.01C48.33,213.75,48.29,213,48.29,212.23z"/>
	</g>
	<linearGradient id="XMLID_6_" gradientUnits="userSpaceOnUse" x1="52.1221" y1="187.6438" x2="1.2456" y2="147.3116">
		<stop  offset="0" style="stop-color:#FFE700"/>
		<stop  offset="0.6367" style="stop-color:#FFCE00"/>
		<stop  offset="0.6468" style="stop-color:#FDCA00"/>
		<stop  offset="0.7383" style="stop-color:#EFAE00"/>
		<stop  offset="0.8288" style="stop-color:#E49A00"/>
		<stop  offset="0.9169" style="stop-color:#DE8E00"/>
		<stop  offset="1" style="stop-color:#DC8A00"/>
	</linearGradient>
	<path id="XMLID_168_" class="st4" d="M35.28,175.09c9.02,4.69,16.29,6.04,16.29,6.04c0.59,0.07,1.15,0.14,1.72,0.22
		c-1.57,3.49-3.56,8.1-5.01,12.04c-6.4-2.2-11.9-4.84-16.62-7.77C32.83,181.44,34.12,177.9,35.28,175.09z M15.3,159.23
		c-5.25-6.32-9.71-14.37-12.14-24.59c0,0-1.25,15.25,8.36,31.03C12.74,163.41,14.04,161.23,15.3,159.23z"/>
	<linearGradient id="XMLID_7_" gradientUnits="userSpaceOnUse" x1="174.1055" y1="147.2316" x2="124.4148" y2="186.616">
		<stop  offset="0" style="stop-color:#DC8A00"/>
		<stop  offset="0.0691" style="stop-color:#DE8E00"/>
		<stop  offset="0.1423" style="stop-color:#E49A00"/>
		<stop  offset="0.2175" style="stop-color:#EFAE00"/>
		<stop  offset="0.2935" style="stop-color:#FDCA00"/>
		<stop  offset="0.3019" style="stop-color:#FFCE00"/>
		<stop  offset="1" style="stop-color:#FFE700"/>
	</linearGradient>
	<path id="XMLID_160_" class="st5" d="M121.78,181.37c0.63-0.08,1.26-0.17,1.91-0.24c0,0,7.24-1.34,16.23-6
		c1.19,2.86,2.47,6.41,3.62,10.53c-4.74,2.93-10.25,5.58-16.68,7.78l-0.19,0.04C125.2,189.41,123.3,184.87,121.78,181.37z
		 M163.75,165.64c9.59-15.77,8.34-31,8.34-31c-2.43,10.21-6.88,18.25-12.12,24.57C161.26,161.23,162.56,163.42,163.75,165.64z"/>
	<linearGradient id="XMLID_9_" gradientUnits="userSpaceOnUse" x1="147.1168" y1="92.3322" x2="172.1188" y2="92.3322">
		<stop  offset="0" style="stop-color:#00487C"/>
		<stop  offset="1" style="stop-color:#006CB7"/>
	</linearGradient>
	<path id="XMLID_158_" class="st6" d="M172.21,25.7V24.4c0,0-24.85,13.24-35.37,35.38c0,0,9.36-8.22,15.56-10.67
		c0,0,0.99-0.29,1.55-0.29c2.4,0,4.34,1.94,4.34,4.34c0,0-0.23,81.09-0.48,83.59c-1.5,4.48-3.24,8.46-5.12,12.03
		c1.03,1.34,4.5,5.93,7.95,11.49c4.61-5.66,8.5-12.74,10.78-21.59c0.55-2.15,0.8-4.36,0.8-6.58L172.21,25.7z"/>
	
		<linearGradient id="XMLID_15_" gradientUnits="userSpaceOnUse" x1="-420.4198" y1="52.341" x2="-438.7787" y2="18.8107" gradientTransform="matrix(-1 0 0 1 -262.071 0)">
		<stop  offset="0" style="stop-color:#006CB7"/>
		<stop  offset="0.814" style="stop-color:#00487C"/>
	</linearGradient>
	<path id="XMLID_157_" class="st7" d="M134.5,64.23c3.21-8.05,9.99-22.02,21.07-32c1.24-1.12,2.37-2.09,3.43-2.97
		c0.67-0.6,1.54-1.28,2.52-1.99c2.05-1.54,3.71-2.59,5.05-3.26c1.8-1.01,3.44-1.76,4.44-1.89c1.41-0.18,1.21,1.23,1.21,2.63
		c0,0.03-0.01,14.21-0.01,14.21l0.08,21.22c0,0-6.26-13.78-13.97-12.95c-9.67,1.04-15.75,9.75-15.75,9.75l-5.95,7.49
		C135.57,65.6,133.93,65.66,134.5,64.23z"/>
	<linearGradient id="XMLID_17_" gradientUnits="userSpaceOnUse" x1="50.0303" y1="165.6594" x2="13.4842" y2="41.8088">
		<stop  offset="0.29" style="stop-color:#FFE700"/>
		<stop  offset="0.6981" style="stop-color:#FFCE00"/>
		<stop  offset="0.7065" style="stop-color:#FDCA00"/>
		<stop  offset="0.7825" style="stop-color:#EFAE00"/>
		<stop  offset="0.8577" style="stop-color:#E49A00"/>
		<stop  offset="0.9309" style="stop-color:#DE8E00"/>
		<stop  offset="1" style="stop-color:#DC8A00"/>
	</linearGradient>
	<path id="XMLID_153_" class="st8" d="M37.72,58.73c-0.99-0.89-9.62-8.59-15.46-10.99c-0.13-0.05-0.26-0.08-0.4-0.1
		c-0.52-0.05-1.84-0.18-2.29-0.18c-2.4,0-3.21,2.34-3.21,4.74l-0.02,0.8c0,0,19.42,7.53,23.37,84.28c0.03,0.56-0.34,0.97-0.77,1.33
		c-2.61,2.12-6.2,6.85-12.69,17.33c-0.46,0.75,17.81-12.34,26.7-14.88c0.65-0.19,1.08-0.79,1.01-1.47
		c-0.89-9.23-7.02-69.26-16.09-80.67C37.83,58.84,37.78,58.79,37.72,58.73z"/>
	<radialGradient id="XMLID_18_" cx="86.9063" cy="162.8454" r="25.7577" gradientUnits="userSpaceOnUse">
		<stop  offset="0.401" style="stop-color:#FFCE00"/>
		<stop  offset="0.4176" style="stop-color:#FDCA00"/>
		<stop  offset="0.5685" style="stop-color:#EFAE00"/>
		<stop  offset="0.7177" style="stop-color:#E49A00"/>
		<stop  offset="0.863" style="stop-color:#DE8E00"/>
		<stop  offset="1" style="stop-color:#DC8A00"/>
	</radialGradient>
	<path id="XMLID_142_" class="st9" d="M87.61,143.86c0.04-0.26-7.88,17.72-14.55,32.18c4.37-1.67,9.31-2.69,14.27-2.69
		c5.1,0,10.06,0.96,14.54,2.72L87.61,143.86z M87.61,169.93c-2.96,0-8.32,1.03-8.32,1.03l8.3-19.28l8.4,19.3
		C95.98,170.97,90.58,169.93,87.61,169.93z"/>
	<path id="XMLID_141_" class="st10" d="M53.79,140.88"/>
	
		<linearGradient id="XMLID_19_" gradientUnits="userSpaceOnUse" x1="-1201.3577" y1="173.0621" x2="-1041.0969" y2="152.105" gradientTransform="matrix(1 0 0 1 1120.993 0)">
		<stop  offset="0.29" style="stop-color:#FFE700"/>
		<stop  offset="0.6981" style="stop-color:#FFCE00"/>
		<stop  offset="0.7065" style="stop-color:#FDCA00"/>
		<stop  offset="0.7825" style="stop-color:#EFAE00"/>
		<stop  offset="0.8577" style="stop-color:#E49A00"/>
		<stop  offset="0.9309" style="stop-color:#DE8E00"/>
		<stop  offset="1" style="stop-color:#DC8A00"/>
	</linearGradient>
	<path id="XMLID_139_" class="st11" d="M7.6,185.9c2.5-10,15.63-42.88,43.82-54.43c0.91-0.37,1.8,0.05,1.78,0.71l0.71,6.97
		c0.08,0.84-0.32,2.96-1.14,3.15c-3.31,0.77-15.45,6.88-24.4,13.25C26.86,156.64,7.15,187.72,7.6,185.9z"/>
	
		<linearGradient id="XMLID_20_" gradientUnits="userSpaceOnUse" x1="-1638.3641" y1="173.0621" x2="-1478.1034" y2="152.105" gradientTransform="matrix(-1 0 0 1 -1382.7522 0)">
		<stop  offset="0.29" style="stop-color:#FFE700"/>
		<stop  offset="0.6981" style="stop-color:#FFCE00"/>
		<stop  offset="0.7065" style="stop-color:#FDCA00"/>
		<stop  offset="0.7825" style="stop-color:#EFAE00"/>
		<stop  offset="0.8577" style="stop-color:#E49A00"/>
		<stop  offset="0.9309" style="stop-color:#DE8E00"/>
		<stop  offset="1" style="stop-color:#DC8A00"/>
	</linearGradient>
	<path id="XMLID_73_" class="st12" d="M167.64,185.9c-2.5-10-15.63-42.88-43.82-54.43c-0.91-0.37-1.8,0.05-1.78,0.71l-0.71,6.97
		c-0.08,0.84,0.32,2.96,1.14,3.15c3.31,0.77,15.45,6.88,24.4,13.25C148.39,156.64,168.1,187.72,167.64,185.9z"/>
	<linearGradient id="XMLID_21_" gradientUnits="userSpaceOnUse" x1="94.1352" y1="185.9837" x2="94.1352" y2="185.9837">
		<stop  offset="0" style="stop-color:#006CB7"/>
		<stop  offset="0.814" style="stop-color:#00487C"/>
	</linearGradient>
	<path id="XMLID_72_" class="st13" d="M94.14,185.98"/>
	<linearGradient id="XMLID_22_" gradientUnits="userSpaceOnUse" x1="62.4934" y1="101.337" x2="131.3056" y2="91.3732">
		<stop  offset="0" style="stop-color:#006CB7"/>
		<stop  offset="0.814" style="stop-color:#00487C"/>
	</linearGradient>
	<path id="XMLID_69_" class="st14" d="M73.23,175.91c5.99-12.58,12.5-27.51,12.59-27.71l1.75-4.01l0.02,0.04V2.21
		c-0.14,0.11-0.23,0.18-0.3,0.26C87.05,2.74,86.82,3,86.6,3.27c-6.66,8.27-9.88,17.72-9.6,28.34c0.16,6.15,0.4,12.3,0.8,18.44
		c0.36,5.52,0.7,11.03,1.05,16.55c0.35,5.52,0.75,11.03,1.06,16.55c0.33,5.91,0.49,11.83,0.61,17.74c0.18,8.96-0.75,17.8-2.56,26.56
		c-1.67,8.05-4.02,15.9-6.75,23.65c-1.52,4.33-3.01,8.68-4.9,12.86c-2.02,4.49-4.35,8.83-6.66,13.18
		c-2.06,4.15-6.29,13.07-8.87,21.38C54.69,188.15,62.9,179.89,73.23,175.91z"/>
	<linearGradient id="XMLID_23_" gradientUnits="userSpaceOnUse" x1="105.7644" y1="106.6915" x2="51.6261" y2="165.6689">
		<stop  offset="0" style="stop-color:#006CB7"/>
		<stop  offset="0.814" style="stop-color:#00487C"/>
	</linearGradient>
	<path id="XMLID_68_" class="st15" d="M123.19,197.39c1.49,3.61,2.45,7.5,2.79,11.56c0.05-0.23,0.06-0.48,0.05-0.79
		c-0.45-11.3-11.87-33.76-11.95-33.9h0c-1.02-1.95-2.03-3.9-3.04-5.85c-0.8-1.56-1.65-3.1-2.3-4.72
		c-4.15-10.37-7.9-20.88-10.51-31.76c-2.27-9.5-3.63-19.11-3.58-28.89c0.02-3.54,0.12-7.09,0.23-10.63
		c0.2-6.58,0.61-13.15,1.03-19.71c0.4-6.37,0.88-12.74,1.29-19.11c0.38-5.95,0.7-11.89,0.88-17.85c0.1-3.31,0.25-6.61-0.1-9.92
		c-0.92-8.7-4.23-16.36-9.82-23.05c-0.15-0.18-0.56-0.55-0.58-0.54v142.01l14.23,31.92C111.48,180.07,119.21,187.75,123.19,197.39z"
		/>
	<g id="XMLID_64_">
		<radialGradient id="XMLID_24_" cx="87.2118" cy="212.2288" r="38.9947" gradientUnits="userSpaceOnUse">
			<stop  offset="0" style="stop-color:#006CB7"/>
			<stop  offset="1" style="stop-color:#00487C"/>
		</radialGradient>
		<path id="XMLID_67_" class="st16" d="M123.26,197.36c-5.85-14.16-19.78-24.13-36.05-24.13c-21.54,0-38.99,17.46-38.99,38.99
			c0,9.57,3.46,18.34,9.18,25.12c7.15,8.48,17.85,13.87,29.81,13.87c21.54,0,38.99-17.46,38.99-38.99
			C126.21,206.96,125.16,201.94,123.26,197.36z"/>
		<radialGradient id="XMLID_25_" cx="49.475" cy="221.7329" r="55.5938" gradientUnits="userSpaceOnUse">
			<stop  offset="0" style="stop-color:#006CB7"/>
			<stop  offset="0.5548" style="stop-color:#005897"/>
			<stop  offset="1" style="stop-color:#00487C"/>
		</radialGradient>
		<path id="XMLID_65_" class="st17" d="M87.21,251.22c21.54,0,38.99-17.46,38.99-38.99c0-5.27-1.05-10.29-2.94-14.87l-0.16-0.18
			c0,0,3.41,41.37-28.77,46.22c0,0-34.53,4.41-34.24-29.39c0,0,0.2-13.52,8-20.72c5.23-4.62,12.15-7.43,19.75-7.43
			c11.16,0,20.86,6.06,25.88,15c-3.13-11.91-14.69-20.76-28.47-20.76c-10.44,0-19.6,5.08-24.8,12.72l-0.01,0
			c0,0-14.61,18.08-3.05,44.52C64.55,245.83,75.25,251.22,87.21,251.22z"/>
	</g>
	<circle id="XMLID_63_" class="st18" cx="87.21" cy="212.25" r="27.13"/>
	<linearGradient id="XMLID_26_" gradientUnits="userSpaceOnUse" x1="65.1586" y1="211.8465" x2="109.265" y2="211.8465">
		<stop  offset="0" style="stop-color:#006CB7"/>
		<stop  offset="0.814" style="stop-color:#00487C"/>
	</linearGradient>
	<path id="XMLID_38_" class="st19" d="M79.52,233.23c-3.69-1.38-6.92-3.71-9.37-6.7l0.72-4.29l8.04,1.83l4.52,6.9L79.52,233.23
		L79.52,233.23z M87.01,190.46c0.18,0,0.36,0,0.54,0l0.06,0c0.16,0,0.33,0.01,0.49,0.01l0.04,0l0.01,0
		c0.16,0.01,0.32,0.02,0.48,0.03l0.15,0.01c0.13,0.01,0.25,0.02,0.38,0.03l0.2,0.02c0.13,0.01,0.27,0.03,0.4,0.04l0.14,0.02
		l0.3,0.04c0.14,0.02,0.27,0.04,0.41,0.06l0.11,0.02l0.26,0.04l0.08,0.01l0.02,0l0.14,0.03h0l0.08,0.01l0.01,0
		c0.1,0.02,0.19,0.04,0.29,0.06l0.26,0.06l0.08,0.02l0.12,0.03l0.2,0.05l2.44,5.05l-7.62,3.16l-7.68-3.01l2.34-5.09l0.2-0.05
		l0.12-0.03l0.08-0.02l0.26-0.06l0.29-0.06l0.01,0l0.08-0.02h0l0.14-0.03l0.02,0l0.08-0.02l0.26-0.05l0.11-0.02
		c0.13-0.02,0.27-0.05,0.4-0.07l0.3-0.04l0.14-0.02c0.13-0.02,0.27-0.03,0.4-0.05l0.2-0.02c0.13-0.01,0.25-0.03,0.38-0.04l0.15-0.01
		c0.16-0.01,0.32-0.03,0.48-0.04l0.01,0l0.04,0c0.16-0.01,0.33-0.02,0.49-0.02l0.06,0C86.65,190.47,86.83,190.46,87.01,190.46
		L87.01,190.46z M65.16,211.73c0.14-3.86,1.27-7.47,3.15-10.58l5.12-0.65l0.57,8.23l-5.31,6.32L65.16,211.73L65.16,211.73z
		 M87.14,204.35L87.14,204.35L87.14,204.35l4.16,2.96l4.16,2.96l-1.53,4.88l-1.53,4.88l-5.11,0.05h0l0,0l-5.11,0.05l-1.63-4.85
		l-1.63-4.84l4.11-3.04L87.14,204.35L87.14,204.35z M105.91,200.78c1.94,3.07,3.14,6.66,3.35,10.52l-3.46,3.39l-5.43-6.21l0.41-8.24
		L105.91,200.78L105.91,200.78z M104.56,226.2c-2.4,3.04-5.58,5.44-9.24,6.88l-3.96-2.18l4.39-6.99l8.01-1.99L104.56,226.2
		L104.56,226.2z"/>
	<linearGradient id="XMLID_27_" gradientUnits="userSpaceOnUse" x1="86.7205" y1="183.6785" x2="86.7205" y2="241.4235">
		<stop  offset="0.29" style="stop-color:#FFE700"/>
		<stop  offset="0.6981" style="stop-color:#FFCE00"/>
		<stop  offset="0.7065" style="stop-color:#FDCA00"/>
		<stop  offset="0.7825" style="stop-color:#EFAE00"/>
		<stop  offset="0.8577" style="stop-color:#E49A00"/>
		<stop  offset="0.9309" style="stop-color:#DE8E00"/>
		<stop  offset="1" style="stop-color:#DC8A00"/>
	</linearGradient>
	<path id="XMLID_35_" class="st20" d="M86.72,241.42c-15.92,0-28.87-12.95-28.87-28.87c0-15.92,12.95-28.87,28.87-28.87
		s28.87,12.95,28.87,28.87C115.59,228.47,102.64,241.42,86.72,241.42z M86.72,187.05c-14.06,0-25.5,11.44-25.5,25.5
		c0,14.06,11.44,25.5,25.5,25.5s25.5-11.44,25.5-25.5C112.22,198.49,100.78,187.05,86.72,187.05z"/>
	<g id="XMLID_33_">
		<linearGradient id="XMLID_30_" gradientUnits="userSpaceOnUse" x1="125.0723" y1="190.3584" x2="138.1552" y2="190.3584">
			<stop  offset="0.0283" style="stop-color:#00487C"/>
			<stop  offset="0.4573" style="stop-color:#00497D"/>
			<stop  offset="0.6118" style="stop-color:#004B81"/>
			<stop  offset="0.722" style="stop-color:#004F87"/>
			<stop  offset="0.811" style="stop-color:#005591"/>
			<stop  offset="0.8873" style="stop-color:#005C9D"/>
			<stop  offset="0.9536" style="stop-color:#0065AB"/>
			<stop  offset="1" style="stop-color:#006CB7"/>
		</linearGradient>
		<path id="XMLID_34_" class="st21" d="M139.28,187.24c-2.56,1.32-6.32,2.6-10.81,2.09c-1.19-0.13-2.35-0.23-3.5-0.31
			c0.6,1.51,1.18,3.03,1.71,4.49c4.59-1.32,9.29-3.15,12.91-5.66C139.89,187.64,139.61,187.07,139.28,187.24z"/>
	</g>
	<g id="XMLID_31_">
		<linearGradient id="XMLID_42_" gradientUnits="userSpaceOnUse" x1="3.0366" y1="92.3444" x2="38.4135" y2="92.3444">
			<stop  offset="0" style="stop-color:#006CB7"/>
			<stop  offset="0.814" style="stop-color:#00487C"/>
		</linearGradient>
		<path id="XMLID_32_" class="st22" d="M22.57,148.78c-1.88-3.57-3.62-7.55-5.12-12.02c-0.25-2.5-0.48-83.59-0.48-83.59
			c0-2.4,1.94-4.34,4.34-4.34c0.56,0,1.55,0.29,1.55,0.29c6.19,2.45,15.56,10.67,15.56,10.67C27.89,37.64,3.04,24.4,3.04,24.4v1.31
			L3.04,132.1c0,2.22,0.24,4.43,0.8,6.58c2.29,8.86,6.18,15.95,10.8,21.61C18.4,154.19,22.02,149.48,22.57,148.78z"/>
	</g>
	<g id="XMLID_28_">
		<linearGradient id="XMLID_43_" gradientUnits="userSpaceOnUse" x1="33.9907" y1="190.1541" x2="73.1237" y2="191.0355">
			<stop  offset="0" style="stop-color:#006CB7"/>
			<stop  offset="0.0464" style="stop-color:#0065AB"/>
			<stop  offset="0.1127" style="stop-color:#005C9D"/>
			<stop  offset="0.189" style="stop-color:#005591"/>
			<stop  offset="0.278" style="stop-color:#004F87"/>
			<stop  offset="0.3882" style="stop-color:#004B81"/>
			<stop  offset="0.5427" style="stop-color:#00497D"/>
			<stop  offset="0.9717" style="stop-color:#00487C"/>
		</linearGradient>
		<path id="XMLID_29_" class="st23" d="M49.98,189.03c-1.1,0.08-2.22,0.17-3.36,0.3c-4.49,0.51-8.25-0.77-10.81-2.09
			c-0.33-0.17-0.61,0.4-0.3,0.61c3.58,2.48,8.21,4.3,12.74,5.61C48.77,192.04,49.36,190.54,49.98,189.03z"/>
	</g>
	<g id="XMLID_14_">
		<linearGradient id="XMLID_44_" gradientUnits="userSpaceOnUse" x1="54.7661" y1="174.3799" x2="4.0511" y2="224.4276">
			<stop  offset="0" style="stop-color:#006CB7"/>
			<stop  offset="0.814" style="stop-color:#00487C"/>
		</linearGradient>
		<path id="XMLID_16_" class="st24" d="M44.28,214.28H20.16c-2.86,0.03-2.46-3.85-2.46-3.85c-0.01-0.7,1.32-18.94,13.14-40.66
			c5.37-9.87,12.56-19.78,22.68-27.86c0.85-0.68,0.45-2.53,0.37-3.2c-12.9,3.43-35.16,17.25-45.66,45.07
			c-3.76,9.97-6.02,21.74-5.8,35.48c0,0.08,0.01,0.16,0.01,0.24c0.26,5.04,5.56,8.96,9.55,8.96h35.36
			C45.12,223.16,44.46,217.69,44.28,214.28z"/>
	</g>
	<g id="XMLID_12_">
		<linearGradient id="XMLID_45_" gradientUnits="userSpaceOnUse" x1="170.335" y1="223.9634" x2="119.6072" y2="173.9391">
			<stop  offset="0.186" style="stop-color:#00487C"/>
			<stop  offset="1" style="stop-color:#006CB7"/>
		</linearGradient>
		<path id="XMLID_13_" class="st25" d="M167.03,183.79c-10.5-27.82-32.76-41.64-45.66-45.07c-0.08,0.67-0.48,2.52,0.37,3.2
			c10.12,8.08,17.3,17.99,22.68,27.86c11.82,21.72,13.15,39.96,13.14,40.66c0,0,0.4,3.88-2.46,3.85h-24.93
			c-0.17,3.44-0.85,8.72-3.12,14.19h36.22c3.99,0,9.29-3.92,9.55-8.96c0-0.08,0.01-0.16,0.01-0.24
			C173.05,205.53,170.79,193.76,167.03,183.79z"/>
	</g>
	<linearGradient id="XMLID_46_" gradientUnits="userSpaceOnUse" x1="16.9047" y1="52.341" x2="-1.4543" y2="18.8107">
		<stop  offset="0" style="stop-color:#006CB7"/>
		<stop  offset="0.814" style="stop-color:#00487C"/>
	</linearGradient>
	<path id="XMLID_11_" class="st26" d="M40.75,64.23c-3.21-8.05-9.99-22.02-21.07-32c-1.24-1.12-2.37-2.09-3.43-2.97
		c-0.67-0.6-1.54-1.28-2.52-1.99c-2.05-1.54-3.71-2.59-5.05-3.26c-1.8-1.01-3.44-1.76-4.44-1.89c-1.41-0.18-1.21,1.23-1.21,2.63
		c0,0.03,0.01,14.21,0.01,14.21L2.97,60.18c0,0,6.26-13.78,13.97-12.95c9.67,1.04,15.75,9.75,15.75,9.75l5.95,7.49
		C39.69,65.6,41.32,65.66,40.75,64.23z"/>
	<linearGradient id="XMLID_47_" gradientUnits="userSpaceOnUse" x1="34.2085" y1="176.1704" x2="55.192" y2="176.1704">
		<stop  offset="0" style="stop-color:#006CB7"/>
		<stop  offset="0.814" style="stop-color:#00487C"/>
	</linearGradient>
	<path id="XMLID_10_" class="st27" d="M38.47,168.35c-0.82,1.47-2.48,4.72-4.27,9.46c4.42,2.59,9.69,5.24,13.59,5.81
		c1.6,0.23,3.04,0.34,4.32,0.36c1.26-2.89,2.41-5.39,3.07-6.8C51.29,176.05,45.04,173.57,38.47,168.35z"/>
	<linearGradient id="XMLID_48_" gradientUnits="userSpaceOnUse" x1="126.0508" y1="176.1958" x2="140.9298" y2="176.1958">
		<stop  offset="0" style="stop-color:#00487C"/>
		<stop  offset="1" style="stop-color:#006CB7"/>
	</linearGradient>
	<path id="XMLID_8_" class="st28" d="M136.72,168.4c-6.62,5.24-12.9,7.71-16.79,8.83c0.7,1.55,1.79,3.99,2.97,6.76
		c1.33-0.02,2.85-0.12,4.55-0.37c3.89-0.57,9.13-3.19,13.54-5.77C139.31,173.4,137.68,170.16,136.72,168.4z"/>
</g>
<g>
	<g>
		<path class="st29" d="M17.99,278.09v-6.43c0-2.04-0.72-3.25-1.34-3.67v-0.05h6.03v0.05c-0.57,0.42-1.27,1.61-1.27,3.67v6.7
			c0,3.38,1.02,4.64,3.72,4.64c2.41,0,3.5-1.46,3.5-4.64v-6.7c0-2.04-0.72-3.25-1.27-3.67v-0.05h5.96v0.05
			c-0.65,0.42-1.34,1.61-1.34,3.67v6.43c0,5.04-2.33,7.52-7.13,7.52C20.45,285.61,17.99,283.16,17.99,278.09z"/>
		<path class="st29" d="M41.64,285.14v0.05h-5.96v-0.05c0.62-0.42,1.34-1.64,1.34-3.67v-9.91c0-1.96-0.7-3.15-1.34-3.57v-0.05h5.96
			v0.05c-0.57,0.42-1.22,1.64-1.22,3.67v9.83C40.43,283.53,41.07,284.72,41.64,285.14z M51.92,284.77v0.05l-4.99,0.84
			c-0.15-0.57-0.65-1.51-1.22-2.36l-5.01-7.45l4.2-5.93c0.62-0.89,0.84-1.51,0.82-1.99h5.16v0.05c-1.04,0.5-2.13,1.66-2.93,2.75
			l-3.5,4.74l4.72,6.9C50.01,283.63,50.7,284.27,51.92,284.77z"/>
		<path class="st29" d="M68.05,284.74v0.05l-5.09,0.92c-0.32-0.97-0.72-1.84-1.27-2.76l-3.85-6.58h1.19c2.13,0,3.33-0.87,3.33-3.08
			c0-1.81-1.19-2.95-3.33-2.93l-1.74,0.03v11.17c0,1.96,0.7,3.15,1.24,3.58v0.05h-5.98v-0.05c0.65-0.42,1.34-1.64,1.34-3.67v-9.91
			c0-1.96-0.7-3.15-1.34-3.57v-0.05h7.05c3.97,0,6.28,2.01,6.28,5.24c0,2.63-1.29,4.25-3.38,4.92l2.31,3.75
			C65.77,283.35,66.86,284.35,68.05,284.74z"/>
		<path class="st29" d="M85.9,285.14v0.05h-5.61v-0.05c0.42-0.32,0.62-1.34,0-3.05l-0.22-0.6h-6.41l-0.22,0.6
			c-0.65,1.71-0.4,2.73-0.05,3.05v0.05h-5.21v-0.05c0.67-0.6,1.74-2.11,2.41-4.02l3.55-10.23c0.5-1.46,0.02-2.51-0.45-2.9v-0.05
			h6.58v0.05c-0.47,0.42-0.97,1.44-0.45,2.9l3.65,10.23C84.14,283.03,85.2,284.57,85.9,285.14z M75.4,276.43l-0.92,2.63h4.77
			l-0.92-2.63c-0.57-1.61-1.19-3.28-1.44-5.19h-0.1C76.56,273.15,75.97,274.81,75.4,276.43z"/>
		<path class="st29" d="M86.91,285.14c0.62-0.42,1.34-1.64,1.34-3.67v-9.81c0-2.06-0.7-3.25-1.34-3.67v-0.05h6.11v0.05
			c-0.62,0.42-1.34,1.64-1.34,3.67v9.81c0,2.06,0.7,3.25,1.34,3.67v0.05h-6.11V285.14z"/>
		<path class="st29" d="M95.95,285.14c0.62-0.42,1.34-1.64,1.34-3.67v-9.93c0-1.34-0.42-2.93-1.34-3.55v-0.05h5.64
			c0.05,0.5,0.2,1.02,1.02,2.38l3.58,6.01c0.74,1.24,1.54,3,2.28,4.92h0.1c-0.35-1.99-0.4-3.72-0.4-5.11v-4.47
			c0-2.06-0.62-3.25-1.27-3.67v-0.05h5.73v0.05c-0.65,0.42-1.34,1.64-1.34,3.67v9.81c0,2.04,0.69,3.25,1.34,3.67v0.05h-5.24
			c-0.27-0.67-0.74-1.56-1.24-2.36l-3.5-5.69c-1.19-1.91-1.84-3.38-2.58-5.66h-0.1c0.4,2.36,0.45,3.97,0.45,5.76v4.22
			c0,2.06,0.62,3.25,1.27,3.67v0.05h-5.73V285.14z"/>
		<path class="st29" d="M115.56,285.14c0.62-0.42,1.34-1.64,1.34-3.67v-9.81c0-2.06-0.7-3.25-1.34-3.67v-0.05h6.11v0.05
			c-0.62,0.42-1.34,1.64-1.34,3.67v9.81c0,2.06,0.7,3.25,1.34,3.67v0.05h-6.11V285.14z"/>
		<path class="st29" d="M140.35,285.14v0.05h-5.61v-0.05c0.42-0.32,0.62-1.34,0-3.05l-0.22-0.6h-6.41l-0.22,0.6
			c-0.65,1.71-0.4,2.73-0.05,3.05v0.05h-5.21v-0.05c0.67-0.6,1.74-2.11,2.41-4.02l3.55-10.23c0.5-1.46,0.02-2.51-0.45-2.9v-0.05
			h6.58v0.05c-0.47,0.42-0.97,1.44-0.45,2.9l3.65,10.23C138.59,283.03,139.66,284.57,140.35,285.14z M129.85,276.43l-0.92,2.63h4.77
			l-0.92-2.63c-0.57-1.61-1.19-3.28-1.44-5.19h-0.1C131.02,273.15,130.42,274.81,129.85,276.43z"/>
		<path class="st29" d="M141.37,285.14c0.62-0.42,1.34-1.64,1.34-3.67v-9.93c0-1.34-0.42-2.93-1.34-3.55v-0.05H147
			c0.05,0.5,0.2,1.02,1.02,2.38l3.58,6.01c0.74,1.24,1.54,3,2.28,4.92h0.1c-0.35-1.99-0.4-3.72-0.4-5.11v-4.47
			c0-2.06-0.62-3.25-1.27-3.67v-0.05h5.73v0.05c-0.65,0.42-1.34,1.64-1.34,3.67v9.81c0,2.04,0.69,3.25,1.34,3.67v0.05h-5.24
			c-0.27-0.67-0.74-1.56-1.24-2.36l-3.5-5.69c-1.19-1.91-1.84-3.38-2.58-5.66h-0.1c0.4,2.36,0.45,3.97,0.45,5.76v4.22
			c0,2.06,0.62,3.25,1.27,3.67v0.05h-5.73V285.14z"/>
		<path class="st29" d="M20.62,314.14v0.05h-5.61v-0.05c0.42-0.32,0.62-1.34,0-3.05l-0.22-0.6H8.38l-0.22,0.6
			c-0.65,1.71-0.4,2.73-0.05,3.05v0.05H2.9v-0.05c0.67-0.6,1.74-2.11,2.41-4.02l3.55-10.23c0.5-1.46,0.02-2.51-0.45-2.9v-0.05h6.58
			v0.05c-0.47,0.42-0.97,1.44-0.45,2.9l3.65,10.23C18.86,312.03,19.93,313.57,20.62,314.14z M10.12,305.43l-0.92,2.63h4.77
			l-0.92-2.63c-0.57-1.61-1.19-3.28-1.44-5.19h-0.1C11.29,302.15,10.69,303.81,10.12,305.43z"/>
		<path class="st29" d="M21.41,313.57l-0.42-4.17l0.05-0.03c1.49,1.94,3.1,2.66,5.14,2.61c2.01-0.05,2.88-0.89,2.88-2.23
			c0-1.71-1.51-2.36-3.2-3.05c-2.16-0.89-4.57-1.91-4.57-5.36c0-2.46,2.11-4.72,5.96-4.72c1.29,0,2.46,0.15,3.9,0.52l0.32,4.07
			h-0.05c-1.07-1.64-2.48-2.04-3.92-2.04c-1.89,0-2.86,0.65-2.86,1.91c0,1.44,1.39,2.01,3,2.68c2.21,0.92,4.84,2.01,4.84,5.73
			c0,2.76-2.04,5.01-6.06,5.06C24.42,314.59,22.53,314.24,21.41,313.57z"/>
		<path class="st29" d="M35.01,313.57l-0.42-4.17l0.05-0.03c1.49,1.94,3.1,2.66,5.14,2.61c2.01-0.05,2.88-0.89,2.88-2.23
			c0-1.71-1.51-2.36-3.2-3.05c-2.16-0.89-4.57-1.91-4.57-5.36c0-2.46,2.11-4.72,5.96-4.72c1.29,0,2.46,0.15,3.9,0.52l0.32,4.07
			h-0.05c-1.07-1.64-2.48-2.04-3.92-2.04c-1.89,0-2.86,0.65-2.86,1.91c0,1.44,1.39,2.01,3,2.68c2.21,0.92,4.84,2.01,4.84,5.73
			c0,2.76-2.04,5.01-6.06,5.06C38.02,314.59,36.13,314.24,35.01,313.57z"/>
		<path class="st29" d="M47.97,305.73c0-5.59,3.48-9.29,9.21-9.29c5.31,0,8.86,3.6,8.86,8.94c0,5.54-3.7,9.31-9.24,9.31
			C51.25,314.69,47.97,310.82,47.97,305.73z M62.34,305.63c0-4.2-2.04-6.6-5.41-6.6c-3.28,0-5.26,2.58-5.26,6.46
			c0,4.07,1.84,6.63,5.39,6.63C60.11,312.11,62.34,309.6,62.34,305.63z"/>
		<path class="st29" d="M68.22,305.68c0-5.59,3.67-9.09,9.33-9.09c1.59,0,2.93,0.2,4.37,0.62l0.4,4.29l-0.05,0.03
			c-1.02-1.59-2.83-2.33-4.74-2.33c-3.5,0-5.61,2.41-5.61,6.23c0,3.8,1.84,6.5,5.29,6.5c2.68,0,4.29-1.09,5.59-2.78l0.05,0.03
			l-0.6,4.44c-1.27,0.45-3.2,0.94-5.29,0.94C71.6,314.56,68.22,310.77,68.22,305.68z"/>
		<path class="st29" d="M84.9,314.14c0.62-0.42,1.34-1.64,1.34-3.67v-9.81c0-2.06-0.7-3.25-1.34-3.67v-0.05h6.11v0.05
			c-0.62,0.42-1.34,1.64-1.34,3.67v9.81c0,2.06,0.7,3.25,1.34,3.67v0.05H84.9V314.14z"/>
		<path class="st29" d="M109.7,314.14v0.05h-5.61v-0.05c0.42-0.32,0.62-1.34,0-3.05l-0.22-0.6h-6.41l-0.22,0.6
			c-0.65,1.71-0.4,2.73-0.05,3.05v0.05h-5.21v-0.05c0.67-0.6,1.74-2.11,2.41-4.02l3.55-10.23c0.5-1.46,0.02-2.51-0.45-2.9v-0.05
			h6.58v0.05c-0.47,0.42-0.97,1.44-0.45,2.9l3.65,10.23C107.94,312.03,109.01,313.57,109.7,314.14z M99.2,305.43l-0.92,2.63h4.77
			l-0.92-2.63c-0.57-1.61-1.19-3.28-1.44-5.19h-0.1C100.37,302.15,99.77,303.81,99.2,305.43z"/>
		<path class="st29" d="M122.48,301.28l-0.05,0.02c-0.57-0.99-1.74-1.84-3.23-1.84h-1.86v10.8c0,2.14,0.7,3.45,1.51,3.87v0.05h-6.43
			v-0.05c0.72-0.42,1.51-1.76,1.51-3.87v-10.8h-1.89c-1.49,0-2.66,0.84-3.23,1.84l-0.05-0.02l0.42-4.54c1.14,0.15,2.18,0.2,3.4,0.2
			h6.06c1.22,0,2.26-0.05,3.4-0.2L122.48,301.28z"/>
		<path class="st29" d="M124.44,314.14c0.62-0.42,1.34-1.64,1.34-3.67v-9.81c0-2.06-0.7-3.25-1.34-3.67v-0.05h6.11v0.05
			c-0.62,0.42-1.34,1.64-1.34,3.67v9.81c0,2.06,0.7,3.25,1.34,3.67v0.05h-6.11V314.14z"/>
		<path class="st29" d="M133.1,305.73c0-5.59,3.48-9.29,9.21-9.29c5.31,0,8.86,3.6,8.86,8.94c0,5.54-3.7,9.31-9.24,9.31
			C136.38,314.69,133.1,310.82,133.1,305.73z M147.48,305.63c0-4.2-2.04-6.6-5.41-6.6c-3.28,0-5.26,2.58-5.26,6.46
			c0,4.07,1.84,6.63,5.39,6.63C145.24,312.11,147.48,309.6,147.48,305.63z"/>
		<path class="st29" d="M153.73,314.14c0.62-0.42,1.34-1.64,1.34-3.67v-9.93c0-1.34-0.42-2.93-1.34-3.55v-0.05h5.64
			c0.05,0.5,0.2,1.02,1.02,2.38l3.58,6.01c0.74,1.24,1.54,3,2.28,4.92h0.1c-0.35-1.99-0.4-3.72-0.4-5.11v-4.47
			c0-2.06-0.62-3.25-1.27-3.67v-0.05h5.73v0.05c-0.65,0.42-1.34,1.64-1.34,3.67v9.81c0,2.04,0.69,3.25,1.34,3.67v0.05h-5.24
			c-0.27-0.67-0.74-1.56-1.24-2.36l-3.5-5.69c-1.19-1.91-1.84-3.38-2.58-5.66h-0.1c0.4,2.36,0.45,3.97,0.45,5.76v4.22
			c0,2.06,0.62,3.25,1.27,3.67v0.05h-5.73V314.14z"/>
		<path class="st29" d="M10.52,338.08c0-3.37,2.1-5.61,5.56-5.61c3.21,0,5.35,2.17,5.35,5.4c0,3.35-2.23,5.63-5.58,5.63
			C12.49,343.49,10.52,341.15,10.52,338.08z M19.2,338.02c0-2.54-1.23-3.99-3.27-3.99c-1.98,0-3.18,1.56-3.18,3.9
			c0,2.46,1.11,4,3.25,4C17.85,341.93,19.2,340.42,19.2,338.02z"/>
		<path class="st29" d="M30.23,335.45l-0.03,0.01c-0.54-0.88-1.5-1.2-2.67-1.2h-1.68v2.79h1.32c1.08,0,1.8-0.03,2.25-0.12l-0.48,2.7
			h-0.03c-0.2-0.65-0.88-1.08-1.63-1.08h-1.42v2.38c0,1.25,0.42,1.96,0.81,2.22v0.03h-3.67v-0.03c0.38-0.25,0.81-0.99,0.81-2.22
			v-5.92c0-1.47-0.38-1.98-0.79-2.22v-0.03h5.02c0.9,0,1.44-0.03,1.93-0.12L30.23,335.45z"/>
		<path class="st29" d="M50.4,330.38l-0.05,0.03c-0.89-1.46-2.48-1.99-4.42-1.99h-2.78v4.62h2.19c1.79,0,2.98-0.05,3.72-0.2
			l-0.79,4.47h-0.05c-0.32-1.07-1.46-1.79-2.71-1.79h-2.36v3.95c0,2.06,0.7,3.25,1.34,3.67v0.05h-6.08v-0.05
			c0.62-0.42,1.34-1.64,1.34-3.67v-9.81c0-2.43-0.62-3.28-1.32-3.67v-0.05h8.32c1.49,0,2.38-0.05,3.2-0.2L50.4,330.38z"/>
		<path class="st29" d="M52.11,334.73c0-5.59,3.48-9.29,9.21-9.29c5.31,0,8.86,3.6,8.86,8.94c0,5.54-3.7,9.31-9.24,9.31
			C55.38,343.69,52.11,339.82,52.11,334.73z M66.48,334.63c0-4.2-2.04-6.6-5.41-6.6c-3.28,0-5.26,2.58-5.26,6.46
			c0,4.07,1.84,6.63,5.39,6.63C64.25,341.11,66.48,338.6,66.48,334.63z"/>
		<path class="st29" d="M72.36,334.73c0-5.59,3.48-9.29,9.21-9.29c5.31,0,8.86,3.6,8.86,8.94c0,5.54-3.7,9.31-9.24,9.31
			C75.64,343.69,72.36,339.82,72.36,334.73z M86.73,334.63c0-4.2-2.04-6.6-5.41-6.6c-3.28,0-5.26,2.58-5.26,6.46
			c0,4.07,1.84,6.63,5.39,6.63C84.5,341.11,86.73,338.6,86.73,334.63z"/>
		<path class="st29" d="M104.93,330.28l-0.05,0.02c-0.57-0.99-1.74-1.84-3.23-1.84h-1.86v10.8c0,2.14,0.7,3.45,1.51,3.87v0.05h-6.43
			v-0.05c0.72-0.42,1.51-1.76,1.51-3.87v-10.8H94.5c-1.49,0-2.66,0.84-3.23,1.84l-0.05-0.02l0.42-4.54c1.14,0.15,2.18,0.2,3.4,0.2
			h6.06c1.22,0,2.26-0.05,3.4-0.2L104.93,330.28z"/>
		<path class="st29" d="M120.19,338.1c0,3.23-2.43,5.09-5.81,5.09h-7.55v-0.05c0.62-0.47,1.46-1.59,1.46-3.82v-9.53
			c0-2.04-0.67-3.25-1.46-3.8v-0.05h6.85c3.72,0,5.61,1.39,5.61,4.34c0,1.89-1.42,3.43-2.86,3.65v0.07
			C118.5,334.25,120.19,336.09,120.19,338.1z M111.7,328.37v4.47h1.79c1.44,0,2.31-0.79,2.31-2.38c0-1.42-0.84-2.09-2.31-2.09H111.7
			z M116.64,337.98c0-1.64-0.89-2.73-2.76-2.73h-2.18v5.51h2.18C115.75,340.76,116.64,339.62,116.64,337.98z"/>
		<path class="st29" d="M138.36,343.14v0.05h-5.61v-0.05c0.42-0.32,0.62-1.34,0-3.05l-0.22-0.6h-6.41l-0.22,0.6
			c-0.65,1.71-0.4,2.73-0.05,3.05v0.05h-5.21v-0.05c0.67-0.6,1.74-2.11,2.41-4.02l3.55-10.23c0.5-1.46,0.02-2.51-0.45-2.9v-0.05
			h6.58v0.05c-0.47,0.42-0.97,1.44-0.45,2.9l3.65,10.23C136.6,341.03,137.66,342.57,138.36,343.14z M127.86,334.43l-0.92,2.63h4.77
			l-0.92-2.63c-0.57-1.61-1.19-3.28-1.44-5.19h-0.1C129.02,331.15,128.43,332.81,127.86,334.43z"/>
		<path class="st29" d="M148.19,343.19h-8.81v-0.05c0.62-0.42,1.34-1.64,1.34-3.67v-9.91c0-1.96-0.7-3.15-1.34-3.57v-0.05h6.08v0.05
			c-0.62,0.42-1.34,1.64-1.34,3.67v11.05h2.46c2.16,0,3.9-0.75,4.97-2.23l0.05,0.02l-0.65,4.89
			C150,343.22,149.33,343.19,148.19,343.19z"/>
		<path class="st29" d="M161.94,343.19h-8.81v-0.05c0.62-0.42,1.34-1.64,1.34-3.67v-9.91c0-1.96-0.7-3.15-1.34-3.57v-0.05h6.08v0.05
			c-0.62,0.42-1.34,1.64-1.34,3.67v11.05h2.46c2.16,0,3.9-0.75,4.97-2.23l0.05,0.02l-0.65,4.89
			C163.75,343.22,163.08,343.19,161.94,343.19z"/>
	</g>
</g>
<rect x="2.42" y="357.21" class="st30" width="170.43" height="4.88"/>
</svg>
