<svg xmlns="http://www.w3.org/2000/svg" width="1080" viewBox="0 0 810 810" height="1080" version="1.0"><path fill="#3c9950" d="M404.906 797.992V798L174.324 558.79c-27.472-28.505-47.265-51.63-47.265-113.903V13.879c9.754 28.816 34.593 49.39 63.57 49.39 29.601 0 54.883-21.468 64.18-51.265 10.882 29.824 40.543 51.32 75.273 51.32 34.262 0 63.594-20.918 74.824-50.113v-.008c11.235 29.2 40.563 50.113 74.828 50.113 34.727 0 64.387-21.492 75.27-51.32 9.3 29.797 34.582 51.266 64.183 51.266 28.977 0 53.817-20.57 63.57-49.39v431.007c0 62.277-19.792 85.398-47.265 113.906Zm0 0"/><path fill="#fff" d="m404.906 798-39.691-41.18V55.465c17.644-8.356 32.473-23.485 39.691-42.254v-.008c7.278 18.922 21.938 33.844 39.696 42.258v701.352Zm119.059-123.516 79.387-82.351V61.16C580.39 54.953 562.336 35.473 555.008 12c-5.805 15.922-17.067 29.422-31.04 38.414v624.07Zm-238.11.008-79.386-82.355V61.168c23.004-6.219 41.039-25.77 48.34-49.16 5.832 15.996 17.105 29.449 31.046 38.414Zm0 0"/><path transform="matrix(3.6927 0 0 3.69382 115.063 0)" fill="#3c9950" d="M116.95 76.834h4.038c1.81 0 3.074.28 3.793.83.72.554 1.082 1.492 1.082 2.812V84c0 1.002-.224 1.766-.67 2.277-.448.514-1.179.845-2.2.993 1.062.117 1.846.436 2.342.947.5.514.75 1.271.75 2.265v4.542c0 1.332-.356 2.28-1.074 2.827-.351.268-.85.469-1.474.605-.625.138-1.403.208-2.327.208h-4.262V76.834Zm2.872 2.19v7.179h.613c.905 0 1.523-.167 1.854-.497.331-.33.497-.974.497-1.932V81.42c0-.966-.162-1.61-.48-1.924-.318-.313-.947-.474-1.871-.474h-.613Zm0 9.34v8.155h.646c1.01 0 1.689-.17 2.036-.512.348-.34.521-1.02.521-2.034v-3.095c0-.996-.169-1.663-.513-2.004-.344-.34-1.024-.51-2.044-.51Zm-43.231-11.53h4.071l3.519 21.83h-3.042l-.735-5.551h-3.873l-.869 5.55h-2.86Zm1.91 2.368L76.837 90.91h3.243l-1.458-11.707Zm-38.603 2v1.642h-3.013v-1.481c0-.523-.021-.94-.065-1.258a2.376 2.376 0 0 0-.234-.8c-.188-.393-.513-.59-.965-.59-.545 0-.937.197-1.167.59-.21.395-.315 1.221-.315 2.475v11.94c0 1.285.1 2.113.307 2.497.206.378.578.568 1.115.568.46 0 .804-.183 1.026-.55.198-.394.3-1.049.3-1.966V92.3h3.012v2c0 1.777-.323 3.008-.973 3.701-.65.69-1.798 1.035-3.446 1.035-1.59 0-2.722-.417-3.389-1.25-.667-.833-.998-2.372-.998-4.611v-10.85c0-2.228.327-3.754.985-4.581.66-.822 1.818-1.235 3.482-1.235 1.6 0 2.723.345 3.369 1.03.646.687.969 1.907.969 3.665Zm0 0" stroke="#3c9950" stroke-width=".627" stroke-miterlimit="1"/><path stroke-linecap="round" transform="matrix(3.6927 0 0 3.69382 115.063 0)" fill="none" stroke-linejoin="round" d="M78.49 3.575c3.043 7.904 10.985 13.566 20.264 13.566 9.405 0 17.437-5.818 20.384-13.893 2.518 8.066 9.365 13.878 17.38 13.878 7.848 0 14.575-5.569 17.216-13.37v116.683c0 16.86-5.36 23.119-12.8 30.837l-62.443 64.76-62.443-64.76c-7.44-7.716-12.8-13.977-12.8-30.835V3.757c2.642 7.802 9.368 13.371 17.215 13.371 8.017 0 14.863-5.812 17.38-13.878 2.948 8.074 10.98 13.893 20.385 13.893 9.278 0 17.221-5.663 20.263-13.568Zm0 0" stroke="#3c9950" stroke-width="6.497" stroke-miterlimit="1"/></svg>