<svg xmlns="http://www.w3.org/2000/svg" xmlns:xlink="http://www.w3.org/1999/xlink" width="1080" zoomAndPan="magnify" viewBox="0 0 810 809.999993" height="1080" preserveAspectRatio="xMidYMid meet" version="1.0"><path fill="#3c9950" d="M 404.90625 797.992188 L 404.90625 798 L 174.324219 558.789062 C 146.851562 530.285156 127.058594 507.160156 127.058594 444.886719 L 127.058594 13.878906 C 136.8125 42.695312 161.652344 63.269531 190.628906 63.269531 C 220.230469 63.269531 245.511719 41.800781 254.808594 12.003906 C 265.691406 41.828125 295.351562 63.324219 330.082031 63.324219 C 364.34375 63.324219 393.675781 42.40625 404.90625 13.210938 L 404.90625 13.203125 C 416.140625 42.402344 445.46875 63.316406 479.734375 63.316406 C 514.460938 63.316406 544.121094 41.824219 555.003906 11.996094 C 564.304688 41.792969 589.585938 63.261719 619.1875 63.261719 C 648.164062 63.261719 673.003906 42.691406 682.757812 13.871094 L 682.757812 444.878906 C 682.757812 507.15625 662.964844 530.277344 635.492188 558.785156 Z M 404.90625 797.992188 " fill-opacity="1" fill-rule="nonzero"/><path fill="#ffffff" d="M 404.90625 798 L 365.214844 756.820312 L 365.214844 55.464844 C 382.859375 47.109375 397.6875 31.980469 404.90625 13.210938 L 404.90625 13.203125 C 412.183594 32.125 426.84375 47.046875 444.601562 55.460938 L 444.601562 756.8125 Z M 523.964844 674.484375 L 603.351562 592.132812 L 603.351562 61.160156 C 580.390625 54.953125 562.335938 35.472656 555.007812 12 C 549.203125 27.921875 537.941406 41.421875 523.96875 50.414062 L 523.96875 674.484375 Z M 285.855469 674.492188 L 206.46875 592.136719 L 206.46875 61.167969 C 229.472656 54.949219 247.507812 35.398438 254.808594 12.007812 C 260.640625 28.003906 271.914062 41.457031 285.855469 50.421875 Z M 285.855469 674.492188 " fill-opacity="1" fill-rule="nonzero"/><path stroke-linecap="butt" transform="matrix(3.692705, 0, 0, 3.693823, 115.063445, 0.000254375)" fill-opacity="1" fill="#3c9950" fill-rule="nonzero" stroke-linejoin="miter" d="M 116.949089 76.834288 L 120.98788 76.834288 C 122.797826 76.834288 124.061932 77.11347 124.781255 77.664432 C 125.501637 78.217509 125.863414 79.155519 125.863414 80.476348 L 125.863414 83.99891 C 125.863414 85.001428 125.639155 85.764949 125.192751 86.275726 C 124.745289 86.789675 124.014329 87.120675 122.992466 87.268727 C 124.054527 87.38611 124.839436 87.705478 125.3345 88.216255 C 125.834853 88.730204 126.085558 89.48738 126.085558 90.481438 L 126.085558 95.023438 C 126.085558 96.354842 125.72907 97.30237 125.010804 97.850159 C 124.659605 98.117709 124.161367 98.318636 123.537248 98.455054 C 122.912071 98.592531 122.133509 98.663384 121.210024 98.663384 L 116.948031 98.663384 L 116.948031 76.834288 Z M 119.822153 79.024388 L 119.822153 86.202758 L 120.434636 86.202758 C 121.340137 86.202758 121.95791 86.035671 122.28901 85.705729 C 122.620111 85.376844 122.78619 84.731763 122.78619 83.77366 L 122.78619 81.420703 C 122.78619 80.455198 122.624342 79.810117 122.305935 79.497095 C 121.987529 79.184072 121.359178 79.023331 120.434636 79.023331 L 119.822153 79.023331 Z M 119.822153 88.363248 L 119.822153 96.518756 L 120.468486 96.518756 C 121.477655 96.518756 122.156781 96.348497 122.503749 96.006922 C 122.851775 95.666404 123.025259 94.987483 123.025259 93.973332 L 123.025259 90.878004 C 123.025259 89.881831 122.856006 89.214543 122.512212 88.874025 C 122.168418 88.533507 121.488234 88.363248 120.468486 88.363248 Z M 76.590796 76.834288 L 80.66238 76.834288 L 84.18072 98.663384 L 81.139461 98.663384 L 80.40427 93.11252 L 76.5305 93.11252 L 75.662023 98.663384 L 72.801653 98.663384 Z M 78.501236 79.20205 L 76.837271 90.908672 L 80.079517 90.908672 L 78.621828 79.20205 Z M 39.897881 81.202856 L 39.897881 82.84411 L 36.885184 82.84411 L 36.885184 81.36254 C 36.885184 80.840131 36.864028 80.423472 36.819599 80.105162 C 36.788922 79.824923 36.710642 79.55843 36.585819 79.305686 C 36.397525 78.912292 36.072772 78.714538 35.621079 78.714538 C 35.076297 78.714538 34.683842 78.912292 34.454293 79.305686 C 34.243785 79.700136 34.13906 80.526051 34.13906 81.780256 L 34.13906 93.71953 C 34.13906 95.005461 34.239554 95.83349 34.44583 96.217366 C 34.652107 96.594896 35.024463 96.785248 35.560782 96.785248 C 36.020938 96.785248 36.364732 96.602299 36.586876 96.235344 C 36.78469 95.840893 36.886242 95.186295 36.886242 94.269435 L 36.886242 92.299296 L 39.898939 92.299296 L 39.898939 94.299045 C 39.898939 96.07566 39.576301 97.3066 38.925736 98.000326 C 38.276229 98.689821 37.128485 99.034569 35.480387 99.034569 C 33.889412 99.034569 32.757535 98.617911 32.091103 97.784594 C 31.423613 96.952334 31.092512 95.412602 31.092512 93.173856 L 31.092512 82.323816 C 31.092512 80.095645 31.420439 78.56966 32.078409 77.742688 C 32.737437 76.921003 33.895759 76.507518 35.559724 76.507518 C 37.16022 76.507518 38.282576 76.853323 38.92891 77.538589 C 39.575243 78.224912 39.897881 79.445277 39.897881 81.202856 Z M 39.897881 81.202856 " stroke="#3c9950" stroke-width="0.627" stroke-opacity="1" stroke-miterlimit="1"/><path stroke-linecap="round" transform="matrix(3.692705, 0, 0, 3.693823, 115.063445, 0.000254375)" fill="none" stroke-linejoin="round" d="M 78.490657 3.575368 C 81.532974 11.479189 89.475154 17.141091 98.75443 17.141091 C 108.15853 17.141091 116.190626 11.322677 119.137737 3.247541 C 121.656428 11.314217 128.502698 17.126286 136.518926 17.126286 C 144.365902 17.126286 151.092636 11.557444 153.734036 3.755145 L 153.734036 120.438547 C 153.734036 137.298409 148.374016 143.557803 140.934304 151.275502 L 78.490657 216.036281 L 16.048068 151.27656 C 8.608357 143.559918 3.248337 137.299466 3.248337 120.440662 L 3.248337 3.75726 C 5.889736 11.558502 12.616471 17.128401 20.463446 17.128401 C 28.479675 17.128401 35.325944 11.316332 37.843577 3.249656 C 40.790689 11.323735 48.822785 17.143206 58.227942 17.143206 C 67.506161 17.143206 75.449399 11.480246 78.490657 3.575368 Z M 78.490657 3.575368 " stroke="#3c9950" stroke-width="6.497" stroke-opacity="1" stroke-miterlimit="1"/></svg>