<svg xmlns="http://www.w3.org/2000/svg" width="1080" viewBox="0 0 810 810" height="1080" version="1.0"><defs><clipPath id="a"><path d="M25 0h761v809.781H25Zm0 0"/></clipPath></defs><g clip-path="url(#a)"><path fill="#fff" d="M280.652 3.797c-.23 8.605-.27 23.621-1.668 32.234-.347 2.14-1.574 8.332-2.222 10.559l-.555 1.664-1.11 4.45-.554 1.663-.559 2.223-1.109 2.222-.555 2.223-1.668 3.336-.554 1.668-.555 1.11-.555 1.667-2.781 5.559-.555.555-1.664 3.336-.558.554-1.664 3.336-.555.555-1.11 2.223-.558.554-.555 1.11-.554.554-.555 1.114-.559.554-.554 1.114-1.11 1.113-.554 1.11-.559.554-.555 1.113-.554.555-.555 1.11-2.223 2.222-.554 1.113-1.114 1.114-.554 1.109-3.887 3.89-.555 1.11-2.777 2.781-.559 1.11-3.886 3.89-1.11.555-4.445 4.449-1.11.555-3.89 3.886-1.11.559-.554.555-1.113.554-2.223 2.223-1.11.559-.558.554-1.11.555-1.667 1.664-2.223 1.113-1.11 1.11-1.109.558-.555.555-1.113.555-1.11 1.113-2.222 1.11-.558.558-2.22 1.11-.554.554-2.223 1.113-.558.555-4.442 2.223c-.703.507-.425.597-1.668 1.113l-1.667.555-.555.554-3.332 1.668-1.668.555-.555.555-1.664.554-3.336 1.668-5 1.668c-1.512.63-2.105 1.149-3.887 1.668l-2.222.555-6.668 2.223-8.887 2.222-3.332.555c-4.371.8-6.504 1.203-11.11 1.668l-6.113.559h-12.222l-10.551-1.114c-2.766-.43-7.277-1.43-10-2.222l-5-1.668-2.223-.555-3.336-1.668-1.664-.555-5.554-2.777-1.114-1.113-3.332-1.668-.554-.555-1.114-.555-1.11-1.11-1.108-.558-.555-.554-1.113-.555-2.227-2.223-1.113-.554L69 138.836c-.367-.266-1.395-.516-2.223-1.668l-.554-1.11-2.778-2.78-.554-1.11-3.336-3.336-1.664-3.332-1.114-.559-3.886-3.886-3.336-6.672H25.113v82.246l.555 16.672c.383 10.008.797 20.027 1.668 30.008l.555 6.113c.398 5.183.605 10.379 1.109 15.558l.555 5 1.113 12.227 1.664 13.895c.55 4.906.879 10.148 1.668 15.003l.555 2.778c.664 4.086 1.004 8.695 1.668 12.781l.554 2.777.555 3.891L38.445 340l.555 3.89.555 2.778c.554 3.242.824 6.832 1.664 10.004l.558 1.664.555 3.89.555 2.782.554 3.332.555 2.223c.996 4.433 1.73 8.917 2.777 13.335.582 2.586.926 5.235 1.668 7.782l.555 1.668 1.113 5.558 1.11 4.446 1.113 3.89.55 3.332.56 1.668.554 2.223.555 1.664.558 2.781 1.11 3.336 1.664 6.668.558 1.11.555 2.222.555 1.668.554 2.777 1.11 3.336.558 2.223.555 1.11.555 2.222.554 1.113c.56 1.508.903 4.266 1.665 6.114.464 1.117.71 1.402 1.113 2.777.539 1.855.922 3.762 1.664 5.555l.558 1.113 1.665 5 .558 1.113.555 2.223 1.664 5c.492.797.441-.086 1.113 2.223l.555 2.222.555 1.113.554 1.664.555 1.114 1.113 3.332.555 1.113.555 1.668.558 1.113.555 1.664 1.11 2.223 1.109 3.332 1.113 2.227.555 1.664.554 1.113.555 1.668.555 1.11.554 1.667 2.223 4.446.555 1.668 1.668 3.332.554 1.668.555 1.113.555 1.668.554.555 1.114 2.218.554 1.668 10 20.008.555.555 4.445 8.89.555.555c.348.563.55 2 1.11 2.777.507.704.597.43 1.113 1.668l.554 1.668 1.11 1.114 1.113 2.222.555.555 2.222 4.445.555.555.555 1.113.554.555 1.668 3.332.555.555.555 1.113.555.555.554 1.668 1.113 1.109.555 1.113.555.555.555 1.668.554.555.555 1.113.558.555.555 1.109.555.555 1.11 2.226.554.551.559 1.113.554.555.555 1.113 1.11 1.11 1.113 2.222 1.109 1.114.555 1.113.554.554.555 1.114.555.55.558 1.114c.504.703.598.426 1.11 1.668l.554 1.664 1.668 1.668c2.39 2.656 4.2 5.129 6.114 7.781l.55 1.113.559.555.555 1.11 1.109 1.113.555 1.113 1.668 1.664.554 1.113 1.11 1.11.558 1.113 1.11 1.113.554 1.11 2.223 2.222.555 1.114 1.113 1.109.555 1.113 2.222 2.223.555 1.11 2.223 2.222.554 1.113 2.778 2.778.554 1.113 2.223 2.222.555 1.11 4.445 4.45.555 1.108 3.332 3.336.558 1.11 6.664 6.668.555 1.113c.356.356 1.16.406 1.668 1.113l.555 1.11c.355.355 1.16.406 1.668 1.113.531.734.219.773 1.11 1.664l8.335 8.336 1.11 1.113 1.113.555 3.332 3.332.554 1.113c.356.36 1.16.407 1.668 1.114l.555 1.109 1.11.555 3.89 3.89 1.11.559 3.332 3.332 1.113.555 4.441 4.445h1.113c0 2.027.415 1.32 1.668 2.222l2.22 2.223 1.113.559 3.332 3.332 1.113.554 3.332 3.332h1.668c0 2.032.41 1.32 1.668 2.227l1.11 1.11c.737.53.776.222 1.667 1.113h1.11c0 2.027.414 1.316 1.667 2.222l.555.551 1.11.559 1.667 1.668 1.11.554 1.668 1.668 1.113.555 1.11 1.11 1.109.554 1.113 1.113 1.113.555.555.555 1.11.554 1.667 1.668 1.11.559.555.55 1.113.56 1.664 1.663 2.223 1.114 1.113 1.11 1.11.558 1.112 1.11 2.22 1.112 1.113 1.11 1.109.558.558.555 1.11.555 1.11 1.113 2.222 1.11 1.113 1.113 1.11.554.554.555 1.113.555.555.554 1.113.559.555.555 1.11.554.554.555 2.223 1.113.555.555 1.113.555.555.554 1.113.555 1.664 1.668 1.668.555.555.554 1.113.555.555.555 2.222 1.113 1.11 1.113 3.332 1.664.558.559 1.11.555.554.554 2.223 1.114.555.55 1.113.56.555.554 3.332 1.668.554.554 2.223 1.11.555.554 2.222 1.114.555.558 3.332 1.664.559.555 2.222 1.113.555.555 5.555 2.777.554.559 1.11.555.558.554 2.219 1.114 1.668.55.555.559 4.445 2.223.555.554 6.664 3.332.558.559 4.442 2.219 1.668.554.554.555 26.664 13.34 1.668.555c.508.312.38.578 1.664 1.113l1.668.555 3.332 1.668 1.668.554 1.11.555h10c.594-.098 3.824-1.219 4.441-1.668l.559-.555 1.664-.554 5.558-2.778 1.665-.558 13.332-6.664 3.332-1.114 1.113-1.113 10-5c.902-.375 1.965-.527 2.777-1.113.969-.696.719-1.043 2.223-1.668 1.058-.395 3.004-1.028 3.887-1.664l.558-.555 3.332-1.668.555-.558 2.223-1.11.554-.555 4.446-2.222.55-.555c.563-.351 2-.55 2.778-1.113l.558-.555 2.223-1.113.555-.555 1.113-.555.55-.554c.563-.348 2-.551 2.778-1.114l.559-.554 1.109-.555.555-.555 3.332-1.668.558-.554 2.223-1.114.555-.554 2.218-1.11.559-.558 1.11-.555.554-.555 4.445-2.222 1.114-1.113 2.218-1.11.559-.555 2.219-1.113 1.113-1.113 3.332-1.668 1.113-1.11 2.223-1.113.55-.554 1.114-.555.555-.555 1.11-.554.558-.555 1.113-.555.55-.558 1.114-.555 1.113-1.11 2.22-1.113.554-.554 1.113-.555.555-.555 1.11-.558 1.112-1.11 1.11-.554.554-.555 2.223-1.113 1.113-1.114 1.11-.554.554-.555 1.114-.555 1.11-1.113 1.112-.555.555-.554 1.11-.555 1.664-1.668 1.113-.555.558-.554 1.11-.56 1.113-1.108 1.11-.555.554-.555 1.113-.555 2.223-2.222 2.223-1.113 1.664-1.668 1.113-.555.555-.555 1.11-.554.554-.555 1.11-.555c.972-.7.722-1.047 2.226-1.668 2.437-1.012 5.3-4.883 7.777-6.668l1.11-1.113 1.113-.555.55-1.11 1.114-.558 1.113-1.11 1.11-.558 1.667-1.664 1.11-.554 4.445-4.446 1.113-.558 2.778-2.778 1.11-.554c10.69-9.625 20.94-19.836 31.109-30.008.363-.266 1.394-.516 2.222-1.668l1.11-2.223 3.89-3.89.555-1.11 7.222-7.226.555-1.11 2.223-2.222.555-1.114c3.628-3.633 6.472-7.586 10-11.113l.554-1.113 1.114-1.11.55-1.113 1.668-1.668.559-1.11 1.664-1.667.555-1.11 1.668-1.668.554-1.113.551-.555.555-1.113 1.672-1.664.55-1.113 1.114-1.113.554-1.11.555-.555.555-1.113c.539-.742 1.941-1.594 2.222-2.777v-1.113h1.114l1.113-2.223.55-.555.555-1.113 1.114-1.11.554-1.113 1.114-1.11 1.109-2.222 1.113-1.113.555-1.113.555-.555.554-1.11.555-.554.555-1.113.554-.555.559-1.113 1.11-1.11 1.113-2.222 1.11-1.114 1.667-3.332 1.11-1.113 1.113-2.223.55-.554.56-1.114.554-.554.554-1.11.551-.554.559-1.668.554-.555.555-1.113.559-.555.55-1.113c.614-.844.313-.067 1.114-1.668.351-.703.648-1.582 1.113-2.219l.55-.559 1.114-2.218.559-.559.55-1.11.555-.558 3.336-6.664 1.11-1.113.554-1.668 2.223-4.445.555-.555 3.89-7.781.551-.555.559-1.664.554-.559c.86-1.195 1.672-4.238 2.223-5 .508-.703.598-.426 1.113-1.668l.551-1.668 3.89-7.777.555-1.668 2.223-4.445.555-1.668 2.222-4.446.555-1.668 2.223-4.445.554-1.668.555-1.11 1.113-3.335 1.664-3.332 1.11-3.336 1.113-2.223 1.11-3.332 1.113-2.222.554-2.223.559-1.11.55-1.667 1.114-2.223.555-2.223 1.11-3.336c.628-1.511 1.148-2.105 1.667-3.89l.555-2.223.554-1.11 1.668-5c.461-1.117.711-1.406 1.11-2.777l.558-2.222 2.778-8.336.55-2.223 1.118-3.336c.37-1.293.59-2.64 1.105-3.89l.559-1.114 1.668-6.668c.34-.918.738-1.383 1.11-2.777l.554-2.777.554-1.668.56-2.778 1.108-3.336 1.114-4.445 1.11-3.89c.542-2.41.972-4.848 1.667-7.223l1.664-6.668.559-3.336.55-1.668 1.114-4.445.554-3.336.555-2.22 1.113-5.558.555-2.222.555-3.336 1.11-5c.382-2.215.534-4.489 1.112-6.668l.555-1.668c.54-2.164 1.156-7.782 1.668-10.559l.555-2.777.55-3.89.555-2.778 1.117-7.781.551-2.778c.692-4.238.942-8.547 1.668-12.781l.555-2.777c.887-5.461 1.527-14.114 2.223-20.008l1.109-8.89 1.113-13.337.555-3.89.555-7.782 1.113-15.004.555-6.113c.539-7.504.828-16.328 1.109-23.894l.555-16.672v-79.465h-21.618l-6.109 6.113-.555 1.11-4.445 5-2.777 2.78-.559 1.11-1.664 1.668-.555 1.113-2.777 2.778c-2.883 2.402-5.394 5.328-8.332 7.777l-1.113.559-.551.554-1.113.555-1.114 1.11-1.109.558-.559.555-3.328 1.668-1.113 1.11-5.555 2.776-1.668.559-3.332 1.664-2.222.559c-3.477 1.011-5.395 1.933-9.442 2.777l-3.336.555-2.222.554c-1.864.336-9.2 1.024-11.11 1.114h-11.664c-5.508-.23-15.168-1.567-20.558-2.782l-2.22-.554-2.78-.555-1.664-.555-4.446-1.113-10-3.336-2.218-1.11-3.336-1.113-1.11-.554-1.668-.555-6.664-3.332-1.668-.559-.554-.554-3.333-1.664-.558-.559c-.559-.347-1.996-.55-2.777-1.11l-.551-.554-1.114-.559-.558-.554-3.328-1.668-.559-.555-1.11-.555-.554-.558-1.113-.555-.555-.554-2.223-1.11-1.109-1.113-1.11-.555-.558-.555-1.11-.558-1.667-1.664-2.223-1.113-1.664-1.668-1.113-.555-1.11-1.113c-.734-.528-.777-.22-1.668-1.11h-1.109c0-2.027-.414-1.32-1.668-2.222l-2.777-2.782-1.114-.554-12.777-12.782-2.777-3.89-2.778-2.778-.554-1.113-1.114-1.11-.554-1.113-1.664-1.664-1.114-2.222-1.664-1.668-1.109-2.223-1.113-1.113-.559-1.11-.55-.554-.555-1.668-.559-.555-.555-1.113-.554-.555-1.11-2.222-.558-.555-1.664-3.336-.555-.555-2.223-4.445-.554-1.668-.559-1.11c-.371-.906-.523-1.968-1.11-2.78l-.554-.555-1.664-5-.559-1.114c-.906-2.191-1.968-6.297-2.777-8.89-1.93-6.63-3.309-15.84-3.887-22.785-.668-9.618-.832-19.262-1.113-28.895H281.207Zm0 0" fill-rule="evenodd"/></g><path d="M295.098 18.246c0 23.617-7.727 50.559-16.778 64.906-5.605 8.887-9.304 16.496-16.136 24.43-3.282 3.809-6.23 7.266-9.45 11.106-2.027 2.414-9.625 7.886-9.855 10.703-1.594.129-19.32 14.539-22.668 16.78-7.48 5.013-16.535 10.477-25.29 14.161-18.187 7.645-37.612 15.738-63.148 15.738h-2.222c-20.66 0-42.317-5.68-54.442-13.894-7.629-5.172-12.742-8.617-19.308-15.137-4.309-4.281-12.324-15.578-16.246-18.207 0 44.07.406 85.094 3.332 125.594 2.789 38.691 8.855 78.047 15.695 113.222 13.543 69.614 37.64 136.528 68.371 189.45 14.727 25.359 34.043 55.007 53.008 75.902 5.3 5.844 9.687 11.355 15.281 16.945 4.414 4.418 11.203 13.137 15.742 16.48 4.32 3.177 12.141 11.634 16.465 15.763 5.371 5.132 11.594 9.94 17.246 14.98 11.344 10.117 24.496 18.527 36.41 28.039 5.32 4.25 13.258 9.04 19.215 13.012 6.61 4.41 12.973 8.48 19.758 12.46 9.813 5.755 76.95 44.446 84.457 44.446h.555c7.617 0 69.754-36.309 80.37-41.86 12.173-6.359 25.567-16.382 37.067-24.05 12.672-8.45 23.461-17.567 35.336-26.336 5.793-4.277 10.914-9.55 16.559-13.996 3.129-2.461 4.844-4.57 7.98-7.02 1.54-1.203 2.578-2.828 3.825-3.953 1.336-1.207 2.503-1.742 4.27-3.512 5.214-5.238 10.05-10.054 15.273-15.285 5.367-5.367 9.835-10.996 14.996-16.117 9.539-9.476 19.316-22.633 27.547-33.57 4.035-5.356 9.472-12.211 12.863-17.7 3.441-5.57 8.32-13.734 12.129-18.988 5.664-7.812 18.195-29.761 22.105-39.008 6.055-14.304 13.16-27.265 19.274-42.406 3.03-7.508 5.754-14.308 8.367-22.195 2.297-6.938 5.183-15.75 7.902-22.656 5.883-14.93 8.192-33.27 13.574-48.11 2.317-6.402 3.739-17.773 5.54-25.02 1.913-7.683 3.765-17.316 5.062-25.5.562-3.554 1.23-9.738 2.035-12.964 1.168-4.664.953-9.07 1.992-13.57 2.082-9.004 2.36-17.664 3.809-27.309 1.308-8.703 1.762-18.832 3.094-27.469 1.113-7.187 2.093-21.27 2.359-28.203.766-19.586 2.203-39.2 2.203-59.48v-50.012c-1.855.672-13.465 14.992-15.695 17.644-4.543 5.407-12.801 10.938-18.856 15.032-11.91 8.05-33.242 14.558-53.218 14.558h-2.223c-44.27 0-89.496-24.558-112.09-46.25-15.793-15.16-23.605-24.058-35.453-43.445-7.68-12.566-18.559-41.2-18.559-60.902V11.578h-219.43Zm0 0" fill-rule="evenodd"/><path fill="#fff" d="M353.426 262.758c-11.543 2.691-27.813 14.176-37 20.226-7.63 5.028-23.973 21.243-29 28.782-15.227 22.832-29.547 48.261-29.547 86.027v6.668c0 18.09 4.86 34.32 9.371 47.863 5.11 15.332 12.5 25.106 20.512 37.274 5.265 8 21.035 23.347 29.113 28.672 5.84 3.843 11.008 7.84 17.473 11.418 3 1.656 6.672 3.476 9.632 4.812 1.77.797 9.45 3.102 9.45 4.996V755.11c5.351 1.25 19.246 10.211 25.18 13.153 3.124 1.547 24.413 12.41 25.925 12.41 2.8 0 23.024-10.457 25.996-12.34 2.805-1.77 23.473-12.71 25.668-13.223V539.496c0-1.851 15.86-8.336 18.336-9.441 6.164-2.75 11.625-6.86 16.985-10.793 10.449-7.672 20.742-17.39 28.664-27.453 8.707-11.059 14.671-21.606 20.632-35.485 3.868-9.004 10.93-33.14 10.93-45.195v-15c0-31.008-15.586-68.047-29.863-84.602-9.707-11.261-16.602-19.375-28.688-28.543-5.949-4.511-10.16-7.632-17.183-11.144-4.309-2.156-15.653-8.113-19.813-9.082V24.359H353.43v238.399Zm0 0" fill-rule="evenodd"/><path d="M265.652 389.457v21.117c0 15.953 8.024 39.957 13.52 50.942 7.203 14.41 16.101 26.757 26.898 37.554 17.758 17.766 53.586 40.43 88.465 40.43h23.887c14.191 0 39.043-9.242 49.074-14.262 14.274-7.14 25.926-16.031 36.613-26.722 10.383-10.387 19.41-23.133 26.344-37 5.203-10.403 13.52-34.848 13.52-49.829v-19.449c0-36.73-22.07-71.812-40.692-90.441-11.886-11.89-22.508-19.242-38.383-27.18-11.68-5.844-35.003-13.523-52.03-13.523h-13.333c-37.316 0-73.004 20.515-91.797 39.316-11.496 11.496-20.113 22.383-27.832 37.735-5.765 11.464-14.254 34.718-14.254 51.312Zm0 0" fill-rule="evenodd"/><path fill="#fff" d="M272.875 398.902c0 71.723 58.258 133.371 128.324 133.371h2.223c40.484 0 72.203-16.27 92.355-36.539 19.325-19.433 40.414-50.691 40.414-89.05v-17.227c0-16.402-8.039-36.652-13.699-47.977-7.203-14.414-15.66-25.015-26.433-35.796-18.297-18.297-51.098-36.813-87.637-36.813h-10c-36.57 0-69.2 21.445-88.2 39.582-18.554 17.711-37.347 54.063-37.347 90.45ZM147.883 188.293v376.21c0 4.599 18.406 28.708 21.773 33.79 7.692 11.605 16.692 20.383 24.559 31.008 5.238 7.078 50.703 53.148 56.441 54.68V139.39c-3.75 2.507-6.61 5.84-10.324 8.566-3.781 2.773-7.195 5.227-10.883 8.008-6.879 5.2-15.808 10-23.793 13.988-8.383 4.192-16.863 8.402-26.68 11.102-4.71 1.293-9.46 3.097-14.648 4.238-5.531 1.21-11.223 1.781-16.445 3ZM558.969 684.535c4.75-3.18 9.96-8.668 14.578-12.644 5.176-4.453 9.633-8.524 14.445-13.336 8.106-8.098 20.137-19.817 26.762-28.805 7.867-10.68 16.828-19.04 24.535-30.465 3.332-4.937 21.899-29.336 21.899-33.668V187.738c-16.528 0-45.57-11.933-57.22-17.785-8.136-4.082-15.968-9.004-23.335-13.89-3.664-2.434-19.48-15.536-21.664-16.118Zm0 0" fill-rule="evenodd"/><path d="M320.648 396.125v9.45c0 6.85 3.344 17.843 5.743 22.597 1.347 2.668 10.351 18.453 10.367 18.523 4.226-.351 9.32-7.414 12.781-8.336-1.43-5.355-11.441-14.304-11.668-24.453h33.332V461.7l15.664-.004-1.222-126.14v-13.336c-6.915 0-20.04 6.437-25.368 9.074-7.812 3.871-13.648 9.703-19.496 15.512-9.453 9.386-20.133 30.382-20.133 49.32ZM392.875 289.543l-.008 222.168h21.11c14.18 0 26.597-6.969 37.62-9.629l-5.952-13.707c-10.844 2.523-21.696 8.336-35 8.336h-2.778V303.879h2.778c3.097 0 14.914 1.945 17.3 2.7 3.793 1.198 12.082 5.003 15.176 4.948l5.856-13.761c-3.34-.278-11.59-4.516-16.707-5.516-6.332-1.23-11.622-3.375-19.403-3.375l-6.117-.137Zm0 0" fill-rule="evenodd"/><path d="M293.43 395.016v4.445c0 36.066 11.507 53.492 26.886 74.242 5.036 6.79 19.82 18.664 27.73 22.828 7.524 3.953 27.36 13.512 37.599 13.512v-15.559c-15.86 0-46.454-20.504-53.66-30.23-11.65-15.715-23.555-33.914-23.555-60.902v-5.004c0-27.559 11.675-44.95 23.554-60.903 8.067-10.836 36.977-29.953 53.66-31.343v-15.559c-8.445.187-28.91 9.734-35.742 13.144-7.656 3.825-22.77 15.481-27.687 21.762-7.79 9.942-13.785 17.235-19.344 29.551-4.043 8.953-9.441 27.176-9.441 40.016ZM460.64 497.266c4.337-1.012 23.36-17.496 26.524-21.262 3.285-3.914 19.031-24.656 19.031-29.309 0-2.254-11.11-6.043-13.336-7.222-1.101 4.738-13.507 24.57-17.218 25.562v-129.48c4.164 1.113 16 21.425 17.308 26.89l13.801-5.773c-.625-7.531-14.148-25.645-18.746-30.707-6.328-6.973-19.004-18.215-27.363-22.64Zm0 0" fill-rule="evenodd"/><path fill="#fff" d="M335.648 393.348v5.558h35v-55.57c-14.363 3.344-35 31.578-35 50.012Zm0 0" fill-rule="evenodd"/></svg>