<svg xmlns="http://www.w3.org/2000/svg" xmlns:xlink="http://www.w3.org/1999/xlink" width="1080" zoomAndPan="magnify" viewBox="0 0 810 809.999993" height="1080" preserveAspectRatio="xMidYMid meet" version="1.0"><defs><clipPath id="127aa55879"><path d="M 25 0 L 786 0 L 786 809.78125 L 25 809.78125 Z M 25 0 " clip-rule="nonzero"/></clipPath></defs><g clip-path="url(#127aa55879)"><path fill="#ffffff" d="M 280.652344 3.796875 C 280.421875 12.402344 280.382812 27.417969 278.984375 36.03125 C 278.636719 38.171875 277.410156 44.363281 276.761719 46.589844 L 276.207031 48.253906 L 275.097656 52.703125 L 274.542969 54.367188 L 273.984375 56.589844 L 272.875 58.8125 L 272.320312 61.035156 L 270.652344 64.371094 L 270.097656 66.039062 L 269.542969 67.148438 L 268.988281 68.816406 L 266.207031 74.375 L 265.652344 74.929688 L 263.988281 78.265625 L 263.429688 78.820312 L 261.765625 82.15625 L 261.210938 82.710938 L 260.101562 84.933594 L 259.542969 85.488281 L 258.988281 86.597656 L 258.433594 87.152344 L 257.878906 88.265625 L 257.320312 88.820312 L 256.765625 89.933594 L 255.65625 91.046875 L 255.101562 92.15625 L 254.542969 92.710938 L 253.988281 93.824219 L 253.433594 94.378906 L 252.878906 95.488281 L 250.65625 97.710938 L 250.101562 98.824219 L 248.988281 99.9375 L 248.433594 101.046875 L 244.546875 104.9375 L 243.992188 106.046875 L 241.214844 108.828125 L 240.65625 109.9375 L 236.769531 113.828125 L 235.660156 114.382812 L 231.214844 118.832031 L 230.105469 119.386719 L 226.214844 123.273438 L 225.105469 123.832031 L 224.550781 124.386719 L 223.4375 124.941406 L 221.214844 127.164062 L 220.105469 127.722656 L 219.546875 128.277344 L 218.4375 128.832031 L 216.769531 130.496094 L 214.546875 131.609375 L 213.4375 132.71875 L 212.328125 133.277344 L 211.773438 133.832031 L 210.660156 134.386719 L 209.550781 135.5 L 207.328125 136.609375 L 206.769531 137.167969 L 204.550781 138.277344 L 203.996094 138.832031 L 201.773438 139.945312 L 201.214844 140.5 L 196.773438 142.722656 C 196.070312 143.230469 196.347656 143.320312 195.105469 143.835938 L 193.4375 144.390625 L 192.882812 144.945312 L 189.550781 146.613281 L 187.882812 147.167969 L 187.328125 147.722656 L 185.664062 148.277344 L 182.328125 149.945312 L 177.328125 151.613281 C 175.816406 152.242188 175.222656 152.761719 173.441406 153.28125 L 171.21875 153.835938 L 164.550781 156.058594 L 155.664062 158.28125 L 152.332031 158.835938 C 147.960938 159.636719 145.828125 160.039062 141.222656 160.503906 L 135.109375 161.0625 L 122.886719 161.0625 L 112.335938 159.949219 C 109.570312 159.519531 105.058594 158.519531 102.335938 157.726562 L 97.335938 156.058594 L 95.113281 155.503906 L 91.777344 153.835938 L 90.113281 153.28125 L 84.558594 150.503906 L 83.445312 149.390625 L 80.113281 147.722656 L 79.558594 147.167969 L 78.445312 146.613281 L 77.335938 145.503906 L 76.226562 144.945312 L 75.671875 144.390625 L 74.558594 143.835938 L 72.332031 141.613281 L 71.21875 141.058594 L 69 138.835938 C 68.632812 138.570312 67.605469 138.320312 66.777344 137.167969 L 66.222656 136.058594 L 63.445312 133.277344 L 62.890625 132.167969 L 59.554688 128.832031 L 57.890625 125.5 L 56.777344 124.941406 L 52.890625 121.054688 L 49.554688 114.382812 L 25.113281 114.382812 L 25.113281 196.628906 L 25.667969 213.300781 C 26.050781 223.308594 26.464844 233.328125 27.335938 243.308594 L 27.890625 249.421875 C 28.289062 254.605469 28.496094 259.800781 29 264.980469 L 29.554688 269.980469 L 30.667969 282.207031 L 32.332031 296.101562 C 32.882812 301.007812 33.210938 306.25 34 311.105469 L 34.554688 313.882812 C 35.21875 317.96875 35.558594 322.578125 36.222656 326.664062 L 36.777344 329.441406 L 37.332031 333.332031 L 38.445312 340 L 39 343.890625 L 39.554688 346.667969 C 40.109375 349.910156 40.378906 353.5 41.21875 356.671875 L 41.777344 358.335938 L 42.332031 362.226562 L 42.886719 365.007812 L 43.441406 368.339844 L 43.996094 370.5625 C 44.992188 374.996094 45.726562 379.480469 46.773438 383.898438 C 47.355469 386.484375 47.699219 389.132812 48.441406 391.679688 L 48.996094 393.347656 L 50.109375 398.90625 L 51.21875 403.351562 L 52.332031 407.242188 L 52.882812 410.574219 L 53.441406 412.242188 L 53.996094 414.464844 L 54.550781 416.128906 L 55.109375 418.910156 L 56.21875 422.246094 L 57.882812 428.914062 L 58.441406 430.023438 L 58.996094 432.246094 L 59.550781 433.914062 L 60.105469 436.691406 L 61.214844 440.027344 L 61.773438 442.25 L 62.328125 443.359375 L 62.882812 445.582031 L 63.4375 446.695312 C 63.996094 448.203125 64.339844 450.960938 65.101562 452.808594 C 65.566406 453.925781 65.8125 454.210938 66.214844 455.585938 C 66.753906 457.441406 67.136719 459.347656 67.878906 461.140625 L 68.4375 462.253906 L 70.101562 467.253906 L 70.660156 468.367188 L 71.214844 470.589844 L 72.878906 475.589844 C 73.371094 476.386719 73.320312 475.503906 73.992188 477.8125 L 74.546875 480.035156 L 75.101562 481.148438 L 75.65625 482.8125 L 76.210938 483.925781 L 77.324219 487.257812 L 77.878906 488.371094 L 78.433594 490.039062 L 78.992188 491.152344 L 79.546875 492.816406 L 80.65625 495.039062 L 81.765625 498.371094 L 82.878906 500.597656 L 83.433594 502.261719 L 83.988281 503.375 L 84.542969 505.042969 L 85.097656 506.152344 L 85.652344 507.820312 L 87.875 512.265625 L 88.429688 513.933594 L 90.097656 517.265625 L 90.652344 518.933594 L 91.207031 520.046875 L 91.761719 521.714844 L 92.316406 522.269531 L 93.429688 524.488281 L 93.984375 526.15625 L 103.984375 546.164062 L 104.539062 546.71875 L 108.984375 555.609375 L 109.539062 556.164062 C 109.886719 556.726562 110.089844 558.164062 110.648438 558.941406 C 111.15625 559.644531 111.246094 559.371094 111.761719 560.609375 L 112.316406 562.277344 L 113.425781 563.390625 L 114.539062 565.613281 L 115.09375 566.167969 L 117.316406 570.613281 L 117.871094 571.167969 L 118.425781 572.28125 L 118.980469 572.835938 L 120.648438 576.167969 L 121.203125 576.722656 L 121.757812 577.835938 L 122.3125 578.390625 L 122.867188 580.058594 L 123.980469 581.167969 L 124.535156 582.28125 L 125.089844 582.835938 L 125.644531 584.503906 L 126.199219 585.058594 L 126.753906 586.171875 L 127.3125 586.726562 L 127.867188 587.835938 L 128.421875 588.390625 L 129.53125 590.617188 L 130.085938 591.167969 L 130.644531 592.28125 L 131.199219 592.835938 L 131.753906 593.949219 L 132.863281 595.058594 L 133.976562 597.28125 L 135.085938 598.394531 L 135.640625 599.507812 L 136.195312 600.0625 L 136.75 601.175781 L 137.304688 601.726562 L 137.863281 602.839844 C 138.367188 603.542969 138.460938 603.265625 138.972656 604.507812 L 139.527344 606.171875 L 141.195312 607.839844 C 143.585938 610.496094 145.394531 612.96875 147.308594 615.621094 L 147.859375 616.734375 L 148.417969 617.289062 L 148.972656 618.398438 L 150.082031 619.511719 L 150.636719 620.625 L 152.304688 622.289062 L 152.859375 623.402344 L 153.96875 624.511719 L 154.527344 625.625 L 155.636719 626.738281 L 156.191406 627.847656 L 158.414062 630.070312 L 158.96875 631.183594 L 160.082031 632.292969 L 160.636719 633.40625 L 162.859375 635.628906 L 163.414062 636.738281 L 165.636719 638.960938 L 166.191406 640.074219 L 168.96875 642.851562 L 169.523438 643.964844 L 171.746094 646.1875 L 172.300781 647.296875 L 176.746094 651.746094 L 177.300781 652.855469 L 180.632812 656.191406 L 181.191406 657.300781 L 187.855469 663.96875 L 188.410156 665.082031 C 188.765625 665.4375 189.570312 665.488281 190.078125 666.195312 L 190.632812 667.304688 C 190.988281 667.660156 191.792969 667.710938 192.300781 668.417969 C 192.832031 669.152344 192.519531 669.191406 193.410156 670.082031 L 201.746094 678.417969 L 202.855469 679.53125 L 203.96875 680.085938 L 207.300781 683.417969 L 207.855469 684.53125 C 208.210938 684.890625 209.015625 684.9375 209.523438 685.644531 L 210.078125 686.753906 L 211.1875 687.308594 L 215.078125 691.199219 L 216.1875 691.757812 L 219.519531 695.089844 L 220.632812 695.644531 L 225.074219 700.089844 L 226.1875 700.089844 C 226.1875 702.117188 226.601562 701.410156 227.855469 702.3125 L 230.074219 704.535156 L 231.1875 705.09375 L 234.519531 708.425781 L 235.632812 708.980469 L 238.964844 712.3125 L 240.632812 712.3125 C 240.632812 714.34375 241.042969 713.632812 242.300781 714.539062 L 243.410156 715.648438 C 244.148438 716.179688 244.1875 715.871094 245.078125 716.761719 L 246.1875 716.761719 C 246.1875 718.789062 246.601562 718.078125 247.855469 718.984375 L 248.410156 719.535156 L 249.519531 720.09375 L 251.1875 721.761719 L 252.296875 722.316406 L 253.964844 723.984375 L 255.078125 724.539062 L 256.1875 725.648438 L 257.296875 726.203125 L 258.410156 727.316406 L 259.523438 727.871094 L 260.078125 728.425781 L 261.1875 728.980469 L 262.855469 730.648438 L 263.964844 731.207031 L 264.519531 731.757812 L 265.632812 732.316406 L 267.296875 733.980469 L 269.519531 735.09375 L 270.632812 736.203125 L 271.742188 736.761719 L 272.855469 737.871094 L 275.074219 738.984375 L 276.1875 740.09375 L 277.296875 740.652344 L 277.855469 741.207031 L 278.964844 741.761719 L 280.074219 742.875 L 282.296875 743.984375 L 283.410156 745.097656 L 284.519531 745.652344 L 285.074219 746.207031 L 286.1875 746.761719 L 286.742188 747.316406 L 287.855469 747.875 L 288.410156 748.429688 L 289.519531 748.984375 L 290.074219 749.539062 L 292.296875 750.652344 L 292.851562 751.207031 L 293.964844 751.761719 L 294.519531 752.316406 L 295.632812 752.871094 L 297.296875 754.539062 L 298.964844 755.09375 L 299.519531 755.648438 L 300.632812 756.203125 L 301.1875 756.757812 L 303.410156 757.871094 L 304.519531 758.984375 L 307.851562 760.648438 L 308.410156 761.207031 L 309.519531 761.761719 L 310.074219 762.316406 L 312.296875 763.429688 L 312.851562 763.980469 L 313.964844 764.539062 L 314.519531 765.09375 L 317.851562 766.761719 L 318.40625 767.316406 L 320.628906 768.425781 L 321.183594 768.980469 L 323.40625 770.09375 L 323.960938 770.652344 L 327.292969 772.316406 L 327.851562 772.871094 L 330.074219 773.984375 L 330.628906 774.539062 L 336.183594 777.316406 L 336.738281 777.875 L 337.847656 778.429688 L 338.40625 778.984375 L 340.625 780.097656 L 342.292969 780.648438 L 342.847656 781.207031 L 347.292969 783.429688 L 347.847656 783.984375 L 354.511719 787.316406 L 355.070312 787.875 L 359.511719 790.09375 L 361.179688 790.648438 L 361.734375 791.203125 L 388.398438 804.542969 L 390.066406 805.097656 C 390.574219 805.410156 390.445312 805.675781 391.730469 806.210938 L 393.398438 806.765625 L 396.730469 808.433594 L 398.398438 808.988281 L 399.507812 809.542969 L 409.507812 809.542969 C 410.101562 809.445312 413.332031 808.324219 413.949219 807.875 L 414.507812 807.320312 L 416.171875 806.765625 L 421.730469 803.988281 L 423.394531 803.429688 L 436.726562 796.765625 L 440.058594 795.652344 L 441.171875 794.539062 L 451.171875 789.539062 C 452.074219 789.164062 453.136719 789.011719 453.949219 788.425781 C 454.917969 787.730469 454.667969 787.382812 456.171875 786.757812 C 457.230469 786.363281 459.175781 785.730469 460.058594 785.09375 L 460.617188 784.539062 L 463.949219 782.871094 L 464.503906 782.3125 L 466.726562 781.203125 L 467.28125 780.648438 L 471.726562 778.425781 L 472.277344 777.871094 C 472.839844 777.519531 474.277344 777.320312 475.054688 776.757812 L 475.613281 776.203125 L 477.835938 775.089844 L 478.390625 774.535156 L 479.503906 773.980469 L 480.054688 773.425781 C 480.617188 773.078125 482.054688 772.875 482.832031 772.3125 L 483.390625 771.757812 L 484.5 771.203125 L 485.054688 770.648438 L 488.386719 768.980469 L 488.945312 768.425781 L 491.167969 767.3125 L 491.722656 766.757812 L 493.941406 765.648438 L 494.5 765.089844 L 495.609375 764.535156 L 496.164062 763.980469 L 500.609375 761.757812 L 501.722656 760.644531 L 503.941406 759.535156 L 504.5 758.980469 L 506.71875 757.867188 L 507.832031 756.753906 L 511.164062 755.085938 L 512.277344 753.976562 L 514.5 752.863281 L 515.050781 752.308594 L 516.164062 751.753906 L 516.71875 751.199219 L 517.828125 750.644531 L 518.386719 750.089844 L 519.5 749.535156 L 520.050781 748.976562 L 521.164062 748.421875 L 522.277344 747.3125 L 524.496094 746.199219 L 525.050781 745.644531 L 526.164062 745.089844 L 526.71875 744.535156 L 527.828125 743.976562 L 528.941406 742.867188 L 530.050781 742.3125 L 530.605469 741.757812 L 532.828125 740.644531 L 533.941406 739.53125 L 535.050781 738.976562 L 535.605469 738.421875 L 536.71875 737.867188 L 537.828125 736.753906 L 538.941406 736.199219 L 539.496094 735.644531 L 540.605469 735.089844 L 542.269531 733.421875 L 543.382812 732.867188 L 543.941406 732.3125 L 545.050781 731.753906 L 546.164062 730.644531 L 547.273438 730.089844 L 547.828125 729.535156 L 548.941406 728.980469 L 551.164062 726.757812 L 553.386719 725.644531 L 555.050781 723.976562 L 556.164062 723.421875 L 556.71875 722.867188 L 557.828125 722.3125 L 558.382812 721.757812 L 559.492188 721.203125 C 560.464844 720.503906 560.214844 720.15625 561.71875 719.535156 C 564.15625 718.523438 567.019531 714.652344 569.496094 712.867188 L 570.605469 711.753906 L 571.71875 711.199219 L 572.269531 710.089844 L 573.382812 709.53125 L 574.496094 708.421875 L 575.605469 707.863281 L 577.273438 706.199219 L 578.382812 705.644531 L 582.828125 701.199219 L 583.941406 700.640625 L 586.71875 697.863281 L 587.828125 697.308594 C 598.519531 687.683594 608.769531 677.472656 618.9375 667.300781 C 619.300781 667.035156 620.332031 666.785156 621.160156 665.632812 L 622.269531 663.410156 L 626.160156 659.519531 L 626.714844 658.410156 L 633.9375 651.183594 L 634.492188 650.074219 L 636.714844 647.851562 L 637.269531 646.738281 C 640.898438 643.105469 643.742188 639.152344 647.269531 635.625 L 647.824219 634.511719 L 648.9375 633.402344 L 649.488281 632.289062 L 651.15625 630.621094 L 651.714844 629.511719 L 653.378906 627.84375 L 653.933594 626.734375 L 655.601562 625.066406 L 656.15625 623.953125 L 656.707031 623.398438 L 657.261719 622.285156 L 658.933594 620.621094 L 659.484375 619.507812 L 660.597656 618.394531 L 661.152344 617.285156 L 661.707031 616.730469 L 662.261719 615.617188 C 662.800781 614.875 664.203125 614.023438 664.484375 612.839844 L 664.484375 611.726562 L 665.597656 611.726562 L 666.710938 609.503906 L 667.261719 608.949219 L 667.816406 607.835938 L 668.929688 606.726562 L 669.484375 605.613281 L 670.597656 604.503906 L 671.707031 602.28125 L 672.820312 601.167969 L 673.375 600.054688 L 673.929688 599.5 L 674.484375 598.390625 L 675.039062 597.835938 L 675.59375 596.722656 L 676.148438 596.167969 L 676.707031 595.054688 L 677.816406 593.945312 L 678.929688 591.722656 L 680.039062 590.609375 L 681.707031 587.277344 L 682.816406 586.164062 L 683.929688 583.941406 L 684.480469 583.386719 L 685.039062 582.273438 L 685.59375 581.71875 L 686.148438 580.609375 L 686.699219 580.054688 L 687.257812 578.386719 L 687.8125 577.832031 L 688.367188 576.71875 L 688.925781 576.164062 L 689.476562 575.050781 C 690.089844 574.207031 689.789062 574.984375 690.589844 573.382812 C 690.941406 572.679688 691.238281 571.800781 691.703125 571.164062 L 692.253906 570.605469 L 693.367188 568.386719 L 693.925781 567.828125 L 694.476562 566.71875 L 695.03125 566.160156 L 698.367188 559.496094 L 699.476562 558.382812 L 700.03125 556.714844 L 702.253906 552.269531 L 702.808594 551.714844 L 706.699219 543.933594 L 707.25 543.378906 L 707.808594 541.714844 L 708.363281 541.15625 C 709.222656 539.960938 710.035156 536.917969 710.585938 536.15625 C 711.09375 535.453125 711.183594 535.730469 711.699219 534.488281 L 712.25 532.820312 L 716.140625 525.042969 L 716.695312 523.375 L 718.917969 518.929688 L 719.472656 517.261719 L 721.695312 512.816406 L 722.25 511.148438 L 724.472656 506.703125 L 725.027344 505.035156 L 725.582031 503.925781 L 726.695312 500.589844 L 728.359375 497.257812 L 729.46875 493.921875 L 730.582031 491.699219 L 731.691406 488.367188 L 732.804688 486.144531 L 733.359375 483.921875 L 733.917969 482.8125 L 734.46875 481.144531 L 735.582031 478.921875 L 736.136719 476.699219 L 737.246094 473.363281 C 737.875 471.851562 738.394531 471.257812 738.914062 469.472656 L 739.46875 467.25 L 740.023438 466.140625 L 741.691406 461.140625 C 742.152344 460.023438 742.402344 459.734375 742.800781 458.363281 L 743.359375 456.140625 L 746.136719 447.804688 L 746.6875 445.582031 L 747.804688 442.246094 C 748.175781 440.953125 748.394531 439.605469 748.910156 438.355469 L 749.46875 437.242188 L 751.136719 430.574219 C 751.476562 429.65625 751.875 429.191406 752.246094 427.796875 L 752.800781 425.019531 L 753.355469 423.351562 L 753.914062 420.574219 L 755.023438 417.238281 L 756.136719 412.792969 L 757.246094 408.902344 C 757.789062 406.492188 758.21875 404.054688 758.914062 401.679688 L 760.578125 395.011719 L 761.136719 391.675781 L 761.6875 390.007812 L 762.800781 385.5625 L 763.355469 382.226562 L 763.910156 380.007812 L 765.023438 374.449219 L 765.578125 372.226562 L 766.132812 368.890625 L 767.242188 363.890625 C 767.625 361.675781 767.777344 359.402344 768.355469 357.222656 L 768.910156 355.554688 C 769.449219 353.390625 770.066406 347.773438 770.578125 344.996094 L 771.132812 342.21875 L 771.683594 338.328125 L 772.238281 335.550781 L 773.355469 327.769531 L 773.90625 324.992188 C 774.597656 320.753906 774.847656 316.445312 775.574219 312.210938 L 776.128906 309.433594 C 777.015625 303.972656 777.65625 295.320312 778.351562 289.425781 L 779.460938 280.535156 L 780.574219 267.199219 L 781.128906 263.308594 L 781.683594 255.527344 L 782.796875 240.523438 L 783.351562 234.410156 C 783.890625 226.90625 784.179688 218.082031 784.460938 210.515625 L 785.015625 193.84375 L 785.015625 114.378906 L 763.398438 114.378906 L 757.289062 120.492188 L 756.734375 121.601562 L 752.289062 126.601562 L 749.511719 129.382812 L 748.953125 130.492188 L 747.289062 132.160156 L 746.734375 133.273438 L 743.957031 136.050781 C 741.074219 138.453125 738.5625 141.378906 735.625 143.828125 L 734.511719 144.386719 L 733.960938 144.941406 L 732.847656 145.496094 L 731.734375 146.605469 L 730.625 147.164062 L 730.066406 147.71875 L 726.738281 149.386719 L 725.625 150.496094 L 720.070312 153.273438 L 718.402344 153.832031 L 715.070312 155.496094 L 712.847656 156.054688 C 709.371094 157.066406 707.453125 157.988281 703.40625 158.832031 L 700.070312 159.386719 L 697.847656 159.941406 C 695.984375 160.277344 688.648438 160.964844 686.738281 161.054688 L 675.074219 161.054688 C 669.566406 160.824219 659.90625 159.488281 654.515625 158.273438 L 652.296875 157.71875 L 649.515625 157.164062 L 647.851562 156.609375 L 643.40625 155.496094 L 633.40625 152.160156 L 631.1875 151.050781 L 627.851562 149.9375 L 626.742188 149.382812 L 625.074219 148.828125 L 618.410156 145.496094 L 616.742188 144.9375 L 616.1875 144.382812 L 612.855469 142.71875 L 612.296875 142.160156 C 611.738281 141.8125 610.300781 141.609375 609.519531 141.050781 L 608.96875 140.496094 L 607.855469 139.9375 L 607.296875 139.382812 L 603.96875 137.714844 L 603.410156 137.160156 L 602.300781 136.605469 L 601.746094 136.046875 L 600.632812 135.492188 L 600.078125 134.9375 L 597.855469 133.828125 L 596.746094 132.714844 L 595.636719 132.160156 L 595.078125 131.605469 L 593.96875 131.046875 L 592.300781 129.382812 L 590.078125 128.269531 L 588.414062 126.601562 L 587.300781 126.046875 L 586.191406 124.933594 C 585.457031 124.40625 585.414062 124.714844 584.523438 123.824219 L 583.414062 123.824219 C 583.414062 121.796875 583 122.503906 581.746094 121.601562 L 578.96875 118.820312 L 577.855469 118.265625 L 565.078125 105.484375 L 562.300781 101.59375 L 559.523438 98.816406 L 558.96875 97.703125 L 557.855469 96.59375 L 557.300781 95.480469 L 555.636719 93.816406 L 554.523438 91.59375 L 552.859375 89.925781 L 551.75 87.703125 L 550.636719 86.589844 L 550.078125 85.480469 L 549.527344 84.925781 L 548.972656 83.257812 L 548.414062 82.703125 L 547.859375 81.589844 L 547.304688 81.035156 L 546.195312 78.8125 L 545.636719 78.257812 L 543.972656 74.921875 L 543.417969 74.367188 L 541.195312 69.921875 L 540.640625 68.253906 L 540.082031 67.144531 C 539.710938 66.238281 539.558594 65.175781 538.972656 64.363281 L 538.417969 63.808594 L 536.753906 58.808594 L 536.195312 57.695312 C 535.289062 55.503906 534.226562 51.398438 533.417969 48.804688 C 531.488281 42.175781 530.109375 32.964844 529.53125 26.019531 C 528.863281 16.402344 528.699219 6.757812 528.417969 -2.875 L 281.207031 -2.875 Z M 280.652344 3.796875 " fill-opacity="1" fill-rule="evenodd"/></g><path fill="#000000" d="M 295.097656 18.246094 C 295.097656 41.863281 287.371094 68.804688 278.320312 83.152344 C 272.714844 92.039062 269.015625 99.648438 262.183594 107.582031 C 258.902344 111.390625 255.953125 114.847656 252.734375 118.6875 C 250.707031 121.101562 243.109375 126.574219 242.878906 129.390625 C 241.285156 129.519531 223.558594 143.929688 220.210938 146.171875 C 212.730469 151.183594 203.675781 156.648438 194.921875 160.332031 C 176.734375 167.976562 157.308594 176.070312 131.773438 176.070312 L 129.550781 176.070312 C 108.890625 176.070312 87.234375 170.390625 75.109375 162.175781 C 67.480469 157.003906 62.367188 153.558594 55.800781 147.039062 C 51.492188 142.757812 43.476562 131.460938 39.554688 128.832031 C 39.554688 172.902344 39.960938 213.925781 42.886719 254.425781 C 45.675781 293.117188 51.742188 332.472656 58.582031 367.648438 C 72.125 437.261719 96.222656 504.175781 126.953125 557.097656 C 141.679688 582.457031 160.996094 612.105469 179.960938 633 C 185.261719 638.84375 189.648438 644.355469 195.242188 649.945312 C 199.65625 654.363281 206.445312 663.082031 210.984375 666.425781 C 215.304688 669.601562 223.125 678.058594 227.449219 682.1875 C 232.820312 687.320312 239.042969 692.128906 244.695312 697.167969 C 256.039062 707.285156 269.191406 715.695312 281.105469 725.207031 C 286.425781 729.457031 294.363281 734.246094 300.320312 738.21875 C 306.929688 742.628906 313.292969 746.699219 320.078125 750.679688 C 329.890625 756.433594 397.027344 795.125 404.535156 795.125 L 405.089844 795.125 C 412.707031 795.125 474.84375 758.816406 485.460938 753.265625 C 497.632812 746.90625 511.027344 736.882812 522.527344 729.214844 C 535.199219 720.765625 545.988281 711.648438 557.863281 702.878906 C 563.65625 698.601562 568.777344 693.328125 574.421875 688.882812 C 577.550781 686.421875 579.265625 684.3125 582.402344 681.863281 C 583.941406 680.660156 584.980469 679.035156 586.226562 677.910156 C 587.5625 676.703125 588.730469 676.167969 590.496094 674.398438 C 595.710938 669.160156 600.546875 664.34375 605.769531 659.113281 C 611.136719 653.746094 615.605469 648.117188 620.765625 642.996094 C 630.304688 633.519531 640.082031 620.363281 648.3125 609.425781 C 652.347656 604.070312 657.785156 597.214844 661.175781 591.726562 C 664.617188 586.15625 669.496094 577.992188 673.304688 572.738281 C 678.96875 564.925781 691.5 542.976562 695.410156 533.730469 C 701.464844 519.425781 708.570312 506.464844 714.683594 491.324219 C 717.714844 483.816406 720.4375 477.015625 723.050781 469.128906 C 725.347656 462.191406 728.234375 453.378906 730.953125 446.472656 C 736.835938 431.542969 739.144531 413.203125 744.527344 398.363281 C 746.84375 391.960938 748.265625 380.589844 750.066406 373.34375 C 751.980469 365.660156 753.832031 356.027344 755.128906 347.84375 C 755.691406 344.289062 756.359375 338.105469 757.164062 334.878906 C 758.332031 330.214844 758.117188 325.808594 759.15625 321.308594 C 761.238281 312.304688 761.515625 303.644531 762.964844 294 C 764.273438 285.296875 764.726562 275.167969 766.058594 266.53125 C 767.171875 259.34375 768.152344 245.261719 768.417969 238.328125 C 769.183594 218.742188 770.621094 199.128906 770.621094 178.847656 L 770.621094 128.835938 C 768.765625 129.507812 757.15625 143.828125 754.925781 146.480469 C 750.382812 151.886719 742.125 157.417969 736.070312 161.511719 C 724.160156 169.5625 702.828125 176.070312 682.851562 176.070312 L 680.628906 176.070312 C 636.359375 176.070312 591.132812 151.511719 568.539062 129.820312 C 552.746094 114.660156 544.933594 105.761719 533.085938 86.375 C 525.40625 73.808594 514.527344 45.175781 514.527344 25.472656 L 514.527344 11.578125 L 295.097656 11.578125 Z M 295.097656 18.246094 " fill-opacity="1" fill-rule="evenodd"/><path fill="#ffffff" d="M 353.425781 262.757812 C 341.882812 265.449219 325.613281 276.933594 316.425781 282.984375 C 308.796875 288.011719 292.453125 304.226562 287.425781 311.765625 C 272.199219 334.597656 257.878906 360.027344 257.878906 397.792969 L 257.878906 404.460938 C 257.878906 422.550781 262.738281 438.78125 267.25 452.324219 C 272.359375 467.65625 279.75 477.429688 287.761719 489.597656 C 293.027344 497.597656 308.796875 512.945312 316.875 518.269531 C 322.714844 522.113281 327.882812 526.109375 334.347656 529.6875 C 337.347656 531.34375 341.019531 533.164062 343.980469 534.5 C 345.75 535.296875 353.429688 537.601562 353.429688 539.496094 L 353.429688 755.109375 C 358.78125 756.359375 372.675781 765.320312 378.609375 768.261719 C 381.734375 769.808594 403.023438 780.671875 404.535156 780.671875 C 407.335938 780.671875 427.558594 770.214844 430.53125 768.332031 C 433.335938 766.5625 454.003906 755.621094 456.199219 755.109375 L 456.199219 539.496094 C 456.199219 537.644531 472.058594 531.160156 474.535156 530.054688 C 480.699219 527.304688 486.160156 523.195312 491.519531 519.261719 C 501.96875 511.589844 512.261719 501.871094 520.183594 491.808594 C 528.890625 480.75 534.855469 470.203125 540.816406 456.324219 C 544.683594 447.320312 551.746094 423.183594 551.746094 411.128906 L 551.746094 396.128906 C 551.746094 365.121094 536.160156 328.082031 521.882812 311.527344 C 512.175781 300.265625 505.28125 292.152344 493.195312 282.984375 C 487.246094 278.472656 483.035156 275.351562 476.011719 271.839844 C 471.703125 269.683594 460.359375 263.726562 456.199219 262.757812 L 456.199219 24.359375 L 353.429688 24.359375 L 353.429688 262.757812 Z M 353.425781 262.757812 " fill-opacity="1" fill-rule="evenodd"/><path fill="#000000" d="M 265.652344 389.457031 L 265.652344 410.574219 C 265.652344 426.527344 273.675781 450.53125 279.171875 461.515625 C 286.375 475.925781 295.273438 488.273438 306.070312 499.070312 C 323.828125 516.835938 359.65625 539.5 394.535156 539.5 L 418.421875 539.5 C 432.613281 539.5 457.464844 530.257812 467.496094 525.238281 C 481.769531 518.097656 493.421875 509.207031 504.109375 498.515625 C 514.492188 488.128906 523.519531 475.382812 530.453125 461.515625 C 535.65625 451.113281 543.972656 426.667969 543.972656 411.6875 L 543.972656 392.238281 C 543.972656 355.507812 521.902344 320.425781 503.28125 301.796875 C 491.394531 289.90625 480.773438 282.554688 464.898438 274.617188 C 453.21875 268.773438 429.894531 261.09375 412.867188 261.09375 L 399.535156 261.09375 C 362.21875 261.09375 326.53125 281.609375 307.738281 300.410156 C 296.242188 311.90625 287.625 322.792969 279.90625 338.144531 C 274.140625 349.609375 265.652344 372.863281 265.652344 389.457031 Z M 265.652344 389.457031 " fill-opacity="1" fill-rule="evenodd"/><path fill="#ffffff" d="M 272.875 398.902344 C 272.875 470.625 331.132812 532.273438 401.199219 532.273438 L 403.421875 532.273438 C 443.90625 532.273438 475.625 516.003906 495.777344 495.734375 C 515.101562 476.300781 536.191406 445.042969 536.191406 406.683594 L 536.191406 389.457031 C 536.191406 373.054688 528.152344 352.804688 522.492188 341.480469 C 515.289062 327.066406 506.832031 316.464844 496.058594 305.683594 C 477.761719 287.386719 444.960938 268.871094 408.421875 268.871094 L 398.421875 268.871094 C 361.851562 268.871094 329.222656 290.316406 310.222656 308.453125 C 291.667969 326.164062 272.875 362.515625 272.875 398.902344 Z M 272.875 398.902344 " fill-opacity="1" fill-rule="evenodd"/><path fill="#ffffff" d="M 147.882812 188.292969 L 147.882812 564.503906 C 147.882812 569.101562 166.289062 593.210938 169.65625 598.292969 C 177.347656 609.898438 186.347656 618.675781 194.214844 629.300781 C 199.453125 636.378906 244.917969 682.449219 250.65625 683.980469 L 250.65625 139.390625 C 246.90625 141.898438 244.046875 145.230469 240.332031 147.957031 C 236.550781 150.730469 233.136719 153.183594 229.449219 155.964844 C 222.570312 161.164062 213.640625 165.964844 205.65625 169.953125 C 197.273438 174.144531 188.792969 178.355469 178.976562 181.054688 C 174.265625 182.347656 169.515625 184.152344 164.328125 185.292969 C 158.796875 186.503906 153.105469 187.074219 147.882812 188.292969 Z M 147.882812 188.292969 " fill-opacity="1" fill-rule="evenodd"/><path fill="#ffffff" d="M 558.96875 684.535156 C 563.71875 681.355469 568.929688 675.867188 573.546875 671.890625 C 578.722656 667.4375 583.179688 663.367188 587.992188 658.554688 C 596.097656 650.457031 608.128906 638.738281 614.753906 629.75 C 622.621094 619.070312 631.582031 610.710938 639.289062 599.285156 C 642.621094 594.347656 661.1875 569.949219 661.1875 565.617188 L 661.1875 187.738281 C 644.660156 187.738281 615.617188 175.804688 603.96875 169.953125 C 595.832031 165.871094 588 160.949219 580.632812 156.0625 C 576.96875 153.628906 561.152344 140.527344 558.96875 139.945312 Z M 558.96875 684.535156 " fill-opacity="1" fill-rule="evenodd"/><path fill="#000000" d="M 320.648438 396.125 L 320.648438 405.574219 C 320.648438 412.425781 323.992188 423.417969 326.390625 428.171875 C 327.738281 430.839844 336.742188 446.625 336.757812 446.695312 C 340.984375 446.34375 346.078125 439.28125 349.539062 438.359375 C 348.109375 433.003906 338.097656 424.054688 337.871094 413.90625 L 371.203125 413.90625 L 371.203125 461.699219 L 386.867188 461.695312 L 385.644531 335.554688 L 385.644531 322.21875 C 378.730469 322.21875 365.605469 328.65625 360.277344 331.292969 C 352.464844 335.164062 346.628906 340.996094 340.78125 346.804688 C 331.328125 356.191406 320.648438 377.1875 320.648438 396.125 Z M 320.648438 396.125 " fill-opacity="1" fill-rule="evenodd"/><path fill="#000000" d="M 392.875 289.542969 L 392.867188 511.710938 L 413.976562 511.710938 C 428.15625 511.710938 440.574219 504.742188 451.597656 502.082031 L 445.644531 488.375 C 434.800781 490.898438 423.949219 496.710938 410.644531 496.710938 L 407.867188 496.710938 L 407.867188 303.878906 L 410.644531 303.878906 C 413.742188 303.878906 425.558594 305.824219 427.945312 306.578125 C 431.738281 307.777344 440.027344 311.582031 443.121094 311.527344 L 448.976562 297.765625 C 445.636719 297.488281 437.386719 293.25 432.269531 292.25 C 425.9375 291.019531 420.648438 288.875 412.867188 288.875 L 406.75 288.738281 Z M 392.875 289.542969 " fill-opacity="1" fill-rule="evenodd"/><path fill="#000000" d="M 293.429688 395.015625 L 293.429688 399.460938 C 293.429688 435.527344 304.9375 452.953125 320.316406 473.703125 C 325.351562 480.492188 340.136719 492.367188 348.046875 496.53125 C 355.570312 500.484375 375.40625 510.042969 385.644531 510.042969 L 385.644531 494.484375 C 369.785156 494.484375 339.191406 473.980469 331.984375 464.253906 C 320.335938 448.539062 308.429688 430.339844 308.429688 403.351562 L 308.429688 398.347656 C 308.429688 370.789062 320.105469 353.398438 331.984375 337.445312 C 340.050781 326.609375 368.960938 307.492188 385.644531 306.101562 L 385.644531 290.542969 C 377.199219 290.730469 356.734375 300.277344 349.902344 303.6875 C 342.246094 307.511719 327.132812 319.167969 322.214844 325.449219 C 314.425781 335.390625 308.429688 342.683594 302.871094 355 C 298.828125 363.953125 293.429688 382.175781 293.429688 395.015625 Z M 293.429688 395.015625 " fill-opacity="1" fill-rule="evenodd"/><path fill="#000000" d="M 460.640625 497.265625 C 464.976562 496.253906 484 479.769531 487.164062 476.003906 C 490.449219 472.089844 506.195312 451.347656 506.195312 446.695312 C 506.195312 444.441406 495.085938 440.652344 492.859375 439.472656 C 491.757812 444.210938 479.351562 464.042969 475.640625 465.035156 L 475.640625 335.554688 C 479.804688 336.667969 491.640625 356.980469 492.949219 362.445312 L 506.75 356.671875 C 506.125 349.140625 492.601562 331.027344 488.003906 325.964844 C 481.675781 318.992188 469 307.75 460.640625 303.324219 Z M 460.640625 497.265625 " fill-opacity="1" fill-rule="evenodd"/><path fill="#ffffff" d="M 335.648438 393.347656 L 335.648438 398.90625 L 370.648438 398.90625 L 370.648438 343.335938 C 356.285156 346.679688 335.648438 374.914062 335.648438 393.347656 Z M 335.648438 393.347656 " fill-opacity="1" fill-rule="evenodd"/></svg>