<svg id="svg" version="1.1" xmlns="http://www.w3.org/2000/svg" xmlns:xlink="http://www.w3.org/1999/xlink" width="400" height="379.33333333333337" viewBox="0, 0, 400,379.33333333333337"><g id="svgg"><path id="path0" d="M284.667 47.379 C 284.025 47.770,282.825 48.787,282.000 49.639 C 278.345 53.415,271.381 59.233,265.321 63.572 C 224.127 93.067,175.948 91.617,130.500 59.514 C 127.350 57.289,119.069 50.642,117.854 49.364 C 115.886 47.292,113.331 49.903,113.337 53.980 C 113.379 87.937,122.119 128.154,135.753 157.136 C 140.290 166.780,148.682 181.141,150.946 183.135 L 151.667 183.770 151.674 181.968 C 151.678 180.977,151.823 175.912,151.997 170.712 L 152.313 161.257 151.271 159.742 C 141.116 144.983,129.494 109.839,124.473 78.710 C 123.860 74.909,123.665 75.070,126.671 76.903 C 161.546 98.178,198.513 104.902,235.333 96.670 C 249.597 93.481,267.531 86.093,277.583 79.264 L 279.000 78.301 279.000 81.067 C 278.998 93.705,276.057 115.398,272.317 130.367 C 259.119 183.182,224.721 214.763,175.765 219.012 C 170.991 219.426,155.946 219.293,154.428 218.823 C 153.715 218.603,153.696 218.657,153.866 220.381 C 155.032 232.153,157.477 240.204,160.821 243.286 L 162.200 244.557 166.183 244.111 C 234.585 236.443,278.270 184.440,288.642 98.333 C 290.597 82.105,291.320 54.816,289.916 50.279 C 288.914 47.043,286.977 45.973,284.667 47.379 " stroke="none" fill="#949494" fill-rule="evenodd"></path><path id="path1" d="M221.304 8.917 C 221.288 12.904,221.176 16.867,221.054 17.723 L 220.833 19.280 214.167 23.666 C 210.500 26.078,207.276 28.179,207.003 28.334 C 206.243 28.766,206.355 28.815,214.821 31.784 C 219.182 33.313,222.860 34.775,222.996 35.032 C 223.132 35.289,224.201 39.062,225.372 43.415 C 226.542 47.768,227.595 51.330,227.712 51.331 C 227.829 51.332,230.215 48.319,233.015 44.636 C 235.815 40.952,238.308 37.861,238.553 37.767 C 238.799 37.672,242.681 37.781,247.179 38.007 C 251.678 38.234,255.438 38.340,255.535 38.243 C 255.632 38.146,253.509 34.891,250.816 31.009 L 245.921 23.952 248.956 15.916 C 250.626 11.497,251.927 7.816,251.849 7.737 C 251.770 7.659,248.134 8.662,243.770 9.966 C 239.405 11.271,235.649 12.337,235.423 12.336 C 235.198 12.334,232.035 9.933,228.395 7.000 C 224.755 4.067,221.677 1.667,221.555 1.667 C 221.433 1.667,221.320 4.929,221.304 8.917 " stroke="none" fill="#e41434" fill-rule="evenodd"></path><path id="path2" d="M21.932 283.179 C 21.867 283.244,21.143 283.324,20.323 283.356 C 19.504 283.389,18.234 283.562,17.501 283.742 C 16.769 283.923,15.869 284.127,15.501 284.197 C 14.674 284.355,12.892 285.062,12.667 285.321 C 12.504 285.509,10.666 286.423,10.333 286.482 C 10.144 286.515,9.132 287.335,7.300 288.938 C 2.369 293.255,1.843 303.770,6.318 308.573 C 6.622 308.900,6.889 309.311,6.911 309.487 C 6.933 309.663,7.224 309.915,7.559 310.047 C 7.893 310.179,8.017 310.297,7.834 310.310 C 7.538 310.331,10.248 313.016,11.895 314.333 C 12.238 314.608,13.215 315.396,14.066 316.083 C 14.916 316.771,15.774 317.333,15.973 317.333 C 16.171 317.333,16.333 317.483,16.333 317.667 C 16.333 317.850,16.558 318.000,16.833 318.000 C 17.108 318.000,17.333 318.116,17.333 318.258 C 17.333 318.399,17.858 318.798,18.500 319.143 C 19.142 319.489,19.667 319.907,19.667 320.072 C 19.667 320.237,19.817 320.280,20.000 320.167 C 20.183 320.053,20.333 320.120,20.333 320.316 C 20.333 320.639,24.737 323.667,25.207 323.667 C 25.317 323.667,26.124 324.267,27.000 325.000 C 27.876 325.733,28.684 326.333,28.796 326.333 C 28.993 326.333,29.518 326.758,31.065 328.167 C 31.468 328.533,32.137 329.065,32.552 329.348 C 36.114 331.777,37.855 338.672,35.966 342.870 C 35.197 344.579,32.349 347.610,31.295 347.842 C 30.770 347.957,30.255 348.190,30.151 348.359 C 30.046 348.528,29.670 348.667,29.314 348.667 C 28.958 348.667,28.667 348.785,28.667 348.929 C 28.667 349.262,28.248 349.311,24.049 349.475 C 20.273 349.623,18.544 349.272,15.333 347.709 C 11.555 345.868,7.758 341.704,6.548 338.073 C 5.263 334.218,5.232 334.172,3.882 334.061 C 1.661 333.879,1.496 334.425,2.491 338.667 C 2.599 339.125,2.759 340.175,2.847 341.000 C 3.152 343.856,3.610 347.172,3.882 348.500 C 3.957 348.867,4.098 349.767,4.196 350.500 C 4.294 351.233,4.435 352.021,4.510 352.250 C 4.713 352.872,7.636 352.800,7.879 352.167 C 8.155 351.449,10.886 351.524,14.302 352.343 C 22.786 354.377,32.694 353.646,37.667 350.618 C 37.942 350.451,38.429 350.226,38.750 350.118 C 39.071 350.010,39.333 349.781,39.333 349.608 C 39.333 349.435,39.457 349.370,39.608 349.464 C 39.886 349.636,43.074 346.741,44.000 345.477 C 45.625 343.257,46.000 342.644,46.000 342.200 C 46.000 341.928,46.160 341.607,46.356 341.486 C 46.552 341.365,46.632 341.056,46.533 340.800 C 46.435 340.543,46.475 340.333,46.622 340.333 C 46.769 340.333,46.899 340.146,46.911 339.917 C 46.923 339.688,47.013 338.975,47.111 338.333 C 47.632 334.941,47.648 333.960,47.220 331.917 C 46.963 330.693,46.834 329.611,46.932 329.512 C 47.031 329.414,46.974 329.333,46.806 329.333 C 46.638 329.333,46.476 328.925,46.447 328.427 C 46.418 327.928,46.231 327.466,46.031 327.399 C 45.830 327.332,45.667 327.091,45.667 326.863 C 45.667 325.458,38.676 317.667,37.416 317.667 C 37.275 317.667,36.781 317.329,36.318 316.917 C 35.270 315.983,33.426 314.667,33.166 314.667 C 33.059 314.667,32.115 314.029,31.069 313.250 C 28.713 311.496,26.399 310.000,26.039 310.000 C 25.891 310.000,25.460 309.737,25.082 309.417 C 24.704 309.096,24.061 308.608,23.651 308.333 C 23.242 308.058,22.494 307.496,21.989 307.083 C 21.484 306.671,20.941 306.333,20.782 306.333 C 20.623 306.333,20.089 305.958,19.594 305.500 C 19.100 305.042,18.530 304.667,18.328 304.667 C 18.126 304.667,18.039 304.539,18.136 304.384 C 18.329 304.070,16.854 302.667,16.331 302.667 C 16.149 302.667,16.036 302.554,16.079 302.417 C 16.123 302.279,15.678 301.473,15.092 300.626 C 14.506 299.778,14.083 299.028,14.151 298.959 C 14.220 298.890,14.093 298.020,13.869 297.025 C 13.386 294.883,14.150 291.000,15.055 291.000 C 15.230 291.000,15.292 290.869,15.193 290.709 C 15.094 290.548,15.401 290.136,15.877 289.792 C 16.352 289.448,16.911 289.011,17.120 288.820 C 18.846 287.247,23.509 286.400,26.869 287.050 C 27.766 287.224,28.762 287.391,29.083 287.421 C 29.404 287.451,29.667 287.593,29.667 287.738 C 29.667 287.882,29.779 287.974,29.917 287.942 C 30.974 287.696,38.000 292.909,38.000 293.940 C 38.000 294.126,38.112 294.328,38.250 294.389 C 38.638 294.562,40.099 296.982,40.982 298.917 L 41.781 300.667 43.357 300.667 C 44.877 300.667,44.930 300.634,44.841 299.750 C 44.646 297.811,44.249 295.157,44.122 294.940 C 44.049 294.815,43.911 293.889,43.815 292.883 C 43.720 291.877,43.574 290.554,43.491 289.944 C 43.408 289.333,43.242 288.008,43.121 287.000 C 43.001 285.992,42.883 285.017,42.859 284.833 C 42.750 284.009,42.199 283.667,40.980 283.667 C 40.258 283.667,39.667 283.799,39.667 283.961 C 39.667 284.866,36.497 285.124,33.283 284.481 C 28.315 283.487,22.313 282.798,21.932 283.179 M328.953 284.491 C 328.876 284.568,328.293 284.720,327.657 284.828 C 327.020 284.937,326.313 285.273,326.083 285.576 C 325.854 285.879,325.667 286.024,325.667 285.897 C 325.667 285.770,325.404 285.942,325.083 286.278 C 322.306 289.190,323.914 294.821,327.720 295.507 C 329.528 295.833,331.695 295.891,331.864 295.617 C 331.964 295.455,332.174 295.402,332.331 295.499 C 332.665 295.705,334.304 295.028,334.940 294.421 C 335.183 294.189,335.504 294.000,335.654 294.000 C 336.878 294.000,337.501 289.178,336.498 287.467 C 335.787 286.253,334.000 284.631,334.000 285.200 C 334.000 285.318,333.774 285.227,333.497 284.998 C 333.026 284.606,329.258 284.186,328.953 284.491 M257.333 286.500 L 257.333 288.000 259.250 288.015 C 260.304 288.023,261.842 288.179,262.667 288.362 C 263.492 288.544,264.331 288.713,264.532 288.736 C 265.159 288.808,266.419 290.953,266.882 292.738 C 267.274 294.251,267.567 340.826,267.201 343.500 C 266.686 347.257,264.285 348.864,259.417 348.710 L 257.333 348.644 257.333 350.153 L 257.333 351.663 283.250 351.748 L 309.167 351.833 310.589 348.919 C 311.371 347.317,312.025 345.892,312.042 345.753 C 312.059 345.614,312.333 345.125,312.651 344.667 C 312.969 344.208,313.780 342.721,314.454 341.361 C 315.127 340.001,315.834 338.700,316.024 338.471 C 316.215 338.241,316.394 337.741,316.423 337.360 C 316.452 336.979,316.576 336.667,316.699 336.667 C 316.822 336.667,317.001 336.367,317.097 336.000 C 317.253 335.403,317.107 335.333,315.710 335.333 C 314.026 335.333,313.747 335.538,312.362 337.784 C 311.926 338.491,310.841 339.840,309.951 340.783 C 309.062 341.726,308.333 342.589,308.333 342.700 C 308.333 343.033,306.908 344.457,305.762 345.270 C 303.914 346.578,300.955 346.900,291.323 346.839 C 282.640 346.784,281.914 346.740,281.083 346.221 C 280.854 346.078,280.656 346.082,280.643 346.230 C 280.630 346.379,280.407 345.919,280.147 345.210 C 279.484 343.403,279.418 293.256,280.076 291.378 C 281.021 288.678,282.655 288.108,289.667 288.031 L 292.500 288.000 292.500 286.500 L 292.500 285.000 274.917 285.000 L 257.333 285.000 257.333 286.500 M69.897 288.166 C 69.199 288.363,68.488 288.744,68.319 289.012 C 68.149 289.281,68.008 289.364,68.005 289.198 C 68.002 289.032,67.697 289.171,67.326 289.507 C 66.561 290.199,65.659 293.079,65.813 294.333 C 65.869 294.792,65.934 295.349,65.957 295.571 C 66.266 298.507,72.700 300.126,76.589 298.246 C 79.023 297.070,80.474 290.333,78.293 290.333 C 78.132 290.333,78.000 290.122,78.000 289.863 C 78.000 288.477,72.713 287.370,69.897 288.166 M89.500 287.925 C 89.133 288.004,88.571 288.302,88.250 288.586 C 87.929 288.871,87.667 288.979,87.667 288.827 C 87.667 288.284,85.934 290.185,85.535 291.167 C 83.424 296.349,87.633 300.128,94.082 298.842 C 95.581 298.543,97.960 296.507,98.182 295.333 C 98.743 292.365,98.726 292.191,97.702 290.594 C 96.294 288.395,92.720 287.232,89.500 287.925 M126.613 306.801 C 125.392 307.432,124.326 307.882,124.244 307.800 C 124.162 307.718,123.905 307.879,123.673 308.159 C 123.441 308.438,122.991 308.667,122.672 308.667 C 122.354 308.667,121.540 309.042,120.865 309.500 C 120.190 309.958,119.422 310.333,119.159 310.333 C 118.897 310.333,117.868 310.773,116.874 311.311 C 115.880 311.849,114.977 312.199,114.867 312.089 C 114.757 311.979,114.667 312.663,114.667 313.609 C 114.667 315.205,114.721 315.321,115.417 315.212 C 115.829 315.147,116.745 315.297,117.452 315.545 C 118.159 315.793,118.872 315.913,119.035 315.811 C 119.199 315.710,119.333 315.776,119.333 315.958 C 119.333 316.140,119.619 316.379,119.969 316.490 C 121.010 316.821,121.008 316.773,121.008 342.974 C 121.009 368.604,120.793 373.015,119.597 371.820 C 119.486 371.708,119.295 371.928,119.175 372.308 C 119.054 372.689,118.825 373.000,118.666 373.000 C 118.507 373.000,117.954 373.174,117.438 373.387 C 116.922 373.600,116.352 373.738,116.172 373.694 C 114.495 373.286,113.000 374.068,113.000 375.354 L 113.000 376.667 127.167 376.667 L 141.333 376.667 141.333 375.333 C 141.333 374.059,141.285 373.998,140.250 373.962 C 138.333 373.896,137.172 373.774,135.821 373.497 C 135.095 373.348,134.300 373.187,134.055 373.139 C 132.066 372.746,131.554 370.349,131.407 360.734 C 131.267 351.495,131.336 350.644,132.171 351.337 C 132.443 351.563,132.667 351.650,132.667 351.529 C 132.667 351.409,132.950 351.462,133.296 351.647 C 134.543 352.314,140.737 352.727,143.161 352.304 C 145.446 351.905,148.468 350.987,148.693 350.623 C 148.811 350.433,149.000 350.282,149.114 350.289 C 149.532 350.315,152.490 348.891,152.928 348.453 C 153.177 348.204,153.521 348.000,153.692 348.000 C 154.288 348.000,160.313 341.696,160.525 340.851 C 160.643 340.383,160.882 340.000,161.056 340.000 C 161.230 340.000,161.280 339.850,161.167 339.667 C 161.053 339.483,161.092 339.333,161.252 339.333 C 161.489 339.333,162.692 337.292,162.825 336.667 C 162.844 336.575,163.212 335.600,163.642 334.500 C 165.331 330.180,164.784 321.084,162.629 317.667 C 162.456 317.392,162.226 316.904,162.118 316.583 C 162.010 316.262,161.765 316.000,161.572 316.000 C 161.380 316.000,161.322 315.901,161.443 315.779 C 162.526 314.697,155.693 309.139,152.500 308.506 C 149.130 307.837,143.349 308.165,142.799 309.056 C 142.704 309.209,142.389 309.333,142.099 309.333 C 141.808 309.333,140.429 309.889,139.035 310.569 C 137.641 311.248,136.387 311.773,136.250 311.735 C 136.112 311.698,136.000 311.824,136.000 312.017 C 136.000 312.210,135.550 312.525,135.000 312.717 C 134.450 312.908,134.000 313.201,134.000 313.366 C 134.000 313.531,133.887 313.636,133.750 313.598 C 133.612 313.560,133.017 313.787,132.426 314.102 L 131.353 314.674 131.260 310.254 L 131.167 305.833 130.000 305.743 C 129.193 305.681,128.149 306.007,126.613 306.801 M333.267 306.510 C 333.170 306.608,332.749 306.753,332.332 306.834 C 331.916 306.914,330.733 307.225,329.704 307.524 C 328.675 307.824,327.550 308.124,327.204 308.191 C 326.858 308.258,325.733 308.558,324.704 308.857 C 323.675 309.157,322.559 309.455,322.223 309.520 C 321.456 309.669,320.510 309.920,318.917 310.398 C 316.419 311.148,317.259 313.647,320.013 313.662 C 321.265 313.669,324.816 314.648,324.946 315.022 C 325.009 315.200,325.246 315.532,325.474 315.760 C 325.986 316.272,325.935 314.794,325.968 330.167 C 326.007 348.104,325.684 348.966,318.917 349.030 C 317.686 349.042,317.667 349.062,317.667 350.354 L 317.667 351.667 331.000 351.667 L 344.333 351.667 344.333 350.490 C 344.333 349.185,344.238 349.124,341.775 348.856 C 338.851 348.539,336.551 346.747,336.933 345.085 C 336.986 344.855,336.902 344.667,336.746 344.667 C 336.400 344.667,336.437 346.702,336.381 324.750 L 336.333 306.333 334.889 306.333 C 334.094 306.333,333.365 306.413,333.267 306.510 M68.000 307.626 C 67.725 307.785,66.900 308.035,66.167 308.181 C 65.433 308.328,64.758 308.467,64.667 308.489 C 64.575 308.511,63.731 308.721,62.790 308.955 C 61.850 309.189,60.875 309.418,60.624 309.465 C 60.372 309.511,59.267 309.753,58.167 310.002 C 57.067 310.251,55.979 310.421,55.750 310.380 C 55.466 310.328,55.333 310.792,55.333 311.833 C 55.333 312.870,55.467 313.341,55.750 313.295 C 55.979 313.258,56.392 313.320,56.667 313.432 C 56.942 313.544,58.007 313.872,59.034 314.161 C 61.881 314.961,61.797 314.536,61.913 328.667 C 62.021 341.740,62.251 344.469,63.468 347.126 C 64.325 348.998,67.272 352.000,68.252 352.000 C 68.590 352.000,69.044 352.178,69.261 352.395 C 69.868 353.001,75.648 353.095,77.266 352.524 C 78.003 352.264,78.691 352.136,78.795 352.240 C 78.899 352.343,79.213 352.239,79.492 352.007 C 79.771 351.775,80.000 351.687,80.000 351.811 C 80.000 351.936,80.412 351.812,80.917 351.537 C 81.421 351.262,82.433 350.773,83.167 350.452 C 83.900 350.131,84.575 349.777,84.667 349.667 C 84.758 349.556,85.358 349.220,86.000 348.921 C 86.642 348.622,87.467 348.097,87.833 347.754 C 88.200 347.411,88.950 346.906,89.500 346.630 C 90.050 346.355,90.912 345.858,91.417 345.527 L 92.333 344.923 92.333 348.962 C 92.333 353.566,92.126 353.333,95.452 352.467 C 96.578 352.174,97.725 351.889,98.000 351.834 C 98.275 351.779,99.400 351.483,100.500 351.176 C 101.600 350.870,102.725 350.607,103.000 350.592 C 103.275 350.578,103.575 350.456,103.667 350.322 C 103.758 350.188,104.433 349.991,105.167 349.885 C 108.660 349.378,109.492 348.922,109.600 347.453 L 109.700 346.098 107.600 346.471 C 102.292 347.412,102.645 348.829,102.566 326.282 L 102.500 307.500 100.676 307.461 C 99.673 307.440,98.416 307.547,97.884 307.700 C 97.353 307.852,96.073 308.074,95.042 308.192 C 94.011 308.311,93.080 308.459,92.974 308.521 C 92.868 308.584,91.818 308.728,90.641 308.840 C 89.463 308.953,88.275 309.124,88.000 309.221 C 87.725 309.317,86.675 309.475,85.667 309.571 C 83.421 309.786,83.000 310.098,83.000 311.541 C 83.000 312.374,83.152 312.678,83.583 312.711 C 83.904 312.736,84.617 312.786,85.167 312.824 C 85.717 312.861,86.692 313.019,87.333 313.175 C 87.975 313.331,88.655 313.432,88.843 313.398 C 89.419 313.297,91.667 315.343,91.667 315.969 C 91.667 316.291,91.763 316.652,91.881 316.770 C 91.999 316.888,92.085 317.663,92.071 318.492 C 92.058 319.321,92.033 324.762,92.014 330.583 L 91.981 341.167 89.809 342.500 C 88.615 343.233,87.392 344.058,87.092 344.333 C 86.793 344.608,86.462 344.807,86.357 344.774 C 86.182 344.719,84.540 345.370,83.333 345.972 C 82.293 346.491,77.842 346.156,76.497 345.458 C 72.578 343.425,72.334 342.135,72.241 322.958 L 72.167 307.500 70.333 307.419 C 69.325 307.374,68.275 307.467,68.000 307.626 M189.333 307.852 C 185.764 308.560,181.291 310.610,180.567 311.870 C 180.420 312.125,180.150 312.333,179.968 312.333 C 179.785 312.333,179.304 312.692,178.901 313.130 C 176.993 315.200,176.349 316.001,176.581 316.010 C 176.720 316.016,176.554 316.183,176.212 316.381 C 175.733 316.659,173.689 320.399,173.505 321.333 C 173.487 321.425,173.219 322.250,172.909 323.167 C 171.323 327.855,171.511 336.089,173.305 340.500 C 174.097 342.448,175.183 344.596,175.749 345.333 C 177.408 347.496,178.836 349.000,179.232 349.000 C 179.471 349.000,179.667 349.159,179.667 349.353 C 179.667 349.547,179.801 349.623,179.965 349.522 C 180.129 349.420,180.343 349.545,180.441 349.799 C 180.705 350.487,183.647 351.843,186.457 352.571 C 191.394 353.850,202.538 351.655,204.104 349.095 C 204.253 348.852,204.499 348.730,204.652 348.824 C 204.805 348.919,205.016 348.772,205.121 348.498 C 205.226 348.224,205.481 348.000,205.686 348.000 C 206.110 348.000,207.058 347.159,210.359 343.859 C 212.625 341.593,213.371 340.000,212.167 340.000 C 211.892 340.000,211.664 339.737,211.660 339.417 C 211.656 339.007,211.174 339.331,210.044 340.500 C 208.181 342.430,207.114 343.333,206.699 343.333 C 206.537 343.333,206.318 343.558,206.213 343.833 C 206.107 344.108,205.791 344.333,205.510 344.333 C 205.230 344.333,205.000 344.453,205.000 344.600 C 205.000 344.871,202.527 345.882,202.468 345.635 C 202.450 345.561,202.213 345.685,201.941 345.910 C 201.010 346.683,195.997 346.831,193.971 346.146 C 192.979 345.810,191.944 345.498,191.673 345.452 C 191.401 345.407,191.126 345.211,191.062 345.018 C 190.997 344.825,190.693 344.667,190.386 344.667 C 190.078 344.667,189.640 344.367,189.411 344.000 C 189.182 343.633,188.825 343.333,188.619 343.333 C 188.412 343.333,187.896 342.958,187.471 342.500 C 187.046 342.042,186.772 341.667,186.862 341.667 C 186.953 341.667,186.868 341.479,186.674 341.250 C 185.321 339.651,185.000 339.179,185.000 338.782 C 185.000 338.535,184.850 338.333,184.667 338.333 C 184.483 338.333,184.358 338.221,184.387 338.083 C 184.417 337.946,184.251 337.383,184.020 336.833 C 183.163 334.801,182.265 331.102,182.097 328.917 L 181.924 326.667 197.927 326.667 L 213.930 326.667 214.057 325.332 C 214.156 324.295,214.058 323.957,213.616 323.817 C 212.830 323.568,211.723 321.585,210.927 319.005 C 209.237 313.520,204.798 309.129,200.000 308.196 C 199.542 308.107,198.792 307.935,198.333 307.815 C 196.759 307.401,191.498 307.422,189.333 307.852 M232.078 307.822 C 231.295 308.066,230.395 308.379,230.078 308.518 C 229.760 308.656,229.350 308.790,229.167 308.815 C 228.983 308.840,227.708 309.224,226.333 309.668 C 224.958 310.112,223.758 310.494,223.667 310.516 C 223.575 310.538,223.104 310.721,222.619 310.923 C 222.134 311.125,221.197 311.391,220.536 311.515 C 219.398 311.729,219.333 311.811,219.333 313.045 C 219.333 314.511,219.257 314.459,223.667 315.980 L 226.167 316.842 226.333 328.338 C 226.601 346.815,226.187 348.391,220.917 348.925 L 219.333 349.085 219.333 350.376 L 219.333 351.667 233.500 351.667 L 247.667 351.667 247.667 350.490 C 247.667 349.083,247.641 349.072,243.833 348.882 C 242.183 348.800,240.796 348.699,240.750 348.658 C 240.704 348.617,240.554 348.562,240.417 348.535 C 237.328 347.940,236.920 346.331,236.749 334.072 C 236.585 322.391,236.613 322.204,238.943 319.333 C 241.703 315.933,242.874 315.465,245.667 316.646 C 247.637 317.480,248.366 317.741,249.141 317.890 C 249.493 317.958,249.962 318.164,250.184 318.347 C 251.075 319.087,253.288 319.007,253.506 318.226 C 253.617 317.827,253.847 317.200,254.016 316.833 C 254.185 316.467,254.831 314.817,255.451 313.167 L 256.578 310.167 255.206 309.751 C 254.451 309.522,253.533 309.273,253.167 309.198 C 252.800 309.123,251.318 308.673,249.874 308.197 C 246.844 307.200,245.774 307.128,244.741 307.852 C 244.333 308.138,243.998 308.250,243.995 308.102 C 243.987 307.651,240.000 312.055,240.000 312.515 C 240.000 312.751,239.864 312.994,239.697 313.056 C 239.530 313.117,238.783 314.217,238.036 315.500 L 236.678 317.833 236.673 312.583 L 236.667 307.333 235.083 307.356 C 234.213 307.368,232.860 307.578,232.078 307.822 M366.167 307.726 C 365.067 307.891,363.942 308.119,363.667 308.234 C 363.066 308.484,363.105 308.473,361.750 308.795 C 361.154 308.937,360.667 309.191,360.667 309.360 C 360.667 309.529,360.454 309.667,360.194 309.667 C 359.599 309.667,357.672 310.748,357.669 311.083 C 357.668 311.221,357.462 311.333,357.212 311.333 C 356.596 311.333,352.299 315.660,352.904 315.672 C 353.048 315.675,352.999 315.787,352.795 315.922 C 352.225 316.297,350.950 318.981,350.875 319.962 C 350.838 320.442,350.705 321.002,350.579 321.205 C 350.241 321.752,350.532 327.353,350.954 328.417 C 351.153 328.921,351.231 329.333,351.127 329.333 C 350.785 329.333,352.743 332.470,353.885 333.751 C 354.498 334.439,355.000 334.893,355.000 334.760 C 355.000 334.627,355.235 334.854,355.523 335.265 C 355.810 335.675,356.168 335.935,356.318 335.843 C 356.468 335.750,356.776 335.897,357.003 336.170 C 357.230 336.443,357.622 336.667,357.874 336.667 C 358.127 336.667,358.333 336.802,358.333 336.967 C 358.333 337.133,358.817 337.437,359.409 337.643 L 360.484 338.018 359.644 338.454 C 359.182 338.693,357.685 339.311,356.319 339.827 C 351.107 341.793,349.883 342.875,349.776 345.609 C 349.631 349.293,352.055 352.390,356.518 354.225 C 358.233 354.930,358.284 355.062,357.178 355.932 C 356.726 356.287,356.451 356.673,356.567 356.789 C 356.683 356.905,356.596 357.000,356.375 357.000 C 355.278 357.000,348.806 362.750,349.195 363.379 C 349.293 363.537,349.225 363.667,349.044 363.667 C 347.957 363.667,347.868 369.872,348.943 370.659 C 349.075 370.755,349.430 371.224,349.734 371.702 C 351.135 373.908,354.666 375.475,360.000 376.259 C 363.368 376.753,375.000 376.473,375.000 375.897 C 375.000 375.749,375.122 375.703,375.272 375.795 C 376.220 376.381,385.472 373.216,387.090 371.752 C 387.446 371.430,387.797 371.207,387.872 371.255 C 388.111 371.412,389.802 370.227,390.897 369.134 C 391.483 368.550,392.024 368.135,392.100 368.211 C 392.340 368.451,394.599 365.498,395.673 363.541 C 396.239 362.510,396.600 361.667,396.477 361.667 C 396.353 361.667,396.401 361.479,396.582 361.250 C 398.631 358.669,394.521 349.862,391.086 349.471 C 390.947 349.455,390.533 349.329,390.167 349.190 C 387.362 348.128,386.737 348.069,375.667 347.819 C 364.319 347.563,363.184 347.448,360.973 346.320 C 359.189 345.410,358.638 343.107,360.000 342.256 C 360.367 342.027,360.667 341.626,360.667 341.364 C 360.667 341.103,360.760 340.982,360.873 341.096 C 360.987 341.209,361.734 340.803,362.533 340.193 C 363.913 339.140,364.067 339.099,365.577 339.398 C 367.436 339.766,374.053 339.507,374.941 339.032 C 375.277 338.852,375.915 338.645,376.359 338.571 C 378.472 338.222,381.574 336.592,383.977 334.571 C 385.906 332.947,388.940 328.045,388.478 327.298 C 388.377 327.134,388.421 327.000,388.576 327.000 C 389.450 327.000,389.208 319.634,388.277 317.895 C 387.972 317.326,388.037 317.289,388.977 317.495 C 391.406 318.028,395.299 318.549,396.678 318.526 L 398.167 318.500 398.259 313.917 C 398.310 311.396,398.235 309.336,398.093 309.340 C 397.950 309.344,396.858 309.496,395.667 309.677 C 394.475 309.859,392.900 310.092,392.167 310.196 C 391.433 310.299,390.458 310.456,390.000 310.545 C 389.542 310.633,388.417 310.780,387.500 310.870 C 386.583 310.960,385.398 311.177,384.865 311.351 C 384.060 311.614,383.721 311.533,382.844 310.864 C 379.365 308.211,372.081 306.840,366.167 307.726 M195.667 311.334 C 198.236 312.644,200.190 315.609,200.829 319.167 C 200.895 319.533,200.971 319.833,200.998 319.833 C 201.025 319.833,201.113 320.433,201.192 321.167 C 201.272 321.900,201.414 322.837,201.508 323.250 L 201.679 324.000 191.817 324.000 C 182.582 324.000,181.966 323.963,182.125 323.417 C 182.219 323.096,182.479 321.858,182.704 320.667 C 183.278 317.620,187.000 310.261,187.000 312.172 C 187.000 312.318,187.266 312.196,187.590 311.903 C 189.140 310.500,193.440 310.197,195.667 311.334 M371.722 311.155 C 372.028 311.183,372.515 311.403,372.806 311.644 C 373.096 311.885,373.333 311.953,373.333 311.797 C 373.333 311.640,373.997 312.204,374.808 313.051 C 380.745 319.246,380.214 332.106,373.884 335.408 C 372.449 336.157,367.667 336.585,367.667 335.964 C 367.667 335.801,367.442 335.667,367.167 335.667 C 366.892 335.667,366.377 335.404,366.024 335.083 C 365.670 334.762,365.183 334.334,364.941 334.131 C 363.968 333.317,362.330 331.088,362.151 330.333 C 362.129 330.242,361.941 329.757,361.733 329.256 C 360.673 326.705,360.365 321.032,361.104 317.667 C 361.563 315.573,364.474 311.667,365.574 311.667 C 365.808 311.667,366.000 311.508,366.000 311.314 C 366.000 311.120,366.125 311.038,366.279 311.133 C 366.432 311.228,366.994 311.171,367.529 311.007 C 368.063 310.843,369.100 310.798,369.833 310.907 C 370.567 311.016,371.417 311.128,371.722 311.155 M145.324 314.959 C 148.578 316.415,151.748 320.236,152.827 324.000 C 153.169 325.192,153.528 326.314,153.625 326.494 C 154.146 327.460,154.432 335.103,154.007 336.681 C 153.836 337.315,153.627 338.231,153.543 338.716 C 153.382 339.643,151.361 344.381,151.343 343.872 C 151.338 343.709,150.999 344.009,150.590 344.538 C 148.690 346.998,146.508 348.117,143.681 348.082 C 141.775 348.058,139.669 347.844,139.417 347.648 C 139.371 347.612,139.221 347.554,139.083 347.517 C 138.074 347.251,136.000 346.206,136.000 345.964 C 136.000 345.800,135.813 345.666,135.583 345.665 C 135.354 345.664,134.679 345.207,134.083 344.648 C 133.487 344.090,133.000 343.727,133.000 343.842 C 133.000 343.957,132.625 343.605,132.167 343.061 L 131.333 342.070 131.338 330.285 C 131.344 316.746,130.992 318.164,134.834 316.214 C 139.211 313.992,142.330 313.618,145.324 314.959 M365.698 356.186 C 365.819 356.261,368.674 356.406,372.042 356.508 C 385.300 356.911,386.768 357.151,387.998 359.121 C 388.520 359.956,388.757 363.238,388.316 363.511 C 388.142 363.618,388.000 364.057,388.000 364.486 C 388.000 368.137,378.939 372.735,372.241 372.481 C 369.630 372.382,369.095 372.319,366.879 371.844 C 360.472 370.472,355.310 362.962,358.397 359.503 C 358.637 359.234,359.433 358.265,360.167 357.351 L 361.500 355.688 363.489 355.869 C 364.584 355.969,365.578 356.112,365.698 356.186 " stroke="none" fill="#1c1c1c" fill-rule="evenodd"></path><path id="path3" d="M11.401 285.674 C 10.010 286.520,10.021 286.799,11.417 286.068 C 12.854 285.314,12.799 285.355,12.623 285.179 C 12.539 285.094,11.989 285.317,11.401 285.674 M257.095 286.500 C 257.098 287.417,257.163 287.752,257.239 287.245 C 257.316 286.739,257.314 285.989,257.235 285.579 C 257.156 285.169,257.093 285.583,257.095 286.500 M292.417 286.500 C 292.421 287.233,292.489 287.494,292.569 287.079 C 292.649 286.665,292.646 286.065,292.562 285.746 C 292.479 285.427,292.414 285.767,292.417 286.500 M236.667 312.500 C 236.667 315.403,236.756 317.688,236.866 317.579 C 237.094 317.350,237.049 307.605,236.819 307.374 C 236.735 307.291,236.667 309.597,236.667 312.500 M119.667 309.833 C 119.093 310.161,119.003 310.313,119.376 310.322 C 119.674 310.328,120.105 310.108,120.333 309.833 C 120.841 309.222,120.736 309.222,119.667 309.833 M207.000 312.167 C 207.622 312.808,208.206 313.333,208.297 313.333 C 208.389 313.333,207.955 312.808,207.333 312.167 C 206.711 311.525,206.128 311.000,206.036 311.000 C 205.944 311.000,206.378 311.525,207.000 312.167 M219.026 312.897 C 219.012 313.665,219.119 314.367,219.264 314.457 C 219.409 314.547,219.473 314.068,219.406 313.393 C 219.224 311.549,219.056 311.329,219.026 312.897 M186.029 313.127 L 185.224 314.167 186.178 313.260 C 186.702 312.761,187.064 312.294,186.982 312.221 C 186.900 312.148,186.471 312.556,186.029 313.127 M30.167 312.541 C 30.927 313.292,33.055 314.723,33.199 314.579 C 33.284 314.493,32.974 314.178,32.510 313.878 C 30.731 312.729,29.846 312.224,30.167 312.541 M36.424 317.000 C 36.890 317.367,37.381 317.667,37.514 317.667 C 37.648 317.667,37.375 317.367,36.909 317.000 C 36.443 316.633,35.952 316.333,35.819 316.333 C 35.686 316.333,35.958 316.633,36.424 317.000 M61.814 329.333 C 61.814 334.558,61.860 336.696,61.916 334.083 C 61.972 331.471,61.972 327.196,61.916 324.583 C 61.860 321.971,61.814 324.108,61.814 329.333 M236.813 332.167 C 236.813 337.300,236.860 339.353,236.916 336.730 C 236.972 334.106,236.972 329.906,236.916 327.396 C 236.859 324.887,236.813 327.033,236.813 332.167 M182.000 323.750 C 182.000 323.887,186.425 324.000,191.833 324.000 C 197.242 324.000,201.667 323.887,201.667 323.750 C 201.667 323.612,197.242 323.500,191.833 323.500 C 186.425 323.500,182.000 323.612,182.000 323.750 M25.000 323.795 C 25.000 323.866,25.412 324.189,25.917 324.513 L 26.833 325.103 26.198 324.385 C 25.636 323.749,25.000 323.436,25.000 323.795 M214.084 325.500 C 214.088 326.233,214.156 326.494,214.236 326.079 C 214.315 325.665,214.312 325.065,214.229 324.746 C 214.146 324.427,214.080 324.767,214.084 325.500 M32.000 329.097 C 32.000 329.158,32.460 329.649,33.021 330.187 C 33.621 330.761,33.953 330.933,33.827 330.603 C 33.643 330.125,32.000 328.770,32.000 329.097 M47.411 336.333 C 47.411 336.975,47.479 337.237,47.563 336.917 C 47.647 336.596,47.647 336.071,47.563 335.750 C 47.479 335.429,47.411 335.692,47.411 336.333 M187.471 342.500 C 187.896 342.958,188.365 343.333,188.513 343.333 C 188.661 343.333,188.431 342.958,188.000 342.500 C 187.569 342.042,187.100 341.667,186.958 341.667 C 186.815 341.667,187.046 342.042,187.471 342.500 M132.029 342.873 C 132.471 343.444,132.900 343.852,132.982 343.779 C 133.064 343.706,132.702 343.239,132.178 342.740 L 131.224 341.833 132.029 342.873 M224.308 347.545 C 223.565 348.353,223.557 348.394,224.211 348.054 C 224.602 347.851,225.010 347.456,225.117 347.176 C 225.390 346.465,225.238 346.535,224.308 347.545 M287.750 346.915 C 289.537 346.975,292.462 346.975,294.250 346.915 C 296.037 346.855,294.575 346.806,291.000 346.806 C 287.425 346.806,285.962 346.855,287.750 346.915 M257.060 350.250 L 257.000 352.000 283.083 351.919 L 309.167 351.837 283.268 351.750 L 257.370 351.663 257.245 350.081 L 257.120 348.500 257.060 350.250 M65.333 350.167 C 65.955 350.808,66.539 351.333,66.631 351.333 C 66.722 351.333,66.289 350.808,65.667 350.167 C 65.045 349.525,64.461 349.000,64.369 349.000 C 64.278 349.000,64.711 349.525,65.333 350.167 M226.439 351.916 C 230.439 351.970,236.889 351.970,240.773 351.916 C 244.656 351.863,241.383 351.819,233.500 351.819 C 225.617 351.820,222.439 351.863,226.439 351.916 M324.250 351.916 C 327.962 351.970,334.038 351.970,337.750 351.916 C 341.462 351.863,338.425 351.819,331.000 351.819 C 323.575 351.819,320.538 351.863,324.250 351.916 M360.188 357.261 C 359.013 358.669,358.990 358.729,359.967 357.833 C 360.892 356.985,361.907 355.642,361.595 355.678 C 361.543 355.684,360.910 356.396,360.188 357.261 M349.786 372.257 C 350.050 372.684,352.000 374.127,352.000 373.896 C 352.000 373.813,351.449 373.326,350.776 372.812 C 350.103 372.299,349.658 372.049,349.786 372.257 M139.587 373.902 C 140.002 373.982,140.602 373.979,140.921 373.896 C 141.239 373.812,140.900 373.747,140.167 373.751 C 139.433 373.754,139.173 373.823,139.587 373.902 " stroke="none" fill="#1c141c" fill-rule="evenodd"></path><path id="path4" d="" stroke="none" fill="#889858" fill-rule="evenodd"></path><path id="path5" d="" stroke="none" fill="#345c58" fill-rule="evenodd"></path><path id="path6" d="" stroke="none" fill="#341c5c" fill-rule="evenodd"></path><path id="path7" d="" stroke="none" fill="#381c1c" fill-rule="evenodd"></path></g></svg>