<svg xmlns="http://www.w3.org/2000/svg" width="400" height="379.333"><g fill-rule="evenodd"><path d="M284.667 47.379c-.642.391-1.842 1.408-2.667 2.26-3.655 3.776-10.619 9.594-16.679 13.933-41.194 29.495-89.373 28.045-134.821-4.058-3.15-2.225-11.431-8.872-12.646-10.15-1.968-2.072-4.523.539-4.517 4.616.042 33.957 8.782 74.174 22.416 103.156 4.537 9.644 12.929 24.005 15.193 25.999l.721.635.007-1.802c.004-.991.149-6.056.323-11.256l.316-9.455-1.042-1.515c-10.155-14.759-21.777-49.903-26.798-81.032-.613-3.801-.808-3.64 2.198-1.807 34.875 21.275 71.842 27.999 108.662 19.767 14.264-3.189 32.198-10.577 42.25-17.406l1.417-.963v2.766c-.002 12.638-2.943 34.331-6.683 49.3-13.198 52.815-47.596 84.396-96.552 88.645-4.774.414-19.819.281-21.337-.189-.713-.22-.732-.166-.562 1.558 1.166 11.772 3.611 19.823 6.955 22.905l1.379 1.271 3.983-.446c68.402-7.668 112.087-59.671 122.459-145.778 1.955-16.228 2.678-43.517 1.274-48.054-1.002-3.236-2.939-4.306-5.249-2.9" fill="#949494"/><path d="M221.304 8.917c-.016 3.987-.128 7.95-.25 8.806l-.221 1.557-6.666 4.386c-3.667 2.412-6.891 4.513-7.164 4.668-.76.432-.648.481 7.818 3.45 4.361 1.529 8.039 2.991 8.175 3.248.136.257 1.205 4.03 2.376 8.383 1.17 4.353 2.223 7.915 2.34 7.916.117.001 2.503-3.012 5.303-6.695 2.8-3.684 5.293-6.775 5.538-6.869.246-.095 4.128.014 8.626.24 4.499.227 8.259.333 8.356.236.097-.097-2.026-3.352-4.719-7.234l-4.895-7.057 3.035-8.036c1.67-4.419 2.971-8.1 2.893-8.179-.079-.078-3.715.925-8.079 2.229-4.365 1.305-8.121 2.371-8.347 2.37-.225-.002-3.388-2.403-7.028-5.336-3.64-2.933-6.718-5.333-6.84-5.333-.122 0-.235 3.262-.251 7.25" fill="#e41434"/><path d="M21.932 283.179c-.065.065-.789.145-1.609.177-.819.033-2.089.206-2.822.386a50.04 50.04 0 0 1-2 .455c-.827.158-2.609.865-2.834 1.124-.163.188-2.001 1.102-2.334 1.161-.189.033-1.201.853-3.033 2.456-4.931 4.317-5.457 14.832-.982 19.635.304.327.571.738.593.914.022.176.313.428.648.56.334.132.458.25.275.263-.296.021 2.414 2.706 4.061 4.023.343.275 1.32 1.063 2.171 1.75.85.688 1.708 1.25 1.907 1.25.198 0 .36.15.36.334 0 .183.225.333.5.333s.5.116.5.258c0 .141.525.54 1.167.885.642.346 1.167.764 1.167.929 0 .165.15.208.333.095.183-.114.333-.047.333.149 0 .323 4.404 3.351 4.874 3.351.11 0 .917.6 1.793 1.333.876.733 1.684 1.333 1.796 1.333.197 0 .722.425 2.269 1.834.403.366 1.072.898 1.487 1.181 3.562 2.429 5.303 9.324 3.414 13.522-.769 1.709-3.617 4.74-4.671 4.972-.525.115-1.04.348-1.144.517-.105.169-.481.308-.837.308s-.647.118-.647.262c0 .333-.419.382-4.618.546-3.776.148-5.505-.203-8.716-1.766-3.778-1.841-7.575-6.005-8.785-9.636-1.285-3.855-1.316-3.901-2.666-4.012-2.221-.182-2.386.364-1.391 4.606.108.458.268 1.508.356 2.333.305 2.856.763 6.172 1.035 7.5.075.367.216 1.267.314 2 .098.733.239 1.521.314 1.75.203.622 3.126.55 3.369-.083.276-.718 3.007-.643 6.423.176 8.484 2.034 18.392 1.303 23.365-1.725a6.524 6.524 0 0 1 1.083-.5c.321-.108.583-.337.583-.51s.124-.238.275-.144c.278.172 3.466-2.723 4.392-3.987 1.625-2.22 2-2.833 2-3.277 0-.272.16-.593.356-.714.196-.121.276-.43.177-.686-.098-.257-.058-.467.089-.467s.277-.187.289-.416c.012-.229.102-.942.2-1.584.521-3.392.537-4.373.109-6.416-.257-1.224-.386-2.306-.288-2.405.099-.098.042-.179-.126-.179s-.33-.408-.359-.906c-.029-.499-.216-.961-.416-1.028-.201-.067-.364-.308-.364-.536 0-1.405-6.991-9.196-8.251-9.196-.141 0-.635-.338-1.098-.75-1.048-.934-2.892-2.25-3.152-2.25-.107 0-1.051-.638-2.097-1.417-2.356-1.754-4.67-3.25-5.03-3.25-.148 0-.579-.263-.957-.583a19.197 19.197 0 0 0-1.431-1.084 27.333 27.333 0 0 1-1.662-1.25c-.505-.412-1.048-.75-1.207-.75-.159 0-.693-.375-1.188-.833-.494-.458-1.064-.833-1.266-.833-.202 0-.289-.128-.192-.283.193-.314-1.282-1.717-1.805-1.717-.182 0-.295-.113-.252-.25.044-.138-.401-.944-.987-1.791-.586-.848-1.009-1.598-.941-1.667.069-.069-.058-.939-.282-1.934-.483-2.142.281-6.025 1.186-6.025.175 0 .237-.131.138-.291-.099-.161.208-.573.684-.917a18.763 18.763 0 0 0 1.243-.972c1.726-1.573 6.389-2.42 9.749-1.77.897.174 1.893.341 2.214.371.321.03.584.172.584.317 0 .144.112.236.25.204 1.057-.246 8.083 4.967 8.083 5.998 0 .186.112.388.25.449.388.173 1.849 2.593 2.732 4.528l.799 1.75h1.576c1.52 0 1.573-.033 1.484-.917-.195-1.939-.592-4.593-.719-4.81-.073-.125-.211-1.051-.307-2.057a91.695 91.695 0 0 0-.324-2.939 246.14 246.14 0 0 1-.37-2.944c-.12-1.008-.238-1.983-.262-2.167-.109-.824-.66-1.166-1.879-1.166-.722 0-1.313.132-1.313.294 0 .905-3.17 1.163-6.384.52-4.968-.994-10.97-1.683-11.351-1.302m307.021 1.312c-.077.077-.66.229-1.296.337-.637.109-1.344.445-1.574.748-.229.303-.416.448-.416.321s-.263.045-.584.381c-2.777 2.912-1.169 8.543 2.637 9.229 1.808.326 3.975.384 4.144.11.1-.162.31-.215.467-.118.334.206 1.973-.471 2.609-1.078.243-.232.564-.421.714-.421 1.224 0 1.847-4.822.844-6.533-.711-1.214-2.498-2.836-2.498-2.267 0 .118-.226.027-.503-.202-.471-.392-4.239-.812-4.544-.507m-71.62 2.009v1.5l1.917.015c1.054.008 2.592.164 3.417.347.825.182 1.664.351 1.865.374.627.072 1.887 2.217 2.35 4.002.392 1.513.685 48.088.319 50.762-.515 3.757-2.916 5.364-7.784 5.21l-2.084-.066v3.019l25.917.085 25.917.085 1.422-2.914c.782-1.602 1.436-3.027 1.453-3.166.017-.139.291-.628.609-1.086.318-.459 1.129-1.946 1.803-3.306.673-1.36 1.38-2.661 1.57-2.89.191-.23.37-.73.399-1.111.029-.381.153-.693.276-.693.123 0 .302-.3.398-.667.156-.597.01-.667-1.387-.667-1.684 0-1.963.205-3.348 2.451-.436.707-1.521 2.056-2.411 2.999-.889.943-1.618 1.806-1.618 1.917 0 .333-1.425 1.757-2.571 2.57-1.848 1.308-4.807 1.63-14.439 1.569-8.683-.055-9.409-.099-10.24-.618-.229-.143-.427-.139-.44.009-.013.149-.236-.311-.496-1.02-.663-1.807-.729-51.954-.071-53.832.945-2.7 2.579-3.27 9.591-3.347L292.5 288v-3h-35.167v1.5m-187.436 1.666c-.698.197-1.409.578-1.578.846-.17.269-.311.352-.314.186-.003-.166-.308-.027-.679.309-.765.692-1.667 3.572-1.513 4.826.056.459.121 1.016.144 1.238.309 2.936 6.743 4.555 10.632 2.675 2.434-1.176 3.885-7.913 1.704-7.913-.161 0-.293-.211-.293-.47 0-1.386-5.287-2.493-8.103-1.697m19.603-.241c-.367.079-.929.377-1.25.661-.321.285-.583.393-.583.241 0-.543-1.733 1.358-2.132 2.34-2.111 5.182 2.098 8.961 8.547 7.675 1.499-.299 3.878-2.335 4.1-3.509.561-2.968.544-3.142-.48-4.739-1.408-2.199-4.982-3.362-8.202-2.669m37.113 18.876c-1.221.631-2.287 1.081-2.369.999-.082-.082-.339.079-.571.359-.232.279-.682.508-1.001.508-.318 0-1.132.375-1.807.833-.675.458-1.443.833-1.706.833-.262 0-1.291.44-2.285.978-.994.538-1.897.888-2.007.778-.11-.11-.2.574-.2 1.52 0 1.596.054 1.712.75 1.603.412-.065 1.328.085 2.035.333.707.248 1.42.368 1.583.266.164-.101.298-.035.298.147s.286.421.636.532c1.041.331 1.039.283 1.039 26.484.001 25.63-.215 30.041-1.411 28.846-.111-.112-.302.108-.422.488-.121.381-.35.692-.509.692-.159 0-.712.174-1.228.387-.516.213-1.086.351-1.266.307-1.677-.408-3.172.374-3.172 1.66v1.313h28.333v-1.334c0-1.274-.048-1.335-1.083-1.371-1.917-.066-3.078-.188-4.429-.465-.726-.149-1.521-.31-1.766-.358-1.989-.393-2.501-2.79-2.648-12.405-.14-9.239-.071-10.09.764-9.397.272.226.496.313.496.192 0-.12.283-.067.629.118 1.247.667 7.441 1.08 9.865.657 2.285-.399 5.307-1.317 5.532-1.681.118-.19.307-.341.421-.334.418.026 3.376-1.398 3.814-1.836.249-.249.593-.453.764-.453.596 0 6.621-6.304 6.833-7.149.118-.468.357-.851.531-.851.174 0 .224-.15.111-.333-.114-.184-.075-.334.085-.334.237 0 1.44-2.041 1.573-2.666.019-.092.387-1.067.817-2.167 1.689-4.32 1.142-13.416-1.013-16.833a6.12 6.12 0 0 1-.511-1.084c-.108-.321-.353-.583-.546-.583-.192 0-.25-.099-.129-.221 1.083-1.082-5.75-6.64-8.943-7.273-3.37-.669-9.151-.341-9.701.55-.095.153-.41.277-.7.277-.291 0-1.67.556-3.064 1.236-1.394.679-2.648 1.204-2.785 1.166-.138-.037-.25.089-.25.282 0 .193-.45.508-1 .7-.55.191-1 .484-1 .649 0 .165-.113.27-.25.232-.138-.038-.733.189-1.324.504l-1.073.572-.093-4.42-.093-4.421-1.167-.09c-.807-.062-1.851.264-3.387 1.058m206.654-.291c-.097.098-.518.243-.935.324-.416.08-1.599.391-2.628.69-1.029.3-2.154.6-2.5.667-.346.067-1.471.367-2.5.666-1.029.3-2.145.598-2.481.663-.767.149-1.713.4-3.306.878-2.498.75-1.658 3.249 1.096 3.264 1.252.007 4.803.986 4.933 1.36.063.178.3.51.528.738.512.512.461-.966.494 14.407.039 17.937-.284 18.799-7.051 18.863-1.231.012-1.25.032-1.25 1.324v1.313h26.666v-1.177c0-1.305-.095-1.366-2.558-1.634-2.924-.317-5.224-2.109-4.842-3.771.053-.23-.031-.418-.187-.418-.346 0-.309 2.035-.365-19.917l-.048-18.417h-1.444c-.795 0-1.524.08-1.622.177M68 307.626c-.275.159-1.1.409-1.833.555-.734.147-1.409.286-1.5.308l-1.877.466c-.94.234-1.915.463-2.166.51-.252.046-1.357.288-2.457.537-1.1.249-2.188.419-2.417.378-.284-.052-.417.412-.417 1.453 0 1.037.134 1.508.417 1.462.229-.037.642.025.917.137.275.112 1.34.44 2.367.729 2.847.8 2.763.375 2.879 14.506.108 13.073.338 15.802 1.555 18.459.857 1.872 3.804 4.874 4.784 4.874.338 0 .792.178 1.009.395.607.606 6.387.7 8.005.129.737-.26 1.425-.388 1.529-.284.104.103.418-.001.697-.233.279-.232.508-.32.508-.196 0 .125.412.001.917-.274a35.419 35.419 0 0 1 2.25-1.085c.733-.321 1.408-.675 1.5-.785.091-.111.691-.447 1.333-.746s1.467-.824 1.833-1.167c.367-.343 1.117-.848 1.667-1.124.55-.275 1.412-.772 1.917-1.103l.916-.604v4.039c0 4.604-.207 4.371 3.119 3.505a83.387 83.387 0 0 1 2.548-.633c.275-.055 1.4-.351 2.5-.658 1.1-.306 2.225-.569 2.5-.584.275-.014.575-.136.667-.27.091-.134.766-.331 1.5-.437 3.493-.507 4.325-.963 4.433-2.432l.1-1.355-2.1.373c-5.308.941-4.955 2.358-5.034-20.189L102.5 307.5l-1.824-.039c-1.003-.021-2.26.086-2.792.239-.531.152-1.811.374-2.842.492-1.031.119-1.962.267-2.068.329-.106.063-1.156.207-2.333.319-1.178.113-2.366.284-2.641.381-.275.096-1.325.254-2.333.35-2.246.215-2.667.527-2.667 1.97 0 .833.152 1.137.583 1.17.321.025 1.034.075 1.584.113.55.037 1.525.195 2.166.351.642.156 1.322.257 1.51.223.576-.101 2.824 1.945 2.824 2.571 0 .322.096.683.214.801s.204.893.19 1.722c-.013.829-.038 6.27-.057 12.091l-.033 10.584-2.172 1.333c-1.194.733-2.417 1.558-2.717 1.833-.299.275-.63.474-.735.441-.175-.055-1.817.596-3.024 1.198-1.04.519-5.491.184-6.836-.514-3.919-2.033-4.163-3.323-4.256-22.5l-.074-15.458-1.834-.081c-1.008-.045-2.058.048-2.333.207m121.333.226c-3.569.708-8.042 2.758-8.766 4.018-.147.255-.417.463-.599.463-.183 0-.664.359-1.067.797-1.908 2.07-2.552 2.871-2.32 2.88.139.006-.027.173-.369.371-.479.278-2.523 4.018-2.707 4.952-.018.092-.286.917-.596 1.834-1.586 4.688-1.398 12.922.396 17.333.792 1.948 1.878 4.096 2.444 4.833 1.659 2.163 3.087 3.667 3.483 3.667.239 0 .435.159.435.353 0 .194.134.27.298.169.164-.102.378.023.476.277.264.688 3.206 2.044 6.016 2.772 4.937 1.279 16.081-.916 17.647-3.476.149-.243.395-.365.548-.271.153.095.364-.052.469-.326.105-.274.36-.498.565-.498.424 0 1.372-.841 4.673-4.141 2.266-2.266 3.012-3.859 1.808-3.859-.275 0-.503-.263-.507-.583-.004-.41-.486-.086-1.616 1.083-1.863 1.93-2.93 2.833-3.345 2.833-.162 0-.381.225-.486.5-.106.275-.422.5-.703.5-.28 0-.51.12-.51.267 0 .271-2.473 1.282-2.532 1.035-.018-.074-.255.05-.527.275-.931.773-5.944.921-7.97.236-.992-.336-2.027-.648-2.298-.694-.272-.045-.547-.241-.611-.434-.065-.193-.369-.351-.676-.351-.308 0-.746-.3-.975-.667-.229-.367-.586-.667-.792-.667-.207 0-.723-.375-1.148-.833-.425-.458-.699-.833-.609-.833.091 0 .006-.188-.188-.417-1.353-1.599-1.674-2.071-1.674-2.468 0-.247-.15-.449-.333-.449-.184 0-.309-.112-.28-.25.03-.137-.136-.7-.367-1.25-.857-2.032-1.755-5.731-1.923-7.916l-.173-2.25h32.006l.127-1.335c.099-1.037.001-1.375-.441-1.515-.786-.249-1.893-2.232-2.689-4.812-1.69-5.485-6.129-9.876-10.927-10.809a32.497 32.497 0 0 1-1.667-.381c-1.574-.414-6.835-.393-9 .037m42.745-.03c-.783.244-1.683.557-2 .696-.318.138-.728.272-.911.297-.184.025-1.459.409-2.834.853a175.06 175.06 0 0 1-2.666.848c-.092.022-.563.205-1.048.407-.485.202-1.422.468-2.083.592-1.138.214-1.203.296-1.203 1.53 0 1.466-.076 1.414 4.334 2.935l2.5.862.166 11.496c.268 18.477-.146 20.053-5.416 20.587l-1.584.16v2.582h28.334v-1.177c0-1.407-.026-1.418-3.834-1.608-1.65-.082-3.037-.183-3.083-.224-.046-.041-.196-.096-.333-.123-3.089-.595-3.497-2.204-3.668-14.463-.164-11.681-.136-11.868 2.194-14.739 2.76-3.4 3.931-3.868 6.724-2.687 1.97.834 2.699 1.095 3.474 1.244.352.068.821.274 1.043.457.891.74 3.104.66 3.322-.121.111-.399.341-1.026.51-1.393.169-.366.815-2.016 1.435-3.666l1.127-3-1.372-.416c-.755-.229-1.673-.478-2.039-.553-.367-.075-1.849-.525-3.293-1.001-3.03-.997-4.1-1.069-5.133-.345-.408.286-.743.398-.746.25-.008-.451-3.995 3.953-3.995 4.413 0 .236-.136.479-.303.541-.167.061-.914 1.161-1.661 2.444l-1.358 2.333-.005-5.25-.006-5.25-1.584.023c-.87.012-2.223.222-3.005.466m134.089-.096c-1.1.165-2.225.393-2.5.508-.601.25-.562.239-1.917.561-.596.142-1.083.396-1.083.565 0 .169-.213.307-.473.307-.595 0-2.522 1.081-2.525 1.416-.001.138-.207.25-.457.25-.616 0-4.913 4.327-4.308 4.339.144.003.095.115-.109.25-.57.375-1.845 3.059-1.92 4.04-.037.48-.17 1.04-.296 1.243-.338.547-.047 6.148.375 7.212.199.504.277.916.173.916-.342 0 1.616 3.137 2.758 4.418.613.688 1.115 1.142 1.115 1.009s.235.094.523.505c.287.41.645.67.795.578.15-.093.458.054.685.327.227.273.619.497.871.497.253 0 .459.135.459.3 0 .166.484.47 1.076.676l1.075.375-.84.436c-.462.239-1.959.857-3.325 1.373-5.212 1.966-6.436 3.048-6.543 5.782-.145 3.684 2.279 6.781 6.742 8.616 1.715.705 1.766.837.66 1.707-.452.355-.727.741-.611.857.116.116.029.211-.192.211-1.097 0-7.569 5.75-7.18 6.379.098.158.03.288-.151.288-1.087 0-1.176 6.205-.101 6.992.132.096.487.565.791 1.043 1.401 2.206 4.932 3.773 10.266 4.557 3.368.494 15 .214 15-.362 0-.148.122-.194.272-.102.948.586 10.2-2.579 11.818-4.043.356-.322.707-.545.782-.497.239.157 1.93-1.028 3.025-2.121.586-.584 1.127-.999 1.203-.923.24.24 2.499-2.713 3.573-4.67.566-1.031.927-1.874.804-1.874-.124 0-.076-.188.105-.417 2.049-2.581-2.061-11.388-5.496-11.779-.139-.016-.553-.142-.919-.281-2.805-1.062-3.43-1.121-14.5-1.371-11.348-.256-12.483-.371-14.694-1.499-1.784-.91-2.335-3.213-.973-4.064.367-.229.667-.63.667-.892 0-.261.093-.382.206-.268.114.113.861-.293 1.66-.903 1.38-1.053 1.534-1.094 3.044-.795 1.859.368 8.476.109 9.364-.366.336-.18.974-.387 1.418-.461 2.113-.349 5.215-1.979 7.618-4 1.929-1.624 4.963-6.526 4.501-7.273-.101-.164-.057-.298.098-.298.874 0 .632-7.366-.299-9.105-.305-.569-.24-.606.7-.4 2.429.533 6.322 1.054 7.701 1.031l1.489-.026.092-4.583c.051-2.521-.024-4.581-.166-4.577-.143.004-1.235.156-2.426.337-1.192.182-2.767.415-3.5.519-.734.103-1.709.26-2.167.349-.458.088-1.583.235-2.5.325-.917.09-2.102.307-2.635.481-.805.263-1.144.182-2.021-.487-3.479-2.653-10.763-4.024-16.677-3.138m-170.5 3.608c2.569 1.31 4.523 4.275 5.162 7.833.066.366.142.666.169.666.027 0 .115.6.194 1.334.08.733.222 1.67.316 2.083l.171.75h-9.862c-9.235 0-9.851-.037-9.692-.583.094-.321.354-1.559.579-2.75.574-3.047 4.296-10.406 4.296-8.495 0 .146.266.024.59-.269 1.55-1.403 5.85-1.706 8.077-.569m176.055-.179c.306.028.793.248 1.084.489.29.241.527.309.527.153 0-.157.664.407 1.475 1.254 5.937 6.195 5.406 19.055-.924 22.357-1.435.749-6.217 1.177-6.217.556 0-.163-.225-.297-.5-.297s-.79-.263-1.143-.584a46.874 46.874 0 0 0-1.083-.952c-.973-.814-2.611-3.043-2.79-3.798-.022-.091-.21-.576-.418-1.077-1.06-2.551-1.368-8.224-.629-11.589.459-2.094 3.37-6 4.47-6 .234 0 .426-.159.426-.353 0-.194.125-.276.279-.181.153.095.715.038 1.25-.126.534-.164 1.571-.209 2.304-.1.734.109 1.584.221 1.889.248m-226.398 3.804c3.254 1.456 6.424 5.277 7.503 9.041.342 1.192.701 2.314.798 2.494.521.966.807 8.609.382 10.187a28 28 0 0 0-.464 2.035c-.161.927-2.182 5.665-2.2 5.156-.005-.163-.344.137-.753.666-1.9 2.46-4.082 3.579-6.909 3.544-1.906-.024-4.012-.238-4.264-.434a1.278 1.278 0 0 0-.334-.131c-1.009-.266-3.083-1.311-3.083-1.553 0-.164-.187-.298-.417-.299-.229-.001-.904-.458-1.5-1.017-.596-.558-1.083-.921-1.083-.806 0 .115-.375-.237-.833-.781l-.834-.991.005-11.785c.006-13.539-.346-12.121 3.496-14.071 4.377-2.222 7.496-2.596 10.49-1.255m220.374 41.227c.121.075 2.976.22 6.344.322 13.258.403 14.726.643 15.956 2.613.522.835.759 4.117.318 4.39-.174.107-.316.546-.316.975 0 3.651-9.061 8.249-15.759 7.995-2.611-.099-3.146-.162-5.362-.637-6.407-1.372-11.569-8.882-8.482-12.341a87.411 87.411 0 0 0 1.77-2.152l1.333-1.663 1.989.181c1.095.1 2.089.243 2.209.317" fill="#1c1c1c"/><path d="M11.401 285.674c-1.391.846-1.38 1.125.016.394 1.437-.754 1.382-.713 1.206-.889-.084-.085-.634.138-1.222.495m245.694.826c.003.917.068 1.252.144.745.077-.506.075-1.256-.004-1.666-.079-.41-.142.004-.14.921m35.322 0c.004.733.072.994.152.579.08-.414.077-1.014-.007-1.333-.083-.319-.148.021-.145.754m-55.75 26c0 2.903.089 5.188.199 5.079.228-.229.183-9.974-.047-10.205-.084-.083-.152 2.223-.152 5.126m-117-2.667c-.574.328-.664.48-.291.489.298.006.729-.214.957-.489.508-.611.403-.611-.666 0M207 312.167c.622.641 1.206 1.166 1.297 1.166.092 0-.342-.525-.964-1.166-.622-.642-1.205-1.167-1.297-1.167-.092 0 .342.525.964 1.167m12.026.73c-.014.768.093 1.47.238 1.56.145.09.209-.389.142-1.064-.182-1.844-.35-2.064-.38-.496m-32.997.23-.805 1.04.954-.907c.524-.499.886-.966.804-1.039-.082-.073-.511.335-.953.906m-155.862-.586c.76.751 2.888 2.182 3.032 2.038.085-.086-.225-.401-.689-.701-1.779-1.149-2.664-1.654-2.343-1.337M36.424 317c.466.367.957.667 1.09.667.134 0-.139-.3-.605-.667-.466-.367-.957-.667-1.09-.667-.133 0 .139.3.605.667m25.39 12.333c0 5.225.046 7.363.102 4.75.056-2.612.056-6.887 0-9.5-.056-2.612-.102-.475-.102 4.75m174.999 2.834c0 5.133.047 7.186.103 4.563.056-2.624.056-6.824 0-9.334-.057-2.509-.103-.363-.103 4.771M182 323.75c0 .137 4.425.25 9.833.25 5.409 0 9.834-.113 9.834-.25 0-.138-4.425-.25-9.834-.25-5.408 0-9.833.112-9.833.25m-157 .045c0 .071.412.394.917.718l.916.59-.635-.718c-.562-.636-1.198-.949-1.198-.59m189.084 1.705c.004.733.072.994.152.579.079-.414.076-1.014-.007-1.333-.083-.319-.149.021-.145.754M32 329.097c0 .061.46.552 1.021 1.09.6.574.932.746.806.416-.184-.478-1.827-1.833-1.827-1.506m15.411 7.236c0 .642.068.904.152.584a2.734 2.734 0 0 0 0-1.167c-.084-.321-.152-.058-.152.583m140.06 6.167c.425.458.894.833 1.042.833.148 0-.082-.375-.513-.833-.431-.458-.9-.833-1.042-.833-.143 0 .088.375.513.833m-55.442.373c.442.571.871.979.953.906.082-.073-.28-.54-.804-1.039l-.954-.907.805 1.04m92.279 4.672c-.743.808-.751.849-.097.509.391-.203.799-.598.906-.878.273-.711.121-.641-.809.369m63.442-.63c1.787.06 4.712.06 6.5 0 1.787-.06.325-.109-3.25-.109s-5.038.049-3.25.109m-30.69 3.335L257 352l26.083-.081 26.084-.082-25.899-.087-25.898-.087-.125-1.582-.125-1.581-.06 1.75m-191.727-.083c.622.641 1.206 1.166 1.298 1.166.091 0-.342-.525-.964-1.166-.622-.642-1.206-1.167-1.298-1.167-.091 0 .342.525.964 1.167m161.106 1.749c4 .054 10.45.054 14.334 0 3.883-.053.61-.097-7.273-.097-7.883.001-11.061.044-7.061.097m97.811 0c3.712.054 9.788.054 13.5 0 3.712-.053.675-.097-6.75-.097s-10.462.044-6.75.097m35.938 5.345c-1.175 1.408-1.198 1.468-.221.572.925-.848 1.94-2.191 1.628-2.155-.052.006-.685.718-1.407 1.583m-10.402 14.996c.264.427 2.214 1.87 2.214 1.639 0-.083-.551-.57-1.224-1.084-.673-.513-1.118-.763-.99-.555m-210.199 1.645c.415.08 1.015.077 1.334-.006.318-.084-.021-.149-.754-.145-.734.003-.994.072-.58.151" fill="#1c141c"/></g></svg>